<?xml version="1.0" encoding="UTF-8" standalone="no"?>
<!DOCTYPE svg PUBLIC "-//W3C//DTD SVG 1.1//EN"
 "http://www.w3.org/Graphics/SVG/1.1/DTD/svg11.dtd">
<!-- Generated by graphviz version 2.43.0 (0)
 -->
<!-- Title: /home/runner/work/cbmc/cbmc/src/pointer&#45;analysis/add_failed_symbols.h Pages: 1 -->
<svg width="1019pt" height="610pt"
 viewBox="0.00 0.00 1018.93 610.00" xmlns="http://www.w3.org/2000/svg" xmlns:xlink="http://www.w3.org/1999/xlink">
<g id="graph0" class="graph" transform="scale(1 1) rotate(0) translate(4 606)">
<title>/home/runner/work/cbmc/cbmc/src/pointer&#45;analysis/add_failed_symbols.h</title>
<!-- Node1 -->
<g id="node1" class="node">
<title>Node1</title>
<g id="a_node1"><a xlink:title="Pointer Dereferencing.">
<polygon fill="#bfbfbf" stroke="black" points="358.5,-560.5 358.5,-601.5 503.5,-601.5 503.5,-560.5 358.5,-560.5"/>
<text text-anchor="start" x="366.5" y="-589.5" font-family="Helvetica,sans-Serif" font-size="10.00">/home/runner/work/cbmc</text>
<text text-anchor="start" x="366.5" y="-578.5" font-family="Helvetica,sans-Serif" font-size="10.00">/cbmc/src/pointer&#45;analysis</text>
<text text-anchor="middle" x="431" y="-567.5" font-family="Helvetica,sans-Serif" font-size="10.00">/add_failed_symbols.h</text>
</a>
</g>
</g>
<!-- Node2 -->
<g id="node2" class="node">
<title>Node2</title>
<g id="a_node2"><a xlink:href="expr_8h.html" target="_top" xlink:title=" ">
<polygon fill="none" stroke="black" points="783.5,-504.5 783.5,-523.5 848.5,-523.5 848.5,-504.5 783.5,-504.5"/>
<text text-anchor="middle" x="816" y="-511.5" font-family="Helvetica,sans-Serif" font-size="10.00">util/expr.h</text>
</a>
</g>
</g>
<!-- Node1&#45;&gt;Node2 -->
<g id="edge1" class="edge">
<title>Node1&#45;&gt;Node2</title>
<path fill="none" stroke="midnightblue" d="M503.87,-567.7C583.54,-554.25 708.5,-533.15 773.5,-522.17"/>
<polygon fill="midnightblue" stroke="midnightblue" points="774.13,-525.62 783.41,-520.5 772.96,-518.72 774.13,-525.62"/>
</g>
<!-- Node29 -->
<g id="node21" class="node">
<title>Node29</title>
<g id="a_node21"><a xlink:href="optional_8h.html" target="_top" xlink:title=" ">
<polygon fill="none" stroke="black" points="44.5,-224.5 44.5,-243.5 109.5,-243.5 109.5,-224.5 44.5,-224.5"/>
<text text-anchor="middle" x="77" y="-231.5" font-family="Helvetica,sans-Serif" font-size="10.00">optional.h</text>
</a>
</g>
</g>
<!-- Node1&#45;&gt;Node29 -->
<g id="edge42" class="edge">
<title>Node1&#45;&gt;Node29</title>
<path fill="none" stroke="midnightblue" d="M358.21,-579.49C273.18,-574.59 144,-551.87 144,-459 144,-459 144,-459 144,-345 144,-306.7 114.01,-270.42 94.16,-250.59"/>
<polygon fill="midnightblue" stroke="midnightblue" points="96.52,-248 86.89,-243.6 91.67,-253.05 96.52,-248"/>
</g>
<!-- Node3 -->
<g id="node3" class="node">
<title>Node3</title>
<g id="a_node3"><a xlink:href="as__const_8h.html" target="_top" xlink:title=" ">
<polygon fill="none" stroke="black" points="718,-112.5 718,-131.5 786,-131.5 786,-112.5 718,-112.5"/>
<text text-anchor="middle" x="752" y="-119.5" font-family="Helvetica,sans-Serif" font-size="10.00">as_const.h</text>
</a>
</g>
</g>
<!-- Node2&#45;&gt;Node3 -->
<g id="edge2" class="edge">
<title>Node2&#45;&gt;Node3</title>
<path fill="none" stroke="midnightblue" d="M783.36,-510.97C751.92,-507.28 705.11,-496.92 677,-468 656.03,-446.41 658,-433.1 658,-403 658,-403 658,-403 658,-233 658,-189.93 700.16,-155.21 728.01,-136.98"/>
<polygon fill="midnightblue" stroke="midnightblue" points="729.88,-139.94 736.48,-131.65 726.15,-134.01 729.88,-139.94"/>
</g>
<!-- Node4 -->
<g id="node4" class="node">
<title>Node4</title>
<g id="a_node4"><a xlink:href="type_8h.html" target="_top" xlink:title="Defines typet, type_with_subtypet and type_with_subtypest.">
<polygon fill="none" stroke="black" points="686.5,-448.5 686.5,-467.5 733.5,-467.5 733.5,-448.5 686.5,-448.5"/>
<text text-anchor="middle" x="710" y="-455.5" font-family="Helvetica,sans-Serif" font-size="10.00">type.h</text>
</a>
</g>
</g>
<!-- Node2&#45;&gt;Node4 -->
<g id="edge3" class="edge">
<title>Node2&#45;&gt;Node4</title>
<path fill="none" stroke="midnightblue" d="M798.97,-504.32C781.97,-495.66 755.62,-482.24 736.01,-472.25"/>
<polygon fill="midnightblue" stroke="midnightblue" points="737.49,-469.08 726.99,-467.65 734.31,-475.31 737.49,-469.08"/>
</g>
<!-- Node33 -->
<g id="node25" class="node">
<title>Node33</title>
<g id="a_node25"><a xlink:href="validation__mode_8h.html" target="_top" xlink:title=" ">
<polygon fill="none" stroke="black" points="880.5,-336.5 880.5,-355.5 987.5,-355.5 987.5,-336.5 880.5,-336.5"/>
<text text-anchor="middle" x="934" y="-343.5" font-family="Helvetica,sans-Serif" font-size="10.00">validation_mode.h</text>
</a>
</g>
</g>
<!-- Node2&#45;&gt;Node33 -->
<g id="edge40" class="edge">
<title>Node2&#45;&gt;Node33</title>
<path fill="none" stroke="midnightblue" d="M848.7,-508.62C893.29,-501.99 969.84,-488.01 989,-468 1012.65,-443.3 1017.08,-422.18 1001,-392 993.45,-377.83 979.24,-367.33 965.84,-360.06"/>
<polygon fill="midnightblue" stroke="midnightblue" points="967.3,-356.87 956.79,-355.53 964.17,-363.13 967.3,-356.87"/>
</g>
<!-- Node34 -->
<g id="node26" class="node">
<title>Node34</title>
<g id="a_node26"><a xlink:href="validate__types_8h.html" target="_top" xlink:title=" ">
<polygon fill="none" stroke="black" points="894,-392.5 894,-411.5 992,-411.5 992,-392.5 894,-392.5"/>
<text text-anchor="middle" x="943" y="-399.5" font-family="Helvetica,sans-Serif" font-size="10.00">validate_types.h</text>
</a>
</g>
</g>
<!-- Node2&#45;&gt;Node34 -->
<g id="edge39" class="edge">
<title>Node2&#45;&gt;Node34</title>
<path fill="none" stroke="midnightblue" d="M848.72,-508.29C890.18,-501.57 958.07,-487.81 973,-468 984.38,-452.9 971.64,-432.79 959.43,-418.96"/>
<polygon fill="midnightblue" stroke="midnightblue" points="961.9,-416.48 952.48,-411.63 956.82,-421.29 961.9,-416.48"/>
</g>
<!-- Node35 -->
<g id="node27" class="node">
<title>Node35</title>
<g id="a_node27"><a xlink:href="validate__expressions_8h.html" target="_top" xlink:title=" ">
<polygon fill="none" stroke="black" points="751.5,-448.5 751.5,-467.5 880.5,-467.5 880.5,-448.5 751.5,-448.5"/>
<text text-anchor="middle" x="816" y="-455.5" font-family="Helvetica,sans-Serif" font-size="10.00">validate_expressions.h</text>
</a>
</g>
</g>
<!-- Node2&#45;&gt;Node35 -->
<g id="edge38" class="edge">
<title>Node2&#45;&gt;Node35</title>
<path fill="none" stroke="midnightblue" d="M816,-504.08C816,-497.01 816,-486.86 816,-477.99"/>
<polygon fill="midnightblue" stroke="midnightblue" points="819.5,-477.75 816,-467.75 812.5,-477.75 819.5,-477.75"/>
</g>
<!-- Node36 -->
<g id="node28" class="node">
<title>Node36</title>
<g id="a_node28"><a xlink:title=" ">
<polygon fill="none" stroke="#bfbfbf" points="898.5,-448.5 898.5,-467.5 963.5,-467.5 963.5,-448.5 898.5,-448.5"/>
<text text-anchor="middle" x="931" y="-455.5" font-family="Helvetica,sans-Serif" font-size="10.00">functional</text>
</a>
</g>
</g>
<!-- Node2&#45;&gt;Node36 -->
<g id="edge41" class="edge">
<title>Node2&#45;&gt;Node36</title>
<path fill="none" stroke="midnightblue" d="M834.22,-504.44C852.9,-495.68 882.16,-481.94 903.62,-471.86"/>
<polygon fill="midnightblue" stroke="midnightblue" points="905.3,-474.93 912.86,-467.52 902.32,-468.6 905.3,-474.93"/>
</g>
<!-- Node5 -->
<g id="node5" class="node">
<title>Node5</title>
<g id="a_node5"><a xlink:href="source__location_8h.html" target="_top" xlink:title=" ">
<polygon fill="none" stroke="black" points="254,-280.5 254,-299.5 356,-299.5 356,-280.5 254,-280.5"/>
<text text-anchor="middle" x="305" y="-287.5" font-family="Helvetica,sans-Serif" font-size="10.00">source_location.h</text>
</a>
</g>
</g>
<!-- Node4&#45;&gt;Node5 -->
<g id="edge4" class="edge">
<title>Node4&#45;&gt;Node5</title>
<path fill="none" stroke="midnightblue" d="M689.08,-448.42C622.28,-421.05 413.94,-335.65 335.39,-303.45"/>
<polygon fill="midnightblue" stroke="midnightblue" points="336.62,-300.18 326.04,-299.62 333.97,-306.65 336.62,-300.18"/>
</g>
<!-- Node31 -->
<g id="node23" class="node">
<title>Node31</title>
<g id="a_node23"><a xlink:href="validate_8h.html" target="_top" xlink:title=" ">
<polygon fill="none" stroke="black" points="746.5,-392.5 746.5,-411.5 811.5,-411.5 811.5,-392.5 746.5,-392.5"/>
<text text-anchor="middle" x="779" y="-399.5" font-family="Helvetica,sans-Serif" font-size="10.00">validate.h</text>
</a>
</g>
</g>
<!-- Node4&#45;&gt;Node31 -->
<g id="edge29" class="edge">
<title>Node4&#45;&gt;Node31</title>
<path fill="none" stroke="midnightblue" d="M721.09,-448.32C731.49,-440.18 747.26,-427.84 759.72,-418.09"/>
<polygon fill="midnightblue" stroke="midnightblue" points="761.99,-420.75 767.71,-411.83 757.68,-415.24 761.99,-420.75"/>
</g>
<!-- Node4&#45;&gt;Node33 -->
<g id="edge37" class="edge">
<title>Node4&#45;&gt;Node33</title>
<path fill="none" stroke="midnightblue" d="M733.56,-448.38C756.1,-439.9 790.88,-426.19 820,-412 852.76,-396.04 889.09,-374.65 911.74,-360.84"/>
<polygon fill="midnightblue" stroke="midnightblue" points="913.58,-363.82 920.27,-355.6 909.92,-357.85 913.58,-363.82"/>
</g>
<!-- Node4&#45;&gt;Node34 -->
<g id="edge36" class="edge">
<title>Node4&#45;&gt;Node34</title>
<path fill="none" stroke="midnightblue" d="M733.73,-450.17C736.51,-449.42 739.31,-448.68 742,-448 792.66,-435.21 850.97,-422.36 891.7,-413.69"/>
<polygon fill="midnightblue" stroke="midnightblue" points="892.6,-417.07 901.66,-411.57 891.15,-410.23 892.6,-417.07"/>
</g>
<!-- Node6 -->
<g id="node6" class="node">
<title>Node6</title>
<g id="a_node6"><a xlink:href="deprecate_8h.html" target="_top" xlink:title=" ">
<polygon fill="none" stroke="black" points="74,-168.5 74,-187.5 148,-187.5 148,-168.5 74,-168.5"/>
<text text-anchor="middle" x="111" y="-175.5" font-family="Helvetica,sans-Serif" font-size="10.00">deprecate.h</text>
</a>
</g>
</g>
<!-- Node5&#45;&gt;Node6 -->
<g id="edge5" class="edge">
<title>Node5&#45;&gt;Node6</title>
<path fill="none" stroke="midnightblue" d="M253.71,-280.64C224.87,-274.11 189.29,-262.88 162,-244 144.17,-231.67 129.62,-211.24 120.69,-196.58"/>
<polygon fill="midnightblue" stroke="midnightblue" points="123.48,-194.41 115.43,-187.52 117.42,-197.92 123.48,-194.41"/>
</g>
<!-- Node7 -->
<g id="node7" class="node">
<title>Node7</title>
<g id="a_node7"><a xlink:href="irep_8h.html" target="_top" xlink:title=" ">
<polygon fill="none" stroke="black" points="297,-224.5 297,-243.5 341,-243.5 341,-224.5 297,-224.5"/>
<text text-anchor="middle" x="319" y="-231.5" font-family="Helvetica,sans-Serif" font-size="10.00">irep.h</text>
</a>
</g>
</g>
<!-- Node5&#45;&gt;Node7 -->
<g id="edge6" class="edge">
<title>Node5&#45;&gt;Node7</title>
<path fill="none" stroke="midnightblue" d="M307.31,-280.08C309.17,-272.93 311.84,-262.64 314.15,-253.69"/>
<polygon fill="midnightblue" stroke="midnightblue" points="317.61,-254.31 316.73,-243.75 310.83,-252.55 317.61,-254.31"/>
</g>
<!-- Node8 -->
<g id="node8" class="node">
<title>Node8</title>
<g id="a_node8"><a xlink:title=" ">
<polygon fill="none" stroke="#bfbfbf" points="340,-0.5 340,-19.5 384,-19.5 384,-0.5 340,-0.5"/>
<text text-anchor="middle" x="362" y="-7.5" font-family="Helvetica,sans-Serif" font-size="10.00">string</text>
</a>
</g>
</g>
<!-- Node5&#45;&gt;Node8 -->
<g id="edge28" class="edge">
<title>Node5&#45;&gt;Node8</title>
<path fill="none" stroke="midnightblue" d="M279.51,-280.41C241.92,-265.93 176,-232.86 176,-179 176,-179 176,-179 176,-121 176,-50.31 276.78,-24.09 329.97,-15.17"/>
<polygon fill="midnightblue" stroke="midnightblue" points="330.6,-18.61 339.93,-13.61 329.51,-11.7 330.6,-18.61"/>
</g>
<!-- Node5&#45;&gt;Node29 -->
<g id="edge25" class="edge">
<title>Node5&#45;&gt;Node29</title>
<path fill="none" stroke="midnightblue" d="M268.87,-280.44C228.3,-270.83 162.53,-255.26 119.51,-245.07"/>
<polygon fill="midnightblue" stroke="midnightblue" points="120.17,-241.63 109.63,-242.73 118.56,-248.44 120.17,-241.63"/>
</g>
<!-- Node7&#45;&gt;Node8 -->
<g id="edge7" class="edge">
<title>Node7&#45;&gt;Node8</title>
<path fill="none" stroke="midnightblue" d="M324.84,-224.47C330.5,-215.73 338.83,-201.54 343,-188 360.08,-132.49 362.32,-63.1 362.31,-30.12"/>
<polygon fill="midnightblue" stroke="midnightblue" points="365.8,-29.68 362.22,-19.71 358.8,-29.73 365.8,-29.68"/>
</g>
<!-- Node9 -->
<g id="node9" class="node">
<title>Node9</title>
<g id="a_node9"><a xlink:title=" ">
<polygon fill="none" stroke="#bfbfbf" points="204.5,-168.5 204.5,-187.5 251.5,-187.5 251.5,-168.5 204.5,-168.5"/>
<text text-anchor="middle" x="228" y="-175.5" font-family="Helvetica,sans-Serif" font-size="10.00">vector</text>
</a>
</g>
</g>
<!-- Node7&#45;&gt;Node9 -->
<g id="edge8" class="edge">
<title>Node7&#45;&gt;Node9</title>
<path fill="none" stroke="midnightblue" d="M304.38,-224.32C290.05,-215.82 267.99,-202.73 251.25,-192.8"/>
<polygon fill="midnightblue" stroke="midnightblue" points="252.97,-189.75 242.58,-187.65 249.4,-195.77 252.97,-189.75"/>
</g>
<!-- Node10 -->
<g id="node10" class="node">
<title>Node10</title>
<g id="a_node10"><a xlink:href="src_2util_2invariant_8h.html" target="_top" xlink:title=" ">
<polygon fill="none" stroke="black" points="595.5,-56.5 595.5,-75.5 664.5,-75.5 664.5,-56.5 595.5,-56.5"/>
<text text-anchor="middle" x="630" y="-63.5" font-family="Helvetica,sans-Serif" font-size="10.00">invariant.h</text>
</a>
</g>
</g>
<!-- Node7&#45;&gt;Node10 -->
<g id="edge9" class="edge">
<title>Node7&#45;&gt;Node10</title>
<path fill="none" stroke="midnightblue" d="M330.59,-224.32C342.27,-215.45 360.71,-201.16 376,-188 413.41,-155.79 413.77,-135.84 457,-112 497.19,-89.83 548.69,-78.26 585.01,-72.44"/>
<polygon fill="midnightblue" stroke="midnightblue" points="585.93,-75.84 595.3,-70.88 584.89,-68.92 585.93,-75.84"/>
</g>
<!-- Node14 -->
<g id="node14" class="node">
<title>Node14</title>
<g id="a_node14"><a xlink:href="irep__ids_8h.html" target="_top" xlink:title="util">
<polygon fill="none" stroke="black" points="270,-168.5 270,-187.5 334,-187.5 334,-168.5 270,-168.5"/>
<text text-anchor="middle" x="302" y="-175.5" font-family="Helvetica,sans-Serif" font-size="10.00">irep_ids.h</text>
</a>
</g>
</g>
<!-- Node7&#45;&gt;Node14 -->
<g id="edge14" class="edge">
<title>Node7&#45;&gt;Node14</title>
<path fill="none" stroke="midnightblue" d="M316.19,-224.08C313.92,-216.85 310.63,-206.41 307.79,-197.4"/>
<polygon fill="midnightblue" stroke="midnightblue" points="311.1,-196.24 304.75,-187.75 304.42,-198.34 311.1,-196.24"/>
</g>
<!-- Node25 -->
<g id="node17" class="node">
<title>Node25</title>
<g id="a_node17"><a xlink:href="forward__list__as__map_8h.html" target="_top" xlink:title=" ">
<polygon fill="none" stroke="black" points="502.5,-168.5 502.5,-187.5 629.5,-187.5 629.5,-168.5 502.5,-168.5"/>
<text text-anchor="middle" x="566" y="-175.5" font-family="Helvetica,sans-Serif" font-size="10.00">forward_list_as_map.h</text>
</a>
</g>
</g>
<!-- Node7&#45;&gt;Node25 -->
<g id="edge18" class="edge">
<title>Node7&#45;&gt;Node25</title>
<path fill="none" stroke="midnightblue" d="M341.36,-228.11C380.85,-219.48 463.82,-201.34 517.12,-189.69"/>
<polygon fill="midnightblue" stroke="midnightblue" points="518.01,-193.07 527.03,-187.52 516.52,-186.24 518.01,-193.07"/>
</g>
<!-- Node10&#45;&gt;Node8 -->
<g id="edge12" class="edge">
<title>Node10&#45;&gt;Node8</title>
<path fill="none" stroke="midnightblue" d="M595.24,-58C543.01,-47.47 445.02,-27.73 394.28,-17.51"/>
<polygon fill="midnightblue" stroke="midnightblue" points="394.7,-14.02 384.21,-15.47 393.32,-20.88 394.7,-14.02"/>
</g>
<!-- Node11 -->
<g id="node11" class="node">
<title>Node11</title>
<g id="a_node11"><a xlink:title=" ">
<polygon fill="none" stroke="#bfbfbf" points="534.5,-0.5 534.5,-19.5 583.5,-19.5 583.5,-0.5 534.5,-0.5"/>
<text text-anchor="middle" x="559" y="-7.5" font-family="Helvetica,sans-Serif" font-size="10.00">cstdlib</text>
</a>
</g>
</g>
<!-- Node10&#45;&gt;Node11 -->
<g id="edge10" class="edge">
<title>Node10&#45;&gt;Node11</title>
<path fill="none" stroke="midnightblue" d="M618.59,-56.32C607.89,-48.18 591.66,-35.84 578.84,-26.09"/>
<polygon fill="midnightblue" stroke="midnightblue" points="580.69,-23.1 570.61,-19.83 576.46,-28.67 580.69,-23.1"/>
</g>
<!-- Node12 -->
<g id="node12" class="node">
<title>Node12</title>
<g id="a_node12"><a xlink:title=" ">
<polygon fill="none" stroke="#bfbfbf" points="602,-0.5 602,-19.5 658,-19.5 658,-0.5 602,-0.5"/>
<text text-anchor="middle" x="630" y="-7.5" font-family="Helvetica,sans-Serif" font-size="10.00">sstream</text>
</a>
</g>
</g>
<!-- Node10&#45;&gt;Node12 -->
<g id="edge11" class="edge">
<title>Node10&#45;&gt;Node12</title>
<path fill="none" stroke="midnightblue" d="M630,-56.08C630,-49.01 630,-38.86 630,-29.99"/>
<polygon fill="midnightblue" stroke="midnightblue" points="633.5,-29.75 630,-19.75 626.5,-29.75 633.5,-29.75"/>
</g>
<!-- Node13 -->
<g id="node13" class="node">
<title>Node13</title>
<g id="a_node13"><a xlink:title=" ">
<polygon fill="none" stroke="#bfbfbf" points="676.5,-0.5 676.5,-19.5 745.5,-19.5 745.5,-0.5 676.5,-0.5"/>
<text text-anchor="middle" x="711" y="-7.5" font-family="Helvetica,sans-Serif" font-size="10.00">type_traits</text>
</a>
</g>
</g>
<!-- Node10&#45;&gt;Node13 -->
<g id="edge13" class="edge">
<title>Node10&#45;&gt;Node13</title>
<path fill="none" stroke="midnightblue" d="M643.01,-56.32C655.53,-47.98 674.68,-35.21 689.47,-25.35"/>
<polygon fill="midnightblue" stroke="midnightblue" points="691.64,-28.11 698.02,-19.65 687.76,-22.29 691.64,-28.11"/>
</g>
<!-- Node15 -->
<g id="node15" class="node">
<title>Node15</title>
<g id="a_node15"><a xlink:href="dstring_8h.html" target="_top" xlink:title="Container for C&#45;Strings.">
<polygon fill="none" stroke="red" points="239.5,-56.5 239.5,-75.5 298.5,-75.5 298.5,-56.5 239.5,-56.5"/>
<text text-anchor="middle" x="269" y="-63.5" font-family="Helvetica,sans-Serif" font-size="10.00">dstring.h</text>
</a>
</g>
</g>
<!-- Node14&#45;&gt;Node15 -->
<g id="edge15" class="edge">
<title>Node14&#45;&gt;Node15</title>
<path fill="none" stroke="midnightblue" d="M286.27,-168.24C274.11,-160.48 258.19,-147.93 251,-132 244.02,-116.54 250.7,-97.77 257.82,-84.38"/>
<polygon fill="midnightblue" stroke="midnightblue" points="260.87,-86.1 262.89,-75.71 254.82,-82.57 260.87,-86.1"/>
</g>
<!-- Node24 -->
<g id="node16" class="node">
<title>Node24</title>
<g id="a_node16"><a xlink:title=" ">
<polygon fill="none" stroke="#bfbfbf" points="260,-112.5 260,-131.5 334,-131.5 334,-112.5 260,-112.5"/>
<text text-anchor="middle" x="297" y="-119.5" font-family="Helvetica,sans-Serif" font-size="10.00">irep_ids.def</text>
</a>
</g>
</g>
<!-- Node14&#45;&gt;Node24 -->
<g id="edge17" class="edge">
<title>Node14&#45;&gt;Node24</title>
<path fill="none" stroke="midnightblue" d="M301.17,-168.08C300.52,-161.01 299.58,-150.86 298.76,-141.99"/>
<polygon fill="midnightblue" stroke="midnightblue" points="302.22,-141.39 297.81,-131.75 295.25,-142.03 302.22,-141.39"/>
</g>
<!-- Node15&#45;&gt;Node8 -->
<g id="edge16" class="edge">
<title>Node15&#45;&gt;Node8</title>
<path fill="none" stroke="midnightblue" d="M283.94,-56.32C298.59,-47.82 321.13,-34.73 338.24,-24.8"/>
<polygon fill="midnightblue" stroke="midnightblue" points="340.2,-27.7 347.1,-19.65 336.69,-21.65 340.2,-27.7"/>
</g>
<!-- Node25&#45;&gt;Node3 -->
<g id="edge21" class="edge">
<title>Node25&#45;&gt;Node3</title>
<path fill="none" stroke="midnightblue" d="M595.47,-168.44C627.17,-159.24 677.73,-144.56 712.77,-134.39"/>
<polygon fill="midnightblue" stroke="midnightblue" points="714.04,-137.67 722.67,-131.52 712.09,-130.94 714.04,-137.67"/>
</g>
<!-- Node26 -->
<g id="node18" class="node">
<title>Node26</title>
<g id="a_node18"><a xlink:title=" ">
<polygon fill="none" stroke="#bfbfbf" points="466,-112.5 466,-131.5 530,-131.5 530,-112.5 466,-112.5"/>
<text text-anchor="middle" x="498" y="-119.5" font-family="Helvetica,sans-Serif" font-size="10.00">algorithm</text>
</a>
</g>
</g>
<!-- Node25&#45;&gt;Node26 -->
<g id="edge19" class="edge">
<title>Node25&#45;&gt;Node26</title>
<path fill="none" stroke="midnightblue" d="M555.07,-168.32C544.83,-160.18 529.28,-147.84 517,-138.09"/>
<polygon fill="midnightblue" stroke="midnightblue" points="519.13,-135.31 509.12,-131.83 514.78,-140.79 519.13,-135.31"/>
</g>
<!-- Node27 -->
<g id="node19" class="node">
<title>Node27</title>
<g id="a_node19"><a xlink:title=" ">
<polygon fill="none" stroke="#bfbfbf" points="548,-112.5 548,-131.5 622,-131.5 622,-112.5 548,-112.5"/>
<text text-anchor="middle" x="585" y="-119.5" font-family="Helvetica,sans-Serif" font-size="10.00">forward_list</text>
</a>
</g>
</g>
<!-- Node25&#45;&gt;Node27 -->
<g id="edge20" class="edge">
<title>Node25&#45;&gt;Node27</title>
<path fill="none" stroke="midnightblue" d="M569.14,-168.08C571.68,-160.85 575.36,-150.41 578.53,-141.4"/>
<polygon fill="midnightblue" stroke="midnightblue" points="581.9,-142.35 581.92,-131.75 575.3,-140.02 581.9,-142.35"/>
</g>
<!-- Node28 -->
<g id="node20" class="node">
<title>Node28</title>
<g id="a_node20"><a xlink:href="narrow_8h.html" target="_top" xlink:title=" ">
<polygon fill="none" stroke="black" points="640.5,-112.5 640.5,-131.5 699.5,-131.5 699.5,-112.5 640.5,-112.5"/>
<text text-anchor="middle" x="670" y="-119.5" font-family="Helvetica,sans-Serif" font-size="10.00">narrow.h</text>
</a>
</g>
</g>
<!-- Node25&#45;&gt;Node28 -->
<g id="edge22" class="edge">
<title>Node25&#45;&gt;Node28</title>
<path fill="none" stroke="midnightblue" d="M582.71,-168.32C599.31,-159.7 625,-146.36 644.22,-136.39"/>
<polygon fill="midnightblue" stroke="midnightblue" points="646.07,-139.37 653.33,-131.65 642.84,-133.16 646.07,-139.37"/>
</g>
<!-- Node28&#45;&gt;Node10 -->
<g id="edge24" class="edge">
<title>Node28&#45;&gt;Node10</title>
<path fill="none" stroke="midnightblue" d="M663.39,-112.08C657.74,-104.46 649.46,-93.26 642.55,-83.94"/>
<polygon fill="midnightblue" stroke="midnightblue" points="645.25,-81.7 636.48,-75.75 639.62,-85.87 645.25,-81.7"/>
</g>
<!-- Node28&#45;&gt;Node13 -->
<g id="edge23" class="edge">
<title>Node28&#45;&gt;Node13</title>
<path fill="none" stroke="midnightblue" d="M673.22,-112.37C679.86,-94.54 695.24,-53.3 704.19,-29.27"/>
<polygon fill="midnightblue" stroke="midnightblue" points="707.58,-30.18 707.8,-19.59 701.03,-27.74 707.58,-30.18"/>
</g>
<!-- Node29&#45;&gt;Node6 -->
<g id="edge26" class="edge">
<title>Node29&#45;&gt;Node6</title>
<path fill="none" stroke="midnightblue" d="M82.61,-224.08C87.37,-216.53 94.32,-205.49 100.15,-196.23"/>
<polygon fill="midnightblue" stroke="midnightblue" points="103.12,-198.08 105.49,-187.75 97.2,-194.35 103.12,-198.08"/>
</g>
<!-- Node30 -->
<g id="node22" class="node">
<title>Node30</title>
<g id="a_node22"><a xlink:title=" ">
<polygon fill="none" stroke="#bfbfbf" points="0,-168.5 0,-187.5 56,-187.5 56,-168.5 0,-168.5"/>
<text text-anchor="middle" x="28" y="-175.5" font-family="Helvetica,sans-Serif" font-size="10.00">optional</text>
</a>
</g>
</g>
<!-- Node29&#45;&gt;Node30 -->
<g id="edge27" class="edge">
<title>Node29&#45;&gt;Node30</title>
<path fill="none" stroke="midnightblue" d="M68.91,-224.08C61.84,-216.3 51.41,-204.8 42.85,-195.37"/>
<polygon fill="midnightblue" stroke="midnightblue" points="45.25,-192.8 35.94,-187.75 40.07,-197.51 45.25,-192.8"/>
</g>
<!-- Node31&#45;&gt;Node13 -->
<g id="edge30" class="edge">
<title>Node31&#45;&gt;Node13</title>
<path fill="none" stroke="midnightblue" d="M793.46,-392.44C805.7,-384.47 822.83,-371.51 833,-356 849.5,-330.83 852,-321.1 852,-291 852,-291 852,-291 852,-121 852,-69.26 792.26,-38.27 750.55,-22.94"/>
<polygon fill="midnightblue" stroke="midnightblue" points="751.5,-19.56 740.9,-19.55 749.18,-26.17 751.5,-19.56"/>
</g>
<!-- Node32 -->
<g id="node24" class="node">
<title>Node32</title>
<g id="a_node24"><a xlink:href="exception__utils_8h.html" target="_top" xlink:title=" ">
<polygon fill="none" stroke="black" points="724,-336.5 724,-355.5 824,-355.5 824,-336.5 724,-336.5"/>
<text text-anchor="middle" x="774" y="-343.5" font-family="Helvetica,sans-Serif" font-size="10.00">exception_utils.h</text>
</a>
</g>
</g>
<!-- Node31&#45;&gt;Node32 -->
<g id="edge31" class="edge">
<title>Node31&#45;&gt;Node32</title>
<path fill="none" stroke="midnightblue" d="M778.17,-392.08C777.52,-385.01 776.58,-374.86 775.76,-365.99"/>
<polygon fill="midnightblue" stroke="midnightblue" points="779.22,-365.39 774.81,-355.75 772.25,-366.03 779.22,-365.39"/>
</g>
<!-- Node31&#45;&gt;Node33 -->
<g id="edge35" class="edge">
<title>Node31&#45;&gt;Node33</title>
<path fill="none" stroke="midnightblue" d="M803.56,-392.44C829.52,-383.4 870.67,-369.06 899.8,-358.92"/>
<polygon fill="midnightblue" stroke="midnightblue" points="901.26,-362.11 909.55,-355.52 898.96,-355.5 901.26,-362.11"/>
</g>
<!-- Node32&#45;&gt;Node5 -->
<g id="edge34" class="edge">
<title>Node32&#45;&gt;Node5</title>
<path fill="none" stroke="midnightblue" d="M723.71,-337.79C719.08,-337.17 714.45,-336.56 710,-336 709.47,-335.93 479.61,-310.4 366.46,-297.83"/>
<polygon fill="midnightblue" stroke="midnightblue" points="366.54,-294.31 356.21,-296.69 365.76,-301.27 366.54,-294.31"/>
</g>
<!-- Node32&#45;&gt;Node8 -->
<g id="edge32" class="edge">
<title>Node32&#45;&gt;Node8</title>
<path fill="none" stroke="midnightblue" d="M723.95,-340.83C622.04,-330.94 400,-301.75 400,-235 400,-235 400,-235 400,-121 400,-86.81 383.4,-49.76 372.14,-28.57"/>
<polygon fill="midnightblue" stroke="midnightblue" points="375.18,-26.83 367.28,-19.77 369.05,-30.22 375.18,-26.83"/>
</g>
<!-- Node32&#45;&gt;Node10 -->
<g id="edge33" class="edge">
<title>Node32&#45;&gt;Node10</title>
<path fill="none" stroke="midnightblue" d="M779.56,-336.27C790.55,-318.15 814,-274.83 814,-235 814,-235 814,-235 814,-177 814,-146.9 816.47,-133.09 795,-112 763.15,-80.72 711.79,-70.66 674.83,-67.68"/>
<polygon fill="midnightblue" stroke="midnightblue" points="675.02,-64.19 664.81,-67.02 674.56,-71.17 675.02,-64.19"/>
</g>
</g>
</svg>
