<?xml version="1.0" encoding="UTF-8" standalone="no"?>
<!DOCTYPE svg PUBLIC "-//W3C//DTD SVG 1.1//EN"
 "http://www.w3.org/Graphics/SVG/1.1/DTD/svg11.dtd">
<!-- Generated by graphviz version 2.43.0 (0)
 -->
<!-- Title: /home/runner/work/cbmc/cbmc/src/util/arith_tools.cpp Pages: 1 -->
<svg width="1094pt" height="655pt"
 viewBox="0.00 0.00 1094.00 655.00" xmlns="http://www.w3.org/2000/svg" xmlns:xlink="http://www.w3.org/1999/xlink">
<g id="graph0" class="graph" transform="scale(1 1) rotate(0) translate(4 651)">
<title>/home/runner/work/cbmc/cbmc/src/util/arith_tools.cpp</title>
<!-- Node1 -->
<g id="node1" class="node">
<title>Node1</title>
<g id="a_node1"><a xlink:title=" ">
<polygon fill="#bfbfbf" stroke="black" points="718.5,-616.5 718.5,-646.5 875.5,-646.5 875.5,-616.5 718.5,-616.5"/>
<text text-anchor="start" x="726.5" y="-634.5" font-family="Helvetica,sans-Serif" font-size="10.00">/home/runner/work/cbmc</text>
<text text-anchor="middle" x="797" y="-623.5" font-family="Helvetica,sans-Serif" font-size="10.00">/cbmc/src/util/arith_tools.cpp</text>
</a>
</g>
</g>
<!-- Node2 -->
<g id="node2" class="node">
<title>Node2</title>
<g id="a_node2"><a xlink:href="arith__tools_8h.html" target="_top" xlink:title=" ">
<polygon fill="none" stroke="black" points="471.5,-504.5 471.5,-523.5 548.5,-523.5 548.5,-504.5 471.5,-504.5"/>
<text text-anchor="middle" x="510" y="-511.5" font-family="Helvetica,sans-Serif" font-size="10.00">arith_tools.h</text>
</a>
</g>
</g>
<!-- Node1&#45;&gt;Node2 -->
<g id="edge1" class="edge">
<title>Node1&#45;&gt;Node2</title>
<path fill="none" stroke="midnightblue" d="M718.08,-618.04C680.24,-610.22 634.99,-598.09 597,-580 570.04,-567.16 543.14,-545.33 526.54,-530.54"/>
<polygon fill="midnightblue" stroke="midnightblue" points="528.6,-527.69 518.86,-523.54 523.89,-532.86 528.6,-527.69"/>
</g>
<!-- Node3 -->
<g id="node3" class="node">
<title>Node3</title>
<g id="a_node3"><a xlink:href="src_2util_2invariant_8h.html" target="_top" xlink:title=" ">
<polygon fill="none" stroke="black" points="110.5,-56.5 110.5,-75.5 179.5,-75.5 179.5,-56.5 110.5,-56.5"/>
<text text-anchor="middle" x="145" y="-63.5" font-family="Helvetica,sans-Serif" font-size="10.00">invariant.h</text>
</a>
</g>
</g>
<!-- Node1&#45;&gt;Node3 -->
<g id="edge64" class="edge">
<title>Node1&#45;&gt;Node3</title>
<path fill="none" stroke="midnightblue" d="M718.4,-627.28C517.33,-617.99 0,-587.09 0,-515 0,-515 0,-515 0,-177 0,-124.53 61.02,-93.84 103.89,-78.76"/>
<polygon fill="midnightblue" stroke="midnightblue" points="105.17,-82.02 113.54,-75.52 102.94,-75.39 105.17,-82.02"/>
</g>
<!-- Node14 -->
<g id="node14" class="node">
<title>Node14</title>
<g id="a_node14"><a xlink:href="std__expr_8h.html" target="_top" xlink:title="API to expression classes.">
<polygon fill="none" stroke="black" points="459.5,-448.5 459.5,-467.5 526.5,-467.5 526.5,-448.5 459.5,-448.5"/>
<text text-anchor="middle" x="493" y="-455.5" font-family="Helvetica,sans-Serif" font-size="10.00">std_expr.h</text>
</a>
</g>
</g>
<!-- Node1&#45;&gt;Node14 -->
<g id="edge65" class="edge">
<title>Node1&#45;&gt;Node14</title>
<path fill="none" stroke="midnightblue" d="M772.12,-616.47C714.75,-584.1 573.75,-504.56 517.12,-472.61"/>
<polygon fill="midnightblue" stroke="midnightblue" points="518.6,-469.42 508.17,-467.56 515.16,-475.52 518.6,-469.42"/>
</g>
<!-- Node45 -->
<g id="node30" class="node">
<title>Node45</title>
<g id="a_node30"><a xlink:href="c__types_8h.html" target="_top" xlink:title=" ">
<polygon fill="none" stroke="black" points="735.5,-560.5 735.5,-579.5 798.5,-579.5 798.5,-560.5 735.5,-560.5"/>
<text text-anchor="middle" x="767" y="-567.5" font-family="Helvetica,sans-Serif" font-size="10.00">c_types.h</text>
</a>
</g>
</g>
<!-- Node1&#45;&gt;Node45 -->
<g id="edge48" class="edge">
<title>Node1&#45;&gt;Node45</title>
<path fill="none" stroke="midnightblue" d="M789.89,-616.4C785.71,-608.11 780.39,-597.55 775.93,-588.71"/>
<polygon fill="midnightblue" stroke="midnightblue" points="778.99,-587.01 771.37,-579.66 772.74,-590.16 778.99,-587.01"/>
</g>
<!-- Node48 -->
<g id="node33" class="node">
<title>Node48</title>
<g id="a_node33"><a xlink:href="expr__util_8h.html" target="_top" xlink:title="Deprecated expression utility functions.">
<polygon fill="none" stroke="black" points="698,-280.5 698,-299.5 766,-299.5 766,-280.5 698,-280.5"/>
<text text-anchor="middle" x="732" y="-287.5" font-family="Helvetica,sans-Serif" font-size="10.00">expr_util.h</text>
</a>
</g>
</g>
<!-- Node1&#45;&gt;Node48 -->
<g id="edge54" class="edge">
<title>Node1&#45;&gt;Node48</title>
<path fill="none" stroke="midnightblue" d="M803.22,-616.22C812,-594.71 827,-552.5 827,-515 827,-515 827,-515 827,-457 827,-394.74 776.04,-334.64 748.77,-306.93"/>
<polygon fill="midnightblue" stroke="midnightblue" points="751.03,-304.24 741.46,-299.7 746.11,-309.22 751.03,-304.24"/>
</g>
<!-- Node49 -->
<g id="node34" class="node">
<title>Node49</title>
<g id="a_node34"><a xlink:href="fixedbv_8h.html" target="_top" xlink:title=" ">
<polygon fill="none" stroke="black" points="876,-392.5 876,-411.5 936,-411.5 936,-392.5 876,-392.5"/>
<text text-anchor="middle" x="906" y="-399.5" font-family="Helvetica,sans-Serif" font-size="10.00">fixedbv.h</text>
</a>
</g>
</g>
<!-- Node1&#45;&gt;Node49 -->
<g id="edge57" class="edge">
<title>Node1&#45;&gt;Node49</title>
<path fill="none" stroke="midnightblue" d="M812.06,-616.17C821.4,-606.63 833.09,-593.42 841,-580 872.71,-526.23 867.3,-506.53 889,-448 892.27,-439.18 895.95,-429.41 899.05,-421.23"/>
<polygon fill="midnightblue" stroke="midnightblue" points="902.43,-422.21 902.71,-411.61 895.88,-419.72 902.43,-422.21"/>
</g>
<!-- Node51 -->
<g id="node36" class="node">
<title>Node51</title>
<g id="a_node36"><a xlink:href="ieee__float_8h.html" target="_top" xlink:title=" ">
<polygon fill="none" stroke="black" points="959,-392.5 959,-411.5 1033,-411.5 1033,-392.5 959,-392.5"/>
<text text-anchor="middle" x="996" y="-399.5" font-family="Helvetica,sans-Serif" font-size="10.00">ieee_float.h</text>
</a>
</g>
</g>
<!-- Node1&#45;&gt;Node51 -->
<g id="edge60" class="edge">
<title>Node1&#45;&gt;Node51</title>
<path fill="none" stroke="midnightblue" d="M817.04,-616.38C829.96,-606.82 846.76,-593.52 860,-580 912.33,-526.59 963.04,-453.14 984.84,-420.2"/>
<polygon fill="midnightblue" stroke="midnightblue" points="987.86,-421.97 990.42,-411.69 982.01,-418.13 987.86,-421.97"/>
</g>
<!-- Node35 -->
<g id="node37" class="node">
<title>Node35</title>
<g id="a_node37"><a xlink:title=" ">
<polygon fill="none" stroke="#bfbfbf" points="931,-560.5 931,-579.5 995,-579.5 995,-560.5 931,-560.5"/>
<text text-anchor="middle" x="963" y="-567.5" font-family="Helvetica,sans-Serif" font-size="10.00">algorithm</text>
</a>
</g>
</g>
<!-- Node1&#45;&gt;Node35 -->
<g id="edge66" class="edge">
<title>Node1&#45;&gt;Node35</title>
<path fill="none" stroke="midnightblue" d="M836.34,-616.4C864.56,-606.28 902.21,-592.79 929.1,-583.15"/>
<polygon fill="midnightblue" stroke="midnightblue" points="930.61,-586.33 938.85,-579.66 928.25,-579.74 930.61,-586.33"/>
</g>
<!-- Node2&#45;&gt;Node3 -->
<g id="edge2" class="edge">
<title>Node2&#45;&gt;Node3</title>
<path fill="none" stroke="midnightblue" d="M471.25,-506.98C363.64,-489.17 69,-432.59 69,-347 69,-347 69,-347 69,-177 69,-137.28 102.96,-101.5 125.48,-82.15"/>
<polygon fill="midnightblue" stroke="midnightblue" points="127.98,-84.63 133.46,-75.57 123.52,-79.24 127.98,-84.63"/>
</g>
<!-- Node8 -->
<g id="node8" class="node">
<title>Node8</title>
<g id="a_node8"><a xlink:href="mp__arith_8h.html" target="_top" xlink:title=" ">
<polygon fill="none" stroke="black" points="871.5,-336.5 871.5,-355.5 940.5,-355.5 940.5,-336.5 871.5,-336.5"/>
<text text-anchor="middle" x="906" y="-343.5" font-family="Helvetica,sans-Serif" font-size="10.00">mp_arith.h</text>
</a>
</g>
</g>
<!-- Node2&#45;&gt;Node8 -->
<g id="edge7" class="edge">
<title>Node2&#45;&gt;Node8</title>
<path fill="none" stroke="midnightblue" d="M525.76,-504.47C549.98,-491.52 597.94,-466.44 640,-448 721.64,-412.2 820.37,-376.68 871.52,-358.84"/>
<polygon fill="midnightblue" stroke="midnightblue" points="872.8,-362.1 881.09,-355.51 870.5,-355.49 872.8,-362.1"/>
</g>
<!-- Node11 -->
<g id="node11" class="node">
<title>Node11</title>
<g id="a_node11"><a xlink:href="optional_8h.html" target="_top" xlink:title=" ">
<polygon fill="none" stroke="black" points="791.5,-112.5 791.5,-131.5 856.5,-131.5 856.5,-112.5 791.5,-112.5"/>
<text text-anchor="middle" x="824" y="-119.5" font-family="Helvetica,sans-Serif" font-size="10.00">optional.h</text>
</a>
</g>
</g>
<!-- Node2&#45;&gt;Node11 -->
<g id="edge11" class="edge">
<title>Node2&#45;&gt;Node11</title>
<path fill="none" stroke="midnightblue" d="M521.3,-504.24C570.76,-465.88 766.11,-313.89 775,-300 807.6,-249.07 790.52,-225.89 808,-168 810.7,-159.06 814.12,-149.27 817.11,-141.12"/>
<polygon fill="midnightblue" stroke="midnightblue" points="820.46,-142.14 820.68,-131.54 813.91,-139.69 820.46,-142.14"/>
</g>
<!-- Node2&#45;&gt;Node14 -->
<g id="edge14" class="edge">
<title>Node2&#45;&gt;Node14</title>
<path fill="none" stroke="midnightblue" d="M507.19,-504.08C504.92,-496.85 501.63,-486.41 498.79,-477.4"/>
<polygon fill="midnightblue" stroke="midnightblue" points="502.1,-476.24 495.75,-467.75 495.42,-478.34 502.1,-476.24"/>
</g>
<!-- Node44 -->
<g id="node29" class="node">
<title>Node44</title>
<g id="a_node29"><a xlink:title=" ">
<polygon fill="none" stroke="#bfbfbf" points="28,-448.5 28,-467.5 72,-467.5 72,-448.5 28,-448.5"/>
<text text-anchor="middle" x="50" y="-455.5" font-family="Helvetica,sans-Serif" font-size="10.00">limits</text>
</a>
</g>
</g>
<!-- Node2&#45;&gt;Node44 -->
<g id="edge47" class="edge">
<title>Node2&#45;&gt;Node44</title>
<path fill="none" stroke="midnightblue" d="M471.45,-510.71C396.67,-505.88 226.86,-492.96 86,-468 84.75,-467.78 83.48,-467.54 82.2,-467.28"/>
<polygon fill="midnightblue" stroke="midnightblue" points="82.89,-463.85 72.36,-465.1 81.37,-470.68 82.89,-463.85"/>
</g>
<!-- Node4 -->
<g id="node4" class="node">
<title>Node4</title>
<g id="a_node4"><a xlink:title=" ">
<polygon fill="none" stroke="#bfbfbf" points="120.5,-0.5 120.5,-19.5 169.5,-19.5 169.5,-0.5 120.5,-0.5"/>
<text text-anchor="middle" x="145" y="-7.5" font-family="Helvetica,sans-Serif" font-size="10.00">cstdlib</text>
</a>
</g>
</g>
<!-- Node3&#45;&gt;Node4 -->
<g id="edge3" class="edge">
<title>Node3&#45;&gt;Node4</title>
<path fill="none" stroke="midnightblue" d="M145,-56.08C145,-49.01 145,-38.86 145,-29.99"/>
<polygon fill="midnightblue" stroke="midnightblue" points="148.5,-29.75 145,-19.75 141.5,-29.75 148.5,-29.75"/>
</g>
<!-- Node5 -->
<g id="node5" class="node">
<title>Node5</title>
<g id="a_node5"><a xlink:title=" ">
<polygon fill="none" stroke="#bfbfbf" points="46,-0.5 46,-19.5 102,-19.5 102,-0.5 46,-0.5"/>
<text text-anchor="middle" x="74" y="-7.5" font-family="Helvetica,sans-Serif" font-size="10.00">sstream</text>
</a>
</g>
</g>
<!-- Node3&#45;&gt;Node5 -->
<g id="edge4" class="edge">
<title>Node3&#45;&gt;Node5</title>
<path fill="none" stroke="midnightblue" d="M133.59,-56.32C122.89,-48.18 106.66,-35.84 93.84,-26.09"/>
<polygon fill="midnightblue" stroke="midnightblue" points="95.69,-23.1 85.61,-19.83 91.46,-28.67 95.69,-23.1"/>
</g>
<!-- Node6 -->
<g id="node6" class="node">
<title>Node6</title>
<g id="a_node6"><a xlink:title=" ">
<polygon fill="none" stroke="#bfbfbf" points="835,-0.5 835,-19.5 879,-19.5 879,-0.5 835,-0.5"/>
<text text-anchor="middle" x="857" y="-7.5" font-family="Helvetica,sans-Serif" font-size="10.00">string</text>
</a>
</g>
</g>
<!-- Node3&#45;&gt;Node6 -->
<g id="edge5" class="edge">
<title>Node3&#45;&gt;Node6</title>
<path fill="none" stroke="midnightblue" d="M179.82,-62.36C301.52,-53.13 706.82,-22.39 824.63,-13.46"/>
<polygon fill="midnightblue" stroke="midnightblue" points="825.09,-16.93 834.8,-12.68 824.57,-9.95 825.09,-16.93"/>
</g>
<!-- Node7 -->
<g id="node7" class="node">
<title>Node7</title>
<g id="a_node7"><a xlink:title=" ">
<polygon fill="none" stroke="#bfbfbf" points="187.5,-0.5 187.5,-19.5 256.5,-19.5 256.5,-0.5 187.5,-0.5"/>
<text text-anchor="middle" x="222" y="-7.5" font-family="Helvetica,sans-Serif" font-size="10.00">type_traits</text>
</a>
</g>
</g>
<!-- Node3&#45;&gt;Node7 -->
<g id="edge6" class="edge">
<title>Node3&#45;&gt;Node7</title>
<path fill="none" stroke="midnightblue" d="M157.37,-56.32C169.16,-48.06 187.13,-35.45 201.14,-25.63"/>
<polygon fill="midnightblue" stroke="midnightblue" points="203.48,-28.26 209.66,-19.65 199.46,-22.53 203.48,-28.26"/>
</g>
<!-- Node8&#45;&gt;Node6 -->
<g id="edge9" class="edge">
<title>Node8&#45;&gt;Node6</title>
<path fill="none" stroke="midnightblue" d="M925.09,-336.45C940.2,-328.82 960.88,-316.33 974,-300 993.38,-275.87 999,-265.95 999,-235 999,-235 999,-235 999,-121 999,-65.69 930.83,-34.22 888.96,-20.1"/>
<polygon fill="midnightblue" stroke="midnightblue" points="889.78,-16.69 879.19,-16.96 887.64,-23.35 889.78,-16.69"/>
</g>
<!-- Node9 -->
<g id="node9" class="node">
<title>Node9</title>
<g id="a_node9"><a xlink:title=" ">
<polygon fill="none" stroke="#bfbfbf" points="1038,-280.5 1038,-299.5 1086,-299.5 1086,-280.5 1038,-280.5"/>
<text text-anchor="middle" x="1062" y="-287.5" font-family="Helvetica,sans-Serif" font-size="10.00">iosfwd</text>
</a>
</g>
</g>
<!-- Node8&#45;&gt;Node9 -->
<g id="edge8" class="edge">
<title>Node8&#45;&gt;Node9</title>
<path fill="none" stroke="midnightblue" d="M930.72,-336.44C957,-327.35 998.75,-312.9 1028.09,-302.74"/>
<polygon fill="midnightblue" stroke="midnightblue" points="1029.6,-305.92 1037.91,-299.34 1027.31,-299.3 1029.6,-305.92"/>
</g>
<!-- Node10 -->
<g id="node10" class="node">
<title>Node10</title>
<g id="a_node10"><a xlink:title=" ">
<polygon fill="none" stroke="#bfbfbf" points="871,-280.5 871,-299.5 965,-299.5 965,-280.5 871,-280.5"/>
<text text-anchor="middle" x="918" y="-287.5" font-family="Helvetica,sans-Serif" font-size="10.00">big&#45;int/bigint.hh</text>
</a>
</g>
</g>
<!-- Node8&#45;&gt;Node10 -->
<g id="edge10" class="edge">
<title>Node8&#45;&gt;Node10</title>
<path fill="none" stroke="midnightblue" d="M907.98,-336.08C909.57,-328.93 911.86,-318.64 913.85,-309.69"/>
<polygon fill="midnightblue" stroke="midnightblue" points="917.3,-310.27 916.06,-299.75 910.47,-308.75 917.3,-310.27"/>
</g>
<!-- Node12 -->
<g id="node12" class="node">
<title>Node12</title>
<g id="a_node12"><a xlink:href="deprecate_8h.html" target="_top" xlink:title=" ">
<polygon fill="none" stroke="black" points="857,-56.5 857,-75.5 931,-75.5 931,-56.5 857,-56.5"/>
<text text-anchor="middle" x="894" y="-63.5" font-family="Helvetica,sans-Serif" font-size="10.00">deprecate.h</text>
</a>
</g>
</g>
<!-- Node11&#45;&gt;Node12 -->
<g id="edge12" class="edge">
<title>Node11&#45;&gt;Node12</title>
<path fill="none" stroke="midnightblue" d="M835.25,-112.32C845.8,-104.18 861.8,-91.84 874.44,-82.09"/>
<polygon fill="midnightblue" stroke="midnightblue" points="876.77,-84.71 882.55,-75.83 872.49,-79.17 876.77,-84.71"/>
</g>
<!-- Node13 -->
<g id="node13" class="node">
<title>Node13</title>
<g id="a_node13"><a xlink:title=" ">
<polygon fill="none" stroke="#bfbfbf" points="783,-56.5 783,-75.5 839,-75.5 839,-56.5 783,-56.5"/>
<text text-anchor="middle" x="811" y="-63.5" font-family="Helvetica,sans-Serif" font-size="10.00">optional</text>
</a>
</g>
</g>
<!-- Node11&#45;&gt;Node13 -->
<g id="edge13" class="edge">
<title>Node11&#45;&gt;Node13</title>
<path fill="none" stroke="midnightblue" d="M821.85,-112.08C820.13,-104.93 817.65,-94.64 815.5,-85.69"/>
<polygon fill="midnightblue" stroke="midnightblue" points="818.85,-84.65 813.11,-75.75 812.04,-86.29 818.85,-84.65"/>
</g>
<!-- Node14&#45;&gt;Node3 -->
<g id="edge39" class="edge">
<title>Node14&#45;&gt;Node3</title>
<path fill="none" stroke="midnightblue" d="M459.42,-454.66C365.51,-447.18 107,-419.99 107,-347 107,-347 107,-347 107,-177 107,-142.81 123.6,-105.76 134.86,-84.57"/>
<polygon fill="midnightblue" stroke="midnightblue" points="137.95,-86.22 139.72,-75.77 131.82,-82.83 137.95,-86.22"/>
</g>
<!-- Node15 -->
<g id="node15" class="node">
<title>Node15</title>
<g id="a_node15"><a xlink:href="expr__cast_8h.html" target="_top" xlink:title="Templated functions to cast to specific exprt&#45;derived classes.">
<polygon fill="none" stroke="black" points="250.5,-336.5 250.5,-355.5 323.5,-355.5 323.5,-336.5 250.5,-336.5"/>
<text text-anchor="middle" x="287" y="-343.5" font-family="Helvetica,sans-Serif" font-size="10.00">expr_cast.h</text>
</a>
</g>
</g>
<!-- Node14&#45;&gt;Node15 -->
<g id="edge15" class="edge">
<title>Node14&#45;&gt;Node15</title>
<path fill="none" stroke="midnightblue" d="M475.28,-448.45C457.04,-439.57 427.85,-425.17 403,-412 370.73,-394.9 334.04,-374.11 310.72,-360.72"/>
<polygon fill="midnightblue" stroke="midnightblue" points="312.3,-357.6 301.89,-355.64 308.81,-363.66 312.3,-357.6"/>
</g>
<!-- Node43 -->
<g id="node27" class="node">
<title>Node43</title>
<g id="a_node27"><a xlink:href="std__types_8h.html" target="_top" xlink:title="Pre&#45;defined types.">
<polygon fill="none" stroke="black" points="411.5,-392.5 411.5,-411.5 484.5,-411.5 484.5,-392.5 411.5,-392.5"/>
<text text-anchor="middle" x="448" y="-399.5" font-family="Helvetica,sans-Serif" font-size="10.00">std_types.h</text>
</a>
</g>
</g>
<!-- Node14&#45;&gt;Node43 -->
<g id="edge40" class="edge">
<title>Node14&#45;&gt;Node43</title>
<path fill="none" stroke="midnightblue" d="M485.57,-448.08C479.15,-440.38 469.69,-429.03 461.88,-419.65"/>
<polygon fill="midnightblue" stroke="midnightblue" points="464.38,-417.19 455.29,-411.75 459.01,-421.67 464.38,-417.19"/>
</g>
<!-- Node15&#45;&gt;Node3 -->
<g id="edge19" class="edge">
<title>Node15&#45;&gt;Node3</title>
<path fill="none" stroke="midnightblue" d="M258.35,-336.36C239.78,-329.37 216.46,-317.73 202,-300 182.98,-276.68 183,-265.1 183,-235 183,-235 183,-235 183,-177 183,-142.81 166.4,-105.76 155.14,-84.57"/>
<polygon fill="midnightblue" stroke="midnightblue" points="158.18,-82.83 150.28,-75.77 152.05,-86.22 158.18,-82.83"/>
</g>
<!-- Node15&#45;&gt;Node7 -->
<g id="edge17" class="edge">
<title>Node15&#45;&gt;Node7</title>
<path fill="none" stroke="midnightblue" d="M286.83,-336.35C286.35,-323.67 284.56,-299.43 278,-280 261.51,-231.17 221,-230.54 221,-179 221,-179 221,-179 221,-121 221,-88.95 221.43,-51.64 221.73,-29.75"/>
<polygon fill="midnightblue" stroke="midnightblue" points="225.23,-29.61 221.87,-19.56 218.23,-29.51 225.23,-29.61"/>
</g>
<!-- Node16 -->
<g id="node16" class="node">
<title>Node16</title>
<g id="a_node16"><a xlink:title=" ">
<polygon fill="none" stroke="#bfbfbf" points="211.5,-280.5 211.5,-299.5 268.5,-299.5 268.5,-280.5 211.5,-280.5"/>
<text text-anchor="middle" x="240" y="-287.5" font-family="Helvetica,sans-Serif" font-size="10.00">typeinfo</text>
</a>
</g>
</g>
<!-- Node15&#45;&gt;Node16 -->
<g id="edge16" class="edge">
<title>Node15&#45;&gt;Node16</title>
<path fill="none" stroke="midnightblue" d="M279.24,-336.08C272.46,-328.3 262.46,-316.8 254.24,-307.37"/>
<polygon fill="midnightblue" stroke="midnightblue" points="256.82,-305 247.62,-299.75 251.54,-309.59 256.82,-305"/>
</g>
<!-- Node17 -->
<g id="node17" class="node">
<title>Node17</title>
<g id="a_node17"><a xlink:title=" ">
<polygon fill="none" stroke="#bfbfbf" points="662.5,-224.5 662.5,-243.5 727.5,-243.5 727.5,-224.5 662.5,-224.5"/>
<text text-anchor="middle" x="695" y="-231.5" font-family="Helvetica,sans-Serif" font-size="10.00">functional</text>
</a>
</g>
</g>
<!-- Node15&#45;&gt;Node17 -->
<g id="edge18" class="edge">
<title>Node15&#45;&gt;Node17</title>
<path fill="none" stroke="midnightblue" d="M318.68,-336.46C391.74,-316.76 572.03,-268.15 653.66,-246.15"/>
<polygon fill="midnightblue" stroke="midnightblue" points="654.6,-249.52 663.34,-243.53 652.78,-242.76 654.6,-249.52"/>
</g>
<!-- Node18 -->
<g id="node18" class="node">
<title>Node18</title>
<g id="a_node18"><a xlink:href="expr_8h.html" target="_top" xlink:title=" ">
<polygon fill="none" stroke="black" points="377.5,-280.5 377.5,-299.5 424.5,-299.5 424.5,-280.5 377.5,-280.5"/>
<text text-anchor="middle" x="401" y="-287.5" font-family="Helvetica,sans-Serif" font-size="10.00">expr.h</text>
</a>
</g>
</g>
<!-- Node15&#45;&gt;Node18 -->
<g id="edge20" class="edge">
<title>Node15&#45;&gt;Node18</title>
<path fill="none" stroke="midnightblue" d="M305.06,-336.44C323.57,-327.68 352.58,-313.94 373.86,-303.86"/>
<polygon fill="midnightblue" stroke="midnightblue" points="375.48,-306.96 383.02,-299.52 372.49,-300.63 375.48,-306.96"/>
</g>
<!-- Node18&#45;&gt;Node17 -->
<g id="edge38" class="edge">
<title>Node18&#45;&gt;Node17</title>
<path fill="none" stroke="midnightblue" d="M424.78,-285.1C468.06,-277.92 562.81,-261.9 652.31,-244.28"/>
<polygon fill="midnightblue" stroke="midnightblue" points="653.22,-247.67 662.35,-242.29 651.86,-240.8 653.22,-247.67"/>
</g>
<!-- Node19 -->
<g id="node19" class="node">
<title>Node19</title>
<g id="a_node19"><a xlink:href="as__const_8h.html" target="_top" xlink:title=" ">
<polygon fill="none" stroke="black" points="429,-224.5 429,-243.5 497,-243.5 497,-224.5 429,-224.5"/>
<text text-anchor="middle" x="463" y="-231.5" font-family="Helvetica,sans-Serif" font-size="10.00">as_const.h</text>
</a>
</g>
</g>
<!-- Node18&#45;&gt;Node19 -->
<g id="edge21" class="edge">
<title>Node18&#45;&gt;Node19</title>
<path fill="none" stroke="midnightblue" d="M410.96,-280.32C420.13,-272.34 433.94,-260.31 445.03,-250.65"/>
<polygon fill="midnightblue" stroke="midnightblue" points="447.62,-253.04 452.86,-243.83 443.02,-247.76 447.62,-253.04"/>
</g>
<!-- Node20 -->
<g id="node20" class="node">
<title>Node20</title>
<g id="a_node20"><a xlink:href="type_8h.html" target="_top" xlink:title="Defines typet, type_with_subtypet and type_with_subtypest.">
<polygon fill="none" stroke="black" points="325.5,-224.5 325.5,-243.5 372.5,-243.5 372.5,-224.5 325.5,-224.5"/>
<text text-anchor="middle" x="349" y="-231.5" font-family="Helvetica,sans-Serif" font-size="10.00">type.h</text>
</a>
</g>
</g>
<!-- Node18&#45;&gt;Node20 -->
<g id="edge22" class="edge">
<title>Node18&#45;&gt;Node20</title>
<path fill="none" stroke="midnightblue" d="M392.41,-280.08C384.84,-272.22 373.62,-260.57 364.49,-251.08"/>
<polygon fill="midnightblue" stroke="midnightblue" points="366.88,-248.53 357.43,-243.75 361.84,-253.38 366.88,-248.53"/>
</g>
<!-- Node40 -->
<g id="node24" class="node">
<title>Node40</title>
<g id="a_node24"><a xlink:href="validation__mode_8h.html" target="_top" xlink:title=" ">
<polygon fill="none" stroke="black" points="289.5,-112.5 289.5,-131.5 396.5,-131.5 396.5,-112.5 289.5,-112.5"/>
<text text-anchor="middle" x="343" y="-119.5" font-family="Helvetica,sans-Serif" font-size="10.00">validation_mode.h</text>
</a>
</g>
</g>
<!-- Node18&#45;&gt;Node40 -->
<g id="edge37" class="edge">
<title>Node18&#45;&gt;Node40</title>
<path fill="none" stroke="midnightblue" d="M377.46,-283.55C357.47,-277.55 330,-265.72 317,-244 312.43,-236.37 315.88,-232.82 317,-224 319.01,-208.11 330.66,-165.95 337.66,-141.42"/>
<polygon fill="midnightblue" stroke="midnightblue" points="341.1,-142.12 340.5,-131.54 334.38,-140.18 341.1,-142.12"/>
</g>
<!-- Node41 -->
<g id="node25" class="node">
<title>Node41</title>
<g id="a_node25"><a xlink:href="validate__types_8h.html" target="_top" xlink:title=" ">
<polygon fill="none" stroke="black" points="409,-168.5 409,-187.5 507,-187.5 507,-168.5 409,-168.5"/>
<text text-anchor="middle" x="458" y="-175.5" font-family="Helvetica,sans-Serif" font-size="10.00">validate_types.h</text>
</a>
</g>
</g>
<!-- Node18&#45;&gt;Node41 -->
<g id="edge36" class="edge">
<title>Node18&#45;&gt;Node41</title>
<path fill="none" stroke="midnightblue" d="M402.38,-280.14C404.66,-267.2 409.99,-242.64 420,-224 425.66,-213.46 434.08,-203.15 441.56,-195.07"/>
<polygon fill="midnightblue" stroke="midnightblue" points="444.16,-197.42 448.59,-187.8 439.12,-192.56 444.16,-197.42"/>
</g>
<!-- Node42 -->
<g id="node26" class="node">
<title>Node42</title>
<g id="a_node26"><a xlink:href="validate__expressions_8h.html" target="_top" xlink:title=" ">
<polygon fill="none" stroke="black" points="515.5,-224.5 515.5,-243.5 644.5,-243.5 644.5,-224.5 515.5,-224.5"/>
<text text-anchor="middle" x="580" y="-231.5" font-family="Helvetica,sans-Serif" font-size="10.00">validate_expressions.h</text>
</a>
</g>
</g>
<!-- Node18&#45;&gt;Node42 -->
<g id="edge35" class="edge">
<title>Node18&#45;&gt;Node42</title>
<path fill="none" stroke="midnightblue" d="M424.77,-281.83C454.63,-272.82 506.25,-257.25 541.71,-246.55"/>
<polygon fill="midnightblue" stroke="midnightblue" points="543.14,-249.78 551.7,-243.54 541.12,-243.07 543.14,-249.78"/>
</g>
<!-- Node21 -->
<g id="node21" class="node">
<title>Node21</title>
<g id="a_node21"><a xlink:href="source__location_8h.html" target="_top" xlink:title=" ">
<polygon fill="none" stroke="black" points="817,-168.5 817,-187.5 919,-187.5 919,-168.5 817,-168.5"/>
<text text-anchor="middle" x="868" y="-175.5" font-family="Helvetica,sans-Serif" font-size="10.00">source_location.h</text>
</a>
</g>
</g>
<!-- Node20&#45;&gt;Node21 -->
<g id="edge23" class="edge">
<title>Node20&#45;&gt;Node21</title>
<path fill="none" stroke="midnightblue" d="M372.65,-229.85C386.45,-228.04 404.2,-225.79 420,-224 558.08,-208.32 720.42,-192.71 806.75,-184.64"/>
<polygon fill="midnightblue" stroke="midnightblue" points="807.26,-188.11 816.89,-183.7 806.61,-181.14 807.26,-188.11"/>
</g>
<!-- Node38 -->
<g id="node23" class="node">
<title>Node38</title>
<g id="a_node23"><a xlink:href="validate_8h.html" target="_top" xlink:title=" ">
<polygon fill="none" stroke="red" points="249.5,-168.5 249.5,-187.5 314.5,-187.5 314.5,-168.5 249.5,-168.5"/>
<text text-anchor="middle" x="282" y="-175.5" font-family="Helvetica,sans-Serif" font-size="10.00">validate.h</text>
</a>
</g>
</g>
<!-- Node20&#45;&gt;Node38 -->
<g id="edge30" class="edge">
<title>Node20&#45;&gt;Node38</title>
<path fill="none" stroke="midnightblue" d="M338.24,-224.32C328.23,-216.26 313.11,-204.08 301.07,-194.37"/>
<polygon fill="midnightblue" stroke="midnightblue" points="302.94,-191.38 292.96,-187.83 298.55,-196.83 302.94,-191.38"/>
</g>
<!-- Node20&#45;&gt;Node40 -->
<g id="edge34" class="edge">
<title>Node20&#45;&gt;Node40</title>
<path fill="none" stroke="midnightblue" d="M351.62,-224.15C354.99,-211.62 360.04,-188.01 357,-168 355.63,-159 352.81,-149.33 350.05,-141.26"/>
<polygon fill="midnightblue" stroke="midnightblue" points="353.31,-139.98 346.6,-131.78 346.73,-142.37 353.31,-139.98"/>
</g>
<!-- Node20&#45;&gt;Node41 -->
<g id="edge33" class="edge">
<title>Node20&#45;&gt;Node41</title>
<path fill="none" stroke="midnightblue" d="M366.51,-224.32C384.07,-215.62 411.33,-202.12 431.53,-192.11"/>
<polygon fill="midnightblue" stroke="midnightblue" points="433.12,-195.23 440.53,-187.65 430.02,-188.96 433.12,-195.23"/>
</g>
<!-- Node21&#45;&gt;Node6 -->
<g id="edge29" class="edge">
<title>Node21&#45;&gt;Node6</title>
<path fill="none" stroke="midnightblue" d="M880.02,-168.49C906.41,-148.73 965.13,-98.22 940,-56 928.91,-37.38 907.13,-25.99 888.67,-19.32"/>
<polygon fill="midnightblue" stroke="midnightblue" points="889.71,-15.98 879.11,-16.18 887.51,-22.63 889.71,-15.98"/>
</g>
<!-- Node21&#45;&gt;Node11 -->
<g id="edge28" class="edge">
<title>Node21&#45;&gt;Node11</title>
<path fill="none" stroke="midnightblue" d="M860.73,-168.08C854.46,-160.38 845.21,-149.03 837.57,-139.65"/>
<polygon fill="midnightblue" stroke="midnightblue" points="840.16,-137.29 831.13,-131.75 834.73,-141.71 840.16,-137.29"/>
</g>
<!-- Node21&#45;&gt;Node12 -->
<g id="edge24" class="edge">
<title>Node21&#45;&gt;Node12</title>
<path fill="none" stroke="midnightblue" d="M870.04,-168.37C874.24,-150.62 883.92,-109.67 889.6,-85.6"/>
<polygon fill="midnightblue" stroke="midnightblue" points="893.08,-86.13 891.97,-75.59 886.26,-84.52 893.08,-86.13"/>
</g>
<!-- Node22 -->
<g id="node22" class="node">
<title>Node22</title>
<g id="a_node22"><a xlink:href="irep_8h.html" target="_top" xlink:title=" ">
<polygon fill="none" stroke="red" points="729,-112.5 729,-131.5 773,-131.5 773,-112.5 729,-112.5"/>
<text text-anchor="middle" x="751" y="-119.5" font-family="Helvetica,sans-Serif" font-size="10.00">irep.h</text>
</a>
</g>
</g>
<!-- Node21&#45;&gt;Node22 -->
<g id="edge25" class="edge">
<title>Node21&#45;&gt;Node22</title>
<path fill="none" stroke="midnightblue" d="M849.46,-168.44C830.38,-159.64 800.43,-145.81 778.56,-135.72"/>
<polygon fill="midnightblue" stroke="midnightblue" points="780,-132.53 769.45,-131.52 777.07,-138.88 780,-132.53"/>
</g>
<!-- Node22&#45;&gt;Node3 -->
<g id="edge27" class="edge">
<title>Node22&#45;&gt;Node3</title>
<path fill="none" stroke="midnightblue" d="M728.71,-119.01C639.91,-111.1 310.25,-81.73 189.6,-70.97"/>
<polygon fill="midnightblue" stroke="midnightblue" points="189.87,-67.48 179.6,-70.08 189.25,-74.46 189.87,-67.48"/>
</g>
<!-- Node22&#45;&gt;Node6 -->
<g id="edge26" class="edge">
<title>Node22&#45;&gt;Node6</title>
<path fill="none" stroke="midnightblue" d="M752.04,-112.44C754.07,-99 759.69,-72.75 774,-56 787.44,-40.27 807.81,-29.11 825,-21.84"/>
<polygon fill="midnightblue" stroke="midnightblue" points="826.67,-24.94 834.68,-18 824.09,-18.43 826.67,-24.94"/>
</g>
<!-- Node38&#45;&gt;Node7 -->
<g id="edge31" class="edge">
<title>Node38&#45;&gt;Node7</title>
<path fill="none" stroke="midnightblue" d="M278.77,-168.08C269.29,-141.83 241.35,-64.55 228.55,-29.12"/>
<polygon fill="midnightblue" stroke="midnightblue" points="231.79,-27.78 225.1,-19.57 225.2,-30.16 231.79,-27.78"/>
</g>
<!-- Node38&#45;&gt;Node40 -->
<g id="edge32" class="edge">
<title>Node38&#45;&gt;Node40</title>
<path fill="none" stroke="midnightblue" d="M291.8,-168.32C300.82,-160.34 314.41,-148.31 325.32,-138.65"/>
<polygon fill="midnightblue" stroke="midnightblue" points="327.85,-141.08 333.02,-131.83 323.21,-135.84 327.85,-141.08"/>
</g>
<!-- Node43&#45;&gt;Node3 -->
<g id="edge43" class="edge">
<title>Node43&#45;&gt;Node3</title>
<path fill="none" stroke="midnightblue" d="M411.45,-395.64C330.86,-382.8 145,-347.1 145,-291 145,-291 145,-291 145,-177 145,-144.95 145,-107.64 145,-85.75"/>
<polygon fill="midnightblue" stroke="midnightblue" points="148.5,-85.56 145,-75.56 141.5,-85.56 148.5,-85.56"/>
</g>
<!-- Node43&#45;&gt;Node8 -->
<g id="edge44" class="edge">
<title>Node43&#45;&gt;Node8</title>
<path fill="none" stroke="midnightblue" d="M484.71,-396.67C567.91,-386.86 770.64,-362.96 861.12,-352.29"/>
<polygon fill="midnightblue" stroke="midnightblue" points="861.8,-355.74 871.32,-351.09 860.98,-348.78 861.8,-355.74"/>
</g>
<!-- Node43&#45;&gt;Node15 -->
<g id="edge42" class="edge">
<title>Node43&#45;&gt;Node15</title>
<path fill="none" stroke="midnightblue" d="M422.49,-392.44C395.4,-383.36 352.41,-368.94 322.13,-358.78"/>
<polygon fill="midnightblue" stroke="midnightblue" points="322.99,-355.38 312.39,-355.52 320.76,-362.01 322.99,-355.38"/>
</g>
<!-- Node43&#45;&gt;Node18 -->
<g id="edge41" class="edge">
<title>Node43&#45;&gt;Node18</title>
<path fill="none" stroke="midnightblue" d="M441.96,-392.38C436,-383.56 426.94,-369.31 421,-356 414.24,-340.84 408.87,-322.72 405.4,-309.47"/>
<polygon fill="midnightblue" stroke="midnightblue" points="408.77,-308.51 402.95,-299.65 401.98,-310.2 408.77,-308.51"/>
</g>
<!-- Node43&#45;&gt;Node38 -->
<g id="edge45" class="edge">
<title>Node43&#45;&gt;Node38</title>
<path fill="none" stroke="midnightblue" d="M438.49,-392.28C414.34,-369.73 349.76,-306.88 310,-244 300.67,-229.25 293.08,-210.86 288.16,-197.41"/>
<polygon fill="midnightblue" stroke="midnightblue" points="291.42,-196.12 284.81,-187.84 284.81,-198.44 291.42,-196.12"/>
</g>
<!-- Node30 -->
<g id="node28" class="node">
<title>Node30</title>
<g id="a_node28"><a xlink:title=" ">
<polygon fill="none" stroke="#bfbfbf" points="429.5,-336.5 429.5,-355.5 522.5,-355.5 522.5,-336.5 429.5,-336.5"/>
<text text-anchor="middle" x="476" y="-343.5" font-family="Helvetica,sans-Serif" font-size="10.00">unordered_map</text>
</a>
</g>
</g>
<!-- Node43&#45;&gt;Node30 -->
<g id="edge46" class="edge">
<title>Node43&#45;&gt;Node30</title>
<path fill="none" stroke="midnightblue" d="M452.62,-392.08C456.46,-384.69 462.02,-373.95 466.76,-364.81"/>
<polygon fill="midnightblue" stroke="midnightblue" points="469.97,-366.24 471.46,-355.75 463.75,-363.02 469.97,-366.24"/>
</g>
<!-- Node45&#45;&gt;Node12 -->
<g id="edge49" class="edge">
<title>Node45&#45;&gt;Node12</title>
<path fill="none" stroke="midnightblue" d="M768.88,-560.11C776.75,-523.83 809.14,-384.07 862,-280 884.79,-235.13 912.59,-235.91 928,-188 939.8,-151.3 919.12,-107.63 905.17,-84.09"/>
<polygon fill="midnightblue" stroke="midnightblue" points="908.14,-82.23 899.89,-75.57 902.19,-85.92 908.14,-82.23"/>
</g>
<!-- Node46 -->
<g id="node31" class="node">
<title>Node46</title>
<g id="a_node31"><a xlink:href="pointer__expr_8h.html" target="_top" xlink:title="API to expression classes for Pointers.">
<polygon fill="none" stroke="black" points="656,-504.5 656,-523.5 742,-523.5 742,-504.5 656,-504.5"/>
<text text-anchor="middle" x="699" y="-511.5" font-family="Helvetica,sans-Serif" font-size="10.00">pointer_expr.h</text>
</a>
</g>
</g>
<!-- Node45&#45;&gt;Node46 -->
<g id="edge50" class="edge">
<title>Node45&#45;&gt;Node46</title>
<path fill="none" stroke="midnightblue" d="M756.07,-560.32C745.83,-552.18 730.28,-539.84 718,-530.09"/>
<polygon fill="midnightblue" stroke="midnightblue" points="720.13,-527.31 710.12,-523.83 715.78,-532.79 720.13,-527.31"/>
</g>
<!-- Node46&#45;&gt;Node14 -->
<g id="edge53" class="edge">
<title>Node46&#45;&gt;Node14</title>
<path fill="none" stroke="midnightblue" d="M666.36,-504.44C630.95,-495.16 574.29,-480.31 535.45,-470.13"/>
<polygon fill="midnightblue" stroke="midnightblue" points="536.05,-466.67 525.49,-467.52 534.27,-473.44 536.05,-466.67"/>
</g>
<!-- Node47 -->
<g id="node32" class="node">
<title>Node47</title>
<g id="a_node32"><a xlink:href="bitvector__types_8h.html" target="_top" xlink:title="Pre&#45;defined bitvector types.">
<polygon fill="none" stroke="black" points="648.5,-448.5 648.5,-467.5 749.5,-467.5 749.5,-448.5 648.5,-448.5"/>
<text text-anchor="middle" x="699" y="-455.5" font-family="Helvetica,sans-Serif" font-size="10.00">bitvector_types.h</text>
</a>
</g>
</g>
<!-- Node46&#45;&gt;Node47 -->
<g id="edge51" class="edge">
<title>Node46&#45;&gt;Node47</title>
<path fill="none" stroke="midnightblue" d="M699,-504.08C699,-497.01 699,-486.86 699,-477.99"/>
<polygon fill="midnightblue" stroke="midnightblue" points="702.5,-477.75 699,-467.75 695.5,-477.75 702.5,-477.75"/>
</g>
<!-- Node47&#45;&gt;Node43 -->
<g id="edge52" class="edge">
<title>Node47&#45;&gt;Node43</title>
<path fill="none" stroke="midnightblue" d="M659.23,-448.44C614.54,-438.83 542.07,-423.24 494.72,-413.05"/>
<polygon fill="midnightblue" stroke="midnightblue" points="495.24,-409.58 484.73,-410.9 493.77,-416.43 495.24,-409.58"/>
</g>
<!-- Node48&#45;&gt;Node17 -->
<g id="edge56" class="edge">
<title>Node48&#45;&gt;Node17</title>
<path fill="none" stroke="midnightblue" d="M725.89,-280.08C720.72,-272.53 713.15,-261.49 706.81,-252.23"/>
<polygon fill="midnightblue" stroke="midnightblue" points="709.54,-250.02 701,-243.75 703.76,-253.98 709.54,-250.02"/>
</g>
<!-- Node48&#45;&gt;Node22 -->
<g id="edge55" class="edge">
<title>Node48&#45;&gt;Node22</title>
<path fill="none" stroke="midnightblue" d="M733.02,-280.08C736.01,-253.95 744.8,-177.21 748.87,-141.58"/>
<polygon fill="midnightblue" stroke="midnightblue" points="752.36,-141.9 750.02,-131.57 745.4,-141.11 752.36,-141.9"/>
</g>
<!-- Node49&#45;&gt;Node8 -->
<g id="edge58" class="edge">
<title>Node49&#45;&gt;Node8</title>
<path fill="none" stroke="midnightblue" d="M906,-392.08C906,-385.01 906,-374.86 906,-365.99"/>
<polygon fill="midnightblue" stroke="midnightblue" points="909.5,-365.75 906,-355.75 902.5,-365.75 909.5,-365.75"/>
</g>
<!-- Node50 -->
<g id="node35" class="node">
<title>Node50</title>
<g id="a_node35"><a xlink:href="format__spec_8h.html" target="_top" xlink:title=" ">
<polygon fill="none" stroke="black" points="959,-336.5 959,-355.5 1045,-355.5 1045,-336.5 959,-336.5"/>
<text text-anchor="middle" x="1002" y="-343.5" font-family="Helvetica,sans-Serif" font-size="10.00">format_spec.h</text>
</a>
</g>
</g>
<!-- Node49&#45;&gt;Node50 -->
<g id="edge59" class="edge">
<title>Node49&#45;&gt;Node50</title>
<path fill="none" stroke="midnightblue" d="M921.42,-392.32C936.54,-383.82 959.82,-370.73 977.47,-360.8"/>
<polygon fill="midnightblue" stroke="midnightblue" points="979.61,-363.61 986.61,-355.65 976.18,-357.51 979.61,-363.61"/>
</g>
<!-- Node51&#45;&gt;Node8 -->
<g id="edge62" class="edge">
<title>Node51&#45;&gt;Node8</title>
<path fill="none" stroke="midnightblue" d="M981.54,-392.32C967.5,-383.9 945.95,-370.97 929.46,-361.07"/>
<polygon fill="midnightblue" stroke="midnightblue" points="930.8,-357.8 920.42,-355.65 927.2,-363.8 930.8,-357.8"/>
</g>
<!-- Node51&#45;&gt;Node9 -->
<g id="edge61" class="edge">
<title>Node51&#45;&gt;Node9</title>
<path fill="none" stroke="midnightblue" d="M1013.28,-392.49C1026.75,-384.88 1044.68,-372.4 1054,-356 1061.99,-341.94 1063.57,-323.45 1063.4,-309.78"/>
<polygon fill="midnightblue" stroke="midnightblue" points="1066.89,-309.48 1062.94,-299.64 1059.89,-309.79 1066.89,-309.48"/>
</g>
<!-- Node51&#45;&gt;Node50 -->
<g id="edge63" class="edge">
<title>Node51&#45;&gt;Node50</title>
<path fill="none" stroke="midnightblue" d="M996.99,-392.08C997.79,-384.93 998.93,-374.64 999.92,-365.69"/>
<polygon fill="midnightblue" stroke="midnightblue" points="1003.4,-366.08 1001.03,-355.75 996.44,-365.3 1003.4,-366.08"/>
</g>
</g>
</svg>
