<?xml version="1.0" encoding="UTF-8" standalone="no"?>
<!DOCTYPE svg PUBLIC "-//W3C//DTD SVG 1.1//EN"
 "http://www.w3.org/Graphics/SVG/1.1/DTD/svg11.dtd">
<!-- Generated by graphviz version 2.43.0 (0)
 -->
<!-- Title: /home/runner/work/cbmc/cbmc/src/cprover/axioms.h Pages: 1 -->
<svg width="585pt" height="117pt"
 viewBox="0.00 0.00 585.00 117.00" xmlns="http://www.w3.org/2000/svg" xmlns:xlink="http://www.w3.org/1999/xlink">
<g id="graph0" class="graph" transform="scale(1 1) rotate(0) translate(4 113)">
<title>/home/runner/work/cbmc/cbmc/src/cprover/axioms.h</title>
<!-- Node1 -->
<g id="node1" class="node">
<title>Node1</title>
<g id="a_node1"><a xlink:title=" ">
<polygon fill="#bfbfbf" stroke="black" points="197.5,-78.5 197.5,-108.5 348.5,-108.5 348.5,-78.5 197.5,-78.5"/>
<text text-anchor="start" x="205.5" y="-96.5" font-family="Helvetica,sans-Serif" font-size="10.00">/home/runner/work/cbmc</text>
<text text-anchor="middle" x="273" y="-85.5" font-family="Helvetica,sans-Serif" font-size="10.00">/cbmc/src/cprover/axioms.h</text>
</a>
</g>
</g>
<!-- Node2 -->
<g id="node2" class="node">
<title>Node2</title>
<g id="a_node2"><a xlink:href="axioms_8cpp.html" target="_top" xlink:title=" ">
<polygon fill="none" stroke="black" points="0,-6 0,-36 162,-36 162,-6 0,-6"/>
<text text-anchor="start" x="8" y="-24" font-family="Helvetica,sans-Serif" font-size="10.00">/home/runner/work/cbmc</text>
<text text-anchor="middle" x="81" y="-13" font-family="Helvetica,sans-Serif" font-size="10.00">/cbmc/src/cprover/axioms.cpp</text>
</a>
</g>
</g>
<!-- Node1&#45;&gt;Node2 -->
<g id="edge1" class="edge">
<title>Node1&#45;&gt;Node2</title>
<path fill="none" stroke="midnightblue" d="M224.82,-74.81C192.19,-62.83 149.66,-47.21 119.33,-36.07"/>
<polygon fill="midnightblue" stroke="midnightblue" points="224.01,-78.24 234.61,-78.4 226.43,-71.67 224.01,-78.24"/>
</g>
<!-- Node3 -->
<g id="node3" class="node">
<title>Node3</title>
<g id="a_node3"><a xlink:href="counterexample__found_8cpp.html" target="_top" xlink:title=" ">
<polygon fill="none" stroke="black" points="180.5,-0.5 180.5,-41.5 365.5,-41.5 365.5,-0.5 180.5,-0.5"/>
<text text-anchor="start" x="188.5" y="-29.5" font-family="Helvetica,sans-Serif" font-size="10.00">/home/runner/work/cbmc</text>
<text text-anchor="start" x="188.5" y="-18.5" font-family="Helvetica,sans-Serif" font-size="10.00">/cbmc/src/cprover/counterexample</text>
<text text-anchor="middle" x="273" y="-7.5" font-family="Helvetica,sans-Serif" font-size="10.00">_found.cpp</text>
</a>
</g>
</g>
<!-- Node1&#45;&gt;Node3 -->
<g id="edge2" class="edge">
<title>Node1&#45;&gt;Node3</title>
<path fill="none" stroke="midnightblue" d="M273,-67.98C273,-59.35 273,-49.76 273,-41.59"/>
<polygon fill="midnightblue" stroke="midnightblue" points="269.5,-68.23 273,-78.23 276.5,-68.23 269.5,-68.23"/>
</g>
<!-- Node4 -->
<g id="node4" class="node">
<title>Node4</title>
<g id="a_node4"><a xlink:href="inductiveness_8cpp.html" target="_top" xlink:title=" ">
<polygon fill="none" stroke="black" points="383,-6 383,-36 577,-36 577,-6 383,-6"/>
<text text-anchor="start" x="391" y="-24" font-family="Helvetica,sans-Serif" font-size="10.00">/home/runner/work/cbmc</text>
<text text-anchor="middle" x="480" y="-13" font-family="Helvetica,sans-Serif" font-size="10.00">/cbmc/src/cprover/inductiveness.cpp</text>
</a>
</g>
</g>
<!-- Node1&#45;&gt;Node4 -->
<g id="edge3" class="edge">
<title>Node1&#45;&gt;Node4</title>
<path fill="none" stroke="midnightblue" d="M324.03,-75.12C359.33,-63.1 405.7,-47.31 438.68,-36.07"/>
<polygon fill="midnightblue" stroke="midnightblue" points="322.73,-71.87 314.39,-78.4 324.99,-78.49 322.73,-71.87"/>
</g>
</g>
</svg>
