<?xml version="1.0" encoding="UTF-8" standalone="no"?>
<!DOCTYPE svg PUBLIC "-//W3C//DTD SVG 1.1//EN"
 "http://www.w3.org/Graphics/SVG/1.1/DTD/svg11.dtd">
<!-- Generated by graphviz version 2.43.0 (0)
 -->
<!-- Title: /home/runner/work/cbmc/cbmc/src/util/bitvector_types.cpp Pages: 1 -->
<svg width="1018pt" height="722pt"
 viewBox="0.00 0.00 1018.00 722.00" xmlns="http://www.w3.org/2000/svg" xmlns:xlink="http://www.w3.org/1999/xlink">
<g id="graph0" class="graph" transform="scale(1 1) rotate(0) translate(4 718)">
<title>/home/runner/work/cbmc/cbmc/src/util/bitvector_types.cpp</title>
<!-- Node1 -->
<g id="node1" class="node">
<title>Node1</title>
<g id="a_node1"><a xlink:title="Pre&#45;defined bitvector types.">
<polygon fill="#bfbfbf" stroke="black" points="585,-672.5 585,-713.5 723,-713.5 723,-672.5 585,-672.5"/>
<text text-anchor="start" x="593" y="-701.5" font-family="Helvetica,sans-Serif" font-size="10.00">/home/runner/work/cbmc</text>
<text text-anchor="start" x="593" y="-690.5" font-family="Helvetica,sans-Serif" font-size="10.00">/cbmc/src/util/bitvector</text>
<text text-anchor="middle" x="654" y="-679.5" font-family="Helvetica,sans-Serif" font-size="10.00">_types.cpp</text>
</a>
</g>
</g>
<!-- Node2 -->
<g id="node2" class="node">
<title>Node2</title>
<g id="a_node2"><a xlink:href="bitvector__types_8h.html" target="_top" xlink:title="Pre&#45;defined bitvector types.">
<polygon fill="none" stroke="black" points="522.5,-616.5 522.5,-635.5 623.5,-635.5 623.5,-616.5 522.5,-616.5"/>
<text text-anchor="middle" x="573" y="-623.5" font-family="Helvetica,sans-Serif" font-size="10.00">bitvector_types.h</text>
</a>
</g>
</g>
<!-- Node1&#45;&gt;Node2 -->
<g id="edge1" class="edge">
<title>Node1&#45;&gt;Node2</title>
<path fill="none" stroke="midnightblue" d="M629.7,-672.5C617.52,-662.72 603,-651.07 591.7,-642.01"/>
<polygon fill="midnightblue" stroke="midnightblue" points="593.77,-639.18 583.78,-635.65 589.39,-644.64 593.77,-639.18"/>
</g>
<!-- Node42 -->
<g id="node26" class="node">
<title>Node42</title>
<g id="a_node26"><a xlink:href="arith__tools_8h.html" target="_top" xlink:title=" ">
<polygon fill="none" stroke="black" points="682.5,-616.5 682.5,-635.5 759.5,-635.5 759.5,-616.5 682.5,-616.5"/>
<text text-anchor="middle" x="721" y="-623.5" font-family="Helvetica,sans-Serif" font-size="10.00">arith_tools.h</text>
</a>
</g>
</g>
<!-- Node1&#45;&gt;Node42 -->
<g id="edge41" class="edge">
<title>Node1&#45;&gt;Node42</title>
<path fill="none" stroke="midnightblue" d="M674.1,-672.5C683.88,-663.01 695.48,-651.76 704.7,-642.81"/>
<polygon fill="midnightblue" stroke="midnightblue" points="707.34,-645.13 712.08,-635.65 702.47,-640.1 707.34,-645.13"/>
</g>
<!-- Node43 -->
<g id="node27" class="node">
<title>Node43</title>
<g id="a_node27"><a xlink:href="std__expr_8h.html" target="_top" xlink:title="API to expression classes.">
<polygon fill="none" stroke="black" points="620.5,-560.5 620.5,-579.5 687.5,-579.5 687.5,-560.5 620.5,-560.5"/>
<text text-anchor="middle" x="654" y="-567.5" font-family="Helvetica,sans-Serif" font-size="10.00">std_expr.h</text>
</a>
</g>
</g>
<!-- Node1&#45;&gt;Node43 -->
<g id="edge53" class="edge">
<title>Node1&#45;&gt;Node43</title>
<path fill="none" stroke="midnightblue" d="M654,-672.29C654,-649.48 654,-612.19 654,-589.78"/>
<polygon fill="midnightblue" stroke="midnightblue" points="657.5,-589.57 654,-579.57 650.5,-589.57 657.5,-589.57"/>
</g>
<!-- Node45 -->
<g id="node29" class="node">
<title>Node45</title>
<g id="a_node29"><a xlink:href="bv__arithmetic_8h.html" target="_top" xlink:title=" ">
<polygon fill="none" stroke="black" points="849.5,-504.5 849.5,-523.5 942.5,-523.5 942.5,-504.5 849.5,-504.5"/>
<text text-anchor="middle" x="896" y="-511.5" font-family="Helvetica,sans-Serif" font-size="10.00">bv_arithmetic.h</text>
</a>
</g>
</g>
<!-- Node1&#45;&gt;Node45 -->
<g id="edge49" class="edge">
<title>Node1&#45;&gt;Node45</title>
<path fill="none" stroke="midnightblue" d="M702.55,-672.38C723.79,-662.79 748.48,-650.25 769,-636 814.64,-604.29 859.74,-556.31 881.89,-531.36"/>
<polygon fill="midnightblue" stroke="midnightblue" points="884.76,-533.39 888.72,-523.56 879.5,-528.77 884.76,-533.39"/>
</g>
<!-- Node47 -->
<g id="node31" class="node">
<title>Node47</title>
<g id="a_node31"><a xlink:href="string2int_8h.html" target="_top" xlink:title=" ">
<polygon fill="none" stroke="black" points="95,-168.5 95,-187.5 167,-187.5 167,-168.5 95,-168.5"/>
<text text-anchor="middle" x="131" y="-175.5" font-family="Helvetica,sans-Serif" font-size="10.00">string2int.h</text>
</a>
</g>
</g>
<!-- Node1&#45;&gt;Node47 -->
<g id="edge54" class="edge">
<title>Node1&#45;&gt;Node47</title>
<path fill="none" stroke="midnightblue" d="M584.94,-686.42C416.82,-671.91 0,-630 0,-571 0,-571 0,-571 0,-401 0,-312.75 77.73,-228.74 113.44,-194.79"/>
<polygon fill="midnightblue" stroke="midnightblue" points="116.21,-196.99 121.15,-187.62 111.45,-191.86 116.21,-196.99"/>
</g>
<!-- Node3 -->
<g id="node3" class="node">
<title>Node3</title>
<g id="a_node3"><a xlink:href="std__types_8h.html" target="_top" xlink:title="Pre&#45;defined types.">
<polygon fill="none" stroke="black" points="534.5,-504.5 534.5,-523.5 607.5,-523.5 607.5,-504.5 534.5,-504.5"/>
<text text-anchor="middle" x="571" y="-511.5" font-family="Helvetica,sans-Serif" font-size="10.00">std_types.h</text>
</a>
</g>
</g>
<!-- Node2&#45;&gt;Node3 -->
<g id="edge2" class="edge">
<title>Node2&#45;&gt;Node3</title>
<path fill="none" stroke="midnightblue" d="M572.84,-616.37C572.52,-598.62 571.78,-557.67 571.34,-533.6"/>
<polygon fill="midnightblue" stroke="midnightblue" points="574.84,-533.53 571.16,-523.59 567.84,-533.65 574.84,-533.53"/>
</g>
<!-- Node4 -->
<g id="node4" class="node">
<title>Node4</title>
<g id="a_node4"><a xlink:href="expr_8h.html" target="_top" xlink:title=" ">
<polygon fill="none" stroke="black" points="347.5,-392.5 347.5,-411.5 394.5,-411.5 394.5,-392.5 347.5,-392.5"/>
<text text-anchor="middle" x="371" y="-399.5" font-family="Helvetica,sans-Serif" font-size="10.00">expr.h</text>
</a>
</g>
</g>
<!-- Node3&#45;&gt;Node4 -->
<g id="edge3" class="edge">
<title>Node3&#45;&gt;Node4</title>
<path fill="none" stroke="midnightblue" d="M552.88,-504.4C534.57,-495.6 505.55,-481.37 481,-468 450.15,-451.2 415.37,-430.31 393.33,-416.82"/>
<polygon fill="midnightblue" stroke="midnightblue" points="395.07,-413.78 384.71,-411.52 391.4,-419.74 395.07,-413.78"/>
</g>
<!-- Node12 -->
<g id="node11" class="node">
<title>Node12</title>
<g id="a_node11"><a xlink:href="src_2util_2invariant_8h.html" target="_top" xlink:title=" ">
<polygon fill="none" stroke="red" points="471.5,-56.5 471.5,-75.5 540.5,-75.5 540.5,-56.5 471.5,-56.5"/>
<text text-anchor="middle" x="506" y="-63.5" font-family="Helvetica,sans-Serif" font-size="10.00">invariant.h</text>
</a>
</g>
</g>
<!-- Node3&#45;&gt;Node12 -->
<g id="edge34" class="edge">
<title>Node3&#45;&gt;Node12</title>
<path fill="none" stroke="midnightblue" d="M585.73,-504.5C598.2,-496.57 615.65,-483.64 626,-468 642.61,-442.9 645,-433.1 645,-403 645,-403 645,-403 645,-233 645,-191.83 610.83,-194.12 579,-168 556.99,-149.94 542.92,-154.9 526,-132 516.02,-118.5 510.96,-99.94 508.43,-86.11"/>
<polygon fill="midnightblue" stroke="midnightblue" points="511.83,-85.17 506.85,-75.82 504.91,-86.24 511.83,-85.17"/>
</g>
<!-- Node32 -->
<g id="node14" class="node">
<title>Node32</title>
<g id="a_node14"><a xlink:href="validate_8h.html" target="_top" xlink:title=" ">
<polygon fill="none" stroke="black" points="493.5,-280.5 493.5,-299.5 558.5,-299.5 558.5,-280.5 493.5,-280.5"/>
<text text-anchor="middle" x="526" y="-287.5" font-family="Helvetica,sans-Serif" font-size="10.00">validate.h</text>
</a>
</g>
</g>
<!-- Node3&#45;&gt;Node32 -->
<g id="edge39" class="edge">
<title>Node3&#45;&gt;Node32</title>
<path fill="none" stroke="midnightblue" d="M553.5,-504.46C540.21,-496.92 522.92,-484.53 515,-468 500.8,-438.37 538.51,-432.22 554,-356 555.77,-347.29 556.44,-344.55 554,-336 551.1,-325.84 545.17,-315.75 539.51,-307.7"/>
<polygon fill="midnightblue" stroke="midnightblue" points="542.22,-305.48 533.41,-299.59 536.62,-309.69 542.22,-305.48"/>
</g>
<!-- Node38 -->
<g id="node20" class="node">
<title>Node38</title>
<g id="a_node20"><a xlink:href="expr__cast_8h.html" target="_top" xlink:title="Templated functions to cast to specific exprt&#45;derived classes.">
<polygon fill="none" stroke="black" points="224.5,-448.5 224.5,-467.5 297.5,-467.5 297.5,-448.5 224.5,-448.5"/>
<text text-anchor="middle" x="261" y="-455.5" font-family="Helvetica,sans-Serif" font-size="10.00">expr_cast.h</text>
</a>
</g>
</g>
<!-- Node3&#45;&gt;Node38 -->
<g id="edge28" class="edge">
<title>Node3&#45;&gt;Node38</title>
<path fill="none" stroke="midnightblue" d="M534.22,-506.59C477.71,-496.75 369.56,-477.91 307.63,-467.12"/>
<polygon fill="midnightblue" stroke="midnightblue" points="308.18,-463.67 297.73,-465.4 306.98,-470.56 308.18,-463.67"/>
</g>
<!-- Node40 -->
<g id="node22" class="node">
<title>Node40</title>
<g id="a_node22"><a xlink:href="mp__arith_8h.html" target="_top" xlink:title=" ">
<polygon fill="none" stroke="black" points="792.5,-448.5 792.5,-467.5 861.5,-467.5 861.5,-448.5 792.5,-448.5"/>
<text text-anchor="middle" x="827" y="-455.5" font-family="Helvetica,sans-Serif" font-size="10.00">mp_arith.h</text>
</a>
</g>
</g>
<!-- Node3&#45;&gt;Node40 -->
<g id="edge35" class="edge">
<title>Node3&#45;&gt;Node40</title>
<path fill="none" stroke="midnightblue" d="M607.68,-505.26C653.85,-495.52 733.11,-478.8 782.65,-468.36"/>
<polygon fill="midnightblue" stroke="midnightblue" points="783.38,-471.78 792.44,-466.29 781.93,-464.93 783.38,-471.78"/>
</g>
<!-- Node23 -->
<g id="node25" class="node">
<title>Node23</title>
<g id="a_node25"><a xlink:title=" ">
<polygon fill="none" stroke="#bfbfbf" points="523.5,-448.5 523.5,-467.5 616.5,-467.5 616.5,-448.5 523.5,-448.5"/>
<text text-anchor="middle" x="570" y="-455.5" font-family="Helvetica,sans-Serif" font-size="10.00">unordered_map</text>
</a>
</g>
</g>
<!-- Node3&#45;&gt;Node23 -->
<g id="edge40" class="edge">
<title>Node3&#45;&gt;Node23</title>
<path fill="none" stroke="midnightblue" d="M570.83,-504.08C570.7,-497.01 570.52,-486.86 570.35,-477.99"/>
<polygon fill="midnightblue" stroke="midnightblue" points="573.85,-477.68 570.16,-467.75 566.85,-477.81 573.85,-477.68"/>
</g>
<!-- Node5 -->
<g id="node5" class="node">
<title>Node5</title>
<g id="a_node5"><a xlink:href="as__const_8h.html" target="_top" xlink:title=" ">
<polygon fill="none" stroke="black" points="373,-336.5 373,-355.5 441,-355.5 441,-336.5 373,-336.5"/>
<text text-anchor="middle" x="407" y="-343.5" font-family="Helvetica,sans-Serif" font-size="10.00">as_const.h</text>
</a>
</g>
</g>
<!-- Node4&#45;&gt;Node5 -->
<g id="edge4" class="edge">
<title>Node4&#45;&gt;Node5</title>
<path fill="none" stroke="midnightblue" d="M376.94,-392.08C381.98,-384.53 389.34,-373.49 395.51,-364.23"/>
<polygon fill="midnightblue" stroke="midnightblue" points="398.53,-366.01 401.17,-355.75 392.71,-362.13 398.53,-366.01"/>
</g>
<!-- Node6 -->
<g id="node6" class="node">
<title>Node6</title>
<g id="a_node6"><a xlink:href="type_8h.html" target="_top" xlink:title="Defines typet, type_with_subtypet and type_with_subtypest.">
<polygon fill="none" stroke="black" points="497.5,-336.5 497.5,-355.5 544.5,-355.5 544.5,-336.5 497.5,-336.5"/>
<text text-anchor="middle" x="521" y="-343.5" font-family="Helvetica,sans-Serif" font-size="10.00">type.h</text>
</a>
</g>
</g>
<!-- Node4&#45;&gt;Node6 -->
<g id="edge5" class="edge">
<title>Node4&#45;&gt;Node6</title>
<path fill="none" stroke="midnightblue" d="M394.77,-392.44C419.89,-383.4 459.71,-369.06 487.9,-358.92"/>
<polygon fill="midnightblue" stroke="midnightblue" points="489.12,-362.2 497.34,-355.52 486.75,-355.61 489.12,-362.2"/>
</g>
<!-- Node34 -->
<g id="node16" class="node">
<title>Node34</title>
<g id="a_node16"><a xlink:href="validation__mode_8h.html" target="_top" xlink:title=" ">
<polygon fill="none" stroke="black" points="247.5,-224.5 247.5,-243.5 354.5,-243.5 354.5,-224.5 247.5,-224.5"/>
<text text-anchor="middle" x="301" y="-231.5" font-family="Helvetica,sans-Serif" font-size="10.00">validation_mode.h</text>
</a>
</g>
</g>
<!-- Node4&#45;&gt;Node34 -->
<g id="edge26" class="edge">
<title>Node4&#45;&gt;Node34</title>
<path fill="none" stroke="midnightblue" d="M394.79,-393.27C424.32,-382.4 468.66,-361.08 450,-336 416.76,-291.33 371.81,-336.77 330,-300 316.25,-287.91 308.7,-268.03 304.78,-253.43"/>
<polygon fill="midnightblue" stroke="midnightblue" points="308.14,-252.45 302.45,-243.52 301.33,-254.05 308.14,-252.45"/>
</g>
<!-- Node35 -->
<g id="node17" class="node">
<title>Node35</title>
<g id="a_node17"><a xlink:href="validate__types_8h.html" target="_top" xlink:title=" ">
<polygon fill="none" stroke="black" points="339,-280.5 339,-299.5 437,-299.5 437,-280.5 339,-280.5"/>
<text text-anchor="middle" x="388" y="-287.5" font-family="Helvetica,sans-Serif" font-size="10.00">validate_types.h</text>
</a>
</g>
</g>
<!-- Node4&#45;&gt;Node35 -->
<g id="edge25" class="edge">
<title>Node4&#45;&gt;Node35</title>
<path fill="none" stroke="midnightblue" d="M368.21,-392.46C364.52,-379.9 359.05,-355.82 364,-336 366.44,-326.25 371.44,-316.29 376.24,-308.23"/>
<polygon fill="midnightblue" stroke="midnightblue" points="379.21,-310.08 381.63,-299.77 373.31,-306.32 379.21,-310.08"/>
</g>
<!-- Node36 -->
<g id="node18" class="node">
<title>Node36</title>
<g id="a_node18"><a xlink:href="validate__expressions_8h.html" target="_top" xlink:title=" ">
<polygon fill="none" stroke="black" points="187.5,-336.5 187.5,-355.5 316.5,-355.5 316.5,-336.5 187.5,-336.5"/>
<text text-anchor="middle" x="252" y="-343.5" font-family="Helvetica,sans-Serif" font-size="10.00">validate_expressions.h</text>
</a>
</g>
</g>
<!-- Node4&#45;&gt;Node36 -->
<g id="edge24" class="edge">
<title>Node4&#45;&gt;Node36</title>
<path fill="none" stroke="midnightblue" d="M352.14,-392.44C332.73,-383.64 302.27,-369.81 280.04,-359.72"/>
<polygon fill="midnightblue" stroke="midnightblue" points="281.32,-356.46 270.77,-355.52 278.43,-362.84 281.32,-356.46"/>
</g>
<!-- Node37 -->
<g id="node19" class="node">
<title>Node37</title>
<g id="a_node19"><a xlink:title=" ">
<polygon fill="none" stroke="#bfbfbf" points="104.5,-336.5 104.5,-355.5 169.5,-355.5 169.5,-336.5 104.5,-336.5"/>
<text text-anchor="middle" x="137" y="-343.5" font-family="Helvetica,sans-Serif" font-size="10.00">functional</text>
</a>
</g>
</g>
<!-- Node4&#45;&gt;Node37 -->
<g id="edge27" class="edge">
<title>Node4&#45;&gt;Node37</title>
<path fill="none" stroke="midnightblue" d="M347.28,-395.53C308.01,-386.46 228.96,-368.22 179.76,-356.87"/>
<polygon fill="midnightblue" stroke="midnightblue" points="180.27,-353.39 169.74,-354.56 178.7,-360.21 180.27,-353.39"/>
</g>
<!-- Node7 -->
<g id="node7" class="node">
<title>Node7</title>
<g id="a_node7"><a xlink:href="source__location_8h.html" target="_top" xlink:title=" ">
<polygon fill="none" stroke="black" points="468,-168.5 468,-187.5 570,-187.5 570,-168.5 468,-168.5"/>
<text text-anchor="middle" x="519" y="-175.5" font-family="Helvetica,sans-Serif" font-size="10.00">source_location.h</text>
</a>
</g>
</g>
<!-- Node6&#45;&gt;Node7 -->
<g id="edge6" class="edge">
<title>Node6&#45;&gt;Node7</title>
<path fill="none" stroke="midnightblue" d="M534.08,-336.32C545.06,-328.27 560.15,-315.27 568,-300 583.52,-269.79 590.81,-254.56 576,-224 569.6,-210.8 557.25,-200.3 545.67,-192.78"/>
<polygon fill="midnightblue" stroke="midnightblue" points="547.45,-189.77 537.08,-187.61 543.84,-195.77 547.45,-189.77"/>
</g>
<!-- Node6&#45;&gt;Node32 -->
<g id="edge15" class="edge">
<title>Node6&#45;&gt;Node32</title>
<path fill="none" stroke="midnightblue" d="M521.83,-336.08C522.48,-329.01 523.42,-318.86 524.24,-309.99"/>
<polygon fill="midnightblue" stroke="midnightblue" points="527.75,-310.03 525.19,-299.75 520.78,-309.39 527.75,-310.03"/>
</g>
<!-- Node6&#45;&gt;Node34 -->
<g id="edge23" class="edge">
<title>Node6&#45;&gt;Node34</title>
<path fill="none" stroke="midnightblue" d="M513.11,-336.12C500.33,-322.25 473.71,-295.41 446,-280 417.46,-264.13 382.58,-253.08 354.19,-245.9"/>
<polygon fill="midnightblue" stroke="midnightblue" points="354.98,-242.49 344.44,-243.52 353.32,-249.29 354.98,-242.49"/>
</g>
<!-- Node6&#45;&gt;Node35 -->
<g id="edge22" class="edge">
<title>Node6&#45;&gt;Node35</title>
<path fill="none" stroke="midnightblue" d="M499.93,-336.44C477.94,-327.52 443.27,-313.44 418.34,-303.32"/>
<polygon fill="midnightblue" stroke="midnightblue" points="419.56,-300.04 408.98,-299.52 416.92,-306.52 419.56,-300.04"/>
</g>
<!-- Node8 -->
<g id="node8" class="node">
<title>Node8</title>
<g id="a_node8"><a xlink:href="deprecate_8h.html" target="_top" xlink:title=" ">
<polygon fill="none" stroke="black" points="405,-112.5 405,-131.5 479,-131.5 479,-112.5 405,-112.5"/>
<text text-anchor="middle" x="442" y="-119.5" font-family="Helvetica,sans-Serif" font-size="10.00">deprecate.h</text>
</a>
</g>
</g>
<!-- Node7&#45;&gt;Node8 -->
<g id="edge7" class="edge">
<title>Node7&#45;&gt;Node8</title>
<path fill="none" stroke="midnightblue" d="M506.63,-168.32C494.84,-160.06 476.87,-147.45 462.86,-137.63"/>
<polygon fill="midnightblue" stroke="midnightblue" points="464.54,-134.53 454.34,-131.65 460.52,-140.26 464.54,-134.53"/>
</g>
<!-- Node9 -->
<g id="node9" class="node">
<title>Node9</title>
<g id="a_node9"><a xlink:href="irep_8h.html" target="_top" xlink:title=" ">
<polygon fill="none" stroke="red" points="535,-112.5 535,-131.5 579,-131.5 579,-112.5 535,-112.5"/>
<text text-anchor="middle" x="557" y="-119.5" font-family="Helvetica,sans-Serif" font-size="10.00">irep.h</text>
</a>
</g>
</g>
<!-- Node7&#45;&gt;Node9 -->
<g id="edge8" class="edge">
<title>Node7&#45;&gt;Node9</title>
<path fill="none" stroke="midnightblue" d="M525.27,-168.08C530.64,-160.46 538.52,-149.26 545.08,-139.94"/>
<polygon fill="midnightblue" stroke="midnightblue" points="547.95,-141.94 550.84,-131.75 542.22,-137.91 547.95,-141.94"/>
</g>
<!-- Node10 -->
<g id="node10" class="node">
<title>Node10</title>
<g id="a_node10"><a xlink:title=" ">
<polygon fill="none" stroke="#bfbfbf" points="566,-0.5 566,-19.5 610,-19.5 610,-0.5 566,-0.5"/>
<text text-anchor="middle" x="588" y="-7.5" font-family="Helvetica,sans-Serif" font-size="10.00">string</text>
</a>
</g>
</g>
<!-- Node7&#45;&gt;Node10 -->
<g id="edge14" class="edge">
<title>Node7&#45;&gt;Node10</title>
<path fill="none" stroke="midnightblue" d="M542.79,-168.5C558.72,-161.41 578.46,-149.61 588,-132 605.61,-99.48 599,-54.47 593.16,-29.52"/>
<polygon fill="midnightblue" stroke="midnightblue" points="596.48,-28.41 590.61,-19.59 589.7,-30.15 596.48,-28.41"/>
</g>
<!-- Node31 -->
<g id="node13" class="node">
<title>Node31</title>
<g id="a_node13"><a xlink:title=" ">
<polygon fill="none" stroke="#bfbfbf" points="255,-112.5 255,-131.5 311,-131.5 311,-112.5 255,-112.5"/>
<text text-anchor="middle" x="283" y="-119.5" font-family="Helvetica,sans-Serif" font-size="10.00">optional</text>
</a>
</g>
</g>
<!-- Node7&#45;&gt;Node31 -->
<g id="edge13" class="edge">
<title>Node7&#45;&gt;Node31</title>
<path fill="none" stroke="midnightblue" d="M481.61,-168.44C437.71,-158.4 365.32,-141.84 321.12,-131.72"/>
<polygon fill="midnightblue" stroke="midnightblue" points="321.86,-128.3 311.33,-129.48 320.3,-135.13 321.86,-128.3"/>
</g>
<!-- Node9&#45;&gt;Node10 -->
<g id="edge9" class="edge">
<title>Node9&#45;&gt;Node10</title>
<path fill="none" stroke="midnightblue" d="M559.43,-112.37C564.46,-94.54 576.08,-53.3 582.85,-29.27"/>
<polygon fill="midnightblue" stroke="midnightblue" points="586.23,-30.17 585.58,-19.59 579.5,-28.27 586.23,-30.17"/>
</g>
<!-- Node9&#45;&gt;Node12 -->
<g id="edge10" class="edge">
<title>Node9&#45;&gt;Node12</title>
<path fill="none" stroke="midnightblue" d="M548.58,-112.08C541.15,-104.22 530.15,-92.57 521.19,-83.08"/>
<polygon fill="midnightblue" stroke="midnightblue" points="523.68,-80.62 514.26,-75.75 518.59,-85.42 523.68,-80.62"/>
</g>
<!-- Node12&#45;&gt;Node10 -->
<g id="edge11" class="edge">
<title>Node12&#45;&gt;Node10</title>
<path fill="none" stroke="midnightblue" d="M519.17,-56.32C531.85,-47.98 551.23,-35.21 566.21,-25.35"/>
<polygon fill="midnightblue" stroke="midnightblue" points="568.43,-28.08 574.86,-19.65 564.58,-22.23 568.43,-28.08"/>
</g>
<!-- Node15 -->
<g id="node12" class="node">
<title>Node15</title>
<g id="a_node12"><a xlink:title=" ">
<polygon fill="none" stroke="#bfbfbf" points="96.5,-0.5 96.5,-19.5 165.5,-19.5 165.5,-0.5 96.5,-0.5"/>
<text text-anchor="middle" x="131" y="-7.5" font-family="Helvetica,sans-Serif" font-size="10.00">type_traits</text>
</a>
</g>
</g>
<!-- Node12&#45;&gt;Node15 -->
<g id="edge12" class="edge">
<title>Node12&#45;&gt;Node15</title>
<path fill="none" stroke="midnightblue" d="M471.39,-60.02C403.16,-50.19 251.36,-28.33 175.68,-17.43"/>
<polygon fill="midnightblue" stroke="midnightblue" points="175.92,-13.93 165.52,-15.97 174.92,-20.86 175.92,-13.93"/>
</g>
<!-- Node32&#45;&gt;Node15 -->
<g id="edge16" class="edge">
<title>Node32&#45;&gt;Node15</title>
<path fill="none" stroke="midnightblue" d="M506.1,-280.37C458.43,-259.19 335.09,-201.28 246,-132 204.64,-99.84 164.34,-52.75 144.23,-27.86"/>
<polygon fill="midnightblue" stroke="midnightblue" points="146.75,-25.4 137.77,-19.77 141.27,-29.77 146.75,-25.4"/>
</g>
<!-- Node33 -->
<g id="node15" class="node">
<title>Node33</title>
<g id="a_node15"><a xlink:href="exception__utils_8h.html" target="_top" xlink:title=" ">
<polygon fill="none" stroke="black" points="467,-224.5 467,-243.5 567,-243.5 567,-224.5 467,-224.5"/>
<text text-anchor="middle" x="517" y="-231.5" font-family="Helvetica,sans-Serif" font-size="10.00">exception_utils.h</text>
</a>
</g>
</g>
<!-- Node32&#45;&gt;Node33 -->
<g id="edge17" class="edge">
<title>Node32&#45;&gt;Node33</title>
<path fill="none" stroke="midnightblue" d="M524.51,-280.08C523.32,-272.93 521.61,-262.64 520.12,-253.69"/>
<polygon fill="midnightblue" stroke="midnightblue" points="523.55,-253.04 518.46,-243.75 516.65,-254.19 523.55,-253.04"/>
</g>
<!-- Node32&#45;&gt;Node34 -->
<g id="edge21" class="edge">
<title>Node32&#45;&gt;Node34</title>
<path fill="none" stroke="midnightblue" d="M493.28,-281.15C454.61,-271.87 390.03,-256.37 346.5,-245.92"/>
<polygon fill="midnightblue" stroke="midnightblue" points="347.27,-242.51 336.73,-243.58 345.64,-249.31 347.27,-242.51"/>
</g>
<!-- Node33&#45;&gt;Node7 -->
<g id="edge20" class="edge">
<title>Node33&#45;&gt;Node7</title>
<path fill="none" stroke="midnightblue" d="M517.33,-224.08C517.59,-217.01 517.97,-206.86 518.3,-197.99"/>
<polygon fill="midnightblue" stroke="midnightblue" points="521.8,-197.87 518.68,-187.75 514.81,-197.61 521.8,-197.87"/>
</g>
<!-- Node33&#45;&gt;Node10 -->
<g id="edge18" class="edge">
<title>Node33&#45;&gt;Node10</title>
<path fill="none" stroke="midnightblue" d="M533.02,-224.48C546.7,-216.54 566.15,-203.61 579,-188 596.44,-166.82 597.43,-158.38 605,-132 614.36,-99.4 620.23,-88.91 612,-56 609.56,-46.25 604.56,-36.29 599.76,-28.23"/>
<polygon fill="midnightblue" stroke="midnightblue" points="602.69,-26.32 594.37,-19.77 596.79,-30.08 602.69,-26.32"/>
</g>
<!-- Node33&#45;&gt;Node12 -->
<g id="edge19" class="edge">
<title>Node33&#45;&gt;Node12</title>
<path fill="none" stroke="midnightblue" d="M498.56,-224.43C470.11,-210.01 416.63,-177.93 396,-132 381.96,-100.74 424.92,-83.54 461.2,-74.81"/>
<polygon fill="midnightblue" stroke="midnightblue" points="462.21,-78.17 471.2,-72.57 460.68,-71.34 462.21,-78.17"/>
</g>
<!-- Node38&#45;&gt;Node4 -->
<g id="edge33" class="edge">
<title>Node38&#45;&gt;Node4</title>
<path fill="none" stroke="midnightblue" d="M278.67,-448.32C296.39,-439.62 323.9,-426.12 344.29,-416.11"/>
<polygon fill="midnightblue" stroke="midnightblue" points="345.94,-419.2 353.37,-411.65 342.85,-412.92 345.94,-419.2"/>
</g>
<!-- Node38&#45;&gt;Node12 -->
<g id="edge32" class="edge">
<title>Node38&#45;&gt;Node12</title>
<path fill="none" stroke="midnightblue" d="M224.96,-448.43C167.83,-432.88 65.8,-395.96 95,-336 169.24,-183.55 376.1,-105.64 464.78,-78.44"/>
<polygon fill="midnightblue" stroke="midnightblue" points="465.92,-81.76 474.49,-75.52 463.91,-75.05 465.92,-81.76"/>
</g>
<!-- Node38&#45;&gt;Node15 -->
<g id="edge30" class="edge">
<title>Node38&#45;&gt;Node15</title>
<path fill="none" stroke="midnightblue" d="M224.22,-455.67C188.98,-452.49 136.36,-442.51 103,-412 40.81,-355.13 35,-319.27 35,-235 35,-235 35,-235 35,-121 35,-77.54 78.06,-42.96 106.5,-24.85"/>
<polygon fill="midnightblue" stroke="midnightblue" points="108.44,-27.77 115.15,-19.56 104.79,-21.79 108.44,-27.77"/>
</g>
<!-- Node38&#45;&gt;Node37 -->
<g id="edge31" class="edge">
<title>Node38&#45;&gt;Node37</title>
<path fill="none" stroke="midnightblue" d="M251.27,-448.37C230.35,-429.81 180.87,-385.91 154.4,-362.44"/>
<polygon fill="midnightblue" stroke="midnightblue" points="156.49,-359.61 146.68,-355.59 151.84,-364.85 156.49,-359.61"/>
</g>
<!-- Node39 -->
<g id="node21" class="node">
<title>Node39</title>
<g id="a_node21"><a xlink:title=" ">
<polygon fill="none" stroke="#bfbfbf" points="232.5,-392.5 232.5,-411.5 289.5,-411.5 289.5,-392.5 232.5,-392.5"/>
<text text-anchor="middle" x="261" y="-399.5" font-family="Helvetica,sans-Serif" font-size="10.00">typeinfo</text>
</a>
</g>
</g>
<!-- Node38&#45;&gt;Node39 -->
<g id="edge29" class="edge">
<title>Node38&#45;&gt;Node39</title>
<path fill="none" stroke="midnightblue" d="M261,-448.08C261,-441.01 261,-430.86 261,-421.99"/>
<polygon fill="midnightblue" stroke="midnightblue" points="264.5,-421.75 261,-411.75 257.5,-421.75 264.5,-421.75"/>
</g>
<!-- Node40&#45;&gt;Node10 -->
<g id="edge37" class="edge">
<title>Node40&#45;&gt;Node10</title>
<path fill="none" stroke="midnightblue" d="M833.12,-448.35C845.21,-430.38 871,-387.31 871,-347 871,-347 871,-347 871,-121 871,-67.74 694.69,-30.03 620.39,-16.5"/>
<polygon fill="midnightblue" stroke="midnightblue" points="620.67,-12.99 610.21,-14.68 619.44,-19.88 620.67,-12.99"/>
</g>
<!-- Node18 -->
<g id="node23" class="node">
<title>Node18</title>
<g id="a_node23"><a xlink:title=" ">
<polygon fill="none" stroke="#bfbfbf" points="899,-392.5 899,-411.5 947,-411.5 947,-392.5 899,-392.5"/>
<text text-anchor="middle" x="923" y="-399.5" font-family="Helvetica,sans-Serif" font-size="10.00">iosfwd</text>
</a>
</g>
</g>
<!-- Node40&#45;&gt;Node18 -->
<g id="edge36" class="edge">
<title>Node40&#45;&gt;Node18</title>
<path fill="none" stroke="midnightblue" d="M842.42,-448.32C857.54,-439.82 880.82,-426.73 898.47,-416.8"/>
<polygon fill="midnightblue" stroke="midnightblue" points="900.61,-419.61 907.61,-411.65 897.18,-413.51 900.61,-419.61"/>
</g>
<!-- Node41 -->
<g id="node24" class="node">
<title>Node41</title>
<g id="a_node24"><a xlink:title=" ">
<polygon fill="none" stroke="#bfbfbf" points="749,-392.5 749,-411.5 843,-411.5 843,-392.5 749,-392.5"/>
<text text-anchor="middle" x="796" y="-399.5" font-family="Helvetica,sans-Serif" font-size="10.00">big&#45;int/bigint.hh</text>
</a>
</g>
</g>
<!-- Node40&#45;&gt;Node41 -->
<g id="edge38" class="edge">
<title>Node40&#45;&gt;Node41</title>
<path fill="none" stroke="midnightblue" d="M821.88,-448.08C817.59,-440.61 811.34,-429.72 806.06,-420.52"/>
<polygon fill="midnightblue" stroke="midnightblue" points="809.04,-418.68 801.02,-411.75 802.97,-422.17 809.04,-418.68"/>
</g>
<!-- Node42&#45;&gt;Node12 -->
<g id="edge42" class="edge">
<title>Node42&#45;&gt;Node12</title>
<path fill="none" stroke="midnightblue" d="M721,-616.44C721,-597.94 721,-552.81 721,-515 721,-515 721,-515 721,-177 721,-101.14 613.61,-77.56 550.62,-70.26"/>
<polygon fill="midnightblue" stroke="midnightblue" points="550.86,-66.77 540.54,-69.19 550.12,-73.73 550.86,-66.77"/>
</g>
<!-- Node42&#45;&gt;Node40 -->
<g id="edge43" class="edge">
<title>Node42&#45;&gt;Node40</title>
<path fill="none" stroke="midnightblue" d="M748.78,-616.38C766.67,-609.4 788.95,-597.76 802,-580 824.47,-549.42 827.82,-503.32 827.75,-477.76"/>
<polygon fill="midnightblue" stroke="midnightblue" points="831.25,-477.51 827.53,-467.58 824.25,-477.66 831.25,-477.51"/>
</g>
<!-- Node42&#45;&gt;Node43 -->
<g id="edge44" class="edge">
<title>Node42&#45;&gt;Node43</title>
<path fill="none" stroke="midnightblue" d="M710.24,-616.32C700.23,-608.26 685.11,-596.08 673.07,-586.37"/>
<polygon fill="midnightblue" stroke="midnightblue" points="674.94,-583.38 664.96,-579.83 670.55,-588.83 674.94,-583.38"/>
</g>
<!-- Node44 -->
<g id="node28" class="node">
<title>Node44</title>
<g id="a_node28"><a xlink:title=" ">
<polygon fill="none" stroke="#bfbfbf" points="749,-560.5 749,-579.5 793,-579.5 793,-560.5 749,-560.5"/>
<text text-anchor="middle" x="771" y="-567.5" font-family="Helvetica,sans-Serif" font-size="10.00">limits</text>
</a>
</g>
</g>
<!-- Node42&#45;&gt;Node44 -->
<g id="edge48" class="edge">
<title>Node42&#45;&gt;Node44</title>
<path fill="none" stroke="midnightblue" d="M729.26,-616.08C736.46,-608.3 747.11,-596.8 755.85,-587.37"/>
<polygon fill="midnightblue" stroke="midnightblue" points="758.67,-589.47 762.9,-579.75 753.53,-584.71 758.67,-589.47"/>
</g>
<!-- Node43&#45;&gt;Node3 -->
<g id="edge47" class="edge">
<title>Node43&#45;&gt;Node3</title>
<path fill="none" stroke="midnightblue" d="M640.66,-560.32C627.84,-551.98 608.22,-539.21 593.06,-529.35"/>
<polygon fill="midnightblue" stroke="midnightblue" points="594.59,-526.17 584.3,-523.65 590.78,-532.04 594.59,-526.17"/>
</g>
<!-- Node43&#45;&gt;Node12 -->
<g id="edge46" class="edge">
<title>Node43&#45;&gt;Node12</title>
<path fill="none" stroke="midnightblue" d="M657.91,-560.36C665.83,-542.07 683,-497.91 683,-459 683,-459 683,-459 683,-177 683,-114.76 603.07,-86.5 550.64,-74.65"/>
<polygon fill="midnightblue" stroke="midnightblue" points="551.06,-71.16 540.55,-72.5 549.6,-78.01 551.06,-71.16"/>
</g>
<!-- Node43&#45;&gt;Node38 -->
<g id="edge45" class="edge">
<title>Node43&#45;&gt;Node38</title>
<path fill="none" stroke="midnightblue" d="M623.49,-560.46C553.33,-540.82 380.51,-492.45 301.54,-470.35"/>
<polygon fill="midnightblue" stroke="midnightblue" points="302.06,-466.86 291.49,-467.53 300.18,-473.6 302.06,-466.86"/>
</g>
<!-- Node45&#45;&gt;Node40 -->
<g id="edge51" class="edge">
<title>Node45&#45;&gt;Node40</title>
<path fill="none" stroke="midnightblue" d="M884.91,-504.32C874.51,-496.18 858.74,-483.84 846.28,-474.09"/>
<polygon fill="midnightblue" stroke="midnightblue" points="848.32,-471.24 838.29,-467.83 844.01,-476.75 848.32,-471.24"/>
</g>
<!-- Node45&#45;&gt;Node18 -->
<g id="edge50" class="edge">
<title>Node45&#45;&gt;Node18</title>
<path fill="none" stroke="midnightblue" d="M898.12,-504.37C902.48,-486.62 912.53,-445.67 918.44,-421.6"/>
<polygon fill="midnightblue" stroke="midnightblue" points="921.91,-422.14 920.89,-411.59 915.11,-420.47 921.91,-422.14"/>
</g>
<!-- Node46 -->
<g id="node30" class="node">
<title>Node46</title>
<g id="a_node30"><a xlink:href="format__spec_8h.html" target="_top" xlink:title=" ">
<polygon fill="none" stroke="black" points="924,-448.5 924,-467.5 1010,-467.5 1010,-448.5 924,-448.5"/>
<text text-anchor="middle" x="967" y="-455.5" font-family="Helvetica,sans-Serif" font-size="10.00">format_spec.h</text>
</a>
</g>
</g>
<!-- Node45&#45;&gt;Node46 -->
<g id="edge52" class="edge">
<title>Node45&#45;&gt;Node46</title>
<path fill="none" stroke="midnightblue" d="M907.41,-504.32C918.11,-496.18 934.34,-483.84 947.16,-474.09"/>
<polygon fill="midnightblue" stroke="midnightblue" points="949.54,-476.67 955.39,-467.83 945.31,-471.1 949.54,-476.67"/>
</g>
<!-- Node47&#45;&gt;Node10 -->
<g id="edge59" class="edge">
<title>Node47&#45;&gt;Node10</title>
<path fill="none" stroke="midnightblue" d="M143.95,-168.37C164.74,-154.84 207.15,-128.46 246,-112 355.93,-65.42 494.31,-31.7 555.9,-17.9"/>
<polygon fill="midnightblue" stroke="midnightblue" points="556.79,-21.29 565.79,-15.71 555.27,-14.46 556.79,-21.29"/>
</g>
<!-- Node47&#45;&gt;Node15 -->
<g id="edge60" class="edge">
<title>Node47&#45;&gt;Node15</title>
<path fill="none" stroke="midnightblue" d="M120.01,-168.37C110.55,-160.17 97.56,-146.92 92,-132 78.31,-95.31 102.34,-51.35 118.37,-27.82"/>
<polygon fill="midnightblue" stroke="midnightblue" points="121.28,-29.78 124.23,-19.6 115.57,-25.72 121.28,-29.78"/>
</g>
<!-- Node47&#45;&gt;Node31 -->
<g id="edge58" class="edge">
<title>Node47&#45;&gt;Node31</title>
<path fill="none" stroke="midnightblue" d="M155.08,-168.44C180.54,-159.4 220.89,-145.06 249.46,-134.92"/>
<polygon fill="midnightblue" stroke="midnightblue" points="250.78,-138.16 259.03,-131.52 248.43,-131.57 250.78,-138.16"/>
</g>
<!-- Node30 -->
<g id="node32" class="node">
<title>Node30</title>
<g id="a_node32"><a xlink:href="narrow_8h.html" target="_top" xlink:title=" ">
<polygon fill="none" stroke="black" points="101.5,-112.5 101.5,-131.5 160.5,-131.5 160.5,-112.5 101.5,-112.5"/>
<text text-anchor="middle" x="131" y="-119.5" font-family="Helvetica,sans-Serif" font-size="10.00">narrow.h</text>
</a>
</g>
</g>
<!-- Node47&#45;&gt;Node30 -->
<g id="edge55" class="edge">
<title>Node47&#45;&gt;Node30</title>
<path fill="none" stroke="midnightblue" d="M131,-168.08C131,-161.01 131,-150.86 131,-141.99"/>
<polygon fill="midnightblue" stroke="midnightblue" points="134.5,-141.75 131,-131.75 127.5,-141.75 134.5,-141.75"/>
</g>
<!-- Node30&#45;&gt;Node12 -->
<g id="edge57" class="edge">
<title>Node30&#45;&gt;Node12</title>
<path fill="none" stroke="midnightblue" d="M160.74,-116.72C226.39,-107.26 384.02,-84.57 461.49,-73.41"/>
<polygon fill="midnightblue" stroke="midnightblue" points="462.03,-76.87 471.43,-71.98 461.03,-69.94 462.03,-76.87"/>
</g>
<!-- Node30&#45;&gt;Node15 -->
<g id="edge56" class="edge">
<title>Node30&#45;&gt;Node15</title>
<path fill="none" stroke="midnightblue" d="M131,-112.37C131,-94.62 131,-53.67 131,-29.6"/>
<polygon fill="midnightblue" stroke="midnightblue" points="134.5,-29.59 131,-19.59 127.5,-29.59 134.5,-29.59"/>
</g>
</g>
</svg>
