<?xml version="1.0" encoding="UTF-8" standalone="no"?>
<!DOCTYPE svg PUBLIC "-//W3C//DTD SVG 1.1//EN"
 "http://www.w3.org/Graphics/SVG/1.1/DTD/svg11.dtd">
<!-- Generated by graphviz version 2.43.0 (0)
 -->
<!-- Title: /home/runner/work/cbmc/cbmc/src/solvers/flattening/bv_utils.h Pages: 1 -->
<svg width="1048pt" height="498pt"
 viewBox="0.00 0.00 1048.00 498.00" xmlns="http://www.w3.org/2000/svg" xmlns:xlink="http://www.w3.org/1999/xlink">
<g id="graph0" class="graph" transform="scale(1 1) rotate(0) translate(4 494)">
<title>/home/runner/work/cbmc/cbmc/src/solvers/flattening/bv_utils.h</title>
<!-- Node1 -->
<g id="node1" class="node">
<title>Node1</title>
<g id="a_node1"><a xlink:title=" ">
<polygon fill="#bfbfbf" stroke="black" points="723.5,-448.5 723.5,-489.5 874.5,-489.5 874.5,-448.5 723.5,-448.5"/>
<text text-anchor="start" x="731.5" y="-477.5" font-family="Helvetica,sans-Serif" font-size="10.00">/home/runner/work/cbmc</text>
<text text-anchor="start" x="731.5" y="-466.5" font-family="Helvetica,sans-Serif" font-size="10.00">/cbmc/src/solvers/flattening</text>
<text text-anchor="middle" x="799" y="-455.5" font-family="Helvetica,sans-Serif" font-size="10.00">/bv_utils.h</text>
</a>
</g>
</g>
<!-- Node2 -->
<g id="node2" class="node">
<title>Node2</title>
<g id="a_node2"><a xlink:href="mp__arith_8h.html" target="_top" xlink:title=" ">
<polygon fill="none" stroke="black" points="925,-112.5 925,-131.5 1013,-131.5 1013,-112.5 925,-112.5"/>
<text text-anchor="middle" x="969" y="-119.5" font-family="Helvetica,sans-Serif" font-size="10.00">util/mp_arith.h</text>
</a>
</g>
</g>
<!-- Node1&#45;&gt;Node2 -->
<g id="edge1" class="edge">
<title>Node1&#45;&gt;Node2</title>
<path fill="none" stroke="midnightblue" d="M869.54,-448.48C916.64,-430.67 970,-399.01 970,-347 970,-347 970,-347 970,-233 970,-200.95 969.57,-163.64 969.27,-141.75"/>
<polygon fill="midnightblue" stroke="midnightblue" points="972.77,-141.51 969.13,-131.56 965.77,-141.61 972.77,-141.51"/>
</g>
<!-- Node6 -->
<g id="node6" class="node">
<title>Node6</title>
<g id="a_node6"><a xlink:href="prop_8h.html" target="_top" xlink:title=" ">
<polygon fill="none" stroke="black" points="573,-392.5 573,-411.5 683,-411.5 683,-392.5 573,-392.5"/>
<text text-anchor="middle" x="628" y="-399.5" font-family="Helvetica,sans-Serif" font-size="10.00">solvers/prop/prop.h</text>
</a>
</g>
</g>
<!-- Node1&#45;&gt;Node6 -->
<g id="edge5" class="edge">
<title>Node1&#45;&gt;Node6</title>
<path fill="none" stroke="midnightblue" d="M747.69,-448.5C719.33,-437.72 684.96,-424.65 660.34,-415.29"/>
<polygon fill="midnightblue" stroke="midnightblue" points="661.35,-411.93 650.76,-411.65 658.87,-418.48 661.35,-411.93"/>
</g>
<!-- Node3 -->
<g id="node3" class="node">
<title>Node3</title>
<g id="a_node3"><a xlink:title=" ">
<polygon fill="none" stroke="#bfbfbf" points="842,-56.5 842,-75.5 890,-75.5 890,-56.5 842,-56.5"/>
<text text-anchor="middle" x="866" y="-63.5" font-family="Helvetica,sans-Serif" font-size="10.00">iosfwd</text>
</a>
</g>
</g>
<!-- Node2&#45;&gt;Node3 -->
<g id="edge2" class="edge">
<title>Node2&#45;&gt;Node3</title>
<path fill="none" stroke="midnightblue" d="M952.45,-112.32C936.01,-103.7 910.57,-90.36 891.53,-80.39"/>
<polygon fill="midnightblue" stroke="midnightblue" points="892.99,-77.2 882.51,-75.65 889.74,-83.4 892.99,-77.2"/>
</g>
<!-- Node4 -->
<g id="node4" class="node">
<title>Node4</title>
<g id="a_node4"><a xlink:title=" ">
<polygon fill="none" stroke="#bfbfbf" points="310,-0.5 310,-19.5 354,-19.5 354,-0.5 310,-0.5"/>
<text text-anchor="middle" x="332" y="-7.5" font-family="Helvetica,sans-Serif" font-size="10.00">string</text>
</a>
</g>
</g>
<!-- Node2&#45;&gt;Node4 -->
<g id="edge3" class="edge">
<title>Node2&#45;&gt;Node4</title>
<path fill="none" stroke="midnightblue" d="M962.85,-112.33C951.92,-97.71 927.55,-68.54 899,-56 802.07,-13.43 469.77,-10.6 364.36,-10.81"/>
<polygon fill="midnightblue" stroke="midnightblue" points="364.03,-7.31 354.04,-10.84 364.05,-14.31 364.03,-7.31"/>
</g>
<!-- Node5 -->
<g id="node5" class="node">
<title>Node5</title>
<g id="a_node5"><a xlink:title=" ">
<polygon fill="none" stroke="#bfbfbf" points="946,-56.5 946,-75.5 1040,-75.5 1040,-56.5 946,-56.5"/>
<text text-anchor="middle" x="993" y="-63.5" font-family="Helvetica,sans-Serif" font-size="10.00">big&#45;int/bigint.hh</text>
</a>
</g>
</g>
<!-- Node2&#45;&gt;Node5 -->
<g id="edge4" class="edge">
<title>Node2&#45;&gt;Node5</title>
<path fill="none" stroke="midnightblue" d="M972.96,-112.08C976.21,-104.77 980.92,-94.18 984.95,-85.1"/>
<polygon fill="midnightblue" stroke="midnightblue" points="988.25,-86.31 989.11,-75.75 981.85,-83.47 988.25,-86.31"/>
</g>
<!-- Node7 -->
<g id="node7" class="node">
<title>Node7</title>
<g id="a_node7"><a xlink:href="src_2util_2message_8h.html" target="_top" xlink:title=" ">
<polygon fill="none" stroke="black" points="583.5,-336.5 583.5,-355.5 672.5,-355.5 672.5,-336.5 583.5,-336.5"/>
<text text-anchor="middle" x="628" y="-343.5" font-family="Helvetica,sans-Serif" font-size="10.00">util/message.h</text>
</a>
</g>
</g>
<!-- Node6&#45;&gt;Node7 -->
<g id="edge6" class="edge">
<title>Node6&#45;&gt;Node7</title>
<path fill="none" stroke="midnightblue" d="M628,-392.08C628,-385.01 628,-374.86 628,-365.99"/>
<polygon fill="midnightblue" stroke="midnightblue" points="631.5,-365.75 628,-355.75 624.5,-365.75 631.5,-365.75"/>
</g>
<!-- Node33 -->
<g id="node26" class="node">
<title>Node33</title>
<g id="a_node26"><a xlink:href="threeval_8h.html" target="_top" xlink:title=" ">
<polygon fill="none" stroke="black" points="856.5,-280.5 856.5,-299.5 941.5,-299.5 941.5,-280.5 856.5,-280.5"/>
<text text-anchor="middle" x="899" y="-287.5" font-family="Helvetica,sans-Serif" font-size="10.00">util/threeval.h</text>
</a>
</g>
</g>
<!-- Node6&#45;&gt;Node33 -->
<g id="edge37" class="edge">
<title>Node6&#45;&gt;Node33</title>
<path fill="none" stroke="midnightblue" d="M649.26,-392.37C697.05,-372.97 813.09,-325.87 868.53,-303.37"/>
<polygon fill="midnightblue" stroke="midnightblue" points="869.88,-306.6 877.83,-299.59 867.25,-300.11 869.88,-306.6"/>
</g>
<!-- Node34 -->
<g id="node27" class="node">
<title>Node34</title>
<g id="a_node27"><a xlink:href="literal_8h.html" target="_top" xlink:title=" ">
<polygon fill="none" stroke="black" points="192,-224.5 192,-243.5 246,-243.5 246,-224.5 192,-224.5"/>
<text text-anchor="middle" x="219" y="-231.5" font-family="Helvetica,sans-Serif" font-size="10.00">literal.h</text>
</a>
</g>
</g>
<!-- Node6&#45;&gt;Node34 -->
<g id="edge39" class="edge">
<title>Node6&#45;&gt;Node34</title>
<path fill="none" stroke="midnightblue" d="M606.87,-392.42C539.42,-365.05 329.02,-279.65 249.69,-247.45"/>
<polygon fill="midnightblue" stroke="midnightblue" points="250.83,-244.14 240.25,-243.62 248.2,-250.63 250.83,-244.14"/>
</g>
<!-- Node35 -->
<g id="node28" class="node">
<title>Node35</title>
<g id="a_node28"><a xlink:title=" ">
<polygon fill="none" stroke="#bfbfbf" points="0,-336.5 0,-355.5 50,-355.5 50,-336.5 0,-336.5"/>
<text text-anchor="middle" x="25" y="-343.5" font-family="Helvetica,sans-Serif" font-size="10.00">cstdint</text>
</a>
</g>
</g>
<!-- Node6&#45;&gt;Node35 -->
<g id="edge43" class="edge">
<title>Node6&#45;&gt;Node35</title>
<path fill="none" stroke="midnightblue" d="M572.85,-399.29C471.53,-395.56 249.17,-384.59 64,-356 62.73,-355.8 61.43,-355.59 60.12,-355.36"/>
<polygon fill="midnightblue" stroke="midnightblue" points="60.56,-351.88 50.07,-353.36 59.2,-358.74 60.56,-351.88"/>
</g>
<!-- Node7&#45;&gt;Node3 -->
<g id="edge8" class="edge">
<title>Node7&#45;&gt;Node3</title>
<path fill="none" stroke="midnightblue" d="M648.17,-336.46C691.46,-317.76 791.21,-272.59 814,-244 852.21,-196.07 862.35,-120.89 865.04,-85.99"/>
<polygon fill="midnightblue" stroke="midnightblue" points="868.54,-85.99 865.69,-75.79 861.56,-85.54 868.54,-85.99"/>
</g>
<!-- Node7&#45;&gt;Node4 -->
<g id="edge10" class="edge">
<title>Node7&#45;&gt;Node4</title>
<path fill="none" stroke="midnightblue" d="M583.41,-344.09C465.41,-340.48 154,-322.65 154,-235 154,-235 154,-235 154,-177 154,-97.8 249.41,-45.59 300.52,-23.31"/>
<polygon fill="midnightblue" stroke="midnightblue" points="301.97,-26.49 309.82,-19.37 299.24,-20.05 301.97,-26.49"/>
</g>
<!-- Node8 -->
<g id="node8" class="node">
<title>Node8</title>
<g id="a_node8"><a xlink:title=" ">
<polygon fill="none" stroke="#bfbfbf" points="773.5,-280.5 773.5,-299.5 838.5,-299.5 838.5,-280.5 773.5,-280.5"/>
<text text-anchor="middle" x="806" y="-287.5" font-family="Helvetica,sans-Serif" font-size="10.00">functional</text>
</a>
</g>
</g>
<!-- Node7&#45;&gt;Node8 -->
<g id="edge7" class="edge">
<title>Node7&#45;&gt;Node8</title>
<path fill="none" stroke="midnightblue" d="M656.2,-336.44C686.41,-327.28 734.51,-312.69 768.03,-302.52"/>
<polygon fill="midnightblue" stroke="midnightblue" points="769.37,-305.77 777.93,-299.52 767.34,-299.07 769.37,-305.77"/>
</g>
<!-- Node9 -->
<g id="node9" class="node">
<title>Node9</title>
<g id="a_node9"><a xlink:title=" ">
<polygon fill="none" stroke="#bfbfbf" points="12,-0.5 12,-19.5 68,-19.5 68,-0.5 12,-0.5"/>
<text text-anchor="middle" x="40" y="-7.5" font-family="Helvetica,sans-Serif" font-size="10.00">sstream</text>
</a>
</g>
</g>
<!-- Node7&#45;&gt;Node9 -->
<g id="edge9" class="edge">
<title>Node7&#45;&gt;Node9</title>
<path fill="none" stroke="midnightblue" d="M583.4,-344.46C475.23,-342.61 201.71,-334.54 118,-300 76.29,-282.79 40,-280.13 40,-235 40,-235 40,-235 40,-121 40,-88.95 40,-51.64 40,-29.75"/>
<polygon fill="midnightblue" stroke="midnightblue" points="43.5,-29.56 40,-19.56 36.5,-29.56 43.5,-29.56"/>
</g>
<!-- Node10 -->
<g id="node10" class="node">
<title>Node10</title>
<g id="a_node10"><a xlink:href="deprecate_8h.html" target="_top" xlink:title=" ">
<polygon fill="none" stroke="black" points="731,-224.5 731,-243.5 805,-243.5 805,-224.5 731,-224.5"/>
<text text-anchor="middle" x="768" y="-231.5" font-family="Helvetica,sans-Serif" font-size="10.00">deprecate.h</text>
</a>
</g>
</g>
<!-- Node7&#45;&gt;Node10 -->
<g id="edge11" class="edge">
<title>Node7&#45;&gt;Node10</title>
<path fill="none" stroke="midnightblue" d="M640.06,-336.17C652.25,-327.19 671.58,-312.82 688,-300 709.42,-283.27 733.58,-263.52 749.69,-250.21"/>
<polygon fill="midnightblue" stroke="midnightblue" points="752.28,-252.62 757.75,-243.54 747.81,-247.22 752.28,-252.62"/>
</g>
<!-- Node11 -->
<g id="node11" class="node">
<title>Node11</title>
<g id="a_node11"><a xlink:href="src_2util_2invariant_8h.html" target="_top" xlink:title=" ">
<polygon fill="none" stroke="black" points="85.5,-56.5 85.5,-75.5 154.5,-75.5 154.5,-56.5 85.5,-56.5"/>
<text text-anchor="middle" x="120" y="-63.5" font-family="Helvetica,sans-Serif" font-size="10.00">invariant.h</text>
</a>
</g>
</g>
<!-- Node7&#45;&gt;Node11 -->
<g id="edge12" class="edge">
<title>Node7&#45;&gt;Node11</title>
<path fill="none" stroke="midnightblue" d="M583.4,-343.57C469.57,-339.56 174.76,-326.67 140,-300 115.57,-281.25 116,-265.8 116,-235 116,-235 116,-235 116,-177 116,-144.93 117.72,-107.63 118.9,-85.74"/>
<polygon fill="midnightblue" stroke="midnightblue" points="122.41,-85.73 119.48,-75.55 115.42,-85.34 122.41,-85.73"/>
</g>
<!-- Node14 -->
<g id="node14" class="node">
<title>Node14</title>
<g id="a_node14"><a xlink:href="source__location_8h.html" target="_top" xlink:title=" ">
<polygon fill="none" stroke="black" points="577,-280.5 577,-299.5 679,-299.5 679,-280.5 577,-280.5"/>
<text text-anchor="middle" x="628" y="-287.5" font-family="Helvetica,sans-Serif" font-size="10.00">source_location.h</text>
</a>
</g>
</g>
<!-- Node7&#45;&gt;Node14 -->
<g id="edge17" class="edge">
<title>Node7&#45;&gt;Node14</title>
<path fill="none" stroke="midnightblue" d="M628,-336.08C628,-329.01 628,-318.86 628,-309.99"/>
<polygon fill="midnightblue" stroke="midnightblue" points="631.5,-309.75 628,-299.75 624.5,-309.75 631.5,-309.75"/>
</g>
<!-- Node11&#45;&gt;Node4 -->
<g id="edge15" class="edge">
<title>Node11&#45;&gt;Node4</title>
<path fill="none" stroke="midnightblue" d="M153.59,-56.44C193.78,-46.21 260.58,-29.19 300.03,-19.14"/>
<polygon fill="midnightblue" stroke="midnightblue" points="301.09,-22.48 309.92,-16.62 299.36,-15.7 301.09,-22.48"/>
</g>
<!-- Node11&#45;&gt;Node9 -->
<g id="edge14" class="edge">
<title>Node11&#45;&gt;Node9</title>
<path fill="none" stroke="midnightblue" d="M107.15,-56.32C94.78,-47.98 75.87,-35.21 61.26,-25.35"/>
<polygon fill="midnightblue" stroke="midnightblue" points="63.07,-22.35 52.82,-19.65 59.15,-28.15 63.07,-22.35"/>
</g>
<!-- Node12 -->
<g id="node12" class="node">
<title>Node12</title>
<g id="a_node12"><a xlink:title=" ">
<polygon fill="none" stroke="#bfbfbf" points="86.5,-0.5 86.5,-19.5 135.5,-19.5 135.5,-0.5 86.5,-0.5"/>
<text text-anchor="middle" x="111" y="-7.5" font-family="Helvetica,sans-Serif" font-size="10.00">cstdlib</text>
</a>
</g>
</g>
<!-- Node11&#45;&gt;Node12 -->
<g id="edge13" class="edge">
<title>Node11&#45;&gt;Node12</title>
<path fill="none" stroke="midnightblue" d="M118.51,-56.08C117.32,-48.93 115.61,-38.64 114.12,-29.69"/>
<polygon fill="midnightblue" stroke="midnightblue" points="117.55,-29.04 112.46,-19.75 110.65,-30.19 117.55,-29.04"/>
</g>
<!-- Node13 -->
<g id="node13" class="node">
<title>Node13</title>
<g id="a_node13"><a xlink:title=" ">
<polygon fill="none" stroke="#bfbfbf" points="153.5,-0.5 153.5,-19.5 222.5,-19.5 222.5,-0.5 153.5,-0.5"/>
<text text-anchor="middle" x="188" y="-7.5" font-family="Helvetica,sans-Serif" font-size="10.00">type_traits</text>
</a>
</g>
</g>
<!-- Node11&#45;&gt;Node13 -->
<g id="edge16" class="edge">
<title>Node11&#45;&gt;Node13</title>
<path fill="none" stroke="midnightblue" d="M130.93,-56.32C141.17,-48.18 156.72,-35.84 169,-26.09"/>
<polygon fill="midnightblue" stroke="midnightblue" points="171.22,-28.79 176.88,-19.83 166.87,-23.31 171.22,-28.79"/>
</g>
<!-- Node14&#45;&gt;Node4 -->
<g id="edge36" class="edge">
<title>Node14&#45;&gt;Node4</title>
<path fill="none" stroke="midnightblue" d="M628.77,-280.12C630.32,-266.7 634.91,-241.04 648,-224 698.04,-158.86 846.52,-175.97 795,-112 740.47,-44.29 460.39,-19.54 364.36,-12.97"/>
<polygon fill="midnightblue" stroke="midnightblue" points="364.31,-9.45 354.1,-12.29 363.84,-16.44 364.31,-9.45"/>
</g>
<!-- Node14&#45;&gt;Node10 -->
<g id="edge18" class="edge">
<title>Node14&#45;&gt;Node10</title>
<path fill="none" stroke="midnightblue" d="M650.18,-280.44C673.43,-271.48 710.15,-257.31 736.42,-247.18"/>
<polygon fill="midnightblue" stroke="midnightblue" points="737.85,-250.38 745.92,-243.52 735.33,-243.85 737.85,-250.38"/>
</g>
<!-- Node15 -->
<g id="node15" class="node">
<title>Node15</title>
<g id="a_node15"><a xlink:href="irep_8h.html" target="_top" xlink:title=" ">
<polygon fill="none" stroke="black" points="380,-224.5 380,-243.5 424,-243.5 424,-224.5 380,-224.5"/>
<text text-anchor="middle" x="402" y="-231.5" font-family="Helvetica,sans-Serif" font-size="10.00">irep.h</text>
</a>
</g>
</g>
<!-- Node14&#45;&gt;Node15 -->
<g id="edge19" class="edge">
<title>Node14&#45;&gt;Node15</title>
<path fill="none" stroke="midnightblue" d="M592.19,-280.44C548.7,-270.05 476,-252.68 434.21,-242.7"/>
<polygon fill="midnightblue" stroke="midnightblue" points="434.82,-239.24 424.28,-240.32 433.2,-246.05 434.82,-239.24"/>
</g>
<!-- Node32 -->
<g id="node25" class="node">
<title>Node32</title>
<g id="a_node25"><a xlink:title=" ">
<polygon fill="none" stroke="#bfbfbf" points="657,-224.5 657,-243.5 713,-243.5 713,-224.5 657,-224.5"/>
<text text-anchor="middle" x="685" y="-231.5" font-family="Helvetica,sans-Serif" font-size="10.00">optional</text>
</a>
</g>
</g>
<!-- Node14&#45;&gt;Node32 -->
<g id="edge35" class="edge">
<title>Node14&#45;&gt;Node32</title>
<path fill="none" stroke="midnightblue" d="M637.16,-280.32C645.5,-272.42 658.03,-260.55 668.18,-250.94"/>
<polygon fill="midnightblue" stroke="midnightblue" points="670.82,-253.25 675.68,-243.83 666.01,-248.17 670.82,-253.25"/>
</g>
<!-- Node15&#45;&gt;Node4 -->
<g id="edge20" class="edge">
<title>Node15&#45;&gt;Node4</title>
<path fill="none" stroke="midnightblue" d="M392.61,-224.4C375.75,-208.26 340.91,-171.46 328,-132 316.66,-97.34 322.53,-54.07 327.49,-29.79"/>
<polygon fill="midnightblue" stroke="midnightblue" points="330.96,-30.32 329.71,-19.8 324.13,-28.8 330.96,-30.32"/>
</g>
<!-- Node15&#45;&gt;Node11 -->
<g id="edge22" class="edge">
<title>Node15&#45;&gt;Node11</title>
<path fill="none" stroke="midnightblue" d="M392.49,-224.33C377.17,-210.74 345.63,-184.29 315,-168 272.19,-145.22 255.11,-154.21 212,-132 184.51,-117.84 155.88,-96.37 138.01,-82.03"/>
<polygon fill="midnightblue" stroke="midnightblue" points="140.11,-79.23 130.15,-75.62 135.69,-84.65 140.11,-79.23"/>
</g>
<!-- Node16 -->
<g id="node16" class="node">
<title>Node16</title>
<g id="a_node16"><a xlink:title=" ">
<polygon fill="none" stroke="#bfbfbf" points="258.5,-168.5 258.5,-187.5 305.5,-187.5 305.5,-168.5 258.5,-168.5"/>
<text text-anchor="middle" x="282" y="-175.5" font-family="Helvetica,sans-Serif" font-size="10.00">vector</text>
</a>
</g>
</g>
<!-- Node15&#45;&gt;Node16 -->
<g id="edge21" class="edge">
<title>Node15&#45;&gt;Node16</title>
<path fill="none" stroke="midnightblue" d="M382.99,-224.44C363.41,-215.64 332.69,-201.81 310.27,-191.72"/>
<polygon fill="midnightblue" stroke="midnightblue" points="311.48,-188.43 300.93,-187.52 308.61,-194.81 311.48,-188.43"/>
</g>
<!-- Node17 -->
<g id="node17" class="node">
<title>Node17</title>
<g id="a_node17"><a xlink:href="irep__ids_8h.html" target="_top" xlink:title="util">
<polygon fill="none" stroke="black" points="400,-168.5 400,-187.5 464,-187.5 464,-168.5 400,-168.5"/>
<text text-anchor="middle" x="432" y="-175.5" font-family="Helvetica,sans-Serif" font-size="10.00">irep_ids.h</text>
</a>
</g>
</g>
<!-- Node15&#45;&gt;Node17 -->
<g id="edge23" class="edge">
<title>Node15&#45;&gt;Node17</title>
<path fill="none" stroke="midnightblue" d="M406.95,-224.08C411.1,-216.61 417.15,-205.72 422.27,-196.52"/>
<polygon fill="midnightblue" stroke="midnightblue" points="425.34,-198.19 427.14,-187.75 419.22,-194.79 425.34,-198.19"/>
</g>
<!-- Node27 -->
<g id="node20" class="node">
<title>Node27</title>
<g id="a_node20"><a xlink:href="forward__list__as__map_8h.html" target="_top" xlink:title=" ">
<polygon fill="none" stroke="black" points="517.5,-168.5 517.5,-187.5 644.5,-187.5 644.5,-168.5 517.5,-168.5"/>
<text text-anchor="middle" x="581" y="-175.5" font-family="Helvetica,sans-Serif" font-size="10.00">forward_list_as_map.h</text>
</a>
</g>
</g>
<!-- Node15&#45;&gt;Node27 -->
<g id="edge28" class="edge">
<title>Node15&#45;&gt;Node27</title>
<path fill="none" stroke="midnightblue" d="M424.31,-226.27C454.03,-217.3 507.06,-201.3 543.12,-190.43"/>
<polygon fill="midnightblue" stroke="midnightblue" points="544.24,-193.75 552.8,-187.51 542.22,-187.04 544.24,-193.75"/>
</g>
<!-- Node18 -->
<g id="node18" class="node">
<title>Node18</title>
<g id="a_node18"><a xlink:href="dstring_8h.html" target="_top" xlink:title="Container for C&#45;Strings.">
<polygon fill="none" stroke="red" points="336.5,-112.5 336.5,-131.5 395.5,-131.5 395.5,-112.5 336.5,-112.5"/>
<text text-anchor="middle" x="366" y="-119.5" font-family="Helvetica,sans-Serif" font-size="10.00">dstring.h</text>
</a>
</g>
</g>
<!-- Node17&#45;&gt;Node18 -->
<g id="edge24" class="edge">
<title>Node17&#45;&gt;Node18</title>
<path fill="none" stroke="midnightblue" d="M421.4,-168.32C411.54,-160.26 396.65,-148.08 384.78,-138.37"/>
<polygon fill="midnightblue" stroke="midnightblue" points="386.75,-135.46 376.8,-131.83 382.32,-140.88 386.75,-135.46"/>
</g>
<!-- Node26 -->
<g id="node19" class="node">
<title>Node26</title>
<g id="a_node19"><a xlink:title=" ">
<polygon fill="none" stroke="#bfbfbf" points="452,-112.5 452,-131.5 526,-131.5 526,-112.5 452,-112.5"/>
<text text-anchor="middle" x="489" y="-119.5" font-family="Helvetica,sans-Serif" font-size="10.00">irep_ids.def</text>
</a>
</g>
</g>
<!-- Node17&#45;&gt;Node26 -->
<g id="edge27" class="edge">
<title>Node17&#45;&gt;Node26</title>
<path fill="none" stroke="midnightblue" d="M441.16,-168.32C449.5,-160.42 462.03,-148.55 472.18,-138.94"/>
<polygon fill="midnightblue" stroke="midnightblue" points="474.82,-141.25 479.68,-131.83 470.01,-136.17 474.82,-141.25"/>
</g>
<!-- Node18&#45;&gt;Node3 -->
<g id="edge25" class="edge">
<title>Node18&#45;&gt;Node3</title>
<path fill="none" stroke="midnightblue" d="M395.75,-114.48C400.5,-113.57 405.37,-112.7 410,-112 566.63,-88.32 755.5,-74.25 831.68,-69.17"/>
<polygon fill="midnightblue" stroke="midnightblue" points="831.92,-72.66 841.67,-68.51 831.46,-65.68 831.92,-72.66"/>
</g>
<!-- Node18&#45;&gt;Node4 -->
<g id="edge26" class="edge">
<title>Node18&#45;&gt;Node4</title>
<path fill="none" stroke="midnightblue" d="M363.33,-112.37C357.82,-94.54 345.07,-53.3 337.65,-29.27"/>
<polygon fill="midnightblue" stroke="midnightblue" points="340.95,-28.11 334.66,-19.59 334.26,-30.18 340.95,-28.11"/>
</g>
<!-- Node28 -->
<g id="node21" class="node">
<title>Node28</title>
<g id="a_node21"><a xlink:title=" ">
<polygon fill="none" stroke="#bfbfbf" points="722,-112.5 722,-131.5 786,-131.5 786,-112.5 722,-112.5"/>
<text text-anchor="middle" x="754" y="-119.5" font-family="Helvetica,sans-Serif" font-size="10.00">algorithm</text>
</a>
</g>
</g>
<!-- Node27&#45;&gt;Node28 -->
<g id="edge29" class="edge">
<title>Node27&#45;&gt;Node28</title>
<path fill="none" stroke="midnightblue" d="M608.41,-168.44C637.77,-159.28 684.52,-144.69 717.1,-134.52"/>
<polygon fill="midnightblue" stroke="midnightblue" points="718.21,-137.84 726.72,-131.52 716.13,-131.16 718.21,-137.84"/>
</g>
<!-- Node29 -->
<g id="node22" class="node">
<title>Node29</title>
<g id="a_node22"><a xlink:title=" ">
<polygon fill="none" stroke="#bfbfbf" points="544,-112.5 544,-131.5 618,-131.5 618,-112.5 544,-112.5"/>
<text text-anchor="middle" x="581" y="-119.5" font-family="Helvetica,sans-Serif" font-size="10.00">forward_list</text>
</a>
</g>
</g>
<!-- Node27&#45;&gt;Node29 -->
<g id="edge30" class="edge">
<title>Node27&#45;&gt;Node29</title>
<path fill="none" stroke="midnightblue" d="M581,-168.08C581,-161.01 581,-150.86 581,-141.99"/>
<polygon fill="midnightblue" stroke="midnightblue" points="584.5,-141.75 581,-131.75 577.5,-141.75 584.5,-141.75"/>
</g>
<!-- Node30 -->
<g id="node23" class="node">
<title>Node30</title>
<g id="a_node23"><a xlink:href="as__const_8h.html" target="_top" xlink:title=" ">
<polygon fill="none" stroke="black" points="636,-112.5 636,-131.5 704,-131.5 704,-112.5 636,-112.5"/>
<text text-anchor="middle" x="670" y="-119.5" font-family="Helvetica,sans-Serif" font-size="10.00">as_const.h</text>
</a>
</g>
</g>
<!-- Node27&#45;&gt;Node30 -->
<g id="edge31" class="edge">
<title>Node27&#45;&gt;Node30</title>
<path fill="none" stroke="midnightblue" d="M595.3,-168.32C609.18,-159.9 630.49,-146.97 646.8,-137.07"/>
<polygon fill="midnightblue" stroke="midnightblue" points="649,-139.83 655.74,-131.65 645.37,-133.85 649,-139.83"/>
</g>
<!-- Node31 -->
<g id="node24" class="node">
<title>Node31</title>
<g id="a_node24"><a xlink:href="narrow_8h.html" target="_top" xlink:title=" ">
<polygon fill="none" stroke="black" points="220.5,-112.5 220.5,-131.5 279.5,-131.5 279.5,-112.5 220.5,-112.5"/>
<text text-anchor="middle" x="250" y="-119.5" font-family="Helvetica,sans-Serif" font-size="10.00">narrow.h</text>
</a>
</g>
</g>
<!-- Node27&#45;&gt;Node31 -->
<g id="edge32" class="edge">
<title>Node27&#45;&gt;Node31</title>
<path fill="none" stroke="midnightblue" d="M528.55,-168.44C462.17,-157.61 349.32,-139.2 289.67,-129.47"/>
<polygon fill="midnightblue" stroke="midnightblue" points="289.95,-125.97 279.52,-127.82 288.83,-132.88 289.95,-125.97"/>
</g>
<!-- Node31&#45;&gt;Node11 -->
<g id="edge34" class="edge">
<title>Node31&#45;&gt;Node11</title>
<path fill="none" stroke="midnightblue" d="M229.4,-112.44C208.01,-103.56 174.32,-89.56 149.98,-79.45"/>
<polygon fill="midnightblue" stroke="midnightblue" points="151.08,-76.12 140.5,-75.52 148.39,-82.58 151.08,-76.12"/>
</g>
<!-- Node31&#45;&gt;Node13 -->
<g id="edge33" class="edge">
<title>Node31&#45;&gt;Node13</title>
<path fill="none" stroke="midnightblue" d="M245.13,-112.37C234.95,-94.3 211.21,-52.18 197.76,-28.31"/>
<polygon fill="midnightblue" stroke="midnightblue" points="200.8,-26.58 192.84,-19.59 194.7,-30.02 200.8,-26.58"/>
</g>
<!-- Node33&#45;&gt;Node3 -->
<g id="edge38" class="edge">
<title>Node33&#45;&gt;Node3</title>
<path fill="none" stroke="midnightblue" d="M897.71,-280.3C892.85,-247.63 875.64,-131.87 868.82,-85.96"/>
<polygon fill="midnightblue" stroke="midnightblue" points="872.25,-85.26 867.32,-75.88 865.33,-86.29 872.25,-85.26"/>
</g>
<!-- Node34&#45;&gt;Node3 -->
<g id="edge40" class="edge">
<title>Node34&#45;&gt;Node3</title>
<path fill="none" stroke="midnightblue" d="M220.62,-224.35C223.72,-210.28 231.87,-182.57 250,-168 305.13,-123.7 338.72,-156.67 405,-132 422.89,-125.34 424.74,-117.55 443,-112 582.45,-69.59 758.31,-65.83 831.54,-66.33"/>
<polygon fill="midnightblue" stroke="midnightblue" points="831.96,-69.83 841.99,-66.43 832.03,-62.83 831.96,-69.83"/>
</g>
<!-- Node34&#45;&gt;Node16 -->
<g id="edge42" class="edge">
<title>Node34&#45;&gt;Node16</title>
<path fill="none" stroke="midnightblue" d="M229.12,-224.32C238.53,-216.26 252.74,-204.08 264.07,-194.37"/>
<polygon fill="midnightblue" stroke="midnightblue" points="266.38,-197 271.69,-187.83 261.82,-191.68 266.38,-197"/>
</g>
<!-- Node34&#45;&gt;Node31 -->
<g id="edge41" class="edge">
<title>Node34&#45;&gt;Node31</title>
<path fill="none" stroke="midnightblue" d="M216.65,-224.31C213.64,-211.58 209.54,-187.28 216,-168 219.6,-157.25 226.9,-147.02 233.82,-139.04"/>
<polygon fill="midnightblue" stroke="midnightblue" points="236.48,-141.32 240.71,-131.61 231.35,-136.56 236.48,-141.32"/>
</g>
</g>
</svg>
