<?xml version="1.0" encoding="UTF-8" standalone="no"?>
<!DOCTYPE svg PUBLIC "-//W3C//DTD SVG 1.1//EN"
 "http://www.w3.org/Graphics/SVG/1.1/DTD/svg11.dtd">
<!-- Generated by graphviz version 2.43.0 (0)
 -->
<!-- Title: /home/runner/work/cbmc/cbmc/src/util/byte_operators.h Pages: 1 -->
<svg width="876pt" height="655pt"
 viewBox="0.00 0.00 876.00 655.00" xmlns="http://www.w3.org/2000/svg" xmlns:xlink="http://www.w3.org/1999/xlink">
<g id="graph0" class="graph" transform="scale(1 1) rotate(0) translate(4 651)">
<title>/home/runner/work/cbmc/cbmc/src/util/byte_operators.h</title>
<!-- Node1 -->
<g id="node1" class="node">
<title>Node1</title>
<g id="a_node1"><a xlink:title="Expression classes for byte&#45;level operators.">
<polygon fill="#bfbfbf" stroke="black" points="633.5,-616.5 633.5,-646.5 800.5,-646.5 800.5,-616.5 633.5,-616.5"/>
<text text-anchor="start" x="641.5" y="-634.5" font-family="Helvetica,sans-Serif" font-size="10.00">/home/runner/work/cbmc</text>
<text text-anchor="middle" x="717" y="-623.5" font-family="Helvetica,sans-Serif" font-size="10.00">/cbmc/src/util/byte_operators.h</text>
</a>
</g>
</g>
<!-- Node2 -->
<g id="node2" class="node">
<title>Node2</title>
<g id="a_node2"><a xlink:href="src_2util_2invariant_8h.html" target="_top" xlink:title=" ">
<polygon fill="none" stroke="black" points="519.5,-56.5 519.5,-75.5 588.5,-75.5 588.5,-56.5 519.5,-56.5"/>
<text text-anchor="middle" x="554" y="-63.5" font-family="Helvetica,sans-Serif" font-size="10.00">invariant.h</text>
</a>
</g>
</g>
<!-- Node1&#45;&gt;Node2 -->
<g id="edge1" class="edge">
<title>Node1&#45;&gt;Node2</title>
<path fill="none" stroke="midnightblue" d="M764.36,-616.39C808.65,-599.92 868,-567.97 868,-515 868,-515 868,-515 868,-177 868,-137.68 842.5,-130.86 808,-112 741.51,-75.64 651.94,-67.69 598.85,-66.47"/>
<polygon fill="midnightblue" stroke="midnightblue" points="598.79,-62.97 588.74,-66.31 598.68,-69.97 598.79,-62.97"/>
</g>
<!-- Node7 -->
<g id="node7" class="node">
<title>Node7</title>
<g id="a_node7"><a xlink:href="std__expr_8h.html" target="_top" xlink:title=" ">
<polygon fill="none" stroke="black" points="652.5,-560.5 652.5,-579.5 719.5,-579.5 719.5,-560.5 652.5,-560.5"/>
<text text-anchor="middle" x="686" y="-567.5" font-family="Helvetica,sans-Serif" font-size="10.00">std_expr.h</text>
</a>
</g>
</g>
<!-- Node1&#45;&gt;Node7 -->
<g id="edge6" class="edge">
<title>Node1&#45;&gt;Node7</title>
<path fill="none" stroke="midnightblue" d="M709.65,-616.4C705.33,-608.11 699.83,-597.55 695.23,-588.71"/>
<polygon fill="midnightblue" stroke="midnightblue" points="698.24,-586.91 690.51,-579.66 692.03,-590.14 698.24,-586.91"/>
</g>
<!-- Node3 -->
<g id="node3" class="node">
<title>Node3</title>
<g id="a_node3"><a xlink:title=" ">
<polygon fill="none" stroke="#bfbfbf" points="564.5,-0.5 564.5,-19.5 613.5,-19.5 613.5,-0.5 564.5,-0.5"/>
<text text-anchor="middle" x="589" y="-7.5" font-family="Helvetica,sans-Serif" font-size="10.00">cstdlib</text>
</a>
</g>
</g>
<!-- Node2&#45;&gt;Node3 -->
<g id="edge2" class="edge">
<title>Node2&#45;&gt;Node3</title>
<path fill="none" stroke="midnightblue" d="M559.78,-56.08C564.67,-48.53 571.83,-37.49 577.83,-28.23"/>
<polygon fill="midnightblue" stroke="midnightblue" points="580.83,-30.05 583.33,-19.75 574.95,-26.24 580.83,-30.05"/>
</g>
<!-- Node4 -->
<g id="node4" class="node">
<title>Node4</title>
<g id="a_node4"><a xlink:title=" ">
<polygon fill="none" stroke="#bfbfbf" points="490,-0.5 490,-19.5 546,-19.5 546,-0.5 490,-0.5"/>
<text text-anchor="middle" x="518" y="-7.5" font-family="Helvetica,sans-Serif" font-size="10.00">sstream</text>
</a>
</g>
</g>
<!-- Node2&#45;&gt;Node4 -->
<g id="edge3" class="edge">
<title>Node2&#45;&gt;Node4</title>
<path fill="none" stroke="midnightblue" d="M548.06,-56.08C543.02,-48.53 535.66,-37.49 529.49,-28.23"/>
<polygon fill="midnightblue" stroke="midnightblue" points="532.29,-26.13 523.83,-19.75 526.47,-30.01 532.29,-26.13"/>
</g>
<!-- Node5 -->
<g id="node5" class="node">
<title>Node5</title>
<g id="a_node5"><a xlink:title=" ">
<polygon fill="none" stroke="#bfbfbf" points="237,-0.5 237,-19.5 281,-19.5 281,-0.5 237,-0.5"/>
<text text-anchor="middle" x="259" y="-7.5" font-family="Helvetica,sans-Serif" font-size="10.00">string</text>
</a>
</g>
</g>
<!-- Node2&#45;&gt;Node5 -->
<g id="edge4" class="edge">
<title>Node2&#45;&gt;Node5</title>
<path fill="none" stroke="midnightblue" d="M519.29,-58.65C461.63,-48.09 346.92,-27.09 291.06,-16.87"/>
<polygon fill="midnightblue" stroke="midnightblue" points="291.49,-13.39 281.02,-15.03 290.23,-20.27 291.49,-13.39"/>
</g>
<!-- Node6 -->
<g id="node6" class="node">
<title>Node6</title>
<g id="a_node6"><a xlink:title=" ">
<polygon fill="none" stroke="#bfbfbf" points="3.5,-0.5 3.5,-19.5 72.5,-19.5 72.5,-0.5 3.5,-0.5"/>
<text text-anchor="middle" x="38" y="-7.5" font-family="Helvetica,sans-Serif" font-size="10.00">type_traits</text>
</a>
</g>
</g>
<!-- Node2&#45;&gt;Node6 -->
<g id="edge5" class="edge">
<title>Node2&#45;&gt;Node6</title>
<path fill="none" stroke="midnightblue" d="M519.34,-61.37C428.55,-51.87 183.84,-26.26 82.69,-15.68"/>
<polygon fill="midnightblue" stroke="midnightblue" points="82.82,-12.17 72.51,-14.61 82.09,-19.13 82.82,-12.17"/>
</g>
<!-- Node7&#45;&gt;Node2 -->
<g id="edge35" class="edge">
<title>Node7&#45;&gt;Node2</title>
<path fill="none" stroke="midnightblue" d="M717.25,-560.42C759.6,-546.66 830,-515.31 830,-459 830,-459 830,-459 830,-177 830,-140.55 810.96,-131.23 780,-112 724.28,-77.39 647.22,-68.65 599.02,-66.85"/>
<polygon fill="midnightblue" stroke="midnightblue" points="598.99,-63.34 588.89,-66.55 598.79,-70.34 598.99,-63.34"/>
</g>
<!-- Node8 -->
<g id="node8" class="node">
<title>Node8</title>
<g id="a_node8"><a xlink:href="expr__cast_8h.html" target="_top" xlink:title="Templated functions to cast to specific exprt&#45;derived classes.">
<polygon fill="none" stroke="black" points="295.5,-448.5 295.5,-467.5 368.5,-467.5 368.5,-448.5 295.5,-448.5"/>
<text text-anchor="middle" x="332" y="-455.5" font-family="Helvetica,sans-Serif" font-size="10.00">expr_cast.h</text>
</a>
</g>
</g>
<!-- Node7&#45;&gt;Node8 -->
<g id="edge7" class="edge">
<title>Node7&#45;&gt;Node8</title>
<path fill="none" stroke="midnightblue" d="M652.18,-564.25C609.65,-557.74 534.71,-544.45 473,-524 430.66,-509.96 384.14,-486.91 356.53,-472.37"/>
<polygon fill="midnightblue" stroke="midnightblue" points="358.07,-469.22 347.6,-467.61 354.78,-475.4 358.07,-469.22"/>
</g>
<!-- Node40 -->
<g id="node23" class="node">
<title>Node40</title>
<g id="a_node23"><a xlink:href="std__types_8h.html" target="_top" xlink:title=" ">
<polygon fill="none" stroke="black" points="481.5,-504.5 481.5,-523.5 554.5,-523.5 554.5,-504.5 481.5,-504.5"/>
<text text-anchor="middle" x="518" y="-511.5" font-family="Helvetica,sans-Serif" font-size="10.00">std_types.h</text>
</a>
</g>
</g>
<!-- Node7&#45;&gt;Node40 -->
<g id="edge36" class="edge">
<title>Node7&#45;&gt;Node40</title>
<path fill="none" stroke="midnightblue" d="M659.38,-560.44C630.99,-551.32 585.86,-536.81 554.25,-526.65"/>
<polygon fill="midnightblue" stroke="midnightblue" points="555.09,-523.24 544.5,-523.52 552.94,-529.91 555.09,-523.24"/>
</g>
<!-- Node8&#45;&gt;Node2 -->
<g id="edge11" class="edge">
<title>Node8&#45;&gt;Node2</title>
<path fill="none" stroke="midnightblue" d="M360.87,-448.41C399.8,-435.24 468.24,-406.16 503,-356 562.91,-269.54 559.36,-134.58 555.74,-85.57"/>
<polygon fill="midnightblue" stroke="midnightblue" points="559.22,-85.19 554.9,-75.51 552.25,-85.77 559.22,-85.19"/>
</g>
<!-- Node8&#45;&gt;Node6 -->
<g id="edge9" class="edge">
<title>Node8&#45;&gt;Node6</title>
<path fill="none" stroke="midnightblue" d="M295.2,-452.73C208.76,-441.69 0,-408.63 0,-347 0,-347 0,-347 0,-121 0,-86.81 16.6,-49.76 27.86,-28.57"/>
<polygon fill="midnightblue" stroke="midnightblue" points="30.95,-30.22 32.72,-19.77 24.82,-26.83 30.95,-30.22"/>
</g>
<!-- Node9 -->
<g id="node9" class="node">
<title>Node9</title>
<g id="a_node9"><a xlink:title=" ">
<polygon fill="none" stroke="#bfbfbf" points="194.5,-392.5 194.5,-411.5 251.5,-411.5 251.5,-392.5 194.5,-392.5"/>
<text text-anchor="middle" x="223" y="-399.5" font-family="Helvetica,sans-Serif" font-size="10.00">typeinfo</text>
</a>
</g>
</g>
<!-- Node8&#45;&gt;Node9 -->
<g id="edge8" class="edge">
<title>Node8&#45;&gt;Node9</title>
<path fill="none" stroke="midnightblue" d="M314.49,-448.32C296.93,-439.62 269.67,-426.12 249.47,-416.11"/>
<polygon fill="midnightblue" stroke="midnightblue" points="250.98,-412.96 240.47,-411.65 247.88,-419.23 250.98,-412.96"/>
</g>
<!-- Node10 -->
<g id="node10" class="node">
<title>Node10</title>
<g id="a_node10"><a xlink:title=" ">
<polygon fill="none" stroke="#bfbfbf" points="75.5,-336.5 75.5,-355.5 140.5,-355.5 140.5,-336.5 75.5,-336.5"/>
<text text-anchor="middle" x="108" y="-343.5" font-family="Helvetica,sans-Serif" font-size="10.00">functional</text>
</a>
</g>
</g>
<!-- Node8&#45;&gt;Node10 -->
<g id="edge10" class="edge">
<title>Node8&#45;&gt;Node10</title>
<path fill="none" stroke="midnightblue" d="M324.67,-448.05C312.74,-434.08 287.78,-407.11 261,-392 242.07,-381.32 188.83,-366.82 150.47,-357.2"/>
<polygon fill="midnightblue" stroke="midnightblue" points="151.13,-353.75 140.58,-354.74 149.44,-360.55 151.13,-353.75"/>
</g>
<!-- Node11 -->
<g id="node11" class="node">
<title>Node11</title>
<g id="a_node11"><a xlink:href="expr_8h.html" target="_top" xlink:title=" ">
<polygon fill="none" stroke="black" points="308.5,-392.5 308.5,-411.5 355.5,-411.5 355.5,-392.5 308.5,-392.5"/>
<text text-anchor="middle" x="332" y="-399.5" font-family="Helvetica,sans-Serif" font-size="10.00">expr.h</text>
</a>
</g>
</g>
<!-- Node8&#45;&gt;Node11 -->
<g id="edge12" class="edge">
<title>Node8&#45;&gt;Node11</title>
<path fill="none" stroke="midnightblue" d="M332,-448.08C332,-441.01 332,-430.86 332,-421.99"/>
<polygon fill="midnightblue" stroke="midnightblue" points="335.5,-421.75 332,-411.75 328.5,-421.75 335.5,-421.75"/>
</g>
<!-- Node11&#45;&gt;Node10 -->
<g id="edge34" class="edge">
<title>Node11&#45;&gt;Node10</title>
<path fill="none" stroke="midnightblue" d="M308.45,-395.32C270.99,-386.29 197.27,-368.52 150.43,-357.23"/>
<polygon fill="midnightblue" stroke="midnightblue" points="151.12,-353.8 140.58,-354.85 149.48,-360.6 151.12,-353.8"/>
</g>
<!-- Node12 -->
<g id="node12" class="node">
<title>Node12</title>
<g id="a_node12"><a xlink:href="as__const_8h.html" target="_top" xlink:title=" ">
<polygon fill="none" stroke="black" points="410,-336.5 410,-355.5 478,-355.5 478,-336.5 410,-336.5"/>
<text text-anchor="middle" x="444" y="-343.5" font-family="Helvetica,sans-Serif" font-size="10.00">as_const.h</text>
</a>
</g>
</g>
<!-- Node11&#45;&gt;Node12 -->
<g id="edge13" class="edge">
<title>Node11&#45;&gt;Node12</title>
<path fill="none" stroke="midnightblue" d="M349.99,-392.32C368.04,-383.62 396.05,-370.12 416.8,-360.11"/>
<polygon fill="midnightblue" stroke="midnightblue" points="418.56,-363.15 426.05,-355.65 415.52,-356.84 418.56,-363.15"/>
</g>
<!-- Node13 -->
<g id="node13" class="node">
<title>Node13</title>
<g id="a_node13"><a xlink:href="type_8h.html" target="_top" xlink:title=" ">
<polygon fill="none" stroke="black" points="197.5,-336.5 197.5,-355.5 244.5,-355.5 244.5,-336.5 197.5,-336.5"/>
<text text-anchor="middle" x="221" y="-343.5" font-family="Helvetica,sans-Serif" font-size="10.00">type.h</text>
</a>
</g>
</g>
<!-- Node11&#45;&gt;Node13 -->
<g id="edge14" class="edge">
<title>Node11&#45;&gt;Node13</title>
<path fill="none" stroke="midnightblue" d="M314.17,-392.32C296.28,-383.62 268.52,-370.12 247.95,-360.11"/>
<polygon fill="midnightblue" stroke="midnightblue" points="249.31,-356.88 238.79,-355.65 246.25,-363.18 249.31,-356.88"/>
</g>
<!-- Node37 -->
<g id="node20" class="node">
<title>Node37</title>
<g id="a_node20"><a xlink:href="validation__mode_8h.html" target="_top" xlink:title=" ">
<polygon fill="none" stroke="black" points="184.5,-224.5 184.5,-243.5 291.5,-243.5 291.5,-224.5 184.5,-224.5"/>
<text text-anchor="middle" x="238" y="-231.5" font-family="Helvetica,sans-Serif" font-size="10.00">validation_mode.h</text>
</a>
</g>
</g>
<!-- Node11&#45;&gt;Node37 -->
<g id="edge33" class="edge">
<title>Node11&#45;&gt;Node37</title>
<path fill="none" stroke="midnightblue" d="M308.31,-395.17C269.57,-385.4 196.22,-365.84 189,-356 164.55,-322.67 199.81,-275.42 222.11,-251"/>
<polygon fill="midnightblue" stroke="midnightblue" points="224.74,-253.31 229.07,-243.64 219.65,-248.5 224.74,-253.31"/>
</g>
<!-- Node38 -->
<g id="node21" class="node">
<title>Node38</title>
<g id="a_node21"><a xlink:href="validate__types_8h.html" target="_top" xlink:title=" ">
<polygon fill="none" stroke="black" points="379,-280.5 379,-299.5 477,-299.5 477,-280.5 379,-280.5"/>
<text text-anchor="middle" x="428" y="-287.5" font-family="Helvetica,sans-Serif" font-size="10.00">validate_types.h</text>
</a>
</g>
</g>
<!-- Node11&#45;&gt;Node38 -->
<g id="edge32" class="edge">
<title>Node11&#45;&gt;Node38</title>
<path fill="none" stroke="midnightblue" d="M355.65,-397.62C395,-391.46 471.18,-377.06 487,-356 501.17,-337.13 476.6,-317.3 454.98,-304.58"/>
<polygon fill="midnightblue" stroke="midnightblue" points="456.46,-301.39 446.02,-299.59 453.05,-307.51 456.46,-301.39"/>
</g>
<!-- Node39 -->
<g id="node22" class="node">
<title>Node39</title>
<g id="a_node22"><a xlink:href="validate__expressions_8h.html" target="_top" xlink:title=" ">
<polygon fill="none" stroke="black" points="262.5,-336.5 262.5,-355.5 391.5,-355.5 391.5,-336.5 262.5,-336.5"/>
<text text-anchor="middle" x="327" y="-343.5" font-family="Helvetica,sans-Serif" font-size="10.00">validate_expressions.h</text>
</a>
</g>
</g>
<!-- Node11&#45;&gt;Node39 -->
<g id="edge31" class="edge">
<title>Node11&#45;&gt;Node39</title>
<path fill="none" stroke="midnightblue" d="M331.17,-392.08C330.52,-385.01 329.58,-374.86 328.76,-365.99"/>
<polygon fill="midnightblue" stroke="midnightblue" points="332.22,-365.39 327.81,-355.75 325.25,-366.03 332.22,-365.39"/>
</g>
<!-- Node14 -->
<g id="node14" class="node">
<title>Node14</title>
<g id="a_node14"><a xlink:href="source__location_8h.html" target="_top" xlink:title=" ">
<polygon fill="none" stroke="black" points="234,-168.5 234,-187.5 336,-187.5 336,-168.5 234,-168.5"/>
<text text-anchor="middle" x="285" y="-175.5" font-family="Helvetica,sans-Serif" font-size="10.00">source_location.h</text>
</a>
</g>
</g>
<!-- Node13&#45;&gt;Node14 -->
<g id="edge15" class="edge">
<title>Node13&#45;&gt;Node14</title>
<path fill="none" stroke="midnightblue" d="M231.42,-336.33C249.73,-320.33 287.03,-284.14 301,-244 306.48,-228.26 300.8,-209.75 294.74,-196.52"/>
<polygon fill="midnightblue" stroke="midnightblue" points="297.85,-194.91 290.21,-187.56 291.6,-198.06 297.85,-194.91"/>
</g>
<!-- Node35 -->
<g id="node18" class="node">
<title>Node35</title>
<g id="a_node18"><a xlink:href="validate_8h.html" target="_top" xlink:title=" ">
<polygon fill="none" stroke="black" points="75.5,-280.5 75.5,-299.5 140.5,-299.5 140.5,-280.5 75.5,-280.5"/>
<text text-anchor="middle" x="108" y="-287.5" font-family="Helvetica,sans-Serif" font-size="10.00">validate.h</text>
</a>
</g>
</g>
<!-- Node13&#45;&gt;Node35 -->
<g id="edge22" class="edge">
<title>Node13&#45;&gt;Node35</title>
<path fill="none" stroke="midnightblue" d="M203.09,-336.44C184.75,-327.68 155.99,-313.94 134.91,-303.86"/>
<polygon fill="midnightblue" stroke="midnightblue" points="136.35,-300.67 125.82,-299.52 133.33,-306.99 136.35,-300.67"/>
</g>
<!-- Node13&#45;&gt;Node37 -->
<g id="edge30" class="edge">
<title>Node13&#45;&gt;Node37</title>
<path fill="none" stroke="midnightblue" d="M222.33,-336.37C225.08,-318.62 231.41,-277.67 235.13,-253.6"/>
<polygon fill="midnightblue" stroke="midnightblue" points="238.6,-254.01 236.67,-243.59 231.69,-252.94 238.6,-254.01"/>
</g>
<!-- Node13&#45;&gt;Node38 -->
<g id="edge29" class="edge">
<title>Node13&#45;&gt;Node38</title>
<path fill="none" stroke="midnightblue" d="M244.78,-338.47C247.88,-337.63 251.02,-336.79 254,-336 298.33,-324.22 349.12,-311.14 384.33,-302.12"/>
<polygon fill="midnightblue" stroke="midnightblue" points="385.46,-305.45 394.28,-299.58 383.73,-298.67 385.46,-305.45"/>
</g>
<!-- Node14&#45;&gt;Node5 -->
<g id="edge21" class="edge">
<title>Node14&#45;&gt;Node5</title>
<path fill="none" stroke="midnightblue" d="M266.92,-168.39C253.44,-160.87 236.03,-148.57 228,-132 211.21,-97.35 232.62,-52.57 247.32,-28.37"/>
<polygon fill="midnightblue" stroke="midnightblue" points="250.47,-29.93 252.89,-19.62 244.57,-26.17 250.47,-29.93"/>
</g>
<!-- Node15 -->
<g id="node15" class="node">
<title>Node15</title>
<g id="a_node15"><a xlink:href="deprecate_8h.html" target="_top" xlink:title=" ">
<polygon fill="none" stroke="black" points="383,-112.5 383,-131.5 457,-131.5 457,-112.5 383,-112.5"/>
<text text-anchor="middle" x="420" y="-119.5" font-family="Helvetica,sans-Serif" font-size="10.00">deprecate.h</text>
</a>
</g>
</g>
<!-- Node14&#45;&gt;Node15 -->
<g id="edge16" class="edge">
<title>Node14&#45;&gt;Node15</title>
<path fill="none" stroke="midnightblue" d="M306.39,-168.44C328.71,-159.52 363.9,-145.44 389.21,-135.32"/>
<polygon fill="midnightblue" stroke="midnightblue" points="390.72,-138.48 398.71,-131.52 388.12,-131.98 390.72,-138.48"/>
</g>
<!-- Node16 -->
<g id="node16" class="node">
<title>Node16</title>
<g id="a_node16"><a xlink:href="irep_8h.html" target="_top" xlink:title=" ">
<polygon fill="none" stroke="red" points="237,-112.5 237,-131.5 281,-131.5 281,-112.5 237,-112.5"/>
<text text-anchor="middle" x="259" y="-119.5" font-family="Helvetica,sans-Serif" font-size="10.00">irep.h</text>
</a>
</g>
</g>
<!-- Node14&#45;&gt;Node16 -->
<g id="edge17" class="edge">
<title>Node14&#45;&gt;Node16</title>
<path fill="none" stroke="midnightblue" d="M280.71,-168.08C277.15,-160.69 271.98,-149.95 267.58,-140.81"/>
<polygon fill="midnightblue" stroke="midnightblue" points="270.71,-139.24 263.21,-131.75 264.4,-142.28 270.71,-139.24"/>
</g>
<!-- Node33 -->
<g id="node17" class="node">
<title>Node33</title>
<g id="a_node17"><a xlink:href="optional_8h.html" target="_top" xlink:title=" ">
<polygon fill="none" stroke="red" points="299.5,-112.5 299.5,-131.5 364.5,-131.5 364.5,-112.5 299.5,-112.5"/>
<text text-anchor="middle" x="332" y="-119.5" font-family="Helvetica,sans-Serif" font-size="10.00">optional.h</text>
</a>
</g>
</g>
<!-- Node14&#45;&gt;Node33 -->
<g id="edge20" class="edge">
<title>Node14&#45;&gt;Node33</title>
<path fill="none" stroke="midnightblue" d="M292.76,-168.08C299.54,-160.3 309.54,-148.8 317.76,-139.37"/>
<polygon fill="midnightblue" stroke="midnightblue" points="320.46,-141.59 324.38,-131.75 315.18,-137 320.46,-141.59"/>
</g>
<!-- Node16&#45;&gt;Node2 -->
<g id="edge19" class="edge">
<title>Node16&#45;&gt;Node2</title>
<path fill="none" stroke="midnightblue" d="M281.3,-114.41C284.54,-113.54 287.85,-112.71 291,-112 367.04,-94.85 456.76,-80.8 509.31,-73.19"/>
<polygon fill="midnightblue" stroke="midnightblue" points="509.91,-76.64 519.31,-71.75 508.91,-69.71 509.91,-76.64"/>
</g>
<!-- Node16&#45;&gt;Node5 -->
<g id="edge18" class="edge">
<title>Node16&#45;&gt;Node5</title>
<path fill="none" stroke="midnightblue" d="M259,-112.37C259,-94.62 259,-53.67 259,-29.6"/>
<polygon fill="midnightblue" stroke="midnightblue" points="262.5,-29.59 259,-19.59 255.5,-29.59 262.5,-29.59"/>
</g>
<!-- Node35&#45;&gt;Node6 -->
<g id="edge23" class="edge">
<title>Node35&#45;&gt;Node6</title>
<path fill="none" stroke="midnightblue" d="M94.35,-280.25C82.8,-272.17 66.63,-259.15 57,-244 40.86,-218.6 38,-209.1 38,-179 38,-179 38,-179 38,-121 38,-88.95 38,-51.64 38,-29.75"/>
<polygon fill="midnightblue" stroke="midnightblue" points="41.5,-29.56 38,-19.56 34.5,-29.56 41.5,-29.56"/>
</g>
<!-- Node36 -->
<g id="node19" class="node">
<title>Node36</title>
<g id="a_node19"><a xlink:href="exception__utils_8h.html" target="_top" xlink:title=" ">
<polygon fill="none" stroke="black" points="66,-224.5 66,-243.5 166,-243.5 166,-224.5 66,-224.5"/>
<text text-anchor="middle" x="116" y="-231.5" font-family="Helvetica,sans-Serif" font-size="10.00">exception_utils.h</text>
</a>
</g>
</g>
<!-- Node35&#45;&gt;Node36 -->
<g id="edge24" class="edge">
<title>Node35&#45;&gt;Node36</title>
<path fill="none" stroke="midnightblue" d="M109.32,-280.08C110.38,-272.93 111.91,-262.64 113.23,-253.69"/>
<polygon fill="midnightblue" stroke="midnightblue" points="116.7,-254.16 114.7,-243.75 109.78,-253.13 116.7,-254.16"/>
</g>
<!-- Node35&#45;&gt;Node37 -->
<g id="edge28" class="edge">
<title>Node35&#45;&gt;Node37</title>
<path fill="none" stroke="midnightblue" d="M128.6,-280.44C149.99,-271.56 183.68,-257.56 208.02,-247.45"/>
<polygon fill="midnightblue" stroke="midnightblue" points="209.61,-250.58 217.5,-243.52 206.92,-244.12 209.61,-250.58"/>
</g>
<!-- Node36&#45;&gt;Node2 -->
<g id="edge26" class="edge">
<title>Node36&#45;&gt;Node2</title>
<path fill="none" stroke="midnightblue" d="M166.08,-224.6C223.07,-214.79 312.43,-198.57 345,-188 401.37,-169.71 415.02,-162.2 466,-132 491.47,-116.91 518.54,-96.11 535.82,-82.14"/>
<polygon fill="midnightblue" stroke="midnightblue" points="538.39,-84.56 543.91,-75.52 533.95,-79.14 538.39,-84.56"/>
</g>
<!-- Node36&#45;&gt;Node5 -->
<g id="edge25" class="edge">
<title>Node36&#45;&gt;Node5</title>
<path fill="none" stroke="midnightblue" d="M120.64,-224.24C134.69,-197.96 178.47,-117.78 222,-56 228.92,-46.18 237.38,-35.79 244.46,-27.47"/>
<polygon fill="midnightblue" stroke="midnightblue" points="247.33,-29.51 251.23,-19.66 242.03,-24.93 247.33,-29.51"/>
</g>
<!-- Node36&#45;&gt;Node14 -->
<g id="edge27" class="edge">
<title>Node36&#45;&gt;Node14</title>
<path fill="none" stroke="midnightblue" d="M142.78,-224.44C171.33,-215.32 216.73,-200.81 248.54,-190.65"/>
<polygon fill="midnightblue" stroke="midnightblue" points="249.89,-193.89 258.35,-187.52 247.76,-187.23 249.89,-193.89"/>
</g>
<!-- Node40&#45;&gt;Node2 -->
<g id="edge39" class="edge">
<title>Node40&#45;&gt;Node2</title>
<path fill="none" stroke="midnightblue" d="M554.67,-506.27C629.33,-491.51 792,-453.55 792,-403 792,-403 792,-403 792,-177 792,-92.79 667.7,-72.84 598.76,-68.26"/>
<polygon fill="midnightblue" stroke="midnightblue" points="598.79,-64.75 588.61,-67.67 598.39,-71.74 598.79,-64.75"/>
</g>
<!-- Node40&#45;&gt;Node8 -->
<g id="edge38" class="edge">
<title>Node40&#45;&gt;Node8</title>
<path fill="none" stroke="midnightblue" d="M488.53,-504.44C456.83,-495.24 406.27,-480.56 371.23,-470.39"/>
<polygon fill="midnightblue" stroke="midnightblue" points="371.91,-466.94 361.33,-467.52 369.96,-473.67 371.91,-466.94"/>
</g>
<!-- Node40&#45;&gt;Node11 -->
<g id="edge37" class="edge">
<title>Node40&#45;&gt;Node11</title>
<path fill="none" stroke="midnightblue" d="M518,-504.06C517.51,-490.09 514.46,-463.13 499,-448 463.36,-413.11 403.66,-404.55 366.13,-402.84"/>
<polygon fill="midnightblue" stroke="midnightblue" points="365.81,-399.33 355.71,-402.52 365.6,-406.33 365.81,-399.33"/>
</g>
<!-- Node40&#45;&gt;Node35 -->
<g id="edge44" class="edge">
<title>Node40&#45;&gt;Node35</title>
<path fill="none" stroke="midnightblue" d="M481.18,-509.02C434.9,-503.29 353.47,-490.82 287,-468 182.85,-432.24 123.64,-449.83 66,-356 55.38,-338.71 71.91,-319.2 87.25,-306.1"/>
<polygon fill="midnightblue" stroke="midnightblue" points="89.84,-308.52 95.47,-299.54 85.47,-303.04 89.84,-308.52"/>
</g>
<!-- Node41 -->
<g id="node24" class="node">
<title>Node41</title>
<g id="a_node24"><a xlink:href="mp__arith_8h.html" target="_top" xlink:title=" ">
<polygon fill="none" stroke="black" points="567.5,-448.5 567.5,-467.5 636.5,-467.5 636.5,-448.5 567.5,-448.5"/>
<text text-anchor="middle" x="602" y="-455.5" font-family="Helvetica,sans-Serif" font-size="10.00">mp_arith.h</text>
</a>
</g>
</g>
<!-- Node40&#45;&gt;Node41 -->
<g id="edge40" class="edge">
<title>Node40&#45;&gt;Node41</title>
<path fill="none" stroke="midnightblue" d="M531.5,-504.32C544.6,-495.9 564.71,-482.97 580.11,-473.07"/>
<polygon fill="midnightblue" stroke="midnightblue" points="582.02,-476.01 588.54,-467.65 578.23,-470.12 582.02,-476.01"/>
</g>
<!-- Node25 -->
<g id="node27" class="node">
<title>Node25</title>
<g id="a_node27"><a xlink:title=" ">
<polygon fill="none" stroke="#bfbfbf" points="396.5,-448.5 396.5,-467.5 489.5,-467.5 489.5,-448.5 396.5,-448.5"/>
<text text-anchor="middle" x="443" y="-455.5" font-family="Helvetica,sans-Serif" font-size="10.00">unordered_map</text>
</a>
</g>
</g>
<!-- Node40&#45;&gt;Node25 -->
<g id="edge45" class="edge">
<title>Node40&#45;&gt;Node25</title>
<path fill="none" stroke="midnightblue" d="M505.95,-504.32C494.54,-496.11 477.17,-483.6 463.57,-473.81"/>
<polygon fill="midnightblue" stroke="midnightblue" points="465.43,-470.84 455.27,-467.83 461.34,-476.52 465.43,-470.84"/>
</g>
<!-- Node41&#45;&gt;Node5 -->
<g id="edge42" class="edge">
<title>Node41&#45;&gt;Node5</title>
<path fill="none" stroke="midnightblue" d="M599.54,-448.42C585.68,-400.5 516.15,-166.25 466,-112 417.52,-59.56 335.94,-31.13 291.04,-18.74"/>
<polygon fill="midnightblue" stroke="midnightblue" points="291.81,-15.32 281.25,-16.13 290.01,-22.08 291.81,-15.32"/>
</g>
<!-- Node20 -->
<g id="node25" class="node">
<title>Node20</title>
<g id="a_node25"><a xlink:title=" ">
<polygon fill="none" stroke="#bfbfbf" points="604,-392.5 604,-411.5 652,-411.5 652,-392.5 604,-392.5"/>
<text text-anchor="middle" x="628" y="-399.5" font-family="Helvetica,sans-Serif" font-size="10.00">iosfwd</text>
</a>
</g>
</g>
<!-- Node41&#45;&gt;Node20 -->
<g id="edge41" class="edge">
<title>Node41&#45;&gt;Node20</title>
<path fill="none" stroke="midnightblue" d="M606.29,-448.08C609.85,-440.69 615.02,-429.95 619.42,-420.81"/>
<polygon fill="midnightblue" stroke="midnightblue" points="622.6,-422.28 623.79,-411.75 616.29,-419.24 622.6,-422.28"/>
</g>
<!-- Node42 -->
<g id="node26" class="node">
<title>Node42</title>
<g id="a_node26"><a xlink:title=" ">
<polygon fill="none" stroke="#bfbfbf" points="670,-392.5 670,-411.5 764,-411.5 764,-392.5 670,-392.5"/>
<text text-anchor="middle" x="717" y="-399.5" font-family="Helvetica,sans-Serif" font-size="10.00">big&#45;int/bigint.hh</text>
</a>
</g>
</g>
<!-- Node41&#45;&gt;Node42 -->
<g id="edge43" class="edge">
<title>Node41&#45;&gt;Node42</title>
<path fill="none" stroke="midnightblue" d="M620.22,-448.44C638.9,-439.68 668.16,-425.94 689.62,-415.86"/>
<polygon fill="midnightblue" stroke="midnightblue" points="691.3,-418.93 698.86,-411.52 688.32,-412.6 691.3,-418.93"/>
</g>
</g>
</svg>
