<?xml version="1.0" encoding="UTF-8" standalone="no"?>
<!DOCTYPE svg PUBLIC "-//W3C//DTD SVG 1.1//EN"
 "http://www.w3.org/Graphics/SVG/1.1/DTD/svg11.dtd">
<!-- Generated by graphviz version 2.43.0 (0)
 -->
<!-- Title: /home/runner/work/cbmc/cbmc/src/solvers/flattening/c_bit_field_replacement_type.cpp Pages: 1 -->
<svg width="1137pt" height="901pt"
 viewBox="0.00 0.00 1137.00 901.00" xmlns="http://www.w3.org/2000/svg" xmlns:xlink="http://www.w3.org/1999/xlink">
<g id="graph0" class="graph" transform="scale(1 1) rotate(0) translate(4 897)">
<title>/home/runner/work/cbmc/cbmc/src/solvers/flattening/c_bit_field_replacement_type.cpp</title>
<!-- Node1 -->
<g id="node1" class="node">
<title>Node1</title>
<g id="a_node1"><a xlink:title=" ">
<polygon fill="#bfbfbf" stroke="black" points="776.5,-851.5 776.5,-892.5 959.5,-892.5 959.5,-851.5 776.5,-851.5"/>
<text text-anchor="start" x="784.5" y="-880.5" font-family="Helvetica,sans-Serif" font-size="10.00">/home/runner/work/cbmc</text>
<text text-anchor="start" x="784.5" y="-869.5" font-family="Helvetica,sans-Serif" font-size="10.00">/cbmc/src/solvers/flattening</text>
<text text-anchor="middle" x="868" y="-858.5" font-family="Helvetica,sans-Serif" font-size="10.00">/c_bit_field_replacement_type.cpp</text>
</a>
</g>
</g>
<!-- Node2 -->
<g id="node2" class="node">
<title>Node2</title>
<g id="a_node2"><a xlink:href="c__bit__field__replacement__type_8h.html" target="_top" xlink:title=" ">
<polygon fill="none" stroke="black" points="36.5,-728.5 36.5,-758.5 169.5,-758.5 169.5,-728.5 36.5,-728.5"/>
<text text-anchor="start" x="44.5" y="-746.5" font-family="Helvetica,sans-Serif" font-size="10.00">c_bit_field_replacement</text>
<text text-anchor="middle" x="103" y="-735.5" font-family="Helvetica,sans-Serif" font-size="10.00">_type.h</text>
</a>
</g>
</g>
<!-- Node1&#45;&gt;Node2 -->
<g id="edge1" class="edge">
<title>Node1&#45;&gt;Node2</title>
<path fill="none" stroke="midnightblue" d="M776.38,-856.44C645.08,-835.47 395.85,-795.3 184,-759 182.55,-758.75 181.08,-758.5 179.6,-758.24"/>
<polygon fill="midnightblue" stroke="midnightblue" points="180.18,-754.79 169.73,-756.53 178.98,-761.69 180.18,-754.79"/>
</g>
<!-- Node8 -->
<g id="node8" class="node">
<title>Node8</title>
<g id="a_node8"><a xlink:href="src_2util_2invariant_8h.html" target="_top" xlink:title=" ">
<polygon fill="none" stroke="black" points="822.5,-56.5 822.5,-75.5 891.5,-75.5 891.5,-56.5 822.5,-56.5"/>
<text text-anchor="middle" x="857" y="-63.5" font-family="Helvetica,sans-Serif" font-size="10.00">invariant.h</text>
</a>
</g>
</g>
<!-- Node1&#45;&gt;Node8 -->
<g id="edge67" class="edge">
<title>Node1&#45;&gt;Node8</title>
<path fill="none" stroke="midnightblue" d="M959.65,-863.63C1034.86,-851.97 1129,-821.92 1129,-744.5 1129,-744.5 1129,-744.5 1129,-345 1129,-228.11 1099.62,-183.31 1007,-112 998.32,-105.32 941.09,-89.21 899.9,-78.19"/>
<polygon fill="midnightblue" stroke="midnightblue" points="900.63,-74.77 890.07,-75.58 898.84,-81.53 900.63,-74.77"/>
</g>
<!-- Node34 -->
<g id="node27" class="node">
<title>Node34</title>
<g id="a_node27"><a xlink:href="c__types_8h.html" target="_top" xlink:title=" ">
<polygon fill="none" stroke="black" points="716,-795.5 716,-814.5 798,-814.5 798,-795.5 716,-795.5"/>
<text text-anchor="middle" x="757" y="-802.5" font-family="Helvetica,sans-Serif" font-size="10.00">util/c_types.h</text>
</a>
</g>
</g>
<!-- Node1&#45;&gt;Node34 -->
<g id="edge37" class="edge">
<title>Node1&#45;&gt;Node34</title>
<path fill="none" stroke="midnightblue" d="M834.7,-851.5C817.35,-841.34 796.54,-829.16 780.83,-819.95"/>
<polygon fill="midnightblue" stroke="midnightblue" points="782.17,-816.69 771.78,-814.65 778.64,-822.73 782.17,-816.69"/>
</g>
<!-- Node47 -->
<g id="node41" class="node">
<title>Node47</title>
<g id="a_node41"><a xlink:href="namespace_8h.html" target="_top" xlink:title=" ">
<polygon fill="none" stroke="black" points="999.5,-280.5 999.5,-299.5 1100.5,-299.5 1100.5,-280.5 999.5,-280.5"/>
<text text-anchor="middle" x="1050" y="-287.5" font-family="Helvetica,sans-Serif" font-size="10.00">util/namespace.h</text>
</a>
</g>
</g>
<!-- Node1&#45;&gt;Node47 -->
<g id="edge68" class="edge">
<title>Node1&#45;&gt;Node47</title>
<path fill="none" stroke="midnightblue" d="M928.32,-851.43C974.38,-832.26 1030,-798.03 1030,-744.5 1030,-744.5 1030,-744.5 1030,-401 1030,-368.44 1038.59,-331.32 1044.51,-309.59"/>
<polygon fill="midnightblue" stroke="midnightblue" points="1047.94,-310.32 1047.3,-299.74 1041.21,-308.41 1047.94,-310.32"/>
</g>
<!-- Node3 -->
<g id="node3" class="node">
<title>Node3</title>
<g id="a_node3"><a xlink:href="type_8h.html" target="_top" xlink:title=" ">
<polygon fill="none" stroke="black" points="188,-448.5 188,-467.5 254,-467.5 254,-448.5 188,-448.5"/>
<text text-anchor="middle" x="221" y="-455.5" font-family="Helvetica,sans-Serif" font-size="10.00">util/type.h</text>
</a>
</g>
</g>
<!-- Node2&#45;&gt;Node3 -->
<g id="edge2" class="edge">
<title>Node2&#45;&gt;Node3</title>
<path fill="none" stroke="midnightblue" d="M106.44,-728.37C111.41,-706.7 120,-663.89 120,-627 120,-627 120,-627 120,-569 120,-524.59 165.21,-490.37 195.14,-472.58"/>
<polygon fill="midnightblue" stroke="midnightblue" points="196.92,-475.59 203.87,-467.59 193.45,-469.51 196.92,-475.59"/>
</g>
<!-- Node4 -->
<g id="node4" class="node">
<title>Node4</title>
<g id="a_node4"><a xlink:href="source__location_8h.html" target="_top" xlink:title=" ">
<polygon fill="none" stroke="black" points="68,-280.5 68,-299.5 170,-299.5 170,-280.5 68,-280.5"/>
<text text-anchor="middle" x="119" y="-287.5" font-family="Helvetica,sans-Serif" font-size="10.00">source_location.h</text>
</a>
</g>
</g>
<!-- Node3&#45;&gt;Node4 -->
<g id="edge3" class="edge">
<title>Node3&#45;&gt;Node4</title>
<path fill="none" stroke="midnightblue" d="M202.52,-448.44C187.93,-440.81 168.1,-428.32 156,-412 132.96,-380.94 124.11,-335.38 120.83,-309.95"/>
<polygon fill="midnightblue" stroke="midnightblue" points="124.29,-309.35 119.69,-299.81 117.33,-310.14 124.29,-309.35"/>
</g>
<!-- Node30 -->
<g id="node23" class="node">
<title>Node30</title>
<g id="a_node23"><a xlink:href="validate_8h.html" target="_top" xlink:title=" ">
<polygon fill="none" stroke="black" points="164.5,-392.5 164.5,-411.5 229.5,-411.5 229.5,-392.5 164.5,-392.5"/>
<text text-anchor="middle" x="197" y="-399.5" font-family="Helvetica,sans-Serif" font-size="10.00">validate.h</text>
</a>
</g>
</g>
<!-- Node3&#45;&gt;Node30 -->
<g id="edge28" class="edge">
<title>Node3&#45;&gt;Node30</title>
<path fill="none" stroke="midnightblue" d="M217.04,-448.08C213.79,-440.77 209.08,-430.18 205.05,-421.1"/>
<polygon fill="midnightblue" stroke="midnightblue" points="208.15,-419.47 200.89,-411.75 201.75,-422.31 208.15,-419.47"/>
</g>
<!-- Node32 -->
<g id="node25" class="node">
<title>Node32</title>
<g id="a_node25"><a xlink:href="validation__mode_8h.html" target="_top" xlink:title=" ">
<polygon fill="none" stroke="black" points="303.5,-336.5 303.5,-355.5 410.5,-355.5 410.5,-336.5 303.5,-336.5"/>
<text text-anchor="middle" x="357" y="-343.5" font-family="Helvetica,sans-Serif" font-size="10.00">validation_mode.h</text>
</a>
</g>
</g>
<!-- Node3&#45;&gt;Node32 -->
<g id="edge36" class="edge">
<title>Node3&#45;&gt;Node32</title>
<path fill="none" stroke="midnightblue" d="M227.07,-448.15C236.57,-434.78 256.02,-409.17 277,-392 292.52,-379.29 312.12,-368.2 328.03,-360.21"/>
<polygon fill="midnightblue" stroke="midnightblue" points="329.94,-363.18 337.4,-355.65 326.88,-356.88 329.94,-363.18"/>
</g>
<!-- Node33 -->
<g id="node26" class="node">
<title>Node33</title>
<g id="a_node26"><a xlink:href="validate__types_8h.html" target="_top" xlink:title=" ">
<polygon fill="none" stroke="black" points="286,-392.5 286,-411.5 384,-411.5 384,-392.5 286,-392.5"/>
<text text-anchor="middle" x="335" y="-399.5" font-family="Helvetica,sans-Serif" font-size="10.00">validate_types.h</text>
</a>
</g>
</g>
<!-- Node3&#45;&gt;Node33 -->
<g id="edge35" class="edge">
<title>Node3&#45;&gt;Node33</title>
<path fill="none" stroke="midnightblue" d="M239.06,-448.44C257.57,-439.68 286.58,-425.94 307.86,-415.86"/>
<polygon fill="midnightblue" stroke="midnightblue" points="309.48,-418.96 317.02,-411.52 306.49,-412.63 309.48,-418.96"/>
</g>
<!-- Node5 -->
<g id="node5" class="node">
<title>Node5</title>
<g id="a_node5"><a xlink:href="irep_8h.html" target="_top" xlink:title=" ">
<polygon fill="none" stroke="black" points="585,-224.5 585,-243.5 629,-243.5 629,-224.5 585,-224.5"/>
<text text-anchor="middle" x="607" y="-231.5" font-family="Helvetica,sans-Serif" font-size="10.00">irep.h</text>
</a>
</g>
</g>
<!-- Node4&#45;&gt;Node5 -->
<g id="edge4" class="edge">
<title>Node4&#45;&gt;Node5</title>
<path fill="none" stroke="midnightblue" d="M170.3,-283.32C270.99,-272.18 491.88,-247.74 574.75,-238.57"/>
<polygon fill="midnightblue" stroke="midnightblue" points="575.27,-242.03 584.83,-237.45 574.5,-235.07 575.27,-242.03"/>
</g>
<!-- Node6 -->
<g id="node6" class="node">
<title>Node6</title>
<g id="a_node6"><a xlink:title=" ">
<polygon fill="none" stroke="#bfbfbf" points="290,-0.5 290,-19.5 334,-19.5 334,-0.5 290,-0.5"/>
<text text-anchor="middle" x="312" y="-7.5" font-family="Helvetica,sans-Serif" font-size="10.00">string</text>
</a>
</g>
</g>
<!-- Node4&#45;&gt;Node6 -->
<g id="edge27" class="edge">
<title>Node4&#45;&gt;Node6</title>
<path fill="none" stroke="midnightblue" d="M124.7,-280.29C135.97,-262.2 160,-218.95 160,-179 160,-179 160,-179 160,-121 160,-90.9 158.17,-77.72 179,-56 205.56,-28.3 249.76,-17.65 279.85,-13.56"/>
<polygon fill="midnightblue" stroke="midnightblue" points="280.34,-17.02 289.85,-12.37 279.51,-10.07 280.34,-17.02"/>
</g>
<!-- Node28 -->
<g id="node21" class="node">
<title>Node28</title>
<g id="a_node21"><a xlink:href="optional_8h.html" target="_top" xlink:title=" ">
<polygon fill="none" stroke="black" points="54.5,-224.5 54.5,-243.5 119.5,-243.5 119.5,-224.5 54.5,-224.5"/>
<text text-anchor="middle" x="87" y="-231.5" font-family="Helvetica,sans-Serif" font-size="10.00">optional.h</text>
</a>
</g>
</g>
<!-- Node4&#45;&gt;Node28 -->
<g id="edge25" class="edge">
<title>Node4&#45;&gt;Node28</title>
<path fill="none" stroke="midnightblue" d="M113.72,-280.08C109.29,-272.61 102.84,-261.72 97.38,-252.52"/>
<polygon fill="midnightblue" stroke="midnightblue" points="100.29,-250.57 92.19,-243.75 94.27,-254.14 100.29,-250.57"/>
</g>
<!-- Node5&#45;&gt;Node6 -->
<g id="edge5" class="edge">
<title>Node5&#45;&gt;Node6</title>
<path fill="none" stroke="midnightblue" d="M584.76,-232.39C547.81,-230.39 472.75,-222.08 421,-188 362.27,-149.33 329.8,-66.99 317.64,-29.86"/>
<polygon fill="midnightblue" stroke="midnightblue" points="320.84,-28.38 314.51,-19.88 314.16,-30.47 320.84,-28.38"/>
</g>
<!-- Node7 -->
<g id="node7" class="node">
<title>Node7</title>
<g id="a_node7"><a xlink:title=" ">
<polygon fill="none" stroke="#bfbfbf" points="657.5,-168.5 657.5,-187.5 704.5,-187.5 704.5,-168.5 657.5,-168.5"/>
<text text-anchor="middle" x="681" y="-175.5" font-family="Helvetica,sans-Serif" font-size="10.00">vector</text>
</a>
</g>
</g>
<!-- Node5&#45;&gt;Node7 -->
<g id="edge6" class="edge">
<title>Node5&#45;&gt;Node7</title>
<path fill="none" stroke="midnightblue" d="M618.89,-224.32C630.15,-216.11 647.29,-203.6 660.71,-193.81"/>
<polygon fill="midnightblue" stroke="midnightblue" points="662.88,-196.56 668.89,-187.83 658.75,-190.9 662.88,-196.56"/>
</g>
<!-- Node5&#45;&gt;Node8 -->
<g id="edge7" class="edge">
<title>Node5&#45;&gt;Node8</title>
<path fill="none" stroke="midnightblue" d="M629.24,-225.26C667.37,-211.21 746.27,-178.56 800,-132 816.93,-117.33 833.5,-97.66 844.37,-83.82"/>
<polygon fill="midnightblue" stroke="midnightblue" points="847.32,-85.73 850.64,-75.67 841.77,-81.46 847.32,-85.73"/>
</g>
<!-- Node12 -->
<g id="node12" class="node">
<title>Node12</title>
<g id="a_node12"><a xlink:href="irep__ids_8h.html" target="_top" xlink:title=" ">
<polygon fill="none" stroke="black" points="575,-168.5 575,-187.5 639,-187.5 639,-168.5 575,-168.5"/>
<text text-anchor="middle" x="607" y="-175.5" font-family="Helvetica,sans-Serif" font-size="10.00">irep_ids.h</text>
</a>
</g>
</g>
<!-- Node5&#45;&gt;Node12 -->
<g id="edge12" class="edge">
<title>Node5&#45;&gt;Node12</title>
<path fill="none" stroke="midnightblue" d="M607,-224.08C607,-217.01 607,-206.86 607,-197.99"/>
<polygon fill="midnightblue" stroke="midnightblue" points="610.5,-197.75 607,-187.75 603.5,-197.75 610.5,-197.75"/>
</g>
<!-- Node23 -->
<g id="node16" class="node">
<title>Node23</title>
<g id="a_node16"><a xlink:href="forward__list__as__map_8h.html" target="_top" xlink:title=" ">
<polygon fill="none" stroke="black" points="429.5,-168.5 429.5,-187.5 556.5,-187.5 556.5,-168.5 429.5,-168.5"/>
<text text-anchor="middle" x="493" y="-175.5" font-family="Helvetica,sans-Serif" font-size="10.00">forward_list_as_map.h</text>
</a>
</g>
</g>
<!-- Node5&#45;&gt;Node23 -->
<g id="edge18" class="edge">
<title>Node5&#45;&gt;Node23</title>
<path fill="none" stroke="midnightblue" d="M588.94,-224.44C570.43,-215.68 541.42,-201.94 520.14,-191.86"/>
<polygon fill="midnightblue" stroke="midnightblue" points="521.51,-188.63 510.98,-187.52 518.52,-194.96 521.51,-188.63"/>
</g>
<!-- Node8&#45;&gt;Node6 -->
<g id="edge10" class="edge">
<title>Node8&#45;&gt;Node6</title>
<path fill="none" stroke="midnightblue" d="M822.49,-61.58C723.6,-51.78 440.1,-23.69 344.17,-14.19"/>
<polygon fill="midnightblue" stroke="midnightblue" points="344.49,-10.7 334.2,-13.2 343.8,-17.67 344.49,-10.7"/>
</g>
<!-- Node9 -->
<g id="node9" class="node">
<title>Node9</title>
<g id="a_node9"><a xlink:title=" ">
<polygon fill="none" stroke="#bfbfbf" points="796.5,-0.5 796.5,-19.5 845.5,-19.5 845.5,-0.5 796.5,-0.5"/>
<text text-anchor="middle" x="821" y="-7.5" font-family="Helvetica,sans-Serif" font-size="10.00">cstdlib</text>
</a>
</g>
</g>
<!-- Node8&#45;&gt;Node9 -->
<g id="edge8" class="edge">
<title>Node8&#45;&gt;Node9</title>
<path fill="none" stroke="midnightblue" d="M851.06,-56.08C846.02,-48.53 838.66,-37.49 832.49,-28.23"/>
<polygon fill="midnightblue" stroke="midnightblue" points="835.29,-26.13 826.83,-19.75 829.47,-30.01 835.29,-26.13"/>
</g>
<!-- Node10 -->
<g id="node10" class="node">
<title>Node10</title>
<g id="a_node10"><a xlink:title=" ">
<polygon fill="none" stroke="#bfbfbf" points="864,-0.5 864,-19.5 920,-19.5 920,-0.5 864,-0.5"/>
<text text-anchor="middle" x="892" y="-7.5" font-family="Helvetica,sans-Serif" font-size="10.00">sstream</text>
</a>
</g>
</g>
<!-- Node8&#45;&gt;Node10 -->
<g id="edge9" class="edge">
<title>Node8&#45;&gt;Node10</title>
<path fill="none" stroke="midnightblue" d="M862.78,-56.08C867.67,-48.53 874.83,-37.49 880.83,-28.23"/>
<polygon fill="midnightblue" stroke="midnightblue" points="883.83,-30.05 886.33,-19.75 877.95,-26.24 883.83,-30.05"/>
</g>
<!-- Node11 -->
<g id="node11" class="node">
<title>Node11</title>
<g id="a_node11"><a xlink:title=" ">
<polygon fill="none" stroke="#bfbfbf" points="690.5,-0.5 690.5,-19.5 759.5,-19.5 759.5,-0.5 690.5,-0.5"/>
<text text-anchor="middle" x="725" y="-7.5" font-family="Helvetica,sans-Serif" font-size="10.00">type_traits</text>
</a>
</g>
</g>
<!-- Node8&#45;&gt;Node11 -->
<g id="edge11" class="edge">
<title>Node8&#45;&gt;Node11</title>
<path fill="none" stroke="midnightblue" d="M836.08,-56.44C814.26,-47.52 779.85,-33.44 755.11,-23.32"/>
<polygon fill="midnightblue" stroke="midnightblue" points="756.4,-20.06 745.82,-19.52 753.75,-26.54 756.4,-20.06"/>
</g>
<!-- Node13 -->
<g id="node13" class="node">
<title>Node13</title>
<g id="a_node13"><a xlink:href="dstring_8h.html" target="_top" xlink:title=" ">
<polygon fill="none" stroke="red" points="562.5,-112.5 562.5,-131.5 621.5,-131.5 621.5,-112.5 562.5,-112.5"/>
<text text-anchor="middle" x="592" y="-119.5" font-family="Helvetica,sans-Serif" font-size="10.00">dstring.h</text>
</a>
</g>
</g>
<!-- Node12&#45;&gt;Node13 -->
<g id="edge13" class="edge">
<title>Node12&#45;&gt;Node13</title>
<path fill="none" stroke="midnightblue" d="M604.52,-168.08C602.51,-160.85 599.61,-150.41 597.11,-141.4"/>
<polygon fill="midnightblue" stroke="midnightblue" points="600.48,-140.45 594.43,-131.75 593.74,-142.32 600.48,-140.45"/>
</g>
<!-- Node22 -->
<g id="node15" class="node">
<title>Node22</title>
<g id="a_node15"><a xlink:title=" ">
<polygon fill="none" stroke="#bfbfbf" points="717,-112.5 717,-131.5 791,-131.5 791,-112.5 717,-112.5"/>
<text text-anchor="middle" x="754" y="-119.5" font-family="Helvetica,sans-Serif" font-size="10.00">irep_ids.def</text>
</a>
</g>
</g>
<!-- Node12&#45;&gt;Node22 -->
<g id="edge17" class="edge">
<title>Node12&#45;&gt;Node22</title>
<path fill="none" stroke="midnightblue" d="M630.29,-168.44C654.81,-159.44 693.6,-145.19 721.2,-135.05"/>
<polygon fill="midnightblue" stroke="midnightblue" points="722.64,-138.25 730.82,-131.52 720.22,-131.68 722.64,-138.25"/>
</g>
<!-- Node13&#45;&gt;Node6 -->
<g id="edge15" class="edge">
<title>Node13&#45;&gt;Node6</title>
<path fill="none" stroke="midnightblue" d="M570.03,-112.37C520.65,-92.97 400.76,-45.87 343.48,-23.37"/>
<polygon fill="midnightblue" stroke="midnightblue" points="344.46,-19.99 333.87,-19.59 341.9,-26.51 344.46,-19.99"/>
</g>
<!-- Node13&#45;&gt;Node8 -->
<g id="edge16" class="edge">
<title>Node13&#45;&gt;Node8</title>
<path fill="none" stroke="midnightblue" d="M621.79,-114.03C624.9,-113.33 628.01,-112.64 631,-112 693.91,-98.48 766.98,-84.19 812.61,-75.43"/>
<polygon fill="midnightblue" stroke="midnightblue" points="813.31,-78.86 822.47,-73.54 811.99,-71.98 813.31,-78.86"/>
</g>
<!-- Node14 -->
<g id="node14" class="node">
<title>Node14</title>
<g id="a_node14"><a xlink:title=" ">
<polygon fill="none" stroke="#bfbfbf" points="188,-56.5 188,-75.5 236,-75.5 236,-56.5 188,-56.5"/>
<text text-anchor="middle" x="212" y="-63.5" font-family="Helvetica,sans-Serif" font-size="10.00">iosfwd</text>
</a>
</g>
</g>
<!-- Node13&#45;&gt;Node14 -->
<g id="edge14" class="edge">
<title>Node13&#45;&gt;Node14</title>
<path fill="none" stroke="midnightblue" d="M562.25,-113.83C559.14,-113.17 556.01,-112.54 553,-112 441.58,-91.84 308.14,-76.86 246.42,-70.44"/>
<polygon fill="midnightblue" stroke="midnightblue" points="246.41,-66.92 236.1,-69.38 245.69,-73.88 246.41,-66.92"/>
</g>
<!-- Node24 -->
<g id="node17" class="node">
<title>Node24</title>
<g id="a_node17"><a xlink:title=" ">
<polygon fill="none" stroke="#bfbfbf" points="388,-112.5 388,-131.5 452,-131.5 452,-112.5 388,-112.5"/>
<text text-anchor="middle" x="420" y="-119.5" font-family="Helvetica,sans-Serif" font-size="10.00">algorithm</text>
</a>
</g>
</g>
<!-- Node23&#45;&gt;Node24 -->
<g id="edge19" class="edge">
<title>Node23&#45;&gt;Node24</title>
<path fill="none" stroke="midnightblue" d="M481.27,-168.32C470.16,-160.11 453.26,-147.6 440.02,-137.81"/>
<polygon fill="midnightblue" stroke="midnightblue" points="442.06,-134.97 431.94,-131.83 437.9,-140.59 442.06,-134.97"/>
</g>
<!-- Node25 -->
<g id="node18" class="node">
<title>Node25</title>
<g id="a_node18"><a xlink:title=" ">
<polygon fill="none" stroke="#bfbfbf" points="470,-112.5 470,-131.5 544,-131.5 544,-112.5 470,-112.5"/>
<text text-anchor="middle" x="507" y="-119.5" font-family="Helvetica,sans-Serif" font-size="10.00">forward_list</text>
</a>
</g>
</g>
<!-- Node23&#45;&gt;Node25 -->
<g id="edge20" class="edge">
<title>Node23&#45;&gt;Node25</title>
<path fill="none" stroke="midnightblue" d="M495.31,-168.08C497.17,-160.93 499.84,-150.64 502.15,-141.69"/>
<polygon fill="midnightblue" stroke="midnightblue" points="505.61,-142.31 504.73,-131.75 498.83,-140.55 505.61,-142.31"/>
</g>
<!-- Node26 -->
<g id="node19" class="node">
<title>Node26</title>
<g id="a_node19"><a xlink:href="as__const_8h.html" target="_top" xlink:title=" ">
<polygon fill="none" stroke="black" points="264,-112.5 264,-131.5 332,-131.5 332,-112.5 264,-112.5"/>
<text text-anchor="middle" x="298" y="-119.5" font-family="Helvetica,sans-Serif" font-size="10.00">as_const.h</text>
</a>
</g>
</g>
<!-- Node23&#45;&gt;Node26 -->
<g id="edge21" class="edge">
<title>Node23&#45;&gt;Node26</title>
<path fill="none" stroke="midnightblue" d="M462.1,-168.44C428.73,-159.2 375.41,-144.44 338.65,-134.26"/>
<polygon fill="midnightblue" stroke="midnightblue" points="339.33,-130.81 328.75,-131.52 337.46,-137.56 339.33,-130.81"/>
</g>
<!-- Node27 -->
<g id="node20" class="node">
<title>Node27</title>
<g id="a_node20"><a xlink:href="narrow_8h.html" target="_top" xlink:title=" ">
<polygon fill="none" stroke="black" points="639.5,-112.5 639.5,-131.5 698.5,-131.5 698.5,-112.5 639.5,-112.5"/>
<text text-anchor="middle" x="669" y="-119.5" font-family="Helvetica,sans-Serif" font-size="10.00">narrow.h</text>
</a>
</g>
</g>
<!-- Node23&#45;&gt;Node27 -->
<g id="edge22" class="edge">
<title>Node23&#45;&gt;Node27</title>
<path fill="none" stroke="midnightblue" d="M520.89,-168.44C550.75,-159.28 598.31,-144.69 631.46,-134.52"/>
<polygon fill="midnightblue" stroke="midnightblue" points="632.71,-137.8 641.24,-131.52 630.66,-131.1 632.71,-137.8"/>
</g>
<!-- Node27&#45;&gt;Node8 -->
<g id="edge24" class="edge">
<title>Node27&#45;&gt;Node8</title>
<path fill="none" stroke="midnightblue" d="M698.79,-112.44C730.83,-103.24 781.93,-88.56 817.35,-78.39"/>
<polygon fill="midnightblue" stroke="midnightblue" points="818.71,-81.64 827.35,-75.52 816.77,-74.91 818.71,-81.64"/>
</g>
<!-- Node27&#45;&gt;Node11 -->
<g id="edge23" class="edge">
<title>Node27&#45;&gt;Node11</title>
<path fill="none" stroke="midnightblue" d="M673.39,-112.37C682.55,-94.38 703.85,-52.55 716.03,-28.63"/>
<polygon fill="midnightblue" stroke="midnightblue" points="719.21,-30.09 720.63,-19.59 712.97,-26.92 719.21,-30.09"/>
</g>
<!-- Node29 -->
<g id="node22" class="node">
<title>Node29</title>
<g id="a_node22"><a xlink:title=" ">
<polygon fill="none" stroke="#bfbfbf" points="18.5,-168.5 18.5,-187.5 131.5,-187.5 131.5,-168.5 18.5,-168.5"/>
<text text-anchor="middle" x="75" y="-175.5" font-family="Helvetica,sans-Serif" font-size="10.00">nonstd/optional.hpp</text>
</a>
</g>
</g>
<!-- Node28&#45;&gt;Node29 -->
<g id="edge26" class="edge">
<title>Node28&#45;&gt;Node29</title>
<path fill="none" stroke="midnightblue" d="M85.02,-224.08C83.43,-216.93 81.14,-206.64 79.15,-197.69"/>
<polygon fill="midnightblue" stroke="midnightblue" points="82.53,-196.75 76.94,-187.75 75.7,-198.27 82.53,-196.75"/>
</g>
<!-- Node30&#45;&gt;Node11 -->
<g id="edge29" class="edge">
<title>Node30&#45;&gt;Node11</title>
<path fill="none" stroke="midnightblue" d="M215.98,-392.4C229.89,-384.95 247.71,-372.74 256,-356 304.11,-258.81 186.85,-196.35 255,-112 308.3,-46.03 573.18,-21.15 680.12,-13.7"/>
<polygon fill="midnightblue" stroke="midnightblue" points="680.52,-17.18 690.26,-13.01 680.05,-10.19 680.52,-17.18"/>
</g>
<!-- Node31 -->
<g id="node24" class="node">
<title>Node31</title>
<g id="a_node24"><a xlink:href="exception__utils_8h.html" target="_top" xlink:title=" ">
<polygon fill="none" stroke="black" points="147,-336.5 147,-355.5 247,-355.5 247,-336.5 147,-336.5"/>
<text text-anchor="middle" x="197" y="-343.5" font-family="Helvetica,sans-Serif" font-size="10.00">exception_utils.h</text>
</a>
</g>
</g>
<!-- Node30&#45;&gt;Node31 -->
<g id="edge30" class="edge">
<title>Node30&#45;&gt;Node31</title>
<path fill="none" stroke="midnightblue" d="M197,-392.08C197,-385.01 197,-374.86 197,-365.99"/>
<polygon fill="midnightblue" stroke="midnightblue" points="200.5,-365.75 197,-355.75 193.5,-365.75 200.5,-365.75"/>
</g>
<!-- Node30&#45;&gt;Node32 -->
<g id="edge34" class="edge">
<title>Node30&#45;&gt;Node32</title>
<path fill="none" stroke="midnightblue" d="M222.35,-392.44C249.27,-383.36 292,-368.94 322.09,-358.78"/>
<polygon fill="midnightblue" stroke="midnightblue" points="323.41,-362.03 331.77,-355.52 321.17,-355.4 323.41,-362.03"/>
</g>
<!-- Node31&#45;&gt;Node4 -->
<g id="edge33" class="edge">
<title>Node31&#45;&gt;Node4</title>
<path fill="none" stroke="midnightblue" d="M184.47,-336.32C172.41,-327.98 153.97,-315.21 139.73,-305.35"/>
<polygon fill="midnightblue" stroke="midnightblue" points="141.72,-302.47 131.5,-299.65 137.73,-308.22 141.72,-302.47"/>
</g>
<!-- Node31&#45;&gt;Node6 -->
<g id="edge31" class="edge">
<title>Node31&#45;&gt;Node6</title>
<path fill="none" stroke="midnightblue" d="M197.13,-336.44C197.4,-317.94 198,-272.81 198,-235 198,-235 198,-235 198,-177 198,-146.2 206.15,-138.4 222,-112 242.4,-78.02 275.01,-44.95 294.87,-26.36"/>
<polygon fill="midnightblue" stroke="midnightblue" points="297.3,-28.88 302.29,-19.53 292.56,-23.73 297.3,-28.88"/>
</g>
<!-- Node31&#45;&gt;Node8 -->
<g id="edge32" class="edge">
<title>Node31&#45;&gt;Node8</title>
<path fill="none" stroke="midnightblue" d="M247.14,-337.82C330.25,-324.99 500.95,-294.6 638,-244 688.35,-225.41 699.31,-216.17 745,-188 781.33,-165.61 795.02,-164.22 823,-132 835.11,-118.05 844.41,-99.05 850.2,-85.19"/>
<polygon fill="midnightblue" stroke="midnightblue" points="853.5,-86.35 853.93,-75.77 846.99,-83.78 853.5,-86.35"/>
</g>
<!-- Node35 -->
<g id="node28" class="node">
<title>Node35</title>
<g id="a_node28"><a xlink:href="deprecate_8h.html" target="_top" xlink:title=" ">
<polygon fill="none" stroke="black" points="272,-448.5 272,-467.5 346,-467.5 346,-448.5 272,-448.5"/>
<text text-anchor="middle" x="309" y="-455.5" font-family="Helvetica,sans-Serif" font-size="10.00">deprecate.h</text>
</a>
</g>
</g>
<!-- Node34&#45;&gt;Node35 -->
<g id="edge38" class="edge">
<title>Node34&#45;&gt;Node35</title>
<path fill="none" stroke="midnightblue" d="M715.9,-803.87C586.8,-802.35 198,-789 198,-683 198,-683 198,-683 198,-569 198,-522.82 247.06,-489.43 279.95,-472.23"/>
<polygon fill="midnightblue" stroke="midnightblue" points="281.79,-475.22 289.16,-467.61 278.65,-468.96 281.79,-475.22"/>
</g>
<!-- Node36 -->
<g id="node29" class="node">
<title>Node36</title>
<g id="a_node29"><a xlink:href="pointer__expr_8h.html" target="_top" xlink:title=" ">
<polygon fill="none" stroke="black" points="714,-734 714,-753 800,-753 800,-734 714,-734"/>
<text text-anchor="middle" x="757" y="-741" font-family="Helvetica,sans-Serif" font-size="10.00">pointer_expr.h</text>
</a>
</g>
</g>
<!-- Node34&#45;&gt;Node36 -->
<g id="edge39" class="edge">
<title>Node34&#45;&gt;Node36</title>
<path fill="none" stroke="midnightblue" d="M757,-795.48C757,-787.08 757,-773.98 757,-763.16"/>
<polygon fill="midnightblue" stroke="midnightblue" points="760.5,-763.01 757,-753.01 753.5,-763.01 760.5,-763.01"/>
</g>
<!-- Node37 -->
<g id="node30" class="node">
<title>Node37</title>
<g id="a_node30"><a xlink:href="bitvector__types_8h.html" target="_top" xlink:title=" ">
<polygon fill="none" stroke="black" points="655.5,-672.5 655.5,-691.5 756.5,-691.5 756.5,-672.5 655.5,-672.5"/>
<text text-anchor="middle" x="706" y="-679.5" font-family="Helvetica,sans-Serif" font-size="10.00">bitvector_types.h</text>
</a>
</g>
</g>
<!-- Node36&#45;&gt;Node37 -->
<g id="edge40" class="edge">
<title>Node36&#45;&gt;Node37</title>
<path fill="none" stroke="midnightblue" d="M749.69,-733.98C741.97,-724.96 729.59,-710.52 719.98,-699.31"/>
<polygon fill="midnightblue" stroke="midnightblue" points="722.46,-696.82 713.29,-691.51 717.14,-701.38 722.46,-696.82"/>
</g>
<!-- Node46 -->
<g id="node40" class="node">
<title>Node46</title>
<g id="a_node40"><a xlink:href="std__expr_8h.html" target="_top" xlink:title=" ">
<polygon fill="none" stroke="black" points="774.5,-672.5 774.5,-691.5 841.5,-691.5 841.5,-672.5 774.5,-672.5"/>
<text text-anchor="middle" x="808" y="-679.5" font-family="Helvetica,sans-Serif" font-size="10.00">std_expr.h</text>
</a>
</g>
</g>
<!-- Node36&#45;&gt;Node46 -->
<g id="edge63" class="edge">
<title>Node36&#45;&gt;Node46</title>
<path fill="none" stroke="midnightblue" d="M764.31,-733.98C772.03,-724.96 784.41,-710.52 794.02,-699.31"/>
<polygon fill="midnightblue" stroke="midnightblue" points="796.86,-701.38 800.71,-691.51 791.54,-696.82 796.86,-701.38"/>
</g>
<!-- Node38 -->
<g id="node31" class="node">
<title>Node38</title>
<g id="a_node31"><a xlink:href="std__types_8h.html" target="_top" xlink:title=" ">
<polygon fill="none" stroke="black" points="668.5,-616.5 668.5,-635.5 741.5,-635.5 741.5,-616.5 668.5,-616.5"/>
<text text-anchor="middle" x="705" y="-623.5" font-family="Helvetica,sans-Serif" font-size="10.00">std_types.h</text>
</a>
</g>
</g>
<!-- Node37&#45;&gt;Node38 -->
<g id="edge41" class="edge">
<title>Node37&#45;&gt;Node38</title>
<path fill="none" stroke="midnightblue" d="M705.83,-672.08C705.7,-665.01 705.52,-654.86 705.35,-645.99"/>
<polygon fill="midnightblue" stroke="midnightblue" points="708.85,-645.68 705.16,-635.75 701.85,-645.81 708.85,-645.68"/>
</g>
<!-- Node38&#45;&gt;Node8 -->
<g id="edge56" class="edge">
<title>Node38&#45;&gt;Node8</title>
<path fill="none" stroke="midnightblue" d="M707.65,-616.3C722.26,-568.17 794.12,-329.58 843,-132 846.82,-116.57 850.58,-98.94 853.24,-85.94"/>
<polygon fill="midnightblue" stroke="midnightblue" points="856.72,-86.37 855.27,-75.87 849.86,-84.98 856.72,-86.37"/>
</g>
<!-- Node38&#45;&gt;Node30 -->
<g id="edge61" class="edge">
<title>Node38&#45;&gt;Node30</title>
<path fill="none" stroke="midnightblue" d="M668.3,-619.74C558.96,-603.26 239.22,-548.81 179,-468 168.65,-454.12 176.27,-434.58 184.54,-420.56"/>
<polygon fill="midnightblue" stroke="midnightblue" points="187.67,-422.17 190.17,-411.87 181.79,-418.36 187.67,-422.17"/>
</g>
<!-- Node39 -->
<g id="node32" class="node">
<title>Node39</title>
<g id="a_node32"><a xlink:href="expr_8h.html" target="_top" xlink:title=" ">
<polygon fill="none" stroke="black" points="481.5,-504.5 481.5,-523.5 528.5,-523.5 528.5,-504.5 481.5,-504.5"/>
<text text-anchor="middle" x="505" y="-511.5" font-family="Helvetica,sans-Serif" font-size="10.00">expr.h</text>
</a>
</g>
</g>
<!-- Node38&#45;&gt;Node39 -->
<g id="edge42" class="edge">
<title>Node38&#45;&gt;Node39</title>
<path fill="none" stroke="midnightblue" d="M705.05,-616.48C704.66,-602.6 701.77,-575.15 686,-560 665.14,-539.98 585.3,-525.99 538.92,-519.36"/>
<polygon fill="midnightblue" stroke="midnightblue" points="539.12,-515.86 528.73,-517.95 538.16,-522.79 539.12,-515.86"/>
</g>
<!-- Node42 -->
<g id="node35" class="node">
<title>Node42</title>
<g id="a_node35"><a xlink:href="expr__cast_8h.html" target="_top" xlink:title="Templated functions to cast to specific exprt&#45;derived classes.">
<polygon fill="none" stroke="black" points="771.5,-560.5 771.5,-579.5 844.5,-579.5 844.5,-560.5 771.5,-560.5"/>
<text text-anchor="middle" x="808" y="-567.5" font-family="Helvetica,sans-Serif" font-size="10.00">expr_cast.h</text>
</a>
</g>
</g>
<!-- Node38&#45;&gt;Node42 -->
<g id="edge50" class="edge">
<title>Node38&#45;&gt;Node42</title>
<path fill="none" stroke="midnightblue" d="M721.55,-616.32C737.99,-607.7 763.43,-594.36 782.47,-584.39"/>
<polygon fill="midnightblue" stroke="midnightblue" points="784.26,-587.4 791.49,-579.65 781.01,-581.2 784.26,-587.4"/>
</g>
<!-- Node44 -->
<g id="node37" class="node">
<title>Node44</title>
<g id="a_node37"><a xlink:href="mp__arith_8h.html" target="_top" xlink:title=" ">
<polygon fill="none" stroke="black" points="37.5,-112.5 37.5,-131.5 106.5,-131.5 106.5,-112.5 37.5,-112.5"/>
<text text-anchor="middle" x="72" y="-119.5" font-family="Helvetica,sans-Serif" font-size="10.00">mp_arith.h</text>
</a>
</g>
</g>
<!-- Node38&#45;&gt;Node44 -->
<g id="edge57" class="edge">
<title>Node38&#45;&gt;Node44</title>
<path fill="none" stroke="midnightblue" d="M668.38,-622.59C606.97,-617.98 479.66,-605.97 375,-580 304.72,-562.56 282.49,-563.8 222,-524 74.29,-426.82 45.85,-360.93 9,-188 7.15,-179.31 4.93,-175.9 9,-168 16.08,-154.25 29.52,-143.77 42.18,-136.39"/>
<polygon fill="midnightblue" stroke="midnightblue" points="44,-139.39 51.15,-131.57 40.69,-133.22 44,-139.39"/>
</g>
<!-- Node19 -->
<g id="node39" class="node">
<title>Node19</title>
<g id="a_node39"><a xlink:title=" ">
<polygon fill="none" stroke="#bfbfbf" points="583.5,-560.5 583.5,-579.5 676.5,-579.5 676.5,-560.5 583.5,-560.5"/>
<text text-anchor="middle" x="630" y="-567.5" font-family="Helvetica,sans-Serif" font-size="10.00">unordered_map</text>
</a>
</g>
</g>
<!-- Node38&#45;&gt;Node19 -->
<g id="edge62" class="edge">
<title>Node38&#45;&gt;Node19</title>
<path fill="none" stroke="midnightblue" d="M692.95,-616.32C681.54,-608.11 664.17,-595.6 650.57,-585.81"/>
<polygon fill="midnightblue" stroke="midnightblue" points="652.43,-582.84 642.27,-579.83 648.34,-588.52 652.43,-582.84"/>
</g>
<!-- Node39&#45;&gt;Node3 -->
<g id="edge45" class="edge">
<title>Node39&#45;&gt;Node3</title>
<path fill="none" stroke="midnightblue" d="M481.26,-508.81C439.47,-501.38 349.81,-485.23 264.32,-468.22"/>
<polygon fill="midnightblue" stroke="midnightblue" points="264.95,-464.78 254.45,-466.25 263.57,-471.65 264.95,-464.78"/>
</g>
<!-- Node39&#45;&gt;Node26 -->
<g id="edge43" class="edge">
<title>Node39&#45;&gt;Node26</title>
<path fill="none" stroke="midnightblue" d="M528.65,-505.67C545.99,-498.92 568.31,-487 579,-468 583.36,-460.25 582.1,-456.33 579,-448 524.88,-302.66 373.3,-179.02 318.28,-137.7"/>
<polygon fill="midnightblue" stroke="midnightblue" points="320.14,-134.72 310.02,-131.58 315.97,-140.35 320.14,-134.72"/>
</g>
<!-- Node39&#45;&gt;Node32 -->
<g id="edge48" class="edge">
<title>Node39&#45;&gt;Node32</title>
<path fill="none" stroke="midnightblue" d="M484.97,-504.37C469.02,-496.69 446.96,-484.18 432,-468 406.23,-440.12 413.63,-423.87 393,-392 386.54,-382.03 378.33,-371.62 371.38,-363.33"/>
<polygon fill="midnightblue" stroke="midnightblue" points="373.89,-360.88 364.72,-355.57 368.57,-365.44 373.89,-360.88"/>
</g>
<!-- Node39&#45;&gt;Node33 -->
<g id="edge47" class="edge">
<title>Node39&#45;&gt;Node33</title>
<path fill="none" stroke="midnightblue" d="M481.09,-506.03C458.45,-498.73 424.12,-485.85 398,-468 378.23,-454.49 359.68,-434.03 347.89,-419.69"/>
<polygon fill="midnightblue" stroke="midnightblue" points="350.46,-417.29 341.48,-411.66 344.99,-421.66 350.46,-417.29"/>
</g>
<!-- Node39&#45;&gt;Node35 -->
<g id="edge44" class="edge">
<title>Node39&#45;&gt;Node35</title>
<path fill="none" stroke="midnightblue" d="M481.36,-506.49C448.79,-497.51 389.64,-481.22 349.83,-470.25"/>
<polygon fill="midnightblue" stroke="midnightblue" points="350.73,-466.87 340.16,-467.58 348.87,-473.61 350.73,-466.87"/>
</g>
<!-- Node40 -->
<g id="node33" class="node">
<title>Node40</title>
<g id="a_node33"><a xlink:href="validate__expressions_8h.html" target="_top" xlink:title=" ">
<polygon fill="none" stroke="black" points="440.5,-448.5 440.5,-467.5 569.5,-467.5 569.5,-448.5 440.5,-448.5"/>
<text text-anchor="middle" x="505" y="-455.5" font-family="Helvetica,sans-Serif" font-size="10.00">validate_expressions.h</text>
</a>
</g>
</g>
<!-- Node39&#45;&gt;Node40 -->
<g id="edge46" class="edge">
<title>Node39&#45;&gt;Node40</title>
<path fill="none" stroke="midnightblue" d="M505,-504.08C505,-497.01 505,-486.86 505,-477.99"/>
<polygon fill="midnightblue" stroke="midnightblue" points="508.5,-477.75 505,-467.75 501.5,-477.75 508.5,-477.75"/>
</g>
<!-- Node41 -->
<g id="node34" class="node">
<title>Node41</title>
<g id="a_node34"><a xlink:title=" ">
<polygon fill="none" stroke="#bfbfbf" points="662.5,-448.5 662.5,-467.5 727.5,-467.5 727.5,-448.5 662.5,-448.5"/>
<text text-anchor="middle" x="695" y="-455.5" font-family="Helvetica,sans-Serif" font-size="10.00">functional</text>
</a>
</g>
</g>
<!-- Node39&#45;&gt;Node41 -->
<g id="edge49" class="edge">
<title>Node39&#45;&gt;Node41</title>
<path fill="none" stroke="midnightblue" d="M528.68,-506.27C560.37,-497.26 617,-481.17 655.28,-470.29"/>
<polygon fill="midnightblue" stroke="midnightblue" points="656.41,-473.61 665.07,-467.51 654.49,-466.87 656.41,-473.61"/>
</g>
<!-- Node42&#45;&gt;Node8 -->
<g id="edge54" class="edge">
<title>Node42&#45;&gt;Node8</title>
<path fill="none" stroke="midnightblue" d="M844.64,-561.86C867.57,-555.58 896.06,-544.17 914,-524 934,-501.51 933,-489.1 933,-459 933,-459 933,-459 933,-177 933,-146.2 926.53,-137.32 909,-112 900.82,-100.19 888.85,-89.54 878.45,-81.57"/>
<polygon fill="midnightblue" stroke="midnightblue" points="880.34,-78.62 870.2,-75.54 876.21,-84.27 880.34,-78.62"/>
</g>
<!-- Node42&#45;&gt;Node11 -->
<g id="edge52" class="edge">
<title>Node42&#45;&gt;Node11</title>
<path fill="none" stroke="midnightblue" d="M811.36,-560.42C834.87,-499.72 971.87,-135 901,-56 892.15,-46.14 819.08,-29.83 769.92,-19.79"/>
<polygon fill="midnightblue" stroke="midnightblue" points="770.31,-16.3 759.82,-17.75 768.93,-23.16 770.31,-16.3"/>
</g>
<!-- Node42&#45;&gt;Node39 -->
<g id="edge55" class="edge">
<title>Node42&#45;&gt;Node39</title>
<path fill="none" stroke="midnightblue" d="M771.45,-562.49C712.18,-551.92 595.96,-531.21 538.63,-520.99"/>
<polygon fill="midnightblue" stroke="midnightblue" points="539.09,-517.52 528.63,-519.21 537.86,-524.41 539.09,-517.52"/>
</g>
<!-- Node42&#45;&gt;Node41 -->
<g id="edge53" class="edge">
<title>Node42&#45;&gt;Node41</title>
<path fill="none" stroke="midnightblue" d="M799.13,-560.37C780.15,-541.89 735.36,-498.29 711.17,-474.74"/>
<polygon fill="midnightblue" stroke="midnightblue" points="713.43,-472.06 703.83,-467.59 708.55,-477.07 713.43,-472.06"/>
</g>
<!-- Node43 -->
<g id="node36" class="node">
<title>Node43</title>
<g id="a_node36"><a xlink:title=" ">
<polygon fill="none" stroke="#bfbfbf" points="847.5,-504.5 847.5,-523.5 904.5,-523.5 904.5,-504.5 847.5,-504.5"/>
<text text-anchor="middle" x="876" y="-511.5" font-family="Helvetica,sans-Serif" font-size="10.00">typeinfo</text>
</a>
</g>
</g>
<!-- Node42&#45;&gt;Node43 -->
<g id="edge51" class="edge">
<title>Node42&#45;&gt;Node43</title>
<path fill="none" stroke="midnightblue" d="M818.93,-560.32C829.17,-552.18 844.72,-539.84 857,-530.09"/>
<polygon fill="midnightblue" stroke="midnightblue" points="859.22,-532.79 864.88,-523.83 854.87,-527.31 859.22,-532.79"/>
</g>
<!-- Node44&#45;&gt;Node6 -->
<g id="edge59" class="edge">
<title>Node44&#45;&gt;Node6</title>
<path fill="none" stroke="midnightblue" d="M79.29,-112.45C91.61,-98.54 117.98,-71.04 146,-56 189.15,-32.83 245.16,-20.88 279.83,-15.28"/>
<polygon fill="midnightblue" stroke="midnightblue" points="280.51,-18.72 289.87,-13.74 279.45,-11.8 280.51,-18.72"/>
</g>
<!-- Node44&#45;&gt;Node14 -->
<g id="edge58" class="edge">
<title>Node44&#45;&gt;Node14</title>
<path fill="none" stroke="midnightblue" d="M94.18,-112.44C117.43,-103.48 154.15,-89.31 180.42,-79.18"/>
<polygon fill="midnightblue" stroke="midnightblue" points="181.85,-82.38 189.92,-75.52 179.33,-75.85 181.85,-82.38"/>
</g>
<!-- Node45 -->
<g id="node38" class="node">
<title>Node45</title>
<g id="a_node38"><a xlink:title=" ">
<polygon fill="none" stroke="#bfbfbf" points="0,-56.5 0,-75.5 94,-75.5 94,-56.5 0,-56.5"/>
<text text-anchor="middle" x="47" y="-63.5" font-family="Helvetica,sans-Serif" font-size="10.00">big&#45;int/bigint.hh</text>
</a>
</g>
</g>
<!-- Node44&#45;&gt;Node45 -->
<g id="edge60" class="edge">
<title>Node44&#45;&gt;Node45</title>
<path fill="none" stroke="midnightblue" d="M67.87,-112.08C64.49,-104.77 59.58,-94.18 55.38,-85.1"/>
<polygon fill="midnightblue" stroke="midnightblue" points="58.43,-83.36 51.05,-75.75 52.08,-86.3 58.43,-83.36"/>
</g>
<!-- Node46&#45;&gt;Node8 -->
<g id="edge65" class="edge">
<title>Node46&#45;&gt;Node8</title>
<path fill="none" stroke="midnightblue" d="M841.77,-674.12C889.52,-662.19 971,-632.79 971,-571 971,-571 971,-571 971,-177 971,-130.11 920.45,-96.89 886.67,-79.93"/>
<polygon fill="midnightblue" stroke="midnightblue" points="888.17,-76.77 877.64,-75.58 885.13,-83.07 888.17,-76.77"/>
</g>
<!-- Node46&#45;&gt;Node38 -->
<g id="edge66" class="edge">
<title>Node46&#45;&gt;Node38</title>
<path fill="none" stroke="midnightblue" d="M791.45,-672.32C775.01,-663.7 749.57,-650.36 730.53,-640.39"/>
<polygon fill="midnightblue" stroke="midnightblue" points="731.99,-637.2 721.51,-635.65 728.74,-643.4 731.99,-637.2"/>
</g>
<!-- Node46&#45;&gt;Node42 -->
<g id="edge64" class="edge">
<title>Node46&#45;&gt;Node42</title>
<path fill="none" stroke="midnightblue" d="M808,-672.37C808,-654.62 808,-613.67 808,-589.6"/>
<polygon fill="midnightblue" stroke="midnightblue" points="811.5,-589.59 808,-579.59 804.5,-589.59 811.5,-589.59"/>
</g>
<!-- Node47&#45;&gt;Node5 -->
<g id="edge70" class="edge">
<title>Node47&#45;&gt;Node5</title>
<path fill="none" stroke="midnightblue" d="M999.18,-282.81C907.15,-271.59 715.36,-248.21 639.19,-238.92"/>
<polygon fill="midnightblue" stroke="midnightblue" points="639.58,-235.45 629.23,-237.71 638.74,-242.39 639.58,-235.45"/>
</g>
<!-- Node47&#45;&gt;Node8 -->
<g id="edge69" class="edge">
<title>Node47&#45;&gt;Node8</title>
<path fill="none" stroke="midnightblue" d="M1049.35,-280.24C1046.79,-251.83 1034.88,-161.19 985,-112 962.69,-90 929.01,-78.71 901.8,-72.95"/>
<polygon fill="midnightblue" stroke="midnightblue" points="902.21,-69.46 891.72,-71 900.88,-76.33 902.21,-69.46"/>
</g>
</g>
</svg>
