<?xml version="1.0" encoding="UTF-8" standalone="no"?>
<!DOCTYPE svg PUBLIC "-//W3C//DTD SVG 1.1//EN"
 "http://www.w3.org/Graphics/SVG/1.1/DTD/svg11.dtd">
<!-- Generated by graphviz version 2.43.0 (0)
 -->
<!-- Title: /home/runner/work/cbmc/cbmc/src/ansi&#45;c/c_expr.cpp Pages: 1 -->
<svg width="869pt" height="543pt"
 viewBox="0.00 0.00 869.00 543.00" xmlns="http://www.w3.org/2000/svg" xmlns:xlink="http://www.w3.org/1999/xlink">
<g id="graph0" class="graph" transform="scale(1 1) rotate(0) translate(4 539)">
<title>/home/runner/work/cbmc/cbmc/src/ansi&#45;c/c_expr.cpp</title>
<!-- Node1 -->
<g id="node1" class="node">
<title>Node1</title>
<g id="a_node1"><a xlink:title=" ">
<polygon fill="#bfbfbf" stroke="black" points="534,-504.5 534,-534.5 684,-534.5 684,-504.5 534,-504.5"/>
<text text-anchor="start" x="542" y="-522.5" font-family="Helvetica,sans-Serif" font-size="10.00">/home/runner/work/cbmc</text>
<text text-anchor="middle" x="609" y="-511.5" font-family="Helvetica,sans-Serif" font-size="10.00">/cbmc/src/ansi&#45;c/c_expr.cpp</text>
</a>
</g>
</g>
<!-- Node2 -->
<g id="node2" class="node">
<title>Node2</title>
<g id="a_node2"><a xlink:href="c__expr_8h.html" target="_top" xlink:title="API to expression classes that are internal to the C frontend.">
<polygon fill="none" stroke="black" points="552.5,-448.5 552.5,-467.5 609.5,-467.5 609.5,-448.5 552.5,-448.5"/>
<text text-anchor="middle" x="581" y="-455.5" font-family="Helvetica,sans-Serif" font-size="10.00">c_expr.h</text>
</a>
</g>
</g>
<!-- Node1&#45;&gt;Node2 -->
<g id="edge1" class="edge">
<title>Node1&#45;&gt;Node2</title>
<path fill="none" stroke="midnightblue" d="M602.36,-504.4C598.46,-496.11 593.5,-485.55 589.33,-476.71"/>
<polygon fill="midnightblue" stroke="midnightblue" points="592.5,-475.22 585.07,-467.66 586.17,-478.2 592.5,-475.22"/>
</g>
<!-- Node46 -->
<g id="node27" class="node">
<title>Node46</title>
<g id="a_node27"><a xlink:href="arith__tools_8h.html" target="_top" xlink:title=" ">
<polygon fill="none" stroke="black" points="627,-392.5 627,-411.5 723,-411.5 723,-392.5 627,-392.5"/>
<text text-anchor="middle" x="675" y="-399.5" font-family="Helvetica,sans-Serif" font-size="10.00">util/arith_tools.h</text>
</a>
</g>
</g>
<!-- Node1&#45;&gt;Node46 -->
<g id="edge42" class="edge">
<title>Node1&#45;&gt;Node46</title>
<path fill="none" stroke="midnightblue" d="M617.09,-504.34C629.15,-483.24 651.8,-443.6 664.92,-420.65"/>
<polygon fill="midnightblue" stroke="midnightblue" points="668.12,-422.09 670.05,-411.67 662.05,-418.62 668.12,-422.09"/>
</g>
<!-- Node3 -->
<g id="node3" class="node">
<title>Node3</title>
<g id="a_node3"><a xlink:href="std__code_8h.html" target="_top" xlink:title=" ">
<polygon fill="none" stroke="black" points="511,-392.5 511,-411.5 599,-411.5 599,-392.5 511,-392.5"/>
<text text-anchor="middle" x="555" y="-399.5" font-family="Helvetica,sans-Serif" font-size="10.00">util/std_code.h</text>
</a>
</g>
</g>
<!-- Node2&#45;&gt;Node3 -->
<g id="edge2" class="edge">
<title>Node2&#45;&gt;Node3</title>
<path fill="none" stroke="midnightblue" d="M576.71,-448.08C573.15,-440.69 567.98,-429.95 563.58,-420.81"/>
<polygon fill="midnightblue" stroke="midnightblue" points="566.71,-419.24 559.21,-411.75 560.4,-422.28 566.71,-419.24"/>
</g>
<!-- Node4 -->
<g id="node4" class="node">
<title>Node4</title>
<g id="a_node4"><a xlink:title=" ">
<polygon fill="none" stroke="#bfbfbf" points="500,-336.5 500,-355.5 532,-355.5 532,-336.5 500,-336.5"/>
<text text-anchor="middle" x="516" y="-343.5" font-family="Helvetica,sans-Serif" font-size="10.00">list</text>
</a>
</g>
</g>
<!-- Node3&#45;&gt;Node4 -->
<g id="edge3" class="edge">
<title>Node3&#45;&gt;Node4</title>
<path fill="none" stroke="midnightblue" d="M548.56,-392.08C543.05,-384.46 534.97,-373.26 528.24,-363.94"/>
<polygon fill="midnightblue" stroke="midnightblue" points="531.01,-361.81 522.32,-355.75 525.34,-365.91 531.01,-361.81"/>
</g>
<!-- Node5 -->
<g id="node5" class="node">
<title>Node5</title>
<g id="a_node5"><a xlink:href="std__code__base_8h.html" target="_top" xlink:title=" ">
<polygon fill="none" stroke="black" points="384,-336.5 384,-355.5 482,-355.5 482,-336.5 384,-336.5"/>
<text text-anchor="middle" x="433" y="-343.5" font-family="Helvetica,sans-Serif" font-size="10.00">std_code_base.h</text>
</a>
</g>
</g>
<!-- Node3&#45;&gt;Node5 -->
<g id="edge4" class="edge">
<title>Node3&#45;&gt;Node5</title>
<path fill="none" stroke="midnightblue" d="M535.67,-392.44C515.68,-383.6 484.26,-369.69 461.44,-359.59"/>
<polygon fill="midnightblue" stroke="midnightblue" points="462.8,-356.36 452.24,-355.52 459.97,-362.76 462.8,-356.36"/>
</g>
<!-- Node45 -->
<g id="node26" class="node">
<title>Node45</title>
<g id="a_node26"><a xlink:href="std__expr_8h.html" target="_top" xlink:title="API to expression classes.">
<polygon fill="none" stroke="black" points="550.5,-336.5 550.5,-355.5 617.5,-355.5 617.5,-336.5 550.5,-336.5"/>
<text text-anchor="middle" x="584" y="-343.5" font-family="Helvetica,sans-Serif" font-size="10.00">std_expr.h</text>
</a>
</g>
</g>
<!-- Node3&#45;&gt;Node45 -->
<g id="edge38" class="edge">
<title>Node3&#45;&gt;Node45</title>
<path fill="none" stroke="midnightblue" d="M559.79,-392.08C563.76,-384.69 569.53,-373.95 574.43,-364.81"/>
<polygon fill="midnightblue" stroke="midnightblue" points="577.65,-366.22 579.3,-355.75 571.49,-362.91 577.65,-366.22"/>
</g>
<!-- Node6 -->
<g id="node6" class="node">
<title>Node6</title>
<g id="a_node6"><a xlink:href="expr__cast_8h.html" target="_top" xlink:title="Templated functions to cast to specific exprt&#45;derived classes.">
<polygon fill="none" stroke="black" points="430.5,-224.5 430.5,-243.5 503.5,-243.5 503.5,-224.5 430.5,-224.5"/>
<text text-anchor="middle" x="467" y="-231.5" font-family="Helvetica,sans-Serif" font-size="10.00">expr_cast.h</text>
</a>
</g>
</g>
<!-- Node5&#45;&gt;Node6 -->
<g id="edge5" class="edge">
<title>Node5&#45;&gt;Node6</title>
<path fill="none" stroke="midnightblue" d="M428.34,-336.25C422.18,-323.44 412.99,-299.04 421,-280 426.03,-268.05 435.94,-257.69 445.29,-249.93"/>
<polygon fill="midnightblue" stroke="midnightblue" points="447.44,-252.69 453.21,-243.81 443.16,-247.15 447.44,-252.69"/>
</g>
<!-- Node10 -->
<g id="node10" class="node">
<title>Node10</title>
<g id="a_node10"><a xlink:href="src_2util_2invariant_8h.html" target="_top" xlink:title=" ">
<polygon fill="none" stroke="black" points="575.5,-168.5 575.5,-187.5 644.5,-187.5 644.5,-168.5 575.5,-168.5"/>
<text text-anchor="middle" x="610" y="-175.5" font-family="Helvetica,sans-Serif" font-size="10.00">invariant.h</text>
</a>
</g>
</g>
<!-- Node5&#45;&gt;Node10 -->
<g id="edge26" class="edge">
<title>Node5&#45;&gt;Node10</title>
<path fill="none" stroke="midnightblue" d="M452.47,-336.44C469.29,-328.48 493.71,-315.53 512,-300 549.28,-268.35 582.8,-221.02 599.27,-195.96"/>
<polygon fill="midnightblue" stroke="midnightblue" points="602.23,-197.83 604.72,-187.53 596.35,-194.03 602.23,-197.83"/>
</g>
<!-- Node37 -->
<g id="node17" class="node">
<title>Node37</title>
<g id="a_node17"><a xlink:href="validate_8h.html" target="_top" xlink:title=" ">
<polygon fill="none" stroke="red" points="66.5,-56.5 66.5,-75.5 131.5,-75.5 131.5,-56.5 66.5,-56.5"/>
<text text-anchor="middle" x="99" y="-63.5" font-family="Helvetica,sans-Serif" font-size="10.00">validate.h</text>
</a>
</g>
</g>
<!-- Node5&#45;&gt;Node37 -->
<g id="edge37" class="edge">
<title>Node5&#45;&gt;Node37</title>
<path fill="none" stroke="midnightblue" d="M383.75,-342.86C270.26,-336.59 0,-313.43 0,-235 0,-235 0,-235 0,-177 0,-133.18 43.94,-98.93 73.27,-80.94"/>
<polygon fill="midnightblue" stroke="midnightblue" points="75.36,-83.77 82.21,-75.68 71.81,-77.74 75.36,-83.77"/>
</g>
<!-- Node42 -->
<g id="node21" class="node">
<title>Node42</title>
<g id="a_node21"><a xlink:href="std__types_8h.html" target="_top" xlink:title="Pre&#45;defined types.">
<polygon fill="none" stroke="black" points="430.5,-280.5 430.5,-299.5 503.5,-299.5 503.5,-280.5 430.5,-280.5"/>
<text text-anchor="middle" x="467" y="-287.5" font-family="Helvetica,sans-Serif" font-size="10.00">std_types.h</text>
</a>
</g>
</g>
<!-- Node5&#45;&gt;Node42 -->
<g id="edge27" class="edge">
<title>Node5&#45;&gt;Node42</title>
<path fill="none" stroke="midnightblue" d="M438.61,-336.08C443.37,-328.53 450.32,-317.49 456.15,-308.23"/>
<polygon fill="midnightblue" stroke="midnightblue" points="459.12,-310.08 461.49,-299.75 453.2,-306.35 459.12,-310.08"/>
</g>
<!-- Node7 -->
<g id="node7" class="node">
<title>Node7</title>
<g id="a_node7"><a xlink:title=" ">
<polygon fill="none" stroke="#bfbfbf" points="461.5,-168.5 461.5,-187.5 518.5,-187.5 518.5,-168.5 461.5,-168.5"/>
<text text-anchor="middle" x="490" y="-175.5" font-family="Helvetica,sans-Serif" font-size="10.00">typeinfo</text>
</a>
</g>
</g>
<!-- Node6&#45;&gt;Node7 -->
<g id="edge6" class="edge">
<title>Node6&#45;&gt;Node7</title>
<path fill="none" stroke="midnightblue" d="M470.8,-224.08C473.91,-216.77 478.42,-206.18 482.29,-197.1"/>
<polygon fill="midnightblue" stroke="midnightblue" points="485.57,-198.32 486.27,-187.75 479.13,-195.58 485.57,-198.32"/>
</g>
<!-- Node8 -->
<g id="node8" class="node">
<title>Node8</title>
<g id="a_node8"><a xlink:title=" ">
<polygon fill="none" stroke="#bfbfbf" points="512.5,-0.5 512.5,-19.5 581.5,-19.5 581.5,-0.5 512.5,-0.5"/>
<text text-anchor="middle" x="547" y="-7.5" font-family="Helvetica,sans-Serif" font-size="10.00">type_traits</text>
</a>
</g>
</g>
<!-- Node6&#45;&gt;Node8 -->
<g id="edge7" class="edge">
<title>Node6&#45;&gt;Node8</title>
<path fill="none" stroke="midnightblue" d="M485.48,-224.35C499.37,-216.81 517.56,-204.5 527,-188 556.26,-136.88 553.05,-63.85 549.49,-29.81"/>
<polygon fill="midnightblue" stroke="midnightblue" points="552.96,-29.37 548.32,-19.85 546.01,-30.19 552.96,-29.37"/>
</g>
<!-- Node9 -->
<g id="node9" class="node">
<title>Node9</title>
<g id="a_node9"><a xlink:title=" ">
<polygon fill="none" stroke="#bfbfbf" points="453.5,-112.5 453.5,-131.5 518.5,-131.5 518.5,-112.5 453.5,-112.5"/>
<text text-anchor="middle" x="486" y="-119.5" font-family="Helvetica,sans-Serif" font-size="10.00">functional</text>
</a>
</g>
</g>
<!-- Node6&#45;&gt;Node9 -->
<g id="edge8" class="edge">
<title>Node6&#45;&gt;Node9</title>
<path fill="none" stroke="midnightblue" d="M462.07,-224.44C455.48,-211.87 445.37,-187.76 452,-168 455.6,-157.25 462.9,-147.02 469.82,-139.04"/>
<polygon fill="midnightblue" stroke="midnightblue" points="472.48,-141.32 476.71,-131.61 467.35,-136.56 472.48,-141.32"/>
</g>
<!-- Node6&#45;&gt;Node10 -->
<g id="edge9" class="edge">
<title>Node6&#45;&gt;Node10</title>
<path fill="none" stroke="midnightblue" d="M489.66,-224.44C513.4,-215.48 550.91,-201.31 577.74,-191.18"/>
<polygon fill="midnightblue" stroke="midnightblue" points="579.33,-194.32 587.45,-187.52 576.86,-187.77 579.33,-194.32"/>
</g>
<!-- Node14 -->
<g id="node14" class="node">
<title>Node14</title>
<g id="a_node14"><a xlink:href="expr_8h.html" target="_top" xlink:title=" ">
<polygon fill="none" stroke="black" points="262.5,-168.5 262.5,-187.5 309.5,-187.5 309.5,-168.5 262.5,-168.5"/>
<text text-anchor="middle" x="286" y="-175.5" font-family="Helvetica,sans-Serif" font-size="10.00">expr.h</text>
</a>
</g>
</g>
<!-- Node6&#45;&gt;Node14 -->
<g id="edge14" class="edge">
<title>Node6&#45;&gt;Node14</title>
<path fill="none" stroke="midnightblue" d="M438.32,-224.44C406.07,-214.82 353.76,-199.21 319.61,-189.03"/>
<polygon fill="midnightblue" stroke="midnightblue" points="320.23,-185.56 309.64,-186.05 318.22,-192.27 320.23,-185.56"/>
</g>
<!-- Node10&#45;&gt;Node8 -->
<g id="edge13" class="edge">
<title>Node10&#45;&gt;Node8</title>
<path fill="none" stroke="midnightblue" d="M606.61,-168.08C596.65,-141.83 567.32,-64.55 553.88,-29.12"/>
<polygon fill="midnightblue" stroke="midnightblue" points="557.07,-27.68 550.25,-19.57 550.53,-30.16 557.07,-27.68"/>
</g>
<!-- Node11 -->
<g id="node11" class="node">
<title>Node11</title>
<g id="a_node11"><a xlink:title=" ">
<polygon fill="none" stroke="#bfbfbf" points="613.5,-112.5 613.5,-131.5 662.5,-131.5 662.5,-112.5 613.5,-112.5"/>
<text text-anchor="middle" x="638" y="-119.5" font-family="Helvetica,sans-Serif" font-size="10.00">cstdlib</text>
</a>
</g>
</g>
<!-- Node10&#45;&gt;Node11 -->
<g id="edge10" class="edge">
<title>Node10&#45;&gt;Node11</title>
<path fill="none" stroke="midnightblue" d="M614.62,-168.08C618.46,-160.69 624.02,-149.95 628.76,-140.81"/>
<polygon fill="midnightblue" stroke="midnightblue" points="631.97,-142.24 633.46,-131.75 625.75,-139.02 631.97,-142.24"/>
</g>
<!-- Node12 -->
<g id="node12" class="node">
<title>Node12</title>
<g id="a_node12"><a xlink:title=" ">
<polygon fill="none" stroke="#bfbfbf" points="681,-112.5 681,-131.5 737,-131.5 737,-112.5 681,-112.5"/>
<text text-anchor="middle" x="709" y="-119.5" font-family="Helvetica,sans-Serif" font-size="10.00">sstream</text>
</a>
</g>
</g>
<!-- Node10&#45;&gt;Node12 -->
<g id="edge11" class="edge">
<title>Node10&#45;&gt;Node12</title>
<path fill="none" stroke="midnightblue" d="M625.91,-168.32C641.64,-159.74 665.94,-146.49 684.21,-136.52"/>
<polygon fill="midnightblue" stroke="midnightblue" points="686.03,-139.52 693.13,-131.65 682.68,-133.37 686.03,-139.52"/>
</g>
<!-- Node13 -->
<g id="node13" class="node">
<title>Node13</title>
<g id="a_node13"><a xlink:title=" ">
<polygon fill="none" stroke="#bfbfbf" points="759,-112.5 759,-131.5 803,-131.5 803,-112.5 759,-112.5"/>
<text text-anchor="middle" x="781" y="-119.5" font-family="Helvetica,sans-Serif" font-size="10.00">string</text>
</a>
</g>
</g>
<!-- Node10&#45;&gt;Node13 -->
<g id="edge12" class="edge">
<title>Node10&#45;&gt;Node13</title>
<path fill="none" stroke="midnightblue" d="M637.1,-168.44C667.52,-158.84 716.84,-143.26 749.1,-133.07"/>
<polygon fill="midnightblue" stroke="midnightblue" points="750.44,-136.32 758.93,-129.97 748.34,-129.64 750.44,-136.32"/>
</g>
<!-- Node14&#45;&gt;Node9 -->
<g id="edge25" class="edge">
<title>Node14&#45;&gt;Node9</title>
<path fill="none" stroke="midnightblue" d="M309.73,-170.59C342.92,-161.63 403.73,-145.21 444.51,-134.2"/>
<polygon fill="midnightblue" stroke="midnightblue" points="445.67,-137.51 454.41,-131.53 443.85,-130.76 445.67,-137.51"/>
</g>
<!-- Node15 -->
<g id="node15" class="node">
<title>Node15</title>
<g id="a_node15"><a xlink:href="as__const_8h.html" target="_top" xlink:title=" ">
<polygon fill="none" stroke="black" points="367,-112.5 367,-131.5 435,-131.5 435,-112.5 367,-112.5"/>
<text text-anchor="middle" x="401" y="-119.5" font-family="Helvetica,sans-Serif" font-size="10.00">as_const.h</text>
</a>
</g>
</g>
<!-- Node14&#45;&gt;Node15 -->
<g id="edge15" class="edge">
<title>Node14&#45;&gt;Node15</title>
<path fill="none" stroke="midnightblue" d="M304.22,-168.44C322.9,-159.68 352.16,-145.94 373.62,-135.86"/>
<polygon fill="midnightblue" stroke="midnightblue" points="375.3,-138.93 382.86,-131.52 372.32,-132.6 375.3,-138.93"/>
</g>
<!-- Node16 -->
<g id="node16" class="node">
<title>Node16</title>
<g id="a_node16"><a xlink:href="type_8h.html" target="_top" xlink:title="Defines typet, type_with_subtypet and type_with_subtypest.">
<polygon fill="none" stroke="red" points="115.5,-112.5 115.5,-131.5 162.5,-131.5 162.5,-112.5 115.5,-112.5"/>
<text text-anchor="middle" x="139" y="-119.5" font-family="Helvetica,sans-Serif" font-size="10.00">type.h</text>
</a>
</g>
</g>
<!-- Node14&#45;&gt;Node16 -->
<g id="edge16" class="edge">
<title>Node14&#45;&gt;Node16</title>
<path fill="none" stroke="midnightblue" d="M262.71,-168.44C238.19,-159.44 199.4,-145.19 171.8,-135.05"/>
<polygon fill="midnightblue" stroke="midnightblue" points="172.78,-131.68 162.18,-131.52 170.36,-138.25 172.78,-131.68"/>
</g>
<!-- Node39 -->
<g id="node18" class="node">
<title>Node39</title>
<g id="a_node18"><a xlink:href="validation__mode_8h.html" target="_top" xlink:title=" ">
<polygon fill="none" stroke="black" points="45.5,-0.5 45.5,-19.5 152.5,-19.5 152.5,-0.5 45.5,-0.5"/>
<text text-anchor="middle" x="99" y="-7.5" font-family="Helvetica,sans-Serif" font-size="10.00">validation_mode.h</text>
</a>
</g>
</g>
<!-- Node14&#45;&gt;Node39 -->
<g id="edge24" class="edge">
<title>Node14&#45;&gt;Node39</title>
<path fill="none" stroke="midnightblue" d="M262.41,-175.58C226.28,-172.47 156.16,-162.65 106,-132 71.71,-111.05 42.26,-93.39 57,-56 61.51,-44.55 70.47,-34.29 78.95,-26.47"/>
<polygon fill="midnightblue" stroke="midnightblue" points="81.47,-28.93 86.79,-19.76 76.91,-23.61 81.47,-28.93"/>
</g>
<!-- Node40 -->
<g id="node19" class="node">
<title>Node40</title>
<g id="a_node19"><a xlink:href="validate__types_8h.html" target="_top" xlink:title=" ">
<polygon fill="none" stroke="black" points="188,-56.5 188,-75.5 286,-75.5 286,-56.5 188,-56.5"/>
<text text-anchor="middle" x="237" y="-63.5" font-family="Helvetica,sans-Serif" font-size="10.00">validate_types.h</text>
</a>
</g>
</g>
<!-- Node14&#45;&gt;Node40 -->
<g id="edge23" class="edge">
<title>Node14&#45;&gt;Node40</title>
<path fill="none" stroke="midnightblue" d="M262.47,-170.12C244.57,-163.51 221.16,-151.58 210,-132 201.06,-116.32 211.42,-97.11 221.78,-83.65"/>
<polygon fill="midnightblue" stroke="midnightblue" points="224.67,-85.65 228.39,-75.73 219.3,-81.17 224.67,-85.65"/>
</g>
<!-- Node41 -->
<g id="node20" class="node">
<title>Node41</title>
<g id="a_node20"><a xlink:href="validate__expressions_8h.html" target="_top" xlink:title=" ">
<polygon fill="none" stroke="black" points="219.5,-112.5 219.5,-131.5 348.5,-131.5 348.5,-112.5 219.5,-112.5"/>
<text text-anchor="middle" x="284" y="-119.5" font-family="Helvetica,sans-Serif" font-size="10.00">validate_expressions.h</text>
</a>
</g>
</g>
<!-- Node14&#45;&gt;Node41 -->
<g id="edge22" class="edge">
<title>Node14&#45;&gt;Node41</title>
<path fill="none" stroke="midnightblue" d="M285.67,-168.08C285.41,-161.01 285.03,-150.86 284.7,-141.99"/>
<polygon fill="midnightblue" stroke="midnightblue" points="288.19,-141.61 284.32,-131.75 281.2,-141.87 288.19,-141.61"/>
</g>
<!-- Node16&#45;&gt;Node37 -->
<g id="edge17" class="edge">
<title>Node16&#45;&gt;Node37</title>
<path fill="none" stroke="midnightblue" d="M132.39,-112.08C126.74,-104.46 118.46,-93.26 111.55,-83.94"/>
<polygon fill="midnightblue" stroke="midnightblue" points="114.25,-81.7 105.48,-75.75 108.62,-85.87 114.25,-81.7"/>
</g>
<!-- Node16&#45;&gt;Node39 -->
<g id="edge21" class="edge">
<title>Node16&#45;&gt;Node39</title>
<path fill="none" stroke="midnightblue" d="M141.15,-112.22C143.86,-99.38 147.34,-74.94 140,-56 135.55,-44.5 126.63,-34.13 118.25,-26.25"/>
<polygon fill="midnightblue" stroke="midnightblue" points="120.37,-23.46 110.54,-19.51 115.76,-28.73 120.37,-23.46"/>
</g>
<!-- Node16&#45;&gt;Node40 -->
<g id="edge20" class="edge">
<title>Node16&#45;&gt;Node40</title>
<path fill="none" stroke="midnightblue" d="M154.75,-112.32C170.32,-103.74 194.38,-90.49 212.46,-80.52"/>
<polygon fill="midnightblue" stroke="midnightblue" points="214.22,-83.55 221.29,-75.65 210.85,-77.42 214.22,-83.55"/>
</g>
<!-- Node37&#45;&gt;Node8 -->
<g id="edge18" class="edge">
<title>Node37&#45;&gt;Node8</title>
<path fill="none" stroke="midnightblue" d="M131.58,-61.07C210.51,-51.56 412.07,-27.26 502.23,-16.4"/>
<polygon fill="midnightblue" stroke="midnightblue" points="502.89,-19.84 512.4,-15.17 502.06,-12.89 502.89,-19.84"/>
</g>
<!-- Node37&#45;&gt;Node39 -->
<g id="edge19" class="edge">
<title>Node37&#45;&gt;Node39</title>
<path fill="none" stroke="midnightblue" d="M99,-56.08C99,-49.01 99,-38.86 99,-29.99"/>
<polygon fill="midnightblue" stroke="midnightblue" points="102.5,-29.75 99,-19.75 95.5,-29.75 102.5,-29.75"/>
</g>
<!-- Node42&#45;&gt;Node6 -->
<g id="edge29" class="edge">
<title>Node42&#45;&gt;Node6</title>
<path fill="none" stroke="midnightblue" d="M467,-280.08C467,-273.01 467,-262.86 467,-253.99"/>
<polygon fill="midnightblue" stroke="midnightblue" points="470.5,-253.75 467,-243.75 463.5,-253.75 470.5,-253.75"/>
</g>
<!-- Node42&#45;&gt;Node10 -->
<g id="edge30" class="edge">
<title>Node42&#45;&gt;Node10</title>
<path fill="none" stroke="midnightblue" d="M478.22,-280.37C502.55,-261.65 560.4,-217.15 590.72,-193.83"/>
<polygon fill="midnightblue" stroke="midnightblue" points="593.04,-196.46 598.83,-187.59 588.77,-190.91 593.04,-196.46"/>
</g>
<!-- Node42&#45;&gt;Node14 -->
<g id="edge28" class="edge">
<title>Node42&#45;&gt;Node14</title>
<path fill="none" stroke="midnightblue" d="M430.36,-287.69C395.28,-284.54 342.94,-274.57 310,-244 296.93,-231.87 290.95,-212 288.23,-197.41"/>
<polygon fill="midnightblue" stroke="midnightblue" points="291.69,-196.87 286.72,-187.51 284.77,-197.92 291.69,-196.87"/>
</g>
<!-- Node42&#45;&gt;Node37 -->
<g id="edge35" class="edge">
<title>Node42&#45;&gt;Node37</title>
<path fill="none" stroke="midnightblue" d="M430.36,-282.7C394.45,-275.79 338.62,-263.09 293,-244 203.63,-206.6 158.21,-213.6 106,-132 97.3,-118.41 96.11,-99.86 96.76,-86.06"/>
<polygon fill="midnightblue" stroke="midnightblue" points="100.28,-86.05 97.63,-75.79 93.3,-85.46 100.28,-86.05"/>
</g>
<!-- Node43 -->
<g id="node22" class="node">
<title>Node43</title>
<g id="a_node22"><a xlink:href="mp__arith_8h.html" target="_top" xlink:title=" ">
<polygon fill="none" stroke="black" points="750.5,-224.5 750.5,-243.5 819.5,-243.5 819.5,-224.5 750.5,-224.5"/>
<text text-anchor="middle" x="785" y="-231.5" font-family="Helvetica,sans-Serif" font-size="10.00">mp_arith.h</text>
</a>
</g>
</g>
<!-- Node42&#45;&gt;Node43 -->
<g id="edge31" class="edge">
<title>Node42&#45;&gt;Node43</title>
<path fill="none" stroke="midnightblue" d="M503.79,-282.75C562.48,-272.79 677.13,-253.32 740.4,-242.57"/>
<polygon fill="midnightblue" stroke="midnightblue" points="741.2,-245.99 750.48,-240.86 740.03,-239.09 741.2,-245.99"/>
</g>
<!-- Node27 -->
<g id="node25" class="node">
<title>Node27</title>
<g id="a_node25"><a xlink:title=" ">
<polygon fill="none" stroke="#bfbfbf" points="319.5,-224.5 319.5,-243.5 412.5,-243.5 412.5,-224.5 319.5,-224.5"/>
<text text-anchor="middle" x="366" y="-231.5" font-family="Helvetica,sans-Serif" font-size="10.00">unordered_map</text>
</a>
</g>
</g>
<!-- Node42&#45;&gt;Node27 -->
<g id="edge36" class="edge">
<title>Node42&#45;&gt;Node27</title>
<path fill="none" stroke="midnightblue" d="M450.77,-280.32C434.65,-271.7 409.7,-258.36 391.04,-248.39"/>
<polygon fill="midnightblue" stroke="midnightblue" points="392.66,-245.28 382.19,-243.65 389.36,-251.46 392.66,-245.28"/>
</g>
<!-- Node43&#45;&gt;Node13 -->
<g id="edge33" class="edge">
<title>Node43&#45;&gt;Node13</title>
<path fill="none" stroke="midnightblue" d="M784.69,-224.37C784.04,-206.62 782.55,-165.67 781.68,-141.6"/>
<polygon fill="midnightblue" stroke="midnightblue" points="785.17,-141.46 781.31,-131.59 778.18,-141.71 785.17,-141.46"/>
</g>
<!-- Node23 -->
<g id="node23" class="node">
<title>Node23</title>
<g id="a_node23"><a xlink:title=" ">
<polygon fill="none" stroke="#bfbfbf" points="813,-168.5 813,-187.5 861,-187.5 861,-168.5 813,-168.5"/>
<text text-anchor="middle" x="837" y="-175.5" font-family="Helvetica,sans-Serif" font-size="10.00">iosfwd</text>
</a>
</g>
</g>
<!-- Node43&#45;&gt;Node23 -->
<g id="edge32" class="edge">
<title>Node43&#45;&gt;Node23</title>
<path fill="none" stroke="midnightblue" d="M793.59,-224.08C801.16,-216.22 812.38,-204.57 821.51,-195.08"/>
<polygon fill="midnightblue" stroke="midnightblue" points="824.16,-197.38 828.57,-187.75 819.12,-192.53 824.16,-197.38"/>
</g>
<!-- Node44 -->
<g id="node24" class="node">
<title>Node44</title>
<g id="a_node24"><a xlink:title=" ">
<polygon fill="none" stroke="#bfbfbf" points="663,-168.5 663,-187.5 757,-187.5 757,-168.5 663,-168.5"/>
<text text-anchor="middle" x="710" y="-175.5" font-family="Helvetica,sans-Serif" font-size="10.00">big&#45;int/bigint.hh</text>
</a>
</g>
</g>
<!-- Node43&#45;&gt;Node44 -->
<g id="edge34" class="edge">
<title>Node43&#45;&gt;Node44</title>
<path fill="none" stroke="midnightblue" d="M772.95,-224.32C761.54,-216.11 744.17,-203.6 730.57,-193.81"/>
<polygon fill="midnightblue" stroke="midnightblue" points="732.43,-190.84 722.27,-187.83 728.34,-196.52 732.43,-190.84"/>
</g>
<!-- Node45&#45;&gt;Node6 -->
<g id="edge39" class="edge">
<title>Node45&#45;&gt;Node6</title>
<path fill="none" stroke="midnightblue" d="M574.82,-336.37C555.17,-317.89 508.79,-274.29 483.75,-250.74"/>
<polygon fill="midnightblue" stroke="midnightblue" points="485.82,-247.89 476.14,-243.59 481.03,-252.99 485.82,-247.89"/>
</g>
<!-- Node45&#45;&gt;Node10 -->
<g id="edge40" class="edge">
<title>Node45&#45;&gt;Node10</title>
<path fill="none" stroke="midnightblue" d="M585.4,-336.08C589.49,-309.95 601.51,-233.21 607.09,-197.58"/>
<polygon fill="midnightblue" stroke="midnightblue" points="610.57,-197.99 608.66,-187.57 603.65,-196.91 610.57,-197.99"/>
</g>
<!-- Node45&#45;&gt;Node42 -->
<g id="edge41" class="edge">
<title>Node45&#45;&gt;Node42</title>
<path fill="none" stroke="midnightblue" d="M565.46,-336.44C546.38,-327.64 516.43,-313.81 494.56,-303.72"/>
<polygon fill="midnightblue" stroke="midnightblue" points="496,-300.53 485.45,-299.52 493.07,-306.88 496,-300.53"/>
</g>
<!-- Node46&#45;&gt;Node10 -->
<g id="edge43" class="edge">
<title>Node46&#45;&gt;Node10</title>
<path fill="none" stroke="midnightblue" d="M672.45,-392.3C662.87,-359.56 628.85,-243.38 615.47,-197.67"/>
<polygon fill="midnightblue" stroke="midnightblue" points="618.77,-196.5 612.6,-187.88 612.05,-198.46 618.77,-196.5"/>
</g>
<!-- Node46&#45;&gt;Node43 -->
<g id="edge44" class="edge">
<title>Node46&#45;&gt;Node43</title>
<path fill="none" stroke="midnightblue" d="M723.24,-398.73C753.77,-394.48 791.12,-383.52 811,-356 833.66,-324.63 811.57,-277.52 796.48,-252.33"/>
<polygon fill="midnightblue" stroke="midnightblue" points="799.24,-250.16 790.96,-243.55 793.32,-253.88 799.24,-250.16"/>
</g>
<!-- Node46&#45;&gt;Node45 -->
<g id="edge46" class="edge">
<title>Node46&#45;&gt;Node45</title>
<path fill="none" stroke="midnightblue" d="M660.38,-392.32C646.05,-383.82 623.99,-370.73 607.25,-360.8"/>
<polygon fill="midnightblue" stroke="midnightblue" points="608.97,-357.75 598.58,-355.65 605.4,-363.77 608.97,-357.75"/>
</g>
<!-- Node35 -->
<g id="node28" class="node">
<title>Node35</title>
<g id="a_node28"><a xlink:href="optional_8h.html" target="_top" xlink:title=" ">
<polygon fill="none" stroke="red" points="674.5,-336.5 674.5,-355.5 739.5,-355.5 739.5,-336.5 674.5,-336.5"/>
<text text-anchor="middle" x="707" y="-343.5" font-family="Helvetica,sans-Serif" font-size="10.00">optional.h</text>
</a>
</g>
</g>
<!-- Node46&#45;&gt;Node35 -->
<g id="edge45" class="edge">
<title>Node46&#45;&gt;Node35</title>
<path fill="none" stroke="midnightblue" d="M680.28,-392.08C684.71,-384.61 691.16,-373.72 696.62,-364.52"/>
<polygon fill="midnightblue" stroke="midnightblue" points="699.73,-366.14 701.81,-355.75 693.71,-362.57 699.73,-366.14"/>
</g>
<!-- Node47 -->
<g id="node29" class="node">
<title>Node47</title>
<g id="a_node29"><a xlink:title=" ">
<polygon fill="none" stroke="#bfbfbf" points="758,-336.5 758,-355.5 802,-355.5 802,-336.5 758,-336.5"/>
<text text-anchor="middle" x="780" y="-343.5" font-family="Helvetica,sans-Serif" font-size="10.00">limits</text>
</a>
</g>
</g>
<!-- Node46&#45;&gt;Node47 -->
<g id="edge47" class="edge">
<title>Node46&#45;&gt;Node47</title>
<path fill="none" stroke="midnightblue" d="M691.87,-392.32C708.71,-383.66 734.81,-370.24 754.24,-360.25"/>
<polygon fill="midnightblue" stroke="midnightblue" points="755.88,-363.34 763.17,-355.65 752.68,-357.12 755.88,-363.34"/>
</g>
</g>
</svg>
