<?xml version="1.0" encoding="UTF-8" standalone="no"?>
<!DOCTYPE svg PUBLIC "-//W3C//DTD SVG 1.1//EN"
 "http://www.w3.org/Graphics/SVG/1.1/DTD/svg11.dtd">
<!-- Generated by graphviz version 2.43.0 (0)
 -->
<!-- Title: /home/runner/work/cbmc/cbmc/src/ansi&#45;c/c_nondet_symbol_factory.h Pages: 1 -->
<svg width="1401pt" height="565pt"
 viewBox="0.00 0.00 1401.25 565.00" xmlns="http://www.w3.org/2000/svg" xmlns:xlink="http://www.w3.org/1999/xlink">
<g id="graph0" class="graph" transform="scale(1 1) rotate(0) translate(4 561)">
<title>/home/runner/work/cbmc/cbmc/src/ansi&#45;c/c_nondet_symbol_factory.h</title>
<!-- Node1 -->
<g id="node1" class="node">
<title>Node1</title>
<g id="a_node1"><a xlink:title=" ">
<polygon fill="#bfbfbf" stroke="black" points="691.11,-515.5 691.11,-556.5 834.11,-556.5 834.11,-515.5 691.11,-515.5"/>
<text text-anchor="start" x="699.11" y="-544.5" font-family="Helvetica,sans-Serif" font-size="10.00">/home/runner/work/cbmc</text>
<text text-anchor="start" x="699.11" y="-533.5" font-family="Helvetica,sans-Serif" font-size="10.00">/cbmc/src/ansi&#45;c/c_nondet</text>
<text text-anchor="middle" x="762.61" y="-522.5" font-family="Helvetica,sans-Serif" font-size="10.00">_symbol_factory.h</text>
</a>
</g>
</g>
<!-- Node2 -->
<g id="node2" class="node">
<title>Node2</title>
<g id="a_node2"><a xlink:title=" ">
<polygon fill="none" stroke="#bfbfbf" points="646.61,-454 646.61,-473 678.61,-473 678.61,-454 646.61,-454"/>
<text text-anchor="middle" x="662.61" y="-461" font-family="Helvetica,sans-Serif" font-size="10.00">set</text>
</a>
</g>
</g>
<!-- Node1&#45;&gt;Node2 -->
<g id="edge1" class="edge">
<title>Node1&#45;&gt;Node2</title>
<path fill="none" stroke="midnightblue" d="M734.76,-515.36C718.49,-503.89 698.29,-489.65 683.41,-479.16"/>
<polygon fill="midnightblue" stroke="midnightblue" points="685.11,-476.07 674.92,-473.17 681.07,-481.8 685.11,-476.07"/>
</g>
<!-- Node3 -->
<g id="node3" class="node">
<title>Node3</title>
<g id="a_node3"><a xlink:href="allocate__objects_8h.html" target="_top" xlink:title=" ">
<polygon fill="none" stroke="black" points="697.11,-448.5 697.11,-478.5 828.11,-478.5 828.11,-448.5 697.11,-448.5"/>
<text text-anchor="start" x="705.11" y="-466.5" font-family="Helvetica,sans-Serif" font-size="10.00">goto&#45;programs/allocate</text>
<text text-anchor="middle" x="762.61" y="-455.5" font-family="Helvetica,sans-Serif" font-size="10.00">_objects.h</text>
</a>
</g>
</g>
<!-- Node1&#45;&gt;Node3 -->
<g id="edge2" class="edge">
<title>Node1&#45;&gt;Node3</title>
<path fill="none" stroke="midnightblue" d="M762.61,-515.36C762.61,-507.23 762.61,-497.7 762.61,-489.11"/>
<polygon fill="midnightblue" stroke="midnightblue" points="766.11,-488.89 762.61,-478.89 759.11,-488.89 766.11,-488.89"/>
</g>
<!-- Node48 -->
<g id="node40" class="node">
<title>Node48</title>
<g id="a_node40"><a xlink:href="symbol__table_8h.html" target="_top" xlink:title="Author: Diffblue Ltd.">
<polygon fill="none" stroke="black" points="967.61,-454 967.61,-473 1077.61,-473 1077.61,-454 967.61,-454"/>
<text text-anchor="middle" x="1022.61" y="-461" font-family="Helvetica,sans-Serif" font-size="10.00">util/symbol_table.h</text>
</a>
</g>
</g>
<!-- Node1&#45;&gt;Node48 -->
<g id="edge67" class="edge">
<title>Node1&#45;&gt;Node48</title>
<path fill="none" stroke="midnightblue" d="M834.35,-515.55C881.64,-502.73 941.9,-486.39 981.33,-475.69"/>
<polygon fill="midnightblue" stroke="midnightblue" points="982.4,-479.03 991.13,-473.04 980.57,-472.28 982.4,-479.03"/>
</g>
<!-- Node4 -->
<g id="node4" class="node">
<title>Node4</title>
<g id="a_node4"><a xlink:href="namespace_8h.html" target="_top" xlink:title=" ">
<polygon fill="none" stroke="black" points="712.11,-392.5 712.11,-411.5 813.11,-411.5 813.11,-392.5 712.11,-392.5"/>
<text text-anchor="middle" x="762.61" y="-399.5" font-family="Helvetica,sans-Serif" font-size="10.00">util/namespace.h</text>
</a>
</g>
</g>
<!-- Node3&#45;&gt;Node4 -->
<g id="edge3" class="edge">
<title>Node3&#45;&gt;Node4</title>
<path fill="none" stroke="midnightblue" d="M762.61,-448.4C762.61,-440.47 762.61,-430.46 762.61,-421.86"/>
<polygon fill="midnightblue" stroke="midnightblue" points="766.11,-421.66 762.61,-411.66 759.11,-421.66 766.11,-421.66"/>
</g>
<!-- Node28 -->
<g id="node25" class="node">
<title>Node28</title>
<g id="a_node25"><a xlink:href="std__code_8h.html" target="_top" xlink:title=" ">
<polygon fill="none" stroke="black" points="376.61,-392.5 376.61,-411.5 464.61,-411.5 464.61,-392.5 376.61,-392.5"/>
<text text-anchor="middle" x="420.61" y="-399.5" font-family="Helvetica,sans-Serif" font-size="10.00">util/std_code.h</text>
</a>
</g>
</g>
<!-- Node3&#45;&gt;Node28 -->
<g id="edge31" class="edge">
<title>Node3&#45;&gt;Node28</title>
<path fill="none" stroke="midnightblue" d="M696.78,-449.68C693.68,-449.11 690.62,-448.54 687.61,-448 614.17,-434.71 529.13,-420.6 475.12,-411.79"/>
<polygon fill="midnightblue" stroke="midnightblue" points="475.51,-408.31 465.08,-410.16 474.39,-415.22 475.51,-408.31"/>
</g>
<!-- Node5 -->
<g id="node5" class="node">
<title>Node5</title>
<g id="a_node5"><a xlink:href="src_2util_2invariant_8h.html" target="_top" xlink:title=" ">
<polygon fill="none" stroke="black" points="564.11,-168.5 564.11,-187.5 633.11,-187.5 633.11,-168.5 564.11,-168.5"/>
<text text-anchor="middle" x="598.61" y="-175.5" font-family="Helvetica,sans-Serif" font-size="10.00">invariant.h</text>
</a>
</g>
</g>
<!-- Node4&#45;&gt;Node5 -->
<g id="edge4" class="edge">
<title>Node4&#45;&gt;Node5</title>
<path fill="none" stroke="midnightblue" d="M727.58,-392.47C668.15,-375.81 550,-332.53 508.61,-244 496.77,-218.67 527.27,-201.17 555.91,-190.76"/>
<polygon fill="midnightblue" stroke="midnightblue" points="557.15,-194.04 565.49,-187.51 554.89,-187.41 557.15,-194.04"/>
</g>
<!-- Node10 -->
<g id="node10" class="node">
<title>Node10</title>
<g id="a_node10"><a xlink:href="irep_8h.html" target="_top" xlink:title=" ">
<polygon fill="none" stroke="black" points="934.61,-336.5 934.61,-355.5 978.61,-355.5 978.61,-336.5 934.61,-336.5"/>
<text text-anchor="middle" x="956.61" y="-343.5" font-family="Helvetica,sans-Serif" font-size="10.00">irep.h</text>
</a>
</g>
</g>
<!-- Node4&#45;&gt;Node10 -->
<g id="edge9" class="edge">
<title>Node4&#45;&gt;Node10</title>
<path fill="none" stroke="midnightblue" d="M793.35,-392.44C829.14,-382.48 887.97,-366.11 924.38,-355.97"/>
<polygon fill="midnightblue" stroke="midnightblue" points="925.77,-359.22 934.47,-353.16 923.89,-352.47 925.77,-359.22"/>
</g>
<!-- Node6 -->
<g id="node6" class="node">
<title>Node6</title>
<g id="a_node6"><a xlink:title=" ">
<polygon fill="none" stroke="#bfbfbf" points="602.11,-112.5 602.11,-131.5 651.11,-131.5 651.11,-112.5 602.11,-112.5"/>
<text text-anchor="middle" x="626.61" y="-119.5" font-family="Helvetica,sans-Serif" font-size="10.00">cstdlib</text>
</a>
</g>
</g>
<!-- Node5&#45;&gt;Node6 -->
<g id="edge5" class="edge">
<title>Node5&#45;&gt;Node6</title>
<path fill="none" stroke="midnightblue" d="M603.24,-168.08C607.07,-160.69 612.64,-149.95 617.38,-140.81"/>
<polygon fill="midnightblue" stroke="midnightblue" points="620.58,-142.24 622.08,-131.75 614.37,-139.02 620.58,-142.24"/>
</g>
<!-- Node7 -->
<g id="node7" class="node">
<title>Node7</title>
<g id="a_node7"><a xlink:title=" ">
<polygon fill="none" stroke="#bfbfbf" points="669.61,-112.5 669.61,-131.5 725.61,-131.5 725.61,-112.5 669.61,-112.5"/>
<text text-anchor="middle" x="697.61" y="-119.5" font-family="Helvetica,sans-Serif" font-size="10.00">sstream</text>
</a>
</g>
</g>
<!-- Node5&#45;&gt;Node7 -->
<g id="edge6" class="edge">
<title>Node5&#45;&gt;Node7</title>
<path fill="none" stroke="midnightblue" d="M614.52,-168.32C630.25,-159.74 654.56,-146.49 672.82,-136.52"/>
<polygon fill="midnightblue" stroke="midnightblue" points="674.64,-139.52 681.75,-131.65 671.29,-133.37 674.64,-139.52"/>
</g>
<!-- Node8 -->
<g id="node8" class="node">
<title>Node8</title>
<g id="a_node8"><a xlink:title=" ">
<polygon fill="none" stroke="#bfbfbf" points="952.61,-112.5 952.61,-131.5 996.61,-131.5 996.61,-112.5 952.61,-112.5"/>
<text text-anchor="middle" x="974.61" y="-119.5" font-family="Helvetica,sans-Serif" font-size="10.00">string</text>
</a>
</g>
</g>
<!-- Node5&#45;&gt;Node8 -->
<g id="edge7" class="edge">
<title>Node5&#45;&gt;Node8</title>
<path fill="none" stroke="midnightblue" d="M633.31,-172.02C705.77,-161.61 872.22,-137.71 942.44,-127.62"/>
<polygon fill="midnightblue" stroke="midnightblue" points="943.06,-131.07 952.46,-126.18 942.07,-124.14 943.06,-131.07"/>
</g>
<!-- Node9 -->
<g id="node9" class="node">
<title>Node9</title>
<g id="a_node9"><a xlink:title=" ">
<polygon fill="none" stroke="#bfbfbf" points="520.11,-0.5 520.11,-19.5 589.11,-19.5 589.11,-0.5 520.11,-0.5"/>
<text text-anchor="middle" x="554.61" y="-7.5" font-family="Helvetica,sans-Serif" font-size="10.00">type_traits</text>
</a>
</g>
</g>
<!-- Node5&#45;&gt;Node9 -->
<g id="edge8" class="edge">
<title>Node5&#45;&gt;Node9</title>
<path fill="none" stroke="midnightblue" d="M596.25,-168.08C589.32,-141.95 568.98,-65.21 559.54,-29.58"/>
<polygon fill="midnightblue" stroke="midnightblue" points="562.83,-28.34 556.89,-19.57 556.06,-30.13 562.83,-28.34"/>
</g>
<!-- Node10&#45;&gt;Node5 -->
<g id="edge12" class="edge">
<title>Node10&#45;&gt;Node5</title>
<path fill="none" stroke="midnightblue" d="M934.54,-343.44C853.01,-337.16 570.83,-310.85 517.61,-244 500.26,-222.2 533.37,-203.03 562.35,-191.27"/>
<polygon fill="midnightblue" stroke="midnightblue" points="563.87,-194.43 571.94,-187.57 561.35,-187.9 563.87,-194.43"/>
</g>
<!-- Node10&#45;&gt;Node8 -->
<g id="edge10" class="edge">
<title>Node10&#45;&gt;Node8</title>
<path fill="none" stroke="midnightblue" d="M958.67,-336.42C962.71,-319.09 971.56,-278.6 974.61,-244 977.81,-207.85 976.69,-165.4 975.63,-141.6"/>
<polygon fill="midnightblue" stroke="midnightblue" points="979.12,-141.35 975.13,-131.53 972.13,-141.69 979.12,-141.35"/>
</g>
<!-- Node11 -->
<g id="node11" class="node">
<title>Node11</title>
<g id="a_node11"><a xlink:title=" ">
<polygon fill="none" stroke="#bfbfbf" points="1341.11,-112.5 1341.11,-131.5 1388.11,-131.5 1388.11,-112.5 1341.11,-112.5"/>
<text text-anchor="middle" x="1364.61" y="-119.5" font-family="Helvetica,sans-Serif" font-size="10.00">vector</text>
</a>
</g>
</g>
<!-- Node10&#45;&gt;Node11 -->
<g id="edge11" class="edge">
<title>Node10&#45;&gt;Node11</title>
<path fill="none" stroke="midnightblue" d="M978.82,-344.6C1051.33,-342.97 1280.12,-335.09 1343.61,-300 1371.56,-284.56 1378.01,-274.12 1388.61,-244 1401.12,-208.47 1385.12,-164.65 1373.87,-140.7"/>
<polygon fill="midnightblue" stroke="midnightblue" points="1377.01,-139.15 1369.44,-131.73 1370.73,-142.25 1377.01,-139.15"/>
</g>
<!-- Node12 -->
<g id="node12" class="node">
<title>Node12</title>
<g id="a_node12"><a xlink:href="irep__ids_8h.html" target="_top" xlink:title=" ">
<polygon fill="none" stroke="black" points="1064.61,-280.5 1064.61,-299.5 1128.61,-299.5 1128.61,-280.5 1064.61,-280.5"/>
<text text-anchor="middle" x="1096.61" y="-287.5" font-family="Helvetica,sans-Serif" font-size="10.00">irep_ids.h</text>
</a>
</g>
</g>
<!-- Node10&#45;&gt;Node12 -->
<g id="edge13" class="edge">
<title>Node10&#45;&gt;Node12</title>
<path fill="none" stroke="midnightblue" d="M978.8,-336.44C1002.04,-327.48 1038.76,-313.31 1065.03,-303.18"/>
<polygon fill="midnightblue" stroke="midnightblue" points="1066.46,-306.38 1074.53,-299.52 1063.95,-299.85 1066.46,-306.38"/>
</g>
<!-- Node23 -->
<g id="node20" class="node">
<title>Node23</title>
<g id="a_node20"><a xlink:href="forward__list__as__map_8h.html" target="_top" xlink:title=" ">
<polygon fill="none" stroke="black" points="778.11,-280.5 778.11,-299.5 905.11,-299.5 905.11,-280.5 778.11,-280.5"/>
<text text-anchor="middle" x="841.61" y="-287.5" font-family="Helvetica,sans-Serif" font-size="10.00">forward_list_as_map.h</text>
</a>
</g>
</g>
<!-- Node10&#45;&gt;Node23 -->
<g id="edge24" class="edge">
<title>Node10&#45;&gt;Node23</title>
<path fill="none" stroke="midnightblue" d="M938.39,-336.44C919.72,-327.68 890.46,-313.94 869,-303.86"/>
<polygon fill="midnightblue" stroke="midnightblue" points="870.29,-300.6 859.75,-299.52 867.32,-306.93 870.29,-300.6"/>
</g>
<!-- Node13 -->
<g id="node13" class="node">
<title>Node13</title>
<g id="a_node13"><a xlink:href="dstring_8h.html" target="_top" xlink:title=" ">
<polygon fill="none" stroke="black" points="1152.11,-224.5 1152.11,-243.5 1211.11,-243.5 1211.11,-224.5 1152.11,-224.5"/>
<text text-anchor="middle" x="1181.61" y="-231.5" font-family="Helvetica,sans-Serif" font-size="10.00">dstring.h</text>
</a>
</g>
</g>
<!-- Node12&#45;&gt;Node13 -->
<g id="edge14" class="edge">
<title>Node12&#45;&gt;Node13</title>
<path fill="none" stroke="midnightblue" d="M1110.27,-280.32C1123.53,-271.9 1143.88,-258.97 1159.46,-249.07"/>
<polygon fill="midnightblue" stroke="midnightblue" points="1161.43,-251.97 1167.99,-243.65 1157.67,-246.06 1161.43,-251.97"/>
</g>
<!-- Node22 -->
<g id="node19" class="node">
<title>Node22</title>
<g id="a_node19"><a xlink:title=" ">
<polygon fill="none" stroke="#bfbfbf" points="1059.61,-224.5 1059.61,-243.5 1133.61,-243.5 1133.61,-224.5 1059.61,-224.5"/>
<text text-anchor="middle" x="1096.61" y="-231.5" font-family="Helvetica,sans-Serif" font-size="10.00">irep_ids.def</text>
</a>
</g>
</g>
<!-- Node12&#45;&gt;Node22 -->
<g id="edge23" class="edge">
<title>Node12&#45;&gt;Node22</title>
<path fill="none" stroke="midnightblue" d="M1096.61,-280.08C1096.61,-273.01 1096.61,-262.86 1096.61,-253.99"/>
<polygon fill="midnightblue" stroke="midnightblue" points="1100.11,-253.75 1096.61,-243.75 1093.11,-253.75 1100.11,-253.75"/>
</g>
<!-- Node13&#45;&gt;Node5 -->
<g id="edge17" class="edge">
<title>Node13&#45;&gt;Node5</title>
<path fill="none" stroke="midnightblue" d="M1151.89,-225.68C1148.77,-225.05 1145.64,-224.47 1142.61,-224 1046.69,-209.04 755.84,-189.2 643.54,-181.88"/>
<polygon fill="midnightblue" stroke="midnightblue" points="643.44,-178.36 633.24,-181.21 642.99,-185.35 643.44,-178.36"/>
</g>
<!-- Node13&#45;&gt;Node8 -->
<g id="edge16" class="edge">
<title>Node13&#45;&gt;Node8</title>
<path fill="none" stroke="midnightblue" d="M1165.37,-224.37C1129.4,-205.25 1042.79,-159.23 999.76,-136.36"/>
<polygon fill="midnightblue" stroke="midnightblue" points="1001.26,-133.19 990.78,-131.59 997.97,-139.37 1001.26,-133.19"/>
</g>
<!-- Node14 -->
<g id="node14" class="node">
<title>Node14</title>
<g id="a_node14"><a xlink:title=" ">
<polygon fill="none" stroke="#bfbfbf" points="879.61,-168.5 879.61,-187.5 927.61,-187.5 927.61,-168.5 879.61,-168.5"/>
<text text-anchor="middle" x="903.61" y="-175.5" font-family="Helvetica,sans-Serif" font-size="10.00">iosfwd</text>
</a>
</g>
</g>
<!-- Node13&#45;&gt;Node14 -->
<g id="edge15" class="edge">
<title>Node13&#45;&gt;Node14</title>
<path fill="none" stroke="midnightblue" d="M1151.83,-226C1148.72,-225.3 1145.61,-224.63 1142.61,-224 1069.96,-208.78 984.38,-193.24 937.89,-185"/>
<polygon fill="midnightblue" stroke="midnightblue" points="938.22,-181.51 927.76,-183.21 937,-188.4 938.22,-181.51"/>
</g>
<!-- Node15 -->
<g id="node15" class="node">
<title>Node15</title>
<g id="a_node15"><a xlink:href="magic_8h.html" target="_top" xlink:title="Magic numbers used throughout the codebase.">
<polygon fill="none" stroke="red" points="1135.61,-168.5 1135.61,-187.5 1191.61,-187.5 1191.61,-168.5 1135.61,-168.5"/>
<text text-anchor="middle" x="1163.61" y="-175.5" font-family="Helvetica,sans-Serif" font-size="10.00">magic.h</text>
</a>
</g>
</g>
<!-- Node13&#45;&gt;Node15 -->
<g id="edge18" class="edge">
<title>Node13&#45;&gt;Node15</title>
<path fill="none" stroke="midnightblue" d="M1178.64,-224.08C1176.23,-216.85 1172.75,-206.41 1169.75,-197.4"/>
<polygon fill="midnightblue" stroke="midnightblue" points="1173.01,-196.13 1166.53,-187.75 1166.37,-198.34 1173.01,-196.13"/>
</g>
<!-- Node17 -->
<g id="node16" class="node">
<title>Node17</title>
<g id="a_node16"><a xlink:href="string__container_8h.html" target="_top" xlink:title=" ">
<polygon fill="none" stroke="red" points="1209.61,-168.5 1209.61,-187.5 1313.61,-187.5 1313.61,-168.5 1209.61,-168.5"/>
<text text-anchor="middle" x="1261.61" y="-175.5" font-family="Helvetica,sans-Serif" font-size="10.00">string_container.h</text>
</a>
</g>
</g>
<!-- Node13&#45;&gt;Node17 -->
<g id="edge19" class="edge">
<title>Node13&#45;&gt;Node17</title>
<path fill="none" stroke="midnightblue" d="M1194.47,-224.32C1206.83,-215.98 1225.74,-203.21 1240.35,-193.35"/>
<polygon fill="midnightblue" stroke="midnightblue" points="1242.46,-196.15 1248.79,-187.65 1238.55,-190.35 1242.46,-196.15"/>
</g>
<!-- Node17&#45;&gt;Node11 -->
<g id="edge22" class="edge">
<title>Node17&#45;&gt;Node11</title>
<path fill="none" stroke="midnightblue" d="M1278.16,-168.32C1294.61,-159.7 1320.05,-146.36 1339.08,-136.39"/>
<polygon fill="midnightblue" stroke="midnightblue" points="1340.88,-139.4 1348.11,-131.65 1337.63,-133.2 1340.88,-139.4"/>
</g>
<!-- Node18 -->
<g id="node17" class="node">
<title>Node18</title>
<g id="a_node17"><a xlink:title=" ">
<polygon fill="none" stroke="#bfbfbf" points="1099.61,-112.5 1099.61,-131.5 1131.61,-131.5 1131.61,-112.5 1099.61,-112.5"/>
<text text-anchor="middle" x="1115.61" y="-119.5" font-family="Helvetica,sans-Serif" font-size="10.00">list</text>
</a>
</g>
</g>
<!-- Node17&#45;&gt;Node18 -->
<g id="edge20" class="edge">
<title>Node17&#45;&gt;Node18</title>
<path fill="none" stroke="midnightblue" d="M1238.48,-168.44C1212.1,-158.69 1169.08,-142.77 1141.57,-132.6"/>
<polygon fill="midnightblue" stroke="midnightblue" points="1142.45,-129.19 1131.86,-129.01 1140.02,-135.76 1142.45,-129.19"/>
</g>
<!-- Node19 -->
<g id="node18" class="node">
<title>Node19</title>
<g id="a_node18"><a xlink:title=" ">
<polygon fill="none" stroke="#bfbfbf" points="1215.11,-112.5 1215.11,-131.5 1308.11,-131.5 1308.11,-112.5 1215.11,-112.5"/>
<text text-anchor="middle" x="1261.61" y="-119.5" font-family="Helvetica,sans-Serif" font-size="10.00">unordered_map</text>
</a>
</g>
</g>
<!-- Node17&#45;&gt;Node19 -->
<g id="edge21" class="edge">
<title>Node17&#45;&gt;Node19</title>
<path fill="none" stroke="midnightblue" d="M1261.61,-168.08C1261.61,-161.01 1261.61,-150.86 1261.61,-141.99"/>
<polygon fill="midnightblue" stroke="midnightblue" points="1265.11,-141.75 1261.61,-131.75 1258.11,-141.75 1265.11,-141.75"/>
</g>
<!-- Node24 -->
<g id="node21" class="node">
<title>Node24</title>
<g id="a_node21"><a xlink:title=" ">
<polygon fill="none" stroke="#bfbfbf" points="809.61,-224.5 809.61,-243.5 873.61,-243.5 873.61,-224.5 809.61,-224.5"/>
<text text-anchor="middle" x="841.61" y="-231.5" font-family="Helvetica,sans-Serif" font-size="10.00">algorithm</text>
</a>
</g>
</g>
<!-- Node23&#45;&gt;Node24 -->
<g id="edge25" class="edge">
<title>Node23&#45;&gt;Node24</title>
<path fill="none" stroke="midnightblue" d="M841.61,-280.08C841.61,-273.01 841.61,-262.86 841.61,-253.99"/>
<polygon fill="midnightblue" stroke="midnightblue" points="845.11,-253.75 841.61,-243.75 838.11,-253.75 845.11,-253.75"/>
</g>
<!-- Node25 -->
<g id="node22" class="node">
<title>Node25</title>
<g id="a_node22"><a xlink:title=" ">
<polygon fill="none" stroke="#bfbfbf" points="891.61,-224.5 891.61,-243.5 965.61,-243.5 965.61,-224.5 891.61,-224.5"/>
<text text-anchor="middle" x="928.61" y="-231.5" font-family="Helvetica,sans-Serif" font-size="10.00">forward_list</text>
</a>
</g>
</g>
<!-- Node23&#45;&gt;Node25 -->
<g id="edge26" class="edge">
<title>Node23&#45;&gt;Node25</title>
<path fill="none" stroke="midnightblue" d="M855.59,-280.32C869.16,-271.9 889.99,-258.97 905.94,-249.07"/>
<polygon fill="midnightblue" stroke="midnightblue" points="908.02,-251.9 914.67,-243.65 904.33,-245.95 908.02,-251.9"/>
</g>
<!-- Node26 -->
<g id="node23" class="node">
<title>Node26</title>
<g id="a_node23"><a xlink:href="as__const_8h.html" target="_top" xlink:title=" ">
<polygon fill="none" stroke="black" points="439.61,-112.5 439.61,-131.5 507.61,-131.5 507.61,-112.5 439.61,-112.5"/>
<text text-anchor="middle" x="473.61" y="-119.5" font-family="Helvetica,sans-Serif" font-size="10.00">as_const.h</text>
</a>
</g>
</g>
<!-- Node23&#45;&gt;Node26 -->
<g id="edge27" class="edge">
<title>Node23&#45;&gt;Node26</title>
<path fill="none" stroke="midnightblue" d="M777.85,-287.77C695.04,-284.91 556.47,-275.42 517.61,-244 486.29,-218.66 477.26,-169.02 474.66,-141.86"/>
<polygon fill="midnightblue" stroke="midnightblue" points="478.14,-141.44 473.9,-131.73 471.16,-141.97 478.14,-141.44"/>
</g>
<!-- Node27 -->
<g id="node24" class="node">
<title>Node27</title>
<g id="a_node24"><a xlink:href="narrow_8h.html" target="_top" xlink:title=" ">
<polygon fill="none" stroke="black" points="526.11,-224.5 526.11,-243.5 585.11,-243.5 585.11,-224.5 526.11,-224.5"/>
<text text-anchor="middle" x="555.61" y="-231.5" font-family="Helvetica,sans-Serif" font-size="10.00">narrow.h</text>
</a>
</g>
</g>
<!-- Node23&#45;&gt;Node27 -->
<g id="edge28" class="edge">
<title>Node23&#45;&gt;Node27</title>
<path fill="none" stroke="midnightblue" d="M790.86,-280.47C742.99,-272.25 668.97,-259.15 595.31,-244.07"/>
<polygon fill="midnightblue" stroke="midnightblue" points="595.89,-240.61 585.39,-242.02 594.48,-247.47 595.89,-240.61"/>
</g>
<!-- Node27&#45;&gt;Node5 -->
<g id="edge30" class="edge">
<title>Node27&#45;&gt;Node5</title>
<path fill="none" stroke="midnightblue" d="M562.72,-224.08C568.85,-216.38 577.88,-205.03 585.35,-195.65"/>
<polygon fill="midnightblue" stroke="midnightblue" points="588.15,-197.75 591.65,-187.75 582.68,-193.39 588.15,-197.75"/>
</g>
<!-- Node27&#45;&gt;Node9 -->
<g id="edge29" class="edge">
<title>Node27&#45;&gt;Node9</title>
<path fill="none" stroke="midnightblue" d="M585.26,-226.38C627.44,-215.18 703.15,-187.99 734.61,-132 738.97,-124.25 739.11,-119.67 734.61,-112 705.55,-62.37 642.18,-35.27 598.94,-21.96"/>
<polygon fill="midnightblue" stroke="midnightblue" points="599.81,-18.57 589.23,-19.1 597.83,-25.28 599.81,-18.57"/>
</g>
<!-- Node28&#45;&gt;Node18 -->
<g id="edge32" class="edge">
<title>Node28&#45;&gt;Node18</title>
<path fill="none" stroke="midnightblue" d="M464.62,-399.69C589.97,-395.66 942.82,-382.09 987.61,-356 1017.76,-338.44 1031.61,-325.89 1031.61,-291 1031.61,-291 1031.61,-291 1031.61,-233 1031.61,-191.73 1069.42,-156.32 1094.31,-137.49"/>
<polygon fill="midnightblue" stroke="midnightblue" points="1096.46,-140.25 1102.49,-131.54 1092.34,-134.59 1096.46,-140.25"/>
</g>
<!-- Node29 -->
<g id="node26" class="node">
<title>Node29</title>
<g id="a_node26"><a xlink:href="std__code__base_8h.html" target="_top" xlink:title=" ">
<polygon fill="none" stroke="black" points="209.61,-336.5 209.61,-355.5 307.61,-355.5 307.61,-336.5 209.61,-336.5"/>
<text text-anchor="middle" x="258.61" y="-343.5" font-family="Helvetica,sans-Serif" font-size="10.00">std_code_base.h</text>
</a>
</g>
</g>
<!-- Node28&#45;&gt;Node29 -->
<g id="edge33" class="edge">
<title>Node28&#45;&gt;Node29</title>
<path fill="none" stroke="midnightblue" d="M394.95,-392.44C367.69,-383.36 324.43,-368.94 293.96,-358.78"/>
<polygon fill="midnightblue" stroke="midnightblue" points="294.76,-355.36 284.16,-355.52 292.54,-362 294.76,-355.36"/>
</g>
<!-- Node47 -->
<g id="node39" class="node">
<title>Node47</title>
<g id="a_node39"><a xlink:href="std__expr_8h.html" target="_top" xlink:title=" ">
<polygon fill="none" stroke="black" points="326.11,-336.5 326.11,-355.5 393.11,-355.5 393.11,-336.5 326.11,-336.5"/>
<text text-anchor="middle" x="359.61" y="-343.5" font-family="Helvetica,sans-Serif" font-size="10.00">std_expr.h</text>
</a>
</g>
</g>
<!-- Node28&#45;&gt;Node47 -->
<g id="edge63" class="edge">
<title>Node28&#45;&gt;Node47</title>
<path fill="none" stroke="midnightblue" d="M410.81,-392.32C401.8,-384.34 388.21,-372.31 377.3,-362.65"/>
<polygon fill="midnightblue" stroke="midnightblue" points="379.4,-359.84 369.59,-355.83 374.76,-365.08 379.4,-359.84"/>
</g>
<!-- Node29&#45;&gt;Node5 -->
<g id="edge51" class="edge">
<title>Node29&#45;&gt;Node5</title>
<path fill="none" stroke="midnightblue" d="M274.2,-336.37C288.43,-328.09 309.62,-314.69 325.61,-300 357.51,-270.7 349.73,-246.71 386.61,-224 393.75,-219.61 493.67,-199.53 553.74,-187.73"/>
<polygon fill="midnightblue" stroke="midnightblue" points="554.6,-191.12 563.75,-185.77 553.26,-184.26 554.6,-191.12"/>
</g>
<!-- Node30 -->
<g id="node27" class="node">
<title>Node30</title>
<g id="a_node27"><a xlink:href="expr__cast_8h.html" target="_top" xlink:title="Templated functions to cast to specific exprt&#45;derived classes.">
<polygon fill="none" stroke="black" points="130.11,-224.5 130.11,-243.5 203.11,-243.5 203.11,-224.5 130.11,-224.5"/>
<text text-anchor="middle" x="166.61" y="-231.5" font-family="Helvetica,sans-Serif" font-size="10.00">expr_cast.h</text>
</a>
</g>
</g>
<!-- Node29&#45;&gt;Node30 -->
<g id="edge34" class="edge">
<title>Node29&#45;&gt;Node30</title>
<path fill="none" stroke="midnightblue" d="M242.9,-336.39C229.47,-328.4 210.35,-315.43 197.61,-300 186.18,-286.15 177.82,-267.39 172.68,-253.58"/>
<polygon fill="midnightblue" stroke="midnightblue" points="175.86,-252.04 169.26,-243.76 169.25,-254.35 175.86,-252.04"/>
</g>
<!-- Node39 -->
<g id="node32" class="node">
<title>Node39</title>
<g id="a_node32"><a xlink:href="validate_8h.html" target="_top" xlink:title=" ">
<polygon fill="none" stroke="red" points="151.11,-56.5 151.11,-75.5 216.11,-75.5 216.11,-56.5 151.11,-56.5"/>
<text text-anchor="middle" x="183.61" y="-63.5" font-family="Helvetica,sans-Serif" font-size="10.00">validate.h</text>
</a>
</g>
</g>
<!-- Node29&#45;&gt;Node39 -->
<g id="edge62" class="edge">
<title>Node29&#45;&gt;Node39</title>
<path fill="none" stroke="midnightblue" d="M209.48,-345.07C134.62,-342.32 0.61,-324.84 0.61,-235 0.61,-235 0.61,-235 0.61,-177 0.61,-146.9 -1.84,-133.11 19.61,-112 51.7,-80.44 103.73,-70.51 140.58,-67.64"/>
<polygon fill="midnightblue" stroke="midnightblue" points="141.25,-71.1 151.01,-66.98 140.81,-64.12 141.25,-71.1"/>
</g>
<!-- Node44 -->
<g id="node36" class="node">
<title>Node44</title>
<g id="a_node36"><a xlink:href="std__types_8h.html" target="_top" xlink:title=" ">
<polygon fill="none" stroke="black" points="243.11,-280.5 243.11,-299.5 316.11,-299.5 316.11,-280.5 243.11,-280.5"/>
<text text-anchor="middle" x="279.61" y="-287.5" font-family="Helvetica,sans-Serif" font-size="10.00">std_types.h</text>
</a>
</g>
</g>
<!-- Node29&#45;&gt;Node44 -->
<g id="edge52" class="edge">
<title>Node29&#45;&gt;Node44</title>
<path fill="none" stroke="midnightblue" d="M262.08,-336.08C264.93,-328.77 269.04,-318.18 272.57,-309.1"/>
<polygon fill="midnightblue" stroke="midnightblue" points="275.85,-310.34 276.21,-299.75 269.32,-307.8 275.85,-310.34"/>
</g>
<!-- Node30&#45;&gt;Node5 -->
<g id="edge38" class="edge">
<title>Node30&#45;&gt;Node5</title>
<path fill="none" stroke="midnightblue" d="M203.16,-229.5C271.41,-222.79 422.83,-207.07 549.61,-188 550.91,-187.8 552.23,-187.6 553.56,-187.39"/>
<polygon fill="midnightblue" stroke="midnightblue" points="554.58,-190.77 563.86,-185.67 553.42,-183.86 554.58,-190.77"/>
</g>
<!-- Node30&#45;&gt;Node9 -->
<g id="edge36" class="edge">
<title>Node30&#45;&gt;Node9</title>
<path fill="none" stroke="midnightblue" d="M203.36,-233.17C273.91,-231.46 429.08,-217.52 516.61,-132 544.74,-104.52 552.12,-56.5 554.01,-29.97"/>
<polygon fill="midnightblue" stroke="midnightblue" points="557.52,-29.9 554.54,-19.74 550.52,-29.54 557.52,-29.9"/>
</g>
<!-- Node31 -->
<g id="node28" class="node">
<title>Node31</title>
<g id="a_node28"><a xlink:title=" ">
<polygon fill="none" stroke="#bfbfbf" points="135.11,-168.5 135.11,-187.5 192.11,-187.5 192.11,-168.5 135.11,-168.5"/>
<text text-anchor="middle" x="163.61" y="-175.5" font-family="Helvetica,sans-Serif" font-size="10.00">typeinfo</text>
</a>
</g>
</g>
<!-- Node30&#45;&gt;Node31 -->
<g id="edge35" class="edge">
<title>Node30&#45;&gt;Node31</title>
<path fill="none" stroke="midnightblue" d="M166.12,-224.08C165.73,-217.01 165.16,-206.86 164.67,-197.99"/>
<polygon fill="midnightblue" stroke="midnightblue" points="168.15,-197.54 164.1,-187.75 161.16,-197.93 168.15,-197.54"/>
</g>
<!-- Node32 -->
<g id="node29" class="node">
<title>Node32</title>
<g id="a_node29"><a xlink:title=" ">
<polygon fill="none" stroke="#bfbfbf" points="29.11,-112.5 29.11,-131.5 94.11,-131.5 94.11,-112.5 29.11,-112.5"/>
<text text-anchor="middle" x="61.61" y="-119.5" font-family="Helvetica,sans-Serif" font-size="10.00">functional</text>
</a>
</g>
</g>
<!-- Node30&#45;&gt;Node32 -->
<g id="edge37" class="edge">
<title>Node30&#45;&gt;Node32</title>
<path fill="none" stroke="midnightblue" d="M158.38,-224.37C140.82,-205.97 99.48,-162.67 76.94,-139.05"/>
<polygon fill="midnightblue" stroke="midnightblue" points="79.25,-136.41 69.82,-131.59 74.19,-141.24 79.25,-136.41"/>
</g>
<!-- Node33 -->
<g id="node30" class="node">
<title>Node33</title>
<g id="a_node30"><a xlink:href="expr_8h.html" target="_top" xlink:title=" ">
<polygon fill="none" stroke="black" points="249.11,-168.5 249.11,-187.5 296.11,-187.5 296.11,-168.5 249.11,-168.5"/>
<text text-anchor="middle" x="272.61" y="-175.5" font-family="Helvetica,sans-Serif" font-size="10.00">expr.h</text>
</a>
</g>
</g>
<!-- Node30&#45;&gt;Node33 -->
<g id="edge39" class="edge">
<title>Node30&#45;&gt;Node33</title>
<path fill="none" stroke="midnightblue" d="M183.65,-224.32C200.64,-215.66 226.99,-202.24 246.61,-192.25"/>
<polygon fill="midnightblue" stroke="midnightblue" points="248.3,-195.31 255.63,-187.65 245.13,-189.08 248.3,-195.31"/>
</g>
<!-- Node33&#45;&gt;Node26 -->
<g id="edge40" class="edge">
<title>Node33&#45;&gt;Node26</title>
<path fill="none" stroke="midnightblue" d="M296.46,-170.59C329.89,-161.61 391.19,-145.14 432.17,-134.13"/>
<polygon fill="midnightblue" stroke="midnightblue" points="433.12,-137.5 441.87,-131.53 431.3,-130.74 433.12,-137.5"/>
</g>
<!-- Node33&#45;&gt;Node32 -->
<g id="edge50" class="edge">
<title>Node33&#45;&gt;Node32</title>
<path fill="none" stroke="midnightblue" d="M248.82,-170.91C213.72,-161.93 147.55,-144.99 104.02,-133.85"/>
<polygon fill="midnightblue" stroke="midnightblue" points="104.84,-130.45 94.28,-131.36 103.1,-137.23 104.84,-130.45"/>
</g>
<!-- Node34 -->
<g id="node31" class="node">
<title>Node34</title>
<g id="a_node31"><a xlink:href="type_8h.html" target="_top" xlink:title=" ">
<polygon fill="none" stroke="red" points="189.11,-112.5 189.11,-131.5 236.11,-131.5 236.11,-112.5 189.11,-112.5"/>
<text text-anchor="middle" x="212.61" y="-119.5" font-family="Helvetica,sans-Serif" font-size="10.00">type.h</text>
</a>
</g>
</g>
<!-- Node33&#45;&gt;Node34 -->
<g id="edge41" class="edge">
<title>Node33&#45;&gt;Node34</title>
<path fill="none" stroke="midnightblue" d="M262.97,-168.32C254.1,-160.34 240.74,-148.31 230.01,-138.65"/>
<polygon fill="midnightblue" stroke="midnightblue" points="232.2,-135.92 222.43,-131.83 227.52,-141.13 232.2,-135.92"/>
</g>
<!-- Node41 -->
<g id="node33" class="node">
<title>Node41</title>
<g id="a_node33"><a xlink:href="validation__mode_8h.html" target="_top" xlink:title=" ">
<polygon fill="none" stroke="black" points="130.11,-0.5 130.11,-19.5 237.11,-19.5 237.11,-0.5 130.11,-0.5"/>
<text text-anchor="middle" x="183.61" y="-7.5" font-family="Helvetica,sans-Serif" font-size="10.00">validation_mode.h</text>
</a>
</g>
</g>
<!-- Node33&#45;&gt;Node41 -->
<g id="edge49" class="edge">
<title>Node33&#45;&gt;Node41</title>
<path fill="none" stroke="midnightblue" d="M248.86,-169.44C228.78,-162.18 200.11,-149.71 179.61,-132 156.86,-112.33 150.45,-104.75 141.61,-76 139,-67.5 138.35,-64.27 141.61,-56 146.13,-44.55 155.08,-34.29 163.57,-26.47"/>
<polygon fill="midnightblue" stroke="midnightblue" points="166.08,-28.93 171.4,-19.76 161.53,-23.61 166.08,-28.93"/>
</g>
<!-- Node42 -->
<g id="node34" class="node">
<title>Node42</title>
<g id="a_node34"><a xlink:href="validate__types_8h.html" target="_top" xlink:title=" ">
<polygon fill="none" stroke="black" points="317.61,-56.5 317.61,-75.5 415.61,-75.5 415.61,-56.5 317.61,-56.5"/>
<text text-anchor="middle" x="366.61" y="-63.5" font-family="Helvetica,sans-Serif" font-size="10.00">validate_types.h</text>
</a>
</g>
</g>
<!-- Node33&#45;&gt;Node42 -->
<g id="edge48" class="edge">
<title>Node33&#45;&gt;Node42</title>
<path fill="none" stroke="midnightblue" d="M296.35,-175.75C324.68,-172.84 370.94,-163.27 392.61,-132 403.05,-116.94 392.18,-97.09 381.48,-83.3"/>
<polygon fill="midnightblue" stroke="midnightblue" points="384.14,-81.02 375.03,-75.6 378.77,-85.51 384.14,-81.02"/>
</g>
<!-- Node43 -->
<g id="node35" class="node">
<title>Node43</title>
<g id="a_node35"><a xlink:href="validate__expressions_8h.html" target="_top" xlink:title=" ">
<polygon fill="none" stroke="black" points="254.11,-112.5 254.11,-131.5 383.11,-131.5 383.11,-112.5 254.11,-112.5"/>
<text text-anchor="middle" x="318.61" y="-119.5" font-family="Helvetica,sans-Serif" font-size="10.00">validate_expressions.h</text>
</a>
</g>
</g>
<!-- Node33&#45;&gt;Node43 -->
<g id="edge47" class="edge">
<title>Node33&#45;&gt;Node43</title>
<path fill="none" stroke="midnightblue" d="M280.21,-168.08C286.84,-160.3 296.64,-148.8 304.67,-139.37"/>
<polygon fill="midnightblue" stroke="midnightblue" points="307.34,-141.63 311.16,-131.75 302.01,-137.09 307.34,-141.63"/>
</g>
<!-- Node34&#45;&gt;Node39 -->
<g id="edge42" class="edge">
<title>Node34&#45;&gt;Node39</title>
<path fill="none" stroke="midnightblue" d="M207.83,-112.08C203.86,-104.69 198.09,-93.95 193.18,-84.81"/>
<polygon fill="midnightblue" stroke="midnightblue" points="196.13,-82.91 188.31,-75.75 189.96,-86.22 196.13,-82.91"/>
</g>
<!-- Node34&#45;&gt;Node41 -->
<g id="edge46" class="edge">
<title>Node34&#45;&gt;Node41</title>
<path fill="none" stroke="midnightblue" d="M217.38,-112.31C223.7,-99.58 233.21,-75.27 225.61,-56 221.1,-44.55 212.15,-34.29 203.66,-26.47"/>
<polygon fill="midnightblue" stroke="midnightblue" points="205.7,-23.61 195.83,-19.76 201.15,-28.93 205.7,-23.61"/>
</g>
<!-- Node34&#45;&gt;Node42 -->
<g id="edge45" class="edge">
<title>Node34&#45;&gt;Node42</title>
<path fill="none" stroke="midnightblue" d="M236.34,-112.68C262.08,-103.66 303.39,-89.17 332.58,-78.93"/>
<polygon fill="midnightblue" stroke="midnightblue" points="334.08,-82.12 342.35,-75.51 331.76,-75.51 334.08,-82.12"/>
</g>
<!-- Node39&#45;&gt;Node9 -->
<g id="edge43" class="edge">
<title>Node39&#45;&gt;Node9</title>
<path fill="none" stroke="midnightblue" d="M216.21,-60.26C282.75,-50.57 434.28,-28.52 509.92,-17.5"/>
<polygon fill="midnightblue" stroke="midnightblue" points="510.69,-20.93 520.08,-16.03 509.68,-14 510.69,-20.93"/>
</g>
<!-- Node39&#45;&gt;Node41 -->
<g id="edge44" class="edge">
<title>Node39&#45;&gt;Node41</title>
<path fill="none" stroke="midnightblue" d="M183.61,-56.08C183.61,-49.01 183.61,-38.86 183.61,-29.99"/>
<polygon fill="midnightblue" stroke="midnightblue" points="187.11,-29.75 183.61,-19.75 180.11,-29.75 187.11,-29.75"/>
</g>
<!-- Node44&#45;&gt;Node5 -->
<g id="edge55" class="edge">
<title>Node44&#45;&gt;Node5</title>
<path fill="none" stroke="midnightblue" d="M283.95,-280.13C291.48,-265.74 308.42,-237.59 331.61,-224 416.35,-174.37 452.87,-204.87 549.61,-188 551.08,-187.74 552.57,-187.48 554.07,-187.22"/>
<polygon fill="midnightblue" stroke="midnightblue" points="554.87,-190.63 564.09,-185.42 553.63,-183.74 554.87,-190.63"/>
</g>
<!-- Node44&#45;&gt;Node19 -->
<g id="edge61" class="edge">
<title>Node44&#45;&gt;Node19</title>
<path fill="none" stroke="midnightblue" d="M316.39,-287.43C414.19,-282.96 678.96,-268.85 762.61,-244 780.91,-238.57 782.69,-230.55 800.61,-224 810.39,-220.43 1095.44,-158.82 1212.33,-133.62"/>
<polygon fill="midnightblue" stroke="midnightblue" points="1213.08,-137.04 1222.11,-131.51 1211.6,-130.19 1213.08,-137.04"/>
</g>
<!-- Node44&#45;&gt;Node30 -->
<g id="edge54" class="edge">
<title>Node44&#45;&gt;Node30</title>
<path fill="none" stroke="midnightblue" d="M261.71,-280.44C243.36,-271.68 214.61,-257.94 193.52,-247.86"/>
<polygon fill="midnightblue" stroke="midnightblue" points="194.97,-244.67 184.44,-243.52 191.95,-250.99 194.97,-244.67"/>
</g>
<!-- Node44&#45;&gt;Node33 -->
<g id="edge53" class="edge">
<title>Node44&#45;&gt;Node33</title>
<path fill="none" stroke="midnightblue" d="M279.07,-280.37C277.94,-262.62 275.33,-221.67 273.8,-197.6"/>
<polygon fill="midnightblue" stroke="midnightblue" points="277.29,-197.35 273.16,-187.59 270.3,-197.79 277.29,-197.35"/>
</g>
<!-- Node44&#45;&gt;Node39 -->
<g id="edge60" class="edge">
<title>Node44&#45;&gt;Node39</title>
<path fill="none" stroke="midnightblue" d="M273.82,-280.21C252.86,-248.36 182.08,-140.45 179.61,-132 175.17,-116.74 176.81,-98.63 179.2,-85.41"/>
<polygon fill="midnightblue" stroke="midnightblue" points="182.62,-86.13 181.26,-75.62 175.77,-84.68 182.62,-86.13"/>
</g>
<!-- Node45 -->
<g id="node37" class="node">
<title>Node45</title>
<g id="a_node37"><a xlink:href="mp__arith_8h.html" target="_top" xlink:title=" ">
<polygon fill="none" stroke="black" points="684.11,-224.5 684.11,-243.5 753.11,-243.5 753.11,-224.5 684.11,-224.5"/>
<text text-anchor="middle" x="718.61" y="-231.5" font-family="Helvetica,sans-Serif" font-size="10.00">mp_arith.h</text>
</a>
</g>
</g>
<!-- Node44&#45;&gt;Node45 -->
<g id="edge56" class="edge">
<title>Node44&#45;&gt;Node45</title>
<path fill="none" stroke="midnightblue" d="M316.25,-285.92C384.53,-279.93 536.08,-265.55 674.16,-243.93"/>
<polygon fill="midnightblue" stroke="midnightblue" points="674.75,-247.38 684.08,-242.36 673.66,-240.47 674.75,-247.38"/>
</g>
<!-- Node45&#45;&gt;Node8 -->
<g id="edge58" class="edge">
<title>Node45&#45;&gt;Node8</title>
<path fill="none" stroke="midnightblue" d="M753.13,-226.64C812.69,-215.55 929.16,-193.35 936.61,-188 952.51,-176.59 962.81,-156.3 968.62,-141.42"/>
<polygon fill="midnightblue" stroke="midnightblue" points="972.01,-142.34 972.07,-131.74 965.42,-139.98 972.01,-142.34"/>
</g>
<!-- Node45&#45;&gt;Node14 -->
<g id="edge57" class="edge">
<title>Node45&#45;&gt;Node14</title>
<path fill="none" stroke="midnightblue" d="M747.93,-224.44C781.03,-214.78 834.82,-199.08 869.71,-188.9"/>
<polygon fill="midnightblue" stroke="midnightblue" points="870.83,-192.22 879.45,-186.05 868.87,-185.5 870.83,-192.22"/>
</g>
<!-- Node46 -->
<g id="node38" class="node">
<title>Node46</title>
<g id="a_node38"><a xlink:title=" ">
<polygon fill="none" stroke="#bfbfbf" points="767.61,-168.5 767.61,-187.5 861.61,-187.5 861.61,-168.5 767.61,-168.5"/>
<text text-anchor="middle" x="814.61" y="-175.5" font-family="Helvetica,sans-Serif" font-size="10.00">big&#45;int/bigint.hh</text>
</a>
</g>
</g>
<!-- Node45&#45;&gt;Node46 -->
<g id="edge59" class="edge">
<title>Node45&#45;&gt;Node46</title>
<path fill="none" stroke="midnightblue" d="M734.04,-224.32C749.15,-215.82 772.43,-202.73 790.09,-192.8"/>
<polygon fill="midnightblue" stroke="midnightblue" points="792.23,-195.61 799.23,-187.65 788.8,-189.51 792.23,-195.61"/>
</g>
<!-- Node47&#45;&gt;Node5 -->
<g id="edge65" class="edge">
<title>Node47&#45;&gt;Node5</title>
<path fill="none" stroke="midnightblue" d="M360.36,-336.44C362.77,-314.24 372.38,-254.43 407.61,-224 418.7,-214.43 501.03,-197.42 553.92,-187.28"/>
<polygon fill="midnightblue" stroke="midnightblue" points="554.59,-190.71 563.76,-185.41 553.28,-183.84 554.59,-190.71"/>
</g>
<!-- Node47&#45;&gt;Node30 -->
<g id="edge64" class="edge">
<title>Node47&#45;&gt;Node30</title>
<path fill="none" stroke="midnightblue" d="M326.07,-337.03C299.88,-329.87 263.25,-317.72 234.61,-300 213.25,-286.78 193.01,-265.98 180.26,-251.48"/>
<polygon fill="midnightblue" stroke="midnightblue" points="182.83,-249.1 173.66,-243.78 177.51,-253.65 182.83,-249.1"/>
</g>
<!-- Node47&#45;&gt;Node44 -->
<g id="edge66" class="edge">
<title>Node47&#45;&gt;Node44</title>
<path fill="none" stroke="midnightblue" d="M346.76,-336.32C334.4,-327.98 315.48,-315.21 300.88,-305.35"/>
<polygon fill="midnightblue" stroke="midnightblue" points="302.68,-302.35 292.44,-299.65 298.77,-308.15 302.68,-302.35"/>
</g>
<!-- Node49 -->
<g id="node41" class="node">
<title>Node49</title>
<g id="a_node41"><a xlink:href="symbol__table__base_8h.html" target="_top" xlink:title="Author: Diffblue Ltd.">
<polygon fill="none" stroke="black" points="1214.61,-280.5 1214.61,-299.5 1334.61,-299.5 1334.61,-280.5 1214.61,-280.5"/>
<text text-anchor="middle" x="1274.61" y="-287.5" font-family="Helvetica,sans-Serif" font-size="10.00">symbol_table_base.h</text>
</a>
</g>
</g>
<!-- Node48&#45;&gt;Node49 -->
<g id="edge68" class="edge">
<title>Node48&#45;&gt;Node49</title>
<path fill="none" stroke="midnightblue" d="M1035.11,-454C1075.5,-426.51 1202.84,-339.85 1253.51,-305.36"/>
<polygon fill="midnightblue" stroke="midnightblue" points="1255.74,-308.08 1262.04,-299.56 1251.81,-302.29 1255.74,-308.08"/>
</g>
<!-- Node49&#45;&gt;Node19 -->
<g id="edge70" class="edge">
<title>Node49&#45;&gt;Node19</title>
<path fill="none" stroke="midnightblue" d="M1283.14,-280.26C1301.82,-260.02 1343.09,-208.55 1322.61,-168 1315.81,-154.52 1302.85,-144.08 1290.62,-136.67"/>
<polygon fill="midnightblue" stroke="midnightblue" points="1291.96,-133.41 1281.52,-131.59 1288.54,-139.52 1291.96,-133.41"/>
</g>
<!-- Node50 -->
<g id="node42" class="node">
<title>Node50</title>
<g id="a_node42"><a xlink:title=" ">
<polygon fill="none" stroke="#bfbfbf" points="1341.61,-224.5 1341.61,-243.5 1379.61,-243.5 1379.61,-224.5 1341.61,-224.5"/>
<text text-anchor="middle" x="1360.61" y="-231.5" font-family="Helvetica,sans-Serif" font-size="10.00">map</text>
</a>
</g>
</g>
<!-- Node49&#45;&gt;Node50 -->
<g id="edge69" class="edge">
<title>Node49&#45;&gt;Node50</title>
<path fill="none" stroke="midnightblue" d="M1288.43,-280.32C1301.85,-271.9 1322.44,-258.97 1338.2,-249.07"/>
<polygon fill="midnightblue" stroke="midnightblue" points="1340.22,-251.94 1346.83,-243.65 1336.5,-246.01 1340.22,-251.94"/>
</g>
<!-- Node51 -->
<g id="node43" class="node">
<title>Node51</title>
<g id="a_node43"><a xlink:href="symbol_8h.html" target="_top" xlink:title="Symbol table entry.">
<polygon fill="none" stroke="black" points="603.61,-224.5 603.61,-243.5 665.61,-243.5 665.61,-224.5 603.61,-224.5"/>
<text text-anchor="middle" x="634.61" y="-231.5" font-family="Helvetica,sans-Serif" font-size="10.00">symbol.h</text>
</a>
</g>
</g>
<!-- Node49&#45;&gt;Node51 -->
<g id="edge71" class="edge">
<title>Node49&#45;&gt;Node51</title>
<path fill="none" stroke="midnightblue" d="M1214.43,-284.96C1079.45,-275.84 758.52,-253.77 675.9,-243.68"/>
<polygon fill="midnightblue" stroke="midnightblue" points="676.25,-240.19 665.87,-242.34 675.32,-247.13 676.25,-240.19"/>
</g>
<!-- Node51&#45;&gt;Node5 -->
<g id="edge74" class="edge">
<title>Node51&#45;&gt;Node5</title>
<path fill="none" stroke="midnightblue" d="M628.67,-224.08C623.64,-216.53 616.28,-205.49 610.1,-196.23"/>
<polygon fill="midnightblue" stroke="midnightblue" points="612.91,-194.13 604.45,-187.75 607.08,-198.01 612.91,-194.13"/>
</g>
<!-- Node51&#45;&gt;Node14 -->
<g id="edge72" class="edge">
<title>Node51&#45;&gt;Node14</title>
<path fill="none" stroke="midnightblue" d="M665.93,-226.01C669.2,-225.32 672.47,-224.63 675.61,-224 758.88,-207.18 782.97,-207.56 869.52,-188.1"/>
<polygon fill="midnightblue" stroke="midnightblue" points="870.55,-191.45 879.52,-185.82 869,-184.63 870.55,-191.45"/>
</g>
<!-- Node51&#45;&gt;Node33 -->
<g id="edge73" class="edge">
<title>Node51&#45;&gt;Node33</title>
<path fill="none" stroke="midnightblue" d="M603.22,-225.68C600.32,-225.08 597.42,-224.51 594.61,-224 490.06,-204.96 365.12,-189.59 306.34,-182.78"/>
<polygon fill="midnightblue" stroke="midnightblue" points="306.49,-179.28 296.15,-181.62 305.69,-186.23 306.49,-179.28"/>
</g>
</g>
</svg>
