<?xml version="1.0" encoding="UTF-8" standalone="no"?>
<!DOCTYPE svg PUBLIC "-//W3C//DTD SVG 1.1//EN"
 "http://www.w3.org/Graphics/SVG/1.1/DTD/svg11.dtd">
<!-- Generated by graphviz version 2.43.0 (0)
 -->
<!-- Title: /home/runner/work/cbmc/cbmc/src/ansi&#45;c/c_typecheck_shadow_memory_builtin.cpp Pages: 1 -->
<svg width="1490pt" height="666pt"
 viewBox="0.00 0.00 1489.50 666.00" xmlns="http://www.w3.org/2000/svg" xmlns:xlink="http://www.w3.org/1999/xlink">
<g id="graph0" class="graph" transform="scale(1 1) rotate(0) translate(4 662)">
<title>/home/runner/work/cbmc/cbmc/src/ansi&#45;c/c_typecheck_shadow_memory_builtin.cpp</title>
<!-- Node1 -->
<g id="node1" class="node">
<title>Node1</title>
<g id="a_node1"><a xlink:title=" ">
<polygon fill="#bfbfbf" stroke="black" points="859.5,-616.5 859.5,-657.5 1021.5,-657.5 1021.5,-616.5 859.5,-616.5"/>
<text text-anchor="start" x="867.5" y="-645.5" font-family="Helvetica,sans-Serif" font-size="10.00">/home/runner/work/cbmc</text>
<text text-anchor="start" x="867.5" y="-634.5" font-family="Helvetica,sans-Serif" font-size="10.00">/cbmc/src/ansi&#45;c/c_typecheck</text>
<text text-anchor="middle" x="940.5" y="-623.5" font-family="Helvetica,sans-Serif" font-size="10.00">_shadow_memory_builtin.cpp</text>
</a>
</g>
</g>
<!-- Node2 -->
<g id="node2" class="node">
<title>Node2</title>
<g id="a_node2"><a xlink:href="c__types_8h.html" target="_top" xlink:title=" ">
<polygon fill="none" stroke="black" points="721.5,-560.5 721.5,-579.5 803.5,-579.5 803.5,-560.5 721.5,-560.5"/>
<text text-anchor="middle" x="762.5" y="-567.5" font-family="Helvetica,sans-Serif" font-size="10.00">util/c_types.h</text>
</a>
</g>
</g>
<!-- Node1&#45;&gt;Node2 -->
<g id="edge1" class="edge">
<title>Node1&#45;&gt;Node2</title>
<path fill="none" stroke="midnightblue" d="M887.09,-616.5C857.44,-605.67 821.48,-592.54 795.83,-583.17"/>
<polygon fill="midnightblue" stroke="midnightblue" points="796.79,-579.8 786.19,-579.65 794.39,-586.37 796.79,-579.8"/>
</g>
<!-- Node7 -->
<g id="node7" class="node">
<title>Node7</title>
<g id="a_node7"><a xlink:href="expr_8h.html" target="_top" xlink:title=" ">
<polygon fill="none" stroke="black" points="509,-280.5 509,-299.5 556,-299.5 556,-280.5 509,-280.5"/>
<text text-anchor="middle" x="532.5" y="-287.5" font-family="Helvetica,sans-Serif" font-size="10.00">expr.h</text>
</a>
</g>
</g>
<!-- Node1&#45;&gt;Node7 -->
<g id="edge55" class="edge">
<title>Node1&#45;&gt;Node7</title>
<path fill="none" stroke="midnightblue" d="M916.9,-616.34C904.05,-605.62 887.88,-592.1 873.5,-580 749.46,-475.6 600.78,-349.13 550.28,-306.14"/>
<polygon fill="midnightblue" stroke="midnightblue" points="552.4,-303.35 542.52,-299.54 547.87,-308.68 552.4,-303.35"/>
</g>
<!-- Node46 -->
<g id="node30" class="node">
<title>Node46</title>
<g id="a_node30"><a xlink:href="config_8h.html" target="_top" xlink:title=" ">
<polygon fill="none" stroke="black" points="1222.5,-392.5 1222.5,-411.5 1296.5,-411.5 1296.5,-392.5 1222.5,-392.5"/>
<text text-anchor="middle" x="1259.5" y="-399.5" font-family="Helvetica,sans-Serif" font-size="10.00">util/config.h</text>
</a>
</g>
</g>
<!-- Node1&#45;&gt;Node46 -->
<g id="edge46" class="edge">
<title>Node1&#45;&gt;Node46</title>
<path fill="none" stroke="midnightblue" d="M967.42,-616.34C1030.03,-570.61 1184.26,-457.95 1239.45,-417.64"/>
<polygon fill="midnightblue" stroke="midnightblue" points="1241.71,-420.33 1247.72,-411.61 1237.58,-414.68 1241.71,-420.33"/>
</g>
<!-- Node49 -->
<g id="node34" class="node">
<title>Node49</title>
<g id="a_node34"><a xlink:href="cprover__prefix_8h.html" target="_top" xlink:title=" ">
<polygon fill="none" stroke="black" points="1367.5,-560.5 1367.5,-579.5 1481.5,-579.5 1481.5,-560.5 1367.5,-560.5"/>
<text text-anchor="middle" x="1424.5" y="-567.5" font-family="Helvetica,sans-Serif" font-size="10.00">util/cprover_prefix.h</text>
</a>
</g>
</g>
<!-- Node1&#45;&gt;Node49 -->
<g id="edge54" class="edge">
<title>Node1&#45;&gt;Node49</title>
<path fill="none" stroke="midnightblue" d="M1021.51,-625.12C1115.61,-612.48 1269.13,-591.87 1357.03,-580.06"/>
<polygon fill="midnightblue" stroke="midnightblue" points="1357.71,-583.5 1367.15,-578.7 1356.77,-576.56 1357.71,-583.5"/>
</g>
<!-- Node50 -->
<g id="node35" class="node">
<title>Node50</title>
<g id="a_node35"><a xlink:href="string__constant_8h.html" target="_top" xlink:title=" ">
<polygon fill="none" stroke="black" points="237,-504.5 237,-523.5 356,-523.5 356,-504.5 237,-504.5"/>
<text text-anchor="middle" x="296.5" y="-511.5" font-family="Helvetica,sans-Serif" font-size="10.00">util/string_constant.h</text>
</a>
</g>
</g>
<!-- Node1&#45;&gt;Node50 -->
<g id="edge56" class="edge">
<title>Node1&#45;&gt;Node50</title>
<path fill="none" stroke="midnightblue" d="M859.26,-620.74C726.33,-595.76 465.74,-546.8 351.92,-525.41"/>
<polygon fill="midnightblue" stroke="midnightblue" points="352.49,-521.96 342.02,-523.55 351.2,-528.84 352.49,-521.96"/>
</g>
<!-- Node51 -->
<g id="node36" class="node">
<title>Node51</title>
<g id="a_node36"><a xlink:href="c__typecheck__base_8h.html" target="_top" xlink:title="ANSI&#45;C Language Type Checking.">
<polygon fill="none" stroke="black" points="883,-560.5 883,-579.5 998,-579.5 998,-560.5 883,-560.5"/>
<text text-anchor="middle" x="940.5" y="-567.5" font-family="Helvetica,sans-Serif" font-size="10.00">c_typecheck_base.h</text>
</a>
</g>
</g>
<!-- Node1&#45;&gt;Node51 -->
<g id="edge58" class="edge">
<title>Node1&#45;&gt;Node51</title>
<path fill="none" stroke="midnightblue" d="M940.5,-616.5C940.5,-608.07 940.5,-598.24 940.5,-589.87"/>
<polygon fill="midnightblue" stroke="midnightblue" points="944,-589.65 940.5,-579.65 937,-589.65 944,-589.65"/>
</g>
<!-- Node60 -->
<g id="node45" class="node">
<title>Node60</title>
<g id="a_node45"><a xlink:href="expr2c_8h.html" target="_top" xlink:title=" ">
<polygon fill="none" stroke="black" points="1381,-392.5 1381,-411.5 1440,-411.5 1440,-392.5 1381,-392.5"/>
<text text-anchor="middle" x="1410.5" y="-399.5" font-family="Helvetica,sans-Serif" font-size="10.00">expr2c.h</text>
</a>
</g>
</g>
<!-- Node1&#45;&gt;Node60 -->
<g id="edge88" class="edge">
<title>Node1&#45;&gt;Node60</title>
<path fill="none" stroke="midnightblue" d="M980.17,-616.34C1073.55,-570.04 1305.29,-455.16 1383.92,-416.18"/>
<polygon fill="midnightblue" stroke="midnightblue" points="1385.74,-419.18 1393.14,-411.61 1382.63,-412.91 1385.74,-419.18"/>
</g>
<!-- Node3 -->
<g id="node3" class="node">
<title>Node3</title>
<g id="a_node3"><a xlink:href="deprecate_8h.html" target="_top" xlink:title=" ">
<polygon fill="none" stroke="black" points="825.5,-112.5 825.5,-131.5 899.5,-131.5 899.5,-112.5 825.5,-112.5"/>
<text text-anchor="middle" x="862.5" y="-119.5" font-family="Helvetica,sans-Serif" font-size="10.00">deprecate.h</text>
</a>
</g>
</g>
<!-- Node2&#45;&gt;Node3 -->
<g id="edge2" class="edge">
<title>Node2&#45;&gt;Node3</title>
<path fill="none" stroke="midnightblue" d="M765.61,-560.49C774.17,-536.25 797.5,-464.56 797.5,-403 797.5,-403 797.5,-403 797.5,-289 797.5,-231.16 832.14,-169.31 850.84,-140.12"/>
<polygon fill="midnightblue" stroke="midnightblue" points="853.92,-141.81 856.5,-131.53 848.08,-137.96 853.92,-141.81"/>
</g>
<!-- Node4 -->
<g id="node4" class="node">
<title>Node4</title>
<g id="a_node4"><a xlink:href="pointer__expr_8h.html" target="_top" xlink:title="API to expression classes for Pointers.">
<polygon fill="none" stroke="black" points="374.5,-504.5 374.5,-523.5 460.5,-523.5 460.5,-504.5 374.5,-504.5"/>
<text text-anchor="middle" x="417.5" y="-511.5" font-family="Helvetica,sans-Serif" font-size="10.00">pointer_expr.h</text>
</a>
</g>
</g>
<!-- Node2&#45;&gt;Node4 -->
<g id="edge3" class="edge">
<title>Node2&#45;&gt;Node4</title>
<path fill="none" stroke="midnightblue" d="M721.23,-562.54C658.71,-552.75 539.98,-534.17 470.94,-523.36"/>
<polygon fill="midnightblue" stroke="midnightblue" points="471.14,-519.85 460.72,-521.76 470.05,-526.77 471.14,-519.85"/>
</g>
<!-- Node5 -->
<g id="node5" class="node">
<title>Node5</title>
<g id="a_node5"><a xlink:href="bitvector__types_8h.html" target="_top" xlink:title="Pre&#45;defined bitvector types.">
<polygon fill="none" stroke="black" points="348,-448.5 348,-467.5 449,-467.5 449,-448.5 348,-448.5"/>
<text text-anchor="middle" x="398.5" y="-455.5" font-family="Helvetica,sans-Serif" font-size="10.00">bitvector_types.h</text>
</a>
</g>
</g>
<!-- Node4&#45;&gt;Node5 -->
<g id="edge4" class="edge">
<title>Node4&#45;&gt;Node5</title>
<path fill="none" stroke="midnightblue" d="M414.36,-504.08C411.82,-496.85 408.14,-486.41 404.97,-477.4"/>
<polygon fill="midnightblue" stroke="midnightblue" points="408.2,-476.02 401.58,-467.75 401.6,-478.35 408.2,-476.02"/>
</g>
<!-- Node45 -->
<g id="node29" class="node">
<title>Node45</title>
<g id="a_node29"><a xlink:href="std__expr_8h.html" target="_top" xlink:title="API to expression classes.">
<polygon fill="none" stroke="black" points="263,-448.5 263,-467.5 330,-467.5 330,-448.5 263,-448.5"/>
<text text-anchor="middle" x="296.5" y="-455.5" font-family="Helvetica,sans-Serif" font-size="10.00">std_expr.h</text>
</a>
</g>
</g>
<!-- Node4&#45;&gt;Node45 -->
<g id="edge42" class="edge">
<title>Node4&#45;&gt;Node45</title>
<path fill="none" stroke="midnightblue" d="M398.33,-504.44C378.59,-495.64 347.61,-481.81 325.01,-471.72"/>
<polygon fill="midnightblue" stroke="midnightblue" points="326.14,-468.4 315.58,-467.52 323.29,-474.79 326.14,-468.4"/>
</g>
<!-- Node6 -->
<g id="node6" class="node">
<title>Node6</title>
<g id="a_node6"><a xlink:href="std__types_8h.html" target="_top" xlink:title="Pre&#45;defined types.">
<polygon fill="none" stroke="black" points="311,-392.5 311,-411.5 384,-411.5 384,-392.5 311,-392.5"/>
<text text-anchor="middle" x="347.5" y="-399.5" font-family="Helvetica,sans-Serif" font-size="10.00">std_types.h</text>
</a>
</g>
</g>
<!-- Node5&#45;&gt;Node6 -->
<g id="edge5" class="edge">
<title>Node5&#45;&gt;Node6</title>
<path fill="none" stroke="midnightblue" d="M390.08,-448.08C382.65,-440.22 371.65,-428.57 362.69,-419.08"/>
<polygon fill="midnightblue" stroke="midnightblue" points="365.18,-416.62 355.76,-411.75 360.09,-421.42 365.18,-416.62"/>
</g>
<!-- Node6&#45;&gt;Node7 -->
<g id="edge6" class="edge">
<title>Node6&#45;&gt;Node7</title>
<path fill="none" stroke="midnightblue" d="M362.02,-392.37C393.9,-373.41 470.27,-328 509.05,-304.94"/>
<polygon fill="midnightblue" stroke="midnightblue" points="511.24,-307.71 518.05,-299.59 507.67,-301.69 511.24,-307.71"/>
</g>
<!-- Node14 -->
<g id="node14" class="node">
<title>Node14</title>
<g id="a_node14"><a xlink:href="src_2util_2invariant_8h.html" target="_top" xlink:title=" ">
<polygon fill="none" stroke="red" points="725,-56.5 725,-75.5 794,-75.5 794,-56.5 725,-56.5"/>
<text text-anchor="middle" x="759.5" y="-63.5" font-family="Helvetica,sans-Serif" font-size="10.00">invariant.h</text>
</a>
</g>
</g>
<!-- Node6&#45;&gt;Node14 -->
<g id="edge35" class="edge">
<title>Node6&#45;&gt;Node14</title>
<path fill="none" stroke="midnightblue" d="M351.27,-392.46C356.39,-379.49 363.89,-354.4 354.5,-336 305.92,-240.82 114.64,-250.55 182.5,-168 249.88,-86.04 590.78,-70.59 714.53,-67.68"/>
<polygon fill="midnightblue" stroke="midnightblue" points="714.86,-71.17 724.79,-67.45 714.71,-64.17 714.86,-71.17"/>
</g>
<!-- Node35 -->
<g id="node18" class="node">
<title>Node35</title>
<g id="a_node18"><a xlink:href="validate_8h.html" target="_top" xlink:title=" ">
<polygon fill="none" stroke="red" points="192,-168.5 192,-187.5 257,-187.5 257,-168.5 192,-168.5"/>
<text text-anchor="middle" x="224.5" y="-175.5" font-family="Helvetica,sans-Serif" font-size="10.00">validate.h</text>
</a>
</g>
</g>
<!-- Node6&#45;&gt;Node35 -->
<g id="edge40" class="edge">
<title>Node6&#45;&gt;Node35</title>
<path fill="none" stroke="midnightblue" d="M310.81,-393.46C288.44,-387.06 260.91,-375.67 243.5,-356 203.42,-310.72 201.41,-283.79 210.5,-224 211.87,-215 214.69,-205.33 217.45,-197.26"/>
<polygon fill="midnightblue" stroke="midnightblue" points="220.77,-198.37 220.9,-187.78 214.19,-195.98 220.77,-198.37"/>
</g>
<!-- Node41 -->
<g id="node23" class="node">
<title>Node41</title>
<g id="a_node23"><a xlink:href="expr__cast_8h.html" target="_top" xlink:title="Templated functions to cast to specific exprt&#45;derived classes.">
<polygon fill="none" stroke="black" points="123,-336.5 123,-355.5 196,-355.5 196,-336.5 123,-336.5"/>
<text text-anchor="middle" x="159.5" y="-343.5" font-family="Helvetica,sans-Serif" font-size="10.00">expr_cast.h</text>
</a>
</g>
</g>
<!-- Node6&#45;&gt;Node41 -->
<g id="edge29" class="edge">
<title>Node6&#45;&gt;Node41</title>
<path fill="none" stroke="midnightblue" d="M317.71,-392.44C285.67,-383.24 234.57,-368.56 199.15,-358.39"/>
<polygon fill="midnightblue" stroke="midnightblue" points="199.73,-354.91 189.15,-355.52 197.79,-361.64 199.73,-354.91"/>
</g>
<!-- Node43 -->
<g id="node25" class="node">
<title>Node43</title>
<g id="a_node25"><a xlink:href="mp__arith_8h.html" target="_top" xlink:title=" ">
<polygon fill="none" stroke="black" points="952,-280.5 952,-299.5 1021,-299.5 1021,-280.5 952,-280.5"/>
<text text-anchor="middle" x="986.5" y="-287.5" font-family="Helvetica,sans-Serif" font-size="10.00">mp_arith.h</text>
</a>
</g>
</g>
<!-- Node6&#45;&gt;Node43 -->
<g id="edge36" class="edge">
<title>Node6&#45;&gt;Node43</title>
<path fill="none" stroke="midnightblue" d="M384.25,-401.14C494.15,-401.08 818.6,-397.32 914.5,-356 939.03,-345.43 960.81,-323 973.82,-307.47"/>
<polygon fill="midnightblue" stroke="midnightblue" points="976.56,-309.65 980.11,-299.67 971.11,-305.26 976.56,-309.65"/>
</g>
<!-- Node25 -->
<g id="node28" class="node">
<title>Node25</title>
<g id="a_node28"><a xlink:title=" ">
<polygon fill="none" stroke="#bfbfbf" points="253,-336.5 253,-355.5 346,-355.5 346,-336.5 253,-336.5"/>
<text text-anchor="middle" x="299.5" y="-343.5" font-family="Helvetica,sans-Serif" font-size="10.00">unordered_map</text>
</a>
</g>
</g>
<!-- Node6&#45;&gt;Node25 -->
<g id="edge41" class="edge">
<title>Node6&#45;&gt;Node25</title>
<path fill="none" stroke="midnightblue" d="M339.57,-392.08C332.65,-384.3 322.43,-372.8 314.05,-363.37"/>
<polygon fill="midnightblue" stroke="midnightblue" points="316.54,-360.9 307.28,-355.75 311.31,-365.55 316.54,-360.9"/>
</g>
<!-- Node8 -->
<g id="node8" class="node">
<title>Node8</title>
<g id="a_node8"><a xlink:href="as__const_8h.html" target="_top" xlink:title=" ">
<polygon fill="none" stroke="black" points="252.5,-224.5 252.5,-243.5 320.5,-243.5 320.5,-224.5 252.5,-224.5"/>
<text text-anchor="middle" x="286.5" y="-231.5" font-family="Helvetica,sans-Serif" font-size="10.00">as_const.h</text>
</a>
</g>
</g>
<!-- Node7&#45;&gt;Node8 -->
<g id="edge7" class="edge">
<title>Node7&#45;&gt;Node8</title>
<path fill="none" stroke="midnightblue" d="M508.91,-283.82C467.87,-274.81 382.74,-256.13 330.52,-244.66"/>
<polygon fill="midnightblue" stroke="midnightblue" points="331.05,-241.2 320.54,-242.47 329.55,-248.03 331.05,-241.2"/>
</g>
<!-- Node9 -->
<g id="node9" class="node">
<title>Node9</title>
<g id="a_node9"><a xlink:href="type_8h.html" target="_top" xlink:title="Defines typet, type_with_subtypet and type_with_subtypest.">
<polygon fill="none" stroke="black" points="646,-224.5 646,-243.5 693,-243.5 693,-224.5 646,-224.5"/>
<text text-anchor="middle" x="669.5" y="-231.5" font-family="Helvetica,sans-Serif" font-size="10.00">type.h</text>
</a>
</g>
</g>
<!-- Node7&#45;&gt;Node9 -->
<g id="edge8" class="edge">
<title>Node7&#45;&gt;Node9</title>
<path fill="none" stroke="midnightblue" d="M554.21,-280.44C576.85,-271.52 612.57,-257.44 638.25,-247.32"/>
<polygon fill="midnightblue" stroke="midnightblue" points="639.87,-250.44 647.89,-243.52 637.31,-243.93 639.87,-250.44"/>
</g>
<!-- Node37 -->
<g id="node19" class="node">
<title>Node37</title>
<g id="a_node19"><a xlink:href="validation__mode_8h.html" target="_top" xlink:title=" ">
<polygon fill="none" stroke="black" points="476,-112.5 476,-131.5 583,-131.5 583,-112.5 476,-112.5"/>
<text text-anchor="middle" x="529.5" y="-119.5" font-family="Helvetica,sans-Serif" font-size="10.00">validation_mode.h</text>
</a>
</g>
</g>
<!-- Node7&#45;&gt;Node37 -->
<g id="edge27" class="edge">
<title>Node7&#45;&gt;Node37</title>
<path fill="none" stroke="midnightblue" d="M539.65,-280.36C546.27,-271.76 555.66,-257.87 559.5,-244 561.87,-235.43 560.81,-232.79 559.5,-224 557.03,-207.45 553.29,-204.03 548.5,-188 543.82,-172.34 538.62,-154.51 534.84,-141.49"/>
<polygon fill="midnightblue" stroke="midnightblue" points="538.19,-140.47 532.05,-131.84 531.47,-142.42 538.19,-140.47"/>
</g>
<!-- Node38 -->
<g id="node20" class="node">
<title>Node38</title>
<g id="a_node20"><a xlink:href="validate__types_8h.html" target="_top" xlink:title=" ">
<polygon fill="none" stroke="black" points="557.5,-168.5 557.5,-187.5 655.5,-187.5 655.5,-168.5 557.5,-168.5"/>
<text text-anchor="middle" x="606.5" y="-175.5" font-family="Helvetica,sans-Serif" font-size="10.00">validate_types.h</text>
</a>
</g>
</g>
<!-- Node7&#45;&gt;Node38 -->
<g id="edge26" class="edge">
<title>Node7&#45;&gt;Node38</title>
<path fill="none" stroke="midnightblue" d="M550.61,-280.35C564.55,-272.74 583.12,-260.33 593.5,-244 602.28,-230.19 605.32,-211.67 606.28,-197.93"/>
<polygon fill="midnightblue" stroke="midnightblue" points="609.79,-197.85 606.69,-187.72 602.79,-197.58 609.79,-197.85"/>
</g>
<!-- Node39 -->
<g id="node21" class="node">
<title>Node39</title>
<g id="a_node21"><a xlink:href="validate__expressions_8h.html" target="_top" xlink:title=" ">
<polygon fill="none" stroke="black" points="422,-224.5 422,-243.5 551,-243.5 551,-224.5 422,-224.5"/>
<text text-anchor="middle" x="486.5" y="-231.5" font-family="Helvetica,sans-Serif" font-size="10.00">validate_expressions.h</text>
</a>
</g>
</g>
<!-- Node7&#45;&gt;Node39 -->
<g id="edge25" class="edge">
<title>Node7&#45;&gt;Node39</title>
<path fill="none" stroke="midnightblue" d="M524.9,-280.08C518.27,-272.3 508.48,-260.8 500.44,-251.37"/>
<polygon fill="midnightblue" stroke="midnightblue" points="503.1,-249.09 493.95,-243.75 497.77,-253.63 503.1,-249.09"/>
</g>
<!-- Node40 -->
<g id="node22" class="node">
<title>Node40</title>
<g id="a_node22"><a xlink:title=" ">
<polygon fill="none" stroke="#bfbfbf" points="339,-224.5 339,-243.5 404,-243.5 404,-224.5 339,-224.5"/>
<text text-anchor="middle" x="371.5" y="-231.5" font-family="Helvetica,sans-Serif" font-size="10.00">functional</text>
</a>
</g>
</g>
<!-- Node7&#45;&gt;Node40 -->
<g id="edge28" class="edge">
<title>Node7&#45;&gt;Node40</title>
<path fill="none" stroke="midnightblue" d="M508.74,-281.03C481.75,-271.98 437.44,-257.12 406.49,-246.74"/>
<polygon fill="midnightblue" stroke="midnightblue" points="407.54,-243.4 396.95,-243.54 405.32,-250.03 407.54,-243.4"/>
</g>
<!-- Node10 -->
<g id="node10" class="node">
<title>Node10</title>
<g id="a_node10"><a xlink:href="source__location_8h.html" target="_top" xlink:title=" ">
<polygon fill="none" stroke="black" points="939.5,-168.5 939.5,-187.5 1041.5,-187.5 1041.5,-168.5 939.5,-168.5"/>
<text text-anchor="middle" x="990.5" y="-175.5" font-family="Helvetica,sans-Serif" font-size="10.00">source_location.h</text>
</a>
</g>
</g>
<!-- Node9&#45;&gt;Node10 -->
<g id="edge9" class="edge">
<title>Node9&#45;&gt;Node10</title>
<path fill="none" stroke="midnightblue" d="M693.1,-229.03C742.44,-220.73 857.83,-201.32 929.5,-189.26"/>
<polygon fill="midnightblue" stroke="midnightblue" points="930.46,-192.65 939.74,-187.54 929.3,-185.75 930.46,-192.65"/>
</g>
<!-- Node9&#45;&gt;Node35 -->
<g id="edge20" class="edge">
<title>Node9&#45;&gt;Node35</title>
<path fill="none" stroke="midnightblue" d="M645.89,-230.13C574.35,-221.45 359.25,-195.35 267.13,-184.17"/>
<polygon fill="midnightblue" stroke="midnightblue" points="267.39,-180.68 257.04,-182.95 266.54,-187.63 267.39,-180.68"/>
</g>
<!-- Node9&#45;&gt;Node37 -->
<g id="edge24" class="edge">
<title>Node9&#45;&gt;Node37</title>
<path fill="none" stroke="midnightblue" d="M671.58,-224.36C674.29,-210.81 677.32,-184.41 664.5,-168 647.38,-146.07 619.2,-134.73 593,-128.9"/>
<polygon fill="midnightblue" stroke="midnightblue" points="593.57,-125.44 583.08,-126.92 592.21,-132.31 593.57,-125.44"/>
</g>
<!-- Node9&#45;&gt;Node38 -->
<g id="edge23" class="edge">
<title>Node9&#45;&gt;Node38</title>
<path fill="none" stroke="midnightblue" d="M659.38,-224.32C649.97,-216.26 635.76,-204.08 624.43,-194.37"/>
<polygon fill="midnightblue" stroke="midnightblue" points="626.68,-191.68 616.81,-187.83 622.12,-197 626.68,-191.68"/>
</g>
<!-- Node10&#45;&gt;Node3 -->
<g id="edge10" class="edge">
<title>Node10&#45;&gt;Node3</title>
<path fill="none" stroke="midnightblue" d="M970.22,-168.44C949.15,-159.56 915.98,-145.56 892.01,-135.45"/>
<polygon fill="midnightblue" stroke="midnightblue" points="893.26,-132.18 882.69,-131.52 890.54,-138.63 893.26,-132.18"/>
</g>
<!-- Node11 -->
<g id="node11" class="node">
<title>Node11</title>
<g id="a_node11"><a xlink:href="irep_8h.html" target="_top" xlink:title=" ">
<polygon fill="none" stroke="red" points="1270.5,-112.5 1270.5,-131.5 1314.5,-131.5 1314.5,-112.5 1270.5,-112.5"/>
<text text-anchor="middle" x="1292.5" y="-119.5" font-family="Helvetica,sans-Serif" font-size="10.00">irep.h</text>
</a>
</g>
</g>
<!-- Node10&#45;&gt;Node11 -->
<g id="edge11" class="edge">
<title>Node10&#45;&gt;Node11</title>
<path fill="none" stroke="midnightblue" d="M1038.35,-168.44C1100.41,-157.35 1206.99,-138.29 1260.25,-128.77"/>
<polygon fill="midnightblue" stroke="midnightblue" points="1260.93,-132.2 1270.16,-127 1259.7,-125.31 1260.93,-132.2"/>
</g>
<!-- Node12 -->
<g id="node12" class="node">
<title>Node12</title>
<g id="a_node12"><a xlink:title=" ">
<polygon fill="none" stroke="#bfbfbf" points="1123.5,-0.5 1123.5,-19.5 1167.5,-19.5 1167.5,-0.5 1123.5,-0.5"/>
<text text-anchor="middle" x="1145.5" y="-7.5" font-family="Helvetica,sans-Serif" font-size="10.00">string</text>
</a>
</g>
</g>
<!-- Node10&#45;&gt;Node12 -->
<g id="edge19" class="edge">
<title>Node10&#45;&gt;Node12</title>
<path fill="none" stroke="midnightblue" d="M986.79,-168.37C981.77,-155.29 974.53,-130.06 984.5,-112 1011.88,-62.42 1074.93,-33.92 1113.51,-20.52"/>
<polygon fill="midnightblue" stroke="midnightblue" points="1114.84,-23.77 1123.22,-17.29 1112.62,-17.12 1114.84,-23.77"/>
</g>
<!-- Node33 -->
<g id="node17" class="node">
<title>Node33</title>
<g id="a_node17"><a xlink:href="optional_8h.html" target="_top" xlink:title=" ">
<polygon fill="none" stroke="red" points="994,-112.5 994,-131.5 1059,-131.5 1059,-112.5 994,-112.5"/>
<text text-anchor="middle" x="1026.5" y="-119.5" font-family="Helvetica,sans-Serif" font-size="10.00">optional.h</text>
</a>
</g>
</g>
<!-- Node10&#45;&gt;Node33 -->
<g id="edge18" class="edge">
<title>Node10&#45;&gt;Node33</title>
<path fill="none" stroke="midnightblue" d="M996.44,-168.08C1001.48,-160.53 1008.84,-149.49 1015.01,-140.23"/>
<polygon fill="midnightblue" stroke="midnightblue" points="1018.03,-142.01 1020.67,-131.75 1012.21,-138.13 1018.03,-142.01"/>
</g>
<!-- Node11&#45;&gt;Node12 -->
<g id="edge12" class="edge">
<title>Node11&#45;&gt;Node12</title>
<path fill="none" stroke="midnightblue" d="M1283.8,-112.48C1270.37,-99.55 1243.53,-74.5 1218.5,-56 1202.98,-44.53 1184.47,-33.14 1169.96,-24.69"/>
<polygon fill="midnightblue" stroke="midnightblue" points="1171.5,-21.53 1161.09,-19.59 1168.01,-27.6 1171.5,-21.53"/>
</g>
<!-- Node13 -->
<g id="node13" class="node">
<title>Node13</title>
<g id="a_node13"><a xlink:title=" ">
<polygon fill="none" stroke="#bfbfbf" points="1329,-56.5 1329,-75.5 1376,-75.5 1376,-56.5 1329,-56.5"/>
<text text-anchor="middle" x="1352.5" y="-63.5" font-family="Helvetica,sans-Serif" font-size="10.00">vector</text>
</a>
</g>
</g>
<!-- Node11&#45;&gt;Node13 -->
<g id="edge13" class="edge">
<title>Node11&#45;&gt;Node13</title>
<path fill="none" stroke="midnightblue" d="M1302.14,-112.32C1311.01,-104.34 1324.37,-92.31 1335.11,-82.65"/>
<polygon fill="midnightblue" stroke="midnightblue" points="1337.59,-85.13 1342.68,-75.83 1332.91,-79.92 1337.59,-85.13"/>
</g>
<!-- Node11&#45;&gt;Node14 -->
<g id="edge14" class="edge">
<title>Node11&#45;&gt;Node14</title>
<path fill="none" stroke="midnightblue" d="M1270.14,-114.84C1265.65,-113.77 1260.95,-112.75 1256.5,-112 1091.1,-84.01 891.58,-72.62 804.17,-68.73"/>
<polygon fill="midnightblue" stroke="midnightblue" points="804.22,-65.23 794.08,-68.29 803.92,-72.22 804.22,-65.23"/>
</g>
<!-- Node14&#45;&gt;Node12 -->
<g id="edge16" class="edge">
<title>Node14&#45;&gt;Node12</title>
<path fill="none" stroke="midnightblue" d="M794.09,-60.16C868.02,-49.82 1040.52,-25.69 1112.76,-15.58"/>
<polygon fill="midnightblue" stroke="midnightblue" points="1113.65,-18.99 1123.07,-14.14 1112.68,-12.06 1113.65,-18.99"/>
</g>
<!-- Node16 -->
<g id="node15" class="node">
<title>Node16</title>
<g id="a_node15"><a xlink:title=" ">
<polygon fill="none" stroke="#bfbfbf" points="815.5,-0.5 815.5,-19.5 871.5,-19.5 871.5,-0.5 815.5,-0.5"/>
<text text-anchor="middle" x="843.5" y="-7.5" font-family="Helvetica,sans-Serif" font-size="10.00">sstream</text>
</a>
</g>
</g>
<!-- Node14&#45;&gt;Node16 -->
<g id="edge15" class="edge">
<title>Node14&#45;&gt;Node16</title>
<path fill="none" stroke="midnightblue" d="M773,-56.32C786.1,-47.9 806.21,-34.97 821.61,-25.07"/>
<polygon fill="midnightblue" stroke="midnightblue" points="823.52,-28.01 830.04,-19.65 819.73,-22.12 823.52,-28.01"/>
</g>
<!-- Node17 -->
<g id="node16" class="node">
<title>Node17</title>
<g id="a_node16"><a xlink:title=" ">
<polygon fill="none" stroke="#bfbfbf" points="0,-0.5 0,-19.5 69,-19.5 69,-0.5 0,-0.5"/>
<text text-anchor="middle" x="34.5" y="-7.5" font-family="Helvetica,sans-Serif" font-size="10.00">type_traits</text>
</a>
</g>
</g>
<!-- Node14&#45;&gt;Node17 -->
<g id="edge17" class="edge">
<title>Node14&#45;&gt;Node17</title>
<path fill="none" stroke="midnightblue" d="M724.53,-62.4C605.01,-53.49 212.77,-24.28 79.37,-14.34"/>
<polygon fill="midnightblue" stroke="midnightblue" points="79.35,-10.83 69.12,-13.58 78.83,-17.81 79.35,-10.83"/>
</g>
<!-- Node35&#45;&gt;Node17 -->
<g id="edge21" class="edge">
<title>Node35&#45;&gt;Node17</title>
<path fill="none" stroke="midnightblue" d="M214.55,-168.31C184.03,-141.64 91.4,-60.72 52.26,-26.52"/>
<polygon fill="midnightblue" stroke="midnightblue" points="54.18,-23.55 44.35,-19.61 49.58,-28.82 54.18,-23.55"/>
</g>
<!-- Node35&#45;&gt;Node37 -->
<g id="edge22" class="edge">
<title>Node35&#45;&gt;Node37</title>
<path fill="none" stroke="midnightblue" d="M257.14,-171.22C308.27,-162.17 407.95,-144.52 471.5,-133.27"/>
<polygon fill="midnightblue" stroke="midnightblue" points="472.14,-136.71 481.38,-131.52 470.92,-129.82 472.14,-136.71"/>
</g>
<!-- Node41&#45;&gt;Node7 -->
<g id="edge34" class="edge">
<title>Node41&#45;&gt;Node7</title>
<path fill="none" stroke="midnightblue" d="M196.29,-339.67C268.66,-329.2 428.59,-306.04 498.58,-295.91"/>
<polygon fill="midnightblue" stroke="midnightblue" points="499.23,-299.35 508.63,-294.46 498.23,-292.43 499.23,-299.35"/>
</g>
<!-- Node41&#45;&gt;Node14 -->
<g id="edge33" class="edge">
<title>Node41&#45;&gt;Node14</title>
<path fill="none" stroke="midnightblue" d="M152.69,-336.46C139.22,-318.69 110.5,-275.98 110.5,-235 110.5,-235 110.5,-235 110.5,-177 110.5,-146.2 109.88,-130.5 134.5,-112 180.64,-77.32 579.8,-69.22 714.97,-67.46"/>
<polygon fill="midnightblue" stroke="midnightblue" points="715.03,-70.96 724.98,-67.33 714.94,-63.96 715.03,-70.96"/>
</g>
<!-- Node41&#45;&gt;Node17 -->
<g id="edge31" class="edge">
<title>Node41&#45;&gt;Node17</title>
<path fill="none" stroke="midnightblue" d="M149.04,-336.41C139.51,-328.04 125.72,-314.51 117.5,-300 64.74,-206.84 43.25,-77.46 36.78,-29.69"/>
<polygon fill="midnightblue" stroke="midnightblue" points="40.23,-29.07 35.48,-19.6 33.29,-29.97 40.23,-29.07"/>
</g>
<!-- Node41&#45;&gt;Node40 -->
<g id="edge32" class="edge">
<title>Node41&#45;&gt;Node40</title>
<path fill="none" stroke="midnightblue" d="M176.14,-336.37C213.06,-317.21 302.05,-271.04 346.03,-248.22"/>
<polygon fill="midnightblue" stroke="midnightblue" points="347.68,-251.3 354.94,-243.59 344.45,-245.09 347.68,-251.3"/>
</g>
<!-- Node42 -->
<g id="node24" class="node">
<title>Node42</title>
<g id="a_node24"><a xlink:title=" ">
<polygon fill="none" stroke="#bfbfbf" points="139,-280.5 139,-299.5 196,-299.5 196,-280.5 139,-280.5"/>
<text text-anchor="middle" x="167.5" y="-287.5" font-family="Helvetica,sans-Serif" font-size="10.00">typeinfo</text>
</a>
</g>
</g>
<!-- Node41&#45;&gt;Node42 -->
<g id="edge30" class="edge">
<title>Node41&#45;&gt;Node42</title>
<path fill="none" stroke="midnightblue" d="M160.82,-336.08C161.88,-328.93 163.41,-318.64 164.73,-309.69"/>
<polygon fill="midnightblue" stroke="midnightblue" points="168.2,-310.16 166.2,-299.75 161.28,-309.13 168.2,-310.16"/>
</g>
<!-- Node43&#45;&gt;Node12 -->
<g id="edge38" class="edge">
<title>Node43&#45;&gt;Node12</title>
<path fill="none" stroke="midnightblue" d="M1021.34,-281.66C1077.46,-269.75 1181.93,-247.22 1184.5,-244 1236.49,-178.87 1181.39,-70.36 1156.44,-28.35"/>
<polygon fill="midnightblue" stroke="midnightblue" points="1159.42,-26.51 1151.22,-19.8 1153.44,-30.16 1159.42,-26.51"/>
</g>
<!-- Node20 -->
<g id="node26" class="node">
<title>Node20</title>
<g id="a_node26"><a xlink:title=" ">
<polygon fill="none" stroke="#bfbfbf" points="1127.5,-224.5 1127.5,-243.5 1175.5,-243.5 1175.5,-224.5 1127.5,-224.5"/>
<text text-anchor="middle" x="1151.5" y="-231.5" font-family="Helvetica,sans-Serif" font-size="10.00">iosfwd</text>
</a>
</g>
</g>
<!-- Node43&#45;&gt;Node20 -->
<g id="edge37" class="edge">
<title>Node43&#45;&gt;Node20</title>
<path fill="none" stroke="midnightblue" d="M1012.64,-280.44C1041.1,-271.13 1086.68,-256.21 1117.8,-246.03"/>
<polygon fill="midnightblue" stroke="midnightblue" points="1118.94,-249.34 1127.36,-242.9 1116.76,-242.69 1118.94,-249.34"/>
</g>
<!-- Node44 -->
<g id="node27" class="node">
<title>Node44</title>
<g id="a_node27"><a xlink:title=" ">
<polygon fill="none" stroke="#bfbfbf" points="1015.5,-224.5 1015.5,-243.5 1109.5,-243.5 1109.5,-224.5 1015.5,-224.5"/>
<text text-anchor="middle" x="1062.5" y="-231.5" font-family="Helvetica,sans-Serif" font-size="10.00">big&#45;int/bigint.hh</text>
</a>
</g>
</g>
<!-- Node43&#45;&gt;Node44 -->
<g id="edge39" class="edge">
<title>Node43&#45;&gt;Node44</title>
<path fill="none" stroke="midnightblue" d="M998.71,-280.32C1010.28,-272.11 1027.88,-259.6 1041.66,-249.81"/>
<polygon fill="midnightblue" stroke="midnightblue" points="1043.94,-252.48 1050.07,-243.83 1039.89,-246.77 1043.94,-252.48"/>
</g>
<!-- Node45&#45;&gt;Node6 -->
<g id="edge45" class="edge">
<title>Node45&#45;&gt;Node6</title>
<path fill="none" stroke="midnightblue" d="M304.92,-448.08C312.35,-440.22 323.35,-428.57 332.31,-419.08"/>
<polygon fill="midnightblue" stroke="midnightblue" points="334.91,-421.42 339.24,-411.75 329.82,-416.62 334.91,-421.42"/>
</g>
<!-- Node45&#45;&gt;Node14 -->
<g id="edge44" class="edge">
<title>Node45&#45;&gt;Node14</title>
<path fill="none" stroke="midnightblue" d="M262.78,-457.67C192.02,-457.13 34.5,-444.92 34.5,-347 34.5,-347 34.5,-347 34.5,-233 34.5,-168.78 58.12,-144.52 113.5,-112 165.05,-81.73 576.92,-70.69 714.75,-67.83"/>
<polygon fill="midnightblue" stroke="midnightblue" points="715.03,-71.32 724.95,-67.62 714.88,-64.32 715.03,-71.32"/>
</g>
<!-- Node45&#45;&gt;Node41 -->
<g id="edge43" class="edge">
<title>Node45&#45;&gt;Node41</title>
<path fill="none" stroke="midnightblue" d="M285.75,-448.37C262.54,-429.73 207.49,-385.53 178.35,-362.13"/>
<polygon fill="midnightblue" stroke="midnightblue" points="180.19,-359.12 170.2,-355.59 175.81,-364.58 180.19,-359.12"/>
</g>
<!-- Node46&#45;&gt;Node11 -->
<g id="edge52" class="edge">
<title>Node46&#45;&gt;Node11</title>
<path fill="none" stroke="midnightblue" d="M1277.44,-392.25C1306.95,-376.45 1362.5,-340.19 1362.5,-291 1362.5,-291 1362.5,-291 1362.5,-233 1362.5,-202.77 1358.77,-193.48 1342.5,-168 1334.94,-156.16 1323.44,-145.51 1313.38,-137.54"/>
<polygon fill="midnightblue" stroke="midnightblue" points="1315.47,-134.74 1305.38,-131.52 1311.26,-140.33 1315.47,-134.74"/>
</g>
<!-- Node46&#45;&gt;Node33 -->
<g id="edge53" class="edge">
<title>Node46&#45;&gt;Node33</title>
<path fill="none" stroke="midnightblue" d="M1262.97,-392.44C1270.78,-371.71 1287.56,-317.74 1267.5,-280 1224.93,-199.93 1121.49,-154.46 1064.95,-134.79"/>
<polygon fill="midnightblue" stroke="midnightblue" points="1065.89,-131.41 1055.3,-131.52 1063.65,-138.04 1065.89,-131.41"/>
</g>
<!-- Node24 -->
<g id="node31" class="node">
<title>Node24</title>
<g id="a_node31"><a xlink:title=" ">
<polygon fill="none" stroke="#bfbfbf" points="1086.5,-336.5 1086.5,-355.5 1118.5,-355.5 1118.5,-336.5 1086.5,-336.5"/>
<text text-anchor="middle" x="1102.5" y="-343.5" font-family="Helvetica,sans-Serif" font-size="10.00">list</text>
</a>
</g>
</g>
<!-- Node46&#45;&gt;Node24 -->
<g id="edge47" class="edge">
<title>Node46&#45;&gt;Node24</title>
<path fill="none" stroke="midnightblue" d="M1234.62,-392.44C1205.54,-382.44 1157.65,-365.97 1128.21,-355.84"/>
<polygon fill="midnightblue" stroke="midnightblue" points="1129.23,-352.49 1118.63,-352.55 1126.95,-359.11 1129.23,-352.49"/>
</g>
<!-- Node47 -->
<g id="node32" class="node">
<title>Node47</title>
<g id="a_node32"><a xlink:href="ieee__float_8h.html" target="_top" xlink:title=" ">
<polygon fill="none" stroke="black" points="1173.5,-336.5 1173.5,-355.5 1247.5,-355.5 1247.5,-336.5 1173.5,-336.5"/>
<text text-anchor="middle" x="1210.5" y="-343.5" font-family="Helvetica,sans-Serif" font-size="10.00">ieee_float.h</text>
</a>
</g>
</g>
<!-- Node46&#45;&gt;Node47 -->
<g id="edge48" class="edge">
<title>Node46&#45;&gt;Node47</title>
<path fill="none" stroke="midnightblue" d="M1251.41,-392.08C1244.34,-384.3 1233.91,-372.8 1225.35,-363.37"/>
<polygon fill="midnightblue" stroke="midnightblue" points="1227.75,-360.8 1218.44,-355.75 1222.57,-365.51 1227.75,-360.8"/>
</g>
<!-- Node47&#45;&gt;Node43 -->
<g id="edge50" class="edge">
<title>Node47&#45;&gt;Node43</title>
<path fill="none" stroke="midnightblue" d="M1175.01,-336.44C1135.95,-327.03 1073.11,-311.88 1030.84,-301.69"/>
<polygon fill="midnightblue" stroke="midnightblue" points="1031.63,-298.28 1021.09,-299.34 1029.99,-305.09 1031.63,-298.28"/>
</g>
<!-- Node47&#45;&gt;Node20 -->
<g id="edge49" class="edge">
<title>Node47&#45;&gt;Node20</title>
<path fill="none" stroke="midnightblue" d="M1197.57,-336.24C1186.69,-328.14 1171.65,-315.11 1163.5,-300 1155.75,-285.64 1152.91,-267.18 1151.91,-253.6"/>
<polygon fill="midnightblue" stroke="midnightblue" points="1155.4,-253.37 1151.44,-243.55 1148.41,-253.7 1155.4,-253.37"/>
</g>
<!-- Node48 -->
<g id="node33" class="node">
<title>Node48</title>
<g id="a_node33"><a xlink:href="format__spec_8h.html" target="_top" xlink:title=" ">
<polygon fill="none" stroke="black" points="1172.5,-280.5 1172.5,-299.5 1258.5,-299.5 1258.5,-280.5 1172.5,-280.5"/>
<text text-anchor="middle" x="1215.5" y="-287.5" font-family="Helvetica,sans-Serif" font-size="10.00">format_spec.h</text>
</a>
</g>
</g>
<!-- Node47&#45;&gt;Node48 -->
<g id="edge51" class="edge">
<title>Node47&#45;&gt;Node48</title>
<path fill="none" stroke="midnightblue" d="M1211.33,-336.08C1211.98,-329.01 1212.92,-318.86 1213.74,-309.99"/>
<polygon fill="midnightblue" stroke="midnightblue" points="1217.25,-310.03 1214.69,-299.75 1210.28,-309.39 1217.25,-310.03"/>
</g>
<!-- Node50&#45;&gt;Node45 -->
<g id="edge57" class="edge">
<title>Node50&#45;&gt;Node45</title>
<path fill="none" stroke="midnightblue" d="M296.5,-504.08C296.5,-497.01 296.5,-486.86 296.5,-477.99"/>
<polygon fill="midnightblue" stroke="midnightblue" points="300,-477.75 296.5,-467.75 293,-477.75 300,-477.75"/>
</g>
<!-- Node52 -->
<g id="node37" class="node">
<title>Node52</title>
<g id="a_node37"><a xlink:href="namespace_8h.html" target="_top" xlink:title=" ">
<polygon fill="none" stroke="black" points="1233,-168.5 1233,-187.5 1334,-187.5 1334,-168.5 1233,-168.5"/>
<text text-anchor="middle" x="1283.5" y="-175.5" font-family="Helvetica,sans-Serif" font-size="10.00">util/namespace.h</text>
</a>
</g>
</g>
<!-- Node51&#45;&gt;Node52 -->
<g id="edge59" class="edge">
<title>Node51&#45;&gt;Node52</title>
<path fill="none" stroke="midnightblue" d="M995.15,-560.48C1074.96,-545.16 1222.87,-505.37 1305.5,-412 1325.45,-389.46 1324.5,-377.1 1324.5,-347 1324.5,-347 1324.5,-347 1324.5,-289 1324.5,-254.52 1306.59,-217.56 1294.44,-196.47"/>
<polygon fill="midnightblue" stroke="midnightblue" points="1297.34,-194.49 1289.2,-187.71 1291.34,-198.09 1297.34,-194.49"/>
</g>
<!-- Node53 -->
<g id="node38" class="node">
<title>Node53</title>
<g id="a_node38"><a xlink:href="std__code_8h.html" target="_top" xlink:title=" ">
<polygon fill="none" stroke="black" points="578.5,-504.5 578.5,-523.5 666.5,-523.5 666.5,-504.5 578.5,-504.5"/>
<text text-anchor="middle" x="622.5" y="-511.5" font-family="Helvetica,sans-Serif" font-size="10.00">util/std_code.h</text>
</a>
</g>
</g>
<!-- Node51&#45;&gt;Node53 -->
<g id="edge62" class="edge">
<title>Node51&#45;&gt;Node53</title>
<path fill="none" stroke="midnightblue" d="M890.11,-560.44C831.84,-550.55 736.28,-534.32 676.51,-524.17"/>
<polygon fill="midnightblue" stroke="midnightblue" points="676.95,-520.7 666.51,-522.47 675.78,-527.6 676.95,-520.7"/>
</g>
<!-- Node55 -->
<g id="node40" class="node">
<title>Node55</title>
<g id="a_node40"><a xlink:href="symbol_8h.html" target="_top" xlink:title="Symbol table entry.">
<polygon fill="none" stroke="black" points="825.5,-336.5 825.5,-355.5 905.5,-355.5 905.5,-336.5 825.5,-336.5"/>
<text text-anchor="middle" x="865.5" y="-343.5" font-family="Helvetica,sans-Serif" font-size="10.00">util/symbol.h</text>
</a>
</g>
</g>
<!-- Node51&#45;&gt;Node55 -->
<g id="edge70" class="edge">
<title>Node51&#45;&gt;Node55</title>
<path fill="none" stroke="midnightblue" d="M925.5,-560.36C913.38,-552.51 896.98,-539.77 888.5,-524 860.67,-472.24 861.45,-400.04 863.73,-366.08"/>
<polygon fill="midnightblue" stroke="midnightblue" points="867.24,-366.01 864.55,-355.76 860.26,-365.45 867.24,-366.01"/>
</g>
<!-- Node56 -->
<g id="node41" class="node">
<title>Node56</title>
<g id="a_node41"><a xlink:href="typecheck_8h.html" target="_top" xlink:title=" ">
<polygon fill="none" stroke="black" points="907,-448.5 907,-467.5 1002,-467.5 1002,-448.5 907,-448.5"/>
<text text-anchor="middle" x="954.5" y="-455.5" font-family="Helvetica,sans-Serif" font-size="10.00">util/typecheck.h</text>
</a>
</g>
</g>
<!-- Node51&#45;&gt;Node56 -->
<g id="edge74" class="edge">
<title>Node51&#45;&gt;Node56</title>
<path fill="none" stroke="midnightblue" d="M941.6,-560.37C943.86,-542.62 949.07,-501.67 952.13,-477.6"/>
<polygon fill="midnightblue" stroke="midnightblue" points="955.62,-477.95 953.41,-467.59 948.67,-477.07 955.62,-477.95"/>
</g>
<!-- Node58 -->
<g id="node43" class="node">
<title>Node58</title>
<g id="a_node43"><a xlink:href="designator_8h.html" target="_top" xlink:title="ANSI&#45;C Language Type Checking.">
<polygon fill="none" stroke="black" points="1039,-280.5 1039,-299.5 1116,-299.5 1116,-280.5 1039,-280.5"/>
<text text-anchor="middle" x="1077.5" y="-287.5" font-family="Helvetica,sans-Serif" font-size="10.00">designator.h</text>
</a>
</g>
</g>
<!-- Node51&#45;&gt;Node58 -->
<g id="edge83" class="edge">
<title>Node51&#45;&gt;Node58</title>
<path fill="none" stroke="midnightblue" d="M959.74,-560.42C991.03,-544.99 1049.5,-509.41 1049.5,-459 1049.5,-459 1049.5,-459 1049.5,-401 1049.5,-367.79 1061.63,-330.63 1069.93,-309.12"/>
<polygon fill="midnightblue" stroke="midnightblue" points="1073.25,-310.23 1073.72,-299.65 1066.75,-307.63 1073.25,-310.23"/>
</g>
<!-- Node59 -->
<g id="node44" class="node">
<title>Node59</title>
<g id="a_node44"><a xlink:title=" ">
<polygon fill="none" stroke="#bfbfbf" points="897.5,-504.5 897.5,-523.5 935.5,-523.5 935.5,-504.5 897.5,-504.5"/>
<text text-anchor="middle" x="916.5" y="-511.5" font-family="Helvetica,sans-Serif" font-size="10.00">map</text>
</a>
</g>
</g>
<!-- Node51&#45;&gt;Node59 -->
<g id="edge87" class="edge">
<title>Node51&#45;&gt;Node59</title>
<path fill="none" stroke="midnightblue" d="M936.54,-560.08C933.29,-552.77 928.58,-542.18 924.55,-533.1"/>
<polygon fill="midnightblue" stroke="midnightblue" points="927.65,-531.47 920.39,-523.75 921.25,-534.31 927.65,-531.47"/>
</g>
<!-- Node52&#45;&gt;Node11 -->
<g id="edge61" class="edge">
<title>Node52&#45;&gt;Node11</title>
<path fill="none" stroke="midnightblue" d="M1284.99,-168.08C1286.18,-160.93 1287.89,-150.64 1289.38,-141.69"/>
<polygon fill="midnightblue" stroke="midnightblue" points="1292.85,-142.19 1291.04,-131.75 1285.95,-141.04 1292.85,-142.19"/>
</g>
<!-- Node52&#45;&gt;Node14 -->
<g id="edge60" class="edge">
<title>Node52&#45;&gt;Node14</title>
<path fill="none" stroke="midnightblue" d="M1259.19,-168.4C1219.53,-154.66 1138.22,-127.72 1067.5,-112 975,-91.44 864.7,-77.93 804.4,-71.46"/>
<polygon fill="midnightblue" stroke="midnightblue" points="804.76,-67.98 794.45,-70.41 804.02,-74.94 804.76,-67.98"/>
</g>
<!-- Node53&#45;&gt;Node45 -->
<g id="edge69" class="edge">
<title>Node53&#45;&gt;Node45</title>
<path fill="none" stroke="midnightblue" d="M578.1,-506.72C524.12,-498.92 430.02,-484.79 340.45,-468.29"/>
<polygon fill="midnightblue" stroke="midnightblue" points="340.87,-464.81 330.39,-466.43 339.59,-471.69 340.87,-464.81"/>
</g>
<!-- Node53&#45;&gt;Node24 -->
<g id="edge63" class="edge">
<title>Node53&#45;&gt;Node24</title>
<path fill="none" stroke="midnightblue" d="M647.3,-504.42C729.49,-476 992.52,-385.03 1076.48,-356"/>
<polygon fill="midnightblue" stroke="midnightblue" points="1077.72,-359.27 1086.03,-352.7 1075.43,-352.66 1077.72,-359.27"/>
</g>
<!-- Node54 -->
<g id="node39" class="node">
<title>Node54</title>
<g id="a_node39"><a xlink:href="std__code__base_8h.html" target="_top" xlink:title=" ">
<polygon fill="none" stroke="black" points="467.5,-448.5 467.5,-467.5 565.5,-467.5 565.5,-448.5 467.5,-448.5"/>
<text text-anchor="middle" x="516.5" y="-455.5" font-family="Helvetica,sans-Serif" font-size="10.00">std_code_base.h</text>
</a>
</g>
</g>
<!-- Node53&#45;&gt;Node54 -->
<g id="edge64" class="edge">
<title>Node53&#45;&gt;Node54</title>
<path fill="none" stroke="midnightblue" d="M605.47,-504.32C588.47,-495.66 562.12,-482.24 542.51,-472.25"/>
<polygon fill="midnightblue" stroke="midnightblue" points="543.99,-469.08 533.49,-467.65 540.81,-475.31 543.99,-469.08"/>
</g>
<!-- Node54&#45;&gt;Node6 -->
<g id="edge67" class="edge">
<title>Node54&#45;&gt;Node6</title>
<path fill="none" stroke="midnightblue" d="M489.72,-448.44C461.17,-439.32 415.77,-424.81 383.96,-414.65"/>
<polygon fill="midnightblue" stroke="midnightblue" points="384.74,-411.23 374.15,-411.52 382.61,-417.89 384.74,-411.23"/>
</g>
<!-- Node54&#45;&gt;Node14 -->
<g id="edge66" class="edge">
<title>Node54&#45;&gt;Node14</title>
<path fill="none" stroke="midnightblue" d="M565.6,-452.08C626.25,-442.99 721.5,-417.48 721.5,-347 721.5,-347 721.5,-347 721.5,-177 721.5,-142.81 738.1,-105.76 749.36,-84.57"/>
<polygon fill="midnightblue" stroke="midnightblue" points="752.45,-86.22 754.22,-75.77 746.32,-82.83 752.45,-86.22"/>
</g>
<!-- Node54&#45;&gt;Node35 -->
<g id="edge68" class="edge">
<title>Node54&#45;&gt;Node35</title>
<path fill="none" stroke="midnightblue" d="M511.28,-448.1C493.9,-419.26 434.91,-327.45 361.5,-280 315.45,-250.23 282.04,-283 243.5,-244 231.5,-231.86 227,-212.58 225.35,-198.17"/>
<polygon fill="midnightblue" stroke="midnightblue" points="228.82,-197.58 224.55,-187.88 221.84,-198.12 228.82,-197.58"/>
</g>
<!-- Node54&#45;&gt;Node41 -->
<g id="edge65" class="edge">
<title>Node54&#45;&gt;Node41</title>
<path fill="none" stroke="midnightblue" d="M469.49,-448.43C416,-438.46 332.11,-422.07 301.5,-412 258.88,-397.98 212.02,-374.92 184.22,-360.37"/>
<polygon fill="midnightblue" stroke="midnightblue" points="185.69,-357.19 175.21,-355.61 182.42,-363.38 185.69,-357.19"/>
</g>
<!-- Node55&#45;&gt;Node7 -->
<g id="edge72" class="edge">
<title>Node55&#45;&gt;Node7</title>
<path fill="none" stroke="midnightblue" d="M825.33,-338.49C759.11,-327.75 628.19,-306.52 566.35,-296.49"/>
<polygon fill="midnightblue" stroke="midnightblue" points="566.77,-293.01 556.34,-294.87 565.65,-299.92 566.77,-293.01"/>
</g>
<!-- Node55&#45;&gt;Node14 -->
<g id="edge73" class="edge">
<title>Node55&#45;&gt;Node14</title>
<path fill="none" stroke="midnightblue" d="M847.04,-336.39C816.67,-320.81 759.5,-284.86 759.5,-235 759.5,-235 759.5,-235 759.5,-177 759.5,-144.95 759.5,-107.64 759.5,-85.75"/>
<polygon fill="midnightblue" stroke="midnightblue" points="763,-85.56 759.5,-75.56 756,-85.56 763,-85.56"/>
</g>
<!-- Node55&#45;&gt;Node20 -->
<g id="edge71" class="edge">
<title>Node55&#45;&gt;Node20</title>
<path fill="none" stroke="midnightblue" d="M873.06,-336.26C885.84,-322.08 913.22,-294.2 942.5,-280 1011.54,-246.53 1038.7,-261.24 1117.52,-244.03"/>
<polygon fill="midnightblue" stroke="midnightblue" points="1118.43,-247.41 1127.4,-241.77 1116.87,-240.59 1118.43,-247.41"/>
</g>
<!-- Node57 -->
<g id="node42" class="node">
<title>Node57</title>
<g id="a_node42"><a xlink:href="src_2util_2message_8h.html" target="_top" xlink:title=" ">
<polygon fill="none" stroke="black" points="825.5,-280.5 825.5,-299.5 895.5,-299.5 895.5,-280.5 825.5,-280.5"/>
<text text-anchor="middle" x="860.5" y="-287.5" font-family="Helvetica,sans-Serif" font-size="10.00">message.h</text>
</a>
</g>
</g>
<!-- Node56&#45;&gt;Node57 -->
<g id="edge75" class="edge">
<title>Node56&#45;&gt;Node57</title>
<path fill="none" stroke="midnightblue" d="M953.32,-448.36C950.12,-427.46 939.77,-373.13 914.5,-336 906.26,-323.9 893.89,-313.26 883.07,-305.37"/>
<polygon fill="midnightblue" stroke="midnightblue" points="885.04,-302.48 874.83,-299.65 881.05,-308.23 885.04,-302.48"/>
</g>
<!-- Node57&#45;&gt;Node3 -->
<g id="edge80" class="edge">
<title>Node57&#45;&gt;Node3</title>
<path fill="none" stroke="midnightblue" d="M860.61,-280.08C860.92,-253.95 861.85,-177.21 862.28,-141.58"/>
<polygon fill="midnightblue" stroke="midnightblue" points="865.78,-141.61 862.4,-131.57 858.78,-141.53 865.78,-141.61"/>
</g>
<!-- Node57&#45;&gt;Node10 -->
<g id="edge82" class="edge">
<title>Node57&#45;&gt;Node10</title>
<path fill="none" stroke="midnightblue" d="M874.46,-280.37C887.99,-271.78 908.85,-257.9 925.5,-244 943.76,-228.76 962.8,-209.23 975.51,-195.57"/>
<polygon fill="midnightblue" stroke="midnightblue" points="978.35,-197.65 982.55,-187.92 973.2,-192.91 978.35,-197.65"/>
</g>
<!-- Node57&#45;&gt;Node12 -->
<g id="edge79" class="edge">
<title>Node57&#45;&gt;Node12</title>
<path fill="none" stroke="midnightblue" d="M887.67,-280.49C927.76,-266.75 1003.12,-236.24 1050.5,-188 1097.47,-140.18 1127.46,-64.4 1139.49,-29.59"/>
<polygon fill="midnightblue" stroke="midnightblue" points="1142.91,-30.41 1142.77,-19.82 1136.27,-28.19 1142.91,-30.41"/>
</g>
<!-- Node57&#45;&gt;Node14 -->
<g id="edge81" class="edge">
<title>Node57&#45;&gt;Node14</title>
<path fill="none" stroke="midnightblue" d="M856.54,-280.3C841.59,-247.42 788.34,-130.39 767.73,-85.09"/>
<polygon fill="midnightblue" stroke="midnightblue" points="770.87,-83.54 763.54,-75.88 764.5,-86.44 770.87,-83.54"/>
</g>
<!-- Node57&#45;&gt;Node16 -->
<g id="edge78" class="edge">
<title>Node57&#45;&gt;Node16</title>
<path fill="none" stroke="midnightblue" d="M866.18,-280.49C882.55,-254.9 927.45,-176.45 908.5,-112 898.71,-78.69 874.16,-45.99 858.19,-27.19"/>
<polygon fill="midnightblue" stroke="midnightblue" points="860.75,-24.81 851.54,-19.58 855.48,-29.41 860.75,-24.81"/>
</g>
<!-- Node57&#45;&gt;Node40 -->
<g id="edge76" class="edge">
<title>Node57&#45;&gt;Node40</title>
<path fill="none" stroke="midnightblue" d="M825.47,-286.87C751.31,-282.06 572.86,-268.92 414.06,-244.09"/>
<polygon fill="midnightblue" stroke="midnightblue" points="414.53,-240.62 404.11,-242.52 413.44,-247.54 414.53,-240.62"/>
</g>
<!-- Node57&#45;&gt;Node20 -->
<g id="edge77" class="edge">
<title>Node57&#45;&gt;Node20</title>
<path fill="none" stroke="midnightblue" d="M895.56,-282.51C900.24,-281.66 904.99,-280.8 909.5,-280 999.22,-264.03 1024.8,-264.38 1117.61,-244.03"/>
<polygon fill="midnightblue" stroke="midnightblue" points="1118.41,-247.43 1127.42,-241.85 1116.9,-240.6 1118.41,-247.43"/>
</g>
<!-- Node58&#45;&gt;Node9 -->
<g id="edge86" class="edge">
<title>Node58&#45;&gt;Node9</title>
<path fill="none" stroke="midnightblue" d="M1038.76,-281.53C1035.63,-280.99 1032.52,-280.47 1029.5,-280 910.08,-261.36 767.41,-245.38 703.45,-238.54"/>
<polygon fill="midnightblue" stroke="midnightblue" points="703.47,-235.03 693.16,-237.45 702.73,-241.99 703.47,-235.03"/>
</g>
<!-- Node58&#45;&gt;Node13 -->
<g id="edge84" class="edge">
<title>Node58&#45;&gt;Node13</title>
<path fill="none" stroke="midnightblue" d="M1116.18,-282.96C1153.05,-276.35 1209.6,-263.94 1255.5,-244 1297.68,-225.68 1318.83,-227.43 1342.5,-188 1361.6,-156.19 1359.16,-110.91 1355.77,-85.73"/>
<polygon fill="midnightblue" stroke="midnightblue" points="1359.21,-85.04 1354.22,-75.69 1352.29,-86.11 1359.21,-85.04"/>
</g>
<!-- Node58&#45;&gt;Node20 -->
<g id="edge85" class="edge">
<title>Node58&#45;&gt;Node20</title>
<path fill="none" stroke="midnightblue" d="M1089.39,-280.32C1100.65,-272.11 1117.79,-259.6 1131.21,-249.81"/>
<polygon fill="midnightblue" stroke="midnightblue" points="1133.38,-252.56 1139.39,-243.83 1129.25,-246.9 1133.38,-252.56"/>
</g>
<!-- Node60&#45;&gt;Node12 -->
<g id="edge89" class="edge">
<title>Node60&#45;&gt;Node12</title>
<path fill="none" stroke="midnightblue" d="M1414.28,-392.35C1421.92,-374.03 1438.5,-329.82 1438.5,-291 1438.5,-291 1438.5,-291 1438.5,-121 1438.5,-83.44 1416.87,-75.05 1384.5,-56 1318.53,-17.18 1226.14,-10.78 1177.83,-10.34"/>
<polygon fill="midnightblue" stroke="midnightblue" points="1177.66,-6.84 1167.66,-10.34 1177.65,-13.84 1177.66,-6.84"/>
</g>
</g>
</svg>
