<?xml version="1.0" encoding="UTF-8" standalone="no"?>
<!DOCTYPE svg PUBLIC "-//W3C//DTD SVG 1.1//EN"
 "http://www.w3.org/Graphics/SVG/1.1/DTD/svg11.dtd">
<!-- Generated by graphviz version 2.43.0 (0)
 -->
<!-- Title: /home/runner/work/cbmc/cbmc/src/analyses/cfg_dominators.h Pages: 1 -->
<svg width="1598pt" height="744pt"
 viewBox="0.00 0.00 1598.00 744.00" xmlns="http://www.w3.org/2000/svg" xmlns:xlink="http://www.w3.org/1999/xlink">
<g id="graph0" class="graph" transform="scale(1 1) rotate(0) translate(4 740)">
<title>/home/runner/work/cbmc/cbmc/src/analyses/cfg_dominators.h</title>
<!-- Node1 -->
<g id="node1" class="node">
<title>Node1</title>
<g id="a_node1"><a xlink:title="Compute dominators for CFG of goto_function.">
<polygon fill="#bfbfbf" stroke="black" points="813,-694.5 813,-735.5 951,-735.5 951,-694.5 813,-694.5"/>
<text text-anchor="start" x="821" y="-723.5" font-family="Helvetica,sans-Serif" font-size="10.00">/home/runner/work/cbmc</text>
<text text-anchor="start" x="821" y="-712.5" font-family="Helvetica,sans-Serif" font-size="10.00">/cbmc/src/analyses/cfg</text>
<text text-anchor="middle" x="882" y="-701.5" font-family="Helvetica,sans-Serif" font-size="10.00">_dominators.h</text>
</a>
</g>
</g>
<!-- Node2 -->
<g id="node2" class="node">
<title>Node2</title>
<g id="a_node2"><a xlink:title=" ">
<polygon fill="none" stroke="#bfbfbf" points="0,-392.5 0,-411.5 32,-411.5 32,-392.5 0,-392.5"/>
<text text-anchor="middle" x="16" y="-399.5" font-family="Helvetica,sans-Serif" font-size="10.00">set</text>
</a>
</g>
</g>
<!-- Node1&#45;&gt;Node2 -->
<g id="edge1" class="edge">
<title>Node1&#45;&gt;Node2</title>
<path fill="none" stroke="midnightblue" d="M812.83,-714.22C651.91,-712.87 266,-698.11 266,-587.5 266,-587.5 266,-587.5 266,-524 266,-499.28 105.56,-436.51 41.74,-412.52"/>
<polygon fill="midnightblue" stroke="midnightblue" points="42.61,-409.11 32.02,-408.89 40.16,-415.67 42.61,-409.11"/>
</g>
<!-- Node3 -->
<g id="node3" class="node">
<title>Node3</title>
<g id="a_node3"><a xlink:title=" ">
<polygon fill="none" stroke="#bfbfbf" points="866,-392.5 866,-411.5 898,-411.5 898,-392.5 866,-392.5"/>
<text text-anchor="middle" x="882" y="-399.5" font-family="Helvetica,sans-Serif" font-size="10.00">list</text>
</a>
</g>
</g>
<!-- Node1&#45;&gt;Node3 -->
<g id="edge2" class="edge">
<title>Node1&#45;&gt;Node3</title>
<path fill="none" stroke="midnightblue" d="M882,-694.28C882,-669.39 882,-625.27 882,-587.5 882,-587.5 882,-587.5 882,-524 882,-487.71 882,-445.31 882,-421.56"/>
<polygon fill="midnightblue" stroke="midnightblue" points="885.5,-421.51 882,-411.51 878.5,-421.51 885.5,-421.51"/>
</g>
<!-- Node4 -->
<g id="node4" class="node">
<title>Node4</title>
<g id="a_node4"><a xlink:title=" ">
<polygon fill="none" stroke="#bfbfbf" points="1524,-392.5 1524,-411.5 1562,-411.5 1562,-392.5 1524,-392.5"/>
<text text-anchor="middle" x="1543" y="-399.5" font-family="Helvetica,sans-Serif" font-size="10.00">map</text>
</a>
</g>
</g>
<!-- Node1&#45;&gt;Node4 -->
<g id="edge3" class="edge">
<title>Node1&#45;&gt;Node4</title>
<path fill="none" stroke="midnightblue" d="M951.02,-712.35C1097.68,-706.98 1427,-684.15 1427,-587.5 1427,-587.5 1427,-587.5 1427,-524 1427,-473.06 1481.23,-435.21 1515.53,-416.37"/>
<polygon fill="midnightblue" stroke="midnightblue" points="1517.42,-419.33 1524.62,-411.56 1514.14,-413.14 1517.42,-419.33"/>
</g>
<!-- Node5 -->
<g id="node5" class="node">
<title>Node5</title>
<g id="a_node5"><a xlink:title=" ">
<polygon fill="none" stroke="#bfbfbf" points="1075,-168.5 1075,-187.5 1123,-187.5 1123,-168.5 1075,-168.5"/>
<text text-anchor="middle" x="1099" y="-175.5" font-family="Helvetica,sans-Serif" font-size="10.00">iosfwd</text>
</a>
</g>
</g>
<!-- Node1&#45;&gt;Node5 -->
<g id="edge4" class="edge">
<title>Node1&#45;&gt;Node5</title>
<path fill="none" stroke="midnightblue" d="M951.18,-708.87C1129.33,-694.74 1590,-651.96 1590,-587.5 1590,-587.5 1590,-587.5 1590,-462.5 1590,-251.05 1244.26,-194.84 1133.03,-182.23"/>
<polygon fill="midnightblue" stroke="midnightblue" points="1133.33,-178.75 1123.01,-181.14 1132.58,-185.7 1133.33,-178.75"/>
</g>
<!-- Node6 -->
<g id="node6" class="node">
<title>Node6</title>
<g id="a_node6"><a xlink:href="goto__functions_8h.html" target="_top" xlink:title="Goto Programs with Functions.">
<polygon fill="none" stroke="black" points="740.5,-571.5 740.5,-601.5 853.5,-601.5 853.5,-571.5 740.5,-571.5"/>
<text text-anchor="start" x="748.5" y="-589.5" font-family="Helvetica,sans-Serif" font-size="10.00">goto&#45;programs/goto</text>
<text text-anchor="middle" x="797" y="-578.5" font-family="Helvetica,sans-Serif" font-size="10.00">_functions.h</text>
</a>
</g>
</g>
<!-- Node1&#45;&gt;Node6 -->
<g id="edge5" class="edge">
<title>Node1&#45;&gt;Node6</title>
<path fill="none" stroke="midnightblue" d="M868.72,-694.23C853.4,-671.44 828.26,-634.03 812.18,-610.1"/>
<polygon fill="midnightblue" stroke="midnightblue" points="814.99,-607.99 806.5,-601.64 809.18,-611.9 814.99,-607.99"/>
</g>
<!-- Node45 -->
<g id="node27" class="node">
<title>Node45</title>
<g id="a_node27"><a xlink:href="goto__program_8h.html" target="_top" xlink:title="Concrete Goto Program.">
<polygon fill="none" stroke="black" points="544,-454 544,-473 638,-473 638,-454 544,-454"/>
<text text-anchor="middle" x="591" y="-461" font-family="Helvetica,sans-Serif" font-size="10.00">goto_program.h</text>
</a>
</g>
</g>
<!-- Node1&#45;&gt;Node45 -->
<g id="edge58" class="edge">
<title>Node1&#45;&gt;Node45</title>
<path fill="none" stroke="midnightblue" d="M832.03,-694.4C770.47,-667.67 667.05,-613.91 610,-535 598.99,-519.77 594.36,-498.55 592.41,-483.37"/>
<polygon fill="midnightblue" stroke="midnightblue" points="595.87,-482.74 591.39,-473.15 588.9,-483.44 595.87,-482.74"/>
</g>
<!-- Node51 -->
<g id="node33" class="node">
<title>Node51</title>
<g id="a_node33"><a xlink:href="cfg_8h.html" target="_top" xlink:title="Control Flow Graph.">
<polygon fill="none" stroke="black" points="910,-638.5 910,-657.5 1026,-657.5 1026,-638.5 910,-638.5"/>
<text text-anchor="middle" x="968" y="-645.5" font-family="Helvetica,sans-Serif" font-size="10.00">goto&#45;programs/cfg.h</text>
</a>
</g>
</g>
<!-- Node1&#45;&gt;Node51 -->
<g id="edge59" class="edge">
<title>Node1&#45;&gt;Node51</title>
<path fill="none" stroke="midnightblue" d="M907.8,-694.5C920.86,-684.63 936.45,-672.84 948.5,-663.74"/>
<polygon fill="midnightblue" stroke="midnightblue" points="950.68,-666.47 956.55,-657.65 946.46,-660.89 950.68,-666.47"/>
</g>
<!-- Node6&#45;&gt;Node4 -->
<g id="edge57" class="edge">
<title>Node6&#45;&gt;Node4</title>
<path fill="none" stroke="midnightblue" d="M853.84,-571.75C937.53,-551.49 1098.84,-512.41 1236,-479 1357.8,-449.33 1388.63,-443.38 1510,-412 1511.26,-411.67 1512.55,-411.34 1513.85,-411"/>
<polygon fill="midnightblue" stroke="midnightblue" points="1515.07,-414.29 1523.83,-408.32 1513.26,-407.53 1515.07,-414.29"/>
</g>
<!-- Node7 -->
<g id="node7" class="node">
<title>Node7</title>
<g id="a_node7"><a xlink:href="goto__function_8h.html" target="_top" xlink:title="Goto Function.">
<polygon fill="none" stroke="black" points="751,-515.5 751,-534.5 843,-534.5 843,-515.5 751,-515.5"/>
<text text-anchor="middle" x="797" y="-522.5" font-family="Helvetica,sans-Serif" font-size="10.00">goto_function.h</text>
</a>
</g>
</g>
<!-- Node6&#45;&gt;Node7 -->
<g id="edge6" class="edge">
<title>Node6&#45;&gt;Node7</title>
<path fill="none" stroke="midnightblue" d="M797,-571.4C797,-563.47 797,-553.46 797,-544.86"/>
<polygon fill="midnightblue" stroke="midnightblue" points="800.5,-544.66 797,-534.66 793.5,-544.66 800.5,-544.66"/>
</g>
<!-- Node50 -->
<g id="node32" class="node">
<title>Node50</title>
<g id="a_node32"><a xlink:href="cprover__prefix_8h.html" target="_top" xlink:title=" ">
<polygon fill="none" stroke="black" points="619,-515.5 619,-534.5 733,-534.5 733,-515.5 619,-515.5"/>
<text text-anchor="middle" x="676" y="-522.5" font-family="Helvetica,sans-Serif" font-size="10.00">util/cprover_prefix.h</text>
</a>
</g>
</g>
<!-- Node6&#45;&gt;Node50 -->
<g id="edge56" class="edge">
<title>Node6&#45;&gt;Node50</title>
<path fill="none" stroke="midnightblue" d="M768.32,-571.4C748.48,-561.64 722.24,-548.74 702.81,-539.18"/>
<polygon fill="midnightblue" stroke="midnightblue" points="704.12,-535.93 693.61,-534.66 701.04,-542.21 704.12,-535.93"/>
</g>
<!-- Node8 -->
<g id="node8" class="node">
<title>Node8</title>
<g id="a_node8"><a xlink:href="std__types_8h.html" target="_top" xlink:title="Pre&#45;defined types.">
<polygon fill="none" stroke="black" points="630,-280.5 630,-299.5 722,-299.5 722,-280.5 630,-280.5"/>
<text text-anchor="middle" x="676" y="-287.5" font-family="Helvetica,sans-Serif" font-size="10.00">util/std_types.h</text>
</a>
</g>
</g>
<!-- Node7&#45;&gt;Node8 -->
<g id="edge7" class="edge">
<title>Node7&#45;&gt;Node8</title>
<path fill="none" stroke="midnightblue" d="M796.35,-515.25C793.87,-486.78 782.77,-395.14 740,-336 730.52,-322.89 716.01,-312.24 703.2,-304.6"/>
<polygon fill="midnightblue" stroke="midnightblue" points="704.7,-301.43 694.27,-299.57 701.27,-307.53 704.7,-301.43"/>
</g>
<!-- Node7&#45;&gt;Node45 -->
<g id="edge38" class="edge">
<title>Node7&#45;&gt;Node45</title>
<path fill="none" stroke="midnightblue" d="M767.49,-515.48C731.38,-505.05 670.15,-487.36 630.15,-475.81"/>
<polygon fill="midnightblue" stroke="midnightblue" points="631.04,-472.42 620.46,-473.01 629.1,-479.15 631.04,-472.42"/>
</g>
<!-- Node9 -->
<g id="node9" class="node">
<title>Node9</title>
<g id="a_node9"><a xlink:href="expr_8h.html" target="_top" xlink:title=" ">
<polygon fill="none" stroke="black" points="421.5,-168.5 421.5,-187.5 468.5,-187.5 468.5,-168.5 421.5,-168.5"/>
<text text-anchor="middle" x="445" y="-175.5" font-family="Helvetica,sans-Serif" font-size="10.00">expr.h</text>
</a>
</g>
</g>
<!-- Node8&#45;&gt;Node9 -->
<g id="edge8" class="edge">
<title>Node8&#45;&gt;Node9</title>
<path fill="none" stroke="midnightblue" d="M629.69,-284.7C574.76,-278.68 487.66,-265.94 464,-244 451.35,-232.27 446.96,-212.62 445.52,-198"/>
<polygon fill="midnightblue" stroke="midnightblue" points="448.98,-197.36 444.89,-187.59 442,-197.78 448.98,-197.36"/>
</g>
<!-- Node35 -->
<g id="node14" class="node">
<title>Node35</title>
<g id="a_node14"><a xlink:href="validate_8h.html" target="_top" xlink:title=" ">
<polygon fill="none" stroke="red" points="438.5,-56.5 438.5,-75.5 503.5,-75.5 503.5,-56.5 438.5,-56.5"/>
<text text-anchor="middle" x="471" y="-63.5" font-family="Helvetica,sans-Serif" font-size="10.00">validate.h</text>
</a>
</g>
</g>
<!-- Node8&#45;&gt;Node35 -->
<g id="edge36" class="edge">
<title>Node8&#45;&gt;Node35</title>
<path fill="none" stroke="midnightblue" d="M664.4,-280.4C654.32,-272.23 640.22,-258.99 633,-244 607.29,-190.66 653.22,-157.22 615,-112 590.21,-82.67 546.57,-72.17 513.82,-68.56"/>
<polygon fill="midnightblue" stroke="midnightblue" points="513.88,-65.05 503.6,-67.61 513.23,-72.02 513.88,-65.05"/>
</g>
<!-- Node41 -->
<g id="node20" class="node">
<title>Node41</title>
<g id="a_node20"><a xlink:href="expr__cast_8h.html" target="_top" xlink:title="Templated functions to cast to specific exprt&#45;derived classes.">
<polygon fill="none" stroke="black" points="473.5,-224.5 473.5,-243.5 546.5,-243.5 546.5,-224.5 473.5,-224.5"/>
<text text-anchor="middle" x="510" y="-231.5" font-family="Helvetica,sans-Serif" font-size="10.00">expr_cast.h</text>
</a>
</g>
</g>
<!-- Node8&#45;&gt;Node41 -->
<g id="edge22" class="edge">
<title>Node8&#45;&gt;Node41</title>
<path fill="none" stroke="midnightblue" d="M649.7,-280.44C621.65,-271.32 577.06,-256.81 545.82,-246.65"/>
<polygon fill="midnightblue" stroke="midnightblue" points="546.77,-243.28 536.18,-243.52 544.61,-249.94 546.77,-243.28"/>
</g>
<!-- Node17 -->
<g id="node22" class="node">
<title>Node17</title>
<g id="a_node22"><a xlink:href="src_2util_2invariant_8h.html" target="_top" xlink:title=" ">
<polygon fill="none" stroke="red" points="851.5,-168.5 851.5,-187.5 920.5,-187.5 920.5,-168.5 851.5,-168.5"/>
<text text-anchor="middle" x="886" y="-175.5" font-family="Helvetica,sans-Serif" font-size="10.00">invariant.h</text>
</a>
</g>
</g>
<!-- Node8&#45;&gt;Node17 -->
<g id="edge31" class="edge">
<title>Node8&#45;&gt;Node17</title>
<path fill="none" stroke="midnightblue" d="M722.02,-282.87C754.51,-276.89 797.97,-265.43 831,-244 849.92,-231.72 865.83,-210.99 875.59,-196.24"/>
<polygon fill="midnightblue" stroke="midnightblue" points="878.69,-197.89 881.09,-187.57 872.78,-194.14 878.69,-197.89"/>
</g>
<!-- Node43 -->
<g id="node24" class="node">
<title>Node43</title>
<g id="a_node24"><a xlink:href="mp__arith_8h.html" target="_top" xlink:title=" ">
<polygon fill="none" stroke="black" points="641.5,-224.5 641.5,-243.5 710.5,-243.5 710.5,-224.5 641.5,-224.5"/>
<text text-anchor="middle" x="676" y="-231.5" font-family="Helvetica,sans-Serif" font-size="10.00">mp_arith.h</text>
</a>
</g>
</g>
<!-- Node8&#45;&gt;Node43 -->
<g id="edge32" class="edge">
<title>Node8&#45;&gt;Node43</title>
<path fill="none" stroke="midnightblue" d="M676,-280.08C676,-273.01 676,-262.86 676,-253.99"/>
<polygon fill="midnightblue" stroke="midnightblue" points="679.5,-253.75 676,-243.75 672.5,-253.75 679.5,-253.75"/>
</g>
<!-- Node26 -->
<g id="node26" class="node">
<title>Node26</title>
<g id="a_node26"><a xlink:title=" ">
<polygon fill="none" stroke="#bfbfbf" points="728.5,-224.5 728.5,-243.5 821.5,-243.5 821.5,-224.5 728.5,-224.5"/>
<text text-anchor="middle" x="775" y="-231.5" font-family="Helvetica,sans-Serif" font-size="10.00">unordered_map</text>
</a>
</g>
</g>
<!-- Node8&#45;&gt;Node26 -->
<g id="edge37" class="edge">
<title>Node8&#45;&gt;Node26</title>
<path fill="none" stroke="midnightblue" d="M691.91,-280.32C707.64,-271.74 731.94,-258.49 750.21,-248.52"/>
<polygon fill="midnightblue" stroke="midnightblue" points="752.03,-251.52 759.13,-243.65 748.68,-245.37 752.03,-251.52"/>
</g>
<!-- Node10 -->
<g id="node10" class="node">
<title>Node10</title>
<g id="a_node10"><a xlink:href="as__const_8h.html" target="_top" xlink:title=" ">
<polygon fill="none" stroke="black" points="416,-112.5 416,-131.5 484,-131.5 484,-112.5 416,-112.5"/>
<text text-anchor="middle" x="450" y="-119.5" font-family="Helvetica,sans-Serif" font-size="10.00">as_const.h</text>
</a>
</g>
</g>
<!-- Node9&#45;&gt;Node10 -->
<g id="edge9" class="edge">
<title>Node9&#45;&gt;Node10</title>
<path fill="none" stroke="midnightblue" d="M445.83,-168.08C446.48,-161.01 447.42,-150.86 448.24,-141.99"/>
<polygon fill="midnightblue" stroke="midnightblue" points="451.75,-142.03 449.19,-131.75 444.78,-141.39 451.75,-142.03"/>
</g>
<!-- Node11 -->
<g id="node11" class="node">
<title>Node11</title>
<g id="a_node11"><a xlink:href="type_8h.html" target="_top" xlink:title="Defines typet, type_with_subtypet and type_with_subtypest.">
<polygon fill="none" stroke="black" points="164.5,-112.5 164.5,-131.5 211.5,-131.5 211.5,-112.5 164.5,-112.5"/>
<text text-anchor="middle" x="188" y="-119.5" font-family="Helvetica,sans-Serif" font-size="10.00">type.h</text>
</a>
</g>
</g>
<!-- Node9&#45;&gt;Node11 -->
<g id="edge10" class="edge">
<title>Node9&#45;&gt;Node11</title>
<path fill="none" stroke="midnightblue" d="M421.28,-172.02C375.38,-162.37 274.29,-141.13 221.54,-130.05"/>
<polygon fill="midnightblue" stroke="midnightblue" points="222.17,-126.6 211.66,-127.97 220.73,-133.45 222.17,-126.6"/>
</g>
<!-- Node37 -->
<g id="node16" class="node">
<title>Node37</title>
<g id="a_node16"><a xlink:href="validation__mode_8h.html" target="_top" xlink:title=" ">
<polygon fill="none" stroke="black" points="82.5,-0.5 82.5,-19.5 189.5,-19.5 189.5,-0.5 82.5,-0.5"/>
<text text-anchor="middle" x="136" y="-7.5" font-family="Helvetica,sans-Serif" font-size="10.00">validation_mode.h</text>
</a>
</g>
</g>
<!-- Node9&#45;&gt;Node37 -->
<g id="edge20" class="edge">
<title>Node9&#45;&gt;Node37</title>
<path fill="none" stroke="midnightblue" d="M421.3,-176.78C358.9,-175.68 192.32,-169.25 155,-132 127.87,-104.92 129.53,-55.99 132.88,-29.4"/>
<polygon fill="midnightblue" stroke="midnightblue" points="136.34,-29.91 134.34,-19.5 129.42,-28.88 136.34,-29.91"/>
</g>
<!-- Node38 -->
<g id="node17" class="node">
<title>Node38</title>
<g id="a_node17"><a xlink:href="validate__types_8h.html" target="_top" xlink:title=" ">
<polygon fill="none" stroke="black" points="322,-56.5 322,-75.5 420,-75.5 420,-56.5 322,-56.5"/>
<text text-anchor="middle" x="371" y="-63.5" font-family="Helvetica,sans-Serif" font-size="10.00">validate_types.h</text>
</a>
</g>
</g>
<!-- Node9&#45;&gt;Node38 -->
<g id="edge19" class="edge">
<title>Node9&#45;&gt;Node38</title>
<path fill="none" stroke="midnightblue" d="M459.31,-168.49C478.17,-156.17 507.36,-132.6 493,-112 483.89,-98.92 447.7,-86.58 417.09,-78.14"/>
<polygon fill="midnightblue" stroke="midnightblue" points="417.95,-74.75 407.39,-75.54 416.14,-81.51 417.95,-74.75"/>
</g>
<!-- Node39 -->
<g id="node18" class="node">
<title>Node39</title>
<g id="a_node18"><a xlink:href="validate__expressions_8h.html" target="_top" xlink:title=" ">
<polygon fill="none" stroke="black" points="268.5,-112.5 268.5,-131.5 397.5,-131.5 397.5,-112.5 268.5,-112.5"/>
<text text-anchor="middle" x="333" y="-119.5" font-family="Helvetica,sans-Serif" font-size="10.00">validate_expressions.h</text>
</a>
</g>
</g>
<!-- Node9&#45;&gt;Node39 -->
<g id="edge18" class="edge">
<title>Node9&#45;&gt;Node39</title>
<path fill="none" stroke="midnightblue" d="M427.01,-168.32C408.96,-159.62 380.95,-146.12 360.2,-136.11"/>
<polygon fill="midnightblue" stroke="midnightblue" points="361.48,-132.84 350.95,-131.65 358.44,-139.15 361.48,-132.84"/>
</g>
<!-- Node40 -->
<g id="node19" class="node">
<title>Node40</title>
<g id="a_node19"><a xlink:title=" ">
<polygon fill="none" stroke="#bfbfbf" points="540.5,-112.5 540.5,-131.5 605.5,-131.5 605.5,-112.5 540.5,-112.5"/>
<text text-anchor="middle" x="573" y="-119.5" font-family="Helvetica,sans-Serif" font-size="10.00">functional</text>
</a>
</g>
</g>
<!-- Node9&#45;&gt;Node40 -->
<g id="edge21" class="edge">
<title>Node9&#45;&gt;Node40</title>
<path fill="none" stroke="midnightblue" d="M465.28,-168.44C486.35,-159.56 519.52,-145.56 543.49,-135.45"/>
<polygon fill="midnightblue" stroke="midnightblue" points="544.96,-138.63 552.81,-131.52 542.24,-132.18 544.96,-138.63"/>
</g>
<!-- Node12 -->
<g id="node12" class="node">
<title>Node12</title>
<g id="a_node12"><a xlink:href="source__location_8h.html" target="_top" xlink:title=" ">
<polygon fill="none" stroke="red" points="202,-56.5 202,-75.5 304,-75.5 304,-56.5 202,-56.5"/>
<text text-anchor="middle" x="253" y="-63.5" font-family="Helvetica,sans-Serif" font-size="10.00">source_location.h</text>
</a>
</g>
</g>
<!-- Node11&#45;&gt;Node12 -->
<g id="edge11" class="edge">
<title>Node11&#45;&gt;Node12</title>
<path fill="none" stroke="midnightblue" d="M198.44,-112.32C208.15,-104.26 222.82,-92.08 234.5,-82.37"/>
<polygon fill="midnightblue" stroke="midnightblue" points="236.91,-84.92 242.37,-75.83 232.44,-79.53 236.91,-84.92"/>
</g>
<!-- Node11&#45;&gt;Node35 -->
<g id="edge13" class="edge">
<title>Node11&#45;&gt;Node35</title>
<path fill="none" stroke="midnightblue" d="M211.67,-115.17C216.41,-114.07 221.35,-112.96 226,-112 312.66,-94.07 337.4,-93.61 428.53,-76.02"/>
<polygon fill="midnightblue" stroke="midnightblue" points="429.32,-79.44 438.46,-74.09 427.98,-72.57 429.32,-79.44"/>
</g>
<!-- Node11&#45;&gt;Node37 -->
<g id="edge17" class="edge">
<title>Node11&#45;&gt;Node37</title>
<path fill="none" stroke="midnightblue" d="M183.92,-112.37C175.45,-94.46 155.82,-52.92 144.48,-28.95"/>
<polygon fill="midnightblue" stroke="midnightblue" points="147.5,-27.14 140.06,-19.59 141.17,-30.13 147.5,-27.14"/>
</g>
<!-- Node11&#45;&gt;Node38 -->
<g id="edge16" class="edge">
<title>Node11&#45;&gt;Node38</title>
<path fill="none" stroke="midnightblue" d="M211.55,-114.05C242.08,-105.04 295.73,-89.21 332.29,-78.42"/>
<polygon fill="midnightblue" stroke="midnightblue" points="333.52,-81.71 342.12,-75.52 331.54,-75 333.52,-81.71"/>
</g>
<!-- Node15 -->
<g id="node13" class="node">
<title>Node15</title>
<g id="a_node13"><a xlink:title=" ">
<polygon fill="none" stroke="#bfbfbf" points="403,-0.5 403,-19.5 447,-19.5 447,-0.5 403,-0.5"/>
<text text-anchor="middle" x="425" y="-7.5" font-family="Helvetica,sans-Serif" font-size="10.00">string</text>
</a>
</g>
</g>
<!-- Node12&#45;&gt;Node15 -->
<g id="edge12" class="edge">
<title>Node12&#45;&gt;Node15</title>
<path fill="none" stroke="midnightblue" d="M280.25,-56.44C310.85,-46.84 360.46,-31.26 392.91,-21.07"/>
<polygon fill="midnightblue" stroke="midnightblue" points="394.3,-24.31 402.8,-17.97 392.21,-17.63 394.3,-24.31"/>
</g>
<!-- Node20 -->
<g id="node15" class="node">
<title>Node20</title>
<g id="a_node15"><a xlink:title=" ">
<polygon fill="none" stroke="#bfbfbf" points="637.5,-0.5 637.5,-19.5 706.5,-19.5 706.5,-0.5 637.5,-0.5"/>
<text text-anchor="middle" x="672" y="-7.5" font-family="Helvetica,sans-Serif" font-size="10.00">type_traits</text>
</a>
</g>
</g>
<!-- Node35&#45;&gt;Node20 -->
<g id="edge14" class="edge">
<title>Node35&#45;&gt;Node20</title>
<path fill="none" stroke="midnightblue" d="M502.85,-56.44C537.4,-47.16 592.68,-32.31 630.58,-22.13"/>
<polygon fill="midnightblue" stroke="midnightblue" points="631.55,-25.49 640.3,-19.52 629.73,-18.73 631.55,-25.49"/>
</g>
<!-- Node35&#45;&gt;Node37 -->
<g id="edge15" class="edge">
<title>Node35&#45;&gt;Node37</title>
<path fill="none" stroke="midnightblue" d="M438.48,-57.83C435.28,-57.19 432.08,-56.57 429,-56 350.29,-41.54 259.09,-28.04 199.62,-19.67"/>
<polygon fill="midnightblue" stroke="midnightblue" points="200.01,-16.19 189.62,-18.27 199.04,-23.13 200.01,-16.19"/>
</g>
<!-- Node41&#45;&gt;Node9 -->
<g id="edge30" class="edge">
<title>Node41&#45;&gt;Node9</title>
<path fill="none" stroke="midnightblue" d="M499.56,-224.32C489.85,-216.26 475.18,-204.08 463.5,-194.37"/>
<polygon fill="midnightblue" stroke="midnightblue" points="465.56,-191.53 455.63,-187.83 461.09,-196.92 465.56,-191.53"/>
</g>
<!-- Node41&#45;&gt;Node20 -->
<g id="edge24" class="edge">
<title>Node41&#45;&gt;Node20</title>
<path fill="none" stroke="midnightblue" d="M523.91,-224.31C536.84,-215.88 556.26,-202.29 571,-188 619.81,-140.65 652.26,-64.63 665.4,-29.68"/>
<polygon fill="midnightblue" stroke="midnightblue" points="668.84,-30.46 668.99,-19.86 662.27,-28.06 668.84,-30.46"/>
</g>
<!-- Node41&#45;&gt;Node40 -->
<g id="edge25" class="edge">
<title>Node41&#45;&gt;Node40</title>
<path fill="none" stroke="midnightblue" d="M520.35,-224.34C529.8,-215.94 543.55,-202.37 552,-188 560.46,-173.63 565.96,-155.43 569.2,-141.95"/>
<polygon fill="midnightblue" stroke="midnightblue" points="572.68,-142.44 571.41,-131.92 565.84,-140.93 572.68,-142.44"/>
</g>
<!-- Node42 -->
<g id="node21" class="node">
<title>Node42</title>
<g id="a_node21"><a xlink:title=" ">
<polygon fill="none" stroke="#bfbfbf" points="486.5,-168.5 486.5,-187.5 543.5,-187.5 543.5,-168.5 486.5,-168.5"/>
<text text-anchor="middle" x="515" y="-175.5" font-family="Helvetica,sans-Serif" font-size="10.00">typeinfo</text>
</a>
</g>
</g>
<!-- Node41&#45;&gt;Node42 -->
<g id="edge23" class="edge">
<title>Node41&#45;&gt;Node42</title>
<path fill="none" stroke="midnightblue" d="M510.83,-224.08C511.48,-217.01 512.42,-206.86 513.24,-197.99"/>
<polygon fill="midnightblue" stroke="midnightblue" points="516.75,-198.03 514.19,-187.75 509.78,-197.39 516.75,-198.03"/>
</g>
<!-- Node41&#45;&gt;Node17 -->
<g id="edge26" class="edge">
<title>Node41&#45;&gt;Node17</title>
<path fill="none" stroke="midnightblue" d="M546.85,-228.75C608.09,-221.52 734.62,-205.85 841,-188 841.1,-187.98 841.21,-187.97 841.31,-187.95"/>
<polygon fill="midnightblue" stroke="midnightblue" points="841.92,-191.39 851.15,-186.19 840.7,-184.5 841.92,-191.39"/>
</g>
<!-- Node17&#45;&gt;Node15 -->
<g id="edge28" class="edge">
<title>Node17&#45;&gt;Node15</title>
<path fill="none" stroke="midnightblue" d="M872.37,-168.39C836.86,-146.32 737.97,-87.29 648,-56 582.18,-33.11 501.15,-20.39 457.15,-14.7"/>
<polygon fill="midnightblue" stroke="midnightblue" points="457.41,-11.21 447.05,-13.44 456.54,-18.15 457.41,-11.21"/>
</g>
<!-- Node17&#45;&gt;Node20 -->
<g id="edge29" class="edge">
<title>Node17&#45;&gt;Node20</title>
<path fill="none" stroke="midnightblue" d="M880.82,-168.45C867.32,-146.78 828.85,-89.11 783,-56 762.24,-41.01 735.77,-30.03 713.88,-22.67"/>
<polygon fill="midnightblue" stroke="midnightblue" points="714.78,-19.28 704.19,-19.54 712.63,-25.94 714.78,-19.28"/>
</g>
<!-- Node19 -->
<g id="node23" class="node">
<title>Node19</title>
<g id="a_node23"><a xlink:title=" ">
<polygon fill="none" stroke="#bfbfbf" points="891,-112.5 891,-131.5 947,-131.5 947,-112.5 891,-112.5"/>
<text text-anchor="middle" x="919" y="-119.5" font-family="Helvetica,sans-Serif" font-size="10.00">sstream</text>
</a>
</g>
</g>
<!-- Node17&#45;&gt;Node19 -->
<g id="edge27" class="edge">
<title>Node17&#45;&gt;Node19</title>
<path fill="none" stroke="midnightblue" d="M891.45,-168.08C896.01,-160.61 902.67,-149.72 908.29,-140.52"/>
<polygon fill="midnightblue" stroke="midnightblue" points="911.42,-142.11 913.65,-131.75 905.45,-138.46 911.42,-142.11"/>
</g>
<!-- Node43&#45;&gt;Node5 -->
<g id="edge33" class="edge">
<title>Node43&#45;&gt;Node5</title>
<path fill="none" stroke="midnightblue" d="M710.54,-225.65C713.73,-225.06 716.92,-224.5 720,-224 846.41,-203.6 997.93,-188.36 1064.63,-182.11"/>
<polygon fill="midnightblue" stroke="midnightblue" points="1065.32,-185.56 1074.96,-181.15 1064.68,-178.59 1065.32,-185.56"/>
</g>
<!-- Node43&#45;&gt;Node15 -->
<g id="edge34" class="edge">
<title>Node43&#45;&gt;Node15</title>
<path fill="none" stroke="midnightblue" d="M675.24,-224.24C672.92,-202.6 664.16,-145.88 634,-112 585.9,-57.96 502.49,-30.05 456.94,-18.19"/>
<polygon fill="midnightblue" stroke="midnightblue" points="457.57,-14.74 447.02,-15.71 455.87,-21.53 457.57,-14.74"/>
</g>
<!-- Node44 -->
<g id="node25" class="node">
<title>Node44</title>
<g id="a_node25"><a xlink:title=" ">
<polygon fill="none" stroke="#bfbfbf" points="738,-168.5 738,-187.5 832,-187.5 832,-168.5 738,-168.5"/>
<text text-anchor="middle" x="785" y="-175.5" font-family="Helvetica,sans-Serif" font-size="10.00">big&#45;int/bigint.hh</text>
</a>
</g>
</g>
<!-- Node43&#45;&gt;Node44 -->
<g id="edge35" class="edge">
<title>Node43&#45;&gt;Node44</title>
<path fill="none" stroke="midnightblue" d="M693.51,-224.32C711.07,-215.62 738.33,-202.12 758.53,-192.11"/>
<polygon fill="midnightblue" stroke="midnightblue" points="760.12,-195.23 767.53,-187.65 757.02,-188.96 760.12,-195.23"/>
</g>
<!-- Node45&#45;&gt;Node2 -->
<g id="edge54" class="edge">
<title>Node45&#45;&gt;Node2</title>
<path fill="none" stroke="midnightblue" d="M543.9,-461.29C448.9,-458.15 227.89,-447.35 46,-412 44.71,-411.75 43.39,-411.47 42.07,-411.16"/>
<polygon fill="midnightblue" stroke="midnightblue" points="42.61,-407.68 32.04,-408.46 40.79,-414.44 42.61,-407.68"/>
</g>
<!-- Node45&#45;&gt;Node3 -->
<g id="edge53" class="edge">
<title>Node45&#45;&gt;Node3</title>
<path fill="none" stroke="midnightblue" d="M638.12,-455.86C689.6,-448.09 774.54,-433.79 856.06,-411.9"/>
<polygon fill="midnightblue" stroke="midnightblue" points="857.26,-415.2 865.98,-409.19 855.41,-408.44 857.26,-415.2"/>
</g>
<!-- Node45&#45;&gt;Node5 -->
<g id="edge51" class="edge">
<title>Node45&#45;&gt;Node5</title>
<path fill="none" stroke="midnightblue" d="M610.76,-453.87C662.65,-430.99 806.55,-365.96 920,-300 979.88,-265.19 1046.5,-217.65 1078.99,-193.85"/>
<polygon fill="midnightblue" stroke="midnightblue" points="1081.23,-196.54 1087.21,-187.8 1077.08,-190.91 1081.23,-196.54"/>
</g>
<!-- Node45&#45;&gt;Node12 -->
<g id="edge40" class="edge">
<title>Node45&#45;&gt;Node12</title>
<path fill="none" stroke="midnightblue" d="M543.59,-460.5C427.06,-454.29 136,-430.43 136,-347 136,-347 136,-347 136,-177 136,-146.9 135.33,-134.78 155,-112 168.55,-96.31 188.7,-85.78 207.22,-78.87"/>
<polygon fill="midnightblue" stroke="midnightblue" points="208.41,-82.17 216.71,-75.59 206.11,-75.55 208.41,-82.17"/>
</g>
<!-- Node45&#45;&gt;Node15 -->
<g id="edge55" class="edge">
<title>Node45&#45;&gt;Node15</title>
<path fill="none" stroke="midnightblue" d="M543.88,-462.22C413.92,-460.18 60,-445.59 60,-347 60,-347 60,-347 60,-177 60,-31.34 303.85,-12.89 392.92,-11.01"/>
<polygon fill="midnightblue" stroke="midnightblue" points="393.04,-14.51 402.99,-10.86 392.94,-7.51 393.04,-14.51"/>
</g>
<!-- Node45&#45;&gt;Node17 -->
<g id="edge39" class="edge">
<title>Node45&#45;&gt;Node17</title>
<path fill="none" stroke="midnightblue" d="M570.01,-453.9C552.62,-445.7 528.63,-431.66 515,-412 495.48,-383.84 487.66,-367.12 502,-336 534.05,-266.43 563.68,-256.58 633,-224 717.91,-184.09 748.77,-205.2 841,-188 841.1,-187.98 841.21,-187.96 841.31,-187.94"/>
<polygon fill="midnightblue" stroke="midnightblue" points="841.97,-191.38 851.13,-186.07 840.65,-184.5 841.97,-191.38"/>
</g>
<!-- Node46 -->
<g id="node28" class="node">
<title>Node46</title>
<g id="a_node28"><a xlink:href="goto__instruction__code_8h.html" target="_top" xlink:title=" ">
<polygon fill="none" stroke="black" points="524.5,-392.5 524.5,-411.5 657.5,-411.5 657.5,-392.5 524.5,-392.5"/>
<text text-anchor="middle" x="591" y="-399.5" font-family="Helvetica,sans-Serif" font-size="10.00">goto_instruction_code.h</text>
</a>
</g>
</g>
<!-- Node45&#45;&gt;Node46 -->
<g id="edge41" class="edge">
<title>Node45&#45;&gt;Node46</title>
<path fill="none" stroke="midnightblue" d="M591,-453.98C591,-445.58 591,-432.48 591,-421.66"/>
<polygon fill="midnightblue" stroke="midnightblue" points="594.5,-421.51 591,-411.51 587.5,-421.51 594.5,-421.51"/>
</g>
<!-- Node49 -->
<g id="node31" class="node">
<title>Node49</title>
<g id="a_node31"><a xlink:title=" ">
<polygon fill="none" stroke="#bfbfbf" points="804,-392.5 804,-411.5 848,-411.5 848,-392.5 804,-392.5"/>
<text text-anchor="middle" x="826" y="-399.5" font-family="Helvetica,sans-Serif" font-size="10.00">limits</text>
</a>
</g>
</g>
<!-- Node45&#45;&gt;Node49 -->
<g id="edge52" class="edge">
<title>Node45&#45;&gt;Node49</title>
<path fill="none" stroke="midnightblue" d="M624.67,-453.98C669.79,-442.55 749.31,-422.42 793.71,-411.17"/>
<polygon fill="midnightblue" stroke="midnightblue" points="794.84,-414.5 803.68,-408.65 793.13,-407.71 794.84,-414.5"/>
</g>
<!-- Node47 -->
<g id="node29" class="node">
<title>Node47</title>
<g id="a_node29"><a xlink:href="std__code__base_8h.html" target="_top" xlink:title=" ">
<polygon fill="none" stroke="black" points="511,-336.5 511,-355.5 627,-355.5 627,-336.5 511,-336.5"/>
<text text-anchor="middle" x="569" y="-343.5" font-family="Helvetica,sans-Serif" font-size="10.00">util/std_code_base.h</text>
</a>
</g>
</g>
<!-- Node46&#45;&gt;Node47 -->
<g id="edge42" class="edge">
<title>Node46&#45;&gt;Node47</title>
<path fill="none" stroke="midnightblue" d="M587.37,-392.08C584.39,-384.77 580.07,-374.18 576.38,-365.1"/>
<polygon fill="midnightblue" stroke="midnightblue" points="579.58,-363.69 572.57,-355.75 573.1,-366.33 579.58,-363.69"/>
</g>
<!-- Node48 -->
<g id="node30" class="node">
<title>Node48</title>
<g id="a_node30"><a xlink:href="std__expr_8h.html" target="_top" xlink:title="API to expression classes.">
<polygon fill="none" stroke="black" points="645,-336.5 645,-355.5 731,-355.5 731,-336.5 645,-336.5"/>
<text text-anchor="middle" x="688" y="-343.5" font-family="Helvetica,sans-Serif" font-size="10.00">util/std_expr.h</text>
</a>
</g>
</g>
<!-- Node46&#45;&gt;Node48 -->
<g id="edge47" class="edge">
<title>Node46&#45;&gt;Node48</title>
<path fill="none" stroke="midnightblue" d="M606.58,-392.32C622,-383.74 645.81,-370.49 663.71,-360.52"/>
<polygon fill="midnightblue" stroke="midnightblue" points="665.42,-363.58 672.45,-355.65 662.01,-357.46 665.42,-363.58"/>
</g>
<!-- Node47&#45;&gt;Node8 -->
<g id="edge45" class="edge">
<title>Node47&#45;&gt;Node8</title>
<path fill="none" stroke="midnightblue" d="M586.19,-336.32C603.35,-327.66 629.95,-314.24 649.75,-304.25"/>
<polygon fill="midnightblue" stroke="midnightblue" points="651.5,-307.28 658.85,-299.65 648.35,-301.04 651.5,-307.28"/>
</g>
<!-- Node47&#45;&gt;Node35 -->
<g id="edge46" class="edge">
<title>Node47&#45;&gt;Node35</title>
<path fill="none" stroke="midnightblue" d="M510.94,-337.72C416.49,-324.22 240,-291.46 240,-235 240,-235 240,-235 240,-177 240,-146.9 236.93,-132.46 259,-112 313.32,-61.65 350.33,-89.56 428.22,-75.97"/>
<polygon fill="midnightblue" stroke="midnightblue" points="429.29,-79.32 438.44,-73.98 427.96,-72.45 429.29,-79.32"/>
</g>
<!-- Node47&#45;&gt;Node41 -->
<g id="edge43" class="edge">
<title>Node47&#45;&gt;Node41</title>
<path fill="none" stroke="midnightblue" d="M562.29,-336.37C555.62,-327.54 545.34,-313.28 538,-300 529.56,-284.73 521.86,-266.39 516.69,-253.1"/>
<polygon fill="midnightblue" stroke="midnightblue" points="519.93,-251.77 513.11,-243.67 513.38,-254.26 519.93,-251.77"/>
</g>
<!-- Node47&#45;&gt;Node17 -->
<g id="edge44" class="edge">
<title>Node47&#45;&gt;Node17</title>
<path fill="none" stroke="midnightblue" d="M604.94,-336.44C673.53,-319.45 819.57,-280.03 856,-244 868.96,-231.19 876.91,-211.73 881.35,-197.44"/>
<polygon fill="midnightblue" stroke="midnightblue" points="884.74,-198.29 884.07,-187.72 878,-196.4 884.74,-198.29"/>
</g>
<!-- Node48&#45;&gt;Node8 -->
<g id="edge50" class="edge">
<title>Node48&#45;&gt;Node8</title>
<path fill="none" stroke="midnightblue" d="M686.02,-336.08C684.43,-328.93 682.14,-318.64 680.15,-309.69"/>
<polygon fill="midnightblue" stroke="midnightblue" points="683.53,-308.75 677.94,-299.75 676.7,-310.27 683.53,-308.75"/>
</g>
<!-- Node48&#45;&gt;Node41 -->
<g id="edge48" class="edge">
<title>Node48&#45;&gt;Node41</title>
<path fill="none" stroke="midnightblue" d="M674.03,-336.37C643.36,-317.41 569.87,-272 532.56,-248.94"/>
<polygon fill="midnightblue" stroke="midnightblue" points="534.25,-245.87 523.9,-243.59 530.57,-251.83 534.25,-245.87"/>
</g>
<!-- Node48&#45;&gt;Node17 -->
<g id="edge49" class="edge">
<title>Node48&#45;&gt;Node17</title>
<path fill="none" stroke="midnightblue" d="M731.47,-342.16C787.69,-337.48 880.95,-325.94 902,-300 926.05,-270.37 908.34,-222.55 895.73,-196.79"/>
<polygon fill="midnightblue" stroke="midnightblue" points="898.78,-195.07 891.08,-187.79 892.56,-198.29 898.78,-195.07"/>
</g>
<!-- Node51&#45;&gt;Node6 -->
<g id="edge77" class="edge">
<title>Node51&#45;&gt;Node6</title>
<path fill="none" stroke="midnightblue" d="M943.5,-638.48C918.39,-629.74 878.64,-615.91 846.88,-604.86"/>
<polygon fill="midnightblue" stroke="midnightblue" points="847.9,-601.5 837.3,-601.52 845.6,-608.11 847.9,-601.5"/>
</g>
<!-- Node51&#45;&gt;Node48 -->
<g id="edge76" class="edge">
<title>Node51&#45;&gt;Node48</title>
<path fill="none" stroke="midnightblue" d="M967.15,-638.26C963.03,-597.61 943.79,-427.62 907,-392 883.83,-369.57 798.48,-357.3 741.43,-351.45"/>
<polygon fill="midnightblue" stroke="midnightblue" points="741.42,-347.93 731.12,-350.43 740.73,-354.9 741.42,-347.93"/>
</g>
<!-- Node52 -->
<g id="node34" class="node">
<title>Node52</title>
<g id="a_node34"><a xlink:href="dense__integer__map_8h.html" target="_top" xlink:title="Dense integer map.">
<polygon fill="none" stroke="black" points="954,-448.5 954,-478.5 1058,-478.5 1058,-448.5 954,-448.5"/>
<text text-anchor="start" x="962" y="-466.5" font-family="Helvetica,sans-Serif" font-size="10.00">util/dense_integer</text>
<text text-anchor="middle" x="1006" y="-455.5" font-family="Helvetica,sans-Serif" font-size="10.00">_map.h</text>
</a>
</g>
</g>
<!-- Node51&#45;&gt;Node52 -->
<g id="edge60" class="edge">
<title>Node51&#45;&gt;Node52</title>
<path fill="none" stroke="midnightblue" d="M969.83,-638.2C975.43,-611.33 992.42,-529.74 1000.97,-488.67"/>
<polygon fill="midnightblue" stroke="midnightblue" points="1004.43,-489.2 1003.04,-478.69 997.58,-487.77 1004.43,-489.2"/>
</g>
<!-- Node54 -->
<g id="node37" class="node">
<title>Node54</title>
<g id="a_node37"><a xlink:href="graph_8h.html" target="_top" xlink:title="A Template Class for Graphs.">
<polygon fill="none" stroke="black" points="1155,-454 1155,-473 1227,-473 1227,-454 1155,-454"/>
<text text-anchor="middle" x="1191" y="-461" font-family="Helvetica,sans-Serif" font-size="10.00">util/graph.h</text>
</a>
</g>
</g>
<!-- Node51&#45;&gt;Node54 -->
<g id="edge65" class="edge">
<title>Node51&#45;&gt;Node54</title>
<path fill="none" stroke="midnightblue" d="M978.46,-638.44C1013.65,-609.64 1128.07,-516 1172.82,-479.38"/>
<polygon fill="midnightblue" stroke="midnightblue" points="1175.04,-482.08 1180.57,-473.04 1170.61,-476.66 1175.04,-482.08"/>
</g>
<!-- Node52&#45;&gt;Node17 -->
<g id="edge64" class="edge">
<title>Node52&#45;&gt;Node17</title>
<path fill="none" stroke="midnightblue" d="M997.09,-448.16C984.76,-426.91 964,-385.41 964,-347 964,-347 964,-347 964,-289 964,-248.97 929.2,-213.34 906.09,-194.09"/>
<polygon fill="midnightblue" stroke="midnightblue" points="908.18,-191.28 898.19,-187.76 903.8,-196.74 908.18,-191.28"/>
</g>
<!-- Node52&#45;&gt;Node49 -->
<g id="edge61" class="edge">
<title>Node52&#45;&gt;Node49</title>
<path fill="none" stroke="midnightblue" d="M963.34,-448.4C930.98,-437.7 887.2,-423.23 857.85,-413.53"/>
<polygon fill="midnightblue" stroke="midnightblue" points="858.7,-410.12 848.11,-410.31 856.51,-416.77 858.7,-410.12"/>
</g>
<!-- Node53 -->
<g id="node35" class="node">
<title>Node53</title>
<g id="a_node35"><a xlink:title=" ">
<polygon fill="none" stroke="#bfbfbf" points="992,-392.5 992,-411.5 1078,-411.5 1078,-392.5 992,-392.5"/>
<text text-anchor="middle" x="1035" y="-399.5" font-family="Helvetica,sans-Serif" font-size="10.00">unordered_set</text>
</a>
</g>
</g>
<!-- Node52&#45;&gt;Node53 -->
<g id="edge62" class="edge">
<title>Node52&#45;&gt;Node53</title>
<path fill="none" stroke="midnightblue" d="M1012.87,-448.4C1016.91,-440.11 1022.06,-429.55 1026.37,-420.71"/>
<polygon fill="midnightblue" stroke="midnightblue" points="1029.55,-422.18 1030.78,-411.66 1023.25,-419.11 1029.55,-422.18"/>
</g>
<!-- Node16 -->
<g id="node36" class="node">
<title>Node16</title>
<g id="a_node36"><a xlink:title=" ">
<polygon fill="none" stroke="#bfbfbf" points="1096.5,-392.5 1096.5,-411.5 1143.5,-411.5 1143.5,-392.5 1096.5,-392.5"/>
<text text-anchor="middle" x="1120" y="-399.5" font-family="Helvetica,sans-Serif" font-size="10.00">vector</text>
</a>
</g>
</g>
<!-- Node52&#45;&gt;Node16 -->
<g id="edge63" class="edge">
<title>Node52&#45;&gt;Node16</title>
<path fill="none" stroke="midnightblue" d="M1033.02,-448.4C1051.63,-438.68 1076.21,-425.86 1094.49,-416.31"/>
<polygon fill="midnightblue" stroke="midnightblue" points="1096.17,-419.39 1103.41,-411.66 1092.93,-413.18 1096.17,-419.39"/>
</g>
<!-- Node54&#45;&gt;Node3 -->
<g id="edge69" class="edge">
<title>Node54&#45;&gt;Node3</title>
<path fill="none" stroke="midnightblue" d="M1154.95,-455.56C1091.97,-443.43 963.35,-418.66 908.13,-408.03"/>
<polygon fill="midnightblue" stroke="midnightblue" points="908.59,-404.56 898.11,-406.1 907.27,-411.43 908.59,-404.56"/>
</g>
<!-- Node54&#45;&gt;Node4 -->
<g id="edge70" class="edge">
<title>Node54&#45;&gt;Node4</title>
<path fill="none" stroke="midnightblue" d="M1217.8,-453.93C1225.26,-451.76 1233.39,-449.6 1241,-448 1359.03,-423.13 1391.77,-435.92 1510,-412 1511.28,-411.74 1512.58,-411.46 1513.89,-411.17"/>
<polygon fill="midnightblue" stroke="midnightblue" points="1515.05,-414.48 1523.91,-408.67 1513.36,-407.69 1515.05,-414.48"/>
</g>
<!-- Node54&#45;&gt;Node5 -->
<g id="edge68" class="edge">
<title>Node54&#45;&gt;Node5</title>
<path fill="none" stroke="midnightblue" d="M1212.92,-453.99C1219.03,-451.82 1225.72,-449.64 1232,-448 1324.2,-423.86 1484.05,-475.99 1439,-392 1404.81,-328.26 1202.34,-227.76 1127.12,-192.09"/>
<polygon fill="midnightblue" stroke="midnightblue" points="1128.32,-188.79 1117.78,-187.69 1125.33,-195.12 1128.32,-188.79"/>
</g>
<!-- Node54&#45;&gt;Node40 -->
<g id="edge67" class="edge">
<title>Node54&#45;&gt;Node40</title>
<path fill="none" stroke="midnightblue" d="M1196.06,-453.91C1210.01,-429.39 1248,-356.58 1248,-291 1248,-291 1248,-291 1248,-233 1248,-173.9 1188.54,-185.21 1132,-168 1035.47,-138.61 728.78,-127.31 615.55,-124.08"/>
<polygon fill="midnightblue" stroke="midnightblue" points="615.61,-120.58 605.52,-123.8 615.42,-127.57 615.61,-120.58"/>
</g>
<!-- Node54&#45;&gt;Node17 -->
<g id="edge75" class="edge">
<title>Node54&#45;&gt;Node17</title>
<path fill="none" stroke="midnightblue" d="M1188.59,-453.89C1183.48,-434.8 1172,-387.44 1172,-347 1172,-347 1172,-347 1172,-289 1172,-237.92 1011.06,-201.58 930.64,-186.6"/>
<polygon fill="midnightblue" stroke="midnightblue" points="931.25,-183.16 920.78,-184.8 929.99,-190.04 931.25,-183.16"/>
</g>
<!-- Node54&#45;&gt;Node19 -->
<g id="edge72" class="edge">
<title>Node54&#45;&gt;Node19</title>
<path fill="none" stroke="midnightblue" d="M1212.9,-453.93C1219.02,-451.77 1225.71,-449.6 1232,-448 1329.71,-423.09 1372.17,-468.04 1456,-412 1484.2,-393.15 1496,-380.92 1496,-347 1496,-347 1496,-347 1496,-233 1496,-178.01 1086.42,-137.6 957.42,-126.23"/>
<polygon fill="midnightblue" stroke="midnightblue" points="957.49,-122.73 947.22,-125.34 956.88,-129.7 957.49,-122.73"/>
</g>
<!-- Node54&#45;&gt;Node16 -->
<g id="edge74" class="edge">
<title>Node54&#45;&gt;Node16</title>
<path fill="none" stroke="midnightblue" d="M1180.83,-453.98C1169.65,-444.61 1151.48,-429.38 1137.91,-418.01"/>
<polygon fill="midnightblue" stroke="midnightblue" points="1140.07,-415.25 1130.15,-411.51 1135.57,-420.61 1140.07,-415.25"/>
</g>
<!-- Node31 -->
<g id="node38" class="node">
<title>Node31</title>
<g id="a_node38"><a xlink:title=" ">
<polygon fill="none" stroke="#bfbfbf" points="1300,-392.5 1300,-411.5 1364,-411.5 1364,-392.5 1300,-392.5"/>
<text text-anchor="middle" x="1332" y="-399.5" font-family="Helvetica,sans-Serif" font-size="10.00">algorithm</text>
</a>
</g>
</g>
<!-- Node54&#45;&gt;Node31 -->
<g id="edge66" class="edge">
<title>Node54&#45;&gt;Node31</title>
<path fill="none" stroke="midnightblue" d="M1211.2,-453.98C1235.07,-443.9 1275,-427.05 1302.37,-415.5"/>
<polygon fill="midnightblue" stroke="midnightblue" points="1303.98,-418.62 1311.84,-411.51 1301.26,-412.17 1303.98,-418.62"/>
</g>
<!-- Node55 -->
<g id="node39" class="node">
<title>Node55</title>
<g id="a_node39"><a xlink:title=" ">
<polygon fill="none" stroke="#bfbfbf" points="1382.5,-392.5 1382.5,-411.5 1429.5,-411.5 1429.5,-392.5 1382.5,-392.5"/>
<text text-anchor="middle" x="1406" y="-399.5" font-family="Helvetica,sans-Serif" font-size="10.00">queue</text>
</a>
</g>
</g>
<!-- Node54&#45;&gt;Node55 -->
<g id="edge71" class="edge">
<title>Node54&#45;&gt;Node55</title>
<path fill="none" stroke="midnightblue" d="M1220.06,-453.99C1226.92,-452 1234.21,-449.91 1241,-448 1244.23,-447.09 1325.14,-425.04 1372.44,-412.15"/>
<polygon fill="midnightblue" stroke="midnightblue" points="1373.54,-415.47 1382.26,-409.47 1371.7,-408.72 1373.54,-415.47"/>
</g>
<!-- Node56 -->
<g id="node40" class="node">
<title>Node56</title>
<g id="a_node40"><a xlink:title=" ">
<polygon fill="none" stroke="#bfbfbf" points="1238.5,-392.5 1238.5,-411.5 1281.5,-411.5 1281.5,-392.5 1238.5,-392.5"/>
<text text-anchor="middle" x="1260" y="-399.5" font-family="Helvetica,sans-Serif" font-size="10.00">stack</text>
</a>
</g>
</g>
<!-- Node54&#45;&gt;Node56 -->
<g id="edge73" class="edge">
<title>Node54&#45;&gt;Node56</title>
<path fill="none" stroke="midnightblue" d="M1200.89,-453.98C1211.65,-444.7 1229.07,-429.67 1242.22,-418.33"/>
<polygon fill="midnightblue" stroke="midnightblue" points="1244.84,-420.69 1250.13,-411.51 1240.27,-415.39 1244.84,-420.69"/>
</g>
</g>
</svg>
