<?xml version="1.0" encoding="UTF-8" standalone="no"?>
<!DOCTYPE svg PUBLIC "-//W3C//DTD SVG 1.1//EN"
 "http://www.w3.org/Graphics/SVG/1.1/DTD/svg11.dtd">
<!-- Generated by graphviz version 2.43.0 (0)
 -->
<!-- Title: /home/runner/work/cbmc/cbmc/src/goto&#45;cc/cl_message_handler.cpp Pages: 1 -->
<svg width="628pt" height="442pt"
 viewBox="0.00 0.00 627.50 442.00" xmlns="http://www.w3.org/2000/svg" xmlns:xlink="http://www.w3.org/1999/xlink">
<g id="graph0" class="graph" transform="scale(1 1) rotate(0) translate(4 438)">
<title>/home/runner/work/cbmc/cbmc/src/goto&#45;cc/cl_message_handler.cpp</title>
<!-- Node1 -->
<g id="node1" class="node">
<title>Node1</title>
<g id="a_node1"><a xlink:title=" ">
<polygon fill="#bfbfbf" stroke="black" points="454.5,-392.5 454.5,-433.5 617.5,-433.5 617.5,-392.5 454.5,-392.5"/>
<text text-anchor="start" x="462.5" y="-421.5" font-family="Helvetica,sans-Serif" font-size="10.00">/home/runner/work/cbmc</text>
<text text-anchor="start" x="462.5" y="-410.5" font-family="Helvetica,sans-Serif" font-size="10.00">/cbmc/src/goto&#45;cc/cl_message</text>
<text text-anchor="middle" x="536" y="-399.5" font-family="Helvetica,sans-Serif" font-size="10.00">_handler.cpp</text>
</a>
</g>
</g>
<!-- Node2 -->
<g id="node2" class="node">
<title>Node2</title>
<g id="a_node2"><a xlink:href="cl__message__handler_8h.html" target="_top" xlink:title=" ">
<polygon fill="none" stroke="black" points="336.5,-336.5 336.5,-355.5 461.5,-355.5 461.5,-336.5 336.5,-336.5"/>
<text text-anchor="middle" x="399" y="-343.5" font-family="Helvetica,sans-Serif" font-size="10.00">cl_message_handler.h</text>
</a>
</g>
</g>
<!-- Node1&#45;&gt;Node2 -->
<g id="edge1" class="edge">
<title>Node1&#45;&gt;Node2</title>
<path fill="none" stroke="midnightblue" d="M494.9,-392.5C472.78,-382.01 446.1,-369.35 426.51,-360.05"/>
<polygon fill="midnightblue" stroke="midnightblue" points="427.77,-356.78 417.24,-355.65 424.77,-363.1 427.77,-356.78"/>
</g>
<!-- Node32 -->
<g id="node20" class="node">
<title>Node32</title>
<g id="a_node20"><a xlink:href="unicode_8h.html" target="_top" xlink:title=" ">
<polygon fill="none" stroke="black" points="511.5,-112.5 511.5,-131.5 594.5,-131.5 594.5,-112.5 511.5,-112.5"/>
<text text-anchor="middle" x="553" y="-119.5" font-family="Helvetica,sans-Serif" font-size="10.00">util/unicode.h</text>
</a>
</g>
</g>
<!-- Node1&#45;&gt;Node32 -->
<g id="edge25" class="edge">
<title>Node1&#45;&gt;Node32</title>
<path fill="none" stroke="midnightblue" d="M536,-392.3C536,-368.35 536,-326.71 536,-291 536,-291 536,-291 536,-233 536,-200.58 543.3,-163.42 548.33,-141.64"/>
<polygon fill="midnightblue" stroke="midnightblue" points="551.77,-142.31 550.71,-131.77 544.97,-140.67 551.77,-142.31"/>
</g>
<!-- Node33 -->
<g id="node21" class="node">
<title>Node33</title>
<g id="a_node21"><a xlink:title=" ">
<polygon fill="none" stroke="#bfbfbf" points="564.5,-336.5 564.5,-355.5 619.5,-355.5 619.5,-336.5 564.5,-336.5"/>
<text text-anchor="middle" x="592" y="-343.5" font-family="Helvetica,sans-Serif" font-size="10.00">fstream</text>
</a>
</g>
</g>
<!-- Node1&#45;&gt;Node33 -->
<g id="edge29" class="edge">
<title>Node1&#45;&gt;Node33</title>
<path fill="none" stroke="midnightblue" d="M552.8,-392.5C560.81,-383.2 570.28,-372.21 577.91,-363.36"/>
<polygon fill="midnightblue" stroke="midnightblue" points="580.67,-365.51 584.55,-355.65 575.37,-360.94 580.67,-365.51"/>
</g>
<!-- Node3 -->
<g id="node3" class="node">
<title>Node3</title>
<g id="a_node3"><a xlink:href="cout__message_8h.html" target="_top" xlink:title=" ">
<polygon fill="none" stroke="black" points="249.5,-280.5 249.5,-299.5 364.5,-299.5 364.5,-280.5 249.5,-280.5"/>
<text text-anchor="middle" x="307" y="-287.5" font-family="Helvetica,sans-Serif" font-size="10.00">util/cout_message.h</text>
</a>
</g>
</g>
<!-- Node2&#45;&gt;Node3 -->
<g id="edge2" class="edge">
<title>Node2&#45;&gt;Node3</title>
<path fill="none" stroke="midnightblue" d="M384.22,-336.32C369.73,-327.82 347.43,-314.73 330.51,-304.8"/>
<polygon fill="midnightblue" stroke="midnightblue" points="332.14,-301.7 321.74,-299.65 328.6,-307.74 332.14,-301.7"/>
</g>
<!-- Node4 -->
<g id="node4" class="node">
<title>Node4</title>
<g id="a_node4"><a xlink:href="src_2util_2message_8h.html" target="_top" xlink:title=" ">
<polygon fill="none" stroke="black" points="239,-224.5 239,-243.5 309,-243.5 309,-224.5 239,-224.5"/>
<text text-anchor="middle" x="274" y="-231.5" font-family="Helvetica,sans-Serif" font-size="10.00">message.h</text>
</a>
</g>
</g>
<!-- Node3&#45;&gt;Node4 -->
<g id="edge3" class="edge">
<title>Node3&#45;&gt;Node4</title>
<path fill="none" stroke="midnightblue" d="M301.55,-280.08C296.99,-272.61 290.33,-261.72 284.71,-252.52"/>
<polygon fill="midnightblue" stroke="midnightblue" points="287.55,-250.46 279.35,-243.75 281.58,-254.11 287.55,-250.46"/>
</g>
<!-- Node5 -->
<g id="node5" class="node">
<title>Node5</title>
<g id="a_node5"><a xlink:title=" ">
<polygon fill="none" stroke="#bfbfbf" points="320.5,-168.5 320.5,-187.5 385.5,-187.5 385.5,-168.5 320.5,-168.5"/>
<text text-anchor="middle" x="353" y="-175.5" font-family="Helvetica,sans-Serif" font-size="10.00">functional</text>
</a>
</g>
</g>
<!-- Node4&#45;&gt;Node5 -->
<g id="edge4" class="edge">
<title>Node4&#45;&gt;Node5</title>
<path fill="none" stroke="midnightblue" d="M286.69,-224.32C298.9,-215.98 317.58,-203.21 332,-193.35"/>
<polygon fill="midnightblue" stroke="midnightblue" points="334.06,-196.19 340.34,-187.65 330.11,-190.41 334.06,-196.19"/>
</g>
<!-- Node6 -->
<g id="node6" class="node">
<title>Node6</title>
<g id="a_node6"><a xlink:title=" ">
<polygon fill="none" stroke="#bfbfbf" points="442,-168.5 442,-187.5 490,-187.5 490,-168.5 442,-168.5"/>
<text text-anchor="middle" x="466" y="-175.5" font-family="Helvetica,sans-Serif" font-size="10.00">iosfwd</text>
</a>
</g>
</g>
<!-- Node4&#45;&gt;Node6 -->
<g id="edge5" class="edge">
<title>Node4&#45;&gt;Node6</title>
<path fill="none" stroke="midnightblue" d="M304.42,-224.44C339.07,-214.7 395.54,-198.82 431.72,-188.64"/>
<polygon fill="midnightblue" stroke="midnightblue" points="433.12,-191.88 441.8,-185.81 431.22,-185.14 433.12,-191.88"/>
</g>
<!-- Node7 -->
<g id="node7" class="node">
<title>Node7</title>
<g id="a_node7"><a xlink:title=" ">
<polygon fill="none" stroke="#bfbfbf" points="0,-0.5 0,-19.5 56,-19.5 56,-0.5 0,-0.5"/>
<text text-anchor="middle" x="28" y="-7.5" font-family="Helvetica,sans-Serif" font-size="10.00">sstream</text>
</a>
</g>
</g>
<!-- Node4&#45;&gt;Node7 -->
<g id="edge6" class="edge">
<title>Node4&#45;&gt;Node7</title>
<path fill="none" stroke="midnightblue" d="M238.85,-228.01C209.44,-222.38 167.65,-210.84 138,-188 82.15,-144.98 47.6,-64.91 34.27,-29.11"/>
<polygon fill="midnightblue" stroke="midnightblue" points="37.5,-27.74 30.82,-19.51 30.91,-30.11 37.5,-27.74"/>
</g>
<!-- Node8 -->
<g id="node8" class="node">
<title>Node8</title>
<g id="a_node8"><a xlink:title=" ">
<polygon fill="none" stroke="#bfbfbf" points="229,-0.5 229,-19.5 273,-19.5 273,-0.5 229,-0.5"/>
<text text-anchor="middle" x="251" y="-7.5" font-family="Helvetica,sans-Serif" font-size="10.00">string</text>
</a>
</g>
</g>
<!-- Node4&#45;&gt;Node8 -->
<g id="edge7" class="edge">
<title>Node4&#45;&gt;Node8</title>
<path fill="none" stroke="midnightblue" d="M241.82,-224.49C223.46,-217.8 201.98,-206.45 191,-188 158.84,-133.97 209.74,-60.32 236.39,-27.71"/>
<polygon fill="midnightblue" stroke="midnightblue" points="239.41,-29.56 243.17,-19.65 234.06,-25.05 239.41,-29.56"/>
</g>
<!-- Node9 -->
<g id="node9" class="node">
<title>Node9</title>
<g id="a_node9"><a xlink:href="deprecate_8h.html" target="_top" xlink:title=" ">
<polygon fill="none" stroke="black" points="376,-112.5 376,-131.5 450,-131.5 450,-112.5 376,-112.5"/>
<text text-anchor="middle" x="413" y="-119.5" font-family="Helvetica,sans-Serif" font-size="10.00">deprecate.h</text>
</a>
</g>
</g>
<!-- Node4&#45;&gt;Node9 -->
<g id="edge8" class="edge">
<title>Node4&#45;&gt;Node9</title>
<path fill="none" stroke="midnightblue" d="M309.01,-228.68C336.13,-223.51 372.72,-212.28 395,-188 406.49,-175.47 410.74,-156.25 412.26,-141.95"/>
<polygon fill="midnightblue" stroke="midnightblue" points="415.77,-141.99 412.99,-131.77 408.79,-141.49 415.77,-141.99"/>
</g>
<!-- Node10 -->
<g id="node10" class="node">
<title>Node10</title>
<g id="a_node10"><a xlink:href="src_2util_2invariant_8h.html" target="_top" xlink:title=" ">
<polygon fill="none" stroke="black" points="74.5,-56.5 74.5,-75.5 143.5,-75.5 143.5,-56.5 74.5,-56.5"/>
<text text-anchor="middle" x="109" y="-63.5" font-family="Helvetica,sans-Serif" font-size="10.00">invariant.h</text>
</a>
</g>
</g>
<!-- Node4&#45;&gt;Node10 -->
<g id="edge9" class="edge">
<title>Node4&#45;&gt;Node10</title>
<path fill="none" stroke="midnightblue" d="M238.74,-227.05C213.38,-221.1 179.93,-209.61 158,-188 129.17,-159.59 116.72,-111.94 111.82,-85.71"/>
<polygon fill="midnightblue" stroke="midnightblue" points="115.23,-84.89 110.12,-75.61 108.33,-86.05 115.23,-84.89"/>
</g>
<!-- Node13 -->
<g id="node13" class="node">
<title>Node13</title>
<g id="a_node13"><a xlink:href="source__location_8h.html" target="_top" xlink:title=" ">
<polygon fill="none" stroke="black" points="200,-168.5 200,-187.5 302,-187.5 302,-168.5 200,-168.5"/>
<text text-anchor="middle" x="251" y="-175.5" font-family="Helvetica,sans-Serif" font-size="10.00">source_location.h</text>
</a>
</g>
</g>
<!-- Node4&#45;&gt;Node13 -->
<g id="edge14" class="edge">
<title>Node4&#45;&gt;Node13</title>
<path fill="none" stroke="midnightblue" d="M270.2,-224.08C267.09,-216.77 262.58,-206.18 258.71,-197.1"/>
<polygon fill="midnightblue" stroke="midnightblue" points="261.87,-195.58 254.73,-187.75 255.43,-198.32 261.87,-195.58"/>
</g>
<!-- Node10&#45;&gt;Node7 -->
<g id="edge11" class="edge">
<title>Node10&#45;&gt;Node7</title>
<path fill="none" stroke="midnightblue" d="M95.99,-56.32C83.47,-47.98 64.32,-35.21 49.53,-25.35"/>
<polygon fill="midnightblue" stroke="midnightblue" points="51.24,-22.29 40.98,-19.65 47.36,-28.11 51.24,-22.29"/>
</g>
<!-- Node10&#45;&gt;Node8 -->
<g id="edge12" class="edge">
<title>Node10&#45;&gt;Node8</title>
<path fill="none" stroke="midnightblue" d="M131.5,-56.44C155.08,-47.48 192.32,-33.31 218.96,-23.18"/>
<polygon fill="midnightblue" stroke="midnightblue" points="220.5,-26.34 228.6,-19.52 218.01,-19.8 220.5,-26.34"/>
</g>
<!-- Node11 -->
<g id="node11" class="node">
<title>Node11</title>
<g id="a_node11"><a xlink:title=" ">
<polygon fill="none" stroke="#bfbfbf" points="161.5,-0.5 161.5,-19.5 210.5,-19.5 210.5,-0.5 161.5,-0.5"/>
<text text-anchor="middle" x="186" y="-7.5" font-family="Helvetica,sans-Serif" font-size="10.00">cstdlib</text>
</a>
</g>
</g>
<!-- Node10&#45;&gt;Node11 -->
<g id="edge10" class="edge">
<title>Node10&#45;&gt;Node11</title>
<path fill="none" stroke="midnightblue" d="M121.37,-56.32C133.16,-48.06 151.13,-35.45 165.14,-25.63"/>
<polygon fill="midnightblue" stroke="midnightblue" points="167.48,-28.26 173.66,-19.65 163.46,-22.53 167.48,-28.26"/>
</g>
<!-- Node12 -->
<g id="node12" class="node">
<title>Node12</title>
<g id="a_node12"><a xlink:title=" ">
<polygon fill="none" stroke="#bfbfbf" points="74.5,-0.5 74.5,-19.5 143.5,-19.5 143.5,-0.5 74.5,-0.5"/>
<text text-anchor="middle" x="109" y="-7.5" font-family="Helvetica,sans-Serif" font-size="10.00">type_traits</text>
</a>
</g>
</g>
<!-- Node10&#45;&gt;Node12 -->
<g id="edge13" class="edge">
<title>Node10&#45;&gt;Node12</title>
<path fill="none" stroke="midnightblue" d="M109,-56.08C109,-49.01 109,-38.86 109,-29.99"/>
<polygon fill="midnightblue" stroke="midnightblue" points="112.5,-29.75 109,-19.75 105.5,-29.75 112.5,-29.75"/>
</g>
<!-- Node13&#45;&gt;Node8 -->
<g id="edge24" class="edge">
<title>Node13&#45;&gt;Node8</title>
<path fill="none" stroke="midnightblue" d="M245.36,-168.48C239.95,-159.74 232.14,-145.56 229,-132 221.39,-99.09 221.39,-88.91 229,-56 231.23,-46.36 235.82,-36.41 240.24,-28.31"/>
<polygon fill="midnightblue" stroke="midnightblue" points="243.35,-29.92 245.36,-19.52 237.3,-26.4 243.35,-29.92"/>
</g>
<!-- Node13&#45;&gt;Node9 -->
<g id="edge15" class="edge">
<title>Node13&#45;&gt;Node9</title>
<path fill="none" stroke="midnightblue" d="M276.67,-168.44C303.92,-159.36 347.18,-144.94 377.65,-134.78"/>
<polygon fill="midnightblue" stroke="midnightblue" points="379.07,-138 387.45,-131.52 376.86,-131.36 379.07,-138"/>
</g>
<!-- Node14 -->
<g id="node14" class="node">
<title>Node14</title>
<g id="a_node14"><a xlink:href="irep_8h.html" target="_top" xlink:title=" ">
<polygon fill="none" stroke="black" points="312,-112.5 312,-131.5 356,-131.5 356,-112.5 312,-112.5"/>
<text text-anchor="middle" x="334" y="-119.5" font-family="Helvetica,sans-Serif" font-size="10.00">irep.h</text>
</a>
</g>
</g>
<!-- Node13&#45;&gt;Node14 -->
<g id="edge16" class="edge">
<title>Node13&#45;&gt;Node14</title>
<path fill="none" stroke="midnightblue" d="M264.34,-168.32C277.16,-159.98 296.78,-147.21 311.94,-137.35"/>
<polygon fill="midnightblue" stroke="midnightblue" points="314.22,-140.04 320.7,-131.65 310.41,-134.17 314.22,-140.04"/>
</g>
<!-- Node31 -->
<g id="node19" class="node">
<title>Node31</title>
<g id="a_node19"><a xlink:title=" ">
<polygon fill="none" stroke="#bfbfbf" points="238,-112.5 238,-131.5 294,-131.5 294,-112.5 238,-112.5"/>
<text text-anchor="middle" x="266" y="-119.5" font-family="Helvetica,sans-Serif" font-size="10.00">optional</text>
</a>
</g>
</g>
<!-- Node13&#45;&gt;Node31 -->
<g id="edge23" class="edge">
<title>Node13&#45;&gt;Node31</title>
<path fill="none" stroke="midnightblue" d="M253.48,-168.08C255.49,-160.85 258.39,-150.41 260.89,-141.4"/>
<polygon fill="midnightblue" stroke="midnightblue" points="264.26,-142.32 263.57,-131.75 257.52,-140.45 264.26,-142.32"/>
</g>
<!-- Node14&#45;&gt;Node8 -->
<g id="edge17" class="edge">
<title>Node14&#45;&gt;Node8</title>
<path fill="none" stroke="midnightblue" d="M332.58,-112.25C330.08,-99 323.9,-73.56 311,-56 301.72,-43.37 287.91,-32.68 275.88,-24.88"/>
<polygon fill="midnightblue" stroke="midnightblue" points="277.48,-21.76 267.13,-19.5 273.81,-27.72 277.48,-21.76"/>
</g>
<!-- Node14&#45;&gt;Node10 -->
<g id="edge19" class="edge">
<title>Node14&#45;&gt;Node10</title>
<path fill="none" stroke="midnightblue" d="M311.69,-114.36C308.77,-113.54 305.82,-112.74 303,-112 252.07,-98.71 193.1,-85.31 153.67,-76.63"/>
<polygon fill="midnightblue" stroke="midnightblue" points="154.35,-73.2 143.83,-74.48 152.85,-80.04 154.35,-73.2"/>
</g>
<!-- Node15 -->
<g id="node15" class="node">
<title>Node15</title>
<g id="a_node15"><a xlink:title=" ">
<polygon fill="none" stroke="#bfbfbf" points="503.5,-56.5 503.5,-75.5 550.5,-75.5 550.5,-56.5 503.5,-56.5"/>
<text text-anchor="middle" x="527" y="-63.5" font-family="Helvetica,sans-Serif" font-size="10.00">vector</text>
</a>
</g>
</g>
<!-- Node14&#45;&gt;Node15 -->
<g id="edge18" class="edge">
<title>Node14&#45;&gt;Node15</title>
<path fill="none" stroke="midnightblue" d="M356.14,-114.82C385.42,-106.65 438.89,-91.72 493.41,-76.44"/>
<polygon fill="midnightblue" stroke="midnightblue" points="494.55,-79.76 503.24,-73.69 492.66,-73.02 494.55,-79.76"/>
</g>
<!-- Node16 -->
<g id="node16" class="node">
<title>Node16</title>
<g id="a_node16"><a xlink:href="irep__ids_8h.html" target="_top" xlink:title="util">
<polygon fill="none" stroke="red" points="238,-56.5 238,-75.5 302,-75.5 302,-56.5 238,-56.5"/>
<text text-anchor="middle" x="270" y="-63.5" font-family="Helvetica,sans-Serif" font-size="10.00">irep_ids.h</text>
</a>
</g>
</g>
<!-- Node14&#45;&gt;Node16 -->
<g id="edge20" class="edge">
<title>Node14&#45;&gt;Node16</title>
<path fill="none" stroke="midnightblue" d="M323.72,-112.32C314.16,-104.26 299.72,-92.08 288.22,-82.37"/>
<polygon fill="midnightblue" stroke="midnightblue" points="290.37,-79.61 280.47,-75.83 285.86,-84.96 290.37,-79.61"/>
</g>
<!-- Node26 -->
<g id="node17" class="node">
<title>Node26</title>
<g id="a_node17"><a xlink:href="forward__list__as__map_8h.html" target="_top" xlink:title=" ">
<polygon fill="none" stroke="red" points="358.5,-56.5 358.5,-75.5 485.5,-75.5 485.5,-56.5 358.5,-56.5"/>
<text text-anchor="middle" x="422" y="-63.5" font-family="Helvetica,sans-Serif" font-size="10.00">forward_list_as_map.h</text>
</a>
</g>
</g>
<!-- Node14&#45;&gt;Node26 -->
<g id="edge21" class="edge">
<title>Node14&#45;&gt;Node26</title>
<path fill="none" stroke="midnightblue" d="M348.14,-112.32C361.87,-103.9 382.94,-90.97 399.06,-81.07"/>
<polygon fill="midnightblue" stroke="midnightblue" points="401.2,-83.87 407.9,-75.65 397.54,-77.9 401.2,-83.87"/>
</g>
<!-- Node27 -->
<g id="node18" class="node">
<title>Node27</title>
<g id="a_node18"><a xlink:title=" ">
<polygon fill="none" stroke="#bfbfbf" points="487,-0.5 487,-19.5 551,-19.5 551,-0.5 487,-0.5"/>
<text text-anchor="middle" x="519" y="-7.5" font-family="Helvetica,sans-Serif" font-size="10.00">algorithm</text>
</a>
</g>
</g>
<!-- Node26&#45;&gt;Node27 -->
<g id="edge22" class="edge">
<title>Node26&#45;&gt;Node27</title>
<path fill="none" stroke="midnightblue" d="M437.58,-56.32C453,-47.74 476.81,-34.49 494.71,-24.52"/>
<polygon fill="midnightblue" stroke="midnightblue" points="496.42,-27.58 503.45,-19.65 493.01,-21.46 496.42,-27.58"/>
</g>
<!-- Node32&#45;&gt;Node8 -->
<g id="edge27" class="edge">
<title>Node32&#45;&gt;Node8</title>
<path fill="none" stroke="midnightblue" d="M557.59,-112.22C564.07,-98.46 573.66,-71.8 560,-56 524.5,-14.95 355.51,-10.59 283.56,-10.63"/>
<polygon fill="midnightblue" stroke="midnightblue" points="283.26,-7.13 273.28,-10.67 283.29,-14.13 283.26,-7.13"/>
</g>
<!-- Node32&#45;&gt;Node15 -->
<g id="edge28" class="edge">
<title>Node32&#45;&gt;Node15</title>
<path fill="none" stroke="midnightblue" d="M548.71,-112.08C545.15,-104.69 539.98,-93.95 535.58,-84.81"/>
<polygon fill="midnightblue" stroke="midnightblue" points="538.71,-83.24 531.21,-75.75 532.4,-86.28 538.71,-83.24"/>
</g>
<!-- Node32&#45;&gt;Node27 -->
<g id="edge26" class="edge">
<title>Node32&#45;&gt;Node27</title>
<path fill="none" stroke="midnightblue" d="M565.1,-112.3C580.71,-99.95 604.56,-76.56 593,-56 584.78,-41.38 569.67,-30.95 555.24,-23.85"/>
<polygon fill="midnightblue" stroke="midnightblue" points="556.48,-20.57 545.93,-19.64 553.6,-26.95 556.48,-20.57"/>
</g>
</g>
</svg>
