<?xml version="1.0" encoding="UTF-8" standalone="no"?>
<!DOCTYPE svg PUBLIC "-//W3C//DTD SVG 1.1//EN"
 "http://www.w3.org/Graphics/SVG/1.1/DTD/svg11.dtd">
<!-- Generated by graphviz version 2.43.0 (0)
 -->
<!-- Title: string_constraint_generatort Pages: 1 -->
<svg width="1444pt" height="303pt"
 viewBox="0.00 0.00 1444.00 302.50" xmlns="http://www.w3.org/2000/svg" xmlns:xlink="http://www.w3.org/1999/xlink">
<g id="graph0" class="graph" transform="scale(1 1) rotate(0) translate(4 298.5)">
<title>string_constraint_generatort</title>
<!-- Node1 -->
<g id="node1" class="node">
<title>Node1</title>
<g id="a_node1"><a xlink:title=" ">
<polygon fill="#bfbfbf" stroke="black" points="1281,-152 1281,-171 1436,-171 1436,-152 1281,-152"/>
<text text-anchor="middle" x="1358.5" y="-159" font-family="Helvetica,sans-Serif" font-size="10.00">string_constraint_generatort</text>
</a>
</g>
</g>
<!-- Node2 -->
<g id="node2" class="node">
<title>Node2</title>
<g id="a_node2"><a xlink:href="classmessage__handlert.html" target="_top" xlink:title=" ">
<polygon fill="none" stroke="black" points="975,-259 975,-278 1082,-278 1082,-259 975,-259"/>
<text text-anchor="middle" x="1028.5" y="-266" font-family="Helvetica,sans-Serif" font-size="10.00">message_handlert</text>
</a>
</g>
</g>
<!-- Node2&#45;&gt;Node1 -->
<g id="edge1" class="edge">
<title>Node2&#45;&gt;Node1</title>
<path fill="none" stroke="#9a32cd" stroke-dasharray="5,2" d="M1068.59,-255.75C1135.09,-234.06 1268.78,-190.44 1328.05,-171.11"/>
<polygon fill="#9a32cd" stroke="#9a32cd" points="1067.32,-252.48 1058.9,-258.91 1069.49,-259.14 1067.32,-252.48"/>
<text text-anchor="middle" x="1145" y="-247.5" font-family="Helvetica,sans-Serif" font-size="10.00"> message_handler</text>
</g>
<!-- Node3 -->
<g id="node3" class="node">
<title>Node3</title>
<g id="a_node3"><a xlink:title=" ">
<polygon fill="none" stroke="#bfbfbf" points="554,-275 554,-294 694,-294 694,-275 554,-275"/>
<text text-anchor="middle" x="624" y="-282" font-family="Helvetica,sans-Serif" font-size="10.00">std::vector&lt; std::size_t &gt;</text>
</a>
</g>
</g>
<!-- Node3&#45;&gt;Node2 -->
<g id="edge2" class="edge">
<title>Node3&#45;&gt;Node2</title>
<path fill="none" stroke="#9a32cd" stroke-dasharray="5,2" d="M704.24,-281.35C784.37,-278.17 905.95,-273.33 974.9,-270.59"/>
<polygon fill="#9a32cd" stroke="#9a32cd" points="704.05,-277.86 694.19,-281.75 704.32,-284.85 704.05,-277.86"/>
<text text-anchor="middle" x="765.5" y="-283.5" font-family="Helvetica,sans-Serif" font-size="10.00"> message_count</text>
</g>
<!-- Node4 -->
<g id="node4" class="node">
<title>Node4</title>
<g id="a_node4"><a xlink:title=" ">
<polygon fill="none" stroke="#bfbfbf" points="300.5,-273 300.5,-292 397.5,-292 397.5,-273 300.5,-273"/>
<text text-anchor="middle" x="349" y="-280" font-family="Helvetica,sans-Serif" font-size="10.00">std::vector&lt; T &gt;</text>
</a>
</g>
</g>
<!-- Node4&#45;&gt;Node3 -->
<g id="edge3" class="edge">
<title>Node4&#45;&gt;Node3</title>
<path fill="none" stroke="orange" stroke-dasharray="5,2" d="M407.78,-282.93C450.49,-283.24 508.83,-283.67 553.99,-284"/>
<polygon fill="orange" stroke="orange" points="407.58,-279.42 397.55,-282.85 407.53,-286.42 407.58,-279.42"/>
<text text-anchor="middle" x="483" y="-286.5" font-family="Helvetica,sans-Serif" font-size="10.00"> &lt; std::size_t &gt;</text>
</g>
<!-- Node5 -->
<g id="node5" class="node">
<title>Node5</title>
<g id="a_node5"><a xlink:title=" ">
<polygon fill="none" stroke="#bfbfbf" points="167,-196 167,-215 196,-215 196,-196 167,-196"/>
<text text-anchor="middle" x="181.5" y="-203" font-family="Helvetica,sans-Serif" font-size="10.00">T</text>
</a>
</g>
</g>
<!-- Node5&#45;&gt;Node4 -->
<g id="edge4" class="edge">
<title>Node5&#45;&gt;Node4</title>
<path fill="none" stroke="#9a32cd" stroke-dasharray="5,2" d="M204.74,-219.39C225.29,-231.81 256.93,-249.95 286,-262.5 295.03,-266.4 305.09,-269.96 314.42,-272.96"/>
<polygon fill="#9a32cd" stroke="#9a32cd" points="206.49,-216.35 196.13,-214.12 202.84,-222.32 206.49,-216.35"/>
<text text-anchor="middle" x="243.5" y="-255.5" font-family="Helvetica,sans-Serif" font-size="10.00"> elements</text>
</g>
<!-- Node11 -->
<g id="node11" class="node">
<title>Node11</title>
<g id="a_node11"><a xlink:title=" ">
<polygon fill="none" stroke="#bfbfbf" points="286,-196 286,-215 412,-215 412,-196 286,-196"/>
<text text-anchor="middle" x="349" y="-203" font-family="Helvetica,sans-Serif" font-size="10.00">std::multimap&lt; K, T &gt;</text>
</a>
</g>
</g>
<!-- Node5&#45;&gt;Node11 -->
<g id="edge12" class="edge">
<title>Node5&#45;&gt;Node11</title>
<path fill="none" stroke="#9a32cd" stroke-dasharray="5,2" d="M206.13,-205.5C226.84,-205.5 257.9,-205.5 285.68,-205.5"/>
<polygon fill="#9a32cd" stroke="#9a32cd" points="206.04,-202 196.04,-205.5 206.04,-209 206.04,-202"/>
<text text-anchor="middle" x="243.5" y="-208.5" font-family="Helvetica,sans-Serif" font-size="10.00"> elements</text>
</g>
<!-- Node13 -->
<g id="node13" class="node">
<title>Node13</title>
<g id="a_node13"><a xlink:title=" ">
<polygon fill="none" stroke="#bfbfbf" points="567,-145.5 567,-175.5 681,-175.5 681,-145.5 567,-145.5"/>
<text text-anchor="start" x="575" y="-163.5" font-family="Helvetica,sans-Serif" font-size="10.00">std::unordered_map</text>
<text text-anchor="middle" x="624" y="-152.5" font-family="Helvetica,sans-Serif" font-size="10.00">&lt; K, T &gt;</text>
</a>
</g>
</g>
<!-- Node5&#45;&gt;Node13 -->
<g id="edge15" class="edge">
<title>Node5&#45;&gt;Node13</title>
<path fill="none" stroke="#9a32cd" stroke-dasharray="5,2" d="M205.86,-197C226.6,-189.87 257.89,-180.13 286,-175.5 383.8,-159.39 499.59,-158.02 566.83,-158.95"/>
<polygon fill="#9a32cd" stroke="#9a32cd" points="204.59,-193.73 196.32,-200.35 206.91,-200.34 204.59,-193.73"/>
<text text-anchor="middle" x="349" y="-178.5" font-family="Helvetica,sans-Serif" font-size="10.00"> elements</text>
</g>
<!-- Node6 -->
<g id="node6" class="node">
<title>Node6</title>
<g id="a_node6"><a xlink:href="classnamespacet.html" target="_top" xlink:title="A namespacet is essentially one or two symbol tables bound together, to allow for symbol lookups in t...">
<polygon fill="none" stroke="black" points="1106.5,-172 1106.5,-191 1183.5,-191 1183.5,-172 1106.5,-172"/>
<text text-anchor="middle" x="1145" y="-179" font-family="Helvetica,sans-Serif" font-size="10.00">namespacet</text>
</a>
</g>
</g>
<!-- Node6&#45;&gt;Node1 -->
<g id="edge5" class="edge">
<title>Node6&#45;&gt;Node1</title>
<path fill="none" stroke="#9a32cd" stroke-dasharray="5,2" d="M1193.99,-176.96C1219.56,-174.55 1251.64,-171.51 1280.6,-168.77"/>
<polygon fill="#9a32cd" stroke="#9a32cd" points="1193.44,-173.5 1183.81,-177.93 1194.1,-180.47 1193.44,-173.5"/>
<text text-anchor="middle" x="1235.5" y="-179.5" font-family="Helvetica,sans-Serif" font-size="10.00"> ns</text>
</g>
<!-- Node7 -->
<g id="node7" class="node">
<title>Node7</title>
<g id="a_node7"><a xlink:href="classnamespace__baset.html" target="_top" xlink:title="Basic interface for a namespace.">
<polygon fill="none" stroke="black" points="844.5,-172 844.5,-191 949.5,-191 949.5,-172 844.5,-172"/>
<text text-anchor="middle" x="897" y="-179" font-family="Helvetica,sans-Serif" font-size="10.00">namespace_baset</text>
</a>
</g>
</g>
<!-- Node7&#45;&gt;Node6 -->
<g id="edge6" class="edge">
<title>Node7&#45;&gt;Node6</title>
<path fill="none" stroke="midnightblue" d="M959.73,-181.5C1005.76,-181.5 1067.16,-181.5 1106.15,-181.5"/>
<polygon fill="midnightblue" stroke="midnightblue" points="959.57,-178 949.57,-181.5 959.57,-185 959.57,-178"/>
</g>
<!-- Node8 -->
<g id="node8" class="node">
<title>Node8</title>
<g id="a_node8"><a xlink:href="classsymbol__table__baset.html" target="_top" xlink:title="The symbol table base class interface.">
<polygon fill="none" stroke="black" points="839.5,-210 839.5,-229 954.5,-229 954.5,-210 839.5,-210"/>
<text text-anchor="middle" x="897" y="-217" font-family="Helvetica,sans-Serif" font-size="10.00">symbol_table_baset</text>
</a>
</g>
</g>
<!-- Node8&#45;&gt;Node6 -->
<g id="edge7" class="edge">
<title>Node8&#45;&gt;Node6</title>
<path fill="none" stroke="#9a32cd" stroke-dasharray="5,2" d="M964.64,-211.62C999.66,-207.18 1043.25,-201.19 1082,-194.5 1089.91,-193.14 1098.35,-191.49 1106.38,-189.84"/>
<polygon fill="#9a32cd" stroke="#9a32cd" points="964.02,-208.17 954.53,-212.88 964.89,-215.11 964.02,-208.17"/>
<text text-anchor="middle" x="1028.5" y="-224.5" font-family="Helvetica,sans-Serif" font-size="10.00"> symbol_table1</text>
<text text-anchor="middle" x="1028.5" y="-213.5" font-family="Helvetica,sans-Serif" font-size="10.00">symbol_table2</text>
</g>
<!-- Node9 -->
<g id="node9" class="node">
<title>Node9</title>
<g id="a_node9"><a xlink:title=" ">
<polygon fill="none" stroke="#bfbfbf" points="566.5,-224.5 566.5,-254.5 681.5,-254.5 681.5,-224.5 566.5,-224.5"/>
<text text-anchor="start" x="574.5" y="-242.5" font-family="Helvetica,sans-Serif" font-size="10.00">std::multimap&lt; irep</text>
<text text-anchor="middle" x="624" y="-231.5" font-family="Helvetica,sans-Serif" font-size="10.00">_idt, irep_idt &gt;</text>
</a>
</g>
</g>
<!-- Node9&#45;&gt;Node8 -->
<g id="edge8" class="edge">
<title>Node9&#45;&gt;Node8</title>
<path fill="none" stroke="#9a32cd" stroke-dasharray="5,2" d="M691.83,-234.57C737.11,-231.23 796.28,-226.86 839.26,-223.69"/>
<polygon fill="#9a32cd" stroke="#9a32cd" points="691.53,-231.08 681.81,-235.31 692.04,-238.06 691.53,-231.08"/>
<text text-anchor="middle" x="765.5" y="-247.5" font-family="Helvetica,sans-Serif" font-size="10.00"> symbol_base_map</text>
<text text-anchor="middle" x="765.5" y="-236.5" font-family="Helvetica,sans-Serif" font-size="10.00">symbol_module_map</text>
</g>
<!-- Node10 -->
<g id="node10" class="node">
<title>Node10</title>
<g id="a_node10"><a xlink:href="classdstringt.html" target="_top" xlink:title="dstringt has one field, an unsigned integer no which is an index into a static table of strings.">
<polygon fill="none" stroke="black" points="322,-234 322,-253 376,-253 376,-234 322,-234"/>
<text text-anchor="middle" x="349" y="-241" font-family="Helvetica,sans-Serif" font-size="10.00">dstringt</text>
</a>
</g>
</g>
<!-- Node10&#45;&gt;Node9 -->
<g id="edge9" class="edge">
<title>Node10&#45;&gt;Node9</title>
<path fill="none" stroke="#9a32cd" stroke-dasharray="5,2" d="M386.3,-242.97C432.37,-242.29 512.34,-241.12 566.44,-240.33"/>
<polygon fill="#9a32cd" stroke="#9a32cd" points="386.12,-239.47 376.18,-243.12 386.23,-246.47 386.12,-239.47"/>
<text text-anchor="middle" x="483" y="-255.5" font-family="Helvetica,sans-Serif" font-size="10.00"> elements</text>
<text text-anchor="middle" x="483" y="-244.5" font-family="Helvetica,sans-Serif" font-size="10.00">keys</text>
</g>
<!-- Node11&#45;&gt;Node9 -->
<g id="edge10" class="edge">
<title>Node11&#45;&gt;Node9</title>
<path fill="none" stroke="orange" stroke-dasharray="5,2" d="M422.09,-212.37C456.61,-215.88 498.5,-220.47 536,-225.5 545.86,-226.82 556.32,-228.38 566.44,-229.96"/>
<polygon fill="orange" stroke="orange" points="422.4,-208.88 412.1,-211.36 421.7,-215.84 422.4,-208.88"/>
<text text-anchor="middle" x="483" y="-228.5" font-family="Helvetica,sans-Serif" font-size="10.00"> &lt; irep_idt, irep_idt &gt;</text>
</g>
<!-- Node12 -->
<g id="node12" class="node">
<title>Node12</title>
<g id="a_node12"><a xlink:title=" ">
<polygon fill="none" stroke="#bfbfbf" points="167,-115 167,-134 196,-134 196,-115 167,-115"/>
<text text-anchor="middle" x="181.5" y="-122" font-family="Helvetica,sans-Serif" font-size="10.00">K</text>
</a>
</g>
</g>
<!-- Node12&#45;&gt;Node11 -->
<g id="edge11" class="edge">
<title>Node12&#45;&gt;Node11</title>
<path fill="none" stroke="#9a32cd" stroke-dasharray="5,2" d="M204.92,-137.99C225.58,-150.15 257.3,-168.12 286,-181.5 297.3,-186.77 310.1,-191.87 321.12,-195.99"/>
<polygon fill="#9a32cd" stroke="#9a32cd" points="206.64,-134.95 196.25,-132.85 203.07,-140.97 206.64,-134.95"/>
<text text-anchor="middle" x="243.5" y="-175.5" font-family="Helvetica,sans-Serif" font-size="10.00"> keys</text>
</g>
<!-- Node12&#45;&gt;Node13 -->
<g id="edge14" class="edge">
<title>Node12&#45;&gt;Node13</title>
<path fill="none" stroke="#9a32cd" stroke-dasharray="5,2" d="M206.24,-124.74C247.94,-125.32 337.04,-127.25 412,-133.5 464.63,-137.89 524.3,-145.8 566.72,-151.93"/>
<polygon fill="#9a32cd" stroke="#9a32cd" points="206.28,-121.24 196.24,-124.62 206.19,-128.24 206.28,-121.24"/>
<text text-anchor="middle" x="349" y="-136.5" font-family="Helvetica,sans-Serif" font-size="10.00"> keys</text>
</g>
<!-- Node13&#45;&gt;Node8 -->
<g id="edge13" class="edge">
<title>Node13&#45;&gt;Node8</title>
<path fill="none" stroke="#9a32cd" stroke-dasharray="5,2" d="M689.51,-178.06C697.07,-179.97 704.69,-181.82 712,-183.5 755.62,-193.52 805.46,-203.17 842.26,-209.94"/>
<polygon fill="#9a32cd" stroke="#9a32cd" points="690.18,-174.62 679.63,-175.53 688.45,-181.4 690.18,-174.62"/>
<text text-anchor="middle" x="765.5" y="-208.5" font-family="Helvetica,sans-Serif" font-size="10.00"> symbols</text>
</g>
<!-- Node15 -->
<g id="node15" class="node">
<title>Node15</title>
<g id="a_node15"><a xlink:title=" ">
<polygon fill="none" stroke="#bfbfbf" points="838,-62 838,-103 956,-103 956,-62 838,-62"/>
<text text-anchor="start" x="846" y="-91" font-family="Helvetica,sans-Serif" font-size="10.00">std::unordered_map</text>
<text text-anchor="start" x="846" y="-80" font-family="Helvetica,sans-Serif" font-size="10.00">&lt; exprt, array_string</text>
<text text-anchor="middle" x="897" y="-69" font-family="Helvetica,sans-Serif" font-size="10.00">_exprt, irep_hash &gt;</text>
</a>
</g>
</g>
<!-- Node13&#45;&gt;Node15 -->
<g id="edge23" class="edge">
<title>Node13&#45;&gt;Node15</title>
<path fill="none" stroke="orange" stroke-dasharray="5,2" d="M691.51,-157.96C738.68,-155.23 797.31,-149.67 819,-138.5 829.63,-133.03 827.8,-126.14 837,-118.5 843.65,-112.98 851.22,-107.72 858.68,-103.01"/>
<polygon fill="orange" stroke="orange" points="691.12,-154.48 681.33,-158.52 691.5,-161.47 691.12,-154.48"/>
<text text-anchor="start" x="713" y="-171.5" font-family="Helvetica,sans-Serif" font-size="10.00"> &lt; exprt, array_string</text>
<text text-anchor="middle" x="765.5" y="-160.5" font-family="Helvetica,sans-Serif" font-size="10.00">_exprt, irep_hash &gt;</text>
</g>
<!-- Node25 -->
<g id="node21" class="node">
<title>Node25</title>
<g id="a_node21"><a xlink:title=" ">
<polygon fill="none" stroke="#bfbfbf" points="837,-2 837,-43 957,-43 957,-2 837,-2"/>
<text text-anchor="start" x="845" y="-31" font-family="Helvetica,sans-Serif" font-size="10.00">std::unordered_map</text>
<text text-anchor="start" x="845" y="-20" font-family="Helvetica,sans-Serif" font-size="10.00">&lt; array_string_exprt,</text>
<text text-anchor="middle" x="897" y="-9" font-family="Helvetica,sans-Serif" font-size="10.00"> exprt, irep_hash &gt;</text>
</a>
</g>
</g>
<!-- Node13&#45;&gt;Node25 -->
<g id="edge28" class="edge">
<title>Node13&#45;&gt;Node25</title>
<path fill="none" stroke="orange" stroke-dasharray="5,2" d="M658.9,-140.29C674.75,-131.23 694.05,-120.75 712,-112.5 758.13,-91.29 777.04,-101.08 819,-72.5 828.88,-65.77 827.51,-59.78 837,-52.5 841.38,-49.15 846.19,-45.99 851.11,-43.09"/>
<polygon fill="orange" stroke="orange" points="656.91,-137.39 650,-145.43 660.41,-143.46 656.91,-137.39"/>
<text text-anchor="start" x="712" y="-126.5" font-family="Helvetica,sans-Serif" font-size="10.00"> &lt; array_string_exprt,</text>
<text text-anchor="middle" x="765.5" y="-115.5" font-family="Helvetica,sans-Serif" font-size="10.00"> exprt, irep_hash &gt;</text>
</g>
<!-- Node14 -->
<g id="node14" class="node">
<title>Node14</title>
<g id="a_node14"><a xlink:href="classarray__poolt.html" target="_top" xlink:title="Correspondance between arrays and pointers string representations.">
<polygon fill="none" stroke="black" points="1109,-80 1109,-99 1181,-99 1181,-80 1109,-80"/>
<text text-anchor="middle" x="1145" y="-87" font-family="Helvetica,sans-Serif" font-size="10.00">array_poolt</text>
</a>
</g>
</g>
<!-- Node14&#45;&gt;Node1 -->
<g id="edge16" class="edge">
<title>Node14&#45;&gt;Node1</title>
<path fill="none" stroke="#9a32cd" stroke-dasharray="5,2" d="M1191.14,-98.09C1213.12,-102.83 1239.76,-109.4 1263,-117.5 1290.68,-127.15 1321.17,-142.21 1339.83,-151.96"/>
<polygon fill="#9a32cd" stroke="#9a32cd" points="1191.59,-94.61 1181.08,-95.98 1190.15,-101.46 1191.59,-94.61"/>
<text text-anchor="middle" x="1235.5" y="-120.5" font-family="Helvetica,sans-Serif" font-size="10.00"> array_pool</text>
</g>
<!-- Node15&#45;&gt;Node14 -->
<g id="edge17" class="edge">
<title>Node15&#45;&gt;Node14</title>
<path fill="none" stroke="#9a32cd" stroke-dasharray="5,2" d="M966.08,-81.4C1000.79,-81.21 1043.67,-81.55 1082,-83.5 1090.75,-83.95 1100.17,-84.71 1108.96,-85.55"/>
<polygon fill="#9a32cd" stroke="#9a32cd" points="966.02,-77.9 956.05,-81.47 966.07,-84.9 966.02,-77.9"/>
<text text-anchor="middle" x="1028.5" y="-86.5" font-family="Helvetica,sans-Serif" font-size="10.00"> arrays_of_pointers</text>
</g>
<!-- Node16 -->
<g id="node16" class="node">
<title>Node16</title>
<g id="a_node16"><a xlink:href="classarray__string__exprt.html" target="_top" xlink:title=" ">
<polygon fill="none" stroke="black" points="571,-23 571,-42 677,-42 677,-23 571,-23"/>
<text text-anchor="middle" x="624" y="-30" font-family="Helvetica,sans-Serif" font-size="10.00">array_string_exprt</text>
</a>
</g>
</g>
<!-- Node16&#45;&gt;Node15 -->
<g id="edge18" class="edge">
<title>Node16&#45;&gt;Node15</title>
<path fill="none" stroke="#9a32cd" stroke-dasharray="5,2" d="M687.31,-37.56C725.61,-41.4 775.51,-47.73 819,-57.5 825.17,-58.89 831.55,-60.56 837.88,-62.37"/>
<polygon fill="#9a32cd" stroke="#9a32cd" points="687.62,-34.08 677.33,-36.59 686.95,-41.04 687.62,-34.08"/>
<text text-anchor="middle" x="765.5" y="-60.5" font-family="Helvetica,sans-Serif" font-size="10.00"> elements</text>
</g>
<!-- Node16&#45;&gt;Node25 -->
<g id="edge26" class="edge">
<title>Node16&#45;&gt;Node25</title>
<path fill="none" stroke="#9a32cd" stroke-dasharray="5,2" d="M687.38,-25.31C695.65,-24.57 704.02,-23.94 712,-23.5 753.63,-21.24 800.63,-21.03 836.71,-21.36"/>
<polygon fill="#9a32cd" stroke="#9a32cd" points="687.01,-21.83 677.38,-26.25 687.67,-28.8 687.01,-21.83"/>
<text text-anchor="middle" x="765.5" y="-26.5" font-family="Helvetica,sans-Serif" font-size="10.00"> keys</text>
</g>
<!-- Node17 -->
<g id="node17" class="node">
<title>Node17</title>
<g id="a_node17"><a xlink:href="classexprt.html" target="_top" xlink:title="Base class for all expressions.">
<polygon fill="none" stroke="black" points="328,-23 328,-42 370,-42 370,-23 328,-23"/>
<text text-anchor="middle" x="349" y="-30" font-family="Helvetica,sans-Serif" font-size="10.00">exprt</text>
</a>
</g>
</g>
<!-- Node17&#45;&gt;Node15 -->
<g id="edge22" class="edge">
<title>Node17&#45;&gt;Node15</title>
<path fill="none" stroke="#9a32cd" stroke-dasharray="5,2" d="M380.48,-38.54C395.37,-41.31 413.57,-44.43 430,-46.5 576.12,-64.94 749.28,-75.33 837.7,-79.82"/>
<polygon fill="#9a32cd" stroke="#9a32cd" points="380.78,-35.03 370.31,-36.61 379.48,-41.91 380.78,-35.03"/>
<text text-anchor="middle" x="624" y="-74.5" font-family="Helvetica,sans-Serif" font-size="10.00"> keys</text>
</g>
<!-- Node17&#45;&gt;Node16 -->
<g id="edge19" class="edge">
<title>Node17&#45;&gt;Node16</title>
<path fill="none" stroke="midnightblue" d="M380.3,-32.5C426.35,-32.5 514.55,-32.5 570.99,-32.5"/>
<polygon fill="midnightblue" stroke="midnightblue" points="380.07,-29 370.07,-32.5 380.07,-36 380.07,-29"/>
</g>
<!-- Node17&#45;&gt;Node25 -->
<g id="edge27" class="edge">
<title>Node17&#45;&gt;Node25</title>
<path fill="none" stroke="#9a32cd" stroke-dasharray="5,2" d="M380.23,-26.64C419.92,-19.28 491.86,-7.05 554,-2.5 653.21,4.75 768.76,-6.01 836.96,-14.34"/>
<polygon fill="#9a32cd" stroke="#9a32cd" points="379.34,-23.25 370.16,-28.54 380.63,-30.13 379.34,-23.25"/>
<text text-anchor="middle" x="624" y="-5.5" font-family="Helvetica,sans-Serif" font-size="10.00"> elements</text>
</g>
<!-- Node18 -->
<g id="node18" class="node">
<title>Node18</title>
<g id="a_node18"><a xlink:href="classirept.html" target="_top" xlink:title="There are a large number of kinds of tree structured or tree&#45;like data in CPROVER.">
<polygon fill="none" stroke="black" points="162,-23 162,-42 201,-42 201,-23 162,-23"/>
<text text-anchor="middle" x="181.5" y="-30" font-family="Helvetica,sans-Serif" font-size="10.00">irept</text>
</a>
</g>
</g>
<!-- Node18&#45;&gt;Node17 -->
<g id="edge20" class="edge">
<title>Node18&#45;&gt;Node17</title>
<path fill="none" stroke="midnightblue" d="M211.2,-32.5C244.54,-32.5 298.69,-32.5 327.86,-32.5"/>
<polygon fill="midnightblue" stroke="midnightblue" points="211.16,-29 201.16,-32.5 211.16,-36 211.16,-29"/>
</g>
<!-- Node19 -->
<g id="node19" class="node">
<title>Node19</title>
<g id="a_node19"><a xlink:href="classsharing__treet.html" target="_top" xlink:title=" ">
<polygon fill="none" stroke="red" points="0,-12 0,-53 125,-53 125,-12 0,-12"/>
<text text-anchor="start" x="8" y="-41" font-family="Helvetica,sans-Serif" font-size="10.00">sharing_treet&lt; irept,</text>
<text text-anchor="start" x="8" y="-30" font-family="Helvetica,sans-Serif" font-size="10.00"> forward_list_as_mapt</text>
<text text-anchor="middle" x="62.5" y="-19" font-family="Helvetica,sans-Serif" font-size="10.00">&lt; irep_idt, irept &gt; &gt;</text>
</a>
</g>
</g>
<!-- Node19&#45;&gt;Node18 -->
<g id="edge21" class="edge">
<title>Node19&#45;&gt;Node18</title>
<path fill="none" stroke="midnightblue" d="M135.38,-32.5C145.13,-32.5 154.35,-32.5 161.89,-32.5"/>
<polygon fill="midnightblue" stroke="midnightblue" points="135.08,-29 125.08,-32.5 135.08,-36 135.08,-29"/>
</g>
<!-- Node24 -->
<g id="node20" class="node">
<title>Node24</title>
<g id="a_node20"><a xlink:href="classsymbol__generatort.html" target="_top" xlink:title="Generation of fresh symbols of a given type.">
<polygon fill="none" stroke="black" points="842.5,-128 842.5,-147 951.5,-147 951.5,-128 842.5,-128"/>
<text text-anchor="middle" x="897" y="-135" font-family="Helvetica,sans-Serif" font-size="10.00">symbol_generatort</text>
</a>
</g>
</g>
<!-- Node24&#45;&gt;Node1 -->
<g id="edge29" class="edge">
<title>Node24&#45;&gt;Node1</title>
<path fill="none" stroke="#9a32cd" stroke-dasharray="5,2" d="M961.87,-140.35C1021.03,-143.04 1111.47,-147.28 1190,-151.5 1219.67,-153.1 1252.29,-155.01 1280.8,-156.73"/>
<polygon fill="#9a32cd" stroke="#9a32cd" points="961.71,-136.84 951.56,-139.88 961.39,-143.83 961.71,-136.84"/>
<text text-anchor="middle" x="1145" y="-154.5" font-family="Helvetica,sans-Serif" font-size="10.00"> fresh_symbol</text>
</g>
<!-- Node24&#45;&gt;Node14 -->
<g id="edge24" class="edge">
<title>Node24&#45;&gt;Node14</title>
<path fill="none" stroke="#9a32cd" stroke-dasharray="5,2" d="M941.66,-125.43C952.51,-122.64 964.14,-119.81 975,-117.5 1020.97,-107.75 1074.57,-99.37 1108.87,-94.38"/>
<polygon fill="#9a32cd" stroke="#9a32cd" points="940.74,-122.06 931.96,-127.98 942.52,-128.83 940.74,-122.06"/>
<text text-anchor="middle" x="1028.5" y="-120.5" font-family="Helvetica,sans-Serif" font-size="10.00"> fresh_symbol</text>
</g>
<!-- Node25&#45;&gt;Node14 -->
<g id="edge25" class="edge">
<title>Node25&#45;&gt;Node14</title>
<path fill="none" stroke="#9a32cd" stroke-dasharray="5,2" d="M967.35,-37.01C1002.05,-44.79 1044.53,-55.12 1082,-66.5 1094.85,-70.41 1108.91,-75.55 1120.38,-79.98"/>
<polygon fill="#9a32cd" stroke="#9a32cd" points="967.84,-33.53 957.32,-34.78 966.32,-40.37 967.84,-33.53"/>
<text text-anchor="middle" x="1028.5" y="-69.5" font-family="Helvetica,sans-Serif" font-size="10.00"> length_of_array</text>
</g>
</g>
</svg>
