<?xml version="1.0" encoding="UTF-8" standalone="no"?>
<!DOCTYPE svg PUBLIC "-//W3C//DTD SVG 1.1//EN"
 "http://www.w3.org/Graphics/SVG/1.1/DTD/svg11.dtd">
<!-- Generated by graphviz version 2.43.0 (0)
 -->
<!-- Title: write_location_contextt Pages: 1 -->
<svg width="1404pt" height="124pt"
 viewBox="0.00 0.00 1404.00 123.50" xmlns="http://www.w3.org/2000/svg" xmlns:xlink="http://www.w3.org/1999/xlink">
<g id="graph0" class="graph" transform="scale(1 1) rotate(0) translate(4 119.5)">
<title>write_location_contextt</title>
<!-- Node1 -->
<g id="node1" class="node">
<title>Node1</title>
<g id="a_node1"><a xlink:title="General implementation of an abstract_objectt which tracks the last written locations for a given abs...">
<polygon fill="#bfbfbf" stroke="black" points="1265,-61 1265,-80 1396,-80 1396,-61 1265,-61"/>
<text text-anchor="middle" x="1330.5" y="-68" font-family="Helvetica,sans-Serif" font-size="10.00">write_location_contextt</text>
</a>
</g>
</g>
<!-- Node2 -->
<g id="node2" class="node">
<title>Node2</title>
<g id="a_node2"><a xlink:href="classcontext__abstract__objectt.html" target="_top" xlink:title=" ">
<polygon fill="none" stroke="black" points="1091,-61 1091,-80 1228,-80 1228,-61 1091,-61"/>
<text text-anchor="middle" x="1159.5" y="-68" font-family="Helvetica,sans-Serif" font-size="10.00">context_abstract_objectt</text>
</a>
</g>
</g>
<!-- Node2&#45;&gt;Node1 -->
<g id="edge1" class="edge">
<title>Node2&#45;&gt;Node1</title>
<path fill="none" stroke="midnightblue" d="M1238.5,-70.5C1247.28,-70.5 1256.16,-70.5 1264.74,-70.5"/>
<polygon fill="midnightblue" stroke="midnightblue" points="1238.27,-67 1228.26,-70.5 1238.26,-74 1238.27,-67"/>
</g>
<!-- Node3 -->
<g id="node3" class="node">
<title>Node3</title>
<g id="a_node3"><a xlink:href="classabstract__objectt.html" target="_top" xlink:title=" ">
<polygon fill="none" stroke="black" points="959,-61 959,-80 1054,-80 1054,-61 959,-61"/>
<text text-anchor="middle" x="1006.5" y="-68" font-family="Helvetica,sans-Serif" font-size="10.00">abstract_objectt</text>
</a>
</g>
</g>
<!-- Node3&#45;&gt;Node2 -->
<g id="edge2" class="edge">
<title>Node3&#45;&gt;Node2</title>
<path fill="none" stroke="midnightblue" d="M1064.06,-70.5C1072.76,-70.5 1081.83,-70.5 1090.75,-70.5"/>
<polygon fill="midnightblue" stroke="midnightblue" points="1064.04,-67 1054.04,-70.5 1064.04,-74 1064.04,-67"/>
</g>
<!-- Node4 -->
<g id="node4" class="node">
<title>Node4</title>
<g id="a_node4"><a xlink:title=" ">
<polygon fill="none" stroke="#bfbfbf" points="797,-74 797,-115 916,-115 916,-74 797,-74"/>
<text text-anchor="start" x="805" y="-103" font-family="Helvetica,sans-Serif" font-size="10.00">std::enable_shared</text>
<text text-anchor="start" x="805" y="-92" font-family="Helvetica,sans-Serif" font-size="10.00">_from_this&lt; abstract</text>
<text text-anchor="middle" x="856.5" y="-81" font-family="Helvetica,sans-Serif" font-size="10.00">_objectt &gt;</text>
</a>
</g>
</g>
<!-- Node4&#45;&gt;Node3 -->
<g id="edge3" class="edge">
<title>Node4&#45;&gt;Node3</title>
<path fill="none" stroke="midnightblue" d="M926.38,-83.33C937.3,-81.56 948.37,-79.76 958.63,-78.1"/>
<polygon fill="midnightblue" stroke="midnightblue" points="925.73,-79.89 916.42,-84.95 926.85,-86.8 925.73,-79.89"/>
</g>
<!-- Node5 -->
<g id="node5" class="node">
<title>Node5</title>
<g id="a_node5"><a xlink:href="classtypet.html" target="_top" xlink:title="The type of an expression, extends irept.">
<polygon fill="none" stroke="black" points="835.5,-36 835.5,-55 877.5,-55 877.5,-36 835.5,-36"/>
<text text-anchor="middle" x="856.5" y="-43" font-family="Helvetica,sans-Serif" font-size="10.00">typet</text>
</a>
</g>
</g>
<!-- Node5&#45;&gt;Node3 -->
<g id="edge4" class="edge">
<title>Node5&#45;&gt;Node3</title>
<path fill="none" stroke="#9a32cd" stroke-dasharray="5,2" d="M887.75,-50.61C908.17,-54.06 935.52,-58.68 958.71,-62.6"/>
<polygon fill="#9a32cd" stroke="#9a32cd" points="888.21,-47.14 877.77,-48.92 887.05,-54.04 888.21,-47.14"/>
<text text-anchor="middle" x="937.5" y="-62.5" font-family="Helvetica,sans-Serif" font-size="10.00"> t</text>
</g>
<!-- Node6 -->
<g id="node6" class="node">
<title>Node6</title>
<g id="a_node6"><a xlink:href="classirept.html" target="_top" xlink:title="There are a large number of kinds of tree structured or tree&#45;like data in CPROVER.">
<polygon fill="none" stroke="black" points="721,-36 721,-55 760,-55 760,-36 721,-36"/>
<text text-anchor="middle" x="740.5" y="-43" font-family="Helvetica,sans-Serif" font-size="10.00">irept</text>
</a>
</g>
</g>
<!-- Node6&#45;&gt;Node5 -->
<g id="edge5" class="edge">
<title>Node6&#45;&gt;Node5</title>
<path fill="none" stroke="midnightblue" d="M770.32,-45.5C790.64,-45.5 817.35,-45.5 835.4,-45.5"/>
<polygon fill="midnightblue" stroke="midnightblue" points="770.07,-42 760.07,-45.5 770.07,-49 770.07,-42"/>
</g>
<!-- Node7 -->
<g id="node7" class="node">
<title>Node7</title>
<g id="a_node7"><a xlink:href="classsharing__treet.html" target="_top" xlink:title=" ">
<polygon fill="none" stroke="black" points="559,-25 559,-66 684,-66 684,-25 559,-25"/>
<text text-anchor="start" x="567" y="-54" font-family="Helvetica,sans-Serif" font-size="10.00">sharing_treet&lt; irept,</text>
<text text-anchor="start" x="567" y="-43" font-family="Helvetica,sans-Serif" font-size="10.00"> forward_list_as_mapt</text>
<text text-anchor="middle" x="621.5" y="-32" font-family="Helvetica,sans-Serif" font-size="10.00">&lt; irep_idt, irept &gt; &gt;</text>
</a>
</g>
</g>
<!-- Node7&#45;&gt;Node6 -->
<g id="edge6" class="edge">
<title>Node7&#45;&gt;Node6</title>
<path fill="none" stroke="midnightblue" d="M694.38,-45.5C704.13,-45.5 713.35,-45.5 720.89,-45.5"/>
<polygon fill="midnightblue" stroke="midnightblue" points="694.08,-42 684.08,-45.5 694.08,-49 694.08,-42"/>
</g>
<!-- Node8 -->
<g id="node8" class="node">
<title>Node8</title>
<g id="a_node8"><a xlink:href="classtree__nodet.html" target="_top" xlink:title="A node with data in a tree, it contains:">
<polygon fill="none" stroke="red" points="0,-26.5 0,-56.5 158,-56.5 158,-26.5 0,-26.5"/>
<text text-anchor="start" x="8" y="-44.5" font-family="Helvetica,sans-Serif" font-size="10.00">tree_nodet&lt; treet,</text>
<text text-anchor="middle" x="79" y="-33.5" font-family="Helvetica,sans-Serif" font-size="10.00"> named_subtreest, sharing &gt;</text>
</a>
</g>
</g>
<!-- Node8&#45;&gt;Node7 -->
<g id="edge7" class="edge">
<title>Node8&#45;&gt;Node7</title>
<path fill="none" stroke="#9a32cd" stroke-dasharray="5,2" d="M168.32,-52.96C170.9,-53.16 173.47,-53.34 176,-53.5 337.91,-63.58 378.98,-61.63 541,-53.5 546.82,-53.21 552.87,-52.8 558.92,-52.31"/>
<polygon fill="#9a32cd" stroke="#9a32cd" points="168.51,-49.47 158.25,-52.1 167.91,-56.44 168.51,-49.47"/>
<text text-anchor="middle" x="308" y="-73.5" font-family="Helvetica,sans-Serif" font-size="10.00"> empty_d</text>
<text text-anchor="middle" x="308" y="-62.5" font-family="Helvetica,sans-Serif" font-size="10.00">data</text>
</g>
<!-- Node14 -->
<g id="node9" class="node">
<title>Node14</title>
<g id="a_node9"><a xlink:href="classsharing__treet.html" target="_top" xlink:title="Base class for tree&#45;like data structures with sharing.">
<polygon fill="none" stroke="black" points="240,-0.5 240,-30.5 376,-30.5 376,-0.5 240,-0.5"/>
<text text-anchor="start" x="248" y="-18.5" font-family="Helvetica,sans-Serif" font-size="10.00">sharing_treet&lt; derivedt,</text>
<text text-anchor="middle" x="308" y="-7.5" font-family="Helvetica,sans-Serif" font-size="10.00"> named_subtreest &gt;</text>
</a>
</g>
</g>
<!-- Node8&#45;&gt;Node14 -->
<g id="edge9" class="edge">
<title>Node8&#45;&gt;Node14</title>
<path fill="none" stroke="#9a32cd" stroke-dasharray="5,2" d="M168.2,-31.4C191.96,-28.68 217.29,-25.78 239.71,-23.21"/>
<polygon fill="#9a32cd" stroke="#9a32cd" points="167.66,-27.94 158.12,-32.55 168.45,-34.89 167.66,-27.94"/>
<text text-anchor="middle" x="199" y="-44.5" font-family="Helvetica,sans-Serif" font-size="10.00"> empty_d</text>
<text text-anchor="middle" x="199" y="-33.5" font-family="Helvetica,sans-Serif" font-size="10.00">data</text>
</g>
<!-- Node14&#45;&gt;Node7 -->
<g id="edge8" class="edge">
<title>Node14&#45;&gt;Node7</title>
<path fill="none" stroke="orange" stroke-dasharray="5,2" d="M386.21,-18.78C431.43,-21.21 489.58,-25.22 541,-31.5 546.84,-32.21 552.91,-33.07 558.97,-34"/>
<polygon fill="orange" stroke="orange" points="386.35,-15.28 376.18,-18.26 385.99,-22.28 386.35,-15.28"/>
<text text-anchor="start" x="394" y="-45.5" font-family="Helvetica,sans-Serif" font-size="10.00"> &lt; irept, forward_list</text>
<text text-anchor="middle" x="467.5" y="-34.5" font-family="Helvetica,sans-Serif" font-size="10.00">_as_mapt&lt; irep_idt, irept &gt; &gt;</text>
</g>
</g>
</svg>
