<?xml version="1.0" encoding="UTF-8" standalone="no"?>
<!DOCTYPE svg PUBLIC "-//W3C//DTD SVG 1.1//EN"
 "http://www.w3.org/Graphics/SVG/1.1/DTD/svg11.dtd">
<!-- Generated by graphviz version 2.43.0 (0)
 -->
<!-- Title: two_value_struct_abstract_objectt Pages: 1 -->
<svg width="962pt" height="101pt"
 viewBox="0.00 0.00 962.00 100.85" xmlns="http://www.w3.org/2000/svg" xmlns:xlink="http://www.w3.org/1999/xlink">
<g id="graph0" class="graph" transform="scale(1 1) rotate(0) translate(4 96.85)">
<title>two_value_struct_abstract_objectt</title>
<!-- Node1 -->
<g id="node1" class="node">
<title>Node1</title>
<g id="a_node1"><a xlink:title=" ">
<polygon fill="#bfbfbf" stroke="black" points="809,-30 809,-60 954,-60 954,-30 809,-30"/>
<text text-anchor="start" x="817" y="-48" font-family="Helvetica,sans-Serif" font-size="10.00">two_value_struct_abstract</text>
<text text-anchor="middle" x="881.5" y="-37" font-family="Helvetica,sans-Serif" font-size="10.00">_objectt</text>
</a>
</g>
</g>
<!-- Node2 -->
<g id="node2" class="node">
<title>Node2</title>
<g id="a_node2"><a xlink:href="classabstract__aggregate__objectt.html" target="_top" xlink:title=" ">
<polygon fill="none" stroke="black" points="628,-19 628,-71 772,-71 772,-19 628,-19"/>
<text text-anchor="start" x="636" y="-59" font-family="Helvetica,sans-Serif" font-size="10.00">abstract_aggregate</text>
<text text-anchor="start" x="636" y="-48" font-family="Helvetica,sans-Serif" font-size="10.00">_objectt&lt; two_value</text>
<text text-anchor="start" x="636" y="-37" font-family="Helvetica,sans-Serif" font-size="10.00">_struct_abstract_objectt,</text>
<text text-anchor="middle" x="700" y="-26" font-family="Helvetica,sans-Serif" font-size="10.00"> struct_aggregate_typet &gt;</text>
</a>
</g>
</g>
<!-- Node2&#45;&gt;Node1 -->
<g id="edge1" class="edge">
<title>Node2&#45;&gt;Node1</title>
<path fill="none" stroke="midnightblue" d="M782.45,-45C791.24,-45 800.14,-45 808.8,-45"/>
<polygon fill="midnightblue" stroke="midnightblue" points="782.2,-41.5 772.2,-45 782.2,-48.5 782.2,-41.5"/>
</g>
<!-- Node3 -->
<g id="node3" class="node">
<title>Node3</title>
<g id="a_node3"><a xlink:href="classabstract__objectt.html" target="_top" xlink:title=" ">
<polygon fill="none" stroke="black" points="174.5,-11.5 174.5,-30.5 269.5,-30.5 269.5,-11.5 174.5,-11.5"/>
<text text-anchor="middle" x="222" y="-18.5" font-family="Helvetica,sans-Serif" font-size="10.00">abstract_objectt</text>
</a>
</g>
</g>
<!-- Node3&#45;&gt;Node2 -->
<g id="edge2" class="edge">
<title>Node3&#45;&gt;Node2</title>
<path fill="none" stroke="midnightblue" d="M279.69,-17.07C294.43,-16.21 310.31,-15.43 325,-15 391.19,-13.05 407.92,-10.61 474,-15 525.71,-18.43 583.66,-26.25 627.8,-33.05"/>
<polygon fill="midnightblue" stroke="midnightblue" points="279.46,-13.58 269.69,-17.68 279.88,-20.57 279.46,-13.58"/>
</g>
<!-- Node6 -->
<g id="node6" class="node">
<title>Node6</title>
<g id="a_node6"><a xlink:href="classabstract__aggregate__objectt.html" target="_top" xlink:title=" ">
<polygon fill="none" stroke="black" points="325,-24.5 325,-65.5 474,-65.5 474,-24.5 325,-24.5"/>
<text text-anchor="start" x="333" y="-53.5" font-family="Helvetica,sans-Serif" font-size="10.00">abstract_aggregate</text>
<text text-anchor="start" x="333" y="-42.5" font-family="Helvetica,sans-Serif" font-size="10.00">_objectt&lt; aggregate</text>
<text text-anchor="middle" x="399.5" y="-31.5" font-family="Helvetica,sans-Serif" font-size="10.00">_typet, aggregate_traitst &gt;</text>
</a>
</g>
</g>
<!-- Node3&#45;&gt;Node6 -->
<g id="edge6" class="edge">
<title>Node3&#45;&gt;Node6</title>
<path fill="none" stroke="midnightblue" d="M279.78,-28.77C294.16,-30.73 309.8,-32.87 324.87,-34.93"/>
<polygon fill="midnightblue" stroke="midnightblue" points="279.95,-25.26 269.57,-27.37 279,-32.19 279.95,-25.26"/>
</g>
<!-- Node4 -->
<g id="node4" class="node">
<title>Node4</title>
<g id="a_node4"><a xlink:title=" ">
<polygon fill="none" stroke="#bfbfbf" points="0,-0.5 0,-41.5 119,-41.5 119,-0.5 0,-0.5"/>
<text text-anchor="start" x="8" y="-29.5" font-family="Helvetica,sans-Serif" font-size="10.00">std::enable_shared</text>
<text text-anchor="start" x="8" y="-18.5" font-family="Helvetica,sans-Serif" font-size="10.00">_from_this&lt; abstract</text>
<text text-anchor="middle" x="59.5" y="-7.5" font-family="Helvetica,sans-Serif" font-size="10.00">_objectt &gt;</text>
</a>
</g>
</g>
<!-- Node4&#45;&gt;Node3 -->
<g id="edge3" class="edge">
<title>Node4&#45;&gt;Node3</title>
<path fill="none" stroke="midnightblue" d="M129.71,-21C144.83,-21 160.48,-21 174.46,-21"/>
<polygon fill="midnightblue" stroke="midnightblue" points="129.35,-17.5 119.35,-21 129.35,-24.5 129.35,-17.5"/>
</g>
<!-- Node5 -->
<g id="node5" class="node">
<title>Node5</title>
<g id="a_node5"><a xlink:href="classabstract__aggregate__tag.html" target="_top" xlink:title=" ">
<polygon fill="none" stroke="black" points="156,-63.5 156,-82.5 288,-82.5 288,-63.5 156,-63.5"/>
<text text-anchor="middle" x="222" y="-70.5" font-family="Helvetica,sans-Serif" font-size="10.00">abstract_aggregate_tag</text>
</a>
</g>
</g>
<!-- Node5&#45;&gt;Node2 -->
<g id="edge4" class="edge">
<title>Node5&#45;&gt;Node2</title>
<path fill="none" stroke="midnightblue" d="M298.33,-83.38C376.89,-92.11 503.22,-100.24 610,-80 620.6,-77.99 631.56,-74.74 642.01,-71.02"/>
<polygon fill="midnightblue" stroke="midnightblue" points="298.38,-79.86 288.05,-82.2 297.59,-86.82 298.38,-79.86"/>
</g>
<!-- Node5&#45;&gt;Node6 -->
<g id="edge7" class="edge">
<title>Node5&#45;&gt;Node6</title>
<path fill="none" stroke="midnightblue" d="M292.87,-61.85C303.4,-60.17 314.29,-58.44 324.89,-56.74"/>
<polygon fill="midnightblue" stroke="midnightblue" points="292.23,-58.41 282.91,-63.44 293.33,-65.32 292.23,-58.41"/>
</g>
<!-- Node6&#45;&gt;Node2 -->
<g id="edge5" class="edge">
<title>Node6&#45;&gt;Node2</title>
<path fill="none" stroke="orange" stroke-dasharray="5,2" d="M484.36,-45C529.58,-45 584.77,-45 627.86,-45"/>
<polygon fill="orange" stroke="orange" points="484.29,-41.5 474.29,-45 484.29,-48.5 484.29,-41.5"/>
<text text-anchor="start" x="492" y="-70" font-family="Helvetica,sans-Serif" font-size="10.00"> &lt; two_value_struct</text>
<text text-anchor="start" x="492" y="-59" font-family="Helvetica,sans-Serif" font-size="10.00">_abstract_objectt, struct</text>
<text text-anchor="middle" x="551" y="-48" font-family="Helvetica,sans-Serif" font-size="10.00">_aggregate_typet &gt;</text>
</g>
</g>
</svg>
