<?xml version="1.0" encoding="UTF-8" standalone="no"?>
<!DOCTYPE svg PUBLIC "-//W3C//DTD SVG 1.1//EN"
 "http://www.w3.org/Graphics/SVG/1.1/DTD/svg11.dtd">
<!-- Generated by graphviz version 2.43.0 (0)
 -->
<!-- Title: satcheck_minisat1_prooft Pages: 1 -->
<svg width="401pt" height="508pt"
 viewBox="0.00 0.00 401.00 508.00" xmlns="http://www.w3.org/2000/svg" xmlns:xlink="http://www.w3.org/1999/xlink">
<g id="graph0" class="graph" transform="scale(1 1) rotate(0) translate(4 504)">
<title>satcheck_minisat1_prooft</title>
<!-- Node1 -->
<g id="node1" class="node">
<title>Node1</title>
<g id="a_node1"><a xlink:title=" ">
<polygon fill="#bfbfbf" stroke="black" points="97.5,-0.5 97.5,-19.5 239.5,-19.5 239.5,-0.5 97.5,-0.5"/>
<text text-anchor="middle" x="168.5" y="-7.5" font-family="Helvetica,sans-Serif" font-size="10.00">satcheck_minisat1_prooft</text>
</a>
</g>
</g>
<!-- Node2 -->
<g id="node2" class="node">
<title>Node2</title>
<g id="a_node2"><a xlink:href="classsatcheck__minisat1t.html" target="_top" xlink:title=" ">
<polygon fill="none" stroke="black" points="54.5,-67.5 54.5,-86.5 166.5,-86.5 166.5,-67.5 54.5,-67.5"/>
<text text-anchor="middle" x="110.5" y="-74.5" font-family="Helvetica,sans-Serif" font-size="10.00">satcheck_minisat1t</text>
</a>
</g>
</g>
<!-- Node2&#45;&gt;Node1 -->
<g id="edge1" class="edge">
<title>Node2&#45;&gt;Node1</title>
<path fill="none" stroke="midnightblue" d="M125.1,-59.63C136.45,-46.92 151.73,-29.8 160.8,-19.63"/>
<polygon fill="midnightblue" stroke="midnightblue" points="122.37,-57.44 118.32,-67.23 127.59,-62.1 122.37,-57.44"/>
</g>
<!-- Node3 -->
<g id="node3" class="node">
<title>Node3</title>
<g id="a_node3"><a xlink:href="classsatcheck__minisat1__baset.html" target="_top" xlink:title=" ">
<polygon fill="none" stroke="black" points="22.5,-140 22.5,-159 162.5,-159 162.5,-140 22.5,-140"/>
<text text-anchor="middle" x="92.5" y="-147" font-family="Helvetica,sans-Serif" font-size="10.00">satcheck_minisat1_baset</text>
</a>
</g>
</g>
<!-- Node3&#45;&gt;Node2 -->
<g id="edge2" class="edge">
<title>Node3&#45;&gt;Node2</title>
<path fill="none" stroke="midnightblue" d="M97.26,-129.86C100.82,-115.9 105.54,-97.43 108.27,-86.72"/>
<polygon fill="midnightblue" stroke="midnightblue" points="93.79,-129.3 94.71,-139.86 100.57,-131.03 93.79,-129.3"/>
</g>
<!-- Node4 -->
<g id="node4" class="node">
<title>Node4</title>
<g id="a_node4"><a xlink:href="classcnf__solvert.html" target="_top" xlink:title=" ">
<polygon fill="none" stroke="black" points="55,-212.5 55,-231.5 126,-231.5 126,-212.5 55,-212.5"/>
<text text-anchor="middle" x="90.5" y="-219.5" font-family="Helvetica,sans-Serif" font-size="10.00">cnf_solvert</text>
</a>
</g>
</g>
<!-- Node4&#45;&gt;Node3 -->
<g id="edge3" class="edge">
<title>Node4&#45;&gt;Node3</title>
<path fill="none" stroke="midnightblue" d="M91.03,-202.36C91.42,-188.4 91.95,-169.93 92.25,-159.22"/>
<polygon fill="midnightblue" stroke="midnightblue" points="87.53,-202.26 90.75,-212.36 94.53,-202.46 87.53,-202.26"/>
</g>
<!-- Node5 -->
<g id="node5" class="node">
<title>Node5</title>
<g id="a_node5"><a xlink:href="classcnft.html" target="_top" xlink:title=" ">
<polygon fill="none" stroke="black" points="73,-279.5 73,-298.5 108,-298.5 108,-279.5 73,-279.5"/>
<text text-anchor="middle" x="90.5" y="-286.5" font-family="Helvetica,sans-Serif" font-size="10.00">cnft</text>
</a>
</g>
</g>
<!-- Node5&#45;&gt;Node4 -->
<g id="edge4" class="edge">
<title>Node5&#45;&gt;Node4</title>
<path fill="none" stroke="midnightblue" d="M90.5,-269.04C90.5,-256.67 90.5,-241.12 90.5,-231.63"/>
<polygon fill="midnightblue" stroke="midnightblue" points="87,-269.23 90.5,-279.23 94,-269.23 87,-269.23"/>
</g>
<!-- Node6 -->
<g id="node6" class="node">
<title>Node6</title>
<g id="a_node6"><a xlink:href="classpropt.html" target="_top" xlink:title="TO_BE_DOCUMENTED.">
<polygon fill="none" stroke="black" points="68.5,-346.5 68.5,-365.5 110.5,-365.5 110.5,-346.5 68.5,-346.5"/>
<text text-anchor="middle" x="89.5" y="-353.5" font-family="Helvetica,sans-Serif" font-size="10.00">propt</text>
</a>
</g>
</g>
<!-- Node6&#45;&gt;Node5 -->
<g id="edge5" class="edge">
<title>Node6&#45;&gt;Node5</title>
<path fill="none" stroke="midnightblue" d="M89.79,-336.04C89.98,-323.67 90.22,-308.12 90.37,-298.63"/>
<polygon fill="midnightblue" stroke="midnightblue" points="86.29,-336.18 89.63,-346.23 93.29,-336.29 86.29,-336.18"/>
</g>
<!-- Node7 -->
<g id="node7" class="node">
<title>Node7</title>
<g id="a_node7"><a xlink:href="classmessaget.html" target="_top" xlink:title="Class that provides messages with a built&#45;in verbosity &#39;level&#39;.">
<polygon fill="none" stroke="red" points="0,-413.5 0,-432.5 65,-432.5 65,-413.5 0,-413.5"/>
<text text-anchor="middle" x="32.5" y="-420.5" font-family="Helvetica,sans-Serif" font-size="10.00">messaget</text>
</a>
</g>
</g>
<!-- Node7&#45;&gt;Node6 -->
<g id="edge6" class="edge">
<title>Node7&#45;&gt;Node6</title>
<path fill="none" stroke="#9a32cd" stroke-dasharray="5,2" d="M45.99,-405.64C51.64,-398.88 58.32,-391 64.5,-384 69.91,-377.87 76.16,-371.12 81.06,-365.9"/>
<polygon fill="#9a32cd" stroke="#9a32cd" points="43.2,-403.52 39.5,-413.45 48.59,-407.99 43.2,-403.52"/>
<text text-anchor="middle" x="74" y="-387" font-family="Helvetica,sans-Serif" font-size="10.00"> log</text>
</g>
<!-- Node28 -->
<g id="node8" class="node">
<title>Node28</title>
<g id="a_node8"><a xlink:title=" ">
<polygon fill="none" stroke="#bfbfbf" points="83,-413.5 83,-432.5 206,-432.5 206,-413.5 83,-413.5"/>
<text text-anchor="middle" x="144.5" y="-420.5" font-family="Helvetica,sans-Serif" font-size="10.00">std::vector&lt; literalt &gt;</text>
</a>
</g>
</g>
<!-- Node28&#45;&gt;Node6 -->
<g id="edge7" class="edge">
<title>Node28&#45;&gt;Node6</title>
<path fill="none" stroke="#9a32cd" stroke-dasharray="5,2" d="M104.75,-408.6C99.12,-405.04 94.05,-400.57 90.5,-395 84.9,-386.2 85.83,-373.79 87.37,-365.58"/>
<polygon fill="#9a32cd" stroke="#9a32cd" points="103.45,-411.87 113.92,-413.49 106.74,-405.7 103.45,-411.87"/>
<text text-anchor="middle" x="110" y="-387" font-family="Helvetica,sans-Serif" font-size="10.00"> lcnf_bv</text>
</g>
<!-- Node35 -->
<g id="node15" class="node">
<title>Node35</title>
<g id="a_node15"><a xlink:href="classclauset.html" target="_top" xlink:title=" ">
<polygon fill="none" stroke="black" points="262.5,-346.5 262.5,-365.5 314.5,-365.5 314.5,-346.5 262.5,-346.5"/>
<text text-anchor="middle" x="288.5" y="-353.5" font-family="Helvetica,sans-Serif" font-size="10.00">clauset</text>
</a>
</g>
</g>
<!-- Node28&#45;&gt;Node35 -->
<g id="edge17" class="edge">
<title>Node28&#45;&gt;Node35</title>
<path fill="none" stroke="#9a32cd" stroke-dasharray="5,2" d="M144.28,-403.39C145.16,-396.45 147.4,-389.04 152.5,-384 167.69,-368.98 227.2,-361.81 262.26,-358.82"/>
<polygon fill="#9a32cd" stroke="#9a32cd" points="140.78,-403.34 143.8,-413.5 147.77,-403.67 140.78,-403.34"/>
<text text-anchor="middle" x="182.5" y="-387" font-family="Helvetica,sans-Serif" font-size="10.00"> root_clause</text>
</g>
<!-- Node10 -->
<g id="node9" class="node">
<title>Node10</title>
<g id="a_node9"><a xlink:title=" ">
<polygon fill="none" stroke="#bfbfbf" points="186,-480.5 186,-499.5 283,-499.5 283,-480.5 186,-480.5"/>
<text text-anchor="middle" x="234.5" y="-487.5" font-family="Helvetica,sans-Serif" font-size="10.00">std::vector&lt; T &gt;</text>
</a>
</g>
</g>
<!-- Node10&#45;&gt;Node28 -->
<g id="edge8" class="edge">
<title>Node10&#45;&gt;Node28</title>
<path fill="none" stroke="orange" stroke-dasharray="5,2" d="M186.24,-476.81C177.64,-473.08 169.28,-468.24 162.5,-462 153.9,-454.09 149.02,-441.23 146.57,-432.69"/>
<polygon fill="orange" stroke="orange" points="185,-480.09 195.59,-480.45 187.54,-473.57 185,-480.09"/>
<text text-anchor="middle" x="191.5" y="-454" font-family="Helvetica,sans-Serif" font-size="10.00"> &lt; literalt &gt;</text>
</g>
<!-- Node34 -->
<g id="node14" class="node">
<title>Node34</title>
<g id="a_node14"><a xlink:title=" ">
<polygon fill="none" stroke="#bfbfbf" points="171.5,-279.5 171.5,-298.5 297.5,-298.5 297.5,-279.5 171.5,-279.5"/>
<text text-anchor="middle" x="234.5" y="-286.5" font-family="Helvetica,sans-Serif" font-size="10.00">std::vector&lt; clauset &gt;</text>
</a>
</g>
</g>
<!-- Node10&#45;&gt;Node34 -->
<g id="edge18" class="edge">
<title>Node10&#45;&gt;Node34</title>
<path fill="none" stroke="orange" stroke-dasharray="5,2" d="M234.5,-470.3C234.5,-428.51 234.5,-328.83 234.5,-298.74"/>
<polygon fill="orange" stroke="orange" points="231,-470.45 234.5,-480.45 238,-470.45 231,-470.45"/>
<text text-anchor="middle" x="265" y="-387" font-family="Helvetica,sans-Serif" font-size="10.00"> &lt; clauset &gt;</text>
</g>
<!-- Node36 -->
<g id="node16" class="node">
<title>Node36</title>
<g id="a_node16"><a xlink:title=" ">
<polygon fill="none" stroke="#bfbfbf" points="262.5,-413.5 262.5,-432.5 378.5,-432.5 378.5,-413.5 262.5,-413.5"/>
<text text-anchor="middle" x="320.5" y="-420.5" font-family="Helvetica,sans-Serif" font-size="10.00">std::vector&lt; stept &gt;</text>
</a>
</g>
</g>
<!-- Node10&#45;&gt;Node36 -->
<g id="edge16" class="edge">
<title>Node10&#45;&gt;Node36</title>
<path fill="none" stroke="orange" stroke-dasharray="5,2" d="M254.26,-474.07C271.23,-461.24 295.12,-443.19 309.09,-432.63"/>
<polygon fill="orange" stroke="orange" points="251.97,-471.41 246.1,-480.23 256.19,-477 251.97,-471.41"/>
<text text-anchor="middle" x="309" y="-454" font-family="Helvetica,sans-Serif" font-size="10.00"> &lt; stept &gt;</text>
</g>
<!-- Node30 -->
<g id="node10" class="node">
<title>Node30</title>
<g id="a_node10"><a xlink:href="classminisat__prooft.html" target="_top" xlink:title=" ">
<polygon fill="none" stroke="black" points="191,-67.5 191,-86.5 278,-86.5 278,-67.5 191,-67.5"/>
<text text-anchor="middle" x="234.5" y="-74.5" font-family="Helvetica,sans-Serif" font-size="10.00">minisat_prooft</text>
</a>
</g>
</g>
<!-- Node30&#45;&gt;Node1 -->
<g id="edge9" class="edge">
<title>Node30&#45;&gt;Node1</title>
<path fill="none" stroke="#9a32cd" stroke-dasharray="5,2" d="M218.25,-60C205.31,-47.25 187.69,-29.89 177.26,-19.63"/>
<polygon fill="#9a32cd" stroke="#9a32cd" points="216.02,-62.71 225.6,-67.23 220.93,-57.72 216.02,-62.71"/>
<text text-anchor="middle" x="241" y="-41" font-family="Helvetica,sans-Serif" font-size="10.00"> minisat_proof</text>
</g>
<!-- Node31 -->
<g id="node11" class="node">
<title>Node31</title>
<g id="a_node11"><a xlink:title=" ">
<polygon fill="none" stroke="#bfbfbf" points="306,-140 306,-159 393,-159 393,-140 306,-140"/>
<text text-anchor="middle" x="349.5" y="-147" font-family="Helvetica,sans-Serif" font-size="10.00">ProofTraverser</text>
</a>
</g>
</g>
<!-- Node31&#45;&gt;Node30 -->
<g id="edge10" class="edge">
<title>Node31&#45;&gt;Node30</title>
<path fill="none" stroke="midnightblue" d="M341.69,-130.69C337,-121.83 330.23,-111.63 321.5,-105 308.91,-95.43 292.88,-89.22 278.02,-85.2"/>
<polygon fill="midnightblue" stroke="midnightblue" points="338.62,-132.36 346.11,-139.85 344.92,-129.32 338.62,-132.36"/>
</g>
<!-- Node32 -->
<g id="node12" class="node">
<title>Node32</title>
<g id="a_node12"><a xlink:href="classresolution__prooft.html" target="_top" xlink:title=" ">
<polygon fill="none" stroke="black" points="181,-134.5 181,-164.5 288,-164.5 288,-134.5 181,-134.5"/>
<text text-anchor="start" x="189" y="-152.5" font-family="Helvetica,sans-Serif" font-size="10.00">resolution_prooft&lt;</text>
<text text-anchor="middle" x="234.5" y="-141.5" font-family="Helvetica,sans-Serif" font-size="10.00"> clauset &gt;</text>
</a>
</g>
</g>
<!-- Node32&#45;&gt;Node30 -->
<g id="edge11" class="edge">
<title>Node32&#45;&gt;Node30</title>
<path fill="none" stroke="#9a32cd" stroke-dasharray="5,2" d="M234.5,-124.09C234.5,-111.21 234.5,-96.2 234.5,-86.89"/>
<polygon fill="#9a32cd" stroke="#9a32cd" points="231,-124.23 234.5,-134.23 238,-124.23 231,-124.23"/>
<text text-anchor="middle" x="276" y="-108" font-family="Helvetica,sans-Serif" font-size="10.00"> resolution_proof</text>
</g>
<!-- Node33 -->
<g id="node13" class="node">
<title>Node33</title>
<g id="a_node13"><a xlink:href="classresolution__prooft.html" target="_top" xlink:title=" ">
<polygon fill="none" stroke="black" points="170.5,-212.5 170.5,-231.5 298.5,-231.5 298.5,-212.5 170.5,-212.5"/>
<text text-anchor="middle" x="234.5" y="-219.5" font-family="Helvetica,sans-Serif" font-size="10.00">resolution_prooft&lt; T &gt;</text>
</a>
</g>
</g>
<!-- Node33&#45;&gt;Node32 -->
<g id="edge12" class="edge">
<title>Node33&#45;&gt;Node32</title>
<path fill="none" stroke="orange" stroke-dasharray="5,2" d="M234.5,-202.24C234.5,-190.41 234.5,-175.38 234.5,-164.58"/>
<polygon fill="orange" stroke="orange" points="231,-202.36 234.5,-212.36 238,-202.36 231,-202.36"/>
<text text-anchor="middle" x="265" y="-186" font-family="Helvetica,sans-Serif" font-size="10.00"> &lt; clauset &gt;</text>
</g>
<!-- Node34&#45;&gt;Node33 -->
<g id="edge13" class="edge">
<title>Node34&#45;&gt;Node33</title>
<path fill="none" stroke="#9a32cd" stroke-dasharray="5,2" d="M234.5,-269.04C234.5,-256.67 234.5,-241.12 234.5,-231.63"/>
<polygon fill="#9a32cd" stroke="#9a32cd" points="231,-269.23 234.5,-279.23 238,-269.23 231,-269.23"/>
<text text-anchor="middle" x="254.5" y="-253" font-family="Helvetica,sans-Serif" font-size="10.00"> clauses</text>
</g>
<!-- Node35&#45;&gt;Node34 -->
<g id="edge14" class="edge">
<title>Node35&#45;&gt;Node34</title>
<path fill="none" stroke="#9a32cd" stroke-dasharray="5,2" d="M274.6,-338.27C264.07,-325.6 250.04,-308.7 241.67,-298.63"/>
<polygon fill="#9a32cd" stroke="#9a32cd" points="272.13,-340.78 281.22,-346.23 277.52,-336.31 272.13,-340.78"/>
<text text-anchor="middle" x="290" y="-320" font-family="Helvetica,sans-Serif" font-size="10.00"> elements</text>
</g>
<!-- Node36&#45;&gt;Node35 -->
<g id="edge15" class="edge">
<title>Node36&#45;&gt;Node35</title>
<path fill="none" stroke="#9a32cd" stroke-dasharray="5,2" d="M311.72,-404.16C305.55,-391.63 297.56,-375.41 292.75,-365.63"/>
<polygon fill="#9a32cd" stroke="#9a32cd" points="308.63,-405.81 316.18,-413.23 314.91,-402.72 308.63,-405.81"/>
<text text-anchor="middle" x="321.5" y="-387" font-family="Helvetica,sans-Serif" font-size="10.00"> steps</text>
</g>
</g>
</svg>
