<?xml version="1.0" encoding="UTF-8" standalone="no"?>
<!DOCTYPE svg PUBLIC "-//W3C//DTD SVG 1.1//EN"
 "http://www.w3.org/Graphics/SVG/1.1/DTD/svg11.dtd">
<!-- Generated by graphviz version 2.43.0 (0)
 -->
<!-- Title: shared_bufferst::cfg_visitort Pages: 1 -->
<svg width="1806pt" height="798pt"
 viewBox="0.00 0.00 1806.00 798.00" xmlns="http://www.w3.org/2000/svg" xmlns:xlink="http://www.w3.org/1999/xlink">
<g id="graph0" class="graph" transform="scale(1 1) rotate(0) translate(4 794)">
<title>shared_bufferst::cfg_visitort</title>
<!-- Node1 -->
<g id="node1" class="node">
<title>Node1</title>
<g id="a_node1"><a xlink:title=" ">
<polygon fill="#bfbfbf" stroke="black" points="1685,-534.5 1685,-564.5 1798,-564.5 1798,-534.5 1685,-534.5"/>
<text text-anchor="start" x="1693" y="-552.5" font-family="Helvetica,sans-Serif" font-size="10.00">shared_bufferst::cfg</text>
<text text-anchor="middle" x="1741.5" y="-541.5" font-family="Helvetica,sans-Serif" font-size="10.00">_visitort</text>
</a>
</g>
</g>
<!-- Node2 -->
<g id="node2" class="node">
<title>Node2</title>
<g id="a_node2"><a xlink:href="classsymbol__table__baset.html" target="_top" xlink:title="The symbol table base class interface.">
<polygon fill="none" stroke="black" points="1202,-622 1202,-641 1317,-641 1317,-622 1202,-622"/>
<text text-anchor="middle" x="1259.5" y="-629" font-family="Helvetica,sans-Serif" font-size="10.00">symbol_table_baset</text>
</a>
</g>
</g>
<!-- Node2&#45;&gt;Node1 -->
<g id="edge1" class="edge">
<title>Node2&#45;&gt;Node1</title>
<path fill="none" stroke="#9a32cd" stroke-dasharray="5,2" d="M1327.13,-628.19C1408.56,-622.9 1549.97,-609.6 1667,-577.5 1679.64,-574.03 1693.14,-569.23 1705.07,-564.58"/>
<polygon fill="#9a32cd" stroke="#9a32cd" points="1326.77,-624.71 1317.01,-628.83 1327.21,-631.7 1326.77,-624.71"/>
<text text-anchor="middle" x="1513.5" y="-618.5" font-family="Helvetica,sans-Serif" font-size="10.00"> symbol_table</text>
</g>
<!-- Node29 -->
<g id="node20" class="node">
<title>Node29</title>
<g id="a_node20"><a xlink:href="classshared__bufferst.html" target="_top" xlink:title=" ">
<polygon fill="none" stroke="black" points="1467.5,-434 1467.5,-453 1559.5,-453 1559.5,-434 1467.5,-434"/>
<text text-anchor="middle" x="1513.5" y="-441" font-family="Helvetica,sans-Serif" font-size="10.00">shared_bufferst</text>
</a>
</g>
</g>
<!-- Node2&#45;&gt;Node29 -->
<g id="edge42" class="edge">
<title>Node2&#45;&gt;Node29</title>
<path fill="none" stroke="#9a32cd" stroke-dasharray="5,2" d="M1301.92,-619.08C1315.89,-614.97 1331.6,-610.44 1346,-606.5 1385.82,-595.59 1406.98,-612.86 1436,-583.5 1459.79,-559.43 1438.31,-539.49 1454,-509.5 1466.06,-486.43 1487.9,-464.9 1501.21,-453.03"/>
<polygon fill="#9a32cd" stroke="#9a32cd" points="1300.7,-615.79 1292.1,-621.98 1302.68,-622.5 1300.7,-615.79"/>
<text text-anchor="middle" x="1391" y="-609.5" font-family="Helvetica,sans-Serif" font-size="10.00"> symbol_table</text>
</g>
<!-- Node3 -->
<g id="node3" class="node">
<title>Node3</title>
<g id="a_node3"><a xlink:title="STL class.">
<polygon fill="none" stroke="#bfbfbf" points="884.5,-600 884.5,-619 1010.5,-619 1010.5,-600 884.5,-600"/>
<text text-anchor="middle" x="947.5" y="-607" font-family="Helvetica,sans-Serif" font-size="10.00">std::multimap&lt; K, T &gt;</text>
</a>
</g>
</g>
<!-- Node3&#45;&gt;Node2 -->
<g id="edge2" class="edge">
<title>Node3&#45;&gt;Node2</title>
<path fill="none" stroke="#9a32cd" stroke-dasharray="5,2" d="M1020.93,-614.64C1076.16,-618.56 1151.13,-623.88 1201.98,-627.49"/>
<polygon fill="#9a32cd" stroke="#9a32cd" points="1021.08,-611.14 1010.86,-613.93 1020.59,-618.12 1021.08,-611.14"/>
<text text-anchor="middle" x="1103.5" y="-638.5" font-family="Helvetica,sans-Serif" font-size="10.00"> symbol_base_map</text>
<text text-anchor="middle" x="1103.5" y="-627.5" font-family="Helvetica,sans-Serif" font-size="10.00">symbol_module_map</text>
</g>
<!-- Node42 -->
<g id="node32" class="node">
<title>Node42</title>
<g id="a_node32"><a xlink:title=" ">
<polygon fill="none" stroke="#bfbfbf" points="1191,-402.5 1191,-432.5 1328,-432.5 1328,-402.5 1191,-402.5"/>
<text text-anchor="start" x="1199" y="-420.5" font-family="Helvetica,sans-Serif" font-size="10.00">std::multimap&lt; dstringt,</text>
<text text-anchor="middle" x="1259.5" y="-409.5" font-family="Helvetica,sans-Serif" font-size="10.00"> source_locationt &gt;</text>
</a>
</g>
</g>
<!-- Node3&#45;&gt;Node42 -->
<g id="edge46" class="edge">
<title>Node3&#45;&gt;Node42</title>
<path fill="none" stroke="orange" stroke-dasharray="5,2" d="M987.41,-595.47C998.13,-589.85 1008.78,-582.33 1016,-572.5 1040.14,-539.62 1006.4,-512.54 1034,-482.5 1039.83,-476.16 1136.63,-449.65 1201.21,-432.5"/>
<polygon fill="orange" stroke="orange" points="985.59,-592.46 978.06,-599.92 988.59,-598.78 985.59,-592.46"/>
<text text-anchor="start" x="1058" y="-496.5" font-family="Helvetica,sans-Serif" font-size="10.00"> &lt; dstringt, source</text>
<text text-anchor="middle" x="1103.5" y="-485.5" font-family="Helvetica,sans-Serif" font-size="10.00">_locationt &gt;</text>
</g>
<!-- Node4 -->
<g id="node4" class="node">
<title>Node4</title>
<g id="a_node4"><a xlink:title=" ">
<polygon fill="none" stroke="#bfbfbf" points="649.5,-528 649.5,-547 678.5,-547 678.5,-528 649.5,-528"/>
<text text-anchor="middle" x="664" y="-535" font-family="Helvetica,sans-Serif" font-size="10.00">K</text>
</a>
</g>
</g>
<!-- Node4&#45;&gt;Node3 -->
<g id="edge3" class="edge">
<title>Node4&#45;&gt;Node3</title>
<path fill="none" stroke="#9a32cd" stroke-dasharray="5,2" d="M688.59,-541.01C733.34,-547.79 828.97,-562.85 861,-572.5 884.85,-579.68 910.95,-591.61 927.95,-599.98"/>
<polygon fill="#9a32cd" stroke="#9a32cd" points="689.03,-537.54 678.62,-539.51 687.99,-544.46 689.03,-537.54"/>
<text text-anchor="middle" x="806.5" y="-575.5" font-family="Helvetica,sans-Serif" font-size="10.00"> keys</text>
</g>
<!-- Node6 -->
<g id="node6" class="node">
<title>Node6</title>
<g id="a_node6"><a xlink:title="STL class.">
<polygon fill="none" stroke="#bfbfbf" points="890.5,-759.5 890.5,-789.5 1004.5,-789.5 1004.5,-759.5 890.5,-759.5"/>
<text text-anchor="start" x="898.5" y="-777.5" font-family="Helvetica,sans-Serif" font-size="10.00">std::unordered_map</text>
<text text-anchor="middle" x="947.5" y="-766.5" font-family="Helvetica,sans-Serif" font-size="10.00">&lt; K, T &gt;</text>
</a>
</g>
</g>
<!-- Node4&#45;&gt;Node6 -->
<g id="edge6" class="edge">
<title>Node4&#45;&gt;Node6</title>
<path fill="none" stroke="#9a32cd" stroke-dasharray="5,2" d="M688.69,-539.82C702.92,-542.18 720.76,-546.93 734,-556.5 745.69,-564.95 740.02,-575.46 752,-583.5 793.04,-611.04 825.57,-571.04 861,-605.5 886.5,-630.31 864.09,-651.2 879,-683.5 892.6,-712.97 916.71,-742.25 932.13,-759.35"/>
<polygon fill="#9a32cd" stroke="#9a32cd" points="689.04,-536.34 678.66,-538.44 688.09,-543.27 689.04,-536.34"/>
<text text-anchor="middle" x="806.5" y="-608.5" font-family="Helvetica,sans-Serif" font-size="10.00"> keys</text>
</g>
<!-- Node9 -->
<g id="node9" class="node">
<title>Node9</title>
<g id="a_node9"><a xlink:title="STL class.">
<polygon fill="none" stroke="#bfbfbf" points="906.5,-544 906.5,-563 988.5,-563 988.5,-544 906.5,-544"/>
<text text-anchor="middle" x="947.5" y="-551" font-family="Helvetica,sans-Serif" font-size="10.00">std::set&lt; K &gt;</text>
</a>
</g>
</g>
<!-- Node4&#45;&gt;Node9 -->
<g id="edge11" class="edge">
<title>Node4&#45;&gt;Node9</title>
<path fill="none" stroke="#9a32cd" stroke-dasharray="5,2" d="M689.11,-536.32C726.15,-534.8 799.26,-532.97 861,-538.5 875.86,-539.83 892.01,-542.38 906.24,-545"/>
<polygon fill="#9a32cd" stroke="#9a32cd" points="688.66,-532.84 678.82,-536.77 688.96,-539.83 688.66,-532.84"/>
<text text-anchor="middle" x="806.5" y="-541.5" font-family="Helvetica,sans-Serif" font-size="10.00"> keys</text>
</g>
<!-- Node28 -->
<g id="node19" class="node">
<title>Node28</title>
<g id="a_node19"><a xlink:title="STL class.">
<polygon fill="none" stroke="#bfbfbf" points="897,-489 897,-508 998,-508 998,-489 897,-489"/>
<text text-anchor="middle" x="947.5" y="-496" font-family="Helvetica,sans-Serif" font-size="10.00">std::map&lt; K, T &gt;</text>
</a>
</g>
</g>
<!-- Node4&#45;&gt;Node28 -->
<g id="edge26" class="edge">
<title>Node4&#45;&gt;Node28</title>
<path fill="none" stroke="#9a32cd" stroke-dasharray="5,2" d="M688.66,-531.96C706.1,-528.04 730.42,-522.89 752,-519.5 800.99,-511.81 857.36,-506.06 896.76,-502.54"/>
<polygon fill="#9a32cd" stroke="#9a32cd" points="687.76,-528.58 678.79,-534.22 689.32,-535.4 687.76,-528.58"/>
<text text-anchor="middle" x="806.5" y="-522.5" font-family="Helvetica,sans-Serif" font-size="10.00"> keys</text>
</g>
<!-- Node5 -->
<g id="node5" class="node">
<title>Node5</title>
<g id="a_node5"><a xlink:title=" ">
<polygon fill="none" stroke="#bfbfbf" points="0,-622 0,-641 29,-641 29,-622 0,-622"/>
<text text-anchor="middle" x="14.5" y="-629" font-family="Helvetica,sans-Serif" font-size="10.00">T</text>
</a>
</g>
</g>
<!-- Node5&#45;&gt;Node3 -->
<g id="edge4" class="edge">
<title>Node5&#45;&gt;Node3</title>
<path fill="none" stroke="#9a32cd" stroke-dasharray="5,2" d="M39.56,-631.5C70.36,-631.5 125.41,-631.5 172.5,-631.5 172.5,-631.5 172.5,-631.5 665,-631.5 740.61,-631.5 827.31,-623.51 884.28,-617.16"/>
<polygon fill="#9a32cd" stroke="#9a32cd" points="39.36,-628 29.36,-631.5 39.36,-635 39.36,-628"/>
<text text-anchor="middle" x="416.5" y="-634.5" font-family="Helvetica,sans-Serif" font-size="10.00"> elements</text>
</g>
<!-- Node5&#45;&gt;Node6 -->
<g id="edge7" class="edge">
<title>Node5&#45;&gt;Node6</title>
<path fill="none" stroke="#9a32cd" stroke-dasharray="5,2" d="M25.02,-650.44C45.96,-689.1 99.97,-773.5 172.5,-773.5 172.5,-773.5 172.5,-773.5 665,-773.5 743.19,-773.5 833.61,-773.89 890.42,-774.18"/>
<polygon fill="#9a32cd" stroke="#9a32cd" points="27.95,-648.49 20.21,-641.26 21.75,-651.74 27.95,-648.49"/>
<text text-anchor="middle" x="416.5" y="-776.5" font-family="Helvetica,sans-Serif" font-size="10.00"> elements</text>
</g>
<!-- Node14 -->
<g id="node14" class="node">
<title>Node14</title>
<g id="a_node14"><a xlink:title="STL class.">
<polygon fill="none" stroke="#bfbfbf" points="368,-239 368,-258 465,-258 465,-239 368,-239"/>
<text text-anchor="middle" x="416.5" y="-246" font-family="Helvetica,sans-Serif" font-size="10.00">std::vector&lt; T &gt;</text>
</a>
</g>
</g>
<!-- Node5&#45;&gt;Node14 -->
<g id="edge18" class="edge">
<title>Node5&#45;&gt;Node14</title>
<path fill="none" stroke="#9a32cd" stroke-dasharray="5,2" d="M15.33,-611.75C16.02,-582.5 21.01,-527.09 47,-489.5 136.12,-360.6 318.81,-283.6 388.06,-258.04"/>
<polygon fill="#9a32cd" stroke="#9a32cd" points="11.83,-611.88 15.25,-621.91 18.83,-611.94 11.83,-611.88"/>
<text text-anchor="middle" x="173.5" y="-413.5" font-family="Helvetica,sans-Serif" font-size="10.00"> elements</text>
</g>
<!-- Node27 -->
<g id="node18" class="node">
<title>Node27</title>
<g id="a_node18"><a xlink:title="STL class.">
<polygon fill="none" stroke="#bfbfbf" points="133,-660 133,-679 214,-679 214,-660 133,-660"/>
<text text-anchor="middle" x="173.5" y="-667" font-family="Helvetica,sans-Serif" font-size="10.00">std::list&lt; T &gt;</text>
</a>
</g>
</g>
<!-- Node5&#45;&gt;Node27 -->
<g id="edge23" class="edge">
<title>Node5&#45;&gt;Node27</title>
<path fill="none" stroke="#9a32cd" stroke-dasharray="5,2" d="M38.37,-642.39C41.24,-643.54 44.16,-644.61 47,-645.5 75.15,-654.32 107.93,-660.45 132.92,-664.31"/>
<polygon fill="#9a32cd" stroke="#9a32cd" points="39.6,-639.11 29.04,-638.33 36.81,-645.53 39.6,-639.11"/>
<text text-anchor="middle" x="71.5" y="-659.5" font-family="Helvetica,sans-Serif" font-size="10.00"> elements</text>
</g>
<!-- Node5&#45;&gt;Node28 -->
<g id="edge27" class="edge">
<title>Node5&#45;&gt;Node28</title>
<path fill="none" stroke="#9a32cd" stroke-dasharray="5,2" d="M39.3,-625.26C130.68,-601.74 468.06,-518.93 752,-501.5 801.21,-498.48 857.56,-497.93 896.89,-498.01"/>
<polygon fill="#9a32cd" stroke="#9a32cd" points="38.2,-621.93 29.4,-627.83 39.96,-628.71 38.2,-621.93"/>
<text text-anchor="middle" x="416.5" y="-557.5" font-family="Helvetica,sans-Serif" font-size="10.00"> elements</text>
</g>
<!-- Node6&#45;&gt;Node2 -->
<g id="edge5" class="edge">
<title>Node6&#45;&gt;Node2</title>
<path fill="none" stroke="#9a32cd" stroke-dasharray="5,2" d="M1015.04,-778.69C1062.15,-778.67 1125.21,-772.37 1173,-744.5 1215.93,-719.47 1244.34,-663.58 1254.42,-641.12"/>
<polygon fill="#9a32cd" stroke="#9a32cd" points="1014.97,-775.19 1004.93,-778.6 1014.9,-782.19 1014.97,-775.19"/>
<text text-anchor="middle" x="1103.5" y="-780.5" font-family="Helvetica,sans-Serif" font-size="10.00"> symbols</text>
</g>
<!-- Node7 -->
<g id="node7" class="node">
<title>Node7</title>
<g id="a_node7"><a xlink:title=" ">
<polygon fill="none" stroke="#bfbfbf" points="1203,-505 1203,-524 1316,-524 1316,-505 1203,-505"/>
<text text-anchor="middle" x="1259.5" y="-512" font-family="Helvetica,sans-Serif" font-size="10.00">std::set&lt; dstringt &gt;</text>
</a>
</g>
</g>
<!-- Node7&#45;&gt;Node1 -->
<g id="edge8" class="edge">
<title>Node7&#45;&gt;Node1</title>
<path fill="none" stroke="#9a32cd" stroke-dasharray="5,2" d="M1326.1,-519.28C1421.15,-526.21 1595.52,-538.93 1684.73,-545.43"/>
<polygon fill="#9a32cd" stroke="#9a32cd" points="1326.26,-515.79 1316.03,-518.55 1325.75,-522.77 1326.26,-515.79"/>
<text text-anchor="middle" x="1513.5" y="-539.5" font-family="Helvetica,sans-Serif" font-size="10.00"> past_writes</text>
</g>
<!-- Node7&#45;&gt;Node29 -->
<g id="edge47" class="edge">
<title>Node7&#45;&gt;Node29</title>
<path fill="none" stroke="#9a32cd" stroke-dasharray="5,2" d="M1286.04,-500.01C1302.65,-491.16 1325.05,-480.27 1346,-473.5 1385.96,-460.58 1433.23,-452.73 1467.18,-448.32"/>
<polygon fill="#9a32cd" stroke="#9a32cd" points="1284.09,-497.09 1276.98,-504.95 1287.44,-503.24 1284.09,-497.09"/>
<text text-anchor="middle" x="1391" y="-509.5" font-family="Helvetica,sans-Serif" font-size="10.00"> cycles</text>
<text text-anchor="start" x="1346" y="-498.5" font-family="Helvetica,sans-Serif" font-size="10.00">affected_by_delay</text>
<text text-anchor="middle" x="1391" y="-487.5" font-family="Helvetica,sans-Serif" font-size="10.00">_set</text>
<text text-anchor="middle" x="1391" y="-476.5" font-family="Helvetica,sans-Serif" font-size="10.00">instrumentations</text>
</g>
<!-- Node8 -->
<g id="node8" class="node">
<title>Node8</title>
<g id="a_node8"><a xlink:href="classdstringt.html" target="_top" xlink:title="dstringt has one field, an unsigned integer no which is an index into a static table of strings.">
<polygon fill="none" stroke="black" points="389.5,-410 389.5,-429 443.5,-429 443.5,-410 389.5,-410"/>
<text text-anchor="middle" x="416.5" y="-417" font-family="Helvetica,sans-Serif" font-size="10.00">dstringt</text>
</a>
</g>
</g>
<!-- Node8&#45;&gt;Node7 -->
<g id="edge9" class="edge">
<title>Node8&#45;&gt;Node7</title>
<path fill="none" stroke="#9a32cd" stroke-dasharray="5,2" d="M453.82,-424.51C468.18,-426.33 484.84,-428.25 500,-429.5 660.06,-442.73 701.76,-424.66 861,-445.5 930.93,-454.65 947.13,-464.29 1016,-479.5 1024,-481.27 1025.93,-482.05 1034,-483.5 1091.31,-493.81 1157.39,-502.56 1202.95,-508.11"/>
<polygon fill="#9a32cd" stroke="#9a32cd" points="454.2,-421.03 443.83,-423.21 453.29,-427.97 454.2,-421.03"/>
<text text-anchor="middle" x="806.5" y="-448.5" font-family="Helvetica,sans-Serif" font-size="10.00"> keys</text>
</g>
<!-- Node11 -->
<g id="node11" class="node">
<title>Node11</title>
<g id="a_node11"><a xlink:title=" ">
<polygon fill="none" stroke="#bfbfbf" points="1204.5,-564.5 1204.5,-594.5 1314.5,-594.5 1314.5,-564.5 1204.5,-564.5"/>
<text text-anchor="start" x="1212.5" y="-582.5" font-family="Helvetica,sans-Serif" font-size="10.00">std::map&lt; irep_idt,</text>
<text text-anchor="middle" x="1259.5" y="-571.5" font-family="Helvetica,sans-Serif" font-size="10.00"> goto_functiont &gt;</text>
</a>
</g>
</g>
<!-- Node8&#45;&gt;Node11 -->
<g id="edge24" class="edge">
<title>Node8&#45;&gt;Node11</title>
<path fill="none" stroke="#9a32cd" stroke-dasharray="5,2" d="M440.69,-434.95C455.26,-446.04 472.95,-462.37 482,-481.5 503.74,-527.44 463.42,-674.22 500,-709.5 554.03,-761.61 1114.06,-696.98 1173,-650.5 1187.67,-638.93 1177.87,-625.8 1191,-612.5 1198.15,-605.26 1207.21,-599.37 1216.35,-594.68"/>
<polygon fill="#9a32cd" stroke="#9a32cd" points="442.71,-432.09 432.56,-429.04 438.6,-437.75 442.71,-432.09"/>
<text text-anchor="middle" x="806.5" y="-726.5" font-family="Helvetica,sans-Serif" font-size="10.00"> keys</text>
</g>
<!-- Node13 -->
<g id="node13" class="node">
<title>Node13</title>
<g id="a_node13"><a xlink:title=" ">
<polygon fill="none" stroke="#bfbfbf" points="600,-566 600,-585 728,-585 728,-566 600,-566"/>
<text text-anchor="middle" x="664" y="-573" font-family="Helvetica,sans-Serif" font-size="10.00">std::vector&lt; irep_idt &gt;</text>
</a>
</g>
</g>
<!-- Node8&#45;&gt;Node13 -->
<g id="edge16" class="edge">
<title>Node8&#45;&gt;Node13</title>
<path fill="none" stroke="#9a32cd" stroke-dasharray="5,2" d="M434.3,-436.31C463.97,-465.08 528.69,-523.79 594,-556.5 601.55,-560.28 609.96,-563.4 618.24,-565.93"/>
<polygon fill="#9a32cd" stroke="#9a32cd" points="436.48,-433.55 426.89,-429.04 431.58,-438.54 436.48,-433.55"/>
<text text-anchor="middle" x="538" y="-547.5" font-family="Helvetica,sans-Serif" font-size="10.00"> elements</text>
</g>
<!-- Node8&#45;&gt;Node42 -->
<g id="edge44" class="edge">
<title>Node8&#45;&gt;Node42</title>
<path fill="none" stroke="#9a32cd" stroke-dasharray="5,2" d="M453.88,-418.48C549.13,-415.87 813.67,-409.06 1034,-407.5 1095.78,-407.06 1111.33,-403.91 1173,-407.5 1178.82,-407.84 1184.85,-408.31 1190.89,-408.86"/>
<polygon fill="#9a32cd" stroke="#9a32cd" points="453.54,-414.99 443.64,-418.76 453.73,-421.98 453.54,-414.99"/>
<text text-anchor="middle" x="806.5" y="-413.5" font-family="Helvetica,sans-Serif" font-size="10.00"> keys</text>
</g>
<!-- Node43 -->
<g id="node33" class="node">
<title>Node43</title>
<g id="a_node33"><a xlink:title=" ">
<polygon fill="none" stroke="#bfbfbf" points="1204.5,-353.5 1204.5,-383.5 1314.5,-383.5 1314.5,-353.5 1204.5,-353.5"/>
<text text-anchor="start" x="1212.5" y="-371.5" font-family="Helvetica,sans-Serif" font-size="10.00">std::map&lt; irep_idt,</text>
<text text-anchor="middle" x="1259.5" y="-360.5" font-family="Helvetica,sans-Serif" font-size="10.00"> varst &gt;</text>
</a>
</g>
</g>
<!-- Node8&#45;&gt;Node43 -->
<g id="edge56" class="edge">
<title>Node8&#45;&gt;Node43</title>
<path fill="none" stroke="#9a32cd" stroke-dasharray="5,2" d="M438.91,-403.97C454.88,-393.39 477.69,-380.28 500,-374.5 633.13,-339.99 1053.96,-357.8 1204.39,-365.53"/>
<polygon fill="#9a32cd" stroke="#9a32cd" points="436.63,-401.3 430.36,-409.84 440.59,-407.07 436.63,-401.3"/>
<text text-anchor="middle" x="806.5" y="-356.5" font-family="Helvetica,sans-Serif" font-size="10.00"> keys</text>
</g>
<!-- Node44 -->
<g id="node34" class="node">
<title>Node44</title>
<g id="a_node34"><a xlink:href="classshared__bufferst_1_1varst.html" target="_top" xlink:title=" ">
<polygon fill="none" stroke="black" points="886,-232 886,-251 1009,-251 1009,-232 886,-232"/>
<text text-anchor="middle" x="947.5" y="-239" font-family="Helvetica,sans-Serif" font-size="10.00">shared_bufferst::varst</text>
</a>
</g>
</g>
<!-- Node8&#45;&gt;Node44 -->
<g id="edge52" class="edge">
<title>Node8&#45;&gt;Node44</title>
<path fill="none" stroke="#9a32cd" stroke-dasharray="5,2" d="M430.86,-402C457.57,-368.55 521.29,-296.21 594,-266.5 645.25,-245.55 799.47,-241.72 885.98,-241.28"/>
<polygon fill="#9a32cd" stroke="#9a32cd" points="428.02,-399.95 424.6,-409.98 433.53,-404.27 428.02,-399.95"/>
<text text-anchor="middle" x="664" y="-346.5" font-family="Helvetica,sans-Serif" font-size="10.00"> w_buff0_used</text>
<text text-anchor="middle" x="664" y="-335.5" font-family="Helvetica,sans-Serif" font-size="10.00">w_buff0</text>
<text text-anchor="middle" x="664" y="-324.5" font-family="Helvetica,sans-Serif" font-size="10.00">w_buff1</text>
<text text-anchor="middle" x="664" y="-313.5" font-family="Helvetica,sans-Serif" font-size="10.00">flush_delayed</text>
<text text-anchor="middle" x="664" y="-302.5" font-family="Helvetica,sans-Serif" font-size="10.00">read_delayed_var</text>
<text text-anchor="middle" x="664" y="-291.5" font-family="Helvetica,sans-Serif" font-size="10.00">mem_tmp</text>
<text text-anchor="middle" x="664" y="-280.5" font-family="Helvetica,sans-Serif" font-size="10.00">read_delayed</text>
<text text-anchor="middle" x="664" y="-269.5" font-family="Helvetica,sans-Serif" font-size="10.00">w_buff1_used</text>
</g>
<!-- Node46 -->
<g id="node36" class="node">
<title>Node46</title>
<g id="a_node36"><a xlink:title=" ">
<polygon fill="none" stroke="#bfbfbf" points="600,-197 600,-216 728,-216 728,-197 600,-197"/>
<text text-anchor="middle" x="664" y="-204" font-family="Helvetica,sans-Serif" font-size="10.00">std::vector&lt; dstringt &gt;</text>
</a>
</g>
</g>
<!-- Node8&#45;&gt;Node46 -->
<g id="edge54" class="edge">
<title>Node8&#45;&gt;Node46</title>
<path fill="none" stroke="#9a32cd" stroke-dasharray="5,2" d="M425.53,-400.47C445.91,-352.25 498.14,-228.91 500,-227.5 515.54,-215.77 560.85,-210.58 599.77,-208.29"/>
<polygon fill="#9a32cd" stroke="#9a32cd" points="422.26,-399.23 421.59,-409.8 428.71,-401.95 422.26,-399.23"/>
<text text-anchor="middle" x="538" y="-230.5" font-family="Helvetica,sans-Serif" font-size="10.00"> elements</text>
</g>
<!-- Node9&#45;&gt;Node7 -->
<g id="edge10" class="edge">
<title>Node9&#45;&gt;Node7</title>
<path fill="none" stroke="orange" stroke-dasharray="5,2" d="M998.87,-554.85C1044.66,-555.18 1113.9,-553.42 1173,-542.5 1194.5,-538.53 1218.06,-530.53 1234.99,-524.09"/>
<polygon fill="orange" stroke="orange" points="998.65,-551.35 988.61,-554.74 998.57,-558.35 998.65,-551.35"/>
<text text-anchor="middle" x="1103.5" y="-557.5" font-family="Helvetica,sans-Serif" font-size="10.00"> &lt; dstringt &gt;</text>
</g>
<!-- Node10 -->
<g id="node10" class="node">
<title>Node10</title>
<g id="a_node10"><a xlink:href="classgoto__functionst.html" target="_top" xlink:title="A collection of goto functions.">
<polygon fill="none" stroke="black" points="1467.5,-561 1467.5,-580 1559.5,-580 1559.5,-561 1467.5,-561"/>
<text text-anchor="middle" x="1513.5" y="-568" font-family="Helvetica,sans-Serif" font-size="10.00">goto_functionst</text>
</a>
</g>
</g>
<!-- Node10&#45;&gt;Node1 -->
<g id="edge12" class="edge">
<title>Node10&#45;&gt;Node1</title>
<path fill="none" stroke="#9a32cd" stroke-dasharray="5,2" d="M1569.75,-565.37C1604.77,-562.11 1649.91,-557.92 1684.99,-554.66"/>
<polygon fill="#9a32cd" stroke="#9a32cd" points="1569.32,-561.89 1559.69,-566.3 1569.97,-568.86 1569.32,-561.89"/>
<text text-anchor="middle" x="1629" y="-565.5" font-family="Helvetica,sans-Serif" font-size="10.00"> goto_functions</text>
</g>
<!-- Node11&#45;&gt;Node10 -->
<g id="edge13" class="edge">
<title>Node11&#45;&gt;Node10</title>
<path fill="none" stroke="#9a32cd" stroke-dasharray="5,2" d="M1325.04,-573.73C1332.11,-573.25 1339.2,-572.82 1346,-572.5 1387,-570.58 1433.75,-570.17 1467.25,-570.19"/>
<polygon fill="#9a32cd" stroke="#9a32cd" points="1324.46,-570.27 1314.74,-574.49 1324.97,-577.25 1324.46,-570.27"/>
<text text-anchor="middle" x="1391" y="-575.5" font-family="Helvetica,sans-Serif" font-size="10.00"> function_map</text>
</g>
<!-- Node12 -->
<g id="node12" class="node">
<title>Node12</title>
<g id="a_node12"><a xlink:href="classgoto__functiont.html" target="_top" xlink:title="A goto function, consisting of function body (see body) and parameter identifiers (see parameter_iden...">
<polygon fill="none" stroke="black" points="904,-655 904,-674 991,-674 991,-655 904,-655"/>
<text text-anchor="middle" x="947.5" y="-662" font-family="Helvetica,sans-Serif" font-size="10.00">goto_functiont</text>
</a>
</g>
</g>
<!-- Node12&#45;&gt;Node11 -->
<g id="edge14" class="edge">
<title>Node12&#45;&gt;Node11</title>
<path fill="none" stroke="#9a32cd" stroke-dasharray="5,2" d="M982.54,-650.58C993.99,-644.85 1006.31,-637.43 1016,-628.5 1026.88,-618.47 1021.36,-608.19 1034,-600.5 1085.34,-569.28 1155.83,-567.95 1204.04,-571.89"/>
<polygon fill="#9a32cd" stroke="#9a32cd" points="980.74,-647.56 973.2,-655 983.73,-653.89 980.74,-647.56"/>
<text text-anchor="middle" x="1103.5" y="-603.5" font-family="Helvetica,sans-Serif" font-size="10.00"> elements</text>
</g>
<!-- Node13&#45;&gt;Node12 -->
<g id="edge15" class="edge">
<title>Node13&#45;&gt;Node12</title>
<path fill="none" stroke="#9a32cd" stroke-dasharray="5,2" d="M689.22,-590.16C706.27,-599.94 729.9,-612.43 752,-620.5 802.74,-639.01 863.86,-651.3 903.88,-658.08"/>
<polygon fill="#9a32cd" stroke="#9a32cd" points="690.88,-587.08 680.48,-585.05 687.35,-593.12 690.88,-587.08"/>
<text text-anchor="middle" x="806.5" y="-651.5" font-family="Helvetica,sans-Serif" font-size="10.00"> parameter_identifiers</text>
</g>
<!-- Node14&#45;&gt;Node13 -->
<g id="edge17" class="edge">
<title>Node14&#45;&gt;Node13</title>
<path fill="none" stroke="orange" stroke-dasharray="5,2" d="M433.04,-266.2C464.79,-303.27 537.32,-392.92 576,-480.5 590.03,-512.25 569.9,-531.52 594,-556.5 597.71,-560.35 602.12,-563.44 606.89,-565.91"/>
<polygon fill="orange" stroke="orange" points="435.42,-263.6 426.23,-258.32 430.13,-268.17 435.42,-263.6"/>
<text text-anchor="middle" x="538" y="-483.5" font-family="Helvetica,sans-Serif" font-size="10.00"> &lt; irep_idt &gt;</text>
</g>
<!-- Node32 -->
<g id="node23" class="node">
<title>Node32</title>
<g id="a_node23"><a xlink:title=" ">
<polygon fill="none" stroke="#bfbfbf" points="594,-121 594,-140 734,-140 734,-121 594,-121"/>
<text text-anchor="middle" x="664" y="-128" font-family="Helvetica,sans-Serif" font-size="10.00">std::vector&lt; std::size_t &gt;</text>
</a>
</g>
</g>
<!-- Node14&#45;&gt;Node32 -->
<g id="edge32" class="edge">
<title>Node14&#45;&gt;Node32</title>
<path fill="none" stroke="orange" stroke-dasharray="5,2" d="M431.55,-230.98C446.63,-213.34 472.2,-186.64 500,-171.5 528.83,-155.8 563.8,-145.98 593.94,-139.91"/>
<polygon fill="orange" stroke="orange" points="428.73,-228.89 425.02,-238.82 434.11,-233.37 428.73,-228.89"/>
<text text-anchor="middle" x="538" y="-174.5" font-family="Helvetica,sans-Serif" font-size="10.00"> &lt; std::size_t &gt;</text>
</g>
<!-- Node14&#45;&gt;Node46 -->
<g id="edge55" class="edge">
<title>Node14&#45;&gt;Node46</title>
<path fill="none" stroke="orange" stroke-dasharray="5,2" d="M435.45,-231.92C451.15,-218.62 475.26,-200.99 500,-193.5 543.74,-180.26 596.94,-188.81 630.39,-196.99"/>
<polygon fill="orange" stroke="orange" points="432.85,-229.54 427.64,-238.77 437.47,-234.8 432.85,-229.54"/>
<text text-anchor="middle" x="538" y="-196.5" font-family="Helvetica,sans-Serif" font-size="10.00"> &lt; dstringt &gt;</text>
</g>
<!-- Node15 -->
<g id="node15" class="node">
<title>Node15</title>
<g id="a_node15"><a xlink:href="classgoto__programt.html" target="_top" xlink:title="A generic container class for the GOTO intermediate representation of one function.">
<polygon fill="none" stroke="black" points="619.5,-685 619.5,-704 708.5,-704 708.5,-685 619.5,-685"/>
<text text-anchor="middle" x="664" y="-692" font-family="Helvetica,sans-Serif" font-size="10.00">goto_programt</text>
</a>
</g>
</g>
<!-- Node15&#45;&gt;Node12 -->
<g id="edge19" class="edge">
<title>Node15&#45;&gt;Node12</title>
<path fill="none" stroke="#9a32cd" stroke-dasharray="5,2" d="M718.84,-690.25C758.26,-686.98 813.02,-682.07 861,-676.5 875,-674.88 890.24,-672.83 903.93,-670.88"/>
<polygon fill="#9a32cd" stroke="#9a32cd" points="718.33,-686.78 708.66,-691.09 718.91,-693.76 718.33,-686.78"/>
<text text-anchor="middle" x="806.5" y="-689.5" font-family="Helvetica,sans-Serif" font-size="10.00"> body</text>
</g>
<!-- Node16 -->
<g id="node16" class="node">
<title>Node16</title>
<g id="a_node16"><a xlink:title=" ">
<polygon fill="none" stroke="#bfbfbf" points="351,-685 351,-704 482,-704 482,-685 351,-685"/>
<text text-anchor="middle" x="416.5" y="-692" font-family="Helvetica,sans-Serif" font-size="10.00">std::list&lt; instructiont &gt;</text>
</a>
</g>
</g>
<!-- Node16&#45;&gt;Node15 -->
<g id="edge20" class="edge">
<title>Node16&#45;&gt;Node15</title>
<path fill="none" stroke="#9a32cd" stroke-dasharray="5,2" d="M492.11,-694.5C533.75,-694.5 584.17,-694.5 619.41,-694.5"/>
<polygon fill="#9a32cd" stroke="#9a32cd" points="492,-691 482,-694.5 492,-698 492,-691"/>
<text text-anchor="middle" x="538" y="-697.5" font-family="Helvetica,sans-Serif" font-size="10.00"> instructions</text>
</g>
<!-- Node17 -->
<g id="node17" class="node">
<title>Node17</title>
<g id="a_node17"><a xlink:href="structstatement__list__parse__treet_1_1instructiont.html" target="_top" xlink:title="Represents a regular Statement List instruction which consists out of one or more codet tokens.">
<polygon fill="none" stroke="red" points="114,-698.5 114,-728.5 233,-728.5 233,-698.5 114,-698.5"/>
<text text-anchor="start" x="122" y="-716.5" font-family="Helvetica,sans-Serif" font-size="10.00">statement_list_parse</text>
<text text-anchor="middle" x="173.5" y="-705.5" font-family="Helvetica,sans-Serif" font-size="10.00">_treet::instructiont</text>
</a>
</g>
</g>
<!-- Node17&#45;&gt;Node16 -->
<g id="edge21" class="edge">
<title>Node17&#45;&gt;Node16</title>
<path fill="none" stroke="#9a32cd" stroke-dasharray="5,2" d="M243.38,-708.07C277.11,-705.41 317.48,-702.23 350.64,-699.61"/>
<polygon fill="#9a32cd" stroke="#9a32cd" points="242.84,-704.6 233.15,-708.88 243.39,-711.58 242.84,-704.6"/>
<text text-anchor="middle" x="292" y="-709.5" font-family="Helvetica,sans-Serif" font-size="10.00"> elements</text>
</g>
<!-- Node27&#45;&gt;Node16 -->
<g id="edge22" class="edge">
<title>Node27&#45;&gt;Node16</title>
<path fill="none" stroke="orange" stroke-dasharray="5,2" d="M224.43,-674.44C255.64,-677.55 296.67,-681.69 333,-685.5 338.73,-686.1 344.69,-686.74 350.65,-687.38"/>
<polygon fill="orange" stroke="orange" points="224.54,-670.93 214.24,-673.42 223.85,-677.9 224.54,-670.93"/>
<text text-anchor="middle" x="292" y="-688.5" font-family="Helvetica,sans-Serif" font-size="10.00"> &lt; instructiont &gt;</text>
</g>
<!-- Node28&#45;&gt;Node11 -->
<g id="edge25" class="edge">
<title>Node28&#45;&gt;Node11</title>
<path fill="none" stroke="orange" stroke-dasharray="5,2" d="M1008.08,-505.51C1069.28,-512.9 1157.7,-524.21 1173,-529.5 1196.72,-537.71 1221.2,-552.82 1237.85,-564.29"/>
<polygon fill="orange" stroke="orange" points="1008.48,-502.03 998.13,-504.31 1007.64,-508.98 1008.48,-502.03"/>
<text text-anchor="middle" x="1103.5" y="-532.5" font-family="Helvetica,sans-Serif" font-size="10.00"> &lt; irep_idt, goto_functiont &gt;</text>
</g>
<!-- Node28&#45;&gt;Node43 -->
<g id="edge57" class="edge">
<title>Node28&#45;&gt;Node43</title>
<path fill="none" stroke="orange" stroke-dasharray="5,2" d="M964.54,-481.42C980.63,-465.26 1006.87,-441.45 1034,-427.5 1063.48,-412.34 1147.77,-392.3 1204.26,-379.91"/>
<polygon fill="orange" stroke="orange" points="961.96,-479.05 957.49,-488.66 966.97,-483.94 961.96,-479.05"/>
<text text-anchor="middle" x="1103.5" y="-430.5" font-family="Helvetica,sans-Serif" font-size="10.00"> &lt; irep_idt, varst &gt;</text>
</g>
<!-- Node29&#45;&gt;Node1 -->
<g id="edge28" class="edge">
<title>Node29&#45;&gt;Node1</title>
<path fill="none" stroke="#9a32cd" stroke-dasharray="5,2" d="M1550.22,-456.65C1581.52,-468.56 1627.98,-487.14 1667,-506.5 1683.95,-514.91 1702.33,-525.66 1716.46,-534.31"/>
<polygon fill="#9a32cd" stroke="#9a32cd" points="1551.21,-453.29 1540.61,-453.03 1548.74,-459.83 1551.21,-453.29"/>
<text text-anchor="middle" x="1629" y="-509.5" font-family="Helvetica,sans-Serif" font-size="10.00"> shared_buffers</text>
</g>
<!-- Node30 -->
<g id="node21" class="node">
<title>Node30</title>
<g id="a_node21"><a xlink:href="classmessaget.html" target="_top" xlink:title="Class that provides messages with a built&#45;in verbosity &#39;level&#39;.">
<polygon fill="none" stroke="black" points="1227,-121 1227,-140 1292,-140 1292,-121 1227,-121"/>
<text text-anchor="middle" x="1259.5" y="-128" font-family="Helvetica,sans-Serif" font-size="10.00">messaget</text>
</a>
</g>
</g>
<!-- Node30&#45;&gt;Node29 -->
<g id="edge29" class="edge">
<title>Node30&#45;&gt;Node29</title>
<path fill="none" stroke="#9a32cd" stroke-dasharray="5,2" d="M1274.68,-148.11C1321.35,-206.08 1469.25,-389.78 1504.77,-433.9"/>
<polygon fill="#9a32cd" stroke="#9a32cd" points="1277.32,-145.81 1268.32,-140.21 1271.86,-150.19 1277.32,-145.81"/>
<text text-anchor="middle" x="1391" y="-344.5" font-family="Helvetica,sans-Serif" font-size="10.00"> message</text>
</g>
<!-- Node34 -->
<g id="node25" class="node">
<title>Node34</title>
<g id="a_node25"><a xlink:href="classmessaget_1_1mstreamt.html" target="_top" xlink:title=" ">
<polygon fill="none" stroke="black" points="1454,-70 1454,-89 1573,-89 1573,-70 1454,-70"/>
<text text-anchor="middle" x="1513.5" y="-77" font-family="Helvetica,sans-Serif" font-size="10.00">messaget::mstreamt</text>
</a>
</g>
</g>
<!-- Node30&#45;&gt;Node34 -->
<g id="edge38" class="edge">
<title>Node30&#45;&gt;Node34</title>
<path fill="none" stroke="#9a32cd" stroke-dasharray="5,2" d="M1287.65,-116.52C1304.1,-108.71 1325.75,-99.55 1346,-94.5 1381.2,-85.73 1421.72,-81.95 1453.98,-80.37"/>
<polygon fill="#9a32cd" stroke="#9a32cd" points="1286.07,-113.4 1278.61,-120.93 1289.13,-119.69 1286.07,-113.4"/>
<text text-anchor="middle" x="1391" y="-97.5" font-family="Helvetica,sans-Serif" font-size="10.00"> message</text>
</g>
<!-- Node31 -->
<g id="node22" class="node">
<title>Node31</title>
<g id="a_node22"><a xlink:href="classmessage__handlert.html" target="_top" xlink:title=" ">
<polygon fill="none" stroke="black" points="894,-184 894,-203 1001,-203 1001,-184 894,-184"/>
<text text-anchor="middle" x="947.5" y="-191" font-family="Helvetica,sans-Serif" font-size="10.00">message_handlert</text>
</a>
</g>
</g>
<!-- Node31&#45;&gt;Node30 -->
<g id="edge30" class="edge">
<title>Node31&#45;&gt;Node30</title>
<path fill="none" stroke="#9a32cd" stroke-dasharray="5,2" d="M996.14,-207.48C1003.56,-211.37 1010.56,-216.29 1016,-222.5 1035.47,-244.72 1010.45,-268.66 1034,-286.5 1058.62,-305.15 1146.42,-302.24 1173,-286.5 1229.07,-253.29 1250.8,-168.85 1256.7,-140.19"/>
<polygon fill="#9a32cd" stroke="#9a32cd" points="997.14,-204.09 986.59,-203.09 994.21,-210.45 997.14,-204.09"/>
<text text-anchor="middle" x="1103.5" y="-301.5" font-family="Helvetica,sans-Serif" font-size="10.00"> message_handler</text>
</g>
<!-- Node32&#45;&gt;Node31 -->
<g id="edge31" class="edge">
<title>Node32&#45;&gt;Node31</title>
<path fill="none" stroke="#9a32cd" stroke-dasharray="5,2" d="M744.4,-120.8C781.18,-119.41 824.68,-122.3 861,-137.5 871.15,-141.75 870.18,-147.93 879,-154.5 894.3,-165.9 913.22,-176.58 927.14,-183.86"/>
<polygon fill="#9a32cd" stroke="#9a32cd" points="744.04,-117.31 734.22,-121.3 744.38,-124.3 744.04,-117.31"/>
<text text-anchor="middle" x="806.5" y="-140.5" font-family="Helvetica,sans-Serif" font-size="10.00"> message_count</text>
</g>
<!-- Node33 -->
<g id="node24" class="node">
<title>Node33</title>
<g id="a_node24"><a xlink:href="classmessaget_1_1commandt.html" target="_top" xlink:title=" ">
<polygon fill="none" stroke="black" points="886,-126 886,-145 1009,-145 1009,-126 886,-126"/>
<text text-anchor="middle" x="947.5" y="-133" font-family="Helvetica,sans-Serif" font-size="10.00">messaget::commandt</text>
</a>
</g>
</g>
<!-- Node33&#45;&gt;Node30 -->
<g id="edge33" class="edge">
<title>Node33&#45;&gt;Node30</title>
<path fill="none" stroke="#9a32cd" stroke-dasharray="5,2" d="M1019.38,-131.95C1024.33,-131.78 1029.24,-131.62 1034,-131.5 1102.77,-129.74 1183.43,-129.93 1226.89,-130.22"/>
<polygon fill="#9a32cd" stroke="#9a32cd" points="1019.07,-128.46 1009.21,-132.34 1019.34,-135.46 1019.07,-128.46"/>
<text text-anchor="middle" x="1103.5" y="-244.5" font-family="Helvetica,sans-Serif" font-size="10.00"> cyan</text>
<text text-anchor="middle" x="1103.5" y="-233.5" font-family="Helvetica,sans-Serif" font-size="10.00">bright_yellow</text>
<text text-anchor="middle" x="1103.5" y="-222.5" font-family="Helvetica,sans-Serif" font-size="10.00">bold</text>
<text text-anchor="middle" x="1103.5" y="-211.5" font-family="Helvetica,sans-Serif" font-size="10.00">yellow</text>
<text text-anchor="middle" x="1103.5" y="-200.5" font-family="Helvetica,sans-Serif" font-size="10.00">bright_blue</text>
<text text-anchor="middle" x="1103.5" y="-189.5" font-family="Helvetica,sans-Serif" font-size="10.00">magenta</text>
<text text-anchor="middle" x="1103.5" y="-178.5" font-family="Helvetica,sans-Serif" font-size="10.00">reset</text>
<text text-anchor="middle" x="1103.5" y="-167.5" font-family="Helvetica,sans-Serif" font-size="10.00">bright_magenta</text>
<text text-anchor="middle" x="1103.5" y="-156.5" font-family="Helvetica,sans-Serif" font-size="10.00">underline</text>
<text text-anchor="middle" x="1103.5" y="-145.5" font-family="Helvetica,sans-Serif" font-size="10.00">blue</text>
<text text-anchor="middle" x="1103.5" y="-134.5" font-family="Helvetica,sans-Serif" font-size="10.00">...</text>
</g>
<!-- Node34&#45;&gt;Node30 -->
<g id="edge34" class="edge">
<title>Node34&#45;&gt;Node30</title>
<path fill="none" stroke="#9a32cd" stroke-dasharray="5,2" d="M1481.07,-92.78C1467.43,-98.08 1451.14,-103.78 1436,-107.5 1386.61,-119.62 1327.73,-125.68 1292.27,-128.45"/>
<polygon fill="#9a32cd" stroke="#9a32cd" points="1482.48,-95.99 1490.48,-89.03 1479.89,-89.48 1482.48,-95.99"/>
<text text-anchor="middle" x="1391" y="-125.5" font-family="Helvetica,sans-Serif" font-size="10.00"> mstream</text>
</g>
<!-- Node35 -->
<g id="node26" class="node">
<title>Node35</title>
<g id="a_node26"><a xlink:title="STL class.">
<polygon fill="none" stroke="#bfbfbf" points="1206.5,-7 1206.5,-26 1312.5,-26 1312.5,-7 1206.5,-7"/>
<text text-anchor="middle" x="1259.5" y="-14" font-family="Helvetica,sans-Serif" font-size="10.00">std::ostringstream</text>
</a>
</g>
</g>
<!-- Node35&#45;&gt;Node34 -->
<g id="edge35" class="edge">
<title>Node35&#45;&gt;Node34</title>
<path fill="none" stroke="midnightblue" d="M1322.82,-24.69C1356.69,-29.93 1399.07,-37.77 1436,-48.5 1455.54,-54.18 1476.94,-63.09 1492.13,-69.91"/>
<polygon fill="midnightblue" stroke="midnightblue" points="1323.01,-21.17 1312.6,-23.14 1321.96,-28.1 1323.01,-21.17"/>
</g>
<!-- Node36 -->
<g id="node27" class="node">
<title>Node36</title>
<g id="a_node27"><a xlink:title="STL class.">
<polygon fill="none" stroke="#bfbfbf" points="879,-0.5 879,-30.5 1016,-30.5 1016,-0.5 879,-0.5"/>
<text text-anchor="start" x="887" y="-18.5" font-family="Helvetica,sans-Serif" font-size="10.00">std::basic_ostringstream</text>
<text text-anchor="middle" x="947.5" y="-7.5" font-family="Helvetica,sans-Serif" font-size="10.00">&lt; char &gt;</text>
</a>
</g>
</g>
<!-- Node36&#45;&gt;Node35 -->
<g id="edge36" class="edge">
<title>Node36&#45;&gt;Node35</title>
<path fill="none" stroke="midnightblue" d="M1026.43,-15.75C1082.7,-15.93 1157.14,-16.17 1206.36,-16.33"/>
<polygon fill="midnightblue" stroke="midnightblue" points="1026.16,-12.25 1016.15,-15.72 1026.14,-19.25 1026.16,-12.25"/>
</g>
<!-- Node37 -->
<g id="node28" class="node">
<title>Node37</title>
<g id="a_node28"><a xlink:title="STL class.">
<polygon fill="none" stroke="#bfbfbf" points="609.5,-0.5 609.5,-30.5 718.5,-30.5 718.5,-0.5 609.5,-0.5"/>
<text text-anchor="start" x="617.5" y="-18.5" font-family="Helvetica,sans-Serif" font-size="10.00">std::basic_ostream</text>
<text text-anchor="middle" x="664" y="-7.5" font-family="Helvetica,sans-Serif" font-size="10.00">&lt; Char &gt;</text>
</a>
</g>
</g>
<!-- Node37&#45;&gt;Node36 -->
<g id="edge37" class="edge">
<title>Node37&#45;&gt;Node36</title>
<path fill="none" stroke="midnightblue" d="M728.78,-15.5C773.55,-15.5 833.32,-15.5 878.9,-15.5"/>
<polygon fill="midnightblue" stroke="midnightblue" points="728.61,-12 718.61,-15.5 728.61,-19 728.61,-12"/>
</g>
<!-- Node40 -->
<g id="node29" class="node">
<title>Node40</title>
<g id="a_node29"><a xlink:href="classsource__locationt.html" target="_top" xlink:title=" ">
<polygon fill="none" stroke="black" points="899,-50 899,-69 996,-69 996,-50 899,-50"/>
<text text-anchor="middle" x="947.5" y="-57" font-family="Helvetica,sans-Serif" font-size="10.00">source_locationt</text>
</a>
</g>
</g>
<!-- Node40&#45;&gt;Node34 -->
<g id="edge39" class="edge">
<title>Node40&#45;&gt;Node34</title>
<path fill="none" stroke="#9a32cd" stroke-dasharray="5,2" d="M1006.14,-61.54C1113.9,-65.37 1344.82,-73.55 1453.57,-77.41"/>
<polygon fill="#9a32cd" stroke="#9a32cd" points="1006.22,-58.04 996.1,-61.19 1005.97,-65.04 1006.22,-58.04"/>
<text text-anchor="middle" x="1259.5" y="-76.5" font-family="Helvetica,sans-Serif" font-size="10.00"> source_location</text>
</g>
<!-- Node40&#45;&gt;Node42 -->
<g id="edge45" class="edge">
<title>Node40&#45;&gt;Node42</title>
<path fill="none" stroke="#9a32cd" stroke-dasharray="5,2" d="M1005.45,-69.64C1009.41,-72.03 1013.01,-74.95 1016,-78.5 1041.04,-108.24 1007.16,-224.38 1034,-252.5 1077.13,-297.7 1128.84,-229.3 1173,-273.5 1211.11,-311.65 1156.71,-351.87 1191,-393.5 1193.85,-396.96 1197.23,-399.91 1200.94,-402.45"/>
<polygon fill="#9a32cd" stroke="#9a32cd" points="1006.83,-66.42 996.3,-65.2 1003.77,-72.72 1006.83,-66.42"/>
<text text-anchor="middle" x="1103.5" y="-276.5" font-family="Helvetica,sans-Serif" font-size="10.00"> elements</text>
</g>
<!-- Node21 -->
<g id="node30" class="node">
<title>Node21</title>
<g id="a_node30"><a xlink:href="classirept.html" target="_top" xlink:title="There are a large number of kinds of tree structured or tree&#45;like data in CPROVER.">
<polygon fill="none" stroke="red" points="397,-108 397,-127 436,-127 436,-108 397,-108"/>
<text text-anchor="middle" x="416.5" y="-115" font-family="Helvetica,sans-Serif" font-size="10.00">irept</text>
</a>
</g>
</g>
<!-- Node21&#45;&gt;Node40 -->
<g id="edge40" class="edge">
<title>Node21&#45;&gt;Node40</title>
<path fill="none" stroke="midnightblue" d="M446.13,-114.36C532.47,-104.89 790.99,-76.55 898.64,-64.75"/>
<polygon fill="midnightblue" stroke="midnightblue" points="445.58,-110.9 436.02,-115.47 446.34,-117.86 445.58,-110.9"/>
</g>
<!-- Node45 -->
<g id="node35" class="node">
<title>Node45</title>
<g id="a_node35"><a xlink:href="classtypet.html" target="_top" xlink:title="The type of an expression, extends irept.">
<polygon fill="none" stroke="black" points="643,-159 643,-178 685,-178 685,-159 643,-159"/>
<text text-anchor="middle" x="664" y="-166" font-family="Helvetica,sans-Serif" font-size="10.00">typet</text>
</a>
</g>
</g>
<!-- Node21&#45;&gt;Node45 -->
<g id="edge51" class="edge">
<title>Node21&#45;&gt;Node45</title>
<path fill="none" stroke="midnightblue" d="M445.91,-128.12C461.66,-133.68 481.71,-140.19 500,-144.5 550.81,-156.46 612.02,-163.57 642.97,-166.66"/>
<polygon fill="midnightblue" stroke="midnightblue" points="446.84,-124.74 436.24,-124.65 444.47,-131.33 446.84,-124.74"/>
</g>
<!-- Node41 -->
<g id="node31" class="node">
<title>Node41</title>
<g id="a_node31"><a xlink:href="classmessaget_1_1eomt.html" target="_top" xlink:title=" ">
<polygon fill="none" stroke="black" points="899.5,-88 899.5,-107 995.5,-107 995.5,-88 899.5,-88"/>
<text text-anchor="middle" x="947.5" y="-95" font-family="Helvetica,sans-Serif" font-size="10.00">messaget::eomt</text>
</a>
</g>
</g>
<!-- Node41&#45;&gt;Node30 -->
<g id="edge41" class="edge">
<title>Node41&#45;&gt;Node30</title>
<path fill="none" stroke="#9a32cd" stroke-dasharray="5,2" d="M1005.78,-100.11C1051.25,-102.59 1116.37,-107.08 1173,-114.5 1190.97,-116.85 1210.88,-120.52 1226.96,-123.74"/>
<polygon fill="#9a32cd" stroke="#9a32cd" points="1005.69,-96.6 995.52,-99.56 1005.32,-103.59 1005.69,-96.6"/>
<text text-anchor="middle" x="1103.5" y="-117.5" font-family="Helvetica,sans-Serif" font-size="10.00"> eom</text>
</g>
<!-- Node42&#45;&gt;Node29 -->
<g id="edge43" class="edge">
<title>Node42&#45;&gt;Node29</title>
<path fill="none" stroke="#9a32cd" stroke-dasharray="5,2" d="M1338.39,-419.44C1368.92,-420.85 1404.2,-423.29 1436,-427.5 1447.97,-429.08 1460.87,-431.5 1472.59,-433.98"/>
<polygon fill="#9a32cd" stroke="#9a32cd" points="1338.37,-415.94 1328.23,-419 1338.07,-422.93 1338.37,-415.94"/>
<text text-anchor="middle" x="1391" y="-441.5" font-family="Helvetica,sans-Serif" font-size="10.00"> cycles_r_loc</text>
<text text-anchor="middle" x="1391" y="-430.5" font-family="Helvetica,sans-Serif" font-size="10.00">cycles_loc</text>
</g>
<!-- Node43&#45;&gt;Node29 -->
<g id="edge48" class="edge">
<title>Node43&#45;&gt;Node29</title>
<path fill="none" stroke="#9a32cd" stroke-dasharray="5,2" d="M1325.07,-377.47C1358.72,-383.21 1400.22,-391.97 1436,-404.5 1458.09,-412.24 1481.86,-425.15 1496.94,-433.98"/>
<polygon fill="#9a32cd" stroke="#9a32cd" points="1325.33,-373.97 1314.89,-375.79 1324.19,-380.87 1325.33,-373.97"/>
<text text-anchor="middle" x="1391" y="-407.5" font-family="Helvetica,sans-Serif" font-size="10.00"> var_map</text>
</g>
<!-- Node44&#45;&gt;Node43 -->
<g id="edge49" class="edge">
<title>Node44&#45;&gt;Node43</title>
<path fill="none" stroke="#9a32cd" stroke-dasharray="5,2" d="M963.84,-258.56C979.75,-275.16 1006.15,-299.83 1034,-313.5 1090.74,-341.34 1111.74,-327.95 1173,-343.5 1184.84,-346.51 1197.52,-350.04 1209.38,-353.48"/>
<polygon fill="#9a32cd" stroke="#9a32cd" points="966.3,-256.06 956.91,-251.14 961.18,-260.84 966.3,-256.06"/>
<text text-anchor="middle" x="1103.5" y="-346.5" font-family="Helvetica,sans-Serif" font-size="10.00"> elements</text>
</g>
<!-- Node45&#45;&gt;Node44 -->
<g id="edge50" class="edge">
<title>Node45&#45;&gt;Node44</title>
<path fill="none" stroke="#9a32cd" stroke-dasharray="5,2" d="M695.01,-165.52C735.27,-162.91 807.84,-163.18 861,-191.5 871.85,-197.28 869.1,-205.22 879,-212.5 890.2,-220.74 904.1,-227.21 916.37,-231.94"/>
<polygon fill="#9a32cd" stroke="#9a32cd" points="694.74,-162.03 685.03,-166.27 695.26,-169.01 694.74,-162.03"/>
<text text-anchor="middle" x="806.5" y="-194.5" font-family="Helvetica,sans-Serif" font-size="10.00"> type</text>
</g>
<!-- Node46&#45;&gt;Node44 -->
<g id="edge53" class="edge">
<title>Node46&#45;&gt;Node44</title>
<path fill="none" stroke="#9a32cd" stroke-dasharray="5,2" d="M738.28,-206.19C775.3,-207.06 820.77,-209.69 861,-216.5 881.13,-219.91 903.23,-226.45 919.92,-231.98"/>
<polygon fill="#9a32cd" stroke="#9a32cd" points="738.14,-202.69 728.08,-205.99 738.01,-209.69 738.14,-202.69"/>
<text text-anchor="middle" x="806.5" y="-230.5" font-family="Helvetica,sans-Serif" font-size="10.00"> r_buff1_thds</text>
<text text-anchor="middle" x="806.5" y="-219.5" font-family="Helvetica,sans-Serif" font-size="10.00">r_buff0_thds</text>
</g>
</g>
</svg>
