<?xml version="1.0" encoding="UTF-8" standalone="no"?>
<!DOCTYPE svg PUBLIC "-//W3C//DTD SVG 1.1//EN"
 "http://www.w3.org/Graphics/SVG/1.1/DTD/svg11.dtd">
<!-- Generated by graphviz version 2.43.0 (0)
 -->
<!-- Title: side_effect_expr_nondett Pages: 1 -->
<svg width="225pt" height="367pt"
 viewBox="0.00 0.00 225.00 367.00" xmlns="http://www.w3.org/2000/svg" xmlns:xlink="http://www.w3.org/1999/xlink">
<g id="graph0" class="graph" transform="scale(1 1) rotate(0) translate(4 363)">
<title>side_effect_expr_nondett</title>
<!-- Node1 -->
<g id="node1" class="node">
<title>Node1</title>
<g id="a_node1"><a xlink:title="A side_effect_exprt that returns a non&#45;deterministically chosen value.">
<polygon fill="#bfbfbf" stroke="black" points="0,-0.5 0,-19.5 140,-19.5 140,-0.5 0,-0.5"/>
<text text-anchor="middle" x="70" y="-7.5" font-family="Helvetica,sans-Serif" font-size="10.00">side_effect_expr_nondett</text>
</a>
</g>
</g>
<!-- Node2 -->
<g id="node2" class="node">
<title>Node2</title>
<g id="a_node2"><a xlink:href="classside__effect__exprt.html" target="_top" xlink:title="An expression containing a side effect.">
<polygon fill="none" stroke="black" points="19.5,-57.5 19.5,-76.5 120.5,-76.5 120.5,-57.5 19.5,-57.5"/>
<text text-anchor="middle" x="70" y="-64.5" font-family="Helvetica,sans-Serif" font-size="10.00">side_effect_exprt</text>
</a>
</g>
</g>
<!-- Node2&#45;&gt;Node1 -->
<g id="edge1" class="edge">
<title>Node2&#45;&gt;Node1</title>
<path fill="none" stroke="midnightblue" d="M70,-47.12C70,-37.82 70,-27.06 70,-19.71"/>
<polygon fill="midnightblue" stroke="midnightblue" points="66.5,-47.41 70,-57.41 73.5,-47.41 66.5,-47.41"/>
</g>
<!-- Node3 -->
<g id="node3" class="node">
<title>Node3</title>
<g id="a_node3"><a xlink:href="classexprt.html" target="_top" xlink:title="Base class for all expressions.">
<polygon fill="none" stroke="black" points="49,-114.5 49,-133.5 91,-133.5 91,-114.5 49,-114.5"/>
<text text-anchor="middle" x="70" y="-121.5" font-family="Helvetica,sans-Serif" font-size="10.00">exprt</text>
</a>
</g>
</g>
<!-- Node3&#45;&gt;Node2 -->
<g id="edge2" class="edge">
<title>Node3&#45;&gt;Node2</title>
<path fill="none" stroke="midnightblue" d="M70,-104.12C70,-94.82 70,-84.06 70,-76.71"/>
<polygon fill="midnightblue" stroke="midnightblue" points="66.5,-104.41 70,-114.41 73.5,-104.41 66.5,-104.41"/>
</g>
<!-- Node4 -->
<g id="node4" class="node">
<title>Node4</title>
<g id="a_node4"><a xlink:href="classirept.html" target="_top" xlink:title="There are a large number of kinds of tree structured or tree&#45;like data in CPROVER.">
<polygon fill="none" stroke="black" points="50.5,-171.5 50.5,-190.5 89.5,-190.5 89.5,-171.5 50.5,-171.5"/>
<text text-anchor="middle" x="70" y="-178.5" font-family="Helvetica,sans-Serif" font-size="10.00">irept</text>
</a>
</g>
</g>
<!-- Node4&#45;&gt;Node3 -->
<g id="edge3" class="edge">
<title>Node4&#45;&gt;Node3</title>
<path fill="none" stroke="midnightblue" d="M70,-161.12C70,-151.82 70,-141.06 70,-133.71"/>
<polygon fill="midnightblue" stroke="midnightblue" points="66.5,-161.41 70,-171.41 73.5,-161.41 66.5,-161.41"/>
</g>
<!-- Node5 -->
<g id="node5" class="node">
<title>Node5</title>
<g id="a_node5"><a xlink:href="classsharing__treet.html" target="_top" xlink:title=" ">
<polygon fill="none" stroke="black" points="7.5,-228.5 7.5,-269.5 132.5,-269.5 132.5,-228.5 7.5,-228.5"/>
<text text-anchor="start" x="15.5" y="-257.5" font-family="Helvetica,sans-Serif" font-size="10.00">sharing_treet&lt; irept,</text>
<text text-anchor="start" x="15.5" y="-246.5" font-family="Helvetica,sans-Serif" font-size="10.00"> forward_list_as_mapt</text>
<text text-anchor="middle" x="70" y="-235.5" font-family="Helvetica,sans-Serif" font-size="10.00">&lt; irep_idt, irept &gt; &gt;</text>
</a>
</g>
</g>
<!-- Node5&#45;&gt;Node4 -->
<g id="edge4" class="edge">
<title>Node5&#45;&gt;Node4</title>
<path fill="none" stroke="midnightblue" d="M70,-218.12C70,-208.17 70,-197.84 70,-190.79"/>
<polygon fill="midnightblue" stroke="midnightblue" points="66.5,-218.2 70,-228.2 73.5,-218.2 66.5,-218.2"/>
</g>
<!-- Node6 -->
<g id="node6" class="node">
<title>Node6</title>
<g id="a_node6"><a xlink:href="classsharing__treet.html" target="_top" xlink:title="Base class for tree&#45;like data structures with sharing.">
<polygon fill="none" stroke="black" points="2,-328.5 2,-358.5 138,-358.5 138,-328.5 2,-328.5"/>
<text text-anchor="start" x="10" y="-346.5" font-family="Helvetica,sans-Serif" font-size="10.00">sharing_treet&lt; derivedt,</text>
<text text-anchor="middle" x="70" y="-335.5" font-family="Helvetica,sans-Serif" font-size="10.00"> named_subtreest &gt;</text>
</a>
</g>
</g>
<!-- Node6&#45;&gt;Node5 -->
<g id="edge5" class="edge">
<title>Node6&#45;&gt;Node5</title>
<path fill="none" stroke="orange" stroke-dasharray="5,2" d="M70,-318.28C70,-303.14 70,-283.88 70,-269.68"/>
<polygon fill="orange" stroke="orange" points="66.5,-318.45 70,-328.45 73.5,-318.45 66.5,-318.45"/>
<text text-anchor="start" x="70" y="-302" font-family="Helvetica,sans-Serif" font-size="10.00"> &lt; irept, forward_list</text>
<text text-anchor="middle" x="143.5" y="-291" font-family="Helvetica,sans-Serif" font-size="10.00">_as_mapt&lt; irep_idt, irept &gt; &gt;</text>
</g>
</g>
</svg>
