<?xml version="1.0" encoding="UTF-8" standalone="no"?>
<!DOCTYPE svg PUBLIC "-//W3C//DTD SVG 1.1//EN"
 "http://www.w3.org/Graphics/SVG/1.1/DTD/svg11.dtd">
<!-- Generated by graphviz version 2.43.0 (0)
 -->
<!-- Title: aggressive_slicert Pages: 1 -->
<svg width="2027pt" height="571pt"
 viewBox="0.00 0.00 2027.00 570.50" xmlns="http://www.w3.org/2000/svg" xmlns:xlink="http://www.w3.org/1999/xlink">
<g id="graph0" class="graph" transform="scale(1 1) rotate(0) translate(4 566.5)">
<title>aggressive_slicert</title>
<!-- Node1 -->
<g id="node1" class="node">
<title>Node1</title>
<g id="a_node1"><a xlink:title="The aggressive slicer removes the body of all the functions except those on the shortest path,...">
<polygon fill="#bfbfbf" stroke="black" points="1914,-331 1914,-350 2019,-350 2019,-331 1914,-331"/>
<text text-anchor="middle" x="1966.5" y="-338" font-family="Helvetica,sans-Serif" font-size="10.00">aggressive_slicert</text>
</a>
</g>
</g>
<!-- Node2 -->
<g id="node2" class="node">
<title>Node2</title>
<g id="a_node2"><a xlink:href="classmessage__handlert.html" target="_top" xlink:title=" ">
<polygon fill="none" stroke="black" points="1108,-530 1108,-549 1215,-549 1215,-530 1108,-530"/>
<text text-anchor="middle" x="1161.5" y="-537" font-family="Helvetica,sans-Serif" font-size="10.00">message_handlert</text>
</a>
</g>
</g>
<!-- Node2&#45;&gt;Node1 -->
<g id="edge1" class="edge">
<title>Node2&#45;&gt;Node1</title>
<path fill="none" stroke="#9a32cd" stroke-dasharray="5,2" d="M1225.24,-530.94C1281.2,-524.04 1365.4,-515.5 1439,-515.5 1439,-515.5 1439,-515.5 1779,-515.5 1876.46,-515.5 1943.9,-386.84 1961.15,-350.16"/>
<polygon fill="#9a32cd" stroke="#9a32cd" points="1224.62,-527.49 1215.13,-532.2 1225.49,-534.43 1224.62,-527.49"/>
<text text-anchor="middle" x="1565.5" y="-518.5" font-family="Helvetica,sans-Serif" font-size="10.00"> message_handler</text>
</g>
<!-- Node3 -->
<g id="node3" class="node">
<title>Node3</title>
<g id="a_node3"><a xlink:title=" ">
<polygon fill="none" stroke="#bfbfbf" points="686.5,-543 686.5,-562 826.5,-562 826.5,-543 686.5,-543"/>
<text text-anchor="middle" x="756.5" y="-550" font-family="Helvetica,sans-Serif" font-size="10.00">std::vector&lt; std::size_t &gt;</text>
</a>
</g>
</g>
<!-- Node3&#45;&gt;Node2 -->
<g id="edge2" class="edge">
<title>Node3&#45;&gt;Node2</title>
<path fill="none" stroke="#9a32cd" stroke-dasharray="5,2" d="M836.84,-549.94C917.07,-547.35 1038.8,-543.43 1107.84,-541.2"/>
<polygon fill="#9a32cd" stroke="#9a32cd" points="836.66,-546.44 826.78,-550.27 836.89,-553.44 836.66,-546.44"/>
<text text-anchor="middle" x="915.5" y="-551.5" font-family="Helvetica,sans-Serif" font-size="10.00"> message_count</text>
</g>
<!-- Node4 -->
<g id="node4" class="node">
<title>Node4</title>
<g id="a_node4"><a xlink:title="STL class.">
<polygon fill="none" stroke="#bfbfbf" points="405,-476 405,-495 502,-495 502,-476 405,-476"/>
<text text-anchor="middle" x="453.5" y="-483" font-family="Helvetica,sans-Serif" font-size="10.00">std::vector&lt; T &gt;</text>
</a>
</g>
</g>
<!-- Node4&#45;&gt;Node3 -->
<g id="edge3" class="edge">
<title>Node4&#45;&gt;Node3</title>
<path fill="none" stroke="orange" stroke-dasharray="5,2" d="M486.65,-498.73C501.74,-504.53 520.08,-511.03 537,-515.5 586.29,-528.52 643.09,-537.97 686.42,-544.07"/>
<polygon fill="orange" stroke="orange" points="487.85,-495.44 477.26,-495.04 485.29,-501.95 487.85,-495.44"/>
<text text-anchor="middle" x="602" y="-543.5" font-family="Helvetica,sans-Serif" font-size="10.00"> &lt; std::size_t &gt;</text>
</g>
<!-- Node8 -->
<g id="node8" class="node">
<title>Node8</title>
<g id="a_node8"><a xlink:title=" ">
<polygon fill="none" stroke="#bfbfbf" points="697,-498 697,-517 816,-517 816,-498 697,-498"/>
<text text-anchor="middle" x="756.5" y="-505" font-family="Helvetica,sans-Serif" font-size="10.00">std::vector&lt; nodet &gt;</text>
</a>
</g>
</g>
<!-- Node4&#45;&gt;Node8 -->
<g id="edge8" class="edge">
<title>Node4&#45;&gt;Node8</title>
<path fill="none" stroke="orange" stroke-dasharray="5,2" d="M512.46,-489.74C565.52,-493.61 643.67,-499.33 696.93,-503.22"/>
<polygon fill="orange" stroke="orange" points="512.42,-486.22 502.19,-488.99 511.91,-493.21 512.42,-486.22"/>
<text text-anchor="middle" x="602" y="-503.5" font-family="Helvetica,sans-Serif" font-size="10.00"> &lt; nodet &gt;</text>
</g>
<!-- Node25 -->
<g id="node25" class="node">
<title>Node25</title>
<g id="a_node25"><a xlink:title=" ">
<polygon fill="none" stroke="#bfbfbf" points="692.5,-379 692.5,-398 820.5,-398 820.5,-379 692.5,-379"/>
<text text-anchor="middle" x="756.5" y="-386" font-family="Helvetica,sans-Serif" font-size="10.00">std::vector&lt; irep_idt &gt;</text>
</a>
</g>
</g>
<!-- Node4&#45;&gt;Node25 -->
<g id="edge37" class="edge">
<title>Node4&#45;&gt;Node25</title>
<path fill="none" stroke="orange" stroke-dasharray="5,2" d="M482.5,-471.63C498.19,-464.36 518.31,-455.89 537,-450.5 593.24,-434.29 616.29,-458.71 667,-429.5 677.95,-423.19 674.39,-414.36 685,-407.5 690.96,-403.64 697.69,-400.57 704.56,-398.11"/>
<polygon fill="orange" stroke="orange" points="480.9,-468.51 473.36,-475.95 483.9,-474.84 480.9,-468.51"/>
<text text-anchor="middle" x="602" y="-453.5" font-family="Helvetica,sans-Serif" font-size="10.00"> &lt; irep_idt &gt;</text>
</g>
<!-- Node5 -->
<g id="node5" class="node">
<title>Node5</title>
<g id="a_node5"><a xlink:title=" ">
<polygon fill="none" stroke="#bfbfbf" points="37.5,-179 37.5,-198 66.5,-198 66.5,-179 37.5,-179"/>
<text text-anchor="middle" x="52" y="-186" font-family="Helvetica,sans-Serif" font-size="10.00">T</text>
</a>
</g>
</g>
<!-- Node5&#45;&gt;Node4 -->
<g id="edge4" class="edge">
<title>Node5&#45;&gt;Node4</title>
<path fill="none" stroke="#9a32cd" stroke-dasharray="5,2" d="M68.26,-205.81C81.82,-220.84 102.46,-242.9 122,-260.5 230.55,-358.3 384.05,-447.39 435.18,-475.97"/>
<polygon fill="#9a32cd" stroke="#9a32cd" points="70.78,-203.38 61.51,-198.25 65.57,-208.04 70.78,-203.38"/>
<text text-anchor="middle" x="229.5" y="-375.5" font-family="Helvetica,sans-Serif" font-size="10.00"> elements</text>
</g>
<!-- Node12 -->
<g id="node12" class="node">
<title>Node12</title>
<g id="a_node12"><a xlink:title="STL class.">
<polygon fill="none" stroke="#bfbfbf" points="396.5,-264.5 396.5,-294.5 510.5,-294.5 510.5,-264.5 396.5,-264.5"/>
<text text-anchor="start" x="404.5" y="-282.5" font-family="Helvetica,sans-Serif" font-size="10.00">std::unordered_map</text>
<text text-anchor="middle" x="453.5" y="-271.5" font-family="Helvetica,sans-Serif" font-size="10.00">&lt; K, T &gt;</text>
</a>
</g>
</g>
<!-- Node5&#45;&gt;Node12 -->
<g id="edge15" class="edge">
<title>Node5&#45;&gt;Node12</title>
<path fill="none" stroke="#9a32cd" stroke-dasharray="5,2" d="M74.87,-203.74C114.88,-230.5 203.56,-284.71 288,-301.5 323.74,-308.61 333.86,-306.24 370,-301.5 381.32,-300.02 393.29,-297.44 404.5,-294.55"/>
<polygon fill="#9a32cd" stroke="#9a32cd" points="76.67,-200.73 66.43,-198.01 72.74,-206.52 76.67,-200.73"/>
<text text-anchor="middle" x="229.5" y="-300.5" font-family="Helvetica,sans-Serif" font-size="10.00"> elements</text>
</g>
<!-- Node20 -->
<g id="node20" class="node">
<title>Node20</title>
<g id="a_node20"><a xlink:title="STL class.">
<polygon fill="none" stroke="#bfbfbf" points="390.5,-120 390.5,-139 516.5,-139 516.5,-120 390.5,-120"/>
<text text-anchor="middle" x="453.5" y="-127" font-family="Helvetica,sans-Serif" font-size="10.00">std::multimap&lt; K, T &gt;</text>
</a>
</g>
</g>
<!-- Node5&#45;&gt;Node20 -->
<g id="edge27" class="edge">
<title>Node5&#45;&gt;Node20</title>
<path fill="none" stroke="#9a32cd" stroke-dasharray="5,2" d="M72.59,-172.23C97.91,-152.02 144.1,-117.82 189,-98.5 230.49,-80.64 243.12,-80.64 288,-75.5 324.21,-71.35 338.89,-56.52 370,-75.5 384.93,-84.61 374.52,-99.35 388,-110.5 392.68,-114.37 398.12,-117.45 403.81,-119.9"/>
<polygon fill="#9a32cd" stroke="#9a32cd" points="70.1,-169.74 64.54,-178.76 74.51,-175.18 70.1,-169.74"/>
<text text-anchor="middle" x="229.5" y="-101.5" font-family="Helvetica,sans-Serif" font-size="10.00"> elements</text>
</g>
<!-- Node38 -->
<g id="node28" class="node">
<title>Node38</title>
<g id="a_node28"><a xlink:title="STL class.">
<polygon fill="none" stroke="#bfbfbf" points="189,-119 189,-138 270,-138 270,-119 189,-119"/>
<text text-anchor="middle" x="229.5" y="-126" font-family="Helvetica,sans-Serif" font-size="10.00">std::list&lt; T &gt;</text>
</a>
</g>
</g>
<!-- Node5&#45;&gt;Node38 -->
<g id="edge41" class="edge">
<title>Node5&#45;&gt;Node38</title>
<path fill="none" stroke="#9a32cd" stroke-dasharray="5,2" d="M76.1,-179.94C89.47,-175.03 106.65,-168.8 122,-163.5 147.75,-154.6 177.19,-144.97 198.58,-138.07"/>
<polygon fill="#9a32cd" stroke="#9a32cd" points="74.88,-176.66 66.7,-183.4 77.3,-183.22 74.88,-176.66"/>
<text text-anchor="middle" x="146.5" y="-166.5" font-family="Helvetica,sans-Serif" font-size="10.00"> elements</text>
</g>
<!-- Node39 -->
<g id="node29" class="node">
<title>Node39</title>
<g id="a_node29"><a xlink:title="STL class.">
<polygon fill="none" stroke="#bfbfbf" points="403,-179 403,-198 504,-198 504,-179 403,-179"/>
<text text-anchor="middle" x="453.5" y="-186" font-family="Helvetica,sans-Serif" font-size="10.00">std::map&lt; K, T &gt;</text>
</a>
</g>
</g>
<!-- Node5&#45;&gt;Node39 -->
<g id="edge45" class="edge">
<title>Node5&#45;&gt;Node39</title>
<path fill="none" stroke="#9a32cd" stroke-dasharray="5,2" d="M77.02,-188.5C140.95,-188.5 316.27,-188.5 402.82,-188.5"/>
<polygon fill="#9a32cd" stroke="#9a32cd" points="76.75,-185 66.75,-188.5 76.75,-192 76.75,-185"/>
<text text-anchor="middle" x="229.5" y="-191.5" font-family="Helvetica,sans-Serif" font-size="10.00"> elements</text>
</g>
<!-- Node6 -->
<g id="node6" class="node">
<title>Node6</title>
<g id="a_node6"><a xlink:href="classcall__grapht_1_1directed__grapht.html" target="_top" xlink:title="Directed graph representation of this call graph.">
<polygon fill="none" stroke="black" points="1507.5,-341.5 1507.5,-371.5 1623.5,-371.5 1623.5,-341.5 1507.5,-341.5"/>
<text text-anchor="start" x="1515.5" y="-359.5" font-family="Helvetica,sans-Serif" font-size="10.00">call_grapht::directed</text>
<text text-anchor="middle" x="1565.5" y="-348.5" font-family="Helvetica,sans-Serif" font-size="10.00">_grapht</text>
</a>
</g>
</g>
<!-- Node6&#45;&gt;Node1 -->
<g id="edge5" class="edge">
<title>Node6&#45;&gt;Node1</title>
<path fill="none" stroke="#9a32cd" stroke-dasharray="5,2" d="M1634,-353.79C1713.07,-350.62 1842.32,-345.44 1913.83,-342.57"/>
<polygon fill="#9a32cd" stroke="#9a32cd" points="1633.52,-350.31 1623.67,-354.21 1633.8,-357.3 1633.52,-350.31"/>
<text text-anchor="middle" x="1778" y="-353.5" font-family="Helvetica,sans-Serif" font-size="10.00"> call_graph</text>
</g>
<!-- Node7 -->
<g id="node7" class="node">
<title>Node7</title>
<g id="a_node7"><a xlink:href="classgrapht.html" target="_top" xlink:title=" ">
<polygon fill="none" stroke="black" points="1233,-452 1233,-471 1376,-471 1376,-452 1233,-452"/>
<text text-anchor="middle" x="1304.5" y="-459" font-family="Helvetica,sans-Serif" font-size="10.00">grapht&lt; function_nodet &gt;</text>
</a>
</g>
</g>
<!-- Node7&#45;&gt;Node6 -->
<g id="edge6" class="edge">
<title>Node7&#45;&gt;Node6</title>
<path fill="none" stroke="midnightblue" d="M1386.44,-457.08C1418.73,-452.83 1455.41,-444.74 1486,-429.5 1513.98,-415.56 1539.05,-388.47 1552.97,-371.5"/>
<polygon fill="midnightblue" stroke="midnightblue" points="1385.64,-453.65 1376.13,-458.33 1386.48,-460.6 1385.64,-453.65"/>
</g>
<!-- Node8&#45;&gt;Node7 -->
<g id="edge7" class="edge">
<title>Node8&#45;&gt;Node7</title>
<path fill="none" stroke="#9a32cd" stroke-dasharray="5,2" d="M826.23,-505.12C915.92,-501.5 1077.65,-493.18 1215,-476.5 1227.07,-475.03 1240,-473.07 1252.14,-471.05"/>
<polygon fill="#9a32cd" stroke="#9a32cd" points="826.04,-501.63 816.19,-505.52 826.32,-508.62 826.04,-501.63"/>
<text text-anchor="middle" x="1046.5" y="-497.5" font-family="Helvetica,sans-Serif" font-size="10.00"> nodes</text>
</g>
<!-- Node9 -->
<g id="node9" class="node">
<title>Node9</title>
<g id="a_node9"><a xlink:href="classgrapht.html" target="_top" xlink:title="A generic directed graph with a parametric node type.">
<polygon fill="none" stroke="black" points="1007.5,-452 1007.5,-471 1085.5,-471 1085.5,-452 1007.5,-452"/>
<text text-anchor="middle" x="1046.5" y="-459" font-family="Helvetica,sans-Serif" font-size="10.00">grapht&lt; N &gt;</text>
</a>
</g>
</g>
<!-- Node8&#45;&gt;Node9 -->
<g id="edge10" class="edge">
<title>Node8&#45;&gt;Node9</title>
<path fill="none" stroke="#9a32cd" stroke-dasharray="5,2" d="M796.37,-494.97C811.69,-490.44 829.54,-485.67 846,-482.5 901.57,-471.81 966.98,-466.23 1007.34,-463.58"/>
<polygon fill="#9a32cd" stroke="#9a32cd" points="795.26,-491.65 786.7,-497.9 797.28,-498.35 795.26,-491.65"/>
<text text-anchor="middle" x="915.5" y="-485.5" font-family="Helvetica,sans-Serif" font-size="10.00"> nodes</text>
</g>
<!-- Node9&#45;&gt;Node7 -->
<g id="edge9" class="edge">
<title>Node9&#45;&gt;Node7</title>
<path fill="none" stroke="orange" stroke-dasharray="5,2" d="M1096,-461.5C1134.64,-461.5 1189.29,-461.5 1232.8,-461.5"/>
<polygon fill="orange" stroke="orange" points="1095.55,-458 1085.55,-461.5 1095.55,-465 1095.55,-458"/>
<text text-anchor="middle" x="1161.5" y="-464.5" font-family="Helvetica,sans-Serif" font-size="10.00"> &lt; function_nodet &gt;</text>
</g>
<!-- Node10 -->
<g id="node10" class="node">
<title>Node10</title>
<g id="a_node10"><a xlink:title=" ">
<polygon fill="none" stroke="#bfbfbf" points="685,-275.5 685,-305.5 828,-305.5 828,-275.5 685,-275.5"/>
<text text-anchor="start" x="693" y="-293.5" font-family="Helvetica,sans-Serif" font-size="10.00">std::unordered_map</text>
<text text-anchor="middle" x="756.5" y="-282.5" font-family="Helvetica,sans-Serif" font-size="10.00">&lt; dstringt, node_indext &gt;</text>
</a>
</g>
</g>
<!-- Node10&#45;&gt;Node6 -->
<g id="edge11" class="edge">
<title>Node10&#45;&gt;Node6</title>
<path fill="none" stroke="#9a32cd" stroke-dasharray="5,2" d="M838.26,-291.6C881.77,-292.54 936.36,-294.28 985,-297.5 1176.98,-310.21 1403.67,-336.61 1507.45,-349.34"/>
<polygon fill="#9a32cd" stroke="#9a32cd" points="838.09,-288.09 828.02,-291.39 837.94,-295.09 838.09,-288.09"/>
<text text-anchor="middle" x="1161.5" y="-320.5" font-family="Helvetica,sans-Serif" font-size="10.00"> nodes_by_name</text>
</g>
<!-- Node11 -->
<g id="node11" class="node">
<title>Node11</title>
<g id="a_node11"><a xlink:href="classdstringt.html" target="_top" xlink:title="dstringt has one field, an unsigned integer no which is an index into a static table of strings.">
<polygon fill="none" stroke="black" points="426.5,-326 426.5,-345 480.5,-345 480.5,-326 426.5,-326"/>
<text text-anchor="middle" x="453.5" y="-333" font-family="Helvetica,sans-Serif" font-size="10.00">dstringt</text>
</a>
</g>
</g>
<!-- Node11&#45;&gt;Node1 -->
<g id="edge16" class="edge">
<title>Node11&#45;&gt;Node1</title>
<path fill="none" stroke="#9a32cd" stroke-dasharray="5,2" d="M489.72,-321.69C499.77,-316.81 510.33,-310.71 519,-303.5 529.25,-294.97 525.73,-286.63 537,-279.5 566.61,-260.76 811.21,-220.66 846,-216.5 1107.87,-185.16 1175.26,-194.5 1439,-194.5 1439,-194.5 1439,-194.5 1779,-194.5 1867.82,-194.5 1939.53,-298.44 1959.77,-330.92"/>
<polygon fill="#9a32cd" stroke="#9a32cd" points="487.96,-318.65 480.32,-325.99 490.87,-325.01 487.96,-318.65"/>
<text text-anchor="middle" x="1304.5" y="-197.5" font-family="Helvetica,sans-Serif" font-size="10.00"> start_function</text>
</g>
<!-- Node11&#45;&gt;Node10 -->
<g id="edge12" class="edge">
<title>Node11&#45;&gt;Node10</title>
<path fill="none" stroke="#9a32cd" stroke-dasharray="5,2" d="M490.58,-330.11C538.41,-322.96 623.85,-310.18 684.76,-301.08"/>
<polygon fill="#9a32cd" stroke="#9a32cd" points="490.06,-326.65 480.69,-331.59 491.09,-333.57 490.06,-326.65"/>
<text text-anchor="middle" x="602" y="-325.5" font-family="Helvetica,sans-Serif" font-size="10.00"> keys</text>
</g>
<!-- Node14 -->
<g id="node14" class="node">
<title>Node14</title>
<g id="a_node14"><a xlink:title=" ">
<polygon fill="none" stroke="#bfbfbf" points="700,-417 700,-436 813,-436 813,-417 700,-417"/>
<text text-anchor="middle" x="756.5" y="-424" font-family="Helvetica,sans-Serif" font-size="10.00">std::set&lt; dstringt &gt;</text>
</a>
</g>
</g>
<!-- Node11&#45;&gt;Node14 -->
<g id="edge18" class="edge">
<title>Node11&#45;&gt;Node14</title>
<path fill="none" stroke="#9a32cd" stroke-dasharray="5,2" d="M471.97,-352.19C487.68,-366.17 512.07,-385.4 537,-395.5 565.68,-407.12 645.13,-416.41 699.88,-421.69"/>
<polygon fill="#9a32cd" stroke="#9a32cd" points="473.92,-349.23 464.18,-345.06 469.19,-354.4 473.92,-349.23"/>
<text text-anchor="middle" x="602" y="-420.5" font-family="Helvetica,sans-Serif" font-size="10.00"> keys</text>
</g>
<!-- Node21 -->
<g id="node21" class="node">
<title>Node21</title>
<g id="a_node21"><a xlink:title=" ">
<polygon fill="none" stroke="#bfbfbf" points="699,-137.5 699,-167.5 814,-167.5 814,-137.5 699,-137.5"/>
<text text-anchor="start" x="707" y="-155.5" font-family="Helvetica,sans-Serif" font-size="10.00">std::multimap&lt; irep</text>
<text text-anchor="middle" x="756.5" y="-144.5" font-family="Helvetica,sans-Serif" font-size="10.00">_idt, irep_idt &gt;</text>
</a>
</g>
</g>
<!-- Node11&#45;&gt;Node21 -->
<g id="edge30" class="edge">
<title>Node11&#45;&gt;Node21</title>
<path fill="none" stroke="#9a32cd" stroke-dasharray="5,2" d="M489.97,-324.69C500.72,-319.81 511.62,-312.95 519,-303.5 541.97,-274.1 511.83,-249.04 537,-221.5 542.8,-215.15 640.55,-185.87 703.32,-167.55"/>
<polygon fill="#9a32cd" stroke="#9a32cd" points="488.59,-321.48 480.65,-328.49 491.23,-327.96 488.59,-321.48"/>
<text text-anchor="middle" x="602" y="-235.5" font-family="Helvetica,sans-Serif" font-size="10.00"> keys</text>
<text text-anchor="middle" x="602" y="-224.5" font-family="Helvetica,sans-Serif" font-size="10.00">elements</text>
</g>
<!-- Node23 -->
<g id="node23" class="node">
<title>Node23</title>
<g id="a_node23"><a xlink:title=" ">
<polygon fill="none" stroke="#bfbfbf" points="1249.5,-262.5 1249.5,-292.5 1359.5,-292.5 1359.5,-262.5 1249.5,-262.5"/>
<text text-anchor="start" x="1257.5" y="-280.5" font-family="Helvetica,sans-Serif" font-size="10.00">std::map&lt; irep_idt,</text>
<text text-anchor="middle" x="1304.5" y="-269.5" font-family="Helvetica,sans-Serif" font-size="10.00"> goto_functiont &gt;</text>
</a>
</g>
</g>
<!-- Node11&#45;&gt;Node23 -->
<g id="edge42" class="edge">
<title>Node11&#45;&gt;Node23</title>
<path fill="none" stroke="#9a32cd" stroke-dasharray="5,2" d="M490.76,-336.05C533.06,-336.61 605.11,-337.28 667,-336.5 808.37,-334.72 844.22,-341.48 985,-328.5 1078.54,-319.87 1186.25,-300.65 1249.4,-288.43"/>
<polygon fill="#9a32cd" stroke="#9a32cd" points="490.72,-332.55 480.67,-335.91 490.62,-339.55 490.72,-332.55"/>
<text text-anchor="middle" x="915.5" y="-340.5" font-family="Helvetica,sans-Serif" font-size="10.00"> keys</text>
</g>
<!-- Node11&#45;&gt;Node25 -->
<g id="edge36" class="edge">
<title>Node11&#45;&gt;Node25</title>
<path fill="none" stroke="#9a32cd" stroke-dasharray="5,2" d="M490.08,-348.28C504.49,-353.04 521.38,-358.1 537,-361.5 588.73,-372.75 648.44,-379.73 692.36,-383.77"/>
<polygon fill="#9a32cd" stroke="#9a32cd" points="491.14,-344.94 480.55,-345.05 488.9,-351.57 491.14,-344.94"/>
<text text-anchor="middle" x="602" y="-384.5" font-family="Helvetica,sans-Serif" font-size="10.00"> elements</text>
</g>
<!-- Node12&#45;&gt;Node10 -->
<g id="edge13" class="edge">
<title>Node12&#45;&gt;Node10</title>
<path fill="none" stroke="orange" stroke-dasharray="5,2" d="M520.86,-281.93C569.48,-283.7 635.35,-286.11 684.92,-287.92"/>
<polygon fill="orange" stroke="orange" points="520.88,-278.42 510.76,-281.56 520.63,-285.42 520.88,-278.42"/>
<text text-anchor="middle" x="602" y="-290.5" font-family="Helvetica,sans-Serif" font-size="10.00"> &lt; dstringt, node_indext &gt;</text>
</g>
<!-- Node19 -->
<g id="node19" class="node">
<title>Node19</title>
<g id="a_node19"><a xlink:href="classsymbol__table__baset.html" target="_top" xlink:title="The symbol table base class interface.">
<polygon fill="none" stroke="black" points="699,-61 699,-80 814,-80 814,-61 699,-61"/>
<text text-anchor="middle" x="756.5" y="-68" font-family="Helvetica,sans-Serif" font-size="10.00">symbol_table_baset</text>
</a>
</g>
</g>
<!-- Node12&#45;&gt;Node19 -->
<g id="edge28" class="edge">
<title>Node12&#45;&gt;Node19</title>
<path fill="none" stroke="#9a32cd" stroke-dasharray="5,2" d="M478.12,-257.05C491.35,-243.58 507.46,-225.6 519,-207.5 529.92,-190.38 521.23,-178.3 537,-165.5 582.75,-128.37 622.37,-177.97 667,-139.5 684.89,-124.08 667.63,-105.5 685,-89.5 689.2,-85.64 694.1,-82.54 699.32,-80.07"/>
<polygon fill="#9a32cd" stroke="#9a32cd" points="475.33,-254.89 470.72,-264.43 480.27,-259.85 475.33,-254.89"/>
<text text-anchor="middle" x="602" y="-168.5" font-family="Helvetica,sans-Serif" font-size="10.00"> symbols</text>
</g>
<!-- Node13 -->
<g id="node13" class="node">
<title>Node13</title>
<g id="a_node13"><a xlink:title=" ">
<polygon fill="none" stroke="#bfbfbf" points="215,-232 215,-251 244,-251 244,-232 215,-232"/>
<text text-anchor="middle" x="229.5" y="-239" font-family="Helvetica,sans-Serif" font-size="10.00">K</text>
</a>
</g>
</g>
<!-- Node13&#45;&gt;Node12 -->
<g id="edge14" class="edge">
<title>Node13&#45;&gt;Node12</title>
<path fill="none" stroke="#9a32cd" stroke-dasharray="5,2" d="M254.07,-242.85C281.94,-244.71 329.66,-248.76 370,-256.5 380.95,-258.6 392.57,-261.44 403.52,-264.42"/>
<polygon fill="#9a32cd" stroke="#9a32cd" points="254.28,-239.35 244.08,-242.22 253.84,-246.34 254.28,-239.35"/>
<text text-anchor="middle" x="329" y="-259.5" font-family="Helvetica,sans-Serif" font-size="10.00"> keys</text>
</g>
<!-- Node15 -->
<g id="node15" class="node">
<title>Node15</title>
<g id="a_node15"><a xlink:title="STL class.">
<polygon fill="none" stroke="#bfbfbf" points="412.5,-413 412.5,-432 494.5,-432 494.5,-413 412.5,-413"/>
<text text-anchor="middle" x="453.5" y="-420" font-family="Helvetica,sans-Serif" font-size="10.00">std::set&lt; K &gt;</text>
</a>
</g>
</g>
<!-- Node13&#45;&gt;Node15 -->
<g id="edge20" class="edge">
<title>Node13&#45;&gt;Node15</title>
<path fill="none" stroke="#9a32cd" stroke-dasharray="5,2" d="M250.33,-257.67C295.46,-294.47 404.76,-383.58 440.77,-412.94"/>
<polygon fill="#9a32cd" stroke="#9a32cd" points="252.4,-254.84 242.44,-251.23 247.97,-260.26 252.4,-254.84"/>
<text text-anchor="middle" x="329" y="-357.5" font-family="Helvetica,sans-Serif" font-size="10.00"> keys</text>
</g>
<!-- Node13&#45;&gt;Node20 -->
<g id="edge26" class="edge">
<title>Node13&#45;&gt;Node20</title>
<path fill="none" stroke="#9a32cd" stroke-dasharray="5,2" d="M247.9,-224.87C258.79,-215.1 273.47,-203.03 288,-194.5 331.03,-169.24 385.72,-149.86 419.92,-139.07"/>
<polygon fill="#9a32cd" stroke="#9a32cd" points="245.36,-222.45 240.38,-231.8 250.1,-227.6 245.36,-222.45"/>
<text text-anchor="middle" x="329" y="-197.5" font-family="Helvetica,sans-Serif" font-size="10.00"> keys</text>
</g>
<!-- Node13&#45;&gt;Node39 -->
<g id="edge44" class="edge">
<title>Node13&#45;&gt;Node39</title>
<path fill="none" stroke="#9a32cd" stroke-dasharray="5,2" d="M254.11,-235.86C291.89,-226.84 366.38,-209.06 412.56,-198.03"/>
<polygon fill="#9a32cd" stroke="#9a32cd" points="252.97,-232.54 244.05,-238.26 254.59,-239.35 252.97,-232.54"/>
<text text-anchor="middle" x="329" y="-230.5" font-family="Helvetica,sans-Serif" font-size="10.00"> keys</text>
</g>
<!-- Node14&#45;&gt;Node1 -->
<g id="edge17" class="edge">
<title>Node14&#45;&gt;Node1</title>
<path fill="none" stroke="#9a32cd" stroke-dasharray="5,2" d="M823.41,-422.19C881.76,-418.75 969.26,-414.5 1045.5,-414.5 1045.5,-414.5 1045.5,-414.5 1779,-414.5 1847.97,-414.5 1921.82,-370.23 1951.74,-350.17"/>
<polygon fill="#9a32cd" stroke="#9a32cd" points="822.99,-418.71 813.22,-422.8 823.41,-425.7 822.99,-418.71"/>
<text text-anchor="middle" x="1440" y="-417.5" font-family="Helvetica,sans-Serif" font-size="10.00"> functions_to_keep</text>
</g>
<!-- Node15&#45;&gt;Node14 -->
<g id="edge19" class="edge">
<title>Node15&#45;&gt;Node14</title>
<path fill="none" stroke="orange" stroke-dasharray="5,2" d="M477.25,-437.4C493.24,-446.95 515.52,-458.46 537,-463.5 593.25,-476.71 610.35,-474.87 667,-463.5 692.96,-458.29 720.81,-445.28 738.19,-436.17"/>
<polygon fill="orange" stroke="orange" points="478.97,-434.35 468.62,-432.07 475.29,-440.3 478.97,-434.35"/>
<text text-anchor="middle" x="602" y="-475.5" font-family="Helvetica,sans-Serif" font-size="10.00"> &lt; dstringt &gt;</text>
</g>
<!-- Node16 -->
<g id="node16" class="node">
<title>Node16</title>
<g id="a_node16"><a xlink:href="classgoto__modelt.html" target="_top" xlink:title=" ">
<polygon fill="none" stroke="black" points="1739,-280 1739,-299 1817,-299 1817,-280 1739,-280"/>
<text text-anchor="middle" x="1778" y="-287" font-family="Helvetica,sans-Serif" font-size="10.00">goto_modelt</text>
</a>
</g>
</g>
<!-- Node16&#45;&gt;Node1 -->
<g id="edge21" class="edge">
<title>Node16&#45;&gt;Node1</title>
<path fill="none" stroke="#9a32cd" stroke-dasharray="5,2" d="M1823.87,-301.77C1856.63,-310.73 1900.41,-322.7 1930.58,-330.95"/>
<polygon fill="#9a32cd" stroke="#9a32cd" points="1824.65,-298.35 1814.08,-299.09 1822.8,-305.11 1824.65,-298.35"/>
<text text-anchor="middle" x="1865.5" y="-324.5" font-family="Helvetica,sans-Serif" font-size="10.00"> goto_model</text>
</g>
<!-- Node17 -->
<g id="node17" class="node">
<title>Node17</title>
<g id="a_node17"><a xlink:href="classabstract__goto__modelt.html" target="_top" xlink:title="Abstract interface to eager or lazy GOTO models.">
<polygon fill="none" stroke="black" points="1504,-303 1504,-322 1627,-322 1627,-303 1504,-303"/>
<text text-anchor="middle" x="1565.5" y="-310" font-family="Helvetica,sans-Serif" font-size="10.00">abstract_goto_modelt</text>
</a>
</g>
</g>
<!-- Node17&#45;&gt;Node16 -->
<g id="edge22" class="edge">
<title>Node17&#45;&gt;Node16</title>
<path fill="none" stroke="midnightblue" d="M1637.4,-307.11C1663.7,-304.84 1693.75,-301.92 1721,-298.5 1726.76,-297.78 1732.85,-296.91 1738.79,-296"/>
<polygon fill="midnightblue" stroke="midnightblue" points="1636.81,-303.65 1627.14,-307.98 1637.4,-310.62 1636.81,-303.65"/>
</g>
<!-- Node18 -->
<g id="node18" class="node">
<title>Node18</title>
<g id="a_node18"><a xlink:href="classsymbol__tablet.html" target="_top" xlink:title="The symbol table.">
<polygon fill="none" stroke="black" points="1003.5,-141 1003.5,-160 1089.5,-160 1089.5,-141 1003.5,-141"/>
<text text-anchor="middle" x="1046.5" y="-148" font-family="Helvetica,sans-Serif" font-size="10.00">symbol_tablet</text>
</a>
</g>
</g>
<!-- Node18&#45;&gt;Node16 -->
<g id="edge23" class="edge">
<title>Node18&#45;&gt;Node16</title>
<path fill="none" stroke="#9a32cd" stroke-dasharray="5,2" d="M1082.04,-163.69C1118.89,-177.23 1179.25,-197.93 1233,-209.5 1405.35,-246.61 1453.18,-226.02 1627,-255.5 1665.96,-262.11 1710.01,-272.44 1740.24,-279.98"/>
<polygon fill="#9a32cd" stroke="#9a32cd" points="1082.88,-160.27 1072.29,-160.07 1080.45,-166.83 1082.88,-160.27"/>
<text text-anchor="middle" x="1440" y="-242.5" font-family="Helvetica,sans-Serif" font-size="10.00"> symbol_table</text>
</g>
<!-- Node19&#45;&gt;Node18 -->
<g id="edge24" class="edge">
<title>Node19&#45;&gt;Node18</title>
<path fill="none" stroke="midnightblue" d="M824.54,-64.7C871.56,-63.36 934.74,-67.18 985,-90.5 1009.15,-101.71 1029.25,-126.82 1039.06,-140.74"/>
<polygon fill="midnightblue" stroke="midnightblue" points="824.33,-61.2 814.46,-65.07 824.59,-68.2 824.33,-61.2"/>
</g>
<!-- Node20&#45;&gt;Node19 -->
<g id="edge25" class="edge">
<title>Node20&#45;&gt;Node19</title>
<path fill="none" stroke="#9a32cd" stroke-dasharray="5,2" d="M513.52,-114.83C515.45,-113.51 517.29,-112.07 519,-110.5 535.18,-95.66 518.87,-76.88 537,-64.5 595.93,-24.28 686.14,-46.37 729.91,-60.94"/>
<polygon fill="#9a32cd" stroke="#9a32cd" points="511.53,-111.94 504.55,-119.9 514.97,-118.03 511.53,-111.94"/>
<text text-anchor="middle" x="602" y="-78.5" font-family="Helvetica,sans-Serif" font-size="10.00"> symbol_base_map</text>
<text text-anchor="middle" x="602" y="-67.5" font-family="Helvetica,sans-Serif" font-size="10.00">symbol_module_map</text>
</g>
<!-- Node20&#45;&gt;Node21 -->
<g id="edge31" class="edge">
<title>Node20&#45;&gt;Node21</title>
<path fill="none" stroke="orange" stroke-dasharray="5,2" d="M526.85,-124.27C568.1,-122.51 620.64,-122.33 667,-128.5 680.89,-130.35 695.68,-133.76 709.12,-137.45"/>
<polygon fill="orange" stroke="orange" points="526.45,-120.79 516.62,-124.75 526.77,-127.78 526.45,-120.79"/>
<text text-anchor="middle" x="602" y="-131.5" font-family="Helvetica,sans-Serif" font-size="10.00"> &lt; irep_idt, irep_idt &gt;</text>
</g>
<!-- Node21&#45;&gt;Node18 -->
<g id="edge29" class="edge">
<title>Node21&#45;&gt;Node18</title>
<path fill="none" stroke="#9a32cd" stroke-dasharray="5,2" d="M824.16,-151.7C831.53,-151.63 838.92,-151.56 846,-151.5 900.38,-151.06 963.09,-150.78 1003.47,-150.63"/>
<polygon fill="#9a32cd" stroke="#9a32cd" points="824.12,-148.2 814.15,-151.81 824.19,-155.2 824.12,-148.2"/>
<text text-anchor="start" x="848" y="-176.5" font-family="Helvetica,sans-Serif" font-size="10.00"> internal_symbol_module</text>
<text text-anchor="middle" x="915.5" y="-165.5" font-family="Helvetica,sans-Serif" font-size="10.00">_map</text>
<text text-anchor="middle" x="915.5" y="-154.5" font-family="Helvetica,sans-Serif" font-size="10.00">internal_symbol_base_map</text>
</g>
<!-- Node22 -->
<g id="node22" class="node">
<title>Node22</title>
<g id="a_node22"><a xlink:href="classgoto__functionst.html" target="_top" xlink:title="A collection of goto functions.">
<polygon fill="none" stroke="black" points="1519.5,-265 1519.5,-284 1611.5,-284 1611.5,-265 1519.5,-265"/>
<text text-anchor="middle" x="1565.5" y="-272" font-family="Helvetica,sans-Serif" font-size="10.00">goto_functionst</text>
</a>
</g>
</g>
<!-- Node22&#45;&gt;Node16 -->
<g id="edge32" class="edge">
<title>Node22&#45;&gt;Node16</title>
<path fill="none" stroke="#9a32cd" stroke-dasharray="5,2" d="M1621.76,-278.44C1658.67,-281.07 1706.26,-284.46 1738.96,-286.79"/>
<polygon fill="#9a32cd" stroke="#9a32cd" points="1621.88,-274.94 1611.66,-277.72 1621.38,-281.92 1621.88,-274.94"/>
<text text-anchor="middle" x="1683" y="-288.5" font-family="Helvetica,sans-Serif" font-size="10.00"> goto_functions</text>
</g>
<!-- Node23&#45;&gt;Node22 -->
<g id="edge33" class="edge">
<title>Node23&#45;&gt;Node22</title>
<path fill="none" stroke="#9a32cd" stroke-dasharray="5,2" d="M1370.06,-276.75C1416.53,-276.21 1478.05,-275.5 1519.34,-275.02"/>
<polygon fill="#9a32cd" stroke="#9a32cd" points="1369.75,-273.26 1359.79,-276.87 1369.83,-280.25 1369.75,-273.26"/>
<text text-anchor="middle" x="1440" y="-279.5" font-family="Helvetica,sans-Serif" font-size="10.00"> function_map</text>
</g>
<!-- Node24 -->
<g id="node24" class="node">
<title>Node24</title>
<g id="a_node24"><a xlink:href="classgoto__functiont.html" target="_top" xlink:title="A goto function, consisting of function body (see body) and parameter identifiers (see parameter_iden...">
<polygon fill="none" stroke="black" points="1003,-265 1003,-284 1090,-284 1090,-265 1003,-265"/>
<text text-anchor="middle" x="1046.5" y="-272" font-family="Helvetica,sans-Serif" font-size="10.00">goto_functiont</text>
</a>
</g>
</g>
<!-- Node24&#45;&gt;Node23 -->
<g id="edge34" class="edge">
<title>Node24&#45;&gt;Node23</title>
<path fill="none" stroke="#9a32cd" stroke-dasharray="5,2" d="M1100.16,-275.12C1143.7,-275.63 1205.28,-276.35 1249.24,-276.86"/>
<polygon fill="#9a32cd" stroke="#9a32cd" points="1100.1,-271.62 1090.06,-275 1100.02,-278.62 1100.1,-271.62"/>
<text text-anchor="middle" x="1161.5" y="-279.5" font-family="Helvetica,sans-Serif" font-size="10.00"> elements</text>
</g>
<!-- Node25&#45;&gt;Node24 -->
<g id="edge35" class="edge">
<title>Node25&#45;&gt;Node24</title>
<path fill="none" stroke="#9a32cd" stroke-dasharray="5,2" d="M774.08,-371.17C790.73,-354.82 817.88,-330.89 846,-317.5 896.71,-293.37 961.1,-282.63 1002.79,-277.96"/>
<polygon fill="#9a32cd" stroke="#9a32cd" points="771.36,-368.95 766.8,-378.51 776.33,-373.88 771.36,-368.95"/>
<text text-anchor="middle" x="915.5" y="-320.5" font-family="Helvetica,sans-Serif" font-size="10.00"> parameter_identifiers</text>
</g>
<!-- Node26 -->
<g id="node26" class="node">
<title>Node26</title>
<g id="a_node26"><a xlink:href="classgoto__programt.html" target="_top" xlink:title="A generic container class for the GOTO intermediate representation of one function.">
<polygon fill="none" stroke="black" points="712,-99 712,-118 801,-118 801,-99 712,-99"/>
<text text-anchor="middle" x="756.5" y="-106" font-family="Helvetica,sans-Serif" font-size="10.00">goto_programt</text>
</a>
</g>
</g>
<!-- Node26&#45;&gt;Node24 -->
<g id="edge38" class="edge">
<title>Node26&#45;&gt;Node24</title>
<path fill="none" stroke="#9a32cd" stroke-dasharray="5,2" d="M811.37,-101.04C861.26,-97.13 935.09,-99.33 985,-136.5 990.61,-140.68 1029.12,-234.3 1041.6,-264.91"/>
<polygon fill="#9a32cd" stroke="#9a32cd" points="810.75,-97.58 801.1,-101.95 811.37,-104.55 810.75,-97.58"/>
<text text-anchor="middle" x="915.5" y="-139.5" font-family="Helvetica,sans-Serif" font-size="10.00"> body</text>
</g>
<!-- Node27 -->
<g id="node27" class="node">
<title>Node27</title>
<g id="a_node27"><a xlink:title=" ">
<polygon fill="none" stroke="#bfbfbf" points="388,-82 388,-101 519,-101 519,-82 388,-82"/>
<text text-anchor="middle" x="453.5" y="-89" font-family="Helvetica,sans-Serif" font-size="10.00">std::list&lt; instructiont &gt;</text>
</a>
</g>
</g>
<!-- Node27&#45;&gt;Node26 -->
<g id="edge39" class="edge">
<title>Node27&#45;&gt;Node26</title>
<path fill="none" stroke="#9a32cd" stroke-dasharray="5,2" d="M529.38,-89.95C570.14,-89.77 621.42,-90.59 667,-94.5 681.72,-95.76 697.71,-98.02 711.99,-100.35"/>
<polygon fill="#9a32cd" stroke="#9a32cd" points="529.23,-86.45 519.25,-90.02 529.27,-93.45 529.23,-86.45"/>
<text text-anchor="middle" x="602" y="-97.5" font-family="Helvetica,sans-Serif" font-size="10.00"> instructions</text>
</g>
<!-- Node38&#45;&gt;Node27 -->
<g id="edge40" class="edge">
<title>Node38&#45;&gt;Node27</title>
<path fill="none" stroke="orange" stroke-dasharray="5,2" d="M280.45,-120.91C307.06,-116.8 340.34,-111.53 370,-106.5 380.05,-104.79 390.77,-102.9 401.04,-101.05"/>
<polygon fill="orange" stroke="orange" points="279.58,-117.51 270.23,-122.49 280.64,-124.42 279.58,-117.51"/>
<text text-anchor="middle" x="329" y="-122.5" font-family="Helvetica,sans-Serif" font-size="10.00"> &lt; instructiont &gt;</text>
</g>
<!-- Node40 -->
<g id="node30" class="node">
<title>Node40</title>
<g id="a_node30"><a xlink:title=" ">
<polygon fill="none" stroke="#bfbfbf" points="391.5,-6 391.5,-25 515.5,-25 515.5,-6 391.5,-6"/>
<text text-anchor="middle" x="453.5" y="-13" font-family="Helvetica,sans-Serif" font-size="10.00">std::list&lt; std::string &gt;</text>
</a>
</g>
</g>
<!-- Node38&#45;&gt;Node40 -->
<g id="edge49" class="edge">
<title>Node38&#45;&gt;Node40</title>
<path fill="none" stroke="orange" stroke-dasharray="5,2" d="M253.85,-113.53C264.17,-107.11 276.55,-99.68 288,-93.5 337.93,-66.56 398.72,-39.05 430.59,-25.02"/>
<polygon fill="orange" stroke="orange" points="251.99,-110.57 245.38,-118.85 255.71,-116.49 251.99,-110.57"/>
<text text-anchor="middle" x="329" y="-96.5" font-family="Helvetica,sans-Serif" font-size="10.00"> &lt; std::string &gt;</text>
</g>
<!-- Node39&#45;&gt;Node23 -->
<g id="edge43" class="edge">
<title>Node39&#45;&gt;Node23</title>
<path fill="none" stroke="orange" stroke-dasharray="5,2" d="M514.57,-191.25C557.16,-193.42 615.65,-196.87 667,-201.5 883.13,-221 1139.31,-254.89 1249.12,-269.93"/>
<polygon fill="orange" stroke="orange" points="514.53,-187.74 504.37,-190.74 514.18,-194.73 514.53,-187.74"/>
<text text-anchor="middle" x="915.5" y="-238.5" font-family="Helvetica,sans-Serif" font-size="10.00"> &lt; irep_idt, goto_functiont &gt;</text>
</g>
<!-- Node40&#45;&gt;Node1 -->
<g id="edge46" class="edge">
<title>Node40&#45;&gt;Node1</title>
<path fill="none" stroke="#9a32cd" stroke-dasharray="5,2" d="M525.89,-15.5C586.88,-15.5 676.96,-15.5 755.5,-15.5 755.5,-15.5 755.5,-15.5 1779,-15.5 1928.3,-15.5 1959.8,-276.7 1964.72,-330.77"/>
<polygon fill="#9a32cd" stroke="#9a32cd" points="525.61,-12 515.61,-15.5 525.61,-19 525.61,-12"/>
<text text-anchor="middle" x="1304.5" y="-29.5" font-family="Helvetica,sans-Serif" font-size="10.00"> name_snippets</text>
<text text-anchor="middle" x="1304.5" y="-18.5" font-family="Helvetica,sans-Serif" font-size="10.00">user_specified_properties</text>
</g>
<!-- Node41 -->
<g id="node31" class="node">
<title>Node41</title>
<g id="a_node31"><a xlink:title="STL class.">
<polygon fill="none" stroke="#bfbfbf" points="197,-6 197,-25 262,-25 262,-6 197,-6"/>
<text text-anchor="middle" x="229.5" y="-13" font-family="Helvetica,sans-Serif" font-size="10.00">std::string</text>
</a>
</g>
</g>
<!-- Node41&#45;&gt;Node40 -->
<g id="edge47" class="edge">
<title>Node41&#45;&gt;Node40</title>
<path fill="none" stroke="#9a32cd" stroke-dasharray="5,2" d="M272.69,-15.5C306.26,-15.5 353.69,-15.5 391.42,-15.5"/>
<polygon fill="#9a32cd" stroke="#9a32cd" points="272.31,-12 262.31,-15.5 272.31,-19 272.31,-12"/>
<text text-anchor="middle" x="329" y="-18.5" font-family="Helvetica,sans-Serif" font-size="10.00"> elements</text>
</g>
<!-- Node42 -->
<g id="node32" class="node">
<title>Node42</title>
<g id="a_node32"><a xlink:title="STL class.">
<polygon fill="none" stroke="#bfbfbf" points="0,-0.5 0,-30.5 104,-30.5 104,-0.5 0,-0.5"/>
<text text-anchor="start" x="8" y="-18.5" font-family="Helvetica,sans-Serif" font-size="10.00">std::basic_string&lt;</text>
<text text-anchor="middle" x="52" y="-7.5" font-family="Helvetica,sans-Serif" font-size="10.00"> char &gt;</text>
</a>
</g>
</g>
<!-- Node42&#45;&gt;Node41 -->
<g id="edge48" class="edge">
<title>Node42&#45;&gt;Node41</title>
<path fill="none" stroke="midnightblue" d="M114.28,-15.5C142.11,-15.5 173.85,-15.5 196.8,-15.5"/>
<polygon fill="midnightblue" stroke="midnightblue" points="114.23,-12 104.23,-15.5 114.23,-19 114.23,-12"/>
</g>
</g>
</svg>
