<?xml version="1.0" encoding="UTF-8" standalone="no"?>
<!DOCTYPE svg PUBLIC "-//W3C//DTD SVG 1.1//EN"
 "http://www.w3.org/Graphics/SVG/1.1/DTD/svg11.dtd">
<!-- Generated by graphviz version 2.43.0 (0)
 -->
<!-- Title: static_verifier_resultt Pages: 1 -->
<svg width="1709pt" height="141pt"
 viewBox="0.00 0.00 1709.00 140.50" xmlns="http://www.w3.org/2000/svg" xmlns:xlink="http://www.w3.org/1999/xlink">
<g id="graph0" class="graph" transform="scale(1 1) rotate(0) translate(4 136.5)">
<title>static_verifier_resultt</title>
<!-- Node1 -->
<g id="node1" class="node">
<title>Node1</title>
<g id="a_node1"><a xlink:title="The result of verifying a single assertion As well as the status of the assertion (see above),...">
<polygon fill="#bfbfbf" stroke="black" points="1581,-55 1581,-74 1701,-74 1701,-55 1581,-55"/>
<text text-anchor="middle" x="1641" y="-62" font-family="Helvetica,sans-Serif" font-size="10.00">static_verifier_resultt</text>
</a>
</g>
</g>
<!-- Node2 -->
<g id="node2" class="node">
<title>Node2</title>
<g id="a_node2"><a xlink:href="classdstringt.html" target="_top" xlink:title="dstringt has one field, an unsigned integer no which is an index into a static table of strings.">
<polygon fill="none" stroke="black" points="214.5,-101 214.5,-120 268.5,-120 268.5,-101 214.5,-101"/>
<text text-anchor="middle" x="241.5" y="-108" font-family="Helvetica,sans-Serif" font-size="10.00">dstringt</text>
</a>
</g>
</g>
<!-- Node2&#45;&gt;Node1 -->
<g id="edge1" class="edge">
<title>Node2&#45;&gt;Node1</title>
<path fill="none" stroke="#9a32cd" stroke-dasharray="5,2" d="M278.64,-113.72C318.21,-116.97 383.57,-121.5 440,-121.5 440,-121.5 440,-121.5 1396,-121.5 1478.44,-121.5 1572.53,-90.27 1615.85,-74.04"/>
<polygon fill="#9a32cd" stroke="#9a32cd" points="278.93,-110.23 268.67,-112.89 278.34,-117.21 278.93,-110.23"/>
<text text-anchor="middle" x="983.5" y="-124.5" font-family="Helvetica,sans-Serif" font-size="10.00"> function_id</text>
</g>
<!-- Node9 -->
<g id="node9" class="node">
<title>Node9</title>
<g id="a_node9"><a xlink:href="classtree__nodet.html" target="_top" xlink:title="A node with data in a tree, it contains:">
<polygon fill="none" stroke="black" points="362,-47.5 362,-77.5 520,-77.5 520,-47.5 362,-47.5"/>
<text text-anchor="start" x="370" y="-65.5" font-family="Helvetica,sans-Serif" font-size="10.00">tree_nodet&lt; treet,</text>
<text text-anchor="middle" x="441" y="-54.5" font-family="Helvetica,sans-Serif" font-size="10.00"> named_subtreest, sharing &gt;</text>
</a>
</g>
</g>
<!-- Node2&#45;&gt;Node9 -->
<g id="edge12" class="edge">
<title>Node2&#45;&gt;Node9</title>
<path fill="none" stroke="#9a32cd" stroke-dasharray="5,2" d="M278.76,-101.69C306.45,-94.96 345.26,-85.52 377.87,-77.6"/>
<polygon fill="#9a32cd" stroke="#9a32cd" points="277.62,-98.36 268.73,-104.13 279.27,-105.17 277.62,-98.36"/>
<text text-anchor="middle" x="331.5" y="-93.5" font-family="Helvetica,sans-Serif" font-size="10.00"> data</text>
</g>
<!-- Node3 -->
<g id="node3" class="node">
<title>Node3</title>
<g id="a_node3"><a xlink:title=" ">
<polygon fill="none" stroke="#bfbfbf" points="1337,-4.5 1337,-34.5 1453,-34.5 1453,-4.5 1337,-4.5"/>
<text text-anchor="start" x="1345" y="-22.5" font-family="Helvetica,sans-Serif" font-size="10.00">std::set&lt; trace_ptrt,</text>
<text text-anchor="middle" x="1395" y="-11.5" font-family="Helvetica,sans-Serif" font-size="10.00"> compare_historyt &gt;</text>
</a>
</g>
</g>
<!-- Node3&#45;&gt;Node1 -->
<g id="edge2" class="edge">
<title>Node3&#45;&gt;Node1</title>
<path fill="none" stroke="#9a32cd" stroke-dasharray="5,2" d="M1463.46,-23.89C1494.09,-26.73 1530.63,-31.28 1563,-38.5 1581.18,-42.55 1601.08,-49.34 1616.1,-54.96"/>
<polygon fill="#9a32cd" stroke="#9a32cd" points="1463.58,-20.39 1453.31,-23 1462.96,-27.36 1463.58,-20.39"/>
<text text-anchor="middle" x="1517" y="-52.5" font-family="Helvetica,sans-Serif" font-size="10.00"> false_histories</text>
<text text-anchor="middle" x="1517" y="-41.5" font-family="Helvetica,sans-Serif" font-size="10.00">unknown_histories</text>
</g>
<!-- Node4 -->
<g id="node4" class="node">
<title>Node4</title>
<g id="a_node4"><a xlink:title="STL class.">
<polygon fill="none" stroke="#bfbfbf" points="1108,-7 1108,-26 1190,-26 1190,-7 1108,-7"/>
<text text-anchor="middle" x="1149" y="-14" font-family="Helvetica,sans-Serif" font-size="10.00">std::set&lt; K &gt;</text>
</a>
</g>
</g>
<!-- Node4&#45;&gt;Node3 -->
<g id="edge3" class="edge">
<title>Node4&#45;&gt;Node3</title>
<path fill="none" stroke="orange" stroke-dasharray="5,2" d="M1200.25,-17.12C1239.9,-17.61 1295.24,-18.29 1336.63,-18.79"/>
<polygon fill="orange" stroke="orange" points="1200.06,-13.62 1190.02,-16.99 1199.97,-20.61 1200.06,-13.62"/>
<text text-anchor="start" x="1208" y="-33.5" font-family="Helvetica,sans-Serif" font-size="10.00"> &lt; trace_ptrt, compare</text>
<text text-anchor="middle" x="1263.5" y="-22.5" font-family="Helvetica,sans-Serif" font-size="10.00">_historyt &gt;</text>
</g>
<!-- Node5 -->
<g id="node5" class="node">
<title>Node5</title>
<g id="a_node5"><a xlink:title=" ">
<polygon fill="none" stroke="#bfbfbf" points="969,-6 969,-25 998,-25 998,-6 969,-6"/>
<text text-anchor="middle" x="983.5" y="-13" font-family="Helvetica,sans-Serif" font-size="10.00">K</text>
</a>
</g>
</g>
<!-- Node5&#45;&gt;Node4 -->
<g id="edge4" class="edge">
<title>Node5&#45;&gt;Node4</title>
<path fill="none" stroke="#9a32cd" stroke-dasharray="5,2" d="M1008.26,-15.65C1034.34,-15.8 1076.65,-16.06 1107.89,-16.25"/>
<polygon fill="#9a32cd" stroke="#9a32cd" points="1008.18,-12.14 998.16,-15.58 1008.14,-19.14 1008.18,-12.14"/>
<text text-anchor="middle" x="1077" y="-19.5" font-family="Helvetica,sans-Serif" font-size="10.00"> keys</text>
</g>
<!-- Node6 -->
<g id="node6" class="node">
<title>Node6</title>
<g id="a_node6"><a xlink:href="classsource__locationt.html" target="_top" xlink:title=" ">
<polygon fill="none" stroke="black" points="1346.5,-55 1346.5,-74 1443.5,-74 1443.5,-55 1346.5,-55"/>
<text text-anchor="middle" x="1395" y="-62" font-family="Helvetica,sans-Serif" font-size="10.00">source_locationt</text>
</a>
</g>
</g>
<!-- Node6&#45;&gt;Node1 -->
<g id="edge5" class="edge">
<title>Node6&#45;&gt;Node1</title>
<path fill="none" stroke="#9a32cd" stroke-dasharray="5,2" d="M1454.09,-64.5C1492.37,-64.5 1542.35,-64.5 1580.84,-64.5"/>
<polygon fill="#9a32cd" stroke="#9a32cd" points="1453.62,-61 1443.62,-64.5 1453.62,-68 1453.62,-61"/>
<text text-anchor="middle" x="1517" y="-67.5" font-family="Helvetica,sans-Serif" font-size="10.00"> source_location</text>
</g>
<!-- Node7 -->
<g id="node7" class="node">
<title>Node7</title>
<g id="a_node7"><a xlink:href="classirept.html" target="_top" xlink:title="There are a large number of kinds of tree structured or tree&#45;like data in CPROVER.">
<polygon fill="none" stroke="black" points="1129.5,-55 1129.5,-74 1168.5,-74 1168.5,-55 1129.5,-55"/>
<text text-anchor="middle" x="1149" y="-62" font-family="Helvetica,sans-Serif" font-size="10.00">irept</text>
</a>
</g>
</g>
<!-- Node7&#45;&gt;Node6 -->
<g id="edge6" class="edge">
<title>Node7&#45;&gt;Node6</title>
<path fill="none" stroke="midnightblue" d="M1178.92,-64.5C1220.19,-64.5 1296.48,-64.5 1346.22,-64.5"/>
<polygon fill="midnightblue" stroke="midnightblue" points="1178.74,-61 1168.74,-64.5 1178.74,-68 1178.74,-61"/>
</g>
<!-- Node8 -->
<g id="node8" class="node">
<title>Node8</title>
<g id="a_node8"><a xlink:href="classsharing__treet.html" target="_top" xlink:title=" ">
<polygon fill="none" stroke="black" points="921,-44 921,-85 1046,-85 1046,-44 921,-44"/>
<text text-anchor="start" x="929" y="-73" font-family="Helvetica,sans-Serif" font-size="10.00">sharing_treet&lt; irept,</text>
<text text-anchor="start" x="929" y="-62" font-family="Helvetica,sans-Serif" font-size="10.00"> forward_list_as_mapt</text>
<text text-anchor="middle" x="983.5" y="-51" font-family="Helvetica,sans-Serif" font-size="10.00">&lt; irep_idt, irept &gt; &gt;</text>
</a>
</g>
</g>
<!-- Node8&#45;&gt;Node7 -->
<g id="edge7" class="edge">
<title>Node8&#45;&gt;Node7</title>
<path fill="none" stroke="midnightblue" d="M1056.45,-64.5C1083.14,-64.5 1111.25,-64.5 1129.16,-64.5"/>
<polygon fill="midnightblue" stroke="midnightblue" points="1056.31,-61 1046.31,-64.5 1056.31,-68 1056.31,-61"/>
</g>
<!-- Node9&#45;&gt;Node8 -->
<g id="edge8" class="edge">
<title>Node9&#45;&gt;Node8</title>
<path fill="none" stroke="#9a32cd" stroke-dasharray="5,2" d="M530.08,-62.83C639.97,-63.23 825.05,-63.92 920.87,-64.27"/>
<polygon fill="#9a32cd" stroke="#9a32cd" points="530.03,-59.33 520.02,-62.79 530,-66.33 530.03,-59.33"/>
<text text-anchor="middle" x="670" y="-77.5" font-family="Helvetica,sans-Serif" font-size="10.00"> empty_d</text>
<text text-anchor="middle" x="670" y="-66.5" font-family="Helvetica,sans-Serif" font-size="10.00">data</text>
</g>
<!-- Node14 -->
<g id="node13" class="node">
<title>Node14</title>
<g id="a_node13"><a xlink:href="classsharing__treet.html" target="_top" xlink:title="Base class for tree&#45;like data structures with sharing.">
<polygon fill="none" stroke="black" points="602,-0.5 602,-30.5 738,-30.5 738,-0.5 602,-0.5"/>
<text text-anchor="start" x="610" y="-18.5" font-family="Helvetica,sans-Serif" font-size="10.00">sharing_treet&lt; derivedt,</text>
<text text-anchor="middle" x="670" y="-7.5" font-family="Helvetica,sans-Serif" font-size="10.00"> named_subtreest &gt;</text>
</a>
</g>
</g>
<!-- Node9&#45;&gt;Node14 -->
<g id="edge14" class="edge">
<title>Node9&#45;&gt;Node14</title>
<path fill="none" stroke="#9a32cd" stroke-dasharray="5,2" d="M492.45,-44.22C506.99,-39.49 522.99,-34.81 538,-31.5 558.59,-26.96 581.29,-23.62 601.94,-21.2"/>
<polygon fill="#9a32cd" stroke="#9a32cd" points="491.02,-41 482.64,-47.48 493.23,-47.64 491.02,-41"/>
<text text-anchor="middle" x="561" y="-45.5" font-family="Helvetica,sans-Serif" font-size="10.00"> empty_d</text>
<text text-anchor="middle" x="561" y="-34.5" font-family="Helvetica,sans-Serif" font-size="10.00">data</text>
</g>
<!-- Node10 -->
<g id="node10" class="node">
<title>Node10</title>
<g id="a_node10"><a xlink:href="structref__count__ift_3_01true_01_4.html" target="_top" xlink:title=" ">
<polygon fill="none" stroke="black" points="182,-53 182,-72 301,-72 301,-53 182,-53"/>
<text text-anchor="middle" x="241.5" y="-60" font-family="Helvetica,sans-Serif" font-size="10.00">ref_count_ift&lt; true &gt;</text>
</a>
</g>
</g>
<!-- Node10&#45;&gt;Node9 -->
<g id="edge9" class="edge">
<title>Node10&#45;&gt;Node9</title>
<path fill="none" stroke="midnightblue" d="M311.67,-62.5C327.85,-62.5 345.2,-62.5 361.75,-62.5"/>
<polygon fill="midnightblue" stroke="midnightblue" points="311.22,-59 301.22,-62.5 311.22,-66 311.22,-59"/>
</g>
<!-- Node11 -->
<g id="node11" class="node">
<title>Node11</title>
<g id="a_node11"><a xlink:title=" ">
<polygon fill="none" stroke="#bfbfbf" points="184.5,-15 184.5,-34 298.5,-34 298.5,-15 184.5,-15"/>
<text text-anchor="middle" x="241.5" y="-22" font-family="Helvetica,sans-Serif" font-size="10.00">std::vector&lt; treet &gt;</text>
</a>
</g>
</g>
<!-- Node11&#45;&gt;Node9 -->
<g id="edge10" class="edge">
<title>Node11&#45;&gt;Node9</title>
<path fill="none" stroke="#9a32cd" stroke-dasharray="5,2" d="M302,-35.95C320.85,-39.58 341.98,-43.64 361.93,-47.48"/>
<polygon fill="#9a32cd" stroke="#9a32cd" points="302.56,-32.49 292.08,-34.04 301.24,-39.37 302.56,-32.49"/>
<text text-anchor="middle" x="331.5" y="-46.5" font-family="Helvetica,sans-Serif" font-size="10.00"> sub</text>
</g>
<!-- Node12 -->
<g id="node12" class="node">
<title>Node12</title>
<g id="a_node12"><a xlink:title="STL class.">
<polygon fill="none" stroke="#bfbfbf" points="0,-15 0,-34 97,-34 97,-15 0,-15"/>
<text text-anchor="middle" x="48.5" y="-22" font-family="Helvetica,sans-Serif" font-size="10.00">std::vector&lt; T &gt;</text>
</a>
</g>
</g>
<!-- Node12&#45;&gt;Node11 -->
<g id="edge11" class="edge">
<title>Node12&#45;&gt;Node11</title>
<path fill="none" stroke="orange" stroke-dasharray="5,2" d="M107.39,-24.5C131.77,-24.5 160.05,-24.5 184.25,-24.5"/>
<polygon fill="orange" stroke="orange" points="107.2,-21 97.2,-24.5 107.2,-28 107.2,-21"/>
<text text-anchor="middle" x="139.5" y="-27.5" font-family="Helvetica,sans-Serif" font-size="10.00"> &lt; treet &gt;</text>
</g>
<!-- Node14&#45;&gt;Node8 -->
<g id="edge13" class="edge">
<title>Node14&#45;&gt;Node8</title>
<path fill="none" stroke="orange" stroke-dasharray="5,2" d="M748.22,-14.6C793.8,-15.6 852.31,-19.57 903,-31.5 915.36,-34.41 928.28,-39.03 940.02,-43.89"/>
<polygon fill="orange" stroke="orange" points="748.17,-11.1 738.11,-14.42 748.04,-18.09 748.17,-11.1"/>
<text text-anchor="start" x="756" y="-45.5" font-family="Helvetica,sans-Serif" font-size="10.00"> &lt; irept, forward_list</text>
<text text-anchor="middle" x="829.5" y="-34.5" font-family="Helvetica,sans-Serif" font-size="10.00">_as_mapt&lt; irep_idt, irept &gt; &gt;</text>
</g>
</g>
</svg>
