<?xml version="1.0" encoding="UTF-8" standalone="no"?>
<!DOCTYPE svg PUBLIC "-//W3C//DTD SVG 1.1//EN"
 "http://www.w3.org/Graphics/SVG/1.1/DTD/svg11.dtd">
<!-- Generated by graphviz version 2.43.0 (0)
 -->
<!-- Title: goto_programt Pages: 1 -->
<svg width="287pt" height="440pt"
 viewBox="0.00 0.00 287.00 440.00" xmlns="http://www.w3.org/2000/svg" xmlns:xlink="http://www.w3.org/1999/xlink">
<g id="graph0" class="graph" transform="scale(1 1) rotate(0) translate(4 436)">
<title>goto_programt</title>
<!-- Node1 -->
<g id="node1" class="node">
<title>Node1</title>
<g id="a_node1"><a xlink:title="A generic container class for the GOTO intermediate representation of one function.">
<polygon fill="#bfbfbf" stroke="black" points="102.5,-0.5 102.5,-19.5 191.5,-19.5 191.5,-0.5 102.5,-0.5"/>
<text text-anchor="middle" x="147" y="-7.5" font-family="Helvetica,sans-Serif" font-size="10.00">goto_programt</text>
</a>
</g>
</g>
<!-- Node2 -->
<g id="node2" class="node">
<title>Node2</title>
<g id="a_node2"><a xlink:title=" ">
<polygon fill="none" stroke="#bfbfbf" points="81.5,-67.5 81.5,-86.5 212.5,-86.5 212.5,-67.5 81.5,-67.5"/>
<text text-anchor="middle" x="147" y="-74.5" font-family="Helvetica,sans-Serif" font-size="10.00">std::list&lt; instructiont &gt;</text>
</a>
</g>
</g>
<!-- Node2&#45;&gt;Node1 -->
<g id="edge1" class="edge">
<title>Node2&#45;&gt;Node1</title>
<path fill="none" stroke="#9a32cd" stroke-dasharray="5,2" d="M147,-57.04C147,-44.67 147,-29.12 147,-19.63"/>
<polygon fill="#9a32cd" stroke="#9a32cd" points="143.5,-57.23 147,-67.23 150.5,-57.23 143.5,-57.23"/>
<text text-anchor="middle" x="177.5" y="-41" font-family="Helvetica,sans-Serif" font-size="10.00"> instructions</text>
</g>
<!-- Node3 -->
<g id="node3" class="node">
<title>Node3</title>
<g id="a_node3"><a xlink:href="structstatement__list__parse__treet_1_1instructiont.html" target="_top" xlink:title="Represents a regular Statement List instruction which consists out of one or more codet tokens.">
<polygon fill="none" stroke="black" points="42.5,-134.5 42.5,-164.5 161.5,-164.5 161.5,-134.5 42.5,-134.5"/>
<text text-anchor="start" x="50.5" y="-152.5" font-family="Helvetica,sans-Serif" font-size="10.00">statement_list_parse</text>
<text text-anchor="middle" x="102" y="-141.5" font-family="Helvetica,sans-Serif" font-size="10.00">_treet::instructiont</text>
</a>
</g>
</g>
<!-- Node3&#45;&gt;Node2 -->
<g id="edge2" class="edge">
<title>Node3&#45;&gt;Node2</title>
<path fill="none" stroke="#9a32cd" stroke-dasharray="5,2" d="M115.26,-125.59C119.26,-118.89 123.72,-111.59 128,-105 132,-98.85 136.75,-92.1 140.5,-86.89"/>
<polygon fill="#9a32cd" stroke="#9a32cd" points="112.23,-123.84 110.17,-134.23 118.26,-127.39 112.23,-123.84"/>
<text text-anchor="middle" x="152.5" y="-108" font-family="Helvetica,sans-Serif" font-size="10.00"> elements</text>
</g>
<!-- Node4 -->
<g id="node4" class="node">
<title>Node4</title>
<g id="a_node4"><a xlink:title=" ">
<polygon fill="none" stroke="#bfbfbf" points="35,-212.5 35,-231.5 153,-231.5 153,-212.5 35,-212.5"/>
<text text-anchor="middle" x="94" y="-219.5" font-family="Helvetica,sans-Serif" font-size="10.00">std::vector&lt; codet &gt;</text>
</a>
</g>
</g>
<!-- Node4&#45;&gt;Node3 -->
<g id="edge3" class="edge">
<title>Node4&#45;&gt;Node3</title>
<path fill="none" stroke="#9a32cd" stroke-dasharray="5,2" d="M96.13,-202.24C97.47,-190.41 99.18,-175.38 100.4,-164.58"/>
<polygon fill="#9a32cd" stroke="#9a32cd" points="92.63,-202.02 94.98,-212.36 99.59,-202.81 92.63,-202.02"/>
<text text-anchor="middle" x="117" y="-186" font-family="Helvetica,sans-Serif" font-size="10.00"> tokens</text>
</g>
<!-- Node5 -->
<g id="node5" class="node">
<title>Node5</title>
<g id="a_node5"><a xlink:href="classcodet.html" target="_top" xlink:title="Data structure for representing an arbitrary statement in a program.">
<polygon fill="none" stroke="black" points="0,-288.5 0,-307.5 44,-307.5 44,-288.5 0,-288.5"/>
<text text-anchor="middle" x="22" y="-295.5" font-family="Helvetica,sans-Serif" font-size="10.00">codet</text>
</a>
</g>
</g>
<!-- Node5&#45;&gt;Node4 -->
<g id="edge4" class="edge">
<title>Node5&#45;&gt;Node4</title>
<path fill="none" stroke="#9a32cd" stroke-dasharray="5,2" d="M23.44,-278.35C25.02,-268.94 28.29,-257.87 35,-250 42.16,-241.6 52.48,-235.67 62.5,-231.56"/>
<polygon fill="#9a32cd" stroke="#9a32cd" points="19.96,-278.02 22.26,-288.36 26.91,-278.84 19.96,-278.02"/>
<text text-anchor="middle" x="59.5" y="-257.5" font-family="Helvetica,sans-Serif" font-size="10.00"> elements</text>
</g>
<!-- Node6 -->
<g id="node6" class="node">
<title>Node6</title>
<g id="a_node6"><a xlink:href="classexprt.html" target="_top" xlink:title="Base class for all expressions.">
<polygon fill="none" stroke="black" points="1,-355.5 1,-374.5 43,-374.5 43,-355.5 1,-355.5"/>
<text text-anchor="middle" x="22" y="-362.5" font-family="Helvetica,sans-Serif" font-size="10.00">exprt</text>
</a>
</g>
</g>
<!-- Node6&#45;&gt;Node5 -->
<g id="edge5" class="edge">
<title>Node6&#45;&gt;Node5</title>
<path fill="none" stroke="midnightblue" d="M22,-345.04C22,-332.67 22,-317.12 22,-307.63"/>
<polygon fill="midnightblue" stroke="midnightblue" points="18.5,-345.23 22,-355.23 25.5,-345.23 18.5,-345.23"/>
</g>
<!-- Node7 -->
<g id="node7" class="node">
<title>Node7</title>
<g id="a_node7"><a xlink:href="classirept.html" target="_top" xlink:title="There are a large number of kinds of tree structured or tree&#45;like data in CPROVER.">
<polygon fill="none" stroke="red" points="2.5,-412.5 2.5,-431.5 41.5,-431.5 41.5,-412.5 2.5,-412.5"/>
<text text-anchor="middle" x="22" y="-419.5" font-family="Helvetica,sans-Serif" font-size="10.00">irept</text>
</a>
</g>
</g>
<!-- Node7&#45;&gt;Node6 -->
<g id="edge6" class="edge">
<title>Node7&#45;&gt;Node6</title>
<path fill="none" stroke="midnightblue" d="M22,-402.12C22,-392.82 22,-382.06 22,-374.71"/>
<polygon fill="midnightblue" stroke="midnightblue" points="18.5,-402.41 22,-412.41 25.5,-402.41 18.5,-402.41"/>
</g>
<!-- Node12 -->
<g id="node8" class="node">
<title>Node12</title>
<g id="a_node8"><a xlink:title="STL class.">
<polygon fill="none" stroke="#bfbfbf" points="64.5,-288.5 64.5,-307.5 161.5,-307.5 161.5,-288.5 64.5,-288.5"/>
<text text-anchor="middle" x="113" y="-295.5" font-family="Helvetica,sans-Serif" font-size="10.00">std::vector&lt; T &gt;</text>
</a>
</g>
</g>
<!-- Node12&#45;&gt;Node4 -->
<g id="edge7" class="edge">
<title>Node12&#45;&gt;Node4</title>
<path fill="none" stroke="orange" stroke-dasharray="5,2" d="M95.86,-280.42C93.46,-277.21 91.36,-273.68 90,-270 85.3,-257.24 88.38,-241.27 91.12,-231.61"/>
<polygon fill="orange" stroke="orange" points="93.37,-282.88 102.58,-288.11 98.64,-278.28 93.37,-282.88"/>
<text text-anchor="middle" x="116.5" y="-257.5" font-family="Helvetica,sans-Serif" font-size="10.00"> &lt; codet &gt;</text>
</g>
<!-- Node13 -->
<g id="node9" class="node">
<title>Node13</title>
<g id="a_node9"><a xlink:title=" ">
<polygon fill="none" stroke="#bfbfbf" points="139.5,-355.5 139.5,-374.5 168.5,-374.5 168.5,-355.5 139.5,-355.5"/>
<text text-anchor="middle" x="154" y="-362.5" font-family="Helvetica,sans-Serif" font-size="10.00">T</text>
</a>
</g>
</g>
<!-- Node13&#45;&gt;Node12 -->
<g id="edge8" class="edge">
<title>Node13&#45;&gt;Node12</title>
<path fill="none" stroke="#9a32cd" stroke-dasharray="5,2" d="M131.08,-349.58C126.83,-345.95 122.84,-341.72 120,-337 114.61,-328.03 113.19,-315.88 112.9,-307.76"/>
<polygon fill="#9a32cd" stroke="#9a32cd" points="129.26,-352.59 139.35,-355.8 133.46,-346.99 129.26,-352.59"/>
<text text-anchor="middle" x="144.5" y="-329" font-family="Helvetica,sans-Serif" font-size="10.00"> elements</text>
</g>
<!-- Node16 -->
<g id="node10" class="node">
<title>Node16</title>
<g id="a_node10"><a xlink:title="STL class.">
<polygon fill="none" stroke="#bfbfbf" points="152.5,-250.5 152.5,-269.5 233.5,-269.5 233.5,-250.5 152.5,-250.5"/>
<text text-anchor="middle" x="193" y="-257.5" font-family="Helvetica,sans-Serif" font-size="10.00">std::list&lt; T &gt;</text>
</a>
</g>
</g>
<!-- Node13&#45;&gt;Node16 -->
<g id="edge10" class="edge">
<title>Node13&#45;&gt;Node16</title>
<path fill="none" stroke="#9a32cd" stroke-dasharray="5,2" d="M164.52,-346.25C166.13,-343.21 167.69,-340.05 169,-337 179.18,-313.36 187.23,-283.95 190.88,-269.64"/>
<polygon fill="#9a32cd" stroke="#9a32cd" points="161.32,-344.8 159.46,-355.23 167.42,-348.23 161.32,-344.8"/>
<text text-anchor="middle" x="198.5" y="-329" font-family="Helvetica,sans-Serif" font-size="10.00"> elements</text>
</g>
<!-- Node16&#45;&gt;Node2 -->
<g id="edge9" class="edge">
<title>Node16&#45;&gt;Node2</title>
<path fill="none" stroke="orange" stroke-dasharray="5,2" d="M195.18,-240.42C197.86,-210.22 199.59,-149.4 177,-105 173.25,-97.63 166.58,-91.32 160.48,-86.65"/>
<polygon fill="orange" stroke="orange" points="191.7,-240.09 194.16,-250.4 198.66,-240.81 191.7,-240.09"/>
<text text-anchor="middle" x="238" y="-186" font-family="Helvetica,sans-Serif" font-size="10.00"> &lt; instructiont &gt;</text>
</g>
</g>
</svg>
