<?xml version="1.0" encoding="UTF-8" standalone="no"?>
<!DOCTYPE svg PUBLIC "-//W3C//DTD SVG 1.1//EN"
 "http://www.w3.org/Graphics/SVG/1.1/DTD/svg11.dtd">
<!-- Generated by graphviz version 2.43.0 (0)
 -->
<!-- Title: cover_basic_blocks_javat Pages: 1 -->
<svg width="1848pt" height="315pt"
 viewBox="0.00 0.00 1848.00 314.50" xmlns="http://www.w3.org/2000/svg" xmlns:xlink="http://www.w3.org/1999/xlink">
<g id="graph0" class="graph" transform="scale(1 1) rotate(0) translate(4 310.5)">
<title>cover_basic_blocks_javat</title>
<!-- Node1 -->
<g id="node1" class="node">
<title>Node1</title>
<g id="a_node1"><a xlink:title=" ">
<polygon fill="#bfbfbf" stroke="black" points="1729,-163 1729,-193 1840,-193 1840,-163 1729,-163"/>
<text text-anchor="start" x="1737" y="-181" font-family="Helvetica,sans-Serif" font-size="10.00">cover_basic_blocks</text>
<text text-anchor="middle" x="1784.5" y="-170" font-family="Helvetica,sans-Serif" font-size="10.00">_javat</text>
</a>
</g>
</g>
<!-- Node2 -->
<g id="node2" class="node">
<title>Node2</title>
<g id="a_node2"><a xlink:href="classcover__blocks__baset.html" target="_top" xlink:title=" ">
<polygon fill="none" stroke="black" points="1464.5,-261.5 1464.5,-280.5 1577.5,-280.5 1577.5,-261.5 1464.5,-261.5"/>
<text text-anchor="middle" x="1521" y="-268.5" font-family="Helvetica,sans-Serif" font-size="10.00">cover_blocks_baset</text>
</a>
</g>
</g>
<!-- Node2&#45;&gt;Node1 -->
<g id="edge1" class="edge">
<title>Node2&#45;&gt;Node1</title>
<path fill="none" stroke="midnightblue" d="M1587.96,-260.59C1625.09,-253.36 1671.74,-241.92 1711,-225 1730.29,-216.69 1750.16,-203.41 1764.21,-193.08"/>
<polygon fill="midnightblue" stroke="midnightblue" points="1586.93,-257.23 1577.75,-262.52 1588.23,-264.1 1586.93,-257.23"/>
</g>
<!-- Node3 -->
<g id="node3" class="node">
<title>Node3</title>
<g id="a_node3"><a xlink:title=" ">
<polygon fill="none" stroke="#bfbfbf" points="1445,-212 1445,-242 1597,-242 1597,-212 1445,-212"/>
<text text-anchor="start" x="1453" y="-230" font-family="Helvetica,sans-Serif" font-size="10.00">std::vector&lt; goto_programt</text>
<text text-anchor="middle" x="1521" y="-219" font-family="Helvetica,sans-Serif" font-size="10.00">::const_targett &gt;</text>
</a>
</g>
</g>
<!-- Node3&#45;&gt;Node1 -->
<g id="edge2" class="edge">
<title>Node3&#45;&gt;Node1</title>
<path fill="none" stroke="#9a32cd" stroke-dasharray="5,2" d="M1606.98,-212.2C1639.55,-206.4 1677.03,-199.57 1711,-193 1716.81,-191.88 1722.86,-190.67 1728.9,-189.46"/>
<polygon fill="#9a32cd" stroke="#9a32cd" points="1606.28,-208.77 1597.04,-213.96 1607.5,-215.66 1606.28,-208.77"/>
<text text-anchor="middle" x="1663" y="-213" font-family="Helvetica,sans-Serif" font-size="10.00"> block_infos</text>
</g>
<!-- Node4 -->
<g id="node4" class="node">
<title>Node4</title>
<g id="a_node4"><a xlink:title=" ">
<polygon fill="none" stroke="#bfbfbf" points="1177,-276 1177,-306 1290,-306 1290,-276 1177,-276"/>
<text text-anchor="start" x="1185" y="-294" font-family="Helvetica,sans-Serif" font-size="10.00">std::list&lt; T &gt;::const</text>
<text text-anchor="middle" x="1233.5" y="-283" font-family="Helvetica,sans-Serif" font-size="10.00">_iterator</text>
</a>
</g>
</g>
<!-- Node4&#45;&gt;Node3 -->
<g id="edge3" class="edge">
<title>Node4&#45;&gt;Node3</title>
<path fill="none" stroke="#9a32cd" stroke-dasharray="5,2" d="M1300.18,-293.65C1338.76,-292.78 1387.52,-287.36 1427,-269 1436.98,-264.36 1435.56,-257.65 1445,-252 1451.36,-248.19 1458.37,-244.88 1465.48,-242.02"/>
<polygon fill="#9a32cd" stroke="#9a32cd" points="1300.06,-290.15 1290.1,-293.78 1300.15,-297.15 1300.06,-290.15"/>
<text text-anchor="middle" x="1367.5" y="-296" font-family="Helvetica,sans-Serif" font-size="10.00"> elements</text>
</g>
<!-- Node5 -->
<g id="node5" class="node">
<title>Node5</title>
<g id="a_node5"><a xlink:title=" ">
<polygon fill="none" stroke="#bfbfbf" points="1185,-176.5 1185,-195.5 1282,-195.5 1282,-176.5 1185,-176.5"/>
<text text-anchor="middle" x="1233.5" y="-183.5" font-family="Helvetica,sans-Serif" font-size="10.00">std::vector&lt; T &gt;</text>
</a>
</g>
</g>
<!-- Node5&#45;&gt;Node3 -->
<g id="edge4" class="edge">
<title>Node5&#45;&gt;Node3</title>
<path fill="none" stroke="orange" stroke-dasharray="5,2" d="M1292.31,-193.95C1330.55,-199.25 1381.78,-206.43 1427,-213 1432.82,-213.85 1438.84,-214.73 1444.89,-215.63"/>
<polygon fill="orange" stroke="orange" points="1292.77,-190.48 1282.38,-192.58 1291.81,-197.42 1292.77,-190.48"/>
<text text-anchor="start" x="1308" y="-227" font-family="Helvetica,sans-Serif" font-size="10.00"> &lt; goto_programt::const</text>
<text text-anchor="middle" x="1367.5" y="-216" font-family="Helvetica,sans-Serif" font-size="10.00">_targett &gt;</text>
</g>
<!-- Node11 -->
<g id="node11" class="node">
<title>Node11</title>
<g id="a_node11"><a xlink:title=" ">
<polygon fill="none" stroke="#bfbfbf" points="1465,-114 1465,-144 1577,-144 1577,-114 1465,-114"/>
<text text-anchor="start" x="1473" y="-132" font-family="Helvetica,sans-Serif" font-size="10.00">std::vector&lt; source</text>
<text text-anchor="middle" x="1521" y="-121" font-family="Helvetica,sans-Serif" font-size="10.00">_linest &gt;</text>
</a>
</g>
</g>
<!-- Node5&#45;&gt;Node11 -->
<g id="edge20" class="edge">
<title>Node5&#45;&gt;Node11</title>
<path fill="none" stroke="orange" stroke-dasharray="5,2" d="M1268.45,-173.04C1280.76,-168.72 1294.88,-164.2 1308,-161 1360.44,-148.23 1421.49,-139.66 1464.57,-134.63"/>
<polygon fill="orange" stroke="orange" points="1267.24,-169.76 1259.01,-176.44 1269.61,-176.35 1267.24,-169.76"/>
<text text-anchor="middle" x="1367.5" y="-164" font-family="Helvetica,sans-Serif" font-size="10.00"> &lt; source_linest &gt;</text>
</g>
<!-- Node17 -->
<g id="node17" class="node">
<title>Node17</title>
<g id="a_node17"><a xlink:title=" ">
<polygon fill="none" stroke="#bfbfbf" points="1465,-163 1465,-193 1577,-193 1577,-163 1465,-163"/>
<text text-anchor="start" x="1473" y="-181" font-family="Helvetica,sans-Serif" font-size="10.00">std::vector&lt; source</text>
<text text-anchor="middle" x="1521" y="-170" font-family="Helvetica,sans-Serif" font-size="10.00">_locationt &gt;</text>
</a>
</g>
</g>
<!-- Node5&#45;&gt;Node17 -->
<g id="edge28" class="edge">
<title>Node5&#45;&gt;Node17</title>
<path fill="none" stroke="orange" stroke-dasharray="5,2" d="M1292.4,-179.99C1297.67,-179.6 1302.93,-179.25 1308,-179 1361.12,-176.35 1421.82,-176.37 1464.61,-176.9"/>
<polygon fill="orange" stroke="orange" points="1291.98,-176.52 1282.29,-180.82 1292.55,-183.49 1291.98,-176.52"/>
<text text-anchor="middle" x="1367.5" y="-182" font-family="Helvetica,sans-Serif" font-size="10.00"> &lt; source_locationt &gt;</text>
</g>
<!-- Node6 -->
<g id="node6" class="node">
<title>Node6</title>
<g id="a_node6"><a xlink:title=" ">
<polygon fill="none" stroke="#bfbfbf" points="405.5,-159.5 405.5,-178.5 434.5,-178.5 434.5,-159.5 405.5,-159.5"/>
<text text-anchor="middle" x="420" y="-166.5" font-family="Helvetica,sans-Serif" font-size="10.00">T</text>
</a>
</g>
</g>
<!-- Node6&#45;&gt;Node5 -->
<g id="edge5" class="edge">
<title>Node6&#45;&gt;Node5</title>
<path fill="none" stroke="#9a32cd" stroke-dasharray="5,2" d="M444.69,-171.39C461.72,-173 485.25,-175 506,-176 761.77,-188.28 1068.73,-187.37 1184.86,-186.47"/>
<polygon fill="#9a32cd" stroke="#9a32cd" points="444.82,-167.88 434.53,-170.4 444.14,-174.85 444.82,-167.88"/>
<text text-anchor="middle" x="873.5" y="-189" font-family="Helvetica,sans-Serif" font-size="10.00"> elements</text>
</g>
<!-- Node9 -->
<g id="node9" class="node">
<title>Node9</title>
<g id="a_node9"><a xlink:title=" ">
<polygon fill="none" stroke="#bfbfbf" points="676.5,-29 676.5,-59 790.5,-59 790.5,-29 676.5,-29"/>
<text text-anchor="start" x="684.5" y="-47" font-family="Helvetica,sans-Serif" font-size="10.00">std::unordered_map</text>
<text text-anchor="middle" x="733.5" y="-36" font-family="Helvetica,sans-Serif" font-size="10.00">&lt; K, T &gt;</text>
</a>
</g>
</g>
<!-- Node6&#45;&gt;Node9 -->
<g id="edge10" class="edge">
<title>Node6&#45;&gt;Node9</title>
<path fill="none" stroke="#9a32cd" stroke-dasharray="5,2" d="M444.03,-158.09C460.85,-150.55 484.4,-140.85 506,-135 569.76,-117.73 601.04,-153.79 653,-113 669.62,-99.95 656.04,-83.92 671,-69 674.83,-65.17 679.33,-61.91 684.13,-59.13"/>
<polygon fill="#9a32cd" stroke="#9a32cd" points="442.14,-155.11 434.5,-162.46 445.05,-161.47 442.14,-155.11"/>
<text text-anchor="middle" x="579.5" y="-138" font-family="Helvetica,sans-Serif" font-size="10.00"> elements</text>
</g>
<!-- Node14 -->
<g id="node14" class="node">
<title>Node14</title>
<g id="a_node14"><a xlink:title=" ">
<polygon fill="none" stroke="#bfbfbf" points="683,-134.5 683,-153.5 784,-153.5 784,-134.5 683,-134.5"/>
<text text-anchor="middle" x="733.5" y="-141.5" font-family="Helvetica,sans-Serif" font-size="10.00">std::map&lt; K, T &gt;</text>
</a>
</g>
</g>
<!-- Node6&#45;&gt;Node14 -->
<g id="edge16" class="edge">
<title>Node6&#45;&gt;Node14</title>
<path fill="none" stroke="#9a32cd" stroke-dasharray="5,2" d="M444.78,-167.09C495.47,-163.02 615.03,-153.43 683,-147.97"/>
<polygon fill="#9a32cd" stroke="#9a32cd" points="444.47,-163.6 434.79,-167.89 445.03,-170.58 444.47,-163.6"/>
<text text-anchor="middle" x="579.5" y="-164" font-family="Helvetica,sans-Serif" font-size="10.00"> elements</text>
</g>
<!-- Node7 -->
<g id="node7" class="node">
<title>Node7</title>
<g id="a_node7"><a xlink:title=" ">
<polygon fill="none" stroke="#bfbfbf" points="951,-29 951,-59 1083,-59 1083,-29 951,-29"/>
<text text-anchor="start" x="959" y="-47" font-family="Helvetica,sans-Serif" font-size="10.00">std::unordered_map</text>
<text text-anchor="middle" x="1017" y="-36" font-family="Helvetica,sans-Serif" font-size="10.00">&lt; dstringt, std::size_t &gt;</text>
</a>
</g>
</g>
<!-- Node7&#45;&gt;Node1 -->
<g id="edge6" class="edge">
<title>Node7&#45;&gt;Node1</title>
<path fill="none" stroke="#9a32cd" stroke-dasharray="5,2" d="M1093.46,-47.11C1204.7,-52.79 1418.76,-67.86 1597,-105 1649.02,-115.84 1661.83,-120.85 1711,-141 1726.43,-147.32 1743.04,-155.68 1756.46,-162.85"/>
<polygon fill="#9a32cd" stroke="#9a32cd" points="1093.51,-43.61 1083.35,-46.61 1093.16,-50.6 1093.51,-43.61"/>
<text text-anchor="middle" x="1367.5" y="-78" font-family="Helvetica,sans-Serif" font-size="10.00"> index_to_block</text>
</g>
<!-- Node8 -->
<g id="node8" class="node">
<title>Node8</title>
<g id="a_node8"><a xlink:href="classdstringt.html" target="_top" xlink:title="dstringt has one field, an unsigned integer no which is an index into a static table of strings.">
<polygon fill="none" stroke="black" points="0,-6.5 0,-25.5 54,-25.5 54,-6.5 0,-6.5"/>
<text text-anchor="middle" x="27" y="-13.5" font-family="Helvetica,sans-Serif" font-size="10.00">dstringt</text>
</a>
</g>
</g>
<!-- Node8&#45;&gt;Node7 -->
<g id="edge7" class="edge">
<title>Node8&#45;&gt;Node7</title>
<path fill="none" stroke="#9a32cd" stroke-dasharray="5,2" d="M64.41,-10.43C97.77,-5.81 148.59,0 193,0 193,0 193,0 734.5,0 811.42,0 898.76,-16.23 955.47,-28.98"/>
<polygon fill="#9a32cd" stroke="#9a32cd" points="63.62,-7.01 54.21,-11.88 64.61,-13.94 63.62,-7.01"/>
<text text-anchor="middle" x="420" y="-3" font-family="Helvetica,sans-Serif" font-size="10.00"> keys</text>
</g>
<!-- Node22 -->
<g id="node22" class="node">
<title>Node22</title>
<g id="a_node22"><a xlink:href="classtree__nodet.html" target="_top" xlink:title="A node with data in a tree, it contains:">
<polygon fill="none" stroke="red" points="115,-111 115,-141 273,-141 273,-111 115,-111"/>
<text text-anchor="start" x="123" y="-129" font-family="Helvetica,sans-Serif" font-size="10.00">tree_nodet&lt; treet,</text>
<text text-anchor="middle" x="194" y="-118" font-family="Helvetica,sans-Serif" font-size="10.00"> named_subtreest, sharing &gt;</text>
</a>
</g>
</g>
<!-- Node8&#45;&gt;Node22 -->
<g id="edge27" class="edge">
<title>Node8&#45;&gt;Node22</title>
<path fill="none" stroke="#9a32cd" stroke-dasharray="5,2" d="M50.91,-31.27C82.42,-52.28 138.8,-89.87 170.24,-110.82"/>
<polygon fill="#9a32cd" stroke="#9a32cd" points="52.62,-28.2 42.35,-25.57 48.73,-34.03 52.62,-28.2"/>
<text text-anchor="middle" x="84.5" y="-65" font-family="Helvetica,sans-Serif" font-size="10.00"> data</text>
</g>
<!-- Node9&#45;&gt;Node7 -->
<g id="edge8" class="edge">
<title>Node9&#45;&gt;Node7</title>
<path fill="none" stroke="orange" stroke-dasharray="5,2" d="M800.81,-44C846.12,-44 905.89,-44 950.93,-44"/>
<polygon fill="orange" stroke="orange" points="800.79,-40.5 790.79,-44 800.79,-47.5 800.79,-40.5"/>
<text text-anchor="middle" x="873.5" y="-47" font-family="Helvetica,sans-Serif" font-size="10.00"> &lt; dstringt, std::size_t &gt;</text>
</g>
<!-- Node10 -->
<g id="node10" class="node">
<title>Node10</title>
<g id="a_node10"><a xlink:title=" ">
<polygon fill="none" stroke="#bfbfbf" points="405.5,-96.5 405.5,-115.5 434.5,-115.5 434.5,-96.5 405.5,-96.5"/>
<text text-anchor="middle" x="420" y="-103.5" font-family="Helvetica,sans-Serif" font-size="10.00">K</text>
</a>
</g>
</g>
<!-- Node10&#45;&gt;Node9 -->
<g id="edge9" class="edge">
<title>Node10&#45;&gt;Node9</title>
<path fill="none" stroke="#9a32cd" stroke-dasharray="5,2" d="M444.69,-100.27C457.71,-96.8 474.02,-91.89 488,-86 496.43,-82.45 497.32,-78.91 506,-76 562.1,-57.18 629.62,-49.42 676.27,-46.23"/>
<polygon fill="#9a32cd" stroke="#9a32cd" points="443.46,-96.98 434.65,-102.85 445.2,-103.76 443.46,-96.98"/>
<text text-anchor="middle" x="579.5" y="-79" font-family="Helvetica,sans-Serif" font-size="10.00"> keys</text>
</g>
<!-- Node10&#45;&gt;Node14 -->
<g id="edge15" class="edge">
<title>Node10&#45;&gt;Node14</title>
<path fill="none" stroke="#9a32cd" stroke-dasharray="5,2" d="M444.52,-101.66C486.93,-94.7 578.72,-83.59 653,-102 678.15,-108.24 704.11,-124.04 719.26,-134.39"/>
<polygon fill="#9a32cd" stroke="#9a32cd" points="443.87,-98.22 434.61,-103.36 445.06,-105.12 443.87,-98.22"/>
<text text-anchor="middle" x="579.5" y="-105" font-family="Helvetica,sans-Serif" font-size="10.00"> keys</text>
</g>
<!-- Node11&#45;&gt;Node1 -->
<g id="edge11" class="edge">
<title>Node11&#45;&gt;Node1</title>
<path fill="none" stroke="#9a32cd" stroke-dasharray="5,2" d="M1587.08,-140.28C1623.56,-146.71 1669.86,-155.05 1711,-163 1716.81,-164.12 1722.86,-165.33 1728.9,-166.54"/>
<polygon fill="#9a32cd" stroke="#9a32cd" points="1587.52,-136.8 1577.07,-138.52 1586.31,-143.7 1587.52,-136.8"/>
<text text-anchor="middle" x="1663" y="-166" font-family="Helvetica,sans-Serif" font-size="10.00"> block_source_lines</text>
</g>
<!-- Node12 -->
<g id="node12" class="node">
<title>Node12</title>
<g id="a_node12"><a xlink:href="classsource__linest.html" target="_top" xlink:title=" ">
<polygon fill="none" stroke="black" points="1193,-103.5 1193,-122.5 1274,-122.5 1274,-103.5 1193,-103.5"/>
<text text-anchor="middle" x="1233.5" y="-110.5" font-family="Helvetica,sans-Serif" font-size="10.00">source_linest</text>
</a>
</g>
</g>
<!-- Node12&#45;&gt;Node11 -->
<g id="edge12" class="edge">
<title>Node12&#45;&gt;Node11</title>
<path fill="none" stroke="#9a32cd" stroke-dasharray="5,2" d="M1284.39,-111.46C1292.29,-111.27 1300.37,-111.1 1308,-111 1360.88,-110.28 1374.35,-105.95 1427,-111 1439.28,-112.18 1452.34,-114.21 1464.68,-116.5"/>
<polygon fill="#9a32cd" stroke="#9a32cd" points="1284.07,-107.97 1274.17,-111.72 1284.25,-114.96 1284.07,-107.97"/>
<text text-anchor="middle" x="1367.5" y="-114" font-family="Helvetica,sans-Serif" font-size="10.00"> elements</text>
</g>
<!-- Node13 -->
<g id="node13" class="node">
<title>Node13</title>
<g id="a_node13"><a xlink:title=" ">
<polygon fill="none" stroke="#bfbfbf" points="956,-99 956,-129 1078,-129 1078,-99 956,-99"/>
<text text-anchor="start" x="964" y="-117" font-family="Helvetica,sans-Serif" font-size="10.00">std::map&lt; std::string,</text>
<text text-anchor="middle" x="1017" y="-106" font-family="Helvetica,sans-Serif" font-size="10.00"> function_linest &gt;</text>
</a>
</g>
</g>
<!-- Node13&#45;&gt;Node12 -->
<g id="edge13" class="edge">
<title>Node13&#45;&gt;Node12</title>
<path fill="none" stroke="#9a32cd" stroke-dasharray="5,2" d="M1088.13,-113.67C1122.86,-113.51 1163.51,-113.32 1192.81,-113.19"/>
<polygon fill="#9a32cd" stroke="#9a32cd" points="1088.02,-110.17 1078.04,-113.72 1088.05,-117.17 1088.02,-110.17"/>
<text text-anchor="middle" x="1130" y="-116" font-family="Helvetica,sans-Serif" font-size="10.00"> block_lines</text>
</g>
<!-- Node14&#45;&gt;Node13 -->
<g id="edge14" class="edge">
<title>Node14&#45;&gt;Node13</title>
<path fill="none" stroke="#9a32cd" stroke-dasharray="5,2" d="M794.2,-146.08C833.8,-146.51 886.78,-145.26 933,-138 945.74,-136 959.29,-132.63 971.67,-129.05"/>
<polygon fill="#9a32cd" stroke="#9a32cd" points="794.22,-142.58 784.17,-145.93 794.12,-149.58 794.22,-142.58"/>
<text text-anchor="middle" x="873.5" y="-149" font-family="Helvetica,sans-Serif" font-size="10.00"> elements</text>
</g>
<!-- Node14&#45;&gt;Node13 -->
<g id="edge19" class="edge">
<title>Node14&#45;&gt;Node13</title>
<path fill="none" stroke="orange" stroke-dasharray="5,2" d="M761.71,-130.03C776.71,-123.11 795.91,-115.5 814,-112 861,-102.9 915.31,-104.07 955.77,-107.15"/>
<polygon fill="orange" stroke="orange" points="760.03,-126.95 752.52,-134.42 763.05,-133.27 760.03,-126.95"/>
<text text-anchor="start" x="819" y="-126" font-family="Helvetica,sans-Serif" font-size="10.00"> &lt; std::string, function</text>
<text text-anchor="middle" x="873.5" y="-115" font-family="Helvetica,sans-Serif" font-size="10.00">_linest &gt;</text>
</g>
<!-- Node15 -->
<g id="node15" class="node">
<title>Node15</title>
<g id="a_node15"><a xlink:title=" ">
<polygon fill="none" stroke="#bfbfbf" points="701,-78.5 701,-97.5 766,-97.5 766,-78.5 701,-78.5"/>
<text text-anchor="middle" x="733.5" y="-85.5" font-family="Helvetica,sans-Serif" font-size="10.00">std::string</text>
</a>
</g>
</g>
<!-- Node15&#45;&gt;Node13 -->
<g id="edge17" class="edge">
<title>Node15&#45;&gt;Node13</title>
<path fill="none" stroke="#9a32cd" stroke-dasharray="5,2" d="M776.13,-81.63C816.57,-76.64 879.52,-72.05 933,-82 950.76,-85.31 969.63,-92.27 984.87,-98.87"/>
<polygon fill="#9a32cd" stroke="#9a32cd" points="775.57,-78.18 766.1,-82.93 776.47,-85.12 775.57,-78.18"/>
<text text-anchor="middle" x="873.5" y="-85" font-family="Helvetica,sans-Serif" font-size="10.00"> keys</text>
</g>
<!-- Node16 -->
<g id="node16" class="node">
<title>Node16</title>
<g id="a_node16"><a xlink:title=" ">
<polygon fill="none" stroke="#bfbfbf" points="368,-47 368,-77 472,-77 472,-47 368,-47"/>
<text text-anchor="start" x="376" y="-65" font-family="Helvetica,sans-Serif" font-size="10.00">std::basic_string&lt;</text>
<text text-anchor="middle" x="420" y="-54" font-family="Helvetica,sans-Serif" font-size="10.00"> Char &gt;</text>
</a>
</g>
</g>
<!-- Node16&#45;&gt;Node15 -->
<g id="edge18" class="edge">
<title>Node16&#45;&gt;Node15</title>
<path fill="none" stroke="midnightblue" d="M482.31,-67.12C548.02,-72.6 649.74,-81.09 700.88,-85.36"/>
<polygon fill="midnightblue" stroke="midnightblue" points="482.35,-63.61 472.09,-66.26 481.76,-70.58 482.35,-63.61"/>
</g>
<!-- Node17&#45;&gt;Node1 -->
<g id="edge21" class="edge">
<title>Node17&#45;&gt;Node1</title>
<path fill="none" stroke="#9a32cd" stroke-dasharray="5,2" d="M1587.36,-178C1630.98,-178 1687.68,-178 1728.89,-178"/>
<polygon fill="#9a32cd" stroke="#9a32cd" points="1587.14,-174.5 1577.14,-178 1587.14,-181.5 1587.14,-174.5"/>
<text text-anchor="middle" x="1663" y="-181" font-family="Helvetica,sans-Serif" font-size="10.00"> block_locations</text>
</g>
<!-- Node18 -->
<g id="node18" class="node">
<title>Node18</title>
<g id="a_node18"><a xlink:href="classsource__locationt.html" target="_top" xlink:title=" ">
<polygon fill="none" stroke="black" points="1185,-237.5 1185,-256.5 1282,-256.5 1282,-237.5 1185,-237.5"/>
<text text-anchor="middle" x="1233.5" y="-244.5" font-family="Helvetica,sans-Serif" font-size="10.00">source_locationt</text>
</a>
</g>
</g>
<!-- Node18&#45;&gt;Node17 -->
<g id="edge22" class="edge">
<title>Node18&#45;&gt;Node17</title>
<path fill="none" stroke="#9a32cd" stroke-dasharray="5,2" d="M1292.27,-249.35C1340.69,-250.24 1405.29,-248.62 1427,-235 1440.82,-226.33 1432.42,-213.39 1445,-203 1450.82,-198.19 1457.6,-194.3 1464.66,-191.15"/>
<polygon fill="#9a32cd" stroke="#9a32cd" points="1292.28,-245.84 1282.2,-249.12 1292.12,-252.84 1292.28,-245.84"/>
<text text-anchor="middle" x="1367.5" y="-252" font-family="Helvetica,sans-Serif" font-size="10.00"> elements</text>
</g>
<!-- Node19 -->
<g id="node19" class="node">
<title>Node19</title>
<g id="a_node19"><a xlink:href="classirept.html" target="_top" xlink:title="There are a large number of kinds of tree structured or tree&#45;like data in CPROVER.">
<polygon fill="none" stroke="black" points="997.5,-237.5 997.5,-256.5 1036.5,-256.5 1036.5,-237.5 997.5,-237.5"/>
<text text-anchor="middle" x="1017" y="-244.5" font-family="Helvetica,sans-Serif" font-size="10.00">irept</text>
</a>
</g>
</g>
<!-- Node19&#45;&gt;Node18 -->
<g id="edge23" class="edge">
<title>Node19&#45;&gt;Node18</title>
<path fill="none" stroke="midnightblue" d="M1046.76,-247C1082.06,-247 1142.43,-247 1184.73,-247"/>
<polygon fill="midnightblue" stroke="midnightblue" points="1046.66,-243.5 1036.66,-247 1046.66,-250.5 1046.66,-243.5"/>
</g>
<!-- Node20 -->
<g id="node20" class="node">
<title>Node20</title>
<g id="a_node20"><a xlink:href="classsharing__treet.html" target="_top" xlink:title=" ">
<polygon fill="none" stroke="black" points="671,-225.5 671,-266.5 796,-266.5 796,-225.5 671,-225.5"/>
<text text-anchor="start" x="679" y="-254.5" font-family="Helvetica,sans-Serif" font-size="10.00">sharing_treet&lt; irept,</text>
<text text-anchor="start" x="679" y="-243.5" font-family="Helvetica,sans-Serif" font-size="10.00"> forward_list_as_mapt</text>
<text text-anchor="middle" x="733.5" y="-232.5" font-family="Helvetica,sans-Serif" font-size="10.00">&lt; irep_idt, irept &gt; &gt;</text>
</a>
</g>
</g>
<!-- Node20&#45;&gt;Node19 -->
<g id="edge24" class="edge">
<title>Node20&#45;&gt;Node19</title>
<path fill="none" stroke="midnightblue" d="M806.3,-246.26C870.21,-246.48 959.29,-246.8 997.45,-246.93"/>
<polygon fill="midnightblue" stroke="midnightblue" points="806.29,-242.76 796.28,-246.22 806.26,-249.76 806.29,-242.76"/>
</g>
<!-- Node21 -->
<g id="node21" class="node">
<title>Node21</title>
<g id="a_node21"><a xlink:href="classsharing__treet.html" target="_top" xlink:title="Base class for tree&#45;like data structures with sharing.">
<polygon fill="none" stroke="black" points="352,-213 352,-243 488,-243 488,-213 352,-213"/>
<text text-anchor="start" x="360" y="-231" font-family="Helvetica,sans-Serif" font-size="10.00">sharing_treet&lt; derivedt,</text>
<text text-anchor="middle" x="420" y="-220" font-family="Helvetica,sans-Serif" font-size="10.00"> named_subtreest &gt;</text>
</a>
</g>
</g>
<!-- Node21&#45;&gt;Node20 -->
<g id="edge25" class="edge">
<title>Node21&#45;&gt;Node20</title>
<path fill="none" stroke="orange" stroke-dasharray="5,2" d="M498.29,-232.47C551.58,-235.55 621.45,-239.58 670.96,-242.44"/>
<polygon fill="orange" stroke="orange" points="498.39,-228.97 488.21,-231.88 497.99,-235.95 498.39,-228.97"/>
<text text-anchor="start" x="506" y="-255" font-family="Helvetica,sans-Serif" font-size="10.00"> &lt; irept, forward_list</text>
<text text-anchor="middle" x="579.5" y="-244" font-family="Helvetica,sans-Serif" font-size="10.00">_as_mapt&lt; irep_idt, irept &gt; &gt;</text>
</g>
<!-- Node22&#45;&gt;Node21 -->
<g id="edge26" class="edge">
<title>Node22&#45;&gt;Node21</title>
<path fill="none" stroke="#9a32cd" stroke-dasharray="5,2" d="M237.42,-145.32C280.52,-164.94 346.38,-194.93 385.81,-212.89"/>
<polygon fill="#9a32cd" stroke="#9a32cd" points="238.6,-142.01 228.05,-141.05 235.7,-148.38 238.6,-142.01"/>
<text text-anchor="middle" x="312.5" y="-203" font-family="Helvetica,sans-Serif" font-size="10.00"> data</text>
<text text-anchor="middle" x="312.5" y="-192" font-family="Helvetica,sans-Serif" font-size="10.00">empty_d</text>
</g>
</g>
</svg>
