<?xml version="1.0" encoding="UTF-8" standalone="no"?>
<!DOCTYPE svg PUBLIC "-//W3C//DTD SVG 1.1//EN"
 "http://www.w3.org/Graphics/SVG/1.1/DTD/svg11.dtd">
<!-- Generated by graphviz version 2.43.0 (0)
 -->
<!-- Title: expr_protectedt Pages: 1 -->
<svg width="1066pt" height="1598pt"
 viewBox="0.00 0.00 1066.00 1598.00" xmlns="http://www.w3.org/2000/svg" xmlns:xlink="http://www.w3.org/1999/xlink">
<g id="graph0" class="graph" transform="scale(1 1) rotate(0) translate(4 1594)">
<title>expr_protectedt</title>
<!-- Node1 -->
<g id="node1" class="node">
<title>Node1</title>
<g id="a_node1"><a xlink:title="Base class for all expressions.">
<polygon fill="#bfbfbf" stroke="black" points="636,-304.5 636,-323.5 730,-323.5 730,-304.5 636,-304.5"/>
<text text-anchor="middle" x="683" y="-311.5" font-family="Helvetica,sans-Serif" font-size="10.00">expr_protectedt</text>
</a>
</g>
</g>
<!-- Node6 -->
<g id="node6" class="node">
<title>Node6</title>
<g id="a_node6"><a xlink:href="classalready__typechecked__exprt.html" target="_top" xlink:title=" ">
<polygon fill="none" stroke="black" points="768,-1087 768,-1117 888,-1117 888,-1087 768,-1087"/>
<text text-anchor="start" x="776" y="-1105" font-family="Helvetica,sans-Serif" font-size="10.00">already_typechecked</text>
<text text-anchor="middle" x="828" y="-1094" font-family="Helvetica,sans-Serif" font-size="10.00">_exprt</text>
</a>
</g>
</g>
<!-- Node1&#45;&gt;Node6 -->
<g id="edge5" class="edge">
<title>Node1&#45;&gt;Node6</title>
<path fill="none" stroke="midnightblue" d="M684.95,-333.61C690.59,-446.98 721.04,-1015.56 767,-1077 769.91,-1080.89 773.53,-1084.17 777.55,-1086.95"/>
<polygon fill="midnightblue" stroke="midnightblue" points="688.44,-333.4 684.46,-323.58 681.45,-333.74 688.44,-333.4"/>
</g>
<!-- Node7 -->
<g id="node7" class="node">
<title>Node7</title>
<g id="a_node7"><a xlink:href="classbinary__exprt.html" target="_top" xlink:title="A base class for binary expressions.">
<polygon fill="none" stroke="black" points="789,-1048.5 789,-1067.5 867,-1067.5 867,-1048.5 789,-1048.5"/>
<text text-anchor="middle" x="828" y="-1055.5" font-family="Helvetica,sans-Serif" font-size="10.00">binary_exprt</text>
</a>
</g>
</g>
<!-- Node1&#45;&gt;Node7 -->
<g id="edge6" class="edge">
<title>Node1&#45;&gt;Node7</title>
<path fill="none" stroke="midnightblue" d="M687.77,-333.63C708.7,-442.5 810.12,-970.16 825.14,-1048.32"/>
<polygon fill="midnightblue" stroke="midnightblue" points="691.19,-332.84 685.86,-323.68 684.31,-334.16 691.19,-332.84"/>
</g>
<!-- Node61 -->
<g id="node34" class="node">
<title>Node61</title>
<g id="a_node34"><a xlink:href="classextractbits__exprt.html" target="_top" xlink:title="Extracts a sub&#45;range of a bit&#45;vector operand.">
<polygon fill="none" stroke="black" points="778,-437.5 778,-456.5 878,-456.5 878,-437.5 778,-437.5"/>
<text text-anchor="middle" x="828" y="-444.5" font-family="Helvetica,sans-Serif" font-size="10.00">extractbits_exprt</text>
</a>
</g>
</g>
<!-- Node1&#45;&gt;Node61 -->
<g id="edge33" class="edge">
<title>Node1&#45;&gt;Node61</title>
<path fill="none" stroke="midnightblue" d="M692.86,-332.78C705.72,-358.05 731.9,-402.73 767,-428 772.32,-431.83 778.44,-434.91 784.7,-437.38"/>
<polygon fill="midnightblue" stroke="midnightblue" points="695.87,-330.97 688.32,-323.54 689.59,-334.06 695.87,-330.97"/>
</g>
<!-- Node62 -->
<g id="node35" class="node">
<title>Node62</title>
<g id="a_node35"><a xlink:href="classindex__designatort.html" target="_top" xlink:title=" ">
<polygon fill="none" stroke="black" points="776,-399.5 776,-418.5 880,-418.5 880,-399.5 776,-399.5"/>
<text text-anchor="middle" x="828" y="-406.5" font-family="Helvetica,sans-Serif" font-size="10.00">index_designatort</text>
</a>
</g>
</g>
<!-- Node1&#45;&gt;Node62 -->
<g id="edge34" class="edge">
<title>Node1&#45;&gt;Node62</title>
<path fill="none" stroke="midnightblue" d="M698.64,-331.22C714.05,-348.35 739.82,-374.29 767,-390 773.53,-393.77 780.9,-396.89 788.18,-399.44"/>
<polygon fill="midnightblue" stroke="midnightblue" points="701.17,-328.8 691.94,-323.6 695.92,-333.42 701.17,-328.8"/>
</g>
<!-- Node63 -->
<g id="node36" class="node">
<title>Node63</title>
<g id="a_node36"><a xlink:href="classmember__designatort.html" target="_top" xlink:title=" ">
<polygon fill="none" stroke="black" points="768.5,-361.5 768.5,-380.5 887.5,-380.5 887.5,-361.5 768.5,-361.5"/>
<text text-anchor="middle" x="828" y="-368.5" font-family="Helvetica,sans-Serif" font-size="10.00">member_designatort</text>
</a>
</g>
</g>
<!-- Node1&#45;&gt;Node63 -->
<g id="edge35" class="edge">
<title>Node1&#45;&gt;Node63</title>
<path fill="none" stroke="midnightblue" d="M712.42,-328.06C728.28,-335.64 748.51,-344.87 767,-352 775.77,-355.38 785.42,-358.63 794.36,-361.46"/>
<polygon fill="midnightblue" stroke="midnightblue" points="713.69,-324.79 703.17,-323.59 710.65,-331.09 713.69,-324.79"/>
</g>
<!-- Node64 -->
<g id="node37" class="node">
<title>Node64</title>
<g id="a_node37"><a xlink:href="classmulti__ary__exprt.html" target="_top" xlink:title="A base class for multi&#45;ary expressions Associativity is not specified.">
<polygon fill="none" stroke="black" points="781,-323.5 781,-342.5 875,-342.5 875,-323.5 781,-323.5"/>
<text text-anchor="middle" x="828" y="-330.5" font-family="Helvetica,sans-Serif" font-size="10.00">multi_ary_exprt</text>
</a>
</g>
</g>
<!-- Node1&#45;&gt;Node64 -->
<g id="edge36" class="edge">
<title>Node1&#45;&gt;Node64</title>
<path fill="none" stroke="midnightblue" d="M740.1,-321.45C753.5,-323.23 767.65,-325.11 780.56,-326.83"/>
<polygon fill="midnightblue" stroke="midnightblue" points="740.41,-317.96 730.03,-320.12 739.49,-324.9 740.41,-317.96"/>
</g>
<!-- Node82 -->
<g id="node54" class="node">
<title>Node82</title>
<g id="a_node54"><a xlink:href="classnullary__exprt.html" target="_top" xlink:title="An expression without operands.">
<polygon fill="none" stroke="red" points="787.5,-285.5 787.5,-304.5 868.5,-304.5 868.5,-285.5 787.5,-285.5"/>
<text text-anchor="middle" x="828" y="-292.5" font-family="Helvetica,sans-Serif" font-size="10.00">nullary_exprt</text>
</a>
</g>
</g>
<!-- Node1&#45;&gt;Node82 -->
<g id="edge53" class="edge">
<title>Node1&#45;&gt;Node82</title>
<path fill="none" stroke="midnightblue" d="M740.2,-306.53C755.95,-304.44 772.73,-302.21 787.31,-300.27"/>
<polygon fill="midnightblue" stroke="midnightblue" points="739.49,-303.1 730.03,-307.88 740.41,-310.04 739.49,-303.1"/>
</g>
<!-- Node100 -->
<g id="node55" class="node">
<title>Node100</title>
<g id="a_node55"><a xlink:href="classoverflow__result__exprt.html" target="_top" xlink:title="An expression returning both the result of the arithmetic operation under wrap&#45;around semantics as we...">
<polygon fill="none" stroke="black" points="767,-247.5 767,-266.5 889,-266.5 889,-247.5 767,-247.5"/>
<text text-anchor="middle" x="828" y="-254.5" font-family="Helvetica,sans-Serif" font-size="10.00">overflow_result_exprt</text>
</a>
</g>
</g>
<!-- Node1&#45;&gt;Node100 -->
<g id="edge54" class="edge">
<title>Node1&#45;&gt;Node100</title>
<path fill="none" stroke="midnightblue" d="M712.42,-299.94C728.28,-292.36 748.51,-283.13 767,-276 775.77,-272.62 785.42,-269.37 794.36,-266.54"/>
<polygon fill="midnightblue" stroke="midnightblue" points="710.65,-296.91 703.17,-304.41 713.69,-303.21 710.65,-296.91"/>
</g>
<!-- Node101 -->
<g id="node56" class="node">
<title>Node101</title>
<g id="a_node56"><a xlink:href="classpredicate__exprt.html" target="_top" xlink:title="A base class for expressions that are predicates, i.e., Boolean&#45;typed.">
<polygon fill="none" stroke="red" points="781.5,-209.5 781.5,-228.5 874.5,-228.5 874.5,-209.5 781.5,-209.5"/>
<text text-anchor="middle" x="828" y="-216.5" font-family="Helvetica,sans-Serif" font-size="10.00">predicate_exprt</text>
</a>
</g>
</g>
<!-- Node1&#45;&gt;Node101 -->
<g id="edge55" class="edge">
<title>Node1&#45;&gt;Node101</title>
<path fill="none" stroke="midnightblue" d="M698.64,-296.78C714.05,-279.65 739.82,-253.71 767,-238 773.53,-234.23 780.9,-231.11 788.18,-228.56"/>
<polygon fill="midnightblue" stroke="midnightblue" points="695.92,-294.58 691.94,-304.4 701.17,-299.2 695.92,-294.58"/>
</g>
<!-- Node103 -->
<g id="node57" class="node">
<title>Node103</title>
<g id="a_node57"><a xlink:href="classternary__exprt.html" target="_top" xlink:title="An expression with three operands.">
<polygon fill="none" stroke="red" points="786.5,-171.5 786.5,-190.5 869.5,-190.5 869.5,-171.5 786.5,-171.5"/>
<text text-anchor="middle" x="828" y="-178.5" font-family="Helvetica,sans-Serif" font-size="10.00">ternary_exprt</text>
</a>
</g>
</g>
<!-- Node1&#45;&gt;Node103 -->
<g id="edge56" class="edge">
<title>Node1&#45;&gt;Node103</title>
<path fill="none" stroke="midnightblue" d="M692.86,-295.22C705.72,-269.95 731.9,-225.27 767,-200 772.76,-195.85 779.47,-192.58 786.26,-190.02"/>
<polygon fill="midnightblue" stroke="midnightblue" points="689.59,-293.94 688.32,-304.46 695.87,-297.03 689.59,-293.94"/>
</g>
<!-- Node111 -->
<g id="node58" class="node">
<title>Node111</title>
<g id="a_node58"><a xlink:href="classunary__exprt.html" target="_top" xlink:title="Generic base class for unary expressions.">
<polygon fill="none" stroke="red" points="790.5,-133.5 790.5,-152.5 865.5,-152.5 865.5,-133.5 790.5,-133.5"/>
<text text-anchor="middle" x="828" y="-140.5" font-family="Helvetica,sans-Serif" font-size="10.00">unary_exprt</text>
</a>
</g>
</g>
<!-- Node1&#45;&gt;Node111 -->
<g id="edge57" class="edge">
<title>Node1&#45;&gt;Node111</title>
<path fill="none" stroke="midnightblue" d="M689.4,-294.55C699.35,-262.28 723.62,-197.71 767,-162 773.75,-156.44 782.14,-152.5 790.48,-149.71"/>
<polygon fill="midnightblue" stroke="midnightblue" points="686.03,-293.58 686.57,-304.17 692.75,-295.56 686.03,-293.58"/>
</g>
<!-- Node151 -->
<g id="node59" class="node">
<title>Node151</title>
<g id="a_node59"><a xlink:href="classwith__exprt.html" target="_top" xlink:title="Operator to update elements in structs and arrays.">
<polygon fill="none" stroke="black" points="794,-95.5 794,-114.5 862,-114.5 862,-95.5 794,-95.5"/>
<text text-anchor="middle" x="828" y="-102.5" font-family="Helvetica,sans-Serif" font-size="10.00">with_exprt</text>
</a>
</g>
</g>
<!-- Node1&#45;&gt;Node151 -->
<g id="edge58" class="edge">
<title>Node1&#45;&gt;Node151</title>
<path fill="none" stroke="midnightblue" d="M687.12,-294.15C694.21,-255.69 715.11,-170.7 767,-124 774.47,-117.28 784.32,-112.93 793.88,-110.12"/>
<polygon fill="midnightblue" stroke="midnightblue" points="683.59,-294.05 685.35,-304.5 690.49,-295.23 683.59,-294.05"/>
</g>
<!-- Node2 -->
<g id="node2" class="node">
<title>Node2</title>
<g id="a_node2"><a xlink:href="classexprt.html" target="_top" xlink:title="Base class for all expressions.">
<polygon fill="none" stroke="black" points="557,-304.5 557,-323.5 599,-323.5 599,-304.5 557,-304.5"/>
<text text-anchor="middle" x="578" y="-311.5" font-family="Helvetica,sans-Serif" font-size="10.00">exprt</text>
</a>
</g>
</g>
<!-- Node2&#45;&gt;Node1 -->
<g id="edge1" class="edge">
<title>Node2&#45;&gt;Node1</title>
<path fill="none" stroke="midnightblue" d="M609.56,-314C617.77,-314 626.84,-314 635.7,-314"/>
<polygon fill="midnightblue" stroke="midnightblue" points="609.35,-310.5 599.35,-314 609.35,-317.5 609.35,-310.5"/>
</g>
<!-- Node3 -->
<g id="node3" class="node">
<title>Node3</title>
<g id="a_node3"><a xlink:href="classirept.html" target="_top" xlink:title="There are a large number of kinds of tree structured or tree&#45;like data in CPROVER.">
<polygon fill="none" stroke="black" points="481,-304.5 481,-323.5 520,-323.5 520,-304.5 481,-304.5"/>
<text text-anchor="middle" x="500.5" y="-311.5" font-family="Helvetica,sans-Serif" font-size="10.00">irept</text>
</a>
</g>
</g>
<!-- Node3&#45;&gt;Node2 -->
<g id="edge2" class="edge">
<title>Node3&#45;&gt;Node2</title>
<path fill="none" stroke="midnightblue" d="M530.18,-314C539.11,-314 548.76,-314 556.97,-314"/>
<polygon fill="midnightblue" stroke="midnightblue" points="530.16,-310.5 520.16,-314 530.16,-317.5 530.16,-310.5"/>
</g>
<!-- Node4 -->
<g id="node4" class="node">
<title>Node4</title>
<g id="a_node4"><a xlink:href="classsharing__treet.html" target="_top" xlink:title=" ">
<polygon fill="none" stroke="black" points="319,-293.5 319,-334.5 444,-334.5 444,-293.5 319,-293.5"/>
<text text-anchor="start" x="327" y="-322.5" font-family="Helvetica,sans-Serif" font-size="10.00">sharing_treet&lt; irept,</text>
<text text-anchor="start" x="327" y="-311.5" font-family="Helvetica,sans-Serif" font-size="10.00"> forward_list_as_mapt</text>
<text text-anchor="middle" x="381.5" y="-300.5" font-family="Helvetica,sans-Serif" font-size="10.00">&lt; irep_idt, irept &gt; &gt;</text>
</a>
</g>
</g>
<!-- Node4&#45;&gt;Node3 -->
<g id="edge3" class="edge">
<title>Node4&#45;&gt;Node3</title>
<path fill="none" stroke="midnightblue" d="M454.38,-314C464.13,-314 473.35,-314 480.89,-314"/>
<polygon fill="midnightblue" stroke="midnightblue" points="454.08,-310.5 444.08,-314 454.08,-317.5 454.08,-310.5"/>
</g>
<!-- Node5 -->
<g id="node5" class="node">
<title>Node5</title>
<g id="a_node5"><a xlink:href="classsharing__treet.html" target="_top" xlink:title="Base class for tree&#45;like data structures with sharing.">
<polygon fill="none" stroke="black" points="0,-299 0,-329 136,-329 136,-299 0,-299"/>
<text text-anchor="start" x="8" y="-317" font-family="Helvetica,sans-Serif" font-size="10.00">sharing_treet&lt; derivedt,</text>
<text text-anchor="middle" x="68" y="-306" font-family="Helvetica,sans-Serif" font-size="10.00"> named_subtreest &gt;</text>
</a>
</g>
</g>
<!-- Node5&#45;&gt;Node4 -->
<g id="edge4" class="edge">
<title>Node5&#45;&gt;Node4</title>
<path fill="none" stroke="orange" stroke-dasharray="5,2" d="M146.29,-314C199.58,-314 269.45,-314 318.96,-314"/>
<polygon fill="orange" stroke="orange" points="146.21,-310.5 136.21,-314 146.21,-317.5 146.21,-310.5"/>
<text text-anchor="start" x="154" y="-328" font-family="Helvetica,sans-Serif" font-size="10.00"> &lt; irept, forward_list</text>
<text text-anchor="middle" x="227.5" y="-317" font-family="Helvetica,sans-Serif" font-size="10.00">_as_mapt&lt; irep_idt, irept &gt; &gt;</text>
</g>
<!-- Node8 -->
<g id="node8" class="node">
<title>Node8</title>
<g id="a_node8"><a xlink:href="classbinary__predicate__exprt.html" target="_top" xlink:title="A base class for expressions that are predicates, i.e., Boolean&#45;typed, and that take exactly two argu...">
<polygon fill="none" stroke="red" points="927.5,-1570.5 927.5,-1589.5 1056.5,-1589.5 1056.5,-1570.5 927.5,-1570.5"/>
<text text-anchor="middle" x="992" y="-1577.5" font-family="Helvetica,sans-Serif" font-size="10.00">binary_predicate_exprt</text>
</a>
</g>
</g>
<!-- Node7&#45;&gt;Node8 -->
<g id="edge7" class="edge">
<title>Node7&#45;&gt;Node8</title>
<path fill="none" stroke="midnightblue" d="M876.42,-1067.4C881.27,-1070.1 885.65,-1073.57 889,-1078 915.3,-1112.78 901.53,-1426.74 907,-1470 912.19,-1510.99 897.95,-1530.66 926,-1561 929.59,-1564.89 933.93,-1567.99 938.64,-1570.47"/>
<polygon fill="midnightblue" stroke="midnightblue" points="877.82,-1064.2 867.26,-1063.32 874.96,-1070.59 877.82,-1064.2"/>
</g>
<!-- Node28 -->
<g id="node9" class="node">
<title>Node28</title>
<g id="a_node9"><a xlink:href="classbinding__exprt.html" target="_top" xlink:title="A base class for variable bindings (quantifiers, let, lambda)">
<polygon fill="none" stroke="red" points="950.5,-1532.5 950.5,-1551.5 1033.5,-1551.5 1033.5,-1532.5 950.5,-1532.5"/>
<text text-anchor="middle" x="992" y="-1539.5" font-family="Helvetica,sans-Serif" font-size="10.00">binding_exprt</text>
</a>
</g>
</g>
<!-- Node7&#45;&gt;Node28 -->
<g id="edge8" class="edge">
<title>Node7&#45;&gt;Node28</title>
<path fill="none" stroke="midnightblue" d="M876.39,-1067.42C881.26,-1070.12 885.64,-1073.57 889,-1078 912.77,-1109.26 902.01,-1392.04 907,-1431 912.3,-1472.41 897.69,-1492.31 926,-1523 932.46,-1530 941.33,-1534.47 950.46,-1537.32"/>
<polygon fill="midnightblue" stroke="midnightblue" points="877.79,-1064.21 867.24,-1063.33 874.94,-1070.6 877.79,-1064.21"/>
</g>
<!-- Node34 -->
<g id="node10" class="node">
<title>Node34</title>
<g id="a_node10"><a xlink:href="classbyte__extract__exprt.html" target="_top" xlink:title="Expression of type type extracted from some object op starting at position offset (given in number of...">
<polygon fill="none" stroke="black" points="937.5,-1494.5 937.5,-1513.5 1046.5,-1513.5 1046.5,-1494.5 937.5,-1494.5"/>
<text text-anchor="middle" x="992" y="-1501.5" font-family="Helvetica,sans-Serif" font-size="10.00">byte_extract_exprt</text>
</a>
</g>
</g>
<!-- Node7&#45;&gt;Node34 -->
<g id="edge9" class="edge">
<title>Node7&#45;&gt;Node34</title>
<path fill="none" stroke="midnightblue" d="M876.37,-1067.44C881.23,-1070.13 885.62,-1073.58 889,-1078 910.37,-1105.93 902.39,-1359.13 907,-1394 912.41,-1434.96 897.95,-1454.66 926,-1485 929.59,-1488.89 933.93,-1491.99 938.64,-1494.47"/>
<polygon fill="midnightblue" stroke="midnightblue" points="877.76,-1064.23 867.21,-1063.36 874.92,-1070.62 877.76,-1064.23"/>
</g>
<!-- Node35 -->
<g id="node11" class="node">
<title>Node35</title>
<g id="a_node11"><a xlink:href="classcomplex__exprt.html" target="_top" xlink:title="Complex constructor from a pair of numbers.">
<polygon fill="none" stroke="black" points="947.5,-1456.5 947.5,-1475.5 1036.5,-1475.5 1036.5,-1456.5 947.5,-1456.5"/>
<text text-anchor="middle" x="992" y="-1463.5" font-family="Helvetica,sans-Serif" font-size="10.00">complex_exprt</text>
</a>
</g>
</g>
<!-- Node7&#45;&gt;Node35 -->
<g id="edge10" class="edge">
<title>Node7&#45;&gt;Node35</title>
<path fill="none" stroke="midnightblue" d="M876.33,-1067.46C881.21,-1070.16 885.61,-1073.6 889,-1078 907.84,-1102.42 902.87,-1324.43 907,-1355 912.59,-1396.38 897.69,-1416.31 926,-1447 931.74,-1453.22 939.39,-1457.45 947.43,-1460.31"/>
<polygon fill="midnightblue" stroke="midnightblue" points="877.73,-1064.25 867.17,-1063.39 874.88,-1070.65 877.73,-1064.25"/>
</g>
<!-- Node36 -->
<g id="node12" class="node">
<title>Node36</title>
<g id="a_node12"><a xlink:href="classconstant__interval__exprt.html" target="_top" xlink:title="Represents an interval of values.">
<polygon fill="none" stroke="black" points="926,-1418.5 926,-1437.5 1058,-1437.5 1058,-1418.5 926,-1418.5"/>
<text text-anchor="middle" x="992" y="-1425.5" font-family="Helvetica,sans-Serif" font-size="10.00">constant_interval_exprt</text>
</a>
</g>
</g>
<!-- Node7&#45;&gt;Node36 -->
<g id="edge11" class="edge">
<title>Node7&#45;&gt;Node36</title>
<path fill="none" stroke="midnightblue" d="M876.29,-1067.5C881.17,-1070.19 885.58,-1073.62 889,-1078 905.24,-1098.82 903.38,-1288.84 907,-1315 912.85,-1357.22 897.17,-1377.61 926,-1409 929.58,-1412.9 933.91,-1416.01 938.61,-1418.5"/>
<polygon fill="midnightblue" stroke="midnightblue" points="877.67,-1064.29 867.11,-1063.43 874.83,-1070.68 877.67,-1064.29"/>
</g>
<!-- Node37 -->
<g id="node13" class="node">
<title>Node37</title>
<g id="a_node13"><a xlink:href="classcpp__static__assertt.html" target="_top" xlink:title=" ">
<polygon fill="none" stroke="black" points="939.5,-1380.5 939.5,-1399.5 1044.5,-1399.5 1044.5,-1380.5 939.5,-1380.5"/>
<text text-anchor="middle" x="992" y="-1387.5" font-family="Helvetica,sans-Serif" font-size="10.00">cpp_static_assertt</text>
</a>
</g>
</g>
<!-- Node7&#45;&gt;Node37 -->
<g id="edge12" class="edge">
<title>Node7&#45;&gt;Node37</title>
<path fill="none" stroke="midnightblue" d="M876.21,-1067.57C881.1,-1070.24 885.54,-1073.65 889,-1078 915.14,-1110.84 901.26,-1224.43 907,-1266 913.49,-1312.98 894.28,-1335.75 926,-1371 929.77,-1375.2 934.42,-1378.48 939.47,-1381.06"/>
<polygon fill="midnightblue" stroke="midnightblue" points="877.58,-1064.35 867.02,-1063.5 874.75,-1070.75 877.58,-1064.35"/>
</g>
<!-- Node38 -->
<g id="node14" class="node">
<title>Node38</title>
<g id="a_node14"><a xlink:href="classdiv__exprt.html" target="_top" xlink:title="Division.">
<polygon fill="none" stroke="black" points="961,-1342.5 961,-1361.5 1023,-1361.5 1023,-1342.5 961,-1342.5"/>
<text text-anchor="middle" x="992" y="-1349.5" font-family="Helvetica,sans-Serif" font-size="10.00">div_exprt</text>
</a>
</g>
</g>
<!-- Node7&#45;&gt;Node38 -->
<g id="edge13" class="edge">
<title>Node7&#45;&gt;Node38</title>
<path fill="none" stroke="midnightblue" d="M876.55,-1068.02C881.27,-1070.62 885.57,-1073.89 889,-1078 906.99,-1099.54 902.97,-1175.23 907,-1203 915.38,-1260.79 887.68,-1288.94 926,-1333 934.72,-1343.02 948.4,-1347.9 960.97,-1350.22"/>
<polygon fill="midnightblue" stroke="midnightblue" points="877.66,-1064.68 867.1,-1063.8 874.8,-1071.08 877.66,-1064.68"/>
</g>
<!-- Node39 -->
<g id="node15" class="node">
<title>Node39</title>
<g id="a_node15"><a xlink:href="classdynamic__object__exprt.html" target="_top" xlink:title="Representation of heap&#45;allocated objects.">
<polygon fill="none" stroke="black" points="929.5,-1304.5 929.5,-1323.5 1054.5,-1323.5 1054.5,-1304.5 929.5,-1304.5"/>
<text text-anchor="middle" x="992" y="-1311.5" font-family="Helvetica,sans-Serif" font-size="10.00">dynamic_object_exprt</text>
</a>
</g>
</g>
<!-- Node7&#45;&gt;Node39 -->
<g id="edge14" class="edge">
<title>Node7&#45;&gt;Node39</title>
<path fill="none" stroke="midnightblue" d="M876.63,-1068.21C881.29,-1070.78 885.56,-1073.99 889,-1078 904.92,-1096.57 909.73,-1276.74 926,-1295 929.44,-1298.86 933.62,-1301.96 938.18,-1304.44"/>
<polygon fill="midnightblue" stroke="midnightblue" points="877.84,-1064.92 867.29,-1064.02 874.98,-1071.31 877.84,-1064.92"/>
</g>
<!-- Node40 -->
<g id="node16" class="node">
<title>Node40</title>
<g id="a_node16"><a xlink:href="classelement__address__exprt.html" target="_top" xlink:title="Operator to return the address of an array element relative to a base address.">
<polygon fill="none" stroke="black" points="926.5,-1266.5 926.5,-1285.5 1057.5,-1285.5 1057.5,-1266.5 926.5,-1266.5"/>
<text text-anchor="middle" x="992" y="-1273.5" font-family="Helvetica,sans-Serif" font-size="10.00">element_address_exprt</text>
</a>
</g>
</g>
<!-- Node7&#45;&gt;Node40 -->
<g id="edge15" class="edge">
<title>Node7&#45;&gt;Node40</title>
<path fill="none" stroke="midnightblue" d="M876.49,-1068.33C881.18,-1070.88 885.49,-1074.05 889,-1078 902.49,-1093.18 912.23,-1242.07 926,-1257 929.59,-1260.89 933.92,-1264 938.63,-1266.48"/>
<polygon fill="midnightblue" stroke="midnightblue" points="877.68,-1065.03 867.12,-1064.16 874.84,-1071.42 877.68,-1065.03"/>
</g>
<!-- Node41 -->
<g id="node17" class="node">
<title>Node41</title>
<g id="a_node17"><a xlink:href="classeuclidean__mod__exprt.html" target="_top" xlink:title="Boute&#39;s Euclidean definition of Modulo – to match SMT&#45;LIB2.">
<polygon fill="none" stroke="black" points="931,-1228.5 931,-1247.5 1053,-1247.5 1053,-1228.5 931,-1228.5"/>
<text text-anchor="middle" x="992" y="-1235.5" font-family="Helvetica,sans-Serif" font-size="10.00">euclidean_mod_exprt</text>
</a>
</g>
</g>
<!-- Node7&#45;&gt;Node41 -->
<g id="edge16" class="edge">
<title>Node7&#45;&gt;Node41</title>
<path fill="none" stroke="midnightblue" d="M876.46,-1068.61C881.12,-1071.11 885.43,-1074.19 889,-1078 911.15,-1101.64 903.41,-1195.78 926,-1219 929.77,-1222.88 934.29,-1225.97 939.15,-1228.45"/>
<polygon fill="midnightblue" stroke="midnightblue" points="877.75,-1065.35 867.19,-1064.5 874.91,-1071.75 877.75,-1065.35"/>
</g>
<!-- Node42 -->
<g id="node18" class="node">
<title>Node42</title>
<g id="a_node18"><a xlink:href="classevaluate__exprt.html" target="_top" xlink:title=" ">
<polygon fill="none" stroke="black" points="947,-1190.5 947,-1209.5 1037,-1209.5 1037,-1190.5 947,-1190.5"/>
<text text-anchor="middle" x="992" y="-1197.5" font-family="Helvetica,sans-Serif" font-size="10.00">evaluate_exprt</text>
</a>
</g>
</g>
<!-- Node7&#45;&gt;Node42 -->
<g id="edge17" class="edge">
<title>Node7&#45;&gt;Node42</title>
<path fill="none" stroke="midnightblue" d="M876.32,-1069.03C880.97,-1071.45 885.32,-1074.4 889,-1078 906.4,-1095 908.29,-1164.33 926,-1181 931.82,-1186.48 939.14,-1190.39 946.74,-1193.18"/>
<polygon fill="midnightblue" stroke="midnightblue" points="877.68,-1065.8 867.11,-1064.99 874.87,-1072.21 877.68,-1065.8"/>
</g>
<!-- Node43 -->
<g id="node19" class="node">
<title>Node43</title>
<g id="a_node19"><a xlink:href="classfactorial__power__exprt.html" target="_top" xlink:title="Falling factorial power.">
<polygon fill="none" stroke="black" points="930.5,-1152.5 930.5,-1171.5 1053.5,-1171.5 1053.5,-1152.5 930.5,-1152.5"/>
<text text-anchor="middle" x="992" y="-1159.5" font-family="Helvetica,sans-Serif" font-size="10.00">factorial_power_exprt</text>
</a>
</g>
</g>
<!-- Node7&#45;&gt;Node43 -->
<g id="edge18" class="edge">
<title>Node7&#45;&gt;Node43</title>
<path fill="none" stroke="midnightblue" d="M876.45,-1070.04C880.94,-1072.27 885.22,-1074.9 889,-1078 914.69,-1099.1 899.92,-1122.39 926,-1143 930.89,-1146.86 936.54,-1149.94 942.43,-1152.39"/>
<polygon fill="midnightblue" stroke="midnightblue" points="877.59,-1066.73 867.02,-1066.02 874.85,-1073.16 877.59,-1066.73"/>
</g>
<!-- Node44 -->
<g id="node20" class="node">
<title>Node44</title>
<g id="a_node20"><a xlink:href="classfloatbv__typecast__exprt.html" target="_top" xlink:title="Semantic type conversion from/to floating&#45;point formats.">
<polygon fill="none" stroke="black" points="928,-1114.5 928,-1133.5 1056,-1133.5 1056,-1114.5 928,-1114.5"/>
<text text-anchor="middle" x="992" y="-1121.5" font-family="Helvetica,sans-Serif" font-size="10.00">floatbv_typecast_exprt</text>
</a>
</g>
</g>
<!-- Node7&#45;&gt;Node44 -->
<g id="edge19" class="edge">
<title>Node7&#45;&gt;Node44</title>
<path fill="none" stroke="midnightblue" d="M873.35,-1071.04C878.73,-1073.13 884.06,-1075.45 889,-1078 907.09,-1087.33 907.74,-1096.01 926,-1105 933.59,-1108.74 942.06,-1111.88 950.3,-1114.46"/>
<polygon fill="midnightblue" stroke="midnightblue" points="874.29,-1067.66 863.7,-1067.55 871.91,-1074.24 874.29,-1067.66"/>
</g>
<!-- Node45 -->
<g id="node21" class="node">
<title>Node45</title>
<g id="a_node21"><a xlink:href="classfunction__application__exprt.html" target="_top" xlink:title="Application of (mathematical) function.">
<polygon fill="none" stroke="black" points="934,-1065 934,-1095 1050,-1095 1050,-1065 934,-1065"/>
<text text-anchor="start" x="942" y="-1083" font-family="Helvetica,sans-Serif" font-size="10.00">function_application</text>
<text text-anchor="middle" x="992" y="-1072" font-family="Helvetica,sans-Serif" font-size="10.00">_exprt</text>
</a>
</g>
</g>
<!-- Node7&#45;&gt;Node45 -->
<g id="edge20" class="edge">
<title>Node7&#45;&gt;Node45</title>
<path fill="none" stroke="midnightblue" d="M877.51,-1064.59C895.23,-1066.99 915.44,-1069.74 933.85,-1072.24"/>
<polygon fill="midnightblue" stroke="midnightblue" points="877.77,-1061.09 867.39,-1063.21 876.83,-1068.03 877.77,-1061.09"/>
</g>
<!-- Node46 -->
<g id="node22" class="node">
<title>Node46</title>
<g id="a_node22"><a xlink:href="classimplies__exprt.html" target="_top" xlink:title="Boolean implication.">
<polygon fill="none" stroke="black" points="950.5,-1026.5 950.5,-1045.5 1033.5,-1045.5 1033.5,-1026.5 950.5,-1026.5"/>
<text text-anchor="middle" x="992" y="-1033.5" font-family="Helvetica,sans-Serif" font-size="10.00">implies_exprt</text>
</a>
</g>
</g>
<!-- Node7&#45;&gt;Node46 -->
<g id="edge21" class="edge">
<title>Node7&#45;&gt;Node46</title>
<path fill="none" stroke="midnightblue" d="M877.4,-1051.43C900.65,-1048.27 928.19,-1044.53 950.34,-1041.52"/>
<polygon fill="midnightblue" stroke="midnightblue" points="876.83,-1047.97 867.39,-1052.79 877.77,-1054.91 876.83,-1047.97"/>
</g>
<!-- Node47 -->
<g id="node23" class="node">
<title>Node47</title>
<g id="a_node23"><a xlink:href="classindex__exprt.html" target="_top" xlink:title="Array index operator.">
<polygon fill="none" stroke="black" points="955,-988.5 955,-1007.5 1029,-1007.5 1029,-988.5 955,-988.5"/>
<text text-anchor="middle" x="992" y="-995.5" font-family="Helvetica,sans-Serif" font-size="10.00">index_exprt</text>
</a>
</g>
</g>
<!-- Node7&#45;&gt;Node47 -->
<g id="edge22" class="edge">
<title>Node7&#45;&gt;Node47</title>
<path fill="none" stroke="midnightblue" d="M858.86,-1044.32C877.87,-1035.88 903.12,-1025.15 926,-1017 935.52,-1013.61 945.99,-1010.35 955.68,-1007.52"/>
<polygon fill="midnightblue" stroke="midnightblue" points="857.23,-1041.22 849.54,-1048.5 860.1,-1047.6 857.23,-1041.22"/>
</g>
<!-- Node48 -->
<g id="node24" class="node">
<title>Node48</title>
<g id="a_node24"><a xlink:href="classlet__exprt.html" target="_top" xlink:title="A let expression.">
<polygon fill="none" stroke="black" points="962,-950.5 962,-969.5 1022,-969.5 1022,-950.5 962,-950.5"/>
<text text-anchor="middle" x="992" y="-957.5" font-family="Helvetica,sans-Serif" font-size="10.00">let_exprt</text>
</a>
</g>
</g>
<!-- Node7&#45;&gt;Node48 -->
<g id="edge23" class="edge">
<title>Node7&#45;&gt;Node48</title>
<path fill="none" stroke="midnightblue" d="M845.69,-1040.83C863.9,-1023.01 894.66,-995.47 926,-979 937.14,-973.15 950.32,-968.87 961.89,-965.87"/>
<polygon fill="midnightblue" stroke="midnightblue" points="842.85,-1038.72 838.25,-1048.26 847.79,-1043.67 842.85,-1038.72"/>
</g>
<!-- Node49 -->
<g id="node25" class="node">
<title>Node49</title>
<g id="a_node25"><a xlink:href="classminus__exprt.html" target="_top" xlink:title="Binary minus.">
<polygon fill="none" stroke="black" points="953.5,-912.5 953.5,-931.5 1030.5,-931.5 1030.5,-912.5 953.5,-912.5"/>
<text text-anchor="middle" x="992" y="-919.5" font-family="Helvetica,sans-Serif" font-size="10.00">minus_exprt</text>
</a>
</g>
</g>
<!-- Node7&#45;&gt;Node49 -->
<g id="edge24" class="edge">
<title>Node7&#45;&gt;Node49</title>
<path fill="none" stroke="midnightblue" d="M839.31,-1039.7C854.79,-1013.87 886.51,-966.96 926,-941 934.15,-935.64 943.85,-931.76 953.24,-928.96"/>
<polygon fill="midnightblue" stroke="midnightblue" points="836.2,-1038.09 834.18,-1048.49 842.24,-1041.61 836.2,-1038.09"/>
</g>
<!-- Node50 -->
<g id="node26" class="node">
<title>Node50</title>
<g id="a_node26"><a xlink:href="classmod__exprt.html" target="_top" xlink:title="Modulo defined as lhs&#45;(rhs * truncate(lhs/rhs)).">
<polygon fill="none" stroke="black" points="957.5,-874.5 957.5,-893.5 1026.5,-893.5 1026.5,-874.5 957.5,-874.5"/>
<text text-anchor="middle" x="992" y="-881.5" font-family="Helvetica,sans-Serif" font-size="10.00">mod_exprt</text>
</a>
</g>
</g>
<!-- Node7&#45;&gt;Node50 -->
<g id="edge25" class="edge">
<title>Node7&#45;&gt;Node50</title>
<path fill="none" stroke="midnightblue" d="M835.87,-1038.51C848.48,-1005.57 878.47,-938.98 926,-903 935.09,-896.12 946.63,-891.72 957.45,-888.92"/>
<polygon fill="midnightblue" stroke="midnightblue" points="832.44,-1037.7 832.26,-1048.29 839,-1040.12 832.44,-1037.7"/>
</g>
<!-- Node51 -->
<g id="node27" class="node">
<title>Node51</title>
<g id="a_node27"><a xlink:href="classnamed__term__exprt.html" target="_top" xlink:title="Expression that introduces a new symbol that is equal to the operand.">
<polygon fill="none" stroke="black" points="937,-836.5 937,-855.5 1047,-855.5 1047,-836.5 937,-836.5"/>
<text text-anchor="middle" x="992" y="-843.5" font-family="Helvetica,sans-Serif" font-size="10.00">named_term_exprt</text>
</a>
</g>
</g>
<!-- Node7&#45;&gt;Node51 -->
<g id="edge26" class="edge">
<title>Node7&#45;&gt;Node51</title>
<path fill="none" stroke="midnightblue" d="M833.3,-1038.44C842.89,-999.46 869.77,-911.86 926,-865 930.7,-861.09 936.17,-857.98 941.9,-855.51"/>
<polygon fill="midnightblue" stroke="midnightblue" points="829.87,-1037.73 831,-1048.27 836.69,-1039.33 829.87,-1037.73"/>
</g>
<!-- Node52 -->
<g id="node28" class="node">
<title>Node52</title>
<g id="a_node28"><a xlink:href="classobject__descriptor__exprt.html" target="_top" xlink:title="Split an expression into a base object and a (byte) offset.">
<polygon fill="none" stroke="black" points="926.5,-798.5 926.5,-817.5 1057.5,-817.5 1057.5,-798.5 926.5,-798.5"/>
<text text-anchor="middle" x="992" y="-805.5" font-family="Helvetica,sans-Serif" font-size="10.00">object_descriptor_exprt</text>
</a>
</g>
</g>
<!-- Node7&#45;&gt;Node52 -->
<g id="edge27" class="edge">
<title>Node7&#45;&gt;Node52</title>
<path fill="none" stroke="midnightblue" d="M831.52,-1038.35C838.28,-993.93 860.93,-885.09 926,-827 930.39,-823.09 935.54,-819.97 940.99,-817.5"/>
<polygon fill="midnightblue" stroke="midnightblue" points="828.03,-1038.02 830.1,-1048.42 834.97,-1039 828.03,-1038.02"/>
</g>
<!-- Node53 -->
<g id="node29" class="node">
<title>Node53</title>
<g id="a_node29"><a xlink:href="classpower__exprt.html" target="_top" xlink:title="Exponentiation.">
<polygon fill="none" stroke="black" points="953.5,-760.5 953.5,-779.5 1030.5,-779.5 1030.5,-760.5 953.5,-760.5"/>
<text text-anchor="middle" x="992" y="-767.5" font-family="Helvetica,sans-Serif" font-size="10.00">power_exprt</text>
</a>
</g>
</g>
<!-- Node7&#45;&gt;Node53 -->
<g id="edge28" class="edge">
<title>Node7&#45;&gt;Node53</title>
<path fill="none" stroke="midnightblue" d="M830.21,-1038.21C834.33,-988.72 852.01,-858.56 926,-789 933.45,-781.99 943.35,-777.56 953.16,-774.75"/>
<polygon fill="midnightblue" stroke="midnightblue" points="826.72,-1038.01 829.48,-1048.24 833.7,-1038.52 826.72,-1038.01"/>
</g>
<!-- Node54 -->
<g id="node30" class="node">
<title>Node54</title>
<g id="a_node30"><a xlink:href="classreplication__exprt.html" target="_top" xlink:title="Bit&#45;vector replication.">
<polygon fill="none" stroke="black" points="942.5,-722.5 942.5,-741.5 1041.5,-741.5 1041.5,-722.5 942.5,-722.5"/>
<text text-anchor="middle" x="992" y="-729.5" font-family="Helvetica,sans-Serif" font-size="10.00">replication_exprt</text>
</a>
</g>
</g>
<!-- Node7&#45;&gt;Node54 -->
<g id="edge29" class="edge">
<title>Node7&#45;&gt;Node54</title>
<path fill="none" stroke="midnightblue" d="M829.02,-1038.23C830.21,-983.84 841.29,-830.79 926,-751 930.71,-746.57 936.39,-743.16 942.42,-740.55"/>
<polygon fill="midnightblue" stroke="midnightblue" points="825.52,-1038.23 828.9,-1048.27 832.52,-1038.32 825.52,-1038.23"/>
</g>
<!-- Node55 -->
<g id="node31" class="node">
<title>Node55</title>
<g id="a_node31"><a xlink:href="classsaturating__minus__exprt.html" target="_top" xlink:title="Saturating subtraction expression.">
<polygon fill="none" stroke="black" points="926,-684.5 926,-703.5 1058,-703.5 1058,-684.5 926,-684.5"/>
<text text-anchor="middle" x="992" y="-691.5" font-family="Helvetica,sans-Serif" font-size="10.00">saturating_minus_exprt</text>
</a>
</g>
</g>
<!-- Node7&#45;&gt;Node55 -->
<g id="edge30" class="edge">
<title>Node7&#45;&gt;Node55</title>
<path fill="none" stroke="midnightblue" d="M831.86,-1038.32C841.86,-972.13 877.33,-759.12 926,-713 930.1,-709.12 934.94,-706.02 940.11,-703.56"/>
<polygon fill="midnightblue" stroke="midnightblue" points="828.39,-1037.87 830.38,-1048.27 835.31,-1038.89 828.39,-1037.87"/>
</g>
<!-- Node56 -->
<g id="node32" class="node">
<title>Node56</title>
<g id="a_node32"><a xlink:href="classsaturating__plus__exprt.html" target="_top" xlink:title="The saturating plus expression.">
<polygon fill="none" stroke="black" points="931,-646.5 931,-665.5 1053,-665.5 1053,-646.5 931,-646.5"/>
<text text-anchor="middle" x="992" y="-653.5" font-family="Helvetica,sans-Serif" font-size="10.00">saturating_plus_exprt</text>
</a>
</g>
</g>
<!-- Node7&#45;&gt;Node56 -->
<g id="edge31" class="edge">
<title>Node7&#45;&gt;Node56</title>
<path fill="none" stroke="midnightblue" d="M831.31,-1038.05C839.93,-966.89 872.57,-727 926,-675 929.96,-671.15 934.66,-668.07 939.69,-665.61"/>
<polygon fill="midnightblue" stroke="midnightblue" points="827.79,-1037.96 830.09,-1048.3 834.74,-1038.78 827.79,-1037.96"/>
</g>
<!-- Node57 -->
<g id="node33" class="node">
<title>Node57</title>
<g id="a_node33"><a xlink:href="classshift__exprt.html" target="_top" xlink:title="A base class for shift and rotate operators.">
<polygon fill="none" stroke="red" points="958,-608.5 958,-627.5 1026,-627.5 1026,-608.5 958,-608.5"/>
<text text-anchor="middle" x="992" y="-615.5" font-family="Helvetica,sans-Serif" font-size="10.00">shift_exprt</text>
</a>
</g>
</g>
<!-- Node7&#45;&gt;Node57 -->
<g id="edge32" class="edge">
<title>Node7&#45;&gt;Node57</title>
<path fill="none" stroke="midnightblue" d="M832.52,-1038.37C842.47,-983.7 872.35,-825.28 907,-696 914.13,-669.39 906.26,-656.21 926,-637 934.51,-628.72 946.42,-624.01 957.73,-621.35"/>
<polygon fill="midnightblue" stroke="midnightblue" points="829.04,-1037.94 830.7,-1048.41 835.93,-1039.19 829.04,-1037.94"/>
</g>
<!-- Node65 -->
<g id="node38" class="node">
<title>Node65</title>
<g id="a_node38"><a xlink:href="classand__exprt.html" target="_top" xlink:title="Boolean AND.">
<polygon fill="none" stroke="black" points="959.5,-570.5 959.5,-589.5 1024.5,-589.5 1024.5,-570.5 959.5,-570.5"/>
<text text-anchor="middle" x="992" y="-577.5" font-family="Helvetica,sans-Serif" font-size="10.00">and_exprt</text>
</a>
</g>
</g>
<!-- Node64&#45;&gt;Node65 -->
<g id="edge37" class="edge">
<title>Node64&#45;&gt;Node65</title>
<path fill="none" stroke="midnightblue" d="M883.9,-347.17C885.74,-348.62 887.45,-350.23 889,-352 904.54,-369.74 910.26,-543.44 926,-561 934.48,-570.45 947.37,-575.31 959.44,-577.77"/>
<polygon fill="midnightblue" stroke="midnightblue" points="885.48,-344.03 875.15,-341.68 881.76,-349.96 885.48,-344.03"/>
</g>
<!-- Node66 -->
<g id="node39" class="node">
<title>Node66</title>
<g id="a_node39"><a xlink:href="classarray__exprt.html" target="_top" xlink:title="Array constructor from list of elements.">
<polygon fill="none" stroke="black" points="955.5,-532.5 955.5,-551.5 1028.5,-551.5 1028.5,-532.5 955.5,-532.5"/>
<text text-anchor="middle" x="992" y="-539.5" font-family="Helvetica,sans-Serif" font-size="10.00">array_exprt</text>
</a>
</g>
</g>
<!-- Node64&#45;&gt;Node66 -->
<g id="edge38" class="edge">
<title>Node64&#45;&gt;Node66</title>
<path fill="none" stroke="midnightblue" d="M883.92,-347.32C885.74,-348.74 887.45,-350.29 889,-352 902.09,-366.37 912.75,-508.77 926,-523 933.61,-531.17 944.52,-535.9 955.24,-538.61"/>
<polygon fill="midnightblue" stroke="midnightblue" points="885.63,-344.27 875.29,-341.96 881.94,-350.21 885.63,-344.27"/>
</g>
<!-- Node67 -->
<g id="node40" class="node">
<title>Node67</title>
<g id="a_node40"><a xlink:href="classarray__list__exprt.html" target="_top" xlink:title="Array constructor from a list of index&#45;element pairs Operands are index/value pairs,...">
<polygon fill="none" stroke="black" points="945.5,-494.5 945.5,-513.5 1038.5,-513.5 1038.5,-494.5 945.5,-494.5"/>
<text text-anchor="middle" x="992" y="-501.5" font-family="Helvetica,sans-Serif" font-size="10.00">array_list_exprt</text>
</a>
</g>
</g>
<!-- Node64&#45;&gt;Node67 -->
<g id="edge39" class="edge">
<title>Node64&#45;&gt;Node67</title>
<path fill="none" stroke="midnightblue" d="M883.79,-347.44C885.65,-348.82 887.4,-350.34 889,-352 910.31,-374.07 904.45,-463.17 926,-485 931.37,-490.44 938.2,-494.34 945.41,-497.14"/>
<polygon fill="midnightblue" stroke="midnightblue" points="885.43,-344.34 875.06,-342.18 881.82,-350.34 885.43,-344.34"/>
</g>
<!-- Node68 -->
<g id="node41" class="node">
<title>Node68</title>
<g id="a_node41"><a xlink:href="classbitand__exprt.html" target="_top" xlink:title="Bit&#45;wise AND.">
<polygon fill="none" stroke="black" points="953,-456.5 953,-475.5 1031,-475.5 1031,-456.5 953,-456.5"/>
<text text-anchor="middle" x="992" y="-463.5" font-family="Helvetica,sans-Serif" font-size="10.00">bitand_exprt</text>
</a>
</g>
</g>
<!-- Node64&#45;&gt;Node68 -->
<g id="edge40" class="edge">
<title>Node64&#45;&gt;Node68</title>
<path fill="none" stroke="midnightblue" d="M883.59,-347.65C885.5,-348.97 887.32,-350.42 889,-352 905.53,-367.49 909.3,-431.69 926,-447 933.45,-453.83 943.23,-458.22 952.94,-461.03"/>
<polygon fill="midnightblue" stroke="midnightblue" points="885.1,-344.48 874.68,-342.56 881.63,-350.56 885.1,-344.48"/>
</g>
<!-- Node69 -->
<g id="node42" class="node">
<title>Node69</title>
<g id="a_node42"><a xlink:href="classbitor__exprt.html" target="_top" xlink:title="Bit&#45;wise OR.">
<polygon fill="none" stroke="black" points="957,-418.5 957,-437.5 1027,-437.5 1027,-418.5 957,-418.5"/>
<text text-anchor="middle" x="992" y="-425.5" font-family="Helvetica,sans-Serif" font-size="10.00">bitor_exprt</text>
</a>
</g>
</g>
<!-- Node64&#45;&gt;Node69 -->
<g id="edge41" class="edge">
<title>Node64&#45;&gt;Node69</title>
<path fill="none" stroke="midnightblue" d="M881.18,-346.94C883.93,-348.46 886.56,-350.14 889,-352 913.03,-370.3 901.77,-390.97 926,-409 934.96,-415.67 946.22,-420 956.84,-422.82"/>
<polygon fill="midnightblue" stroke="midnightblue" points="882.64,-343.76 872.11,-342.63 879.64,-350.08 882.64,-343.76"/>
</g>
<!-- Node70 -->
<g id="node43" class="node">
<title>Node70</title>
<g id="a_node43"><a xlink:href="classbitxor__exprt.html" target="_top" xlink:title="Bit&#45;wise XOR.">
<polygon fill="none" stroke="black" points="954.5,-380.5 954.5,-399.5 1029.5,-399.5 1029.5,-380.5 954.5,-380.5"/>
<text text-anchor="middle" x="992" y="-387.5" font-family="Helvetica,sans-Serif" font-size="10.00">bitxor_exprt</text>
</a>
</g>
</g>
<!-- Node64&#45;&gt;Node70 -->
<g id="edge42" class="edge">
<title>Node64&#45;&gt;Node70</title>
<path fill="none" stroke="midnightblue" d="M872.19,-345.72C877.9,-347.68 883.63,-349.79 889,-352 906.09,-359.04 908.83,-364.15 926,-371 935.06,-374.61 945.08,-377.88 954.49,-380.65"/>
<polygon fill="midnightblue" stroke="midnightblue" points="873.27,-342.39 862.68,-342.57 871.08,-349.03 873.27,-342.39"/>
</g>
<!-- Node71 -->
<g id="node44" class="node">
<title>Node71</title>
<g id="a_node44"><a xlink:href="classconcatenation__exprt.html" target="_top" xlink:title="Concatenation of bit&#45;vector operands.">
<polygon fill="none" stroke="black" points="934,-342.5 934,-361.5 1050,-361.5 1050,-342.5 934,-342.5"/>
<text text-anchor="middle" x="992" y="-349.5" font-family="Helvetica,sans-Serif" font-size="10.00">concatenation_exprt</text>
</a>
</g>
</g>
<!-- Node64&#45;&gt;Node71 -->
<g id="edge43" class="edge">
<title>Node64&#45;&gt;Node71</title>
<path fill="none" stroke="midnightblue" d="M885.5,-339.63C901.18,-341.47 918.21,-343.46 933.91,-345.3"/>
<polygon fill="midnightblue" stroke="midnightblue" points="885.76,-336.13 875.42,-338.44 884.95,-343.09 885.76,-336.13"/>
</g>
<!-- Node72 -->
<g id="node45" class="node">
<title>Node72</title>
<g id="a_node45"><a xlink:href="classcond__exprt.html" target="_top" xlink:title="this is a parametric version of an if&#45;expression: it returns the value of the first case (using the o...">
<polygon fill="none" stroke="black" points="956.5,-304.5 956.5,-323.5 1027.5,-323.5 1027.5,-304.5 956.5,-304.5"/>
<text text-anchor="middle" x="992" y="-311.5" font-family="Helvetica,sans-Serif" font-size="10.00">cond_exprt</text>
</a>
</g>
</g>
<!-- Node64&#45;&gt;Node72 -->
<g id="edge44" class="edge">
<title>Node64&#45;&gt;Node72</title>
<path fill="none" stroke="midnightblue" d="M885.66,-326.35C909.23,-323.59 935.84,-320.47 956.42,-318.06"/>
<polygon fill="midnightblue" stroke="midnightblue" points="884.95,-322.91 875.42,-327.56 885.76,-329.87 884.95,-322.91"/>
</g>
<!-- Node73 -->
<g id="node46" class="node">
<title>Node73</title>
<g id="a_node46"><a xlink:href="classmult__exprt.html" target="_top" xlink:title="Binary multiplication Associativity is not specified.">
<polygon fill="none" stroke="black" points="957,-266.5 957,-285.5 1027,-285.5 1027,-266.5 957,-266.5"/>
<text text-anchor="middle" x="992" y="-273.5" font-family="Helvetica,sans-Serif" font-size="10.00">mult_exprt</text>
</a>
</g>
</g>
<!-- Node64&#45;&gt;Node73 -->
<g id="edge45" class="edge">
<title>Node64&#45;&gt;Node73</title>
<path fill="none" stroke="midnightblue" d="M872.19,-320.28C877.9,-318.32 883.63,-316.21 889,-314 906.09,-306.96 908.83,-301.85 926,-295 935.83,-291.08 946.78,-287.57 956.85,-284.66"/>
<polygon fill="midnightblue" stroke="midnightblue" points="871.08,-316.97 862.68,-323.43 873.27,-323.61 871.08,-316.97"/>
</g>
<!-- Node74 -->
<g id="node47" class="node">
<title>Node74</title>
<g id="a_node47"><a xlink:href="classor__exprt.html" target="_top" xlink:title="Boolean OR.">
<polygon fill="none" stroke="black" points="963.5,-228.5 963.5,-247.5 1020.5,-247.5 1020.5,-228.5 963.5,-228.5"/>
<text text-anchor="middle" x="992" y="-235.5" font-family="Helvetica,sans-Serif" font-size="10.00">or_exprt</text>
</a>
</g>
</g>
<!-- Node64&#45;&gt;Node74 -->
<g id="edge46" class="edge">
<title>Node64&#45;&gt;Node74</title>
<path fill="none" stroke="midnightblue" d="M881.18,-319.06C883.93,-317.54 886.56,-315.86 889,-314 913.03,-295.7 901.77,-275.03 926,-257 936.85,-248.93 951.07,-244.27 963.44,-241.6"/>
<polygon fill="midnightblue" stroke="midnightblue" points="879.64,-315.92 872.11,-323.37 882.64,-322.24 879.64,-315.92"/>
</g>
<!-- Node75 -->
<g id="node48" class="node">
<title>Node75</title>
<g id="a_node48"><a xlink:href="classplus__exprt.html" target="_top" xlink:title="The plus expression Associativity is not specified.">
<polygon fill="none" stroke="black" points="958,-190.5 958,-209.5 1026,-209.5 1026,-190.5 958,-190.5"/>
<text text-anchor="middle" x="992" y="-197.5" font-family="Helvetica,sans-Serif" font-size="10.00">plus_exprt</text>
</a>
</g>
</g>
<!-- Node64&#45;&gt;Node75 -->
<g id="edge47" class="edge">
<title>Node64&#45;&gt;Node75</title>
<path fill="none" stroke="midnightblue" d="M883.59,-318.35C885.5,-317.03 887.32,-315.58 889,-314 922.06,-283.01 892.6,-249.62 926,-219 934.75,-210.98 946.72,-206.33 958,-203.64"/>
<polygon fill="midnightblue" stroke="midnightblue" points="881.63,-315.44 874.68,-323.44 885.1,-321.52 881.63,-315.44"/>
</g>
<!-- Node76 -->
<g id="node49" class="node">
<title>Node76</title>
<g id="a_node49"><a xlink:href="classshuffle__vector__exprt.html" target="_top" xlink:title="Shuffle elements of one or two vectors, modelled after Clang&#39;s __builtin_shufflevector.">
<polygon fill="none" stroke="black" points="934,-152.5 934,-171.5 1050,-171.5 1050,-152.5 934,-152.5"/>
<text text-anchor="middle" x="992" y="-159.5" font-family="Helvetica,sans-Serif" font-size="10.00">shuffle_vector_exprt</text>
</a>
</g>
</g>
<!-- Node64&#45;&gt;Node76 -->
<g id="edge48" class="edge">
<title>Node64&#45;&gt;Node76</title>
<path fill="none" stroke="midnightblue" d="M883.79,-318.56C885.65,-317.18 887.4,-315.66 889,-314 910.31,-291.93 904.45,-202.83 926,-181 929.8,-177.15 934.33,-174.07 939.21,-171.61"/>
<polygon fill="midnightblue" stroke="midnightblue" points="881.82,-315.66 875.06,-323.82 885.43,-321.66 881.82,-315.66"/>
</g>
<!-- Node77 -->
<g id="node50" class="node">
<title>Node77</title>
<g id="a_node50"><a xlink:href="classstruct__exprt.html" target="_top" xlink:title="Struct constructor from list of elements.">
<polygon fill="none" stroke="red" points="954.5,-114.5 954.5,-133.5 1029.5,-133.5 1029.5,-114.5 954.5,-114.5"/>
<text text-anchor="middle" x="992" y="-121.5" font-family="Helvetica,sans-Serif" font-size="10.00">struct_exprt</text>
</a>
</g>
</g>
<!-- Node64&#45;&gt;Node77 -->
<g id="edge49" class="edge">
<title>Node64&#45;&gt;Node77</title>
<path fill="none" stroke="midnightblue" d="M883.92,-318.68C885.74,-317.26 887.45,-315.71 889,-314 915.18,-285.25 899.51,-171.45 926,-143 933.37,-135.08 943.84,-130.4 954.23,-127.66"/>
<polygon fill="midnightblue" stroke="midnightblue" points="881.94,-315.79 875.29,-324.04 885.63,-321.73 881.94,-315.79"/>
</g>
<!-- Node79 -->
<g id="node51" class="node">
<title>Node79</title>
<g id="a_node51"><a xlink:href="classtuple__exprt.html" target="_top" xlink:title=" ">
<polygon fill="none" stroke="black" points="956,-76.5 956,-95.5 1028,-95.5 1028,-76.5 956,-76.5"/>
<text text-anchor="middle" x="992" y="-83.5" font-family="Helvetica,sans-Serif" font-size="10.00">tuple_exprt</text>
</a>
</g>
</g>
<!-- Node64&#45;&gt;Node79 -->
<g id="edge50" class="edge">
<title>Node64&#45;&gt;Node79</title>
<path fill="none" stroke="midnightblue" d="M883.9,-318.83C885.74,-317.38 887.45,-315.77 889,-314 920.09,-278.53 894.52,-140.12 926,-105 933.61,-96.51 944.79,-91.72 955.73,-89.06"/>
<polygon fill="midnightblue" stroke="midnightblue" points="881.76,-316.04 875.15,-324.32 885.48,-321.97 881.76,-316.04"/>
</g>
<!-- Node80 -->
<g id="node52" class="node">
<title>Node80</title>
<g id="a_node52"><a xlink:href="classvector__exprt.html" target="_top" xlink:title="Vector constructor from list of elements.">
<polygon fill="none" stroke="black" points="953,-38.5 953,-57.5 1031,-57.5 1031,-38.5 953,-38.5"/>
<text text-anchor="middle" x="992" y="-45.5" font-family="Helvetica,sans-Serif" font-size="10.00">vector_exprt</text>
</a>
</g>
</g>
<!-- Node64&#45;&gt;Node80 -->
<g id="edge51" class="edge">
<title>Node64&#45;&gt;Node80</title>
<path fill="none" stroke="midnightblue" d="M883.97,-318.89C885.79,-317.42 887.48,-315.79 889,-314 907.03,-292.78 902.87,-217.54 907,-190 915.2,-135.3 889.53,-108.59 926,-67 932.9,-59.13 942.86,-54.44 952.91,-51.66"/>
<polygon fill="midnightblue" stroke="midnightblue" points="881.83,-316.1 875.28,-324.43 885.59,-322.01 881.83,-316.1"/>
</g>
<!-- Node81 -->
<g id="node53" class="node">
<title>Node81</title>
<g id="a_node53"><a xlink:href="classxor__exprt.html" target="_top" xlink:title="Boolean XOR.">
<polygon fill="none" stroke="black" points="961,-0.5 961,-19.5 1023,-19.5 1023,-0.5 961,-0.5"/>
<text text-anchor="middle" x="992" y="-7.5" font-family="Helvetica,sans-Serif" font-size="10.00">xor_exprt</text>
</a>
</g>
</g>
<!-- Node64&#45;&gt;Node81 -->
<g id="edge52" class="edge">
<title>Node64&#45;&gt;Node81</title>
<path fill="none" stroke="midnightblue" d="M884.01,-319.09C885.83,-317.57 887.51,-315.87 889,-314 928.82,-264.07 881.02,-74.34 926,-29 935.19,-19.74 948.63,-14.93 960.91,-12.46"/>
<polygon fill="midnightblue" stroke="midnightblue" points="881.72,-316.41 875.25,-324.8 885.54,-322.27 881.72,-316.41"/>
</g>
</g>
</svg>
