<?xml version="1.0" encoding="UTF-8" standalone="no"?>
<!DOCTYPE svg PUBLIC "-//W3C//DTD SVG 1.1//EN"
 "http://www.w3.org/Graphics/SVG/1.1/DTD/svg11.dtd">
<!-- Generated by graphviz version 2.43.0 (0)
 -->
<!-- Title: ai_domain_factoryt&lt; domainT &gt; Pages: 1 -->
<svg width="821pt" height="307pt"
 viewBox="0.00 0.00 821.00 307.00" xmlns="http://www.w3.org/2000/svg" xmlns:xlink="http://www.w3.org/1999/xlink">
<g id="graph0" class="graph" transform="scale(1 1) rotate(0) translate(4 303)">
<title>ai_domain_factoryt&lt; domainT &gt;</title>
<!-- Node1 -->
<g id="node1" class="node">
<title>Node1</title>
<g id="a_node1"><a xlink:title=" ">
<polygon fill="#bfbfbf" stroke="black" points="177,-144.5 177,-174.5 288,-174.5 288,-144.5 177,-144.5"/>
<text text-anchor="start" x="185" y="-162.5" font-family="Helvetica,sans-Serif" font-size="10.00">ai_domain_factoryt</text>
<text text-anchor="middle" x="232.5" y="-151.5" font-family="Helvetica,sans-Serif" font-size="10.00">&lt; domainT &gt;</text>
</a>
</g>
</g>
<!-- Node3 -->
<g id="node3" class="node">
<title>Node3</title>
<g id="a_node3"><a xlink:href="classai__domain__factory__default__constructort.html" target="_top" xlink:title=" ">
<polygon fill="none" stroke="black" points="461,-268.5 461,-298.5 608,-298.5 608,-268.5 461,-268.5"/>
<text text-anchor="start" x="469" y="-286.5" font-family="Helvetica,sans-Serif" font-size="10.00">ai_domain_factory_default</text>
<text text-anchor="middle" x="534.5" y="-275.5" font-family="Helvetica,sans-Serif" font-size="10.00">_constructort&lt; domainT &gt;</text>
</a>
</g>
</g>
<!-- Node1&#45;&gt;Node3 -->
<g id="edge2" class="edge">
<title>Node1&#45;&gt;Node3</title>
<path fill="none" stroke="midnightblue" d="M249.09,-182.99C262.16,-200.76 282.44,-224.3 306,-237.5 353.46,-264.09 414.13,-275.43 460.88,-280.21"/>
<polygon fill="midnightblue" stroke="midnightblue" points="251.91,-180.92 243.27,-174.79 246.2,-184.97 251.91,-180.92"/>
</g>
<!-- Node4 -->
<g id="node4" class="node">
<title>Node4</title>
<g id="a_node4"><a xlink:href="classai__domain__factoryt.html" target="_top" xlink:title=" ">
<polygon fill="none" stroke="black" points="460,-219.5 460,-249.5 609,-249.5 609,-219.5 460,-219.5"/>
<text text-anchor="start" x="468" y="-237.5" font-family="Helvetica,sans-Serif" font-size="10.00">ai_domain_factoryt</text>
<text text-anchor="middle" x="534.5" y="-226.5" font-family="Helvetica,sans-Serif" font-size="10.00">&lt; invariant_set_domaint &gt;</text>
</a>
</g>
</g>
<!-- Node1&#45;&gt;Node4 -->
<g id="edge3" class="edge">
<title>Node1&#45;&gt;Node4</title>
<path fill="none" stroke="orange" stroke-dasharray="5,2" d="M271.71,-179C282.58,-183.96 294.57,-188.9 306,-192.5 356.28,-208.32 414.81,-218.96 459.9,-225.57"/>
<polygon fill="orange" stroke="orange" points="273.03,-175.75 262.49,-174.66 270.05,-182.09 273.03,-175.75"/>
<text text-anchor="middle" x="374" y="-225.5" font-family="Helvetica,sans-Serif" font-size="10.00"> &lt; invariant_set_domaint &gt;</text>
</g>
<!-- Node6 -->
<g id="node6" class="node">
<title>Node6</title>
<g id="a_node6"><a xlink:href="classai__domain__factoryt.html" target="_top" xlink:title=" ">
<polygon fill="none" stroke="black" points="470.5,-170.5 470.5,-200.5 598.5,-200.5 598.5,-170.5 470.5,-170.5"/>
<text text-anchor="start" x="478.5" y="-188.5" font-family="Helvetica,sans-Serif" font-size="10.00">ai_domain_factoryt</text>
<text text-anchor="middle" x="534.5" y="-177.5" font-family="Helvetica,sans-Serif" font-size="10.00">&lt; rd_range_domaint &gt;</text>
</a>
</g>
</g>
<!-- Node1&#45;&gt;Node6 -->
<g id="edge5" class="edge">
<title>Node1&#45;&gt;Node6</title>
<path fill="none" stroke="orange" stroke-dasharray="5,2" d="M298.41,-165.13C349.36,-169.54 419.88,-175.65 470.37,-180.03"/>
<polygon fill="orange" stroke="orange" points="298.44,-161.62 288.18,-164.24 297.84,-168.59 298.44,-161.62"/>
<text text-anchor="middle" x="374" y="-180.5" font-family="Helvetica,sans-Serif" font-size="10.00"> &lt; rd_range_domaint &gt;</text>
</g>
<!-- Node8 -->
<g id="node8" class="node">
<title>Node8</title>
<g id="a_node8"><a xlink:href="classai__domain__factoryt.html" target="_top" xlink:title=" ">
<polygon fill="none" stroke="black" points="472.5,-110 472.5,-151 596.5,-151 596.5,-110 472.5,-110"/>
<text text-anchor="start" x="480.5" y="-139" font-family="Helvetica,sans-Serif" font-size="10.00">ai_domain_factoryt</text>
<text text-anchor="start" x="480.5" y="-128" font-family="Helvetica,sans-Serif" font-size="10.00">&lt; variable_sensitivity</text>
<text text-anchor="middle" x="534.5" y="-117" font-family="Helvetica,sans-Serif" font-size="10.00">_domaint &gt;</text>
</a>
</g>
</g>
<!-- Node1&#45;&gt;Node8 -->
<g id="edge7" class="edge">
<title>Node1&#45;&gt;Node8</title>
<path fill="none" stroke="orange" stroke-dasharray="5,2" d="M295.49,-142.34C299.03,-141.64 302.55,-141.02 306,-140.5 361.9,-132.05 426.33,-129.92 472.33,-129.68"/>
<polygon fill="orange" stroke="orange" points="294.55,-138.96 285.5,-144.46 296.01,-145.8 294.55,-138.96"/>
<text text-anchor="start" x="318.5" y="-154.5" font-family="Helvetica,sans-Serif" font-size="10.00"> &lt; variable_sensitivity</text>
<text text-anchor="middle" x="374" y="-143.5" font-family="Helvetica,sans-Serif" font-size="10.00">_domaint &gt;</text>
</g>
<!-- Node10 -->
<g id="node10" class="node">
<title>Node10</title>
<g id="a_node10"><a xlink:href="classai__domain__factoryt.html" target="_top" xlink:title=" ">
<polygon fill="none" stroke="black" points="465.5,-50 465.5,-91 603.5,-91 603.5,-50 465.5,-50"/>
<text text-anchor="start" x="473.5" y="-79" font-family="Helvetica,sans-Serif" font-size="10.00">ai_domain_factoryt</text>
<text text-anchor="start" x="473.5" y="-68" font-family="Helvetica,sans-Serif" font-size="10.00">&lt; variable_sensitivity</text>
<text text-anchor="middle" x="534.5" y="-57" font-family="Helvetica,sans-Serif" font-size="10.00">_dependence_domaint &gt;</text>
</a>
</g>
</g>
<!-- Node1&#45;&gt;Node10 -->
<g id="edge9" class="edge">
<title>Node1&#45;&gt;Node10</title>
<path fill="none" stroke="orange" stroke-dasharray="5,2" d="M256.45,-137.3C269.84,-125.65 287.67,-112.22 306,-104.5 356.79,-83.11 418.93,-74.9 465.43,-71.88"/>
<polygon fill="orange" stroke="orange" points="253.81,-134.97 248.72,-144.26 258.49,-140.17 253.81,-134.97"/>
<text text-anchor="start" x="313" y="-118.5" font-family="Helvetica,sans-Serif" font-size="10.00"> &lt; variable_sensitivity</text>
<text text-anchor="middle" x="374" y="-107.5" font-family="Helvetica,sans-Serif" font-size="10.00">_dependence_domaint &gt;</text>
</g>
<!-- Node12 -->
<g id="node12" class="node">
<title>Node12</title>
<g id="a_node12"><a xlink:href="classai__domain__factoryt.html" target="_top" xlink:title=" ">
<polygon fill="none" stroke="black" points="466.5,-0.5 466.5,-30.5 602.5,-30.5 602.5,-0.5 466.5,-0.5"/>
<text text-anchor="start" x="474.5" y="-18.5" font-family="Helvetica,sans-Serif" font-size="10.00">ai_domain_factoryt</text>
<text text-anchor="middle" x="534.5" y="-7.5" font-family="Helvetica,sans-Serif" font-size="10.00">&lt; dep_graph_domaint &gt;</text>
</a>
</g>
</g>
<!-- Node1&#45;&gt;Node12 -->
<g id="edge11" class="edge">
<title>Node1&#45;&gt;Node12</title>
<path fill="none" stroke="orange" stroke-dasharray="5,2" d="M244.59,-134.93C256.41,-111.69 277.36,-77.75 306,-59.5 354.01,-28.91 418.45,-18.7 466.49,-15.68"/>
<polygon fill="orange" stroke="orange" points="241.33,-133.63 240.09,-144.15 247.62,-136.7 241.33,-133.63"/>
<text text-anchor="middle" x="374" y="-62.5" font-family="Helvetica,sans-Serif" font-size="10.00"> &lt; dep_graph_domaint &gt;</text>
</g>
<!-- Node2 -->
<g id="node2" class="node">
<title>Node2</title>
<g id="a_node2"><a xlink:href="classai__domain__factory__baset.html" target="_top" xlink:title=" ">
<polygon fill="none" stroke="black" points="0,-150 0,-169 140,-169 140,-150 0,-150"/>
<text text-anchor="middle" x="70" y="-157" font-family="Helvetica,sans-Serif" font-size="10.00">ai_domain_factory_baset</text>
</a>
</g>
</g>
<!-- Node2&#45;&gt;Node1 -->
<g id="edge1" class="edge">
<title>Node2&#45;&gt;Node1</title>
<path fill="none" stroke="midnightblue" d="M150.52,-159.5C159.46,-159.5 168.41,-159.5 176.92,-159.5"/>
<polygon fill="midnightblue" stroke="midnightblue" points="150.46,-156 140.46,-159.5 150.46,-163 150.46,-156"/>
</g>
<!-- Node5 -->
<g id="node5" class="node">
<title>Node5</title>
<g id="a_node5"><a xlink:href="classinvariant__set__domain__factoryt.html" target="_top" xlink:title="Pass the necessary arguments to the invariant_set_domaint&#39;s when constructed.">
<polygon fill="none" stroke="black" points="668.5,-219.5 668.5,-249.5 790.5,-249.5 790.5,-219.5 668.5,-219.5"/>
<text text-anchor="start" x="676.5" y="-237.5" font-family="Helvetica,sans-Serif" font-size="10.00">invariant_set_domain</text>
<text text-anchor="middle" x="729.5" y="-226.5" font-family="Helvetica,sans-Serif" font-size="10.00">_factoryt</text>
</a>
</g>
</g>
<!-- Node4&#45;&gt;Node5 -->
<g id="edge4" class="edge">
<title>Node4&#45;&gt;Node5</title>
<path fill="none" stroke="midnightblue" d="M619.22,-234.5C635.75,-234.5 652.79,-234.5 668.35,-234.5"/>
<polygon fill="midnightblue" stroke="midnightblue" points="619.02,-231 609.02,-234.5 619.02,-238 619.02,-231"/>
</g>
<!-- Node7 -->
<g id="node7" class="node">
<title>Node7</title>
<g id="a_node7"><a xlink:href="classrd__range__domain__factoryt.html" target="_top" xlink:title="This ensures that all domains are constructed with the appropriate pointer back to the analysis engin...">
<polygon fill="none" stroke="black" points="657,-176 657,-195 802,-195 802,-176 657,-176"/>
<text text-anchor="middle" x="729.5" y="-183" font-family="Helvetica,sans-Serif" font-size="10.00">rd_range_domain_factoryt</text>
</a>
</g>
</g>
<!-- Node6&#45;&gt;Node7 -->
<g id="edge6" class="edge">
<title>Node6&#45;&gt;Node7</title>
<path fill="none" stroke="midnightblue" d="M608.87,-185.5C624.58,-185.5 641.16,-185.5 656.8,-185.5"/>
<polygon fill="midnightblue" stroke="midnightblue" points="608.7,-182 598.7,-185.5 608.7,-189 608.7,-182"/>
</g>
<!-- Node9 -->
<g id="node9" class="node">
<title>Node9</title>
<g id="a_node9"><a xlink:href="classvariable__sensitivity__domain__factoryt.html" target="_top" xlink:title=" ">
<polygon fill="none" stroke="black" points="673,-115.5 673,-145.5 786,-145.5 786,-115.5 673,-115.5"/>
<text text-anchor="start" x="681" y="-133.5" font-family="Helvetica,sans-Serif" font-size="10.00">variable_sensitivity</text>
<text text-anchor="middle" x="729.5" y="-122.5" font-family="Helvetica,sans-Serif" font-size="10.00">_domain_factoryt</text>
</a>
</g>
</g>
<!-- Node8&#45;&gt;Node9 -->
<g id="edge8" class="edge">
<title>Node8&#45;&gt;Node9</title>
<path fill="none" stroke="midnightblue" d="M606.75,-130.5C628.53,-130.5 652.15,-130.5 672.74,-130.5"/>
<polygon fill="midnightblue" stroke="midnightblue" points="606.57,-127 596.57,-130.5 606.57,-134 606.57,-127"/>
</g>
<!-- Node11 -->
<g id="node11" class="node">
<title>Node11</title>
<g id="a_node11"><a xlink:href="classvariable__sensitivity__dependence__domain__factoryt.html" target="_top" xlink:title="This ensures that all domains are constructed with the node ID that links them to the graph part of t...">
<polygon fill="none" stroke="black" points="646,-55.5 646,-85.5 813,-85.5 813,-55.5 646,-55.5"/>
<text text-anchor="start" x="654" y="-73.5" font-family="Helvetica,sans-Serif" font-size="10.00">variable_sensitivity</text>
<text text-anchor="middle" x="729.5" y="-62.5" font-family="Helvetica,sans-Serif" font-size="10.00">_dependence_domain_factoryt</text>
</a>
</g>
</g>
<!-- Node10&#45;&gt;Node11 -->
<g id="edge10" class="edge">
<title>Node10&#45;&gt;Node11</title>
<path fill="none" stroke="midnightblue" d="M613.61,-70.5C624.22,-70.5 635.15,-70.5 645.84,-70.5"/>
<polygon fill="midnightblue" stroke="midnightblue" points="613.54,-67 603.54,-70.5 613.54,-74 613.54,-67"/>
</g>
<!-- Node13 -->
<g id="node13" class="node">
<title>Node13</title>
<g id="a_node13"><a xlink:href="classdep__graph__domain__factoryt.html" target="_top" xlink:title="This ensures that all domains are constructed with the node ID that links them to the graph part of t...">
<polygon fill="none" stroke="black" points="653,-6 653,-25 806,-25 806,-6 653,-6"/>
<text text-anchor="middle" x="729.5" y="-13" font-family="Helvetica,sans-Serif" font-size="10.00">dep_graph_domain_factoryt</text>
</a>
</g>
</g>
<!-- Node12&#45;&gt;Node13 -->
<g id="edge12" class="edge">
<title>Node12&#45;&gt;Node13</title>
<path fill="none" stroke="midnightblue" d="M612.74,-15.5C625.98,-15.5 639.73,-15.5 652.93,-15.5"/>
<polygon fill="midnightblue" stroke="midnightblue" points="612.73,-12 602.73,-15.5 612.73,-19 612.73,-12"/>
</g>
</g>
</svg>
