<?xml version="1.0" encoding="UTF-8" standalone="no"?>
<!DOCTYPE svg PUBLIC "-//W3C//DTD SVG 1.1//EN"
 "http://www.w3.org/Graphics/SVG/1.1/DTD/svg11.dtd">
<!-- Generated by graphviz version 2.43.0 (0)
 -->
<!-- Title: interval_uniont Pages: 1 -->
<svg width="301pt" height="251pt"
 viewBox="0.00 0.00 301.00 251.00" xmlns="http://www.w3.org/2000/svg" xmlns:xlink="http://www.w3.org/1999/xlink">
<g id="graph0" class="graph" transform="scale(1 1) rotate(0) translate(4 247)">
<title>interval_uniont</title>
<!-- Node1 -->
<g id="node1" class="node">
<title>Node1</title>
<g id="a_node1"><a xlink:title="Represents a set of integers by a union of intervals, which are stored in increasing order for effici...">
<polygon fill="#bfbfbf" stroke="black" points="90,-0.5 90,-19.5 180,-19.5 180,-0.5 90,-0.5"/>
<text text-anchor="middle" x="135" y="-7.5" font-family="Helvetica,sans-Serif" font-size="10.00">interval_uniont</text>
</a>
</g>
</g>
<!-- Node2 -->
<g id="node2" class="node">
<title>Node2</title>
<g id="a_node2"><a xlink:title=" ">
<polygon fill="none" stroke="#bfbfbf" points="76.5,-67.5 76.5,-97.5 193.5,-97.5 193.5,-67.5 76.5,-67.5"/>
<text text-anchor="start" x="84.5" y="-85.5" font-family="Helvetica,sans-Serif" font-size="10.00">std::vector&lt; interval</text>
<text text-anchor="middle" x="135" y="-74.5" font-family="Helvetica,sans-Serif" font-size="10.00">_templatet &gt;</text>
</a>
</g>
</g>
<!-- Node2&#45;&gt;Node1 -->
<g id="edge1" class="edge">
<title>Node2&#45;&gt;Node1</title>
<path fill="none" stroke="#9a32cd" stroke-dasharray="5,2" d="M135,-57.09C135,-44.21 135,-29.2 135,-19.89"/>
<polygon fill="#9a32cd" stroke="#9a32cd" points="131.5,-57.23 135,-67.23 138.5,-57.23 131.5,-57.23"/>
<text text-anchor="middle" x="158" y="-41" font-family="Helvetica,sans-Serif" font-size="10.00"> intervals</text>
</g>
<!-- Node3 -->
<g id="node3" class="node">
<title>Node3</title>
<g id="a_node3"><a xlink:href="classinterval__templatet.html" target="_top" xlink:title=" ">
<polygon fill="none" stroke="black" points="0,-145.5 0,-164.5 136,-164.5 136,-145.5 0,-145.5"/>
<text text-anchor="middle" x="68" y="-152.5" font-family="Helvetica,sans-Serif" font-size="10.00">interval_templatet&lt; T &gt;</text>
</a>
</g>
</g>
<!-- Node3&#45;&gt;Node2 -->
<g id="edge2" class="edge">
<title>Node3&#45;&gt;Node2</title>
<path fill="none" stroke="#9a32cd" stroke-dasharray="5,2" d="M83.12,-138.09C94.69,-125.91 110.51,-109.27 121.62,-97.58"/>
<polygon fill="#9a32cd" stroke="#9a32cd" points="80.57,-135.7 76.22,-145.36 85.64,-140.52 80.57,-135.7"/>
<text text-anchor="middle" x="128.5" y="-119" font-family="Helvetica,sans-Serif" font-size="10.00"> elements</text>
</g>
<!-- Node4 -->
<g id="node4" class="node">
<title>Node4</title>
<g id="a_node4"><a xlink:title=" ">
<polygon fill="none" stroke="#bfbfbf" points="120.5,-223.5 120.5,-242.5 149.5,-242.5 149.5,-223.5 120.5,-223.5"/>
<text text-anchor="middle" x="135" y="-230.5" font-family="Helvetica,sans-Serif" font-size="10.00">T</text>
</a>
</g>
</g>
<!-- Node4&#45;&gt;Node3 -->
<g id="edge3" class="edge">
<title>Node4&#45;&gt;Node3</title>
<path fill="none" stroke="#9a32cd" stroke-dasharray="5,2" d="M120.4,-215.44C106.61,-199.79 86.45,-176.93 75.6,-164.62"/>
<polygon fill="#9a32cd" stroke="#9a32cd" points="118.08,-218.1 127.31,-223.28 123.33,-213.47 118.08,-218.1"/>
<text text-anchor="middle" x="125.5" y="-197" font-family="Helvetica,sans-Serif" font-size="10.00"> lower</text>
<text text-anchor="middle" x="125.5" y="-186" font-family="Helvetica,sans-Serif" font-size="10.00">upper</text>
</g>
<!-- Node5 -->
<g id="node5" class="node">
<title>Node5</title>
<g id="a_node5"><a xlink:title="STL class.">
<polygon fill="none" stroke="#bfbfbf" points="154.5,-145.5 154.5,-164.5 251.5,-164.5 251.5,-145.5 154.5,-145.5"/>
<text text-anchor="middle" x="203" y="-152.5" font-family="Helvetica,sans-Serif" font-size="10.00">std::vector&lt; T &gt;</text>
</a>
</g>
</g>
<!-- Node4&#45;&gt;Node5 -->
<g id="edge5" class="edge">
<title>Node4&#45;&gt;Node5</title>
<path fill="none" stroke="#9a32cd" stroke-dasharray="5,2" d="M149.81,-215.44C163.82,-199.79 184.27,-176.93 195.29,-164.62"/>
<polygon fill="#9a32cd" stroke="#9a32cd" points="146.86,-213.5 142.8,-223.28 152.08,-218.16 146.86,-213.5"/>
<text text-anchor="middle" x="202.5" y="-191.5" font-family="Helvetica,sans-Serif" font-size="10.00"> elements</text>
</g>
<!-- Node5&#45;&gt;Node2 -->
<g id="edge4" class="edge">
<title>Node5&#45;&gt;Node2</title>
<path fill="none" stroke="orange" stroke-dasharray="5,2" d="M187.66,-138.09C175.91,-125.91 159.86,-109.27 148.58,-97.58"/>
<polygon fill="orange" stroke="orange" points="185.2,-140.59 194.66,-145.36 190.24,-135.73 185.2,-140.59"/>
<text text-anchor="middle" x="234.5" y="-119" font-family="Helvetica,sans-Serif" font-size="10.00"> &lt; interval_templatet &gt;</text>
</g>
</g>
</svg>
