<?xml version="1.0" encoding="UTF-8" standalone="no"?>
<!DOCTYPE svg PUBLIC "-//W3C//DTD SVG 1.1//EN"
 "http://www.w3.org/Graphics/SVG/1.1/DTD/svg11.dtd">
<!-- Generated by graphviz version 2.43.0 (0)
 -->
<!-- Title: goto_program_cfg_infot Pages: 1 -->
<svg width="238pt" height="240pt"
 viewBox="0.00 0.00 237.50 240.00" xmlns="http://www.w3.org/2000/svg" xmlns:xlink="http://www.w3.org/1999/xlink">
<g id="graph0" class="graph" transform="scale(1 1) rotate(0) translate(4 236)">
<title>goto_program_cfg_infot</title>
<!-- Node1 -->
<g id="node1" class="node">
<title>Node1</title>
<g id="a_node1"><a xlink:title="For a goto program.">
<polygon fill="#bfbfbf" stroke="black" points="0,-0.5 0,-19.5 133,-19.5 133,-0.5 0,-0.5"/>
<text text-anchor="middle" x="66.5" y="-7.5" font-family="Helvetica,sans-Serif" font-size="10.00">goto_program_cfg_infot</text>
</a>
</g>
</g>
<!-- Node2 -->
<g id="node2" class="node">
<title>Node2</title>
<g id="a_node2"><a xlink:href="classcfg__infot.html" target="_top" xlink:title="Stores information about a goto function computed from its CFG.">
<polygon fill="none" stroke="black" points="3,-78.5 3,-97.5 62,-97.5 62,-78.5 3,-78.5"/>
<text text-anchor="middle" x="32.5" y="-85.5" font-family="Helvetica,sans-Serif" font-size="10.00">cfg_infot</text>
</a>
</g>
</g>
<!-- Node2&#45;&gt;Node1 -->
<g id="edge1" class="edge">
<title>Node2&#45;&gt;Node1</title>
<path fill="none" stroke="midnightblue" d="M40.5,-69.12C47.47,-53.53 57.29,-31.59 62.65,-19.62"/>
<polygon fill="midnightblue" stroke="midnightblue" points="37.29,-67.72 36.4,-78.28 43.68,-70.58 37.29,-67.72"/>
</g>
<!-- Node3 -->
<g id="node3" class="node">
<title>Node3</title>
<g id="a_node3"><a xlink:title=" ">
<polygon fill="none" stroke="#bfbfbf" points="80,-78.5 80,-97.5 193,-97.5 193,-78.5 80,-78.5"/>
<text text-anchor="middle" x="136.5" y="-85.5" font-family="Helvetica,sans-Serif" font-size="10.00">std::set&lt; dstringt &gt;</text>
</a>
</g>
</g>
<!-- Node3&#45;&gt;Node1 -->
<g id="edge2" class="edge">
<title>Node3&#45;&gt;Node1</title>
<path fill="none" stroke="#9a32cd" stroke-dasharray="5,2" d="M121.65,-70.88C107.23,-55.22 85.88,-32.04 74.44,-19.62"/>
<polygon fill="#9a32cd" stroke="#9a32cd" points="119.12,-73.3 128.47,-78.28 124.27,-68.56 119.12,-73.3"/>
<text text-anchor="middle" x="125.5" y="-52" font-family="Helvetica,sans-Serif" font-size="10.00"> locals</text>
<text text-anchor="middle" x="125.5" y="-41" font-family="Helvetica,sans-Serif" font-size="10.00">dirty</text>
</g>
<!-- Node4 -->
<g id="node4" class="node">
<title>Node4</title>
<g id="a_node4"><a xlink:href="classdstringt.html" target="_top" xlink:title="dstringt has one field, an unsigned integer no which is an index into a static table of strings.">
<polygon fill="none" stroke="black" points="75.5,-145.5 75.5,-164.5 129.5,-164.5 129.5,-145.5 75.5,-145.5"/>
<text text-anchor="middle" x="102.5" y="-152.5" font-family="Helvetica,sans-Serif" font-size="10.00">dstringt</text>
</a>
</g>
</g>
<!-- Node4&#45;&gt;Node3 -->
<g id="edge3" class="edge">
<title>Node4&#45;&gt;Node3</title>
<path fill="none" stroke="#9a32cd" stroke-dasharray="5,2" d="M111.13,-136.34C114.33,-129.9 118.02,-122.59 121.5,-116 124.7,-109.93 128.45,-103.18 131.4,-97.95"/>
<polygon fill="#9a32cd" stroke="#9a32cd" points="107.9,-134.98 106.62,-145.49 114.18,-138.07 107.9,-134.98"/>
<text text-anchor="middle" x="134.5" y="-119" font-family="Helvetica,sans-Serif" font-size="10.00"> keys</text>
</g>
<!-- Node5 -->
<g id="node5" class="node">
<title>Node5</title>
<g id="a_node5"><a xlink:title="STL class.">
<polygon fill="none" stroke="#bfbfbf" points="147.5,-145.5 147.5,-164.5 229.5,-164.5 229.5,-145.5 147.5,-145.5"/>
<text text-anchor="middle" x="188.5" y="-152.5" font-family="Helvetica,sans-Serif" font-size="10.00">std::set&lt; K &gt;</text>
</a>
</g>
</g>
<!-- Node5&#45;&gt;Node3 -->
<g id="edge4" class="edge">
<title>Node5&#45;&gt;Node3</title>
<path fill="none" stroke="orange" stroke-dasharray="5,2" d="M175.12,-137.27C164.98,-124.6 151.46,-107.7 143.4,-97.63"/>
<polygon fill="orange" stroke="orange" points="172.51,-139.61 181.49,-145.23 177.97,-135.24 172.51,-139.61"/>
<text text-anchor="middle" x="197.5" y="-119" font-family="Helvetica,sans-Serif" font-size="10.00"> &lt; dstringt &gt;</text>
</g>
<!-- Node6 -->
<g id="node6" class="node">
<title>Node6</title>
<g id="a_node6"><a xlink:title=" ">
<polygon fill="none" stroke="#bfbfbf" points="174,-212.5 174,-231.5 203,-231.5 203,-212.5 174,-212.5"/>
<text text-anchor="middle" x="188.5" y="-219.5" font-family="Helvetica,sans-Serif" font-size="10.00">K</text>
</a>
</g>
</g>
<!-- Node6&#45;&gt;Node5 -->
<g id="edge5" class="edge">
<title>Node6&#45;&gt;Node5</title>
<path fill="none" stroke="#9a32cd" stroke-dasharray="5,2" d="M188.5,-202.04C188.5,-189.67 188.5,-174.12 188.5,-164.63"/>
<polygon fill="#9a32cd" stroke="#9a32cd" points="185,-202.23 188.5,-212.23 192,-202.23 185,-202.23"/>
<text text-anchor="middle" x="201.5" y="-186" font-family="Helvetica,sans-Serif" font-size="10.00"> keys</text>
</g>
</g>
</svg>
