<?xml version="1.0" encoding="UTF-8" standalone="no"?>
<!DOCTYPE svg PUBLIC "-//W3C//DTD SVG 1.1//EN"
 "http://www.w3.org/Graphics/SVG/1.1/DTD/svg11.dtd">
<!-- Generated by graphviz version 2.43.0 (0)
 -->
<!-- Title: local_bitvector_analysist Pages: 1 -->
<svg width="1346pt" height="497pt"
 viewBox="0.00 0.00 1346.00 497.00" xmlns="http://www.w3.org/2000/svg" xmlns:xlink="http://www.w3.org/1999/xlink">
<g id="graph0" class="graph" transform="scale(1 1) rotate(0) translate(4 493)">
<title>local_bitvector_analysist</title>
<!-- Node1 -->
<g id="node1" class="node">
<title>Node1</title>
<g id="a_node1"><a xlink:title=" ">
<polygon fill="#bfbfbf" stroke="black" points="1200,-261.5 1200,-280.5 1338,-280.5 1338,-261.5 1200,-261.5"/>
<text text-anchor="middle" x="1269" y="-268.5" font-family="Helvetica,sans-Serif" font-size="10.00">local_bitvector_analysist</text>
</a>
</g>
</g>
<!-- Node2 -->
<g id="node2" class="node">
<title>Node2</title>
<g id="a_node2"><a xlink:href="classdirtyt.html" target="_top" xlink:title="Dirty variables are ones which have their address taken so we can&#39;t reliably work out where they may ...">
<polygon fill="none" stroke="black" points="910.5,-359.5 910.5,-378.5 953.5,-378.5 953.5,-359.5 910.5,-359.5"/>
<text text-anchor="middle" x="932" y="-366.5" font-family="Helvetica,sans-Serif" font-size="10.00">dirtyt</text>
</a>
</g>
</g>
<!-- Node2&#45;&gt;Node1 -->
<g id="edge1" class="edge">
<title>Node2&#45;&gt;Node1</title>
<path fill="none" stroke="#9a32cd" stroke-dasharray="5,2" d="M963.53,-360.3C1010.52,-346.88 1103.37,-320.25 1182,-297 1200.1,-291.65 1220.3,-285.55 1236.58,-280.6"/>
<polygon fill="#9a32cd" stroke="#9a32cd" points="962.34,-357 953.68,-363.11 964.26,-363.73 962.34,-357"/>
<text text-anchor="middle" x="1054.5" y="-356" font-family="Helvetica,sans-Serif" font-size="10.00"> dirty</text>
</g>
<!-- Node3 -->
<g id="node3" class="node">
<title>Node3</title>
<g id="a_node3"><a xlink:title=" ">
<polygon fill="none" stroke="#bfbfbf" points="457,-375 457,-405 564,-405 564,-375 457,-375"/>
<text text-anchor="start" x="465" y="-393" font-family="Helvetica,sans-Serif" font-size="10.00">std::unordered_set</text>
<text text-anchor="middle" x="510.5" y="-382" font-family="Helvetica,sans-Serif" font-size="10.00">&lt; dstringt &gt;</text>
</a>
</g>
</g>
<!-- Node3&#45;&gt;Node2 -->
<g id="edge2" class="edge">
<title>Node3&#45;&gt;Node2</title>
<path fill="none" stroke="#9a32cd" stroke-dasharray="5,2" d="M574.4,-386.85C670.73,-382.03 850.03,-373.05 910.49,-370.03"/>
<polygon fill="#9a32cd" stroke="#9a32cd" points="574.02,-383.37 564.21,-387.36 574.37,-390.36 574.02,-383.37"/>
<text text-anchor="middle" x="656" y="-388" font-family="Helvetica,sans-Serif" font-size="10.00"> dirty</text>
</g>
<!-- Node4 -->
<g id="node4" class="node">
<title>Node4</title>
<g id="a_node4"><a xlink:href="classdstringt.html" target="_top" xlink:title="dstringt has one field, an unsigned integer no which is an index into a static table of strings.">
<polygon fill="none" stroke="black" points="155.5,-378.5 155.5,-397.5 209.5,-397.5 209.5,-378.5 155.5,-378.5"/>
<text text-anchor="middle" x="182.5" y="-385.5" font-family="Helvetica,sans-Serif" font-size="10.00">dstringt</text>
</a>
</g>
</g>
<!-- Node4&#45;&gt;Node3 -->
<g id="edge3" class="edge">
<title>Node4&#45;&gt;Node3</title>
<path fill="none" stroke="#9a32cd" stroke-dasharray="5,2" d="M219.72,-388.22C277.33,-388.58 390.14,-389.27 456.73,-389.68"/>
<polygon fill="#9a32cd" stroke="#9a32cd" points="219.65,-384.72 209.63,-388.16 219.61,-391.72 219.65,-384.72"/>
<text text-anchor="middle" x="343.5" y="-392" font-family="Helvetica,sans-Serif" font-size="10.00"> keys</text>
</g>
<!-- Node22 -->
<g id="node22" class="node">
<title>Node22</title>
<g id="a_node22"><a xlink:title=" ">
<polygon fill="none" stroke="#bfbfbf" points="453,-320 453,-350 568,-350 568,-320 453,-320"/>
<text text-anchor="start" x="461" y="-338" font-family="Helvetica,sans-Serif" font-size="10.00">std::multimap&lt; irep</text>
<text text-anchor="middle" x="510.5" y="-327" font-family="Helvetica,sans-Serif" font-size="10.00">_idt, irep_idt &gt;</text>
</a>
</g>
</g>
<!-- Node4&#45;&gt;Node22 -->
<g id="edge27" class="edge">
<title>Node4&#45;&gt;Node22</title>
<path fill="none" stroke="#9a32cd" stroke-dasharray="5,2" d="M219.27,-375.52C234.45,-370.65 252.42,-365.42 269,-362 331.13,-349.18 403.64,-342.09 452.67,-338.43"/>
<polygon fill="#9a32cd" stroke="#9a32cd" points="218.16,-372.2 209.75,-378.65 220.34,-378.85 218.16,-372.2"/>
<text text-anchor="middle" x="343.5" y="-376" font-family="Helvetica,sans-Serif" font-size="10.00"> elements</text>
<text text-anchor="middle" x="343.5" y="-365" font-family="Helvetica,sans-Serif" font-size="10.00">keys</text>
</g>
<!-- Node27 -->
<g id="node27" class="node">
<title>Node27</title>
<g id="a_node27"><a xlink:title=" ">
<polygon fill="none" stroke="#bfbfbf" points="457,-443 457,-473 564,-473 564,-443 457,-443"/>
<text text-anchor="start" x="465" y="-461" font-family="Helvetica,sans-Serif" font-size="10.00">std::unordered_set</text>
<text text-anchor="middle" x="510.5" y="-450" font-family="Helvetica,sans-Serif" font-size="10.00">&lt; irep_idt &gt;</text>
</a>
</g>
</g>
<!-- Node4&#45;&gt;Node27 -->
<g id="edge37" class="edge">
<title>Node4&#45;&gt;Node27</title>
<path fill="none" stroke="#9a32cd" stroke-dasharray="5,2" d="M219.66,-393.45C230.41,-396.28 241.78,-400.55 251,-407 262.22,-414.85 257.17,-425.11 269,-432 299.85,-449.96 395.78,-455.53 456.76,-457.25"/>
<polygon fill="#9a32cd" stroke="#9a32cd" points="220.15,-389.98 209.62,-391.17 218.59,-396.8 220.15,-389.98"/>
<text text-anchor="middle" x="343.5" y="-458" font-family="Helvetica,sans-Serif" font-size="10.00"> keys</text>
</g>
<!-- Node5 -->
<g id="node5" class="node">
<title>Node5</title>
<g id="a_node5"><a xlink:title=" ">
<polygon fill="none" stroke="#bfbfbf" points="114,-416.5 114,-435.5 251,-435.5 251,-416.5 114,-416.5"/>
<text text-anchor="middle" x="182.5" y="-423.5" font-family="Helvetica,sans-Serif" font-size="10.00">std::unordered_set&lt; K &gt;</text>
</a>
</g>
</g>
<!-- Node5&#45;&gt;Node3 -->
<g id="edge4" class="edge">
<title>Node5&#45;&gt;Node3</title>
<path fill="none" stroke="orange" stroke-dasharray="5,2" d="M261.16,-418.61C306.86,-414.12 365.75,-408.1 418,-402 430.57,-400.53 444.1,-398.83 456.79,-397.17"/>
<polygon fill="orange" stroke="orange" points="260.64,-415.14 251.03,-419.6 261.32,-422.11 260.64,-415.14"/>
<text text-anchor="middle" x="343.5" y="-420" font-family="Helvetica,sans-Serif" font-size="10.00"> &lt; dstringt &gt;</text>
</g>
<!-- Node5&#45;&gt;Node27 -->
<g id="edge38" class="edge">
<title>Node5&#45;&gt;Node27</title>
<path fill="none" stroke="orange" stroke-dasharray="5,2" d="M205.65,-441.14C222.26,-451.54 246,-464.43 269,-470 332.18,-485.3 407.34,-477.59 456.62,-469.17"/>
<polygon fill="orange" stroke="orange" points="207.5,-438.17 197.2,-435.68 203.7,-444.05 207.5,-438.17"/>
<text text-anchor="middle" x="343.5" y="-481" font-family="Helvetica,sans-Serif" font-size="10.00"> &lt; irep_idt &gt;</text>
</g>
<!-- Node6 -->
<g id="node6" class="node">
<title>Node6</title>
<g id="a_node6"><a xlink:title=" ">
<polygon fill="none" stroke="#bfbfbf" points="0,-292.5 0,-311.5 29,-311.5 29,-292.5 0,-292.5"/>
<text text-anchor="middle" x="14.5" y="-299.5" font-family="Helvetica,sans-Serif" font-size="10.00">K</text>
</a>
</g>
</g>
<!-- Node6&#45;&gt;Node5 -->
<g id="edge5" class="edge">
<title>Node6&#45;&gt;Node5</title>
<path fill="none" stroke="#9a32cd" stroke-dasharray="5,2" d="M27.67,-320.15C44.39,-343.66 76.66,-384.32 114,-407 120.35,-410.86 127.5,-413.95 134.72,-416.43"/>
<polygon fill="#9a32cd" stroke="#9a32cd" points="30.44,-317.99 21.86,-311.77 24.69,-321.98 30.44,-317.99"/>
<text text-anchor="middle" x="71.5" y="-396" font-family="Helvetica,sans-Serif" font-size="10.00"> keys</text>
</g>
<!-- Node13 -->
<g id="node13" class="node">
<title>Node13</title>
<g id="a_node13"><a xlink:title=" ">
<polygon fill="none" stroke="#bfbfbf" points="132,-185.5 132,-204.5 233,-204.5 233,-185.5 132,-185.5"/>
<text text-anchor="middle" x="182.5" y="-192.5" font-family="Helvetica,sans-Serif" font-size="10.00">std::map&lt; K, T &gt;</text>
</a>
</g>
</g>
<!-- Node6&#45;&gt;Node13 -->
<g id="edge13" class="edge">
<title>Node6&#45;&gt;Node13</title>
<path fill="none" stroke="#9a32cd" stroke-dasharray="5,2" d="M21.11,-282.28C25.93,-268.66 34.16,-251.08 47,-240 70.77,-219.49 104.23,-208.25 131.82,-202.13"/>
<polygon fill="#9a32cd" stroke="#9a32cd" points="17.67,-281.56 17.96,-292.15 24.34,-283.69 17.67,-281.56"/>
<text text-anchor="middle" x="71.5" y="-243" font-family="Helvetica,sans-Serif" font-size="10.00"> keys</text>
</g>
<!-- Node17 -->
<g id="node17" class="node">
<title>Node17</title>
<g id="a_node17"><a xlink:title=" ">
<polygon fill="none" stroke="#bfbfbf" points="125.5,-239 125.5,-269 239.5,-269 239.5,-239 125.5,-239"/>
<text text-anchor="start" x="133.5" y="-257" font-family="Helvetica,sans-Serif" font-size="10.00">std::unordered_map</text>
<text text-anchor="middle" x="182.5" y="-246" font-family="Helvetica,sans-Serif" font-size="10.00">&lt; K, T &gt;</text>
</a>
</g>
</g>
<!-- Node6&#45;&gt;Node17 -->
<g id="edge19" class="edge">
<title>Node6&#45;&gt;Node17</title>
<path fill="none" stroke="#9a32cd" stroke-dasharray="5,2" d="M28.31,-284.22C33.44,-278.41 39.85,-272.54 47,-269 71,-257.11 100.3,-252.84 125.42,-251.75"/>
<polygon fill="#9a32cd" stroke="#9a32cd" points="25.26,-282.43 21.75,-292.42 30.73,-286.8 25.26,-282.43"/>
<text text-anchor="middle" x="71.5" y="-272" font-family="Helvetica,sans-Serif" font-size="10.00"> keys</text>
</g>
<!-- Node23 -->
<g id="node23" class="node">
<title>Node23</title>
<g id="a_node23"><a xlink:title=" ">
<polygon fill="none" stroke="#bfbfbf" points="119.5,-301.5 119.5,-320.5 245.5,-320.5 245.5,-301.5 119.5,-301.5"/>
<text text-anchor="middle" x="182.5" y="-308.5" font-family="Helvetica,sans-Serif" font-size="10.00">std::multimap&lt; K, T &gt;</text>
</a>
</g>
</g>
<!-- Node6&#45;&gt;Node23 -->
<g id="edge29" class="edge">
<title>Node6&#45;&gt;Node23</title>
<path fill="none" stroke="#9a32cd" stroke-dasharray="5,2" d="M38.77,-311.93C41.51,-312.78 44.29,-313.5 47,-314 70.43,-318.31 96.54,-318.71 119.48,-317.63"/>
<polygon fill="#9a32cd" stroke="#9a32cd" points="39.89,-308.62 29.3,-308.5 37.51,-315.2 39.89,-308.62"/>
<text text-anchor="middle" x="71.5" y="-321" font-family="Helvetica,sans-Serif" font-size="10.00"> keys</text>
</g>
<!-- Node7 -->
<g id="node7" class="node">
<title>Node7</title>
<g id="a_node7"><a xlink:href="classlocal__cfgt.html" target="_top" xlink:title=" ">
<polygon fill="none" stroke="black" points="769.5,-156.5 769.5,-175.5 833.5,-175.5 833.5,-156.5 769.5,-156.5"/>
<text text-anchor="middle" x="801.5" y="-163.5" font-family="Helvetica,sans-Serif" font-size="10.00">local_cfgt</text>
</a>
</g>
</g>
<!-- Node7&#45;&gt;Node1 -->
<g id="edge6" class="edge">
<title>Node7&#45;&gt;Node1</title>
<path fill="none" stroke="#9a32cd" stroke-dasharray="5,2" d="M843.8,-168.81C905.15,-173.69 1023.58,-185.82 1121,-212 1168.27,-224.7 1220.87,-248.27 1248.54,-261.44"/>
<polygon fill="#9a32cd" stroke="#9a32cd" points="843.98,-165.31 833.74,-168.03 843.44,-172.29 843.98,-165.31"/>
<text text-anchor="middle" x="1054.5" y="-215" font-family="Helvetica,sans-Serif" font-size="10.00"> cfg</text>
</g>
<!-- Node8 -->
<g id="node8" class="node">
<title>Node8</title>
<g id="a_node8"><a xlink:title=" ">
<polygon fill="none" stroke="#bfbfbf" points="451,-64.5 451,-83.5 570,-83.5 570,-64.5 451,-64.5"/>
<text text-anchor="middle" x="510.5" y="-71.5" font-family="Helvetica,sans-Serif" font-size="10.00">std::vector&lt; nodet &gt;</text>
</a>
</g>
</g>
<!-- Node8&#45;&gt;Node7 -->
<g id="edge7" class="edge">
<title>Node8&#45;&gt;Node7</title>
<path fill="none" stroke="#9a32cd" stroke-dasharray="5,2" d="M560.44,-86.11C568.67,-88.3 577.1,-90.64 585,-93 654.08,-113.6 734.19,-141.93 774.49,-156.5"/>
<polygon fill="#9a32cd" stroke="#9a32cd" points="561.12,-82.67 550.56,-83.53 559.34,-89.44 561.12,-82.67"/>
<text text-anchor="middle" x="656" y="-136" font-family="Helvetica,sans-Serif" font-size="10.00"> nodes</text>
</g>
<!-- Node9 -->
<g id="node9" class="node">
<title>Node9</title>
<g id="a_node9"><a xlink:title=" ">
<polygon fill="none" stroke="#bfbfbf" points="134,-97.5 134,-116.5 231,-116.5 231,-97.5 134,-97.5"/>
<text text-anchor="middle" x="182.5" y="-104.5" font-family="Helvetica,sans-Serif" font-size="10.00">std::vector&lt; T &gt;</text>
</a>
</g>
</g>
<!-- Node9&#45;&gt;Node8 -->
<g id="edge8" class="edge">
<title>Node9&#45;&gt;Node8</title>
<path fill="none" stroke="orange" stroke-dasharray="5,2" d="M241.28,-97.67C250.53,-96.33 260.02,-95.05 269,-94 330.79,-86.74 401.82,-81.17 450.58,-77.78"/>
<polygon fill="orange" stroke="orange" points="240.74,-94.21 231.36,-99.14 241.76,-101.14 240.74,-94.21"/>
<text text-anchor="middle" x="343.5" y="-97" font-family="Helvetica,sans-Serif" font-size="10.00"> &lt; nodet &gt;</text>
</g>
<!-- Node18 -->
<g id="node18" class="node">
<title>Node18</title>
<g id="a_node18"><a xlink:title=" ">
<polygon fill="none" stroke="#bfbfbf" points="443,-102.5 443,-121.5 578,-121.5 578,-102.5 443,-102.5"/>
<text text-anchor="middle" x="510.5" y="-109.5" font-family="Helvetica,sans-Serif" font-size="10.00">std::vector&lt; key_type &gt;</text>
</a>
</g>
</g>
<!-- Node9&#45;&gt;Node18 -->
<g id="edge22" class="edge">
<title>Node9&#45;&gt;Node18</title>
<path fill="none" stroke="orange" stroke-dasharray="5,2" d="M241.44,-107.89C297.92,-108.75 383.72,-110.07 442.96,-110.98"/>
<polygon fill="orange" stroke="orange" points="241.3,-104.39 231.25,-107.73 241.2,-111.39 241.3,-104.39"/>
<text text-anchor="middle" x="343.5" y="-114" font-family="Helvetica,sans-Serif" font-size="10.00"> &lt; key_type &gt;</text>
</g>
<!-- Node24 -->
<g id="node24" class="node">
<title>Node24</title>
<g id="a_node24"><a xlink:title=" ">
<polygon fill="none" stroke="#bfbfbf" points="455.5,-15 455.5,-45 565.5,-45 565.5,-15 455.5,-15"/>
<text text-anchor="start" x="463.5" y="-33" font-family="Helvetica,sans-Serif" font-size="10.00">std::vector&lt; points</text>
<text text-anchor="middle" x="510.5" y="-22" font-family="Helvetica,sans-Serif" font-size="10.00">_tot &gt;</text>
</a>
</g>
</g>
<!-- Node9&#45;&gt;Node24 -->
<g id="edge34" class="edge">
<title>Node9&#45;&gt;Node24</title>
<path fill="none" stroke="orange" stroke-dasharray="5,2" d="M208.66,-92.47C225.28,-83.5 247.82,-72.5 269,-66 331.36,-46.86 406.04,-37.71 455.47,-33.46"/>
<polygon fill="orange" stroke="orange" points="206.68,-89.57 199.62,-97.47 210.06,-95.69 206.68,-89.57"/>
<text text-anchor="middle" x="343.5" y="-69" font-family="Helvetica,sans-Serif" font-size="10.00"> &lt; points_tot &gt;</text>
</g>
<!-- Node10 -->
<g id="node10" class="node">
<title>Node10</title>
<g id="a_node10"><a xlink:title=" ">
<polygon fill="none" stroke="#bfbfbf" points="0,-173.5 0,-192.5 29,-192.5 29,-173.5 0,-173.5"/>
<text text-anchor="middle" x="14.5" y="-180.5" font-family="Helvetica,sans-Serif" font-size="10.00">T</text>
</a>
</g>
</g>
<!-- Node10&#45;&gt;Node9 -->
<g id="edge9" class="edge">
<title>Node10&#45;&gt;Node9</title>
<path fill="none" stroke="#9a32cd" stroke-dasharray="5,2" d="M28.19,-165.34C33.42,-159.12 39.91,-152.56 47,-148 73.29,-131.12 106.92,-120.87 133.97,-114.84"/>
<polygon fill="#9a32cd" stroke="#9a32cd" points="25.31,-163.34 21.92,-173.38 30.83,-167.64 25.31,-163.34"/>
<text text-anchor="middle" x="71.5" y="-151" font-family="Helvetica,sans-Serif" font-size="10.00"> elements</text>
</g>
<!-- Node10&#45;&gt;Node13 -->
<g id="edge14" class="edge">
<title>Node10&#45;&gt;Node13</title>
<path fill="none" stroke="#9a32cd" stroke-dasharray="5,2" d="M38.29,-169.89C41.15,-168.71 44.09,-167.7 47,-167 68.18,-161.93 74.8,-162 96,-167 104.71,-169.05 105.66,-172.77 114,-176 123.2,-179.56 133.33,-182.77 142.89,-185.49"/>
<polygon fill="#9a32cd" stroke="#9a32cd" points="36.55,-166.84 29.07,-174.35 39.59,-173.15 36.55,-166.84"/>
<text text-anchor="middle" x="71.5" y="-170" font-family="Helvetica,sans-Serif" font-size="10.00"> elements</text>
</g>
<!-- Node10&#45;&gt;Node17 -->
<g id="edge20" class="edge">
<title>Node10&#45;&gt;Node17</title>
<path fill="none" stroke="#9a32cd" stroke-dasharray="5,2" d="M39.51,-185.77C55.95,-188.29 77.96,-192.88 96,-201 105,-205.05 105.75,-208.59 114,-214 127.22,-222.66 142.31,-231.69 154.87,-238.97"/>
<polygon fill="#9a32cd" stroke="#9a32cd" points="39.52,-182.24 29.13,-184.35 38.56,-189.18 39.52,-182.24"/>
<text text-anchor="middle" x="71.5" y="-204" font-family="Helvetica,sans-Serif" font-size="10.00"> elements</text>
</g>
<!-- Node10&#45;&gt;Node23 -->
<g id="edge30" class="edge">
<title>Node10&#45;&gt;Node23</title>
<path fill="none" stroke="#9a32cd" stroke-dasharray="5,2" d="M16.37,-202.81C18.44,-224.87 25.21,-260.04 47,-280 57.91,-290 89.6,-297.56 119.47,-302.72"/>
<polygon fill="#9a32cd" stroke="#9a32cd" points="19.85,-202.36 15.66,-192.62 12.87,-202.84 19.85,-202.36"/>
<text text-anchor="middle" x="71.5" y="-300" font-family="Helvetica,sans-Serif" font-size="10.00"> elements</text>
</g>
<!-- Node11 -->
<g id="node11" class="node">
<title>Node11</title>
<g id="a_node11"><a xlink:title=" ">
<polygon fill="none" stroke="#bfbfbf" points="436,-141 436,-193 585,-193 585,-141 436,-141"/>
<text text-anchor="start" x="444" y="-181" font-family="Helvetica,sans-Serif" font-size="10.00">std::map&lt; goto_programt</text>
<text text-anchor="start" x="444" y="-170" font-family="Helvetica,sans-Serif" font-size="10.00">::const_targett, node</text>
<text text-anchor="start" x="444" y="-159" font-family="Helvetica,sans-Serif" font-size="10.00">_nrt, goto_programt::target</text>
<text text-anchor="middle" x="510.5" y="-148" font-family="Helvetica,sans-Serif" font-size="10.00">_less_than &gt;</text>
</a>
</g>
</g>
<!-- Node11&#45;&gt;Node7 -->
<g id="edge10" class="edge">
<title>Node11&#45;&gt;Node7</title>
<path fill="none" stroke="#9a32cd" stroke-dasharray="5,2" d="M595.49,-166.71C653.75,-166.51 728.03,-166.25 769.29,-166.11"/>
<polygon fill="#9a32cd" stroke="#9a32cd" points="595.16,-163.21 585.17,-166.75 595.19,-170.21 595.16,-163.21"/>
<text text-anchor="middle" x="656" y="-169" font-family="Helvetica,sans-Serif" font-size="10.00"> loc_map</text>
</g>
<!-- Node12 -->
<g id="node12" class="node">
<title>Node12</title>
<g id="a_node12"><a xlink:title=" ">
<polygon fill="none" stroke="#bfbfbf" points="126,-136 126,-166 239,-166 239,-136 126,-136"/>
<text text-anchor="start" x="134" y="-154" font-family="Helvetica,sans-Serif" font-size="10.00">std::list&lt; T &gt;::const</text>
<text text-anchor="middle" x="182.5" y="-143" font-family="Helvetica,sans-Serif" font-size="10.00">_iterator</text>
</a>
</g>
</g>
<!-- Node12&#45;&gt;Node11 -->
<g id="edge11" class="edge">
<title>Node12&#45;&gt;Node11</title>
<path fill="none" stroke="#9a32cd" stroke-dasharray="5,2" d="M249.11,-148.51C296.2,-147.4 361.11,-147.25 418,-152 423.77,-152.48 429.74,-153.13 435.71,-153.88"/>
<polygon fill="#9a32cd" stroke="#9a32cd" points="248.95,-145.01 239.04,-148.77 249.13,-152.01 248.95,-145.01"/>
<text text-anchor="middle" x="343.5" y="-155" font-family="Helvetica,sans-Serif" font-size="10.00"> keys</text>
</g>
<!-- Node13&#45;&gt;Node11 -->
<g id="edge12" class="edge">
<title>Node13&#45;&gt;Node11</title>
<path fill="none" stroke="orange" stroke-dasharray="5,2" d="M243.17,-189.88C297.42,-185.22 377.66,-178.32 435.88,-173.32"/>
<polygon fill="orange" stroke="orange" points="242.68,-186.4 233.01,-190.75 243.28,-193.38 242.68,-186.4"/>
<text text-anchor="start" x="269" y="-212" font-family="Helvetica,sans-Serif" font-size="10.00"> &lt; goto_programt::const</text>
<text text-anchor="start" x="269" y="-201" font-family="Helvetica,sans-Serif" font-size="10.00">_targett, node_nrt, goto</text>
<text text-anchor="middle" x="343.5" y="-190" font-family="Helvetica,sans-Serif" font-size="10.00">_programt::target_less_than &gt;</text>
</g>
<!-- Node14 -->
<g id="node14" class="node">
<title>Node14</title>
<g id="a_node14"><a xlink:href="classnumberingt.html" target="_top" xlink:title=" ">
<polygon fill="none" stroke="black" points="988,-232.5 988,-251.5 1121,-251.5 1121,-232.5 988,-232.5"/>
<text text-anchor="middle" x="1054.5" y="-239.5" font-family="Helvetica,sans-Serif" font-size="10.00">numberingt&lt; dstringt &gt;</text>
</a>
</g>
</g>
<!-- Node14&#45;&gt;Node1 -->
<g id="edge15" class="edge">
<title>Node14&#45;&gt;Node1</title>
<path fill="none" stroke="#9a32cd" stroke-dasharray="5,2" d="M1131.41,-252.36C1153.78,-255.41 1178.11,-258.73 1199.96,-261.71"/>
<polygon fill="#9a32cd" stroke="#9a32cd" points="1131.66,-248.86 1121.28,-250.98 1130.72,-255.8 1131.66,-248.86"/>
<text text-anchor="middle" x="1160.5" y="-262" font-family="Helvetica,sans-Serif" font-size="10.00"> pointers</text>
</g>
<!-- Node15 -->
<g id="node15" class="node">
<title>Node15</title>
<g id="a_node15"><a xlink:href="classnumberingt.html" target="_top" xlink:title=" ">
<polygon fill="none" stroke="black" points="727,-224.5 727,-243.5 876,-243.5 876,-224.5 727,-224.5"/>
<text text-anchor="middle" x="801.5" y="-231.5" font-family="Helvetica,sans-Serif" font-size="10.00">numberingt&lt; keyt, hasht &gt;</text>
</a>
</g>
</g>
<!-- Node15&#45;&gt;Node14 -->
<g id="edge16" class="edge">
<title>Node15&#45;&gt;Node14</title>
<path fill="none" stroke="orange" stroke-dasharray="5,2" d="M886.2,-236.67C919.2,-237.72 956.56,-238.91 987.59,-239.9"/>
<polygon fill="orange" stroke="orange" points="886.22,-233.17 876.11,-236.35 886,-240.16 886.22,-233.17"/>
<text text-anchor="middle" x="932" y="-242" font-family="Helvetica,sans-Serif" font-size="10.00"> &lt; dstringt &gt;</text>
</g>
<!-- Node16 -->
<g id="node16" class="node">
<title>Node16</title>
<g id="a_node16"><a xlink:title=" ">
<polygon fill="none" stroke="#bfbfbf" points="449.5,-212.5 449.5,-253.5 571.5,-253.5 571.5,-212.5 449.5,-212.5"/>
<text text-anchor="start" x="457.5" y="-241.5" font-family="Helvetica,sans-Serif" font-size="10.00">std::unordered_map</text>
<text text-anchor="start" x="457.5" y="-230.5" font-family="Helvetica,sans-Serif" font-size="10.00">&lt; keyt, number_type,</text>
<text text-anchor="middle" x="510.5" y="-219.5" font-family="Helvetica,sans-Serif" font-size="10.00"> std::hash&lt; keyt &gt; &gt;</text>
</a>
</g>
</g>
<!-- Node16&#45;&gt;Node15 -->
<g id="edge17" class="edge">
<title>Node16&#45;&gt;Node15</title>
<path fill="none" stroke="#9a32cd" stroke-dasharray="5,2" d="M581.76,-233.24C625.68,-233.4 682.18,-233.59 726.75,-233.74"/>
<polygon fill="#9a32cd" stroke="#9a32cd" points="581.74,-229.74 571.73,-233.21 581.72,-236.74 581.74,-229.74"/>
<text text-anchor="middle" x="656" y="-236" font-family="Helvetica,sans-Serif" font-size="10.00"> numbers_</text>
</g>
<!-- Node17&#45;&gt;Node16 -->
<g id="edge18" class="edge">
<title>Node17&#45;&gt;Node16</title>
<path fill="none" stroke="orange" stroke-dasharray="5,2" d="M249.7,-244.03C256.21,-243.25 262.73,-242.56 269,-242 330.18,-236.58 400.4,-234.41 449.1,-233.56"/>
<polygon fill="orange" stroke="orange" points="249,-240.59 239.52,-245.3 249.87,-247.53 249,-240.59"/>
<text text-anchor="start" x="289" y="-256" font-family="Helvetica,sans-Serif" font-size="10.00"> &lt; keyt, number_type,</text>
<text text-anchor="middle" x="343.5" y="-245" font-family="Helvetica,sans-Serif" font-size="10.00"> std::hash&lt; keyt &gt; &gt;</text>
</g>
<!-- Node21 -->
<g id="node21" class="node">
<title>Node21</title>
<g id="a_node21"><a xlink:href="classsymbol__table__baset.html" target="_top" xlink:title="The symbol table base class interface.">
<polygon fill="none" stroke="black" points="744,-280.5 744,-299.5 859,-299.5 859,-280.5 744,-280.5"/>
<text text-anchor="middle" x="801.5" y="-287.5" font-family="Helvetica,sans-Serif" font-size="10.00">symbol_table_baset</text>
</a>
</g>
</g>
<!-- Node17&#45;&gt;Node21 -->
<g id="edge31" class="edge">
<title>Node17&#45;&gt;Node21</title>
<path fill="none" stroke="#9a32cd" stroke-dasharray="5,2" d="M249.74,-262.19C256.24,-262.86 262.74,-263.48 269,-264 441.63,-278.3 646.5,-285.6 743.78,-288.48"/>
<polygon fill="#9a32cd" stroke="#9a32cd" points="249.87,-258.69 239.56,-261.1 249.13,-265.65 249.87,-258.69"/>
<text text-anchor="middle" x="510.5" y="-285" font-family="Helvetica,sans-Serif" font-size="10.00"> symbols</text>
</g>
<!-- Node18&#45;&gt;Node15 -->
<g id="edge21" class="edge">
<title>Node18&#45;&gt;Node15</title>
<path fill="none" stroke="#9a32cd" stroke-dasharray="5,2" d="M577.45,-126.34C580.13,-128.02 582.66,-129.9 585,-132 601.33,-146.67 586.74,-163.24 603,-178 624.18,-197.22 696.43,-214.35 747.39,-224.46"/>
<polygon fill="#9a32cd" stroke="#9a32cd" points="578.97,-123.18 568.5,-121.59 575.69,-129.36 578.97,-123.18"/>
<text text-anchor="middle" x="656" y="-219" font-family="Helvetica,sans-Serif" font-size="10.00"> data_</text>
</g>
<!-- Node19 -->
<g id="node19" class="node">
<title>Node19</title>
<g id="a_node19"><a xlink:href="classnamespacet.html" target="_top" xlink:title="A namespacet is essentially one or two symbol tables bound together, to allow for symbol lookups in t...">
<polygon fill="none" stroke="black" points="1016,-280.5 1016,-299.5 1093,-299.5 1093,-280.5 1016,-280.5"/>
<text text-anchor="middle" x="1054.5" y="-287.5" font-family="Helvetica,sans-Serif" font-size="10.00">namespacet</text>
</a>
</g>
</g>
<!-- Node19&#45;&gt;Node1 -->
<g id="edge23" class="edge">
<title>Node19&#45;&gt;Node1</title>
<path fill="none" stroke="#9a32cd" stroke-dasharray="5,2" d="M1103.12,-285.74C1131.66,-283.19 1168.41,-279.9 1199.97,-277.08"/>
<polygon fill="#9a32cd" stroke="#9a32cd" points="1102.65,-282.27 1093,-286.65 1103.27,-289.24 1102.65,-282.27"/>
<text text-anchor="middle" x="1160.5" y="-285" font-family="Helvetica,sans-Serif" font-size="10.00"> ns</text>
</g>
<!-- Node20 -->
<g id="node20" class="node">
<title>Node20</title>
<g id="a_node20"><a xlink:href="classnamespace__baset.html" target="_top" xlink:title="Basic interface for a namespace.">
<polygon fill="none" stroke="black" points="749,-318.5 749,-337.5 854,-337.5 854,-318.5 749,-318.5"/>
<text text-anchor="middle" x="801.5" y="-325.5" font-family="Helvetica,sans-Serif" font-size="10.00">namespace_baset</text>
</a>
</g>
</g>
<!-- Node20&#45;&gt;Node19 -->
<g id="edge24" class="edge">
<title>Node20&#45;&gt;Node19</title>
<path fill="none" stroke="midnightblue" d="M864.21,-325.74C896.01,-323.85 935.3,-320.37 970,-314 988.84,-310.54 1009.54,-304.61 1025.61,-299.5"/>
<polygon fill="midnightblue" stroke="midnightblue" points="863.95,-322.25 854.16,-326.3 864.34,-329.24 863.95,-322.25"/>
</g>
<!-- Node21&#45;&gt;Node19 -->
<g id="edge25" class="edge">
<title>Node21&#45;&gt;Node19</title>
<path fill="none" stroke="#9a32cd" stroke-dasharray="5,2" d="M869.21,-290C916.07,-290 977.05,-290 1015.75,-290"/>
<polygon fill="#9a32cd" stroke="#9a32cd" points="869.14,-286.5 859.14,-290 869.14,-293.5 869.14,-286.5"/>
<text text-anchor="middle" x="932" y="-304" font-family="Helvetica,sans-Serif" font-size="10.00"> symbol_table1</text>
<text text-anchor="middle" x="932" y="-293" font-family="Helvetica,sans-Serif" font-size="10.00">symbol_table2</text>
</g>
<!-- Node22&#45;&gt;Node21 -->
<g id="edge26" class="edge">
<title>Node22&#45;&gt;Node21</title>
<path fill="none" stroke="#9a32cd" stroke-dasharray="5,2" d="M578.35,-324.59C628.5,-316.78 696.39,-306.21 743.88,-298.82"/>
<polygon fill="#9a32cd" stroke="#9a32cd" points="577.59,-321.17 568.25,-326.16 578.67,-328.08 577.59,-321.17"/>
<text text-anchor="middle" x="656" y="-334" font-family="Helvetica,sans-Serif" font-size="10.00"> symbol_base_map</text>
<text text-anchor="middle" x="656" y="-323" font-family="Helvetica,sans-Serif" font-size="10.00">symbol_module_map</text>
</g>
<!-- Node23&#45;&gt;Node22 -->
<g id="edge28" class="edge">
<title>Node23&#45;&gt;Node22</title>
<path fill="none" stroke="orange" stroke-dasharray="5,2" d="M256.25,-306.8C302.7,-305.23 364.11,-305.21 418,-312 431.33,-313.68 445.5,-316.64 458.62,-319.89"/>
<polygon fill="orange" stroke="orange" points="255.84,-303.31 245.97,-307.18 256.1,-310.31 255.84,-303.31"/>
<text text-anchor="middle" x="343.5" y="-315" font-family="Helvetica,sans-Serif" font-size="10.00"> &lt; irep_idt, irep_idt &gt;</text>
</g>
<!-- Node24&#45;&gt;Node1 -->
<g id="edge32" class="edge">
<title>Node24&#45;&gt;Node1</title>
<path fill="none" stroke="#9a32cd" stroke-dasharray="5,2" d="M575.67,-40.64C688.47,-60.5 928.59,-107.92 1121,-181 1175.27,-201.61 1231.71,-242.67 1255.86,-261.35"/>
<polygon fill="#9a32cd" stroke="#9a32cd" points="576.26,-37.19 565.81,-38.92 575.06,-44.09 576.26,-37.19"/>
<text text-anchor="middle" x="932" y="-132" font-family="Helvetica,sans-Serif" font-size="10.00"> loc_infos</text>
</g>
<!-- Node25 -->
<g id="node25" class="node">
<title>Node25</title>
<g id="a_node25"><a xlink:href="classexpanding__vectort.html" target="_top" xlink:title=" ">
<polygon fill="none" stroke="black" points="114.5,-0.5 114.5,-19.5 250.5,-19.5 250.5,-0.5 114.5,-0.5"/>
<text text-anchor="middle" x="182.5" y="-7.5" font-family="Helvetica,sans-Serif" font-size="10.00">expanding_vectort&lt; T &gt;</text>
</a>
</g>
</g>
<!-- Node25&#45;&gt;Node24 -->
<g id="edge33" class="edge">
<title>Node25&#45;&gt;Node24</title>
<path fill="none" stroke="#9a32cd" stroke-dasharray="5,2" d="M260.82,-6.45C306.64,-5.31 365.77,-5.52 418,-11 430.1,-12.27 442.97,-14.43 455.11,-16.84"/>
<polygon fill="#9a32cd" stroke="#9a32cd" points="260.56,-2.95 250.66,-6.73 260.75,-9.95 260.56,-2.95"/>
<text text-anchor="middle" x="343.5" y="-14" font-family="Helvetica,sans-Serif" font-size="10.00"> elements</text>
</g>
<!-- Node26 -->
<g id="node26" class="node">
<title>Node26</title>
<g id="a_node26"><a xlink:href="classlocalst.html" target="_top" xlink:title=" ">
<polygon fill="none" stroke="black" points="907.5,-390.5 907.5,-409.5 956.5,-409.5 956.5,-390.5 907.5,-390.5"/>
<text text-anchor="middle" x="932" y="-397.5" font-family="Helvetica,sans-Serif" font-size="10.00">localst</text>
</a>
</g>
</g>
<!-- Node26&#45;&gt;Node1 -->
<g id="edge35" class="edge">
<title>Node26&#45;&gt;Node1</title>
<path fill="none" stroke="#9a32cd" stroke-dasharray="5,2" d="M966.85,-398.44C1005.38,-395.72 1069.63,-388.28 1121,-368 1177.03,-345.88 1233.88,-300.37 1257.1,-280.56"/>
<polygon fill="#9a32cd" stroke="#9a32cd" points="966.45,-394.96 956.69,-399.09 966.9,-401.94 966.45,-394.96"/>
<text text-anchor="middle" x="1054.5" y="-399" font-family="Helvetica,sans-Serif" font-size="10.00"> locals</text>
</g>
<!-- Node27&#45;&gt;Node26 -->
<g id="edge36" class="edge">
<title>Node27&#45;&gt;Node26</title>
<path fill="none" stroke="#9a32cd" stroke-dasharray="5,2" d="M574.22,-449.33C668.87,-436.24 843.88,-412.05 907.28,-403.28"/>
<polygon fill="#9a32cd" stroke="#9a32cd" points="573.63,-445.88 564.21,-450.71 574.59,-452.81 573.63,-445.88"/>
<text text-anchor="middle" x="656" y="-447" font-family="Helvetica,sans-Serif" font-size="10.00"> locals</text>
</g>
</g>
</svg>
