<?xml version="1.0" encoding="UTF-8" standalone="no"?>
<!DOCTYPE svg PUBLIC "-//W3C//DTD SVG 1.1//EN"
 "http://www.w3.org/Graphics/SVG/1.1/DTD/svg11.dtd">
<!-- Generated by graphviz version 2.43.0 (0)
 -->
<!-- Title: inv_object_storet Pages: 1 -->
<svg width="1990pt" height="327pt"
 viewBox="0.00 0.00 1990.00 326.50" xmlns="http://www.w3.org/2000/svg" xmlns:xlink="http://www.w3.org/1999/xlink">
<g id="graph0" class="graph" transform="scale(1 1) rotate(0) translate(4 322.5)">
<title>inv_object_storet</title>
<!-- Node1 -->
<g id="node1" class="node">
<title>Node1</title>
<g id="a_node1"><a xlink:title=" ">
<polygon fill="#bfbfbf" stroke="black" points="1881,-95 1881,-114 1982,-114 1982,-95 1881,-95"/>
<text text-anchor="middle" x="1931.5" y="-102" font-family="Helvetica,sans-Serif" font-size="10.00">inv_object_storet</text>
</a>
</g>
</g>
<!-- Node2 -->
<g id="node2" class="node">
<title>Node2</title>
<g id="a_node2"><a xlink:href="classnamespacet.html" target="_top" xlink:title="A namespacet is essentially one or two symbol tables bound together, to allow for symbol lookups in t...">
<polygon fill="none" stroke="black" points="1464,-88 1464,-107 1541,-107 1541,-88 1464,-88"/>
<text text-anchor="middle" x="1502.5" y="-95" font-family="Helvetica,sans-Serif" font-size="10.00">namespacet</text>
</a>
</g>
</g>
<!-- Node2&#45;&gt;Node1 -->
<g id="edge1" class="edge">
<title>Node2&#45;&gt;Node1</title>
<path fill="none" stroke="#9a32cd" stroke-dasharray="5,2" d="M1551.5,-98.29C1633.14,-99.63 1798.22,-102.33 1880.92,-103.69"/>
<polygon fill="#9a32cd" stroke="#9a32cd" points="1551.08,-94.78 1541.02,-98.12 1550.96,-101.78 1551.08,-94.78"/>
<text text-anchor="middle" x="1742" y="-105.5" font-family="Helvetica,sans-Serif" font-size="10.00"> ns</text>
</g>
<!-- Node3 -->
<g id="node3" class="node">
<title>Node3</title>
<g id="a_node3"><a xlink:href="classnamespace__baset.html" target="_top" xlink:title="Basic interface for a namespace.">
<polygon fill="none" stroke="black" points="1171.5,-88 1171.5,-107 1276.5,-107 1276.5,-88 1171.5,-88"/>
<text text-anchor="middle" x="1224" y="-95" font-family="Helvetica,sans-Serif" font-size="10.00">namespace_baset</text>
</a>
</g>
</g>
<!-- Node3&#45;&gt;Node2 -->
<g id="edge2" class="edge">
<title>Node3&#45;&gt;Node2</title>
<path fill="none" stroke="midnightblue" d="M1286.88,-97.5C1341.16,-97.5 1418.32,-97.5 1463.82,-97.5"/>
<polygon fill="midnightblue" stroke="midnightblue" points="1286.68,-94 1276.68,-97.5 1286.68,-101 1286.68,-94"/>
</g>
<!-- Node4 -->
<g id="node4" class="node">
<title>Node4</title>
<g id="a_node4"><a xlink:href="classsymbol__table__baset.html" target="_top" xlink:title="The symbol table base class interface.">
<polygon fill="none" stroke="black" points="1166.5,-164 1166.5,-183 1281.5,-183 1281.5,-164 1166.5,-164"/>
<text text-anchor="middle" x="1224" y="-171" font-family="Helvetica,sans-Serif" font-size="10.00">symbol_table_baset</text>
</a>
</g>
</g>
<!-- Node4&#45;&gt;Node2 -->
<g id="edge3" class="edge">
<title>Node4&#45;&gt;Node2</title>
<path fill="none" stroke="#9a32cd" stroke-dasharray="5,2" d="M1269.54,-161.26C1324.47,-146.16 1416.67,-120.82 1466.69,-107.07"/>
<polygon fill="#9a32cd" stroke="#9a32cd" points="1268.45,-157.93 1259.74,-163.95 1270.31,-164.68 1268.45,-157.93"/>
<text text-anchor="middle" x="1360.5" y="-162.5" font-family="Helvetica,sans-Serif" font-size="10.00"> symbol_table1</text>
<text text-anchor="middle" x="1360.5" y="-151.5" font-family="Helvetica,sans-Serif" font-size="10.00">symbol_table2</text>
</g>
<!-- Node5 -->
<g id="node5" class="node">
<title>Node5</title>
<g id="a_node5"><a xlink:title="STL class.">
<polygon fill="none" stroke="#bfbfbf" points="884,-126 884,-145 1010,-145 1010,-126 884,-126"/>
<text text-anchor="middle" x="947" y="-133" font-family="Helvetica,sans-Serif" font-size="10.00">std::multimap&lt; K, T &gt;</text>
</a>
</g>
</g>
<!-- Node5&#45;&gt;Node4 -->
<g id="edge4" class="edge">
<title>Node5&#45;&gt;Node4</title>
<path fill="none" stroke="#9a32cd" stroke-dasharray="5,2" d="M1006.23,-124.66C1044.81,-120.11 1095.72,-119.27 1137,-136.5 1147.44,-140.86 1145.23,-148.79 1155,-154.5 1161.56,-158.33 1168.93,-161.43 1176.34,-163.91"/>
<polygon fill="#9a32cd" stroke="#9a32cd" points="1005.67,-121.2 996.2,-125.95 1006.57,-128.14 1005.67,-121.2"/>
<text text-anchor="middle" x="1082.5" y="-150.5" font-family="Helvetica,sans-Serif" font-size="10.00"> symbol_base_map</text>
<text text-anchor="middle" x="1082.5" y="-139.5" font-family="Helvetica,sans-Serif" font-size="10.00">symbol_module_map</text>
</g>
<!-- Node6 -->
<g id="node6" class="node">
<title>Node6</title>
<g id="a_node6"><a xlink:title=" ">
<polygon fill="none" stroke="#bfbfbf" points="722,-186 722,-205 751,-205 751,-186 722,-186"/>
<text text-anchor="middle" x="736.5" y="-193" font-family="Helvetica,sans-Serif" font-size="10.00">K</text>
</a>
</g>
</g>
<!-- Node6&#45;&gt;Node5 -->
<g id="edge5" class="edge">
<title>Node6&#45;&gt;Node5</title>
<path fill="none" stroke="#9a32cd" stroke-dasharray="5,2" d="M760.57,-183.7C776.16,-176.14 797.4,-166.63 817,-160.5 838.45,-153.79 862.49,-148.55 883.95,-144.63"/>
<polygon fill="#9a32cd" stroke="#9a32cd" points="758.62,-180.76 751.21,-188.33 761.72,-187.03 758.62,-180.76"/>
<text text-anchor="middle" x="841.5" y="-163.5" font-family="Helvetica,sans-Serif" font-size="10.00"> keys</text>
</g>
<!-- Node8 -->
<g id="node8" class="node">
<title>Node8</title>
<g id="a_node8"><a xlink:title="STL class.">
<polygon fill="none" stroke="#bfbfbf" points="890,-199.5 890,-229.5 1004,-229.5 1004,-199.5 890,-199.5"/>
<text text-anchor="start" x="898" y="-217.5" font-family="Helvetica,sans-Serif" font-size="10.00">std::unordered_map</text>
<text text-anchor="middle" x="947" y="-206.5" font-family="Helvetica,sans-Serif" font-size="10.00">&lt; K, T &gt;</text>
</a>
</g>
</g>
<!-- Node6&#45;&gt;Node8 -->
<g id="edge8" class="edge">
<title>Node6&#45;&gt;Node8</title>
<path fill="none" stroke="#9a32cd" stroke-dasharray="5,2" d="M761.23,-198.83C777.01,-200.97 798.21,-203.66 817,-205.5 840.8,-207.82 867.12,-209.77 889.75,-211.26"/>
<polygon fill="#9a32cd" stroke="#9a32cd" points="761.64,-195.36 751.26,-197.47 760.69,-202.29 761.64,-195.36"/>
<text text-anchor="middle" x="841.5" y="-211.5" font-family="Helvetica,sans-Serif" font-size="10.00"> keys</text>
</g>
<!-- Node7 -->
<g id="node7" class="node">
<title>Node7</title>
<g id="a_node7"><a xlink:title=" ">
<polygon fill="none" stroke="#bfbfbf" points="722,-116 722,-135 751,-135 751,-116 722,-116"/>
<text text-anchor="middle" x="736.5" y="-123" font-family="Helvetica,sans-Serif" font-size="10.00">T</text>
</a>
</g>
</g>
<!-- Node7&#45;&gt;Node5 -->
<g id="edge6" class="edge">
<title>Node7&#45;&gt;Node5</title>
<path fill="none" stroke="#9a32cd" stroke-dasharray="5,2" d="M761.32,-124.94C787.13,-124.51 829.53,-124.31 866,-126.5 871.72,-126.84 877.66,-127.31 883.6,-127.84"/>
<polygon fill="#9a32cd" stroke="#9a32cd" points="760.95,-121.45 751.02,-125.14 761.09,-128.45 760.95,-121.45"/>
<text text-anchor="middle" x="841.5" y="-129.5" font-family="Helvetica,sans-Serif" font-size="10.00"> elements</text>
</g>
<!-- Node7&#45;&gt;Node8 -->
<g id="edge9" class="edge">
<title>Node7&#45;&gt;Node8</title>
<path fill="none" stroke="#9a32cd" stroke-dasharray="5,2" d="M759.99,-140.16C775.57,-149.9 797.01,-162.5 817,-171.5 841.32,-182.45 869.31,-192.12 892.98,-199.49"/>
<polygon fill="#9a32cd" stroke="#9a32cd" points="761.44,-136.93 751.12,-134.53 757.68,-142.84 761.44,-136.93"/>
<text text-anchor="middle" x="841.5" y="-193.5" font-family="Helvetica,sans-Serif" font-size="10.00"> elements</text>
</g>
<!-- Node13 -->
<g id="node13" class="node">
<title>Node13</title>
<g id="a_node13"><a xlink:title="STL class.">
<polygon fill="none" stroke="#bfbfbf" points="898.5,-82 898.5,-101 995.5,-101 995.5,-82 898.5,-82"/>
<text text-anchor="middle" x="947" y="-89" font-family="Helvetica,sans-Serif" font-size="10.00">std::vector&lt; T &gt;</text>
</a>
</g>
</g>
<!-- Node7&#45;&gt;Node13 -->
<g id="edge16" class="edge">
<title>Node7&#45;&gt;Node13</title>
<path fill="none" stroke="#9a32cd" stroke-dasharray="5,2" d="M761.22,-120.77C777,-117.68 798.2,-113.66 817,-110.5 843.9,-105.98 874.06,-101.51 898.45,-98.04"/>
<polygon fill="#9a32cd" stroke="#9a32cd" points="760.39,-117.36 751.26,-122.73 761.75,-124.23 760.39,-117.36"/>
<text text-anchor="middle" x="841.5" y="-113.5" font-family="Helvetica,sans-Serif" font-size="10.00"> elements</text>
</g>
<!-- Node8&#45;&gt;Node4 -->
<g id="edge7" class="edge">
<title>Node8&#45;&gt;Node4</title>
<path fill="none" stroke="#9a32cd" stroke-dasharray="5,2" d="M1014.38,-200.86C1018.98,-200.02 1023.56,-199.23 1028,-198.5 1074.31,-190.91 1127.13,-184.26 1166.1,-179.73"/>
<polygon fill="#9a32cd" stroke="#9a32cd" points="1013.48,-197.46 1004.29,-202.73 1014.76,-204.34 1013.48,-197.46"/>
<text text-anchor="middle" x="1082.5" y="-201.5" font-family="Helvetica,sans-Serif" font-size="10.00"> symbols</text>
</g>
<!-- Node10 -->
<g id="node10" class="node">
<title>Node10</title>
<g id="a_node10"><a xlink:title=" ">
<polygon fill="none" stroke="#bfbfbf" points="1155,-262 1155,-303 1293,-303 1293,-262 1155,-262"/>
<text text-anchor="start" x="1163" y="-291" font-family="Helvetica,sans-Serif" font-size="10.00">std::unordered_map</text>
<text text-anchor="start" x="1163" y="-280" font-family="Helvetica,sans-Serif" font-size="10.00">&lt; irep_idt, number_type,</text>
<text text-anchor="middle" x="1224" y="-269" font-family="Helvetica,sans-Serif" font-size="10.00"> std::hash&lt; irep_idt &gt; &gt;</text>
</a>
</g>
</g>
<!-- Node8&#45;&gt;Node10 -->
<g id="edge13" class="edge">
<title>Node8&#45;&gt;Node10</title>
<path fill="none" stroke="orange" stroke-dasharray="5,2" d="M1008,-232.25C1014.73,-234.1 1021.5,-235.88 1028,-237.5 1076.05,-249.46 1088.78,-249.25 1137,-260.5 1142.85,-261.87 1148.92,-263.33 1155,-264.82"/>
<polygon fill="orange" stroke="orange" points="1008.78,-228.84 998.21,-229.53 1006.91,-235.58 1008.78,-228.84"/>
<text text-anchor="start" x="1028.5" y="-285.5" font-family="Helvetica,sans-Serif" font-size="10.00"> &lt; irep_idt, number</text>
<text text-anchor="start" x="1028.5" y="-274.5" font-family="Helvetica,sans-Serif" font-size="10.00">_type, std::hash&lt; irep</text>
<text text-anchor="middle" x="1082.5" y="-263.5" font-family="Helvetica,sans-Serif" font-size="10.00">_idt &gt; &gt;</text>
</g>
<!-- Node15 -->
<g id="node15" class="node">
<title>Node15</title>
<g id="a_node15"><a xlink:title=" ">
<polygon fill="none" stroke="#bfbfbf" points="1163,-202 1163,-243 1285,-243 1285,-202 1163,-202"/>
<text text-anchor="start" x="1171" y="-231" font-family="Helvetica,sans-Serif" font-size="10.00">std::unordered_map</text>
<text text-anchor="start" x="1171" y="-220" font-family="Helvetica,sans-Serif" font-size="10.00">&lt; keyt, number_type,</text>
<text text-anchor="middle" x="1224" y="-209" font-family="Helvetica,sans-Serif" font-size="10.00"> std::hash&lt; keyt &gt; &gt;</text>
</a>
</g>
</g>
<!-- Node8&#45;&gt;Node15 -->
<g id="edge19" class="edge">
<title>Node8&#45;&gt;Node15</title>
<path fill="none" stroke="orange" stroke-dasharray="5,2" d="M1014.7,-213.62C1050.9,-213.45 1096.42,-213.74 1137,-215.5 1145.38,-215.86 1154.21,-216.4 1162.89,-217.02"/>
<polygon fill="orange" stroke="orange" points="1014.24,-210.12 1004.26,-213.68 1014.28,-217.12 1014.24,-210.12"/>
<text text-anchor="start" x="1028" y="-229.5" font-family="Helvetica,sans-Serif" font-size="10.00"> &lt; keyt, number_type,</text>
<text text-anchor="middle" x="1082.5" y="-218.5" font-family="Helvetica,sans-Serif" font-size="10.00"> std::hash&lt; keyt &gt; &gt;</text>
</g>
<!-- Node9 -->
<g id="node9" class="node">
<title>Node9</title>
<g id="a_node9"><a xlink:href="classnumberingt.html" target="_top" xlink:title=" ">
<polygon fill="none" stroke="black" points="1676,-169 1676,-188 1808,-188 1808,-169 1676,-169"/>
<text text-anchor="middle" x="1742" y="-176" font-family="Helvetica,sans-Serif" font-size="10.00">numberingt&lt; irep_idt &gt;</text>
</a>
</g>
</g>
<!-- Node9&#45;&gt;Node1 -->
<g id="edge10" class="edge">
<title>Node9&#45;&gt;Node1</title>
<path fill="none" stroke="#9a32cd" stroke-dasharray="5,2" d="M1776.56,-165.26C1813.83,-150.54 1873.1,-127.15 1906.17,-114.1"/>
<polygon fill="#9a32cd" stroke="#9a32cd" points="1775.15,-162.05 1767.13,-168.98 1777.72,-168.56 1775.15,-162.05"/>
<text text-anchor="middle" x="1844.5" y="-146.5" font-family="Helvetica,sans-Serif" font-size="10.00"> map</text>
</g>
<!-- Node10&#45;&gt;Node9 -->
<g id="edge11" class="edge">
<title>Node10&#45;&gt;Node9</title>
<path fill="none" stroke="#9a32cd" stroke-dasharray="5,2" d="M1303.27,-278.2C1391.49,-271.54 1538.2,-254.95 1658,-214.5 1680.32,-206.96 1704.98,-195.9 1721.57,-188.03"/>
<polygon fill="#9a32cd" stroke="#9a32cd" points="1302.8,-274.73 1293.08,-278.95 1303.31,-281.71 1302.8,-274.73"/>
<text text-anchor="middle" x="1502.5" y="-267.5" font-family="Helvetica,sans-Serif" font-size="10.00"> numbers_</text>
</g>
<!-- Node11 -->
<g id="node11" class="node">
<title>Node11</title>
<g id="a_node11"><a xlink:href="classdstringt.html" target="_top" xlink:title="dstringt has one field, an unsigned integer no which is an index into a static table of strings.">
<polygon fill="none" stroke="black" points="0,-235 0,-254 54,-254 54,-235 0,-235"/>
<text text-anchor="middle" x="27" y="-242" font-family="Helvetica,sans-Serif" font-size="10.00">dstringt</text>
</a>
</g>
</g>
<!-- Node11&#45;&gt;Node10 -->
<g id="edge12" class="edge">
<title>Node11&#45;&gt;Node10</title>
<path fill="none" stroke="#9a32cd" stroke-dasharray="5,2" d="M51.04,-259.46C82,-278.09 139.37,-307.5 193,-307.5 193,-307.5 193,-307.5 948,-307.5 1018.71,-307.5 1099.23,-299.2 1154.78,-292.17"/>
<polygon fill="#9a32cd" stroke="#9a32cd" points="52.65,-256.35 42.31,-254.07 48.98,-262.3 52.65,-256.35"/>
<text text-anchor="middle" x="582.5" y="-310.5" font-family="Helvetica,sans-Serif" font-size="10.00"> keys</text>
</g>
<!-- Node21 -->
<g id="node21" class="node">
<title>Node21</title>
<g id="a_node21"><a xlink:href="classtree__nodet.html" target="_top" xlink:title="A node with data in a tree, it contains:">
<polygon fill="none" stroke="red" points="115,-100.5 115,-130.5 273,-130.5 273,-100.5 115,-100.5"/>
<text text-anchor="start" x="123" y="-118.5" font-family="Helvetica,sans-Serif" font-size="10.00">tree_nodet&lt; treet,</text>
<text text-anchor="middle" x="194" y="-107.5" font-family="Helvetica,sans-Serif" font-size="10.00"> named_subtreest, sharing &gt;</text>
</a>
</g>
</g>
<!-- Node11&#45;&gt;Node21 -->
<g id="edge27" class="edge">
<title>Node11&#45;&gt;Node21</title>
<path fill="none" stroke="#9a32cd" stroke-dasharray="5,2" d="M48.64,-228.36C80.82,-203.21 142.46,-155.02 173.75,-130.55"/>
<polygon fill="#9a32cd" stroke="#9a32cd" points="46.12,-225.89 40.4,-234.8 50.44,-231.4 46.12,-225.89"/>
<text text-anchor="middle" x="84.5" y="-212.5" font-family="Helvetica,sans-Serif" font-size="10.00"> data</text>
</g>
<!-- Node12 -->
<g id="node12" class="node">
<title>Node12</title>
<g id="a_node12"><a xlink:title=" ">
<polygon fill="none" stroke="#bfbfbf" points="1156.5,-126 1156.5,-145 1291.5,-145 1291.5,-126 1156.5,-126"/>
<text text-anchor="middle" x="1224" y="-133" font-family="Helvetica,sans-Serif" font-size="10.00">std::vector&lt; key_type &gt;</text>
</a>
</g>
</g>
<!-- Node12&#45;&gt;Node9 -->
<g id="edge14" class="edge">
<title>Node12&#45;&gt;Node9</title>
<path fill="none" stroke="#9a32cd" stroke-dasharray="5,2" d="M1301.85,-141.9C1403.36,-150.36 1580.4,-165.12 1675.74,-173.06"/>
<polygon fill="#9a32cd" stroke="#9a32cd" points="1301.92,-138.4 1291.67,-141.06 1301.34,-145.37 1301.92,-138.4"/>
<text text-anchor="middle" x="1502.5" y="-167.5" font-family="Helvetica,sans-Serif" font-size="10.00"> data_</text>
</g>
<!-- Node14 -->
<g id="node14" class="node">
<title>Node14</title>
<g id="a_node14"><a xlink:href="classnumberingt.html" target="_top" xlink:title=" ">
<polygon fill="none" stroke="black" points="1428,-206 1428,-225 1577,-225 1577,-206 1428,-206"/>
<text text-anchor="middle" x="1502.5" y="-213" font-family="Helvetica,sans-Serif" font-size="10.00">numberingt&lt; keyt, hasht &gt;</text>
</a>
</g>
</g>
<!-- Node12&#45;&gt;Node14 -->
<g id="edge20" class="edge">
<title>Node12&#45;&gt;Node14</title>
<path fill="none" stroke="#9a32cd" stroke-dasharray="5,2" d="M1282.14,-148.81C1285.92,-150.49 1289.58,-152.38 1293,-154.5 1303.16,-160.8 1300.65,-168.51 1311,-174.5 1346.42,-195.02 1390.92,-205.3 1428,-210.44"/>
<polygon fill="#9a32cd" stroke="#9a32cd" points="1283.14,-145.44 1272.55,-145.04 1280.58,-151.96 1283.14,-145.44"/>
<text text-anchor="middle" x="1360.5" y="-209.5" font-family="Helvetica,sans-Serif" font-size="10.00"> data_</text>
</g>
<!-- Node13&#45;&gt;Node12 -->
<g id="edge15" class="edge">
<title>Node13&#45;&gt;Node12</title>
<path fill="none" stroke="orange" stroke-dasharray="5,2" d="M1006.22,-90.78C1044.12,-91.69 1094.26,-95.48 1137,-107.5 1145.61,-109.92 1146.65,-113.28 1155,-116.5 1164.15,-120.03 1174.22,-123.21 1183.75,-125.91"/>
<polygon fill="orange" stroke="orange" points="1005.93,-87.28 995.87,-90.6 1005.81,-94.28 1005.93,-87.28"/>
<text text-anchor="middle" x="1082.5" y="-110.5" font-family="Helvetica,sans-Serif" font-size="10.00"> &lt; key_type &gt;</text>
</g>
<!-- Node16 -->
<g id="node16" class="node">
<title>Node16</title>
<g id="a_node16"><a xlink:title=" ">
<polygon fill="none" stroke="#bfbfbf" points="1677,-37.5 1677,-67.5 1807,-67.5 1807,-37.5 1677,-37.5"/>
<text text-anchor="start" x="1685" y="-55.5" font-family="Helvetica,sans-Serif" font-size="10.00">std::vector&lt; inv_object</text>
<text text-anchor="middle" x="1742" y="-44.5" font-family="Helvetica,sans-Serif" font-size="10.00">_storet::entryt &gt;</text>
</a>
</g>
</g>
<!-- Node13&#45;&gt;Node16 -->
<g id="edge30" class="edge">
<title>Node13&#45;&gt;Node16</title>
<path fill="none" stroke="orange" stroke-dasharray="5,2" d="M1005.87,-87.59C1047.37,-84.85 1104.62,-81.21 1155,-78.5 1344.65,-68.29 1568.98,-59.16 1676.81,-54.95"/>
<polygon fill="orange" stroke="orange" points="1005.42,-84.11 995.67,-88.26 1005.88,-91.09 1005.42,-84.11"/>
<text text-anchor="start" x="1311" y="-84.5" font-family="Helvetica,sans-Serif" font-size="10.00"> &lt; inv_object_storet</text>
<text text-anchor="middle" x="1360.5" y="-73.5" font-family="Helvetica,sans-Serif" font-size="10.00">::entryt &gt;</text>
</g>
<!-- Node14&#45;&gt;Node9 -->
<g id="edge17" class="edge">
<title>Node14&#45;&gt;Node9</title>
<path fill="none" stroke="orange" stroke-dasharray="5,2" d="M1574.82,-204.39C1608.21,-199.19 1647.59,-193.05 1679.63,-188.06"/>
<polygon fill="orange" stroke="orange" points="1574,-200.97 1564.66,-205.97 1575.08,-207.89 1574,-200.97"/>
<text text-anchor="middle" x="1626.5" y="-202.5" font-family="Helvetica,sans-Serif" font-size="10.00"> &lt; irep_idt &gt;</text>
</g>
<!-- Node15&#45;&gt;Node14 -->
<g id="edge18" class="edge">
<title>Node15&#45;&gt;Node14</title>
<path fill="none" stroke="#9a32cd" stroke-dasharray="5,2" d="M1295.33,-226.92C1300.63,-227.15 1305.9,-227.35 1311,-227.5 1354.98,-228.78 1366.09,-230.37 1410,-227.5 1418.79,-226.93 1428.03,-226.04 1437.12,-225.01"/>
<polygon fill="#9a32cd" stroke="#9a32cd" points="1295.28,-223.42 1285.13,-226.44 1294.95,-230.41 1295.28,-223.42"/>
<text text-anchor="middle" x="1360.5" y="-231.5" font-family="Helvetica,sans-Serif" font-size="10.00"> numbers_</text>
</g>
<!-- Node16&#45;&gt;Node1 -->
<g id="edge21" class="edge">
<title>Node16&#45;&gt;Node1</title>
<path fill="none" stroke="#9a32cd" stroke-dasharray="5,2" d="M1817.16,-67.56C1832.42,-71.11 1848.3,-75.15 1863,-79.5 1877.86,-83.9 1894.16,-89.9 1907.02,-94.92"/>
<polygon fill="#9a32cd" stroke="#9a32cd" points="1817.77,-64.11 1807.24,-65.3 1816.21,-70.93 1817.77,-64.11"/>
<text text-anchor="middle" x="1844.5" y="-82.5" font-family="Helvetica,sans-Serif" font-size="10.00"> entries</text>
</g>
<!-- Node17 -->
<g id="node17" class="node">
<title>Node17</title>
<g id="a_node17"><a xlink:href="structinv__object__storet_1_1entryt.html" target="_top" xlink:title=" ">
<polygon fill="none" stroke="black" points="1449,-0.5 1449,-30.5 1556,-30.5 1556,-0.5 1449,-0.5"/>
<text text-anchor="start" x="1457" y="-18.5" font-family="Helvetica,sans-Serif" font-size="10.00">inv_object_storet::</text>
<text text-anchor="middle" x="1502.5" y="-7.5" font-family="Helvetica,sans-Serif" font-size="10.00">entryt</text>
</a>
</g>
</g>
<!-- Node17&#45;&gt;Node16 -->
<g id="edge22" class="edge">
<title>Node17&#45;&gt;Node16</title>
<path fill="none" stroke="#9a32cd" stroke-dasharray="5,2" d="M1566.33,-21.91C1594.46,-25.12 1627.98,-29.41 1658,-34.5 1664.11,-35.54 1670.44,-36.72 1676.77,-37.96"/>
<polygon fill="#9a32cd" stroke="#9a32cd" points="1566.56,-18.42 1556.23,-20.78 1565.78,-25.37 1566.56,-18.42"/>
<text text-anchor="middle" x="1626.5" y="-37.5" font-family="Helvetica,sans-Serif" font-size="10.00"> elements</text>
</g>
<!-- Node18 -->
<g id="node18" class="node">
<title>Node18</title>
<g id="a_node18"><a xlink:href="classexprt.html" target="_top" xlink:title="Base class for all expressions.">
<polygon fill="none" stroke="black" points="1203,-11 1203,-30 1245,-30 1245,-11 1203,-11"/>
<text text-anchor="middle" x="1224" y="-18" font-family="Helvetica,sans-Serif" font-size="10.00">exprt</text>
</a>
</g>
</g>
<!-- Node18&#45;&gt;Node17 -->
<g id="edge23" class="edge">
<title>Node18&#45;&gt;Node17</title>
<path fill="none" stroke="#9a32cd" stroke-dasharray="5,2" d="M1255.39,-19.95C1301.95,-19.11 1391.54,-17.49 1448.82,-16.45"/>
<polygon fill="#9a32cd" stroke="#9a32cd" points="1255.27,-16.45 1245.33,-20.13 1255.39,-23.45 1255.27,-16.45"/>
<text text-anchor="middle" x="1360.5" y="-22.5" font-family="Helvetica,sans-Serif" font-size="10.00"> expr</text>
</g>
<!-- Node19 -->
<g id="node19" class="node">
<title>Node19</title>
<g id="a_node19"><a xlink:href="classirept.html" target="_top" xlink:title="There are a large number of kinds of tree structured or tree&#45;like data in CPROVER.">
<polygon fill="none" stroke="black" points="927.5,-31 927.5,-50 966.5,-50 966.5,-31 927.5,-31"/>
<text text-anchor="middle" x="947" y="-38" font-family="Helvetica,sans-Serif" font-size="10.00">irept</text>
</a>
</g>
</g>
<!-- Node19&#45;&gt;Node18 -->
<g id="edge24" class="edge">
<title>Node19&#45;&gt;Node18</title>
<path fill="none" stroke="midnightblue" d="M977.21,-38.38C1033.3,-34.3 1154.81,-25.46 1202.86,-21.96"/>
<polygon fill="midnightblue" stroke="midnightblue" points="976.62,-34.91 966.9,-39.13 977.13,-41.89 976.62,-34.91"/>
</g>
<!-- Node20 -->
<g id="node20" class="node">
<title>Node20</title>
<g id="a_node20"><a xlink:href="classsharing__treet.html" target="_top" xlink:title=" ">
<polygon fill="none" stroke="black" points="674,-43 674,-84 799,-84 799,-43 674,-43"/>
<text text-anchor="start" x="682" y="-72" font-family="Helvetica,sans-Serif" font-size="10.00">sharing_treet&lt; irept,</text>
<text text-anchor="start" x="682" y="-61" font-family="Helvetica,sans-Serif" font-size="10.00"> forward_list_as_mapt</text>
<text text-anchor="middle" x="736.5" y="-50" font-family="Helvetica,sans-Serif" font-size="10.00">&lt; irep_idt, irept &gt; &gt;</text>
</a>
</g>
</g>
<!-- Node20&#45;&gt;Node19 -->
<g id="edge25" class="edge">
<title>Node20&#45;&gt;Node19</title>
<path fill="none" stroke="midnightblue" d="M809.39,-55.57C851.26,-50.95 900.85,-45.48 927.25,-42.57"/>
<polygon fill="midnightblue" stroke="midnightblue" points="808.77,-52.12 799.21,-56.69 809.53,-59.07 808.77,-52.12"/>
</g>
<!-- Node21&#45;&gt;Node20 -->
<g id="edge26" class="edge">
<title>Node21&#45;&gt;Node20</title>
<path fill="none" stroke="#9a32cd" stroke-dasharray="5,2" d="M283.49,-117.28C376.91,-117.59 528.06,-113.6 656,-89.5 663.42,-88.1 671.11,-86.2 678.64,-84.05"/>
<polygon fill="#9a32cd" stroke="#9a32cd" points="283.25,-113.78 273.23,-117.23 283.21,-120.78 283.25,-113.78"/>
<text text-anchor="middle" x="423" y="-131.5" font-family="Helvetica,sans-Serif" font-size="10.00"> empty_d</text>
<text text-anchor="middle" x="423" y="-120.5" font-family="Helvetica,sans-Serif" font-size="10.00">data</text>
</g>
<!-- Node24 -->
<g id="node22" class="node">
<title>Node24</title>
<g id="a_node22"><a xlink:href="classsharing__treet.html" target="_top" xlink:title="Base class for tree&#45;like data structures with sharing.">
<polygon fill="none" stroke="black" points="355,-48.5 355,-78.5 491,-78.5 491,-48.5 355,-48.5"/>
<text text-anchor="start" x="363" y="-66.5" font-family="Helvetica,sans-Serif" font-size="10.00">sharing_treet&lt; derivedt,</text>
<text text-anchor="middle" x="423" y="-55.5" font-family="Helvetica,sans-Serif" font-size="10.00"> named_subtreest &gt;</text>
</a>
</g>
</g>
<!-- Node21&#45;&gt;Node24 -->
<g id="edge29" class="edge">
<title>Node21&#45;&gt;Node24</title>
<path fill="none" stroke="#9a32cd" stroke-dasharray="5,2" d="M238.74,-96.6C254.9,-90.29 273.53,-83.78 291,-79.5 311.47,-74.49 334.15,-71.01 354.8,-68.61"/>
<polygon fill="#9a32cd" stroke="#9a32cd" points="237.02,-93.52 229.04,-100.48 239.62,-100.02 237.02,-93.52"/>
<text text-anchor="middle" x="314" y="-93.5" font-family="Helvetica,sans-Serif" font-size="10.00"> empty_d</text>
<text text-anchor="middle" x="314" y="-82.5" font-family="Helvetica,sans-Serif" font-size="10.00">data</text>
</g>
<!-- Node24&#45;&gt;Node20 -->
<g id="edge28" class="edge">
<title>Node24&#45;&gt;Node20</title>
<path fill="none" stroke="orange" stroke-dasharray="5,2" d="M501.29,-63.5C554.58,-63.5 624.45,-63.5 673.96,-63.5"/>
<polygon fill="orange" stroke="orange" points="501.21,-60 491.21,-63.5 501.21,-67 501.21,-60"/>
<text text-anchor="start" x="509" y="-77.5" font-family="Helvetica,sans-Serif" font-size="10.00"> &lt; irept, forward_list</text>
<text text-anchor="middle" x="582.5" y="-66.5" font-family="Helvetica,sans-Serif" font-size="10.00">_as_mapt&lt; irep_idt, irept &gt; &gt;</text>
</g>
</g>
</svg>
