<?xml version="1.0" encoding="UTF-8" standalone="no"?>
<!DOCTYPE svg PUBLIC "-//W3C//DTD SVG 1.1//EN"
 "http://www.w3.org/Graphics/SVG/1.1/DTD/svg11.dtd">
<!-- Generated by graphviz version 2.43.0 (0)
 -->
<!-- Title: natural_loopst Pages: 1 -->
<svg width="2330pt" height="269pt"
 viewBox="0.00 0.00 2330.00 268.50" xmlns="http://www.w3.org/2000/svg" xmlns:xlink="http://www.w3.org/1999/xlink">
<g id="graph0" class="graph" transform="scale(1 1) rotate(0) translate(4 264.5)">
<title>natural_loopst</title>
<!-- Node1 -->
<g id="node1" class="node">
<title>Node1</title>
<g id="a_node1"><a xlink:title="A concretized version of natural_loops_templatet&lt;const goto_programt, goto_programt::const_targett&gt;">
<polygon fill="#bfbfbf" stroke="black" points="2236,-104 2236,-123 2322,-123 2322,-104 2236,-104"/>
<text text-anchor="middle" x="2279" y="-111" font-family="Helvetica,sans-Serif" font-size="10.00">natural_loopst</text>
</a>
</g>
</g>
<!-- Node2 -->
<g id="node2" class="node">
<title>Node2</title>
<g id="a_node2"><a xlink:href="classnatural__loops__templatet.html" target="_top" xlink:title=" ">
<polygon fill="none" stroke="black" points="2026,-93 2026,-134 2199,-134 2199,-93 2026,-93"/>
<text text-anchor="start" x="2034" y="-122" font-family="Helvetica,sans-Serif" font-size="10.00">natural_loops_templatet</text>
<text text-anchor="start" x="2034" y="-111" font-family="Helvetica,sans-Serif" font-size="10.00">&lt; const goto_programt,</text>
<text text-anchor="middle" x="2112.5" y="-100" font-family="Helvetica,sans-Serif" font-size="10.00"> goto_programt::const_targett &gt;</text>
</a>
</g>
</g>
<!-- Node2&#45;&gt;Node1 -->
<g id="edge1" class="edge">
<title>Node2&#45;&gt;Node1</title>
<path fill="none" stroke="midnightblue" d="M2209.28,-113.5C2218.57,-113.5 2227.63,-113.5 2235.96,-113.5"/>
<polygon fill="midnightblue" stroke="midnightblue" points="2209.12,-110 2199.12,-113.5 2209.12,-117 2209.12,-110"/>
</g>
<!-- Node3 -->
<g id="node3" class="node">
<title>Node3</title>
<g id="a_node3"><a xlink:href="classloop__analysist.html" target="_top" xlink:title=" ">
<polygon fill="none" stroke="black" points="1489,-128 1489,-147 1605,-147 1605,-128 1489,-128"/>
<text text-anchor="middle" x="1547" y="-135" font-family="Helvetica,sans-Serif" font-size="10.00">loop_analysist&lt; T &gt;</text>
</a>
</g>
</g>
<!-- Node3&#45;&gt;Node2 -->
<g id="edge2" class="edge">
<title>Node3&#45;&gt;Node2</title>
<path fill="none" stroke="midnightblue" d="M1615.1,-136.84C1704.73,-135.65 1868.45,-132.36 2008,-123.5 2013.86,-123.13 2019.89,-122.69 2025.97,-122.21"/>
<polygon fill="midnightblue" stroke="midnightblue" points="1615.02,-133.34 1605.07,-136.97 1615.11,-140.34 1615.02,-133.34"/>
</g>
<!-- Node11 -->
<g id="node11" class="node">
<title>Node11</title>
<g id="a_node11"><a xlink:href="classnatural__loops__templatet.html" target="_top" xlink:title="Main driver for working out if a class (normally goto_programt) has any natural loops.">
<polygon fill="none" stroke="black" points="1735,-74.5 1735,-104.5 1871,-104.5 1871,-74.5 1735,-74.5"/>
<text text-anchor="start" x="1743" y="-92.5" font-family="Helvetica,sans-Serif" font-size="10.00">natural_loops_templatet</text>
<text text-anchor="middle" x="1803" y="-81.5" font-family="Helvetica,sans-Serif" font-size="10.00">&lt; P, T &gt;</text>
</a>
</g>
</g>
<!-- Node3&#45;&gt;Node11 -->
<g id="edge13" class="edge">
<title>Node3&#45;&gt;Node11</title>
<path fill="none" stroke="midnightblue" d="M1608.39,-126.09C1646.4,-118.9 1695.51,-109.62 1734.76,-102.21"/>
<polygon fill="midnightblue" stroke="midnightblue" points="1607.66,-122.66 1598.49,-127.96 1608.96,-129.54 1607.66,-122.66"/>
</g>
<!-- Node4 -->
<g id="node4" class="node">
<title>Node4</title>
<g id="a_node4"><a xlink:title=" ">
<polygon fill="none" stroke="#bfbfbf" points="1231.5,-166 1231.5,-185 1350.5,-185 1350.5,-166 1231.5,-166"/>
<text text-anchor="middle" x="1291" y="-173" font-family="Helvetica,sans-Serif" font-size="10.00">std::map&lt; T, loopt &gt;</text>
</a>
</g>
</g>
<!-- Node4&#45;&gt;Node3 -->
<g id="edge3" class="edge">
<title>Node4&#45;&gt;Node3</title>
<path fill="none" stroke="#9a32cd" stroke-dasharray="5,2" d="M1360.55,-165.24C1400.61,-159.25 1450.6,-151.77 1488.58,-146.09"/>
<polygon fill="#9a32cd" stroke="#9a32cd" points="1359.96,-161.79 1350.59,-166.73 1361,-168.72 1359.96,-161.79"/>
<text text-anchor="middle" x="1419" y="-163.5" font-family="Helvetica,sans-Serif" font-size="10.00"> loop_map</text>
</g>
<!-- Node5 -->
<g id="node5" class="node">
<title>Node5</title>
<g id="a_node5"><a xlink:href="classloop__templatet.html" target="_top" xlink:title="A loop, specified as a set of instructions.">
<polygon fill="none" stroke="black" points="998,-230 998,-249 1117,-249 1117,-230 998,-230"/>
<text text-anchor="middle" x="1057.5" y="-237" font-family="Helvetica,sans-Serif" font-size="10.00">loop_templatet&lt; T &gt;</text>
</a>
</g>
</g>
<!-- Node5&#45;&gt;Node4 -->
<g id="edge4" class="edge">
<title>Node5&#45;&gt;Node4</title>
<path fill="none" stroke="#9a32cd" stroke-dasharray="5,2" d="M1102.95,-227.27C1130.83,-219.6 1167.52,-209.49 1200,-200.5 1218.44,-195.4 1239.01,-189.69 1255.81,-185.01"/>
<polygon fill="#9a32cd" stroke="#9a32cd" points="1101.82,-223.95 1093.11,-229.98 1103.68,-230.7 1101.82,-223.95"/>
<text text-anchor="middle" x="1168.5" y="-220.5" font-family="Helvetica,sans-Serif" font-size="10.00"> elements</text>
</g>
<!-- Node6 -->
<g id="node6" class="node">
<title>Node6</title>
<g id="a_node6"><a xlink:title=" ">
<polygon fill="none" stroke="#bfbfbf" points="775.5,-240 775.5,-259 856.5,-259 856.5,-240 775.5,-240"/>
<text text-anchor="middle" x="816" y="-247" font-family="Helvetica,sans-Serif" font-size="10.00">std::set&lt; T &gt;</text>
</a>
</g>
</g>
<!-- Node6&#45;&gt;Node5 -->
<g id="edge5" class="edge">
<title>Node6&#45;&gt;Node5</title>
<path fill="none" stroke="#9a32cd" stroke-dasharray="5,2" d="M866.88,-247.42C904.93,-245.83 957.47,-243.63 997.6,-241.96"/>
<polygon fill="#9a32cd" stroke="#9a32cd" points="866.39,-243.93 856.55,-247.85 866.69,-250.93 866.39,-243.93"/>
<text text-anchor="middle" x="934.5" y="-248.5" font-family="Helvetica,sans-Serif" font-size="10.00"> loop_instructions</text>
</g>
<!-- Node7 -->
<g id="node7" class="node">
<title>Node7</title>
<g id="a_node7"><a xlink:title=" ">
<polygon fill="none" stroke="#bfbfbf" points="575.5,-240 575.5,-259 657.5,-259 657.5,-240 575.5,-240"/>
<text text-anchor="middle" x="616.5" y="-247" font-family="Helvetica,sans-Serif" font-size="10.00">std::set&lt; K &gt;</text>
</a>
</g>
</g>
<!-- Node7&#45;&gt;Node6 -->
<g id="edge6" class="edge">
<title>Node7&#45;&gt;Node6</title>
<path fill="none" stroke="orange" stroke-dasharray="5,2" d="M667.95,-249.5C701.3,-249.5 744.38,-249.5 775.29,-249.5"/>
<polygon fill="orange" stroke="orange" points="667.94,-246 657.94,-249.5 667.94,-253 667.94,-246"/>
<text text-anchor="middle" x="725" y="-252.5" font-family="Helvetica,sans-Serif" font-size="10.00"> &lt; T &gt;</text>
</g>
<!-- Node8 -->
<g id="node8" class="node">
<title>Node8</title>
<g id="a_node8"><a xlink:title=" ">
<polygon fill="none" stroke="#bfbfbf" points="278,-220 278,-239 307,-239 307,-220 278,-220"/>
<text text-anchor="middle" x="292.5" y="-227" font-family="Helvetica,sans-Serif" font-size="10.00">K</text>
</a>
</g>
</g>
<!-- Node8&#45;&gt;Node7 -->
<g id="edge7" class="edge">
<title>Node8&#45;&gt;Node7</title>
<path fill="none" stroke="#9a32cd" stroke-dasharray="5,2" d="M317.49,-230.99C372.4,-234.4 507.68,-242.8 575.45,-247.01"/>
<polygon fill="#9a32cd" stroke="#9a32cd" points="317.53,-227.49 307.34,-230.36 317.1,-234.47 317.53,-227.49"/>
<text text-anchor="middle" x="445.5" y="-246.5" font-family="Helvetica,sans-Serif" font-size="10.00"> keys</text>
</g>
<!-- Node10 -->
<g id="node10" class="node">
<title>Node10</title>
<g id="a_node10"><a xlink:title=" ">
<polygon fill="none" stroke="#bfbfbf" points="1007,-182 1007,-201 1108,-201 1108,-182 1007,-182"/>
<text text-anchor="middle" x="1057.5" y="-189" font-family="Helvetica,sans-Serif" font-size="10.00">std::map&lt; K, T &gt;</text>
</a>
</g>
</g>
<!-- Node8&#45;&gt;Node10 -->
<g id="edge10" class="edge">
<title>Node8&#45;&gt;Node10</title>
<path fill="none" stroke="#9a32cd" stroke-dasharray="5,2" d="M317.08,-228.33C423.31,-223.03 858.65,-201.35 1006.84,-193.97"/>
<polygon fill="#9a32cd" stroke="#9a32cd" points="316.88,-224.83 307.07,-228.82 317.23,-231.82 316.88,-224.83"/>
<text text-anchor="middle" x="725" y="-211.5" font-family="Helvetica,sans-Serif" font-size="10.00"> keys</text>
</g>
<!-- Node9 -->
<g id="node9" class="node">
<title>Node9</title>
<g id="a_node9"><a xlink:title=" ">
<polygon fill="none" stroke="#bfbfbf" points="801.5,-143 801.5,-162 830.5,-162 830.5,-143 801.5,-143"/>
<text text-anchor="middle" x="816" y="-150" font-family="Helvetica,sans-Serif" font-size="10.00">T</text>
</a>
</g>
</g>
<!-- Node9&#45;&gt;Node4 -->
<g id="edge8" class="edge">
<title>Node9&#45;&gt;Node4</title>
<path fill="none" stroke="#9a32cd" stroke-dasharray="5,2" d="M840.85,-152.79C891.91,-153.5 1015.53,-155.73 1119,-161.5 1156.47,-163.59 1198.48,-167.02 1231.49,-169.95"/>
<polygon fill="#9a32cd" stroke="#9a32cd" points="840.6,-149.29 830.56,-152.65 840.51,-156.29 840.6,-149.29"/>
<text text-anchor="middle" x="1057.5" y="-164.5" font-family="Helvetica,sans-Serif" font-size="10.00"> keys</text>
</g>
<!-- Node9&#45;&gt;Node10 -->
<g id="edge11" class="edge">
<title>Node9&#45;&gt;Node10</title>
<path fill="none" stroke="#9a32cd" stroke-dasharray="5,2" d="M840.76,-156.37C879.18,-162.62 955.74,-175.09 1006.55,-183.37"/>
<polygon fill="#9a32cd" stroke="#9a32cd" points="841,-152.86 830.56,-154.71 839.87,-159.77 841,-152.86"/>
<text text-anchor="middle" x="934.5" y="-180.5" font-family="Helvetica,sans-Serif" font-size="10.00"> elements</text>
</g>
<!-- Node12 -->
<g id="node12" class="node">
<title>Node12</title>
<g id="a_node12"><a xlink:href="classcfg__dominators__templatet.html" target="_top" xlink:title=" ">
<polygon fill="none" stroke="black" points="1474,-53.5 1474,-83.5 1620,-83.5 1620,-53.5 1474,-53.5"/>
<text text-anchor="start" x="1482" y="-71.5" font-family="Helvetica,sans-Serif" font-size="10.00">cfg_dominators_templatet</text>
<text text-anchor="middle" x="1547" y="-60.5" font-family="Helvetica,sans-Serif" font-size="10.00">&lt; P, T, false &gt;</text>
</a>
</g>
</g>
<!-- Node9&#45;&gt;Node12 -->
<g id="edge24" class="edge">
<title>Node9&#45;&gt;Node12</title>
<path fill="none" stroke="#9a32cd" stroke-dasharray="5,2" d="M840.64,-149.78C938.53,-138.5 1314.4,-95.19 1473.83,-76.82"/>
<polygon fill="#9a32cd" stroke="#9a32cd" points="840.13,-146.31 830.59,-150.93 840.93,-153.27 840.13,-146.31"/>
<text text-anchor="middle" x="1168.5" y="-117.5" font-family="Helvetica,sans-Serif" font-size="10.00"> entry_node</text>
</g>
<!-- Node10&#45;&gt;Node4 -->
<g id="edge9" class="edge">
<title>Node10&#45;&gt;Node4</title>
<path fill="none" stroke="orange" stroke-dasharray="5,2" d="M1118.2,-187.37C1153.03,-184.97 1196.78,-181.94 1231.41,-179.55"/>
<polygon fill="orange" stroke="orange" points="1117.9,-183.89 1108.16,-188.07 1118.38,-190.87 1117.9,-183.89"/>
<text text-anchor="middle" x="1168.5" y="-188.5" font-family="Helvetica,sans-Serif" font-size="10.00"> &lt; T, loopt &gt;</text>
</g>
<!-- Node11&#45;&gt;Node2 -->
<g id="edge12" class="edge">
<title>Node11&#45;&gt;Node2</title>
<path fill="none" stroke="orange" stroke-dasharray="5,2" d="M1881.32,-86C1919.55,-85.26 1966.32,-85.82 2008,-90.5 2013.85,-91.16 2019.86,-92.01 2025.89,-93"/>
<polygon fill="orange" stroke="orange" points="1881.2,-82.5 1871.28,-86.23 1881.36,-89.5 1881.2,-82.5"/>
<text text-anchor="start" x="1889" y="-115.5" font-family="Helvetica,sans-Serif" font-size="10.00"> &lt; const goto_programt,</text>
<text text-anchor="start" x="1889" y="-104.5" font-family="Helvetica,sans-Serif" font-size="10.00"> goto_programt::const</text>
<text text-anchor="middle" x="1948.5" y="-93.5" font-family="Helvetica,sans-Serif" font-size="10.00">_targett &gt;</text>
</g>
<!-- Node12&#45;&gt;Node11 -->
<g id="edge14" class="edge">
<title>Node12&#45;&gt;Node11</title>
<path fill="none" stroke="#9a32cd" stroke-dasharray="5,2" d="M1630.43,-75.32C1664.25,-78.11 1702.9,-81.31 1734.94,-83.96"/>
<polygon fill="#9a32cd" stroke="#9a32cd" points="1630.36,-71.8 1620.11,-74.46 1629.78,-78.77 1630.36,-71.8"/>
<text text-anchor="middle" x="1677.5" y="-84.5" font-family="Helvetica,sans-Serif" font-size="10.00"> cfg_dominators</text>
</g>
<!-- Node13 -->
<g id="node13" class="node">
<title>Node13</title>
<g id="a_node13"><a xlink:href="classprocedure__local__cfg__baset.html" target="_top" xlink:title=" ">
<polygon fill="none" stroke="black" points="996,-34.5 996,-64.5 1119,-64.5 1119,-34.5 996,-34.5"/>
<text text-anchor="start" x="1004" y="-52.5" font-family="Helvetica,sans-Serif" font-size="10.00">procedure_local_cfg</text>
<text text-anchor="middle" x="1057.5" y="-41.5" font-family="Helvetica,sans-Serif" font-size="10.00">_baset&lt; nodet, P, T &gt;</text>
</a>
</g>
</g>
<!-- Node13&#45;&gt;Node12 -->
<g id="edge15" class="edge">
<title>Node13&#45;&gt;Node12</title>
<path fill="none" stroke="#9a32cd" stroke-dasharray="5,2" d="M1129.37,-53.16C1131.95,-53.28 1134.49,-53.39 1137,-53.5 1255.02,-58.67 1392.24,-63.45 1473.95,-66.17"/>
<polygon fill="#9a32cd" stroke="#9a32cd" points="1129.5,-49.66 1119.35,-52.69 1129.18,-56.65 1129.5,-49.66"/>
<text text-anchor="middle" x="1291" y="-65.5" font-family="Helvetica,sans-Serif" font-size="10.00"> cfg</text>
</g>
<!-- Node31 -->
<g id="node19" class="node">
<title>Node31</title>
<g id="a_node19"><a xlink:href="classcfg__dominators__templatet.html" target="_top" xlink:title="Dominator graph.">
<polygon fill="none" stroke="black" points="1218,-0.5 1218,-30.5 1364,-30.5 1364,-0.5 1218,-0.5"/>
<text text-anchor="start" x="1226" y="-18.5" font-family="Helvetica,sans-Serif" font-size="10.00">cfg_dominators_templatet</text>
<text text-anchor="middle" x="1291" y="-7.5" font-family="Helvetica,sans-Serif" font-size="10.00">&lt; P, T, post_dom &gt;</text>
</a>
</g>
</g>
<!-- Node13&#45;&gt;Node31 -->
<g id="edge26" class="edge">
<title>Node13&#45;&gt;Node31</title>
<path fill="none" stroke="#9a32cd" stroke-dasharray="5,2" d="M1129.18,-39.12C1157.3,-34.99 1189.63,-30.24 1217.89,-26.09"/>
<polygon fill="#9a32cd" stroke="#9a32cd" points="1128.41,-35.7 1119.02,-40.61 1129.42,-42.62 1128.41,-35.7"/>
<text text-anchor="middle" x="1168.5" y="-41.5" font-family="Helvetica,sans-Serif" font-size="10.00"> cfg</text>
</g>
<!-- Node14 -->
<g id="node14" class="node">
<title>Node14</title>
<g id="a_node14"><a xlink:href="classcfg__baset.html" target="_top" xlink:title="A multi&#45;procedural control flow graph (CFG) whose nodes store references to instructions in a GOTO pr...">
<polygon fill="none" stroke="black" points="236,-96 236,-115 349,-115 349,-96 236,-96"/>
<text text-anchor="middle" x="292.5" y="-103" font-family="Helvetica,sans-Serif" font-size="10.00">cfg_baset&lt; T, P, I &gt;</text>
</a>
</g>
</g>
<!-- Node14&#45;&gt;Node13 -->
<g id="edge16" class="edge">
<title>Node14&#45;&gt;Node13</title>
<path fill="none" stroke="midnightblue" d="M359.14,-95.19C409.14,-87.73 479.74,-78.01 542,-72.5 705.65,-58 899.44,-52.47 995.8,-50.5"/>
<polygon fill="midnightblue" stroke="midnightblue" points="358.48,-91.75 349.11,-96.7 359.52,-98.67 358.48,-91.75"/>
</g>
<!-- Node30 -->
<g id="node18" class="node">
<title>Node30</title>
<g id="a_node18"><a xlink:href="classcfg__baset.html" target="_top" xlink:title=" ">
<polygon fill="none" stroke="black" points="542,-82 542,-123 691,-123 691,-82 542,-82"/>
<text text-anchor="start" x="550" y="-111" font-family="Helvetica,sans-Serif" font-size="10.00">cfg_baset&lt; T, const</text>
<text text-anchor="start" x="550" y="-100" font-family="Helvetica,sans-Serif" font-size="10.00"> goto_programt, goto</text>
<text text-anchor="middle" x="616.5" y="-89" font-family="Helvetica,sans-Serif" font-size="10.00">_programt::const_targett &gt;</text>
</a>
</g>
</g>
<!-- Node14&#45;&gt;Node30 -->
<g id="edge23" class="edge">
<title>Node14&#45;&gt;Node30</title>
<path fill="none" stroke="orange" stroke-dasharray="5,2" d="M359.52,-104.88C412.5,-104.39 486.84,-103.7 541.76,-103.19"/>
<polygon fill="orange" stroke="orange" points="359.19,-101.39 349.22,-104.98 359.25,-108.39 359.19,-101.39"/>
<text text-anchor="start" x="367" y="-118.5" font-family="Helvetica,sans-Serif" font-size="10.00"> &lt; T, const goto_programt,</text>
<text text-anchor="middle" x="445.5" y="-107.5" font-family="Helvetica,sans-Serif" font-size="10.00"> goto_programt::const_targett &gt;</text>
</g>
<!-- Node15 -->
<g id="node15" class="node">
<title>Node15</title>
<g id="a_node15"><a xlink:href="classgrapht.html" target="_top" xlink:title=" ">
<polygon fill="none" stroke="red" points="0,-117 0,-158 144,-158 144,-117 0,-117"/>
<text text-anchor="start" x="8" y="-146" font-family="Helvetica,sans-Serif" font-size="10.00">grapht&lt; cfg_base_nodet</text>
<text text-anchor="start" x="8" y="-135" font-family="Helvetica,sans-Serif" font-size="10.00">&lt; T, goto_programt::const</text>
<text text-anchor="middle" x="72" y="-124" font-family="Helvetica,sans-Serif" font-size="10.00">_targett &gt; &gt;</text>
</a>
</g>
</g>
<!-- Node15&#45;&gt;Node14 -->
<g id="edge17" class="edge">
<title>Node15&#45;&gt;Node14</title>
<path fill="none" stroke="midnightblue" d="M154.15,-125.62C181.38,-121.63 211.12,-117.27 235.93,-113.64"/>
<polygon fill="midnightblue" stroke="midnightblue" points="153.63,-122.15 144.24,-127.07 154.64,-129.08 153.63,-122.15"/>
</g>
<!-- Node15&#45;&gt;Node30 -->
<g id="edge21" class="edge">
<title>Node15&#45;&gt;Node30</title>
<path fill="none" stroke="midnightblue" d="M154.44,-143.07C245.22,-147.69 396.07,-150.65 524,-130.5 534.83,-128.79 546.16,-126.11 557.01,-123.06"/>
<polygon fill="midnightblue" stroke="midnightblue" points="154.39,-139.56 144.22,-142.52 154.02,-146.55 154.39,-139.56"/>
</g>
<!-- Node19 -->
<g id="node16" class="node">
<title>Node19</title>
<g id="a_node16"><a xlink:href="classcfg__baset_1_1entry__mapt.html" target="_top" xlink:title=" ">
<polygon fill="none" stroke="red" points="21,-65.5 21,-95.5 123,-95.5 123,-65.5 21,-65.5"/>
<text text-anchor="start" x="29" y="-83.5" font-family="Helvetica,sans-Serif" font-size="10.00">cfg_baset&lt; T, P, I</text>
<text text-anchor="middle" x="72" y="-72.5" font-family="Helvetica,sans-Serif" font-size="10.00"> &gt;::entry_mapt</text>
</a>
</g>
</g>
<!-- Node19&#45;&gt;Node14 -->
<g id="edge18" class="edge">
<title>Node19&#45;&gt;Node14</title>
<path fill="none" stroke="#9a32cd" stroke-dasharray="5,2" d="M133.27,-87.4C165.34,-91.06 204.5,-95.55 235.85,-99.13"/>
<polygon fill="#9a32cd" stroke="#9a32cd" points="133.46,-83.9 123.13,-86.24 132.67,-90.85 133.46,-83.9"/>
<text text-anchor="middle" x="190" y="-99.5" font-family="Helvetica,sans-Serif" font-size="10.00"> entry_map</text>
</g>
<!-- Node19&#45;&gt;Node30 -->
<g id="edge22" class="edge">
<title>Node19&#45;&gt;Node30</title>
<path fill="none" stroke="#9a32cd" stroke-dasharray="5,2" d="M133.41,-78.21C164.13,-77.15 202.05,-76.02 236,-75.5 286.22,-74.73 298.84,-72.97 349,-75.5 414.37,-78.8 488.42,-86.64 541.84,-93.02"/>
<polygon fill="#9a32cd" stroke="#9a32cd" points="133.16,-74.71 123.29,-78.56 133.41,-81.71 133.16,-74.71"/>
<text text-anchor="middle" x="292.5" y="-78.5" font-family="Helvetica,sans-Serif" font-size="10.00"> entry_map</text>
</g>
<!-- Node29 -->
<g id="node17" class="node">
<title>Node29</title>
<g id="a_node17"><a xlink:href="classprocedure__local__cfg__baset.html" target="_top" xlink:title=" ">
<polygon fill="none" stroke="black" points="759,-84.5 759,-114.5 873,-114.5 873,-84.5 759,-84.5"/>
<text text-anchor="start" x="767" y="-102.5" font-family="Helvetica,sans-Serif" font-size="10.00">procedure_local_cfg</text>
<text text-anchor="middle" x="816" y="-91.5" font-family="Helvetica,sans-Serif" font-size="10.00">_baset&lt; T, P, I &gt;</text>
</a>
</g>
</g>
<!-- Node29&#45;&gt;Node13 -->
<g id="edge19" class="edge">
<title>Node29&#45;&gt;Node13</title>
<path fill="none" stroke="orange" stroke-dasharray="5,2" d="M882.97,-83.28C885.68,-82.67 888.37,-82.07 891,-81.5 925.6,-73.95 964.46,-66.39 995.83,-60.51"/>
<polygon fill="orange" stroke="orange" points="882.06,-79.9 873.1,-85.56 883.63,-86.73 882.06,-79.9"/>
<text text-anchor="middle" x="934.5" y="-84.5" font-family="Helvetica,sans-Serif" font-size="10.00"> &lt; nodet, P, T &gt;</text>
</g>
<!-- Node30&#45;&gt;Node29 -->
<g id="edge20" class="edge">
<title>Node30&#45;&gt;Node29</title>
<path fill="none" stroke="midnightblue" d="M701.16,-101.23C720.68,-100.93 741.01,-100.62 758.99,-100.35"/>
<polygon fill="midnightblue" stroke="midnightblue" points="700.99,-97.73 691.04,-101.38 701.09,-104.73 700.99,-97.73"/>
</g>
<!-- Node31&#45;&gt;Node12 -->
<g id="edge25" class="edge">
<title>Node31&#45;&gt;Node12</title>
<path fill="none" stroke="orange" stroke-dasharray="5,2" d="M1374.13,-27.07C1400.41,-31.3 1429.54,-36.52 1456,-42.5 1469.64,-45.58 1484.28,-49.53 1497.7,-53.41"/>
<polygon fill="orange" stroke="orange" points="1374.63,-23.61 1364.2,-25.5 1373.53,-30.52 1374.63,-23.61"/>
<text text-anchor="middle" x="1419" y="-45.5" font-family="Helvetica,sans-Serif" font-size="10.00"> &lt; P, T, false &gt;</text>
</g>
</g>
</svg>
