<?xml version="1.0" encoding="UTF-8" standalone="no"?>
<!DOCTYPE svg PUBLIC "-//W3C//DTD SVG 1.1//EN"
 "http://www.w3.org/Graphics/SVG/1.1/DTD/svg11.dtd">
<!-- Generated by graphviz version 2.43.0 (0)
 -->
<!-- Title: local_may_alias_factoryt Pages: 1 -->
<svg width="2197pt" height="750pt"
 viewBox="0.00 0.00 2197.00 750.29" xmlns="http://www.w3.org/2000/svg" xmlns:xlink="http://www.w3.org/1999/xlink">
<g id="graph0" class="graph" transform="scale(1 1) rotate(0) translate(4 746.29)">
<title>local_may_alias_factoryt</title>
<!-- Node1 -->
<g id="node1" class="node">
<title>Node1</title>
<g id="a_node1"><a xlink:title=" ">
<polygon fill="#bfbfbf" stroke="black" points="2050,-101.11 2050,-120.11 2189,-120.11 2189,-101.11 2050,-101.11"/>
<text text-anchor="middle" x="2119.5" y="-108.11" font-family="Helvetica,sans-Serif" font-size="10.00">local_may_alias_factoryt</text>
</a>
</g>
</g>
<!-- Node2 -->
<g id="node2" class="node">
<title>Node2</title>
<g id="a_node2"><a xlink:title=" ">
<polygon fill="none" stroke="#bfbfbf" points="769,-34.61 769,-64.61 912,-64.61 912,-34.61 769,-34.61"/>
<text text-anchor="start" x="777" y="-52.61" font-family="Helvetica,sans-Serif" font-size="10.00">std::map&lt; goto_programt</text>
<text text-anchor="middle" x="840.5" y="-41.61" font-family="Helvetica,sans-Serif" font-size="10.00">::const_targett, irep_idt &gt;</text>
</a>
</g>
</g>
<!-- Node2&#45;&gt;Node1 -->
<g id="edge1" class="edge">
<title>Node2&#45;&gt;Node1</title>
<path fill="none" stroke="#9a32cd" stroke-dasharray="5,2" d="M922.51,-51.67C983.75,-53.05 1069.9,-54.61 1145.5,-54.61 1145.5,-54.61 1145.5,-54.61 1907.5,-54.61 1978.94,-54.61 2059.57,-84.98 2097.13,-100.99"/>
<polygon fill="#9a32cd" stroke="#9a32cd" points="922.21,-48.16 912.14,-51.43 922.05,-55.16 922.21,-48.16"/>
<text text-anchor="middle" x="1538" y="-57.61" font-family="Helvetica,sans-Serif" font-size="10.00"> target_map</text>
</g>
<!-- Node3 -->
<g id="node3" class="node">
<title>Node3</title>
<g id="a_node3"><a xlink:href="classdstringt.html" target="_top" xlink:title="dstringt has one field, an unsigned integer no which is an index into a static table of strings.">
<polygon fill="none" stroke="black" points="515.5,-352.11 515.5,-371.11 569.5,-371.11 569.5,-352.11 515.5,-352.11"/>
<text text-anchor="middle" x="542.5" y="-359.11" font-family="Helvetica,sans-Serif" font-size="10.00">dstringt</text>
</a>
</g>
</g>
<!-- Node3&#45;&gt;Node2 -->
<g id="edge2" class="edge">
<title>Node3&#45;&gt;Node2</title>
<path fill="none" stroke="#9a32cd" stroke-dasharray="5,2" d="M579.45,-356.82C591.3,-353.41 603.38,-347.57 611,-337.61 642.56,-296.37 595.7,-144.46 629,-104.61 638.25,-93.55 711.4,-76.1 768.91,-63.84"/>
<polygon fill="#9a32cd" stroke="#9a32cd" points="578.57,-353.44 569.66,-359.16 580.2,-360.24 578.57,-353.44"/>
<text text-anchor="middle" x="688.5" y="-107.61" font-family="Helvetica,sans-Serif" font-size="10.00"> elements</text>
</g>
<!-- Node8 -->
<g id="node8" class="node">
<title>Node8</title>
<g id="a_node8"><a xlink:title=" ">
<polygon fill="none" stroke="#bfbfbf" points="1843,-240.11 1843,-281.11 1970,-281.11 1970,-240.11 1843,-240.11"/>
<text text-anchor="start" x="1851" y="-269.11" font-family="Helvetica,sans-Serif" font-size="10.00">std::map&lt; irep_idt,</text>
<text text-anchor="start" x="1851" y="-258.11" font-family="Helvetica,sans-Serif" font-size="10.00"> std::unique_ptr&lt; local</text>
<text text-anchor="middle" x="1906.5" y="-247.11" font-family="Helvetica,sans-Serif" font-size="10.00">_may_aliast &gt; &gt;</text>
</a>
</g>
</g>
<!-- Node3&#45;&gt;Node8 -->
<g id="edge8" class="edge">
<title>Node3&#45;&gt;Node8</title>
<path fill="none" stroke="#9a32cd" stroke-dasharray="5,2" d="M579.72,-361.61C635.51,-361.61 745.84,-361.61 839.5,-361.61 839.5,-361.61 839.5,-361.61 1654,-361.61 1739.4,-361.61 1830.12,-310.85 1875.7,-281.3"/>
<polygon fill="#9a32cd" stroke="#9a32cd" points="579.63,-358.11 569.63,-361.61 579.63,-365.11 579.63,-358.11"/>
<text text-anchor="middle" x="1289" y="-364.61" font-family="Helvetica,sans-Serif" font-size="10.00"> keys</text>
</g>
<!-- Node12 -->
<g id="node12" class="node">
<title>Node12</title>
<g id="a_node12"><a xlink:title=" ">
<polygon fill="none" stroke="#bfbfbf" points="787,-405.61 787,-435.61 894,-435.61 894,-405.61 787,-405.61"/>
<text text-anchor="start" x="795" y="-423.61" font-family="Helvetica,sans-Serif" font-size="10.00">std::unordered_set</text>
<text text-anchor="middle" x="840.5" y="-412.61" font-family="Helvetica,sans-Serif" font-size="10.00">&lt; dstringt &gt;</text>
</a>
</g>
</g>
<!-- Node3&#45;&gt;Node12 -->
<g id="edge13" class="edge">
<title>Node3&#45;&gt;Node12</title>
<path fill="none" stroke="#9a32cd" stroke-dasharray="5,2" d="M579.88,-366.52C620.94,-372.32 689.62,-382.82 748,-395.61 761.03,-398.47 774.97,-402.02 787.95,-405.54"/>
<polygon fill="#9a32cd" stroke="#9a32cd" points="580.2,-363.03 569.81,-365.11 579.23,-369.96 580.2,-363.03"/>
<text text-anchor="middle" x="688.5" y="-398.61" font-family="Helvetica,sans-Serif" font-size="10.00"> keys</text>
</g>
<!-- Node37 -->
<g id="node29" class="node">
<title>Node37</title>
<g id="a_node29"><a xlink:title=" ">
<polygon fill="none" stroke="#bfbfbf" points="787,-454.61 787,-484.61 894,-484.61 894,-454.61 787,-454.61"/>
<text text-anchor="start" x="795" y="-472.61" font-family="Helvetica,sans-Serif" font-size="10.00">std::unordered_set</text>
<text text-anchor="middle" x="840.5" y="-461.61" font-family="Helvetica,sans-Serif" font-size="10.00">&lt; irep_idt &gt;</text>
</a>
</g>
</g>
<!-- Node3&#45;&gt;Node37 -->
<g id="edge41" class="edge">
<title>Node3&#45;&gt;Node37</title>
<path fill="none" stroke="#9a32cd" stroke-dasharray="5,2" d="M579.34,-372.06C590.01,-376.03 601.41,-381.19 611,-387.61 620.67,-394.09 618.76,-401.1 629,-406.61 676.3,-432.06 700.36,-402.81 748,-427.61 758.04,-432.84 756.36,-439.7 766,-445.61 772.41,-449.55 779.53,-452.91 786.74,-455.76"/>
<polygon fill="#9a32cd" stroke="#9a32cd" points="580.4,-368.72 569.81,-368.73 578.1,-375.33 580.4,-368.72"/>
<text text-anchor="middle" x="688.5" y="-430.61" font-family="Helvetica,sans-Serif" font-size="10.00"> keys</text>
</g>
<!-- Node40 -->
<g id="node32" class="node">
<title>Node40</title>
<g id="a_node32"><a xlink:title=" ">
<polygon fill="none" stroke="#bfbfbf" points="1375,-173.61 1375,-203.61 1485,-203.61 1485,-173.61 1375,-173.61"/>
<text text-anchor="start" x="1383" y="-191.61" font-family="Helvetica,sans-Serif" font-size="10.00">std::map&lt; irep_idt,</text>
<text text-anchor="middle" x="1430" y="-180.61" font-family="Helvetica,sans-Serif" font-size="10.00"> goto_functiont &gt;</text>
</a>
</g>
</g>
<!-- Node3&#45;&gt;Node40 -->
<g id="edge57" class="edge">
<title>Node3&#45;&gt;Node40</title>
<path fill="none" stroke="#9a32cd" stroke-dasharray="5,2" d="M580.07,-361.38C591.47,-359.44 603.1,-355.21 611,-346.61 651.64,-302.35 584.37,-252.85 629,-212.61 656.67,-187.67 1199.62,-187.68 1374.93,-188.33"/>
<polygon fill="#9a32cd" stroke="#9a32cd" points="579.32,-357.95 569.79,-362.58 580.13,-364.9 579.32,-357.95"/>
<text text-anchor="middle" x="1002.5" y="-193.61" font-family="Helvetica,sans-Serif" font-size="10.00"> keys</text>
</g>
<!-- Node42 -->
<g id="node34" class="node">
<title>Node42</title>
<g id="a_node34"><a xlink:title=" ">
<polygon fill="none" stroke="#bfbfbf" points="776.5,-314.11 776.5,-333.11 904.5,-333.11 904.5,-314.11 776.5,-314.11"/>
<text text-anchor="middle" x="840.5" y="-321.11" font-family="Helvetica,sans-Serif" font-size="10.00">std::vector&lt; irep_idt &gt;</text>
</a>
</g>
</g>
<!-- Node3&#45;&gt;Node42 -->
<g id="edge50" class="edge">
<title>Node3&#45;&gt;Node42</title>
<path fill="none" stroke="#9a32cd" stroke-dasharray="5,2" d="M579.66,-349.1C594.74,-344.39 612.54,-339.49 629,-336.61 678.05,-328.04 734.4,-324.91 776.44,-323.85"/>
<polygon fill="#9a32cd" stroke="#9a32cd" points="578.16,-345.91 569.71,-352.3 580.31,-352.57 578.16,-345.91"/>
<text text-anchor="middle" x="688.5" y="-339.61" font-family="Helvetica,sans-Serif" font-size="10.00"> elements</text>
</g>
<!-- Node4 -->
<g id="node4" class="node">
<title>Node4</title>
<g id="a_node4"><a xlink:title="STL iterator class.">
<polygon fill="none" stroke="#bfbfbf" points="486,-59.61 486,-89.61 599,-89.61 599,-59.61 486,-59.61"/>
<text text-anchor="start" x="494" y="-77.61" font-family="Helvetica,sans-Serif" font-size="10.00">std::list&lt; T &gt;::const</text>
<text text-anchor="middle" x="542.5" y="-66.61" font-family="Helvetica,sans-Serif" font-size="10.00">_iterator</text>
</a>
</g>
</g>
<!-- Node4&#45;&gt;Node2 -->
<g id="edge3" class="edge">
<title>Node4&#45;&gt;Node2</title>
<path fill="none" stroke="#9a32cd" stroke-dasharray="5,2" d="M564.76,-52.45C580.8,-37.43 604.2,-18.87 629,-10.61 679.18,6.09 696.18,-0.03 748,-10.61 770.5,-15.21 794.32,-25.56 812.01,-34.44"/>
<polygon fill="#9a32cd" stroke="#9a32cd" points="562.26,-50.01 557.51,-59.48 567.13,-55.03 562.26,-50.01"/>
<text text-anchor="middle" x="688.5" y="-13.61" font-family="Helvetica,sans-Serif" font-size="10.00"> keys</text>
</g>
<!-- Node22 -->
<g id="node20" class="node">
<title>Node22</title>
<g id="a_node20"><a xlink:title=" ">
<polygon fill="none" stroke="#bfbfbf" points="767,-226.61 767,-256.61 914,-256.61 914,-226.61 767,-226.61"/>
<text text-anchor="start" x="775" y="-244.61" font-family="Helvetica,sans-Serif" font-size="10.00">std::map&lt; goto_programt</text>
<text text-anchor="middle" x="840.5" y="-233.61" font-family="Helvetica,sans-Serif" font-size="10.00">::const_targett, node_nrt &gt;</text>
</a>
</g>
</g>
<!-- Node4&#45;&gt;Node22 -->
<g id="edge25" class="edge">
<title>Node4&#45;&gt;Node22</title>
<path fill="none" stroke="#9a32cd" stroke-dasharray="5,2" d="M583.51,-94.09C625.2,-114.71 692.11,-148.78 748,-181.61 772.4,-195.95 799.4,-213.93 817.7,-226.45"/>
<polygon fill="#9a32cd" stroke="#9a32cd" points="585.02,-90.93 574.5,-89.64 581.92,-97.21 585.02,-90.93"/>
<text text-anchor="middle" x="688.5" y="-184.61" font-family="Helvetica,sans-Serif" font-size="10.00"> keys</text>
</g>
<!-- Node5 -->
<g id="node5" class="node">
<title>Node5</title>
<g id="a_node5"><a xlink:title="STL class.">
<polygon fill="none" stroke="#bfbfbf" points="492,-169.11 492,-188.11 593,-188.11 593,-169.11 492,-169.11"/>
<text text-anchor="middle" x="542.5" y="-176.11" font-family="Helvetica,sans-Serif" font-size="10.00">std::map&lt; K, T &gt;</text>
</a>
</g>
</g>
<!-- Node5&#45;&gt;Node2 -->
<g id="edge4" class="edge">
<title>Node5&#45;&gt;Node2</title>
<path fill="none" stroke="orange" stroke-dasharray="5,2" d="M561.3,-161.53C576.34,-146.26 597.52,-122.64 611,-98.61 623.38,-76.55 608.48,-59.41 629,-44.61 650.72,-28.96 716.52,-32.86 768.83,-39.06"/>
<polygon fill="orange" stroke="orange" points="558.7,-159.18 554.07,-168.72 563.63,-164.15 558.7,-159.18"/>
<text text-anchor="start" x="629" y="-58.61" font-family="Helvetica,sans-Serif" font-size="10.00"> &lt; goto_programt::const</text>
<text text-anchor="middle" x="688.5" y="-47.61" font-family="Helvetica,sans-Serif" font-size="10.00">_targett, irep_idt &gt;</text>
</g>
<!-- Node5&#45;&gt;Node8 -->
<g id="edge45" class="edge">
<title>Node5&#45;&gt;Node8</title>
<path fill="none" stroke="orange" stroke-dasharray="5,2" d="M603.09,-174.36C793.28,-161.24 1384.28,-124 1573,-153.61 1677.69,-170.04 1794.39,-213.9 1857.92,-240.09"/>
<polygon fill="orange" stroke="orange" points="602.74,-170.88 593.01,-175.06 603.23,-177.86 602.74,-170.88"/>
<text text-anchor="start" x="1221" y="-158.61" font-family="Helvetica,sans-Serif" font-size="10.00"> &lt; irep_idt, std::unique</text>
<text text-anchor="middle" x="1289" y="-147.61" font-family="Helvetica,sans-Serif" font-size="10.00">_ptr&lt; local_may_aliast &gt; &gt;</text>
</g>
<!-- Node5&#45;&gt;Node22 -->
<g id="edge26" class="edge">
<title>Node5&#45;&gt;Node22</title>
<path fill="none" stroke="orange" stroke-dasharray="5,2" d="M598.37,-190.29C646.49,-200.53 716.73,-215.48 769,-226.61"/>
<polygon fill="orange" stroke="orange" points="598.97,-186.84 588.46,-188.18 597.51,-193.69 598.97,-186.84"/>
<text text-anchor="start" x="629" y="-234.61" font-family="Helvetica,sans-Serif" font-size="10.00"> &lt; goto_programt::const</text>
<text text-anchor="middle" x="688.5" y="-223.61" font-family="Helvetica,sans-Serif" font-size="10.00">_targett, node_nrt &gt;</text>
</g>
<!-- Node5&#45;&gt;Node40 -->
<g id="edge58" class="edge">
<title>Node5&#45;&gt;Node40</title>
<path fill="none" stroke="orange" stroke-dasharray="5,2" d="M563.6,-162.69C580.09,-150.69 604.63,-135.22 629,-128.61 680.05,-114.78 695.16,-126.29 748,-128.61 981.88,-138.9 1259.65,-168.95 1374.82,-182.21"/>
<polygon fill="orange" stroke="orange" points="561.2,-160.11 555.31,-168.92 565.4,-165.71 561.2,-160.11"/>
<text text-anchor="middle" x="1002.5" y="-153.61" font-family="Helvetica,sans-Serif" font-size="10.00"> &lt; irep_idt, goto_functiont &gt;</text>
</g>
<!-- Node6 -->
<g id="node6" class="node">
<title>Node6</title>
<g id="a_node6"><a xlink:title=" ">
<polygon fill="none" stroke="#bfbfbf" points="43.5,-325.11 43.5,-344.11 72.5,-344.11 72.5,-325.11 43.5,-325.11"/>
<text text-anchor="middle" x="58" y="-332.11" font-family="Helvetica,sans-Serif" font-size="10.00">K</text>
</a>
</g>
</g>
<!-- Node6&#45;&gt;Node5 -->
<g id="edge5" class="edge">
<title>Node6&#45;&gt;Node5</title>
<path fill="none" stroke="#9a32cd" stroke-dasharray="5,2" d="M72.08,-316.95C94.68,-287.99 144.12,-231.19 201,-206.61 297.38,-164.98 423.26,-167.53 491.77,-173.07"/>
<polygon fill="#9a32cd" stroke="#9a32cd" points="69.24,-314.9 65.95,-324.98 74.8,-319.15 69.24,-314.9"/>
<text text-anchor="middle" x="260.5" y="-209.61" font-family="Helvetica,sans-Serif" font-size="10.00"> keys</text>
</g>
<!-- Node13 -->
<g id="node13" class="node">
<title>Node13</title>
<g id="a_node13"><a xlink:title="STL class.">
<polygon fill="none" stroke="#bfbfbf" points="474,-397.11 474,-416.11 611,-416.11 611,-397.11 474,-397.11"/>
<text text-anchor="middle" x="542.5" y="-404.11" font-family="Helvetica,sans-Serif" font-size="10.00">std::unordered_set&lt; K &gt;</text>
</a>
</g>
</g>
<!-- Node6&#45;&gt;Node13 -->
<g id="edge15" class="edge">
<title>Node6&#45;&gt;Node13</title>
<path fill="none" stroke="#9a32cd" stroke-dasharray="5,2" d="M82.87,-333.98C129,-333.13 233.47,-333.07 320,-346.61 391.24,-357.76 472.47,-383.14 513.95,-397.05"/>
<polygon fill="#9a32cd" stroke="#9a32cd" points="82.61,-330.48 72.69,-334.2 82.76,-337.48 82.61,-330.48"/>
<text text-anchor="middle" x="260.5" y="-349.61" font-family="Helvetica,sans-Serif" font-size="10.00"> keys</text>
</g>
<!-- Node32 -->
<g id="node24" class="node">
<title>Node32</title>
<g id="a_node24"><a xlink:title="STL class.">
<polygon fill="none" stroke="#bfbfbf" points="203.5,-445.61 203.5,-475.61 317.5,-475.61 317.5,-445.61 203.5,-445.61"/>
<text text-anchor="start" x="211.5" y="-463.61" font-family="Helvetica,sans-Serif" font-size="10.00">std::unordered_map</text>
<text text-anchor="middle" x="260.5" y="-452.61" font-family="Helvetica,sans-Serif" font-size="10.00">&lt; K, T &gt;</text>
</a>
</g>
</g>
<!-- Node6&#45;&gt;Node32 -->
<g id="edge31" class="edge">
<title>Node6&#45;&gt;Node32</title>
<path fill="none" stroke="#9a32cd" stroke-dasharray="5,2" d="M82.85,-339.47C110.39,-346.23 155.44,-361.02 183,-389.61 197.95,-405.12 186.06,-419.1 201,-434.61 205.09,-438.86 209.99,-442.46 215.19,-445.5"/>
<polygon fill="#9a32cd" stroke="#9a32cd" points="83.42,-336.01 72.89,-337.19 81.85,-342.83 83.42,-336.01"/>
<text text-anchor="middle" x="158.5" y="-392.61" font-family="Helvetica,sans-Serif" font-size="10.00"> keys</text>
</g>
<!-- Node7 -->
<g id="node7" class="node">
<title>Node7</title>
<g id="a_node7"><a xlink:title=" ">
<polygon fill="none" stroke="#bfbfbf" points="43.5,-451.11 43.5,-470.11 72.5,-470.11 72.5,-451.11 43.5,-451.11"/>
<text text-anchor="middle" x="58" y="-458.11" font-family="Helvetica,sans-Serif" font-size="10.00">T</text>
</a>
</g>
</g>
<!-- Node7&#45;&gt;Node5 -->
<g id="edge6" class="edge">
<title>Node7&#45;&gt;Node5</title>
<path fill="none" stroke="#9a32cd" stroke-dasharray="5,2" d="M80.19,-444.82C95.01,-433.97 115.4,-419.46 134,-407.61 155.16,-394.14 168.95,-400.39 183,-379.61 215.68,-331.3 161.18,-292.24 201,-249.61 210.96,-238.95 399.92,-203.93 491.95,-187.4"/>
<polygon fill="#9a32cd" stroke="#9a32cd" points="77.72,-442.29 71.75,-451.04 81.88,-447.92 77.72,-442.29"/>
<text text-anchor="middle" x="260.5" y="-252.61" font-family="Helvetica,sans-Serif" font-size="10.00"> elements</text>
</g>
<!-- Node19 -->
<g id="node17" class="node">
<title>Node19</title>
<g id="a_node17"><a xlink:title="STL class.">
<polygon fill="none" stroke="#bfbfbf" points="212,-569.11 212,-588.11 309,-588.11 309,-569.11 212,-569.11"/>
<text text-anchor="middle" x="260.5" y="-576.11" font-family="Helvetica,sans-Serif" font-size="10.00">std::vector&lt; T &gt;</text>
</a>
</g>
</g>
<!-- Node7&#45;&gt;Node19 -->
<g id="edge20" class="edge">
<title>Node7&#45;&gt;Node19</title>
<path fill="none" stroke="#9a32cd" stroke-dasharray="5,2" d="M81.45,-473.82C122.18,-497.8 207.37,-547.94 243.14,-568.98"/>
<polygon fill="#9a32cd" stroke="#9a32cd" points="83.17,-470.78 72.78,-468.72 79.62,-476.81 83.17,-470.78"/>
<text text-anchor="middle" x="158.5" y="-532.61" font-family="Helvetica,sans-Serif" font-size="10.00"> elements</text>
</g>
<!-- Node7&#45;&gt;Node32 -->
<g id="edge32" class="edge">
<title>Node7&#45;&gt;Node32</title>
<path fill="none" stroke="#9a32cd" stroke-dasharray="5,2" d="M82.96,-460.61C112.47,-460.61 163.53,-460.61 203.18,-460.61"/>
<polygon fill="#9a32cd" stroke="#9a32cd" points="82.78,-457.11 72.78,-460.61 82.78,-464.11 82.78,-457.11"/>
<text text-anchor="middle" x="158.5" y="-463.61" font-family="Helvetica,sans-Serif" font-size="10.00"> elements</text>
</g>
<!-- Node38 -->
<g id="node30" class="node">
<title>Node38</title>
<g id="a_node30"><a xlink:title="STL class.">
<polygon fill="none" stroke="#bfbfbf" points="338,-721.11 338,-740.11 456,-740.11 456,-721.11 338,-721.11"/>
<text text-anchor="middle" x="397" y="-728.11" font-family="Helvetica,sans-Serif" font-size="10.00">std::unique_ptr&lt; T &gt;</text>
</a>
</g>
</g>
<!-- Node7&#45;&gt;Node38 -->
<g id="edge44" class="edge">
<title>Node7&#45;&gt;Node38</title>
<path fill="none" stroke="#9a32cd" stroke-dasharray="5,2" d="M63.91,-480.01C77.7,-533.83 116.89,-682.04 134,-696.61 190.21,-744.5 279.35,-745.61 337.76,-739.83"/>
<polygon fill="#9a32cd" stroke="#9a32cd" points="67.3,-479.13 61.44,-470.31 60.51,-480.86 67.3,-479.13"/>
<text text-anchor="middle" x="158.5" y="-726.61" font-family="Helvetica,sans-Serif" font-size="10.00"> ptr</text>
</g>
<!-- Node48 -->
<g id="node38" class="node">
<title>Node48</title>
<g id="a_node38"><a xlink:title="STL class.">
<polygon fill="none" stroke="#bfbfbf" points="220,-367.11 220,-386.11 301,-386.11 301,-367.11 220,-367.11"/>
<text text-anchor="middle" x="260.5" y="-374.11" font-family="Helvetica,sans-Serif" font-size="10.00">std::list&lt; T &gt;</text>
</a>
</g>
</g>
<!-- Node7&#45;&gt;Node48 -->
<g id="edge56" class="edge">
<title>Node7&#45;&gt;Node48</title>
<path fill="none" stroke="#9a32cd" stroke-dasharray="5,2" d="M81.63,-450.38C120.94,-432.61 198.01,-397.8 201,-396.61 210.28,-392.94 220.54,-389.3 229.84,-386.15"/>
<polygon fill="#9a32cd" stroke="#9a32cd" points="80.18,-447.2 72.51,-454.5 83.06,-453.57 80.18,-447.2"/>
<text text-anchor="middle" x="158.5" y="-427.61" font-family="Helvetica,sans-Serif" font-size="10.00"> elements</text>
</g>
<!-- Node8&#45;&gt;Node1 -->
<g id="edge7" class="edge">
<title>Node8&#45;&gt;Node1</title>
<path fill="none" stroke="#9a32cd" stroke-dasharray="5,2" d="M1944.61,-234.23C1992.27,-200.35 2072.67,-143.2 2104.71,-120.42"/>
<polygon fill="#9a32cd" stroke="#9a32cd" points="1942.52,-231.42 1936.4,-240.07 1946.57,-237.13 1942.52,-231.42"/>
<text text-anchor="middle" x="2010" y="-201.61" font-family="Helvetica,sans-Serif" font-size="10.00"> fkt_map</text>
</g>
<!-- Node9 -->
<g id="node9" class="node">
<title>Node9</title>
<g id="a_node9"><a xlink:title=" ">
<polygon fill="none" stroke="#bfbfbf" points="1591,-524.61 1591,-554.61 1715,-554.61 1715,-524.61 1591,-524.61"/>
<text text-anchor="start" x="1599" y="-542.61" font-family="Helvetica,sans-Serif" font-size="10.00">std::unique_ptr&lt; local</text>
<text text-anchor="middle" x="1653" y="-531.61" font-family="Helvetica,sans-Serif" font-size="10.00">_may_aliast &gt;</text>
</a>
</g>
</g>
<!-- Node9&#45;&gt;Node8 -->
<g id="edge9" class="edge">
<title>Node9&#45;&gt;Node8</title>
<path fill="none" stroke="#9a32cd" stroke-dasharray="5,2" d="M1679.64,-517.87C1714.47,-487.72 1777.8,-430.7 1825,-375.61 1851.48,-344.71 1877.67,-305.19 1892.68,-281.44"/>
<polygon fill="#9a32cd" stroke="#9a32cd" points="1677.14,-515.41 1671.84,-524.59 1681.7,-520.71 1677.14,-515.41"/>
<text text-anchor="middle" x="1779" y="-470.61" font-family="Helvetica,sans-Serif" font-size="10.00"> elements</text>
</g>
<!-- Node10 -->
<g id="node10" class="node">
<title>Node10</title>
<g id="a_node10"><a xlink:href="classlocal__may__aliast.html" target="_top" xlink:title=" ">
<polygon fill="none" stroke="black" points="1380.5,-530.11 1380.5,-549.11 1479.5,-549.11 1479.5,-530.11 1380.5,-530.11"/>
<text text-anchor="middle" x="1430" y="-537.11" font-family="Helvetica,sans-Serif" font-size="10.00">local_may_aliast</text>
</a>
</g>
</g>
<!-- Node10&#45;&gt;Node9 -->
<g id="edge10" class="edge">
<title>Node10&#45;&gt;Node9</title>
<path fill="none" stroke="#9a32cd" stroke-dasharray="5,2" d="M1490.03,-539.61C1521.14,-539.61 1559.26,-539.61 1590.7,-539.61"/>
<polygon fill="#9a32cd" stroke="#9a32cd" points="1489.77,-536.11 1479.77,-539.61 1489.77,-543.11 1489.77,-536.11"/>
<text text-anchor="middle" x="1538" y="-542.61" font-family="Helvetica,sans-Serif" font-size="10.00"> ptr</text>
</g>
<!-- Node11 -->
<g id="node11" class="node">
<title>Node11</title>
<g id="a_node11"><a xlink:href="classdirtyt.html" target="_top" xlink:title="Dirty variables are ones which have their address taken so we can&#39;t reliably work out where they may ...">
<polygon fill="none" stroke="black" points="1125,-428.11 1125,-447.11 1168,-447.11 1168,-428.11 1125,-428.11"/>
<text text-anchor="middle" x="1146.5" y="-435.11" font-family="Helvetica,sans-Serif" font-size="10.00">dirtyt</text>
</a>
</g>
</g>
<!-- Node11&#45;&gt;Node10 -->
<g id="edge11" class="edge">
<title>Node11&#45;&gt;Node10</title>
<path fill="none" stroke="#9a32cd" stroke-dasharray="5,2" d="M1178.25,-442.49C1220.02,-449.81 1296.45,-465.75 1357,-492.61 1379.65,-502.66 1403.2,-519.44 1416.96,-530"/>
<polygon fill="#9a32cd" stroke="#9a32cd" points="1178.61,-439 1168.16,-440.77 1177.43,-445.9 1178.61,-439"/>
<text text-anchor="middle" x="1289" y="-495.61" font-family="Helvetica,sans-Serif" font-size="10.00"> dirty</text>
</g>
<!-- Node12&#45;&gt;Node11 -->
<g id="edge12" class="edge">
<title>Node12&#45;&gt;Node11</title>
<path fill="none" stroke="#9a32cd" stroke-dasharray="5,2" d="M904.41,-424.13C973.38,-427.99 1080.15,-433.96 1124.78,-436.46"/>
<polygon fill="#9a32cd" stroke="#9a32cd" points="904.29,-420.62 894.11,-423.56 903.89,-427.61 904.29,-420.62"/>
<text text-anchor="middle" x="1002.5" y="-435.61" font-family="Helvetica,sans-Serif" font-size="10.00"> dirty</text>
</g>
<!-- Node13&#45;&gt;Node12 -->
<g id="edge14" class="edge">
<title>Node13&#45;&gt;Node12</title>
<path fill="none" stroke="orange" stroke-dasharray="5,2" d="M597.45,-419.55C602.13,-421.34 606.71,-423.36 611,-425.61 620.21,-430.46 619.21,-437.07 629,-440.61 683.71,-460.42 751.37,-448.04 794.96,-435.73"/>
<polygon fill="orange" stroke="orange" points="598.34,-416.16 587.75,-416.18 596.04,-422.77 598.34,-416.16"/>
<text text-anchor="middle" x="688.5" y="-453.61" font-family="Helvetica,sans-Serif" font-size="10.00"> &lt; dstringt &gt;</text>
</g>
<!-- Node13&#45;&gt;Node37 -->
<g id="edge42" class="edge">
<title>Node13&#45;&gt;Node37</title>
<path fill="none" stroke="orange" stroke-dasharray="5,2" d="M604.68,-420.95C606.9,-422.36 609.02,-423.91 611,-425.61 625.77,-438.34 612.73,-454.87 629,-465.61 675.52,-496.32 741.31,-491.86 786.91,-483.24"/>
<polygon fill="orange" stroke="orange" points="606.14,-417.76 595.66,-416.15 602.85,-423.94 606.14,-417.76"/>
<text text-anchor="middle" x="688.5" y="-491.61" font-family="Helvetica,sans-Serif" font-size="10.00"> &lt; irep_idt &gt;</text>
</g>
<!-- Node14 -->
<g id="node14" class="node">
<title>Node14</title>
<g id="a_node14"><a xlink:title=" ">
<polygon fill="none" stroke="#bfbfbf" points="476,-672.11 476,-691.11 609,-691.11 609,-672.11 476,-672.11"/>
<text text-anchor="middle" x="542.5" y="-679.11" font-family="Helvetica,sans-Serif" font-size="10.00">std::vector&lt; loc_infot &gt;</text>
</a>
</g>
</g>
<!-- Node14&#45;&gt;Node10 -->
<g id="edge16" class="edge">
<title>Node14&#45;&gt;Node10</title>
<path fill="none" stroke="#9a32cd" stroke-dasharray="5,2" d="M619.47,-678C722.33,-672.62 911.48,-661.01 1072,-641.61 1130.47,-634.55 1144.82,-630.78 1203,-621.61 1271.5,-610.83 1293.55,-624.59 1357,-596.61 1382.67,-585.29 1407.08,-562.6 1419.82,-549.52"/>
<polygon fill="#9a32cd" stroke="#9a32cd" points="618.99,-674.52 609.19,-678.53 619.35,-681.51 618.99,-674.52"/>
<text text-anchor="middle" x="1002.5" y="-657.61" font-family="Helvetica,sans-Serif" font-size="10.00"> loc_infos</text>
</g>
<!-- Node15 -->
<g id="node15" class="node">
<title>Node15</title>
<g id="a_node15"><a xlink:href="classlocal__may__aliast_1_1loc__infot.html" target="_top" xlink:title=" ">
<polygon fill="none" stroke="black" points="201,-666.61 201,-696.61 320,-696.61 320,-666.61 201,-666.61"/>
<text text-anchor="start" x="209" y="-684.61" font-family="Helvetica,sans-Serif" font-size="10.00">local_may_aliast::loc</text>
<text text-anchor="middle" x="260.5" y="-673.61" font-family="Helvetica,sans-Serif" font-size="10.00">_infot</text>
</a>
</g>
</g>
<!-- Node15&#45;&gt;Node14 -->
<g id="edge17" class="edge">
<title>Node15&#45;&gt;Node14</title>
<path fill="none" stroke="#9a32cd" stroke-dasharray="5,2" d="M330.31,-681.61C374.68,-681.61 432.03,-681.61 475.77,-681.61"/>
<polygon fill="#9a32cd" stroke="#9a32cd" points="330.2,-678.11 320.2,-681.61 330.2,-685.11 330.2,-678.11"/>
<text text-anchor="middle" x="397" y="-684.61" font-family="Helvetica,sans-Serif" font-size="10.00"> elements</text>
</g>
<!-- Node16 -->
<g id="node16" class="node">
<title>Node16</title>
<g id="a_node16"><a xlink:href="classunsigned__union__find.html" target="_top" xlink:title=" ">
<polygon fill="none" stroke="red" points="0,-672.11 0,-691.11 116,-691.11 116,-672.11 0,-672.11"/>
<text text-anchor="middle" x="58" y="-679.11" font-family="Helvetica,sans-Serif" font-size="10.00">unsigned_union_find</text>
</a>
</g>
</g>
<!-- Node16&#45;&gt;Node15 -->
<g id="edge18" class="edge">
<title>Node16&#45;&gt;Node15</title>
<path fill="none" stroke="#9a32cd" stroke-dasharray="5,2" d="M126.34,-681.61C150.48,-681.61 177.49,-681.61 200.84,-681.61"/>
<polygon fill="#9a32cd" stroke="#9a32cd" points="126.19,-678.11 116.19,-681.61 126.19,-685.11 126.19,-678.11"/>
<text text-anchor="middle" x="158.5" y="-684.61" font-family="Helvetica,sans-Serif" font-size="10.00"> aliases</text>
</g>
<!-- Node19&#45;&gt;Node14 -->
<g id="edge19" class="edge">
<title>Node19&#45;&gt;Node14</title>
<path fill="none" stroke="orange" stroke-dasharray="5,2" d="M284.75,-593.5C299.56,-602.52 319.4,-613.76 338,-621.61 391.96,-644.39 457.39,-662.02 499.23,-672.11"/>
<polygon fill="orange" stroke="orange" points="286.57,-590.51 276.23,-588.22 282.89,-596.46 286.57,-590.51"/>
<text text-anchor="middle" x="397" y="-662.61" font-family="Helvetica,sans-Serif" font-size="10.00"> &lt; loc_infot &gt;</text>
</g>
<!-- Node21 -->
<g id="node19" class="node">
<title>Node21</title>
<g id="a_node19"><a xlink:title=" ">
<polygon fill="none" stroke="#bfbfbf" points="629,-572.11 629,-591.11 748,-591.11 748,-572.11 629,-572.11"/>
<text text-anchor="middle" x="688.5" y="-579.11" font-family="Helvetica,sans-Serif" font-size="10.00">std::vector&lt; nodet &gt;</text>
</a>
</g>
</g>
<!-- Node19&#45;&gt;Node21 -->
<g id="edge23" class="edge">
<title>Node19&#45;&gt;Node21</title>
<path fill="none" stroke="orange" stroke-dasharray="5,2" d="M319.62,-577.77C325.83,-577.71 332.04,-577.65 338,-577.61 390.44,-577.27 403.56,-577.16 456,-577.61 514.89,-578.12 582.19,-579.36 628.99,-580.32"/>
<polygon fill="orange" stroke="orange" points="319.2,-574.28 309.24,-577.89 319.28,-581.28 319.2,-574.28"/>
<text text-anchor="middle" x="397" y="-580.61" font-family="Helvetica,sans-Serif" font-size="10.00"> &lt; nodet &gt;</text>
</g>
<!-- Node33 -->
<g id="node25" class="node">
<title>Node33</title>
<g id="a_node25"><a xlink:title=" ">
<polygon fill="none" stroke="#bfbfbf" points="475,-607.11 475,-626.11 610,-626.11 610,-607.11 475,-607.11"/>
<text text-anchor="middle" x="542.5" y="-614.11" font-family="Helvetica,sans-Serif" font-size="10.00">std::vector&lt; key_type &gt;</text>
</a>
</g>
</g>
<!-- Node19&#45;&gt;Node33 -->
<g id="edge34" class="edge">
<title>Node19&#45;&gt;Node33</title>
<path fill="none" stroke="orange" stroke-dasharray="5,2" d="M319.13,-588.7C325.49,-589.73 331.88,-590.72 338,-591.61 383.61,-598.29 435.15,-604.61 474.95,-609.22"/>
<polygon fill="orange" stroke="orange" points="319.63,-585.23 309.19,-587.07 318.49,-592.14 319.63,-585.23"/>
<text text-anchor="middle" x="397" y="-609.61" font-family="Helvetica,sans-Serif" font-size="10.00"> &lt; key_type &gt;</text>
</g>
<!-- Node19&#45;&gt;Node42 -->
<g id="edge51" class="edge">
<title>Node19&#45;&gt;Node42</title>
<path fill="none" stroke="orange" stroke-dasharray="5,2" d="M319.3,-567.79C370.1,-557.03 438.6,-539.06 456,-517.61 482.17,-485.37 444.26,-360.6 474,-331.61 515.42,-291.24 683.11,-304.3 776.29,-315.17"/>
<polygon fill="orange" stroke="orange" points="318.47,-564.39 309.39,-569.85 319.89,-571.24 318.47,-564.39"/>
<text text-anchor="middle" x="542.5" y="-334.61" font-family="Helvetica,sans-Serif" font-size="10.00"> &lt; irep_idt &gt;</text>
</g>
<!-- Node20 -->
<g id="node18" class="node">
<title>Node20</title>
<g id="a_node18"><a xlink:href="classlocal__cfgt.html" target="_top" xlink:title=" ">
<polygon fill="none" stroke="black" points="1114.5,-492.11 1114.5,-511.11 1178.5,-511.11 1178.5,-492.11 1114.5,-492.11"/>
<text text-anchor="middle" x="1146.5" y="-499.11" font-family="Helvetica,sans-Serif" font-size="10.00">local_cfgt</text>
</a>
</g>
</g>
<!-- Node20&#45;&gt;Node10 -->
<g id="edge21" class="edge">
<title>Node20&#45;&gt;Node10</title>
<path fill="none" stroke="#9a32cd" stroke-dasharray="5,2" d="M1188.71,-504.96C1231.07,-508.68 1298.87,-515.39 1357,-524.61 1366.58,-526.13 1376.82,-528.07 1386.48,-530.05"/>
<polygon fill="#9a32cd" stroke="#9a32cd" points="1188.77,-501.45 1178.51,-504.08 1188.17,-508.43 1188.77,-501.45"/>
<text text-anchor="middle" x="1289" y="-527.61" font-family="Helvetica,sans-Serif" font-size="10.00"> cfg</text>
</g>
<!-- Node21&#45;&gt;Node20 -->
<g id="edge22" class="edge">
<title>Node21&#45;&gt;Node20</title>
<path fill="none" stroke="#9a32cd" stroke-dasharray="5,2" d="M753.99,-570.3C853.49,-552.84 1040.69,-520 1114.48,-507.06"/>
<polygon fill="#9a32cd" stroke="#9a32cd" points="753.3,-566.87 744.05,-572.04 754.51,-573.76 753.3,-566.87"/>
<text text-anchor="middle" x="840.5" y="-569.61" font-family="Helvetica,sans-Serif" font-size="10.00"> nodes</text>
</g>
<!-- Node22&#45;&gt;Node20 -->
<g id="edge24" class="edge">
<title>Node22&#45;&gt;Node20</title>
<path fill="none" stroke="#9a32cd" stroke-dasharray="5,2" d="M924.28,-228.61C974,-225.83 1034.66,-232.19 1072,-270.61 1100.94,-300.4 1070.35,-420.03 1090,-456.61 1098.34,-472.13 1114.5,-484.28 1127.24,-492.02"/>
<polygon fill="#9a32cd" stroke="#9a32cd" points="923.91,-225.13 914.17,-229.31 924.39,-232.11 923.91,-225.13"/>
<text text-anchor="middle" x="1002.5" y="-273.61" font-family="Helvetica,sans-Serif" font-size="10.00"> loc_map</text>
</g>
<!-- Node23 -->
<g id="node21" class="node">
<title>Node23</title>
<g id="a_node21"><a xlink:href="classnumberingt.html" target="_top" xlink:title=" ">
<polygon fill="none" stroke="black" points="1090,-581.61 1090,-611.61 1203,-611.61 1203,-581.61 1090,-581.61"/>
<text text-anchor="start" x="1098" y="-599.61" font-family="Helvetica,sans-Serif" font-size="10.00">numberingt&lt; exprt,</text>
<text text-anchor="middle" x="1146.5" y="-588.61" font-family="Helvetica,sans-Serif" font-size="10.00"> irep_hash &gt;</text>
</a>
</g>
</g>
<!-- Node23&#45;&gt;Node10 -->
<g id="edge27" class="edge">
<title>Node23&#45;&gt;Node10</title>
<path fill="none" stroke="#9a32cd" stroke-dasharray="5,2" d="M1213.04,-583.61C1254.36,-575.37 1308.82,-564.46 1357,-554.61 1365.51,-552.88 1374.57,-551 1383.3,-549.19"/>
<polygon fill="#9a32cd" stroke="#9a32cd" points="1212.22,-580.2 1203.1,-585.59 1213.59,-587.07 1212.22,-580.2"/>
<text text-anchor="middle" x="1289" y="-584.61" font-family="Helvetica,sans-Serif" font-size="10.00"> objects</text>
</g>
<!-- Node24 -->
<g id="node22" class="node">
<title>Node24</title>
<g id="a_node22"><a xlink:title=" ">
<polygon fill="none" stroke="#bfbfbf" points="479,-435.11 479,-476.11 606,-476.11 606,-435.11 479,-435.11"/>
<text text-anchor="start" x="487" y="-464.11" font-family="Helvetica,sans-Serif" font-size="10.00">std::unordered_map</text>
<text text-anchor="start" x="487" y="-453.11" font-family="Helvetica,sans-Serif" font-size="10.00">&lt; exprt, number_type,</text>
<text text-anchor="middle" x="542.5" y="-442.11" font-family="Helvetica,sans-Serif" font-size="10.00"> irep_hash &gt;</text>
</a>
</g>
</g>
<!-- Node24&#45;&gt;Node23 -->
<g id="edge28" class="edge">
<title>Node24&#45;&gt;Node23</title>
<path fill="none" stroke="#9a32cd" stroke-dasharray="5,2" d="M587.34,-481.3C605.84,-491.93 624.22,-502.15 629,-503.61 750.95,-541.02 789.67,-503.86 915,-527.61 982.72,-540.45 1058.9,-565.4 1104.5,-581.52"/>
<polygon fill="#9a32cd" stroke="#9a32cd" points="589.01,-478.22 578.6,-476.25 585.51,-484.28 589.01,-478.22"/>
<text text-anchor="middle" x="840.5" y="-530.61" font-family="Helvetica,sans-Serif" font-size="10.00"> numbers_</text>
</g>
<!-- Node25 -->
<g id="node23" class="node">
<title>Node25</title>
<g id="a_node23"><a xlink:href="classexprt.html" target="_top" xlink:title="Base class for all expressions.">
<polygon fill="none" stroke="red" points="239.5,-406.11 239.5,-425.11 281.5,-425.11 281.5,-406.11 239.5,-406.11"/>
<text text-anchor="middle" x="260.5" y="-413.11" font-family="Helvetica,sans-Serif" font-size="10.00">exprt</text>
</a>
</g>
</g>
<!-- Node25&#45;&gt;Node24 -->
<g id="edge29" class="edge">
<title>Node25&#45;&gt;Node24</title>
<path fill="none" stroke="#9a32cd" stroke-dasharray="5,2" d="M291.51,-416.9C329.89,-418.89 398.28,-423.58 456,-433.61 463.4,-434.9 471.1,-436.5 478.71,-438.25"/>
<polygon fill="#9a32cd" stroke="#9a32cd" points="291.68,-413.41 281.52,-416.41 291.33,-420.4 291.68,-413.41"/>
<text text-anchor="middle" x="397" y="-436.61" font-family="Helvetica,sans-Serif" font-size="10.00"> keys</text>
</g>
<!-- Node32&#45;&gt;Node24 -->
<g id="edge30" class="edge">
<title>Node32&#45;&gt;Node24</title>
<path fill="none" stroke="orange" stroke-dasharray="5,2" d="M328,-451.39C331.38,-451.09 334.73,-450.83 338,-450.61 385.08,-447.55 438.4,-449.04 478.64,-451.17"/>
<polygon fill="orange" stroke="orange" points="327.42,-447.93 317.82,-452.41 328.12,-454.9 327.42,-447.93"/>
<text text-anchor="start" x="340" y="-464.61" font-family="Helvetica,sans-Serif" font-size="10.00"> &lt; exprt, number_type,</text>
<text text-anchor="middle" x="397" y="-453.61" font-family="Helvetica,sans-Serif" font-size="10.00"> irep_hash &gt;</text>
</g>
<!-- Node35 -->
<g id="node27" class="node">
<title>Node35</title>
<g id="a_node27"><a xlink:title=" ">
<polygon fill="none" stroke="#bfbfbf" points="481.5,-504.11 481.5,-545.11 603.5,-545.11 603.5,-504.11 481.5,-504.11"/>
<text text-anchor="start" x="489.5" y="-533.11" font-family="Helvetica,sans-Serif" font-size="10.00">std::unordered_map</text>
<text text-anchor="start" x="489.5" y="-522.11" font-family="Helvetica,sans-Serif" font-size="10.00">&lt; keyt, number_type,</text>
<text text-anchor="middle" x="542.5" y="-511.11" font-family="Helvetica,sans-Serif" font-size="10.00"> std::hash&lt; keyt &gt; &gt;</text>
</a>
</g>
</g>
<!-- Node32&#45;&gt;Node35 -->
<g id="edge37" class="edge">
<title>Node32&#45;&gt;Node35</title>
<path fill="none" stroke="orange" stroke-dasharray="5,2" d="M327.82,-475.77C374.42,-486.42 436.24,-500.55 481.39,-510.87"/>
<polygon fill="orange" stroke="orange" points="328.35,-472.3 317.83,-473.49 326.79,-479.13 328.35,-472.3"/>
<text text-anchor="start" x="342.5" y="-517.61" font-family="Helvetica,sans-Serif" font-size="10.00"> &lt; keyt, number_type,</text>
<text text-anchor="middle" x="397" y="-506.61" font-family="Helvetica,sans-Serif" font-size="10.00"> std::hash&lt; keyt &gt; &gt;</text>
</g>
<!-- Node33&#45;&gt;Node23 -->
<g id="edge33" class="edge">
<title>Node33&#45;&gt;Node23</title>
<path fill="none" stroke="#9a32cd" stroke-dasharray="5,2" d="M613.63,-627.26C618.82,-627.8 623.99,-628.26 629,-628.61 825.46,-642.33 877.93,-652.1 1072,-618.61 1081.71,-616.94 1091.95,-614.39 1101.6,-611.62"/>
<polygon fill="#9a32cd" stroke="#9a32cd" points="613.98,-623.77 603.65,-626.13 613.19,-630.73 613.98,-623.77"/>
<text text-anchor="middle" x="840.5" y="-643.61" font-family="Helvetica,sans-Serif" font-size="10.00"> data_</text>
</g>
<!-- Node34 -->
<g id="node26" class="node">
<title>Node34</title>
<g id="a_node26"><a xlink:href="classnumberingt.html" target="_top" xlink:title=" ">
<polygon fill="none" stroke="black" points="766,-598.11 766,-617.11 915,-617.11 915,-598.11 766,-598.11"/>
<text text-anchor="middle" x="840.5" y="-605.11" font-family="Helvetica,sans-Serif" font-size="10.00">numberingt&lt; keyt, hasht &gt;</text>
</a>
</g>
</g>
<!-- Node33&#45;&gt;Node34 -->
<g id="edge38" class="edge">
<title>Node33&#45;&gt;Node34</title>
<path fill="none" stroke="#9a32cd" stroke-dasharray="5,2" d="M620.56,-614.27C665.43,-612.91 721.68,-611.2 765.94,-609.85"/>
<polygon fill="#9a32cd" stroke="#9a32cd" points="620.19,-610.78 610.3,-614.58 620.4,-617.78 620.19,-610.78"/>
<text text-anchor="middle" x="688.5" y="-616.61" font-family="Helvetica,sans-Serif" font-size="10.00"> data_</text>
</g>
<!-- Node34&#45;&gt;Node23 -->
<g id="edge35" class="edge">
<title>Node34&#45;&gt;Node23</title>
<path fill="none" stroke="orange" stroke-dasharray="5,2" d="M925.37,-604.58C977.75,-602.68 1043.73,-600.3 1089.73,-598.63"/>
<polygon fill="orange" stroke="orange" points="924.96,-601.09 915.09,-604.95 925.21,-608.09 924.96,-601.09"/>
<text text-anchor="middle" x="1002.5" y="-606.61" font-family="Helvetica,sans-Serif" font-size="10.00"> &lt; exprt, irep_hash &gt;</text>
</g>
<!-- Node35&#45;&gt;Node34 -->
<g id="edge36" class="edge">
<title>Node35&#45;&gt;Node34</title>
<path fill="none" stroke="#9a32cd" stroke-dasharray="5,2" d="M613.69,-531.97C668.33,-538.18 736.74,-547.23 748,-554.61 760.68,-562.93 754.07,-574.25 766,-583.61 774.03,-589.91 783.76,-594.59 793.49,-598.05"/>
<polygon fill="#9a32cd" stroke="#9a32cd" points="614,-528.48 603.67,-530.84 613.21,-535.44 614,-528.48"/>
<text text-anchor="middle" x="688.5" y="-557.61" font-family="Helvetica,sans-Serif" font-size="10.00"> numbers_</text>
</g>
<!-- Node36 -->
<g id="node28" class="node">
<title>Node36</title>
<g id="a_node28"><a xlink:href="classlocalst.html" target="_top" xlink:title=" ">
<polygon fill="none" stroke="black" points="1122,-530.11 1122,-549.11 1171,-549.11 1171,-530.11 1122,-530.11"/>
<text text-anchor="middle" x="1146.5" y="-537.11" font-family="Helvetica,sans-Serif" font-size="10.00">localst</text>
</a>
</g>
</g>
<!-- Node36&#45;&gt;Node10 -->
<g id="edge39" class="edge">
<title>Node36&#45;&gt;Node10</title>
<path fill="none" stroke="#9a32cd" stroke-dasharray="5,2" d="M1181.19,-539.61C1230.75,-539.61 1323.54,-539.61 1380.44,-539.61"/>
<polygon fill="#9a32cd" stroke="#9a32cd" points="1181.02,-536.11 1171.02,-539.61 1181.02,-543.11 1181.02,-536.11"/>
<text text-anchor="middle" x="1289" y="-542.61" font-family="Helvetica,sans-Serif" font-size="10.00"> locals</text>
</g>
<!-- Node37&#45;&gt;Node36 -->
<g id="edge40" class="edge">
<title>Node37&#45;&gt;Node36</title>
<path fill="none" stroke="#9a32cd" stroke-dasharray="5,2" d="M904.25,-464.04C953.11,-462.62 1020.97,-467.26 1072,-496.61 1083.56,-503.26 1079.22,-512.77 1090,-520.61 1099.39,-527.44 1111.42,-531.96 1121.88,-534.86"/>
<polygon fill="#9a32cd" stroke="#9a32cd" points="903.98,-460.55 894.12,-464.43 904.25,-467.55 903.98,-460.55"/>
<text text-anchor="middle" x="1002.5" y="-499.61" font-family="Helvetica,sans-Serif" font-size="10.00"> locals</text>
</g>
<!-- Node38&#45;&gt;Node9 -->
<g id="edge43" class="edge">
<title>Node38&#45;&gt;Node9</title>
<path fill="none" stroke="orange" stroke-dasharray="5,2" d="M466.48,-730.61C525.14,-730.61 611.88,-730.61 687.5,-730.61 687.5,-730.61 687.5,-730.61 1431,-730.61 1538.26,-730.61 1619.13,-600.25 1644.01,-554.92"/>
<polygon fill="orange" stroke="orange" points="466.22,-727.11 456.22,-730.61 466.22,-734.11 466.22,-727.11"/>
<text text-anchor="middle" x="1002.5" y="-733.61" font-family="Helvetica,sans-Serif" font-size="10.00"> &lt; local_may_aliast &gt;</text>
</g>
<!-- Node39 -->
<g id="node31" class="node">
<title>Node39</title>
<g id="a_node31"><a xlink:href="classgoto__functionst.html" target="_top" xlink:title="A collection of goto functions.">
<polygon fill="none" stroke="black" points="1733,-101.11 1733,-120.11 1825,-120.11 1825,-101.11 1733,-101.11"/>
<text text-anchor="middle" x="1779" y="-108.11" font-family="Helvetica,sans-Serif" font-size="10.00">goto_functionst</text>
</a>
</g>
</g>
<!-- Node39&#45;&gt;Node1 -->
<g id="edge46" class="edge">
<title>Node39&#45;&gt;Node1</title>
<path fill="none" stroke="#9a32cd" stroke-dasharray="5,2" d="M1835.47,-110.61C1894.07,-110.61 1986.55,-110.61 2049.74,-110.61"/>
<polygon fill="#9a32cd" stroke="#9a32cd" points="1835.3,-107.11 1825.3,-110.61 1835.3,-114.11 1835.3,-107.11"/>
<text text-anchor="middle" x="1906.5" y="-113.61" font-family="Helvetica,sans-Serif" font-size="10.00"> goto_functions</text>
</g>
<!-- Node40&#45;&gt;Node39 -->
<g id="edge47" class="edge">
<title>Node40&#45;&gt;Node39</title>
<path fill="none" stroke="#9a32cd" stroke-dasharray="5,2" d="M1495.26,-174.17C1565.38,-158.41 1675.61,-133.63 1735.62,-120.14"/>
<polygon fill="#9a32cd" stroke="#9a32cd" points="1494.21,-170.82 1485.22,-176.43 1495.74,-177.65 1494.21,-170.82"/>
<text text-anchor="middle" x="1538" y="-174.61" font-family="Helvetica,sans-Serif" font-size="10.00"> function_map</text>
</g>
<!-- Node41 -->
<g id="node33" class="node">
<title>Node41</title>
<g id="a_node33"><a xlink:href="classgoto__functiont.html" target="_top" xlink:title="A goto function, consisting of function body (see body) and parameter identifiers (see parameter_iden...">
<polygon fill="none" stroke="black" points="1103,-276.11 1103,-295.11 1190,-295.11 1190,-276.11 1103,-276.11"/>
<text text-anchor="middle" x="1146.5" y="-283.11" font-family="Helvetica,sans-Serif" font-size="10.00">goto_functiont</text>
</a>
</g>
</g>
<!-- Node41&#45;&gt;Node40 -->
<g id="edge48" class="edge">
<title>Node41&#45;&gt;Node40</title>
<path fill="none" stroke="#9a32cd" stroke-dasharray="5,2" d="M1184.75,-272.78C1236.62,-254.91 1330.41,-222.59 1385.45,-203.62"/>
<polygon fill="#9a32cd" stroke="#9a32cd" points="1183.58,-269.48 1175.26,-276.05 1185.86,-276.1 1183.58,-269.48"/>
<text text-anchor="middle" x="1289" y="-261.61" font-family="Helvetica,sans-Serif" font-size="10.00"> elements</text>
</g>
<!-- Node42&#45;&gt;Node41 -->
<g id="edge49" class="edge">
<title>Node42&#45;&gt;Node41</title>
<path fill="none" stroke="#9a32cd" stroke-dasharray="5,2" d="M914.83,-317.57C960.22,-313.44 1019.64,-307.31 1072,-299.61 1082.02,-298.14 1092.76,-296.26 1102.85,-294.37"/>
<polygon fill="#9a32cd" stroke="#9a32cd" points="914.43,-314.09 904.78,-318.48 915.06,-321.07 914.43,-314.09"/>
<text text-anchor="middle" x="1002.5" y="-318.61" font-family="Helvetica,sans-Serif" font-size="10.00"> parameter_identifiers</text>
</g>
<!-- Node43 -->
<g id="node35" class="node">
<title>Node43</title>
<g id="a_node35"><a xlink:href="classgoto__programt.html" target="_top" xlink:title="A generic container class for the GOTO intermediate representation of one function.">
<polygon fill="none" stroke="black" points="796,-276.11 796,-295.11 885,-295.11 885,-276.11 796,-276.11"/>
<text text-anchor="middle" x="840.5" y="-283.11" font-family="Helvetica,sans-Serif" font-size="10.00">goto_programt</text>
</a>
</g>
</g>
<!-- Node43&#45;&gt;Node41 -->
<g id="edge52" class="edge">
<title>Node43&#45;&gt;Node41</title>
<path fill="none" stroke="#9a32cd" stroke-dasharray="5,2" d="M895.31,-285.61C954.41,-285.61 1048.12,-285.61 1102.52,-285.61"/>
<polygon fill="#9a32cd" stroke="#9a32cd" points="895.06,-282.11 885.06,-285.61 895.06,-289.11 895.06,-282.11"/>
<text text-anchor="middle" x="1002.5" y="-288.61" font-family="Helvetica,sans-Serif" font-size="10.00"> body</text>
</g>
<!-- Node44 -->
<g id="node36" class="node">
<title>Node44</title>
<g id="a_node36"><a xlink:title=" ">
<polygon fill="none" stroke="#bfbfbf" points="477,-267.11 477,-286.11 608,-286.11 608,-267.11 477,-267.11"/>
<text text-anchor="middle" x="542.5" y="-274.11" font-family="Helvetica,sans-Serif" font-size="10.00">std::list&lt; instructiont &gt;</text>
</a>
</g>
</g>
<!-- Node44&#45;&gt;Node43 -->
<g id="edge53" class="edge">
<title>Node44&#45;&gt;Node43</title>
<path fill="none" stroke="#9a32cd" stroke-dasharray="5,2" d="M618.16,-275.51C656.92,-275.3 705.02,-275.63 748,-277.61 763.61,-278.33 780.68,-279.67 795.8,-281.06"/>
<polygon fill="#9a32cd" stroke="#9a32cd" points="617.98,-272.01 608.01,-275.57 618.03,-279.01 617.98,-272.01"/>
<text text-anchor="middle" x="688.5" y="-280.61" font-family="Helvetica,sans-Serif" font-size="10.00"> instructions</text>
</g>
<!-- Node45 -->
<g id="node37" class="node">
<title>Node45</title>
<g id="a_node37"><a xlink:href="structstatement__list__parse__treet_1_1instructiont.html" target="_top" xlink:title="Represents a regular Statement List instruction which consists out of one or more codet tokens.">
<polygon fill="none" stroke="red" points="201,-269.61 201,-299.61 320,-299.61 320,-269.61 201,-269.61"/>
<text text-anchor="start" x="209" y="-287.61" font-family="Helvetica,sans-Serif" font-size="10.00">statement_list_parse</text>
<text text-anchor="middle" x="260.5" y="-276.61" font-family="Helvetica,sans-Serif" font-size="10.00">_treet::instructiont</text>
</a>
</g>
</g>
<!-- Node45&#45;&gt;Node44 -->
<g id="edge54" class="edge">
<title>Node45&#45;&gt;Node44</title>
<path fill="none" stroke="#9a32cd" stroke-dasharray="5,2" d="M330.37,-278.03C332.94,-277.88 335.49,-277.73 338,-277.61 384.41,-275.38 436.83,-275.18 476.85,-275.51"/>
<polygon fill="#9a32cd" stroke="#9a32cd" points="330.09,-274.54 320.35,-278.71 330.57,-281.53 330.09,-274.54"/>
<text text-anchor="middle" x="397" y="-280.61" font-family="Helvetica,sans-Serif" font-size="10.00"> elements</text>
</g>
<!-- Node48&#45;&gt;Node44 -->
<g id="edge55" class="edge">
<title>Node48&#45;&gt;Node44</title>
<path fill="none" stroke="orange" stroke-dasharray="5,2" d="M297.92,-363.57C340.23,-348.41 412.16,-322.67 474,-300.61 487.35,-295.85 502.2,-290.57 514.56,-286.18"/>
<polygon fill="orange" stroke="orange" points="296.56,-360.33 288.33,-367 298.92,-366.92 296.56,-360.33"/>
<text text-anchor="middle" x="397" y="-350.61" font-family="Helvetica,sans-Serif" font-size="10.00"> &lt; instructiont &gt;</text>
</g>
</g>
</svg>
