<?xml version="1.0" encoding="UTF-8" standalone="no"?>
<!DOCTYPE svg PUBLIC "-//W3C//DTD SVG 1.1//EN"
 "http://www.w3.org/Graphics/SVG/1.1/DTD/svg11.dtd">
<!-- Generated by graphviz version 2.43.0 (0)
 -->
<!-- Title: string_builtin_function_with_no_evalt Pages: 1 -->
<svg width="1293pt" height="402pt"
 viewBox="0.00 0.00 1293.00 401.93" xmlns="http://www.w3.org/2000/svg" xmlns:xlink="http://www.w3.org/1999/xlink">
<g id="graph0" class="graph" transform="scale(1 1) rotate(0) translate(4 397.93)">
<title>string_builtin_function_with_no_evalt</title>
<!-- Node1 -->
<g id="node1" class="node">
<title>Node1</title>
<g id="a_node1"><a xlink:title="Functions that are not yet supported in this class but are supported by string_constraint_generatort.">
<polygon fill="#bfbfbf" stroke="black" points="1160,-169.43 1160,-199.43 1285,-199.43 1285,-169.43 1160,-169.43"/>
<text text-anchor="start" x="1168" y="-187.43" font-family="Helvetica,sans-Serif" font-size="10.00">string_builtin_function</text>
<text text-anchor="middle" x="1222.5" y="-176.43" font-family="Helvetica,sans-Serif" font-size="10.00">_with_no_evalt</text>
</a>
</g>
</g>
<!-- Node2 -->
<g id="node2" class="node">
<title>Node2</title>
<g id="a_node2"><a xlink:href="classstring__builtin__functiont.html" target="_top" xlink:title="Base class for string functions that are built in the solver.">
<polygon fill="none" stroke="black" points="942.5,-218.93 942.5,-237.93 1071.5,-237.93 1071.5,-218.93 942.5,-218.93"/>
<text text-anchor="middle" x="1007" y="-225.93" font-family="Helvetica,sans-Serif" font-size="10.00">string_builtin_functiont</text>
</a>
</g>
</g>
<!-- Node2&#45;&gt;Node1 -->
<g id="edge1" class="edge">
<title>Node2&#45;&gt;Node1</title>
<path fill="none" stroke="midnightblue" d="M1064.42,-216.8C1093.79,-210.75 1129.76,-203.33 1159.86,-197.13"/>
<polygon fill="midnightblue" stroke="midnightblue" points="1063.41,-213.43 1054.33,-218.88 1064.83,-220.29 1063.41,-213.43"/>
</g>
<!-- Node3 -->
<g id="node3" class="node">
<title>Node3</title>
<g id="a_node3"><a xlink:href="classarray__poolt.html" target="_top" xlink:title="Correspondance between arrays and pointers string representations.">
<polygon fill="none" stroke="black" points="718,-218.93 718,-237.93 790,-237.93 790,-218.93 718,-218.93"/>
<text text-anchor="middle" x="754" y="-225.93" font-family="Helvetica,sans-Serif" font-size="10.00">array_poolt</text>
</a>
</g>
</g>
<!-- Node3&#45;&gt;Node2 -->
<g id="edge2" class="edge">
<title>Node3&#45;&gt;Node2</title>
<path fill="none" stroke="#9a32cd" stroke-dasharray="5,2" d="M800.31,-228.43C839.88,-228.43 897.74,-228.43 942.02,-228.43"/>
<polygon fill="#9a32cd" stroke="#9a32cd" points="800.16,-224.93 790.16,-228.43 800.16,-231.93 800.16,-224.93"/>
<text text-anchor="middle" x="866" y="-231.43" font-family="Helvetica,sans-Serif" font-size="10.00"> array_pool</text>
</g>
<!-- Node4 -->
<g id="node4" class="node">
<title>Node4</title>
<g id="a_node4"><a xlink:title=" ">
<polygon fill="none" stroke="#bfbfbf" points="469,-206.93 469,-247.93 587,-247.93 587,-206.93 469,-206.93"/>
<text text-anchor="start" x="477" y="-235.93" font-family="Helvetica,sans-Serif" font-size="10.00">std::unordered_map</text>
<text text-anchor="start" x="477" y="-224.93" font-family="Helvetica,sans-Serif" font-size="10.00">&lt; exprt, array_string</text>
<text text-anchor="middle" x="528" y="-213.93" font-family="Helvetica,sans-Serif" font-size="10.00">_exprt, irep_hash &gt;</text>
</a>
</g>
</g>
<!-- Node4&#45;&gt;Node3 -->
<g id="edge3" class="edge">
<title>Node4&#45;&gt;Node3</title>
<path fill="none" stroke="#9a32cd" stroke-dasharray="5,2" d="M597.43,-227.73C637.17,-227.91 685.58,-228.13 717.73,-228.27"/>
<polygon fill="#9a32cd" stroke="#9a32cd" points="597.28,-224.23 587.27,-227.69 597.25,-231.23 597.28,-224.23"/>
<text text-anchor="middle" x="653" y="-230.43" font-family="Helvetica,sans-Serif" font-size="10.00"> arrays_of_pointers</text>
</g>
<!-- Node5 -->
<g id="node5" class="node">
<title>Node5</title>
<g id="a_node5"><a xlink:href="classarray__string__exprt.html" target="_top" xlink:title=" ">
<polygon fill="none" stroke="black" points="207,-197.93 207,-216.93 313,-216.93 313,-197.93 207,-197.93"/>
<text text-anchor="middle" x="260" y="-204.93" font-family="Helvetica,sans-Serif" font-size="10.00">array_string_exprt</text>
</a>
</g>
</g>
<!-- Node5&#45;&gt;Node4 -->
<g id="edge4" class="edge">
<title>Node5&#45;&gt;Node4</title>
<path fill="none" stroke="#9a32cd" stroke-dasharray="5,2" d="M323.24,-212.11C367.24,-215.41 425.82,-219.82 468.88,-223.06"/>
<polygon fill="#9a32cd" stroke="#9a32cd" points="323.47,-208.61 313.24,-211.35 322.95,-215.59 323.47,-208.61"/>
<text text-anchor="middle" x="392.5" y="-224.43" font-family="Helvetica,sans-Serif" font-size="10.00"> elements</text>
</g>
<!-- Node19 -->
<g id="node12" class="node">
<title>Node19</title>
<g id="a_node12"><a xlink:title=" ">
<polygon fill="none" stroke="#bfbfbf" points="468,-266.93 468,-307.93 588,-307.93 588,-266.93 468,-266.93"/>
<text text-anchor="start" x="476" y="-295.93" font-family="Helvetica,sans-Serif" font-size="10.00">std::unordered_map</text>
<text text-anchor="start" x="476" y="-284.93" font-family="Helvetica,sans-Serif" font-size="10.00">&lt; array_string_exprt,</text>
<text text-anchor="middle" x="528" y="-273.93" font-family="Helvetica,sans-Serif" font-size="10.00"> exprt, irep_hash &gt;</text>
</a>
</g>
</g>
<!-- Node5&#45;&gt;Node19 -->
<g id="edge13" class="edge">
<title>Node5&#45;&gt;Node19</title>
<path fill="none" stroke="#9a32cd" stroke-dasharray="5,2" d="M292.84,-220.82C305.8,-226.03 321,-231.84 335,-236.43 378.92,-250.81 429.47,-264.11 467.67,-273.52"/>
<polygon fill="#9a32cd" stroke="#9a32cd" points="294.01,-217.52 283.43,-216.99 291.37,-224 294.01,-217.52"/>
<text text-anchor="middle" x="392.5" y="-271.43" font-family="Helvetica,sans-Serif" font-size="10.00"> keys</text>
</g>
<!-- Node22 -->
<g id="node15" class="node">
<title>Node22</title>
<g id="a_node15"><a xlink:title=" ">
<polygon fill="none" stroke="#bfbfbf" points="475.5,-81.43 475.5,-111.43 580.5,-111.43 580.5,-81.43 475.5,-81.43"/>
<text text-anchor="start" x="483.5" y="-99.43" font-family="Helvetica,sans-Serif" font-size="10.00">std::vector&lt; array</text>
<text text-anchor="middle" x="528" y="-88.43" font-family="Helvetica,sans-Serif" font-size="10.00">_string_exprt &gt;</text>
</a>
</g>
</g>
<!-- Node5&#45;&gt;Node22 -->
<g id="edge20" class="edge">
<title>Node5&#45;&gt;Node22</title>
<path fill="none" stroke="#9a32cd" stroke-dasharray="5,2" d="M282.23,-191.44C292.76,-183.43 305.63,-173.52 317,-164.43 325.13,-157.92 325.77,-154.25 335,-149.43 379.58,-126.1 435.51,-112.17 475.48,-104.49"/>
<polygon fill="#9a32cd" stroke="#9a32cd" points="279.87,-188.84 274.01,-197.67 284.1,-194.42 279.87,-188.84"/>
<text text-anchor="middle" x="392.5" y="-152.43" font-family="Helvetica,sans-Serif" font-size="10.00"> elements</text>
</g>
<!-- Node6 -->
<g id="node6" class="node">
<title>Node6</title>
<g id="a_node6"><a xlink:href="classexprt.html" target="_top" xlink:title="Base class for all expressions.">
<polygon fill="none" stroke="black" points="76,-269.93 76,-288.93 118,-288.93 118,-269.93 76,-269.93"/>
<text text-anchor="middle" x="97" y="-276.93" font-family="Helvetica,sans-Serif" font-size="10.00">exprt</text>
</a>
</g>
</g>
<!-- Node6&#45;&gt;Node2 -->
<g id="edge16" class="edge">
<title>Node6&#45;&gt;Node2</title>
<path fill="none" stroke="#9a32cd" stroke-dasharray="5,2" d="M119.89,-294.56C149.86,-313.77 206,-344.43 259,-344.43 259,-344.43 259,-344.43 755,-344.43 855.81,-344.43 960.13,-266.37 994.36,-238.32"/>
<polygon fill="#9a32cd" stroke="#9a32cd" points="121.74,-291.59 111.47,-289.02 117.9,-297.44 121.74,-291.59"/>
<text text-anchor="middle" x="528" y="-347.43" font-family="Helvetica,sans-Serif" font-size="10.00"> return_code</text>
</g>
<!-- Node6&#45;&gt;Node4 -->
<g id="edge7" class="edge">
<title>Node6&#45;&gt;Node4</title>
<path fill="none" stroke="#9a32cd" stroke-dasharray="5,2" d="M128.06,-275.68C149.05,-273.07 177.73,-269.51 203,-266.43 295.93,-255.08 403.89,-242.13 468.76,-234.38"/>
<polygon fill="#9a32cd" stroke="#9a32cd" points="127.62,-272.21 118.13,-276.91 128.48,-279.15 127.62,-272.21"/>
<text text-anchor="middle" x="260" y="-269.43" font-family="Helvetica,sans-Serif" font-size="10.00"> keys</text>
</g>
<!-- Node6&#45;&gt;Node5 -->
<g id="edge5" class="edge">
<title>Node6&#45;&gt;Node5</title>
<path fill="none" stroke="midnightblue" d="M111.07,-261.69C117.72,-253.82 126.43,-245.07 136,-239.43 157.48,-226.76 183.96,-219.04 206.84,-214.37"/>
<polygon fill="midnightblue" stroke="midnightblue" points="108.18,-259.7 104.71,-269.71 113.67,-264.05 108.18,-259.7"/>
</g>
<!-- Node6&#45;&gt;Node19 -->
<g id="edge14" class="edge">
<title>Node6&#45;&gt;Node19</title>
<path fill="none" stroke="#9a32cd" stroke-dasharray="5,2" d="M128.53,-280C199.22,-281.31 375.15,-284.59 467.79,-286.32"/>
<polygon fill="#9a32cd" stroke="#9a32cd" points="128.18,-276.49 118.12,-279.8 128.05,-283.49 128.18,-276.49"/>
<text text-anchor="middle" x="260" y="-286.43" font-family="Helvetica,sans-Serif" font-size="10.00"> elements</text>
</g>
<!-- Node23 -->
<g id="node17" class="node">
<title>Node23</title>
<g id="a_node17"><a xlink:title=" ">
<polygon fill="none" stroke="#bfbfbf" points="470,-130.93 470,-149.93 586,-149.93 586,-130.93 470,-130.93"/>
<text text-anchor="middle" x="528" y="-137.93" font-family="Helvetica,sans-Serif" font-size="10.00">std::vector&lt; exprt &gt;</text>
</a>
</g>
</g>
<!-- Node6&#45;&gt;Node23 -->
<g id="edge24" class="edge">
<title>Node6&#45;&gt;Node23</title>
<path fill="none" stroke="#9a32cd" stroke-dasharray="5,2" d="M106.12,-260.25C112.66,-246.52 122.91,-228.26 136,-215.43 160.45,-191.46 170.45,-188.03 203,-177.43 293.17,-148.06 404.05,-141.28 469.94,-140.11"/>
<polygon fill="#9a32cd" stroke="#9a32cd" points="102.78,-259.15 101.86,-269.71 109.16,-262.03 102.78,-259.15"/>
<text text-anchor="middle" x="260" y="-180.43" font-family="Helvetica,sans-Serif" font-size="10.00"> elements</text>
</g>
<!-- Node26 -->
<g id="node20" class="node">
<title>Node26</title>
<g id="a_node20"><a xlink:href="classexpr__protectedt.html" target="_top" xlink:title="Base class for all expressions.">
<polygon fill="none" stroke="black" points="213,-372.93 213,-391.93 307,-391.93 307,-372.93 213,-372.93"/>
<text text-anchor="middle" x="260" y="-379.93" font-family="Helvetica,sans-Serif" font-size="10.00">expr_protectedt</text>
</a>
</g>
</g>
<!-- Node6&#45;&gt;Node26 -->
<g id="edge29" class="edge">
<title>Node6&#45;&gt;Node26</title>
<path fill="none" stroke="midnightblue" d="M102.07,-298.8C106.94,-317.05 116.96,-343.72 136,-358.43 157.7,-375.18 187.83,-381.26 212.84,-383.11"/>
<polygon fill="midnightblue" stroke="midnightblue" points="105.44,-297.86 99.71,-288.95 98.63,-299.49 105.44,-297.86"/>
</g>
<!-- Node7 -->
<g id="node7" class="node">
<title>Node7</title>
<g id="a_node7"><a xlink:href="classirept.html" target="_top" xlink:title="There are a large number of kinds of tree structured or tree&#45;like data in CPROVER.">
<polygon fill="none" stroke="red" points="0,-269.93 0,-288.93 39,-288.93 39,-269.93 0,-269.93"/>
<text text-anchor="middle" x="19.5" y="-276.93" font-family="Helvetica,sans-Serif" font-size="10.00">irept</text>
</a>
</g>
</g>
<!-- Node7&#45;&gt;Node6 -->
<g id="edge6" class="edge">
<title>Node7&#45;&gt;Node6</title>
<path fill="none" stroke="midnightblue" d="M49.18,-279.43C58.11,-279.43 67.76,-279.43 75.97,-279.43"/>
<polygon fill="midnightblue" stroke="midnightblue" points="49.16,-275.93 39.16,-279.43 49.16,-282.93 49.16,-275.93"/>
</g>
<!-- Node16 -->
<g id="node8" class="node">
<title>Node16</title>
<g id="a_node8"><a xlink:title=" ">
<polygon fill="none" stroke="#bfbfbf" points="203,-78.43 203,-108.43 317,-108.43 317,-78.43 203,-78.43"/>
<text text-anchor="start" x="211" y="-96.43" font-family="Helvetica,sans-Serif" font-size="10.00">std::unordered_map</text>
<text text-anchor="middle" x="260" y="-85.43" font-family="Helvetica,sans-Serif" font-size="10.00">&lt; K, T &gt;</text>
</a>
</g>
</g>
<!-- Node16&#45;&gt;Node4 -->
<g id="edge8" class="edge">
<title>Node16&#45;&gt;Node4</title>
<path fill="none" stroke="orange" stroke-dasharray="5,2" d="M308.27,-75.16C350.45,-62.26 411.35,-52.49 450,-85.43 488.37,-118.13 438.3,-156.68 468,-197.43 470.57,-200.96 473.68,-204.1 477.11,-206.89"/>
<polygon fill="orange" stroke="orange" points="306.96,-71.9 298.51,-78.3 309.1,-78.57 306.96,-71.9"/>
<text text-anchor="start" x="340" y="-99.43" font-family="Helvetica,sans-Serif" font-size="10.00"> &lt; exprt, array_string</text>
<text text-anchor="middle" x="392.5" y="-88.43" font-family="Helvetica,sans-Serif" font-size="10.00">_exprt, irep_hash &gt;</text>
</g>
<!-- Node16&#45;&gt;Node19 -->
<g id="edge15" class="edge">
<title>Node16&#45;&gt;Node19</title>
<path fill="none" stroke="orange" stroke-dasharray="5,2" d="M300.79,-113.93C306.62,-117.93 312.25,-122.45 317,-127.43 328.54,-139.51 321.67,-150.36 335,-160.43 376.81,-192.01 412.47,-149.86 450,-186.43 473.32,-209.15 447.67,-232 468,-257.43 470.8,-260.93 474.11,-264.06 477.72,-266.85"/>
<polygon fill="orange" stroke="orange" points="302.5,-110.86 292.19,-108.44 298.73,-116.76 302.5,-110.86"/>
<text text-anchor="start" x="339" y="-200.43" font-family="Helvetica,sans-Serif" font-size="10.00"> &lt; array_string_exprt,</text>
<text text-anchor="middle" x="392.5" y="-189.43" font-family="Helvetica,sans-Serif" font-size="10.00"> exprt, irep_hash &gt;</text>
</g>
<!-- Node17 -->
<g id="node9" class="node">
<title>Node17</title>
<g id="a_node9"><a xlink:title=" ">
<polygon fill="none" stroke="#bfbfbf" points="82.5,-93.93 82.5,-112.93 111.5,-112.93 111.5,-93.93 82.5,-93.93"/>
<text text-anchor="middle" x="97" y="-100.93" font-family="Helvetica,sans-Serif" font-size="10.00">K</text>
</a>
</g>
</g>
<!-- Node17&#45;&gt;Node16 -->
<g id="edge9" class="edge">
<title>Node17&#45;&gt;Node16</title>
<path fill="none" stroke="#9a32cd" stroke-dasharray="5,2" d="M121.81,-101.95C143.11,-100.62 175.17,-98.63 202.94,-96.91"/>
<polygon fill="#9a32cd" stroke="#9a32cd" points="121.49,-98.46 111.73,-102.57 121.92,-105.45 121.49,-98.46"/>
<text text-anchor="middle" x="160.5" y="-104.43" font-family="Helvetica,sans-Serif" font-size="10.00"> keys</text>
</g>
<!-- Node14 -->
<g id="node10" class="node">
<title>Node14</title>
<g id="a_node10"><a xlink:title=" ">
<polygon fill="none" stroke="#bfbfbf" points="82.5,-40.93 82.5,-59.93 111.5,-59.93 111.5,-40.93 82.5,-40.93"/>
<text text-anchor="middle" x="97" y="-47.93" font-family="Helvetica,sans-Serif" font-size="10.00">T</text>
</a>
</g>
</g>
<!-- Node14&#45;&gt;Node16 -->
<g id="edge10" class="edge">
<title>Node14&#45;&gt;Node16</title>
<path fill="none" stroke="#9a32cd" stroke-dasharray="5,2" d="M121.51,-56.71C142.82,-62.4 175.04,-71 202.94,-78.46"/>
<polygon fill="#9a32cd" stroke="#9a32cd" points="122.29,-53.29 111.73,-54.09 120.48,-60.05 122.29,-53.29"/>
<text text-anchor="middle" x="160.5" y="-76.43" font-family="Helvetica,sans-Serif" font-size="10.00"> elements</text>
</g>
<!-- Node13 -->
<g id="node16" class="node">
<title>Node13</title>
<g id="a_node16"><a xlink:title=" ">
<polygon fill="none" stroke="#bfbfbf" points="211.5,-25.93 211.5,-44.93 308.5,-44.93 308.5,-25.93 211.5,-25.93"/>
<text text-anchor="middle" x="260" y="-32.93" font-family="Helvetica,sans-Serif" font-size="10.00">std::vector&lt; T &gt;</text>
</a>
</g>
</g>
<!-- Node14&#45;&gt;Node13 -->
<g id="edge22" class="edge">
<title>Node14&#45;&gt;Node13</title>
<path fill="none" stroke="#9a32cd" stroke-dasharray="5,2" d="M121.11,-40.48C125.94,-38.81 131.07,-37.33 136,-36.43 160.58,-31.94 188.38,-31.35 211.33,-32.02"/>
<polygon fill="#9a32cd" stroke="#9a32cd" points="119.85,-37.22 111.75,-44.05 122.34,-43.76 119.85,-37.22"/>
<text text-anchor="middle" x="160.5" y="-39.43" font-family="Helvetica,sans-Serif" font-size="10.00"> elements</text>
</g>
<!-- Node18 -->
<g id="node11" class="node">
<title>Node18</title>
<g id="a_node11"><a xlink:href="classsymbol__generatort.html" target="_top" xlink:title="Generation of fresh symbols of a given type.">
<polygon fill="none" stroke="black" points="473.5,-168.93 473.5,-187.93 582.5,-187.93 582.5,-168.93 473.5,-168.93"/>
<text text-anchor="middle" x="528" y="-175.93" font-family="Helvetica,sans-Serif" font-size="10.00">symbol_generatort</text>
</a>
</g>
</g>
<!-- Node18&#45;&gt;Node3 -->
<g id="edge11" class="edge">
<title>Node18&#45;&gt;Node3</title>
<path fill="none" stroke="#9a32cd" stroke-dasharray="5,2" d="M593.02,-189.63C625.28,-195.66 664.89,-203.66 700,-212.43 707.55,-214.31 715.63,-216.61 723.15,-218.86"/>
<polygon fill="#9a32cd" stroke="#9a32cd" points="593.3,-186.12 582.83,-187.75 592.02,-193.01 593.3,-186.12"/>
<text text-anchor="middle" x="653" y="-215.43" font-family="Helvetica,sans-Serif" font-size="10.00"> fresh_symbol</text>
</g>
<!-- Node19&#45;&gt;Node3 -->
<g id="edge12" class="edge">
<title>Node19&#45;&gt;Node3</title>
<path fill="none" stroke="#9a32cd" stroke-dasharray="5,2" d="M598.23,-269.22C629.35,-261.04 666.52,-251.25 700,-242.43 705.8,-240.9 711.95,-239.27 717.94,-237.69"/>
<polygon fill="#9a32cd" stroke="#9a32cd" points="597.14,-265.89 588.36,-271.82 598.92,-272.66 597.14,-265.89"/>
<text text-anchor="middle" x="653" y="-269.43" font-family="Helvetica,sans-Serif" font-size="10.00"> length_of_array</text>
</g>
<!-- Node20 -->
<g id="node13" class="node">
<title>Node20</title>
<g id="a_node13"><a xlink:title=" ">
<polygon fill="none" stroke="#bfbfbf" points="942,-169.43 942,-199.43 1072,-199.43 1072,-169.43 942,-169.43"/>
<text text-anchor="start" x="950" y="-187.43" font-family="Helvetica,sans-Serif" font-size="10.00">optionalt&lt; array_string</text>
<text text-anchor="middle" x="1007" y="-176.43" font-family="Helvetica,sans-Serif" font-size="10.00">_exprt &gt;</text>
</a>
</g>
</g>
<!-- Node20&#45;&gt;Node1 -->
<g id="edge17" class="edge">
<title>Node20&#45;&gt;Node1</title>
<path fill="none" stroke="#9a32cd" stroke-dasharray="5,2" d="M1082.33,-184.43C1107.58,-184.43 1135.52,-184.43 1159.69,-184.43"/>
<polygon fill="#9a32cd" stroke="#9a32cd" points="1082.06,-180.93 1072.06,-184.43 1082.06,-187.93 1082.06,-180.93"/>
<text text-anchor="middle" x="1116" y="-187.43" font-family="Helvetica,sans-Serif" font-size="10.00"> string_res</text>
</g>
<!-- Node21 -->
<g id="node14" class="node">
<title>Node21</title>
<g id="a_node14"><a xlink:title=" ">
<polygon fill="none" stroke="#bfbfbf" points="724,-174.93 724,-193.93 784,-193.93 784,-174.93 724,-174.93"/>
<text text-anchor="middle" x="754" y="-181.93" font-family="Helvetica,sans-Serif" font-size="10.00">optionalt</text>
</a>
</g>
</g>
<!-- Node21&#45;&gt;Node20 -->
<g id="edge18" class="edge">
<title>Node21&#45;&gt;Node20</title>
<path fill="none" stroke="orange" stroke-dasharray="5,2" d="M794.32,-184.43C833.8,-184.43 895.31,-184.43 941.86,-184.43"/>
<polygon fill="orange" stroke="orange" points="794.28,-180.93 784.28,-184.43 794.28,-187.93 794.28,-180.93"/>
<text text-anchor="middle" x="866" y="-187.43" font-family="Helvetica,sans-Serif" font-size="10.00"> &lt; array_string_exprt &gt;</text>
</g>
<!-- Node22&#45;&gt;Node1 -->
<g id="edge19" class="edge">
<title>Node22&#45;&gt;Node1</title>
<path fill="none" stroke="#9a32cd" stroke-dasharray="5,2" d="M590.91,-99.96C691.99,-106.22 898.58,-121.03 1072,-146.43 1103.23,-151 1111.36,-150.83 1142,-158.43 1154.26,-161.47 1167.37,-165.44 1179.34,-169.37"/>
<polygon fill="#9a32cd" stroke="#9a32cd" points="591.07,-96.46 580.88,-99.35 590.65,-103.45 591.07,-96.46"/>
<text text-anchor="middle" x="866" y="-131.43" font-family="Helvetica,sans-Serif" font-size="10.00"> string_args</text>
</g>
<!-- Node13&#45;&gt;Node22 -->
<g id="edge21" class="edge">
<title>Node13&#45;&gt;Node22</title>
<path fill="none" stroke="orange" stroke-dasharray="5,2" d="M291.51,-22.07C330.1,-7.25 397.82,11.71 450,-11.43 482.22,-25.71 506.69,-60.88 518.73,-81.22"/>
<polygon fill="orange" stroke="orange" points="289.88,-18.95 281.89,-25.91 292.47,-25.45 289.88,-18.95"/>
<text text-anchor="middle" x="392.5" y="-14.43" font-family="Helvetica,sans-Serif" font-size="10.00"> &lt; array_string_exprt &gt;</text>
</g>
<!-- Node13&#45;&gt;Node23 -->
<g id="edge25" class="edge">
<title>Node13&#45;&gt;Node23</title>
<path fill="none" stroke="orange" stroke-dasharray="5,2" d="M318.68,-31.18C366.85,-28.92 430.66,-29.34 450,-45.43 476.35,-67.35 444.89,-95.11 468,-120.43 472.01,-124.82 477.02,-128.25 482.42,-130.93"/>
<polygon fill="orange" stroke="orange" points="318.47,-27.68 308.66,-31.7 318.83,-34.67 318.47,-27.68"/>
<text text-anchor="middle" x="392.5" y="-48.43" font-family="Helvetica,sans-Serif" font-size="10.00"> &lt; exprt &gt;</text>
</g>
<!-- Node23&#45;&gt;Node1 -->
<g id="edge23" class="edge">
<title>Node23&#45;&gt;Node1</title>
<path fill="none" stroke="#9a32cd" stroke-dasharray="5,2" d="M596.48,-139.96C699.34,-139.89 901.41,-142.25 1072,-159.43 1101.06,-162.35 1133.03,-167.44 1159.92,-172.27"/>
<polygon fill="#9a32cd" stroke="#9a32cd" points="596.23,-136.46 586.24,-139.98 596.24,-143.46 596.23,-136.46"/>
<text text-anchor="middle" x="866" y="-151.43" font-family="Helvetica,sans-Serif" font-size="10.00"> args</text>
</g>
<!-- Node24 -->
<g id="node18" class="node">
<title>Node24</title>
<g id="a_node18"><a xlink:href="classfunction__application__exprt.html" target="_top" xlink:title="Application of (mathematical) function.">
<polygon fill="none" stroke="black" points="808,-363.43 808,-393.43 924,-393.43 924,-363.43 808,-363.43"/>
<text text-anchor="start" x="816" y="-381.43" font-family="Helvetica,sans-Serif" font-size="10.00">function_application</text>
<text text-anchor="middle" x="866" y="-370.43" font-family="Helvetica,sans-Serif" font-size="10.00">_exprt</text>
</a>
</g>
</g>
<!-- Node24&#45;&gt;Node1 -->
<g id="edge26" class="edge">
<title>Node24&#45;&gt;Node1</title>
<path fill="none" stroke="#9a32cd" stroke-dasharray="5,2" d="M921.89,-359.39C922.6,-359.07 923.3,-358.75 924,-358.43 1031.52,-308.68 1150.69,-231.8 1199.16,-199.51"/>
<polygon fill="#9a32cd" stroke="#9a32cd" points="920.28,-356.27 912.43,-363.38 923.01,-362.71 920.28,-356.27"/>
<text text-anchor="middle" x="1007" y="-349.43" font-family="Helvetica,sans-Serif" font-size="10.00"> function_application</text>
</g>
<!-- Node25 -->
<g id="node19" class="node">
<title>Node25</title>
<g id="a_node19"><a xlink:href="classbinary__exprt.html" target="_top" xlink:title="A base class for binary expressions.">
<polygon fill="none" stroke="black" points="489,-373.93 489,-392.93 567,-392.93 567,-373.93 489,-373.93"/>
<text text-anchor="middle" x="528" y="-380.93" font-family="Helvetica,sans-Serif" font-size="10.00">binary_exprt</text>
</a>
</g>
</g>
<!-- Node25&#45;&gt;Node24 -->
<g id="edge27" class="edge">
<title>Node25&#45;&gt;Node24</title>
<path fill="none" stroke="midnightblue" d="M577.34,-382.71C638.28,-381.8 742.9,-380.24 807.77,-379.28"/>
<polygon fill="midnightblue" stroke="midnightblue" points="577.16,-379.21 567.22,-382.86 577.27,-386.21 577.16,-379.21"/>
</g>
<!-- Node26&#45;&gt;Node25 -->
<g id="edge28" class="edge">
<title>Node26&#45;&gt;Node25</title>
<path fill="none" stroke="midnightblue" d="M317.35,-382.64C368.95,-382.83 443.94,-383.11 488.85,-383.28"/>
<polygon fill="midnightblue" stroke="midnightblue" points="317.04,-379.14 307.03,-382.6 317.02,-386.14 317.04,-379.14"/>
</g>
</g>
</svg>
