<?xml version="1.0" encoding="UTF-8" standalone="no"?>
<!DOCTYPE svg PUBLIC "-//W3C//DTD SVG 1.1//EN"
 "http://www.w3.org/Graphics/SVG/1.1/DTD/svg11.dtd">
<!-- Generated by graphviz version 2.43.0 (0)
 -->
<!-- Title: nullary_exprt Pages: 1 -->
<svg width="1216pt" height="572pt"
 viewBox="0.00 0.00 1216.00 572.00" xmlns="http://www.w3.org/2000/svg" xmlns:xlink="http://www.w3.org/1999/xlink">
<g id="graph0" class="graph" transform="scale(1 1) rotate(0) translate(4 568)">
<title>nullary_exprt</title>
<!-- Node1 -->
<g id="node1" class="node">
<title>Node1</title>
<g id="a_node1"><a xlink:title="An expression without operands.">
<polygon fill="#bfbfbf" stroke="black" points="767,-266.5 767,-285.5 848,-285.5 848,-266.5 767,-266.5"/>
<text text-anchor="middle" x="807.5" y="-273.5" font-family="Helvetica,sans-Serif" font-size="10.00">nullary_exprt</text>
</a>
</g>
</g>
<!-- Node7 -->
<g id="node7" class="node">
<title>Node7</title>
<g id="a_node7"><a xlink:href="classansi__c__declaratort.html" target="_top" xlink:title=" ">
<polygon fill="none" stroke="black" points="906.5,-544.5 906.5,-563.5 1012.5,-563.5 1012.5,-544.5 906.5,-544.5"/>
<text text-anchor="middle" x="959.5" y="-551.5" font-family="Helvetica,sans-Serif" font-size="10.00">ansi_c_declaratort</text>
</a>
</g>
</g>
<!-- Node1&#45;&gt;Node7 -->
<g id="edge6" class="edge">
<title>Node1&#45;&gt;Node7</title>
<path fill="none" stroke="midnightblue" d="M808.01,-295.57C807.94,-343.93 814.86,-469.88 885,-535 890.99,-540.56 898.39,-544.54 906.16,-547.38"/>
<polygon fill="midnightblue" stroke="midnightblue" points="811.51,-295.54 808.13,-285.5 804.51,-295.46 811.51,-295.54"/>
</g>
<!-- Node8 -->
<g id="node8" class="node">
<title>Node8</title>
<g id="a_node8"><a xlink:href="classclass__method__descriptor__exprt.html" target="_top" xlink:title="An expression describing a method on a class.">
<polygon fill="none" stroke="black" points="890.5,-495 890.5,-525 1028.5,-525 1028.5,-495 890.5,-495"/>
<text text-anchor="start" x="898.5" y="-513" font-family="Helvetica,sans-Serif" font-size="10.00">class_method_descriptor</text>
<text text-anchor="middle" x="959.5" y="-502" font-family="Helvetica,sans-Serif" font-size="10.00">_exprt</text>
</a>
</g>
</g>
<!-- Node1&#45;&gt;Node8 -->
<g id="edge7" class="edge">
<title>Node1&#45;&gt;Node8</title>
<path fill="none" stroke="midnightblue" d="M809.84,-295.72C813.75,-337.12 828.73,-433.49 885,-485 889.18,-488.82 893.96,-492.06 899.04,-494.81"/>
<polygon fill="midnightblue" stroke="midnightblue" points="813.32,-295.26 809.01,-285.59 806.34,-295.84 813.32,-295.26"/>
</g>
<!-- Node9 -->
<g id="node9" class="node">
<title>Node9</title>
<g id="a_node9"><a xlink:href="classconstant__exprt.html" target="_top" xlink:title="A constant literal expression.">
<polygon fill="none" stroke="black" points="915,-456.5 915,-475.5 1004,-475.5 1004,-456.5 915,-456.5"/>
<text text-anchor="middle" x="959.5" y="-463.5" font-family="Helvetica,sans-Serif" font-size="10.00">constant_exprt</text>
</a>
</g>
</g>
<!-- Node1&#45;&gt;Node9 -->
<g id="edge8" class="edge">
<title>Node1&#45;&gt;Node9</title>
<path fill="none" stroke="midnightblue" d="M811.53,-295.61C818.13,-331.38 837.21,-407.16 885,-447 893.4,-454 904.08,-458.46 914.68,-461.29"/>
<polygon fill="midnightblue" stroke="midnightblue" points="814.94,-294.78 809.81,-285.51 808.04,-295.95 814.94,-294.78"/>
</g>
<!-- Node13 -->
<g id="node13" class="node">
<title>Node13</title>
<g id="a_node13"><a xlink:href="classempty__union__exprt.html" target="_top" xlink:title="Union constructor to support unions without any member (a GCC/Clang feature).">
<polygon fill="none" stroke="black" points="904,-418.5 904,-437.5 1015,-437.5 1015,-418.5 904,-418.5"/>
<text text-anchor="middle" x="959.5" y="-425.5" font-family="Helvetica,sans-Serif" font-size="10.00">empty_union_exprt</text>
</a>
</g>
</g>
<!-- Node1&#45;&gt;Node13 -->
<g id="edge12" class="edge">
<title>Node1&#45;&gt;Node13</title>
<path fill="none" stroke="midnightblue" d="M814.35,-295.66C824.09,-324.93 846.48,-379.66 885,-409 890.56,-413.23 896.96,-416.53 903.63,-419.09"/>
<polygon fill="midnightblue" stroke="midnightblue" points="817.58,-294.27 811.23,-285.79 810.91,-296.38 817.58,-294.27"/>
</g>
<!-- Node14 -->
<g id="node14" class="node">
<title>Node14</title>
<g id="a_node14"><a xlink:href="classinfinity__exprt.html" target="_top" xlink:title="An expression denoting infinity.">
<polygon fill="none" stroke="black" points="919,-380.5 919,-399.5 1000,-399.5 1000,-380.5 919,-380.5"/>
<text text-anchor="middle" x="959.5" y="-387.5" font-family="Helvetica,sans-Serif" font-size="10.00">infinity_exprt</text>
</a>
</g>
</g>
<!-- Node1&#45;&gt;Node14 -->
<g id="edge13" class="edge">
<title>Node1&#45;&gt;Node14</title>
<path fill="none" stroke="midnightblue" d="M818.36,-294.37C830.95,-316.01 854.75,-351.49 885,-371 895.08,-377.5 907.28,-381.78 918.82,-384.6"/>
<polygon fill="midnightblue" stroke="midnightblue" points="821.34,-292.51 813.39,-285.5 815.23,-295.94 821.34,-292.51"/>
</g>
<!-- Node15 -->
<g id="node15" class="node">
<title>Node15</title>
<g id="a_node15"><a xlink:href="classliteral__vector__exprt.html" target="_top" xlink:title=" ">
<polygon fill="none" stroke="black" points="903.5,-342.5 903.5,-361.5 1015.5,-361.5 1015.5,-342.5 903.5,-342.5"/>
<text text-anchor="middle" x="959.5" y="-349.5" font-family="Helvetica,sans-Serif" font-size="10.00">literal_vector_exprt</text>
</a>
</g>
</g>
<!-- Node1&#45;&gt;Node15 -->
<g id="edge14" class="edge">
<title>Node1&#45;&gt;Node15</title>
<path fill="none" stroke="midnightblue" d="M826.32,-292.45C841.04,-305.22 863.02,-322.47 885,-333 892.96,-336.81 901.79,-339.93 910.49,-342.46"/>
<polygon fill="midnightblue" stroke="midnightblue" points="828.34,-289.56 818.54,-285.53 823.69,-294.79 828.34,-289.56"/>
</g>
<!-- Node16 -->
<g id="node16" class="node">
<title>Node16</title>
<g id="a_node16"><a xlink:href="classmax__value__exprt.html" target="_top" xlink:title="+∞ upper bound for intervals">
<polygon fill="none" stroke="black" points="909,-304.5 909,-323.5 1010,-323.5 1010,-304.5 909,-304.5"/>
<text text-anchor="middle" x="959.5" y="-311.5" font-family="Helvetica,sans-Serif" font-size="10.00">max_value_exprt</text>
</a>
</g>
</g>
<!-- Node1&#45;&gt;Node16 -->
<g id="edge15" class="edge">
<title>Node1&#45;&gt;Node16</title>
<path fill="none" stroke="midnightblue" d="M856.31,-288.11C877.2,-293.4 901.35,-299.52 920.92,-304.48"/>
<polygon fill="midnightblue" stroke="midnightblue" points="856.9,-284.65 846.35,-285.59 855.19,-291.44 856.9,-284.65"/>
</g>
<!-- Node17 -->
<g id="node17" class="node">
<title>Node17</title>
<g id="a_node17"><a xlink:href="classmin__value__exprt.html" target="_top" xlink:title="&#45;∞ upper bound for intervals">
<polygon fill="none" stroke="black" points="910.5,-266.5 910.5,-285.5 1008.5,-285.5 1008.5,-266.5 910.5,-266.5"/>
<text text-anchor="middle" x="959.5" y="-273.5" font-family="Helvetica,sans-Serif" font-size="10.00">min_value_exprt</text>
</a>
</g>
</g>
<!-- Node1&#45;&gt;Node17 -->
<g id="edge16" class="edge">
<title>Node1&#45;&gt;Node17</title>
<path fill="none" stroke="midnightblue" d="M858.46,-276C875.23,-276 893.88,-276 910.49,-276"/>
<polygon fill="midnightblue" stroke="midnightblue" points="858.3,-272.5 848.3,-276 858.3,-279.5 858.3,-272.5"/>
</g>
<!-- Node18 -->
<g id="node18" class="node">
<title>Node18</title>
<g id="a_node18"><a xlink:href="classnil__exprt.html" target="_top" xlink:title="The NIL expression.">
<polygon fill="none" stroke="black" points="930,-228.5 930,-247.5 989,-247.5 989,-228.5 930,-228.5"/>
<text text-anchor="middle" x="959.5" y="-235.5" font-family="Helvetica,sans-Serif" font-size="10.00">nil_exprt</text>
</a>
</g>
</g>
<!-- Node1&#45;&gt;Node18 -->
<g id="edge17" class="edge">
<title>Node1&#45;&gt;Node18</title>
<path fill="none" stroke="midnightblue" d="M856.06,-263.95C880.24,-257.83 908.83,-250.58 929.66,-245.31"/>
<polygon fill="midnightblue" stroke="midnightblue" points="855.19,-260.56 846.35,-266.41 856.9,-267.35 855.19,-260.56"/>
</g>
<!-- Node19 -->
<g id="node19" class="node">
<title>Node19</title>
<g id="a_node19"><a xlink:href="classnondet__symbol__exprt.html" target="_top" xlink:title="Expression to hold a nondeterministic choice.">
<polygon fill="none" stroke="black" points="898.5,-190.5 898.5,-209.5 1020.5,-209.5 1020.5,-190.5 898.5,-190.5"/>
<text text-anchor="middle" x="959.5" y="-197.5" font-family="Helvetica,sans-Serif" font-size="10.00">nondet_symbol_exprt</text>
</a>
</g>
</g>
<!-- Node1&#45;&gt;Node19 -->
<g id="edge18" class="edge">
<title>Node1&#45;&gt;Node19</title>
<path fill="none" stroke="midnightblue" d="M826.32,-259.55C841.04,-246.78 863.02,-229.53 885,-219 892.96,-215.19 901.79,-212.07 910.49,-209.54"/>
<polygon fill="midnightblue" stroke="midnightblue" points="823.69,-257.21 818.54,-266.47 828.34,-262.44 823.69,-257.21"/>
</g>
<!-- Node20 -->
<g id="node20" class="node">
<title>Node20</title>
<g id="a_node20"><a xlink:href="classobject__address__exprt.html" target="_top" xlink:title="Operator to return the address of an object.">
<polygon fill="none" stroke="black" points="899,-152.5 899,-171.5 1020,-171.5 1020,-152.5 899,-152.5"/>
<text text-anchor="middle" x="959.5" y="-159.5" font-family="Helvetica,sans-Serif" font-size="10.00">object_address_exprt</text>
</a>
</g>
</g>
<!-- Node1&#45;&gt;Node20 -->
<g id="edge19" class="edge">
<title>Node1&#45;&gt;Node20</title>
<path fill="none" stroke="midnightblue" d="M818.36,-257.63C830.95,-235.99 854.75,-200.51 885,-181 890.98,-177.14 897.71,-174.07 904.6,-171.61"/>
<polygon fill="midnightblue" stroke="midnightblue" points="815.23,-256.06 813.39,-266.5 821.34,-259.49 815.23,-256.06"/>
</g>
<!-- Node21 -->
<g id="node21" class="node">
<title>Node21</title>
<g id="a_node21"><a xlink:href="classsmt2__convt_1_1smt2__symbolt.html" target="_top" xlink:title=" ">
<polygon fill="none" stroke="black" points="885,-114.5 885,-133.5 1034,-133.5 1034,-114.5 885,-114.5"/>
<text text-anchor="middle" x="959.5" y="-121.5" font-family="Helvetica,sans-Serif" font-size="10.00">smt2_convt::smt2_symbolt</text>
</a>
</g>
</g>
<!-- Node1&#45;&gt;Node21 -->
<g id="edge20" class="edge">
<title>Node1&#45;&gt;Node21</title>
<path fill="none" stroke="midnightblue" d="M814.35,-256.34C824.09,-227.07 846.48,-172.34 885,-143 890.14,-139.09 896,-135.98 902.12,-133.5"/>
<polygon fill="midnightblue" stroke="midnightblue" points="810.91,-255.62 811.23,-266.21 817.58,-257.73 810.91,-255.62"/>
</g>
<!-- Node22 -->
<g id="node22" class="node">
<title>Node22</title>
<g id="a_node22"><a xlink:href="classstring__constantt.html" target="_top" xlink:title=" ">
<polygon fill="none" stroke="black" points="912,-76.5 912,-95.5 1007,-95.5 1007,-76.5 912,-76.5"/>
<text text-anchor="middle" x="959.5" y="-83.5" font-family="Helvetica,sans-Serif" font-size="10.00">string_constantt</text>
</a>
</g>
</g>
<!-- Node1&#45;&gt;Node22 -->
<g id="edge21" class="edge">
<title>Node1&#45;&gt;Node22</title>
<path fill="none" stroke="midnightblue" d="M811.68,-255.94C818.44,-220.07 837.7,-144.96 885,-105 892.65,-98.54 902.24,-94.23 911.94,-91.38"/>
<polygon fill="midnightblue" stroke="midnightblue" points="808.17,-255.66 809.9,-266.11 815.07,-256.86 808.17,-255.66"/>
</g>
<!-- Node23 -->
<g id="node23" class="node">
<title>Node23</title>
<g id="a_node23"><a xlink:href="classsymbol__exprt.html" target="_top" xlink:title="Expression to hold a symbol (variable)">
<polygon fill="none" stroke="black" points="918,-38.5 918,-57.5 1001,-57.5 1001,-38.5 918,-38.5"/>
<text text-anchor="middle" x="959.5" y="-45.5" font-family="Helvetica,sans-Serif" font-size="10.00">symbol_exprt</text>
</a>
</g>
</g>
<!-- Node1&#45;&gt;Node23 -->
<g id="edge22" class="edge">
<title>Node1&#45;&gt;Node23</title>
<path fill="none" stroke="midnightblue" d="M809.81,-256.24C813.64,-214.76 828.48,-118.24 885,-67 893.98,-58.86 906,-54.11 917.72,-51.38"/>
<polygon fill="midnightblue" stroke="midnightblue" points="806.3,-256.14 808.99,-266.39 813.28,-256.7 806.3,-256.14"/>
</g>
<!-- Node26 -->
<g id="node26" class="node">
<title>Node26</title>
<g id="a_node26"><a xlink:href="classtype__exprt.html" target="_top" xlink:title="An expression denoting a type.">
<polygon fill="none" stroke="black" points="925,-0.5 925,-19.5 994,-19.5 994,-0.5 925,-0.5"/>
<text text-anchor="middle" x="959.5" y="-7.5" font-family="Helvetica,sans-Serif" font-size="10.00">type_exprt</text>
</a>
</g>
</g>
<!-- Node1&#45;&gt;Node26 -->
<g id="edge25" class="edge">
<title>Node1&#45;&gt;Node26</title>
<path fill="none" stroke="midnightblue" d="M808.35,-256.4C809.12,-209.57 817.94,-90.56 885,-29 895.78,-19.11 911.03,-14.22 924.84,-11.86"/>
<polygon fill="midnightblue" stroke="midnightblue" points="804.85,-256.41 808.3,-266.43 811.85,-256.45 804.85,-256.41"/>
</g>
<!-- Node2 -->
<g id="node2" class="node">
<title>Node2</title>
<g id="a_node2"><a xlink:href="classexpr__protectedt.html" target="_top" xlink:title="Base class for all expressions.">
<polygon fill="none" stroke="black" points="636,-266.5 636,-285.5 730,-285.5 730,-266.5 636,-266.5"/>
<text text-anchor="middle" x="683" y="-273.5" font-family="Helvetica,sans-Serif" font-size="10.00">expr_protectedt</text>
</a>
</g>
</g>
<!-- Node2&#45;&gt;Node1 -->
<g id="edge1" class="edge">
<title>Node2&#45;&gt;Node1</title>
<path fill="none" stroke="midnightblue" d="M740.35,-276C749.33,-276 758.45,-276 766.93,-276"/>
<polygon fill="midnightblue" stroke="midnightblue" points="740.31,-272.5 730.31,-276 740.31,-279.5 740.31,-272.5"/>
</g>
<!-- Node3 -->
<g id="node3" class="node">
<title>Node3</title>
<g id="a_node3"><a xlink:href="classexprt.html" target="_top" xlink:title="Base class for all expressions.">
<polygon fill="none" stroke="black" points="557,-266.5 557,-285.5 599,-285.5 599,-266.5 557,-266.5"/>
<text text-anchor="middle" x="578" y="-273.5" font-family="Helvetica,sans-Serif" font-size="10.00">exprt</text>
</a>
</g>
</g>
<!-- Node3&#45;&gt;Node2 -->
<g id="edge2" class="edge">
<title>Node3&#45;&gt;Node2</title>
<path fill="none" stroke="midnightblue" d="M609.56,-276C617.77,-276 626.84,-276 635.7,-276"/>
<polygon fill="midnightblue" stroke="midnightblue" points="609.35,-272.5 599.35,-276 609.35,-279.5 609.35,-272.5"/>
</g>
<!-- Node4 -->
<g id="node4" class="node">
<title>Node4</title>
<g id="a_node4"><a xlink:href="classirept.html" target="_top" xlink:title="There are a large number of kinds of tree structured or tree&#45;like data in CPROVER.">
<polygon fill="none" stroke="black" points="481,-266.5 481,-285.5 520,-285.5 520,-266.5 481,-266.5"/>
<text text-anchor="middle" x="500.5" y="-273.5" font-family="Helvetica,sans-Serif" font-size="10.00">irept</text>
</a>
</g>
</g>
<!-- Node4&#45;&gt;Node3 -->
<g id="edge3" class="edge">
<title>Node4&#45;&gt;Node3</title>
<path fill="none" stroke="midnightblue" d="M530.18,-276C539.11,-276 548.76,-276 556.97,-276"/>
<polygon fill="midnightblue" stroke="midnightblue" points="530.16,-272.5 520.16,-276 530.16,-279.5 530.16,-272.5"/>
</g>
<!-- Node5 -->
<g id="node5" class="node">
<title>Node5</title>
<g id="a_node5"><a xlink:href="classsharing__treet.html" target="_top" xlink:title=" ">
<polygon fill="none" stroke="black" points="319,-255.5 319,-296.5 444,-296.5 444,-255.5 319,-255.5"/>
<text text-anchor="start" x="327" y="-284.5" font-family="Helvetica,sans-Serif" font-size="10.00">sharing_treet&lt; irept,</text>
<text text-anchor="start" x="327" y="-273.5" font-family="Helvetica,sans-Serif" font-size="10.00"> forward_list_as_mapt</text>
<text text-anchor="middle" x="381.5" y="-262.5" font-family="Helvetica,sans-Serif" font-size="10.00">&lt; irep_idt, irept &gt; &gt;</text>
</a>
</g>
</g>
<!-- Node5&#45;&gt;Node4 -->
<g id="edge4" class="edge">
<title>Node5&#45;&gt;Node4</title>
<path fill="none" stroke="midnightblue" d="M454.38,-276C464.13,-276 473.35,-276 480.89,-276"/>
<polygon fill="midnightblue" stroke="midnightblue" points="454.08,-272.5 444.08,-276 454.08,-279.5 454.08,-272.5"/>
</g>
<!-- Node6 -->
<g id="node6" class="node">
<title>Node6</title>
<g id="a_node6"><a xlink:href="classsharing__treet.html" target="_top" xlink:title="Base class for tree&#45;like data structures with sharing.">
<polygon fill="none" stroke="black" points="0,-261 0,-291 136,-291 136,-261 0,-261"/>
<text text-anchor="start" x="8" y="-279" font-family="Helvetica,sans-Serif" font-size="10.00">sharing_treet&lt; derivedt,</text>
<text text-anchor="middle" x="68" y="-268" font-family="Helvetica,sans-Serif" font-size="10.00"> named_subtreest &gt;</text>
</a>
</g>
</g>
<!-- Node6&#45;&gt;Node5 -->
<g id="edge5" class="edge">
<title>Node6&#45;&gt;Node5</title>
<path fill="none" stroke="orange" stroke-dasharray="5,2" d="M146.29,-276C199.58,-276 269.45,-276 318.96,-276"/>
<polygon fill="orange" stroke="orange" points="146.21,-272.5 136.21,-276 146.21,-279.5 146.21,-272.5"/>
<text text-anchor="start" x="154" y="-290" font-family="Helvetica,sans-Serif" font-size="10.00"> &lt; irept, forward_list</text>
<text text-anchor="middle" x="227.5" y="-279" font-family="Helvetica,sans-Serif" font-size="10.00">_as_mapt&lt; irep_idt, irept &gt; &gt;</text>
</g>
<!-- Node10 -->
<g id="node10" class="node">
<title>Node10</title>
<g id="a_node10"><a xlink:href="classfalse__exprt.html" target="_top" xlink:title="The Boolean constant false.">
<polygon fill="none" stroke="black" points="1104,-494.5 1104,-513.5 1175,-513.5 1175,-494.5 1104,-494.5"/>
<text text-anchor="middle" x="1139.5" y="-501.5" font-family="Helvetica,sans-Serif" font-size="10.00">false_exprt</text>
</a>
</g>
</g>
<!-- Node9&#45;&gt;Node10 -->
<g id="edge9" class="edge">
<title>Node9&#45;&gt;Node10</title>
<path fill="none" stroke="midnightblue" d="M1014.05,-477.43C1043.13,-483.64 1078.24,-491.14 1103.74,-496.58"/>
<polygon fill="midnightblue" stroke="midnightblue" points="1014.55,-473.96 1004.04,-475.3 1013.09,-480.81 1014.55,-473.96"/>
</g>
<!-- Node11 -->
<g id="node11" class="node">
<title>Node11</title>
<g id="a_node11"><a xlink:href="classnull__pointer__exprt.html" target="_top" xlink:title="The null pointer constant.">
<polygon fill="none" stroke="black" points="1087,-456.5 1087,-475.5 1192,-475.5 1192,-456.5 1087,-456.5"/>
<text text-anchor="middle" x="1139.5" y="-463.5" font-family="Helvetica,sans-Serif" font-size="10.00">null_pointer_exprt</text>
</a>
</g>
</g>
<!-- Node9&#45;&gt;Node11 -->
<g id="edge10" class="edge">
<title>Node9&#45;&gt;Node11</title>
<path fill="none" stroke="midnightblue" d="M1014.33,-466C1037.34,-466 1064.1,-466 1086.87,-466"/>
<polygon fill="midnightblue" stroke="midnightblue" points="1014.04,-462.5 1004.04,-466 1014.04,-469.5 1014.04,-462.5"/>
</g>
<!-- Node12 -->
<g id="node12" class="node">
<title>Node12</title>
<g id="a_node12"><a xlink:href="classtrue__exprt.html" target="_top" xlink:title="The Boolean constant true.">
<polygon fill="none" stroke="black" points="1106,-418.5 1106,-437.5 1173,-437.5 1173,-418.5 1106,-418.5"/>
<text text-anchor="middle" x="1139.5" y="-425.5" font-family="Helvetica,sans-Serif" font-size="10.00">true_exprt</text>
</a>
</g>
</g>
<!-- Node9&#45;&gt;Node12 -->
<g id="edge11" class="edge">
<title>Node9&#45;&gt;Node12</title>
<path fill="none" stroke="midnightblue" d="M1013.9,-454.6C1043.77,-448.22 1080.04,-440.48 1105.73,-435"/>
<polygon fill="midnightblue" stroke="midnightblue" points="1013.09,-451.19 1004.04,-456.7 1014.55,-458.04 1013.09,-451.19"/>
</g>
<!-- Node24 -->
<g id="node24" class="node">
<title>Node24</title>
<g id="a_node24"><a xlink:href="classdecorated__symbol__exprt.html" target="_top" xlink:title="Expression to hold a symbol (variable) with extra accessors to ID_c_static_lifetime and ID_C_thread_l...">
<polygon fill="none" stroke="black" points="1071,-57.5 1071,-76.5 1208,-76.5 1208,-57.5 1071,-57.5"/>
<text text-anchor="middle" x="1139.5" y="-64.5" font-family="Helvetica,sans-Serif" font-size="10.00">decorated_symbol_exprt</text>
</a>
</g>
</g>
<!-- Node23&#45;&gt;Node24 -->
<g id="edge23" class="edge">
<title>Node23&#45;&gt;Node24</title>
<path fill="none" stroke="midnightblue" d="M1011.34,-53.43C1029.91,-55.41 1051.2,-57.68 1070.99,-59.79"/>
<polygon fill="midnightblue" stroke="midnightblue" points="1011.65,-49.94 1001.34,-52.36 1010.91,-56.9 1011.65,-49.94"/>
</g>
<!-- Node25 -->
<g id="node25" class="node">
<title>Node25</title>
<g id="a_node25"><a xlink:href="classssa__exprt.html" target="_top" xlink:title="Expression providing an SSA&#45;renamed symbol of expressions.">
<polygon fill="none" stroke="black" points="1107.5,-19.5 1107.5,-38.5 1171.5,-38.5 1171.5,-19.5 1107.5,-19.5"/>
<text text-anchor="middle" x="1139.5" y="-26.5" font-family="Helvetica,sans-Serif" font-size="10.00">ssa_exprt</text>
</a>
</g>
</g>
<!-- Node23&#45;&gt;Node25 -->
<g id="edge24" class="edge">
<title>Node23&#45;&gt;Node25</title>
<path fill="none" stroke="midnightblue" d="M1011.5,-42.56C1042.41,-39.26 1080.84,-35.15 1107.29,-32.33"/>
<polygon fill="midnightblue" stroke="midnightblue" points="1010.91,-39.1 1001.34,-43.64 1011.65,-46.06 1010.91,-39.1"/>
</g>
</g>
</svg>
