<?xml version="1.0" encoding="UTF-8" standalone="no"?>
<!DOCTYPE svg PUBLIC "-//W3C//DTD SVG 1.1//EN"
 "http://www.w3.org/Graphics/SVG/1.1/DTD/svg11.dtd">
<!-- Generated by graphviz version 2.43.0 (0)
 -->
<!-- Title: goto_program_dereferencet Pages: 1 -->
<svg width="1662pt" height="469pt"
 viewBox="0.00 0.00 1662.00 468.50" xmlns="http://www.w3.org/2000/svg" xmlns:xlink="http://www.w3.org/1999/xlink">
<g id="graph0" class="graph" transform="scale(1 1) rotate(0) translate(4 464.5)">
<title>goto_program_dereferencet</title>
<!-- Node1 -->
<g id="node1" class="node">
<title>Node1</title>
<g id="a_node1"><a xlink:title="Wrapper for functions removing dereferences in expressions contained in a goto program.">
<polygon fill="#bfbfbf" stroke="black" points="1502,-196.5 1502,-215.5 1654,-215.5 1654,-196.5 1502,-196.5"/>
<text text-anchor="middle" x="1578" y="-203.5" font-family="Helvetica,sans-Serif" font-size="10.00">goto_program_dereferencet</text>
</a>
</g>
</g>
<!-- Node2 -->
<g id="node2" class="node">
<title>Node2</title>
<g id="a_node2"><a xlink:href="classdereference__callbackt.html" target="_top" xlink:title="Base class for pointer value set analysis.">
<polygon fill="none" stroke="black" points="1004,-28.5 1004,-47.5 1129,-47.5 1129,-28.5 1004,-28.5"/>
<text text-anchor="middle" x="1066.5" y="-35.5" font-family="Helvetica,sans-Serif" font-size="10.00">dereference_callbackt</text>
</a>
</g>
</g>
<!-- Node2&#45;&gt;Node1 -->
<g id="edge1" class="edge">
<title>Node2&#45;&gt;Node1</title>
<path fill="none" stroke="darkgreen" d="M1139.4,-37.46C1174.71,-38.68 1217.59,-42.39 1255,-52 1381.64,-84.52 1518.27,-168.05 1562.39,-196.41"/>
<polygon fill="darkgreen" stroke="darkgreen" points="1139.28,-33.95 1129.18,-37.17 1139.08,-40.95 1139.28,-33.95"/>
</g>
<!-- Node13 -->
<g id="node13" class="node">
<title>Node13</title>
<g id="a_node13"><a xlink:href="classvalue__set__dereferencet.html" target="_top" xlink:title="Wrapper for a function dereferencing pointer expressions using a value set.">
<polygon fill="none" stroke="black" points="1273,-129.5 1273,-148.5 1404,-148.5 1404,-129.5 1273,-129.5"/>
<text text-anchor="middle" x="1338.5" y="-136.5" font-family="Helvetica,sans-Serif" font-size="10.00">value_set_dereferencet</text>
</a>
</g>
</g>
<!-- Node2&#45;&gt;Node13 -->
<g id="edge33" class="edge">
<title>Node2&#45;&gt;Node13</title>
<path fill="none" stroke="#9a32cd" stroke-dasharray="5,2" d="M1138.42,-49.12C1186.9,-57.01 1244.24,-67.06 1255,-72 1285.85,-86.18 1314.97,-114.59 1328.91,-129.45"/>
<polygon fill="#9a32cd" stroke="#9a32cd" points="1138.98,-45.66 1128.55,-47.52 1137.86,-52.57 1138.98,-45.66"/>
<text text-anchor="middle" x="1201" y="-75" font-family="Helvetica,sans-Serif" font-size="10.00"> dereference_callback</text>
</g>
<!-- Node3 -->
<g id="node3" class="node">
<title>Node3</title>
<g id="a_node3"><a xlink:href="classoptionst.html" target="_top" xlink:title=" ">
<polygon fill="none" stroke="black" points="1038.5,-328.5 1038.5,-347.5 1094.5,-347.5 1094.5,-328.5 1038.5,-328.5"/>
<text text-anchor="middle" x="1066.5" y="-335.5" font-family="Helvetica,sans-Serif" font-size="10.00">optionst</text>
</a>
</g>
</g>
<!-- Node3&#45;&gt;Node1 -->
<g id="edge2" class="edge">
<title>Node3&#45;&gt;Node1</title>
<path fill="none" stroke="#9a32cd" stroke-dasharray="5,2" d="M1104.7,-339.3C1180.61,-340.38 1356.95,-334.83 1484,-268 1514.4,-252.01 1547.22,-228.49 1564.58,-215.5"/>
<polygon fill="#9a32cd" stroke="#9a32cd" points="1104.73,-335.8 1094.66,-339.1 1104.6,-342.79 1104.73,-335.8"/>
<text text-anchor="middle" x="1338.5" y="-331" font-family="Helvetica,sans-Serif" font-size="10.00"> options</text>
</g>
<!-- Node4 -->
<g id="node4" class="node">
<title>Node4</title>
<g id="a_node4"><a xlink:title=" ">
<polygon fill="none" stroke="#bfbfbf" points="739,-375 739,-405 861,-405 861,-375 739,-375"/>
<text text-anchor="start" x="747" y="-393" font-family="Helvetica,sans-Serif" font-size="10.00">std::map&lt; std::string,</text>
<text text-anchor="middle" x="800" y="-382" font-family="Helvetica,sans-Serif" font-size="10.00"> value_listt &gt;</text>
</a>
</g>
</g>
<!-- Node4&#45;&gt;Node3 -->
<g id="edge3" class="edge">
<title>Node4&#45;&gt;Node3</title>
<path fill="none" stroke="#9a32cd" stroke-dasharray="5,2" d="M871.04,-376.23C925.92,-365.44 999.32,-351.01 1038.37,-343.33"/>
<polygon fill="#9a32cd" stroke="#9a32cd" points="870.16,-372.84 861.02,-378.2 871.51,-379.71 870.16,-372.84"/>
<text text-anchor="middle" x="932.5" y="-377" font-family="Helvetica,sans-Serif" font-size="10.00"> option_map</text>
</g>
<!-- Node5 -->
<g id="node5" class="node">
<title>Node5</title>
<g id="a_node5"><a xlink:title=" ">
<polygon fill="none" stroke="#bfbfbf" points="219.5,-435.5 219.5,-454.5 284.5,-454.5 284.5,-435.5 219.5,-435.5"/>
<text text-anchor="middle" x="252" y="-442.5" font-family="Helvetica,sans-Serif" font-size="10.00">std::string</text>
</a>
</g>
</g>
<!-- Node5&#45;&gt;Node4 -->
<g id="edge4" class="edge">
<title>Node5&#45;&gt;Node4</title>
<path fill="none" stroke="#9a32cd" stroke-dasharray="5,2" d="M294.86,-443.39C377,-439.79 564.9,-429.42 721,-405 726.72,-404.1 732.67,-403.1 738.61,-402.04"/>
<polygon fill="#9a32cd" stroke="#9a32cd" points="294.52,-439.9 284.68,-443.82 294.82,-446.89 294.52,-439.9"/>
<text text-anchor="middle" x="527" y="-436" font-family="Helvetica,sans-Serif" font-size="10.00"> keys</text>
</g>
<!-- Node7 -->
<g id="node7" class="node">
<title>Node7</title>
<g id="a_node7"><a xlink:title=" ">
<polygon fill="none" stroke="#bfbfbf" points="465,-335.5 465,-354.5 589,-354.5 589,-335.5 465,-335.5"/>
<text text-anchor="middle" x="527" y="-342.5" font-family="Helvetica,sans-Serif" font-size="10.00">std::list&lt; std::string &gt;</text>
</a>
</g>
</g>
<!-- Node5&#45;&gt;Node7 -->
<g id="edge7" class="edge">
<title>Node5&#45;&gt;Node7</title>
<path fill="none" stroke="#9a32cd" stroke-dasharray="5,2" d="M288.64,-431.95C344.34,-411.54 450.74,-372.57 499.9,-354.56"/>
<polygon fill="#9a32cd" stroke="#9a32cd" points="287.36,-428.69 279.18,-435.41 289.77,-435.26 287.36,-428.69"/>
<text text-anchor="middle" x="386" y="-418" font-family="Helvetica,sans-Serif" font-size="10.00"> elements</text>
</g>
<!-- Node6 -->
<g id="node6" class="node">
<title>Node6</title>
<g id="a_node6"><a xlink:title=" ">
<polygon fill="none" stroke="#bfbfbf" points="0,-430 0,-460 104,-460 104,-430 0,-430"/>
<text text-anchor="start" x="8" y="-448" font-family="Helvetica,sans-Serif" font-size="10.00">std::basic_string&lt;</text>
<text text-anchor="middle" x="52" y="-437" font-family="Helvetica,sans-Serif" font-size="10.00"> Char &gt;</text>
</a>
</g>
</g>
<!-- Node6&#45;&gt;Node5 -->
<g id="edge5" class="edge">
<title>Node6&#45;&gt;Node5</title>
<path fill="none" stroke="midnightblue" d="M114.32,-445C149.14,-445 191.25,-445 219.45,-445"/>
<polygon fill="midnightblue" stroke="midnightblue" points="114.25,-441.5 104.25,-445 114.25,-448.5 114.25,-441.5"/>
</g>
<!-- Node7&#45;&gt;Node3 -->
<g id="edge13" class="edge">
<title>Node7&#45;&gt;Node3</title>
<path fill="none" stroke="#9a32cd" stroke-dasharray="5,2" d="M599.36,-344.07C719.83,-342.5 958.26,-339.4 1038.46,-338.35"/>
<polygon fill="#9a32cd" stroke="#9a32cd" points="599.09,-340.57 589.13,-344.2 599.18,-347.57 599.09,-340.57"/>
<text text-anchor="middle" x="800" y="-345" font-family="Helvetica,sans-Serif" font-size="10.00"> empty_list</text>
</g>
<!-- Node7&#45;&gt;Node4 -->
<g id="edge6" class="edge">
<title>Node7&#45;&gt;Node4</title>
<path fill="none" stroke="#9a32cd" stroke-dasharray="5,2" d="M599.14,-353.43C635.68,-358.15 680.86,-364.58 721,-372 726.74,-373.06 732.7,-374.26 738.64,-375.52"/>
<polygon fill="#9a32cd" stroke="#9a32cd" points="599.43,-349.94 589.07,-352.15 598.54,-356.89 599.43,-349.94"/>
<text text-anchor="middle" x="668" y="-375" font-family="Helvetica,sans-Serif" font-size="10.00"> elements</text>
</g>
<!-- Node8 -->
<g id="node8" class="node">
<title>Node8</title>
<g id="a_node8"><a xlink:title=" ">
<polygon fill="none" stroke="#bfbfbf" points="211.5,-298.5 211.5,-317.5 292.5,-317.5 292.5,-298.5 211.5,-298.5"/>
<text text-anchor="middle" x="252" y="-305.5" font-family="Helvetica,sans-Serif" font-size="10.00">std::list&lt; T &gt;</text>
</a>
</g>
</g>
<!-- Node8&#45;&gt;Node7 -->
<g id="edge8" class="edge">
<title>Node8&#45;&gt;Node7</title>
<path fill="none" stroke="orange" stroke-dasharray="5,2" d="M302.64,-314.73C348.22,-320.91 415.9,-330.08 464.81,-336.71"/>
<polygon fill="orange" stroke="orange" points="303.08,-311.25 292.7,-313.38 302.14,-318.19 303.08,-311.25"/>
<text text-anchor="middle" x="386" y="-336" font-family="Helvetica,sans-Serif" font-size="10.00"> &lt; std::string &gt;</text>
</g>
<!-- Node25 -->
<g id="node25" class="node">
<title>Node25</title>
<g id="a_node25"><a xlink:title=" ">
<polygon fill="none" stroke="#bfbfbf" points="461.5,-282.5 461.5,-301.5 592.5,-301.5 592.5,-282.5 461.5,-282.5"/>
<text text-anchor="middle" x="527" y="-289.5" font-family="Helvetica,sans-Serif" font-size="10.00">std::list&lt; instructiont &gt;</text>
</a>
</g>
</g>
<!-- Node8&#45;&gt;Node25 -->
<g id="edge39" class="edge">
<title>Node8&#45;&gt;Node25</title>
<path fill="none" stroke="orange" stroke-dasharray="5,2" d="M302.99,-302.55C312.93,-301.59 323.29,-300.69 333,-300 375.65,-296.99 423.69,-294.99 461.17,-293.75"/>
<polygon fill="orange" stroke="orange" points="302.45,-299.09 292.84,-303.55 303.14,-306.05 302.45,-299.09"/>
<text text-anchor="middle" x="386" y="-303" font-family="Helvetica,sans-Serif" font-size="10.00"> &lt; instructiont &gt;</text>
</g>
<!-- Node9 -->
<g id="node9" class="node">
<title>Node9</title>
<g id="a_node9"><a xlink:title=" ">
<polygon fill="none" stroke="#bfbfbf" points="37.5,-254.5 37.5,-273.5 66.5,-273.5 66.5,-254.5 37.5,-254.5"/>
<text text-anchor="middle" x="52" y="-261.5" font-family="Helvetica,sans-Serif" font-size="10.00">T</text>
</a>
</g>
</g>
<!-- Node9&#45;&gt;Node8 -->
<g id="edge9" class="edge">
<title>Node9&#45;&gt;Node8</title>
<path fill="none" stroke="#9a32cd" stroke-dasharray="5,2" d="M76.78,-269.29C110.12,-276.69 171.17,-290.26 211.42,-299.2"/>
<polygon fill="#9a32cd" stroke="#9a32cd" points="77.13,-265.78 66.61,-267.02 75.61,-272.61 77.13,-265.78"/>
<text text-anchor="middle" x="146.5" y="-292" font-family="Helvetica,sans-Serif" font-size="10.00"> elements</text>
</g>
<!-- Node10 -->
<g id="node10" class="node">
<title>Node10</title>
<g id="a_node10"><a xlink:title=" ">
<polygon fill="none" stroke="#bfbfbf" points="201.5,-387.5 201.5,-406.5 302.5,-406.5 302.5,-387.5 201.5,-387.5"/>
<text text-anchor="middle" x="252" y="-394.5" font-family="Helvetica,sans-Serif" font-size="10.00">std::map&lt; K, T &gt;</text>
</a>
</g>
</g>
<!-- Node9&#45;&gt;Node10 -->
<g id="edge12" class="edge">
<title>Node9&#45;&gt;Node10</title>
<path fill="none" stroke="#9a32cd" stroke-dasharray="5,2" d="M71.3,-280.58C81.25,-289.84 93.62,-301.75 104,-313 112.57,-322.28 112.07,-327.19 122,-335 139.53,-348.79 195.9,-373.72 228.02,-387.39"/>
<polygon fill="#9a32cd" stroke="#9a32cd" points="73.64,-277.98 63.91,-273.78 68.9,-283.13 73.64,-277.98"/>
<text text-anchor="middle" x="146.5" y="-363" font-family="Helvetica,sans-Serif" font-size="10.00"> elements</text>
</g>
<!-- Node16 -->
<g id="node16" class="node">
<title>Node16</title>
<g id="a_node16"><a xlink:title=" ">
<polygon fill="none" stroke="#bfbfbf" points="203.5,-152.5 203.5,-171.5 300.5,-171.5 300.5,-152.5 203.5,-152.5"/>
<text text-anchor="middle" x="252" y="-159.5" font-family="Helvetica,sans-Serif" font-size="10.00">std::vector&lt; T &gt;</text>
</a>
</g>
</g>
<!-- Node9&#45;&gt;Node16 -->
<g id="edge19" class="edge">
<title>Node9&#45;&gt;Node16</title>
<path fill="none" stroke="#9a32cd" stroke-dasharray="5,2" d="M61.75,-245.16C72.64,-224.1 93.34,-190.88 122,-175 146.51,-161.42 177.69,-157.97 203.26,-158.02"/>
<polygon fill="#9a32cd" stroke="#9a32cd" points="58.48,-243.88 57.21,-254.4 64.76,-246.97 58.48,-243.88"/>
<text text-anchor="middle" x="146.5" y="-178" font-family="Helvetica,sans-Serif" font-size="10.00"> elements</text>
</g>
<!-- Node20 -->
<g id="node20" class="node">
<title>Node20</title>
<g id="a_node20"><a xlink:title=" ">
<polygon fill="none" stroke="#bfbfbf" points="189,-210.5 189,-229.5 315,-229.5 315,-210.5 189,-210.5"/>
<text text-anchor="middle" x="252" y="-217.5" font-family="Helvetica,sans-Serif" font-size="10.00">std::multimap&lt; K, T &gt;</text>
</a>
</g>
</g>
<!-- Node9&#45;&gt;Node20 -->
<g id="edge25" class="edge">
<title>Node9&#45;&gt;Node20</title>
<path fill="none" stroke="#9a32cd" stroke-dasharray="5,2" d="M65.09,-246.09C77.28,-229.8 97.72,-206.85 122,-197 159.31,-181.86 206.7,-198.65 232.39,-210.46"/>
<polygon fill="#9a32cd" stroke="#9a32cd" points="62.17,-244.16 59.2,-254.33 67.86,-248.23 62.17,-244.16"/>
<text text-anchor="middle" x="146.5" y="-200" font-family="Helvetica,sans-Serif" font-size="10.00"> elements</text>
</g>
<!-- Node21 -->
<g id="node21" class="node">
<title>Node21</title>
<g id="a_node21"><a xlink:title=" ">
<polygon fill="none" stroke="#bfbfbf" points="195,-249 195,-279 309,-279 309,-249 195,-249"/>
<text text-anchor="start" x="203" y="-267" font-family="Helvetica,sans-Serif" font-size="10.00">std::unordered_map</text>
<text text-anchor="middle" x="252" y="-256" font-family="Helvetica,sans-Serif" font-size="10.00">&lt; K, T &gt;</text>
</a>
</g>
</g>
<!-- Node9&#45;&gt;Node21 -->
<g id="edge28" class="edge">
<title>Node9&#45;&gt;Node21</title>
<path fill="none" stroke="#9a32cd" stroke-dasharray="5,2" d="M76.63,-264C105.65,-264 155.83,-264 194.94,-264"/>
<polygon fill="#9a32cd" stroke="#9a32cd" points="76.61,-260.5 66.61,-264 76.61,-267.5 76.61,-260.5"/>
<text text-anchor="middle" x="146.5" y="-267" font-family="Helvetica,sans-Serif" font-size="10.00"> elements</text>
</g>
<!-- Node10&#45;&gt;Node4 -->
<g id="edge10" class="edge">
<title>Node10&#45;&gt;Node4</title>
<path fill="none" stroke="orange" stroke-dasharray="5,2" d="M313.01,-396.23C417.95,-394.89 633.63,-392.12 738.74,-390.77"/>
<polygon fill="orange" stroke="orange" points="312.86,-392.73 302.9,-396.36 312.95,-399.73 312.86,-392.73"/>
<text text-anchor="start" x="478.5" y="-408" font-family="Helvetica,sans-Serif" font-size="10.00"> &lt; std::string, value</text>
<text text-anchor="middle" x="527" y="-397" font-family="Helvetica,sans-Serif" font-size="10.00">_listt &gt;</text>
</g>
<!-- Node11 -->
<g id="node11" class="node">
<title>Node11</title>
<g id="a_node11"><a xlink:title=" ">
<polygon fill="none" stroke="#bfbfbf" points="37.5,-322.5 37.5,-341.5 66.5,-341.5 66.5,-322.5 37.5,-322.5"/>
<text text-anchor="middle" x="52" y="-329.5" font-family="Helvetica,sans-Serif" font-size="10.00">K</text>
</a>
</g>
</g>
<!-- Node11&#45;&gt;Node10 -->
<g id="edge11" class="edge">
<title>Node11&#45;&gt;Node10</title>
<path fill="none" stroke="#9a32cd" stroke-dasharray="5,2" d="M72.17,-348.18C85.35,-358.4 103.7,-370.96 122,-378 147.14,-387.67 176.79,-392.45 201.31,-394.81"/>
<polygon fill="#9a32cd" stroke="#9a32cd" points="74.31,-345.4 64.32,-341.88 69.93,-350.86 74.31,-345.4"/>
<text text-anchor="middle" x="146.5" y="-393" font-family="Helvetica,sans-Serif" font-size="10.00"> keys</text>
</g>
<!-- Node11&#45;&gt;Node20 -->
<g id="edge24" class="edge">
<title>Node11&#45;&gt;Node20</title>
<path fill="none" stroke="#9a32cd" stroke-dasharray="5,2" d="M72.61,-315.85C82.76,-306.86 94.9,-295.07 104,-283 114.3,-269.35 108.41,-259.38 122,-249 141.06,-234.43 166.05,-226.93 188.96,-223.15"/>
<polygon fill="#9a32cd" stroke="#9a32cd" points="70.28,-313.23 64.99,-322.41 74.85,-318.54 70.28,-313.23"/>
<text text-anchor="middle" x="146.5" y="-252" font-family="Helvetica,sans-Serif" font-size="10.00"> keys</text>
</g>
<!-- Node11&#45;&gt;Node21 -->
<g id="edge27" class="edge">
<title>Node11&#45;&gt;Node21</title>
<path fill="none" stroke="#9a32cd" stroke-dasharray="5,2" d="M77.03,-329.58C101.68,-326.36 140.63,-319.19 171,-304 180.31,-299.34 180.06,-294.35 189,-289 195.08,-285.37 201.78,-282.04 208.46,-279.09"/>
<polygon fill="#9a32cd" stroke="#9a32cd" points="76.3,-326.14 66.79,-330.79 77.13,-333.09 76.3,-326.14"/>
<text text-anchor="middle" x="146.5" y="-323" font-family="Helvetica,sans-Serif" font-size="10.00"> keys</text>
</g>
<!-- Node12 -->
<g id="node12" class="node">
<title>Node12</title>
<g id="a_node12"><a xlink:href="classvalue__setst.html" target="_top" xlink:title=" ">
<polygon fill="none" stroke="black" points="1302,-235.5 1302,-254.5 1375,-254.5 1375,-235.5 1302,-235.5"/>
<text text-anchor="middle" x="1338.5" y="-242.5" font-family="Helvetica,sans-Serif" font-size="10.00">value_setst</text>
</a>
</g>
</g>
<!-- Node12&#45;&gt;Node1 -->
<g id="edge14" class="edge">
<title>Node12&#45;&gt;Node1</title>
<path fill="none" stroke="#9a32cd" stroke-dasharray="5,2" d="M1385.35,-237.47C1423.46,-231.21 1477.91,-222.27 1519.04,-215.52"/>
<polygon fill="#9a32cd" stroke="#9a32cd" points="1384.36,-234.09 1375.06,-239.16 1385.49,-240.99 1384.36,-234.09"/>
<text text-anchor="middle" x="1453" y="-234" font-family="Helvetica,sans-Serif" font-size="10.00"> value_sets</text>
</g>
<!-- Node13&#45;&gt;Node1 -->
<g id="edge15" class="edge">
<title>Node13&#45;&gt;Node1</title>
<path fill="none" stroke="#9a32cd" stroke-dasharray="5,2" d="M1382.98,-151.27C1429.05,-164.26 1500.83,-184.51 1542.96,-196.4"/>
<polygon fill="#9a32cd" stroke="#9a32cd" points="1383.85,-147.87 1373.28,-148.53 1381.95,-154.61 1383.85,-147.87"/>
<text text-anchor="middle" x="1453" y="-181" font-family="Helvetica,sans-Serif" font-size="10.00"> dereference</text>
</g>
<!-- Node14 -->
<g id="node14" class="node">
<title>Node14</title>
<g id="a_node14"><a xlink:href="classmessage__handlert.html" target="_top" xlink:title=" ">
<polygon fill="none" stroke="black" points="879,-104.5 879,-123.5 986,-123.5 986,-104.5 879,-104.5"/>
<text text-anchor="middle" x="932.5" y="-111.5" font-family="Helvetica,sans-Serif" font-size="10.00">message_handlert</text>
</a>
</g>
</g>
<!-- Node14&#45;&gt;Node13 -->
<g id="edge16" class="edge">
<title>Node14&#45;&gt;Node13</title>
<path fill="none" stroke="#9a32cd" stroke-dasharray="5,2" d="M996.6,-117.9C1071.89,-122.56 1197.09,-130.31 1272.99,-135.01"/>
<polygon fill="#9a32cd" stroke="#9a32cd" points="996.51,-114.39 986.32,-117.27 996.08,-121.38 996.51,-114.39"/>
<text text-anchor="middle" x="1066.5" y="-129" font-family="Helvetica,sans-Serif" font-size="10.00"> message_handler</text>
</g>
<!-- Node15 -->
<g id="node15" class="node">
<title>Node15</title>
<g id="a_node15"><a xlink:title=" ">
<polygon fill="none" stroke="#bfbfbf" points="457,-105.5 457,-124.5 597,-124.5 597,-105.5 457,-105.5"/>
<text text-anchor="middle" x="527" y="-112.5" font-family="Helvetica,sans-Serif" font-size="10.00">std::vector&lt; std::size_t &gt;</text>
</a>
</g>
</g>
<!-- Node15&#45;&gt;Node14 -->
<g id="edge17" class="edge">
<title>Node15&#45;&gt;Node14</title>
<path fill="none" stroke="#9a32cd" stroke-dasharray="5,2" d="M607.44,-114.8C687.76,-114.6 809.65,-114.3 878.77,-114.13"/>
<polygon fill="#9a32cd" stroke="#9a32cd" points="607.36,-111.3 597.36,-114.83 607.37,-118.3 607.36,-111.3"/>
<text text-anchor="middle" x="668" y="-118" font-family="Helvetica,sans-Serif" font-size="10.00"> message_count</text>
</g>
<!-- Node16&#45;&gt;Node15 -->
<g id="edge18" class="edge">
<title>Node16&#45;&gt;Node15</title>
<path fill="none" stroke="orange" stroke-dasharray="5,2" d="M272.38,-145.87C287.74,-134.2 310.33,-119.39 333,-113 375.09,-101.13 424.42,-101.89 462.67,-105.47"/>
<polygon fill="orange" stroke="orange" points="269.91,-143.36 264.22,-152.3 274.24,-148.86 269.91,-143.36"/>
<text text-anchor="middle" x="386" y="-116" font-family="Helvetica,sans-Serif" font-size="10.00"> &lt; std::size_t &gt;</text>
</g>
<!-- Node16&#45;&gt;Node25 -->
<g id="edge38" class="edge">
<title>Node16&#45;&gt;Node25</title>
<path fill="none" stroke="#9a32cd" stroke-dasharray="5,2" d="M310.69,-168.06C361.74,-173.95 429.6,-183.26 439,-192 464.42,-215.64 433.74,-242.23 457,-268 462.69,-274.31 470.13,-278.96 478.02,-282.39"/>
<polygon fill="#9a32cd" stroke="#9a32cd" points="311.05,-164.58 300.72,-166.93 310.26,-171.54 311.05,-164.58"/>
<text text-anchor="middle" x="386" y="-195" font-family="Helvetica,sans-Serif" font-size="10.00"> elements</text>
</g>
<!-- Node17 -->
<g id="node17" class="node">
<title>Node17</title>
<g id="a_node17"><a xlink:href="classsymbol__table__baset.html" target="_top" xlink:title="The symbol table base class interface.">
<polygon fill="none" stroke="black" points="742.5,-197.5 742.5,-216.5 857.5,-216.5 857.5,-197.5 742.5,-197.5"/>
<text text-anchor="middle" x="800" y="-204.5" font-family="Helvetica,sans-Serif" font-size="10.00">symbol_table_baset</text>
</a>
</g>
</g>
<!-- Node17&#45;&gt;Node13 -->
<g id="edge20" class="edge">
<title>Node17&#45;&gt;Node13</title>
<path fill="none" stroke="#9a32cd" stroke-dasharray="5,2" d="M867.89,-206.55C957.19,-204.73 1119.78,-197.08 1255,-167 1275.23,-162.5 1297.43,-154.8 1313.71,-148.61"/>
<polygon fill="#9a32cd" stroke="#9a32cd" points="867.57,-203.06 857.64,-206.75 867.7,-210.06 867.57,-203.06"/>
<text text-anchor="middle" x="1066.5" y="-203" font-family="Helvetica,sans-Serif" font-size="10.00"> new_symbol_table</text>
</g>
<!-- Node22 -->
<g id="node22" class="node">
<title>Node22</title>
<g id="a_node22"><a xlink:href="classnamespacet.html" target="_top" xlink:title="A namespacet is essentially one or two symbol tables bound together, to allow for symbol lookups in t...">
<polygon fill="none" stroke="black" points="1028,-152.5 1028,-171.5 1105,-171.5 1105,-152.5 1028,-152.5"/>
<text text-anchor="middle" x="1066.5" y="-159.5" font-family="Helvetica,sans-Serif" font-size="10.00">namespacet</text>
</a>
</g>
</g>
<!-- Node17&#45;&gt;Node22 -->
<g id="edge31" class="edge">
<title>Node17&#45;&gt;Node22</title>
<path fill="none" stroke="#9a32cd" stroke-dasharray="5,2" d="M827.08,-192.87C841.87,-185.57 860.97,-177.32 879,-173 929.47,-160.92 989.7,-159.64 1027.78,-160.38"/>
<polygon fill="#9a32cd" stroke="#9a32cd" points="825.37,-189.82 818.04,-197.47 828.54,-196.05 825.37,-189.82"/>
<text text-anchor="middle" x="932.5" y="-187" font-family="Helvetica,sans-Serif" font-size="10.00"> symbol_table1</text>
<text text-anchor="middle" x="932.5" y="-176" font-family="Helvetica,sans-Serif" font-size="10.00">symbol_table2</text>
</g>
<!-- Node18 -->
<g id="node18" class="node">
<title>Node18</title>
<g id="a_node18"><a xlink:title=" ">
<polygon fill="none" stroke="#bfbfbf" points="469.5,-186 469.5,-216 584.5,-216 584.5,-186 469.5,-186"/>
<text text-anchor="start" x="477.5" y="-204" font-family="Helvetica,sans-Serif" font-size="10.00">std::multimap&lt; irep</text>
<text text-anchor="middle" x="527" y="-193" font-family="Helvetica,sans-Serif" font-size="10.00">_idt, irep_idt &gt;</text>
</a>
</g>
</g>
<!-- Node18&#45;&gt;Node17 -->
<g id="edge21" class="edge">
<title>Node18&#45;&gt;Node17</title>
<path fill="none" stroke="#9a32cd" stroke-dasharray="5,2" d="M594.83,-202.48C640.11,-203.48 699.28,-204.79 742.26,-205.74"/>
<polygon fill="#9a32cd" stroke="#9a32cd" points="594.89,-198.98 584.81,-202.26 594.73,-205.98 594.89,-198.98"/>
<text text-anchor="middle" x="668" y="-219" font-family="Helvetica,sans-Serif" font-size="10.00"> symbol_base_map</text>
<text text-anchor="middle" x="668" y="-208" font-family="Helvetica,sans-Serif" font-size="10.00">symbol_module_map</text>
</g>
<!-- Node19 -->
<g id="node19" class="node">
<title>Node19</title>
<g id="a_node19"><a xlink:href="classdstringt.html" target="_top" xlink:title="dstringt has one field, an unsigned integer no which is an index into a static table of strings.">
<polygon fill="none" stroke="black" points="225,-66.5 225,-85.5 279,-85.5 279,-66.5 225,-66.5"/>
<text text-anchor="middle" x="252" y="-73.5" font-family="Helvetica,sans-Serif" font-size="10.00">dstringt</text>
</a>
</g>
</g>
<!-- Node19&#45;&gt;Node1 -->
<g id="edge35" class="edge">
<title>Node19&#45;&gt;Node1</title>
<path fill="none" stroke="#9a32cd" stroke-dasharray="5,2" d="M282.41,-62.12C331.65,-40.19 434.41,0 526,0 526,0 526,0 1339.5,0 1460.94,0 1550.69,-155.61 1572.1,-196.34"/>
<polygon fill="#9a32cd" stroke="#9a32cd" points="280.68,-59.06 273.01,-66.37 283.57,-65.44 280.68,-59.06"/>
<text text-anchor="middle" x="932.5" y="-3" font-family="Helvetica,sans-Serif" font-size="10.00"> current_function</text>
</g>
<!-- Node19&#45;&gt;Node13 -->
<g id="edge32" class="edge">
<title>Node19&#45;&gt;Node13</title>
<path fill="none" stroke="#9a32cd" stroke-dasharray="5,2" d="M289.48,-76C341.84,-76 441.31,-76 526,-76 526,-76 526,-76 933.5,-76 1070.5,-76 1230.56,-111.81 1301.03,-129.43"/>
<polygon fill="#9a32cd" stroke="#9a32cd" points="289.35,-72.5 279.35,-76 289.35,-79.5 289.35,-72.5"/>
<text text-anchor="middle" x="800" y="-79" font-family="Helvetica,sans-Serif" font-size="10.00"> language_mode</text>
</g>
<!-- Node19&#45;&gt;Node18 -->
<g id="edge22" class="edge">
<title>Node19&#45;&gt;Node18</title>
<path fill="none" stroke="#9a32cd" stroke-dasharray="5,2" d="M274.26,-91.39C289.83,-101.99 311.85,-115.63 333,-124 377.82,-141.75 394.31,-128.91 439,-147 463.55,-156.94 489,-173.6 505.98,-185.79"/>
<polygon fill="#9a32cd" stroke="#9a32cd" points="276.1,-88.41 265.89,-85.56 272.1,-94.15 276.1,-88.41"/>
<text text-anchor="middle" x="386" y="-161" font-family="Helvetica,sans-Serif" font-size="10.00"> elements</text>
<text text-anchor="middle" x="386" y="-150" font-family="Helvetica,sans-Serif" font-size="10.00">keys</text>
</g>
<!-- Node20&#45;&gt;Node18 -->
<g id="edge23" class="edge">
<title>Node20&#45;&gt;Node18</title>
<path fill="none" stroke="orange" stroke-dasharray="5,2" d="M325.28,-214.97C370.27,-211.84 427.32,-207.87 469.09,-204.96"/>
<polygon fill="orange" stroke="orange" points="325.02,-211.48 315.29,-215.66 325.51,-218.46 325.02,-211.48"/>
<text text-anchor="middle" x="386" y="-217" font-family="Helvetica,sans-Serif" font-size="10.00"> &lt; irep_idt, irep_idt &gt;</text>
</g>
<!-- Node21&#45;&gt;Node17 -->
<g id="edge26" class="edge">
<title>Node21&#45;&gt;Node17</title>
<path fill="none" stroke="#9a32cd" stroke-dasharray="5,2" d="M319.56,-264.06C410.86,-263.06 579.72,-257.36 721,-231 738.83,-227.67 758.33,-221.67 773.37,-216.51"/>
<polygon fill="#9a32cd" stroke="#9a32cd" points="319.32,-260.56 309.35,-264.15 319.39,-267.56 319.32,-260.56"/>
<text text-anchor="middle" x="527" y="-262" font-family="Helvetica,sans-Serif" font-size="10.00"> symbols</text>
</g>
<!-- Node22&#45;&gt;Node1 -->
<g id="edge34" class="edge">
<title>Node22&#45;&gt;Node1</title>
<path fill="none" stroke="#9a32cd" stroke-dasharray="5,2" d="M1115.31,-166.94C1125.75,-167.98 1136.74,-169.05 1147,-170 1271.21,-181.45 1415.74,-193.23 1501.62,-200.07"/>
<polygon fill="#9a32cd" stroke="#9a32cd" points="1115.4,-163.43 1105.1,-165.91 1114.7,-170.4 1115.4,-163.43"/>
<text text-anchor="middle" x="1338.5" y="-194" font-family="Helvetica,sans-Serif" font-size="10.00"> ns</text>
</g>
<!-- Node22&#45;&gt;Node13 -->
<g id="edge29" class="edge">
<title>Node22&#45;&gt;Node13</title>
<path fill="none" stroke="#9a32cd" stroke-dasharray="5,2" d="M1115.14,-157.94C1158.95,-154.21 1224.26,-148.65 1272.77,-144.51"/>
<polygon fill="#9a32cd" stroke="#9a32cd" points="1114.71,-154.47 1105.04,-158.8 1115.3,-161.44 1114.71,-154.47"/>
<text text-anchor="middle" x="1201" y="-158" font-family="Helvetica,sans-Serif" font-size="10.00"> ns</text>
</g>
<!-- Node23 -->
<g id="node23" class="node">
<title>Node23</title>
<g id="a_node23"><a xlink:href="classnamespace__baset.html" target="_top" xlink:title="Basic interface for a namespace.">
<polygon fill="none" stroke="black" points="747.5,-143.5 747.5,-162.5 852.5,-162.5 852.5,-143.5 747.5,-143.5"/>
<text text-anchor="middle" x="800" y="-150.5" font-family="Helvetica,sans-Serif" font-size="10.00">namespace_baset</text>
</a>
</g>
</g>
<!-- Node23&#45;&gt;Node22 -->
<g id="edge30" class="edge">
<title>Node23&#45;&gt;Node22</title>
<path fill="none" stroke="midnightblue" d="M863.2,-151.26C899.12,-150.68 945.14,-150.69 986,-153 999.73,-153.77 1014.73,-155.3 1027.96,-156.87"/>
<polygon fill="midnightblue" stroke="midnightblue" points="862.81,-147.76 852.88,-151.44 862.94,-154.76 862.81,-147.76"/>
</g>
<!-- Node24 -->
<g id="node24" class="node">
<title>Node24</title>
<g id="a_node24"><a xlink:href="classgoto__programt.html" target="_top" xlink:title="A generic container class for the GOTO intermediate representation of one function.">
<polygon fill="none" stroke="black" points="1156.5,-281.5 1156.5,-300.5 1245.5,-300.5 1245.5,-281.5 1156.5,-281.5"/>
<text text-anchor="middle" x="1201" y="-288.5" font-family="Helvetica,sans-Serif" font-size="10.00">goto_programt</text>
</a>
</g>
</g>
<!-- Node24&#45;&gt;Node1 -->
<g id="edge36" class="edge">
<title>Node24&#45;&gt;Node1</title>
<path fill="none" stroke="#9a32cd" stroke-dasharray="5,2" d="M1255.96,-287.39C1313.6,-282.39 1407.04,-270.97 1484,-246 1510.08,-237.54 1538.91,-224.54 1557.45,-215.67"/>
<polygon fill="#9a32cd" stroke="#9a32cd" points="1255.66,-283.91 1245.98,-288.22 1256.24,-290.88 1255.66,-283.91"/>
<text text-anchor="middle" x="1338.5" y="-288" font-family="Helvetica,sans-Serif" font-size="10.00"> new_code</text>
</g>
<!-- Node25&#45;&gt;Node24 -->
<g id="edge37" class="edge">
<title>Node25&#45;&gt;Node24</title>
<path fill="none" stroke="#9a32cd" stroke-dasharray="5,2" d="M603.01,-291.89C743.9,-291.68 1043.97,-291.23 1156.32,-291.06"/>
<polygon fill="#9a32cd" stroke="#9a32cd" points="602.73,-288.39 592.74,-291.9 602.74,-295.39 602.73,-288.39"/>
<text text-anchor="middle" x="800" y="-294" font-family="Helvetica,sans-Serif" font-size="10.00"> instructions</text>
</g>
</g>
</svg>
