<?xml version="1.0" encoding="UTF-8" standalone="no"?>
<!DOCTYPE svg PUBLIC "-//W3C//DTD SVG 1.1//EN"
 "http://www.w3.org/Graphics/SVG/1.1/DTD/svg11.dtd">
<!-- Generated by graphviz version 2.43.0 (0)
 -->
<!-- Title: string_dependenciest::string_nodet Pages: 1 -->
<svg width="1860pt" height="142pt"
 viewBox="0.00 0.00 1860.00 142.00" xmlns="http://www.w3.org/2000/svg" xmlns:xlink="http://www.w3.org/1999/xlink">
<g id="graph0" class="graph" transform="scale(1 1) rotate(0) translate(4 138)">
<title>string_dependenciest::string_nodet</title>
<!-- Node1 -->
<g id="node1" class="node">
<title>Node1</title>
<g id="a_node1"><a xlink:title="A string node points to builtin_function on which it depends.">
<polygon fill="#bfbfbf" stroke="black" points="1731,-11 1731,-41 1852,-41 1852,-11 1731,-11"/>
<text text-anchor="start" x="1739" y="-29" font-family="Helvetica,sans-Serif" font-size="10.00">string_dependenciest</text>
<text text-anchor="middle" x="1791.5" y="-18" font-family="Helvetica,sans-Serif" font-size="10.00">::string_nodet</text>
</a>
</g>
</g>
<!-- Node2 -->
<g id="node2" class="node">
<title>Node2</title>
<g id="a_node2"><a xlink:title=" ">
<polygon fill="none" stroke="#bfbfbf" points="460,-0.5 460,-19.5 600,-19.5 600,-0.5 460,-0.5"/>
<text text-anchor="middle" x="530" y="-7.5" font-family="Helvetica,sans-Serif" font-size="10.00">std::vector&lt; std::size_t &gt;</text>
</a>
</g>
</g>
<!-- Node2&#45;&gt;Node1 -->
<g id="edge1" class="edge">
<title>Node2&#45;&gt;Node1</title>
<path fill="none" stroke="#9a32cd" stroke-dasharray="5,2" d="M610.17,-10C667.36,-10 746.45,-10 816,-10 816,-10 816,-10 1618,-10 1655.6,-10 1697.6,-13.81 1730.75,-17.72"/>
<polygon fill="#9a32cd" stroke="#9a32cd" points="610.11,-6.5 600.11,-10 610.11,-13.5 610.11,-6.5"/>
<text text-anchor="middle" x="1355.5" y="-13" font-family="Helvetica,sans-Serif" font-size="10.00"> dependencies</text>
</g>
<!-- Node3 -->
<g id="node3" class="node">
<title>Node3</title>
<g id="a_node3"><a xlink:title="STL class.">
<polygon fill="none" stroke="#bfbfbf" points="114,-17.5 114,-36.5 211,-36.5 211,-17.5 114,-17.5"/>
<text text-anchor="middle" x="162.5" y="-24.5" font-family="Helvetica,sans-Serif" font-size="10.00">std::vector&lt; T &gt;</text>
</a>
</g>
</g>
<!-- Node3&#45;&gt;Node2 -->
<g id="edge2" class="edge">
<title>Node3&#45;&gt;Node2</title>
<path fill="none" stroke="orange" stroke-dasharray="5,2" d="M221.32,-24.31C286.08,-21.3 390.98,-16.42 459.98,-13.21"/>
<polygon fill="orange" stroke="orange" points="221.11,-20.82 211.28,-24.78 221.43,-27.81 221.11,-20.82"/>
<text text-anchor="middle" x="267" y="-27" font-family="Helvetica,sans-Serif" font-size="10.00"> &lt; std::size_t &gt;</text>
</g>
<!-- Node11 -->
<g id="node11" class="node">
<title>Node11</title>
<g id="a_node11"><a xlink:title=" ">
<polygon fill="none" stroke="#bfbfbf" points="325.5,-114.5 325.5,-133.5 439.5,-133.5 439.5,-114.5 325.5,-114.5"/>
<text text-anchor="middle" x="382.5" y="-121.5" font-family="Helvetica,sans-Serif" font-size="10.00">std::vector&lt; treet &gt;</text>
</a>
</g>
</g>
<!-- Node3&#45;&gt;Node11 -->
<g id="edge11" class="edge">
<title>Node3&#45;&gt;Node11</title>
<path fill="none" stroke="orange" stroke-dasharray="5,2" d="M190.26,-41.53C221.52,-58.17 275.09,-85.62 323,-105 331.41,-108.4 340.69,-111.64 349.33,-114.45"/>
<polygon fill="orange" stroke="orange" points="191.77,-38.37 181.3,-36.74 188.47,-44.54 191.77,-38.37"/>
<text text-anchor="middle" x="267" y="-98" font-family="Helvetica,sans-Serif" font-size="10.00"> &lt; treet &gt;</text>
</g>
<!-- Node4 -->
<g id="node4" class="node">
<title>Node4</title>
<g id="a_node4"><a xlink:title=" ">
<polygon fill="none" stroke="#bfbfbf" points="0,-17.5 0,-36.5 29,-36.5 29,-17.5 0,-17.5"/>
<text text-anchor="middle" x="14.5" y="-24.5" font-family="Helvetica,sans-Serif" font-size="10.00">T</text>
</a>
</g>
</g>
<!-- Node4&#45;&gt;Node3 -->
<g id="edge3" class="edge">
<title>Node4&#45;&gt;Node3</title>
<path fill="none" stroke="#9a32cd" stroke-dasharray="5,2" d="M39.39,-27C59.54,-27 89.02,-27 113.96,-27"/>
<polygon fill="#9a32cd" stroke="#9a32cd" points="39.24,-23.5 29.24,-27 39.24,-30.5 39.24,-23.5"/>
<text text-anchor="middle" x="71.5" y="-30" font-family="Helvetica,sans-Serif" font-size="10.00"> elements</text>
</g>
<!-- Node5 -->
<g id="node5" class="node">
<title>Node5</title>
<g id="a_node5"><a xlink:href="classarray__string__exprt.html" target="_top" xlink:title=" ">
<polygon fill="none" stroke="black" points="1564,-43.5 1564,-62.5 1670,-62.5 1670,-43.5 1564,-43.5"/>
<text text-anchor="middle" x="1617" y="-50.5" font-family="Helvetica,sans-Serif" font-size="10.00">array_string_exprt</text>
</a>
</g>
</g>
<!-- Node5&#45;&gt;Node1 -->
<g id="edge4" class="edge">
<title>Node5&#45;&gt;Node1</title>
<path fill="none" stroke="#9a32cd" stroke-dasharray="5,2" d="M1680.3,-43.25C1696.8,-40.67 1714.55,-37.89 1730.9,-35.33"/>
<polygon fill="#9a32cd" stroke="#9a32cd" points="1679.56,-39.82 1670.22,-44.83 1680.64,-46.74 1679.56,-39.82"/>
<text text-anchor="middle" x="1700.5" y="-45" font-family="Helvetica,sans-Serif" font-size="10.00"> expr</text>
</g>
<!-- Node6 -->
<g id="node6" class="node">
<title>Node6</title>
<g id="a_node6"><a xlink:href="classexprt.html" target="_top" xlink:title="Base class for all expressions.">
<polygon fill="none" stroke="black" points="1485,-46.5 1485,-65.5 1527,-65.5 1527,-46.5 1485,-46.5"/>
<text text-anchor="middle" x="1506" y="-53.5" font-family="Helvetica,sans-Serif" font-size="10.00">exprt</text>
</a>
</g>
</g>
<!-- Node6&#45;&gt;Node5 -->
<g id="edge5" class="edge">
<title>Node6&#45;&gt;Node5</title>
<path fill="none" stroke="midnightblue" d="M1537.39,-55.16C1545.56,-54.94 1554.65,-54.69 1563.65,-54.44"/>
<polygon fill="midnightblue" stroke="midnightblue" points="1537.15,-51.67 1527.25,-55.44 1537.34,-58.67 1537.15,-51.67"/>
</g>
<!-- Node7 -->
<g id="node7" class="node">
<title>Node7</title>
<g id="a_node7"><a xlink:href="classirept.html" target="_top" xlink:title="There are a large number of kinds of tree structured or tree&#45;like data in CPROVER.">
<polygon fill="none" stroke="black" points="1409,-47.5 1409,-66.5 1448,-66.5 1448,-47.5 1409,-47.5"/>
<text text-anchor="middle" x="1428.5" y="-54.5" font-family="Helvetica,sans-Serif" font-size="10.00">irept</text>
</a>
</g>
</g>
<!-- Node7&#45;&gt;Node6 -->
<g id="edge6" class="edge">
<title>Node7&#45;&gt;Node6</title>
<path fill="none" stroke="midnightblue" d="M1458.18,-56.62C1467.11,-56.5 1476.76,-56.37 1484.97,-56.27"/>
<polygon fill="midnightblue" stroke="midnightblue" points="1458.12,-53.12 1448.16,-56.75 1458.21,-60.12 1458.12,-53.12"/>
</g>
<!-- Node8 -->
<g id="node8" class="node">
<title>Node8</title>
<g id="a_node8"><a xlink:href="classsharing__treet.html" target="_top" xlink:title=" ">
<polygon fill="none" stroke="black" points="1177,-38.5 1177,-79.5 1302,-79.5 1302,-38.5 1177,-38.5"/>
<text text-anchor="start" x="1185" y="-67.5" font-family="Helvetica,sans-Serif" font-size="10.00">sharing_treet&lt; irept,</text>
<text text-anchor="start" x="1185" y="-56.5" font-family="Helvetica,sans-Serif" font-size="10.00"> forward_list_as_mapt</text>
<text text-anchor="middle" x="1239.5" y="-45.5" font-family="Helvetica,sans-Serif" font-size="10.00">&lt; irep_idt, irept &gt; &gt;</text>
</a>
</g>
</g>
<!-- Node8&#45;&gt;Node7 -->
<g id="edge7" class="edge">
<title>Node8&#45;&gt;Node7</title>
<path fill="none" stroke="midnightblue" d="M1312.39,-58.23C1347.12,-57.86 1386.05,-57.44 1408.58,-57.2"/>
<polygon fill="midnightblue" stroke="midnightblue" points="1312.21,-54.73 1302.25,-58.34 1312.29,-61.73 1312.21,-54.73"/>
</g>
<!-- Node9 -->
<g id="node9" class="node">
<title>Node9</title>
<g id="a_node9"><a xlink:href="classtree__nodet.html" target="_top" xlink:title="A node with data in a tree, it contains:">
<polygon fill="none" stroke="black" points="618,-71 618,-101 776,-101 776,-71 618,-71"/>
<text text-anchor="start" x="626" y="-89" font-family="Helvetica,sans-Serif" font-size="10.00">tree_nodet&lt; treet,</text>
<text text-anchor="middle" x="697" y="-78" font-family="Helvetica,sans-Serif" font-size="10.00"> named_subtreest, sharing &gt;</text>
</a>
</g>
</g>
<!-- Node9&#45;&gt;Node8 -->
<g id="edge8" class="edge">
<title>Node9&#45;&gt;Node8</title>
<path fill="none" stroke="#9a32cd" stroke-dasharray="5,2" d="M786.23,-93.64C788.85,-93.77 791.44,-93.89 794,-94 914.51,-99.01 1031.32,-107.2 1159,-85 1166.73,-83.66 1174.73,-81.72 1182.55,-79.51"/>
<polygon fill="#9a32cd" stroke="#9a32cd" points="786.22,-90.13 776.03,-93.05 785.81,-97.12 786.22,-90.13"/>
<text text-anchor="middle" x="926" y="-113" font-family="Helvetica,sans-Serif" font-size="10.00"> empty_d</text>
<text text-anchor="middle" x="926" y="-102" font-family="Helvetica,sans-Serif" font-size="10.00">data</text>
</g>
<!-- Node13 -->
<g id="node13" class="node">
<title>Node13</title>
<g id="a_node13"><a xlink:href="classsharing__treet.html" target="_top" xlink:title="Base class for tree&#45;like data structures with sharing.">
<polygon fill="none" stroke="black" points="858,-41 858,-71 994,-71 994,-41 858,-41"/>
<text text-anchor="start" x="866" y="-59" font-family="Helvetica,sans-Serif" font-size="10.00">sharing_treet&lt; derivedt,</text>
<text text-anchor="middle" x="926" y="-48" font-family="Helvetica,sans-Serif" font-size="10.00"> named_subtreest &gt;</text>
</a>
</g>
</g>
<!-- Node9&#45;&gt;Node13 -->
<g id="edge14" class="edge">
<title>Node9&#45;&gt;Node13</title>
<path fill="none" stroke="#9a32cd" stroke-dasharray="5,2" d="M785.95,-73.09C788.66,-72.72 791.35,-72.35 794,-72 814.78,-69.22 837.44,-66.38 857.98,-63.88"/>
<polygon fill="#9a32cd" stroke="#9a32cd" points="785.47,-69.62 776.04,-74.46 786.43,-76.56 785.47,-69.62"/>
<text text-anchor="middle" x="817" y="-86" font-family="Helvetica,sans-Serif" font-size="10.00"> empty_d</text>
<text text-anchor="middle" x="817" y="-75" font-family="Helvetica,sans-Serif" font-size="10.00">data</text>
</g>
<!-- Node10 -->
<g id="node10" class="node">
<title>Node10</title>
<g id="a_node10"><a xlink:href="structref__count__ift_3_01true_01_4.html" target="_top" xlink:title=" ">
<polygon fill="none" stroke="black" points="323,-76.5 323,-95.5 442,-95.5 442,-76.5 323,-76.5"/>
<text text-anchor="middle" x="382.5" y="-83.5" font-family="Helvetica,sans-Serif" font-size="10.00">ref_count_ift&lt; true &gt;</text>
</a>
</g>
</g>
<!-- Node10&#45;&gt;Node9 -->
<g id="edge9" class="edge">
<title>Node10&#45;&gt;Node9</title>
<path fill="none" stroke="midnightblue" d="M452.44,-86C501.28,-86 566.89,-86 617.71,-86"/>
<polygon fill="midnightblue" stroke="midnightblue" points="452.28,-82.5 442.28,-86 452.28,-89.5 452.28,-82.5"/>
</g>
<!-- Node11&#45;&gt;Node9 -->
<g id="edge10" class="edge">
<title>Node11&#45;&gt;Node9</title>
<path fill="none" stroke="#9a32cd" stroke-dasharray="5,2" d="M449.64,-116.7C492.53,-111.89 549.6,-105.32 600,-99 605.84,-98.27 611.88,-97.49 617.95,-96.7"/>
<polygon fill="#9a32cd" stroke="#9a32cd" points="449.16,-113.24 439.61,-117.83 449.94,-120.19 449.16,-113.24"/>
<text text-anchor="middle" x="530" y="-118" font-family="Helvetica,sans-Serif" font-size="10.00"> sub</text>
</g>
<!-- Node12 -->
<g id="node12" class="node">
<title>Node12</title>
<g id="a_node12"><a xlink:href="classdstringt.html" target="_top" xlink:title="dstringt has one field, an unsigned integer no which is an index into a static table of strings.">
<polygon fill="none" stroke="black" points="355.5,-38.5 355.5,-57.5 409.5,-57.5 409.5,-38.5 355.5,-38.5"/>
<text text-anchor="middle" x="382.5" y="-45.5" font-family="Helvetica,sans-Serif" font-size="10.00">dstringt</text>
</a>
</g>
</g>
<!-- Node12&#45;&gt;Node9 -->
<g id="edge12" class="edge">
<title>Node12&#45;&gt;Node9</title>
<path fill="none" stroke="#9a32cd" stroke-dasharray="5,2" d="M419.53,-51.28C462.55,-55.32 536.64,-62.69 600,-71 605.85,-71.77 611.9,-72.61 617.98,-73.48"/>
<polygon fill="#9a32cd" stroke="#9a32cd" points="419.82,-47.79 409.54,-50.35 419.17,-54.76 419.82,-47.79"/>
<text text-anchor="middle" x="530" y="-74" font-family="Helvetica,sans-Serif" font-size="10.00"> data</text>
</g>
<!-- Node13&#45;&gt;Node8 -->
<g id="edge13" class="edge">
<title>Node13&#45;&gt;Node8</title>
<path fill="none" stroke="orange" stroke-dasharray="5,2" d="M1004.29,-56.74C1057.58,-57.26 1127.45,-57.93 1176.96,-58.41"/>
<polygon fill="orange" stroke="orange" points="1004.24,-53.24 994.21,-56.65 1004.17,-60.24 1004.24,-53.24"/>
<text text-anchor="start" x="1012" y="-73" font-family="Helvetica,sans-Serif" font-size="10.00"> &lt; irept, forward_list</text>
<text text-anchor="middle" x="1085.5" y="-62" font-family="Helvetica,sans-Serif" font-size="10.00">_as_mapt&lt; irep_idt, irept &gt; &gt;</text>
</g>
</g>
</svg>
