<?xml version="1.0" encoding="UTF-8" standalone="no"?>
<!DOCTYPE svg PUBLIC "-//W3C//DTD SVG 1.1//EN"
 "http://www.w3.org/Graphics/SVG/1.1/DTD/svg11.dtd">
<!-- Generated by graphviz version 2.43.0 (0)
 -->
<!-- Title: satcheck_zchafft Pages: 1 -->
<svg width="684pt" height="577pt"
 viewBox="0.00 0.00 683.50 577.00" xmlns="http://www.w3.org/2000/svg" xmlns:xlink="http://www.w3.org/1999/xlink">
<g id="graph0" class="graph" transform="scale(1 1) rotate(0) translate(4 573)">
<title>satcheck_zchafft</title>
<!-- Node1 -->
<g id="node1" class="node">
<title>Node1</title>
<g id="a_node1"><a xlink:title=" ">
<polygon fill="#bfbfbf" stroke="black" points="449.5,-0.5 449.5,-19.5 547.5,-19.5 547.5,-0.5 449.5,-0.5"/>
<text text-anchor="middle" x="498.5" y="-7.5" font-family="Helvetica,sans-Serif" font-size="10.00">satcheck_zchafft</text>
</a>
</g>
</g>
<!-- Node2 -->
<g id="node2" class="node">
<title>Node2</title>
<g id="a_node2"><a xlink:href="classsatcheck__zchaff__baset.html" target="_top" xlink:title=" ">
<polygon fill="none" stroke="black" points="435,-57.5 435,-76.5 562,-76.5 562,-57.5 435,-57.5"/>
<text text-anchor="middle" x="498.5" y="-64.5" font-family="Helvetica,sans-Serif" font-size="10.00">satcheck_zchaff_baset</text>
</a>
</g>
</g>
<!-- Node2&#45;&gt;Node1 -->
<g id="edge1" class="edge">
<title>Node2&#45;&gt;Node1</title>
<path fill="none" stroke="midnightblue" d="M498.5,-47.12C498.5,-37.82 498.5,-27.06 498.5,-19.71"/>
<polygon fill="midnightblue" stroke="midnightblue" points="495,-47.41 498.5,-57.41 502,-47.41 495,-47.41"/>
</g>
<!-- Node3 -->
<g id="node3" class="node">
<title>Node3</title>
<g id="a_node3"><a xlink:href="classcnf__clause__listt.html" target="_top" xlink:title=" ">
<polygon fill="none" stroke="black" points="452.5,-114.5 452.5,-133.5 544.5,-133.5 544.5,-114.5 452.5,-114.5"/>
<text text-anchor="middle" x="498.5" y="-121.5" font-family="Helvetica,sans-Serif" font-size="10.00">cnf_clause_listt</text>
</a>
</g>
</g>
<!-- Node3&#45;&gt;Node2 -->
<g id="edge2" class="edge">
<title>Node3&#45;&gt;Node2</title>
<path fill="none" stroke="midnightblue" d="M498.5,-104.12C498.5,-94.82 498.5,-84.06 498.5,-76.71"/>
<polygon fill="midnightblue" stroke="midnightblue" points="495,-104.41 498.5,-114.41 502,-104.41 495,-104.41"/>
</g>
<!-- Node4 -->
<g id="node4" class="node">
<title>Node4</title>
<g id="a_node4"><a xlink:href="classcnft.html" target="_top" xlink:title=" ">
<polygon fill="none" stroke="black" points="457,-171.5 457,-190.5 492,-190.5 492,-171.5 457,-171.5"/>
<text text-anchor="middle" x="474.5" y="-178.5" font-family="Helvetica,sans-Serif" font-size="10.00">cnft</text>
</a>
</g>
</g>
<!-- Node4&#45;&gt;Node3 -->
<g id="edge3" class="edge">
<title>Node4&#45;&gt;Node3</title>
<path fill="none" stroke="midnightblue" d="M482.34,-162.03C486.49,-152.53 491.39,-141.3 494.7,-133.71"/>
<polygon fill="midnightblue" stroke="midnightblue" points="479.04,-160.84 478.25,-171.41 485.46,-163.64 479.04,-160.84"/>
</g>
<!-- Node5 -->
<g id="node5" class="node">
<title>Node5</title>
<g id="a_node5"><a xlink:href="classpropt.html" target="_top" xlink:title="TO_BE_DOCUMENTED.">
<polygon fill="none" stroke="black" points="398.5,-238.5 398.5,-257.5 440.5,-257.5 440.5,-238.5 398.5,-238.5"/>
<text text-anchor="middle" x="419.5" y="-245.5" font-family="Helvetica,sans-Serif" font-size="10.00">propt</text>
</a>
</g>
</g>
<!-- Node5&#45;&gt;Node4 -->
<g id="edge4" class="edge">
<title>Node5&#45;&gt;Node4</title>
<path fill="none" stroke="midnightblue" d="M433.66,-230.27C444.38,-217.6 458.68,-200.7 467.2,-190.63"/>
<polygon fill="midnightblue" stroke="midnightblue" points="430.71,-228.34 426.92,-238.23 436.05,-232.86 430.71,-228.34"/>
</g>
<!-- Node6 -->
<g id="node6" class="node">
<title>Node6</title>
<g id="a_node6"><a xlink:href="classmessaget.html" target="_top" xlink:title="Class that provides messages with a built&#45;in verbosity &#39;level&#39;.">
<polygon fill="none" stroke="black" points="171,-305.5 171,-324.5 236,-324.5 236,-305.5 171,-305.5"/>
<text text-anchor="middle" x="203.5" y="-312.5" font-family="Helvetica,sans-Serif" font-size="10.00">messaget</text>
</a>
</g>
</g>
<!-- Node6&#45;&gt;Node5 -->
<g id="edge5" class="edge">
<title>Node6&#45;&gt;Node5</title>
<path fill="none" stroke="#9a32cd" stroke-dasharray="5,2" d="M242.03,-302.4C287.75,-288.65 362.32,-266.21 398.49,-255.32"/>
<polygon fill="#9a32cd" stroke="#9a32cd" points="240.75,-299.14 232.18,-305.37 242.77,-305.84 240.75,-299.14"/>
<text text-anchor="middle" x="334" y="-279" font-family="Helvetica,sans-Serif" font-size="10.00"> log</text>
</g>
<!-- Node12 -->
<g id="node9" class="node">
<title>Node12</title>
<g id="a_node9"><a xlink:href="classmessaget_1_1mstreamt.html" target="_top" xlink:title=" ">
<polygon fill="none" stroke="red" points="145,-238.5 145,-257.5 264,-257.5 264,-238.5 145,-238.5"/>
<text text-anchor="middle" x="204.5" y="-245.5" font-family="Helvetica,sans-Serif" font-size="10.00">messaget::mstreamt</text>
</a>
</g>
</g>
<!-- Node6&#45;&gt;Node12 -->
<g id="edge9" class="edge">
<title>Node6&#45;&gt;Node12</title>
<path fill="none" stroke="#9a32cd" stroke-dasharray="5,2" d="M214.1,-296.46C215.5,-293.4 216.72,-290.18 217.5,-287 220.01,-276.7 214.96,-265.24 210.44,-257.62"/>
<polygon fill="#9a32cd" stroke="#9a32cd" points="210.93,-294.96 209.3,-305.42 217.11,-298.26 210.93,-294.96"/>
<text text-anchor="middle" x="242.5" y="-279" font-family="Helvetica,sans-Serif" font-size="10.00"> message</text>
</g>
<!-- Node7 -->
<g id="node7" class="node">
<title>Node7</title>
<g id="a_node7"><a xlink:href="classmessage__handlert.html" target="_top" xlink:title=" ">
<polygon fill="none" stroke="red" points="0,-482.5 0,-501.5 107,-501.5 107,-482.5 0,-482.5"/>
<text text-anchor="middle" x="53.5" y="-489.5" font-family="Helvetica,sans-Serif" font-size="10.00">message_handlert</text>
</a>
</g>
</g>
<!-- Node7&#45;&gt;Node6 -->
<g id="edge6" class="edge">
<title>Node7&#45;&gt;Node6</title>
<path fill="none" stroke="#9a32cd" stroke-dasharray="5,2" d="M53.19,-472.13C53.75,-440.73 59.62,-377.76 95.5,-343 115.42,-323.7 146.94,-317.55 170.8,-315.88"/>
<polygon fill="#9a32cd" stroke="#9a32cd" points="49.69,-472.16 53.18,-482.16 56.69,-472.17 49.69,-472.16"/>
<text text-anchor="middle" x="140.5" y="-401" font-family="Helvetica,sans-Serif" font-size="10.00"> message_handler</text>
</g>
<!-- Node11 -->
<g id="node8" class="node">
<title>Node11</title>
<g id="a_node8"><a xlink:href="classmessaget_1_1commandt.html" target="_top" xlink:title=" ">
<polygon fill="none" stroke="black" points="125,-482.5 125,-501.5 248,-501.5 248,-482.5 125,-482.5"/>
<text text-anchor="middle" x="186.5" y="-489.5" font-family="Helvetica,sans-Serif" font-size="10.00">messaget::commandt</text>
</a>
</g>
</g>
<!-- Node11&#45;&gt;Node6 -->
<g id="edge7" class="edge">
<title>Node11&#45;&gt;Node6</title>
<path fill="none" stroke="#9a32cd" stroke-dasharray="5,2" d="M188.35,-471.95C192.01,-434.3 200.04,-351.65 202.66,-324.69"/>
<polygon fill="#9a32cd" stroke="#9a32cd" points="184.85,-471.79 187.37,-482.08 191.82,-472.47 184.85,-471.79"/>
<text text-anchor="middle" x="240.5" y="-456" font-family="Helvetica,sans-Serif" font-size="10.00"> cyan</text>
<text text-anchor="middle" x="240.5" y="-445" font-family="Helvetica,sans-Serif" font-size="10.00">bright_yellow</text>
<text text-anchor="middle" x="240.5" y="-434" font-family="Helvetica,sans-Serif" font-size="10.00">bold</text>
<text text-anchor="middle" x="240.5" y="-423" font-family="Helvetica,sans-Serif" font-size="10.00">yellow</text>
<text text-anchor="middle" x="240.5" y="-412" font-family="Helvetica,sans-Serif" font-size="10.00">bright_blue</text>
<text text-anchor="middle" x="240.5" y="-401" font-family="Helvetica,sans-Serif" font-size="10.00">magenta</text>
<text text-anchor="middle" x="240.5" y="-390" font-family="Helvetica,sans-Serif" font-size="10.00">reset</text>
<text text-anchor="middle" x="240.5" y="-379" font-family="Helvetica,sans-Serif" font-size="10.00">bright_magenta</text>
<text text-anchor="middle" x="240.5" y="-368" font-family="Helvetica,sans-Serif" font-size="10.00">underline</text>
<text text-anchor="middle" x="240.5" y="-357" font-family="Helvetica,sans-Serif" font-size="10.00">blue</text>
<text text-anchor="middle" x="240.5" y="-346" font-family="Helvetica,sans-Serif" font-size="10.00">...</text>
</g>
<!-- Node12&#45;&gt;Node6 -->
<g id="edge8" class="edge">
<title>Node12&#45;&gt;Node6</title>
<path fill="none" stroke="#9a32cd" stroke-dasharray="5,2" d="M179.06,-263.95C175.19,-267.4 171.75,-271.42 169.5,-276 163.8,-287.6 175.66,-298.33 186.9,-305.41"/>
<polygon fill="#9a32cd" stroke="#9a32cd" points="181.47,-266.52 187.33,-257.7 177.25,-260.93 181.47,-266.52"/>
<text text-anchor="middle" x="193.5" y="-279" font-family="Helvetica,sans-Serif" font-size="10.00"> mstream</text>
</g>
<!-- Node26 -->
<g id="node10" class="node">
<title>Node26</title>
<g id="a_node10"><a xlink:href="classmessaget_1_1eomt.html" target="_top" xlink:title=" ">
<polygon fill="none" stroke="black" points="266.5,-482.5 266.5,-501.5 362.5,-501.5 362.5,-482.5 266.5,-482.5"/>
<text text-anchor="middle" x="314.5" y="-489.5" font-family="Helvetica,sans-Serif" font-size="10.00">messaget::eomt</text>
</a>
</g>
</g>
<!-- Node26&#45;&gt;Node6 -->
<g id="edge10" class="edge">
<title>Node26&#45;&gt;Node6</title>
<path fill="none" stroke="#9a32cd" stroke-dasharray="5,2" d="M316.08,-472.15C317.59,-441.24 315.95,-379.56 283.5,-343 271.53,-329.52 252.6,-322.76 236.15,-319.37"/>
<polygon fill="#9a32cd" stroke="#9a32cd" points="312.57,-472.17 315.4,-482.38 319.56,-472.63 312.57,-472.17"/>
<text text-anchor="middle" x="329" y="-401" font-family="Helvetica,sans-Serif" font-size="10.00"> eom</text>
</g>
<!-- Node27 -->
<g id="node11" class="node">
<title>Node27</title>
<g id="a_node11"><a xlink:title=" ">
<polygon fill="none" stroke="#bfbfbf" points="358,-305.5 358,-324.5 481,-324.5 481,-305.5 358,-305.5"/>
<text text-anchor="middle" x="419.5" y="-312.5" font-family="Helvetica,sans-Serif" font-size="10.00">std::vector&lt; literalt &gt;</text>
</a>
</g>
</g>
<!-- Node27&#45;&gt;Node5 -->
<g id="edge11" class="edge">
<title>Node27&#45;&gt;Node5</title>
<path fill="none" stroke="#9a32cd" stroke-dasharray="5,2" d="M419.5,-295.04C419.5,-282.67 419.5,-267.12 419.5,-257.63"/>
<polygon fill="#9a32cd" stroke="#9a32cd" points="416,-295.23 419.5,-305.23 423,-295.23 416,-295.23"/>
<text text-anchor="middle" x="439" y="-279" font-family="Helvetica,sans-Serif" font-size="10.00"> lcnf_bv</text>
</g>
<!-- Node28 -->
<g id="node12" class="node">
<title>Node28</title>
<g id="a_node12"><a xlink:href="classliteralt.html" target="_top" xlink:title=" ">
<polygon fill="none" stroke="black" points="381,-482.5 381,-501.5 430,-501.5 430,-482.5 381,-482.5"/>
<text text-anchor="middle" x="405.5" y="-489.5" font-family="Helvetica,sans-Serif" font-size="10.00">literalt</text>
</a>
</g>
</g>
<!-- Node28&#45;&gt;Node27 -->
<g id="edge12" class="edge">
<title>Node28&#45;&gt;Node27</title>
<path fill="none" stroke="#9a32cd" stroke-dasharray="5,2" d="M403.01,-472.03C399.85,-443.56 396,-388.32 406.5,-343 408,-336.51 411.25,-329.76 414.13,-324.63"/>
<polygon fill="#9a32cd" stroke="#9a32cd" points="399.56,-472.66 404.23,-482.17 406.51,-471.82 399.56,-472.66"/>
<text text-anchor="middle" x="431" y="-401" font-family="Helvetica,sans-Serif" font-size="10.00"> elements</text>
</g>
<!-- Node9 -->
<g id="node13" class="node">
<title>Node9</title>
<g id="a_node13"><a xlink:title="STL class.">
<polygon fill="none" stroke="#bfbfbf" points="475,-482.5 475,-501.5 572,-501.5 572,-482.5 475,-482.5"/>
<text text-anchor="middle" x="523.5" y="-489.5" font-family="Helvetica,sans-Serif" font-size="10.00">std::vector&lt; T &gt;</text>
</a>
</g>
</g>
<!-- Node9&#45;&gt;Node27 -->
<g id="edge13" class="edge">
<title>Node9&#45;&gt;Node27</title>
<path fill="none" stroke="orange" stroke-dasharray="5,2" d="M489.23,-477.49C483.56,-473.88 478.31,-469.43 474.5,-464 443.25,-419.43 483.56,-389.65 455.5,-343 450.91,-335.37 443.27,-329.18 436.2,-324.66"/>
<polygon fill="orange" stroke="orange" points="487.87,-480.74 498.32,-482.5 491.25,-474.61 487.87,-480.74"/>
<text text-anchor="middle" x="503.5" y="-401" font-family="Helvetica,sans-Serif" font-size="10.00"> &lt; literalt &gt;</text>
</g>
<!-- Node29 -->
<g id="node15" class="node">
<title>Node29</title>
<g id="a_node15"><a xlink:title=" ">
<polygon fill="none" stroke="#bfbfbf" points="513,-305.5 513,-324.5 604,-324.5 604,-305.5 513,-305.5"/>
<text text-anchor="middle" x="558.5" y="-312.5" font-family="Helvetica,sans-Serif" font-size="10.00">std::list&lt; bvt &gt;</text>
</a>
</g>
</g>
<!-- Node9&#45;&gt;Node29 -->
<g id="edge16" class="edge">
<title>Node9&#45;&gt;Node29</title>
<path fill="none" stroke="#9a32cd" stroke-dasharray="5,2" d="M532.95,-473.3C534.3,-470.26 535.55,-467.08 536.5,-464 552.3,-412.6 556.93,-347.56 558.13,-324.54"/>
<polygon fill="#9a32cd" stroke="#9a32cd" points="529.81,-471.76 528.53,-482.27 536.09,-474.85 529.81,-471.76"/>
<text text-anchor="middle" x="582" y="-401" font-family="Helvetica,sans-Serif" font-size="10.00"> elements</text>
</g>
<!-- Node10 -->
<g id="node14" class="node">
<title>Node10</title>
<g id="a_node14"><a xlink:title=" ">
<polygon fill="none" stroke="#bfbfbf" points="562,-549.5 562,-568.5 591,-568.5 591,-549.5 562,-549.5"/>
<text text-anchor="middle" x="576.5" y="-556.5" font-family="Helvetica,sans-Serif" font-size="10.00">T</text>
</a>
</g>
</g>
<!-- Node10&#45;&gt;Node9 -->
<g id="edge14" class="edge">
<title>Node10&#45;&gt;Node9</title>
<path fill="none" stroke="#9a32cd" stroke-dasharray="5,2" d="M560.42,-542.09C557.04,-538.53 553.57,-534.71 550.5,-531 542.55,-521.4 534.39,-509.6 529.16,-501.72"/>
<polygon fill="#9a32cd" stroke="#9a32cd" points="557.99,-544.61 567.49,-549.31 563,-539.71 557.99,-544.61"/>
<text text-anchor="middle" x="575" y="-523" font-family="Helvetica,sans-Serif" font-size="10.00"> elements</text>
</g>
<!-- Node30 -->
<g id="node16" class="node">
<title>Node30</title>
<g id="a_node16"><a xlink:title="STL class.">
<polygon fill="none" stroke="#bfbfbf" points="590,-482.5 590,-501.5 671,-501.5 671,-482.5 590,-482.5"/>
<text text-anchor="middle" x="630.5" y="-489.5" font-family="Helvetica,sans-Serif" font-size="10.00">std::list&lt; T &gt;</text>
</a>
</g>
</g>
<!-- Node10&#45;&gt;Node30 -->
<g id="edge18" class="edge">
<title>Node10&#45;&gt;Node30</title>
<path fill="none" stroke="#9a32cd" stroke-dasharray="5,2" d="M590.91,-541.2C593.77,-537.83 596.74,-534.31 599.5,-531 607.79,-521.06 617.16,-509.53 623.41,-501.8"/>
<polygon fill="#9a32cd" stroke="#9a32cd" points="588.04,-539.16 584.21,-549.04 593.37,-543.71 588.04,-539.16"/>
<text text-anchor="middle" x="632" y="-523" font-family="Helvetica,sans-Serif" font-size="10.00"> elements</text>
</g>
<!-- Node29&#45;&gt;Node3 -->
<g id="edge15" class="edge">
<title>Node29&#45;&gt;Node3</title>
<path fill="none" stroke="#9a32cd" stroke-dasharray="5,2" d="M552.68,-295.66C540.02,-255.79 510.41,-162.52 501.25,-133.66"/>
<polygon fill="#9a32cd" stroke="#9a32cd" points="549.4,-296.92 555.77,-305.39 556.08,-294.8 549.4,-296.92"/>
<text text-anchor="middle" x="548.5" y="-212" font-family="Helvetica,sans-Serif" font-size="10.00"> clauses</text>
</g>
<!-- Node30&#45;&gt;Node29 -->
<g id="edge17" class="edge">
<title>Node30&#45;&gt;Node29</title>
<path fill="none" stroke="orange" stroke-dasharray="5,2" d="M632.72,-472.4C635.29,-442.32 636.14,-382.41 608.5,-343 602.72,-334.76 593.61,-328.8 584.74,-324.61"/>
<polygon fill="orange" stroke="orange" points="629.23,-472.06 631.7,-482.36 636.2,-472.77 629.23,-472.06"/>
<text text-anchor="middle" x="654.5" y="-401" font-family="Helvetica,sans-Serif" font-size="10.00"> &lt; bvt &gt;</text>
</g>
</g>
</svg>
