<?xml version="1.0" encoding="UTF-8" standalone="no"?>
<!DOCTYPE svg PUBLIC "-//W3C//DTD SVG 1.1//EN"
 "http://www.w3.org/Graphics/SVG/1.1/DTD/svg11.dtd">
<!-- Generated by graphviz version 2.43.0 (0)
 -->
<!-- Title: preprocessort Pages: 1 -->
<svg width="1301pt" height="427pt"
 viewBox="0.00 0.00 1301.00 427.00" xmlns="http://www.w3.org/2000/svg" xmlns:xlink="http://www.w3.org/1999/xlink">
<g id="graph0" class="graph" transform="scale(1 1) rotate(0) translate(4 423)">
<title>preprocessort</title>
<!-- Node1 -->
<g id="node1" class="node">
<title>Node1</title>
<g id="a_node1"><a xlink:title=" ">
<polygon fill="#bfbfbf" stroke="black" points="1192,-65.5 1192,-84.5 1275,-84.5 1275,-65.5 1192,-65.5"/>
<text text-anchor="middle" x="1233.5" y="-72.5" font-family="Helvetica,sans-Serif" font-size="10.00">preprocessort</text>
</a>
</g>
</g>
<!-- Node2 -->
<g id="node2" class="node">
<title>Node2</title>
<g id="a_node2"><a xlink:href="classmessaget.html" target="_top" xlink:title="Class that provides messages with a built&#45;in verbosity &#39;level&#39;.">
<polygon fill="none" stroke="black" points="972.5,-308.5 972.5,-327.5 1037.5,-327.5 1037.5,-308.5 972.5,-308.5"/>
<text text-anchor="middle" x="1005" y="-315.5" font-family="Helvetica,sans-Serif" font-size="10.00">messaget</text>
</a>
</g>
</g>
<!-- Node2&#45;&gt;Node1 -->
<g id="edge1" class="edge">
<title>Node2&#45;&gt;Node1</title>
<path fill="none" stroke="midnightblue" d="M1021.95,-300.89C1066.11,-253.51 1189.01,-121.65 1223.44,-84.72"/>
<polygon fill="midnightblue" stroke="midnightblue" points="1019.14,-298.77 1014.88,-308.47 1024.26,-303.55 1019.14,-298.77"/>
</g>
<!-- Node8 -->
<g id="node8" class="node">
<title>Node8</title>
<g id="a_node8"><a xlink:href="classmessaget_1_1mstreamt.html" target="_top" xlink:title=" ">
<polygon fill="none" stroke="black" points="1174,-310.5 1174,-329.5 1293,-329.5 1293,-310.5 1174,-310.5"/>
<text text-anchor="middle" x="1233.5" y="-317.5" font-family="Helvetica,sans-Serif" font-size="10.00">messaget::mstreamt</text>
</a>
</g>
</g>
<!-- Node2&#45;&gt;Node8 -->
<g id="edge12" class="edge">
<title>Node2&#45;&gt;Node8</title>
<path fill="none" stroke="#9a32cd" stroke-dasharray="5,2" d="M1047.63,-307.57C1056.91,-305.67 1066.74,-303.98 1076,-303 1111.36,-299.25 1120.66,-299.12 1156,-303 1169.66,-304.5 1184.45,-307.46 1197.35,-310.5"/>
<polygon fill="#9a32cd" stroke="#9a32cd" points="1046.86,-304.16 1037.83,-309.7 1048.35,-311 1046.86,-304.16"/>
<text text-anchor="middle" x="1116" y="-306" font-family="Helvetica,sans-Serif" font-size="10.00"> message</text>
</g>
<!-- Node3 -->
<g id="node3" class="node">
<title>Node3</title>
<g id="a_node3"><a xlink:href="classmessage__handlert.html" target="_top" xlink:title=" ">
<polygon fill="none" stroke="black" points="704,-311.5 704,-330.5 811,-330.5 811,-311.5 704,-311.5"/>
<text text-anchor="middle" x="757.5" y="-318.5" font-family="Helvetica,sans-Serif" font-size="10.00">message_handlert</text>
</a>
</g>
</g>
<!-- Node3&#45;&gt;Node2 -->
<g id="edge2" class="edge">
<title>Node3&#45;&gt;Node2</title>
<path fill="none" stroke="#9a32cd" stroke-dasharray="5,2" d="M821.21,-320.23C869.55,-319.64 934.37,-318.85 972.41,-318.39"/>
<polygon fill="#9a32cd" stroke="#9a32cd" points="821.12,-316.73 811.17,-320.36 821.21,-323.73 821.12,-316.73"/>
<text text-anchor="middle" x="889" y="-322" font-family="Helvetica,sans-Serif" font-size="10.00"> message_handler</text>
</g>
<!-- Node4 -->
<g id="node4" class="node">
<title>Node4</title>
<g id="a_node4"><a xlink:title=" ">
<polygon fill="none" stroke="#bfbfbf" points="433,-311.5 433,-330.5 573,-330.5 573,-311.5 433,-311.5"/>
<text text-anchor="middle" x="503" y="-318.5" font-family="Helvetica,sans-Serif" font-size="10.00">std::vector&lt; std::size_t &gt;</text>
</a>
</g>
</g>
<!-- Node4&#45;&gt;Node3 -->
<g id="edge3" class="edge">
<title>Node4&#45;&gt;Node3</title>
<path fill="none" stroke="#9a32cd" stroke-dasharray="5,2" d="M583.41,-321C622.64,-321 668.92,-321 703.74,-321"/>
<polygon fill="#9a32cd" stroke="#9a32cd" points="583.33,-317.5 573.33,-321 583.33,-324.5 583.33,-317.5"/>
<text text-anchor="middle" x="631" y="-324" font-family="Helvetica,sans-Serif" font-size="10.00"> message_count</text>
</g>
<!-- Node5 -->
<g id="node5" class="node">
<title>Node5</title>
<g id="a_node5"><a xlink:title=" ">
<polygon fill="none" stroke="#bfbfbf" points="133.5,-311.5 133.5,-330.5 230.5,-330.5 230.5,-311.5 133.5,-311.5"/>
<text text-anchor="middle" x="182" y="-318.5" font-family="Helvetica,sans-Serif" font-size="10.00">std::vector&lt; T &gt;</text>
</a>
</g>
</g>
<!-- Node5&#45;&gt;Node4 -->
<g id="edge4" class="edge">
<title>Node5&#45;&gt;Node4</title>
<path fill="none" stroke="orange" stroke-dasharray="5,2" d="M240.86,-321C294.87,-321 375.55,-321 432.93,-321"/>
<polygon fill="orange" stroke="orange" points="240.76,-317.5 230.76,-321 240.76,-324.5 240.76,-317.5"/>
<text text-anchor="middle" x="341.5" y="-324" font-family="Helvetica,sans-Serif" font-size="10.00"> &lt; std::size_t &gt;</text>
</g>
<!-- Node6 -->
<g id="node6" class="node">
<title>Node6</title>
<g id="a_node6"><a xlink:title=" ">
<polygon fill="none" stroke="#bfbfbf" points="0,-311.5 0,-330.5 29,-330.5 29,-311.5 0,-311.5"/>
<text text-anchor="middle" x="14.5" y="-318.5" font-family="Helvetica,sans-Serif" font-size="10.00">T</text>
</a>
</g>
</g>
<!-- Node6&#45;&gt;Node5 -->
<g id="edge5" class="edge">
<title>Node6&#45;&gt;Node5</title>
<path fill="none" stroke="#9a32cd" stroke-dasharray="5,2" d="M39.2,-321C63.68,-321 102.57,-321 133.43,-321"/>
<polygon fill="#9a32cd" stroke="#9a32cd" points="39.04,-317.5 29.04,-321 39.04,-324.5 39.04,-317.5"/>
<text text-anchor="middle" x="71.5" y="-324" font-family="Helvetica,sans-Serif" font-size="10.00"> elements</text>
</g>
<!-- Node7 -->
<g id="node7" class="node">
<title>Node7</title>
<g id="a_node7"><a xlink:href="classmessaget_1_1commandt.html" target="_top" xlink:title=" ">
<polygon fill="none" stroke="black" points="696,-174.5 696,-193.5 819,-193.5 819,-174.5 696,-174.5"/>
<text text-anchor="middle" x="757.5" y="-181.5" font-family="Helvetica,sans-Serif" font-size="10.00">messaget::commandt</text>
</a>
</g>
</g>
<!-- Node7&#45;&gt;Node2 -->
<g id="edge6" class="edge">
<title>Node7&#45;&gt;Node2</title>
<path fill="none" stroke="#9a32cd" stroke-dasharray="5,2" d="M817.24,-173.41C853.51,-170 899.53,-171.59 934,-193 939.6,-196.48 983.93,-279.92 999,-308.5"/>
<polygon fill="#9a32cd" stroke="#9a32cd" points="816.85,-169.93 807.29,-174.49 817.61,-176.89 816.85,-169.93"/>
<text text-anchor="middle" x="889" y="-306" font-family="Helvetica,sans-Serif" font-size="10.00"> blue</text>
<text text-anchor="middle" x="889" y="-295" font-family="Helvetica,sans-Serif" font-size="10.00">bold</text>
<text text-anchor="middle" x="889" y="-284" font-family="Helvetica,sans-Serif" font-size="10.00">bright_blue</text>
<text text-anchor="middle" x="889" y="-273" font-family="Helvetica,sans-Serif" font-size="10.00">bright_cyan</text>
<text text-anchor="middle" x="889" y="-262" font-family="Helvetica,sans-Serif" font-size="10.00">bright_green</text>
<text text-anchor="middle" x="889" y="-251" font-family="Helvetica,sans-Serif" font-size="10.00">bright_magenta</text>
<text text-anchor="middle" x="889" y="-240" font-family="Helvetica,sans-Serif" font-size="10.00">bright_red</text>
<text text-anchor="middle" x="889" y="-229" font-family="Helvetica,sans-Serif" font-size="10.00">bright_yellow</text>
<text text-anchor="middle" x="889" y="-218" font-family="Helvetica,sans-Serif" font-size="10.00">cyan</text>
<text text-anchor="middle" x="889" y="-207" font-family="Helvetica,sans-Serif" font-size="10.00">faint</text>
<text text-anchor="middle" x="889" y="-196" font-family="Helvetica,sans-Serif" font-size="10.00">...</text>
</g>
<!-- Node8&#45;&gt;Node2 -->
<g id="edge7" class="edge">
<title>Node8&#45;&gt;Node2</title>
<path fill="none" stroke="#9a32cd" stroke-dasharray="5,2" d="M1163.86,-319.39C1122.03,-319.02 1070.53,-318.57 1037.97,-318.28"/>
<polygon fill="#9a32cd" stroke="#9a32cd" points="1163.96,-322.89 1173.99,-319.48 1164.03,-315.9 1163.96,-322.89"/>
<text text-anchor="middle" x="1116" y="-322" font-family="Helvetica,sans-Serif" font-size="10.00"> mstream</text>
</g>
<!-- Node9 -->
<g id="node9" class="node">
<title>Node9</title>
<g id="a_node9"><a xlink:title=" ">
<polygon fill="none" stroke="#bfbfbf" points="952,-192.5 952,-211.5 1058,-211.5 1058,-192.5 952,-192.5"/>
<text text-anchor="middle" x="1005" y="-199.5" font-family="Helvetica,sans-Serif" font-size="10.00">std::ostringstream</text>
</a>
</g>
</g>
<!-- Node9&#45;&gt;Node8 -->
<g id="edge8" class="edge">
<title>Node9&#45;&gt;Node8</title>
<path fill="none" stroke="midnightblue" d="M1033.51,-216.33C1080.31,-240.72 1174.25,-289.65 1214.03,-310.38"/>
<polygon fill="midnightblue" stroke="midnightblue" points="1035.02,-213.17 1024.54,-211.66 1031.79,-219.38 1035.02,-213.17"/>
</g>
<!-- Node10 -->
<g id="node10" class="node">
<title>Node10</title>
<g id="a_node10"><a xlink:title=" ">
<polygon fill="none" stroke="#bfbfbf" points="689,-125 689,-155 826,-155 826,-125 689,-125"/>
<text text-anchor="start" x="697" y="-143" font-family="Helvetica,sans-Serif" font-size="10.00">std::basic_ostringstream</text>
<text text-anchor="middle" x="757.5" y="-132" font-family="Helvetica,sans-Serif" font-size="10.00">&lt; Char &gt;</text>
</a>
</g>
</g>
<!-- Node10&#45;&gt;Node9 -->
<g id="edge9" class="edge">
<title>Node10&#45;&gt;Node9</title>
<path fill="none" stroke="midnightblue" d="M836.58,-141.07C867.58,-143.39 903.13,-148.45 934,-159 956.13,-166.57 978.64,-182.08 991.95,-192.26"/>
<polygon fill="midnightblue" stroke="midnightblue" points="836.47,-137.56 826.26,-140.39 836.01,-144.54 836.47,-137.56"/>
</g>
<!-- Node11 -->
<g id="node11" class="node">
<title>Node11</title>
<g id="a_node11"><a xlink:title=" ">
<polygon fill="none" stroke="#bfbfbf" points="448.5,-81 448.5,-111 557.5,-111 557.5,-81 448.5,-81"/>
<text text-anchor="start" x="456.5" y="-99" font-family="Helvetica,sans-Serif" font-size="10.00">std::basic_ostream</text>
<text text-anchor="middle" x="503" y="-88" font-family="Helvetica,sans-Serif" font-size="10.00">&lt; Char &gt;</text>
</a>
</g>
</g>
<!-- Node11&#45;&gt;Node10 -->
<g id="edge10" class="edge">
<title>Node11&#45;&gt;Node10</title>
<path fill="none" stroke="midnightblue" d="M567.69,-107.1C604.57,-113.53 651,-121.62 688.59,-128.17"/>
<polygon fill="midnightblue" stroke="midnightblue" points="568,-103.6 557.55,-105.33 566.8,-110.5 568,-103.6"/>
</g>
<!-- Node27 -->
<g id="node22" class="node">
<title>Node27</title>
<g id="a_node22"><a xlink:title=" ">
<polygon fill="none" stroke="#bfbfbf" points="850,-87.5 850,-106.5 928,-106.5 928,-87.5 850,-87.5"/>
<text text-anchor="middle" x="889" y="-94.5" font-family="Helvetica,sans-Serif" font-size="10.00">std::ostream</text>
</a>
</g>
</g>
<!-- Node11&#45;&gt;Node27 -->
<g id="edge24" class="edge">
<title>Node11&#45;&gt;Node27</title>
<path fill="none" stroke="midnightblue" d="M567.81,-96.17C648.29,-96.38 784.08,-96.73 849.93,-96.9"/>
<polygon fill="midnightblue" stroke="midnightblue" points="567.81,-92.67 557.8,-96.14 567.79,-99.67 567.81,-92.67"/>
</g>
<!-- Node12 -->
<g id="node12" class="node">
<title>Node12</title>
<g id="a_node12"><a xlink:title=" ">
<polygon fill="none" stroke="#bfbfbf" points="118,-59.5 118,-78.5 246,-78.5 246,-59.5 118,-59.5"/>
<text text-anchor="middle" x="182" y="-66.5" font-family="Helvetica,sans-Serif" font-size="10.00">std::basic_ios&lt; Char &gt;</text>
</a>
</g>
</g>
<!-- Node12&#45;&gt;Node11 -->
<g id="edge11" class="edge">
<title>Node12&#45;&gt;Node11</title>
<path fill="none" stroke="midnightblue" d="M256.33,-75.21C314.93,-80.17 395.7,-87 448.38,-91.46"/>
<polygon fill="midnightblue" stroke="midnightblue" points="256.28,-71.69 246.02,-74.33 255.69,-78.67 256.28,-71.69"/>
</g>
<!-- Node24 -->
<g id="node19" class="node">
<title>Node24</title>
<g id="a_node19"><a xlink:title=" ">
<polygon fill="none" stroke="#bfbfbf" points="450,-13 450,-43 556,-43 556,-13 450,-13"/>
<text text-anchor="start" x="458" y="-31" font-family="Helvetica,sans-Serif" font-size="10.00">std::basic_istream</text>
<text text-anchor="middle" x="503" y="-20" font-family="Helvetica,sans-Serif" font-size="10.00">&lt; Char &gt;</text>
</a>
</g>
</g>
<!-- Node12&#45;&gt;Node24 -->
<g id="edge20" class="edge">
<title>Node12&#45;&gt;Node24</title>
<path fill="none" stroke="midnightblue" d="M256.06,-59.61C315.25,-52 397.2,-41.47 449.91,-34.69"/>
<polygon fill="midnightblue" stroke="midnightblue" points="255.5,-56.15 246.02,-60.9 256.39,-63.1 255.5,-56.15"/>
</g>
<!-- Node14 -->
<g id="node13" class="node">
<title>Node14</title>
<g id="a_node13"><a xlink:href="classsource__locationt.html" target="_top" xlink:title=" ">
<polygon fill="none" stroke="black" points="956.5,-382.5 956.5,-401.5 1053.5,-401.5 1053.5,-382.5 956.5,-382.5"/>
<text text-anchor="middle" x="1005" y="-389.5" font-family="Helvetica,sans-Serif" font-size="10.00">source_locationt</text>
</a>
</g>
</g>
<!-- Node14&#45;&gt;Node8 -->
<g id="edge13" class="edge">
<title>Node14&#45;&gt;Node8</title>
<path fill="none" stroke="#9a32cd" stroke-dasharray="5,2" d="M1045.73,-379.37C1090.4,-365.17 1161.96,-342.42 1202.3,-329.6"/>
<polygon fill="#9a32cd" stroke="#9a32cd" points="1044.55,-376.07 1036.08,-382.44 1046.67,-382.74 1044.55,-376.07"/>
<text text-anchor="middle" x="1116" y="-371" font-family="Helvetica,sans-Serif" font-size="10.00"> source_location</text>
</g>
<!-- Node15 -->
<g id="node14" class="node">
<title>Node15</title>
<g id="a_node14"><a xlink:href="classirept.html" target="_top" xlink:title="There are a large number of kinds of tree structured or tree&#45;like data in CPROVER.">
<polygon fill="none" stroke="black" points="738,-387.5 738,-406.5 777,-406.5 777,-387.5 738,-387.5"/>
<text text-anchor="middle" x="757.5" y="-394.5" font-family="Helvetica,sans-Serif" font-size="10.00">irept</text>
</a>
</g>
</g>
<!-- Node15&#45;&gt;Node14 -->
<g id="edge14" class="edge">
<title>Node15&#45;&gt;Node14</title>
<path fill="none" stroke="midnightblue" d="M787.37,-396.41C828.97,-395.56 906.29,-393.99 956.41,-392.97"/>
<polygon fill="midnightblue" stroke="midnightblue" points="787.28,-392.91 777.36,-396.62 787.43,-399.91 787.28,-392.91"/>
</g>
<!-- Node16 -->
<g id="node15" class="node">
<title>Node16</title>
<g id="a_node15"><a xlink:href="classsharing__treet.html" target="_top" xlink:title=" ">
<polygon fill="none" stroke="black" points="440.5,-376.5 440.5,-417.5 565.5,-417.5 565.5,-376.5 440.5,-376.5"/>
<text text-anchor="start" x="448.5" y="-405.5" font-family="Helvetica,sans-Serif" font-size="10.00">sharing_treet&lt; irept,</text>
<text text-anchor="start" x="448.5" y="-394.5" font-family="Helvetica,sans-Serif" font-size="10.00"> forward_list_as_mapt</text>
<text text-anchor="middle" x="503" y="-383.5" font-family="Helvetica,sans-Serif" font-size="10.00">&lt; irep_idt, irept &gt; &gt;</text>
</a>
</g>
</g>
<!-- Node16&#45;&gt;Node15 -->
<g id="edge15" class="edge">
<title>Node16&#45;&gt;Node15</title>
<path fill="none" stroke="midnightblue" d="M575.9,-397C631.32,-397 704.01,-397 737.77,-397"/>
<polygon fill="midnightblue" stroke="midnightblue" points="575.77,-393.5 565.77,-397 575.77,-400.5 575.77,-393.5"/>
</g>
<!-- Node17 -->
<g id="node16" class="node">
<title>Node17</title>
<g id="a_node16"><a xlink:href="classsharing__treet.html" target="_top" xlink:title="Base class for tree&#45;like data structures with sharing.">
<polygon fill="none" stroke="red" points="114,-382 114,-412 250,-412 250,-382 114,-382"/>
<text text-anchor="start" x="122" y="-400" font-family="Helvetica,sans-Serif" font-size="10.00">sharing_treet&lt; derivedt,</text>
<text text-anchor="middle" x="182" y="-389" font-family="Helvetica,sans-Serif" font-size="10.00"> named_subtreest &gt;</text>
</a>
</g>
</g>
<!-- Node17&#45;&gt;Node16 -->
<g id="edge16" class="edge">
<title>Node17&#45;&gt;Node16</title>
<path fill="none" stroke="orange" stroke-dasharray="5,2" d="M260.36,-397C315.59,-397 388.9,-397 440.24,-397"/>
<polygon fill="orange" stroke="orange" points="260.26,-393.5 250.26,-397 260.26,-400.5 260.26,-393.5"/>
<text text-anchor="start" x="268" y="-411" font-family="Helvetica,sans-Serif" font-size="10.00"> &lt; irept, forward_list</text>
<text text-anchor="middle" x="341.5" y="-400" font-family="Helvetica,sans-Serif" font-size="10.00">_as_mapt&lt; irep_idt, irept &gt; &gt;</text>
</g>
<!-- Node22 -->
<g id="node17" class="node">
<title>Node22</title>
<g id="a_node17"><a xlink:href="classmessaget_1_1eomt.html" target="_top" xlink:title=" ">
<polygon fill="none" stroke="black" points="709.5,-349.5 709.5,-368.5 805.5,-368.5 805.5,-349.5 709.5,-349.5"/>
<text text-anchor="middle" x="757.5" y="-356.5" font-family="Helvetica,sans-Serif" font-size="10.00">messaget::eomt</text>
</a>
</g>
</g>
<!-- Node22&#45;&gt;Node2 -->
<g id="edge17" class="edge">
<title>Node22&#45;&gt;Node2</title>
<path fill="none" stroke="#9a32cd" stroke-dasharray="5,2" d="M815.93,-352.05C850.3,-347.58 894.78,-341.26 934,-334 946.63,-331.66 960.42,-328.62 972.41,-325.81"/>
<polygon fill="#9a32cd" stroke="#9a32cd" points="815.07,-348.63 805.6,-353.37 815.97,-355.57 815.07,-348.63"/>
<text text-anchor="middle" x="889" y="-350" font-family="Helvetica,sans-Serif" font-size="10.00"> eom</text>
</g>
<!-- Node23 -->
<g id="node18" class="node">
<title>Node23</title>
<g id="a_node18"><a xlink:title=" ">
<polygon fill="none" stroke="#bfbfbf" points="851.5,-0.5 851.5,-19.5 926.5,-19.5 926.5,-0.5 851.5,-0.5"/>
<text text-anchor="middle" x="889" y="-7.5" font-family="Helvetica,sans-Serif" font-size="10.00">std::istream</text>
</a>
</g>
</g>
<!-- Node23&#45;&gt;Node1 -->
<g id="edge18" class="edge">
<title>Node23&#45;&gt;Node1</title>
<path fill="none" stroke="#9a32cd" stroke-dasharray="5,2" d="M936.76,-10.55C970.66,-11.62 1017.48,-14.5 1058,-22 1112.48,-32.09 1174.02,-53.15 1207.51,-65.47"/>
<polygon fill="#9a32cd" stroke="#9a32cd" points="936.77,-7.05 926.67,-10.27 936.57,-14.04 936.77,-7.05"/>
<text text-anchor="middle" x="1005" y="-25" font-family="Helvetica,sans-Serif" font-size="10.00"> in</text>
</g>
<!-- Node24&#45;&gt;Node23 -->
<g id="edge19" class="edge">
<title>Node24&#45;&gt;Node23</title>
<path fill="none" stroke="midnightblue" d="M566.24,-25.08C647.13,-21.29 785.78,-14.79 851.45,-11.71"/>
<polygon fill="midnightblue" stroke="midnightblue" points="566.01,-21.59 556.19,-25.55 566.34,-28.58 566.01,-21.59"/>
</g>
<!-- Node25 -->
<g id="node20" class="node">
<title>Node25</title>
<g id="a_node20"><a xlink:title=" ">
<polygon fill="none" stroke="#bfbfbf" points="972.5,-42.5 972.5,-61.5 1037.5,-61.5 1037.5,-42.5 972.5,-42.5"/>
<text text-anchor="middle" x="1005" y="-49.5" font-family="Helvetica,sans-Serif" font-size="10.00">std::string</text>
</a>
</g>
</g>
<!-- Node25&#45;&gt;Node1 -->
<g id="edge21" class="edge">
<title>Node25&#45;&gt;Node1</title>
<path fill="none" stroke="#9a32cd" stroke-dasharray="5,2" d="M1047.94,-56.26C1089.04,-60.43 1151.25,-66.75 1191.89,-70.88"/>
<polygon fill="#9a32cd" stroke="#9a32cd" points="1048.27,-52.77 1037.97,-55.25 1047.57,-59.74 1048.27,-52.77"/>
<text text-anchor="middle" x="1116" y="-69" font-family="Helvetica,sans-Serif" font-size="10.00"> filename</text>
</g>
<!-- Node26 -->
<g id="node21" class="node">
<title>Node26</title>
<g id="a_node21"><a xlink:title=" ">
<polygon fill="none" stroke="#bfbfbf" points="705.5,-37 705.5,-67 809.5,-67 809.5,-37 705.5,-37"/>
<text text-anchor="start" x="713.5" y="-55" font-family="Helvetica,sans-Serif" font-size="10.00">std::basic_string&lt;</text>
<text text-anchor="middle" x="757.5" y="-44" font-family="Helvetica,sans-Serif" font-size="10.00"> Char &gt;</text>
</a>
</g>
</g>
<!-- Node26&#45;&gt;Node25 -->
<g id="edge22" class="edge">
<title>Node26&#45;&gt;Node25</title>
<path fill="none" stroke="midnightblue" d="M819.73,-52C868.2,-52 933.92,-52 972.36,-52"/>
<polygon fill="midnightblue" stroke="midnightblue" points="819.67,-48.5 809.67,-52 819.67,-55.5 819.67,-48.5"/>
</g>
<!-- Node27&#45;&gt;Node1 -->
<g id="edge23" class="edge">
<title>Node27&#45;&gt;Node1</title>
<path fill="none" stroke="#9a32cd" stroke-dasharray="5,2" d="M938.53,-94.35C991.86,-91.37 1080.06,-86.26 1156,-81 1167.56,-80.2 1180.1,-79.25 1191.62,-78.34"/>
<polygon fill="#9a32cd" stroke="#9a32cd" points="938.13,-90.86 928.34,-94.91 938.52,-97.85 938.13,-90.86"/>
<text text-anchor="middle" x="1005" y="-96" font-family="Helvetica,sans-Serif" font-size="10.00"> out</text>
</g>
</g>
</svg>
