<?xml version="1.0" encoding="UTF-8" standalone="no"?>
<!DOCTYPE svg PUBLIC "-//W3C//DTD SVG 1.1//EN"
 "http://www.w3.org/Graphics/SVG/1.1/DTD/svg11.dtd">
<!-- Generated by graphviz version 2.43.0 (0)
 -->
<!-- Title: class_hierarchy_graph_nodet Pages: 1 -->
<svg width="162pt" height="174pt"
 viewBox="0.00 0.00 161.50 174.00" xmlns="http://www.w3.org/2000/svg" xmlns:xlink="http://www.w3.org/1999/xlink">
<g id="graph0" class="graph" transform="scale(1 1) rotate(0) translate(4 170)">
<title>class_hierarchy_graph_nodet</title>
<!-- Node1 -->
<g id="node1" class="node">
<title>Node1</title>
<g id="a_node1"><a xlink:title="Class hierarchy graph node: simply contains a class identifier.">
<polygon fill="#bfbfbf" stroke="black" points="0,-0.5 0,-30.5 125,-30.5 125,-0.5 0,-0.5"/>
<text text-anchor="start" x="8" y="-18.5" font-family="Helvetica,sans-Serif" font-size="10.00">class_hierarchy_graph</text>
<text text-anchor="middle" x="62.5" y="-7.5" font-family="Helvetica,sans-Serif" font-size="10.00">_nodet</text>
</a>
</g>
</g>
<!-- Node2 -->
<g id="node2" class="node">
<title>Node2</title>
<g id="a_node2"><a xlink:href="classgraph__nodet.html" target="_top" xlink:title=" ">
<polygon fill="none" stroke="black" points="2.5,-68.5 2.5,-98.5 122.5,-98.5 122.5,-68.5 2.5,-68.5"/>
<text text-anchor="start" x="10.5" y="-86.5" font-family="Helvetica,sans-Serif" font-size="10.00">graph_nodet&lt; empty</text>
<text text-anchor="middle" x="62.5" y="-75.5" font-family="Helvetica,sans-Serif" font-size="10.00">_edget &gt;</text>
</a>
</g>
</g>
<!-- Node2&#45;&gt;Node1 -->
<g id="edge1" class="edge">
<title>Node2&#45;&gt;Node1</title>
<path fill="none" stroke="midnightblue" d="M62.5,-58.03C62.5,-48.86 62.5,-38.74 62.5,-30.79"/>
<polygon fill="midnightblue" stroke="midnightblue" points="59,-58.18 62.5,-68.18 66,-58.18 59,-58.18"/>
</g>
<!-- Node3 -->
<g id="node3" class="node">
<title>Node3</title>
<g id="a_node3"><a xlink:href="classgraph__nodet.html" target="_top" xlink:title="This class represents a node in a directed graph.">
<polygon fill="none" stroke="black" points="9.5,-146.5 9.5,-165.5 115.5,-165.5 115.5,-146.5 9.5,-146.5"/>
<text text-anchor="middle" x="62.5" y="-153.5" font-family="Helvetica,sans-Serif" font-size="10.00">graph_nodet&lt; E &gt;</text>
</a>
</g>
</g>
<!-- Node3&#45;&gt;Node2 -->
<g id="edge2" class="edge">
<title>Node3&#45;&gt;Node2</title>
<path fill="none" stroke="orange" stroke-dasharray="5,2" d="M62.5,-136.24C62.5,-124.41 62.5,-109.38 62.5,-98.58"/>
<polygon fill="orange" stroke="orange" points="59,-136.36 62.5,-146.36 66,-136.36 59,-136.36"/>
<text text-anchor="middle" x="108" y="-120" font-family="Helvetica,sans-Serif" font-size="10.00"> &lt; empty_edget &gt;</text>
</g>
</g>
</svg>
