<?xml version="1.0" encoding="UTF-8" standalone="no"?>
<!DOCTYPE svg PUBLIC "-//W3C//DTD SVG 1.1//EN"
 "http://www.w3.org/Graphics/SVG/1.1/DTD/svg11.dtd">
<!-- Generated by graphviz version 2.43.0 (0)
 -->
<!-- Title: goto_model_functiont Pages: 1 -->
<svg width="1703pt" height="349pt"
 viewBox="0.00 0.00 1703.00 348.81" xmlns="http://www.w3.org/2000/svg" xmlns:xlink="http://www.w3.org/1999/xlink">
<g id="graph0" class="graph" transform="scale(1 1) rotate(0) translate(4 344.81)">
<title>goto_model_functiont</title>
<!-- Node1 -->
<g id="node1" class="node">
<title>Node1</title>
<g id="a_node1"><a xlink:title="Interface providing access to a single function in a GOTO model, plus its associated symbol table.">
<polygon fill="#bfbfbf" stroke="black" points="1572,-182.31 1572,-201.31 1695,-201.31 1695,-182.31 1572,-182.31"/>
<text text-anchor="middle" x="1633.5" y="-189.31" font-family="Helvetica,sans-Serif" font-size="10.00">goto_model_functiont</text>
</a>
</g>
</g>
<!-- Node2 -->
<g id="node2" class="node">
<title>Node2</title>
<g id="a_node2"><a xlink:href="classdstringt.html" target="_top" xlink:title="dstringt has one field, an unsigned integer no which is an index into a static table of strings.">
<polygon fill="none" stroke="black" points="407.5,-170.31 407.5,-189.31 461.5,-189.31 461.5,-170.31 407.5,-170.31"/>
<text text-anchor="middle" x="434.5" y="-177.31" font-family="Helvetica,sans-Serif" font-size="10.00">dstringt</text>
</a>
</g>
</g>
<!-- Node2&#45;&gt;Node1 -->
<g id="edge1" class="edge">
<title>Node2&#45;&gt;Node1</title>
<path fill="none" stroke="#9a32cd" stroke-dasharray="5,2" d="M471.89,-182.44C524.13,-185.97 623.38,-191.81 708,-191.81 708,-191.81 708,-191.81 1415,-191.81 1467.86,-191.81 1527.96,-191.81 1571.56,-191.81"/>
<polygon fill="#9a32cd" stroke="#9a32cd" points="472.01,-178.94 461.79,-181.74 471.53,-185.92 472.01,-178.94"/>
<text text-anchor="middle" x="1105" y="-194.81" font-family="Helvetica,sans-Serif" font-size="10.00"> function_id</text>
</g>
<!-- Node9 -->
<g id="node9" class="node">
<title>Node9</title>
<g id="a_node9"><a xlink:title=" ">
<polygon fill="none" stroke="#bfbfbf" points="655.5,-220.81 655.5,-250.81 762.5,-250.81 762.5,-220.81 655.5,-220.81"/>
<text text-anchor="start" x="663.5" y="-238.81" font-family="Helvetica,sans-Serif" font-size="10.00">std::unordered_set</text>
<text text-anchor="middle" x="709" y="-227.81" font-family="Helvetica,sans-Serif" font-size="10.00">&lt; irep_idt &gt;</text>
</a>
</g>
</g>
<!-- Node2&#45;&gt;Node9 -->
<g id="edge12" class="edge">
<title>Node2&#45;&gt;Node9</title>
<path fill="none" stroke="#9a32cd" stroke-dasharray="5,2" d="M471.57,-190.27C486.76,-194.48 504.66,-199.18 521,-202.81 566.05,-212.83 617.76,-221.76 655.36,-227.8"/>
<polygon fill="#9a32cd" stroke="#9a32cd" points="472.12,-186.79 461.55,-187.46 470.23,-193.53 472.12,-186.79"/>
<text text-anchor="middle" x="574" y="-224.81" font-family="Helvetica,sans-Serif" font-size="10.00"> keys</text>
</g>
<!-- Node12 -->
<g id="node12" class="node">
<title>Node12</title>
<g id="a_node12"><a xlink:title=" ">
<polygon fill="none" stroke="#bfbfbf" points="1152,-122.81 1152,-152.81 1262,-152.81 1262,-122.81 1152,-122.81"/>
<text text-anchor="start" x="1160" y="-140.81" font-family="Helvetica,sans-Serif" font-size="10.00">std::map&lt; irep_idt,</text>
<text text-anchor="middle" x="1207" y="-129.81" font-family="Helvetica,sans-Serif" font-size="10.00"> goto_functiont &gt;</text>
</a>
</g>
</g>
<!-- Node2&#45;&gt;Node12 -->
<g id="edge27" class="edge">
<title>Node2&#45;&gt;Node12</title>
<path fill="none" stroke="#9a32cd" stroke-dasharray="5,2" d="M471.68,-177.84C595.68,-171.08 1003.94,-148.83 1151.87,-140.76"/>
<polygon fill="#9a32cd" stroke="#9a32cd" points="471.37,-174.35 461.58,-178.39 471.75,-181.34 471.37,-174.35"/>
<text text-anchor="middle" x="860.5" y="-163.81" font-family="Helvetica,sans-Serif" font-size="10.00"> keys</text>
</g>
<!-- Node14 -->
<g id="node14" class="node">
<title>Node14</title>
<g id="a_node14"><a xlink:title=" ">
<polygon fill="none" stroke="#bfbfbf" points="645,-104.31 645,-123.31 773,-123.31 773,-104.31 645,-104.31"/>
<text text-anchor="middle" x="709" y="-111.31" font-family="Helvetica,sans-Serif" font-size="10.00">std::vector&lt; irep_idt &gt;</text>
</a>
</g>
</g>
<!-- Node2&#45;&gt;Node14 -->
<g id="edge19" class="edge">
<title>Node2&#45;&gt;Node14</title>
<path fill="none" stroke="#9a32cd" stroke-dasharray="5,2" d="M462.36,-165.63C478.86,-157.49 500.66,-147.74 521,-141.81 561.34,-130.06 608.09,-123.06 644.76,-119"/>
<polygon fill="#9a32cd" stroke="#9a32cd" points="460.66,-162.56 453.31,-170.19 463.81,-168.81 460.66,-162.56"/>
<text text-anchor="middle" x="574" y="-144.81" font-family="Helvetica,sans-Serif" font-size="10.00"> elements</text>
</g>
<!-- Node3 -->
<g id="node3" class="node">
<title>Node3</title>
<g id="a_node3"><a xlink:href="classjournalling__symbol__tablet.html" target="_top" xlink:title="A symbol table wrapper that records which entries have been updated/removed.">
<polygon fill="none" stroke="black" points="948,-248.81 948,-278.81 1058,-278.81 1058,-248.81 948,-248.81"/>
<text text-anchor="start" x="956" y="-266.81" font-family="Helvetica,sans-Serif" font-size="10.00">journalling_symbol</text>
<text text-anchor="middle" x="1003" y="-255.81" font-family="Helvetica,sans-Serif" font-size="10.00">_tablet</text>
</a>
</g>
</g>
<!-- Node3&#45;&gt;Node1 -->
<g id="edge2" class="edge">
<title>Node3&#45;&gt;Node1</title>
<path fill="none" stroke="#9a32cd" stroke-dasharray="5,2" d="M1068.24,-258.54C1171.08,-249.76 1378.91,-230.63 1554,-205.81 1563.05,-204.53 1572.65,-202.98 1581.91,-201.38"/>
<polygon fill="#9a32cd" stroke="#9a32cd" points="1067.69,-255.07 1058.02,-259.41 1068.28,-262.05 1067.69,-255.07"/>
<text text-anchor="middle" x="1315" y="-240.81" font-family="Helvetica,sans-Serif" font-size="10.00"> symbol_table</text>
</g>
<!-- Node4 -->
<g id="node4" class="node">
<title>Node4</title>
<g id="a_node4"><a xlink:href="classsymbol__table__baset.html" target="_top" xlink:title="The symbol table base class interface.">
<polygon fill="none" stroke="black" points="651.5,-295.31 651.5,-314.31 766.5,-314.31 766.5,-295.31 651.5,-295.31"/>
<text text-anchor="middle" x="709" y="-302.31" font-family="Helvetica,sans-Serif" font-size="10.00">symbol_table_baset</text>
</a>
</g>
</g>
<!-- Node4&#45;&gt;Node3 -->
<g id="edge3" class="edge">
<title>Node4&#45;&gt;Node3</title>
<path fill="none" stroke="midnightblue" d="M776.97,-310.25C821.07,-312.07 879.73,-311.11 930,-298.81 946.74,-294.72 964.16,-286.38 977.67,-278.87"/>
<polygon fill="midnightblue" stroke="midnightblue" points="777.09,-306.76 766.94,-309.78 776.76,-313.75 777.09,-306.76"/>
</g>
<!-- Node4&#45;&gt;Node3 -->
<g id="edge10" class="edge">
<title>Node4&#45;&gt;Node3</title>
<path fill="none" stroke="#9a32cd" stroke-dasharray="5,2" d="M756.54,-292.83C767.77,-290.24 779.77,-287.71 791,-285.81 844.02,-276.87 905.2,-270.97 947.98,-267.55"/>
<polygon fill="#9a32cd" stroke="#9a32cd" points="755.42,-289.5 746.49,-295.22 757.03,-296.32 755.42,-289.5"/>
<text text-anchor="middle" x="860.5" y="-288.81" font-family="Helvetica,sans-Serif" font-size="10.00"> base_symbol_table</text>
</g>
<!-- Node5 -->
<g id="node5" class="node">
<title>Node5</title>
<g id="a_node5"><a xlink:title="STL class.">
<polygon fill="none" stroke="#bfbfbf" points="371.5,-317.31 371.5,-336.31 497.5,-336.31 497.5,-317.31 371.5,-317.31"/>
<text text-anchor="middle" x="434.5" y="-324.31" font-family="Helvetica,sans-Serif" font-size="10.00">std::multimap&lt; K, T &gt;</text>
</a>
</g>
</g>
<!-- Node5&#45;&gt;Node4 -->
<g id="edge4" class="edge">
<title>Node5&#45;&gt;Node4</title>
<path fill="none" stroke="#9a32cd" stroke-dasharray="5,2" d="M507.65,-320.99C552.56,-317.36 609.51,-312.77 651.2,-309.4"/>
<polygon fill="#9a32cd" stroke="#9a32cd" points="507.36,-317.5 497.68,-321.79 507.92,-324.48 507.36,-317.5"/>
<text text-anchor="middle" x="574" y="-332.81" font-family="Helvetica,sans-Serif" font-size="10.00"> symbol_base_map</text>
<text text-anchor="middle" x="574" y="-321.81" font-family="Helvetica,sans-Serif" font-size="10.00">symbol_module_map</text>
</g>
<!-- Node6 -->
<g id="node6" class="node">
<title>Node6</title>
<g id="a_node6"><a xlink:title=" ">
<polygon fill="none" stroke="#bfbfbf" points="159,-196.31 159,-215.31 188,-215.31 188,-196.31 159,-196.31"/>
<text text-anchor="middle" x="173.5" y="-203.31" font-family="Helvetica,sans-Serif" font-size="10.00">K</text>
</a>
</g>
</g>
<!-- Node6&#45;&gt;Node5 -->
<g id="edge5" class="edge">
<title>Node6&#45;&gt;Node5</title>
<path fill="none" stroke="#9a32cd" stroke-dasharray="5,2" d="M197.36,-220.09C232.51,-241.53 302.42,-282.28 366,-307.81 374.92,-311.4 384.77,-314.58 394.12,-317.27"/>
<polygon fill="#9a32cd" stroke="#9a32cd" points="198.76,-216.84 188.41,-214.58 195.09,-222.8 198.76,-216.84"/>
<text text-anchor="middle" x="299.5" y="-300.81" font-family="Helvetica,sans-Serif" font-size="10.00"> keys</text>
</g>
<!-- Node8 -->
<g id="node8" class="node">
<title>Node8</title>
<g id="a_node8"><a xlink:title="STL class.">
<polygon fill="none" stroke="#bfbfbf" points="377.5,-267.81 377.5,-297.81 491.5,-297.81 491.5,-267.81 377.5,-267.81"/>
<text text-anchor="start" x="385.5" y="-285.81" font-family="Helvetica,sans-Serif" font-size="10.00">std::unordered_map</text>
<text text-anchor="middle" x="434.5" y="-274.81" font-family="Helvetica,sans-Serif" font-size="10.00">&lt; K, T &gt;</text>
</a>
</g>
</g>
<!-- Node6&#45;&gt;Node8 -->
<g id="edge8" class="edge">
<title>Node6&#45;&gt;Node8</title>
<path fill="none" stroke="#9a32cd" stroke-dasharray="5,2" d="M198.15,-205.96C239.5,-206.59 322.96,-209.63 348,-223.81 359.6,-230.38 355.83,-239.2 366,-247.81 375.27,-255.66 386.59,-262.39 397.3,-267.79"/>
<polygon fill="#9a32cd" stroke="#9a32cd" points="198.18,-202.46 188.14,-205.84 198.1,-209.46 198.18,-202.46"/>
<text text-anchor="middle" x="299.5" y="-226.81" font-family="Helvetica,sans-Serif" font-size="10.00"> keys</text>
</g>
<!-- Node10 -->
<g id="node10" class="node">
<title>Node10</title>
<g id="a_node10"><a xlink:title="STL class.">
<polygon fill="none" stroke="#bfbfbf" points="366,-219.31 366,-238.31 503,-238.31 503,-219.31 366,-219.31"/>
<text text-anchor="middle" x="434.5" y="-226.31" font-family="Helvetica,sans-Serif" font-size="10.00">std::unordered_set&lt; K &gt;</text>
</a>
</g>
</g>
<!-- Node6&#45;&gt;Node10 -->
<g id="edge14" class="edge">
<title>Node6&#45;&gt;Node10</title>
<path fill="none" stroke="#9a32cd" stroke-dasharray="5,2" d="M198.03,-198.92C231.71,-190.1 295.4,-177.4 348,-189.81 356.71,-191.87 357.91,-195 366,-198.81 380.96,-205.87 397.98,-213.44 411.19,-219.2"/>
<polygon fill="#9a32cd" stroke="#9a32cd" points="196.93,-195.59 188.21,-201.6 198.77,-202.34 196.93,-195.59"/>
<text text-anchor="middle" x="299.5" y="-192.81" font-family="Helvetica,sans-Serif" font-size="10.00"> keys</text>
</g>
<!-- Node29 -->
<g id="node20" class="node">
<title>Node29</title>
<g id="a_node20"><a xlink:title="STL class.">
<polygon fill="none" stroke="#bfbfbf" points="384,-14.31 384,-33.31 485,-33.31 485,-14.31 384,-14.31"/>
<text text-anchor="middle" x="434.5" y="-21.31" font-family="Helvetica,sans-Serif" font-size="10.00">std::map&lt; K, T &gt;</text>
</a>
</g>
</g>
<!-- Node6&#45;&gt;Node29 -->
<g id="edge29" class="edge">
<title>Node6&#45;&gt;Node29</title>
<path fill="none" stroke="#9a32cd" stroke-dasharray="5,2" d="M197.28,-194.54C212.38,-187.21 232.72,-177.59 251,-169.81 293.46,-151.76 318.21,-168.05 348,-132.81 374.34,-101.66 338.29,-72.75 366,-42.81 370.88,-37.54 377.1,-33.69 383.77,-30.89"/>
<polygon fill="#9a32cd" stroke="#9a32cd" points="195.62,-191.46 188.18,-198.99 198.7,-197.74 195.62,-191.46"/>
<text text-anchor="middle" x="299.5" y="-172.81" font-family="Helvetica,sans-Serif" font-size="10.00"> keys</text>
</g>
<!-- Node7 -->
<g id="node7" class="node">
<title>Node7</title>
<g id="a_node7"><a xlink:title=" ">
<polygon fill="none" stroke="#bfbfbf" points="0,-134.31 0,-153.31 29,-153.31 29,-134.31 0,-134.31"/>
<text text-anchor="middle" x="14.5" y="-141.31" font-family="Helvetica,sans-Serif" font-size="10.00">T</text>
</a>
</g>
</g>
<!-- Node7&#45;&gt;Node5 -->
<g id="edge6" class="edge">
<title>Node7&#45;&gt;Node5</title>
<path fill="none" stroke="#9a32cd" stroke-dasharray="5,2" d="M22.77,-163.11C35.68,-194.28 65.89,-254.75 114,-279.81 195.67,-322.36 304.07,-329.66 371.27,-329.42"/>
<polygon fill="#9a32cd" stroke="#9a32cd" points="25.86,-161.41 18.92,-153.41 19.35,-164 25.86,-161.41"/>
<text text-anchor="middle" x="173.5" y="-319.81" font-family="Helvetica,sans-Serif" font-size="10.00"> elements</text>
</g>
<!-- Node7&#45;&gt;Node8 -->
<g id="edge9" class="edge">
<title>Node7&#45;&gt;Node8</title>
<path fill="none" stroke="#9a32cd" stroke-dasharray="5,2" d="M31.96,-160.73C50.42,-178.85 82,-207.35 114,-224.81 197.88,-270.58 310.75,-281.17 377.45,-283.1"/>
<polygon fill="#9a32cd" stroke="#9a32cd" points="34.21,-158.03 24.66,-153.44 29.26,-162.98 34.21,-158.03"/>
<text text-anchor="middle" x="173.5" y="-267.81" font-family="Helvetica,sans-Serif" font-size="10.00"> elements</text>
</g>
<!-- Node15 -->
<g id="node15" class="node">
<title>Node15</title>
<g id="a_node15"><a xlink:title="STL class.">
<polygon fill="none" stroke="#bfbfbf" points="251,-112.31 251,-131.31 348,-131.31 348,-112.31 251,-112.31"/>
<text text-anchor="middle" x="299.5" y="-119.31" font-family="Helvetica,sans-Serif" font-size="10.00">std::vector&lt; T &gt;</text>
</a>
</g>
</g>
<!-- Node7&#45;&gt;Node15 -->
<g id="edge21" class="edge">
<title>Node7&#45;&gt;Node15</title>
<path fill="none" stroke="#9a32cd" stroke-dasharray="5,2" d="M39.16,-141.97C85.61,-138.36 189.53,-130.29 250.78,-125.52"/>
<polygon fill="#9a32cd" stroke="#9a32cd" points="38.85,-138.49 29.15,-142.75 39.39,-145.47 38.85,-138.49"/>
<text text-anchor="middle" x="71.5" y="-144.81" font-family="Helvetica,sans-Serif" font-size="10.00"> elements</text>
</g>
<!-- Node28 -->
<g id="node19" class="node">
<title>Node28</title>
<g id="a_node19"><a xlink:title="STL class.">
<polygon fill="none" stroke="#bfbfbf" points="133,-96.31 133,-115.31 214,-115.31 214,-96.31 133,-96.31"/>
<text text-anchor="middle" x="173.5" y="-103.31" font-family="Helvetica,sans-Serif" font-size="10.00">std::list&lt; T &gt;</text>
</a>
</g>
</g>
<!-- Node7&#45;&gt;Node28 -->
<g id="edge26" class="edge">
<title>Node7&#45;&gt;Node28</title>
<path fill="none" stroke="#9a32cd" stroke-dasharray="5,2" d="M27.82,-126.16C33,-120.18 39.56,-114.18 47,-110.81 73.83,-98.7 107.26,-97.97 132.87,-99.99"/>
<polygon fill="#9a32cd" stroke="#9a32cd" points="25.06,-124.01 21.66,-134.04 30.58,-128.32 25.06,-124.01"/>
<text text-anchor="middle" x="71.5" y="-113.81" font-family="Helvetica,sans-Serif" font-size="10.00"> elements</text>
</g>
<!-- Node7&#45;&gt;Node29 -->
<g id="edge30" class="edge">
<title>Node7&#45;&gt;Node29</title>
<path fill="none" stroke="#9a32cd" stroke-dasharray="5,2" d="M24.13,-125.06C38.27,-96.98 69.32,-45.25 114,-25.81 206.96,14.62 330.02,-1.65 392.83,-14.28"/>
<polygon fill="#9a32cd" stroke="#9a32cd" points="20.9,-123.7 19.7,-134.23 27.2,-126.75 20.9,-123.7"/>
<text text-anchor="middle" x="173.5" y="-28.81" font-family="Helvetica,sans-Serif" font-size="10.00"> elements</text>
</g>
<!-- Node8&#45;&gt;Node4 -->
<g id="edge7" class="edge">
<title>Node8&#45;&gt;Node4</title>
<path fill="none" stroke="#9a32cd" stroke-dasharray="5,2" d="M501.8,-287.24C538.68,-289.81 585.41,-293.24 627,-296.81 634.88,-297.49 643.2,-298.26 651.37,-299.04"/>
<polygon fill="#9a32cd" stroke="#9a32cd" points="501.89,-283.74 491.67,-286.54 501.41,-290.72 501.89,-283.74"/>
<text text-anchor="middle" x="574" y="-299.81" font-family="Helvetica,sans-Serif" font-size="10.00"> symbols</text>
</g>
<!-- Node9&#45;&gt;Node3 -->
<g id="edge11" class="edge">
<title>Node9&#45;&gt;Node3</title>
<path fill="none" stroke="#9a32cd" stroke-dasharray="5,2" d="M772.71,-227.22C817.12,-222.94 877.82,-220.74 930,-231.81 945.66,-235.14 962.04,-242.11 975.22,-248.69"/>
<polygon fill="#9a32cd" stroke="#9a32cd" points="772.23,-223.75 762.64,-228.25 772.95,-230.72 772.23,-223.75"/>
<text text-anchor="middle" x="860.5" y="-256.81" font-family="Helvetica,sans-Serif" font-size="10.00"> inserted</text>
<text text-anchor="middle" x="860.5" y="-245.81" font-family="Helvetica,sans-Serif" font-size="10.00">updated</text>
<text text-anchor="middle" x="860.5" y="-234.81" font-family="Helvetica,sans-Serif" font-size="10.00">removed</text>
</g>
<!-- Node10&#45;&gt;Node9 -->
<g id="edge13" class="edge">
<title>Node10&#45;&gt;Node9</title>
<path fill="none" stroke="orange" stroke-dasharray="5,2" d="M513.27,-236.4C515.88,-236.56 518.46,-236.7 521,-236.81 568.06,-239.01 579.89,-237.1 627,-236.81 636.14,-236.76 645.86,-236.67 655.28,-236.56"/>
<polygon fill="orange" stroke="orange" points="513.34,-232.9 503.13,-235.73 512.88,-239.88 513.34,-232.9"/>
<text text-anchor="middle" x="574" y="-240.81" font-family="Helvetica,sans-Serif" font-size="10.00"> &lt; irep_idt &gt;</text>
</g>
<!-- Node11 -->
<g id="node11" class="node">
<title>Node11</title>
<g id="a_node11"><a xlink:href="classgoto__functionst.html" target="_top" xlink:title="A collection of goto functions.">
<polygon fill="none" stroke="black" points="1368,-143.31 1368,-162.31 1460,-162.31 1460,-143.31 1368,-143.31"/>
<text text-anchor="middle" x="1414" y="-150.31" font-family="Helvetica,sans-Serif" font-size="10.00">goto_functionst</text>
</a>
</g>
</g>
<!-- Node11&#45;&gt;Node1 -->
<g id="edge15" class="edge">
<title>Node11&#45;&gt;Node1</title>
<path fill="none" stroke="#9a32cd" stroke-dasharray="5,2" d="M1470.4,-155.74C1496.03,-157.77 1526.76,-161.17 1554,-166.81 1572.07,-170.56 1591.86,-176.88 1607.05,-182.22"/>
<polygon fill="#9a32cd" stroke="#9a32cd" points="1470.35,-152.23 1460.12,-154.98 1469.83,-159.21 1470.35,-152.23"/>
<text text-anchor="middle" x="1516" y="-169.81" font-family="Helvetica,sans-Serif" font-size="10.00"> goto_functions</text>
</g>
<!-- Node12&#45;&gt;Node11 -->
<g id="edge16" class="edge">
<title>Node12&#45;&gt;Node11</title>
<path fill="none" stroke="#9a32cd" stroke-dasharray="5,2" d="M1272.43,-142.53C1303.46,-144.8 1339.92,-147.47 1367.93,-149.52"/>
<polygon fill="#9a32cd" stroke="#9a32cd" points="1272.36,-139.01 1262.13,-141.77 1271.85,-146 1272.36,-139.01"/>
<text text-anchor="middle" x="1315" y="-151.81" font-family="Helvetica,sans-Serif" font-size="10.00"> function_map</text>
</g>
<!-- Node13 -->
<g id="node13" class="node">
<title>Node13</title>
<g id="a_node13"><a xlink:href="classgoto__functiont.html" target="_top" xlink:title="A goto function, consisting of function body (see body) and parameter identifiers (see parameter_iden...">
<polygon fill="none" stroke="black" points="959.5,-104.31 959.5,-123.31 1046.5,-123.31 1046.5,-104.31 959.5,-104.31"/>
<text text-anchor="middle" x="1003" y="-111.31" font-family="Helvetica,sans-Serif" font-size="10.00">goto_functiont</text>
</a>
</g>
</g>
<!-- Node13&#45;&gt;Node12 -->
<g id="edge17" class="edge">
<title>Node13&#45;&gt;Node12</title>
<path fill="none" stroke="#9a32cd" stroke-dasharray="5,2" d="M1056.91,-119.8C1080.51,-122.51 1108.65,-125.77 1134,-128.81 1139.75,-129.51 1145.76,-130.24 1151.75,-130.98"/>
<polygon fill="#9a32cd" stroke="#9a32cd" points="1057.09,-116.3 1046.75,-118.64 1056.29,-123.26 1057.09,-116.3"/>
<text text-anchor="middle" x="1105" y="-131.81" font-family="Helvetica,sans-Serif" font-size="10.00"> elements</text>
</g>
<!-- Node14&#45;&gt;Node13 -->
<g id="edge18" class="edge">
<title>Node14&#45;&gt;Node13</title>
<path fill="none" stroke="#9a32cd" stroke-dasharray="5,2" d="M783.15,-113.81C838.72,-113.81 913.22,-113.81 959.39,-113.81"/>
<polygon fill="#9a32cd" stroke="#9a32cd" points="783,-110.31 773,-113.81 783,-117.31 783,-110.31"/>
<text text-anchor="middle" x="860.5" y="-116.81" font-family="Helvetica,sans-Serif" font-size="10.00"> parameter_identifiers</text>
</g>
<!-- Node15&#45;&gt;Node14 -->
<g id="edge20" class="edge">
<title>Node15&#45;&gt;Node14</title>
<path fill="none" stroke="orange" stroke-dasharray="5,2" d="M358.34,-120.68C434.09,-119.19 566.44,-116.59 644.76,-115.06"/>
<polygon fill="orange" stroke="orange" points="357.97,-117.18 348.04,-120.88 358.11,-124.18 357.97,-117.18"/>
<text text-anchor="middle" x="434.5" y="-123.81" font-family="Helvetica,sans-Serif" font-size="10.00"> &lt; irep_idt &gt;</text>
</g>
<!-- Node16 -->
<g id="node16" class="node">
<title>Node16</title>
<g id="a_node16"><a xlink:href="classgoto__programt.html" target="_top" xlink:title="A generic container class for the GOTO intermediate representation of one function.">
<polygon fill="none" stroke="black" points="664.5,-63.31 664.5,-82.31 753.5,-82.31 753.5,-63.31 664.5,-63.31"/>
<text text-anchor="middle" x="709" y="-70.31" font-family="Helvetica,sans-Serif" font-size="10.00">goto_programt</text>
</a>
</g>
</g>
<!-- Node16&#45;&gt;Node13 -->
<g id="edge22" class="edge">
<title>Node16&#45;&gt;Node13</title>
<path fill="none" stroke="#9a32cd" stroke-dasharray="5,2" d="M763.62,-77.82C808.28,-82.31 873.48,-89.6 930,-98.81 939.58,-100.37 949.81,-102.33 959.47,-104.31"/>
<polygon fill="#9a32cd" stroke="#9a32cd" points="763.87,-74.33 753.57,-76.82 763.18,-81.3 763.87,-74.33"/>
<text text-anchor="middle" x="860.5" y="-101.81" font-family="Helvetica,sans-Serif" font-size="10.00"> body</text>
</g>
<!-- Node17 -->
<g id="node17" class="node">
<title>Node17</title>
<g id="a_node17"><a xlink:title=" ">
<polygon fill="none" stroke="#bfbfbf" points="369,-52.31 369,-71.31 500,-71.31 500,-52.31 369,-52.31"/>
<text text-anchor="middle" x="434.5" y="-59.31" font-family="Helvetica,sans-Serif" font-size="10.00">std::list&lt; instructiont &gt;</text>
</a>
</g>
</g>
<!-- Node17&#45;&gt;Node16 -->
<g id="edge23" class="edge">
<title>Node17&#45;&gt;Node16</title>
<path fill="none" stroke="#9a32cd" stroke-dasharray="5,2" d="M510.1,-64.83C559.57,-66.82 622.79,-69.37 664.29,-71.05"/>
<polygon fill="#9a32cd" stroke="#9a32cd" points="510.21,-61.33 500.08,-64.42 509.93,-68.32 510.21,-61.33"/>
<text text-anchor="middle" x="574" y="-72.81" font-family="Helvetica,sans-Serif" font-size="10.00"> instructions</text>
</g>
<!-- Node18 -->
<g id="node18" class="node">
<title>Node18</title>
<g id="a_node18"><a xlink:href="structstatement__list__parse__treet_1_1instructiont.html" target="_top" xlink:title="Represents a regular Statement List instruction which consists out of one or more codet tokens.">
<polygon fill="none" stroke="red" points="114,-46.81 114,-76.81 233,-76.81 233,-46.81 114,-46.81"/>
<text text-anchor="start" x="122" y="-64.81" font-family="Helvetica,sans-Serif" font-size="10.00">statement_list_parse</text>
<text text-anchor="middle" x="173.5" y="-53.81" font-family="Helvetica,sans-Serif" font-size="10.00">_treet::instructiont</text>
</a>
</g>
</g>
<!-- Node18&#45;&gt;Node17 -->
<g id="edge24" class="edge">
<title>Node18&#45;&gt;Node17</title>
<path fill="none" stroke="#9a32cd" stroke-dasharray="5,2" d="M243.44,-61.81C282.26,-61.81 330.46,-61.81 368.6,-61.81"/>
<polygon fill="#9a32cd" stroke="#9a32cd" points="243.27,-58.31 233.27,-61.81 243.27,-65.31 243.27,-58.31"/>
<text text-anchor="middle" x="299.5" y="-64.81" font-family="Helvetica,sans-Serif" font-size="10.00"> elements</text>
</g>
<!-- Node28&#45;&gt;Node17 -->
<g id="edge25" class="edge">
<title>Node28&#45;&gt;Node17</title>
<path fill="none" stroke="orange" stroke-dasharray="5,2" d="M223.98,-97.41C267.85,-89.96 331.85,-79.08 377.56,-71.32"/>
<polygon fill="orange" stroke="orange" points="223.39,-93.96 214.12,-99.08 224.56,-100.86 223.39,-93.96"/>
<text text-anchor="middle" x="299.5" y="-95.81" font-family="Helvetica,sans-Serif" font-size="10.00"> &lt; instructiont &gt;</text>
</g>
<!-- Node29&#45;&gt;Node12 -->
<g id="edge28" class="edge">
<title>Node29&#45;&gt;Node12</title>
<path fill="none" stroke="orange" stroke-dasharray="5,2" d="M495.33,-26.53C588.61,-31.32 774.19,-43.1 930,-66.81 987.57,-75.58 1001.56,-80.46 1058,-94.81 1091.32,-103.29 1128.48,-114.09 1157.23,-122.75"/>
<polygon fill="orange" stroke="orange" points="495.4,-23.03 485.23,-26.02 495.04,-30.02 495.4,-23.03"/>
<text text-anchor="middle" x="860.5" y="-69.81" font-family="Helvetica,sans-Serif" font-size="10.00"> &lt; irep_idt, goto_functiont &gt;</text>
</g>
</g>
</svg>
