<?xml version="1.0" encoding="UTF-8" standalone="no"?>
<!DOCTYPE svg PUBLIC "-//W3C//DTD SVG 1.1//EN"
 "http://www.w3.org/Graphics/SVG/1.1/DTD/svg11.dtd">
<!-- Generated by graphviz version 2.43.0 (0)
 -->
<!-- Title: alternatives_enumeratort Pages: 1 -->
<svg width="458pt" height="475pt"
 viewBox="0.00 0.00 458.00 475.00" xmlns="http://www.w3.org/2000/svg" xmlns:xlink="http://www.w3.org/1999/xlink">
<g id="graph0" class="graph" transform="scale(1 1) rotate(0) translate(4 471)">
<title>alternatives_enumeratort</title>
<!-- Node1 -->
<g id="node1" class="node">
<title>Node1</title>
<g id="a_node1"><a xlink:title="Enumerators that enumerates expressions in the union of enumerated expressions of sub&#45;enumerators.">
<polygon fill="#bfbfbf" stroke="black" points="248.5,-0.5 248.5,-19.5 389.5,-19.5 389.5,-0.5 248.5,-0.5"/>
<text text-anchor="middle" x="319" y="-7.5" font-family="Helvetica,sans-Serif" font-size="10.00">alternatives_enumeratort</text>
</a>
</g>
</g>
<!-- Node2 -->
<g id="node2" class="node">
<title>Node2</title>
<g id="a_node2"><a xlink:href="classenumerator__baset.html" target="_top" xlink:title="A base class for expression enumerators.">
<polygon fill="none" stroke="black" points="224,-57.5 224,-76.5 330,-76.5 330,-57.5 224,-57.5"/>
<text text-anchor="middle" x="277" y="-64.5" font-family="Helvetica,sans-Serif" font-size="10.00">enumerator_baset</text>
</a>
</g>
</g>
<!-- Node2&#45;&gt;Node1 -->
<g id="edge1" class="edge">
<title>Node2&#45;&gt;Node1</title>
<path fill="none" stroke="midnightblue" d="M289.8,-49.23C297.24,-39.49 306.31,-27.62 312.34,-19.71"/>
<polygon fill="midnightblue" stroke="midnightblue" points="286.85,-47.33 283.56,-57.41 292.41,-51.58 286.85,-47.33"/>
</g>
<!-- Node3 -->
<g id="node3" class="node">
<title>Node3</title>
<g id="a_node3"><a xlink:href="classnamespacet.html" target="_top" xlink:title="A namespacet is essentially one or two symbol tables bound together, to allow for symbol lookups in t...">
<polygon fill="none" stroke="black" points="224.5,-124.5 224.5,-143.5 301.5,-143.5 301.5,-124.5 224.5,-124.5"/>
<text text-anchor="middle" x="263" y="-131.5" font-family="Helvetica,sans-Serif" font-size="10.00">namespacet</text>
</a>
</g>
</g>
<!-- Node3&#45;&gt;Node2 -->
<g id="edge2" class="edge">
<title>Node3&#45;&gt;Node2</title>
<path fill="none" stroke="#9a32cd" stroke-dasharray="5,2" d="M267,-114.41C269.68,-101.99 273.08,-86.22 275.14,-76.63"/>
<polygon fill="#9a32cd" stroke="#9a32cd" points="263.57,-113.72 264.89,-124.23 270.42,-115.19 263.57,-113.72"/>
<text text-anchor="middle" x="278.5" y="-98" font-family="Helvetica,sans-Serif" font-size="10.00"> ns</text>
</g>
<!-- Node4 -->
<g id="node4" class="node">
<title>Node4</title>
<g id="a_node4"><a xlink:href="classnamespace__baset.html" target="_top" xlink:title="Basic interface for a namespace.">
<polygon fill="none" stroke="black" points="88.5,-202.5 88.5,-221.5 193.5,-221.5 193.5,-202.5 88.5,-202.5"/>
<text text-anchor="middle" x="141" y="-209.5" font-family="Helvetica,sans-Serif" font-size="10.00">namespace_baset</text>
</a>
</g>
</g>
<!-- Node4&#45;&gt;Node3 -->
<g id="edge3" class="edge">
<title>Node4&#45;&gt;Node3</title>
<path fill="none" stroke="midnightblue" d="M163.5,-196.98C188.57,-181.36 228.31,-156.61 249.17,-143.62"/>
<polygon fill="midnightblue" stroke="midnightblue" points="161.63,-194.02 154.99,-202.28 165.33,-199.97 161.63,-194.02"/>
</g>
<!-- Node5 -->
<g id="node5" class="node">
<title>Node5</title>
<g id="a_node5"><a xlink:href="classsymbol__table__baset.html" target="_top" xlink:title="The symbol table base class interface.">
<polygon fill="none" stroke="black" points="211.5,-202.5 211.5,-221.5 326.5,-221.5 326.5,-202.5 211.5,-202.5"/>
<text text-anchor="middle" x="269" y="-209.5" font-family="Helvetica,sans-Serif" font-size="10.00">symbol_table_baset</text>
</a>
</g>
</g>
<!-- Node5&#45;&gt;Node3 -->
<g id="edge4" class="edge">
<title>Node5&#45;&gt;Node3</title>
<path fill="none" stroke="#9a32cd" stroke-dasharray="5,2" d="M265.11,-192.17C264.66,-189.44 264.27,-186.66 264,-184 262.57,-169.95 262.57,-153.52 262.75,-143.7"/>
<polygon fill="#9a32cd" stroke="#9a32cd" points="261.68,-192.87 266.96,-202.05 268.56,-191.58 261.68,-192.87"/>
<text text-anchor="middle" x="302" y="-176" font-family="Helvetica,sans-Serif" font-size="10.00"> symbol_table1</text>
<text text-anchor="middle" x="302" y="-165" font-family="Helvetica,sans-Serif" font-size="10.00">symbol_table2</text>
</g>
<!-- Node6 -->
<g id="node6" class="node">
<title>Node6</title>
<g id="a_node6"><a xlink:title=" ">
<polygon fill="none" stroke="#bfbfbf" points="77.5,-280.5 77.5,-310.5 192.5,-310.5 192.5,-280.5 77.5,-280.5"/>
<text text-anchor="start" x="85.5" y="-298.5" font-family="Helvetica,sans-Serif" font-size="10.00">std::multimap&lt; irep</text>
<text text-anchor="middle" x="135" y="-287.5" font-family="Helvetica,sans-Serif" font-size="10.00">_idt, irep_idt &gt;</text>
</a>
</g>
</g>
<!-- Node6&#45;&gt;Node5 -->
<g id="edge5" class="edge">
<title>Node6&#45;&gt;Node5</title>
<path fill="none" stroke="#9a32cd" stroke-dasharray="5,2" d="M136.67,-270.32C138.64,-259.66 142.71,-247.81 151,-240 160.07,-231.47 186.02,-225.05 211.29,-220.61"/>
<polygon fill="#9a32cd" stroke="#9a32cd" points="133.18,-270.02 135.33,-280.4 140.12,-270.95 133.18,-270.02"/>
<text text-anchor="middle" x="204" y="-254" font-family="Helvetica,sans-Serif" font-size="10.00"> symbol_base_map</text>
<text text-anchor="middle" x="204" y="-243" font-family="Helvetica,sans-Serif" font-size="10.00">symbol_module_map</text>
</g>
<!-- Node7 -->
<g id="node7" class="node">
<title>Node7</title>
<g id="a_node7"><a xlink:href="classdstringt.html" target="_top" xlink:title="dstringt has one field, an unsigned integer no which is an index into a static table of strings.">
<polygon fill="none" stroke="black" points="0,-375 0,-394 54,-394 54,-375 0,-375"/>
<text text-anchor="middle" x="27" y="-382" font-family="Helvetica,sans-Serif" font-size="10.00">dstringt</text>
</a>
</g>
</g>
<!-- Node7&#45;&gt;Node6 -->
<g id="edge6" class="edge">
<title>Node7&#45;&gt;Node6</title>
<path fill="none" stroke="#9a32cd" stroke-dasharray="5,2" d="M41.52,-367.23C52.13,-355.83 67.19,-340.62 82,-329 90.49,-322.34 100.44,-315.92 109.4,-310.57"/>
<polygon fill="#9a32cd" stroke="#9a32cd" points="38.81,-365.01 34.65,-374.75 43.98,-369.73 38.81,-365.01"/>
<text text-anchor="middle" x="106.5" y="-343" font-family="Helvetica,sans-Serif" font-size="10.00"> elements</text>
<text text-anchor="middle" x="106.5" y="-332" font-family="Helvetica,sans-Serif" font-size="10.00">keys</text>
</g>
<!-- Node8 -->
<g id="node8" class="node">
<title>Node8</title>
<g id="a_node8"><a xlink:title=" ">
<polygon fill="none" stroke="#bfbfbf" points="72,-375 72,-394 198,-394 198,-375 72,-375"/>
<text text-anchor="middle" x="135" y="-382" font-family="Helvetica,sans-Serif" font-size="10.00">std::multimap&lt; K, T &gt;</text>
</a>
</g>
</g>
<!-- Node8&#45;&gt;Node6 -->
<g id="edge7" class="edge">
<title>Node8&#45;&gt;Node6</title>
<path fill="none" stroke="orange" stroke-dasharray="5,2" d="M135,-364.41C135,-348.15 135,-325.16 135,-310.55"/>
<polygon fill="orange" stroke="orange" points="131.5,-364.84 135,-374.84 138.5,-364.84 131.5,-364.84"/>
<text text-anchor="middle" x="188" y="-337.5" font-family="Helvetica,sans-Serif" font-size="10.00"> &lt; irep_idt, irep_idt &gt;</text>
</g>
<!-- Node9 -->
<g id="node9" class="node">
<title>Node9</title>
<g id="a_node9"><a xlink:title=" ">
<polygon fill="none" stroke="#bfbfbf" points="130.5,-447.5 130.5,-466.5 159.5,-466.5 159.5,-447.5 130.5,-447.5"/>
<text text-anchor="middle" x="145" y="-454.5" font-family="Helvetica,sans-Serif" font-size="10.00">K</text>
</a>
</g>
</g>
<!-- Node9&#45;&gt;Node8 -->
<g id="edge8" class="edge">
<title>Node9&#45;&gt;Node8</title>
<path fill="none" stroke="#9a32cd" stroke-dasharray="5,2" d="M127.48,-439.96C124.83,-436.62 122.49,-432.91 121,-429 116.49,-417.13 123.09,-403.11 128.67,-394.26"/>
<polygon fill="#9a32cd" stroke="#9a32cd" points="125.03,-442.47 134.39,-447.43 130.17,-437.71 125.03,-442.47"/>
<text text-anchor="middle" x="134" y="-421" font-family="Helvetica,sans-Serif" font-size="10.00"> keys</text>
</g>
<!-- Node11 -->
<g id="node11" class="node">
<title>Node11</title>
<g id="a_node11"><a xlink:title=" ">
<polygon fill="none" stroke="#bfbfbf" points="216,-369.5 216,-399.5 330,-399.5 330,-369.5 216,-369.5"/>
<text text-anchor="start" x="224" y="-387.5" font-family="Helvetica,sans-Serif" font-size="10.00">std::unordered_map</text>
<text text-anchor="middle" x="273" y="-376.5" font-family="Helvetica,sans-Serif" font-size="10.00">&lt; K, T &gt;</text>
</a>
</g>
</g>
<!-- Node9&#45;&gt;Node11 -->
<g id="edge11" class="edge">
<title>Node9&#45;&gt;Node11</title>
<path fill="none" stroke="#9a32cd" stroke-dasharray="5,2" d="M153.36,-438.13C157.48,-430.99 163.07,-423.24 170,-418 178,-411.95 197.31,-405.28 217.07,-399.57"/>
<polygon fill="#9a32cd" stroke="#9a32cd" points="150.16,-436.7 148.66,-447.19 156.37,-439.93 150.16,-436.7"/>
<text text-anchor="middle" x="183" y="-421" font-family="Helvetica,sans-Serif" font-size="10.00"> keys</text>
</g>
<!-- Node10 -->
<g id="node10" class="node">
<title>Node10</title>
<g id="a_node10"><a xlink:title=" ">
<polygon fill="none" stroke="#bfbfbf" points="275.5,-447.5 275.5,-466.5 304.5,-466.5 304.5,-447.5 275.5,-447.5"/>
<text text-anchor="middle" x="290" y="-454.5" font-family="Helvetica,sans-Serif" font-size="10.00">T</text>
</a>
</g>
</g>
<!-- Node10&#45;&gt;Node8 -->
<g id="edge9" class="edge">
<title>Node10&#45;&gt;Node8</title>
<path fill="none" stroke="#9a32cd" stroke-dasharray="5,2" d="M266.02,-445.74C254.49,-440.76 240.5,-434.64 228,-429 201.84,-417.19 171.8,-403.03 153.11,-394.15"/>
<polygon fill="#9a32cd" stroke="#9a32cd" points="264.85,-449.04 275.42,-449.78 267.62,-442.61 264.85,-449.04"/>
<text text-anchor="middle" x="252.5" y="-421" font-family="Helvetica,sans-Serif" font-size="10.00"> elements</text>
</g>
<!-- Node10&#45;&gt;Node11 -->
<g id="edge12" class="edge">
<title>Node10&#45;&gt;Node11</title>
<path fill="none" stroke="#9a32cd" stroke-dasharray="5,2" d="M285.56,-437.6C282.7,-425.72 279.03,-410.49 276.39,-399.58"/>
<polygon fill="#9a32cd" stroke="#9a32cd" points="282.17,-438.45 287.92,-447.36 288.97,-436.81 282.17,-438.45"/>
<text text-anchor="middle" x="308.5" y="-421" font-family="Helvetica,sans-Serif" font-size="10.00"> elements</text>
</g>
<!-- Node12 -->
<g id="node12" class="node">
<title>Node12</title>
<g id="a_node12"><a xlink:title=" ">
<polygon fill="none" stroke="#bfbfbf" points="321.5,-330.5 321.5,-349.5 402.5,-349.5 402.5,-330.5 321.5,-330.5"/>
<text text-anchor="middle" x="362" y="-337.5" font-family="Helvetica,sans-Serif" font-size="10.00">std::list&lt; T &gt;</text>
</a>
</g>
</g>
<!-- Node10&#45;&gt;Node12 -->
<g id="edge14" class="edge">
<title>Node10&#45;&gt;Node12</title>
<path fill="none" stroke="#9a32cd" stroke-dasharray="5,2" d="M313.86,-446.8C322.23,-442.52 331.02,-436.65 337,-429 355.97,-404.72 360.54,-366.7 361.65,-349.71"/>
<polygon fill="#9a32cd" stroke="#9a32cd" points="312.4,-443.62 304.77,-450.97 315.32,-449.99 312.4,-443.62"/>
<text text-anchor="middle" x="367.5" y="-421" font-family="Helvetica,sans-Serif" font-size="10.00"> elements</text>
</g>
<!-- Node11&#45;&gt;Node5 -->
<g id="edge10" class="edge">
<title>Node11&#45;&gt;Node5</title>
<path fill="none" stroke="#9a32cd" stroke-dasharray="5,2" d="M272.42,-358.9C271.52,-320.26 269.8,-247.14 269.21,-221.86"/>
<polygon fill="#9a32cd" stroke="#9a32cd" points="268.93,-359.34 272.67,-369.26 275.93,-359.18 268.93,-359.34"/>
<text text-anchor="middle" x="294.5" y="-293" font-family="Helvetica,sans-Serif" font-size="10.00"> symbols</text>
</g>
<!-- Node12&#45;&gt;Node1 -->
<g id="edge13" class="edge">
<title>Node12&#45;&gt;Node1</title>
<path fill="none" stroke="#9a32cd" stroke-dasharray="5,2" d="M362,-320.28C362,-302.67 362,-275.54 362,-252 362,-252 362,-252 362,-66 362,-46.12 344.35,-29.14 331.67,-19.5"/>
<polygon fill="#9a32cd" stroke="#9a32cd" points="358.5,-320.36 362,-330.36 365.5,-320.36 358.5,-320.36"/>
<text text-anchor="middle" x="406" y="-170.5" font-family="Helvetica,sans-Serif" font-size="10.00"> sub_enumerators</text>
</g>
</g>
</svg>
