<?xml version="1.0" encoding="UTF-8" standalone="no"?>
<!DOCTYPE svg PUBLIC "-//W3C//DTD SVG 1.1//EN"
 "http://www.w3.org/Graphics/SVG/1.1/DTD/svg11.dtd">
<!-- Generated by graphviz version 2.43.0 (0)
 -->
<!-- Title: rd_range_domaint Pages: 1 -->
<svg width="1382pt" height="410pt"
 viewBox="0.00 0.00 1382.00 410.00" xmlns="http://www.w3.org/2000/svg" xmlns:xlink="http://www.w3.org/1999/xlink">
<g id="graph0" class="graph" transform="scale(1 1) rotate(0) translate(4 406)">
<title>rd_range_domaint</title>
<!-- Node1 -->
<g id="node1" class="node">
<title>Node1</title>
<g id="a_node1"><a xlink:title="Because the class is inherited from ai_domain_baset, its instance represents an element of a domain o...">
<polygon fill="#bfbfbf" stroke="black" points="1269,-184.5 1269,-203.5 1374,-203.5 1374,-184.5 1269,-184.5"/>
<text text-anchor="middle" x="1321.5" y="-191.5" font-family="Helvetica,sans-Serif" font-size="10.00">rd_range_domaint</text>
</a>
</g>
</g>
<!-- Node2 -->
<g id="node2" class="node">
<title>Node2</title>
<g id="a_node2"><a xlink:href="classai__domain__baset.html" target="_top" xlink:title="The interface offered by a domain, allows code to manipulate domains without knowing their exact type...">
<polygon fill="none" stroke="black" points="1042.5,-297.5 1042.5,-316.5 1142.5,-316.5 1142.5,-297.5 1042.5,-297.5"/>
<text text-anchor="middle" x="1092.5" y="-304.5" font-family="Helvetica,sans-Serif" font-size="10.00">ai_domain_baset</text>
</a>
</g>
</g>
<!-- Node2&#45;&gt;Node1 -->
<g id="edge1" class="edge">
<title>Node2&#45;&gt;Node1</title>
<path fill="none" stroke="midnightblue" d="M1153,-307.71C1184.06,-305.66 1221.6,-299.22 1251,-282 1283.59,-262.91 1306.7,-222.22 1315.98,-203.63"/>
<polygon fill="midnightblue" stroke="midnightblue" points="1152.55,-304.23 1142.74,-308.24 1152.91,-311.22 1152.55,-304.23"/>
</g>
<!-- Node3 -->
<g id="node3" class="node">
<title>Node3</title>
<g id="a_node3"><a xlink:href="classmessage__handlert.html" target="_top" xlink:title=" ">
<polygon fill="none" stroke="black" points="886,-287.5 886,-306.5 993,-306.5 993,-287.5 886,-287.5"/>
<text text-anchor="middle" x="939.5" y="-294.5" font-family="Helvetica,sans-Serif" font-size="10.00">message_handlert</text>
</a>
</g>
</g>
<!-- Node3&#45;&gt;Node1 -->
<g id="edge2" class="edge">
<title>Node3&#45;&gt;Node1</title>
<path fill="none" stroke="#9a32cd" stroke-dasharray="5,2" d="M987.36,-284.92C997.77,-282.28 1008.75,-279.52 1019,-277 1121.9,-251.7 1150.01,-254.11 1251,-222 1267.49,-216.76 1285.6,-209.4 1299.2,-203.55"/>
<polygon fill="#9a32cd" stroke="#9a32cd" points="986.43,-281.55 977.6,-287.41 988.16,-288.33 986.43,-281.55"/>
<text text-anchor="middle" x="1092.5" y="-280" font-family="Helvetica,sans-Serif" font-size="10.00"> message_handler</text>
</g>
<!-- Node4 -->
<g id="node4" class="node">
<title>Node4</title>
<g id="a_node4"><a xlink:title=" ">
<polygon fill="none" stroke="#bfbfbf" points="418,-380.5 418,-399.5 558,-399.5 558,-380.5 418,-380.5"/>
<text text-anchor="middle" x="488" y="-387.5" font-family="Helvetica,sans-Serif" font-size="10.00">std::vector&lt; std::size_t &gt;</text>
</a>
</g>
</g>
<!-- Node4&#45;&gt;Node3 -->
<g id="edge3" class="edge">
<title>Node4&#45;&gt;Node3</title>
<path fill="none" stroke="#9a32cd" stroke-dasharray="5,2" d="M544.99,-378.42C634.85,-359.82 809.56,-323.68 892.57,-306.5"/>
<polygon fill="#9a32cd" stroke="#9a32cd" points="544.08,-375.03 534.99,-380.48 545.49,-381.89 544.08,-375.03"/>
<text text-anchor="middle" x="626" y="-372" font-family="Helvetica,sans-Serif" font-size="10.00"> message_count</text>
</g>
<!-- Node5 -->
<g id="node5" class="node">
<title>Node5</title>
<g id="a_node5"><a xlink:title=" ">
<polygon fill="none" stroke="#bfbfbf" points="132,-363.5 132,-382.5 229,-382.5 229,-363.5 132,-363.5"/>
<text text-anchor="middle" x="180.5" y="-370.5" font-family="Helvetica,sans-Serif" font-size="10.00">std::vector&lt; T &gt;</text>
</a>
</g>
</g>
<!-- Node5&#45;&gt;Node4 -->
<g id="edge4" class="edge">
<title>Node5&#45;&gt;Node4</title>
<path fill="none" stroke="orange" stroke-dasharray="5,2" d="M239.1,-383.02C247.75,-384.22 256.6,-385.27 265,-386 316.08,-390.42 374,-391.32 417.87,-391.18"/>
<polygon fill="orange" stroke="orange" points="239.45,-379.53 229.05,-381.55 238.44,-386.46 239.45,-379.53"/>
<text text-anchor="middle" x="327.5" y="-394" font-family="Helvetica,sans-Serif" font-size="10.00"> &lt; std::size_t &gt;</text>
</g>
<!-- Node14 -->
<g id="node14" class="node">
<title>Node14</title>
<g id="a_node14"><a xlink:title=" ">
<polygon fill="none" stroke="#bfbfbf" points="408,-314 408,-344 568,-344 568,-314 408,-314"/>
<text text-anchor="start" x="416" y="-332" font-family="Helvetica,sans-Serif" font-size="10.00">std::vector&lt; typename</text>
<text text-anchor="middle" x="488" y="-321" font-family="Helvetica,sans-Serif" font-size="10.00"> inner_mapt::const_iterator &gt;</text>
</a>
</g>
</g>
<!-- Node5&#45;&gt;Node14 -->
<g id="edge18" class="edge">
<title>Node5&#45;&gt;Node14</title>
<path fill="none" stroke="orange" stroke-dasharray="5,2" d="M239.2,-363.9C247.85,-362.57 256.65,-361.23 265,-360 312.35,-353.01 365.45,-345.58 407.84,-339.75"/>
<polygon fill="orange" stroke="orange" points="238.52,-360.46 229.17,-365.45 239.59,-367.38 238.52,-360.46"/>
<text text-anchor="start" x="266" y="-374" font-family="Helvetica,sans-Serif" font-size="10.00"> &lt; typename inner_mapt</text>
<text text-anchor="middle" x="327.5" y="-363" font-family="Helvetica,sans-Serif" font-size="10.00">::const_iterator &gt;</text>
</g>
<!-- Node6 -->
<g id="node6" class="node">
<title>Node6</title>
<g id="a_node6"><a xlink:title=" ">
<polygon fill="none" stroke="#bfbfbf" points="0,-266.5 0,-285.5 29,-285.5 29,-266.5 0,-266.5"/>
<text text-anchor="middle" x="14.5" y="-273.5" font-family="Helvetica,sans-Serif" font-size="10.00">T</text>
</a>
</g>
</g>
<!-- Node6&#45;&gt;Node5 -->
<g id="edge5" class="edge">
<title>Node6&#45;&gt;Node5</title>
<path fill="none" stroke="#9a32cd" stroke-dasharray="5,2" d="M32.28,-292.7C50.81,-310.28 82.25,-337.63 114,-354 121.26,-357.74 129.37,-360.85 137.33,-363.39"/>
<polygon fill="#9a32cd" stroke="#9a32cd" points="34.56,-290.04 24.94,-285.61 29.7,-295.08 34.56,-290.04"/>
<text text-anchor="middle" x="71.5" y="-344" font-family="Helvetica,sans-Serif" font-size="10.00"> elements</text>
</g>
<!-- Node10 -->
<g id="node10" class="node">
<title>Node10</title>
<g id="a_node10"><a xlink:title=" ">
<polygon fill="none" stroke="#bfbfbf" points="130,-124.5 130,-143.5 231,-143.5 231,-124.5 130,-124.5"/>
<text text-anchor="middle" x="180.5" y="-131.5" font-family="Helvetica,sans-Serif" font-size="10.00">std::map&lt; K, T &gt;</text>
</a>
</g>
</g>
<!-- Node6&#45;&gt;Node10 -->
<g id="edge11" class="edge">
<title>Node6&#45;&gt;Node10</title>
<path fill="none" stroke="#9a32cd" stroke-dasharray="5,2" d="M34.39,-259.65C68.7,-229.94 140.28,-167.96 168.1,-143.87"/>
<polygon fill="#9a32cd" stroke="#9a32cd" points="31.78,-257.27 26.52,-266.46 36.37,-262.56 31.78,-257.27"/>
<text text-anchor="middle" x="71.5" y="-249" font-family="Helvetica,sans-Serif" font-size="10.00"> elements</text>
</g>
<!-- Node13 -->
<g id="node13" class="node">
<title>Node13</title>
<g id="a_node13"><a xlink:title=" ">
<polygon fill="none" stroke="#bfbfbf" points="123.5,-261 123.5,-291 237.5,-291 237.5,-261 123.5,-261"/>
<text text-anchor="start" x="131.5" y="-279" font-family="Helvetica,sans-Serif" font-size="10.00">std::unordered_map</text>
<text text-anchor="middle" x="180.5" y="-268" font-family="Helvetica,sans-Serif" font-size="10.00">&lt; K, T &gt;</text>
</a>
</g>
</g>
<!-- Node6&#45;&gt;Node13 -->
<g id="edge15" class="edge">
<title>Node6&#45;&gt;Node13</title>
<path fill="none" stroke="#9a32cd" stroke-dasharray="5,2" d="M39.25,-276C61.18,-276 94.6,-276 123.31,-276"/>
<polygon fill="#9a32cd" stroke="#9a32cd" points="39.2,-272.5 29.2,-276 39.2,-279.5 39.2,-272.5"/>
<text text-anchor="middle" x="71.5" y="-279" font-family="Helvetica,sans-Serif" font-size="10.00"> elements</text>
</g>
<!-- Node7 -->
<g id="node7" class="node">
<title>Node7</title>
<g id="a_node7"><a xlink:href="classsparse__bitvector__analysist.html" target="_top" xlink:title=" ">
<polygon fill="none" stroke="black" points="1019,-201 1019,-231 1166,-231 1166,-201 1019,-201"/>
<text text-anchor="start" x="1027" y="-219" font-family="Helvetica,sans-Serif" font-size="10.00">sparse_bitvector_analysist</text>
<text text-anchor="middle" x="1092.5" y="-208" font-family="Helvetica,sans-Serif" font-size="10.00">&lt; reaching_definitiont &gt;</text>
</a>
</g>
</g>
<!-- Node7&#45;&gt;Node1 -->
<g id="edge6" class="edge">
<title>Node7&#45;&gt;Node1</title>
<path fill="none" stroke="#9a32cd" stroke-dasharray="5,2" d="M1176.61,-207.95C1207.53,-204.95 1241.71,-201.64 1268.99,-198.99"/>
<polygon fill="#9a32cd" stroke="#9a32cd" points="1175.88,-204.5 1166.26,-208.95 1176.55,-211.47 1175.88,-204.5"/>
<text text-anchor="middle" x="1217.5" y="-210" font-family="Helvetica,sans-Serif" font-size="10.00"> bv_container</text>
</g>
<!-- Node8 -->
<g id="node8" class="node">
<title>Node8</title>
<g id="a_node8"><a xlink:href="classsparse__bitvector__analysist.html" target="_top" xlink:title="An instance of this class provides an assignment of unique numeric ID to each inserted reaching_defin...">
<polygon fill="none" stroke="black" points="684,-263.5 684,-282.5 860,-282.5 860,-263.5 684,-263.5"/>
<text text-anchor="middle" x="772" y="-270.5" font-family="Helvetica,sans-Serif" font-size="10.00">sparse_bitvector_analysist&lt; V &gt;</text>
</a>
</g>
</g>
<!-- Node8&#45;&gt;Node7 -->
<g id="edge7" class="edge">
<title>Node8&#45;&gt;Node7</title>
<path fill="none" stroke="orange" stroke-dasharray="5,2" d="M836.2,-261.69C888.83,-252.27 963.81,-238.85 1018.9,-228.99"/>
<polygon fill="orange" stroke="orange" points="835.54,-258.25 826.31,-263.46 836.77,-265.14 835.54,-258.25"/>
<text text-anchor="middle" x="939.5" y="-256" font-family="Helvetica,sans-Serif" font-size="10.00"> &lt; reaching_definitiont &gt;</text>
</g>
<!-- Node9 -->
<g id="node9" class="node">
<title>Node9</title>
<g id="a_node9"><a xlink:title=" ">
<polygon fill="none" stroke="#bfbfbf" points="419,-258 419,-288 557,-288 557,-258 419,-258"/>
<text text-anchor="start" x="427" y="-276" font-family="Helvetica,sans-Serif" font-size="10.00">std::unordered_map</text>
<text text-anchor="middle" x="488" y="-265" font-family="Helvetica,sans-Serif" font-size="10.00">&lt; dstringt, inner_mapt &gt;</text>
</a>
</g>
</g>
<!-- Node9&#45;&gt;Node8 -->
<g id="edge8" class="edge">
<title>Node9&#45;&gt;Node8</title>
<path fill="none" stroke="#9a32cd" stroke-dasharray="5,2" d="M567.28,-273C603.49,-273 646.63,-273 683.86,-273"/>
<polygon fill="#9a32cd" stroke="#9a32cd" points="567.26,-269.5 557.26,-273 567.26,-276.5 567.26,-269.5"/>
<text text-anchor="middle" x="626" y="-276" font-family="Helvetica,sans-Serif" font-size="10.00"> value_map</text>
</g>
<!-- Node10&#45;&gt;Node9 -->
<g id="edge9" class="edge">
<title>Node10&#45;&gt;Node9</title>
<path fill="none" stroke="#9a32cd" stroke-dasharray="5,2" d="M241.33,-142.65C301.95,-151.55 387.24,-164.44 390,-167 415.46,-190.6 385.11,-216.91 408,-243 413.42,-249.18 420.25,-254.08 427.61,-257.99"/>
<polygon fill="#9a32cd" stroke="#9a32cd" points="241.47,-139.14 231.07,-141.15 240.46,-146.07 241.47,-139.14"/>
<text text-anchor="middle" x="327.5" y="-170" font-family="Helvetica,sans-Serif" font-size="10.00"> elements</text>
</g>
<!-- Node16 -->
<g id="node16" class="node">
<title>Node16</title>
<g id="a_node16"><a xlink:title=" ">
<polygon fill="none" stroke="#bfbfbf" points="717,-75 717,-105 827,-105 827,-75 717,-75"/>
<text text-anchor="start" x="725" y="-93" font-family="Helvetica,sans-Serif" font-size="10.00">std::map&lt; irep_idt,</text>
<text text-anchor="middle" x="772" y="-82" font-family="Helvetica,sans-Serif" font-size="10.00"> values_innert &gt;</text>
</a>
</g>
</g>
<!-- Node10&#45;&gt;Node16 -->
<g id="edge24" class="edge">
<title>Node10&#45;&gt;Node16</title>
<path fill="none" stroke="orange" stroke-dasharray="5,2" d="M204.56,-119.14C220.76,-109.61 243.32,-98.1 265,-93 425.76,-55.16 623.29,-71.28 716.89,-82.51"/>
<polygon fill="orange" stroke="orange" points="202.55,-116.27 195.82,-124.46 206.18,-122.25 202.55,-116.27"/>
<text text-anchor="start" x="443" y="-87" font-family="Helvetica,sans-Serif" font-size="10.00"> &lt; irep_idt, values</text>
<text text-anchor="middle" x="488" y="-76" font-family="Helvetica,sans-Serif" font-size="10.00">_innert &gt;</text>
</g>
<!-- Node19 -->
<g id="node19" class="node">
<title>Node19</title>
<g id="a_node19"><a xlink:title=" ">
<polygon fill="none" stroke="#bfbfbf" points="433,-142 433,-172 543,-172 543,-142 433,-142"/>
<text text-anchor="start" x="441" y="-160" font-family="Helvetica,sans-Serif" font-size="10.00">std::map&lt; irep_idt,</text>
<text text-anchor="middle" x="488" y="-149" font-family="Helvetica,sans-Serif" font-size="10.00"> ranges_at_loct &gt;</text>
</a>
</g>
</g>
<!-- Node10&#45;&gt;Node19 -->
<g id="edge26" class="edge">
<title>Node10&#45;&gt;Node19</title>
<path fill="none" stroke="#9a32cd" stroke-dasharray="5,2" d="M241.4,-130.84C283.19,-129.48 340.16,-129.3 390,-135 404.07,-136.61 419.08,-139.45 432.98,-142.56"/>
<polygon fill="#9a32cd" stroke="#9a32cd" points="241.26,-127.34 231.39,-131.2 241.51,-134.34 241.26,-127.34"/>
<text text-anchor="middle" x="327.5" y="-138" font-family="Helvetica,sans-Serif" font-size="10.00"> elements</text>
</g>
<!-- Node10&#45;&gt;Node19 -->
<g id="edge28" class="edge">
<title>Node10&#45;&gt;Node19</title>
<path fill="none" stroke="orange" stroke-dasharray="5,2" d="M212.2,-120.58C227.7,-114.51 247,-108.04 265,-105 319.78,-95.76 336.12,-91.47 390,-105 418.35,-112.12 447.46,-129.3 466.3,-141.98"/>
<polygon fill="orange" stroke="orange" points="210.56,-117.46 202.61,-124.46 213.19,-123.95 210.56,-117.46"/>
<text text-anchor="start" x="282" y="-119" font-family="Helvetica,sans-Serif" font-size="10.00"> &lt; irep_idt, ranges</text>
<text text-anchor="middle" x="327.5" y="-108" font-family="Helvetica,sans-Serif" font-size="10.00">_at_loct &gt;</text>
</g>
<!-- Node11 -->
<g id="node11" class="node">
<title>Node11</title>
<g id="a_node11"><a xlink:title=" ">
<polygon fill="none" stroke="#bfbfbf" points="0,-124.5 0,-143.5 29,-143.5 29,-124.5 0,-124.5"/>
<text text-anchor="middle" x="14.5" y="-131.5" font-family="Helvetica,sans-Serif" font-size="10.00">K</text>
</a>
</g>
</g>
<!-- Node11&#45;&gt;Node10 -->
<g id="edge10" class="edge">
<title>Node11&#45;&gt;Node10</title>
<path fill="none" stroke="#9a32cd" stroke-dasharray="5,2" d="M39.32,-134C62.88,-134 99.66,-134 129.64,-134"/>
<polygon fill="#9a32cd" stroke="#9a32cd" points="39.2,-130.5 29.2,-134 39.2,-137.5 39.2,-130.5"/>
<text text-anchor="middle" x="71.5" y="-137" font-family="Helvetica,sans-Serif" font-size="10.00"> keys</text>
</g>
<!-- Node11&#45;&gt;Node13 -->
<g id="edge14" class="edge">
<title>Node11&#45;&gt;Node13</title>
<path fill="none" stroke="#9a32cd" stroke-dasharray="5,2" d="M37.88,-145.97C55.89,-156.65 80.65,-173.85 96,-195 110.36,-214.79 97.44,-229 114,-247 119.14,-252.58 125.54,-257.15 132.32,-260.87"/>
<polygon fill="#9a32cd" stroke="#9a32cd" points="39.58,-142.92 29.16,-141 36.11,-148.99 39.58,-142.92"/>
<text text-anchor="middle" x="71.5" y="-198" font-family="Helvetica,sans-Serif" font-size="10.00"> keys</text>
</g>
<!-- Node18 -->
<g id="node18" class="node">
<title>Node18</title>
<g id="a_node18"><a xlink:title=" ">
<polygon fill="none" stroke="#bfbfbf" points="139.5,-48.5 139.5,-67.5 221.5,-67.5 221.5,-48.5 139.5,-48.5"/>
<text text-anchor="middle" x="180.5" y="-55.5" font-family="Helvetica,sans-Serif" font-size="10.00">std::set&lt; K &gt;</text>
</a>
</g>
</g>
<!-- Node11&#45;&gt;Node18 -->
<g id="edge23" class="edge">
<title>Node11&#45;&gt;Node18</title>
<path fill="none" stroke="#9a32cd" stroke-dasharray="5,2" d="M38.59,-122.96C41.42,-121.62 44.27,-120.28 47,-119 86.22,-100.64 132.16,-79.59 158.35,-67.64"/>
<polygon fill="#9a32cd" stroke="#9a32cd" points="36.81,-119.93 29.28,-127.39 39.82,-126.26 36.81,-119.93"/>
<text text-anchor="middle" x="71.5" y="-122" font-family="Helvetica,sans-Serif" font-size="10.00"> keys</text>
</g>
<!-- Node12 -->
<g id="node12" class="node">
<title>Node12</title>
<g id="a_node12"><a xlink:href="classdstringt.html" target="_top" xlink:title="dstringt has one field, an unsigned integer no which is an index into a static table of strings.">
<polygon fill="none" stroke="black" points="153.5,-218.5 153.5,-237.5 207.5,-237.5 207.5,-218.5 153.5,-218.5"/>
<text text-anchor="middle" x="180.5" y="-225.5" font-family="Helvetica,sans-Serif" font-size="10.00">dstringt</text>
</a>
</g>
</g>
<!-- Node12&#45;&gt;Node9 -->
<g id="edge12" class="edge">
<title>Node12&#45;&gt;Node9</title>
<path fill="none" stroke="#9a32cd" stroke-dasharray="5,2" d="M217.45,-233.3C266.86,-240.57 356.69,-253.8 419,-262.98"/>
<polygon fill="#9a32cd" stroke="#9a32cd" points="217.95,-229.83 207.55,-231.84 216.93,-236.76 217.95,-229.83"/>
<text text-anchor="middle" x="327.5" y="-262" font-family="Helvetica,sans-Serif" font-size="10.00"> keys</text>
</g>
<!-- Node12&#45;&gt;Node16 -->
<g id="edge20" class="edge">
<title>Node12&#45;&gt;Node16</title>
<path fill="none" stroke="#9a32cd" stroke-dasharray="5,2" d="M217.99,-227.91C287.65,-226.81 443.71,-219.77 568,-181 633.08,-160.7 704.91,-125.14 743.26,-105"/>
<polygon fill="#9a32cd" stroke="#9a32cd" points="217.92,-224.41 207.96,-228.04 218.01,-231.41 217.92,-224.41"/>
<text text-anchor="middle" x="488" y="-217" font-family="Helvetica,sans-Serif" font-size="10.00"> keys</text>
</g>
<!-- Node12&#45;&gt;Node19 -->
<g id="edge27" class="edge">
<title>Node12&#45;&gt;Node19</title>
<path fill="none" stroke="#9a32cd" stroke-dasharray="5,2" d="M217.33,-216.34C232.01,-211.81 249.22,-206.8 265,-203 319.92,-189.77 334.72,-191.63 390,-180 403.97,-177.06 419.01,-173.63 432.98,-170.32"/>
<polygon fill="#9a32cd" stroke="#9a32cd" points="216.12,-213.05 207.63,-219.38 218.21,-219.73 216.12,-213.05"/>
<text text-anchor="middle" x="327.5" y="-206" font-family="Helvetica,sans-Serif" font-size="10.00"> keys</text>
</g>
<!-- Node13&#45;&gt;Node9 -->
<g id="edge13" class="edge">
<title>Node13&#45;&gt;Node9</title>
<path fill="none" stroke="orange" stroke-dasharray="5,2" d="M247.7,-275.35C298.26,-274.85 367.71,-274.17 418.76,-273.67"/>
<polygon fill="orange" stroke="orange" points="247.5,-271.85 237.53,-275.45 247.57,-278.85 247.5,-271.85"/>
<text text-anchor="middle" x="327.5" y="-279" font-family="Helvetica,sans-Serif" font-size="10.00"> &lt; dstringt, inner_mapt &gt;</text>
</g>
<!-- Node14&#45;&gt;Node8 -->
<g id="edge16" class="edge">
<title>Node14&#45;&gt;Node8</title>
<path fill="none" stroke="#9a32cd" stroke-dasharray="5,2" d="M574.49,-312.02C623.24,-302.34 682.53,-290.57 723.16,-282.5"/>
<polygon fill="#9a32cd" stroke="#9a32cd" points="573.7,-308.61 564.57,-313.99 575.06,-315.48 573.7,-308.61"/>
<text text-anchor="middle" x="626" y="-312" font-family="Helvetica,sans-Serif" font-size="10.00"> values</text>
</g>
<!-- Node15 -->
<g id="node15" class="node">
<title>Node15</title>
<g id="a_node15"><a xlink:title=" ">
<polygon fill="none" stroke="#bfbfbf" points="114,-314 114,-344 247,-344 247,-314 114,-314"/>
<text text-anchor="start" x="122" y="-332" font-family="Helvetica,sans-Serif" font-size="10.00">std::map&lt; K, T &gt;::const</text>
<text text-anchor="middle" x="180.5" y="-321" font-family="Helvetica,sans-Serif" font-size="10.00">_iterator</text>
</a>
</g>
</g>
<!-- Node15&#45;&gt;Node14 -->
<g id="edge17" class="edge">
<title>Node15&#45;&gt;Node14</title>
<path fill="none" stroke="#9a32cd" stroke-dasharray="5,2" d="M257.2,-329C303,-329 361.32,-329 407.74,-329"/>
<polygon fill="#9a32cd" stroke="#9a32cd" points="257.04,-325.5 247.04,-329 257.04,-332.5 257.04,-325.5"/>
<text text-anchor="middle" x="327.5" y="-332" font-family="Helvetica,sans-Serif" font-size="10.00"> elements</text>
</g>
<!-- Node16&#45;&gt;Node1 -->
<g id="edge19" class="edge">
<title>Node16&#45;&gt;Node1</title>
<path fill="none" stroke="#9a32cd" stroke-dasharray="5,2" d="M837.12,-92.3C930.31,-97.17 1107.68,-112.15 1251,-158 1270.93,-164.38 1292.03,-176.11 1305.68,-184.45"/>
<polygon fill="#9a32cd" stroke="#9a32cd" points="837.16,-88.8 827,-91.8 836.81,-95.79 837.16,-88.8"/>
<text text-anchor="middle" x="1092.5" y="-137" font-family="Helvetica,sans-Serif" font-size="10.00"> values</text>
</g>
<!-- Node17 -->
<g id="node17" class="node">
<title>Node17</title>
<g id="a_node17"><a xlink:title=" ">
<polygon fill="none" stroke="#bfbfbf" points="425.5,-0.5 425.5,-19.5 550.5,-19.5 550.5,-0.5 425.5,-0.5"/>
<text text-anchor="middle" x="488" y="-7.5" font-family="Helvetica,sans-Serif" font-size="10.00">std::set&lt; std::size_t &gt;</text>
</a>
</g>
</g>
<!-- Node17&#45;&gt;Node16 -->
<g id="edge21" class="edge">
<title>Node17&#45;&gt;Node16</title>
<path fill="none" stroke="#9a32cd" stroke-dasharray="5,2" d="M561.26,-12.15C593.9,-14.74 632.55,-20.1 666,-31 697.21,-41.17 729.63,-61.06 750.04,-74.92"/>
<polygon fill="#9a32cd" stroke="#9a32cd" points="561.12,-8.63 550.89,-11.4 560.62,-15.61 561.12,-8.63"/>
<text text-anchor="middle" x="626" y="-34" font-family="Helvetica,sans-Serif" font-size="10.00"> elements</text>
</g>
<!-- Node18&#45;&gt;Node17 -->
<g id="edge22" class="edge">
<title>Node18&#45;&gt;Node17</title>
<path fill="none" stroke="orange" stroke-dasharray="5,2" d="M216.11,-44.93C230.96,-39.82 248.63,-34.38 265,-31 318.46,-19.97 380.38,-14.72 425.22,-12.23"/>
<polygon fill="orange" stroke="orange" points="214.59,-41.76 206.33,-48.39 216.92,-48.36 214.59,-41.76"/>
<text text-anchor="middle" x="327.5" y="-34" font-family="Helvetica,sans-Serif" font-size="10.00"> &lt; std::size_t &gt;</text>
</g>
<!-- Node19&#45;&gt;Node1 -->
<g id="edge25" class="edge">
<title>Node19&#45;&gt;Node1</title>
<path fill="none" stroke="#9a32cd" stroke-dasharray="5,2" d="M553.37,-159.86C712.86,-166.96 1123.88,-185.25 1268.9,-191.7"/>
<polygon fill="#9a32cd" stroke="#9a32cd" points="553.38,-156.36 543.24,-159.41 553.07,-163.35 553.38,-156.36"/>
<text text-anchor="middle" x="939.5" y="-183" font-family="Helvetica,sans-Serif" font-size="10.00"> export_cache</text>
</g>
<!-- Node20 -->
<g id="node20" class="node">
<title>Node20</title>
<g id="a_node20"><a xlink:href="classtvt.html" target="_top" xlink:title=" ">
<polygon fill="none" stroke="black" points="1077.5,-77.5 1077.5,-96.5 1107.5,-96.5 1107.5,-77.5 1077.5,-77.5"/>
<text text-anchor="middle" x="1092.5" y="-84.5" font-family="Helvetica,sans-Serif" font-size="10.00">tvt</text>
</a>
</g>
</g>
<!-- Node20&#45;&gt;Node1 -->
<g id="edge29" class="edge">
<title>Node20&#45;&gt;Node1</title>
<path fill="none" stroke="#9a32cd" stroke-dasharray="5,2" d="M1118,-84.88C1150.55,-83.22 1208.83,-84.31 1251,-108 1283.3,-126.15 1306.4,-165.81 1315.81,-184.24"/>
<polygon fill="#9a32cd" stroke="#9a32cd" points="1117.38,-81.42 1107.63,-85.56 1117.84,-88.4 1117.38,-81.42"/>
<text text-anchor="middle" x="1217.5" y="-111" font-family="Helvetica,sans-Serif" font-size="10.00"> has_values</text>
</g>
</g>
</svg>
