<?xml version="1.0" encoding="UTF-8" standalone="no"?>
<!DOCTYPE svg PUBLIC "-//W3C//DTD SVG 1.1//EN"
 "http://www.w3.org/Graphics/SVG/1.1/DTD/svg11.dtd">
<!-- Generated by graphviz version 2.43.0 (0)
 -->
<!-- Title: havoc_assigns_targetst Pages: 1 -->
<svg width="495pt" height="386pt"
 viewBox="0.00 0.00 494.50 386.00" xmlns="http://www.w3.org/2000/svg" xmlns:xlink="http://www.w3.org/1999/xlink">
<g id="graph0" class="graph" transform="scale(1 1) rotate(0) translate(4 382)">
<title>havoc_assigns_targetst</title>
<!-- Node1 -->
<g id="node1" class="node">
<title>Node1</title>
<g id="a_node1"><a xlink:title="A class that further overrides the &quot;safe&quot; havoc utilities, and adds support for havocing pointer_obje...">
<polygon fill="#bfbfbf" stroke="black" points="163,-0.5 163,-19.5 294,-19.5 294,-0.5 163,-0.5"/>
<text text-anchor="middle" x="228.5" y="-7.5" font-family="Helvetica,sans-Serif" font-size="10.00">havoc_assigns_targetst</text>
</a>
</g>
</g>
<!-- Node2 -->
<g id="node2" class="node">
<title>Node2</title>
<g id="a_node2"><a xlink:href="classhavoc__if__validt.html" target="_top" xlink:title="A class that overrides the low&#45;level havocing functions in the base utility class,...">
<polygon fill="none" stroke="black" points="183,-57.5 183,-76.5 274,-76.5 274,-57.5 183,-57.5"/>
<text text-anchor="middle" x="228.5" y="-64.5" font-family="Helvetica,sans-Serif" font-size="10.00">havoc_if_validt</text>
</a>
</g>
</g>
<!-- Node2&#45;&gt;Node1 -->
<g id="edge1" class="edge">
<title>Node2&#45;&gt;Node1</title>
<path fill="none" stroke="midnightblue" d="M228.5,-47.12C228.5,-37.82 228.5,-27.06 228.5,-19.71"/>
<polygon fill="midnightblue" stroke="midnightblue" points="225,-47.41 228.5,-57.41 232,-47.41 225,-47.41"/>
</g>
<!-- Node3 -->
<g id="node3" class="node">
<title>Node3</title>
<g id="a_node3"><a xlink:href="classhavoc__utilst.html" target="_top" xlink:title=" ">
<polygon fill="none" stroke="black" points="135.5,-124.5 135.5,-143.5 211.5,-143.5 211.5,-124.5 135.5,-124.5"/>
<text text-anchor="middle" x="173.5" y="-131.5" font-family="Helvetica,sans-Serif" font-size="10.00">havoc_utilst</text>
</a>
</g>
</g>
<!-- Node3&#45;&gt;Node2 -->
<g id="edge2" class="edge">
<title>Node3&#45;&gt;Node2</title>
<path fill="none" stroke="midnightblue" d="M187.66,-116.27C198.38,-103.6 212.68,-86.7 221.2,-76.63"/>
<polygon fill="midnightblue" stroke="midnightblue" points="184.71,-114.34 180.92,-124.23 190.05,-118.86 184.71,-114.34"/>
</g>
<!-- Node4 -->
<g id="node4" class="node">
<title>Node4</title>
<g id="a_node4"><a xlink:href="classhavoc__utils__is__constantt.html" target="_top" xlink:title="A class containing utility functions for havocing expressions.">
<polygon fill="none" stroke="black" points="0,-202.5 0,-221.5 137,-221.5 137,-202.5 0,-202.5"/>
<text text-anchor="middle" x="68.5" y="-209.5" font-family="Helvetica,sans-Serif" font-size="10.00">havoc_utils_is_constantt</text>
</a>
</g>
</g>
<!-- Node4&#45;&gt;Node3 -->
<g id="edge3" class="edge">
<title>Node4&#45;&gt;Node3</title>
<path fill="none" stroke="#9a32cd" stroke-dasharray="5,2" d="M76.58,-193.14C82.04,-182.81 90.15,-170.26 100.5,-162 110.96,-153.66 124.25,-147.73 136.61,-143.6"/>
<polygon fill="#9a32cd" stroke="#9a32cd" points="73.42,-191.63 72.16,-202.15 79.7,-194.71 73.42,-191.63"/>
<text text-anchor="middle" x="130" y="-170.5" font-family="Helvetica,sans-Serif" font-size="10.00"> is_constant</text>
</g>
<!-- Node5 -->
<g id="node5" class="node">
<title>Node5</title>
<g id="a_node5"><a xlink:href="classis__constantt.html" target="_top" xlink:title="Determine whether an expression is constant.">
<polygon fill="none" stroke="black" points="30.5,-286 30.5,-305 106.5,-305 106.5,-286 30.5,-286"/>
<text text-anchor="middle" x="68.5" y="-293" font-family="Helvetica,sans-Serif" font-size="10.00">is_constantt</text>
</a>
</g>
</g>
<!-- Node5&#45;&gt;Node4 -->
<g id="edge4" class="edge">
<title>Node5&#45;&gt;Node4</title>
<path fill="none" stroke="midnightblue" d="M68.5,-275.38C68.5,-258.4 68.5,-234.37 68.5,-221.66"/>
<polygon fill="midnightblue" stroke="midnightblue" points="65,-275.78 68.5,-285.78 72,-275.78 65,-275.78"/>
</g>
<!-- Node6 -->
<g id="node6" class="node">
<title>Node6</title>
<g id="a_node6"><a xlink:title="STL class.">
<polygon fill="none" stroke="#bfbfbf" points="128.5,-286 128.5,-305 210.5,-305 210.5,-286 128.5,-286"/>
<text text-anchor="middle" x="169.5" y="-293" font-family="Helvetica,sans-Serif" font-size="10.00">std::set&lt; K &gt;</text>
</a>
</g>
</g>
<!-- Node6&#45;&gt;Node3 -->
<g id="edge7" class="edge">
<title>Node6&#45;&gt;Node3</title>
<path fill="none" stroke="#9a32cd" stroke-dasharray="5,2" d="M169.97,-275.78C170.84,-241.2 172.66,-168.55 173.28,-143.62"/>
<polygon fill="#9a32cd" stroke="#9a32cd" points="166.47,-275.84 169.72,-285.92 173.46,-276.02 166.47,-275.84"/>
<text text-anchor="middle" x="192.5" y="-209.5" font-family="Helvetica,sans-Serif" font-size="10.00"> assigns</text>
</g>
<!-- Node6&#45;&gt;Node4 -->
<g id="edge5" class="edge">
<title>Node6&#45;&gt;Node4</title>
<path fill="none" stroke="#9a32cd" stroke-dasharray="5,2" d="M145.8,-280.39C137.27,-274.97 127.72,-268.52 119.5,-262 103.34,-249.18 86.43,-232.08 76.71,-221.84"/>
<polygon fill="#9a32cd" stroke="#9a32cd" points="144.21,-283.52 154.56,-285.81 147.9,-277.57 144.21,-283.52"/>
<text text-anchor="middle" x="139.5" y="-248.5" font-family="Helvetica,sans-Serif" font-size="10.00"> assigns</text>
</g>
<!-- Node7 -->
<g id="node7" class="node">
<title>Node7</title>
<g id="a_node7"><a xlink:title=" ">
<polygon fill="none" stroke="#bfbfbf" points="245,-358.5 245,-377.5 274,-377.5 274,-358.5 245,-358.5"/>
<text text-anchor="middle" x="259.5" y="-365.5" font-family="Helvetica,sans-Serif" font-size="10.00">K</text>
</a>
</g>
</g>
<!-- Node7&#45;&gt;Node6 -->
<g id="edge6" class="edge">
<title>Node7&#45;&gt;Node6</title>
<path fill="none" stroke="#9a32cd" stroke-dasharray="5,2" d="M240.32,-351.97C222.16,-337.75 195.52,-316.88 180.63,-305.22"/>
<polygon fill="#9a32cd" stroke="#9a32cd" points="238.43,-354.94 248.46,-358.36 242.75,-349.43 238.43,-354.94"/>
<text text-anchor="middle" x="235.5" y="-332" font-family="Helvetica,sans-Serif" font-size="10.00"> keys</text>
</g>
<!-- Node11 -->
<g id="node11" class="node">
<title>Node11</title>
<g id="a_node11"><a xlink:title="STL class.">
<polygon fill="none" stroke="#bfbfbf" points="228.5,-286 228.5,-305 354.5,-305 354.5,-286 228.5,-286"/>
<text text-anchor="middle" x="291.5" y="-293" font-family="Helvetica,sans-Serif" font-size="10.00">std::multimap&lt; K, T &gt;</text>
</a>
</g>
</g>
<!-- Node7&#45;&gt;Node11 -->
<g id="edge12" class="edge">
<title>Node7&#45;&gt;Node11</title>
<path fill="none" stroke="#9a32cd" stroke-dasharray="5,2" d="M257.33,-348.17C257.3,-341.87 258.03,-334.94 260.5,-329 264.51,-319.35 272.82,-310.9 279.82,-305.03"/>
<polygon fill="#9a32cd" stroke="#9a32cd" points="253.87,-348.74 258.03,-358.49 260.85,-348.27 253.87,-348.74"/>
<text text-anchor="middle" x="273.5" y="-332" font-family="Helvetica,sans-Serif" font-size="10.00"> keys</text>
</g>
<!-- Node13 -->
<g id="node13" class="node">
<title>Node13</title>
<g id="a_node13"><a xlink:title="STL class.">
<polygon fill="none" stroke="#bfbfbf" points="372.5,-280.5 372.5,-310.5 486.5,-310.5 486.5,-280.5 372.5,-280.5"/>
<text text-anchor="start" x="380.5" y="-298.5" font-family="Helvetica,sans-Serif" font-size="10.00">std::unordered_map</text>
<text text-anchor="middle" x="429.5" y="-287.5" font-family="Helvetica,sans-Serif" font-size="10.00">&lt; K, T &gt;</text>
</a>
</g>
</g>
<!-- Node7&#45;&gt;Node13 -->
<g id="edge15" class="edge">
<title>Node7&#45;&gt;Node13</title>
<path fill="none" stroke="#9a32cd" stroke-dasharray="5,2" d="M276.22,-351.32C285.2,-343.64 296.81,-334.81 308.5,-329 320.04,-323.27 346.83,-315.88 372.27,-309.59"/>
<polygon fill="#9a32cd" stroke="#9a32cd" points="273.63,-348.94 268.5,-358.21 278.29,-354.17 273.63,-348.94"/>
<text text-anchor="middle" x="321.5" y="-332" font-family="Helvetica,sans-Serif" font-size="10.00"> keys</text>
</g>
<!-- Node8 -->
<g id="node8" class="node">
<title>Node8</title>
<g id="a_node8"><a xlink:href="classnamespacet.html" target="_top" xlink:title="A namespacet is essentially one or two symbol tables bound together, to allow for symbol lookups in t...">
<polygon fill="none" stroke="black" points="246,-124.5 246,-143.5 323,-143.5 323,-124.5 246,-124.5"/>
<text text-anchor="middle" x="284.5" y="-131.5" font-family="Helvetica,sans-Serif" font-size="10.00">namespacet</text>
</a>
</g>
</g>
<!-- Node8&#45;&gt;Node2 -->
<g id="edge8" class="edge">
<title>Node8&#45;&gt;Node2</title>
<path fill="none" stroke="#9a32cd" stroke-dasharray="5,2" d="M270.4,-116.63C259.45,-103.92 244.7,-86.8 235.93,-76.63"/>
<polygon fill="#9a32cd" stroke="#9a32cd" points="267.77,-118.94 276.95,-124.23 273.07,-114.37 267.77,-118.94"/>
<text text-anchor="middle" x="267" y="-98" font-family="Helvetica,sans-Serif" font-size="10.00"> ns</text>
</g>
<!-- Node9 -->
<g id="node9" class="node">
<title>Node9</title>
<g id="a_node9"><a xlink:href="classnamespace__baset.html" target="_top" xlink:title="Basic interface for a namespace.">
<polygon fill="none" stroke="black" points="232,-202.5 232,-221.5 337,-221.5 337,-202.5 232,-202.5"/>
<text text-anchor="middle" x="284.5" y="-209.5" font-family="Helvetica,sans-Serif" font-size="10.00">namespace_baset</text>
</a>
</g>
</g>
<!-- Node9&#45;&gt;Node8 -->
<g id="edge9" class="edge">
<title>Node9&#45;&gt;Node8</title>
<path fill="none" stroke="midnightblue" d="M284.5,-192.22C284.5,-176.7 284.5,-155.36 284.5,-143.62"/>
<polygon fill="midnightblue" stroke="midnightblue" points="281,-192.28 284.5,-202.28 288,-192.28 281,-192.28"/>
</g>
<!-- Node10 -->
<g id="node10" class="node">
<title>Node10</title>
<g id="a_node10"><a xlink:href="classsymbol__table__baset.html" target="_top" xlink:title="The symbol table base class interface.">
<polygon fill="none" stroke="black" points="355,-202.5 355,-221.5 470,-221.5 470,-202.5 355,-202.5"/>
<text text-anchor="middle" x="412.5" y="-209.5" font-family="Helvetica,sans-Serif" font-size="10.00">symbol_table_baset</text>
</a>
</g>
</g>
<!-- Node10&#45;&gt;Node8 -->
<g id="edge10" class="edge">
<title>Node10&#45;&gt;Node8</title>
<path fill="none" stroke="#9a32cd" stroke-dasharray="5,2" d="M388.89,-196.98C362.59,-181.36 320.9,-156.61 299.01,-143.62"/>
<polygon fill="#9a32cd" stroke="#9a32cd" points="387.43,-200.19 397.82,-202.28 391.01,-194.17 387.43,-200.19"/>
<text text-anchor="middle" x="401.5" y="-176" font-family="Helvetica,sans-Serif" font-size="10.00"> symbol_table1</text>
<text text-anchor="middle" x="401.5" y="-165" font-family="Helvetica,sans-Serif" font-size="10.00">symbol_table2</text>
</g>
<!-- Node11&#45;&gt;Node10 -->
<g id="edge11" class="edge">
<title>Node11&#45;&gt;Node10</title>
<path fill="none" stroke="#9a32cd" stroke-dasharray="5,2" d="M292.43,-275.66C294.01,-263.88 297.94,-249.25 307.5,-240 315.38,-232.38 337.84,-226.1 359.97,-221.53"/>
<polygon fill="#9a32cd" stroke="#9a32cd" points="288.93,-275.53 291.54,-285.8 295.9,-276.15 288.93,-275.53"/>
<text text-anchor="middle" x="360.5" y="-254" font-family="Helvetica,sans-Serif" font-size="10.00"> symbol_base_map</text>
<text text-anchor="middle" x="360.5" y="-243" font-family="Helvetica,sans-Serif" font-size="10.00">symbol_module_map</text>
</g>
<!-- Node12 -->
<g id="node12" class="node">
<title>Node12</title>
<g id="a_node12"><a xlink:title=" ">
<polygon fill="none" stroke="#bfbfbf" points="379,-358.5 379,-377.5 408,-377.5 408,-358.5 379,-358.5"/>
<text text-anchor="middle" x="393.5" y="-365.5" font-family="Helvetica,sans-Serif" font-size="10.00">T</text>
</a>
</g>
</g>
<!-- Node12&#45;&gt;Node11 -->
<g id="edge13" class="edge">
<title>Node12&#45;&gt;Node11</title>
<path fill="none" stroke="#9a32cd" stroke-dasharray="5,2" d="M372.6,-352.55C352,-338.32 321.22,-317.04 304.11,-305.22"/>
<polygon fill="#9a32cd" stroke="#9a32cd" points="370.78,-355.55 380.99,-358.36 374.76,-349.79 370.78,-355.55"/>
<text text-anchor="middle" x="376" y="-332" font-family="Helvetica,sans-Serif" font-size="10.00"> elements</text>
</g>
<!-- Node12&#45;&gt;Node13 -->
<g id="edge16" class="edge">
<title>Node12&#45;&gt;Node13</title>
<path fill="none" stroke="#9a32cd" stroke-dasharray="5,2" d="M402.56,-349.58C404.21,-346.4 405.91,-343.1 407.5,-340 412.51,-330.21 418.11,-319.14 422.4,-310.62"/>
<polygon fill="#9a32cd" stroke="#9a32cd" points="399.44,-348.01 397.94,-358.5 405.65,-351.24 399.44,-348.01"/>
<text text-anchor="middle" x="437" y="-332" font-family="Helvetica,sans-Serif" font-size="10.00"> elements</text>
</g>
<!-- Node13&#45;&gt;Node10 -->
<g id="edge14" class="edge">
<title>Node13&#45;&gt;Node10</title>
<path fill="none" stroke="#9a32cd" stroke-dasharray="5,2" d="M424.44,-270.25C421.01,-253.78 416.67,-232.99 414.28,-221.54"/>
<polygon fill="#9a32cd" stroke="#9a32cd" points="421.07,-271.23 426.54,-280.3 427.92,-269.8 421.07,-271.23"/>
<text text-anchor="middle" x="445" y="-248.5" font-family="Helvetica,sans-Serif" font-size="10.00"> symbols</text>
</g>
</g>
</svg>
