<?xml version="1.0" encoding="UTF-8" standalone="no"?>
<!DOCTYPE svg PUBLIC "-//W3C//DTD SVG 1.1//EN"
 "http://www.w3.org/Graphics/SVG/1.1/DTD/svg11.dtd">
<!-- Generated by graphviz version 2.43.0 (0)
 -->
<!-- Title: partial_order_concurrencyt Pages: 1 -->
<svg width="1857pt" height="413pt"
 viewBox="0.00 0.00 1857.00 412.60" xmlns="http://www.w3.org/2000/svg" xmlns:xlink="http://www.w3.org/1999/xlink">
<g id="graph0" class="graph" transform="scale(1 1) rotate(0) translate(4 408.6)">
<title>partial_order_concurrencyt</title>
<!-- Node1 -->
<g id="node1" class="node">
<title>Node1</title>
<g id="a_node1"><a xlink:title="Base class for implementing memory models via additional constraints for SSA equations.">
<polygon fill="#bfbfbf" stroke="black" points="1702,-141.1 1702,-160.1 1849,-160.1 1849,-141.1 1702,-141.1"/>
<text text-anchor="middle" x="1775.5" y="-148.1" font-family="Helvetica,sans-Serif" font-size="10.00">partial_order_concurrencyt</text>
</a>
</g>
</g>
<!-- Node2 -->
<g id="node2" class="node">
<title>Node2</title>
<g id="a_node2"><a xlink:href="classtypet.html" target="_top" xlink:title="The type of an expression, extends irept.">
<polygon fill="none" stroke="black" points="1568,-217.1 1568,-236.1 1610,-236.1 1610,-217.1 1568,-217.1"/>
<text text-anchor="middle" x="1589" y="-224.1" font-family="Helvetica,sans-Serif" font-size="10.00">typet</text>
</a>
</g>
</g>
<!-- Node2&#45;&gt;Node1 -->
<g id="edge1" class="edge">
<title>Node2&#45;&gt;Node1</title>
<path fill="none" stroke="#9a32cd" stroke-dasharray="5,2" d="M1619.79,-217.5C1638.45,-211.55 1662.88,-203.29 1684,-194.6 1709.69,-184.03 1738.38,-169.61 1756.43,-160.21"/>
<polygon fill="#9a32cd" stroke="#9a32cd" points="1618.56,-214.22 1610.07,-220.56 1620.66,-220.9 1618.56,-214.22"/>
<text text-anchor="middle" x="1656" y="-217.6" font-family="Helvetica,sans-Serif" font-size="10.00"> clock_type</text>
</g>
<!-- Node3 -->
<g id="node3" class="node">
<title>Node3</title>
<g id="a_node3"><a xlink:href="classirept.html" target="_top" xlink:title="There are a large number of kinds of tree structured or tree&#45;like data in CPROVER.">
<polygon fill="none" stroke="black" points="1463,-226.1 1463,-245.1 1502,-245.1 1502,-226.1 1463,-226.1"/>
<text text-anchor="middle" x="1482.5" y="-233.1" font-family="Helvetica,sans-Serif" font-size="10.00">irept</text>
</a>
</g>
</g>
<!-- Node3&#45;&gt;Node2 -->
<g id="edge2" class="edge">
<title>Node3&#45;&gt;Node2</title>
<path fill="none" stroke="midnightblue" d="M1512.45,-233.1C1530.01,-231.59 1551.98,-229.7 1567.69,-228.35"/>
<polygon fill="midnightblue" stroke="midnightblue" points="1511.85,-229.64 1502.18,-233.99 1512.45,-236.62 1511.85,-229.64"/>
</g>
<!-- Node4 -->
<g id="node4" class="node">
<title>Node4</title>
<g id="a_node4"><a xlink:href="classsharing__treet.html" target="_top" xlink:title=" ">
<polygon fill="none" stroke="black" points="1231,-232.1 1231,-273.1 1356,-273.1 1356,-232.1 1231,-232.1"/>
<text text-anchor="start" x="1239" y="-261.1" font-family="Helvetica,sans-Serif" font-size="10.00">sharing_treet&lt; irept,</text>
<text text-anchor="start" x="1239" y="-250.1" font-family="Helvetica,sans-Serif" font-size="10.00"> forward_list_as_mapt</text>
<text text-anchor="middle" x="1293.5" y="-239.1" font-family="Helvetica,sans-Serif" font-size="10.00">&lt; irep_idt, irept &gt; &gt;</text>
</a>
</g>
</g>
<!-- Node4&#45;&gt;Node3 -->
<g id="edge3" class="edge">
<title>Node4&#45;&gt;Node3</title>
<path fill="none" stroke="midnightblue" d="M1366.39,-246.06C1401.12,-242.9 1440.05,-239.36 1462.58,-237.32"/>
<polygon fill="midnightblue" stroke="midnightblue" points="1365.89,-242.59 1356.25,-246.98 1366.52,-249.56 1365.89,-242.59"/>
</g>
<!-- Node5 -->
<g id="node5" class="node">
<title>Node5</title>
<g id="a_node5"><a xlink:href="classsharing__treet.html" target="_top" xlink:title="Base class for tree&#45;like data structures with sharing.">
<polygon fill="none" stroke="black" points="912,-308.6 912,-338.6 1048,-338.6 1048,-308.6 912,-308.6"/>
<text text-anchor="start" x="920" y="-326.6" font-family="Helvetica,sans-Serif" font-size="10.00">sharing_treet&lt; derivedt,</text>
<text text-anchor="middle" x="980" y="-315.6" font-family="Helvetica,sans-Serif" font-size="10.00"> named_subtreest &gt;</text>
</a>
</g>
</g>
<!-- Node5&#45;&gt;Node4 -->
<g id="edge4" class="edge">
<title>Node5&#45;&gt;Node4</title>
<path fill="none" stroke="orange" stroke-dasharray="5,2" d="M1056.82,-306.31C1110.22,-294.14 1180.81,-278.05 1230.77,-266.67"/>
<polygon fill="orange" stroke="orange" points="1056.03,-302.9 1047.06,-308.54 1057.59,-309.73 1056.03,-302.9"/>
<text text-anchor="start" x="1066" y="-316.6" font-family="Helvetica,sans-Serif" font-size="10.00"> &lt; irept, forward_list</text>
<text text-anchor="middle" x="1139.5" y="-305.6" font-family="Helvetica,sans-Serif" font-size="10.00">_as_mapt&lt; irep_idt, irept &gt; &gt;</text>
</g>
<!-- Node6 -->
<g id="node6" class="node">
<title>Node6</title>
<g id="a_node6"><a xlink:href="classtree__nodet.html" target="_top" xlink:title="A node with data in a tree, it contains:">
<polygon fill="none" stroke="black" points="612,-336.6 612,-366.6 770,-366.6 770,-336.6 612,-336.6"/>
<text text-anchor="start" x="620" y="-354.6" font-family="Helvetica,sans-Serif" font-size="10.00">tree_nodet&lt; treet,</text>
<text text-anchor="middle" x="691" y="-343.6" font-family="Helvetica,sans-Serif" font-size="10.00"> named_subtreest, sharing &gt;</text>
</a>
</g>
</g>
<!-- Node6&#45;&gt;Node5 -->
<g id="edge5" class="edge">
<title>Node6&#45;&gt;Node5</title>
<path fill="none" stroke="#9a32cd" stroke-dasharray="5,2" d="M780.08,-343C822.45,-338.87 872.43,-333.99 911.7,-330.16"/>
<polygon fill="#9a32cd" stroke="#9a32cd" points="779.66,-339.53 770.04,-343.98 780.34,-346.5 779.66,-339.53"/>
<text text-anchor="middle" x="841" y="-355.6" font-family="Helvetica,sans-Serif" font-size="10.00"> data</text>
<text text-anchor="middle" x="841" y="-344.6" font-family="Helvetica,sans-Serif" font-size="10.00">empty_d</text>
</g>
<!-- Node7 -->
<g id="node7" class="node">
<title>Node7</title>
<g id="a_node7"><a xlink:href="structref__count__ift_3_01true_01_4.html" target="_top" xlink:title=" ">
<polygon fill="none" stroke="black" points="335,-347.1 335,-366.1 454,-366.1 454,-347.1 335,-347.1"/>
<text text-anchor="middle" x="394.5" y="-354.1" font-family="Helvetica,sans-Serif" font-size="10.00">ref_count_ift&lt; true &gt;</text>
</a>
</g>
</g>
<!-- Node7&#45;&gt;Node6 -->
<g id="edge6" class="edge">
<title>Node7&#45;&gt;Node6</title>
<path fill="none" stroke="midnightblue" d="M464.1,-355.43C508.28,-354.68 565.82,-353.71 611.77,-352.93"/>
<polygon fill="midnightblue" stroke="midnightblue" points="463.97,-351.93 454.04,-355.6 464.09,-358.93 463.97,-351.93"/>
</g>
<!-- Node8 -->
<g id="node8" class="node">
<title>Node8</title>
<g id="a_node8"><a xlink:title=" ">
<polygon fill="none" stroke="#bfbfbf" points="337.5,-385.1 337.5,-404.1 451.5,-404.1 451.5,-385.1 337.5,-385.1"/>
<text text-anchor="middle" x="394.5" y="-392.1" font-family="Helvetica,sans-Serif" font-size="10.00">std::vector&lt; treet &gt;</text>
</a>
</g>
</g>
<!-- Node8&#45;&gt;Node6 -->
<g id="edge7" class="edge">
<title>Node8&#45;&gt;Node6</title>
<path fill="none" stroke="#9a32cd" stroke-dasharray="5,2" d="M461.69,-386.1C500.31,-381.01 549.96,-374.26 594,-367.6 599.85,-366.71 605.89,-365.77 611.97,-364.8"/>
<polygon fill="#9a32cd" stroke="#9a32cd" points="461.07,-382.65 451.61,-387.42 461.98,-389.59 461.07,-382.65"/>
<text text-anchor="middle" x="536" y="-385.6" font-family="Helvetica,sans-Serif" font-size="10.00"> sub</text>
</g>
<!-- Node9 -->
<g id="node9" class="node">
<title>Node9</title>
<g id="a_node9"><a xlink:title=" ">
<polygon fill="none" stroke="#bfbfbf" points="122,-255.1 122,-274.1 219,-274.1 219,-255.1 122,-255.1"/>
<text text-anchor="middle" x="170.5" y="-262.1" font-family="Helvetica,sans-Serif" font-size="10.00">std::vector&lt; T &gt;</text>
</a>
</g>
</g>
<!-- Node9&#45;&gt;Node8 -->
<g id="edge8" class="edge">
<title>Node9&#45;&gt;Node8</title>
<path fill="none" stroke="orange" stroke-dasharray="5,2" d="M190.4,-281.07C218.73,-304.99 274.68,-349.35 329,-375.6 336.67,-379.31 345.21,-382.44 353.51,-385.04"/>
<polygon fill="orange" stroke="orange" points="192.41,-278.18 182.53,-274.35 187.86,-283.5 192.41,-278.18"/>
<text text-anchor="middle" x="278" y="-368.6" font-family="Helvetica,sans-Serif" font-size="10.00"> &lt; treet &gt;</text>
</g>
<!-- Node14 -->
<g id="node14" class="node">
<title>Node14</title>
<g id="a_node14"><a xlink:title=" ">
<polygon fill="none" stroke="#bfbfbf" points="329,-253.1 329,-272.1 460,-272.1 460,-253.1 329,-253.1"/>
<text text-anchor="middle" x="394.5" y="-260.1" font-family="Helvetica,sans-Serif" font-size="10.00">std::vector&lt; event_it &gt;</text>
</a>
</g>
</g>
<!-- Node9&#45;&gt;Node14 -->
<g id="edge16" class="edge">
<title>Node9&#45;&gt;Node14</title>
<path fill="none" stroke="orange" stroke-dasharray="5,2" d="M229.18,-264.08C259.67,-263.8 297.2,-263.46 328.69,-263.18"/>
<polygon fill="orange" stroke="orange" points="229.09,-260.58 219.12,-264.17 229.16,-267.58 229.09,-260.58"/>
<text text-anchor="middle" x="278" y="-266.6" font-family="Helvetica,sans-Serif" font-size="10.00"> &lt; event_it &gt;</text>
</g>
<!-- Node10 -->
<g id="node10" class="node">
<title>Node10</title>
<g id="a_node10"><a xlink:title=" ">
<polygon fill="none" stroke="#bfbfbf" points="0,-164.1 0,-183.1 29,-183.1 29,-164.1 0,-164.1"/>
<text text-anchor="middle" x="14.5" y="-171.1" font-family="Helvetica,sans-Serif" font-size="10.00">T</text>
</a>
</g>
</g>
<!-- Node10&#45;&gt;Node9 -->
<g id="edge9" class="edge">
<title>Node10&#45;&gt;Node9</title>
<path fill="none" stroke="#9a32cd" stroke-dasharray="5,2" d="M27.45,-191.39C32.8,-198.37 39.58,-206.03 47,-211.6 74.25,-232.03 110.6,-246.48 136.61,-255.07"/>
<polygon fill="#9a32cd" stroke="#9a32cd" points="30.17,-189.19 21.49,-183.12 24.49,-193.28 30.17,-189.19"/>
<text text-anchor="middle" x="71.5" y="-241.6" font-family="Helvetica,sans-Serif" font-size="10.00"> elements</text>
</g>
<!-- Node16 -->
<g id="node16" class="node">
<title>Node16</title>
<g id="a_node16"><a xlink:title=" ">
<polygon fill="none" stroke="#bfbfbf" points="344,-129.1 344,-148.1 445,-148.1 445,-129.1 344,-129.1"/>
<text text-anchor="middle" x="394.5" y="-136.1" font-family="Helvetica,sans-Serif" font-size="10.00">std::map&lt; K, T &gt;</text>
</a>
</g>
</g>
<!-- Node10&#45;&gt;Node16 -->
<g id="edge19" class="edge">
<title>Node10&#45;&gt;Node16</title>
<path fill="none" stroke="#9a32cd" stroke-dasharray="5,2" d="M39.21,-170.11C59.13,-167.27 88.38,-163.29 114,-160.6 194.36,-152.14 288.02,-145.4 343.95,-141.71"/>
<polygon fill="#9a32cd" stroke="#9a32cd" points="38.57,-166.67 29.18,-171.56 39.57,-173.59 38.57,-166.67"/>
<text text-anchor="middle" x="170.5" y="-163.6" font-family="Helvetica,sans-Serif" font-size="10.00"> elements</text>
</g>
<!-- Node22 -->
<g id="node22" class="node">
<title>Node22</title>
<g id="a_node22"><a xlink:title=" ">
<polygon fill="none" stroke="#bfbfbf" points="331.5,-174.1 331.5,-193.1 457.5,-193.1 457.5,-174.1 331.5,-174.1"/>
<text text-anchor="middle" x="394.5" y="-181.1" font-family="Helvetica,sans-Serif" font-size="10.00">std::multimap&lt; K, T &gt;</text>
</a>
</g>
</g>
<!-- Node10&#45;&gt;Node22 -->
<g id="edge27" class="edge">
<title>Node10&#45;&gt;Node22</title>
<path fill="none" stroke="#9a32cd" stroke-dasharray="5,2" d="M39.4,-174.23C97.2,-175.76 246.05,-179.7 331.22,-181.95"/>
<polygon fill="#9a32cd" stroke="#9a32cd" points="39.49,-170.73 29.4,-173.96 39.31,-177.73 39.49,-170.73"/>
<text text-anchor="middle" x="170.5" y="-181.6" font-family="Helvetica,sans-Serif" font-size="10.00"> elements</text>
</g>
<!-- Node23 -->
<g id="node23" class="node">
<title>Node23</title>
<g id="a_node23"><a xlink:title=" ">
<polygon fill="none" stroke="#bfbfbf" points="337.5,-16.6 337.5,-46.6 451.5,-46.6 451.5,-16.6 337.5,-16.6"/>
<text text-anchor="start" x="345.5" y="-34.6" font-family="Helvetica,sans-Serif" font-size="10.00">std::unordered_map</text>
<text text-anchor="middle" x="394.5" y="-23.6" font-family="Helvetica,sans-Serif" font-size="10.00">&lt; K, T &gt;</text>
</a>
</g>
</g>
<!-- Node10&#45;&gt;Node23 -->
<g id="edge30" class="edge">
<title>Node10&#45;&gt;Node23</title>
<path fill="none" stroke="#9a32cd" stroke-dasharray="5,2" d="M21.51,-154.29C33.14,-120.69 62.25,-52.42 114,-24.6 186.78,14.54 286.38,-1.48 344.93,-16.59"/>
<polygon fill="#9a32cd" stroke="#9a32cd" points="18.16,-153.29 18.34,-163.88 24.8,-155.48 18.16,-153.29"/>
<text text-anchor="middle" x="170.5" y="-27.6" font-family="Helvetica,sans-Serif" font-size="10.00"> elements</text>
</g>
<!-- Node11 -->
<g id="node11" class="node">
<title>Node11</title>
<g id="a_node11"><a xlink:href="classdstringt.html" target="_top" xlink:title="dstringt has one field, an unsigned integer no which is an index into a static table of strings.">
<polygon fill="none" stroke="black" points="367.5,-291.1 367.5,-310.1 421.5,-310.1 421.5,-291.1 367.5,-291.1"/>
<text text-anchor="middle" x="394.5" y="-298.1" font-family="Helvetica,sans-Serif" font-size="10.00">dstringt</text>
</a>
</g>
</g>
<!-- Node11&#45;&gt;Node6 -->
<g id="edge10" class="edge">
<title>Node11&#45;&gt;Node6</title>
<path fill="none" stroke="#9a32cd" stroke-dasharray="5,2" d="M431.72,-306.87C476.35,-314.6 553.42,-327.95 611.79,-338.05"/>
<polygon fill="#9a32cd" stroke="#9a32cd" points="432.09,-303.38 421.63,-305.12 430.89,-310.28 432.09,-303.38"/>
<text text-anchor="middle" x="536" y="-336.6" font-family="Helvetica,sans-Serif" font-size="10.00"> data</text>
</g>
<!-- Node12 -->
<g id="node12" class="node">
<title>Node12</title>
<g id="a_node12"><a xlink:title=" ">
<polygon fill="none" stroke="#bfbfbf" points="925,-193.6 925,-223.6 1035,-223.6 1035,-193.6 925,-193.6"/>
<text text-anchor="start" x="933" y="-211.6" font-family="Helvetica,sans-Serif" font-size="10.00">std::map&lt; irep_idt,</text>
<text text-anchor="middle" x="980" y="-200.6" font-family="Helvetica,sans-Serif" font-size="10.00"> a_rect &gt;</text>
</a>
</g>
</g>
<!-- Node11&#45;&gt;Node12 -->
<g id="edge12" class="edge">
<title>Node11&#45;&gt;Node12</title>
<path fill="none" stroke="#9a32cd" stroke-dasharray="5,2" d="M431.69,-301.72C515.32,-303.25 727.52,-301.05 894,-247.6 913.48,-241.34 934.37,-231.8 950.57,-223.72"/>
<polygon fill="#9a32cd" stroke="#9a32cd" points="431.76,-298.22 421.68,-301.5 431.61,-305.22 431.76,-298.22"/>
<text text-anchor="middle" x="691" y="-299.6" font-family="Helvetica,sans-Serif" font-size="10.00"> keys</text>
</g>
<!-- Node21 -->
<g id="node21" class="node">
<title>Node21</title>
<g id="a_node21"><a xlink:title=" ">
<polygon fill="none" stroke="#bfbfbf" points="633.5,-180.6 633.5,-210.6 748.5,-210.6 748.5,-180.6 633.5,-180.6"/>
<text text-anchor="start" x="641.5" y="-198.6" font-family="Helvetica,sans-Serif" font-size="10.00">std::multimap&lt; irep</text>
<text text-anchor="middle" x="691" y="-187.6" font-family="Helvetica,sans-Serif" font-size="10.00">_idt, irep_idt &gt;</text>
</a>
</g>
</g>
<!-- Node11&#45;&gt;Node21 -->
<g id="edge24" class="edge">
<title>Node11&#45;&gt;Node21</title>
<path fill="none" stroke="#9a32cd" stroke-dasharray="5,2" d="M431.7,-296.38C441.94,-293.61 452.36,-289.06 460,-281.6 478.71,-263.34 458.01,-242.44 478,-225.6 500.85,-206.35 578.59,-199.44 633.28,-196.97"/>
<polygon fill="#9a32cd" stroke="#9a32cd" points="430.65,-293.03 421.64,-298.6 432.16,-299.87 430.65,-293.03"/>
<text text-anchor="middle" x="536" y="-239.6" font-family="Helvetica,sans-Serif" font-size="10.00"> elements</text>
<text text-anchor="middle" x="536" y="-228.6" font-family="Helvetica,sans-Serif" font-size="10.00">keys</text>
</g>
<!-- Node12&#45;&gt;Node1 -->
<g id="edge11" class="edge">
<title>Node12&#45;&gt;Node1</title>
<path fill="none" stroke="#9a32cd" stroke-dasharray="5,2" d="M1045.33,-199.42C1108.21,-191.26 1206.73,-180.6 1292.5,-180.6 1292.5,-180.6 1292.5,-180.6 1590,-180.6 1641.76,-180.6 1700.64,-168.95 1737.68,-160.17"/>
<polygon fill="#9a32cd" stroke="#9a32cd" points="1044.63,-195.98 1035.17,-200.76 1045.54,-202.92 1044.63,-195.98"/>
<text text-anchor="middle" x="1482.5" y="-183.6" font-family="Helvetica,sans-Serif" font-size="10.00"> address_map</text>
</g>
<!-- Node13 -->
<g id="node13" class="node">
<title>Node13</title>
<g id="a_node13"><a xlink:href="structpartial__order__concurrencyt_1_1a__rect.html" target="_top" xlink:title=" ">
<polygon fill="none" stroke="black" points="617.5,-231.6 617.5,-261.6 764.5,-261.6 764.5,-231.6 617.5,-231.6"/>
<text text-anchor="start" x="625.5" y="-249.6" font-family="Helvetica,sans-Serif" font-size="10.00">partial_order_concurrencyt</text>
<text text-anchor="middle" x="691" y="-238.6" font-family="Helvetica,sans-Serif" font-size="10.00">::a_rect</text>
</a>
</g>
</g>
<!-- Node13&#45;&gt;Node12 -->
<g id="edge13" class="edge">
<title>Node13&#45;&gt;Node12</title>
<path fill="none" stroke="#9a32cd" stroke-dasharray="5,2" d="M774.91,-235.62C823.16,-229.23 882.6,-221.36 924.86,-215.76"/>
<polygon fill="#9a32cd" stroke="#9a32cd" points="774.25,-232.18 764.79,-236.96 775.17,-239.12 774.25,-232.18"/>
<text text-anchor="middle" x="841" y="-235.6" font-family="Helvetica,sans-Serif" font-size="10.00"> elements</text>
</g>
<!-- Node14&#45;&gt;Node13 -->
<g id="edge14" class="edge">
<title>Node14&#45;&gt;Node13</title>
<path fill="none" stroke="#9a32cd" stroke-dasharray="5,2" d="M470.14,-258.54C515.25,-256.09 572.48,-252.98 617.24,-250.55"/>
<polygon fill="#9a32cd" stroke="#9a32cd" points="469.92,-255.05 460.13,-259.09 470.3,-262.04 469.92,-255.05"/>
<text text-anchor="middle" x="536" y="-271.6" font-family="Helvetica,sans-Serif" font-size="10.00"> reads</text>
<text text-anchor="middle" x="536" y="-260.6" font-family="Helvetica,sans-Serif" font-size="10.00">writes</text>
</g>
<!-- Node15 -->
<g id="node15" class="node">
<title>Node15</title>
<g id="a_node15"><a xlink:title=" ">
<polygon fill="none" stroke="#bfbfbf" points="114,-83.6 114,-113.6 227,-113.6 227,-83.6 114,-83.6"/>
<text text-anchor="start" x="122" y="-101.6" font-family="Helvetica,sans-Serif" font-size="10.00">std::list&lt; T &gt;::const</text>
<text text-anchor="middle" x="170.5" y="-90.6" font-family="Helvetica,sans-Serif" font-size="10.00">_iterator</text>
</a>
</g>
</g>
<!-- Node15&#45;&gt;Node14 -->
<g id="edge15" class="edge">
<title>Node15&#45;&gt;Node14</title>
<path fill="none" stroke="#9a32cd" stroke-dasharray="5,2" d="M215.52,-119.1C219.65,-121.97 223.57,-125.13 227,-128.6 239.04,-140.74 233.57,-149.88 245,-162.6 282.93,-204.77 342.25,-237.64 373.19,-253.03"/>
<polygon fill="#9a32cd" stroke="#9a32cd" points="217.16,-115.99 206.83,-113.63 213.43,-121.92 217.16,-115.99"/>
<text text-anchor="middle" x="278" y="-218.6" font-family="Helvetica,sans-Serif" font-size="10.00"> elements</text>
</g>
<!-- Node24 -->
<g id="node24" class="node">
<title>Node24</title>
<g id="a_node24"><a xlink:title=" ">
<polygon fill="none" stroke="#bfbfbf" points="634.5,-83.6 634.5,-113.6 747.5,-113.6 747.5,-83.6 634.5,-83.6"/>
<text text-anchor="start" x="642.5" y="-101.6" font-family="Helvetica,sans-Serif" font-size="10.00">std::map&lt; event_it,</text>
<text text-anchor="middle" x="691" y="-90.6" font-family="Helvetica,sans-Serif" font-size="10.00"> unsigned &gt;</text>
</a>
</g>
</g>
<!-- Node15&#45;&gt;Node24 -->
<g id="edge32" class="edge">
<title>Node15&#45;&gt;Node24</title>
<path fill="none" stroke="#9a32cd" stroke-dasharray="5,2" d="M237.77,-98.6C340.9,-98.6 537.96,-98.6 634.25,-98.6"/>
<polygon fill="#9a32cd" stroke="#9a32cd" points="237.48,-95.1 227.48,-98.6 237.48,-102.1 237.48,-95.1"/>
<text text-anchor="middle" x="394.5" y="-101.6" font-family="Helvetica,sans-Serif" font-size="10.00"> keys</text>
</g>
<!-- Node16&#45;&gt;Node12 -->
<g id="edge17" class="edge">
<title>Node16&#45;&gt;Node12</title>
<path fill="none" stroke="orange" stroke-dasharray="5,2" d="M455.22,-139.04C529.39,-140.29 659.63,-144.79 770,-160.6 823.25,-168.22 882.98,-182.53 924.9,-193.55"/>
<polygon fill="orange" stroke="orange" points="455.19,-135.54 445.14,-138.88 455.08,-142.54 455.19,-135.54"/>
<text text-anchor="middle" x="691" y="-163.6" font-family="Helvetica,sans-Serif" font-size="10.00"> &lt; irep_idt, a_rect &gt;</text>
</g>
<!-- Node16&#45;&gt;Node24 -->
<g id="edge33" class="edge">
<title>Node16&#45;&gt;Node24</title>
<path fill="none" stroke="orange" stroke-dasharray="5,2" d="M455.2,-128.98C462.86,-127.8 470.61,-126.65 478,-125.6 530.89,-118.06 591.36,-110.46 634.14,-105.25"/>
<polygon fill="orange" stroke="orange" points="454.55,-125.53 445.2,-130.52 455.62,-132.45 454.55,-125.53"/>
<text text-anchor="middle" x="536" y="-128.6" font-family="Helvetica,sans-Serif" font-size="10.00"> &lt; event_it, unsigned &gt;</text>
</g>
<!-- Node17 -->
<g id="node17" class="node">
<title>Node17</title>
<g id="a_node17"><a xlink:title=" ">
<polygon fill="none" stroke="#bfbfbf" points="156,-45.1 156,-64.1 185,-64.1 185,-45.1 156,-45.1"/>
<text text-anchor="middle" x="170.5" y="-52.1" font-family="Helvetica,sans-Serif" font-size="10.00">K</text>
</a>
</g>
</g>
<!-- Node17&#45;&gt;Node16 -->
<g id="edge18" class="edge">
<title>Node17&#45;&gt;Node16</title>
<path fill="none" stroke="#9a32cd" stroke-dasharray="5,2" d="M195.21,-57.68C223.91,-62.11 273.1,-72.01 311,-91.6 320.25,-96.38 320.28,-100.91 329,-106.6 342.3,-115.27 358.28,-123.21 371,-129.01"/>
<polygon fill="#9a32cd" stroke="#9a32cd" points="195.68,-54.21 185.28,-56.24 194.68,-61.14 195.68,-54.21"/>
<text text-anchor="middle" x="278" y="-94.6" font-family="Helvetica,sans-Serif" font-size="10.00"> keys</text>
</g>
<!-- Node17&#45;&gt;Node22 -->
<g id="edge26" class="edge">
<title>Node17&#45;&gt;Node22</title>
<path fill="none" stroke="#9a32cd" stroke-dasharray="5,2" d="M194.94,-59.4C205.55,-62.44 217.75,-67.23 227,-74.6 238.57,-83.81 234.58,-92.09 245,-102.6 276.42,-134.28 289.45,-136.93 329,-157.6 340.88,-163.8 354.58,-169.51 366.3,-173.99"/>
<polygon fill="#9a32cd" stroke="#9a32cd" points="195.59,-55.95 185.04,-56.91 193.88,-62.74 195.59,-55.95"/>
<text text-anchor="middle" x="278" y="-150.6" font-family="Helvetica,sans-Serif" font-size="10.00"> keys</text>
</g>
<!-- Node17&#45;&gt;Node23 -->
<g id="edge29" class="edge">
<title>Node17&#45;&gt;Node23</title>
<path fill="none" stroke="#9a32cd" stroke-dasharray="5,2" d="M194.56,-45.85C208.85,-40.9 227.72,-35.19 245,-32.6 275.21,-28.07 309.28,-27.52 337.15,-28.23"/>
<polygon fill="#9a32cd" stroke="#9a32cd" points="193.28,-42.59 185.05,-49.27 195.65,-49.18 193.28,-42.59"/>
<text text-anchor="middle" x="278" y="-35.6" font-family="Helvetica,sans-Serif" font-size="10.00"> keys</text>
</g>
<!-- Node18 -->
<g id="node18" class="node">
<title>Node18</title>
<g id="a_node18"><a xlink:href="classnamespacet.html" target="_top" xlink:title="A namespacet is essentially one or two symbol tables bound together, to allow for symbol lookups in t...">
<polygon fill="none" stroke="black" points="1255,-104.1 1255,-123.1 1332,-123.1 1332,-104.1 1255,-104.1"/>
<text text-anchor="middle" x="1293.5" y="-111.1" font-family="Helvetica,sans-Serif" font-size="10.00">namespacet</text>
</a>
</g>
</g>
<!-- Node18&#45;&gt;Node1 -->
<g id="edge20" class="edge">
<title>Node18&#45;&gt;Node1</title>
<path fill="none" stroke="#9a32cd" stroke-dasharray="5,2" d="M1342.22,-117.28C1426.52,-123.77 1602.24,-137.32 1701.73,-144.99"/>
<polygon fill="#9a32cd" stroke="#9a32cd" points="1342.4,-113.78 1332.16,-116.5 1341.87,-120.76 1342.4,-113.78"/>
<text text-anchor="middle" x="1542.5" y="-135.6" font-family="Helvetica,sans-Serif" font-size="10.00"> ns</text>
</g>
<!-- Node19 -->
<g id="node19" class="node">
<title>Node19</title>
<g id="a_node19"><a xlink:href="classnamespace__baset.html" target="_top" xlink:title="Basic interface for a namespace.">
<polygon fill="none" stroke="black" points="927.5,-66.1 927.5,-85.1 1032.5,-85.1 1032.5,-66.1 927.5,-66.1"/>
<text text-anchor="middle" x="980" y="-73.1" font-family="Helvetica,sans-Serif" font-size="10.00">namespace_baset</text>
</a>
</g>
</g>
<!-- Node19&#45;&gt;Node18 -->
<g id="edge21" class="edge">
<title>Node19&#45;&gt;Node18</title>
<path fill="none" stroke="midnightblue" d="M1043.03,-83.16C1106.24,-90.87 1202.24,-102.59 1254.81,-109"/>
<polygon fill="midnightblue" stroke="midnightblue" points="1043.14,-79.65 1032.79,-81.91 1042.29,-86.6 1043.14,-79.65"/>
</g>
<!-- Node20 -->
<g id="node20" class="node">
<title>Node20</title>
<g id="a_node20"><a xlink:href="classsymbol__table__baset.html" target="_top" xlink:title="The symbol table base class interface.">
<polygon fill="none" stroke="black" points="922.5,-104.1 922.5,-123.1 1037.5,-123.1 1037.5,-104.1 922.5,-104.1"/>
<text text-anchor="middle" x="980" y="-111.1" font-family="Helvetica,sans-Serif" font-size="10.00">symbol_table_baset</text>
</a>
</g>
</g>
<!-- Node20&#45;&gt;Node18 -->
<g id="edge22" class="edge">
<title>Node20&#45;&gt;Node18</title>
<path fill="none" stroke="#9a32cd" stroke-dasharray="5,2" d="M1048.03,-113.6C1111.18,-113.6 1203.51,-113.6 1254.73,-113.6"/>
<polygon fill="#9a32cd" stroke="#9a32cd" points="1047.77,-110.1 1037.77,-113.6 1047.77,-117.1 1047.77,-110.1"/>
<text text-anchor="middle" x="1139.5" y="-127.6" font-family="Helvetica,sans-Serif" font-size="10.00"> symbol_table1</text>
<text text-anchor="middle" x="1139.5" y="-116.6" font-family="Helvetica,sans-Serif" font-size="10.00">symbol_table2</text>
</g>
<!-- Node21&#45;&gt;Node20 -->
<g id="edge23" class="edge">
<title>Node21&#45;&gt;Node20</title>
<path fill="none" stroke="#9a32cd" stroke-dasharray="5,2" d="M754.55,-177.73C813.25,-160.95 898.82,-136.5 945.52,-123.16"/>
<polygon fill="#9a32cd" stroke="#9a32cd" points="753.29,-174.44 744.64,-180.56 755.22,-181.17 753.29,-174.44"/>
<text text-anchor="middle" x="841" y="-180.6" font-family="Helvetica,sans-Serif" font-size="10.00"> symbol_base_map</text>
<text text-anchor="middle" x="841" y="-169.6" font-family="Helvetica,sans-Serif" font-size="10.00">symbol_module_map</text>
</g>
<!-- Node22&#45;&gt;Node21 -->
<g id="edge25" class="edge">
<title>Node22&#45;&gt;Node21</title>
<path fill="none" stroke="orange" stroke-dasharray="5,2" d="M468.05,-182.07C505.67,-181.75 552.34,-182.11 594,-184.6 606.81,-185.36 620.54,-186.65 633.49,-188.08"/>
<polygon fill="orange" stroke="orange" points="467.66,-178.57 457.69,-182.17 467.73,-185.57 467.66,-178.57"/>
<text text-anchor="middle" x="536" y="-187.6" font-family="Helvetica,sans-Serif" font-size="10.00"> &lt; irep_idt, irep_idt &gt;</text>
</g>
<!-- Node23&#45;&gt;Node20 -->
<g id="edge28" class="edge">
<title>Node23&#45;&gt;Node20</title>
<path fill="none" stroke="#9a32cd" stroke-dasharray="5,2" d="M461.91,-34.27C537.06,-37.99 662.94,-46.32 770,-63.6 832.98,-73.76 905.08,-92.66 946.01,-104.08"/>
<polygon fill="#9a32cd" stroke="#9a32cd" points="461.81,-30.76 451.65,-33.77 461.47,-37.75 461.81,-30.76"/>
<text text-anchor="middle" x="691" y="-66.6" font-family="Helvetica,sans-Serif" font-size="10.00"> symbols</text>
</g>
<!-- Node24&#45;&gt;Node1 -->
<g id="edge31" class="edge">
<title>Node24&#45;&gt;Node1</title>
<path fill="none" stroke="#9a32cd" stroke-dasharray="5,2" d="M757.96,-81.67C839.18,-60.96 967.84,-28.6 979,-28.6 979,-28.6 979,-28.6 1590,-28.6 1671.41,-28.6 1744.51,-112.26 1767.24,-141.02"/>
<polygon fill="#9a32cd" stroke="#9a32cd" points="756.64,-78.4 747.81,-84.26 758.37,-85.18 756.64,-78.4"/>
<text text-anchor="middle" x="1402" y="-31.6" font-family="Helvetica,sans-Serif" font-size="10.00"> numbering</text>
</g>
</g>
</svg>
