<?xml version="1.0" encoding="UTF-8" standalone="no"?>
<!DOCTYPE svg PUBLIC "-//W3C//DTD SVG 1.1//EN"
 "http://www.w3.org/Graphics/SVG/1.1/DTD/svg11.dtd">
<!-- Generated by graphviz version 2.43.0 (0)
 -->
<!-- Title: bdd_exprt Pages: 1 -->
<svg width="2325pt" height="597pt"
 viewBox="0.00 0.00 2325.00 597.00" xmlns="http://www.w3.org/2000/svg" xmlns:xlink="http://www.w3.org/1999/xlink">
<g id="graph0" class="graph" transform="scale(1 1) rotate(0) translate(4 593)">
<title>bdd_exprt</title>
<!-- Node1 -->
<g id="node1" class="node">
<title>Node1</title>
<g id="a_node1"><a xlink:title="Conversion between exprt and bbdt This encapsulate a bdd_managert, thus BDDs created with this class ...">
<polygon fill="#bfbfbf" stroke="black" points="2252,-275.5 2252,-294.5 2317,-294.5 2317,-275.5 2252,-275.5"/>
<text text-anchor="middle" x="2284.5" y="-282.5" font-family="Helvetica,sans-Serif" font-size="10.00">bdd_exprt</text>
</a>
</g>
</g>
<!-- Node2 -->
<g id="node2" class="node">
<title>Node2</title>
<g id="a_node2"><a xlink:href="classbdd__managert.html" target="_top" xlink:title="Manager for BDD creation.">
<polygon fill="none" stroke="black" points="2083,-391.5 2083,-410.5 2170,-410.5 2170,-391.5 2083,-391.5"/>
<text text-anchor="middle" x="2126.5" y="-398.5" font-family="Helvetica,sans-Serif" font-size="10.00">bdd_managert</text>
</a>
</g>
</g>
<!-- Node2&#45;&gt;Node1 -->
<g id="edge1" class="edge">
<title>Node2&#45;&gt;Node1</title>
<path fill="none" stroke="#9a32cd" stroke-dasharray="5,2" d="M2148.58,-385.33C2181.39,-360.93 2243.72,-314.58 2270.61,-294.58"/>
<polygon fill="#9a32cd" stroke="#9a32cd" points="2146.47,-382.53 2140.53,-391.31 2150.65,-388.15 2146.47,-382.53"/>
<text text-anchor="middle" x="2211" y="-356" font-family="Helvetica,sans-Serif" font-size="10.00"> bdd_mgr</text>
</g>
<!-- Node3 -->
<g id="node3" class="node">
<title>Node3</title>
<g id="a_node3"><a xlink:href="classmini__bdd__mgrt.html" target="_top" xlink:title=" ">
<polygon fill="none" stroke="black" points="817,-278.5 817,-297.5 907,-297.5 907,-278.5 817,-278.5"/>
<text text-anchor="middle" x="862" y="-285.5" font-family="Helvetica,sans-Serif" font-size="10.00">mini_bdd_mgrt</text>
</a>
</g>
</g>
<!-- Node3&#45;&gt;Node2 -->
<g id="edge2" class="edge">
<title>Node3&#45;&gt;Node2</title>
<path fill="none" stroke="#8b1a1a" d="M913.14,-299.87C963.52,-311.65 1043.46,-329.93 1113,-344 1191.35,-359.85 1210.5,-367.58 1290,-376 1413.37,-389.07 1444.94,-385 1569,-385 1569,-385 1569,-385 1900,-385 1963.78,-385 2037.45,-391.45 2082.75,-396.16"/>
<polygon fill="#8b1a1a" stroke="#8b1a1a" points="913.69,-296.41 903.16,-297.54 912.1,-303.22 913.69,-296.41"/>
</g>
<!-- Node6 -->
<g id="node6" class="node">
<title>Node6</title>
<g id="a_node6"><a xlink:href="classmini__bdd__nodet.html" target="_top" xlink:title=" ">
<polygon fill="none" stroke="black" points="1145,-216.5 1145,-235.5 1240,-235.5 1240,-216.5 1145,-216.5"/>
<text text-anchor="middle" x="1192.5" y="-223.5" font-family="Helvetica,sans-Serif" font-size="10.00">mini_bdd_nodet</text>
</a>
</g>
</g>
<!-- Node3&#45;&gt;Node6 -->
<g id="edge8" class="edge">
<title>Node3&#45;&gt;Node6</title>
<path fill="none" stroke="#9a32cd" stroke-dasharray="5,2" d="M898.58,-275.26C913.66,-270.23 931.53,-264.77 948,-261 1015.65,-245.5 1095.53,-235.58 1144.85,-230.4"/>
<polygon fill="#9a32cd" stroke="#9a32cd" points="897.45,-271.94 889.11,-278.47 899.7,-278.57 897.45,-271.94"/>
<text text-anchor="middle" x="1021.5" y="-264" font-family="Helvetica,sans-Serif" font-size="10.00"> mgr</text>
</g>
<!-- Node4 -->
<g id="node4" class="node">
<title>Node4</title>
<g id="a_node4"><a xlink:title=" ">
<polygon fill="none" stroke="#bfbfbf" points="1414,-287 1414,-317 1551,-317 1551,-287 1414,-287"/>
<text text-anchor="start" x="1422" y="-305" font-family="Helvetica,sans-Serif" font-size="10.00">std::map&lt; reverse_keyt,</text>
<text text-anchor="middle" x="1482.5" y="-294" font-family="Helvetica,sans-Serif" font-size="10.00"> mini_bdd_nodet * &gt;</text>
</a>
</g>
</g>
<!-- Node4&#45;&gt;Node3 -->
<g id="edge3" class="edge">
<title>Node4&#45;&gt;Node3</title>
<path fill="none" stroke="#9a32cd" stroke-dasharray="5,2" d="M1403.5,-299.09C1364.08,-297.7 1315.51,-296.1 1272,-295 1139.24,-291.65 982.2,-289.46 907.19,-288.52"/>
<polygon fill="#9a32cd" stroke="#9a32cd" points="1403.46,-302.59 1413.58,-299.45 1403.71,-295.6 1403.46,-302.59"/>
<text text-anchor="middle" x="1192.5" y="-298" font-family="Helvetica,sans-Serif" font-size="10.00"> reverse_map</text>
</g>
<!-- Node5 -->
<g id="node5" class="node">
<title>Node5</title>
<g id="a_node5"><a xlink:href="structmini__bdd__mgrt_1_1reverse__keyt.html" target="_top" xlink:title=" ">
<polygon fill="none" stroke="black" points="1113,-315.5 1113,-334.5 1272,-334.5 1272,-315.5 1113,-315.5"/>
<text text-anchor="middle" x="1192.5" y="-322.5" font-family="Helvetica,sans-Serif" font-size="10.00">mini_bdd_mgrt::reverse_keyt</text>
</a>
</g>
</g>
<!-- Node5&#45;&gt;Node4 -->
<g id="edge4" class="edge">
<title>Node5&#45;&gt;Node4</title>
<path fill="none" stroke="#9a32cd" stroke-dasharray="5,2" d="M1282.22,-317.91C1324.56,-314.53 1374.41,-310.55 1413.66,-307.42"/>
<polygon fill="#9a32cd" stroke="#9a32cd" points="1281.89,-314.43 1272.2,-318.72 1282.44,-321.41 1281.89,-314.43"/>
<text text-anchor="middle" x="1343" y="-319" font-family="Helvetica,sans-Serif" font-size="10.00"> keys</text>
</g>
<!-- Node6&#45;&gt;Node4 -->
<g id="edge5" class="edge">
<title>Node6&#45;&gt;Node4</title>
<path fill="none" stroke="#9a32cd" stroke-dasharray="5,2" d="M1250.2,-215.91C1291.91,-210.93 1349.23,-209.26 1396,-227 1427.75,-239.04 1455.44,-268.76 1470.18,-286.96"/>
<polygon fill="#9a32cd" stroke="#9a32cd" points="1249.68,-212.45 1240.22,-217.21 1250.58,-219.39 1249.68,-212.45"/>
<text text-anchor="middle" x="1343" y="-230" font-family="Helvetica,sans-Serif" font-size="10.00"> elements</text>
</g>
<!-- Node7 -->
<g id="node7" class="node">
<title>Node7</title>
<g id="a_node7"><a xlink:href="classmini__bddt.html" target="_top" xlink:title=" ">
<polygon fill="none" stroke="black" points="1450,-160.5 1450,-179.5 1515,-179.5 1515,-160.5 1450,-160.5"/>
<text text-anchor="middle" x="1482.5" y="-167.5" font-family="Helvetica,sans-Serif" font-size="10.00">mini_bddt</text>
</a>
</g>
</g>
<!-- Node6&#45;&gt;Node7 -->
<g id="edge7" class="edge">
<title>Node6&#45;&gt;Node7</title>
<path fill="none" stroke="#9a32cd" stroke-dasharray="5,2" d="M1226.3,-212.87C1244.74,-205.97 1268.34,-197.95 1290,-193 1345.5,-180.33 1411.73,-174.34 1449.97,-171.75"/>
<polygon fill="#9a32cd" stroke="#9a32cd" points="1224.99,-209.62 1216.89,-216.45 1227.48,-216.16 1224.99,-209.62"/>
<text text-anchor="middle" x="1343" y="-196" font-family="Helvetica,sans-Serif" font-size="10.00"> node</text>
</g>
<!-- Node11 -->
<g id="node11" class="node">
<title>Node11</title>
<g id="a_node11"><a xlink:title=" ">
<polygon fill="none" stroke="#bfbfbf" points="1428,-414 1428,-444 1537,-444 1537,-414 1428,-414"/>
<text text-anchor="start" x="1436" y="-432" font-family="Helvetica,sans-Serif" font-size="10.00">std::list&lt; mini_bdd</text>
<text text-anchor="middle" x="1482.5" y="-421" font-family="Helvetica,sans-Serif" font-size="10.00">_nodet &gt;</text>
</a>
</g>
</g>
<!-- Node6&#45;&gt;Node11 -->
<g id="edge14" class="edge">
<title>Node6&#45;&gt;Node11</title>
<path fill="none" stroke="#9a32cd" stroke-dasharray="5,2" d="M1250.03,-233.51C1294,-241.85 1354.34,-259.08 1396,-294 1408.8,-304.73 1405.38,-312.69 1414,-327 1432.95,-358.47 1457.11,-393.99 1470.79,-413.71"/>
<polygon fill="#9a32cd" stroke="#9a32cd" points="1250.53,-230.04 1240.07,-231.72 1249.29,-236.93 1250.53,-230.04"/>
<text text-anchor="middle" x="1343" y="-297" font-family="Helvetica,sans-Serif" font-size="10.00"> elements</text>
</g>
<!-- Node7&#45;&gt;Node3 -->
<g id="edge12" class="edge">
<title>Node7&#45;&gt;Node3</title>
<path fill="none" stroke="#9a32cd" stroke-dasharray="5,2" d="M1454.77,-155.91C1438.32,-148.04 1416.52,-139.04 1396,-135 1349.78,-125.91 1336.67,-128.54 1290,-135 1286.44,-135.49 954.72,-228.92 948,-232 920.05,-244.82 890.83,-266.08 874.97,-278.39"/>
<polygon fill="#9a32cd" stroke="#9a32cd" points="1453.28,-159.07 1463.79,-160.36 1456.38,-152.8 1453.28,-159.07"/>
<text text-anchor="middle" x="1192.5" y="-198" font-family="Helvetica,sans-Serif" font-size="10.00"> false_bdd</text>
<text text-anchor="middle" x="1192.5" y="-187" font-family="Helvetica,sans-Serif" font-size="10.00">true_bdd</text>
</g>
<!-- Node7&#45;&gt;Node6 -->
<g id="edge6" class="edge">
<title>Node7&#45;&gt;Node6</title>
<path fill="none" stroke="#9a32cd" stroke-dasharray="5,2" d="M1447.56,-157.21C1408.46,-144.48 1342.82,-129.32 1290,-148 1251.01,-161.79 1216.22,-198.77 1201.27,-216.4"/>
<polygon fill="#9a32cd" stroke="#9a32cd" points="1446.55,-160.57 1457.14,-160.46 1448.79,-153.94 1446.55,-160.57"/>
<text text-anchor="middle" x="1343" y="-162" font-family="Helvetica,sans-Serif" font-size="10.00"> high</text>
<text text-anchor="middle" x="1343" y="-151" font-family="Helvetica,sans-Serif" font-size="10.00">low</text>
</g>
<!-- Node23 -->
<g id="node23" class="node">
<title>Node23</title>
<g id="a_node23"><a xlink:href="classbddt.html" target="_top" xlink:title="Logical operations on BDDs.">
<polygon fill="none" stroke="black" points="1626,-275.5 1626,-294.5 1664,-294.5 1664,-275.5 1626,-275.5"/>
<text text-anchor="middle" x="1645" y="-282.5" font-family="Helvetica,sans-Serif" font-size="10.00">bddt</text>
</a>
</g>
</g>
<!-- Node7&#45;&gt;Node23 -->
<g id="edge32" class="edge">
<title>Node7&#45;&gt;Node23</title>
<path fill="none" stroke="#8b1a1a" d="M1505.14,-185.5C1538.71,-209.56 1602.37,-255.17 1630.29,-275.18"/>
<polygon fill="#8b1a1a" stroke="#8b1a1a" points="1507.08,-182.59 1496.91,-179.61 1503,-188.28 1507.08,-182.59"/>
</g>
<!-- Node8 -->
<g id="node8" class="node">
<title>Node8</title>
<g id="a_node8"><a xlink:title=" ">
<polygon fill="none" stroke="#bfbfbf" points="1142,-444.5 1142,-463.5 1243,-463.5 1243,-444.5 1142,-444.5"/>
<text text-anchor="middle" x="1192.5" y="-451.5" font-family="Helvetica,sans-Serif" font-size="10.00">std::map&lt; K, T &gt;</text>
</a>
</g>
</g>
<!-- Node8&#45;&gt;Node4 -->
<g id="edge9" class="edge">
<title>Node8&#45;&gt;Node4</title>
<path fill="none" stroke="orange" stroke-dasharray="5,2" d="M1241.42,-441.45C1251.69,-438.18 1262.35,-434.34 1272,-430 1345.28,-397.05 1424.23,-343.22 1460.77,-317.13"/>
<polygon fill="orange" stroke="orange" points="1240.28,-438.14 1231.74,-444.4 1242.33,-444.83 1240.28,-438.14"/>
<text text-anchor="start" x="1290" y="-435" font-family="Helvetica,sans-Serif" font-size="10.00"> &lt; reverse_keyt, mini</text>
<text text-anchor="middle" x="1343" y="-424" font-family="Helvetica,sans-Serif" font-size="10.00">_bdd_nodet * &gt;</text>
</g>
<!-- Node9 -->
<g id="node9" class="node">
<title>Node9</title>
<g id="a_node9"><a xlink:title=" ">
<polygon fill="none" stroke="#bfbfbf" points="847.5,-469.5 847.5,-488.5 876.5,-488.5 876.5,-469.5 847.5,-469.5"/>
<text text-anchor="middle" x="862" y="-476.5" font-family="Helvetica,sans-Serif" font-size="10.00">K</text>
</a>
</g>
</g>
<!-- Node9&#45;&gt;Node8 -->
<g id="edge10" class="edge">
<title>Node9&#45;&gt;Node8</title>
<path fill="none" stroke="#9a32cd" stroke-dasharray="5,2" d="M886.67,-475.48C903.69,-473.06 927.22,-469.94 948,-468 1015.04,-461.74 1092.73,-457.86 1141.99,-455.81"/>
<polygon fill="#9a32cd" stroke="#9a32cd" points="885.91,-472.05 876.51,-476.95 886.91,-478.98 885.91,-472.05"/>
<text text-anchor="middle" x="1021.5" y="-471" font-family="Helvetica,sans-Serif" font-size="10.00"> keys</text>
</g>
<!-- Node21 -->
<g id="node21" class="node">
<title>Node21</title>
<g id="a_node21"><a xlink:title=" ">
<polygon fill="none" stroke="#bfbfbf" points="1588,-482 1588,-512 1702,-512 1702,-482 1588,-482"/>
<text text-anchor="start" x="1596" y="-500" font-family="Helvetica,sans-Serif" font-size="10.00">std::unordered_map</text>
<text text-anchor="middle" x="1645" y="-489" font-family="Helvetica,sans-Serif" font-size="10.00">&lt; K, T &gt;</text>
</a>
</g>
</g>
<!-- Node9&#45;&gt;Node21 -->
<g id="edge28" class="edge">
<title>Node9&#45;&gt;Node21</title>
<path fill="none" stroke="#9a32cd" stroke-dasharray="5,2" d="M886.6,-479.54C993.19,-482 1431.3,-492.1 1587.97,-495.71"/>
<polygon fill="#9a32cd" stroke="#9a32cd" points="886.63,-476.04 876.56,-479.31 886.47,-483.04 886.63,-476.04"/>
<text text-anchor="middle" x="1343" y="-494" font-family="Helvetica,sans-Serif" font-size="10.00"> keys</text>
</g>
<!-- Node10 -->
<g id="node10" class="node">
<title>Node10</title>
<g id="a_node10"><a xlink:title=" ">
<polygon fill="none" stroke="#bfbfbf" points="159,-424.5 159,-443.5 188,-443.5 188,-424.5 159,-424.5"/>
<text text-anchor="middle" x="173.5" y="-431.5" font-family="Helvetica,sans-Serif" font-size="10.00">T</text>
</a>
</g>
</g>
<!-- Node10&#45;&gt;Node8 -->
<g id="edge11" class="edge">
<title>Node10&#45;&gt;Node8</title>
<path fill="none" stroke="#9a32cd" stroke-dasharray="5,2" d="M198.36,-434C231.5,-434 293.3,-434 346,-434 346,-434 346,-434 863,-434 961.99,-434 1077.45,-443.16 1141.75,-449.08"/>
<polygon fill="#9a32cd" stroke="#9a32cd" points="198.28,-430.5 188.28,-434 198.28,-437.5 198.28,-430.5"/>
<text text-anchor="middle" x="630" y="-437" font-family="Helvetica,sans-Serif" font-size="10.00"> elements</text>
</g>
<!-- Node12 -->
<g id="node12" class="node">
<title>Node12</title>
<g id="a_node12"><a xlink:title=" ">
<polygon fill="none" stroke="#bfbfbf" points="436.5,-492.5 436.5,-511.5 517.5,-511.5 517.5,-492.5 436.5,-492.5"/>
<text text-anchor="middle" x="477" y="-499.5" font-family="Helvetica,sans-Serif" font-size="10.00">std::list&lt; T &gt;</text>
</a>
</g>
</g>
<!-- Node10&#45;&gt;Node12 -->
<g id="edge16" class="edge">
<title>Node10&#45;&gt;Node12</title>
<path fill="none" stroke="#9a32cd" stroke-dasharray="5,2" d="M197.98,-440.97C206.18,-443.32 215.47,-445.88 224,-448 298.47,-466.49 386.26,-484.44 436.1,-494.28"/>
<polygon fill="#9a32cd" stroke="#9a32cd" points="198.88,-437.59 188.31,-438.16 196.93,-444.32 198.88,-437.59"/>
<text text-anchor="middle" x="248.5" y="-462" font-family="Helvetica,sans-Serif" font-size="10.00"> elements</text>
</g>
<!-- Node17 -->
<g id="node17" class="node">
<title>Node17</title>
<g id="a_node17"><a xlink:title=" ">
<polygon fill="none" stroke="#bfbfbf" points="298.5,-271.5 298.5,-290.5 395.5,-290.5 395.5,-271.5 298.5,-271.5"/>
<text text-anchor="middle" x="347" y="-278.5" font-family="Helvetica,sans-Serif" font-size="10.00">std::vector&lt; T &gt;</text>
</a>
</g>
</g>
<!-- Node10&#45;&gt;Node17 -->
<g id="edge22" class="edge">
<title>Node10&#45;&gt;Node17</title>
<path fill="none" stroke="#9a32cd" stroke-dasharray="5,2" d="M189.82,-416.54C199.35,-405.95 212.03,-392.34 224,-381 244.62,-361.48 255.74,-362.55 273,-340 284.6,-324.84 276.95,-313.92 291,-301 295.71,-296.67 301.43,-293.26 307.39,-290.57"/>
<polygon fill="#9a32cd" stroke="#9a32cd" points="186.96,-414.49 182.93,-424.28 192.19,-419.14 186.96,-414.49"/>
<text text-anchor="middle" x="248.5" y="-384" font-family="Helvetica,sans-Serif" font-size="10.00"> elements</text>
</g>
<!-- Node19 -->
<g id="node19" class="node">
<title>Node19</title>
<g id="a_node19"><a xlink:title=" ">
<polygon fill="none" stroke="#bfbfbf" points="301,-376.5 301,-395.5 393,-395.5 393,-376.5 301,-376.5"/>
<text text-anchor="middle" x="347" y="-383.5" font-family="Helvetica,sans-Serif" font-size="10.00">std::stack&lt; T &gt;</text>
</a>
</g>
</g>
<!-- Node10&#45;&gt;Node19 -->
<g id="edge25" class="edge">
<title>Node10&#45;&gt;Node19</title>
<path fill="none" stroke="#9a32cd" stroke-dasharray="5,2" d="M197.29,-420.8C205.49,-416.51 214.96,-412.07 224,-409 248.8,-400.59 277.54,-394.98 300.89,-391.41"/>
<polygon fill="#9a32cd" stroke="#9a32cd" points="195.44,-417.82 188.34,-425.68 198.79,-423.97 195.44,-417.82"/>
<text text-anchor="middle" x="248.5" y="-412" font-family="Helvetica,sans-Serif" font-size="10.00"> elements</text>
</g>
<!-- Node10&#45;&gt;Node21 -->
<g id="edge29" class="edge">
<title>Node10&#45;&gt;Node21</title>
<path fill="none" stroke="#9a32cd" stroke-dasharray="5,2" d="M184.99,-452.71C208.4,-491.68 268.94,-578 346,-578 346,-578 346,-578 1483.5,-578 1541.24,-578 1599.35,-535.7 1627.14,-512.24"/>
<polygon fill="#9a32cd" stroke="#9a32cd" points="187.92,-450.77 179.86,-443.9 181.87,-454.3 187.92,-450.77"/>
<text text-anchor="middle" x="862" y="-581" font-family="Helvetica,sans-Serif" font-size="10.00"> elements</text>
</g>
<!-- Node11&#45;&gt;Node3 -->
<g id="edge13" class="edge">
<title>Node11&#45;&gt;Node3</title>
<path fill="none" stroke="#9a32cd" stroke-dasharray="5,2" d="M1417.78,-426.14C1285.33,-419.81 989.13,-403.56 948,-383 909,-363.51 879.69,-317.76 868.25,-297.71"/>
<polygon fill="#9a32cd" stroke="#9a32cd" points="1417.64,-429.64 1427.79,-426.61 1417.97,-422.64 1417.64,-429.64"/>
<text text-anchor="middle" x="1192.5" y="-421" font-family="Helvetica,sans-Serif" font-size="10.00"> nodes</text>
</g>
<!-- Node12&#45;&gt;Node11 -->
<g id="edge15" class="edge">
<title>Node12&#45;&gt;Node11</title>
<path fill="none" stroke="orange" stroke-dasharray="5,2" d="M528,-503.74C653.75,-507.35 993,-512.31 1272,-473 1325.36,-465.48 1385.49,-452.36 1427.59,-442.4"/>
<polygon fill="orange" stroke="orange" points="528.01,-500.24 517.91,-503.44 527.8,-507.24 528.01,-500.24"/>
<text text-anchor="middle" x="862" y="-508" font-family="Helvetica,sans-Serif" font-size="10.00"> &lt; mini_bdd_nodet &gt;</text>
</g>
<!-- Node13 -->
<g id="node13" class="node">
<title>Node13</title>
<g id="a_node13"><a xlink:title=" ">
<polygon fill="none" stroke="#bfbfbf" points="567.5,-273 567.5,-303 692.5,-303 692.5,-273 567.5,-273"/>
<text text-anchor="start" x="575.5" y="-291" font-family="Helvetica,sans-Serif" font-size="10.00">std::vector&lt; var_table</text>
<text text-anchor="middle" x="630" y="-280" font-family="Helvetica,sans-Serif" font-size="10.00">_entryt &gt;</text>
</a>
</g>
</g>
<!-- Node13&#45;&gt;Node3 -->
<g id="edge17" class="edge">
<title>Node13&#45;&gt;Node3</title>
<path fill="none" stroke="#9a32cd" stroke-dasharray="5,2" d="M702.94,-288C740.19,-288 784.49,-288 816.7,-288"/>
<polygon fill="#9a32cd" stroke="#9a32cd" points="702.64,-284.5 692.64,-288 702.64,-291.5 702.64,-284.5"/>
<text text-anchor="middle" x="751.5" y="-291" font-family="Helvetica,sans-Serif" font-size="10.00"> var_table</text>
</g>
<!-- Node14 -->
<g id="node14" class="node">
<title>Node14</title>
<g id="a_node14"><a xlink:href="structmini__bdd__mgrt_1_1var__table__entryt.html" target="_top" xlink:title=" ">
<polygon fill="none" stroke="black" points="291,-310 291,-340 403,-340 403,-310 291,-310"/>
<text text-anchor="start" x="299" y="-328" font-family="Helvetica,sans-Serif" font-size="10.00">mini_bdd_mgrt::var</text>
<text text-anchor="middle" x="347" y="-317" font-family="Helvetica,sans-Serif" font-size="10.00">_table_entryt</text>
</a>
</g>
</g>
<!-- Node14&#45;&gt;Node13 -->
<g id="edge18" class="edge">
<title>Node14&#45;&gt;Node13</title>
<path fill="none" stroke="#9a32cd" stroke-dasharray="5,2" d="M413.13,-316.42C459.51,-310.32 521.46,-302.16 567.1,-296.15"/>
<polygon fill="#9a32cd" stroke="#9a32cd" points="412.64,-312.96 403.18,-317.73 413.55,-319.9 412.64,-312.96"/>
<text text-anchor="middle" x="477" y="-318" font-family="Helvetica,sans-Serif" font-size="10.00"> elements</text>
</g>
<!-- Node15 -->
<g id="node15" class="node">
<title>Node15</title>
<g id="a_node15"><a xlink:title=" ">
<polygon fill="none" stroke="#bfbfbf" points="141,-315.5 141,-334.5 206,-334.5 206,-315.5 141,-315.5"/>
<text text-anchor="middle" x="173.5" y="-322.5" font-family="Helvetica,sans-Serif" font-size="10.00">std::string</text>
</a>
</g>
</g>
<!-- Node15&#45;&gt;Node14 -->
<g id="edge19" class="edge">
<title>Node15&#45;&gt;Node14</title>
<path fill="none" stroke="#9a32cd" stroke-dasharray="5,2" d="M216.53,-325C238.87,-325 266.63,-325 290.7,-325"/>
<polygon fill="#9a32cd" stroke="#9a32cd" points="216.36,-321.5 206.36,-325 216.36,-328.5 216.36,-321.5"/>
<text text-anchor="middle" x="248.5" y="-328" font-family="Helvetica,sans-Serif" font-size="10.00"> label</text>
</g>
<!-- Node16 -->
<g id="node16" class="node">
<title>Node16</title>
<g id="a_node16"><a xlink:title=" ">
<polygon fill="none" stroke="#bfbfbf" points="0,-310 0,-340 104,-340 104,-310 0,-310"/>
<text text-anchor="start" x="8" y="-328" font-family="Helvetica,sans-Serif" font-size="10.00">std::basic_string&lt;</text>
<text text-anchor="middle" x="52" y="-317" font-family="Helvetica,sans-Serif" font-size="10.00"> Char &gt;</text>
</a>
</g>
</g>
<!-- Node16&#45;&gt;Node15 -->
<g id="edge20" class="edge">
<title>Node16&#45;&gt;Node15</title>
<path fill="none" stroke="midnightblue" d="M114.1,-325C123.41,-325 132.68,-325 141,-325"/>
<polygon fill="midnightblue" stroke="midnightblue" points="114.03,-321.5 104.03,-325 114.03,-328.5 114.03,-321.5"/>
</g>
<!-- Node17&#45;&gt;Node13 -->
<g id="edge21" class="edge">
<title>Node17&#45;&gt;Node13</title>
<path fill="none" stroke="orange" stroke-dasharray="5,2" d="M405.71,-282.44C452.79,-283.61 519.17,-285.26 567.31,-286.46"/>
<polygon fill="orange" stroke="orange" points="405.75,-278.94 395.67,-282.19 405.58,-285.94 405.75,-278.94"/>
<text text-anchor="middle" x="477" y="-288" font-family="Helvetica,sans-Serif" font-size="10.00"> &lt; var_table_entryt &gt;</text>
</g>
<!-- Node33 -->
<g id="node30" class="node">
<title>Node33</title>
<g id="a_node30"><a xlink:title=" ">
<polygon fill="none" stroke="#bfbfbf" points="1841,-68.5 1841,-87.5 1957,-87.5 1957,-68.5 1841,-68.5"/>
<text text-anchor="middle" x="1899" y="-75.5" font-family="Helvetica,sans-Serif" font-size="10.00">std::vector&lt; exprt &gt;</text>
</a>
</g>
</g>
<!-- Node17&#45;&gt;Node33 -->
<g id="edge44" class="edge">
<title>Node17&#45;&gt;Node33</title>
<path fill="none" stroke="orange" stroke-dasharray="5,2" d="M360.2,-263.01C395.49,-213.34 503.2,-78 629,-78 629,-78 629,-78 1646,-78 1712.94,-78 1789.88,-78 1840.95,-78"/>
<polygon fill="orange" stroke="orange" points="357.14,-261.28 354.3,-271.48 362.89,-265.28 357.14,-261.28"/>
<text text-anchor="middle" x="1192.5" y="-81" font-family="Helvetica,sans-Serif" font-size="10.00"> &lt; exprt &gt;</text>
</g>
<!-- Node18 -->
<g id="node18" class="node">
<title>Node18</title>
<g id="a_node18"><a xlink:title=" ">
<polygon fill="none" stroke="#bfbfbf" points="570,-331 570,-361 690,-361 690,-331 570,-331"/>
<text text-anchor="start" x="578" y="-349" font-family="Helvetica,sans-Serif" font-size="10.00">std::stack&lt; mini_bdd</text>
<text text-anchor="middle" x="630" y="-338" font-family="Helvetica,sans-Serif" font-size="10.00">_nodet * &gt;</text>
</a>
</g>
</g>
<!-- Node18&#45;&gt;Node3 -->
<g id="edge23" class="edge">
<title>Node18&#45;&gt;Node3</title>
<path fill="none" stroke="#9a32cd" stroke-dasharray="5,2" d="M700.02,-328.59C740.42,-318.41 789.88,-305.93 823.23,-297.52"/>
<polygon fill="#9a32cd" stroke="#9a32cd" points="699.07,-325.22 690.23,-331.06 700.78,-332.01 699.07,-325.22"/>
<text text-anchor="middle" x="751.5" y="-323" font-family="Helvetica,sans-Serif" font-size="10.00"> free</text>
</g>
<!-- Node19&#45;&gt;Node18 -->
<g id="edge24" class="edge">
<title>Node19&#45;&gt;Node18</title>
<path fill="none" stroke="orange" stroke-dasharray="5,2" d="M403.05,-378.16C451.07,-371.33 520.57,-361.44 569.78,-354.43"/>
<polygon fill="orange" stroke="orange" points="402.55,-374.7 393.15,-379.57 403.54,-381.63 402.55,-374.7"/>
<text text-anchor="middle" x="477" y="-378" font-family="Helvetica,sans-Serif" font-size="10.00"> &lt; mini_bdd_nodet * &gt;</text>
</g>
<!-- Node20 -->
<g id="node20" class="node">
<title>Node20</title>
<g id="a_node20"><a xlink:title=" ">
<polygon fill="none" stroke="#bfbfbf" points="1842,-486.5 1842,-527.5 1956,-527.5 1956,-486.5 1842,-486.5"/>
<text text-anchor="start" x="1850" y="-515.5" font-family="Helvetica,sans-Serif" font-size="10.00">std::unordered_map</text>
<text text-anchor="start" x="1850" y="-504.5" font-family="Helvetica,sans-Serif" font-size="10.00">&lt; std::size_t, std::</text>
<text text-anchor="middle" x="1899" y="-493.5" font-family="Helvetica,sans-Serif" font-size="10.00">size_t &gt;</text>
</a>
</g>
</g>
<!-- Node20&#45;&gt;Node2 -->
<g id="edge26" class="edge">
<title>Node20&#45;&gt;Node2</title>
<path fill="none" stroke="#9a32cd" stroke-dasharray="5,2" d="M1958.81,-482.39C1990.55,-468.75 2030.24,-451.13 2065,-434 2080.02,-426.59 2096.71,-417.42 2108.75,-410.63"/>
<polygon fill="#9a32cd" stroke="#9a32cd" points="1957.04,-479.34 1949.22,-486.49 1959.79,-485.77 1957.04,-479.34"/>
<text text-anchor="middle" x="2020" y="-478" font-family="Helvetica,sans-Serif" font-size="10.00"> bdd_var_to_index</text>
</g>
<!-- Node21&#45;&gt;Node20 -->
<g id="edge27" class="edge">
<title>Node21&#45;&gt;Node20</title>
<path fill="none" stroke="orange" stroke-dasharray="5,2" d="M1712.23,-508.27C1714.85,-508.55 1717.45,-508.79 1720,-509 1760.66,-512.28 1806.72,-511.64 1841.79,-510.26"/>
<polygon fill="orange" stroke="orange" points="1712.39,-504.77 1702.05,-507.06 1711.56,-511.72 1712.39,-504.77"/>
<text text-anchor="start" x="1729" y="-525" font-family="Helvetica,sans-Serif" font-size="10.00"> &lt; std::size_t, std</text>
<text text-anchor="middle" x="1771.5" y="-514" font-family="Helvetica,sans-Serif" font-size="10.00">::size_t &gt;</text>
</g>
<!-- Node22 -->
<g id="node22" class="node">
<title>Node22</title>
<g id="a_node22"><a xlink:title=" ">
<polygon fill="none" stroke="#bfbfbf" points="1841,-414 1841,-444 1957,-444 1957,-414 1841,-414"/>
<text text-anchor="start" x="1849" y="-432" font-family="Helvetica,sans-Serif" font-size="10.00">std::unordered_map</text>
<text text-anchor="middle" x="1899" y="-421" font-family="Helvetica,sans-Serif" font-size="10.00">&lt; std::size_t, bddt &gt;</text>
</a>
</g>
</g>
<!-- Node21&#45;&gt;Node22 -->
<g id="edge33" class="edge">
<title>Node21&#45;&gt;Node22</title>
<path fill="none" stroke="orange" stroke-dasharray="5,2" d="M1712.65,-495.4C1746.48,-492.93 1787.78,-487.34 1823,-475 1843.33,-467.88 1864.01,-454.65 1878.5,-444.2"/>
<polygon fill="orange" stroke="orange" points="1712.15,-491.93 1702.4,-496.07 1712.61,-498.91 1712.15,-491.93"/>
<text text-anchor="middle" x="1771.5" y="-497" font-family="Helvetica,sans-Serif" font-size="10.00"> &lt; std::size_t, bddt &gt;</text>
</g>
<!-- Node24 -->
<g id="node24" class="node">
<title>Node24</title>
<g id="a_node24"><a xlink:title=" ">
<polygon fill="none" stroke="#bfbfbf" points="1842,-264.5 1842,-305.5 1956,-305.5 1956,-264.5 1842,-264.5"/>
<text text-anchor="start" x="1850" y="-293.5" font-family="Helvetica,sans-Serif" font-size="10.00">std::unordered_map</text>
<text text-anchor="start" x="1850" y="-282.5" font-family="Helvetica,sans-Serif" font-size="10.00">&lt; exprt, bddt, irep</text>
<text text-anchor="middle" x="1899" y="-271.5" font-family="Helvetica,sans-Serif" font-size="10.00">_hash &gt;</text>
</a>
</g>
</g>
<!-- Node21&#45;&gt;Node24 -->
<g id="edge41" class="edge">
<title>Node21&#45;&gt;Node24</title>
<path fill="none" stroke="orange" stroke-dasharray="5,2" d="M1676.61,-476.08C1689.77,-467.38 1705.44,-457.37 1720,-449 1764.46,-423.45 1784.59,-430.97 1823,-397 1852.8,-370.64 1876.1,-329.9 1888.38,-305.5"/>
<polygon fill="orange" stroke="orange" points="1674.33,-473.4 1667.95,-481.87 1678.21,-479.22 1674.33,-473.4"/>
<text text-anchor="start" x="1725" y="-463" font-family="Helvetica,sans-Serif" font-size="10.00"> &lt; exprt, bddt, irep</text>
<text text-anchor="middle" x="1771.5" y="-452" font-family="Helvetica,sans-Serif" font-size="10.00">_hash &gt;</text>
</g>
<!-- Node22&#45;&gt;Node2 -->
<g id="edge30" class="edge">
<title>Node22&#45;&gt;Node2</title>
<path fill="none" stroke="#9a32cd" stroke-dasharray="5,2" d="M1967.53,-420.61C2005,-415.96 2050.45,-410.32 2082.96,-406.28"/>
<polygon fill="#9a32cd" stroke="#9a32cd" points="1966.69,-417.19 1957.19,-421.9 1967.55,-424.14 1966.69,-417.19"/>
<text text-anchor="middle" x="2020" y="-422" font-family="Helvetica,sans-Serif" font-size="10.00"> index_to_bdd</text>
</g>
<!-- Node23&#45;&gt;Node22 -->
<g id="edge31" class="edge">
<title>Node23&#45;&gt;Node22</title>
<path fill="none" stroke="#9a32cd" stroke-dasharray="5,2" d="M1671.79,-299.74C1719.95,-327.26 1823.07,-386.18 1871.65,-413.94"/>
<polygon fill="#9a32cd" stroke="#9a32cd" points="1673.34,-296.59 1662.93,-294.67 1669.87,-302.67 1673.34,-296.59"/>
<text text-anchor="middle" x="1771.5" y="-385" font-family="Helvetica,sans-Serif" font-size="10.00"> elements</text>
</g>
<!-- Node23&#45;&gt;Node24 -->
<g id="edge35" class="edge">
<title>Node23&#45;&gt;Node24</title>
<path fill="none" stroke="#9a32cd" stroke-dasharray="5,2" d="M1674.33,-285C1714.77,-285 1789.91,-285 1841.87,-285"/>
<polygon fill="#9a32cd" stroke="#9a32cd" points="1674.12,-281.5 1664.12,-285 1674.12,-288.5 1674.12,-281.5"/>
<text text-anchor="middle" x="1771.5" y="-288" font-family="Helvetica,sans-Serif" font-size="10.00"> elements</text>
</g>
<!-- Node24&#45;&gt;Node1 -->
<g id="edge34" class="edge">
<title>Node24&#45;&gt;Node1</title>
<path fill="none" stroke="#9a32cd" stroke-dasharray="5,2" d="M1966.31,-285C2049.74,-285 2189.63,-285 2251.92,-285"/>
<polygon fill="#9a32cd" stroke="#9a32cd" points="1966.17,-281.5 1956.17,-285 1966.17,-288.5 1966.17,-281.5"/>
<text text-anchor="middle" x="2126.5" y="-288" font-family="Helvetica,sans-Serif" font-size="10.00"> expr_map</text>
</g>
<!-- Node25 -->
<g id="node25" class="node">
<title>Node25</title>
<g id="a_node25"><a xlink:href="classexprt.html" target="_top" xlink:title="Base class for all expressions.">
<polygon fill="none" stroke="black" points="1624,-30.5 1624,-49.5 1666,-49.5 1666,-30.5 1624,-30.5"/>
<text text-anchor="middle" x="1645" y="-37.5" font-family="Helvetica,sans-Serif" font-size="10.00">exprt</text>
</a>
</g>
</g>
<!-- Node25&#45;&gt;Node24 -->
<g id="edge36" class="edge">
<title>Node25&#45;&gt;Node24</title>
<path fill="none" stroke="#9a32cd" stroke-dasharray="5,2" d="M1663.07,-56.59C1707.67,-99.96 1827.65,-216.61 1876.68,-264.28"/>
<polygon fill="#9a32cd" stroke="#9a32cd" points="1665.49,-54.07 1655.88,-49.6 1660.61,-59.08 1665.49,-54.07"/>
<text text-anchor="middle" x="1771.5" y="-208" font-family="Helvetica,sans-Serif" font-size="10.00"> keys</text>
</g>
<!-- Node25&#45;&gt;Node33 -->
<g id="edge43" class="edge">
<title>Node25&#45;&gt;Node33</title>
<path fill="none" stroke="#9a32cd" stroke-dasharray="5,2" d="M1676.3,-39.95C1711.8,-40.41 1772.21,-42.83 1823,-53 1840.63,-56.53 1859.86,-62.99 1874.43,-68.46"/>
<polygon fill="#9a32cd" stroke="#9a32cd" points="1676.16,-36.45 1666.13,-39.86 1676.1,-43.45 1676.16,-36.45"/>
<text text-anchor="middle" x="1771.5" y="-56" font-family="Helvetica,sans-Serif" font-size="10.00"> elements</text>
</g>
<!-- Node26 -->
<g id="node26" class="node">
<title>Node26</title>
<g id="a_node26"><a xlink:href="classirept.html" target="_top" xlink:title="There are a large number of kinds of tree structured or tree&#45;like data in CPROVER.">
<polygon fill="none" stroke="black" points="1463,-25.5 1463,-44.5 1502,-44.5 1502,-25.5 1463,-25.5"/>
<text text-anchor="middle" x="1482.5" y="-32.5" font-family="Helvetica,sans-Serif" font-size="10.00">irept</text>
</a>
</g>
</g>
<!-- Node26&#45;&gt;Node25 -->
<g id="edge37" class="edge">
<title>Node26&#45;&gt;Node25</title>
<path fill="none" stroke="midnightblue" d="M1512.35,-35.9C1544.53,-36.9 1595.76,-38.5 1623.89,-39.37"/>
<polygon fill="midnightblue" stroke="midnightblue" points="1512.33,-32.4 1502.23,-35.58 1512.11,-39.39 1512.33,-32.4"/>
</g>
<!-- Node27 -->
<g id="node27" class="node">
<title>Node27</title>
<g id="a_node27"><a xlink:href="classsharing__treet.html" target="_top" xlink:title=" ">
<polygon fill="none" stroke="black" points="1130,-0.5 1130,-41.5 1255,-41.5 1255,-0.5 1130,-0.5"/>
<text text-anchor="start" x="1138" y="-29.5" font-family="Helvetica,sans-Serif" font-size="10.00">sharing_treet&lt; irept,</text>
<text text-anchor="start" x="1138" y="-18.5" font-family="Helvetica,sans-Serif" font-size="10.00"> forward_list_as_mapt</text>
<text text-anchor="middle" x="1192.5" y="-7.5" font-family="Helvetica,sans-Serif" font-size="10.00">&lt; irep_idt, irept &gt; &gt;</text>
</a>
</g>
</g>
<!-- Node27&#45;&gt;Node26 -->
<g id="edge38" class="edge">
<title>Node27&#45;&gt;Node26</title>
<path fill="none" stroke="midnightblue" d="M1265.59,-24.5C1331.29,-27.7 1423.87,-32.2 1462.94,-34.1"/>
<polygon fill="midnightblue" stroke="midnightblue" points="1265.44,-20.99 1255.28,-24 1265.1,-27.98 1265.44,-20.99"/>
</g>
<!-- Node28 -->
<g id="node28" class="node">
<title>Node28</title>
<g id="a_node28"><a xlink:href="classsharing__treet.html" target="_top" xlink:title="Base class for tree&#45;like data structures with sharing.">
<polygon fill="none" stroke="black" points="794,-6 794,-36 930,-36 930,-6 794,-6"/>
<text text-anchor="start" x="802" y="-24" font-family="Helvetica,sans-Serif" font-size="10.00">sharing_treet&lt; derivedt,</text>
<text text-anchor="middle" x="862" y="-13" font-family="Helvetica,sans-Serif" font-size="10.00"> named_subtreest &gt;</text>
</a>
</g>
</g>
<!-- Node28&#45;&gt;Node27 -->
<g id="edge39" class="edge">
<title>Node28&#45;&gt;Node27</title>
<path fill="none" stroke="orange" stroke-dasharray="5,2" d="M940.46,-21C998.28,-21 1076.25,-21 1129.87,-21"/>
<polygon fill="orange" stroke="orange" points="940.27,-17.5 930.27,-21 940.27,-24.5 940.27,-17.5"/>
<text text-anchor="start" x="948" y="-35" font-family="Helvetica,sans-Serif" font-size="10.00"> &lt; irept, forward_list</text>
<text text-anchor="middle" x="1021.5" y="-24" font-family="Helvetica,sans-Serif" font-size="10.00">_as_mapt&lt; irep_idt, irept &gt; &gt;</text>
</g>
<!-- Node29 -->
<g id="node29" class="node">
<title>Node29</title>
<g id="a_node29"><a xlink:href="classtree__nodet.html" target="_top" xlink:title="A node with data in a tree, it contains:">
<polygon fill="none" stroke="red" points="551,-6 551,-36 709,-36 709,-6 551,-6"/>
<text text-anchor="start" x="559" y="-24" font-family="Helvetica,sans-Serif" font-size="10.00">tree_nodet&lt; treet,</text>
<text text-anchor="middle" x="630" y="-13" font-family="Helvetica,sans-Serif" font-size="10.00"> named_subtreest, sharing &gt;</text>
</a>
</g>
</g>
<!-- Node29&#45;&gt;Node28 -->
<g id="edge40" class="edge">
<title>Node29&#45;&gt;Node28</title>
<path fill="none" stroke="#9a32cd" stroke-dasharray="5,2" d="M719.3,-21C744.02,-21 770.49,-21 793.78,-21"/>
<polygon fill="#9a32cd" stroke="#9a32cd" points="719.19,-17.5 709.19,-21 719.19,-24.5 719.19,-17.5"/>
<text text-anchor="middle" x="751.5" y="-35" font-family="Helvetica,sans-Serif" font-size="10.00"> data</text>
<text text-anchor="middle" x="751.5" y="-24" font-family="Helvetica,sans-Serif" font-size="10.00">empty_d</text>
</g>
<!-- Node33&#45;&gt;Node1 -->
<g id="edge42" class="edge">
<title>Node33&#45;&gt;Node1</title>
<path fill="none" stroke="#9a32cd" stroke-dasharray="5,2" d="M1926.82,-92.48C2000.36,-132.17 2203.8,-241.98 2265.52,-275.29"/>
<polygon fill="#9a32cd" stroke="#9a32cd" points="1928.19,-89.24 1917.73,-87.57 1924.87,-95.4 1928.19,-89.24"/>
<text text-anchor="middle" x="2126.5" y="-224" font-family="Helvetica,sans-Serif" font-size="10.00"> node_map</text>
</g>
</g>
</svg>
