<?xml version="1.0" encoding="UTF-8" standalone="no"?>
<!DOCTYPE svg PUBLIC "-//W3C//DTD SVG 1.1//EN"
 "http://www.w3.org/Graphics/SVG/1.1/DTD/svg11.dtd">
<!-- Generated by graphviz version 2.43.0 (0)
 -->
<!-- Title: enumerative_loop_contracts_synthesizert Pages: 1 -->
<svg width="2019pt" height="797pt"
 viewBox="0.00 0.00 2019.00 797.00" xmlns="http://www.w3.org/2000/svg" xmlns:xlink="http://www.w3.org/1999/xlink">
<g id="graph0" class="graph" transform="scale(1 1) rotate(0) translate(4 793)">
<title>enumerative_loop_contracts_synthesizert</title>
<!-- Node1 -->
<g id="node1" class="node">
<title>Node1</title>
<g id="a_node1"><a xlink:title="Enumerative loop contracts synthesizers.">
<polygon fill="#bfbfbf" stroke="black" points="1856,-530 1856,-560 2011,-560 2011,-530 1856,-530"/>
<text text-anchor="start" x="1864" y="-548" font-family="Helvetica,sans-Serif" font-size="10.00">enumerative_loop_contracts</text>
<text text-anchor="middle" x="1933.5" y="-537" font-family="Helvetica,sans-Serif" font-size="10.00">_synthesizert</text>
</a>
</g>
</g>
<!-- Node2 -->
<g id="node2" class="node">
<title>Node2</title>
<g id="a_node2"><a xlink:href="classloop__contracts__synthesizer__baset.html" target="_top" xlink:title="A base class for loop contracts synthesizers.">
<polygon fill="none" stroke="black" points="1670,-270 1670,-300 1819,-300 1819,-270 1670,-270"/>
<text text-anchor="start" x="1678" y="-288" font-family="Helvetica,sans-Serif" font-size="10.00">loop_contracts_synthesizer</text>
<text text-anchor="middle" x="1744.5" y="-277" font-family="Helvetica,sans-Serif" font-size="10.00">_baset</text>
</a>
</g>
</g>
<!-- Node2&#45;&gt;Node1 -->
<g id="edge1" class="edge">
<title>Node2&#45;&gt;Node1</title>
<path fill="none" stroke="midnightblue" d="M1762.36,-308.44C1800.06,-360.85 1890.33,-486.36 1921.61,-529.86"/>
<polygon fill="midnightblue" stroke="midnightblue" points="1765.04,-306.18 1756.36,-300.1 1759.36,-310.26 1765.04,-306.18"/>
</g>
<!-- Node3 -->
<g id="node3" class="node">
<title>Node3</title>
<g id="a_node3"><a xlink:href="classmessaget.html" target="_top" xlink:title="Class that provides messages with a built&#45;in verbosity &#39;level&#39;.">
<polygon fill="none" stroke="black" points="1010,-73.5 1010,-92.5 1075,-92.5 1075,-73.5 1010,-73.5"/>
<text text-anchor="middle" x="1042.5" y="-80.5" font-family="Helvetica,sans-Serif" font-size="10.00">messaget</text>
</a>
</g>
</g>
<!-- Node3&#45;&gt;Node2 -->
<g id="edge2" class="edge">
<title>Node3&#45;&gt;Node2</title>
<path fill="none" stroke="#9a32cd" stroke-dasharray="5,2" d="M1084.98,-92.42C1113.95,-99.14 1153.46,-108.63 1188,-118 1377.77,-169.47 1601.2,-239.57 1696.56,-269.95"/>
<polygon fill="#9a32cd" stroke="#9a32cd" points="1085.73,-89 1075.2,-90.15 1084.15,-95.82 1085.73,-89"/>
<text text-anchor="middle" x="1412" y="-203" font-family="Helvetica,sans-Serif" font-size="10.00"> log</text>
</g>
<!-- Node9 -->
<g id="node9" class="node">
<title>Node9</title>
<g id="a_node9"><a xlink:href="classmessaget_1_1mstreamt.html" target="_top" xlink:title=" ">
<polygon fill="none" stroke="black" points="1208,-193.5 1208,-212.5 1327,-212.5 1327,-193.5 1208,-193.5"/>
<text text-anchor="middle" x="1267.5" y="-200.5" font-family="Helvetica,sans-Serif" font-size="10.00">messaget::mstreamt</text>
</a>
</g>
</g>
<!-- Node3&#45;&gt;Node9 -->
<g id="edge12" class="edge">
<title>Node3&#45;&gt;Node9</title>
<path fill="none" stroke="#9a32cd" stroke-dasharray="5,2" d="M1072.74,-97.02C1086.43,-103.51 1103,-111.26 1118,-118 1148.88,-131.86 1158.43,-131.53 1188,-148 1212.86,-161.84 1239.54,-181.73 1254.51,-193.41"/>
<polygon fill="#9a32cd" stroke="#9a32cd" points="1073.87,-93.68 1063.34,-92.55 1070.86,-100 1073.87,-93.68"/>
<text text-anchor="middle" x="1153" y="-151" font-family="Helvetica,sans-Serif" font-size="10.00"> message</text>
</g>
<!-- Node4 -->
<g id="node4" class="node">
<title>Node4</title>
<g id="a_node4"><a xlink:href="classmessage__handlert.html" target="_top" xlink:title=" ">
<polygon fill="none" stroke="black" points="720,-0.5 720,-19.5 827,-19.5 827,-0.5 720,-0.5"/>
<text text-anchor="middle" x="773.5" y="-7.5" font-family="Helvetica,sans-Serif" font-size="10.00">message_handlert</text>
</a>
</g>
</g>
<!-- Node4&#45;&gt;Node3 -->
<g id="edge3" class="edge">
<title>Node4&#45;&gt;Node3</title>
<path fill="none" stroke="#9a32cd" stroke-dasharray="5,2" d="M837.29,-13.36C875.65,-16.9 925.2,-24.14 967,-39 990.35,-47.3 1014.55,-63.18 1028.8,-73.42"/>
<polygon fill="#9a32cd" stroke="#9a32cd" points="837.55,-9.87 827.29,-12.5 836.95,-16.85 837.55,-9.87"/>
<text text-anchor="middle" x="914" y="-42" font-family="Helvetica,sans-Serif" font-size="10.00"> message_handler</text>
</g>
<!-- Node5 -->
<g id="node5" class="node">
<title>Node5</title>
<g id="a_node5"><a xlink:title=" ">
<polygon fill="none" stroke="#bfbfbf" points="419,-109.5 419,-128.5 559,-128.5 559,-109.5 419,-109.5"/>
<text text-anchor="middle" x="489" y="-116.5" font-family="Helvetica,sans-Serif" font-size="10.00">std::vector&lt; std::size_t &gt;</text>
</a>
</g>
</g>
<!-- Node5&#45;&gt;Node4 -->
<g id="edge4" class="edge">
<title>Node5&#45;&gt;Node4</title>
<path fill="none" stroke="#9a32cd" stroke-dasharray="5,2" d="M519.43,-105.21C560.26,-86.4 636.68,-52.39 704,-29 713.79,-25.6 724.53,-22.38 734.55,-19.6"/>
<polygon fill="#9a32cd" stroke="#9a32cd" points="517.92,-102.05 510.32,-109.43 520.86,-108.4 517.92,-102.05"/>
<text text-anchor="middle" x="631.5" y="-80" font-family="Helvetica,sans-Serif" font-size="10.00"> message_count</text>
</g>
<!-- Node6 -->
<g id="node6" class="node">
<title>Node6</title>
<g id="a_node6"><a xlink:title=" ">
<polygon fill="none" stroke="#bfbfbf" points="210,-271.5 210,-290.5 307,-290.5 307,-271.5 210,-271.5"/>
<text text-anchor="middle" x="258.5" y="-278.5" font-family="Helvetica,sans-Serif" font-size="10.00">std::vector&lt; T &gt;</text>
</a>
</g>
</g>
<!-- Node6&#45;&gt;Node5 -->
<g id="edge5" class="edge">
<title>Node6&#45;&gt;Node5</title>
<path fill="none" stroke="orange" stroke-dasharray="5,2" d="M275.34,-263.81C288.07,-250.5 306.78,-232.02 325,-218 373.94,-180.34 438.08,-145.01 469.3,-128.6"/>
<polygon fill="orange" stroke="orange" points="272.55,-261.67 268.24,-271.35 277.65,-266.47 272.55,-261.67"/>
<text text-anchor="middle" x="363" y="-221" font-family="Helvetica,sans-Serif" font-size="10.00"> &lt; std::size_t &gt;</text>
</g>
<!-- Node35 -->
<g id="node29" class="node">
<title>Node35</title>
<g id="a_node29"><a xlink:title=" ">
<polygon fill="none" stroke="#bfbfbf" points="425,-271.5 425,-290.5 553,-290.5 553,-271.5 425,-271.5"/>
<text text-anchor="middle" x="489" y="-278.5" font-family="Helvetica,sans-Serif" font-size="10.00">std::vector&lt; irep_idt &gt;</text>
</a>
</g>
</g>
<!-- Node6&#45;&gt;Node35 -->
<g id="edge35" class="edge">
<title>Node6&#45;&gt;Node35</title>
<path fill="none" stroke="orange" stroke-dasharray="5,2" d="M317.45,-281C350.22,-281 391.23,-281 424.82,-281"/>
<polygon fill="orange" stroke="orange" points="317.12,-277.5 307.12,-281 317.12,-284.5 317.12,-277.5"/>
<text text-anchor="middle" x="363" y="-284" font-family="Helvetica,sans-Serif" font-size="10.00"> &lt; irep_idt &gt;</text>
</g>
<!-- Node7 -->
<g id="node7" class="node">
<title>Node7</title>
<g id="a_node7"><a xlink:title=" ">
<polygon fill="none" stroke="#bfbfbf" points="48,-445.5 48,-464.5 77,-464.5 77,-445.5 48,-445.5"/>
<text text-anchor="middle" x="62.5" y="-452.5" font-family="Helvetica,sans-Serif" font-size="10.00">T</text>
</a>
</g>
</g>
<!-- Node7&#45;&gt;Node6 -->
<g id="edge6" class="edge">
<title>Node7&#45;&gt;Node6</title>
<path fill="none" stroke="#9a32cd" stroke-dasharray="5,2" d="M81.84,-438.55C121.6,-402.89 214.73,-319.36 246.59,-290.79"/>
<polygon fill="#9a32cd" stroke="#9a32cd" points="79.31,-436.11 74.21,-445.4 83.99,-441.33 79.31,-436.11"/>
<text text-anchor="middle" x="167.5" y="-386" font-family="Helvetica,sans-Serif" font-size="10.00"> elements</text>
</g>
<!-- Node29 -->
<g id="node23" class="node">
<title>Node29</title>
<g id="a_node23"><a xlink:title=" ">
<polygon fill="none" stroke="#bfbfbf" points="426,-443.5 426,-462.5 552,-462.5 552,-443.5 426,-443.5"/>
<text text-anchor="middle" x="489" y="-450.5" font-family="Helvetica,sans-Serif" font-size="10.00">std::multimap&lt; K, T &gt;</text>
</a>
</g>
</g>
<!-- Node7&#45;&gt;Node29 -->
<g id="edge25" class="edge">
<title>Node7&#45;&gt;Node29</title>
<path fill="none" stroke="#9a32cd" stroke-dasharray="5,2" d="M87.2,-452.88C116.15,-450.41 166.62,-446.48 210,-445 284.19,-442.47 369.54,-445.87 425.89,-448.98"/>
<polygon fill="#9a32cd" stroke="#9a32cd" points="86.88,-449.4 77.22,-453.75 87.48,-456.37 86.88,-449.4"/>
<text text-anchor="middle" x="258.5" y="-448" font-family="Helvetica,sans-Serif" font-size="10.00"> elements</text>
</g>
<!-- Node31 -->
<g id="node25" class="node">
<title>Node31</title>
<g id="a_node25"><a xlink:title=" ">
<polygon fill="none" stroke="#bfbfbf" points="432,-492 432,-522 546,-522 546,-492 432,-492"/>
<text text-anchor="start" x="440" y="-510" font-family="Helvetica,sans-Serif" font-size="10.00">std::unordered_map</text>
<text text-anchor="middle" x="489" y="-499" font-family="Helvetica,sans-Serif" font-size="10.00">&lt; K, T &gt;</text>
</a>
</g>
</g>
<!-- Node7&#45;&gt;Node31 -->
<g id="edge28" class="edge">
<title>Node7&#45;&gt;Node31</title>
<path fill="none" stroke="#9a32cd" stroke-dasharray="5,2" d="M87.18,-457.09C142.33,-462.07 283.6,-475.46 401,-492 411.02,-493.41 421.65,-495.09 431.92,-496.81"/>
<polygon fill="#9a32cd" stroke="#9a32cd" points="87.31,-453.59 77.04,-456.18 86.69,-460.56 87.31,-453.59"/>
<text text-anchor="middle" x="258.5" y="-482" font-family="Helvetica,sans-Serif" font-size="10.00"> elements</text>
</g>
<!-- Node39 -->
<g id="node31" class="node">
<title>Node39</title>
<g id="a_node31"><a xlink:title=" ">
<polygon fill="none" stroke="#bfbfbf" points="438.5,-576.5 438.5,-595.5 539.5,-595.5 539.5,-576.5 438.5,-576.5"/>
<text text-anchor="middle" x="489" y="-583.5" font-family="Helvetica,sans-Serif" font-size="10.00">std::map&lt; K, T &gt;</text>
</a>
</g>
</g>
<!-- Node7&#45;&gt;Node39 -->
<g id="edge40" class="edge">
<title>Node7&#45;&gt;Node39</title>
<path fill="none" stroke="#9a32cd" stroke-dasharray="5,2" d="M79.13,-472.14C104.03,-498.25 155.49,-547.42 210,-571 284.53,-603.24 380.96,-599.62 438.45,-593.33"/>
<polygon fill="#9a32cd" stroke="#9a32cd" points="81.67,-469.74 72.28,-464.83 76.56,-474.52 81.67,-469.74"/>
<text text-anchor="middle" x="258.5" y="-597" font-family="Helvetica,sans-Serif" font-size="10.00"> elements</text>
</g>
<!-- Node8 -->
<g id="node8" class="node">
<title>Node8</title>
<g id="a_node8"><a xlink:href="classmessaget_1_1commandt.html" target="_top" xlink:title=" ">
<polygon fill="none" stroke="black" points="712,-76.5 712,-95.5 835,-95.5 835,-76.5 712,-76.5"/>
<text text-anchor="middle" x="773.5" y="-83.5" font-family="Helvetica,sans-Serif" font-size="10.00">messaget::commandt</text>
</a>
</g>
</g>
<!-- Node8&#45;&gt;Node3 -->
<g id="edge7" class="edge">
<title>Node8&#45;&gt;Node3</title>
<path fill="none" stroke="#9a32cd" stroke-dasharray="5,2" d="M845.53,-83.34C850.76,-83.2 855.96,-83.09 861,-83 913.17,-82.1 973.83,-82.37 1009.87,-82.67"/>
<polygon fill="#9a32cd" stroke="#9a32cd" points="845.35,-79.84 835.46,-83.62 845.55,-86.84 845.35,-79.84"/>
<text text-anchor="middle" x="914" y="-196" font-family="Helvetica,sans-Serif" font-size="10.00"> blue</text>
<text text-anchor="middle" x="914" y="-185" font-family="Helvetica,sans-Serif" font-size="10.00">bold</text>
<text text-anchor="middle" x="914" y="-174" font-family="Helvetica,sans-Serif" font-size="10.00">bright_blue</text>
<text text-anchor="middle" x="914" y="-163" font-family="Helvetica,sans-Serif" font-size="10.00">bright_cyan</text>
<text text-anchor="middle" x="914" y="-152" font-family="Helvetica,sans-Serif" font-size="10.00">bright_green</text>
<text text-anchor="middle" x="914" y="-141" font-family="Helvetica,sans-Serif" font-size="10.00">bright_magenta</text>
<text text-anchor="middle" x="914" y="-130" font-family="Helvetica,sans-Serif" font-size="10.00">bright_red</text>
<text text-anchor="middle" x="914" y="-119" font-family="Helvetica,sans-Serif" font-size="10.00">bright_yellow</text>
<text text-anchor="middle" x="914" y="-108" font-family="Helvetica,sans-Serif" font-size="10.00">cyan</text>
<text text-anchor="middle" x="914" y="-97" font-family="Helvetica,sans-Serif" font-size="10.00">faint</text>
<text text-anchor="middle" x="914" y="-86" font-family="Helvetica,sans-Serif" font-size="10.00">...</text>
</g>
<!-- Node9&#45;&gt;Node3 -->
<g id="edge8" class="edge">
<title>Node9&#45;&gt;Node3</title>
<path fill="none" stroke="#9a32cd" stroke-dasharray="5,2" d="M1197.91,-192.85C1171.6,-186.88 1142.14,-177.53 1118,-163 1087.11,-144.4 1061.03,-109.34 1049.64,-92.5"/>
<polygon fill="#9a32cd" stroke="#9a32cd" points="1197.31,-196.3 1207.82,-194.98 1198.77,-189.46 1197.31,-196.3"/>
<text text-anchor="middle" x="1153" y="-193" font-family="Helvetica,sans-Serif" font-size="10.00"> mstream</text>
</g>
<!-- Node10 -->
<g id="node10" class="node">
<title>Node10</title>
<g id="a_node10"><a xlink:title=" ">
<polygon fill="none" stroke="#bfbfbf" points="989.5,-207.5 989.5,-226.5 1095.5,-226.5 1095.5,-207.5 989.5,-207.5"/>
<text text-anchor="middle" x="1042.5" y="-214.5" font-family="Helvetica,sans-Serif" font-size="10.00">std::ostringstream</text>
</a>
</g>
</g>
<!-- Node10&#45;&gt;Node9 -->
<g id="edge9" class="edge">
<title>Node10&#45;&gt;Node9</title>
<path fill="none" stroke="midnightblue" d="M1105.62,-213.1C1137.56,-211.09 1176.28,-208.66 1207.72,-206.69"/>
<polygon fill="midnightblue" stroke="midnightblue" points="1105.26,-209.62 1095.5,-213.74 1105.7,-216.6 1105.26,-209.62"/>
</g>
<!-- Node11 -->
<g id="node11" class="node">
<title>Node11</title>
<g id="a_node11"><a xlink:title=" ">
<polygon fill="none" stroke="#bfbfbf" points="705,-184 705,-214 842,-214 842,-184 705,-184"/>
<text text-anchor="start" x="713" y="-202" font-family="Helvetica,sans-Serif" font-size="10.00">std::basic_ostringstream</text>
<text text-anchor="middle" x="773.5" y="-191" font-family="Helvetica,sans-Serif" font-size="10.00">&lt; Char &gt;</text>
</a>
</g>
</g>
<!-- Node11&#45;&gt;Node10 -->
<g id="edge10" class="edge">
<title>Node11&#45;&gt;Node10</title>
<path fill="none" stroke="midnightblue" d="M852.34,-204.25C896.45,-207.22 950.45,-210.86 989.44,-213.49"/>
<polygon fill="midnightblue" stroke="midnightblue" points="852.43,-200.75 842.22,-203.57 851.96,-207.73 852.43,-200.75"/>
</g>
<!-- Node12 -->
<g id="node12" class="node">
<title>Node12</title>
<g id="a_node12"><a xlink:title=" ">
<polygon fill="none" stroke="#bfbfbf" points="434.5,-184 434.5,-214 543.5,-214 543.5,-184 434.5,-184"/>
<text text-anchor="start" x="442.5" y="-202" font-family="Helvetica,sans-Serif" font-size="10.00">std::basic_ostream</text>
<text text-anchor="middle" x="489" y="-191" font-family="Helvetica,sans-Serif" font-size="10.00">&lt; Char &gt;</text>
</a>
</g>
</g>
<!-- Node12&#45;&gt;Node11 -->
<g id="edge11" class="edge">
<title>Node12&#45;&gt;Node11</title>
<path fill="none" stroke="midnightblue" d="M554.03,-199C599.04,-199 659.15,-199 704.92,-199"/>
<polygon fill="midnightblue" stroke="midnightblue" points="553.8,-195.5 543.8,-199 553.8,-202.5 553.8,-195.5"/>
</g>
<!-- Node15 -->
<g id="node13" class="node">
<title>Node15</title>
<g id="a_node13"><a xlink:href="classsource__locationt.html" target="_top" xlink:title=" ">
<polygon fill="none" stroke="black" points="583,-740.5 583,-759.5 680,-759.5 680,-740.5 583,-740.5"/>
<text text-anchor="middle" x="631.5" y="-747.5" font-family="Helvetica,sans-Serif" font-size="10.00">source_locationt</text>
</a>
</g>
</g>
<!-- Node15&#45;&gt;Node9 -->
<g id="edge13" class="edge">
<title>Node15&#45;&gt;Node9</title>
<path fill="none" stroke="#9a32cd" stroke-dasharray="5,2" d="M679.35,-736.12C681.67,-734.86 683.9,-733.49 686,-732 696.6,-724.5 693.7,-716.9 704,-709 757.26,-668.17 786.34,-685.97 843,-650 1030.08,-531.21 1093.85,-490.61 1188,-290 1200.19,-264.03 1186.85,-249.37 1206,-228 1212.07,-221.23 1220.25,-216.25 1228.64,-212.6"/>
<polygon fill="#9a32cd" stroke="#9a32cd" points="677.67,-733.04 670.12,-740.47 680.66,-739.37 677.67,-733.04"/>
<text text-anchor="middle" x="914" y="-640" font-family="Helvetica,sans-Serif" font-size="10.00"> source_location</text>
</g>
<!-- Node16 -->
<g id="node14" class="node">
<title>Node16</title>
<g id="a_node14"><a xlink:href="classirept.html" target="_top" xlink:title="There are a large number of kinds of tree structured or tree&#45;like data in CPROVER.">
<polygon fill="none" stroke="black" points="239,-704.5 239,-723.5 278,-723.5 278,-704.5 239,-704.5"/>
<text text-anchor="middle" x="258.5" y="-711.5" font-family="Helvetica,sans-Serif" font-size="10.00">irept</text>
</a>
</g>
</g>
<!-- Node16&#45;&gt;Node15 -->
<g id="edge14" class="edge">
<title>Node16&#45;&gt;Node15</title>
<path fill="none" stroke="midnightblue" d="M288.25,-716.79C351.78,-722.95 504.67,-737.79 582.8,-745.37"/>
<polygon fill="midnightblue" stroke="midnightblue" points="288.44,-713.29 278.15,-715.81 287.77,-720.26 288.44,-713.29"/>
</g>
<!-- Node42 -->
<g id="node34" class="node">
<title>Node42</title>
<g id="a_node34"><a xlink:href="classexprt.html" target="_top" xlink:title="Base class for all expressions.">
<polygon fill="none" stroke="black" points="468,-672.5 468,-691.5 510,-691.5 510,-672.5 468,-672.5"/>
<text text-anchor="middle" x="489" y="-679.5" font-family="Helvetica,sans-Serif" font-size="10.00">exprt</text>
</a>
</g>
</g>
<!-- Node16&#45;&gt;Node42 -->
<g id="edge45" class="edge">
<title>Node16&#45;&gt;Node42</title>
<path fill="none" stroke="midnightblue" d="M288.3,-709.97C335.23,-703.39 427.04,-690.54 467.74,-684.84"/>
<polygon fill="midnightblue" stroke="midnightblue" points="287.62,-706.53 278.2,-711.38 288.59,-713.46 287.62,-706.53"/>
</g>
<!-- Node17 -->
<g id="node15" class="node">
<title>Node17</title>
<g id="a_node15"><a xlink:href="classsharing__treet.html" target="_top" xlink:title=" ">
<polygon fill="none" stroke="red" points="0,-693.5 0,-734.5 125,-734.5 125,-693.5 0,-693.5"/>
<text text-anchor="start" x="8" y="-722.5" font-family="Helvetica,sans-Serif" font-size="10.00">sharing_treet&lt; irept,</text>
<text text-anchor="start" x="8" y="-711.5" font-family="Helvetica,sans-Serif" font-size="10.00"> forward_list_as_mapt</text>
<text text-anchor="middle" x="62.5" y="-700.5" font-family="Helvetica,sans-Serif" font-size="10.00">&lt; irep_idt, irept &gt; &gt;</text>
</a>
</g>
</g>
<!-- Node17&#45;&gt;Node16 -->
<g id="edge15" class="edge">
<title>Node17&#45;&gt;Node16</title>
<path fill="none" stroke="midnightblue" d="M135.45,-714C172.55,-714 214.9,-714 238.69,-714"/>
<polygon fill="midnightblue" stroke="midnightblue" points="135.15,-710.5 125.15,-714 135.15,-717.5 135.15,-710.5"/>
</g>
<!-- Node23 -->
<g id="node16" class="node">
<title>Node23</title>
<g id="a_node16"><a xlink:href="classmessaget_1_1eomt.html" target="_top" xlink:title=" ">
<polygon fill="none" stroke="black" points="725.5,-38.5 725.5,-57.5 821.5,-57.5 821.5,-38.5 725.5,-38.5"/>
<text text-anchor="middle" x="773.5" y="-45.5" font-family="Helvetica,sans-Serif" font-size="10.00">messaget::eomt</text>
</a>
</g>
</g>
<!-- Node23&#45;&gt;Node3 -->
<g id="edge16" class="edge">
<title>Node23&#45;&gt;Node3</title>
<path fill="none" stroke="#9a32cd" stroke-dasharray="5,2" d="M832.21,-51.98C870.56,-55.05 921.96,-59.96 967,-67 981.12,-69.21 996.58,-72.4 1009.74,-75.35"/>
<polygon fill="#9a32cd" stroke="#9a32cd" points="832,-48.45 821.76,-51.17 831.46,-55.43 832,-48.45"/>
<text text-anchor="middle" x="914" y="-70" font-family="Helvetica,sans-Serif" font-size="10.00"> eom</text>
</g>
<!-- Node24 -->
<g id="node17" class="node">
<title>Node24</title>
<g id="a_node17"><a xlink:href="classgoto__modelt.html" target="_top" xlink:title=" ">
<polygon fill="none" stroke="black" points="1495,-275.5 1495,-294.5 1573,-294.5 1573,-275.5 1495,-275.5"/>
<text text-anchor="middle" x="1534" y="-282.5" font-family="Helvetica,sans-Serif" font-size="10.00">goto_modelt</text>
</a>
</g>
</g>
<!-- Node24&#45;&gt;Node2 -->
<g id="edge17" class="edge">
<title>Node24&#45;&gt;Node2</title>
<path fill="none" stroke="#9a32cd" stroke-dasharray="5,2" d="M1583.44,-285C1609.04,-285 1641.01,-285 1669.63,-285"/>
<polygon fill="#9a32cd" stroke="#9a32cd" points="1583.24,-281.5 1573.24,-285 1583.24,-288.5 1583.24,-281.5"/>
<text text-anchor="middle" x="1621.5" y="-288" font-family="Helvetica,sans-Serif" font-size="10.00"> goto_model</text>
</g>
<!-- Node25 -->
<g id="node18" class="node">
<title>Node25</title>
<g id="a_node18"><a xlink:href="classabstract__goto__modelt.html" target="_top" xlink:title="Abstract interface to eager or lazy GOTO models.">
<polygon fill="none" stroke="black" points="1206,-237.5 1206,-256.5 1329,-256.5 1329,-237.5 1206,-237.5"/>
<text text-anchor="middle" x="1267.5" y="-244.5" font-family="Helvetica,sans-Serif" font-size="10.00">abstract_goto_modelt</text>
</a>
</g>
</g>
<!-- Node25&#45;&gt;Node24 -->
<g id="edge18" class="edge">
<title>Node25&#45;&gt;Node24</title>
<path fill="none" stroke="midnightblue" d="M1339.27,-257.17C1389.19,-264.34 1454.13,-273.67 1494.7,-279.5"/>
<polygon fill="midnightblue" stroke="midnightblue" points="1339.58,-253.68 1329.18,-255.72 1338.58,-260.6 1339.58,-253.68"/>
</g>
<!-- Node26 -->
<g id="node19" class="node">
<title>Node26</title>
<g id="a_node19"><a xlink:href="classsymbol__tablet.html" target="_top" xlink:title="The symbol table.">
<polygon fill="none" stroke="black" points="1224.5,-319.5 1224.5,-338.5 1310.5,-338.5 1310.5,-319.5 1224.5,-319.5"/>
<text text-anchor="middle" x="1267.5" y="-326.5" font-family="Helvetica,sans-Serif" font-size="10.00">symbol_tablet</text>
</a>
</g>
</g>
<!-- Node26&#45;&gt;Node24 -->
<g id="edge19" class="edge">
<title>Node26&#45;&gt;Node24</title>
<path fill="none" stroke="#9a32cd" stroke-dasharray="5,2" d="M1320.77,-323.54C1363.12,-318.69 1424.22,-310.7 1477,-300 1484.5,-298.48 1492.48,-296.54 1500,-294.57"/>
<polygon fill="#9a32cd" stroke="#9a32cd" points="1320.24,-320.08 1310.69,-324.68 1321.02,-327.04 1320.24,-320.08"/>
<text text-anchor="middle" x="1412" y="-323" font-family="Helvetica,sans-Serif" font-size="10.00"> symbol_table</text>
</g>
<!-- Node27 -->
<g id="node20" class="node">
<title>Node27</title>
<g id="a_node20"><a xlink:href="classsymbol__table__baset.html" target="_top" xlink:title="The symbol table base class interface.">
<polygon fill="none" stroke="black" points="985,-391.5 985,-410.5 1100,-410.5 1100,-391.5 985,-391.5"/>
<text text-anchor="middle" x="1042.5" y="-398.5" font-family="Helvetica,sans-Serif" font-size="10.00">symbol_table_baset</text>
</a>
</g>
</g>
<!-- Node27&#45;&gt;Node26 -->
<g id="edge20" class="edge">
<title>Node27&#45;&gt;Node26</title>
<path fill="none" stroke="midnightblue" d="M1082.89,-388.28C1126.89,-374.07 1197.13,-351.4 1236.76,-338.6"/>
<polygon fill="midnightblue" stroke="midnightblue" points="1081.55,-385.04 1073.11,-391.44 1083.7,-391.7 1081.55,-385.04"/>
</g>
<!-- Node28 -->
<g id="node21" class="node">
<title>Node28</title>
<g id="a_node21"><a xlink:title=" ">
<polygon fill="none" stroke="#bfbfbf" points="716,-322 716,-352 831,-352 831,-322 716,-322"/>
<text text-anchor="start" x="724" y="-340" font-family="Helvetica,sans-Serif" font-size="10.00">std::multimap&lt; irep</text>
<text text-anchor="middle" x="773.5" y="-329" font-family="Helvetica,sans-Serif" font-size="10.00">_idt, irep_idt &gt;</text>
</a>
</g>
</g>
<!-- Node28&#45;&gt;Node26 -->
<g id="edge29" class="edge">
<title>Node28&#45;&gt;Node26</title>
<path fill="none" stroke="#9a32cd" stroke-dasharray="5,2" d="M841.71,-335.91C944.8,-334.23 1138.97,-331.07 1224.38,-329.68"/>
<polygon fill="#9a32cd" stroke="#9a32cd" points="841.36,-332.41 831.42,-336.07 841.47,-339.41 841.36,-332.41"/>
<text text-anchor="start" x="987" y="-369" font-family="Helvetica,sans-Serif" font-size="10.00"> internal_symbol_base</text>
<text text-anchor="middle" x="1042.5" y="-358" font-family="Helvetica,sans-Serif" font-size="10.00">_map</text>
<text text-anchor="start" x="987" y="-347" font-family="Helvetica,sans-Serif" font-size="10.00">internal_symbol</text>
<text text-anchor="middle" x="1042.5" y="-336" font-family="Helvetica,sans-Serif" font-size="10.00">_module_map</text>
</g>
<!-- Node28&#45;&gt;Node27 -->
<g id="edge21" class="edge">
<title>Node28&#45;&gt;Node27</title>
<path fill="none" stroke="#9a32cd" stroke-dasharray="5,2" d="M841,-352.94C891.57,-365.06 959.47,-381.34 1001.84,-391.49"/>
<polygon fill="#9a32cd" stroke="#9a32cd" points="841.66,-349.5 831.12,-350.57 840.03,-356.31 841.66,-349.5"/>
<text text-anchor="middle" x="914" y="-396" font-family="Helvetica,sans-Serif" font-size="10.00"> symbol_base_map</text>
<text text-anchor="middle" x="914" y="-385" font-family="Helvetica,sans-Serif" font-size="10.00">symbol_module_map</text>
</g>
<!-- Node22 -->
<g id="node22" class="node">
<title>Node22</title>
<g id="a_node22"><a xlink:href="classdstringt.html" target="_top" xlink:title="dstringt has one field, an unsigned integer no which is an index into a static table of strings.">
<polygon fill="none" stroke="black" points="231.5,-337.5 231.5,-356.5 285.5,-356.5 285.5,-337.5 231.5,-337.5"/>
<text text-anchor="middle" x="258.5" y="-344.5" font-family="Helvetica,sans-Serif" font-size="10.00">dstringt</text>
</a>
</g>
</g>
<!-- Node22&#45;&gt;Node28 -->
<g id="edge22" class="edge">
<title>Node22&#45;&gt;Node28</title>
<path fill="none" stroke="#9a32cd" stroke-dasharray="5,2" d="M295.68,-346.29C383.75,-344.58 609.77,-340.17 715.88,-338.1"/>
<polygon fill="#9a32cd" stroke="#9a32cd" points="295.57,-342.8 285.65,-346.49 295.71,-349.79 295.57,-342.8"/>
<text text-anchor="middle" x="489" y="-357" font-family="Helvetica,sans-Serif" font-size="10.00"> elements</text>
<text text-anchor="middle" x="489" y="-346" font-family="Helvetica,sans-Serif" font-size="10.00">keys</text>
</g>
<!-- Node33 -->
<g id="node27" class="node">
<title>Node33</title>
<g id="a_node27"><a xlink:title=" ">
<polygon fill="none" stroke="#bfbfbf" points="987.5,-262 987.5,-292 1097.5,-292 1097.5,-262 987.5,-262"/>
<text text-anchor="start" x="995.5" y="-280" font-family="Helvetica,sans-Serif" font-size="10.00">std::map&lt; irep_idt,</text>
<text text-anchor="middle" x="1042.5" y="-269" font-family="Helvetica,sans-Serif" font-size="10.00"> goto_functiont &gt;</text>
</a>
</g>
</g>
<!-- Node22&#45;&gt;Node33 -->
<g id="edge37" class="edge">
<title>Node22&#45;&gt;Node33</title>
<path fill="none" stroke="#9a32cd" stroke-dasharray="5,2" d="M277.49,-330.25C286.61,-321.5 297.69,-310.46 307,-300 315.63,-290.3 313.82,-283.59 325,-277 361.45,-255.52 376.83,-265.34 419,-262 628.61,-245.38 879.04,-262.67 987.27,-271.94"/>
<polygon fill="#9a32cd" stroke="#9a32cd" points="274.92,-327.86 270.07,-337.28 279.74,-332.94 274.92,-327.86"/>
<text text-anchor="middle" x="631.5" y="-258" font-family="Helvetica,sans-Serif" font-size="10.00"> keys</text>
</g>
<!-- Node22&#45;&gt;Node35 -->
<g id="edge34" class="edge">
<title>Node22&#45;&gt;Node35</title>
<path fill="none" stroke="#9a32cd" stroke-dasharray="5,2" d="M295.59,-336.17C327.88,-326.52 376.54,-312.1 419,-300 429.99,-296.87 442,-293.53 452.86,-290.54"/>
<polygon fill="#9a32cd" stroke="#9a32cd" points="294.28,-332.9 285.71,-339.12 296.29,-339.61 294.28,-332.9"/>
<text text-anchor="middle" x="363" y="-329" font-family="Helvetica,sans-Serif" font-size="10.00"> elements</text>
</g>
<!-- Node41 -->
<g id="node33" class="node">
<title>Node41</title>
<g id="a_node33"><a xlink:href="structloop__idt.html" target="_top" xlink:title="Loop id used to identify loops.">
<polygon fill="none" stroke="black" points="461,-405.5 461,-424.5 517,-424.5 517,-405.5 461,-405.5"/>
<text text-anchor="middle" x="489" y="-412.5" font-family="Helvetica,sans-Serif" font-size="10.00">loop_idt</text>
</a>
</g>
</g>
<!-- Node22&#45;&gt;Node41 -->
<g id="edge43" class="edge">
<title>Node22&#45;&gt;Node41</title>
<path fill="none" stroke="#9a32cd" stroke-dasharray="5,2" d="M285.15,-361.29C296.99,-367.42 311.42,-374.26 325,-379 371.51,-395.24 428.13,-405.79 460.92,-411.04"/>
<polygon fill="#9a32cd" stroke="#9a32cd" points="286.73,-358.17 276.26,-356.57 283.45,-364.35 286.73,-358.17"/>
<text text-anchor="middle" x="363" y="-402" font-family="Helvetica,sans-Serif" font-size="10.00"> function_id</text>
</g>
<!-- Node29&#45;&gt;Node28 -->
<g id="edge23" class="edge">
<title>Node29&#45;&gt;Node28</title>
<path fill="none" stroke="orange" stroke-dasharray="5,2" d="M539.48,-440.64C546.11,-438.62 552.76,-436.39 559,-434 567.35,-430.8 568.88,-428.74 577,-425 624.76,-403.01 639.7,-403.92 686,-379 694.47,-374.44 695.56,-371.61 704,-367 713.8,-361.64 724.74,-356.5 734.96,-352.03"/>
<polygon fill="orange" stroke="orange" points="538.45,-437.29 529.84,-443.45 540.42,-444.01 538.45,-437.29"/>
<text text-anchor="middle" x="631.5" y="-428" font-family="Helvetica,sans-Serif" font-size="10.00"> &lt; irep_idt, irep_idt &gt;</text>
</g>
<!-- Node30 -->
<g id="node24" class="node">
<title>Node30</title>
<g id="a_node24"><a xlink:title=" ">
<polygon fill="none" stroke="#bfbfbf" points="244,-542.5 244,-561.5 273,-561.5 273,-542.5 244,-542.5"/>
<text text-anchor="middle" x="258.5" y="-549.5" font-family="Helvetica,sans-Serif" font-size="10.00">K</text>
</a>
</g>
</g>
<!-- Node30&#45;&gt;Node29 -->
<g id="edge24" class="edge">
<title>Node30&#45;&gt;Node29</title>
<path fill="none" stroke="#9a32cd" stroke-dasharray="5,2" d="M280.84,-536.51C293.3,-527.93 309.56,-517.52 325,-510 367.58,-489.26 419.69,-472.41 453.35,-462.54"/>
<polygon fill="#9a32cd" stroke="#9a32cd" points="278.68,-533.75 272.51,-542.36 282.71,-539.47 278.68,-533.75"/>
<text text-anchor="middle" x="363" y="-513" font-family="Helvetica,sans-Serif" font-size="10.00"> keys</text>
</g>
<!-- Node30&#45;&gt;Node31 -->
<g id="edge27" class="edge">
<title>Node30&#45;&gt;Node31</title>
<path fill="none" stroke="#9a32cd" stroke-dasharray="5,2" d="M283.28,-547.32C318.19,-540.44 384.32,-527.42 431.98,-518.03"/>
<polygon fill="#9a32cd" stroke="#9a32cd" points="282.24,-543.95 273.11,-549.32 283.6,-550.82 282.24,-543.95"/>
<text text-anchor="middle" x="363" y="-541" font-family="Helvetica,sans-Serif" font-size="10.00"> keys</text>
</g>
<!-- Node30&#45;&gt;Node39 -->
<g id="edge39" class="edge">
<title>Node30&#45;&gt;Node39</title>
<path fill="none" stroke="#9a32cd" stroke-dasharray="5,2" d="M283.27,-555.54C319.76,-560.97 390.37,-571.47 438.34,-578.61"/>
<polygon fill="#9a32cd" stroke="#9a32cd" points="283.52,-552.03 273.11,-554.03 282.49,-558.96 283.52,-552.03"/>
<text text-anchor="middle" x="363" y="-576" font-family="Helvetica,sans-Serif" font-size="10.00"> keys</text>
</g>
<!-- Node45 -->
<g id="node37" class="node">
<title>Node45</title>
<g id="a_node37"><a xlink:title=" ">
<polygon fill="none" stroke="#bfbfbf" points="448,-769.5 448,-788.5 530,-788.5 530,-769.5 448,-769.5"/>
<text text-anchor="middle" x="489" y="-776.5" font-family="Helvetica,sans-Serif" font-size="10.00">std::set&lt; K &gt;</text>
</a>
</g>
</g>
<!-- Node30&#45;&gt;Node45 -->
<g id="edge51" class="edge">
<title>Node30&#45;&gt;Node45</title>
<path fill="none" stroke="#9a32cd" stroke-dasharray="5,2" d="M281.78,-564.94C290.02,-570.13 299.24,-576.44 307,-583 326.46,-599.44 446.15,-732.38 479.42,-769.44"/>
<polygon fill="#9a32cd" stroke="#9a32cd" points="283.38,-561.82 273.02,-559.6 279.73,-567.79 283.38,-561.82"/>
<text text-anchor="middle" x="363" y="-685" font-family="Helvetica,sans-Serif" font-size="10.00"> keys</text>
</g>
<!-- Node31&#45;&gt;Node27 -->
<g id="edge26" class="edge">
<title>Node31&#45;&gt;Node27</title>
<path fill="none" stroke="#9a32cd" stroke-dasharray="5,2" d="M556.39,-498.27C627.58,-488.5 743.78,-471.32 843,-451 901.32,-439.05 968.3,-421.34 1007.64,-410.51"/>
<polygon fill="#9a32cd" stroke="#9a32cd" points="555.65,-494.84 546.22,-499.66 556.6,-501.78 555.65,-494.84"/>
<text text-anchor="middle" x="773.5" y="-478" font-family="Helvetica,sans-Serif" font-size="10.00"> symbols</text>
</g>
<!-- Node46 -->
<g id="node38" class="node">
<title>Node46</title>
<g id="a_node38"><a xlink:title=" ">
<polygon fill="none" stroke="#bfbfbf" points="716.5,-562.5 716.5,-603.5 830.5,-603.5 830.5,-562.5 716.5,-562.5"/>
<text text-anchor="start" x="724.5" y="-591.5" font-family="Helvetica,sans-Serif" font-size="10.00">std::unordered_map</text>
<text text-anchor="start" x="724.5" y="-580.5" font-family="Helvetica,sans-Serif" font-size="10.00">&lt; exprt, exprt, irep</text>
<text text-anchor="middle" x="773.5" y="-569.5" font-family="Helvetica,sans-Serif" font-size="10.00">_hash &gt;</text>
</a>
</g>
</g>
<!-- Node31&#45;&gt;Node46 -->
<g id="edge56" class="edge">
<title>Node31&#45;&gt;Node46</title>
<path fill="none" stroke="orange" stroke-dasharray="5,2" d="M556.33,-508.71C595.53,-511.83 645.3,-519.54 686,-538 695.48,-542.3 695.14,-547.52 704,-553 709.41,-556.35 715.26,-559.51 721.18,-562.44"/>
<polygon fill="orange" stroke="orange" points="556.56,-505.22 546.34,-508 556.07,-512.2 556.56,-505.22"/>
<text text-anchor="start" x="583" y="-552" font-family="Helvetica,sans-Serif" font-size="10.00"> &lt; exprt, exprt, irep</text>
<text text-anchor="middle" x="631.5" y="-541" font-family="Helvetica,sans-Serif" font-size="10.00">_hash &gt;</text>
</g>
<!-- Node32 -->
<g id="node26" class="node">
<title>Node32</title>
<g id="a_node26"><a xlink:href="classgoto__functionst.html" target="_top" xlink:title="A collection of goto functions.">
<polygon fill="none" stroke="black" points="1221.5,-275.5 1221.5,-294.5 1313.5,-294.5 1313.5,-275.5 1221.5,-275.5"/>
<text text-anchor="middle" x="1267.5" y="-282.5" font-family="Helvetica,sans-Serif" font-size="10.00">goto_functionst</text>
</a>
</g>
</g>
<!-- Node32&#45;&gt;Node24 -->
<g id="edge30" class="edge">
<title>Node32&#45;&gt;Node24</title>
<path fill="none" stroke="#9a32cd" stroke-dasharray="5,2" d="M1323.91,-285C1375.18,-285 1450.03,-285 1494.88,-285"/>
<polygon fill="#9a32cd" stroke="#9a32cd" points="1323.67,-281.5 1313.67,-285 1323.67,-288.5 1323.67,-281.5"/>
<text text-anchor="middle" x="1412" y="-288" font-family="Helvetica,sans-Serif" font-size="10.00"> goto_functions</text>
</g>
<!-- Node33&#45;&gt;Node32 -->
<g id="edge31" class="edge">
<title>Node33&#45;&gt;Node32</title>
<path fill="none" stroke="#9a32cd" stroke-dasharray="5,2" d="M1107.79,-279.31C1144.16,-280.61 1188.75,-282.21 1221.39,-283.38"/>
<polygon fill="#9a32cd" stroke="#9a32cd" points="1107.89,-275.81 1097.77,-278.95 1107.63,-282.8 1107.89,-275.81"/>
<text text-anchor="middle" x="1153" y="-284" font-family="Helvetica,sans-Serif" font-size="10.00"> function_map</text>
</g>
<!-- Node34 -->
<g id="node28" class="node">
<title>Node34</title>
<g id="a_node28"><a xlink:href="classgoto__functiont.html" target="_top" xlink:title="A goto function, consisting of function body (see body) and parameter identifiers (see parameter_iden...">
<polygon fill="none" stroke="black" points="730,-271.5 730,-290.5 817,-290.5 817,-271.5 730,-271.5"/>
<text text-anchor="middle" x="773.5" y="-278.5" font-family="Helvetica,sans-Serif" font-size="10.00">goto_functiont</text>
</a>
</g>
</g>
<!-- Node34&#45;&gt;Node33 -->
<g id="edge32" class="edge">
<title>Node34&#45;&gt;Node33</title>
<path fill="none" stroke="#9a32cd" stroke-dasharray="5,2" d="M827.21,-280.21C873.42,-279.52 940.32,-278.52 987.04,-277.82"/>
<polygon fill="#9a32cd" stroke="#9a32cd" points="827.05,-276.71 817.1,-280.36 827.15,-283.71 827.05,-276.71"/>
<text text-anchor="middle" x="914" y="-282" font-family="Helvetica,sans-Serif" font-size="10.00"> elements</text>
</g>
<!-- Node35&#45;&gt;Node34 -->
<g id="edge33" class="edge">
<title>Node35&#45;&gt;Node34</title>
<path fill="none" stroke="#9a32cd" stroke-dasharray="5,2" d="M563.06,-281C615.96,-281 685.67,-281 729.79,-281"/>
<polygon fill="#9a32cd" stroke="#9a32cd" points="563.05,-277.5 553.05,-281 563.05,-284.5 563.05,-277.5"/>
<text text-anchor="middle" x="631.5" y="-284" font-family="Helvetica,sans-Serif" font-size="10.00"> parameter_identifiers</text>
</g>
<!-- Node36 -->
<g id="node30" class="node">
<title>Node36</title>
<g id="a_node30"><a xlink:href="classgoto__programt.html" target="_top" xlink:title="A generic container class for the GOTO intermediate representation of one function.">
<polygon fill="none" stroke="red" points="444.5,-309.5 444.5,-328.5 533.5,-328.5 533.5,-309.5 444.5,-309.5"/>
<text text-anchor="middle" x="489" y="-316.5" font-family="Helvetica,sans-Serif" font-size="10.00">goto_programt</text>
</a>
</g>
</g>
<!-- Node36&#45;&gt;Node34 -->
<g id="edge36" class="edge">
<title>Node36&#45;&gt;Node34</title>
<path fill="none" stroke="#9a32cd" stroke-dasharray="5,2" d="M543.87,-313.48C583.31,-309.25 638.07,-302.96 686,-296 700.33,-293.92 715.94,-291.32 729.9,-288.87"/>
<polygon fill="#9a32cd" stroke="#9a32cd" points="543.26,-310.03 533.68,-314.57 544,-316.99 543.26,-310.03"/>
<text text-anchor="middle" x="631.5" y="-312" font-family="Helvetica,sans-Serif" font-size="10.00"> body</text>
</g>
<!-- Node39&#45;&gt;Node33 -->
<g id="edge38" class="edge">
<title>Node39&#45;&gt;Node33</title>
<path fill="none" stroke="orange" stroke-dasharray="5,2" d="M542.29,-574.22C599.52,-561.22 683.55,-541.75 686,-539 730.37,-489.2 654.76,-435 704,-390 790.32,-311.1 873.37,-452.07 967,-382 987.59,-366.59 970.88,-348.5 985,-327 993.99,-313.32 1007.67,-301.07 1019.32,-292.13"/>
<polygon fill="orange" stroke="orange" points="541.28,-570.86 532.3,-576.49 542.83,-577.69 541.28,-570.86"/>
<text text-anchor="middle" x="773.5" y="-393" font-family="Helvetica,sans-Serif" font-size="10.00"> &lt; irep_idt, goto_functiont &gt;</text>
</g>
<!-- Node40 -->
<g id="node32" class="node">
<title>Node40</title>
<g id="a_node32"><a xlink:title=" ">
<polygon fill="none" stroke="#bfbfbf" points="717,-513 717,-543 830,-543 830,-513 717,-513"/>
<text text-anchor="start" x="725" y="-531" font-family="Helvetica,sans-Serif" font-size="10.00">std::map&lt; loop_idt,</text>
<text text-anchor="middle" x="773.5" y="-520" font-family="Helvetica,sans-Serif" font-size="10.00"> exprt &gt;</text>
</a>
</g>
</g>
<!-- Node39&#45;&gt;Node40 -->
<g id="edge46" class="edge">
<title>Node39&#45;&gt;Node40</title>
<path fill="none" stroke="orange" stroke-dasharray="5,2" d="M549.66,-585.99C589.27,-584.37 641.9,-579.11 686,-564 694.87,-560.96 695.55,-557.07 704,-553 711.41,-549.43 719.48,-546.06 727.38,-543.02"/>
<polygon fill="orange" stroke="orange" points="549.5,-582.49 539.62,-586.33 549.73,-589.49 549.5,-582.49"/>
<text text-anchor="middle" x="631.5" y="-587" font-family="Helvetica,sans-Serif" font-size="10.00"> &lt; loop_idt, exprt &gt;</text>
</g>
<!-- Node43 -->
<g id="node35" class="node">
<title>Node43</title>
<g id="a_node35"><a xlink:title=" ">
<polygon fill="none" stroke="#bfbfbf" points="985,-622 985,-652 1100,-652 1100,-622 985,-622"/>
<text text-anchor="start" x="993" y="-640" font-family="Helvetica,sans-Serif" font-size="10.00">std::map&lt; loop_idt,</text>
<text text-anchor="middle" x="1042.5" y="-629" font-family="Helvetica,sans-Serif" font-size="10.00"> std::set&lt; exprt &gt; &gt;</text>
</a>
</g>
</g>
<!-- Node39&#45;&gt;Node43 -->
<g id="edge53" class="edge">
<title>Node39&#45;&gt;Node43</title>
<path fill="none" stroke="orange" stroke-dasharray="5,2" d="M549.83,-594.41C558.93,-595.64 568.21,-596.87 577,-598 633.38,-605.22 647.42,-607.65 704,-613 802.54,-622.32 917.58,-629.77 984.7,-633.77"/>
<polygon fill="orange" stroke="orange" points="550.05,-590.91 539.67,-593.02 549.1,-597.84 550.05,-590.91"/>
<text text-anchor="start" x="725.5" y="-638" font-family="Helvetica,sans-Serif" font-size="10.00"> &lt; loop_idt, std::set</text>
<text text-anchor="middle" x="773.5" y="-627" font-family="Helvetica,sans-Serif" font-size="10.00">&lt; exprt &gt; &gt;</text>
</g>
<!-- Node40&#45;&gt;Node1 -->
<g id="edge41" class="edge">
<title>Node40&#45;&gt;Node1</title>
<path fill="none" stroke="#9a32cd" stroke-dasharray="5,2" d="M840.37,-522.11C915.65,-515.9 1042.6,-507 1152,-507 1152,-507 1152,-507 1745.5,-507 1793.87,-507 1847.89,-519.36 1885.38,-529.98"/>
<polygon fill="#9a32cd" stroke="#9a32cd" points="839.77,-518.65 830.09,-522.97 840.35,-525.63 839.77,-518.65"/>
<text text-anchor="start" x="1347" y="-543" font-family="Helvetica,sans-Serif" font-size="10.00"> in_invariant_clause</text>
<text text-anchor="middle" x="1412" y="-532" font-family="Helvetica,sans-Serif" font-size="10.00">_map</text>
<text text-anchor="middle" x="1412" y="-521" font-family="Helvetica,sans-Serif" font-size="10.00">neg_guards</text>
<text text-anchor="middle" x="1412" y="-510" font-family="Helvetica,sans-Serif" font-size="10.00">pos_invariant_clause_map</text>
</g>
<!-- Node41&#45;&gt;Node40 -->
<g id="edge42" class="edge">
<title>Node41&#45;&gt;Node40</title>
<path fill="none" stroke="#9a32cd" stroke-dasharray="5,2" d="M526.87,-424.08C537.35,-426.95 548.71,-430.34 559,-434 625.36,-457.64 639.51,-469.65 704,-498 715.05,-502.86 727.12,-508.15 738,-512.91"/>
<polygon fill="#9a32cd" stroke="#9a32cd" points="527.72,-420.68 517.16,-421.49 525.92,-427.45 527.72,-420.68"/>
<text text-anchor="middle" x="631.5" y="-491" font-family="Helvetica,sans-Serif" font-size="10.00"> keys</text>
</g>
<!-- Node41&#45;&gt;Node43 -->
<g id="edge52" class="edge">
<title>Node41&#45;&gt;Node43</title>
<path fill="none" stroke="#9a32cd" stroke-dasharray="5,2" d="M527.48,-409.21C542.79,-407.12 560.7,-405.03 577,-404 625.35,-400.96 637.8,-399.14 686,-404 721.43,-407.57 818.63,-410.04 843,-436 882.92,-478.53 824.92,-520.17 861,-566 877.04,-586.37 939.1,-607.93 986.01,-621.87"/>
<polygon fill="#9a32cd" stroke="#9a32cd" points="526.76,-405.78 517.34,-410.65 527.74,-412.71 526.76,-405.78"/>
<text text-anchor="middle" x="773.5" y="-439" font-family="Helvetica,sans-Serif" font-size="10.00"> keys</text>
</g>
<!-- Node42&#45;&gt;Node40 -->
<g id="edge44" class="edge">
<title>Node42&#45;&gt;Node40</title>
<path fill="none" stroke="#9a32cd" stroke-dasharray="5,2" d="M519.64,-668.88C536.43,-661.48 557.85,-652.13 577,-644 625.24,-623.51 649.29,-636.4 686,-599 701.38,-583.33 688.3,-568.34 704,-553 707.98,-549.11 712.62,-545.81 717.57,-543.03"/>
<polygon fill="#9a32cd" stroke="#9a32cd" points="518.08,-665.74 510.34,-672.98 520.9,-672.14 518.08,-665.74"/>
<text text-anchor="middle" x="631.5" y="-647" font-family="Helvetica,sans-Serif" font-size="10.00"> elements</text>
</g>
<!-- Node44 -->
<g id="node36" class="node">
<title>Node44</title>
<g id="a_node36"><a xlink:title=" ">
<polygon fill="none" stroke="#bfbfbf" points="723,-718.5 723,-737.5 824,-737.5 824,-718.5 723,-718.5"/>
<text text-anchor="middle" x="773.5" y="-725.5" font-family="Helvetica,sans-Serif" font-size="10.00">std::set&lt; exprt &gt;</text>
</a>
</g>
</g>
<!-- Node42&#45;&gt;Node44 -->
<g id="edge49" class="edge">
<title>Node42&#45;&gt;Node44</title>
<path fill="none" stroke="#9a32cd" stroke-dasharray="5,2" d="M520.04,-689.64C536.73,-693.7 557.93,-698.55 577,-702 626.36,-710.94 683.25,-718.16 722.89,-722.7"/>
<polygon fill="#9a32cd" stroke="#9a32cd" points="520.83,-686.23 510.28,-687.23 519.15,-693.02 520.83,-686.23"/>
<text text-anchor="middle" x="631.5" y="-720" font-family="Helvetica,sans-Serif" font-size="10.00"> keys</text>
</g>
<!-- Node42&#45;&gt;Node46 -->
<g id="edge55" class="edge">
<title>Node42&#45;&gt;Node46</title>
<path fill="none" stroke="#9a32cd" stroke-dasharray="5,2" d="M520.52,-679.73C572.27,-675.65 672.92,-666.59 686,-657 701.4,-645.71 690.77,-631.77 704,-618 709.27,-612.51 715.6,-607.73 722.24,-603.62"/>
<polygon fill="#9a32cd" stroke="#9a32cd" points="519.97,-676.26 510.27,-680.53 520.51,-683.24 519.97,-676.26"/>
<text text-anchor="middle" x="631.5" y="-688" font-family="Helvetica,sans-Serif" font-size="10.00"> elements</text>
<text text-anchor="middle" x="631.5" y="-677" font-family="Helvetica,sans-Serif" font-size="10.00">keys</text>
</g>
<!-- Node43&#45;&gt;Node1 -->
<g id="edge47" class="edge">
<title>Node43&#45;&gt;Node1</title>
<path fill="none" stroke="#9a32cd" stroke-dasharray="5,2" d="M1110.39,-635.63C1154.68,-634.84 1214.06,-634 1266.5,-634 1266.5,-634 1266.5,-634 1745.5,-634 1813.45,-634 1883,-585.49 1914.74,-560.1"/>
<polygon fill="#9a32cd" stroke="#9a32cd" points="1110.26,-632.13 1100.32,-635.81 1110.39,-639.13 1110.26,-632.13"/>
<text text-anchor="middle" x="1534" y="-637" font-family="Helvetica,sans-Serif" font-size="10.00"> assigns_map</text>
</g>
<!-- Node44&#45;&gt;Node43 -->
<g id="edge48" class="edge">
<title>Node44&#45;&gt;Node43</title>
<path fill="none" stroke="#9a32cd" stroke-dasharray="5,2" d="M812.08,-715.19C860.71,-698.62 945.29,-669.79 997.05,-652.15"/>
<polygon fill="#9a32cd" stroke="#9a32cd" points="810.91,-711.89 802.57,-718.43 813.16,-718.52 810.91,-711.89"/>
<text text-anchor="middle" x="914" y="-698" font-family="Helvetica,sans-Serif" font-size="10.00"> elements</text>
</g>
<!-- Node45&#45;&gt;Node44 -->
<g id="edge50" class="edge">
<title>Node45&#45;&gt;Node44</title>
<path fill="none" stroke="orange" stroke-dasharray="5,2" d="M540.33,-778.14C580.28,-776.56 637.31,-772.3 686,-761 709.33,-755.59 734.8,-745.3 752.02,-737.64"/>
<polygon fill="orange" stroke="orange" points="540.17,-774.64 530.3,-778.5 540.42,-781.64 540.17,-774.64"/>
<text text-anchor="middle" x="631.5" y="-778" font-family="Helvetica,sans-Serif" font-size="10.00"> &lt; exprt &gt;</text>
</g>
<!-- Node46&#45;&gt;Node1 -->
<g id="edge54" class="edge">
<title>Node46&#45;&gt;Node1</title>
<path fill="none" stroke="#9a32cd" stroke-dasharray="5,2" d="M840.89,-583C894.91,-583 973.13,-583 1041.5,-583 1041.5,-583 1041.5,-583 1745.5,-583 1793.87,-583 1847.89,-570.64 1885.38,-560.02"/>
<polygon fill="#9a32cd" stroke="#9a32cd" points="840.76,-579.5 830.76,-583 840.76,-586.5 840.76,-579.5"/>
<text text-anchor="middle" x="1412" y="-586" font-family="Helvetica,sans-Serif" font-size="10.00"> tmp_post_map</text>
</g>
</g>
</svg>
