<?xml version="1.0" encoding="UTF-8" standalone="no"?>
<!DOCTYPE svg PUBLIC "-//W3C//DTD SVG 1.1//EN"
 "http://www.w3.org/Graphics/SVG/1.1/DTD/svg11.dtd">
<!-- Generated by graphviz version 2.43.0 (0)
 -->
<!-- Title: unified_difft Pages: 1 -->
<svg width="1644pt" height="343pt"
 viewBox="0.00 0.00 1644.00 342.50" xmlns="http://www.w3.org/2000/svg" xmlns:xlink="http://www.w3.org/1999/xlink">
<g id="graph0" class="graph" transform="scale(1 1) rotate(0) translate(4 338.5)">
<title>unified_difft</title>
<!-- Node1 -->
<g id="node1" class="node">
<title>Node1</title>
<g id="a_node1"><a xlink:title=" ">
<polygon fill="#bfbfbf" stroke="black" points="1562,-198 1562,-217 1636,-217 1636,-198 1562,-198"/>
<text text-anchor="middle" x="1599" y="-205" font-family="Helvetica,sans-Serif" font-size="10.00">unified_difft</text>
</a>
</g>
</g>
<!-- Node2 -->
<g id="node2" class="node">
<title>Node2</title>
<g id="a_node2"><a xlink:href="classnamespacet.html" target="_top" xlink:title="A namespacet is essentially one or two symbol tables bound together, to allow for symbol lookups in t...">
<polygon fill="none" stroke="black" points="953,-253 953,-272 1030,-272 1030,-253 953,-253"/>
<text text-anchor="middle" x="991.5" y="-260" font-family="Helvetica,sans-Serif" font-size="10.00">namespacet</text>
</a>
</g>
</g>
<!-- Node2&#45;&gt;Node1 -->
<g id="edge1" class="edge">
<title>Node2&#45;&gt;Node1</title>
<path fill="none" stroke="#9a32cd" stroke-dasharray="5,2" d="M1040.5,-261.82C1136.67,-259.83 1359.57,-252.01 1544,-221.5 1550.88,-220.36 1558.16,-218.76 1565.07,-217.04"/>
<polygon fill="#9a32cd" stroke="#9a32cd" points="1040.15,-258.33 1030.22,-262.02 1040.29,-265.33 1040.15,-258.33"/>
<text text-anchor="middle" x="1283" y="-266.5" font-family="Helvetica,sans-Serif" font-size="10.00"> ns_new</text>
<text text-anchor="middle" x="1283" y="-255.5" font-family="Helvetica,sans-Serif" font-size="10.00">ns_old</text>
</g>
<!-- Node3 -->
<g id="node3" class="node">
<title>Node3</title>
<g id="a_node3"><a xlink:href="classnamespace__baset.html" target="_top" xlink:title="Basic interface for a namespace.">
<polygon fill="none" stroke="black" points="656.5,-253 656.5,-272 761.5,-272 761.5,-253 656.5,-253"/>
<text text-anchor="middle" x="709" y="-260" font-family="Helvetica,sans-Serif" font-size="10.00">namespace_baset</text>
</a>
</g>
</g>
<!-- Node3&#45;&gt;Node2 -->
<g id="edge2" class="edge">
<title>Node3&#45;&gt;Node2</title>
<path fill="none" stroke="midnightblue" d="M771.82,-262.5C827.19,-262.5 906.6,-262.5 952.94,-262.5"/>
<polygon fill="midnightblue" stroke="midnightblue" points="771.77,-259 761.77,-262.5 771.77,-266 771.77,-259"/>
</g>
<!-- Node4 -->
<g id="node4" class="node">
<title>Node4</title>
<g id="a_node4"><a xlink:href="classsymbol__table__baset.html" target="_top" xlink:title="The symbol table base class interface.">
<polygon fill="none" stroke="black" points="651.5,-291 651.5,-310 766.5,-310 766.5,-291 651.5,-291"/>
<text text-anchor="middle" x="709" y="-298" font-family="Helvetica,sans-Serif" font-size="10.00">symbol_table_baset</text>
</a>
</g>
</g>
<!-- Node4&#45;&gt;Node2 -->
<g id="edge3" class="edge">
<title>Node4&#45;&gt;Node2</title>
<path fill="none" stroke="#9a32cd" stroke-dasharray="5,2" d="M776.95,-294.62C820.67,-290.36 878.9,-283.87 930,-275.5 937.42,-274.28 945.31,-272.76 952.85,-271.19"/>
<polygon fill="#9a32cd" stroke="#9a32cd" points="776.35,-291.16 766.73,-295.6 777.02,-298.13 776.35,-291.16"/>
<text text-anchor="middle" x="860.5" y="-306.5" font-family="Helvetica,sans-Serif" font-size="10.00"> symbol_table1</text>
<text text-anchor="middle" x="860.5" y="-295.5" font-family="Helvetica,sans-Serif" font-size="10.00">symbol_table2</text>
</g>
<!-- Node5 -->
<g id="node5" class="node">
<title>Node5</title>
<g id="a_node5"><a xlink:title="STL class.">
<polygon fill="none" stroke="#bfbfbf" points="353.5,-309 353.5,-328 479.5,-328 479.5,-309 353.5,-309"/>
<text text-anchor="middle" x="416.5" y="-316" font-family="Helvetica,sans-Serif" font-size="10.00">std::multimap&lt; K, T &gt;</text>
</a>
</g>
</g>
<!-- Node5&#45;&gt;Node4 -->
<g id="edge4" class="edge">
<title>Node5&#45;&gt;Node4</title>
<path fill="none" stroke="#9a32cd" stroke-dasharray="5,2" d="M489.89,-314.01C539.76,-310.92 605.08,-306.88 651.2,-304.02"/>
<polygon fill="#9a32cd" stroke="#9a32cd" points="489.58,-310.53 479.82,-314.64 490.02,-317.51 489.58,-310.53"/>
<text text-anchor="middle" x="563.5" y="-326.5" font-family="Helvetica,sans-Serif" font-size="10.00"> symbol_base_map</text>
<text text-anchor="middle" x="563.5" y="-315.5" font-family="Helvetica,sans-Serif" font-size="10.00">symbol_module_map</text>
</g>
<!-- Node6 -->
<g id="node6" class="node">
<title>Node6</title>
<g id="a_node6"><a xlink:title=" ">
<polygon fill="none" stroke="#bfbfbf" points="159,-220 159,-239 188,-239 188,-220 159,-220"/>
<text text-anchor="middle" x="173.5" y="-227" font-family="Helvetica,sans-Serif" font-size="10.00">K</text>
</a>
</g>
</g>
<!-- Node6&#45;&gt;Node5 -->
<g id="edge5" class="edge">
<title>Node6&#45;&gt;Node5</title>
<path fill="none" stroke="#9a32cd" stroke-dasharray="5,2" d="M197.41,-239.36C230.84,-253.58 295.08,-280.22 351,-299.5 360.6,-302.81 371.13,-306.07 380.84,-308.92"/>
<polygon fill="#9a32cd" stroke="#9a32cd" points="198.64,-236.08 188.07,-235.38 195.89,-242.52 198.64,-236.08"/>
<text text-anchor="middle" x="292" y="-295.5" font-family="Helvetica,sans-Serif" font-size="10.00"> keys</text>
</g>
<!-- Node8 -->
<g id="node8" class="node">
<title>Node8</title>
<g id="a_node8"><a xlink:title="STL class.">
<polygon fill="none" stroke="#bfbfbf" points="359.5,-259.5 359.5,-289.5 473.5,-289.5 473.5,-259.5 359.5,-259.5"/>
<text text-anchor="start" x="367.5" y="-277.5" font-family="Helvetica,sans-Serif" font-size="10.00">std::unordered_map</text>
<text text-anchor="middle" x="416.5" y="-266.5" font-family="Helvetica,sans-Serif" font-size="10.00">&lt; K, T &gt;</text>
</a>
</g>
</g>
<!-- Node6&#45;&gt;Node8 -->
<g id="edge8" class="edge">
<title>Node6&#45;&gt;Node8</title>
<path fill="none" stroke="#9a32cd" stroke-dasharray="5,2" d="M198.35,-226.15C229.76,-222.52 286.47,-218.71 333,-230.5 355.34,-236.16 378.28,-249.08 394.28,-259.46"/>
<polygon fill="#9a32cd" stroke="#9a32cd" points="197.84,-222.69 188.35,-227.4 198.71,-229.63 197.84,-222.69"/>
<text text-anchor="middle" x="292" y="-233.5" font-family="Helvetica,sans-Serif" font-size="10.00"> keys</text>
</g>
<!-- Node28 -->
<g id="node19" class="node">
<title>Node28</title>
<g id="a_node19"><a xlink:title="STL class.">
<polygon fill="none" stroke="#bfbfbf" points="366,-187 366,-206 467,-206 467,-187 366,-187"/>
<text text-anchor="middle" x="416.5" y="-194" font-family="Helvetica,sans-Serif" font-size="10.00">std::map&lt; K, T &gt;</text>
</a>
</g>
</g>
<!-- Node6&#45;&gt;Node28 -->
<g id="edge24" class="edge">
<title>Node6&#45;&gt;Node28</title>
<path fill="none" stroke="#9a32cd" stroke-dasharray="5,2" d="M196.95,-216.92C211.79,-209.35 231.94,-200.44 251,-196.5 288.9,-188.67 332.76,-189.13 365.66,-191.3"/>
<polygon fill="#9a32cd" stroke="#9a32cd" points="195.24,-213.87 188.04,-221.64 198.51,-220.05 195.24,-213.87"/>
<text text-anchor="middle" x="292" y="-199.5" font-family="Helvetica,sans-Serif" font-size="10.00"> keys</text>
</g>
<!-- Node7 -->
<g id="node7" class="node">
<title>Node7</title>
<g id="a_node7"><a xlink:title=" ">
<polygon fill="none" stroke="#bfbfbf" points="0,-153 0,-172 29,-172 29,-153 0,-153"/>
<text text-anchor="middle" x="14.5" y="-160" font-family="Helvetica,sans-Serif" font-size="10.00">T</text>
</a>
</g>
</g>
<!-- Node7&#45;&gt;Node5 -->
<g id="edge6" class="edge">
<title>Node7&#45;&gt;Node5</title>
<path fill="none" stroke="#9a32cd" stroke-dasharray="5,2" d="M22.03,-181.89C27.43,-196.34 35.99,-216.15 47,-231.5 70.82,-264.71 76.63,-277.94 114,-294.5 191.17,-328.69 290.31,-329.41 353.39,-325.2"/>
<polygon fill="#9a32cd" stroke="#9a32cd" points="25.18,-180.29 18.53,-172.04 18.58,-182.64 25.18,-180.29"/>
<text text-anchor="middle" x="173.5" y="-325.5" font-family="Helvetica,sans-Serif" font-size="10.00"> elements</text>
</g>
<!-- Node7&#45;&gt;Node8 -->
<g id="edge9" class="edge">
<title>Node7&#45;&gt;Node8</title>
<path fill="none" stroke="#9a32cd" stroke-dasharray="5,2" d="M30,-179.73C47.71,-199.58 79.58,-231.61 114,-248.5 192.41,-286.98 296.14,-286.44 359.22,-281.34"/>
<polygon fill="#9a32cd" stroke="#9a32cd" points="32.52,-177.3 23.31,-172.05 27.24,-181.89 32.52,-177.3"/>
<text text-anchor="middle" x="173.5" y="-282.5" font-family="Helvetica,sans-Serif" font-size="10.00"> elements</text>
</g>
<!-- Node14 -->
<g id="node14" class="node">
<title>Node14</title>
<g id="a_node14"><a xlink:title="STL class.">
<polygon fill="none" stroke="#bfbfbf" points="368,-90 368,-109 465,-109 465,-90 368,-90"/>
<text text-anchor="middle" x="416.5" y="-97" font-family="Helvetica,sans-Serif" font-size="10.00">std::vector&lt; T &gt;</text>
</a>
</g>
</g>
<!-- Node7&#45;&gt;Node14 -->
<g id="edge16" class="edge">
<title>Node7&#45;&gt;Node14</title>
<path fill="none" stroke="#9a32cd" stroke-dasharray="5,2" d="M39.24,-158.76C103.52,-148.64 281.87,-120.55 367.89,-107"/>
<polygon fill="#9a32cd" stroke="#9a32cd" points="38.6,-155.32 29.27,-160.33 39.69,-162.23 38.6,-155.32"/>
<text text-anchor="middle" x="173.5" y="-148.5" font-family="Helvetica,sans-Serif" font-size="10.00"> elements</text>
</g>
<!-- Node27 -->
<g id="node18" class="node">
<title>Node27</title>
<g id="a_node18"><a xlink:title="STL class.">
<polygon fill="none" stroke="#bfbfbf" points="133,-51 133,-70 214,-70 214,-51 133,-51"/>
<text text-anchor="middle" x="173.5" y="-58" font-family="Helvetica,sans-Serif" font-size="10.00">std::list&lt; T &gt;</text>
</a>
</g>
</g>
<!-- Node7&#45;&gt;Node27 -->
<g id="edge21" class="edge">
<title>Node7&#45;&gt;Node27</title>
<path fill="none" stroke="#9a32cd" stroke-dasharray="5,2" d="M18.59,-142.68C22.32,-125.52 30.33,-101.33 47,-87.5 70.84,-67.72 105.79,-61.46 132.76,-59.87"/>
<polygon fill="#9a32cd" stroke="#9a32cd" points="15.1,-142.29 16.7,-152.77 21.98,-143.58 15.1,-142.29"/>
<text text-anchor="middle" x="71.5" y="-90.5" font-family="Helvetica,sans-Serif" font-size="10.00"> elements</text>
</g>
<!-- Node7&#45;&gt;Node28 -->
<g id="edge25" class="edge">
<title>Node7&#45;&gt;Node28</title>
<path fill="none" stroke="#9a32cd" stroke-dasharray="5,2" d="M39.18,-163.73C92,-166.57 223.42,-174.24 333,-185.5 343.64,-186.59 355.02,-187.97 365.82,-189.38"/>
<polygon fill="#9a32cd" stroke="#9a32cd" points="39.31,-160.23 29.14,-163.19 38.94,-167.22 39.31,-160.23"/>
<text text-anchor="middle" x="173.5" y="-178.5" font-family="Helvetica,sans-Serif" font-size="10.00"> elements</text>
</g>
<!-- Node8&#45;&gt;Node4 -->
<g id="edge7" class="edge">
<title>Node8&#45;&gt;Node4</title>
<path fill="none" stroke="#9a32cd" stroke-dasharray="5,2" d="M483.78,-278.77C525.03,-281.62 579.15,-285.72 627,-290.5 634.9,-291.29 643.21,-292.21 651.39,-293.17"/>
<polygon fill="#9a32cd" stroke="#9a32cd" points="483.8,-275.26 473.58,-278.07 483.32,-282.25 483.8,-275.26"/>
<text text-anchor="middle" x="563.5" y="-293.5" font-family="Helvetica,sans-Serif" font-size="10.00"> symbols</text>
</g>
<!-- Node9 -->
<g id="node9" class="node">
<title>Node9</title>
<g id="a_node9"><a xlink:href="classgoto__functionst.html" target="_top" xlink:title="A collection of goto functions.">
<polygon fill="none" stroke="black" points="1336,-157 1336,-176 1428,-176 1428,-157 1336,-157"/>
<text text-anchor="middle" x="1382" y="-164" font-family="Helvetica,sans-Serif" font-size="10.00">goto_functionst</text>
</a>
</g>
</g>
<!-- Node9&#45;&gt;Node1 -->
<g id="edge10" class="edge">
<title>Node9&#45;&gt;Node1</title>
<path fill="none" stroke="#9a32cd" stroke-dasharray="5,2" d="M1438.58,-160.79C1470.2,-159.36 1510.14,-160.67 1544,-171.5 1560.74,-176.85 1577.13,-189.05 1587.38,-197.76"/>
<polygon fill="#9a32cd" stroke="#9a32cd" points="1437.98,-157.32 1428.19,-161.37 1438.37,-164.31 1437.98,-157.32"/>
<text text-anchor="middle" x="1495" y="-185.5" font-family="Helvetica,sans-Serif" font-size="10.00"> old_goto_functions</text>
<text text-anchor="middle" x="1495" y="-174.5" font-family="Helvetica,sans-Serif" font-size="10.00">new_goto_functions</text>
</g>
<!-- Node10 -->
<g id="node10" class="node">
<title>Node10</title>
<g id="a_node10"><a xlink:title=" ">
<polygon fill="none" stroke="#bfbfbf" points="1120,-128.5 1120,-158.5 1230,-158.5 1230,-128.5 1120,-128.5"/>
<text text-anchor="start" x="1128" y="-146.5" font-family="Helvetica,sans-Serif" font-size="10.00">std::map&lt; irep_idt,</text>
<text text-anchor="middle" x="1175" y="-135.5" font-family="Helvetica,sans-Serif" font-size="10.00"> goto_functiont &gt;</text>
</a>
</g>
</g>
<!-- Node10&#45;&gt;Node9 -->
<g id="edge11" class="edge">
<title>Node10&#45;&gt;Node9</title>
<path fill="none" stroke="#9a32cd" stroke-dasharray="5,2" d="M1240.43,-150.73C1271.46,-154.21 1307.92,-158.3 1335.93,-161.44"/>
<polygon fill="#9a32cd" stroke="#9a32cd" points="1240.46,-147.21 1230.13,-149.57 1239.68,-154.17 1240.46,-147.21"/>
<text text-anchor="middle" x="1283" y="-161.5" font-family="Helvetica,sans-Serif" font-size="10.00"> function_map</text>
</g>
<!-- Node11 -->
<g id="node11" class="node">
<title>Node11</title>
<g id="a_node11"><a xlink:href="classgoto__functiont.html" target="_top" xlink:title="A goto function, consisting of function body (see body) and parameter identifiers (see parameter_iden...">
<polygon fill="none" stroke="black" points="948,-57 948,-76 1035,-76 1035,-57 948,-57"/>
<text text-anchor="middle" x="991.5" y="-64" font-family="Helvetica,sans-Serif" font-size="10.00">goto_functiont</text>
</a>
</g>
</g>
<!-- Node11&#45;&gt;Node10 -->
<g id="edge12" class="edge">
<title>Node11&#45;&gt;Node10</title>
<path fill="none" stroke="#9a32cd" stroke-dasharray="5,2" d="M1031.32,-79.36C1052.47,-86.69 1078.95,-96.41 1102,-106.5 1117.06,-113.09 1133.4,-121.39 1146.69,-128.45"/>
<polygon fill="#9a32cd" stroke="#9a32cd" points="1032.3,-75.99 1021.71,-76.06 1030.03,-82.62 1032.3,-75.99"/>
<text text-anchor="middle" x="1077.5" y="-109.5" font-family="Helvetica,sans-Serif" font-size="10.00"> elements</text>
</g>
<!-- Node12 -->
<g id="node12" class="node">
<title>Node12</title>
<g id="a_node12"><a xlink:title=" ">
<polygon fill="none" stroke="#bfbfbf" points="645,-57 645,-76 773,-76 773,-57 645,-57"/>
<text text-anchor="middle" x="709" y="-64" font-family="Helvetica,sans-Serif" font-size="10.00">std::vector&lt; irep_idt &gt;</text>
</a>
</g>
</g>
<!-- Node12&#45;&gt;Node11 -->
<g id="edge13" class="edge">
<title>Node12&#45;&gt;Node11</title>
<path fill="none" stroke="#9a32cd" stroke-dasharray="5,2" d="M783.54,-66.5C835.86,-66.5 904.34,-66.5 947.89,-66.5"/>
<polygon fill="#9a32cd" stroke="#9a32cd" points="783.3,-63 773.3,-66.5 783.3,-70 783.3,-63"/>
<text text-anchor="middle" x="860.5" y="-69.5" font-family="Helvetica,sans-Serif" font-size="10.00"> parameter_identifiers</text>
</g>
<!-- Node13 -->
<g id="node13" class="node">
<title>Node13</title>
<g id="a_node13"><a xlink:href="classdstringt.html" target="_top" xlink:title="dstringt has one field, an unsigned integer no which is an index into a static table of strings.">
<polygon fill="none" stroke="black" points="389.5,-128 389.5,-147 443.5,-147 443.5,-128 389.5,-128"/>
<text text-anchor="middle" x="416.5" y="-135" font-family="Helvetica,sans-Serif" font-size="10.00">dstringt</text>
</a>
</g>
</g>
<!-- Node13&#45;&gt;Node10 -->
<g id="edge22" class="edge">
<title>Node13&#45;&gt;Node10</title>
<path fill="none" stroke="#9a32cd" stroke-dasharray="5,2" d="M453.86,-137.79C576.32,-138.76 974.18,-141.92 1119.89,-143.07"/>
<polygon fill="#9a32cd" stroke="#9a32cd" points="453.57,-134.29 443.54,-137.71 453.51,-141.29 453.57,-134.29"/>
<text text-anchor="middle" x="860.5" y="-144.5" font-family="Helvetica,sans-Serif" font-size="10.00"> keys</text>
</g>
<!-- Node13&#45;&gt;Node12 -->
<g id="edge14" class="edge">
<title>Node13&#45;&gt;Node12</title>
<path fill="none" stroke="#9a32cd" stroke-dasharray="5,2" d="M453.67,-132.92C463.81,-130.13 474.19,-125.66 482,-118.5 498.18,-103.66 482.05,-85.14 500,-72.5 522.56,-56.62 592.25,-57.55 644.8,-60.89"/>
<polygon fill="#9a32cd" stroke="#9a32cd" points="452.68,-129.56 443.71,-135.19 454.23,-136.38 452.68,-129.56"/>
<text text-anchor="middle" x="563.5" y="-75.5" font-family="Helvetica,sans-Serif" font-size="10.00"> elements</text>
</g>
<!-- Node29 -->
<g id="node20" class="node">
<title>Node29</title>
<g id="a_node20"><a xlink:title=" ">
<polygon fill="none" stroke="#bfbfbf" points="654,-163.5 654,-193.5 764,-193.5 764,-163.5 654,-163.5"/>
<text text-anchor="start" x="662" y="-181.5" font-family="Helvetica,sans-Serif" font-size="10.00">std::map&lt; irep_idt,</text>
<text text-anchor="middle" x="709" y="-170.5" font-family="Helvetica,sans-Serif" font-size="10.00"> differencest &gt;</text>
</a>
</g>
</g>
<!-- Node13&#45;&gt;Node29 -->
<g id="edge27" class="edge">
<title>Node13&#45;&gt;Node29</title>
<path fill="none" stroke="#9a32cd" stroke-dasharray="5,2" d="M453.62,-142.6C503.94,-149.7 595.54,-162.63 653.99,-170.88"/>
<polygon fill="#9a32cd" stroke="#9a32cd" points="453.93,-139.11 443.54,-141.17 452.95,-146.04 453.93,-139.11"/>
<text text-anchor="middle" x="563.5" y="-168.5" font-family="Helvetica,sans-Serif" font-size="10.00"> keys</text>
</g>
<!-- Node14&#45;&gt;Node12 -->
<g id="edge15" class="edge">
<title>Node14&#45;&gt;Node12</title>
<path fill="none" stroke="orange" stroke-dasharray="5,2" d="M433.65,-82.54C449.07,-67.68 473.78,-47.14 500,-38.5 553.61,-20.83 571.34,-29.15 627,-38.5 647.84,-42 670.48,-50.23 686.51,-56.87"/>
<polygon fill="orange" stroke="orange" points="431.08,-80.16 426.48,-89.7 436.03,-85.11 431.08,-80.16"/>
<text text-anchor="middle" x="563.5" y="-41.5" font-family="Helvetica,sans-Serif" font-size="10.00"> &lt; irep_idt &gt;</text>
</g>
<!-- Node14&#45;&gt;Node29 -->
<g id="edge28" class="edge">
<title>Node14&#45;&gt;Node29</title>
<path fill="none" stroke="#9a32cd" stroke-dasharray="5,2" d="M475.16,-103.94C517.97,-108.48 577.29,-117.39 627,-134.5 647.73,-141.64 669.47,-153.74 685.2,-163.44"/>
<polygon fill="#9a32cd" stroke="#9a32cd" points="475.5,-100.46 465.2,-102.94 474.8,-107.43 475.5,-100.46"/>
<text text-anchor="middle" x="563.5" y="-137.5" font-family="Helvetica,sans-Serif" font-size="10.00"> elements</text>
</g>
<!-- Node15 -->
<g id="node15" class="node">
<title>Node15</title>
<g id="a_node15"><a xlink:href="classgoto__programt.html" target="_top" xlink:title="A generic container class for the GOTO intermediate representation of one function.">
<polygon fill="none" stroke="black" points="664.5,-9 664.5,-28 753.5,-28 753.5,-9 664.5,-9"/>
<text text-anchor="middle" x="709" y="-16" font-family="Helvetica,sans-Serif" font-size="10.00">goto_programt</text>
</a>
</g>
</g>
<!-- Node15&#45;&gt;Node11 -->
<g id="edge17" class="edge">
<title>Node15&#45;&gt;Node11</title>
<path fill="none" stroke="#9a32cd" stroke-dasharray="5,2" d="M763.68,-25.12C808.37,-30.97 873.59,-40.3 930,-51.5 937.96,-53.08 946.45,-55.02 954.47,-56.98"/>
<polygon fill="#9a32cd" stroke="#9a32cd" points="763.99,-21.63 753.62,-23.81 763.09,-28.57 763.99,-21.63"/>
<text text-anchor="middle" x="860.5" y="-54.5" font-family="Helvetica,sans-Serif" font-size="10.00"> body</text>
</g>
<!-- Node16 -->
<g id="node16" class="node">
<title>Node16</title>
<g id="a_node16"><a xlink:title=" ">
<polygon fill="none" stroke="#bfbfbf" points="351,-6 351,-25 482,-25 482,-6 351,-6"/>
<text text-anchor="middle" x="416.5" y="-13" font-family="Helvetica,sans-Serif" font-size="10.00">std::list&lt; instructiont &gt;</text>
</a>
</g>
</g>
<!-- Node16&#45;&gt;Node15 -->
<g id="edge18" class="edge">
<title>Node16&#45;&gt;Node15</title>
<path fill="none" stroke="#9a32cd" stroke-dasharray="5,2" d="M492.33,-5.08C494.91,-4.86 497.48,-4.67 500,-4.5 556.32,-0.76 570.76,0.32 627,-4.5 639.23,-5.55 652.38,-7.47 664.46,-9.57"/>
<polygon fill="#9a32cd" stroke="#9a32cd" points="491.89,-1.61 482.27,-6.04 492.56,-8.58 491.89,-1.61"/>
<text text-anchor="middle" x="563.5" y="-7.5" font-family="Helvetica,sans-Serif" font-size="10.00"> instructions</text>
</g>
<!-- Node17 -->
<g id="node17" class="node">
<title>Node17</title>
<g id="a_node17"><a xlink:href="structstatement__list__parse__treet_1_1instructiont.html" target="_top" xlink:title="Represents a regular Statement List instruction which consists out of one or more codet tokens.">
<polygon fill="none" stroke="red" points="114,-0.5 114,-30.5 233,-30.5 233,-0.5 114,-0.5"/>
<text text-anchor="start" x="122" y="-18.5" font-family="Helvetica,sans-Serif" font-size="10.00">statement_list_parse</text>
<text text-anchor="middle" x="173.5" y="-7.5" font-family="Helvetica,sans-Serif" font-size="10.00">_treet::instructiont</text>
</a>
</g>
</g>
<!-- Node17&#45;&gt;Node16 -->
<g id="edge19" class="edge">
<title>Node17&#45;&gt;Node16</title>
<path fill="none" stroke="#9a32cd" stroke-dasharray="5,2" d="M243.38,-15.5C277.11,-15.5 317.48,-15.5 350.64,-15.5"/>
<polygon fill="#9a32cd" stroke="#9a32cd" points="243.15,-12 233.15,-15.5 243.15,-19 243.15,-12"/>
<text text-anchor="middle" x="292" y="-18.5" font-family="Helvetica,sans-Serif" font-size="10.00"> elements</text>
</g>
<!-- Node27&#45;&gt;Node16 -->
<g id="edge20" class="edge">
<title>Node27&#45;&gt;Node16</title>
<path fill="none" stroke="orange" stroke-dasharray="5,2" d="M224.04,-51.25C264.95,-43.61 322.8,-32.81 364.18,-25.08"/>
<polygon fill="orange" stroke="orange" points="223.21,-47.84 214.03,-53.12 224.5,-54.72 223.21,-47.84"/>
<text text-anchor="middle" x="292" y="-49.5" font-family="Helvetica,sans-Serif" font-size="10.00"> &lt; instructiont &gt;</text>
</g>
<!-- Node28&#45;&gt;Node10 -->
<g id="edge23" class="edge">
<title>Node28&#45;&gt;Node10</title>
<path fill="none" stroke="orange" stroke-dasharray="5,2" d="M477.16,-203.78C484.84,-204.49 492.6,-205.1 500,-205.5 556.36,-208.57 570.56,-205.89 627,-205.5 691.89,-205.06 708.31,-208.64 773,-203.5 920.31,-191.8 956,-178.31 1102,-155.5 1107.76,-154.6 1113.77,-153.64 1119.77,-152.66"/>
<polygon fill="orange" stroke="orange" points="477.46,-200.3 467.16,-202.8 476.77,-207.26 477.46,-200.3"/>
<text text-anchor="middle" x="860.5" y="-204.5" font-family="Helvetica,sans-Serif" font-size="10.00"> &lt; irep_idt, goto_functiont &gt;</text>
</g>
<!-- Node28&#45;&gt;Node29 -->
<g id="edge29" class="edge">
<title>Node28&#45;&gt;Node29</title>
<path fill="none" stroke="orange" stroke-dasharray="5,2" d="M477.16,-192.8C529,-189.59 603.45,-184.98 653.66,-181.87"/>
<polygon fill="orange" stroke="orange" points="476.87,-189.31 467.11,-193.43 477.31,-196.3 476.87,-189.31"/>
<text text-anchor="middle" x="563.5" y="-193.5" font-family="Helvetica,sans-Serif" font-size="10.00"> &lt; irep_idt, differencest &gt;</text>
</g>
<!-- Node29&#45;&gt;Node1 -->
<g id="edge26" class="edge">
<title>Node29&#45;&gt;Node1</title>
<path fill="none" stroke="#9a32cd" stroke-dasharray="5,2" d="M774.2,-186.67C847.27,-195.24 970.28,-207.5 1076.5,-207.5 1076.5,-207.5 1076.5,-207.5 1383,-207.5 1445.89,-207.5 1519.14,-207.5 1561.86,-207.5"/>
<polygon fill="#9a32cd" stroke="#9a32cd" points="774.57,-183.19 764.23,-185.48 773.74,-190.14 774.57,-183.19"/>
<text text-anchor="middle" x="1175" y="-210.5" font-family="Helvetica,sans-Serif" font-size="10.00"> differences_map_</text>
</g>
</g>
</svg>
