<?xml version="1.0" encoding="UTF-8" standalone="no"?>
<!DOCTYPE svg PUBLIC "-//W3C//DTD SVG 1.1//EN"
 "http://www.w3.org/Graphics/SVG/1.1/DTD/svg11.dtd">
<!-- Generated by graphviz version 2.43.0 (0)
 -->
<!-- Title: functions_in_scope_visitort Pages: 1 -->
<svg width="1598pt" height="254pt"
 viewBox="0.00 0.00 1598.00 253.96" xmlns="http://www.w3.org/2000/svg" xmlns:xlink="http://www.w3.org/1999/xlink">
<g id="graph0" class="graph" transform="scale(1 1) rotate(0) translate(4 249.96)">
<title>functions_in_scope_visitort</title>
<!-- Node1 -->
<g id="node1" class="node">
<title>Node1</title>
<g id="a_node1"><a xlink:title="Predicate to be used with the exprt::visit() function.">
<polygon fill="#bfbfbf" stroke="black" points="1480,-105.96 1480,-135.96 1590,-135.96 1590,-105.96 1480,-105.96"/>
<text text-anchor="start" x="1488" y="-123.96" font-family="Helvetica,sans-Serif" font-size="10.00">functions_in_scope</text>
<text text-anchor="middle" x="1535" y="-112.96" font-family="Helvetica,sans-Serif" font-size="10.00">_visitort</text>
</a>
</g>
</g>
<!-- Node2 -->
<g id="node2" class="node">
<title>Node2</title>
<g id="a_node2"><a xlink:href="classmessage__handlert.html" target="_top" xlink:title=" ">
<polygon fill="none" stroke="black" points="747,-218.46 747,-237.46 854,-237.46 854,-218.46 747,-218.46"/>
<text text-anchor="middle" x="800.5" y="-225.46" font-family="Helvetica,sans-Serif" font-size="10.00">message_handlert</text>
</a>
</g>
</g>
<!-- Node2&#45;&gt;Node1 -->
<g id="edge1" class="edge">
<title>Node2&#45;&gt;Node1</title>
<path fill="none" stroke="#9a32cd" stroke-dasharray="5,2" d="M864.37,-219.02C907.17,-213.69 965.14,-207.96 1016.5,-207.96 1016.5,-207.96 1016.5,-207.96 1323,-207.96 1397.49,-207.96 1476.37,-161.04 1513.01,-136.11"/>
<polygon fill="#9a32cd" stroke="#9a32cd" points="863.86,-215.55 854.39,-220.29 864.75,-222.5 863.86,-215.55"/>
<text text-anchor="middle" x="1115" y="-210.96" font-family="Helvetica,sans-Serif" font-size="10.00"> message_handler</text>
</g>
<!-- Node3 -->
<g id="node3" class="node">
<title>Node3</title>
<g id="a_node3"><a xlink:title=" ">
<polygon fill="none" stroke="#bfbfbf" points="329,-226.46 329,-245.46 469,-245.46 469,-226.46 329,-226.46"/>
<text text-anchor="middle" x="399" y="-233.46" font-family="Helvetica,sans-Serif" font-size="10.00">std::vector&lt; std::size_t &gt;</text>
</a>
</g>
</g>
<!-- Node3&#45;&gt;Node2 -->
<g id="edge2" class="edge">
<title>Node3&#45;&gt;Node2</title>
<path fill="none" stroke="#9a32cd" stroke-dasharray="5,2" d="M479.57,-234.37C558.92,-232.78 678.56,-230.38 746.82,-229.02"/>
<polygon fill="#9a32cd" stroke="#9a32cd" points="479.06,-230.88 469.13,-234.58 479.2,-237.88 479.06,-230.88"/>
<text text-anchor="middle" x="527" y="-236.96" font-family="Helvetica,sans-Serif" font-size="10.00"> message_count</text>
</g>
<!-- Node4 -->
<g id="node4" class="node">
<title>Node4</title>
<g id="a_node4"><a xlink:title=" ">
<polygon fill="none" stroke="#bfbfbf" points="114,-176.46 114,-195.46 211,-195.46 211,-176.46 114,-176.46"/>
<text text-anchor="middle" x="162.5" y="-183.46" font-family="Helvetica,sans-Serif" font-size="10.00">std::vector&lt; T &gt;</text>
</a>
</g>
</g>
<!-- Node4&#45;&gt;Node3 -->
<g id="edge3" class="edge">
<title>Node4&#45;&gt;Node3</title>
<path fill="none" stroke="orange" stroke-dasharray="5,2" d="M198.21,-198.77C208.06,-202.09 218.87,-205.44 229,-207.96 261.47,-216.05 298.03,-222.43 328.83,-227.05"/>
<polygon fill="orange" stroke="orange" points="199.32,-195.45 188.73,-195.49 197.03,-202.06 199.32,-195.45"/>
<text text-anchor="middle" x="270" y="-225.96" font-family="Helvetica,sans-Serif" font-size="10.00"> &lt; std::size_t &gt;</text>
</g>
<!-- Node13 -->
<g id="node13" class="node">
<title>Node13</title>
<g id="a_node13"><a xlink:title=" ">
<polygon fill="none" stroke="#bfbfbf" points="585,-149.46 585,-168.46 713,-168.46 713,-149.46 585,-149.46"/>
<text text-anchor="middle" x="649" y="-156.46" font-family="Helvetica,sans-Serif" font-size="10.00">std::vector&lt; irep_idt &gt;</text>
</a>
</g>
</g>
<!-- Node4&#45;&gt;Node13 -->
<g id="edge14" class="edge">
<title>Node4&#45;&gt;Node13</title>
<path fill="none" stroke="orange" stroke-dasharray="5,2" d="M221.21,-178.54C252.96,-174.74 293.09,-170.42 329,-167.96 417.72,-161.89 520.58,-159.9 584.98,-159.25"/>
<polygon fill="orange" stroke="orange" points="220.72,-175.07 211.21,-179.75 221.56,-182.02 220.72,-175.07"/>
<text text-anchor="middle" x="399" y="-170.96" font-family="Helvetica,sans-Serif" font-size="10.00"> &lt; irep_idt &gt;</text>
</g>
<!-- Node15 -->
<g id="node15" class="node">
<title>Node15</title>
<g id="a_node15"><a xlink:title=" ">
<polygon fill="none" stroke="#bfbfbf" points="333.5,-188.46 333.5,-207.46 464.5,-207.46 464.5,-188.46 333.5,-188.46"/>
<text text-anchor="middle" x="399" y="-195.46" font-family="Helvetica,sans-Serif" font-size="10.00">std::list&lt; instructiont &gt;</text>
</a>
</g>
</g>
<!-- Node4&#45;&gt;Node15 -->
<g id="edge17" class="edge">
<title>Node4&#45;&gt;Node15</title>
<path fill="none" stroke="#9a32cd" stroke-dasharray="5,2" d="M221.47,-188.93C255.43,-190.66 298.4,-192.86 333.44,-194.66"/>
<polygon fill="#9a32cd" stroke="#9a32cd" points="221.4,-185.42 211.24,-188.4 221.05,-192.41 221.4,-185.42"/>
<text text-anchor="middle" x="270" y="-195.96" font-family="Helvetica,sans-Serif" font-size="10.00"> elements</text>
</g>
<!-- Node5 -->
<g id="node5" class="node">
<title>Node5</title>
<g id="a_node5"><a xlink:title=" ">
<polygon fill="none" stroke="#bfbfbf" points="0,-129.46 0,-148.46 29,-148.46 29,-129.46 0,-129.46"/>
<text text-anchor="middle" x="14.5" y="-136.46" font-family="Helvetica,sans-Serif" font-size="10.00">T</text>
</a>
</g>
</g>
<!-- Node5&#45;&gt;Node4 -->
<g id="edge4" class="edge">
<title>Node5&#45;&gt;Node4</title>
<path fill="none" stroke="#9a32cd" stroke-dasharray="5,2" d="M38.46,-149.6C41.31,-150.79 44.21,-151.94 47,-152.96 72.07,-162.1 100.95,-170.4 123.43,-176.4"/>
<polygon fill="#9a32cd" stroke="#9a32cd" points="39.7,-146.32 29.13,-145.51 36.88,-152.73 39.7,-146.32"/>
<text text-anchor="middle" x="71.5" y="-170.96" font-family="Helvetica,sans-Serif" font-size="10.00"> elements</text>
</g>
<!-- Node16 -->
<g id="node16" class="node">
<title>Node16</title>
<g id="a_node16"><a xlink:title=" ">
<polygon fill="none" stroke="#bfbfbf" points="122,-129.46 122,-148.46 203,-148.46 203,-129.46 122,-129.46"/>
<text text-anchor="middle" x="162.5" y="-136.46" font-family="Helvetica,sans-Serif" font-size="10.00">std::list&lt; T &gt;</text>
</a>
</g>
</g>
<!-- Node5&#45;&gt;Node16 -->
<g id="edge19" class="edge">
<title>Node5&#45;&gt;Node16</title>
<path fill="none" stroke="#9a32cd" stroke-dasharray="5,2" d="M39.5,-138.96C61.86,-138.96 95.62,-138.96 121.96,-138.96"/>
<polygon fill="#9a32cd" stroke="#9a32cd" points="39.24,-135.46 29.24,-138.96 39.24,-142.46 39.24,-135.46"/>
<text text-anchor="middle" x="71.5" y="-141.96" font-family="Helvetica,sans-Serif" font-size="10.00"> elements</text>
</g>
<!-- Node17 -->
<g id="node17" class="node">
<title>Node17</title>
<g id="a_node17"><a xlink:title=" ">
<polygon fill="none" stroke="#bfbfbf" points="348.5,-90.46 348.5,-109.46 449.5,-109.46 449.5,-90.46 348.5,-90.46"/>
<text text-anchor="middle" x="399" y="-97.46" font-family="Helvetica,sans-Serif" font-size="10.00">std::map&lt; K, T &gt;</text>
</a>
</g>
</g>
<!-- Node5&#45;&gt;Node17 -->
<g id="edge23" class="edge">
<title>Node5&#45;&gt;Node17</title>
<path fill="none" stroke="#9a32cd" stroke-dasharray="5,2" d="M38.89,-129.92C58.59,-122.77 87.69,-113.31 114,-108.96 195.28,-95.54 291.37,-95.8 348.36,-97.6"/>
<polygon fill="#9a32cd" stroke="#9a32cd" points="37.4,-126.74 29.25,-133.5 39.84,-133.3 37.4,-126.74"/>
<text text-anchor="middle" x="162.5" y="-111.96" font-family="Helvetica,sans-Serif" font-size="10.00"> elements</text>
</g>
<!-- Node6 -->
<g id="node6" class="node">
<title>Node6</title>
<g id="a_node6"><a xlink:title=" ">
<polygon fill="none" stroke="#bfbfbf" points="592.5,-14.46 592.5,-33.46 705.5,-33.46 705.5,-14.46 592.5,-14.46"/>
<text text-anchor="middle" x="649" y="-21.46" font-family="Helvetica,sans-Serif" font-size="10.00">std::set&lt; dstringt &gt;</text>
</a>
</g>
</g>
<!-- Node6&#45;&gt;Node1 -->
<g id="edge5" class="edge">
<title>Node6&#45;&gt;Node1</title>
<path fill="none" stroke="#9a32cd" stroke-dasharray="5,2" d="M715.9,-23.96C772.74,-23.96 857.03,-23.96 930.5,-23.96 930.5,-23.96 930.5,-23.96 1323,-23.96 1400.41,-23.96 1480.39,-78.52 1515.55,-105.8"/>
<polygon fill="#9a32cd" stroke="#9a32cd" points="715.62,-20.46 705.62,-23.96 715.62,-27.46 715.62,-20.46"/>
<text text-anchor="middle" x="1115" y="-26.96" font-family="Helvetica,sans-Serif" font-size="10.00"> function_set</text>
</g>
<!-- Node7 -->
<g id="node7" class="node">
<title>Node7</title>
<g id="a_node7"><a xlink:href="classdstringt.html" target="_top" xlink:title="dstringt has one field, an unsigned integer no which is an index into a static table of strings.">
<polygon fill="none" stroke="black" points="372,-52.46 372,-71.46 426,-71.46 426,-52.46 372,-52.46"/>
<text text-anchor="middle" x="399" y="-59.46" font-family="Helvetica,sans-Serif" font-size="10.00">dstringt</text>
</a>
</g>
</g>
<!-- Node7&#45;&gt;Node6 -->
<g id="edge6" class="edge">
<title>Node7&#45;&gt;Node6</title>
<path fill="none" stroke="#9a32cd" stroke-dasharray="5,2" d="M436.05,-49.85C451.56,-45.1 470.01,-40.06 487,-36.96 521.62,-30.65 560.99,-27.41 592.13,-25.73"/>
<polygon fill="#9a32cd" stroke="#9a32cd" points="434.82,-46.57 426.33,-52.91 436.92,-53.25 434.82,-46.57"/>
<text text-anchor="middle" x="527" y="-39.96" font-family="Helvetica,sans-Serif" font-size="10.00"> keys</text>
</g>
<!-- Node11 -->
<g id="node11" class="node">
<title>Node11</title>
<g id="a_node11"><a xlink:title=" ">
<polygon fill="none" stroke="#bfbfbf" points="1060,-105.96 1060,-135.96 1170,-135.96 1170,-105.96 1060,-105.96"/>
<text text-anchor="start" x="1068" y="-123.96" font-family="Helvetica,sans-Serif" font-size="10.00">std::map&lt; irep_idt,</text>
<text text-anchor="middle" x="1115" y="-112.96" font-family="Helvetica,sans-Serif" font-size="10.00"> goto_functiont &gt;</text>
</a>
</g>
</g>
<!-- Node7&#45;&gt;Node11 -->
<g id="edge20" class="edge">
<title>Node7&#45;&gt;Node11</title>
<path fill="none" stroke="#9a32cd" stroke-dasharray="5,2" d="M436.48,-64.98C553.62,-74.65 920.6,-104.98 1059.76,-116.48"/>
<polygon fill="#9a32cd" stroke="#9a32cd" points="436.51,-61.47 426.26,-64.13 435.94,-68.44 436.51,-61.47"/>
<text text-anchor="middle" x="800.5" y="-103.96" font-family="Helvetica,sans-Serif" font-size="10.00"> keys</text>
</g>
<!-- Node7&#45;&gt;Node13 -->
<g id="edge13" class="edge">
<title>Node7&#45;&gt;Node13</title>
<path fill="none" stroke="#9a32cd" stroke-dasharray="5,2" d="M436.05,-70.85C446.75,-73.76 458.44,-77.23 469,-80.96 528.45,-101.98 596,-133.63 628.5,-149.37"/>
<polygon fill="#9a32cd" stroke="#9a32cd" points="436.72,-67.4 426.16,-68.23 434.93,-74.17 436.72,-67.4"/>
<text text-anchor="middle" x="527" y="-121.96" font-family="Helvetica,sans-Serif" font-size="10.00"> elements</text>
</g>
<!-- Node8 -->
<g id="node8" class="node">
<title>Node8</title>
<g id="a_node8"><a xlink:title=" ">
<polygon fill="none" stroke="#bfbfbf" points="358,-3.46 358,-22.46 440,-22.46 440,-3.46 358,-3.46"/>
<text text-anchor="middle" x="399" y="-10.46" font-family="Helvetica,sans-Serif" font-size="10.00">std::set&lt; K &gt;</text>
</a>
</g>
</g>
<!-- Node8&#45;&gt;Node6 -->
<g id="edge7" class="edge">
<title>Node8&#45;&gt;Node6</title>
<path fill="none" stroke="orange" stroke-dasharray="5,2" d="M450.23,-5.09C483.47,-1.07 527.96,2.02 567,-2.96 584.44,-5.18 603.49,-10 618.73,-14.46"/>
<polygon fill="orange" stroke="orange" points="449.77,-1.62 440.3,-6.36 450.66,-8.56 449.77,-1.62"/>
<text text-anchor="middle" x="527" y="-5.96" font-family="Helvetica,sans-Serif" font-size="10.00"> &lt; dstringt &gt;</text>
</g>
<!-- Node9 -->
<g id="node9" class="node">
<title>Node9</title>
<g id="a_node9"><a xlink:title=" ">
<polygon fill="none" stroke="#bfbfbf" points="148,-17.46 148,-36.46 177,-36.46 177,-17.46 148,-17.46"/>
<text text-anchor="middle" x="162.5" y="-24.46" font-family="Helvetica,sans-Serif" font-size="10.00">K</text>
</a>
</g>
</g>
<!-- Node9&#45;&gt;Node8 -->
<g id="edge8" class="edge">
<title>Node9&#45;&gt;Node8</title>
<path fill="none" stroke="#9a32cd" stroke-dasharray="5,2" d="M187.26,-25.54C227.31,-23.15 308.68,-18.29 357.77,-15.36"/>
<polygon fill="#9a32cd" stroke="#9a32cd" points="186.89,-22.06 177.12,-26.15 187.31,-29.04 186.89,-22.06"/>
<text text-anchor="middle" x="270" y="-25.96" font-family="Helvetica,sans-Serif" font-size="10.00"> keys</text>
</g>
<!-- Node9&#45;&gt;Node17 -->
<g id="edge22" class="edge">
<title>Node9&#45;&gt;Node17</title>
<path fill="none" stroke="#9a32cd" stroke-dasharray="5,2" d="M187.02,-34.56C216.14,-43.98 267.26,-60.55 311,-74.96 319.01,-77.6 320.93,-78.51 329,-80.96 339.7,-84.21 351.4,-87.53 362.08,-90.46"/>
<polygon fill="#9a32cd" stroke="#9a32cd" points="187.93,-31.17 177.34,-31.43 185.78,-37.83 187.93,-31.17"/>
<text text-anchor="middle" x="270" y="-77.96" font-family="Helvetica,sans-Serif" font-size="10.00"> keys</text>
</g>
<!-- Node10 -->
<g id="node10" class="node">
<title>Node10</title>
<g id="a_node10"><a xlink:href="classgoto__functionst.html" target="_top" xlink:title="A collection of goto functions.">
<polygon fill="none" stroke="black" points="1276,-111.46 1276,-130.46 1368,-130.46 1368,-111.46 1276,-111.46"/>
<text text-anchor="middle" x="1322" y="-118.46" font-family="Helvetica,sans-Serif" font-size="10.00">goto_functionst</text>
</a>
</g>
</g>
<!-- Node10&#45;&gt;Node1 -->
<g id="edge9" class="edge">
<title>Node10&#45;&gt;Node1</title>
<path fill="none" stroke="#9a32cd" stroke-dasharray="5,2" d="M1378.3,-120.96C1409.6,-120.96 1448.58,-120.96 1479.71,-120.96"/>
<polygon fill="#9a32cd" stroke="#9a32cd" points="1378.01,-117.46 1368.01,-120.96 1378.01,-124.46 1378.01,-117.46"/>
<text text-anchor="middle" x="1424" y="-123.96" font-family="Helvetica,sans-Serif" font-size="10.00"> goto_functions</text>
</g>
<!-- Node11&#45;&gt;Node10 -->
<g id="edge10" class="edge">
<title>Node11&#45;&gt;Node10</title>
<path fill="none" stroke="#9a32cd" stroke-dasharray="5,2" d="M1180.43,-120.96C1211.46,-120.96 1247.92,-120.96 1275.93,-120.96"/>
<polygon fill="#9a32cd" stroke="#9a32cd" points="1180.13,-117.46 1170.13,-120.96 1180.13,-124.46 1180.13,-117.46"/>
<text text-anchor="middle" x="1223" y="-123.96" font-family="Helvetica,sans-Serif" font-size="10.00"> function_map</text>
</g>
<!-- Node12 -->
<g id="node12" class="node">
<title>Node12</title>
<g id="a_node12"><a xlink:href="classgoto__functiont.html" target="_top" xlink:title="A goto function, consisting of function body (see body) and parameter identifiers (see parameter_iden...">
<polygon fill="none" stroke="black" points="888,-149.46 888,-168.46 975,-168.46 975,-149.46 888,-149.46"/>
<text text-anchor="middle" x="931.5" y="-156.46" font-family="Helvetica,sans-Serif" font-size="10.00">goto_functiont</text>
</a>
</g>
</g>
<!-- Node12&#45;&gt;Node11 -->
<g id="edge11" class="edge">
<title>Node12&#45;&gt;Node11</title>
<path fill="none" stroke="#9a32cd" stroke-dasharray="5,2" d="M984.87,-148C1008.43,-143.06 1036.23,-137.24 1059.99,-132.27"/>
<polygon fill="#9a32cd" stroke="#9a32cd" points="984.12,-144.58 975.05,-150.05 985.56,-151.43 984.12,-144.58"/>
<text text-anchor="middle" x="1017.5" y="-148.96" font-family="Helvetica,sans-Serif" font-size="10.00"> elements</text>
</g>
<!-- Node13&#45;&gt;Node12 -->
<g id="edge12" class="edge">
<title>Node13&#45;&gt;Node12</title>
<path fill="none" stroke="#9a32cd" stroke-dasharray="5,2" d="M723.54,-158.96C775.86,-158.96 844.34,-158.96 887.89,-158.96"/>
<polygon fill="#9a32cd" stroke="#9a32cd" points="723.3,-155.46 713.3,-158.96 723.3,-162.46 723.3,-155.46"/>
<text text-anchor="middle" x="800.5" y="-161.96" font-family="Helvetica,sans-Serif" font-size="10.00"> parameter_identifiers</text>
</g>
<!-- Node14 -->
<g id="node14" class="node">
<title>Node14</title>
<g id="a_node14"><a xlink:href="classgoto__programt.html" target="_top" xlink:title="A generic container class for the GOTO intermediate representation of one function.">
<polygon fill="none" stroke="black" points="604.5,-188.46 604.5,-207.46 693.5,-207.46 693.5,-188.46 604.5,-188.46"/>
<text text-anchor="middle" x="649" y="-195.46" font-family="Helvetica,sans-Serif" font-size="10.00">goto_programt</text>
</a>
</g>
</g>
<!-- Node14&#45;&gt;Node12 -->
<g id="edge15" class="edge">
<title>Node14&#45;&gt;Node12</title>
<path fill="none" stroke="#9a32cd" stroke-dasharray="5,2" d="M703.68,-193.59C748.37,-189.53 813.59,-182.66 870,-172.96 877.23,-171.72 884.88,-170.15 892.23,-168.51"/>
<polygon fill="#9a32cd" stroke="#9a32cd" points="703.27,-190.11 693.62,-194.48 703.89,-197.08 703.27,-190.11"/>
<text text-anchor="middle" x="800.5" y="-192.96" font-family="Helvetica,sans-Serif" font-size="10.00"> body</text>
</g>
<!-- Node15&#45;&gt;Node14 -->
<g id="edge16" class="edge">
<title>Node15&#45;&gt;Node14</title>
<path fill="none" stroke="#9a32cd" stroke-dasharray="5,2" d="M474.53,-197.96C516.96,-197.96 568.64,-197.96 604.5,-197.96"/>
<polygon fill="#9a32cd" stroke="#9a32cd" points="474.51,-194.46 464.51,-197.96 474.51,-201.46 474.51,-194.46"/>
<text text-anchor="middle" x="527" y="-200.96" font-family="Helvetica,sans-Serif" font-size="10.00"> instructions</text>
</g>
<!-- Node16&#45;&gt;Node15 -->
<g id="edge18" class="edge">
<title>Node16&#45;&gt;Node15</title>
<path fill="none" stroke="orange" stroke-dasharray="5,2" d="M212.83,-150.2C241.54,-156.85 278.39,-165.6 311,-173.96 328.76,-178.51 348.46,-183.92 364.61,-188.45"/>
<polygon fill="orange" stroke="orange" points="213.57,-146.77 203.04,-147.93 211.99,-153.59 213.57,-146.77"/>
<text text-anchor="middle" x="270" y="-176.96" font-family="Helvetica,sans-Serif" font-size="10.00"> &lt; instructiont &gt;</text>
</g>
<!-- Node17&#45;&gt;Node11 -->
<g id="edge21" class="edge">
<title>Node17&#45;&gt;Node11</title>
<path fill="none" stroke="orange" stroke-dasharray="5,2" d="M459.82,-105.23C468.92,-105.9 478.2,-106.51 487,-106.96 698.77,-117.83 951.2,-120.27 1059.87,-120.81"/>
<polygon fill="orange" stroke="orange" points="459.89,-101.73 449.66,-104.46 459.36,-108.71 459.89,-101.73"/>
<text text-anchor="middle" x="800.5" y="-121.96" font-family="Helvetica,sans-Serif" font-size="10.00"> &lt; irep_idt, goto_functiont &gt;</text>
</g>
</g>
</svg>
