<?xml version="1.0" encoding="UTF-8" standalone="no"?>
<!DOCTYPE svg PUBLIC "-//W3C//DTD SVG 1.1//EN"
 "http://www.w3.org/Graphics/SVG/1.1/DTD/svg11.dtd">
<!-- Generated by graphviz version 2.43.0 (0)
 -->
<!-- Title: /home/runner/work/cbmc/cbmc/src/util/cmdline.cpp Pages: 1 -->
<svg width="1268pt" height="431pt"
 viewBox="0.00 0.00 1267.50 431.00" xmlns="http://www.w3.org/2000/svg" xmlns:xlink="http://www.w3.org/1999/xlink">
<g id="graph0" class="graph" transform="scale(1 1) rotate(0) translate(4 427)">
<title>/home/runner/work/cbmc/cbmc/src/util/cmdline.cpp</title>
<!-- Node1 -->
<g id="node1" class="node">
<title>Node1</title>
<g id="a_node1"><a xlink:title=" ">
<polygon fill="#bfbfbf" stroke="black" points="431.5,-392.5 431.5,-422.5 575.5,-422.5 575.5,-392.5 431.5,-392.5"/>
<text text-anchor="start" x="439.5" y="-410.5" font-family="Helvetica,sans-Serif" font-size="10.00">/home/runner/work/cbmc</text>
<text text-anchor="middle" x="503.5" y="-399.5" font-family="Helvetica,sans-Serif" font-size="10.00">/cbmc/src/util/cmdline.cpp</text>
</a>
</g>
</g>
<!-- Node2 -->
<g id="node2" class="node">
<title>Node2</title>
<g id="a_node2"><a xlink:href="cmdline_8h.html" target="_top" xlink:title=" ">
<polygon fill="none" stroke="black" points="196,-112.5 196,-131.5 261,-131.5 261,-112.5 196,-112.5"/>
<text text-anchor="middle" x="228.5" y="-119.5" font-family="Helvetica,sans-Serif" font-size="10.00">cmdline.h</text>
</a>
</g>
</g>
<!-- Node1&#45;&gt;Node2 -->
<g id="edge1" class="edge">
<title>Node1&#45;&gt;Node2</title>
<path fill="none" stroke="midnightblue" d="M431.21,-398.27C367.75,-386.54 285.5,-358.35 285.5,-291 285.5,-291 285.5,-291 285.5,-233 285.5,-196.3 260.18,-159.66 243.29,-139.3"/>
<polygon fill="midnightblue" stroke="midnightblue" points="245.85,-136.9 236.67,-131.62 240.55,-141.48 245.85,-136.9"/>
</g>
<!-- Node9 -->
<g id="node9" class="node">
<title>Node9</title>
<g id="a_node9"><a xlink:href="edit__distance_8h.html" target="_top" xlink:title=" ">
<polygon fill="none" stroke="black" points="365.5,-112.5 365.5,-131.5 475.5,-131.5 475.5,-112.5 365.5,-112.5"/>
<text text-anchor="middle" x="420.5" y="-119.5" font-family="Helvetica,sans-Serif" font-size="10.00">util/edit_distance.h</text>
</a>
</g>
</g>
<!-- Node1&#45;&gt;Node9 -->
<g id="edge8" class="edge">
<title>Node1&#45;&gt;Node9</title>
<path fill="none" stroke="midnightblue" d="M490.48,-392.42C472.83,-371.8 443.5,-331.45 443.5,-291 443.5,-291 443.5,-291 443.5,-233 443.5,-200.12 433.53,-162.86 426.72,-141.24"/>
<polygon fill="midnightblue" stroke="midnightblue" points="430.04,-140.12 423.6,-131.71 423.39,-142.3 430.04,-140.12"/>
</g>
<!-- Node18 -->
<g id="node18" class="node">
<title>Node18</title>
<g id="a_node18"><a xlink:href="exception__utils_8h.html" target="_top" xlink:title=" ">
<polygon fill="none" stroke="black" points="855,-336.5 855,-355.5 974,-355.5 974,-336.5 855,-336.5"/>
<text text-anchor="middle" x="914.5" y="-343.5" font-family="Helvetica,sans-Serif" font-size="10.00">util/exception_utils.h</text>
</a>
</g>
</g>
<!-- Node1&#45;&gt;Node18 -->
<g id="edge21" class="edge">
<title>Node1&#45;&gt;Node18</title>
<path fill="none" stroke="midnightblue" d="M575.56,-396.07C651.53,-385.07 770.36,-367.87 845.25,-357.03"/>
<polygon fill="midnightblue" stroke="midnightblue" points="846.12,-360.44 855.52,-355.54 845.12,-353.51 846.12,-360.44"/>
</g>
<!-- Node19 -->
<g id="node19" class="node">
<title>Node19</title>
<g id="a_node19"><a xlink:href="src_2util_2invariant_8h.html" target="_top" xlink:title=" ">
<polygon fill="none" stroke="black" points="1123,-56.5 1123,-75.5 1192,-75.5 1192,-56.5 1123,-56.5"/>
<text text-anchor="middle" x="1157.5" y="-63.5" font-family="Helvetica,sans-Serif" font-size="10.00">invariant.h</text>
</a>
</g>
</g>
<!-- Node1&#45;&gt;Node19 -->
<g id="edge54" class="edge">
<title>Node1&#45;&gt;Node19</title>
<path fill="none" stroke="midnightblue" d="M575.83,-402.59C760.24,-391.64 1233.5,-357.12 1233.5,-291 1233.5,-291 1233.5,-291 1233.5,-177 1233.5,-137.28 1199.54,-101.5 1177.02,-82.15"/>
<polygon fill="midnightblue" stroke="midnightblue" points="1178.98,-79.24 1169.04,-75.57 1174.52,-84.63 1178.98,-79.24"/>
</g>
<!-- Node36 -->
<g id="node34" class="node">
<title>Node36</title>
<g id="a_node34"><a xlink:href="string__utils_8h.html" target="_top" xlink:title=" ">
<polygon fill="none" stroke="black" points="577.5,-56.5 577.5,-75.5 675.5,-75.5 675.5,-56.5 577.5,-56.5"/>
<text text-anchor="middle" x="626.5" y="-63.5" font-family="Helvetica,sans-Serif" font-size="10.00">util/string_utils.h</text>
</a>
</g>
</g>
<!-- Node1&#45;&gt;Node36 -->
<g id="edge55" class="edge">
<title>Node1&#45;&gt;Node36</title>
<path fill="none" stroke="midnightblue" d="M503.5,-392.28C503.5,-370.48 503.5,-327.49 503.5,-291 503.5,-291 503.5,-291 503.5,-177 503.5,-128.48 557.34,-96.01 593.77,-79.6"/>
<polygon fill="midnightblue" stroke="midnightblue" points="595.28,-82.76 603.08,-75.58 592.51,-76.33 595.28,-82.76"/>
</g>
<!-- Node3 -->
<g id="node3" class="node">
<title>Node3</title>
<g id="a_node3"><a xlink:title=" ">
<polygon fill="none" stroke="#bfbfbf" points="107.5,-56.5 107.5,-75.5 151.5,-75.5 151.5,-56.5 107.5,-56.5"/>
<text text-anchor="middle" x="129.5" y="-63.5" font-family="Helvetica,sans-Serif" font-size="10.00">limits</text>
</a>
</g>
</g>
<!-- Node2&#45;&gt;Node3 -->
<g id="edge2" class="edge">
<title>Node2&#45;&gt;Node3</title>
<path fill="none" stroke="midnightblue" d="M212.59,-112.32C196.86,-103.74 172.56,-90.49 154.29,-80.52"/>
<polygon fill="midnightblue" stroke="midnightblue" points="155.82,-77.37 145.37,-75.65 152.47,-83.52 155.82,-77.37"/>
</g>
<!-- Node4 -->
<g id="node4" class="node">
<title>Node4</title>
<g id="a_node4"><a xlink:title=" ">
<polygon fill="none" stroke="#bfbfbf" points="132.5,-0.5 132.5,-19.5 164.5,-19.5 164.5,-0.5 132.5,-0.5"/>
<text text-anchor="middle" x="148.5" y="-7.5" font-family="Helvetica,sans-Serif" font-size="10.00">list</text>
</a>
</g>
</g>
<!-- Node2&#45;&gt;Node4 -->
<g id="edge3" class="edge">
<title>Node2&#45;&gt;Node4</title>
<path fill="none" stroke="midnightblue" d="M222.22,-112.37C209.02,-94.22 178.17,-51.8 160.86,-27.99"/>
<polygon fill="midnightblue" stroke="midnightblue" points="163.46,-25.62 154.75,-19.59 157.8,-29.74 163.46,-25.62"/>
</g>
<!-- Node5 -->
<g id="node5" class="node">
<title>Node5</title>
<g id="a_node5"><a xlink:title=" ">
<polygon fill="none" stroke="#bfbfbf" points="852.5,-0.5 852.5,-19.5 896.5,-19.5 896.5,-0.5 852.5,-0.5"/>
<text text-anchor="middle" x="874.5" y="-7.5" font-family="Helvetica,sans-Serif" font-size="10.00">string</text>
</a>
</g>
</g>
<!-- Node2&#45;&gt;Node5 -->
<g id="edge4" class="edge">
<title>Node2&#45;&gt;Node5</title>
<path fill="none" stroke="midnightblue" d="M261.08,-118.77C351.34,-112.43 603.36,-93.63 684.5,-76 715.29,-69.31 797.31,-39.67 842.87,-22.82"/>
<polygon fill="midnightblue" stroke="midnightblue" points="844.12,-26.09 852.28,-19.33 841.69,-19.52 844.12,-26.09"/>
</g>
<!-- Node6 -->
<g id="node6" class="node">
<title>Node6</title>
<g id="a_node6"><a xlink:title=" ">
<polygon fill="none" stroke="#bfbfbf" points="614,-0.5 614,-19.5 661,-19.5 661,-0.5 614,-0.5"/>
<text text-anchor="middle" x="637.5" y="-7.5" font-family="Helvetica,sans-Serif" font-size="10.00">vector</text>
</a>
</g>
</g>
<!-- Node2&#45;&gt;Node6 -->
<g id="edge5" class="edge">
<title>Node2&#45;&gt;Node6</title>
<path fill="none" stroke="midnightblue" d="M261.11,-118.14C311.44,-113.12 410.69,-100.83 491.5,-76 512.03,-69.69 515.9,-64.78 535.5,-56 560.09,-44.99 588.1,-32.64 608.54,-23.67"/>
<polygon fill="midnightblue" stroke="midnightblue" points="610.16,-26.78 617.92,-19.56 607.35,-20.37 610.16,-26.78"/>
</g>
<!-- Node7 -->
<g id="node7" class="node">
<title>Node7</title>
<g id="a_node7"><a xlink:href="optional_8h.html" target="_top" xlink:title=" ">
<polygon fill="none" stroke="black" points="24,-56.5 24,-75.5 89,-75.5 89,-56.5 24,-56.5"/>
<text text-anchor="middle" x="56.5" y="-63.5" font-family="Helvetica,sans-Serif" font-size="10.00">optional.h</text>
</a>
</g>
</g>
<!-- Node2&#45;&gt;Node7 -->
<g id="edge6" class="edge">
<title>Node2&#45;&gt;Node7</title>
<path fill="none" stroke="midnightblue" d="M201.25,-112.44C172.06,-103.28 125.58,-88.69 93.19,-78.52"/>
<polygon fill="midnightblue" stroke="midnightblue" points="94.22,-75.17 83.63,-75.52 92.12,-81.85 94.22,-75.17"/>
</g>
<!-- Node8 -->
<g id="node8" class="node">
<title>Node8</title>
<g id="a_node8"><a xlink:title=" ">
<polygon fill="none" stroke="#bfbfbf" points="0,-0.5 0,-19.5 113,-19.5 113,-0.5 0,-0.5"/>
<text text-anchor="middle" x="56.5" y="-7.5" font-family="Helvetica,sans-Serif" font-size="10.00">nonstd/optional.hpp</text>
</a>
</g>
</g>
<!-- Node7&#45;&gt;Node8 -->
<g id="edge7" class="edge">
<title>Node7&#45;&gt;Node8</title>
<path fill="none" stroke="midnightblue" d="M56.5,-56.08C56.5,-49.01 56.5,-38.86 56.5,-29.99"/>
<polygon fill="midnightblue" stroke="midnightblue" points="60,-29.75 56.5,-19.75 53,-29.75 60,-29.75"/>
</g>
<!-- Node9&#45;&gt;Node5 -->
<g id="edge19" class="edge">
<title>Node9&#45;&gt;Node5</title>
<path fill="none" stroke="midnightblue" d="M475.57,-116.06C556.84,-108.36 704.76,-92.63 755.5,-76 792.27,-63.95 830.87,-40.58 853.8,-25.39"/>
<polygon fill="midnightblue" stroke="midnightblue" points="856.01,-28.13 862.34,-19.63 852.09,-22.32 856.01,-28.13"/>
</g>
<!-- Node9&#45;&gt;Node7 -->
<g id="edge20" class="edge">
<title>Node9&#45;&gt;Node7</title>
<path fill="none" stroke="midnightblue" d="M365.33,-114.52C303.12,-106.94 198.74,-93.39 98.96,-75.96"/>
<polygon fill="midnightblue" stroke="midnightblue" points="99.47,-72.5 89.01,-74.21 98.25,-79.39 99.47,-72.5"/>
</g>
<!-- Node10 -->
<g id="node10" class="node">
<title>Node10</title>
<g id="a_node10"><a xlink:href="nfa_8h.html" target="_top" xlink:title=" ">
<polygon fill="none" stroke="black" points="442,-56.5 442,-75.5 483,-75.5 483,-56.5 442,-56.5"/>
<text text-anchor="middle" x="462.5" y="-63.5" font-family="Helvetica,sans-Serif" font-size="10.00">nfa.h</text>
</a>
</g>
</g>
<!-- Node9&#45;&gt;Node10 -->
<g id="edge9" class="edge">
<title>Node9&#45;&gt;Node10</title>
<path fill="none" stroke="midnightblue" d="M427.44,-112.08C433.43,-104.38 442.25,-93.03 449.55,-83.65"/>
<polygon fill="midnightblue" stroke="midnightblue" points="452.32,-85.79 455.69,-75.75 446.79,-81.5 452.32,-85.79"/>
</g>
<!-- Node12 -->
<g id="node12" class="node">
<title>Node12</title>
<g id="a_node12"><a xlink:title=" ">
<polygon fill="none" stroke="#bfbfbf" points="183,-0.5 183,-19.5 236,-19.5 236,-0.5 183,-0.5"/>
<text text-anchor="middle" x="209.5" y="-7.5" font-family="Helvetica,sans-Serif" font-size="10.00">cstddef</text>
</a>
</g>
</g>
<!-- Node9&#45;&gt;Node12 -->
<g id="edge18" class="edge">
<title>Node9&#45;&gt;Node12</title>
<path fill="none" stroke="midnightblue" d="M365.47,-120.32C325.44,-117.05 272.21,-106.6 236.5,-76 222.75,-64.22 215.87,-44.29 212.51,-29.6"/>
<polygon fill="midnightblue" stroke="midnightblue" points="215.92,-28.76 210.58,-19.6 209.04,-30.09 215.92,-28.76"/>
</g>
<!-- Node10&#45;&gt;Node6 -->
<g id="edge17" class="edge">
<title>Node10&#45;&gt;Node6</title>
<path fill="none" stroke="midnightblue" d="M483.26,-58.59C513.09,-49.39 568.4,-32.32 604.04,-21.32"/>
<polygon fill="midnightblue" stroke="midnightblue" points="605.46,-24.55 613.98,-18.26 603.39,-17.86 605.46,-24.55"/>
</g>
<!-- Node11 -->
<g id="node11" class="node">
<title>Node11</title>
<g id="a_node11"><a xlink:title=" ">
<polygon fill="none" stroke="#bfbfbf" points="746.5,-0.5 746.5,-19.5 810.5,-19.5 810.5,-0.5 746.5,-0.5"/>
<text text-anchor="middle" x="778.5" y="-7.5" font-family="Helvetica,sans-Serif" font-size="10.00">algorithm</text>
</a>
</g>
</g>
<!-- Node10&#45;&gt;Node11 -->
<g id="edge10" class="edge">
<title>Node10&#45;&gt;Node11</title>
<path fill="none" stroke="midnightblue" d="M483.18,-61.95C528.96,-55.13 642.24,-37.83 736.5,-20 736.6,-19.98 736.7,-19.96 736.8,-19.94"/>
<polygon fill="midnightblue" stroke="midnightblue" points="737.3,-23.41 746.43,-18.04 735.94,-16.55 737.3,-23.41"/>
</g>
<!-- Node10&#45;&gt;Node12 -->
<g id="edge11" class="edge">
<title>Node10&#45;&gt;Node12</title>
<path fill="none" stroke="midnightblue" d="M441.92,-58.52C438.78,-57.62 435.56,-56.75 432.5,-56 352.94,-36.5 329.26,-38.42 246.1,-20.25"/>
<polygon fill="midnightblue" stroke="midnightblue" points="246.73,-16.8 236.21,-18.05 245.22,-23.63 246.73,-16.8"/>
</g>
<!-- Node13 -->
<g id="node13" class="node">
<title>Node13</title>
<g id="a_node13"><a xlink:title=" ">
<polygon fill="none" stroke="#bfbfbf" points="470,-0.5 470,-19.5 525,-19.5 525,-0.5 470,-0.5"/>
<text text-anchor="middle" x="497.5" y="-7.5" font-family="Helvetica,sans-Serif" font-size="10.00">fstream</text>
</a>
</g>
</g>
<!-- Node10&#45;&gt;Node13 -->
<g id="edge12" class="edge">
<title>Node10&#45;&gt;Node13</title>
<path fill="none" stroke="midnightblue" d="M468.28,-56.08C473.17,-48.53 480.33,-37.49 486.33,-28.23"/>
<polygon fill="midnightblue" stroke="midnightblue" points="489.33,-30.05 491.83,-19.75 483.45,-26.24 489.33,-30.05"/>
</g>
<!-- Node14 -->
<g id="node14" class="node">
<title>Node14</title>
<g id="a_node14"><a xlink:title=" ">
<polygon fill="none" stroke="#bfbfbf" points="679.5,-0.5 679.5,-19.5 727.5,-19.5 727.5,-0.5 679.5,-0.5"/>
<text text-anchor="middle" x="703.5" y="-7.5" font-family="Helvetica,sans-Serif" font-size="10.00">iosfwd</text>
</a>
</g>
</g>
<!-- Node10&#45;&gt;Node14 -->
<g id="edge13" class="edge">
<title>Node10&#45;&gt;Node14</title>
<path fill="none" stroke="midnightblue" d="M483.14,-60.83C520.45,-53.23 601.57,-36.37 669.5,-20 669.6,-19.98 669.7,-19.95 669.8,-19.93"/>
<polygon fill="midnightblue" stroke="midnightblue" points="670.54,-23.35 679.39,-17.53 668.84,-16.56 670.54,-23.35"/>
</g>
<!-- Node15 -->
<g id="node15" class="node">
<title>Node15</title>
<g id="a_node15"><a xlink:title=" ">
<polygon fill="none" stroke="#bfbfbf" points="543,-0.5 543,-19.5 596,-19.5 596,-0.5 543,-0.5"/>
<text text-anchor="middle" x="569.5" y="-7.5" font-family="Helvetica,sans-Serif" font-size="10.00">iterator</text>
</a>
</g>
</g>
<!-- Node10&#45;&gt;Node15 -->
<g id="edge14" class="edge">
<title>Node10&#45;&gt;Node15</title>
<path fill="none" stroke="midnightblue" d="M479.69,-56.32C496.85,-47.66 523.45,-34.24 543.25,-24.25"/>
<polygon fill="midnightblue" stroke="midnightblue" points="545,-27.28 552.35,-19.65 541.85,-21.04 545,-27.28"/>
</g>
<!-- Node16 -->
<g id="node16" class="node">
<title>Node16</title>
<g id="a_node16"><a xlink:title=" ">
<polygon fill="none" stroke="#bfbfbf" points="254,-0.5 254,-19.5 347,-19.5 347,-0.5 254,-0.5"/>
<text text-anchor="middle" x="300.5" y="-7.5" font-family="Helvetica,sans-Serif" font-size="10.00">unordered_map</text>
</a>
</g>
</g>
<!-- Node10&#45;&gt;Node16 -->
<g id="edge15" class="edge">
<title>Node10&#45;&gt;Node16</title>
<path fill="none" stroke="midnightblue" d="M441.98,-58.16C415.29,-49.26 368.22,-33.57 335.75,-22.75"/>
<polygon fill="midnightblue" stroke="midnightblue" points="336.78,-19.4 326.18,-19.56 334.56,-26.04 336.78,-19.4"/>
</g>
<!-- Node17 -->
<g id="node17" class="node">
<title>Node17</title>
<g id="a_node17"><a xlink:title=" ">
<polygon fill="none" stroke="#bfbfbf" points="365.5,-0.5 365.5,-19.5 451.5,-19.5 451.5,-0.5 365.5,-0.5"/>
<text text-anchor="middle" x="408.5" y="-7.5" font-family="Helvetica,sans-Serif" font-size="10.00">unordered_set</text>
</a>
</g>
</g>
<!-- Node10&#45;&gt;Node17 -->
<g id="edge16" class="edge">
<title>Node10&#45;&gt;Node17</title>
<path fill="none" stroke="midnightblue" d="M453.58,-56.08C445.72,-48.22 434.07,-36.57 424.58,-27.08"/>
<polygon fill="midnightblue" stroke="midnightblue" points="426.8,-24.35 417.25,-19.75 421.85,-29.3 426.8,-24.35"/>
</g>
<!-- Node18&#45;&gt;Node5 -->
<g id="edge22" class="edge">
<title>Node18&#45;&gt;Node5</title>
<path fill="none" stroke="midnightblue" d="M922.2,-336.28C936.91,-319.34 969.51,-280.43 991.5,-244 1022.4,-192.81 1030.39,-170.39 1017.5,-112 1011.58,-85.2 1011.55,-74.74 991.5,-56 967.88,-33.93 932.28,-22.32 906.56,-16.46"/>
<polygon fill="midnightblue" stroke="midnightblue" points="907.05,-12.99 896.54,-14.36 905.61,-19.84 907.05,-12.99"/>
</g>
<!-- Node18&#45;&gt;Node19 -->
<g id="edge23" class="edge">
<title>Node18&#45;&gt;Node19</title>
<path fill="none" stroke="midnightblue" d="M962.49,-336.45C1042.74,-320.77 1195.5,-284.44 1195.5,-235 1195.5,-235 1195.5,-235 1195.5,-177 1195.5,-142.81 1178.9,-105.76 1167.64,-84.57"/>
<polygon fill="midnightblue" stroke="midnightblue" points="1170.68,-82.83 1162.78,-75.77 1164.55,-86.22 1170.68,-82.83"/>
</g>
<!-- Node23 -->
<g id="node23" class="node">
<title>Node23</title>
<g id="a_node23"><a xlink:href="source__location_8h.html" target="_top" xlink:title=" ">
<polygon fill="none" stroke="black" points="824.5,-280.5 824.5,-299.5 926.5,-299.5 926.5,-280.5 824.5,-280.5"/>
<text text-anchor="middle" x="875.5" y="-287.5" font-family="Helvetica,sans-Serif" font-size="10.00">source_location.h</text>
</a>
</g>
</g>
<!-- Node18&#45;&gt;Node23 -->
<g id="edge28" class="edge">
<title>Node18&#45;&gt;Node23</title>
<path fill="none" stroke="midnightblue" d="M908.06,-336.08C902.55,-328.46 894.47,-317.26 887.74,-307.94"/>
<polygon fill="midnightblue" stroke="midnightblue" points="890.51,-305.81 881.82,-299.75 884.84,-309.91 890.51,-305.81"/>
</g>
<!-- Node19&#45;&gt;Node5 -->
<g id="edge26" class="edge">
<title>Node19&#45;&gt;Node5</title>
<path fill="none" stroke="midnightblue" d="M1122.8,-58.38C1067.59,-47.84 960.52,-27.41 906.83,-17.17"/>
<polygon fill="midnightblue" stroke="midnightblue" points="907.32,-13.7 896.84,-15.26 906.01,-20.58 907.32,-13.7"/>
</g>
<!-- Node20 -->
<g id="node20" class="node">
<title>Node20</title>
<g id="a_node20"><a xlink:title=" ">
<polygon fill="none" stroke="#bfbfbf" points="1136,-0.5 1136,-19.5 1185,-19.5 1185,-0.5 1136,-0.5"/>
<text text-anchor="middle" x="1160.5" y="-7.5" font-family="Helvetica,sans-Serif" font-size="10.00">cstdlib</text>
</a>
</g>
</g>
<!-- Node19&#45;&gt;Node20 -->
<g id="edge24" class="edge">
<title>Node19&#45;&gt;Node20</title>
<path fill="none" stroke="midnightblue" d="M1158,-56.08C1158.39,-49.01 1158.95,-38.86 1159.45,-29.99"/>
<polygon fill="midnightblue" stroke="midnightblue" points="1162.95,-29.93 1160.01,-19.75 1155.96,-29.54 1162.95,-29.93"/>
</g>
<!-- Node21 -->
<g id="node21" class="node">
<title>Node21</title>
<g id="a_node21"><a xlink:title=" ">
<polygon fill="none" stroke="#bfbfbf" points="1203.5,-0.5 1203.5,-19.5 1259.5,-19.5 1259.5,-0.5 1203.5,-0.5"/>
<text text-anchor="middle" x="1231.5" y="-7.5" font-family="Helvetica,sans-Serif" font-size="10.00">sstream</text>
</a>
</g>
</g>
<!-- Node19&#45;&gt;Node21 -->
<g id="edge25" class="edge">
<title>Node19&#45;&gt;Node21</title>
<path fill="none" stroke="midnightblue" d="M1169.39,-56.32C1180.65,-48.11 1197.79,-35.6 1211.21,-25.81"/>
<polygon fill="midnightblue" stroke="midnightblue" points="1213.38,-28.56 1219.39,-19.83 1209.25,-22.9 1213.38,-28.56"/>
</g>
<!-- Node22 -->
<g id="node22" class="node">
<title>Node22</title>
<g id="a_node22"><a xlink:title=" ">
<polygon fill="none" stroke="#bfbfbf" points="1049,-0.5 1049,-19.5 1118,-19.5 1118,-0.5 1049,-0.5"/>
<text text-anchor="middle" x="1083.5" y="-7.5" font-family="Helvetica,sans-Serif" font-size="10.00">type_traits</text>
</a>
</g>
</g>
<!-- Node19&#45;&gt;Node22 -->
<g id="edge27" class="edge">
<title>Node19&#45;&gt;Node22</title>
<path fill="none" stroke="midnightblue" d="M1145.61,-56.32C1134.35,-48.11 1117.21,-35.6 1103.79,-25.81"/>
<polygon fill="midnightblue" stroke="midnightblue" points="1105.75,-22.9 1095.61,-19.83 1101.62,-28.56 1105.75,-22.9"/>
</g>
<!-- Node23&#45;&gt;Node5 -->
<g id="edge53" class="edge">
<title>Node23&#45;&gt;Node5</title>
<path fill="none" stroke="midnightblue" d="M900.48,-280.47C937.73,-265.97 1003.5,-232.77 1003.5,-179 1003.5,-179 1003.5,-179 1003.5,-121 1003.5,-70.07 944.56,-37.73 906.36,-22.12"/>
<polygon fill="midnightblue" stroke="midnightblue" points="907.26,-18.72 896.68,-18.34 904.72,-25.24 907.26,-18.72"/>
</g>
<!-- Node23&#45;&gt;Node7 -->
<g id="edge52" class="edge">
<title>Node23&#45;&gt;Node7</title>
<path fill="none" stroke="midnightblue" d="M824.18,-281.62C708.1,-264.01 417.51,-214.72 186.5,-132 147.53,-118.05 105.12,-95.29 79.69,-80.73"/>
<polygon fill="midnightblue" stroke="midnightblue" points="81.22,-77.58 70.81,-75.59 77.71,-83.63 81.22,-77.58"/>
</g>
<!-- Node24 -->
<g id="node24" class="node">
<title>Node24</title>
<g id="a_node24"><a xlink:href="irep_8h.html" target="_top" xlink:title=" ">
<polygon fill="none" stroke="black" points="777.5,-224.5 777.5,-243.5 821.5,-243.5 821.5,-224.5 777.5,-224.5"/>
<text text-anchor="middle" x="799.5" y="-231.5" font-family="Helvetica,sans-Serif" font-size="10.00">irep.h</text>
</a>
</g>
</g>
<!-- Node23&#45;&gt;Node24 -->
<g id="edge29" class="edge">
<title>Node23&#45;&gt;Node24</title>
<path fill="none" stroke="midnightblue" d="M863.29,-280.32C851.72,-272.11 834.12,-259.6 820.34,-249.81"/>
<polygon fill="midnightblue" stroke="midnightblue" points="822.11,-246.77 811.93,-243.83 818.06,-252.48 822.11,-246.77"/>
</g>
<!-- Node24&#45;&gt;Node5 -->
<g id="edge30" class="edge">
<title>Node24&#45;&gt;Node5</title>
<path fill="none" stroke="midnightblue" d="M792.95,-224.33C784.46,-212.02 771.31,-188.67 776.5,-168 783.37,-140.61 788,-133.33 806.5,-112 824.21,-91.59 840,-98.14 855.5,-76 865.09,-62.31 869.89,-43.77 872.26,-30"/>
<polygon fill="midnightblue" stroke="midnightblue" points="875.77,-30.16 873.73,-19.76 868.84,-29.16 875.77,-30.16"/>
</g>
<!-- Node24&#45;&gt;Node6 -->
<g id="edge31" class="edge">
<title>Node24&#45;&gt;Node6</title>
<path fill="none" stroke="midnightblue" d="M777.41,-232.11C726.71,-228.7 603.11,-212.15 560.5,-132 552.12,-116.24 556.72,-74.48 568.5,-56 577.37,-42.09 592.26,-31.57 605.94,-24.22"/>
<polygon fill="midnightblue" stroke="midnightblue" points="607.75,-27.23 615.13,-19.63 604.62,-20.97 607.75,-27.23"/>
</g>
<!-- Node24&#45;&gt;Node19 -->
<g id="edge32" class="edge">
<title>Node24&#45;&gt;Node19</title>
<path fill="none" stroke="midnightblue" d="M821.58,-233.13C881.25,-232.27 1047.27,-221.49 1137.5,-132 1149.67,-119.93 1154.47,-100.64 1156.34,-86.21"/>
<polygon fill="midnightblue" stroke="midnightblue" points="1159.86,-86.18 1157.3,-75.9 1152.89,-85.53 1159.86,-86.18"/>
</g>
<!-- Node25 -->
<g id="node25" class="node">
<title>Node25</title>
<g id="a_node25"><a xlink:href="irep__ids_8h.html" target="_top" xlink:title=" ">
<polygon fill="none" stroke="black" points="652.5,-168.5 652.5,-187.5 716.5,-187.5 716.5,-168.5 652.5,-168.5"/>
<text text-anchor="middle" x="684.5" y="-175.5" font-family="Helvetica,sans-Serif" font-size="10.00">irep_ids.h</text>
</a>
</g>
</g>
<!-- Node24&#45;&gt;Node25 -->
<g id="edge33" class="edge">
<title>Node24&#45;&gt;Node25</title>
<path fill="none" stroke="midnightblue" d="M781.28,-224.44C762.6,-215.68 733.34,-201.94 711.88,-191.86"/>
<polygon fill="midnightblue" stroke="midnightblue" points="713.18,-188.6 702.64,-187.52 710.2,-194.93 713.18,-188.6"/>
</g>
<!-- Node32 -->
<g id="node30" class="node">
<title>Node32</title>
<g id="a_node30"><a xlink:href="forward__list__as__map_8h.html" target="_top" xlink:title=" ">
<polygon fill="none" stroke="black" points="786,-168.5 786,-187.5 913,-187.5 913,-168.5 786,-168.5"/>
<text text-anchor="middle" x="849.5" y="-175.5" font-family="Helvetica,sans-Serif" font-size="10.00">forward_list_as_map.h</text>
</a>
</g>
</g>
<!-- Node24&#45;&gt;Node32 -->
<g id="edge45" class="edge">
<title>Node24&#45;&gt;Node32</title>
<path fill="none" stroke="midnightblue" d="M807.76,-224.08C814.96,-216.3 825.61,-204.8 834.35,-195.37"/>
<polygon fill="midnightblue" stroke="midnightblue" points="837.17,-197.47 841.4,-187.75 832.03,-192.71 837.17,-197.47"/>
</g>
<!-- Node26 -->
<g id="node26" class="node">
<title>Node26</title>
<g id="a_node26"><a xlink:href="dstring_8h.html" target="_top" xlink:title=" ">
<polygon fill="none" stroke="black" points="570,-112.5 570,-131.5 629,-131.5 629,-112.5 570,-112.5"/>
<text text-anchor="middle" x="599.5" y="-119.5" font-family="Helvetica,sans-Serif" font-size="10.00">dstring.h</text>
</a>
</g>
</g>
<!-- Node25&#45;&gt;Node26 -->
<g id="edge34" class="edge">
<title>Node25&#45;&gt;Node26</title>
<path fill="none" stroke="midnightblue" d="M670.84,-168.32C657.58,-159.9 637.23,-146.97 621.65,-137.07"/>
<polygon fill="midnightblue" stroke="midnightblue" points="623.44,-134.06 613.12,-131.65 619.69,-139.97 623.44,-134.06"/>
</g>
<!-- Node31 -->
<g id="node29" class="node">
<title>Node31</title>
<g id="a_node29"><a xlink:title=" ">
<polygon fill="none" stroke="#bfbfbf" points="647.5,-112.5 647.5,-131.5 721.5,-131.5 721.5,-112.5 647.5,-112.5"/>
<text text-anchor="middle" x="684.5" y="-119.5" font-family="Helvetica,sans-Serif" font-size="10.00">irep_ids.def</text>
</a>
</g>
</g>
<!-- Node25&#45;&gt;Node31 -->
<g id="edge44" class="edge">
<title>Node25&#45;&gt;Node31</title>
<path fill="none" stroke="midnightblue" d="M684.5,-168.08C684.5,-161.01 684.5,-150.86 684.5,-141.99"/>
<polygon fill="midnightblue" stroke="midnightblue" points="688,-141.75 684.5,-131.75 681,-141.75 688,-141.75"/>
</g>
<!-- Node26&#45;&gt;Node5 -->
<g id="edge36" class="edge">
<title>Node26&#45;&gt;Node5</title>
<path fill="none" stroke="midnightblue" d="M629.28,-113.99C632.39,-113.3 635.51,-112.62 638.5,-112 723.92,-94.19 758.77,-124.21 831.5,-76 848.54,-64.7 860.45,-44.09 867.34,-29.1"/>
<polygon fill="midnightblue" stroke="midnightblue" points="870.61,-30.37 871.32,-19.8 864.17,-27.62 870.61,-30.37"/>
</g>
<!-- Node26&#45;&gt;Node14 -->
<g id="edge35" class="edge">
<title>Node26&#45;&gt;Node14</title>
<path fill="none" stroke="midnightblue" d="M628.15,-112.36C646.72,-105.37 670.04,-93.73 684.5,-76 695.29,-62.77 699.95,-43.64 701.97,-29.56"/>
<polygon fill="midnightblue" stroke="midnightblue" points="705.45,-29.88 703.08,-19.55 698.49,-29.11 705.45,-29.88"/>
</g>
<!-- Node26&#45;&gt;Node19 -->
<g id="edge37" class="edge">
<title>Node26&#45;&gt;Node19</title>
<path fill="none" stroke="midnightblue" d="M629.23,-113.69C632.35,-113.06 635.48,-112.48 638.5,-112 812.73,-84.48 1022.71,-72.78 1112.85,-68.76"/>
<polygon fill="midnightblue" stroke="midnightblue" points="1113.15,-72.25 1122.99,-68.32 1112.84,-65.26 1113.15,-72.25"/>
</g>
<!-- Node27 -->
<g id="node27" class="node">
<title>Node27</title>
<g id="a_node27"><a xlink:href="magic_8h.html" target="_top" xlink:title="Magic numbers used throughout the codebase.">
<polygon fill="none" stroke="black" points="245.5,-56.5 245.5,-75.5 301.5,-75.5 301.5,-56.5 245.5,-56.5"/>
<text text-anchor="middle" x="273.5" y="-63.5" font-family="Helvetica,sans-Serif" font-size="10.00">magic.h</text>
</a>
</g>
</g>
<!-- Node26&#45;&gt;Node27 -->
<g id="edge38" class="edge">
<title>Node26&#45;&gt;Node27</title>
<path fill="none" stroke="midnightblue" d="M569.82,-117.22C518.98,-110.56 411.82,-95.74 311.7,-76.1"/>
<polygon fill="midnightblue" stroke="midnightblue" points="312.22,-72.64 301.73,-74.13 310.86,-79.5 312.22,-72.64"/>
</g>
<!-- Node28 -->
<g id="node28" class="node">
<title>Node28</title>
<g id="a_node28"><a xlink:href="string__container_8h.html" target="_top" xlink:title=" ">
<polygon fill="none" stroke="red" points="319.5,-56.5 319.5,-75.5 423.5,-75.5 423.5,-56.5 319.5,-56.5"/>
<text text-anchor="middle" x="371.5" y="-63.5" font-family="Helvetica,sans-Serif" font-size="10.00">string_container.h</text>
</a>
</g>
</g>
<!-- Node26&#45;&gt;Node28 -->
<g id="edge40" class="edge">
<title>Node26&#45;&gt;Node28</title>
<path fill="none" stroke="midnightblue" d="M569.69,-113.94C530.98,-104.77 462.99,-88.67 417.6,-77.92"/>
<polygon fill="midnightblue" stroke="midnightblue" points="418.25,-74.47 407.71,-75.58 416.63,-81.29 418.25,-74.47"/>
</g>
<!-- Node27&#45;&gt;Node12 -->
<g id="edge39" class="edge">
<title>Node27&#45;&gt;Node12</title>
<path fill="none" stroke="midnightblue" d="M263.22,-56.32C253.66,-48.26 239.22,-36.08 227.72,-26.37"/>
<polygon fill="midnightblue" stroke="midnightblue" points="229.87,-23.61 219.97,-19.83 225.36,-28.96 229.87,-23.61"/>
</g>
<!-- Node28&#45;&gt;Node4 -->
<g id="edge41" class="edge">
<title>Node28&#45;&gt;Node4</title>
<path fill="none" stroke="midnightblue" d="M326.67,-56.44C288.41,-48.77 231.8,-36.56 174.17,-19.92"/>
<polygon fill="midnightblue" stroke="midnightblue" points="175.12,-16.55 164.54,-17.1 173.16,-23.27 175.12,-16.55"/>
</g>
<!-- Node28&#45;&gt;Node6 -->
<g id="edge43" class="edge">
<title>Node28&#45;&gt;Node6</title>
<path fill="none" stroke="midnightblue" d="M421.73,-56.43C466.85,-48.48 535.13,-35.82 603.65,-20.05"/>
<polygon fill="midnightblue" stroke="midnightblue" points="604.81,-23.38 613.76,-17.7 603.23,-16.56 604.81,-23.38"/>
</g>
<!-- Node28&#45;&gt;Node16 -->
<g id="edge42" class="edge">
<title>Node28&#45;&gt;Node16</title>
<path fill="none" stroke="midnightblue" d="M360.09,-56.32C349.39,-48.18 333.16,-35.84 320.34,-26.09"/>
<polygon fill="midnightblue" stroke="midnightblue" points="322.19,-23.1 312.11,-19.83 317.96,-28.67 322.19,-23.1"/>
</g>
<!-- Node32&#45;&gt;Node11 -->
<g id="edge46" class="edge">
<title>Node32&#45;&gt;Node11</title>
<path fill="none" stroke="midnightblue" d="M838.23,-168.24C828.36,-159.95 814.41,-146.64 806.5,-132 788.64,-98.91 782.12,-54.76 779.78,-29.97"/>
<polygon fill="midnightblue" stroke="midnightblue" points="783.25,-29.45 778.95,-19.76 776.27,-30.01 783.25,-29.45"/>
</g>
<!-- Node33 -->
<g id="node31" class="node">
<title>Node33</title>
<g id="a_node31"><a xlink:title=" ">
<polygon fill="none" stroke="#bfbfbf" points="901.5,-112.5 901.5,-131.5 975.5,-131.5 975.5,-112.5 901.5,-112.5"/>
<text text-anchor="middle" x="938.5" y="-119.5" font-family="Helvetica,sans-Serif" font-size="10.00">forward_list</text>
</a>
</g>
</g>
<!-- Node32&#45;&gt;Node33 -->
<g id="edge47" class="edge">
<title>Node32&#45;&gt;Node33</title>
<path fill="none" stroke="midnightblue" d="M863.8,-168.32C877.68,-159.9 898.99,-146.97 915.3,-137.07"/>
<polygon fill="midnightblue" stroke="midnightblue" points="917.5,-139.83 924.24,-131.65 913.87,-133.85 917.5,-139.83"/>
</g>
<!-- Node34 -->
<g id="node32" class="node">
<title>Node34</title>
<g id="a_node32"><a xlink:href="as__const_8h.html" target="_top" xlink:title=" ">
<polygon fill="none" stroke="black" points="815.5,-112.5 815.5,-131.5 883.5,-131.5 883.5,-112.5 815.5,-112.5"/>
<text text-anchor="middle" x="849.5" y="-119.5" font-family="Helvetica,sans-Serif" font-size="10.00">as_const.h</text>
</a>
</g>
</g>
<!-- Node32&#45;&gt;Node34 -->
<g id="edge48" class="edge">
<title>Node32&#45;&gt;Node34</title>
<path fill="none" stroke="midnightblue" d="M849.5,-168.08C849.5,-161.01 849.5,-150.86 849.5,-141.99"/>
<polygon fill="midnightblue" stroke="midnightblue" points="853,-141.75 849.5,-131.75 846,-141.75 853,-141.75"/>
</g>
<!-- Node35 -->
<g id="node33" class="node">
<title>Node35</title>
<g id="a_node33"><a xlink:href="narrow_8h.html" target="_top" xlink:title=" ">
<polygon fill="none" stroke="black" points="1070,-112.5 1070,-131.5 1129,-131.5 1129,-112.5 1070,-112.5"/>
<text text-anchor="middle" x="1099.5" y="-119.5" font-family="Helvetica,sans-Serif" font-size="10.00">narrow.h</text>
</a>
</g>
</g>
<!-- Node32&#45;&gt;Node35 -->
<g id="edge49" class="edge">
<title>Node32&#45;&gt;Node35</title>
<path fill="none" stroke="midnightblue" d="M889.11,-168.44C935.83,-158.35 1013.04,-141.68 1059.8,-131.58"/>
<polygon fill="midnightblue" stroke="midnightblue" points="1060.82,-134.94 1069.86,-129.4 1059.34,-128.09 1060.82,-134.94"/>
</g>
<!-- Node35&#45;&gt;Node19 -->
<g id="edge51" class="edge">
<title>Node35&#45;&gt;Node19</title>
<path fill="none" stroke="midnightblue" d="M1108.82,-112.32C1117.39,-104.34 1130.31,-92.31 1140.69,-82.65"/>
<polygon fill="midnightblue" stroke="midnightblue" points="1143.08,-85.21 1148.01,-75.83 1138.31,-80.09 1143.08,-85.21"/>
</g>
<!-- Node35&#45;&gt;Node22 -->
<g id="edge50" class="edge">
<title>Node35&#45;&gt;Node22</title>
<path fill="none" stroke="midnightblue" d="M1098.24,-112.37C1095.66,-94.62 1089.71,-53.67 1086.21,-29.6"/>
<polygon fill="midnightblue" stroke="midnightblue" points="1089.65,-28.98 1084.75,-19.59 1082.73,-29.99 1089.65,-28.98"/>
</g>
<!-- Node36&#45;&gt;Node5 -->
<g id="edge57" class="edge">
<title>Node36&#45;&gt;Node5</title>
<path fill="none" stroke="midnightblue" d="M665.8,-56.44C714.71,-45.79 797.3,-27.81 842.53,-17.96"/>
<polygon fill="midnightblue" stroke="midnightblue" points="843.35,-21.36 852.38,-15.82 841.87,-14.52 843.35,-21.36"/>
</g>
<!-- Node36&#45;&gt;Node6 -->
<g id="edge58" class="edge">
<title>Node36&#45;&gt;Node6</title>
<path fill="none" stroke="midnightblue" d="M628.32,-56.08C629.77,-48.93 631.87,-38.64 633.69,-29.69"/>
<polygon fill="midnightblue" stroke="midnightblue" points="637.15,-30.25 635.72,-19.75 630.29,-28.85 637.15,-30.25"/>
</g>
<!-- Node36&#45;&gt;Node14 -->
<g id="edge56" class="edge">
<title>Node36&#45;&gt;Node14</title>
<path fill="none" stroke="midnightblue" d="M638.87,-56.32C650.66,-48.06 668.63,-35.45 682.64,-25.63"/>
<polygon fill="midnightblue" stroke="midnightblue" points="684.98,-28.26 691.16,-19.65 680.96,-22.53 684.98,-28.26"/>
</g>
</g>
</svg>
