<?xml version="1.0" encoding="UTF-8" standalone="no"?>
<!DOCTYPE svg PUBLIC "-//W3C//DTD SVG 1.1//EN"
 "http://www.w3.org/Graphics/SVG/1.1/DTD/svg11.dtd">
<!-- Generated by graphviz version 2.43.0 (0)
 -->
<!-- Title: /home/runner/work/cbmc/cbmc/src/util/cmdline.h Pages: 1 -->
<svg width="349pt" height="151pt"
 viewBox="0.00 0.00 349.00 151.00" xmlns="http://www.w3.org/2000/svg" xmlns:xlink="http://www.w3.org/1999/xlink">
<g id="graph0" class="graph" transform="scale(1 1) rotate(0) translate(4 147)">
<title>/home/runner/work/cbmc/cbmc/src/util/cmdline.h</title>
<!-- Node1 -->
<g id="node1" class="node">
<title>Node1</title>
<g id="a_node1"><a xlink:title=" ">
<polygon fill="#bfbfbf" stroke="black" points="65,-112.5 65,-142.5 203,-142.5 203,-112.5 65,-112.5"/>
<text text-anchor="start" x="73" y="-130.5" font-family="Helvetica,sans-Serif" font-size="10.00">/home/runner/work/cbmc</text>
<text text-anchor="middle" x="134" y="-119.5" font-family="Helvetica,sans-Serif" font-size="10.00">/cbmc/src/util/cmdline.h</text>
</a>
</g>
</g>
<!-- Node2 -->
<g id="node2" class="node">
<title>Node2</title>
<g id="a_node2"><a xlink:title=" ">
<polygon fill="none" stroke="#bfbfbf" points="0,-56.5 0,-75.5 44,-75.5 44,-56.5 0,-56.5"/>
<text text-anchor="middle" x="22" y="-63.5" font-family="Helvetica,sans-Serif" font-size="10.00">limits</text>
</a>
</g>
</g>
<!-- Node1&#45;&gt;Node2 -->
<g id="edge1" class="edge">
<title>Node1&#45;&gt;Node2</title>
<path fill="none" stroke="midnightblue" d="M107.46,-112.4C89.34,-102.77 65.46,-90.09 47.56,-80.58"/>
<polygon fill="midnightblue" stroke="midnightblue" points="48.77,-77.26 38.3,-75.66 45.49,-83.44 48.77,-77.26"/>
</g>
<!-- Node3 -->
<g id="node3" class="node">
<title>Node3</title>
<g id="a_node3"><a xlink:title=" ">
<polygon fill="none" stroke="#bfbfbf" points="62,-56.5 62,-75.5 94,-75.5 94,-56.5 62,-56.5"/>
<text text-anchor="middle" x="78" y="-63.5" font-family="Helvetica,sans-Serif" font-size="10.00">list</text>
</a>
</g>
</g>
<!-- Node1&#45;&gt;Node3 -->
<g id="edge2" class="edge">
<title>Node1&#45;&gt;Node3</title>
<path fill="none" stroke="midnightblue" d="M120.73,-112.4C112.42,-103.58 101.7,-92.18 93.08,-83.02"/>
<polygon fill="midnightblue" stroke="midnightblue" points="95.55,-80.54 86.15,-75.66 90.45,-85.34 95.55,-80.54"/>
</g>
<!-- Node4 -->
<g id="node4" class="node">
<title>Node4</title>
<g id="a_node4"><a xlink:title=" ">
<polygon fill="none" stroke="#bfbfbf" points="112,-56.5 112,-75.5 156,-75.5 156,-56.5 112,-56.5"/>
<text text-anchor="middle" x="134" y="-63.5" font-family="Helvetica,sans-Serif" font-size="10.00">string</text>
</a>
</g>
</g>
<!-- Node1&#45;&gt;Node4 -->
<g id="edge3" class="edge">
<title>Node1&#45;&gt;Node4</title>
<path fill="none" stroke="midnightblue" d="M134,-112.4C134,-104.47 134,-94.46 134,-85.86"/>
<polygon fill="midnightblue" stroke="midnightblue" points="137.5,-85.66 134,-75.66 130.5,-85.66 137.5,-85.66"/>
</g>
<!-- Node5 -->
<g id="node5" class="node">
<title>Node5</title>
<g id="a_node5"><a xlink:title=" ">
<polygon fill="none" stroke="#bfbfbf" points="174.5,-56.5 174.5,-75.5 221.5,-75.5 221.5,-56.5 174.5,-56.5"/>
<text text-anchor="middle" x="198" y="-63.5" font-family="Helvetica,sans-Serif" font-size="10.00">vector</text>
</a>
</g>
</g>
<!-- Node1&#45;&gt;Node5 -->
<g id="edge4" class="edge">
<title>Node1&#45;&gt;Node5</title>
<path fill="none" stroke="midnightblue" d="M149.17,-112.4C158.75,-103.49 171.16,-91.95 181.07,-82.74"/>
<polygon fill="midnightblue" stroke="midnightblue" points="183.75,-85.03 188.69,-75.66 178.98,-79.9 183.75,-85.03"/>
</g>
<!-- Node6 -->
<g id="node6" class="node">
<title>Node6</title>
<g id="a_node6"><a xlink:href="optional_8h.html" target="_top" xlink:title=" ">
<polygon fill="none" stroke="black" points="239.5,-56.5 239.5,-75.5 304.5,-75.5 304.5,-56.5 239.5,-56.5"/>
<text text-anchor="middle" x="272" y="-63.5" font-family="Helvetica,sans-Serif" font-size="10.00">optional.h</text>
</a>
</g>
</g>
<!-- Node1&#45;&gt;Node6 -->
<g id="edge5" class="edge">
<title>Node1&#45;&gt;Node6</title>
<path fill="none" stroke="midnightblue" d="M166.7,-112.4C189.75,-102.46 220.36,-89.26 242.63,-79.66"/>
<polygon fill="midnightblue" stroke="midnightblue" points="244.12,-82.83 251.92,-75.66 241.35,-76.4 244.12,-82.83"/>
</g>
<!-- Node7 -->
<g id="node7" class="node">
<title>Node7</title>
<g id="a_node7"><a xlink:href="deprecate_8h.html" target="_top" xlink:title=" ">
<polygon fill="none" stroke="black" points="193,-0.5 193,-19.5 267,-19.5 267,-0.5 193,-0.5"/>
<text text-anchor="middle" x="230" y="-7.5" font-family="Helvetica,sans-Serif" font-size="10.00">deprecate.h</text>
</a>
</g>
</g>
<!-- Node6&#45;&gt;Node7 -->
<g id="edge6" class="edge">
<title>Node6&#45;&gt;Node7</title>
<path fill="none" stroke="midnightblue" d="M265.06,-56.08C259.07,-48.38 250.25,-37.03 242.95,-27.65"/>
<polygon fill="midnightblue" stroke="midnightblue" points="245.71,-25.5 236.81,-19.75 240.18,-29.79 245.71,-25.5"/>
</g>
<!-- Node8 -->
<g id="node8" class="node">
<title>Node8</title>
<g id="a_node8"><a xlink:title=" ">
<polygon fill="none" stroke="#bfbfbf" points="285,-0.5 285,-19.5 341,-19.5 341,-0.5 285,-0.5"/>
<text text-anchor="middle" x="313" y="-7.5" font-family="Helvetica,sans-Serif" font-size="10.00">optional</text>
</a>
</g>
</g>
<!-- Node6&#45;&gt;Node8 -->
<g id="edge7" class="edge">
<title>Node6&#45;&gt;Node8</title>
<path fill="none" stroke="midnightblue" d="M278.77,-56.08C284.56,-48.46 293.06,-37.26 300.14,-27.94"/>
<polygon fill="midnightblue" stroke="midnightblue" points="303.1,-29.83 306.36,-19.75 297.52,-25.6 303.1,-29.83"/>
</g>
</g>
</svg>
