<?xml version="1.0" encoding="UTF-8" standalone="no"?>
<!DOCTYPE svg PUBLIC "-//W3C//DTD SVG 1.1//EN"
 "http://www.w3.org/Graphics/SVG/1.1/DTD/svg11.dtd">
<!-- Generated by graphviz version 2.43.0 (0)
 -->
<!-- Title: /home/runner/work/cbmc/cbmc/src/solvers/sat/cnf_clause_list.cpp Pages: 1 -->
<svg width="505pt" height="498pt"
 viewBox="0.00 0.00 505.27 498.00" xmlns="http://www.w3.org/2000/svg" xmlns:xlink="http://www.w3.org/1999/xlink">
<g id="graph0" class="graph" transform="scale(1 1) rotate(0) translate(4 494)">
<title>/home/runner/work/cbmc/cbmc/src/solvers/sat/cnf_clause_list.cpp</title>
<!-- Node1 -->
<g id="node1" class="node">
<title>Node1</title>
<g id="a_node1"><a xlink:title=" ">
<polygon fill="#bfbfbf" stroke="black" points="319.27,-448.5 319.27,-489.5 457.27,-489.5 457.27,-448.5 319.27,-448.5"/>
<text text-anchor="start" x="327.27" y="-477.5" font-family="Helvetica,sans-Serif" font-size="10.00">/home/runner/work/cbmc</text>
<text text-anchor="start" x="327.27" y="-466.5" font-family="Helvetica,sans-Serif" font-size="10.00">/cbmc/src/solvers/sat</text>
<text text-anchor="middle" x="388.27" y="-455.5" font-family="Helvetica,sans-Serif" font-size="10.00">/cnf_clause_list.cpp</text>
</a>
</g>
</g>
<!-- Node2 -->
<g id="node2" class="node">
<title>Node2</title>
<g id="a_node2"><a xlink:href="cnf__clause__list_8h.html" target="_top" xlink:title=" ">
<polygon fill="none" stroke="black" points="291.27,-392.5 291.27,-411.5 389.27,-411.5 389.27,-392.5 291.27,-392.5"/>
<text text-anchor="middle" x="340.27" y="-399.5" font-family="Helvetica,sans-Serif" font-size="10.00">cnf_clause_list.h</text>
</a>
</g>
</g>
<!-- Node1&#45;&gt;Node2 -->
<g id="edge1" class="edge">
<title>Node1&#45;&gt;Node2</title>
<path fill="none" stroke="midnightblue" d="M373.87,-448.5C367.15,-439.39 359.22,-428.66 352.76,-419.91"/>
<polygon fill="midnightblue" stroke="midnightblue" points="355.42,-417.62 346.66,-411.65 349.78,-421.78 355.42,-417.62"/>
</g>
<!-- Node36 -->
<g id="node22" class="node">
<title>Node36</title>
<g id="a_node22"><a xlink:title=" ">
<polygon fill="none" stroke="#bfbfbf" points="407.77,-392.5 407.77,-411.5 464.77,-411.5 464.77,-392.5 407.77,-392.5"/>
<text text-anchor="middle" x="436.27" y="-399.5" font-family="Helvetica,sans-Serif" font-size="10.00">ostream</text>
</a>
</g>
</g>
<!-- Node1&#45;&gt;Node36 -->
<g id="edge32" class="edge">
<title>Node1&#45;&gt;Node36</title>
<path fill="none" stroke="midnightblue" d="M402.67,-448.5C409.39,-439.39 417.32,-428.66 423.78,-419.91"/>
<polygon fill="midnightblue" stroke="midnightblue" points="426.76,-421.78 429.88,-411.65 421.12,-417.62 426.76,-421.78"/>
</g>
<!-- Node3 -->
<g id="node3" class="node">
<title>Node3</title>
<g id="a_node3"><a xlink:title=" ">
<polygon fill="none" stroke="#bfbfbf" points="280.27,-336.5 280.27,-355.5 312.27,-355.5 312.27,-336.5 280.27,-336.5"/>
<text text-anchor="middle" x="296.27" y="-343.5" font-family="Helvetica,sans-Serif" font-size="10.00">list</text>
</a>
</g>
</g>
<!-- Node2&#45;&gt;Node3 -->
<g id="edge2" class="edge">
<title>Node2&#45;&gt;Node3</title>
<path fill="none" stroke="midnightblue" d="M333,-392.08C326.72,-384.38 317.48,-373.03 309.84,-363.65"/>
<polygon fill="midnightblue" stroke="midnightblue" points="312.43,-361.29 303.4,-355.75 307,-365.71 312.43,-361.29"/>
</g>
<!-- Node4 -->
<g id="node4" class="node">
<title>Node4</title>
<g id="a_node4"><a xlink:href="threeval_8h.html" target="_top" xlink:title=" ">
<polygon fill="none" stroke="black" points="339.77,-224.5 339.77,-243.5 424.77,-243.5 424.77,-224.5 339.77,-224.5"/>
<text text-anchor="middle" x="382.27" y="-231.5" font-family="Helvetica,sans-Serif" font-size="10.00">util/threeval.h</text>
</a>
</g>
</g>
<!-- Node2&#45;&gt;Node4 -->
<g id="edge3" class="edge">
<title>Node2&#45;&gt;Node4</title>
<path fill="none" stroke="midnightblue" d="M340.7,-392.27C341.88,-372.06 346.06,-320.65 359.27,-280 362.35,-270.51 367.24,-260.57 371.71,-252.45"/>
<polygon fill="midnightblue" stroke="midnightblue" points="374.85,-254.02 376.82,-243.61 368.79,-250.51 374.85,-254.02"/>
</g>
<!-- Node6 -->
<g id="node6" class="node">
<title>Node6</title>
<g id="a_node6"><a xlink:href="cnf_8h.html" target="_top" xlink:title=" ">
<polygon fill="none" stroke="black" points="385.27,-336.5 385.27,-355.5 425.27,-355.5 425.27,-336.5 385.27,-336.5"/>
<text text-anchor="middle" x="405.27" y="-343.5" font-family="Helvetica,sans-Serif" font-size="10.00">cnf.h</text>
</a>
</g>
</g>
<!-- Node2&#45;&gt;Node6 -->
<g id="edge5" class="edge">
<title>Node2&#45;&gt;Node6</title>
<path fill="none" stroke="midnightblue" d="M350.71,-392.32C360.42,-384.26 375.09,-372.08 386.77,-362.37"/>
<polygon fill="midnightblue" stroke="midnightblue" points="389.18,-364.92 394.64,-355.83 384.71,-359.53 389.18,-364.92"/>
</g>
<!-- Node5 -->
<g id="node5" class="node">
<title>Node5</title>
<g id="a_node5"><a xlink:title=" ">
<polygon fill="none" stroke="#bfbfbf" points="394.27,-168.5 394.27,-187.5 442.27,-187.5 442.27,-168.5 394.27,-168.5"/>
<text text-anchor="middle" x="418.27" y="-175.5" font-family="Helvetica,sans-Serif" font-size="10.00">iosfwd</text>
</a>
</g>
</g>
<!-- Node4&#45;&gt;Node5 -->
<g id="edge4" class="edge">
<title>Node4&#45;&gt;Node5</title>
<path fill="none" stroke="midnightblue" d="M388.21,-224.08C393.25,-216.53 400.61,-205.49 406.78,-196.23"/>
<polygon fill="midnightblue" stroke="midnightblue" points="409.8,-198.01 412.44,-187.75 403.98,-194.13 409.8,-198.01"/>
</g>
<!-- Node7 -->
<g id="node7" class="node">
<title>Node7</title>
<g id="a_node7"><a xlink:href="prop_8h.html" target="_top" xlink:title=" ">
<polygon fill="none" stroke="black" points="368.27,-280.5 368.27,-299.5 478.27,-299.5 478.27,-280.5 368.27,-280.5"/>
<text text-anchor="middle" x="423.27" y="-287.5" font-family="Helvetica,sans-Serif" font-size="10.00">solvers/prop/prop.h</text>
</a>
</g>
</g>
<!-- Node6&#45;&gt;Node7 -->
<g id="edge6" class="edge">
<title>Node6&#45;&gt;Node7</title>
<path fill="none" stroke="midnightblue" d="M408.24,-336.08C410.65,-328.85 414.13,-318.41 417.14,-309.4"/>
<polygon fill="midnightblue" stroke="midnightblue" points="420.51,-310.34 420.35,-299.75 413.87,-308.13 420.51,-310.34"/>
</g>
<!-- Node7&#45;&gt;Node4 -->
<g id="edge25" class="edge">
<title>Node7&#45;&gt;Node4</title>
<path fill="none" stroke="midnightblue" d="M416.5,-280.08C410.71,-272.46 402.21,-261.26 395.13,-251.94"/>
<polygon fill="midnightblue" stroke="midnightblue" points="397.75,-249.6 388.91,-243.75 392.17,-253.83 397.75,-249.6"/>
</g>
<!-- Node8 -->
<g id="node8" class="node">
<title>Node8</title>
<g id="a_node8"><a xlink:href="src_2util_2message_8h.html" target="_top" xlink:title=" ">
<polygon fill="none" stroke="black" points="227.77,-224.5 227.77,-243.5 316.77,-243.5 316.77,-224.5 227.77,-224.5"/>
<text text-anchor="middle" x="272.27" y="-231.5" font-family="Helvetica,sans-Serif" font-size="10.00">util/message.h</text>
</a>
</g>
</g>
<!-- Node7&#45;&gt;Node8 -->
<g id="edge7" class="edge">
<title>Node7&#45;&gt;Node8</title>
<path fill="none" stroke="midnightblue" d="M399.34,-280.44C374.05,-271.4 333.97,-257.06 305.59,-246.92"/>
<polygon fill="midnightblue" stroke="midnightblue" points="306.68,-243.59 296.08,-243.52 304.32,-250.18 306.68,-243.59"/>
</g>
<!-- Node35 -->
<g id="node20" class="node">
<title>Node35</title>
<g id="a_node20"><a xlink:href="literal_8h.html" target="_top" xlink:title=" ">
<polygon fill="none" stroke="black" points="443.27,-224.5 443.27,-243.5 497.27,-243.5 497.27,-224.5 443.27,-224.5"/>
<text text-anchor="middle" x="470.27" y="-231.5" font-family="Helvetica,sans-Serif" font-size="10.00">literal.h</text>
</a>
</g>
</g>
<!-- Node7&#45;&gt;Node35 -->
<g id="edge26" class="edge">
<title>Node7&#45;&gt;Node35</title>
<path fill="none" stroke="midnightblue" d="M431.03,-280.08C437.81,-272.3 447.81,-260.8 456.02,-251.37"/>
<polygon fill="midnightblue" stroke="midnightblue" points="458.73,-253.59 462.65,-243.75 453.45,-249 458.73,-253.59"/>
</g>
<!-- Node8&#45;&gt;Node5 -->
<g id="edge9" class="edge">
<title>Node8&#45;&gt;Node5</title>
<path fill="none" stroke="midnightblue" d="M295.4,-224.44C319.75,-215.44 358.28,-201.19 385.69,-191.05"/>
<polygon fill="midnightblue" stroke="midnightblue" points="387.08,-194.27 395.24,-187.52 384.65,-187.7 387.08,-194.27"/>
</g>
<!-- Node9 -->
<g id="node9" class="node">
<title>Node9</title>
<g id="a_node9"><a xlink:title=" ">
<polygon fill="none" stroke="#bfbfbf" points="234.77,-168.5 234.77,-187.5 299.77,-187.5 299.77,-168.5 234.77,-168.5"/>
<text text-anchor="middle" x="267.27" y="-175.5" font-family="Helvetica,sans-Serif" font-size="10.00">functional</text>
</a>
</g>
</g>
<!-- Node8&#45;&gt;Node9 -->
<g id="edge8" class="edge">
<title>Node8&#45;&gt;Node9</title>
<path fill="none" stroke="midnightblue" d="M271.44,-224.08C270.79,-217.01 269.85,-206.86 269.03,-197.99"/>
<polygon fill="midnightblue" stroke="midnightblue" points="272.49,-197.39 268.08,-187.75 265.52,-198.03 272.49,-197.39"/>
</g>
<!-- Node10 -->
<g id="node10" class="node">
<title>Node10</title>
<g id="a_node10"><a xlink:title=" ">
<polygon fill="none" stroke="#bfbfbf" points="326.27,-0.5 326.27,-19.5 382.27,-19.5 382.27,-0.5 326.27,-0.5"/>
<text text-anchor="middle" x="354.27" y="-7.5" font-family="Helvetica,sans-Serif" font-size="10.00">sstream</text>
</a>
</g>
</g>
<!-- Node8&#45;&gt;Node10 -->
<g id="edge10" class="edge">
<title>Node8&#45;&gt;Node10</title>
<path fill="none" stroke="midnightblue" d="M287.29,-224.28C299.49,-216.38 316.11,-203.62 325.27,-188 355.14,-137.06 356.67,-64.46 355.46,-30.25"/>
<polygon fill="midnightblue" stroke="midnightblue" points="358.93,-29.66 354.95,-19.84 351.94,-30 358.93,-29.66"/>
</g>
<!-- Node11 -->
<g id="node11" class="node">
<title>Node11</title>
<g id="a_node11"><a xlink:title=" ">
<polygon fill="none" stroke="#bfbfbf" points="132.27,-0.5 132.27,-19.5 176.27,-19.5 176.27,-0.5 132.27,-0.5"/>
<text text-anchor="middle" x="154.27" y="-7.5" font-family="Helvetica,sans-Serif" font-size="10.00">string</text>
</a>
</g>
</g>
<!-- Node8&#45;&gt;Node11 -->
<g id="edge11" class="edge">
<title>Node8&#45;&gt;Node11</title>
<path fill="none" stroke="midnightblue" d="M227.66,-231.9C160.95,-229.22 40.15,-219.96 13.27,-188 -37.07,-128.16 76.11,-54.37 128.97,-24.5"/>
<polygon fill="midnightblue" stroke="midnightblue" points="130.74,-27.52 137.78,-19.6 127.34,-21.4 130.74,-27.52"/>
</g>
<!-- Node12 -->
<g id="node12" class="node">
<title>Node12</title>
<g id="a_node12"><a xlink:href="deprecate_8h.html" target="_top" xlink:title=" ">
<polygon fill="none" stroke="black" points="142.27,-168.5 142.27,-187.5 216.27,-187.5 216.27,-168.5 142.27,-168.5"/>
<text text-anchor="middle" x="179.27" y="-175.5" font-family="Helvetica,sans-Serif" font-size="10.00">deprecate.h</text>
</a>
</g>
</g>
<!-- Node8&#45;&gt;Node12 -->
<g id="edge12" class="edge">
<title>Node8&#45;&gt;Node12</title>
<path fill="none" stroke="midnightblue" d="M257.33,-224.32C242.68,-215.82 220.14,-202.73 203.03,-192.8"/>
<polygon fill="midnightblue" stroke="midnightblue" points="204.58,-189.65 194.17,-187.65 201.07,-195.7 204.58,-189.65"/>
</g>
<!-- Node13 -->
<g id="node13" class="node">
<title>Node13</title>
<g id="a_node13"><a xlink:href="src_2util_2invariant_8h.html" target="_top" xlink:title=" ">
<polygon fill="none" stroke="black" points="268.77,-56.5 268.77,-75.5 337.77,-75.5 337.77,-56.5 268.77,-56.5"/>
<text text-anchor="middle" x="303.27" y="-63.5" font-family="Helvetica,sans-Serif" font-size="10.00">invariant.h</text>
</a>
</g>
</g>
<!-- Node8&#45;&gt;Node13 -->
<g id="edge13" class="edge">
<title>Node8&#45;&gt;Node13</title>
<path fill="none" stroke="midnightblue" d="M282.71,-224.24C291.69,-215.97 304.02,-202.66 309.27,-188 321.64,-153.47 314.37,-109.84 308.48,-85.53"/>
<polygon fill="midnightblue" stroke="midnightblue" points="311.79,-84.33 305.87,-75.54 305.02,-86.1 311.79,-84.33"/>
</g>
<!-- Node16 -->
<g id="node16" class="node">
<title>Node16</title>
<g id="a_node16"><a xlink:href="source__location_8h.html" target="_top" xlink:title=" ">
<polygon fill="none" stroke="black" points="22.27,-168.5 22.27,-187.5 124.27,-187.5 124.27,-168.5 22.27,-168.5"/>
<text text-anchor="middle" x="73.27" y="-175.5" font-family="Helvetica,sans-Serif" font-size="10.00">source_location.h</text>
</a>
</g>
</g>
<!-- Node8&#45;&gt;Node16 -->
<g id="edge18" class="edge">
<title>Node8&#45;&gt;Node16</title>
<path fill="none" stroke="midnightblue" d="M240.74,-224.44C206.68,-215.2 152.26,-200.44 114.75,-190.26"/>
<polygon fill="midnightblue" stroke="midnightblue" points="115.22,-186.76 104.65,-187.52 113.39,-193.51 115.22,-186.76"/>
</g>
<!-- Node13&#45;&gt;Node10 -->
<g id="edge15" class="edge">
<title>Node13&#45;&gt;Node10</title>
<path fill="none" stroke="midnightblue" d="M311.69,-56.08C319.12,-48.22 330.12,-36.57 339.08,-27.08"/>
<polygon fill="midnightblue" stroke="midnightblue" points="341.68,-29.42 346,-19.75 336.59,-24.62 341.68,-29.42"/>
</g>
<!-- Node13&#45;&gt;Node11 -->
<g id="edge16" class="edge">
<title>Node13&#45;&gt;Node11</title>
<path fill="none" stroke="midnightblue" d="M279.66,-56.44C254.37,-47.28 214.1,-32.68 186.05,-22.52"/>
<polygon fill="midnightblue" stroke="midnightblue" points="186.91,-19.11 176.31,-18.99 184.52,-25.69 186.91,-19.11"/>
</g>
<!-- Node14 -->
<g id="node14" class="node">
<title>Node14</title>
<g id="a_node14"><a xlink:title=" ">
<polygon fill="none" stroke="#bfbfbf" points="258.77,-0.5 258.77,-19.5 307.77,-19.5 307.77,-0.5 258.77,-0.5"/>
<text text-anchor="middle" x="283.27" y="-7.5" font-family="Helvetica,sans-Serif" font-size="10.00">cstdlib</text>
</a>
</g>
</g>
<!-- Node13&#45;&gt;Node14 -->
<g id="edge14" class="edge">
<title>Node13&#45;&gt;Node14</title>
<path fill="none" stroke="midnightblue" d="M299.97,-56.08C297.29,-48.85 293.42,-38.41 290.08,-29.4"/>
<polygon fill="midnightblue" stroke="midnightblue" points="293.27,-27.91 286.51,-19.75 286.7,-30.34 293.27,-27.91"/>
</g>
<!-- Node15 -->
<g id="node15" class="node">
<title>Node15</title>
<g id="a_node15"><a xlink:title=" ">
<polygon fill="none" stroke="#bfbfbf" points="400.77,-0.5 400.77,-19.5 469.77,-19.5 469.77,-0.5 400.77,-0.5"/>
<text text-anchor="middle" x="435.27" y="-7.5" font-family="Helvetica,sans-Serif" font-size="10.00">type_traits</text>
</a>
</g>
</g>
<!-- Node13&#45;&gt;Node15 -->
<g id="edge17" class="edge">
<title>Node13&#45;&gt;Node15</title>
<path fill="none" stroke="midnightblue" d="M324.19,-56.44C346.01,-47.52 380.42,-33.44 405.16,-23.32"/>
<polygon fill="midnightblue" stroke="midnightblue" points="406.52,-26.54 414.45,-19.52 403.87,-20.06 406.52,-26.54"/>
</g>
<!-- Node16&#45;&gt;Node11 -->
<g id="edge24" class="edge">
<title>Node16&#45;&gt;Node11</title>
<path fill="none" stroke="midnightblue" d="M83.34,-168.28C92.54,-159.83 105.95,-146.23 114.27,-132 133.83,-98.54 145.35,-54.22 150.68,-29.56"/>
<polygon fill="midnightblue" stroke="midnightblue" points="154.11,-30.23 152.69,-19.73 147.25,-28.82 154.11,-30.23"/>
</g>
<!-- Node17 -->
<g id="node17" class="node">
<title>Node17</title>
<g id="a_node17"><a xlink:href="irep_8h.html" target="_top" xlink:title=" ">
<polygon fill="none" stroke="red" points="183.27,-112.5 183.27,-131.5 227.27,-131.5 227.27,-112.5 183.27,-112.5"/>
<text text-anchor="middle" x="205.27" y="-119.5" font-family="Helvetica,sans-Serif" font-size="10.00">irep.h</text>
</a>
</g>
</g>
<!-- Node16&#45;&gt;Node17 -->
<g id="edge19" class="edge">
<title>Node16&#45;&gt;Node17</title>
<path fill="none" stroke="midnightblue" d="M94.19,-168.44C116.01,-159.52 150.42,-145.44 175.16,-135.32"/>
<polygon fill="midnightblue" stroke="midnightblue" points="176.52,-138.54 184.45,-131.52 173.87,-132.06 176.52,-138.54"/>
</g>
<!-- Node33 -->
<g id="node19" class="node">
<title>Node33</title>
<g id="a_node19"><a xlink:href="optional_8h.html" target="_top" xlink:title=" ">
<polygon fill="none" stroke="red" points="40.77,-112.5 40.77,-131.5 105.77,-131.5 105.77,-112.5 40.77,-112.5"/>
<text text-anchor="middle" x="73.27" y="-119.5" font-family="Helvetica,sans-Serif" font-size="10.00">optional.h</text>
</a>
</g>
</g>
<!-- Node16&#45;&gt;Node33 -->
<g id="edge23" class="edge">
<title>Node16&#45;&gt;Node33</title>
<path fill="none" stroke="midnightblue" d="M73.27,-168.08C73.27,-161.01 73.27,-150.86 73.27,-141.99"/>
<polygon fill="midnightblue" stroke="midnightblue" points="76.77,-141.75 73.27,-131.75 69.77,-141.75 76.77,-141.75"/>
</g>
<!-- Node17&#45;&gt;Node11 -->
<g id="edge20" class="edge">
<title>Node17&#45;&gt;Node11</title>
<path fill="none" stroke="midnightblue" d="M201.27,-112.37C192.96,-94.46 173.71,-52.92 162.59,-28.95"/>
<polygon fill="midnightblue" stroke="midnightblue" points="165.63,-27.19 158.25,-19.59 159.28,-30.14 165.63,-27.19"/>
</g>
<!-- Node17&#45;&gt;Node13 -->
<g id="edge22" class="edge">
<title>Node17&#45;&gt;Node13</title>
<path fill="none" stroke="midnightblue" d="M221.02,-112.32C236.59,-103.74 260.65,-90.49 278.73,-80.52"/>
<polygon fill="midnightblue" stroke="midnightblue" points="280.49,-83.55 287.56,-75.65 277.12,-77.42 280.49,-83.55"/>
</g>
<!-- Node18 -->
<g id="node18" class="node">
<title>Node18</title>
<g id="a_node18"><a xlink:title=" ">
<polygon fill="none" stroke="#bfbfbf" points="202.77,-56.5 202.77,-75.5 249.77,-75.5 249.77,-56.5 202.77,-56.5"/>
<text text-anchor="middle" x="226.27" y="-63.5" font-family="Helvetica,sans-Serif" font-size="10.00">vector</text>
</a>
</g>
</g>
<!-- Node17&#45;&gt;Node18 -->
<g id="edge21" class="edge">
<title>Node17&#45;&gt;Node18</title>
<path fill="none" stroke="midnightblue" d="M208.74,-112.08C211.58,-104.77 215.7,-94.18 219.23,-85.1"/>
<polygon fill="midnightblue" stroke="midnightblue" points="222.5,-86.34 222.87,-75.75 215.98,-83.8 222.5,-86.34"/>
</g>
<!-- Node35&#45;&gt;Node5 -->
<g id="edge27" class="edge">
<title>Node35&#45;&gt;Node5</title>
<path fill="none" stroke="midnightblue" d="M461.68,-224.08C454.11,-216.22 442.89,-204.57 433.76,-195.08"/>
<polygon fill="midnightblue" stroke="midnightblue" points="436.15,-192.53 426.7,-187.75 431.11,-197.38 436.15,-192.53"/>
</g>
<!-- Node35&#45;&gt;Node18 -->
<g id="edge31" class="edge">
<title>Node35&#45;&gt;Node18</title>
<path fill="none" stroke="midnightblue" d="M469.98,-224.34C469.08,-210.75 465.48,-184.31 451.27,-168 424.79,-137.61 315.55,-97.29 259.61,-78.08"/>
<polygon fill="midnightblue" stroke="midnightblue" points="260.42,-74.66 249.82,-74.75 258.16,-81.29 260.42,-74.66"/>
</g>
<!-- Node32 -->
<g id="node21" class="node">
<title>Node32</title>
<g id="a_node21"><a xlink:href="narrow_8h.html" target="_top" xlink:title=" ">
<polygon fill="none" stroke="black" points="405.77,-112.5 405.77,-131.5 464.77,-131.5 464.77,-112.5 405.77,-112.5"/>
<text text-anchor="middle" x="435.27" y="-119.5" font-family="Helvetica,sans-Serif" font-size="10.00">narrow.h</text>
</a>
</g>
</g>
<!-- Node35&#45;&gt;Node32 -->
<g id="edge28" class="edge">
<title>Node35&#45;&gt;Node32</title>
<path fill="none" stroke="midnightblue" d="M475.45,-224.25C482.31,-211.43 492.63,-187.02 484.27,-168 478.88,-155.73 468.31,-145.34 458.37,-137.65"/>
<polygon fill="midnightblue" stroke="midnightblue" points="460.1,-134.58 449.93,-131.6 456.02,-140.27 460.1,-134.58"/>
</g>
<!-- Node32&#45;&gt;Node13 -->
<g id="edge30" class="edge">
<title>Node32&#45;&gt;Node13</title>
<path fill="none" stroke="midnightblue" d="M414.35,-112.44C392.53,-103.52 358.12,-89.44 333.38,-79.32"/>
<polygon fill="midnightblue" stroke="midnightblue" points="334.67,-76.06 324.09,-75.52 332.02,-82.54 334.67,-76.06"/>
</g>
<!-- Node32&#45;&gt;Node15 -->
<g id="edge29" class="edge">
<title>Node32&#45;&gt;Node15</title>
<path fill="none" stroke="midnightblue" d="M435.27,-112.37C435.27,-94.62 435.27,-53.67 435.27,-29.6"/>
<polygon fill="midnightblue" stroke="midnightblue" points="438.77,-29.59 435.27,-19.59 431.77,-29.59 438.77,-29.59"/>
</g>
</g>
</svg>
