<?xml version="1.0" encoding="UTF-8" standalone="no"?>
<!DOCTYPE svg PUBLIC "-//W3C//DTD SVG 1.1//EN"
 "http://www.w3.org/Graphics/SVG/1.1/DTD/svg11.dtd">
<!-- Generated by graphviz version 2.43.0 (0)
 -->
<!-- Title: /home/runner/work/cbmc/cbmc/src/ansi&#45;c/literals/convert_integer_literal.cpp Pages: 1 -->
<svg width="1365pt" height="834pt"
 viewBox="0.00 0.00 1365.00 834.00" xmlns="http://www.w3.org/2000/svg" xmlns:xlink="http://www.w3.org/1999/xlink">
<g id="graph0" class="graph" transform="scale(1 1) rotate(0) translate(4 830)">
<title>/home/runner/work/cbmc/cbmc/src/ansi&#45;c/literals/convert_integer_literal.cpp</title>
<!-- Node1 -->
<g id="node1" class="node">
<title>Node1</title>
<g id="a_node1"><a xlink:title=" ">
<polygon fill="#bfbfbf" stroke="black" points="774,-784.5 774,-825.5 924,-825.5 924,-784.5 774,-784.5"/>
<text text-anchor="start" x="782" y="-813.5" font-family="Helvetica,sans-Serif" font-size="10.00">/home/runner/work/cbmc</text>
<text text-anchor="start" x="782" y="-802.5" font-family="Helvetica,sans-Serif" font-size="10.00">/cbmc/src/ansi&#45;c/literals</text>
<text text-anchor="middle" x="849" y="-791.5" font-family="Helvetica,sans-Serif" font-size="10.00">/convert_integer_literal.cpp</text>
</a>
</g>
</g>
<!-- Node2 -->
<g id="node2" class="node">
<title>Node2</title>
<g id="a_node2"><a xlink:href="convert__integer__literal_8h.html" target="_top" xlink:title=" ">
<polygon fill="none" stroke="black" points="0,-560.5 0,-579.5 136,-579.5 136,-560.5 0,-560.5"/>
<text text-anchor="middle" x="68" y="-567.5" font-family="Helvetica,sans-Serif" font-size="10.00">convert_integer_literal.h</text>
</a>
</g>
</g>
<!-- Node1&#45;&gt;Node2 -->
<g id="edge1" class="edge">
<title>Node1&#45;&gt;Node2</title>
<path fill="none" stroke="midnightblue" d="M773.74,-796.69C641.64,-781.56 361.95,-739.19 150,-636 124.13,-623.41 98.88,-601.51 83.39,-586.65"/>
<polygon fill="midnightblue" stroke="midnightblue" points="85.81,-584.12 76.23,-579.6 80.9,-589.11 85.81,-584.12"/>
</g>
<!-- Node37 -->
<g id="node23" class="node">
<title>Node37</title>
<g id="a_node23"><a xlink:title=" ">
<polygon fill="none" stroke="#bfbfbf" points="733.5,-728.5 733.5,-747.5 782.5,-747.5 782.5,-728.5 733.5,-728.5"/>
<text text-anchor="middle" x="758" y="-735.5" font-family="Helvetica,sans-Serif" font-size="10.00">cctype</text>
</a>
</g>
</g>
<!-- Node1&#45;&gt;Node37 -->
<g id="edge35" class="edge">
<title>Node1&#45;&gt;Node37</title>
<path fill="none" stroke="midnightblue" d="M821.7,-784.5C807.74,-774.53 791.06,-762.61 778.27,-753.48"/>
<polygon fill="midnightblue" stroke="midnightblue" points="780.29,-750.62 770.11,-747.65 776.22,-756.31 780.29,-750.62"/>
</g>
<!-- Node38 -->
<g id="node24" class="node">
<title>Node38</title>
<g id="a_node24"><a xlink:href="arith__tools_8h.html" target="_top" xlink:title=" ">
<polygon fill="none" stroke="black" points="839,-728.5 839,-747.5 935,-747.5 935,-728.5 839,-728.5"/>
<text text-anchor="middle" x="887" y="-735.5" font-family="Helvetica,sans-Serif" font-size="10.00">util/arith_tools.h</text>
</a>
</g>
</g>
<!-- Node1&#45;&gt;Node38 -->
<g id="edge36" class="edge">
<title>Node1&#45;&gt;Node38</title>
<path fill="none" stroke="midnightblue" d="M860.4,-784.5C865.61,-775.59 871.73,-765.11 876.79,-756.46"/>
<polygon fill="midnightblue" stroke="midnightblue" points="879.92,-758.05 881.94,-747.65 873.87,-754.52 879.92,-758.05"/>
</g>
<!-- Node41 -->
<g id="node28" class="node">
<title>Node41</title>
<g id="a_node28"><a xlink:href="std__expr_8h.html" target="_top" xlink:title=" ">
<polygon fill="none" stroke="black" points="656.5,-672.5 656.5,-691.5 723.5,-691.5 723.5,-672.5 656.5,-672.5"/>
<text text-anchor="middle" x="690" y="-679.5" font-family="Helvetica,sans-Serif" font-size="10.00">std_expr.h</text>
</a>
</g>
</g>
<!-- Node1&#45;&gt;Node41 -->
<g id="edge68" class="edge">
<title>Node1&#45;&gt;Node41</title>
<path fill="none" stroke="midnightblue" d="M838.14,-784.28C828.04,-767.46 811.63,-743.6 792,-728 773.51,-713.31 749.47,-702.4 729.37,-695"/>
<polygon fill="midnightblue" stroke="midnightblue" points="730.46,-691.67 719.86,-691.65 728.13,-698.28 730.46,-691.67"/>
</g>
<!-- Node46 -->
<g id="node34" class="node">
<title>Node46</title>
<g id="a_node34"><a xlink:href="config_8h.html" target="_top" xlink:title=" ">
<polygon fill="none" stroke="black" points="1026,-672.5 1026,-691.5 1100,-691.5 1100,-672.5 1026,-672.5"/>
<text text-anchor="middle" x="1063" y="-679.5" font-family="Helvetica,sans-Serif" font-size="10.00">util/config.h</text>
</a>
</g>
</g>
<!-- Node1&#45;&gt;Node46 -->
<g id="edge59" class="edge">
<title>Node1&#45;&gt;Node46</title>
<path fill="none" stroke="midnightblue" d="M883.86,-784.29C927.53,-759.6 1001.22,-717.93 1039.03,-696.55"/>
<polygon fill="midnightblue" stroke="midnightblue" points="1040.85,-699.54 1047.83,-691.57 1037.41,-693.45 1040.85,-699.54"/>
</g>
<!-- Node50 -->
<g id="node39" class="node">
<title>Node50</title>
<g id="a_node39"><a xlink:href="string2int_8h.html" target="_top" xlink:title=" ">
<polygon fill="none" stroke="black" points="1091.5,-280.5 1091.5,-299.5 1182.5,-299.5 1182.5,-280.5 1091.5,-280.5"/>
<text text-anchor="middle" x="1137" y="-287.5" font-family="Helvetica,sans-Serif" font-size="10.00">util/string2int.h</text>
</a>
</g>
</g>
<!-- Node1&#45;&gt;Node50 -->
<g id="edge69" class="edge">
<title>Node1&#45;&gt;Node50</title>
<path fill="none" stroke="midnightblue" d="M924.23,-801.61C1065.64,-795.05 1357,-770.89 1357,-683 1357,-683 1357,-683 1357,-401 1357,-327.63 1257.91,-303.2 1192.73,-295.06"/>
<polygon fill="midnightblue" stroke="midnightblue" points="1192.92,-291.56 1182.58,-293.89 1192.12,-298.51 1192.92,-291.56"/>
</g>
<!-- Node3 -->
<g id="node3" class="node">
<title>Node3</title>
<g id="a_node3"><a xlink:title=" ">
<polygon fill="none" stroke="#bfbfbf" points="236,-0.5 236,-19.5 280,-19.5 280,-0.5 236,-0.5"/>
<text text-anchor="middle" x="258" y="-7.5" font-family="Helvetica,sans-Serif" font-size="10.00">string</text>
</a>
</g>
</g>
<!-- Node2&#45;&gt;Node3 -->
<g id="edge2" class="edge">
<title>Node2&#45;&gt;Node3</title>
<path fill="none" stroke="midnightblue" d="M69.31,-560.47C72.02,-542.01 78,-496.97 78,-459 78,-459 78,-459 78,-121 78,-52.47 174.16,-25.36 225.91,-15.72"/>
<polygon fill="midnightblue" stroke="midnightblue" points="226.68,-19.14 235.93,-13.97 225.48,-12.25 226.68,-19.14"/>
</g>
<!-- Node4 -->
<g id="node4" class="node">
<title>Node4</title>
<g id="a_node4"><a xlink:href="expr_8h.html" target="_top" xlink:title=" ">
<polygon fill="none" stroke="black" points="402.5,-504.5 402.5,-523.5 467.5,-523.5 467.5,-504.5 402.5,-504.5"/>
<text text-anchor="middle" x="435" y="-511.5" font-family="Helvetica,sans-Serif" font-size="10.00">util/expr.h</text>
</a>
</g>
</g>
<!-- Node2&#45;&gt;Node4 -->
<g id="edge3" class="edge">
<title>Node2&#45;&gt;Node4</title>
<path fill="none" stroke="midnightblue" d="M126.15,-560.44C200.21,-549.55 326.44,-530.97 392.24,-521.29"/>
<polygon fill="midnightblue" stroke="midnightblue" points="392.88,-524.73 402.27,-519.82 391.86,-517.81 392.88,-524.73"/>
</g>
<!-- Node5 -->
<g id="node5" class="node">
<title>Node5</title>
<g id="a_node5"><a xlink:href="as__const_8h.html" target="_top" xlink:title=" ">
<polygon fill="none" stroke="black" points="541,-112.5 541,-131.5 609,-131.5 609,-112.5 541,-112.5"/>
<text text-anchor="middle" x="575" y="-119.5" font-family="Helvetica,sans-Serif" font-size="10.00">as_const.h</text>
</a>
</g>
</g>
<!-- Node4&#45;&gt;Node5 -->
<g id="edge4" class="edge">
<title>Node4&#45;&gt;Node5</title>
<path fill="none" stroke="midnightblue" d="M402.17,-511.18C346.93,-507.35 239.12,-496.35 216,-468 178.93,-422.53 189.27,-388.22 216,-336 279.41,-212.11 449.7,-154.23 530.84,-133.04"/>
<polygon fill="midnightblue" stroke="midnightblue" points="531.92,-136.38 540.75,-130.52 530.19,-129.6 531.92,-136.38"/>
</g>
<!-- Node6 -->
<g id="node6" class="node">
<title>Node6</title>
<g id="a_node6"><a xlink:href="type_8h.html" target="_top" xlink:title=" ">
<polygon fill="none" stroke="black" points="411.5,-448.5 411.5,-467.5 458.5,-467.5 458.5,-448.5 411.5,-448.5"/>
<text text-anchor="middle" x="435" y="-455.5" font-family="Helvetica,sans-Serif" font-size="10.00">type.h</text>
</a>
</g>
</g>
<!-- Node4&#45;&gt;Node6 -->
<g id="edge5" class="edge">
<title>Node4&#45;&gt;Node6</title>
<path fill="none" stroke="midnightblue" d="M435,-504.08C435,-497.01 435,-486.86 435,-477.99"/>
<polygon fill="midnightblue" stroke="midnightblue" points="438.5,-477.75 435,-467.75 431.5,-477.75 438.5,-477.75"/>
</g>
<!-- Node33 -->
<g id="node19" class="node">
<title>Node33</title>
<g id="a_node19"><a xlink:href="validation__mode_8h.html" target="_top" xlink:title=" ">
<polygon fill="none" stroke="black" points="225.5,-336.5 225.5,-355.5 332.5,-355.5 332.5,-336.5 225.5,-336.5"/>
<text text-anchor="middle" x="279" y="-343.5" font-family="Helvetica,sans-Serif" font-size="10.00">validation_mode.h</text>
</a>
</g>
</g>
<!-- Node4&#45;&gt;Node33 -->
<g id="edge33" class="edge">
<title>Node4&#45;&gt;Node33</title>
<path fill="none" stroke="midnightblue" d="M424.86,-504.29C405.4,-487.36 361.81,-448.47 329,-412 315.07,-396.52 300.74,-377.51 291.01,-364.06"/>
<polygon fill="midnightblue" stroke="midnightblue" points="293.73,-361.85 285.07,-355.75 288.04,-365.92 293.73,-361.85"/>
</g>
<!-- Node34 -->
<g id="node20" class="node">
<title>Node34</title>
<g id="a_node20"><a xlink:href="validate__types_8h.html" target="_top" xlink:title=" ">
<polygon fill="none" stroke="black" points="399,-392.5 399,-411.5 497,-411.5 497,-392.5 399,-392.5"/>
<text text-anchor="middle" x="448" y="-399.5" font-family="Helvetica,sans-Serif" font-size="10.00">validate_types.h</text>
</a>
</g>
</g>
<!-- Node4&#45;&gt;Node34 -->
<g id="edge32" class="edge">
<title>Node4&#45;&gt;Node34</title>
<path fill="none" stroke="midnightblue" d="M444.02,-504.34C452.07,-495.93 463.3,-482.36 468,-468 473.21,-452.08 466.51,-433.85 459.49,-420.75"/>
<polygon fill="midnightblue" stroke="midnightblue" points="462.35,-418.71 454.26,-411.86 456.32,-422.26 462.35,-418.71"/>
</g>
<!-- Node35 -->
<g id="node21" class="node">
<title>Node35</title>
<g id="a_node21"><a xlink:href="validate__expressions_8h.html" target="_top" xlink:title=" ">
<polygon fill="none" stroke="black" points="225.5,-448.5 225.5,-467.5 354.5,-467.5 354.5,-448.5 225.5,-448.5"/>
<text text-anchor="middle" x="290" y="-455.5" font-family="Helvetica,sans-Serif" font-size="10.00">validate_expressions.h</text>
</a>
</g>
</g>
<!-- Node4&#45;&gt;Node35 -->
<g id="edge31" class="edge">
<title>Node4&#45;&gt;Node35</title>
<path fill="none" stroke="midnightblue" d="M412.02,-504.44C387.84,-495.44 349.58,-481.19 322.35,-471.05"/>
<polygon fill="midnightblue" stroke="midnightblue" points="323.46,-467.73 312.87,-467.52 321.02,-474.29 323.46,-467.73"/>
</g>
<!-- Node36 -->
<g id="node22" class="node">
<title>Node36</title>
<g id="a_node22"><a xlink:title=" ">
<polygon fill="none" stroke="#bfbfbf" points="515.5,-448.5 515.5,-467.5 580.5,-467.5 580.5,-448.5 515.5,-448.5"/>
<text text-anchor="middle" x="548" y="-455.5" font-family="Helvetica,sans-Serif" font-size="10.00">functional</text>
</a>
</g>
</g>
<!-- Node4&#45;&gt;Node36 -->
<g id="edge34" class="edge">
<title>Node4&#45;&gt;Node36</title>
<path fill="none" stroke="midnightblue" d="M452.91,-504.44C471.25,-495.68 500.01,-481.94 521.09,-471.86"/>
<polygon fill="midnightblue" stroke="midnightblue" points="522.67,-474.99 530.18,-467.52 519.65,-468.67 522.67,-474.99"/>
</g>
<!-- Node7 -->
<g id="node7" class="node">
<title>Node7</title>
<g id="a_node7"><a xlink:href="source__location_8h.html" target="_top" xlink:title=" ">
<polygon fill="none" stroke="black" points="387,-280.5 387,-299.5 489,-299.5 489,-280.5 387,-280.5"/>
<text text-anchor="middle" x="438" y="-287.5" font-family="Helvetica,sans-Serif" font-size="10.00">source_location.h</text>
</a>
</g>
</g>
<!-- Node6&#45;&gt;Node7 -->
<g id="edge6" class="edge">
<title>Node6&#45;&gt;Node7</title>
<path fill="none" stroke="midnightblue" d="M421.47,-448.38C404,-436.13 377.27,-412.85 390,-392 408.22,-362.14 441.78,-385.86 460,-356 469.18,-340.96 460.41,-321.61 451.37,-307.94"/>
<polygon fill="midnightblue" stroke="midnightblue" points="453.97,-305.57 445.28,-299.51 448.3,-309.67 453.97,-305.57"/>
</g>
<!-- Node31 -->
<g id="node17" class="node">
<title>Node31</title>
<g id="a_node17"><a xlink:href="validate_8h.html" target="_top" xlink:title=" ">
<polygon fill="none" stroke="black" points="515.5,-392.5 515.5,-411.5 580.5,-411.5 580.5,-392.5 515.5,-392.5"/>
<text text-anchor="middle" x="548" y="-399.5" font-family="Helvetica,sans-Serif" font-size="10.00">validate.h</text>
</a>
</g>
</g>
<!-- Node6&#45;&gt;Node31 -->
<g id="edge22" class="edge">
<title>Node6&#45;&gt;Node31</title>
<path fill="none" stroke="midnightblue" d="M452.91,-448.44C471.25,-439.68 500.01,-425.94 521.09,-415.86"/>
<polygon fill="midnightblue" stroke="midnightblue" points="522.67,-418.99 530.18,-411.52 519.65,-412.67 522.67,-418.99"/>
</g>
<!-- Node6&#45;&gt;Node33 -->
<g id="edge30" class="edge">
<title>Node6&#45;&gt;Node33</title>
<path fill="none" stroke="midnightblue" d="M418.37,-448.48C402.22,-439.96 377.26,-426.13 357,-412 334.8,-396.52 311.17,-376.22 295.81,-362.46"/>
<polygon fill="midnightblue" stroke="midnightblue" points="297.95,-359.67 288.19,-355.55 293.25,-364.86 297.95,-359.67"/>
</g>
<!-- Node6&#45;&gt;Node34 -->
<g id="edge29" class="edge">
<title>Node6&#45;&gt;Node34</title>
<path fill="none" stroke="midnightblue" d="M437.15,-448.08C438.87,-440.93 441.35,-430.64 443.5,-421.69"/>
<polygon fill="midnightblue" stroke="midnightblue" points="446.96,-422.29 445.89,-411.75 440.15,-420.65 446.96,-422.29"/>
</g>
<!-- Node7&#45;&gt;Node3 -->
<g id="edge21" class="edge">
<title>Node7&#45;&gt;Node3</title>
<path fill="none" stroke="midnightblue" d="M386.67,-283.26C354.19,-277.56 312.69,-266.27 282,-244 233.31,-208.67 223.67,-189.5 206,-132 196.08,-99.71 191.96,-86.72 206,-56 211.78,-43.36 223.05,-32.91 233.63,-25.27"/>
<polygon fill="midnightblue" stroke="midnightblue" points="235.85,-28 242.22,-19.53 231.96,-22.18 235.85,-28"/>
</g>
<!-- Node8 -->
<g id="node8" class="node">
<title>Node8</title>
<g id="a_node8"><a xlink:href="irep_8h.html" target="_top" xlink:title=" ">
<polygon fill="none" stroke="black" points="459,-224.5 459,-243.5 503,-243.5 503,-224.5 459,-224.5"/>
<text text-anchor="middle" x="481" y="-231.5" font-family="Helvetica,sans-Serif" font-size="10.00">irep.h</text>
</a>
</g>
</g>
<!-- Node7&#45;&gt;Node8 -->
<g id="edge7" class="edge">
<title>Node7&#45;&gt;Node8</title>
<path fill="none" stroke="midnightblue" d="M445.1,-280.08C451.24,-272.38 460.27,-261.03 467.74,-251.65"/>
<polygon fill="midnightblue" stroke="midnightblue" points="470.54,-253.75 474.03,-243.75 465.06,-249.39 470.54,-253.75"/>
</g>
<!-- Node29 -->
<g id="node15" class="node">
<title>Node29</title>
<g id="a_node15"><a xlink:href="optional_8h.html" target="_top" xlink:title=" ">
<polygon fill="none" stroke="black" points="965.5,-224.5 965.5,-243.5 1030.5,-243.5 1030.5,-224.5 965.5,-224.5"/>
<text text-anchor="middle" x="998" y="-231.5" font-family="Helvetica,sans-Serif" font-size="10.00">optional.h</text>
</a>
</g>
</g>
<!-- Node7&#45;&gt;Node29 -->
<g id="edge19" class="edge">
<title>Node7&#45;&gt;Node29</title>
<path fill="none" stroke="midnightblue" d="M489.18,-284.06C598.58,-273.52 853.46,-248.94 955.07,-239.14"/>
<polygon fill="midnightblue" stroke="midnightblue" points="955.65,-242.6 965.27,-238.16 954.98,-235.63 955.65,-242.6"/>
</g>
<!-- Node8&#45;&gt;Node3 -->
<g id="edge8" class="edge">
<title>Node8&#45;&gt;Node3</title>
<path fill="none" stroke="midnightblue" d="M472.26,-224.3C438.75,-190.94 318.19,-70.92 274.21,-27.13"/>
<polygon fill="midnightblue" stroke="midnightblue" points="276.48,-24.46 266.92,-19.88 271.54,-29.42 276.48,-24.46"/>
</g>
<!-- Node9 -->
<g id="node9" class="node">
<title>Node9</title>
<g id="a_node9"><a xlink:title=" ">
<polygon fill="none" stroke="#bfbfbf" points="457.5,-168.5 457.5,-187.5 504.5,-187.5 504.5,-168.5 457.5,-168.5"/>
<text text-anchor="middle" x="481" y="-175.5" font-family="Helvetica,sans-Serif" font-size="10.00">vector</text>
</a>
</g>
</g>
<!-- Node8&#45;&gt;Node9 -->
<g id="edge9" class="edge">
<title>Node8&#45;&gt;Node9</title>
<path fill="none" stroke="midnightblue" d="M481,-224.08C481,-217.01 481,-206.86 481,-197.99"/>
<polygon fill="midnightblue" stroke="midnightblue" points="484.5,-197.75 481,-187.75 477.5,-197.75 484.5,-197.75"/>
</g>
<!-- Node10 -->
<g id="node10" class="node">
<title>Node10</title>
<g id="a_node10"><a xlink:href="src_2util_2invariant_8h.html" target="_top" xlink:title=" ">
<polygon fill="none" stroke="red" points="394.5,-56.5 394.5,-75.5 463.5,-75.5 463.5,-56.5 394.5,-56.5"/>
<text text-anchor="middle" x="429" y="-63.5" font-family="Helvetica,sans-Serif" font-size="10.00">invariant.h</text>
</a>
</g>
</g>
<!-- Node8&#45;&gt;Node10 -->
<g id="edge10" class="edge">
<title>Node8&#45;&gt;Node10</title>
<path fill="none" stroke="midnightblue" d="M473.06,-224.42C465.61,-215.86 454.77,-202 449,-188 434.85,-153.67 430.7,-109.97 429.49,-85.59"/>
<polygon fill="midnightblue" stroke="midnightblue" points="432.98,-85.43 429.11,-75.57 425.99,-85.7 432.98,-85.43"/>
</g>
<!-- Node14 -->
<g id="node12" class="node">
<title>Node14</title>
<g id="a_node12"><a xlink:href="irep__ids_8h.html" target="_top" xlink:title=" ">
<polygon fill="none" stroke="red" points="523,-168.5 523,-187.5 587,-187.5 587,-168.5 523,-168.5"/>
<text text-anchor="middle" x="555" y="-175.5" font-family="Helvetica,sans-Serif" font-size="10.00">irep_ids.h</text>
</a>
</g>
</g>
<!-- Node8&#45;&gt;Node14 -->
<g id="edge13" class="edge">
<title>Node8&#45;&gt;Node14</title>
<path fill="none" stroke="midnightblue" d="M492.89,-224.32C504.15,-216.11 521.29,-203.6 534.71,-193.81"/>
<polygon fill="midnightblue" stroke="midnightblue" points="536.88,-196.56 542.89,-187.83 532.75,-190.9 536.88,-196.56"/>
</g>
<!-- Node25 -->
<g id="node13" class="node">
<title>Node25</title>
<g id="a_node13"><a xlink:href="forward__list__as__map_8h.html" target="_top" xlink:title=" ">
<polygon fill="none" stroke="red" points="605.5,-168.5 605.5,-187.5 732.5,-187.5 732.5,-168.5 605.5,-168.5"/>
<text text-anchor="middle" x="669" y="-175.5" font-family="Helvetica,sans-Serif" font-size="10.00">forward_list_as_map.h</text>
</a>
</g>
</g>
<!-- Node8&#45;&gt;Node25 -->
<g id="edge14" class="edge">
<title>Node8&#45;&gt;Node25</title>
<path fill="none" stroke="midnightblue" d="M503.3,-226.59C534.38,-217.67 591.18,-201.35 629.51,-190.34"/>
<polygon fill="midnightblue" stroke="midnightblue" points="630.66,-193.65 639.31,-187.53 628.73,-186.93 630.66,-193.65"/>
</g>
<!-- Node10&#45;&gt;Node3 -->
<g id="edge11" class="edge">
<title>Node10&#45;&gt;Node3</title>
<path fill="none" stroke="midnightblue" d="M401.9,-56.44C371.48,-46.84 322.16,-31.26 289.9,-21.07"/>
<polygon fill="midnightblue" stroke="midnightblue" points="290.66,-17.64 280.07,-17.97 288.56,-24.32 290.66,-17.64"/>
</g>
<!-- Node13 -->
<g id="node11" class="node">
<title>Node13</title>
<g id="a_node11"><a xlink:title=" ">
<polygon fill="none" stroke="#bfbfbf" points="782.5,-0.5 782.5,-19.5 851.5,-19.5 851.5,-0.5 782.5,-0.5"/>
<text text-anchor="middle" x="817" y="-7.5" font-family="Helvetica,sans-Serif" font-size="10.00">type_traits</text>
</a>
</g>
</g>
<!-- Node10&#45;&gt;Node13 -->
<g id="edge12" class="edge">
<title>Node10&#45;&gt;Node13</title>
<path fill="none" stroke="midnightblue" d="M463.77,-60.16C534.36,-50.34 694.34,-28.07 772.43,-17.2"/>
<polygon fill="midnightblue" stroke="midnightblue" points="773.02,-20.65 782.44,-15.81 772.06,-13.72 773.02,-20.65"/>
</g>
<!-- Node25&#45;&gt;Node5 -->
<g id="edge15" class="edge">
<title>Node25&#45;&gt;Node5</title>
<path fill="none" stroke="midnightblue" d="M653.9,-168.32C639.1,-159.82 616.31,-146.73 599.02,-136.8"/>
<polygon fill="midnightblue" stroke="midnightblue" points="600.48,-133.6 590.07,-131.65 596.99,-139.67 600.48,-133.6"/>
</g>
<!-- Node28 -->
<g id="node14" class="node">
<title>Node28</title>
<g id="a_node14"><a xlink:href="narrow_8h.html" target="_top" xlink:title=" ">
<polygon fill="none" stroke="black" points="787.5,-112.5 787.5,-131.5 846.5,-131.5 846.5,-112.5 787.5,-112.5"/>
<text text-anchor="middle" x="817" y="-119.5" font-family="Helvetica,sans-Serif" font-size="10.00">narrow.h</text>
</a>
</g>
</g>
<!-- Node25&#45;&gt;Node28 -->
<g id="edge16" class="edge">
<title>Node25&#45;&gt;Node28</title>
<path fill="none" stroke="midnightblue" d="M692.45,-168.44C717.13,-159.44 756.19,-145.19 783.98,-135.05"/>
<polygon fill="midnightblue" stroke="midnightblue" points="785.46,-138.23 793.66,-131.52 783.06,-131.66 785.46,-138.23"/>
</g>
<!-- Node28&#45;&gt;Node10 -->
<g id="edge18" class="edge">
<title>Node28&#45;&gt;Node10</title>
<path fill="none" stroke="midnightblue" d="M787.23,-114.61C782.48,-113.68 777.61,-112.77 773,-112 666.15,-94.11 539.62,-79.14 473.82,-71.82"/>
<polygon fill="midnightblue" stroke="midnightblue" points="474.11,-68.34 463.79,-70.72 473.34,-75.29 474.11,-68.34"/>
</g>
<!-- Node28&#45;&gt;Node13 -->
<g id="edge17" class="edge">
<title>Node28&#45;&gt;Node13</title>
<path fill="none" stroke="midnightblue" d="M817,-112.37C817,-94.62 817,-53.67 817,-29.6"/>
<polygon fill="midnightblue" stroke="midnightblue" points="820.5,-29.59 817,-19.59 813.5,-29.59 820.5,-29.59"/>
</g>
<!-- Node30 -->
<g id="node16" class="node">
<title>Node30</title>
<g id="a_node16"><a xlink:title=" ">
<polygon fill="none" stroke="#bfbfbf" points="941.5,-168.5 941.5,-187.5 1054.5,-187.5 1054.5,-168.5 941.5,-168.5"/>
<text text-anchor="middle" x="998" y="-175.5" font-family="Helvetica,sans-Serif" font-size="10.00">nonstd/optional.hpp</text>
</a>
</g>
</g>
<!-- Node29&#45;&gt;Node30 -->
<g id="edge20" class="edge">
<title>Node29&#45;&gt;Node30</title>
<path fill="none" stroke="midnightblue" d="M998,-224.08C998,-217.01 998,-206.86 998,-197.99"/>
<polygon fill="midnightblue" stroke="midnightblue" points="1001.5,-197.75 998,-187.75 994.5,-197.75 1001.5,-197.75"/>
</g>
<!-- Node31&#45;&gt;Node13 -->
<g id="edge23" class="edge">
<title>Node31&#45;&gt;Node13</title>
<path fill="none" stroke="midnightblue" d="M546.86,-392.33C543.51,-370.39 531.75,-312.12 498,-280 463.48,-247.15 440.21,-264.09 397,-244 352.21,-223.17 325.6,-230.83 301,-188 296.57,-180.29 298.19,-176.43 301,-168 320.68,-108.97 330.87,-86.68 385,-56 450.36,-18.97 675.65,-12.32 772.35,-11.19"/>
<polygon fill="midnightblue" stroke="midnightblue" points="772.43,-14.69 782.39,-11.09 772.35,-7.69 772.43,-14.69"/>
</g>
<!-- Node32 -->
<g id="node18" class="node">
<title>Node32</title>
<g id="a_node18"><a xlink:href="exception__utils_8h.html" target="_top" xlink:title=" ">
<polygon fill="none" stroke="black" points="351,-336.5 351,-355.5 451,-355.5 451,-336.5 351,-336.5"/>
<text text-anchor="middle" x="401" y="-343.5" font-family="Helvetica,sans-Serif" font-size="10.00">exception_utils.h</text>
</a>
</g>
</g>
<!-- Node31&#45;&gt;Node32 -->
<g id="edge24" class="edge">
<title>Node31&#45;&gt;Node32</title>
<path fill="none" stroke="midnightblue" d="M524.71,-392.44C500.19,-383.44 461.4,-369.19 433.8,-359.05"/>
<polygon fill="midnightblue" stroke="midnightblue" points="434.78,-355.68 424.18,-355.52 432.36,-362.25 434.78,-355.68"/>
</g>
<!-- Node31&#45;&gt;Node33 -->
<g id="edge28" class="edge">
<title>Node31&#45;&gt;Node33</title>
<path fill="none" stroke="midnightblue" d="M515.45,-393.97C512.26,-393.3 509.07,-392.63 506,-392 446.92,-379.81 379.06,-366.44 333.04,-357.47"/>
<polygon fill="midnightblue" stroke="midnightblue" points="333.47,-353.99 322.98,-355.51 332.13,-360.86 333.47,-353.99"/>
</g>
<!-- Node32&#45;&gt;Node3 -->
<g id="edge25" class="edge">
<title>Node32&#45;&gt;Node3</title>
<path fill="none" stroke="midnightblue" d="M353.5,-336.48C273.62,-320.79 121,-284.36 121,-235 121,-235 121,-235 121,-121 121,-67.18 186.09,-35.29 226.54,-20.67"/>
<polygon fill="midnightblue" stroke="midnightblue" points="227.68,-23.98 235.99,-17.41 225.39,-17.36 227.68,-23.98"/>
</g>
<!-- Node32&#45;&gt;Node7 -->
<g id="edge27" class="edge">
<title>Node32&#45;&gt;Node7</title>
<path fill="none" stroke="midnightblue" d="M407.11,-336.08C412.28,-328.53 419.85,-317.49 426.19,-308.23"/>
<polygon fill="midnightblue" stroke="midnightblue" points="429.24,-309.98 432,-299.75 423.46,-306.02 429.24,-309.98"/>
</g>
<!-- Node32&#45;&gt;Node10 -->
<g id="edge26" class="edge">
<title>Node32&#45;&gt;Node10</title>
<path fill="none" stroke="midnightblue" d="M389.24,-336.17C357.18,-310.95 272.47,-236.02 301,-168 319.06,-124.94 366.98,-95.44 398.79,-79.9"/>
<polygon fill="midnightblue" stroke="midnightblue" points="400.53,-82.95 408.09,-75.53 397.55,-76.62 400.53,-82.95"/>
</g>
<!-- Node38&#45;&gt;Node10 -->
<g id="edge37" class="edge">
<title>Node38&#45;&gt;Node10</title>
<path fill="none" stroke="midnightblue" d="M884.27,-728.5C869.42,-682.22 799,-462.62 799,-459 799,-459 799,-459 799,-233 799,-92.05 572.71,-70.03 474.07,-67.13"/>
<polygon fill="midnightblue" stroke="midnightblue" points="473.89,-63.63 463.81,-66.89 473.72,-70.62 473.89,-63.63"/>
</g>
<!-- Node38&#45;&gt;Node29 -->
<g id="edge42" class="edge">
<title>Node38&#45;&gt;Node29</title>
<path fill="none" stroke="midnightblue" d="M913.16,-728.49C931.04,-721.4 953.94,-709.6 968,-692 986.79,-668.48 987,-657.1 987,-627 987,-627 987,-627 987,-345 987,-312.79 991.73,-275.53 994.98,-253.69"/>
<polygon fill="midnightblue" stroke="midnightblue" points="998.49,-253.95 996.56,-243.53 991.57,-252.87 998.49,-253.95"/>
</g>
<!-- Node39 -->
<g id="node25" class="node">
<title>Node39</title>
<g id="a_node25"><a xlink:href="mp__arith_8h.html" target="_top" xlink:title=" ">
<polygon fill="none" stroke="black" points="877.5,-560.5 877.5,-579.5 946.5,-579.5 946.5,-560.5 877.5,-560.5"/>
<text text-anchor="middle" x="912" y="-567.5" font-family="Helvetica,sans-Serif" font-size="10.00">mp_arith.h</text>
</a>
</g>
</g>
<!-- Node38&#45;&gt;Node39 -->
<g id="edge38" class="edge">
<title>Node38&#45;&gt;Node39</title>
<path fill="none" stroke="midnightblue" d="M888.34,-728.08C892.28,-701.95 903.84,-625.21 909.2,-589.58"/>
<polygon fill="midnightblue" stroke="midnightblue" points="912.68,-589.98 910.71,-579.57 905.76,-588.94 912.68,-589.98"/>
</g>
<!-- Node38&#45;&gt;Node41 -->
<g id="edge43" class="edge">
<title>Node38&#45;&gt;Node41</title>
<path fill="none" stroke="midnightblue" d="M855.78,-728.44C822.07,-719.2 768.2,-704.44 731.07,-694.26"/>
<polygon fill="midnightblue" stroke="midnightblue" points="731.64,-690.78 721.07,-691.52 729.79,-697.54 731.64,-690.78"/>
</g>
<!-- Node45 -->
<g id="node33" class="node">
<title>Node45</title>
<g id="a_node33"><a xlink:title=" ">
<polygon fill="none" stroke="#bfbfbf" points="915,-672.5 915,-691.5 959,-691.5 959,-672.5 915,-672.5"/>
<text text-anchor="middle" x="937" y="-679.5" font-family="Helvetica,sans-Serif" font-size="10.00">limits</text>
</a>
</g>
</g>
<!-- Node38&#45;&gt;Node45 -->
<g id="edge58" class="edge">
<title>Node38&#45;&gt;Node45</title>
<path fill="none" stroke="midnightblue" d="M895.26,-728.08C902.46,-720.3 913.11,-708.8 921.85,-699.37"/>
<polygon fill="midnightblue" stroke="midnightblue" points="924.67,-701.47 928.9,-691.75 919.53,-696.71 924.67,-701.47"/>
</g>
<!-- Node39&#45;&gt;Node3 -->
<g id="edge40" class="edge">
<title>Node39&#45;&gt;Node3</title>
<path fill="none" stroke="midnightblue" d="M894.5,-560.46C881.21,-552.92 863.92,-540.53 856,-524 852.16,-515.98 855.47,-512.87 856,-504 860.23,-433.84 875,-417.29 875,-347 875,-347 875,-347 875,-121 875,-61.07 417.97,-22.82 290.6,-13.32"/>
<polygon fill="midnightblue" stroke="midnightblue" points="290.55,-9.81 280.32,-12.56 290.04,-16.79 290.55,-9.81"/>
</g>
<!-- Node16 -->
<g id="node26" class="node">
<title>Node16</title>
<g id="a_node26"><a xlink:title=" ">
<polygon fill="none" stroke="#bfbfbf" points="1186,-504.5 1186,-523.5 1234,-523.5 1234,-504.5 1186,-504.5"/>
<text text-anchor="middle" x="1210" y="-511.5" font-family="Helvetica,sans-Serif" font-size="10.00">iosfwd</text>
</a>
</g>
</g>
<!-- Node39&#45;&gt;Node16 -->
<g id="edge39" class="edge">
<title>Node39&#45;&gt;Node16</title>
<path fill="none" stroke="midnightblue" d="M946.77,-562.7C1004.29,-552.28 1118.59,-531.56 1175.77,-521.2"/>
<polygon fill="midnightblue" stroke="midnightblue" points="1176.53,-524.62 1185.75,-519.39 1175.29,-517.73 1176.53,-524.62"/>
</g>
<!-- Node40 -->
<g id="node27" class="node">
<title>Node40</title>
<g id="a_node27"><a xlink:title=" ">
<polygon fill="none" stroke="#bfbfbf" points="865,-504.5 865,-523.5 959,-523.5 959,-504.5 865,-504.5"/>
<text text-anchor="middle" x="912" y="-511.5" font-family="Helvetica,sans-Serif" font-size="10.00">big&#45;int/bigint.hh</text>
</a>
</g>
</g>
<!-- Node39&#45;&gt;Node40 -->
<g id="edge41" class="edge">
<title>Node39&#45;&gt;Node40</title>
<path fill="none" stroke="midnightblue" d="M912,-560.08C912,-553.01 912,-542.86 912,-533.99"/>
<polygon fill="midnightblue" stroke="midnightblue" points="915.5,-533.75 912,-523.75 908.5,-533.75 915.5,-533.75"/>
</g>
<!-- Node41&#45;&gt;Node10 -->
<g id="edge50" class="edge">
<title>Node41&#45;&gt;Node10</title>
<path fill="none" stroke="midnightblue" d="M656.38,-679.3C539.66,-671.45 159,-628.54 159,-403 159,-403 159,-403 159,-289 159,-170.67 315.65,-103.8 390.31,-78.65"/>
<polygon fill="midnightblue" stroke="midnightblue" points="391.44,-81.96 399.85,-75.52 389.26,-75.31 391.44,-81.96"/>
</g>
<!-- Node42 -->
<g id="node29" class="node">
<title>Node42</title>
<g id="a_node29"><a xlink:href="expr__cast_8h.html" target="_top" xlink:title="Templated functions to cast to specific exprt&#45;derived classes.">
<polygon fill="none" stroke="black" points="559.5,-560.5 559.5,-579.5 632.5,-579.5 632.5,-560.5 559.5,-560.5"/>
<text text-anchor="middle" x="596" y="-567.5" font-family="Helvetica,sans-Serif" font-size="10.00">expr_cast.h</text>
</a>
</g>
</g>
<!-- Node41&#45;&gt;Node42 -->
<g id="edge44" class="edge">
<title>Node41&#45;&gt;Node42</title>
<path fill="none" stroke="midnightblue" d="M680.65,-672.39C671.28,-663.58 656.6,-649.34 645,-636 631.44,-620.4 617.38,-601.41 607.82,-588"/>
<polygon fill="midnightblue" stroke="midnightblue" points="610.6,-585.87 601.98,-579.71 604.88,-589.9 610.6,-585.87"/>
</g>
<!-- Node44 -->
<g id="node31" class="node">
<title>Node44</title>
<g id="a_node31"><a xlink:href="std__types_8h.html" target="_top" xlink:title=" ">
<polygon fill="none" stroke="black" points="653.5,-616.5 653.5,-635.5 726.5,-635.5 726.5,-616.5 653.5,-616.5"/>
<text text-anchor="middle" x="690" y="-623.5" font-family="Helvetica,sans-Serif" font-size="10.00">std_types.h</text>
</a>
</g>
</g>
<!-- Node41&#45;&gt;Node44 -->
<g id="edge51" class="edge">
<title>Node41&#45;&gt;Node44</title>
<path fill="none" stroke="midnightblue" d="M690,-672.08C690,-665.01 690,-654.86 690,-645.99"/>
<polygon fill="midnightblue" stroke="midnightblue" points="693.5,-645.75 690,-635.75 686.5,-645.75 693.5,-645.75"/>
</g>
<!-- Node42&#45;&gt;Node4 -->
<g id="edge49" class="edge">
<title>Node42&#45;&gt;Node4</title>
<path fill="none" stroke="midnightblue" d="M570.49,-560.44C543.4,-551.36 500.41,-536.94 470.13,-526.78"/>
<polygon fill="midnightblue" stroke="midnightblue" points="470.99,-523.38 460.39,-523.52 468.76,-530.01 470.99,-523.38"/>
</g>
<!-- Node42&#45;&gt;Node10 -->
<g id="edge48" class="edge">
<title>Node42&#45;&gt;Node10</title>
<path fill="none" stroke="midnightblue" d="M597.26,-560.27C600.73,-534.06 608.94,-454.05 590,-392 572.86,-335.86 563.21,-319.74 520,-280 494.25,-256.32 471.27,-271.78 450,-244 414,-196.98 420.09,-121.35 425.46,-86.16"/>
<polygon fill="midnightblue" stroke="midnightblue" points="428.98,-86.32 427.19,-75.87 422.08,-85.15 428.98,-86.32"/>
</g>
<!-- Node42&#45;&gt;Node13 -->
<g id="edge46" class="edge">
<title>Node42&#45;&gt;Node13</title>
<path fill="none" stroke="midnightblue" d="M604.15,-560.36C653.77,-507.59 913,-229.5 913,-179 913,-179 913,-179 913,-121 913,-90.2 908.43,-79.89 889,-56 877.86,-42.31 861.38,-31.58 847,-24.03"/>
<polygon fill="midnightblue" stroke="midnightblue" points="848.45,-20.84 837.93,-19.54 845.34,-27.11 848.45,-20.84"/>
</g>
<!-- Node42&#45;&gt;Node36 -->
<g id="edge47" class="edge">
<title>Node42&#45;&gt;Node36</title>
<path fill="none" stroke="midnightblue" d="M592.23,-560.37C584.42,-542.46 566.29,-500.92 555.83,-476.95"/>
<polygon fill="midnightblue" stroke="midnightblue" points="558.96,-475.36 551.75,-467.59 552.54,-478.16 558.96,-475.36"/>
</g>
<!-- Node43 -->
<g id="node30" class="node">
<title>Node43</title>
<g id="a_node30"><a xlink:title=" ">
<polygon fill="none" stroke="#bfbfbf" points="485.5,-504.5 485.5,-523.5 542.5,-523.5 542.5,-504.5 485.5,-504.5"/>
<text text-anchor="middle" x="514" y="-511.5" font-family="Helvetica,sans-Serif" font-size="10.00">typeinfo</text>
</a>
</g>
</g>
<!-- Node42&#45;&gt;Node43 -->
<g id="edge45" class="edge">
<title>Node42&#45;&gt;Node43</title>
<path fill="none" stroke="midnightblue" d="M582.83,-560.32C570.15,-551.98 550.77,-539.21 535.79,-529.35"/>
<polygon fill="midnightblue" stroke="midnightblue" points="537.42,-526.23 527.14,-523.65 533.57,-532.08 537.42,-526.23"/>
</g>
<!-- Node44&#45;&gt;Node4 -->
<g id="edge52" class="edge">
<title>Node44&#45;&gt;Node4</title>
<path fill="none" stroke="midnightblue" d="M657.59,-616.48C628.99,-608.49 586.45,-595.49 551,-580 516.98,-565.13 479.92,-543.29 457.07,-529.1"/>
<polygon fill="midnightblue" stroke="midnightblue" points="458.81,-526.07 448.47,-523.72 455.09,-531.99 458.81,-526.07"/>
</g>
<!-- Node44&#45;&gt;Node10 -->
<g id="edge54" class="edge">
<title>Node44&#45;&gt;Node10</title>
<path fill="none" stroke="midnightblue" d="M692.93,-616.48C701,-592.19 723,-520.41 723,-459 723,-459 723,-459 723,-345 723,-265.88 784.91,-234.47 742,-168 712.47,-122.26 553.27,-88.62 473.96,-74.44"/>
<polygon fill="midnightblue" stroke="midnightblue" points="474.23,-70.93 463.78,-72.64 473.02,-77.83 474.23,-70.93"/>
</g>
<!-- Node44&#45;&gt;Node31 -->
<g id="edge56" class="edge">
<title>Node44&#45;&gt;Node31</title>
<path fill="none" stroke="midnightblue" d="M686.07,-616.46C673.79,-590.13 634.24,-508.35 590,-448 582.43,-437.68 572.76,-427.17 564.6,-418.9"/>
<polygon fill="midnightblue" stroke="midnightblue" points="566.94,-416.29 557.36,-411.75 562.01,-421.27 566.94,-416.29"/>
</g>
<!-- Node44&#45;&gt;Node39 -->
<g id="edge55" class="edge">
<title>Node44&#45;&gt;Node39</title>
<path fill="none" stroke="midnightblue" d="M725.18,-616.44C763.69,-607.07 825.54,-592.03 867.42,-581.84"/>
<polygon fill="midnightblue" stroke="midnightblue" points="868.46,-585.19 877.35,-579.43 866.81,-578.39 868.46,-585.19"/>
</g>
<!-- Node44&#45;&gt;Node42 -->
<g id="edge53" class="edge">
<title>Node44&#45;&gt;Node42</title>
<path fill="none" stroke="midnightblue" d="M674.9,-616.32C660.1,-607.82 637.31,-594.73 620.02,-584.8"/>
<polygon fill="midnightblue" stroke="midnightblue" points="621.48,-581.6 611.07,-579.65 617.99,-587.67 621.48,-581.6"/>
</g>
<!-- Node21 -->
<g id="node32" class="node">
<title>Node21</title>
<g id="a_node32"><a xlink:title=" ">
<polygon fill="none" stroke="#bfbfbf" points="727.5,-560.5 727.5,-579.5 820.5,-579.5 820.5,-560.5 727.5,-560.5"/>
<text text-anchor="middle" x="774" y="-567.5" font-family="Helvetica,sans-Serif" font-size="10.00">unordered_map</text>
</a>
</g>
</g>
<!-- Node44&#45;&gt;Node21 -->
<g id="edge57" class="edge">
<title>Node44&#45;&gt;Node21</title>
<path fill="none" stroke="midnightblue" d="M703.5,-616.32C716.6,-607.9 736.71,-594.97 752.11,-585.07"/>
<polygon fill="midnightblue" stroke="midnightblue" points="754.02,-588.01 760.54,-579.65 750.23,-582.12 754.02,-588.01"/>
</g>
<!-- Node46&#45;&gt;Node8 -->
<g id="edge66" class="edge">
<title>Node46&#45;&gt;Node8</title>
<path fill="none" stroke="midnightblue" d="M1060.23,-672.22C1051.11,-644.48 1019.62,-557.42 968,-504 829.18,-360.32 596.76,-273.21 512.62,-245.05"/>
<polygon fill="midnightblue" stroke="midnightblue" points="513.7,-241.73 503.11,-241.91 511.51,-248.37 513.7,-241.73"/>
</g>
<!-- Node46&#45;&gt;Node29 -->
<g id="edge67" class="edge">
<title>Node46&#45;&gt;Node29</title>
<path fill="none" stroke="midnightblue" d="M1063,-672.44C1063,-653.94 1063,-608.81 1063,-571 1063,-571 1063,-571 1063,-345 1063,-307.18 1034.16,-270.94 1014.91,-250.96"/>
<polygon fill="midnightblue" stroke="midnightblue" points="1017.14,-248.24 1007.59,-243.66 1012.2,-253.2 1017.14,-248.24"/>
</g>
<!-- Node20 -->
<g id="node35" class="node">
<title>Node20</title>
<g id="a_node35"><a xlink:title=" ">
<polygon fill="none" stroke="#bfbfbf" points="1091,-616.5 1091,-635.5 1123,-635.5 1123,-616.5 1091,-616.5"/>
<text text-anchor="middle" x="1107" y="-623.5" font-family="Helvetica,sans-Serif" font-size="10.00">list</text>
</a>
</g>
</g>
<!-- Node46&#45;&gt;Node20 -->
<g id="edge60" class="edge">
<title>Node46&#45;&gt;Node20</title>
<path fill="none" stroke="midnightblue" d="M1070.27,-672.08C1076.54,-664.38 1085.79,-653.03 1093.43,-643.65"/>
<polygon fill="midnightblue" stroke="midnightblue" points="1096.27,-645.71 1099.87,-635.75 1090.84,-641.29 1096.27,-645.71"/>
</g>
<!-- Node47 -->
<g id="node36" class="node">
<title>Node47</title>
<g id="a_node36"><a xlink:href="ieee__float_8h.html" target="_top" xlink:title=" ">
<polygon fill="none" stroke="black" points="1141,-616.5 1141,-635.5 1215,-635.5 1215,-616.5 1141,-616.5"/>
<text text-anchor="middle" x="1178" y="-623.5" font-family="Helvetica,sans-Serif" font-size="10.00">ieee_float.h</text>
</a>
</g>
</g>
<!-- Node46&#45;&gt;Node47 -->
<g id="edge61" class="edge">
<title>Node46&#45;&gt;Node47</title>
<path fill="none" stroke="midnightblue" d="M1081.22,-672.44C1099.9,-663.68 1129.16,-649.94 1150.62,-639.86"/>
<polygon fill="midnightblue" stroke="midnightblue" points="1152.3,-642.93 1159.86,-635.52 1149.32,-636.6 1152.3,-642.93"/>
</g>
<!-- Node47&#45;&gt;Node39 -->
<g id="edge63" class="edge">
<title>Node47&#45;&gt;Node39</title>
<path fill="none" stroke="midnightblue" d="M1140.73,-617.43C1092.48,-607.64 1008.45,-590.58 956.78,-580.09"/>
<polygon fill="midnightblue" stroke="midnightblue" points="957.4,-576.64 946.9,-578.08 956,-583.5 957.4,-576.64"/>
</g>
<!-- Node47&#45;&gt;Node16 -->
<g id="edge62" class="edge">
<title>Node47&#45;&gt;Node16</title>
<path fill="none" stroke="midnightblue" d="M1215.2,-622.28C1243.61,-618.02 1281.02,-607.23 1300,-580 1318.03,-554.13 1276.27,-534.79 1243.77,-524.19"/>
<polygon fill="midnightblue" stroke="midnightblue" points="1244.65,-520.79 1234.06,-521.18 1242.58,-527.48 1244.65,-520.79"/>
</g>
<!-- Node48 -->
<g id="node37" class="node">
<title>Node48</title>
<g id="a_node37"><a xlink:href="format__spec_8h.html" target="_top" xlink:title=" ">
<polygon fill="none" stroke="black" points="1091,-560.5 1091,-579.5 1177,-579.5 1177,-560.5 1091,-560.5"/>
<text text-anchor="middle" x="1134" y="-567.5" font-family="Helvetica,sans-Serif" font-size="10.00">format_spec.h</text>
</a>
</g>
</g>
<!-- Node47&#45;&gt;Node48 -->
<g id="edge64" class="edge">
<title>Node47&#45;&gt;Node48</title>
<path fill="none" stroke="midnightblue" d="M1170.73,-616.08C1164.46,-608.38 1155.21,-597.03 1147.57,-587.65"/>
<polygon fill="midnightblue" stroke="midnightblue" points="1150.16,-585.29 1141.13,-579.75 1144.73,-589.71 1150.16,-585.29"/>
</g>
<!-- Node49 -->
<g id="node38" class="node">
<title>Node49</title>
<g id="a_node38"><a xlink:href="cprover__prefix_8h.html" target="_top" xlink:title=" ">
<polygon fill="none" stroke="black" points="1195.5,-560.5 1195.5,-579.5 1290.5,-579.5 1290.5,-560.5 1195.5,-560.5"/>
<text text-anchor="middle" x="1243" y="-567.5" font-family="Helvetica,sans-Serif" font-size="10.00">cprover_prefix.h</text>
</a>
</g>
</g>
<!-- Node47&#45;&gt;Node49 -->
<g id="edge65" class="edge">
<title>Node47&#45;&gt;Node49</title>
<path fill="none" stroke="midnightblue" d="M1188.44,-616.32C1198.15,-608.26 1212.82,-596.08 1224.5,-586.37"/>
<polygon fill="midnightblue" stroke="midnightblue" points="1226.91,-588.92 1232.37,-579.83 1222.44,-583.53 1226.91,-588.92"/>
</g>
<!-- Node50&#45;&gt;Node3 -->
<g id="edge72" class="edge">
<title>Node50&#45;&gt;Node3</title>
<path fill="none" stroke="midnightblue" d="M1134.84,-280.22C1130.47,-261.66 1121,-217.02 1121,-179 1121,-179 1121,-179 1121,-121 1121,-35.64 447.97,-15.26 290.62,-11.66"/>
<polygon fill="midnightblue" stroke="midnightblue" points="290.27,-8.15 280.2,-11.43 290.12,-15.15 290.27,-8.15"/>
</g>
<!-- Node50&#45;&gt;Node13 -->
<g id="edge73" class="edge">
<title>Node50&#45;&gt;Node13</title>
<path fill="none" stroke="midnightblue" d="M1139.97,-280.28C1145.97,-261.82 1159,-217.37 1159,-179 1159,-179 1159,-179 1159,-121 1159,-90.2 1158.97,-75.34 1135,-56 1093.92,-22.86 939.64,-14.12 862.09,-11.82"/>
<polygon fill="midnightblue" stroke="midnightblue" points="861.77,-8.31 851.68,-11.54 861.58,-15.31 861.77,-8.31"/>
</g>
<!-- Node50&#45;&gt;Node28 -->
<g id="edge70" class="edge">
<title>Node50&#45;&gt;Node28</title>
<path fill="none" stroke="midnightblue" d="M1131.06,-280.49C1124.87,-271.54 1114.97,-256.96 1107,-244 1086.67,-210.94 1095.63,-190.49 1064,-168 1031.34,-144.78 918.18,-131.7 857,-126.17"/>
<polygon fill="midnightblue" stroke="midnightblue" points="857.2,-122.68 846.93,-125.29 856.59,-129.65 857.2,-122.68"/>
</g>
<!-- Node50&#45;&gt;Node29 -->
<g id="edge71" class="edge">
<title>Node50&#45;&gt;Node29</title>
<path fill="none" stroke="midnightblue" d="M1114.98,-280.44C1091.9,-271.48 1055.44,-257.31 1029.36,-247.18"/>
<polygon fill="midnightblue" stroke="midnightblue" points="1030.51,-243.88 1019.92,-243.52 1027.98,-250.4 1030.51,-243.88"/>
</g>
</g>
</svg>
