<?xml version="1.0" encoding="UTF-8" standalone="no"?>
<!DOCTYPE svg PUBLIC "-//W3C//DTD SVG 1.1//EN"
 "http://www.w3.org/Graphics/SVG/1.1/DTD/svg11.dtd">
<!-- Generated by graphviz version 2.43.0 (0)
 -->
<!-- Title: /home/runner/work/cbmc/cbmc/src/ansi&#45;c/literals/convert_float_literal.cpp Pages: 1 -->
<svg width="1257pt" height="778pt"
 viewBox="0.00 0.00 1257.00 778.00" xmlns="http://www.w3.org/2000/svg" xmlns:xlink="http://www.w3.org/1999/xlink">
<g id="graph0" class="graph" transform="scale(1 1) rotate(0) translate(4 774)">
<title>/home/runner/work/cbmc/cbmc/src/ansi&#45;c/literals/convert_float_literal.cpp</title>
<!-- Node1 -->
<g id="node1" class="node">
<title>Node1</title>
<g id="a_node1"><a xlink:title=" ">
<polygon fill="#bfbfbf" stroke="black" points="670,-728.5 670,-769.5 808,-769.5 808,-728.5 670,-728.5"/>
<text text-anchor="start" x="678" y="-757.5" font-family="Helvetica,sans-Serif" font-size="10.00">/home/runner/work/cbmc</text>
<text text-anchor="start" x="678" y="-746.5" font-family="Helvetica,sans-Serif" font-size="10.00">/cbmc/src/ansi&#45;c/literals</text>
<text text-anchor="middle" x="739" y="-735.5" font-family="Helvetica,sans-Serif" font-size="10.00">/convert_float_literal.cpp</text>
</a>
</g>
</g>
<!-- Node2 -->
<g id="node2" class="node">
<title>Node2</title>
<g id="a_node2"><a xlink:href="convert__float__literal_8h.html" target="_top" xlink:title=" ">
<polygon fill="none" stroke="black" points="677.5,-448.5 677.5,-467.5 800.5,-467.5 800.5,-448.5 677.5,-448.5"/>
<text text-anchor="middle" x="739" y="-455.5" font-family="Helvetica,sans-Serif" font-size="10.00">convert_float_literal.h</text>
</a>
</g>
</g>
<!-- Node1&#45;&gt;Node2 -->
<g id="edge1" class="edge">
<title>Node1&#45;&gt;Node2</title>
<path fill="none" stroke="midnightblue" d="M739,-728.3C739,-704.35 739,-662.71 739,-627 739,-627 739,-627 739,-569 739,-536.95 739,-499.64 739,-477.75"/>
<polygon fill="midnightblue" stroke="midnightblue" points="742.5,-477.56 739,-467.56 735.5,-477.56 742.5,-477.56"/>
</g>
<!-- Node38 -->
<g id="node23" class="node">
<title>Node38</title>
<g id="a_node23"><a xlink:href="c__types_8h.html" target="_top" xlink:title=" ">
<polygon fill="none" stroke="black" points="462,-672.5 462,-691.5 544,-691.5 544,-672.5 462,-672.5"/>
<text text-anchor="middle" x="503" y="-679.5" font-family="Helvetica,sans-Serif" font-size="10.00">util/c_types.h</text>
</a>
</g>
</g>
<!-- Node1&#45;&gt;Node38 -->
<g id="edge33" class="edge">
<title>Node1&#45;&gt;Node38</title>
<path fill="none" stroke="midnightblue" d="M669.79,-728.94C628.81,-717.65 578.31,-703.74 543.68,-694.2"/>
<polygon fill="midnightblue" stroke="midnightblue" points="544.49,-690.8 533.92,-691.51 542.63,-697.54 544.49,-690.8"/>
</g>
<!-- Node46 -->
<g id="node33" class="node">
<title>Node46</title>
<g id="a_node33"><a xlink:href="std__expr_8h.html" target="_top" xlink:title=" ">
<polygon fill="none" stroke="black" points="332.5,-560.5 332.5,-579.5 399.5,-579.5 399.5,-560.5 332.5,-560.5"/>
<text text-anchor="middle" x="366" y="-567.5" font-family="Helvetica,sans-Serif" font-size="10.00">std_expr.h</text>
</a>
</g>
</g>
<!-- Node1&#45;&gt;Node46 -->
<g id="edge66" class="edge">
<title>Node1&#45;&gt;Node46</title>
<path fill="none" stroke="midnightblue" d="M669.93,-740.39C597.12,-731.34 488.19,-714.57 453,-692 413.4,-666.59 386.16,-616.22 373.7,-589.18"/>
<polygon fill="midnightblue" stroke="midnightblue" points="376.78,-587.48 369.53,-579.75 370.37,-590.31 376.78,-587.48"/>
</g>
<!-- Node47 -->
<g id="node34" class="node">
<title>Node47</title>
<g id="a_node34"><a xlink:href="config_8h.html" target="_top" xlink:title=" ">
<polygon fill="none" stroke="black" points="830,-560.5 830,-579.5 904,-579.5 904,-560.5 830,-560.5"/>
<text text-anchor="middle" x="867" y="-567.5" font-family="Helvetica,sans-Serif" font-size="10.00">util/config.h</text>
</a>
</g>
</g>
<!-- Node1&#45;&gt;Node47 -->
<g id="edge56" class="edge">
<title>Node1&#45;&gt;Node47</title>
<path fill="none" stroke="midnightblue" d="M753.19,-728.38C778.53,-693.33 831.16,-620.57 854.91,-587.72"/>
<polygon fill="midnightblue" stroke="midnightblue" points="857.77,-589.74 860.79,-579.58 852.1,-585.64 857.77,-589.74"/>
</g>
<!-- Node48 -->
<g id="node36" class="node">
<title>Node48</title>
<g id="a_node36"><a xlink:href="ieee__float_8h.html" target="_top" xlink:title=" ">
<polygon fill="none" stroke="black" points="945,-504.5 945,-523.5 1019,-523.5 1019,-504.5 945,-504.5"/>
<text text-anchor="middle" x="982" y="-511.5" font-family="Helvetica,sans-Serif" font-size="10.00">ieee_float.h</text>
</a>
</g>
</g>
<!-- Node1&#45;&gt;Node48 -->
<g id="edge65" class="edge">
<title>Node1&#45;&gt;Node48</title>
<path fill="none" stroke="midnightblue" d="M760.59,-728.45C772.33,-717.76 787.04,-704.24 800,-692 862.05,-633.37 934.39,-562.13 965.93,-530.93"/>
<polygon fill="midnightblue" stroke="midnightblue" points="968.73,-533.09 973.37,-523.56 963.8,-528.11 968.73,-533.09"/>
</g>
<!-- Node51 -->
<g id="node39" class="node">
<title>Node51</title>
<g id="a_node39"><a xlink:href="gcc__types_8h.html" target="_top" xlink:title=" ">
<polygon fill="none" stroke="black" points="581.5,-616.5 581.5,-635.5 688.5,-635.5 688.5,-616.5 581.5,-616.5"/>
<text text-anchor="middle" x="635" y="-623.5" font-family="Helvetica,sans-Serif" font-size="10.00">ansi&#45;c/gcc_types.h</text>
</a>
</g>
</g>
<!-- Node1&#45;&gt;Node51 -->
<g id="edge67" class="edge">
<title>Node1&#45;&gt;Node51</title>
<path fill="none" stroke="midnightblue" d="M722.06,-728.29C701.73,-704.64 668.03,-665.43 649.07,-643.38"/>
<polygon fill="midnightblue" stroke="midnightblue" points="651.54,-640.88 642.37,-635.57 646.23,-645.44 651.54,-640.88"/>
</g>
<!-- Node52 -->
<g id="node40" class="node">
<title>Node52</title>
<g id="a_node40"><a xlink:href="parse__float_8h.html" target="_top" xlink:title=" ">
<polygon fill="none" stroke="black" points="1146,-504.5 1146,-523.5 1226,-523.5 1226,-504.5 1146,-504.5"/>
<text text-anchor="middle" x="1186" y="-511.5" font-family="Helvetica,sans-Serif" font-size="10.00">parse_float.h</text>
</a>
</g>
</g>
<!-- Node1&#45;&gt;Node52 -->
<g id="edge69" class="edge">
<title>Node1&#45;&gt;Node52</title>
<path fill="none" stroke="midnightblue" d="M776.73,-728.34C865.36,-682.14 1085.04,-567.63 1160.26,-528.42"/>
<polygon fill="midnightblue" stroke="midnightblue" points="1162.24,-531.33 1169.49,-523.61 1159,-525.12 1162.24,-531.33"/>
</g>
<!-- Node3 -->
<g id="node3" class="node">
<title>Node3</title>
<g id="a_node3"><a xlink:title=" ">
<polygon fill="none" stroke="#bfbfbf" points="747,-0.5 747,-19.5 791,-19.5 791,-0.5 747,-0.5"/>
<text text-anchor="middle" x="769" y="-7.5" font-family="Helvetica,sans-Serif" font-size="10.00">string</text>
</a>
</g>
</g>
<!-- Node2&#45;&gt;Node3 -->
<g id="edge2" class="edge">
<title>Node2&#45;&gt;Node3</title>
<path fill="none" stroke="midnightblue" d="M745.19,-448.46C773.43,-408.79 890.04,-237.65 920,-76 921.62,-67.26 925.31,-63.13 920,-56 892.81,-19.53 837.23,-11.45 801.61,-10.27"/>
<polygon fill="midnightblue" stroke="midnightblue" points="801.31,-6.76 791.25,-10.1 801.2,-13.76 801.31,-6.76"/>
</g>
<!-- Node4 -->
<g id="node4" class="node">
<title>Node4</title>
<g id="a_node4"><a xlink:href="expr_8h.html" target="_top" xlink:title=" ">
<polygon fill="none" stroke="black" points="461.5,-392.5 461.5,-411.5 526.5,-411.5 526.5,-392.5 461.5,-392.5"/>
<text text-anchor="middle" x="494" y="-399.5" font-family="Helvetica,sans-Serif" font-size="10.00">util/expr.h</text>
</a>
</g>
</g>
<!-- Node2&#45;&gt;Node4 -->
<g id="edge3" class="edge">
<title>Node2&#45;&gt;Node4</title>
<path fill="none" stroke="midnightblue" d="M700.18,-448.44C655.65,-438.63 582.86,-422.58 536.74,-412.42"/>
<polygon fill="midnightblue" stroke="midnightblue" points="537.28,-408.95 526.76,-410.22 535.77,-415.79 537.28,-408.95"/>
</g>
<!-- Node5 -->
<g id="node5" class="node">
<title>Node5</title>
<g id="a_node5"><a xlink:href="as__const_8h.html" target="_top" xlink:title=" ">
<polygon fill="none" stroke="black" points="373,-0.5 373,-19.5 441,-19.5 441,-0.5 373,-0.5"/>
<text text-anchor="middle" x="407" y="-7.5" font-family="Helvetica,sans-Serif" font-size="10.00">as_const.h</text>
</a>
</g>
</g>
<!-- Node4&#45;&gt;Node5 -->
<g id="edge4" class="edge">
<title>Node4&#45;&gt;Node5</title>
<path fill="none" stroke="midnightblue" d="M517.95,-392.5C545.32,-381.39 584.34,-360.45 568,-336 544.75,-301.21 518.69,-318.18 481,-300 434.77,-277.71 412.05,-284.09 380,-244 361.2,-220.49 361,-209.1 361,-179 361,-179 361,-179 361,-121 361,-85.82 381.28,-48.86 394.91,-28"/>
<polygon fill="midnightblue" stroke="midnightblue" points="397.88,-29.85 400.6,-19.61 392.09,-25.92 397.88,-29.85"/>
</g>
<!-- Node6 -->
<g id="node6" class="node">
<title>Node6</title>
<g id="a_node6"><a xlink:href="deprecate_8h.html" target="_top" xlink:title=" ">
<polygon fill="none" stroke="black" points="299,-336.5 299,-355.5 373,-355.5 373,-336.5 299,-336.5"/>
<text text-anchor="middle" x="336" y="-343.5" font-family="Helvetica,sans-Serif" font-size="10.00">deprecate.h</text>
</a>
</g>
</g>
<!-- Node4&#45;&gt;Node6 -->
<g id="edge5" class="edge">
<title>Node4&#45;&gt;Node6</title>
<path fill="none" stroke="midnightblue" d="M468.96,-392.44C442.38,-383.36 400.19,-368.94 370.48,-358.78"/>
<polygon fill="midnightblue" stroke="midnightblue" points="371.51,-355.44 360.92,-355.52 369.25,-362.06 371.51,-355.44"/>
</g>
<!-- Node7 -->
<g id="node7" class="node">
<title>Node7</title>
<g id="a_node7"><a xlink:href="type_8h.html" target="_top" xlink:title=" ">
<polygon fill="none" stroke="black" points="653.5,-336.5 653.5,-355.5 700.5,-355.5 700.5,-336.5 653.5,-336.5"/>
<text text-anchor="middle" x="677" y="-343.5" font-family="Helvetica,sans-Serif" font-size="10.00">type.h</text>
</a>
</g>
</g>
<!-- Node4&#45;&gt;Node7 -->
<g id="edge6" class="edge">
<title>Node4&#45;&gt;Node7</title>
<path fill="none" stroke="midnightblue" d="M523,-392.44C555.84,-382.75 609.25,-366.99 643.75,-356.81"/>
<polygon fill="midnightblue" stroke="midnightblue" points="644.78,-360.16 653.38,-353.97 642.79,-353.44 644.78,-360.16"/>
</g>
<!-- Node34 -->
<g id="node19" class="node">
<title>Node34</title>
<g id="a_node19"><a xlink:href="validation__mode_8h.html" target="_top" xlink:title=" ">
<polygon fill="none" stroke="black" points="389.5,-224.5 389.5,-243.5 496.5,-243.5 496.5,-224.5 389.5,-224.5"/>
<text text-anchor="middle" x="443" y="-231.5" font-family="Helvetica,sans-Serif" font-size="10.00">validation_mode.h</text>
</a>
</g>
</g>
<!-- Node4&#45;&gt;Node34 -->
<g id="edge31" class="edge">
<title>Node4&#45;&gt;Node34</title>
<path fill="none" stroke="midnightblue" d="M467.07,-392.36C450.28,-385.41 430.02,-373.82 420,-356 401.3,-322.75 419.84,-277.07 432.79,-252.44"/>
<polygon fill="midnightblue" stroke="midnightblue" points="435.93,-253.99 437.72,-243.55 429.81,-250.6 435.93,-253.99"/>
</g>
<!-- Node35 -->
<g id="node20" class="node">
<title>Node35</title>
<g id="a_node20"><a xlink:href="validate__types_8h.html" target="_top" xlink:title=" ">
<polygon fill="none" stroke="black" points="490,-280.5 490,-299.5 588,-299.5 588,-280.5 490,-280.5"/>
<text text-anchor="middle" x="539" y="-287.5" font-family="Helvetica,sans-Serif" font-size="10.00">validate_types.h</text>
</a>
</g>
</g>
<!-- Node4&#45;&gt;Node35 -->
<g id="edge30" class="edge">
<title>Node4&#45;&gt;Node35</title>
<path fill="none" stroke="midnightblue" d="M526.51,-396.94C551.54,-391.93 584.55,-380.76 601,-356 614.27,-336.02 589.22,-316.58 567.1,-304.25"/>
<polygon fill="midnightblue" stroke="midnightblue" points="568.71,-301.14 558.23,-299.58 565.44,-307.34 568.71,-301.14"/>
</g>
<!-- Node36 -->
<g id="node21" class="node">
<title>Node36</title>
<g id="a_node21"><a xlink:href="validate__expressions_8h.html" target="_top" xlink:title=" ">
<polygon fill="none" stroke="black" points="429.5,-336.5 429.5,-355.5 558.5,-355.5 558.5,-336.5 429.5,-336.5"/>
<text text-anchor="middle" x="494" y="-343.5" font-family="Helvetica,sans-Serif" font-size="10.00">validate_expressions.h</text>
</a>
</g>
</g>
<!-- Node4&#45;&gt;Node36 -->
<g id="edge29" class="edge">
<title>Node4&#45;&gt;Node36</title>
<path fill="none" stroke="midnightblue" d="M494,-392.08C494,-385.01 494,-374.86 494,-365.99"/>
<polygon fill="midnightblue" stroke="midnightblue" points="497.5,-365.75 494,-355.75 490.5,-365.75 497.5,-365.75"/>
</g>
<!-- Node37 -->
<g id="node22" class="node">
<title>Node37</title>
<g id="a_node22"><a xlink:title=" ">
<polygon fill="none" stroke="#bfbfbf" points="215.5,-336.5 215.5,-355.5 280.5,-355.5 280.5,-336.5 215.5,-336.5"/>
<text text-anchor="middle" x="248" y="-343.5" font-family="Helvetica,sans-Serif" font-size="10.00">functional</text>
</a>
</g>
</g>
<!-- Node4&#45;&gt;Node37 -->
<g id="edge32" class="edge">
<title>Node4&#45;&gt;Node37</title>
<path fill="none" stroke="midnightblue" d="M461.33,-393.83C417.41,-384.19 339.22,-367.02 290.69,-356.37"/>
<polygon fill="midnightblue" stroke="midnightblue" points="291.32,-352.93 280.8,-354.2 289.82,-359.76 291.32,-352.93"/>
</g>
<!-- Node8 -->
<g id="node8" class="node">
<title>Node8</title>
<g id="a_node8"><a xlink:href="source__location_8h.html" target="_top" xlink:title=" ">
<polygon fill="none" stroke="black" points="699,-168.5 699,-187.5 801,-187.5 801,-168.5 699,-168.5"/>
<text text-anchor="middle" x="750" y="-175.5" font-family="Helvetica,sans-Serif" font-size="10.00">source_location.h</text>
</a>
</g>
</g>
<!-- Node7&#45;&gt;Node8 -->
<g id="edge7" class="edge">
<title>Node7&#45;&gt;Node8</title>
<path fill="none" stroke="midnightblue" d="M687.55,-336.46C697.15,-328.13 710.99,-314.62 719,-300 737.16,-266.83 744.96,-222.7 748.09,-197.94"/>
<polygon fill="midnightblue" stroke="midnightblue" points="751.6,-198.08 749.25,-187.75 744.64,-197.29 751.6,-198.08"/>
</g>
<!-- Node32 -->
<g id="node17" class="node">
<title>Node32</title>
<g id="a_node17"><a xlink:href="validate_8h.html" target="_top" xlink:title=" ">
<polygon fill="none" stroke="black" points="644.5,-280.5 644.5,-299.5 709.5,-299.5 709.5,-280.5 644.5,-280.5"/>
<text text-anchor="middle" x="677" y="-287.5" font-family="Helvetica,sans-Serif" font-size="10.00">validate.h</text>
</a>
</g>
</g>
<!-- Node7&#45;&gt;Node32 -->
<g id="edge20" class="edge">
<title>Node7&#45;&gt;Node32</title>
<path fill="none" stroke="midnightblue" d="M677,-336.08C677,-329.01 677,-318.86 677,-309.99"/>
<polygon fill="midnightblue" stroke="midnightblue" points="680.5,-309.75 677,-299.75 673.5,-309.75 680.5,-309.75"/>
</g>
<!-- Node7&#45;&gt;Node34 -->
<g id="edge28" class="edge">
<title>Node7&#45;&gt;Node34</title>
<path fill="none" stroke="midnightblue" d="M668.49,-336.1C654.73,-322.19 626.16,-295.3 597,-280 566.53,-264.01 529.61,-252.97 499.55,-245.83"/>
<polygon fill="midnightblue" stroke="midnightblue" points="500.17,-242.38 489.64,-243.56 498.61,-249.21 500.17,-242.38"/>
</g>
<!-- Node7&#45;&gt;Node35 -->
<g id="edge27" class="edge">
<title>Node7&#45;&gt;Node35</title>
<path fill="none" stroke="midnightblue" d="M655.13,-336.44C632.22,-327.48 596.02,-313.31 570.13,-303.18"/>
<polygon fill="midnightblue" stroke="midnightblue" points="571.35,-299.9 560.76,-299.52 568.8,-306.42 571.35,-299.9"/>
</g>
<!-- Node8&#45;&gt;Node3 -->
<g id="edge19" class="edge">
<title>Node8&#45;&gt;Node3</title>
<path fill="none" stroke="midnightblue" d="M698.88,-174.32C667.03,-169.87 627.73,-158.82 604,-132 581.43,-106.48 573.12,-82.92 594,-56 611.34,-33.63 691.18,-20.44 736.8,-14.6"/>
<polygon fill="midnightblue" stroke="midnightblue" points="737.29,-18.07 746.79,-13.37 736.44,-11.12 737.29,-18.07"/>
</g>
<!-- Node9 -->
<g id="node9" class="node">
<title>Node9</title>
<g id="a_node9"><a xlink:href="irep_8h.html" target="_top" xlink:title=" ">
<polygon fill="none" stroke="black" points="613,-112.5 613,-131.5 657,-131.5 657,-112.5 613,-112.5"/>
<text text-anchor="middle" x="635" y="-119.5" font-family="Helvetica,sans-Serif" font-size="10.00">irep.h</text>
</a>
</g>
</g>
<!-- Node8&#45;&gt;Node9 -->
<g id="edge8" class="edge">
<title>Node8&#45;&gt;Node9</title>
<path fill="none" stroke="midnightblue" d="M731.78,-168.44C713.1,-159.68 683.84,-145.94 662.38,-135.86"/>
<polygon fill="midnightblue" stroke="midnightblue" points="663.68,-132.6 653.14,-131.52 660.7,-138.93 663.68,-132.6"/>
</g>
<!-- Node30 -->
<g id="node15" class="node">
<title>Node30</title>
<g id="a_node15"><a xlink:href="optional_8h.html" target="_top" xlink:title=" ">
<polygon fill="none" stroke="black" points="821.5,-112.5 821.5,-131.5 886.5,-131.5 886.5,-112.5 821.5,-112.5"/>
<text text-anchor="middle" x="854" y="-119.5" font-family="Helvetica,sans-Serif" font-size="10.00">optional.h</text>
</a>
</g>
</g>
<!-- Node8&#45;&gt;Node30 -->
<g id="edge17" class="edge">
<title>Node8&#45;&gt;Node30</title>
<path fill="none" stroke="midnightblue" d="M766.71,-168.32C783.31,-159.7 809,-146.36 828.22,-136.39"/>
<polygon fill="midnightblue" stroke="midnightblue" points="830.07,-139.37 837.33,-131.65 826.84,-133.16 830.07,-139.37"/>
</g>
<!-- Node9&#45;&gt;Node3 -->
<g id="edge9" class="edge">
<title>Node9&#45;&gt;Node3</title>
<path fill="none" stroke="midnightblue" d="M625.04,-112.4C611.13,-99.36 589.09,-74.18 603,-56 619.17,-34.86 693.34,-21.34 736.88,-15.08"/>
<polygon fill="midnightblue" stroke="midnightblue" points="737.55,-18.52 746.97,-13.68 736.58,-11.58 737.55,-18.52"/>
</g>
<!-- Node10 -->
<g id="node10" class="node">
<title>Node10</title>
<g id="a_node10"><a xlink:title=" ">
<polygon fill="none" stroke="#bfbfbf" points="611.5,-56.5 611.5,-75.5 658.5,-75.5 658.5,-56.5 611.5,-56.5"/>
<text text-anchor="middle" x="635" y="-63.5" font-family="Helvetica,sans-Serif" font-size="10.00">vector</text>
</a>
</g>
</g>
<!-- Node9&#45;&gt;Node10 -->
<g id="edge10" class="edge">
<title>Node9&#45;&gt;Node10</title>
<path fill="none" stroke="midnightblue" d="M635,-112.08C635,-105.01 635,-94.86 635,-85.99"/>
<polygon fill="midnightblue" stroke="midnightblue" points="638.5,-85.75 635,-75.75 631.5,-85.75 638.5,-85.75"/>
</g>
<!-- Node11 -->
<g id="node11" class="node">
<title>Node11</title>
<g id="a_node11"><a xlink:href="src_2util_2invariant_8h.html" target="_top" xlink:title=" ">
<polygon fill="none" stroke="red" points="189.5,-56.5 189.5,-75.5 258.5,-75.5 258.5,-56.5 189.5,-56.5"/>
<text text-anchor="middle" x="224" y="-63.5" font-family="Helvetica,sans-Serif" font-size="10.00">invariant.h</text>
</a>
</g>
</g>
<!-- Node9&#45;&gt;Node11 -->
<g id="edge11" class="edge">
<title>Node9&#45;&gt;Node11</title>
<path fill="none" stroke="midnightblue" d="M612.9,-118.1C547.93,-109.56 356.6,-84.42 268.87,-72.9"/>
<polygon fill="midnightblue" stroke="midnightblue" points="269.07,-69.39 258.7,-71.56 268.16,-76.33 269.07,-69.39"/>
</g>
<!-- Node15 -->
<g id="node13" class="node">
<title>Node15</title>
<g id="a_node13"><a xlink:href="irep__ids_8h.html" target="_top" xlink:title=" ">
<polygon fill="none" stroke="red" points="677,-56.5 677,-75.5 741,-75.5 741,-56.5 677,-56.5"/>
<text text-anchor="middle" x="709" y="-63.5" font-family="Helvetica,sans-Serif" font-size="10.00">irep_ids.h</text>
</a>
</g>
</g>
<!-- Node9&#45;&gt;Node15 -->
<g id="edge14" class="edge">
<title>Node9&#45;&gt;Node15</title>
<path fill="none" stroke="midnightblue" d="M646.89,-112.32C658.15,-104.11 675.29,-91.6 688.71,-81.81"/>
<polygon fill="midnightblue" stroke="midnightblue" points="690.88,-84.56 696.89,-75.83 686.75,-78.9 690.88,-84.56"/>
</g>
<!-- Node26 -->
<g id="node14" class="node">
<title>Node26</title>
<g id="a_node14"><a xlink:href="forward__list__as__map_8h.html" target="_top" xlink:title=" ">
<polygon fill="none" stroke="red" points="389.5,-56.5 389.5,-75.5 516.5,-75.5 516.5,-56.5 389.5,-56.5"/>
<text text-anchor="middle" x="453" y="-63.5" font-family="Helvetica,sans-Serif" font-size="10.00">forward_list_as_map.h</text>
</a>
</g>
</g>
<!-- Node9&#45;&gt;Node26 -->
<g id="edge15" class="edge">
<title>Node9&#45;&gt;Node26</title>
<path fill="none" stroke="midnightblue" d="M612.68,-114.38C582.58,-105.45 528.49,-89.4 491.69,-78.48"/>
<polygon fill="midnightblue" stroke="midnightblue" points="492.38,-75.03 481.8,-75.55 490.39,-81.75 492.38,-75.03"/>
</g>
<!-- Node11&#45;&gt;Node3 -->
<g id="edge12" class="edge">
<title>Node11&#45;&gt;Node3</title>
<path fill="none" stroke="midnightblue" d="M258.51,-61.58C357.4,-51.78 640.9,-23.69 736.83,-14.19"/>
<polygon fill="midnightblue" stroke="midnightblue" points="737.2,-17.67 746.8,-13.2 736.51,-10.7 737.2,-17.67"/>
</g>
<!-- Node14 -->
<g id="node12" class="node">
<title>Node14</title>
<g id="a_node12"><a xlink:title=" ">
<polygon fill="none" stroke="#bfbfbf" points="189.5,-0.5 189.5,-19.5 258.5,-19.5 258.5,-0.5 189.5,-0.5"/>
<text text-anchor="middle" x="224" y="-7.5" font-family="Helvetica,sans-Serif" font-size="10.00">type_traits</text>
</a>
</g>
</g>
<!-- Node11&#45;&gt;Node14 -->
<g id="edge13" class="edge">
<title>Node11&#45;&gt;Node14</title>
<path fill="none" stroke="midnightblue" d="M224,-56.08C224,-49.01 224,-38.86 224,-29.99"/>
<polygon fill="midnightblue" stroke="midnightblue" points="227.5,-29.75 224,-19.75 220.5,-29.75 227.5,-29.75"/>
</g>
<!-- Node26&#45;&gt;Node5 -->
<g id="edge16" class="edge">
<title>Node26&#45;&gt;Node5</title>
<path fill="none" stroke="midnightblue" d="M445.4,-56.08C438.77,-48.3 428.98,-36.8 420.94,-27.37"/>
<polygon fill="midnightblue" stroke="midnightblue" points="423.6,-25.09 414.45,-19.75 418.27,-29.63 423.6,-25.09"/>
</g>
<!-- Node31 -->
<g id="node16" class="node">
<title>Node31</title>
<g id="a_node16"><a xlink:title=" ">
<polygon fill="none" stroke="#bfbfbf" points="797.5,-56.5 797.5,-75.5 910.5,-75.5 910.5,-56.5 797.5,-56.5"/>
<text text-anchor="middle" x="854" y="-63.5" font-family="Helvetica,sans-Serif" font-size="10.00">nonstd/optional.hpp</text>
</a>
</g>
</g>
<!-- Node30&#45;&gt;Node31 -->
<g id="edge18" class="edge">
<title>Node30&#45;&gt;Node31</title>
<path fill="none" stroke="midnightblue" d="M854,-112.08C854,-105.01 854,-94.86 854,-85.99"/>
<polygon fill="midnightblue" stroke="midnightblue" points="857.5,-85.75 854,-75.75 850.5,-85.75 857.5,-85.75"/>
</g>
<!-- Node32&#45;&gt;Node14 -->
<g id="edge21" class="edge">
<title>Node32&#45;&gt;Node14</title>
<path fill="none" stroke="midnightblue" d="M662.95,-280.38C598.08,-240.57 327.38,-74.44 246.75,-24.96"/>
<polygon fill="midnightblue" stroke="midnightblue" points="248.24,-21.77 237.89,-19.52 244.58,-27.74 248.24,-21.77"/>
</g>
<!-- Node33 -->
<g id="node18" class="node">
<title>Node33</title>
<g id="a_node18"><a xlink:href="exception__utils_8h.html" target="_top" xlink:title=" ">
<polygon fill="none" stroke="black" points="621,-224.5 621,-243.5 721,-243.5 721,-224.5 621,-224.5"/>
<text text-anchor="middle" x="671" y="-231.5" font-family="Helvetica,sans-Serif" font-size="10.00">exception_utils.h</text>
</a>
</g>
</g>
<!-- Node32&#45;&gt;Node33 -->
<g id="edge22" class="edge">
<title>Node32&#45;&gt;Node33</title>
<path fill="none" stroke="midnightblue" d="M676.01,-280.08C675.21,-272.93 674.07,-262.64 673.08,-253.69"/>
<polygon fill="midnightblue" stroke="midnightblue" points="676.56,-253.3 671.97,-243.75 669.6,-254.08 676.56,-253.3"/>
</g>
<!-- Node32&#45;&gt;Node34 -->
<g id="edge26" class="edge">
<title>Node32&#45;&gt;Node34</title>
<path fill="none" stroke="midnightblue" d="M644.46,-281.49C604.3,-272.22 535.71,-256.39 489.87,-245.82"/>
<polygon fill="midnightblue" stroke="midnightblue" points="490.42,-242.35 479.88,-243.51 488.84,-249.17 490.42,-242.35"/>
</g>
<!-- Node33&#45;&gt;Node3 -->
<g id="edge23" class="edge">
<title>Node33&#45;&gt;Node3</title>
<path fill="none" stroke="midnightblue" d="M672.69,-224.3C675.36,-211.55 681.16,-187.23 690,-168 710.4,-123.65 729.6,-120.35 750,-76 756.91,-60.98 761.96,-42.85 765.11,-29.55"/>
<polygon fill="midnightblue" stroke="midnightblue" points="768.55,-30.22 767.31,-19.7 761.72,-28.7 768.55,-30.22"/>
</g>
<!-- Node33&#45;&gt;Node8 -->
<g id="edge25" class="edge">
<title>Node33&#45;&gt;Node8</title>
<path fill="none" stroke="midnightblue" d="M683.69,-224.32C695.9,-215.98 714.58,-203.21 729,-193.35"/>
<polygon fill="midnightblue" stroke="midnightblue" points="731.06,-196.19 737.34,-187.65 727.11,-190.41 731.06,-196.19"/>
</g>
<!-- Node33&#45;&gt;Node11 -->
<g id="edge24" class="edge">
<title>Node33&#45;&gt;Node11</title>
<path fill="none" stroke="midnightblue" d="M647.91,-224.42C573.88,-196.93 342.3,-110.93 256.45,-79.05"/>
<polygon fill="midnightblue" stroke="midnightblue" points="257.55,-75.72 246.95,-75.52 255.11,-82.29 257.55,-75.72"/>
</g>
<!-- Node38&#45;&gt;Node6 -->
<g id="edge34" class="edge">
<title>Node38&#45;&gt;Node6</title>
<path fill="none" stroke="midnightblue" d="M489.75,-672.49C478.08,-664.39 461.36,-651.19 451,-636 433.73,-610.69 428,-601.64 428,-571 428,-571 428,-571 428,-457 428,-414.5 387.09,-379.77 359.83,-361.34"/>
<polygon fill="midnightblue" stroke="midnightblue" points="361.49,-358.24 351.19,-355.73 357.67,-364.11 361.49,-358.24"/>
</g>
<!-- Node39 -->
<g id="node24" class="node">
<title>Node39</title>
<g id="a_node24"><a xlink:href="pointer__expr_8h.html" target="_top" xlink:title=" ">
<polygon fill="none" stroke="black" points="460,-616.5 460,-635.5 546,-635.5 546,-616.5 460,-616.5"/>
<text text-anchor="middle" x="503" y="-623.5" font-family="Helvetica,sans-Serif" font-size="10.00">pointer_expr.h</text>
</a>
</g>
</g>
<!-- Node38&#45;&gt;Node39 -->
<g id="edge35" class="edge">
<title>Node38&#45;&gt;Node39</title>
<path fill="none" stroke="midnightblue" d="M503,-672.08C503,-665.01 503,-654.86 503,-645.99"/>
<polygon fill="midnightblue" stroke="midnightblue" points="506.5,-645.75 503,-635.75 499.5,-645.75 506.5,-645.75"/>
</g>
<!-- Node40 -->
<g id="node25" class="node">
<title>Node40</title>
<g id="a_node25"><a xlink:href="bitvector__types_8h.html" target="_top" xlink:title=" ">
<polygon fill="none" stroke="black" points="456.5,-560.5 456.5,-579.5 557.5,-579.5 557.5,-560.5 456.5,-560.5"/>
<text text-anchor="middle" x="507" y="-567.5" font-family="Helvetica,sans-Serif" font-size="10.00">bitvector_types.h</text>
</a>
</g>
</g>
<!-- Node39&#45;&gt;Node40 -->
<g id="edge36" class="edge">
<title>Node39&#45;&gt;Node40</title>
<path fill="none" stroke="midnightblue" d="M503.66,-616.08C504.18,-609.01 504.94,-598.86 505.59,-589.99"/>
<polygon fill="midnightblue" stroke="midnightblue" points="509.1,-589.98 506.35,-579.75 502.12,-589.47 509.1,-589.98"/>
</g>
<!-- Node39&#45;&gt;Node46 -->
<g id="edge52" class="edge">
<title>Node39&#45;&gt;Node46</title>
<path fill="none" stroke="midnightblue" d="M481.29,-616.44C458.65,-607.52 422.93,-593.44 397.25,-583.32"/>
<polygon fill="midnightblue" stroke="midnightblue" points="398.19,-579.93 387.61,-579.52 395.63,-586.44 398.19,-579.93"/>
</g>
<!-- Node41 -->
<g id="node26" class="node">
<title>Node41</title>
<g id="a_node26"><a xlink:href="std__types_8h.html" target="_top" xlink:title=" ">
<polygon fill="none" stroke="black" points="463.5,-504.5 463.5,-523.5 536.5,-523.5 536.5,-504.5 463.5,-504.5"/>
<text text-anchor="middle" x="500" y="-511.5" font-family="Helvetica,sans-Serif" font-size="10.00">std_types.h</text>
</a>
</g>
</g>
<!-- Node40&#45;&gt;Node41 -->
<g id="edge37" class="edge">
<title>Node40&#45;&gt;Node41</title>
<path fill="none" stroke="midnightblue" d="M505.84,-560.08C504.92,-552.93 503.58,-542.64 502.42,-533.69"/>
<polygon fill="midnightblue" stroke="midnightblue" points="505.89,-533.22 501.13,-523.75 498.95,-534.12 505.89,-533.22"/>
</g>
<!-- Node41&#45;&gt;Node4 -->
<g id="edge38" class="edge">
<title>Node41&#45;&gt;Node4</title>
<path fill="none" stroke="midnightblue" d="M499.53,-504.37C498.56,-486.62 496.33,-445.67 495.01,-421.6"/>
<polygon fill="midnightblue" stroke="midnightblue" points="498.51,-421.39 494.47,-411.59 491.52,-421.77 498.51,-421.39"/>
</g>
<!-- Node41&#45;&gt;Node11 -->
<g id="edge45" class="edge">
<title>Node41&#45;&gt;Node11</title>
<path fill="none" stroke="midnightblue" d="M463.48,-505.35C380.92,-485.7 187,-425.24 187,-291 187,-291 187,-291 187,-177 187,-142.89 203.18,-105.79 214.14,-84.57"/>
<polygon fill="midnightblue" stroke="midnightblue" points="217.36,-85.98 219.01,-75.51 211.19,-82.66 217.36,-85.98"/>
</g>
<!-- Node41&#45;&gt;Node32 -->
<g id="edge50" class="edge">
<title>Node41&#45;&gt;Node32</title>
<path fill="none" stroke="midnightblue" d="M536.58,-505.71C563.03,-499.12 598.6,-487.39 625,-468 675.36,-431 690.07,-415.23 710,-356 715.83,-338.68 704.59,-320.22 693.67,-307.42"/>
<polygon fill="midnightblue" stroke="midnightblue" points="696.09,-304.87 686.73,-299.89 690.94,-309.62 696.09,-304.87"/>
</g>
<!-- Node42 -->
<g id="node27" class="node">
<title>Node42</title>
<g id="a_node27"><a xlink:href="expr__cast_8h.html" target="_top" xlink:title="Templated functions to cast to specific exprt&#45;derived classes.">
<polygon fill="none" stroke="black" points="107.5,-448.5 107.5,-467.5 180.5,-467.5 180.5,-448.5 107.5,-448.5"/>
<text text-anchor="middle" x="144" y="-455.5" font-family="Helvetica,sans-Serif" font-size="10.00">expr_cast.h</text>
</a>
</g>
</g>
<!-- Node41&#45;&gt;Node42 -->
<g id="edge39" class="edge">
<title>Node41&#45;&gt;Node42</title>
<path fill="none" stroke="midnightblue" d="M463.33,-507.93C406,-499.93 291.69,-483.66 195,-468 193.56,-467.77 192.09,-467.53 190.61,-467.28"/>
<polygon fill="midnightblue" stroke="midnightblue" points="191.19,-463.83 180.75,-465.61 190.03,-470.73 191.19,-463.83"/>
</g>
<!-- Node44 -->
<g id="node29" class="node">
<title>Node44</title>
<g id="a_node29"><a xlink:href="mp__arith_8h.html" target="_top" xlink:title=" ">
<polygon fill="none" stroke="black" points="1151.5,-448.5 1151.5,-467.5 1220.5,-467.5 1220.5,-448.5 1151.5,-448.5"/>
<text text-anchor="middle" x="1186" y="-455.5" font-family="Helvetica,sans-Serif" font-size="10.00">mp_arith.h</text>
</a>
</g>
</g>
<!-- Node41&#45;&gt;Node44 -->
<g id="edge46" class="edge">
<title>Node41&#45;&gt;Node44</title>
<path fill="none" stroke="midnightblue" d="M536.73,-512.12C633.8,-509.43 905.29,-499.57 1141.34,-467.89"/>
<polygon fill="midnightblue" stroke="midnightblue" points="1142.05,-471.32 1151.49,-466.51 1141.11,-464.39 1142.05,-471.32"/>
</g>
<!-- Node22 -->
<g id="node32" class="node">
<title>Node22</title>
<g id="a_node32"><a xlink:title=" ">
<polygon fill="none" stroke="#bfbfbf" points="522.5,-448.5 522.5,-467.5 615.5,-467.5 615.5,-448.5 522.5,-448.5"/>
<text text-anchor="middle" x="569" y="-455.5" font-family="Helvetica,sans-Serif" font-size="10.00">unordered_map</text>
</a>
</g>
</g>
<!-- Node41&#45;&gt;Node22 -->
<g id="edge51" class="edge">
<title>Node41&#45;&gt;Node22</title>
<path fill="none" stroke="midnightblue" d="M511.09,-504.32C521.49,-496.18 537.26,-483.84 549.72,-474.09"/>
<polygon fill="midnightblue" stroke="midnightblue" points="551.99,-476.75 557.71,-467.83 547.68,-471.24 551.99,-476.75"/>
</g>
<!-- Node42&#45;&gt;Node4 -->
<g id="edge44" class="edge">
<title>Node42&#45;&gt;Node4</title>
<path fill="none" stroke="midnightblue" d="M180.79,-451.32C246.07,-441.25 381.77,-420.32 451.15,-409.61"/>
<polygon fill="midnightblue" stroke="midnightblue" points="451.94,-413.03 461.29,-408.05 450.87,-406.11 451.94,-413.03"/>
</g>
<!-- Node42&#45;&gt;Node11 -->
<g id="edge43" class="edge">
<title>Node42&#45;&gt;Node11</title>
<path fill="none" stroke="midnightblue" d="M144.44,-448.36C145.67,-423.77 149,-351.26 149,-291 149,-291 149,-291 149,-177 149,-146.2 155.59,-137.4 173,-112 181.03,-100.28 192.78,-89.64 202.97,-81.65"/>
<polygon fill="midnightblue" stroke="midnightblue" points="205.15,-84.39 211.06,-75.59 200.96,-78.79 205.15,-84.39"/>
</g>
<!-- Node42&#45;&gt;Node14 -->
<g id="edge41" class="edge">
<title>Node42&#45;&gt;Node14</title>
<path fill="none" stroke="midnightblue" d="M112.75,-448.42C70.4,-434.66 0,-403.31 0,-347 0,-347 0,-347 0,-121 0,-41.83 114.12,-19.64 179.45,-13.42"/>
<polygon fill="midnightblue" stroke="midnightblue" points="179.83,-16.9 189.49,-12.55 179.23,-9.93 179.83,-16.9"/>
</g>
<!-- Node42&#45;&gt;Node37 -->
<g id="edge42" class="edge">
<title>Node42&#45;&gt;Node37</title>
<path fill="none" stroke="midnightblue" d="M152.16,-448.37C169.55,-429.97 210.49,-386.67 232.82,-363.05"/>
<polygon fill="midnightblue" stroke="midnightblue" points="235.55,-365.26 239.88,-355.59 230.46,-360.45 235.55,-365.26"/>
</g>
<!-- Node43 -->
<g id="node28" class="node">
<title>Node43</title>
<g id="a_node28"><a xlink:title=" ">
<polygon fill="none" stroke="#bfbfbf" points="66.5,-392.5 66.5,-411.5 123.5,-411.5 123.5,-392.5 66.5,-392.5"/>
<text text-anchor="middle" x="95" y="-399.5" font-family="Helvetica,sans-Serif" font-size="10.00">typeinfo</text>
</a>
</g>
</g>
<!-- Node42&#45;&gt;Node43 -->
<g id="edge40" class="edge">
<title>Node42&#45;&gt;Node43</title>
<path fill="none" stroke="midnightblue" d="M135.91,-448.08C128.84,-440.3 118.41,-428.8 109.85,-419.37"/>
<polygon fill="midnightblue" stroke="midnightblue" points="112.25,-416.8 102.94,-411.75 107.07,-421.51 112.25,-416.8"/>
</g>
<!-- Node44&#45;&gt;Node3 -->
<g id="edge48" class="edge">
<title>Node44&#45;&gt;Node3</title>
<path fill="none" stroke="midnightblue" d="M1163.9,-448.44C1129.48,-433.5 1067,-399.19 1067,-347 1067,-347 1067,-347 1067,-121 1067,-64.91 878.82,-28.5 801.54,-15.91"/>
<polygon fill="midnightblue" stroke="midnightblue" points="801.82,-12.42 791.4,-14.3 800.72,-19.33 801.82,-12.42"/>
</g>
<!-- Node17 -->
<g id="node30" class="node">
<title>Node17</title>
<g id="a_node30"><a xlink:title=" ">
<polygon fill="none" stroke="#bfbfbf" points="927,-392.5 927,-411.5 975,-411.5 975,-392.5 927,-392.5"/>
<text text-anchor="middle" x="951" y="-399.5" font-family="Helvetica,sans-Serif" font-size="10.00">iosfwd</text>
</a>
</g>
</g>
<!-- Node44&#45;&gt;Node17 -->
<g id="edge47" class="edge">
<title>Node44&#45;&gt;Node17</title>
<path fill="none" stroke="midnightblue" d="M1151.32,-449.03C1106.65,-438.77 1029.46,-421.03 985.07,-410.83"/>
<polygon fill="midnightblue" stroke="midnightblue" points="985.6,-407.36 975.07,-408.53 984.03,-414.18 985.6,-407.36"/>
</g>
<!-- Node45 -->
<g id="node31" class="node">
<title>Node45</title>
<g id="a_node31"><a xlink:title=" ">
<polygon fill="none" stroke="#bfbfbf" points="1127,-392.5 1127,-411.5 1221,-411.5 1221,-392.5 1127,-392.5"/>
<text text-anchor="middle" x="1174" y="-399.5" font-family="Helvetica,sans-Serif" font-size="10.00">big&#45;int/bigint.hh</text>
</a>
</g>
</g>
<!-- Node44&#45;&gt;Node45 -->
<g id="edge49" class="edge">
<title>Node44&#45;&gt;Node45</title>
<path fill="none" stroke="midnightblue" d="M1184.02,-448.08C1182.43,-440.93 1180.14,-430.64 1178.15,-421.69"/>
<polygon fill="midnightblue" stroke="midnightblue" points="1181.53,-420.75 1175.94,-411.75 1174.7,-422.27 1181.53,-420.75"/>
</g>
<!-- Node46&#45;&gt;Node11 -->
<g id="edge54" class="edge">
<title>Node46&#45;&gt;Node11</title>
<path fill="none" stroke="midnightblue" d="M332.44,-565.01C248.84,-554.15 38,-520.64 38,-459 38,-459 38,-459 38,-177 38,-111.49 124.55,-84.17 179.57,-73.42"/>
<polygon fill="midnightblue" stroke="midnightblue" points="180.25,-76.85 189.45,-71.6 178.98,-69.97 180.25,-76.85"/>
</g>
<!-- Node46&#45;&gt;Node41 -->
<g id="edge55" class="edge">
<title>Node46&#45;&gt;Node41</title>
<path fill="none" stroke="midnightblue" d="M387.23,-560.44C409.38,-551.52 444.32,-537.44 469.44,-527.32"/>
<polygon fill="midnightblue" stroke="midnightblue" points="470.9,-530.5 478.87,-523.52 468.28,-524.01 470.9,-530.5"/>
</g>
<!-- Node46&#45;&gt;Node42 -->
<g id="edge53" class="edge">
<title>Node46&#45;&gt;Node42</title>
<path fill="none" stroke="midnightblue" d="M348.58,-560.37C309.84,-541.17 216.34,-494.84 170.39,-472.07"/>
<polygon fill="midnightblue" stroke="midnightblue" points="171.85,-468.9 161.34,-467.59 168.75,-475.17 171.85,-468.9"/>
</g>
<!-- Node47&#45;&gt;Node9 -->
<g id="edge63" class="edge">
<title>Node47&#45;&gt;Node9</title>
<path fill="none" stroke="midnightblue" d="M861.72,-560.23C851.27,-542.04 829,-498.6 829,-459 829,-459 829,-459 829,-233 829,-202.9 831.63,-188.93 810,-168 771.47,-130.71 706.37,-123.15 667.37,-122.25"/>
<polygon fill="midnightblue" stroke="midnightblue" points="667.13,-118.75 657.1,-122.15 667.07,-125.75 667.13,-118.75"/>
</g>
<!-- Node47&#45;&gt;Node30 -->
<g id="edge64" class="edge">
<title>Node47&#45;&gt;Node30</title>
<path fill="none" stroke="midnightblue" d="M867,-560.44C867,-541.94 867,-496.81 867,-459 867,-459 867,-459 867,-233 867,-200.58 861.36,-163.15 857.51,-141.37"/>
<polygon fill="midnightblue" stroke="midnightblue" points="860.95,-140.72 855.7,-131.52 854.07,-141.99 860.95,-140.72"/>
</g>
<!-- Node21 -->
<g id="node35" class="node">
<title>Node21</title>
<g id="a_node35"><a xlink:title=" ">
<polygon fill="none" stroke="#bfbfbf" points="895,-504.5 895,-523.5 927,-523.5 927,-504.5 895,-504.5"/>
<text text-anchor="middle" x="911" y="-511.5" font-family="Helvetica,sans-Serif" font-size="10.00">list</text>
</a>
</g>
</g>
<!-- Node47&#45;&gt;Node21 -->
<g id="edge57" class="edge">
<title>Node47&#45;&gt;Node21</title>
<path fill="none" stroke="midnightblue" d="M874.27,-560.08C880.54,-552.38 889.79,-541.03 897.43,-531.65"/>
<polygon fill="midnightblue" stroke="midnightblue" points="900.27,-533.71 903.87,-523.75 894.84,-529.29 900.27,-533.71"/>
</g>
<!-- Node47&#45;&gt;Node48 -->
<g id="edge58" class="edge">
<title>Node47&#45;&gt;Node48</title>
<path fill="none" stroke="midnightblue" d="M885.22,-560.44C903.9,-551.68 933.16,-537.94 954.62,-527.86"/>
<polygon fill="midnightblue" stroke="midnightblue" points="956.3,-530.93 963.86,-523.52 953.32,-524.6 956.3,-530.93"/>
</g>
<!-- Node48&#45;&gt;Node44 -->
<g id="edge60" class="edge">
<title>Node48&#45;&gt;Node44</title>
<path fill="none" stroke="midnightblue" d="M1014.32,-504.44C1049.39,-495.16 1105.5,-480.31 1143.96,-470.13"/>
<polygon fill="midnightblue" stroke="midnightblue" points="1145.06,-473.46 1153.83,-467.52 1143.26,-466.69 1145.06,-473.46"/>
</g>
<!-- Node48&#45;&gt;Node17 -->
<g id="edge59" class="edge">
<title>Node48&#45;&gt;Node17</title>
<path fill="none" stroke="midnightblue" d="M963.92,-504.39C950.44,-496.87 933.03,-484.57 925,-468 917.25,-452 926.84,-433.07 936.49,-419.78"/>
<polygon fill="midnightblue" stroke="midnightblue" points="939.51,-421.6 942.96,-411.58 934.02,-417.26 939.51,-421.6"/>
</g>
<!-- Node49 -->
<g id="node37" class="node">
<title>Node49</title>
<g id="a_node37"><a xlink:href="format__spec_8h.html" target="_top" xlink:title=" ">
<polygon fill="none" stroke="black" points="1047,-448.5 1047,-467.5 1133,-467.5 1133,-448.5 1047,-448.5"/>
<text text-anchor="middle" x="1090" y="-455.5" font-family="Helvetica,sans-Serif" font-size="10.00">format_spec.h</text>
</a>
</g>
</g>
<!-- Node48&#45;&gt;Node49 -->
<g id="edge61" class="edge">
<title>Node48&#45;&gt;Node49</title>
<path fill="none" stroke="midnightblue" d="M999.35,-504.32C1016.67,-495.66 1043.52,-482.24 1063.5,-472.25"/>
<polygon fill="midnightblue" stroke="midnightblue" points="1065.31,-475.26 1072.69,-467.65 1062.18,-469 1065.31,-475.26"/>
</g>
<!-- Node50 -->
<g id="node38" class="node">
<title>Node50</title>
<g id="a_node38"><a xlink:href="cprover__prefix_8h.html" target="_top" xlink:title=" ">
<polygon fill="none" stroke="black" points="933.5,-448.5 933.5,-467.5 1028.5,-467.5 1028.5,-448.5 933.5,-448.5"/>
<text text-anchor="middle" x="981" y="-455.5" font-family="Helvetica,sans-Serif" font-size="10.00">cprover_prefix.h</text>
</a>
</g>
</g>
<!-- Node48&#45;&gt;Node50 -->
<g id="edge62" class="edge">
<title>Node48&#45;&gt;Node50</title>
<path fill="none" stroke="midnightblue" d="M981.83,-504.08C981.7,-497.01 981.52,-486.86 981.35,-477.99"/>
<polygon fill="midnightblue" stroke="midnightblue" points="984.85,-477.68 981.16,-467.75 977.85,-477.81 984.85,-477.68"/>
</g>
<!-- Node51&#45;&gt;Node40 -->
<g id="edge68" class="edge">
<title>Node51&#45;&gt;Node40</title>
<path fill="none" stroke="midnightblue" d="M614.72,-616.44C593.65,-607.56 560.48,-593.56 536.51,-583.45"/>
<polygon fill="midnightblue" stroke="midnightblue" points="537.76,-580.18 527.19,-579.52 535.04,-586.63 537.76,-580.18"/>
</g>
<!-- Node52&#45;&gt;Node3 -->
<g id="edge70" class="edge">
<title>Node52&#45;&gt;Node3</title>
<path fill="none" stroke="midnightblue" d="M1197.34,-504.18C1207.31,-495.86 1221.5,-482.52 1230,-468 1245.2,-442.02 1249,-433.1 1249,-403 1249,-403 1249,-403 1249,-121 1249,-28.94 909.32,-13.92 801.46,-11.48"/>
<polygon fill="midnightblue" stroke="midnightblue" points="801.26,-7.97 791.19,-11.27 801.11,-14.97 801.26,-7.97"/>
</g>
<!-- Node52&#45;&gt;Node44 -->
<g id="edge71" class="edge">
<title>Node52&#45;&gt;Node44</title>
<path fill="none" stroke="midnightblue" d="M1186,-504.08C1186,-497.01 1186,-486.86 1186,-477.99"/>
<polygon fill="midnightblue" stroke="midnightblue" points="1189.5,-477.75 1186,-467.75 1182.5,-477.75 1189.5,-477.75"/>
</g>
</g>
</svg>
