<?xml version="1.0" encoding="UTF-8" standalone="no"?>
<!DOCTYPE svg PUBLIC "-//W3C//DTD SVG 1.1//EN"
 "http://www.w3.org/Graphics/SVG/1.1/DTD/svg11.dtd">
<!-- Generated by graphviz version 2.43.0 (0)
 -->
<!-- Title: /home/runner/work/cbmc/cbmc/src/ansi&#45;c/literals/convert_integer_literal.cpp Pages: 1 -->
<svg width="1445pt" height="834pt"
 viewBox="0.00 0.00 1445.00 834.00" xmlns="http://www.w3.org/2000/svg" xmlns:xlink="http://www.w3.org/1999/xlink">
<g id="graph0" class="graph" transform="scale(1 1) rotate(0) translate(4 830)">
<title>/home/runner/work/cbmc/cbmc/src/ansi&#45;c/literals/convert_integer_literal.cpp</title>
<!-- Node1 -->
<g id="node1" class="node">
<title>Node1</title>
<g id="a_node1"><a xlink:title=" ">
<polygon fill="#bfbfbf" stroke="black" points="854,-784.5 854,-825.5 1004,-825.5 1004,-784.5 854,-784.5"/>
<text text-anchor="start" x="862" y="-813.5" font-family="Helvetica,sans-Serif" font-size="10.00">/home/runner/work/cbmc</text>
<text text-anchor="start" x="862" y="-802.5" font-family="Helvetica,sans-Serif" font-size="10.00">/cbmc/src/ansi&#45;c/literals</text>
<text text-anchor="middle" x="929" y="-791.5" font-family="Helvetica,sans-Serif" font-size="10.00">/convert_integer_literal.cpp</text>
</a>
</g>
</g>
<!-- Node2 -->
<g id="node2" class="node">
<title>Node2</title>
<g id="a_node2"><a xlink:href="convert__integer__literal_8h.html" target="_top" xlink:title=" ">
<polygon fill="none" stroke="black" points="0,-560.5 0,-579.5 136,-579.5 136,-560.5 0,-560.5"/>
<text text-anchor="middle" x="68" y="-567.5" font-family="Helvetica,sans-Serif" font-size="10.00">convert_integer_literal.h</text>
</a>
</g>
</g>
<!-- Node1&#45;&gt;Node2 -->
<g id="edge1" class="edge">
<title>Node1&#45;&gt;Node2</title>
<path fill="none" stroke="midnightblue" d="M854,-799.16C710.77,-787.53 391.12,-749.91 150,-636 123.98,-623.71 98.77,-601.75 83.33,-586.78"/>
<polygon fill="midnightblue" stroke="midnightblue" points="85.75,-584.25 76.19,-579.68 80.81,-589.22 85.75,-584.25"/>
</g>
<!-- Node38 -->
<g id="node24" class="node">
<title>Node38</title>
<g id="a_node24"><a xlink:title=" ">
<polygon fill="none" stroke="#bfbfbf" points="813.5,-728.5 813.5,-747.5 862.5,-747.5 862.5,-728.5 813.5,-728.5"/>
<text text-anchor="middle" x="838" y="-735.5" font-family="Helvetica,sans-Serif" font-size="10.00">cctype</text>
</a>
</g>
</g>
<!-- Node1&#45;&gt;Node38 -->
<g id="edge36" class="edge">
<title>Node1&#45;&gt;Node38</title>
<path fill="none" stroke="midnightblue" d="M901.7,-784.5C887.74,-774.53 871.06,-762.61 858.27,-753.48"/>
<polygon fill="midnightblue" stroke="midnightblue" points="860.29,-750.62 850.11,-747.65 856.22,-756.31 860.29,-750.62"/>
</g>
<!-- Node39 -->
<g id="node25" class="node">
<title>Node39</title>
<g id="a_node25"><a xlink:href="arith__tools_8h.html" target="_top" xlink:title=" ">
<polygon fill="none" stroke="black" points="919,-728.5 919,-747.5 1015,-747.5 1015,-728.5 919,-728.5"/>
<text text-anchor="middle" x="967" y="-735.5" font-family="Helvetica,sans-Serif" font-size="10.00">util/arith_tools.h</text>
</a>
</g>
</g>
<!-- Node1&#45;&gt;Node39 -->
<g id="edge37" class="edge">
<title>Node1&#45;&gt;Node39</title>
<path fill="none" stroke="midnightblue" d="M940.4,-784.5C945.61,-775.59 951.73,-765.11 956.79,-756.46"/>
<polygon fill="midnightblue" stroke="midnightblue" points="959.92,-758.05 961.94,-747.65 953.87,-754.52 959.92,-758.05"/>
</g>
<!-- Node42 -->
<g id="node29" class="node">
<title>Node42</title>
<g id="a_node29"><a xlink:href="std__expr_8h.html" target="_top" xlink:title=" ">
<polygon fill="none" stroke="black" points="736.5,-672.5 736.5,-691.5 803.5,-691.5 803.5,-672.5 736.5,-672.5"/>
<text text-anchor="middle" x="770" y="-679.5" font-family="Helvetica,sans-Serif" font-size="10.00">std_expr.h</text>
</a>
</g>
</g>
<!-- Node1&#45;&gt;Node42 -->
<g id="edge69" class="edge">
<title>Node1&#45;&gt;Node42</title>
<path fill="none" stroke="midnightblue" d="M918.14,-784.28C908.04,-767.46 891.63,-743.6 872,-728 853.51,-713.31 829.47,-702.4 809.37,-695"/>
<polygon fill="midnightblue" stroke="midnightblue" points="810.46,-691.67 799.86,-691.65 808.13,-698.28 810.46,-691.67"/>
</g>
<!-- Node47 -->
<g id="node35" class="node">
<title>Node47</title>
<g id="a_node35"><a xlink:href="config_8h.html" target="_top" xlink:title=" ">
<polygon fill="none" stroke="black" points="1106,-672.5 1106,-691.5 1180,-691.5 1180,-672.5 1106,-672.5"/>
<text text-anchor="middle" x="1143" y="-679.5" font-family="Helvetica,sans-Serif" font-size="10.00">util/config.h</text>
</a>
</g>
</g>
<!-- Node1&#45;&gt;Node47 -->
<g id="edge60" class="edge">
<title>Node1&#45;&gt;Node47</title>
<path fill="none" stroke="midnightblue" d="M963.86,-784.29C1007.53,-759.6 1081.22,-717.93 1119.03,-696.55"/>
<polygon fill="midnightblue" stroke="midnightblue" points="1120.85,-699.54 1127.83,-691.57 1117.41,-693.45 1120.85,-699.54"/>
</g>
<!-- Node51 -->
<g id="node40" class="node">
<title>Node51</title>
<g id="a_node40"><a xlink:href="string2int_8h.html" target="_top" xlink:title=" ">
<polygon fill="none" stroke="black" points="1171.5,-280.5 1171.5,-299.5 1262.5,-299.5 1262.5,-280.5 1171.5,-280.5"/>
<text text-anchor="middle" x="1217" y="-287.5" font-family="Helvetica,sans-Serif" font-size="10.00">util/string2int.h</text>
</a>
</g>
</g>
<!-- Node1&#45;&gt;Node51 -->
<g id="edge70" class="edge">
<title>Node1&#45;&gt;Node51</title>
<path fill="none" stroke="midnightblue" d="M1004.23,-801.61C1145.64,-795.05 1437,-770.89 1437,-683 1437,-683 1437,-683 1437,-401 1437,-327.63 1337.91,-303.2 1272.73,-295.06"/>
<polygon fill="midnightblue" stroke="midnightblue" points="1272.92,-291.56 1262.58,-293.89 1272.12,-298.51 1272.92,-291.56"/>
</g>
<!-- Node3 -->
<g id="node3" class="node">
<title>Node3</title>
<g id="a_node3"><a xlink:title=" ">
<polygon fill="none" stroke="#bfbfbf" points="249,-0.5 249,-19.5 293,-19.5 293,-0.5 249,-0.5"/>
<text text-anchor="middle" x="271" y="-7.5" font-family="Helvetica,sans-Serif" font-size="10.00">string</text>
</a>
</g>
</g>
<!-- Node2&#45;&gt;Node3 -->
<g id="edge2" class="edge">
<title>Node2&#45;&gt;Node3</title>
<path fill="none" stroke="midnightblue" d="M71.91,-560.36C79.83,-542.07 97,-497.91 97,-459 97,-459 97,-459 97,-121 97,-54.6 188.64,-26.64 238.91,-16.3"/>
<polygon fill="midnightblue" stroke="midnightblue" points="239.81,-19.69 248.96,-14.35 238.48,-12.82 239.81,-19.69"/>
</g>
<!-- Node4 -->
<g id="node4" class="node">
<title>Node4</title>
<g id="a_node4"><a xlink:href="expr_8h.html" target="_top" xlink:title=" ">
<polygon fill="none" stroke="black" points="368.5,-504.5 368.5,-523.5 433.5,-523.5 433.5,-504.5 368.5,-504.5"/>
<text text-anchor="middle" x="401" y="-511.5" font-family="Helvetica,sans-Serif" font-size="10.00">util/expr.h</text>
</a>
</g>
</g>
<!-- Node2&#45;&gt;Node4 -->
<g id="edge3" class="edge">
<title>Node2&#45;&gt;Node4</title>
<path fill="none" stroke="midnightblue" d="M120.76,-560.44C186.47,-549.79 297.44,-531.79 358.15,-521.95"/>
<polygon fill="midnightblue" stroke="midnightblue" points="358.85,-525.38 368.17,-520.32 357.73,-518.47 358.85,-525.38"/>
</g>
<!-- Node5 -->
<g id="node5" class="node">
<title>Node5</title>
<g id="a_node5"><a xlink:href="as__const_8h.html" target="_top" xlink:title=" ">
<polygon fill="none" stroke="black" points="375,-112.5 375,-131.5 443,-131.5 443,-112.5 375,-112.5"/>
<text text-anchor="middle" x="409" y="-119.5" font-family="Helvetica,sans-Serif" font-size="10.00">as_const.h</text>
</a>
</g>
</g>
<!-- Node4&#45;&gt;Node5 -->
<g id="edge4" class="edge">
<title>Node4&#45;&gt;Node5</title>
<path fill="none" stroke="midnightblue" d="M368.12,-510.26C317.93,-505.32 225.9,-493.01 206,-468 112.84,-350.89 320.03,-186.7 388.21,-137.49"/>
<polygon fill="midnightblue" stroke="midnightblue" points="390.4,-140.22 396.51,-131.57 386.33,-134.52 390.4,-140.22"/>
</g>
<!-- Node6 -->
<g id="node6" class="node">
<title>Node6</title>
<g id="a_node6"><a xlink:href="deprecate_8h.html" target="_top" xlink:title=" ">
<polygon fill="none" stroke="black" points="215,-448.5 215,-467.5 289,-467.5 289,-448.5 215,-448.5"/>
<text text-anchor="middle" x="252" y="-455.5" font-family="Helvetica,sans-Serif" font-size="10.00">deprecate.h</text>
</a>
</g>
</g>
<!-- Node4&#45;&gt;Node6 -->
<g id="edge5" class="edge">
<title>Node4&#45;&gt;Node6</title>
<path fill="none" stroke="midnightblue" d="M377.39,-504.44C352.54,-495.44 313.23,-481.19 285.25,-471.05"/>
<polygon fill="midnightblue" stroke="midnightblue" points="286.09,-467.63 275.5,-467.52 283.71,-474.21 286.09,-467.63"/>
</g>
<!-- Node7 -->
<g id="node7" class="node">
<title>Node7</title>
<g id="a_node7"><a xlink:href="type_8h.html" target="_top" xlink:title=" ">
<polygon fill="none" stroke="black" points="530.5,-448.5 530.5,-467.5 577.5,-467.5 577.5,-448.5 530.5,-448.5"/>
<text text-anchor="middle" x="554" y="-455.5" font-family="Helvetica,sans-Serif" font-size="10.00">type.h</text>
</a>
</g>
</g>
<!-- Node4&#45;&gt;Node7 -->
<g id="edge6" class="edge">
<title>Node4&#45;&gt;Node7</title>
<path fill="none" stroke="midnightblue" d="M425.24,-504.44C451.02,-495.35 491.96,-480.9 520.74,-470.74"/>
<polygon fill="midnightblue" stroke="midnightblue" points="522.11,-473.97 530.37,-467.34 519.78,-467.37 522.11,-473.97"/>
</g>
<!-- Node34 -->
<g id="node20" class="node">
<title>Node34</title>
<g id="a_node20"><a xlink:href="validation__mode_8h.html" target="_top" xlink:title=" ">
<polygon fill="none" stroke="black" points="244.5,-336.5 244.5,-355.5 351.5,-355.5 351.5,-336.5 244.5,-336.5"/>
<text text-anchor="middle" x="298" y="-343.5" font-family="Helvetica,sans-Serif" font-size="10.00">validation_mode.h</text>
</a>
</g>
</g>
<!-- Node4&#45;&gt;Node34 -->
<g id="edge34" class="edge">
<title>Node4&#45;&gt;Node34</title>
<path fill="none" stroke="midnightblue" d="M393.43,-504.3C378.99,-487.38 347.04,-448.52 326,-412 317.29,-396.88 309.62,-378.53 304.53,-365.19"/>
<polygon fill="midnightblue" stroke="midnightblue" points="307.77,-363.88 301.02,-355.72 301.21,-366.31 307.77,-363.88"/>
</g>
<!-- Node35 -->
<g id="node21" class="node">
<title>Node35</title>
<g id="a_node21"><a xlink:href="validate__types_8h.html" target="_top" xlink:title=" ">
<polygon fill="none" stroke="black" points="335,-392.5 335,-411.5 433,-411.5 433,-392.5 335,-392.5"/>
<text text-anchor="middle" x="384" y="-399.5" font-family="Helvetica,sans-Serif" font-size="10.00">validate_types.h</text>
</a>
</g>
</g>
<!-- Node4&#45;&gt;Node35 -->
<g id="edge33" class="edge">
<title>Node4&#45;&gt;Node35</title>
<path fill="none" stroke="midnightblue" d="M393.85,-504.36C387.23,-495.76 377.84,-481.87 374,-468 369.71,-452.53 373.15,-434.44 377.13,-421.28"/>
<polygon fill="midnightblue" stroke="midnightblue" points="380.53,-422.14 380.43,-411.55 373.9,-419.89 380.53,-422.14"/>
</g>
<!-- Node36 -->
<g id="node22" class="node">
<title>Node36</title>
<g id="a_node22"><a xlink:href="validate__expressions_8h.html" target="_top" xlink:title=" ">
<polygon fill="none" stroke="black" points="383.5,-448.5 383.5,-467.5 512.5,-467.5 512.5,-448.5 383.5,-448.5"/>
<text text-anchor="middle" x="448" y="-455.5" font-family="Helvetica,sans-Serif" font-size="10.00">validate_expressions.h</text>
</a>
</g>
</g>
<!-- Node4&#45;&gt;Node36 -->
<g id="edge32" class="edge">
<title>Node4&#45;&gt;Node36</title>
<path fill="none" stroke="midnightblue" d="M408.76,-504.08C415.54,-496.3 425.54,-484.8 433.76,-475.37"/>
<polygon fill="midnightblue" stroke="midnightblue" points="436.46,-477.59 440.38,-467.75 431.18,-473 436.46,-477.59"/>
</g>
<!-- Node37 -->
<g id="node23" class="node">
<title>Node37</title>
<g id="a_node23"><a xlink:title=" ">
<polygon fill="none" stroke="#bfbfbf" points="595.5,-448.5 595.5,-467.5 660.5,-467.5 660.5,-448.5 595.5,-448.5"/>
<text text-anchor="middle" x="628" y="-455.5" font-family="Helvetica,sans-Serif" font-size="10.00">functional</text>
</a>
</g>
</g>
<!-- Node4&#45;&gt;Node37 -->
<g id="edge35" class="edge">
<title>Node4&#45;&gt;Node37</title>
<path fill="none" stroke="midnightblue" d="M433.52,-505.26C473.44,-495.77 541.25,-479.64 585.33,-469.15"/>
<polygon fill="midnightblue" stroke="midnightblue" points="586.25,-472.53 595.17,-466.81 584.63,-465.72 586.25,-472.53"/>
</g>
<!-- Node8 -->
<g id="node8" class="node">
<title>Node8</title>
<g id="a_node8"><a xlink:href="source__location_8h.html" target="_top" xlink:title=" ">
<polygon fill="none" stroke="black" points="516,-280.5 516,-299.5 618,-299.5 618,-280.5 516,-280.5"/>
<text text-anchor="middle" x="567" y="-287.5" font-family="Helvetica,sans-Serif" font-size="10.00">source_location.h</text>
</a>
</g>
</g>
<!-- Node7&#45;&gt;Node8 -->
<g id="edge7" class="edge">
<title>Node7&#45;&gt;Node8</title>
<path fill="none" stroke="midnightblue" d="M556.42,-448.46C558.84,-439.47 562.43,-424.87 564,-412 568.41,-375.97 568.23,-333.47 567.65,-309.64"/>
<polygon fill="midnightblue" stroke="midnightblue" points="571.15,-309.44 567.35,-299.55 564.15,-309.65 571.15,-309.44"/>
</g>
<!-- Node32 -->
<g id="node18" class="node">
<title>Node32</title>
<g id="a_node18"><a xlink:href="validate_8h.html" target="_top" xlink:title=" ">
<polygon fill="none" stroke="black" points="489.5,-392.5 489.5,-411.5 554.5,-411.5 554.5,-392.5 489.5,-392.5"/>
<text text-anchor="middle" x="522" y="-399.5" font-family="Helvetica,sans-Serif" font-size="10.00">validate.h</text>
</a>
</g>
</g>
<!-- Node7&#45;&gt;Node32 -->
<g id="edge23" class="edge">
<title>Node7&#45;&gt;Node32</title>
<path fill="none" stroke="midnightblue" d="M548.72,-448.08C544.29,-440.61 537.84,-429.72 532.38,-420.52"/>
<polygon fill="midnightblue" stroke="midnightblue" points="535.29,-418.57 527.19,-411.75 529.27,-422.14 535.29,-418.57"/>
</g>
<!-- Node7&#45;&gt;Node34 -->
<g id="edge31" class="edge">
<title>Node7&#45;&gt;Node34</title>
<path fill="none" stroke="midnightblue" d="M540.2,-448.47C514.88,-432.91 461.76,-400.69 442,-392 409.72,-377.8 371.57,-366.09 342.65,-358.18"/>
<polygon fill="midnightblue" stroke="midnightblue" points="343.39,-354.76 332.83,-355.54 341.58,-361.52 343.39,-354.76"/>
</g>
<!-- Node7&#45;&gt;Node35 -->
<g id="edge30" class="edge">
<title>Node7&#45;&gt;Node35</title>
<path fill="none" stroke="midnightblue" d="M530.36,-449.49C501.92,-440.46 453.85,-425.19 420.6,-414.63"/>
<polygon fill="midnightblue" stroke="midnightblue" points="421.39,-411.2 410.8,-411.51 419.27,-417.88 421.39,-411.2"/>
</g>
<!-- Node8&#45;&gt;Node3 -->
<g id="edge22" class="edge">
<title>Node8&#45;&gt;Node3</title>
<path fill="none" stroke="midnightblue" d="M532.92,-280.45C459.2,-259.89 286.18,-199.92 219,-76 208.58,-56.78 228.63,-37.59 246.77,-25.09"/>
<polygon fill="midnightblue" stroke="midnightblue" points="248.89,-27.89 255.39,-19.52 245.09,-22.01 248.89,-27.89"/>
</g>
<!-- Node9 -->
<g id="node9" class="node">
<title>Node9</title>
<g id="a_node9"><a xlink:href="irep_8h.html" target="_top" xlink:title=" ">
<polygon fill="none" stroke="black" points="545,-224.5 545,-243.5 589,-243.5 589,-224.5 545,-224.5"/>
<text text-anchor="middle" x="567" y="-231.5" font-family="Helvetica,sans-Serif" font-size="10.00">irep.h</text>
</a>
</g>
</g>
<!-- Node8&#45;&gt;Node9 -->
<g id="edge8" class="edge">
<title>Node8&#45;&gt;Node9</title>
<path fill="none" stroke="midnightblue" d="M567,-280.08C567,-273.01 567,-262.86 567,-253.99"/>
<polygon fill="midnightblue" stroke="midnightblue" points="570.5,-253.75 567,-243.75 563.5,-253.75 570.5,-253.75"/>
</g>
<!-- Node30 -->
<g id="node16" class="node">
<title>Node30</title>
<g id="a_node16"><a xlink:href="optional_8h.html" target="_top" xlink:title=" ">
<polygon fill="none" stroke="black" points="1045.5,-224.5 1045.5,-243.5 1110.5,-243.5 1110.5,-224.5 1045.5,-224.5"/>
<text text-anchor="middle" x="1078" y="-231.5" font-family="Helvetica,sans-Serif" font-size="10.00">optional.h</text>
</a>
</g>
</g>
<!-- Node8&#45;&gt;Node30 -->
<g id="edge20" class="edge">
<title>Node8&#45;&gt;Node30</title>
<path fill="none" stroke="midnightblue" d="M618.34,-283.58C719.23,-272.91 941.66,-249.41 1035.21,-239.52"/>
<polygon fill="midnightblue" stroke="midnightblue" points="1035.86,-242.97 1045.44,-238.44 1035.13,-236.01 1035.86,-242.97"/>
</g>
<!-- Node9&#45;&gt;Node3 -->
<g id="edge9" class="edge">
<title>Node9&#45;&gt;Node3</title>
<path fill="none" stroke="midnightblue" d="M544.96,-225.58C505.9,-211.68 423.29,-178.85 366,-132 328.76,-101.55 296.9,-54.06 281.28,-28.58"/>
<polygon fill="midnightblue" stroke="midnightblue" points="284.09,-26.45 275.95,-19.68 278.09,-30.06 284.09,-26.45"/>
</g>
<!-- Node10 -->
<g id="node10" class="node">
<title>Node10</title>
<g id="a_node10"><a xlink:title=" ">
<polygon fill="none" stroke="#bfbfbf" points="537.5,-168.5 537.5,-187.5 584.5,-187.5 584.5,-168.5 537.5,-168.5"/>
<text text-anchor="middle" x="561" y="-175.5" font-family="Helvetica,sans-Serif" font-size="10.00">vector</text>
</a>
</g>
</g>
<!-- Node9&#45;&gt;Node10 -->
<g id="edge10" class="edge">
<title>Node9&#45;&gt;Node10</title>
<path fill="none" stroke="midnightblue" d="M566.01,-224.08C565.21,-216.93 564.07,-206.64 563.08,-197.69"/>
<polygon fill="midnightblue" stroke="midnightblue" points="566.56,-197.3 561.97,-187.75 559.6,-198.08 566.56,-197.3"/>
</g>
<!-- Node11 -->
<g id="node11" class="node">
<title>Node11</title>
<g id="a_node11"><a xlink:href="src_2util_2invariant_8h.html" target="_top" xlink:title=" ">
<polygon fill="none" stroke="red" points="474.5,-56.5 474.5,-75.5 543.5,-75.5 543.5,-56.5 474.5,-56.5"/>
<text text-anchor="middle" x="509" y="-63.5" font-family="Helvetica,sans-Serif" font-size="10.00">invariant.h</text>
</a>
</g>
</g>
<!-- Node9&#45;&gt;Node11 -->
<g id="edge11" class="edge">
<title>Node9&#45;&gt;Node11</title>
<path fill="none" stroke="midnightblue" d="M557.2,-224.39C548.33,-216.02 535.69,-202.48 529,-188 513.44,-154.29 509.8,-110.36 509.06,-85.78"/>
<polygon fill="midnightblue" stroke="midnightblue" points="512.55,-85.61 508.89,-75.67 505.56,-85.72 512.55,-85.61"/>
</g>
<!-- Node15 -->
<g id="node13" class="node">
<title>Node15</title>
<g id="a_node13"><a xlink:href="irep__ids_8h.html" target="_top" xlink:title=" ">
<polygon fill="none" stroke="red" points="603,-168.5 603,-187.5 667,-187.5 667,-168.5 603,-168.5"/>
<text text-anchor="middle" x="635" y="-175.5" font-family="Helvetica,sans-Serif" font-size="10.00">irep_ids.h</text>
</a>
</g>
</g>
<!-- Node9&#45;&gt;Node15 -->
<g id="edge14" class="edge">
<title>Node9&#45;&gt;Node15</title>
<path fill="none" stroke="midnightblue" d="M577.93,-224.32C588.17,-216.18 603.72,-203.84 616,-194.09"/>
<polygon fill="midnightblue" stroke="midnightblue" points="618.22,-196.79 623.88,-187.83 613.87,-191.31 618.22,-196.79"/>
</g>
<!-- Node26 -->
<g id="node14" class="node">
<title>Node26</title>
<g id="a_node14"><a xlink:href="forward__list__as__map_8h.html" target="_top" xlink:title=" ">
<polygon fill="none" stroke="red" points="685.5,-168.5 685.5,-187.5 812.5,-187.5 812.5,-168.5 685.5,-168.5"/>
<text text-anchor="middle" x="749" y="-175.5" font-family="Helvetica,sans-Serif" font-size="10.00">forward_list_as_map.h</text>
</a>
</g>
</g>
<!-- Node9&#45;&gt;Node26 -->
<g id="edge15" class="edge">
<title>Node9&#45;&gt;Node26</title>
<path fill="none" stroke="midnightblue" d="M589.32,-226.38C619.42,-217.45 673.51,-201.4 710.31,-190.48"/>
<polygon fill="midnightblue" stroke="midnightblue" points="711.61,-193.75 720.2,-187.55 709.62,-187.03 711.61,-193.75"/>
</g>
<!-- Node11&#45;&gt;Node3 -->
<g id="edge12" class="edge">
<title>Node11&#45;&gt;Node3</title>
<path fill="none" stroke="midnightblue" d="M474.39,-57.15C428.44,-46.72 347.9,-28.45 303.2,-18.31"/>
<polygon fill="midnightblue" stroke="midnightblue" points="303.7,-14.83 293.17,-16.03 302.15,-21.66 303.7,-14.83"/>
</g>
<!-- Node14 -->
<g id="node12" class="node">
<title>Node14</title>
<g id="a_node12"><a xlink:title=" ">
<polygon fill="none" stroke="#bfbfbf" points="862.5,-0.5 862.5,-19.5 931.5,-19.5 931.5,-0.5 862.5,-0.5"/>
<text text-anchor="middle" x="897" y="-7.5" font-family="Helvetica,sans-Serif" font-size="10.00">type_traits</text>
</a>
</g>
</g>
<!-- Node11&#45;&gt;Node14 -->
<g id="edge13" class="edge">
<title>Node11&#45;&gt;Node14</title>
<path fill="none" stroke="midnightblue" d="M543.77,-60.16C614.36,-50.34 774.34,-28.07 852.43,-17.2"/>
<polygon fill="midnightblue" stroke="midnightblue" points="853.02,-20.65 862.44,-15.81 852.06,-13.72 853.02,-20.65"/>
</g>
<!-- Node26&#45;&gt;Node5 -->
<g id="edge16" class="edge">
<title>Node26&#45;&gt;Node5</title>
<path fill="none" stroke="midnightblue" d="M695.13,-168.44C628.26,-157.82 515.47,-139.91 453.35,-130.04"/>
<polygon fill="midnightblue" stroke="midnightblue" points="453.89,-126.59 443.46,-128.47 452.79,-133.5 453.89,-126.59"/>
</g>
<!-- Node29 -->
<g id="node15" class="node">
<title>Node29</title>
<g id="a_node15"><a xlink:href="narrow_8h.html" target="_top" xlink:title=" ">
<polygon fill="none" stroke="black" points="867.5,-112.5 867.5,-131.5 926.5,-131.5 926.5,-112.5 867.5,-112.5"/>
<text text-anchor="middle" x="897" y="-119.5" font-family="Helvetica,sans-Serif" font-size="10.00">narrow.h</text>
</a>
</g>
</g>
<!-- Node26&#45;&gt;Node29 -->
<g id="edge17" class="edge">
<title>Node26&#45;&gt;Node29</title>
<path fill="none" stroke="midnightblue" d="M772.45,-168.44C797.13,-159.44 836.19,-145.19 863.98,-135.05"/>
<polygon fill="midnightblue" stroke="midnightblue" points="865.46,-138.23 873.66,-131.52 863.06,-131.66 865.46,-138.23"/>
</g>
<!-- Node29&#45;&gt;Node11 -->
<g id="edge19" class="edge">
<title>Node29&#45;&gt;Node11</title>
<path fill="none" stroke="midnightblue" d="M867.23,-114.61C862.48,-113.68 857.61,-112.77 853,-112 746.15,-94.11 619.62,-79.14 553.82,-71.82"/>
<polygon fill="midnightblue" stroke="midnightblue" points="554.11,-68.34 543.79,-70.72 553.34,-75.29 554.11,-68.34"/>
</g>
<!-- Node29&#45;&gt;Node14 -->
<g id="edge18" class="edge">
<title>Node29&#45;&gt;Node14</title>
<path fill="none" stroke="midnightblue" d="M897,-112.37C897,-94.62 897,-53.67 897,-29.6"/>
<polygon fill="midnightblue" stroke="midnightblue" points="900.5,-29.59 897,-19.59 893.5,-29.59 900.5,-29.59"/>
</g>
<!-- Node31 -->
<g id="node17" class="node">
<title>Node31</title>
<g id="a_node17"><a xlink:title=" ">
<polygon fill="none" stroke="#bfbfbf" points="1021.5,-168.5 1021.5,-187.5 1134.5,-187.5 1134.5,-168.5 1021.5,-168.5"/>
<text text-anchor="middle" x="1078" y="-175.5" font-family="Helvetica,sans-Serif" font-size="10.00">nonstd/optional.hpp</text>
</a>
</g>
</g>
<!-- Node30&#45;&gt;Node31 -->
<g id="edge21" class="edge">
<title>Node30&#45;&gt;Node31</title>
<path fill="none" stroke="midnightblue" d="M1078,-224.08C1078,-217.01 1078,-206.86 1078,-197.99"/>
<polygon fill="midnightblue" stroke="midnightblue" points="1081.5,-197.75 1078,-187.75 1074.5,-197.75 1081.5,-197.75"/>
</g>
<!-- Node32&#45;&gt;Node14 -->
<g id="edge24" class="edge">
<title>Node32&#45;&gt;Node14</title>
<path fill="none" stroke="midnightblue" d="M492.01,-392.47C471.63,-385.43 445.19,-373.68 427,-356 345.65,-276.92 292.02,-208.3 352,-112 404.9,-27.08 731.44,-13.48 852.18,-11.36"/>
<polygon fill="midnightblue" stroke="midnightblue" points="852.26,-14.86 862.2,-11.21 852.15,-7.86 852.26,-14.86"/>
</g>
<!-- Node33 -->
<g id="node19" class="node">
<title>Node33</title>
<g id="a_node19"><a xlink:href="exception__utils_8h.html" target="_top" xlink:title=" ">
<polygon fill="none" stroke="black" points="436,-336.5 436,-355.5 536,-355.5 536,-336.5 436,-336.5"/>
<text text-anchor="middle" x="486" y="-343.5" font-family="Helvetica,sans-Serif" font-size="10.00">exception_utils.h</text>
</a>
</g>
</g>
<!-- Node32&#45;&gt;Node33 -->
<g id="edge25" class="edge">
<title>Node32&#45;&gt;Node33</title>
<path fill="none" stroke="midnightblue" d="M516.06,-392.08C511.02,-384.53 503.66,-373.49 497.49,-364.23"/>
<polygon fill="midnightblue" stroke="midnightblue" points="500.29,-362.13 491.83,-355.75 494.47,-366.01 500.29,-362.13"/>
</g>
<!-- Node32&#45;&gt;Node34 -->
<g id="edge29" class="edge">
<title>Node32&#45;&gt;Node34</title>
<path fill="none" stroke="midnightblue" d="M489.43,-393.15C450.93,-383.87 386.63,-368.37 343.3,-357.92"/>
<polygon fill="midnightblue" stroke="midnightblue" points="344.11,-354.52 333.57,-355.58 342.47,-361.32 344.11,-354.52"/>
</g>
<!-- Node33&#45;&gt;Node3 -->
<g id="edge26" class="edge">
<title>Node33&#45;&gt;Node3</title>
<path fill="none" stroke="midnightblue" d="M435.67,-338.8C343.51,-326.04 157,-293.04 157,-235 157,-235 157,-235 157,-121 157,-74.11 207.55,-40.89 241.33,-23.93"/>
<polygon fill="midnightblue" stroke="midnightblue" points="242.87,-27.07 250.36,-19.58 239.83,-20.77 242.87,-27.07"/>
</g>
<!-- Node33&#45;&gt;Node8 -->
<g id="edge28" class="edge">
<title>Node33&#45;&gt;Node8</title>
<path fill="none" stroke="midnightblue" d="M499.01,-336.32C511.53,-327.98 530.68,-315.21 545.47,-305.35"/>
<polygon fill="midnightblue" stroke="midnightblue" points="547.64,-308.11 554.02,-299.65 543.76,-302.29 547.64,-308.11"/>
</g>
<!-- Node33&#45;&gt;Node11 -->
<g id="edge27" class="edge">
<title>Node33&#45;&gt;Node11</title>
<path fill="none" stroke="midnightblue" d="M474.97,-336.41C435.6,-304.71 307.32,-191.98 366,-112 388.3,-81.61 431.13,-71.2 464.13,-67.89"/>
<polygon fill="midnightblue" stroke="midnightblue" points="464.78,-71.35 474.46,-67.05 464.21,-64.38 464.78,-71.35"/>
</g>
<!-- Node39&#45;&gt;Node11 -->
<g id="edge38" class="edge">
<title>Node39&#45;&gt;Node11</title>
<path fill="none" stroke="midnightblue" d="M964.27,-728.5C949.42,-682.22 879,-462.62 879,-459 879,-459 879,-459 879,-233 879,-92.05 652.71,-70.03 554.07,-67.13"/>
<polygon fill="midnightblue" stroke="midnightblue" points="553.89,-63.63 543.81,-66.89 553.72,-70.62 553.89,-63.63"/>
</g>
<!-- Node39&#45;&gt;Node30 -->
<g id="edge43" class="edge">
<title>Node39&#45;&gt;Node30</title>
<path fill="none" stroke="midnightblue" d="M993.16,-728.49C1011.04,-721.4 1033.94,-709.6 1048,-692 1066.79,-668.48 1067,-657.1 1067,-627 1067,-627 1067,-627 1067,-345 1067,-312.79 1071.73,-275.53 1074.98,-253.69"/>
<polygon fill="midnightblue" stroke="midnightblue" points="1078.49,-253.95 1076.56,-243.53 1071.57,-252.87 1078.49,-253.95"/>
</g>
<!-- Node40 -->
<g id="node26" class="node">
<title>Node40</title>
<g id="a_node26"><a xlink:href="mp__arith_8h.html" target="_top" xlink:title=" ">
<polygon fill="none" stroke="black" points="957.5,-560.5 957.5,-579.5 1026.5,-579.5 1026.5,-560.5 957.5,-560.5"/>
<text text-anchor="middle" x="992" y="-567.5" font-family="Helvetica,sans-Serif" font-size="10.00">mp_arith.h</text>
</a>
</g>
</g>
<!-- Node39&#45;&gt;Node40 -->
<g id="edge39" class="edge">
<title>Node39&#45;&gt;Node40</title>
<path fill="none" stroke="midnightblue" d="M968.34,-728.08C972.28,-701.95 983.84,-625.21 989.2,-589.58"/>
<polygon fill="midnightblue" stroke="midnightblue" points="992.68,-589.98 990.71,-579.57 985.76,-588.94 992.68,-589.98"/>
</g>
<!-- Node39&#45;&gt;Node42 -->
<g id="edge44" class="edge">
<title>Node39&#45;&gt;Node42</title>
<path fill="none" stroke="midnightblue" d="M935.78,-728.44C902.07,-719.2 848.2,-704.44 811.07,-694.26"/>
<polygon fill="midnightblue" stroke="midnightblue" points="811.64,-690.78 801.07,-691.52 809.79,-697.54 811.64,-690.78"/>
</g>
<!-- Node46 -->
<g id="node34" class="node">
<title>Node46</title>
<g id="a_node34"><a xlink:title=" ">
<polygon fill="none" stroke="#bfbfbf" points="995,-672.5 995,-691.5 1039,-691.5 1039,-672.5 995,-672.5"/>
<text text-anchor="middle" x="1017" y="-679.5" font-family="Helvetica,sans-Serif" font-size="10.00">limits</text>
</a>
</g>
</g>
<!-- Node39&#45;&gt;Node46 -->
<g id="edge59" class="edge">
<title>Node39&#45;&gt;Node46</title>
<path fill="none" stroke="midnightblue" d="M975.26,-728.08C982.46,-720.3 993.11,-708.8 1001.85,-699.37"/>
<polygon fill="midnightblue" stroke="midnightblue" points="1004.67,-701.47 1008.9,-691.75 999.53,-696.71 1004.67,-701.47"/>
</g>
<!-- Node40&#45;&gt;Node3 -->
<g id="edge41" class="edge">
<title>Node40&#45;&gt;Node3</title>
<path fill="none" stroke="midnightblue" d="M974.5,-560.46C961.21,-552.92 943.92,-540.53 936,-524 932.16,-515.98 935.47,-512.87 936,-504 940.23,-433.84 955,-417.29 955,-347 955,-347 955,-347 955,-121 955,-54.18 439.55,-20.48 303.56,-12.75"/>
<polygon fill="midnightblue" stroke="midnightblue" points="303.55,-9.24 293.37,-12.18 303.16,-16.23 303.55,-9.24"/>
</g>
<!-- Node17 -->
<g id="node27" class="node">
<title>Node17</title>
<g id="a_node27"><a xlink:title=" ">
<polygon fill="none" stroke="#bfbfbf" points="1266,-504.5 1266,-523.5 1314,-523.5 1314,-504.5 1266,-504.5"/>
<text text-anchor="middle" x="1290" y="-511.5" font-family="Helvetica,sans-Serif" font-size="10.00">iosfwd</text>
</a>
</g>
</g>
<!-- Node40&#45;&gt;Node17 -->
<g id="edge40" class="edge">
<title>Node40&#45;&gt;Node17</title>
<path fill="none" stroke="midnightblue" d="M1026.77,-562.7C1084.29,-552.28 1198.59,-531.56 1255.77,-521.2"/>
<polygon fill="midnightblue" stroke="midnightblue" points="1256.53,-524.62 1265.75,-519.39 1255.29,-517.73 1256.53,-524.62"/>
</g>
<!-- Node41 -->
<g id="node28" class="node">
<title>Node41</title>
<g id="a_node28"><a xlink:title=" ">
<polygon fill="none" stroke="#bfbfbf" points="945,-504.5 945,-523.5 1039,-523.5 1039,-504.5 945,-504.5"/>
<text text-anchor="middle" x="992" y="-511.5" font-family="Helvetica,sans-Serif" font-size="10.00">big&#45;int/bigint.hh</text>
</a>
</g>
</g>
<!-- Node40&#45;&gt;Node41 -->
<g id="edge42" class="edge">
<title>Node40&#45;&gt;Node41</title>
<path fill="none" stroke="midnightblue" d="M992,-560.08C992,-553.01 992,-542.86 992,-533.99"/>
<polygon fill="midnightblue" stroke="midnightblue" points="995.5,-533.75 992,-523.75 988.5,-533.75 995.5,-533.75"/>
</g>
<!-- Node42&#45;&gt;Node11 -->
<g id="edge51" class="edge">
<title>Node42&#45;&gt;Node11</title>
<path fill="none" stroke="midnightblue" d="M736.15,-679.53C635.67,-673.23 336.92,-640.18 190,-468 77.16,-335.76 207.39,-208.47 352,-112 385.88,-89.4 431.17,-77.99 464.4,-72.33"/>
<polygon fill="midnightblue" stroke="midnightblue" points="464.97,-75.79 474.3,-70.76 463.87,-68.87 464.97,-75.79"/>
</g>
<!-- Node43 -->
<g id="node30" class="node">
<title>Node43</title>
<g id="a_node30"><a xlink:href="expr__cast_8h.html" target="_top" xlink:title="Templated functions to cast to specific exprt&#45;derived classes.">
<polygon fill="none" stroke="black" points="639.5,-560.5 639.5,-579.5 712.5,-579.5 712.5,-560.5 639.5,-560.5"/>
<text text-anchor="middle" x="676" y="-567.5" font-family="Helvetica,sans-Serif" font-size="10.00">expr_cast.h</text>
</a>
</g>
</g>
<!-- Node42&#45;&gt;Node43 -->
<g id="edge45" class="edge">
<title>Node42&#45;&gt;Node43</title>
<path fill="none" stroke="midnightblue" d="M760.65,-672.39C751.28,-663.58 736.6,-649.34 725,-636 711.44,-620.4 697.38,-601.41 687.82,-588"/>
<polygon fill="midnightblue" stroke="midnightblue" points="690.6,-585.87 681.98,-579.71 684.88,-589.9 690.6,-585.87"/>
</g>
<!-- Node45 -->
<g id="node32" class="node">
<title>Node45</title>
<g id="a_node32"><a xlink:href="std__types_8h.html" target="_top" xlink:title=" ">
<polygon fill="none" stroke="black" points="733.5,-616.5 733.5,-635.5 806.5,-635.5 806.5,-616.5 733.5,-616.5"/>
<text text-anchor="middle" x="770" y="-623.5" font-family="Helvetica,sans-Serif" font-size="10.00">std_types.h</text>
</a>
</g>
</g>
<!-- Node42&#45;&gt;Node45 -->
<g id="edge52" class="edge">
<title>Node42&#45;&gt;Node45</title>
<path fill="none" stroke="midnightblue" d="M770,-672.08C770,-665.01 770,-654.86 770,-645.99"/>
<polygon fill="midnightblue" stroke="midnightblue" points="773.5,-645.75 770,-635.75 766.5,-645.75 773.5,-645.75"/>
</g>
<!-- Node43&#45;&gt;Node4 -->
<g id="edge50" class="edge">
<title>Node43&#45;&gt;Node4</title>
<path fill="none" stroke="midnightblue" d="M639.48,-561.83C588.83,-551.88 497.45,-533.94 443.7,-523.39"/>
<polygon fill="midnightblue" stroke="midnightblue" points="444.29,-519.93 433.8,-521.44 442.94,-526.8 444.29,-519.93"/>
</g>
<!-- Node43&#45;&gt;Node11 -->
<g id="edge49" class="edge">
<title>Node43&#45;&gt;Node11</title>
<path fill="none" stroke="midnightblue" d="M676.16,-560.43C676.41,-540.55 676.32,-489.8 670,-448 658.48,-371.79 677.96,-337.83 627,-280 598.24,-247.37 565.98,-275.51 536,-244 517.88,-224.96 523.77,-213.4 517,-188 508.21,-155.02 504.86,-146.11 506,-112 506.29,-103.38 506.88,-93.85 507.47,-85.79"/>
<polygon fill="midnightblue" stroke="midnightblue" points="510.97,-85.86 508.25,-75.62 503.99,-85.32 510.97,-85.86"/>
</g>
<!-- Node43&#45;&gt;Node14 -->
<g id="edge47" class="edge">
<title>Node43&#45;&gt;Node14</title>
<path fill="none" stroke="midnightblue" d="M683.31,-560.23C697.41,-542.39 727,-500.05 727,-459 727,-459 727,-459 727,-401 727,-247.01 993,-332.99 993,-179 993,-179 993,-179 993,-121 993,-90.2 988.43,-79.89 969,-56 957.86,-42.31 941.38,-31.58 927,-24.03"/>
<polygon fill="midnightblue" stroke="midnightblue" points="928.45,-20.84 917.93,-19.54 925.34,-27.11 928.45,-20.84"/>
</g>
<!-- Node43&#45;&gt;Node37 -->
<g id="edge48" class="edge">
<title>Node43&#45;&gt;Node37</title>
<path fill="none" stroke="midnightblue" d="M672.23,-560.37C664.42,-542.46 646.29,-500.92 635.83,-476.95"/>
<polygon fill="midnightblue" stroke="midnightblue" points="638.96,-475.36 631.75,-467.59 632.54,-478.16 638.96,-475.36"/>
</g>
<!-- Node44 -->
<g id="node31" class="node">
<title>Node44</title>
<g id="a_node31"><a xlink:title=" ">
<polygon fill="none" stroke="#bfbfbf" points="565.5,-504.5 565.5,-523.5 622.5,-523.5 622.5,-504.5 565.5,-504.5"/>
<text text-anchor="middle" x="594" y="-511.5" font-family="Helvetica,sans-Serif" font-size="10.00">typeinfo</text>
</a>
</g>
</g>
<!-- Node43&#45;&gt;Node44 -->
<g id="edge46" class="edge">
<title>Node43&#45;&gt;Node44</title>
<path fill="none" stroke="midnightblue" d="M662.83,-560.32C650.15,-551.98 630.77,-539.21 615.79,-529.35"/>
<polygon fill="midnightblue" stroke="midnightblue" points="617.42,-526.23 607.14,-523.65 613.57,-532.08 617.42,-526.23"/>
</g>
<!-- Node45&#45;&gt;Node4 -->
<g id="edge53" class="edge">
<title>Node45&#45;&gt;Node4</title>
<path fill="none" stroke="midnightblue" d="M741.35,-616.46C675.61,-596.86 513.87,-548.65 439.52,-526.48"/>
<polygon fill="midnightblue" stroke="midnightblue" points="440.21,-523.04 429.63,-523.53 438.21,-529.75 440.21,-523.04"/>
</g>
<!-- Node45&#45;&gt;Node11 -->
<g id="edge55" class="edge">
<title>Node45&#45;&gt;Node11</title>
<path fill="none" stroke="midnightblue" d="M772.93,-616.48C781,-592.19 803,-520.41 803,-459 803,-459 803,-459 803,-345 803,-265.88 868.57,-231.96 822,-168 759.98,-82.82 624.75,-67.96 554.07,-66.3"/>
<polygon fill="midnightblue" stroke="midnightblue" points="553.76,-62.8 543.71,-66.15 553.66,-69.8 553.76,-62.8"/>
</g>
<!-- Node45&#45;&gt;Node32 -->
<g id="edge57" class="edge">
<title>Node45&#45;&gt;Node32</title>
<path fill="none" stroke="midnightblue" d="M767.68,-616.49C759.5,-588.05 729.2,-495.47 670,-448 639.75,-423.74 596.55,-412.54 564.62,-407.37"/>
<polygon fill="midnightblue" stroke="midnightblue" points="565.09,-403.9 554.69,-405.9 564.06,-410.83 565.09,-403.9"/>
</g>
<!-- Node45&#45;&gt;Node40 -->
<g id="edge56" class="edge">
<title>Node45&#45;&gt;Node40</title>
<path fill="none" stroke="midnightblue" d="M805.18,-616.44C843.69,-607.07 905.54,-592.03 947.42,-581.84"/>
<polygon fill="midnightblue" stroke="midnightblue" points="948.46,-585.19 957.35,-579.43 946.81,-578.39 948.46,-585.19"/>
</g>
<!-- Node45&#45;&gt;Node43 -->
<g id="edge54" class="edge">
<title>Node45&#45;&gt;Node43</title>
<path fill="none" stroke="midnightblue" d="M754.9,-616.32C740.1,-607.82 717.31,-594.73 700.02,-584.8"/>
<polygon fill="midnightblue" stroke="midnightblue" points="701.48,-581.6 691.07,-579.65 697.99,-587.67 701.48,-581.6"/>
</g>
<!-- Node22 -->
<g id="node33" class="node">
<title>Node22</title>
<g id="a_node33"><a xlink:title=" ">
<polygon fill="none" stroke="#bfbfbf" points="807.5,-560.5 807.5,-579.5 900.5,-579.5 900.5,-560.5 807.5,-560.5"/>
<text text-anchor="middle" x="854" y="-567.5" font-family="Helvetica,sans-Serif" font-size="10.00">unordered_map</text>
</a>
</g>
</g>
<!-- Node45&#45;&gt;Node22 -->
<g id="edge58" class="edge">
<title>Node45&#45;&gt;Node22</title>
<path fill="none" stroke="midnightblue" d="M783.5,-616.32C796.6,-607.9 816.71,-594.97 832.11,-585.07"/>
<polygon fill="midnightblue" stroke="midnightblue" points="834.02,-588.01 840.54,-579.65 830.23,-582.12 834.02,-588.01"/>
</g>
<!-- Node47&#45;&gt;Node9 -->
<g id="edge67" class="edge">
<title>Node47&#45;&gt;Node9</title>
<path fill="none" stroke="midnightblue" d="M1140.22,-672.23C1131.07,-644.52 1099.5,-557.54 1048,-504 911.11,-361.68 682.3,-273.99 598.77,-245.36"/>
<polygon fill="midnightblue" stroke="midnightblue" points="599.68,-241.97 589.09,-242.08 597.44,-248.6 599.68,-241.97"/>
</g>
<!-- Node47&#45;&gt;Node30 -->
<g id="edge68" class="edge">
<title>Node47&#45;&gt;Node30</title>
<path fill="none" stroke="midnightblue" d="M1143,-672.44C1143,-653.94 1143,-608.81 1143,-571 1143,-571 1143,-571 1143,-345 1143,-307.18 1114.16,-270.94 1094.91,-250.96"/>
<polygon fill="midnightblue" stroke="midnightblue" points="1097.14,-248.24 1087.59,-243.66 1092.2,-253.2 1097.14,-248.24"/>
</g>
<!-- Node21 -->
<g id="node36" class="node">
<title>Node21</title>
<g id="a_node36"><a xlink:title=" ">
<polygon fill="none" stroke="#bfbfbf" points="1171,-616.5 1171,-635.5 1203,-635.5 1203,-616.5 1171,-616.5"/>
<text text-anchor="middle" x="1187" y="-623.5" font-family="Helvetica,sans-Serif" font-size="10.00">list</text>
</a>
</g>
</g>
<!-- Node47&#45;&gt;Node21 -->
<g id="edge61" class="edge">
<title>Node47&#45;&gt;Node21</title>
<path fill="none" stroke="midnightblue" d="M1150.27,-672.08C1156.54,-664.38 1165.79,-653.03 1173.43,-643.65"/>
<polygon fill="midnightblue" stroke="midnightblue" points="1176.27,-645.71 1179.87,-635.75 1170.84,-641.29 1176.27,-645.71"/>
</g>
<!-- Node48 -->
<g id="node37" class="node">
<title>Node48</title>
<g id="a_node37"><a xlink:href="ieee__float_8h.html" target="_top" xlink:title=" ">
<polygon fill="none" stroke="black" points="1221,-616.5 1221,-635.5 1295,-635.5 1295,-616.5 1221,-616.5"/>
<text text-anchor="middle" x="1258" y="-623.5" font-family="Helvetica,sans-Serif" font-size="10.00">ieee_float.h</text>
</a>
</g>
</g>
<!-- Node47&#45;&gt;Node48 -->
<g id="edge62" class="edge">
<title>Node47&#45;&gt;Node48</title>
<path fill="none" stroke="midnightblue" d="M1161.22,-672.44C1179.9,-663.68 1209.16,-649.94 1230.62,-639.86"/>
<polygon fill="midnightblue" stroke="midnightblue" points="1232.3,-642.93 1239.86,-635.52 1229.32,-636.6 1232.3,-642.93"/>
</g>
<!-- Node48&#45;&gt;Node40 -->
<g id="edge64" class="edge">
<title>Node48&#45;&gt;Node40</title>
<path fill="none" stroke="midnightblue" d="M1220.73,-617.43C1172.48,-607.64 1088.45,-590.58 1036.78,-580.09"/>
<polygon fill="midnightblue" stroke="midnightblue" points="1037.4,-576.64 1026.9,-578.08 1036,-583.5 1037.4,-576.64"/>
</g>
<!-- Node48&#45;&gt;Node17 -->
<g id="edge63" class="edge">
<title>Node48&#45;&gt;Node17</title>
<path fill="none" stroke="midnightblue" d="M1295.2,-622.28C1323.61,-618.02 1361.02,-607.23 1380,-580 1398.03,-554.13 1356.27,-534.79 1323.77,-524.19"/>
<polygon fill="midnightblue" stroke="midnightblue" points="1324.65,-520.79 1314.06,-521.18 1322.58,-527.48 1324.65,-520.79"/>
</g>
<!-- Node49 -->
<g id="node38" class="node">
<title>Node49</title>
<g id="a_node38"><a xlink:href="format__spec_8h.html" target="_top" xlink:title=" ">
<polygon fill="none" stroke="black" points="1171,-560.5 1171,-579.5 1257,-579.5 1257,-560.5 1171,-560.5"/>
<text text-anchor="middle" x="1214" y="-567.5" font-family="Helvetica,sans-Serif" font-size="10.00">format_spec.h</text>
</a>
</g>
</g>
<!-- Node48&#45;&gt;Node49 -->
<g id="edge65" class="edge">
<title>Node48&#45;&gt;Node49</title>
<path fill="none" stroke="midnightblue" d="M1250.73,-616.08C1244.46,-608.38 1235.21,-597.03 1227.57,-587.65"/>
<polygon fill="midnightblue" stroke="midnightblue" points="1230.16,-585.29 1221.13,-579.75 1224.73,-589.71 1230.16,-585.29"/>
</g>
<!-- Node50 -->
<g id="node39" class="node">
<title>Node50</title>
<g id="a_node39"><a xlink:href="cprover__prefix_8h.html" target="_top" xlink:title=" ">
<polygon fill="none" stroke="black" points="1275.5,-560.5 1275.5,-579.5 1370.5,-579.5 1370.5,-560.5 1275.5,-560.5"/>
<text text-anchor="middle" x="1323" y="-567.5" font-family="Helvetica,sans-Serif" font-size="10.00">cprover_prefix.h</text>
</a>
</g>
</g>
<!-- Node48&#45;&gt;Node50 -->
<g id="edge66" class="edge">
<title>Node48&#45;&gt;Node50</title>
<path fill="none" stroke="midnightblue" d="M1268.44,-616.32C1278.15,-608.26 1292.82,-596.08 1304.5,-586.37"/>
<polygon fill="midnightblue" stroke="midnightblue" points="1306.91,-588.92 1312.37,-579.83 1302.44,-583.53 1306.91,-588.92"/>
</g>
<!-- Node51&#45;&gt;Node3 -->
<g id="edge73" class="edge">
<title>Node51&#45;&gt;Node3</title>
<path fill="none" stroke="midnightblue" d="M1214.84,-280.22C1210.47,-261.66 1201,-217.02 1201,-179 1201,-179 1201,-179 1201,-121 1201,-28.62 467.98,-13.57 303.49,-11.35"/>
<polygon fill="midnightblue" stroke="midnightblue" points="303.12,-7.85 293.07,-11.22 303.03,-14.85 303.12,-7.85"/>
</g>
<!-- Node51&#45;&gt;Node14 -->
<g id="edge74" class="edge">
<title>Node51&#45;&gt;Node14</title>
<path fill="none" stroke="midnightblue" d="M1219.97,-280.28C1225.97,-261.82 1239,-217.37 1239,-179 1239,-179 1239,-179 1239,-121 1239,-90.2 1238.97,-75.34 1215,-56 1173.92,-22.86 1019.64,-14.12 942.09,-11.82"/>
<polygon fill="midnightblue" stroke="midnightblue" points="941.77,-8.31 931.68,-11.54 941.58,-15.31 941.77,-8.31"/>
</g>
<!-- Node51&#45;&gt;Node29 -->
<g id="edge71" class="edge">
<title>Node51&#45;&gt;Node29</title>
<path fill="none" stroke="midnightblue" d="M1211.06,-280.49C1204.87,-271.54 1194.97,-256.96 1187,-244 1166.67,-210.94 1175.63,-190.49 1144,-168 1111.34,-144.78 998.18,-131.7 937,-126.17"/>
<polygon fill="midnightblue" stroke="midnightblue" points="937.2,-122.68 926.93,-125.29 936.59,-129.65 937.2,-122.68"/>
</g>
<!-- Node51&#45;&gt;Node30 -->
<g id="edge72" class="edge">
<title>Node51&#45;&gt;Node30</title>
<path fill="none" stroke="midnightblue" d="M1194.98,-280.44C1171.9,-271.48 1135.44,-257.31 1109.36,-247.18"/>
<polygon fill="midnightblue" stroke="midnightblue" points="1110.51,-243.88 1099.92,-243.52 1107.98,-250.4 1110.51,-243.88"/>
</g>
</g>
</svg>
