<?xml version="1.0" encoding="UTF-8" standalone="no"?>
<!DOCTYPE svg PUBLIC "-//W3C//DTD SVG 1.1//EN"
 "http://www.w3.org/Graphics/SVG/1.1/DTD/svg11.dtd">
<!-- Generated by graphviz version 2.43.0 (0)
 -->
<!-- Title: /home/runner/work/cbmc/cbmc/src/statement&#45;list/converters/convert_string_value.cpp Pages: 1 -->
<svg width="825pt" height="565pt"
 viewBox="0.00 0.00 824.78 565.00" xmlns="http://www.w3.org/2000/svg" xmlns:xlink="http://www.w3.org/1999/xlink">
<g id="graph0" class="graph" transform="scale(1 1) rotate(0) translate(4 561)">
<title>/home/runner/work/cbmc/cbmc/src/statement&#45;list/converters/convert_string_value.cpp</title>
<!-- Node1 -->
<g id="node1" class="node">
<title>Node1</title>
<g id="a_node1"><a xlink:title=" ">
<polygon fill="#bfbfbf" stroke="black" points="493.68,-504.5 493.68,-556.5 637.68,-556.5 637.68,-504.5 493.68,-504.5"/>
<text text-anchor="start" x="501.68" y="-544.5" font-family="Helvetica,sans-Serif" font-size="10.00">/home/runner/work/cbmc</text>
<text text-anchor="start" x="501.68" y="-533.5" font-family="Helvetica,sans-Serif" font-size="10.00">/cbmc/src/statement&#45;list</text>
<text text-anchor="start" x="501.68" y="-522.5" font-family="Helvetica,sans-Serif" font-size="10.00">/converters/convert_string</text>
<text text-anchor="middle" x="565.68" y="-511.5" font-family="Helvetica,sans-Serif" font-size="10.00">_value.cpp</text>
</a>
</g>
</g>
<!-- Node2 -->
<g id="node2" class="node">
<title>Node2</title>
<g id="a_node2"><a xlink:href="convert__string__value_8h.html" target="_top" xlink:title=" ">
<polygon fill="none" stroke="black" points="501.68,-448.5 501.68,-467.5 629.68,-467.5 629.68,-448.5 501.68,-448.5"/>
<text text-anchor="middle" x="565.68" y="-455.5" font-family="Helvetica,sans-Serif" font-size="10.00">convert_string_value.h</text>
</a>
</g>
</g>
<!-- Node1&#45;&gt;Node2 -->
<g id="edge1" class="edge">
<title>Node1&#45;&gt;Node2</title>
<path fill="none" stroke="midnightblue" d="M565.68,-504.45C565.68,-495.73 565.68,-486.1 565.68,-477.96"/>
<polygon fill="midnightblue" stroke="midnightblue" points="569.18,-477.7 565.68,-467.7 562.18,-477.7 569.18,-477.7"/>
</g>
<!-- Node3 -->
<g id="node3" class="node">
<title>Node3</title>
<g id="a_node3"><a xlink:href="std__code_8h.html" target="_top" xlink:title=" ">
<polygon fill="none" stroke="black" points="460.68,-392.5 460.68,-411.5 548.68,-411.5 548.68,-392.5 460.68,-392.5"/>
<text text-anchor="middle" x="504.68" y="-399.5" font-family="Helvetica,sans-Serif" font-size="10.00">util/std_code.h</text>
</a>
</g>
</g>
<!-- Node2&#45;&gt;Node3 -->
<g id="edge2" class="edge">
<title>Node2&#45;&gt;Node3</title>
<path fill="none" stroke="midnightblue" d="M555.88,-448.32C546.86,-440.34 533.27,-428.31 522.36,-418.65"/>
<polygon fill="midnightblue" stroke="midnightblue" points="524.46,-415.84 514.66,-411.83 519.82,-421.08 524.46,-415.84"/>
</g>
<!-- Node46 -->
<g id="node27" class="node">
<title>Node46</title>
<g id="a_node27"><a xlink:href="string__constant_8h.html" target="_top" xlink:title=" ">
<polygon fill="none" stroke="black" points="567.18,-392.5 567.18,-411.5 686.18,-411.5 686.18,-392.5 567.18,-392.5"/>
<text text-anchor="middle" x="626.68" y="-399.5" font-family="Helvetica,sans-Serif" font-size="10.00">util/string_constant.h</text>
</a>
</g>
</g>
<!-- Node2&#45;&gt;Node46 -->
<g id="edge42" class="edge">
<title>Node2&#45;&gt;Node46</title>
<path fill="none" stroke="midnightblue" d="M575.48,-448.32C584.49,-440.34 598.08,-428.31 608.99,-418.65"/>
<polygon fill="midnightblue" stroke="midnightblue" points="611.53,-421.08 616.7,-411.83 606.89,-415.84 611.53,-421.08"/>
</g>
<!-- Node4 -->
<g id="node4" class="node">
<title>Node4</title>
<g id="a_node4"><a xlink:title=" ">
<polygon fill="none" stroke="#bfbfbf" points="515.68,-336.5 515.68,-355.5 547.68,-355.5 547.68,-336.5 515.68,-336.5"/>
<text text-anchor="middle" x="531.68" y="-343.5" font-family="Helvetica,sans-Serif" font-size="10.00">list</text>
</a>
</g>
</g>
<!-- Node3&#45;&gt;Node4 -->
<g id="edge3" class="edge">
<title>Node3&#45;&gt;Node4</title>
<path fill="none" stroke="midnightblue" d="M509.14,-392.08C512.83,-384.69 518.2,-373.95 522.77,-364.81"/>
<polygon fill="midnightblue" stroke="midnightblue" points="525.96,-366.26 527.3,-355.75 519.7,-363.13 525.96,-366.26"/>
</g>
<!-- Node5 -->
<g id="node5" class="node">
<title>Node5</title>
<g id="a_node5"><a xlink:href="std__code__base_8h.html" target="_top" xlink:title=" ">
<polygon fill="none" stroke="black" points="399.68,-336.5 399.68,-355.5 497.68,-355.5 497.68,-336.5 399.68,-336.5"/>
<text text-anchor="middle" x="448.68" y="-343.5" font-family="Helvetica,sans-Serif" font-size="10.00">std_code_base.h</text>
</a>
</g>
</g>
<!-- Node3&#45;&gt;Node5 -->
<g id="edge4" class="edge">
<title>Node3&#45;&gt;Node5</title>
<path fill="none" stroke="midnightblue" d="M495.68,-392.32C487.48,-384.42 475.17,-372.55 465.2,-362.94"/>
<polygon fill="midnightblue" stroke="midnightblue" points="467.47,-360.26 457.84,-355.83 462.61,-365.29 467.47,-360.26"/>
</g>
<!-- Node45 -->
<g id="node26" class="node">
<title>Node45</title>
<g id="a_node26"><a xlink:href="std__expr_8h.html" target="_top" xlink:title=" ">
<polygon fill="none" stroke="black" points="566.18,-336.5 566.18,-355.5 633.18,-355.5 633.18,-336.5 566.18,-336.5"/>
<text text-anchor="middle" x="599.68" y="-343.5" font-family="Helvetica,sans-Serif" font-size="10.00">std_expr.h</text>
</a>
</g>
</g>
<!-- Node3&#45;&gt;Node45 -->
<g id="edge38" class="edge">
<title>Node3&#45;&gt;Node45</title>
<path fill="none" stroke="midnightblue" d="M519.94,-392.32C534.9,-383.82 557.93,-370.73 575.4,-360.8"/>
<polygon fill="midnightblue" stroke="midnightblue" points="577.49,-363.64 584.45,-355.65 574.03,-357.55 577.49,-363.64"/>
</g>
<!-- Node6 -->
<g id="node6" class="node">
<title>Node6</title>
<g id="a_node6"><a xlink:href="expr__cast_8h.html" target="_top" xlink:title="Templated functions to cast to specific exprt&#45;derived classes.">
<polygon fill="none" stroke="black" points="513.18,-224.5 513.18,-243.5 586.18,-243.5 586.18,-224.5 513.18,-224.5"/>
<text text-anchor="middle" x="549.68" y="-231.5" font-family="Helvetica,sans-Serif" font-size="10.00">expr_cast.h</text>
</a>
</g>
</g>
<!-- Node5&#45;&gt;Node6 -->
<g id="edge5" class="edge">
<title>Node5&#45;&gt;Node6</title>
<path fill="none" stroke="midnightblue" d="M457.84,-336.23C467.08,-327.29 481.65,-312.96 493.68,-300 508.64,-283.88 524.97,-264.73 536.12,-251.41"/>
<polygon fill="midnightblue" stroke="midnightblue" points="538.92,-253.52 542.62,-243.59 533.54,-249.04 538.92,-253.52"/>
</g>
<!-- Node10 -->
<g id="node10" class="node">
<title>Node10</title>
<g id="a_node10"><a xlink:href="src_2util_2invariant_8h.html" target="_top" xlink:title=" ">
<polygon fill="none" stroke="black" points="646.18,-168.5 646.18,-187.5 715.18,-187.5 715.18,-168.5 646.18,-168.5"/>
<text text-anchor="middle" x="680.68" y="-175.5" font-family="Helvetica,sans-Serif" font-size="10.00">invariant.h</text>
</a>
</g>
</g>
<!-- Node5&#45;&gt;Node10 -->
<g id="edge26" class="edge">
<title>Node5&#45;&gt;Node10</title>
<path fill="none" stroke="midnightblue" d="M468.25,-336.46C502.25,-321.06 573.47,-286.29 624.68,-244 641.82,-229.84 658.02,-210.09 668.54,-196.08"/>
<polygon fill="midnightblue" stroke="midnightblue" points="671.5,-197.96 674.58,-187.83 665.85,-193.83 671.5,-197.96"/>
</g>
<!-- Node37 -->
<g id="node17" class="node">
<title>Node37</title>
<g id="a_node17"><a xlink:href="validate_8h.html" target="_top" xlink:title=" ">
<polygon fill="none" stroke="red" points="171.18,-56.5 171.18,-75.5 236.18,-75.5 236.18,-56.5 171.18,-56.5"/>
<text text-anchor="middle" x="203.68" y="-63.5" font-family="Helvetica,sans-Serif" font-size="10.00">validate.h</text>
</a>
</g>
</g>
<!-- Node5&#45;&gt;Node37 -->
<g id="edge37" class="edge">
<title>Node5&#45;&gt;Node37</title>
<path fill="none" stroke="midnightblue" d="M411.79,-336.49C368.29,-324.27 297.93,-297.1 266.68,-244 262.17,-236.34 261.26,-231.05 266.68,-224 304.51,-174.76 363.41,-236.9 401.68,-188 422.5,-161.4 423.77,-138.39 402.68,-112 383.5,-88 298.97,-75.87 246.44,-70.54"/>
<polygon fill="midnightblue" stroke="midnightblue" points="246.68,-67.04 236.39,-69.56 246,-74.01 246.68,-67.04"/>
</g>
<!-- Node42 -->
<g id="node21" class="node">
<title>Node42</title>
<g id="a_node21"><a xlink:href="std__types_8h.html" target="_top" xlink:title=" ">
<polygon fill="none" stroke="black" points="412.18,-280.5 412.18,-299.5 485.18,-299.5 485.18,-280.5 412.18,-280.5"/>
<text text-anchor="middle" x="448.68" y="-287.5" font-family="Helvetica,sans-Serif" font-size="10.00">std_types.h</text>
</a>
</g>
</g>
<!-- Node5&#45;&gt;Node42 -->
<g id="edge27" class="edge">
<title>Node5&#45;&gt;Node42</title>
<path fill="none" stroke="midnightblue" d="M448.68,-336.08C448.68,-329.01 448.68,-318.86 448.68,-309.99"/>
<polygon fill="midnightblue" stroke="midnightblue" points="452.18,-309.75 448.68,-299.75 445.18,-309.75 452.18,-309.75"/>
</g>
<!-- Node7 -->
<g id="node7" class="node">
<title>Node7</title>
<g id="a_node7"><a xlink:title=" ">
<polygon fill="none" stroke="#bfbfbf" points="526.18,-168.5 526.18,-187.5 583.18,-187.5 583.18,-168.5 526.18,-168.5"/>
<text text-anchor="middle" x="554.68" y="-175.5" font-family="Helvetica,sans-Serif" font-size="10.00">typeinfo</text>
</a>
</g>
</g>
<!-- Node6&#45;&gt;Node7 -->
<g id="edge6" class="edge">
<title>Node6&#45;&gt;Node7</title>
<path fill="none" stroke="midnightblue" d="M550.5,-224.08C551.16,-217.01 552.1,-206.86 552.92,-197.99"/>
<polygon fill="midnightblue" stroke="midnightblue" points="556.43,-198.03 553.87,-187.75 549.46,-197.39 556.43,-198.03"/>
</g>
<!-- Node8 -->
<g id="node8" class="node">
<title>Node8</title>
<g id="a_node8"><a xlink:title=" ">
<polygon fill="none" stroke="#bfbfbf" points="554.18,-0.5 554.18,-19.5 623.18,-19.5 623.18,-0.5 554.18,-0.5"/>
<text text-anchor="middle" x="588.68" y="-7.5" font-family="Helvetica,sans-Serif" font-size="10.00">type_traits</text>
</a>
</g>
</g>
<!-- Node6&#45;&gt;Node8 -->
<g id="edge7" class="edge">
<title>Node6&#45;&gt;Node8</title>
<path fill="none" stroke="midnightblue" d="M561.89,-224.24C572.03,-216.14 585.72,-203.11 591.68,-188 613.05,-133.78 601.11,-62.76 593.49,-29.58"/>
<polygon fill="midnightblue" stroke="midnightblue" points="596.8,-28.4 591.03,-19.52 590,-30.06 596.8,-28.4"/>
</g>
<!-- Node9 -->
<g id="node9" class="node">
<title>Node9</title>
<g id="a_node9"><a xlink:title=" ">
<polygon fill="none" stroke="#bfbfbf" points="450.18,-112.5 450.18,-131.5 515.18,-131.5 515.18,-112.5 450.18,-112.5"/>
<text text-anchor="middle" x="482.68" y="-119.5" font-family="Helvetica,sans-Serif" font-size="10.00">functional</text>
</a>
</g>
</g>
<!-- Node6&#45;&gt;Node9 -->
<g id="edge8" class="edge">
<title>Node6&#45;&gt;Node9</title>
<path fill="none" stroke="midnightblue" d="M542.69,-224.31C535.72,-215.44 524.88,-201.16 516.68,-188 507.01,-172.5 497.51,-153.96 491.01,-140.66"/>
<polygon fill="midnightblue" stroke="midnightblue" points="494.17,-139.14 486.68,-131.64 487.86,-142.17 494.17,-139.14"/>
</g>
<!-- Node6&#45;&gt;Node10 -->
<g id="edge9" class="edge">
<title>Node6&#45;&gt;Node10</title>
<path fill="none" stroke="midnightblue" d="M570.43,-224.44C591.99,-215.56 625.94,-201.56 650.47,-191.45"/>
<polygon fill="midnightblue" stroke="midnightblue" points="652.11,-194.56 660.02,-187.52 649.44,-188.09 652.11,-194.56"/>
</g>
<!-- Node14 -->
<g id="node14" class="node">
<title>Node14</title>
<g id="a_node14"><a xlink:href="expr_8h.html" target="_top" xlink:title=" ">
<polygon fill="none" stroke="black" points="346.18,-168.5 346.18,-187.5 393.18,-187.5 393.18,-168.5 346.18,-168.5"/>
<text text-anchor="middle" x="369.68" y="-175.5" font-family="Helvetica,sans-Serif" font-size="10.00">expr.h</text>
</a>
</g>
</g>
<!-- Node6&#45;&gt;Node14 -->
<g id="edge14" class="edge">
<title>Node6&#45;&gt;Node14</title>
<path fill="none" stroke="midnightblue" d="M521.16,-224.44C489.08,-214.82 437.06,-199.21 403.1,-189.03"/>
<polygon fill="midnightblue" stroke="midnightblue" points="403.77,-185.57 393.19,-186.05 401.76,-192.28 403.77,-185.57"/>
</g>
<!-- Node10&#45;&gt;Node8 -->
<g id="edge13" class="edge">
<title>Node10&#45;&gt;Node8</title>
<path fill="none" stroke="midnightblue" d="M715.4,-173.32C762.03,-166.85 836.38,-150.3 811.68,-112 772.38,-51.06 686.4,-26.48 633.43,-16.87"/>
<polygon fill="midnightblue" stroke="midnightblue" points="633.74,-13.38 623.3,-15.14 632.56,-20.28 633.74,-13.38"/>
</g>
<!-- Node11 -->
<g id="node11" class="node">
<title>Node11</title>
<g id="a_node11"><a xlink:title=" ">
<polygon fill="none" stroke="#bfbfbf" points="679.18,-112.5 679.18,-131.5 728.18,-131.5 728.18,-112.5 679.18,-112.5"/>
<text text-anchor="middle" x="703.68" y="-119.5" font-family="Helvetica,sans-Serif" font-size="10.00">cstdlib</text>
</a>
</g>
</g>
<!-- Node10&#45;&gt;Node11 -->
<g id="edge10" class="edge">
<title>Node10&#45;&gt;Node11</title>
<path fill="none" stroke="midnightblue" d="M684.47,-168.08C687.59,-160.77 692.1,-150.18 695.97,-141.1"/>
<polygon fill="midnightblue" stroke="midnightblue" points="699.25,-142.32 699.95,-131.75 692.81,-139.58 699.25,-142.32"/>
</g>
<!-- Node12 -->
<g id="node12" class="node">
<title>Node12</title>
<g id="a_node12"><a xlink:title=" ">
<polygon fill="none" stroke="#bfbfbf" points="746.68,-112.5 746.68,-131.5 802.68,-131.5 802.68,-112.5 746.68,-112.5"/>
<text text-anchor="middle" x="774.68" y="-119.5" font-family="Helvetica,sans-Serif" font-size="10.00">sstream</text>
</a>
</g>
</g>
<!-- Node10&#45;&gt;Node12 -->
<g id="edge11" class="edge">
<title>Node10&#45;&gt;Node12</title>
<path fill="none" stroke="midnightblue" d="M695.78,-168.32C710.58,-159.82 733.37,-146.73 750.66,-136.8"/>
<polygon fill="midnightblue" stroke="midnightblue" points="752.68,-139.67 759.61,-131.65 749.2,-133.6 752.68,-139.67"/>
</g>
<!-- Node13 -->
<g id="node13" class="node">
<title>Node13</title>
<g id="a_node13"><a xlink:title=" ">
<polygon fill="none" stroke="#bfbfbf" points="616.68,-112.5 616.68,-131.5 660.68,-131.5 660.68,-112.5 616.68,-112.5"/>
<text text-anchor="middle" x="638.68" y="-119.5" font-family="Helvetica,sans-Serif" font-size="10.00">string</text>
</a>
</g>
</g>
<!-- Node10&#45;&gt;Node13 -->
<g id="edge12" class="edge">
<title>Node10&#45;&gt;Node13</title>
<path fill="none" stroke="midnightblue" d="M673.74,-168.08C667.75,-160.38 658.93,-149.03 651.63,-139.65"/>
<polygon fill="midnightblue" stroke="midnightblue" points="654.39,-137.5 645.48,-131.75 648.86,-141.79 654.39,-137.5"/>
</g>
<!-- Node14&#45;&gt;Node9 -->
<g id="edge25" class="edge">
<title>Node14&#45;&gt;Node9</title>
<path fill="none" stroke="midnightblue" d="M387.58,-168.44C405.93,-159.68 434.68,-145.94 455.77,-135.86"/>
<polygon fill="midnightblue" stroke="midnightblue" points="457.34,-138.99 464.86,-131.52 454.32,-132.67 457.34,-138.99"/>
</g>
<!-- Node15 -->
<g id="node15" class="node">
<title>Node15</title>
<g id="a_node15"><a xlink:href="as__const_8h.html" target="_top" xlink:title=" ">
<polygon fill="none" stroke="black" points="325.68,-112.5 325.68,-131.5 393.68,-131.5 393.68,-112.5 325.68,-112.5"/>
<text text-anchor="middle" x="359.68" y="-119.5" font-family="Helvetica,sans-Serif" font-size="10.00">as_const.h</text>
</a>
</g>
</g>
<!-- Node14&#45;&gt;Node15 -->
<g id="edge15" class="edge">
<title>Node14&#45;&gt;Node15</title>
<path fill="none" stroke="midnightblue" d="M368.03,-168.08C366.7,-160.93 364.79,-150.64 363.14,-141.69"/>
<polygon fill="midnightblue" stroke="midnightblue" points="366.56,-140.95 361.3,-131.75 359.68,-142.22 366.56,-140.95"/>
</g>
<!-- Node16 -->
<g id="node16" class="node">
<title>Node16</title>
<g id="a_node16"><a xlink:href="type_8h.html" target="_top" xlink:title=" ">
<polygon fill="none" stroke="red" points="74.18,-112.5 74.18,-131.5 121.18,-131.5 121.18,-112.5 74.18,-112.5"/>
<text text-anchor="middle" x="97.68" y="-119.5" font-family="Helvetica,sans-Serif" font-size="10.00">type.h</text>
</a>
</g>
</g>
<!-- Node14&#45;&gt;Node16 -->
<g id="edge16" class="edge">
<title>Node14&#45;&gt;Node16</title>
<path fill="none" stroke="midnightblue" d="M345.94,-170.28C342.83,-169.48 339.69,-168.69 336.68,-168 263.96,-151.27 177.74,-136.19 131.31,-128.46"/>
<polygon fill="midnightblue" stroke="midnightblue" points="131.65,-124.97 121.21,-126.79 130.51,-131.87 131.65,-124.97"/>
</g>
<!-- Node39 -->
<g id="node18" class="node">
<title>Node39</title>
<g id="a_node18"><a xlink:href="validation__mode_8h.html" target="_top" xlink:title=" ">
<polygon fill="none" stroke="black" points="89.18,-0.5 89.18,-19.5 196.18,-19.5 196.18,-0.5 89.18,-0.5"/>
<text text-anchor="middle" x="142.68" y="-7.5" font-family="Helvetica,sans-Serif" font-size="10.00">validation_mode.h</text>
</a>
</g>
</g>
<!-- Node14&#45;&gt;Node39 -->
<g id="edge24" class="edge">
<title>Node14&#45;&gt;Node39</title>
<path fill="none" stroke="midnightblue" d="M345.98,-170.11C342.87,-169.33 339.71,-168.6 336.68,-168 212.32,-143.26 164.65,-193.32 53.68,-132 19.12,-112.9 -15.41,-88.03 7.68,-56 24.07,-33.25 52.47,-21.83 79,-16.16"/>
<polygon fill="midnightblue" stroke="midnightblue" points="79.87,-19.56 89.04,-14.26 78.57,-12.68 79.87,-19.56"/>
</g>
<!-- Node40 -->
<g id="node19" class="node">
<title>Node40</title>
<g id="a_node19"><a xlink:href="validate__types_8h.html" target="_top" xlink:title=" ">
<polygon fill="none" stroke="black" points="16.68,-56.5 16.68,-75.5 114.68,-75.5 114.68,-56.5 16.68,-56.5"/>
<text text-anchor="middle" x="65.68" y="-63.5" font-family="Helvetica,sans-Serif" font-size="10.00">validate_types.h</text>
</a>
</g>
</g>
<!-- Node14&#45;&gt;Node40 -->
<g id="edge23" class="edge">
<title>Node14&#45;&gt;Node40</title>
<path fill="none" stroke="midnightblue" d="M345.98,-170.13C342.86,-169.34 339.7,-168.61 336.68,-168 276.91,-155.95 104.86,-177.85 64.68,-132 53.77,-119.55 55.69,-100.04 59.31,-85.64"/>
<polygon fill="midnightblue" stroke="midnightblue" points="62.74,-86.41 62.24,-75.83 56.03,-84.41 62.74,-86.41"/>
</g>
<!-- Node41 -->
<g id="node20" class="node">
<title>Node41</title>
<g id="a_node20"><a xlink:href="validate__expressions_8h.html" target="_top" xlink:title=" ">
<polygon fill="none" stroke="black" points="178.18,-112.5 178.18,-131.5 307.18,-131.5 307.18,-112.5 178.18,-112.5"/>
<text text-anchor="middle" x="242.68" y="-119.5" font-family="Helvetica,sans-Serif" font-size="10.00">validate_expressions.h</text>
</a>
</g>
</g>
<!-- Node14&#45;&gt;Node41 -->
<g id="edge22" class="edge">
<title>Node14&#45;&gt;Node41</title>
<path fill="none" stroke="midnightblue" d="M349.55,-168.44C328.65,-159.56 295.74,-145.56 271.96,-135.45"/>
<polygon fill="midnightblue" stroke="midnightblue" points="273.28,-132.21 262.71,-131.52 270.54,-138.65 273.28,-132.21"/>
</g>
<!-- Node16&#45;&gt;Node37 -->
<g id="edge17" class="edge">
<title>Node16&#45;&gt;Node37</title>
<path fill="none" stroke="midnightblue" d="M114.71,-112.32C131.71,-103.66 158.05,-90.24 177.67,-80.25"/>
<polygon fill="midnightblue" stroke="midnightblue" points="179.37,-83.31 186.69,-75.65 176.19,-77.08 179.37,-83.31"/>
</g>
<!-- Node16&#45;&gt;Node39 -->
<g id="edge21" class="edge">
<title>Node16&#45;&gt;Node39</title>
<path fill="none" stroke="midnightblue" d="M103.51,-112.36C109.26,-103.53 118,-89.27 123.68,-76 130.18,-60.8 135.27,-42.68 138.54,-29.44"/>
<polygon fill="midnightblue" stroke="midnightblue" points="141.96,-30.18 140.85,-19.64 135.15,-28.57 141.96,-30.18"/>
</g>
<!-- Node16&#45;&gt;Node40 -->
<g id="edge20" class="edge">
<title>Node16&#45;&gt;Node40</title>
<path fill="none" stroke="midnightblue" d="M92.39,-112.08C87.97,-104.61 81.51,-93.72 76.06,-84.52"/>
<polygon fill="midnightblue" stroke="midnightblue" points="78.97,-82.57 70.86,-75.75 72.95,-86.14 78.97,-82.57"/>
</g>
<!-- Node37&#45;&gt;Node8 -->
<g id="edge18" class="edge">
<title>Node37&#45;&gt;Node8</title>
<path fill="none" stroke="midnightblue" d="M236.5,-60.4C305.5,-50.72 465.67,-28.25 543.97,-17.27"/>
<polygon fill="midnightblue" stroke="midnightblue" points="544.59,-20.72 554,-15.86 543.62,-13.79 544.59,-20.72"/>
</g>
<!-- Node37&#45;&gt;Node39 -->
<g id="edge19" class="edge">
<title>Node37&#45;&gt;Node39</title>
<path fill="none" stroke="midnightblue" d="M193.88,-56.32C184.86,-48.34 171.27,-36.31 160.36,-26.65"/>
<polygon fill="midnightblue" stroke="midnightblue" points="162.46,-23.84 152.66,-19.83 157.82,-29.08 162.46,-23.84"/>
</g>
<!-- Node42&#45;&gt;Node6 -->
<g id="edge29" class="edge">
<title>Node42&#45;&gt;Node6</title>
<path fill="none" stroke="midnightblue" d="M464.9,-280.32C481.03,-271.7 505.98,-258.36 524.64,-248.39"/>
<polygon fill="midnightblue" stroke="midnightblue" points="526.32,-251.46 533.49,-243.65 523.02,-245.28 526.32,-251.46"/>
</g>
<!-- Node42&#45;&gt;Node10 -->
<g id="edge30" class="edge">
<title>Node42&#45;&gt;Node10</title>
<path fill="none" stroke="midnightblue" d="M485.44,-281.42C515.81,-274.3 559.5,-262.01 594.68,-244 620.78,-230.64 647.15,-209.28 663.68,-194.72"/>
<polygon fill="midnightblue" stroke="midnightblue" points="666.27,-197.1 671.37,-187.81 661.59,-191.89 666.27,-197.1"/>
</g>
<!-- Node42&#45;&gt;Node14 -->
<g id="edge28" class="edge">
<title>Node42&#45;&gt;Node14</title>
<path fill="none" stroke="midnightblue" d="M433.89,-280.41C421.33,-272.43 403.65,-259.46 392.68,-244 382.73,-229.98 376.71,-211.23 373.33,-197.48"/>
<polygon fill="midnightblue" stroke="midnightblue" points="376.75,-196.71 371.17,-187.7 369.91,-198.22 376.75,-196.71"/>
</g>
<!-- Node42&#45;&gt;Node37 -->
<g id="edge35" class="edge">
<title>Node42&#45;&gt;Node37</title>
<path fill="none" stroke="midnightblue" d="M412.06,-289.6C346.61,-288.37 211.5,-274.9 158.68,-188 137.73,-153.55 168.45,-107.76 188.56,-83.58"/>
<polygon fill="midnightblue" stroke="midnightblue" points="191.47,-85.57 195.38,-75.72 186.18,-80.98 191.47,-85.57"/>
</g>
<!-- Node43 -->
<g id="node22" class="node">
<title>Node43</title>
<g id="a_node22"><a xlink:href="mp__arith_8h.html" target="_top" xlink:title=" ">
<polygon fill="none" stroke="black" points="276.18,-224.5 276.18,-243.5 345.18,-243.5 345.18,-224.5 276.18,-224.5"/>
<text text-anchor="middle" x="310.68" y="-231.5" font-family="Helvetica,sans-Serif" font-size="10.00">mp_arith.h</text>
</a>
</g>
</g>
<!-- Node42&#45;&gt;Node43 -->
<g id="edge31" class="edge">
<title>Node42&#45;&gt;Node43</title>
<path fill="none" stroke="midnightblue" d="M426.81,-280.44C403.9,-271.48 367.7,-257.31 341.81,-247.18"/>
<polygon fill="midnightblue" stroke="midnightblue" points="343.03,-243.9 332.44,-243.52 340.48,-250.42 343.03,-243.9"/>
</g>
<!-- Node27 -->
<g id="node25" class="node">
<title>Node27</title>
<g id="a_node25"><a xlink:title=" ">
<polygon fill="none" stroke="#bfbfbf" points="402.18,-224.5 402.18,-243.5 495.18,-243.5 495.18,-224.5 402.18,-224.5"/>
<text text-anchor="middle" x="448.68" y="-231.5" font-family="Helvetica,sans-Serif" font-size="10.00">unordered_map</text>
</a>
</g>
</g>
<!-- Node42&#45;&gt;Node27 -->
<g id="edge36" class="edge">
<title>Node42&#45;&gt;Node27</title>
<path fill="none" stroke="midnightblue" d="M448.68,-280.08C448.68,-273.01 448.68,-262.86 448.68,-253.99"/>
<polygon fill="midnightblue" stroke="midnightblue" points="452.18,-253.75 448.68,-243.75 445.18,-253.75 452.18,-253.75"/>
</g>
<!-- Node43&#45;&gt;Node13 -->
<g id="edge33" class="edge">
<title>Node43&#45;&gt;Node13</title>
<path fill="none" stroke="midnightblue" d="M336.14,-224.46C395.29,-204.62 541.87,-155.47 606.82,-133.68"/>
<polygon fill="midnightblue" stroke="midnightblue" points="608.15,-136.93 616.52,-130.43 605.92,-130.29 608.15,-136.93"/>
</g>
<!-- Node23 -->
<g id="node23" class="node">
<title>Node23</title>
<g id="a_node23"><a xlink:title=" ">
<polygon fill="none" stroke="#bfbfbf" points="279.68,-168.5 279.68,-187.5 327.68,-187.5 327.68,-168.5 279.68,-168.5"/>
<text text-anchor="middle" x="303.68" y="-175.5" font-family="Helvetica,sans-Serif" font-size="10.00">iosfwd</text>
</a>
</g>
</g>
<!-- Node43&#45;&gt;Node23 -->
<g id="edge32" class="edge">
<title>Node43&#45;&gt;Node23</title>
<path fill="none" stroke="midnightblue" d="M309.52,-224.08C308.59,-216.93 307.26,-206.64 306.1,-197.69"/>
<polygon fill="midnightblue" stroke="midnightblue" points="309.57,-197.22 304.81,-187.75 302.63,-198.12 309.57,-197.22"/>
</g>
<!-- Node44 -->
<g id="node24" class="node">
<title>Node44</title>
<g id="a_node24"><a xlink:title=" ">
<polygon fill="none" stroke="#bfbfbf" points="167.68,-168.5 167.68,-187.5 261.68,-187.5 261.68,-168.5 167.68,-168.5"/>
<text text-anchor="middle" x="214.68" y="-175.5" font-family="Helvetica,sans-Serif" font-size="10.00">big&#45;int/bigint.hh</text>
</a>
</g>
</g>
<!-- Node43&#45;&gt;Node44 -->
<g id="edge34" class="edge">
<title>Node43&#45;&gt;Node44</title>
<path fill="none" stroke="midnightblue" d="M295.25,-224.32C280.14,-215.82 256.86,-202.73 239.21,-192.8"/>
<polygon fill="midnightblue" stroke="midnightblue" points="240.49,-189.51 230.06,-187.65 237.06,-195.61 240.49,-189.51"/>
</g>
<!-- Node45&#45;&gt;Node6 -->
<g id="edge39" class="edge">
<title>Node45&#45;&gt;Node6</title>
<path fill="none" stroke="midnightblue" d="M595.75,-336.37C587.61,-318.46 568.73,-276.92 557.84,-252.95"/>
<polygon fill="midnightblue" stroke="midnightblue" points="560.91,-251.25 553.58,-243.59 554.53,-254.14 560.91,-251.25"/>
</g>
<!-- Node45&#45;&gt;Node10 -->
<g id="edge40" class="edge">
<title>Node45&#45;&gt;Node10</title>
<path fill="none" stroke="midnightblue" d="M621.22,-336.44C636.57,-329.15 656.25,-317.11 666.68,-300 686.05,-268.21 685.4,-222.92 683.1,-197.74"/>
<polygon fill="midnightblue" stroke="midnightblue" points="686.57,-197.25 682,-187.7 679.61,-198.02 686.57,-197.25"/>
</g>
<!-- Node45&#45;&gt;Node42 -->
<g id="edge41" class="edge">
<title>Node45&#45;&gt;Node42</title>
<path fill="none" stroke="midnightblue" d="M575.75,-336.44C550.46,-327.4 510.37,-313.06 482,-302.92"/>
<polygon fill="midnightblue" stroke="midnightblue" points="483.09,-299.59 472.49,-299.52 480.73,-306.18 483.09,-299.59"/>
</g>
<!-- Node46&#45;&gt;Node45 -->
<g id="edge43" class="edge">
<title>Node46&#45;&gt;Node45</title>
<path fill="none" stroke="midnightblue" d="M622.22,-392.08C618.52,-384.69 613.15,-373.95 608.58,-364.81"/>
<polygon fill="midnightblue" stroke="midnightblue" points="611.66,-363.13 604.05,-355.75 605.39,-366.26 611.66,-363.13"/>
</g>
</g>
</svg>
