<?xml version="1.0" encoding="UTF-8" standalone="no"?>
<!DOCTYPE svg PUBLIC "-//W3C//DTD SVG 1.1//EN"
 "http://www.w3.org/Graphics/SVG/1.1/DTD/svg11.dtd">
<!-- Generated by graphviz version 2.43.0 (0)
 -->
<!-- Title: /home/runner/work/cbmc/cbmc/src/util/cout_message.h Pages: 1 -->
<svg width="1070pt" height="431pt"
 viewBox="0.00 0.00 1069.50 431.00" xmlns="http://www.w3.org/2000/svg" xmlns:xlink="http://www.w3.org/1999/xlink">
<g id="graph0" class="graph" transform="scale(1 1) rotate(0) translate(4 427)">
<title>/home/runner/work/cbmc/cbmc/src/util/cout_message.h</title>
<!-- Node1 -->
<g id="node1" class="node">
<title>Node1</title>
<g id="a_node1"><a xlink:title=" ">
<polygon fill="#bfbfbf" stroke="black" points="215.5,-392.5 215.5,-422.5 379.5,-422.5 379.5,-392.5 215.5,-392.5"/>
<text text-anchor="start" x="223.5" y="-410.5" font-family="Helvetica,sans-Serif" font-size="10.00">/home/runner/work/cbmc</text>
<text text-anchor="middle" x="297.5" y="-399.5" font-family="Helvetica,sans-Serif" font-size="10.00">/cbmc/src/util/cout_message.h</text>
</a>
</g>
</g>
<!-- Node2 -->
<g id="node2" class="node">
<title>Node2</title>
<g id="a_node2"><a xlink:href="src_2util_2message_8h.html" target="_top" xlink:title=" ">
<polygon fill="none" stroke="black" points="262.5,-336.5 262.5,-355.5 332.5,-355.5 332.5,-336.5 262.5,-336.5"/>
<text text-anchor="middle" x="297.5" y="-343.5" font-family="Helvetica,sans-Serif" font-size="10.00">message.h</text>
</a>
</g>
</g>
<!-- Node1&#45;&gt;Node2 -->
<g id="edge1" class="edge">
<title>Node1&#45;&gt;Node2</title>
<path fill="none" stroke="midnightblue" d="M297.5,-392.4C297.5,-384.47 297.5,-374.46 297.5,-365.86"/>
<polygon fill="midnightblue" stroke="midnightblue" points="301,-365.66 297.5,-355.66 294,-365.66 301,-365.66"/>
</g>
<!-- Node3 -->
<g id="node3" class="node">
<title>Node3</title>
<g id="a_node3"><a xlink:title=" ">
<polygon fill="none" stroke="#bfbfbf" points="0,-280.5 0,-299.5 65,-299.5 65,-280.5 0,-280.5"/>
<text text-anchor="middle" x="32.5" y="-287.5" font-family="Helvetica,sans-Serif" font-size="10.00">functional</text>
</a>
</g>
</g>
<!-- Node2&#45;&gt;Node3 -->
<g id="edge2" class="edge">
<title>Node2&#45;&gt;Node3</title>
<path fill="none" stroke="midnightblue" d="M262.31,-337.83C214,-327.99 127.23,-310.3 75.24,-299.71"/>
<polygon fill="midnightblue" stroke="midnightblue" points="75.83,-296.26 65.33,-297.69 74.43,-303.12 75.83,-296.26"/>
</g>
<!-- Node4 -->
<g id="node4" class="node">
<title>Node4</title>
<g id="a_node4"><a xlink:title=" ">
<polygon fill="none" stroke="#bfbfbf" points="342.5,-56.5 342.5,-75.5 390.5,-75.5 390.5,-56.5 342.5,-56.5"/>
<text text-anchor="middle" x="366.5" y="-63.5" font-family="Helvetica,sans-Serif" font-size="10.00">iosfwd</text>
</a>
</g>
</g>
<!-- Node2&#45;&gt;Node4 -->
<g id="edge3" class="edge">
<title>Node2&#45;&gt;Node4</title>
<path fill="none" stroke="midnightblue" d="M302.78,-336.23C313.23,-318.04 335.5,-274.6 335.5,-235 335.5,-235 335.5,-235 335.5,-177 335.5,-143.41 349.06,-106.14 358.24,-84.75"/>
<polygon fill="midnightblue" stroke="midnightblue" points="361.44,-86.17 362.32,-75.61 355.05,-83.31 361.44,-86.17"/>
</g>
<!-- Node5 -->
<g id="node5" class="node">
<title>Node5</title>
<g id="a_node5"><a xlink:title=" ">
<polygon fill="none" stroke="#bfbfbf" points="1005.5,-0.5 1005.5,-19.5 1061.5,-19.5 1061.5,-0.5 1005.5,-0.5"/>
<text text-anchor="middle" x="1033.5" y="-7.5" font-family="Helvetica,sans-Serif" font-size="10.00">sstream</text>
</a>
</g>
</g>
<!-- Node2&#45;&gt;Node5 -->
<g id="edge4" class="edge">
<title>Node2&#45;&gt;Node5</title>
<path fill="none" stroke="midnightblue" d="M332.76,-343.67C441.37,-339.33 769.78,-324.5 873.5,-300 948.2,-282.36 1033.5,-311.76 1033.5,-235 1033.5,-235 1033.5,-235 1033.5,-121 1033.5,-88.95 1033.5,-51.64 1033.5,-29.75"/>
<polygon fill="midnightblue" stroke="midnightblue" points="1037,-29.56 1033.5,-19.56 1030,-29.56 1037,-29.56"/>
</g>
<!-- Node6 -->
<g id="node6" class="node">
<title>Node6</title>
<g id="a_node6"><a xlink:title=" ">
<polygon fill="none" stroke="#bfbfbf" points="292.5,-0.5 292.5,-19.5 336.5,-19.5 336.5,-0.5 292.5,-0.5"/>
<text text-anchor="middle" x="314.5" y="-7.5" font-family="Helvetica,sans-Serif" font-size="10.00">string</text>
</a>
</g>
</g>
<!-- Node2&#45;&gt;Node6 -->
<g id="edge5" class="edge">
<title>Node2&#45;&gt;Node6</title>
<path fill="none" stroke="midnightblue" d="M262.43,-341.91C204.1,-334.64 93.5,-310.85 93.5,-235 93.5,-235 93.5,-235 93.5,-121 93.5,-37.92 220.23,-17.59 281.76,-12.61"/>
<polygon fill="midnightblue" stroke="midnightblue" points="282.37,-16.08 292.09,-11.87 281.87,-9.09 282.37,-16.08"/>
</g>
<!-- Node7 -->
<g id="node7" class="node">
<title>Node7</title>
<g id="a_node7"><a xlink:href="deprecate_8h.html" target="_top" xlink:title=" ">
<polygon fill="none" stroke="black" points="233.5,-168.5 233.5,-187.5 307.5,-187.5 307.5,-168.5 233.5,-168.5"/>
<text text-anchor="middle" x="270.5" y="-175.5" font-family="Helvetica,sans-Serif" font-size="10.00">deprecate.h</text>
</a>
</g>
</g>
<!-- Node2&#45;&gt;Node7 -->
<g id="edge6" class="edge">
<title>Node2&#45;&gt;Node7</title>
<path fill="none" stroke="midnightblue" d="M296.05,-336.08C291.8,-309.95 279.32,-233.21 273.52,-197.58"/>
<polygon fill="midnightblue" stroke="midnightblue" points="276.95,-196.88 271.89,-187.57 270.04,-198 276.95,-196.88"/>
</g>
<!-- Node8 -->
<g id="node8" class="node">
<title>Node8</title>
<g id="a_node8"><a xlink:href="src_2util_2invariant_8h.html" target="_top" xlink:title=" ">
<polygon fill="none" stroke="black" points="923,-56.5 923,-75.5 992,-75.5 992,-56.5 923,-56.5"/>
<text text-anchor="middle" x="957.5" y="-63.5" font-family="Helvetica,sans-Serif" font-size="10.00">invariant.h</text>
</a>
</g>
</g>
<!-- Node2&#45;&gt;Node8 -->
<g id="edge7" class="edge">
<title>Node2&#45;&gt;Node8</title>
<path fill="none" stroke="midnightblue" d="M332.59,-343.22C474.13,-335.59 995.5,-302.86 995.5,-235 995.5,-235 995.5,-235 995.5,-177 995.5,-142.81 978.9,-105.76 967.64,-84.57"/>
<polygon fill="midnightblue" stroke="midnightblue" points="970.68,-82.83 962.78,-75.77 964.55,-86.22 970.68,-82.83"/>
</g>
<!-- Node11 -->
<g id="node11" class="node">
<title>Node11</title>
<g id="a_node11"><a xlink:href="source__location_8h.html" target="_top" xlink:title=" ">
<polygon fill="none" stroke="black" points="167.5,-280.5 167.5,-299.5 269.5,-299.5 269.5,-280.5 167.5,-280.5"/>
<text text-anchor="middle" x="218.5" y="-287.5" font-family="Helvetica,sans-Serif" font-size="10.00">source_location.h</text>
</a>
</g>
</g>
<!-- Node2&#45;&gt;Node11 -->
<g id="edge12" class="edge">
<title>Node2&#45;&gt;Node11</title>
<path fill="none" stroke="midnightblue" d="M284.81,-336.32C272.6,-327.98 253.92,-315.21 239.5,-305.35"/>
<polygon fill="midnightblue" stroke="midnightblue" points="241.39,-302.41 231.16,-299.65 237.44,-308.19 241.39,-302.41"/>
</g>
<!-- Node8&#45;&gt;Node5 -->
<g id="edge9" class="edge">
<title>Node8&#45;&gt;Node5</title>
<path fill="none" stroke="midnightblue" d="M969.71,-56.32C981.28,-48.11 998.88,-35.6 1012.66,-25.81"/>
<polygon fill="midnightblue" stroke="midnightblue" points="1014.94,-28.48 1021.07,-19.83 1010.89,-22.77 1014.94,-28.48"/>
</g>
<!-- Node8&#45;&gt;Node6 -->
<g id="edge10" class="edge">
<title>Node8&#45;&gt;Node6</title>
<path fill="none" stroke="midnightblue" d="M922.93,-62.1C810.46,-52.65 455.97,-22.88 346.82,-13.71"/>
<polygon fill="midnightblue" stroke="midnightblue" points="347,-10.22 336.74,-12.87 346.42,-17.19 347,-10.22"/>
</g>
<!-- Node9 -->
<g id="node9" class="node">
<title>Node9</title>
<g id="a_node9"><a xlink:title=" ">
<polygon fill="none" stroke="#bfbfbf" points="938,-0.5 938,-19.5 987,-19.5 987,-0.5 938,-0.5"/>
<text text-anchor="middle" x="962.5" y="-7.5" font-family="Helvetica,sans-Serif" font-size="10.00">cstdlib</text>
</a>
</g>
</g>
<!-- Node8&#45;&gt;Node9 -->
<g id="edge8" class="edge">
<title>Node8&#45;&gt;Node9</title>
<path fill="none" stroke="midnightblue" d="M958.33,-56.08C958.98,-49.01 959.92,-38.86 960.74,-29.99"/>
<polygon fill="midnightblue" stroke="midnightblue" points="964.25,-30.03 961.69,-19.75 957.28,-29.39 964.25,-30.03"/>
</g>
<!-- Node10 -->
<g id="node10" class="node">
<title>Node10</title>
<g id="a_node10"><a xlink:title=" ">
<polygon fill="none" stroke="#bfbfbf" points="851,-0.5 851,-19.5 920,-19.5 920,-0.5 851,-0.5"/>
<text text-anchor="middle" x="885.5" y="-7.5" font-family="Helvetica,sans-Serif" font-size="10.00">type_traits</text>
</a>
</g>
</g>
<!-- Node8&#45;&gt;Node10 -->
<g id="edge11" class="edge">
<title>Node8&#45;&gt;Node10</title>
<path fill="none" stroke="midnightblue" d="M945.93,-56.32C935.08,-48.18 918.62,-35.84 905.62,-26.09"/>
<polygon fill="midnightblue" stroke="midnightblue" points="907.38,-23.03 897.28,-19.83 903.18,-28.63 907.38,-23.03"/>
</g>
<!-- Node11&#45;&gt;Node6 -->
<g id="edge36" class="edge">
<title>Node11&#45;&gt;Node6</title>
<path fill="none" stroke="midnightblue" d="M201.66,-280.38C187.85,-272.55 168.65,-259.82 156.5,-244 137.64,-219.45 131.5,-209.95 131.5,-179 131.5,-179 131.5,-179 131.5,-121 131.5,-51.47 229.75,-24.77 282.27,-15.47"/>
<polygon fill="midnightblue" stroke="midnightblue" points="283.13,-18.88 292.43,-13.79 281.99,-11.97 283.13,-18.88"/>
</g>
<!-- Node11&#45;&gt;Node7 -->
<g id="edge13" class="edge">
<title>Node11&#45;&gt;Node7</title>
<path fill="none" stroke="midnightblue" d="M222.58,-280.37C231.05,-262.46 250.68,-220.92 262.02,-196.95"/>
<polygon fill="midnightblue" stroke="midnightblue" points="265.33,-198.13 266.44,-187.59 259,-195.14 265.33,-198.13"/>
</g>
<!-- Node12 -->
<g id="node12" class="node">
<title>Node12</title>
<g id="a_node12"><a xlink:href="irep_8h.html" target="_top" xlink:title=" ">
<polygon fill="none" stroke="black" points="529.5,-224.5 529.5,-243.5 573.5,-243.5 573.5,-224.5 529.5,-224.5"/>
<text text-anchor="middle" x="551.5" y="-231.5" font-family="Helvetica,sans-Serif" font-size="10.00">irep.h</text>
</a>
</g>
</g>
<!-- Node11&#45;&gt;Node12 -->
<g id="edge14" class="edge">
<title>Node11&#45;&gt;Node12</title>
<path fill="none" stroke="midnightblue" d="M269.8,-280.68C339.36,-269.4 461.53,-249.59 519.39,-240.21"/>
<polygon fill="midnightblue" stroke="midnightblue" points="520.1,-243.64 529.41,-238.58 518.98,-236.73 520.1,-243.64"/>
</g>
<!-- Node29 -->
<g id="node24" class="node">
<title>Node29</title>
<g id="a_node24"><a xlink:href="optional_8h.html" target="_top" xlink:title=" ">
<polygon fill="none" stroke="black" points="166,-224.5 166,-243.5 231,-243.5 231,-224.5 166,-224.5"/>
<text text-anchor="middle" x="198.5" y="-231.5" font-family="Helvetica,sans-Serif" font-size="10.00">optional.h</text>
</a>
</g>
</g>
<!-- Node11&#45;&gt;Node29 -->
<g id="edge33" class="edge">
<title>Node11&#45;&gt;Node29</title>
<path fill="none" stroke="midnightblue" d="M215.2,-280.08C212.52,-272.85 208.65,-262.41 205.31,-253.4"/>
<polygon fill="midnightblue" stroke="midnightblue" points="208.5,-251.91 201.74,-243.75 201.93,-254.34 208.5,-251.91"/>
</g>
<!-- Node12&#45;&gt;Node6 -->
<g id="edge15" class="edge">
<title>Node12&#45;&gt;Node6</title>
<path fill="none" stroke="midnightblue" d="M530.07,-224.47C485.18,-205.38 381.49,-154.63 333.5,-76 324.79,-61.73 319.9,-43.26 317.26,-29.66"/>
<polygon fill="midnightblue" stroke="midnightblue" points="320.68,-28.85 315.55,-19.58 313.77,-30.02 320.68,-28.85"/>
</g>
<!-- Node12&#45;&gt;Node8 -->
<g id="edge17" class="edge">
<title>Node12&#45;&gt;Node8</title>
<path fill="none" stroke="midnightblue" d="M573.64,-230.35C648.04,-221 887.14,-187.09 937.5,-132 949.07,-119.35 953.95,-100.14 956,-85.88"/>
<polygon fill="midnightblue" stroke="midnightblue" points="959.51,-86.05 957.12,-75.73 952.55,-85.28 959.51,-86.05"/>
</g>
<!-- Node13 -->
<g id="node13" class="node">
<title>Node13</title>
<g id="a_node13"><a xlink:title=" ">
<polygon fill="none" stroke="#bfbfbf" points="589,-0.5 589,-19.5 636,-19.5 636,-0.5 589,-0.5"/>
<text text-anchor="middle" x="612.5" y="-7.5" font-family="Helvetica,sans-Serif" font-size="10.00">vector</text>
</a>
</g>
</g>
<!-- Node12&#45;&gt;Node13 -->
<g id="edge16" class="edge">
<title>Node12&#45;&gt;Node13</title>
<path fill="none" stroke="midnightblue" d="M553.86,-224.29C559.68,-203.67 576.05,-150.71 600.5,-112 612.09,-93.65 625.63,-96.23 633.5,-76 639.73,-59.99 632.19,-41.29 624.46,-28.07"/>
<polygon fill="midnightblue" stroke="midnightblue" points="627.34,-26.06 619,-19.52 621.44,-29.84 627.34,-26.06"/>
</g>
<!-- Node14 -->
<g id="node14" class="node">
<title>Node14</title>
<g id="a_node14"><a xlink:href="irep__ids_8h.html" target="_top" xlink:title="util">
<polygon fill="none" stroke="black" points="489.5,-168.5 489.5,-187.5 553.5,-187.5 553.5,-168.5 489.5,-168.5"/>
<text text-anchor="middle" x="521.5" y="-175.5" font-family="Helvetica,sans-Serif" font-size="10.00">irep_ids.h</text>
</a>
</g>
</g>
<!-- Node12&#45;&gt;Node14 -->
<g id="edge18" class="edge">
<title>Node12&#45;&gt;Node14</title>
<path fill="none" stroke="midnightblue" d="M546.55,-224.08C542.4,-216.61 536.35,-205.72 531.23,-196.52"/>
<polygon fill="midnightblue" stroke="midnightblue" points="534.28,-194.79 526.36,-187.75 528.16,-198.19 534.28,-194.79"/>
</g>
<!-- Node24 -->
<g id="node19" class="node">
<title>Node24</title>
<g id="a_node19"><a xlink:href="forward__list__as__map_8h.html" target="_top" xlink:title=" ">
<polygon fill="none" stroke="black" points="665,-168.5 665,-187.5 792,-187.5 792,-168.5 665,-168.5"/>
<text text-anchor="middle" x="728.5" y="-175.5" font-family="Helvetica,sans-Serif" font-size="10.00">forward_list_as_map.h</text>
</a>
</g>
</g>
<!-- Node12&#45;&gt;Node24 -->
<g id="edge26" class="edge">
<title>Node12&#45;&gt;Node24</title>
<path fill="none" stroke="midnightblue" d="M573.56,-226.27C602.95,-217.3 655.39,-201.3 691.04,-190.43"/>
<polygon fill="midnightblue" stroke="midnightblue" points="692.07,-193.77 700.62,-187.51 690.03,-187.08 692.07,-193.77"/>
</g>
<!-- Node15 -->
<g id="node15" class="node">
<title>Node15</title>
<g id="a_node15"><a xlink:href="dstring_8h.html" target="_top" xlink:title="Container for C&#45;Strings.">
<polygon fill="none" stroke="black" points="494,-112.5 494,-131.5 553,-131.5 553,-112.5 494,-112.5"/>
<text text-anchor="middle" x="523.5" y="-119.5" font-family="Helvetica,sans-Serif" font-size="10.00">dstring.h</text>
</a>
</g>
</g>
<!-- Node14&#45;&gt;Node15 -->
<g id="edge19" class="edge">
<title>Node14&#45;&gt;Node15</title>
<path fill="none" stroke="midnightblue" d="M521.83,-168.08C522.09,-161.01 522.47,-150.86 522.8,-141.99"/>
<polygon fill="midnightblue" stroke="midnightblue" points="526.3,-141.87 523.18,-131.75 519.31,-141.61 526.3,-141.87"/>
</g>
<!-- Node23 -->
<g id="node18" class="node">
<title>Node23</title>
<g id="a_node18"><a xlink:title=" ">
<polygon fill="none" stroke="#bfbfbf" points="401.5,-112.5 401.5,-131.5 475.5,-131.5 475.5,-112.5 401.5,-112.5"/>
<text text-anchor="middle" x="438.5" y="-119.5" font-family="Helvetica,sans-Serif" font-size="10.00">irep_ids.def</text>
</a>
</g>
</g>
<!-- Node14&#45;&gt;Node23 -->
<g id="edge25" class="edge">
<title>Node14&#45;&gt;Node23</title>
<path fill="none" stroke="midnightblue" d="M508.16,-168.32C495.34,-159.98 475.72,-147.21 460.56,-137.35"/>
<polygon fill="midnightblue" stroke="midnightblue" points="462.09,-134.17 451.8,-131.65 458.28,-140.04 462.09,-134.17"/>
</g>
<!-- Node15&#45;&gt;Node4 -->
<g id="edge20" class="edge">
<title>Node15&#45;&gt;Node4</title>
<path fill="none" stroke="midnightblue" d="M498.62,-112.44C472.06,-103.31 429.79,-88.77 400.24,-78.6"/>
<polygon fill="midnightblue" stroke="midnightblue" points="401.34,-75.28 390.74,-75.34 399.06,-81.9 401.34,-75.28"/>
</g>
<!-- Node15&#45;&gt;Node6 -->
<g id="edge21" class="edge">
<title>Node15&#45;&gt;Node6</title>
<path fill="none" stroke="midnightblue" d="M519.25,-112.41C511.88,-98.44 495.42,-70.85 473.5,-56 434.82,-29.79 381,-18.72 346.96,-14.13"/>
<polygon fill="midnightblue" stroke="midnightblue" points="347,-10.61 336.65,-12.85 346.14,-17.55 347,-10.61"/>
</g>
<!-- Node16 -->
<g id="node16" class="node">
<title>Node16</title>
<g id="a_node16"><a xlink:href="magic_8h.html" target="_top" xlink:title="Magic numbers used throughout the codebase.">
<polygon fill="none" stroke="red" points="408.5,-56.5 408.5,-75.5 464.5,-75.5 464.5,-56.5 408.5,-56.5"/>
<text text-anchor="middle" x="436.5" y="-63.5" font-family="Helvetica,sans-Serif" font-size="10.00">magic.h</text>
</a>
</g>
</g>
<!-- Node15&#45;&gt;Node16 -->
<g id="edge22" class="edge">
<title>Node15&#45;&gt;Node16</title>
<path fill="none" stroke="midnightblue" d="M509.52,-112.32C495.95,-103.9 475.12,-90.97 459.18,-81.07"/>
<polygon fill="midnightblue" stroke="midnightblue" points="460.79,-77.95 450.44,-75.65 457.09,-83.9 460.79,-77.95"/>
</g>
<!-- Node18 -->
<g id="node17" class="node">
<title>Node18</title>
<g id="a_node17"><a xlink:href="string__container_8h.html" target="_top" xlink:title="Container for C&#45;Strings.">
<polygon fill="none" stroke="red" points="520.5,-56.5 520.5,-75.5 624.5,-75.5 624.5,-56.5 520.5,-56.5"/>
<text text-anchor="middle" x="572.5" y="-63.5" font-family="Helvetica,sans-Serif" font-size="10.00">string_container.h</text>
</a>
</g>
</g>
<!-- Node15&#45;&gt;Node18 -->
<g id="edge23" class="edge">
<title>Node15&#45;&gt;Node18</title>
<path fill="none" stroke="midnightblue" d="M531.59,-112.08C538.66,-104.3 549.09,-92.8 557.65,-83.37"/>
<polygon fill="midnightblue" stroke="midnightblue" points="560.43,-85.51 564.56,-75.75 555.25,-80.8 560.43,-85.51"/>
</g>
<!-- Node18&#45;&gt;Node13 -->
<g id="edge24" class="edge">
<title>Node18&#45;&gt;Node13</title>
<path fill="none" stroke="midnightblue" d="M579.11,-56.08C584.76,-48.46 593.04,-37.26 599.95,-27.94"/>
<polygon fill="midnightblue" stroke="midnightblue" points="602.88,-29.87 606.02,-19.75 597.25,-25.7 602.88,-29.87"/>
</g>
<!-- Node25 -->
<g id="node20" class="node">
<title>Node25</title>
<g id="a_node20"><a xlink:title=" ">
<polygon fill="none" stroke="#bfbfbf" points="609.5,-112.5 609.5,-131.5 673.5,-131.5 673.5,-112.5 609.5,-112.5"/>
<text text-anchor="middle" x="641.5" y="-119.5" font-family="Helvetica,sans-Serif" font-size="10.00">algorithm</text>
</a>
</g>
</g>
<!-- Node24&#45;&gt;Node25 -->
<g id="edge27" class="edge">
<title>Node24&#45;&gt;Node25</title>
<path fill="none" stroke="midnightblue" d="M714.52,-168.32C700.95,-159.9 680.12,-146.97 664.18,-137.07"/>
<polygon fill="midnightblue" stroke="midnightblue" points="665.79,-133.95 655.44,-131.65 662.09,-139.9 665.79,-133.95"/>
</g>
<!-- Node26 -->
<g id="node21" class="node">
<title>Node26</title>
<g id="a_node21"><a xlink:title=" ">
<polygon fill="none" stroke="#bfbfbf" points="691.5,-112.5 691.5,-131.5 765.5,-131.5 765.5,-112.5 691.5,-112.5"/>
<text text-anchor="middle" x="728.5" y="-119.5" font-family="Helvetica,sans-Serif" font-size="10.00">forward_list</text>
</a>
</g>
</g>
<!-- Node24&#45;&gt;Node26 -->
<g id="edge28" class="edge">
<title>Node24&#45;&gt;Node26</title>
<path fill="none" stroke="midnightblue" d="M728.5,-168.08C728.5,-161.01 728.5,-150.86 728.5,-141.99"/>
<polygon fill="midnightblue" stroke="midnightblue" points="732,-141.75 728.5,-131.75 725,-141.75 732,-141.75"/>
</g>
<!-- Node27 -->
<g id="node22" class="node">
<title>Node27</title>
<g id="a_node22"><a xlink:href="as__const_8h.html" target="_top" xlink:title=" ">
<polygon fill="none" stroke="black" points="783.5,-112.5 783.5,-131.5 851.5,-131.5 851.5,-112.5 783.5,-112.5"/>
<text text-anchor="middle" x="817.5" y="-119.5" font-family="Helvetica,sans-Serif" font-size="10.00">as_const.h</text>
</a>
</g>
</g>
<!-- Node24&#45;&gt;Node27 -->
<g id="edge29" class="edge">
<title>Node24&#45;&gt;Node27</title>
<path fill="none" stroke="midnightblue" d="M742.8,-168.32C756.68,-159.9 777.99,-146.97 794.3,-137.07"/>
<polygon fill="midnightblue" stroke="midnightblue" points="796.5,-139.83 803.24,-131.65 792.87,-133.85 796.5,-139.83"/>
</g>
<!-- Node28 -->
<g id="node23" class="node">
<title>Node28</title>
<g id="a_node23"><a xlink:href="narrow_8h.html" target="_top" xlink:title=" ">
<polygon fill="none" stroke="black" points="870,-112.5 870,-131.5 929,-131.5 929,-112.5 870,-112.5"/>
<text text-anchor="middle" x="899.5" y="-119.5" font-family="Helvetica,sans-Serif" font-size="10.00">narrow.h</text>
</a>
</g>
</g>
<!-- Node24&#45;&gt;Node28 -->
<g id="edge30" class="edge">
<title>Node24&#45;&gt;Node28</title>
<path fill="none" stroke="midnightblue" d="M755.6,-168.44C784.49,-159.32 830.42,-144.81 862.61,-134.65"/>
<polygon fill="midnightblue" stroke="midnightblue" points="864.05,-137.87 872.53,-131.52 861.94,-131.19 864.05,-137.87"/>
</g>
<!-- Node28&#45;&gt;Node8 -->
<g id="edge32" class="edge">
<title>Node28&#45;&gt;Node8</title>
<path fill="none" stroke="midnightblue" d="M908.82,-112.32C917.39,-104.34 930.31,-92.31 940.69,-82.65"/>
<polygon fill="midnightblue" stroke="midnightblue" points="943.08,-85.21 948.01,-75.83 938.31,-80.09 943.08,-85.21"/>
</g>
<!-- Node28&#45;&gt;Node10 -->
<g id="edge31" class="edge">
<title>Node28&#45;&gt;Node10</title>
<path fill="none" stroke="midnightblue" d="M898.4,-112.37C896.14,-94.62 890.93,-53.67 887.87,-29.6"/>
<polygon fill="midnightblue" stroke="midnightblue" points="891.33,-29.07 886.59,-19.59 884.38,-29.95 891.33,-29.07"/>
</g>
<!-- Node29&#45;&gt;Node7 -->
<g id="edge34" class="edge">
<title>Node29&#45;&gt;Node7</title>
<path fill="none" stroke="midnightblue" d="M210.07,-224.32C220.92,-216.18 237.38,-203.84 250.38,-194.09"/>
<polygon fill="midnightblue" stroke="midnightblue" points="252.82,-196.63 258.72,-187.83 248.62,-191.03 252.82,-196.63"/>
</g>
<!-- Node30 -->
<g id="node25" class="node">
<title>Node30</title>
<g id="a_node25"><a xlink:title=" ">
<polygon fill="none" stroke="#bfbfbf" points="159.5,-168.5 159.5,-187.5 215.5,-187.5 215.5,-168.5 159.5,-168.5"/>
<text text-anchor="middle" x="187.5" y="-175.5" font-family="Helvetica,sans-Serif" font-size="10.00">optional</text>
</a>
</g>
</g>
<!-- Node29&#45;&gt;Node30 -->
<g id="edge35" class="edge">
<title>Node29&#45;&gt;Node30</title>
<path fill="none" stroke="midnightblue" d="M196.68,-224.08C195.23,-216.93 193.13,-206.64 191.31,-197.69"/>
<polygon fill="midnightblue" stroke="midnightblue" points="194.71,-196.85 189.28,-187.75 187.85,-198.25 194.71,-196.85"/>
</g>
</g>
</svg>
