<?xml version="1.0" encoding="UTF-8" standalone="no"?>
<!DOCTYPE svg PUBLIC "-//W3C//DTD SVG 1.1//EN"
 "http://www.w3.org/Graphics/SVG/1.1/DTD/svg11.dtd">
<!-- Generated by graphviz version 2.43.0 (0)
 -->
<!-- Title: /home/runner/work/cbmc/cbmc/src/solvers/prop/cover_goals.h Pages: 1 -->
<svg width="1195pt" height="610pt"
 viewBox="0.00 0.00 1195.00 610.00" xmlns="http://www.w3.org/2000/svg" xmlns:xlink="http://www.w3.org/1999/xlink">
<g id="graph0" class="graph" transform="scale(1 1) rotate(0) translate(4 606)">
<title>/home/runner/work/cbmc/cbmc/src/solvers/prop/cover_goals.h</title>
<!-- Node1 -->
<g id="node1" class="node">
<title>Node1</title>
<g id="a_node1"><a xlink:title="Cover a set of goals incrementally.">
<polygon fill="#bfbfbf" stroke="black" points="45,-560.5 45,-601.5 183,-601.5 183,-560.5 45,-560.5"/>
<text text-anchor="start" x="53" y="-589.5" font-family="Helvetica,sans-Serif" font-size="10.00">/home/runner/work/cbmc</text>
<text text-anchor="start" x="53" y="-578.5" font-family="Helvetica,sans-Serif" font-size="10.00">/cbmc/src/solvers/prop</text>
<text text-anchor="middle" x="114" y="-567.5" font-family="Helvetica,sans-Serif" font-size="10.00">/cover_goals.h</text>
</a>
</g>
</g>
<!-- Node2 -->
<g id="node2" class="node">
<title>Node2</title>
<g id="a_node2"><a xlink:title=" ">
<polygon fill="none" stroke="#bfbfbf" points="54,-504.5 54,-523.5 86,-523.5 86,-504.5 54,-504.5"/>
<text text-anchor="middle" x="70" y="-511.5" font-family="Helvetica,sans-Serif" font-size="10.00">list</text>
</a>
</g>
</g>
<!-- Node1&#45;&gt;Node2 -->
<g id="edge1" class="edge">
<title>Node1&#45;&gt;Node2</title>
<path fill="none" stroke="midnightblue" d="M100.8,-560.5C94.7,-551.49 87.52,-540.89 81.63,-532.19"/>
<polygon fill="midnightblue" stroke="midnightblue" points="84.36,-529.97 75.86,-523.65 78.56,-533.9 84.36,-529.97"/>
</g>
<!-- Node3 -->
<g id="node3" class="node">
<title>Node3</title>
<g id="a_node3"><a xlink:href="decision__procedure_8h.html" target="_top" xlink:title="Decision Procedure Interface.">
<polygon fill="none" stroke="black" points="0,-112.5 0,-131.5 158,-131.5 158,-112.5 0,-112.5"/>
<text text-anchor="middle" x="79" y="-119.5" font-family="Helvetica,sans-Serif" font-size="10.00">solvers/decision_procedure.h</text>
</a>
</g>
</g>
<!-- Node1&#45;&gt;Node3 -->
<g id="edge2" class="edge">
<title>Node1&#45;&gt;Node3</title>
<path fill="none" stroke="midnightblue" d="M114,-560.3C114,-536.35 114,-494.71 114,-459 114,-459 114,-459 114,-233 114,-199.07 98.69,-161.91 88.32,-140.63"/>
<polygon fill="midnightblue" stroke="midnightblue" points="91.36,-138.88 83.72,-131.54 85.12,-142.05 91.36,-138.88"/>
</g>
<!-- Node6 -->
<g id="node6" class="node">
<title>Node6</title>
<g id="a_node6"><a xlink:href="expr_8h.html" target="_top" xlink:title=" ">
<polygon fill="none" stroke="black" points="1017.5,-504.5 1017.5,-523.5 1082.5,-523.5 1082.5,-504.5 1017.5,-504.5"/>
<text text-anchor="middle" x="1050" y="-511.5" font-family="Helvetica,sans-Serif" font-size="10.00">util/expr.h</text>
</a>
</g>
</g>
<!-- Node1&#45;&gt;Node6 -->
<g id="edge5" class="edge">
<title>Node1&#45;&gt;Node6</title>
<path fill="none" stroke="midnightblue" d="M183.21,-575.19C366.17,-562.49 858.79,-528.28 1007.15,-517.98"/>
<polygon fill="midnightblue" stroke="midnightblue" points="1007.49,-521.46 1017.22,-517.28 1007.01,-514.48 1007.49,-521.46"/>
</g>
<!-- Node4 -->
<g id="node4" class="node">
<title>Node4</title>
<g id="a_node4"><a xlink:title=" ">
<polygon fill="none" stroke="#bfbfbf" points="252,-56.5 252,-75.5 300,-75.5 300,-56.5 252,-56.5"/>
<text text-anchor="middle" x="276" y="-63.5" font-family="Helvetica,sans-Serif" font-size="10.00">iosfwd</text>
</a>
</g>
</g>
<!-- Node3&#45;&gt;Node4 -->
<g id="edge3" class="edge">
<title>Node3&#45;&gt;Node4</title>
<path fill="none" stroke="midnightblue" d="M110.22,-112.44C146.11,-102.6 204.86,-86.5 241.92,-76.34"/>
<polygon fill="midnightblue" stroke="midnightblue" points="243.04,-79.66 251.76,-73.64 241.19,-72.91 243.04,-79.66"/>
</g>
<!-- Node5 -->
<g id="node5" class="node">
<title>Node5</title>
<g id="a_node5"><a xlink:title=" ">
<polygon fill="none" stroke="#bfbfbf" points="277,-0.5 277,-19.5 321,-19.5 321,-0.5 277,-0.5"/>
<text text-anchor="middle" x="299" y="-7.5" font-family="Helvetica,sans-Serif" font-size="10.00">string</text>
</a>
</g>
</g>
<!-- Node3&#45;&gt;Node5 -->
<g id="edge4" class="edge">
<title>Node3&#45;&gt;Node5</title>
<path fill="none" stroke="midnightblue" d="M89.28,-112.4C105.83,-98.91 139.77,-72.58 172,-56 202.85,-40.13 240.58,-27.54 266.86,-19.76"/>
<polygon fill="midnightblue" stroke="midnightblue" points="268.05,-23.06 276.68,-16.92 266.1,-16.34 268.05,-23.06"/>
</g>
<!-- Node7 -->
<g id="node7" class="node">
<title>Node7</title>
<g id="a_node7"><a xlink:href="as__const_8h.html" target="_top" xlink:title=" ">
<polygon fill="none" stroke="black" points="1089,-112.5 1089,-131.5 1157,-131.5 1157,-112.5 1089,-112.5"/>
<text text-anchor="middle" x="1123" y="-119.5" font-family="Helvetica,sans-Serif" font-size="10.00">as_const.h</text>
</a>
</g>
</g>
<!-- Node6&#45;&gt;Node7 -->
<g id="edge6" class="edge">
<title>Node6&#45;&gt;Node7</title>
<path fill="none" stroke="midnightblue" d="M1078.39,-504.42C1118.51,-490.34 1187,-458.21 1187,-403 1187,-403 1187,-403 1187,-233 1187,-195.33 1158.61,-159.04 1139.65,-139.01"/>
<polygon fill="midnightblue" stroke="midnightblue" points="1141.95,-136.36 1132.44,-131.69 1136.96,-141.27 1141.95,-136.36"/>
</g>
<!-- Node8 -->
<g id="node8" class="node">
<title>Node8</title>
<g id="a_node8"><a xlink:href="type_8h.html" target="_top" xlink:title="Defines typet, type_with_subtypet and type_with_subtypest.">
<polygon fill="none" stroke="black" points="805.5,-448.5 805.5,-467.5 852.5,-467.5 852.5,-448.5 805.5,-448.5"/>
<text text-anchor="middle" x="829" y="-455.5" font-family="Helvetica,sans-Serif" font-size="10.00">type.h</text>
</a>
</g>
</g>
<!-- Node6&#45;&gt;Node8 -->
<g id="edge7" class="edge">
<title>Node6&#45;&gt;Node8</title>
<path fill="none" stroke="midnightblue" d="M1017.32,-505.5C981.74,-497.27 922.92,-483.45 862.82,-468.15"/>
<polygon fill="midnightblue" stroke="midnightblue" points="863.32,-464.67 852.77,-465.58 861.59,-471.45 863.32,-464.67"/>
</g>
<!-- Node34 -->
<g id="node28" class="node">
<title>Node34</title>
<g id="a_node28"><a xlink:href="validation__mode_8h.html" target="_top" xlink:title=" ">
<polygon fill="none" stroke="black" points="858.5,-336.5 858.5,-355.5 965.5,-355.5 965.5,-336.5 858.5,-336.5"/>
<text text-anchor="middle" x="912" y="-343.5" font-family="Helvetica,sans-Serif" font-size="10.00">validation_mode.h</text>
</a>
</g>
</g>
<!-- Node6&#45;&gt;Node34 -->
<g id="edge45" class="edge">
<title>Node6&#45;&gt;Node34</title>
<path fill="none" stroke="midnightblue" d="M1063.47,-504.38C1093.75,-483.98 1162.13,-431.44 1130,-392 1110.8,-368.43 1032.89,-356.84 975.66,-351.4"/>
<polygon fill="midnightblue" stroke="midnightblue" points="975.87,-347.91 965.59,-350.49 975.24,-354.88 975.87,-347.91"/>
</g>
<!-- Node35 -->
<g id="node29" class="node">
<title>Node35</title>
<g id="a_node29"><a xlink:href="validate__types_8h.html" target="_top" xlink:title=" ">
<polygon fill="none" stroke="black" points="1023,-392.5 1023,-411.5 1121,-411.5 1121,-392.5 1023,-392.5"/>
<text text-anchor="middle" x="1072" y="-399.5" font-family="Helvetica,sans-Serif" font-size="10.00">validate_types.h</text>
</a>
</g>
</g>
<!-- Node6&#45;&gt;Node35 -->
<g id="edge44" class="edge">
<title>Node6&#45;&gt;Node35</title>
<path fill="none" stroke="midnightblue" d="M1062.21,-504.24C1072.35,-496.14 1086.04,-483.11 1092,-468 1098.27,-452.09 1091.04,-433.38 1083.58,-420.12"/>
<polygon fill="midnightblue" stroke="midnightblue" points="1086.53,-418.23 1078.3,-411.56 1080.57,-421.91 1086.53,-418.23"/>
</g>
<!-- Node36 -->
<g id="node30" class="node">
<title>Node36</title>
<g id="a_node30"><a xlink:href="validate__expressions_8h.html" target="_top" xlink:title=" ">
<polygon fill="none" stroke="black" points="870.5,-448.5 870.5,-467.5 999.5,-467.5 999.5,-448.5 870.5,-448.5"/>
<text text-anchor="middle" x="935" y="-455.5" font-family="Helvetica,sans-Serif" font-size="10.00">validate_expressions.h</text>
</a>
</g>
</g>
<!-- Node6&#45;&gt;Node36 -->
<g id="edge43" class="edge">
<title>Node6&#45;&gt;Node36</title>
<path fill="none" stroke="midnightblue" d="M1031.78,-504.44C1013.1,-495.68 983.84,-481.94 962.38,-471.86"/>
<polygon fill="midnightblue" stroke="midnightblue" points="963.68,-468.6 953.14,-467.52 960.7,-474.93 963.68,-468.6"/>
</g>
<!-- Node37 -->
<g id="node31" class="node">
<title>Node37</title>
<g id="a_node31"><a xlink:title=" ">
<polygon fill="none" stroke="#bfbfbf" points="1017.5,-448.5 1017.5,-467.5 1082.5,-467.5 1082.5,-448.5 1017.5,-448.5"/>
<text text-anchor="middle" x="1050" y="-455.5" font-family="Helvetica,sans-Serif" font-size="10.00">functional</text>
</a>
</g>
</g>
<!-- Node6&#45;&gt;Node37 -->
<g id="edge46" class="edge">
<title>Node6&#45;&gt;Node37</title>
<path fill="none" stroke="midnightblue" d="M1050,-504.08C1050,-497.01 1050,-486.86 1050,-477.99"/>
<polygon fill="midnightblue" stroke="midnightblue" points="1053.5,-477.75 1050,-467.75 1046.5,-477.75 1053.5,-477.75"/>
</g>
<!-- Node9 -->
<g id="node9" class="node">
<title>Node9</title>
<g id="a_node9"><a xlink:href="source__location_8h.html" target="_top" xlink:title=" ">
<polygon fill="none" stroke="black" points="538,-280.5 538,-299.5 640,-299.5 640,-280.5 538,-280.5"/>
<text text-anchor="middle" x="589" y="-287.5" font-family="Helvetica,sans-Serif" font-size="10.00">source_location.h</text>
</a>
</g>
</g>
<!-- Node8&#45;&gt;Node9 -->
<g id="edge8" class="edge">
<title>Node8&#45;&gt;Node9</title>
<path fill="none" stroke="midnightblue" d="M852.8,-449.36C904.47,-431.6 1018.89,-385.3 975,-336 953.81,-312.19 753.6,-299.01 650.19,-293.74"/>
<polygon fill="midnightblue" stroke="midnightblue" points="650.36,-290.25 640.2,-293.24 650.01,-297.24 650.36,-290.25"/>
</g>
<!-- Node32 -->
<g id="node26" class="node">
<title>Node32</title>
<g id="a_node26"><a xlink:href="validate_8h.html" target="_top" xlink:title=" ">
<polygon fill="none" stroke="black" points="797.5,-392.5 797.5,-411.5 862.5,-411.5 862.5,-392.5 797.5,-392.5"/>
<text text-anchor="middle" x="830" y="-399.5" font-family="Helvetica,sans-Serif" font-size="10.00">validate.h</text>
</a>
</g>
</g>
<!-- Node8&#45;&gt;Node32 -->
<g id="edge34" class="edge">
<title>Node8&#45;&gt;Node32</title>
<path fill="none" stroke="midnightblue" d="M829.17,-448.08C829.3,-441.01 829.48,-430.86 829.65,-421.99"/>
<polygon fill="midnightblue" stroke="midnightblue" points="833.15,-421.81 829.84,-411.75 826.15,-421.68 833.15,-421.81"/>
</g>
<!-- Node8&#45;&gt;Node34 -->
<g id="edge42" class="edge">
<title>Node8&#45;&gt;Node34</title>
<path fill="none" stroke="midnightblue" d="M838.49,-448.21C847.64,-439.49 861.57,-425.52 872,-412 883.61,-396.95 894.77,-378.36 902.33,-364.92"/>
<polygon fill="midnightblue" stroke="midnightblue" points="905.6,-366.24 907.37,-355.79 899.48,-362.86 905.6,-366.24"/>
</g>
<!-- Node8&#45;&gt;Node35 -->
<g id="edge41" class="edge">
<title>Node8&#45;&gt;Node35</title>
<path fill="none" stroke="midnightblue" d="M852.75,-450.35C855.86,-449.53 859,-448.73 862,-448 915.16,-435.07 976.37,-422.17 1018.94,-413.53"/>
<polygon fill="midnightblue" stroke="midnightblue" points="1019.7,-416.94 1028.81,-411.53 1018.31,-410.08 1019.7,-416.94"/>
</g>
<!-- Node9&#45;&gt;Node5 -->
<g id="edge33" class="edge">
<title>Node9&#45;&gt;Node5</title>
<path fill="none" stroke="midnightblue" d="M537.86,-284.35C437.41,-273.81 224,-243.78 224,-179 224,-179 224,-179 224,-121 224,-90.9 226.28,-81.02 243,-56 251.26,-43.64 263.96,-33.04 275.18,-25.24"/>
<polygon fill="midnightblue" stroke="midnightblue" points="277.32,-28.02 283.75,-19.6 273.47,-22.17 277.32,-28.02"/>
</g>
<!-- Node10 -->
<g id="node10" class="node">
<title>Node10</title>
<g id="a_node10"><a xlink:href="deprecate_8h.html" target="_top" xlink:title=" ">
<polygon fill="none" stroke="black" points="757,-168.5 757,-187.5 831,-187.5 831,-168.5 757,-168.5"/>
<text text-anchor="middle" x="794" y="-175.5" font-family="Helvetica,sans-Serif" font-size="10.00">deprecate.h</text>
</a>
</g>
</g>
<!-- Node9&#45;&gt;Node10 -->
<g id="edge9" class="edge">
<title>Node9&#45;&gt;Node10</title>
<path fill="none" stroke="midnightblue" d="M605.09,-280.37C640.71,-261.25 726.48,-215.23 769.1,-192.36"/>
<polygon fill="midnightblue" stroke="midnightblue" points="770.83,-195.4 777.99,-187.59 767.52,-189.24 770.83,-195.4"/>
</g>
<!-- Node11 -->
<g id="node11" class="node">
<title>Node11</title>
<g id="a_node11"><a xlink:href="irep_8h.html" target="_top" xlink:title=" ">
<polygon fill="none" stroke="black" points="502,-224.5 502,-243.5 546,-243.5 546,-224.5 502,-224.5"/>
<text text-anchor="middle" x="524" y="-231.5" font-family="Helvetica,sans-Serif" font-size="10.00">irep.h</text>
</a>
</g>
</g>
<!-- Node9&#45;&gt;Node11 -->
<g id="edge10" class="edge">
<title>Node9&#45;&gt;Node11</title>
<path fill="none" stroke="midnightblue" d="M578.56,-280.32C568.85,-272.26 554.18,-260.08 542.5,-250.37"/>
<polygon fill="midnightblue" stroke="midnightblue" points="544.56,-247.53 534.63,-243.83 540.09,-252.92 544.56,-247.53"/>
</g>
<!-- Node30 -->
<g id="node24" class="node">
<title>Node30</title>
<g id="a_node24"><a xlink:href="optional_8h.html" target="_top" xlink:title=" ">
<polygon fill="none" stroke="black" points="761.5,-224.5 761.5,-243.5 826.5,-243.5 826.5,-224.5 761.5,-224.5"/>
<text text-anchor="middle" x="794" y="-231.5" font-family="Helvetica,sans-Serif" font-size="10.00">optional.h</text>
</a>
</g>
</g>
<!-- Node9&#45;&gt;Node30 -->
<g id="edge30" class="edge">
<title>Node9&#45;&gt;Node30</title>
<path fill="none" stroke="midnightblue" d="M621.48,-280.44C656.72,-271.16 713.1,-256.31 751.76,-246.13"/>
<polygon fill="midnightblue" stroke="midnightblue" points="752.89,-249.45 761.67,-243.52 751.11,-242.68 752.89,-249.45"/>
</g>
<!-- Node11&#45;&gt;Node5 -->
<g id="edge11" class="edge">
<title>Node11&#45;&gt;Node5</title>
<path fill="none" stroke="midnightblue" d="M502.8,-224.35C485.12,-216.5 459.87,-203.76 441,-188 382.38,-139.05 331.11,-62.73 309.68,-28.57"/>
<polygon fill="midnightblue" stroke="midnightblue" points="312.46,-26.42 304.22,-19.75 306.5,-30.1 312.46,-26.42"/>
</g>
<!-- Node12 -->
<g id="node12" class="node">
<title>Node12</title>
<g id="a_node12"><a xlink:title=" ">
<polygon fill="none" stroke="#bfbfbf" points="463.5,-168.5 463.5,-187.5 510.5,-187.5 510.5,-168.5 463.5,-168.5"/>
<text text-anchor="middle" x="487" y="-175.5" font-family="Helvetica,sans-Serif" font-size="10.00">vector</text>
</a>
</g>
</g>
<!-- Node11&#45;&gt;Node12 -->
<g id="edge12" class="edge">
<title>Node11&#45;&gt;Node12</title>
<path fill="none" stroke="midnightblue" d="M517.89,-224.08C512.72,-216.53 505.15,-205.49 498.81,-196.23"/>
<polygon fill="midnightblue" stroke="midnightblue" points="501.54,-194.02 493,-187.75 495.76,-197.98 501.54,-194.02"/>
</g>
<!-- Node13 -->
<g id="node13" class="node">
<title>Node13</title>
<g id="a_node13"><a xlink:href="src_2util_2invariant_8h.html" target="_top" xlink:title=" ">
<polygon fill="none" stroke="black" points="400.5,-56.5 400.5,-75.5 469.5,-75.5 469.5,-56.5 400.5,-56.5"/>
<text text-anchor="middle" x="435" y="-63.5" font-family="Helvetica,sans-Serif" font-size="10.00">invariant.h</text>
</a>
</g>
</g>
<!-- Node11&#45;&gt;Node13 -->
<g id="edge13" class="edge">
<title>Node11&#45;&gt;Node13</title>
<path fill="none" stroke="midnightblue" d="M502.07,-224.45C486.4,-217.16 466.18,-205.13 455,-188 434.51,-156.61 432.74,-111.18 433.64,-85.85"/>
<polygon fill="midnightblue" stroke="midnightblue" points="437.14,-85.93 434.18,-75.76 430.15,-85.56 437.14,-85.93"/>
</g>
<!-- Node17 -->
<g id="node17" class="node">
<title>Node17</title>
<g id="a_node17"><a xlink:href="irep__ids_8h.html" target="_top" xlink:title="util">
<polygon fill="none" stroke="black" points="529,-168.5 529,-187.5 593,-187.5 593,-168.5 529,-168.5"/>
<text text-anchor="middle" x="561" y="-175.5" font-family="Helvetica,sans-Serif" font-size="10.00">irep_ids.h</text>
</a>
</g>
</g>
<!-- Node11&#45;&gt;Node17 -->
<g id="edge18" class="edge">
<title>Node11&#45;&gt;Node17</title>
<path fill="none" stroke="midnightblue" d="M530.11,-224.08C535.28,-216.53 542.85,-205.49 549.19,-196.23"/>
<polygon fill="midnightblue" stroke="midnightblue" points="552.24,-197.98 555,-187.75 546.46,-194.02 552.24,-197.98"/>
</g>
<!-- Node26 -->
<g id="node20" class="node">
<title>Node26</title>
<g id="a_node20"><a xlink:href="forward__list__as__map_8h.html" target="_top" xlink:title=" ">
<polygon fill="none" stroke="black" points="611.5,-168.5 611.5,-187.5 738.5,-187.5 738.5,-168.5 611.5,-168.5"/>
<text text-anchor="middle" x="675" y="-175.5" font-family="Helvetica,sans-Serif" font-size="10.00">forward_list_as_map.h</text>
</a>
</g>
</g>
<!-- Node11&#45;&gt;Node26 -->
<g id="edge23" class="edge">
<title>Node11&#45;&gt;Node26</title>
<path fill="none" stroke="midnightblue" d="M546.28,-225.03C571.38,-216.06 612.44,-201.37 641.43,-191.01"/>
<polygon fill="midnightblue" stroke="midnightblue" points="642.89,-194.2 651.13,-187.54 640.54,-187.61 642.89,-194.2"/>
</g>
<!-- Node13&#45;&gt;Node5 -->
<g id="edge16" class="edge">
<title>Node13&#45;&gt;Node5</title>
<path fill="none" stroke="midnightblue" d="M413.45,-56.44C390.97,-47.52 355.51,-33.44 330.02,-23.32"/>
<polygon fill="midnightblue" stroke="midnightblue" points="331.03,-19.95 320.45,-19.52 328.45,-26.46 331.03,-19.95"/>
</g>
<!-- Node14 -->
<g id="node14" class="node">
<title>Node14</title>
<g id="a_node14"><a xlink:title=" ">
<polygon fill="none" stroke="#bfbfbf" points="373.5,-0.5 373.5,-19.5 422.5,-19.5 422.5,-0.5 373.5,-0.5"/>
<text text-anchor="middle" x="398" y="-7.5" font-family="Helvetica,sans-Serif" font-size="10.00">cstdlib</text>
</a>
</g>
</g>
<!-- Node13&#45;&gt;Node14 -->
<g id="edge14" class="edge">
<title>Node13&#45;&gt;Node14</title>
<path fill="none" stroke="midnightblue" d="M428.89,-56.08C423.72,-48.53 416.15,-37.49 409.81,-28.23"/>
<polygon fill="midnightblue" stroke="midnightblue" points="412.54,-26.02 404,-19.75 406.76,-29.98 412.54,-26.02"/>
</g>
<!-- Node15 -->
<g id="node15" class="node">
<title>Node15</title>
<g id="a_node15"><a xlink:title=" ">
<polygon fill="none" stroke="#bfbfbf" points="441,-0.5 441,-19.5 497,-19.5 497,-0.5 441,-0.5"/>
<text text-anchor="middle" x="469" y="-7.5" font-family="Helvetica,sans-Serif" font-size="10.00">sstream</text>
</a>
</g>
</g>
<!-- Node13&#45;&gt;Node15 -->
<g id="edge15" class="edge">
<title>Node13&#45;&gt;Node15</title>
<path fill="none" stroke="midnightblue" d="M440.61,-56.08C445.37,-48.53 452.32,-37.49 458.15,-28.23"/>
<polygon fill="midnightblue" stroke="midnightblue" points="461.12,-30.08 463.49,-19.75 455.2,-26.35 461.12,-30.08"/>
</g>
<!-- Node16 -->
<g id="node16" class="node">
<title>Node16</title>
<g id="a_node16"><a xlink:title=" ">
<polygon fill="none" stroke="#bfbfbf" points="724.5,-0.5 724.5,-19.5 793.5,-19.5 793.5,-0.5 724.5,-0.5"/>
<text text-anchor="middle" x="759" y="-7.5" font-family="Helvetica,sans-Serif" font-size="10.00">type_traits</text>
</a>
</g>
</g>
<!-- Node13&#45;&gt;Node16 -->
<g id="edge17" class="edge">
<title>Node13&#45;&gt;Node16</title>
<path fill="none" stroke="midnightblue" d="M469.67,-59.22C528.71,-49.38 648.7,-29.38 714.08,-18.49"/>
<polygon fill="midnightblue" stroke="midnightblue" points="714.8,-21.92 724.09,-16.82 713.65,-15.01 714.8,-21.92"/>
</g>
<!-- Node18 -->
<g id="node18" class="node">
<title>Node18</title>
<g id="a_node18"><a xlink:href="dstring_8h.html" target="_top" xlink:title="Container for C&#45;Strings.">
<polygon fill="none" stroke="red" points="271.5,-112.5 271.5,-131.5 330.5,-131.5 330.5,-112.5 271.5,-112.5"/>
<text text-anchor="middle" x="301" y="-119.5" font-family="Helvetica,sans-Serif" font-size="10.00">dstring.h</text>
</a>
</g>
</g>
<!-- Node17&#45;&gt;Node18 -->
<g id="edge19" class="edge">
<title>Node17&#45;&gt;Node18</title>
<path fill="none" stroke="midnightblue" d="M528.78,-169.88C525.81,-169.24 522.85,-168.61 520,-168 457.43,-154.71 384.67,-139.88 340.76,-131"/>
<polygon fill="midnightblue" stroke="midnightblue" points="341.28,-127.54 330.78,-128.99 339.89,-134.4 341.28,-127.54"/>
</g>
<!-- Node25 -->
<g id="node19" class="node">
<title>Node25</title>
<g id="a_node19"><a xlink:title=" ">
<polygon fill="none" stroke="#bfbfbf" points="463,-112.5 463,-131.5 537,-131.5 537,-112.5 463,-112.5"/>
<text text-anchor="middle" x="500" y="-119.5" font-family="Helvetica,sans-Serif" font-size="10.00">irep_ids.def</text>
</a>
</g>
</g>
<!-- Node17&#45;&gt;Node25 -->
<g id="edge22" class="edge">
<title>Node17&#45;&gt;Node25</title>
<path fill="none" stroke="midnightblue" d="M551.2,-168.32C542.18,-160.34 528.59,-148.31 517.68,-138.65"/>
<polygon fill="midnightblue" stroke="midnightblue" points="519.79,-135.84 509.98,-131.83 515.15,-141.08 519.79,-135.84"/>
</g>
<!-- Node18&#45;&gt;Node4 -->
<g id="edge20" class="edge">
<title>Node18&#45;&gt;Node4</title>
<path fill="none" stroke="midnightblue" d="M296.87,-112.08C293.49,-104.77 288.58,-94.18 284.38,-85.1"/>
<polygon fill="midnightblue" stroke="midnightblue" points="287.43,-83.36 280.05,-75.75 281.08,-86.3 287.43,-83.36"/>
</g>
<!-- Node18&#45;&gt;Node5 -->
<g id="edge21" class="edge">
<title>Node18&#45;&gt;Node5</title>
<path fill="none" stroke="midnightblue" d="M303.39,-112.18C306.48,-99.68 311.21,-76.12 309,-56 308.03,-47.14 306.01,-37.47 304.04,-29.38"/>
<polygon fill="midnightblue" stroke="midnightblue" points="307.38,-28.33 301.48,-19.53 300.61,-30.09 307.38,-28.33"/>
</g>
<!-- Node26&#45;&gt;Node7 -->
<g id="edge26" class="edge">
<title>Node26&#45;&gt;Node7</title>
<path fill="none" stroke="midnightblue" d="M738.7,-169.13C741.84,-168.75 744.96,-168.37 748,-168 867.49,-153.46 1008.44,-136.64 1078.63,-128.28"/>
<polygon fill="midnightblue" stroke="midnightblue" points="1079.35,-131.72 1088.87,-127.06 1078.53,-124.76 1079.35,-131.72"/>
</g>
<!-- Node27 -->
<g id="node21" class="node">
<title>Node27</title>
<g id="a_node21"><a xlink:title=" ">
<polygon fill="none" stroke="#bfbfbf" points="647,-112.5 647,-131.5 711,-131.5 711,-112.5 647,-112.5"/>
<text text-anchor="middle" x="679" y="-119.5" font-family="Helvetica,sans-Serif" font-size="10.00">algorithm</text>
</a>
</g>
</g>
<!-- Node26&#45;&gt;Node27 -->
<g id="edge24" class="edge">
<title>Node26&#45;&gt;Node27</title>
<path fill="none" stroke="midnightblue" d="M675.66,-168.08C676.18,-161.01 676.94,-150.86 677.59,-141.99"/>
<polygon fill="midnightblue" stroke="midnightblue" points="681.1,-141.98 678.35,-131.75 674.12,-141.47 681.1,-141.98"/>
</g>
<!-- Node28 -->
<g id="node22" class="node">
<title>Node28</title>
<g id="a_node22"><a xlink:title=" ">
<polygon fill="none" stroke="#bfbfbf" points="555,-112.5 555,-131.5 629,-131.5 629,-112.5 555,-112.5"/>
<text text-anchor="middle" x="592" y="-119.5" font-family="Helvetica,sans-Serif" font-size="10.00">forward_list</text>
</a>
</g>
</g>
<!-- Node26&#45;&gt;Node28 -->
<g id="edge25" class="edge">
<title>Node26&#45;&gt;Node28</title>
<path fill="none" stroke="midnightblue" d="M661.66,-168.32C648.84,-159.98 629.22,-147.21 614.06,-137.35"/>
<polygon fill="midnightblue" stroke="midnightblue" points="615.59,-134.17 605.3,-131.65 611.78,-140.04 615.59,-134.17"/>
</g>
<!-- Node29 -->
<g id="node23" class="node">
<title>Node29</title>
<g id="a_node23"><a xlink:href="narrow_8h.html" target="_top" xlink:title=" ">
<polygon fill="none" stroke="black" points="729.5,-112.5 729.5,-131.5 788.5,-131.5 788.5,-112.5 729.5,-112.5"/>
<text text-anchor="middle" x="759" y="-119.5" font-family="Helvetica,sans-Serif" font-size="10.00">narrow.h</text>
</a>
</g>
</g>
<!-- Node26&#45;&gt;Node29 -->
<g id="edge27" class="edge">
<title>Node26&#45;&gt;Node29</title>
<path fill="none" stroke="midnightblue" d="M688.5,-168.32C701.6,-159.9 721.71,-146.97 737.11,-137.07"/>
<polygon fill="midnightblue" stroke="midnightblue" points="739.02,-140.01 745.54,-131.65 735.23,-134.12 739.02,-140.01"/>
</g>
<!-- Node29&#45;&gt;Node13 -->
<g id="edge29" class="edge">
<title>Node29&#45;&gt;Node13</title>
<path fill="none" stroke="midnightblue" d="M729.24,-113.9C726.12,-113.23 723,-112.58 720,-112 635.51,-95.6 536.06,-80.95 479.79,-73.08"/>
<polygon fill="midnightblue" stroke="midnightblue" points="480.18,-69.6 469.8,-71.69 479.22,-76.53 480.18,-69.6"/>
</g>
<!-- Node29&#45;&gt;Node16 -->
<g id="edge28" class="edge">
<title>Node29&#45;&gt;Node16</title>
<path fill="none" stroke="midnightblue" d="M759,-112.37C759,-94.62 759,-53.67 759,-29.6"/>
<polygon fill="midnightblue" stroke="midnightblue" points="762.5,-29.59 759,-19.59 755.5,-29.59 762.5,-29.59"/>
</g>
<!-- Node30&#45;&gt;Node10 -->
<g id="edge31" class="edge">
<title>Node30&#45;&gt;Node10</title>
<path fill="none" stroke="midnightblue" d="M794,-224.08C794,-217.01 794,-206.86 794,-197.99"/>
<polygon fill="midnightblue" stroke="midnightblue" points="797.5,-197.75 794,-187.75 790.5,-197.75 797.5,-197.75"/>
</g>
<!-- Node31 -->
<g id="node25" class="node">
<title>Node31</title>
<g id="a_node25"><a xlink:title=" ">
<polygon fill="none" stroke="#bfbfbf" points="849,-168.5 849,-187.5 905,-187.5 905,-168.5 849,-168.5"/>
<text text-anchor="middle" x="877" y="-175.5" font-family="Helvetica,sans-Serif" font-size="10.00">optional</text>
</a>
</g>
</g>
<!-- Node30&#45;&gt;Node31 -->
<g id="edge32" class="edge">
<title>Node30&#45;&gt;Node31</title>
<path fill="none" stroke="midnightblue" d="M807.34,-224.32C820.16,-215.98 839.78,-203.21 854.94,-193.35"/>
<polygon fill="midnightblue" stroke="midnightblue" points="857.22,-196.04 863.7,-187.65 853.41,-190.17 857.22,-196.04"/>
</g>
<!-- Node32&#45;&gt;Node16 -->
<g id="edge35" class="edge">
<title>Node32&#45;&gt;Node16</title>
<path fill="none" stroke="midnightblue" d="M832.3,-392.49C835.75,-379.97 842.65,-355.94 850,-336 877.65,-261.03 944.34,-241.92 914,-168 887.05,-102.34 817.91,-49.48 781.77,-25.29"/>
<polygon fill="midnightblue" stroke="midnightblue" points="783.62,-22.32 773.34,-19.76 779.79,-28.17 783.62,-22.32"/>
</g>
<!-- Node33 -->
<g id="node27" class="node">
<title>Node33</title>
<g id="a_node27"><a xlink:href="exception__utils_8h.html" target="_top" xlink:title=" ">
<polygon fill="none" stroke="black" points="410,-336.5 410,-355.5 510,-355.5 510,-336.5 410,-336.5"/>
<text text-anchor="middle" x="460" y="-343.5" font-family="Helvetica,sans-Serif" font-size="10.00">exception_utils.h</text>
</a>
</g>
</g>
<!-- Node32&#45;&gt;Node33 -->
<g id="edge36" class="edge">
<title>Node32&#45;&gt;Node33</title>
<path fill="none" stroke="midnightblue" d="M797.49,-396.26C735.55,-387.22 599.77,-367.4 520.61,-355.85"/>
<polygon fill="midnightblue" stroke="midnightblue" points="520.7,-352.32 510.3,-354.34 519.69,-359.25 520.7,-352.32"/>
</g>
<!-- Node32&#45;&gt;Node34 -->
<g id="edge40" class="edge">
<title>Node32&#45;&gt;Node34</title>
<path fill="none" stroke="midnightblue" d="M843.17,-392.32C855.85,-383.98 875.23,-371.21 890.21,-361.35"/>
<polygon fill="midnightblue" stroke="midnightblue" points="892.43,-364.08 898.86,-355.65 888.58,-358.23 892.43,-364.08"/>
</g>
<!-- Node33&#45;&gt;Node5 -->
<g id="edge37" class="edge">
<title>Node33&#45;&gt;Node5</title>
<path fill="none" stroke="midnightblue" d="M414.45,-336.48C336.53,-320.6 186,-283.63 186,-235 186,-235 186,-235 186,-121 186,-74.4 235.95,-41.14 269.43,-24.08"/>
<polygon fill="midnightblue" stroke="midnightblue" points="271.35,-27.04 278.8,-19.51 268.28,-20.75 271.35,-27.04"/>
</g>
<!-- Node33&#45;&gt;Node9 -->
<g id="edge39" class="edge">
<title>Node33&#45;&gt;Node9</title>
<path fill="none" stroke="midnightblue" d="M480.44,-336.44C501.67,-327.56 535.1,-313.56 559.25,-303.45"/>
<polygon fill="midnightblue" stroke="midnightblue" points="560.78,-306.61 568.66,-299.52 558.08,-300.15 560.78,-306.61"/>
</g>
<!-- Node33&#45;&gt;Node13 -->
<g id="edge38" class="edge">
<title>Node33&#45;&gt;Node13</title>
<path fill="none" stroke="midnightblue" d="M450.7,-336.28C433.18,-318.85 397,-277.69 397,-235 397,-235 397,-235 397,-177 397,-142.81 413.6,-105.76 424.86,-84.57"/>
<polygon fill="midnightblue" stroke="midnightblue" points="427.95,-86.22 429.72,-75.77 421.82,-82.83 427.95,-86.22"/>
</g>
</g>
</svg>
