<?xml version="1.0" encoding="UTF-8" standalone="no"?>
<!DOCTYPE svg PUBLIC "-//W3C//DTD SVG 1.1//EN"
 "http://www.w3.org/Graphics/SVG/1.1/DTD/svg11.dtd">
<!-- Generated by graphviz version 2.43.0 (0)
 -->
<!-- Title: /home/runner/work/cbmc/cbmc/src/solvers/prop/cover_goals.h Pages: 1 -->
<svg width="1055pt" height="610pt"
 viewBox="0.00 0.00 1055.08 610.00" xmlns="http://www.w3.org/2000/svg" xmlns:xlink="http://www.w3.org/1999/xlink">
<g id="graph0" class="graph" transform="scale(1 1) rotate(0) translate(4 606)">
<title>/home/runner/work/cbmc/cbmc/src/solvers/prop/cover_goals.h</title>
<!-- Node1 -->
<g id="node1" class="node">
<title>Node1</title>
<g id="a_node1"><a xlink:title="Cover a set of goals incrementally.">
<polygon fill="#bfbfbf" stroke="black" points="45,-560.5 45,-601.5 183,-601.5 183,-560.5 45,-560.5"/>
<text text-anchor="start" x="53" y="-589.5" font-family="Helvetica,sans-Serif" font-size="10.00">/home/runner/work/cbmc</text>
<text text-anchor="start" x="53" y="-578.5" font-family="Helvetica,sans-Serif" font-size="10.00">/cbmc/src/solvers/prop</text>
<text text-anchor="middle" x="114" y="-567.5" font-family="Helvetica,sans-Serif" font-size="10.00">/cover_goals.h</text>
</a>
</g>
</g>
<!-- Node2 -->
<g id="node2" class="node">
<title>Node2</title>
<g id="a_node2"><a xlink:title=" ">
<polygon fill="none" stroke="#bfbfbf" points="54,-504.5 54,-523.5 86,-523.5 86,-504.5 54,-504.5"/>
<text text-anchor="middle" x="70" y="-511.5" font-family="Helvetica,sans-Serif" font-size="10.00">list</text>
</a>
</g>
</g>
<!-- Node1&#45;&gt;Node2 -->
<g id="edge1" class="edge">
<title>Node1&#45;&gt;Node2</title>
<path fill="none" stroke="midnightblue" d="M100.8,-560.5C94.7,-551.49 87.52,-540.89 81.63,-532.19"/>
<polygon fill="midnightblue" stroke="midnightblue" points="84.36,-529.97 75.86,-523.65 78.56,-533.9 84.36,-529.97"/>
</g>
<!-- Node3 -->
<g id="node3" class="node">
<title>Node3</title>
<g id="a_node3"><a xlink:href="decision__procedure_8h.html" target="_top" xlink:title="Decision Procedure Interface.">
<polygon fill="none" stroke="black" points="0,-112.5 0,-131.5 158,-131.5 158,-112.5 0,-112.5"/>
<text text-anchor="middle" x="79" y="-119.5" font-family="Helvetica,sans-Serif" font-size="10.00">solvers/decision_procedure.h</text>
</a>
</g>
</g>
<!-- Node1&#45;&gt;Node3 -->
<g id="edge2" class="edge">
<title>Node1&#45;&gt;Node3</title>
<path fill="none" stroke="midnightblue" d="M114,-560.3C114,-536.35 114,-494.71 114,-459 114,-459 114,-459 114,-233 114,-199.07 98.69,-161.91 88.32,-140.63"/>
<polygon fill="midnightblue" stroke="midnightblue" points="91.36,-138.88 83.72,-131.54 85.12,-142.05 91.36,-138.88"/>
</g>
<!-- Node6 -->
<g id="node6" class="node">
<title>Node6</title>
<g id="a_node6"><a xlink:href="expr_8h.html" target="_top" xlink:title=" ">
<polygon fill="none" stroke="black" points="815.5,-504.5 815.5,-523.5 880.5,-523.5 880.5,-504.5 815.5,-504.5"/>
<text text-anchor="middle" x="848" y="-511.5" font-family="Helvetica,sans-Serif" font-size="10.00">util/expr.h</text>
</a>
</g>
</g>
<!-- Node1&#45;&gt;Node6 -->
<g id="edge5" class="edge">
<title>Node1&#45;&gt;Node6</title>
<path fill="none" stroke="midnightblue" d="M183.05,-573.88C332.68,-560.63 683.17,-529.6 805.2,-518.79"/>
<polygon fill="midnightblue" stroke="midnightblue" points="805.62,-522.27 815.28,-517.9 805.01,-515.29 805.62,-522.27"/>
</g>
<!-- Node4 -->
<g id="node4" class="node">
<title>Node4</title>
<g id="a_node4"><a xlink:title=" ">
<polygon fill="none" stroke="#bfbfbf" points="109,-56.5 109,-75.5 157,-75.5 157,-56.5 109,-56.5"/>
<text text-anchor="middle" x="133" y="-63.5" font-family="Helvetica,sans-Serif" font-size="10.00">iosfwd</text>
</a>
</g>
</g>
<!-- Node3&#45;&gt;Node4 -->
<g id="edge3" class="edge">
<title>Node3&#45;&gt;Node4</title>
<path fill="none" stroke="midnightblue" d="M87.92,-112.08C95.78,-104.22 107.43,-92.57 116.92,-83.08"/>
<polygon fill="midnightblue" stroke="midnightblue" points="119.65,-85.3 124.25,-75.75 114.7,-80.35 119.65,-85.3"/>
</g>
<!-- Node5 -->
<g id="node5" class="node">
<title>Node5</title>
<g id="a_node5"><a xlink:title=" ">
<polygon fill="none" stroke="#bfbfbf" points="297,-0.5 297,-19.5 341,-19.5 341,-0.5 297,-0.5"/>
<text text-anchor="middle" x="319" y="-7.5" font-family="Helvetica,sans-Serif" font-size="10.00">string</text>
</a>
</g>
</g>
<!-- Node3&#45;&gt;Node5 -->
<g id="edge4" class="edge">
<title>Node3&#45;&gt;Node5</title>
<path fill="none" stroke="midnightblue" d="M79.17,-112.38C79.93,-98.36 83.57,-70.72 100,-56 127.17,-31.66 232.51,-18.8 286.58,-13.69"/>
<polygon fill="midnightblue" stroke="midnightblue" points="287.03,-17.16 296.67,-12.77 286.39,-10.19 287.03,-17.16"/>
</g>
<!-- Node7 -->
<g id="node7" class="node">
<title>Node7</title>
<g id="a_node7"><a xlink:href="as__const_8h.html" target="_top" xlink:title=" ">
<polygon fill="none" stroke="black" points="750,-112.5 750,-131.5 818,-131.5 818,-112.5 750,-112.5"/>
<text text-anchor="middle" x="784" y="-119.5" font-family="Helvetica,sans-Serif" font-size="10.00">as_const.h</text>
</a>
</g>
</g>
<!-- Node6&#45;&gt;Node7 -->
<g id="edge6" class="edge">
<title>Node6&#45;&gt;Node7</title>
<path fill="none" stroke="midnightblue" d="M815.38,-510.78C784.23,-506.94 738.01,-496.48 710,-468 688.81,-446.45 690,-433.23 690,-403 690,-403 690,-403 690,-233 690,-189.93 732.16,-155.21 760.01,-136.98"/>
<polygon fill="midnightblue" stroke="midnightblue" points="761.88,-139.94 768.48,-131.65 758.15,-134.01 761.88,-139.94"/>
</g>
<!-- Node8 -->
<g id="node8" class="node">
<title>Node8</title>
<g id="a_node8"><a xlink:href="type_8h.html" target="_top" xlink:title="Defines typet, type_with_subtypet and type_with_subtypest.">
<polygon fill="none" stroke="black" points="718.5,-448.5 718.5,-467.5 765.5,-467.5 765.5,-448.5 718.5,-448.5"/>
<text text-anchor="middle" x="742" y="-455.5" font-family="Helvetica,sans-Serif" font-size="10.00">type.h</text>
</a>
</g>
</g>
<!-- Node6&#45;&gt;Node8 -->
<g id="edge7" class="edge">
<title>Node6&#45;&gt;Node8</title>
<path fill="none" stroke="midnightblue" d="M830.97,-504.32C813.97,-495.66 787.62,-482.24 768.01,-472.25"/>
<polygon fill="midnightblue" stroke="midnightblue" points="769.49,-469.08 758.99,-467.65 766.31,-475.31 769.49,-469.08"/>
</g>
<!-- Node33 -->
<g id="node27" class="node">
<title>Node33</title>
<g id="a_node27"><a xlink:href="validation__mode_8h.html" target="_top" xlink:title=" ">
<polygon fill="none" stroke="black" points="912.5,-336.5 912.5,-355.5 1019.5,-355.5 1019.5,-336.5 912.5,-336.5"/>
<text text-anchor="middle" x="966" y="-343.5" font-family="Helvetica,sans-Serif" font-size="10.00">validation_mode.h</text>
</a>
</g>
</g>
<!-- Node6&#45;&gt;Node33 -->
<g id="edge43" class="edge">
<title>Node6&#45;&gt;Node33</title>
<path fill="none" stroke="midnightblue" d="M880.57,-513.55C919.15,-512.4 982.95,-504.55 1021,-468 1045.96,-444.02 1054.78,-422.27 1038,-392 1029.91,-377.41 1014.9,-366.92 1000.66,-359.76"/>
<polygon fill="midnightblue" stroke="midnightblue" points="1002.05,-356.55 991.5,-355.53 999.11,-362.9 1002.05,-356.55"/>
</g>
<!-- Node34 -->
<g id="node28" class="node">
<title>Node34</title>
<g id="a_node28"><a xlink:href="validate__types_8h.html" target="_top" xlink:title=" ">
<polygon fill="none" stroke="black" points="931,-392.5 931,-411.5 1029,-411.5 1029,-392.5 931,-392.5"/>
<text text-anchor="middle" x="980" y="-399.5" font-family="Helvetica,sans-Serif" font-size="10.00">validate_types.h</text>
</a>
</g>
</g>
<!-- Node6&#45;&gt;Node34 -->
<g id="edge42" class="edge">
<title>Node6&#45;&gt;Node34</title>
<path fill="none" stroke="midnightblue" d="M880.72,-508.29C922.18,-501.57 990.07,-487.81 1005,-468 1015.97,-453.45 1005.36,-433.5 994.77,-419.55"/>
<polygon fill="midnightblue" stroke="midnightblue" points="997.42,-417.27 988.38,-411.75 992.01,-421.7 997.42,-417.27"/>
</g>
<!-- Node35 -->
<g id="node29" class="node">
<title>Node35</title>
<g id="a_node29"><a xlink:href="validate__expressions_8h.html" target="_top" xlink:title=" ">
<polygon fill="none" stroke="black" points="783.5,-448.5 783.5,-467.5 912.5,-467.5 912.5,-448.5 783.5,-448.5"/>
<text text-anchor="middle" x="848" y="-455.5" font-family="Helvetica,sans-Serif" font-size="10.00">validate_expressions.h</text>
</a>
</g>
</g>
<!-- Node6&#45;&gt;Node35 -->
<g id="edge41" class="edge">
<title>Node6&#45;&gt;Node35</title>
<path fill="none" stroke="midnightblue" d="M848,-504.08C848,-497.01 848,-486.86 848,-477.99"/>
<polygon fill="midnightblue" stroke="midnightblue" points="851.5,-477.75 848,-467.75 844.5,-477.75 851.5,-477.75"/>
</g>
<!-- Node36 -->
<g id="node30" class="node">
<title>Node36</title>
<g id="a_node30"><a xlink:title=" ">
<polygon fill="none" stroke="#bfbfbf" points="930.5,-448.5 930.5,-467.5 995.5,-467.5 995.5,-448.5 930.5,-448.5"/>
<text text-anchor="middle" x="963" y="-455.5" font-family="Helvetica,sans-Serif" font-size="10.00">functional</text>
</a>
</g>
</g>
<!-- Node6&#45;&gt;Node36 -->
<g id="edge44" class="edge">
<title>Node6&#45;&gt;Node36</title>
<path fill="none" stroke="midnightblue" d="M866.22,-504.44C884.9,-495.68 914.16,-481.94 935.62,-471.86"/>
<polygon fill="midnightblue" stroke="midnightblue" points="937.3,-474.93 944.86,-467.52 934.32,-468.6 937.3,-474.93"/>
</g>
<!-- Node9 -->
<g id="node9" class="node">
<title>Node9</title>
<g id="a_node9"><a xlink:href="source__location_8h.html" target="_top" xlink:title=" ">
<polygon fill="none" stroke="black" points="303,-280.5 303,-299.5 405,-299.5 405,-280.5 303,-280.5"/>
<text text-anchor="middle" x="354" y="-287.5" font-family="Helvetica,sans-Serif" font-size="10.00">source_location.h</text>
</a>
</g>
</g>
<!-- Node8&#45;&gt;Node9 -->
<g id="edge8" class="edge">
<title>Node8&#45;&gt;Node9</title>
<path fill="none" stroke="midnightblue" d="M721.96,-448.42C658.1,-421.1 459.18,-336 383.57,-303.65"/>
<polygon fill="midnightblue" stroke="midnightblue" points="384.73,-300.34 374.16,-299.62 381.97,-306.78 384.73,-300.34"/>
</g>
<!-- Node31 -->
<g id="node25" class="node">
<title>Node31</title>
<g id="a_node25"><a xlink:href="validate_8h.html" target="_top" xlink:title=" ">
<polygon fill="none" stroke="black" points="779.5,-392.5 779.5,-411.5 844.5,-411.5 844.5,-392.5 779.5,-392.5"/>
<text text-anchor="middle" x="812" y="-399.5" font-family="Helvetica,sans-Serif" font-size="10.00">validate.h</text>
</a>
</g>
</g>
<!-- Node8&#45;&gt;Node31 -->
<g id="edge32" class="edge">
<title>Node8&#45;&gt;Node31</title>
<path fill="none" stroke="midnightblue" d="M753.25,-448.32C763.8,-440.18 779.8,-427.84 792.44,-418.09"/>
<polygon fill="midnightblue" stroke="midnightblue" points="794.77,-420.71 800.55,-411.83 790.49,-415.17 794.77,-420.71"/>
</g>
<!-- Node8&#45;&gt;Node33 -->
<g id="edge40" class="edge">
<title>Node8&#45;&gt;Node33</title>
<path fill="none" stroke="midnightblue" d="M765.59,-448.65C788.55,-440.26 824.24,-426.52 854,-412 886.18,-396.3 921.66,-374.98 943.89,-361.11"/>
<polygon fill="midnightblue" stroke="midnightblue" points="945.95,-363.94 952.55,-355.66 942.22,-358.02 945.95,-363.94"/>
</g>
<!-- Node8&#45;&gt;Node34 -->
<g id="edge39" class="edge">
<title>Node8&#45;&gt;Node34</title>
<path fill="none" stroke="midnightblue" d="M765.76,-450.37C768.86,-449.55 772,-448.74 775,-448 826.97,-435.22 886.8,-422.29 928.35,-413.59"/>
<polygon fill="midnightblue" stroke="midnightblue" points="929.16,-416.99 938.24,-411.53 927.74,-410.14 929.16,-416.99"/>
</g>
<!-- Node9&#45;&gt;Node5 -->
<g id="edge31" class="edge">
<title>Node9&#45;&gt;Node5</title>
<path fill="none" stroke="midnightblue" d="M302.82,-285.71C270.71,-281.01 230.68,-269.91 205,-244 183.81,-222.62 186,-209.1 186,-179 186,-179 186,-179 186,-121 186,-68.65 247.93,-36.53 287.28,-21.4"/>
<polygon fill="midnightblue" stroke="midnightblue" points="288.56,-24.65 296.74,-17.92 286.15,-18.08 288.56,-24.65"/>
</g>
<!-- Node10 -->
<g id="node10" class="node">
<title>Node10</title>
<g id="a_node10"><a xlink:href="deprecate_8h.html" target="_top" xlink:title=" ">
<polygon fill="none" stroke="black" points="214,-224.5 214,-243.5 288,-243.5 288,-224.5 214,-224.5"/>
<text text-anchor="middle" x="251" y="-231.5" font-family="Helvetica,sans-Serif" font-size="10.00">deprecate.h</text>
</a>
</g>
</g>
<!-- Node9&#45;&gt;Node10 -->
<g id="edge9" class="edge">
<title>Node9&#45;&gt;Node10</title>
<path fill="none" stroke="midnightblue" d="M337.45,-280.32C321.01,-271.7 295.57,-258.36 276.53,-248.39"/>
<polygon fill="midnightblue" stroke="midnightblue" points="277.99,-245.2 267.51,-243.65 274.74,-251.4 277.99,-245.2"/>
</g>
<!-- Node11 -->
<g id="node11" class="node">
<title>Node11</title>
<g id="a_node11"><a xlink:href="irep_8h.html" target="_top" xlink:title=" ">
<polygon fill="none" stroke="black" points="380,-224.5 380,-243.5 424,-243.5 424,-224.5 380,-224.5"/>
<text text-anchor="middle" x="402" y="-231.5" font-family="Helvetica,sans-Serif" font-size="10.00">irep.h</text>
</a>
</g>
</g>
<!-- Node9&#45;&gt;Node11 -->
<g id="edge10" class="edge">
<title>Node9&#45;&gt;Node11</title>
<path fill="none" stroke="midnightblue" d="M361.93,-280.08C368.85,-272.3 379.07,-260.8 387.45,-251.37"/>
<polygon fill="midnightblue" stroke="midnightblue" points="390.19,-253.55 394.22,-243.75 384.96,-248.9 390.19,-253.55"/>
</g>
<!-- Node30 -->
<g id="node24" class="node">
<title>Node30</title>
<g id="a_node24"><a xlink:title=" ">
<polygon fill="none" stroke="#bfbfbf" points="306,-224.5 306,-243.5 362,-243.5 362,-224.5 306,-224.5"/>
<text text-anchor="middle" x="334" y="-231.5" font-family="Helvetica,sans-Serif" font-size="10.00">optional</text>
</a>
</g>
</g>
<!-- Node9&#45;&gt;Node30 -->
<g id="edge30" class="edge">
<title>Node9&#45;&gt;Node30</title>
<path fill="none" stroke="midnightblue" d="M350.7,-280.08C348.02,-272.85 344.15,-262.41 340.81,-253.4"/>
<polygon fill="midnightblue" stroke="midnightblue" points="344,-251.91 337.24,-243.75 337.43,-254.34 344,-251.91"/>
</g>
<!-- Node11&#45;&gt;Node5 -->
<g id="edge11" class="edge">
<title>Node11&#45;&gt;Node5</title>
<path fill="none" stroke="midnightblue" d="M400.92,-224.25C398.24,-203.97 390.36,-152.44 375,-112 363.13,-80.75 342.97,-47.37 330.35,-27.88"/>
<polygon fill="midnightblue" stroke="midnightblue" points="333.26,-25.93 324.83,-19.5 327.41,-29.78 333.26,-25.93"/>
</g>
<!-- Node12 -->
<g id="node12" class="node">
<title>Node12</title>
<g id="a_node12"><a xlink:title=" ">
<polygon fill="none" stroke="#bfbfbf" points="318.5,-168.5 318.5,-187.5 365.5,-187.5 365.5,-168.5 318.5,-168.5"/>
<text text-anchor="middle" x="342" y="-175.5" font-family="Helvetica,sans-Serif" font-size="10.00">vector</text>
</a>
</g>
</g>
<!-- Node11&#45;&gt;Node12 -->
<g id="edge12" class="edge">
<title>Node11&#45;&gt;Node12</title>
<path fill="none" stroke="midnightblue" d="M392.36,-224.32C383.49,-216.34 370.13,-204.31 359.39,-194.65"/>
<polygon fill="midnightblue" stroke="midnightblue" points="361.59,-191.92 351.82,-187.83 356.91,-197.13 361.59,-191.92"/>
</g>
<!-- Node13 -->
<g id="node13" class="node">
<title>Node13</title>
<g id="a_node13"><a xlink:href="src_2util_2invariant_8h.html" target="_top" xlink:title=" ">
<polygon fill="none" stroke="black" points="632.5,-56.5 632.5,-75.5 701.5,-75.5 701.5,-56.5 632.5,-56.5"/>
<text text-anchor="middle" x="667" y="-63.5" font-family="Helvetica,sans-Serif" font-size="10.00">invariant.h</text>
</a>
</g>
</g>
<!-- Node11&#45;&gt;Node13 -->
<g id="edge13" class="edge">
<title>Node11&#45;&gt;Node13</title>
<path fill="none" stroke="midnightblue" d="M405.62,-224.39C415.45,-202.06 444.94,-141.99 489,-112 528.86,-84.87 583.77,-74.09 622.02,-69.81"/>
<polygon fill="midnightblue" stroke="midnightblue" points="622.75,-73.26 632.34,-68.77 622.04,-66.29 622.75,-73.26"/>
</g>
<!-- Node17 -->
<g id="node17" class="node">
<title>Node17</title>
<g id="a_node17"><a xlink:href="irep__ids_8h.html" target="_top" xlink:title="util">
<polygon fill="none" stroke="black" points="236,-168.5 236,-187.5 300,-187.5 300,-168.5 236,-168.5"/>
<text text-anchor="middle" x="268" y="-175.5" font-family="Helvetica,sans-Serif" font-size="10.00">irep_ids.h</text>
</a>
</g>
</g>
<!-- Node11&#45;&gt;Node17 -->
<g id="edge18" class="edge">
<title>Node11&#45;&gt;Node17</title>
<path fill="none" stroke="midnightblue" d="M380.77,-224.44C358.62,-215.52 323.68,-201.44 298.56,-191.32"/>
<polygon fill="midnightblue" stroke="midnightblue" points="299.72,-188.01 289.13,-187.52 297.1,-194.5 299.72,-188.01"/>
</g>
<!-- Node26 -->
<g id="node20" class="node">
<title>Node26</title>
<g id="a_node20"><a xlink:href="forward__list__as__map_8h.html" target="_top" xlink:title=" ">
<polygon fill="none" stroke="black" points="534.5,-168.5 534.5,-187.5 661.5,-187.5 661.5,-168.5 534.5,-168.5"/>
<text text-anchor="middle" x="598" y="-175.5" font-family="Helvetica,sans-Serif" font-size="10.00">forward_list_as_map.h</text>
</a>
</g>
</g>
<!-- Node11&#45;&gt;Node26 -->
<g id="edge23" class="edge">
<title>Node11&#45;&gt;Node26</title>
<path fill="none" stroke="midnightblue" d="M424.1,-226.91C456.31,-218.04 516.71,-201.4 557.15,-190.25"/>
<polygon fill="midnightblue" stroke="midnightblue" points="558.26,-193.58 566.97,-187.55 556.4,-186.83 558.26,-193.58"/>
</g>
<!-- Node13&#45;&gt;Node5 -->
<g id="edge16" class="edge">
<title>Node13&#45;&gt;Node5</title>
<path fill="none" stroke="midnightblue" d="M632.36,-59.62C564.94,-49.16 416.96,-26.2 351.38,-16.02"/>
<polygon fill="midnightblue" stroke="midnightblue" points="351.64,-12.52 341.22,-14.45 350.57,-19.44 351.64,-12.52"/>
</g>
<!-- Node14 -->
<g id="node14" class="node">
<title>Node14</title>
<g id="a_node14"><a xlink:title=" ">
<polygon fill="none" stroke="#bfbfbf" points="642.5,-0.5 642.5,-19.5 691.5,-19.5 691.5,-0.5 642.5,-0.5"/>
<text text-anchor="middle" x="667" y="-7.5" font-family="Helvetica,sans-Serif" font-size="10.00">cstdlib</text>
</a>
</g>
</g>
<!-- Node13&#45;&gt;Node14 -->
<g id="edge14" class="edge">
<title>Node13&#45;&gt;Node14</title>
<path fill="none" stroke="midnightblue" d="M667,-56.08C667,-49.01 667,-38.86 667,-29.99"/>
<polygon fill="midnightblue" stroke="midnightblue" points="670.5,-29.75 667,-19.75 663.5,-29.75 670.5,-29.75"/>
</g>
<!-- Node15 -->
<g id="node15" class="node">
<title>Node15</title>
<g id="a_node15"><a xlink:title=" ">
<polygon fill="none" stroke="#bfbfbf" points="568,-0.5 568,-19.5 624,-19.5 624,-0.5 568,-0.5"/>
<text text-anchor="middle" x="596" y="-7.5" font-family="Helvetica,sans-Serif" font-size="10.00">sstream</text>
</a>
</g>
</g>
<!-- Node13&#45;&gt;Node15 -->
<g id="edge15" class="edge">
<title>Node13&#45;&gt;Node15</title>
<path fill="none" stroke="midnightblue" d="M655.59,-56.32C644.89,-48.18 628.66,-35.84 615.84,-26.09"/>
<polygon fill="midnightblue" stroke="midnightblue" points="617.69,-23.1 607.61,-19.83 613.46,-28.67 617.69,-23.1"/>
</g>
<!-- Node16 -->
<g id="node16" class="node">
<title>Node16</title>
<g id="a_node16"><a xlink:title=" ">
<polygon fill="none" stroke="#bfbfbf" points="709.5,-0.5 709.5,-19.5 778.5,-19.5 778.5,-0.5 709.5,-0.5"/>
<text text-anchor="middle" x="744" y="-7.5" font-family="Helvetica,sans-Serif" font-size="10.00">type_traits</text>
</a>
</g>
</g>
<!-- Node13&#45;&gt;Node16 -->
<g id="edge17" class="edge">
<title>Node13&#45;&gt;Node16</title>
<path fill="none" stroke="midnightblue" d="M679.37,-56.32C691.16,-48.06 709.13,-35.45 723.14,-25.63"/>
<polygon fill="midnightblue" stroke="midnightblue" points="725.48,-28.26 731.66,-19.65 721.46,-22.53 725.48,-28.26"/>
</g>
<!-- Node18 -->
<g id="node18" class="node">
<title>Node18</title>
<g id="a_node18"><a xlink:href="dstring_8h.html" target="_top" xlink:title="Container for C&#45;Strings.">
<polygon fill="none" stroke="red" points="214.5,-112.5 214.5,-131.5 273.5,-131.5 273.5,-112.5 214.5,-112.5"/>
<text text-anchor="middle" x="244" y="-119.5" font-family="Helvetica,sans-Serif" font-size="10.00">dstring.h</text>
</a>
</g>
</g>
<!-- Node17&#45;&gt;Node18 -->
<g id="edge19" class="edge">
<title>Node17&#45;&gt;Node18</title>
<path fill="none" stroke="midnightblue" d="M264.04,-168.08C260.79,-160.77 256.08,-150.18 252.05,-141.1"/>
<polygon fill="midnightblue" stroke="midnightblue" points="255.15,-139.47 247.89,-131.75 248.75,-142.31 255.15,-139.47"/>
</g>
<!-- Node25 -->
<g id="node19" class="node">
<title>Node25</title>
<g id="a_node19"><a xlink:title=" ">
<polygon fill="none" stroke="#bfbfbf" points="292,-112.5 292,-131.5 366,-131.5 366,-112.5 292,-112.5"/>
<text text-anchor="middle" x="329" y="-119.5" font-family="Helvetica,sans-Serif" font-size="10.00">irep_ids.def</text>
</a>
</g>
</g>
<!-- Node17&#45;&gt;Node25 -->
<g id="edge22" class="edge">
<title>Node17&#45;&gt;Node25</title>
<path fill="none" stroke="midnightblue" d="M277.8,-168.32C286.82,-160.34 300.41,-148.31 311.32,-138.65"/>
<polygon fill="midnightblue" stroke="midnightblue" points="313.85,-141.08 319.02,-131.83 309.21,-135.84 313.85,-141.08"/>
</g>
<!-- Node18&#45;&gt;Node4 -->
<g id="edge20" class="edge">
<title>Node18&#45;&gt;Node4</title>
<path fill="none" stroke="midnightblue" d="M226.17,-112.32C208.28,-103.62 180.52,-90.12 159.95,-80.11"/>
<polygon fill="midnightblue" stroke="midnightblue" points="161.31,-76.88 150.79,-75.65 158.25,-83.18 161.31,-76.88"/>
</g>
<!-- Node18&#45;&gt;Node5 -->
<g id="edge21" class="edge">
<title>Node18&#45;&gt;Node5</title>
<path fill="none" stroke="midnightblue" d="M249.89,-112.37C262.26,-94.22 291.18,-51.8 307.42,-27.99"/>
<polygon fill="midnightblue" stroke="midnightblue" points="310.4,-29.83 313.14,-19.59 304.62,-25.88 310.4,-29.83"/>
</g>
<!-- Node26&#45;&gt;Node7 -->
<g id="edge26" class="edge">
<title>Node26&#45;&gt;Node7</title>
<path fill="none" stroke="midnightblue" d="M627.47,-168.44C659.17,-159.24 709.73,-144.56 744.77,-134.39"/>
<polygon fill="midnightblue" stroke="midnightblue" points="746.04,-137.67 754.67,-131.52 744.09,-130.94 746.04,-137.67"/>
</g>
<!-- Node27 -->
<g id="node21" class="node">
<title>Node27</title>
<g id="a_node21"><a xlink:title=" ">
<polygon fill="none" stroke="#bfbfbf" points="590,-112.5 590,-131.5 654,-131.5 654,-112.5 590,-112.5"/>
<text text-anchor="middle" x="622" y="-119.5" font-family="Helvetica,sans-Serif" font-size="10.00">algorithm</text>
</a>
</g>
</g>
<!-- Node26&#45;&gt;Node27 -->
<g id="edge24" class="edge">
<title>Node26&#45;&gt;Node27</title>
<path fill="none" stroke="midnightblue" d="M601.96,-168.08C605.21,-160.77 609.92,-150.18 613.95,-141.1"/>
<polygon fill="midnightblue" stroke="midnightblue" points="617.25,-142.31 618.11,-131.75 610.85,-139.47 617.25,-142.31"/>
</g>
<!-- Node28 -->
<g id="node22" class="node">
<title>Node28</title>
<g id="a_node22"><a xlink:title=" ">
<polygon fill="none" stroke="#bfbfbf" points="498,-112.5 498,-131.5 572,-131.5 572,-112.5 498,-112.5"/>
<text text-anchor="middle" x="535" y="-119.5" font-family="Helvetica,sans-Serif" font-size="10.00">forward_list</text>
</a>
</g>
</g>
<!-- Node26&#45;&gt;Node28 -->
<g id="edge25" class="edge">
<title>Node26&#45;&gt;Node28</title>
<path fill="none" stroke="midnightblue" d="M587.88,-168.32C578.47,-160.26 564.26,-148.08 552.93,-138.37"/>
<polygon fill="midnightblue" stroke="midnightblue" points="555.18,-135.68 545.31,-131.83 550.62,-141 555.18,-135.68"/>
</g>
<!-- Node29 -->
<g id="node23" class="node">
<title>Node29</title>
<g id="a_node23"><a xlink:href="narrow_8h.html" target="_top" xlink:title=" ">
<polygon fill="none" stroke="black" points="672.5,-112.5 672.5,-131.5 731.5,-131.5 731.5,-112.5 672.5,-112.5"/>
<text text-anchor="middle" x="702" y="-119.5" font-family="Helvetica,sans-Serif" font-size="10.00">narrow.h</text>
</a>
</g>
</g>
<!-- Node26&#45;&gt;Node29 -->
<g id="edge27" class="edge">
<title>Node26&#45;&gt;Node29</title>
<path fill="none" stroke="midnightblue" d="M614.71,-168.32C631.31,-159.7 657,-146.36 676.22,-136.39"/>
<polygon fill="midnightblue" stroke="midnightblue" points="678.07,-139.37 685.33,-131.65 674.84,-133.16 678.07,-139.37"/>
</g>
<!-- Node29&#45;&gt;Node13 -->
<g id="edge29" class="edge">
<title>Node29&#45;&gt;Node13</title>
<path fill="none" stroke="midnightblue" d="M696.22,-112.08C691.33,-104.53 684.17,-93.49 678.17,-84.23"/>
<polygon fill="midnightblue" stroke="midnightblue" points="681.05,-82.24 672.67,-75.75 675.17,-86.05 681.05,-82.24"/>
</g>
<!-- Node29&#45;&gt;Node16 -->
<g id="edge28" class="edge">
<title>Node29&#45;&gt;Node16</title>
<path fill="none" stroke="midnightblue" d="M705.3,-112.37C712.13,-94.46 727.99,-52.92 737.15,-28.95"/>
<polygon fill="midnightblue" stroke="midnightblue" points="740.42,-30.18 740.72,-19.59 733.88,-27.69 740.42,-30.18"/>
</g>
<!-- Node31&#45;&gt;Node16 -->
<g id="edge33" class="edge">
<title>Node31&#45;&gt;Node16</title>
<path fill="none" stroke="midnightblue" d="M826.19,-392.37C838.2,-384.37 855.01,-371.39 865,-356 881.38,-330.75 884,-321.1 884,-291 884,-291 884,-291 884,-121 884,-69.35 824.35,-38.26 782.92,-22.9"/>
<polygon fill="midnightblue" stroke="midnightblue" points="783.94,-19.54 773.35,-19.5 781.6,-26.14 783.94,-19.54"/>
</g>
<!-- Node32 -->
<g id="node26" class="node">
<title>Node32</title>
<g id="a_node26"><a xlink:href="exception__utils_8h.html" target="_top" xlink:title=" ">
<polygon fill="none" stroke="black" points="756,-336.5 756,-355.5 856,-355.5 856,-336.5 756,-336.5"/>
<text text-anchor="middle" x="806" y="-343.5" font-family="Helvetica,sans-Serif" font-size="10.00">exception_utils.h</text>
</a>
</g>
</g>
<!-- Node31&#45;&gt;Node32 -->
<g id="edge34" class="edge">
<title>Node31&#45;&gt;Node32</title>
<path fill="none" stroke="midnightblue" d="M811.01,-392.08C810.21,-384.93 809.07,-374.64 808.08,-365.69"/>
<polygon fill="midnightblue" stroke="midnightblue" points="811.56,-365.3 806.97,-355.75 804.6,-366.08 811.56,-365.3"/>
</g>
<!-- Node31&#45;&gt;Node33 -->
<g id="edge38" class="edge">
<title>Node31&#45;&gt;Node33</title>
<path fill="none" stroke="midnightblue" d="M836.4,-392.44C862.2,-383.4 903.08,-369.06 932.02,-358.92"/>
<polygon fill="midnightblue" stroke="midnightblue" points="933.43,-362.13 941.71,-355.52 931.12,-355.52 933.43,-362.13"/>
</g>
<!-- Node32&#45;&gt;Node5 -->
<g id="edge35" class="edge">
<title>Node32&#45;&gt;Node5</title>
<path fill="none" stroke="midnightblue" d="M787.91,-336.41C742.28,-314.43 619.47,-253.22 526,-188 486.37,-160.35 378.09,-64.04 336.02,-26.32"/>
<polygon fill="midnightblue" stroke="midnightblue" points="338.31,-23.67 328.53,-19.59 333.64,-28.88 338.31,-23.67"/>
</g>
<!-- Node32&#45;&gt;Node9 -->
<g id="edge37" class="edge">
<title>Node32&#45;&gt;Node9</title>
<path fill="none" stroke="midnightblue" d="M755.71,-337.81C751.07,-337.18 746.45,-336.57 742,-336 626.61,-321.2 491.64,-306.03 415.14,-297.63"/>
<polygon fill="midnightblue" stroke="midnightblue" points="415.52,-294.15 405.2,-296.54 414.76,-301.11 415.52,-294.15"/>
</g>
<!-- Node32&#45;&gt;Node13 -->
<g id="edge36" class="edge">
<title>Node32&#45;&gt;Node13</title>
<path fill="none" stroke="midnightblue" d="M811.56,-336.27C822.55,-318.15 846,-274.83 846,-235 846,-235 846,-235 846,-177 846,-146.9 848.39,-133.17 827,-112 796.58,-81.88 747.68,-71.56 711.94,-68.2"/>
<polygon fill="midnightblue" stroke="midnightblue" points="712.02,-64.7 701.77,-67.4 711.46,-71.68 712.02,-64.7"/>
</g>
</g>
</svg>
