<?xml version="1.0" encoding="UTF-8" standalone="no"?>
<!DOCTYPE svg PUBLIC "-//W3C//DTD SVG 1.1//EN"
 "http://www.w3.org/Graphics/SVG/1.1/DTD/svg11.dtd">
<!-- Generated by graphviz version 2.43.0 (0)
 -->
<!-- Title: /home/runner/work/cbmc/cbmc/src/cpp/cpp_scopes.cpp Pages: 1 -->
<svg width="720pt" height="431pt"
 viewBox="0.00 0.00 720.16 431.00" xmlns="http://www.w3.org/2000/svg" xmlns:xlink="http://www.w3.org/1999/xlink">
<g id="graph0" class="graph" transform="scale(1 1) rotate(0) translate(4 427)">
<title>/home/runner/work/cbmc/cbmc/src/cpp/cpp_scopes.cpp</title>
<!-- Node1 -->
<g id="node1" class="node">
<title>Node1</title>
<g id="a_node1"><a xlink:title=" ">
<polygon fill="#bfbfbf" stroke="black" points="139.5,-392.5 139.5,-422.5 302.5,-422.5 302.5,-392.5 139.5,-392.5"/>
<text text-anchor="start" x="147.5" y="-410.5" font-family="Helvetica,sans-Serif" font-size="10.00">/home/runner/work/cbmc</text>
<text text-anchor="middle" x="221" y="-399.5" font-family="Helvetica,sans-Serif" font-size="10.00">/cbmc/src/cpp/cpp_scopes.cpp</text>
</a>
</g>
</g>
<!-- Node2 -->
<g id="node2" class="node">
<title>Node2</title>
<g id="a_node2"><a xlink:href="cpp__scopes_8h.html" target="_top" xlink:title=" ">
<polygon fill="none" stroke="black" points="111,-336.5 111,-355.5 193,-355.5 193,-336.5 111,-336.5"/>
<text text-anchor="middle" x="152" y="-343.5" font-family="Helvetica,sans-Serif" font-size="10.00">cpp_scopes.h</text>
</a>
</g>
</g>
<!-- Node1&#45;&gt;Node2 -->
<g id="edge1" class="edge">
<title>Node1&#45;&gt;Node2</title>
<path fill="none" stroke="midnightblue" d="M204.65,-392.4C194.1,-383.31 180.4,-371.49 169.62,-362.19"/>
<polygon fill="midnightblue" stroke="midnightblue" points="171.9,-359.54 162.04,-355.66 167.33,-364.84 171.9,-359.54"/>
</g>
<!-- Node42 -->
<g id="node20" class="node">
<title>Node42</title>
<g id="a_node20"><a xlink:href="symbol_8h.html" target="_top" xlink:title="Symbol table entry.">
<polygon fill="none" stroke="black" points="182,-224.5 182,-243.5 262,-243.5 262,-224.5 182,-224.5"/>
<text text-anchor="middle" x="222" y="-231.5" font-family="Helvetica,sans-Serif" font-size="10.00">util/symbol.h</text>
</a>
</g>
</g>
<!-- Node1&#45;&gt;Node42 -->
<g id="edge26" class="edge">
<title>Node1&#45;&gt;Node42</title>
<path fill="none" stroke="midnightblue" d="M221.08,-392.47C221.26,-361.7 221.69,-288.33 221.89,-253.7"/>
<polygon fill="midnightblue" stroke="midnightblue" points="225.39,-253.58 221.95,-243.56 218.39,-253.54 225.39,-253.58"/>
</g>
<!-- Node43 -->
<g id="node21" class="node">
<title>Node43</title>
<g id="a_node21"><a xlink:title=" ">
<polygon fill="none" stroke="#bfbfbf" points="249.5,-336.5 249.5,-355.5 306.5,-355.5 306.5,-336.5 249.5,-336.5"/>
<text text-anchor="middle" x="278" y="-343.5" font-family="Helvetica,sans-Serif" font-size="10.00">ostream</text>
</a>
</g>
</g>
<!-- Node1&#45;&gt;Node43 -->
<g id="edge30" class="edge">
<title>Node1&#45;&gt;Node43</title>
<path fill="none" stroke="midnightblue" d="M234.51,-392.4C242.96,-383.58 253.88,-372.18 262.66,-363.02"/>
<polygon fill="midnightblue" stroke="midnightblue" points="265.32,-365.3 269.71,-355.66 260.26,-360.46 265.32,-365.3"/>
</g>
<!-- Node3 -->
<g id="node3" class="node">
<title>Node3</title>
<g id="a_node3"><a xlink:title=" ">
<polygon fill="none" stroke="#bfbfbf" points="132,-224.5 132,-243.5 164,-243.5 164,-224.5 132,-224.5"/>
<text text-anchor="middle" x="148" y="-231.5" font-family="Helvetica,sans-Serif" font-size="10.00">set</text>
</a>
</g>
</g>
<!-- Node2&#45;&gt;Node3 -->
<g id="edge2" class="edge">
<title>Node2&#45;&gt;Node3</title>
<path fill="none" stroke="midnightblue" d="M151.69,-336.37C151.04,-318.62 149.55,-277.67 148.68,-253.6"/>
<polygon fill="midnightblue" stroke="midnightblue" points="152.17,-253.46 148.31,-243.59 145.18,-253.71 152.17,-253.46"/>
</g>
<!-- Node4 -->
<g id="node4" class="node">
<title>Node4</title>
<g id="a_node4"><a xlink:href="cpp__scope_8h.html" target="_top" xlink:title=" ">
<polygon fill="none" stroke="black" points="46.5,-280.5 46.5,-299.5 123.5,-299.5 123.5,-280.5 46.5,-280.5"/>
<text text-anchor="middle" x="85" y="-287.5" font-family="Helvetica,sans-Serif" font-size="10.00">cpp_scope.h</text>
</a>
</g>
</g>
<!-- Node2&#45;&gt;Node4 -->
<g id="edge3" class="edge">
<title>Node2&#45;&gt;Node4</title>
<path fill="none" stroke="midnightblue" d="M141.24,-336.32C131.23,-328.26 116.11,-316.08 104.07,-306.37"/>
<polygon fill="midnightblue" stroke="midnightblue" points="105.94,-303.38 95.96,-299.83 101.55,-308.83 105.94,-303.38"/>
</g>
<!-- Node4&#45;&gt;Node3 -->
<g id="edge5" class="edge">
<title>Node4&#45;&gt;Node3</title>
<path fill="none" stroke="midnightblue" d="M95.12,-280.32C104.53,-272.26 118.74,-260.08 130.07,-250.37"/>
<polygon fill="midnightblue" stroke="midnightblue" points="132.38,-253 137.69,-243.83 127.82,-247.68 132.38,-253"/>
</g>
<!-- Node5 -->
<g id="node5" class="node">
<title>Node5</title>
<g id="a_node5"><a xlink:title=" ">
<polygon fill="none" stroke="#bfbfbf" points="0,-168.5 0,-187.5 48,-187.5 48,-168.5 0,-168.5"/>
<text text-anchor="middle" x="24" y="-175.5" font-family="Helvetica,sans-Serif" font-size="10.00">iosfwd</text>
</a>
</g>
</g>
<!-- Node4&#45;&gt;Node5 -->
<g id="edge4" class="edge">
<title>Node4&#45;&gt;Node5</title>
<path fill="none" stroke="midnightblue" d="M76.09,-280.43C67.63,-271.87 55.04,-258.02 47,-244 38.63,-229.4 32.51,-211.22 28.7,-197.81"/>
<polygon fill="midnightblue" stroke="midnightblue" points="32,-196.6 26.04,-187.84 25.24,-198.41 32,-196.6"/>
</g>
<!-- Node6 -->
<g id="node6" class="node">
<title>Node6</title>
<g id="a_node6"><a xlink:href="cpp__id_8h.html" target="_top" xlink:title=" ">
<polygon fill="none" stroke="black" points="56.5,-224.5 56.5,-243.5 113.5,-243.5 113.5,-224.5 56.5,-224.5"/>
<text text-anchor="middle" x="85" y="-231.5" font-family="Helvetica,sans-Serif" font-size="10.00">cpp_id.h</text>
</a>
</g>
</g>
<!-- Node4&#45;&gt;Node6 -->
<g id="edge6" class="edge">
<title>Node4&#45;&gt;Node6</title>
<path fill="none" stroke="midnightblue" d="M85,-280.08C85,-273.01 85,-262.86 85,-253.99"/>
<polygon fill="midnightblue" stroke="midnightblue" points="88.5,-253.75 85,-243.75 81.5,-253.75 88.5,-253.75"/>
</g>
<!-- Node6&#45;&gt;Node5 -->
<g id="edge9" class="edge">
<title>Node6&#45;&gt;Node5</title>
<path fill="none" stroke="midnightblue" d="M75.2,-224.32C66.18,-216.34 52.59,-204.31 41.68,-194.65"/>
<polygon fill="midnightblue" stroke="midnightblue" points="43.79,-191.84 33.98,-187.83 39.15,-197.08 43.79,-191.84"/>
</g>
<!-- Node7 -->
<g id="node7" class="node">
<title>Node7</title>
<g id="a_node7"><a xlink:title=" ">
<polygon fill="none" stroke="#bfbfbf" points="66,-168.5 66,-187.5 104,-187.5 104,-168.5 66,-168.5"/>
<text text-anchor="middle" x="85" y="-175.5" font-family="Helvetica,sans-Serif" font-size="10.00">map</text>
</a>
</g>
</g>
<!-- Node6&#45;&gt;Node7 -->
<g id="edge7" class="edge">
<title>Node6&#45;&gt;Node7</title>
<path fill="none" stroke="midnightblue" d="M85,-224.08C85,-217.01 85,-206.86 85,-197.99"/>
<polygon fill="midnightblue" stroke="midnightblue" points="88.5,-197.75 85,-187.75 81.5,-197.75 88.5,-197.75"/>
</g>
<!-- Node8 -->
<g id="node8" class="node">
<title>Node8</title>
<g id="a_node8"><a xlink:title=" ">
<polygon fill="none" stroke="#bfbfbf" points="148,-0.5 148,-19.5 192,-19.5 192,-0.5 148,-0.5"/>
<text text-anchor="middle" x="170" y="-7.5" font-family="Helvetica,sans-Serif" font-size="10.00">string</text>
</a>
</g>
</g>
<!-- Node6&#45;&gt;Node8 -->
<g id="edge8" class="edge">
<title>Node6&#45;&gt;Node8</title>
<path fill="none" stroke="midnightblue" d="M91.25,-224.4C97.42,-215.6 106.81,-201.36 113,-188 138.63,-132.72 157.45,-62.74 165.57,-29.78"/>
<polygon fill="midnightblue" stroke="midnightblue" points="169.05,-30.3 167.99,-19.76 162.24,-28.66 169.05,-30.3"/>
</g>
<!-- Node9 -->
<g id="node9" class="node">
<title>Node9</title>
<g id="a_node9"><a xlink:href="expr_8h.html" target="_top" xlink:title=" ">
<polygon fill="none" stroke="black" points="419.5,-168.5 419.5,-187.5 484.5,-187.5 484.5,-168.5 419.5,-168.5"/>
<text text-anchor="middle" x="452" y="-175.5" font-family="Helvetica,sans-Serif" font-size="10.00">util/expr.h</text>
</a>
</g>
</g>
<!-- Node6&#45;&gt;Node9 -->
<g id="edge10" class="edge">
<title>Node6&#45;&gt;Node9</title>
<path fill="none" stroke="midnightblue" d="M113.57,-225.92C116.74,-225.23 119.93,-224.57 123,-224 225,-204.99 346.2,-190.47 409.18,-183.52"/>
<polygon fill="midnightblue" stroke="midnightblue" points="409.58,-187 419.14,-182.43 408.82,-180.04 409.58,-187"/>
</g>
<!-- Node16 -->
<g id="node19" class="node">
<title>Node16</title>
<g id="a_node19"><a xlink:href="src_2util_2invariant_8h.html" target="_top" xlink:title=" ">
<polygon fill="none" stroke="red" points="160.5,-168.5 160.5,-187.5 229.5,-187.5 229.5,-168.5 160.5,-168.5"/>
<text text-anchor="middle" x="195" y="-175.5" font-family="Helvetica,sans-Serif" font-size="10.00">invariant.h</text>
</a>
</g>
</g>
<!-- Node6&#45;&gt;Node16 -->
<g id="edge24" class="edge">
<title>Node6&#45;&gt;Node16</title>
<path fill="none" stroke="midnightblue" d="M102.67,-224.32C120.39,-215.62 147.9,-202.12 168.29,-192.11"/>
<polygon fill="midnightblue" stroke="midnightblue" points="169.94,-195.2 177.37,-187.65 166.85,-188.92 169.94,-195.2"/>
</g>
<!-- Node10 -->
<g id="node10" class="node">
<title>Node10</title>
<g id="a_node10"><a xlink:href="as__const_8h.html" target="_top" xlink:title=" ">
<polygon fill="none" stroke="black" points="494,-112.5 494,-131.5 562,-131.5 562,-112.5 494,-112.5"/>
<text text-anchor="middle" x="528" y="-119.5" font-family="Helvetica,sans-Serif" font-size="10.00">as_const.h</text>
</a>
</g>
</g>
<!-- Node9&#45;&gt;Node10 -->
<g id="edge11" class="edge">
<title>Node9&#45;&gt;Node10</title>
<path fill="none" stroke="midnightblue" d="M464.21,-168.32C475.78,-160.11 493.38,-147.6 507.16,-137.81"/>
<polygon fill="midnightblue" stroke="midnightblue" points="509.44,-140.48 515.57,-131.83 505.39,-134.77 509.44,-140.48"/>
</g>
<!-- Node11 -->
<g id="node11" class="node">
<title>Node11</title>
<g id="a_node11"><a xlink:href="deprecate_8h.html" target="_top" xlink:title=" ">
<polygon fill="none" stroke="black" points="618,-112.5 618,-131.5 692,-131.5 692,-112.5 618,-112.5"/>
<text text-anchor="middle" x="655" y="-119.5" font-family="Helvetica,sans-Serif" font-size="10.00">deprecate.h</text>
</a>
</g>
</g>
<!-- Node9&#45;&gt;Node11 -->
<g id="edge12" class="edge">
<title>Node9&#45;&gt;Node11</title>
<path fill="none" stroke="midnightblue" d="M484.17,-168.44C519.06,-159.16 574.89,-144.31 613.17,-134.13"/>
<polygon fill="midnightblue" stroke="midnightblue" points="614.22,-137.47 622.98,-131.52 612.42,-130.7 614.22,-137.47"/>
</g>
<!-- Node12 -->
<g id="node12" class="node">
<title>Node12</title>
<g id="a_node12"><a xlink:href="type_8h.html" target="_top" xlink:title=" ">
<polygon fill="none" stroke="black" points="428.5,-112.5 428.5,-131.5 475.5,-131.5 475.5,-112.5 428.5,-112.5"/>
<text text-anchor="middle" x="452" y="-119.5" font-family="Helvetica,sans-Serif" font-size="10.00">type.h</text>
</a>
</g>
</g>
<!-- Node9&#45;&gt;Node12 -->
<g id="edge13" class="edge">
<title>Node9&#45;&gt;Node12</title>
<path fill="none" stroke="midnightblue" d="M452,-168.08C452,-161.01 452,-150.86 452,-141.99"/>
<polygon fill="midnightblue" stroke="midnightblue" points="455.5,-141.75 452,-131.75 448.5,-141.75 455.5,-141.75"/>
</g>
<!-- Node38 -->
<g id="node15" class="node">
<title>Node38</title>
<g id="a_node15"><a xlink:href="validation__mode_8h.html" target="_top" xlink:title=" ">
<polygon fill="none" stroke="black" points="436.5,-0.5 436.5,-19.5 543.5,-19.5 543.5,-0.5 436.5,-0.5"/>
<text text-anchor="middle" x="490" y="-7.5" font-family="Helvetica,sans-Serif" font-size="10.00">validation_mode.h</text>
</a>
</g>
</g>
<!-- Node9&#45;&gt;Node38 -->
<g id="edge22" class="edge">
<title>Node9&#45;&gt;Node38</title>
<path fill="none" stroke="midnightblue" d="M484.88,-176.08C546.1,-173.59 673.82,-164.53 701,-132 749.32,-74.16 627.7,-38.15 549.61,-21.65"/>
<polygon fill="midnightblue" stroke="midnightblue" points="549.88,-18.13 539.38,-19.55 548.47,-24.99 549.88,-18.13"/>
</g>
<!-- Node39 -->
<g id="node16" class="node">
<title>Node39</title>
<g id="a_node16"><a xlink:href="validate__types_8h.html" target="_top" xlink:title=" ">
<polygon fill="none" stroke="black" points="541,-56.5 541,-75.5 639,-75.5 639,-56.5 541,-56.5"/>
<text text-anchor="middle" x="590" y="-63.5" font-family="Helvetica,sans-Serif" font-size="10.00">validate_types.h</text>
</a>
</g>
</g>
<!-- Node9&#45;&gt;Node39 -->
<g id="edge21" class="edge">
<title>Node9&#45;&gt;Node39</title>
<path fill="none" stroke="midnightblue" d="M484.74,-172.75C511.51,-167.58 548.49,-156.31 571,-132 582.6,-119.47 587.15,-100.25 588.92,-85.95"/>
<polygon fill="midnightblue" stroke="midnightblue" points="592.43,-86.04 589.82,-75.77 585.45,-85.42 592.43,-86.04"/>
</g>
<!-- Node40 -->
<g id="node17" class="node">
<title>Node40</title>
<g id="a_node17"><a xlink:href="validate__expressions_8h.html" target="_top" xlink:title=" ">
<polygon fill="none" stroke="black" points="198.5,-112.5 198.5,-131.5 327.5,-131.5 327.5,-112.5 198.5,-112.5"/>
<text text-anchor="middle" x="263" y="-119.5" font-family="Helvetica,sans-Serif" font-size="10.00">validate_expressions.h</text>
</a>
</g>
</g>
<!-- Node9&#45;&gt;Node40 -->
<g id="edge20" class="edge">
<title>Node9&#45;&gt;Node40</title>
<path fill="none" stroke="midnightblue" d="M422.05,-168.44C389.84,-159.24 338.47,-144.56 302.86,-134.39"/>
<polygon fill="midnightblue" stroke="midnightblue" points="303.38,-130.9 292.81,-131.52 301.46,-137.63 303.38,-130.9"/>
</g>
<!-- Node41 -->
<g id="node18" class="node">
<title>Node41</title>
<g id="a_node18"><a xlink:title=" ">
<polygon fill="none" stroke="#bfbfbf" points="345.5,-112.5 345.5,-131.5 410.5,-131.5 410.5,-112.5 345.5,-112.5"/>
<text text-anchor="middle" x="378" y="-119.5" font-family="Helvetica,sans-Serif" font-size="10.00">functional</text>
</a>
</g>
</g>
<!-- Node9&#45;&gt;Node41 -->
<g id="edge23" class="edge">
<title>Node9&#45;&gt;Node41</title>
<path fill="none" stroke="midnightblue" d="M440.11,-168.32C428.85,-160.11 411.71,-147.6 398.29,-137.81"/>
<polygon fill="midnightblue" stroke="midnightblue" points="400.25,-134.9 390.11,-131.83 396.12,-140.56 400.25,-134.9"/>
</g>
<!-- Node13 -->
<g id="node13" class="node">
<title>Node13</title>
<g id="a_node13"><a xlink:href="source__location_8h.html" target="_top" xlink:title=" ">
<polygon fill="none" stroke="red" points="249,-56.5 249,-75.5 351,-75.5 351,-56.5 249,-56.5"/>
<text text-anchor="middle" x="300" y="-63.5" font-family="Helvetica,sans-Serif" font-size="10.00">source_location.h</text>
</a>
</g>
</g>
<!-- Node12&#45;&gt;Node13 -->
<g id="edge14" class="edge">
<title>Node12&#45;&gt;Node13</title>
<path fill="none" stroke="midnightblue" d="M428.25,-112.56C402.86,-103.54 362.38,-89.16 333.69,-78.97"/>
<polygon fill="midnightblue" stroke="midnightblue" points="334.68,-75.61 324.08,-75.56 332.34,-82.2 334.68,-75.61"/>
</g>
<!-- Node36 -->
<g id="node14" class="node">
<title>Node36</title>
<g id="a_node14"><a xlink:href="validate_8h.html" target="_top" xlink:title=" ">
<polygon fill="none" stroke="red" points="457.5,-56.5 457.5,-75.5 522.5,-75.5 522.5,-56.5 457.5,-56.5"/>
<text text-anchor="middle" x="490" y="-63.5" font-family="Helvetica,sans-Serif" font-size="10.00">validate.h</text>
</a>
</g>
</g>
<!-- Node12&#45;&gt;Node36 -->
<g id="edge16" class="edge">
<title>Node12&#45;&gt;Node36</title>
<path fill="none" stroke="midnightblue" d="M458.27,-112.08C463.64,-104.46 471.52,-93.26 478.08,-83.94"/>
<polygon fill="midnightblue" stroke="midnightblue" points="480.95,-85.94 483.84,-75.75 475.22,-81.91 480.95,-85.94"/>
</g>
<!-- Node12&#45;&gt;Node38 -->
<g id="edge19" class="edge">
<title>Node12&#45;&gt;Node38</title>
<path fill="none" stroke="midnightblue" d="M449.42,-112.23C446.12,-99.39 441.66,-74.96 449,-56 453.45,-44.5 462.37,-34.13 470.75,-26.25"/>
<polygon fill="midnightblue" stroke="midnightblue" points="473.24,-28.73 478.46,-19.51 468.63,-23.46 473.24,-28.73"/>
</g>
<!-- Node12&#45;&gt;Node39 -->
<g id="edge18" class="edge">
<title>Node12&#45;&gt;Node39</title>
<path fill="none" stroke="midnightblue" d="M473.87,-112.44C496.78,-103.48 532.98,-89.31 558.87,-79.18"/>
<polygon fill="midnightblue" stroke="midnightblue" points="560.2,-82.42 568.24,-75.52 557.65,-75.9 560.2,-82.42"/>
</g>
<!-- Node13&#45;&gt;Node8 -->
<g id="edge15" class="edge">
<title>Node13&#45;&gt;Node8</title>
<path fill="none" stroke="midnightblue" d="M279.4,-56.44C258.01,-47.56 224.32,-33.56 199.98,-23.45"/>
<polygon fill="midnightblue" stroke="midnightblue" points="201.08,-20.12 190.5,-19.52 198.39,-26.58 201.08,-20.12"/>
</g>
<!-- Node36&#45;&gt;Node38 -->
<g id="edge17" class="edge">
<title>Node36&#45;&gt;Node38</title>
<path fill="none" stroke="midnightblue" d="M490,-56.08C490,-49.01 490,-38.86 490,-29.99"/>
<polygon fill="midnightblue" stroke="midnightblue" points="493.5,-29.75 490,-19.75 486.5,-29.75 493.5,-29.75"/>
</g>
<!-- Node16&#45;&gt;Node8 -->
<g id="edge25" class="edge">
<title>Node16&#45;&gt;Node8</title>
<path fill="none" stroke="midnightblue" d="M193.66,-168.08C189.72,-141.95 178.16,-65.21 172.8,-29.58"/>
<polygon fill="midnightblue" stroke="midnightblue" points="176.24,-28.94 171.29,-19.57 169.32,-29.98 176.24,-28.94"/>
</g>
<!-- Node42&#45;&gt;Node5 -->
<g id="edge27" class="edge">
<title>Node42&#45;&gt;Node5</title>
<path fill="none" stroke="midnightblue" d="M190.63,-224.44C154.44,-214.58 95.18,-198.41 57.94,-188.26"/>
<polygon fill="midnightblue" stroke="midnightblue" points="58.63,-184.82 48.06,-185.56 56.79,-191.57 58.63,-184.82"/>
</g>
<!-- Node42&#45;&gt;Node9 -->
<g id="edge28" class="edge">
<title>Node42&#45;&gt;Node9</title>
<path fill="none" stroke="midnightblue" d="M258.44,-224.44C299.49,-214.81 366.1,-199.17 409.48,-188.98"/>
<polygon fill="midnightblue" stroke="midnightblue" points="410.51,-192.34 419.45,-186.64 408.91,-185.52 410.51,-192.34"/>
</g>
<!-- Node42&#45;&gt;Node16 -->
<g id="edge29" class="edge">
<title>Node42&#45;&gt;Node16</title>
<path fill="none" stroke="midnightblue" d="M217.54,-224.08C213.85,-216.69 208.48,-205.95 203.91,-196.81"/>
<polygon fill="midnightblue" stroke="midnightblue" points="206.98,-195.13 199.38,-187.75 200.72,-198.26 206.98,-195.13"/>
</g>
</g>
</svg>
