<?xml version="1.0" encoding="UTF-8" standalone="no"?>
<!DOCTYPE svg PUBLIC "-//W3C//DTD SVG 1.1//EN"
 "http://www.w3.org/Graphics/SVG/1.1/DTD/svg11.dtd">
<!-- Generated by graphviz version 2.43.0 (0)
 -->
<!-- Title: /home/runner/work/cbmc/cbmc/src/cpp/cpp_token_buffer.cpp Pages: 1 -->
<svg width="1313pt" height="834pt"
 viewBox="0.00 0.00 1313.00 834.00" xmlns="http://www.w3.org/2000/svg" xmlns:xlink="http://www.w3.org/1999/xlink">
<g id="graph0" class="graph" transform="scale(1 1) rotate(0) translate(4 830)">
<title>/home/runner/work/cbmc/cbmc/src/cpp/cpp_token_buffer.cpp</title>
<!-- Node1 -->
<g id="node1" class="node">
<title>Node1</title>
<g id="a_node1"><a xlink:title="C++ Parser: Token Buffer.">
<polygon fill="#bfbfbf" stroke="black" points="458,-784.5 458,-825.5 596,-825.5 596,-784.5 458,-784.5"/>
<text text-anchor="start" x="466" y="-813.5" font-family="Helvetica,sans-Serif" font-size="10.00">/home/runner/work/cbmc</text>
<text text-anchor="start" x="466" y="-802.5" font-family="Helvetica,sans-Serif" font-size="10.00">/cbmc/src/cpp/cpp_token</text>
<text text-anchor="middle" x="527" y="-791.5" font-family="Helvetica,sans-Serif" font-size="10.00">_buffer.cpp</text>
</a>
</g>
</g>
<!-- Node2 -->
<g id="node2" class="node">
<title>Node2</title>
<g id="a_node2"><a xlink:href="cpp__token__buffer_8h.html" target="_top" xlink:title="C++ Parser: Token Buffer.">
<polygon fill="none" stroke="black" points="309,-504.5 309,-523.5 417,-523.5 417,-504.5 309,-504.5"/>
<text text-anchor="middle" x="363" y="-511.5" font-family="Helvetica,sans-Serif" font-size="10.00">cpp_token_buffer.h</text>
</a>
</g>
</g>
<!-- Node1&#45;&gt;Node2 -->
<g id="edge1" class="edge">
<title>Node1&#45;&gt;Node2</title>
<path fill="none" stroke="midnightblue" d="M475.7,-784.4C435.38,-765.27 386,-731.87 386,-683 386,-683 386,-683 386,-625 386,-592.12 376.03,-554.86 369.22,-533.24"/>
<polygon fill="midnightblue" stroke="midnightblue" points="372.54,-532.12 366.1,-523.71 365.89,-534.3 372.54,-532.12"/>
</g>
<!-- Node39 -->
<g id="node24" class="node">
<title>Node39</title>
<g id="a_node24"><a xlink:href="ansi__c__parser_8h.html" target="_top" xlink:title=" ">
<polygon fill="none" stroke="black" points="688,-728.5 688,-747.5 812,-747.5 812,-728.5 688,-728.5"/>
<text text-anchor="middle" x="750" y="-735.5" font-family="Helvetica,sans-Serif" font-size="10.00">ansi&#45;c/ansi_c_parser.h</text>
</a>
</g>
</g>
<!-- Node1&#45;&gt;Node39 -->
<g id="edge34" class="edge">
<title>Node1&#45;&gt;Node39</title>
<path fill="none" stroke="midnightblue" d="M593.91,-784.5C631.99,-773.4 678.39,-759.87 710.66,-750.47"/>
<polygon fill="midnightblue" stroke="midnightblue" points="711.99,-753.73 720.61,-747.57 710.03,-747.01 711.99,-753.73"/>
</g>
<!-- Node3 -->
<g id="node3" class="node">
<title>Node3</title>
<g id="a_node3"><a xlink:href="cpp__token_8h.html" target="_top" xlink:title="C++ Parser: Token.">
<polygon fill="none" stroke="black" points="289.5,-448.5 289.5,-467.5 364.5,-467.5 364.5,-448.5 289.5,-448.5"/>
<text text-anchor="middle" x="327" y="-455.5" font-family="Helvetica,sans-Serif" font-size="10.00">cpp_token.h</text>
</a>
</g>
</g>
<!-- Node2&#45;&gt;Node3 -->
<g id="edge2" class="edge">
<title>Node2&#45;&gt;Node3</title>
<path fill="none" stroke="midnightblue" d="M357.06,-504.08C352.02,-496.53 344.66,-485.49 338.49,-476.23"/>
<polygon fill="midnightblue" stroke="midnightblue" points="341.29,-474.13 332.83,-467.75 335.47,-478.01 341.29,-474.13"/>
</g>
<!-- Node13 -->
<g id="node13" class="node">
<title>Node13</title>
<g id="a_node13"><a xlink:href="src_2util_2invariant_8h.html" target="_top" xlink:title=" ">
<polygon fill="none" stroke="red" points="493.5,-56.5 493.5,-75.5 562.5,-75.5 562.5,-56.5 493.5,-56.5"/>
<text text-anchor="middle" x="528" y="-63.5" font-family="Helvetica,sans-Serif" font-size="10.00">invariant.h</text>
</a>
</g>
</g>
<!-- Node2&#45;&gt;Node13 -->
<g id="edge33" class="edge">
<title>Node2&#45;&gt;Node13</title>
<path fill="none" stroke="midnightblue" d="M308.66,-507.92C207.39,-496.95 0,-466.71 0,-403 0,-403 0,-403 0,-345 0,-127.35 355.62,-79.7 483.15,-69.62"/>
<polygon fill="midnightblue" stroke="midnightblue" points="483.65,-73.09 493.36,-68.85 483.12,-66.11 483.65,-73.09"/>
</g>
<!-- Node23 -->
<g id="node23" class="node">
<title>Node23</title>
<g id="a_node23"><a xlink:title=" ">
<polygon fill="none" stroke="#bfbfbf" points="383,-448.5 383,-467.5 415,-467.5 415,-448.5 383,-448.5"/>
<text text-anchor="middle" x="399" y="-455.5" font-family="Helvetica,sans-Serif" font-size="10.00">list</text>
</a>
</g>
</g>
<!-- Node2&#45;&gt;Node23 -->
<g id="edge32" class="edge">
<title>Node2&#45;&gt;Node23</title>
<path fill="none" stroke="midnightblue" d="M368.94,-504.08C373.98,-496.53 381.34,-485.49 387.51,-476.23"/>
<polygon fill="midnightblue" stroke="midnightblue" points="390.53,-478.01 393.17,-467.75 384.71,-474.13 390.53,-478.01"/>
</g>
<!-- Node4 -->
<g id="node4" class="node">
<title>Node4</title>
<g id="a_node4"><a xlink:title=" ">
<polygon fill="none" stroke="#bfbfbf" points="28,-392.5 28,-411.5 92,-411.5 92,-392.5 28,-392.5"/>
<text text-anchor="middle" x="60" y="-399.5" font-family="Helvetica,sans-Serif" font-size="10.00">algorithm</text>
</a>
</g>
</g>
<!-- Node3&#45;&gt;Node4 -->
<g id="edge3" class="edge">
<title>Node3&#45;&gt;Node4</title>
<path fill="none" stroke="midnightblue" d="M289.31,-449.38C239.96,-439.4 153.67,-421.95 102.19,-411.53"/>
<polygon fill="midnightblue" stroke="midnightblue" points="102.56,-408.04 92.06,-409.48 101.17,-414.9 102.56,-408.04"/>
</g>
<!-- Node5 -->
<g id="node5" class="node">
<title>Node5</title>
<g id="a_node5"><a xlink:href="expr_8h.html" target="_top" xlink:title=" ">
<polygon fill="none" stroke="black" points="367.5,-392.5 367.5,-411.5 432.5,-411.5 432.5,-392.5 367.5,-392.5"/>
<text text-anchor="middle" x="400" y="-399.5" font-family="Helvetica,sans-Serif" font-size="10.00">util/expr.h</text>
</a>
</g>
</g>
<!-- Node3&#45;&gt;Node5 -->
<g id="edge4" class="edge">
<title>Node3&#45;&gt;Node5</title>
<path fill="none" stroke="midnightblue" d="M338.73,-448.32C349.84,-440.11 366.74,-427.6 379.98,-417.81"/>
<polygon fill="midnightblue" stroke="midnightblue" points="382.1,-420.59 388.06,-411.83 377.94,-414.97 382.1,-420.59"/>
</g>
<!-- Node6 -->
<g id="node6" class="node">
<title>Node6</title>
<g id="a_node6"><a xlink:href="as__const_8h.html" target="_top" xlink:title=" ">
<polygon fill="none" stroke="black" points="328,-336.5 328,-355.5 396,-355.5 396,-336.5 328,-336.5"/>
<text text-anchor="middle" x="362" y="-343.5" font-family="Helvetica,sans-Serif" font-size="10.00">as_const.h</text>
</a>
</g>
</g>
<!-- Node5&#45;&gt;Node6 -->
<g id="edge5" class="edge">
<title>Node5&#45;&gt;Node6</title>
<path fill="none" stroke="midnightblue" d="M393.73,-392.08C388.36,-384.46 380.48,-373.26 373.92,-363.94"/>
<polygon fill="midnightblue" stroke="midnightblue" points="376.78,-361.91 368.16,-355.75 371.05,-365.94 376.78,-361.91"/>
</g>
<!-- Node7 -->
<g id="node7" class="node">
<title>Node7</title>
<g id="a_node7"><a xlink:href="type_8h.html" target="_top" xlink:title="Defines typet, type_with_subtypet and type_with_subtypest.">
<polygon fill="none" stroke="black" points="414.5,-336.5 414.5,-355.5 461.5,-355.5 461.5,-336.5 414.5,-336.5"/>
<text text-anchor="middle" x="438" y="-343.5" font-family="Helvetica,sans-Serif" font-size="10.00">type.h</text>
</a>
</g>
</g>
<!-- Node5&#45;&gt;Node7 -->
<g id="edge6" class="edge">
<title>Node5&#45;&gt;Node7</title>
<path fill="none" stroke="midnightblue" d="M406.27,-392.08C411.64,-384.46 419.52,-373.26 426.08,-363.94"/>
<polygon fill="midnightblue" stroke="midnightblue" points="428.95,-365.94 431.84,-355.75 423.22,-361.91 428.95,-365.94"/>
</g>
<!-- Node35 -->
<g id="node19" class="node">
<title>Node35</title>
<g id="a_node19"><a xlink:href="validation__mode_8h.html" target="_top" xlink:title=" ">
<polygon fill="none" stroke="black" points="142.5,-224.5 142.5,-243.5 249.5,-243.5 249.5,-224.5 142.5,-224.5"/>
<text text-anchor="middle" x="196" y="-231.5" font-family="Helvetica,sans-Serif" font-size="10.00">validation_mode.h</text>
</a>
</g>
</g>
<!-- Node5&#45;&gt;Node35 -->
<g id="edge30" class="edge">
<title>Node5&#45;&gt;Node35</title>
<path fill="none" stroke="midnightblue" d="M367.42,-399.66C308.78,-396.51 189.12,-386.43 163,-356 140.99,-330.36 150.03,-311.96 161,-280 164.72,-269.16 172.23,-258.92 179.35,-250.96"/>
<polygon fill="midnightblue" stroke="midnightblue" points="182.05,-253.19 186.44,-243.55 177,-248.35 182.05,-253.19"/>
</g>
<!-- Node36 -->
<g id="node20" class="node">
<title>Node36</title>
<g id="a_node20"><a xlink:href="validate__types_8h.html" target="_top" xlink:title=" ">
<polygon fill="none" stroke="black" points="170,-280.5 170,-299.5 268,-299.5 268,-280.5 170,-280.5"/>
<text text-anchor="middle" x="219" y="-287.5" font-family="Helvetica,sans-Serif" font-size="10.00">validate_types.h</text>
</a>
</g>
</g>
<!-- Node5&#45;&gt;Node36 -->
<g id="edge29" class="edge">
<title>Node5&#45;&gt;Node36</title>
<path fill="none" stroke="midnightblue" d="M367.2,-399.47C310.14,-396.06 196.34,-385.61 172,-356 158.32,-339.36 178.33,-319.1 196.32,-305.66"/>
<polygon fill="midnightblue" stroke="midnightblue" points="198.67,-308.29 204.82,-299.66 194.63,-302.57 198.67,-308.29"/>
</g>
<!-- Node37 -->
<g id="node21" class="node">
<title>Node37</title>
<g id="a_node21"><a xlink:href="validate__expressions_8h.html" target="_top" xlink:title=" ">
<polygon fill="none" stroke="black" points="180.5,-336.5 180.5,-355.5 309.5,-355.5 309.5,-336.5 180.5,-336.5"/>
<text text-anchor="middle" x="245" y="-343.5" font-family="Helvetica,sans-Serif" font-size="10.00">validate_expressions.h</text>
</a>
</g>
</g>
<!-- Node5&#45;&gt;Node37 -->
<g id="edge28" class="edge">
<title>Node5&#45;&gt;Node37</title>
<path fill="none" stroke="midnightblue" d="M375.44,-392.44C349.48,-383.4 308.33,-369.06 279.2,-358.92"/>
<polygon fill="midnightblue" stroke="midnightblue" points="280.04,-355.5 269.45,-355.52 277.74,-362.11 280.04,-355.5"/>
</g>
<!-- Node38 -->
<g id="node22" class="node">
<title>Node38</title>
<g id="a_node22"><a xlink:title=" ">
<polygon fill="none" stroke="#bfbfbf" points="479.5,-336.5 479.5,-355.5 544.5,-355.5 544.5,-336.5 479.5,-336.5"/>
<text text-anchor="middle" x="512" y="-343.5" font-family="Helvetica,sans-Serif" font-size="10.00">functional</text>
</a>
</g>
</g>
<!-- Node5&#45;&gt;Node38 -->
<g id="edge31" class="edge">
<title>Node5&#45;&gt;Node38</title>
<path fill="none" stroke="midnightblue" d="M417.99,-392.32C436.04,-383.62 464.05,-370.12 484.8,-360.11"/>
<polygon fill="midnightblue" stroke="midnightblue" points="486.56,-363.15 494.05,-355.65 483.52,-356.84 486.56,-363.15"/>
</g>
<!-- Node8 -->
<g id="node8" class="node">
<title>Node8</title>
<g id="a_node8"><a xlink:href="source__location_8h.html" target="_top" xlink:title=" ">
<polygon fill="none" stroke="black" points="731,-168.5 731,-187.5 833,-187.5 833,-168.5 731,-168.5"/>
<text text-anchor="middle" x="782" y="-175.5" font-family="Helvetica,sans-Serif" font-size="10.00">source_location.h</text>
</a>
</g>
</g>
<!-- Node7&#45;&gt;Node8 -->
<g id="edge7" class="edge">
<title>Node7&#45;&gt;Node8</title>
<path fill="none" stroke="midnightblue" d="M456.01,-336.31C512.67,-308.97 687.5,-224.6 755.01,-192.02"/>
<polygon fill="midnightblue" stroke="midnightblue" points="756.68,-195.1 764.17,-187.61 753.64,-188.8 756.68,-195.1"/>
</g>
<!-- Node33 -->
<g id="node17" class="node">
<title>Node33</title>
<g id="a_node17"><a xlink:href="validate_8h.html" target="_top" xlink:title=" ">
<polygon fill="none" stroke="black" points="405.5,-280.5 405.5,-299.5 470.5,-299.5 470.5,-280.5 405.5,-280.5"/>
<text text-anchor="middle" x="438" y="-287.5" font-family="Helvetica,sans-Serif" font-size="10.00">validate.h</text>
</a>
</g>
</g>
<!-- Node7&#45;&gt;Node33 -->
<g id="edge19" class="edge">
<title>Node7&#45;&gt;Node33</title>
<path fill="none" stroke="midnightblue" d="M438,-336.08C438,-329.01 438,-318.86 438,-309.99"/>
<polygon fill="midnightblue" stroke="midnightblue" points="441.5,-309.75 438,-299.75 434.5,-309.75 441.5,-309.75"/>
</g>
<!-- Node7&#45;&gt;Node35 -->
<g id="edge27" class="edge">
<title>Node7&#45;&gt;Node35</title>
<path fill="none" stroke="midnightblue" d="M419.01,-336.37C376.6,-317.09 274,-270.45 224.14,-247.79"/>
<polygon fill="midnightblue" stroke="midnightblue" points="225.45,-244.54 214.9,-243.59 222.56,-250.92 225.45,-244.54"/>
</g>
<!-- Node7&#45;&gt;Node36 -->
<g id="edge26" class="edge">
<title>Node7&#45;&gt;Node36</title>
<path fill="none" stroke="midnightblue" d="M414.23,-338.43C411.13,-337.6 407.99,-336.77 405,-336 357.8,-323.86 303.61,-310.85 265.95,-301.96"/>
<polygon fill="midnightblue" stroke="midnightblue" points="266.32,-298.45 255.78,-299.57 264.71,-305.27 266.32,-298.45"/>
</g>
<!-- Node9 -->
<g id="node9" class="node">
<title>Node9</title>
<g id="a_node9"><a xlink:href="deprecate_8h.html" target="_top" xlink:title=" ">
<polygon fill="none" stroke="black" points="778,-56.5 778,-75.5 852,-75.5 852,-56.5 778,-56.5"/>
<text text-anchor="middle" x="815" y="-63.5" font-family="Helvetica,sans-Serif" font-size="10.00">deprecate.h</text>
</a>
</g>
</g>
<!-- Node8&#45;&gt;Node9 -->
<g id="edge8" class="edge">
<title>Node8&#45;&gt;Node9</title>
<path fill="none" stroke="midnightblue" d="M784.53,-168.15C788.13,-155.63 794.96,-132.04 801,-112 803.66,-103.18 806.69,-93.41 809.25,-85.23"/>
<polygon fill="midnightblue" stroke="midnightblue" points="812.61,-86.2 812.27,-75.61 805.94,-84.1 812.61,-86.2"/>
</g>
<!-- Node10 -->
<g id="node10" class="node">
<title>Node10</title>
<g id="a_node10"><a xlink:href="irep_8h.html" target="_top" xlink:title=" ">
<polygon fill="none" stroke="red" points="1049,-112.5 1049,-131.5 1093,-131.5 1093,-112.5 1049,-112.5"/>
<text text-anchor="middle" x="1071" y="-119.5" font-family="Helvetica,sans-Serif" font-size="10.00">irep.h</text>
</a>
</g>
</g>
<!-- Node8&#45;&gt;Node10 -->
<g id="edge9" class="edge">
<title>Node8&#45;&gt;Node10</title>
<path fill="none" stroke="midnightblue" d="M827.79,-168.44C886.76,-157.43 987.73,-138.56 1039.04,-128.97"/>
<polygon fill="midnightblue" stroke="midnightblue" points="1039.72,-132.4 1048.91,-127.13 1038.44,-125.52 1039.72,-132.4"/>
</g>
<!-- Node11 -->
<g id="node11" class="node">
<title>Node11</title>
<g id="a_node11"><a xlink:title=" ">
<polygon fill="none" stroke="#bfbfbf" points="698,-0.5 698,-19.5 742,-19.5 742,-0.5 698,-0.5"/>
<text text-anchor="middle" x="720" y="-7.5" font-family="Helvetica,sans-Serif" font-size="10.00">string</text>
</a>
</g>
</g>
<!-- Node8&#45;&gt;Node11 -->
<g id="edge18" class="edge">
<title>Node8&#45;&gt;Node11</title>
<path fill="none" stroke="midnightblue" d="M778.67,-168.08C768.87,-141.83 740,-64.55 726.77,-29.12"/>
<polygon fill="midnightblue" stroke="midnightblue" points="729.98,-27.71 723.2,-19.57 723.42,-30.16 729.98,-27.71"/>
</g>
<!-- Node31 -->
<g id="node16" class="node">
<title>Node31</title>
<g id="a_node16"><a xlink:href="optional_8h.html" target="_top" xlink:title=" ">
<polygon fill="none" stroke="red" points="843.5,-112.5 843.5,-131.5 908.5,-131.5 908.5,-112.5 843.5,-112.5"/>
<text text-anchor="middle" x="876" y="-119.5" font-family="Helvetica,sans-Serif" font-size="10.00">optional.h</text>
</a>
</g>
</g>
<!-- Node8&#45;&gt;Node31 -->
<g id="edge16" class="edge">
<title>Node8&#45;&gt;Node31</title>
<path fill="none" stroke="midnightblue" d="M797.1,-168.32C811.9,-159.82 834.69,-146.73 851.98,-136.8"/>
<polygon fill="midnightblue" stroke="midnightblue" points="854.01,-139.67 860.93,-131.65 850.52,-133.6 854.01,-139.67"/>
</g>
<!-- Node10&#45;&gt;Node11 -->
<g id="edge10" class="edge">
<title>Node10&#45;&gt;Node11</title>
<path fill="none" stroke="midnightblue" d="M1072.42,-112.39C1074.19,-98.4 1075.32,-70.78 1060,-56 1016.6,-14.14 829.05,-10.35 752.61,-10.59"/>
<polygon fill="midnightblue" stroke="midnightblue" points="752.15,-7.09 742.17,-10.65 752.19,-14.09 752.15,-7.09"/>
</g>
<!-- Node12 -->
<g id="node12" class="node">
<title>Node12</title>
<g id="a_node12"><a xlink:title=" ">
<polygon fill="none" stroke="#bfbfbf" points="1003.5,-56.5 1003.5,-75.5 1050.5,-75.5 1050.5,-56.5 1003.5,-56.5"/>
<text text-anchor="middle" x="1027" y="-63.5" font-family="Helvetica,sans-Serif" font-size="10.00">vector</text>
</a>
</g>
</g>
<!-- Node10&#45;&gt;Node12 -->
<g id="edge11" class="edge">
<title>Node10&#45;&gt;Node12</title>
<path fill="none" stroke="midnightblue" d="M1063.73,-112.08C1057.46,-104.38 1048.21,-93.03 1040.57,-83.65"/>
<polygon fill="midnightblue" stroke="midnightblue" points="1043.16,-81.29 1034.13,-75.75 1037.73,-85.71 1043.16,-81.29"/>
</g>
<!-- Node10&#45;&gt;Node13 -->
<g id="edge12" class="edge">
<title>Node10&#45;&gt;Node13</title>
<path fill="none" stroke="midnightblue" d="M1048.7,-118.78C967.12,-110.67 683.85,-82.5 572.98,-71.47"/>
<polygon fill="midnightblue" stroke="midnightblue" points="573.1,-67.97 562.8,-70.46 572.41,-74.93 573.1,-67.97"/>
</g>
<!-- Node13&#45;&gt;Node11 -->
<g id="edge14" class="edge">
<title>Node13&#45;&gt;Node11</title>
<path fill="none" stroke="midnightblue" d="M558.42,-56.44C593.74,-46.51 651.75,-30.2 687.81,-20.05"/>
<polygon fill="midnightblue" stroke="midnightblue" points="689.12,-23.32 697.8,-17.24 687.23,-16.58 689.12,-23.32"/>
</g>
<!-- Node15 -->
<g id="node14" class="node">
<title>Node15</title>
<g id="a_node14"><a xlink:title=" ">
<polygon fill="none" stroke="#bfbfbf" points="552,-0.5 552,-19.5 608,-19.5 608,-0.5 552,-0.5"/>
<text text-anchor="middle" x="580" y="-7.5" font-family="Helvetica,sans-Serif" font-size="10.00">sstream</text>
</a>
</g>
</g>
<!-- Node13&#45;&gt;Node15 -->
<g id="edge13" class="edge">
<title>Node13&#45;&gt;Node15</title>
<path fill="none" stroke="midnightblue" d="M536.59,-56.08C544.16,-48.22 555.38,-36.57 564.51,-27.08"/>
<polygon fill="midnightblue" stroke="midnightblue" points="567.16,-29.38 571.57,-19.75 562.12,-24.53 567.16,-29.38"/>
</g>
<!-- Node16 -->
<g id="node15" class="node">
<title>Node16</title>
<g id="a_node15"><a xlink:title=" ">
<polygon fill="none" stroke="#bfbfbf" points="41.5,-0.5 41.5,-19.5 110.5,-19.5 110.5,-0.5 41.5,-0.5"/>
<text text-anchor="middle" x="76" y="-7.5" font-family="Helvetica,sans-Serif" font-size="10.00">type_traits</text>
</a>
</g>
</g>
<!-- Node13&#45;&gt;Node16 -->
<g id="edge15" class="edge">
<title>Node13&#45;&gt;Node16</title>
<path fill="none" stroke="midnightblue" d="M493.28,-60.85C412.25,-51.17 210.71,-27.09 120.68,-16.34"/>
<polygon fill="midnightblue" stroke="midnightblue" points="120.87,-12.84 110.53,-15.12 120.04,-19.79 120.87,-12.84"/>
</g>
<!-- Node31&#45;&gt;Node9 -->
<g id="edge17" class="edge">
<title>Node31&#45;&gt;Node9</title>
<path fill="none" stroke="midnightblue" d="M866.2,-112.32C857.18,-104.34 843.59,-92.31 832.68,-82.65"/>
<polygon fill="midnightblue" stroke="midnightblue" points="834.79,-79.84 824.98,-75.83 830.15,-85.08 834.79,-79.84"/>
</g>
<!-- Node33&#45;&gt;Node16 -->
<g id="edge20" class="edge">
<title>Node33&#45;&gt;Node16</title>
<path fill="none" stroke="midnightblue" d="M426.77,-280.38C375.25,-240.81 161.24,-76.46 95.38,-25.88"/>
<polygon fill="midnightblue" stroke="midnightblue" points="97.16,-22.84 87.1,-19.52 92.9,-28.39 97.16,-22.84"/>
</g>
<!-- Node34 -->
<g id="node18" class="node">
<title>Node34</title>
<g id="a_node18"><a xlink:href="exception__utils_8h.html" target="_top" xlink:title=" ">
<polygon fill="none" stroke="black" points="390,-224.5 390,-243.5 490,-243.5 490,-224.5 390,-224.5"/>
<text text-anchor="middle" x="440" y="-231.5" font-family="Helvetica,sans-Serif" font-size="10.00">exception_utils.h</text>
</a>
</g>
</g>
<!-- Node33&#45;&gt;Node34 -->
<g id="edge21" class="edge">
<title>Node33&#45;&gt;Node34</title>
<path fill="none" stroke="midnightblue" d="M438.33,-280.08C438.59,-273.01 438.97,-262.86 439.3,-253.99"/>
<polygon fill="midnightblue" stroke="midnightblue" points="442.8,-253.87 439.68,-243.75 435.81,-253.61 442.8,-253.87"/>
</g>
<!-- Node33&#45;&gt;Node35 -->
<g id="edge25" class="edge">
<title>Node33&#45;&gt;Node35</title>
<path fill="none" stroke="midnightblue" d="M405.36,-281.72C363.93,-272.47 292.1,-256.44 244.31,-245.78"/>
<polygon fill="midnightblue" stroke="midnightblue" points="245.02,-242.35 234.5,-243.59 243.49,-249.18 245.02,-242.35"/>
</g>
<!-- Node34&#45;&gt;Node8 -->
<g id="edge24" class="edge">
<title>Node34&#45;&gt;Node8</title>
<path fill="none" stroke="midnightblue" d="M490.1,-225.09C551.3,-215.43 654.8,-199.08 720.69,-188.68"/>
<polygon fill="midnightblue" stroke="midnightblue" points="721.6,-192.08 730.93,-187.06 720.51,-185.17 721.6,-192.08"/>
</g>
<!-- Node34&#45;&gt;Node11 -->
<g id="edge22" class="edge">
<title>Node34&#45;&gt;Node11</title>
<path fill="none" stroke="midnightblue" d="M439.24,-224.39C437.21,-195.65 434.89,-102.22 485,-56 514.12,-29.15 630.27,-17.33 687.62,-13.05"/>
<polygon fill="midnightblue" stroke="midnightblue" points="688.21,-16.51 697.94,-12.31 687.71,-9.53 688.21,-16.51"/>
</g>
<!-- Node34&#45;&gt;Node13 -->
<g id="edge23" class="edge">
<title>Node34&#45;&gt;Node13</title>
<path fill="none" stroke="midnightblue" d="M443.17,-224.49C450.82,-204.31 471.45,-152.22 495,-112 500.75,-102.18 508.18,-91.89 514.52,-83.64"/>
<polygon fill="midnightblue" stroke="midnightblue" points="517.42,-85.62 520.86,-75.59 511.92,-81.28 517.42,-85.62"/>
</g>
<!-- Node40 -->
<g id="node25" class="node">
<title>Node40</title>
<g id="a_node25"><a xlink:title=" ">
<polygon fill="none" stroke="#bfbfbf" points="755,-672.5 755,-691.5 793,-691.5 793,-672.5 755,-672.5"/>
<text text-anchor="middle" x="774" y="-679.5" font-family="Helvetica,sans-Serif" font-size="10.00">map</text>
</a>
</g>
</g>
<!-- Node39&#45;&gt;Node40 -->
<g id="edge35" class="edge">
<title>Node39&#45;&gt;Node40</title>
<path fill="none" stroke="midnightblue" d="M753.96,-728.08C757.21,-720.77 761.92,-710.18 765.95,-701.1"/>
<polygon fill="midnightblue" stroke="midnightblue" points="769.25,-702.31 770.11,-691.75 762.85,-699.47 769.25,-702.31"/>
</g>
<!-- Node41 -->
<g id="node26" class="node">
<title>Node41</title>
<g id="a_node26"><a xlink:href="parser_8h.html" target="_top" xlink:title="Parser utilities.">
<polygon fill="none" stroke="black" points="690,-448.5 690,-467.5 764,-467.5 764,-448.5 690,-448.5"/>
<text text-anchor="middle" x="727" y="-455.5" font-family="Helvetica,sans-Serif" font-size="10.00">util/parser.h</text>
</a>
</g>
</g>
<!-- Node39&#45;&gt;Node41 -->
<g id="edge36" class="edge">
<title>Node39&#45;&gt;Node41</title>
<path fill="none" stroke="midnightblue" d="M746.9,-728.29C740.62,-709.86 727,-665.44 727,-627 727,-627 727,-627 727,-569 727,-536.95 727,-499.64 727,-477.75"/>
<polygon fill="midnightblue" stroke="midnightblue" points="730.5,-477.56 727,-467.56 723.5,-477.56 730.5,-477.56"/>
</g>
<!-- Node44 -->
<g id="node30" class="node">
<title>Node44</title>
<g id="a_node30"><a xlink:href="config_8h.html" target="_top" xlink:title=" ">
<polygon fill="none" stroke="black" points="922,-504.5 922,-523.5 996,-523.5 996,-504.5 922,-504.5"/>
<text text-anchor="middle" x="959" y="-511.5" font-family="Helvetica,sans-Serif" font-size="10.00">util/config.h</text>
</a>
</g>
</g>
<!-- Node39&#45;&gt;Node44 -->
<g id="edge51" class="edge">
<title>Node39&#45;&gt;Node44</title>
<path fill="none" stroke="midnightblue" d="M760.72,-728.43C771.5,-719.65 788.41,-705.42 802,-692 858.36,-636.33 918.91,-564.08 945.35,-531.83"/>
<polygon fill="midnightblue" stroke="midnightblue" points="948.26,-533.8 951.87,-523.84 942.83,-529.37 948.26,-533.8"/>
</g>
<!-- Node49 -->
<g id="node35" class="node">
<title>Node49</title>
<g id="a_node35"><a xlink:href="ansi__c__parse__tree_8h.html" target="_top" xlink:title=" ">
<polygon fill="none" stroke="black" points="522.5,-672.5 522.5,-691.5 635.5,-691.5 635.5,-672.5 522.5,-672.5"/>
<text text-anchor="middle" x="579" y="-679.5" font-family="Helvetica,sans-Serif" font-size="10.00">ansi_c_parse_tree.h</text>
</a>
</g>
</g>
<!-- Node39&#45;&gt;Node49 -->
<g id="edge62" class="edge">
<title>Node39&#45;&gt;Node49</title>
<path fill="none" stroke="midnightblue" d="M722.9,-728.44C694.01,-719.32 648.08,-704.81 615.89,-694.65"/>
<polygon fill="midnightblue" stroke="midnightblue" points="616.56,-691.19 605.97,-691.52 614.45,-697.87 616.56,-691.19"/>
</g>
<!-- Node55 -->
<g id="node42" class="node">
<title>Node55</title>
<g id="a_node42"><a xlink:href="ansi__c__scope_8h.html" target="_top" xlink:title=" ">
<polygon fill="none" stroke="black" points="1014,-504.5 1014,-523.5 1104,-523.5 1104,-504.5 1014,-504.5"/>
<text text-anchor="middle" x="1059" y="-511.5" font-family="Helvetica,sans-Serif" font-size="10.00">ansi_c_scope.h</text>
</a>
</g>
</g>
<!-- Node39&#45;&gt;Node55 -->
<g id="edge80" class="edge">
<title>Node39&#45;&gt;Node55</title>
<path fill="none" stroke="midnightblue" d="M765.01,-728.46C780.16,-719.71 804.09,-705.5 824,-692 907.31,-635.5 1001.64,-561.08 1040.63,-529.83"/>
<polygon fill="midnightblue" stroke="midnightblue" points="1042.9,-532.49 1048.5,-523.5 1038.51,-527.04 1042.9,-532.49"/>
</g>
<!-- Node41&#45;&gt;Node5 -->
<g id="edge40" class="edge">
<title>Node41&#45;&gt;Node5</title>
<path fill="none" stroke="midnightblue" d="M689.81,-450.86C628.76,-440.78 507.64,-420.78 443,-410.1"/>
<polygon fill="midnightblue" stroke="midnightblue" points="443.19,-406.58 432.75,-408.41 442.05,-413.49 443.19,-406.58"/>
</g>
<!-- Node41&#45;&gt;Node11 -->
<g id="edge38" class="edge">
<title>Node41&#45;&gt;Node11</title>
<path fill="none" stroke="midnightblue" d="M726.74,-448.44C726.2,-429.94 725,-384.82 725,-347 725,-347 725,-347 725,-289 725,-244.09 722.92,-232.9 722,-188 720.82,-130.54 720.3,-62.56 720.1,-30.11"/>
<polygon fill="midnightblue" stroke="midnightblue" points="723.6,-29.82 720.04,-19.84 716.6,-29.86 723.6,-29.82"/>
</g>
<!-- Node41&#45;&gt;Node12 -->
<g id="edge39" class="edge">
<title>Node41&#45;&gt;Node12</title>
<path fill="none" stroke="midnightblue" d="M764.14,-448.66C802.75,-439.52 860.13,-424.51 879,-412 995.11,-335.02 1020.5,-146.07 1025.72,-85.8"/>
<polygon fill="midnightblue" stroke="midnightblue" points="1029.24,-85.77 1026.52,-75.53 1022.26,-85.23 1029.24,-85.77"/>
</g>
<!-- Node19 -->
<g id="node27" class="node">
<title>Node19</title>
<g id="a_node27"><a xlink:title=" ">
<polygon fill="none" stroke="#bfbfbf" points="1003,-336.5 1003,-355.5 1051,-355.5 1051,-336.5 1003,-336.5"/>
<text text-anchor="middle" x="1027" y="-343.5" font-family="Helvetica,sans-Serif" font-size="10.00">iosfwd</text>
</a>
</g>
</g>
<!-- Node41&#45;&gt;Node19 -->
<g id="edge37" class="edge">
<title>Node41&#45;&gt;Node19</title>
<path fill="none" stroke="midnightblue" d="M764.09,-453.72C807.21,-448.87 879.76,-437.44 937,-412 965.15,-399.49 993.24,-377.26 1010.36,-362.33"/>
<polygon fill="midnightblue" stroke="midnightblue" points="1012.71,-364.92 1017.84,-355.66 1008.05,-359.7 1012.71,-364.92"/>
</g>
<!-- Node42 -->
<g id="node28" class="node">
<title>Node42</title>
<g id="a_node28"><a xlink:href="src_2util_2message_8h.html" target="_top" xlink:title=" ">
<polygon fill="none" stroke="black" points="800,-392.5 800,-411.5 870,-411.5 870,-392.5 800,-392.5"/>
<text text-anchor="middle" x="835" y="-399.5" font-family="Helvetica,sans-Serif" font-size="10.00">message.h</text>
</a>
</g>
</g>
<!-- Node41&#45;&gt;Node42 -->
<g id="edge41" class="edge">
<title>Node41&#45;&gt;Node42</title>
<path fill="none" stroke="midnightblue" d="M744.35,-448.32C761.67,-439.66 788.52,-426.24 808.5,-416.25"/>
<polygon fill="midnightblue" stroke="midnightblue" points="810.31,-419.26 817.69,-411.65 807.18,-413 810.31,-419.26"/>
</g>
<!-- Node43 -->
<g id="node29" class="node">
<title>Node43</title>
<g id="a_node29"><a xlink:href="file__util_8h.html" target="_top" xlink:title=" ">
<polygon fill="none" stroke="black" points="613,-168.5 613,-187.5 675,-187.5 675,-168.5 613,-168.5"/>
<text text-anchor="middle" x="644" y="-175.5" font-family="Helvetica,sans-Serif" font-size="10.00">file_util.h</text>
</a>
</g>
</g>
<!-- Node41&#45;&gt;Node43 -->
<g id="edge49" class="edge">
<title>Node41&#45;&gt;Node43</title>
<path fill="none" stroke="midnightblue" d="M723.77,-448.43C720.42,-439.41 715.11,-424.79 711,-412 685.52,-332.68 659.39,-236.73 648.85,-197.29"/>
<polygon fill="midnightblue" stroke="midnightblue" points="652.2,-196.28 646.25,-187.52 645.44,-198.08 652.2,-196.28"/>
</g>
<!-- Node42&#45;&gt;Node8 -->
<g id="edge48" class="edge">
<title>Node42&#45;&gt;Node8</title>
<path fill="none" stroke="midnightblue" d="M832.92,-392.3C825.11,-359.56 797.37,-243.38 786.46,-197.67"/>
<polygon fill="midnightblue" stroke="midnightblue" points="789.85,-196.8 784.12,-187.88 783.04,-198.42 789.85,-196.8"/>
</g>
<!-- Node42&#45;&gt;Node9 -->
<g id="edge46" class="edge">
<title>Node42&#45;&gt;Node9</title>
<path fill="none" stroke="midnightblue" d="M838.51,-392.32C845.6,-373.96 861,-329.66 861,-291 861,-291 861,-291 861,-233 861,-218.07 833.01,-125.43 820.7,-85.39"/>
<polygon fill="midnightblue" stroke="midnightblue" points="824.03,-84.33 817.74,-75.81 817.34,-86.4 824.03,-84.33"/>
</g>
<!-- Node42&#45;&gt;Node11 -->
<g id="edge45" class="edge">
<title>Node42&#45;&gt;Node11</title>
<path fill="none" stroke="midnightblue" d="M844.44,-392.31C862.25,-374.93 899,-333.86 899,-291 899,-291 899,-291 899,-233 899,-178.56 939.05,-162.2 918,-112 890.61,-46.69 800.72,-23.11 752.03,-15"/>
<polygon fill="midnightblue" stroke="midnightblue" points="752.44,-11.52 742.02,-13.45 751.37,-18.44 752.44,-11.52"/>
</g>
<!-- Node42&#45;&gt;Node13 -->
<g id="edge47" class="edge">
<title>Node42&#45;&gt;Node13</title>
<path fill="none" stroke="midnightblue" d="M823.24,-392.32C787.12,-365.22 675.85,-278.62 604,-188 579.89,-157.59 582.07,-144.59 561,-112 554.82,-102.44 547.36,-92.18 541.1,-83.87"/>
<polygon fill="midnightblue" stroke="midnightblue" points="543.75,-81.57 534.89,-75.75 538.18,-85.82 543.75,-81.57"/>
</g>
<!-- Node42&#45;&gt;Node15 -->
<g id="edge44" class="edge">
<title>Node42&#45;&gt;Node15</title>
<path fill="none" stroke="midnightblue" d="M852.3,-392.45C881.4,-376.72 937,-340.22 937,-291 937,-291 937,-291 937,-121 937,-76.55 901.34,-74.66 861,-56 818.43,-36.31 684.47,-21.08 618.07,-14.52"/>
<polygon fill="midnightblue" stroke="midnightblue" points="618.31,-11.03 608.02,-13.54 617.63,-17.99 618.31,-11.03"/>
</g>
<!-- Node42&#45;&gt;Node38 -->
<g id="edge42" class="edge">
<title>Node42&#45;&gt;Node38</title>
<path fill="none" stroke="midnightblue" d="M799.82,-395.12C740.19,-385.15 619.48,-364.97 554.95,-354.18"/>
<polygon fill="midnightblue" stroke="midnightblue" points="555.16,-350.67 544.72,-352.47 554.01,-357.57 555.16,-350.67"/>
</g>
<!-- Node42&#45;&gt;Node19 -->
<g id="edge43" class="edge">
<title>Node42&#45;&gt;Node19</title>
<path fill="none" stroke="midnightblue" d="M865.42,-392.44C900.07,-382.7 956.54,-366.82 992.72,-356.64"/>
<polygon fill="midnightblue" stroke="midnightblue" points="994.12,-359.88 1002.8,-353.81 992.22,-353.14 994.12,-359.88"/>
</g>
<!-- Node43&#45;&gt;Node11 -->
<g id="edge50" class="edge">
<title>Node43&#45;&gt;Node11</title>
<path fill="none" stroke="midnightblue" d="M646.12,-168.43C651.33,-148.13 665.92,-95.8 687,-56 692.26,-46.07 699.53,-35.89 705.91,-27.74"/>
<polygon fill="midnightblue" stroke="midnightblue" points="708.77,-29.76 712.34,-19.79 703.33,-25.36 708.77,-29.76"/>
</g>
<!-- Node44&#45;&gt;Node10 -->
<g id="edge60" class="edge">
<title>Node44&#45;&gt;Node10</title>
<path fill="none" stroke="midnightblue" d="M996.08,-505.54C1031.55,-497.9 1086.26,-484.78 1132,-468 1194.52,-445.07 1267,-469.59 1267,-403 1267,-403 1267,-403 1267,-233 1267,-158.77 1158.76,-134.12 1103.16,-126.35"/>
<polygon fill="midnightblue" stroke="midnightblue" points="1103.47,-122.86 1093.1,-125.05 1102.57,-129.81 1103.47,-122.86"/>
</g>
<!-- Node44&#45;&gt;Node31 -->
<g id="edge61" class="edge">
<title>Node44&#45;&gt;Node31</title>
<path fill="none" stroke="midnightblue" d="M981.94,-504.4C1005.59,-495.48 1043.48,-481.05 1076,-468 1139.54,-442.51 1230.11,-457.45 1210,-392 1166.16,-249.3 986.11,-165.12 910.11,-135.33"/>
<polygon fill="midnightblue" stroke="midnightblue" points="911.11,-131.96 900.52,-131.64 908.6,-138.5 911.11,-131.96"/>
</g>
<!-- Node44&#45;&gt;Node23 -->
<g id="edge52" class="edge">
<title>Node44&#45;&gt;Node23</title>
<path fill="none" stroke="midnightblue" d="M921.96,-513.03C834.48,-512.43 608.63,-506.88 425,-468 424.9,-467.98 424.8,-467.96 424.69,-467.93"/>
<polygon fill="midnightblue" stroke="midnightblue" points="425.62,-464.56 415.05,-465.25 423.75,-471.3 425.62,-464.56"/>
</g>
<!-- Node45 -->
<g id="node31" class="node">
<title>Node45</title>
<g id="a_node31"><a xlink:href="ieee__float_8h.html" target="_top" xlink:title=" ">
<polygon fill="none" stroke="black" points="993,-448.5 993,-467.5 1067,-467.5 1067,-448.5 993,-448.5"/>
<text text-anchor="middle" x="1030" y="-455.5" font-family="Helvetica,sans-Serif" font-size="10.00">ieee_float.h</text>
</a>
</g>
</g>
<!-- Node44&#45;&gt;Node45 -->
<g id="edge53" class="edge">
<title>Node44&#45;&gt;Node45</title>
<path fill="none" stroke="midnightblue" d="M970.41,-504.32C981.11,-496.18 997.34,-483.84 1010.16,-474.09"/>
<polygon fill="midnightblue" stroke="midnightblue" points="1012.54,-476.67 1018.39,-467.83 1008.31,-471.1 1012.54,-476.67"/>
</g>
<!-- Node45&#45;&gt;Node19 -->
<g id="edge54" class="edge">
<title>Node45&#45;&gt;Node19</title>
<path fill="none" stroke="midnightblue" d="M1027.27,-448.49C1024.55,-439.52 1020.56,-424.94 1019,-412 1017.13,-396.46 1019.58,-378.83 1022.25,-365.86"/>
<polygon fill="midnightblue" stroke="midnightblue" points="1025.73,-366.36 1024.55,-355.83 1018.91,-364.8 1025.73,-366.36"/>
</g>
<!-- Node46 -->
<g id="node32" class="node">
<title>Node46</title>
<g id="a_node32"><a xlink:href="mp__arith_8h.html" target="_top" xlink:title=" ">
<polygon fill="none" stroke="black" points="1027.5,-392.5 1027.5,-411.5 1096.5,-411.5 1096.5,-392.5 1027.5,-392.5"/>
<text text-anchor="middle" x="1062" y="-399.5" font-family="Helvetica,sans-Serif" font-size="10.00">mp_arith.h</text>
</a>
</g>
</g>
<!-- Node45&#45;&gt;Node46 -->
<g id="edge55" class="edge">
<title>Node45&#45;&gt;Node46</title>
<path fill="none" stroke="midnightblue" d="M1035.28,-448.08C1039.71,-440.61 1046.16,-429.72 1051.62,-420.52"/>
<polygon fill="midnightblue" stroke="midnightblue" points="1054.73,-422.14 1056.81,-411.75 1048.71,-418.57 1054.73,-422.14"/>
</g>
<!-- Node48 -->
<g id="node34" class="node">
<title>Node48</title>
<g id="a_node34"><a xlink:href="format__spec_8h.html" target="_top" xlink:title=" ">
<polygon fill="none" stroke="black" points="1115,-392.5 1115,-411.5 1201,-411.5 1201,-392.5 1115,-392.5"/>
<text text-anchor="middle" x="1158" y="-399.5" font-family="Helvetica,sans-Serif" font-size="10.00">format_spec.h</text>
</a>
</g>
</g>
<!-- Node45&#45;&gt;Node48 -->
<g id="edge59" class="edge">
<title>Node45&#45;&gt;Node48</title>
<path fill="none" stroke="midnightblue" d="M1050.28,-448.44C1071.35,-439.56 1104.52,-425.56 1128.49,-415.45"/>
<polygon fill="midnightblue" stroke="midnightblue" points="1129.96,-418.63 1137.81,-411.52 1127.24,-412.18 1129.96,-418.63"/>
</g>
<!-- Node46&#45;&gt;Node11 -->
<g id="edge57" class="edge">
<title>Node46&#45;&gt;Node11</title>
<path fill="none" stroke="midnightblue" d="M1093.2,-392.46C1122.38,-383.77 1162.83,-369.66 1172,-356 1249.81,-240.1 1189.88,-140.8 1079,-56 1028.25,-17.19 831.46,-11.64 752.78,-11"/>
<polygon fill="midnightblue" stroke="midnightblue" points="752.51,-7.5 742.49,-10.94 752.46,-14.5 752.51,-7.5"/>
</g>
<!-- Node46&#45;&gt;Node19 -->
<g id="edge56" class="edge">
<title>Node46&#45;&gt;Node19</title>
<path fill="none" stroke="midnightblue" d="M1056.22,-392.08C1051.33,-384.53 1044.17,-373.49 1038.17,-364.23"/>
<polygon fill="midnightblue" stroke="midnightblue" points="1041.05,-362.24 1032.67,-355.75 1035.17,-366.05 1041.05,-362.24"/>
</g>
<!-- Node47 -->
<g id="node33" class="node">
<title>Node47</title>
<g id="a_node33"><a xlink:title=" ">
<polygon fill="none" stroke="#bfbfbf" points="1069,-336.5 1069,-355.5 1163,-355.5 1163,-336.5 1069,-336.5"/>
<text text-anchor="middle" x="1116" y="-343.5" font-family="Helvetica,sans-Serif" font-size="10.00">big&#45;int/bigint.hh</text>
</a>
</g>
</g>
<!-- Node46&#45;&gt;Node47 -->
<g id="edge58" class="edge">
<title>Node46&#45;&gt;Node47</title>
<path fill="none" stroke="midnightblue" d="M1070.92,-392.08C1078.78,-384.22 1090.43,-372.57 1099.92,-363.08"/>
<polygon fill="midnightblue" stroke="midnightblue" points="1102.65,-365.3 1107.25,-355.75 1097.7,-360.35 1102.65,-365.3"/>
</g>
<!-- Node49&#45;&gt;Node23 -->
<g id="edge79" class="edge">
<title>Node49&#45;&gt;Node23</title>
<path fill="none" stroke="midnightblue" d="M562.47,-672.46C547.99,-664.41 526.98,-651.33 512,-636 499,-622.69 434.9,-518.1 409.45,-476.23"/>
<polygon fill="midnightblue" stroke="midnightblue" points="412.43,-474.4 404.24,-467.67 406.44,-478.03 412.43,-474.4"/>
</g>
<!-- Node50 -->
<g id="node36" class="node">
<title>Node50</title>
<g id="a_node36"><a xlink:href="ansi__c__declaration_8h.html" target="_top" xlink:title="ANSI&#45;CC Language Type Checking.">
<polygon fill="none" stroke="black" points="521,-616.5 521,-635.5 637,-635.5 637,-616.5 521,-616.5"/>
<text text-anchor="middle" x="579" y="-623.5" font-family="Helvetica,sans-Serif" font-size="10.00">ansi_c_declaration.h</text>
</a>
</g>
</g>
<!-- Node49&#45;&gt;Node50 -->
<g id="edge63" class="edge">
<title>Node49&#45;&gt;Node50</title>
<path fill="none" stroke="midnightblue" d="M579,-672.08C579,-665.01 579,-654.86 579,-645.99"/>
<polygon fill="midnightblue" stroke="midnightblue" points="582.5,-645.75 579,-635.75 575.5,-645.75 582.5,-645.75"/>
</g>
<!-- Node51 -->
<g id="node37" class="node">
<title>Node51</title>
<g id="a_node37"><a xlink:href="std__expr_8h.html" target="_top" xlink:title="API to expression classes.">
<polygon fill="none" stroke="black" points="536,-560.5 536,-579.5 622,-579.5 622,-560.5 536,-560.5"/>
<text text-anchor="middle" x="579" y="-567.5" font-family="Helvetica,sans-Serif" font-size="10.00">util/std_expr.h</text>
</a>
</g>
</g>
<!-- Node50&#45;&gt;Node51 -->
<g id="edge64" class="edge">
<title>Node50&#45;&gt;Node51</title>
<path fill="none" stroke="midnightblue" d="M579,-616.08C579,-609.01 579,-598.86 579,-589.99"/>
<polygon fill="midnightblue" stroke="midnightblue" points="582.5,-589.75 579,-579.75 575.5,-589.75 582.5,-589.75"/>
</g>
<!-- Node51&#45;&gt;Node13 -->
<g id="edge71" class="edge">
<title>Node51&#45;&gt;Node13</title>
<path fill="none" stroke="midnightblue" d="M590.23,-560.46C600.51,-552.14 615.52,-538.63 625,-524 641.75,-498.16 649,-489.8 649,-459 649,-459 649,-459 649,-401 649,-334.67 563.59,-144.03 536.28,-84.78"/>
<polygon fill="midnightblue" stroke="midnightblue" points="539.4,-83.19 532.03,-75.59 533.05,-86.13 539.4,-83.19"/>
</g>
<!-- Node52 -->
<g id="node38" class="node">
<title>Node52</title>
<g id="a_node38"><a xlink:href="expr__cast_8h.html" target="_top" xlink:title="Templated functions to cast to specific exprt&#45;derived classes.">
<polygon fill="none" stroke="black" points="433.5,-448.5 433.5,-467.5 506.5,-467.5 506.5,-448.5 433.5,-448.5"/>
<text text-anchor="middle" x="470" y="-455.5" font-family="Helvetica,sans-Serif" font-size="10.00">expr_cast.h</text>
</a>
</g>
</g>
<!-- Node51&#45;&gt;Node52 -->
<g id="edge65" class="edge">
<title>Node51&#45;&gt;Node52</title>
<path fill="none" stroke="midnightblue" d="M570.35,-560.39C561.28,-551.35 546.61,-536.71 534,-524 517.56,-507.43 498.83,-488.39 485.9,-475.22"/>
<polygon fill="midnightblue" stroke="midnightblue" points="488.18,-472.54 478.67,-467.85 483.18,-477.44 488.18,-472.54"/>
</g>
<!-- Node54 -->
<g id="node40" class="node">
<title>Node54</title>
<g id="a_node40"><a xlink:href="std__types_8h.html" target="_top" xlink:title="Pre&#45;defined types.">
<polygon fill="none" stroke="black" points="542.5,-504.5 542.5,-523.5 615.5,-523.5 615.5,-504.5 542.5,-504.5"/>
<text text-anchor="middle" x="579" y="-511.5" font-family="Helvetica,sans-Serif" font-size="10.00">std_types.h</text>
</a>
</g>
</g>
<!-- Node51&#45;&gt;Node54 -->
<g id="edge72" class="edge">
<title>Node51&#45;&gt;Node54</title>
<path fill="none" stroke="midnightblue" d="M579,-560.08C579,-553.01 579,-542.86 579,-533.99"/>
<polygon fill="midnightblue" stroke="midnightblue" points="582.5,-533.75 579,-523.75 575.5,-533.75 582.5,-533.75"/>
</g>
<!-- Node52&#45;&gt;Node5 -->
<g id="edge70" class="edge">
<title>Node52&#45;&gt;Node5</title>
<path fill="none" stroke="midnightblue" d="M458.75,-448.32C448.2,-440.18 432.2,-427.84 419.56,-418.09"/>
<polygon fill="midnightblue" stroke="midnightblue" points="421.51,-415.17 411.45,-411.83 417.23,-420.71 421.51,-415.17"/>
</g>
<!-- Node52&#45;&gt;Node13 -->
<g id="edge69" class="edge">
<title>Node52&#45;&gt;Node13</title>
<path fill="none" stroke="midnightblue" d="M435.47,-448.46C356.09,-428.53 165.92,-378.85 147,-356 109.4,-310.6 100.92,-272.79 134,-224 175.01,-163.51 389.34,-102.42 483.53,-78.04"/>
<polygon fill="midnightblue" stroke="midnightblue" points="484.52,-81.4 493.33,-75.53 482.78,-74.62 484.52,-81.4"/>
</g>
<!-- Node52&#45;&gt;Node16 -->
<g id="edge67" class="edge">
<title>Node52&#45;&gt;Node16</title>
<path fill="none" stroke="midnightblue" d="M433.38,-449.61C430.21,-449.04 427.05,-448.49 424,-448 298.39,-427.77 251.76,-472.8 140,-412 78.22,-378.39 38,-361.34 38,-291 38,-291 38,-291 38,-121 38,-86.81 54.6,-49.76 65.86,-28.57"/>
<polygon fill="midnightblue" stroke="midnightblue" points="68.95,-30.22 70.72,-19.77 62.82,-26.83 68.95,-30.22"/>
</g>
<!-- Node52&#45;&gt;Node38 -->
<g id="edge68" class="edge">
<title>Node52&#45;&gt;Node38</title>
<path fill="none" stroke="midnightblue" d="M473.3,-448.37C480.13,-430.46 495.99,-388.92 505.15,-364.95"/>
<polygon fill="midnightblue" stroke="midnightblue" points="508.42,-366.18 508.72,-355.59 501.88,-363.69 508.42,-366.18"/>
</g>
<!-- Node53 -->
<g id="node39" class="node">
<title>Node53</title>
<g id="a_node39"><a xlink:title=" ">
<polygon fill="none" stroke="#bfbfbf" points="148.5,-392.5 148.5,-411.5 205.5,-411.5 205.5,-392.5 148.5,-392.5"/>
<text text-anchor="middle" x="177" y="-399.5" font-family="Helvetica,sans-Serif" font-size="10.00">typeinfo</text>
</a>
</g>
</g>
<!-- Node52&#45;&gt;Node53 -->
<g id="edge66" class="edge">
<title>Node52&#45;&gt;Node53</title>
<path fill="none" stroke="midnightblue" d="M433.35,-449.77C430.19,-449.16 427.04,-448.57 424,-448 333.49,-431.16 310.4,-429.43 220,-412 218.55,-411.72 217.07,-411.43 215.58,-411.14"/>
<polygon fill="midnightblue" stroke="midnightblue" points="216.15,-407.68 205.66,-409.13 214.76,-414.54 216.15,-407.68"/>
</g>
<!-- Node54&#45;&gt;Node5 -->
<g id="edge73" class="edge">
<title>Node54&#45;&gt;Node5</title>
<path fill="none" stroke="midnightblue" d="M572.57,-504.26C562.1,-490.57 540.1,-463.98 516,-448 493.5,-433.08 465.31,-422 442.36,-414.57"/>
<polygon fill="midnightblue" stroke="midnightblue" points="443.14,-411.14 432.55,-411.51 441.05,-417.83 443.14,-411.14"/>
</g>
<!-- Node54&#45;&gt;Node13 -->
<g id="edge75" class="edge">
<title>Node54&#45;&gt;Node13</title>
<path fill="none" stroke="midnightblue" d="M583.62,-504.34C588.06,-495.49 594.45,-481.22 597,-468 599.52,-454.94 599.06,-416.35 595,-392 579.4,-298.53 548.86,-281.42 533,-188 526.92,-152.2 526.77,-109.62 527.31,-85.71"/>
<polygon fill="midnightblue" stroke="midnightblue" points="530.82,-85.69 527.61,-75.59 523.82,-85.48 530.82,-85.69"/>
</g>
<!-- Node54&#45;&gt;Node33 -->
<g id="edge77" class="edge">
<title>Node54&#45;&gt;Node33</title>
<path fill="none" stroke="midnightblue" d="M580.53,-504.47C585.01,-476.76 595.27,-388.03 554,-336 536.24,-313.61 505.87,-302.35 480.65,-296.69"/>
<polygon fill="midnightblue" stroke="midnightblue" points="481.07,-293.2 470.57,-294.65 479.68,-300.06 481.07,-293.2"/>
</g>
<!-- Node54&#45;&gt;Node46 -->
<g id="edge76" class="edge">
<title>Node54&#45;&gt;Node46</title>
<path fill="none" stroke="midnightblue" d="M615.86,-504.58C654.91,-495.63 718.34,-481 773,-468 809.49,-459.32 818.45,-456.43 855,-448 910.78,-435.14 975.26,-421.28 1017.24,-412.39"/>
<polygon fill="midnightblue" stroke="midnightblue" points="1018.09,-415.79 1027.15,-410.3 1016.64,-408.94 1018.09,-415.79"/>
</g>
<!-- Node54&#45;&gt;Node52 -->
<g id="edge74" class="edge">
<title>Node54&#45;&gt;Node52</title>
<path fill="none" stroke="midnightblue" d="M561.49,-504.32C543.93,-495.62 516.67,-482.12 496.47,-472.11"/>
<polygon fill="midnightblue" stroke="midnightblue" points="497.98,-468.96 487.47,-467.65 494.88,-475.23 497.98,-468.96"/>
</g>
<!-- Node24 -->
<g id="node41" class="node">
<title>Node24</title>
<g id="a_node41"><a xlink:title=" ">
<polygon fill="none" stroke="#bfbfbf" points="863.5,-448.5 863.5,-467.5 956.5,-467.5 956.5,-448.5 863.5,-448.5"/>
<text text-anchor="middle" x="910" y="-455.5" font-family="Helvetica,sans-Serif" font-size="10.00">unordered_map</text>
</a>
</g>
</g>
<!-- Node54&#45;&gt;Node24 -->
<g id="edge78" class="edge">
<title>Node54&#45;&gt;Node24</title>
<path fill="none" stroke="midnightblue" d="M615.69,-507.01C673.24,-497.62 785.2,-479.36 853.21,-468.26"/>
<polygon fill="midnightblue" stroke="midnightblue" points="854.02,-471.68 863.33,-466.61 852.9,-464.77 854.02,-471.68"/>
</g>
<!-- Node55&#45;&gt;Node10 -->
<g id="edge81" class="edge">
<title>Node55&#45;&gt;Node10</title>
<path fill="none" stroke="midnightblue" d="M1104.25,-509.01C1161.26,-503.12 1254.95,-490.33 1281,-468 1304.38,-447.96 1305,-433.8 1305,-403 1305,-403 1305,-403 1305,-233 1305,-202.2 1304.27,-188.17 1281,-168 1254.71,-145.21 1155.13,-131.73 1103.1,-126.1"/>
<polygon fill="midnightblue" stroke="midnightblue" points="1103.38,-122.61 1093.06,-125.05 1102.65,-129.57 1103.38,-122.61"/>
</g>
<!-- Node55&#45;&gt;Node24 -->
<g id="edge82" class="edge">
<title>Node55&#45;&gt;Node24</title>
<path fill="none" stroke="midnightblue" d="M1035.39,-504.44C1010.54,-495.44 971.23,-481.19 943.25,-471.05"/>
<polygon fill="midnightblue" stroke="midnightblue" points="944.09,-467.63 933.5,-467.52 941.71,-474.21 944.09,-467.63"/>
</g>
</g>
</svg>
