<?xml version="1.0" encoding="UTF-8" standalone="no"?>
<!DOCTYPE svg PUBLIC "-//W3C//DTD SVG 1.1//EN"
 "http://www.w3.org/Graphics/SVG/1.1/DTD/svg11.dtd">
<!-- Generated by graphviz version 2.43.0 (0)
 -->
<!-- Title: /home/runner/work/cbmc/cbmc/src/cpp/cpp_token_buffer.h Pages: 1 -->
<svg width="714pt" height="554pt"
 viewBox="0.00 0.00 713.50 554.00" xmlns="http://www.w3.org/2000/svg" xmlns:xlink="http://www.w3.org/1999/xlink">
<g id="graph0" class="graph" transform="scale(1 1) rotate(0) translate(4 550)">
<title>/home/runner/work/cbmc/cbmc/src/cpp/cpp_token_buffer.h</title>
<!-- Node1 -->
<g id="node1" class="node">
<title>Node1</title>
<g id="a_node1"><a xlink:title=" ">
<polygon fill="#bfbfbf" stroke="black" points="303.5,-504.5 303.5,-545.5 441.5,-545.5 441.5,-504.5 303.5,-504.5"/>
<text text-anchor="start" x="311.5" y="-533.5" font-family="Helvetica,sans-Serif" font-size="10.00">/home/runner/work/cbmc</text>
<text text-anchor="start" x="311.5" y="-522.5" font-family="Helvetica,sans-Serif" font-size="10.00">/cbmc/src/cpp/cpp_token</text>
<text text-anchor="middle" x="372.5" y="-511.5" font-family="Helvetica,sans-Serif" font-size="10.00">_buffer.h</text>
</a>
</g>
</g>
<!-- Node2 -->
<g id="node2" class="node">
<title>Node2</title>
<g id="a_node2"><a xlink:href="cpp__token_8h.html" target="_top" xlink:title=" ">
<polygon fill="none" stroke="black" points="335,-448.5 335,-467.5 410,-467.5 410,-448.5 335,-448.5"/>
<text text-anchor="middle" x="372.5" y="-455.5" font-family="Helvetica,sans-Serif" font-size="10.00">cpp_token.h</text>
</a>
</g>
</g>
<!-- Node1&#45;&gt;Node2 -->
<g id="edge1" class="edge">
<title>Node1&#45;&gt;Node2</title>
<path fill="none" stroke="midnightblue" d="M372.5,-504.5C372.5,-496.07 372.5,-486.24 372.5,-477.87"/>
<polygon fill="midnightblue" stroke="midnightblue" points="376,-477.65 372.5,-467.65 369,-477.65 376,-477.65"/>
</g>
<!-- Node11 -->
<g id="node11" class="node">
<title>Node11</title>
<g id="a_node11"><a xlink:href="src_2util_2invariant_8h.html" target="_top" xlink:title=" ">
<polygon fill="none" stroke="red" points="31,-56.5 31,-75.5 100,-75.5 100,-56.5 31,-56.5"/>
<text text-anchor="middle" x="65.5" y="-63.5" font-family="Helvetica,sans-Serif" font-size="10.00">invariant.h</text>
</a>
</g>
</g>
<!-- Node1&#45;&gt;Node11 -->
<g id="edge34" class="edge">
<title>Node1&#45;&gt;Node11</title>
<path fill="none" stroke="midnightblue" d="M303.47,-514.99C199.44,-499.46 14.5,-463.36 14.5,-403 14.5,-403 14.5,-403 14.5,-233 14.5,-176.9 41.44,-114.66 56.16,-84.84"/>
<polygon fill="midnightblue" stroke="midnightblue" points="59.39,-86.21 60.79,-75.71 53.15,-83.04 59.39,-86.21"/>
</g>
<!-- Node21 -->
<g id="node23" class="node">
<title>Node21</title>
<g id="a_node23"><a xlink:title=" ">
<polygon fill="none" stroke="#bfbfbf" points="428.5,-448.5 428.5,-467.5 460.5,-467.5 460.5,-448.5 428.5,-448.5"/>
<text text-anchor="middle" x="444.5" y="-455.5" font-family="Helvetica,sans-Serif" font-size="10.00">list</text>
</a>
</g>
</g>
<!-- Node1&#45;&gt;Node21 -->
<g id="edge33" class="edge">
<title>Node1&#45;&gt;Node21</title>
<path fill="none" stroke="midnightblue" d="M394.1,-504.5C404.72,-494.92 417.33,-483.53 427.28,-474.54"/>
<polygon fill="midnightblue" stroke="midnightblue" points="429.84,-476.95 434.92,-467.65 425.15,-471.76 429.84,-476.95"/>
</g>
<!-- Node3 -->
<g id="node3" class="node">
<title>Node3</title>
<g id="a_node3"><a xlink:title=" ">
<polygon fill="none" stroke="#bfbfbf" points="591.5,-0.5 591.5,-19.5 655.5,-19.5 655.5,-0.5 591.5,-0.5"/>
<text text-anchor="middle" x="623.5" y="-7.5" font-family="Helvetica,sans-Serif" font-size="10.00">algorithm</text>
</a>
</g>
</g>
<!-- Node2&#45;&gt;Node3 -->
<g id="edge2" class="edge">
<title>Node2&#45;&gt;Node3</title>
<path fill="none" stroke="midnightblue" d="M410.05,-448.63C497.14,-428.71 705.5,-377.82 705.5,-347 705.5,-347 705.5,-347 705.5,-121 705.5,-80.27 668.91,-44.87 644.62,-25.86"/>
<polygon fill="midnightblue" stroke="midnightblue" points="646.41,-22.82 636.31,-19.61 642.2,-28.42 646.41,-22.82"/>
</g>
<!-- Node4 -->
<g id="node4" class="node">
<title>Node4</title>
<g id="a_node4"><a xlink:href="expr_8h.html" target="_top" xlink:title=" ">
<polygon fill="none" stroke="black" points="340,-392.5 340,-411.5 405,-411.5 405,-392.5 340,-392.5"/>
<text text-anchor="middle" x="372.5" y="-399.5" font-family="Helvetica,sans-Serif" font-size="10.00">util/expr.h</text>
</a>
</g>
</g>
<!-- Node2&#45;&gt;Node4 -->
<g id="edge3" class="edge">
<title>Node2&#45;&gt;Node4</title>
<path fill="none" stroke="midnightblue" d="M372.5,-448.08C372.5,-441.01 372.5,-430.86 372.5,-421.99"/>
<polygon fill="midnightblue" stroke="midnightblue" points="376,-421.75 372.5,-411.75 369,-421.75 376,-421.75"/>
</g>
<!-- Node5 -->
<g id="node5" class="node">
<title>Node5</title>
<g id="a_node5"><a xlink:href="as__const_8h.html" target="_top" xlink:title=" ">
<polygon fill="none" stroke="black" points="343.5,-0.5 343.5,-19.5 411.5,-19.5 411.5,-0.5 343.5,-0.5"/>
<text text-anchor="middle" x="377.5" y="-7.5" font-family="Helvetica,sans-Serif" font-size="10.00">as_const.h</text>
</a>
</g>
</g>
<!-- Node4&#45;&gt;Node5 -->
<g id="edge4" class="edge">
<title>Node4&#45;&gt;Node5</title>
<path fill="none" stroke="midnightblue" d="M390.07,-392.4C453.58,-360.73 667.5,-248.87 667.5,-179 667.5,-179 667.5,-179 667.5,-121 667.5,-90.9 671.02,-75.97 648.5,-56 615.62,-26.84 489.64,-16.34 421.64,-12.75"/>
<polygon fill="midnightblue" stroke="midnightblue" points="421.81,-9.26 411.65,-12.25 421.46,-16.25 421.81,-9.26"/>
</g>
<!-- Node6 -->
<g id="node6" class="node">
<title>Node6</title>
<g id="a_node6"><a xlink:href="type_8h.html" target="_top" xlink:title=" ">
<polygon fill="none" stroke="black" points="317,-336.5 317,-355.5 364,-355.5 364,-336.5 317,-336.5"/>
<text text-anchor="middle" x="340.5" y="-343.5" font-family="Helvetica,sans-Serif" font-size="10.00">type.h</text>
</a>
</g>
</g>
<!-- Node4&#45;&gt;Node6 -->
<g id="edge5" class="edge">
<title>Node4&#45;&gt;Node6</title>
<path fill="none" stroke="midnightblue" d="M367.22,-392.08C362.79,-384.61 356.34,-373.72 350.88,-364.52"/>
<polygon fill="midnightblue" stroke="midnightblue" points="353.79,-362.57 345.69,-355.75 347.77,-366.14 353.79,-362.57"/>
</g>
<!-- Node33 -->
<g id="node19" class="node">
<title>Node33</title>
<g id="a_node19"><a xlink:href="validation__mode_8h.html" target="_top" xlink:title=" ">
<polygon fill="none" stroke="black" points="43,-224.5 43,-243.5 150,-243.5 150,-224.5 43,-224.5"/>
<text text-anchor="middle" x="96.5" y="-231.5" font-family="Helvetica,sans-Serif" font-size="10.00">validation_mode.h</text>
</a>
</g>
</g>
<!-- Node4&#45;&gt;Node33 -->
<g id="edge31" class="edge">
<title>Node4&#45;&gt;Node33</title>
<path fill="none" stroke="midnightblue" d="M339.76,-395.2C308.67,-388.76 261.36,-376.47 224.5,-356 175.24,-328.64 130.57,-277.97 109.41,-251.73"/>
<polygon fill="midnightblue" stroke="midnightblue" points="111.89,-249.22 102.94,-243.54 106.4,-253.56 111.89,-249.22"/>
</g>
<!-- Node34 -->
<g id="node20" class="node">
<title>Node34</title>
<g id="a_node20"><a xlink:href="validate__types_8h.html" target="_top" xlink:title=" ">
<polygon fill="none" stroke="black" points="362.5,-280.5 362.5,-299.5 460.5,-299.5 460.5,-280.5 362.5,-280.5"/>
<text text-anchor="middle" x="411.5" y="-287.5" font-family="Helvetica,sans-Serif" font-size="10.00">validate_types.h</text>
</a>
</g>
</g>
<!-- Node4&#45;&gt;Node34 -->
<g id="edge30" class="edge">
<title>Node4&#45;&gt;Node34</title>
<path fill="none" stroke="midnightblue" d="M375.56,-392.37C381.88,-374.54 396.5,-333.3 405.02,-309.27"/>
<polygon fill="midnightblue" stroke="midnightblue" points="408.41,-310.19 408.45,-299.59 401.81,-307.85 408.41,-310.19"/>
</g>
<!-- Node35 -->
<g id="node21" class="node">
<title>Node35</title>
<g id="a_node21"><a xlink:href="validate__expressions_8h.html" target="_top" xlink:title=" ">
<polygon fill="none" stroke="black" points="548,-336.5 548,-355.5 677,-355.5 677,-336.5 548,-336.5"/>
<text text-anchor="middle" x="612.5" y="-343.5" font-family="Helvetica,sans-Serif" font-size="10.00">validate_expressions.h</text>
</a>
</g>
</g>
<!-- Node4&#45;&gt;Node35 -->
<g id="edge29" class="edge">
<title>Node4&#45;&gt;Node35</title>
<path fill="none" stroke="midnightblue" d="M405.12,-393.66C446.19,-384.42 517.1,-368.47 564.4,-357.82"/>
<polygon fill="midnightblue" stroke="midnightblue" points="565.42,-361.18 574.41,-355.57 563.88,-354.35 565.42,-361.18"/>
</g>
<!-- Node36 -->
<g id="node22" class="node">
<title>Node36</title>
<g id="a_node22"><a xlink:title=" ">
<polygon fill="none" stroke="#bfbfbf" points="234,-336.5 234,-355.5 299,-355.5 299,-336.5 234,-336.5"/>
<text text-anchor="middle" x="266.5" y="-343.5" font-family="Helvetica,sans-Serif" font-size="10.00">functional</text>
</a>
</g>
</g>
<!-- Node4&#45;&gt;Node36 -->
<g id="edge32" class="edge">
<title>Node4&#45;&gt;Node36</title>
<path fill="none" stroke="midnightblue" d="M355.47,-392.32C338.47,-383.66 312.12,-370.24 292.51,-360.25"/>
<polygon fill="midnightblue" stroke="midnightblue" points="293.99,-357.08 283.49,-355.65 290.81,-363.31 293.99,-357.08"/>
</g>
<!-- Node7 -->
<g id="node7" class="node">
<title>Node7</title>
<g id="a_node7"><a xlink:href="source__location_8h.html" target="_top" xlink:title=" ">
<polygon fill="none" stroke="black" points="245.5,-168.5 245.5,-187.5 347.5,-187.5 347.5,-168.5 245.5,-168.5"/>
<text text-anchor="middle" x="296.5" y="-175.5" font-family="Helvetica,sans-Serif" font-size="10.00">source_location.h</text>
</a>
</g>
</g>
<!-- Node6&#45;&gt;Node7 -->
<g id="edge6" class="edge">
<title>Node6&#45;&gt;Node7</title>
<path fill="none" stroke="midnightblue" d="M339.31,-336.35C336.42,-316.28 328.31,-265.17 315.5,-224 312.67,-214.89 308.65,-205.1 305.05,-196.98"/>
<polygon fill="midnightblue" stroke="midnightblue" points="308.17,-195.4 300.81,-187.77 301.81,-198.32 308.17,-195.4"/>
</g>
<!-- Node31 -->
<g id="node17" class="node">
<title>Node31</title>
<g id="a_node17"><a xlink:href="validate_8h.html" target="_top" xlink:title=" ">
<polygon fill="none" stroke="black" points="209,-280.5 209,-299.5 274,-299.5 274,-280.5 209,-280.5"/>
<text text-anchor="middle" x="241.5" y="-287.5" font-family="Helvetica,sans-Serif" font-size="10.00">validate.h</text>
</a>
</g>
</g>
<!-- Node6&#45;&gt;Node31 -->
<g id="edge20" class="edge">
<title>Node6&#45;&gt;Node31</title>
<path fill="none" stroke="midnightblue" d="M324.59,-336.32C308.86,-327.74 284.56,-314.49 266.29,-304.52"/>
<polygon fill="midnightblue" stroke="midnightblue" points="267.82,-301.37 257.37,-299.65 264.47,-307.52 267.82,-301.37"/>
</g>
<!-- Node6&#45;&gt;Node33 -->
<g id="edge28" class="edge">
<title>Node6&#45;&gt;Node33</title>
<path fill="none" stroke="midnightblue" d="M317,-338.29C282.68,-328.35 220.64,-309.85 199.5,-300 168.92,-285.75 136.44,-264.01 116.32,-249.66"/>
<polygon fill="midnightblue" stroke="midnightblue" points="118.14,-246.66 107.99,-243.63 114.04,-252.33 118.14,-246.66"/>
</g>
<!-- Node6&#45;&gt;Node34 -->
<g id="edge27" class="edge">
<title>Node6&#45;&gt;Node34</title>
<path fill="none" stroke="midnightblue" d="M351.91,-336.32C362.61,-328.18 378.84,-315.84 391.66,-306.09"/>
<polygon fill="midnightblue" stroke="midnightblue" points="394.04,-308.67 399.89,-299.83 389.81,-303.1 394.04,-308.67"/>
</g>
<!-- Node8 -->
<g id="node8" class="node">
<title>Node8</title>
<g id="a_node8"><a xlink:href="irep_8h.html" target="_top" xlink:title=" ">
<polygon fill="none" stroke="black" points="274.5,-112.5 274.5,-131.5 318.5,-131.5 318.5,-112.5 274.5,-112.5"/>
<text text-anchor="middle" x="296.5" y="-119.5" font-family="Helvetica,sans-Serif" font-size="10.00">irep.h</text>
</a>
</g>
</g>
<!-- Node7&#45;&gt;Node8 -->
<g id="edge7" class="edge">
<title>Node7&#45;&gt;Node8</title>
<path fill="none" stroke="midnightblue" d="M296.5,-168.08C296.5,-161.01 296.5,-150.86 296.5,-141.99"/>
<polygon fill="midnightblue" stroke="midnightblue" points="300,-141.75 296.5,-131.75 293,-141.75 300,-141.75"/>
</g>
<!-- Node9 -->
<g id="node9" class="node">
<title>Node9</title>
<g id="a_node9"><a xlink:title=" ">
<polygon fill="none" stroke="#bfbfbf" points="131.5,-0.5 131.5,-19.5 175.5,-19.5 175.5,-0.5 131.5,-0.5"/>
<text text-anchor="middle" x="153.5" y="-7.5" font-family="Helvetica,sans-Serif" font-size="10.00">string</text>
</a>
</g>
</g>
<!-- Node7&#45;&gt;Node9 -->
<g id="edge19" class="edge">
<title>Node7&#45;&gt;Node9</title>
<path fill="none" stroke="midnightblue" d="M286.91,-168.33C268.53,-151.46 227.49,-112.69 197.5,-76 185.01,-60.72 172.57,-41.92 164.12,-28.48"/>
<polygon fill="midnightblue" stroke="midnightblue" points="166.96,-26.43 158.73,-19.76 161.01,-30.11 166.96,-26.43"/>
</g>
<!-- Node29 -->
<g id="node15" class="node">
<title>Node29</title>
<g id="a_node15"><a xlink:href="optional_8h.html" target="_top" xlink:title=" ">
<polygon fill="none" stroke="black" points="444,-112.5 444,-131.5 509,-131.5 509,-112.5 444,-112.5"/>
<text text-anchor="middle" x="476.5" y="-119.5" font-family="Helvetica,sans-Serif" font-size="10.00">optional.h</text>
</a>
</g>
</g>
<!-- Node7&#45;&gt;Node29 -->
<g id="edge17" class="edge">
<title>Node7&#45;&gt;Node29</title>
<path fill="none" stroke="midnightblue" d="M325.02,-168.44C355.57,-159.28 404.21,-144.69 438.1,-134.52"/>
<polygon fill="midnightblue" stroke="midnightblue" points="439.54,-137.74 448.11,-131.52 437.53,-131.04 439.54,-137.74"/>
</g>
<!-- Node8&#45;&gt;Node9 -->
<g id="edge8" class="edge">
<title>Node8&#45;&gt;Node9</title>
<path fill="none" stroke="midnightblue" d="M280.54,-112.37C265.34,-103.87 242.1,-90.15 223.5,-76 203.42,-60.72 182.48,-40.65 168.8,-26.87"/>
<polygon fill="midnightblue" stroke="midnightblue" points="171.14,-24.26 161.64,-19.57 166.15,-29.16 171.14,-24.26"/>
</g>
<!-- Node10 -->
<g id="node10" class="node">
<title>Node10</title>
<g id="a_node10"><a xlink:title=" ">
<polygon fill="none" stroke="#bfbfbf" points="378,-56.5 378,-75.5 425,-75.5 425,-56.5 378,-56.5"/>
<text text-anchor="middle" x="401.5" y="-63.5" font-family="Helvetica,sans-Serif" font-size="10.00">vector</text>
</a>
</g>
</g>
<!-- Node8&#45;&gt;Node10 -->
<g id="edge9" class="edge">
<title>Node8&#45;&gt;Node10</title>
<path fill="none" stroke="midnightblue" d="M313.37,-112.32C330.21,-103.66 356.31,-90.24 375.74,-80.25"/>
<polygon fill="midnightblue" stroke="midnightblue" points="377.38,-83.34 384.67,-75.65 374.18,-77.12 377.38,-83.34"/>
</g>
<!-- Node8&#45;&gt;Node11 -->
<g id="edge10" class="edge">
<title>Node8&#45;&gt;Node11</title>
<path fill="none" stroke="midnightblue" d="M274.35,-115.82C236.64,-107.01 159.25,-88.92 110,-77.4"/>
<polygon fill="midnightblue" stroke="midnightblue" points="110.78,-73.99 100.25,-75.12 109.19,-80.81 110.78,-73.99"/>
</g>
<!-- Node15 -->
<g id="node13" class="node">
<title>Node15</title>
<g id="a_node13"><a xlink:href="irep__ids_8h.html" target="_top" xlink:title=" ">
<polygon fill="none" stroke="red" points="443.5,-56.5 443.5,-75.5 507.5,-75.5 507.5,-56.5 443.5,-56.5"/>
<text text-anchor="middle" x="475.5" y="-63.5" font-family="Helvetica,sans-Serif" font-size="10.00">irep_ids.h</text>
</a>
</g>
</g>
<!-- Node8&#45;&gt;Node15 -->
<g id="edge13" class="edge">
<title>Node8&#45;&gt;Node15</title>
<path fill="none" stroke="midnightblue" d="M318.81,-114.27C348.53,-105.3 401.56,-89.3 437.62,-78.43"/>
<polygon fill="midnightblue" stroke="midnightblue" points="438.74,-81.75 447.3,-75.51 436.72,-75.04 438.74,-81.75"/>
</g>
<!-- Node26 -->
<g id="node14" class="node">
<title>Node26</title>
<g id="a_node14"><a xlink:href="forward__list__as__map_8h.html" target="_top" xlink:title=" ">
<polygon fill="none" stroke="red" points="233,-56.5 233,-75.5 360,-75.5 360,-56.5 233,-56.5"/>
<text text-anchor="middle" x="296.5" y="-63.5" font-family="Helvetica,sans-Serif" font-size="10.00">forward_list_as_map.h</text>
</a>
</g>
</g>
<!-- Node8&#45;&gt;Node26 -->
<g id="edge14" class="edge">
<title>Node8&#45;&gt;Node26</title>
<path fill="none" stroke="midnightblue" d="M296.5,-112.08C296.5,-105.01 296.5,-94.86 296.5,-85.99"/>
<polygon fill="midnightblue" stroke="midnightblue" points="300,-85.75 296.5,-75.75 293,-85.75 300,-85.75"/>
</g>
<!-- Node11&#45;&gt;Node9 -->
<g id="edge11" class="edge">
<title>Node11&#45;&gt;Node9</title>
<path fill="none" stroke="midnightblue" d="M79.64,-56.32C93.37,-47.9 114.44,-34.97 130.56,-25.07"/>
<polygon fill="midnightblue" stroke="midnightblue" points="132.7,-27.87 139.4,-19.65 129.04,-21.9 132.7,-27.87"/>
</g>
<!-- Node14 -->
<g id="node12" class="node">
<title>Node14</title>
<g id="a_node12"><a xlink:title=" ">
<polygon fill="none" stroke="#bfbfbf" points="0,-0.5 0,-19.5 69,-19.5 69,-0.5 0,-0.5"/>
<text text-anchor="middle" x="34.5" y="-7.5" font-family="Helvetica,sans-Serif" font-size="10.00">type_traits</text>
</a>
</g>
</g>
<!-- Node11&#45;&gt;Node14 -->
<g id="edge12" class="edge">
<title>Node11&#45;&gt;Node14</title>
<path fill="none" stroke="midnightblue" d="M60.38,-56.08C56.09,-48.61 49.84,-37.72 44.56,-28.52"/>
<polygon fill="midnightblue" stroke="midnightblue" points="47.54,-26.68 39.52,-19.75 41.47,-30.17 47.54,-26.68"/>
</g>
<!-- Node26&#45;&gt;Node3 -->
<g id="edge15" class="edge">
<title>Node26&#45;&gt;Node3</title>
<path fill="none" stroke="midnightblue" d="M348.31,-56.44C412.7,-45.81 521.35,-27.87 581.05,-18.01"/>
<polygon fill="midnightblue" stroke="midnightblue" points="581.96,-21.41 591.26,-16.32 580.82,-14.5 581.96,-21.41"/>
</g>
<!-- Node26&#45;&gt;Node5 -->
<g id="edge16" class="edge">
<title>Node26&#45;&gt;Node5</title>
<path fill="none" stroke="midnightblue" d="M309.51,-56.32C322.03,-47.98 341.18,-35.21 355.97,-25.35"/>
<polygon fill="midnightblue" stroke="midnightblue" points="358.14,-28.11 364.52,-19.65 354.26,-22.29 358.14,-28.11"/>
</g>
<!-- Node30 -->
<g id="node16" class="node">
<title>Node30</title>
<g id="a_node16"><a xlink:title=" ">
<polygon fill="none" stroke="#bfbfbf" points="526,-56.5 526,-75.5 639,-75.5 639,-56.5 526,-56.5"/>
<text text-anchor="middle" x="582.5" y="-63.5" font-family="Helvetica,sans-Serif" font-size="10.00">nonstd/optional.hpp</text>
</a>
</g>
</g>
<!-- Node29&#45;&gt;Node30 -->
<g id="edge18" class="edge">
<title>Node29&#45;&gt;Node30</title>
<path fill="none" stroke="midnightblue" d="M493.53,-112.32C510.53,-103.66 536.88,-90.24 556.49,-80.25"/>
<polygon fill="midnightblue" stroke="midnightblue" points="558.19,-83.31 565.51,-75.65 555.01,-77.08 558.19,-83.31"/>
</g>
<!-- Node31&#45;&gt;Node14 -->
<g id="edge21" class="edge">
<title>Node31&#45;&gt;Node14</title>
<path fill="none" stroke="midnightblue" d="M231.65,-280.48C216.47,-267.54 186.21,-242.49 158.5,-224 131.35,-205.89 118.32,-210.31 94.5,-188 51.14,-147.38 38.42,-132.96 21.5,-76 16.84,-60.33 21.36,-42.04 26.3,-28.86"/>
<polygon fill="midnightblue" stroke="midnightblue" points="29.57,-30.11 30.18,-19.53 23.11,-27.42 29.57,-30.11"/>
</g>
<!-- Node32 -->
<g id="node18" class="node">
<title>Node32</title>
<g id="a_node18"><a xlink:href="exception__utils_8h.html" target="_top" xlink:title=" ">
<polygon fill="none" stroke="black" points="206.5,-224.5 206.5,-243.5 306.5,-243.5 306.5,-224.5 206.5,-224.5"/>
<text text-anchor="middle" x="256.5" y="-231.5" font-family="Helvetica,sans-Serif" font-size="10.00">exception_utils.h</text>
</a>
</g>
</g>
<!-- Node31&#45;&gt;Node32 -->
<g id="edge22" class="edge">
<title>Node31&#45;&gt;Node32</title>
<path fill="none" stroke="midnightblue" d="M243.98,-280.08C245.99,-272.85 248.89,-262.41 251.39,-253.4"/>
<polygon fill="midnightblue" stroke="midnightblue" points="254.76,-254.32 254.07,-243.75 248.02,-252.45 254.76,-254.32"/>
</g>
<!-- Node31&#45;&gt;Node33 -->
<g id="edge26" class="edge">
<title>Node31&#45;&gt;Node33</title>
<path fill="none" stroke="midnightblue" d="M218.52,-280.44C194.34,-271.44 156.08,-257.19 128.85,-247.05"/>
<polygon fill="midnightblue" stroke="midnightblue" points="129.96,-243.73 119.37,-243.52 127.52,-250.29 129.96,-243.73"/>
</g>
<!-- Node32&#45;&gt;Node7 -->
<g id="edge25" class="edge">
<title>Node32&#45;&gt;Node7</title>
<path fill="none" stroke="midnightblue" d="M263.11,-224.08C268.76,-216.46 277.04,-205.26 283.95,-195.94"/>
<polygon fill="midnightblue" stroke="midnightblue" points="286.88,-197.87 290.02,-187.75 281.25,-193.7 286.88,-197.87"/>
</g>
<!-- Node32&#45;&gt;Node9 -->
<g id="edge23" class="edge">
<title>Node32&#45;&gt;Node9</title>
<path fill="none" stroke="midnightblue" d="M251.92,-224.26C239.62,-200.63 205.02,-133.43 179.5,-76 172.64,-60.56 165.56,-42.71 160.52,-29.63"/>
<polygon fill="midnightblue" stroke="midnightblue" points="163.65,-28.02 156.82,-19.92 157.11,-30.51 163.65,-28.02"/>
</g>
<!-- Node32&#45;&gt;Node11 -->
<g id="edge24" class="edge">
<title>Node32&#45;&gt;Node11</title>
<path fill="none" stroke="midnightblue" d="M216.94,-224.45C180.39,-215.85 129.55,-201.92 114.5,-188 84.79,-160.52 72.69,-112.5 68.08,-85.97"/>
<polygon fill="midnightblue" stroke="midnightblue" points="71.49,-85.08 66.5,-75.74 64.57,-86.15 71.49,-85.08"/>
</g>
</g>
</svg>
