<?xml version="1.0" encoding="UTF-8" standalone="no"?>
<!DOCTYPE svg PUBLIC "-//W3C//DTD SVG 1.1//EN"
 "http://www.w3.org/Graphics/SVG/1.1/DTD/svg11.dtd">
<!-- Generated by graphviz version 2.43.0 (0)
 -->
<!-- Title: /home/runner/work/cbmc/cbmc/src/cpp/cpp_token.h Pages: 1 -->
<svg width="880pt" height="599pt"
 viewBox="0.00 0.00 880.00 599.00" xmlns="http://www.w3.org/2000/svg" xmlns:xlink="http://www.w3.org/1999/xlink">
<g id="graph0" class="graph" transform="scale(1 1) rotate(0) translate(4 595)">
<title>/home/runner/work/cbmc/cbmc/src/cpp/cpp_token.h</title>
<!-- Node1 -->
<g id="node1" class="node">
<title>Node1</title>
<g id="a_node1"><a xlink:title="C++ Parser: Token.">
<polygon fill="#bfbfbf" stroke="black" points="125.5,-560.5 125.5,-590.5 270.5,-590.5 270.5,-560.5 125.5,-560.5"/>
<text text-anchor="start" x="133.5" y="-578.5" font-family="Helvetica,sans-Serif" font-size="10.00">/home/runner/work/cbmc</text>
<text text-anchor="middle" x="198" y="-567.5" font-family="Helvetica,sans-Serif" font-size="10.00">/cbmc/src/cpp/cpp_token.h</text>
</a>
</g>
</g>
<!-- Node2 -->
<g id="node2" class="node">
<title>Node2</title>
<g id="a_node2"><a xlink:title=" ">
<polygon fill="none" stroke="#bfbfbf" points="66,-112.5 66,-131.5 130,-131.5 130,-112.5 66,-112.5"/>
<text text-anchor="middle" x="98" y="-119.5" font-family="Helvetica,sans-Serif" font-size="10.00">algorithm</text>
</a>
</g>
</g>
<!-- Node1&#45;&gt;Node2 -->
<g id="edge1" class="edge">
<title>Node1&#45;&gt;Node2</title>
<path fill="none" stroke="midnightblue" d="M125.4,-562.48C68.89,-548.48 0,-519.09 0,-459 0,-459 0,-459 0,-233 0,-189.38 43.49,-155.06 72.53,-137.01"/>
<polygon fill="midnightblue" stroke="midnightblue" points="74.58,-139.86 81.38,-131.73 71,-133.85 74.58,-139.86"/>
</g>
<!-- Node3 -->
<g id="node3" class="node">
<title>Node3</title>
<g id="a_node3"><a xlink:href="expr_8h.html" target="_top" xlink:title=" ">
<polygon fill="none" stroke="black" points="392.5,-504.5 392.5,-523.5 457.5,-523.5 457.5,-504.5 392.5,-504.5"/>
<text text-anchor="middle" x="425" y="-511.5" font-family="Helvetica,sans-Serif" font-size="10.00">util/expr.h</text>
</a>
</g>
</g>
<!-- Node1&#45;&gt;Node3 -->
<g id="edge2" class="edge">
<title>Node1&#45;&gt;Node3</title>
<path fill="none" stroke="midnightblue" d="M251.51,-560.47C291.53,-549.99 345.51,-535.84 382.57,-526.12"/>
<polygon fill="midnightblue" stroke="midnightblue" points="383.76,-529.43 392.55,-523.51 381.99,-522.66 383.76,-529.43"/>
</g>
<!-- Node4 -->
<g id="node4" class="node">
<title>Node4</title>
<g id="a_node4"><a xlink:href="as__const_8h.html" target="_top" xlink:title=" ">
<polygon fill="none" stroke="black" points="186,-112.5 186,-131.5 254,-131.5 254,-112.5 186,-112.5"/>
<text text-anchor="middle" x="220" y="-119.5" font-family="Helvetica,sans-Serif" font-size="10.00">as_const.h</text>
</a>
</g>
</g>
<!-- Node3&#45;&gt;Node4 -->
<g id="edge3" class="edge">
<title>Node3&#45;&gt;Node4</title>
<path fill="none" stroke="midnightblue" d="M392.19,-511.89C328.87,-507.81 196,-489.01 196,-403 196,-403 196,-403 196,-233 196,-200.06 206.4,-162.82 213.51,-141.21"/>
<polygon fill="midnightblue" stroke="midnightblue" points="216.84,-142.29 216.76,-131.7 210.22,-140.03 216.84,-142.29"/>
</g>
<!-- Node5 -->
<g id="node5" class="node">
<title>Node5</title>
<g id="a_node5"><a xlink:href="type_8h.html" target="_top" xlink:title="Defines typet, type_with_subtypet and type_with_subtypest.">
<polygon fill="none" stroke="black" points="401.5,-448.5 401.5,-467.5 448.5,-467.5 448.5,-448.5 401.5,-448.5"/>
<text text-anchor="middle" x="425" y="-455.5" font-family="Helvetica,sans-Serif" font-size="10.00">type.h</text>
</a>
</g>
</g>
<!-- Node3&#45;&gt;Node5 -->
<g id="edge4" class="edge">
<title>Node3&#45;&gt;Node5</title>
<path fill="none" stroke="midnightblue" d="M425,-504.08C425,-497.01 425,-486.86 425,-477.99"/>
<polygon fill="midnightblue" stroke="midnightblue" points="428.5,-477.75 425,-467.75 421.5,-477.75 428.5,-477.75"/>
</g>
<!-- Node33 -->
<g id="node25" class="node">
<title>Node33</title>
<g id="a_node25"><a xlink:href="validation__mode_8h.html" target="_top" xlink:title=" ">
<polygon fill="none" stroke="black" points="342.5,-336.5 342.5,-355.5 449.5,-355.5 449.5,-336.5 342.5,-336.5"/>
<text text-anchor="middle" x="396" y="-343.5" font-family="Helvetica,sans-Serif" font-size="10.00">validation_mode.h</text>
</a>
</g>
</g>
<!-- Node3&#45;&gt;Node33 -->
<g id="edge41" class="edge">
<title>Node3&#45;&gt;Node33</title>
<path fill="none" stroke="midnightblue" d="M415.98,-504.34C407.93,-495.93 396.7,-482.36 392,-468 380.65,-433.34 386.53,-390.07 391.49,-365.79"/>
<polygon fill="midnightblue" stroke="midnightblue" points="394.96,-366.32 393.71,-355.8 388.12,-364.8 394.96,-366.32"/>
</g>
<!-- Node34 -->
<g id="node26" class="node">
<title>Node34</title>
<g id="a_node26"><a xlink:href="validate__types_8h.html" target="_top" xlink:title=" ">
<polygon fill="none" stroke="black" points="506,-392.5 506,-411.5 604,-411.5 604,-392.5 506,-392.5"/>
<text text-anchor="middle" x="555" y="-399.5" font-family="Helvetica,sans-Serif" font-size="10.00">validate_types.h</text>
</a>
</g>
</g>
<!-- Node3&#45;&gt;Node34 -->
<g id="edge40" class="edge">
<title>Node3&#45;&gt;Node34</title>
<path fill="none" stroke="midnightblue" d="M433.96,-504.32C447.2,-491.59 472.92,-467.3 496,-448 508.6,-437.46 523.28,-426.26 534.85,-417.67"/>
<polygon fill="midnightblue" stroke="midnightblue" points="537.03,-420.41 543,-411.66 532.88,-414.78 537.03,-420.41"/>
</g>
<!-- Node35 -->
<g id="node27" class="node">
<title>Node35</title>
<g id="a_node27"><a xlink:href="validate__expressions_8h.html" target="_top" xlink:title=" ">
<polygon fill="none" stroke="black" points="505.5,-448.5 505.5,-467.5 634.5,-467.5 634.5,-448.5 505.5,-448.5"/>
<text text-anchor="middle" x="570" y="-455.5" font-family="Helvetica,sans-Serif" font-size="10.00">validate_expressions.h</text>
</a>
</g>
</g>
<!-- Node3&#45;&gt;Node35 -->
<g id="edge39" class="edge">
<title>Node3&#45;&gt;Node35</title>
<path fill="none" stroke="midnightblue" d="M447.98,-504.44C472.16,-495.44 510.42,-481.19 537.65,-471.05"/>
<polygon fill="midnightblue" stroke="midnightblue" points="538.98,-474.29 547.13,-467.52 536.54,-467.73 538.98,-474.29"/>
</g>
<!-- Node36 -->
<g id="node28" class="node">
<title>Node36</title>
<g id="a_node28"><a xlink:title=" ">
<polygon fill="none" stroke="#bfbfbf" points="652.5,-448.5 652.5,-467.5 717.5,-467.5 717.5,-448.5 652.5,-448.5"/>
<text text-anchor="middle" x="685" y="-455.5" font-family="Helvetica,sans-Serif" font-size="10.00">functional</text>
</a>
</g>
</g>
<!-- Node3&#45;&gt;Node36 -->
<g id="edge42" class="edge">
<title>Node3&#45;&gt;Node36</title>
<path fill="none" stroke="midnightblue" d="M457.52,-506.37C498.22,-498.05 570.34,-483.25 642.3,-468.14"/>
<polygon fill="midnightblue" stroke="midnightblue" points="643.38,-471.48 652.45,-466 641.94,-464.63 643.38,-471.48"/>
</g>
<!-- Node6 -->
<g id="node6" class="node">
<title>Node6</title>
<g id="a_node6"><a xlink:href="source__location_8h.html" target="_top" xlink:title=" ">
<polygon fill="none" stroke="black" points="572,-280.5 572,-299.5 674,-299.5 674,-280.5 572,-280.5"/>
<text text-anchor="middle" x="623" y="-287.5" font-family="Helvetica,sans-Serif" font-size="10.00">source_location.h</text>
</a>
</g>
</g>
<!-- Node5&#45;&gt;Node6 -->
<g id="edge5" class="edge">
<title>Node5&#45;&gt;Node6</title>
<path fill="none" stroke="midnightblue" d="M434.17,-448.41C447.7,-435.8 473.91,-411.64 497,-392 534.05,-360.47 578.77,-325.28 603.74,-305.87"/>
<polygon fill="midnightblue" stroke="midnightblue" points="605.94,-308.59 611.7,-299.7 601.65,-303.06 605.94,-308.59"/>
</g>
<!-- Node31 -->
<g id="node23" class="node">
<title>Node31</title>
<g id="a_node23"><a xlink:href="validate_8h.html" target="_top" xlink:title=" ">
<polygon fill="none" stroke="black" points="249.5,-392.5 249.5,-411.5 314.5,-411.5 314.5,-392.5 249.5,-392.5"/>
<text text-anchor="middle" x="282" y="-399.5" font-family="Helvetica,sans-Serif" font-size="10.00">validate.h</text>
</a>
</g>
</g>
<!-- Node5&#45;&gt;Node31 -->
<g id="edge30" class="edge">
<title>Node5&#45;&gt;Node31</title>
<path fill="none" stroke="midnightblue" d="M402.34,-448.44C378.6,-439.48 341.09,-425.31 314.26,-415.18"/>
<polygon fill="midnightblue" stroke="midnightblue" points="315.14,-411.77 304.55,-411.52 312.67,-418.32 315.14,-411.77"/>
</g>
<!-- Node5&#45;&gt;Node33 -->
<g id="edge38" class="edge">
<title>Node5&#45;&gt;Node33</title>
<path fill="none" stroke="midnightblue" d="M422.72,-448.37C418.02,-430.54 407.15,-389.3 400.82,-365.27"/>
<polygon fill="midnightblue" stroke="midnightblue" points="404.2,-364.37 398.27,-355.59 397.43,-366.15 404.2,-364.37"/>
</g>
<!-- Node5&#45;&gt;Node34 -->
<g id="edge37" class="edge">
<title>Node5&#45;&gt;Node34</title>
<path fill="none" stroke="midnightblue" d="M445.6,-448.44C466.99,-439.56 500.68,-425.56 525.02,-415.45"/>
<polygon fill="midnightblue" stroke="midnightblue" points="526.61,-418.58 534.5,-411.52 523.92,-412.12 526.61,-418.58"/>
</g>
<!-- Node7 -->
<g id="node7" class="node">
<title>Node7</title>
<g id="a_node7"><a xlink:href="deprecate_8h.html" target="_top" xlink:title=" ">
<polygon fill="none" stroke="black" points="724,-168.5 724,-187.5 798,-187.5 798,-168.5 724,-168.5"/>
<text text-anchor="middle" x="761" y="-175.5" font-family="Helvetica,sans-Serif" font-size="10.00">deprecate.h</text>
</a>
</g>
</g>
<!-- Node6&#45;&gt;Node7 -->
<g id="edge6" class="edge">
<title>Node6&#45;&gt;Node7</title>
<path fill="none" stroke="midnightblue" d="M645.66,-280.45C664.21,-272.75 690.48,-260.16 710,-244 726.52,-230.33 741.14,-210.46 750.44,-196.29"/>
<polygon fill="midnightblue" stroke="midnightblue" points="753.59,-197.86 755.99,-187.54 747.68,-194.11 753.59,-197.86"/>
</g>
<!-- Node8 -->
<g id="node8" class="node">
<title>Node8</title>
<g id="a_node8"><a xlink:href="irep_8h.html" target="_top" xlink:title=" ">
<polygon fill="none" stroke="black" points="529,-224.5 529,-243.5 573,-243.5 573,-224.5 529,-224.5"/>
<text text-anchor="middle" x="551" y="-231.5" font-family="Helvetica,sans-Serif" font-size="10.00">irep.h</text>
</a>
</g>
</g>
<!-- Node6&#45;&gt;Node8 -->
<g id="edge7" class="edge">
<title>Node6&#45;&gt;Node8</title>
<path fill="none" stroke="midnightblue" d="M611.43,-280.32C600.58,-272.18 584.12,-259.84 571.12,-250.09"/>
<polygon fill="midnightblue" stroke="midnightblue" points="572.88,-247.03 562.78,-243.83 568.68,-252.63 572.88,-247.03"/>
</g>
<!-- Node9 -->
<g id="node9" class="node">
<title>Node9</title>
<g id="a_node9"><a xlink:title=" ">
<polygon fill="none" stroke="#bfbfbf" points="578,-0.5 578,-19.5 622,-19.5 622,-0.5 578,-0.5"/>
<text text-anchor="middle" x="600" y="-7.5" font-family="Helvetica,sans-Serif" font-size="10.00">string</text>
</a>
</g>
</g>
<!-- Node6&#45;&gt;Node9 -->
<g id="edge29" class="edge">
<title>Node6&#45;&gt;Node9</title>
<path fill="none" stroke="midnightblue" d="M634.09,-280.33C654.51,-263.29 696,-223.24 696,-179 696,-179 696,-179 696,-121 696,-77.54 652.94,-42.96 624.5,-24.85"/>
<polygon fill="midnightblue" stroke="midnightblue" points="626.21,-21.79 615.85,-19.56 622.56,-27.77 626.21,-21.79"/>
</g>
<!-- Node29 -->
<g id="node21" class="node">
<title>Node29</title>
<g id="a_node21"><a xlink:href="optional_8h.html" target="_top" xlink:title=" ">
<polygon fill="none" stroke="black" points="762.5,-224.5 762.5,-243.5 827.5,-243.5 827.5,-224.5 762.5,-224.5"/>
<text text-anchor="middle" x="795" y="-231.5" font-family="Helvetica,sans-Serif" font-size="10.00">optional.h</text>
</a>
</g>
</g>
<!-- Node6&#45;&gt;Node29 -->
<g id="edge26" class="edge">
<title>Node6&#45;&gt;Node29</title>
<path fill="none" stroke="midnightblue" d="M650.25,-280.44C679.44,-271.28 725.92,-256.69 758.31,-246.52"/>
<polygon fill="midnightblue" stroke="midnightblue" points="759.38,-249.85 767.87,-243.52 757.28,-243.17 759.38,-249.85"/>
</g>
<!-- Node8&#45;&gt;Node9 -->
<g id="edge8" class="edge">
<title>Node8&#45;&gt;Node9</title>
<path fill="none" stroke="midnightblue" d="M573.23,-226.57C591.51,-220.02 616.38,-207.95 629,-188 660.43,-138.3 658.2,-111.23 638,-56 633.94,-44.91 625.81,-34.67 618.11,-26.76"/>
<polygon fill="midnightblue" stroke="midnightblue" points="620.36,-24.07 610.71,-19.7 615.53,-29.14 620.36,-24.07"/>
</g>
<!-- Node10 -->
<g id="node10" class="node">
<title>Node10</title>
<g id="a_node10"><a xlink:title=" ">
<polygon fill="none" stroke="#bfbfbf" points="490.5,-168.5 490.5,-187.5 537.5,-187.5 537.5,-168.5 490.5,-168.5"/>
<text text-anchor="middle" x="514" y="-175.5" font-family="Helvetica,sans-Serif" font-size="10.00">vector</text>
</a>
</g>
</g>
<!-- Node8&#45;&gt;Node10 -->
<g id="edge9" class="edge">
<title>Node8&#45;&gt;Node10</title>
<path fill="none" stroke="midnightblue" d="M544.89,-224.08C539.72,-216.53 532.15,-205.49 525.81,-196.23"/>
<polygon fill="midnightblue" stroke="midnightblue" points="528.54,-194.02 520,-187.75 522.76,-197.98 528.54,-194.02"/>
</g>
<!-- Node11 -->
<g id="node11" class="node">
<title>Node11</title>
<g id="a_node11"><a xlink:href="src_2util_2invariant_8h.html" target="_top" xlink:title=" ">
<polygon fill="none" stroke="black" points="299.5,-56.5 299.5,-75.5 368.5,-75.5 368.5,-56.5 299.5,-56.5"/>
<text text-anchor="middle" x="334" y="-63.5" font-family="Helvetica,sans-Serif" font-size="10.00">invariant.h</text>
</a>
</g>
</g>
<!-- Node8&#45;&gt;Node11 -->
<g id="edge10" class="edge">
<title>Node8&#45;&gt;Node11</title>
<path fill="none" stroke="midnightblue" d="M533.39,-224.47C518.24,-216.53 496.47,-203.59 481,-188 452.86,-159.64 463.11,-138.25 433,-112 415.96,-97.14 393.19,-86.34 373.79,-79.04"/>
<polygon fill="midnightblue" stroke="midnightblue" points="374.88,-75.72 364.29,-75.65 372.53,-82.31 374.88,-75.72"/>
</g>
<!-- Node15 -->
<g id="node15" class="node">
<title>Node15</title>
<g id="a_node15"><a xlink:href="irep__ids_8h.html" target="_top" xlink:title="util">
<polygon fill="none" stroke="black" points="556,-168.5 556,-187.5 620,-187.5 620,-168.5 556,-168.5"/>
<text text-anchor="middle" x="588" y="-175.5" font-family="Helvetica,sans-Serif" font-size="10.00">irep_ids.h</text>
</a>
</g>
</g>
<!-- Node8&#45;&gt;Node15 -->
<g id="edge15" class="edge">
<title>Node8&#45;&gt;Node15</title>
<path fill="none" stroke="midnightblue" d="M557.11,-224.08C562.28,-216.53 569.85,-205.49 576.19,-196.23"/>
<polygon fill="midnightblue" stroke="midnightblue" points="579.24,-197.98 582,-187.75 573.46,-194.02 579.24,-197.98"/>
</g>
<!-- Node26 -->
<g id="node18" class="node">
<title>Node26</title>
<g id="a_node18"><a xlink:href="forward__list__as__map_8h.html" target="_top" xlink:title=" ">
<polygon fill="none" stroke="black" points="238.5,-168.5 238.5,-187.5 365.5,-187.5 365.5,-168.5 238.5,-168.5"/>
<text text-anchor="middle" x="302" y="-175.5" font-family="Helvetica,sans-Serif" font-size="10.00">forward_list_as_map.h</text>
</a>
</g>
</g>
<!-- Node8&#45;&gt;Node26 -->
<g id="edge19" class="edge">
<title>Node8&#45;&gt;Node26</title>
<path fill="none" stroke="midnightblue" d="M528.9,-228.21C489.32,-219.62 405.43,-201.43 351.49,-189.73"/>
<polygon fill="midnightblue" stroke="midnightblue" points="351.97,-186.25 341.45,-187.56 350.48,-193.1 351.97,-186.25"/>
</g>
<!-- Node11&#45;&gt;Node9 -->
<g id="edge13" class="edge">
<title>Node11&#45;&gt;Node9</title>
<path fill="none" stroke="midnightblue" d="M368.5,-58C420.34,-47.47 517.6,-27.73 567.96,-17.51"/>
<polygon fill="midnightblue" stroke="midnightblue" points="568.85,-20.89 577.96,-15.47 567.46,-14.03 568.85,-20.89"/>
</g>
<!-- Node12 -->
<g id="node12" class="node">
<title>Node12</title>
<g id="a_node12"><a xlink:title=" ">
<polygon fill="none" stroke="#bfbfbf" points="380.5,-0.5 380.5,-19.5 429.5,-19.5 429.5,-0.5 380.5,-0.5"/>
<text text-anchor="middle" x="405" y="-7.5" font-family="Helvetica,sans-Serif" font-size="10.00">cstdlib</text>
</a>
</g>
</g>
<!-- Node11&#45;&gt;Node12 -->
<g id="edge11" class="edge">
<title>Node11&#45;&gt;Node12</title>
<path fill="none" stroke="midnightblue" d="M345.41,-56.32C356.11,-48.18 372.34,-35.84 385.16,-26.09"/>
<polygon fill="midnightblue" stroke="midnightblue" points="387.54,-28.67 393.39,-19.83 383.31,-23.1 387.54,-28.67"/>
</g>
<!-- Node13 -->
<g id="node13" class="node">
<title>Node13</title>
<g id="a_node13"><a xlink:title=" ">
<polygon fill="none" stroke="#bfbfbf" points="306,-0.5 306,-19.5 362,-19.5 362,-0.5 306,-0.5"/>
<text text-anchor="middle" x="334" y="-7.5" font-family="Helvetica,sans-Serif" font-size="10.00">sstream</text>
</a>
</g>
</g>
<!-- Node11&#45;&gt;Node13 -->
<g id="edge12" class="edge">
<title>Node11&#45;&gt;Node13</title>
<path fill="none" stroke="midnightblue" d="M334,-56.08C334,-49.01 334,-38.86 334,-29.99"/>
<polygon fill="midnightblue" stroke="midnightblue" points="337.5,-29.75 334,-19.75 330.5,-29.75 337.5,-29.75"/>
</g>
<!-- Node14 -->
<g id="node14" class="node">
<title>Node14</title>
<g id="a_node14"><a xlink:title=" ">
<polygon fill="none" stroke="#bfbfbf" points="218.5,-0.5 218.5,-19.5 287.5,-19.5 287.5,-0.5 218.5,-0.5"/>
<text text-anchor="middle" x="253" y="-7.5" font-family="Helvetica,sans-Serif" font-size="10.00">type_traits</text>
</a>
</g>
</g>
<!-- Node11&#45;&gt;Node14 -->
<g id="edge14" class="edge">
<title>Node11&#45;&gt;Node14</title>
<path fill="none" stroke="midnightblue" d="M320.99,-56.32C308.47,-47.98 289.32,-35.21 274.53,-25.35"/>
<polygon fill="midnightblue" stroke="midnightblue" points="276.24,-22.29 265.98,-19.65 272.36,-28.11 276.24,-22.29"/>
</g>
<!-- Node16 -->
<g id="node16" class="node">
<title>Node16</title>
<g id="a_node16"><a xlink:href="dstring_8h.html" target="_top" xlink:title="Container for C&#45;Strings.">
<polygon fill="none" stroke="red" points="570.5,-56.5 570.5,-75.5 629.5,-75.5 629.5,-56.5 570.5,-56.5"/>
<text text-anchor="middle" x="600" y="-63.5" font-family="Helvetica,sans-Serif" font-size="10.00">dstring.h</text>
</a>
</g>
</g>
<!-- Node15&#45;&gt;Node16 -->
<g id="edge16" class="edge">
<title>Node15&#45;&gt;Node16</title>
<path fill="none" stroke="midnightblue" d="M591.34,-168.2C594.55,-159.24 599.18,-144.88 601,-132 603.18,-116.62 602.72,-98.98 601.84,-85.96"/>
<polygon fill="midnightblue" stroke="midnightblue" points="605.32,-85.56 601.01,-75.89 598.34,-86.14 605.32,-85.56"/>
</g>
<!-- Node25 -->
<g id="node17" class="node">
<title>Node25</title>
<g id="a_node17"><a xlink:title=" ">
<polygon fill="none" stroke="#bfbfbf" points="518,-112.5 518,-131.5 592,-131.5 592,-112.5 518,-112.5"/>
<text text-anchor="middle" x="555" y="-119.5" font-family="Helvetica,sans-Serif" font-size="10.00">irep_ids.def</text>
</a>
</g>
</g>
<!-- Node15&#45;&gt;Node25 -->
<g id="edge18" class="edge">
<title>Node15&#45;&gt;Node25</title>
<path fill="none" stroke="midnightblue" d="M582.55,-168.08C577.99,-160.61 571.33,-149.72 565.71,-140.52"/>
<polygon fill="midnightblue" stroke="midnightblue" points="568.55,-138.46 560.35,-131.75 562.58,-142.11 568.55,-138.46"/>
</g>
<!-- Node16&#45;&gt;Node9 -->
<g id="edge17" class="edge">
<title>Node16&#45;&gt;Node9</title>
<path fill="none" stroke="midnightblue" d="M600,-56.08C600,-49.01 600,-38.86 600,-29.99"/>
<polygon fill="midnightblue" stroke="midnightblue" points="603.5,-29.75 600,-19.75 596.5,-29.75 603.5,-29.75"/>
</g>
<!-- Node26&#45;&gt;Node2 -->
<g id="edge20" class="edge">
<title>Node26&#45;&gt;Node2</title>
<path fill="none" stroke="midnightblue" d="M269.68,-168.44C234.61,-159.16 178.5,-144.31 140.04,-134.13"/>
<polygon fill="midnightblue" stroke="midnightblue" points="140.74,-130.69 130.17,-131.52 138.94,-137.46 140.74,-130.69"/>
</g>
<!-- Node26&#45;&gt;Node4 -->
<g id="edge22" class="edge">
<title>Node26&#45;&gt;Node4</title>
<path fill="none" stroke="midnightblue" d="M288.83,-168.32C276.15,-159.98 256.77,-147.21 241.79,-137.35"/>
<polygon fill="midnightblue" stroke="midnightblue" points="243.42,-134.23 233.14,-131.65 239.57,-140.08 243.42,-134.23"/>
</g>
<!-- Node27 -->
<g id="node19" class="node">
<title>Node27</title>
<g id="a_node19"><a xlink:title=" ">
<polygon fill="none" stroke="#bfbfbf" points="350,-112.5 350,-131.5 424,-131.5 424,-112.5 350,-112.5"/>
<text text-anchor="middle" x="387" y="-119.5" font-family="Helvetica,sans-Serif" font-size="10.00">forward_list</text>
</a>
</g>
</g>
<!-- Node26&#45;&gt;Node27 -->
<g id="edge21" class="edge">
<title>Node26&#45;&gt;Node27</title>
<path fill="none" stroke="midnightblue" d="M315.66,-168.32C328.92,-159.9 349.27,-146.97 364.85,-137.07"/>
<polygon fill="midnightblue" stroke="midnightblue" points="366.81,-139.97 373.38,-131.65 363.06,-134.06 366.81,-139.97"/>
</g>
<!-- Node28 -->
<g id="node20" class="node">
<title>Node28</title>
<g id="a_node20"><a xlink:href="narrow_8h.html" target="_top" xlink:title=" ">
<polygon fill="none" stroke="black" points="272.5,-112.5 272.5,-131.5 331.5,-131.5 331.5,-112.5 272.5,-112.5"/>
<text text-anchor="middle" x="302" y="-119.5" font-family="Helvetica,sans-Serif" font-size="10.00">narrow.h</text>
</a>
</g>
</g>
<!-- Node26&#45;&gt;Node28 -->
<g id="edge23" class="edge">
<title>Node26&#45;&gt;Node28</title>
<path fill="none" stroke="midnightblue" d="M302,-168.08C302,-161.01 302,-150.86 302,-141.99"/>
<polygon fill="midnightblue" stroke="midnightblue" points="305.5,-141.75 302,-131.75 298.5,-141.75 305.5,-141.75"/>
</g>
<!-- Node28&#45;&gt;Node11 -->
<g id="edge25" class="edge">
<title>Node28&#45;&gt;Node11</title>
<path fill="none" stroke="midnightblue" d="M307.28,-112.08C311.71,-104.61 318.16,-93.72 323.62,-84.52"/>
<polygon fill="midnightblue" stroke="midnightblue" points="326.73,-86.14 328.81,-75.75 320.71,-82.57 326.73,-86.14"/>
</g>
<!-- Node28&#45;&gt;Node14 -->
<g id="edge24" class="edge">
<title>Node28&#45;&gt;Node14</title>
<path fill="none" stroke="midnightblue" d="M298.16,-112.37C290.18,-94.46 271.67,-52.92 261,-28.95"/>
<polygon fill="midnightblue" stroke="midnightblue" points="264.09,-27.3 256.83,-19.59 257.7,-30.15 264.09,-27.3"/>
</g>
<!-- Node29&#45;&gt;Node7 -->
<g id="edge27" class="edge">
<title>Node29&#45;&gt;Node7</title>
<path fill="none" stroke="midnightblue" d="M789.39,-224.08C784.63,-216.53 777.68,-205.49 771.85,-196.23"/>
<polygon fill="midnightblue" stroke="midnightblue" points="774.8,-194.35 766.51,-187.75 768.88,-198.08 774.8,-194.35"/>
</g>
<!-- Node30 -->
<g id="node22" class="node">
<title>Node30</title>
<g id="a_node22"><a xlink:title=" ">
<polygon fill="none" stroke="#bfbfbf" points="816,-168.5 816,-187.5 872,-187.5 872,-168.5 816,-168.5"/>
<text text-anchor="middle" x="844" y="-175.5" font-family="Helvetica,sans-Serif" font-size="10.00">optional</text>
</a>
</g>
</g>
<!-- Node29&#45;&gt;Node30 -->
<g id="edge28" class="edge">
<title>Node29&#45;&gt;Node30</title>
<path fill="none" stroke="midnightblue" d="M803.09,-224.08C810.16,-216.3 820.59,-204.8 829.15,-195.37"/>
<polygon fill="midnightblue" stroke="midnightblue" points="831.93,-197.51 836.06,-187.75 826.75,-192.8 831.93,-197.51"/>
</g>
<!-- Node31&#45;&gt;Node14 -->
<g id="edge31" class="edge">
<title>Node31&#45;&gt;Node14</title>
<path fill="none" stroke="midnightblue" d="M249.35,-400.76C182.86,-398.37 38,-382.66 38,-291 38,-291 38,-291 38,-121 38,-45.14 145.39,-21.56 208.38,-14.26"/>
<polygon fill="midnightblue" stroke="midnightblue" points="208.88,-17.73 218.46,-13.19 208.14,-10.77 208.88,-17.73"/>
</g>
<!-- Node32 -->
<g id="node24" class="node">
<title>Node32</title>
<g id="a_node24"><a xlink:href="exception__utils_8h.html" target="_top" xlink:title=" ">
<polygon fill="none" stroke="black" points="224,-336.5 224,-355.5 324,-355.5 324,-336.5 224,-336.5"/>
<text text-anchor="middle" x="274" y="-343.5" font-family="Helvetica,sans-Serif" font-size="10.00">exception_utils.h</text>
</a>
</g>
</g>
<!-- Node31&#45;&gt;Node32 -->
<g id="edge32" class="edge">
<title>Node31&#45;&gt;Node32</title>
<path fill="none" stroke="midnightblue" d="M280.68,-392.08C279.62,-384.93 278.09,-374.64 276.77,-365.69"/>
<polygon fill="midnightblue" stroke="midnightblue" points="280.22,-365.13 275.3,-355.75 273.3,-366.16 280.22,-365.13"/>
</g>
<!-- Node31&#45;&gt;Node33 -->
<g id="edge36" class="edge">
<title>Node31&#45;&gt;Node33</title>
<path fill="none" stroke="midnightblue" d="M300.06,-392.44C318.57,-383.68 347.58,-369.94 368.86,-359.86"/>
<polygon fill="midnightblue" stroke="midnightblue" points="370.48,-362.96 378.02,-355.52 367.49,-356.63 370.48,-362.96"/>
</g>
<!-- Node32&#45;&gt;Node6 -->
<g id="edge35" class="edge">
<title>Node32&#45;&gt;Node6</title>
<path fill="none" stroke="midnightblue" d="M324,-337.26C386.75,-327.55 494.31,-310.91 561.88,-300.46"/>
<polygon fill="midnightblue" stroke="midnightblue" points="562.61,-303.89 571.95,-298.9 561.54,-296.97 562.61,-303.89"/>
</g>
<!-- Node32&#45;&gt;Node9 -->
<g id="edge33" class="edge">
<title>Node32&#45;&gt;Node9</title>
<path fill="none" stroke="midnightblue" d="M282.39,-336.41C325.98,-291.74 526.91,-85.88 584.52,-26.86"/>
<polygon fill="midnightblue" stroke="midnightblue" points="587.19,-29.14 591.67,-19.54 582.18,-24.25 587.19,-29.14"/>
</g>
<!-- Node32&#45;&gt;Node11 -->
<g id="edge34" class="edge">
<title>Node32&#45;&gt;Node11</title>
<path fill="none" stroke="midnightblue" d="M264.42,-336.16C230.27,-303.61 119.51,-188.28 177,-112 190.6,-93.96 248.11,-80.94 289.59,-73.68"/>
<polygon fill="midnightblue" stroke="midnightblue" points="290.21,-77.13 299.49,-72.01 289.04,-70.23 290.21,-77.13"/>
</g>
</g>
</svg>
