<?xml version="1.0" encoding="UTF-8" standalone="no"?>
<!DOCTYPE svg PUBLIC "-//W3C//DTD SVG 1.1//EN"
 "http://www.w3.org/Graphics/SVG/1.1/DTD/svg11.dtd">
<!-- Generated by graphviz version 2.43.0 (0)
 -->
<!-- Title: /home/runner/work/cbmc/cbmc/src/cpp/cpp_scope.cpp Pages: 1 -->
<svg width="647pt" height="599pt"
 viewBox="0.00 0.00 647.00 599.00" xmlns="http://www.w3.org/2000/svg" xmlns:xlink="http://www.w3.org/1999/xlink">
<g id="graph0" class="graph" transform="scale(1 1) rotate(0) translate(4 595)">
<title>/home/runner/work/cbmc/cbmc/src/cpp/cpp_scope.cpp</title>
<!-- Node1 -->
<g id="node1" class="node">
<title>Node1</title>
<g id="a_node1"><a xlink:title=" ">
<polygon fill="#bfbfbf" stroke="black" points="74,-560.5 74,-590.5 232,-590.5 232,-560.5 74,-560.5"/>
<text text-anchor="start" x="82" y="-578.5" font-family="Helvetica,sans-Serif" font-size="10.00">/home/runner/work/cbmc</text>
<text text-anchor="middle" x="153" y="-567.5" font-family="Helvetica,sans-Serif" font-size="10.00">/cbmc/src/cpp/cpp_scope.cpp</text>
</a>
</g>
</g>
<!-- Node2 -->
<g id="node2" class="node">
<title>Node2</title>
<g id="a_node2"><a xlink:href="cpp__scope_8h.html" target="_top" xlink:title=" ">
<polygon fill="none" stroke="black" points="114.5,-504.5 114.5,-523.5 191.5,-523.5 191.5,-504.5 114.5,-504.5"/>
<text text-anchor="middle" x="153" y="-511.5" font-family="Helvetica,sans-Serif" font-size="10.00">cpp_scope.h</text>
</a>
</g>
</g>
<!-- Node1&#45;&gt;Node2 -->
<g id="edge1" class="edge">
<title>Node1&#45;&gt;Node2</title>
<path fill="none" stroke="midnightblue" d="M153,-560.4C153,-552.47 153,-542.46 153,-533.86"/>
<polygon fill="midnightblue" stroke="midnightblue" points="156.5,-533.66 153,-523.66 149.5,-533.66 156.5,-533.66"/>
</g>
<!-- Node3 -->
<g id="node3" class="node">
<title>Node3</title>
<g id="a_node3"><a xlink:title=" ">
<polygon fill="none" stroke="#bfbfbf" points="0,-392.5 0,-411.5 48,-411.5 48,-392.5 0,-392.5"/>
<text text-anchor="middle" x="24" y="-399.5" font-family="Helvetica,sans-Serif" font-size="10.00">iosfwd</text>
</a>
</g>
</g>
<!-- Node2&#45;&gt;Node3 -->
<g id="edge2" class="edge">
<title>Node2&#45;&gt;Node3</title>
<path fill="none" stroke="midnightblue" d="M142.88,-504.37C121.02,-485.73 69.19,-441.53 41.75,-418.13"/>
<polygon fill="midnightblue" stroke="midnightblue" points="43.96,-415.42 34.08,-411.59 39.41,-420.74 43.96,-415.42"/>
</g>
<!-- Node4 -->
<g id="node4" class="node">
<title>Node4</title>
<g id="a_node4"><a xlink:title=" ">
<polygon fill="none" stroke="#bfbfbf" points="137,-448.5 137,-467.5 169,-467.5 169,-448.5 137,-448.5"/>
<text text-anchor="middle" x="153" y="-455.5" font-family="Helvetica,sans-Serif" font-size="10.00">set</text>
</a>
</g>
</g>
<!-- Node2&#45;&gt;Node4 -->
<g id="edge3" class="edge">
<title>Node2&#45;&gt;Node4</title>
<path fill="none" stroke="midnightblue" d="M153,-504.08C153,-497.01 153,-486.86 153,-477.99"/>
<polygon fill="midnightblue" stroke="midnightblue" points="156.5,-477.75 153,-467.75 149.5,-477.75 156.5,-477.75"/>
</g>
<!-- Node5 -->
<g id="node5" class="node">
<title>Node5</title>
<g id="a_node5"><a xlink:href="cpp__id_8h.html" target="_top" xlink:title=" ">
<polygon fill="none" stroke="black" points="201.5,-448.5 201.5,-467.5 258.5,-467.5 258.5,-448.5 201.5,-448.5"/>
<text text-anchor="middle" x="230" y="-455.5" font-family="Helvetica,sans-Serif" font-size="10.00">cpp_id.h</text>
</a>
</g>
</g>
<!-- Node2&#45;&gt;Node5 -->
<g id="edge4" class="edge">
<title>Node2&#45;&gt;Node5</title>
<path fill="none" stroke="midnightblue" d="M165.37,-504.32C177.16,-496.06 195.13,-483.45 209.14,-473.63"/>
<polygon fill="midnightblue" stroke="midnightblue" points="211.48,-476.26 217.66,-467.65 207.46,-470.53 211.48,-476.26"/>
</g>
<!-- Node5&#45;&gt;Node3 -->
<g id="edge7" class="edge">
<title>Node5&#45;&gt;Node3</title>
<path fill="none" stroke="midnightblue" d="M201.36,-449.49C163.83,-439.65 98.1,-422.43 58.07,-411.93"/>
<polygon fill="midnightblue" stroke="midnightblue" points="58.79,-408.5 48.23,-409.35 57.02,-415.27 58.79,-408.5"/>
</g>
<!-- Node6 -->
<g id="node6" class="node">
<title>Node6</title>
<g id="a_node6"><a xlink:title=" ">
<polygon fill="none" stroke="#bfbfbf" points="601,-392.5 601,-411.5 639,-411.5 639,-392.5 601,-392.5"/>
<text text-anchor="middle" x="620" y="-399.5" font-family="Helvetica,sans-Serif" font-size="10.00">map</text>
</a>
</g>
</g>
<!-- Node5&#45;&gt;Node6 -->
<g id="edge5" class="edge">
<title>Node5&#45;&gt;Node6</title>
<path fill="none" stroke="midnightblue" d="M258.91,-454.75C319.95,-449.69 466.29,-435.94 587,-412 588.28,-411.75 589.58,-411.47 590.89,-411.18"/>
<polygon fill="midnightblue" stroke="midnightblue" points="592.05,-414.5 600.91,-408.7 590.37,-407.7 592.05,-414.5"/>
</g>
<!-- Node7 -->
<g id="node7" class="node">
<title>Node7</title>
<g id="a_node7"><a xlink:title=" ">
<polygon fill="none" stroke="#bfbfbf" points="278,-0.5 278,-19.5 322,-19.5 322,-0.5 278,-0.5"/>
<text text-anchor="middle" x="300" y="-7.5" font-family="Helvetica,sans-Serif" font-size="10.00">string</text>
</a>
</g>
</g>
<!-- Node5&#45;&gt;Node7 -->
<g id="edge6" class="edge">
<title>Node5&#45;&gt;Node7</title>
<path fill="none" stroke="midnightblue" d="M201.39,-450.43C156.86,-438.33 76,-407.95 76,-347 76,-347 76,-347 76,-121 76,-36.63 205.61,-16.97 267.65,-12.39"/>
<polygon fill="midnightblue" stroke="midnightblue" points="267.95,-15.88 277.7,-11.74 267.5,-8.89 267.95,-15.88"/>
</g>
<!-- Node8 -->
<g id="node8" class="node">
<title>Node8</title>
<g id="a_node8"><a xlink:href="expr_8h.html" target="_top" xlink:title=" ">
<polygon fill="none" stroke="black" points="212.5,-392.5 212.5,-411.5 277.5,-411.5 277.5,-392.5 212.5,-392.5"/>
<text text-anchor="middle" x="245" y="-399.5" font-family="Helvetica,sans-Serif" font-size="10.00">util/expr.h</text>
</a>
</g>
</g>
<!-- Node5&#45;&gt;Node8 -->
<g id="edge8" class="edge">
<title>Node5&#45;&gt;Node8</title>
<path fill="none" stroke="midnightblue" d="M232.48,-448.08C234.49,-440.85 237.39,-430.41 239.89,-421.4"/>
<polygon fill="midnightblue" stroke="midnightblue" points="243.26,-422.32 242.57,-411.75 236.52,-420.45 243.26,-422.32"/>
</g>
<!-- Node14 -->
<g id="node13" class="node">
<title>Node14</title>
<g id="a_node13"><a xlink:href="src_2util_2invariant_8h.html" target="_top" xlink:title=" ">
<polygon fill="none" stroke="red" points="437.5,-56.5 437.5,-75.5 506.5,-75.5 506.5,-56.5 437.5,-56.5"/>
<text text-anchor="middle" x="472" y="-63.5" font-family="Helvetica,sans-Serif" font-size="10.00">invariant.h</text>
</a>
</g>
</g>
<!-- Node5&#45;&gt;Node14 -->
<g id="edge32" class="edge">
<title>Node5&#45;&gt;Node14</title>
<path fill="none" stroke="midnightblue" d="M258.65,-454.05C341.09,-444.77 573,-412.82 573,-347 573,-347 573,-347 573,-177 573,-132.59 527.79,-98.37 497.86,-80.58"/>
<polygon fill="midnightblue" stroke="midnightblue" points="499.55,-77.51 489.13,-75.59 496.08,-83.59 499.55,-77.51"/>
</g>
<!-- Node9 -->
<g id="node9" class="node">
<title>Node9</title>
<g id="a_node9"><a xlink:href="as__const_8h.html" target="_top" xlink:title=" ">
<polygon fill="none" stroke="black" points="411,-336.5 411,-355.5 479,-355.5 479,-336.5 411,-336.5"/>
<text text-anchor="middle" x="445" y="-343.5" font-family="Helvetica,sans-Serif" font-size="10.00">as_const.h</text>
</a>
</g>
</g>
<!-- Node8&#45;&gt;Node9 -->
<g id="edge9" class="edge">
<title>Node8&#45;&gt;Node9</title>
<path fill="none" stroke="midnightblue" d="M276.69,-392.44C311.07,-383.16 366.08,-368.31 403.79,-358.13"/>
<polygon fill="midnightblue" stroke="midnightblue" points="404.72,-361.5 413.46,-355.52 402.89,-354.74 404.72,-361.5"/>
</g>
<!-- Node10 -->
<g id="node10" class="node">
<title>Node10</title>
<g id="a_node10"><a xlink:href="type_8h.html" target="_top" xlink:title=" ">
<polygon fill="none" stroke="black" points="497.5,-336.5 497.5,-355.5 544.5,-355.5 544.5,-336.5 497.5,-336.5"/>
<text text-anchor="middle" x="521" y="-343.5" font-family="Helvetica,sans-Serif" font-size="10.00">type.h</text>
</a>
</g>
</g>
<!-- Node8&#45;&gt;Node10 -->
<g id="edge10" class="edge">
<title>Node8&#45;&gt;Node10</title>
<path fill="none" stroke="midnightblue" d="M277.8,-395.82C322.82,-388.51 406.48,-374.23 487.41,-355.97"/>
<polygon fill="midnightblue" stroke="midnightblue" points="488.29,-359.36 497.27,-353.73 486.74,-352.54 488.29,-359.36"/>
</g>
<!-- Node36 -->
<g id="node18" class="node">
<title>Node36</title>
<g id="a_node18"><a xlink:href="validation__mode_8h.html" target="_top" xlink:title=" ">
<polygon fill="none" stroke="black" points="243.5,-224.5 243.5,-243.5 350.5,-243.5 350.5,-224.5 243.5,-224.5"/>
<text text-anchor="middle" x="297" y="-231.5" font-family="Helvetica,sans-Serif" font-size="10.00">validation_mode.h</text>
</a>
</g>
</g>
<!-- Node8&#45;&gt;Node36 -->
<g id="edge30" class="edge">
<title>Node8&#45;&gt;Node36</title>
<path fill="none" stroke="midnightblue" d="M217.27,-392.35C199.39,-385.35 177.12,-373.71 164,-356 143.65,-328.52 131.72,-307.53 152,-280 170.68,-254.64 203.51,-243.15 233.22,-238.11"/>
<polygon fill="midnightblue" stroke="midnightblue" points="233.77,-241.57 243.15,-236.64 232.74,-234.64 233.77,-241.57"/>
</g>
<!-- Node37 -->
<g id="node19" class="node">
<title>Node37</title>
<g id="a_node19"><a xlink:href="validate__types_8h.html" target="_top" xlink:title=" ">
<polygon fill="none" stroke="black" points="161,-280.5 161,-299.5 259,-299.5 259,-280.5 161,-280.5"/>
<text text-anchor="middle" x="210" y="-287.5" font-family="Helvetica,sans-Serif" font-size="10.00">validate_types.h</text>
</a>
</g>
</g>
<!-- Node8&#45;&gt;Node37 -->
<g id="edge29" class="edge">
<title>Node8&#45;&gt;Node37</title>
<path fill="none" stroke="midnightblue" d="M218.07,-392.36C201.28,-385.41 181.02,-373.82 171,-356 161.26,-338.67 176.59,-319.17 190.79,-306.08"/>
<polygon fill="midnightblue" stroke="midnightblue" points="193.11,-308.71 198.4,-299.53 188.54,-303.4 193.11,-308.71"/>
</g>
<!-- Node38 -->
<g id="node20" class="node">
<title>Node38</title>
<g id="a_node20"><a xlink:href="validate__expressions_8h.html" target="_top" xlink:title=" ">
<polygon fill="none" stroke="black" points="180.5,-336.5 180.5,-355.5 309.5,-355.5 309.5,-336.5 180.5,-336.5"/>
<text text-anchor="middle" x="245" y="-343.5" font-family="Helvetica,sans-Serif" font-size="10.00">validate_expressions.h</text>
</a>
</g>
</g>
<!-- Node8&#45;&gt;Node38 -->
<g id="edge28" class="edge">
<title>Node8&#45;&gt;Node38</title>
<path fill="none" stroke="midnightblue" d="M245,-392.08C245,-385.01 245,-374.86 245,-365.99"/>
<polygon fill="midnightblue" stroke="midnightblue" points="248.5,-365.75 245,-355.75 241.5,-365.75 248.5,-365.75"/>
</g>
<!-- Node39 -->
<g id="node21" class="node">
<title>Node39</title>
<g id="a_node21"><a xlink:title=" ">
<polygon fill="none" stroke="#bfbfbf" points="327.5,-336.5 327.5,-355.5 392.5,-355.5 392.5,-336.5 327.5,-336.5"/>
<text text-anchor="middle" x="360" y="-343.5" font-family="Helvetica,sans-Serif" font-size="10.00">functional</text>
</a>
</g>
</g>
<!-- Node8&#45;&gt;Node39 -->
<g id="edge31" class="edge">
<title>Node8&#45;&gt;Node39</title>
<path fill="none" stroke="midnightblue" d="M263.22,-392.44C281.9,-383.68 311.16,-369.94 332.62,-359.86"/>
<polygon fill="midnightblue" stroke="midnightblue" points="334.3,-362.93 341.86,-355.52 331.32,-356.6 334.3,-362.93"/>
</g>
<!-- Node11 -->
<g id="node11" class="node">
<title>Node11</title>
<g id="a_node11"><a xlink:href="source__location_8h.html" target="_top" xlink:title=" ">
<polygon fill="none" stroke="black" points="304,-168.5 304,-187.5 406,-187.5 406,-168.5 304,-168.5"/>
<text text-anchor="middle" x="355" y="-175.5" font-family="Helvetica,sans-Serif" font-size="10.00">source_location.h</text>
</a>
</g>
</g>
<!-- Node10&#45;&gt;Node11 -->
<g id="edge11" class="edge">
<title>Node10&#45;&gt;Node11</title>
<path fill="none" stroke="midnightblue" d="M501.77,-336.41C485.16,-328.43 461.04,-315.46 443,-300 407.48,-269.56 378.39,-222.06 364.25,-196.58"/>
<polygon fill="midnightblue" stroke="midnightblue" points="367.28,-194.81 359.44,-187.68 361.12,-198.14 367.28,-194.81"/>
</g>
<!-- Node34 -->
<g id="node16" class="node">
<title>Node34</title>
<g id="a_node16"><a xlink:href="validate_8h.html" target="_top" xlink:title=" ">
<polygon fill="none" stroke="black" points="452.5,-280.5 452.5,-299.5 517.5,-299.5 517.5,-280.5 452.5,-280.5"/>
<text text-anchor="middle" x="485" y="-287.5" font-family="Helvetica,sans-Serif" font-size="10.00">validate.h</text>
</a>
</g>
</g>
<!-- Node10&#45;&gt;Node34 -->
<g id="edge19" class="edge">
<title>Node10&#45;&gt;Node34</title>
<path fill="none" stroke="midnightblue" d="M515.06,-336.08C510.02,-328.53 502.66,-317.49 496.49,-308.23"/>
<polygon fill="midnightblue" stroke="midnightblue" points="499.29,-306.13 490.83,-299.75 493.47,-310.01 499.29,-306.13"/>
</g>
<!-- Node10&#45;&gt;Node36 -->
<g id="edge27" class="edge">
<title>Node10&#45;&gt;Node36</title>
<path fill="none" stroke="midnightblue" d="M497.4,-338.51C455.24,-326.88 370.85,-303.36 365,-300 342.99,-287.34 322.63,-266.08 310.04,-251.34"/>
<polygon fill="midnightblue" stroke="midnightblue" points="312.64,-248.99 303.57,-243.53 307.25,-253.46 312.64,-248.99"/>
</g>
<!-- Node10&#45;&gt;Node37 -->
<g id="edge26" class="edge">
<title>Node10&#45;&gt;Node37</title>
<path fill="none" stroke="midnightblue" d="M497.28,-338.21C494.17,-337.41 491.02,-336.65 488,-336 413.1,-319.77 325.7,-306.55 269.19,-298.73"/>
<polygon fill="midnightblue" stroke="midnightblue" points="269.39,-295.22 259.01,-297.33 268.44,-302.16 269.39,-295.22"/>
</g>
<!-- Node11&#45;&gt;Node7 -->
<g id="edge18" class="edge">
<title>Node11&#45;&gt;Node7</title>
<path fill="none" stroke="midnightblue" d="M320.82,-168.49C302.01,-161.88 280.26,-150.6 269,-132 248.87,-98.75 272.12,-52.76 287.87,-28.16"/>
<polygon fill="midnightblue" stroke="midnightblue" points="290.97,-29.82 293.63,-19.57 285.16,-25.92 290.97,-29.82"/>
</g>
<!-- Node12 -->
<g id="node12" class="node">
<title>Node12</title>
<g id="a_node12"><a xlink:href="irep_8h.html" target="_top" xlink:title=" ">
<polygon fill="none" stroke="red" points="278,-112.5 278,-131.5 322,-131.5 322,-112.5 278,-112.5"/>
<text text-anchor="middle" x="300" y="-119.5" font-family="Helvetica,sans-Serif" font-size="10.00">irep.h</text>
</a>
</g>
</g>
<!-- Node11&#45;&gt;Node12 -->
<g id="edge12" class="edge">
<title>Node11&#45;&gt;Node12</title>
<path fill="none" stroke="midnightblue" d="M345.92,-168.08C337.83,-160.14 325.8,-148.34 316.09,-138.8"/>
<polygon fill="midnightblue" stroke="midnightblue" points="318.5,-136.26 308.91,-131.75 313.6,-141.25 318.5,-136.26"/>
</g>
<!-- Node32 -->
<g id="node15" class="node">
<title>Node32</title>
<g id="a_node15"><a xlink:href="optional_8h.html" target="_top" xlink:title=" ">
<polygon fill="none" stroke="red" points="340.5,-112.5 340.5,-131.5 405.5,-131.5 405.5,-112.5 340.5,-112.5"/>
<text text-anchor="middle" x="373" y="-119.5" font-family="Helvetica,sans-Serif" font-size="10.00">optional.h</text>
</a>
</g>
</g>
<!-- Node11&#45;&gt;Node32 -->
<g id="edge17" class="edge">
<title>Node11&#45;&gt;Node32</title>
<path fill="none" stroke="midnightblue" d="M357.97,-168.08C360.38,-160.85 363.86,-150.41 366.87,-141.4"/>
<polygon fill="midnightblue" stroke="midnightblue" points="370.24,-142.34 370.08,-131.75 363.6,-140.13 370.24,-142.34"/>
</g>
<!-- Node12&#45;&gt;Node7 -->
<g id="edge13" class="edge">
<title>Node12&#45;&gt;Node7</title>
<path fill="none" stroke="midnightblue" d="M300,-112.37C300,-94.62 300,-53.67 300,-29.6"/>
<polygon fill="midnightblue" stroke="midnightblue" points="303.5,-29.59 300,-19.59 296.5,-29.59 303.5,-29.59"/>
</g>
<!-- Node12&#45;&gt;Node14 -->
<g id="edge14" class="edge">
<title>Node12&#45;&gt;Node14</title>
<path fill="none" stroke="midnightblue" d="M322.13,-114.05C350.71,-105.08 400.83,-89.35 435.18,-78.56"/>
<polygon fill="midnightblue" stroke="midnightblue" points="436.36,-81.86 444.85,-75.52 434.27,-75.18 436.36,-81.86"/>
</g>
<!-- Node14&#45;&gt;Node7 -->
<g id="edge15" class="edge">
<title>Node14&#45;&gt;Node7</title>
<path fill="none" stroke="midnightblue" d="M444.75,-56.44C414.15,-46.84 364.54,-31.26 332.09,-21.07"/>
<polygon fill="midnightblue" stroke="midnightblue" points="332.79,-17.63 322.2,-17.97 330.7,-24.31 332.79,-17.63"/>
</g>
<!-- Node17 -->
<g id="node14" class="node">
<title>Node17</title>
<g id="a_node14"><a xlink:title=" ">
<polygon fill="none" stroke="#bfbfbf" points="468.5,-0.5 468.5,-19.5 537.5,-19.5 537.5,-0.5 468.5,-0.5"/>
<text text-anchor="middle" x="503" y="-7.5" font-family="Helvetica,sans-Serif" font-size="10.00">type_traits</text>
</a>
</g>
</g>
<!-- Node14&#45;&gt;Node17 -->
<g id="edge16" class="edge">
<title>Node14&#45;&gt;Node17</title>
<path fill="none" stroke="midnightblue" d="M477.12,-56.08C481.41,-48.61 487.66,-37.72 492.94,-28.52"/>
<polygon fill="midnightblue" stroke="midnightblue" points="496.03,-30.17 497.98,-19.75 489.96,-26.68 496.03,-30.17"/>
</g>
<!-- Node34&#45;&gt;Node17 -->
<g id="edge20" class="edge">
<title>Node34&#45;&gt;Node17</title>
<path fill="none" stroke="midnightblue" d="M492.32,-280.22C499.26,-271.51 509.56,-257.54 516,-244 528.92,-216.82 535,-209.1 535,-179 535,-179 535,-179 535,-121 535,-87.33 521.01,-50.08 511.53,-28.72"/>
<polygon fill="midnightblue" stroke="midnightblue" points="514.68,-27.21 507.32,-19.59 508.33,-30.14 514.68,-27.21"/>
</g>
<!-- Node35 -->
<g id="node17" class="node">
<title>Node35</title>
<g id="a_node17"><a xlink:href="exception__utils_8h.html" target="_top" xlink:title=" ">
<polygon fill="none" stroke="black" points="407,-224.5 407,-243.5 507,-243.5 507,-224.5 407,-224.5"/>
<text text-anchor="middle" x="457" y="-231.5" font-family="Helvetica,sans-Serif" font-size="10.00">exception_utils.h</text>
</a>
</g>
</g>
<!-- Node34&#45;&gt;Node35 -->
<g id="edge21" class="edge">
<title>Node34&#45;&gt;Node35</title>
<path fill="none" stroke="midnightblue" d="M480.38,-280.08C476.54,-272.69 470.98,-261.95 466.24,-252.81"/>
<polygon fill="midnightblue" stroke="midnightblue" points="469.25,-251.02 461.54,-243.75 463.03,-254.24 469.25,-251.02"/>
</g>
<!-- Node34&#45;&gt;Node36 -->
<g id="edge25" class="edge">
<title>Node34&#45;&gt;Node36</title>
<path fill="none" stroke="midnightblue" d="M455.21,-280.44C423.17,-271.24 372.07,-256.56 336.65,-246.39"/>
<polygon fill="midnightblue" stroke="midnightblue" points="337.23,-242.91 326.65,-243.52 335.29,-249.64 337.23,-242.91"/>
</g>
<!-- Node35&#45;&gt;Node7 -->
<g id="edge22" class="edge">
<title>Node35&#45;&gt;Node7</title>
<path fill="none" stroke="midnightblue" d="M455.49,-224.41C451.52,-203.62 439.32,-149.51 414,-112 389.1,-75.11 347.66,-43.06 322.19,-25.44"/>
<polygon fill="midnightblue" stroke="midnightblue" points="323.84,-22.33 313.59,-19.62 319.91,-28.13 323.84,-22.33"/>
</g>
<!-- Node35&#45;&gt;Node11 -->
<g id="edge24" class="edge">
<title>Node35&#45;&gt;Node11</title>
<path fill="none" stroke="midnightblue" d="M440.61,-224.32C424.33,-215.7 399.13,-202.36 380.28,-192.39"/>
<polygon fill="midnightblue" stroke="midnightblue" points="381.82,-189.24 371.35,-187.65 378.55,-195.43 381.82,-189.24"/>
</g>
<!-- Node35&#45;&gt;Node14 -->
<g id="edge23" class="edge">
<title>Node35&#45;&gt;Node14</title>
<path fill="none" stroke="midnightblue" d="M457.81,-224.08C460.17,-197.95 467.1,-121.21 470.32,-85.58"/>
<polygon fill="midnightblue" stroke="midnightblue" points="473.81,-85.84 471.23,-75.57 466.84,-85.21 473.81,-85.84"/>
</g>
</g>
</svg>
