<?xml version="1.0" encoding="UTF-8" standalone="no"?>
<!DOCTYPE svg PUBLIC "-//W3C//DTD SVG 1.1//EN"
 "http://www.w3.org/Graphics/SVG/1.1/DTD/svg11.dtd">
<!-- Generated by graphviz version 2.43.0 (0)
 -->
<!-- Title: /home/runner/work/cbmc/cbmc/src/cpp/cpp_declarator.cpp Pages: 1 -->
<svg width="758pt" height="599pt"
 viewBox="0.00 0.00 758.00 599.00" xmlns="http://www.w3.org/2000/svg" xmlns:xlink="http://www.w3.org/1999/xlink">
<g id="graph0" class="graph" transform="scale(1 1) rotate(0) translate(4 595)">
<title>/home/runner/work/cbmc/cbmc/src/cpp/cpp_declarator.cpp</title>
<!-- Node1 -->
<g id="node1" class="node">
<title>Node1</title>
<g id="a_node1"><a xlink:title="C++ Language Type Checking.">
<polygon fill="#bfbfbf" stroke="black" points="554,-560.5 554,-590.5 732,-590.5 732,-560.5 554,-560.5"/>
<text text-anchor="start" x="562" y="-578.5" font-family="Helvetica,sans-Serif" font-size="10.00">/home/runner/work/cbmc</text>
<text text-anchor="middle" x="643" y="-567.5" font-family="Helvetica,sans-Serif" font-size="10.00">/cbmc/src/cpp/cpp_declarator.cpp</text>
</a>
</g>
</g>
<!-- Node2 -->
<g id="node2" class="node">
<title>Node2</title>
<g id="a_node2"><a xlink:href="cpp__declarator_8h.html" target="_top" xlink:title="C++ Language Type Checking.">
<polygon fill="none" stroke="black" points="497.5,-504.5 497.5,-523.5 594.5,-523.5 594.5,-504.5 497.5,-504.5"/>
<text text-anchor="middle" x="546" y="-511.5" font-family="Helvetica,sans-Serif" font-size="10.00">cpp_declarator.h</text>
</a>
</g>
</g>
<!-- Node1&#45;&gt;Node2 -->
<g id="edge1" class="edge">
<title>Node1&#45;&gt;Node2</title>
<path fill="none" stroke="midnightblue" d="M620.01,-560.4C604.61,-550.95 584.41,-538.56 569,-529.11"/>
<polygon fill="midnightblue" stroke="midnightblue" points="570.47,-525.9 560.11,-523.66 566.81,-531.87 570.47,-525.9"/>
</g>
<!-- Node39 -->
<g id="node24" class="node">
<title>Node39</title>
<g id="a_node24"><a xlink:href="merged__type_8h.html" target="_top" xlink:title=" ">
<polygon fill="none" stroke="black" points="628,-448.5 628,-467.5 750,-467.5 750,-448.5 628,-448.5"/>
<text text-anchor="middle" x="689" y="-455.5" font-family="Helvetica,sans-Serif" font-size="10.00">ansi&#45;c/merged_type.h</text>
</a>
</g>
</g>
<!-- Node1&#45;&gt;Node39 -->
<g id="edge35" class="edge">
<title>Node1&#45;&gt;Node39</title>
<path fill="none" stroke="midnightblue" d="M645.61,-560.34C648.56,-545.83 654.02,-522.78 662,-504 666.1,-494.36 671.96,-484.3 677.18,-476.14"/>
<polygon fill="midnightblue" stroke="midnightblue" points="680.25,-477.85 682.86,-467.58 674.42,-473.97 680.25,-477.85"/>
</g>
<!-- Node40 -->
<g id="node25" class="node">
<title>Node40</title>
<g id="a_node25"><a xlink:title=" ">
<polygon fill="none" stroke="#bfbfbf" points="671.5,-504.5 671.5,-523.5 728.5,-523.5 728.5,-504.5 671.5,-504.5"/>
<text text-anchor="middle" x="700" y="-511.5" font-family="Helvetica,sans-Serif" font-size="10.00">ostream</text>
</a>
</g>
</g>
<!-- Node1&#45;&gt;Node40 -->
<g id="edge37" class="edge">
<title>Node1&#45;&gt;Node40</title>
<path fill="none" stroke="midnightblue" d="M656.51,-560.4C664.96,-551.58 675.88,-540.18 684.66,-531.02"/>
<polygon fill="midnightblue" stroke="midnightblue" points="687.32,-533.3 691.71,-523.66 682.26,-528.46 687.32,-533.3"/>
</g>
<!-- Node3 -->
<g id="node3" class="node">
<title>Node3</title>
<g id="a_node3"><a xlink:href="expr_8h.html" target="_top" xlink:title=" ">
<polygon fill="none" stroke="black" points="293.5,-392.5 293.5,-411.5 358.5,-411.5 358.5,-392.5 293.5,-392.5"/>
<text text-anchor="middle" x="326" y="-399.5" font-family="Helvetica,sans-Serif" font-size="10.00">util/expr.h</text>
</a>
</g>
</g>
<!-- Node2&#45;&gt;Node3 -->
<g id="edge2" class="edge">
<title>Node2&#45;&gt;Node3</title>
<path fill="none" stroke="midnightblue" d="M528.74,-504.37C490.34,-485.17 397.68,-438.84 352.15,-416.07"/>
<polygon fill="midnightblue" stroke="midnightblue" points="353.69,-412.93 343.18,-411.59 350.56,-419.19 353.69,-412.93"/>
</g>
<!-- Node38 -->
<g id="node23" class="node">
<title>Node38</title>
<g id="a_node23"><a xlink:href="cpp__name_8h.html" target="_top" xlink:title=" ">
<polygon fill="none" stroke="black" points="508,-448.5 508,-467.5 584,-467.5 584,-448.5 508,-448.5"/>
<text text-anchor="middle" x="546" y="-455.5" font-family="Helvetica,sans-Serif" font-size="10.00">cpp_name.h</text>
</a>
</g>
</g>
<!-- Node2&#45;&gt;Node38 -->
<g id="edge32" class="edge">
<title>Node2&#45;&gt;Node38</title>
<path fill="none" stroke="midnightblue" d="M546,-504.08C546,-497.01 546,-486.86 546,-477.99"/>
<polygon fill="midnightblue" stroke="midnightblue" points="549.5,-477.75 546,-467.75 542.5,-477.75 549.5,-477.75"/>
</g>
<!-- Node4 -->
<g id="node4" class="node">
<title>Node4</title>
<g id="a_node4"><a xlink:href="as__const_8h.html" target="_top" xlink:title=" ">
<polygon fill="none" stroke="black" points="31,-0.5 31,-19.5 99,-19.5 99,-0.5 31,-0.5"/>
<text text-anchor="middle" x="65" y="-7.5" font-family="Helvetica,sans-Serif" font-size="10.00">as_const.h</text>
</a>
</g>
</g>
<!-- Node3&#45;&gt;Node4 -->
<g id="edge3" class="edge">
<title>Node3&#45;&gt;Node4</title>
<path fill="none" stroke="midnightblue" d="M293.25,-397.05C210.58,-386.18 0,-352.45 0,-291 0,-291 0,-291 0,-121 0,-83.18 28.84,-46.94 48.09,-26.96"/>
<polygon fill="midnightblue" stroke="midnightblue" points="50.8,-29.2 55.41,-19.66 45.86,-24.24 50.8,-29.2"/>
</g>
<!-- Node5 -->
<g id="node5" class="node">
<title>Node5</title>
<g id="a_node5"><a xlink:href="type_8h.html" target="_top" xlink:title="Defines typet, type_with_subtypet and type_with_subtypest.">
<polygon fill="none" stroke="black" points="409.5,-336.5 409.5,-355.5 456.5,-355.5 456.5,-336.5 409.5,-336.5"/>
<text text-anchor="middle" x="433" y="-343.5" font-family="Helvetica,sans-Serif" font-size="10.00">type.h</text>
</a>
</g>
</g>
<!-- Node3&#45;&gt;Node5 -->
<g id="edge4" class="edge">
<title>Node3&#45;&gt;Node5</title>
<path fill="none" stroke="midnightblue" d="M343.19,-392.32C360.35,-383.66 386.95,-370.24 406.75,-360.25"/>
<polygon fill="midnightblue" stroke="midnightblue" points="408.5,-363.28 415.85,-355.65 405.35,-357.04 408.5,-363.28"/>
</g>
<!-- Node34 -->
<g id="node19" class="node">
<title>Node34</title>
<g id="a_node19"><a xlink:href="validation__mode_8h.html" target="_top" xlink:title=" ">
<polygon fill="none" stroke="black" points="363.5,-224.5 363.5,-243.5 470.5,-243.5 470.5,-224.5 363.5,-224.5"/>
<text text-anchor="middle" x="417" y="-231.5" font-family="Helvetica,sans-Serif" font-size="10.00">validation_mode.h</text>
</a>
</g>
</g>
<!-- Node3&#45;&gt;Node34 -->
<g id="edge30" class="edge">
<title>Node3&#45;&gt;Node34</title>
<path fill="none" stroke="midnightblue" d="M293.12,-398.26C242.93,-393.32 150.9,-381.01 131,-356 125.47,-349.04 127.18,-344.03 131,-336 147.98,-300.34 164.32,-296.93 200,-280 248.53,-256.97 308.68,-245.67 353.33,-240.16"/>
<polygon fill="midnightblue" stroke="midnightblue" points="353.94,-243.62 363.47,-238.98 353.13,-236.66 353.94,-243.62"/>
</g>
<!-- Node35 -->
<g id="node20" class="node">
<title>Node35</title>
<g id="a_node20"><a xlink:href="validate__types_8h.html" target="_top" xlink:title=" ">
<polygon fill="none" stroke="black" points="209,-280.5 209,-299.5 307,-299.5 307,-280.5 209,-280.5"/>
<text text-anchor="middle" x="258" y="-287.5" font-family="Helvetica,sans-Serif" font-size="10.00">validate_types.h</text>
</a>
</g>
</g>
<!-- Node3&#45;&gt;Node35 -->
<g id="edge29" class="edge">
<title>Node3&#45;&gt;Node35</title>
<path fill="none" stroke="midnightblue" d="M336.76,-392.32C351.2,-379.6 373.63,-355.3 361,-336 350.5,-319.95 332.87,-309.59 315.15,-302.92"/>
<polygon fill="midnightblue" stroke="midnightblue" points="315.93,-299.49 305.33,-299.58 313.67,-306.11 315.93,-299.49"/>
</g>
<!-- Node36 -->
<g id="node21" class="node">
<title>Node36</title>
<g id="a_node21"><a xlink:href="validate__expressions_8h.html" target="_top" xlink:title=" ">
<polygon fill="none" stroke="black" points="140.5,-336.5 140.5,-355.5 269.5,-355.5 269.5,-336.5 140.5,-336.5"/>
<text text-anchor="middle" x="205" y="-343.5" font-family="Helvetica,sans-Serif" font-size="10.00">validate_expressions.h</text>
</a>
</g>
</g>
<!-- Node3&#45;&gt;Node36 -->
<g id="edge28" class="edge">
<title>Node3&#45;&gt;Node36</title>
<path fill="none" stroke="midnightblue" d="M306.83,-392.44C287.09,-383.64 256.11,-369.81 233.51,-359.72"/>
<polygon fill="midnightblue" stroke="midnightblue" points="234.64,-356.4 224.08,-355.52 231.79,-362.79 234.64,-356.4"/>
</g>
<!-- Node37 -->
<g id="node22" class="node">
<title>Node37</title>
<g id="a_node22"><a xlink:title=" ">
<polygon fill="none" stroke="#bfbfbf" points="287.5,-336.5 287.5,-355.5 352.5,-355.5 352.5,-336.5 287.5,-336.5"/>
<text text-anchor="middle" x="320" y="-343.5" font-family="Helvetica,sans-Serif" font-size="10.00">functional</text>
</a>
</g>
</g>
<!-- Node3&#45;&gt;Node37 -->
<g id="edge31" class="edge">
<title>Node3&#45;&gt;Node37</title>
<path fill="none" stroke="midnightblue" d="M325.01,-392.08C324.21,-384.93 323.07,-374.64 322.08,-365.69"/>
<polygon fill="midnightblue" stroke="midnightblue" points="325.56,-365.3 320.97,-355.75 318.6,-366.08 325.56,-365.3"/>
</g>
<!-- Node6 -->
<g id="node6" class="node">
<title>Node6</title>
<g id="a_node6"><a xlink:href="source__location_8h.html" target="_top" xlink:title=" ">
<polygon fill="none" stroke="black" points="299,-168.5 299,-187.5 401,-187.5 401,-168.5 299,-168.5"/>
<text text-anchor="middle" x="350" y="-175.5" font-family="Helvetica,sans-Serif" font-size="10.00">source_location.h</text>
</a>
</g>
</g>
<!-- Node5&#45;&gt;Node6 -->
<g id="edge5" class="edge">
<title>Node5&#45;&gt;Node6</title>
<path fill="none" stroke="midnightblue" d="M423.22,-336.46C405.64,-320.41 369.08,-283.75 354,-244 348.42,-229.28 347.72,-211.35 348.25,-198.05"/>
<polygon fill="midnightblue" stroke="midnightblue" points="351.77,-197.96 348.94,-187.75 344.78,-197.5 351.77,-197.96"/>
</g>
<!-- Node32 -->
<g id="node17" class="node">
<title>Node32</title>
<g id="a_node17"><a xlink:href="validate_8h.html" target="_top" xlink:title=" ">
<polygon fill="none" stroke="black" points="477.5,-280.5 477.5,-299.5 542.5,-299.5 542.5,-280.5 477.5,-280.5"/>
<text text-anchor="middle" x="510" y="-287.5" font-family="Helvetica,sans-Serif" font-size="10.00">validate.h</text>
</a>
</g>
</g>
<!-- Node5&#45;&gt;Node32 -->
<g id="edge19" class="edge">
<title>Node5&#45;&gt;Node32</title>
<path fill="none" stroke="midnightblue" d="M445.37,-336.32C457.16,-328.06 475.13,-315.45 489.14,-305.63"/>
<polygon fill="midnightblue" stroke="midnightblue" points="491.48,-308.26 497.66,-299.65 487.46,-302.53 491.48,-308.26"/>
</g>
<!-- Node5&#45;&gt;Node34 -->
<g id="edge27" class="edge">
<title>Node5&#45;&gt;Node34</title>
<path fill="none" stroke="midnightblue" d="M431.74,-336.37C429.16,-318.62 423.21,-277.67 419.71,-253.6"/>
<polygon fill="midnightblue" stroke="midnightblue" points="423.15,-252.98 418.25,-243.59 416.23,-253.99 423.15,-252.98"/>
</g>
<!-- Node5&#45;&gt;Node35 -->
<g id="edge26" class="edge">
<title>Node5&#45;&gt;Node35</title>
<path fill="none" stroke="midnightblue" d="M409.4,-337.72C380.19,-328.7 330.09,-313.24 295.57,-302.59"/>
<polygon fill="midnightblue" stroke="midnightblue" points="296.43,-299.19 285.84,-299.59 294.36,-305.88 296.43,-299.19"/>
</g>
<!-- Node7 -->
<g id="node7" class="node">
<title>Node7</title>
<g id="a_node7"><a xlink:href="deprecate_8h.html" target="_top" xlink:title=" ">
<polygon fill="none" stroke="black" points="329,-112.5 329,-131.5 403,-131.5 403,-112.5 329,-112.5"/>
<text text-anchor="middle" x="366" y="-119.5" font-family="Helvetica,sans-Serif" font-size="10.00">deprecate.h</text>
</a>
</g>
</g>
<!-- Node6&#45;&gt;Node7 -->
<g id="edge6" class="edge">
<title>Node6&#45;&gt;Node7</title>
<path fill="none" stroke="midnightblue" d="M352.64,-168.08C354.79,-160.85 357.88,-150.41 360.55,-141.4"/>
<polygon fill="midnightblue" stroke="midnightblue" points="363.92,-142.33 363.41,-131.75 357.21,-140.34 363.92,-142.33"/>
</g>
<!-- Node8 -->
<g id="node8" class="node">
<title>Node8</title>
<g id="a_node8"><a xlink:href="irep_8h.html" target="_top" xlink:title=" ">
<polygon fill="none" stroke="black" points="267,-112.5 267,-131.5 311,-131.5 311,-112.5 267,-112.5"/>
<text text-anchor="middle" x="289" y="-119.5" font-family="Helvetica,sans-Serif" font-size="10.00">irep.h</text>
</a>
</g>
</g>
<!-- Node6&#45;&gt;Node8 -->
<g id="edge7" class="edge">
<title>Node6&#45;&gt;Node8</title>
<path fill="none" stroke="midnightblue" d="M340.2,-168.32C331.18,-160.34 317.59,-148.31 306.68,-138.65"/>
<polygon fill="midnightblue" stroke="midnightblue" points="308.79,-135.84 298.98,-131.83 304.15,-141.08 308.79,-135.84"/>
</g>
<!-- Node9 -->
<g id="node9" class="node">
<title>Node9</title>
<g id="a_node9"><a xlink:title=" ">
<polygon fill="none" stroke="#bfbfbf" points="426,-0.5 426,-19.5 470,-19.5 470,-0.5 426,-0.5"/>
<text text-anchor="middle" x="448" y="-7.5" font-family="Helvetica,sans-Serif" font-size="10.00">string</text>
</a>
</g>
</g>
<!-- Node6&#45;&gt;Node9 -->
<g id="edge18" class="edge">
<title>Node6&#45;&gt;Node9</title>
<path fill="none" stroke="midnightblue" d="M298.99,-173.58C197.25,-164.96 -15.15,-136.93 57,-56 80.76,-29.35 326.34,-16.22 415.71,-12.3"/>
<polygon fill="midnightblue" stroke="midnightblue" points="415.97,-15.79 425.81,-11.87 415.67,-8.8 415.97,-15.79"/>
</g>
<!-- Node30 -->
<g id="node15" class="node">
<title>Node30</title>
<g id="a_node15"><a xlink:href="optional_8h.html" target="_top" xlink:title=" ">
<polygon fill="none" stroke="black" points="421.5,-112.5 421.5,-131.5 486.5,-131.5 486.5,-112.5 421.5,-112.5"/>
<text text-anchor="middle" x="454" y="-119.5" font-family="Helvetica,sans-Serif" font-size="10.00">optional.h</text>
</a>
</g>
</g>
<!-- Node6&#45;&gt;Node30 -->
<g id="edge16" class="edge">
<title>Node6&#45;&gt;Node30</title>
<path fill="none" stroke="midnightblue" d="M366.71,-168.32C383.31,-159.7 409,-146.36 428.22,-136.39"/>
<polygon fill="midnightblue" stroke="midnightblue" points="430.07,-139.37 437.33,-131.65 426.84,-133.16 430.07,-139.37"/>
</g>
<!-- Node8&#45;&gt;Node9 -->
<g id="edge8" class="edge">
<title>Node8&#45;&gt;Node9</title>
<path fill="none" stroke="midnightblue" d="M301.48,-112.37C328.64,-93.57 393.41,-48.77 426.99,-25.53"/>
<polygon fill="midnightblue" stroke="midnightblue" points="429.35,-28.16 435.58,-19.59 425.37,-22.4 429.35,-28.16"/>
</g>
<!-- Node10 -->
<g id="node10" class="node">
<title>Node10</title>
<g id="a_node10"><a xlink:title=" ">
<polygon fill="none" stroke="#bfbfbf" points="211.5,-56.5 211.5,-75.5 258.5,-75.5 258.5,-56.5 211.5,-56.5"/>
<text text-anchor="middle" x="235" y="-63.5" font-family="Helvetica,sans-Serif" font-size="10.00">vector</text>
</a>
</g>
</g>
<!-- Node8&#45;&gt;Node10 -->
<g id="edge9" class="edge">
<title>Node8&#45;&gt;Node10</title>
<path fill="none" stroke="midnightblue" d="M280.08,-112.08C272.22,-104.22 260.57,-92.57 251.08,-83.08"/>
<polygon fill="midnightblue" stroke="midnightblue" points="253.3,-80.35 243.75,-75.75 248.35,-85.3 253.3,-80.35"/>
</g>
<!-- Node11 -->
<g id="node11" class="node">
<title>Node11</title>
<g id="a_node11"><a xlink:href="src_2util_2invariant_8h.html" target="_top" xlink:title=" ">
<polygon fill="none" stroke="red" points="567.5,-56.5 567.5,-75.5 636.5,-75.5 636.5,-56.5 567.5,-56.5"/>
<text text-anchor="middle" x="602" y="-63.5" font-family="Helvetica,sans-Serif" font-size="10.00">invariant.h</text>
</a>
</g>
</g>
<!-- Node8&#45;&gt;Node11 -->
<g id="edge10" class="edge">
<title>Node8&#45;&gt;Node11</title>
<path fill="none" stroke="midnightblue" d="M311.27,-114.18C314.19,-113.39 317.16,-112.64 320,-112 402.95,-93.42 501.28,-79.54 557.18,-72.4"/>
<polygon fill="midnightblue" stroke="midnightblue" points="557.96,-75.83 567.44,-71.11 557.09,-68.89 557.96,-75.83"/>
</g>
<!-- Node15 -->
<g id="node13" class="node">
<title>Node15</title>
<g id="a_node13"><a xlink:href="irep__ids_8h.html" target="_top" xlink:title="util">
<polygon fill="none" stroke="red" points="277,-56.5 277,-75.5 341,-75.5 341,-56.5 277,-56.5"/>
<text text-anchor="middle" x="309" y="-63.5" font-family="Helvetica,sans-Serif" font-size="10.00">irep_ids.h</text>
</a>
</g>
</g>
<!-- Node8&#45;&gt;Node15 -->
<g id="edge13" class="edge">
<title>Node8&#45;&gt;Node15</title>
<path fill="none" stroke="midnightblue" d="M292.3,-112.08C294.98,-104.85 298.85,-94.41 302.19,-85.4"/>
<polygon fill="midnightblue" stroke="midnightblue" points="305.57,-86.34 305.76,-75.75 299,-83.91 305.57,-86.34"/>
</g>
<!-- Node26 -->
<g id="node14" class="node">
<title>Node26</title>
<g id="a_node14"><a xlink:href="forward__list__as__map_8h.html" target="_top" xlink:title=" ">
<polygon fill="none" stroke="red" points="66.5,-56.5 66.5,-75.5 193.5,-75.5 193.5,-56.5 66.5,-56.5"/>
<text text-anchor="middle" x="130" y="-63.5" font-family="Helvetica,sans-Serif" font-size="10.00">forward_list_as_map.h</text>
</a>
</g>
</g>
<!-- Node8&#45;&gt;Node26 -->
<g id="edge14" class="edge">
<title>Node8&#45;&gt;Node26</title>
<path fill="none" stroke="midnightblue" d="M266.89,-113.49C240.4,-104.5 195.72,-89.32 164.64,-78.76"/>
<polygon fill="midnightblue" stroke="midnightblue" points="165.66,-75.41 155.06,-75.51 163.41,-82.04 165.66,-75.41"/>
</g>
<!-- Node11&#45;&gt;Node9 -->
<g id="edge11" class="edge">
<title>Node11&#45;&gt;Node9</title>
<path fill="none" stroke="midnightblue" d="M577.6,-56.44C551.2,-47.19 508.99,-32.39 479.96,-22.21"/>
<polygon fill="midnightblue" stroke="midnightblue" points="480.88,-18.82 470.29,-18.82 478.57,-25.43 480.88,-18.82"/>
</g>
<!-- Node14 -->
<g id="node12" class="node">
<title>Node14</title>
<g id="a_node12"><a xlink:title=" ">
<polygon fill="none" stroke="#bfbfbf" points="598.5,-0.5 598.5,-19.5 667.5,-19.5 667.5,-0.5 598.5,-0.5"/>
<text text-anchor="middle" x="633" y="-7.5" font-family="Helvetica,sans-Serif" font-size="10.00">type_traits</text>
</a>
</g>
</g>
<!-- Node11&#45;&gt;Node14 -->
<g id="edge12" class="edge">
<title>Node11&#45;&gt;Node14</title>
<path fill="none" stroke="midnightblue" d="M607.12,-56.08C611.41,-48.61 617.66,-37.72 622.94,-28.52"/>
<polygon fill="midnightblue" stroke="midnightblue" points="626.03,-30.17 627.98,-19.75 619.96,-26.68 626.03,-30.17"/>
</g>
<!-- Node26&#45;&gt;Node4 -->
<g id="edge15" class="edge">
<title>Node26&#45;&gt;Node4</title>
<path fill="none" stroke="midnightblue" d="M119.56,-56.32C109.85,-48.26 95.18,-36.08 83.5,-26.37"/>
<polygon fill="midnightblue" stroke="midnightblue" points="85.56,-23.53 75.63,-19.83 81.09,-28.92 85.56,-23.53"/>
</g>
<!-- Node31 -->
<g id="node16" class="node">
<title>Node31</title>
<g id="a_node16"><a xlink:title=" ">
<polygon fill="none" stroke="#bfbfbf" points="397.5,-56.5 397.5,-75.5 510.5,-75.5 510.5,-56.5 397.5,-56.5"/>
<text text-anchor="middle" x="454" y="-63.5" font-family="Helvetica,sans-Serif" font-size="10.00">nonstd/optional.hpp</text>
</a>
</g>
</g>
<!-- Node30&#45;&gt;Node31 -->
<g id="edge17" class="edge">
<title>Node30&#45;&gt;Node31</title>
<path fill="none" stroke="midnightblue" d="M454,-112.08C454,-105.01 454,-94.86 454,-85.99"/>
<polygon fill="midnightblue" stroke="midnightblue" points="457.5,-85.75 454,-75.75 450.5,-85.75 457.5,-85.75"/>
</g>
<!-- Node32&#45;&gt;Node14 -->
<g id="edge20" class="edge">
<title>Node32&#45;&gt;Node14</title>
<path fill="none" stroke="midnightblue" d="M540.57,-280.36C559.67,-273.47 583.34,-261.93 598,-244 647.08,-183.98 634.46,-152.81 645,-76 647.17,-60.19 643.44,-42.38 639.58,-29.4"/>
<polygon fill="midnightblue" stroke="midnightblue" points="642.87,-28.2 636.44,-19.79 636.22,-30.38 642.87,-28.2"/>
</g>
<!-- Node33 -->
<g id="node18" class="node">
<title>Node33</title>
<g id="a_node18"><a xlink:href="exception__utils_8h.html" target="_top" xlink:title=" ">
<polygon fill="none" stroke="black" points="489,-224.5 489,-243.5 589,-243.5 589,-224.5 489,-224.5"/>
<text text-anchor="middle" x="539" y="-231.5" font-family="Helvetica,sans-Serif" font-size="10.00">exception_utils.h</text>
</a>
</g>
</g>
<!-- Node32&#45;&gt;Node33 -->
<g id="edge21" class="edge">
<title>Node32&#45;&gt;Node33</title>
<path fill="none" stroke="midnightblue" d="M514.79,-280.08C518.76,-272.69 524.53,-261.95 529.43,-252.81"/>
<polygon fill="midnightblue" stroke="midnightblue" points="532.65,-254.22 534.3,-243.75 526.49,-250.91 532.65,-254.22"/>
</g>
<!-- Node32&#45;&gt;Node34 -->
<g id="edge25" class="edge">
<title>Node32&#45;&gt;Node34</title>
<path fill="none" stroke="midnightblue" d="M495.06,-280.32C480.41,-271.82 457.87,-258.73 440.76,-248.8"/>
<polygon fill="midnightblue" stroke="midnightblue" points="442.31,-245.65 431.9,-243.65 438.8,-251.7 442.31,-245.65"/>
</g>
<!-- Node33&#45;&gt;Node6 -->
<g id="edge24" class="edge">
<title>Node33&#45;&gt;Node6</title>
<path fill="none" stroke="midnightblue" d="M509.05,-224.44C476.84,-215.24 425.47,-200.56 389.86,-190.39"/>
<polygon fill="midnightblue" stroke="midnightblue" points="390.38,-186.9 379.81,-187.52 388.46,-193.63 390.38,-186.9"/>
</g>
<!-- Node33&#45;&gt;Node9 -->
<g id="edge22" class="edge">
<title>Node33&#45;&gt;Node9</title>
<path fill="none" stroke="midnightblue" d="M540.45,-224.42C544.58,-197.29 553.94,-111.84 519,-56 509.79,-41.29 493.81,-30.53 479.34,-23.23"/>
<polygon fill="midnightblue" stroke="midnightblue" points="480.68,-19.99 470.14,-18.93 477.71,-26.33 480.68,-19.99"/>
</g>
<!-- Node33&#45;&gt;Node11 -->
<g id="edge23" class="edge">
<title>Node33&#45;&gt;Node11</title>
<path fill="none" stroke="midnightblue" d="M542.39,-224.08C552.35,-197.83 581.68,-120.55 595.12,-85.12"/>
<polygon fill="midnightblue" stroke="midnightblue" points="598.47,-86.16 598.75,-75.57 591.93,-83.68 598.47,-86.16"/>
</g>
<!-- Node38&#45;&gt;Node3 -->
<g id="edge33" class="edge">
<title>Node38&#45;&gt;Node3</title>
<path fill="none" stroke="midnightblue" d="M511.14,-448.44C472.41,-438.94 409.88,-423.59 368.36,-413.4"/>
<polygon fill="midnightblue" stroke="midnightblue" points="369.09,-409.97 358.54,-410.99 367.42,-416.77 369.09,-409.97"/>
</g>
<!-- Node38&#45;&gt;Node11 -->
<g id="edge34" class="edge">
<title>Node38&#45;&gt;Node11</title>
<path fill="none" stroke="midnightblue" d="M565.24,-448.42C596.53,-432.99 655,-397.41 655,-347 655,-347 655,-347 655,-289 655,-211.46 624.03,-122.75 609.44,-85.25"/>
<polygon fill="midnightblue" stroke="midnightblue" points="612.59,-83.7 605.64,-75.7 606.09,-86.29 612.59,-83.7"/>
</g>
<!-- Node39&#45;&gt;Node5 -->
<g id="edge36" class="edge">
<title>Node39&#45;&gt;Node5</title>
<path fill="none" stroke="midnightblue" d="M668.91,-448.37C623.95,-429.05 515.06,-382.26 462.44,-359.65"/>
<polygon fill="midnightblue" stroke="midnightblue" points="463.56,-356.32 452.99,-355.59 460.8,-362.76 463.56,-356.32"/>
</g>
</g>
</svg>
