<?xml version="1.0" encoding="UTF-8" standalone="no"?>
<!DOCTYPE svg PUBLIC "-//W3C//DTD SVG 1.1//EN"
 "http://www.w3.org/Graphics/SVG/1.1/DTD/svg11.dtd">
<!-- Generated by graphviz version 2.43.0 (0)
 -->
<!-- Title: /home/runner/work/cbmc/cbmc/src/cpp/cpp_type2name.cpp Pages: 1 -->
<svg width="775pt" height="487pt"
 viewBox="0.00 0.00 775.41 487.00" xmlns="http://www.w3.org/2000/svg" xmlns:xlink="http://www.w3.org/1999/xlink">
<g id="graph0" class="graph" transform="scale(1 1) rotate(0) translate(4 483)">
<title>/home/runner/work/cbmc/cbmc/src/cpp/cpp_type2name.cpp</title>
<!-- Node1 -->
<g id="node1" class="node">
<title>Node1</title>
<g id="a_node1"><a xlink:title="C++ Language Module.">
<polygon fill="#bfbfbf" stroke="black" points="166.5,-448.5 166.5,-478.5 351.5,-478.5 351.5,-448.5 166.5,-448.5"/>
<text text-anchor="start" x="174.5" y="-466.5" font-family="Helvetica,sans-Serif" font-size="10.00">/home/runner/work/cbmc</text>
<text text-anchor="middle" x="259" y="-455.5" font-family="Helvetica,sans-Serif" font-size="10.00">/cbmc/src/cpp/cpp_type2name.cpp</text>
</a>
</g>
</g>
<!-- Node2 -->
<g id="node2" class="node">
<title>Node2</title>
<g id="a_node2"><a xlink:href="cpp__type2name_8h.html" target="_top" xlink:title="C++ Language Module.">
<polygon fill="none" stroke="black" points="0,-280.5 0,-299.5 104,-299.5 104,-280.5 0,-280.5"/>
<text text-anchor="middle" x="52" y="-287.5" font-family="Helvetica,sans-Serif" font-size="10.00">cpp_type2name.h</text>
</a>
</g>
</g>
<!-- Node1&#45;&gt;Node2 -->
<g id="edge1" class="edge">
<title>Node1&#45;&gt;Node2</title>
<path fill="none" stroke="midnightblue" d="M189.55,-448.49C164.89,-440.87 138.25,-429.33 118,-412 85.38,-384.1 66.07,-335.89 57.43,-309.53"/>
<polygon fill="midnightblue" stroke="midnightblue" points="60.69,-308.21 54.38,-299.7 54,-310.28 60.69,-308.21"/>
</g>
<!-- Node3 -->
<g id="node3" class="node">
<title>Node3</title>
<g id="a_node3"><a xlink:title=" ">
<polygon fill="none" stroke="#bfbfbf" points="148,-0.5 148,-19.5 192,-19.5 192,-0.5 148,-0.5"/>
<text text-anchor="middle" x="170" y="-7.5" font-family="Helvetica,sans-Serif" font-size="10.00">string</text>
</a>
</g>
</g>
<!-- Node1&#45;&gt;Node3 -->
<g id="edge3" class="edge">
<title>Node1&#45;&gt;Node3</title>
<path fill="none" stroke="midnightblue" d="M223.62,-448.37C186.05,-430.76 132,-396.77 132,-347 132,-347 132,-347 132,-121 132,-86.81 148.6,-49.76 159.86,-28.57"/>
<polygon fill="midnightblue" stroke="midnightblue" points="162.95,-30.22 164.72,-19.77 156.82,-26.83 162.95,-30.22"/>
</g>
<!-- Node4 -->
<g id="node4" class="node">
<title>Node4</title>
<g id="a_node4"><a xlink:href="cprover__prefix_8h.html" target="_top" xlink:title=" ">
<polygon fill="none" stroke="black" points="202,-392.5 202,-411.5 316,-411.5 316,-392.5 202,-392.5"/>
<text text-anchor="middle" x="259" y="-399.5" font-family="Helvetica,sans-Serif" font-size="10.00">util/cprover_prefix.h</text>
</a>
</g>
</g>
<!-- Node1&#45;&gt;Node4 -->
<g id="edge4" class="edge">
<title>Node1&#45;&gt;Node4</title>
<path fill="none" stroke="midnightblue" d="M259,-448.4C259,-440.47 259,-430.46 259,-421.86"/>
<polygon fill="midnightblue" stroke="midnightblue" points="262.5,-421.66 259,-411.66 255.5,-421.66 262.5,-421.66"/>
</g>
<!-- Node5 -->
<g id="node5" class="node">
<title>Node5</title>
<g id="a_node5"><a xlink:href="pointer__expr_8h.html" target="_top" xlink:title="API to expression classes for Pointers.">
<polygon fill="none" stroke="black" points="456.5,-392.5 456.5,-411.5 561.5,-411.5 561.5,-392.5 456.5,-392.5"/>
<text text-anchor="middle" x="509" y="-399.5" font-family="Helvetica,sans-Serif" font-size="10.00">util/pointer_expr.h</text>
</a>
</g>
</g>
<!-- Node1&#45;&gt;Node5 -->
<g id="edge5" class="edge">
<title>Node1&#45;&gt;Node5</title>
<path fill="none" stroke="midnightblue" d="M317.93,-448.47C362.38,-437.9 422.47,-423.59 463.31,-413.87"/>
<polygon fill="midnightblue" stroke="midnightblue" points="464.34,-417.23 473.26,-411.51 462.72,-410.42 464.34,-417.23"/>
</g>
<!-- Node10 -->
<g id="node10" class="node">
<title>Node10</title>
<g id="a_node10"><a xlink:href="type_8h.html" target="_top" xlink:title="Defines typet, type_with_subtypet and type_with_subtypest.">
<polygon fill="none" stroke="black" points="236.5,-112.5 236.5,-131.5 283.5,-131.5 283.5,-112.5 236.5,-112.5"/>
<text text-anchor="middle" x="260" y="-119.5" font-family="Helvetica,sans-Serif" font-size="10.00">type.h</text>
</a>
</g>
</g>
<!-- Node1&#45;&gt;Node10 -->
<g id="edge41" class="edge">
<title>Node1&#45;&gt;Node10</title>
<path fill="none" stroke="midnightblue" d="M294.38,-448.37C331.95,-430.76 386,-396.77 386,-347 386,-347 386,-347 386,-233 386,-202.9 387.04,-190.46 367,-168 356.78,-156.55 320.85,-142.8 293.42,-133.53"/>
<polygon fill="midnightblue" stroke="midnightblue" points="294.35,-130.16 283.76,-130.34 292.15,-136.8 294.35,-130.16"/>
</g>
<!-- Node2&#45;&gt;Node3 -->
<g id="edge2" class="edge">
<title>Node2&#45;&gt;Node3</title>
<path fill="none" stroke="midnightblue" d="M54.83,-280.27C60.56,-261.79 73,-217.3 73,-179 73,-179 73,-179 73,-121 73,-77.35 116.51,-42.83 145.24,-24.79"/>
<polygon fill="midnightblue" stroke="midnightblue" points="147.23,-27.68 153.98,-19.52 143.61,-21.68 147.23,-27.68"/>
</g>
<!-- Node6 -->
<g id="node6" class="node">
<title>Node6</title>
<g id="a_node6"><a xlink:href="bitvector__types_8h.html" target="_top" xlink:title="Pre&#45;defined bitvector types.">
<polygon fill="none" stroke="black" points="458.5,-336.5 458.5,-355.5 559.5,-355.5 559.5,-336.5 458.5,-336.5"/>
<text text-anchor="middle" x="509" y="-343.5" font-family="Helvetica,sans-Serif" font-size="10.00">bitvector_types.h</text>
</a>
</g>
</g>
<!-- Node5&#45;&gt;Node6 -->
<g id="edge6" class="edge">
<title>Node5&#45;&gt;Node6</title>
<path fill="none" stroke="midnightblue" d="M509,-392.08C509,-385.01 509,-374.86 509,-365.99"/>
<polygon fill="midnightblue" stroke="midnightblue" points="512.5,-365.75 509,-355.75 505.5,-365.75 512.5,-365.75"/>
</g>
<!-- Node45 -->
<g id="node25" class="node">
<title>Node45</title>
<g id="a_node25"><a xlink:href="std__expr_8h.html" target="_top" xlink:title="API to expression classes.">
<polygon fill="none" stroke="black" points="577.5,-336.5 577.5,-355.5 644.5,-355.5 644.5,-336.5 577.5,-336.5"/>
<text text-anchor="middle" x="611" y="-343.5" font-family="Helvetica,sans-Serif" font-size="10.00">std_expr.h</text>
</a>
</g>
</g>
<!-- Node5&#45;&gt;Node45 -->
<g id="edge37" class="edge">
<title>Node5&#45;&gt;Node45</title>
<path fill="none" stroke="midnightblue" d="M525.39,-392.32C541.67,-383.7 566.87,-370.36 585.72,-360.39"/>
<polygon fill="midnightblue" stroke="midnightblue" points="587.45,-363.43 594.65,-355.65 584.18,-357.24 587.45,-363.43"/>
</g>
<!-- Node7 -->
<g id="node7" class="node">
<title>Node7</title>
<g id="a_node7"><a xlink:href="std__types_8h.html" target="_top" xlink:title="Pre&#45;defined types.">
<polygon fill="none" stroke="black" points="509.5,-280.5 509.5,-299.5 582.5,-299.5 582.5,-280.5 509.5,-280.5"/>
<text text-anchor="middle" x="546" y="-287.5" font-family="Helvetica,sans-Serif" font-size="10.00">std_types.h</text>
</a>
</g>
</g>
<!-- Node6&#45;&gt;Node7 -->
<g id="edge7" class="edge">
<title>Node6&#45;&gt;Node7</title>
<path fill="none" stroke="midnightblue" d="M515.11,-336.08C520.28,-328.53 527.85,-317.49 534.19,-308.23"/>
<polygon fill="midnightblue" stroke="midnightblue" points="537.24,-309.98 540,-299.75 531.46,-306.02 537.24,-309.98"/>
</g>
<!-- Node8 -->
<g id="node8" class="node">
<title>Node8</title>
<g id="a_node8"><a xlink:href="expr_8h.html" target="_top" xlink:title=" ">
<polygon fill="none" stroke="black" points="459.5,-168.5 459.5,-187.5 506.5,-187.5 506.5,-168.5 459.5,-168.5"/>
<text text-anchor="middle" x="483" y="-175.5" font-family="Helvetica,sans-Serif" font-size="10.00">expr.h</text>
</a>
</g>
</g>
<!-- Node7&#45;&gt;Node8 -->
<g id="edge8" class="edge">
<title>Node7&#45;&gt;Node8</title>
<path fill="none" stroke="midnightblue" d="M544.86,-280.48C542.85,-267.53 537.8,-242.47 527,-224 520.5,-212.88 510.65,-202.46 501.92,-194.45"/>
<polygon fill="midnightblue" stroke="midnightblue" points="504.17,-191.77 494.34,-187.82 499.57,-197.04 504.17,-191.77"/>
</g>
<!-- Node35 -->
<g id="node12" class="node">
<title>Node35</title>
<g id="a_node12"><a xlink:href="validate_8h.html" target="_top" xlink:title=" ">
<polygon fill="none" stroke="red" points="611.5,-56.5 611.5,-75.5 676.5,-75.5 676.5,-56.5 611.5,-56.5"/>
<text text-anchor="middle" x="644" y="-63.5" font-family="Helvetica,sans-Serif" font-size="10.00">validate.h</text>
</a>
</g>
</g>
<!-- Node7&#45;&gt;Node35 -->
<g id="edge35" class="edge">
<title>Node7&#45;&gt;Node35</title>
<path fill="none" stroke="midnightblue" d="M582.71,-285.06C634.78,-277.18 727.59,-254.09 762,-188 786.63,-140.7 716.81,-99.57 674.23,-79.69"/>
<polygon fill="midnightblue" stroke="midnightblue" points="675.65,-76.49 665.09,-75.55 672.76,-82.87 675.65,-76.49"/>
</g>
<!-- Node41 -->
<g id="node18" class="node">
<title>Node41</title>
<g id="a_node18"><a xlink:href="expr__cast_8h.html" target="_top" xlink:title="Templated functions to cast to specific exprt&#45;derived classes.">
<polygon fill="none" stroke="black" points="574.5,-224.5 574.5,-243.5 647.5,-243.5 647.5,-224.5 574.5,-224.5"/>
<text text-anchor="middle" x="611" y="-231.5" font-family="Helvetica,sans-Serif" font-size="10.00">expr_cast.h</text>
</a>
</g>
</g>
<!-- Node7&#45;&gt;Node41 -->
<g id="edge22" class="edge">
<title>Node7&#45;&gt;Node41</title>
<path fill="none" stroke="midnightblue" d="M556.44,-280.32C566.15,-272.26 580.82,-260.08 592.5,-250.37"/>
<polygon fill="midnightblue" stroke="midnightblue" points="594.91,-252.92 600.37,-243.83 590.44,-247.53 594.91,-252.92"/>
</g>
<!-- Node15 -->
<g id="node20" class="node">
<title>Node15</title>
<g id="a_node20"><a xlink:href="src_2util_2invariant_8h.html" target="_top" xlink:title=" ">
<polygon fill="none" stroke="red" points="683.5,-168.5 683.5,-187.5 752.5,-187.5 752.5,-168.5 683.5,-168.5"/>
<text text-anchor="middle" x="718" y="-175.5" font-family="Helvetica,sans-Serif" font-size="10.00">invariant.h</text>
</a>
</g>
</g>
<!-- Node7&#45;&gt;Node15 -->
<g id="edge30" class="edge">
<title>Node7&#45;&gt;Node15</title>
<path fill="none" stroke="midnightblue" d="M576.97,-280.42C600.27,-273.06 632.31,-260.94 657,-244 676.45,-230.66 694.35,-210.17 705.67,-195.77"/>
<polygon fill="midnightblue" stroke="midnightblue" points="708.53,-197.79 711.81,-187.71 702.97,-193.54 708.53,-197.79"/>
</g>
<!-- Node43 -->
<g id="node21" class="node">
<title>Node43</title>
<g id="a_node21"><a xlink:href="mp__arith_8h.html" target="_top" xlink:title=" ">
<polygon fill="none" stroke="black" points="232.5,-224.5 232.5,-243.5 301.5,-243.5 301.5,-224.5 232.5,-224.5"/>
<text text-anchor="middle" x="267" y="-231.5" font-family="Helvetica,sans-Serif" font-size="10.00">mp_arith.h</text>
</a>
</g>
</g>
<!-- Node7&#45;&gt;Node43 -->
<g id="edge31" class="edge">
<title>Node7&#45;&gt;Node43</title>
<path fill="none" stroke="midnightblue" d="M509.24,-281.88C458.36,-272.04 366.57,-254.27 311.76,-243.66"/>
<polygon fill="midnightblue" stroke="midnightblue" points="312.13,-240.17 301.65,-241.71 310.8,-247.04 312.13,-240.17"/>
</g>
<!-- Node26 -->
<g id="node24" class="node">
<title>Node26</title>
<g id="a_node24"><a xlink:title=" ">
<polygon fill="none" stroke="#bfbfbf" points="424.5,-224.5 424.5,-243.5 517.5,-243.5 517.5,-224.5 424.5,-224.5"/>
<text text-anchor="middle" x="471" y="-231.5" font-family="Helvetica,sans-Serif" font-size="10.00">unordered_map</text>
</a>
</g>
</g>
<!-- Node7&#45;&gt;Node26 -->
<g id="edge36" class="edge">
<title>Node7&#45;&gt;Node26</title>
<path fill="none" stroke="midnightblue" d="M533.95,-280.32C522.54,-272.11 505.17,-259.6 491.57,-249.81"/>
<polygon fill="midnightblue" stroke="midnightblue" points="493.43,-246.84 483.27,-243.83 489.34,-252.52 493.43,-246.84"/>
</g>
<!-- Node9 -->
<g id="node9" class="node">
<title>Node9</title>
<g id="a_node9"><a xlink:href="as__const_8h.html" target="_top" xlink:title=" ">
<polygon fill="none" stroke="black" points="449,-112.5 449,-131.5 517,-131.5 517,-112.5 449,-112.5"/>
<text text-anchor="middle" x="483" y="-119.5" font-family="Helvetica,sans-Serif" font-size="10.00">as_const.h</text>
</a>
</g>
</g>
<!-- Node8&#45;&gt;Node9 -->
<g id="edge9" class="edge">
<title>Node8&#45;&gt;Node9</title>
<path fill="none" stroke="midnightblue" d="M483,-168.08C483,-161.01 483,-150.86 483,-141.99"/>
<polygon fill="midnightblue" stroke="midnightblue" points="486.5,-141.75 483,-131.75 479.5,-141.75 486.5,-141.75"/>
</g>
<!-- Node8&#45;&gt;Node10 -->
<g id="edge10" class="edge">
<title>Node8&#45;&gt;Node10</title>
<path fill="none" stroke="midnightblue" d="M459.4,-171.78C425.01,-164.1 358.9,-149.07 293.76,-132.38"/>
<polygon fill="midnightblue" stroke="midnightblue" points="294.29,-128.9 283.74,-129.8 292.55,-135.68 294.29,-128.9"/>
</g>
<!-- Node37 -->
<g id="node14" class="node">
<title>Node37</title>
<g id="a_node14"><a xlink:href="validation__mode_8h.html" target="_top" xlink:title=" ">
<polygon fill="none" stroke="black" points="491.5,-0.5 491.5,-19.5 598.5,-19.5 598.5,-0.5 491.5,-0.5"/>
<text text-anchor="middle" x="545" y="-7.5" font-family="Helvetica,sans-Serif" font-size="10.00">validation_mode.h</text>
</a>
</g>
</g>
<!-- Node8&#45;&gt;Node37 -->
<g id="edge20" class="edge">
<title>Node8&#45;&gt;Node37</title>
<path fill="none" stroke="midnightblue" d="M494.53,-168.37C504.56,-160.17 518.62,-146.92 526,-132 542.44,-98.76 545.3,-54.66 545.45,-29.92"/>
<polygon fill="midnightblue" stroke="midnightblue" points="548.95,-29.71 545.36,-19.74 541.95,-29.77 548.95,-29.71"/>
</g>
<!-- Node38 -->
<g id="node15" class="node">
<title>Node38</title>
<g id="a_node15"><a xlink:href="validate__types_8h.html" target="_top" xlink:title=" ">
<polygon fill="none" stroke="black" points="198,-56.5 198,-75.5 296,-75.5 296,-56.5 198,-56.5"/>
<text text-anchor="middle" x="247" y="-63.5" font-family="Helvetica,sans-Serif" font-size="10.00">validate_types.h</text>
</a>
</g>
</g>
<!-- Node8&#45;&gt;Node38 -->
<g id="edge19" class="edge">
<title>Node8&#45;&gt;Node38</title>
<path fill="none" stroke="midnightblue" d="M459.23,-174.56C398.6,-168.09 241.94,-149.8 227,-132 215.54,-118.35 224.55,-98.2 233.87,-83.96"/>
<polygon fill="midnightblue" stroke="midnightblue" points="236.88,-85.76 239.83,-75.58 231.18,-81.7 236.88,-85.76"/>
</g>
<!-- Node39 -->
<g id="node16" class="node">
<title>Node39</title>
<g id="a_node16"><a xlink:href="validate__expressions_8h.html" target="_top" xlink:title=" ">
<polygon fill="none" stroke="black" points="301.5,-112.5 301.5,-131.5 430.5,-131.5 430.5,-112.5 301.5,-112.5"/>
<text text-anchor="middle" x="366" y="-119.5" font-family="Helvetica,sans-Serif" font-size="10.00">validate_expressions.h</text>
</a>
</g>
</g>
<!-- Node8&#45;&gt;Node39 -->
<g id="edge18" class="edge">
<title>Node8&#45;&gt;Node39</title>
<path fill="none" stroke="midnightblue" d="M464.46,-168.44C445.38,-159.64 415.43,-145.81 393.56,-135.72"/>
<polygon fill="midnightblue" stroke="midnightblue" points="395,-132.53 384.45,-131.52 392.07,-138.88 395,-132.53"/>
</g>
<!-- Node40 -->
<g id="node17" class="node">
<title>Node40</title>
<g id="a_node17"><a xlink:title=" ">
<polygon fill="none" stroke="#bfbfbf" points="573.5,-112.5 573.5,-131.5 638.5,-131.5 638.5,-112.5 573.5,-112.5"/>
<text text-anchor="middle" x="606" y="-119.5" font-family="Helvetica,sans-Serif" font-size="10.00">functional</text>
</a>
</g>
</g>
<!-- Node8&#45;&gt;Node40 -->
<g id="edge21" class="edge">
<title>Node8&#45;&gt;Node40</title>
<path fill="none" stroke="midnightblue" d="M502.49,-168.44C522.64,-159.6 554.32,-145.69 577.33,-135.59"/>
<polygon fill="midnightblue" stroke="midnightblue" points="578.85,-138.74 586.6,-131.52 576.04,-132.33 578.85,-138.74"/>
</g>
<!-- Node11 -->
<g id="node11" class="node">
<title>Node11</title>
<g id="a_node11"><a xlink:href="source__location_8h.html" target="_top" xlink:title=" ">
<polygon fill="none" stroke="red" points="314,-56.5 314,-75.5 416,-75.5 416,-56.5 314,-56.5"/>
<text text-anchor="middle" x="365" y="-63.5" font-family="Helvetica,sans-Serif" font-size="10.00">source_location.h</text>
</a>
</g>
</g>
<!-- Node10&#45;&gt;Node11 -->
<g id="edge11" class="edge">
<title>Node10&#45;&gt;Node11</title>
<path fill="none" stroke="midnightblue" d="M276.87,-112.32C293.71,-103.66 319.81,-90.24 339.24,-80.25"/>
<polygon fill="midnightblue" stroke="midnightblue" points="340.88,-83.34 348.17,-75.65 337.68,-77.12 340.88,-83.34"/>
</g>
<!-- Node10&#45;&gt;Node35 -->
<g id="edge13" class="edge">
<title>Node10&#45;&gt;Node35</title>
<path fill="none" stroke="midnightblue" d="M283.67,-113.92C286.46,-113.21 289.29,-112.55 292,-112 402.32,-89.56 534.48,-76.23 601.11,-70.43"/>
<polygon fill="midnightblue" stroke="midnightblue" points="601.56,-73.91 611.22,-69.57 600.96,-66.93 601.56,-73.91"/>
</g>
<!-- Node10&#45;&gt;Node37 -->
<g id="edge17" class="edge">
<title>Node10&#45;&gt;Node37</title>
<path fill="none" stroke="midnightblue" d="M283.76,-114.29C286.54,-113.51 289.33,-112.74 292,-112 351.03,-95.71 368.14,-98.74 425,-76 460.74,-61.71 499.44,-39.39 522.95,-24.97"/>
<polygon fill="midnightblue" stroke="midnightblue" points="524.81,-27.94 531.47,-19.69 521.13,-21.99 524.81,-27.94"/>
</g>
<!-- Node10&#45;&gt;Node38 -->
<g id="edge16" class="edge">
<title>Node10&#45;&gt;Node38</title>
<path fill="none" stroke="midnightblue" d="M257.85,-112.08C256.13,-104.93 253.65,-94.64 251.5,-85.69"/>
<polygon fill="midnightblue" stroke="midnightblue" points="254.85,-84.65 249.11,-75.75 248.04,-86.29 254.85,-84.65"/>
</g>
<!-- Node11&#45;&gt;Node3 -->
<g id="edge12" class="edge">
<title>Node11&#45;&gt;Node3</title>
<path fill="none" stroke="midnightblue" d="M334.1,-56.44C297.98,-46.44 238.49,-29.97 201.93,-19.84"/>
<polygon fill="midnightblue" stroke="midnightblue" points="202.83,-16.46 192.26,-17.16 200.97,-23.21 202.83,-16.46"/>
</g>
<!-- Node18 -->
<g id="node13" class="node">
<title>Node18</title>
<g id="a_node13"><a xlink:title=" ">
<polygon fill="none" stroke="#bfbfbf" points="670.5,-0.5 670.5,-19.5 739.5,-19.5 739.5,-0.5 670.5,-0.5"/>
<text text-anchor="middle" x="705" y="-7.5" font-family="Helvetica,sans-Serif" font-size="10.00">type_traits</text>
</a>
</g>
</g>
<!-- Node35&#45;&gt;Node18 -->
<g id="edge14" class="edge">
<title>Node35&#45;&gt;Node18</title>
<path fill="none" stroke="midnightblue" d="M653.8,-56.32C662.82,-48.34 676.41,-36.31 687.32,-26.65"/>
<polygon fill="midnightblue" stroke="midnightblue" points="689.85,-29.08 695.02,-19.83 685.21,-23.84 689.85,-29.08"/>
</g>
<!-- Node35&#45;&gt;Node37 -->
<g id="edge15" class="edge">
<title>Node35&#45;&gt;Node37</title>
<path fill="none" stroke="midnightblue" d="M628.09,-56.32C612.36,-47.74 588.06,-34.49 569.79,-24.52"/>
<polygon fill="midnightblue" stroke="midnightblue" points="571.32,-21.37 560.87,-19.65 567.97,-27.52 571.32,-21.37"/>
</g>
<!-- Node41&#45;&gt;Node8 -->
<g id="edge29" class="edge">
<title>Node41&#45;&gt;Node8</title>
<path fill="none" stroke="midnightblue" d="M590.72,-224.44C569.65,-215.56 536.48,-201.56 512.51,-191.45"/>
<polygon fill="midnightblue" stroke="midnightblue" points="513.76,-188.18 503.19,-187.52 511.04,-194.63 513.76,-188.18"/>
</g>
<!-- Node41&#45;&gt;Node18 -->
<g id="edge24" class="edge">
<title>Node41&#45;&gt;Node18</title>
<path fill="none" stroke="midnightblue" d="M615.74,-224.37C628.42,-201.01 663.68,-134.41 686,-76 691.9,-60.56 697.05,-42.47 700.5,-29.3"/>
<polygon fill="midnightblue" stroke="midnightblue" points="703.9,-30.11 702.97,-19.56 697.12,-28.39 703.9,-30.11"/>
</g>
<!-- Node41&#45;&gt;Node40 -->
<g id="edge25" class="edge">
<title>Node41&#45;&gt;Node40</title>
<path fill="none" stroke="midnightblue" d="M610.61,-224.37C609.8,-206.62 607.94,-165.67 606.85,-141.6"/>
<polygon fill="midnightblue" stroke="midnightblue" points="610.34,-141.42 606.39,-131.59 603.35,-141.74 610.34,-141.42"/>
</g>
<!-- Node42 -->
<g id="node19" class="node">
<title>Node42</title>
<g id="a_node19"><a xlink:title=" ">
<polygon fill="none" stroke="#bfbfbf" points="525.5,-168.5 525.5,-187.5 582.5,-187.5 582.5,-168.5 525.5,-168.5"/>
<text text-anchor="middle" x="554" y="-175.5" font-family="Helvetica,sans-Serif" font-size="10.00">typeinfo</text>
</a>
</g>
</g>
<!-- Node41&#45;&gt;Node42 -->
<g id="edge23" class="edge">
<title>Node41&#45;&gt;Node42</title>
<path fill="none" stroke="midnightblue" d="M601.84,-224.32C593.5,-216.42 580.97,-204.55 570.82,-194.94"/>
<polygon fill="midnightblue" stroke="midnightblue" points="572.99,-192.17 563.32,-187.83 568.18,-197.25 572.99,-192.17"/>
</g>
<!-- Node41&#45;&gt;Node15 -->
<g id="edge26" class="edge">
<title>Node41&#45;&gt;Node15</title>
<path fill="none" stroke="midnightblue" d="M628.19,-224.32C645.35,-215.66 671.95,-202.24 691.75,-192.25"/>
<polygon fill="midnightblue" stroke="midnightblue" points="693.5,-195.28 700.85,-187.65 690.35,-189.04 693.5,-195.28"/>
</g>
<!-- Node15&#45;&gt;Node3 -->
<g id="edge27" class="edge">
<title>Node15&#45;&gt;Node3</title>
<path fill="none" stroke="midnightblue" d="M711.24,-168.38C699.78,-154.36 675.11,-126.71 648,-112 496.03,-29.53 283,-14.36 202.51,-11.6"/>
<polygon fill="midnightblue" stroke="midnightblue" points="202.59,-8.1 192.49,-11.3 202.38,-15.1 202.59,-8.1"/>
</g>
<!-- Node15&#45;&gt;Node18 -->
<g id="edge28" class="edge">
<title>Node15&#45;&gt;Node18</title>
<path fill="none" stroke="midnightblue" d="M719,-168.43C721.11,-148.53 725.34,-97.75 719,-56 717.63,-47 714.81,-37.33 712.05,-29.26"/>
<polygon fill="midnightblue" stroke="midnightblue" points="715.31,-27.98 708.6,-19.78 708.73,-30.37 715.31,-27.98"/>
</g>
<!-- Node43&#45;&gt;Node3 -->
<g id="edge33" class="edge">
<title>Node43&#45;&gt;Node3</title>
<path fill="none" stroke="midnightblue" d="M239.3,-224.35C221.89,-217.4 200.6,-205.82 189,-188 156.73,-138.44 162.09,-64.07 166.85,-29.67"/>
<polygon fill="midnightblue" stroke="midnightblue" points="170.33,-30.05 168.39,-19.63 163.41,-28.99 170.33,-30.05"/>
</g>
<!-- Node21 -->
<g id="node22" class="node">
<title>Node21</title>
<g id="a_node22"><a xlink:title=" ">
<polygon fill="none" stroke="#bfbfbf" points="198,-168.5 198,-187.5 246,-187.5 246,-168.5 198,-168.5"/>
<text text-anchor="middle" x="222" y="-175.5" font-family="Helvetica,sans-Serif" font-size="10.00">iosfwd</text>
</a>
</g>
</g>
<!-- Node43&#45;&gt;Node21 -->
<g id="edge32" class="edge">
<title>Node43&#45;&gt;Node21</title>
<path fill="none" stroke="midnightblue" d="M259.57,-224.08C253.15,-216.38 243.69,-205.03 235.88,-195.65"/>
<polygon fill="midnightblue" stroke="midnightblue" points="238.38,-193.19 229.29,-187.75 233.01,-197.67 238.38,-193.19"/>
</g>
<!-- Node44 -->
<g id="node23" class="node">
<title>Node44</title>
<g id="a_node23"><a xlink:title=" ">
<polygon fill="none" stroke="#bfbfbf" points="264,-168.5 264,-187.5 358,-187.5 358,-168.5 264,-168.5"/>
<text text-anchor="middle" x="311" y="-175.5" font-family="Helvetica,sans-Serif" font-size="10.00">big&#45;int/bigint.hh</text>
</a>
</g>
</g>
<!-- Node43&#45;&gt;Node44 -->
<g id="edge34" class="edge">
<title>Node43&#45;&gt;Node44</title>
<path fill="none" stroke="midnightblue" d="M274.27,-224.08C280.54,-216.38 289.79,-205.03 297.43,-195.65"/>
<polygon fill="midnightblue" stroke="midnightblue" points="300.27,-197.71 303.87,-187.75 294.84,-193.29 300.27,-197.71"/>
</g>
<!-- Node45&#45;&gt;Node7 -->
<g id="edge40" class="edge">
<title>Node45&#45;&gt;Node7</title>
<path fill="none" stroke="midnightblue" d="M600.56,-336.32C590.85,-328.26 576.18,-316.08 564.5,-306.37"/>
<polygon fill="midnightblue" stroke="midnightblue" points="566.56,-303.53 556.63,-299.83 562.09,-308.92 566.56,-303.53"/>
</g>
<!-- Node45&#45;&gt;Node41 -->
<g id="edge38" class="edge">
<title>Node45&#45;&gt;Node41</title>
<path fill="none" stroke="midnightblue" d="M611,-336.37C611,-318.62 611,-277.67 611,-253.6"/>
<polygon fill="midnightblue" stroke="midnightblue" points="614.5,-253.59 611,-243.59 607.5,-253.59 614.5,-253.59"/>
</g>
<!-- Node45&#45;&gt;Node15 -->
<g id="edge39" class="edge">
<title>Node45&#45;&gt;Node15</title>
<path fill="none" stroke="midnightblue" d="M617.59,-336.3C630.54,-319.07 659.94,-279.25 682,-244 691.82,-228.32 701.93,-209.8 708.93,-196.55"/>
<polygon fill="midnightblue" stroke="midnightblue" points="712.09,-198.06 713.62,-187.58 705.89,-194.82 712.09,-198.06"/>
</g>
</g>
</svg>
