<?xml version="1.0" encoding="UTF-8" standalone="no"?>
<!DOCTYPE svg PUBLIC "-//W3C//DTD SVG 1.1//EN"
 "http://www.w3.org/Graphics/SVG/1.1/DTD/svg11.dtd">
<!-- Generated by graphviz version 2.43.0 (0)
 -->
<!-- Title: /home/runner/work/cbmc/cbmc/src/crangler/crangler_parse_options.h Pages: 1 -->
<svg width="1018pt" height="554pt"
 viewBox="0.00 0.00 1018.00 554.00" xmlns="http://www.w3.org/2000/svg" xmlns:xlink="http://www.w3.org/1999/xlink">
<g id="graph0" class="graph" transform="scale(1 1) rotate(0) translate(4 550)">
<title>/home/runner/work/cbmc/cbmc/src/crangler/crangler_parse_options.h</title>
<!-- Node1 -->
<g id="node1" class="node">
<title>Node1</title>
<g id="a_node1"><a xlink:title="CRANGLER Command Line Option Processing.">
<polygon fill="#bfbfbf" stroke="black" points="297.5,-504.5 297.5,-545.5 446.5,-545.5 446.5,-504.5 297.5,-504.5"/>
<text text-anchor="start" x="305.5" y="-533.5" font-family="Helvetica,sans-Serif" font-size="10.00">/home/runner/work/cbmc</text>
<text text-anchor="start" x="305.5" y="-522.5" font-family="Helvetica,sans-Serif" font-size="10.00">/cbmc/src/crangler/crangler</text>
<text text-anchor="middle" x="372" y="-511.5" font-family="Helvetica,sans-Serif" font-size="10.00">_parse_options.h</text>
</a>
</g>
</g>
<!-- Node2 -->
<g id="node2" class="node">
<title>Node2</title>
<g id="a_node2"><a xlink:href="parse__options_8h.html" target="_top" xlink:title=" ">
<polygon fill="none" stroke="black" points="315.5,-448.5 315.5,-467.5 428.5,-467.5 428.5,-448.5 315.5,-448.5"/>
<text text-anchor="middle" x="372" y="-455.5" font-family="Helvetica,sans-Serif" font-size="10.00">util/parse_options.h</text>
</a>
</g>
</g>
<!-- Node1&#45;&gt;Node2 -->
<g id="edge1" class="edge">
<title>Node1&#45;&gt;Node2</title>
<path fill="none" stroke="midnightblue" d="M372,-504.5C372,-496.07 372,-486.24 372,-477.87"/>
<polygon fill="midnightblue" stroke="midnightblue" points="375.5,-477.65 372,-467.65 368.5,-477.65 375.5,-477.65"/>
</g>
<!-- Node3 -->
<g id="node3" class="node">
<title>Node3</title>
<g id="a_node3"><a xlink:title=" ">
<polygon fill="none" stroke="#bfbfbf" points="614,-0.5 614,-19.5 658,-19.5 658,-0.5 614,-0.5"/>
<text text-anchor="middle" x="636" y="-7.5" font-family="Helvetica,sans-Serif" font-size="10.00">string</text>
</a>
</g>
</g>
<!-- Node2&#45;&gt;Node3 -->
<g id="edge2" class="edge">
<title>Node2&#45;&gt;Node3</title>
<path fill="none" stroke="midnightblue" d="M353.19,-448.49C322.25,-433.05 264,-397.31 264,-347 264,-347 264,-347 264,-289 264,-229.55 175.4,-218.35 207,-168 229.32,-132.43 508.31,-48.26 604.02,-20.25"/>
<polygon fill="midnightblue" stroke="midnightblue" points="605.12,-23.58 613.74,-17.42 603.15,-16.86 605.12,-23.58"/>
</g>
<!-- Node4 -->
<g id="node4" class="node">
<title>Node4</title>
<g id="a_node4"><a xlink:href="cmdline_8h.html" target="_top" xlink:title=" ">
<polygon fill="none" stroke="black" points="125.5,-280.5 125.5,-299.5 190.5,-299.5 190.5,-280.5 125.5,-280.5"/>
<text text-anchor="middle" x="158" y="-287.5" font-family="Helvetica,sans-Serif" font-size="10.00">cmdline.h</text>
</a>
</g>
</g>
<!-- Node2&#45;&gt;Node4 -->
<g id="edge3" class="edge">
<title>Node2&#45;&gt;Node4</title>
<path fill="none" stroke="midnightblue" d="M332.42,-448.49C307.09,-441.65 274.5,-430.13 250,-412 211.61,-383.59 181.52,-334.88 167.18,-308.77"/>
<polygon fill="midnightblue" stroke="midnightblue" points="170.12,-306.84 162.32,-299.66 163.94,-310.13 170.12,-306.84"/>
</g>
<!-- Node11 -->
<g id="node11" class="node">
<title>Node11</title>
<g id="a_node11"><a xlink:href="src_2util_2message_8h.html" target="_top" xlink:title=" ">
<polygon fill="none" stroke="black" points="473,-336.5 473,-355.5 543,-355.5 543,-336.5 473,-336.5"/>
<text text-anchor="middle" x="508" y="-343.5" font-family="Helvetica,sans-Serif" font-size="10.00">message.h</text>
</a>
</g>
</g>
<!-- Node2&#45;&gt;Node11 -->
<g id="edge11" class="edge">
<title>Node2&#45;&gt;Node11</title>
<path fill="none" stroke="midnightblue" d="M382.67,-448.37C405.71,-429.73 460.36,-385.53 489.29,-362.13"/>
<polygon fill="midnightblue" stroke="midnightblue" points="491.8,-364.6 497.38,-355.59 487.4,-359.16 491.8,-364.6"/>
</g>
<!-- Node34 -->
<g id="node28" class="node">
<title>Node34</title>
<g id="a_node28"><a xlink:href="ui__message_8h.html" target="_top" xlink:title=" ">
<polygon fill="none" stroke="black" points="528,-392.5 528,-411.5 612,-411.5 612,-392.5 528,-392.5"/>
<text text-anchor="middle" x="570" y="-399.5" font-family="Helvetica,sans-Serif" font-size="10.00">ui_message.h</text>
</a>
</g>
</g>
<!-- Node2&#45;&gt;Node34 -->
<g id="edge42" class="edge">
<title>Node2&#45;&gt;Node34</title>
<path fill="none" stroke="midnightblue" d="M403.37,-448.44C437.26,-439.2 491.4,-424.44 528.72,-414.26"/>
<polygon fill="midnightblue" stroke="midnightblue" points="530.05,-417.52 538.77,-411.52 528.2,-410.77 530.05,-417.52"/>
</g>
<!-- Node4&#45;&gt;Node3 -->
<g id="edge6" class="edge">
<title>Node4&#45;&gt;Node3</title>
<path fill="none" stroke="midnightblue" d="M156.61,-280.41C153.65,-259.14 148.91,-203.2 174,-168 194.77,-138.87 219.94,-156.51 246,-132 274.43,-105.26 257.52,-77.64 290,-56 340.93,-22.07 527.02,-13.67 603.18,-11.63"/>
<polygon fill="midnightblue" stroke="midnightblue" points="603.67,-15.12 613.59,-11.38 603.5,-8.12 603.67,-15.12"/>
</g>
<!-- Node5 -->
<g id="node5" class="node">
<title>Node5</title>
<g id="a_node5"><a xlink:title=" ">
<polygon fill="none" stroke="#bfbfbf" points="28,-224.5 28,-243.5 72,-243.5 72,-224.5 28,-224.5"/>
<text text-anchor="middle" x="50" y="-231.5" font-family="Helvetica,sans-Serif" font-size="10.00">limits</text>
</a>
</g>
</g>
<!-- Node4&#45;&gt;Node5 -->
<g id="edge4" class="edge">
<title>Node4&#45;&gt;Node5</title>
<path fill="none" stroke="midnightblue" d="M140.65,-280.32C123.33,-271.66 96.48,-258.24 76.5,-248.25"/>
<polygon fill="midnightblue" stroke="midnightblue" points="77.82,-245 67.31,-243.65 74.69,-251.26 77.82,-245"/>
</g>
<!-- Node6 -->
<g id="node6" class="node">
<title>Node6</title>
<g id="a_node6"><a xlink:title=" ">
<polygon fill="none" stroke="#bfbfbf" points="90,-224.5 90,-243.5 122,-243.5 122,-224.5 90,-224.5"/>
<text text-anchor="middle" x="106" y="-231.5" font-family="Helvetica,sans-Serif" font-size="10.00">list</text>
</a>
</g>
</g>
<!-- Node4&#45;&gt;Node6 -->
<g id="edge5" class="edge">
<title>Node4&#45;&gt;Node6</title>
<path fill="none" stroke="midnightblue" d="M149.41,-280.08C141.84,-272.22 130.62,-260.57 121.49,-251.08"/>
<polygon fill="midnightblue" stroke="midnightblue" points="123.88,-248.53 114.43,-243.75 118.84,-253.38 123.88,-248.53"/>
</g>
<!-- Node7 -->
<g id="node7" class="node">
<title>Node7</title>
<g id="a_node7"><a xlink:title=" ">
<polygon fill="none" stroke="#bfbfbf" points="382.5,-168.5 382.5,-187.5 429.5,-187.5 429.5,-168.5 382.5,-168.5"/>
<text text-anchor="middle" x="406" y="-175.5" font-family="Helvetica,sans-Serif" font-size="10.00">vector</text>
</a>
</g>
</g>
<!-- Node4&#45;&gt;Node7 -->
<g id="edge7" class="edge">
<title>Node4&#45;&gt;Node7</title>
<path fill="none" stroke="midnightblue" d="M173.22,-280.37C196.61,-267.29 243,-242.05 284,-224 313.42,-211.05 347.85,-198.58 372.62,-190.07"/>
<polygon fill="midnightblue" stroke="midnightblue" points="373.93,-193.32 382.27,-186.78 371.68,-186.69 373.93,-193.32"/>
</g>
<!-- Node8 -->
<g id="node8" class="node">
<title>Node8</title>
<g id="a_node8"><a xlink:href="optional_8h.html" target="_top" xlink:title=" ">
<polygon fill="none" stroke="black" points="293.5,-224.5 293.5,-243.5 358.5,-243.5 358.5,-224.5 293.5,-224.5"/>
<text text-anchor="middle" x="326" y="-231.5" font-family="Helvetica,sans-Serif" font-size="10.00">optional.h</text>
</a>
</g>
</g>
<!-- Node4&#45;&gt;Node8 -->
<g id="edge8" class="edge">
<title>Node4&#45;&gt;Node8</title>
<path fill="none" stroke="midnightblue" d="M184.62,-280.44C213.01,-271.32 258.14,-256.81 289.75,-246.65"/>
<polygon fill="midnightblue" stroke="midnightblue" points="291.06,-249.91 299.5,-243.52 288.91,-243.24 291.06,-249.91"/>
</g>
<!-- Node9 -->
<g id="node9" class="node">
<title>Node9</title>
<g id="a_node9"><a xlink:href="deprecate_8h.html" target="_top" xlink:title=" ">
<polygon fill="none" stroke="black" points="290,-168.5 290,-187.5 364,-187.5 364,-168.5 290,-168.5"/>
<text text-anchor="middle" x="327" y="-175.5" font-family="Helvetica,sans-Serif" font-size="10.00">deprecate.h</text>
</a>
</g>
</g>
<!-- Node8&#45;&gt;Node9 -->
<g id="edge9" class="edge">
<title>Node8&#45;&gt;Node9</title>
<path fill="none" stroke="midnightblue" d="M326.17,-224.08C326.3,-217.01 326.48,-206.86 326.65,-197.99"/>
<polygon fill="midnightblue" stroke="midnightblue" points="330.15,-197.81 326.84,-187.75 323.15,-197.68 330.15,-197.81"/>
</g>
<!-- Node10 -->
<g id="node10" class="node">
<title>Node10</title>
<g id="a_node10"><a xlink:title=" ">
<polygon fill="none" stroke="#bfbfbf" points="216,-168.5 216,-187.5 272,-187.5 272,-168.5 216,-168.5"/>
<text text-anchor="middle" x="244" y="-175.5" font-family="Helvetica,sans-Serif" font-size="10.00">optional</text>
</a>
</g>
</g>
<!-- Node8&#45;&gt;Node10 -->
<g id="edge10" class="edge">
<title>Node8&#45;&gt;Node10</title>
<path fill="none" stroke="midnightblue" d="M312.83,-224.32C300.15,-215.98 280.77,-203.21 265.79,-193.35"/>
<polygon fill="midnightblue" stroke="midnightblue" points="267.42,-190.23 257.14,-187.65 263.57,-196.08 267.42,-190.23"/>
</g>
<!-- Node11&#45;&gt;Node3 -->
<g id="edge15" class="edge">
<title>Node11&#45;&gt;Node3</title>
<path fill="none" stroke="midnightblue" d="M543.03,-345.33C623.59,-345.36 818.76,-341.09 867,-300 889.91,-280.48 886,-265.1 886,-235 886,-235 886,-235 886,-121 886,-26.93 735.86,-12.6 668.29,-10.91"/>
<polygon fill="midnightblue" stroke="midnightblue" points="668.24,-7.41 658.19,-10.74 668.12,-14.41 668.24,-7.41"/>
</g>
<!-- Node11&#45;&gt;Node9 -->
<g id="edge16" class="edge">
<title>Node11&#45;&gt;Node9</title>
<path fill="none" stroke="midnightblue" d="M495.19,-336.19C482.75,-327.46 463.54,-313.48 448,-300 407.45,-264.83 363.86,-219.02 341.72,-195.12"/>
<polygon fill="midnightblue" stroke="midnightblue" points="344.18,-192.62 334.83,-187.63 339.03,-197.36 344.18,-192.62"/>
</g>
<!-- Node12 -->
<g id="node12" class="node">
<title>Node12</title>
<g id="a_node12"><a xlink:title=" ">
<polygon fill="none" stroke="#bfbfbf" points="792.5,-280.5 792.5,-299.5 857.5,-299.5 857.5,-280.5 792.5,-280.5"/>
<text text-anchor="middle" x="825" y="-287.5" font-family="Helvetica,sans-Serif" font-size="10.00">functional</text>
</a>
</g>
</g>
<!-- Node11&#45;&gt;Node12 -->
<g id="edge12" class="edge">
<title>Node11&#45;&gt;Node12</title>
<path fill="none" stroke="midnightblue" d="M543.43,-339.37C595.07,-331.11 694.03,-315.03 778,-300 779.46,-299.74 780.94,-299.47 782.43,-299.2"/>
<polygon fill="midnightblue" stroke="midnightblue" points="783.21,-302.61 792.4,-297.35 781.93,-295.73 783.21,-302.61"/>
</g>
<!-- Node13 -->
<g id="node13" class="node">
<title>Node13</title>
<g id="a_node13"><a xlink:title=" ">
<polygon fill="none" stroke="#bfbfbf" points="750,-56.5 750,-75.5 798,-75.5 798,-56.5 750,-56.5"/>
<text text-anchor="middle" x="774" y="-63.5" font-family="Helvetica,sans-Serif" font-size="10.00">iosfwd</text>
</a>
</g>
</g>
<!-- Node11&#45;&gt;Node13 -->
<g id="edge13" class="edge">
<title>Node11&#45;&gt;Node13</title>
<path fill="none" stroke="midnightblue" d="M523.88,-336.42C563.35,-314.68 668.12,-254.42 743,-188 767.52,-166.25 779.63,-162.74 791,-132 796.8,-116.31 790.77,-97.79 784.34,-84.55"/>
<polygon fill="midnightblue" stroke="midnightblue" points="787.34,-82.74 779.53,-75.58 781.17,-86.05 787.34,-82.74"/>
</g>
<!-- Node14 -->
<g id="node14" class="node">
<title>Node14</title>
<g id="a_node14"><a xlink:title=" ">
<polygon fill="none" stroke="#bfbfbf" points="4,-0.5 4,-19.5 60,-19.5 60,-0.5 4,-0.5"/>
<text text-anchor="middle" x="32" y="-7.5" font-family="Helvetica,sans-Serif" font-size="10.00">sstream</text>
</a>
</g>
</g>
<!-- Node11&#45;&gt;Node14 -->
<g id="edge14" class="edge">
<title>Node11&#45;&gt;Node14</title>
<path fill="none" stroke="midnightblue" d="M472.68,-344.9C357.48,-343.63 0,-331.89 0,-235 0,-235 0,-235 0,-121 0,-87.33 13.99,-50.08 23.47,-28.72"/>
<polygon fill="midnightblue" stroke="midnightblue" points="26.67,-30.14 27.68,-19.59 20.32,-27.21 26.67,-30.14"/>
</g>
<!-- Node15 -->
<g id="node15" class="node">
<title>Node15</title>
<g id="a_node15"><a xlink:href="src_2util_2invariant_8h.html" target="_top" xlink:title=" ">
<polygon fill="none" stroke="black" points="113.5,-56.5 113.5,-75.5 182.5,-75.5 182.5,-56.5 113.5,-56.5"/>
<text text-anchor="middle" x="148" y="-63.5" font-family="Helvetica,sans-Serif" font-size="10.00">invariant.h</text>
</a>
</g>
</g>
<!-- Node11&#45;&gt;Node15 -->
<g id="edge17" class="edge">
<title>Node11&#45;&gt;Node15</title>
<path fill="none" stroke="midnightblue" d="M472.9,-337.91C405.51,-322.52 257.33,-279.8 174,-188 148.21,-159.59 145.75,-111.94 146.62,-85.71"/>
<polygon fill="midnightblue" stroke="midnightblue" points="150.12,-85.78 147.16,-75.61 143.13,-85.41 150.12,-85.78"/>
</g>
<!-- Node18 -->
<g id="node18" class="node">
<title>Node18</title>
<g id="a_node18"><a xlink:href="source__location_8h.html" target="_top" xlink:title=" ">
<polygon fill="none" stroke="black" points="457,-280.5 457,-299.5 559,-299.5 559,-280.5 457,-280.5"/>
<text text-anchor="middle" x="508" y="-287.5" font-family="Helvetica,sans-Serif" font-size="10.00">source_location.h</text>
</a>
</g>
</g>
<!-- Node11&#45;&gt;Node18 -->
<g id="edge22" class="edge">
<title>Node11&#45;&gt;Node18</title>
<path fill="none" stroke="midnightblue" d="M508,-336.08C508,-329.01 508,-318.86 508,-309.99"/>
<polygon fill="midnightblue" stroke="midnightblue" points="511.5,-309.75 508,-299.75 504.5,-309.75 511.5,-309.75"/>
</g>
<!-- Node15&#45;&gt;Node3 -->
<g id="edge20" class="edge">
<title>Node15&#45;&gt;Node3</title>
<path fill="none" stroke="midnightblue" d="M182.7,-61.16C273.32,-51.13 516.09,-24.27 603.81,-14.56"/>
<polygon fill="midnightblue" stroke="midnightblue" points="604.4,-18.02 613.96,-13.44 603.63,-11.06 604.4,-18.02"/>
</g>
<!-- Node15&#45;&gt;Node14 -->
<g id="edge19" class="edge">
<title>Node15&#45;&gt;Node14</title>
<path fill="none" stroke="midnightblue" d="M129.62,-56.44C110.78,-47.68 81.27,-33.94 59.62,-23.86"/>
<polygon fill="midnightblue" stroke="midnightblue" points="60.84,-20.56 50.29,-19.52 57.88,-26.91 60.84,-20.56"/>
</g>
<!-- Node16 -->
<g id="node16" class="node">
<title>Node16</title>
<g id="a_node16"><a xlink:title=" ">
<polygon fill="none" stroke="#bfbfbf" points="109.5,-0.5 109.5,-19.5 158.5,-19.5 158.5,-0.5 109.5,-0.5"/>
<text text-anchor="middle" x="134" y="-7.5" font-family="Helvetica,sans-Serif" font-size="10.00">cstdlib</text>
</a>
</g>
</g>
<!-- Node15&#45;&gt;Node16 -->
<g id="edge18" class="edge">
<title>Node15&#45;&gt;Node16</title>
<path fill="none" stroke="midnightblue" d="M145.69,-56.08C143.83,-48.93 141.16,-38.64 138.85,-29.69"/>
<polygon fill="midnightblue" stroke="midnightblue" points="142.17,-28.55 136.27,-19.75 135.39,-30.31 142.17,-28.55"/>
</g>
<!-- Node17 -->
<g id="node17" class="node">
<title>Node17</title>
<g id="a_node17"><a xlink:title=" ">
<polygon fill="none" stroke="#bfbfbf" points="176.5,-0.5 176.5,-19.5 245.5,-19.5 245.5,-0.5 176.5,-0.5"/>
<text text-anchor="middle" x="211" y="-7.5" font-family="Helvetica,sans-Serif" font-size="10.00">type_traits</text>
</a>
</g>
</g>
<!-- Node15&#45;&gt;Node17 -->
<g id="edge21" class="edge">
<title>Node15&#45;&gt;Node17</title>
<path fill="none" stroke="midnightblue" d="M158.12,-56.32C167.53,-48.26 181.74,-36.08 193.07,-26.37"/>
<polygon fill="midnightblue" stroke="midnightblue" points="195.38,-29 200.69,-19.83 190.82,-23.68 195.38,-29"/>
</g>
<!-- Node18&#45;&gt;Node3 -->
<g id="edge41" class="edge">
<title>Node18&#45;&gt;Node3</title>
<path fill="none" stroke="midnightblue" d="M550.41,-280.47C616.58,-264.55 741.9,-223.3 791,-132 807.35,-101.6 828.07,-83.34 807,-56 790.17,-34.17 712.79,-20.82 668.1,-14.8"/>
<polygon fill="midnightblue" stroke="midnightblue" points="668.4,-11.31 658.03,-13.49 667.5,-18.25 668.4,-11.31"/>
</g>
<!-- Node18&#45;&gt;Node8 -->
<g id="edge40" class="edge">
<title>Node18&#45;&gt;Node8</title>
<path fill="none" stroke="midnightblue" d="M479.16,-280.44C448.14,-271.24 398.67,-256.56 364.38,-246.39"/>
<polygon fill="midnightblue" stroke="midnightblue" points="365.29,-243.01 354.7,-243.52 363.29,-249.72 365.29,-243.01"/>
</g>
<!-- Node18&#45;&gt;Node9 -->
<g id="edge23" class="edge">
<title>Node18&#45;&gt;Node9</title>
<path fill="none" stroke="midnightblue" d="M496,-280.4C477.92,-267.57 442.45,-242.9 411,-224 392.15,-212.67 370.23,-200.98 353.51,-192.35"/>
<polygon fill="midnightblue" stroke="midnightblue" points="354.83,-189.09 344.33,-187.65 351.64,-195.32 354.83,-189.09"/>
</g>
<!-- Node19 -->
<g id="node19" class="node">
<title>Node19</title>
<g id="a_node19"><a xlink:href="irep_8h.html" target="_top" xlink:title=" ">
<polygon fill="none" stroke="black" points="509,-224.5 509,-243.5 553,-243.5 553,-224.5 509,-224.5"/>
<text text-anchor="middle" x="531" y="-231.5" font-family="Helvetica,sans-Serif" font-size="10.00">irep.h</text>
</a>
</g>
</g>
<!-- Node18&#45;&gt;Node19 -->
<g id="edge24" class="edge">
<title>Node18&#45;&gt;Node19</title>
<path fill="none" stroke="midnightblue" d="M511.8,-280.08C514.91,-272.77 519.42,-262.18 523.29,-253.1"/>
<polygon fill="midnightblue" stroke="midnightblue" points="526.57,-254.32 527.27,-243.75 520.13,-251.58 526.57,-254.32"/>
</g>
<!-- Node19&#45;&gt;Node3 -->
<g id="edge25" class="edge">
<title>Node19&#45;&gt;Node3</title>
<path fill="none" stroke="midnightblue" d="M553.34,-229.04C575.36,-223.82 607.84,-212.29 623,-188 624.97,-184.84 621.4,-146.38 621,-132 620.75,-123.11 620.35,-120.86 621,-112 623.14,-83.05 628.68,-49.8 632.39,-29.61"/>
<polygon fill="midnightblue" stroke="midnightblue" points="635.87,-30.07 634.28,-19.6 628.99,-28.78 635.87,-30.07"/>
</g>
<!-- Node19&#45;&gt;Node7 -->
<g id="edge26" class="edge">
<title>Node19&#45;&gt;Node7</title>
<path fill="none" stroke="midnightblue" d="M511.19,-224.44C490.71,-215.6 458.52,-201.69 435.14,-191.59"/>
<polygon fill="midnightblue" stroke="midnightblue" points="436.28,-188.27 425.71,-187.52 433.51,-194.7 436.28,-188.27"/>
</g>
<!-- Node19&#45;&gt;Node15 -->
<g id="edge27" class="edge">
<title>Node19&#45;&gt;Node15</title>
<path fill="none" stroke="midnightblue" d="M521.72,-224.06C506.08,-209.58 472.86,-181.28 439,-168 326.3,-123.79 261.95,-209.57 169,-132 155.5,-120.74 150.6,-100.73 148.86,-85.87"/>
<polygon fill="midnightblue" stroke="midnightblue" points="152.33,-85.44 148.05,-75.75 145.36,-86 152.33,-85.44"/>
</g>
<!-- Node20 -->
<g id="node20" class="node">
<title>Node20</title>
<g id="a_node20"><a xlink:href="irep__ids_8h.html" target="_top" xlink:title="util">
<polygon fill="none" stroke="black" points="670,-168.5 670,-187.5 734,-187.5 734,-168.5 670,-168.5"/>
<text text-anchor="middle" x="702" y="-175.5" font-family="Helvetica,sans-Serif" font-size="10.00">irep_ids.h</text>
</a>
</g>
</g>
<!-- Node19&#45;&gt;Node20 -->
<g id="edge28" class="edge">
<title>Node19&#45;&gt;Node20</title>
<path fill="none" stroke="midnightblue" d="M553.01,-226.05C581.41,-217.08 631.24,-201.35 665.39,-190.56"/>
<polygon fill="midnightblue" stroke="midnightblue" points="666.53,-193.87 675.01,-187.52 664.42,-187.2 666.53,-193.87"/>
</g>
<!-- Node29 -->
<g id="node23" class="node">
<title>Node29</title>
<g id="a_node23"><a xlink:href="forward__list__as__map_8h.html" target="_top" xlink:title=" ">
<polygon fill="none" stroke="black" points="486.5,-168.5 486.5,-187.5 613.5,-187.5 613.5,-168.5 486.5,-168.5"/>
<text text-anchor="middle" x="550" y="-175.5" font-family="Helvetica,sans-Serif" font-size="10.00">forward_list_as_map.h</text>
</a>
</g>
</g>
<!-- Node19&#45;&gt;Node29 -->
<g id="edge33" class="edge">
<title>Node19&#45;&gt;Node29</title>
<path fill="none" stroke="midnightblue" d="M534.14,-224.08C536.68,-216.85 540.36,-206.41 543.53,-197.4"/>
<polygon fill="midnightblue" stroke="midnightblue" points="546.9,-198.35 546.92,-187.75 540.3,-196.02 546.9,-198.35"/>
</g>
<!-- Node21 -->
<g id="node21" class="node">
<title>Node21</title>
<g id="a_node21"><a xlink:href="dstring_8h.html" target="_top" xlink:title="Container for C&#45;Strings.">
<polygon fill="none" stroke="red" points="722.5,-112.5 722.5,-131.5 781.5,-131.5 781.5,-112.5 722.5,-112.5"/>
<text text-anchor="middle" x="752" y="-119.5" font-family="Helvetica,sans-Serif" font-size="10.00">dstring.h</text>
</a>
</g>
</g>
<!-- Node20&#45;&gt;Node21 -->
<g id="edge29" class="edge">
<title>Node20&#45;&gt;Node21</title>
<path fill="none" stroke="midnightblue" d="M710.26,-168.08C717.46,-160.3 728.11,-148.8 736.85,-139.37"/>
<polygon fill="midnightblue" stroke="midnightblue" points="739.67,-141.47 743.9,-131.75 734.53,-136.71 739.67,-141.47"/>
</g>
<!-- Node28 -->
<g id="node22" class="node">
<title>Node28</title>
<g id="a_node22"><a xlink:title=" ">
<polygon fill="none" stroke="#bfbfbf" points="630,-112.5 630,-131.5 704,-131.5 704,-112.5 630,-112.5"/>
<text text-anchor="middle" x="667" y="-119.5" font-family="Helvetica,sans-Serif" font-size="10.00">irep_ids.def</text>
</a>
</g>
</g>
<!-- Node20&#45;&gt;Node28 -->
<g id="edge32" class="edge">
<title>Node20&#45;&gt;Node28</title>
<path fill="none" stroke="midnightblue" d="M696.22,-168.08C691.33,-160.53 684.17,-149.49 678.17,-140.23"/>
<polygon fill="midnightblue" stroke="midnightblue" points="681.05,-138.24 672.67,-131.75 675.17,-142.05 681.05,-138.24"/>
</g>
<!-- Node21&#45;&gt;Node3 -->
<g id="edge31" class="edge">
<title>Node21&#45;&gt;Node3</title>
<path fill="none" stroke="midnightblue" d="M742.9,-112.37C723.42,-93.89 677.44,-50.29 652.6,-26.74"/>
<polygon fill="midnightblue" stroke="midnightblue" points="654.72,-23.93 645.06,-19.59 649.91,-29.01 654.72,-23.93"/>
</g>
<!-- Node21&#45;&gt;Node13 -->
<g id="edge30" class="edge">
<title>Node21&#45;&gt;Node13</title>
<path fill="none" stroke="midnightblue" d="M755.63,-112.08C758.61,-104.77 762.93,-94.18 766.62,-85.1"/>
<polygon fill="midnightblue" stroke="midnightblue" points="769.9,-86.33 770.43,-75.75 763.42,-83.69 769.9,-86.33"/>
</g>
<!-- Node30 -->
<g id="node24" class="node">
<title>Node30</title>
<g id="a_node24"><a xlink:title=" ">
<polygon fill="none" stroke="#bfbfbf" points="510,-112.5 510,-131.5 574,-131.5 574,-112.5 510,-112.5"/>
<text text-anchor="middle" x="542" y="-119.5" font-family="Helvetica,sans-Serif" font-size="10.00">algorithm</text>
</a>
</g>
</g>
<!-- Node29&#45;&gt;Node30 -->
<g id="edge34" class="edge">
<title>Node29&#45;&gt;Node30</title>
<path fill="none" stroke="midnightblue" d="M548.68,-168.08C547.62,-160.93 546.09,-150.64 544.77,-141.69"/>
<polygon fill="midnightblue" stroke="midnightblue" points="548.22,-141.13 543.3,-131.75 541.3,-142.16 548.22,-141.13"/>
</g>
<!-- Node31 -->
<g id="node25" class="node">
<title>Node31</title>
<g id="a_node25"><a xlink:title=" ">
<polygon fill="none" stroke="#bfbfbf" points="332,-112.5 332,-131.5 406,-131.5 406,-112.5 332,-112.5"/>
<text text-anchor="middle" x="369" y="-119.5" font-family="Helvetica,sans-Serif" font-size="10.00">forward_list</text>
</a>
</g>
</g>
<!-- Node29&#45;&gt;Node31 -->
<g id="edge35" class="edge">
<title>Node29&#45;&gt;Node31</title>
<path fill="none" stroke="midnightblue" d="M521.32,-168.44C490.47,-159.24 441.27,-144.56 407.17,-134.39"/>
<polygon fill="midnightblue" stroke="midnightblue" points="408.13,-131.02 397.55,-131.52 406.13,-137.73 408.13,-131.02"/>
</g>
<!-- Node32 -->
<g id="node26" class="node">
<title>Node32</title>
<g id="a_node26"><a xlink:href="as__const_8h.html" target="_top" xlink:title=" ">
<polygon fill="none" stroke="black" points="424,-112.5 424,-131.5 492,-131.5 492,-112.5 424,-112.5"/>
<text text-anchor="middle" x="458" y="-119.5" font-family="Helvetica,sans-Serif" font-size="10.00">as_const.h</text>
</a>
</g>
</g>
<!-- Node29&#45;&gt;Node32 -->
<g id="edge36" class="edge">
<title>Node29&#45;&gt;Node32</title>
<path fill="none" stroke="midnightblue" d="M535.22,-168.32C520.73,-159.82 498.43,-146.73 481.51,-136.8"/>
<polygon fill="midnightblue" stroke="midnightblue" points="483.14,-133.7 472.74,-131.65 479.6,-139.74 483.14,-133.7"/>
</g>
<!-- Node33 -->
<g id="node27" class="node">
<title>Node33</title>
<g id="a_node27"><a xlink:href="narrow_8h.html" target="_top" xlink:title=" ">
<polygon fill="none" stroke="black" points="178.5,-112.5 178.5,-131.5 237.5,-131.5 237.5,-112.5 178.5,-112.5"/>
<text text-anchor="middle" x="208" y="-119.5" font-family="Helvetica,sans-Serif" font-size="10.00">narrow.h</text>
</a>
</g>
</g>
<!-- Node29&#45;&gt;Node33 -->
<g id="edge37" class="edge">
<title>Node29&#45;&gt;Node33</title>
<path fill="none" stroke="midnightblue" d="M495.81,-168.44C426.73,-157.54 308.92,-138.93 247.65,-129.26"/>
<polygon fill="midnightblue" stroke="midnightblue" points="248.03,-125.78 237.61,-127.67 246.94,-132.69 248.03,-125.78"/>
</g>
<!-- Node33&#45;&gt;Node15 -->
<g id="edge39" class="edge">
<title>Node33&#45;&gt;Node15</title>
<path fill="none" stroke="midnightblue" d="M198.36,-112.32C189.49,-104.34 176.13,-92.31 165.39,-82.65"/>
<polygon fill="midnightblue" stroke="midnightblue" points="167.59,-79.92 157.82,-75.83 162.91,-85.13 167.59,-79.92"/>
</g>
<!-- Node33&#45;&gt;Node17 -->
<g id="edge38" class="edge">
<title>Node33&#45;&gt;Node17</title>
<path fill="none" stroke="midnightblue" d="M208.24,-112.37C208.72,-94.62 209.84,-53.67 210.49,-29.6"/>
<polygon fill="midnightblue" stroke="midnightblue" points="213.99,-29.68 210.77,-19.59 206.99,-29.49 213.99,-29.68"/>
</g>
<!-- Node34&#45;&gt;Node11 -->
<g id="edge44" class="edge">
<title>Node34&#45;&gt;Node11</title>
<path fill="none" stroke="midnightblue" d="M560.04,-392.32C550.87,-384.34 537.06,-372.31 525.97,-362.65"/>
<polygon fill="midnightblue" stroke="midnightblue" points="527.98,-359.76 518.14,-355.83 523.38,-365.04 527.98,-359.76"/>
</g>
<!-- Node35 -->
<g id="node29" class="node">
<title>Node35</title>
<g id="a_node29"><a xlink:title=" ">
<polygon fill="none" stroke="#bfbfbf" points="952,-280.5 952,-299.5 1010,-299.5 1010,-280.5 952,-280.5"/>
<text text-anchor="middle" x="981" y="-287.5" font-family="Helvetica,sans-Serif" font-size="10.00">memory</text>
</a>
</g>
</g>
<!-- Node34&#45;&gt;Node35 -->
<g id="edge43" class="edge">
<title>Node34&#45;&gt;Node35</title>
<path fill="none" stroke="midnightblue" d="M612.24,-401.84C702.44,-402.75 909.95,-399.87 962,-356 975.32,-344.77 979.59,-324.75 980.82,-309.89"/>
<polygon fill="midnightblue" stroke="midnightblue" points="984.32,-309.91 981.27,-299.76 977.33,-309.6 984.32,-309.91"/>
</g>
<!-- Node36 -->
<g id="node30" class="node">
<title>Node36</title>
<g id="a_node30"><a xlink:href="timestamper_8h.html" target="_top" xlink:title="Emit timestamps.">
<polygon fill="none" stroke="black" points="865,-336.5 865,-355.5 953,-355.5 953,-336.5 865,-336.5"/>
<text text-anchor="middle" x="909" y="-343.5" font-family="Helvetica,sans-Serif" font-size="10.00">timestamper.h</text>
</a>
</g>
</g>
<!-- Node34&#45;&gt;Node36 -->
<g id="edge45" class="edge">
<title>Node34&#45;&gt;Node36</title>
<path fill="none" stroke="midnightblue" d="M612.25,-394.27C673.62,-384.49 787.43,-366.37 854.87,-355.62"/>
<polygon fill="midnightblue" stroke="midnightblue" points="855.55,-359.06 864.87,-354.03 854.45,-352.15 855.55,-359.06"/>
</g>
<!-- Node36&#45;&gt;Node3 -->
<g id="edge47" class="edge">
<title>Node36&#45;&gt;Node3</title>
<path fill="none" stroke="midnightblue" d="M910.96,-336.5C915.03,-318.09 924,-273.16 924,-235 924,-235 924,-235 924,-121 924,-84.82 905.74,-75.08 875,-56 840.88,-34.82 725.49,-20.27 668.45,-14.19"/>
<polygon fill="midnightblue" stroke="midnightblue" points="668.5,-10.68 658.19,-13.12 667.78,-17.64 668.5,-10.68"/>
</g>
<!-- Node36&#45;&gt;Node35 -->
<g id="edge46" class="edge">
<title>Node36&#45;&gt;Node35</title>
<path fill="none" stroke="midnightblue" d="M920.57,-336.32C931.42,-328.18 947.88,-315.84 960.88,-306.09"/>
<polygon fill="midnightblue" stroke="midnightblue" points="963.32,-308.63 969.22,-299.83 959.12,-303.03 963.32,-308.63"/>
</g>
</g>
</svg>
