<?xml version="1.0" encoding="UTF-8" standalone="no"?>
<!DOCTYPE svg PUBLIC "-//W3C//DTD SVG 1.1//EN"
 "http://www.w3.org/Graphics/SVG/1.1/DTD/svg11.dtd">
<!-- Generated by graphviz version 2.43.0 (0)
 -->
<!-- Title: /home/runner/work/cbmc/cbmc/src/goto&#45;cc/cw_mode.h Pages: 1 -->
<svg width="1115pt" height="487pt"
 viewBox="0.00 0.00 1115.00 487.00" xmlns="http://www.w3.org/2000/svg" xmlns:xlink="http://www.w3.org/1999/xlink">
<g id="graph0" class="graph" transform="scale(1 1) rotate(0) translate(4 483)">
<title>/home/runner/work/cbmc/cbmc/src/goto&#45;cc/cw_mode.h</title>
<!-- Node1 -->
<g id="node1" class="node">
<title>Node1</title>
<g id="a_node1"><a xlink:title="Base class for command line interpretation.">
<polygon fill="#bfbfbf" stroke="black" points="754.5,-448.5 754.5,-478.5 915.5,-478.5 915.5,-448.5 754.5,-448.5"/>
<text text-anchor="start" x="762.5" y="-466.5" font-family="Helvetica,sans-Serif" font-size="10.00">/home/runner/work/cbmc</text>
<text text-anchor="middle" x="835" y="-455.5" font-family="Helvetica,sans-Serif" font-size="10.00">/cbmc/src/goto&#45;cc/cw_mode.h</text>
</a>
</g>
</g>
<!-- Node2 -->
<g id="node2" class="node">
<title>Node2</title>
<g id="a_node2"><a xlink:href="cout__message_8h.html" target="_top" xlink:title=" ">
<polygon fill="none" stroke="black" points="634.5,-392.5 634.5,-411.5 749.5,-411.5 749.5,-392.5 634.5,-392.5"/>
<text text-anchor="middle" x="692" y="-399.5" font-family="Helvetica,sans-Serif" font-size="10.00">util/cout_message.h</text>
</a>
</g>
</g>
<!-- Node1&#45;&gt;Node2 -->
<g id="edge1" class="edge">
<title>Node1&#45;&gt;Node2</title>
<path fill="none" stroke="midnightblue" d="M801.11,-448.4C777.12,-438.42 745.23,-425.15 722.12,-415.53"/>
<polygon fill="midnightblue" stroke="midnightblue" points="723.39,-412.27 712.81,-411.66 720.7,-418.73 723.39,-412.27"/>
</g>
<!-- Node31 -->
<g id="node24" class="node">
<title>Node31</title>
<g id="a_node24"><a xlink:href="goto__cc__mode_8h.html" target="_top" xlink:title="Command line interpretation for goto&#45;cc.">
<polygon fill="none" stroke="black" points="787,-336.5 787,-355.5 883,-355.5 883,-336.5 787,-336.5"/>
<text text-anchor="middle" x="835" y="-343.5" font-family="Helvetica,sans-Serif" font-size="10.00">goto_cc_mode.h</text>
</a>
</g>
</g>
<!-- Node1&#45;&gt;Node31 -->
<g id="edge33" class="edge">
<title>Node1&#45;&gt;Node31</title>
<path fill="none" stroke="midnightblue" d="M835,-448.34C835,-427.62 835,-389.02 835,-365.9"/>
<polygon fill="midnightblue" stroke="midnightblue" points="838.5,-365.67 835,-355.67 831.5,-365.67 838.5,-365.67"/>
</g>
<!-- Node32 -->
<g id="node25" class="node">
<title>Node32</title>
<g id="a_node25"><a xlink:href="gcc__cmdline_8h.html" target="_top" xlink:title="A special command line object for the gcc&#45;like options.">
<polygon fill="none" stroke="black" points="887,-392.5 887,-411.5 973,-411.5 973,-392.5 887,-392.5"/>
<text text-anchor="middle" x="930" y="-399.5" font-family="Helvetica,sans-Serif" font-size="10.00">gcc_cmdline.h</text>
</a>
</g>
</g>
<!-- Node1&#45;&gt;Node32 -->
<g id="edge35" class="edge">
<title>Node1&#45;&gt;Node32</title>
<path fill="none" stroke="midnightblue" d="M857.51,-448.4C872.6,-438.95 892.39,-426.56 907.47,-417.11"/>
<polygon fill="midnightblue" stroke="midnightblue" points="909.56,-419.93 916.18,-411.66 905.84,-414 909.56,-419.93"/>
</g>
<!-- Node3 -->
<g id="node3" class="node">
<title>Node3</title>
<g id="a_node3"><a xlink:href="src_2util_2message_8h.html" target="_top" xlink:title=" ">
<polygon fill="none" stroke="black" points="527,-336.5 527,-355.5 597,-355.5 597,-336.5 527,-336.5"/>
<text text-anchor="middle" x="562" y="-343.5" font-family="Helvetica,sans-Serif" font-size="10.00">message.h</text>
</a>
</g>
</g>
<!-- Node2&#45;&gt;Node3 -->
<g id="edge2" class="edge">
<title>Node2&#45;&gt;Node3</title>
<path fill="none" stroke="midnightblue" d="M671.4,-392.44C650.01,-383.56 616.32,-369.56 591.98,-359.45"/>
<polygon fill="midnightblue" stroke="midnightblue" points="593.08,-356.12 582.5,-355.52 590.39,-362.58 593.08,-356.12"/>
</g>
<!-- Node4 -->
<g id="node4" class="node">
<title>Node4</title>
<g id="a_node4"><a xlink:title=" ">
<polygon fill="none" stroke="#bfbfbf" points="670.5,-280.5 670.5,-299.5 735.5,-299.5 735.5,-280.5 670.5,-280.5"/>
<text text-anchor="middle" x="703" y="-287.5" font-family="Helvetica,sans-Serif" font-size="10.00">functional</text>
</a>
</g>
</g>
<!-- Node3&#45;&gt;Node4 -->
<g id="edge3" class="edge">
<title>Node3&#45;&gt;Node4</title>
<path fill="none" stroke="midnightblue" d="M584.34,-336.44C607.75,-327.48 644.74,-313.31 671.19,-303.18"/>
<polygon fill="midnightblue" stroke="midnightblue" points="672.68,-306.36 680.76,-299.52 670.17,-299.82 672.68,-306.36"/>
</g>
<!-- Node5 -->
<g id="node5" class="node">
<title>Node5</title>
<g id="a_node5"><a xlink:title=" ">
<polygon fill="none" stroke="#bfbfbf" points="377,-56.5 377,-75.5 425,-75.5 425,-56.5 377,-56.5"/>
<text text-anchor="middle" x="401" y="-63.5" font-family="Helvetica,sans-Serif" font-size="10.00">iosfwd</text>
</a>
</g>
</g>
<!-- Node3&#45;&gt;Node5 -->
<g id="edge4" class="edge">
<title>Node3&#45;&gt;Node5</title>
<path fill="none" stroke="midnightblue" d="M526.69,-341.25C439.31,-331.01 220,-298.93 220,-235 220,-235 220,-235 220,-177 220,-146.9 217.58,-133.14 239,-112 273.14,-78.32 330.17,-69.34 366.66,-67.22"/>
<polygon fill="midnightblue" stroke="midnightblue" points="366.99,-70.71 376.83,-66.78 366.68,-63.72 366.99,-70.71"/>
</g>
<!-- Node6 -->
<g id="node6" class="node">
<title>Node6</title>
<g id="a_node6"><a xlink:title=" ">
<polygon fill="none" stroke="#bfbfbf" points="0,-0.5 0,-19.5 56,-19.5 56,-0.5 0,-0.5"/>
<text text-anchor="middle" x="28" y="-7.5" font-family="Helvetica,sans-Serif" font-size="10.00">sstream</text>
</a>
</g>
</g>
<!-- Node3&#45;&gt;Node6 -->
<g id="edge5" class="edge">
<title>Node3&#45;&gt;Node6</title>
<path fill="none" stroke="midnightblue" d="M526.85,-344.52C432.15,-342.76 173.72,-334.82 97,-300 58.63,-282.59 28,-277.13 28,-235 28,-235 28,-235 28,-121 28,-88.95 28,-51.64 28,-29.75"/>
<polygon fill="midnightblue" stroke="midnightblue" points="31.5,-29.56 28,-19.56 24.5,-29.56 31.5,-29.56"/>
</g>
<!-- Node7 -->
<g id="node7" class="node">
<title>Node7</title>
<g id="a_node7"><a xlink:title=" ">
<polygon fill="none" stroke="#bfbfbf" points="704,-0.5 704,-19.5 748,-19.5 748,-0.5 704,-0.5"/>
<text text-anchor="middle" x="726" y="-7.5" font-family="Helvetica,sans-Serif" font-size="10.00">string</text>
</a>
</g>
</g>
<!-- Node3&#45;&gt;Node7 -->
<g id="edge6" class="edge">
<title>Node3&#45;&gt;Node7</title>
<path fill="none" stroke="midnightblue" d="M597.32,-340.44C644.08,-333.73 723.07,-319.79 744,-300 765.96,-279.24 764,-265.23 764,-235 764,-235 764,-235 764,-121 764,-86.81 747.4,-49.76 736.14,-28.57"/>
<polygon fill="midnightblue" stroke="midnightblue" points="739.18,-26.83 731.28,-19.77 733.05,-30.22 739.18,-26.83"/>
</g>
<!-- Node8 -->
<g id="node8" class="node">
<title>Node8</title>
<g id="a_node8"><a xlink:href="deprecate_8h.html" target="_top" xlink:title=" ">
<polygon fill="none" stroke="black" points="486,-224.5 486,-243.5 560,-243.5 560,-224.5 486,-224.5"/>
<text text-anchor="middle" x="523" y="-231.5" font-family="Helvetica,sans-Serif" font-size="10.00">deprecate.h</text>
</a>
</g>
</g>
<!-- Node3&#45;&gt;Node8 -->
<g id="edge7" class="edge">
<title>Node3&#45;&gt;Node8</title>
<path fill="none" stroke="midnightblue" d="M557.37,-336.22C552.78,-327.28 545.77,-312.94 541,-300 535.3,-284.55 530.43,-266.46 527.2,-253.29"/>
<polygon fill="midnightblue" stroke="midnightblue" points="530.6,-252.48 524.89,-243.56 523.79,-254.09 530.6,-252.48"/>
</g>
<!-- Node9 -->
<g id="node9" class="node">
<title>Node9</title>
<g id="a_node9"><a xlink:href="src_2util_2invariant_8h.html" target="_top" xlink:title=" ">
<polygon fill="none" stroke="black" points="69.5,-56.5 69.5,-75.5 138.5,-75.5 138.5,-56.5 69.5,-56.5"/>
<text text-anchor="middle" x="104" y="-63.5" font-family="Helvetica,sans-Serif" font-size="10.00">invariant.h</text>
</a>
</g>
</g>
<!-- Node3&#45;&gt;Node9 -->
<g id="edge8" class="edge">
<title>Node3&#45;&gt;Node9</title>
<path fill="none" stroke="midnightblue" d="M526.73,-344.72C413.41,-342.87 66,-329.49 66,-235 66,-235 66,-235 66,-177 66,-142.81 82.6,-105.76 93.86,-84.57"/>
<polygon fill="midnightblue" stroke="midnightblue" points="96.95,-86.22 98.72,-75.77 90.82,-82.83 96.95,-86.22"/>
</g>
<!-- Node12 -->
<g id="node12" class="node">
<title>Node12</title>
<g id="a_node12"><a xlink:href="source__location_8h.html" target="_top" xlink:title=" ">
<polygon fill="none" stroke="black" points="550,-280.5 550,-299.5 652,-299.5 652,-280.5 550,-280.5"/>
<text text-anchor="middle" x="601" y="-287.5" font-family="Helvetica,sans-Serif" font-size="10.00">source_location.h</text>
</a>
</g>
</g>
<!-- Node3&#45;&gt;Node12 -->
<g id="edge13" class="edge">
<title>Node3&#45;&gt;Node12</title>
<path fill="none" stroke="midnightblue" d="M568.44,-336.08C573.95,-328.46 582.03,-317.26 588.76,-307.94"/>
<polygon fill="midnightblue" stroke="midnightblue" points="591.66,-309.91 594.68,-299.75 585.99,-305.81 591.66,-309.91"/>
</g>
<!-- Node9&#45;&gt;Node6 -->
<g id="edge10" class="edge">
<title>Node9&#45;&gt;Node6</title>
<path fill="none" stroke="midnightblue" d="M91.79,-56.32C80.22,-48.11 62.62,-35.6 48.84,-25.81"/>
<polygon fill="midnightblue" stroke="midnightblue" points="50.61,-22.77 40.43,-19.83 46.56,-28.48 50.61,-22.77"/>
</g>
<!-- Node9&#45;&gt;Node7 -->
<g id="edge11" class="edge">
<title>Node9&#45;&gt;Node7</title>
<path fill="none" stroke="midnightblue" d="M138.77,-61.98C248.6,-52.45 587.03,-23.06 693.55,-13.82"/>
<polygon fill="midnightblue" stroke="midnightblue" points="694.03,-17.29 703.69,-12.94 693.42,-10.32 694.03,-17.29"/>
</g>
<!-- Node10 -->
<g id="node10" class="node">
<title>Node10</title>
<g id="a_node10"><a xlink:title=" ">
<polygon fill="none" stroke="#bfbfbf" points="74.5,-0.5 74.5,-19.5 123.5,-19.5 123.5,-0.5 74.5,-0.5"/>
<text text-anchor="middle" x="99" y="-7.5" font-family="Helvetica,sans-Serif" font-size="10.00">cstdlib</text>
</a>
</g>
</g>
<!-- Node9&#45;&gt;Node10 -->
<g id="edge9" class="edge">
<title>Node9&#45;&gt;Node10</title>
<path fill="none" stroke="midnightblue" d="M103.17,-56.08C102.52,-49.01 101.58,-38.86 100.76,-29.99"/>
<polygon fill="midnightblue" stroke="midnightblue" points="104.22,-29.39 99.81,-19.75 97.25,-30.03 104.22,-29.39"/>
</g>
<!-- Node11 -->
<g id="node11" class="node">
<title>Node11</title>
<g id="a_node11"><a xlink:title=" ">
<polygon fill="none" stroke="#bfbfbf" points="141.5,-0.5 141.5,-19.5 210.5,-19.5 210.5,-0.5 141.5,-0.5"/>
<text text-anchor="middle" x="176" y="-7.5" font-family="Helvetica,sans-Serif" font-size="10.00">type_traits</text>
</a>
</g>
</g>
<!-- Node9&#45;&gt;Node11 -->
<g id="edge12" class="edge">
<title>Node9&#45;&gt;Node11</title>
<path fill="none" stroke="midnightblue" d="M115.57,-56.32C126.42,-48.18 142.88,-35.84 155.88,-26.09"/>
<polygon fill="midnightblue" stroke="midnightblue" points="158.32,-28.63 164.22,-19.83 154.12,-23.03 158.32,-28.63"/>
</g>
<!-- Node12&#45;&gt;Node7 -->
<g id="edge32" class="edge">
<title>Node12&#45;&gt;Node7</title>
<path fill="none" stroke="midnightblue" d="M625.1,-280.41C661.42,-265.75 726,-232.19 726,-179 726,-179 726,-179 726,-121 726,-88.95 726,-51.64 726,-29.75"/>
<polygon fill="midnightblue" stroke="midnightblue" points="729.5,-29.56 726,-19.56 722.5,-29.56 729.5,-29.56"/>
</g>
<!-- Node12&#45;&gt;Node8 -->
<g id="edge14" class="edge">
<title>Node12&#45;&gt;Node8</title>
<path fill="none" stroke="midnightblue" d="M588.47,-280.32C576.41,-271.98 557.97,-259.21 543.73,-249.35"/>
<polygon fill="midnightblue" stroke="midnightblue" points="545.72,-246.47 535.5,-243.65 541.73,-252.22 545.72,-246.47"/>
</g>
<!-- Node13 -->
<g id="node13" class="node">
<title>Node13</title>
<g id="a_node13"><a xlink:href="irep_8h.html" target="_top" xlink:title=" ">
<polygon fill="none" stroke="black" points="579,-224.5 579,-243.5 623,-243.5 623,-224.5 579,-224.5"/>
<text text-anchor="middle" x="601" y="-231.5" font-family="Helvetica,sans-Serif" font-size="10.00">irep.h</text>
</a>
</g>
</g>
<!-- Node12&#45;&gt;Node13 -->
<g id="edge15" class="edge">
<title>Node12&#45;&gt;Node13</title>
<path fill="none" stroke="midnightblue" d="M601,-280.08C601,-273.01 601,-262.86 601,-253.99"/>
<polygon fill="midnightblue" stroke="midnightblue" points="604.5,-253.75 601,-243.75 597.5,-253.75 604.5,-253.75"/>
</g>
<!-- Node30 -->
<g id="node23" class="node">
<title>Node30</title>
<g id="a_node23"><a xlink:title=" ">
<polygon fill="none" stroke="#bfbfbf" points="863,-224.5 863,-243.5 919,-243.5 919,-224.5 863,-224.5"/>
<text text-anchor="middle" x="891" y="-231.5" font-family="Helvetica,sans-Serif" font-size="10.00">optional</text>
</a>
</g>
</g>
<!-- Node12&#45;&gt;Node30 -->
<g id="edge31" class="edge">
<title>Node12&#45;&gt;Node30</title>
<path fill="none" stroke="midnightblue" d="M646.95,-280.44C703.85,-269.85 799.72,-252 852.78,-242.12"/>
<polygon fill="midnightblue" stroke="midnightblue" points="853.61,-245.52 862.8,-240.25 852.33,-238.64 853.61,-245.52"/>
</g>
<!-- Node13&#45;&gt;Node7 -->
<g id="edge16" class="edge">
<title>Node13&#45;&gt;Node7</title>
<path fill="none" stroke="midnightblue" d="M610.33,-224.36C619.26,-215.76 632.7,-201.87 642,-188 678.1,-134.2 706.98,-62.48 719.4,-29.28"/>
<polygon fill="midnightblue" stroke="midnightblue" points="722.8,-30.18 722.97,-19.58 716.23,-27.76 722.8,-30.18"/>
</g>
<!-- Node13&#45;&gt;Node9 -->
<g id="edge18" class="edge">
<title>Node13&#45;&gt;Node9</title>
<path fill="none" stroke="midnightblue" d="M578.72,-226.29C575.48,-225.44 572.17,-224.65 569,-224 370.72,-183.41 263.67,-277.52 123,-132 111.14,-119.73 106.62,-100.47 104.93,-86.09"/>
<polygon fill="midnightblue" stroke="midnightblue" points="108.39,-85.53 104.1,-75.84 101.42,-86.09 108.39,-85.53"/>
</g>
<!-- Node14 -->
<g id="node14" class="node">
<title>Node14</title>
<g id="a_node14"><a xlink:title=" ">
<polygon fill="none" stroke="#bfbfbf" points="792.5,-168.5 792.5,-187.5 839.5,-187.5 839.5,-168.5 792.5,-168.5"/>
<text text-anchor="middle" x="816" y="-175.5" font-family="Helvetica,sans-Serif" font-size="10.00">vector</text>
</a>
</g>
</g>
<!-- Node13&#45;&gt;Node14 -->
<g id="edge17" class="edge">
<title>Node13&#45;&gt;Node14</title>
<path fill="none" stroke="midnightblue" d="M623.2,-227.42C661.02,-217.92 738.17,-198.55 782.55,-187.4"/>
<polygon fill="midnightblue" stroke="midnightblue" points="783.45,-190.79 792.29,-184.95 781.74,-184 783.45,-190.79"/>
</g>
<!-- Node15 -->
<g id="node15" class="node">
<title>Node15</title>
<g id="a_node15"><a xlink:href="irep__ids_8h.html" target="_top" xlink:title="util">
<polygon fill="none" stroke="black" points="569,-168.5 569,-187.5 633,-187.5 633,-168.5 569,-168.5"/>
<text text-anchor="middle" x="601" y="-175.5" font-family="Helvetica,sans-Serif" font-size="10.00">irep_ids.h</text>
</a>
</g>
</g>
<!-- Node13&#45;&gt;Node15 -->
<g id="edge19" class="edge">
<title>Node13&#45;&gt;Node15</title>
<path fill="none" stroke="midnightblue" d="M601,-224.08C601,-217.01 601,-206.86 601,-197.99"/>
<polygon fill="midnightblue" stroke="midnightblue" points="604.5,-197.75 601,-187.75 597.5,-197.75 604.5,-197.75"/>
</g>
<!-- Node25 -->
<g id="node18" class="node">
<title>Node25</title>
<g id="a_node18"><a xlink:href="forward__list__as__map_8h.html" target="_top" xlink:title=" ">
<polygon fill="none" stroke="black" points="302.5,-168.5 302.5,-187.5 429.5,-187.5 429.5,-168.5 302.5,-168.5"/>
<text text-anchor="middle" x="366" y="-175.5" font-family="Helvetica,sans-Serif" font-size="10.00">forward_list_as_map.h</text>
</a>
</g>
</g>
<!-- Node13&#45;&gt;Node25 -->
<g id="edge24" class="edge">
<title>Node13&#45;&gt;Node25</title>
<path fill="none" stroke="midnightblue" d="M578.66,-226.55C575.43,-225.66 572.13,-224.79 569,-224 517.74,-211.12 458.7,-198.25 417.56,-189.6"/>
<polygon fill="midnightblue" stroke="midnightblue" points="418.27,-186.17 407.76,-187.54 416.83,-193.02 418.27,-186.17"/>
</g>
<!-- Node16 -->
<g id="node16" class="node">
<title>Node16</title>
<g id="a_node16"><a xlink:href="dstring_8h.html" target="_top" xlink:title="Container for C&#45;Strings.">
<polygon fill="none" stroke="red" points="600.5,-112.5 600.5,-131.5 659.5,-131.5 659.5,-112.5 600.5,-112.5"/>
<text text-anchor="middle" x="630" y="-119.5" font-family="Helvetica,sans-Serif" font-size="10.00">dstring.h</text>
</a>
</g>
</g>
<!-- Node15&#45;&gt;Node16 -->
<g id="edge20" class="edge">
<title>Node15&#45;&gt;Node16</title>
<path fill="none" stroke="midnightblue" d="M605.79,-168.08C609.76,-160.69 615.53,-149.95 620.43,-140.81"/>
<polygon fill="midnightblue" stroke="midnightblue" points="623.65,-142.22 625.3,-131.75 617.49,-138.91 623.65,-142.22"/>
</g>
<!-- Node24 -->
<g id="node17" class="node">
<title>Node24</title>
<g id="a_node17"><a xlink:title=" ">
<polygon fill="none" stroke="#bfbfbf" points="508,-112.5 508,-131.5 582,-131.5 582,-112.5 508,-112.5"/>
<text text-anchor="middle" x="545" y="-119.5" font-family="Helvetica,sans-Serif" font-size="10.00">irep_ids.def</text>
</a>
</g>
</g>
<!-- Node15&#45;&gt;Node24 -->
<g id="edge23" class="edge">
<title>Node15&#45;&gt;Node24</title>
<path fill="none" stroke="midnightblue" d="M592,-168.32C583.81,-160.42 571.49,-148.55 561.53,-138.94"/>
<polygon fill="midnightblue" stroke="midnightblue" points="563.79,-136.26 554.16,-131.83 558.93,-141.29 563.79,-136.26"/>
</g>
<!-- Node16&#45;&gt;Node5 -->
<g id="edge21" class="edge">
<title>Node16&#45;&gt;Node5</title>
<path fill="none" stroke="midnightblue" d="M600.06,-113.94C557.43,-103.89 479.47,-85.5 434.81,-74.97"/>
<polygon fill="midnightblue" stroke="midnightblue" points="435.55,-71.55 425.02,-72.66 433.95,-78.37 435.55,-71.55"/>
</g>
<!-- Node16&#45;&gt;Node7 -->
<g id="edge22" class="edge">
<title>Node16&#45;&gt;Node7</title>
<path fill="none" stroke="midnightblue" d="M634.78,-112.49C642.24,-99.57 657.53,-74.54 674,-56 683.79,-44.98 696.23,-34.13 706.48,-25.84"/>
<polygon fill="midnightblue" stroke="midnightblue" points="708.79,-28.47 714.48,-19.53 704.46,-22.98 708.79,-28.47"/>
</g>
<!-- Node26 -->
<g id="node19" class="node">
<title>Node26</title>
<g id="a_node19"><a xlink:title=" ">
<polygon fill="none" stroke="#bfbfbf" points="334,-112.5 334,-131.5 398,-131.5 398,-112.5 334,-112.5"/>
<text text-anchor="middle" x="366" y="-119.5" font-family="Helvetica,sans-Serif" font-size="10.00">algorithm</text>
</a>
</g>
</g>
<!-- Node25&#45;&gt;Node26 -->
<g id="edge25" class="edge">
<title>Node25&#45;&gt;Node26</title>
<path fill="none" stroke="midnightblue" d="M366,-168.08C366,-161.01 366,-150.86 366,-141.99"/>
<polygon fill="midnightblue" stroke="midnightblue" points="369.5,-141.75 366,-131.75 362.5,-141.75 369.5,-141.75"/>
</g>
<!-- Node27 -->
<g id="node20" class="node">
<title>Node27</title>
<g id="a_node20"><a xlink:title=" ">
<polygon fill="none" stroke="#bfbfbf" points="416,-112.5 416,-131.5 490,-131.5 490,-112.5 416,-112.5"/>
<text text-anchor="middle" x="453" y="-119.5" font-family="Helvetica,sans-Serif" font-size="10.00">forward_list</text>
</a>
</g>
</g>
<!-- Node25&#45;&gt;Node27 -->
<g id="edge26" class="edge">
<title>Node25&#45;&gt;Node27</title>
<path fill="none" stroke="midnightblue" d="M379.98,-168.32C393.55,-159.9 414.38,-146.97 430.32,-137.07"/>
<polygon fill="midnightblue" stroke="midnightblue" points="432.41,-139.9 439.06,-131.65 428.71,-133.95 432.41,-139.9"/>
</g>
<!-- Node28 -->
<g id="node21" class="node">
<title>Node28</title>
<g id="a_node21"><a xlink:href="as__const_8h.html" target="_top" xlink:title=" ">
<polygon fill="none" stroke="black" points="248,-112.5 248,-131.5 316,-131.5 316,-112.5 248,-112.5"/>
<text text-anchor="middle" x="282" y="-119.5" font-family="Helvetica,sans-Serif" font-size="10.00">as_const.h</text>
</a>
</g>
</g>
<!-- Node25&#45;&gt;Node28 -->
<g id="edge27" class="edge">
<title>Node25&#45;&gt;Node28</title>
<path fill="none" stroke="midnightblue" d="M352.5,-168.32C339.4,-159.9 319.29,-146.97 303.89,-137.07"/>
<polygon fill="midnightblue" stroke="midnightblue" points="305.77,-134.12 295.46,-131.65 301.98,-140.01 305.77,-134.12"/>
</g>
<!-- Node29 -->
<g id="node22" class="node">
<title>Node29</title>
<g id="a_node22"><a xlink:href="narrow_8h.html" target="_top" xlink:title=" ">
<polygon fill="none" stroke="black" points="132.5,-112.5 132.5,-131.5 191.5,-131.5 191.5,-112.5 132.5,-112.5"/>
<text text-anchor="middle" x="162" y="-119.5" font-family="Helvetica,sans-Serif" font-size="10.00">narrow.h</text>
</a>
</g>
</g>
<!-- Node25&#45;&gt;Node29 -->
<g id="edge28" class="edge">
<title>Node25&#45;&gt;Node29</title>
<path fill="none" stroke="midnightblue" d="M333.68,-168.44C297.79,-158.94 239.85,-143.61 201.35,-133.42"/>
<polygon fill="midnightblue" stroke="midnightblue" points="202.09,-129.99 191.52,-130.82 200.3,-136.76 202.09,-129.99"/>
</g>
<!-- Node29&#45;&gt;Node9 -->
<g id="edge30" class="edge">
<title>Node29&#45;&gt;Node9</title>
<path fill="none" stroke="midnightblue" d="M152.68,-112.32C144.11,-104.34 131.19,-92.31 120.81,-82.65"/>
<polygon fill="midnightblue" stroke="midnightblue" points="123.19,-80.09 113.49,-75.83 118.42,-85.21 123.19,-80.09"/>
</g>
<!-- Node29&#45;&gt;Node11 -->
<g id="edge29" class="edge">
<title>Node29&#45;&gt;Node11</title>
<path fill="none" stroke="midnightblue" d="M163.1,-112.37C165.36,-94.62 170.57,-53.67 173.63,-29.6"/>
<polygon fill="midnightblue" stroke="midnightblue" points="177.12,-29.95 174.91,-19.59 170.17,-29.07 177.12,-29.95"/>
</g>
<!-- Node31&#45;&gt;Node7 -->
<g id="edge34" class="edge">
<title>Node31&#45;&gt;Node7</title>
<path fill="none" stroke="midnightblue" d="M836.45,-336.17C841.47,-304.97 857.22,-200.14 848,-168 831.82,-111.57 816.17,-100.59 778,-56 768.54,-44.95 756.3,-34.22 746.07,-26.01"/>
<polygon fill="midnightblue" stroke="midnightblue" points="748.1,-23.15 738.06,-19.76 743.79,-28.67 748.1,-23.15"/>
</g>
<!-- Node33 -->
<g id="node26" class="node">
<title>Node33</title>
<g id="a_node26"><a xlink:href="goto__cc__cmdline_8h.html" target="_top" xlink:title="Command line interpretation for goto&#45;cc.">
<polygon fill="none" stroke="black" points="908.5,-336.5 908.5,-355.5 1015.5,-355.5 1015.5,-336.5 908.5,-336.5"/>
<text text-anchor="middle" x="962" y="-343.5" font-family="Helvetica,sans-Serif" font-size="10.00">goto_cc_cmdline.h</text>
</a>
</g>
</g>
<!-- Node32&#45;&gt;Node33 -->
<g id="edge36" class="edge">
<title>Node32&#45;&gt;Node33</title>
<path fill="none" stroke="midnightblue" d="M935.28,-392.08C939.71,-384.61 946.16,-373.72 951.62,-364.52"/>
<polygon fill="midnightblue" stroke="midnightblue" points="954.73,-366.14 956.81,-355.75 948.71,-362.57 954.73,-366.14"/>
</g>
<!-- Node34 -->
<g id="node27" class="node">
<title>Node34</title>
<g id="a_node27"><a xlink:href="cmdline_8h.html" target="_top" xlink:title=" ">
<polygon fill="none" stroke="black" points="935.5,-280.5 935.5,-299.5 1018.5,-299.5 1018.5,-280.5 935.5,-280.5"/>
<text text-anchor="middle" x="977" y="-287.5" font-family="Helvetica,sans-Serif" font-size="10.00">util/cmdline.h</text>
</a>
</g>
</g>
<!-- Node33&#45;&gt;Node34 -->
<g id="edge37" class="edge">
<title>Node33&#45;&gt;Node34</title>
<path fill="none" stroke="midnightblue" d="M964.48,-336.08C966.49,-328.85 969.39,-318.41 971.89,-309.4"/>
<polygon fill="midnightblue" stroke="midnightblue" points="975.26,-310.32 974.57,-299.75 968.52,-308.45 975.26,-310.32"/>
</g>
<!-- Node34&#45;&gt;Node7 -->
<g id="edge41" class="edge">
<title>Node34&#45;&gt;Node7</title>
<path fill="none" stroke="midnightblue" d="M978.05,-280.46C980.21,-261.98 985,-216.91 985,-179 985,-179 985,-179 985,-121 985,-23.62 827.97,-11.2 758.45,-10.47"/>
<polygon fill="midnightblue" stroke="midnightblue" points="758.09,-6.97 748.08,-10.44 758.07,-13.97 758.09,-6.97"/>
</g>
<!-- Node34&#45;&gt;Node14 -->
<g id="edge42" class="edge">
<title>Node34&#45;&gt;Node14</title>
<path fill="none" stroke="midnightblue" d="M972.45,-280.22C964.93,-266.47 948.65,-239.81 928,-224 904.67,-206.13 873.28,-194.34 849.68,-187.32"/>
<polygon fill="midnightblue" stroke="midnightblue" points="850.33,-183.87 839.76,-184.52 848.43,-190.61 850.33,-183.87"/>
</g>
<!-- Node34&#45;&gt;Node30 -->
<g id="edge40" class="edge">
<title>Node34&#45;&gt;Node30</title>
<path fill="none" stroke="midnightblue" d="M963.18,-280.32C949.77,-271.9 929.18,-258.97 913.41,-249.07"/>
<polygon fill="midnightblue" stroke="midnightblue" points="915.11,-246.01 904.78,-243.65 911.39,-251.94 915.11,-246.01"/>
</g>
<!-- Node35 -->
<g id="node28" class="node">
<title>Node35</title>
<g id="a_node28"><a xlink:title=" ">
<polygon fill="none" stroke="#bfbfbf" points="1013,-224.5 1013,-243.5 1057,-243.5 1057,-224.5 1013,-224.5"/>
<text text-anchor="middle" x="1035" y="-231.5" font-family="Helvetica,sans-Serif" font-size="10.00">limits</text>
</a>
</g>
</g>
<!-- Node34&#45;&gt;Node35 -->
<g id="edge38" class="edge">
<title>Node34&#45;&gt;Node35</title>
<path fill="none" stroke="midnightblue" d="M986.32,-280.32C994.89,-272.34 1007.81,-260.31 1018.19,-250.65"/>
<polygon fill="midnightblue" stroke="midnightblue" points="1020.58,-253.21 1025.51,-243.83 1015.81,-248.09 1020.58,-253.21"/>
</g>
<!-- Node20 -->
<g id="node29" class="node">
<title>Node20</title>
<g id="a_node29"><a xlink:title=" ">
<polygon fill="none" stroke="#bfbfbf" points="1075,-224.5 1075,-243.5 1107,-243.5 1107,-224.5 1075,-224.5"/>
<text text-anchor="middle" x="1091" y="-231.5" font-family="Helvetica,sans-Serif" font-size="10.00">list</text>
</a>
</g>
</g>
<!-- Node34&#45;&gt;Node20 -->
<g id="edge39" class="edge">
<title>Node34&#45;&gt;Node20</title>
<path fill="none" stroke="midnightblue" d="M995.06,-280.44C1014.12,-271.42 1044.3,-257.12 1065.71,-246.98"/>
<polygon fill="midnightblue" stroke="midnightblue" points="1067.33,-250.09 1074.86,-242.64 1064.33,-243.76 1067.33,-250.09"/>
</g>
</g>
</svg>
