<?xml version="1.0" encoding="UTF-8" standalone="no"?>
<!DOCTYPE svg PUBLIC "-//W3C//DTD SVG 1.1//EN"
 "http://www.w3.org/Graphics/SVG/1.1/DTD/svg11.dtd">
<!-- Generated by graphviz version 2.43.0 (0)
 -->
<!-- Title: /home/runner/work/cbmc/cbmc/src/goto&#45;cc/cw_mode.cpp Pages: 1 -->
<svg width="1400pt" height="655pt"
 viewBox="0.00 0.00 1400.00 655.00" xmlns="http://www.w3.org/2000/svg" xmlns:xlink="http://www.w3.org/1999/xlink">
<g id="graph0" class="graph" transform="scale(1 1) rotate(0) translate(4 651)">
<title>/home/runner/work/cbmc/cbmc/src/goto&#45;cc/cw_mode.cpp</title>
<!-- Node1 -->
<g id="node1" class="node">
<title>Node1</title>
<g id="a_node1"><a xlink:title=" ">
<polygon fill="#bfbfbf" stroke="black" points="449,-616.5 449,-646.5 621,-646.5 621,-616.5 449,-616.5"/>
<text text-anchor="start" x="457" y="-634.5" font-family="Helvetica,sans-Serif" font-size="10.00">/home/runner/work/cbmc</text>
<text text-anchor="middle" x="535" y="-623.5" font-family="Helvetica,sans-Serif" font-size="10.00">/cbmc/src/goto&#45;cc/cw_mode.cpp</text>
</a>
</g>
</g>
<!-- Node2 -->
<g id="node2" class="node">
<title>Node2</title>
<g id="a_node2"><a xlink:href="cw__mode_8h.html" target="_top" xlink:title=" ">
<polygon fill="none" stroke="black" points="399,-336.5 399,-355.5 471,-355.5 471,-336.5 399,-336.5"/>
<text text-anchor="middle" x="435" y="-343.5" font-family="Helvetica,sans-Serif" font-size="10.00">cw_mode.h</text>
</a>
</g>
</g>
<!-- Node1&#45;&gt;Node2 -->
<g id="edge1" class="edge">
<title>Node1&#45;&gt;Node2</title>
<path fill="none" stroke="midnightblue" d="M500.46,-616.39C483.95,-608.05 465.17,-595.95 453,-580 434.75,-556.07 434,-545.1 434,-515 434,-515 434,-515 434,-457 434,-424.95 434.43,-387.64 434.73,-365.75"/>
<polygon fill="midnightblue" stroke="midnightblue" points="438.23,-365.61 434.87,-355.56 431.23,-365.51 438.23,-365.61"/>
</g>
<!-- Node4 -->
<g id="node4" class="node">
<title>Node4</title>
<g id="a_node4"><a xlink:href="src_2util_2message_8h.html" target="_top" xlink:title=" ">
<polygon fill="none" stroke="black" points="682,-224.5 682,-243.5 752,-243.5 752,-224.5 682,-224.5"/>
<text text-anchor="middle" x="717" y="-231.5" font-family="Helvetica,sans-Serif" font-size="10.00">message.h</text>
</a>
</g>
</g>
<!-- Node1&#45;&gt;Node4 -->
<g id="edge37" class="edge">
<title>Node1&#45;&gt;Node4</title>
<path fill="none" stroke="midnightblue" d="M568.3,-616.42C584.51,-608.02 603.04,-595.87 615,-580 633.12,-555.97 634,-545.1 634,-515 634,-515 634,-515 634,-401 634,-340.56 678.57,-279.56 702.39,-251.28"/>
<polygon fill="midnightblue" stroke="midnightblue" points="705.15,-253.44 709.04,-243.59 699.85,-248.86 705.15,-253.44"/>
</g>
<!-- Node38 -->
<g id="node27" class="node">
<title>Node38</title>
<g id="a_node27"><a xlink:title=" ">
<polygon fill="none" stroke="#bfbfbf" points="462,-560.5 462,-579.5 528,-579.5 528,-560.5 462,-560.5"/>
<text text-anchor="middle" x="495" y="-567.5" font-family="Helvetica,sans-Serif" font-size="10.00">sysexits.h</text>
</a>
</g>
</g>
<!-- Node1&#45;&gt;Node38 -->
<g id="edge35" class="edge">
<title>Node1&#45;&gt;Node38</title>
<path fill="none" stroke="midnightblue" d="M525.52,-616.4C519.83,-607.93 512.55,-597.1 506.52,-588.14"/>
<polygon fill="midnightblue" stroke="midnightblue" points="509.3,-586 500.82,-579.66 503.49,-589.91 509.3,-586"/>
</g>
<!-- Node39 -->
<g id="node28" class="node">
<title>Node39</title>
<g id="a_node28"><a xlink:title=" ">
<polygon fill="none" stroke="#bfbfbf" points="546,-560.5 546,-579.5 606,-579.5 606,-560.5 546,-560.5"/>
<text text-anchor="middle" x="576" y="-567.5" font-family="Helvetica,sans-Serif" font-size="10.00">iostream</text>
</a>
</g>
</g>
<!-- Node1&#45;&gt;Node39 -->
<g id="edge36" class="edge">
<title>Node1&#45;&gt;Node39</title>
<path fill="none" stroke="midnightblue" d="M544.72,-616.4C550.55,-607.93 558.02,-597.1 564.19,-588.14"/>
<polygon fill="midnightblue" stroke="midnightblue" points="567.24,-589.88 570.03,-579.66 561.48,-585.91 567.24,-589.88"/>
</g>
<!-- Node40 -->
<g id="node29" class="node">
<title>Node40</title>
<g id="a_node29"><a xlink:href="config_8h.html" target="_top" xlink:title=" ">
<polygon fill="none" stroke="black" points="296,-336.5 296,-355.5 370,-355.5 370,-336.5 296,-336.5"/>
<text text-anchor="middle" x="333" y="-343.5" font-family="Helvetica,sans-Serif" font-size="10.00">util/config.h</text>
</a>
</g>
</g>
<!-- Node1&#45;&gt;Node40 -->
<g id="edge38" class="edge">
<title>Node1&#45;&gt;Node40</title>
<path fill="none" stroke="midnightblue" d="M476.02,-616.43C426.92,-600.78 365,-570.13 365,-515 365,-515 365,-515 365,-457 365,-423.33 351.01,-386.08 341.53,-364.72"/>
<polygon fill="midnightblue" stroke="midnightblue" points="344.68,-363.21 337.32,-355.59 338.33,-366.14 344.68,-363.21"/>
</g>
<!-- Node46 -->
<g id="node35" class="node">
<title>Node46</title>
<g id="a_node35"><a xlink:href="compile_8h.html" target="_top" xlink:title=" ">
<polygon fill="none" stroke="black" points="907.5,-560.5 907.5,-579.5 972.5,-579.5 972.5,-560.5 907.5,-560.5"/>
<text text-anchor="middle" x="940" y="-567.5" font-family="Helvetica,sans-Serif" font-size="10.00">compile.h</text>
</a>
</g>
</g>
<!-- Node1&#45;&gt;Node46 -->
<g id="edge50" class="edge">
<title>Node1&#45;&gt;Node46</title>
<path fill="none" stroke="midnightblue" d="M621.39,-617.81C706.28,-605.34 832.31,-586.82 897.5,-577.24"/>
<polygon fill="midnightblue" stroke="midnightblue" points="898.04,-580.7 907.42,-575.79 897.02,-573.78 898.04,-580.7"/>
</g>
<!-- Node3 -->
<g id="node3" class="node">
<title>Node3</title>
<g id="a_node3"><a xlink:href="cout__message_8h.html" target="_top" xlink:title=" ">
<polygon fill="none" stroke="black" points="464.5,-280.5 464.5,-299.5 579.5,-299.5 579.5,-280.5 464.5,-280.5"/>
<text text-anchor="middle" x="522" y="-287.5" font-family="Helvetica,sans-Serif" font-size="10.00">util/cout_message.h</text>
</a>
</g>
</g>
<!-- Node2&#45;&gt;Node3 -->
<g id="edge2" class="edge">
<title>Node2&#45;&gt;Node3</title>
<path fill="none" stroke="midnightblue" d="M448.98,-336.32C462.55,-327.9 483.38,-314.97 499.32,-305.07"/>
<polygon fill="midnightblue" stroke="midnightblue" points="501.41,-307.9 508.06,-299.65 497.71,-301.95 501.41,-307.9"/>
</g>
<!-- Node33 -->
<g id="node21" class="node">
<title>Node33</title>
<g id="a_node21"><a xlink:href="goto__cc__mode_8h.html" target="_top" xlink:title=" ">
<polygon fill="none" stroke="black" points="284,-112.5 284,-131.5 380,-131.5 380,-112.5 284,-112.5"/>
<text text-anchor="middle" x="332" y="-119.5" font-family="Helvetica,sans-Serif" font-size="10.00">goto_cc_mode.h</text>
</a>
</g>
</g>
<!-- Node2&#45;&gt;Node33 -->
<g id="edge25" class="edge">
<title>Node2&#45;&gt;Node33</title>
<path fill="none" stroke="midnightblue" d="M435.18,-336.34C435.3,-315.85 433.7,-263.14 416,-224 400.29,-189.27 369.29,-156.84 349.66,-138.51"/>
<polygon fill="midnightblue" stroke="midnightblue" points="351.77,-135.7 342.02,-131.55 347.06,-140.87 351.77,-135.7"/>
</g>
<!-- Node34 -->
<g id="node22" class="node">
<title>Node34</title>
<g id="a_node22"><a xlink:href="gcc__cmdline_8h.html" target="_top" xlink:title=" ">
<polygon fill="none" stroke="black" points="143,-280.5 143,-299.5 229,-299.5 229,-280.5 143,-280.5"/>
<text text-anchor="middle" x="186" y="-287.5" font-family="Helvetica,sans-Serif" font-size="10.00">gcc_cmdline.h</text>
</a>
</g>
</g>
<!-- Node2&#45;&gt;Node34 -->
<g id="edge27" class="edge">
<title>Node2&#45;&gt;Node34</title>
<path fill="none" stroke="midnightblue" d="M398.79,-337.15C355.73,-327.81 283.62,-312.17 235.44,-301.72"/>
<polygon fill="midnightblue" stroke="midnightblue" points="236.06,-298.27 225.54,-299.58 234.57,-305.12 236.06,-298.27"/>
</g>
<!-- Node3&#45;&gt;Node4 -->
<g id="edge3" class="edge">
<title>Node3&#45;&gt;Node4</title>
<path fill="none" stroke="midnightblue" d="M552.9,-280.44C586.27,-271.2 639.59,-256.44 676.35,-246.26"/>
<polygon fill="midnightblue" stroke="midnightblue" points="677.54,-249.56 686.25,-243.52 675.67,-242.81 677.54,-249.56"/>
</g>
<!-- Node5 -->
<g id="node5" class="node">
<title>Node5</title>
<g id="a_node5"><a xlink:title=" ">
<polygon fill="none" stroke="#bfbfbf" points="993.5,-168.5 993.5,-187.5 1058.5,-187.5 1058.5,-168.5 993.5,-168.5"/>
<text text-anchor="middle" x="1026" y="-175.5" font-family="Helvetica,sans-Serif" font-size="10.00">functional</text>
</a>
</g>
</g>
<!-- Node4&#45;&gt;Node5 -->
<g id="edge4" class="edge">
<title>Node4&#45;&gt;Node5</title>
<path fill="none" stroke="midnightblue" d="M752.15,-226.86C809.12,-216.9 921.45,-197.27 983.06,-186.5"/>
<polygon fill="midnightblue" stroke="midnightblue" points="983.98,-189.9 993.23,-184.73 982.77,-183 983.98,-189.9"/>
</g>
<!-- Node6 -->
<g id="node6" class="node">
<title>Node6</title>
<g id="a_node6"><a xlink:title=" ">
<polygon fill="none" stroke="#bfbfbf" points="525,-168.5 525,-187.5 573,-187.5 573,-168.5 525,-168.5"/>
<text text-anchor="middle" x="549" y="-175.5" font-family="Helvetica,sans-Serif" font-size="10.00">iosfwd</text>
</a>
</g>
</g>
<!-- Node4&#45;&gt;Node6 -->
<g id="edge5" class="edge">
<title>Node4&#45;&gt;Node6</title>
<path fill="none" stroke="midnightblue" d="M690.38,-224.44C661.24,-215.08 614.46,-200.04 582.77,-189.85"/>
<polygon fill="midnightblue" stroke="midnightblue" points="583.64,-186.46 573.05,-186.73 581.5,-193.12 583.64,-186.46"/>
</g>
<!-- Node7 -->
<g id="node7" class="node">
<title>Node7</title>
<g id="a_node7"><a xlink:title=" ">
<polygon fill="none" stroke="#bfbfbf" points="994,-0.5 994,-19.5 1050,-19.5 1050,-0.5 994,-0.5"/>
<text text-anchor="middle" x="1022" y="-7.5" font-family="Helvetica,sans-Serif" font-size="10.00">sstream</text>
</a>
</g>
</g>
<!-- Node4&#45;&gt;Node7 -->
<g id="edge6" class="edge">
<title>Node4&#45;&gt;Node7</title>
<path fill="none" stroke="midnightblue" d="M752.23,-225.1C791.03,-215.97 850.52,-200.58 870,-188 936.86,-144.8 990.64,-63.62 1012.03,-28.23"/>
<polygon fill="midnightblue" stroke="midnightblue" points="1015.09,-29.92 1017.18,-19.53 1009.07,-26.35 1015.09,-29.92"/>
</g>
<!-- Node8 -->
<g id="node8" class="node">
<title>Node8</title>
<g id="a_node8"><a xlink:title=" ">
<polygon fill="none" stroke="#bfbfbf" points="557,-0.5 557,-19.5 601,-19.5 601,-0.5 557,-0.5"/>
<text text-anchor="middle" x="579" y="-7.5" font-family="Helvetica,sans-Serif" font-size="10.00">string</text>
</a>
</g>
</g>
<!-- Node4&#45;&gt;Node8 -->
<g id="edge7" class="edge">
<title>Node4&#45;&gt;Node8</title>
<path fill="none" stroke="midnightblue" d="M700.46,-224.44C663.87,-204.41 576.85,-150.47 546,-76 538.93,-58.93 550.66,-40.18 562.04,-27.23"/>
<polygon fill="midnightblue" stroke="midnightblue" points="564.92,-29.29 569.28,-19.63 559.85,-24.46 564.92,-29.29"/>
</g>
<!-- Node9 -->
<g id="node9" class="node">
<title>Node9</title>
<g id="a_node9"><a xlink:href="deprecate_8h.html" target="_top" xlink:title=" ">
<polygon fill="none" stroke="black" points="667,-168.5 667,-187.5 741,-187.5 741,-168.5 667,-168.5"/>
<text text-anchor="middle" x="704" y="-175.5" font-family="Helvetica,sans-Serif" font-size="10.00">deprecate.h</text>
</a>
</g>
</g>
<!-- Node4&#45;&gt;Node9 -->
<g id="edge8" class="edge">
<title>Node4&#45;&gt;Node9</title>
<path fill="none" stroke="midnightblue" d="M714.85,-224.08C713.13,-216.93 710.65,-206.64 708.5,-197.69"/>
<polygon fill="midnightblue" stroke="midnightblue" points="711.85,-196.65 706.11,-187.75 705.04,-198.29 711.85,-196.65"/>
</g>
<!-- Node10 -->
<g id="node10" class="node">
<title>Node10</title>
<g id="a_node10"><a xlink:href="src_2util_2invariant_8h.html" target="_top" xlink:title=" ">
<polygon fill="none" stroke="black" points="1077.5,-56.5 1077.5,-75.5 1146.5,-75.5 1146.5,-56.5 1077.5,-56.5"/>
<text text-anchor="middle" x="1112" y="-63.5" font-family="Helvetica,sans-Serif" font-size="10.00">invariant.h</text>
</a>
</g>
</g>
<!-- Node4&#45;&gt;Node10 -->
<g id="edge9" class="edge">
<title>Node4&#45;&gt;Node10</title>
<path fill="none" stroke="midnightblue" d="M752.2,-227.59C790.31,-221.03 852.42,-208.26 903,-188 976.55,-158.53 1055.41,-106.63 1091.65,-81.48"/>
<polygon fill="midnightblue" stroke="midnightblue" points="1093.74,-84.29 1099.92,-75.69 1089.72,-78.56 1093.74,-84.29"/>
</g>
<!-- Node13 -->
<g id="node13" class="node">
<title>Node13</title>
<g id="a_node13"><a xlink:href="source__location_8h.html" target="_top" xlink:title=" ">
<polygon fill="none" stroke="black" points="759,-168.5 759,-187.5 861,-187.5 861,-168.5 759,-168.5"/>
<text text-anchor="middle" x="810" y="-175.5" font-family="Helvetica,sans-Serif" font-size="10.00">source_location.h</text>
</a>
</g>
</g>
<!-- Node4&#45;&gt;Node13 -->
<g id="edge14" class="edge">
<title>Node4&#45;&gt;Node13</title>
<path fill="none" stroke="midnightblue" d="M731.94,-224.32C746.59,-215.82 769.13,-202.73 786.24,-192.8"/>
<polygon fill="midnightblue" stroke="midnightblue" points="788.2,-195.7 795.1,-187.65 784.69,-189.65 788.2,-195.7"/>
</g>
<!-- Node10&#45;&gt;Node7 -->
<g id="edge11" class="edge">
<title>Node10&#45;&gt;Node7</title>
<path fill="none" stroke="midnightblue" d="M1097.54,-56.32C1083.5,-47.9 1061.95,-34.97 1045.46,-25.07"/>
<polygon fill="midnightblue" stroke="midnightblue" points="1046.8,-21.8 1036.42,-19.65 1043.2,-27.8 1046.8,-21.8"/>
</g>
<!-- Node10&#45;&gt;Node8 -->
<g id="edge12" class="edge">
<title>Node10&#45;&gt;Node8</title>
<path fill="none" stroke="midnightblue" d="M1077.44,-61.5C980.26,-51.65 705.57,-23.82 611.26,-14.27"/>
<polygon fill="midnightblue" stroke="midnightblue" points="611.48,-10.77 601.18,-13.25 610.77,-17.74 611.48,-10.77"/>
</g>
<!-- Node11 -->
<g id="node11" class="node">
<title>Node11</title>
<g id="a_node11"><a xlink:title=" ">
<polygon fill="none" stroke="#bfbfbf" points="1083.5,-0.5 1083.5,-19.5 1132.5,-19.5 1132.5,-0.5 1083.5,-0.5"/>
<text text-anchor="middle" x="1108" y="-7.5" font-family="Helvetica,sans-Serif" font-size="10.00">cstdlib</text>
</a>
</g>
</g>
<!-- Node10&#45;&gt;Node11 -->
<g id="edge10" class="edge">
<title>Node10&#45;&gt;Node11</title>
<path fill="none" stroke="midnightblue" d="M1111.34,-56.08C1110.82,-49.01 1110.06,-38.86 1109.41,-29.99"/>
<polygon fill="midnightblue" stroke="midnightblue" points="1112.88,-29.47 1108.65,-19.75 1105.9,-29.98 1112.88,-29.47"/>
</g>
<!-- Node12 -->
<g id="node12" class="node">
<title>Node12</title>
<g id="a_node12"><a xlink:title=" ">
<polygon fill="none" stroke="#bfbfbf" points="1150.5,-0.5 1150.5,-19.5 1219.5,-19.5 1219.5,-0.5 1150.5,-0.5"/>
<text text-anchor="middle" x="1185" y="-7.5" font-family="Helvetica,sans-Serif" font-size="10.00">type_traits</text>
</a>
</g>
</g>
<!-- Node10&#45;&gt;Node12 -->
<g id="edge13" class="edge">
<title>Node10&#45;&gt;Node12</title>
<path fill="none" stroke="midnightblue" d="M1123.73,-56.32C1134.84,-48.11 1151.74,-35.6 1164.98,-25.81"/>
<polygon fill="midnightblue" stroke="midnightblue" points="1167.1,-28.59 1173.06,-19.83 1162.94,-22.97 1167.1,-28.59"/>
</g>
<!-- Node13&#45;&gt;Node8 -->
<g id="edge24" class="edge">
<title>Node13&#45;&gt;Node8</title>
<path fill="none" stroke="midnightblue" d="M806.95,-168.48C798.61,-146.4 773.23,-86.84 732,-56 696.09,-29.14 644.37,-18.26 611.23,-13.88"/>
<polygon fill="midnightblue" stroke="midnightblue" points="611.5,-10.39 601.16,-12.68 610.67,-17.34 611.5,-10.39"/>
</g>
<!-- Node14 -->
<g id="node14" class="node">
<title>Node14</title>
<g id="a_node14"><a xlink:href="irep_8h.html" target="_top" xlink:title=" ">
<polygon fill="none" stroke="black" points="669,-112.5 669,-131.5 713,-131.5 713,-112.5 669,-112.5"/>
<text text-anchor="middle" x="691" y="-119.5" font-family="Helvetica,sans-Serif" font-size="10.00">irep.h</text>
</a>
</g>
</g>
<!-- Node13&#45;&gt;Node14 -->
<g id="edge15" class="edge">
<title>Node13&#45;&gt;Node14</title>
<path fill="none" stroke="midnightblue" d="M791.14,-168.44C771.73,-159.64 741.27,-145.81 719.04,-135.72"/>
<polygon fill="midnightblue" stroke="midnightblue" points="720.32,-132.46 709.77,-131.52 717.43,-138.84 720.32,-132.46"/>
</g>
<!-- Node31 -->
<g id="node19" class="node">
<title>Node31</title>
<g id="a_node19"><a xlink:href="optional_8h.html" target="_top" xlink:title=" ">
<polygon fill="none" stroke="black" points="112.5,-112.5 112.5,-131.5 177.5,-131.5 177.5,-112.5 112.5,-112.5"/>
<text text-anchor="middle" x="145" y="-119.5" font-family="Helvetica,sans-Serif" font-size="10.00">optional.h</text>
</a>
</g>
</g>
<!-- Node13&#45;&gt;Node31 -->
<g id="edge22" class="edge">
<title>Node13&#45;&gt;Node31</title>
<path fill="none" stroke="midnightblue" d="M758.97,-169.08C755.94,-168.69 752.93,-168.33 750,-168 694.58,-161.79 316.76,-135.05 187.93,-126.01"/>
<polygon fill="midnightblue" stroke="midnightblue" points="187.89,-122.49 177.67,-125.29 187.4,-129.48 187.89,-122.49"/>
</g>
<!-- Node14&#45;&gt;Node8 -->
<g id="edge16" class="edge">
<title>Node14&#45;&gt;Node8</title>
<path fill="none" stroke="midnightblue" d="M682.21,-112.37C663.4,-93.89 619.01,-50.29 595.03,-26.74"/>
<polygon fill="midnightblue" stroke="midnightblue" points="597.33,-24.1 587.75,-19.59 592.43,-29.1 597.33,-24.1"/>
</g>
<!-- Node14&#45;&gt;Node10 -->
<g id="edge18" class="edge">
<title>Node14&#45;&gt;Node10</title>
<path fill="none" stroke="midnightblue" d="M713.04,-118.17C779.28,-109.68 977.48,-84.25 1067.11,-72.76"/>
<polygon fill="midnightblue" stroke="midnightblue" points="1067.76,-76.2 1077.23,-71.46 1066.87,-69.26 1067.76,-76.2"/>
</g>
<!-- Node15 -->
<g id="node15" class="node">
<title>Node15</title>
<g id="a_node15"><a xlink:title=" ">
<polygon fill="none" stroke="#bfbfbf" points="555.5,-56.5 555.5,-75.5 602.5,-75.5 602.5,-56.5 555.5,-56.5"/>
<text text-anchor="middle" x="579" y="-63.5" font-family="Helvetica,sans-Serif" font-size="10.00">vector</text>
</a>
</g>
</g>
<!-- Node14&#45;&gt;Node15 -->
<g id="edge17" class="edge">
<title>Node14&#45;&gt;Node15</title>
<path fill="none" stroke="midnightblue" d="M673.01,-112.32C654.96,-103.62 626.95,-90.12 606.2,-80.11"/>
<polygon fill="midnightblue" stroke="midnightblue" points="607.48,-76.84 596.95,-75.65 604.44,-83.15 607.48,-76.84"/>
</g>
<!-- Node16 -->
<g id="node16" class="node">
<title>Node16</title>
<g id="a_node16"><a xlink:href="irep__ids_8h.html" target="_top" xlink:title=" ">
<polygon fill="none" stroke="red" points="659,-56.5 659,-75.5 723,-75.5 723,-56.5 659,-56.5"/>
<text text-anchor="middle" x="691" y="-63.5" font-family="Helvetica,sans-Serif" font-size="10.00">irep_ids.h</text>
</a>
</g>
</g>
<!-- Node14&#45;&gt;Node16 -->
<g id="edge19" class="edge">
<title>Node14&#45;&gt;Node16</title>
<path fill="none" stroke="midnightblue" d="M691,-112.08C691,-105.01 691,-94.86 691,-85.99"/>
<polygon fill="midnightblue" stroke="midnightblue" points="694.5,-85.75 691,-75.75 687.5,-85.75 694.5,-85.75"/>
</g>
<!-- Node26 -->
<g id="node17" class="node">
<title>Node26</title>
<g id="a_node17"><a xlink:href="forward__list__as__map_8h.html" target="_top" xlink:title=" ">
<polygon fill="none" stroke="red" points="779.5,-56.5 779.5,-75.5 906.5,-75.5 906.5,-56.5 779.5,-56.5"/>
<text text-anchor="middle" x="843" y="-63.5" font-family="Helvetica,sans-Serif" font-size="10.00">forward_list_as_map.h</text>
</a>
</g>
</g>
<!-- Node14&#45;&gt;Node26 -->
<g id="edge20" class="edge">
<title>Node14&#45;&gt;Node26</title>
<path fill="none" stroke="midnightblue" d="M713.1,-113.15C738.4,-104.16 780.12,-89.34 809.44,-78.92"/>
<polygon fill="midnightblue" stroke="midnightblue" points="810.61,-82.22 818.86,-75.58 808.27,-75.63 810.61,-82.22"/>
</g>
<!-- Node29 -->
<g id="node18" class="node">
<title>Node29</title>
<g id="a_node18"><a xlink:href="as__const_8h.html" target="_top" xlink:title=" ">
<polygon fill="none" stroke="black" points="849,-0.5 849,-19.5 917,-19.5 917,-0.5 849,-0.5"/>
<text text-anchor="middle" x="883" y="-7.5" font-family="Helvetica,sans-Serif" font-size="10.00">as_const.h</text>
</a>
</g>
</g>
<!-- Node26&#45;&gt;Node29 -->
<g id="edge21" class="edge">
<title>Node26&#45;&gt;Node29</title>
<path fill="none" stroke="midnightblue" d="M849.61,-56.08C855.26,-48.46 863.54,-37.26 870.45,-27.94"/>
<polygon fill="midnightblue" stroke="midnightblue" points="873.38,-29.87 876.52,-19.75 867.75,-25.7 873.38,-29.87"/>
</g>
<!-- Node32 -->
<g id="node20" class="node">
<title>Node32</title>
<g id="a_node20"><a xlink:title=" ">
<polygon fill="none" stroke="#bfbfbf" points="76.5,-56.5 76.5,-75.5 189.5,-75.5 189.5,-56.5 76.5,-56.5"/>
<text text-anchor="middle" x="133" y="-63.5" font-family="Helvetica,sans-Serif" font-size="10.00">nonstd/optional.hpp</text>
</a>
</g>
</g>
<!-- Node31&#45;&gt;Node32 -->
<g id="edge23" class="edge">
<title>Node31&#45;&gt;Node32</title>
<path fill="none" stroke="midnightblue" d="M143.02,-112.08C141.43,-104.93 139.14,-94.64 137.15,-85.69"/>
<polygon fill="midnightblue" stroke="midnightblue" points="140.53,-84.75 134.94,-75.75 133.7,-86.27 140.53,-84.75"/>
</g>
<!-- Node33&#45;&gt;Node8 -->
<g id="edge26" class="edge">
<title>Node33&#45;&gt;Node8</title>
<path fill="none" stroke="midnightblue" d="M337.74,-112.33C347.53,-98.25 368.88,-70.51 394,-56 442.53,-27.97 507.93,-17.33 546.57,-13.34"/>
<polygon fill="midnightblue" stroke="midnightblue" points="547.09,-16.8 556.72,-12.38 546.43,-9.84 547.09,-16.8"/>
</g>
<!-- Node35 -->
<g id="node23" class="node">
<title>Node35</title>
<g id="a_node23"><a xlink:href="goto__cc__cmdline_8h.html" target="_top" xlink:title=" ">
<polygon fill="none" stroke="black" points="82.5,-224.5 82.5,-243.5 189.5,-243.5 189.5,-224.5 82.5,-224.5"/>
<text text-anchor="middle" x="136" y="-231.5" font-family="Helvetica,sans-Serif" font-size="10.00">goto_cc_cmdline.h</text>
</a>
</g>
</g>
<!-- Node34&#45;&gt;Node35 -->
<g id="edge28" class="edge">
<title>Node34&#45;&gt;Node35</title>
<path fill="none" stroke="midnightblue" d="M177.74,-280.08C170.54,-272.3 159.89,-260.8 151.15,-251.37"/>
<polygon fill="midnightblue" stroke="midnightblue" points="153.47,-248.71 144.1,-243.75 148.33,-253.47 153.47,-248.71"/>
</g>
<!-- Node36 -->
<g id="node24" class="node">
<title>Node36</title>
<g id="a_node24"><a xlink:href="cmdline_8h.html" target="_top" xlink:title=" ">
<polygon fill="none" stroke="black" points="99.5,-168.5 99.5,-187.5 182.5,-187.5 182.5,-168.5 99.5,-168.5"/>
<text text-anchor="middle" x="141" y="-175.5" font-family="Helvetica,sans-Serif" font-size="10.00">util/cmdline.h</text>
</a>
</g>
</g>
<!-- Node35&#45;&gt;Node36 -->
<g id="edge29" class="edge">
<title>Node35&#45;&gt;Node36</title>
<path fill="none" stroke="midnightblue" d="M136.83,-224.08C137.48,-217.01 138.42,-206.86 139.24,-197.99"/>
<polygon fill="midnightblue" stroke="midnightblue" points="142.75,-198.03 140.19,-187.75 135.78,-197.39 142.75,-198.03"/>
</g>
<!-- Node36&#45;&gt;Node8 -->
<g id="edge32" class="edge">
<title>Node36&#45;&gt;Node8</title>
<path fill="none" stroke="midnightblue" d="M151.41,-168.38C167.81,-155.1 200.98,-129.33 232,-112 287.99,-80.72 303.78,-75.13 365,-56 428.14,-36.27 504.46,-22.55 546.78,-15.8"/>
<polygon fill="midnightblue" stroke="midnightblue" points="547.43,-19.24 556.77,-14.24 546.35,-12.32 547.43,-19.24"/>
</g>
<!-- Node36&#45;&gt;Node15 -->
<g id="edge33" class="edge">
<title>Node36&#45;&gt;Node15</title>
<path fill="none" stroke="midnightblue" d="M158.37,-168.4C193.23,-151.17 268.93,-113.87 275,-112 370.07,-82.66 487.95,-72.19 544.95,-68.66"/>
<polygon fill="midnightblue" stroke="midnightblue" points="545.42,-72.14 555.2,-68.06 545.01,-65.15 545.42,-72.14"/>
</g>
<!-- Node36&#45;&gt;Node31 -->
<g id="edge34" class="edge">
<title>Node36&#45;&gt;Node31</title>
<path fill="none" stroke="midnightblue" d="M141.66,-168.08C142.18,-161.01 142.94,-150.86 143.59,-141.99"/>
<polygon fill="midnightblue" stroke="midnightblue" points="147.1,-141.98 144.35,-131.75 140.12,-141.47 147.1,-141.98"/>
</g>
<!-- Node37 -->
<g id="node25" class="node">
<title>Node37</title>
<g id="a_node25"><a xlink:title=" ">
<polygon fill="none" stroke="#bfbfbf" points="50,-112.5 50,-131.5 94,-131.5 94,-112.5 50,-112.5"/>
<text text-anchor="middle" x="72" y="-119.5" font-family="Helvetica,sans-Serif" font-size="10.00">limits</text>
</a>
</g>
</g>
<!-- Node36&#45;&gt;Node37 -->
<g id="edge30" class="edge">
<title>Node36&#45;&gt;Node37</title>
<path fill="none" stroke="midnightblue" d="M129.91,-168.32C119.51,-160.18 103.74,-147.84 91.28,-138.09"/>
<polygon fill="midnightblue" stroke="midnightblue" points="93.32,-135.24 83.29,-131.83 89.01,-140.75 93.32,-135.24"/>
</g>
<!-- Node21 -->
<g id="node26" class="node">
<title>Node21</title>
<g id="a_node26"><a xlink:title=" ">
<polygon fill="none" stroke="#bfbfbf" points="0,-112.5 0,-131.5 32,-131.5 32,-112.5 0,-112.5"/>
<text text-anchor="middle" x="16" y="-119.5" font-family="Helvetica,sans-Serif" font-size="10.00">list</text>
</a>
</g>
</g>
<!-- Node36&#45;&gt;Node21 -->
<g id="edge31" class="edge">
<title>Node36&#45;&gt;Node21</title>
<path fill="none" stroke="midnightblue" d="M121.19,-168.44C99.63,-159.13 65.08,-144.2 41.5,-134.02"/>
<polygon fill="midnightblue" stroke="midnightblue" points="42.7,-130.72 32.14,-129.97 39.93,-137.15 42.7,-130.72"/>
</g>
<!-- Node40&#45;&gt;Node14 -->
<g id="edge48" class="edge">
<title>Node40&#45;&gt;Node14</title>
<path fill="none" stroke="midnightblue" d="M347.27,-336.41C369.67,-323.16 414.69,-297.44 455,-280 500.66,-260.24 518.29,-269.52 561,-244 609.75,-214.88 655.64,-165.03 677.56,-139.35"/>
<polygon fill="midnightblue" stroke="midnightblue" points="680.29,-141.54 684.04,-131.63 674.93,-137.04 680.29,-141.54"/>
</g>
<!-- Node40&#45;&gt;Node31 -->
<g id="edge49" class="edge">
<title>Node40&#45;&gt;Node31</title>
<path fill="none" stroke="midnightblue" d="M295.96,-345.07C233.33,-342.83 109.72,-327.57 73,-244 63.15,-221.58 86.41,-173.36 90,-168 98.23,-155.7 110.82,-145.05 121.88,-137.2"/>
<polygon fill="midnightblue" stroke="midnightblue" points="123.97,-140.02 130.31,-131.53 120.06,-134.21 123.97,-140.02"/>
</g>
<!-- Node40&#45;&gt;Node21 -->
<g id="edge39" class="edge">
<title>Node40&#45;&gt;Node21</title>
<path fill="none" stroke="midnightblue" d="M295.68,-342.06C236.61,-336.75 125.08,-323.82 94,-300 42.29,-260.38 24.16,-179.16 18.41,-142.14"/>
<polygon fill="midnightblue" stroke="midnightblue" points="21.81,-141.2 16.95,-131.79 14.88,-142.18 21.81,-141.2"/>
</g>
<!-- Node41 -->
<g id="node30" class="node">
<title>Node41</title>
<g id="a_node30"><a xlink:href="ieee__float_8h.html" target="_top" xlink:title=" ">
<polygon fill="none" stroke="black" points="296,-280.5 296,-299.5 370,-299.5 370,-280.5 296,-280.5"/>
<text text-anchor="middle" x="333" y="-287.5" font-family="Helvetica,sans-Serif" font-size="10.00">ieee_float.h</text>
</a>
</g>
</g>
<!-- Node40&#45;&gt;Node41 -->
<g id="edge40" class="edge">
<title>Node40&#45;&gt;Node41</title>
<path fill="none" stroke="midnightblue" d="M333,-336.08C333,-329.01 333,-318.86 333,-309.99"/>
<polygon fill="midnightblue" stroke="midnightblue" points="336.5,-309.75 333,-299.75 329.5,-309.75 336.5,-309.75"/>
</g>
<!-- Node41&#45;&gt;Node6 -->
<g id="edge41" class="edge">
<title>Node41&#45;&gt;Node6</title>
<path fill="none" stroke="midnightblue" d="M370.04,-282.18C428.51,-271.26 536.23,-250.41 542,-244 553.03,-231.75 553.8,-212.49 552.4,-198.11"/>
<polygon fill="midnightblue" stroke="midnightblue" points="555.82,-197.27 550.97,-187.85 548.88,-198.24 555.82,-197.27"/>
</g>
<!-- Node42 -->
<g id="node31" class="node">
<title>Node42</title>
<g id="a_node31"><a xlink:href="mp__arith_8h.html" target="_top" xlink:title=" ">
<polygon fill="none" stroke="black" points="464.5,-224.5 464.5,-243.5 533.5,-243.5 533.5,-224.5 464.5,-224.5"/>
<text text-anchor="middle" x="499" y="-231.5" font-family="Helvetica,sans-Serif" font-size="10.00">mp_arith.h</text>
</a>
</g>
</g>
<!-- Node41&#45;&gt;Node42 -->
<g id="edge42" class="edge">
<title>Node41&#45;&gt;Node42</title>
<path fill="none" stroke="midnightblue" d="M359.3,-280.44C387.35,-271.32 431.94,-256.81 463.18,-246.65"/>
<polygon fill="midnightblue" stroke="midnightblue" points="464.39,-249.94 472.82,-243.52 462.23,-243.28 464.39,-249.94"/>
</g>
<!-- Node44 -->
<g id="node33" class="node">
<title>Node44</title>
<g id="a_node33"><a xlink:href="format__spec_8h.html" target="_top" xlink:title=" ">
<polygon fill="none" stroke="black" points="208,-224.5 208,-243.5 294,-243.5 294,-224.5 208,-224.5"/>
<text text-anchor="middle" x="251" y="-231.5" font-family="Helvetica,sans-Serif" font-size="10.00">format_spec.h</text>
</a>
</g>
</g>
<!-- Node41&#45;&gt;Node44 -->
<g id="edge46" class="edge">
<title>Node41&#45;&gt;Node44</title>
<path fill="none" stroke="midnightblue" d="M319.83,-280.32C307.15,-271.98 287.77,-259.21 272.79,-249.35"/>
<polygon fill="midnightblue" stroke="midnightblue" points="274.42,-246.23 264.14,-243.65 270.57,-252.08 274.42,-246.23"/>
</g>
<!-- Node45 -->
<g id="node34" class="node">
<title>Node45</title>
<g id="a_node34"><a xlink:href="cprover__prefix_8h.html" target="_top" xlink:title=" ">
<polygon fill="none" stroke="black" points="312.5,-224.5 312.5,-243.5 407.5,-243.5 407.5,-224.5 312.5,-224.5"/>
<text text-anchor="middle" x="360" y="-231.5" font-family="Helvetica,sans-Serif" font-size="10.00">cprover_prefix.h</text>
</a>
</g>
</g>
<!-- Node41&#45;&gt;Node45 -->
<g id="edge47" class="edge">
<title>Node41&#45;&gt;Node45</title>
<path fill="none" stroke="midnightblue" d="M337.46,-280.08C341.15,-272.69 346.52,-261.95 351.09,-252.81"/>
<polygon fill="midnightblue" stroke="midnightblue" points="354.28,-254.26 355.62,-243.75 348.02,-251.13 354.28,-254.26"/>
</g>
<!-- Node42&#45;&gt;Node6 -->
<g id="edge43" class="edge">
<title>Node42&#45;&gt;Node6</title>
<path fill="none" stroke="midnightblue" d="M507.26,-224.08C514.46,-216.3 525.11,-204.8 533.85,-195.37"/>
<polygon fill="midnightblue" stroke="midnightblue" points="536.67,-197.47 540.9,-187.75 531.53,-192.71 536.67,-197.47"/>
</g>
<!-- Node42&#45;&gt;Node8 -->
<g id="edge44" class="edge">
<title>Node42&#45;&gt;Node8</title>
<path fill="none" stroke="midnightblue" d="M464.46,-225.1C432.59,-215.83 391.89,-197.81 404,-168 432.44,-98.01 511.23,-47.16 552.7,-24.36"/>
<polygon fill="midnightblue" stroke="midnightblue" points="554.51,-27.36 561.67,-19.54 551.2,-21.19 554.51,-27.36"/>
</g>
<!-- Node43 -->
<g id="node32" class="node">
<title>Node43</title>
<g id="a_node32"><a xlink:title=" ">
<polygon fill="none" stroke="#bfbfbf" points="413,-168.5 413,-187.5 507,-187.5 507,-168.5 413,-168.5"/>
<text text-anchor="middle" x="460" y="-175.5" font-family="Helvetica,sans-Serif" font-size="10.00">big&#45;int/bigint.hh</text>
</a>
</g>
</g>
<!-- Node42&#45;&gt;Node43 -->
<g id="edge45" class="edge">
<title>Node42&#45;&gt;Node43</title>
<path fill="none" stroke="midnightblue" d="M492.56,-224.08C487.05,-216.46 478.97,-205.26 472.24,-195.94"/>
<polygon fill="midnightblue" stroke="midnightblue" points="475.01,-193.81 466.32,-187.75 469.34,-197.91 475.01,-193.81"/>
</g>
<!-- Node46&#45;&gt;Node4 -->
<g id="edge51" class="edge">
<title>Node46&#45;&gt;Node4</title>
<path fill="none" stroke="midnightblue" d="M907.41,-569.95C835.98,-570.17 672,-559.71 672,-459 672,-459 672,-459 672,-401 672,-393.5 699.75,-295.41 711.67,-253.63"/>
<polygon fill="midnightblue" stroke="midnightblue" points="715.07,-254.47 714.45,-243.89 708.34,-252.54 715.07,-254.47"/>
</g>
<!-- Node47 -->
<g id="node36" class="node">
<title>Node47</title>
<g id="a_node36"><a xlink:href="std__types_8h.html" target="_top" xlink:title=" ">
<polygon fill="none" stroke="black" points="1044,-504.5 1044,-523.5 1136,-523.5 1136,-504.5 1044,-504.5"/>
<text text-anchor="middle" x="1090" y="-511.5" font-family="Helvetica,sans-Serif" font-size="10.00">util/std_types.h</text>
</a>
</g>
</g>
<!-- Node46&#45;&gt;Node47 -->
<g id="edge52" class="edge">
<title>Node46&#45;&gt;Node47</title>
<path fill="none" stroke="midnightblue" d="M963.77,-560.44C988.89,-551.4 1028.71,-537.06 1056.9,-526.92"/>
<polygon fill="midnightblue" stroke="midnightblue" points="1058.12,-530.2 1066.34,-523.52 1055.75,-523.61 1058.12,-530.2"/>
</g>
<!-- Node57 -->
<g id="node47" class="node">
<title>Node57</title>
<g id="a_node47"><a xlink:href="symbol_8h.html" target="_top" xlink:title="Symbol table entry.">
<polygon fill="none" stroke="black" points="900,-448.5 900,-467.5 980,-467.5 980,-448.5 900,-448.5"/>
<text text-anchor="middle" x="940" y="-455.5" font-family="Helvetica,sans-Serif" font-size="10.00">util/symbol.h</text>
</a>
</g>
</g>
<!-- Node46&#45;&gt;Node57 -->
<g id="edge80" class="edge">
<title>Node46&#45;&gt;Node57</title>
<path fill="none" stroke="midnightblue" d="M940,-560.37C940,-542.62 940,-501.67 940,-477.6"/>
<polygon fill="midnightblue" stroke="midnightblue" points="943.5,-477.59 940,-467.59 936.5,-477.59 943.5,-477.59"/>
</g>
<!-- Node58 -->
<g id="node48" class="node">
<title>Node58</title>
<g id="a_node48"><a xlink:title=" ">
<polygon fill="none" stroke="#bfbfbf" points="1154,-504.5 1154,-523.5 1192,-523.5 1192,-504.5 1154,-504.5"/>
<text text-anchor="middle" x="1173" y="-511.5" font-family="Helvetica,sans-Serif" font-size="10.00">map</text>
</a>
</g>
</g>
<!-- Node46&#45;&gt;Node58 -->
<g id="edge84" class="edge">
<title>Node46&#45;&gt;Node58</title>
<path fill="none" stroke="midnightblue" d="M972.54,-562.85C1011.26,-555.31 1078.03,-541.64 1144.06,-524.06"/>
<polygon fill="midnightblue" stroke="midnightblue" points="1145.05,-527.42 1153.79,-521.44 1143.23,-520.66 1145.05,-527.42"/>
</g>
<!-- Node47&#45;&gt;Node10 -->
<g id="edge76" class="edge">
<title>Node47&#45;&gt;Node10</title>
<path fill="none" stroke="midnightblue" d="M1136.13,-505.42C1205.19,-493.96 1328.35,-473.01 1337,-468 1369.76,-449.05 1392,-440.84 1392,-403 1392,-403 1392,-403 1392,-289 1392,-201.15 1372.87,-166.54 1304,-112 1261.81,-78.59 1199.05,-69.24 1156.88,-67"/>
<polygon fill="midnightblue" stroke="midnightblue" points="1156.77,-63.5 1146.63,-66.58 1156.48,-70.49 1156.77,-63.5"/>
</g>
<!-- Node47&#45;&gt;Node42 -->
<g id="edge77" class="edge">
<title>Node47&#45;&gt;Node42</title>
<path fill="none" stroke="midnightblue" d="M1043.63,-506.99C1002.43,-500.61 941.15,-488.55 891,-468 744.35,-407.91 726.18,-357.61 588,-280 567.62,-268.55 543.98,-256.67 526.19,-247.98"/>
<polygon fill="midnightblue" stroke="midnightblue" points="527.5,-244.73 516.97,-243.52 524.44,-251.03 527.5,-244.73"/>
</g>
<!-- Node48 -->
<g id="node37" class="node">
<title>Node48</title>
<g id="a_node37"><a xlink:href="expr_8h.html" target="_top" xlink:title=" ">
<polygon fill="none" stroke="black" points="916.5,-392.5 916.5,-411.5 963.5,-411.5 963.5,-392.5 916.5,-392.5"/>
<text text-anchor="middle" x="940" y="-399.5" font-family="Helvetica,sans-Serif" font-size="10.00">expr.h</text>
</a>
</g>
</g>
<!-- Node47&#45;&gt;Node48 -->
<g id="edge53" class="edge">
<title>Node47&#45;&gt;Node48</title>
<path fill="none" stroke="midnightblue" d="M1078.23,-504.37C1052.6,-485.57 991.5,-440.77 959.82,-417.53"/>
<polygon fill="midnightblue" stroke="midnightblue" points="961.85,-414.68 951.72,-411.59 957.71,-420.33 961.85,-414.68"/>
</g>
<!-- Node50 -->
<g id="node39" class="node">
<title>Node50</title>
<g id="a_node39"><a xlink:href="validate_8h.html" target="_top" xlink:title=" ">
<polygon fill="none" stroke="black" points="1082.5,-280.5 1082.5,-299.5 1147.5,-299.5 1147.5,-280.5 1082.5,-280.5"/>
<text text-anchor="middle" x="1115" y="-287.5" font-family="Helvetica,sans-Serif" font-size="10.00">validate.h</text>
</a>
</g>
</g>
<!-- Node47&#45;&gt;Node50 -->
<g id="edge78" class="edge">
<title>Node47&#45;&gt;Node50</title>
<path fill="none" stroke="midnightblue" d="M1093.27,-504.32C1101.9,-480.85 1125.2,-413.98 1133,-356 1134.18,-347.19 1134.68,-344.73 1133,-336 1131.21,-326.7 1127.52,-316.89 1123.94,-308.8"/>
<polygon fill="midnightblue" stroke="midnightblue" points="1127.06,-307.21 1119.62,-299.66 1120.73,-310.2 1127.06,-307.21"/>
</g>
<!-- Node55 -->
<g id="node44" class="node">
<title>Node55</title>
<g id="a_node44"><a xlink:href="expr__cast_8h.html" target="_top" xlink:title="Templated functions to cast to specific exprt&#45;derived classes.">
<polygon fill="none" stroke="black" points="1254.5,-448.5 1254.5,-467.5 1327.5,-467.5 1327.5,-448.5 1254.5,-448.5"/>
<text text-anchor="middle" x="1291" y="-455.5" font-family="Helvetica,sans-Serif" font-size="10.00">expr_cast.h</text>
</a>
</g>
</g>
<!-- Node47&#45;&gt;Node55 -->
<g id="edge70" class="edge">
<title>Node47&#45;&gt;Node55</title>
<path fill="none" stroke="midnightblue" d="M1121.85,-504.44C1156.4,-495.16 1211.68,-480.31 1249.58,-470.13"/>
<polygon fill="midnightblue" stroke="midnightblue" points="1250.55,-473.49 1259.3,-467.52 1248.73,-466.73 1250.55,-473.49"/>
</g>
<!-- Node22 -->
<g id="node46" class="node">
<title>Node22</title>
<g id="a_node46"><a xlink:title=" ">
<polygon fill="none" stroke="#bfbfbf" points="1143.5,-448.5 1143.5,-467.5 1236.5,-467.5 1236.5,-448.5 1143.5,-448.5"/>
<text text-anchor="middle" x="1190" y="-455.5" font-family="Helvetica,sans-Serif" font-size="10.00">unordered_map</text>
</a>
</g>
</g>
<!-- Node47&#45;&gt;Node22 -->
<g id="edge79" class="edge">
<title>Node47&#45;&gt;Node22</title>
<path fill="none" stroke="midnightblue" d="M1106.07,-504.32C1121.96,-495.74 1146.51,-482.49 1164.96,-472.52"/>
<polygon fill="midnightblue" stroke="midnightblue" points="1166.84,-475.49 1173.97,-467.65 1163.51,-469.33 1166.84,-475.49"/>
</g>
<!-- Node48&#45;&gt;Node5 -->
<g id="edge69" class="edge">
<title>Node48&#45;&gt;Node5</title>
<path fill="none" stroke="midnightblue" d="M918.19,-392.45C903.06,-385.22 884.05,-373.26 875,-356 859.11,-325.67 802.72,-325.07 882,-224 888.48,-215.74 943.38,-200.16 983.47,-189.68"/>
<polygon fill="midnightblue" stroke="midnightblue" points="984.5,-193.03 993.31,-187.13 982.75,-186.25 984.5,-193.03"/>
</g>
<!-- Node48&#45;&gt;Node29 -->
<g id="edge54" class="edge">
<title>Node48&#45;&gt;Node29</title>
<path fill="none" stroke="midnightblue" d="M916.39,-394.46C896.74,-387.85 869.43,-375.74 853,-356 836.36,-336.01 839.82,-325.73 836,-300 823.4,-215.11 887.85,-224.86 916,-76 917.65,-67.27 918.77,-64.45 916,-56 912.51,-45.34 905.43,-35.12 898.71,-27.12"/>
<polygon fill="midnightblue" stroke="midnightblue" points="901.3,-24.76 892.02,-19.66 896.1,-29.44 901.3,-24.76"/>
</g>
<!-- Node49 -->
<g id="node38" class="node">
<title>Node49</title>
<g id="a_node38"><a xlink:href="type_8h.html" target="_top" xlink:title=" ">
<polygon fill="none" stroke="black" points="890.5,-336.5 890.5,-355.5 937.5,-355.5 937.5,-336.5 890.5,-336.5"/>
<text text-anchor="middle" x="914" y="-343.5" font-family="Helvetica,sans-Serif" font-size="10.00">type.h</text>
</a>
</g>
</g>
<!-- Node48&#45;&gt;Node49 -->
<g id="edge55" class="edge">
<title>Node48&#45;&gt;Node49</title>
<path fill="none" stroke="midnightblue" d="M935.71,-392.08C932.15,-384.69 926.98,-373.95 922.58,-364.81"/>
<polygon fill="midnightblue" stroke="midnightblue" points="925.71,-363.24 918.21,-355.75 919.4,-366.28 925.71,-363.24"/>
</g>
<!-- Node52 -->
<g id="node41" class="node">
<title>Node52</title>
<g id="a_node41"><a xlink:href="validation__mode_8h.html" target="_top" xlink:title=" ">
<polygon fill="none" stroke="black" points="890.5,-224.5 890.5,-243.5 997.5,-243.5 997.5,-224.5 890.5,-224.5"/>
<text text-anchor="middle" x="944" y="-231.5" font-family="Helvetica,sans-Serif" font-size="10.00">validation_mode.h</text>
</a>
</g>
</g>
<!-- Node48&#45;&gt;Node52 -->
<g id="edge68" class="edge">
<title>Node48&#45;&gt;Node52</title>
<path fill="none" stroke="midnightblue" d="M921.61,-392.47C907.9,-385 890.19,-372.71 882,-356 878.09,-348.02 879.58,-344.55 882,-336 891.27,-303.18 914.53,-270.52 929.77,-251.57"/>
<polygon fill="midnightblue" stroke="midnightblue" points="932.65,-253.59 936.33,-243.65 927.25,-249.13 932.65,-253.59"/>
</g>
<!-- Node53 -->
<g id="node42" class="node">
<title>Node53</title>
<g id="a_node42"><a xlink:href="validate__types_8h.html" target="_top" xlink:title=" ">
<polygon fill="none" stroke="black" points="966,-280.5 966,-299.5 1064,-299.5 1064,-280.5 966,-280.5"/>
<text text-anchor="middle" x="1015" y="-287.5" font-family="Helvetica,sans-Serif" font-size="10.00">validate_types.h</text>
</a>
</g>
</g>
<!-- Node48&#45;&gt;Node53 -->
<g id="edge67" class="edge">
<title>Node48&#45;&gt;Node53</title>
<path fill="none" stroke="midnightblue" d="M945.89,-392.37C958.26,-374.22 987.18,-331.8 1003.42,-307.99"/>
<polygon fill="midnightblue" stroke="midnightblue" points="1006.4,-309.83 1009.14,-299.59 1000.62,-305.88 1006.4,-309.83"/>
</g>
<!-- Node54 -->
<g id="node43" class="node">
<title>Node54</title>
<g id="a_node43"><a xlink:href="validate__expressions_8h.html" target="_top" xlink:title=" ">
<polygon fill="none" stroke="black" points="994.5,-336.5 994.5,-355.5 1123.5,-355.5 1123.5,-336.5 994.5,-336.5"/>
<text text-anchor="middle" x="1059" y="-343.5" font-family="Helvetica,sans-Serif" font-size="10.00">validate_expressions.h</text>
</a>
</g>
</g>
<!-- Node48&#45;&gt;Node54 -->
<g id="edge66" class="edge">
<title>Node48&#45;&gt;Node54</title>
<path fill="none" stroke="midnightblue" d="M958.86,-392.44C978.27,-383.64 1008.73,-369.81 1030.96,-359.72"/>
<polygon fill="midnightblue" stroke="midnightblue" points="1032.57,-362.84 1040.23,-355.52 1029.68,-356.46 1032.57,-362.84"/>
</g>
<!-- Node49&#45;&gt;Node13 -->
<g id="edge56" class="edge">
<title>Node49&#45;&gt;Node13</title>
<path fill="none" stroke="midnightblue" d="M908.41,-336.08C891.83,-309.61 842.71,-231.21 820.78,-196.21"/>
<polygon fill="midnightblue" stroke="midnightblue" points="823.64,-194.18 815.37,-187.57 817.71,-197.9 823.64,-194.18"/>
</g>
<!-- Node49&#45;&gt;Node50 -->
<g id="edge57" class="edge">
<title>Node49&#45;&gt;Node50</title>
<path fill="none" stroke="midnightblue" d="M937.85,-338.59C971.28,-329.61 1032.57,-313.14 1073.56,-302.13"/>
<polygon fill="midnightblue" stroke="midnightblue" points="1074.51,-305.5 1083.25,-299.53 1072.69,-298.74 1074.51,-305.5"/>
</g>
<!-- Node49&#45;&gt;Node52 -->
<g id="edge65" class="edge">
<title>Node49&#45;&gt;Node52</title>
<path fill="none" stroke="midnightblue" d="M916.35,-336.37C921.22,-318.54 932.46,-277.3 939.02,-253.27"/>
<polygon fill="midnightblue" stroke="midnightblue" points="942.4,-254.16 941.66,-243.59 935.65,-252.32 942.4,-254.16"/>
</g>
<!-- Node49&#45;&gt;Node53 -->
<g id="edge64" class="edge">
<title>Node49&#45;&gt;Node53</title>
<path fill="none" stroke="midnightblue" d="M930.23,-336.32C946.35,-327.7 971.3,-314.36 989.96,-304.39"/>
<polygon fill="midnightblue" stroke="midnightblue" points="991.64,-307.46 998.81,-299.65 988.34,-301.28 991.64,-307.46"/>
</g>
<!-- Node50&#45;&gt;Node12 -->
<g id="edge58" class="edge">
<title>Node50&#45;&gt;Node12</title>
<path fill="none" stroke="midnightblue" d="M1127.4,-280.4C1138.29,-272.23 1153.79,-258.99 1163,-244 1178.76,-218.36 1182,-209.1 1182,-179 1182,-179 1182,-179 1182,-121 1182,-88.94 1183.29,-51.63 1184.18,-29.74"/>
<polygon fill="midnightblue" stroke="midnightblue" points="1187.68,-29.69 1184.61,-19.56 1180.69,-29.4 1187.68,-29.69"/>
</g>
<!-- Node51 -->
<g id="node40" class="node">
<title>Node51</title>
<g id="a_node40"><a xlink:href="exception__utils_8h.html" target="_top" xlink:title=" ">
<polygon fill="none" stroke="black" points="1054,-224.5 1054,-243.5 1154,-243.5 1154,-224.5 1054,-224.5"/>
<text text-anchor="middle" x="1104" y="-231.5" font-family="Helvetica,sans-Serif" font-size="10.00">exception_utils.h</text>
</a>
</g>
</g>
<!-- Node50&#45;&gt;Node51 -->
<g id="edge59" class="edge">
<title>Node50&#45;&gt;Node51</title>
<path fill="none" stroke="midnightblue" d="M1113.18,-280.08C1111.73,-272.93 1109.63,-262.64 1107.81,-253.69"/>
<polygon fill="midnightblue" stroke="midnightblue" points="1111.21,-252.85 1105.78,-243.75 1104.35,-254.25 1111.21,-252.85"/>
</g>
<!-- Node50&#45;&gt;Node52 -->
<g id="edge63" class="edge">
<title>Node50&#45;&gt;Node52</title>
<path fill="none" stroke="midnightblue" d="M1087.9,-280.44C1059.01,-271.32 1013.08,-256.81 980.89,-246.65"/>
<polygon fill="midnightblue" stroke="midnightblue" points="981.56,-243.19 970.97,-243.52 979.45,-249.87 981.56,-243.19"/>
</g>
<!-- Node51&#45;&gt;Node8 -->
<g id="edge60" class="edge">
<title>Node51&#45;&gt;Node8</title>
<path fill="none" stroke="midnightblue" d="M1100.6,-224.27C1095.15,-211.05 1083.49,-185.64 1068,-168 1012.62,-104.96 993.81,-87.43 916,-56 810.67,-13.46 673.26,-9.45 611.52,-10.08"/>
<polygon fill="midnightblue" stroke="midnightblue" points="611.19,-6.58 601.25,-10.23 611.3,-13.58 611.19,-6.58"/>
</g>
<!-- Node51&#45;&gt;Node10 -->
<g id="edge61" class="edge">
<title>Node51&#45;&gt;Node10</title>
<path fill="none" stroke="midnightblue" d="M1104.43,-224.08C1105.69,-197.95 1109.39,-121.21 1111.1,-85.58"/>
<polygon fill="midnightblue" stroke="midnightblue" points="1114.6,-85.73 1111.59,-75.57 1107.61,-85.39 1114.6,-85.73"/>
</g>
<!-- Node51&#45;&gt;Node13 -->
<g id="edge62" class="edge">
<title>Node51&#45;&gt;Node13</title>
<path fill="none" stroke="midnightblue" d="M1057.41,-224.44C1005.59,-214.92 921.87,-199.55 866.38,-189.36"/>
<polygon fill="midnightblue" stroke="midnightblue" points="866.84,-185.88 856.37,-187.52 865.57,-192.77 866.84,-185.88"/>
</g>
<!-- Node55&#45;&gt;Node5 -->
<g id="edge73" class="edge">
<title>Node55&#45;&gt;Node5</title>
<path fill="none" stroke="midnightblue" d="M1272.32,-448.35C1257.19,-440.57 1236.13,-427.95 1222,-412 1178.62,-363.06 1206.5,-322.73 1157,-280 1117.42,-245.83 1081.48,-281.46 1045,-244 1033.09,-231.77 1028.58,-212.51 1026.9,-198.12"/>
<polygon fill="midnightblue" stroke="midnightblue" points="1030.37,-197.54 1026.08,-187.85 1023.39,-198.1 1030.37,-197.54"/>
</g>
<!-- Node55&#45;&gt;Node10 -->
<g id="edge74" class="edge">
<title>Node55&#45;&gt;Node10</title>
<path fill="none" stroke="midnightblue" d="M1294.37,-448.31C1301.2,-429.92 1316,-385.58 1316,-347 1316,-347 1316,-347 1316,-177 1316,-105.11 1216.64,-79.99 1156.6,-71.37"/>
<polygon fill="midnightblue" stroke="midnightblue" points="1156.98,-67.89 1146.61,-70.03 1156.05,-74.83 1156.98,-67.89"/>
</g>
<!-- Node55&#45;&gt;Node12 -->
<g id="edge72" class="edge">
<title>Node55&#45;&gt;Node12</title>
<path fill="none" stroke="midnightblue" d="M1300.3,-448.28C1317.82,-430.85 1354,-389.69 1354,-347 1354,-347 1354,-347 1354,-289 1354,-207.25 1353.53,-177.03 1304,-112 1276.1,-75.36 1232.79,-42.85 1206.83,-25.14"/>
<polygon fill="midnightblue" stroke="midnightblue" points="1208.69,-22.17 1198.43,-19.51 1204.79,-27.98 1208.69,-22.17"/>
</g>
<!-- Node55&#45;&gt;Node48 -->
<g id="edge75" class="edge">
<title>Node55&#45;&gt;Node48</title>
<path fill="none" stroke="midnightblue" d="M1254.19,-449.48C1251.42,-448.96 1248.67,-448.46 1246,-448 1147.59,-430.93 1030.63,-414.91 974.04,-407.42"/>
<polygon fill="midnightblue" stroke="midnightblue" points="974.24,-403.92 963.87,-406.09 973.33,-410.86 974.24,-403.92"/>
</g>
<!-- Node56 -->
<g id="node45" class="node">
<title>Node56</title>
<g id="a_node45"><a xlink:title=" ">
<polygon fill="none" stroke="#bfbfbf" points="1230.5,-392.5 1230.5,-411.5 1287.5,-411.5 1287.5,-392.5 1230.5,-392.5"/>
<text text-anchor="middle" x="1259" y="-399.5" font-family="Helvetica,sans-Serif" font-size="10.00">typeinfo</text>
</a>
</g>
</g>
<!-- Node55&#45;&gt;Node56 -->
<g id="edge71" class="edge">
<title>Node55&#45;&gt;Node56</title>
<path fill="none" stroke="midnightblue" d="M1285.72,-448.08C1281.29,-440.61 1274.84,-429.72 1269.38,-420.52"/>
<polygon fill="midnightblue" stroke="midnightblue" points="1272.29,-418.57 1264.19,-411.75 1266.27,-422.14 1272.29,-418.57"/>
</g>
<!-- Node57&#45;&gt;Node6 -->
<g id="edge81" class="edge">
<title>Node57&#45;&gt;Node6</title>
<path fill="none" stroke="midnightblue" d="M924.29,-448.46C894.06,-431.82 825.98,-393.42 772,-356 692.27,-300.74 603.72,-226.17 566.74,-194.39"/>
<polygon fill="midnightblue" stroke="midnightblue" points="568.72,-191.48 558.87,-187.6 564.15,-196.78 568.72,-191.48"/>
</g>
<!-- Node57&#45;&gt;Node10 -->
<g id="edge83" class="edge">
<title>Node57&#45;&gt;Node10</title>
<path fill="none" stroke="midnightblue" d="M969.7,-448.41C1011.29,-434.99 1086.96,-405.37 1133,-356 1175.68,-310.24 1195.03,-285.21 1182,-224 1170.55,-170.21 1139.32,-112.51 1122.71,-84.4"/>
<polygon fill="midnightblue" stroke="midnightblue" points="1125.66,-82.51 1117.5,-75.75 1119.66,-86.12 1125.66,-82.51"/>
</g>
<!-- Node57&#45;&gt;Node48 -->
<g id="edge82" class="edge">
<title>Node57&#45;&gt;Node48</title>
<path fill="none" stroke="midnightblue" d="M940,-448.08C940,-441.01 940,-430.86 940,-421.99"/>
<polygon fill="midnightblue" stroke="midnightblue" points="943.5,-421.75 940,-411.75 936.5,-421.75 943.5,-421.75"/>
</g>
</g>
</svg>
