<?xml version="1.0" encoding="UTF-8" standalone="no"?>
<!DOCTYPE svg PUBLIC "-//W3C//DTD SVG 1.1//EN"
 "http://www.w3.org/Graphics/SVG/1.1/DTD/svg11.dtd">
<!-- Generated by graphviz version 2.43.0 (0)
 -->
<!-- Title: /home/runner/work/cbmc/cbmc/src/goto&#45;instrument/contracts/dynamic&#45;frames/dfcc_spec_functions.h Pages: 1 -->
<svg width="1020pt" height="406pt"
 viewBox="0.00 0.00 1019.96 406.00" xmlns="http://www.w3.org/2000/svg" xmlns:xlink="http://www.w3.org/1999/xlink">
<g id="graph0" class="graph" transform="scale(1 1) rotate(0) translate(4 402)">
<title>/home/runner/work/cbmc/cbmc/src/goto&#45;instrument/contracts/dynamic&#45;frames/dfcc_spec_functions.h</title>
<!-- Node1 -->
<g id="node1" class="node">
<title>Node1</title>
<g id="a_node1"><a xlink:title="Translate functions that specify assignable and freeable targets declaratively into active functions ...">
<polygon fill="#bfbfbf" stroke="black" points="365.96,-345.5 365.96,-397.5 513.96,-397.5 513.96,-345.5 365.96,-345.5"/>
<text text-anchor="start" x="373.96" y="-385.5" font-family="Helvetica,sans-Serif" font-size="10.00">/home/runner/work/cbmc</text>
<text text-anchor="start" x="373.96" y="-374.5" font-family="Helvetica,sans-Serif" font-size="10.00">/cbmc/src/goto&#45;instrument</text>
<text text-anchor="start" x="373.96" y="-363.5" font-family="Helvetica,sans-Serif" font-size="10.00">/contracts/dynamic&#45;frames</text>
<text text-anchor="middle" x="439.96" y="-352.5" font-family="Helvetica,sans-Serif" font-size="10.00">/dfcc_spec_functions.h</text>
</a>
</g>
</g>
<!-- Node2 -->
<g id="node2" class="node">
<title>Node2</title>
<g id="a_node2"><a xlink:href="dfcc_8h.html" target="_top" xlink:title="Main class orchestrating the the whole program transformation for function contracts with Dynamic Fra...">
<polygon fill="none" stroke="black" points="286.96,-173 286.96,-214 466.96,-214 466.96,-173 286.96,-173"/>
<text text-anchor="start" x="294.96" y="-202" font-family="Helvetica,sans-Serif" font-size="10.00">/home/runner/work/cbmc</text>
<text text-anchor="start" x="294.96" y="-191" font-family="Helvetica,sans-Serif" font-size="10.00">/cbmc/src/goto&#45;instrument</text>
<text text-anchor="middle" x="376.96" y="-180" font-family="Helvetica,sans-Serif" font-size="10.00">/contracts/dynamic&#45;frames/dfcc.h</text>
</a>
</g>
</g>
<!-- Node1&#45;&gt;Node2 -->
<g id="edge1" class="edge">
<title>Node1&#45;&gt;Node2</title>
<path fill="none" stroke="midnightblue" d="M355.75,-370.73C245.14,-369.02 59.87,-358.59 16.96,-309 -61.61,-218.17 156.44,-198.7 286.95,-194.97"/>
<polygon fill="midnightblue" stroke="midnightblue" points="355.84,-374.23 365.89,-370.86 355.94,-367.23 355.84,-374.23"/>
</g>
<!-- Node8 -->
<g id="node8" class="node">
<title>Node8</title>
<g id="a_node8"><a xlink:href="dfcc__contract__functions_8cpp.html" target="_top" xlink:title=" ">
<polygon fill="none" stroke="black" points="26.46,-256.5 26.46,-308.5 181.46,-308.5 181.46,-256.5 26.46,-256.5"/>
<text text-anchor="start" x="34.46" y="-296.5" font-family="Helvetica,sans-Serif" font-size="10.00">/home/runner/work/cbmc</text>
<text text-anchor="start" x="34.46" y="-285.5" font-family="Helvetica,sans-Serif" font-size="10.00">/cbmc/src/goto&#45;instrument</text>
<text text-anchor="start" x="34.46" y="-274.5" font-family="Helvetica,sans-Serif" font-size="10.00">/contracts/dynamic&#45;frames</text>
<text text-anchor="middle" x="103.96" y="-263.5" font-family="Helvetica,sans-Serif" font-size="10.00">/dfcc_contract_functions.cpp</text>
</a>
</g>
</g>
<!-- Node1&#45;&gt;Node8 -->
<g id="edge7" class="edge">
<title>Node1&#45;&gt;Node8</title>
<path fill="none" stroke="midnightblue" d="M356.13,-350.74C307.72,-339.1 245.76,-323.79 190.96,-309 187.93,-308.18 184.83,-307.33 181.71,-306.47"/>
<polygon fill="midnightblue" stroke="midnightblue" points="355.39,-354.17 365.93,-353.1 357.03,-347.36 355.39,-354.17"/>
</g>
<!-- Node9 -->
<g id="node9" class="node">
<title>Node9</title>
<g id="a_node9"><a xlink:href="dfcc__contract__handler_8cpp.html" target="_top" xlink:title=" ">
<polygon fill="none" stroke="black" points="199.96,-256.5 199.96,-308.5 347.96,-308.5 347.96,-256.5 199.96,-256.5"/>
<text text-anchor="start" x="207.96" y="-296.5" font-family="Helvetica,sans-Serif" font-size="10.00">/home/runner/work/cbmc</text>
<text text-anchor="start" x="207.96" y="-285.5" font-family="Helvetica,sans-Serif" font-size="10.00">/cbmc/src/goto&#45;instrument</text>
<text text-anchor="start" x="207.96" y="-274.5" font-family="Helvetica,sans-Serif" font-size="10.00">/contracts/dynamic&#45;frames</text>
<text text-anchor="middle" x="273.96" y="-263.5" font-family="Helvetica,sans-Serif" font-size="10.00">/dfcc_contract_handler.cpp</text>
</a>
</g>
</g>
<!-- Node1&#45;&gt;Node9 -->
<g id="edge8" class="edge">
<title>Node1&#45;&gt;Node9</title>
<path fill="none" stroke="midnightblue" d="M382.98,-340.64C363.08,-330.2 340.96,-318.61 321.87,-308.61"/>
<polygon fill="midnightblue" stroke="midnightblue" points="381.47,-343.79 391.95,-345.34 384.72,-337.59 381.47,-343.79"/>
</g>
<!-- Node10 -->
<g id="node10" class="node">
<title>Node10</title>
<g id="a_node10"><a xlink:href="dfcc__instrument_8cpp.html" target="_top" xlink:title=" ">
<polygon fill="none" stroke="black" points="365.96,-256.5 365.96,-308.5 513.96,-308.5 513.96,-256.5 365.96,-256.5"/>
<text text-anchor="start" x="373.96" y="-296.5" font-family="Helvetica,sans-Serif" font-size="10.00">/home/runner/work/cbmc</text>
<text text-anchor="start" x="373.96" y="-285.5" font-family="Helvetica,sans-Serif" font-size="10.00">/cbmc/src/goto&#45;instrument</text>
<text text-anchor="start" x="373.96" y="-274.5" font-family="Helvetica,sans-Serif" font-size="10.00">/contracts/dynamic&#45;frames</text>
<text text-anchor="middle" x="439.96" y="-263.5" font-family="Helvetica,sans-Serif" font-size="10.00">/dfcc_instrument.cpp</text>
</a>
</g>
</g>
<!-- Node1&#45;&gt;Node10 -->
<g id="edge9" class="edge">
<title>Node1&#45;&gt;Node10</title>
<path fill="none" stroke="midnightblue" d="M439.96,-335.19C439.96,-326.28 439.96,-316.9 439.96,-308.61"/>
<polygon fill="midnightblue" stroke="midnightblue" points="436.46,-335.34 439.96,-345.34 443.46,-335.34 436.46,-335.34"/>
</g>
<!-- Node11 -->
<g id="node11" class="node">
<title>Node11</title>
<g id="a_node11"><a xlink:href="dfcc__instrument__loop_8cpp.html" target="_top" xlink:title=" ">
<polygon fill="none" stroke="black" points="531.96,-256.5 531.96,-308.5 679.96,-308.5 679.96,-256.5 531.96,-256.5"/>
<text text-anchor="start" x="539.96" y="-296.5" font-family="Helvetica,sans-Serif" font-size="10.00">/home/runner/work/cbmc</text>
<text text-anchor="start" x="539.96" y="-285.5" font-family="Helvetica,sans-Serif" font-size="10.00">/cbmc/src/goto&#45;instrument</text>
<text text-anchor="start" x="539.96" y="-274.5" font-family="Helvetica,sans-Serif" font-size="10.00">/contracts/dynamic&#45;frames</text>
<text text-anchor="middle" x="605.96" y="-263.5" font-family="Helvetica,sans-Serif" font-size="10.00">/dfcc_instrument_loop.cpp</text>
</a>
</g>
</g>
<!-- Node1&#45;&gt;Node11 -->
<g id="edge10" class="edge">
<title>Node1&#45;&gt;Node11</title>
<path fill="none" stroke="midnightblue" d="M496.95,-340.64C516.85,-330.2 538.97,-318.61 558.06,-308.61"/>
<polygon fill="midnightblue" stroke="midnightblue" points="495.21,-337.59 487.98,-345.34 498.46,-343.79 495.21,-337.59"/>
</g>
<!-- Node12 -->
<g id="node12" class="node">
<title>Node12</title>
<g id="a_node12"><a xlink:href="dfcc__spec__functions_8cpp.html" target="_top" xlink:title=" ">
<polygon fill="none" stroke="black" points="697.96,-256.5 697.96,-308.5 845.96,-308.5 845.96,-256.5 697.96,-256.5"/>
<text text-anchor="start" x="705.96" y="-296.5" font-family="Helvetica,sans-Serif" font-size="10.00">/home/runner/work/cbmc</text>
<text text-anchor="start" x="705.96" y="-285.5" font-family="Helvetica,sans-Serif" font-size="10.00">/cbmc/src/goto&#45;instrument</text>
<text text-anchor="start" x="705.96" y="-274.5" font-family="Helvetica,sans-Serif" font-size="10.00">/contracts/dynamic&#45;frames</text>
<text text-anchor="middle" x="771.96" y="-263.5" font-family="Helvetica,sans-Serif" font-size="10.00">/dfcc_spec_functions.cpp</text>
</a>
</g>
</g>
<!-- Node1&#45;&gt;Node12 -->
<g id="edge11" class="edge">
<title>Node1&#45;&gt;Node12</title>
<path fill="none" stroke="midnightblue" d="M523.87,-351.01C572.3,-339.46 634.26,-324.15 688.96,-309 691.87,-308.2 694.83,-307.36 697.81,-306.51"/>
<polygon fill="midnightblue" stroke="midnightblue" points="522.98,-347.63 514.06,-353.35 524.6,-354.44 522.98,-347.63"/>
</g>
<!-- Node13 -->
<g id="node13" class="node">
<title>Node13</title>
<g id="a_node13"><a xlink:href="dfcc__swap__and__wrap_8h.html" target="_top" xlink:title="Given a function_id and contract_id, swaps its body to a function with a fresh mangled name,...">
<polygon fill="none" stroke="black" points="863.96,-256.5 863.96,-308.5 1011.96,-308.5 1011.96,-256.5 863.96,-256.5"/>
<text text-anchor="start" x="871.96" y="-296.5" font-family="Helvetica,sans-Serif" font-size="10.00">/home/runner/work/cbmc</text>
<text text-anchor="start" x="871.96" y="-285.5" font-family="Helvetica,sans-Serif" font-size="10.00">/cbmc/src/goto&#45;instrument</text>
<text text-anchor="start" x="871.96" y="-274.5" font-family="Helvetica,sans-Serif" font-size="10.00">/contracts/dynamic&#45;frames</text>
<text text-anchor="middle" x="937.96" y="-263.5" font-family="Helvetica,sans-Serif" font-size="10.00">/dfcc_swap_and_wrap.h</text>
</a>
</g>
</g>
<!-- Node1&#45;&gt;Node13 -->
<g id="edge12" class="edge">
<title>Node1&#45;&gt;Node13</title>
<path fill="none" stroke="midnightblue" d="M524.09,-361.81C608.42,-352.21 741.65,-334.65 854.96,-309 857.9,-308.33 860.89,-307.62 863.9,-306.86"/>
<polygon fill="midnightblue" stroke="midnightblue" points="523.6,-358.34 514.05,-362.94 524.38,-365.3 523.6,-358.34"/>
</g>
<!-- Node3 -->
<g id="node3" class="node">
<title>Node3</title>
<g id="a_node3"><a xlink:href="dfcc_8cpp.html" target="_top" xlink:title=" ">
<polygon fill="none" stroke="black" points="211.96,-78.5 211.96,-130.5 359.96,-130.5 359.96,-78.5 211.96,-78.5"/>
<text text-anchor="start" x="219.96" y="-118.5" font-family="Helvetica,sans-Serif" font-size="10.00">/home/runner/work/cbmc</text>
<text text-anchor="start" x="219.96" y="-107.5" font-family="Helvetica,sans-Serif" font-size="10.00">/cbmc/src/goto&#45;instrument</text>
<text text-anchor="start" x="219.96" y="-96.5" font-family="Helvetica,sans-Serif" font-size="10.00">/contracts/dynamic&#45;frames</text>
<text text-anchor="middle" x="285.96" y="-85.5" font-family="Helvetica,sans-Serif" font-size="10.00">/dfcc.cpp</text>
</a>
</g>
</g>
<!-- Node2&#45;&gt;Node3 -->
<g id="edge2" class="edge">
<title>Node2&#45;&gt;Node3</title>
<path fill="none" stroke="midnightblue" d="M348.97,-165.73C337.33,-154.6 323.89,-141.75 312.42,-130.79"/>
<polygon fill="midnightblue" stroke="midnightblue" points="346.67,-168.38 356.31,-172.76 351.51,-163.32 346.67,-168.38"/>
</g>
<!-- Node4 -->
<g id="node4" class="node">
<title>Node4</title>
<g id="a_node4"><a xlink:href="goto__instrument__parse__options_8h.html" target="_top" xlink:title="Command Line Parsing.">
<polygon fill="none" stroke="black" points="377.96,-84 377.96,-125 559.96,-125 559.96,-84 377.96,-84"/>
<text text-anchor="start" x="385.96" y="-113" font-family="Helvetica,sans-Serif" font-size="10.00">/home/runner/work/cbmc</text>
<text text-anchor="start" x="385.96" y="-102" font-family="Helvetica,sans-Serif" font-size="10.00">/cbmc/src/goto&#45;instrument</text>
<text text-anchor="middle" x="468.96" y="-91" font-family="Helvetica,sans-Serif" font-size="10.00">/goto_instrument_parse_options.h</text>
</a>
</g>
</g>
<!-- Node2&#45;&gt;Node4 -->
<g id="edge3" class="edge">
<title>Node2&#45;&gt;Node4</title>
<path fill="none" stroke="midnightblue" d="M405.24,-165.76C419.09,-152.66 435.48,-137.16 448.17,-125.16"/>
<polygon fill="midnightblue" stroke="midnightblue" points="402.7,-163.34 397.84,-172.76 407.51,-168.43 402.7,-163.34"/>
</g>
<!-- Node5 -->
<g id="node5" class="node">
<title>Node5</title>
<g id="a_node5"><a xlink:href="goto__instrument__languages_8cpp.html" target="_top" xlink:title="Language Registration.">
<polygon fill="none" stroke="black" points="199.96,-0.5 199.96,-41.5 375.96,-41.5 375.96,-0.5 199.96,-0.5"/>
<text text-anchor="start" x="207.96" y="-29.5" font-family="Helvetica,sans-Serif" font-size="10.00">/home/runner/work/cbmc</text>
<text text-anchor="start" x="207.96" y="-18.5" font-family="Helvetica,sans-Serif" font-size="10.00">/cbmc/src/goto&#45;instrument</text>
<text text-anchor="middle" x="287.96" y="-7.5" font-family="Helvetica,sans-Serif" font-size="10.00">/goto_instrument_languages.cpp</text>
</a>
</g>
</g>
<!-- Node4&#45;&gt;Node5 -->
<g id="edge4" class="edge">
<title>Node4&#45;&gt;Node5</title>
<path fill="none" stroke="midnightblue" d="M416.31,-79.79C389.3,-67.63 356.81,-53 331.28,-41.5"/>
<polygon fill="midnightblue" stroke="midnightblue" points="415.05,-83.06 425.61,-83.98 417.93,-76.68 415.05,-83.06"/>
</g>
<!-- Node6 -->
<g id="node6" class="node">
<title>Node6</title>
<g id="a_node6"><a xlink:href="goto__instrument__main_8cpp.html" target="_top" xlink:title="Main Module.">
<polygon fill="none" stroke="black" points="393.96,-0.5 393.96,-41.5 543.96,-41.5 543.96,-0.5 393.96,-0.5"/>
<text text-anchor="start" x="401.96" y="-29.5" font-family="Helvetica,sans-Serif" font-size="10.00">/home/runner/work/cbmc</text>
<text text-anchor="start" x="401.96" y="-18.5" font-family="Helvetica,sans-Serif" font-size="10.00">/cbmc/src/goto&#45;instrument</text>
<text text-anchor="middle" x="468.96" y="-7.5" font-family="Helvetica,sans-Serif" font-size="10.00">/goto_instrument_main.cpp</text>
</a>
</g>
</g>
<!-- Node4&#45;&gt;Node6 -->
<g id="edge5" class="edge">
<title>Node4&#45;&gt;Node6</title>
<path fill="none" stroke="midnightblue" d="M468.96,-73.56C468.96,-62.88 468.96,-51.13 468.96,-41.55"/>
<polygon fill="midnightblue" stroke="midnightblue" points="465.46,-73.77 468.96,-83.77 472.46,-73.77 465.46,-73.77"/>
</g>
<!-- Node7 -->
<g id="node7" class="node">
<title>Node7</title>
<g id="a_node7"><a xlink:href="goto__instrument__parse__options_8cpp.html" target="_top" xlink:title="Main Module.">
<polygon fill="none" stroke="black" points="561.96,-0.5 561.96,-41.5 755.96,-41.5 755.96,-0.5 561.96,-0.5"/>
<text text-anchor="start" x="569.96" y="-29.5" font-family="Helvetica,sans-Serif" font-size="10.00">/home/runner/work/cbmc</text>
<text text-anchor="start" x="569.96" y="-18.5" font-family="Helvetica,sans-Serif" font-size="10.00">/cbmc/src/goto&#45;instrument</text>
<text text-anchor="middle" x="658.96" y="-7.5" font-family="Helvetica,sans-Serif" font-size="10.00">/goto_instrument_parse_options.cpp</text>
</a>
</g>
</g>
<!-- Node4&#45;&gt;Node7 -->
<g id="edge6" class="edge">
<title>Node4&#45;&gt;Node7</title>
<path fill="none" stroke="midnightblue" d="M523.87,-79.95C552.29,-67.76 586.58,-53.05 613.5,-41.5"/>
<polygon fill="midnightblue" stroke="midnightblue" points="522.28,-76.82 514.47,-83.98 525.04,-83.25 522.28,-76.82"/>
</g>
<!-- Node13&#45;&gt;Node2 -->
<g id="edge13" class="edge">
<title>Node13&#45;&gt;Node2</title>
<path fill="none" stroke="midnightblue" d="M853.88,-255.91C714.11,-226.33 561.58,-209.87 467.16,-201.5"/>
<polygon fill="midnightblue" stroke="midnightblue" points="853.41,-259.39 863.92,-258.07 854.87,-252.55 853.41,-259.39"/>
</g>
<!-- Node14 -->
<g id="node14" class="node">
<title>Node14</title>
<g id="a_node14"><a xlink:href="dfcc__swap__and__wrap_8cpp.html" target="_top" xlink:title=" ">
<polygon fill="none" stroke="black" points="863.96,-167.5 863.96,-219.5 1011.96,-219.5 1011.96,-167.5 863.96,-167.5"/>
<text text-anchor="start" x="871.96" y="-207.5" font-family="Helvetica,sans-Serif" font-size="10.00">/home/runner/work/cbmc</text>
<text text-anchor="start" x="871.96" y="-196.5" font-family="Helvetica,sans-Serif" font-size="10.00">/cbmc/src/goto&#45;instrument</text>
<text text-anchor="start" x="871.96" y="-185.5" font-family="Helvetica,sans-Serif" font-size="10.00">/contracts/dynamic&#45;frames</text>
<text text-anchor="middle" x="937.96" y="-174.5" font-family="Helvetica,sans-Serif" font-size="10.00">/dfcc_swap_and_wrap.cpp</text>
</a>
</g>
</g>
<!-- Node13&#45;&gt;Node14 -->
<g id="edge14" class="edge">
<title>Node13&#45;&gt;Node14</title>
<path fill="none" stroke="midnightblue" d="M937.96,-246.19C937.96,-237.28 937.96,-227.9 937.96,-219.61"/>
<polygon fill="midnightblue" stroke="midnightblue" points="934.46,-246.34 937.96,-256.34 941.46,-246.34 934.46,-246.34"/>
</g>
</g>
</svg>
