<?xml version="1.0" encoding="UTF-8" standalone="no"?>
<!DOCTYPE svg PUBLIC "-//W3C//DTD SVG 1.1//EN"
 "http://www.w3.org/Graphics/SVG/1.1/DTD/svg11.dtd">
<!-- Generated by graphviz version 2.43.0 (0)
 -->
<!-- Title: /home/runner/work/cbmc/cbmc/src/goto&#45;instrument/contracts/dynamic&#45;frames/dfcc_contract_mode.h Pages: 1 -->
<svg width="1506pt" height="584pt"
 viewBox="0.00 0.00 1506.10 584.00" xmlns="http://www.w3.org/2000/svg" xmlns:xlink="http://www.w3.org/1999/xlink">
<g id="graph0" class="graph" transform="scale(1 1) rotate(0) translate(4 580)">
<title>/home/runner/work/cbmc/cbmc/src/goto&#45;instrument/contracts/dynamic&#45;frames/dfcc_contract_mode.h</title>
<!-- Node1 -->
<g id="node1" class="node">
<title>Node1</title>
<g id="a_node1"><a xlink:title="Enum type representing the contract checking and replacement modes.">
<polygon fill="#bfbfbf" stroke="black" points="548.1,-523.5 548.1,-575.5 696.1,-575.5 696.1,-523.5 548.1,-523.5"/>
<text text-anchor="start" x="556.1" y="-563.5" font-family="Helvetica,sans-Serif" font-size="10.00">/home/runner/work/cbmc</text>
<text text-anchor="start" x="556.1" y="-552.5" font-family="Helvetica,sans-Serif" font-size="10.00">/cbmc/src/goto&#45;instrument</text>
<text text-anchor="start" x="556.1" y="-541.5" font-family="Helvetica,sans-Serif" font-size="10.00">/contracts/dynamic&#45;frames</text>
<text text-anchor="middle" x="622.1" y="-530.5" font-family="Helvetica,sans-Serif" font-size="10.00">/dfcc_contract_mode.h</text>
</a>
</g>
</g>
<!-- Node2 -->
<g id="node2" class="node">
<title>Node2</title>
<g id="a_node2"><a xlink:href="dfcc__contract__clauses__codegen_8h.html" target="_top" xlink:title="Translates assigns and frees clauses of a function contract or loop contract into goto programs that ...">
<polygon fill="none" stroke="black" points="1000.1,-345.5 1000.1,-397.5 1182.1,-397.5 1182.1,-345.5 1000.1,-345.5"/>
<text text-anchor="start" x="1008.1" y="-385.5" font-family="Helvetica,sans-Serif" font-size="10.00">/home/runner/work/cbmc</text>
<text text-anchor="start" x="1008.1" y="-374.5" font-family="Helvetica,sans-Serif" font-size="10.00">/cbmc/src/goto&#45;instrument</text>
<text text-anchor="start" x="1008.1" y="-363.5" font-family="Helvetica,sans-Serif" font-size="10.00">/contracts/dynamic&#45;frames</text>
<text text-anchor="middle" x="1091.1" y="-352.5" font-family="Helvetica,sans-Serif" font-size="10.00">/dfcc_contract_clauses_codegen.h</text>
</a>
</g>
</g>
<!-- Node1&#45;&gt;Node2 -->
<g id="edge1" class="edge">
<title>Node1&#45;&gt;Node2</title>
<path fill="none" stroke="midnightblue" d="M630.3,-513.15C638.27,-487.05 653.09,-452.9 679.1,-434 728.82,-397.86 894.19,-382.6 999.69,-376.42"/>
<polygon fill="midnightblue" stroke="midnightblue" points="626.85,-512.49 627.48,-523.06 633.58,-514.4 626.85,-512.49"/>
</g>
<!-- Node13 -->
<g id="node13" class="node">
<title>Node13</title>
<g id="a_node13"><a xlink:href="dfcc__contract__functions_8h.html" target="_top" xlink:title="Translates assigns and frees clauses of a function contract into goto functions that allow to build a...">
<polygon fill="none" stroke="black" points="446.1,-434.5 446.1,-486.5 594.1,-486.5 594.1,-434.5 446.1,-434.5"/>
<text text-anchor="start" x="454.1" y="-474.5" font-family="Helvetica,sans-Serif" font-size="10.00">/home/runner/work/cbmc</text>
<text text-anchor="start" x="454.1" y="-463.5" font-family="Helvetica,sans-Serif" font-size="10.00">/cbmc/src/goto&#45;instrument</text>
<text text-anchor="start" x="454.1" y="-452.5" font-family="Helvetica,sans-Serif" font-size="10.00">/contracts/dynamic&#45;frames</text>
<text text-anchor="middle" x="520.1" y="-441.5" font-family="Helvetica,sans-Serif" font-size="10.00">/dfcc_contract_functions.h</text>
</a>
</g>
</g>
<!-- Node1&#45;&gt;Node13 -->
<g id="edge12" class="edge">
<title>Node1&#45;&gt;Node13</title>
<path fill="none" stroke="midnightblue" d="M584.76,-516.65C573.15,-506.75 560.53,-495.98 549.54,-486.61"/>
<polygon fill="midnightblue" stroke="midnightblue" points="582.72,-519.51 592.6,-523.34 587.26,-514.18 582.72,-519.51"/>
</g>
<!-- Node19 -->
<g id="node19" class="node">
<title>Node19</title>
<g id="a_node19"><a xlink:href="dfcc__wrapper__program_8h.html" target="_top" xlink:title="Generates the body of a wrapper function from a contract for contract checking or contract replacemen...">
<polygon fill="none" stroke="black" points="344.1,-345.5 344.1,-397.5 492.1,-397.5 492.1,-345.5 344.1,-345.5"/>
<text text-anchor="start" x="352.1" y="-385.5" font-family="Helvetica,sans-Serif" font-size="10.00">/home/runner/work/cbmc</text>
<text text-anchor="start" x="352.1" y="-374.5" font-family="Helvetica,sans-Serif" font-size="10.00">/cbmc/src/goto&#45;instrument</text>
<text text-anchor="start" x="352.1" y="-363.5" font-family="Helvetica,sans-Serif" font-size="10.00">/contracts/dynamic&#45;frames</text>
<text text-anchor="middle" x="418.1" y="-352.5" font-family="Helvetica,sans-Serif" font-size="10.00">/dfcc_wrapper_program.h</text>
</a>
</g>
</g>
<!-- Node1&#45;&gt;Node19 -->
<g id="edge34" class="edge">
<title>Node1&#45;&gt;Node19</title>
<path fill="none" stroke="midnightblue" d="M537.87,-539.85C501.77,-531.81 462.22,-516.4 437.1,-487 416.02,-462.34 413.94,-423.41 415.3,-397.91"/>
<polygon fill="midnightblue" stroke="midnightblue" points="537.44,-543.34 547.94,-541.94 538.86,-536.49 537.44,-543.34"/>
</g>
<!-- Node20 -->
<g id="node20" class="node">
<title>Node20</title>
<g id="a_node20"><a xlink:href="dfcc__contract__mode_8cpp.html" target="_top" xlink:title=" ">
<polygon fill="none" stroke="black" points="688.1,-434.5 688.1,-486.5 836.1,-486.5 836.1,-434.5 688.1,-434.5"/>
<text text-anchor="start" x="696.1" y="-474.5" font-family="Helvetica,sans-Serif" font-size="10.00">/home/runner/work/cbmc</text>
<text text-anchor="start" x="696.1" y="-463.5" font-family="Helvetica,sans-Serif" font-size="10.00">/cbmc/src/goto&#45;instrument</text>
<text text-anchor="start" x="696.1" y="-452.5" font-family="Helvetica,sans-Serif" font-size="10.00">/contracts/dynamic&#45;frames</text>
<text text-anchor="middle" x="762.1" y="-441.5" font-family="Helvetica,sans-Serif" font-size="10.00">/dfcc_contract_mode.cpp</text>
</a>
</g>
</g>
<!-- Node1&#45;&gt;Node20 -->
<g id="edge24" class="edge">
<title>Node1&#45;&gt;Node20</title>
<path fill="none" stroke="midnightblue" d="M671.52,-517.79C687.95,-507.58 706.03,-496.34 721.7,-486.61"/>
<polygon fill="midnightblue" stroke="midnightblue" points="669.24,-515.09 662.59,-523.34 672.93,-521.03 669.24,-515.09"/>
</g>
<!-- Node21 -->
<g id="node21" class="node">
<title>Node21</title>
<g id="a_node21"><a xlink:href="dfcc__instrument_8h.html" target="_top" xlink:title="Add instrumentation to a goto program to perform frame condition checks.">
<polygon fill="none" stroke="black" points="548.1,-345.5 548.1,-397.5 696.1,-397.5 696.1,-345.5 548.1,-345.5"/>
<text text-anchor="start" x="556.1" y="-385.5" font-family="Helvetica,sans-Serif" font-size="10.00">/home/runner/work/cbmc</text>
<text text-anchor="start" x="556.1" y="-374.5" font-family="Helvetica,sans-Serif" font-size="10.00">/cbmc/src/goto&#45;instrument</text>
<text text-anchor="start" x="556.1" y="-363.5" font-family="Helvetica,sans-Serif" font-size="10.00">/contracts/dynamic&#45;frames</text>
<text text-anchor="middle" x="622.1" y="-352.5" font-family="Helvetica,sans-Serif" font-size="10.00">/dfcc_instrument.h</text>
</a>
</g>
</g>
<!-- Node1&#45;&gt;Node21 -->
<g id="edge25" class="edge">
<title>Node1&#45;&gt;Node21</title>
<path fill="none" stroke="midnightblue" d="M622.1,-513.25C622.1,-479.04 622.1,-427.97 622.1,-397.67"/>
<polygon fill="midnightblue" stroke="midnightblue" points="618.6,-513.28 622.1,-523.28 625.6,-513.28 618.6,-513.28"/>
</g>
<!-- Node3 -->
<g id="node3" class="node">
<title>Node3</title>
<g id="a_node3"><a xlink:href="dfcc_8h.html" target="_top" xlink:title="Main class orchestrating the the whole program transformation for function contracts with Dynamic Fra...">
<polygon fill="none" stroke="black" points="497.1,-173 497.1,-214 677.1,-214 677.1,-173 497.1,-173"/>
<text text-anchor="start" x="505.1" y="-202" font-family="Helvetica,sans-Serif" font-size="10.00">/home/runner/work/cbmc</text>
<text text-anchor="start" x="505.1" y="-191" font-family="Helvetica,sans-Serif" font-size="10.00">/cbmc/src/goto&#45;instrument</text>
<text text-anchor="middle" x="587.1" y="-180" font-family="Helvetica,sans-Serif" font-size="10.00">/contracts/dynamic&#45;frames/dfcc.h</text>
</a>
</g>
</g>
<!-- Node2&#45;&gt;Node3 -->
<g id="edge2" class="edge">
<title>Node2&#45;&gt;Node3</title>
<path fill="none" stroke="midnightblue" d="M1191.97,-354.42C1217.33,-345.33 1241.69,-331.14 1257.1,-309 1270.56,-289.67 1272.98,-273.4 1257.1,-256 1218.77,-213.99 851.01,-200.3 677.23,-196.16"/>
<polygon fill="midnightblue" stroke="midnightblue" points="1190.6,-351.18 1182.21,-357.66 1192.81,-357.83 1190.6,-351.18"/>
</g>
<!-- Node9 -->
<g id="node9" class="node">
<title>Node9</title>
<g id="a_node9"><a xlink:href="dfcc__contract__clauses__codegen_8cpp.html" target="_top" xlink:title=" ">
<polygon fill="none" stroke="black" points="1304.1,-256.5 1304.1,-308.5 1498.1,-308.5 1498.1,-256.5 1304.1,-256.5"/>
<text text-anchor="start" x="1312.1" y="-296.5" font-family="Helvetica,sans-Serif" font-size="10.00">/home/runner/work/cbmc</text>
<text text-anchor="start" x="1312.1" y="-285.5" font-family="Helvetica,sans-Serif" font-size="10.00">/cbmc/src/goto&#45;instrument</text>
<text text-anchor="start" x="1312.1" y="-274.5" font-family="Helvetica,sans-Serif" font-size="10.00">/contracts/dynamic&#45;frames</text>
<text text-anchor="middle" x="1401.1" y="-263.5" font-family="Helvetica,sans-Serif" font-size="10.00">/dfcc_contract_clauses_codegen.cpp</text>
</a>
</g>
</g>
<!-- Node2&#45;&gt;Node9 -->
<g id="edge8" class="edge">
<title>Node2&#45;&gt;Node9</title>
<path fill="none" stroke="midnightblue" d="M1190.17,-342.7C1229.27,-331.72 1273.86,-319.21 1311.94,-308.52"/>
<polygon fill="midnightblue" stroke="midnightblue" points="1189.03,-339.38 1180.35,-345.45 1190.92,-346.12 1189.03,-339.38"/>
</g>
<!-- Node10 -->
<g id="node10" class="node">
<title>Node10</title>
<g id="a_node10"><a xlink:href="dfcc__contract__functions_8cpp.html" target="_top" xlink:title=" ">
<polygon fill="none" stroke="black" points="760.6,-256.5 760.6,-308.5 915.6,-308.5 915.6,-256.5 760.6,-256.5"/>
<text text-anchor="start" x="768.6" y="-296.5" font-family="Helvetica,sans-Serif" font-size="10.00">/home/runner/work/cbmc</text>
<text text-anchor="start" x="768.6" y="-285.5" font-family="Helvetica,sans-Serif" font-size="10.00">/cbmc/src/goto&#45;instrument</text>
<text text-anchor="start" x="768.6" y="-274.5" font-family="Helvetica,sans-Serif" font-size="10.00">/contracts/dynamic&#45;frames</text>
<text text-anchor="middle" x="838.1" y="-263.5" font-family="Helvetica,sans-Serif" font-size="10.00">/dfcc_contract_functions.cpp</text>
</a>
</g>
</g>
<!-- Node2&#45;&gt;Node10 -->
<g id="edge9" class="edge">
<title>Node2&#45;&gt;Node10</title>
<path fill="none" stroke="midnightblue" d="M1008.62,-342.14C977.1,-331.3 941.41,-319.03 910.86,-308.52"/>
<polygon fill="midnightblue" stroke="midnightblue" points="1007.67,-345.51 1018.26,-345.45 1009.94,-338.89 1007.67,-345.51"/>
</g>
<!-- Node11 -->
<g id="node11" class="node">
<title>Node11</title>
<g id="a_node11"><a xlink:href="dfcc__instrument_8cpp.html" target="_top" xlink:title=" ">
<polygon fill="none" stroke="black" points="934.1,-256.5 934.1,-308.5 1082.1,-308.5 1082.1,-256.5 934.1,-256.5"/>
<text text-anchor="start" x="942.1" y="-296.5" font-family="Helvetica,sans-Serif" font-size="10.00">/home/runner/work/cbmc</text>
<text text-anchor="start" x="942.1" y="-285.5" font-family="Helvetica,sans-Serif" font-size="10.00">/cbmc/src/goto&#45;instrument</text>
<text text-anchor="start" x="942.1" y="-274.5" font-family="Helvetica,sans-Serif" font-size="10.00">/contracts/dynamic&#45;frames</text>
<text text-anchor="middle" x="1008.1" y="-263.5" font-family="Helvetica,sans-Serif" font-size="10.00">/dfcc_instrument.cpp</text>
</a>
</g>
</g>
<!-- Node2&#45;&gt;Node11 -->
<g id="edge10" class="edge">
<title>Node2&#45;&gt;Node11</title>
<path fill="none" stroke="midnightblue" d="M1060.17,-338.08C1050.87,-328.34 1040.82,-317.8 1032.05,-308.61"/>
<polygon fill="midnightblue" stroke="midnightblue" points="1057.66,-340.52 1067.09,-345.34 1062.72,-335.68 1057.66,-340.52"/>
</g>
<!-- Node12 -->
<g id="node12" class="node">
<title>Node12</title>
<g id="a_node12"><a xlink:href="dfcc__instrument__loop_8cpp.html" target="_top" xlink:title=" ">
<polygon fill="none" stroke="black" points="1100.1,-256.5 1100.1,-308.5 1248.1,-308.5 1248.1,-256.5 1100.1,-256.5"/>
<text text-anchor="start" x="1108.1" y="-296.5" font-family="Helvetica,sans-Serif" font-size="10.00">/home/runner/work/cbmc</text>
<text text-anchor="start" x="1108.1" y="-285.5" font-family="Helvetica,sans-Serif" font-size="10.00">/cbmc/src/goto&#45;instrument</text>
<text text-anchor="start" x="1108.1" y="-274.5" font-family="Helvetica,sans-Serif" font-size="10.00">/contracts/dynamic&#45;frames</text>
<text text-anchor="middle" x="1174.1" y="-263.5" font-family="Helvetica,sans-Serif" font-size="10.00">/dfcc_instrument_loop.cpp</text>
</a>
</g>
</g>
<!-- Node2&#45;&gt;Node12 -->
<g id="edge11" class="edge">
<title>Node2&#45;&gt;Node12</title>
<path fill="none" stroke="midnightblue" d="M1122.03,-338.08C1131.33,-328.34 1141.38,-317.8 1150.15,-308.61"/>
<polygon fill="midnightblue" stroke="midnightblue" points="1119.48,-335.68 1115.11,-345.34 1124.54,-340.52 1119.48,-335.68"/>
</g>
<!-- Node4 -->
<g id="node4" class="node">
<title>Node4</title>
<g id="a_node4"><a xlink:href="dfcc_8cpp.html" target="_top" xlink:title=" ">
<polygon fill="none" stroke="black" points="422.1,-78.5 422.1,-130.5 570.1,-130.5 570.1,-78.5 422.1,-78.5"/>
<text text-anchor="start" x="430.1" y="-118.5" font-family="Helvetica,sans-Serif" font-size="10.00">/home/runner/work/cbmc</text>
<text text-anchor="start" x="430.1" y="-107.5" font-family="Helvetica,sans-Serif" font-size="10.00">/cbmc/src/goto&#45;instrument</text>
<text text-anchor="start" x="430.1" y="-96.5" font-family="Helvetica,sans-Serif" font-size="10.00">/contracts/dynamic&#45;frames</text>
<text text-anchor="middle" x="496.1" y="-85.5" font-family="Helvetica,sans-Serif" font-size="10.00">/dfcc.cpp</text>
</a>
</g>
</g>
<!-- Node3&#45;&gt;Node4 -->
<g id="edge3" class="edge">
<title>Node3&#45;&gt;Node4</title>
<path fill="none" stroke="midnightblue" d="M559.1,-165.73C547.46,-154.6 534.02,-141.75 522.55,-130.79"/>
<polygon fill="midnightblue" stroke="midnightblue" points="556.8,-168.38 566.45,-172.76 561.64,-163.32 556.8,-168.38"/>
</g>
<!-- Node5 -->
<g id="node5" class="node">
<title>Node5</title>
<g id="a_node5"><a xlink:href="goto__instrument__parse__options_8h.html" target="_top" xlink:title="Command Line Parsing.">
<polygon fill="none" stroke="black" points="588.1,-84 588.1,-125 770.1,-125 770.1,-84 588.1,-84"/>
<text text-anchor="start" x="596.1" y="-113" font-family="Helvetica,sans-Serif" font-size="10.00">/home/runner/work/cbmc</text>
<text text-anchor="start" x="596.1" y="-102" font-family="Helvetica,sans-Serif" font-size="10.00">/cbmc/src/goto&#45;instrument</text>
<text text-anchor="middle" x="679.1" y="-91" font-family="Helvetica,sans-Serif" font-size="10.00">/goto_instrument_parse_options.h</text>
</a>
</g>
</g>
<!-- Node3&#45;&gt;Node5 -->
<g id="edge4" class="edge">
<title>Node3&#45;&gt;Node5</title>
<path fill="none" stroke="midnightblue" d="M615.37,-165.76C629.23,-152.66 645.62,-137.16 658.31,-125.16"/>
<polygon fill="midnightblue" stroke="midnightblue" points="612.84,-163.34 607.98,-172.76 617.65,-168.43 612.84,-163.34"/>
</g>
<!-- Node6 -->
<g id="node6" class="node">
<title>Node6</title>
<g id="a_node6"><a xlink:href="goto__instrument__languages_8cpp.html" target="_top" xlink:title="Language Registration.">
<polygon fill="none" stroke="black" points="410.1,-0.5 410.1,-41.5 586.1,-41.5 586.1,-0.5 410.1,-0.5"/>
<text text-anchor="start" x="418.1" y="-29.5" font-family="Helvetica,sans-Serif" font-size="10.00">/home/runner/work/cbmc</text>
<text text-anchor="start" x="418.1" y="-18.5" font-family="Helvetica,sans-Serif" font-size="10.00">/cbmc/src/goto&#45;instrument</text>
<text text-anchor="middle" x="498.1" y="-7.5" font-family="Helvetica,sans-Serif" font-size="10.00">/goto_instrument_languages.cpp</text>
</a>
</g>
</g>
<!-- Node5&#45;&gt;Node6 -->
<g id="edge5" class="edge">
<title>Node5&#45;&gt;Node6</title>
<path fill="none" stroke="midnightblue" d="M626.44,-79.79C599.44,-67.63 566.95,-53 541.41,-41.5"/>
<polygon fill="midnightblue" stroke="midnightblue" points="625.19,-83.06 635.75,-83.98 628.06,-76.68 625.19,-83.06"/>
</g>
<!-- Node7 -->
<g id="node7" class="node">
<title>Node7</title>
<g id="a_node7"><a xlink:href="goto__instrument__main_8cpp.html" target="_top" xlink:title="Main Module.">
<polygon fill="none" stroke="black" points="604.1,-0.5 604.1,-41.5 754.1,-41.5 754.1,-0.5 604.1,-0.5"/>
<text text-anchor="start" x="612.1" y="-29.5" font-family="Helvetica,sans-Serif" font-size="10.00">/home/runner/work/cbmc</text>
<text text-anchor="start" x="612.1" y="-18.5" font-family="Helvetica,sans-Serif" font-size="10.00">/cbmc/src/goto&#45;instrument</text>
<text text-anchor="middle" x="679.1" y="-7.5" font-family="Helvetica,sans-Serif" font-size="10.00">/goto_instrument_main.cpp</text>
</a>
</g>
</g>
<!-- Node5&#45;&gt;Node7 -->
<g id="edge6" class="edge">
<title>Node5&#45;&gt;Node7</title>
<path fill="none" stroke="midnightblue" d="M679.1,-73.56C679.1,-62.88 679.1,-51.13 679.1,-41.55"/>
<polygon fill="midnightblue" stroke="midnightblue" points="675.6,-73.77 679.1,-83.77 682.6,-73.77 675.6,-73.77"/>
</g>
<!-- Node8 -->
<g id="node8" class="node">
<title>Node8</title>
<g id="a_node8"><a xlink:href="goto__instrument__parse__options_8cpp.html" target="_top" xlink:title="Main Module.">
<polygon fill="none" stroke="black" points="772.1,-0.5 772.1,-41.5 966.1,-41.5 966.1,-0.5 772.1,-0.5"/>
<text text-anchor="start" x="780.1" y="-29.5" font-family="Helvetica,sans-Serif" font-size="10.00">/home/runner/work/cbmc</text>
<text text-anchor="start" x="780.1" y="-18.5" font-family="Helvetica,sans-Serif" font-size="10.00">/cbmc/src/goto&#45;instrument</text>
<text text-anchor="middle" x="869.1" y="-7.5" font-family="Helvetica,sans-Serif" font-size="10.00">/goto_instrument_parse_options.cpp</text>
</a>
</g>
</g>
<!-- Node5&#45;&gt;Node8 -->
<g id="edge7" class="edge">
<title>Node5&#45;&gt;Node8</title>
<path fill="none" stroke="midnightblue" d="M734,-79.95C762.43,-67.76 796.71,-53.05 823.63,-41.5"/>
<polygon fill="midnightblue" stroke="midnightblue" points="732.42,-76.82 724.61,-83.98 735.18,-83.25 732.42,-76.82"/>
</g>
<!-- Node13&#45;&gt;Node10 -->
<g id="edge13" class="edge">
<title>Node13&#45;&gt;Node10</title>
<path fill="none" stroke="midnightblue" d="M604.46,-439.01C637.11,-429.18 674.02,-415.63 705.1,-398 748.04,-373.65 789.89,-334.27 814.84,-308.63"/>
<polygon fill="midnightblue" stroke="midnightblue" points="603.09,-435.77 594.48,-441.94 605.06,-442.48 603.09,-435.77"/>
</g>
<!-- Node14 -->
<g id="node14" class="node">
<title>Node14</title>
<g id="a_node14"><a xlink:href="dfcc__contract__handler_8h.html" target="_top" xlink:title="Specialisation of dfcc_contract_handlert for contracts.">
<polygon fill="none" stroke="black" points="104.1,-345.5 104.1,-397.5 252.1,-397.5 252.1,-345.5 104.1,-345.5"/>
<text text-anchor="start" x="112.1" y="-385.5" font-family="Helvetica,sans-Serif" font-size="10.00">/home/runner/work/cbmc</text>
<text text-anchor="start" x="112.1" y="-374.5" font-family="Helvetica,sans-Serif" font-size="10.00">/cbmc/src/goto&#45;instrument</text>
<text text-anchor="start" x="112.1" y="-363.5" font-family="Helvetica,sans-Serif" font-size="10.00">/contracts/dynamic&#45;frames</text>
<text text-anchor="middle" x="178.1" y="-352.5" font-family="Helvetica,sans-Serif" font-size="10.00">/dfcc_contract_handler.h</text>
</a>
</g>
</g>
<!-- Node13&#45;&gt;Node14 -->
<g id="edge14" class="edge">
<title>Node13&#45;&gt;Node14</title>
<path fill="none" stroke="midnightblue" d="M435.94,-438.09C379.64,-423.77 306.25,-405.1 252.16,-391.34"/>
<polygon fill="midnightblue" stroke="midnightblue" points="435.34,-441.55 445.89,-440.62 437.06,-434.76 435.34,-441.55"/>
</g>
<!-- Node18 -->
<g id="node18" class="node">
<title>Node18</title>
<g id="a_node18"><a xlink:href="dfcc__wrapper__program_8cpp.html" target="_top" xlink:title=" ">
<polygon fill="none" stroke="black" points="352.1,-256.5 352.1,-308.5 504.1,-308.5 504.1,-256.5 352.1,-256.5"/>
<text text-anchor="start" x="360.1" y="-296.5" font-family="Helvetica,sans-Serif" font-size="10.00">/home/runner/work/cbmc</text>
<text text-anchor="start" x="360.1" y="-285.5" font-family="Helvetica,sans-Serif" font-size="10.00">/cbmc/src/goto&#45;instrument</text>
<text text-anchor="start" x="360.1" y="-274.5" font-family="Helvetica,sans-Serif" font-size="10.00">/contracts/dynamic&#45;frames</text>
<text text-anchor="middle" x="428.1" y="-263.5" font-family="Helvetica,sans-Serif" font-size="10.00">/dfcc_wrapper_program.cpp</text>
</a>
</g>
</g>
<!-- Node13&#45;&gt;Node18 -->
<g id="edge20" class="edge">
<title>Node13&#45;&gt;Node18</title>
<path fill="none" stroke="midnightblue" d="M520.47,-424.16C519.28,-400.38 514.82,-369.1 501.1,-345 493.07,-330.89 480.48,-318.57 468.02,-308.73"/>
<polygon fill="midnightblue" stroke="midnightblue" points="516.97,-424.29 520.8,-434.17 523.97,-424.06 516.97,-424.29"/>
</g>
<!-- Node13&#45;&gt;Node19 -->
<g id="edge21" class="edge">
<title>Node13&#45;&gt;Node19</title>
<path fill="none" stroke="midnightblue" d="M482.76,-427.65C471.15,-417.75 458.53,-406.98 447.54,-397.61"/>
<polygon fill="midnightblue" stroke="midnightblue" points="480.72,-430.51 490.6,-434.34 485.26,-425.18 480.72,-430.51"/>
</g>
<!-- Node14&#45;&gt;Node3 -->
<g id="edge15" class="edge">
<title>Node14&#45;&gt;Node3</title>
<path fill="none" stroke="midnightblue" d="M93.79,-359.9C62.52,-351.42 30.08,-336.21 11.1,-309 -2.37,-289.68 -4.65,-273.52 11.1,-256 12.11,-254.88 335.18,-220.89 496.97,-203.93"/>
<polygon fill="midnightblue" stroke="midnightblue" points="93.33,-363.39 103.88,-362.42 95.03,-356.6 93.33,-363.39"/>
</g>
<!-- Node15 -->
<g id="node15" class="node">
<title>Node15</title>
<g id="a_node15"><a xlink:href="dfcc__contract__handler_8cpp.html" target="_top" xlink:title=" ">
<polygon fill="none" stroke="black" points="20.1,-256.5 20.1,-308.5 168.1,-308.5 168.1,-256.5 20.1,-256.5"/>
<text text-anchor="start" x="28.1" y="-296.5" font-family="Helvetica,sans-Serif" font-size="10.00">/home/runner/work/cbmc</text>
<text text-anchor="start" x="28.1" y="-285.5" font-family="Helvetica,sans-Serif" font-size="10.00">/cbmc/src/goto&#45;instrument</text>
<text text-anchor="start" x="28.1" y="-274.5" font-family="Helvetica,sans-Serif" font-size="10.00">/contracts/dynamic&#45;frames</text>
<text text-anchor="middle" x="94.1" y="-263.5" font-family="Helvetica,sans-Serif" font-size="10.00">/dfcc_contract_handler.cpp</text>
</a>
</g>
</g>
<!-- Node14&#45;&gt;Node15 -->
<g id="edge16" class="edge">
<title>Node14&#45;&gt;Node15</title>
<path fill="none" stroke="midnightblue" d="M146.8,-338.08C137.39,-328.34 127.22,-317.8 118.34,-308.61"/>
<polygon fill="midnightblue" stroke="midnightblue" points="144.34,-340.57 153.8,-345.34 149.38,-335.71 144.34,-340.57"/>
</g>
<!-- Node16 -->
<g id="node16" class="node">
<title>Node16</title>
<g id="a_node16"><a xlink:href="dfcc__swap__and__wrap_8h.html" target="_top" xlink:title="Given a function_id and contract_id, swaps its body to a function with a fresh mangled name,...">
<polygon fill="none" stroke="black" points="186.1,-256.5 186.1,-308.5 334.1,-308.5 334.1,-256.5 186.1,-256.5"/>
<text text-anchor="start" x="194.1" y="-296.5" font-family="Helvetica,sans-Serif" font-size="10.00">/home/runner/work/cbmc</text>
<text text-anchor="start" x="194.1" y="-285.5" font-family="Helvetica,sans-Serif" font-size="10.00">/cbmc/src/goto&#45;instrument</text>
<text text-anchor="start" x="194.1" y="-274.5" font-family="Helvetica,sans-Serif" font-size="10.00">/contracts/dynamic&#45;frames</text>
<text text-anchor="middle" x="260.1" y="-263.5" font-family="Helvetica,sans-Serif" font-size="10.00">/dfcc_swap_and_wrap.h</text>
</a>
</g>
</g>
<!-- Node14&#45;&gt;Node16 -->
<g id="edge17" class="edge">
<title>Node14&#45;&gt;Node16</title>
<path fill="none" stroke="midnightblue" d="M208.93,-337.79C218.04,-328.13 227.86,-317.71 236.44,-308.61"/>
<polygon fill="midnightblue" stroke="midnightblue" points="206.13,-335.66 201.82,-345.34 211.22,-340.46 206.13,-335.66"/>
</g>
<!-- Node16&#45;&gt;Node3 -->
<g id="edge18" class="edge">
<title>Node16&#45;&gt;Node3</title>
<path fill="none" stroke="midnightblue" d="M344.14,-255.76C403.23,-239.37 460.22,-225.02 505.21,-214.03"/>
<polygon fill="midnightblue" stroke="midnightblue" points="342.95,-252.46 334.26,-258.51 344.83,-259.2 342.95,-252.46"/>
</g>
<!-- Node17 -->
<g id="node17" class="node">
<title>Node17</title>
<g id="a_node17"><a xlink:href="dfcc__swap__and__wrap_8cpp.html" target="_top" xlink:title=" ">
<polygon fill="none" stroke="black" points="186.1,-167.5 186.1,-219.5 334.1,-219.5 334.1,-167.5 186.1,-167.5"/>
<text text-anchor="start" x="194.1" y="-207.5" font-family="Helvetica,sans-Serif" font-size="10.00">/home/runner/work/cbmc</text>
<text text-anchor="start" x="194.1" y="-196.5" font-family="Helvetica,sans-Serif" font-size="10.00">/cbmc/src/goto&#45;instrument</text>
<text text-anchor="start" x="194.1" y="-185.5" font-family="Helvetica,sans-Serif" font-size="10.00">/contracts/dynamic&#45;frames</text>
<text text-anchor="middle" x="260.1" y="-174.5" font-family="Helvetica,sans-Serif" font-size="10.00">/dfcc_swap_and_wrap.cpp</text>
</a>
</g>
</g>
<!-- Node16&#45;&gt;Node17 -->
<g id="edge19" class="edge">
<title>Node16&#45;&gt;Node17</title>
<path fill="none" stroke="midnightblue" d="M260.1,-246.19C260.1,-237.28 260.1,-227.9 260.1,-219.61"/>
<polygon fill="midnightblue" stroke="midnightblue" points="256.6,-246.34 260.1,-256.34 263.6,-246.34 256.6,-246.34"/>
</g>
<!-- Node19&#45;&gt;Node15 -->
<g id="edge22" class="edge">
<title>Node19&#45;&gt;Node15</title>
<path fill="none" stroke="midnightblue" d="M334.3,-350.17C287.84,-338.63 229.11,-323.62 177.1,-309 174.2,-308.18 171.24,-307.34 168.26,-306.48"/>
<polygon fill="midnightblue" stroke="midnightblue" points="333.47,-353.57 344.02,-352.58 335.15,-346.78 333.47,-353.57"/>
</g>
<!-- Node19&#45;&gt;Node18 -->
<g id="edge23" class="edge">
<title>Node19&#45;&gt;Node18</title>
<path fill="none" stroke="midnightblue" d="M422.16,-335.19C423.18,-326.28 424.26,-316.9 425.21,-308.61"/>
<polygon fill="midnightblue" stroke="midnightblue" points="418.66,-335 420.99,-345.34 425.61,-335.8 418.66,-335"/>
</g>
<!-- Node21&#45;&gt;Node3 -->
<g id="edge26" class="edge">
<title>Node21&#45;&gt;Node3</title>
<path fill="none" stroke="midnightblue" d="M686.07,-339.27C696.94,-330.99 706.76,-320.94 713.1,-309 724.15,-288.2 725.58,-275.98 713.1,-256 701.04,-236.7 680.98,-223.29 660.38,-214.05"/>
<polygon fill="midnightblue" stroke="midnightblue" points="683.74,-336.64 677.59,-345.27 687.78,-342.35 683.74,-336.64"/>
</g>
<!-- Node21&#45;&gt;Node10 -->
<g id="edge27" class="edge">
<title>Node21&#45;&gt;Node10</title>
<path fill="none" stroke="midnightblue" d="M693.91,-341.58C720.48,-330.88 750.35,-318.85 775.98,-308.52"/>
<polygon fill="midnightblue" stroke="midnightblue" points="692.25,-338.47 684.29,-345.45 694.87,-344.96 692.25,-338.47"/>
</g>
<!-- Node21&#45;&gt;Node11 -->
<g id="edge29" class="edge">
<title>Node21&#45;&gt;Node11</title>
<path fill="none" stroke="midnightblue" d="M706.32,-355.69C767.4,-344.4 851.8,-327.65 925.1,-309 928.02,-308.26 930.99,-307.47 933.99,-306.66"/>
<polygon fill="midnightblue" stroke="midnightblue" points="705.54,-352.28 696.34,-357.53 706.81,-359.16 705.54,-352.28"/>
</g>
<!-- Node21&#45;&gt;Node12 -->
<g id="edge30" class="edge">
<title>Node21&#45;&gt;Node12</title>
<path fill="none" stroke="midnightblue" d="M706.34,-363.74C800.79,-355.18 958.13,-337.93 1091.1,-309 1094.05,-308.36 1097.04,-307.66 1100.05,-306.92"/>
<polygon fill="midnightblue" stroke="midnightblue" points="705.92,-360.27 696.27,-364.64 706.55,-367.24 705.92,-360.27"/>
</g>
<!-- Node21&#45;&gt;Node15 -->
<g id="edge28" class="edge">
<title>Node21&#45;&gt;Node15</title>
<path fill="none" stroke="midnightblue" d="M538.2,-351.72C525.8,-349.26 513.14,-346.93 501.1,-345 358.05,-322.03 318.97,-338.4 177.1,-309 174.15,-308.39 171.15,-307.72 168.13,-307"/>
<polygon fill="midnightblue" stroke="midnightblue" points="537.59,-355.17 548.08,-353.71 538.97,-348.31 537.59,-355.17"/>
</g>
<!-- Node21&#45;&gt;Node16 -->
<g id="edge32" class="edge">
<title>Node21&#45;&gt;Node16</title>
<path fill="none" stroke="midnightblue" d="M538.17,-352.78C469.96,-338.24 379.33,-318.54 343.1,-309 340.18,-308.23 337.22,-307.43 334.23,-306.6"/>
<polygon fill="midnightblue" stroke="midnightblue" points="537.55,-356.23 548.06,-354.89 539.01,-349.38 537.55,-356.23"/>
</g>
<!-- Node21&#45;&gt;Node18 -->
<g id="edge33" class="edge">
<title>Node21&#45;&gt;Node18</title>
<path fill="none" stroke="midnightblue" d="M556.98,-341.29C533.27,-330.67 506.72,-318.76 483.89,-308.52"/>
<polygon fill="midnightblue" stroke="midnightblue" points="555.69,-344.55 566.25,-345.45 558.56,-338.17 555.69,-344.55"/>
</g>
<!-- Node22 -->
<g id="node22" class="node">
<title>Node22</title>
<g id="a_node22"><a xlink:href="dfcc__lift__memory__predicates_8cpp.html" target="_top" xlink:title=" ">
<polygon fill="none" stroke="black" points="522.6,-256.5 522.6,-308.5 703.6,-308.5 703.6,-256.5 522.6,-256.5"/>
<text text-anchor="start" x="530.6" y="-296.5" font-family="Helvetica,sans-Serif" font-size="10.00">/home/runner/work/cbmc</text>
<text text-anchor="start" x="530.6" y="-285.5" font-family="Helvetica,sans-Serif" font-size="10.00">/cbmc/src/goto&#45;instrument</text>
<text text-anchor="start" x="530.6" y="-274.5" font-family="Helvetica,sans-Serif" font-size="10.00">/contracts/dynamic&#45;frames</text>
<text text-anchor="middle" x="613.1" y="-263.5" font-family="Helvetica,sans-Serif" font-size="10.00">/dfcc_lift_memory_predicates.cpp</text>
</a>
</g>
</g>
<!-- Node21&#45;&gt;Node22 -->
<g id="edge31" class="edge">
<title>Node21&#45;&gt;Node22</title>
<path fill="none" stroke="midnightblue" d="M618.45,-335.19C617.53,-326.28 616.56,-316.9 615.7,-308.61"/>
<polygon fill="midnightblue" stroke="midnightblue" points="614.99,-335.75 619.5,-345.34 621.95,-335.03 614.99,-335.75"/>
</g>
</g>
</svg>
