<?xml version="1.0" encoding="UTF-8" standalone="no"?>
<!DOCTYPE svg PUBLIC "-//W3C//DTD SVG 1.1//EN"
 "http://www.w3.org/Graphics/SVG/1.1/DTD/svg11.dtd">
<!-- Generated by graphviz version 2.43.0 (0)
 -->
<!-- Title: /home/runner/work/cbmc/cbmc/src/goto&#45;instrument/accelerate Pages: 1 -->
<svg width="354pt" height="439pt"
 viewBox="0.00 0.00 354.00 439.00" xmlns="http://www.w3.org/2000/svg" xmlns:xlink="http://www.w3.org/1999/xlink">
<g id="graph0" class="graph" transform="scale(1 1) rotate(0) translate(4 435)">
<title>/home/runner/work/cbmc/cbmc/src/goto&#45;instrument/accelerate</title>
<g id="clust1" class="cluster">
<title>clusterdir_4cd183c173ff5cfcfce420f655b591bf</title>
<g id="a_clust1"><a xlink:href="dir_4cd183c173ff5cfcfce420f655b591bf.html" target="_top" xlink:title="goto&#45;instrument">
<polygon fill="#ddddee" stroke="black" points="104,-352 104,-423 199,-423 199,-352 104,-352"/>
<text text-anchor="middle" x="151.5" y="-411" font-family="Helvetica,sans-Serif" font-size="10.00">goto&#45;instrument</text>
</a>
</g>
</g>
<!-- dir_6299ea566f0780fdfe4a304b3be6fd1f -->
<g id="node1" class="node">
<title>dir_6299ea566f0780fdfe4a304b3be6fd1f</title>
<g id="a_node1"><a xlink:href="dir_6299ea566f0780fdfe4a304b3be6fd1f.html" target="_top" xlink:title="accelerate">
<polygon fill="#eeeeff" stroke="black" points="185,-396 117,-396 117,-360 185,-360 185,-396"/>
<text text-anchor="middle" x="151" y="-375.5" font-family="Helvetica,sans-Serif" font-size="10.00">accelerate</text>
</a>
</g>
</g>
<!-- dir_19373f467389307dc54ab8a6e9e19559 -->
<g id="node2" class="node">
<title>dir_19373f467389307dc54ab8a6e9e19559</title>
<g id="a_node2"><a xlink:href="dir_19373f467389307dc54ab8a6e9e19559.html" target="_top" xlink:title="solvers">
<polygon fill="none" stroke="red" points="120,-108 66,-108 66,-72 120,-72 120,-108"/>
<text text-anchor="middle" x="93" y="-87.5" font-family="Helvetica,sans-Serif" font-size="10.00">solvers</text>
</a>
</g>
</g>
<!-- dir_6299ea566f0780fdfe4a304b3be6fd1f&#45;&gt;dir_19373f467389307dc54ab8a6e9e19559 -->
<g id="edge16" class="edge">
<title>dir_6299ea566f0780fdfe4a304b3be6fd1f&#45;&gt;dir_19373f467389307dc54ab8a6e9e19559</title>
<path fill="none" stroke="black" d="M132.06,-359.76C109.14,-337.5 71.8,-296.3 57,-252 41.54,-205.72 62.6,-149.73 78.42,-117.45"/>
<polygon fill="black" stroke="black" points="81.7,-118.73 83.12,-108.23 75.46,-115.56 81.7,-118.73"/>
<g id="a_edge16&#45;headlabel"><a xlink:href="dir_000040_000032.html" target="_top" xlink:title="4">
<text text-anchor="middle" x="82.6" y="-120.72" font-family="Helvetica,sans-Serif" font-size="10.00">4</text>
</a>
</g>
</g>
<!-- dir_b7878ad5ecbf2506f4125b9d34c97e45 -->
<g id="node3" class="node">
<title>dir_b7878ad5ecbf2506f4125b9d34c97e45</title>
<g id="a_node3"><a xlink:href="dir_b7878ad5ecbf2506f4125b9d34c97e45.html" target="_top" xlink:title="util">
<polygon fill="none" stroke="black" points="204,-36 150,-36 150,0 204,0 204,-36"/>
<text text-anchor="middle" x="177" y="-15.5" font-family="Helvetica,sans-Serif" font-size="10.00">util</text>
</a>
</g>
</g>
<!-- dir_6299ea566f0780fdfe4a304b3be6fd1f&#45;&gt;dir_b7878ad5ecbf2506f4125b9d34c97e45 -->
<g id="edge17" class="edge">
<title>dir_6299ea566f0780fdfe4a304b3be6fd1f&#45;&gt;dir_b7878ad5ecbf2506f4125b9d34c97e45</title>
<path fill="none" stroke="black" d="M116.74,-362.98C72.18,-342.19 0,-298.7 0,-235 0,-235 0,-235 0,-161 0,-89.75 88.33,-48.31 140.19,-30.11"/>
<polygon fill="black" stroke="black" points="141.38,-33.4 149.73,-26.88 139.14,-26.77 141.38,-33.4"/>
<g id="a_edge17&#45;headlabel"><a xlink:href="dir_000040_000033.html" target="_top" xlink:title="46">
<text text-anchor="middle" x="138.89" y="-34.74" font-family="Helvetica,sans-Serif" font-size="10.00">46</text>
</a>
</g>
</g>
<!-- dir_807c5b2c83e0c14a10083f60cf67ca05 -->
<g id="node4" class="node">
<title>dir_807c5b2c83e0c14a10083f60cf67ca05</title>
<g id="a_node4"><a xlink:href="dir_807c5b2c83e0c14a10083f60cf67ca05.html" target="_top" xlink:title="goto&#45;programs">
<polygon fill="none" stroke="black" points="287.5,-324 198.5,-324 198.5,-288 287.5,-288 287.5,-324"/>
<text text-anchor="middle" x="243" y="-303.5" font-family="Helvetica,sans-Serif" font-size="10.00">goto&#45;programs</text>
</a>
</g>
</g>
<!-- dir_6299ea566f0780fdfe4a304b3be6fd1f&#45;&gt;dir_807c5b2c83e0c14a10083f60cf67ca05 -->
<g id="edge18" class="edge">
<title>dir_6299ea566f0780fdfe4a304b3be6fd1f&#45;&gt;dir_807c5b2c83e0c14a10083f60cf67ca05</title>
<path fill="none" stroke="black" d="M173.74,-359.7C185.44,-350.8 199.86,-339.82 212.51,-330.2"/>
<polygon fill="black" stroke="black" points="214.68,-332.94 220.52,-324.1 210.44,-327.37 214.68,-332.94"/>
<g id="a_edge18&#45;headlabel"><a xlink:href="dir_000040_000024.html" target="_top" xlink:title="25">
<text text-anchor="middle" x="213.54" y="-334.88" font-family="Helvetica,sans-Serif" font-size="10.00">25</text>
</a>
</g>
</g>
<!-- dir_f88182c44268ef6b082d02d66ccc5f99 -->
<g id="node5" class="node">
<title>dir_f88182c44268ef6b082d02d66ccc5f99</title>
<g id="a_node5"><a xlink:href="dir_f88182c44268ef6b082d02d66ccc5f99.html" target="_top" xlink:title="ansi&#45;c">
<polygon fill="none" stroke="red" points="346,-252 292,-252 292,-216 346,-216 346,-252"/>
<text text-anchor="middle" x="319" y="-231.5" font-family="Helvetica,sans-Serif" font-size="10.00">ansi&#45;c</text>
</a>
</g>
</g>
<!-- dir_6299ea566f0780fdfe4a304b3be6fd1f&#45;&gt;dir_f88182c44268ef6b082d02d66ccc5f99 -->
<g id="edge19" class="edge">
<title>dir_6299ea566f0780fdfe4a304b3be6fd1f&#45;&gt;dir_f88182c44268ef6b082d02d66ccc5f99</title>
<path fill="none" stroke="black" d="M185.04,-373.58C218.06,-368.45 267.28,-355.67 296,-324 311.2,-307.24 316.62,-281.76 318.43,-262.34"/>
<polygon fill="black" stroke="black" points="321.92,-262.49 319.1,-252.28 314.94,-262.02 321.92,-262.49"/>
<g id="a_edge19&#45;headlabel"><a xlink:href="dir_000040_000012.html" target="_top" xlink:title="2">
<text text-anchor="middle" x="324.52" y="-263.77" font-family="Helvetica,sans-Serif" font-size="10.00">2</text>
</a>
</g>
</g>
<!-- dir_99e24f80c4828e49b24e2d05c93d325b -->
<g id="node6" class="node">
<title>dir_99e24f80c4828e49b24e2d05c93d325b</title>
<g id="a_node6"><a xlink:href="dir_99e24f80c4828e49b24e2d05c93d325b.html" target="_top" xlink:title="goto&#45;symex">
<polygon fill="none" stroke="black" points="141.5,-252 66.5,-252 66.5,-216 141.5,-216 141.5,-252"/>
<text text-anchor="middle" x="104" y="-231.5" font-family="Helvetica,sans-Serif" font-size="10.00">goto&#45;symex</text>
</a>
</g>
</g>
<!-- dir_6299ea566f0780fdfe4a304b3be6fd1f&#45;&gt;dir_99e24f80c4828e49b24e2d05c93d325b -->
<g id="edge20" class="edge">
<title>dir_6299ea566f0780fdfe4a304b3be6fd1f&#45;&gt;dir_99e24f80c4828e49b24e2d05c93d325b</title>
<path fill="none" stroke="black" d="M145.33,-359.87C137.29,-335.56 122.48,-290.82 112.94,-262.01"/>
<polygon fill="black" stroke="black" points="116.15,-260.58 109.69,-252.19 109.51,-262.78 116.15,-260.58"/>
<g id="a_edge20&#45;headlabel"><a xlink:href="dir_000040_000025.html" target="_top" xlink:title="4">
<text text-anchor="middle" x="119.98" y="-260.6" font-family="Helvetica,sans-Serif" font-size="10.00">4</text>
</a>
</g>
</g>
<!-- dir_ba7b98ca4ba342c6303fef7df3e3d6c7 -->
<g id="node7" class="node">
<title>dir_ba7b98ca4ba342c6303fef7df3e3d6c7</title>
<g id="a_node7"><a xlink:href="dir_ba7b98ca4ba342c6303fef7df3e3d6c7.html" target="_top" xlink:title="analyses">
<polygon fill="none" stroke="red" points="236,-180 176,-180 176,-144 236,-144 236,-180"/>
<text text-anchor="middle" x="206" y="-159.5" font-family="Helvetica,sans-Serif" font-size="10.00">analyses</text>
</a>
</g>
</g>
<!-- dir_6299ea566f0780fdfe4a304b3be6fd1f&#45;&gt;dir_ba7b98ca4ba342c6303fef7df3e3d6c7 -->
<g id="edge21" class="edge">
<title>dir_6299ea566f0780fdfe4a304b3be6fd1f&#45;&gt;dir_ba7b98ca4ba342c6303fef7df3e3d6c7</title>
<path fill="none" stroke="black" d="M155.41,-359.85C164.94,-322.75 187.54,-234.81 199.03,-190.1"/>
<polygon fill="black" stroke="black" points="202.47,-190.79 201.57,-180.23 195.69,-189.05 202.47,-190.79"/>
<g id="a_edge21&#45;headlabel"><a xlink:href="dir_000040_000011.html" target="_top" xlink:title="10">
<text text-anchor="middle" x="204.33" y="-192.48" font-family="Helvetica,sans-Serif" font-size="10.00">10</text>
</a>
</g>
</g>
<!-- dir_19373f467389307dc54ab8a6e9e19559&#45;&gt;dir_b7878ad5ecbf2506f4125b9d34c97e45 -->
<g id="edge1" class="edge">
<title>dir_19373f467389307dc54ab8a6e9e19559&#45;&gt;dir_b7878ad5ecbf2506f4125b9d34c97e45</title>
<path fill="none" stroke="black" d="M113.76,-71.7C124.24,-62.97 137.11,-52.24 148.5,-42.75"/>
<polygon fill="black" stroke="black" points="151.03,-45.19 156.47,-36.1 146.55,-39.82 151.03,-45.19"/>
<g id="a_edge1&#45;headlabel"><a xlink:href="dir_000032_000033.html" target="_top" xlink:title="443">
<text text-anchor="middle" x="150.09" y="-47.18" font-family="Helvetica,sans-Serif" font-size="10.00">443</text>
</a>
</g>
</g>
<!-- dir_807c5b2c83e0c14a10083f60cf67ca05&#45;&gt;dir_b7878ad5ecbf2506f4125b9d34c97e45 -->
<g id="edge2" class="edge">
<title>dir_807c5b2c83e0c14a10083f60cf67ca05&#45;&gt;dir_b7878ad5ecbf2506f4125b9d34c97e45</title>
<path fill="none" stroke="black" d="M246.31,-287.68C251.34,-257.74 258.97,-194.66 245,-144 234.77,-106.88 211.79,-68.63 195.38,-44.38"/>
<polygon fill="black" stroke="black" points="198.23,-42.34 189.66,-36.11 192.47,-46.32 198.23,-42.34"/>
<g id="a_edge2&#45;headlabel"><a xlink:href="dir_000024_000033.html" target="_top" xlink:title="397">
<text text-anchor="middle" x="202.61" y="-41.19" font-family="Helvetica,sans-Serif" font-size="10.00">397</text>
</a>
</g>
</g>
<!-- dir_807c5b2c83e0c14a10083f60cf67ca05&#45;&gt;dir_f88182c44268ef6b082d02d66ccc5f99 -->
<g id="edge3" class="edge">
<title>dir_807c5b2c83e0c14a10083f60cf67ca05&#45;&gt;dir_f88182c44268ef6b082d02d66ccc5f99</title>
<path fill="none" stroke="black" d="M255.87,-287.7C264.45,-278.97 275.92,-268.24 286.78,-258.75"/>
<polygon fill="black" stroke="black" points="289.22,-261.27 294.53,-252.1 284.66,-255.96 289.22,-261.27"/>
<g id="a_edge3&#45;headlabel"><a xlink:href="dir_000024_000012.html" target="_top" xlink:title="5">
<text text-anchor="middle" x="288.34" y="-263.27" font-family="Helvetica,sans-Serif" font-size="10.00">5</text>
</a>
</g>
</g>
<!-- dir_807c5b2c83e0c14a10083f60cf67ca05&#45;&gt;dir_99e24f80c4828e49b24e2d05c93d325b -->
<g id="edge4" class="edge">
<title>dir_807c5b2c83e0c14a10083f60cf67ca05&#45;&gt;dir_99e24f80c4828e49b24e2d05c93d325b</title>
<path fill="none" stroke="black" d="M203.1,-287.88C183.61,-278.55 160.37,-266.92 141.25,-256.94"/>
<polygon fill="black" stroke="black" points="142.71,-253.75 132.23,-252.19 139.45,-259.95 142.71,-253.75"/>
<g id="a_edge4&#45;headlabel"><a xlink:href="dir_000024_000025.html" target="_top" xlink:title="1">
<text text-anchor="middle" x="147.21" y="-250.41" font-family="Helvetica,sans-Serif" font-size="10.00">1</text>
</a>
</g>
</g>
<!-- dir_807c5b2c83e0c14a10083f60cf67ca05&#45;&gt;dir_ba7b98ca4ba342c6303fef7df3e3d6c7 -->
<g id="edge5" class="edge">
<title>dir_807c5b2c83e0c14a10083f60cf67ca05&#45;&gt;dir_ba7b98ca4ba342c6303fef7df3e3d6c7</title>
<path fill="none" stroke="black" d="M233.95,-287.87C225.09,-263.67 213.21,-219.21 207.68,-190.39"/>
<polygon fill="black" stroke="black" points="211.06,-189.43 205.89,-180.19 204.17,-190.64 211.06,-189.43"/>
<g id="a_edge5&#45;headlabel"><a xlink:href="dir_000024_000011.html" target="_top" xlink:title="2">
<text text-anchor="middle" x="214.48" y="-189.98" font-family="Helvetica,sans-Serif" font-size="10.00">2</text>
</a>
</g>
</g>
<!-- dir_f88182c44268ef6b082d02d66ccc5f99&#45;&gt;dir_b7878ad5ecbf2506f4125b9d34c97e45 -->
<g id="edge6" class="edge">
<title>dir_f88182c44268ef6b082d02d66ccc5f99&#45;&gt;dir_b7878ad5ecbf2506f4125b9d34c97e45</title>
<path fill="none" stroke="black" d="M319.03,-215.99C318.22,-184.29 312.32,-115.46 278,-72 261.82,-51.52 235.53,-38.07 213.82,-29.85"/>
<polygon fill="black" stroke="black" points="214.82,-26.49 204.23,-26.44 212.47,-33.09 214.82,-26.49"/>
<g id="a_edge6&#45;headlabel"><a xlink:href="dir_000012_000033.html" target="_top" xlink:title="215">
<text text-anchor="middle" x="219.16" y="-22.53" font-family="Helvetica,sans-Serif" font-size="10.00">215</text>
</a>
</g>
</g>
<!-- dir_f88182c44268ef6b082d02d66ccc5f99&#45;&gt;dir_807c5b2c83e0c14a10083f60cf67ca05 -->
<g id="edge7" class="edge">
<title>dir_f88182c44268ef6b082d02d66ccc5f99&#45;&gt;dir_807c5b2c83e0c14a10083f60cf67ca05</title>
<path fill="none" stroke="black" d="M306.32,-252.1C297.79,-260.8 286.33,-271.52 275.46,-281.03"/>
<polygon fill="black" stroke="black" points="273.01,-278.53 267.7,-287.7 277.57,-283.84 273.01,-278.53"/>
<g id="a_edge7&#45;headlabel"><a xlink:href="dir_000012_000024.html" target="_top" xlink:title="12">
<text text-anchor="middle" x="273.89" y="-271.53" font-family="Helvetica,sans-Serif" font-size="10.00">12</text>
</a>
</g>
</g>
<!-- dir_f88182c44268ef6b082d02d66ccc5f99&#45;&gt;dir_ba7b98ca4ba342c6303fef7df3e3d6c7 -->
<g id="edge8" class="edge">
<title>dir_f88182c44268ef6b082d02d66ccc5f99&#45;&gt;dir_ba7b98ca4ba342c6303fef7df3e3d6c7</title>
<path fill="none" stroke="black" d="M291.93,-216.23C277.06,-207.02 258.41,-195.47 242.29,-185.48"/>
<polygon fill="black" stroke="black" points="243.97,-182.41 233.63,-180.12 240.29,-188.36 243.97,-182.41"/>
<g id="a_edge8&#45;headlabel"><a xlink:href="dir_000012_000011.html" target="_top" xlink:title="1">
<text text-anchor="middle" x="248.53" y="-179.39" font-family="Helvetica,sans-Serif" font-size="10.00">1</text>
</a>
</g>
</g>
<!-- dir_99e24f80c4828e49b24e2d05c93d325b&#45;&gt;dir_19373f467389307dc54ab8a6e9e19559 -->
<g id="edge9" class="edge">
<title>dir_99e24f80c4828e49b24e2d05c93d325b&#45;&gt;dir_19373f467389307dc54ab8a6e9e19559</title>
<path fill="none" stroke="black" d="M102.67,-215.87C100.8,-191.67 97.35,-147.21 95.12,-118.39"/>
<polygon fill="black" stroke="black" points="98.59,-117.89 94.33,-108.19 91.61,-118.43 98.59,-117.89"/>
<g id="a_edge9&#45;headlabel"><a xlink:href="dir_000025_000032.html" target="_top" xlink:title="3">
<text text-anchor="middle" x="101.7" y="-118.75" font-family="Helvetica,sans-Serif" font-size="10.00">3</text>
</a>
</g>
</g>
<!-- dir_99e24f80c4828e49b24e2d05c93d325b&#45;&gt;dir_b7878ad5ecbf2506f4125b9d34c97e45 -->
<g id="edge10" class="edge">
<title>dir_99e24f80c4828e49b24e2d05c93d325b&#45;&gt;dir_b7878ad5ecbf2506f4125b9d34c97e45</title>
<path fill="none" stroke="black" d="M109.85,-215.85C122.53,-178.68 152.63,-90.44 167.85,-45.82"/>
<polygon fill="black" stroke="black" points="171.21,-46.83 171.12,-36.23 164.58,-44.57 171.21,-46.83"/>
<g id="a_edge10&#45;headlabel"><a xlink:href="dir_000025_000033.html" target="_top" xlink:title="161">
<text text-anchor="middle" x="172.73" y="-48.65" font-family="Helvetica,sans-Serif" font-size="10.00">161</text>
</a>
</g>
</g>
<!-- dir_99e24f80c4828e49b24e2d05c93d325b&#45;&gt;dir_807c5b2c83e0c14a10083f60cf67ca05 -->
<g id="edge11" class="edge">
<title>dir_99e24f80c4828e49b24e2d05c93d325b&#45;&gt;dir_807c5b2c83e0c14a10083f60cf67ca05</title>
<path fill="none" stroke="black" d="M141.52,-250.99C161.49,-260.5 185.89,-272.69 205.8,-283.09"/>
<polygon fill="black" stroke="black" points="204.41,-286.31 214.89,-287.88 207.68,-280.12 204.41,-286.31"/>
<g id="a_edge11&#45;headlabel"><a xlink:href="dir_000025_000024.html" target="_top" xlink:title="6">
<text text-anchor="middle" x="199.91" y="-284.65" font-family="Helvetica,sans-Serif" font-size="10.00">6</text>
</a>
</g>
</g>
<!-- dir_99e24f80c4828e49b24e2d05c93d325b&#45;&gt;dir_ba7b98ca4ba342c6303fef7df3e3d6c7 -->
<g id="edge12" class="edge">
<title>dir_99e24f80c4828e49b24e2d05c93d325b&#45;&gt;dir_ba7b98ca4ba342c6303fef7df3e3d6c7</title>
<path fill="none" stroke="black" d="M128.95,-215.88C142.04,-206.89 158.26,-195.76 172.44,-186.03"/>
<polygon fill="black" stroke="black" points="174.69,-188.73 180.95,-180.19 170.73,-182.96 174.69,-188.73"/>
<g id="a_edge12&#45;headlabel"><a xlink:href="dir_000025_000011.html" target="_top" xlink:title="6">
<text text-anchor="middle" x="173.33" y="-190.61" font-family="Helvetica,sans-Serif" font-size="10.00">6</text>
</a>
</g>
</g>
<!-- dir_ba7b98ca4ba342c6303fef7df3e3d6c7&#45;&gt;dir_19373f467389307dc54ab8a6e9e19559 -->
<g id="edge13" class="edge">
<title>dir_ba7b98ca4ba342c6303fef7df3e3d6c7&#45;&gt;dir_19373f467389307dc54ab8a6e9e19559</title>
<path fill="none" stroke="black" d="M178.36,-143.88C163.47,-134.66 144.93,-123.17 128.94,-113.26"/>
<polygon fill="black" stroke="black" points="130.7,-110.24 120.36,-107.95 127.02,-116.19 130.7,-110.24"/>
<g id="a_edge13&#45;headlabel"><a xlink:href="dir_000011_000032.html" target="_top" xlink:title="2">
<text text-anchor="middle" x="135.25" y="-107.22" font-family="Helvetica,sans-Serif" font-size="10.00">2</text>
</a>
</g>
</g>
<!-- dir_ba7b98ca4ba342c6303fef7df3e3d6c7&#45;&gt;dir_b7878ad5ecbf2506f4125b9d34c97e45 -->
<g id="edge14" class="edge">
<title>dir_ba7b98ca4ba342c6303fef7df3e3d6c7&#45;&gt;dir_b7878ad5ecbf2506f4125b9d34c97e45</title>
<path fill="none" stroke="black" d="M202.5,-143.87C197.54,-119.56 188.4,-74.82 182.52,-46.01"/>
<polygon fill="black" stroke="black" points="185.94,-45.29 180.51,-36.19 179.08,-46.69 185.94,-45.29"/>
<g id="a_edge14&#45;headlabel"><a xlink:href="dir_000011_000033.html" target="_top" xlink:title="189">
<text text-anchor="middle" x="189.44" y="-45.74" font-family="Helvetica,sans-Serif" font-size="10.00">189</text>
</a>
</g>
</g>
<!-- dir_ba7b98ca4ba342c6303fef7df3e3d6c7&#45;&gt;dir_807c5b2c83e0c14a10083f60cf67ca05 -->
<g id="edge15" class="edge">
<title>dir_ba7b98ca4ba342c6303fef7df3e3d6c7&#45;&gt;dir_807c5b2c83e0c14a10083f60cf67ca05</title>
<path fill="none" stroke="black" d="M215.07,-180.19C223.94,-204.42 235.81,-248.89 241.34,-277.68"/>
<polygon fill="black" stroke="black" points="237.95,-278.63 243.12,-287.87 244.84,-277.42 237.95,-278.63"/>
<g id="a_edge15&#45;headlabel"><a xlink:href="dir_000011_000024.html" target="_top" xlink:title="26">
<text text-anchor="middle" x="234.53" y="-273.08" font-family="Helvetica,sans-Serif" font-size="10.00">26</text>
</a>
</g>
</g>
</g>
</svg>
