<?xml version="1.0" encoding="UTF-8" standalone="no"?>
<!DOCTYPE svg PUBLIC "-//W3C//DTD SVG 1.1//EN"
 "http://www.w3.org/Graphics/SVG/1.1/DTD/svg11.dtd">
<!-- Generated by graphviz version 2.43.0 (0)
 -->
<!-- Title: /home/runner/work/cbmc/cbmc/src/goto&#45;synthesizer Pages: 1 -->
<svg width="248pt" height="455pt"
 viewBox="0.00 0.00 248.00 455.00" xmlns="http://www.w3.org/2000/svg" xmlns:xlink="http://www.w3.org/1999/xlink">
<g id="graph0" class="graph" transform="scale(1 1) rotate(0) translate(4 451)">
<title>/home/runner/work/cbmc/cbmc/src/goto&#45;synthesizer</title>
<g id="clust1" class="cluster">
<title>clusterdir_68267d1309a1af8e8297ef4c3efbcdba</title>
<g id="a_clust1"><a xlink:href="dir_68267d1309a1af8e8297ef4c3efbcdba.html" target="_top" xlink:title="src">
<polygon fill="#ddddee" stroke="black" points="8,-8 8,-439 232,-439 232,-8 8,-8"/>
<text text-anchor="middle" x="120" y="-427" font-family="Helvetica,sans-Serif" font-size="10.00">src</text>
</a>
</g>
</g>
<!-- dir_245199dd16b1f3757d78c9dc7747589d -->
<g id="node1" class="node">
<title>dir_245199dd16b1f3757d78c9dc7747589d</title>
<g id="a_node1"><a xlink:href="dir_245199dd16b1f3757d78c9dc7747589d.html" target="_top" xlink:title="langapi">
<polygon fill="none" stroke="black" points="130,-124 76,-124 76,-88 130,-88 130,-124"/>
<text text-anchor="middle" x="103" y="-103.5" font-family="Helvetica,sans-Serif" font-size="10.00">langapi</text>
</a>
</g>
</g>
<!-- dir_b7878ad5ecbf2506f4125b9d34c97e45 -->
<g id="node3" class="node">
<title>dir_b7878ad5ecbf2506f4125b9d34c97e45</title>
<g id="a_node3"><a xlink:href="dir_b7878ad5ecbf2506f4125b9d34c97e45.html" target="_top" xlink:title="util">
<polygon fill="none" stroke="black" points="130,-52 76,-52 76,-16 130,-16 130,-52"/>
<text text-anchor="middle" x="103" y="-31.5" font-family="Helvetica,sans-Serif" font-size="10.00">util</text>
</a>
</g>
</g>
<!-- dir_245199dd16b1f3757d78c9dc7747589d&#45;&gt;dir_b7878ad5ecbf2506f4125b9d34c97e45 -->
<g id="edge9" class="edge">
<title>dir_245199dd16b1f3757d78c9dc7747589d&#45;&gt;dir_b7878ad5ecbf2506f4125b9d34c97e45</title>
<path fill="none" stroke="black" d="M103,-87.7C103,-79.98 103,-70.71 103,-62.11"/>
<polygon fill="black" stroke="black" points="106.5,-62.1 103,-52.1 99.5,-62.1 106.5,-62.1"/>
<g id="a_edge9&#45;headlabel"><a xlink:href="dir_000029_000035.html" target="_top" xlink:title="14">
<text text-anchor="middle" x="109.34" y="-63.2" font-family="Helvetica,sans-Serif" font-size="10.00">14</text>
</a>
</g>
</g>
<!-- dir_807c5b2c83e0c14a10083f60cf67ca05 -->
<g id="node2" class="node">
<title>dir_807c5b2c83e0c14a10083f60cf67ca05</title>
<g id="a_node2"><a xlink:href="dir_807c5b2c83e0c14a10083f60cf67ca05.html" target="_top" xlink:title="goto&#45;programs">
<polygon fill="none" stroke="black" points="204.5,-268 115.5,-268 115.5,-232 204.5,-232 204.5,-268"/>
<text text-anchor="middle" x="160" y="-247.5" font-family="Helvetica,sans-Serif" font-size="10.00">goto&#45;programs</text>
</a>
</g>
</g>
<!-- dir_807c5b2c83e0c14a10083f60cf67ca05&#45;&gt;dir_245199dd16b1f3757d78c9dc7747589d -->
<g id="edge1" class="edge">
<title>dir_807c5b2c83e0c14a10083f60cf67ca05&#45;&gt;dir_245199dd16b1f3757d78c9dc7747589d</title>
<path fill="none" stroke="black" d="M139.86,-231.91C130.06,-222.39 119.1,-209.71 113,-196 104.37,-176.62 102.1,-152.61 101.86,-134.42"/>
<polygon fill="black" stroke="black" points="105.36,-134.22 101.93,-124.2 98.36,-134.17 105.36,-134.22"/>
<g id="a_edge1&#45;headlabel"><a xlink:href="dir_000024_000029.html" target="_top" xlink:title="18">
<text text-anchor="middle" x="108.18" y="-135.33" font-family="Helvetica,sans-Serif" font-size="10.00">18</text>
</a>
</g>
</g>
<!-- dir_807c5b2c83e0c14a10083f60cf67ca05&#45;&gt;dir_b7878ad5ecbf2506f4125b9d34c97e45 -->
<g id="edge2" class="edge">
<title>dir_807c5b2c83e0c14a10083f60cf67ca05&#45;&gt;dir_b7878ad5ecbf2506f4125b9d34c97e45</title>
<path fill="none" stroke="black" d="M170.63,-231.56C176.1,-221.54 182.2,-208.51 185,-196 188.5,-180.39 188.76,-175.55 185,-160 175.56,-120.96 147.56,-83.44 126.9,-59.87"/>
<polygon fill="black" stroke="black" points="129.23,-57.23 119.94,-52.14 124.03,-61.91 129.23,-57.23"/>
<g id="a_edge2&#45;headlabel"><a xlink:href="dir_000024_000035.html" target="_top" xlink:title="396">
<text text-anchor="middle" x="133.75" y="-55.5" font-family="Helvetica,sans-Serif" font-size="10.00">396</text>
</a>
</g>
</g>
<!-- dir_f88182c44268ef6b082d02d66ccc5f99 -->
<g id="node5" class="node">
<title>dir_f88182c44268ef6b082d02d66ccc5f99</title>
<g id="a_node5"><a xlink:href="dir_f88182c44268ef6b082d02d66ccc5f99.html" target="_top" xlink:title="ansi&#45;c">
<polygon fill="none" stroke="red" points="176,-196 122,-196 122,-160 176,-160 176,-196"/>
<text text-anchor="middle" x="149" y="-175.5" font-family="Helvetica,sans-Serif" font-size="10.00">ansi&#45;c</text>
</a>
</g>
</g>
<!-- dir_807c5b2c83e0c14a10083f60cf67ca05&#45;&gt;dir_f88182c44268ef6b082d02d66ccc5f99 -->
<g id="edge3" class="edge">
<title>dir_807c5b2c83e0c14a10083f60cf67ca05&#45;&gt;dir_f88182c44268ef6b082d02d66ccc5f99</title>
<path fill="none" stroke="black" d="M151.37,-231.7C149.36,-223.98 147.67,-214.71 146.67,-206.11"/>
<polygon fill="black" stroke="black" points="150.15,-205.76 145.79,-196.1 143.17,-206.37 150.15,-205.76"/>
<g id="a_edge3&#45;headlabel"><a xlink:href="dir_000024_000012.html" target="_top" xlink:title="5">
<text text-anchor="middle" x="153.29" y="-206.6" font-family="Helvetica,sans-Serif" font-size="10.00">5</text>
</a>
</g>
</g>
<!-- dir_dfdbda394c3f7a3aa55229f33a559c41 -->
<g id="node4" class="node">
<title>dir_dfdbda394c3f7a3aa55229f33a559c41</title>
<g id="a_node4"><a xlink:href="dir_dfdbda394c3f7a3aa55229f33a559c41.html" target="_top" xlink:title="cpp">
<polygon fill="none" stroke="red" points="117,-340 63,-340 63,-304 117,-304 117,-340"/>
<text text-anchor="middle" x="90" y="-319.5" font-family="Helvetica,sans-Serif" font-size="10.00">cpp</text>
</a>
</g>
</g>
<!-- dir_dfdbda394c3f7a3aa55229f33a559c41&#45;&gt;dir_245199dd16b1f3757d78c9dc7747589d -->
<g id="edge13" class="edge">
<title>dir_dfdbda394c3f7a3aa55229f33a559c41&#45;&gt;dir_245199dd16b1f3757d78c9dc7747589d</title>
<path fill="none" stroke="black" d="M89.76,-303.92C89.62,-286 89.66,-257 91,-232 92.8,-198.28 96.82,-159.61 99.71,-134.32"/>
<polygon fill="black" stroke="black" points="103.19,-134.69 100.87,-124.36 96.23,-133.88 103.19,-134.69"/>
<g id="a_edge13&#45;headlabel"><a xlink:href="dir_000016_000029.html" target="_top" xlink:title="1">
<text text-anchor="middle" x="105.59" y="-136.09" font-family="Helvetica,sans-Serif" font-size="10.00">1</text>
</a>
</g>
</g>
<!-- dir_dfdbda394c3f7a3aa55229f33a559c41&#45;&gt;dir_807c5b2c83e0c14a10083f60cf67ca05 -->
<g id="edge14" class="edge">
<title>dir_dfdbda394c3f7a3aa55229f33a559c41&#45;&gt;dir_807c5b2c83e0c14a10083f60cf67ca05</title>
<path fill="none" stroke="black" d="M107.3,-303.7C115.86,-295.14 126.34,-284.66 135.7,-275.3"/>
<polygon fill="black" stroke="black" points="138.3,-277.65 142.9,-268.1 133.35,-272.7 138.3,-277.65"/>
<g id="a_edge14&#45;headlabel"><a xlink:href="dir_000016_000024.html" target="_top" xlink:title="2">
<text text-anchor="middle" x="137.77" y="-279.7" font-family="Helvetica,sans-Serif" font-size="10.00">2</text>
</a>
</g>
</g>
<!-- dir_dfdbda394c3f7a3aa55229f33a559c41&#45;&gt;dir_b7878ad5ecbf2506f4125b9d34c97e45 -->
<g id="edge15" class="edge">
<title>dir_dfdbda394c3f7a3aa55229f33a559c41&#45;&gt;dir_b7878ad5ecbf2506f4125b9d34c97e45</title>
<path fill="none" stroke="black" d="M83.85,-303.88C70.72,-264.7 43.05,-165.9 67,-88 70.01,-78.22 75.51,-68.62 81.32,-60.33"/>
<polygon fill="black" stroke="black" points="84.19,-62.33 87.39,-52.23 78.59,-58.13 84.19,-62.33"/>
<g id="a_edge15&#45;headlabel"><a xlink:href="dir_000016_000035.html" target="_top" xlink:title="144">
<text text-anchor="middle" x="84.31" y="-64.41" font-family="Helvetica,sans-Serif" font-size="10.00">144</text>
</a>
</g>
</g>
<!-- dir_dfdbda394c3f7a3aa55229f33a559c41&#45;&gt;dir_f88182c44268ef6b082d02d66ccc5f99 -->
<g id="edge16" class="edge">
<title>dir_dfdbda394c3f7a3aa55229f33a559c41&#45;&gt;dir_f88182c44268ef6b082d02d66ccc5f99</title>
<path fill="none" stroke="black" d="M90.85,-303.87C92.3,-285.38 96.26,-255.46 107,-232 111.55,-222.07 118.33,-212.36 125.13,-204.02"/>
<polygon fill="black" stroke="black" points="128,-206.05 131.85,-196.18 122.69,-201.5 128,-206.05"/>
<g id="a_edge16&#45;headlabel"><a xlink:href="dir_000016_000012.html" target="_top" xlink:title="24">
<text text-anchor="middle" x="127.82" y="-208.13" font-family="Helvetica,sans-Serif" font-size="10.00">24</text>
</a>
</g>
</g>
<!-- dir_f88182c44268ef6b082d02d66ccc5f99&#45;&gt;dir_245199dd16b1f3757d78c9dc7747589d -->
<g id="edge10" class="edge">
<title>dir_f88182c44268ef6b082d02d66ccc5f99&#45;&gt;dir_245199dd16b1f3757d78c9dc7747589d</title>
<path fill="none" stroke="black" d="M137.63,-159.7C132.28,-151.56 125.8,-141.69 119.89,-132.7"/>
<polygon fill="black" stroke="black" points="122.66,-130.54 114.24,-124.1 116.81,-134.38 122.66,-130.54"/>
<g id="a_edge10&#45;headlabel"><a xlink:href="dir_000012_000029.html" target="_top" xlink:title="3">
<text text-anchor="middle" x="127" y="-129.48" font-family="Helvetica,sans-Serif" font-size="10.00">3</text>
</a>
</g>
</g>
<!-- dir_f88182c44268ef6b082d02d66ccc5f99&#45;&gt;dir_807c5b2c83e0c14a10083f60cf67ca05 -->
<g id="edge11" class="edge">
<title>dir_f88182c44268ef6b082d02d66ccc5f99&#45;&gt;dir_807c5b2c83e0c14a10083f60cf67ca05</title>
<path fill="none" stroke="black" d="M157.58,-196.1C159.6,-203.79 161.29,-213.05 162.31,-221.67"/>
<polygon fill="black" stroke="black" points="158.83,-222.04 163.2,-231.7 165.8,-221.43 158.83,-222.04"/>
<g id="a_edge11&#45;headlabel"><a xlink:href="dir_000012_000024.html" target="_top" xlink:title="12">
<text text-anchor="middle" x="155.68" y="-216.21" font-family="Helvetica,sans-Serif" font-size="10.00">12</text>
</a>
</g>
</g>
<!-- dir_f88182c44268ef6b082d02d66ccc5f99&#45;&gt;dir_b7878ad5ecbf2506f4125b9d34c97e45 -->
<g id="edge12" class="edge">
<title>dir_f88182c44268ef6b082d02d66ccc5f99&#45;&gt;dir_b7878ad5ecbf2506f4125b9d34c97e45</title>
<path fill="none" stroke="black" d="M149.48,-159.71C149.44,-141.35 147.79,-111.77 139,-88 135.45,-78.4 129.8,-68.85 124.02,-60.56"/>
<polygon fill="black" stroke="black" points="126.77,-58.4 118.03,-52.42 121.14,-62.55 126.77,-58.4"/>
<g id="a_edge12&#45;headlabel"><a xlink:href="dir_000012_000035.html" target="_top" xlink:title="225">
<text text-anchor="middle" x="131.19" y="-57.11" font-family="Helvetica,sans-Serif" font-size="10.00">225</text>
</a>
</g>
</g>
<!-- dir_07fb78a0b4d496699ca5c92e9ebaed68 -->
<g id="node6" class="node">
<title>dir_07fb78a0b4d496699ca5c92e9ebaed68</title>
<g id="a_node6"><a xlink:href="dir_07fb78a0b4d496699ca5c92e9ebaed68.html" target="_top" xlink:title="goto&#45;synthesizer">
<polygon fill="#eeeeff" stroke="black" points="139,-412 41,-412 41,-376 139,-376 139,-412"/>
<text text-anchor="middle" x="90" y="-391.5" font-family="Helvetica,sans-Serif" font-size="10.00">goto&#45;synthesizer</text>
</a>
</g>
</g>
<!-- dir_07fb78a0b4d496699ca5c92e9ebaed68&#45;&gt;dir_245199dd16b1f3757d78c9dc7747589d -->
<g id="edge4" class="edge">
<title>dir_07fb78a0b4d496699ca5c92e9ebaed68&#45;&gt;dir_245199dd16b1f3757d78c9dc7747589d</title>
<path fill="none" stroke="black" d="M74.39,-375.77C66.63,-366.03 58.05,-353.18 54,-340 31.41,-266.54 67.48,-176.87 88.92,-133.3"/>
<polygon fill="black" stroke="black" points="92.12,-134.73 93.5,-124.23 85.87,-131.57 92.12,-134.73"/>
<g id="a_edge4&#45;headlabel"><a xlink:href="dir_000026_000029.html" target="_top" xlink:title="1">
<text text-anchor="middle" x="93.03" y="-136.72" font-family="Helvetica,sans-Serif" font-size="10.00">1</text>
</a>
</g>
</g>
<!-- dir_07fb78a0b4d496699ca5c92e9ebaed68&#45;&gt;dir_807c5b2c83e0c14a10083f60cf67ca05 -->
<g id="edge5" class="edge">
<title>dir_07fb78a0b4d496699ca5c92e9ebaed68&#45;&gt;dir_807c5b2c83e0c14a10083f60cf67ca05</title>
<path fill="none" stroke="black" d="M103.06,-375.97C110.42,-365.87 119.42,-352.62 126,-340 136.47,-319.92 145.47,-295.87 151.57,-277.83"/>
<polygon fill="black" stroke="black" points="154.93,-278.83 154.74,-268.24 148.28,-276.64 154.93,-278.83"/>
<g id="a_edge5&#45;headlabel"><a xlink:href="dir_000026_000024.html" target="_top" xlink:title="2">
<text text-anchor="middle" x="156.49" y="-280.64" font-family="Helvetica,sans-Serif" font-size="10.00">2</text>
</a>
</g>
</g>
<!-- dir_07fb78a0b4d496699ca5c92e9ebaed68&#45;&gt;dir_b7878ad5ecbf2506f4125b9d34c97e45 -->
<g id="edge6" class="edge">
<title>dir_07fb78a0b4d496699ca5c92e9ebaed68&#45;&gt;dir_b7878ad5ecbf2506f4125b9d34c97e45</title>
<path fill="none" stroke="black" d="M71.75,-375.81C62.33,-366.07 51.31,-353.22 44,-340 24.01,-303.82 17,-292.34 17,-251 17,-251 17,-251 17,-177 17,-130.31 51.44,-85.84 76.73,-59.49"/>
<polygon fill="black" stroke="black" points="79.37,-61.8 83.91,-52.23 74.39,-56.88 79.37,-61.8"/>
<g id="a_edge6&#45;headlabel"><a xlink:href="dir_000026_000035.html" target="_top" xlink:title="4">
<text text-anchor="middle" x="78.86" y="-63.85" font-family="Helvetica,sans-Serif" font-size="10.00">4</text>
</a>
</g>
</g>
<!-- dir_07fb78a0b4d496699ca5c92e9ebaed68&#45;&gt;dir_dfdbda394c3f7a3aa55229f33a559c41 -->
<g id="edge7" class="edge">
<title>dir_07fb78a0b4d496699ca5c92e9ebaed68&#45;&gt;dir_dfdbda394c3f7a3aa55229f33a559c41</title>
<path fill="none" stroke="black" d="M90,-375.7C90,-367.98 90,-358.71 90,-350.11"/>
<polygon fill="black" stroke="black" points="93.5,-350.1 90,-340.1 86.5,-350.1 93.5,-350.1"/>
<g id="a_edge7&#45;headlabel"><a xlink:href="dir_000026_000016.html" target="_top" xlink:title="1">
<text text-anchor="middle" x="96.34" y="-351.2" font-family="Helvetica,sans-Serif" font-size="10.00">1</text>
</a>
</g>
</g>
<!-- dir_07fb78a0b4d496699ca5c92e9ebaed68&#45;&gt;dir_f88182c44268ef6b082d02d66ccc5f99 -->
<g id="edge8" class="edge">
<title>dir_07fb78a0b4d496699ca5c92e9ebaed68&#45;&gt;dir_f88182c44268ef6b082d02d66ccc5f99</title>
<path fill="none" stroke="black" d="M116.68,-375.86C146.87,-354.71 194.38,-315.63 214,-268 220.09,-253.21 220.86,-246.45 214,-232 207.67,-218.66 196.15,-207.58 184.56,-199.05"/>
<polygon fill="black" stroke="black" points="186.4,-196.07 176.17,-193.3 182.44,-201.84 186.4,-196.07"/>
<g id="a_edge8&#45;headlabel"><a xlink:href="dir_000026_000012.html" target="_top" xlink:title="1">
<text text-anchor="middle" x="190.97" y="-193.26" font-family="Helvetica,sans-Serif" font-size="10.00">1</text>
</a>
</g>
</g>
</g>
</svg>
