<?xml version="1.0" encoding="UTF-8" standalone="no"?>
<!DOCTYPE svg PUBLIC "-//W3C//DTD SVG 1.1//EN"
 "http://www.w3.org/Graphics/SVG/1.1/DTD/svg11.dtd">
<!-- Generated by graphviz version 2.43.0 (0)
 -->
<!-- Title: /home/runner/work/cbmc/cbmc/src/goto&#45;instrument/accelerate Pages: 1 -->
<svg width="354pt" height="439pt"
 viewBox="0.00 0.00 354.00 439.00" xmlns="http://www.w3.org/2000/svg" xmlns:xlink="http://www.w3.org/1999/xlink">
<g id="graph0" class="graph" transform="scale(1 1) rotate(0) translate(4 435)">
<title>/home/runner/work/cbmc/cbmc/src/goto&#45;instrument/accelerate</title>
<g id="clust1" class="cluster">
<title>clusterdir_4cd183c173ff5cfcfce420f655b591bf</title>
<g id="a_clust1"><a xlink:href="dir_4cd183c173ff5cfcfce420f655b591bf.html" target="_top" xlink:title="goto&#45;instrument">
<polygon fill="#ddddee" stroke="black" points="104,-352 104,-423 199,-423 199,-352 104,-352"/>
<text text-anchor="middle" x="151.5" y="-411" font-family="Helvetica,sans-Serif" font-size="10.00">goto&#45;instrument</text>
</a>
</g>
</g>
<!-- dir_6299ea566f0780fdfe4a304b3be6fd1f -->
<g id="node1" class="node">
<title>dir_6299ea566f0780fdfe4a304b3be6fd1f</title>
<g id="a_node1"><a xlink:href="dir_6299ea566f0780fdfe4a304b3be6fd1f.html" target="_top" xlink:title="accelerate">
<polygon fill="#eeeeff" stroke="black" points="185,-396 117,-396 117,-360 185,-360 185,-396"/>
<text text-anchor="middle" x="151" y="-375.5" font-family="Helvetica,sans-Serif" font-size="10.00">accelerate</text>
</a>
</g>
</g>
<!-- dir_19373f467389307dc54ab8a6e9e19559 -->
<g id="node2" class="node">
<title>dir_19373f467389307dc54ab8a6e9e19559</title>
<g id="a_node2"><a xlink:href="dir_19373f467389307dc54ab8a6e9e19559.html" target="_top" xlink:title="solvers">
<polygon fill="none" stroke="red" points="181,-108 127,-108 127,-72 181,-72 181,-108"/>
<text text-anchor="middle" x="154" y="-87.5" font-family="Helvetica,sans-Serif" font-size="10.00">solvers</text>
</a>
</g>
</g>
<!-- dir_6299ea566f0780fdfe4a304b3be6fd1f&#45;&gt;dir_19373f467389307dc54ab8a6e9e19559 -->
<g id="edge16" class="edge">
<title>dir_6299ea566f0780fdfe4a304b3be6fd1f&#45;&gt;dir_19373f467389307dc54ab8a6e9e19559</title>
<path fill="none" stroke="black" d="M128.84,-359.79C95.33,-331.5 37.6,-272.65 57,-216 70.81,-175.67 103.53,-138.29 127.15,-115.12"/>
<polygon fill="black" stroke="black" points="129.67,-117.55 134.47,-108.11 124.83,-112.5 129.67,-117.55"/>
<g id="a_edge16&#45;headlabel"><a xlink:href="dir_000046_000036.html" target="_top" xlink:title="4">
<text text-anchor="middle" x="129.04" y="-119.59" font-family="Helvetica,sans-Serif" font-size="10.00">4</text>
</a>
</g>
</g>
<!-- dir_807c5b2c83e0c14a10083f60cf67ca05 -->
<g id="node3" class="node">
<title>dir_807c5b2c83e0c14a10083f60cf67ca05</title>
<g id="a_node3"><a xlink:href="dir_807c5b2c83e0c14a10083f60cf67ca05.html" target="_top" xlink:title="goto&#45;programs">
<polygon fill="none" stroke="black" points="287.5,-324 198.5,-324 198.5,-288 287.5,-288 287.5,-324"/>
<text text-anchor="middle" x="243" y="-303.5" font-family="Helvetica,sans-Serif" font-size="10.00">goto&#45;programs</text>
</a>
</g>
</g>
<!-- dir_6299ea566f0780fdfe4a304b3be6fd1f&#45;&gt;dir_807c5b2c83e0c14a10083f60cf67ca05 -->
<g id="edge17" class="edge">
<title>dir_6299ea566f0780fdfe4a304b3be6fd1f&#45;&gt;dir_807c5b2c83e0c14a10083f60cf67ca05</title>
<path fill="none" stroke="black" d="M173.74,-359.7C185.44,-350.8 199.86,-339.82 212.51,-330.2"/>
<polygon fill="black" stroke="black" points="214.68,-332.94 220.52,-324.1 210.44,-327.37 214.68,-332.94"/>
<g id="a_edge17&#45;headlabel"><a xlink:href="dir_000046_000025.html" target="_top" xlink:title="25">
<text text-anchor="middle" x="213.54" y="-334.88" font-family="Helvetica,sans-Serif" font-size="10.00">25</text>
</a>
</g>
</g>
<!-- dir_99e24f80c4828e49b24e2d05c93d325b -->
<g id="node4" class="node">
<title>dir_99e24f80c4828e49b24e2d05c93d325b</title>
<g id="a_node4"><a xlink:href="dir_99e24f80c4828e49b24e2d05c93d325b.html" target="_top" xlink:title="goto&#45;symex">
<polygon fill="none" stroke="black" points="141.5,-252 66.5,-252 66.5,-216 141.5,-216 141.5,-252"/>
<text text-anchor="middle" x="104" y="-231.5" font-family="Helvetica,sans-Serif" font-size="10.00">goto&#45;symex</text>
</a>
</g>
</g>
<!-- dir_6299ea566f0780fdfe4a304b3be6fd1f&#45;&gt;dir_99e24f80c4828e49b24e2d05c93d325b -->
<g id="edge18" class="edge">
<title>dir_6299ea566f0780fdfe4a304b3be6fd1f&#45;&gt;dir_99e24f80c4828e49b24e2d05c93d325b</title>
<path fill="none" stroke="black" d="M145.33,-359.87C137.29,-335.56 122.48,-290.82 112.94,-262.01"/>
<polygon fill="black" stroke="black" points="116.15,-260.58 109.69,-252.19 109.51,-262.78 116.15,-260.58"/>
<g id="a_edge18&#45;headlabel"><a xlink:href="dir_000046_000026.html" target="_top" xlink:title="4">
<text text-anchor="middle" x="119.98" y="-260.6" font-family="Helvetica,sans-Serif" font-size="10.00">4</text>
</a>
</g>
</g>
<!-- dir_b7878ad5ecbf2506f4125b9d34c97e45 -->
<g id="node5" class="node">
<title>dir_b7878ad5ecbf2506f4125b9d34c97e45</title>
<g id="a_node5"><a xlink:href="dir_b7878ad5ecbf2506f4125b9d34c97e45.html" target="_top" xlink:title="util">
<polygon fill="none" stroke="black" points="208,-36 154,-36 154,0 208,0 208,-36"/>
<text text-anchor="middle" x="181" y="-15.5" font-family="Helvetica,sans-Serif" font-size="10.00">util</text>
</a>
</g>
</g>
<!-- dir_6299ea566f0780fdfe4a304b3be6fd1f&#45;&gt;dir_b7878ad5ecbf2506f4125b9d34c97e45 -->
<g id="edge19" class="edge">
<title>dir_6299ea566f0780fdfe4a304b3be6fd1f&#45;&gt;dir_b7878ad5ecbf2506f4125b9d34c97e45</title>
<path fill="none" stroke="black" d="M116.74,-362.98C72.18,-342.19 0,-298.7 0,-235 0,-235 0,-235 0,-161 0,-88.4 91.27,-47.3 144.18,-29.58"/>
<polygon fill="black" stroke="black" points="145.46,-32.84 153.9,-26.44 143.31,-26.18 145.46,-32.84"/>
<g id="a_edge19&#45;headlabel"><a xlink:href="dir_000046_000037.html" target="_top" xlink:title="36">
<text text-anchor="middle" x="142.91" y="-34.15" font-family="Helvetica,sans-Serif" font-size="10.00">36</text>
</a>
</g>
</g>
<!-- dir_ba7b98ca4ba342c6303fef7df3e3d6c7 -->
<g id="node6" class="node">
<title>dir_ba7b98ca4ba342c6303fef7df3e3d6c7</title>
<g id="a_node6"><a xlink:href="dir_ba7b98ca4ba342c6303fef7df3e3d6c7.html" target="_top" xlink:title="analyses">
<polygon fill="none" stroke="red" points="236,-180 176,-180 176,-144 236,-144 236,-180"/>
<text text-anchor="middle" x="206" y="-159.5" font-family="Helvetica,sans-Serif" font-size="10.00">analyses</text>
</a>
</g>
</g>
<!-- dir_6299ea566f0780fdfe4a304b3be6fd1f&#45;&gt;dir_ba7b98ca4ba342c6303fef7df3e3d6c7 -->
<g id="edge20" class="edge">
<title>dir_6299ea566f0780fdfe4a304b3be6fd1f&#45;&gt;dir_ba7b98ca4ba342c6303fef7df3e3d6c7</title>
<path fill="none" stroke="black" d="M155.41,-359.85C164.94,-322.75 187.54,-234.81 199.03,-190.1"/>
<polygon fill="black" stroke="black" points="202.47,-190.79 201.57,-180.23 195.69,-189.05 202.47,-190.79"/>
<g id="a_edge20&#45;headlabel"><a xlink:href="dir_000046_000011.html" target="_top" xlink:title="10">
<text text-anchor="middle" x="204.33" y="-192.48" font-family="Helvetica,sans-Serif" font-size="10.00">10</text>
</a>
</g>
</g>
<!-- dir_f88182c44268ef6b082d02d66ccc5f99 -->
<g id="node7" class="node">
<title>dir_f88182c44268ef6b082d02d66ccc5f99</title>
<g id="a_node7"><a xlink:href="dir_f88182c44268ef6b082d02d66ccc5f99.html" target="_top" xlink:title="ansi&#45;c">
<polygon fill="none" stroke="red" points="346,-252 292,-252 292,-216 346,-216 346,-252"/>
<text text-anchor="middle" x="319" y="-231.5" font-family="Helvetica,sans-Serif" font-size="10.00">ansi&#45;c</text>
</a>
</g>
</g>
<!-- dir_6299ea566f0780fdfe4a304b3be6fd1f&#45;&gt;dir_f88182c44268ef6b082d02d66ccc5f99 -->
<g id="edge21" class="edge">
<title>dir_6299ea566f0780fdfe4a304b3be6fd1f&#45;&gt;dir_f88182c44268ef6b082d02d66ccc5f99</title>
<path fill="none" stroke="black" d="M185.02,-373.76C218.33,-368.76 268.15,-356.08 297,-324 312.09,-307.22 317.21,-281.74 318.78,-262.33"/>
<polygon fill="black" stroke="black" points="322.28,-262.45 319.33,-252.27 315.29,-262.07 322.28,-262.45"/>
<g id="a_edge21&#45;headlabel"><a xlink:href="dir_000046_000012.html" target="_top" xlink:title="2">
<text text-anchor="middle" x="324.92" y="-263.69" font-family="Helvetica,sans-Serif" font-size="10.00">2</text>
</a>
</g>
</g>
<!-- dir_19373f467389307dc54ab8a6e9e19559&#45;&gt;dir_b7878ad5ecbf2506f4125b9d34c97e45 -->
<g id="edge1" class="edge">
<title>dir_19373f467389307dc54ab8a6e9e19559&#45;&gt;dir_b7878ad5ecbf2506f4125b9d34c97e45</title>
<path fill="none" stroke="black" d="M160.67,-71.7C163.71,-63.81 167.38,-54.3 170.76,-45.55"/>
<polygon fill="black" stroke="black" points="174.07,-46.69 174.4,-36.1 167.54,-44.17 174.07,-46.69"/>
<g id="a_edge1&#45;headlabel"><a xlink:href="dir_000036_000037.html" target="_top" xlink:title="436">
<text text-anchor="middle" x="175.42" y="-48.57" font-family="Helvetica,sans-Serif" font-size="10.00">436</text>
</a>
</g>
</g>
<!-- dir_807c5b2c83e0c14a10083f60cf67ca05&#45;&gt;dir_99e24f80c4828e49b24e2d05c93d325b -->
<g id="edge2" class="edge">
<title>dir_807c5b2c83e0c14a10083f60cf67ca05&#45;&gt;dir_99e24f80c4828e49b24e2d05c93d325b</title>
<path fill="none" stroke="black" d="M203.1,-287.88C183.61,-278.55 160.37,-266.92 141.25,-256.94"/>
<polygon fill="black" stroke="black" points="142.71,-253.75 132.23,-252.19 139.45,-259.95 142.71,-253.75"/>
<g id="a_edge2&#45;headlabel"><a xlink:href="dir_000025_000026.html" target="_top" xlink:title="2">
<text text-anchor="middle" x="147.21" y="-250.41" font-family="Helvetica,sans-Serif" font-size="10.00">2</text>
</a>
</g>
</g>
<!-- dir_807c5b2c83e0c14a10083f60cf67ca05&#45;&gt;dir_b7878ad5ecbf2506f4125b9d34c97e45 -->
<g id="edge3" class="edge">
<title>dir_807c5b2c83e0c14a10083f60cf67ca05&#45;&gt;dir_b7878ad5ecbf2506f4125b9d34c97e45</title>
<path fill="none" stroke="black" d="M246.11,-287.73C250.84,-257.88 258.03,-194.91 245,-144 235.62,-107.35 214.1,-69.2 198.6,-44.84"/>
<polygon fill="black" stroke="black" points="201.37,-42.69 192.99,-36.21 195.5,-46.5 201.37,-42.69"/>
<g id="a_edge3&#45;headlabel"><a xlink:href="dir_000025_000037.html" target="_top" xlink:title="396">
<text text-anchor="middle" x="205.71" y="-41.65" font-family="Helvetica,sans-Serif" font-size="10.00">396</text>
</a>
</g>
</g>
<!-- dir_807c5b2c83e0c14a10083f60cf67ca05&#45;&gt;dir_ba7b98ca4ba342c6303fef7df3e3d6c7 -->
<g id="edge4" class="edge">
<title>dir_807c5b2c83e0c14a10083f60cf67ca05&#45;&gt;dir_ba7b98ca4ba342c6303fef7df3e3d6c7</title>
<path fill="none" stroke="black" d="M233.95,-287.87C225.09,-263.67 213.21,-219.21 207.68,-190.39"/>
<polygon fill="black" stroke="black" points="211.06,-189.43 205.89,-180.19 204.17,-190.64 211.06,-189.43"/>
<g id="a_edge4&#45;headlabel"><a xlink:href="dir_000025_000011.html" target="_top" xlink:title="3">
<text text-anchor="middle" x="214.48" y="-189.98" font-family="Helvetica,sans-Serif" font-size="10.00">3</text>
</a>
</g>
</g>
<!-- dir_807c5b2c83e0c14a10083f60cf67ca05&#45;&gt;dir_f88182c44268ef6b082d02d66ccc5f99 -->
<g id="edge5" class="edge">
<title>dir_807c5b2c83e0c14a10083f60cf67ca05&#45;&gt;dir_f88182c44268ef6b082d02d66ccc5f99</title>
<path fill="none" stroke="black" d="M255.87,-287.7C264.45,-278.97 275.92,-268.24 286.78,-258.75"/>
<polygon fill="black" stroke="black" points="289.22,-261.27 294.53,-252.1 284.66,-255.96 289.22,-261.27"/>
<g id="a_edge5&#45;headlabel"><a xlink:href="dir_000025_000012.html" target="_top" xlink:title="5">
<text text-anchor="middle" x="288.34" y="-263.27" font-family="Helvetica,sans-Serif" font-size="10.00">5</text>
</a>
</g>
</g>
<!-- dir_99e24f80c4828e49b24e2d05c93d325b&#45;&gt;dir_19373f467389307dc54ab8a6e9e19559 -->
<g id="edge9" class="edge">
<title>dir_99e24f80c4828e49b24e2d05c93d325b&#45;&gt;dir_19373f467389307dc54ab8a6e9e19559</title>
<path fill="none" stroke="black" d="M110.03,-215.87C118.63,-191.46 134.48,-146.43 144.62,-117.64"/>
<polygon fill="black" stroke="black" points="147.93,-118.78 147.95,-108.19 141.32,-116.46 147.93,-118.78"/>
<g id="a_edge9&#45;headlabel"><a xlink:href="dir_000026_000036.html" target="_top" xlink:title="3">
<text text-anchor="middle" x="149.41" y="-120.62" font-family="Helvetica,sans-Serif" font-size="10.00">3</text>
</a>
</g>
</g>
<!-- dir_99e24f80c4828e49b24e2d05c93d325b&#45;&gt;dir_807c5b2c83e0c14a10083f60cf67ca05 -->
<g id="edge10" class="edge">
<title>dir_99e24f80c4828e49b24e2d05c93d325b&#45;&gt;dir_807c5b2c83e0c14a10083f60cf67ca05</title>
<path fill="none" stroke="black" d="M141.52,-250.99C161.49,-260.5 185.89,-272.69 205.8,-283.09"/>
<polygon fill="black" stroke="black" points="204.41,-286.31 214.89,-287.88 207.68,-280.12 204.41,-286.31"/>
<g id="a_edge10&#45;headlabel"><a xlink:href="dir_000026_000025.html" target="_top" xlink:title="6">
<text text-anchor="middle" x="199.91" y="-284.65" font-family="Helvetica,sans-Serif" font-size="10.00">6</text>
</a>
</g>
</g>
<!-- dir_99e24f80c4828e49b24e2d05c93d325b&#45;&gt;dir_b7878ad5ecbf2506f4125b9d34c97e45 -->
<g id="edge11" class="edge">
<title>dir_99e24f80c4828e49b24e2d05c93d325b&#45;&gt;dir_b7878ad5ecbf2506f4125b9d34c97e45</title>
<path fill="none" stroke="black" d="M101.41,-215.85C97.62,-185.08 93.43,-119.31 118,-72 124.41,-59.67 135.03,-49.06 145.75,-40.64"/>
<polygon fill="black" stroke="black" points="147.92,-43.39 153.89,-34.64 143.77,-37.76 147.92,-43.39"/>
<g id="a_edge11&#45;headlabel"><a xlink:href="dir_000026_000037.html" target="_top" xlink:title="189">
<text text-anchor="middle" x="146.71" y="-45.31" font-family="Helvetica,sans-Serif" font-size="10.00">189</text>
</a>
</g>
</g>
<!-- dir_99e24f80c4828e49b24e2d05c93d325b&#45;&gt;dir_ba7b98ca4ba342c6303fef7df3e3d6c7 -->
<g id="edge12" class="edge">
<title>dir_99e24f80c4828e49b24e2d05c93d325b&#45;&gt;dir_ba7b98ca4ba342c6303fef7df3e3d6c7</title>
<path fill="none" stroke="black" d="M128.95,-215.88C142.04,-206.89 158.26,-195.76 172.44,-186.03"/>
<polygon fill="black" stroke="black" points="174.69,-188.73 180.95,-180.19 170.73,-182.96 174.69,-188.73"/>
<g id="a_edge12&#45;headlabel"><a xlink:href="dir_000026_000011.html" target="_top" xlink:title="6">
<text text-anchor="middle" x="173.33" y="-190.61" font-family="Helvetica,sans-Serif" font-size="10.00">6</text>
</a>
</g>
</g>
<!-- dir_ba7b98ca4ba342c6303fef7df3e3d6c7&#45;&gt;dir_19373f467389307dc54ab8a6e9e19559 -->
<g id="edge13" class="edge">
<title>dir_ba7b98ca4ba342c6303fef7df3e3d6c7&#45;&gt;dir_19373f467389307dc54ab8a6e9e19559</title>
<path fill="none" stroke="black" d="M193.15,-143.7C186.97,-135.39 179.46,-125.28 172.68,-116.14"/>
<polygon fill="black" stroke="black" points="175.48,-114.04 166.71,-108.1 169.86,-118.22 175.48,-114.04"/>
<g id="a_edge13&#45;headlabel"><a xlink:href="dir_000011_000036.html" target="_top" xlink:title="2">
<text text-anchor="middle" x="179.9" y="-112.74" font-family="Helvetica,sans-Serif" font-size="10.00">2</text>
</a>
</g>
</g>
<!-- dir_ba7b98ca4ba342c6303fef7df3e3d6c7&#45;&gt;dir_807c5b2c83e0c14a10083f60cf67ca05 -->
<g id="edge14" class="edge">
<title>dir_ba7b98ca4ba342c6303fef7df3e3d6c7&#45;&gt;dir_807c5b2c83e0c14a10083f60cf67ca05</title>
<path fill="none" stroke="black" d="M215.07,-180.19C223.94,-204.42 235.81,-248.89 241.34,-277.68"/>
<polygon fill="black" stroke="black" points="237.95,-278.63 243.12,-287.87 244.84,-277.42 237.95,-278.63"/>
<g id="a_edge14&#45;headlabel"><a xlink:href="dir_000011_000025.html" target="_top" xlink:title="27">
<text text-anchor="middle" x="234.53" y="-273.08" font-family="Helvetica,sans-Serif" font-size="10.00">27</text>
</a>
</g>
</g>
<!-- dir_ba7b98ca4ba342c6303fef7df3e3d6c7&#45;&gt;dir_b7878ad5ecbf2506f4125b9d34c97e45 -->
<g id="edge15" class="edge">
<title>dir_ba7b98ca4ba342c6303fef7df3e3d6c7&#45;&gt;dir_b7878ad5ecbf2506f4125b9d34c97e45</title>
<path fill="none" stroke="black" d="M202.98,-143.87C198.72,-119.67 190.9,-75.21 185.82,-46.39"/>
<polygon fill="black" stroke="black" points="189.21,-45.43 184.03,-36.19 182.31,-46.64 189.21,-45.43"/>
<g id="a_edge15&#45;headlabel"><a xlink:href="dir_000011_000037.html" target="_top" xlink:title="189">
<text text-anchor="middle" x="192.63" y="-45.98" font-family="Helvetica,sans-Serif" font-size="10.00">189</text>
</a>
</g>
</g>
<!-- dir_f88182c44268ef6b082d02d66ccc5f99&#45;&gt;dir_807c5b2c83e0c14a10083f60cf67ca05 -->
<g id="edge6" class="edge">
<title>dir_f88182c44268ef6b082d02d66ccc5f99&#45;&gt;dir_807c5b2c83e0c14a10083f60cf67ca05</title>
<path fill="none" stroke="black" d="M306.32,-252.1C297.79,-260.8 286.33,-271.52 275.46,-281.03"/>
<polygon fill="black" stroke="black" points="273.01,-278.53 267.7,-287.7 277.57,-283.84 273.01,-278.53"/>
<g id="a_edge6&#45;headlabel"><a xlink:href="dir_000012_000025.html" target="_top" xlink:title="12">
<text text-anchor="middle" x="273.89" y="-271.53" font-family="Helvetica,sans-Serif" font-size="10.00">12</text>
</a>
</g>
</g>
<!-- dir_f88182c44268ef6b082d02d66ccc5f99&#45;&gt;dir_b7878ad5ecbf2506f4125b9d34c97e45 -->
<g id="edge7" class="edge">
<title>dir_f88182c44268ef6b082d02d66ccc5f99&#45;&gt;dir_b7878ad5ecbf2506f4125b9d34c97e45</title>
<path fill="none" stroke="black" d="M318.95,-215.8C318.01,-184.08 311.87,-115.63 278,-72 262.76,-52.37 238.12,-39.04 217.49,-30.66"/>
<polygon fill="black" stroke="black" points="218.63,-27.34 208.04,-27.04 216.13,-33.88 218.63,-27.34"/>
<g id="a_edge7&#45;headlabel"><a xlink:href="dir_000012_000037.html" target="_top" xlink:title="229">
<text text-anchor="middle" x="223" y="-23.48" font-family="Helvetica,sans-Serif" font-size="10.00">229</text>
</a>
</g>
</g>
<!-- dir_f88182c44268ef6b082d02d66ccc5f99&#45;&gt;dir_ba7b98ca4ba342c6303fef7df3e3d6c7 -->
<g id="edge8" class="edge">
<title>dir_f88182c44268ef6b082d02d66ccc5f99&#45;&gt;dir_ba7b98ca4ba342c6303fef7df3e3d6c7</title>
<path fill="none" stroke="black" d="M291.93,-216.23C277.06,-207.02 258.41,-195.47 242.29,-185.48"/>
<polygon fill="black" stroke="black" points="243.97,-182.41 233.63,-180.12 240.29,-188.36 243.97,-182.41"/>
<g id="a_edge8&#45;headlabel"><a xlink:href="dir_000012_000011.html" target="_top" xlink:title="1">
<text text-anchor="middle" x="248.53" y="-179.39" font-family="Helvetica,sans-Serif" font-size="10.00">1</text>
</a>
</g>
</g>
</g>
</svg>
