<?xml version="1.0" encoding="UTF-8" standalone="no"?>
<!DOCTYPE svg PUBLIC "-//W3C//DTD SVG 1.1//EN"
 "http://www.w3.org/Graphics/SVG/1.1/DTD/svg11.dtd">
<!-- Generated by graphviz version 2.43.0 (0)
 -->
<!-- Title: /home/runner/work/cbmc/cbmc/src/goto&#45;instrument/document_properties.cpp Pages: 1 -->
<svg width="1506pt" height="744pt"
 viewBox="0.00 0.00 1505.89 744.00" xmlns="http://www.w3.org/2000/svg" xmlns:xlink="http://www.w3.org/1999/xlink">
<g id="graph0" class="graph" transform="scale(1 1) rotate(0) translate(4 740)">
<title>/home/runner/work/cbmc/cbmc/src/goto&#45;instrument/document_properties.cpp</title>
<!-- Node1 -->
<g id="node1" class="node">
<title>Node1</title>
<g id="a_node1"><a xlink:title=" ">
<polygon fill="#bfbfbf" stroke="black" points="338.39,-694.5 338.39,-735.5 483.39,-735.5 483.39,-694.5 338.39,-694.5"/>
<text text-anchor="start" x="346.39" y="-723.5" font-family="Helvetica,sans-Serif" font-size="10.00">/home/runner/work/cbmc</text>
<text text-anchor="start" x="346.39" y="-712.5" font-family="Helvetica,sans-Serif" font-size="10.00">/cbmc/src/goto&#45;instrument</text>
<text text-anchor="middle" x="410.89" y="-701.5" font-family="Helvetica,sans-Serif" font-size="10.00">/document_properties.cpp</text>
</a>
</g>
</g>
<!-- Node2 -->
<g id="node2" class="node">
<title>Node2</title>
<g id="a_node2"><a xlink:href="document__properties_8h.html" target="_top" xlink:title=" ">
<polygon fill="none" stroke="black" points="694.39,-448.5 694.39,-467.5 823.39,-467.5 823.39,-448.5 694.39,-448.5"/>
<text text-anchor="middle" x="758.89" y="-455.5" font-family="Helvetica,sans-Serif" font-size="10.00">document_properties.h</text>
</a>
</g>
</g>
<!-- Node1&#45;&gt;Node2 -->
<g id="edge1" class="edge">
<title>Node1&#45;&gt;Node2</title>
<path fill="none" stroke="midnightblue" d="M470.29,-694.45C490.36,-685.68 511.75,-673.7 527.89,-658 583.03,-604.36 547.67,-553.1 606.89,-504 628.68,-485.93 657.5,-475.12 684.18,-468.64"/>
<polygon fill="midnightblue" stroke="midnightblue" points="685.29,-471.98 694.28,-466.37 683.76,-465.15 685.29,-471.98"/>
</g>
<!-- Node4 -->
<g id="node4" class="node">
<title>Node4</title>
<g id="a_node4"><a xlink:title=" ">
<polygon fill="none" stroke="#bfbfbf" points="332.39,-633 332.39,-652 387.39,-652 387.39,-633 332.39,-633"/>
<text text-anchor="middle" x="359.89" y="-640" font-family="Helvetica,sans-Serif" font-size="10.00">fstream</text>
</a>
</g>
</g>
<!-- Node1&#45;&gt;Node4 -->
<g id="edge3" class="edge">
<title>Node1&#45;&gt;Node4</title>
<path fill="none" stroke="midnightblue" d="M396.68,-694.36C388.93,-683.65 379.44,-670.52 372.03,-660.29"/>
<polygon fill="midnightblue" stroke="midnightblue" points="374.86,-658.22 366.16,-652.17 369.19,-662.33 374.86,-658.22"/>
</g>
<!-- Node5 -->
<g id="node5" class="node">
<title>Node5</title>
<g id="a_node5"><a xlink:href="string2int_8h.html" target="_top" xlink:title=" ">
<polygon fill="none" stroke="black" points="21.39,-168.5 21.39,-187.5 112.39,-187.5 112.39,-168.5 21.39,-168.5"/>
<text text-anchor="middle" x="66.89" y="-175.5" font-family="Helvetica,sans-Serif" font-size="10.00">util/string2int.h</text>
</a>
</g>
</g>
<!-- Node1&#45;&gt;Node5 -->
<g id="edge4" class="edge">
<title>Node1&#45;&gt;Node5</title>
<path fill="none" stroke="midnightblue" d="M338.14,-702.55C229.09,-683.3 35.89,-640.21 35.89,-576.5 35.89,-576.5 35.89,-576.5 35.89,-289 35.89,-255.41 49.45,-218.14 58.63,-196.75"/>
<polygon fill="midnightblue" stroke="midnightblue" points="61.83,-198.17 62.71,-187.61 55.44,-195.31 61.83,-198.17"/>
</g>
<!-- Node14 -->
<g id="node14" class="node">
<title>Node14</title>
<g id="a_node14"><a xlink:href="goto__model_8h.html" target="_top" xlink:title=" ">
<polygon fill="none" stroke="black" points="405.39,-627.5 405.39,-657.5 518.39,-657.5 518.39,-627.5 405.39,-627.5"/>
<text text-anchor="start" x="413.39" y="-645.5" font-family="Helvetica,sans-Serif" font-size="10.00">goto&#45;programs/goto</text>
<text text-anchor="middle" x="461.89" y="-634.5" font-family="Helvetica,sans-Serif" font-size="10.00">_model.h</text>
</a>
</g>
</g>
<!-- Node1&#45;&gt;Node14 -->
<g id="edge16" class="edge">
<title>Node1&#45;&gt;Node14</title>
<path fill="none" stroke="midnightblue" d="M425.09,-694.36C431.44,-685.59 438.95,-675.21 445.53,-666.12"/>
<polygon fill="midnightblue" stroke="midnightblue" points="448.45,-668.05 451.48,-657.89 442.78,-663.94 448.45,-668.05"/>
</g>
<!-- Node3 -->
<g id="node3" class="node">
<title>Node3</title>
<g id="a_node3"><a xlink:title=" ">
<polygon fill="none" stroke="#bfbfbf" points="751.89,-280.5 751.89,-299.5 799.89,-299.5 799.89,-280.5 751.89,-280.5"/>
<text text-anchor="middle" x="775.89" y="-287.5" font-family="Helvetica,sans-Serif" font-size="10.00">iosfwd</text>
</a>
</g>
</g>
<!-- Node2&#45;&gt;Node3 -->
<g id="edge2" class="edge">
<title>Node2&#45;&gt;Node3</title>
<path fill="none" stroke="midnightblue" d="M759.8,-448.08C762.48,-421.95 770.34,-345.21 773.99,-309.58"/>
<polygon fill="midnightblue" stroke="midnightblue" points="777.47,-309.87 775.01,-299.57 770.51,-309.16 777.47,-309.87"/>
</g>
<!-- Node6 -->
<g id="node6" class="node">
<title>Node6</title>
<g id="a_node6"><a xlink:href="narrow_8h.html" target="_top" xlink:title=" ">
<polygon fill="none" stroke="black" points="172.39,-112.5 172.39,-131.5 231.39,-131.5 231.39,-112.5 172.39,-112.5"/>
<text text-anchor="middle" x="201.89" y="-119.5" font-family="Helvetica,sans-Serif" font-size="10.00">narrow.h</text>
</a>
</g>
</g>
<!-- Node5&#45;&gt;Node6 -->
<g id="edge5" class="edge">
<title>Node5&#45;&gt;Node6</title>
<path fill="none" stroke="midnightblue" d="M88.28,-168.44C110.59,-159.52 145.79,-145.44 171.1,-135.32"/>
<polygon fill="midnightblue" stroke="midnightblue" points="172.61,-138.48 180.6,-131.52 170.01,-131.98 172.61,-138.48"/>
</g>
<!-- Node7 -->
<g id="node7" class="node">
<title>Node7</title>
<g id="a_node7"><a xlink:title=" ">
<polygon fill="none" stroke="#bfbfbf" points="52.39,-0.5 52.39,-19.5 121.39,-19.5 121.39,-0.5 52.39,-0.5"/>
<text text-anchor="middle" x="86.89" y="-7.5" font-family="Helvetica,sans-Serif" font-size="10.00">type_traits</text>
</a>
</g>
</g>
<!-- Node5&#45;&gt;Node7 -->
<g id="edge15" class="edge">
<title>Node5&#45;&gt;Node7</title>
<path fill="none" stroke="midnightblue" d="M66.58,-168.41C66.02,-148.48 65.5,-97.63 72.89,-56 74.48,-47.04 77.33,-37.37 80.05,-29.3"/>
<polygon fill="midnightblue" stroke="midnightblue" points="83.37,-30.4 83.42,-19.8 76.77,-28.05 83.37,-30.4"/>
</g>
<!-- Node11 -->
<g id="node11" class="node">
<title>Node11</title>
<g id="a_node11"><a xlink:title=" ">
<polygon fill="none" stroke="#bfbfbf" points="643.89,-0.5 643.89,-19.5 687.89,-19.5 687.89,-0.5 643.89,-0.5"/>
<text text-anchor="middle" x="665.89" y="-7.5" font-family="Helvetica,sans-Serif" font-size="10.00">string</text>
</a>
</g>
</g>
<!-- Node5&#45;&gt;Node11 -->
<g id="edge14" class="edge">
<title>Node5&#45;&gt;Node11</title>
<path fill="none" stroke="midnightblue" d="M77.16,-168.41C94.04,-154.68 129.15,-127.75 162.89,-112 328.35,-34.76 551.39,-16.46 633.67,-12.23"/>
<polygon fill="midnightblue" stroke="midnightblue" points="633.84,-15.73 643.66,-11.75 633.5,-8.74 633.84,-15.73"/>
</g>
<!-- Node12 -->
<g id="node12" class="node">
<title>Node12</title>
<g id="a_node12"><a xlink:href="optional_8h.html" target="_top" xlink:title=" ">
<polygon fill="none" stroke="black" points="392.39,-112.5 392.39,-131.5 457.39,-131.5 457.39,-112.5 392.39,-112.5"/>
<text text-anchor="middle" x="424.89" y="-119.5" font-family="Helvetica,sans-Serif" font-size="10.00">optional.h</text>
</a>
</g>
</g>
<!-- Node5&#45;&gt;Node12 -->
<g id="edge12" class="edge">
<title>Node5&#45;&gt;Node12</title>
<path fill="none" stroke="midnightblue" d="M112.59,-170.11C182.34,-159.59 314.37,-139.67 382.24,-129.43"/>
<polygon fill="midnightblue" stroke="midnightblue" points="382.81,-132.89 392.17,-127.93 381.76,-125.97 382.81,-132.89"/>
</g>
<!-- Node6&#45;&gt;Node7 -->
<g id="edge6" class="edge">
<title>Node6&#45;&gt;Node7</title>
<path fill="none" stroke="midnightblue" d="M192.86,-112.37C173.55,-93.89 127.97,-50.29 103.35,-26.74"/>
<polygon fill="midnightblue" stroke="midnightblue" points="105.52,-23.97 95.87,-19.59 100.68,-29.03 105.52,-23.97"/>
</g>
<!-- Node8 -->
<g id="node8" class="node">
<title>Node8</title>
<g id="a_node8"><a xlink:href="src_2util_2invariant_8h.html" target="_top" xlink:title=" ">
<polygon fill="none" stroke="black" points="758.39,-56.5 758.39,-75.5 827.39,-75.5 827.39,-56.5 758.39,-56.5"/>
<text text-anchor="middle" x="792.89" y="-63.5" font-family="Helvetica,sans-Serif" font-size="10.00">invariant.h</text>
</a>
</g>
</g>
<!-- Node6&#45;&gt;Node8 -->
<g id="edge7" class="edge">
<title>Node6&#45;&gt;Node8</title>
<path fill="none" stroke="midnightblue" d="M231.67,-113.5C234.44,-112.93 237.21,-112.42 239.89,-112 427.42,-82.34 654.01,-71.67 748.33,-68.34"/>
<polygon fill="midnightblue" stroke="midnightblue" points="748.5,-71.84 758.37,-67.99 748.26,-64.84 748.5,-71.84"/>
</g>
<!-- Node8&#45;&gt;Node7 -->
<g id="edge11" class="edge">
<title>Node8&#45;&gt;Node7</title>
<path fill="none" stroke="midnightblue" d="M758.36,-62.36C641.78,-53.44 262.76,-24.45 131.85,-14.44"/>
<polygon fill="midnightblue" stroke="midnightblue" points="132,-10.94 121.77,-13.67 131.47,-17.92 132,-10.94"/>
</g>
<!-- Node9 -->
<g id="node9" class="node">
<title>Node9</title>
<g id="a_node9"><a xlink:title=" ">
<polygon fill="none" stroke="#bfbfbf" points="732.39,-0.5 732.39,-19.5 781.39,-19.5 781.39,-0.5 732.39,-0.5"/>
<text text-anchor="middle" x="756.89" y="-7.5" font-family="Helvetica,sans-Serif" font-size="10.00">cstdlib</text>
</a>
</g>
</g>
<!-- Node8&#45;&gt;Node9 -->
<g id="edge8" class="edge">
<title>Node8&#45;&gt;Node9</title>
<path fill="none" stroke="midnightblue" d="M786.94,-56.08C781.91,-48.53 774.55,-37.49 768.37,-28.23"/>
<polygon fill="midnightblue" stroke="midnightblue" points="771.18,-26.13 762.72,-19.75 765.36,-30.01 771.18,-26.13"/>
</g>
<!-- Node10 -->
<g id="node10" class="node">
<title>Node10</title>
<g id="a_node10"><a xlink:title=" ">
<polygon fill="none" stroke="#bfbfbf" points="799.89,-0.5 799.89,-19.5 855.89,-19.5 855.89,-0.5 799.89,-0.5"/>
<text text-anchor="middle" x="827.89" y="-7.5" font-family="Helvetica,sans-Serif" font-size="10.00">sstream</text>
</a>
</g>
</g>
<!-- Node8&#45;&gt;Node10 -->
<g id="edge9" class="edge">
<title>Node8&#45;&gt;Node10</title>
<path fill="none" stroke="midnightblue" d="M798.67,-56.08C803.56,-48.53 810.71,-37.49 816.72,-28.23"/>
<polygon fill="midnightblue" stroke="midnightblue" points="819.71,-30.05 822.22,-19.75 813.84,-26.24 819.71,-30.05"/>
</g>
<!-- Node8&#45;&gt;Node11 -->
<g id="edge10" class="edge">
<title>Node8&#45;&gt;Node11</title>
<path fill="none" stroke="midnightblue" d="M772.76,-56.44C751.86,-47.56 718.95,-33.56 695.17,-23.45"/>
<polygon fill="midnightblue" stroke="midnightblue" points="696.49,-20.21 685.92,-19.52 693.75,-26.65 696.49,-20.21"/>
</g>
<!-- Node13 -->
<g id="node13" class="node">
<title>Node13</title>
<g id="a_node13"><a xlink:title=" ">
<polygon fill="none" stroke="#bfbfbf" points="368.39,-56.5 368.39,-75.5 481.39,-75.5 481.39,-56.5 368.39,-56.5"/>
<text text-anchor="middle" x="424.89" y="-63.5" font-family="Helvetica,sans-Serif" font-size="10.00">nonstd/optional.hpp</text>
</a>
</g>
</g>
<!-- Node12&#45;&gt;Node13 -->
<g id="edge13" class="edge">
<title>Node12&#45;&gt;Node13</title>
<path fill="none" stroke="midnightblue" d="M424.89,-112.08C424.89,-105.01 424.89,-94.86 424.89,-85.99"/>
<polygon fill="midnightblue" stroke="midnightblue" points="428.39,-85.75 424.89,-75.75 421.39,-85.75 428.39,-85.75"/>
</g>
<!-- Node15 -->
<g id="node15" class="node">
<title>Node15</title>
<g id="a_node15"><a xlink:href="symbol__table_8h.html" target="_top" xlink:title="Author: Diffblue Ltd.">
<polygon fill="none" stroke="black" points="322.89,-504.5 322.89,-523.5 432.89,-523.5 432.89,-504.5 322.89,-504.5"/>
<text text-anchor="middle" x="377.89" y="-511.5" font-family="Helvetica,sans-Serif" font-size="10.00">util/symbol_table.h</text>
</a>
</g>
</g>
<!-- Node14&#45;&gt;Node15 -->
<g id="edge17" class="edge">
<title>Node14&#45;&gt;Node15</title>
<path fill="none" stroke="midnightblue" d="M461.61,-627.31C460.64,-610.01 456.86,-580.54 442.89,-560 433.82,-546.67 419.39,-536.09 406.42,-528.55"/>
<polygon fill="midnightblue" stroke="midnightblue" points="407.79,-525.32 397.34,-523.61 404.44,-531.46 407.79,-525.32"/>
</g>
<!-- Node44 -->
<g id="node30" class="node">
<title>Node44</title>
<g id="a_node30"><a xlink:href="journalling__symbol__table_8h.html" target="_top" xlink:title="Author: Diffblue Ltd.">
<polygon fill="none" stroke="black" points="604.89,-560.5 604.89,-590.5 732.89,-590.5 732.89,-560.5 604.89,-560.5"/>
<text text-anchor="start" x="612.89" y="-578.5" font-family="Helvetica,sans-Serif" font-size="10.00">util/journalling_symbol</text>
<text text-anchor="middle" x="668.89" y="-567.5" font-family="Helvetica,sans-Serif" font-size="10.00">_table.h</text>
</a>
</g>
</g>
<!-- Node14&#45;&gt;Node44 -->
<g id="edge42" class="edge">
<title>Node14&#45;&gt;Node44</title>
<path fill="none" stroke="midnightblue" d="M506.55,-627.48C538.14,-617.56 580.67,-604.2 614.28,-593.65"/>
<polygon fill="midnightblue" stroke="midnightblue" points="615.46,-596.95 623.95,-590.61 613.36,-590.27 615.46,-596.95"/>
</g>
<!-- Node47 -->
<g id="node33" class="node">
<title>Node47</title>
<g id="a_node33"><a xlink:href="abstract__goto__model_8h.html" target="_top" xlink:title=" ">
<polygon fill="none" stroke="black" points="305.89,-566 305.89,-585 433.89,-585 433.89,-566 305.89,-566"/>
<text text-anchor="middle" x="369.89" y="-573" font-family="Helvetica,sans-Serif" font-size="10.00">abstract_goto_model.h</text>
</a>
</g>
</g>
<!-- Node14&#45;&gt;Node47 -->
<g id="edge47" class="edge">
<title>Node14&#45;&gt;Node47</title>
<path fill="none" stroke="midnightblue" d="M441.92,-627.4C426.64,-616.6 405.64,-601.76 390.25,-590.89"/>
<polygon fill="midnightblue" stroke="midnightblue" points="392.12,-587.92 381.93,-585.01 388.08,-593.64 392.12,-587.92"/>
</g>
<!-- Node48 -->
<g id="node34" class="node">
<title>Node48</title>
<g id="a_node34"><a xlink:href="goto__functions_8h.html" target="_top" xlink:title=" ">
<polygon fill="none" stroke="black" points="450.89,-504.5 450.89,-523.5 548.89,-523.5 548.89,-504.5 450.89,-504.5"/>
<text text-anchor="middle" x="499.89" y="-511.5" font-family="Helvetica,sans-Serif" font-size="10.00">goto_functions.h</text>
</a>
</g>
</g>
<!-- Node14&#45;&gt;Node48 -->
<g id="edge81" class="edge">
<title>Node14&#45;&gt;Node48</title>
<path fill="none" stroke="midnightblue" d="M466.1,-627.48C473,-604.51 486.7,-558.89 494.37,-533.37"/>
<polygon fill="midnightblue" stroke="midnightblue" points="497.72,-534.37 497.25,-523.79 491.02,-532.36 497.72,-534.37"/>
</g>
<!-- Node64 -->
<g id="node46" class="node">
<title>Node64</title>
<g id="a_node46"><a xlink:href="validate__goto__model_8h.html" target="_top" xlink:title=" ">
<polygon fill="none" stroke="black" points="176.89,-504.5 176.89,-523.5 304.89,-523.5 304.89,-504.5 176.89,-504.5"/>
<text text-anchor="middle" x="240.89" y="-511.5" font-family="Helvetica,sans-Serif" font-size="10.00">validate_goto_model.h</text>
</a>
</g>
</g>
<!-- Node14&#45;&gt;Node64 -->
<g id="edge82" class="edge">
<title>Node14&#45;&gt;Node64</title>
<path fill="none" stroke="midnightblue" d="M405.3,-628.23C364.84,-617.99 314.55,-603.51 296.89,-591 275.54,-575.87 259.03,-550.05 249.64,-532.76"/>
<polygon fill="midnightblue" stroke="midnightblue" points="252.66,-530.98 244.94,-523.71 246.44,-534.2 252.66,-530.98"/>
</g>
<!-- Node16 -->
<g id="node16" class="node">
<title>Node16</title>
<g id="a_node16"><a xlink:href="symbol__table__base_8h.html" target="_top" xlink:title="Author: Diffblue Ltd.">
<polygon fill="none" stroke="black" points="302.89,-392.5 302.89,-411.5 422.89,-411.5 422.89,-392.5 302.89,-392.5"/>
<text text-anchor="middle" x="362.89" y="-399.5" font-family="Helvetica,sans-Serif" font-size="10.00">symbol_table_base.h</text>
</a>
</g>
</g>
<!-- Node15&#45;&gt;Node16 -->
<g id="edge18" class="edge">
<title>Node15&#45;&gt;Node16</title>
<path fill="none" stroke="midnightblue" d="M376.71,-504.37C374.29,-486.62 368.71,-445.67 365.42,-421.6"/>
<polygon fill="midnightblue" stroke="midnightblue" points="368.88,-421.03 364.06,-411.59 361.94,-421.97 368.88,-421.03"/>
</g>
<!-- Node17 -->
<g id="node17" class="node">
<title>Node17</title>
<g id="a_node17"><a xlink:title=" ">
<polygon fill="none" stroke="#bfbfbf" points="223.89,-336.5 223.89,-355.5 261.89,-355.5 261.89,-336.5 223.89,-336.5"/>
<text text-anchor="middle" x="242.89" y="-343.5" font-family="Helvetica,sans-Serif" font-size="10.00">map</text>
</a>
</g>
</g>
<!-- Node16&#45;&gt;Node17 -->
<g id="edge19" class="edge">
<title>Node16&#45;&gt;Node17</title>
<path fill="none" stroke="midnightblue" d="M343.87,-392.44C324.3,-383.64 293.58,-369.81 271.16,-359.72"/>
<polygon fill="midnightblue" stroke="midnightblue" points="272.37,-356.43 261.81,-355.52 269.5,-362.81 272.37,-356.43"/>
</g>
<!-- Node18 -->
<g id="node18" class="node">
<title>Node18</title>
<g id="a_node18"><a xlink:title=" ">
<polygon fill="none" stroke="#bfbfbf" points="280.39,-336.5 280.39,-355.5 373.39,-355.5 373.39,-336.5 280.39,-336.5"/>
<text text-anchor="middle" x="326.89" y="-343.5" font-family="Helvetica,sans-Serif" font-size="10.00">unordered_map</text>
</a>
</g>
</g>
<!-- Node16&#45;&gt;Node18 -->
<g id="edge20" class="edge">
<title>Node16&#45;&gt;Node18</title>
<path fill="none" stroke="midnightblue" d="M356.94,-392.08C351.91,-384.53 344.55,-373.49 338.37,-364.23"/>
<polygon fill="midnightblue" stroke="midnightblue" points="341.18,-362.13 332.72,-355.75 335.36,-366.01 341.18,-362.13"/>
</g>
<!-- Node19 -->
<g id="node19" class="node">
<title>Node19</title>
<g id="a_node19"><a xlink:href="symbol_8h.html" target="_top" xlink:title="Symbol table entry.">
<polygon fill="none" stroke="black" points="559.89,-336.5 559.89,-355.5 621.89,-355.5 621.89,-336.5 559.89,-336.5"/>
<text text-anchor="middle" x="590.89" y="-343.5" font-family="Helvetica,sans-Serif" font-size="10.00">symbol.h</text>
</a>
</g>
</g>
<!-- Node16&#45;&gt;Node19 -->
<g id="edge21" class="edge">
<title>Node16&#45;&gt;Node19</title>
<path fill="none" stroke="midnightblue" d="M399.01,-392.44C440.05,-382.72 506.87,-366.9 549.84,-356.72"/>
<polygon fill="midnightblue" stroke="midnightblue" points="550.77,-360.1 559.69,-354.39 549.15,-353.29 550.77,-360.1"/>
</g>
<!-- Node19&#45;&gt;Node3 -->
<g id="edge22" class="edge">
<title>Node19&#45;&gt;Node3</title>
<path fill="none" stroke="midnightblue" d="M620.2,-336.44C653.31,-326.78 707.09,-311.08 741.98,-300.9"/>
<polygon fill="midnightblue" stroke="midnightblue" points="743.1,-304.22 751.72,-298.05 741.14,-297.5 743.1,-304.22"/>
</g>
<!-- Node19&#45;&gt;Node8 -->
<g id="edge41" class="edge">
<title>Node19&#45;&gt;Node8</title>
<path fill="none" stroke="midnightblue" d="M597.23,-336.38C603.88,-327.33 614.64,-312.68 623.89,-300 682.52,-219.6 752.19,-123.31 780.25,-84.49"/>
<polygon fill="midnightblue" stroke="midnightblue" points="783.44,-86.06 786.46,-75.9 777.76,-81.95 783.44,-86.06"/>
</g>
<!-- Node20 -->
<g id="node20" class="node">
<title>Node20</title>
<g id="a_node20"><a xlink:href="expr_8h.html" target="_top" xlink:title=" ">
<polygon fill="none" stroke="black" points="416.39,-280.5 416.39,-299.5 463.39,-299.5 463.39,-280.5 416.39,-280.5"/>
<text text-anchor="middle" x="439.89" y="-287.5" font-family="Helvetica,sans-Serif" font-size="10.00">expr.h</text>
</a>
</g>
</g>
<!-- Node19&#45;&gt;Node20 -->
<g id="edge23" class="edge">
<title>Node19&#45;&gt;Node20</title>
<path fill="none" stroke="midnightblue" d="M566.96,-336.44C541.67,-327.4 501.59,-313.06 473.21,-302.92"/>
<polygon fill="midnightblue" stroke="midnightblue" points="474.3,-299.59 463.7,-299.52 471.94,-306.18 474.3,-299.59"/>
</g>
<!-- Node21 -->
<g id="node21" class="node">
<title>Node21</title>
<g id="a_node21"><a xlink:href="as__const_8h.html" target="_top" xlink:title=" ">
<polygon fill="none" stroke="black" points="243.89,-224.5 243.89,-243.5 311.89,-243.5 311.89,-224.5 243.89,-224.5"/>
<text text-anchor="middle" x="277.89" y="-231.5" font-family="Helvetica,sans-Serif" font-size="10.00">as_const.h</text>
</a>
</g>
</g>
<!-- Node20&#45;&gt;Node21 -->
<g id="edge24" class="edge">
<title>Node20&#45;&gt;Node21</title>
<path fill="none" stroke="midnightblue" d="M416.33,-281.15C389.25,-272.12 344.52,-257.21 313.25,-246.79"/>
<polygon fill="midnightblue" stroke="midnightblue" points="314.21,-243.42 303.61,-243.58 311.99,-250.06 314.21,-243.42"/>
</g>
<!-- Node22 -->
<g id="node22" class="node">
<title>Node22</title>
<g id="a_node22"><a xlink:href="type_8h.html" target="_top" xlink:title=" ">
<polygon fill="none" stroke="black" points="178.39,-224.5 178.39,-243.5 225.39,-243.5 225.39,-224.5 178.39,-224.5"/>
<text text-anchor="middle" x="201.89" y="-231.5" font-family="Helvetica,sans-Serif" font-size="10.00">type.h</text>
</a>
</g>
</g>
<!-- Node20&#45;&gt;Node22 -->
<g id="edge25" class="edge">
<title>Node20&#45;&gt;Node22</title>
<path fill="none" stroke="midnightblue" d="M416.12,-284.19C379.55,-276.7 307.07,-261.5 235.7,-244.1"/>
<polygon fill="midnightblue" stroke="midnightblue" points="236.19,-240.62 225.64,-241.63 234.52,-247.42 236.19,-240.62"/>
</g>
<!-- Node40 -->
<g id="node26" class="node">
<title>Node40</title>
<g id="a_node26"><a xlink:href="validation__mode_8h.html" target="_top" xlink:title=" ">
<polygon fill="none" stroke="black" points="249.39,-112.5 249.39,-131.5 356.39,-131.5 356.39,-112.5 249.39,-112.5"/>
<text text-anchor="middle" x="302.89" y="-119.5" font-family="Helvetica,sans-Serif" font-size="10.00">validation_mode.h</text>
</a>
</g>
</g>
<!-- Node20&#45;&gt;Node40 -->
<g id="edge39" class="edge">
<title>Node20&#45;&gt;Node40</title>
<path fill="none" stroke="midnightblue" d="M460.76,-280.43C485.12,-269.1 520.34,-247.77 505.89,-224 474.71,-172.71 408.64,-146.68 360.32,-134.03"/>
<polygon fill="midnightblue" stroke="midnightblue" points="361.15,-130.63 350.6,-131.6 359.45,-137.42 361.15,-130.63"/>
</g>
<!-- Node41 -->
<g id="node27" class="node">
<title>Node41</title>
<g id="a_node27"><a xlink:href="validate__types_8h.html" target="_top" xlink:title=" ">
<polygon fill="none" stroke="black" points="290.89,-168.5 290.89,-187.5 388.89,-187.5 388.89,-168.5 290.89,-168.5"/>
<text text-anchor="middle" x="339.89" y="-175.5" font-family="Helvetica,sans-Serif" font-size="10.00">validate_types.h</text>
</a>
</g>
</g>
<!-- Node20&#45;&gt;Node41 -->
<g id="edge38" class="edge">
<title>Node20&#45;&gt;Node41</title>
<path fill="none" stroke="midnightblue" d="M416.37,-281.52C398.16,-274.57 373.65,-262.48 358.89,-244 348.23,-230.66 343.55,-211.55 341.5,-197.5"/>
<polygon fill="midnightblue" stroke="midnightblue" points="344.97,-197.06 340.35,-187.52 338.02,-197.86 344.97,-197.06"/>
</g>
<!-- Node42 -->
<g id="node28" class="node">
<title>Node42</title>
<g id="a_node28"><a xlink:href="validate__expressions_8h.html" target="_top" xlink:title=" ">
<polygon fill="none" stroke="black" points="368.39,-224.5 368.39,-243.5 497.39,-243.5 497.39,-224.5 368.39,-224.5"/>
<text text-anchor="middle" x="432.89" y="-231.5" font-family="Helvetica,sans-Serif" font-size="10.00">validate_expressions.h</text>
</a>
</g>
</g>
<!-- Node20&#45;&gt;Node42 -->
<g id="edge37" class="edge">
<title>Node20&#45;&gt;Node42</title>
<path fill="none" stroke="midnightblue" d="M438.73,-280.08C437.8,-272.93 436.47,-262.64 435.31,-253.69"/>
<polygon fill="midnightblue" stroke="midnightblue" points="438.78,-253.22 434.02,-243.75 431.84,-254.12 438.78,-253.22"/>
</g>
<!-- Node43 -->
<g id="node29" class="node">
<title>Node43</title>
<g id="a_node29"><a xlink:title=" ">
<polygon fill="none" stroke="#bfbfbf" points="554.39,-224.5 554.39,-243.5 619.39,-243.5 619.39,-224.5 554.39,-224.5"/>
<text text-anchor="middle" x="586.89" y="-231.5" font-family="Helvetica,sans-Serif" font-size="10.00">functional</text>
</a>
</g>
</g>
<!-- Node20&#45;&gt;Node43 -->
<g id="edge40" class="edge">
<title>Node20&#45;&gt;Node43</title>
<path fill="none" stroke="midnightblue" d="M463.18,-280.44C487.69,-271.44 526.48,-257.19 554.09,-247.05"/>
<polygon fill="midnightblue" stroke="midnightblue" points="555.52,-250.25 563.7,-243.52 553.11,-243.68 555.52,-250.25"/>
</g>
<!-- Node23 -->
<g id="node23" class="node">
<title>Node23</title>
<g id="a_node23"><a xlink:href="source__location_8h.html" target="_top" xlink:title=" ">
<polygon fill="none" stroke="black" points="555.89,-168.5 555.89,-187.5 657.89,-187.5 657.89,-168.5 555.89,-168.5"/>
<text text-anchor="middle" x="606.89" y="-175.5" font-family="Helvetica,sans-Serif" font-size="10.00">source_location.h</text>
</a>
</g>
</g>
<!-- Node22&#45;&gt;Node23 -->
<g id="edge26" class="edge">
<title>Node22&#45;&gt;Node23</title>
<path fill="none" stroke="midnightblue" d="M225.58,-226.09C228.7,-225.32 231.86,-224.59 234.89,-224 343.27,-202.78 471.5,-189.92 545.59,-183.66"/>
<polygon fill="midnightblue" stroke="midnightblue" points="546,-187.13 555.67,-182.82 545.42,-180.16 546,-187.13"/>
</g>
<!-- Node38 -->
<g id="node25" class="node">
<title>Node38</title>
<g id="a_node25"><a xlink:href="validate_8h.html" target="_top" xlink:title=" ">
<polygon fill="none" stroke="red" points="169.39,-168.5 169.39,-187.5 234.39,-187.5 234.39,-168.5 169.39,-168.5"/>
<text text-anchor="middle" x="201.89" y="-175.5" font-family="Helvetica,sans-Serif" font-size="10.00">validate.h</text>
</a>
</g>
</g>
<!-- Node22&#45;&gt;Node38 -->
<g id="edge32" class="edge">
<title>Node22&#45;&gt;Node38</title>
<path fill="none" stroke="midnightblue" d="M201.89,-224.08C201.89,-217.01 201.89,-206.86 201.89,-197.99"/>
<polygon fill="midnightblue" stroke="midnightblue" points="205.39,-197.75 201.89,-187.75 198.39,-197.75 205.39,-197.75"/>
</g>
<!-- Node22&#45;&gt;Node40 -->
<g id="edge36" class="edge">
<title>Node22&#45;&gt;Node40</title>
<path fill="none" stroke="midnightblue" d="M209.81,-224.37C226.7,-205.97 266.46,-162.67 288.15,-139.05"/>
<polygon fill="midnightblue" stroke="midnightblue" points="290.81,-141.32 295,-131.59 285.66,-136.59 290.81,-141.32"/>
</g>
<!-- Node22&#45;&gt;Node41 -->
<g id="edge35" class="edge">
<title>Node22&#45;&gt;Node41</title>
<path fill="none" stroke="midnightblue" d="M223.75,-224.44C246.67,-215.48 282.86,-201.31 308.75,-191.18"/>
<polygon fill="midnightblue" stroke="midnightblue" points="310.09,-194.42 318.12,-187.52 307.54,-187.9 310.09,-194.42"/>
</g>
<!-- Node23&#45;&gt;Node11 -->
<g id="edge31" class="edge">
<title>Node23&#45;&gt;Node11</title>
<path fill="none" stroke="midnightblue" d="M610.06,-168.08C619.39,-141.83 646.86,-64.55 659.45,-29.12"/>
<polygon fill="midnightblue" stroke="midnightblue" points="662.79,-30.16 662.84,-19.57 656.2,-27.82 662.79,-30.16"/>
</g>
<!-- Node23&#45;&gt;Node12 -->
<g id="edge30" class="edge">
<title>Node23&#45;&gt;Node12</title>
<path fill="none" stroke="midnightblue" d="M578.05,-168.44C547.03,-159.24 497.56,-144.56 463.27,-134.39"/>
<polygon fill="midnightblue" stroke="midnightblue" points="464.17,-131.01 453.59,-131.52 462.18,-137.72 464.17,-131.01"/>
</g>
<!-- Node24 -->
<g id="node24" class="node">
<title>Node24</title>
<g id="a_node24"><a xlink:href="irep_8h.html" target="_top" xlink:title=" ">
<polygon fill="none" stroke="red" points="827.89,-112.5 827.89,-131.5 871.89,-131.5 871.89,-112.5 827.89,-112.5"/>
<text text-anchor="middle" x="849.89" y="-119.5" font-family="Helvetica,sans-Serif" font-size="10.00">irep.h</text>
</a>
</g>
</g>
<!-- Node23&#45;&gt;Node24 -->
<g id="edge27" class="edge">
<title>Node23&#45;&gt;Node24</title>
<path fill="none" stroke="midnightblue" d="M645.39,-168.44C692.97,-157.87 773.06,-140.07 817.58,-130.18"/>
<polygon fill="midnightblue" stroke="midnightblue" points="818.57,-133.55 827.57,-127.96 817.05,-126.71 818.57,-133.55"/>
</g>
<!-- Node24&#45;&gt;Node8 -->
<g id="edge29" class="edge">
<title>Node24&#45;&gt;Node8</title>
<path fill="none" stroke="midnightblue" d="M840.73,-112.32C832.39,-104.42 819.86,-92.55 809.71,-82.94"/>
<polygon fill="midnightblue" stroke="midnightblue" points="811.88,-80.17 802.21,-75.83 807.06,-85.25 811.88,-80.17"/>
</g>
<!-- Node24&#45;&gt;Node11 -->
<g id="edge28" class="edge">
<title>Node24&#45;&gt;Node11</title>
<path fill="none" stroke="midnightblue" d="M850.83,-112.13C851.77,-98.25 851.41,-71.41 836.89,-56 827.3,-45.82 744.72,-27.33 697.92,-17.52"/>
<polygon fill="midnightblue" stroke="midnightblue" points="698.47,-14.06 687.96,-15.45 697.04,-20.91 698.47,-14.06"/>
</g>
<!-- Node38&#45;&gt;Node7 -->
<g id="edge33" class="edge">
<title>Node38&#45;&gt;Node7</title>
<path fill="none" stroke="midnightblue" d="M193.7,-168.37C185.51,-159.55 172.73,-145.29 162.89,-132 136.79,-96.76 110.5,-52.5 96.73,-28.48"/>
<polygon fill="midnightblue" stroke="midnightblue" points="99.61,-26.47 91.62,-19.5 93.52,-29.93 99.61,-26.47"/>
</g>
<!-- Node38&#45;&gt;Node40 -->
<g id="edge34" class="edge">
<title>Node38&#45;&gt;Node40</title>
<path fill="none" stroke="midnightblue" d="M218.11,-168.32C234.24,-159.7 259.19,-146.36 277.85,-136.39"/>
<polygon fill="midnightblue" stroke="midnightblue" points="279.53,-139.46 286.7,-131.65 276.23,-133.28 279.53,-139.46"/>
</g>
<!-- Node44&#45;&gt;Node15 -->
<g id="edge46" class="edge">
<title>Node44&#45;&gt;Node15</title>
<path fill="none" stroke="midnightblue" d="M604.67,-561.37C552.01,-550.6 478.43,-535.56 429.53,-525.56"/>
<polygon fill="midnightblue" stroke="midnightblue" points="429.99,-522.08 419.49,-523.51 428.58,-528.94 429.99,-522.08"/>
</g>
<!-- Node44&#45;&gt;Node24 -->
<g id="edge45" class="edge">
<title>Node44&#45;&gt;Node24</title>
<path fill="none" stroke="midnightblue" d="M714.78,-560.37C755.25,-545.04 811.07,-516.07 832.89,-468 859.6,-409.14 853.38,-204.75 850.75,-141.68"/>
<polygon fill="midnightblue" stroke="midnightblue" points="854.24,-141.45 850.31,-131.62 847.25,-141.76 854.24,-141.45"/>
</g>
<!-- Node45 -->
<g id="node31" class="node">
<title>Node45</title>
<g id="a_node31"><a xlink:title=" ">
<polygon fill="none" stroke="#bfbfbf" points="720.39,-504.5 720.39,-523.5 765.39,-523.5 765.39,-504.5 720.39,-504.5"/>
<text text-anchor="middle" x="742.89" y="-511.5" font-family="Helvetica,sans-Serif" font-size="10.00">utility</text>
</a>
</g>
</g>
<!-- Node44&#45;&gt;Node45 -->
<g id="edge43" class="edge">
<title>Node44&#45;&gt;Node45</title>
<path fill="none" stroke="midnightblue" d="M686.42,-560.4C697.73,-551.31 712.43,-539.49 723.99,-530.19"/>
<polygon fill="midnightblue" stroke="midnightblue" points="726.52,-532.65 732.12,-523.66 722.13,-527.2 726.52,-532.65"/>
</g>
<!-- Node46 -->
<g id="node32" class="node">
<title>Node46</title>
<g id="a_node32"><a xlink:title=" ">
<polygon fill="none" stroke="#bfbfbf" points="615.89,-504.5 615.89,-523.5 701.89,-523.5 701.89,-504.5 615.89,-504.5"/>
<text text-anchor="middle" x="658.89" y="-511.5" font-family="Helvetica,sans-Serif" font-size="10.00">unordered_set</text>
</a>
</g>
</g>
<!-- Node44&#45;&gt;Node46 -->
<g id="edge44" class="edge">
<title>Node44&#45;&gt;Node46</title>
<path fill="none" stroke="midnightblue" d="M666.52,-560.4C665.17,-552.38 663.46,-542.23 662.01,-533.57"/>
<polygon fill="midnightblue" stroke="midnightblue" points="665.45,-532.94 660.34,-523.66 658.55,-534.1 665.45,-532.94"/>
</g>
<!-- Node47&#45;&gt;Node15 -->
<g id="edge80" class="edge">
<title>Node47&#45;&gt;Node15</title>
<path fill="none" stroke="midnightblue" d="M371.03,-565.98C372.16,-557.58 373.92,-544.48 375.38,-533.66"/>
<polygon fill="midnightblue" stroke="midnightblue" points="378.88,-533.89 376.74,-523.51 371.94,-532.95 378.88,-533.89"/>
</g>
<!-- Node47&#45;&gt;Node48 -->
<g id="edge48" class="edge">
<title>Node47&#45;&gt;Node48</title>
<path fill="none" stroke="midnightblue" d="M388.51,-565.98C410.33,-555.99 446.69,-539.35 471.9,-527.81"/>
<polygon fill="midnightblue" stroke="midnightblue" points="473.66,-530.85 481.3,-523.51 470.75,-524.49 473.66,-530.85"/>
</g>
<!-- Node47&#45;&gt;Node64 -->
<g id="edge78" class="edge">
<title>Node47&#45;&gt;Node64</title>
<path fill="none" stroke="midnightblue" d="M351.4,-565.98C329.76,-555.99 293.67,-539.35 268.66,-527.81"/>
<polygon fill="midnightblue" stroke="midnightblue" points="269.88,-524.52 259.34,-523.51 266.95,-530.88 269.88,-524.52"/>
</g>
<!-- Node48&#45;&gt;Node17 -->
<g id="edge77" class="edge">
<title>Node48&#45;&gt;Node17</title>
<path fill="none" stroke="midnightblue" d="M473.68,-504.47C432.35,-490.12 350.84,-458.12 293.89,-412 277.22,-398.5 262.63,-378.6 253.37,-364.38"/>
<polygon fill="midnightblue" stroke="midnightblue" points="256.13,-362.2 247.85,-355.59 250.2,-365.92 256.13,-362.2"/>
</g>
<!-- Node49 -->
<g id="node35" class="node">
<title>Node49</title>
<g id="a_node35"><a xlink:href="goto__function_8h.html" target="_top" xlink:title=" ">
<polygon fill="none" stroke="black" points="455.89,-448.5 455.89,-467.5 547.89,-467.5 547.89,-448.5 455.89,-448.5"/>
<text text-anchor="middle" x="501.89" y="-455.5" font-family="Helvetica,sans-Serif" font-size="10.00">goto_function.h</text>
</a>
</g>
</g>
<!-- Node48&#45;&gt;Node49 -->
<g id="edge49" class="edge">
<title>Node48&#45;&gt;Node49</title>
<path fill="none" stroke="midnightblue" d="M500.22,-504.08C500.48,-497.01 500.86,-486.86 501.18,-477.99"/>
<polygon fill="midnightblue" stroke="midnightblue" points="504.69,-477.87 501.56,-467.75 497.7,-477.61 504.69,-477.87"/>
</g>
<!-- Node57 -->
<g id="node41" class="node">
<title>Node57</title>
<g id="a_node41"><a xlink:href="cprover__prefix_8h.html" target="_top" xlink:title=" ">
<polygon fill="none" stroke="black" points="1383.89,-224.5 1383.89,-243.5 1497.89,-243.5 1497.89,-224.5 1383.89,-224.5"/>
<text text-anchor="middle" x="1440.89" y="-231.5" font-family="Helvetica,sans-Serif" font-size="10.00">util/cprover_prefix.h</text>
</a>
</g>
</g>
<!-- Node48&#45;&gt;Node57 -->
<g id="edge76" class="edge">
<title>Node48&#45;&gt;Node57</title>
<path fill="none" stroke="midnightblue" d="M521.66,-504.44C556.12,-491.1 625.5,-465.13 685.89,-448 980.1,-364.52 1081.27,-430.42 1357.89,-300 1384.11,-287.64 1409.66,-265.69 1425.33,-250.75"/>
<polygon fill="midnightblue" stroke="midnightblue" points="1427.87,-253.16 1432.57,-243.67 1422.97,-248.16 1427.87,-253.16"/>
</g>
<!-- Node50 -->
<g id="node36" class="node">
<title>Node50</title>
<g id="a_node36"><a xlink:href="std__types_8h.html" target="_top" xlink:title=" ">
<polygon fill="none" stroke="black" points="455.89,-392.5 455.89,-411.5 547.89,-411.5 547.89,-392.5 455.89,-392.5"/>
<text text-anchor="middle" x="501.89" y="-399.5" font-family="Helvetica,sans-Serif" font-size="10.00">util/std_types.h</text>
</a>
</g>
</g>
<!-- Node49&#45;&gt;Node50 -->
<g id="edge50" class="edge">
<title>Node49&#45;&gt;Node50</title>
<path fill="none" stroke="midnightblue" d="M501.89,-448.08C501.89,-441.01 501.89,-430.86 501.89,-421.99"/>
<polygon fill="midnightblue" stroke="midnightblue" points="505.39,-421.75 501.89,-411.75 498.39,-421.75 505.39,-421.75"/>
</g>
<!-- Node55 -->
<g id="node39" class="node">
<title>Node55</title>
<g id="a_node39"><a xlink:href="goto__program_8h.html" target="_top" xlink:title=" ">
<polygon fill="none" stroke="black" points="942.89,-336.5 942.89,-355.5 1036.89,-355.5 1036.89,-336.5 942.89,-336.5"/>
<text text-anchor="middle" x="989.89" y="-343.5" font-family="Helvetica,sans-Serif" font-size="10.00">goto_program.h</text>
</a>
</g>
</g>
<!-- Node49&#45;&gt;Node55 -->
<g id="edge63" class="edge">
<title>Node49&#45;&gt;Node55</title>
<path fill="none" stroke="midnightblue" d="M539.77,-448.46C627.69,-428.64 845.44,-379.56 942.22,-357.75"/>
<polygon fill="midnightblue" stroke="midnightblue" points="943.04,-361.15 952.03,-355.53 941.5,-354.32 943.04,-361.15"/>
</g>
<!-- Node50&#45;&gt;Node8 -->
<g id="edge57" class="edge">
<title>Node50&#45;&gt;Node8</title>
<path fill="none" stroke="midnightblue" d="M548.07,-392.98C574.53,-386.53 607.1,-375.25 630.89,-356 724,-280.65 772.82,-136.65 787.8,-85.55"/>
<polygon fill="midnightblue" stroke="midnightblue" points="791.25,-86.19 790.62,-75.62 784.52,-84.28 791.25,-86.19"/>
</g>
<!-- Node50&#45;&gt;Node18 -->
<g id="edge62" class="edge">
<title>Node50&#45;&gt;Node18</title>
<path fill="none" stroke="midnightblue" d="M474.16,-392.44C444.46,-383.28 397.17,-368.69 364.22,-358.52"/>
<polygon fill="midnightblue" stroke="midnightblue" points="365.07,-355.12 354.49,-355.52 363.01,-361.81 365.07,-355.12"/>
</g>
<!-- Node50&#45;&gt;Node20 -->
<g id="edge51" class="edge">
<title>Node50&#45;&gt;Node20</title>
<path fill="none" stroke="midnightblue" d="M491.19,-392.45C481.44,-384.12 467.32,-370.6 458.89,-356 450.53,-341.52 445.6,-323.07 442.86,-309.53"/>
<polygon fill="midnightblue" stroke="midnightblue" points="446.27,-308.73 441.05,-299.51 439.38,-309.97 446.27,-308.73"/>
</g>
<!-- Node50&#45;&gt;Node38 -->
<g id="edge61" class="edge">
<title>Node50&#45;&gt;Node38</title>
<path fill="none" stroke="midnightblue" d="M486.96,-392.36C464.48,-379.47 420.46,-354.73 381.89,-336 289.13,-290.95 225.53,-330.17 168.89,-244 158.43,-228.09 171.66,-208.42 184.35,-194.92"/>
<polygon fill="midnightblue" stroke="midnightblue" points="186.94,-197.28 191.58,-187.75 182.02,-192.31 186.94,-197.28"/>
</g>
<!-- Node51 -->
<g id="node37" class="node">
<title>Node51</title>
<g id="a_node37"><a xlink:href="expr__cast_8h.html" target="_top" xlink:title="Templated functions to cast to specific exprt&#45;derived classes.">
<polygon fill="none" stroke="red" points="468.39,-336.5 468.39,-355.5 541.39,-355.5 541.39,-336.5 468.39,-336.5"/>
<text text-anchor="middle" x="504.89" y="-343.5" font-family="Helvetica,sans-Serif" font-size="10.00">expr_cast.h</text>
</a>
</g>
</g>
<!-- Node50&#45;&gt;Node51 -->
<g id="edge52" class="edge">
<title>Node50&#45;&gt;Node51</title>
<path fill="none" stroke="midnightblue" d="M502.38,-392.08C502.78,-385.01 503.34,-374.86 503.83,-365.99"/>
<polygon fill="midnightblue" stroke="midnightblue" points="507.34,-365.93 504.4,-355.75 500.35,-365.54 507.34,-365.93"/>
</g>
<!-- Node53 -->
<g id="node38" class="node">
<title>Node53</title>
<g id="a_node38"><a xlink:href="mp__arith_8h.html" target="_top" xlink:title=" ">
<polygon fill="none" stroke="red" points="678.39,-336.5 678.39,-355.5 747.39,-355.5 747.39,-336.5 678.39,-336.5"/>
<text text-anchor="middle" x="712.89" y="-343.5" font-family="Helvetica,sans-Serif" font-size="10.00">mp_arith.h</text>
</a>
</g>
</g>
<!-- Node50&#45;&gt;Node53 -->
<g id="edge58" class="edge">
<title>Node50&#45;&gt;Node53</title>
<path fill="none" stroke="midnightblue" d="M535.32,-392.44C571.74,-383.12 630.12,-368.18 669.92,-358"/>
<polygon fill="midnightblue" stroke="midnightblue" points="670.79,-361.39 679.61,-355.52 669.05,-354.61 670.79,-361.39"/>
</g>
<!-- Node51&#45;&gt;Node7 -->
<g id="edge53" class="edge">
<title>Node51&#45;&gt;Node7</title>
<path fill="none" stroke="midnightblue" d="M468.12,-339.08C363.16,-321.35 66.23,-265.09 11.89,-188 -25.7,-134.69 37.82,-59.62 69.97,-27.08"/>
<polygon fill="midnightblue" stroke="midnightblue" points="72.73,-29.28 77.39,-19.76 67.81,-24.29 72.73,-29.28"/>
</g>
<!-- Node51&#45;&gt;Node8 -->
<g id="edge55" class="edge">
<title>Node51&#45;&gt;Node8</title>
<path fill="none" stroke="midnightblue" d="M516.74,-336.44C539.49,-319.78 590.45,-281.34 628.89,-244 684.48,-189.98 688.64,-167.37 742.89,-112 753,-101.68 765.02,-90.82 774.74,-82.36"/>
<polygon fill="midnightblue" stroke="midnightblue" points="777.29,-84.78 782.58,-75.61 772.72,-79.48 777.29,-84.78"/>
</g>
<!-- Node51&#45;&gt;Node20 -->
<g id="edge56" class="edge">
<title>Node51&#45;&gt;Node20</title>
<path fill="none" stroke="midnightblue" d="M494.44,-336.32C484.74,-328.26 470.07,-316.08 458.39,-306.37"/>
<polygon fill="midnightblue" stroke="midnightblue" points="460.45,-303.53 450.52,-299.83 455.98,-308.92 460.45,-303.53"/>
</g>
<!-- Node51&#45;&gt;Node43 -->
<g id="edge54" class="edge">
<title>Node51&#45;&gt;Node43</title>
<path fill="none" stroke="midnightblue" d="M511.32,-336.37C524.91,-318.14 556.75,-275.43 574.46,-251.68"/>
<polygon fill="midnightblue" stroke="midnightblue" points="577.31,-253.7 580.48,-243.59 571.7,-249.52 577.31,-253.7"/>
</g>
<!-- Node53&#45;&gt;Node3 -->
<g id="edge59" class="edge">
<title>Node53&#45;&gt;Node3</title>
<path fill="none" stroke="midnightblue" d="M723.01,-336.32C732.41,-328.26 746.63,-316.08 757.96,-306.37"/>
<polygon fill="midnightblue" stroke="midnightblue" points="760.27,-309 765.58,-299.83 755.71,-303.68 760.27,-309"/>
</g>
<!-- Node53&#45;&gt;Node11 -->
<g id="edge60" class="edge">
<title>Node53&#45;&gt;Node11</title>
<path fill="none" stroke="midnightblue" d="M709.03,-336.47C698.88,-314.87 669.36,-257.32 628.89,-224 598.16,-198.7 568.65,-221.32 546.89,-188 507.01,-126.95 598.91,-55.08 643.44,-25.17"/>
<polygon fill="midnightblue" stroke="midnightblue" points="645.47,-28.02 651.91,-19.6 641.63,-22.17 645.47,-28.02"/>
</g>
<!-- Node55&#45;&gt;Node3 -->
<g id="edge66" class="edge">
<title>Node55&#45;&gt;Node3</title>
<path fill="none" stroke="midnightblue" d="M955.98,-336.44C915.97,-326.35 849.85,-309.66 809.83,-299.57"/>
<polygon fill="midnightblue" stroke="midnightblue" points="810.56,-296.14 800.01,-297.09 808.85,-302.93 810.56,-296.14"/>
</g>
<!-- Node55&#45;&gt;Node8 -->
<g id="edge71" class="edge">
<title>Node55&#45;&gt;Node8</title>
<path fill="none" stroke="midnightblue" d="M1037.15,-341.73C1126.77,-335.12 1314.5,-319.15 1336.89,-300 1359.76,-280.43 1355.89,-265.1 1355.89,-235 1355.89,-235 1355.89,-235 1355.89,-177 1355.89,-71.67 971.53,-65.3 837.97,-66.27"/>
<polygon fill="midnightblue" stroke="midnightblue" points="837.65,-62.77 827.68,-66.36 837.71,-69.77 837.65,-62.77"/>
</g>
<!-- Node55&#45;&gt;Node11 -->
<g id="edge69" class="edge">
<title>Node55&#45;&gt;Node11</title>
<path fill="none" stroke="midnightblue" d="M981.55,-336.41C938.23,-291.74 738.52,-85.88 681.27,-26.86"/>
<polygon fill="midnightblue" stroke="midnightblue" points="683.64,-24.28 674.17,-19.54 678.62,-29.15 683.64,-24.28"/>
</g>
<!-- Node55&#45;&gt;Node23 -->
<g id="edge75" class="edge">
<title>Node55&#45;&gt;Node23</title>
<path fill="none" stroke="midnightblue" d="M970.1,-336.42C907.07,-309.1 710.72,-224 636.08,-191.65"/>
<polygon fill="midnightblue" stroke="midnightblue" points="637.35,-188.39 626.78,-187.62 634.57,-194.81 637.35,-188.39"/>
</g>
<!-- Node56 -->
<g id="node40" class="node">
<title>Node56</title>
<g id="a_node40"><a xlink:href="goto__instruction__code_8h.html" target="_top" xlink:title=" ">
<polygon fill="none" stroke="red" points="970.39,-280.5 970.39,-299.5 1103.39,-299.5 1103.39,-280.5 970.39,-280.5"/>
<text text-anchor="middle" x="1036.89" y="-287.5" font-family="Helvetica,sans-Serif" font-size="10.00">goto_instruction_code.h</text>
</a>
</g>
</g>
<!-- Node55&#45;&gt;Node56 -->
<g id="edge64" class="edge">
<title>Node55&#45;&gt;Node56</title>
<path fill="none" stroke="midnightblue" d="M997.65,-336.08C1004.42,-328.3 1014.43,-316.8 1022.64,-307.37"/>
<polygon fill="midnightblue" stroke="midnightblue" points="1025.35,-309.59 1029.27,-299.75 1020.07,-305 1025.35,-309.59"/>
</g>
<!-- Node60 -->
<g id="node42" class="node">
<title>Node60</title>
<g id="a_node42"><a xlink:title=" ">
<polygon fill="none" stroke="#bfbfbf" points="1121.89,-280.5 1121.89,-299.5 1153.89,-299.5 1153.89,-280.5 1121.89,-280.5"/>
<text text-anchor="middle" x="1137.89" y="-287.5" font-family="Helvetica,sans-Serif" font-size="10.00">set</text>
</a>
</g>
</g>
<!-- Node55&#45;&gt;Node60 -->
<g id="edge67" class="edge">
<title>Node55&#45;&gt;Node60</title>
<path fill="none" stroke="midnightblue" d="M1013.34,-336.44C1040.34,-326.59 1084.55,-310.46 1112.39,-300.3"/>
<polygon fill="midnightblue" stroke="midnightblue" points="1113.65,-303.57 1121.84,-296.85 1111.25,-296.99 1113.65,-303.57"/>
</g>
<!-- Node61 -->
<g id="node43" class="node">
<title>Node61</title>
<g id="a_node43"><a xlink:title=" ">
<polygon fill="none" stroke="#bfbfbf" points="1171.89,-280.5 1171.89,-299.5 1215.89,-299.5 1215.89,-280.5 1171.89,-280.5"/>
<text text-anchor="middle" x="1193.89" y="-287.5" font-family="Helvetica,sans-Serif" font-size="10.00">limits</text>
</a>
</g>
</g>
<!-- Node55&#45;&gt;Node61 -->
<g id="edge68" class="edge">
<title>Node55&#45;&gt;Node61</title>
<path fill="none" stroke="midnightblue" d="M1023.78,-336.48C1056.73,-328.14 1108.44,-314.87 1161.91,-300.22"/>
<polygon fill="midnightblue" stroke="midnightblue" points="1162.84,-303.59 1171.56,-297.56 1160.99,-296.84 1162.84,-303.59"/>
</g>
<!-- Node62 -->
<g id="node44" class="node">
<title>Node62</title>
<g id="a_node44"><a xlink:href="deprecate_8h.html" target="_top" xlink:title=" ">
<polygon fill="none" stroke="black" points="1234.39,-280.5 1234.39,-299.5 1327.39,-299.5 1327.39,-280.5 1234.39,-280.5"/>
<text text-anchor="middle" x="1280.89" y="-287.5" font-family="Helvetica,sans-Serif" font-size="10.00">util/deprecate.h</text>
</a>
</g>
</g>
<!-- Node55&#45;&gt;Node62 -->
<g id="edge70" class="edge">
<title>Node55&#45;&gt;Node62</title>
<path fill="none" stroke="midnightblue" d="M1036,-336.44C1087.29,-326.92 1170.16,-311.55 1225.08,-301.36"/>
<polygon fill="midnightblue" stroke="midnightblue" points="1225.8,-304.78 1234.99,-299.52 1224.52,-297.9 1225.8,-304.78"/>
</g>
<!-- Node63 -->
<g id="node45" class="node">
<title>Node63</title>
<g id="a_node45"><a xlink:href="namespace_8h.html" target="_top" xlink:title=" ">
<polygon fill="none" stroke="black" points="866.39,-168.5 866.39,-187.5 967.39,-187.5 967.39,-168.5 866.39,-168.5"/>
<text text-anchor="middle" x="916.89" y="-175.5" font-family="Helvetica,sans-Serif" font-size="10.00">util/namespace.h</text>
</a>
</g>
</g>
<!-- Node55&#45;&gt;Node63 -->
<g id="edge72" class="edge">
<title>Node55&#45;&gt;Node63</title>
<path fill="none" stroke="midnightblue" d="M983.77,-336.34C977.69,-327.49 968.37,-313.22 961.89,-300 944.67,-264.93 930.04,-221.52 922.45,-197.39"/>
<polygon fill="midnightblue" stroke="midnightblue" points="925.77,-196.28 919.48,-187.76 919.08,-198.34 925.77,-196.28"/>
</g>
<!-- Node56&#45;&gt;Node57 -->
<g id="edge65" class="edge">
<title>Node56&#45;&gt;Node57</title>
<path fill="none" stroke="midnightblue" d="M1100.9,-280.44C1175.43,-270.48 1297.96,-254.1 1373.78,-243.97"/>
<polygon fill="midnightblue" stroke="midnightblue" points="1374.26,-247.44 1383.7,-242.64 1373.33,-240.5 1374.26,-247.44"/>
</g>
<!-- Node63&#45;&gt;Node8 -->
<g id="edge73" class="edge">
<title>Node63&#45;&gt;Node8</title>
<path fill="none" stroke="midnightblue" d="M913.99,-168.38C909.08,-154.86 897.95,-128.5 880.89,-112 866.01,-97.6 845.61,-86.78 828.19,-79.36"/>
<polygon fill="midnightblue" stroke="midnightblue" points="829.46,-76.1 818.88,-75.59 826.83,-82.59 829.46,-76.1"/>
</g>
<!-- Node63&#45;&gt;Node24 -->
<g id="edge74" class="edge">
<title>Node63&#45;&gt;Node24</title>
<path fill="none" stroke="midnightblue" d="M906.12,-168.32C896.12,-160.26 881,-148.08 868.96,-138.37"/>
<polygon fill="midnightblue" stroke="midnightblue" points="870.83,-135.38 860.85,-131.83 866.44,-140.83 870.83,-135.38"/>
</g>
<!-- Node64&#45;&gt;Node40 -->
<g id="edge79" class="edge">
<title>Node64&#45;&gt;Node40</title>
<path fill="none" stroke="midnightblue" d="M198.31,-504.42C148.84,-491.67 73.89,-462.54 73.89,-403 73.89,-403 73.89,-403 73.89,-289 73.89,-223.02 106.53,-206.81 159.89,-168 183.12,-151.1 212.91,-140.41 239.28,-133.71"/>
<polygon fill="midnightblue" stroke="midnightblue" points="240.29,-137.07 249.2,-131.33 238.66,-130.26 240.29,-137.07"/>
</g>
</g>
</svg>
