<?xml version="1.0" encoding="UTF-8" standalone="no"?>
<!DOCTYPE svg PUBLIC "-//W3C//DTD SVG 1.1//EN"
 "http://www.w3.org/Graphics/SVG/1.1/DTD/svg11.dtd">
<!-- Generated by graphviz version 2.43.0 (0)
 -->
<!-- Title: /home/runner/work/cbmc/cbmc/src/goto&#45;programs/elf_reader.cpp Pages: 1 -->
<svg width="969pt" height="442pt"
 viewBox="0.00 0.00 968.50 442.00" xmlns="http://www.w3.org/2000/svg" xmlns:xlink="http://www.w3.org/1999/xlink">
<g id="graph0" class="graph" transform="scale(1 1) rotate(0) translate(4 438)">
<title>/home/runner/work/cbmc/cbmc/src/goto&#45;programs/elf_reader.cpp</title>
<!-- Node1 -->
<g id="node1" class="node">
<title>Node1</title>
<g id="a_node1"><a xlink:title=" ">
<polygon fill="#bfbfbf" stroke="black" points="809.5,-392.5 809.5,-433.5 947.5,-433.5 947.5,-392.5 809.5,-392.5"/>
<text text-anchor="start" x="817.5" y="-421.5" font-family="Helvetica,sans-Serif" font-size="10.00">/home/runner/work/cbmc</text>
<text text-anchor="start" x="817.5" y="-410.5" font-family="Helvetica,sans-Serif" font-size="10.00">/cbmc/src/goto&#45;programs</text>
<text text-anchor="middle" x="878.5" y="-399.5" font-family="Helvetica,sans-Serif" font-size="10.00">/elf_reader.cpp</text>
</a>
</g>
</g>
<!-- Node2 -->
<g id="node2" class="node">
<title>Node2</title>
<g id="a_node2"><a xlink:href="elf__reader_8h.html" target="_top" xlink:title=" ">
<polygon fill="none" stroke="black" points="855.5,-112.5 855.5,-131.5 929.5,-131.5 929.5,-112.5 855.5,-112.5"/>
<text text-anchor="middle" x="892.5" y="-119.5" font-family="Helvetica,sans-Serif" font-size="10.00">elf_reader.h</text>
</a>
</g>
</g>
<!-- Node1&#45;&gt;Node2 -->
<g id="edge1" class="edge">
<title>Node1&#45;&gt;Node2</title>
<path fill="none" stroke="midnightblue" d="M878.5,-392.3C878.5,-368.35 878.5,-326.71 878.5,-291 878.5,-291 878.5,-291 878.5,-233 878.5,-200.54 884.57,-163.12 888.72,-141.36"/>
<polygon fill="midnightblue" stroke="midnightblue" points="892.16,-142 890.67,-131.51 885.29,-140.64 892.16,-142"/>
</g>
<!-- Node6 -->
<g id="node6" class="node">
<title>Node6</title>
<g id="a_node6"><a xlink:href="exception__utils_8h.html" target="_top" xlink:title=" ">
<polygon fill="none" stroke="black" points="495,-336.5 495,-355.5 614,-355.5 614,-336.5 495,-336.5"/>
<text text-anchor="middle" x="554.5" y="-343.5" font-family="Helvetica,sans-Serif" font-size="10.00">util/exception_utils.h</text>
</a>
</g>
</g>
<!-- Node1&#45;&gt;Node6 -->
<g id="edge5" class="edge">
<title>Node1&#45;&gt;Node6</title>
<path fill="none" stroke="midnightblue" d="M809.39,-398.14C748.85,-385.99 662.18,-368.6 607.13,-357.56"/>
<polygon fill="midnightblue" stroke="midnightblue" points="607.72,-354.11 597.23,-355.57 606.34,-360.97 607.72,-354.11"/>
</g>
<!-- Node30 -->
<g id="node25" class="node">
<title>Node30</title>
<g id="a_node25"><a xlink:title=" ">
<polygon fill="none" stroke="#bfbfbf" points="906.5,-336.5 906.5,-355.5 960.5,-355.5 960.5,-336.5 906.5,-336.5"/>
<text text-anchor="middle" x="933.5" y="-343.5" font-family="Helvetica,sans-Serif" font-size="10.00">istream</text>
</a>
</g>
</g>
<!-- Node1&#45;&gt;Node30 -->
<g id="edge36" class="edge">
<title>Node1&#45;&gt;Node30</title>
<path fill="none" stroke="midnightblue" d="M895,-392.5C902.87,-383.2 912.17,-372.21 919.66,-363.36"/>
<polygon fill="midnightblue" stroke="midnightblue" points="922.39,-365.55 926.18,-355.65 917.05,-361.03 922.39,-365.55"/>
</g>
<!-- Node3 -->
<g id="node3" class="node">
<title>Node3</title>
<g id="a_node3"><a xlink:title=" ">
<polygon fill="none" stroke="#bfbfbf" points="767.5,-56.5 767.5,-75.5 815.5,-75.5 815.5,-56.5 767.5,-56.5"/>
<text text-anchor="middle" x="791.5" y="-63.5" font-family="Helvetica,sans-Serif" font-size="10.00">iosfwd</text>
</a>
</g>
</g>
<!-- Node2&#45;&gt;Node3 -->
<g id="edge2" class="edge">
<title>Node2&#45;&gt;Node3</title>
<path fill="none" stroke="midnightblue" d="M876.27,-112.32C860.15,-103.7 835.2,-90.36 816.54,-80.39"/>
<polygon fill="midnightblue" stroke="midnightblue" points="818.16,-77.28 807.69,-75.65 814.86,-83.46 818.16,-77.28"/>
</g>
<!-- Node4 -->
<g id="node4" class="node">
<title>Node4</title>
<g id="a_node4"><a xlink:title=" ">
<polygon fill="none" stroke="#bfbfbf" points="502.5,-0.5 502.5,-19.5 546.5,-19.5 546.5,-0.5 502.5,-0.5"/>
<text text-anchor="middle" x="524.5" y="-7.5" font-family="Helvetica,sans-Serif" font-size="10.00">string</text>
</a>
</g>
</g>
<!-- Node2&#45;&gt;Node4 -->
<g id="edge3" class="edge">
<title>Node2&#45;&gt;Node4</title>
<path fill="none" stroke="midnightblue" d="M890.48,-112.12C886.69,-97.73 877.1,-69.57 857.5,-56 809.16,-22.53 630.47,-13.87 556.69,-11.7"/>
<polygon fill="midnightblue" stroke="midnightblue" points="556.68,-8.2 546.59,-11.42 556.49,-15.19 556.68,-8.2"/>
</g>
<!-- Node5 -->
<g id="node5" class="node">
<title>Node5</title>
<g id="a_node5"><a xlink:title=" ">
<polygon fill="none" stroke="#bfbfbf" points="896,-0.5 896,-19.5 943,-19.5 943,-0.5 896,-0.5"/>
<text text-anchor="middle" x="919.5" y="-7.5" font-family="Helvetica,sans-Serif" font-size="10.00">vector</text>
</a>
</g>
</g>
<!-- Node2&#45;&gt;Node5 -->
<g id="edge4" class="edge">
<title>Node2&#45;&gt;Node5</title>
<path fill="none" stroke="midnightblue" d="M894.62,-112.37C898.98,-94.62 909.03,-53.67 914.94,-29.6"/>
<polygon fill="midnightblue" stroke="midnightblue" points="918.41,-30.14 917.39,-19.59 911.61,-28.47 918.41,-30.14"/>
</g>
<!-- Node6&#45;&gt;Node4 -->
<g id="edge6" class="edge">
<title>Node6&#45;&gt;Node4</title>
<path fill="none" stroke="midnightblue" d="M599.89,-336.45C677.52,-320.53 827.5,-283.48 827.5,-235 827.5,-235 827.5,-235 827.5,-177 827.5,-123.21 860.11,-96.32 824.5,-56 789.68,-16.57 626.56,-11.28 556.55,-10.85"/>
<polygon fill="midnightblue" stroke="midnightblue" points="556.54,-7.35 546.53,-10.82 556.52,-14.35 556.54,-7.35"/>
</g>
<!-- Node7 -->
<g id="node7" class="node">
<title>Node7</title>
<g id="a_node7"><a xlink:href="src_2util_2invariant_8h.html" target="_top" xlink:title=" ">
<polygon fill="none" stroke="black" points="144,-56.5 144,-75.5 213,-75.5 213,-56.5 144,-56.5"/>
<text text-anchor="middle" x="178.5" y="-63.5" font-family="Helvetica,sans-Serif" font-size="10.00">invariant.h</text>
</a>
</g>
</g>
<!-- Node6&#45;&gt;Node7 -->
<g id="edge7" class="edge">
<title>Node6&#45;&gt;Node7</title>
<path fill="none" stroke="midnightblue" d="M494.94,-341.85C410.79,-334.98 254.94,-313.16 143.5,-244 108.07,-222.01 73.66,-206.96 88.5,-168 102.45,-131.38 136.45,-99.59 158.43,-81.89"/>
<polygon fill="midnightblue" stroke="midnightblue" points="160.75,-84.52 166.48,-75.61 156.44,-79 160.75,-84.52"/>
</g>
<!-- Node11 -->
<g id="node11" class="node">
<title>Node11</title>
<g id="a_node11"><a xlink:href="source__location_8h.html" target="_top" xlink:title=" ">
<polygon fill="none" stroke="black" points="323.5,-280.5 323.5,-299.5 425.5,-299.5 425.5,-280.5 323.5,-280.5"/>
<text text-anchor="middle" x="374.5" y="-287.5" font-family="Helvetica,sans-Serif" font-size="10.00">source_location.h</text>
</a>
</g>
</g>
<!-- Node6&#45;&gt;Node11 -->
<g id="edge12" class="edge">
<title>Node6&#45;&gt;Node11</title>
<path fill="none" stroke="midnightblue" d="M525.98,-336.44C495.43,-327.28 446.79,-312.69 412.9,-302.52"/>
<polygon fill="midnightblue" stroke="midnightblue" points="413.47,-299.04 402.89,-299.52 411.46,-305.74 413.47,-299.04"/>
</g>
<!-- Node7&#45;&gt;Node4 -->
<g id="edge10" class="edge">
<title>Node7&#45;&gt;Node4</title>
<path fill="none" stroke="midnightblue" d="M213.16,-59.51C220.54,-58.35 228.27,-57.13 235.5,-56 328.66,-41.39 438.74,-24.3 492.17,-16.01"/>
<polygon fill="midnightblue" stroke="midnightblue" points="493.04,-19.42 502.38,-14.43 491.96,-12.5 493.04,-19.42"/>
</g>
<!-- Node8 -->
<g id="node8" class="node">
<title>Node8</title>
<g id="a_node8"><a xlink:title=" ">
<polygon fill="none" stroke="#bfbfbf" points="216,-0.5 216,-19.5 265,-19.5 265,-0.5 216,-0.5"/>
<text text-anchor="middle" x="240.5" y="-7.5" font-family="Helvetica,sans-Serif" font-size="10.00">cstdlib</text>
</a>
</g>
</g>
<!-- Node7&#45;&gt;Node8 -->
<g id="edge8" class="edge">
<title>Node7&#45;&gt;Node8</title>
<path fill="none" stroke="midnightblue" d="M188.46,-56.32C197.63,-48.34 211.44,-36.31 222.53,-26.65"/>
<polygon fill="midnightblue" stroke="midnightblue" points="225.12,-29.04 230.36,-19.83 220.52,-23.76 225.12,-29.04"/>
</g>
<!-- Node9 -->
<g id="node9" class="node">
<title>Node9</title>
<g id="a_node9"><a xlink:title=" ">
<polygon fill="none" stroke="#bfbfbf" points="141.5,-0.5 141.5,-19.5 197.5,-19.5 197.5,-0.5 141.5,-0.5"/>
<text text-anchor="middle" x="169.5" y="-7.5" font-family="Helvetica,sans-Serif" font-size="10.00">sstream</text>
</a>
</g>
</g>
<!-- Node7&#45;&gt;Node9 -->
<g id="edge9" class="edge">
<title>Node7&#45;&gt;Node9</title>
<path fill="none" stroke="midnightblue" d="M177.01,-56.08C175.82,-48.93 174.11,-38.64 172.62,-29.69"/>
<polygon fill="midnightblue" stroke="midnightblue" points="176.05,-29.04 170.96,-19.75 169.15,-30.19 176.05,-29.04"/>
</g>
<!-- Node10 -->
<g id="node10" class="node">
<title>Node10</title>
<g id="a_node10"><a xlink:title=" ">
<polygon fill="none" stroke="#bfbfbf" points="37,-0.5 37,-19.5 106,-19.5 106,-0.5 37,-0.5"/>
<text text-anchor="middle" x="71.5" y="-7.5" font-family="Helvetica,sans-Serif" font-size="10.00">type_traits</text>
</a>
</g>
</g>
<!-- Node7&#45;&gt;Node10 -->
<g id="edge11" class="edge">
<title>Node7&#45;&gt;Node10</title>
<path fill="none" stroke="midnightblue" d="M161.31,-56.32C144.15,-47.66 117.55,-34.24 97.75,-24.25"/>
<polygon fill="midnightblue" stroke="midnightblue" points="99.15,-21.04 88.65,-19.65 96,-27.28 99.15,-21.04"/>
</g>
<!-- Node11&#45;&gt;Node4 -->
<g id="edge35" class="edge">
<title>Node11&#45;&gt;Node4</title>
<path fill="none" stroke="midnightblue" d="M362.14,-280.49C326.03,-254.59 225.88,-174.63 268.5,-112 319.51,-37.04 435.57,-17.71 492.2,-12.73"/>
<polygon fill="midnightblue" stroke="midnightblue" points="492.68,-16.2 502.38,-11.94 492.14,-9.23 492.68,-16.2"/>
</g>
<!-- Node12 -->
<g id="node12" class="node">
<title>Node12</title>
<g id="a_node12"><a xlink:href="irep_8h.html" target="_top" xlink:title=" ">
<polygon fill="none" stroke="black" points="449.5,-224.5 449.5,-243.5 493.5,-243.5 493.5,-224.5 449.5,-224.5"/>
<text text-anchor="middle" x="471.5" y="-231.5" font-family="Helvetica,sans-Serif" font-size="10.00">irep.h</text>
</a>
</g>
</g>
<!-- Node11&#45;&gt;Node12 -->
<g id="edge13" class="edge">
<title>Node11&#45;&gt;Node12</title>
<path fill="none" stroke="midnightblue" d="M390.08,-280.32C405.5,-271.74 429.31,-258.49 447.21,-248.52"/>
<polygon fill="midnightblue" stroke="midnightblue" points="448.92,-251.58 455.95,-243.65 445.51,-245.46 448.92,-251.58"/>
</g>
<!-- Node28 -->
<g id="node23" class="node">
<title>Node28</title>
<g id="a_node23"><a xlink:href="optional_8h.html" target="_top" xlink:title=" ">
<polygon fill="none" stroke="black" points="153,-224.5 153,-243.5 218,-243.5 218,-224.5 153,-224.5"/>
<text text-anchor="middle" x="185.5" y="-231.5" font-family="Helvetica,sans-Serif" font-size="10.00">optional.h</text>
</a>
</g>
</g>
<!-- Node11&#45;&gt;Node28 -->
<g id="edge33" class="edge">
<title>Node11&#45;&gt;Node28</title>
<path fill="none" stroke="midnightblue" d="M344.55,-280.44C312.34,-271.24 260.97,-256.56 225.36,-246.39"/>
<polygon fill="midnightblue" stroke="midnightblue" points="225.88,-242.9 215.31,-243.52 223.96,-249.63 225.88,-242.9"/>
</g>
<!-- Node12&#45;&gt;Node4 -->
<g id="edge14" class="edge">
<title>Node12&#45;&gt;Node4</title>
<path fill="none" stroke="midnightblue" d="M478.36,-224.49C491.24,-207.9 518.63,-169.58 528.5,-132 537.77,-96.73 532.63,-53.68 528.36,-29.6"/>
<polygon fill="midnightblue" stroke="midnightblue" points="531.78,-28.86 526.46,-19.7 524.91,-30.18 531.78,-28.86"/>
</g>
<!-- Node12&#45;&gt;Node5 -->
<g id="edge15" class="edge">
<title>Node12&#45;&gt;Node5</title>
<path fill="none" stroke="midnightblue" d="M493.79,-231.75C578.87,-226.46 881.33,-202.85 938.5,-132 962.55,-102.2 943.36,-54.44 929.86,-28.74"/>
<polygon fill="midnightblue" stroke="midnightblue" points="932.8,-26.83 924.91,-19.77 926.68,-30.22 932.8,-26.83"/>
</g>
<!-- Node12&#45;&gt;Node7 -->
<g id="edge16" class="edge">
<title>Node12&#45;&gt;Node7</title>
<path fill="none" stroke="midnightblue" d="M449.27,-229.04C419.52,-223.13 365.73,-210.23 324.5,-188 270.9,-159.1 218.53,-108.79 193.6,-83.1"/>
<polygon fill="midnightblue" stroke="midnightblue" points="195.94,-80.49 186.5,-75.68 190.89,-85.32 195.94,-80.49"/>
</g>
<!-- Node13 -->
<g id="node13" class="node">
<title>Node13</title>
<g id="a_node13"><a xlink:href="irep__ids_8h.html" target="_top" xlink:title=" ">
<polygon fill="none" stroke="black" points="580.5,-168.5 580.5,-187.5 644.5,-187.5 644.5,-168.5 580.5,-168.5"/>
<text text-anchor="middle" x="612.5" y="-175.5" font-family="Helvetica,sans-Serif" font-size="10.00">irep_ids.h</text>
</a>
</g>
</g>
<!-- Node12&#45;&gt;Node13 -->
<g id="edge17" class="edge">
<title>Node12&#45;&gt;Node13</title>
<path fill="none" stroke="midnightblue" d="M493.53,-224.56C516.88,-215.62 553.98,-201.41 580.54,-191.24"/>
<polygon fill="midnightblue" stroke="midnightblue" points="582.07,-194.4 590.16,-187.56 579.57,-187.86 582.07,-194.4"/>
</g>
<!-- Node23 -->
<g id="node18" class="node">
<title>Node23</title>
<g id="a_node18"><a xlink:href="forward__list__as__map_8h.html" target="_top" xlink:title=" ">
<polygon fill="none" stroke="black" points="333,-168.5 333,-187.5 460,-187.5 460,-168.5 333,-168.5"/>
<text text-anchor="middle" x="396.5" y="-175.5" font-family="Helvetica,sans-Serif" font-size="10.00">forward_list_as_map.h</text>
</a>
</g>
</g>
<!-- Node12&#45;&gt;Node23 -->
<g id="edge26" class="edge">
<title>Node12&#45;&gt;Node23</title>
<path fill="none" stroke="midnightblue" d="M459.45,-224.32C448.04,-216.11 430.67,-203.6 417.07,-193.81"/>
<polygon fill="midnightblue" stroke="midnightblue" points="418.93,-190.84 408.77,-187.83 414.84,-196.52 418.93,-190.84"/>
</g>
<!-- Node14 -->
<g id="node14" class="node">
<title>Node14</title>
<g id="a_node14"><a xlink:href="dstring_8h.html" target="_top" xlink:title=" ">
<polygon fill="none" stroke="black" points="668,-112.5 668,-131.5 727,-131.5 727,-112.5 668,-112.5"/>
<text text-anchor="middle" x="697.5" y="-119.5" font-family="Helvetica,sans-Serif" font-size="10.00">dstring.h</text>
</a>
</g>
</g>
<!-- Node13&#45;&gt;Node14 -->
<g id="edge18" class="edge">
<title>Node13&#45;&gt;Node14</title>
<path fill="none" stroke="midnightblue" d="M626.16,-168.32C639.42,-159.9 659.77,-146.97 675.35,-137.07"/>
<polygon fill="midnightblue" stroke="midnightblue" points="677.31,-139.97 683.88,-131.65 673.56,-134.06 677.31,-139.97"/>
</g>
<!-- Node22 -->
<g id="node17" class="node">
<title>Node22</title>
<g id="a_node17"><a xlink:title=" ">
<polygon fill="none" stroke="#bfbfbf" points="575.5,-112.5 575.5,-131.5 649.5,-131.5 649.5,-112.5 575.5,-112.5"/>
<text text-anchor="middle" x="612.5" y="-119.5" font-family="Helvetica,sans-Serif" font-size="10.00">irep_ids.def</text>
</a>
</g>
</g>
<!-- Node13&#45;&gt;Node22 -->
<g id="edge25" class="edge">
<title>Node13&#45;&gt;Node22</title>
<path fill="none" stroke="midnightblue" d="M612.5,-168.08C612.5,-161.01 612.5,-150.86 612.5,-141.99"/>
<polygon fill="midnightblue" stroke="midnightblue" points="616,-141.75 612.5,-131.75 609,-141.75 616,-141.75"/>
</g>
<!-- Node14&#45;&gt;Node3 -->
<g id="edge19" class="edge">
<title>Node14&#45;&gt;Node3</title>
<path fill="none" stroke="midnightblue" d="M712.6,-112.32C727.4,-103.82 750.19,-90.73 767.48,-80.8"/>
<polygon fill="midnightblue" stroke="midnightblue" points="769.51,-83.67 776.43,-75.65 766.02,-77.6 769.51,-83.67"/>
</g>
<!-- Node14&#45;&gt;Node4 -->
<g id="edge20" class="edge">
<title>Node14&#45;&gt;Node4</title>
<path fill="none" stroke="midnightblue" d="M667.86,-113.74C633.31,-104.83 578.85,-89.27 562.5,-76 547.47,-63.8 537.12,-43.97 531.05,-29.42"/>
<polygon fill="midnightblue" stroke="midnightblue" points="534.26,-28 527.4,-19.94 527.73,-30.53 534.26,-28"/>
</g>
<!-- Node14&#45;&gt;Node7 -->
<g id="edge21" class="edge">
<title>Node14&#45;&gt;Node7</title>
<path fill="none" stroke="midnightblue" d="M667.77,-113.71C664.65,-113.07 661.52,-112.49 658.5,-112 499.46,-86.31 308.24,-73.81 223.13,-69.19"/>
<polygon fill="midnightblue" stroke="midnightblue" points="223.21,-65.69 213.04,-68.65 222.84,-72.68 223.21,-65.69"/>
</g>
<!-- Node15 -->
<g id="node15" class="node">
<title>Node15</title>
<g id="a_node15"><a xlink:href="magic_8h.html" target="_top" xlink:title="Magic numbers used throughout the codebase.">
<polygon fill="none" stroke="red" points="571.5,-56.5 571.5,-75.5 627.5,-75.5 627.5,-56.5 571.5,-56.5"/>
<text text-anchor="middle" x="599.5" y="-63.5" font-family="Helvetica,sans-Serif" font-size="10.00">magic.h</text>
</a>
</g>
</g>
<!-- Node14&#45;&gt;Node15 -->
<g id="edge22" class="edge">
<title>Node14&#45;&gt;Node15</title>
<path fill="none" stroke="midnightblue" d="M681.75,-112.32C666.18,-103.74 642.12,-90.49 624.04,-80.52"/>
<polygon fill="midnightblue" stroke="midnightblue" points="625.65,-77.42 615.21,-75.65 622.28,-83.55 625.65,-77.42"/>
</g>
<!-- Node17 -->
<g id="node16" class="node">
<title>Node17</title>
<g id="a_node16"><a xlink:href="string__container_8h.html" target="_top" xlink:title=" ">
<polygon fill="none" stroke="red" points="645.5,-56.5 645.5,-75.5 749.5,-75.5 749.5,-56.5 645.5,-56.5"/>
<text text-anchor="middle" x="697.5" y="-63.5" font-family="Helvetica,sans-Serif" font-size="10.00">string_container.h</text>
</a>
</g>
</g>
<!-- Node14&#45;&gt;Node17 -->
<g id="edge23" class="edge">
<title>Node14&#45;&gt;Node17</title>
<path fill="none" stroke="midnightblue" d="M697.5,-112.08C697.5,-105.01 697.5,-94.86 697.5,-85.99"/>
<polygon fill="midnightblue" stroke="midnightblue" points="701,-85.75 697.5,-75.75 694,-85.75 701,-85.75"/>
</g>
<!-- Node17&#45;&gt;Node5 -->
<g id="edge24" class="edge">
<title>Node17&#45;&gt;Node5</title>
<path fill="none" stroke="midnightblue" d="M732.68,-56.44C774.72,-46.22 844.56,-29.23 885.89,-19.18"/>
<polygon fill="midnightblue" stroke="midnightblue" points="886.86,-22.54 895.75,-16.78 885.21,-15.74 886.86,-22.54"/>
</g>
<!-- Node24 -->
<g id="node19" class="node">
<title>Node24</title>
<g id="a_node19"><a xlink:title=" ">
<polygon fill="none" stroke="#bfbfbf" points="277.5,-112.5 277.5,-131.5 341.5,-131.5 341.5,-112.5 277.5,-112.5"/>
<text text-anchor="middle" x="309.5" y="-119.5" font-family="Helvetica,sans-Serif" font-size="10.00">algorithm</text>
</a>
</g>
</g>
<!-- Node23&#45;&gt;Node24 -->
<g id="edge27" class="edge">
<title>Node23&#45;&gt;Node24</title>
<path fill="none" stroke="midnightblue" d="M382.52,-168.32C368.95,-159.9 348.12,-146.97 332.18,-137.07"/>
<polygon fill="midnightblue" stroke="midnightblue" points="333.79,-133.95 323.44,-131.65 330.09,-139.9 333.79,-133.95"/>
</g>
<!-- Node25 -->
<g id="node20" class="node">
<title>Node25</title>
<g id="a_node20"><a xlink:title=" ">
<polygon fill="none" stroke="#bfbfbf" points="359.5,-112.5 359.5,-131.5 433.5,-131.5 433.5,-112.5 359.5,-112.5"/>
<text text-anchor="middle" x="396.5" y="-119.5" font-family="Helvetica,sans-Serif" font-size="10.00">forward_list</text>
</a>
</g>
</g>
<!-- Node23&#45;&gt;Node25 -->
<g id="edge28" class="edge">
<title>Node23&#45;&gt;Node25</title>
<path fill="none" stroke="midnightblue" d="M396.5,-168.08C396.5,-161.01 396.5,-150.86 396.5,-141.99"/>
<polygon fill="midnightblue" stroke="midnightblue" points="400,-141.75 396.5,-131.75 393,-141.75 400,-141.75"/>
</g>
<!-- Node26 -->
<g id="node21" class="node">
<title>Node26</title>
<g id="a_node21"><a xlink:href="as__const_8h.html" target="_top" xlink:title=" ">
<polygon fill="none" stroke="black" points="451.5,-112.5 451.5,-131.5 519.5,-131.5 519.5,-112.5 451.5,-112.5"/>
<text text-anchor="middle" x="485.5" y="-119.5" font-family="Helvetica,sans-Serif" font-size="10.00">as_const.h</text>
</a>
</g>
</g>
<!-- Node23&#45;&gt;Node26 -->
<g id="edge29" class="edge">
<title>Node23&#45;&gt;Node26</title>
<path fill="none" stroke="midnightblue" d="M410.8,-168.32C424.68,-159.9 445.99,-146.97 462.3,-137.07"/>
<polygon fill="midnightblue" stroke="midnightblue" points="464.5,-139.83 471.24,-131.65 460.87,-133.85 464.5,-139.83"/>
</g>
<!-- Node27 -->
<g id="node22" class="node">
<title>Node27</title>
<g id="a_node22"><a xlink:href="narrow_8h.html" target="_top" xlink:title=" ">
<polygon fill="none" stroke="black" points="0,-112.5 0,-131.5 59,-131.5 59,-112.5 0,-112.5"/>
<text text-anchor="middle" x="29.5" y="-119.5" font-family="Helvetica,sans-Serif" font-size="10.00">narrow.h</text>
</a>
</g>
</g>
<!-- Node23&#45;&gt;Node27 -->
<g id="edge30" class="edge">
<title>Node23&#45;&gt;Node27</title>
<path fill="none" stroke="midnightblue" d="M338.35,-168.44C263.3,-157.4 134.66,-138.47 69.63,-128.91"/>
<polygon fill="midnightblue" stroke="midnightblue" points="69.79,-125.39 59.39,-127.4 68.77,-132.32 69.79,-125.39"/>
</g>
<!-- Node27&#45;&gt;Node7 -->
<g id="edge32" class="edge">
<title>Node27&#45;&gt;Node7</title>
<path fill="none" stroke="midnightblue" d="M53.11,-112.44C77.96,-103.44 117.27,-89.19 145.25,-79.05"/>
<polygon fill="midnightblue" stroke="midnightblue" points="146.79,-82.21 155,-75.52 144.41,-75.63 146.79,-82.21"/>
</g>
<!-- Node27&#45;&gt;Node10 -->
<g id="edge31" class="edge">
<title>Node27&#45;&gt;Node10</title>
<path fill="none" stroke="midnightblue" d="M32.8,-112.37C39.63,-94.46 55.49,-52.92 64.65,-28.95"/>
<polygon fill="midnightblue" stroke="midnightblue" points="67.92,-30.18 68.22,-19.59 61.38,-27.69 67.92,-30.18"/>
</g>
<!-- Node29 -->
<g id="node24" class="node">
<title>Node29</title>
<g id="a_node24"><a xlink:title=" ">
<polygon fill="none" stroke="#bfbfbf" points="98,-168.5 98,-187.5 211,-187.5 211,-168.5 98,-168.5"/>
<text text-anchor="middle" x="154.5" y="-175.5" font-family="Helvetica,sans-Serif" font-size="10.00">nonstd/optional.hpp</text>
</a>
</g>
</g>
<!-- Node28&#45;&gt;Node29 -->
<g id="edge34" class="edge">
<title>Node28&#45;&gt;Node29</title>
<path fill="none" stroke="midnightblue" d="M180.38,-224.08C176.09,-216.61 169.84,-205.72 164.56,-196.52"/>
<polygon fill="midnightblue" stroke="midnightblue" points="167.54,-194.68 159.52,-187.75 161.47,-198.17 167.54,-194.68"/>
</g>
</g>
</svg>
