<?xml version="1.0" encoding="UTF-8" standalone="no"?>
<!DOCTYPE svg PUBLIC "-//W3C//DTD SVG 1.1//EN"
 "http://www.w3.org/Graphics/SVG/1.1/DTD/svg11.dtd">
<!-- Generated by graphviz version 2.43.0 (0)
 -->
<!-- Title: /home/runner/work/cbmc/cbmc/src/goto&#45;instrument/wmm/event_graph.cpp Pages: 1 -->
<svg width="1117pt" height="498pt"
 viewBox="0.00 0.00 1117.00 498.00" xmlns="http://www.w3.org/2000/svg" xmlns:xlink="http://www.w3.org/1999/xlink">
<g id="graph0" class="graph" transform="scale(1 1) rotate(0) translate(4 494)">
<title>/home/runner/work/cbmc/cbmc/src/goto&#45;instrument/wmm/event_graph.cpp</title>
<!-- Node1 -->
<g id="node1" class="node">
<title>Node1</title>
<g id="a_node1"><a xlink:title=" ">
<polygon fill="#bfbfbf" stroke="black" points="525.5,-448.5 525.5,-489.5 670.5,-489.5 670.5,-448.5 525.5,-448.5"/>
<text text-anchor="start" x="533.5" y="-477.5" font-family="Helvetica,sans-Serif" font-size="10.00">/home/runner/work/cbmc</text>
<text text-anchor="start" x="533.5" y="-466.5" font-family="Helvetica,sans-Serif" font-size="10.00">/cbmc/src/goto&#45;instrument</text>
<text text-anchor="middle" x="598" y="-455.5" font-family="Helvetica,sans-Serif" font-size="10.00">/wmm/event_graph.cpp</text>
</a>
</g>
</g>
<!-- Node2 -->
<g id="node2" class="node">
<title>Node2</title>
<g id="a_node2"><a xlink:href="event__graph_8h.html" target="_top" xlink:title=" ">
<polygon fill="none" stroke="black" points="355,-392.5 355,-411.5 441,-411.5 441,-392.5 355,-392.5"/>
<text text-anchor="middle" x="398" y="-399.5" font-family="Helvetica,sans-Serif" font-size="10.00">event_graph.h</text>
</a>
</g>
</g>
<!-- Node1&#45;&gt;Node2 -->
<g id="edge1" class="edge">
<title>Node1&#45;&gt;Node2</title>
<path fill="none" stroke="midnightblue" d="M537.99,-448.5C504.13,-437.49 462.94,-424.11 434.04,-414.71"/>
<polygon fill="midnightblue" stroke="midnightblue" points="434.95,-411.33 424.36,-411.57 432.79,-417.99 434.95,-411.33"/>
</g>
<!-- Node39 -->
<g id="node33" class="node">
<title>Node39</title>
<g id="a_node33"><a xlink:href="src_2util_2message_8h.html" target="_top" xlink:title=" ">
<polygon fill="none" stroke="black" points="624.5,-336.5 624.5,-355.5 713.5,-355.5 713.5,-336.5 624.5,-336.5"/>
<text text-anchor="middle" x="669" y="-343.5" font-family="Helvetica,sans-Serif" font-size="10.00">util/message.h</text>
</a>
</g>
</g>
<!-- Node1&#45;&gt;Node39 -->
<g id="edge51" class="edge">
<title>Node1&#45;&gt;Node39</title>
<path fill="none" stroke="midnightblue" d="M599.97,-448.34C602.31,-432.21 607.33,-409.3 618,-392 625.36,-380.06 636.87,-369.52 647.09,-361.64"/>
<polygon fill="midnightblue" stroke="midnightblue" points="649.24,-364.41 655.25,-355.68 645.11,-358.75 649.24,-364.41"/>
</g>
<!-- Node40 -->
<g id="node34" class="node">
<title>Node40</title>
<g id="a_node34"><a xlink:title=" ">
<polygon fill="none" stroke="#bfbfbf" points="626.5,-392.5 626.5,-411.5 681.5,-411.5 681.5,-392.5 626.5,-392.5"/>
<text text-anchor="middle" x="654" y="-399.5" font-family="Helvetica,sans-Serif" font-size="10.00">fstream</text>
</a>
</g>
</g>
<!-- Node1&#45;&gt;Node40 -->
<g id="edge59" class="edge">
<title>Node1&#45;&gt;Node40</title>
<path fill="none" stroke="midnightblue" d="M614.8,-448.5C622.81,-439.2 632.28,-428.21 639.91,-419.36"/>
<polygon fill="midnightblue" stroke="midnightblue" points="642.67,-421.51 646.55,-411.65 637.37,-416.94 642.67,-421.51"/>
</g>
<!-- Node3 -->
<g id="node3" class="node">
<title>Node3</title>
<g id="a_node3"><a xlink:title=" ">
<polygon fill="none" stroke="#bfbfbf" points="401,-224.5 401,-243.5 433,-243.5 433,-224.5 401,-224.5"/>
<text text-anchor="middle" x="417" y="-231.5" font-family="Helvetica,sans-Serif" font-size="10.00">list</text>
</a>
</g>
</g>
<!-- Node2&#45;&gt;Node3 -->
<g id="edge2" class="edge">
<title>Node2&#45;&gt;Node3</title>
<path fill="none" stroke="midnightblue" d="M399.02,-392.08C402.01,-365.95 410.8,-289.21 414.87,-253.58"/>
<polygon fill="midnightblue" stroke="midnightblue" points="418.36,-253.9 416.02,-243.57 411.4,-253.11 418.36,-253.9"/>
</g>
<!-- Node4 -->
<g id="node4" class="node">
<title>Node4</title>
<g id="a_node4"><a xlink:title=" ">
<polygon fill="none" stroke="#bfbfbf" points="446,-280.5 446,-299.5 478,-299.5 478,-280.5 446,-280.5"/>
<text text-anchor="middle" x="462" y="-287.5" font-family="Helvetica,sans-Serif" font-size="10.00">set</text>
</a>
</g>
</g>
<!-- Node2&#45;&gt;Node4 -->
<g id="edge3" class="edge">
<title>Node2&#45;&gt;Node4</title>
<path fill="none" stroke="midnightblue" d="M405.09,-392.37C412.14,-383.56 423.05,-369.3 431,-356 440.11,-340.76 448.66,-322.42 454.46,-309.12"/>
<polygon fill="midnightblue" stroke="midnightblue" points="457.78,-310.25 458.48,-299.68 451.34,-307.5 457.78,-310.25"/>
</g>
<!-- Node5 -->
<g id="node5" class="node">
<title>Node5</title>
<g id="a_node5"><a xlink:title=" ">
<polygon fill="none" stroke="#bfbfbf" points="28,-224.5 28,-243.5 66,-243.5 66,-224.5 28,-224.5"/>
<text text-anchor="middle" x="47" y="-231.5" font-family="Helvetica,sans-Serif" font-size="10.00">map</text>
</a>
</g>
</g>
<!-- Node2&#45;&gt;Node5 -->
<g id="edge4" class="edge">
<title>Node2&#45;&gt;Node5</title>
<path fill="none" stroke="midnightblue" d="M354.84,-393.79C319.43,-386.91 268.54,-374.78 227,-356 162.71,-326.93 96.1,-275.59 65.01,-250.15"/>
<polygon fill="midnightblue" stroke="midnightblue" points="67.15,-247.38 57.21,-243.71 62.69,-252.78 67.15,-247.38"/>
</g>
<!-- Node6 -->
<g id="node6" class="node">
<title>Node6</title>
<g id="a_node6"><a xlink:title=" ">
<polygon fill="none" stroke="#bfbfbf" points="249,-56.5 249,-75.5 297,-75.5 297,-56.5 249,-56.5"/>
<text text-anchor="middle" x="273" y="-63.5" font-family="Helvetica,sans-Serif" font-size="10.00">iosfwd</text>
</a>
</g>
</g>
<!-- Node2&#45;&gt;Node6 -->
<g id="edge5" class="edge">
<title>Node2&#45;&gt;Node6</title>
<path fill="none" stroke="midnightblue" d="M354.65,-398.22C251.5,-390.43 0,-363.94 0,-291 0,-291 0,-291 0,-177 0,-126.1 165.3,-87.81 238.65,-73.33"/>
<polygon fill="midnightblue" stroke="midnightblue" points="239.62,-76.7 248.77,-71.36 238.29,-69.83 239.62,-76.7"/>
</g>
<!-- Node7 -->
<g id="node7" class="node">
<title>Node7</title>
<g id="a_node7"><a xlink:href="graph_8h.html" target="_top" xlink:title=" ">
<polygon fill="none" stroke="black" points="267,-280.5 267,-299.5 339,-299.5 339,-280.5 267,-280.5"/>
<text text-anchor="middle" x="303" y="-287.5" font-family="Helvetica,sans-Serif" font-size="10.00">util/graph.h</text>
</a>
</g>
</g>
<!-- Node2&#45;&gt;Node7 -->
<g id="edge6" class="edge">
<title>Node2&#45;&gt;Node7</title>
<path fill="none" stroke="midnightblue" d="M394.22,-392.35C388.23,-379.23 375.61,-353.95 360,-336 349.95,-324.44 336.59,-313.71 325.34,-305.64"/>
<polygon fill="midnightblue" stroke="midnightblue" points="327.08,-302.58 316.87,-299.76 323.09,-308.34 327.08,-302.58"/>
</g>
<!-- Node14 -->
<g id="node14" class="node">
<title>Node14</title>
<g id="a_node14"><a xlink:href="src_2util_2invariant_8h.html" target="_top" xlink:title=" ">
<polygon fill="none" stroke="black" points="783.5,-56.5 783.5,-75.5 852.5,-75.5 852.5,-56.5 783.5,-56.5"/>
<text text-anchor="middle" x="818" y="-63.5" font-family="Helvetica,sans-Serif" font-size="10.00">invariant.h</text>
</a>
</g>
</g>
<!-- Node2&#45;&gt;Node14 -->
<g id="edge21" class="edge">
<title>Node2&#45;&gt;Node14</title>
<path fill="none" stroke="midnightblue" d="M441.14,-398.91C595.18,-390.87 1109,-358.96 1109,-291 1109,-291 1109,-291 1109,-233 1109,-120.89 944.02,-83.49 862.51,-71.86"/>
<polygon fill="midnightblue" stroke="midnightblue" points="862.9,-68.38 852.52,-70.51 861.96,-75.32 862.9,-68.38"/>
</g>
<!-- Node18 -->
<g id="node18" class="node">
<title>Node18</title>
<g id="a_node18"><a xlink:href="abstract__event_8h.html" target="_top" xlink:title=" ">
<polygon fill="none" stroke="black" points="253,-336.5 253,-355.5 351,-355.5 351,-336.5 253,-336.5"/>
<text text-anchor="middle" x="302" y="-343.5" font-family="Helvetica,sans-Serif" font-size="10.00">abstract_event.h</text>
</a>
</g>
</g>
<!-- Node2&#45;&gt;Node18 -->
<g id="edge22" class="edge">
<title>Node2&#45;&gt;Node18</title>
<path fill="none" stroke="midnightblue" d="M382.58,-392.32C367.46,-383.82 344.18,-370.73 326.53,-360.8"/>
<polygon fill="midnightblue" stroke="midnightblue" points="327.82,-357.51 317.39,-355.65 324.39,-363.61 327.82,-357.51"/>
</g>
<!-- Node37 -->
<g id="node31" class="node">
<title>Node37</title>
<g id="a_node31"><a xlink:href="wmm_8h.html" target="_top" xlink:title=" ">
<polygon fill="none" stroke="black" points="195.5,-280.5 195.5,-299.5 248.5,-299.5 248.5,-280.5 195.5,-280.5"/>
<text text-anchor="middle" x="222" y="-287.5" font-family="Helvetica,sans-Serif" font-size="10.00">wmm.h</text>
</a>
</g>
</g>
<!-- Node2&#45;&gt;Node37 -->
<g id="edge50" class="edge">
<title>Node2&#45;&gt;Node37</title>
<path fill="none" stroke="midnightblue" d="M354.79,-398.96C320.58,-395.11 273.76,-384.53 244,-356 231.51,-344.03 226.11,-324.73 223.78,-310.26"/>
<polygon fill="midnightblue" stroke="midnightblue" points="227.2,-309.42 222.49,-299.93 220.26,-310.29 227.2,-309.42"/>
</g>
<!-- Node38 -->
<g id="node32" class="node">
<title>Node38</title>
<g id="a_node32"><a xlink:href="data__dp_8h.html" target="_top" xlink:title=" ">
<polygon fill="none" stroke="black" points="483.5,-336.5 483.5,-355.5 548.5,-355.5 548.5,-336.5 483.5,-336.5"/>
<text text-anchor="middle" x="516" y="-343.5" font-family="Helvetica,sans-Serif" font-size="10.00">data_dp.h</text>
</a>
</g>
</g>
<!-- Node2&#45;&gt;Node38 -->
<g id="edge47" class="edge">
<title>Node2&#45;&gt;Node38</title>
<path fill="none" stroke="midnightblue" d="M416.7,-392.44C435.94,-383.64 466.15,-369.81 488.2,-359.72"/>
<polygon fill="midnightblue" stroke="midnightblue" points="489.75,-362.86 497.39,-355.52 486.84,-356.5 489.75,-362.86"/>
</g>
<!-- Node7&#45;&gt;Node3 -->
<g id="edge10" class="edge">
<title>Node7&#45;&gt;Node3</title>
<path fill="none" stroke="midnightblue" d="M321.06,-280.44C340.12,-271.42 370.3,-257.12 391.71,-246.98"/>
<polygon fill="midnightblue" stroke="midnightblue" points="393.33,-250.09 400.86,-242.64 390.33,-243.76 393.33,-250.09"/>
</g>
<!-- Node7&#45;&gt;Node5 -->
<g id="edge11" class="edge">
<title>Node7&#45;&gt;Node5</title>
<path fill="none" stroke="midnightblue" d="M266.58,-281.79C208.08,-270.19 97.92,-248.25 80,-244 78.73,-243.7 77.44,-243.38 76.14,-243.06"/>
<polygon fill="midnightblue" stroke="midnightblue" points="76.7,-239.59 66.14,-240.45 74.93,-246.36 76.7,-239.59"/>
</g>
<!-- Node7&#45;&gt;Node6 -->
<g id="edge9" class="edge">
<title>Node7&#45;&gt;Node6</title>
<path fill="none" stroke="midnightblue" d="M266.64,-281.59C212.83,-270.46 117.81,-250.08 113,-244 62.01,-179.52 186.23,-108.64 244.65,-80.04"/>
<polygon fill="midnightblue" stroke="midnightblue" points="246.26,-83.15 253.75,-75.66 243.22,-76.84 246.26,-83.15"/>
</g>
<!-- Node8 -->
<g id="node8" class="node">
<title>Node8</title>
<g id="a_node8"><a xlink:title=" ">
<polygon fill="none" stroke="#bfbfbf" points="363,-112.5 363,-131.5 427,-131.5 427,-112.5 363,-112.5"/>
<text text-anchor="middle" x="395" y="-119.5" font-family="Helvetica,sans-Serif" font-size="10.00">algorithm</text>
</a>
</g>
</g>
<!-- Node7&#45;&gt;Node8 -->
<g id="edge7" class="edge">
<title>Node7&#45;&gt;Node8</title>
<path fill="none" stroke="midnightblue" d="M307.95,-280.08C322.55,-253.72 365.69,-175.88 385.21,-140.66"/>
<polygon fill="midnightblue" stroke="midnightblue" points="388.47,-142.01 390.25,-131.57 382.34,-138.62 388.47,-142.01"/>
</g>
<!-- Node9 -->
<g id="node9" class="node">
<title>Node9</title>
<g id="a_node9"><a xlink:title=" ">
<polygon fill="none" stroke="#bfbfbf" points="451.5,-224.5 451.5,-243.5 516.5,-243.5 516.5,-224.5 451.5,-224.5"/>
<text text-anchor="middle" x="484" y="-231.5" font-family="Helvetica,sans-Serif" font-size="10.00">functional</text>
</a>
</g>
</g>
<!-- Node7&#45;&gt;Node9 -->
<g id="edge8" class="edge">
<title>Node7&#45;&gt;Node9</title>
<path fill="none" stroke="midnightblue" d="M331.68,-280.44C362.53,-271.24 411.73,-256.56 445.83,-246.39"/>
<polygon fill="midnightblue" stroke="midnightblue" points="446.87,-249.73 455.45,-243.52 444.87,-243.02 446.87,-249.73"/>
</g>
<!-- Node10 -->
<g id="node10" class="node">
<title>Node10</title>
<g id="a_node10"><a xlink:title=" ">
<polygon fill="none" stroke="#bfbfbf" points="122.5,-224.5 122.5,-243.5 169.5,-243.5 169.5,-224.5 122.5,-224.5"/>
<text text-anchor="middle" x="146" y="-231.5" font-family="Helvetica,sans-Serif" font-size="10.00">queue</text>
</a>
</g>
</g>
<!-- Node7&#45;&gt;Node10 -->
<g id="edge12" class="edge">
<title>Node7&#45;&gt;Node10</title>
<path fill="none" stroke="midnightblue" d="M278.12,-280.44C251.4,-271.25 208.8,-256.6 179.22,-246.43"/>
<polygon fill="midnightblue" stroke="midnightblue" points="180.33,-243.11 169.73,-243.16 178.05,-249.73 180.33,-243.11"/>
</g>
<!-- Node11 -->
<g id="node11" class="node">
<title>Node11</title>
<g id="a_node11"><a xlink:title=" ">
<polygon fill="none" stroke="#bfbfbf" points="307,-0.5 307,-19.5 363,-19.5 363,-0.5 307,-0.5"/>
<text text-anchor="middle" x="335" y="-7.5" font-family="Helvetica,sans-Serif" font-size="10.00">sstream</text>
</a>
</g>
</g>
<!-- Node7&#45;&gt;Node11 -->
<g id="edge13" class="edge">
<title>Node7&#45;&gt;Node11</title>
<path fill="none" stroke="midnightblue" d="M296.02,-280.23C271.18,-247.88 191.15,-133.19 240,-56 252.5,-36.25 276.26,-25 296.89,-18.69"/>
<polygon fill="midnightblue" stroke="midnightblue" points="298,-22.01 306.71,-15.97 296.13,-15.27 298,-22.01"/>
</g>
<!-- Node12 -->
<g id="node12" class="node">
<title>Node12</title>
<g id="a_node12"><a xlink:title=" ">
<polygon fill="none" stroke="#bfbfbf" points="187.5,-224.5 187.5,-243.5 230.5,-243.5 230.5,-224.5 187.5,-224.5"/>
<text text-anchor="middle" x="209" y="-231.5" font-family="Helvetica,sans-Serif" font-size="10.00">stack</text>
</a>
</g>
</g>
<!-- Node7&#45;&gt;Node12 -->
<g id="edge14" class="edge">
<title>Node7&#45;&gt;Node12</title>
<path fill="none" stroke="midnightblue" d="M287.9,-280.32C273.1,-271.82 250.31,-258.73 233.02,-248.8"/>
<polygon fill="midnightblue" stroke="midnightblue" points="234.48,-245.6 224.07,-243.65 230.99,-251.67 234.48,-245.6"/>
</g>
<!-- Node13 -->
<g id="node13" class="node">
<title>Node13</title>
<g id="a_node13"><a xlink:title=" ">
<polygon fill="none" stroke="#bfbfbf" points="441.5,-168.5 441.5,-187.5 488.5,-187.5 488.5,-168.5 441.5,-168.5"/>
<text text-anchor="middle" x="465" y="-175.5" font-family="Helvetica,sans-Serif" font-size="10.00">vector</text>
</a>
</g>
</g>
<!-- Node7&#45;&gt;Node13 -->
<g id="edge15" class="edge">
<title>Node7&#45;&gt;Node13</title>
<path fill="none" stroke="midnightblue" d="M314.32,-280.29C331.03,-267.54 363.41,-243.21 392,-224 408.22,-213.1 427,-201.55 441.44,-192.88"/>
<polygon fill="midnightblue" stroke="midnightblue" points="443.45,-195.76 450.24,-187.63 439.86,-189.75 443.45,-195.76"/>
</g>
<!-- Node7&#45;&gt;Node14 -->
<g id="edge16" class="edge">
<title>Node7&#45;&gt;Node14</title>
<path fill="none" stroke="midnightblue" d="M302.44,-280.22C301.09,-250.92 301.12,-155.95 354,-112 385.84,-85.53 663.3,-72.62 773.32,-68.51"/>
<polygon fill="midnightblue" stroke="midnightblue" points="773.57,-72 783.44,-68.14 773.31,-65.01 773.57,-72"/>
</g>
<!-- Node14&#45;&gt;Node11 -->
<g id="edge18" class="edge">
<title>Node14&#45;&gt;Node11</title>
<path fill="none" stroke="midnightblue" d="M783.26,-61.12C695.37,-51.29 464.65,-25.49 373.16,-15.27"/>
<polygon fill="midnightblue" stroke="midnightblue" points="373.55,-11.79 363.22,-14.16 372.77,-18.74 373.55,-11.79"/>
</g>
<!-- Node15 -->
<g id="node15" class="node">
<title>Node15</title>
<g id="a_node15"><a xlink:title=" ">
<polygon fill="none" stroke="#bfbfbf" points="793.5,-0.5 793.5,-19.5 842.5,-19.5 842.5,-0.5 793.5,-0.5"/>
<text text-anchor="middle" x="818" y="-7.5" font-family="Helvetica,sans-Serif" font-size="10.00">cstdlib</text>
</a>
</g>
</g>
<!-- Node14&#45;&gt;Node15 -->
<g id="edge17" class="edge">
<title>Node14&#45;&gt;Node15</title>
<path fill="none" stroke="midnightblue" d="M818,-56.08C818,-49.01 818,-38.86 818,-29.99"/>
<polygon fill="midnightblue" stroke="midnightblue" points="821.5,-29.75 818,-19.75 814.5,-29.75 821.5,-29.75"/>
</g>
<!-- Node16 -->
<g id="node16" class="node">
<title>Node16</title>
<g id="a_node16"><a xlink:title=" ">
<polygon fill="none" stroke="#bfbfbf" points="897,-0.5 897,-19.5 941,-19.5 941,-0.5 897,-0.5"/>
<text text-anchor="middle" x="919" y="-7.5" font-family="Helvetica,sans-Serif" font-size="10.00">string</text>
</a>
</g>
</g>
<!-- Node14&#45;&gt;Node16 -->
<g id="edge19" class="edge">
<title>Node14&#45;&gt;Node16</title>
<path fill="none" stroke="midnightblue" d="M834.23,-56.32C850.35,-47.7 875.3,-34.36 893.96,-24.39"/>
<polygon fill="midnightblue" stroke="midnightblue" points="895.64,-27.46 902.81,-19.65 892.34,-21.28 895.64,-27.46"/>
</g>
<!-- Node17 -->
<g id="node17" class="node">
<title>Node17</title>
<g id="a_node17"><a xlink:title=" ">
<polygon fill="none" stroke="#bfbfbf" points="662.5,-0.5 662.5,-19.5 731.5,-19.5 731.5,-0.5 662.5,-0.5"/>
<text text-anchor="middle" x="697" y="-7.5" font-family="Helvetica,sans-Serif" font-size="10.00">type_traits</text>
</a>
</g>
</g>
<!-- Node14&#45;&gt;Node17 -->
<g id="edge20" class="edge">
<title>Node14&#45;&gt;Node17</title>
<path fill="none" stroke="midnightblue" d="M798.83,-56.44C779.09,-47.64 748.11,-33.81 725.51,-23.72"/>
<polygon fill="midnightblue" stroke="midnightblue" points="726.64,-20.4 716.08,-19.52 723.79,-26.79 726.64,-20.4"/>
</g>
<!-- Node18&#45;&gt;Node7 -->
<g id="edge45" class="edge">
<title>Node18&#45;&gt;Node7</title>
<path fill="none" stroke="midnightblue" d="M302.17,-336.08C302.3,-329.01 302.48,-318.86 302.65,-309.99"/>
<polygon fill="midnightblue" stroke="midnightblue" points="306.15,-309.81 302.84,-299.75 299.15,-309.68 306.15,-309.81"/>
</g>
<!-- Node19 -->
<g id="node19" class="node">
<title>Node19</title>
<g id="a_node19"><a xlink:href="source__location_8h.html" target="_top" xlink:title=" ">
<polygon fill="none" stroke="black" points="666.5,-280.5 666.5,-299.5 787.5,-299.5 787.5,-280.5 666.5,-280.5"/>
<text text-anchor="middle" x="727" y="-287.5" font-family="Helvetica,sans-Serif" font-size="10.00">util/source_location.h</text>
</a>
</g>
</g>
<!-- Node18&#45;&gt;Node19 -->
<g id="edge23" class="edge">
<title>Node18&#45;&gt;Node19</title>
<path fill="none" stroke="midnightblue" d="M351.17,-338.75C426.31,-329.21 570.05,-310.94 656.35,-299.98"/>
<polygon fill="midnightblue" stroke="midnightblue" points="656.85,-303.44 666.33,-298.71 655.96,-296.5 656.85,-303.44"/>
</g>
<!-- Node18&#45;&gt;Node37 -->
<g id="edge46" class="edge">
<title>Node18&#45;&gt;Node37</title>
<path fill="none" stroke="midnightblue" d="M289.15,-336.32C276.78,-327.98 257.87,-315.21 243.26,-305.35"/>
<polygon fill="midnightblue" stroke="midnightblue" points="245.07,-302.35 234.82,-299.65 241.15,-308.15 245.07,-302.35"/>
</g>
<!-- Node19&#45;&gt;Node16 -->
<g id="edge44" class="edge">
<title>Node19&#45;&gt;Node16</title>
<path fill="none" stroke="midnightblue" d="M756.88,-280.43C784.73,-272.14 827.23,-258.7 863,-244 888.92,-233.35 961.22,-211.81 976,-188 1008.98,-134.84 959.37,-60.74 933.31,-27.86"/>
<polygon fill="midnightblue" stroke="midnightblue" points="935.71,-25.27 926.67,-19.74 930.29,-29.69 935.71,-25.27"/>
</g>
<!-- Node20 -->
<g id="node20" class="node">
<title>Node20</title>
<g id="a_node20"><a xlink:href="deprecate_8h.html" target="_top" xlink:title=" ">
<polygon fill="none" stroke="black" points="931,-224.5 931,-243.5 1005,-243.5 1005,-224.5 931,-224.5"/>
<text text-anchor="middle" x="968" y="-231.5" font-family="Helvetica,sans-Serif" font-size="10.00">deprecate.h</text>
</a>
</g>
</g>
<!-- Node19&#45;&gt;Node20 -->
<g id="edge24" class="edge">
<title>Node19&#45;&gt;Node20</title>
<path fill="none" stroke="midnightblue" d="M765.19,-280.44C807.39,-270.99 875.39,-255.75 920.87,-245.56"/>
<polygon fill="midnightblue" stroke="midnightblue" points="921.79,-248.94 930.78,-243.34 920.26,-242.11 921.79,-248.94"/>
</g>
<!-- Node21 -->
<g id="node21" class="node">
<title>Node21</title>
<g id="a_node21"><a xlink:href="irep_8h.html" target="_top" xlink:title=" ">
<polygon fill="none" stroke="black" points="705,-224.5 705,-243.5 749,-243.5 749,-224.5 705,-224.5"/>
<text text-anchor="middle" x="727" y="-231.5" font-family="Helvetica,sans-Serif" font-size="10.00">irep.h</text>
</a>
</g>
</g>
<!-- Node19&#45;&gt;Node21 -->
<g id="edge25" class="edge">
<title>Node19&#45;&gt;Node21</title>
<path fill="none" stroke="midnightblue" d="M727,-280.08C727,-273.01 727,-262.86 727,-253.99"/>
<polygon fill="midnightblue" stroke="midnightblue" points="730.5,-253.75 727,-243.75 723.5,-253.75 730.5,-253.75"/>
</g>
<!-- Node35 -->
<g id="node29" class="node">
<title>Node35</title>
<g id="a_node29"><a xlink:href="optional_8h.html" target="_top" xlink:title=" ">
<polygon fill="none" stroke="black" points="788.5,-224.5 788.5,-243.5 853.5,-243.5 853.5,-224.5 788.5,-224.5"/>
<text text-anchor="middle" x="821" y="-231.5" font-family="Helvetica,sans-Serif" font-size="10.00">optional.h</text>
</a>
</g>
</g>
<!-- Node19&#45;&gt;Node35 -->
<g id="edge42" class="edge">
<title>Node19&#45;&gt;Node35</title>
<path fill="none" stroke="midnightblue" d="M742.1,-280.32C756.9,-271.82 779.69,-258.73 796.98,-248.8"/>
<polygon fill="midnightblue" stroke="midnightblue" points="799.01,-251.67 805.93,-243.65 795.52,-245.6 799.01,-251.67"/>
</g>
<!-- Node21&#45;&gt;Node13 -->
<g id="edge27" class="edge">
<title>Node21&#45;&gt;Node13</title>
<path fill="none" stroke="midnightblue" d="M704.89,-229.12C664.05,-221.85 574.09,-205.33 499,-188 498.9,-187.98 498.79,-187.95 498.69,-187.93"/>
<polygon fill="midnightblue" stroke="midnightblue" points="499.28,-184.47 488.73,-185.49 497.61,-191.27 499.28,-184.47"/>
</g>
<!-- Node21&#45;&gt;Node14 -->
<g id="edge28" class="edge">
<title>Node21&#45;&gt;Node14</title>
<path fill="none" stroke="midnightblue" d="M737.76,-224.43C753.62,-211.85 784.31,-187.73 811,-168 833.31,-151.51 849.24,-156.63 862,-132 871.36,-113.93 854.83,-94.82 839.42,-82.04"/>
<polygon fill="midnightblue" stroke="midnightblue" points="841.2,-78.99 831.15,-75.63 836.92,-84.52 841.2,-78.99"/>
</g>
<!-- Node21&#45;&gt;Node16 -->
<g id="edge26" class="edge">
<title>Node21&#45;&gt;Node16</title>
<path fill="none" stroke="midnightblue" d="M748.99,-224.49C782.17,-210.47 844.62,-179.27 877,-132 899.12,-99.71 910.68,-54.61 915.74,-29.59"/>
<polygon fill="midnightblue" stroke="midnightblue" points="919.21,-30.1 917.63,-19.62 912.33,-28.8 919.21,-30.1"/>
</g>
<!-- Node22 -->
<g id="node22" class="node">
<title>Node22</title>
<g id="a_node22"><a xlink:href="irep__ids_8h.html" target="_top" xlink:title=" ">
<polygon fill="none" stroke="black" points="695,-168.5 695,-187.5 759,-187.5 759,-168.5 695,-168.5"/>
<text text-anchor="middle" x="727" y="-175.5" font-family="Helvetica,sans-Serif" font-size="10.00">irep_ids.h</text>
</a>
</g>
</g>
<!-- Node21&#45;&gt;Node22 -->
<g id="edge29" class="edge">
<title>Node21&#45;&gt;Node22</title>
<path fill="none" stroke="midnightblue" d="M727,-224.08C727,-217.01 727,-206.86 727,-197.99"/>
<polygon fill="midnightblue" stroke="midnightblue" points="730.5,-197.75 727,-187.75 723.5,-197.75 730.5,-197.75"/>
</g>
<!-- Node31 -->
<g id="node25" class="node">
<title>Node31</title>
<g id="a_node25"><a xlink:href="forward__list__as__map_8h.html" target="_top" xlink:title=" ">
<polygon fill="none" stroke="black" points="507.5,-168.5 507.5,-187.5 634.5,-187.5 634.5,-168.5 507.5,-168.5"/>
<text text-anchor="middle" x="571" y="-175.5" font-family="Helvetica,sans-Serif" font-size="10.00">forward_list_as_map.h</text>
</a>
</g>
</g>
<!-- Node21&#45;&gt;Node31 -->
<g id="edge35" class="edge">
<title>Node21&#45;&gt;Node31</title>
<path fill="none" stroke="midnightblue" d="M704.98,-225.38C679.1,-216.42 635.84,-201.44 605.49,-190.94"/>
<polygon fill="midnightblue" stroke="midnightblue" points="606.33,-187.53 595.74,-187.56 604.04,-194.14 606.33,-187.53"/>
</g>
<!-- Node23 -->
<g id="node23" class="node">
<title>Node23</title>
<g id="a_node23"><a xlink:href="dstring_8h.html" target="_top" xlink:title=" ">
<polygon fill="none" stroke="red" points="793.5,-112.5 793.5,-131.5 852.5,-131.5 852.5,-112.5 793.5,-112.5"/>
<text text-anchor="middle" x="823" y="-119.5" font-family="Helvetica,sans-Serif" font-size="10.00">dstring.h</text>
</a>
</g>
</g>
<!-- Node22&#45;&gt;Node23 -->
<g id="edge30" class="edge">
<title>Node22&#45;&gt;Node23</title>
<path fill="none" stroke="midnightblue" d="M742.42,-168.32C757.54,-159.82 780.82,-146.73 798.47,-136.8"/>
<polygon fill="midnightblue" stroke="midnightblue" points="800.61,-139.61 807.61,-131.65 797.18,-133.51 800.61,-139.61"/>
</g>
<!-- Node30 -->
<g id="node24" class="node">
<title>Node30</title>
<g id="a_node24"><a xlink:title=" ">
<polygon fill="none" stroke="#bfbfbf" points="701,-112.5 701,-131.5 775,-131.5 775,-112.5 701,-112.5"/>
<text text-anchor="middle" x="738" y="-119.5" font-family="Helvetica,sans-Serif" font-size="10.00">irep_ids.def</text>
</a>
</g>
</g>
<!-- Node22&#45;&gt;Node30 -->
<g id="edge34" class="edge">
<title>Node22&#45;&gt;Node30</title>
<path fill="none" stroke="midnightblue" d="M728.82,-168.08C730.27,-160.93 732.37,-150.64 734.19,-141.69"/>
<polygon fill="midnightblue" stroke="midnightblue" points="737.65,-142.25 736.22,-131.75 730.79,-140.85 737.65,-142.25"/>
</g>
<!-- Node23&#45;&gt;Node6 -->
<g id="edge31" class="edge">
<title>Node23&#45;&gt;Node6</title>
<path fill="none" stroke="midnightblue" d="M793.27,-113.69C790.15,-113.06 787.02,-112.48 784,-112 605.78,-83.73 389.56,-72.02 307.14,-68.37"/>
<polygon fill="midnightblue" stroke="midnightblue" points="307.23,-64.87 297.09,-67.93 306.93,-71.86 307.23,-64.87"/>
</g>
<!-- Node23&#45;&gt;Node14 -->
<g id="edge33" class="edge">
<title>Node23&#45;&gt;Node14</title>
<path fill="none" stroke="midnightblue" d="M822.17,-112.08C821.52,-105.01 820.58,-94.86 819.76,-85.99"/>
<polygon fill="midnightblue" stroke="midnightblue" points="823.22,-85.39 818.81,-75.75 816.25,-86.03 823.22,-85.39"/>
</g>
<!-- Node23&#45;&gt;Node16 -->
<g id="edge32" class="edge">
<title>Node23&#45;&gt;Node16</title>
<path fill="none" stroke="midnightblue" d="M830.53,-112.37C846.52,-94.05 884.05,-51.05 904.72,-27.36"/>
<polygon fill="midnightblue" stroke="midnightblue" points="907.56,-29.43 911.5,-19.59 902.29,-24.82 907.56,-29.43"/>
</g>
<!-- Node31&#45;&gt;Node8 -->
<g id="edge36" class="edge">
<title>Node31&#45;&gt;Node8</title>
<path fill="none" stroke="midnightblue" d="M543.11,-168.44C513.25,-159.28 465.69,-144.69 432.54,-134.52"/>
<polygon fill="midnightblue" stroke="midnightblue" points="433.34,-131.1 422.76,-131.52 431.29,-137.8 433.34,-131.1"/>
</g>
<!-- Node32 -->
<g id="node26" class="node">
<title>Node32</title>
<g id="a_node26"><a xlink:title=" ">
<polygon fill="none" stroke="#bfbfbf" points="445,-112.5 445,-131.5 519,-131.5 519,-112.5 445,-112.5"/>
<text text-anchor="middle" x="482" y="-119.5" font-family="Helvetica,sans-Serif" font-size="10.00">forward_list</text>
</a>
</g>
</g>
<!-- Node31&#45;&gt;Node32 -->
<g id="edge37" class="edge">
<title>Node31&#45;&gt;Node32</title>
<path fill="none" stroke="midnightblue" d="M556.7,-168.32C542.82,-159.9 521.51,-146.97 505.2,-137.07"/>
<polygon fill="midnightblue" stroke="midnightblue" points="506.63,-133.85 496.26,-131.65 503,-139.83 506.63,-133.85"/>
</g>
<!-- Node33 -->
<g id="node27" class="node">
<title>Node33</title>
<g id="a_node27"><a xlink:href="as__const_8h.html" target="_top" xlink:title=" ">
<polygon fill="none" stroke="black" points="537,-112.5 537,-131.5 605,-131.5 605,-112.5 537,-112.5"/>
<text text-anchor="middle" x="571" y="-119.5" font-family="Helvetica,sans-Serif" font-size="10.00">as_const.h</text>
</a>
</g>
</g>
<!-- Node31&#45;&gt;Node33 -->
<g id="edge38" class="edge">
<title>Node31&#45;&gt;Node33</title>
<path fill="none" stroke="midnightblue" d="M571,-168.08C571,-161.01 571,-150.86 571,-141.99"/>
<polygon fill="midnightblue" stroke="midnightblue" points="574.5,-141.75 571,-131.75 567.5,-141.75 574.5,-141.75"/>
</g>
<!-- Node34 -->
<g id="node28" class="node">
<title>Node34</title>
<g id="a_node28"><a xlink:href="narrow_8h.html" target="_top" xlink:title=" ">
<polygon fill="none" stroke="black" points="623.5,-112.5 623.5,-131.5 682.5,-131.5 682.5,-112.5 623.5,-112.5"/>
<text text-anchor="middle" x="653" y="-119.5" font-family="Helvetica,sans-Serif" font-size="10.00">narrow.h</text>
</a>
</g>
</g>
<!-- Node31&#45;&gt;Node34 -->
<g id="edge39" class="edge">
<title>Node31&#45;&gt;Node34</title>
<path fill="none" stroke="midnightblue" d="M584.17,-168.32C596.85,-159.98 616.23,-147.21 631.21,-137.35"/>
<polygon fill="midnightblue" stroke="midnightblue" points="633.43,-140.08 639.86,-131.65 629.58,-134.23 633.43,-140.08"/>
</g>
<!-- Node34&#45;&gt;Node14 -->
<g id="edge41" class="edge">
<title>Node34&#45;&gt;Node14</title>
<path fill="none" stroke="midnightblue" d="M679.14,-112.44C707.02,-103.32 751.35,-88.81 782.4,-78.65"/>
<polygon fill="midnightblue" stroke="midnightblue" points="783.56,-81.95 791.98,-75.52 781.38,-75.3 783.56,-81.95"/>
</g>
<!-- Node34&#45;&gt;Node17 -->
<g id="edge40" class="edge">
<title>Node34&#45;&gt;Node17</title>
<path fill="none" stroke="midnightblue" d="M656.45,-112.37C663.62,-94.46 680.23,-52.92 689.82,-28.95"/>
<polygon fill="midnightblue" stroke="midnightblue" points="693.1,-30.18 693.56,-19.59 686.6,-27.58 693.1,-30.18"/>
</g>
<!-- Node36 -->
<g id="node30" class="node">
<title>Node36</title>
<g id="a_node30"><a xlink:title=" ">
<polygon fill="none" stroke="#bfbfbf" points="853.5,-168.5 853.5,-187.5 966.5,-187.5 966.5,-168.5 853.5,-168.5"/>
<text text-anchor="middle" x="910" y="-175.5" font-family="Helvetica,sans-Serif" font-size="10.00">nonstd/optional.hpp</text>
</a>
</g>
</g>
<!-- Node35&#45;&gt;Node36 -->
<g id="edge43" class="edge">
<title>Node35&#45;&gt;Node36</title>
<path fill="none" stroke="midnightblue" d="M835.3,-224.32C849.18,-215.9 870.49,-202.97 886.8,-193.07"/>
<polygon fill="midnightblue" stroke="midnightblue" points="889,-195.83 895.74,-187.65 885.37,-189.85 889,-195.83"/>
</g>
<!-- Node38&#45;&gt;Node4 -->
<g id="edge48" class="edge">
<title>Node38&#45;&gt;Node4</title>
<path fill="none" stroke="midnightblue" d="M507.08,-336.08C499.22,-328.22 487.57,-316.57 478.08,-307.08"/>
<polygon fill="midnightblue" stroke="midnightblue" points="480.3,-304.35 470.75,-299.75 475.35,-309.3 480.3,-304.35"/>
</g>
<!-- Node38&#45;&gt;Node19 -->
<g id="edge49" class="edge">
<title>Node38&#45;&gt;Node19</title>
<path fill="none" stroke="midnightblue" d="M548.51,-336.68C584.85,-327.38 643.85,-312.28 683.99,-302.01"/>
<polygon fill="midnightblue" stroke="midnightblue" points="684.94,-305.38 693.76,-299.51 683.2,-298.6 684.94,-305.38"/>
</g>
<!-- Node39&#45;&gt;Node6 -->
<g id="edge53" class="edge">
<title>Node39&#45;&gt;Node6</title>
<path fill="none" stroke="midnightblue" d="M637.22,-336.42C615.95,-329.4 588.41,-317.7 569,-300 540.32,-273.85 557.26,-246.99 526,-224 464.83,-179.02 422.4,-229.78 359,-188 319.86,-162.21 292.93,-112 280.61,-85.08"/>
<polygon fill="midnightblue" stroke="midnightblue" points="283.72,-83.44 276.49,-75.7 277.31,-86.26 283.72,-83.44"/>
</g>
<!-- Node39&#45;&gt;Node9 -->
<g id="edge52" class="edge">
<title>Node39&#45;&gt;Node9</title>
<path fill="none" stroke="midnightblue" d="M624.4,-337.85C595.64,-331.54 558.59,-320.12 531,-300 514.18,-287.73 500.97,-267.63 492.9,-253.02"/>
<polygon fill="midnightblue" stroke="midnightblue" points="495.89,-251.18 488.15,-243.95 489.69,-254.43 495.89,-251.18"/>
</g>
<!-- Node39&#45;&gt;Node11 -->
<g id="edge54" class="edge">
<title>Node39&#45;&gt;Node11</title>
<path fill="none" stroke="midnightblue" d="M662.71,-336.26C646.35,-314.16 600.1,-255.54 548,-224 466.37,-174.58 404.28,-213.11 354,-132 334.28,-100.18 332.69,-54.91 333.63,-29.73"/>
<polygon fill="midnightblue" stroke="midnightblue" points="337.13,-29.87 334.18,-19.69 330.14,-29.49 337.13,-29.87"/>
</g>
<!-- Node39&#45;&gt;Node14 -->
<g id="edge57" class="edge">
<title>Node39&#45;&gt;Node14</title>
<path fill="none" stroke="midnightblue" d="M713.6,-338.69C798.53,-325.64 978.19,-292.81 1014,-244 1067.51,-171.07 922.12,-105.42 852.63,-79.15"/>
<polygon fill="midnightblue" stroke="midnightblue" points="853.56,-75.76 842.96,-75.56 851.12,-82.32 853.56,-75.76"/>
</g>
<!-- Node39&#45;&gt;Node16 -->
<g id="edge55" class="edge">
<title>Node39&#45;&gt;Node16</title>
<path fill="none" stroke="midnightblue" d="M713.56,-342.25C818.22,-334.58 1071,-308.44 1071,-235 1071,-235 1071,-235 1071,-121 1071,-62.22 995.48,-31.65 950.91,-18.73"/>
<polygon fill="midnightblue" stroke="midnightblue" points="951.67,-15.31 941.1,-16.03 949.81,-22.06 951.67,-15.31"/>
</g>
<!-- Node39&#45;&gt;Node19 -->
<g id="edge58" class="edge">
<title>Node39&#45;&gt;Node19</title>
<path fill="none" stroke="midnightblue" d="M678.32,-336.32C686.89,-328.34 699.81,-316.31 710.19,-306.65"/>
<polygon fill="midnightblue" stroke="midnightblue" points="712.58,-309.21 717.51,-299.83 707.81,-304.09 712.58,-309.21"/>
</g>
<!-- Node39&#45;&gt;Node20 -->
<g id="edge56" class="edge">
<title>Node39&#45;&gt;Node20</title>
<path fill="none" stroke="midnightblue" d="M694.08,-336.39C719.94,-327.47 761.38,-313.03 797,-300 845.87,-282.13 902.22,-260.51 936.46,-247.26"/>
<polygon fill="midnightblue" stroke="midnightblue" points="937.87,-250.47 945.93,-243.59 935.34,-243.94 937.87,-250.47"/>
</g>
</g>
</svg>
