<?xml version="1.0" encoding="UTF-8" standalone="no"?>
<!DOCTYPE svg PUBLIC "-//W3C//DTD SVG 1.1//EN"
 "http://www.w3.org/Graphics/SVG/1.1/DTD/svg11.dtd">
<!-- Generated by graphviz version 2.43.0 (0)
 -->
<!-- Title: /home/runner/work/cbmc/cbmc/src/goto&#45;checker/fault_localization_provider.h Pages: 1 -->
<svg width="1131pt" height="295pt"
 viewBox="0.00 0.00 1131.00 295.00" xmlns="http://www.w3.org/2000/svg" xmlns:xlink="http://www.w3.org/1999/xlink">
<g id="graph0" class="graph" transform="scale(1 1) rotate(0) translate(4 291)">
<title>/home/runner/work/cbmc/cbmc/src/goto&#45;checker/fault_localization_provider.h</title>
<!-- Node1 -->
<g id="node1" class="node">
<title>Node1</title>
<g id="a_node1"><a xlink:title="Interface for Goto Checkers to provide Fault Localization.">
<polygon fill="#bfbfbf" stroke="black" points="401.5,-245.5 401.5,-286.5 559.5,-286.5 559.5,-245.5 401.5,-245.5"/>
<text text-anchor="start" x="409.5" y="-274.5" font-family="Helvetica,sans-Serif" font-size="10.00">/home/runner/work/cbmc</text>
<text text-anchor="start" x="409.5" y="-263.5" font-family="Helvetica,sans-Serif" font-size="10.00">/cbmc/src/goto&#45;checker</text>
<text text-anchor="middle" x="480.5" y="-252.5" font-family="Helvetica,sans-Serif" font-size="10.00">/fault_localization_provider.h</text>
</a>
</g>
</g>
<!-- Node2 -->
<g id="node2" class="node">
<title>Node2</title>
<g id="a_node2"><a xlink:href="all__properties__verifier__with__fault__localization_8h.html" target="_top" xlink:title="Goto verifier for verifying all properties that stores traces and localizes faults.">
<polygon fill="none" stroke="black" points="159,-156.5 159,-208.5 300,-208.5 300,-156.5 159,-156.5"/>
<text text-anchor="start" x="167" y="-196.5" font-family="Helvetica,sans-Serif" font-size="10.00">/home/runner/work/cbmc</text>
<text text-anchor="start" x="167" y="-185.5" font-family="Helvetica,sans-Serif" font-size="10.00">/cbmc/src/goto&#45;checker</text>
<text text-anchor="start" x="167" y="-174.5" font-family="Helvetica,sans-Serif" font-size="10.00">/all_properties_verifier</text>
<text text-anchor="middle" x="229.5" y="-163.5" font-family="Helvetica,sans-Serif" font-size="10.00">_with_fault_localization.h</text>
</a>
</g>
</g>
<!-- Node1&#45;&gt;Node2 -->
<g id="edge1" class="edge">
<title>Node1&#45;&gt;Node2</title>
<path fill="none" stroke="midnightblue" d="M410.86,-242.39C376.4,-231.2 334.88,-217.72 300.27,-206.48"/>
<polygon fill="midnightblue" stroke="midnightblue" points="409.79,-245.72 420.38,-245.48 411.95,-239.06 409.79,-245.72"/>
</g>
<!-- Node5 -->
<g id="node5" class="node">
<title>Node5</title>
<g id="a_node5"><a xlink:href="goto__symex__fault__localizer_8h.html" target="_top" xlink:title="Fault Localization for Goto Symex.">
<polygon fill="none" stroke="black" points="671.5,-162 671.5,-203 833.5,-203 833.5,-162 671.5,-162"/>
<text text-anchor="start" x="679.5" y="-191" font-family="Helvetica,sans-Serif" font-size="10.00">/home/runner/work/cbmc</text>
<text text-anchor="start" x="679.5" y="-180" font-family="Helvetica,sans-Serif" font-size="10.00">/cbmc/src/goto&#45;checker</text>
<text text-anchor="middle" x="752.5" y="-169" font-family="Helvetica,sans-Serif" font-size="10.00">/goto_symex_fault_localizer.h</text>
</a>
</g>
</g>
<!-- Node1&#45;&gt;Node5 -->
<g id="edge4" class="edge">
<title>Node1&#45;&gt;Node5</title>
<path fill="none" stroke="midnightblue" d="M555.41,-242.55C596.79,-230.16 647.7,-214.9 687.41,-203"/>
<polygon fill="midnightblue" stroke="midnightblue" points="554.23,-239.26 545.65,-245.48 556.23,-245.96 554.23,-239.26"/>
</g>
<!-- Node8 -->
<g id="node8" class="node">
<title>Node8</title>
<g id="a_node8"><a xlink:href="multi__path__symex__checker_8h.html" target="_top" xlink:title="Goto Checker using Multi&#45;Path Symbolic Execution.">
<polygon fill="none" stroke="black" points="400,-162 400,-203 561,-203 561,-162 400,-162"/>
<text text-anchor="start" x="408" y="-191" font-family="Helvetica,sans-Serif" font-size="10.00">/home/runner/work/cbmc</text>
<text text-anchor="start" x="408" y="-180" font-family="Helvetica,sans-Serif" font-size="10.00">/cbmc/src/goto&#45;checker</text>
<text text-anchor="middle" x="480.5" y="-169" font-family="Helvetica,sans-Serif" font-size="10.00">/multi_path_symex_checker.h</text>
</a>
</g>
</g>
<!-- Node1&#45;&gt;Node8 -->
<g id="edge7" class="edge">
<title>Node1&#45;&gt;Node8</title>
<path fill="none" stroke="midnightblue" d="M480.5,-235.06C480.5,-224.38 480.5,-212.63 480.5,-203.05"/>
<polygon fill="midnightblue" stroke="midnightblue" points="477,-235.27 480.5,-245.27 484,-235.27 477,-235.27"/>
</g>
<!-- Node13 -->
<g id="node13" class="node">
<title>Node13</title>
<g id="a_node13"><a xlink:href="report__util_8cpp.html" target="_top" xlink:title="Bounded Model Checking Utilities.">
<polygon fill="none" stroke="black" points="851.5,-162 851.5,-203 989.5,-203 989.5,-162 851.5,-162"/>
<text text-anchor="start" x="859.5" y="-191" font-family="Helvetica,sans-Serif" font-size="10.00">/home/runner/work/cbmc</text>
<text text-anchor="start" x="859.5" y="-180" font-family="Helvetica,sans-Serif" font-size="10.00">/cbmc/src/goto&#45;checker</text>
<text text-anchor="middle" x="920.5" y="-169" font-family="Helvetica,sans-Serif" font-size="10.00">/report_util.cpp</text>
</a>
</g>
</g>
<!-- Node1&#45;&gt;Node13 -->
<g id="edge15" class="edge">
<title>Node1&#45;&gt;Node13</title>
<path fill="none" stroke="midnightblue" d="M569.78,-255.29C643.53,-246.29 750.64,-230.97 842.5,-209 849.57,-207.31 856.91,-205.28 864.15,-203.12"/>
<polygon fill="midnightblue" stroke="midnightblue" points="569.11,-251.85 559.6,-256.52 569.95,-258.8 569.11,-251.85"/>
</g>
<!-- Node14 -->
<g id="node14" class="node">
<title>Node14</title>
<g id="a_node14"><a xlink:href="stop__on__fail__verifier__with__fault__localization_8h.html" target="_top" xlink:title="Goto Verifier for stopping at the first failing property and localizing the fault.">
<polygon fill="none" stroke="black" points="0,-156.5 0,-208.5 141,-208.5 141,-156.5 0,-156.5"/>
<text text-anchor="start" x="8" y="-196.5" font-family="Helvetica,sans-Serif" font-size="10.00">/home/runner/work/cbmc</text>
<text text-anchor="start" x="8" y="-185.5" font-family="Helvetica,sans-Serif" font-size="10.00">/cbmc/src/goto&#45;checker</text>
<text text-anchor="start" x="8" y="-174.5" font-family="Helvetica,sans-Serif" font-size="10.00">/stop_on_fail_verifier</text>
<text text-anchor="middle" x="70.5" y="-163.5" font-family="Helvetica,sans-Serif" font-size="10.00">_with_fault_localization.h</text>
</a>
</g>
</g>
<!-- Node1&#45;&gt;Node14 -->
<g id="edge16" class="edge">
<title>Node1&#45;&gt;Node14</title>
<path fill="none" stroke="midnightblue" d="M391.16,-253.46C324.14,-243.94 230.41,-228.79 149.5,-209 146.84,-208.35 144.14,-207.65 141.42,-206.93"/>
<polygon fill="midnightblue" stroke="midnightblue" points="390.87,-256.95 401.26,-254.88 391.85,-250.02 390.87,-256.95"/>
</g>
<!-- Node3 -->
<g id="node3" class="node">
<title>Node3</title>
<g id="a_node3"><a xlink:href="cbmc__parse__options_8cpp.html" target="_top" xlink:title="CBMC Command Line Option Processing.">
<polygon fill="none" stroke="black" points="20.5,-78.5 20.5,-119.5 174.5,-119.5 174.5,-78.5 20.5,-78.5"/>
<text text-anchor="start" x="28.5" y="-107.5" font-family="Helvetica,sans-Serif" font-size="10.00">/home/runner/work/cbmc</text>
<text text-anchor="start" x="28.5" y="-96.5" font-family="Helvetica,sans-Serif" font-size="10.00">/cbmc/src/cbmc/cbmc_parse</text>
<text text-anchor="middle" x="97.5" y="-85.5" font-family="Helvetica,sans-Serif" font-size="10.00">_options.cpp</text>
</a>
</g>
</g>
<!-- Node2&#45;&gt;Node3 -->
<g id="edge2" class="edge">
<title>Node2&#45;&gt;Node3</title>
<path fill="none" stroke="midnightblue" d="M180.12,-151.01C163.17,-140.55 144.66,-129.12 129.46,-119.73"/>
<polygon fill="midnightblue" stroke="midnightblue" points="178.47,-154.11 188.82,-156.38 182.15,-148.15 178.47,-154.11"/>
</g>
<!-- Node4 -->
<g id="node4" class="node">
<title>Node4</title>
<g id="a_node4"><a xlink:href="jbmc__parse__options_8cpp.html" target="_top" xlink:title="JBMC Command Line Option Processing.">
<polygon fill="none" stroke="black" points="130.5,-0.5 130.5,-41.5 274.5,-41.5 274.5,-0.5 130.5,-0.5"/>
<text text-anchor="start" x="138.5" y="-29.5" font-family="Helvetica,sans-Serif" font-size="10.00">/home/runner/work/cbmc</text>
<text text-anchor="start" x="138.5" y="-18.5" font-family="Helvetica,sans-Serif" font-size="10.00">/cbmc/jbmc/src/jbmc/jbmc</text>
<text text-anchor="middle" x="202.5" y="-7.5" font-family="Helvetica,sans-Serif" font-size="10.00">_parse_options.cpp</text>
</a>
</g>
</g>
<!-- Node2&#45;&gt;Node4 -->
<g id="edge3" class="edge">
<title>Node2&#45;&gt;Node4</title>
<path fill="none" stroke="midnightblue" d="M223.55,-146.32C218.1,-114.13 210.23,-67.68 205.82,-41.62"/>
<polygon fill="midnightblue" stroke="midnightblue" points="220.1,-146.95 225.22,-156.23 227,-145.78 220.1,-146.95"/>
</g>
<!-- Node6 -->
<g id="node6" class="node">
<title>Node6</title>
<g id="a_node6"><a xlink:href="goto__symex__fault__localizer_8cpp.html" target="_top" xlink:title="Fault Localization for Goto Symex.">
<polygon fill="none" stroke="black" points="950,-78.5 950,-119.5 1123,-119.5 1123,-78.5 950,-78.5"/>
<text text-anchor="start" x="958" y="-107.5" font-family="Helvetica,sans-Serif" font-size="10.00">/home/runner/work/cbmc</text>
<text text-anchor="start" x="958" y="-96.5" font-family="Helvetica,sans-Serif" font-size="10.00">/cbmc/src/goto&#45;checker</text>
<text text-anchor="middle" x="1036.5" y="-85.5" font-family="Helvetica,sans-Serif" font-size="10.00">/goto_symex_fault_localizer.cpp</text>
</a>
</g>
</g>
<!-- Node5&#45;&gt;Node6 -->
<g id="edge5" class="edge">
<title>Node5&#45;&gt;Node6</title>
<path fill="none" stroke="midnightblue" d="M830.17,-159.21C873.47,-146.78 926.9,-131.45 968.54,-119.5"/>
<polygon fill="midnightblue" stroke="midnightblue" points="829.17,-155.86 820.53,-161.98 831.1,-162.58 829.17,-155.86"/>
</g>
<!-- Node7 -->
<g id="node7" class="node">
<title>Node7</title>
<g id="a_node7"><a xlink:href="multi__path__symex__checker_8cpp.html" target="_top" xlink:title="Goto Checker using Bounded Model Checking.">
<polygon fill="none" stroke="black" points="759,-78.5 759,-119.5 932,-119.5 932,-78.5 759,-78.5"/>
<text text-anchor="start" x="767" y="-107.5" font-family="Helvetica,sans-Serif" font-size="10.00">/home/runner/work/cbmc</text>
<text text-anchor="start" x="767" y="-96.5" font-family="Helvetica,sans-Serif" font-size="10.00">/cbmc/src/goto&#45;checker</text>
<text text-anchor="middle" x="845.5" y="-85.5" font-family="Helvetica,sans-Serif" font-size="10.00">/multi_path_symex_checker.cpp</text>
</a>
</g>
</g>
<!-- Node5&#45;&gt;Node7 -->
<g id="edge6" class="edge">
<title>Node5&#45;&gt;Node7</title>
<path fill="none" stroke="midnightblue" d="M782.89,-154.86C796.03,-143.35 811.12,-130.13 823.19,-119.55"/>
<polygon fill="midnightblue" stroke="midnightblue" points="780.23,-152.55 775.01,-161.77 784.84,-157.81 780.23,-152.55"/>
</g>
<!-- Node8&#45;&gt;Node3 -->
<g id="edge8" class="edge">
<title>Node8&#45;&gt;Node3</title>
<path fill="none" stroke="midnightblue" d="M389.83,-162.21C324.3,-148.26 236.72,-129.62 174.55,-116.4"/>
<polygon fill="midnightblue" stroke="midnightblue" points="389.23,-165.66 399.74,-164.32 390.69,-158.81 389.23,-165.66"/>
</g>
<!-- Node8&#45;&gt;Node7 -->
<g id="edge9" class="edge">
<title>Node8&#45;&gt;Node7</title>
<path fill="none" stroke="midnightblue" d="M570.84,-161.33C628.23,-148.51 702.11,-132.02 758.78,-119.36"/>
<polygon fill="midnightblue" stroke="midnightblue" points="570.05,-157.92 561.05,-163.51 571.58,-164.75 570.05,-157.92"/>
</g>
<!-- Node9 -->
<g id="node9" class="node">
<title>Node9</title>
<g id="a_node9"><a xlink:href="cegis__verifier_8cpp.html" target="_top" xlink:title="Verifier for Counterexample&#45;Guided Synthesis.">
<polygon fill="none" stroke="black" points="592.5,-78.5 592.5,-119.5 740.5,-119.5 740.5,-78.5 592.5,-78.5"/>
<text text-anchor="start" x="600.5" y="-107.5" font-family="Helvetica,sans-Serif" font-size="10.00">/home/runner/work/cbmc</text>
<text text-anchor="start" x="600.5" y="-96.5" font-family="Helvetica,sans-Serif" font-size="10.00">/cbmc/src/goto&#45;synthesizer</text>
<text text-anchor="middle" x="666.5" y="-85.5" font-family="Helvetica,sans-Serif" font-size="10.00">/cegis_verifier.cpp</text>
</a>
</g>
</g>
<!-- Node8&#45;&gt;Node9 -->
<g id="edge10" class="edge">
<title>Node8&#45;&gt;Node9</title>
<path fill="none" stroke="midnightblue" d="M534.25,-157.95C562.07,-145.76 595.64,-131.05 621.99,-119.5"/>
<polygon fill="midnightblue" stroke="midnightblue" points="532.81,-154.76 525.05,-161.98 535.62,-161.17 532.81,-154.76"/>
</g>
<!-- Node10 -->
<g id="node10" class="node">
<title>Node10</title>
<g id="a_node10"><a xlink:href="api_8cpp.html" target="_top" xlink:title=" ">
<polygon fill="none" stroke="black" points="230.5,-78.5 230.5,-119.5 368.5,-119.5 368.5,-78.5 230.5,-78.5"/>
<text text-anchor="start" x="238.5" y="-107.5" font-family="Helvetica,sans-Serif" font-size="10.00">/home/runner/work/cbmc</text>
<text text-anchor="start" x="238.5" y="-96.5" font-family="Helvetica,sans-Serif" font-size="10.00">/cbmc/src/libcprover&#45;cpp</text>
<text text-anchor="middle" x="299.5" y="-85.5" font-family="Helvetica,sans-Serif" font-size="10.00">/api.cpp</text>
</a>
</g>
</g>
<!-- Node8&#45;&gt;Node10 -->
<g id="edge11" class="edge">
<title>Node8&#45;&gt;Node10</title>
<path fill="none" stroke="midnightblue" d="M427.84,-157.79C400.84,-145.63 368.35,-131 342.81,-119.5"/>
<polygon fill="midnightblue" stroke="midnightblue" points="426.59,-161.06 437.15,-161.98 429.46,-154.68 426.59,-161.06"/>
</g>
<!-- Node11 -->
<g id="node11" class="node">
<title>Node11</title>
<g id="a_node11"><a xlink:href="java__multi__path__symex__checker_8h.html" target="_top" xlink:title="Goto Checker using Bounded Model Checking for Java.">
<polygon fill="none" stroke="black" points="386.5,-78.5 386.5,-119.5 574.5,-119.5 574.5,-78.5 386.5,-78.5"/>
<text text-anchor="start" x="394.5" y="-107.5" font-family="Helvetica,sans-Serif" font-size="10.00">/home/runner/work/cbmc</text>
<text text-anchor="start" x="394.5" y="-96.5" font-family="Helvetica,sans-Serif" font-size="10.00">/cbmc/jbmc/src/java_bytecode</text>
<text text-anchor="middle" x="480.5" y="-85.5" font-family="Helvetica,sans-Serif" font-size="10.00">/java_multi_path_symex_checker.h</text>
</a>
</g>
</g>
<!-- Node8&#45;&gt;Node11 -->
<g id="edge12" class="edge">
<title>Node8&#45;&gt;Node11</title>
<path fill="none" stroke="midnightblue" d="M480.5,-151.56C480.5,-140.88 480.5,-129.13 480.5,-119.55"/>
<polygon fill="midnightblue" stroke="midnightblue" points="477,-151.77 480.5,-161.77 484,-151.77 477,-151.77"/>
</g>
<!-- Node11&#45;&gt;Node4 -->
<g id="edge14" class="edge">
<title>Node11&#45;&gt;Node4</title>
<path fill="none" stroke="midnightblue" d="M399.25,-75.79C359.53,-64.93 312.16,-51.98 273.85,-41.51"/>
<polygon fill="midnightblue" stroke="midnightblue" points="398.34,-79.17 408.91,-78.43 400.19,-72.41 398.34,-79.17"/>
</g>
<!-- Node12 -->
<g id="node12" class="node">
<title>Node12</title>
<g id="a_node12"><a xlink:href="java__multi__path__symex__checker_8cpp.html" target="_top" xlink:title=" ">
<polygon fill="none" stroke="black" points="381,-0.5 381,-41.5 580,-41.5 580,-0.5 381,-0.5"/>
<text text-anchor="start" x="389" y="-29.5" font-family="Helvetica,sans-Serif" font-size="10.00">/home/runner/work/cbmc</text>
<text text-anchor="start" x="389" y="-18.5" font-family="Helvetica,sans-Serif" font-size="10.00">/cbmc/jbmc/src/java_bytecode</text>
<text text-anchor="middle" x="480.5" y="-7.5" font-family="Helvetica,sans-Serif" font-size="10.00">/java_multi_path_symex_checker.cpp</text>
</a>
</g>
</g>
<!-- Node11&#45;&gt;Node12 -->
<g id="edge13" class="edge">
<title>Node11&#45;&gt;Node12</title>
<path fill="none" stroke="midnightblue" d="M480.5,-68.3C480.5,-59.3 480.5,-49.65 480.5,-41.51"/>
<polygon fill="midnightblue" stroke="midnightblue" points="477,-68.43 480.5,-78.43 484,-68.43 477,-68.43"/>
</g>
<!-- Node14&#45;&gt;Node3 -->
<g id="edge17" class="edge">
<title>Node14&#45;&gt;Node3</title>
<path fill="none" stroke="midnightblue" d="M82.11,-146.44C85.16,-137.26 88.33,-127.68 91,-119.63"/>
<polygon fill="midnightblue" stroke="midnightblue" points="78.72,-145.57 78.89,-156.16 85.36,-147.77 78.72,-145.57"/>
</g>
<!-- Node14&#45;&gt;Node4 -->
<g id="edge18" class="edge">
<title>Node14&#45;&gt;Node4</title>
<path fill="none" stroke="midnightblue" d="M32.23,-149C12.1,-127.94 -5.25,-100.36 11.5,-78 26.1,-58.5 82.56,-43.49 130.34,-33.94"/>
<polygon fill="midnightblue" stroke="midnightblue" points="29.86,-151.58 39.42,-156.16 34.8,-146.63 29.86,-151.58"/>
</g>
</g>
</svg>
