<?xml version="1.0" encoding="UTF-8" standalone="no"?>
<!DOCTYPE svg PUBLIC "-//W3C//DTD SVG 1.1//EN"
 "http://www.w3.org/Graphics/SVG/1.1/DTD/svg11.dtd">
<!-- Generated by graphviz version 2.43.0 (0)
 -->
<!-- Title: /home/runner/work/cbmc/cbmc/src/solvers/floatbv/float_approximation.cpp Pages: 1 -->
<svg width="825pt" height="509pt"
 viewBox="0.00 0.00 825.39 509.00" xmlns="http://www.w3.org/2000/svg" xmlns:xlink="http://www.w3.org/1999/xlink">
<g id="graph0" class="graph" transform="scale(1 1) rotate(0) translate(4 505)">
<title>/home/runner/work/cbmc/cbmc/src/solvers/floatbv/float_approximation.cpp</title>
<!-- Node1 -->
<g id="node1" class="node">
<title>Node1</title>
<g id="a_node1"><a xlink:title=" ">
<polygon fill="#bfbfbf" stroke="black" points="184,-459.5 184,-500.5 322,-500.5 322,-459.5 184,-459.5"/>
<text text-anchor="start" x="192" y="-488.5" font-family="Helvetica,sans-Serif" font-size="10.00">/home/runner/work/cbmc</text>
<text text-anchor="start" x="192" y="-477.5" font-family="Helvetica,sans-Serif" font-size="10.00">/cbmc/src/solvers/floatbv</text>
<text text-anchor="middle" x="253" y="-466.5" font-family="Helvetica,sans-Serif" font-size="10.00">/float_approximation.cpp</text>
</a>
</g>
</g>
<!-- Node2 -->
<g id="node2" class="node">
<title>Node2</title>
<g id="a_node2"><a xlink:href="float__approximation_8h.html" target="_top" xlink:title=" ">
<polygon fill="none" stroke="black" points="191,-403.5 191,-422.5 315,-422.5 315,-403.5 191,-403.5"/>
<text text-anchor="middle" x="253" y="-410.5" font-family="Helvetica,sans-Serif" font-size="10.00">float_approximation.h</text>
</a>
</g>
</g>
<!-- Node1&#45;&gt;Node2 -->
<g id="edge1" class="edge">
<title>Node1&#45;&gt;Node2</title>
<path fill="none" stroke="midnightblue" d="M253,-459.5C253,-451.07 253,-441.24 253,-432.87"/>
<polygon fill="midnightblue" stroke="midnightblue" points="256.5,-432.65 253,-422.65 249.5,-432.65 256.5,-432.65"/>
</g>
<!-- Node3 -->
<g id="node3" class="node">
<title>Node3</title>
<g id="a_node3"><a xlink:href="float__utils_8h.html" target="_top" xlink:title=" ">
<polygon fill="none" stroke="black" points="216,-347.5 216,-366.5 290,-366.5 290,-347.5 216,-347.5"/>
<text text-anchor="middle" x="253" y="-354.5" font-family="Helvetica,sans-Serif" font-size="10.00">float_utils.h</text>
</a>
</g>
</g>
<!-- Node2&#45;&gt;Node3 -->
<g id="edge2" class="edge">
<title>Node2&#45;&gt;Node3</title>
<path fill="none" stroke="midnightblue" d="M253,-403.08C253,-396.01 253,-385.86 253,-376.99"/>
<polygon fill="midnightblue" stroke="midnightblue" points="256.5,-376.75 253,-366.75 249.5,-376.75 256.5,-376.75"/>
</g>
<!-- Node4 -->
<g id="node4" class="node">
<title>Node4</title>
<g id="a_node4"><a xlink:href="ieee__float_8h.html" target="_top" xlink:title=" ">
<polygon fill="none" stroke="black" points="168,-224.5 168,-243.5 260,-243.5 260,-224.5 168,-224.5"/>
<text text-anchor="middle" x="214" y="-231.5" font-family="Helvetica,sans-Serif" font-size="10.00">util/ieee_float.h</text>
</a>
</g>
</g>
<!-- Node3&#45;&gt;Node4 -->
<g id="edge3" class="edge">
<title>Node3&#45;&gt;Node4</title>
<path fill="none" stroke="midnightblue" d="M248.55,-347.22C244.15,-338.28 237.45,-323.93 233,-311 226.37,-291.75 221,-269.03 217.68,-253.48"/>
<polygon fill="midnightblue" stroke="midnightblue" points="221.09,-252.66 215.64,-243.57 214.23,-254.08 221.09,-252.66"/>
</g>
<!-- Node11 -->
<g id="node11" class="node">
<title>Node11</title>
<g id="a_node11"><a xlink:href="bv__utils_8h.html" target="_top" xlink:title=" ">
<polygon fill="none" stroke="black" points="242.5,-280.5 242.5,-310.5 343.5,-310.5 343.5,-280.5 242.5,-280.5"/>
<text text-anchor="start" x="250.5" y="-298.5" font-family="Helvetica,sans-Serif" font-size="10.00">solvers/flattening</text>
<text text-anchor="middle" x="293" y="-287.5" font-family="Helvetica,sans-Serif" font-size="10.00">/bv_utils.h</text>
</a>
</g>
</g>
<!-- Node3&#45;&gt;Node11 -->
<g id="edge11" class="edge">
<title>Node3&#45;&gt;Node11</title>
<path fill="none" stroke="midnightblue" d="M258.73,-347.48C263.74,-340.02 271.25,-328.85 277.96,-318.87"/>
<polygon fill="midnightblue" stroke="midnightblue" points="280.9,-320.77 283.57,-310.52 275.09,-316.87 280.9,-320.77"/>
</g>
<!-- Node5 -->
<g id="node5" class="node">
<title>Node5</title>
<g id="a_node5"><a xlink:title=" ">
<polygon fill="none" stroke="#bfbfbf" points="317,-112.5 317,-131.5 365,-131.5 365,-112.5 317,-112.5"/>
<text text-anchor="middle" x="341" y="-119.5" font-family="Helvetica,sans-Serif" font-size="10.00">iosfwd</text>
</a>
</g>
</g>
<!-- Node4&#45;&gt;Node5 -->
<g id="edge4" class="edge">
<title>Node4&#45;&gt;Node5</title>
<path fill="none" stroke="midnightblue" d="M235.27,-224.37C252.64,-216.62 277.15,-204 295,-188 310.39,-174.2 323.49,-154.35 331.73,-140.22"/>
<polygon fill="midnightblue" stroke="midnightblue" points="334.78,-141.94 336.62,-131.5 328.68,-138.51 334.78,-141.94"/>
</g>
<!-- Node6 -->
<g id="node6" class="node">
<title>Node6</title>
<g id="a_node6"><a xlink:href="mp__arith_8h.html" target="_top" xlink:title=" ">
<polygon fill="none" stroke="black" points="217.5,-168.5 217.5,-187.5 286.5,-187.5 286.5,-168.5 217.5,-168.5"/>
<text text-anchor="middle" x="252" y="-175.5" font-family="Helvetica,sans-Serif" font-size="10.00">mp_arith.h</text>
</a>
</g>
</g>
<!-- Node4&#45;&gt;Node6 -->
<g id="edge5" class="edge">
<title>Node4&#45;&gt;Node6</title>
<path fill="none" stroke="midnightblue" d="M220.27,-224.08C225.64,-216.46 233.52,-205.26 240.08,-195.94"/>
<polygon fill="midnightblue" stroke="midnightblue" points="242.95,-197.94 245.84,-187.75 237.22,-193.91 242.95,-197.94"/>
</g>
<!-- Node9 -->
<g id="node9" class="node">
<title>Node9</title>
<g id="a_node9"><a xlink:href="format__spec_8h.html" target="_top" xlink:title=" ">
<polygon fill="none" stroke="black" points="0,-168.5 0,-187.5 86,-187.5 86,-168.5 0,-168.5"/>
<text text-anchor="middle" x="43" y="-175.5" font-family="Helvetica,sans-Serif" font-size="10.00">format_spec.h</text>
</a>
</g>
</g>
<!-- Node4&#45;&gt;Node9 -->
<g id="edge9" class="edge">
<title>Node4&#45;&gt;Node9</title>
<path fill="none" stroke="midnightblue" d="M186.9,-224.44C158.01,-215.32 112.08,-200.81 79.89,-190.65"/>
<polygon fill="midnightblue" stroke="midnightblue" points="80.56,-187.19 69.97,-187.52 78.45,-193.87 80.56,-187.19"/>
</g>
<!-- Node10 -->
<g id="node10" class="node">
<title>Node10</title>
<g id="a_node10"><a xlink:href="cprover__prefix_8h.html" target="_top" xlink:title=" ">
<polygon fill="none" stroke="black" points="104.5,-168.5 104.5,-187.5 199.5,-187.5 199.5,-168.5 104.5,-168.5"/>
<text text-anchor="middle" x="152" y="-175.5" font-family="Helvetica,sans-Serif" font-size="10.00">cprover_prefix.h</text>
</a>
</g>
</g>
<!-- Node4&#45;&gt;Node10 -->
<g id="edge10" class="edge">
<title>Node4&#45;&gt;Node10</title>
<path fill="none" stroke="midnightblue" d="M204.04,-224.32C194.87,-216.34 181.06,-204.31 169.97,-194.65"/>
<polygon fill="midnightblue" stroke="midnightblue" points="171.98,-191.76 162.14,-187.83 167.38,-197.04 171.98,-191.76"/>
</g>
<!-- Node6&#45;&gt;Node5 -->
<g id="edge6" class="edge">
<title>Node6&#45;&gt;Node5</title>
<path fill="none" stroke="midnightblue" d="M266.3,-168.32C280.18,-159.9 301.49,-146.97 317.8,-137.07"/>
<polygon fill="midnightblue" stroke="midnightblue" points="320,-139.83 326.74,-131.65 316.37,-133.85 320,-139.83"/>
</g>
<!-- Node7 -->
<g id="node7" class="node">
<title>Node7</title>
<g id="a_node7"><a xlink:title=" ">
<polygon fill="none" stroke="#bfbfbf" points="554,-0.5 554,-19.5 598,-19.5 598,-0.5 554,-0.5"/>
<text text-anchor="middle" x="576" y="-7.5" font-family="Helvetica,sans-Serif" font-size="10.00">string</text>
</a>
</g>
</g>
<!-- Node6&#45;&gt;Node7 -->
<g id="edge7" class="edge">
<title>Node6&#45;&gt;Node7</title>
<path fill="none" stroke="midnightblue" d="M235.07,-168.43C213.23,-156.23 179.84,-133.02 196,-112 239,-56.08 460.21,-24.63 543.89,-14.58"/>
<polygon fill="midnightblue" stroke="midnightblue" points="544.32,-18.05 553.84,-13.41 543.5,-11.1 544.32,-18.05"/>
</g>
<!-- Node8 -->
<g id="node8" class="node">
<title>Node8</title>
<g id="a_node8"><a xlink:title=" ">
<polygon fill="none" stroke="#bfbfbf" points="205,-112.5 205,-131.5 299,-131.5 299,-112.5 205,-112.5"/>
<text text-anchor="middle" x="252" y="-119.5" font-family="Helvetica,sans-Serif" font-size="10.00">big&#45;int/bigint.hh</text>
</a>
</g>
</g>
<!-- Node6&#45;&gt;Node8 -->
<g id="edge8" class="edge">
<title>Node6&#45;&gt;Node8</title>
<path fill="none" stroke="midnightblue" d="M252,-168.08C252,-161.01 252,-150.86 252,-141.99"/>
<polygon fill="midnightblue" stroke="midnightblue" points="255.5,-141.75 252,-131.75 248.5,-141.75 255.5,-141.75"/>
</g>
<!-- Node11&#45;&gt;Node6 -->
<g id="edge12" class="edge">
<title>Node11&#45;&gt;Node6</title>
<path fill="none" stroke="midnightblue" d="M288.36,-280.41C283.62,-266.14 275.99,-243.47 269,-224 265.82,-215.15 262.15,-205.37 259.03,-197.2"/>
<polygon fill="midnightblue" stroke="midnightblue" points="262.2,-195.68 255.34,-187.6 255.66,-198.19 262.2,-195.68"/>
</g>
<!-- Node12 -->
<g id="node12" class="node">
<title>Node12</title>
<g id="a_node12"><a xlink:href="prop_8h.html" target="_top" xlink:title=" ">
<polygon fill="none" stroke="black" points="375,-224.5 375,-243.5 485,-243.5 485,-224.5 375,-224.5"/>
<text text-anchor="middle" x="430" y="-231.5" font-family="Helvetica,sans-Serif" font-size="10.00">solvers/prop/prop.h</text>
</a>
</g>
</g>
<!-- Node11&#45;&gt;Node12 -->
<g id="edge13" class="edge">
<title>Node11&#45;&gt;Node12</title>
<path fill="none" stroke="midnightblue" d="M325.47,-280.4C348.35,-270.46 378.73,-257.26 400.84,-247.66"/>
<polygon fill="midnightblue" stroke="midnightblue" points="402.29,-250.85 410.07,-243.66 399.5,-244.43 402.29,-250.85"/>
</g>
<!-- Node13 -->
<g id="node13" class="node">
<title>Node13</title>
<g id="a_node13"><a xlink:href="src_2util_2message_8h.html" target="_top" xlink:title=" ">
<polygon fill="none" stroke="black" points="548.5,-168.5 548.5,-187.5 637.5,-187.5 637.5,-168.5 548.5,-168.5"/>
<text text-anchor="middle" x="593" y="-175.5" font-family="Helvetica,sans-Serif" font-size="10.00">util/message.h</text>
</a>
</g>
</g>
<!-- Node12&#45;&gt;Node13 -->
<g id="edge14" class="edge">
<title>Node12&#45;&gt;Node13</title>
<path fill="none" stroke="midnightblue" d="M455.83,-224.44C483.25,-215.36 526.78,-200.94 557.43,-190.78"/>
<polygon fill="midnightblue" stroke="midnightblue" points="558.9,-193.98 567.29,-187.52 556.7,-187.34 558.9,-193.98"/>
</g>
<!-- Node40 -->
<g id="node19" class="node">
<title>Node40</title>
<g id="a_node19"><a xlink:href="threeval_8h.html" target="_top" xlink:title=" ">
<polygon fill="none" stroke="black" points="343.5,-168.5 343.5,-187.5 428.5,-187.5 428.5,-168.5 343.5,-168.5"/>
<text text-anchor="middle" x="386" y="-175.5" font-family="Helvetica,sans-Serif" font-size="10.00">util/threeval.h</text>
</a>
</g>
</g>
<!-- Node12&#45;&gt;Node40 -->
<g id="edge25" class="edge">
<title>Node12&#45;&gt;Node40</title>
<path fill="none" stroke="midnightblue" d="M422.73,-224.08C416.46,-216.38 407.21,-205.03 399.57,-195.65"/>
<polygon fill="midnightblue" stroke="midnightblue" points="402.16,-193.29 393.13,-187.75 396.73,-197.71 402.16,-193.29"/>
</g>
<!-- Node41 -->
<g id="node20" class="node">
<title>Node41</title>
<g id="a_node20"><a xlink:href="literal_8h.html" target="_top" xlink:title=" ">
<polygon fill="none" stroke="black" points="447,-168.5 447,-187.5 501,-187.5 501,-168.5 447,-168.5"/>
<text text-anchor="middle" x="474" y="-175.5" font-family="Helvetica,sans-Serif" font-size="10.00">literal.h</text>
</a>
</g>
</g>
<!-- Node12&#45;&gt;Node41 -->
<g id="edge27" class="edge">
<title>Node12&#45;&gt;Node41</title>
<path fill="none" stroke="midnightblue" d="M437.27,-224.08C443.54,-216.38 452.79,-205.03 460.43,-195.65"/>
<polygon fill="midnightblue" stroke="midnightblue" points="463.27,-197.71 466.87,-187.75 457.84,-193.29 463.27,-197.71"/>
</g>
<!-- Node13&#45;&gt;Node5 -->
<g id="edge16" class="edge">
<title>Node13&#45;&gt;Node5</title>
<path fill="none" stroke="midnightblue" d="M548.36,-168.69C506.14,-160.64 440.8,-147.68 375.21,-132.17"/>
<polygon fill="midnightblue" stroke="midnightblue" points="375.64,-128.68 365.11,-129.76 374.02,-135.49 375.64,-128.68"/>
</g>
<!-- Node13&#45;&gt;Node7 -->
<g id="edge18" class="edge">
<title>Node13&#45;&gt;Node7</title>
<path fill="none" stroke="midnightblue" d="M588.54,-168.39C579.97,-151.32 561.5,-111.76 555,-76 553.41,-67.25 553.07,-64.68 555,-56 557.12,-46.43 561.51,-36.48 565.72,-28.37"/>
<polygon fill="midnightblue" stroke="midnightblue" points="568.82,-30 570.62,-19.56 562.7,-26.6 568.82,-30"/>
</g>
<!-- Node14 -->
<g id="node14" class="node">
<title>Node14</title>
<g id="a_node14"><a xlink:title=" ">
<polygon fill="none" stroke="#bfbfbf" points="640.5,-112.5 640.5,-131.5 705.5,-131.5 705.5,-112.5 640.5,-112.5"/>
<text text-anchor="middle" x="673" y="-119.5" font-family="Helvetica,sans-Serif" font-size="10.00">functional</text>
</a>
</g>
</g>
<!-- Node13&#45;&gt;Node14 -->
<g id="edge15" class="edge">
<title>Node13&#45;&gt;Node14</title>
<path fill="none" stroke="midnightblue" d="M605.85,-168.32C618.22,-159.98 637.13,-147.21 651.74,-137.35"/>
<polygon fill="midnightblue" stroke="midnightblue" points="653.85,-140.15 660.18,-131.65 649.93,-134.35 653.85,-140.15"/>
</g>
<!-- Node15 -->
<g id="node15" class="node">
<title>Node15</title>
<g id="a_node15"><a xlink:title=" ">
<polygon fill="none" stroke="#bfbfbf" points="744,-0.5 744,-19.5 800,-19.5 800,-0.5 744,-0.5"/>
<text text-anchor="middle" x="772" y="-7.5" font-family="Helvetica,sans-Serif" font-size="10.00">sstream</text>
</a>
</g>
</g>
<!-- Node13&#45;&gt;Node15 -->
<g id="edge17" class="edge">
<title>Node13&#45;&gt;Node15</title>
<path fill="none" stroke="midnightblue" d="M637.91,-174.04C694.28,-169.28 786.13,-157.72 807,-132 832.04,-101.15 803.91,-53.14 785.46,-27.87"/>
<polygon fill="midnightblue" stroke="midnightblue" points="788.06,-25.5 779.23,-19.66 782.49,-29.74 788.06,-25.5"/>
</g>
<!-- Node16 -->
<g id="node16" class="node">
<title>Node16</title>
<g id="a_node16"><a xlink:href="deprecate_8h.html" target="_top" xlink:title=" ">
<polygon fill="none" stroke="black" points="724,-112.5 724,-131.5 798,-131.5 798,-112.5 724,-112.5"/>
<text text-anchor="middle" x="761" y="-119.5" font-family="Helvetica,sans-Serif" font-size="10.00">deprecate.h</text>
</a>
</g>
</g>
<!-- Node13&#45;&gt;Node16 -->
<g id="edge19" class="edge">
<title>Node13&#45;&gt;Node16</title>
<path fill="none" stroke="midnightblue" d="M619.62,-168.44C648.01,-159.32 693.14,-144.81 724.75,-134.65"/>
<polygon fill="midnightblue" stroke="midnightblue" points="726.06,-137.91 734.5,-131.52 723.91,-131.24 726.06,-137.91"/>
</g>
<!-- Node17 -->
<g id="node17" class="node">
<title>Node17</title>
<g id="a_node17"><a xlink:href="src_2util_2invariant_8h.html" target="_top" xlink:title=" ">
<polygon fill="none" stroke="red" points="684.5,-56.5 684.5,-75.5 753.5,-75.5 753.5,-56.5 684.5,-56.5"/>
<text text-anchor="middle" x="719" y="-63.5" font-family="Helvetica,sans-Serif" font-size="10.00">invariant.h</text>
</a>
</g>
</g>
<!-- Node13&#45;&gt;Node17 -->
<g id="edge20" class="edge">
<title>Node13&#45;&gt;Node17</title>
<path fill="none" stroke="midnightblue" d="M596.18,-168.39C601.54,-154.87 613.52,-128.52 631,-112 646.15,-97.68 666.74,-86.82 684.2,-79.35"/>
<polygon fill="midnightblue" stroke="midnightblue" points="685.58,-82.57 693.52,-75.56 682.94,-76.09 685.58,-82.57"/>
</g>
<!-- Node20 -->
<g id="node18" class="node">
<title>Node20</title>
<g id="a_node18"><a xlink:href="source__location_8h.html" target="_top" xlink:title=" ">
<polygon fill="none" stroke="red" points="564,-56.5 564,-75.5 666,-75.5 666,-56.5 564,-56.5"/>
<text text-anchor="middle" x="615" y="-63.5" font-family="Helvetica,sans-Serif" font-size="10.00">source_location.h</text>
</a>
</g>
</g>
<!-- Node13&#45;&gt;Node20 -->
<g id="edge23" class="edge">
<title>Node13&#45;&gt;Node20</title>
<path fill="none" stroke="midnightblue" d="M592.89,-168.47C592.9,-155.94 593.57,-131.89 598,-112 600.04,-102.83 603.57,-93.03 606.89,-84.92"/>
<polygon fill="midnightblue" stroke="midnightblue" points="610.1,-86.3 610.85,-75.74 603.67,-83.53 610.1,-86.3"/>
</g>
<!-- Node17&#45;&gt;Node7 -->
<g id="edge22" class="edge">
<title>Node17&#45;&gt;Node7</title>
<path fill="none" stroke="midnightblue" d="M696.34,-56.44C672.46,-47.42 634.65,-33.15 607.79,-23"/>
<polygon fill="midnightblue" stroke="midnightblue" points="608.67,-19.6 598.08,-19.34 606.2,-26.15 608.67,-19.6"/>
</g>
<!-- Node17&#45;&gt;Node15 -->
<g id="edge21" class="edge">
<title>Node17&#45;&gt;Node15</title>
<path fill="none" stroke="midnightblue" d="M727.75,-56.08C735.47,-48.22 746.9,-36.57 756.22,-27.08"/>
<polygon fill="midnightblue" stroke="midnightblue" points="758.9,-29.34 763.41,-19.75 753.91,-24.44 758.9,-29.34"/>
</g>
<!-- Node20&#45;&gt;Node7 -->
<g id="edge24" class="edge">
<title>Node20&#45;&gt;Node7</title>
<path fill="none" stroke="midnightblue" d="M608.56,-56.08C603.05,-48.46 594.97,-37.26 588.24,-27.94"/>
<polygon fill="midnightblue" stroke="midnightblue" points="591.01,-25.81 582.32,-19.75 585.34,-29.91 591.01,-25.81"/>
</g>
<!-- Node40&#45;&gt;Node5 -->
<g id="edge26" class="edge">
<title>Node40&#45;&gt;Node5</title>
<path fill="none" stroke="midnightblue" d="M378.57,-168.08C372.15,-160.38 362.69,-149.03 354.88,-139.65"/>
<polygon fill="midnightblue" stroke="midnightblue" points="357.38,-137.19 348.29,-131.75 352.01,-141.67 357.38,-137.19"/>
</g>
<!-- Node41&#45;&gt;Node5 -->
<g id="edge28" class="edge">
<title>Node41&#45;&gt;Node5</title>
<path fill="none" stroke="midnightblue" d="M452.93,-168.44C430.94,-159.52 396.27,-145.44 371.34,-135.32"/>
<polygon fill="midnightblue" stroke="midnightblue" points="372.56,-132.04 361.98,-131.52 369.92,-138.52 372.56,-132.04"/>
</g>
<!-- Node37 -->
<g id="node21" class="node">
<title>Node37</title>
<g id="a_node21"><a xlink:href="narrow_8h.html" target="_top" xlink:title=" ">
<polygon fill="none" stroke="red" points="448.5,-112.5 448.5,-131.5 507.5,-131.5 507.5,-112.5 448.5,-112.5"/>
<text text-anchor="middle" x="478" y="-119.5" font-family="Helvetica,sans-Serif" font-size="10.00">narrow.h</text>
</a>
</g>
</g>
<!-- Node41&#45;&gt;Node37 -->
<g id="edge29" class="edge">
<title>Node41&#45;&gt;Node37</title>
<path fill="none" stroke="midnightblue" d="M474.66,-168.08C475.18,-161.01 475.94,-150.86 476.59,-141.99"/>
<polygon fill="midnightblue" stroke="midnightblue" points="480.1,-141.98 477.35,-131.75 473.12,-141.47 480.1,-141.98"/>
</g>
<!-- Node22 -->
<g id="node22" class="node">
<title>Node22</title>
<g id="a_node22"><a xlink:title=" ">
<polygon fill="none" stroke="#bfbfbf" points="383.5,-112.5 383.5,-131.5 430.5,-131.5 430.5,-112.5 383.5,-112.5"/>
<text text-anchor="middle" x="407" y="-119.5" font-family="Helvetica,sans-Serif" font-size="10.00">vector</text>
</a>
</g>
</g>
<!-- Node41&#45;&gt;Node22 -->
<g id="edge31" class="edge">
<title>Node41&#45;&gt;Node22</title>
<path fill="none" stroke="midnightblue" d="M463.24,-168.32C453.23,-160.26 438.11,-148.08 426.07,-138.37"/>
<polygon fill="midnightblue" stroke="midnightblue" points="427.94,-135.38 417.96,-131.83 423.55,-140.83 427.94,-135.38"/>
</g>
<!-- Node37&#45;&gt;Node17 -->
<g id="edge30" class="edge">
<title>Node37&#45;&gt;Node17</title>
<path fill="none" stroke="midnightblue" d="M507.55,-114.38C549.21,-105.04 625.54,-87.94 674.19,-77.04"/>
<polygon fill="midnightblue" stroke="midnightblue" points="675.14,-80.41 684.13,-74.81 673.61,-73.58 675.14,-80.41"/>
</g>
</g>
</svg>
