<?xml version="1.0" encoding="UTF-8" standalone="no"?>
<!DOCTYPE svg PUBLIC "-//W3C//DTD SVG 1.1//EN"
 "http://www.w3.org/Graphics/SVG/1.1/DTD/svg11.dtd">
<!-- Generated by graphviz version 2.43.0 (0)
 -->
<!-- Title: /home/runner/work/cbmc/cbmc/src/solvers/floatbv/float_utils.h Pages: 1 -->
<svg width="2183pt" height="203pt"
 viewBox="0.00 0.00 2182.50 203.00" xmlns="http://www.w3.org/2000/svg" xmlns:xlink="http://www.w3.org/1999/xlink">
<g id="graph0" class="graph" transform="scale(1 1) rotate(0) translate(4 199)">
<title>/home/runner/work/cbmc/cbmc/src/solvers/floatbv/float_utils.h</title>
<!-- Node1 -->
<g id="Node000001" class="node">
<title>Node1</title>
<g id="a_Node000001"><a xlink:title=" ">
<polygon fill="#999999" stroke="#666666" points="1172.5,-195 1034.5,-195 1034.5,-154 1172.5,-154 1172.5,-195"/>
<text text-anchor="start" x="1042.5" y="-183" font-family="Helvetica,sans-Serif" font-size="10.00">/home/runner/work/cbmc</text>
<text text-anchor="start" x="1042.5" y="-172" font-family="Helvetica,sans-Serif" font-size="10.00">/cbmc/src/solvers/floatbv</text>
<text text-anchor="middle" x="1103.5" y="-161" font-family="Helvetica,sans-Serif" font-size="10.00">/float_utils.h</text>
</a>
</g>
</g>
<!-- Node2 -->
<g id="Node000002" class="node">
<title>Node2</title>
<g id="a_Node000002"><a xlink:href="boolbv_8cpp.html" target="_top" xlink:title=" ">
<polygon fill="white" stroke="#666666" points="151,-118 0,-118 0,-77 151,-77 151,-118"/>
<text text-anchor="start" x="8" y="-106" font-family="Helvetica,sans-Serif" font-size="10.00">/home/runner/work/cbmc</text>
<text text-anchor="start" x="8" y="-95" font-family="Helvetica,sans-Serif" font-size="10.00">/cbmc/src/solvers/flattening</text>
<text text-anchor="middle" x="75.5" y="-84" font-family="Helvetica,sans-Serif" font-size="10.00">/boolbv.cpp</text>
</a>
</g>
</g>
<!-- Node1&#45;&gt;Node2 -->
<g id="edge1_Node000001_Node000002" class="edge">
<title>Node1&#45;&gt;Node2</title>
<g id="a_edge1_Node000001_Node000002"><a xlink:title=" ">
<path fill="none" stroke="#63b8ff" d="M1024.08,-173.28C861.26,-171.85 478.21,-163.47 160.5,-118 157.5,-117.57 154.45,-117.09 151.38,-116.57"/>
<polygon fill="#63b8ff" stroke="#63b8ff" points="1024.45,-176.78 1034.48,-173.37 1024.51,-169.78 1024.45,-176.78"/>
</a>
</g>
</g>
<!-- Node3 -->
<g id="Node000003" class="node">
<title>Node3</title>
<g id="a_Node000003"><a xlink:href="boolbv__abs_8cpp.html" target="_top" xlink:title=" ">
<polygon fill="white" stroke="#666666" points="320,-118 169,-118 169,-77 320,-77 320,-118"/>
<text text-anchor="start" x="177" y="-106" font-family="Helvetica,sans-Serif" font-size="10.00">/home/runner/work/cbmc</text>
<text text-anchor="start" x="177" y="-95" font-family="Helvetica,sans-Serif" font-size="10.00">/cbmc/src/solvers/flattening</text>
<text text-anchor="middle" x="244.5" y="-84" font-family="Helvetica,sans-Serif" font-size="10.00">/boolbv_abs.cpp</text>
</a>
</g>
</g>
<!-- Node1&#45;&gt;Node3 -->
<g id="edge2_Node000001_Node000003" class="edge">
<title>Node1&#45;&gt;Node3</title>
<g id="a_edge2_Node000001_Node000003"><a xlink:title=" ">
<path fill="none" stroke="#63b8ff" d="M1023.99,-171.83C883.25,-167.98 581.34,-155.69 329.5,-118 326.51,-117.55 323.46,-117.05 320.39,-116.52"/>
<polygon fill="#63b8ff" stroke="#63b8ff" points="1024.16,-175.34 1034.25,-172.1 1024.35,-168.34 1024.16,-175.34"/>
</a>
</g>
</g>
<!-- Node4 -->
<g id="Node000004" class="node">
<title>Node4</title>
<g id="a_Node000004"><a xlink:href="boolbv__add__sub_8cpp.html" target="_top" xlink:title=" ">
<polygon fill="white" stroke="#666666" points="489,-118 338,-118 338,-77 489,-77 489,-118"/>
<text text-anchor="start" x="346" y="-106" font-family="Helvetica,sans-Serif" font-size="10.00">/home/runner/work/cbmc</text>
<text text-anchor="start" x="346" y="-95" font-family="Helvetica,sans-Serif" font-size="10.00">/cbmc/src/solvers/flattening</text>
<text text-anchor="middle" x="413.5" y="-84" font-family="Helvetica,sans-Serif" font-size="10.00">/boolbv_add_sub.cpp</text>
</a>
</g>
</g>
<!-- Node1&#45;&gt;Node4 -->
<g id="edge3_Node000001_Node000004" class="edge">
<title>Node1&#45;&gt;Node4</title>
<g id="a_edge3_Node000001_Node000004"><a xlink:title=" ">
<path fill="none" stroke="#63b8ff" d="M1023.95,-169.61C907.88,-163.16 685.54,-147.9 498.5,-118 495.51,-117.52 492.47,-117 489.4,-116.44"/>
<polygon fill="#63b8ff" stroke="#63b8ff" points="1023.99,-173.12 1034.17,-170.17 1024.37,-166.13 1023.99,-173.12"/>
</a>
</g>
</g>
<!-- Node5 -->
<g id="Node000005" class="node">
<title>Node5</title>
<g id="a_Node000005"><a xlink:href="boolbv__bv__rel_8cpp.html" target="_top" xlink:title=" ">
<polygon fill="white" stroke="#666666" points="658,-118 507,-118 507,-77 658,-77 658,-118"/>
<text text-anchor="start" x="515" y="-106" font-family="Helvetica,sans-Serif" font-size="10.00">/home/runner/work/cbmc</text>
<text text-anchor="start" x="515" y="-95" font-family="Helvetica,sans-Serif" font-size="10.00">/cbmc/src/solvers/flattening</text>
<text text-anchor="middle" x="582.5" y="-84" font-family="Helvetica,sans-Serif" font-size="10.00">/boolbv_bv_rel.cpp</text>
</a>
</g>
</g>
<!-- Node1&#45;&gt;Node5 -->
<g id="edge4_Node000001_Node000005" class="edge">
<title>Node1&#45;&gt;Node5</title>
<g id="a_edge4_Node000001_Node000005"><a xlink:title=" ">
<path fill="none" stroke="#63b8ff" d="M1024.33,-165.8C936.69,-156.73 791.43,-140.05 667.5,-118 664.52,-117.47 661.48,-116.9 658.42,-116.31"/>
<polygon fill="#63b8ff" stroke="#63b8ff" points="1024.16,-169.3 1034.46,-166.84 1024.87,-162.34 1024.16,-169.3"/>
</a>
</g>
</g>
<!-- Node6 -->
<g id="Node000006" class="node">
<title>Node6</title>
<g id="a_Node000006"><a xlink:href="boolbv__floatbv__fma_8cpp.html" target="_top" xlink:title=" ">
<polygon fill="white" stroke="#666666" points="827,-118 676,-118 676,-77 827,-77 827,-118"/>
<text text-anchor="start" x="684" y="-106" font-family="Helvetica,sans-Serif" font-size="10.00">/home/runner/work/cbmc</text>
<text text-anchor="start" x="684" y="-95" font-family="Helvetica,sans-Serif" font-size="10.00">/cbmc/src/solvers/flattening</text>
<text text-anchor="middle" x="751.5" y="-84" font-family="Helvetica,sans-Serif" font-size="10.00">/boolbv_floatbv_fma.cpp</text>
</a>
</g>
</g>
<!-- Node1&#45;&gt;Node6 -->
<g id="edge5_Node000001_Node000006" class="edge">
<title>Node1&#45;&gt;Node6</title>
<g id="a_edge5_Node000001_Node000006"><a xlink:title=" ">
<path fill="none" stroke="#63b8ff" d="M1024.22,-157.47C971.06,-146.6 899.51,-131.77 836.5,-118 833.39,-117.32 830.23,-116.62 827.03,-115.91"/>
<polygon fill="#63b8ff" stroke="#63b8ff" points="1023.77,-160.94 1034.27,-159.52 1025.17,-154.09 1023.77,-160.94"/>
</a>
</g>
</g>
<!-- Node7 -->
<g id="Node000007" class="node">
<title>Node7</title>
<g id="a_Node000007"><a xlink:href="boolbv__floatbv__mod__rem_8cpp.html" target="_top" xlink:title=" ">
<polygon fill="white" stroke="#666666" points="1009.5,-118 845.5,-118 845.5,-77 1009.5,-77 1009.5,-118"/>
<text text-anchor="start" x="853.5" y="-106" font-family="Helvetica,sans-Serif" font-size="10.00">/home/runner/work/cbmc</text>
<text text-anchor="start" x="853.5" y="-95" font-family="Helvetica,sans-Serif" font-size="10.00">/cbmc/src/solvers/flattening</text>
<text text-anchor="middle" x="927.5" y="-84" font-family="Helvetica,sans-Serif" font-size="10.00">/boolbv_floatbv_mod_rem.cpp</text>
</a>
</g>
</g>
<!-- Node1&#45;&gt;Node7 -->
<g id="edge6_Node000001_Node000007" class="edge">
<title>Node1&#45;&gt;Node7</title>
<g id="a_edge6_Node000001_Node000007"><a xlink:title=" ">
<path fill="none" stroke="#63b8ff" d="M1048.34,-150C1024.24,-139.72 996.3,-127.82 973.36,-118.04"/>
<polygon fill="#63b8ff" stroke="#63b8ff" points="1047.15,-153.29 1057.72,-153.99 1049.89,-146.85 1047.15,-153.29"/>
</a>
</g>
</g>
<!-- Node8 -->
<g id="Node000008" class="node">
<title>Node8</title>
<g id="a_Node000008"><a xlink:href="boolbv__floatbv__op_8cpp.html" target="_top" xlink:title=" ">
<polygon fill="white" stroke="#666666" points="1179,-118 1028,-118 1028,-77 1179,-77 1179,-118"/>
<text text-anchor="start" x="1036" y="-106" font-family="Helvetica,sans-Serif" font-size="10.00">/home/runner/work/cbmc</text>
<text text-anchor="start" x="1036" y="-95" font-family="Helvetica,sans-Serif" font-size="10.00">/cbmc/src/solvers/flattening</text>
<text text-anchor="middle" x="1103.5" y="-84" font-family="Helvetica,sans-Serif" font-size="10.00">/boolbv_floatbv_op.cpp</text>
</a>
</g>
</g>
<!-- Node1&#45;&gt;Node8 -->
<g id="edge7_Node000001_Node000008" class="edge">
<title>Node1&#45;&gt;Node8</title>
<g id="a_edge7_Node000001_Node000008"><a xlink:title=" ">
<path fill="none" stroke="#63b8ff" d="M1103.5,-143.69C1103.5,-135.08 1103.5,-125.9 1103.5,-118.07"/>
<polygon fill="#63b8ff" stroke="#63b8ff" points="1100,-143.79 1103.5,-153.79 1107,-143.79 1100,-143.79"/>
</a>
</g>
</g>
<!-- Node9 -->
<g id="Node000009" class="node">
<title>Node9</title>
<g id="a_Node000009"><a xlink:href="boolbv__ieee__float__rel_8cpp.html" target="_top" xlink:title=" ">
<polygon fill="white" stroke="#666666" points="1348,-118 1197,-118 1197,-77 1348,-77 1348,-118"/>
<text text-anchor="start" x="1205" y="-106" font-family="Helvetica,sans-Serif" font-size="10.00">/home/runner/work/cbmc</text>
<text text-anchor="start" x="1205" y="-95" font-family="Helvetica,sans-Serif" font-size="10.00">/cbmc/src/solvers/flattening</text>
<text text-anchor="middle" x="1272.5" y="-84" font-family="Helvetica,sans-Serif" font-size="10.00">/boolbv_ieee_float_rel.cpp</text>
</a>
</g>
</g>
<!-- Node1&#45;&gt;Node9 -->
<g id="edge8_Node000001_Node000009" class="edge">
<title>Node1&#45;&gt;Node9</title>
<g id="a_edge8_Node000001_Node000009"><a xlink:title=" ">
<path fill="none" stroke="#63b8ff" d="M1156.77,-149.86C1179.85,-139.62 1206.54,-127.77 1228.47,-118.04"/>
<polygon fill="#63b8ff" stroke="#63b8ff" points="1155.18,-146.73 1147.46,-153.99 1158.02,-153.13 1155.18,-146.73"/>
</a>
</g>
</g>
<!-- Node10 -->
<g id="Node000010" class="node">
<title>Node10</title>
<g id="a_Node000010"><a xlink:href="boolbv__typecast_8cpp.html" target="_top" xlink:title=" ">
<polygon fill="white" stroke="#666666" points="1517,-118 1366,-118 1366,-77 1517,-77 1517,-118"/>
<text text-anchor="start" x="1374" y="-106" font-family="Helvetica,sans-Serif" font-size="10.00">/home/runner/work/cbmc</text>
<text text-anchor="start" x="1374" y="-95" font-family="Helvetica,sans-Serif" font-size="10.00">/cbmc/src/solvers/flattening</text>
<text text-anchor="middle" x="1441.5" y="-84" font-family="Helvetica,sans-Serif" font-size="10.00">/boolbv_typecast.cpp</text>
</a>
</g>
</g>
<!-- Node1&#45;&gt;Node10 -->
<g id="edge9_Node000001_Node000010" class="edge">
<title>Node1&#45;&gt;Node10</title>
<g id="a_edge9_Node000001_Node000010"><a xlink:title=" ">
<path fill="none" stroke="#63b8ff" d="M1182.36,-156.54C1232.54,-145.69 1298.88,-131.21 1357.5,-118 1360.27,-117.37 1363.1,-116.73 1365.95,-116.09"/>
<polygon fill="#63b8ff" stroke="#63b8ff" points="1181.58,-153.13 1172.55,-158.67 1183.06,-159.97 1181.58,-153.13"/>
</a>
</g>
</g>
<!-- Node11 -->
<g id="Node000011" class="node">
<title>Node11</title>
<g id="a_Node000011"><a xlink:href="boolbv__unary__minus_8cpp.html" target="_top" xlink:title=" ">
<polygon fill="white" stroke="#666666" points="1686,-118 1535,-118 1535,-77 1686,-77 1686,-118"/>
<text text-anchor="start" x="1543" y="-106" font-family="Helvetica,sans-Serif" font-size="10.00">/home/runner/work/cbmc</text>
<text text-anchor="start" x="1543" y="-95" font-family="Helvetica,sans-Serif" font-size="10.00">/cbmc/src/solvers/flattening</text>
<text text-anchor="middle" x="1610.5" y="-84" font-family="Helvetica,sans-Serif" font-size="10.00">/boolbv_unary_minus.cpp</text>
</a>
</g>
</g>
<!-- Node1&#45;&gt;Node11 -->
<g id="edge10_Node000001_Node000011" class="edge">
<title>Node1&#45;&gt;Node11</title>
<g id="a_edge10_Node000001_Node000011"><a xlink:title=" ">
<path fill="none" stroke="#63b8ff" d="M1182.82,-165.43C1268.09,-156.22 1407.44,-139.58 1526.5,-118 1529.15,-117.52 1531.85,-117.01 1534.56,-116.48"/>
<polygon fill="#63b8ff" stroke="#63b8ff" points="1182.26,-161.97 1172.69,-166.52 1183.01,-168.93 1182.26,-161.97"/>
</a>
</g>
</g>
<!-- Node12 -->
<g id="Node000012" class="node">
<title>Node12</title>
<g id="a_Node000012"><a xlink:href="float__approximation_8h.html" target="_top" xlink:title="Floating Point with under/over&#45;approximation.">
<polygon fill="white" stroke="#666666" points="1842.5,-118 1704.5,-118 1704.5,-77 1842.5,-77 1842.5,-118"/>
<text text-anchor="start" x="1712.5" y="-106" font-family="Helvetica,sans-Serif" font-size="10.00">/home/runner/work/cbmc</text>
<text text-anchor="start" x="1712.5" y="-95" font-family="Helvetica,sans-Serif" font-size="10.00">/cbmc/src/solvers/floatbv</text>
<text text-anchor="middle" x="1773.5" y="-84" font-family="Helvetica,sans-Serif" font-size="10.00">/float_approximation.h</text>
</a>
</g>
</g>
<!-- Node1&#45;&gt;Node12 -->
<g id="edge11_Node000001_Node000012" class="edge">
<title>Node1&#45;&gt;Node12</title>
<g id="a_edge11_Node000001_Node000012"><a xlink:title=" ">
<path fill="none" stroke="#63b8ff" d="M1182.8,-169.89C1296.86,-163.83 1513.51,-149.09 1695.5,-118 1698.39,-117.51 1701.33,-116.96 1704.29,-116.38"/>
<polygon fill="#63b8ff" stroke="#63b8ff" points="1182.56,-166.4 1172.76,-170.41 1182.93,-173.39 1182.56,-166.4"/>
</a>
</g>
</g>
<!-- Node14 -->
<g id="Node000014" class="node">
<title>Node14</title>
<g id="a_Node000014"><a xlink:href="float__utils_8cpp.html" target="_top" xlink:title=" ">
<polygon fill="white" stroke="#666666" points="1998.5,-118 1860.5,-118 1860.5,-77 1998.5,-77 1998.5,-118"/>
<text text-anchor="start" x="1868.5" y="-106" font-family="Helvetica,sans-Serif" font-size="10.00">/home/runner/work/cbmc</text>
<text text-anchor="start" x="1868.5" y="-95" font-family="Helvetica,sans-Serif" font-size="10.00">/cbmc/src/solvers/floatbv</text>
<text text-anchor="middle" x="1929.5" y="-84" font-family="Helvetica,sans-Serif" font-size="10.00">/float_utils.cpp</text>
</a>
</g>
</g>
<!-- Node1&#45;&gt;Node14 -->
<g id="edge13_Node000001_Node000014" class="edge">
<title>Node1&#45;&gt;Node14</title>
<g id="a_edge13_Node000001_Node000014"><a xlink:title=" ">
<path fill="none" stroke="#63b8ff" d="M1182.95,-172.06C1320.14,-168.57 1609.98,-156.86 1851.5,-118 1854.39,-117.53 1857.34,-117.01 1860.3,-116.45"/>
<polygon fill="#63b8ff" stroke="#63b8ff" points="1182.45,-168.57 1172.54,-172.31 1182.62,-175.56 1182.45,-168.57"/>
</a>
</g>
</g>
<!-- Node15 -->
<g id="Node000015" class="node">
<title>Node15</title>
<g id="a_Node000015"><a xlink:href="refine__arithmetic_8cpp.html" target="_top" xlink:title=" ">
<polygon fill="white" stroke="#666666" points="2174.5,-118 2016.5,-118 2016.5,-77 2174.5,-77 2174.5,-118"/>
<text text-anchor="start" x="2024.5" y="-106" font-family="Helvetica,sans-Serif" font-size="10.00">/home/runner/work/cbmc</text>
<text text-anchor="start" x="2024.5" y="-95" font-family="Helvetica,sans-Serif" font-size="10.00">/cbmc/src/solvers/refinement</text>
<text text-anchor="middle" x="2095.5" y="-84" font-family="Helvetica,sans-Serif" font-size="10.00">/refine_arithmetic.cpp</text>
</a>
</g>
</g>
<!-- Node1&#45;&gt;Node15 -->
<g id="edge14_Node000001_Node000015" class="edge">
<title>Node1&#45;&gt;Node15</title>
<g id="a_edge14_Node000001_Node000015"><a xlink:title=" ">
<path fill="none" stroke="#63b8ff" d="M1182.86,-172.8C1340.69,-170.48 1704.87,-160.55 2007.5,-118 2010.44,-117.59 2013.44,-117.13 2016.45,-116.63"/>
<polygon fill="#63b8ff" stroke="#63b8ff" points="1182.72,-169.3 1172.77,-172.94 1182.81,-176.3 1182.72,-169.3"/>
</a>
</g>
</g>
<!-- Node13 -->
<g id="Node000013" class="node">
<title>Node13</title>
<g id="a_Node000013"><a xlink:href="float__approximation_8cpp.html" target="_top" xlink:title=" ">
<polygon fill="white" stroke="#666666" points="1842.5,-41 1704.5,-41 1704.5,0 1842.5,0 1842.5,-41"/>
<text text-anchor="start" x="1712.5" y="-29" font-family="Helvetica,sans-Serif" font-size="10.00">/home/runner/work/cbmc</text>
<text text-anchor="start" x="1712.5" y="-18" font-family="Helvetica,sans-Serif" font-size="10.00">/cbmc/src/solvers/floatbv</text>
<text text-anchor="middle" x="1773.5" y="-7" font-family="Helvetica,sans-Serif" font-size="10.00">/float_approximation.cpp</text>
</a>
</g>
</g>
<!-- Node12&#45;&gt;Node13 -->
<g id="edge12_Node000012_Node000013" class="edge">
<title>Node12&#45;&gt;Node13</title>
<g id="a_edge12_Node000012_Node000013"><a xlink:title=" ">
<path fill="none" stroke="#63b8ff" d="M1773.5,-66.69C1773.5,-58.08 1773.5,-48.9 1773.5,-41.07"/>
<polygon fill="#63b8ff" stroke="#63b8ff" points="1770,-66.79 1773.5,-76.79 1777,-66.79 1770,-66.79"/>
</a>
</g>
</g>
</g>
</svg>
