<?xml version="1.0" encoding="UTF-8" standalone="no"?>
<!DOCTYPE svg PUBLIC "-//W3C//DTD SVG 1.1//EN"
 "http://www.w3.org/Graphics/SVG/1.1/DTD/svg11.dtd">
<!-- Generated by graphviz version 2.43.0 (0)
 -->
<!-- Title: /home/runner/work/cbmc/cbmc/src/goto&#45;cc/gcc_message_handler.cpp Pages: 1 -->
<svg width="929pt" height="442pt"
 viewBox="0.00 0.00 929.00 442.00" xmlns="http://www.w3.org/2000/svg" xmlns:xlink="http://www.w3.org/1999/xlink">
<g id="graph0" class="graph" transform="scale(1 1) rotate(0) translate(4 438)">
<title>/home/runner/work/cbmc/cbmc/src/goto&#45;cc/gcc_message_handler.cpp</title>
<!-- Node1 -->
<g id="node1" class="node">
<title>Node1</title>
<g id="a_node1"><a xlink:title=" ">
<polygon fill="#bfbfbf" stroke="black" points="718,-392.5 718,-433.5 856,-433.5 856,-392.5 718,-392.5"/>
<text text-anchor="start" x="726" y="-421.5" font-family="Helvetica,sans-Serif" font-size="10.00">/home/runner/work/cbmc</text>
<text text-anchor="start" x="726" y="-410.5" font-family="Helvetica,sans-Serif" font-size="10.00">/cbmc/src/goto&#45;cc/gcc</text>
<text text-anchor="middle" x="787" y="-399.5" font-family="Helvetica,sans-Serif" font-size="10.00">_message_handler.cpp</text>
</a>
</g>
</g>
<!-- Node2 -->
<g id="node2" class="node">
<title>Node2</title>
<g id="a_node2"><a xlink:href="gcc__message__handler_8h.html" target="_top" xlink:title=" ">
<polygon fill="none" stroke="black" points="486.5,-336.5 486.5,-355.5 619.5,-355.5 619.5,-336.5 486.5,-336.5"/>
<text text-anchor="middle" x="553" y="-343.5" font-family="Helvetica,sans-Serif" font-size="10.00">gcc_message_handler.h</text>
</a>
</g>
</g>
<!-- Node1&#45;&gt;Node2 -->
<g id="edge1" class="edge">
<title>Node1&#45;&gt;Node2</title>
<path fill="none" stroke="midnightblue" d="M717.74,-392.76C677.26,-381.52 627.58,-367.72 593.43,-358.23"/>
<polygon fill="midnightblue" stroke="midnightblue" points="594.36,-354.86 583.79,-355.55 592.49,-361.6 594.36,-354.86"/>
</g>
<!-- Node33 -->
<g id="node21" class="node">
<title>Node33</title>
<g id="a_node21"><a xlink:href="unicode_8h.html" target="_top" xlink:title=" ">
<polygon fill="none" stroke="black" points="733.5,-112.5 733.5,-131.5 816.5,-131.5 816.5,-112.5 733.5,-112.5"/>
<text text-anchor="middle" x="775" y="-119.5" font-family="Helvetica,sans-Serif" font-size="10.00">util/unicode.h</text>
</a>
</g>
</g>
<!-- Node1&#45;&gt;Node33 -->
<g id="edge27" class="edge">
<title>Node1&#45;&gt;Node33</title>
<path fill="none" stroke="midnightblue" d="M779.5,-392.2C771.2,-368.5 759,-327.44 759,-291 759,-291 759,-291 759,-233 759,-200.63 765.87,-163.44 770.61,-141.66"/>
<polygon fill="midnightblue" stroke="midnightblue" points="774.05,-142.3 772.84,-131.78 767.22,-140.76 774.05,-142.3"/>
</g>
<!-- Node34 -->
<g id="node22" class="node">
<title>Node34</title>
<g id="a_node22"><a xlink:title=" ">
<polygon fill="none" stroke="#bfbfbf" points="787.5,-336.5 787.5,-355.5 842.5,-355.5 842.5,-336.5 787.5,-336.5"/>
<text text-anchor="middle" x="815" y="-343.5" font-family="Helvetica,sans-Serif" font-size="10.00">fstream</text>
</a>
</g>
</g>
<!-- Node1&#45;&gt;Node34 -->
<g id="edge31" class="edge">
<title>Node1&#45;&gt;Node34</title>
<path fill="none" stroke="midnightblue" d="M795.4,-392.5C799.16,-383.78 803.56,-373.56 807.24,-365.02"/>
<polygon fill="midnightblue" stroke="midnightblue" points="810.53,-366.22 811.27,-355.65 804.1,-363.45 810.53,-366.22"/>
</g>
<!-- Node35 -->
<g id="node23" class="node">
<title>Node35</title>
<g id="a_node23"><a xlink:title=" ">
<polygon fill="none" stroke="#bfbfbf" points="861,-336.5 861,-355.5 921,-355.5 921,-336.5 861,-336.5"/>
<text text-anchor="middle" x="891" y="-343.5" font-family="Helvetica,sans-Serif" font-size="10.00">iostream</text>
</a>
</g>
</g>
<!-- Node1&#45;&gt;Node35 -->
<g id="edge32" class="edge">
<title>Node1&#45;&gt;Node35</title>
<path fill="none" stroke="midnightblue" d="M818.2,-392.5C834.3,-382.44 853.58,-370.38 868.26,-361.21"/>
<polygon fill="midnightblue" stroke="midnightblue" points="870.53,-363.92 877.16,-355.65 866.82,-357.98 870.53,-363.92"/>
</g>
<!-- Node3 -->
<g id="node3" class="node">
<title>Node3</title>
<g id="a_node3"><a xlink:href="cout__message_8h.html" target="_top" xlink:title=" ">
<polygon fill="none" stroke="black" points="272.5,-280.5 272.5,-299.5 387.5,-299.5 387.5,-280.5 272.5,-280.5"/>
<text text-anchor="middle" x="330" y="-287.5" font-family="Helvetica,sans-Serif" font-size="10.00">util/cout_message.h</text>
</a>
</g>
</g>
<!-- Node2&#45;&gt;Node3 -->
<g id="edge2" class="edge">
<title>Node2&#45;&gt;Node3</title>
<path fill="none" stroke="midnightblue" d="M517.66,-336.44C479.09,-327.1 417.22,-312.12 375.15,-301.93"/>
<polygon fill="midnightblue" stroke="midnightblue" points="375.71,-298.47 365.17,-299.52 374.07,-305.27 375.71,-298.47"/>
</g>
<!-- Node4 -->
<g id="node4" class="node">
<title>Node4</title>
<g id="a_node4"><a xlink:href="src_2util_2message_8h.html" target="_top" xlink:title=" ">
<polygon fill="none" stroke="black" points="221,-224.5 221,-243.5 291,-243.5 291,-224.5 221,-224.5"/>
<text text-anchor="middle" x="256" y="-231.5" font-family="Helvetica,sans-Serif" font-size="10.00">message.h</text>
</a>
</g>
</g>
<!-- Node3&#45;&gt;Node4 -->
<g id="edge3" class="edge">
<title>Node3&#45;&gt;Node4</title>
<path fill="none" stroke="midnightblue" d="M318.11,-280.32C306.85,-272.11 289.71,-259.6 276.29,-249.81"/>
<polygon fill="midnightblue" stroke="midnightblue" points="278.25,-246.9 268.11,-243.83 274.12,-252.56 278.25,-246.9"/>
</g>
<!-- Node5 -->
<g id="node5" class="node">
<title>Node5</title>
<g id="a_node5"><a xlink:title=" ">
<polygon fill="none" stroke="#bfbfbf" points="365.5,-168.5 365.5,-187.5 430.5,-187.5 430.5,-168.5 365.5,-168.5"/>
<text text-anchor="middle" x="398" y="-175.5" font-family="Helvetica,sans-Serif" font-size="10.00">functional</text>
</a>
</g>
</g>
<!-- Node4&#45;&gt;Node5 -->
<g id="edge4" class="edge">
<title>Node4&#45;&gt;Node5</title>
<path fill="none" stroke="midnightblue" d="M278.5,-224.44C302.08,-215.48 339.32,-201.31 365.96,-191.18"/>
<polygon fill="midnightblue" stroke="midnightblue" points="367.5,-194.34 375.6,-187.52 365.01,-187.8 367.5,-194.34"/>
</g>
<!-- Node6 -->
<g id="node6" class="node">
<title>Node6</title>
<g id="a_node6"><a xlink:title=" ">
<polygon fill="none" stroke="#bfbfbf" points="0,-168.5 0,-187.5 48,-187.5 48,-168.5 0,-168.5"/>
<text text-anchor="middle" x="24" y="-175.5" font-family="Helvetica,sans-Serif" font-size="10.00">iosfwd</text>
</a>
</g>
</g>
<!-- Node4&#45;&gt;Node6 -->
<g id="edge5" class="edge">
<title>Node4&#45;&gt;Node6</title>
<path fill="none" stroke="midnightblue" d="M220.94,-224.92C182.08,-215.95 117.54,-201.02 62,-188 60.74,-187.7 59.45,-187.4 58.15,-187.1"/>
<polygon fill="midnightblue" stroke="midnightblue" points="58.66,-183.62 48.12,-184.73 57.05,-190.43 58.66,-183.62"/>
</g>
<!-- Node7 -->
<g id="node7" class="node">
<title>Node7</title>
<g id="a_node7"><a xlink:title=" ">
<polygon fill="none" stroke="#bfbfbf" points="27,-0.5 27,-19.5 83,-19.5 83,-0.5 27,-0.5"/>
<text text-anchor="middle" x="55" y="-7.5" font-family="Helvetica,sans-Serif" font-size="10.00">sstream</text>
</a>
</g>
</g>
<!-- Node4&#45;&gt;Node7 -->
<g id="edge6" class="edge">
<title>Node4&#45;&gt;Node7</title>
<path fill="none" stroke="midnightblue" d="M232.83,-224.38C214.59,-216.79 189.28,-204.38 171,-188 118.19,-140.67 79.07,-64.08 63.02,-29.27"/>
<polygon fill="midnightblue" stroke="midnightblue" points="66.09,-27.56 58.79,-19.88 59.7,-30.44 66.09,-27.56"/>
</g>
<!-- Node8 -->
<g id="node8" class="node">
<title>Node8</title>
<g id="a_node8"><a xlink:title=" ">
<polygon fill="none" stroke="#bfbfbf" points="256,-0.5 256,-19.5 300,-19.5 300,-0.5 256,-0.5"/>
<text text-anchor="middle" x="278" y="-7.5" font-family="Helvetica,sans-Serif" font-size="10.00">string</text>
</a>
</g>
</g>
<!-- Node4&#45;&gt;Node8 -->
<g id="edge7" class="edge">
<title>Node4&#45;&gt;Node8</title>
<path fill="none" stroke="midnightblue" d="M250.87,-224.41C245.94,-215.61 238.84,-201.38 236,-188 234.15,-179.3 234.84,-176.81 236,-168 242.75,-116.65 261.41,-58.23 271.43,-29.27"/>
<polygon fill="midnightblue" stroke="midnightblue" points="274.79,-30.28 274.81,-19.69 268.18,-27.96 274.79,-30.28"/>
</g>
<!-- Node9 -->
<g id="node9" class="node">
<title>Node9</title>
<g id="a_node9"><a xlink:href="deprecate_8h.html" target="_top" xlink:title=" ">
<polygon fill="none" stroke="black" points="673,-56.5 673,-75.5 747,-75.5 747,-56.5 673,-56.5"/>
<text text-anchor="middle" x="710" y="-63.5" font-family="Helvetica,sans-Serif" font-size="10.00">deprecate.h</text>
</a>
</g>
</g>
<!-- Node4&#45;&gt;Node9 -->
<g id="edge8" class="edge">
<title>Node4&#45;&gt;Node9</title>
<path fill="none" stroke="midnightblue" d="M291.07,-233.6C368.32,-233.15 555.67,-222.15 674,-132 689.36,-120.3 699.06,-100.06 704.48,-85.27"/>
<polygon fill="midnightblue" stroke="midnightblue" points="707.84,-86.25 707.68,-75.66 701.2,-84.04 707.84,-86.25"/>
</g>
<!-- Node10 -->
<g id="node10" class="node">
<title>Node10</title>
<g id="a_node10"><a xlink:href="src_2util_2invariant_8h.html" target="_top" xlink:title=" ">
<polygon fill="none" stroke="black" points="104.5,-56.5 104.5,-75.5 173.5,-75.5 173.5,-56.5 104.5,-56.5"/>
<text text-anchor="middle" x="139" y="-63.5" font-family="Helvetica,sans-Serif" font-size="10.00">invariant.h</text>
</a>
</g>
</g>
<!-- Node4&#45;&gt;Node10 -->
<g id="edge9" class="edge">
<title>Node4&#45;&gt;Node10</title>
<path fill="none" stroke="midnightblue" d="M236.99,-224.39C221.92,-216.72 201.26,-204.22 188,-188 162.5,-156.82 148.79,-110.63 142.79,-85.28"/>
<polygon fill="midnightblue" stroke="midnightblue" points="146.21,-84.52 140.62,-75.52 139.38,-86.04 146.21,-84.52"/>
</g>
<!-- Node13 -->
<g id="node13" class="node">
<title>Node13</title>
<g id="a_node13"><a xlink:href="source__location_8h.html" target="_top" xlink:title=" ">
<polygon fill="none" stroke="black" points="245,-168.5 245,-187.5 347,-187.5 347,-168.5 245,-168.5"/>
<text text-anchor="middle" x="296" y="-175.5" font-family="Helvetica,sans-Serif" font-size="10.00">source_location.h</text>
</a>
</g>
</g>
<!-- Node4&#45;&gt;Node13 -->
<g id="edge14" class="edge">
<title>Node4&#45;&gt;Node13</title>
<path fill="none" stroke="midnightblue" d="M262.61,-224.08C268.26,-216.46 276.54,-205.26 283.45,-195.94"/>
<polygon fill="midnightblue" stroke="midnightblue" points="286.38,-197.87 289.52,-187.75 280.75,-193.7 286.38,-197.87"/>
</g>
<!-- Node10&#45;&gt;Node7 -->
<g id="edge11" class="edge">
<title>Node10&#45;&gt;Node7</title>
<path fill="none" stroke="midnightblue" d="M125.5,-56.32C112.4,-47.9 92.29,-34.97 76.89,-25.07"/>
<polygon fill="midnightblue" stroke="midnightblue" points="78.77,-22.12 68.46,-19.65 74.98,-28.01 78.77,-22.12"/>
</g>
<!-- Node10&#45;&gt;Node8 -->
<g id="edge12" class="edge">
<title>Node10&#45;&gt;Node8</title>
<path fill="none" stroke="midnightblue" d="M161.02,-56.44C184.1,-47.48 220.56,-33.31 246.64,-23.18"/>
<polygon fill="midnightblue" stroke="midnightblue" points="248.02,-26.4 256.08,-19.52 245.49,-19.88 248.02,-26.4"/>
</g>
<!-- Node11 -->
<g id="node11" class="node">
<title>Node11</title>
<g id="a_node11"><a xlink:title=" ">
<polygon fill="none" stroke="#bfbfbf" points="101.5,-0.5 101.5,-19.5 150.5,-19.5 150.5,-0.5 101.5,-0.5"/>
<text text-anchor="middle" x="126" y="-7.5" font-family="Helvetica,sans-Serif" font-size="10.00">cstdlib</text>
</a>
</g>
</g>
<!-- Node10&#45;&gt;Node11 -->
<g id="edge10" class="edge">
<title>Node10&#45;&gt;Node11</title>
<path fill="none" stroke="midnightblue" d="M136.85,-56.08C135.13,-48.93 132.65,-38.64 130.5,-29.69"/>
<polygon fill="midnightblue" stroke="midnightblue" points="133.85,-28.65 128.11,-19.75 127.04,-30.29 133.85,-28.65"/>
</g>
<!-- Node12 -->
<g id="node12" class="node">
<title>Node12</title>
<g id="a_node12"><a xlink:title=" ">
<polygon fill="none" stroke="#bfbfbf" points="168.5,-0.5 168.5,-19.5 237.5,-19.5 237.5,-0.5 168.5,-0.5"/>
<text text-anchor="middle" x="203" y="-7.5" font-family="Helvetica,sans-Serif" font-size="10.00">type_traits</text>
</a>
</g>
</g>
<!-- Node10&#45;&gt;Node12 -->
<g id="edge13" class="edge">
<title>Node10&#45;&gt;Node12</title>
<path fill="none" stroke="midnightblue" d="M149.28,-56.32C158.84,-48.26 173.28,-36.08 184.78,-26.37"/>
<polygon fill="midnightblue" stroke="midnightblue" points="187.14,-28.96 192.53,-19.83 182.63,-23.61 187.14,-28.96"/>
</g>
<!-- Node13&#45;&gt;Node8 -->
<g id="edge26" class="edge">
<title>Node13&#45;&gt;Node8</title>
<path fill="none" stroke="midnightblue" d="M295.05,-168.35C293.15,-150.9 288.7,-110.19 285,-76 283.32,-60.47 281.42,-42.84 280.03,-29.87"/>
<polygon fill="midnightblue" stroke="midnightblue" points="283.5,-29.4 278.95,-19.83 276.54,-30.15 283.5,-29.4"/>
</g>
<!-- Node13&#45;&gt;Node9 -->
<g id="edge15" class="edge">
<title>Node13&#45;&gt;Node9</title>
<path fill="none" stroke="midnightblue" d="M347.24,-169.35C350.54,-168.89 353.82,-168.43 357,-168 486.14,-150.49 531.58,-190.56 648,-132 669.69,-121.09 687.93,-99.41 698.89,-84.09"/>
<polygon fill="midnightblue" stroke="midnightblue" points="701.99,-85.76 704.74,-75.53 696.21,-81.81 701.99,-85.76"/>
</g>
<!-- Node14 -->
<g id="node14" class="node">
<title>Node14</title>
<g id="a_node14"><a xlink:href="irep_8h.html" target="_top" xlink:title=" ">
<polygon fill="none" stroke="black" points="302,-112.5 302,-131.5 346,-131.5 346,-112.5 302,-112.5"/>
<text text-anchor="middle" x="324" y="-119.5" font-family="Helvetica,sans-Serif" font-size="10.00">irep.h</text>
</a>
</g>
</g>
<!-- Node13&#45;&gt;Node14 -->
<g id="edge16" class="edge">
<title>Node13&#45;&gt;Node14</title>
<path fill="none" stroke="midnightblue" d="M300.62,-168.08C304.46,-160.69 310.02,-149.95 314.76,-140.81"/>
<polygon fill="midnightblue" stroke="midnightblue" points="317.97,-142.24 319.46,-131.75 311.75,-139.02 317.97,-142.24"/>
</g>
<!-- Node31 -->
<g id="node19" class="node">
<title>Node31</title>
<g id="a_node19"><a xlink:href="optional_8h.html" target="_top" xlink:title=" ">
<polygon fill="none" stroke="black" points="573.5,-112.5 573.5,-131.5 638.5,-131.5 638.5,-112.5 573.5,-112.5"/>
<text text-anchor="middle" x="606" y="-119.5" font-family="Helvetica,sans-Serif" font-size="10.00">optional.h</text>
</a>
</g>
</g>
<!-- Node13&#45;&gt;Node31 -->
<g id="edge23" class="edge">
<title>Node13&#45;&gt;Node31</title>
<path fill="none" stroke="midnightblue" d="M345.12,-168.44C405.23,-157.97 506.04,-140.41 563.14,-130.47"/>
<polygon fill="midnightblue" stroke="midnightblue" points="564.02,-133.86 573.28,-128.7 562.82,-126.97 564.02,-133.86"/>
</g>
<!-- Node14&#45;&gt;Node8 -->
<g id="edge17" class="edge">
<title>Node14&#45;&gt;Node8</title>
<path fill="none" stroke="midnightblue" d="M317.92,-112.4C311.93,-103.59 302.84,-89.36 297,-76 290.37,-60.85 285.29,-42.73 282.06,-29.48"/>
<polygon fill="midnightblue" stroke="midnightblue" points="285.45,-28.61 279.79,-19.66 278.63,-30.19 285.45,-28.61"/>
</g>
<!-- Node14&#45;&gt;Node10 -->
<g id="edge19" class="edge">
<title>Node14&#45;&gt;Node10</title>
<path fill="none" stroke="midnightblue" d="M301.68,-114.49C271.07,-105.55 215.58,-89.35 178.02,-78.39"/>
<polygon fill="midnightblue" stroke="midnightblue" points="178.99,-75.03 168.41,-75.58 177.03,-81.75 178.99,-75.03"/>
</g>
<!-- Node15 -->
<g id="node15" class="node">
<title>Node15</title>
<g id="a_node15"><a xlink:title=" ">
<polygon fill="none" stroke="#bfbfbf" points="533.5,-56.5 533.5,-75.5 580.5,-75.5 580.5,-56.5 533.5,-56.5"/>
<text text-anchor="middle" x="557" y="-63.5" font-family="Helvetica,sans-Serif" font-size="10.00">vector</text>
</a>
</g>
</g>
<!-- Node14&#45;&gt;Node15 -->
<g id="edge18" class="edge">
<title>Node14&#45;&gt;Node15</title>
<path fill="none" stroke="midnightblue" d="M346.1,-116.46C381.54,-109.09 453.49,-93.78 523.42,-76.31"/>
<polygon fill="midnightblue" stroke="midnightblue" points="524.43,-79.66 533.27,-73.83 522.72,-72.87 524.43,-79.66"/>
</g>
<!-- Node16 -->
<g id="node16" class="node">
<title>Node16</title>
<g id="a_node16"><a xlink:href="irep__ids_8h.html" target="_top" xlink:title="util">
<polygon fill="none" stroke="red" points="306,-56.5 306,-75.5 370,-75.5 370,-56.5 306,-56.5"/>
<text text-anchor="middle" x="338" y="-63.5" font-family="Helvetica,sans-Serif" font-size="10.00">irep_ids.h</text>
</a>
</g>
</g>
<!-- Node14&#45;&gt;Node16 -->
<g id="edge20" class="edge">
<title>Node14&#45;&gt;Node16</title>
<path fill="none" stroke="midnightblue" d="M326.31,-112.08C328.17,-104.93 330.84,-94.64 333.15,-85.69"/>
<polygon fill="midnightblue" stroke="midnightblue" points="336.61,-86.31 335.73,-75.75 329.83,-84.55 336.61,-86.31"/>
</g>
<!-- Node26 -->
<g id="node17" class="node">
<title>Node26</title>
<g id="a_node17"><a xlink:href="forward__list__as__map_8h.html" target="_top" xlink:title=" ">
<polygon fill="none" stroke="red" points="388.5,-56.5 388.5,-75.5 515.5,-75.5 515.5,-56.5 388.5,-56.5"/>
<text text-anchor="middle" x="452" y="-63.5" font-family="Helvetica,sans-Serif" font-size="10.00">forward_list_as_map.h</text>
</a>
</g>
</g>
<!-- Node14&#45;&gt;Node26 -->
<g id="edge21" class="edge">
<title>Node14&#45;&gt;Node26</title>
<path fill="none" stroke="midnightblue" d="M344.28,-112.44C365.35,-103.56 398.52,-89.56 422.49,-79.45"/>
<polygon fill="midnightblue" stroke="midnightblue" points="423.96,-82.63 431.81,-75.52 421.24,-76.18 423.96,-82.63"/>
</g>
<!-- Node27 -->
<g id="node18" class="node">
<title>Node27</title>
<g id="a_node18"><a xlink:title=" ">
<polygon fill="none" stroke="#bfbfbf" points="600,-0.5 600,-19.5 664,-19.5 664,-0.5 600,-0.5"/>
<text text-anchor="middle" x="632" y="-7.5" font-family="Helvetica,sans-Serif" font-size="10.00">algorithm</text>
</a>
</g>
</g>
<!-- Node26&#45;&gt;Node27 -->
<g id="edge22" class="edge">
<title>Node26&#45;&gt;Node27</title>
<path fill="none" stroke="midnightblue" d="M480.52,-56.44C511.07,-47.28 559.71,-32.69 593.6,-22.52"/>
<polygon fill="midnightblue" stroke="midnightblue" points="595.04,-25.74 603.61,-19.52 593.03,-19.04 595.04,-25.74"/>
</g>
<!-- Node31&#45;&gt;Node9 -->
<g id="edge24" class="edge">
<title>Node31&#45;&gt;Node9</title>
<path fill="none" stroke="midnightblue" d="M622.71,-112.32C639.31,-103.7 665,-90.36 684.22,-80.39"/>
<polygon fill="midnightblue" stroke="midnightblue" points="686.07,-83.37 693.33,-75.65 682.84,-77.16 686.07,-83.37"/>
</g>
<!-- Node32 -->
<g id="node20" class="node">
<title>Node32</title>
<g id="a_node20"><a xlink:title=" ">
<polygon fill="none" stroke="#bfbfbf" points="599,-56.5 599,-75.5 655,-75.5 655,-56.5 599,-56.5"/>
<text text-anchor="middle" x="627" y="-63.5" font-family="Helvetica,sans-Serif" font-size="10.00">optional</text>
</a>
</g>
</g>
<!-- Node31&#45;&gt;Node32 -->
<g id="edge25" class="edge">
<title>Node31&#45;&gt;Node32</title>
<path fill="none" stroke="midnightblue" d="M609.47,-112.08C612.31,-104.77 616.43,-94.18 619.96,-85.1"/>
<polygon fill="midnightblue" stroke="midnightblue" points="623.23,-86.34 623.6,-75.75 616.71,-83.8 623.23,-86.34"/>
</g>
<!-- Node33&#45;&gt;Node8 -->
<g id="edge29" class="edge">
<title>Node33&#45;&gt;Node8</title>
<path fill="none" stroke="midnightblue" d="M775.3,-112.2C775.25,-97.93 772.86,-69.92 756,-56 721.7,-27.68 412.23,-15.3 310.35,-11.97"/>
<polygon fill="midnightblue" stroke="midnightblue" points="310.17,-8.46 300.07,-11.64 309.95,-15.46 310.17,-8.46"/>
</g>
<!-- Node33&#45;&gt;Node15 -->
<g id="edge30" class="edge">
<title>Node33&#45;&gt;Node15</title>
<path fill="none" stroke="midnightblue" d="M738.77,-112.5C703.46,-104.15 648.01,-90.85 590.73,-76.13"/>
<polygon fill="midnightblue" stroke="midnightblue" points="591.33,-72.67 580.77,-73.57 589.58,-79.45 591.33,-72.67"/>
</g>
<!-- Node33&#45;&gt;Node27 -->
<g id="edge28" class="edge">
<title>Node33&#45;&gt;Node27</title>
<path fill="none" stroke="midnightblue" d="M780.73,-112.49C788.96,-99.12 801.78,-72.96 789,-56 775.13,-37.59 715.54,-24.41 673.91,-17.25"/>
<polygon fill="midnightblue" stroke="midnightblue" points="674.45,-13.79 664.01,-15.6 673.3,-20.7 674.45,-13.79"/>
</g>
</g>
</svg>
