<?xml version="1.0" encoding="UTF-8" standalone="no"?>
<!DOCTYPE svg PUBLIC "-//W3C//DTD SVG 1.1//EN"
 "http://www.w3.org/Graphics/SVG/1.1/DTD/svg11.dtd">
<!-- Generated by graphviz version 2.43.0 (0)
 -->
<!-- Title: /home/runner/work/cbmc/cbmc/src/memory&#45;analyzer/gdb_api.h Pages: 1 -->
<svg width="911pt" height="442pt"
 viewBox="0.00 0.00 911.00 442.00" xmlns="http://www.w3.org/2000/svg" xmlns:xlink="http://www.w3.org/1999/xlink">
<g id="graph0" class="graph" transform="scale(1 1) rotate(0) translate(4 438)">
<title>/home/runner/work/cbmc/cbmc/src/memory&#45;analyzer/gdb_api.h</title>
<!-- Node1 -->
<g id="node1" class="node">
<title>Node1</title>
<g id="a_node1"><a xlink:title=" ">
<polygon fill="#bfbfbf" stroke="black" points="98.5,-392.5 98.5,-433.5 251.5,-433.5 251.5,-392.5 98.5,-392.5"/>
<text text-anchor="start" x="106.5" y="-421.5" font-family="Helvetica,sans-Serif" font-size="10.00">/home/runner/work/cbmc</text>
<text text-anchor="start" x="106.5" y="-410.5" font-family="Helvetica,sans-Serif" font-size="10.00">/cbmc/src/memory&#45;analyzer</text>
<text text-anchor="middle" x="175" y="-399.5" font-family="Helvetica,sans-Serif" font-size="10.00">/gdb_api.h</text>
</a>
</g>
</g>
<!-- Node2 -->
<g id="node2" class="node">
<title>Node2</title>
<g id="a_node2"><a xlink:title=" ">
<polygon fill="none" stroke="#bfbfbf" points="0,-336.5 0,-355.5 56,-355.5 56,-336.5 0,-336.5"/>
<text text-anchor="middle" x="28" y="-343.5" font-family="Helvetica,sans-Serif" font-size="10.00">unistd.h</text>
</a>
</g>
</g>
<!-- Node1&#45;&gt;Node2 -->
<g id="edge1" class="edge">
<title>Node1&#45;&gt;Node2</title>
<path fill="none" stroke="midnightblue" d="M130.9,-392.5C106.95,-381.91 78.02,-369.12 56.94,-359.8"/>
<polygon fill="midnightblue" stroke="midnightblue" points="58.13,-356.5 47.57,-355.65 55.3,-362.9 58.13,-356.5"/>
</g>
<!-- Node3 -->
<g id="node3" class="node">
<title>Node3</title>
<g id="a_node3"><a xlink:title=" ">
<polygon fill="none" stroke="#bfbfbf" points="69,-112.5 69,-131.5 133,-131.5 133,-112.5 69,-112.5"/>
<text text-anchor="middle" x="101" y="-119.5" font-family="Helvetica,sans-Serif" font-size="10.00">algorithm</text>
</a>
</g>
</g>
<!-- Node1&#45;&gt;Node3 -->
<g id="edge2" class="edge">
<title>Node1&#45;&gt;Node3</title>
<path fill="none" stroke="midnightblue" d="M141.38,-392.45C127.73,-383 112.88,-370.54 103,-356 86.08,-331.11 84,-321.1 84,-291 84,-291 84,-291 84,-233 84,-200.58 91.3,-163.42 96.33,-141.64"/>
<polygon fill="midnightblue" stroke="midnightblue" points="99.77,-142.31 98.71,-131.77 92.97,-140.67 99.77,-142.31"/>
</g>
<!-- Node4 -->
<g id="node4" class="node">
<title>Node4</title>
<g id="a_node4"><a xlink:title=" ">
<polygon fill="none" stroke="#bfbfbf" points="112.5,-336.5 112.5,-355.5 177.5,-355.5 177.5,-336.5 112.5,-336.5"/>
<text text-anchor="middle" x="145" y="-343.5" font-family="Helvetica,sans-Serif" font-size="10.00">exception</text>
</a>
</g>
</g>
<!-- Node1&#45;&gt;Node4 -->
<g id="edge3" class="edge">
<title>Node1&#45;&gt;Node4</title>
<path fill="none" stroke="midnightblue" d="M166,-392.5C161.93,-383.68 157.16,-373.34 153.19,-364.74"/>
<polygon fill="midnightblue" stroke="midnightblue" points="156.36,-363.27 148.99,-355.65 150.01,-366.2 156.36,-363.27"/>
</g>
<!-- Node5 -->
<g id="node5" class="node">
<title>Node5</title>
<g id="a_node5"><a xlink:title=" ">
<polygon fill="none" stroke="#bfbfbf" points="160,-112.5 160,-131.5 234,-131.5 234,-112.5 160,-112.5"/>
<text text-anchor="middle" x="197" y="-119.5" font-family="Helvetica,sans-Serif" font-size="10.00">forward_list</text>
</a>
</g>
</g>
<!-- Node1&#45;&gt;Node5 -->
<g id="edge4" class="edge">
<title>Node1&#45;&gt;Node5</title>
<path fill="none" stroke="midnightblue" d="M183.31,-392.27C192.49,-368.64 206,-327.65 206,-291 206,-291 206,-291 206,-233 206,-200.84 202.13,-163.57 199.47,-141.71"/>
<polygon fill="midnightblue" stroke="midnightblue" points="202.91,-141.02 198.18,-131.54 195.96,-141.9 202.91,-141.02"/>
</g>
<!-- Node6 -->
<g id="node6" class="node">
<title>Node6</title>
<g id="a_node6"><a xlink:title=" ">
<polygon fill="none" stroke="#bfbfbf" points="234,-336.5 234,-355.5 272,-355.5 272,-336.5 234,-336.5"/>
<text text-anchor="middle" x="253" y="-343.5" font-family="Helvetica,sans-Serif" font-size="10.00">map</text>
</a>
</g>
</g>
<!-- Node1&#45;&gt;Node6 -->
<g id="edge5" class="edge">
<title>Node1&#45;&gt;Node6</title>
<path fill="none" stroke="midnightblue" d="M198.4,-392.5C210.02,-382.82 223.84,-371.3 234.67,-362.27"/>
<polygon fill="midnightblue" stroke="midnightblue" points="237.18,-364.74 242.62,-355.65 232.69,-359.37 237.18,-364.74"/>
</g>
<!-- Node7 -->
<g id="node7" class="node">
<title>Node7</title>
<g id="a_node7"><a xlink:href="exception__utils_8h.html" target="_top" xlink:title=" ">
<polygon fill="none" stroke="black" points="475.5,-336.5 475.5,-355.5 594.5,-355.5 594.5,-336.5 475.5,-336.5"/>
<text text-anchor="middle" x="535" y="-343.5" font-family="Helvetica,sans-Serif" font-size="10.00">util/exception_utils.h</text>
</a>
</g>
</g>
<!-- Node1&#45;&gt;Node7 -->
<g id="edge6" class="edge">
<title>Node1&#45;&gt;Node7</title>
<path fill="none" stroke="midnightblue" d="M251.79,-398.14C319.57,-385.9 416.84,-368.34 477.93,-357.3"/>
<polygon fill="midnightblue" stroke="midnightblue" points="478.57,-360.75 487.78,-355.53 477.32,-353.86 478.57,-360.75"/>
</g>
<!-- Node8 -->
<g id="node8" class="node">
<title>Node8</title>
<g id="a_node8"><a xlink:title=" ">
<polygon fill="none" stroke="#bfbfbf" points="805,-0.5 805,-19.5 849,-19.5 849,-0.5 805,-0.5"/>
<text text-anchor="middle" x="827" y="-7.5" font-family="Helvetica,sans-Serif" font-size="10.00">string</text>
</a>
</g>
</g>
<!-- Node7&#45;&gt;Node8 -->
<g id="edge7" class="edge">
<title>Node7&#45;&gt;Node8</title>
<path fill="none" stroke="midnightblue" d="M594.53,-339.6C698.69,-328.49 903,-298.6 903,-235 903,-235 903,-235 903,-121 903,-81.28 869.04,-45.5 846.52,-26.15"/>
<polygon fill="midnightblue" stroke="midnightblue" points="848.48,-23.24 838.54,-19.57 844.02,-28.63 848.48,-23.24"/>
</g>
<!-- Node9 -->
<g id="node9" class="node">
<title>Node9</title>
<g id="a_node9"><a xlink:href="src_2util_2invariant_8h.html" target="_top" xlink:title=" ">
<polygon fill="none" stroke="black" points="391.5,-56.5 391.5,-75.5 460.5,-75.5 460.5,-56.5 391.5,-56.5"/>
<text text-anchor="middle" x="426" y="-63.5" font-family="Helvetica,sans-Serif" font-size="10.00">invariant.h</text>
</a>
</g>
</g>
<!-- Node7&#45;&gt;Node9 -->
<g id="edge8" class="edge">
<title>Node7&#45;&gt;Node9</title>
<path fill="none" stroke="midnightblue" d="M515.76,-336.42C484.47,-320.99 426,-285.41 426,-235 426,-235 426,-235 426,-177 426,-144.95 426,-107.64 426,-85.75"/>
<polygon fill="midnightblue" stroke="midnightblue" points="429.5,-85.56 426,-75.56 422.5,-85.56 429.5,-85.56"/>
</g>
<!-- Node13 -->
<g id="node13" class="node">
<title>Node13</title>
<g id="a_node13"><a xlink:href="source__location_8h.html" target="_top" xlink:title=" ">
<polygon fill="none" stroke="black" points="593,-280.5 593,-299.5 695,-299.5 695,-280.5 593,-280.5"/>
<text text-anchor="middle" x="644" y="-287.5" font-family="Helvetica,sans-Serif" font-size="10.00">source_location.h</text>
</a>
</g>
</g>
<!-- Node7&#45;&gt;Node13 -->
<g id="edge13" class="edge">
<title>Node7&#45;&gt;Node13</title>
<path fill="none" stroke="midnightblue" d="M552.51,-336.32C570.07,-327.62 597.33,-314.12 617.53,-304.11"/>
<polygon fill="midnightblue" stroke="midnightblue" points="619.12,-307.23 626.53,-299.65 616.02,-300.96 619.12,-307.23"/>
</g>
<!-- Node9&#45;&gt;Node8 -->
<g id="edge11" class="edge">
<title>Node9&#45;&gt;Node8</title>
<path fill="none" stroke="midnightblue" d="M460.54,-60.35C537.13,-50.03 720.33,-25.36 794.75,-15.34"/>
<polygon fill="midnightblue" stroke="midnightblue" points="795.47,-18.78 804.91,-13.97 794.54,-11.84 795.47,-18.78"/>
</g>
<!-- Node10 -->
<g id="node10" class="node">
<title>Node10</title>
<g id="a_node10"><a xlink:title=" ">
<polygon fill="none" stroke="#bfbfbf" points="393.5,-0.5 393.5,-19.5 442.5,-19.5 442.5,-0.5 393.5,-0.5"/>
<text text-anchor="middle" x="418" y="-7.5" font-family="Helvetica,sans-Serif" font-size="10.00">cstdlib</text>
</a>
</g>
</g>
<!-- Node9&#45;&gt;Node10 -->
<g id="edge9" class="edge">
<title>Node9&#45;&gt;Node10</title>
<path fill="none" stroke="midnightblue" d="M424.68,-56.08C423.62,-48.93 422.09,-38.64 420.77,-29.69"/>
<polygon fill="midnightblue" stroke="midnightblue" points="424.22,-29.13 419.3,-19.75 417.3,-30.16 424.22,-29.13"/>
</g>
<!-- Node11 -->
<g id="node11" class="node">
<title>Node11</title>
<g id="a_node11"><a xlink:title=" ">
<polygon fill="none" stroke="#bfbfbf" points="461,-0.5 461,-19.5 517,-19.5 517,-0.5 461,-0.5"/>
<text text-anchor="middle" x="489" y="-7.5" font-family="Helvetica,sans-Serif" font-size="10.00">sstream</text>
</a>
</g>
</g>
<!-- Node9&#45;&gt;Node11 -->
<g id="edge10" class="edge">
<title>Node9&#45;&gt;Node11</title>
<path fill="none" stroke="midnightblue" d="M436.12,-56.32C445.53,-48.26 459.74,-36.08 471.07,-26.37"/>
<polygon fill="midnightblue" stroke="midnightblue" points="473.38,-29 478.69,-19.83 468.82,-23.68 473.38,-29"/>
</g>
<!-- Node12 -->
<g id="node12" class="node">
<title>Node12</title>
<g id="a_node12"><a xlink:title=" ">
<polygon fill="none" stroke="#bfbfbf" points="289.5,-0.5 289.5,-19.5 358.5,-19.5 358.5,-0.5 289.5,-0.5"/>
<text text-anchor="middle" x="324" y="-7.5" font-family="Helvetica,sans-Serif" font-size="10.00">type_traits</text>
</a>
</g>
</g>
<!-- Node9&#45;&gt;Node12 -->
<g id="edge12" class="edge">
<title>Node9&#45;&gt;Node12</title>
<path fill="none" stroke="midnightblue" d="M409.61,-56.32C393.33,-47.7 368.13,-34.36 349.28,-24.39"/>
<polygon fill="midnightblue" stroke="midnightblue" points="350.82,-21.24 340.35,-19.65 347.55,-27.43 350.82,-21.24"/>
</g>
<!-- Node13&#45;&gt;Node8 -->
<g id="edge37" class="edge">
<title>Node13&#45;&gt;Node8</title>
<path fill="none" stroke="midnightblue" d="M695.26,-285.59C760.54,-278.14 865,-254.43 865,-179 865,-179 865,-179 865,-121 865,-86.81 848.4,-49.76 837.14,-28.57"/>
<polygon fill="midnightblue" stroke="midnightblue" points="840.18,-26.83 832.28,-19.77 834.05,-30.22 840.18,-26.83"/>
</g>
<!-- Node14 -->
<g id="node14" class="node">
<title>Node14</title>
<g id="a_node14"><a xlink:href="deprecate_8h.html" target="_top" xlink:title=" ">
<polygon fill="none" stroke="black" points="695,-224.5 695,-243.5 769,-243.5 769,-224.5 695,-224.5"/>
<text text-anchor="middle" x="732" y="-231.5" font-family="Helvetica,sans-Serif" font-size="10.00">deprecate.h</text>
</a>
</g>
</g>
<!-- Node13&#45;&gt;Node14 -->
<g id="edge14" class="edge">
<title>Node13&#45;&gt;Node14</title>
<path fill="none" stroke="midnightblue" d="M658.14,-280.32C671.87,-271.9 692.94,-258.97 709.06,-249.07"/>
<polygon fill="midnightblue" stroke="midnightblue" points="711.2,-251.87 717.9,-243.65 707.54,-245.9 711.2,-251.87"/>
</g>
<!-- Node15 -->
<g id="node15" class="node">
<title>Node15</title>
<g id="a_node15"><a xlink:href="irep_8h.html" target="_top" xlink:title=" ">
<polygon fill="none" stroke="black" points="512,-224.5 512,-243.5 556,-243.5 556,-224.5 512,-224.5"/>
<text text-anchor="middle" x="534" y="-231.5" font-family="Helvetica,sans-Serif" font-size="10.00">irep.h</text>
</a>
</g>
</g>
<!-- Node13&#45;&gt;Node15 -->
<g id="edge15" class="edge">
<title>Node13&#45;&gt;Node15</title>
<path fill="none" stroke="midnightblue" d="M626.33,-280.32C608.61,-271.62 581.1,-258.12 560.71,-248.11"/>
<polygon fill="midnightblue" stroke="midnightblue" points="562.15,-244.92 551.63,-243.65 559.06,-251.2 562.15,-244.92"/>
</g>
<!-- Node31 -->
<g id="node26" class="node">
<title>Node31</title>
<g id="a_node26"><a xlink:href="optional_8h.html" target="_top" xlink:title=" ">
<polygon fill="none" stroke="black" points="611.5,-224.5 611.5,-243.5 676.5,-243.5 676.5,-224.5 611.5,-224.5"/>
<text text-anchor="middle" x="644" y="-231.5" font-family="Helvetica,sans-Serif" font-size="10.00">optional.h</text>
</a>
</g>
</g>
<!-- Node13&#45;&gt;Node31 -->
<g id="edge35" class="edge">
<title>Node13&#45;&gt;Node31</title>
<path fill="none" stroke="midnightblue" d="M644,-280.08C644,-273.01 644,-262.86 644,-253.99"/>
<polygon fill="midnightblue" stroke="midnightblue" points="647.5,-253.75 644,-243.75 640.5,-253.75 647.5,-253.75"/>
</g>
<!-- Node15&#45;&gt;Node8 -->
<g id="edge16" class="edge">
<title>Node15&#45;&gt;Node8</title>
<path fill="none" stroke="midnightblue" d="M556.31,-224.55C605.09,-205.1 722.58,-152.87 794,-76 806.49,-62.55 815.42,-43.48 820.82,-29.47"/>
<polygon fill="midnightblue" stroke="midnightblue" points="824.16,-30.52 824.25,-19.92 817.57,-28.15 824.16,-30.52"/>
</g>
<!-- Node15&#45;&gt;Node9 -->
<g id="edge18" class="edge">
<title>Node15&#45;&gt;Node9</title>
<path fill="none" stroke="midnightblue" d="M523.16,-224.19C513.16,-215.67 498.34,-202.03 488,-188 463.36,-154.56 443.3,-109.92 433.17,-85.28"/>
<polygon fill="midnightblue" stroke="midnightblue" points="436.32,-83.73 429.34,-75.76 429.82,-86.34 436.32,-83.73"/>
</g>
<!-- Node16 -->
<g id="node16" class="node">
<title>Node16</title>
<g id="a_node16"><a xlink:title=" ">
<polygon fill="none" stroke="#bfbfbf" points="614.5,-0.5 614.5,-19.5 661.5,-19.5 661.5,-0.5 614.5,-0.5"/>
<text text-anchor="middle" x="638" y="-7.5" font-family="Helvetica,sans-Serif" font-size="10.00">vector</text>
</a>
</g>
</g>
<!-- Node15&#45;&gt;Node16 -->
<g id="edge17" class="edge">
<title>Node15&#45;&gt;Node16</title>
<path fill="none" stroke="midnightblue" d="M528.8,-224.26C513.11,-196.64 469.63,-109.89 508,-56 529.69,-25.54 573.46,-15.51 604.2,-12.31"/>
<polygon fill="midnightblue" stroke="midnightblue" points="604.8,-15.77 614.47,-11.44 604.21,-8.79 604.8,-15.77"/>
</g>
<!-- Node17 -->
<g id="node17" class="node">
<title>Node17</title>
<g id="a_node17"><a xlink:href="irep__ids_8h.html" target="_top" xlink:title=" ">
<polygon fill="none" stroke="black" points="535,-168.5 535,-187.5 599,-187.5 599,-168.5 535,-168.5"/>
<text text-anchor="middle" x="567" y="-175.5" font-family="Helvetica,sans-Serif" font-size="10.00">irep_ids.h</text>
</a>
</g>
</g>
<!-- Node15&#45;&gt;Node17 -->
<g id="edge19" class="edge">
<title>Node15&#45;&gt;Node17</title>
<path fill="none" stroke="midnightblue" d="M539.45,-224.08C544.01,-216.61 550.67,-205.72 556.29,-196.52"/>
<polygon fill="midnightblue" stroke="midnightblue" points="559.42,-198.11 561.65,-187.75 553.45,-194.46 559.42,-198.11"/>
</g>
<!-- Node28 -->
<g id="node23" class="node">
<title>Node28</title>
<g id="a_node23"><a xlink:href="forward__list__as__map_8h.html" target="_top" xlink:title=" ">
<polygon fill="none" stroke="black" points="234.5,-168.5 234.5,-187.5 361.5,-187.5 361.5,-168.5 234.5,-168.5"/>
<text text-anchor="middle" x="298" y="-175.5" font-family="Helvetica,sans-Serif" font-size="10.00">forward_list_as_map.h</text>
</a>
</g>
</g>
<!-- Node15&#45;&gt;Node28 -->
<g id="edge28" class="edge">
<title>Node15&#45;&gt;Node28</title>
<path fill="none" stroke="midnightblue" d="M511.8,-227.92C473.9,-219.25 395.94,-201.41 345.37,-189.84"/>
<polygon fill="midnightblue" stroke="midnightblue" points="345.86,-186.36 335.33,-187.54 344.3,-193.18 345.86,-186.36"/>
</g>
<!-- Node18 -->
<g id="node18" class="node">
<title>Node18</title>
<g id="a_node18"><a xlink:href="dstring_8h.html" target="_top" xlink:title=" ">
<polygon fill="none" stroke="black" points="622.5,-112.5 622.5,-131.5 681.5,-131.5 681.5,-112.5 622.5,-112.5"/>
<text text-anchor="middle" x="652" y="-119.5" font-family="Helvetica,sans-Serif" font-size="10.00">dstring.h</text>
</a>
</g>
</g>
<!-- Node17&#45;&gt;Node18 -->
<g id="edge20" class="edge">
<title>Node17&#45;&gt;Node18</title>
<path fill="none" stroke="midnightblue" d="M580.66,-168.32C593.92,-159.9 614.27,-146.97 629.85,-137.07"/>
<polygon fill="midnightblue" stroke="midnightblue" points="631.81,-139.97 638.38,-131.65 628.06,-134.06 631.81,-139.97"/>
</g>
<!-- Node27 -->
<g id="node22" class="node">
<title>Node27</title>
<g id="a_node22"><a xlink:title=" ">
<polygon fill="none" stroke="#bfbfbf" points="530,-112.5 530,-131.5 604,-131.5 604,-112.5 530,-112.5"/>
<text text-anchor="middle" x="567" y="-119.5" font-family="Helvetica,sans-Serif" font-size="10.00">irep_ids.def</text>
</a>
</g>
</g>
<!-- Node17&#45;&gt;Node27 -->
<g id="edge27" class="edge">
<title>Node17&#45;&gt;Node27</title>
<path fill="none" stroke="midnightblue" d="M567,-168.08C567,-161.01 567,-150.86 567,-141.99"/>
<polygon fill="midnightblue" stroke="midnightblue" points="570.5,-141.75 567,-131.75 563.5,-141.75 570.5,-141.75"/>
</g>
<!-- Node18&#45;&gt;Node8 -->
<g id="edge22" class="edge">
<title>Node18&#45;&gt;Node8</title>
<path fill="none" stroke="midnightblue" d="M681.55,-114.04C706.65,-107.16 742.82,-94.9 770,-76 788.6,-63.07 805.08,-42.79 815.48,-28.32"/>
<polygon fill="midnightblue" stroke="midnightblue" points="818.57,-30 821.39,-19.79 812.82,-26.02 818.57,-30"/>
</g>
<!-- Node18&#45;&gt;Node9 -->
<g id="edge23" class="edge">
<title>Node18&#45;&gt;Node9</title>
<path fill="none" stroke="midnightblue" d="M622.45,-113.94C583.74,-104.69 515.51,-88.39 470.53,-77.64"/>
<polygon fill="midnightblue" stroke="midnightblue" points="471.28,-74.22 460.74,-75.3 469.65,-81.03 471.28,-74.22"/>
</g>
<!-- Node19 -->
<g id="node19" class="node">
<title>Node19</title>
<g id="a_node19"><a xlink:title=" ">
<polygon fill="none" stroke="#bfbfbf" points="517,-56.5 517,-75.5 565,-75.5 565,-56.5 517,-56.5"/>
<text text-anchor="middle" x="541" y="-63.5" font-family="Helvetica,sans-Serif" font-size="10.00">iosfwd</text>
</a>
</g>
</g>
<!-- Node18&#45;&gt;Node19 -->
<g id="edge21" class="edge">
<title>Node18&#45;&gt;Node19</title>
<path fill="none" stroke="midnightblue" d="M634.17,-112.32C616.28,-103.62 588.52,-90.12 567.95,-80.11"/>
<polygon fill="midnightblue" stroke="midnightblue" points="569.31,-76.88 558.79,-75.65 566.25,-83.18 569.31,-76.88"/>
</g>
<!-- Node20 -->
<g id="node20" class="node">
<title>Node20</title>
<g id="a_node20"><a xlink:href="magic_8h.html" target="_top" xlink:title="Magic numbers used throughout the codebase.">
<polygon fill="none" stroke="red" points="583,-56.5 583,-75.5 639,-75.5 639,-56.5 583,-56.5"/>
<text text-anchor="middle" x="611" y="-63.5" font-family="Helvetica,sans-Serif" font-size="10.00">magic.h</text>
</a>
</g>
</g>
<!-- Node18&#45;&gt;Node20 -->
<g id="edge24" class="edge">
<title>Node18&#45;&gt;Node20</title>
<path fill="none" stroke="midnightblue" d="M645.23,-112.08C639.44,-104.46 630.94,-93.26 623.86,-83.94"/>
<polygon fill="midnightblue" stroke="midnightblue" points="626.48,-81.6 617.64,-75.75 620.9,-85.83 626.48,-81.6"/>
</g>
<!-- Node22 -->
<g id="node21" class="node">
<title>Node22</title>
<g id="a_node21"><a xlink:href="string__container_8h.html" target="_top" xlink:title=" ">
<polygon fill="none" stroke="red" points="657,-56.5 657,-75.5 761,-75.5 761,-56.5 657,-56.5"/>
<text text-anchor="middle" x="709" y="-63.5" font-family="Helvetica,sans-Serif" font-size="10.00">string_container.h</text>
</a>
</g>
</g>
<!-- Node18&#45;&gt;Node22 -->
<g id="edge25" class="edge">
<title>Node18&#45;&gt;Node22</title>
<path fill="none" stroke="midnightblue" d="M661.16,-112.32C669.5,-104.42 682.03,-92.55 692.18,-82.94"/>
<polygon fill="midnightblue" stroke="midnightblue" points="694.82,-85.25 699.68,-75.83 690.01,-80.17 694.82,-85.25"/>
</g>
<!-- Node22&#45;&gt;Node16 -->
<g id="edge26" class="edge">
<title>Node22&#45;&gt;Node16</title>
<path fill="none" stroke="midnightblue" d="M697.59,-56.32C686.89,-48.18 670.66,-35.84 657.84,-26.09"/>
<polygon fill="midnightblue" stroke="midnightblue" points="659.69,-23.1 649.61,-19.83 655.46,-28.67 659.69,-23.1"/>
</g>
<!-- Node28&#45;&gt;Node3 -->
<g id="edge29" class="edge">
<title>Node28&#45;&gt;Node3</title>
<path fill="none" stroke="midnightblue" d="M266.78,-168.44C233.07,-159.2 179.2,-144.44 142.07,-134.26"/>
<polygon fill="midnightblue" stroke="midnightblue" points="142.64,-130.78 132.07,-131.52 140.79,-137.54 142.64,-130.78"/>
</g>
<!-- Node28&#45;&gt;Node5 -->
<g id="edge30" class="edge">
<title>Node28&#45;&gt;Node5</title>
<path fill="none" stroke="midnightblue" d="M281.77,-168.32C265.65,-159.7 240.7,-146.36 222.04,-136.39"/>
<polygon fill="midnightblue" stroke="midnightblue" points="223.66,-133.28 213.19,-131.65 220.36,-139.46 223.66,-133.28"/>
</g>
<!-- Node29 -->
<g id="node24" class="node">
<title>Node29</title>
<g id="a_node24"><a xlink:href="as__const_8h.html" target="_top" xlink:title=" ">
<polygon fill="none" stroke="black" points="330,-112.5 330,-131.5 398,-131.5 398,-112.5 330,-112.5"/>
<text text-anchor="middle" x="364" y="-119.5" font-family="Helvetica,sans-Serif" font-size="10.00">as_const.h</text>
</a>
</g>
</g>
<!-- Node28&#45;&gt;Node29 -->
<g id="edge31" class="edge">
<title>Node28&#45;&gt;Node29</title>
<path fill="none" stroke="midnightblue" d="M308.6,-168.32C318.46,-160.26 333.35,-148.08 345.22,-138.37"/>
<polygon fill="midnightblue" stroke="midnightblue" points="347.68,-140.88 353.2,-131.83 343.25,-135.46 347.68,-140.88"/>
</g>
<!-- Node30 -->
<g id="node25" class="node">
<title>Node30</title>
<g id="a_node25"><a xlink:href="narrow_8h.html" target="_top" xlink:title=" ">
<polygon fill="none" stroke="black" points="252.5,-112.5 252.5,-131.5 311.5,-131.5 311.5,-112.5 252.5,-112.5"/>
<text text-anchor="middle" x="282" y="-119.5" font-family="Helvetica,sans-Serif" font-size="10.00">narrow.h</text>
</a>
</g>
</g>
<!-- Node28&#45;&gt;Node30 -->
<g id="edge32" class="edge">
<title>Node28&#45;&gt;Node30</title>
<path fill="none" stroke="midnightblue" d="M295.36,-168.08C293.21,-160.85 290.12,-150.41 287.45,-141.4"/>
<polygon fill="midnightblue" stroke="midnightblue" points="290.79,-140.34 284.59,-131.75 284.08,-142.33 290.79,-140.34"/>
</g>
<!-- Node30&#45;&gt;Node9 -->
<g id="edge34" class="edge">
<title>Node30&#45;&gt;Node9</title>
<path fill="none" stroke="midnightblue" d="M304.82,-112.44C328.83,-103.44 366.83,-89.19 393.87,-79.05"/>
<polygon fill="midnightblue" stroke="midnightblue" points="395.16,-82.3 403.29,-75.52 392.7,-75.75 395.16,-82.3"/>
</g>
<!-- Node30&#45;&gt;Node12 -->
<g id="edge33" class="edge">
<title>Node30&#45;&gt;Node12</title>
<path fill="none" stroke="midnightblue" d="M285.3,-112.37C292.13,-94.46 307.99,-52.92 317.15,-28.95"/>
<polygon fill="midnightblue" stroke="midnightblue" points="320.42,-30.18 320.72,-19.59 313.88,-27.69 320.42,-30.18"/>
</g>
<!-- Node32 -->
<g id="node27" class="node">
<title>Node32</title>
<g id="a_node27"><a xlink:title=" ">
<polygon fill="none" stroke="#bfbfbf" points="723.5,-168.5 723.5,-187.5 836.5,-187.5 836.5,-168.5 723.5,-168.5"/>
<text text-anchor="middle" x="780" y="-175.5" font-family="Helvetica,sans-Serif" font-size="10.00">nonstd/optional.hpp</text>
</a>
</g>
</g>
<!-- Node31&#45;&gt;Node32 -->
<g id="edge36" class="edge">
<title>Node31&#45;&gt;Node32</title>
<path fill="none" stroke="midnightblue" d="M665.55,-224.44C688.03,-215.52 723.49,-201.44 748.98,-191.32"/>
<polygon fill="midnightblue" stroke="midnightblue" points="750.55,-194.46 758.55,-187.52 747.97,-187.95 750.55,-194.46"/>
</g>
</g>
</svg>
