<?xml version="1.0" encoding="UTF-8" standalone="no"?>
<!DOCTYPE svg PUBLIC "-//W3C//DTD SVG 1.1//EN"
 "http://www.w3.org/Graphics/SVG/1.1/DTD/svg11.dtd">
<!-- Generated by graphviz version 2.43.0 (0)
 -->
<!-- Title: /home/runner/work/cbmc/cbmc/jbmc/src/java_bytecode/generic_parameter_specialization_map.h Pages: 1 -->
<svg width="1602pt" height="621pt"
 viewBox="0.00 0.00 1601.50 621.00" xmlns="http://www.w3.org/2000/svg" xmlns:xlink="http://www.w3.org/1999/xlink">
<g id="graph0" class="graph" transform="scale(1 1) rotate(0) translate(4 617)">
<title>/home/runner/work/cbmc/cbmc/jbmc/src/java_bytecode/generic_parameter_specialization_map.h</title>
<!-- Node1 -->
<g id="node1" class="node">
<title>Node1</title>
<g id="a_node1"><a xlink:title=" ">
<polygon fill="#bfbfbf" stroke="black" points="38,-571.5 38,-612.5 259,-612.5 259,-571.5 38,-571.5"/>
<text text-anchor="start" x="46" y="-600.5" font-family="Helvetica,sans-Serif" font-size="10.00">/home/runner/work/cbmc</text>
<text text-anchor="start" x="46" y="-589.5" font-family="Helvetica,sans-Serif" font-size="10.00">/cbmc/jbmc/src/java_bytecode</text>
<text text-anchor="middle" x="148.5" y="-578.5" font-family="Helvetica,sans-Serif" font-size="10.00">/generic_parameter_specialization_map.h</text>
</a>
</g>
</g>
<!-- Node2 -->
<g id="node2" class="node">
<title>Node2</title>
<g id="a_node2"><a xlink:title=" ">
<polygon fill="none" stroke="#bfbfbf" points="0,-515.5 0,-534.5 43,-534.5 43,-515.5 0,-515.5"/>
<text text-anchor="middle" x="21.5" y="-522.5" font-family="Helvetica,sans-Serif" font-size="10.00">stack</text>
</a>
</g>
</g>
<!-- Node1&#45;&gt;Node2 -->
<g id="edge1" class="edge">
<title>Node1&#45;&gt;Node2</title>
<path fill="none" stroke="midnightblue" d="M110.4,-571.5C90.18,-561.15 65.84,-548.69 47.75,-539.43"/>
<polygon fill="midnightblue" stroke="midnightblue" points="48.9,-536.09 38.41,-534.65 45.71,-542.32 48.9,-536.09"/>
</g>
<!-- Node3 -->
<g id="node3" class="node">
<title>Node3</title>
<g id="a_node3"><a xlink:title=" ">
<polygon fill="none" stroke="#bfbfbf" points="48,-459.5 48,-478.5 95,-478.5 95,-459.5 48,-459.5"/>
<text text-anchor="middle" x="71.5" y="-466.5" font-family="Helvetica,sans-Serif" font-size="10.00">vector</text>
</a>
</g>
</g>
<!-- Node1&#45;&gt;Node3 -->
<g id="edge2" class="edge">
<title>Node1&#45;&gt;Node3</title>
<path fill="none" stroke="midnightblue" d="M122.67,-571.29C111.38,-561.48 98.83,-548.78 90.5,-535 81.85,-520.69 76.95,-502.23 74.3,-488.64"/>
<polygon fill="midnightblue" stroke="midnightblue" points="77.71,-487.83 72.57,-478.56 70.81,-489.01 77.71,-487.83"/>
</g>
<!-- Node4 -->
<g id="node4" class="node">
<title>Node4</title>
<g id="a_node4"><a xlink:href="string__utils_8h.html" target="_top" xlink:title=" ">
<polygon fill="none" stroke="black" points="99.5,-515.5 99.5,-534.5 197.5,-534.5 197.5,-515.5 99.5,-515.5"/>
<text text-anchor="middle" x="148.5" y="-522.5" font-family="Helvetica,sans-Serif" font-size="10.00">util/string_utils.h</text>
</a>
</g>
</g>
<!-- Node1&#45;&gt;Node4 -->
<g id="edge3" class="edge">
<title>Node1&#45;&gt;Node4</title>
<path fill="none" stroke="midnightblue" d="M148.5,-571.5C148.5,-563.07 148.5,-553.24 148.5,-544.87"/>
<polygon fill="midnightblue" stroke="midnightblue" points="152,-544.65 148.5,-534.65 145,-544.65 152,-544.65"/>
</g>
<!-- Node6 -->
<g id="node6" class="node">
<title>Node6</title>
<g id="a_node6"><a xlink:href="expr2java_8h.html" target="_top" xlink:title=" ">
<polygon fill="none" stroke="black" points="663.5,-515.5 663.5,-534.5 737.5,-534.5 737.5,-515.5 663.5,-515.5"/>
<text text-anchor="middle" x="700.5" y="-522.5" font-family="Helvetica,sans-Serif" font-size="10.00">expr2java.h</text>
</a>
</g>
</g>
<!-- Node1&#45;&gt;Node6 -->
<g id="edge6" class="edge">
<title>Node1&#45;&gt;Node6</title>
<path fill="none" stroke="midnightblue" d="M259.21,-577.96C379.58,-563.79 566.35,-541.8 653.16,-531.57"/>
<polygon fill="midnightblue" stroke="midnightblue" points="653.72,-535.03 663.24,-530.39 652.9,-528.08 653.72,-535.03"/>
</g>
<!-- Node57 -->
<g id="node32" class="node">
<title>Node57</title>
<g id="a_node32"><a xlink:href="java__types_8h.html" target="_top" xlink:title=" ">
<polygon fill="none" stroke="black" points="1329,-515.5 1329,-534.5 1408,-534.5 1408,-515.5 1329,-515.5"/>
<text text-anchor="middle" x="1368.5" y="-522.5" font-family="Helvetica,sans-Serif" font-size="10.00">java_types.h</text>
</a>
</g>
</g>
<!-- Node1&#45;&gt;Node57 -->
<g id="edge60" class="edge">
<title>Node1&#45;&gt;Node57</title>
<path fill="none" stroke="midnightblue" d="M259.19,-585.1C514.84,-571.48 1138.29,-538.27 1318.78,-528.65"/>
<polygon fill="midnightblue" stroke="midnightblue" points="1318.99,-532.14 1328.79,-528.12 1318.61,-525.15 1318.99,-532.14"/>
</g>
<!-- Node4&#45;&gt;Node3 -->
<g id="edge5" class="edge">
<title>Node4&#45;&gt;Node3</title>
<path fill="none" stroke="midnightblue" d="M136.13,-515.32C124.34,-507.06 106.37,-494.45 92.36,-484.63"/>
<polygon fill="midnightblue" stroke="midnightblue" points="94.04,-481.53 83.84,-478.65 90.02,-487.26 94.04,-481.53"/>
</g>
<!-- Node5 -->
<g id="node5" class="node">
<title>Node5</title>
<g id="a_node5"><a xlink:title=" ">
<polygon fill="none" stroke="#bfbfbf" points="858.5,-112.5 858.5,-131.5 902.5,-131.5 902.5,-112.5 858.5,-112.5"/>
<text text-anchor="middle" x="880.5" y="-119.5" font-family="Helvetica,sans-Serif" font-size="10.00">string</text>
</a>
</g>
</g>
<!-- Node4&#45;&gt;Node5 -->
<g id="edge4" class="edge">
<title>Node4&#45;&gt;Node5</title>
<path fill="none" stroke="midnightblue" d="M145.33,-515.44C138.61,-496.47 123.5,-449.33 123.5,-408.5 123.5,-408.5 123.5,-408.5 123.5,-233 123.5,-214.4 703.81,-144.04 848.25,-126.82"/>
<polygon fill="midnightblue" stroke="midnightblue" points="848.74,-130.29 858.25,-125.63 847.91,-123.34 848.74,-130.29"/>
</g>
<!-- Node6&#45;&gt;Node5 -->
<g id="edge9" class="edge">
<title>Node6&#45;&gt;Node5</title>
<path fill="none" stroke="midnightblue" d="M737.72,-524.87C818.77,-524.9 1014.01,-514.72 1139.5,-423 1171.19,-399.84 1184.5,-386.25 1184.5,-347 1184.5,-347 1184.5,-347 1184.5,-233 1184.5,-197.09 1167.03,-186.9 1136.5,-168 1099.49,-145.09 972.88,-131.15 912.73,-125.68"/>
<polygon fill="midnightblue" stroke="midnightblue" points="912.92,-122.18 902.65,-124.78 912.3,-129.15 912.92,-122.18"/>
</g>
<!-- Node7 -->
<g id="node7" class="node">
<title>Node7</title>
<g id="a_node7"><a xlink:title=" ">
<polygon fill="none" stroke="#bfbfbf" points="575,-459.5 575,-478.5 622,-478.5 622,-459.5 575,-459.5"/>
<text text-anchor="middle" x="598.5" y="-466.5" font-family="Helvetica,sans-Serif" font-size="10.00">cmath</text>
</a>
</g>
</g>
<!-- Node6&#45;&gt;Node7 -->
<g id="edge7" class="edge">
<title>Node6&#45;&gt;Node7</title>
<path fill="none" stroke="midnightblue" d="M684.11,-515.32C667.83,-506.7 642.63,-493.36 623.78,-483.39"/>
<polygon fill="midnightblue" stroke="midnightblue" points="625.32,-480.24 614.85,-478.65 622.05,-486.43 625.32,-480.24"/>
</g>
<!-- Node8 -->
<g id="node8" class="node">
<title>Node8</title>
<g id="a_node8"><a xlink:title=" ">
<polygon fill="none" stroke="#bfbfbf" points="1137.5,-112.5 1137.5,-131.5 1193.5,-131.5 1193.5,-112.5 1137.5,-112.5"/>
<text text-anchor="middle" x="1165.5" y="-119.5" font-family="Helvetica,sans-Serif" font-size="10.00">sstream</text>
</a>
</g>
</g>
<!-- Node6&#45;&gt;Node8 -->
<g id="edge8" class="edge">
<title>Node6&#45;&gt;Node8</title>
<path fill="none" stroke="midnightblue" d="M737.72,-523.91C804.84,-522.77 949.91,-515.81 1065.5,-479 1152.36,-451.34 1222.5,-438.16 1222.5,-347 1222.5,-347 1222.5,-347 1222.5,-233 1222.5,-196.3 1197.18,-159.66 1180.29,-139.3"/>
<polygon fill="midnightblue" stroke="midnightblue" points="1182.85,-136.9 1173.67,-131.62 1177.55,-141.48 1182.85,-136.9"/>
</g>
<!-- Node9 -->
<g id="node9" class="node">
<title>Node9</title>
<g id="a_node9"><a xlink:href="expr2c__class_8h.html" target="_top" xlink:title=" ">
<polygon fill="none" stroke="black" points="640,-459.5 640,-478.5 761,-478.5 761,-459.5 640,-459.5"/>
<text text-anchor="middle" x="700.5" y="-466.5" font-family="Helvetica,sans-Serif" font-size="10.00">ansi&#45;c/expr2c_class.h</text>
</a>
</g>
</g>
<!-- Node6&#45;&gt;Node9 -->
<g id="edge10" class="edge">
<title>Node6&#45;&gt;Node9</title>
<path fill="none" stroke="midnightblue" d="M700.5,-515.08C700.5,-508.01 700.5,-497.86 700.5,-488.99"/>
<polygon fill="midnightblue" stroke="midnightblue" points="704,-488.75 700.5,-478.75 697,-488.75 704,-488.75"/>
</g>
<!-- Node9&#45;&gt;Node5 -->
<g id="edge13" class="edge">
<title>Node9&#45;&gt;Node5</title>
<path fill="none" stroke="midnightblue" d="M761.3,-468.51C861.8,-468.19 1056.89,-462.33 1111.5,-423 1141.68,-401.27 1146.5,-384.19 1146.5,-347 1146.5,-347 1146.5,-347 1146.5,-233 1146.5,-132.94 983.79,-122.11 912.88,-122.14"/>
<polygon fill="midnightblue" stroke="midnightblue" points="912.69,-118.64 902.72,-122.22 912.75,-125.64 912.69,-118.64"/>
</g>
<!-- Node10 -->
<g id="node10" class="node">
<title>Node10</title>
<g id="a_node10"><a xlink:href="expr2c_8h.html" target="_top" xlink:title=" ">
<polygon fill="none" stroke="black" points="271,-280.5 271,-299.5 330,-299.5 330,-280.5 271,-280.5"/>
<text text-anchor="middle" x="300.5" y="-287.5" font-family="Helvetica,sans-Serif" font-size="10.00">expr2c.h</text>
</a>
</g>
</g>
<!-- Node9&#45;&gt;Node10 -->
<g id="edge11" class="edge">
<title>Node9&#45;&gt;Node10</title>
<path fill="none" stroke="midnightblue" d="M639.81,-460.02C636.67,-459.66 633.55,-459.32 630.5,-459 580.61,-453.8 214.52,-459.86 180.5,-423 157.63,-398.23 205.81,-338.67 208.5,-336 223.42,-321.21 244.16,-310.49 262.17,-303.23"/>
<polygon fill="midnightblue" stroke="midnightblue" points="263.74,-306.38 271.84,-299.55 261.25,-299.84 263.74,-306.38"/>
</g>
<!-- Node11 -->
<g id="node11" class="node">
<title>Node11</title>
<g id="a_node11"><a xlink:title=" ">
<polygon fill="none" stroke="#bfbfbf" points="1025,-224.5 1025,-243.5 1118,-243.5 1118,-224.5 1025,-224.5"/>
<text text-anchor="middle" x="1071.5" y="-231.5" font-family="Helvetica,sans-Serif" font-size="10.00">unordered_map</text>
</a>
</g>
</g>
<!-- Node9&#45;&gt;Node11 -->
<g id="edge14" class="edge">
<title>Node9&#45;&gt;Node11</title>
<path fill="none" stroke="midnightblue" d="M761.27,-465.34C865.22,-460.15 1068.07,-447.05 1089.5,-423 1132.37,-374.89 1098.81,-289.85 1080.9,-252.94"/>
<polygon fill="midnightblue" stroke="midnightblue" points="1083.97,-251.23 1076.35,-243.87 1077.71,-254.38 1083.97,-251.23"/>
</g>
<!-- Node12 -->
<g id="node12" class="node">
<title>Node12</title>
<g id="a_node12"><a xlink:title=" ">
<polygon fill="none" stroke="#bfbfbf" points="716.5,-398 716.5,-417 802.5,-417 802.5,-398 716.5,-398"/>
<text text-anchor="middle" x="759.5" y="-405" font-family="Helvetica,sans-Serif" font-size="10.00">unordered_set</text>
</a>
</g>
</g>
<!-- Node9&#45;&gt;Node12 -->
<g id="edge15" class="edge">
<title>Node9&#45;&gt;Node12</title>
<path fill="none" stroke="midnightblue" d="M708.95,-459.48C718.07,-450.28 732.77,-435.46 743.98,-424.16"/>
<polygon fill="midnightblue" stroke="midnightblue" points="746.51,-426.57 751.06,-417.01 741.54,-421.65 746.51,-426.57"/>
</g>
<!-- Node13 -->
<g id="node13" class="node">
<title>Node13</title>
<g id="a_node13"><a xlink:href="goto__instruction__code_8h.html" target="_top" xlink:title=" ">
<polygon fill="none" stroke="black" points="296,-392.5 296,-422.5 409,-422.5 409,-392.5 296,-392.5"/>
<text text-anchor="start" x="304" y="-410.5" font-family="Helvetica,sans-Serif" font-size="10.00">goto&#45;programs/goto</text>
<text text-anchor="middle" x="352.5" y="-399.5" font-family="Helvetica,sans-Serif" font-size="10.00">_instruction_code.h</text>
</a>
</g>
</g>
<!-- Node9&#45;&gt;Node13 -->
<g id="edge16" class="edge">
<title>Node9&#45;&gt;Node13</title>
<path fill="none" stroke="midnightblue" d="M639.86,-459.47C584.67,-451.45 500.73,-438.62 419.12,-423.25"/>
<polygon fill="midnightblue" stroke="midnightblue" points="419.65,-419.79 409.18,-421.36 418.35,-426.66 419.65,-419.79"/>
</g>
<!-- Node52 -->
<g id="node26" class="node">
<title>Node52</title>
<g id="a_node26"><a xlink:href="bitvector__expr_8h.html" target="_top" xlink:title="API to expression classes for bitvectors.">
<polygon fill="none" stroke="black" points="584.5,-398 584.5,-417 698.5,-417 698.5,-398 584.5,-398"/>
<text text-anchor="middle" x="641.5" y="-405" font-family="Helvetica,sans-Serif" font-size="10.00">util/bitvector_expr.h</text>
</a>
</g>
</g>
<!-- Node9&#45;&gt;Node52 -->
<g id="edge45" class="edge">
<title>Node9&#45;&gt;Node52</title>
<path fill="none" stroke="midnightblue" d="M692.05,-459.48C682.93,-450.28 668.23,-435.46 657.02,-424.16"/>
<polygon fill="midnightblue" stroke="midnightblue" points="659.46,-421.65 649.94,-417.01 654.49,-426.57 659.46,-421.65"/>
</g>
<!-- Node53 -->
<g id="node27" class="node">
<title>Node53</title>
<g id="a_node27"><a xlink:href="byte__operators_8h.html" target="_top" xlink:title="Expression classes for byte&#45;level operators.">
<polygon fill="none" stroke="black" points="820.5,-398 820.5,-417 938.5,-417 938.5,-398 820.5,-398"/>
<text text-anchor="middle" x="879.5" y="-405" font-family="Helvetica,sans-Serif" font-size="10.00">util/byte_operators.h</text>
</a>
</g>
</g>
<!-- Node9&#45;&gt;Node53 -->
<g id="edge47" class="edge">
<title>Node9&#45;&gt;Node53</title>
<path fill="none" stroke="midnightblue" d="M726.15,-459.48C757.12,-449.18 809.37,-431.81 844.15,-420.25"/>
<polygon fill="midnightblue" stroke="midnightblue" points="845.52,-423.48 853.9,-417.01 843.31,-416.84 845.52,-423.48"/>
</g>
<!-- Node54 -->
<g id="node28" class="node">
<title>Node54</title>
<g id="a_node28"><a xlink:href="mathematical__expr_8h.html" target="_top" xlink:title="API to expression classes for &#39;mathematical&#39; expressions.">
<polygon fill="none" stroke="black" points="427,-398 427,-417 566,-417 566,-398 427,-398"/>
<text text-anchor="middle" x="496.5" y="-405" font-family="Helvetica,sans-Serif" font-size="10.00">util/mathematical_expr.h</text>
</a>
</g>
</g>
<!-- Node9&#45;&gt;Node54 -->
<g id="edge50" class="edge">
<title>Node9&#45;&gt;Node54</title>
<path fill="none" stroke="midnightblue" d="M671.27,-459.48C635.6,-449.07 575.14,-431.44 535.52,-419.88"/>
<polygon fill="midnightblue" stroke="midnightblue" points="536.25,-416.45 525.67,-417.01 534.29,-423.17 536.25,-416.45"/>
</g>
<!-- Node56 -->
<g id="node30" class="node">
<title>Node56</title>
<g id="a_node30"><a xlink:href="std__code_8h.html" target="_top" xlink:title=" ">
<polygon fill="none" stroke="black" points="189.5,-398 189.5,-417 277.5,-417 277.5,-398 189.5,-398"/>
<text text-anchor="middle" x="233.5" y="-405" font-family="Helvetica,sans-Serif" font-size="10.00">util/std_code.h</text>
</a>
</g>
</g>
<!-- Node9&#45;&gt;Node56 -->
<g id="edge56" class="edge">
<title>Node9&#45;&gt;Node56</title>
<path fill="none" stroke="midnightblue" d="M639.8,-460.11C636.66,-459.73 633.54,-459.35 630.5,-459 477.81,-441.2 437.58,-451.38 286.5,-423 281.47,-422.06 276.23,-420.87 271.07,-419.59"/>
<polygon fill="midnightblue" stroke="midnightblue" points="271.92,-416.19 261.36,-417.04 270.14,-422.96 271.92,-416.19"/>
</g>
<!-- Node10&#45;&gt;Node5 -->
<g id="edge12" class="edge">
<title>Node10&#45;&gt;Node5</title>
<path fill="none" stroke="midnightblue" d="M321.68,-280.4C375.38,-258.87 521.52,-201.94 647.5,-168 718.21,-148.95 803.06,-134.66 848.32,-127.7"/>
<polygon fill="midnightblue" stroke="midnightblue" points="849.05,-131.13 858.41,-126.17 848,-124.21 849.05,-131.13"/>
</g>
<!-- Node14 -->
<g id="node14" class="node">
<title>Node14</title>
<g id="a_node14"><a xlink:href="std__code__base_8h.html" target="_top" xlink:title=" ">
<polygon fill="none" stroke="black" points="442.5,-336.5 442.5,-355.5 558.5,-355.5 558.5,-336.5 442.5,-336.5"/>
<text text-anchor="middle" x="500.5" y="-343.5" font-family="Helvetica,sans-Serif" font-size="10.00">util/std_code_base.h</text>
</a>
</g>
</g>
<!-- Node13&#45;&gt;Node14 -->
<g id="edge17" class="edge">
<title>Node13&#45;&gt;Node14</title>
<path fill="none" stroke="midnightblue" d="M387.57,-392.4C412.52,-382.37 445.71,-369.03 469.64,-359.4"/>
<polygon fill="midnightblue" stroke="midnightblue" points="470.99,-362.64 478.96,-355.66 468.38,-356.14 470.99,-362.64"/>
</g>
<!-- Node51 -->
<g id="node25" class="node">
<title>Node51</title>
<g id="a_node25"><a xlink:href="std__expr_8h.html" target="_top" xlink:title="API to expression classes.">
<polygon fill="none" stroke="black" points="708.5,-336.5 708.5,-355.5 794.5,-355.5 794.5,-336.5 708.5,-336.5"/>
<text text-anchor="middle" x="751.5" y="-343.5" font-family="Helvetica,sans-Serif" font-size="10.00">util/std_expr.h</text>
</a>
</g>
</g>
<!-- Node13&#45;&gt;Node51 -->
<g id="edge41" class="edge">
<title>Node13&#45;&gt;Node51</title>
<path fill="none" stroke="midnightblue" d="M409.16,-393.56C411.98,-393.01 414.77,-392.49 417.5,-392 516.05,-374.4 632.06,-360.23 698.17,-352.76"/>
<polygon fill="midnightblue" stroke="midnightblue" points="698.8,-356.21 708.35,-351.62 698.02,-349.25 698.8,-356.21"/>
</g>
<!-- Node15 -->
<g id="node15" class="node">
<title>Node15</title>
<g id="a_node15"><a xlink:href="expr__cast_8h.html" target="_top" xlink:title="Templated functions to cast to specific exprt&#45;derived classes.">
<polygon fill="none" stroke="black" points="629,-224.5 629,-243.5 702,-243.5 702,-224.5 629,-224.5"/>
<text text-anchor="middle" x="665.5" y="-231.5" font-family="Helvetica,sans-Serif" font-size="10.00">expr_cast.h</text>
</a>
</g>
</g>
<!-- Node14&#45;&gt;Node15 -->
<g id="edge18" class="edge">
<title>Node14&#45;&gt;Node15</title>
<path fill="none" stroke="midnightblue" d="M506.87,-336.37C517.25,-322.83 538.99,-296.45 562.5,-280 582.7,-265.87 608.04,-254.73 628.54,-247.06"/>
<polygon fill="midnightblue" stroke="midnightblue" points="629.95,-250.27 638.17,-243.58 627.57,-243.69 629.95,-250.27"/>
</g>
<!-- Node19 -->
<g id="node19" class="node">
<title>Node19</title>
<g id="a_node19"><a xlink:href="src_2util_2invariant_8h.html" target="_top" xlink:title=" ">
<polygon fill="none" stroke="red" points="923,-168.5 923,-187.5 992,-187.5 992,-168.5 923,-168.5"/>
<text text-anchor="middle" x="957.5" y="-175.5" font-family="Helvetica,sans-Serif" font-size="10.00">invariant.h</text>
</a>
</g>
</g>
<!-- Node14&#45;&gt;Node19 -->
<g id="edge31" class="edge">
<title>Node14&#45;&gt;Node19</title>
<path fill="none" stroke="midnightblue" d="M558.81,-342.5C645.14,-337.97 802.09,-326.32 851.5,-300 896.94,-275.79 931.91,-223.7 947.92,-196.44"/>
<polygon fill="midnightblue" stroke="midnightblue" points="951.04,-198.04 952.94,-187.61 944.95,-194.57 951.04,-198.04"/>
</g>
<!-- Node43 -->
<g id="node22" class="node">
<title>Node43</title>
<g id="a_node22"><a xlink:href="validate_8h.html" target="_top" xlink:title=" ">
<polygon fill="none" stroke="red" points="707,-56.5 707,-75.5 772,-75.5 772,-56.5 707,-56.5"/>
<text text-anchor="middle" x="739.5" y="-63.5" font-family="Helvetica,sans-Serif" font-size="10.00">validate.h</text>
</a>
</g>
</g>
<!-- Node14&#45;&gt;Node43 -->
<g id="edge40" class="edge">
<title>Node14&#45;&gt;Node43</title>
<path fill="none" stroke="midnightblue" d="M497.26,-336.3C490.71,-317.89 476.5,-273.51 476.5,-235 476.5,-235 476.5,-235 476.5,-177 476.5,-82.58 622.56,-67.8 696.98,-66.4"/>
<polygon fill="midnightblue" stroke="midnightblue" points="697.03,-69.9 706.99,-66.28 696.95,-62.9 697.03,-69.9"/>
</g>
<!-- Node48 -->
<g id="node23" class="node">
<title>Node48</title>
<g id="a_node23"><a xlink:href="std__types_8h.html" target="_top" xlink:title="Pre&#45;defined types.">
<polygon fill="none" stroke="black" points="770,-280.5 770,-299.5 843,-299.5 843,-280.5 770,-280.5"/>
<text text-anchor="middle" x="806.5" y="-287.5" font-family="Helvetica,sans-Serif" font-size="10.00">std_types.h</text>
</a>
</g>
</g>
<!-- Node14&#45;&gt;Node48 -->
<g id="edge32" class="edge">
<title>Node14&#45;&gt;Node48</title>
<path fill="none" stroke="midnightblue" d="M548.99,-336.44C606.73,-326.25 702.53,-309.35 759.58,-299.28"/>
<polygon fill="midnightblue" stroke="midnightblue" points="760.53,-302.67 769.77,-297.48 759.31,-295.77 760.53,-302.67"/>
</g>
<!-- Node16 -->
<g id="node16" class="node">
<title>Node16</title>
<g id="a_node16"><a xlink:title=" ">
<polygon fill="none" stroke="#bfbfbf" points="657,-168.5 657,-187.5 714,-187.5 714,-168.5 657,-168.5"/>
<text text-anchor="middle" x="685.5" y="-175.5" font-family="Helvetica,sans-Serif" font-size="10.00">typeinfo</text>
</a>
</g>
</g>
<!-- Node15&#45;&gt;Node16 -->
<g id="edge19" class="edge">
<title>Node15&#45;&gt;Node16</title>
<path fill="none" stroke="midnightblue" d="M668.8,-224.08C671.48,-216.85 675.35,-206.41 678.69,-197.4"/>
<polygon fill="midnightblue" stroke="midnightblue" points="682.07,-198.34 682.26,-187.75 675.5,-195.91 682.07,-198.34"/>
</g>
<!-- Node17 -->
<g id="node17" class="node">
<title>Node17</title>
<g id="a_node17"><a xlink:title=" ">
<polygon fill="none" stroke="#bfbfbf" points="847,-0.5 847,-19.5 916,-19.5 916,-0.5 847,-0.5"/>
<text text-anchor="middle" x="881.5" y="-7.5" font-family="Helvetica,sans-Serif" font-size="10.00">type_traits</text>
</a>
</g>
</g>
<!-- Node15&#45;&gt;Node17 -->
<g id="edge20" class="edge">
<title>Node15&#45;&gt;Node17</title>
<path fill="none" stroke="midnightblue" d="M658.61,-224.32C652.23,-215.68 643.19,-201.77 639.5,-188 630.75,-155.37 626.3,-143.09 639.5,-112 671.2,-37.33 776.02,-17.67 836.81,-12.62"/>
<polygon fill="midnightblue" stroke="midnightblue" points="837.17,-16.11 846.89,-11.89 836.66,-9.13 837.17,-16.11"/>
</g>
<!-- Node18 -->
<g id="node18" class="node">
<title>Node18</title>
<g id="a_node18"><a xlink:title=" ">
<polygon fill="none" stroke="#bfbfbf" points="714,-112.5 714,-131.5 779,-131.5 779,-112.5 714,-112.5"/>
<text text-anchor="middle" x="746.5" y="-119.5" font-family="Helvetica,sans-Serif" font-size="10.00">functional</text>
</a>
</g>
</g>
<!-- Node15&#45;&gt;Node18 -->
<g id="edge21" class="edge">
<title>Node15&#45;&gt;Node18</title>
<path fill="none" stroke="midnightblue" d="M658.97,-224.34C649.93,-211.21 635.96,-185.92 647.5,-168 654.81,-156.65 684.85,-143.94 709.94,-134.93"/>
<polygon fill="midnightblue" stroke="midnightblue" points="711.32,-138.15 719.61,-131.55 709.01,-131.54 711.32,-138.15"/>
</g>
<!-- Node15&#45;&gt;Node19 -->
<g id="edge22" class="edge">
<title>Node15&#45;&gt;Node19</title>
<path fill="none" stroke="midnightblue" d="M702.02,-226.48C757.06,-216.63 859.65,-198.21 912.95,-188.06"/>
<polygon fill="midnightblue" stroke="midnightblue" points="913.77,-191.47 922.93,-186.15 912.45,-184.59 913.77,-191.47"/>
</g>
<!-- Node21 -->
<g id="node20" class="node">
<title>Node21</title>
<g id="a_node20"><a xlink:href="expr_8h.html" target="_top" xlink:title=" ">
<polygon fill="none" stroke="red" points="732,-168.5 732,-187.5 779,-187.5 779,-168.5 732,-168.5"/>
<text text-anchor="middle" x="755.5" y="-175.5" font-family="Helvetica,sans-Serif" font-size="10.00">expr.h</text>
</a>
</g>
</g>
<!-- Node15&#45;&gt;Node21 -->
<g id="edge26" class="edge">
<title>Node15&#45;&gt;Node21</title>
<path fill="none" stroke="midnightblue" d="M679.96,-224.32C694,-215.9 715.55,-202.97 732.04,-193.07"/>
<polygon fill="midnightblue" stroke="midnightblue" points="734.3,-195.8 741.08,-187.65 730.7,-189.8 734.3,-195.8"/>
</g>
<!-- Node19&#45;&gt;Node5 -->
<g id="edge24" class="edge">
<title>Node19&#45;&gt;Node5</title>
<path fill="none" stroke="midnightblue" d="M945.13,-168.32C933.34,-160.06 915.37,-147.45 901.36,-137.63"/>
<polygon fill="midnightblue" stroke="midnightblue" points="903.04,-134.53 892.84,-131.65 899.02,-140.26 903.04,-134.53"/>
</g>
<!-- Node19&#45;&gt;Node8 -->
<g id="edge23" class="edge">
<title>Node19&#45;&gt;Node8</title>
<path fill="none" stroke="midnightblue" d="M990.46,-168.44C1027.76,-158.76 1088.43,-143.01 1127.64,-132.83"/>
<polygon fill="midnightblue" stroke="midnightblue" points="1128.57,-136.2 1137.37,-130.3 1126.81,-129.43 1128.57,-136.2"/>
</g>
<!-- Node19&#45;&gt;Node17 -->
<g id="edge25" class="edge">
<title>Node19&#45;&gt;Node17</title>
<path fill="none" stroke="midnightblue" d="M953.41,-168.08C941.35,-141.72 905.71,-63.88 889.59,-28.66"/>
<polygon fill="midnightblue" stroke="midnightblue" points="892.77,-27.2 885.42,-19.57 886.4,-30.12 892.77,-27.2"/>
</g>
<!-- Node21&#45;&gt;Node18 -->
<g id="edge30" class="edge">
<title>Node21&#45;&gt;Node18</title>
<path fill="none" stroke="midnightblue" d="M754.01,-168.08C752.82,-160.93 751.11,-150.64 749.62,-141.69"/>
<polygon fill="midnightblue" stroke="midnightblue" points="753.05,-141.04 747.96,-131.75 746.15,-142.19 753.05,-141.04"/>
</g>
<!-- Node23 -->
<g id="node21" class="node">
<title>Node23</title>
<g id="a_node21"><a xlink:href="type_8h.html" target="_top" xlink:title="Defines typet, type_with_subtypet and type_with_subtypest.">
<polygon fill="none" stroke="red" points="649,-112.5 649,-131.5 696,-131.5 696,-112.5 649,-112.5"/>
<text text-anchor="middle" x="672.5" y="-119.5" font-family="Helvetica,sans-Serif" font-size="10.00">type.h</text>
</a>
</g>
</g>
<!-- Node21&#45;&gt;Node23 -->
<g id="edge27" class="edge">
<title>Node21&#45;&gt;Node23</title>
<path fill="none" stroke="midnightblue" d="M742.16,-168.32C729.34,-159.98 709.72,-147.21 694.56,-137.35"/>
<polygon fill="midnightblue" stroke="midnightblue" points="696.09,-134.17 685.8,-131.65 692.28,-140.04 696.09,-134.17"/>
</g>
<!-- Node23&#45;&gt;Node43 -->
<g id="edge28" class="edge">
<title>Node23&#45;&gt;Node43</title>
<path fill="none" stroke="midnightblue" d="M683.26,-112.32C693.27,-104.26 708.39,-92.08 720.43,-82.37"/>
<polygon fill="midnightblue" stroke="midnightblue" points="722.95,-84.83 728.54,-75.83 718.56,-79.38 722.95,-84.83"/>
</g>
<!-- Node43&#45;&gt;Node17 -->
<g id="edge29" class="edge">
<title>Node43&#45;&gt;Node17</title>
<path fill="none" stroke="midnightblue" d="M762,-56.44C785.58,-47.48 822.82,-33.31 849.46,-23.18"/>
<polygon fill="midnightblue" stroke="midnightblue" points="851,-26.34 859.1,-19.52 848.51,-19.8 851,-26.34"/>
</g>
<!-- Node48&#45;&gt;Node11 -->
<g id="edge39" class="edge">
<title>Node48&#45;&gt;Node11</title>
<path fill="none" stroke="midnightblue" d="M843.07,-281.55C888.86,-272.22 967.59,-256.17 1019.61,-245.57"/>
<polygon fill="midnightblue" stroke="midnightblue" points="1020.53,-248.96 1029.63,-243.53 1019.14,-242.1 1020.53,-248.96"/>
</g>
<!-- Node48&#45;&gt;Node15 -->
<g id="edge34" class="edge">
<title>Node48&#45;&gt;Node15</title>
<path fill="none" stroke="midnightblue" d="M784.16,-280.44C760.75,-271.48 723.76,-257.31 697.31,-247.18"/>
<polygon fill="midnightblue" stroke="midnightblue" points="698.33,-243.82 687.74,-243.52 695.82,-250.36 698.33,-243.82"/>
</g>
<!-- Node48&#45;&gt;Node19 -->
<g id="edge35" class="edge">
<title>Node48&#45;&gt;Node19</title>
<path fill="none" stroke="midnightblue" d="M818.35,-280.37C844.15,-261.57 905.65,-216.77 937.55,-193.53"/>
<polygon fill="midnightblue" stroke="midnightblue" points="939.68,-196.31 945.71,-187.59 935.56,-190.65 939.68,-196.31"/>
</g>
<!-- Node48&#45;&gt;Node21 -->
<g id="edge33" class="edge">
<title>Node48&#45;&gt;Node21</title>
<path fill="none" stroke="midnightblue" d="M802.5,-280.37C794.19,-262.46 774.94,-220.92 763.82,-196.95"/>
<polygon fill="midnightblue" stroke="midnightblue" points="766.86,-195.19 759.48,-187.59 760.51,-198.14 766.86,-195.19"/>
</g>
<!-- Node48&#45;&gt;Node43 -->
<g id="edge38" class="edge">
<title>Node48&#45;&gt;Node43</title>
<path fill="none" stroke="midnightblue" d="M807.6,-280.31C810.58,-253.54 816.72,-170.64 787.5,-112 781.51,-99.98 770.9,-89.51 761.17,-81.7"/>
<polygon fill="midnightblue" stroke="midnightblue" points="763.09,-78.76 753,-75.55 758.88,-84.36 763.09,-78.76"/>
</g>
<!-- Node49 -->
<g id="node24" class="node">
<title>Node49</title>
<g id="a_node24"><a xlink:href="mp__arith_8h.html" target="_top" xlink:title=" ">
<polygon fill="none" stroke="red" points="836,-168.5 836,-187.5 905,-187.5 905,-168.5 836,-168.5"/>
<text text-anchor="middle" x="870.5" y="-175.5" font-family="Helvetica,sans-Serif" font-size="10.00">mp_arith.h</text>
</a>
</g>
</g>
<!-- Node48&#45;&gt;Node49 -->
<g id="edge36" class="edge">
<title>Node48&#45;&gt;Node49</title>
<path fill="none" stroke="midnightblue" d="M811.52,-280.37C822.04,-262.3 846.54,-220.18 860.43,-196.31"/>
<polygon fill="midnightblue" stroke="midnightblue" points="863.5,-198 865.5,-187.59 857.45,-194.47 863.5,-198"/>
</g>
<!-- Node49&#45;&gt;Node5 -->
<g id="edge37" class="edge">
<title>Node49&#45;&gt;Node5</title>
<path fill="none" stroke="midnightblue" d="M872.15,-168.08C873.48,-160.93 875.38,-150.64 877.04,-141.69"/>
<polygon fill="midnightblue" stroke="midnightblue" points="880.5,-142.22 878.88,-131.75 873.62,-140.95 880.5,-142.22"/>
</g>
<!-- Node51&#45;&gt;Node15 -->
<g id="edge42" class="edge">
<title>Node51&#45;&gt;Node15</title>
<path fill="none" stroke="midnightblue" d="M746.02,-336.33C737.88,-323.61 721.88,-299.33 706.5,-280 698.52,-269.97 688.9,-259.35 680.99,-250.94"/>
<polygon fill="midnightblue" stroke="midnightblue" points="683.47,-248.47 674.03,-243.66 678.4,-253.31 683.47,-248.47"/>
</g>
<!-- Node51&#45;&gt;Node19 -->
<g id="edge43" class="edge">
<title>Node51&#45;&gt;Node19</title>
<path fill="none" stroke="midnightblue" d="M794.8,-339.77C842.69,-333.09 915.59,-319.94 934.5,-300 960.77,-272.29 961.58,-224.36 959.67,-197.91"/>
<polygon fill="midnightblue" stroke="midnightblue" points="963.13,-197.34 958.72,-187.71 956.16,-197.99 963.13,-197.34"/>
</g>
<!-- Node51&#45;&gt;Node48 -->
<g id="edge44" class="edge">
<title>Node51&#45;&gt;Node48</title>
<path fill="none" stroke="midnightblue" d="M760.58,-336.08C768.67,-328.14 780.7,-316.34 790.41,-306.8"/>
<polygon fill="midnightblue" stroke="midnightblue" points="792.9,-309.25 797.59,-299.75 788,-304.26 792.9,-309.25"/>
</g>
<!-- Node52&#45;&gt;Node51 -->
<g id="edge46" class="edge">
<title>Node52&#45;&gt;Node51</title>
<path fill="none" stroke="midnightblue" d="M657.26,-397.98C675.48,-388.12 705.67,-371.79 726.97,-360.27"/>
<polygon fill="midnightblue" stroke="midnightblue" points="728.64,-363.35 735.77,-355.51 725.31,-357.19 728.64,-363.35"/>
</g>
<!-- Node53&#45;&gt;Node19 -->
<g id="edge48" class="edge">
<title>Node53&#45;&gt;Node19</title>
<path fill="none" stroke="midnightblue" d="M896.52,-397.87C911.68,-389.3 933.3,-374.74 945.5,-356 978.17,-305.82 982.09,-283.11 972.5,-224 971.03,-214.96 968.01,-205.28 965.06,-197.22"/>
<polygon fill="midnightblue" stroke="midnightblue" points="968.26,-195.79 961.36,-187.75 961.74,-198.34 968.26,-195.79"/>
</g>
<!-- Node53&#45;&gt;Node51 -->
<g id="edge49" class="edge">
<title>Node53&#45;&gt;Node51</title>
<path fill="none" stroke="midnightblue" d="M861.16,-397.98C839.68,-387.99 803.88,-371.35 779.05,-359.81"/>
<polygon fill="midnightblue" stroke="midnightblue" points="780.35,-356.55 769.81,-355.51 777.4,-362.9 780.35,-356.55"/>
</g>
<!-- Node54&#45;&gt;Node51 -->
<g id="edge55" class="edge">
<title>Node54&#45;&gt;Node51</title>
<path fill="none" stroke="midnightblue" d="M533.04,-397.98C578.39,-387.39 655.78,-369.34 705.23,-357.8"/>
<polygon fill="midnightblue" stroke="midnightblue" points="706.09,-361.19 715.03,-355.51 704.5,-354.37 706.09,-361.19"/>
</g>
<!-- Node55 -->
<g id="node29" class="node">
<title>Node55</title>
<g id="a_node29"><a xlink:href="mathematical__types_8h.html" target="_top" xlink:title="Mathematical types.">
<polygon fill="none" stroke="black" points="571.5,-280.5 571.5,-299.5 697.5,-299.5 697.5,-280.5 571.5,-280.5"/>
<text text-anchor="middle" x="634.5" y="-287.5" font-family="Helvetica,sans-Serif" font-size="10.00">mathematical_types.h</text>
</a>
</g>
</g>
<!-- Node54&#45;&gt;Node55 -->
<g id="edge51" class="edge">
<title>Node54&#45;&gt;Node55</title>
<path fill="none" stroke="midnightblue" d="M509.76,-397.95C524.37,-388.33 548.32,-371.97 567.5,-356 586.24,-340.4 606.1,-320.68 619.28,-307.08"/>
<polygon fill="midnightblue" stroke="midnightblue" points="621.82,-309.49 626.22,-299.85 616.77,-304.64 621.82,-309.49"/>
</g>
<!-- Node55&#45;&gt;Node15 -->
<g id="edge52" class="edge">
<title>Node55&#45;&gt;Node15</title>
<path fill="none" stroke="midnightblue" d="M639.62,-280.08C643.91,-272.61 650.16,-261.72 655.44,-252.52"/>
<polygon fill="midnightblue" stroke="midnightblue" points="658.53,-254.17 660.48,-243.75 652.46,-250.68 658.53,-254.17"/>
</g>
<!-- Node55&#45;&gt;Node19 -->
<g id="edge53" class="edge">
<title>Node55&#45;&gt;Node19</title>
<path fill="none" stroke="midnightblue" d="M659.58,-280.46C716.82,-260.97 857.2,-213.16 922.74,-190.84"/>
<polygon fill="midnightblue" stroke="midnightblue" points="923.88,-194.15 932.22,-187.61 921.62,-187.52 923.88,-194.15"/>
</g>
<!-- Node55&#45;&gt;Node23 -->
<g id="edge54" class="edge">
<title>Node55&#45;&gt;Node23</title>
<path fill="none" stroke="midnightblue" d="M630.19,-280.23C624.61,-267.8 615.98,-244.31 619.5,-224 624.01,-197.96 627.11,-191.35 639.5,-168 644.77,-158.07 652.04,-147.9 658.42,-139.74"/>
<polygon fill="midnightblue" stroke="midnightblue" points="661.28,-141.77 664.85,-131.79 655.84,-137.36 661.28,-141.77"/>
</g>
<!-- Node56&#45;&gt;Node14 -->
<g id="edge58" class="edge">
<title>Node56&#45;&gt;Node14</title>
<path fill="none" stroke="midnightblue" d="M263.41,-397.98C270.93,-395.93 278.99,-393.82 286.5,-392 340.48,-378.95 402.64,-366.12 446.01,-357.52"/>
<polygon fill="midnightblue" stroke="midnightblue" points="446.93,-360.91 456.06,-355.54 445.57,-354.04 446.93,-360.91"/>
</g>
<!-- Node56&#45;&gt;Node51 -->
<g id="edge59" class="edge">
<title>Node56&#45;&gt;Node51</title>
<path fill="none" stroke="midnightblue" d="M261.08,-398C269.2,-395.75 278.15,-393.53 286.5,-392 434.06,-364.88 611.16,-353.46 698.06,-349.21"/>
<polygon fill="midnightblue" stroke="midnightblue" points="698.38,-352.7 708.21,-348.72 698.05,-345.7 698.38,-352.7"/>
</g>
<!-- Node33 -->
<g id="node31" class="node">
<title>Node33</title>
<g id="a_node31"><a xlink:title=" ">
<polygon fill="none" stroke="#bfbfbf" points="217.5,-336.5 217.5,-355.5 249.5,-355.5 249.5,-336.5 217.5,-336.5"/>
<text text-anchor="middle" x="233.5" y="-343.5" font-family="Helvetica,sans-Serif" font-size="10.00">list</text>
</a>
</g>
</g>
<!-- Node56&#45;&gt;Node33 -->
<g id="edge57" class="edge">
<title>Node56&#45;&gt;Node33</title>
<path fill="none" stroke="midnightblue" d="M233.5,-397.98C233.5,-389.58 233.5,-376.48 233.5,-365.66"/>
<polygon fill="midnightblue" stroke="midnightblue" points="237,-365.51 233.5,-355.51 230,-365.51 237,-365.51"/>
</g>
<!-- Node57&#45;&gt;Node19 -->
<g id="edge61" class="edge">
<title>Node57&#45;&gt;Node19</title>
<path fill="none" stroke="midnightblue" d="M1396.52,-515.4C1413.67,-508.51 1434.25,-496.98 1444.5,-479 1463.13,-446.32 1419.29,-406.89 1404.5,-392 1303.04,-289.83 1260.01,-280.33 1127.5,-224 1086.58,-206.61 1037.21,-194.44 1002.24,-187.18"/>
<polygon fill="midnightblue" stroke="midnightblue" points="1002.82,-183.73 992.32,-185.18 1001.43,-190.59 1002.82,-183.73"/>
</g>
<!-- Node57&#45;&gt;Node51 -->
<g id="edge75" class="edge">
<title>Node57&#45;&gt;Node51</title>
<path fill="none" stroke="midnightblue" d="M1328.75,-519.18C1256.91,-509.28 1102.08,-482.37 985.5,-423 966.08,-413.11 967.08,-401.58 947.5,-392 922.71,-379.87 853.78,-365.56 804.69,-356.39"/>
<polygon fill="midnightblue" stroke="midnightblue" points="805.31,-352.94 794.84,-354.57 804.04,-359.83 805.31,-352.94"/>
</g>
<!-- Node38 -->
<g id="node33" class="node">
<title>Node38</title>
<g id="a_node33"><a xlink:title=" ">
<polygon fill="none" stroke="#bfbfbf" points="1529.5,-459.5 1529.5,-478.5 1593.5,-478.5 1593.5,-459.5 1529.5,-459.5"/>
<text text-anchor="middle" x="1561.5" y="-466.5" font-family="Helvetica,sans-Serif" font-size="10.00">algorithm</text>
</a>
</g>
</g>
<!-- Node57&#45;&gt;Node38 -->
<g id="edge62" class="edge">
<title>Node57&#45;&gt;Node38</title>
<path fill="none" stroke="midnightblue" d="M1399.08,-515.44C1432.11,-506.2 1484.89,-491.44 1521.27,-481.26"/>
<polygon fill="midnightblue" stroke="midnightblue" points="1522.37,-484.58 1531.06,-478.52 1520.49,-477.84 1522.37,-484.58"/>
</g>
<!-- Node58 -->
<g id="node34" class="node">
<title>Node58</title>
<g id="a_node34"><a xlink:title=" ">
<polygon fill="none" stroke="#bfbfbf" points="1319.5,-459.5 1319.5,-478.5 1351.5,-478.5 1351.5,-459.5 1319.5,-459.5"/>
<text text-anchor="middle" x="1335.5" y="-466.5" font-family="Helvetica,sans-Serif" font-size="10.00">set</text>
</a>
</g>
</g>
<!-- Node57&#45;&gt;Node58 -->
<g id="edge63" class="edge">
<title>Node57&#45;&gt;Node58</title>
<path fill="none" stroke="midnightblue" d="M1363.05,-515.08C1358.49,-507.61 1351.83,-496.72 1346.21,-487.52"/>
<polygon fill="midnightblue" stroke="midnightblue" points="1349.05,-485.46 1340.85,-478.75 1343.08,-489.11 1349.05,-485.46"/>
</g>
<!-- Node59 -->
<g id="node35" class="node">
<title>Node59</title>
<g id="a_node35"><a xlink:href="c__types_8h.html" target="_top" xlink:title=" ">
<polygon fill="none" stroke="black" points="1219.5,-459.5 1219.5,-478.5 1301.5,-478.5 1301.5,-459.5 1219.5,-459.5"/>
<text text-anchor="middle" x="1260.5" y="-466.5" font-family="Helvetica,sans-Serif" font-size="10.00">util/c_types.h</text>
</a>
</g>
</g>
<!-- Node57&#45;&gt;Node59 -->
<g id="edge64" class="edge">
<title>Node57&#45;&gt;Node59</title>
<path fill="none" stroke="midnightblue" d="M1351.15,-515.32C1333.83,-506.66 1306.98,-493.24 1287,-483.25"/>
<polygon fill="midnightblue" stroke="midnightblue" points="1288.32,-480 1277.81,-478.65 1285.19,-486.26 1288.32,-480"/>
</g>
<!-- Node40 -->
<g id="node39" class="node">
<title>Node40</title>
<g id="a_node39"><a xlink:href="narrow_8h.html" target="_top" xlink:title=" ">
<polygon fill="none" stroke="black" points="1474,-224.5 1474,-243.5 1533,-243.5 1533,-224.5 1474,-224.5"/>
<text text-anchor="middle" x="1503.5" y="-231.5" font-family="Helvetica,sans-Serif" font-size="10.00">narrow.h</text>
</a>
</g>
</g>
<!-- Node57&#45;&gt;Node40 -->
<g id="edge70" class="edge">
<title>Node57&#45;&gt;Node40</title>
<path fill="none" stroke="midnightblue" d="M1408.22,-516.2C1431.25,-509.79 1459.22,-498.48 1477.5,-479 1500.15,-454.87 1501.5,-441.6 1501.5,-408.5 1501.5,-408.5 1501.5,-408.5 1501.5,-345 1501.5,-312.94 1502.36,-275.64 1502.95,-253.75"/>
<polygon fill="midnightblue" stroke="midnightblue" points="1506.46,-253.65 1503.24,-243.56 1499.46,-253.45 1506.46,-253.65"/>
</g>
<!-- Node41 -->
<g id="node40" class="node">
<title>Node41</title>
<g id="a_node40"><a xlink:href="optional_8h.html" target="_top" xlink:title=" ">
<polygon fill="none" stroke="red" points="1370,-459.5 1370,-478.5 1435,-478.5 1435,-459.5 1370,-459.5"/>
<text text-anchor="middle" x="1402.5" y="-466.5" font-family="Helvetica,sans-Serif" font-size="10.00">optional.h</text>
</a>
</g>
</g>
<!-- Node57&#45;&gt;Node41 -->
<g id="edge73" class="edge">
<title>Node57&#45;&gt;Node41</title>
<path fill="none" stroke="midnightblue" d="M1374.11,-515.08C1378.87,-507.53 1385.82,-496.49 1391.65,-487.23"/>
<polygon fill="midnightblue" stroke="midnightblue" points="1394.62,-489.08 1396.99,-478.75 1388.7,-485.35 1394.62,-489.08"/>
</g>
<!-- Node25 -->
<g id="node36" class="node">
<title>Node25</title>
<g id="a_node36"><a xlink:href="deprecate_8h.html" target="_top" xlink:title=" ">
<polygon fill="none" stroke="black" points="1321.5,-398 1321.5,-417 1395.5,-417 1395.5,-398 1321.5,-398"/>
<text text-anchor="middle" x="1358.5" y="-405" font-family="Helvetica,sans-Serif" font-size="10.00">deprecate.h</text>
</a>
</g>
</g>
<!-- Node59&#45;&gt;Node25 -->
<g id="edge65" class="edge">
<title>Node59&#45;&gt;Node25</title>
<path fill="none" stroke="midnightblue" d="M1274.54,-459.48C1290.55,-449.75 1316.95,-433.73 1335.87,-422.24"/>
<polygon fill="midnightblue" stroke="midnightblue" points="1337.75,-425.19 1344.49,-417.01 1334.12,-419.21 1337.75,-425.19"/>
</g>
<!-- Node60 -->
<g id="node37" class="node">
<title>Node60</title>
<g id="a_node37"><a xlink:href="pointer__expr_8h.html" target="_top" xlink:title="API to expression classes for Pointers.">
<polygon fill="none" stroke="black" points="994.5,-398 994.5,-417 1080.5,-417 1080.5,-398 994.5,-398"/>
<text text-anchor="middle" x="1037.5" y="-405" font-family="Helvetica,sans-Serif" font-size="10.00">pointer_expr.h</text>
</a>
</g>
</g>
<!-- Node59&#45;&gt;Node60 -->
<g id="edge66" class="edge">
<title>Node59&#45;&gt;Node60</title>
<path fill="none" stroke="midnightblue" d="M1228.55,-459.48C1189.3,-449 1122.62,-431.21 1079.33,-419.66"/>
<polygon fill="midnightblue" stroke="midnightblue" points="1079.96,-416.21 1069.39,-417.01 1078.15,-422.97 1079.96,-416.21"/>
</g>
<!-- Node60&#45;&gt;Node51 -->
<g id="edge69" class="edge">
<title>Node60&#45;&gt;Node51</title>
<path fill="none" stroke="midnightblue" d="M1005.32,-397.98C997.24,-395.94 988.57,-393.82 980.5,-392 920.48,-378.48 851.08,-365.16 804.56,-356.57"/>
<polygon fill="midnightblue" stroke="midnightblue" points="805.17,-353.12 794.7,-354.76 803.9,-360.01 805.17,-353.12"/>
</g>
<!-- Node61 -->
<g id="node38" class="node">
<title>Node61</title>
<g id="a_node38"><a xlink:href="bitvector__types_8h.html" target="_top" xlink:title="Pre&#45;defined bitvector types.">
<polygon fill="none" stroke="black" points="835,-336.5 835,-355.5 936,-355.5 936,-336.5 835,-336.5"/>
<text text-anchor="middle" x="885.5" y="-343.5" font-family="Helvetica,sans-Serif" font-size="10.00">bitvector_types.h</text>
</a>
</g>
</g>
<!-- Node60&#45;&gt;Node61 -->
<g id="edge67" class="edge">
<title>Node60&#45;&gt;Node61</title>
<path fill="none" stroke="midnightblue" d="M1015.72,-397.98C989.76,-387.81 946.19,-370.76 916.67,-359.2"/>
<polygon fill="midnightblue" stroke="midnightblue" points="917.83,-355.9 907.24,-355.51 915.27,-362.41 917.83,-355.9"/>
</g>
<!-- Node61&#45;&gt;Node48 -->
<g id="edge68" class="edge">
<title>Node61&#45;&gt;Node48</title>
<path fill="none" stroke="midnightblue" d="M872.81,-336.32C860.6,-327.98 841.92,-315.21 827.5,-305.35"/>
<polygon fill="midnightblue" stroke="midnightblue" points="829.39,-302.41 819.16,-299.65 825.44,-308.19 829.39,-302.41"/>
</g>
<!-- Node40&#45;&gt;Node17 -->
<g id="edge71" class="edge">
<title>Node40&#45;&gt;Node17</title>
<path fill="none" stroke="midnightblue" d="M1483.63,-224.39C1435.72,-203.77 1309.89,-150.41 1202.5,-112 1102.19,-76.12 981.92,-40.11 921.01,-22.36"/>
<polygon fill="midnightblue" stroke="midnightblue" points="921.99,-19 911.41,-19.57 920.03,-25.72 921.99,-19"/>
</g>
<!-- Node40&#45;&gt;Node19 -->
<g id="edge72" class="edge">
<title>Node40&#45;&gt;Node19</title>
<path fill="none" stroke="midnightblue" d="M1473.76,-226.44C1469,-225.53 1464.13,-224.68 1459.5,-224 1291.65,-199.39 1090.13,-186.25 1002.2,-181.32"/>
<polygon fill="midnightblue" stroke="midnightblue" points="1002.22,-177.81 992.04,-180.76 1001.84,-184.8 1002.22,-177.81"/>
</g>
<!-- Node41&#45;&gt;Node25 -->
<g id="edge74" class="edge">
<title>Node41&#45;&gt;Node25</title>
<path fill="none" stroke="midnightblue" d="M1396.2,-459.48C1389.6,-450.55 1379.06,-436.31 1370.81,-425.14"/>
<polygon fill="midnightblue" stroke="midnightblue" points="1373.55,-422.97 1364.79,-417.01 1367.92,-427.13 1373.55,-422.97"/>
</g>
</g>
</svg>
