<?xml version="1.0" encoding="UTF-8" standalone="no"?>
<!DOCTYPE svg PUBLIC "-//W3C//DTD SVG 1.1//EN"
 "http://www.w3.org/Graphics/SVG/1.1/DTD/svg11.dtd">
<!-- Generated by graphviz version 2.43.0 (0)
 -->
<!-- Title: /home/runner/work/cbmc/cbmc/src/goto&#45;instrument/generate_function_bodies.h Pages: 1 -->
<svg width="570pt" height="206pt"
 viewBox="0.00 0.00 570.00 206.00" xmlns="http://www.w3.org/2000/svg" xmlns:xlink="http://www.w3.org/1999/xlink">
<g id="graph0" class="graph" transform="scale(1 1) rotate(0) translate(4 202)">
<title>/home/runner/work/cbmc/cbmc/src/goto&#45;instrument/generate_function_bodies.h</title>
<!-- Node1 -->
<g id="node1" class="node">
<title>Node1</title>
<g id="a_node1"><a xlink:title=" ">
<polygon fill="#bfbfbf" stroke="black" points="101.5,-156.5 101.5,-197.5 256.5,-197.5 256.5,-156.5 101.5,-156.5"/>
<text text-anchor="start" x="109.5" y="-185.5" font-family="Helvetica,sans-Serif" font-size="10.00">/home/runner/work/cbmc</text>
<text text-anchor="start" x="109.5" y="-174.5" font-family="Helvetica,sans-Serif" font-size="10.00">/cbmc/src/goto&#45;instrument</text>
<text text-anchor="middle" x="179" y="-163.5" font-family="Helvetica,sans-Serif" font-size="10.00">/generate_function_bodies.h</text>
</a>
</g>
</g>
<!-- Node2 -->
<g id="node2" class="node">
<title>Node2</title>
<g id="a_node2"><a xlink:href="generate__function__bodies_8cpp.html" target="_top" xlink:title=" ">
<polygon fill="none" stroke="black" points="0,-78.5 0,-119.5 166,-119.5 166,-78.5 0,-78.5"/>
<text text-anchor="start" x="8" y="-107.5" font-family="Helvetica,sans-Serif" font-size="10.00">/home/runner/work/cbmc</text>
<text text-anchor="start" x="8" y="-96.5" font-family="Helvetica,sans-Serif" font-size="10.00">/cbmc/src/goto&#45;instrument</text>
<text text-anchor="middle" x="83" y="-85.5" font-family="Helvetica,sans-Serif" font-size="10.00">/generate_function_bodies.cpp</text>
</a>
</g>
</g>
<!-- Node1&#45;&gt;Node2 -->
<g id="edge1" class="edge">
<title>Node1&#45;&gt;Node2</title>
<path fill="none" stroke="midnightblue" d="M146.24,-150.06C133.6,-140.06 119.38,-128.8 107.64,-119.51"/>
<polygon fill="midnightblue" stroke="midnightblue" points="144.26,-152.97 154.28,-156.43 148.61,-147.48 144.26,-152.97"/>
</g>
<!-- Node3 -->
<g id="node3" class="node">
<title>Node3</title>
<g id="a_node3"><a xlink:href="goto__instrument__parse__options_8h.html" target="_top" xlink:title=" ">
<polygon fill="none" stroke="black" points="184,-78.5 184,-119.5 366,-119.5 366,-78.5 184,-78.5"/>
<text text-anchor="start" x="192" y="-107.5" font-family="Helvetica,sans-Serif" font-size="10.00">/home/runner/work/cbmc</text>
<text text-anchor="start" x="192" y="-96.5" font-family="Helvetica,sans-Serif" font-size="10.00">/cbmc/src/goto&#45;instrument</text>
<text text-anchor="middle" x="275" y="-85.5" font-family="Helvetica,sans-Serif" font-size="10.00">/goto_instrument_parse_options.h</text>
</a>
</g>
</g>
<!-- Node1&#45;&gt;Node3 -->
<g id="edge2" class="edge">
<title>Node1&#45;&gt;Node3</title>
<path fill="none" stroke="midnightblue" d="M211.76,-150.06C224.4,-140.06 238.62,-128.8 250.36,-119.51"/>
<polygon fill="midnightblue" stroke="midnightblue" points="209.39,-147.48 203.72,-156.43 213.74,-152.97 209.39,-147.48"/>
</g>
<!-- Node4 -->
<g id="node4" class="node">
<title>Node4</title>
<g id="a_node4"><a xlink:href="goto__instrument__languages_8cpp.html" target="_top" xlink:title=" ">
<polygon fill="none" stroke="black" points="6,-0.5 6,-41.5 182,-41.5 182,-0.5 6,-0.5"/>
<text text-anchor="start" x="14" y="-29.5" font-family="Helvetica,sans-Serif" font-size="10.00">/home/runner/work/cbmc</text>
<text text-anchor="start" x="14" y="-18.5" font-family="Helvetica,sans-Serif" font-size="10.00">/cbmc/src/goto&#45;instrument</text>
<text text-anchor="middle" x="94" y="-7.5" font-family="Helvetica,sans-Serif" font-size="10.00">/goto_instrument_languages.cpp</text>
</a>
</g>
</g>
<!-- Node3&#45;&gt;Node4 -->
<g id="edge3" class="edge">
<title>Node3&#45;&gt;Node4</title>
<path fill="none" stroke="midnightblue" d="M218.96,-74.47C193.77,-63.89 164.39,-51.56 140.45,-41.51"/>
<polygon fill="midnightblue" stroke="midnightblue" points="217.81,-77.78 228.39,-78.43 220.52,-71.33 217.81,-77.78"/>
</g>
<!-- Node5 -->
<g id="node5" class="node">
<title>Node5</title>
<g id="a_node5"><a xlink:href="goto__instrument__main_8cpp.html" target="_top" xlink:title=" ">
<polygon fill="none" stroke="black" points="200,-0.5 200,-41.5 350,-41.5 350,-0.5 200,-0.5"/>
<text text-anchor="start" x="208" y="-29.5" font-family="Helvetica,sans-Serif" font-size="10.00">/home/runner/work/cbmc</text>
<text text-anchor="start" x="208" y="-18.5" font-family="Helvetica,sans-Serif" font-size="10.00">/cbmc/src/goto&#45;instrument</text>
<text text-anchor="middle" x="275" y="-7.5" font-family="Helvetica,sans-Serif" font-size="10.00">/goto_instrument_main.cpp</text>
</a>
</g>
</g>
<!-- Node3&#45;&gt;Node5 -->
<g id="edge4" class="edge">
<title>Node3&#45;&gt;Node5</title>
<path fill="none" stroke="midnightblue" d="M275,-68.3C275,-59.3 275,-49.65 275,-41.51"/>
<polygon fill="midnightblue" stroke="midnightblue" points="271.5,-68.43 275,-78.43 278.5,-68.43 271.5,-68.43"/>
</g>
<!-- Node6 -->
<g id="node6" class="node">
<title>Node6</title>
<g id="a_node6"><a xlink:href="goto__instrument__parse__options_8cpp.html" target="_top" xlink:title=" ">
<polygon fill="none" stroke="black" points="368,-0.5 368,-41.5 562,-41.5 562,-0.5 368,-0.5"/>
<text text-anchor="start" x="376" y="-29.5" font-family="Helvetica,sans-Serif" font-size="10.00">/home/runner/work/cbmc</text>
<text text-anchor="start" x="376" y="-18.5" font-family="Helvetica,sans-Serif" font-size="10.00">/cbmc/src/goto&#45;instrument</text>
<text text-anchor="middle" x="465" y="-7.5" font-family="Helvetica,sans-Serif" font-size="10.00">/goto_instrument_parse_options.cpp</text>
</a>
</g>
</g>
<!-- Node3&#45;&gt;Node6 -->
<g id="edge5" class="edge">
<title>Node3&#45;&gt;Node6</title>
<path fill="none" stroke="midnightblue" d="M333.48,-74.61C360,-64 391,-51.6 416.24,-41.51"/>
<polygon fill="midnightblue" stroke="midnightblue" points="331.91,-71.46 323.93,-78.43 334.51,-77.96 331.91,-71.46"/>
</g>
</g>
</svg>
