<?xml version="1.0" encoding="UTF-8" standalone="no"?>
<!DOCTYPE svg PUBLIC "-//W3C//DTD SVG 1.1//EN"
 "http://www.w3.org/Graphics/SVG/1.1/DTD/svg11.dtd">
<!-- Generated by graphviz version 2.43.0 (0)
 -->
<!-- Title: /home/runner/work/cbmc/cbmc/src/goto&#45;checker/goto_trace_storage.cpp Pages: 1 -->
<svg width="1106pt" height="576pt"
 viewBox="0.00 0.00 1105.50 576.00" xmlns="http://www.w3.org/2000/svg" xmlns:xlink="http://www.w3.org/1999/xlink">
<g id="graph0" class="graph" transform="scale(1 1) rotate(0) translate(4 572)">
<title>/home/runner/work/cbmc/cbmc/src/goto&#45;checker/goto_trace_storage.cpp</title>
<!-- Node1 -->
<g id="node1" class="node">
<title>Node1</title>
<g id="a_node1"><a xlink:title="Goto Trace Storage.">
<polygon fill="#bfbfbf" stroke="black" points="738.5,-526.5 738.5,-567.5 876.5,-567.5 876.5,-526.5 738.5,-526.5"/>
<text text-anchor="start" x="746.5" y="-555.5" font-family="Helvetica,sans-Serif" font-size="10.00">/home/runner/work/cbmc</text>
<text text-anchor="start" x="746.5" y="-544.5" font-family="Helvetica,sans-Serif" font-size="10.00">/cbmc/src/goto&#45;checker</text>
<text text-anchor="middle" x="807.5" y="-533.5" font-family="Helvetica,sans-Serif" font-size="10.00">/goto_trace_storage.cpp</text>
</a>
</g>
</g>
<!-- Node2 -->
<g id="node2" class="node">
<title>Node2</title>
<g id="a_node2"><a xlink:href="goto__trace__storage_8h.html" target="_top" xlink:title="Goto Trace Storage.">
<polygon fill="none" stroke="black" points="748,-470.5 748,-489.5 867,-489.5 867,-470.5 748,-470.5"/>
<text text-anchor="middle" x="807.5" y="-477.5" font-family="Helvetica,sans-Serif" font-size="10.00">goto_trace_storage.h</text>
</a>
</g>
</g>
<!-- Node1&#45;&gt;Node2 -->
<g id="edge1" class="edge">
<title>Node1&#45;&gt;Node2</title>
<path fill="none" stroke="midnightblue" d="M807.5,-526.5C807.5,-518.07 807.5,-508.24 807.5,-499.87"/>
<polygon fill="midnightblue" stroke="midnightblue" points="811,-499.65 807.5,-489.65 804,-499.65 811,-499.65"/>
</g>
<!-- Node3 -->
<g id="node3" class="node">
<title>Node3</title>
<g id="a_node3"><a xlink:href="goto__trace_8h.html" target="_top" xlink:title="Traces of GOTO Programs.">
<polygon fill="none" stroke="black" points="666,-403.5 666,-433.5 779,-433.5 779,-403.5 666,-403.5"/>
<text text-anchor="start" x="674" y="-421.5" font-family="Helvetica,sans-Serif" font-size="10.00">goto&#45;programs/goto</text>
<text text-anchor="middle" x="722.5" y="-410.5" font-family="Helvetica,sans-Serif" font-size="10.00">_trace.h</text>
</a>
</g>
</g>
<!-- Node2&#45;&gt;Node3 -->
<g id="edge2" class="edge">
<title>Node2&#45;&gt;Node3</title>
<path fill="none" stroke="midnightblue" d="M795.32,-470.48C783.81,-462.42 766.1,-450.02 751.03,-439.47"/>
<polygon fill="midnightblue" stroke="midnightblue" points="752.73,-436.39 742.53,-433.52 748.72,-442.12 752.73,-436.39"/>
</g>
<!-- Node21 -->
<g id="node21" class="node">
<title>Node21</title>
<g id="a_node21"><a xlink:title=" ">
<polygon fill="none" stroke="#bfbfbf" points="791.5,-280.5 791.5,-299.5 823.5,-299.5 823.5,-280.5 791.5,-280.5"/>
<text text-anchor="middle" x="807.5" y="-287.5" font-family="Helvetica,sans-Serif" font-size="10.00">list</text>
</a>
</g>
</g>
<!-- Node2&#45;&gt;Node21 -->
<g id="edge58" class="edge">
<title>Node2&#45;&gt;Node21</title>
<path fill="none" stroke="midnightblue" d="M807.5,-470.43C807.5,-441.93 807.5,-349.82 807.5,-309.83"/>
<polygon fill="midnightblue" stroke="midnightblue" points="811,-309.62 807.5,-299.62 804,-309.62 811,-309.62"/>
</g>
<!-- Node52 -->
<g id="node31" class="node">
<title>Node52</title>
<g id="a_node31"><a xlink:href="merge__irep_8h.html" target="_top" xlink:title=" ">
<polygon fill="none" stroke="black" points="933.5,-409 933.5,-428 1033.5,-428 1033.5,-409 933.5,-409"/>
<text text-anchor="middle" x="983.5" y="-416" font-family="Helvetica,sans-Serif" font-size="10.00">util/merge_irep.h</text>
</a>
</g>
</g>
<!-- Node2&#45;&gt;Node52 -->
<g id="edge55" class="edge">
<title>Node2&#45;&gt;Node52</title>
<path fill="none" stroke="midnightblue" d="M832.72,-470.48C863.17,-460.18 914.55,-442.81 948.74,-431.25"/>
<polygon fill="midnightblue" stroke="midnightblue" points="949.98,-434.53 958.33,-428.01 947.74,-427.9 949.98,-434.53"/>
</g>
<!-- Node4 -->
<g id="node4" class="node">
<title>Node4</title>
<g id="a_node4"><a xlink:title=" ">
<polygon fill="none" stroke="#bfbfbf" points="715.5,-168.5 715.5,-187.5 763.5,-187.5 763.5,-168.5 715.5,-168.5"/>
<text text-anchor="middle" x="739.5" y="-175.5" font-family="Helvetica,sans-Serif" font-size="10.00">iosfwd</text>
</a>
</g>
</g>
<!-- Node3&#45;&gt;Node4 -->
<g id="edge3" class="edge">
<title>Node3&#45;&gt;Node4</title>
<path fill="none" stroke="midnightblue" d="M725.04,-403.46C730.56,-371.63 743,-291.49 741.5,-224 741.31,-215.39 740.91,-205.86 740.52,-197.8"/>
<polygon fill="midnightblue" stroke="midnightblue" points="744.01,-197.43 740,-187.62 737.02,-197.79 744.01,-197.43"/>
</g>
<!-- Node5 -->
<g id="node5" class="node">
<title>Node5</title>
<g id="a_node5"><a xlink:title=" ">
<polygon fill="none" stroke="#bfbfbf" points="946,-56.5 946,-75.5 993,-75.5 993,-56.5 946,-56.5"/>
<text text-anchor="middle" x="969.5" y="-63.5" font-family="Helvetica,sans-Serif" font-size="10.00">vector</text>
</a>
</g>
</g>
<!-- Node3&#45;&gt;Node5 -->
<g id="edge4" class="edge">
<title>Node3&#45;&gt;Node5</title>
<path fill="none" stroke="midnightblue" d="M779.2,-410.41C831.93,-402.6 905.18,-388.27 924.5,-367 998.4,-285.63 981.71,-137.53 973.03,-85.6"/>
<polygon fill="midnightblue" stroke="midnightblue" points="976.43,-84.77 971.23,-75.53 969.54,-85.99 976.43,-84.77"/>
</g>
<!-- Node6 -->
<g id="node6" class="node">
<title>Node6</title>
<g id="a_node6"><a xlink:href="src_2util_2message_8h.html" target="_top" xlink:title=" ">
<polygon fill="none" stroke="black" points="449,-224.5 449,-243.5 538,-243.5 538,-224.5 449,-224.5"/>
<text text-anchor="middle" x="493.5" y="-231.5" font-family="Helvetica,sans-Serif" font-size="10.00">util/message.h</text>
</a>
</g>
</g>
<!-- Node3&#45;&gt;Node6 -->
<g id="edge5" class="edge">
<title>Node3&#45;&gt;Node6</title>
<path fill="none" stroke="midnightblue" d="M666.37,-403.44C639.92,-395.28 608.72,-383.32 583.5,-367 548.67,-344.45 540.84,-334.96 518.5,-300 509.24,-285.51 502.56,-267.07 498.44,-253.53"/>
<polygon fill="midnightblue" stroke="midnightblue" points="501.69,-252.17 495.59,-243.51 494.96,-254.08 501.69,-252.17"/>
</g>
<!-- Node32 -->
<g id="node19" class="node">
<title>Node32</title>
<g id="a_node19"><a xlink:href="options_8h.html" target="_top" xlink:title="Options.">
<polygon fill="none" stroke="black" points="835.5,-342 835.5,-361 915.5,-361 915.5,-342 835.5,-342"/>
<text text-anchor="middle" x="875.5" y="-349" font-family="Helvetica,sans-Serif" font-size="10.00">util/options.h</text>
</a>
</g>
</g>
<!-- Node3&#45;&gt;Node32 -->
<g id="edge26" class="edge">
<title>Node3&#45;&gt;Node32</title>
<path fill="none" stroke="midnightblue" d="M755.7,-403.4C782.66,-391.94 820.33,-375.94 846.19,-364.95"/>
<polygon fill="midnightblue" stroke="midnightblue" points="847.64,-368.14 855.48,-361.01 844.9,-361.7 847.64,-368.14"/>
</g>
<!-- Node34 -->
<g id="node22" class="node">
<title>Node34</title>
<g id="a_node22"><a xlink:href="goto__program_8h.html" target="_top" xlink:title="Concrete Goto Program.">
<polygon fill="none" stroke="black" points="593,-336.5 593,-366.5 706,-366.5 706,-336.5 593,-336.5"/>
<text text-anchor="start" x="601" y="-354.5" font-family="Helvetica,sans-Serif" font-size="10.00">goto&#45;programs/goto</text>
<text text-anchor="middle" x="649.5" y="-343.5" font-family="Helvetica,sans-Serif" font-size="10.00">_program.h</text>
</a>
</g>
</g>
<!-- Node3&#45;&gt;Node34 -->
<g id="edge30" class="edge">
<title>Node3&#45;&gt;Node34</title>
<path fill="none" stroke="midnightblue" d="M706.66,-403.4C696.81,-394.62 683.96,-383.18 672.94,-373.37"/>
<polygon fill="midnightblue" stroke="midnightblue" points="675.1,-370.61 665.31,-366.58 670.45,-375.84 675.1,-370.61"/>
</g>
<!-- Node6&#45;&gt;Node4 -->
<g id="edge7" class="edge">
<title>Node6&#45;&gt;Node4</title>
<path fill="none" stroke="midnightblue" d="M532.48,-224.44C580.12,-213.99 659.96,-196.46 705.31,-186.51"/>
<polygon fill="midnightblue" stroke="midnightblue" points="706.23,-189.89 715.24,-184.32 704.73,-183.05 706.23,-189.89"/>
</g>
<!-- Node7 -->
<g id="node7" class="node">
<title>Node7</title>
<g id="a_node7"><a xlink:title=" ">
<polygon fill="none" stroke="#bfbfbf" points="352,-56.5 352,-75.5 417,-75.5 417,-56.5 352,-56.5"/>
<text text-anchor="middle" x="384.5" y="-63.5" font-family="Helvetica,sans-Serif" font-size="10.00">functional</text>
</a>
</g>
</g>
<!-- Node6&#45;&gt;Node7 -->
<g id="edge6" class="edge">
<title>Node6&#45;&gt;Node7</title>
<path fill="none" stroke="midnightblue" d="M476.68,-224.37C462.87,-216.53 443.68,-203.8 431.5,-188 407.28,-156.58 394.14,-111.16 388.3,-85.84"/>
<polygon fill="midnightblue" stroke="midnightblue" points="391.65,-84.79 386.12,-75.75 384.81,-86.27 391.65,-84.79"/>
</g>
<!-- Node8 -->
<g id="node8" class="node">
<title>Node8</title>
<g id="a_node8"><a xlink:title=" ">
<polygon fill="none" stroke="#bfbfbf" points="380.5,-0.5 380.5,-19.5 436.5,-19.5 436.5,-0.5 380.5,-0.5"/>
<text text-anchor="middle" x="408.5" y="-7.5" font-family="Helvetica,sans-Serif" font-size="10.00">sstream</text>
</a>
</g>
</g>
<!-- Node6&#45;&gt;Node8 -->
<g id="edge8" class="edge">
<title>Node6&#45;&gt;Node8</title>
<path fill="none" stroke="midnightblue" d="M490.17,-224.3C477.61,-191.49 432.96,-74.88 415.54,-29.38"/>
<polygon fill="midnightblue" stroke="midnightblue" points="418.75,-27.97 411.9,-19.88 412.21,-30.47 418.75,-27.97"/>
</g>
<!-- Node9 -->
<g id="node9" class="node">
<title>Node9</title>
<g id="a_node9"><a xlink:title=" ">
<polygon fill="none" stroke="#bfbfbf" points="648.5,-0.5 648.5,-19.5 692.5,-19.5 692.5,-0.5 648.5,-0.5"/>
<text text-anchor="middle" x="670.5" y="-7.5" font-family="Helvetica,sans-Serif" font-size="10.00">string</text>
</a>
</g>
</g>
<!-- Node6&#45;&gt;Node9 -->
<g id="edge9" class="edge">
<title>Node6&#45;&gt;Node9</title>
<path fill="none" stroke="midnightblue" d="M521.53,-224.41C628.03,-191.79 1001.56,-77.28 1002.5,-76 1007.78,-68.85 1008.35,-62.69 1002.5,-56 963.84,-11.74 779.37,-9.32 703.35,-10.26"/>
<polygon fill="midnightblue" stroke="midnightblue" points="702.9,-6.76 692.96,-10.42 703.01,-13.76 702.9,-6.76"/>
</g>
<!-- Node10 -->
<g id="node10" class="node">
<title>Node10</title>
<g id="a_node10"><a xlink:href="deprecate_8h.html" target="_top" xlink:title=" ">
<polygon fill="none" stroke="black" points="473.5,-112.5 473.5,-131.5 547.5,-131.5 547.5,-112.5 473.5,-112.5"/>
<text text-anchor="middle" x="510.5" y="-119.5" font-family="Helvetica,sans-Serif" font-size="10.00">deprecate.h</text>
</a>
</g>
</g>
<!-- Node6&#45;&gt;Node10 -->
<g id="edge10" class="edge">
<title>Node6&#45;&gt;Node10</title>
<path fill="none" stroke="midnightblue" d="M494.83,-224.37C497.58,-206.62 503.91,-165.67 507.63,-141.6"/>
<polygon fill="midnightblue" stroke="midnightblue" points="511.1,-142.01 509.17,-131.59 504.19,-140.94 511.1,-142.01"/>
</g>
<!-- Node11 -->
<g id="node11" class="node">
<title>Node11</title>
<g id="a_node11"><a xlink:href="src_2util_2invariant_8h.html" target="_top" xlink:title=" ">
<polygon fill="none" stroke="black" points="265,-56.5 265,-75.5 334,-75.5 334,-56.5 265,-56.5"/>
<text text-anchor="middle" x="299.5" y="-63.5" font-family="Helvetica,sans-Serif" font-size="10.00">invariant.h</text>
</a>
</g>
</g>
<!-- Node6&#45;&gt;Node11 -->
<g id="edge11" class="edge">
<title>Node6&#45;&gt;Node11</title>
<path fill="none" stroke="midnightblue" d="M475.17,-224.43C458.71,-216.27 434.3,-203.04 415.5,-188 379.64,-159.31 377.48,-144.96 345.5,-112 335.97,-102.18 325.03,-91.45 316.21,-82.94"/>
<polygon fill="midnightblue" stroke="midnightblue" points="318.44,-80.23 308.8,-75.83 313.59,-85.28 318.44,-80.23"/>
</g>
<!-- Node14 -->
<g id="node14" class="node">
<title>Node14</title>
<g id="a_node14"><a xlink:href="source__location_8h.html" target="_top" xlink:title=" ">
<polygon fill="none" stroke="black" points="519.5,-168.5 519.5,-187.5 621.5,-187.5 621.5,-168.5 519.5,-168.5"/>
<text text-anchor="middle" x="570.5" y="-175.5" font-family="Helvetica,sans-Serif" font-size="10.00">source_location.h</text>
</a>
</g>
</g>
<!-- Node6&#45;&gt;Node14 -->
<g id="edge16" class="edge">
<title>Node6&#45;&gt;Node14</title>
<path fill="none" stroke="midnightblue" d="M505.87,-224.32C517.66,-216.06 535.63,-203.45 549.64,-193.63"/>
<polygon fill="midnightblue" stroke="midnightblue" points="551.98,-196.26 558.16,-187.65 547.96,-190.53 551.98,-196.26"/>
</g>
<!-- Node11&#45;&gt;Node8 -->
<g id="edge13" class="edge">
<title>Node11&#45;&gt;Node8</title>
<path fill="none" stroke="midnightblue" d="M317.01,-56.32C334.57,-47.62 361.83,-34.12 382.03,-24.11"/>
<polygon fill="midnightblue" stroke="midnightblue" points="383.62,-27.23 391.03,-19.65 380.52,-20.96 383.62,-27.23"/>
</g>
<!-- Node11&#45;&gt;Node9 -->
<g id="edge14" class="edge">
<title>Node11&#45;&gt;Node9</title>
<path fill="none" stroke="midnightblue" d="M334.19,-57.52C337,-56.98 339.79,-56.47 342.5,-56 450.2,-37.36 578.88,-21.58 637.95,-14.7"/>
<polygon fill="midnightblue" stroke="midnightblue" points="638.61,-18.15 648.15,-13.52 637.81,-11.19 638.61,-18.15"/>
</g>
<!-- Node12 -->
<g id="node12" class="node">
<title>Node12</title>
<g id="a_node12"><a xlink:title=" ">
<polygon fill="none" stroke="#bfbfbf" points="276,-0.5 276,-19.5 325,-19.5 325,-0.5 276,-0.5"/>
<text text-anchor="middle" x="300.5" y="-7.5" font-family="Helvetica,sans-Serif" font-size="10.00">cstdlib</text>
</a>
</g>
</g>
<!-- Node11&#45;&gt;Node12 -->
<g id="edge12" class="edge">
<title>Node11&#45;&gt;Node12</title>
<path fill="none" stroke="midnightblue" d="M299.67,-56.08C299.8,-49.01 299.98,-38.86 300.15,-29.99"/>
<polygon fill="midnightblue" stroke="midnightblue" points="303.65,-29.81 300.34,-19.75 296.65,-29.68 303.65,-29.81"/>
</g>
<!-- Node13 -->
<g id="node13" class="node">
<title>Node13</title>
<g id="a_node13"><a xlink:title=" ">
<polygon fill="none" stroke="#bfbfbf" points="189,-0.5 189,-19.5 258,-19.5 258,-0.5 189,-0.5"/>
<text text-anchor="middle" x="223.5" y="-7.5" font-family="Helvetica,sans-Serif" font-size="10.00">type_traits</text>
</a>
</g>
</g>
<!-- Node11&#45;&gt;Node13 -->
<g id="edge15" class="edge">
<title>Node11&#45;&gt;Node13</title>
<path fill="none" stroke="midnightblue" d="M287.29,-56.32C275.72,-48.11 258.12,-35.6 244.34,-25.81"/>
<polygon fill="midnightblue" stroke="midnightblue" points="246.11,-22.77 235.93,-19.83 242.06,-28.48 246.11,-22.77"/>
</g>
<!-- Node14&#45;&gt;Node9 -->
<g id="edge25" class="edge">
<title>Node14&#45;&gt;Node9</title>
<path fill="none" stroke="midnightblue" d="M589.08,-168.41C603.02,-160.9 621.23,-148.6 630.5,-132 647.05,-102.39 625.48,-87.72 637.5,-56 641.43,-45.62 648.46,-35.52 655.01,-27.53"/>
<polygon fill="midnightblue" stroke="midnightblue" points="657.85,-29.6 661.78,-19.77 652.57,-25 657.85,-29.6"/>
</g>
<!-- Node14&#45;&gt;Node10 -->
<g id="edge17" class="edge">
<title>Node14&#45;&gt;Node10</title>
<path fill="none" stroke="midnightblue" d="M560.86,-168.32C551.99,-160.34 538.63,-148.31 527.89,-138.65"/>
<polygon fill="midnightblue" stroke="midnightblue" points="530.09,-135.92 520.32,-131.83 525.41,-141.13 530.09,-135.92"/>
</g>
<!-- Node15 -->
<g id="node15" class="node">
<title>Node15</title>
<g id="a_node15"><a xlink:href="irep_8h.html" target="_top" xlink:title=" ">
<polygon fill="none" stroke="black" points="759.5,-112.5 759.5,-131.5 803.5,-131.5 803.5,-112.5 759.5,-112.5"/>
<text text-anchor="middle" x="781.5" y="-119.5" font-family="Helvetica,sans-Serif" font-size="10.00">irep.h</text>
</a>
</g>
</g>
<!-- Node14&#45;&gt;Node15 -->
<g id="edge18" class="edge">
<title>Node14&#45;&gt;Node15</title>
<path fill="none" stroke="midnightblue" d="M603.93,-168.44C643.83,-158.23 710.06,-141.28 749.37,-131.22"/>
<polygon fill="midnightblue" stroke="midnightblue" points="750.41,-134.57 759.23,-128.7 748.67,-127.79 750.41,-134.57"/>
</g>
<!-- Node31 -->
<g id="node18" class="node">
<title>Node31</title>
<g id="a_node18"><a xlink:title=" ">
<polygon fill="none" stroke="#bfbfbf" points="565.5,-112.5 565.5,-131.5 621.5,-131.5 621.5,-112.5 565.5,-112.5"/>
<text text-anchor="middle" x="593.5" y="-119.5" font-family="Helvetica,sans-Serif" font-size="10.00">optional</text>
</a>
</g>
</g>
<!-- Node14&#45;&gt;Node31 -->
<g id="edge24" class="edge">
<title>Node14&#45;&gt;Node31</title>
<path fill="none" stroke="midnightblue" d="M574.3,-168.08C577.41,-160.77 581.92,-150.18 585.79,-141.1"/>
<polygon fill="midnightblue" stroke="midnightblue" points="589.07,-142.32 589.77,-131.75 582.63,-139.58 589.07,-142.32"/>
</g>
<!-- Node15&#45;&gt;Node5 -->
<g id="edge20" class="edge">
<title>Node15&#45;&gt;Node5</title>
<path fill="none" stroke="midnightblue" d="M803.8,-114.59C836.57,-105.18 897.96,-87.55 936.11,-76.59"/>
<polygon fill="midnightblue" stroke="midnightblue" points="937.1,-79.95 945.75,-73.82 935.17,-73.22 937.1,-79.95"/>
</g>
<!-- Node15&#45;&gt;Node9 -->
<g id="edge19" class="edge">
<title>Node15&#45;&gt;Node9</title>
<path fill="none" stroke="midnightblue" d="M762.34,-112.46C746.49,-104.68 724.11,-91.97 708.5,-76 695.25,-62.44 684.82,-43.38 678.26,-29.41"/>
<polygon fill="midnightblue" stroke="midnightblue" points="681.29,-27.6 674.02,-19.89 674.89,-30.45 681.29,-27.6"/>
</g>
<!-- Node15&#45;&gt;Node11 -->
<g id="edge21" class="edge">
<title>Node15&#45;&gt;Node11</title>
<path fill="none" stroke="midnightblue" d="M759.47,-119.56C696.36,-115.25 509.37,-101.31 344.5,-76.17"/>
<polygon fill="midnightblue" stroke="midnightblue" points="344.59,-72.65 334.18,-74.58 343.53,-79.57 344.59,-72.65"/>
</g>
<!-- Node16 -->
<g id="node16" class="node">
<title>Node16</title>
<g id="a_node16"><a xlink:href="irep__ids_8h.html" target="_top" xlink:title="util">
<polygon fill="none" stroke="red" points="863.5,-56.5 863.5,-75.5 927.5,-75.5 927.5,-56.5 863.5,-56.5"/>
<text text-anchor="middle" x="895.5" y="-63.5" font-family="Helvetica,sans-Serif" font-size="10.00">irep_ids.h</text>
</a>
</g>
</g>
<!-- Node15&#45;&gt;Node16 -->
<g id="edge22" class="edge">
<title>Node15&#45;&gt;Node16</title>
<path fill="none" stroke="midnightblue" d="M799.56,-112.44C818.07,-103.68 847.08,-89.94 868.36,-79.86"/>
<polygon fill="midnightblue" stroke="midnightblue" points="869.98,-82.96 877.52,-75.52 866.99,-76.63 869.98,-82.96"/>
</g>
<!-- Node26 -->
<g id="node17" class="node">
<title>Node26</title>
<g id="a_node17"><a xlink:href="forward__list__as__map_8h.html" target="_top" xlink:title=" ">
<polygon fill="none" stroke="red" points="718,-56.5 718,-75.5 845,-75.5 845,-56.5 718,-56.5"/>
<text text-anchor="middle" x="781.5" y="-63.5" font-family="Helvetica,sans-Serif" font-size="10.00">forward_list_as_map.h</text>
</a>
</g>
</g>
<!-- Node15&#45;&gt;Node26 -->
<g id="edge23" class="edge">
<title>Node15&#45;&gt;Node26</title>
<path fill="none" stroke="midnightblue" d="M781.5,-112.08C781.5,-105.01 781.5,-94.86 781.5,-85.99"/>
<polygon fill="midnightblue" stroke="midnightblue" points="785,-85.75 781.5,-75.75 778,-85.75 785,-85.75"/>
</g>
<!-- Node32&#45;&gt;Node9 -->
<g id="edge27" class="edge">
<title>Node32&#45;&gt;Node9</title>
<path fill="none" stroke="midnightblue" d="M886.19,-341.83C931.56,-304.01 1102.18,-151.2 1018.5,-56 997.77,-32.41 784.63,-17.63 702.52,-12.77"/>
<polygon fill="midnightblue" stroke="midnightblue" points="702.69,-9.27 692.5,-12.19 702.28,-16.26 702.69,-9.27"/>
</g>
<!-- Node33 -->
<g id="node20" class="node">
<title>Node33</title>
<g id="a_node20"><a xlink:title=" ">
<polygon fill="none" stroke="#bfbfbf" points="841.5,-280.5 841.5,-299.5 879.5,-299.5 879.5,-280.5 841.5,-280.5"/>
<text text-anchor="middle" x="860.5" y="-287.5" font-family="Helvetica,sans-Serif" font-size="10.00">map</text>
</a>
</g>
</g>
<!-- Node32&#45;&gt;Node33 -->
<g id="edge28" class="edge">
<title>Node32&#45;&gt;Node33</title>
<path fill="none" stroke="midnightblue" d="M873.35,-341.98C871.21,-333.49 867.86,-320.2 865.12,-309.32"/>
<polygon fill="midnightblue" stroke="midnightblue" points="868.48,-308.35 862.65,-299.51 861.7,-310.06 868.48,-308.35"/>
</g>
<!-- Node32&#45;&gt;Node21 -->
<g id="edge29" class="edge">
<title>Node32&#45;&gt;Node21</title>
<path fill="none" stroke="midnightblue" d="M865.76,-341.98C855.15,-332.7 837.98,-317.67 825.02,-306.33"/>
<polygon fill="midnightblue" stroke="midnightblue" points="827.06,-303.46 817.22,-299.51 822.45,-308.73 827.06,-303.46"/>
</g>
<!-- Node34&#45;&gt;Node4 -->
<g id="edge50" class="edge">
<title>Node34&#45;&gt;Node4</title>
<path fill="none" stroke="midnightblue" d="M668.15,-336.39C679.23,-327.13 692.79,-314.14 701.5,-300 721.83,-267 732.17,-222.17 736.64,-197.38"/>
<polygon fill="midnightblue" stroke="midnightblue" points="740.1,-197.96 738.3,-187.52 733.19,-196.8 740.1,-197.96"/>
</g>
<!-- Node34&#45;&gt;Node9 -->
<g id="edge54" class="edge">
<title>Node34&#45;&gt;Node9</title>
<path fill="none" stroke="midnightblue" d="M657.37,-336.41C668.5,-315.13 687.5,-273.21 687.5,-235 687.5,-235 687.5,-235 687.5,-177 687.5,-123.31 678.59,-60.36 673.67,-29.69"/>
<polygon fill="midnightblue" stroke="midnightblue" points="677.09,-28.91 672.01,-19.61 670.18,-30.05 677.09,-28.91"/>
</g>
<!-- Node34&#45;&gt;Node11 -->
<g id="edge31" class="edge">
<title>Node34&#45;&gt;Node11</title>
<path fill="none" stroke="midnightblue" d="M592.65,-341.82C501.18,-326.23 331.5,-289.92 331.5,-235 331.5,-235 331.5,-235 331.5,-177 331.5,-143.33 317.51,-106.08 308.03,-84.72"/>
<polygon fill="midnightblue" stroke="midnightblue" points="311.18,-83.21 303.82,-75.59 304.83,-86.14 311.18,-83.21"/>
</g>
<!-- Node34&#45;&gt;Node14 -->
<g id="edge32" class="edge">
<title>Node34&#45;&gt;Node14</title>
<path fill="none" stroke="midnightblue" d="M646.87,-336.35C643.91,-321.84 638.44,-298.8 630.5,-280 617.34,-248.84 596.05,-215.66 582.68,-196.16"/>
<polygon fill="midnightblue" stroke="midnightblue" points="585.42,-193.96 576.83,-187.75 579.67,-197.96 585.42,-193.96"/>
</g>
<!-- Node34&#45;&gt;Node21 -->
<g id="edge52" class="edge">
<title>Node34&#45;&gt;Node21</title>
<path fill="none" stroke="midnightblue" d="M686.94,-336.4C716.27,-325.36 756.27,-310.29 782,-300.6"/>
<polygon fill="midnightblue" stroke="midnightblue" points="783.31,-303.85 791.43,-297.05 780.84,-297.3 783.31,-303.85"/>
</g>
<!-- Node35 -->
<g id="node23" class="node">
<title>Node35</title>
<g id="a_node23"><a xlink:href="goto__instruction__code_8h.html" target="_top" xlink:title=" ">
<polygon fill="none" stroke="black" points="170,-280.5 170,-299.5 303,-299.5 303,-280.5 170,-280.5"/>
<text text-anchor="middle" x="236.5" y="-287.5" font-family="Helvetica,sans-Serif" font-size="10.00">goto_instruction_code.h</text>
</a>
</g>
</g>
<!-- Node34&#45;&gt;Node35 -->
<g id="edge33" class="edge">
<title>Node34&#45;&gt;Node35</title>
<path fill="none" stroke="midnightblue" d="M592.94,-342.35C518.15,-331.58 386.44,-312.6 305.77,-300.98"/>
<polygon fill="midnightblue" stroke="midnightblue" points="306.11,-297.49 295.71,-299.53 305.11,-304.42 306.11,-297.49"/>
</g>
<!-- Node50 -->
<g id="node29" class="node">
<title>Node50</title>
<g id="a_node29"><a xlink:title=" ">
<polygon fill="none" stroke="#bfbfbf" points="527.5,-280.5 527.5,-299.5 571.5,-299.5 571.5,-280.5 527.5,-280.5"/>
<text text-anchor="middle" x="549.5" y="-287.5" font-family="Helvetica,sans-Serif" font-size="10.00">limits</text>
</a>
</g>
</g>
<!-- Node34&#45;&gt;Node50 -->
<g id="edge51" class="edge">
<title>Node34&#45;&gt;Node50</title>
<path fill="none" stroke="midnightblue" d="M625.8,-336.4C609.77,-326.86 588.7,-314.32 572.76,-304.84"/>
<polygon fill="midnightblue" stroke="midnightblue" points="574.43,-301.76 564.05,-299.66 570.86,-307.78 574.43,-301.76"/>
</g>
<!-- Node51 -->
<g id="node30" class="node">
<title>Node51</title>
<g id="a_node30"><a xlink:title=" ">
<polygon fill="none" stroke="#bfbfbf" points="589.5,-280.5 589.5,-299.5 621.5,-299.5 621.5,-280.5 589.5,-280.5"/>
<text text-anchor="middle" x="605.5" y="-287.5" font-family="Helvetica,sans-Serif" font-size="10.00">set</text>
</a>
</g>
</g>
<!-- Node34&#45;&gt;Node51 -->
<g id="edge53" class="edge">
<title>Node34&#45;&gt;Node51</title>
<path fill="none" stroke="midnightblue" d="M639.07,-336.4C632.74,-327.84 624.63,-316.87 617.97,-307.86"/>
<polygon fill="midnightblue" stroke="midnightblue" points="620.66,-305.62 611.9,-299.66 615.03,-309.78 620.66,-305.62"/>
</g>
<!-- Node36 -->
<g id="node24" class="node">
<title>Node36</title>
<g id="a_node24"><a xlink:href="std__code__base_8h.html" target="_top" xlink:title=" ">
<polygon fill="none" stroke="black" points="78.5,-224.5 78.5,-243.5 194.5,-243.5 194.5,-224.5 78.5,-224.5"/>
<text text-anchor="middle" x="136.5" y="-231.5" font-family="Helvetica,sans-Serif" font-size="10.00">util/std_code_base.h</text>
</a>
</g>
</g>
<!-- Node35&#45;&gt;Node36 -->
<g id="edge34" class="edge">
<title>Node35&#45;&gt;Node36</title>
<path fill="none" stroke="midnightblue" d="M220.43,-280.32C204.54,-271.74 179.99,-258.49 161.54,-248.52"/>
<polygon fill="midnightblue" stroke="midnightblue" points="162.99,-245.33 152.53,-243.65 159.66,-251.49 162.99,-245.33"/>
</g>
<!-- Node49 -->
<g id="node28" class="node">
<title>Node49</title>
<g id="a_node28"><a xlink:href="std__expr_8h.html" target="_top" xlink:title="API to expression classes.">
<polygon fill="none" stroke="black" points="212.5,-224.5 212.5,-243.5 298.5,-243.5 298.5,-224.5 212.5,-224.5"/>
<text text-anchor="middle" x="255.5" y="-231.5" font-family="Helvetica,sans-Serif" font-size="10.00">util/std_expr.h</text>
</a>
</g>
</g>
<!-- Node35&#45;&gt;Node49 -->
<g id="edge46" class="edge">
<title>Node35&#45;&gt;Node49</title>
<path fill="none" stroke="midnightblue" d="M239.64,-280.08C242.18,-272.85 245.86,-262.41 249.03,-253.4"/>
<polygon fill="midnightblue" stroke="midnightblue" points="252.4,-254.35 252.42,-243.75 245.8,-252.02 252.4,-254.35"/>
</g>
<!-- Node36&#45;&gt;Node11 -->
<g id="edge39" class="edge">
<title>Node36&#45;&gt;Node11</title>
<path fill="none" stroke="midnightblue" d="M127.48,-224.27C115.84,-211.88 98.03,-188.44 106.5,-168 119.97,-135.48 132.52,-130.44 162.5,-112 190.99,-94.48 227.05,-82.99 255.03,-76.01"/>
<polygon fill="midnightblue" stroke="midnightblue" points="256.03,-79.37 264.94,-73.64 254.4,-72.56 256.03,-79.37"/>
</g>
<!-- Node37 -->
<g id="node25" class="node">
<title>Node37</title>
<g id="a_node25"><a xlink:href="expr__cast_8h.html" target="_top" xlink:title="Templated functions to cast to specific exprt&#45;derived classes.">
<polygon fill="none" stroke="red" points="189,-112.5 189,-131.5 262,-131.5 262,-112.5 189,-112.5"/>
<text text-anchor="middle" x="225.5" y="-119.5" font-family="Helvetica,sans-Serif" font-size="10.00">expr_cast.h</text>
</a>
</g>
</g>
<!-- Node36&#45;&gt;Node37 -->
<g id="edge35" class="edge">
<title>Node36&#45;&gt;Node37</title>
<path fill="none" stroke="midnightblue" d="M152.63,-224.35C166.14,-216.42 185.14,-203.56 197.5,-188 208.47,-174.18 215.94,-155.41 220.39,-141.59"/>
<polygon fill="midnightblue" stroke="midnightblue" points="223.82,-142.35 223.32,-131.76 217.11,-140.35 223.82,-142.35"/>
</g>
<!-- Node46 -->
<g id="node26" class="node">
<title>Node46</title>
<g id="a_node26"><a xlink:href="std__types_8h.html" target="_top" xlink:title="Pre&#45;defined types.">
<polygon fill="none" stroke="red" points="116,-168.5 116,-187.5 189,-187.5 189,-168.5 116,-168.5"/>
<text text-anchor="middle" x="152.5" y="-175.5" font-family="Helvetica,sans-Serif" font-size="10.00">std_types.h</text>
</a>
</g>
</g>
<!-- Node36&#45;&gt;Node46 -->
<g id="edge40" class="edge">
<title>Node36&#45;&gt;Node46</title>
<path fill="none" stroke="midnightblue" d="M139.14,-224.08C141.29,-216.85 144.38,-206.41 147.05,-197.4"/>
<polygon fill="midnightblue" stroke="midnightblue" points="150.42,-198.33 149.91,-187.75 143.71,-196.34 150.42,-198.33"/>
</g>
<!-- Node41 -->
<g id="node27" class="node">
<title>Node41</title>
<g id="a_node27"><a xlink:href="validate_8h.html" target="_top" xlink:title=" ">
<polygon fill="none" stroke="red" points="0,-112.5 0,-131.5 65,-131.5 65,-112.5 0,-112.5"/>
<text text-anchor="middle" x="32.5" y="-119.5" font-family="Helvetica,sans-Serif" font-size="10.00">validate.h</text>
</a>
</g>
</g>
<!-- Node36&#45;&gt;Node41 -->
<g id="edge45" class="edge">
<title>Node36&#45;&gt;Node41</title>
<path fill="none" stroke="midnightblue" d="M121.23,-224.43C107.62,-216.28 87.71,-203.05 73.5,-188 60.09,-173.79 48.6,-154.57 41.23,-140.72"/>
<polygon fill="midnightblue" stroke="midnightblue" points="44.3,-139.03 36.62,-131.73 38.07,-142.22 44.3,-139.03"/>
</g>
<!-- Node37&#45;&gt;Node7 -->
<g id="edge37" class="edge">
<title>Node37&#45;&gt;Node7</title>
<path fill="none" stroke="midnightblue" d="M250.69,-112.44C277.44,-103.36 319.9,-88.94 349.81,-78.78"/>
<polygon fill="midnightblue" stroke="midnightblue" points="351.08,-82.05 359.42,-75.52 348.83,-75.42 351.08,-82.05"/>
</g>
<!-- Node37&#45;&gt;Node11 -->
<g id="edge38" class="edge">
<title>Node37&#45;&gt;Node11</title>
<path fill="none" stroke="midnightblue" d="M237.39,-112.32C248.65,-104.11 265.79,-91.6 279.21,-81.81"/>
<polygon fill="midnightblue" stroke="midnightblue" points="281.38,-84.56 287.39,-75.83 277.25,-78.9 281.38,-84.56"/>
</g>
<!-- Node37&#45;&gt;Node13 -->
<g id="edge36" class="edge">
<title>Node37&#45;&gt;Node13</title>
<path fill="none" stroke="midnightblue" d="M225.34,-112.37C225.02,-94.62 224.28,-53.67 223.84,-29.6"/>
<polygon fill="midnightblue" stroke="midnightblue" points="227.34,-29.53 223.66,-19.59 220.34,-29.65 227.34,-29.53"/>
</g>
<!-- Node46&#45;&gt;Node11 -->
<g id="edge42" class="edge">
<title>Node46&#45;&gt;Node11</title>
<path fill="none" stroke="midnightblue" d="M153.87,-168.17C156.45,-154.36 163.33,-127.62 179.5,-112 199.97,-92.23 229.93,-80.99 254.8,-74.68"/>
<polygon fill="midnightblue" stroke="midnightblue" points="255.81,-78.04 264.74,-72.34 254.21,-71.22 255.81,-78.04"/>
</g>
<!-- Node46&#45;&gt;Node37 -->
<g id="edge41" class="edge">
<title>Node46&#45;&gt;Node37</title>
<path fill="none" stroke="midnightblue" d="M164.23,-168.32C175.34,-160.11 192.24,-147.6 205.48,-137.81"/>
<polygon fill="midnightblue" stroke="midnightblue" points="207.6,-140.59 213.56,-131.83 203.44,-134.97 207.6,-140.59"/>
</g>
<!-- Node46&#45;&gt;Node41 -->
<g id="edge43" class="edge">
<title>Node46&#45;&gt;Node41</title>
<path fill="none" stroke="midnightblue" d="M133.49,-168.44C113.91,-159.64 83.19,-145.81 60.77,-135.72"/>
<polygon fill="midnightblue" stroke="midnightblue" points="61.98,-132.43 51.43,-131.52 59.11,-138.81 61.98,-132.43"/>
</g>
<!-- Node41&#45;&gt;Node13 -->
<g id="edge44" class="edge">
<title>Node41&#45;&gt;Node13</title>
<path fill="none" stroke="midnightblue" d="M47.49,-112.37C80.54,-93.33 159.92,-47.62 199.8,-24.65"/>
<polygon fill="midnightblue" stroke="midnightblue" points="201.66,-27.62 208.58,-19.59 198.17,-21.55 201.66,-27.62"/>
</g>
<!-- Node49&#45;&gt;Node11 -->
<g id="edge48" class="edge">
<title>Node49&#45;&gt;Node11</title>
<path fill="none" stroke="midnightblue" d="M257.87,-224.08C264.79,-197.95 285.13,-121.21 294.58,-85.58"/>
<polygon fill="midnightblue" stroke="midnightblue" points="298.05,-86.13 297.23,-75.57 291.28,-84.34 298.05,-86.13"/>
</g>
<!-- Node49&#45;&gt;Node37 -->
<g id="edge47" class="edge">
<title>Node49&#45;&gt;Node37</title>
<path fill="none" stroke="midnightblue" d="M253.15,-224.37C248.28,-206.54 237.04,-165.3 230.48,-141.27"/>
<polygon fill="midnightblue" stroke="midnightblue" points="233.85,-140.32 227.84,-131.59 227.1,-142.16 233.85,-140.32"/>
</g>
<!-- Node49&#45;&gt;Node46 -->
<g id="edge49" class="edge">
<title>Node49&#45;&gt;Node46</title>
<path fill="none" stroke="midnightblue" d="M238.95,-224.32C222.51,-215.7 197.07,-202.36 178.03,-192.39"/>
<polygon fill="midnightblue" stroke="midnightblue" points="179.49,-189.2 169.01,-187.65 176.24,-195.4 179.49,-189.2"/>
</g>
<!-- Node52&#45;&gt;Node15 -->
<g id="edge57" class="edge">
<title>Node52&#45;&gt;Node15</title>
<path fill="none" stroke="midnightblue" d="M977.45,-408.69C949.34,-367.7 831.18,-195.43 793.26,-140.15"/>
<polygon fill="midnightblue" stroke="midnightblue" points="796.06,-138.05 787.52,-131.78 790.29,-142.01 796.06,-138.05"/>
</g>
<!-- Node53 -->
<g id="node32" class="node">
<title>Node53</title>
<g id="a_node32"><a xlink:title=" ">
<polygon fill="none" stroke="#bfbfbf" points="1011.5,-342 1011.5,-361 1097.5,-361 1097.5,-342 1011.5,-342"/>
<text text-anchor="middle" x="1054.5" y="-349" font-family="Helvetica,sans-Serif" font-size="10.00">unordered_set</text>
</a>
</g>
</g>
<!-- Node52&#45;&gt;Node53 -->
<g id="edge56" class="edge">
<title>Node52&#45;&gt;Node53</title>
<path fill="none" stroke="midnightblue" d="M993.08,-408.73C1004.47,-398.31 1023.69,-380.71 1037.6,-367.97"/>
<polygon fill="midnightblue" stroke="midnightblue" points="1040.06,-370.46 1045.08,-361.13 1035.34,-365.3 1040.06,-370.46"/>
</g>
</g>
</svg>
