<?xml version="1.0" encoding="UTF-8" standalone="no"?>
<!DOCTYPE svg PUBLIC "-//W3C//DTD SVG 1.1//EN"
 "http://www.w3.org/Graphics/SVG/1.1/DTD/svg11.dtd">
<!-- Generated by graphviz version 2.43.0 (0)
 -->
<!-- Title: /home/runner/work/cbmc/cbmc/src/goto&#45;programs/goto_function.h Pages: 1 -->
<svg width="1118pt" height="778pt"
 viewBox="0.00 0.00 1118.00 778.00" xmlns="http://www.w3.org/2000/svg" xmlns:xlink="http://www.w3.org/1999/xlink">
<g id="graph0" class="graph" transform="scale(1 1) rotate(0) translate(4 774)">
<title>/home/runner/work/cbmc/cbmc/src/goto&#45;programs/goto_function.h</title>
<!-- Node1 -->
<g id="node1" class="node">
<title>Node1</title>
<g id="a_node1"><a xlink:title=" ">
<polygon fill="#bfbfbf" stroke="black" points="441,-728.5 441,-769.5 579,-769.5 579,-728.5 441,-728.5"/>
<text text-anchor="start" x="449" y="-757.5" font-family="Helvetica,sans-Serif" font-size="10.00">/home/runner/work/cbmc</text>
<text text-anchor="start" x="449" y="-746.5" font-family="Helvetica,sans-Serif" font-size="10.00">/cbmc/src/goto&#45;programs</text>
<text text-anchor="middle" x="510" y="-735.5" font-family="Helvetica,sans-Serif" font-size="10.00">/goto_function.h</text>
</a>
</g>
</g>
<!-- Node2 -->
<g id="node2" class="node">
<title>Node2</title>
<g id="a_node2"><a xlink:href="std__types_8h.html" target="_top" xlink:title=" ">
<polygon fill="none" stroke="black" points="719,-504.5 719,-523.5 811,-523.5 811,-504.5 719,-504.5"/>
<text text-anchor="middle" x="765" y="-511.5" font-family="Helvetica,sans-Serif" font-size="10.00">util/std_types.h</text>
</a>
</g>
</g>
<!-- Node1&#45;&gt;Node2 -->
<g id="edge1" class="edge">
<title>Node1&#45;&gt;Node2</title>
<path fill="none" stroke="midnightblue" d="M526.87,-728.36C545.39,-706.44 575.6,-669.64 599,-636 621.55,-603.59 614.62,-585.21 645,-560 664.39,-543.91 690.11,-533.25 712.76,-526.36"/>
<polygon fill="midnightblue" stroke="midnightblue" points="713.93,-529.67 722.58,-523.55 712.01,-522.94 713.93,-529.67"/>
</g>
<!-- Node41 -->
<g id="node28" class="node">
<title>Node41</title>
<g id="a_node28"><a xlink:href="goto__program_8h.html" target="_top" xlink:title=" ">
<polygon fill="none" stroke="black" points="382,-672.5 382,-691.5 476,-691.5 476,-672.5 382,-672.5"/>
<text text-anchor="middle" x="429" y="-679.5" font-family="Helvetica,sans-Serif" font-size="10.00">goto_program.h</text>
</a>
</g>
</g>
<!-- Node1&#45;&gt;Node41 -->
<g id="edge44" class="edge">
<title>Node1&#45;&gt;Node41</title>
<path fill="none" stroke="midnightblue" d="M485.7,-728.5C473.52,-718.72 459,-707.07 447.7,-698.01"/>
<polygon fill="midnightblue" stroke="midnightblue" points="449.77,-695.18 439.78,-691.65 445.39,-700.64 449.77,-695.18"/>
</g>
<!-- Node3 -->
<g id="node3" class="node">
<title>Node3</title>
<g id="a_node3"><a xlink:href="expr_8h.html" target="_top" xlink:title=" ">
<polygon fill="none" stroke="black" points="692.5,-392.5 692.5,-411.5 739.5,-411.5 739.5,-392.5 692.5,-392.5"/>
<text text-anchor="middle" x="716" y="-399.5" font-family="Helvetica,sans-Serif" font-size="10.00">expr.h</text>
</a>
</g>
</g>
<!-- Node2&#45;&gt;Node3 -->
<g id="edge2" class="edge">
<title>Node2&#45;&gt;Node3</title>
<path fill="none" stroke="midnightblue" d="M763.33,-504.29C760.7,-491.52 754.94,-467.18 746,-448 741.45,-438.23 734.94,-428.17 729.16,-420.05"/>
<polygon fill="midnightblue" stroke="midnightblue" points="731.83,-417.78 723.07,-411.82 726.2,-421.94 731.83,-417.78"/>
</g>
<!-- Node10 -->
<g id="node10" class="node">
<title>Node10</title>
<g id="a_node10"><a xlink:href="src_2util_2invariant_8h.html" target="_top" xlink:title=" ">
<polygon fill="none" stroke="red" points="847.5,-56.5 847.5,-75.5 916.5,-75.5 916.5,-56.5 847.5,-56.5"/>
<text text-anchor="middle" x="882" y="-63.5" font-family="Helvetica,sans-Serif" font-size="10.00">invariant.h</text>
</a>
</g>
</g>
<!-- Node2&#45;&gt;Node10 -->
<g id="edge37" class="edge">
<title>Node2&#45;&gt;Node10</title>
<path fill="none" stroke="midnightblue" d="M768.24,-504.23C776.16,-483.5 797.89,-430.31 826,-392 839.57,-373.5 851.17,-375.66 863,-356 878.52,-330.21 882,-321.1 882,-291 882,-291 882,-291 882,-177 882,-144.95 882,-107.64 882,-85.75"/>
<polygon fill="midnightblue" stroke="midnightblue" points="885.5,-85.56 882,-75.56 878.5,-85.56 885.5,-85.56"/>
</g>
<!-- Node31 -->
<g id="node16" class="node">
<title>Node31</title>
<g id="a_node16"><a xlink:href="validate_8h.html" target="_top" xlink:title=" ">
<polygon fill="none" stroke="black" points="512.5,-280.5 512.5,-299.5 577.5,-299.5 577.5,-280.5 512.5,-280.5"/>
<text text-anchor="middle" x="545" y="-287.5" font-family="Helvetica,sans-Serif" font-size="10.00">validate.h</text>
</a>
</g>
</g>
<!-- Node2&#45;&gt;Node31 -->
<g id="edge42" class="edge">
<title>Node2&#45;&gt;Node31</title>
<path fill="none" stroke="midnightblue" d="M722.14,-504.49C695.37,-497.72 661.14,-486.26 635,-468 599.27,-443.03 607.76,-418.31 573,-392 540.94,-367.73 512.06,-389.62 490,-356 477.55,-337.03 499.8,-317.44 519.62,-304.79"/>
<polygon fill="midnightblue" stroke="midnightblue" points="521.65,-307.65 528.42,-299.5 518.05,-301.66 521.65,-307.65"/>
</g>
<!-- Node37 -->
<g id="node22" class="node">
<title>Node37</title>
<g id="a_node22"><a xlink:href="expr__cast_8h.html" target="_top" xlink:title="Templated functions to cast to specific exprt&#45;derived classes.">
<polygon fill="none" stroke="black" points="834.5,-448.5 834.5,-467.5 907.5,-467.5 907.5,-448.5 834.5,-448.5"/>
<text text-anchor="middle" x="871" y="-455.5" font-family="Helvetica,sans-Serif" font-size="10.00">expr_cast.h</text>
</a>
</g>
</g>
<!-- Node2&#45;&gt;Node37 -->
<g id="edge31" class="edge">
<title>Node2&#45;&gt;Node37</title>
<path fill="none" stroke="midnightblue" d="M782.03,-504.32C799.03,-495.66 825.38,-482.24 844.99,-472.25"/>
<polygon fill="midnightblue" stroke="midnightblue" points="846.69,-475.31 854.01,-467.65 843.51,-469.08 846.69,-475.31"/>
</g>
<!-- Node39 -->
<g id="node24" class="node">
<title>Node39</title>
<g id="a_node24"><a xlink:href="mp__arith_8h.html" target="_top" xlink:title=" ">
<polygon fill="none" stroke="black" points="417.5,-448.5 417.5,-467.5 486.5,-467.5 486.5,-448.5 417.5,-448.5"/>
<text text-anchor="middle" x="452" y="-455.5" font-family="Helvetica,sans-Serif" font-size="10.00">mp_arith.h</text>
</a>
</g>
</g>
<!-- Node2&#45;&gt;Node39 -->
<g id="edge38" class="edge">
<title>Node2&#45;&gt;Node39</title>
<path fill="none" stroke="midnightblue" d="M718.82,-505.03C659.14,-494.74 555.92,-476.93 496.89,-466.74"/>
<polygon fill="midnightblue" stroke="midnightblue" points="497.2,-463.25 486.75,-465 496.01,-470.14 497.2,-463.25"/>
</g>
<!-- Node21 -->
<g id="node27" class="node">
<title>Node21</title>
<g id="a_node27"><a xlink:title=" ">
<polygon fill="none" stroke="#bfbfbf" points="643.5,-448.5 643.5,-467.5 736.5,-467.5 736.5,-448.5 643.5,-448.5"/>
<text text-anchor="middle" x="690" y="-455.5" font-family="Helvetica,sans-Serif" font-size="10.00">unordered_map</text>
</a>
</g>
</g>
<!-- Node2&#45;&gt;Node21 -->
<g id="edge43" class="edge">
<title>Node2&#45;&gt;Node21</title>
<path fill="none" stroke="midnightblue" d="M752.95,-504.32C741.54,-496.11 724.17,-483.6 710.57,-473.81"/>
<polygon fill="midnightblue" stroke="midnightblue" points="712.43,-470.84 702.27,-467.83 708.34,-476.52 712.43,-470.84"/>
</g>
<!-- Node4 -->
<g id="node4" class="node">
<title>Node4</title>
<g id="a_node4"><a xlink:href="as__const_8h.html" target="_top" xlink:title=" ">
<polygon fill="none" stroke="black" points="0,-0.5 0,-19.5 68,-19.5 68,-0.5 0,-0.5"/>
<text text-anchor="middle" x="34" y="-7.5" font-family="Helvetica,sans-Serif" font-size="10.00">as_const.h</text>
</a>
</g>
</g>
<!-- Node3&#45;&gt;Node4 -->
<g id="edge3" class="edge">
<title>Node3&#45;&gt;Node4</title>
<path fill="none" stroke="midnightblue" d="M692.2,-398.85C650.21,-394.51 560.74,-382.7 490,-356 257.86,-268.37 130.87,-291 7,-76 -2.01,-60.37 8.36,-41.14 18.75,-27.67"/>
<polygon fill="midnightblue" stroke="midnightblue" points="21.64,-29.66 25.37,-19.75 16.27,-25.17 21.64,-29.66"/>
</g>
<!-- Node5 -->
<g id="node5" class="node">
<title>Node5</title>
<g id="a_node5"><a xlink:href="type_8h.html" target="_top" xlink:title=" ">
<polygon fill="none" stroke="black" points="646.5,-336.5 646.5,-355.5 693.5,-355.5 693.5,-336.5 646.5,-336.5"/>
<text text-anchor="middle" x="670" y="-343.5" font-family="Helvetica,sans-Serif" font-size="10.00">type.h</text>
</a>
</g>
</g>
<!-- Node3&#45;&gt;Node5 -->
<g id="edge4" class="edge">
<title>Node3&#45;&gt;Node5</title>
<path fill="none" stroke="midnightblue" d="M708.4,-392.08C701.77,-384.3 691.98,-372.8 683.94,-363.37"/>
<polygon fill="midnightblue" stroke="midnightblue" points="686.6,-361.09 677.45,-355.75 681.27,-365.63 686.6,-361.09"/>
</g>
<!-- Node33 -->
<g id="node18" class="node">
<title>Node33</title>
<g id="a_node18"><a xlink:href="validation__mode_8h.html" target="_top" xlink:title=" ">
<polygon fill="none" stroke="black" points="701.5,-224.5 701.5,-243.5 808.5,-243.5 808.5,-224.5 701.5,-224.5"/>
<text text-anchor="middle" x="755" y="-231.5" font-family="Helvetica,sans-Serif" font-size="10.00">validation_mode.h</text>
</a>
</g>
</g>
<!-- Node3&#45;&gt;Node33 -->
<g id="edge29" class="edge">
<title>Node3&#45;&gt;Node33</title>
<path fill="none" stroke="midnightblue" d="M718.23,-392.37C722.71,-374.96 733.06,-334.32 741,-300 744.58,-284.52 748.36,-266.89 751.09,-253.9"/>
<polygon fill="midnightblue" stroke="midnightblue" points="754.57,-254.35 753.18,-243.85 747.72,-252.93 754.57,-254.35"/>
</g>
<!-- Node34 -->
<g id="node19" class="node">
<title>Node34</title>
<g id="a_node19"><a xlink:href="validate__types_8h.html" target="_top" xlink:title=" ">
<polygon fill="none" stroke="black" points="634,-280.5 634,-299.5 732,-299.5 732,-280.5 634,-280.5"/>
<text text-anchor="middle" x="683" y="-287.5" font-family="Helvetica,sans-Serif" font-size="10.00">validate_types.h</text>
</a>
</g>
</g>
<!-- Node3&#45;&gt;Node34 -->
<g id="edge28" class="edge">
<title>Node3&#45;&gt;Node34</title>
<path fill="none" stroke="midnightblue" d="M714.9,-392.43C713.15,-379.86 709.28,-355.74 703,-336 700.09,-326.83 695.87,-317.03 692.06,-308.93"/>
<polygon fill="midnightblue" stroke="midnightblue" points="695.11,-307.19 687.58,-299.74 688.82,-310.26 695.11,-307.19"/>
</g>
<!-- Node35 -->
<g id="node20" class="node">
<title>Node35</title>
<g id="a_node20"><a xlink:href="validate__expressions_8h.html" target="_top" xlink:title=" ">
<polygon fill="none" stroke="black" points="499.5,-336.5 499.5,-355.5 628.5,-355.5 628.5,-336.5 499.5,-336.5"/>
<text text-anchor="middle" x="564" y="-343.5" font-family="Helvetica,sans-Serif" font-size="10.00">validate_expressions.h</text>
</a>
</g>
</g>
<!-- Node3&#45;&gt;Node35 -->
<g id="edge27" class="edge">
<title>Node3&#45;&gt;Node35</title>
<path fill="none" stroke="midnightblue" d="M692.25,-392.56C666.86,-383.54 626.38,-369.16 597.69,-358.97"/>
<polygon fill="midnightblue" stroke="midnightblue" points="598.68,-355.61 588.08,-355.56 596.34,-362.2 598.68,-355.61"/>
</g>
<!-- Node36 -->
<g id="node21" class="node">
<title>Node36</title>
<g id="a_node21"><a xlink:title=" ">
<polygon fill="none" stroke="#bfbfbf" points="788.5,-336.5 788.5,-355.5 853.5,-355.5 853.5,-336.5 788.5,-336.5"/>
<text text-anchor="middle" x="821" y="-343.5" font-family="Helvetica,sans-Serif" font-size="10.00">functional</text>
</a>
</g>
</g>
<!-- Node3&#45;&gt;Node36 -->
<g id="edge30" class="edge">
<title>Node3&#45;&gt;Node36</title>
<path fill="none" stroke="midnightblue" d="M732.87,-392.32C749.71,-383.66 775.81,-370.24 795.24,-360.25"/>
<polygon fill="midnightblue" stroke="midnightblue" points="796.88,-363.34 804.17,-355.65 793.68,-357.12 796.88,-363.34"/>
</g>
<!-- Node6 -->
<g id="node6" class="node">
<title>Node6</title>
<g id="a_node6"><a xlink:href="source__location_8h.html" target="_top" xlink:title=" ">
<polygon fill="none" stroke="black" points="393,-168.5 393,-187.5 495,-187.5 495,-168.5 393,-168.5"/>
<text text-anchor="middle" x="444" y="-175.5" font-family="Helvetica,sans-Serif" font-size="10.00">source_location.h</text>
</a>
</g>
</g>
<!-- Node5&#45;&gt;Node6 -->
<g id="edge5" class="edge">
<title>Node5&#45;&gt;Node6</title>
<path fill="none" stroke="midnightblue" d="M646.24,-338.28C643.47,-337.51 640.67,-336.73 638,-336 578.11,-319.59 550.94,-339.47 503,-300 470.48,-273.22 454.5,-224.17 447.9,-197.48"/>
<polygon fill="midnightblue" stroke="midnightblue" points="451.27,-196.51 445.62,-187.54 444.44,-198.07 451.27,-196.51"/>
</g>
<!-- Node5&#45;&gt;Node31 -->
<g id="edge18" class="edge">
<title>Node5&#45;&gt;Node31</title>
<path fill="none" stroke="midnightblue" d="M650.19,-336.44C629.71,-327.6 597.52,-313.69 574.14,-303.59"/>
<polygon fill="midnightblue" stroke="midnightblue" points="575.28,-300.27 564.71,-299.52 572.51,-306.7 575.28,-300.27"/>
</g>
<!-- Node5&#45;&gt;Node33 -->
<g id="edge26" class="edge">
<title>Node5&#45;&gt;Node33</title>
<path fill="none" stroke="midnightblue" d="M656.37,-336.33C638.43,-323.82 610.75,-300.01 625,-280 634.7,-266.38 672.68,-254.2 705.1,-245.95"/>
<polygon fill="midnightblue" stroke="midnightblue" points="706.07,-249.32 714.94,-243.52 704.4,-242.52 706.07,-249.32"/>
</g>
<!-- Node5&#45;&gt;Node34 -->
<g id="edge25" class="edge">
<title>Node5&#45;&gt;Node34</title>
<path fill="none" stroke="midnightblue" d="M672.15,-336.08C673.87,-328.93 676.35,-318.64 678.5,-309.69"/>
<polygon fill="midnightblue" stroke="midnightblue" points="681.96,-310.29 680.89,-299.75 675.15,-308.65 681.96,-310.29"/>
</g>
<!-- Node7 -->
<g id="node7" class="node">
<title>Node7</title>
<g id="a_node7"><a xlink:href="irep_8h.html" target="_top" xlink:title=" ">
<polygon fill="none" stroke="black" points="246,-112.5 246,-131.5 290,-131.5 290,-112.5 246,-112.5"/>
<text text-anchor="middle" x="268" y="-119.5" font-family="Helvetica,sans-Serif" font-size="10.00">irep.h</text>
</a>
</g>
</g>
<!-- Node6&#45;&gt;Node7 -->
<g id="edge6" class="edge">
<title>Node6&#45;&gt;Node7</title>
<path fill="none" stroke="midnightblue" d="M416.11,-168.44C384.49,-158.74 333.03,-142.95 299.85,-132.77"/>
<polygon fill="midnightblue" stroke="midnightblue" points="300.77,-129.39 290.18,-129.81 298.72,-136.09 300.77,-129.39"/>
</g>
<!-- Node8 -->
<g id="node8" class="node">
<title>Node8</title>
<g id="a_node8"><a xlink:title=" ">
<polygon fill="none" stroke="#bfbfbf" points="524,-0.5 524,-19.5 568,-19.5 568,-0.5 524,-0.5"/>
<text text-anchor="middle" x="546" y="-7.5" font-family="Helvetica,sans-Serif" font-size="10.00">string</text>
</a>
</g>
</g>
<!-- Node6&#45;&gt;Node8 -->
<g id="edge17" class="edge">
<title>Node6&#45;&gt;Node8</title>
<path fill="none" stroke="midnightblue" d="M453,-168.26C461.62,-159.58 474.67,-145.63 484,-132 507.45,-97.72 527.96,-53.4 538.49,-29.04"/>
<polygon fill="midnightblue" stroke="midnightblue" points="541.79,-30.2 542.48,-19.63 535.35,-27.46 541.79,-30.2"/>
</g>
<!-- Node29 -->
<g id="node14" class="node">
<title>Node29</title>
<g id="a_node14"><a xlink:href="optional_8h.html" target="_top" xlink:title=" ">
<polygon fill="none" stroke="black" points="410.5,-112.5 410.5,-131.5 475.5,-131.5 475.5,-112.5 410.5,-112.5"/>
<text text-anchor="middle" x="443" y="-119.5" font-family="Helvetica,sans-Serif" font-size="10.00">optional.h</text>
</a>
</g>
</g>
<!-- Node6&#45;&gt;Node29 -->
<g id="edge15" class="edge">
<title>Node6&#45;&gt;Node29</title>
<path fill="none" stroke="midnightblue" d="M443.83,-168.08C443.7,-161.01 443.52,-150.86 443.35,-141.99"/>
<polygon fill="midnightblue" stroke="midnightblue" points="446.85,-141.68 443.16,-131.75 439.85,-141.81 446.85,-141.68"/>
</g>
<!-- Node7&#45;&gt;Node8 -->
<g id="edge7" class="edge">
<title>Node7&#45;&gt;Node8</title>
<path fill="none" stroke="midnightblue" d="M275.33,-112.31C287.75,-98.19 314.37,-70.4 343,-56 398.92,-27.87 472.22,-17.2 513.7,-13.24"/>
<polygon fill="midnightblue" stroke="midnightblue" points="514.13,-16.72 523.78,-12.36 513.51,-9.75 514.13,-16.72"/>
</g>
<!-- Node9 -->
<g id="node9" class="node">
<title>Node9</title>
<g id="a_node9"><a xlink:title=" ">
<polygon fill="none" stroke="#bfbfbf" points="161.5,-56.5 161.5,-75.5 208.5,-75.5 208.5,-56.5 161.5,-56.5"/>
<text text-anchor="middle" x="185" y="-63.5" font-family="Helvetica,sans-Serif" font-size="10.00">vector</text>
</a>
</g>
</g>
<!-- Node7&#45;&gt;Node9 -->
<g id="edge8" class="edge">
<title>Node7&#45;&gt;Node9</title>
<path fill="none" stroke="midnightblue" d="M254.66,-112.32C241.84,-103.98 222.22,-91.21 207.06,-81.35"/>
<polygon fill="midnightblue" stroke="midnightblue" points="208.59,-78.17 198.3,-75.65 204.78,-84.04 208.59,-78.17"/>
</g>
<!-- Node7&#45;&gt;Node10 -->
<g id="edge9" class="edge">
<title>Node7&#45;&gt;Node10</title>
<path fill="none" stroke="midnightblue" d="M290.22,-119.05C379.73,-111.17 715.01,-81.69 837.14,-70.95"/>
<polygon fill="midnightblue" stroke="midnightblue" points="837.61,-74.42 847.27,-70.05 837,-67.44 837.61,-74.42"/>
</g>
<!-- Node14 -->
<g id="node12" class="node">
<title>Node14</title>
<g id="a_node12"><a xlink:href="irep__ids_8h.html" target="_top" xlink:title=" ">
<polygon fill="none" stroke="red" points="227,-56.5 227,-75.5 291,-75.5 291,-56.5 227,-56.5"/>
<text text-anchor="middle" x="259" y="-63.5" font-family="Helvetica,sans-Serif" font-size="10.00">irep_ids.h</text>
</a>
</g>
</g>
<!-- Node7&#45;&gt;Node14 -->
<g id="edge12" class="edge">
<title>Node7&#45;&gt;Node14</title>
<path fill="none" stroke="midnightblue" d="M266.51,-112.08C265.32,-104.93 263.61,-94.64 262.12,-85.69"/>
<polygon fill="midnightblue" stroke="midnightblue" points="265.55,-85.04 260.46,-75.75 258.65,-86.19 265.55,-85.04"/>
</g>
<!-- Node25 -->
<g id="node13" class="node">
<title>Node25</title>
<g id="a_node13"><a xlink:href="forward__list__as__map_8h.html" target="_top" xlink:title=" ">
<polygon fill="none" stroke="red" points="16.5,-56.5 16.5,-75.5 143.5,-75.5 143.5,-56.5 16.5,-56.5"/>
<text text-anchor="middle" x="80" y="-63.5" font-family="Helvetica,sans-Serif" font-size="10.00">forward_list_as_map.h</text>
</a>
</g>
</g>
<!-- Node7&#45;&gt;Node25 -->
<g id="edge13" class="edge">
<title>Node7&#45;&gt;Node25</title>
<path fill="none" stroke="midnightblue" d="M245.7,-114.59C214.62,-105.67 157.82,-89.35 119.49,-78.34"/>
<polygon fill="midnightblue" stroke="midnightblue" points="120.27,-74.93 109.69,-75.53 118.34,-81.65 120.27,-74.93"/>
</g>
<!-- Node10&#45;&gt;Node8 -->
<g id="edge10" class="edge">
<title>Node10&#45;&gt;Node8</title>
<path fill="none" stroke="midnightblue" d="M847.31,-59.42C782.01,-48.93 641.7,-26.38 578.29,-16.19"/>
<polygon fill="midnightblue" stroke="midnightblue" points="578.52,-12.68 568.09,-14.55 577.4,-19.59 578.52,-12.68"/>
</g>
<!-- Node13 -->
<g id="node11" class="node">
<title>Node13</title>
<g id="a_node11"><a xlink:title=" ">
<polygon fill="none" stroke="#bfbfbf" points="847.5,-0.5 847.5,-19.5 916.5,-19.5 916.5,-0.5 847.5,-0.5"/>
<text text-anchor="middle" x="882" y="-7.5" font-family="Helvetica,sans-Serif" font-size="10.00">type_traits</text>
</a>
</g>
</g>
<!-- Node10&#45;&gt;Node13 -->
<g id="edge11" class="edge">
<title>Node10&#45;&gt;Node13</title>
<path fill="none" stroke="midnightblue" d="M882,-56.08C882,-49.01 882,-38.86 882,-29.99"/>
<polygon fill="midnightblue" stroke="midnightblue" points="885.5,-29.75 882,-19.75 878.5,-29.75 885.5,-29.75"/>
</g>
<!-- Node25&#45;&gt;Node4 -->
<g id="edge14" class="edge">
<title>Node25&#45;&gt;Node4</title>
<path fill="none" stroke="midnightblue" d="M72.4,-56.08C65.77,-48.3 55.98,-36.8 47.94,-27.37"/>
<polygon fill="midnightblue" stroke="midnightblue" points="50.6,-25.09 41.45,-19.75 45.27,-29.63 50.6,-25.09"/>
</g>
<!-- Node30 -->
<g id="node15" class="node">
<title>Node30</title>
<g id="a_node15"><a xlink:title=" ">
<polygon fill="none" stroke="#bfbfbf" points="385.5,-56.5 385.5,-75.5 498.5,-75.5 498.5,-56.5 385.5,-56.5"/>
<text text-anchor="middle" x="442" y="-63.5" font-family="Helvetica,sans-Serif" font-size="10.00">nonstd/optional.hpp</text>
</a>
</g>
</g>
<!-- Node29&#45;&gt;Node30 -->
<g id="edge16" class="edge">
<title>Node29&#45;&gt;Node30</title>
<path fill="none" stroke="midnightblue" d="M442.83,-112.08C442.7,-105.01 442.52,-94.86 442.35,-85.99"/>
<polygon fill="midnightblue" stroke="midnightblue" points="445.85,-85.68 442.16,-75.75 438.85,-85.81 445.85,-85.68"/>
</g>
<!-- Node31&#45;&gt;Node13 -->
<g id="edge19" class="edge">
<title>Node31&#45;&gt;Node13</title>
<path fill="none" stroke="midnightblue" d="M577.56,-282.11C600.32,-275.75 629.93,-264.14 649,-244 670.17,-221.64 673,-209.8 673,-179 673,-179 673,-179 673,-121 673,-47.35 775.88,-22.9 837.28,-14.87"/>
<polygon fill="midnightblue" stroke="midnightblue" points="837.98,-18.31 847.49,-13.63 837.14,-11.36 837.98,-18.31"/>
</g>
<!-- Node32 -->
<g id="node17" class="node">
<title>Node32</title>
<g id="a_node17"><a xlink:href="exception__utils_8h.html" target="_top" xlink:title=" ">
<polygon fill="none" stroke="black" points="540,-224.5 540,-243.5 640,-243.5 640,-224.5 540,-224.5"/>
<text text-anchor="middle" x="590" y="-231.5" font-family="Helvetica,sans-Serif" font-size="10.00">exception_utils.h</text>
</a>
</g>
</g>
<!-- Node31&#45;&gt;Node32 -->
<g id="edge20" class="edge">
<title>Node31&#45;&gt;Node32</title>
<path fill="none" stroke="midnightblue" d="M552.43,-280.08C558.85,-272.38 568.31,-261.03 576.12,-251.65"/>
<polygon fill="midnightblue" stroke="midnightblue" points="578.99,-253.67 582.71,-243.75 573.62,-249.19 578.99,-253.67"/>
</g>
<!-- Node31&#45;&gt;Node33 -->
<g id="edge24" class="edge">
<title>Node31&#45;&gt;Node33</title>
<path fill="none" stroke="midnightblue" d="M577.81,-280.56C613.97,-271.26 672.26,-256.28 712.04,-246.05"/>
<polygon fill="midnightblue" stroke="midnightblue" points="712.91,-249.44 721.72,-243.56 711.17,-242.66 712.91,-249.44"/>
</g>
<!-- Node32&#45;&gt;Node6 -->
<g id="edge23" class="edge">
<title>Node32&#45;&gt;Node6</title>
<path fill="none" stroke="midnightblue" d="M566.87,-224.44C542.52,-215.44 503.99,-201.19 476.58,-191.05"/>
<polygon fill="midnightblue" stroke="midnightblue" points="477.62,-187.7 467.03,-187.52 475.19,-194.27 477.62,-187.7"/>
</g>
<!-- Node32&#45;&gt;Node8 -->
<g id="edge21" class="edge">
<title>Node32&#45;&gt;Node8</title>
<path fill="none" stroke="midnightblue" d="M591.15,-224.18C594.25,-197.72 601.12,-117.08 579,-56 575.22,-45.56 568.22,-35.46 561.63,-27.47"/>
<polygon fill="midnightblue" stroke="midnightblue" points="564.05,-24.93 554.82,-19.73 558.79,-29.55 564.05,-24.93"/>
</g>
<!-- Node32&#45;&gt;Node10 -->
<g id="edge22" class="edge">
<title>Node32&#45;&gt;Node10</title>
<path fill="none" stroke="midnightblue" d="M605.29,-224.31C653.09,-197.14 799.97,-113.64 858.02,-80.63"/>
<polygon fill="midnightblue" stroke="midnightblue" points="859.9,-83.59 866.86,-75.61 856.44,-77.5 859.9,-83.59"/>
</g>
<!-- Node37&#45;&gt;Node3 -->
<g id="edge36" class="edge">
<title>Node37&#45;&gt;Node3</title>
<path fill="none" stroke="midnightblue" d="M846.44,-448.44C820.25,-439.32 778.6,-424.81 749.43,-414.65"/>
<polygon fill="midnightblue" stroke="midnightblue" points="750.28,-411.24 739.68,-411.25 747.97,-417.85 750.28,-411.24"/>
</g>
<!-- Node37&#45;&gt;Node10 -->
<g id="edge35" class="edge">
<title>Node37&#45;&gt;Node10</title>
<path fill="none" stroke="midnightblue" d="M877.81,-448.46C891.28,-430.69 920,-387.98 920,-347 920,-347 920,-347 920,-177 920,-142.81 903.4,-105.76 892.14,-84.57"/>
<polygon fill="midnightblue" stroke="midnightblue" points="895.18,-82.83 887.28,-75.77 889.05,-86.22 895.18,-82.83"/>
</g>
<!-- Node37&#45;&gt;Node13 -->
<g id="edge33" class="edge">
<title>Node37&#45;&gt;Node13</title>
<path fill="none" stroke="midnightblue" d="M894.35,-448.43C954.49,-424.67 1110,-351.94 1110,-235 1110,-235 1110,-235 1110,-121 1110,-40.49 993.24,-18.87 926.83,-13.09"/>
<polygon fill="midnightblue" stroke="midnightblue" points="926.87,-9.59 916.63,-12.3 926.32,-16.57 926.87,-9.59"/>
</g>
<!-- Node37&#45;&gt;Node36 -->
<g id="edge34" class="edge">
<title>Node37&#45;&gt;Node36</title>
<path fill="none" stroke="midnightblue" d="M858.23,-448.31C847.57,-440.26 833.02,-427.26 826,-412 819.35,-397.54 818.5,-379.35 819.08,-365.9"/>
<polygon fill="midnightblue" stroke="midnightblue" points="822.57,-366.12 819.81,-355.89 815.59,-365.61 822.57,-366.12"/>
</g>
<!-- Node38 -->
<g id="node23" class="node">
<title>Node38</title>
<g id="a_node23"><a xlink:title=" ">
<polygon fill="none" stroke="#bfbfbf" points="834.5,-392.5 834.5,-411.5 891.5,-411.5 891.5,-392.5 834.5,-392.5"/>
<text text-anchor="middle" x="863" y="-399.5" font-family="Helvetica,sans-Serif" font-size="10.00">typeinfo</text>
</a>
</g>
</g>
<!-- Node37&#45;&gt;Node38 -->
<g id="edge32" class="edge">
<title>Node37&#45;&gt;Node38</title>
<path fill="none" stroke="midnightblue" d="M869.68,-448.08C868.62,-440.93 867.09,-430.64 865.77,-421.69"/>
<polygon fill="midnightblue" stroke="midnightblue" points="869.22,-421.13 864.3,-411.75 862.3,-422.16 869.22,-421.13"/>
</g>
<!-- Node39&#45;&gt;Node8 -->
<g id="edge40" class="edge">
<title>Node39&#45;&gt;Node8</title>
<path fill="none" stroke="midnightblue" d="M442.54,-448.3C418.51,-425.21 357,-359.4 357,-291 357,-291 357,-291 357,-121 357,-90.9 354.45,-77.01 376,-56 413.17,-19.77 475.95,-11.81 513.93,-10.56"/>
<polygon fill="midnightblue" stroke="midnightblue" points="514.01,-14.06 523.94,-10.36 513.87,-7.06 514.01,-14.06"/>
</g>
<!-- Node16 -->
<g id="node25" class="node">
<title>Node16</title>
<g id="a_node25"><a xlink:title=" ">
<polygon fill="none" stroke="#bfbfbf" points="333,-392.5 333,-411.5 381,-411.5 381,-392.5 333,-392.5"/>
<text text-anchor="middle" x="357" y="-399.5" font-family="Helvetica,sans-Serif" font-size="10.00">iosfwd</text>
</a>
</g>
</g>
<!-- Node39&#45;&gt;Node16 -->
<g id="edge39" class="edge">
<title>Node39&#45;&gt;Node16</title>
<path fill="none" stroke="midnightblue" d="M436.74,-448.32C421.78,-439.82 398.75,-426.73 381.27,-416.8"/>
<polygon fill="midnightblue" stroke="midnightblue" points="382.65,-413.55 372.23,-411.65 379.19,-419.64 382.65,-413.55"/>
</g>
<!-- Node40 -->
<g id="node26" class="node">
<title>Node40</title>
<g id="a_node26"><a xlink:title=" ">
<polygon fill="none" stroke="#bfbfbf" points="437,-392.5 437,-411.5 531,-411.5 531,-392.5 437,-392.5"/>
<text text-anchor="middle" x="484" y="-399.5" font-family="Helvetica,sans-Serif" font-size="10.00">big&#45;int/bigint.hh</text>
</a>
</g>
</g>
<!-- Node39&#45;&gt;Node40 -->
<g id="edge41" class="edge">
<title>Node39&#45;&gt;Node40</title>
<path fill="none" stroke="midnightblue" d="M457.28,-448.08C461.71,-440.61 468.16,-429.72 473.62,-420.52"/>
<polygon fill="midnightblue" stroke="midnightblue" points="476.73,-422.14 478.81,-411.75 470.71,-418.57 476.73,-422.14"/>
</g>
<!-- Node41&#45;&gt;Node6 -->
<g id="edge65" class="edge">
<title>Node41&#45;&gt;Node6</title>
<path fill="none" stroke="midnightblue" d="M381.76,-679.16C350.49,-675.18 311.57,-664.35 291,-636 227.3,-548.23 277.75,-499.63 291,-392 294.13,-366.54 293.04,-358.7 305,-336 336.5,-276.2 395.43,-220.55 425.42,-194.5"/>
<polygon fill="midnightblue" stroke="midnightblue" points="428.08,-196.83 433.41,-187.67 423.53,-191.51 428.08,-196.83"/>
</g>
<!-- Node41&#45;&gt;Node8 -->
<g id="edge59" class="edge">
<title>Node41&#45;&gt;Node8</title>
<path fill="none" stroke="midnightblue" d="M405.38,-672.48C369.41,-657.79 305,-624.09 305,-571 305,-571 305,-571 305,-457 305,-308.29 432.62,-318.46 504,-188 532.75,-135.46 541.95,-63.63 544.79,-29.92"/>
<polygon fill="midnightblue" stroke="midnightblue" points="548.3,-29.92 545.55,-19.68 541.32,-29.4 548.3,-29.92"/>
</g>
<!-- Node41&#45;&gt;Node10 -->
<g id="edge61" class="edge">
<title>Node41&#45;&gt;Node10</title>
<path fill="none" stroke="midnightblue" d="M476.02,-677.93C624.25,-667.62 1072,-631.48 1072,-571 1072,-571 1072,-571 1072,-177 1072,-110.26 983.11,-83.36 926.93,-73.02"/>
<polygon fill="midnightblue" stroke="midnightblue" points="927.3,-69.53 916.85,-71.27 926.11,-76.43 927.3,-69.53"/>
</g>
<!-- Node41&#45;&gt;Node16 -->
<g id="edge56" class="edge">
<title>Node41&#45;&gt;Node16</title>
<path fill="none" stroke="midnightblue" d="M414.81,-672.37C402.8,-664.37 385.99,-651.39 376,-636 359.62,-610.75 357,-601.1 357,-571 357,-571 357,-571 357,-513 357,-480.95 357,-443.64 357,-421.75"/>
<polygon fill="midnightblue" stroke="midnightblue" points="360.5,-421.56 357,-411.56 353.5,-421.56 360.5,-421.56"/>
</g>
<!-- Node42 -->
<g id="node29" class="node">
<title>Node42</title>
<g id="a_node29"><a xlink:href="goto__instruction__code_8h.html" target="_top" xlink:title=" ">
<polygon fill="none" stroke="black" points="715.5,-616.5 715.5,-635.5 848.5,-635.5 848.5,-616.5 715.5,-616.5"/>
<text text-anchor="middle" x="782" y="-623.5" font-family="Helvetica,sans-Serif" font-size="10.00">goto_instruction_code.h</text>
</a>
</g>
</g>
<!-- Node41&#45;&gt;Node42 -->
<g id="edge45" class="edge">
<title>Node41&#45;&gt;Node42</title>
<path fill="none" stroke="midnightblue" d="M476.24,-673.77C538.02,-664.32 646.56,-647.72 716.32,-637.05"/>
<polygon fill="midnightblue" stroke="midnightblue" points="716.96,-640.49 726.32,-635.52 715.91,-633.57 716.96,-640.49"/>
</g>
<!-- Node46 -->
<g id="node33" class="node">
<title>Node46</title>
<g id="a_node33"><a xlink:title=" ">
<polygon fill="none" stroke="#bfbfbf" points="385,-616.5 385,-635.5 417,-635.5 417,-616.5 385,-616.5"/>
<text text-anchor="middle" x="401" y="-623.5" font-family="Helvetica,sans-Serif" font-size="10.00">set</text>
</a>
</g>
</g>
<!-- Node41&#45;&gt;Node46 -->
<g id="edge57" class="edge">
<title>Node41&#45;&gt;Node46</title>
<path fill="none" stroke="midnightblue" d="M424.38,-672.08C420.54,-664.69 414.98,-653.95 410.24,-644.81"/>
<polygon fill="midnightblue" stroke="midnightblue" points="413.25,-643.02 405.54,-635.75 407.03,-646.24 413.25,-643.02"/>
</g>
<!-- Node47 -->
<g id="node34" class="node">
<title>Node47</title>
<g id="a_node34"><a xlink:title=" ">
<polygon fill="none" stroke="#bfbfbf" points="435,-616.5 435,-635.5 479,-635.5 479,-616.5 435,-616.5"/>
<text text-anchor="middle" x="457" y="-623.5" font-family="Helvetica,sans-Serif" font-size="10.00">limits</text>
</a>
</g>
</g>
<!-- Node41&#45;&gt;Node47 -->
<g id="edge58" class="edge">
<title>Node41&#45;&gt;Node47</title>
<path fill="none" stroke="midnightblue" d="M433.62,-672.08C437.46,-664.69 443.02,-653.95 447.76,-644.81"/>
<polygon fill="midnightblue" stroke="midnightblue" points="450.97,-646.24 452.46,-635.75 444.75,-643.02 450.97,-646.24"/>
</g>
<!-- Node48 -->
<g id="node35" class="node">
<title>Node48</title>
<g id="a_node35"><a xlink:href="deprecate_8h.html" target="_top" xlink:title=" ">
<polygon fill="none" stroke="black" points="497.5,-616.5 497.5,-635.5 590.5,-635.5 590.5,-616.5 497.5,-616.5"/>
<text text-anchor="middle" x="544" y="-623.5" font-family="Helvetica,sans-Serif" font-size="10.00">util/deprecate.h</text>
</a>
</g>
</g>
<!-- Node41&#45;&gt;Node48 -->
<g id="edge60" class="edge">
<title>Node41&#45;&gt;Node48</title>
<path fill="none" stroke="midnightblue" d="M447.22,-672.44C465.9,-663.68 495.16,-649.94 516.62,-639.86"/>
<polygon fill="midnightblue" stroke="midnightblue" points="518.3,-642.93 525.86,-635.52 515.32,-636.6 518.3,-642.93"/>
</g>
<!-- Node49 -->
<g id="node36" class="node">
<title>Node49</title>
<g id="a_node36"><a xlink:href="namespace_8h.html" target="_top" xlink:title=" ">
<polygon fill="none" stroke="black" points="217.5,-168.5 217.5,-187.5 318.5,-187.5 318.5,-168.5 217.5,-168.5"/>
<text text-anchor="middle" x="268" y="-175.5" font-family="Helvetica,sans-Serif" font-size="10.00">util/namespace.h</text>
</a>
</g>
</g>
<!-- Node41&#45;&gt;Node49 -->
<g id="edge62" class="edge">
<title>Node41&#45;&gt;Node49</title>
<path fill="none" stroke="midnightblue" d="M381.95,-676.29C352.36,-671.01 315.32,-659.79 291,-636 231.42,-577.7 229,-542.35 229,-459 229,-459 229,-459 229,-289 229,-254.72 246.04,-217.7 257.59,-196.54"/>
<polygon fill="midnightblue" stroke="midnightblue" points="260.69,-198.17 262.58,-187.75 254.6,-194.72 260.69,-198.17"/>
</g>
<!-- Node43 -->
<g id="node30" class="node">
<title>Node43</title>
<g id="a_node30"><a xlink:href="cprover__prefix_8h.html" target="_top" xlink:title=" ">
<polygon fill="none" stroke="black" points="654,-560.5 654,-579.5 768,-579.5 768,-560.5 654,-560.5"/>
<text text-anchor="middle" x="711" y="-567.5" font-family="Helvetica,sans-Serif" font-size="10.00">util/cprover_prefix.h</text>
</a>
</g>
</g>
<!-- Node42&#45;&gt;Node43 -->
<g id="edge46" class="edge">
<title>Node42&#45;&gt;Node43</title>
<path fill="none" stroke="midnightblue" d="M770.59,-616.32C759.89,-608.18 743.66,-595.84 730.84,-586.09"/>
<polygon fill="midnightblue" stroke="midnightblue" points="732.69,-583.1 722.61,-579.83 728.46,-588.67 732.69,-583.1"/>
</g>
<!-- Node44 -->
<g id="node31" class="node">
<title>Node44</title>
<g id="a_node31"><a xlink:href="std__code__base_8h.html" target="_top" xlink:title=" ">
<polygon fill="none" stroke="black" points="786,-560.5 786,-579.5 902,-579.5 902,-560.5 786,-560.5"/>
<text text-anchor="middle" x="844" y="-567.5" font-family="Helvetica,sans-Serif" font-size="10.00">util/std_code_base.h</text>
</a>
</g>
</g>
<!-- Node42&#45;&gt;Node44 -->
<g id="edge47" class="edge">
<title>Node42&#45;&gt;Node44</title>
<path fill="none" stroke="midnightblue" d="M791.96,-616.32C801.13,-608.34 814.94,-596.31 826.03,-586.65"/>
<polygon fill="midnightblue" stroke="midnightblue" points="828.62,-589.04 833.86,-579.83 824.02,-583.76 828.62,-589.04"/>
</g>
<!-- Node45 -->
<g id="node32" class="node">
<title>Node45</title>
<g id="a_node32"><a xlink:href="std__expr_8h.html" target="_top" xlink:title=" ">
<polygon fill="none" stroke="black" points="937,-560.5 937,-579.5 1023,-579.5 1023,-560.5 937,-560.5"/>
<text text-anchor="middle" x="980" y="-567.5" font-family="Helvetica,sans-Serif" font-size="10.00">util/std_expr.h</text>
</a>
</g>
</g>
<!-- Node42&#45;&gt;Node45 -->
<g id="edge52" class="edge">
<title>Node42&#45;&gt;Node45</title>
<path fill="none" stroke="midnightblue" d="M813.37,-616.44C847.26,-607.2 901.4,-592.44 938.72,-582.26"/>
<polygon fill="midnightblue" stroke="midnightblue" points="940.05,-585.52 948.77,-579.52 938.2,-578.77 940.05,-585.52"/>
</g>
<!-- Node44&#45;&gt;Node2 -->
<g id="edge50" class="edge">
<title>Node44&#45;&gt;Node2</title>
<path fill="none" stroke="midnightblue" d="M831.31,-560.32C819.1,-551.98 800.42,-539.21 786,-529.35"/>
<polygon fill="midnightblue" stroke="midnightblue" points="787.89,-526.41 777.66,-523.65 783.94,-532.19 787.89,-526.41"/>
</g>
<!-- Node44&#45;&gt;Node10 -->
<g id="edge49" class="edge">
<title>Node44&#45;&gt;Node10</title>
<path fill="none" stroke="midnightblue" d="M855.93,-560.36C891.76,-533.29 996,-446.03 996,-347 996,-347 996,-347 996,-177 996,-130.11 945.45,-96.89 911.67,-79.93"/>
<polygon fill="midnightblue" stroke="midnightblue" points="913.17,-76.77 902.64,-75.58 910.13,-83.07 913.17,-76.77"/>
</g>
<!-- Node44&#45;&gt;Node31 -->
<g id="edge51" class="edge">
<title>Node44&#45;&gt;Node31</title>
<path fill="none" stroke="midnightblue" d="M813.32,-560.48C785.75,-552.4 744.44,-539.27 710,-524 663.43,-503.36 649.98,-499.57 610,-468 573.96,-439.54 575.27,-421.4 540,-392 516.98,-372.81 497.46,-382.24 483,-356 471.6,-335.33 495.36,-316.37 516.69,-304.34"/>
<polygon fill="midnightblue" stroke="midnightblue" points="518.38,-307.4 525.57,-299.62 515.09,-301.22 518.38,-307.4"/>
</g>
<!-- Node44&#45;&gt;Node37 -->
<g id="edge48" class="edge">
<title>Node44&#45;&gt;Node37</title>
<path fill="none" stroke="midnightblue" d="M846.12,-560.37C850.48,-542.62 860.53,-501.67 866.44,-477.6"/>
<polygon fill="midnightblue" stroke="midnightblue" points="869.91,-478.14 868.89,-467.59 863.11,-476.47 869.91,-478.14"/>
</g>
<!-- Node45&#45;&gt;Node2 -->
<g id="edge55" class="edge">
<title>Node45&#45;&gt;Node2</title>
<path fill="none" stroke="midnightblue" d="M945.93,-560.44C908.82,-551.12 849.34,-536.18 808.79,-526"/>
<polygon fill="midnightblue" stroke="midnightblue" points="809.46,-522.56 798.91,-523.52 807.75,-529.35 809.46,-522.56"/>
</g>
<!-- Node45&#45;&gt;Node10 -->
<g id="edge54" class="edge">
<title>Node45&#45;&gt;Node10</title>
<path fill="none" stroke="midnightblue" d="M987.74,-560.31C1002.67,-542.59 1034,-500.48 1034,-459 1034,-459 1034,-459 1034,-177 1034,-123.44 971.29,-93.3 926.43,-78.59"/>
<polygon fill="midnightblue" stroke="midnightblue" points="927.46,-75.25 916.87,-75.6 925.37,-81.93 927.46,-75.25"/>
</g>
<!-- Node45&#45;&gt;Node37 -->
<g id="edge53" class="edge">
<title>Node45&#45;&gt;Node37</title>
<path fill="none" stroke="midnightblue" d="M971.45,-560.37C953.14,-541.89 909.94,-498.29 886.6,-474.74"/>
<polygon fill="midnightblue" stroke="midnightblue" points="889.04,-472.23 879.51,-467.59 884.07,-477.16 889.04,-472.23"/>
</g>
<!-- Node49&#45;&gt;Node7 -->
<g id="edge64" class="edge">
<title>Node49&#45;&gt;Node7</title>
<path fill="none" stroke="midnightblue" d="M268,-168.08C268,-161.01 268,-150.86 268,-141.99"/>
<polygon fill="midnightblue" stroke="midnightblue" points="271.5,-141.75 268,-131.75 264.5,-141.75 271.5,-141.75"/>
</g>
<!-- Node49&#45;&gt;Node10 -->
<g id="edge63" class="edge">
<title>Node49&#45;&gt;Node10</title>
<path fill="none" stroke="midnightblue" d="M315.67,-168.46C431.25,-147.75 725.14,-95.1 837.44,-74.98"/>
<polygon fill="midnightblue" stroke="midnightblue" points="838.19,-78.4 847.42,-73.2 836.96,-71.51 838.19,-78.4"/>
</g>
</g>
</svg>
