<?xml version="1.0" encoding="UTF-8" standalone="no"?>
<!DOCTYPE svg PUBLIC "-//W3C//DTD SVG 1.1//EN"
 "http://www.w3.org/Graphics/SVG/1.1/DTD/svg11.dtd">
<!-- Generated by graphviz version 2.43.0 (0)
 -->
<!-- Title: Graphical Class Hierarchy Pages: 1 -->
<svg width="488pt" height="50pt"
 viewBox="0.00 0.00 488.00 50.00" xmlns="http://www.w3.org/2000/svg" xmlns:xlink="http://www.w3.org/1999/xlink">
<g id="graph0" class="graph" transform="scale(1 1) rotate(0) translate(4 46)">
<title>Graphical Class Hierarchy</title>
<!-- Node0 -->
<g id="node1" class="node">
<title>Node0</title>
<g id="a_node1"><a xlink:href="classloop__analysist.html" target="_top" xlink:title=" ">
<polygon fill="none" stroke="black" points="0,-6 0,-36 149,-36 149,-6 0,-6"/>
<text text-anchor="start" x="8" y="-24" font-family="Helvetica,sans-Serif" font-size="10.00">loop_analysist&lt; goto</text>
<text text-anchor="middle" x="74.5" y="-13" font-family="Helvetica,sans-Serif" font-size="10.00">_programt::const_targett &gt;</text>
</a>
</g>
</g>
<!-- Node1 -->
<g id="node2" class="node">
<title>Node1</title>
<g id="a_node2"><a xlink:href="classnatural__loops__templatet.html" target="_top" xlink:title=" ">
<polygon fill="none" stroke="black" points="185,-0.5 185,-41.5 358,-41.5 358,-0.5 185,-0.5"/>
<text text-anchor="start" x="193" y="-29.5" font-family="Helvetica,sans-Serif" font-size="10.00">natural_loops_templatet</text>
<text text-anchor="start" x="193" y="-18.5" font-family="Helvetica,sans-Serif" font-size="10.00">&lt; const goto_programt,</text>
<text text-anchor="middle" x="271.5" y="-7.5" font-family="Helvetica,sans-Serif" font-size="10.00"> goto_programt::const_targett &gt;</text>
</a>
</g>
</g>
<!-- Node0&#45;&gt;Node1 -->
<g id="edge1" class="edge">
<title>Node0&#45;&gt;Node1</title>
<path fill="none" stroke="midnightblue" d="M159.43,-21C167.86,-21 176.44,-21 184.89,-21"/>
<polygon fill="midnightblue" stroke="midnightblue" points="159.22,-17.5 149.22,-21 159.22,-24.5 159.22,-17.5"/>
</g>
<!-- Node2 -->
<g id="node3" class="node">
<title>Node2</title>
<g id="a_node3"><a xlink:href="classnatural__loopst.html" target="_top" xlink:title="A concretized version of natural_loops_templatet&lt;const goto_programt, goto_programt::const_targett&gt;">
<polygon fill="none" stroke="black" points="394,-11.5 394,-30.5 480,-30.5 480,-11.5 394,-11.5"/>
<text text-anchor="middle" x="437" y="-18.5" font-family="Helvetica,sans-Serif" font-size="10.00">natural_loopst</text>
</a>
</g>
</g>
<!-- Node1&#45;&gt;Node2 -->
<g id="edge2" class="edge">
<title>Node1&#45;&gt;Node2</title>
<path fill="none" stroke="midnightblue" d="M368.17,-21C377.05,-21 385.69,-21 393.68,-21"/>
<polygon fill="midnightblue" stroke="midnightblue" points="368.08,-17.5 358.08,-21 368.08,-24.5 368.08,-17.5"/>
</g>
</g>
</svg>
