<?xml version="1.0" encoding="UTF-8" standalone="no"?>
<!DOCTYPE svg PUBLIC "-//W3C//DTD SVG 1.1//EN"
 "http://www.w3.org/Graphics/SVG/1.1/DTD/svg11.dtd">
<!-- Generated by graphviz version 2.43.0 (0)
 -->
<!-- Title: /home/runner/work/cbmc/cbmc/src/util/interval_union.cpp Pages: 1 -->
<svg width="1535pt" height="554pt"
 viewBox="0.00 0.00 1535.00 554.00" xmlns="http://www.w3.org/2000/svg" xmlns:xlink="http://www.w3.org/1999/xlink">
<g id="graph0" class="graph" transform="scale(1 1) rotate(0) translate(4 550)">
<title>/home/runner/work/cbmc/cbmc/src/util/interval_union.cpp</title>
<!-- Node1 -->
<g id="node1" class="node">
<title>Node1</title>
<g id="a_node1"><a xlink:title=" ">
<polygon fill="#bfbfbf" stroke="black" points="901,-504.5 901,-545.5 1039,-545.5 1039,-504.5 901,-504.5"/>
<text text-anchor="start" x="909" y="-533.5" font-family="Helvetica,sans-Serif" font-size="10.00">/home/runner/work/cbmc</text>
<text text-anchor="start" x="909" y="-522.5" font-family="Helvetica,sans-Serif" font-size="10.00">/cbmc/src/util/interval</text>
<text text-anchor="middle" x="970" y="-511.5" font-family="Helvetica,sans-Serif" font-size="10.00">_union.cpp</text>
</a>
</g>
</g>
<!-- Node2 -->
<g id="node2" class="node">
<title>Node2</title>
<g id="a_node2"><a xlink:href="interval__union_8h.html" target="_top" xlink:title=" ">
<polygon fill="none" stroke="black" points="307.5,-392.5 307.5,-411.5 402.5,-411.5 402.5,-392.5 307.5,-392.5"/>
<text text-anchor="middle" x="355" y="-399.5" font-family="Helvetica,sans-Serif" font-size="10.00">interval_union.h</text>
</a>
</g>
</g>
<!-- Node1&#45;&gt;Node2 -->
<g id="edge1" class="edge">
<title>Node1&#45;&gt;Node2</title>
<path fill="none" stroke="midnightblue" d="M900.94,-510.41C777.1,-486.05 519.78,-435.42 408.35,-413.5"/>
<polygon fill="midnightblue" stroke="midnightblue" points="408.84,-410.03 398.35,-411.53 407.49,-416.89 408.84,-410.03"/>
</g>
<!-- Node15 -->
<g id="node15" class="node">
<title>Node15</title>
<g id="a_node15"><a xlink:href="arith__tools_8h.html" target="_top" xlink:title=" ">
<polygon fill="none" stroke="black" points="846.5,-448.5 846.5,-467.5 923.5,-467.5 923.5,-448.5 846.5,-448.5"/>
<text text-anchor="middle" x="885" y="-455.5" font-family="Helvetica,sans-Serif" font-size="10.00">arith_tools.h</text>
</a>
</g>
</g>
<!-- Node1&#45;&gt;Node15 -->
<g id="edge16" class="edge">
<title>Node1&#45;&gt;Node15</title>
<path fill="none" stroke="midnightblue" d="M944.5,-504.5C931.59,-494.63 916.18,-482.84 904.28,-473.74"/>
<polygon fill="midnightblue" stroke="midnightblue" points="906.38,-470.95 896.31,-467.65 902.13,-476.51 906.38,-470.95"/>
</g>
<!-- Node16 -->
<g id="node16" class="node">
<title>Node16</title>
<g id="a_node16"><a xlink:href="src_2util_2invariant_8h.html" target="_top" xlink:title=" ">
<polygon fill="none" stroke="black" points="1189.5,-224.5 1189.5,-243.5 1258.5,-243.5 1258.5,-224.5 1189.5,-224.5"/>
<text text-anchor="middle" x="1224" y="-231.5" font-family="Helvetica,sans-Serif" font-size="10.00">invariant.h</text>
</a>
</g>
</g>
<!-- Node1&#45;&gt;Node16 -->
<g id="edge65" class="edge">
<title>Node1&#45;&gt;Node16</title>
<path fill="none" stroke="midnightblue" d="M1039.2,-524.17C1125.55,-520.31 1262,-499.03 1262,-403 1262,-403 1262,-403 1262,-345 1262,-310.81 1245.4,-273.76 1234.14,-252.57"/>
<polygon fill="midnightblue" stroke="midnightblue" points="1237.18,-250.83 1229.28,-243.77 1231.05,-254.22 1237.18,-250.83"/>
</g>
<!-- Node20 -->
<g id="node20" class="node">
<title>Node20</title>
<g id="a_node20"><a xlink:href="std__expr_8h.html" target="_top" xlink:title=" ">
<polygon fill="none" stroke="black" points="936.5,-392.5 936.5,-411.5 1003.5,-411.5 1003.5,-392.5 936.5,-392.5"/>
<text text-anchor="middle" x="970" y="-399.5" font-family="Helvetica,sans-Serif" font-size="10.00">std_expr.h</text>
</a>
</g>
</g>
<!-- Node1&#45;&gt;Node20 -->
<g id="edge66" class="edge">
<title>Node1&#45;&gt;Node20</title>
<path fill="none" stroke="midnightblue" d="M970,-504.29C970,-481.48 970,-444.19 970,-421.78"/>
<polygon fill="midnightblue" stroke="midnightblue" points="973.5,-421.57 970,-411.57 966.5,-421.57 973.5,-421.57"/>
</g>
<!-- Node50 -->
<g id="node35" class="node">
<title>Node50</title>
<g id="a_node35"><a xlink:href="range_8h.html" target="_top" xlink:title=" ">
<polygon fill="none" stroke="black" points="1290.5,-280.5 1290.5,-299.5 1343.5,-299.5 1343.5,-280.5 1290.5,-280.5"/>
<text text-anchor="middle" x="1317" y="-287.5" font-family="Helvetica,sans-Serif" font-size="10.00">range.h</text>
</a>
</g>
</g>
<!-- Node1&#45;&gt;Node50 -->
<g id="edge54" class="edge">
<title>Node1&#45;&gt;Node50</title>
<path fill="none" stroke="midnightblue" d="M1039.15,-520.02C1118.75,-513.99 1242.79,-499.7 1276,-468 1320.27,-425.75 1320.99,-345.88 1318.74,-309.68"/>
<polygon fill="midnightblue" stroke="midnightblue" points="1322.22,-309.26 1317.96,-299.56 1315.24,-309.8 1322.22,-309.26"/>
</g>
<!-- Node53 -->
<g id="node38" class="node">
<title>Node53</title>
<g id="a_node38"><a xlink:href="string__utils_8h.html" target="_top" xlink:title=" ">
<polygon fill="none" stroke="black" points="24,-392.5 24,-411.5 104,-411.5 104,-392.5 24,-392.5"/>
<text text-anchor="middle" x="64" y="-399.5" font-family="Helvetica,sans-Serif" font-size="10.00">string_utils.h</text>
</a>
</g>
</g>
<!-- Node1&#45;&gt;Node53 -->
<g id="edge60" class="edge">
<title>Node1&#45;&gt;Node53</title>
<path fill="none" stroke="midnightblue" d="M900.79,-514.76C725.49,-491.35 267.15,-430.13 114.37,-409.73"/>
<polygon fill="midnightblue" stroke="midnightblue" points="114.71,-406.24 104.33,-408.39 113.78,-413.18 114.71,-406.24"/>
</g>
<!-- Node54 -->
<g id="node39" class="node">
<title>Node54</title>
<g id="a_node39"><a xlink:title=" ">
<polygon fill="none" stroke="#bfbfbf" points="1328,-448.5 1328,-467.5 1372,-467.5 1372,-448.5 1328,-448.5"/>
<text text-anchor="middle" x="1350" y="-455.5" font-family="Helvetica,sans-Serif" font-size="10.00">regex</text>
</a>
</g>
</g>
<!-- Node1&#45;&gt;Node54 -->
<g id="edge64" class="edge">
<title>Node1&#45;&gt;Node54</title>
<path fill="none" stroke="midnightblue" d="M1039.17,-514.48C1108.85,-504.47 1219.33,-487.5 1314,-468 1315.28,-467.74 1316.58,-467.46 1317.89,-467.17"/>
<polygon fill="midnightblue" stroke="midnightblue" points="1319.04,-470.5 1327.98,-464.81 1317.45,-463.68 1319.04,-470.5"/>
</g>
<!-- Node3 -->
<g id="node3" class="node">
<title>Node3</title>
<g id="a_node3"><a xlink:href="interval__template_8h.html" target="_top" xlink:title=" ">
<polygon fill="none" stroke="black" points="242.5,-336.5 242.5,-355.5 373.5,-355.5 373.5,-336.5 242.5,-336.5"/>
<text text-anchor="middle" x="308" y="-343.5" font-family="Helvetica,sans-Serif" font-size="10.00">util/interval_template.h</text>
</a>
</g>
</g>
<!-- Node2&#45;&gt;Node3 -->
<g id="edge2" class="edge">
<title>Node2&#45;&gt;Node3</title>
<path fill="none" stroke="midnightblue" d="M347.24,-392.08C340.46,-384.3 330.46,-372.8 322.24,-363.37"/>
<polygon fill="midnightblue" stroke="midnightblue" points="324.82,-361 315.62,-355.75 319.54,-365.59 324.82,-361"/>
</g>
<!-- Node8 -->
<g id="node8" class="node">
<title>Node8</title>
<g id="a_node8"><a xlink:href="mp__arith_8h.html" target="_top" xlink:title=" ">
<polygon fill="none" stroke="black" points="521,-280.5 521,-299.5 609,-299.5 609,-280.5 521,-280.5"/>
<text text-anchor="middle" x="565" y="-287.5" font-family="Helvetica,sans-Serif" font-size="10.00">util/mp_arith.h</text>
</a>
</g>
</g>
<!-- Node2&#45;&gt;Node8 -->
<g id="edge8" class="edge">
<title>Node2&#45;&gt;Node8</title>
<path fill="none" stroke="midnightblue" d="M371.48,-392.37C407.97,-373.25 495.84,-327.23 539.49,-304.36"/>
<polygon fill="midnightblue" stroke="midnightblue" points="541.36,-307.33 548.6,-299.59 538.12,-301.13 541.36,-307.33"/>
</g>
<!-- Node11 -->
<g id="node11" class="node">
<title>Node11</title>
<g id="a_node11"><a xlink:href="nodiscard_8h.html" target="_top" xlink:title=" ">
<polygon fill="none" stroke="black" points="132,-336.5 132,-355.5 224,-355.5 224,-336.5 132,-336.5"/>
<text text-anchor="middle" x="178" y="-343.5" font-family="Helvetica,sans-Serif" font-size="10.00">util/nodiscard.h</text>
</a>
</g>
</g>
<!-- Node2&#45;&gt;Node11 -->
<g id="edge12" class="edge">
<title>Node2&#45;&gt;Node11</title>
<path fill="none" stroke="midnightblue" d="M326.95,-392.44C296.92,-383.28 249.09,-368.69 215.76,-358.52"/>
<polygon fill="midnightblue" stroke="midnightblue" points="216.5,-355.09 205.91,-355.52 214.46,-361.78 216.5,-355.09"/>
</g>
<!-- Node12 -->
<g id="node12" class="node">
<title>Node12</title>
<g id="a_node12"><a xlink:href="optional_8h.html" target="_top" xlink:title=" ">
<polygon fill="none" stroke="black" points="398,-56.5 398,-75.5 482,-75.5 482,-56.5 398,-56.5"/>
<text text-anchor="middle" x="440" y="-63.5" font-family="Helvetica,sans-Serif" font-size="10.00">util/optional.h</text>
</a>
</g>
</g>
<!-- Node2&#45;&gt;Node12 -->
<g id="edge13" class="edge">
<title>Node2&#45;&gt;Node12</title>
<path fill="none" stroke="midnightblue" d="M361.54,-392.41C374.45,-374.56 402,-331.7 402,-291 402,-291 402,-291 402,-177 402,-142.81 418.6,-105.76 429.86,-84.57"/>
<polygon fill="midnightblue" stroke="midnightblue" points="432.95,-86.22 434.72,-75.77 426.82,-82.83 432.95,-86.22"/>
</g>
<!-- Node14 -->
<g id="node14" class="node">
<title>Node14</title>
<g id="a_node14"><a xlink:title=" ">
<polygon fill="none" stroke="#bfbfbf" points="66.5,-336.5 66.5,-355.5 113.5,-355.5 113.5,-336.5 66.5,-336.5"/>
<text text-anchor="middle" x="90" y="-343.5" font-family="Helvetica,sans-Serif" font-size="10.00">vector</text>
</a>
</g>
</g>
<!-- Node2&#45;&gt;Node14 -->
<g id="edge15" class="edge">
<title>Node2&#45;&gt;Node14</title>
<path fill="none" stroke="midnightblue" d="M307.24,-392.81C262.29,-384.86 192.91,-371.98 123.53,-355.98"/>
<polygon fill="midnightblue" stroke="midnightblue" points="124.27,-352.56 113.74,-353.7 122.69,-359.38 124.27,-352.56"/>
</g>
<!-- Node4 -->
<g id="node4" class="node">
<title>Node4</title>
<g id="a_node4"><a xlink:title=" ">
<polygon fill="none" stroke="#bfbfbf" points="226,-280.5 226,-299.5 290,-299.5 290,-280.5 226,-280.5"/>
<text text-anchor="middle" x="258" y="-287.5" font-family="Helvetica,sans-Serif" font-size="10.00">algorithm</text>
</a>
</g>
</g>
<!-- Node3&#45;&gt;Node4 -->
<g id="edge3" class="edge">
<title>Node3&#45;&gt;Node4</title>
<path fill="none" stroke="midnightblue" d="M299.74,-336.08C292.54,-328.3 281.89,-316.8 273.15,-307.37"/>
<polygon fill="midnightblue" stroke="midnightblue" points="275.47,-304.71 266.1,-299.75 270.33,-309.47 275.47,-304.71"/>
</g>
<!-- Node5 -->
<g id="node5" class="node">
<title>Node5</title>
<g id="a_node5"><a xlink:title=" ">
<polygon fill="none" stroke="#bfbfbf" points="207,-224.5 207,-243.5 255,-243.5 255,-224.5 207,-224.5"/>
<text text-anchor="middle" x="231" y="-231.5" font-family="Helvetica,sans-Serif" font-size="10.00">iosfwd</text>
</a>
</g>
</g>
<!-- Node3&#45;&gt;Node5 -->
<g id="edge4" class="edge">
<title>Node3&#45;&gt;Node5</title>
<path fill="none" stroke="midnightblue" d="M247.54,-336.43C205.6,-329.1 155.02,-317.02 142,-300 122.98,-275.14 164.61,-255.51 197.14,-244.58"/>
<polygon fill="midnightblue" stroke="midnightblue" points="198.41,-247.85 206.87,-241.47 196.28,-241.18 198.41,-247.85"/>
</g>
<!-- Node6 -->
<g id="node6" class="node">
<title>Node6</title>
<g id="a_node6"><a xlink:title=" ">
<polygon fill="none" stroke="#bfbfbf" points="150.5,-280.5 150.5,-299.5 207.5,-299.5 207.5,-280.5 150.5,-280.5"/>
<text text-anchor="middle" x="179" y="-287.5" font-family="Helvetica,sans-Serif" font-size="10.00">ostream</text>
</a>
</g>
</g>
<!-- Node3&#45;&gt;Node6 -->
<g id="edge5" class="edge">
<title>Node3&#45;&gt;Node6</title>
<path fill="none" stroke="midnightblue" d="M287.56,-336.44C266.33,-327.56 232.9,-313.56 208.75,-303.45"/>
<polygon fill="midnightblue" stroke="midnightblue" points="209.92,-300.15 199.34,-299.52 207.22,-306.61 209.92,-300.15"/>
</g>
<!-- Node7 -->
<g id="node7" class="node">
<title>Node7</title>
<g id="a_node7"><a xlink:href="threeval_8h.html" target="_top" xlink:title=" ">
<polygon fill="none" stroke="black" points="308,-280.5 308,-299.5 374,-299.5 374,-280.5 308,-280.5"/>
<text text-anchor="middle" x="341" y="-287.5" font-family="Helvetica,sans-Serif" font-size="10.00">threeval.h</text>
</a>
</g>
</g>
<!-- Node3&#45;&gt;Node7 -->
<g id="edge6" class="edge">
<title>Node3&#45;&gt;Node7</title>
<path fill="none" stroke="midnightblue" d="M313.45,-336.08C318.01,-328.61 324.67,-317.72 330.29,-308.52"/>
<polygon fill="midnightblue" stroke="midnightblue" points="333.42,-310.11 335.65,-299.75 327.45,-306.46 333.42,-310.11"/>
</g>
<!-- Node7&#45;&gt;Node5 -->
<g id="edge7" class="edge">
<title>Node7&#45;&gt;Node5</title>
<path fill="none" stroke="midnightblue" d="M323.33,-280.32C305.61,-271.62 278.1,-258.12 257.71,-248.11"/>
<polygon fill="midnightblue" stroke="midnightblue" points="259.15,-244.92 248.63,-243.65 256.06,-251.2 259.15,-244.92"/>
</g>
<!-- Node8&#45;&gt;Node5 -->
<g id="edge9" class="edge">
<title>Node8&#45;&gt;Node5</title>
<path fill="none" stroke="midnightblue" d="M520.99,-281.88C453.51,-270.97 325.9,-250.34 265,-240.5"/>
<polygon fill="midnightblue" stroke="midnightblue" points="265.56,-237.04 255.13,-238.9 264.44,-243.95 265.56,-237.04"/>
</g>
<!-- Node9 -->
<g id="node9" class="node">
<title>Node9</title>
<g id="a_node9"><a xlink:title=" ">
<polygon fill="none" stroke="#bfbfbf" points="538,-56.5 538,-75.5 582,-75.5 582,-56.5 538,-56.5"/>
<text text-anchor="middle" x="560" y="-63.5" font-family="Helvetica,sans-Serif" font-size="10.00">string</text>
</a>
</g>
</g>
<!-- Node8&#45;&gt;Node9 -->
<g id="edge10" class="edge">
<title>Node8&#45;&gt;Node9</title>
<path fill="none" stroke="midnightblue" d="M568.32,-280.19C571.51,-271.23 576.12,-256.87 578,-244 586.48,-185.95 590.64,-169.5 579,-112 577.11,-102.65 573.21,-92.83 569.43,-84.75"/>
<polygon fill="midnightblue" stroke="midnightblue" points="572.47,-83.01 564.88,-75.63 566.21,-86.14 572.47,-83.01"/>
</g>
<!-- Node10 -->
<g id="node10" class="node">
<title>Node10</title>
<g id="a_node10"><a xlink:title=" ">
<polygon fill="none" stroke="#bfbfbf" points="475,-224.5 475,-243.5 569,-243.5 569,-224.5 475,-224.5"/>
<text text-anchor="middle" x="522" y="-231.5" font-family="Helvetica,sans-Serif" font-size="10.00">big&#45;int/bigint.hh</text>
</a>
</g>
</g>
<!-- Node8&#45;&gt;Node10 -->
<g id="edge11" class="edge">
<title>Node8&#45;&gt;Node10</title>
<path fill="none" stroke="midnightblue" d="M557.9,-280.08C551.76,-272.38 542.73,-261.03 535.26,-251.65"/>
<polygon fill="midnightblue" stroke="midnightblue" points="537.94,-249.39 528.97,-243.75 532.46,-253.75 537.94,-249.39"/>
</g>
<!-- Node13 -->
<g id="node13" class="node">
<title>Node13</title>
<g id="a_node13"><a xlink:title=" ">
<polygon fill="none" stroke="#bfbfbf" points="383.5,-0.5 383.5,-19.5 496.5,-19.5 496.5,-0.5 383.5,-0.5"/>
<text text-anchor="middle" x="440" y="-7.5" font-family="Helvetica,sans-Serif" font-size="10.00">nonstd/optional.hpp</text>
</a>
</g>
</g>
<!-- Node12&#45;&gt;Node13 -->
<g id="edge14" class="edge">
<title>Node12&#45;&gt;Node13</title>
<path fill="none" stroke="midnightblue" d="M440,-56.08C440,-49.01 440,-38.86 440,-29.99"/>
<polygon fill="midnightblue" stroke="midnightblue" points="443.5,-29.75 440,-19.75 436.5,-29.75 443.5,-29.75"/>
</g>
<!-- Node15&#45;&gt;Node8 -->
<g id="edge22" class="edge">
<title>Node15&#45;&gt;Node8</title>
<path fill="none" stroke="midnightblue" d="M883.53,-448.12C880.78,-434.23 873.57,-407.39 857,-392 790.13,-329.89 683.16,-305.72 618.93,-296.5"/>
<polygon fill="midnightblue" stroke="midnightblue" points="619.38,-293.03 609,-295.15 618.44,-299.97 619.38,-293.03"/>
</g>
<!-- Node15&#45;&gt;Node12 -->
<g id="edge23" class="edge">
<title>Node15&#45;&gt;Node12</title>
<path fill="none" stroke="midnightblue" d="M850.27,-448.46C780.76,-430.13 621.83,-381.9 512,-300 486.18,-280.75 479.04,-273.45 466,-244 442.16,-190.14 439.37,-118.95 439.53,-85.66"/>
<polygon fill="midnightblue" stroke="midnightblue" points="443.03,-85.6 439.68,-75.55 436.03,-85.5 443.03,-85.6"/>
</g>
<!-- Node15&#45;&gt;Node16 -->
<g id="edge17" class="edge">
<title>Node15&#45;&gt;Node16</title>
<path fill="none" stroke="midnightblue" d="M915.55,-448.47C942,-440.56 980.94,-427.68 1013,-412 1094.61,-372.08 1120.94,-365.4 1184,-300 1197.47,-286.03 1208.62,-266.77 1215.69,-252.85"/>
<polygon fill="midnightblue" stroke="midnightblue" points="1218.87,-254.33 1220.1,-243.8 1212.58,-251.26 1218.87,-254.33"/>
</g>
<!-- Node15&#45;&gt;Node20 -->
<g id="edge24" class="edge">
<title>Node15&#45;&gt;Node20</title>
<path fill="none" stroke="midnightblue" d="M898.66,-448.32C911.92,-439.9 932.27,-426.97 947.85,-417.07"/>
<polygon fill="midnightblue" stroke="midnightblue" points="949.81,-419.97 956.38,-411.65 946.06,-414.06 949.81,-419.97"/>
</g>
<!-- Node49 -->
<g id="node34" class="node">
<title>Node49</title>
<g id="a_node34"><a xlink:title=" ">
<polygon fill="none" stroke="#bfbfbf" points="804,-392.5 804,-411.5 848,-411.5 848,-392.5 804,-392.5"/>
<text text-anchor="middle" x="826" y="-399.5" font-family="Helvetica,sans-Serif" font-size="10.00">limits</text>
</a>
</g>
</g>
<!-- Node15&#45;&gt;Node49 -->
<g id="edge53" class="edge">
<title>Node15&#45;&gt;Node49</title>
<path fill="none" stroke="midnightblue" d="M875.52,-448.32C866.8,-440.34 853.66,-428.31 843.1,-418.65"/>
<polygon fill="midnightblue" stroke="midnightblue" points="845.39,-416 835.65,-411.83 840.67,-421.17 845.39,-416"/>
</g>
<!-- Node16&#45;&gt;Node9 -->
<g id="edge20" class="edge">
<title>Node16&#45;&gt;Node9</title>
<path fill="none" stroke="midnightblue" d="M1212.42,-224.5C1193.04,-210.65 1152.34,-183.24 1114,-168 925.83,-93.21 679.52,-73.33 592.31,-68.46"/>
<polygon fill="midnightblue" stroke="midnightblue" points="592.41,-64.96 582.24,-67.93 592.04,-71.95 592.41,-64.96"/>
</g>
<!-- Node17 -->
<g id="node17" class="node">
<title>Node17</title>
<g id="a_node17"><a xlink:title=" ">
<polygon fill="none" stroke="#bfbfbf" points="1199.5,-168.5 1199.5,-187.5 1248.5,-187.5 1248.5,-168.5 1199.5,-168.5"/>
<text text-anchor="middle" x="1224" y="-175.5" font-family="Helvetica,sans-Serif" font-size="10.00">cstdlib</text>
</a>
</g>
</g>
<!-- Node16&#45;&gt;Node17 -->
<g id="edge18" class="edge">
<title>Node16&#45;&gt;Node17</title>
<path fill="none" stroke="midnightblue" d="M1224,-224.08C1224,-217.01 1224,-206.86 1224,-197.99"/>
<polygon fill="midnightblue" stroke="midnightblue" points="1227.5,-197.75 1224,-187.75 1220.5,-197.75 1227.5,-197.75"/>
</g>
<!-- Node18 -->
<g id="node18" class="node">
<title>Node18</title>
<g id="a_node18"><a xlink:title=" ">
<polygon fill="none" stroke="#bfbfbf" points="1305,-168.5 1305,-187.5 1361,-187.5 1361,-168.5 1305,-168.5"/>
<text text-anchor="middle" x="1333" y="-175.5" font-family="Helvetica,sans-Serif" font-size="10.00">sstream</text>
</a>
</g>
</g>
<!-- Node16&#45;&gt;Node18 -->
<g id="edge19" class="edge">
<title>Node16&#45;&gt;Node18</title>
<path fill="none" stroke="midnightblue" d="M1241.51,-224.32C1259.07,-215.62 1286.33,-202.12 1306.53,-192.11"/>
<polygon fill="midnightblue" stroke="midnightblue" points="1308.12,-195.23 1315.53,-187.65 1305.02,-188.96 1308.12,-195.23"/>
</g>
<!-- Node19 -->
<g id="node19" class="node">
<title>Node19</title>
<g id="a_node19"><a xlink:title=" ">
<polygon fill="none" stroke="#bfbfbf" points="1211.5,-56.5 1211.5,-75.5 1280.5,-75.5 1280.5,-56.5 1211.5,-56.5"/>
<text text-anchor="middle" x="1246" y="-63.5" font-family="Helvetica,sans-Serif" font-size="10.00">type_traits</text>
</a>
</g>
</g>
<!-- Node16&#45;&gt;Node19 -->
<g id="edge21" class="edge">
<title>Node16&#45;&gt;Node19</title>
<path fill="none" stroke="midnightblue" d="M1233.29,-224.39C1241.58,-216.02 1253.14,-202.48 1258,-188 1269.7,-153.11 1259.9,-109.64 1252.46,-85.44"/>
<polygon fill="midnightblue" stroke="midnightblue" points="1255.73,-84.2 1249.29,-75.78 1249.08,-86.38 1255.73,-84.2"/>
</g>
<!-- Node20&#45;&gt;Node16 -->
<g id="edge45" class="edge">
<title>Node20&#45;&gt;Node16</title>
<path fill="none" stroke="midnightblue" d="M990.46,-392.47C1026.42,-376.97 1102.52,-341.88 1159,-300 1178.32,-285.67 1197.42,-265.69 1209.86,-251.67"/>
<polygon fill="midnightblue" stroke="midnightblue" points="1212.77,-253.66 1216.69,-243.82 1207.49,-249.06 1212.77,-253.66"/>
</g>
<!-- Node21 -->
<g id="node21" class="node">
<title>Node21</title>
<g id="a_node21"><a xlink:href="expr__cast_8h.html" target="_top" xlink:title="Templated functions to cast to specific exprt&#45;derived classes.">
<polygon fill="none" stroke="black" points="858.5,-280.5 858.5,-299.5 931.5,-299.5 931.5,-280.5 858.5,-280.5"/>
<text text-anchor="middle" x="895" y="-287.5" font-family="Helvetica,sans-Serif" font-size="10.00">expr_cast.h</text>
</a>
</g>
</g>
<!-- Node20&#45;&gt;Node21 -->
<g id="edge25" class="edge">
<title>Node20&#45;&gt;Node21</title>
<path fill="none" stroke="midnightblue" d="M962.46,-392.31C954.92,-383.44 943.14,-369.14 934,-356 923.22,-340.5 912.28,-321.96 904.74,-308.66"/>
<polygon fill="midnightblue" stroke="midnightblue" points="907.63,-306.66 899.7,-299.64 901.52,-310.08 907.63,-306.66"/>
</g>
<!-- Node48 -->
<g id="node32" class="node">
<title>Node48</title>
<g id="a_node32"><a xlink:href="std__types_8h.html" target="_top" xlink:title=" ">
<polygon fill="none" stroke="black" points="942.5,-336.5 942.5,-355.5 1015.5,-355.5 1015.5,-336.5 942.5,-336.5"/>
<text text-anchor="middle" x="979" y="-343.5" font-family="Helvetica,sans-Serif" font-size="10.00">std_types.h</text>
</a>
</g>
</g>
<!-- Node20&#45;&gt;Node48 -->
<g id="edge46" class="edge">
<title>Node20&#45;&gt;Node48</title>
<path fill="none" stroke="midnightblue" d="M971.49,-392.08C972.68,-384.93 974.39,-374.64 975.88,-365.69"/>
<polygon fill="midnightblue" stroke="midnightblue" points="979.35,-366.19 977.54,-355.75 972.45,-365.04 979.35,-366.19"/>
</g>
<!-- Node21&#45;&gt;Node16 -->
<g id="edge29" class="edge">
<title>Node21&#45;&gt;Node16</title>
<path fill="none" stroke="midnightblue" d="M931.78,-282.96C992.58,-272.98 1113.83,-253.08 1179.41,-242.32"/>
<polygon fill="midnightblue" stroke="midnightblue" points="1180.14,-245.75 1189.44,-240.67 1179,-238.84 1180.14,-245.75"/>
</g>
<!-- Node21&#45;&gt;Node19 -->
<g id="edge27" class="edge">
<title>Node21&#45;&gt;Node19</title>
<path fill="none" stroke="midnightblue" d="M863.4,-280.39C803.93,-263.49 679.2,-224.43 655,-188 650.08,-180.6 650.57,-175.71 655,-168 679.6,-125.17 703.95,-127.04 751,-112 793.29,-98.48 1087.56,-77.61 1201.28,-69.95"/>
<polygon fill="midnightblue" stroke="midnightblue" points="1201.65,-73.43 1211.39,-69.27 1201.18,-66.45 1201.65,-73.43"/>
</g>
<!-- Node22 -->
<g id="node22" class="node">
<title>Node22</title>
<g id="a_node22"><a xlink:title=" ">
<polygon fill="none" stroke="#bfbfbf" points="625.5,-224.5 625.5,-243.5 682.5,-243.5 682.5,-224.5 625.5,-224.5"/>
<text text-anchor="middle" x="654" y="-231.5" font-family="Helvetica,sans-Serif" font-size="10.00">typeinfo</text>
</a>
</g>
</g>
<!-- Node21&#45;&gt;Node22 -->
<g id="edge26" class="edge">
<title>Node21&#45;&gt;Node22</title>
<path fill="none" stroke="midnightblue" d="M858.4,-280.8C813.59,-270.76 738.06,-253.84 692.44,-243.61"/>
<polygon fill="midnightblue" stroke="midnightblue" points="693.15,-240.19 682.63,-241.41 691.62,-247.02 693.15,-240.19"/>
</g>
<!-- Node23 -->
<g id="node23" class="node">
<title>Node23</title>
<g id="a_node23"><a xlink:title=" ">
<polygon fill="none" stroke="#bfbfbf" points="1039.5,-168.5 1039.5,-187.5 1104.5,-187.5 1104.5,-168.5 1039.5,-168.5"/>
<text text-anchor="middle" x="1072" y="-175.5" font-family="Helvetica,sans-Serif" font-size="10.00">functional</text>
</a>
</g>
</g>
<!-- Node21&#45;&gt;Node23 -->
<g id="edge28" class="edge">
<title>Node21&#45;&gt;Node23</title>
<path fill="none" stroke="midnightblue" d="M907.51,-280.31C925.97,-267.57 961.7,-243.26 993,-224 1010.81,-213.04 1031.35,-201.37 1047.02,-192.66"/>
<polygon fill="midnightblue" stroke="midnightblue" points="1049.02,-195.55 1056.08,-187.65 1045.63,-189.43 1049.02,-195.55"/>
</g>
<!-- Node24 -->
<g id="node24" class="node">
<title>Node24</title>
<g id="a_node24"><a xlink:href="expr_8h.html" target="_top" xlink:title=" ">
<polygon fill="none" stroke="black" points="884.5,-224.5 884.5,-243.5 931.5,-243.5 931.5,-224.5 884.5,-224.5"/>
<text text-anchor="middle" x="908" y="-231.5" font-family="Helvetica,sans-Serif" font-size="10.00">expr.h</text>
</a>
</g>
</g>
<!-- Node21&#45;&gt;Node24 -->
<g id="edge30" class="edge">
<title>Node21&#45;&gt;Node24</title>
<path fill="none" stroke="midnightblue" d="M897.15,-280.08C898.87,-272.93 901.35,-262.64 903.5,-253.69"/>
<polygon fill="midnightblue" stroke="midnightblue" points="906.96,-254.29 905.89,-243.75 900.15,-252.65 906.96,-254.29"/>
</g>
<!-- Node24&#45;&gt;Node23 -->
<g id="edge44" class="edge">
<title>Node24&#45;&gt;Node23</title>
<path fill="none" stroke="midnightblue" d="M931.85,-225.15C959.26,-216.12 1004.55,-201.21 1036.2,-190.79"/>
<polygon fill="midnightblue" stroke="midnightblue" points="1037.55,-194.03 1045.96,-187.58 1035.36,-187.38 1037.55,-194.03"/>
</g>
<!-- Node25 -->
<g id="node25" class="node">
<title>Node25</title>
<g id="a_node25"><a xlink:href="as__const_8h.html" target="_top" xlink:title=" ">
<polygon fill="none" stroke="black" points="729,-168.5 729,-187.5 797,-187.5 797,-168.5 729,-168.5"/>
<text text-anchor="middle" x="763" y="-175.5" font-family="Helvetica,sans-Serif" font-size="10.00">as_const.h</text>
</a>
</g>
</g>
<!-- Node24&#45;&gt;Node25 -->
<g id="edge31" class="edge">
<title>Node24&#45;&gt;Node25</title>
<path fill="none" stroke="midnightblue" d="M885.02,-224.44C860.84,-215.44 822.58,-201.19 795.35,-191.05"/>
<polygon fill="midnightblue" stroke="midnightblue" points="796.46,-187.73 785.87,-187.52 794.02,-194.29 796.46,-187.73"/>
</g>
<!-- Node26 -->
<g id="node26" class="node">
<title>Node26</title>
<g id="a_node26"><a xlink:href="type_8h.html" target="_top" xlink:title=" ">
<polygon fill="none" stroke="black" points="663.5,-168.5 663.5,-187.5 710.5,-187.5 710.5,-168.5 663.5,-168.5"/>
<text text-anchor="middle" x="687" y="-175.5" font-family="Helvetica,sans-Serif" font-size="10.00">type.h</text>
</a>
</g>
</g>
<!-- Node24&#45;&gt;Node26 -->
<g id="edge32" class="edge">
<title>Node24&#45;&gt;Node26</title>
<path fill="none" stroke="midnightblue" d="M884.49,-227.62C850.59,-219.81 785.75,-204.68 720.77,-188.14"/>
<polygon fill="midnightblue" stroke="midnightblue" points="721.32,-184.66 710.77,-185.58 719.59,-191.45 721.32,-184.66"/>
</g>
<!-- Node45 -->
<g id="node29" class="node">
<title>Node45</title>
<g id="a_node29"><a xlink:href="validation__mode_8h.html" target="_top" xlink:title=" ">
<polygon fill="none" stroke="black" points="957.5,-56.5 957.5,-75.5 1064.5,-75.5 1064.5,-56.5 957.5,-56.5"/>
<text text-anchor="middle" x="1011" y="-63.5" font-family="Helvetica,sans-Serif" font-size="10.00">validation_mode.h</text>
</a>
</g>
</g>
<!-- Node24&#45;&gt;Node45 -->
<g id="edge43" class="edge">
<title>Node24&#45;&gt;Node45</title>
<path fill="none" stroke="midnightblue" d="M931.5,-226.78C950.91,-220.37 977.54,-208.37 992,-188 1013.78,-157.33 1014.53,-111.26 1012.92,-85.73"/>
<polygon fill="midnightblue" stroke="midnightblue" points="1016.39,-85.25 1012.08,-75.57 1009.41,-85.83 1016.39,-85.25"/>
</g>
<!-- Node46 -->
<g id="node30" class="node">
<title>Node46</title>
<g id="a_node30"><a xlink:href="validate__types_8h.html" target="_top" xlink:title=" ">
<polygon fill="none" stroke="black" points="760,-112.5 760,-131.5 858,-131.5 858,-112.5 760,-112.5"/>
<text text-anchor="middle" x="809" y="-119.5" font-family="Helvetica,sans-Serif" font-size="10.00">validate_types.h</text>
</a>
</g>
</g>
<!-- Node24&#45;&gt;Node46 -->
<g id="edge42" class="edge">
<title>Node24&#45;&gt;Node46</title>
<path fill="none" stroke="midnightblue" d="M892.26,-224.46C878.52,-216.43 858.69,-203.35 845,-188 832.55,-174.04 822.65,-155.03 816.41,-141.18"/>
<polygon fill="midnightblue" stroke="midnightblue" points="819.53,-139.57 812.37,-131.76 813.1,-142.33 819.53,-139.57"/>
</g>
<!-- Node47 -->
<g id="node31" class="node">
<title>Node47</title>
<g id="a_node31"><a xlink:href="validate__expressions_8h.html" target="_top" xlink:title=" ">
<polygon fill="none" stroke="black" points="853.5,-168.5 853.5,-187.5 982.5,-187.5 982.5,-168.5 853.5,-168.5"/>
<text text-anchor="middle" x="918" y="-175.5" font-family="Helvetica,sans-Serif" font-size="10.00">validate_expressions.h</text>
</a>
</g>
</g>
<!-- Node24&#45;&gt;Node47 -->
<g id="edge41" class="edge">
<title>Node24&#45;&gt;Node47</title>
<path fill="none" stroke="midnightblue" d="M909.65,-224.08C910.98,-216.93 912.88,-206.64 914.54,-197.69"/>
<polygon fill="midnightblue" stroke="midnightblue" points="918,-198.22 916.38,-187.75 911.12,-196.95 918,-198.22"/>
</g>
<!-- Node27 -->
<g id="node27" class="node">
<title>Node27</title>
<g id="a_node27"><a xlink:href="source__location_8h.html" target="_top" xlink:title=" ">
<polygon fill="none" stroke="red" points="468,-112.5 468,-131.5 570,-131.5 570,-112.5 468,-112.5"/>
<text text-anchor="middle" x="519" y="-119.5" font-family="Helvetica,sans-Serif" font-size="10.00">source_location.h</text>
</a>
</g>
</g>
<!-- Node26&#45;&gt;Node27 -->
<g id="edge33" class="edge">
<title>Node26&#45;&gt;Node27</title>
<path fill="none" stroke="midnightblue" d="M663.29,-169.38C635.17,-160.34 588.01,-145.18 555.3,-134.67"/>
<polygon fill="midnightblue" stroke="midnightblue" points="556.23,-131.29 545.64,-131.56 554.09,-137.96 556.23,-131.29"/>
</g>
<!-- Node43 -->
<g id="node28" class="node">
<title>Node43</title>
<g id="a_node28"><a xlink:href="validate_8h.html" target="_top" xlink:title=" ">
<polygon fill="none" stroke="red" points="1183.5,-112.5 1183.5,-131.5 1248.5,-131.5 1248.5,-112.5 1183.5,-112.5"/>
<text text-anchor="middle" x="1216" y="-119.5" font-family="Helvetica,sans-Serif" font-size="10.00">validate.h</text>
</a>
</g>
</g>
<!-- Node26&#45;&gt;Node43 -->
<g id="edge36" class="edge">
<title>Node26&#45;&gt;Node43</title>
<path fill="none" stroke="midnightblue" d="M710.68,-170.01C713.8,-169.24 716.96,-168.55 720,-168 885.82,-138.11 1086.6,-127.65 1173.03,-124.36"/>
<polygon fill="midnightblue" stroke="midnightblue" points="1173.37,-127.85 1183.24,-123.98 1173.11,-120.85 1173.37,-127.85"/>
</g>
<!-- Node26&#45;&gt;Node45 -->
<g id="edge40" class="edge">
<title>Node26&#45;&gt;Node45</title>
<path fill="none" stroke="midnightblue" d="M692.88,-168.14C702.94,-153.78 724.9,-125.66 751,-112 812.48,-79.82 892.24,-69.96 947.12,-67.28"/>
<polygon fill="midnightblue" stroke="midnightblue" points="947.57,-70.77 957.41,-66.85 947.27,-63.77 947.57,-70.77"/>
</g>
<!-- Node26&#45;&gt;Node46 -->
<g id="edge39" class="edge">
<title>Node26&#45;&gt;Node46</title>
<path fill="none" stroke="midnightblue" d="M706.33,-168.44C726.32,-159.6 757.74,-145.69 780.56,-135.59"/>
<polygon fill="midnightblue" stroke="midnightblue" points="782.03,-138.76 789.76,-131.52 779.2,-132.36 782.03,-138.76"/>
</g>
<!-- Node27&#45;&gt;Node9 -->
<g id="edge35" class="edge">
<title>Node27&#45;&gt;Node9</title>
<path fill="none" stroke="midnightblue" d="M525.77,-112.08C531.56,-104.46 540.06,-93.26 547.14,-83.94"/>
<polygon fill="midnightblue" stroke="midnightblue" points="550.1,-85.83 553.36,-75.75 544.52,-81.6 550.1,-85.83"/>
</g>
<!-- Node27&#45;&gt;Node12 -->
<g id="edge34" class="edge">
<title>Node27&#45;&gt;Node12</title>
<path fill="none" stroke="midnightblue" d="M506.31,-112.32C494.1,-103.98 475.42,-91.21 461,-81.35"/>
<polygon fill="midnightblue" stroke="midnightblue" points="462.89,-78.41 452.66,-75.65 458.94,-84.19 462.89,-78.41"/>
</g>
<!-- Node43&#45;&gt;Node19 -->
<g id="edge37" class="edge">
<title>Node43&#45;&gt;Node19</title>
<path fill="none" stroke="midnightblue" d="M1220.95,-112.08C1225.1,-104.61 1231.15,-93.72 1236.27,-84.52"/>
<polygon fill="midnightblue" stroke="midnightblue" points="1239.34,-86.19 1241.14,-75.75 1233.22,-82.79 1239.34,-86.19"/>
</g>
<!-- Node43&#45;&gt;Node45 -->
<g id="edge38" class="edge">
<title>Node43&#45;&gt;Node45</title>
<path fill="none" stroke="midnightblue" d="M1183.52,-112.44C1148.28,-103.16 1091.9,-88.31 1053.24,-78.13"/>
<polygon fill="midnightblue" stroke="midnightblue" points="1053.89,-74.68 1043.33,-75.52 1052.11,-81.45 1053.89,-74.68"/>
</g>
<!-- Node48&#45;&gt;Node8 -->
<g id="edge50" class="edge">
<title>Node48&#45;&gt;Node8</title>
<path fill="none" stroke="midnightblue" d="M942.26,-340.21C869.05,-330.66 704.66,-309.22 619.09,-298.06"/>
<polygon fill="midnightblue" stroke="midnightblue" points="619.43,-294.57 609.06,-296.75 618.52,-301.51 619.43,-294.57"/>
</g>
<!-- Node48&#45;&gt;Node16 -->
<g id="edge49" class="edge">
<title>Node48&#45;&gt;Node16</title>
<path fill="none" stroke="midnightblue" d="M1015.62,-337.36C1046.73,-330.09 1092.08,-317.64 1129,-300 1157.67,-286.3 1187.37,-264.55 1205.76,-250.03"/>
<polygon fill="midnightblue" stroke="midnightblue" points="1208.22,-252.54 1213.83,-243.55 1203.84,-247.08 1208.22,-252.54"/>
</g>
<!-- Node48&#45;&gt;Node21 -->
<g id="edge48" class="edge">
<title>Node48&#45;&gt;Node21</title>
<path fill="none" stroke="midnightblue" d="M965.5,-336.32C952.4,-327.9 932.29,-314.97 916.89,-305.07"/>
<polygon fill="midnightblue" stroke="midnightblue" points="918.77,-302.12 908.46,-299.65 914.98,-308.01 918.77,-302.12"/>
</g>
<!-- Node48&#45;&gt;Node24 -->
<g id="edge47" class="edge">
<title>Node48&#45;&gt;Node24</title>
<path fill="none" stroke="midnightblue" d="M974.36,-336.42C967.45,-323.81 953.91,-299.67 941,-280 934.75,-270.48 927.29,-260.22 921.04,-251.91"/>
<polygon fill="midnightblue" stroke="midnightblue" points="923.69,-249.61 914.85,-243.77 918.12,-253.85 923.69,-249.61"/>
</g>
<!-- Node48&#45;&gt;Node43 -->
<g id="edge51" class="edge">
<title>Node48&#45;&gt;Node43</title>
<path fill="none" stroke="midnightblue" d="M982.93,-336.36C989.15,-323.26 1002.2,-298 1018,-280 1072.52,-217.89 1154.03,-162.17 1193.28,-137.07"/>
<polygon fill="midnightblue" stroke="midnightblue" points="1195.28,-139.94 1201.86,-131.64 1191.54,-134.02 1195.28,-139.94"/>
</g>
<!-- Node36 -->
<g id="node33" class="node">
<title>Node36</title>
<g id="a_node33"><a xlink:title=" ">
<polygon fill="none" stroke="#bfbfbf" points="1026.5,-280.5 1026.5,-299.5 1119.5,-299.5 1119.5,-280.5 1026.5,-280.5"/>
<text text-anchor="middle" x="1073" y="-287.5" font-family="Helvetica,sans-Serif" font-size="10.00">unordered_map</text>
</a>
</g>
</g>
<!-- Node48&#45;&gt;Node36 -->
<g id="edge52" class="edge">
<title>Node48&#45;&gt;Node36</title>
<path fill="none" stroke="midnightblue" d="M994.1,-336.32C1008.9,-327.82 1031.69,-314.73 1048.98,-304.8"/>
<polygon fill="midnightblue" stroke="midnightblue" points="1051.01,-307.67 1057.93,-299.65 1047.52,-301.6 1051.01,-307.67"/>
</g>
<!-- Node50&#45;&gt;Node16 -->
<g id="edge57" class="edge">
<title>Node50&#45;&gt;Node16</title>
<path fill="none" stroke="midnightblue" d="M1302.06,-280.32C1287.41,-271.82 1264.87,-258.73 1247.76,-248.8"/>
<polygon fill="midnightblue" stroke="midnightblue" points="1249.31,-245.65 1238.9,-243.65 1245.8,-251.7 1249.31,-245.65"/>
</g>
<!-- Node50&#45;&gt;Node19 -->
<g id="edge56" class="edge">
<title>Node50&#45;&gt;Node19</title>
<path fill="none" stroke="midnightblue" d="M1326.03,-280.41C1345.83,-260.48 1389.79,-209.63 1370,-168 1350.21,-126.36 1303.93,-96.25 1273.85,-80.23"/>
<polygon fill="midnightblue" stroke="midnightblue" points="1275.2,-76.99 1264.7,-75.52 1272,-83.21 1275.2,-76.99"/>
</g>
<!-- Node50&#45;&gt;Node23 -->
<g id="edge55" class="edge">
<title>Node50&#45;&gt;Node23</title>
<path fill="none" stroke="midnightblue" d="M1312.96,-280.29C1305.93,-266.13 1290.05,-238.3 1268,-224 1221.42,-193.79 1157.08,-183.75 1115.01,-180.48"/>
<polygon fill="midnightblue" stroke="midnightblue" points="1115.04,-176.97 1104.83,-179.78 1114.56,-183.95 1115.04,-176.97"/>
</g>
<!-- Node51 -->
<g id="node36" class="node">
<title>Node51</title>
<g id="a_node36"><a xlink:href="make__unique_8h.html" target="_top" xlink:title=" ">
<polygon fill="none" stroke="black" points="1417,-224.5 1417,-243.5 1527,-243.5 1527,-224.5 1417,-224.5"/>
<text text-anchor="middle" x="1472" y="-231.5" font-family="Helvetica,sans-Serif" font-size="10.00">util/make_unique.h</text>
</a>
</g>
</g>
<!-- Node50&#45;&gt;Node51 -->
<g id="edge58" class="edge">
<title>Node50&#45;&gt;Node51</title>
<path fill="none" stroke="midnightblue" d="M1341.56,-280.44C1367.52,-271.4 1408.67,-257.06 1437.8,-246.92"/>
<polygon fill="midnightblue" stroke="midnightblue" points="1439.26,-250.11 1447.55,-243.52 1436.96,-243.5 1439.26,-250.11"/>
</g>
<!-- Node52 -->
<g id="node37" class="node">
<title>Node52</title>
<g id="a_node37"><a xlink:title=" ">
<polygon fill="none" stroke="#bfbfbf" points="1443,-168.5 1443,-187.5 1501,-187.5 1501,-168.5 1443,-168.5"/>
<text text-anchor="middle" x="1472" y="-175.5" font-family="Helvetica,sans-Serif" font-size="10.00">memory</text>
</a>
</g>
</g>
<!-- Node51&#45;&gt;Node52 -->
<g id="edge59" class="edge">
<title>Node51&#45;&gt;Node52</title>
<path fill="none" stroke="midnightblue" d="M1472,-224.08C1472,-217.01 1472,-206.86 1472,-197.99"/>
<polygon fill="midnightblue" stroke="midnightblue" points="1475.5,-197.75 1472,-187.75 1468.5,-197.75 1475.5,-197.75"/>
</g>
<!-- Node53&#45;&gt;Node5 -->
<g id="edge61" class="edge">
<title>Node53&#45;&gt;Node5</title>
<path fill="none" stroke="midnightblue" d="M60.47,-392.47C55.69,-379.51 48.76,-354.44 58,-336 85,-282.15 154.67,-254.93 196.9,-242.96"/>
<polygon fill="midnightblue" stroke="midnightblue" points="198,-246.29 206.75,-240.3 196.18,-239.53 198,-246.29"/>
</g>
<!-- Node53&#45;&gt;Node9 -->
<g id="edge62" class="edge">
<title>Node53&#45;&gt;Node9</title>
<path fill="none" stroke="midnightblue" d="M54.56,-392.31C36.75,-374.93 0,-333.86 0,-291 0,-291 0,-291 0,-177 0,-149.92 408.52,-88.85 527.72,-71.61"/>
<polygon fill="midnightblue" stroke="midnightblue" points="528.3,-75.06 537.7,-70.17 527.3,-68.14 528.3,-75.06"/>
</g>
<!-- Node53&#45;&gt;Node14 -->
<g id="edge63" class="edge">
<title>Node53&#45;&gt;Node14</title>
<path fill="none" stroke="midnightblue" d="M68.29,-392.08C71.85,-384.69 77.02,-373.95 81.42,-364.81"/>
<polygon fill="midnightblue" stroke="midnightblue" points="84.6,-366.28 85.79,-355.75 78.29,-363.24 84.6,-366.28"/>
</g>
</g>
</svg>
