<?xml version="1.0" encoding="UTF-8" standalone="no"?>
<!DOCTYPE svg PUBLIC "-//W3C//DTD SVG 1.1//EN"
 "http://www.w3.org/Graphics/SVG/1.1/DTD/svg11.dtd">
<!-- Generated by graphviz version 2.43.0 (0)
 -->
<!-- Title: /home/runner/work/cbmc/cbmc/src/analyses/invariant_set_domain.cpp Pages: 1 -->
<svg width="1759pt" height="621pt"
 viewBox="0.00 0.00 1759.00 621.00" xmlns="http://www.w3.org/2000/svg" xmlns:xlink="http://www.w3.org/1999/xlink">
<g id="graph0" class="graph" transform="scale(1 1) rotate(0) translate(4 617)">
<title>/home/runner/work/cbmc/cbmc/src/analyses/invariant_set_domain.cpp</title>
<!-- Node1 -->
<g id="node1" class="node">
<title>Node1</title>
<g id="a_node1"><a xlink:title="Invariant Set Domain.">
<polygon fill="#bfbfbf" stroke="black" points="1226,-571.5 1226,-612.5 1382,-612.5 1382,-571.5 1226,-571.5"/>
<text text-anchor="start" x="1234" y="-600.5" font-family="Helvetica,sans-Serif" font-size="10.00">/home/runner/work/cbmc</text>
<text text-anchor="start" x="1234" y="-589.5" font-family="Helvetica,sans-Serif" font-size="10.00">/cbmc/src/analyses/invariant</text>
<text text-anchor="middle" x="1304" y="-578.5" font-family="Helvetica,sans-Serif" font-size="10.00">_set_domain.cpp</text>
</a>
</g>
</g>
<!-- Node2 -->
<g id="node2" class="node">
<title>Node2</title>
<g id="a_node2"><a xlink:href="invariant__set__domain_8h.html" target="_top" xlink:title="Value Set.">
<polygon fill="none" stroke="black" points="1238.5,-515.5 1238.5,-534.5 1369.5,-534.5 1369.5,-515.5 1238.5,-515.5"/>
<text text-anchor="middle" x="1304" y="-522.5" font-family="Helvetica,sans-Serif" font-size="10.00">invariant_set_domain.h</text>
</a>
</g>
</g>
<!-- Node1&#45;&gt;Node2 -->
<g id="edge1" class="edge">
<title>Node1&#45;&gt;Node2</title>
<path fill="none" stroke="midnightblue" d="M1304,-571.5C1304,-563.07 1304,-553.24 1304,-544.87"/>
<polygon fill="midnightblue" stroke="midnightblue" points="1307.5,-544.65 1304,-534.65 1300.5,-544.65 1307.5,-544.65"/>
</g>
<!-- Node61 -->
<g id="node46" class="node">
<title>Node61</title>
<g id="a_node46"><a xlink:href="expr__util_8h.html" target="_top" xlink:title="Deprecated expression utility functions.">
<polygon fill="none" stroke="black" points="1123.5,-280.5 1123.5,-299.5 1210.5,-299.5 1210.5,-280.5 1123.5,-280.5"/>
<text text-anchor="middle" x="1167" y="-287.5" font-family="Helvetica,sans-Serif" font-size="10.00">util/expr_util.h</text>
</a>
</g>
</g>
<!-- Node1&#45;&gt;Node61 -->
<g id="edge85" class="edge">
<title>Node1&#45;&gt;Node61</title>
<path fill="none" stroke="midnightblue" d="M1260.64,-571.31C1224.19,-551.45 1178,-517.01 1178,-470 1178,-470 1178,-470 1178,-412 1178,-375.75 1173.04,-333.63 1169.78,-309.87"/>
<polygon fill="midnightblue" stroke="midnightblue" points="1173.22,-309.19 1168.35,-299.78 1166.29,-310.17 1173.22,-309.19"/>
</g>
<!-- Node62 -->
<g id="node47" class="node">
<title>Node62</title>
<g id="a_node47"><a xlink:href="simplify__expr_8h.html" target="_top" xlink:title=" ">
<polygon fill="none" stroke="black" points="1388,-515.5 1388,-534.5 1498,-534.5 1498,-515.5 1388,-515.5"/>
<text text-anchor="middle" x="1443" y="-522.5" font-family="Helvetica,sans-Serif" font-size="10.00">util/simplify_expr.h</text>
</a>
</g>
</g>
<!-- Node1&#45;&gt;Node62 -->
<g id="edge88" class="edge">
<title>Node1&#45;&gt;Node62</title>
<path fill="none" stroke="midnightblue" d="M1345.7,-571.5C1368.25,-560.96 1395.46,-548.23 1415.36,-538.92"/>
<polygon fill="midnightblue" stroke="midnightblue" points="1416.92,-542.06 1424.5,-534.65 1413.96,-535.72 1416.92,-542.06"/>
</g>
<!-- Node3 -->
<g id="node3" class="node">
<title>Node3</title>
<g id="a_node3"><a xlink:href="threeval_8h.html" target="_top" xlink:title=" ">
<polygon fill="none" stroke="black" points="1599.5,-168.5 1599.5,-187.5 1684.5,-187.5 1684.5,-168.5 1599.5,-168.5"/>
<text text-anchor="middle" x="1642" y="-175.5" font-family="Helvetica,sans-Serif" font-size="10.00">util/threeval.h</text>
</a>
</g>
</g>
<!-- Node2&#45;&gt;Node3 -->
<g id="edge2" class="edge">
<title>Node2&#45;&gt;Node3</title>
<path fill="none" stroke="midnightblue" d="M1364.28,-515.44C1486.3,-497.28 1751,-453.36 1751,-414 1751,-414 1751,-414 1751,-289 1751,-243.12 1702.56,-209.53 1670.27,-192.23"/>
<polygon fill="midnightblue" stroke="midnightblue" points="1671.73,-189.04 1661.24,-187.58 1668.53,-195.27 1671.73,-189.04"/>
</g>
<!-- Node5 -->
<g id="node5" class="node">
<title>Node5</title>
<g id="a_node5"><a xlink:href="ai__domain_8h.html" target="_top" xlink:title="Abstract Interpretation Domain.">
<polygon fill="none" stroke="black" points="736.5,-459.5 736.5,-478.5 813.5,-478.5 813.5,-459.5 736.5,-459.5"/>
<text text-anchor="middle" x="775" y="-466.5" font-family="Helvetica,sans-Serif" font-size="10.00">ai_domain.h</text>
</a>
</g>
</g>
<!-- Node2&#45;&gt;Node5 -->
<g id="edge4" class="edge">
<title>Node2&#45;&gt;Node5</title>
<path fill="none" stroke="midnightblue" d="M1238.34,-517.3C1130.72,-506.31 919.25,-484.72 823.8,-474.98"/>
<polygon fill="midnightblue" stroke="midnightblue" points="823.87,-471.47 813.56,-473.94 823.15,-478.43 823.87,-471.47"/>
</g>
<!-- Node56 -->
<g id="node38" class="node">
<title>Node56</title>
<g id="a_node38"><a xlink:href="invariant__set_8h.html" target="_top" xlink:title="Value Set.">
<polygon fill="none" stroke="black" points="1289.5,-280.5 1289.5,-299.5 1378.5,-299.5 1378.5,-280.5 1289.5,-280.5"/>
<text text-anchor="middle" x="1334" y="-287.5" font-family="Helvetica,sans-Serif" font-size="10.00">invariant_set.h</text>
</a>
</g>
</g>
<!-- Node2&#45;&gt;Node56 -->
<g id="edge61" class="edge">
<title>Node2&#45;&gt;Node56</title>
<path fill="none" stroke="midnightblue" d="M1305.1,-515.43C1309.44,-481.75 1325.37,-357.99 1331.54,-310.1"/>
<polygon fill="midnightblue" stroke="midnightblue" points="1335.05,-310.26 1332.85,-299.9 1328.11,-309.37 1335.05,-310.26"/>
</g>
<!-- Node4 -->
<g id="node4" class="node">
<title>Node4</title>
<g id="a_node4"><a xlink:title=" ">
<polygon fill="none" stroke="#bfbfbf" points="972,-56.5 972,-75.5 1020,-75.5 1020,-56.5 972,-56.5"/>
<text text-anchor="middle" x="996" y="-63.5" font-family="Helvetica,sans-Serif" font-size="10.00">iosfwd</text>
</a>
</g>
</g>
<!-- Node3&#45;&gt;Node4 -->
<g id="edge3" class="edge">
<title>Node3&#45;&gt;Node4</title>
<path fill="none" stroke="midnightblue" d="M1632.61,-168.34C1616.12,-153.74 1580.26,-124.57 1544,-112 1448.3,-78.82 1134.7,-69.73 1030.21,-67.59"/>
<polygon fill="midnightblue" stroke="midnightblue" points="1030.27,-64.09 1020.21,-67.39 1030.14,-71.09 1030.27,-64.09"/>
</g>
<!-- Node6 -->
<g id="node6" class="node">
<title>Node6</title>
<g id="a_node6"><a xlink:href="json_8h.html" target="_top" xlink:title=" ">
<polygon fill="none" stroke="black" points="761.5,-280.5 761.5,-299.5 826.5,-299.5 826.5,-280.5 761.5,-280.5"/>
<text text-anchor="middle" x="794" y="-287.5" font-family="Helvetica,sans-Serif" font-size="10.00">util/json.h</text>
</a>
</g>
</g>
<!-- Node5&#45;&gt;Node6 -->
<g id="edge5" class="edge">
<title>Node5&#45;&gt;Node6</title>
<path fill="none" stroke="midnightblue" d="M775.92,-459.46C778.82,-432.43 787.86,-348.24 791.95,-310.11"/>
<polygon fill="midnightblue" stroke="midnightblue" points="795.46,-310.18 793.05,-299.87 788.5,-309.44 795.46,-310.18"/>
</g>
<!-- Node33 -->
<g id="node26" class="node">
<title>Node33</title>
<g id="a_node26"><a xlink:href="xml_8h.html" target="_top" xlink:title=" ">
<polygon fill="none" stroke="black" points="702.5,-342 702.5,-361 765.5,-361 765.5,-342 702.5,-342"/>
<text text-anchor="middle" x="734" y="-349" font-family="Helvetica,sans-Serif" font-size="10.00">util/xml.h</text>
</a>
</g>
</g>
<!-- Node5&#45;&gt;Node33 -->
<g id="edge35" class="edge">
<title>Node5&#45;&gt;Node33</title>
<path fill="none" stroke="midnightblue" d="M771.92,-459.32C765.27,-440.59 749.46,-396.05 740.49,-370.79"/>
<polygon fill="midnightblue" stroke="midnightblue" points="743.76,-369.54 737.12,-361.28 737.16,-371.88 743.76,-369.54"/>
</g>
<!-- Node34 -->
<g id="node28" class="node">
<title>Node34</title>
<g id="a_node28"><a xlink:href="ai__history_8h.html" target="_top" xlink:title="Abstract Interpretation history.">
<polygon fill="none" stroke="black" points="638,-403.5 638,-422.5 710,-422.5 710,-403.5 638,-403.5"/>
<text text-anchor="middle" x="674" y="-410.5" font-family="Helvetica,sans-Serif" font-size="10.00">ai_history.h</text>
</a>
</g>
</g>
<!-- Node5&#45;&gt;Node34 -->
<g id="edge40" class="edge">
<title>Node5&#45;&gt;Node34</title>
<path fill="none" stroke="midnightblue" d="M758.77,-459.32C742.65,-450.7 717.7,-437.36 699.04,-427.39"/>
<polygon fill="midnightblue" stroke="midnightblue" points="700.66,-424.28 690.19,-422.65 697.36,-430.46 700.66,-424.28"/>
</g>
<!-- Node6&#45;&gt;Node4 -->
<g id="edge8" class="edge">
<title>Node6&#45;&gt;Node4</title>
<path fill="none" stroke="midnightblue" d="M826.51,-286.85C858.17,-283.06 905.69,-272.65 935,-244 940.92,-238.21 976.05,-129.53 990.15,-85.4"/>
<polygon fill="midnightblue" stroke="midnightblue" points="993.55,-86.26 993.25,-75.67 986.88,-84.13 993.55,-86.26"/>
</g>
<!-- Node7 -->
<g id="node7" class="node">
<title>Node7</title>
<g id="a_node7"><a xlink:title=" ">
<polygon fill="none" stroke="#bfbfbf" points="1192.5,-112.5 1192.5,-131.5 1239.5,-131.5 1239.5,-112.5 1192.5,-112.5"/>
<text text-anchor="middle" x="1216" y="-119.5" font-family="Helvetica,sans-Serif" font-size="10.00">vector</text>
</a>
</g>
</g>
<!-- Node6&#45;&gt;Node7 -->
<g id="edge6" class="edge">
<title>Node6&#45;&gt;Node7</title>
<path fill="none" stroke="midnightblue" d="M826.66,-282.61C862.08,-275.2 919.99,-261.71 968,-244 979.39,-239.8 1128.16,-166.42 1189.67,-136.02"/>
<polygon fill="midnightblue" stroke="midnightblue" points="1191.34,-139.1 1198.76,-131.53 1188.24,-132.83 1191.34,-139.1"/>
</g>
<!-- Node8 -->
<g id="node8" class="node">
<title>Node8</title>
<g id="a_node8"><a xlink:title=" ">
<polygon fill="none" stroke="#bfbfbf" points="1020,-224.5 1020,-243.5 1058,-243.5 1058,-224.5 1020,-224.5"/>
<text text-anchor="middle" x="1039" y="-231.5" font-family="Helvetica,sans-Serif" font-size="10.00">map</text>
</a>
</g>
</g>
<!-- Node6&#45;&gt;Node8 -->
<g id="edge7" class="edge">
<title>Node6&#45;&gt;Node8</title>
<path fill="none" stroke="midnightblue" d="M826.82,-282.64C868.59,-274.4 942.92,-259.28 1006,-244 1007.27,-243.69 1008.56,-243.37 1009.86,-243.04"/>
<polygon fill="midnightblue" stroke="midnightblue" points="1011.07,-246.35 1019.85,-240.42 1009.29,-239.57 1011.07,-246.35"/>
</g>
<!-- Node9 -->
<g id="node9" class="node">
<title>Node9</title>
<g id="a_node9"><a xlink:title=" ">
<polygon fill="none" stroke="#bfbfbf" points="111,-0.5 111,-19.5 155,-19.5 155,-0.5 111,-0.5"/>
<text text-anchor="middle" x="133" y="-7.5" font-family="Helvetica,sans-Serif" font-size="10.00">string</text>
</a>
</g>
</g>
<!-- Node6&#45;&gt;Node9 -->
<g id="edge9" class="edge">
<title>Node6&#45;&gt;Node9</title>
<path fill="none" stroke="midnightblue" d="M761.48,-286.21C652.83,-276.45 303.77,-241.55 206,-188 154.52,-159.8 146.89,-133.68 136,-76 133.08,-60.55 132.45,-42.68 132.48,-29.59"/>
<polygon fill="midnightblue" stroke="midnightblue" points="135.98,-29.56 132.64,-19.5 128.98,-29.45 135.98,-29.56"/>
</g>
<!-- Node10 -->
<g id="node10" class="node">
<title>Node10</title>
<g id="a_node10"><a xlink:href="irep_8h.html" target="_top" xlink:title=" ">
<polygon fill="none" stroke="black" points="670,-224.5 670,-243.5 714,-243.5 714,-224.5 670,-224.5"/>
<text text-anchor="middle" x="692" y="-231.5" font-family="Helvetica,sans-Serif" font-size="10.00">irep.h</text>
</a>
</g>
</g>
<!-- Node6&#45;&gt;Node10 -->
<g id="edge10" class="edge">
<title>Node6&#45;&gt;Node10</title>
<path fill="none" stroke="midnightblue" d="M777.61,-280.32C761.33,-271.7 736.13,-258.36 717.28,-248.39"/>
<polygon fill="midnightblue" stroke="midnightblue" points="718.82,-245.24 708.35,-243.65 715.55,-251.43 718.82,-245.24"/>
</g>
<!-- Node30 -->
<g id="node23" class="node">
<title>Node30</title>
<g id="a_node23"><a xlink:href="range_8h.html" target="_top" xlink:title="Ranges: pair of begin and end iterators, which can be initialized from containers,...">
<polygon fill="none" stroke="black" points="767.5,-224.5 767.5,-243.5 820.5,-243.5 820.5,-224.5 767.5,-224.5"/>
<text text-anchor="middle" x="794" y="-231.5" font-family="Helvetica,sans-Serif" font-size="10.00">range.h</text>
</a>
</g>
</g>
<!-- Node6&#45;&gt;Node30 -->
<g id="edge30" class="edge">
<title>Node6&#45;&gt;Node30</title>
<path fill="none" stroke="midnightblue" d="M794,-280.08C794,-273.01 794,-262.86 794,-253.99"/>
<polygon fill="midnightblue" stroke="midnightblue" points="797.5,-253.75 794,-243.75 790.5,-253.75 797.5,-253.75"/>
</g>
<!-- Node10&#45;&gt;Node7 -->
<g id="edge12" class="edge">
<title>Node10&#45;&gt;Node7</title>
<path fill="none" stroke="midnightblue" d="M714.13,-228.97C782.34,-216.42 995.46,-176.42 1182.25,-132.06"/>
<polygon fill="midnightblue" stroke="midnightblue" points="1183.34,-135.39 1192.25,-129.67 1181.71,-128.59 1183.34,-135.39"/>
</g>
<!-- Node10&#45;&gt;Node9 -->
<g id="edge11" class="edge">
<title>Node10&#45;&gt;Node9</title>
<path fill="none" stroke="midnightblue" d="M669.93,-232.09C592.62,-228.68 334.57,-215.45 257,-188 214,-172.78 198.57,-168.34 171,-132 147.46,-100.97 138.31,-55.04 134.9,-29.63"/>
<polygon fill="midnightblue" stroke="midnightblue" points="138.35,-29.04 133.71,-19.52 131.4,-29.86 138.35,-29.04"/>
</g>
<!-- Node11 -->
<g id="node11" class="node">
<title>Node11</title>
<g id="a_node11"><a xlink:href="src_2util_2invariant_8h.html" target="_top" xlink:title=" ">
<polygon fill="none" stroke="black" points="658.5,-56.5 658.5,-75.5 727.5,-75.5 727.5,-56.5 658.5,-56.5"/>
<text text-anchor="middle" x="693" y="-63.5" font-family="Helvetica,sans-Serif" font-size="10.00">invariant.h</text>
</a>
</g>
</g>
<!-- Node10&#45;&gt;Node11 -->
<g id="edge13" class="edge">
<title>Node10&#45;&gt;Node11</title>
<path fill="none" stroke="midnightblue" d="M692.05,-224.08C692.21,-197.95 692.67,-121.21 692.89,-85.58"/>
<polygon fill="midnightblue" stroke="midnightblue" points="696.39,-85.59 692.95,-75.57 689.39,-85.55 696.39,-85.59"/>
</g>
<!-- Node15 -->
<g id="node15" class="node">
<title>Node15</title>
<g id="a_node15"><a xlink:href="irep__ids_8h.html" target="_top" xlink:title="util">
<polygon fill="none" stroke="black" points="577,-168.5 577,-187.5 641,-187.5 641,-168.5 577,-168.5"/>
<text text-anchor="middle" x="609" y="-175.5" font-family="Helvetica,sans-Serif" font-size="10.00">irep_ids.h</text>
</a>
</g>
</g>
<!-- Node10&#45;&gt;Node15 -->
<g id="edge18" class="edge">
<title>Node10&#45;&gt;Node15</title>
<path fill="none" stroke="midnightblue" d="M678.66,-224.32C665.84,-215.98 646.22,-203.21 631.06,-193.35"/>
<polygon fill="midnightblue" stroke="midnightblue" points="632.59,-190.17 622.3,-187.65 628.78,-196.04 632.59,-190.17"/>
</g>
<!-- Node25 -->
<g id="node18" class="node">
<title>Node25</title>
<g id="a_node18"><a xlink:href="forward__list__as__map_8h.html" target="_top" xlink:title=" ">
<polygon fill="none" stroke="black" points="760.5,-168.5 760.5,-187.5 887.5,-187.5 887.5,-168.5 760.5,-168.5"/>
<text text-anchor="middle" x="824" y="-175.5" font-family="Helvetica,sans-Serif" font-size="10.00">forward_list_as_map.h</text>
</a>
</g>
</g>
<!-- Node10&#45;&gt;Node25 -->
<g id="edge23" class="edge">
<title>Node10&#45;&gt;Node25</title>
<path fill="none" stroke="midnightblue" d="M712.92,-224.44C734.74,-215.52 769.15,-201.44 793.89,-191.32"/>
<polygon fill="midnightblue" stroke="midnightblue" points="795.25,-194.54 803.18,-187.52 792.6,-188.06 795.25,-194.54"/>
</g>
<!-- Node11&#45;&gt;Node9 -->
<g id="edge16" class="edge">
<title>Node11&#45;&gt;Node9</title>
<path fill="none" stroke="midnightblue" d="M658.39,-61.66C557.26,-51.91 263.19,-23.55 165.2,-14.1"/>
<polygon fill="midnightblue" stroke="midnightblue" points="165.31,-10.6 155.02,-13.12 164.64,-17.57 165.31,-10.6"/>
</g>
<!-- Node12 -->
<g id="node12" class="node">
<title>Node12</title>
<g id="a_node12"><a xlink:title=" ">
<polygon fill="none" stroke="#bfbfbf" points="704.5,-0.5 704.5,-19.5 753.5,-19.5 753.5,-0.5 704.5,-0.5"/>
<text text-anchor="middle" x="729" y="-7.5" font-family="Helvetica,sans-Serif" font-size="10.00">cstdlib</text>
</a>
</g>
</g>
<!-- Node11&#45;&gt;Node12 -->
<g id="edge14" class="edge">
<title>Node11&#45;&gt;Node12</title>
<path fill="none" stroke="midnightblue" d="M698.94,-56.08C703.98,-48.53 711.34,-37.49 717.51,-28.23"/>
<polygon fill="midnightblue" stroke="midnightblue" points="720.53,-30.01 723.17,-19.75 714.71,-26.13 720.53,-30.01"/>
</g>
<!-- Node13 -->
<g id="node13" class="node">
<title>Node13</title>
<g id="a_node13"><a xlink:title=" ">
<polygon fill="none" stroke="#bfbfbf" points="630,-0.5 630,-19.5 686,-19.5 686,-0.5 630,-0.5"/>
<text text-anchor="middle" x="658" y="-7.5" font-family="Helvetica,sans-Serif" font-size="10.00">sstream</text>
</a>
</g>
</g>
<!-- Node11&#45;&gt;Node13 -->
<g id="edge15" class="edge">
<title>Node11&#45;&gt;Node13</title>
<path fill="none" stroke="midnightblue" d="M687.22,-56.08C682.33,-48.53 675.17,-37.49 669.17,-28.23"/>
<polygon fill="midnightblue" stroke="midnightblue" points="672.05,-26.24 663.67,-19.75 666.17,-30.05 672.05,-26.24"/>
</g>
<!-- Node14 -->
<g id="node14" class="node">
<title>Node14</title>
<g id="a_node14"><a xlink:title=" ">
<polygon fill="none" stroke="#bfbfbf" points="827.5,-0.5 827.5,-19.5 896.5,-19.5 896.5,-0.5 827.5,-0.5"/>
<text text-anchor="middle" x="862" y="-7.5" font-family="Helvetica,sans-Serif" font-size="10.00">type_traits</text>
</a>
</g>
</g>
<!-- Node11&#45;&gt;Node14 -->
<g id="edge17" class="edge">
<title>Node11&#45;&gt;Node14</title>
<path fill="none" stroke="midnightblue" d="M719.78,-56.44C748.33,-47.32 793.73,-32.81 825.54,-22.65"/>
<polygon fill="midnightblue" stroke="midnightblue" points="826.89,-25.89 835.35,-19.52 824.76,-19.23 826.89,-25.89"/>
</g>
<!-- Node16 -->
<g id="node16" class="node">
<title>Node16</title>
<g id="a_node16"><a xlink:href="dstring_8h.html" target="_top" xlink:title="Container for C&#45;Strings.">
<polygon fill="none" stroke="red" points="494.5,-112.5 494.5,-131.5 553.5,-131.5 553.5,-112.5 494.5,-112.5"/>
<text text-anchor="middle" x="524" y="-119.5" font-family="Helvetica,sans-Serif" font-size="10.00">dstring.h</text>
</a>
</g>
</g>
<!-- Node15&#45;&gt;Node16 -->
<g id="edge19" class="edge">
<title>Node15&#45;&gt;Node16</title>
<path fill="none" stroke="midnightblue" d="M595.34,-168.32C582.08,-159.9 561.73,-146.97 546.15,-137.07"/>
<polygon fill="midnightblue" stroke="midnightblue" points="547.94,-134.06 537.62,-131.65 544.19,-139.97 547.94,-134.06"/>
</g>
<!-- Node24 -->
<g id="node17" class="node">
<title>Node24</title>
<g id="a_node17"><a xlink:title=" ">
<polygon fill="none" stroke="#bfbfbf" points="572,-112.5 572,-131.5 646,-131.5 646,-112.5 572,-112.5"/>
<text text-anchor="middle" x="609" y="-119.5" font-family="Helvetica,sans-Serif" font-size="10.00">irep_ids.def</text>
</a>
</g>
</g>
<!-- Node15&#45;&gt;Node24 -->
<g id="edge22" class="edge">
<title>Node15&#45;&gt;Node24</title>
<path fill="none" stroke="midnightblue" d="M609,-168.08C609,-161.01 609,-150.86 609,-141.99"/>
<polygon fill="midnightblue" stroke="midnightblue" points="612.5,-141.75 609,-131.75 605.5,-141.75 612.5,-141.75"/>
</g>
<!-- Node16&#45;&gt;Node4 -->
<g id="edge20" class="edge">
<title>Node16&#45;&gt;Node4</title>
<path fill="none" stroke="midnightblue" d="M553.74,-113.74C556.85,-113.1 559.98,-112.5 563,-112 710.44,-87.42 888.5,-73.96 961.87,-69.11"/>
<polygon fill="midnightblue" stroke="midnightblue" points="962.17,-72.6 971.92,-68.46 961.72,-65.61 962.17,-72.6"/>
</g>
<!-- Node16&#45;&gt;Node9 -->
<g id="edge21" class="edge">
<title>Node16&#45;&gt;Node9</title>
<path fill="none" stroke="midnightblue" d="M494.29,-112.64C422.29,-92.39 238.97,-40.81 164.84,-19.96"/>
<polygon fill="midnightblue" stroke="midnightblue" points="165.7,-16.56 155.12,-17.22 163.8,-23.3 165.7,-16.56"/>
</g>
<!-- Node26 -->
<g id="node19" class="node">
<title>Node26</title>
<g id="a_node19"><a xlink:title=" ">
<polygon fill="none" stroke="#bfbfbf" points="1110,-112.5 1110,-131.5 1174,-131.5 1174,-112.5 1110,-112.5"/>
<text text-anchor="middle" x="1142" y="-119.5" font-family="Helvetica,sans-Serif" font-size="10.00">algorithm</text>
</a>
</g>
</g>
<!-- Node25&#45;&gt;Node26 -->
<g id="edge24" class="edge">
<title>Node25&#45;&gt;Node26</title>
<path fill="none" stroke="midnightblue" d="M882.26,-168.49C936.23,-160.39 1018.97,-147.42 1099.94,-132.12"/>
<polygon fill="midnightblue" stroke="midnightblue" points="1100.64,-135.55 1109.81,-130.24 1099.33,-128.67 1100.64,-135.55"/>
</g>
<!-- Node27 -->
<g id="node20" class="node">
<title>Node27</title>
<g id="a_node20"><a xlink:title=" ">
<polygon fill="none" stroke="#bfbfbf" points="740,-112.5 740,-131.5 814,-131.5 814,-112.5 740,-112.5"/>
<text text-anchor="middle" x="777" y="-119.5" font-family="Helvetica,sans-Serif" font-size="10.00">forward_list</text>
</a>
</g>
</g>
<!-- Node25&#45;&gt;Node27 -->
<g id="edge25" class="edge">
<title>Node25&#45;&gt;Node27</title>
<path fill="none" stroke="midnightblue" d="M816.24,-168.08C809.46,-160.3 799.46,-148.8 791.24,-139.37"/>
<polygon fill="midnightblue" stroke="midnightblue" points="793.82,-137 784.62,-131.75 788.54,-141.59 793.82,-137"/>
</g>
<!-- Node28 -->
<g id="node21" class="node">
<title>Node28</title>
<g id="a_node21"><a xlink:href="as__const_8h.html" target="_top" xlink:title=" ">
<polygon fill="none" stroke="black" points="1024,-112.5 1024,-131.5 1092,-131.5 1092,-112.5 1024,-112.5"/>
<text text-anchor="middle" x="1058" y="-119.5" font-family="Helvetica,sans-Serif" font-size="10.00">as_const.h</text>
</a>
</g>
</g>
<!-- Node25&#45;&gt;Node28 -->
<g id="edge26" class="edge">
<title>Node25&#45;&gt;Node28</title>
<path fill="none" stroke="midnightblue" d="M861.08,-168.44C902.56,-158.87 969.73,-143.37 1013.88,-133.18"/>
<polygon fill="midnightblue" stroke="midnightblue" points="1014.8,-136.56 1023.76,-130.9 1013.23,-129.74 1014.8,-136.56"/>
</g>
<!-- Node29 -->
<g id="node22" class="node">
<title>Node29</title>
<g id="a_node22"><a xlink:href="narrow_8h.html" target="_top" xlink:title=" ">
<polygon fill="none" stroke="black" points="832.5,-112.5 832.5,-131.5 891.5,-131.5 891.5,-112.5 832.5,-112.5"/>
<text text-anchor="middle" x="862" y="-119.5" font-family="Helvetica,sans-Serif" font-size="10.00">narrow.h</text>
</a>
</g>
</g>
<!-- Node25&#45;&gt;Node29 -->
<g id="edge27" class="edge">
<title>Node25&#45;&gt;Node29</title>
<path fill="none" stroke="midnightblue" d="M830.27,-168.08C835.64,-160.46 843.52,-149.26 850.08,-139.94"/>
<polygon fill="midnightblue" stroke="midnightblue" points="852.95,-141.94 855.84,-131.75 847.22,-137.91 852.95,-141.94"/>
</g>
<!-- Node29&#45;&gt;Node11 -->
<g id="edge29" class="edge">
<title>Node29&#45;&gt;Node11</title>
<path fill="none" stroke="midnightblue" d="M835.22,-112.44C806.67,-103.32 761.27,-88.81 729.46,-78.65"/>
<polygon fill="midnightblue" stroke="midnightblue" points="730.24,-75.23 719.65,-75.52 728.11,-81.89 730.24,-75.23"/>
</g>
<!-- Node29&#45;&gt;Node14 -->
<g id="edge28" class="edge">
<title>Node29&#45;&gt;Node14</title>
<path fill="none" stroke="midnightblue" d="M862,-112.37C862,-94.62 862,-53.67 862,-29.6"/>
<polygon fill="midnightblue" stroke="midnightblue" points="865.5,-29.59 862,-19.59 858.5,-29.59 865.5,-29.59"/>
</g>
<!-- Node30&#45;&gt;Node11 -->
<g id="edge31" class="edge">
<title>Node30&#45;&gt;Node11</title>
<path fill="none" stroke="midnightblue" d="M784.45,-224.38C775.32,-215.79 761.57,-201.91 752,-188 728.7,-154.11 709.56,-109.64 699.86,-85.15"/>
<polygon fill="midnightblue" stroke="midnightblue" points="703.07,-83.75 696.2,-75.69 696.55,-86.28 703.07,-83.75"/>
</g>
<!-- Node30&#45;&gt;Node14 -->
<g id="edge34" class="edge">
<title>Node30&#45;&gt;Node14</title>
<path fill="none" stroke="midnightblue" d="M820.77,-224.81C848.09,-215.86 887.77,-201.07 897,-188 932.04,-138.4 893.94,-62.42 873.38,-28.46"/>
<polygon fill="midnightblue" stroke="midnightblue" points="876.16,-26.31 867.89,-19.69 870.23,-30.02 876.16,-26.31"/>
</g>
<!-- Node31 -->
<g id="node24" class="node">
<title>Node31</title>
<g id="a_node24"><a xlink:title=" ">
<polygon fill="none" stroke="#bfbfbf" points="1134.5,-168.5 1134.5,-187.5 1199.5,-187.5 1199.5,-168.5 1134.5,-168.5"/>
<text text-anchor="middle" x="1167" y="-175.5" font-family="Helvetica,sans-Serif" font-size="10.00">functional</text>
</a>
</g>
</g>
<!-- Node30&#45;&gt;Node31 -->
<g id="edge32" class="edge">
<title>Node30&#45;&gt;Node31</title>
<path fill="none" stroke="midnightblue" d="M820.53,-229.16C884.32,-219.92 1046.77,-196.41 1124.42,-185.16"/>
<polygon fill="midnightblue" stroke="midnightblue" points="1124.95,-188.62 1134.35,-183.73 1123.95,-181.7 1124.95,-188.62"/>
</g>
<!-- Node32 -->
<g id="node25" class="node">
<title>Node32</title>
<g id="a_node25"><a xlink:title=" ">
<polygon fill="none" stroke="#bfbfbf" points="104,-168.5 104,-187.5 162,-187.5 162,-168.5 104,-168.5"/>
<text text-anchor="middle" x="133" y="-175.5" font-family="Helvetica,sans-Serif" font-size="10.00">memory</text>
</a>
</g>
</g>
<!-- Node30&#45;&gt;Node32 -->
<g id="edge33" class="edge">
<title>Node30&#45;&gt;Node32</title>
<path fill="none" stroke="midnightblue" d="M767.4,-229.31C754.09,-227.54 737.71,-225.49 723,-224 668.5,-218.47 295.28,-190.92 172.25,-181.88"/>
<polygon fill="midnightblue" stroke="midnightblue" points="172.37,-178.38 162.14,-181.14 171.86,-185.36 172.37,-178.38"/>
</g>
<!-- Node33&#45;&gt;Node4 -->
<g id="edge39" class="edge">
<title>Node33&#45;&gt;Node4</title>
<path fill="none" stroke="midnightblue" d="M765.75,-345.25C841.88,-331.93 1031.17,-294.3 1067,-244 1088.74,-213.49 1056.14,-229.46 1015,-132 1008.57,-116.77 1003.47,-98.66 1000.18,-85.43"/>
<polygon fill="midnightblue" stroke="midnightblue" points="1003.57,-84.55 997.85,-75.63 996.76,-86.17 1003.57,-84.55"/>
</g>
<!-- Node33&#45;&gt;Node8 -->
<g id="edge37" class="edge">
<title>Node33&#45;&gt;Node8</title>
<path fill="none" stroke="midnightblue" d="M756.92,-341.82C811.67,-321.09 949.92,-268.73 1010.18,-245.91"/>
<polygon fill="midnightblue" stroke="midnightblue" points="1011.71,-249.08 1019.82,-242.26 1009.23,-242.53 1011.71,-249.08"/>
</g>
<!-- Node33&#45;&gt;Node9 -->
<g id="edge38" class="edge">
<title>Node33&#45;&gt;Node9</title>
<path fill="none" stroke="midnightblue" d="M716.06,-341.91C684.19,-327 615.28,-296.37 554,-280 449.8,-252.16 419.27,-267.48 314,-244 283.67,-237.23 277.02,-232.03 247,-224 179.93,-206.06 138.06,-242.45 95,-188 57.04,-140 98.8,-62.63 120.98,-28.33"/>
<polygon fill="midnightblue" stroke="midnightblue" points="123.99,-30.12 126.63,-19.86 118.17,-26.24 123.99,-30.12"/>
</g>
<!-- Node20 -->
<g id="node27" class="node">
<title>Node20</title>
<g id="a_node27"><a xlink:title=" ">
<polygon fill="none" stroke="#bfbfbf" points="513,-280.5 513,-299.5 545,-299.5 545,-280.5 513,-280.5"/>
<text text-anchor="middle" x="529" y="-287.5" font-family="Helvetica,sans-Serif" font-size="10.00">list</text>
</a>
</g>
</g>
<!-- Node33&#45;&gt;Node20 -->
<g id="edge36" class="edge">
<title>Node33&#45;&gt;Node20</title>
<path fill="none" stroke="midnightblue" d="M703.93,-341.93C669.05,-331.96 609.81,-314.95 559,-300 557.74,-299.63 556.45,-299.25 555.14,-298.86"/>
<polygon fill="midnightblue" stroke="midnightblue" points="555.77,-295.39 545.18,-295.89 553.76,-302.1 555.77,-295.39"/>
</g>
<!-- Node34&#45;&gt;Node6 -->
<g id="edge42" class="edge">
<title>Node34&#45;&gt;Node6</title>
<path fill="none" stroke="midnightblue" d="M673.96,-403.39C674.35,-388.06 677.25,-355.78 694,-336 708.7,-318.65 731.45,-307.69 751.54,-300.94"/>
<polygon fill="midnightblue" stroke="midnightblue" points="752.64,-304.26 761.15,-297.95 750.56,-297.58 752.64,-304.26"/>
</g>
<!-- Node34&#45;&gt;Node32 -->
<g id="edge41" class="edge">
<title>Node34&#45;&gt;Node32</title>
<path fill="none" stroke="midnightblue" d="M637.82,-410.63C526.08,-405.54 190.35,-383.43 131,-300 109.26,-269.44 118.81,-222.67 126.58,-197.15"/>
<polygon fill="midnightblue" stroke="midnightblue" points="129.92,-198.22 129.71,-187.63 123.27,-196.04 129.92,-198.22"/>
</g>
<!-- Node34&#45;&gt;Node33 -->
<g id="edge43" class="edge">
<title>Node34&#45;&gt;Node33</title>
<path fill="none" stroke="midnightblue" d="M682.6,-403.48C691.86,-394.28 706.82,-379.46 718.21,-368.16"/>
<polygon fill="midnightblue" stroke="midnightblue" points="720.78,-370.54 725.42,-361.01 715.85,-365.57 720.78,-370.54"/>
</g>
<!-- Node35 -->
<g id="node29" class="node">
<title>Node35</title>
<g id="a_node29"><a xlink:href="goto__program_8h.html" target="_top" xlink:title="Concrete Goto Program.">
<polygon fill="none" stroke="black" points="333.5,-336.5 333.5,-366.5 446.5,-366.5 446.5,-336.5 333.5,-336.5"/>
<text text-anchor="start" x="341.5" y="-354.5" font-family="Helvetica,sans-Serif" font-size="10.00">goto&#45;programs/goto</text>
<text text-anchor="middle" x="390" y="-343.5" font-family="Helvetica,sans-Serif" font-size="10.00">_program.h</text>
</a>
</g>
</g>
<!-- Node34&#45;&gt;Node35 -->
<g id="edge44" class="edge">
<title>Node34&#45;&gt;Node35</title>
<path fill="none" stroke="midnightblue" d="M637.74,-404.4C592.18,-394.86 513.1,-378.29 456.54,-366.44"/>
<polygon fill="midnightblue" stroke="midnightblue" points="457.11,-362.98 446.61,-364.36 455.68,-369.84 457.11,-362.98"/>
</g>
<!-- Node35&#45;&gt;Node4 -->
<g id="edge56" class="edge">
<title>Node35&#45;&gt;Node4</title>
<path fill="none" stroke="midnightblue" d="M396.68,-336.45C401.4,-326.38 407.79,-312.44 413,-300 447.56,-217.47 413.58,-165.89 485,-112 522.97,-83.35 853.43,-71.18 961.77,-67.94"/>
<polygon fill="midnightblue" stroke="midnightblue" points="961.94,-71.43 971.83,-67.64 961.74,-64.43 961.94,-71.43"/>
</g>
<!-- Node35&#45;&gt;Node9 -->
<g id="edge60" class="edge">
<title>Node35&#45;&gt;Node9</title>
<path fill="none" stroke="midnightblue" d="M333.29,-350.47C225.13,-347.12 0,-322.86 0,-179 0,-179 0,-179 0,-121 0,-68.65 61.93,-36.53 101.28,-21.4"/>
<polygon fill="midnightblue" stroke="midnightblue" points="102.56,-24.65 110.74,-17.92 100.15,-18.08 102.56,-24.65"/>
</g>
<!-- Node35&#45;&gt;Node11 -->
<g id="edge45" class="edge">
<title>Node35&#45;&gt;Node11</title>
<path fill="none" stroke="midnightblue" d="M391.71,-336.2C397.59,-289.59 418.44,-143.29 452,-112 479.81,-86.07 586.19,-74.41 647.92,-69.74"/>
<polygon fill="midnightblue" stroke="midnightblue" points="648.44,-73.21 658.16,-69 647.94,-66.23 648.44,-73.21"/>
</g>
<!-- Node35&#45;&gt;Node20 -->
<g id="edge58" class="edge">
<title>Node35&#45;&gt;Node20</title>
<path fill="none" stroke="midnightblue" d="M422.94,-336.4C447.56,-325.86 480.73,-311.66 503.38,-301.97"/>
<polygon fill="midnightblue" stroke="midnightblue" points="504.86,-305.14 512.68,-297.99 502.11,-298.7 504.86,-305.14"/>
</g>
<!-- Node36 -->
<g id="node30" class="node">
<title>Node36</title>
<g id="a_node30"><a xlink:href="source__location_8h.html" target="_top" xlink:title=" ">
<polygon fill="none" stroke="black" points="140.5,-280.5 140.5,-299.5 261.5,-299.5 261.5,-280.5 140.5,-280.5"/>
<text text-anchor="middle" x="201" y="-287.5" font-family="Helvetica,sans-Serif" font-size="10.00">util/source_location.h</text>
</a>
</g>
</g>
<!-- Node35&#45;&gt;Node36 -->
<g id="edge46" class="edge">
<title>Node35&#45;&gt;Node36</title>
<path fill="none" stroke="midnightblue" d="M345.21,-336.4C312.55,-326.12 268.82,-312.35 238.11,-302.68"/>
<polygon fill="midnightblue" stroke="midnightblue" points="238.81,-299.24 228.23,-299.57 236.71,-305.91 238.81,-299.24"/>
</g>
<!-- Node39 -->
<g id="node33" class="node">
<title>Node39</title>
<g id="a_node33"><a xlink:href="goto__instruction__code_8h.html" target="_top" xlink:title=" ">
<polygon fill="none" stroke="black" points="266.5,-168.5 266.5,-187.5 399.5,-187.5 399.5,-168.5 266.5,-168.5"/>
<text text-anchor="middle" x="333" y="-175.5" font-family="Helvetica,sans-Serif" font-size="10.00">goto_instruction_code.h</text>
</a>
</g>
</g>
<!-- Node35&#45;&gt;Node39 -->
<g id="edge51" class="edge">
<title>Node35&#45;&gt;Node39</title>
<path fill="none" stroke="midnightblue" d="M385.34,-336.47C375.07,-305.57 350.51,-231.69 339.07,-197.25"/>
<polygon fill="midnightblue" stroke="midnightblue" points="342.32,-195.95 335.84,-187.56 335.68,-198.15 342.32,-195.95"/>
</g>
<!-- Node54 -->
<g id="node36" class="node">
<title>Node54</title>
<g id="a_node36"><a xlink:title=" ">
<polygon fill="none" stroke="#bfbfbf" points="280,-280.5 280,-299.5 324,-299.5 324,-280.5 280,-280.5"/>
<text text-anchor="middle" x="302" y="-287.5" font-family="Helvetica,sans-Serif" font-size="10.00">limits</text>
</a>
</g>
</g>
<!-- Node35&#45;&gt;Node54 -->
<g id="edge57" class="edge">
<title>Node35&#45;&gt;Node54</title>
<path fill="none" stroke="midnightblue" d="M369.15,-336.4C355.3,-327.04 337.19,-314.79 323.26,-305.38"/>
<polygon fill="midnightblue" stroke="midnightblue" points="325.05,-302.36 314.8,-299.66 321.13,-308.16 325.05,-302.36"/>
</g>
<!-- Node55 -->
<g id="node37" class="node">
<title>Node55</title>
<g id="a_node37"><a xlink:title=" ">
<polygon fill="none" stroke="#bfbfbf" points="894,-224.5 894,-243.5 926,-243.5 926,-224.5 894,-224.5"/>
<text text-anchor="middle" x="910" y="-231.5" font-family="Helvetica,sans-Serif" font-size="10.00">set</text>
</a>
</g>
</g>
<!-- Node35&#45;&gt;Node55 -->
<g id="edge59" class="edge">
<title>Node35&#45;&gt;Node55</title>
<path fill="none" stroke="midnightblue" d="M410.29,-336.38C437.46,-317.76 484.48,-286.57 504,-280 663.11,-226.45 715.26,-276.27 880,-244 881.29,-243.75 882.61,-243.46 883.93,-243.15"/>
<polygon fill="midnightblue" stroke="midnightblue" points="885.21,-246.43 893.95,-240.45 883.39,-239.67 885.21,-246.43"/>
</g>
<!-- Node36&#45;&gt;Node9 -->
<g id="edge50" class="edge">
<title>Node36&#45;&gt;Node9</title>
<path fill="none" stroke="midnightblue" d="M178.51,-280.46C145.85,-266.68 86.51,-236.11 62,-188 35.37,-135.73 33.72,-107.4 62,-56 70.48,-40.58 86.73,-29.7 101.54,-22.51"/>
<polygon fill="midnightblue" stroke="midnightblue" points="103.26,-25.57 110.97,-18.3 100.41,-19.18 103.26,-25.57"/>
</g>
<!-- Node36&#45;&gt;Node10 -->
<g id="edge48" class="edge">
<title>Node36&#45;&gt;Node10</title>
<path fill="none" stroke="midnightblue" d="M261.7,-281.12C264.84,-280.73 267.96,-280.36 271,-280 415.78,-262.96 588.9,-245.31 659.56,-238.23"/>
<polygon fill="midnightblue" stroke="midnightblue" points="660.02,-241.7 669.62,-237.22 659.32,-234.74 660.02,-241.7"/>
</g>
<!-- Node37 -->
<g id="node31" class="node">
<title>Node37</title>
<g id="a_node31"><a xlink:href="deprecate_8h.html" target="_top" xlink:title=" ">
<polygon fill="none" stroke="black" points="164,-224.5 164,-243.5 238,-243.5 238,-224.5 164,-224.5"/>
<text text-anchor="middle" x="201" y="-231.5" font-family="Helvetica,sans-Serif" font-size="10.00">deprecate.h</text>
</a>
</g>
</g>
<!-- Node36&#45;&gt;Node37 -->
<g id="edge47" class="edge">
<title>Node36&#45;&gt;Node37</title>
<path fill="none" stroke="midnightblue" d="M201,-280.08C201,-273.01 201,-262.86 201,-253.99"/>
<polygon fill="midnightblue" stroke="midnightblue" points="204.5,-253.75 201,-243.75 197.5,-253.75 204.5,-253.75"/>
</g>
<!-- Node38 -->
<g id="node32" class="node">
<title>Node38</title>
<g id="a_node32"><a xlink:title=" ">
<polygon fill="none" stroke="#bfbfbf" points="1258,-112.5 1258,-131.5 1314,-131.5 1314,-112.5 1258,-112.5"/>
<text text-anchor="middle" x="1286" y="-119.5" font-family="Helvetica,sans-Serif" font-size="10.00">optional</text>
</a>
</g>
</g>
<!-- Node36&#45;&gt;Node38 -->
<g id="edge49" class="edge">
<title>Node36&#45;&gt;Node38</title>
<path fill="none" stroke="midnightblue" d="M261.68,-280.96C264.83,-280.62 267.95,-280.29 271,-280 518.81,-256.11 586.33,-295.06 830,-244 855.46,-238.67 860.13,-231.63 885,-224 920.06,-213.24 1154.64,-155.31 1247.89,-132.36"/>
<polygon fill="midnightblue" stroke="midnightblue" points="1248.88,-135.72 1257.76,-129.94 1247.21,-128.93 1248.88,-135.72"/>
</g>
<!-- Node40 -->
<g id="node34" class="node">
<title>Node40</title>
<g id="a_node34"><a xlink:href="std__code__base_8h.html" target="_top" xlink:title=" ">
<polygon fill="none" stroke="red" points="284,-112.5 284,-131.5 400,-131.5 400,-112.5 284,-112.5"/>
<text text-anchor="middle" x="342" y="-119.5" font-family="Helvetica,sans-Serif" font-size="10.00">util/std_code_base.h</text>
</a>
</g>
</g>
<!-- Node39&#45;&gt;Node40 -->
<g id="edge52" class="edge">
<title>Node39&#45;&gt;Node40</title>
<path fill="none" stroke="midnightblue" d="M334.49,-168.08C335.68,-160.93 337.39,-150.64 338.88,-141.69"/>
<polygon fill="midnightblue" stroke="midnightblue" points="342.35,-142.19 340.54,-131.75 335.45,-141.04 342.35,-142.19"/>
</g>
<!-- Node53 -->
<g id="node35" class="node">
<title>Node53</title>
<g id="a_node35"><a xlink:href="std__expr_8h.html" target="_top" xlink:title="API to expression classes.">
<polygon fill="none" stroke="red" points="180,-112.5 180,-131.5 266,-131.5 266,-112.5 180,-112.5"/>
<text text-anchor="middle" x="223" y="-119.5" font-family="Helvetica,sans-Serif" font-size="10.00">util/std_expr.h</text>
</a>
</g>
</g>
<!-- Node39&#45;&gt;Node53 -->
<g id="edge54" class="edge">
<title>Node39&#45;&gt;Node53</title>
<path fill="none" stroke="midnightblue" d="M315.33,-168.32C297.61,-159.62 270.1,-146.12 249.71,-136.11"/>
<polygon fill="midnightblue" stroke="midnightblue" points="251.15,-132.92 240.63,-131.65 248.06,-139.2 251.15,-132.92"/>
</g>
<!-- Node40&#45;&gt;Node11 -->
<g id="edge53" class="edge">
<title>Node40&#45;&gt;Node11</title>
<path fill="none" stroke="midnightblue" d="M397.62,-112.44C467.02,-101.77 584.32,-83.72 648.23,-73.89"/>
<polygon fill="midnightblue" stroke="midnightblue" points="649.04,-77.3 658.39,-72.32 647.97,-70.39 649.04,-77.3"/>
</g>
<!-- Node53&#45;&gt;Node11 -->
<g id="edge55" class="edge">
<title>Node53&#45;&gt;Node11</title>
<path fill="none" stroke="midnightblue" d="M266.1,-113.32C269.11,-112.85 272.1,-112.41 275,-112 410.48,-93 571.65,-77.7 648.26,-70.87"/>
<polygon fill="midnightblue" stroke="midnightblue" points="648.85,-74.33 658.5,-69.96 648.23,-67.36 648.85,-74.33"/>
</g>
<!-- Node56&#45;&gt;Node3 -->
<g id="edge80" class="edge">
<title>Node56&#45;&gt;Node3</title>
<path fill="none" stroke="midnightblue" d="M1378.7,-288.84C1429.96,-286.89 1515.13,-278.18 1579,-244 1600.34,-232.58 1618.81,-211.37 1630.14,-196.29"/>
<polygon fill="midnightblue" stroke="midnightblue" points="1633.22,-197.99 1636.23,-187.83 1627.54,-193.9 1633.22,-197.99"/>
</g>
<!-- Node56&#45;&gt;Node8 -->
<g id="edge62" class="edge">
<title>Node56&#45;&gt;Node8</title>
<path fill="none" stroke="midnightblue" d="M1289.2,-280.8C1227.97,-269.59 1119.89,-249.81 1068.17,-240.34"/>
<polygon fill="midnightblue" stroke="midnightblue" points="1068.78,-236.89 1058.32,-238.54 1067.52,-243.78 1068.78,-236.89"/>
</g>
<!-- Node56&#45;&gt;Node55 -->
<g id="edge63" class="edge">
<title>Node56&#45;&gt;Node55</title>
<path fill="none" stroke="midnightblue" d="M1289.43,-283.32C1201.23,-272.09 1006.89,-247.34 936.29,-238.35"/>
<polygon fill="midnightblue" stroke="midnightblue" points="936.42,-234.84 926.06,-237.05 935.54,-241.78 936.42,-234.84"/>
</g>
<!-- Node43 -->
<g id="node39" class="node">
<title>Node43</title>
<g id="a_node39"><a xlink:href="expr_8h.html" target="_top" xlink:title=" ">
<polygon fill="none" stroke="red" points="1204.5,-224.5 1204.5,-243.5 1251.5,-243.5 1251.5,-224.5 1204.5,-224.5"/>
<text text-anchor="middle" x="1228" y="-231.5" font-family="Helvetica,sans-Serif" font-size="10.00">expr.h</text>
</a>
</g>
</g>
<!-- Node56&#45;&gt;Node43 -->
<g id="edge64" class="edge">
<title>Node56&#45;&gt;Node43</title>
<path fill="none" stroke="midnightblue" d="M1316.97,-280.32C1299.97,-271.66 1273.62,-258.24 1254.01,-248.25"/>
<polygon fill="midnightblue" stroke="midnightblue" points="1255.49,-245.08 1244.99,-243.65 1252.31,-251.31 1255.49,-245.08"/>
</g>
<!-- Node57 -->
<g id="node40" class="node">
<title>Node57</title>
<g id="a_node40"><a xlink:href="interval__template_8h.html" target="_top" xlink:title=" ">
<polygon fill="none" stroke="black" points="1438.5,-224.5 1438.5,-243.5 1569.5,-243.5 1569.5,-224.5 1438.5,-224.5"/>
<text text-anchor="middle" x="1504" y="-231.5" font-family="Helvetica,sans-Serif" font-size="10.00">util/interval_template.h</text>
</a>
</g>
</g>
<!-- Node56&#45;&gt;Node57 -->
<g id="edge67" class="edge">
<title>Node56&#45;&gt;Node57</title>
<path fill="none" stroke="midnightblue" d="M1360.94,-280.44C1389.66,-271.32 1435.33,-256.81 1467.32,-246.65"/>
<polygon fill="midnightblue" stroke="midnightblue" points="1468.72,-249.88 1477.19,-243.52 1466.6,-243.21 1468.72,-249.88"/>
</g>
<!-- Node51 -->
<g id="node42" class="node">
<title>Node51</title>
<g id="a_node42"><a xlink:href="mp__arith_8h.html" target="_top" xlink:title=" ">
<polygon fill="none" stroke="red" points="1596.5,-112.5 1596.5,-131.5 1665.5,-131.5 1665.5,-112.5 1596.5,-112.5"/>
<text text-anchor="middle" x="1631" y="-119.5" font-family="Helvetica,sans-Serif" font-size="10.00">mp_arith.h</text>
</a>
</g>
</g>
<!-- Node56&#45;&gt;Node51 -->
<g id="edge72" class="edge">
<title>Node56&#45;&gt;Node51</title>
<path fill="none" stroke="midnightblue" d="M1378.57,-286.99C1433.46,-283.31 1528.76,-272.97 1605,-244 1648.69,-227.4 1671.41,-228.91 1694,-188 1705.5,-167.18 1681.37,-148.25 1659.73,-136.26"/>
<polygon fill="midnightblue" stroke="midnightblue" points="1661.2,-133.08 1650.72,-131.56 1657.97,-139.29 1661.2,-133.08"/>
</g>
<!-- Node59 -->
<g id="node43" class="node">
<title>Node59</title>
<g id="a_node43"><a xlink:href="numbering_8h.html" target="_top" xlink:title=" ">
<polygon fill="none" stroke="black" points="1370.5,-168.5 1370.5,-187.5 1467.5,-187.5 1467.5,-168.5 1370.5,-168.5"/>
<text text-anchor="middle" x="1419" y="-175.5" font-family="Helvetica,sans-Serif" font-size="10.00">util/numbering.h</text>
</a>
</g>
</g>
<!-- Node56&#45;&gt;Node59 -->
<g id="edge75" class="edge">
<title>Node56&#45;&gt;Node59</title>
<path fill="none" stroke="midnightblue" d="M1348.8,-280.28C1361.42,-272.22 1379.33,-259.2 1391,-244 1401.74,-230 1409.24,-211.25 1413.76,-197.49"/>
<polygon fill="midnightblue" stroke="midnightblue" points="1417.17,-198.29 1416.75,-187.71 1410.48,-196.25 1417.17,-198.29"/>
</g>
<!-- Node60 -->
<g id="node45" class="node">
<title>Node60</title>
<g id="a_node45"><a xlink:href="union__find_8h.html" target="_top" xlink:title=" ">
<polygon fill="none" stroke="black" points="1286.5,-224.5 1286.5,-243.5 1381.5,-243.5 1381.5,-224.5 1286.5,-224.5"/>
<text text-anchor="middle" x="1334" y="-231.5" font-family="Helvetica,sans-Serif" font-size="10.00">util/union_find.h</text>
</a>
</g>
</g>
<!-- Node56&#45;&gt;Node60 -->
<g id="edge81" class="edge">
<title>Node56&#45;&gt;Node60</title>
<path fill="none" stroke="midnightblue" d="M1334,-280.08C1334,-273.01 1334,-262.86 1334,-253.99"/>
<polygon fill="midnightblue" stroke="midnightblue" points="1337.5,-253.75 1334,-243.75 1330.5,-253.75 1337.5,-253.75"/>
</g>
<!-- Node43&#45;&gt;Node28 -->
<g id="edge65" class="edge">
<title>Node43&#45;&gt;Node28</title>
<path fill="none" stroke="midnightblue" d="M1227.96,-224.11C1227.4,-210.21 1224.26,-183.34 1209,-168 1201.25,-160.21 1143.78,-144.48 1102.04,-133.84"/>
<polygon fill="midnightblue" stroke="midnightblue" points="1102.88,-130.45 1092.33,-131.39 1101.17,-137.23 1102.88,-130.45"/>
</g>
<!-- Node43&#45;&gt;Node31 -->
<g id="edge66" class="edge">
<title>Node43&#45;&gt;Node31</title>
<path fill="none" stroke="midnightblue" d="M1218.2,-224.32C1209.18,-216.34 1195.59,-204.31 1184.68,-194.65"/>
<polygon fill="midnightblue" stroke="midnightblue" points="1186.79,-191.84 1176.98,-187.83 1182.15,-197.08 1186.79,-191.84"/>
</g>
<!-- Node57&#45;&gt;Node3 -->
<g id="edge71" class="edge">
<title>Node57&#45;&gt;Node3</title>
<path fill="none" stroke="midnightblue" d="M1525.87,-224.44C1548.78,-215.48 1584.98,-201.31 1610.87,-191.18"/>
<polygon fill="midnightblue" stroke="midnightblue" points="1612.2,-194.42 1620.24,-187.52 1609.65,-187.9 1612.2,-194.42"/>
</g>
<!-- Node57&#45;&gt;Node4 -->
<g id="edge69" class="edge">
<title>Node57&#45;&gt;Node4</title>
<path fill="none" stroke="midnightblue" d="M1506.05,-224.25C1511.69,-199.24 1526.03,-128.19 1511,-112 1475.84,-74.14 1113.79,-84.94 1030.31,-76.35"/>
<polygon fill="midnightblue" stroke="midnightblue" points="1030.65,-72.86 1020.27,-74.97 1029.7,-79.8 1030.65,-72.86"/>
</g>
<!-- Node57&#45;&gt;Node26 -->
<g id="edge68" class="edge">
<title>Node57&#45;&gt;Node26</title>
<path fill="none" stroke="midnightblue" d="M1475.9,-224.46C1411.48,-204.89 1253.12,-156.77 1180.06,-134.57"/>
<polygon fill="midnightblue" stroke="midnightblue" points="1180.92,-131.17 1170.34,-131.61 1178.89,-137.87 1180.92,-131.17"/>
</g>
<!-- Node58 -->
<g id="node41" class="node">
<title>Node58</title>
<g id="a_node41"><a xlink:title=" ">
<polygon fill="none" stroke="#bfbfbf" points="1524.5,-168.5 1524.5,-187.5 1581.5,-187.5 1581.5,-168.5 1524.5,-168.5"/>
<text text-anchor="middle" x="1553" y="-175.5" font-family="Helvetica,sans-Serif" font-size="10.00">ostream</text>
</a>
</g>
</g>
<!-- Node57&#45;&gt;Node58 -->
<g id="edge70" class="edge">
<title>Node57&#45;&gt;Node58</title>
<path fill="none" stroke="midnightblue" d="M1512.09,-224.08C1519.16,-216.3 1529.59,-204.8 1538.15,-195.37"/>
<polygon fill="midnightblue" stroke="midnightblue" points="1540.93,-197.51 1545.06,-187.75 1535.75,-192.8 1540.93,-197.51"/>
</g>
<!-- Node51&#45;&gt;Node4 -->
<g id="edge73" class="edge">
<title>Node51&#45;&gt;Node4</title>
<path fill="none" stroke="midnightblue" d="M1596.27,-114.16C1591.49,-113.35 1586.63,-112.6 1582,-112 1373.43,-84.91 1120.83,-72.27 1030.32,-68.37"/>
<polygon fill="midnightblue" stroke="midnightblue" points="1030.23,-64.87 1020.1,-67.94 1029.94,-71.86 1030.23,-64.87"/>
</g>
<!-- Node51&#45;&gt;Node9 -->
<g id="edge74" class="edge">
<title>Node51&#45;&gt;Node9</title>
<path fill="none" stroke="midnightblue" d="M1596.27,-114.76C1590.19,-113.77 1583.92,-112.8 1578,-112 1334.96,-79.01 1273.56,-74.6 1029,-56 691.65,-30.34 281.7,-15.83 165.23,-12.02"/>
<polygon fill="midnightblue" stroke="midnightblue" points="165.3,-8.52 155.19,-11.69 165.07,-15.52 165.3,-8.52"/>
</g>
<!-- Node59&#45;&gt;Node7 -->
<g id="edge79" class="edge">
<title>Node59&#45;&gt;Node7</title>
<path fill="none" stroke="midnightblue" d="M1386.39,-168.45C1354.09,-159.96 1302.97,-146.47 1249.45,-132.11"/>
<polygon fill="midnightblue" stroke="midnightblue" points="1250.35,-128.72 1239.79,-129.51 1248.54,-135.49 1250.35,-128.72"/>
</g>
<!-- Node59&#45;&gt;Node11 -->
<g id="edge76" class="edge">
<title>Node59&#45;&gt;Node11</title>
<path fill="none" stroke="midnightblue" d="M1413.7,-168.31C1404.21,-153.66 1382.8,-124.43 1356,-112 1300.28,-86.15 878.49,-72.17 738.21,-68.2"/>
<polygon fill="midnightblue" stroke="midnightblue" points="737.93,-64.69 727.83,-67.91 737.73,-71.68 737.93,-64.69"/>
</g>
<!-- Node59&#45;&gt;Node38 -->
<g id="edge77" class="edge">
<title>Node59&#45;&gt;Node38</title>
<path fill="none" stroke="midnightblue" d="M1397.93,-168.44C1375.94,-159.52 1341.27,-145.44 1316.34,-135.32"/>
<polygon fill="midnightblue" stroke="midnightblue" points="1317.56,-132.04 1306.98,-131.52 1314.92,-138.52 1317.56,-132.04"/>
</g>
<!-- Node21 -->
<g id="node44" class="node">
<title>Node21</title>
<g id="a_node44"><a xlink:title=" ">
<polygon fill="none" stroke="#bfbfbf" points="1408.5,-112.5 1408.5,-131.5 1501.5,-131.5 1501.5,-112.5 1408.5,-112.5"/>
<text text-anchor="middle" x="1455" y="-119.5" font-family="Helvetica,sans-Serif" font-size="10.00">unordered_map</text>
</a>
</g>
</g>
<!-- Node59&#45;&gt;Node21 -->
<g id="edge78" class="edge">
<title>Node59&#45;&gt;Node21</title>
<path fill="none" stroke="midnightblue" d="M1424.94,-168.08C1429.98,-160.53 1437.34,-149.49 1443.51,-140.23"/>
<polygon fill="midnightblue" stroke="midnightblue" points="1446.53,-142.01 1449.17,-131.75 1440.71,-138.13 1446.53,-142.01"/>
</g>
<!-- Node60&#45;&gt;Node7 -->
<g id="edge82" class="edge">
<title>Node60&#45;&gt;Node7</title>
<path fill="none" stroke="midnightblue" d="M1324.74,-224.37C1304.84,-205.81 1257.74,-161.91 1232.56,-138.44"/>
<polygon fill="midnightblue" stroke="midnightblue" points="1234.92,-135.85 1225.22,-131.59 1230.14,-140.97 1234.92,-135.85"/>
</g>
<!-- Node60&#45;&gt;Node11 -->
<g id="edge83" class="edge">
<title>Node60&#45;&gt;Node11</title>
<path fill="none" stroke="midnightblue" d="M1336.46,-224.44C1342.24,-202.24 1354.02,-142.43 1323,-112 1302.12,-91.52 878.24,-73.91 737.78,-68.62"/>
<polygon fill="midnightblue" stroke="midnightblue" points="737.9,-65.12 727.77,-68.25 737.64,-72.12 737.9,-65.12"/>
</g>
<!-- Node60&#45;&gt;Node59 -->
<g id="edge84" class="edge">
<title>Node60&#45;&gt;Node59</title>
<path fill="none" stroke="midnightblue" d="M1347.66,-224.32C1360.92,-215.9 1381.27,-202.97 1396.85,-193.07"/>
<polygon fill="midnightblue" stroke="midnightblue" points="1398.81,-195.97 1405.38,-187.65 1395.06,-190.06 1398.81,-195.97"/>
</g>
<!-- Node61&#45;&gt;Node10 -->
<g id="edge86" class="edge">
<title>Node61&#45;&gt;Node10</title>
<path fill="none" stroke="midnightblue" d="M1123.49,-284.54C1048.85,-276.82 891.63,-260.22 759,-244 747.61,-242.61 735.15,-240.97 724.1,-239.47"/>
<polygon fill="midnightblue" stroke="midnightblue" points="724.39,-235.98 714.01,-238.09 723.45,-242.91 724.39,-235.98"/>
</g>
<!-- Node61&#45;&gt;Node31 -->
<g id="edge87" class="edge">
<title>Node61&#45;&gt;Node31</title>
<path fill="none" stroke="midnightblue" d="M1167,-280.37C1167,-262.62 1167,-221.67 1167,-197.6"/>
<polygon fill="midnightblue" stroke="midnightblue" points="1170.5,-197.59 1167,-187.59 1163.5,-197.59 1170.5,-197.59"/>
</g>
</g>
</svg>
