<?xml version="1.0" encoding="UTF-8" standalone="no"?>
<!DOCTYPE svg PUBLIC "-//W3C//DTD SVG 1.1//EN"
 "http://www.w3.org/Graphics/SVG/1.1/DTD/svg11.dtd">
<!-- Generated by graphviz version 2.43.0 (0)
 -->
<!-- Title: /home/runner/work/cbmc/cbmc/src/util/irep_hash_container.h Pages: 1 -->
<svg width="925pt" height="379pt"
 viewBox="0.00 0.00 924.50 379.00" xmlns="http://www.w3.org/2000/svg" xmlns:xlink="http://www.w3.org/1999/xlink">
<g id="graph0" class="graph" transform="scale(1 1) rotate(0) translate(4 375)">
<title>/home/runner/work/cbmc/cbmc/src/util/irep_hash_container.h</title>
<!-- Node1 -->
<g id="Node000001" class="node">
<title>Node1</title>
<g id="a_Node000001"><a xlink:title="IREP Hash Container.">
<polygon fill="#999999" stroke="#666666" points="743.5,-371 605.5,-371 605.5,-330 743.5,-330 743.5,-371"/>
<text text-anchor="start" x="613.5" y="-359" font-family="Helvetica,sans-Serif" font-size="10.00">/home/runner/work/cbmc</text>
<text text-anchor="start" x="613.5" y="-348" font-family="Helvetica,sans-Serif" font-size="10.00">/cbmc/src/util/irep_hash</text>
<text text-anchor="middle" x="674.5" y="-337" font-family="Helvetica,sans-Serif" font-size="10.00">_container.h</text>
</a>
</g>
</g>
<!-- Node2 -->
<g id="Node000002" class="node">
<title>Node2</title>
<g id="a_Node000002"><a xlink:title=" ">
<polygon fill="#e0e0e0" stroke="#999999" points="508.5,-294 470.5,-294 470.5,-275 508.5,-275 508.5,-294"/>
<text text-anchor="middle" x="489.5" y="-282" font-family="Helvetica,sans-Serif" font-size="10.00">map</text>
</a>
</g>
</g>
<!-- Node1&#45;&gt;Node2 -->
<g id="edge1_Node000001_Node000002" class="edge">
<title>Node1&#45;&gt;Node2</title>
<g id="a_edge1_Node000001_Node000002"><a xlink:title=" ">
<path fill="none" stroke="#63b8ff" d="M617.99,-329.95C585.01,-318.54 544.8,-304.63 518.25,-295.44"/>
<polygon fill="#63b8ff" stroke="#63b8ff" points="519.37,-292.13 508.78,-292.17 517.09,-298.75 519.37,-292.13"/>
</a>
</g>
</g>
<!-- Node3 -->
<g id="Node000003" class="node">
<title>Node3</title>
<g id="a_Node000003"><a xlink:title=" ">
<polygon fill="#e0e0e0" stroke="#999999" points="840,-74 793,-74 793,-55 840,-55 840,-74"/>
<text text-anchor="middle" x="816.5" y="-62" font-family="Helvetica,sans-Serif" font-size="10.00">vector</text>
</a>
</g>
</g>
<!-- Node1&#45;&gt;Node3 -->
<g id="edge2_Node000001_Node000003" class="edge">
<title>Node1&#45;&gt;Node3</title>
<g id="a_edge2_Node000001_Node000003"><a xlink:title=" ">
<path fill="none" stroke="#63b8ff" d="M743.52,-344.49C815.05,-335.1 916.5,-308.1 916.5,-230.5 916.5,-230.5 916.5,-230.5 916.5,-173.5 916.5,-144.04 916.01,-132.91 897.5,-110 885.19,-94.77 866.21,-83.95 849.71,-76.79"/>
<polygon fill="#63b8ff" stroke="#63b8ff" points="850.94,-73.51 840.36,-72.99 848.31,-80 850.94,-73.51"/>
</a>
</g>
</g>
<!-- Node4 -->
<g id="Node000004" class="node">
<title>Node4</title>
<g id="a_Node000004"><a xlink:href="irep_8h.html" target="_top" xlink:title=" ">
<polygon fill="white" stroke="#666666" points="570.5,-294 526.5,-294 526.5,-275 570.5,-275 570.5,-294"/>
<text text-anchor="middle" x="548.5" y="-282" font-family="Helvetica,sans-Serif" font-size="10.00">irep.h</text>
</a>
</g>
</g>
<!-- Node1&#45;&gt;Node4 -->
<g id="edge3_Node000001_Node000004" class="edge">
<title>Node1&#45;&gt;Node4</title>
<g id="a_edge3_Node000001_Node000004"><a xlink:title=" ">
<path fill="none" stroke="#63b8ff" d="M636.01,-329.95C616.1,-319.84 592.33,-307.76 574.59,-298.75"/>
<polygon fill="#63b8ff" stroke="#63b8ff" points="575.92,-295.5 565.42,-294.09 572.75,-301.74 575.92,-295.5"/>
</a>
</g>
</g>
<!-- Node27 -->
<g id="Node000027" class="node">
<title>Node27</title>
<g id="a_Node000027"><a xlink:href="numbering_8h.html" target="_top" xlink:title=" ">
<polygon fill="white" stroke="#666666" points="858.5,-184 780.5,-184 780.5,-165 858.5,-165 858.5,-184"/>
<text text-anchor="middle" x="819.5" y="-172" font-family="Helvetica,sans-Serif" font-size="10.00">numbering.h</text>
</a>
</g>
</g>
<!-- Node1&#45;&gt;Node27 -->
<g id="edge35_Node000001_Node000027" class="edge">
<title>Node1&#45;&gt;Node27</title>
<g id="a_edge35_Node000001_Node000027"><a xlink:title=" ">
<path fill="none" stroke="#63b8ff" d="M690.85,-329.88C719.56,-295.43 778.52,-224.68 805.48,-192.32"/>
<polygon fill="#63b8ff" stroke="#63b8ff" points="808.48,-194.2 812.19,-184.27 803.1,-189.72 808.48,-194.2"/>
</a>
</g>
</g>
<!-- Node4&#45;&gt;Node3 -->
<g id="edge5_Node000004_Node000003" class="edge">
<title>Node4&#45;&gt;Node3</title>
<g id="a_edge5_Node000004_Node000003"><a xlink:title=" ">
<path fill="none" stroke="#63b8ff" d="M559.01,-274.95C599.53,-241.99 745.97,-122.87 798,-80.55"/>
<polygon fill="#63b8ff" stroke="#63b8ff" points="800.23,-83.25 805.78,-74.22 795.81,-77.82 800.23,-83.25"/>
</a>
</g>
</g>
<!-- Node5 -->
<g id="Node000005" class="node">
<title>Node5</title>
<g id="a_Node000005"><a xlink:title=" ">
<polygon fill="#e0e0e0" stroke="#999999" points="450.5,-19 406.5,-19 406.5,0 450.5,0 450.5,-19"/>
<text text-anchor="middle" x="428.5" y="-7" font-family="Helvetica,sans-Serif" font-size="10.00">string</text>
</a>
</g>
</g>
<!-- Node4&#45;&gt;Node5 -->
<g id="edge4_Node000004_Node000005" class="edge">
<title>Node4&#45;&gt;Node5</title>
<g id="a_edge4_Node000004_Node000005"><a xlink:title=" ">
<path fill="none" stroke="#63b8ff" d="M536.02,-274.87C506.99,-253.93 435.44,-197.11 409.5,-129 402.69,-111.12 415.43,-57.92 423.17,-29.27"/>
<polygon fill="#63b8ff" stroke="#63b8ff" points="426.64,-29.87 425.93,-19.3 419.89,-28 426.64,-29.87"/>
</a>
</g>
</g>
<!-- Node6 -->
<g id="Node000006" class="node">
<title>Node6</title>
<g id="a_Node000006"><a xlink:href="src_2util_2invariant_8h.html" target="_top" xlink:title=" ">
<polygon fill="white" stroke="#666666" points="217,-129 148,-129 148,-110 217,-110 217,-129"/>
<text text-anchor="middle" x="182.5" y="-117" font-family="Helvetica,sans-Serif" font-size="10.00">invariant.h</text>
</a>
</g>
</g>
<!-- Node4&#45;&gt;Node6 -->
<g id="edge6_Node000004_Node000006" class="edge">
<title>Node4&#45;&gt;Node6</title>
<g id="a_edge6_Node000004_Node000006"><a xlink:title=" ">
<path fill="none" stroke="#63b8ff" d="M526.5,-277.42C523.48,-276.6 520.41,-275.77 517.5,-275 454.98,-258.45 428.1,-278 376.5,-239 346.15,-216.06 363.42,-188.49 333.5,-165 302.85,-140.94 259.51,-129.88 227.11,-124.8"/>
<polygon fill="#63b8ff" stroke="#63b8ff" points="227.41,-121.3 217.01,-123.35 226.41,-128.23 227.41,-121.3"/>
</a>
</g>
</g>
<!-- Node10 -->
<g id="Node000010" class="node">
<title>Node10</title>
<g id="a_Node000010"><a xlink:href="irep__ids_8h.html" target="_top" xlink:title="util">
<polygon fill="white" stroke="#666666" points="580.5,-239 516.5,-239 516.5,-220 580.5,-220 580.5,-239"/>
<text text-anchor="middle" x="548.5" y="-227" font-family="Helvetica,sans-Serif" font-size="10.00">irep_ids.h</text>
</a>
</g>
</g>
<!-- Node4&#45;&gt;Node10 -->
<g id="edge11_Node000004_Node000010" class="edge">
<title>Node4&#45;&gt;Node10</title>
<g id="a_edge11_Node000004_Node000010"><a xlink:title=" ">
<path fill="none" stroke="#63b8ff" d="M548.5,-274.75C548.5,-267.8 548.5,-257.85 548.5,-249.13"/>
<polygon fill="#63b8ff" stroke="#63b8ff" points="552,-249.09 548.5,-239.09 545,-249.09 552,-249.09"/>
</a>
</g>
</g>
<!-- Node22 -->
<g id="Node000022" class="node">
<title>Node22</title>
<g id="a_Node000022"><a xlink:href="forward__list__as__map_8h.html" target="_top" xlink:title=" ">
<polygon fill="white" stroke="#666666" points="265,-239 138,-239 138,-220 265,-220 265,-239"/>
<text text-anchor="middle" x="201.5" y="-227" font-family="Helvetica,sans-Serif" font-size="10.00">forward_list_as_map.h</text>
</a>
</g>
</g>
<!-- Node4&#45;&gt;Node22 -->
<g id="edge28_Node000004_Node000022" class="edge">
<title>Node4&#45;&gt;Node22</title>
<g id="a_edge28_Node000004_Node000022"><a xlink:title=" ">
<path fill="none" stroke="#63b8ff" d="M526.23,-277.03C523.31,-276.29 520.34,-275.59 517.5,-275 435.23,-258 339.55,-245.53 275.21,-238.18"/>
<polygon fill="#63b8ff" stroke="#63b8ff" points="275.49,-234.69 265.16,-237.05 274.71,-241.65 275.49,-234.69"/>
</a>
</g>
</g>
<!-- Node6&#45;&gt;Node5 -->
<g id="edge9_Node000006_Node000005" class="edge">
<title>Node6&#45;&gt;Node5</title>
<g id="a_edge9_Node000006_Node000005"><a xlink:title=" ">
<path fill="none" stroke="#63b8ff" d="M195.98,-109.81C216.74,-96.69 258.06,-71.6 295.5,-55 329.05,-40.12 369.21,-27.33 396.55,-19.34"/>
<polygon fill="#63b8ff" stroke="#63b8ff" points="397.73,-22.64 406.37,-16.51 395.79,-15.91 397.73,-22.64"/>
</a>
</g>
</g>
<!-- Node7 -->
<g id="Node000007" class="node">
<title>Node7</title>
<g id="a_Node000007"><a xlink:title=" ">
<polygon fill="#e0e0e0" stroke="#999999" points="136,-74 87,-74 87,-55 136,-55 136,-74"/>
<text text-anchor="middle" x="111.5" y="-62" font-family="Helvetica,sans-Serif" font-size="10.00">cstdlib</text>
</a>
</g>
</g>
<!-- Node6&#45;&gt;Node7 -->
<g id="edge7_Node000006_Node000007" class="edge">
<title>Node6&#45;&gt;Node7</title>
<g id="a_edge7_Node000006_Node000007"><a xlink:title=" ">
<path fill="none" stroke="#63b8ff" d="M171.09,-109.98C160.39,-102 144.16,-89.88 131.34,-80.31"/>
<polygon fill="#63b8ff" stroke="#63b8ff" points="133.22,-77.35 123.11,-74.17 129.03,-82.96 133.22,-77.35"/>
</a>
</g>
</g>
<!-- Node8 -->
<g id="Node000008" class="node">
<title>Node8</title>
<g id="a_Node000008"><a xlink:title=" ">
<polygon fill="#e0e0e0" stroke="#999999" points="210.5,-74 154.5,-74 154.5,-55 210.5,-55 210.5,-74"/>
<text text-anchor="middle" x="182.5" y="-62" font-family="Helvetica,sans-Serif" font-size="10.00">sstream</text>
</a>
</g>
</g>
<!-- Node6&#45;&gt;Node8 -->
<g id="edge8_Node000006_Node000008" class="edge">
<title>Node6&#45;&gt;Node8</title>
<g id="a_edge8_Node000006_Node000008"><a xlink:title=" ">
<path fill="none" stroke="#63b8ff" d="M182.5,-109.75C182.5,-102.8 182.5,-92.85 182.5,-84.13"/>
<polygon fill="#63b8ff" stroke="#63b8ff" points="186,-84.09 182.5,-74.09 179,-84.09 186,-84.09"/>
</a>
</g>
</g>
<!-- Node9 -->
<g id="Node000009" class="node">
<title>Node9</title>
<g id="a_Node000009"><a xlink:title=" ">
<polygon fill="#e0e0e0" stroke="#999999" points="69,-74 0,-74 0,-55 69,-55 69,-74"/>
<text text-anchor="middle" x="34.5" y="-62" font-family="Helvetica,sans-Serif" font-size="10.00">type_traits</text>
</a>
</g>
</g>
<!-- Node6&#45;&gt;Node9 -->
<g id="edge10_Node000006_Node000009" class="edge">
<title>Node6&#45;&gt;Node9</title>
<g id="a_edge10_Node000006_Node000009"><a xlink:title=" ">
<path fill="none" stroke="#63b8ff" d="M158.72,-109.98C134.27,-101.23 95.97,-87.51 68.35,-77.62"/>
<polygon fill="#63b8ff" stroke="#63b8ff" points="69.31,-74.25 58.71,-74.17 66.95,-80.84 69.31,-74.25"/>
</a>
</g>
</g>
<!-- Node11 -->
<g id="Node000011" class="node">
<title>Node11</title>
<g id="a_Node000011"><a xlink:href="dstring_8h.html" target="_top" xlink:title="Container for C&#45;Strings.">
<polygon fill="white" stroke="#666666" points="621,-184 562,-184 562,-165 621,-165 621,-184"/>
<text text-anchor="middle" x="591.5" y="-172" font-family="Helvetica,sans-Serif" font-size="10.00">dstring.h</text>
</a>
</g>
</g>
<!-- Node10&#45;&gt;Node11 -->
<g id="edge12_Node000010_Node000011" class="edge">
<title>Node10&#45;&gt;Node11</title>
<g id="a_edge12_Node000010_Node000011"><a xlink:title=" ">
<path fill="none" stroke="#63b8ff" d="M555.6,-219.75C561.67,-212.26 570.59,-201.28 578.01,-192.13"/>
<polygon fill="#63b8ff" stroke="#63b8ff" points="580.95,-194.06 584.53,-184.09 575.51,-189.65 580.95,-194.06"/>
</a>
</g>
</g>
<!-- Node21 -->
<g id="Node000021" class="node">
<title>Node21</title>
<g id="a_Node000021"><a xlink:title=" ">
<polygon fill="#e0e0e0" stroke="#999999" points="543.5,-184 469.5,-184 469.5,-165 543.5,-165 543.5,-184"/>
<text text-anchor="middle" x="506.5" y="-172" font-family="Helvetica,sans-Serif" font-size="10.00">irep_ids.def</text>
</a>
</g>
</g>
<!-- Node10&#45;&gt;Node21 -->
<g id="edge27_Node000010_Node000021" class="edge">
<title>Node10&#45;&gt;Node21</title>
<g id="a_edge27_Node000010_Node000021"><a xlink:title=" ">
<path fill="none" stroke="#63b8ff" d="M541.56,-219.75C535.63,-212.26 526.93,-201.28 519.68,-192.13"/>
<polygon fill="#63b8ff" stroke="#63b8ff" points="522.26,-189.75 513.31,-184.09 516.77,-194.1 522.26,-189.75"/>
</a>
</g>
</g>
<!-- Node11&#45;&gt;Node5 -->
<g id="edge14_Node000011_Node000005" class="edge">
<title>Node11&#45;&gt;Node5</title>
<g id="a_edge14_Node000011_Node000005"><a xlink:title=" ">
<path fill="none" stroke="#63b8ff" d="M619.88,-164.95C647.83,-154.85 684.6,-136.06 671.5,-110 653.09,-73.39 634.43,-72.76 597.5,-55 552.65,-33.43 495.89,-21.23 460.9,-15.25"/>
<polygon fill="#63b8ff" stroke="#63b8ff" points="461.21,-11.76 450.77,-13.59 460.08,-18.66 461.21,-11.76"/>
</a>
</g>
</g>
<!-- Node12 -->
<g id="Node000012" class="node">
<title>Node12</title>
<g id="a_Node000012"><a xlink:title=" ">
<polygon fill="#e0e0e0" stroke="#999999" points="662.5,-129 614.5,-129 614.5,-110 662.5,-110 662.5,-129"/>
<text text-anchor="middle" x="638.5" y="-117" font-family="Helvetica,sans-Serif" font-size="10.00">iosfwd</text>
</a>
</g>
</g>
<!-- Node11&#45;&gt;Node12 -->
<g id="edge13_Node000011_Node000012" class="edge">
<title>Node11&#45;&gt;Node12</title>
<g id="a_edge13_Node000011_Node000012"><a xlink:title=" ">
<path fill="none" stroke="#63b8ff" d="M599.26,-164.75C605.97,-157.18 615.84,-146.05 624.01,-136.84"/>
<polygon fill="#63b8ff" stroke="#63b8ff" points="626.87,-138.89 630.88,-129.09 621.63,-134.25 626.87,-138.89"/>
</a>
</g>
</g>
<!-- Node13 -->
<g id="Node000013" class="node">
<title>Node13</title>
<g id="a_Node000013"><a xlink:href="magic_8h.html" target="_top" xlink:title="Magic numbers used throughout the codebase.">
<polygon fill="white" stroke="#666666" points="474.5,-129 418.5,-129 418.5,-110 474.5,-110 474.5,-129"/>
<text text-anchor="middle" x="446.5" y="-117" font-family="Helvetica,sans-Serif" font-size="10.00">magic.h</text>
</a>
</g>
</g>
<!-- Node11&#45;&gt;Node13 -->
<g id="edge15_Node000011_Node000013" class="edge">
<title>Node11&#45;&gt;Node13</title>
<g id="a_edge15_Node000011_Node000013"><a xlink:title=" ">
<path fill="none" stroke="#63b8ff" d="M568.2,-164.98C544.25,-156.23 506.72,-142.51 479.67,-132.62"/>
<polygon fill="#63b8ff" stroke="#63b8ff" points="480.81,-129.32 470.22,-129.17 478.41,-135.89 480.81,-129.32"/>
</a>
</g>
</g>
<!-- Node15 -->
<g id="Node000015" class="node">
<title>Node15</title>
<g id="a_Node000015"><a xlink:href="string__container_8h.html" target="_top" xlink:title="Container for C&#45;Strings.">
<polygon fill="white" stroke="#666666" points="596.5,-129 492.5,-129 492.5,-110 596.5,-110 596.5,-129"/>
<text text-anchor="middle" x="544.5" y="-117" font-family="Helvetica,sans-Serif" font-size="10.00">string_container.h</text>
</a>
</g>
</g>
<!-- Node11&#45;&gt;Node15 -->
<g id="edge17_Node000011_Node000015" class="edge">
<title>Node11&#45;&gt;Node15</title>
<g id="a_edge17_Node000011_Node000015"><a xlink:title=" ">
<path fill="none" stroke="#63b8ff" d="M583.74,-164.75C577.03,-157.18 567.16,-146.05 558.99,-136.84"/>
<polygon fill="#63b8ff" stroke="#63b8ff" points="561.37,-134.25 552.12,-129.09 556.13,-138.89 561.37,-134.25"/>
</a>
</g>
</g>
<!-- Node14 -->
<g id="Node000014" class="node">
<title>Node14</title>
<g id="a_Node000014"><a xlink:title=" ">
<polygon fill="#e0e0e0" stroke="#999999" points="341,-19 288,-19 288,0 341,0 341,-19"/>
<text text-anchor="middle" x="314.5" y="-7" font-family="Helvetica,sans-Serif" font-size="10.00">cstddef</text>
</a>
</g>
</g>
<!-- Node13&#45;&gt;Node14 -->
<g id="edge16_Node000013_Node000014" class="edge">
<title>Node13&#45;&gt;Node14</title>
<g id="a_edge16_Node000013_Node000014"><a xlink:title=" ">
<path fill="none" stroke="#63b8ff" d="M418.41,-119.45C383.16,-118.92 323.9,-111.97 295.5,-74 285.31,-60.37 293.23,-41.3 301.74,-27.62"/>
<polygon fill="#63b8ff" stroke="#63b8ff" points="304.78,-29.38 307.51,-19.15 298.99,-25.44 304.78,-29.38"/>
</a>
</g>
</g>
<!-- Node15&#45;&gt;Node3 -->
<g id="edge20_Node000015_Node000003" class="edge">
<title>Node15&#45;&gt;Node3</title>
<g id="a_edge20_Node000015_Node000003"><a xlink:title=" ">
<path fill="none" stroke="#63b8ff" d="M595.99,-109.96C642.35,-102.03 712.56,-89.44 782.84,-74.02"/>
<polygon fill="#63b8ff" stroke="#63b8ff" points="783.75,-77.4 792.75,-71.82 782.23,-70.57 783.75,-77.4"/>
</a>
</g>
</g>
<!-- Node16 -->
<g id="Node000016" class="node">
<title>Node16</title>
<g id="a_Node000016"><a xlink:title=" ">
<polygon fill="#e0e0e0" stroke="#999999" points="488.5,-74 456.5,-74 456.5,-55 488.5,-55 488.5,-74"/>
<text text-anchor="middle" x="472.5" y="-62" font-family="Helvetica,sans-Serif" font-size="10.00">list</text>
</a>
</g>
</g>
<!-- Node15&#45;&gt;Node16 -->
<g id="edge18_Node000015_Node000016" class="edge">
<title>Node15&#45;&gt;Node16</title>
<g id="a_edge18_Node000015_Node000016"><a xlink:title=" ">
<path fill="none" stroke="#63b8ff" d="M532.93,-109.98C522.08,-102 505.62,-89.88 492.62,-80.31"/>
<polygon fill="#63b8ff" stroke="#63b8ff" points="494.41,-77.28 484.28,-74.17 490.26,-82.92 494.41,-77.28"/>
</a>
</g>
</g>
<!-- Node17 -->
<g id="Node000017" class="node">
<title>Node17</title>
<g id="a_Node000017"><a xlink:title=" ">
<polygon fill="#e0e0e0" stroke="#999999" points="775,-74 682,-74 682,-55 775,-55 775,-74"/>
<text text-anchor="middle" x="728.5" y="-62" font-family="Helvetica,sans-Serif" font-size="10.00">unordered_map</text>
</a>
</g>
</g>
<!-- Node15&#45;&gt;Node17 -->
<g id="edge19_Node000015_Node000017" class="edge">
<title>Node15&#45;&gt;Node17</title>
<g id="a_edge19_Node000015_Node000017"><a xlink:title=" ">
<path fill="none" stroke="#63b8ff" d="M574.06,-109.98C605.22,-101.01 654.47,-86.82 688.96,-76.89"/>
<polygon fill="#63b8ff" stroke="#63b8ff" points="690.07,-80.21 698.71,-74.08 688.13,-73.49 690.07,-80.21"/>
</a>
</g>
</g>
<!-- Node18 -->
<g id="Node000018" class="node">
<title>Node18</title>
<g id="a_Node000018"><a xlink:href="memory__units_8h.html" target="_top" xlink:title=" ">
<polygon fill="white" stroke="#666666" points="400.5,-74 304.5,-74 304.5,-55 400.5,-55 400.5,-74"/>
<text text-anchor="middle" x="352.5" y="-62" font-family="Helvetica,sans-Serif" font-size="10.00">memory_units.h</text>
</a>
</g>
</g>
<!-- Node15&#45;&gt;Node18 -->
<g id="edge21_Node000015_Node000018" class="edge">
<title>Node15&#45;&gt;Node18</title>
<g id="a_edge21_Node000015_Node000018"><a xlink:title=" ">
<path fill="none" stroke="#63b8ff" d="M513.65,-109.98C481,-100.97 429.3,-86.7 393.3,-76.76"/>
<polygon fill="#63b8ff" stroke="#63b8ff" points="394.16,-73.37 383.59,-74.08 392.3,-80.12 394.16,-73.37"/>
</a>
</g>
</g>
<!-- Node19 -->
<g id="Node000019" class="node">
<title>Node19</title>
<g id="a_Node000019"><a xlink:href="string__hash_8h.html" target="_top" xlink:title="string hashing">
<polygon fill="white" stroke="#666666" points="588.5,-74 506.5,-74 506.5,-55 588.5,-55 588.5,-74"/>
<text text-anchor="middle" x="547.5" y="-62" font-family="Helvetica,sans-Serif" font-size="10.00">string_hash.h</text>
</a>
</g>
</g>
<!-- Node15&#45;&gt;Node19 -->
<g id="edge24_Node000015_Node000019" class="edge">
<title>Node15&#45;&gt;Node19</title>
<g id="a_edge24_Node000015_Node000019"><a xlink:title=" ">
<path fill="none" stroke="#63b8ff" d="M545,-109.75C545.39,-102.8 545.95,-92.85 546.45,-84.13"/>
<polygon fill="#63b8ff" stroke="#63b8ff" points="549.94,-84.27 547.01,-74.09 542.95,-83.88 549.94,-84.27"/>
</a>
</g>
</g>
<!-- Node18&#45;&gt;Node5 -->
<g id="edge23_Node000018_Node000005" class="edge">
<title>Node18&#45;&gt;Node5</title>
<g id="a_edge23_Node000018_Node000005"><a xlink:title=" ">
<path fill="none" stroke="#63b8ff" d="M364.71,-54.98C376.28,-46.92 393.88,-34.65 407.66,-25.03"/>
<polygon fill="#63b8ff" stroke="#63b8ff" points="409.87,-27.76 416.07,-19.17 405.86,-22.02 409.87,-27.76"/>
</a>
</g>
</g>
<!-- Node18&#45;&gt;Node14 -->
<g id="edge22_Node000018_Node000014" class="edge">
<title>Node18&#45;&gt;Node14</title>
<g id="a_edge22_Node000018_Node000014"><a xlink:title=" ">
<path fill="none" stroke="#63b8ff" d="M346.23,-54.75C340.91,-47.34 333.14,-36.5 326.62,-27.41"/>
<polygon fill="#63b8ff" stroke="#63b8ff" points="329.33,-25.18 320.66,-19.09 323.64,-29.26 329.33,-25.18"/>
</a>
</g>
</g>
<!-- Node19&#45;&gt;Node5 -->
<g id="edge25_Node000019_Node000005" class="edge">
<title>Node19&#45;&gt;Node5</title>
<g id="a_edge25_Node000019_Node000005"><a xlink:title=" ">
<path fill="none" stroke="#63b8ff" d="M528.38,-54.98C509.15,-46.42 479.27,-33.11 457.19,-23.28"/>
<polygon fill="#63b8ff" stroke="#63b8ff" points="458.53,-20.04 447.97,-19.17 455.68,-26.44 458.53,-20.04"/>
</a>
</g>
</g>
<!-- Node20 -->
<g id="Node000020" class="node">
<title>Node20</title>
<g id="a_Node000020"><a xlink:title=" ">
<polygon fill="#e0e0e0" stroke="#999999" points="584,-19 511,-19 511,0 584,0 584,-19"/>
<text text-anchor="middle" x="547.5" y="-7" font-family="Helvetica,sans-Serif" font-size="10.00">string_view</text>
</a>
</g>
</g>
<!-- Node19&#45;&gt;Node20 -->
<g id="edge26_Node000019_Node000020" class="edge">
<title>Node19&#45;&gt;Node20</title>
<g id="a_edge26_Node000019_Node000020"><a xlink:title=" ">
<path fill="none" stroke="#63b8ff" d="M547.5,-54.75C547.5,-47.8 547.5,-37.85 547.5,-29.13"/>
<polygon fill="#63b8ff" stroke="#63b8ff" points="551,-29.09 547.5,-19.09 544,-29.09 551,-29.09"/>
</a>
</g>
</g>
<!-- Node23 -->
<g id="Node000023" class="node">
<title>Node23</title>
<g id="a_Node000023"><a xlink:title=" ">
<polygon fill="#e0e0e0" stroke="#999999" points="146.5,-184 82.5,-184 82.5,-165 146.5,-165 146.5,-184"/>
<text text-anchor="middle" x="114.5" y="-172" font-family="Helvetica,sans-Serif" font-size="10.00">algorithm</text>
</a>
</g>
</g>
<!-- Node22&#45;&gt;Node23 -->
<g id="edge29_Node000022_Node000023" class="edge">
<title>Node22&#45;&gt;Node23</title>
<g id="a_edge29_Node000022_Node000023"><a xlink:title=" ">
<path fill="none" stroke="#63b8ff" d="M187.52,-219.98C174.03,-211.77 153.37,-199.18 137.46,-189.49"/>
<polygon fill="#63b8ff" stroke="#63b8ff" points="139.09,-186.38 128.73,-184.17 135.45,-192.36 139.09,-186.38"/>
</a>
</g>
</g>
<!-- Node24 -->
<g id="Node000024" class="node">
<title>Node24</title>
<g id="a_Node000024"><a xlink:title=" ">
<polygon fill="#e0e0e0" stroke="#999999" points="238.5,-184 164.5,-184 164.5,-165 238.5,-165 238.5,-184"/>
<text text-anchor="middle" x="201.5" y="-172" font-family="Helvetica,sans-Serif" font-size="10.00">forward_list</text>
</a>
</g>
</g>
<!-- Node22&#45;&gt;Node24 -->
<g id="edge30_Node000022_Node000024" class="edge">
<title>Node22&#45;&gt;Node24</title>
<g id="a_edge30_Node000022_Node000024"><a xlink:title=" ">
<path fill="none" stroke="#63b8ff" d="M201.5,-219.75C201.5,-212.8 201.5,-202.85 201.5,-194.13"/>
<polygon fill="#63b8ff" stroke="#63b8ff" points="205,-194.09 201.5,-184.09 198,-194.09 205,-194.09"/>
</a>
</g>
</g>
<!-- Node25 -->
<g id="Node000025" class="node">
<title>Node25</title>
<g id="a_Node000025"><a xlink:href="as__const_8h.html" target="_top" xlink:title=" ">
<polygon fill="white" stroke="#666666" points="324.5,-184 256.5,-184 256.5,-165 324.5,-165 324.5,-184"/>
<text text-anchor="middle" x="290.5" y="-172" font-family="Helvetica,sans-Serif" font-size="10.00">as_const.h</text>
</a>
</g>
</g>
<!-- Node22&#45;&gt;Node25 -->
<g id="edge31_Node000022_Node000025" class="edge">
<title>Node22&#45;&gt;Node25</title>
<g id="a_edge31_Node000022_Node000025"><a xlink:title=" ">
<path fill="none" stroke="#63b8ff" d="M215.8,-219.98C229.6,-211.77 250.74,-199.18 267.01,-189.49"/>
<polygon fill="#63b8ff" stroke="#63b8ff" points="269.14,-192.29 275.94,-184.17 265.56,-186.28 269.14,-192.29"/>
</a>
</g>
</g>
<!-- Node26 -->
<g id="Node000026" class="node">
<title>Node26</title>
<g id="a_Node000026"><a xlink:href="narrow_8h.html" target="_top" xlink:title=" ">
<polygon fill="white" stroke="#666666" points="64,-184 5,-184 5,-165 64,-165 64,-184"/>
<text text-anchor="middle" x="34.5" y="-172" font-family="Helvetica,sans-Serif" font-size="10.00">narrow.h</text>
</a>
</g>
</g>
<!-- Node22&#45;&gt;Node26 -->
<g id="edge32_Node000022_Node000026" class="edge">
<title>Node22&#45;&gt;Node26</title>
<g id="a_edge32_Node000022_Node000026"><a xlink:title=" ">
<path fill="none" stroke="#63b8ff" d="M174.67,-219.98C146.63,-211.09 102.45,-197.07 71.2,-187.15"/>
<polygon fill="#63b8ff" stroke="#63b8ff" points="72.13,-183.77 61.54,-184.08 70.01,-190.44 72.13,-183.77"/>
</a>
</g>
</g>
<!-- Node26&#45;&gt;Node6 -->
<g id="edge34_Node000026_Node000006" class="edge">
<title>Node26&#45;&gt;Node6</title>
<g id="a_edge34_Node000026_Node000006"><a xlink:title=" ">
<path fill="none" stroke="#63b8ff" d="M58.28,-164.98C82.73,-156.23 121.03,-142.51 148.65,-132.62"/>
<polygon fill="#63b8ff" stroke="#63b8ff" points="150.05,-135.84 158.29,-129.17 147.69,-129.25 150.05,-135.84"/>
</a>
</g>
</g>
<!-- Node26&#45;&gt;Node9 -->
<g id="edge33_Node000026_Node000009" class="edge">
<title>Node26&#45;&gt;Node9</title>
<g id="a_edge33_Node000026_Node000009"><a xlink:title=" ">
<path fill="none" stroke="#63b8ff" d="M34.5,-164.66C34.5,-147.17 34.5,-107.8 34.5,-84.27"/>
<polygon fill="#63b8ff" stroke="#63b8ff" points="38,-84.16 34.5,-74.16 31,-84.16 38,-84.16"/>
</a>
</g>
</g>
<!-- Node27&#45;&gt;Node3 -->
<g id="edge39_Node000027_Node000003" class="edge">
<title>Node27&#45;&gt;Node3</title>
<g id="a_edge39_Node000027_Node000003"><a xlink:title=" ">
<path fill="none" stroke="#63b8ff" d="M819.25,-164.66C818.77,-147.17 817.68,-107.8 817.02,-84.27"/>
<polygon fill="#63b8ff" stroke="#63b8ff" points="820.52,-84.06 816.74,-74.16 813.52,-84.25 820.52,-84.06"/>
</a>
</g>
</g>
<!-- Node27&#45;&gt;Node6 -->
<g id="edge36_Node000027_Node000006" class="edge">
<title>Node27&#45;&gt;Node6</title>
<g id="a_edge36_Node000027_Node000006"><a xlink:title=" ">
<path fill="none" stroke="#63b8ff" d="M780.13,-170.22C667.83,-160.88 346.39,-134.14 227.46,-124.24"/>
<polygon fill="#63b8ff" stroke="#63b8ff" points="227.51,-120.73 217.25,-123.39 226.93,-127.71 227.51,-120.73"/>
</a>
</g>
</g>
<!-- Node27&#45;&gt;Node17 -->
<g id="edge38_Node000027_Node000017" class="edge">
<title>Node27&#45;&gt;Node17</title>
<g id="a_edge38_Node000027_Node000017"><a xlink:title=" ">
<path fill="none" stroke="#63b8ff" d="M812.05,-164.66C796.85,-146.61 762.02,-105.28 742.47,-82.08"/>
<polygon fill="#63b8ff" stroke="#63b8ff" points="744.92,-79.55 735.8,-74.16 739.56,-84.06 744.92,-79.55"/>
</a>
</g>
</g>
<!-- Node28 -->
<g id="Node000028" class="node">
<title>Node28</title>
<g id="a_Node000028"><a xlink:title=" ">
<polygon fill="#e0e0e0" stroke="#999999" points="888.5,-129 832.5,-129 832.5,-110 888.5,-110 888.5,-129"/>
<text text-anchor="middle" x="860.5" y="-117" font-family="Helvetica,sans-Serif" font-size="10.00">optional</text>
</a>
</g>
</g>
<!-- Node27&#45;&gt;Node28 -->
<g id="edge37_Node000027_Node000028" class="edge">
<title>Node27&#45;&gt;Node28</title>
<g id="a_edge37_Node000027_Node000028"><a xlink:title=" ">
<path fill="none" stroke="#63b8ff" d="M826.27,-164.75C832.06,-157.26 840.56,-146.28 847.64,-137.13"/>
<polygon fill="#63b8ff" stroke="#63b8ff" points="850.51,-139.14 853.86,-129.09 844.97,-134.86 850.51,-139.14"/>
</a>
</g>
</g>
</g>
</svg>
