<?xml version="1.0" encoding="UTF-8" standalone="no"?>
<!DOCTYPE svg PUBLIC "-//W3C//DTD SVG 1.1//EN"
 "http://www.w3.org/Graphics/SVG/1.1/DTD/svg11.dtd">
<!-- Generated by graphviz version 2.43.0 (0)
 -->
<!-- Title: /home/runner/work/cbmc/cbmc/jbmc/src/java_bytecode/jar_file.h Pages: 1 -->
<svg width="441pt" height="162pt"
 viewBox="0.00 0.00 441.00 162.00" xmlns="http://www.w3.org/2000/svg" xmlns:xlink="http://www.w3.org/1999/xlink">
<g id="graph0" class="graph" transform="scale(1 1) rotate(0) translate(4 158)">
<title>/home/runner/work/cbmc/cbmc/jbmc/src/java_bytecode/jar_file.h</title>
<!-- Node1 -->
<g id="node1" class="node">
<title>Node1</title>
<g id="a_node1"><a xlink:title=" ">
<polygon fill="#bfbfbf" stroke="black" points="91.5,-112.5 91.5,-153.5 255.5,-153.5 255.5,-112.5 91.5,-112.5"/>
<text text-anchor="start" x="99.5" y="-141.5" font-family="Helvetica,sans-Serif" font-size="10.00">/home/runner/work/cbmc</text>
<text text-anchor="start" x="99.5" y="-130.5" font-family="Helvetica,sans-Serif" font-size="10.00">/cbmc/jbmc/src/java_bytecode</text>
<text text-anchor="middle" x="173.5" y="-119.5" font-family="Helvetica,sans-Serif" font-size="10.00">/jar_file.h</text>
</a>
</g>
</g>
<!-- Node2 -->
<g id="node2" class="node">
<title>Node2</title>
<g id="a_node2"><a xlink:title=" ">
<polygon fill="none" stroke="#bfbfbf" points="0,-56.5 0,-75.5 93,-75.5 93,-56.5 0,-56.5"/>
<text text-anchor="middle" x="46.5" y="-63.5" font-family="Helvetica,sans-Serif" font-size="10.00">unordered_map</text>
</a>
</g>
</g>
<!-- Node1&#45;&gt;Node2 -->
<g id="edge1" class="edge">
<title>Node1&#45;&gt;Node2</title>
<path fill="none" stroke="midnightblue" d="M135.4,-112.5C115.18,-102.15 90.84,-89.69 72.75,-80.43"/>
<polygon fill="midnightblue" stroke="midnightblue" points="73.9,-77.09 63.41,-75.65 70.71,-83.32 73.9,-77.09"/>
</g>
<!-- Node3 -->
<g id="node3" class="node">
<title>Node3</title>
<g id="a_node3"><a xlink:title=" ">
<polygon fill="none" stroke="#bfbfbf" points="137.5,-0.5 137.5,-19.5 181.5,-19.5 181.5,-0.5 137.5,-0.5"/>
<text text-anchor="middle" x="159.5" y="-7.5" font-family="Helvetica,sans-Serif" font-size="10.00">string</text>
</a>
</g>
</g>
<!-- Node1&#45;&gt;Node3 -->
<g id="edge2" class="edge">
<title>Node1&#45;&gt;Node3</title>
<path fill="none" stroke="midnightblue" d="M158.47,-112.44C151.54,-102.19 144.06,-89.06 140.5,-76 136.11,-59.91 142.42,-41.7 148.92,-28.65"/>
<polygon fill="midnightblue" stroke="midnightblue" points="152.03,-30.26 153.75,-19.8 145.88,-26.9 152.03,-30.26"/>
</g>
<!-- Node4 -->
<g id="node4" class="node">
<title>Node4</title>
<g id="a_node4"><a xlink:title=" ">
<polygon fill="none" stroke="#bfbfbf" points="150,-56.5 150,-75.5 197,-75.5 197,-56.5 150,-56.5"/>
<text text-anchor="middle" x="173.5" y="-63.5" font-family="Helvetica,sans-Serif" font-size="10.00">vector</text>
</a>
</g>
</g>
<!-- Node1&#45;&gt;Node4 -->
<g id="edge3" class="edge">
<title>Node1&#45;&gt;Node4</title>
<path fill="none" stroke="midnightblue" d="M173.5,-112.5C173.5,-104.07 173.5,-94.24 173.5,-85.87"/>
<polygon fill="midnightblue" stroke="midnightblue" points="177,-85.65 173.5,-75.65 170,-85.65 177,-85.65"/>
</g>
<!-- Node5 -->
<g id="node5" class="node">
<title>Node5</title>
<g id="a_node5"><a xlink:href="optional_8h.html" target="_top" xlink:title=" ">
<polygon fill="none" stroke="black" points="334.5,-56.5 334.5,-75.5 418.5,-75.5 418.5,-56.5 334.5,-56.5"/>
<text text-anchor="middle" x="376.5" y="-63.5" font-family="Helvetica,sans-Serif" font-size="10.00">util/optional.h</text>
</a>
</g>
</g>
<!-- Node1&#45;&gt;Node5 -->
<g id="edge4" class="edge">
<title>Node1&#45;&gt;Node5</title>
<path fill="none" stroke="midnightblue" d="M234.41,-112.5C268.78,-101.49 310.58,-88.11 339.92,-78.71"/>
<polygon fill="midnightblue" stroke="midnightblue" points="341.29,-81.95 349.74,-75.57 339.15,-75.28 341.29,-81.95"/>
</g>
<!-- Node7 -->
<g id="node7" class="node">
<title>Node7</title>
<g id="a_node7"><a xlink:href="mz__zip__archive_8h.html" target="_top" xlink:title=" ">
<polygon fill="none" stroke="black" points="215,-56.5 215,-75.5 316,-75.5 316,-56.5 215,-56.5"/>
<text text-anchor="middle" x="265.5" y="-63.5" font-family="Helvetica,sans-Serif" font-size="10.00">mz_zip_archive.h</text>
</a>
</g>
</g>
<!-- Node1&#45;&gt;Node7 -->
<g id="edge6" class="edge">
<title>Node1&#45;&gt;Node7</title>
<path fill="none" stroke="midnightblue" d="M201.1,-112.5C215.21,-102.53 232.08,-90.61 245.01,-81.48"/>
<polygon fill="midnightblue" stroke="midnightblue" points="247.11,-84.28 253.25,-75.65 243.07,-78.56 247.11,-84.28"/>
</g>
<!-- Node6 -->
<g id="node6" class="node">
<title>Node6</title>
<g id="a_node6"><a xlink:title=" ">
<polygon fill="none" stroke="#bfbfbf" points="320,-0.5 320,-19.5 433,-19.5 433,-0.5 320,-0.5"/>
<text text-anchor="middle" x="376.5" y="-7.5" font-family="Helvetica,sans-Serif" font-size="10.00">nonstd/optional.hpp</text>
</a>
</g>
</g>
<!-- Node5&#45;&gt;Node6 -->
<g id="edge5" class="edge">
<title>Node5&#45;&gt;Node6</title>
<path fill="none" stroke="midnightblue" d="M376.5,-56.08C376.5,-49.01 376.5,-38.86 376.5,-29.99"/>
<polygon fill="midnightblue" stroke="midnightblue" points="380,-29.75 376.5,-19.75 373,-29.75 380,-29.75"/>
</g>
<!-- Node7&#45;&gt;Node3 -->
<g id="edge7" class="edge">
<title>Node7&#45;&gt;Node3</title>
<path fill="none" stroke="midnightblue" d="M248.47,-56.32C231.47,-47.66 205.12,-34.24 185.51,-24.25"/>
<polygon fill="midnightblue" stroke="midnightblue" points="186.99,-21.08 176.49,-19.65 183.81,-27.31 186.99,-21.08"/>
</g>
<!-- Node8 -->
<g id="node8" class="node">
<title>Node8</title>
<g id="a_node8"><a xlink:title=" ">
<polygon fill="none" stroke="#bfbfbf" points="236.5,-0.5 236.5,-19.5 294.5,-19.5 294.5,-0.5 236.5,-0.5"/>
<text text-anchor="middle" x="265.5" y="-7.5" font-family="Helvetica,sans-Serif" font-size="10.00">memory</text>
</a>
</g>
</g>
<!-- Node7&#45;&gt;Node8 -->
<g id="edge8" class="edge">
<title>Node7&#45;&gt;Node8</title>
<path fill="none" stroke="midnightblue" d="M265.5,-56.08C265.5,-49.01 265.5,-38.86 265.5,-29.99"/>
<polygon fill="midnightblue" stroke="midnightblue" points="269,-29.75 265.5,-19.75 262,-29.75 269,-29.75"/>
</g>
</g>
</svg>
