<?xml version="1.0" encoding="UTF-8" standalone="no"?>
<!DOCTYPE svg PUBLIC "-//W3C//DTD SVG 1.1//EN"
 "http://www.w3.org/Graphics/SVG/1.1/DTD/svg11.dtd">
<!-- Generated by graphviz version 2.43.0 (0)
 -->
<!-- Title: /home/runner/work/cbmc/cbmc/jbmc/src/java_bytecode/java_class_loader_limit.cpp Pages: 1 -->
<svg width="1335pt" height="722pt"
 viewBox="0.00 0.00 1335.12 722.00" xmlns="http://www.w3.org/2000/svg" xmlns:xlink="http://www.w3.org/1999/xlink">
<g id="graph0" class="graph" transform="scale(1 1) rotate(0) translate(4 718)">
<title>/home/runner/work/cbmc/cbmc/jbmc/src/java_bytecode/java_class_loader_limit.cpp</title>
<!-- Node1 -->
<g id="node1" class="node">
<title>Node1</title>
<g id="a_node1"><a xlink:title=" ">
<polygon fill="#bfbfbf" stroke="black" points="162,-672.5 162,-713.5 326,-713.5 326,-672.5 162,-672.5"/>
<text text-anchor="start" x="170" y="-701.5" font-family="Helvetica,sans-Serif" font-size="10.00">/home/runner/work/cbmc</text>
<text text-anchor="start" x="170" y="-690.5" font-family="Helvetica,sans-Serif" font-size="10.00">/cbmc/jbmc/src/java_bytecode</text>
<text text-anchor="middle" x="244" y="-679.5" font-family="Helvetica,sans-Serif" font-size="10.00">/java_class_loader_limit.cpp</text>
</a>
</g>
</g>
<!-- Node2 -->
<g id="node2" class="node">
<title>Node2</title>
<g id="a_node2"><a xlink:href="java__class__loader__limit_8h.html" target="_top" xlink:title=" ">
<polygon fill="none" stroke="black" points="174,-616.5 174,-635.5 314,-635.5 314,-616.5 174,-616.5"/>
<text text-anchor="middle" x="244" y="-623.5" font-family="Helvetica,sans-Serif" font-size="10.00">java_class_loader_limit.h</text>
</a>
</g>
</g>
<!-- Node1&#45;&gt;Node2 -->
<g id="edge1" class="edge">
<title>Node1&#45;&gt;Node2</title>
<path fill="none" stroke="midnightblue" d="M244,-672.5C244,-664.07 244,-654.24 244,-645.87"/>
<polygon fill="midnightblue" stroke="midnightblue" points="247.5,-645.65 244,-635.65 240.5,-645.65 247.5,-645.65"/>
</g>
<!-- Node11 -->
<g id="node11" class="node">
<title>Node11</title>
<g id="a_node11"><a xlink:href="src_2util_2invariant_8h.html" target="_top" xlink:title=" ">
<polygon fill="none" stroke="black" points="174.5,-56.5 174.5,-75.5 243.5,-75.5 243.5,-56.5 174.5,-56.5"/>
<text text-anchor="middle" x="209" y="-63.5" font-family="Helvetica,sans-Serif" font-size="10.00">invariant.h</text>
</a>
</g>
</g>
<!-- Node1&#45;&gt;Node11 -->
<g id="edge74" class="edge">
<title>Node1&#45;&gt;Node11</title>
<path fill="none" stroke="midnightblue" d="M161.73,-684.85C90.9,-673.65 0,-644.88 0,-571 0,-571 0,-571 0,-345 0,-234.46 8.68,-190.01 87,-112 107.76,-91.33 138.82,-80.05 164.41,-73.95"/>
<polygon fill="midnightblue" stroke="midnightblue" points="165.25,-77.35 174.27,-71.79 163.75,-70.51 165.25,-77.35"/>
</g>
<!-- Node34 -->
<g id="node27" class="node">
<title>Node34</title>
<g id="a_node27"><a xlink:href="json__parser_8h.html" target="_top" xlink:title=" ">
<polygon fill="none" stroke="black" points="344,-616.5 344,-635.5 448,-635.5 448,-616.5 344,-616.5"/>
<text text-anchor="middle" x="396" y="-623.5" font-family="Helvetica,sans-Serif" font-size="10.00">json/json_parser.h</text>
</a>
</g>
</g>
<!-- Node1&#45;&gt;Node34 -->
<g id="edge36" class="edge">
<title>Node1&#45;&gt;Node34</title>
<path fill="none" stroke="midnightblue" d="M289.61,-672.5C314.48,-661.86 344.55,-649 366.37,-639.67"/>
<polygon fill="midnightblue" stroke="midnightblue" points="367.95,-642.8 375.77,-635.65 365.2,-636.37 367.95,-642.8"/>
</g>
<!-- Node3 -->
<g id="node3" class="node">
<title>Node3</title>
<g id="a_node3"><a xlink:title=" ">
<polygon fill="none" stroke="#bfbfbf" points="172,-560.5 172,-579.5 204,-579.5 204,-560.5 172,-560.5"/>
<text text-anchor="middle" x="188" y="-567.5" font-family="Helvetica,sans-Serif" font-size="10.00">set</text>
</a>
</g>
</g>
<!-- Node2&#45;&gt;Node3 -->
<g id="edge2" class="edge">
<title>Node2&#45;&gt;Node3</title>
<path fill="none" stroke="midnightblue" d="M235,-616.32C226.81,-608.42 214.49,-596.55 204.53,-586.94"/>
<polygon fill="midnightblue" stroke="midnightblue" points="206.79,-584.26 197.16,-579.83 201.93,-589.29 206.79,-584.26"/>
</g>
<!-- Node4 -->
<g id="node4" class="node">
<title>Node4</title>
<g id="a_node4"><a xlink:title=" ">
<polygon fill="none" stroke="#bfbfbf" points="222,-560.5 222,-579.5 266,-579.5 266,-560.5 222,-560.5"/>
<text text-anchor="middle" x="244" y="-567.5" font-family="Helvetica,sans-Serif" font-size="10.00">regex</text>
</a>
</g>
</g>
<!-- Node2&#45;&gt;Node4 -->
<g id="edge3" class="edge">
<title>Node2&#45;&gt;Node4</title>
<path fill="none" stroke="midnightblue" d="M244,-616.08C244,-609.01 244,-598.86 244,-589.99"/>
<polygon fill="midnightblue" stroke="midnightblue" points="247.5,-589.75 244,-579.75 240.5,-589.75 247.5,-589.75"/>
</g>
<!-- Node5 -->
<g id="node5" class="node">
<title>Node5</title>
<g id="a_node5"><a xlink:href="src_2util_2message_8h.html" target="_top" xlink:title=" ">
<polygon fill="none" stroke="black" points="249.5,-336.5 249.5,-355.5 338.5,-355.5 338.5,-336.5 249.5,-336.5"/>
<text text-anchor="middle" x="294" y="-343.5" font-family="Helvetica,sans-Serif" font-size="10.00">util/message.h</text>
</a>
</g>
</g>
<!-- Node2&#45;&gt;Node5 -->
<g id="edge4" class="edge">
<title>Node2&#45;&gt;Node5</title>
<path fill="none" stroke="midnightblue" d="M251.32,-616.22C258.26,-607.51 268.56,-593.54 275,-580 287.92,-552.82 294,-545.1 294,-515 294,-515 294,-515 294,-457 294,-424.95 294,-387.64 294,-365.75"/>
<polygon fill="midnightblue" stroke="midnightblue" points="297.5,-365.56 294,-355.56 290.5,-365.56 297.5,-365.56"/>
</g>
<!-- Node6 -->
<g id="node6" class="node">
<title>Node6</title>
<g id="a_node6"><a xlink:title=" ">
<polygon fill="none" stroke="#bfbfbf" points="346.5,-168.5 346.5,-187.5 411.5,-187.5 411.5,-168.5 346.5,-168.5"/>
<text text-anchor="middle" x="379" y="-175.5" font-family="Helvetica,sans-Serif" font-size="10.00">functional</text>
</a>
</g>
</g>
<!-- Node5&#45;&gt;Node6 -->
<g id="edge5" class="edge">
<title>Node5&#45;&gt;Node6</title>
<path fill="none" stroke="midnightblue" d="M295.5,-336.29C297.91,-323.52 303.25,-299.18 312,-280 326.55,-248.1 350.54,-214.94 365.52,-195.68"/>
<polygon fill="midnightblue" stroke="midnightblue" points="368.43,-197.64 371.89,-187.63 362.94,-193.3 368.43,-197.64"/>
</g>
<!-- Node7 -->
<g id="node7" class="node">
<title>Node7</title>
<g id="a_node7"><a xlink:title=" ">
<polygon fill="none" stroke="#bfbfbf" points="921,-56.5 921,-75.5 969,-75.5 969,-56.5 921,-56.5"/>
<text text-anchor="middle" x="945" y="-63.5" font-family="Helvetica,sans-Serif" font-size="10.00">iosfwd</text>
</a>
</g>
</g>
<!-- Node5&#45;&gt;Node7 -->
<g id="edge6" class="edge">
<title>Node5&#45;&gt;Node7</title>
<path fill="none" stroke="midnightblue" d="M338.62,-345.59C418.02,-345.58 578.85,-340.44 614,-300 668.82,-236.93 557.01,-174.92 612,-112 650.5,-67.95 833.07,-65.3 910.34,-66.22"/>
<polygon fill="midnightblue" stroke="midnightblue" points="910.46,-69.72 920.51,-66.37 910.57,-62.72 910.46,-69.72"/>
</g>
<!-- Node8 -->
<g id="node8" class="node">
<title>Node8</title>
<g id="a_node8"><a xlink:title=" ">
<polygon fill="none" stroke="#bfbfbf" points="70,-0.5 70,-19.5 126,-19.5 126,-0.5 70,-0.5"/>
<text text-anchor="middle" x="98" y="-7.5" font-family="Helvetica,sans-Serif" font-size="10.00">sstream</text>
</a>
</g>
</g>
<!-- Node5&#45;&gt;Node8 -->
<g id="edge7" class="edge">
<title>Node5&#45;&gt;Node8</title>
<path fill="none" stroke="midnightblue" d="M249.36,-341.35C189.25,-335.63 86.43,-322.79 57,-300 10.01,-263.6 0,-238.45 0,-179 0,-179 0,-179 0,-121 0,-77.38 43.49,-43.06 72.53,-25.01"/>
<polygon fill="midnightblue" stroke="midnightblue" points="74.58,-27.86 81.38,-19.73 71,-21.85 74.58,-27.86"/>
</g>
<!-- Node9 -->
<g id="node9" class="node">
<title>Node9</title>
<g id="a_node9"><a xlink:title=" ">
<polygon fill="none" stroke="#bfbfbf" points="1077,-0.5 1077,-19.5 1121,-19.5 1121,-0.5 1077,-0.5"/>
<text text-anchor="middle" x="1099" y="-7.5" font-family="Helvetica,sans-Serif" font-size="10.00">string</text>
</a>
</g>
</g>
<!-- Node5&#45;&gt;Node9 -->
<g id="edge8" class="edge">
<title>Node5&#45;&gt;Node9</title>
<path fill="none" stroke="midnightblue" d="M300.42,-336.49C331.51,-296 471.63,-122.15 633,-56 711.94,-23.64 974.8,-14.09 1066.84,-11.7"/>
<polygon fill="midnightblue" stroke="midnightblue" points="1067.03,-15.2 1076.94,-11.45 1066.86,-8.2 1067.03,-15.2"/>
</g>
<!-- Node10 -->
<g id="node10" class="node">
<title>Node10</title>
<g id="a_node10"><a xlink:href="deprecate_8h.html" target="_top" xlink:title=" ">
<polygon fill="none" stroke="black" points="66,-280.5 66,-299.5 140,-299.5 140,-280.5 66,-280.5"/>
<text text-anchor="middle" x="103" y="-287.5" font-family="Helvetica,sans-Serif" font-size="10.00">deprecate.h</text>
</a>
</g>
</g>
<!-- Node5&#45;&gt;Node10 -->
<g id="edge9" class="edge">
<title>Node5&#45;&gt;Node10</title>
<path fill="none" stroke="midnightblue" d="M263.74,-336.44C231.04,-327.2 178.82,-312.44 142.82,-302.26"/>
<polygon fill="midnightblue" stroke="midnightblue" points="143.7,-298.87 133.12,-299.52 141.79,-305.61 143.7,-298.87"/>
</g>
<!-- Node5&#45;&gt;Node11 -->
<g id="edge10" class="edge">
<title>Node5&#45;&gt;Node11</title>
<path fill="none" stroke="midnightblue" d="M269.9,-336.42C222.9,-318.01 121.69,-269.66 100,-188 91.33,-155.35 81.22,-140.07 100,-112 114.39,-90.49 141.16,-79.25 164.56,-73.38"/>
<polygon fill="midnightblue" stroke="midnightblue" points="165.35,-76.79 174.34,-71.18 163.82,-69.96 165.35,-76.79"/>
</g>
<!-- Node14 -->
<g id="node14" class="node">
<title>Node14</title>
<g id="a_node14"><a xlink:href="source__location_8h.html" target="_top" xlink:title=" ">
<polygon fill="none" stroke="black" points="807,-280.5 807,-299.5 909,-299.5 909,-280.5 807,-280.5"/>
<text text-anchor="middle" x="858" y="-287.5" font-family="Helvetica,sans-Serif" font-size="10.00">source_location.h</text>
</a>
</g>
</g>
<!-- Node5&#45;&gt;Node14 -->
<g id="edge15" class="edge">
<title>Node5&#45;&gt;Node14</title>
<path fill="none" stroke="midnightblue" d="M338.73,-340.72C439.13,-331.1 682.57,-307.8 796.85,-296.86"/>
<polygon fill="midnightblue" stroke="midnightblue" points="797.21,-300.34 806.83,-295.9 796.54,-293.37 797.21,-300.34"/>
</g>
<!-- Node11&#45;&gt;Node8 -->
<g id="edge12" class="edge">
<title>Node11&#45;&gt;Node8</title>
<path fill="none" stroke="midnightblue" d="M191.17,-56.32C173.28,-47.62 145.52,-34.12 124.95,-24.11"/>
<polygon fill="midnightblue" stroke="midnightblue" points="126.31,-20.88 115.79,-19.65 123.25,-27.18 126.31,-20.88"/>
</g>
<!-- Node11&#45;&gt;Node9 -->
<g id="edge13" class="edge">
<title>Node11&#45;&gt;Node9</title>
<path fill="none" stroke="midnightblue" d="M243.62,-62.9C386.34,-54.24 928.16,-21.37 1066.62,-12.96"/>
<polygon fill="midnightblue" stroke="midnightblue" points="1067.2,-16.44 1076.97,-12.34 1066.78,-9.45 1067.2,-16.44"/>
</g>
<!-- Node12 -->
<g id="node12" class="node">
<title>Node12</title>
<g id="a_node12"><a xlink:title=" ">
<polygon fill="none" stroke="#bfbfbf" points="184.5,-0.5 184.5,-19.5 233.5,-19.5 233.5,-0.5 184.5,-0.5"/>
<text text-anchor="middle" x="209" y="-7.5" font-family="Helvetica,sans-Serif" font-size="10.00">cstdlib</text>
</a>
</g>
</g>
<!-- Node11&#45;&gt;Node12 -->
<g id="edge11" class="edge">
<title>Node11&#45;&gt;Node12</title>
<path fill="none" stroke="midnightblue" d="M209,-56.08C209,-49.01 209,-38.86 209,-29.99"/>
<polygon fill="midnightblue" stroke="midnightblue" points="212.5,-29.75 209,-19.75 205.5,-29.75 212.5,-29.75"/>
</g>
<!-- Node13 -->
<g id="node13" class="node">
<title>Node13</title>
<g id="a_node13"><a xlink:title=" ">
<polygon fill="none" stroke="#bfbfbf" points="308.5,-0.5 308.5,-19.5 377.5,-19.5 377.5,-0.5 308.5,-0.5"/>
<text text-anchor="middle" x="343" y="-7.5" font-family="Helvetica,sans-Serif" font-size="10.00">type_traits</text>
</a>
</g>
</g>
<!-- Node11&#45;&gt;Node13 -->
<g id="edge14" class="edge">
<title>Node11&#45;&gt;Node13</title>
<path fill="none" stroke="midnightblue" d="M230.23,-56.44C252.38,-47.52 287.32,-33.44 312.44,-23.32"/>
<polygon fill="midnightblue" stroke="midnightblue" points="313.9,-26.5 321.87,-19.52 311.28,-20.01 313.9,-26.5"/>
</g>
<!-- Node14&#45;&gt;Node9 -->
<g id="edge35" class="edge">
<title>Node14&#45;&gt;Node9</title>
<path fill="none" stroke="midnightblue" d="M909.1,-289.52C979.18,-287.04 1101.99,-270.44 1151,-188 1182.72,-134.65 1136.62,-60.65 1112.34,-27.83"/>
<polygon fill="midnightblue" stroke="midnightblue" points="1115,-25.55 1106.16,-19.72 1109.44,-29.79 1115,-25.55"/>
</g>
<!-- Node15 -->
<g id="node15" class="node">
<title>Node15</title>
<g id="a_node15"><a xlink:href="irep_8h.html" target="_top" xlink:title=" ">
<polygon fill="none" stroke="black" points="728,-224.5 728,-243.5 772,-243.5 772,-224.5 728,-224.5"/>
<text text-anchor="middle" x="750" y="-231.5" font-family="Helvetica,sans-Serif" font-size="10.00">irep.h</text>
</a>
</g>
</g>
<!-- Node14&#45;&gt;Node15 -->
<g id="edge16" class="edge">
<title>Node14&#45;&gt;Node15</title>
<path fill="none" stroke="midnightblue" d="M840.65,-280.32C823.33,-271.66 796.48,-258.24 776.5,-248.25"/>
<polygon fill="midnightblue" stroke="midnightblue" points="777.82,-245 767.31,-243.65 774.69,-251.26 777.82,-245"/>
</g>
<!-- Node32 -->
<g id="node25" class="node">
<title>Node32</title>
<g id="a_node25"><a xlink:href="optional_8h.html" target="_top" xlink:title=" ">
<polygon fill="none" stroke="black" points="973.5,-224.5 973.5,-243.5 1038.5,-243.5 1038.5,-224.5 973.5,-224.5"/>
<text text-anchor="middle" x="1006" y="-231.5" font-family="Helvetica,sans-Serif" font-size="10.00">optional.h</text>
</a>
</g>
</g>
<!-- Node14&#45;&gt;Node32 -->
<g id="edge33" class="edge">
<title>Node14&#45;&gt;Node32</title>
<path fill="none" stroke="midnightblue" d="M881.45,-280.44C906.13,-271.44 945.19,-257.19 972.98,-247.05"/>
<polygon fill="midnightblue" stroke="midnightblue" points="974.46,-250.23 982.66,-243.52 972.06,-243.66 974.46,-250.23"/>
</g>
<!-- Node15&#45;&gt;Node9 -->
<g id="edge17" class="edge">
<title>Node15&#45;&gt;Node9</title>
<path fill="none" stroke="midnightblue" d="M772.29,-231.06C814.27,-226.89 907.41,-215.16 981,-188 986.93,-185.81 1076.4,-137.19 1080,-132 1101.42,-101.08 1102.31,-55.11 1100.81,-29.66"/>
<polygon fill="midnightblue" stroke="midnightblue" points="1104.29,-29.23 1100.02,-19.54 1097.31,-29.78 1104.29,-29.23"/>
</g>
<!-- Node15&#45;&gt;Node11 -->
<g id="edge19" class="edge">
<title>Node15&#45;&gt;Node11</title>
<path fill="none" stroke="midnightblue" d="M729.32,-224.5C695.22,-210.77 624.8,-183.7 563,-168 467.4,-143.72 438.06,-161.7 344,-132 302.91,-119.03 258.47,-95.63 232.22,-80.72"/>
<polygon fill="midnightblue" stroke="midnightblue" points="233.82,-77.61 223.41,-75.65 230.33,-83.68 233.82,-77.61"/>
</g>
<!-- Node16 -->
<g id="node16" class="node">
<title>Node16</title>
<g id="a_node16"><a xlink:title=" ">
<polygon fill="none" stroke="#bfbfbf" points="506.5,-168.5 506.5,-187.5 553.5,-187.5 553.5,-168.5 506.5,-168.5"/>
<text text-anchor="middle" x="530" y="-175.5" font-family="Helvetica,sans-Serif" font-size="10.00">vector</text>
</a>
</g>
</g>
<!-- Node15&#45;&gt;Node16 -->
<g id="edge18" class="edge">
<title>Node15&#45;&gt;Node16</title>
<path fill="none" stroke="midnightblue" d="M727.69,-227.53C688.98,-218.02 609.14,-198.43 563.66,-187.26"/>
<polygon fill="midnightblue" stroke="midnightblue" points="564.24,-183.8 553.69,-184.82 562.57,-190.6 564.24,-183.8"/>
</g>
<!-- Node17 -->
<g id="node17" class="node">
<title>Node17</title>
<g id="a_node17"><a xlink:href="irep__ids_8h.html" target="_top" xlink:title=" ">
<polygon fill="none" stroke="black" points="908,-168.5 908,-187.5 972,-187.5 972,-168.5 908,-168.5"/>
<text text-anchor="middle" x="940" y="-175.5" font-family="Helvetica,sans-Serif" font-size="10.00">irep_ids.h</text>
</a>
</g>
</g>
<!-- Node15&#45;&gt;Node17 -->
<g id="edge20" class="edge">
<title>Node15&#45;&gt;Node17</title>
<path fill="none" stroke="midnightblue" d="M772.17,-226.7C803.44,-217.81 861.02,-201.45 899.91,-190.39"/>
<polygon fill="midnightblue" stroke="midnightblue" points="901.2,-193.67 909.86,-187.57 899.28,-186.93 901.2,-193.67"/>
</g>
<!-- Node27 -->
<g id="node20" class="node">
<title>Node27</title>
<g id="a_node20"><a xlink:href="forward__list__as__map_8h.html" target="_top" xlink:title=" ">
<polygon fill="none" stroke="black" points="686.5,-168.5 686.5,-187.5 813.5,-187.5 813.5,-168.5 686.5,-168.5"/>
<text text-anchor="middle" x="750" y="-175.5" font-family="Helvetica,sans-Serif" font-size="10.00">forward_list_as_map.h</text>
</a>
</g>
</g>
<!-- Node15&#45;&gt;Node27 -->
<g id="edge26" class="edge">
<title>Node15&#45;&gt;Node27</title>
<path fill="none" stroke="midnightblue" d="M750,-224.08C750,-217.01 750,-206.86 750,-197.99"/>
<polygon fill="midnightblue" stroke="midnightblue" points="753.5,-197.75 750,-187.75 746.5,-197.75 753.5,-197.75"/>
</g>
<!-- Node18 -->
<g id="node18" class="node">
<title>Node18</title>
<g id="a_node18"><a xlink:href="dstring_8h.html" target="_top" xlink:title=" ">
<polygon fill="none" stroke="red" points="1011.5,-112.5 1011.5,-131.5 1070.5,-131.5 1070.5,-112.5 1011.5,-112.5"/>
<text text-anchor="middle" x="1041" y="-119.5" font-family="Helvetica,sans-Serif" font-size="10.00">dstring.h</text>
</a>
</g>
</g>
<!-- Node17&#45;&gt;Node18 -->
<g id="edge21" class="edge">
<title>Node17&#45;&gt;Node18</title>
<path fill="none" stroke="midnightblue" d="M956.23,-168.32C972.35,-159.7 997.3,-146.36 1015.96,-136.39"/>
<polygon fill="midnightblue" stroke="midnightblue" points="1017.64,-139.46 1024.81,-131.65 1014.34,-133.28 1017.64,-139.46"/>
</g>
<!-- Node26 -->
<g id="node19" class="node">
<title>Node26</title>
<g id="a_node19"><a xlink:title=" ">
<polygon fill="none" stroke="#bfbfbf" points="919,-112.5 919,-131.5 993,-131.5 993,-112.5 919,-112.5"/>
<text text-anchor="middle" x="956" y="-119.5" font-family="Helvetica,sans-Serif" font-size="10.00">irep_ids.def</text>
</a>
</g>
</g>
<!-- Node17&#45;&gt;Node26 -->
<g id="edge25" class="edge">
<title>Node17&#45;&gt;Node26</title>
<path fill="none" stroke="midnightblue" d="M942.64,-168.08C944.79,-160.85 947.88,-150.41 950.55,-141.4"/>
<polygon fill="midnightblue" stroke="midnightblue" points="953.92,-142.33 953.41,-131.75 947.21,-140.34 953.92,-142.33"/>
</g>
<!-- Node18&#45;&gt;Node7 -->
<g id="edge22" class="edge">
<title>Node18&#45;&gt;Node7</title>
<path fill="none" stroke="midnightblue" d="M1025.58,-112.32C1010.46,-103.82 987.18,-90.73 969.53,-80.8"/>
<polygon fill="midnightblue" stroke="midnightblue" points="970.82,-77.51 960.39,-75.65 967.39,-83.61 970.82,-77.51"/>
</g>
<!-- Node18&#45;&gt;Node9 -->
<g id="edge23" class="edge">
<title>Node18&#45;&gt;Node9</title>
<path fill="none" stroke="midnightblue" d="M1045.55,-112.37C1055.04,-94.38 1077.09,-52.55 1089.71,-28.63"/>
<polygon fill="midnightblue" stroke="midnightblue" points="1092.9,-30.07 1094.47,-19.59 1086.71,-26.8 1092.9,-30.07"/>
</g>
<!-- Node18&#45;&gt;Node11 -->
<g id="edge24" class="edge">
<title>Node18&#45;&gt;Node11</title>
<path fill="none" stroke="midnightblue" d="M1011.29,-113.59C1008.17,-112.98 1005.03,-112.43 1002,-112 719.13,-71.63 374.64,-67.13 253.61,-66.88"/>
<polygon fill="midnightblue" stroke="midnightblue" points="253.61,-63.38 243.6,-66.87 253.6,-70.38 253.61,-63.38"/>
</g>
<!-- Node28 -->
<g id="node21" class="node">
<title>Node28</title>
<g id="a_node21"><a xlink:title=" ">
<polygon fill="none" stroke="#bfbfbf" points="713,-112.5 713,-131.5 777,-131.5 777,-112.5 713,-112.5"/>
<text text-anchor="middle" x="745" y="-119.5" font-family="Helvetica,sans-Serif" font-size="10.00">algorithm</text>
</a>
</g>
</g>
<!-- Node27&#45;&gt;Node28 -->
<g id="edge27" class="edge">
<title>Node27&#45;&gt;Node28</title>
<path fill="none" stroke="midnightblue" d="M749.17,-168.08C748.52,-161.01 747.58,-150.86 746.76,-141.99"/>
<polygon fill="midnightblue" stroke="midnightblue" points="750.22,-141.39 745.81,-131.75 743.25,-142.03 750.22,-141.39"/>
</g>
<!-- Node29 -->
<g id="node22" class="node">
<title>Node29</title>
<g id="a_node22"><a xlink:title=" ">
<polygon fill="none" stroke="#bfbfbf" points="621,-112.5 621,-131.5 695,-131.5 695,-112.5 621,-112.5"/>
<text text-anchor="middle" x="658" y="-119.5" font-family="Helvetica,sans-Serif" font-size="10.00">forward_list</text>
</a>
</g>
</g>
<!-- Node27&#45;&gt;Node29 -->
<g id="edge28" class="edge">
<title>Node27&#45;&gt;Node29</title>
<path fill="none" stroke="midnightblue" d="M735.22,-168.32C720.73,-159.82 698.43,-146.73 681.51,-136.8"/>
<polygon fill="midnightblue" stroke="midnightblue" points="683.14,-133.7 672.74,-131.65 679.6,-139.74 683.14,-133.7"/>
</g>
<!-- Node30 -->
<g id="node23" class="node">
<title>Node30</title>
<g id="a_node23"><a xlink:href="as__const_8h.html" target="_top" xlink:title=" ">
<polygon fill="none" stroke="black" points="795,-112.5 795,-131.5 863,-131.5 863,-112.5 795,-112.5"/>
<text text-anchor="middle" x="829" y="-119.5" font-family="Helvetica,sans-Serif" font-size="10.00">as_const.h</text>
</a>
</g>
</g>
<!-- Node27&#45;&gt;Node30 -->
<g id="edge29" class="edge">
<title>Node27&#45;&gt;Node30</title>
<path fill="none" stroke="midnightblue" d="M762.69,-168.32C774.9,-159.98 793.58,-147.21 808,-137.35"/>
<polygon fill="midnightblue" stroke="midnightblue" points="810.06,-140.19 816.34,-131.65 806.11,-134.41 810.06,-140.19"/>
</g>
<!-- Node31 -->
<g id="node24" class="node">
<title>Node31</title>
<g id="a_node24"><a xlink:href="narrow_8h.html" target="_top" xlink:title=" ">
<polygon fill="none" stroke="black" points="352.5,-112.5 352.5,-131.5 411.5,-131.5 411.5,-112.5 352.5,-112.5"/>
<text text-anchor="middle" x="382" y="-119.5" font-family="Helvetica,sans-Serif" font-size="10.00">narrow.h</text>
</a>
</g>
</g>
<!-- Node27&#45;&gt;Node31 -->
<g id="edge30" class="edge">
<title>Node27&#45;&gt;Node31</title>
<path fill="none" stroke="midnightblue" d="M691.69,-168.44C616.24,-157.37 486.78,-138.38 421.75,-128.83"/>
<polygon fill="midnightblue" stroke="midnightblue" points="421.91,-125.32 411.5,-127.33 420.89,-132.24 421.91,-125.32"/>
</g>
<!-- Node31&#45;&gt;Node11 -->
<g id="edge32" class="edge">
<title>Node31&#45;&gt;Node11</title>
<path fill="none" stroke="midnightblue" d="M354.59,-112.44C325.23,-103.28 278.48,-88.69 245.9,-78.52"/>
<polygon fill="midnightblue" stroke="midnightblue" points="246.87,-75.16 236.28,-75.52 244.79,-81.84 246.87,-75.16"/>
</g>
<!-- Node31&#45;&gt;Node13 -->
<g id="edge31" class="edge">
<title>Node31&#45;&gt;Node13</title>
<path fill="none" stroke="midnightblue" d="M378.94,-112.37C372.62,-94.54 358,-53.3 349.48,-29.27"/>
<polygon fill="midnightblue" stroke="midnightblue" points="352.69,-27.85 346.05,-19.59 346.09,-30.19 352.69,-27.85"/>
</g>
<!-- Node33 -->
<g id="node26" class="node">
<title>Node33</title>
<g id="a_node26"><a xlink:title=" ">
<polygon fill="none" stroke="#bfbfbf" points="1028.5,-168.5 1028.5,-187.5 1141.5,-187.5 1141.5,-168.5 1028.5,-168.5"/>
<text text-anchor="middle" x="1085" y="-175.5" font-family="Helvetica,sans-Serif" font-size="10.00">nonstd/optional.hpp</text>
</a>
</g>
</g>
<!-- Node32&#45;&gt;Node33 -->
<g id="edge34" class="edge">
<title>Node32&#45;&gt;Node33</title>
<path fill="none" stroke="midnightblue" d="M1018.69,-224.32C1030.9,-215.98 1049.58,-203.21 1064,-193.35"/>
<polygon fill="midnightblue" stroke="midnightblue" points="1066.06,-196.19 1072.34,-187.65 1062.11,-190.41 1066.06,-196.19"/>
</g>
<!-- Node35 -->
<g id="node28" class="node">
<title>Node35</title>
<g id="a_node28"><a xlink:title=" ">
<polygon fill="none" stroke="#bfbfbf" points="330.5,-560.5 330.5,-579.5 373.5,-579.5 373.5,-560.5 330.5,-560.5"/>
<text text-anchor="middle" x="352" y="-567.5" font-family="Helvetica,sans-Serif" font-size="10.00">stack</text>
</a>
</g>
</g>
<!-- Node34&#45;&gt;Node35 -->
<g id="edge37" class="edge">
<title>Node34&#45;&gt;Node35</title>
<path fill="none" stroke="midnightblue" d="M388.73,-616.08C382.46,-608.38 373.21,-597.03 365.57,-587.65"/>
<polygon fill="midnightblue" stroke="midnightblue" points="368.16,-585.29 359.13,-579.75 362.73,-589.71 368.16,-585.29"/>
</g>
<!-- Node36 -->
<g id="node29" class="node">
<title>Node36</title>
<g id="a_node29"><a xlink:href="parser_8h.html" target="_top" xlink:title=" ">
<polygon fill="none" stroke="black" points="602,-560.5 602,-579.5 676,-579.5 676,-560.5 602,-560.5"/>
<text text-anchor="middle" x="639" y="-567.5" font-family="Helvetica,sans-Serif" font-size="10.00">util/parser.h</text>
</a>
</g>
</g>
<!-- Node34&#45;&gt;Node36 -->
<g id="edge38" class="edge">
<title>Node34&#45;&gt;Node36</title>
<path fill="none" stroke="midnightblue" d="M434.5,-616.44C477.18,-606.96 546.02,-591.66 591.88,-581.47"/>
<polygon fill="midnightblue" stroke="midnightblue" points="592.87,-584.84 601.87,-579.25 591.35,-578 592.87,-584.84"/>
</g>
<!-- Node45 -->
<g id="node38" class="node">
<title>Node45</title>
<g id="a_node38"><a xlink:href="json_8h.html" target="_top" xlink:title=" ">
<polygon fill="none" stroke="black" points="539.5,-280.5 539.5,-299.5 604.5,-299.5 604.5,-280.5 539.5,-280.5"/>
<text text-anchor="middle" x="572" y="-287.5" font-family="Helvetica,sans-Serif" font-size="10.00">util/json.h</text>
</a>
</g>
</g>
<!-- Node34&#45;&gt;Node45 -->
<g id="edge62" class="edge">
<title>Node34&#45;&gt;Node45</title>
<path fill="none" stroke="midnightblue" d="M399.77,-616.23C415.26,-580.43 476.28,-442.25 540,-336 545.79,-326.34 553.01,-316.07 559.12,-307.78"/>
<polygon fill="midnightblue" stroke="midnightblue" points="561.99,-309.79 565.2,-299.69 556.4,-305.58 561.99,-309.79"/>
</g>
<!-- Node36&#45;&gt;Node5 -->
<g id="edge59" class="edge">
<title>Node36&#45;&gt;Node5</title>
<path fill="none" stroke="midnightblue" d="M601.91,-565.44C564.87,-560.56 507.34,-549.31 464,-524 391.39,-481.59 329.69,-399.37 305.24,-363.93"/>
<polygon fill="midnightblue" stroke="midnightblue" points="308.11,-361.92 299.6,-355.61 302.32,-365.85 308.11,-361.92"/>
</g>
<!-- Node36&#45;&gt;Node7 -->
<g id="edge39" class="edge">
<title>Node36&#45;&gt;Node7</title>
<path fill="none" stroke="midnightblue" d="M676.33,-569.74C802.92,-571.27 1208,-567.66 1208,-459 1208,-459 1208,-459 1208,-233 1208,-126.18 1050.92,-85.32 979.55,-72.27"/>
<polygon fill="midnightblue" stroke="midnightblue" points="979.72,-68.75 969.27,-70.47 978.52,-75.64 979.72,-68.75"/>
</g>
<!-- Node36&#45;&gt;Node9 -->
<g id="edge40" class="edge">
<title>Node36&#45;&gt;Node9</title>
<path fill="none" stroke="midnightblue" d="M676.44,-568.94C809.99,-568.39 1257.73,-563.59 1307,-524 1330.46,-505.15 1326,-489.1 1326,-459 1326,-459 1326,-459 1326,-121 1326,-35.51 1194.01,-16.44 1131.32,-12.2"/>
<polygon fill="midnightblue" stroke="midnightblue" points="1131.37,-8.7 1121.18,-11.6 1130.96,-15.69 1131.37,-8.7"/>
</g>
<!-- Node36&#45;&gt;Node16 -->
<g id="edge41" class="edge">
<title>Node36&#45;&gt;Node16</title>
<path fill="none" stroke="midnightblue" d="M621.35,-560.44C593.43,-545.84 539.78,-513.25 516,-468 465.39,-371.72 463.16,-327.37 497,-224 500.49,-213.34 507.57,-203.12 514.29,-195.12"/>
<polygon fill="midnightblue" stroke="midnightblue" points="516.9,-197.44 520.98,-187.66 511.7,-192.76 516.9,-197.44"/>
</g>
<!-- Node37 -->
<g id="node30" class="node">
<title>Node37</title>
<g id="a_node30"><a xlink:href="expr_8h.html" target="_top" xlink:title=" ">
<polygon fill="none" stroke="black" points="615.5,-504.5 615.5,-523.5 662.5,-523.5 662.5,-504.5 615.5,-504.5"/>
<text text-anchor="middle" x="639" y="-511.5" font-family="Helvetica,sans-Serif" font-size="10.00">expr.h</text>
</a>
</g>
</g>
<!-- Node36&#45;&gt;Node37 -->
<g id="edge42" class="edge">
<title>Node36&#45;&gt;Node37</title>
<path fill="none" stroke="midnightblue" d="M639,-560.08C639,-553.01 639,-542.86 639,-533.99"/>
<polygon fill="midnightblue" stroke="midnightblue" points="642.5,-533.75 639,-523.75 635.5,-533.75 642.5,-533.75"/>
</g>
<!-- Node44 -->
<g id="node37" class="node">
<title>Node44</title>
<g id="a_node37"><a xlink:href="file__util_8h.html" target="_top" xlink:title=" ">
<polygon fill="none" stroke="black" points="1236,-504.5 1236,-523.5 1298,-523.5 1298,-504.5 1236,-504.5"/>
<text text-anchor="middle" x="1267" y="-511.5" font-family="Helvetica,sans-Serif" font-size="10.00">file_util.h</text>
</a>
</g>
</g>
<!-- Node36&#45;&gt;Node44 -->
<g id="edge60" class="edge">
<title>Node36&#45;&gt;Node44</title>
<path fill="none" stroke="midnightblue" d="M676.34,-567.68C769.06,-564.05 1017.1,-552.29 1222,-524 1223.1,-523.85 1224.22,-523.68 1225.35,-523.51"/>
<polygon fill="midnightblue" stroke="midnightblue" points="1226.33,-526.9 1235.61,-521.78 1225.17,-519.99 1226.33,-526.9"/>
</g>
<!-- Node37&#45;&gt;Node6 -->
<g id="edge58" class="edge">
<title>Node37&#45;&gt;Node6</title>
<path fill="none" stroke="midnightblue" d="M615.4,-506.9C593.68,-500.3 561.66,-487.96 540,-468 452.24,-387.13 400.88,-247.15 384.64,-197.29"/>
<polygon fill="midnightblue" stroke="midnightblue" points="387.92,-196.06 381.56,-187.58 381.25,-198.18 387.92,-196.06"/>
</g>
<!-- Node37&#45;&gt;Node30 -->
<g id="edge43" class="edge">
<title>Node37&#45;&gt;Node30</title>
<path fill="none" stroke="midnightblue" d="M630.55,-504.27C605.58,-477.39 536.18,-394.19 574,-336 587.72,-314.9 761.31,-259.68 781,-244 805.33,-224.61 811.81,-217.03 823,-188 828.67,-173.28 829.95,-155.34 829.93,-142.05"/>
<polygon fill="midnightblue" stroke="midnightblue" points="833.43,-141.66 829.67,-131.75 826.43,-141.84 833.43,-141.66"/>
</g>
<!-- Node38 -->
<g id="node31" class="node">
<title>Node38</title>
<g id="a_node31"><a xlink:href="type_8h.html" target="_top" xlink:title=" ">
<polygon fill="none" stroke="black" points="806.5,-448.5 806.5,-467.5 853.5,-467.5 853.5,-448.5 806.5,-448.5"/>
<text text-anchor="middle" x="830" y="-455.5" font-family="Helvetica,sans-Serif" font-size="10.00">type.h</text>
</a>
</g>
</g>
<!-- Node37&#45;&gt;Node38 -->
<g id="edge44" class="edge">
<title>Node37&#45;&gt;Node38</title>
<path fill="none" stroke="midnightblue" d="M662.8,-506.27C696.59,-496.72 758.57,-479.19 796.84,-468.37"/>
<polygon fill="midnightblue" stroke="midnightblue" points="797.83,-471.73 806.5,-465.65 795.92,-465 797.83,-471.73"/>
</g>
<!-- Node41 -->
<g id="node34" class="node">
<title>Node41</title>
<g id="a_node34"><a xlink:href="validation__mode_8h.html" target="_top" xlink:title=" ">
<polygon fill="none" stroke="black" points="582.5,-336.5 582.5,-355.5 689.5,-355.5 689.5,-336.5 582.5,-336.5"/>
<text text-anchor="middle" x="636" y="-343.5" font-family="Helvetica,sans-Serif" font-size="10.00">validation_mode.h</text>
</a>
</g>
</g>
<!-- Node37&#45;&gt;Node41 -->
<g id="edge57" class="edge">
<title>Node37&#45;&gt;Node41</title>
<path fill="none" stroke="midnightblue" d="M631.85,-504.36C625.23,-495.76 615.84,-481.87 612,-468 601.99,-431.86 616.9,-388.56 627.32,-364.79"/>
<polygon fill="midnightblue" stroke="midnightblue" points="630.55,-366.16 631.56,-355.61 624.19,-363.22 630.55,-366.16"/>
</g>
<!-- Node42 -->
<g id="node35" class="node">
<title>Node42</title>
<g id="a_node35"><a xlink:href="validate__types_8h.html" target="_top" xlink:title=" ">
<polygon fill="none" stroke="black" points="632,-392.5 632,-411.5 730,-411.5 730,-392.5 632,-392.5"/>
<text text-anchor="middle" x="681" y="-399.5" font-family="Helvetica,sans-Serif" font-size="10.00">validate_types.h</text>
</a>
</g>
</g>
<!-- Node37&#45;&gt;Node42 -->
<g id="edge56" class="edge">
<title>Node37&#45;&gt;Node42</title>
<path fill="none" stroke="midnightblue" d="M662.74,-511.75C691.07,-508.84 737.33,-499.27 759,-468 774.36,-445.84 743.51,-426.95 716.2,-415.34"/>
<polygon fill="midnightblue" stroke="midnightblue" points="717.35,-412.03 706.77,-411.55 714.74,-418.53 717.35,-412.03"/>
</g>
<!-- Node43 -->
<g id="node36" class="node">
<title>Node43</title>
<g id="a_node36"><a xlink:href="validate__expressions_8h.html" target="_top" xlink:title=" ">
<polygon fill="none" stroke="black" points="620.5,-448.5 620.5,-467.5 749.5,-467.5 749.5,-448.5 620.5,-448.5"/>
<text text-anchor="middle" x="685" y="-455.5" font-family="Helvetica,sans-Serif" font-size="10.00">validate_expressions.h</text>
</a>
</g>
</g>
<!-- Node37&#45;&gt;Node43 -->
<g id="edge55" class="edge">
<title>Node37&#45;&gt;Node43</title>
<path fill="none" stroke="midnightblue" d="M646.6,-504.08C653.23,-496.3 663.02,-484.8 671.06,-475.37"/>
<polygon fill="midnightblue" stroke="midnightblue" points="673.73,-477.63 677.55,-467.75 668.4,-473.09 673.73,-477.63"/>
</g>
<!-- Node38&#45;&gt;Node14 -->
<g id="edge45" class="edge">
<title>Node38&#45;&gt;Node14</title>
<path fill="none" stroke="midnightblue" d="M837.7,-448.38C844.92,-439.79 855.42,-425.91 861,-412 873.66,-380.43 874.42,-369.73 870,-336 868.84,-327.18 866.47,-317.63 864.13,-309.61"/>
<polygon fill="midnightblue" stroke="midnightblue" points="867.4,-308.34 861.09,-299.83 860.71,-310.42 867.4,-308.34"/>
</g>
<!-- Node39 -->
<g id="node32" class="node">
<title>Node39</title>
<g id="a_node32"><a xlink:href="validate_8h.html" target="_top" xlink:title=" ">
<polygon fill="none" stroke="black" points="786.5,-392.5 786.5,-411.5 851.5,-411.5 851.5,-392.5 786.5,-392.5"/>
<text text-anchor="middle" x="819" y="-399.5" font-family="Helvetica,sans-Serif" font-size="10.00">validate.h</text>
</a>
</g>
</g>
<!-- Node38&#45;&gt;Node39 -->
<g id="edge46" class="edge">
<title>Node38&#45;&gt;Node39</title>
<path fill="none" stroke="midnightblue" d="M828.18,-448.08C826.73,-440.93 824.63,-430.64 822.81,-421.69"/>
<polygon fill="midnightblue" stroke="midnightblue" points="826.21,-420.85 820.78,-411.75 819.35,-422.25 826.21,-420.85"/>
</g>
<!-- Node38&#45;&gt;Node41 -->
<g id="edge54" class="edge">
<title>Node38&#45;&gt;Node41</title>
<path fill="none" stroke="midnightblue" d="M819.56,-448.44C803.13,-435.21 769.9,-409.53 739,-392 716.29,-379.11 689.18,-367.41 668.47,-359.16"/>
<polygon fill="midnightblue" stroke="midnightblue" points="669.75,-355.9 659.16,-355.52 667.2,-362.42 669.75,-355.9"/>
</g>
<!-- Node38&#45;&gt;Node42 -->
<g id="edge53" class="edge">
<title>Node38&#45;&gt;Node42</title>
<path fill="none" stroke="midnightblue" d="M806.39,-448.44C781.54,-439.44 742.23,-425.19 714.25,-415.05"/>
<polygon fill="midnightblue" stroke="midnightblue" points="715.09,-411.63 704.5,-411.52 712.71,-418.21 715.09,-411.63"/>
</g>
<!-- Node39&#45;&gt;Node13 -->
<g id="edge47" class="edge">
<title>Node39&#45;&gt;Node13</title>
<path fill="none" stroke="midnightblue" d="M805.92,-392.28C784.48,-378.37 740.12,-351.18 699,-336 627.37,-309.55 593.23,-344.25 531,-300 452.1,-243.9 474.86,-192.44 421,-112 400.26,-81.03 373.1,-47.15 356.91,-27.55"/>
<polygon fill="midnightblue" stroke="midnightblue" points="359.39,-25.07 350.3,-19.62 354.01,-29.54 359.39,-25.07"/>
</g>
<!-- Node40 -->
<g id="node33" class="node">
<title>Node40</title>
<g id="a_node33"><a xlink:href="exception__utils_8h.html" target="_top" xlink:title=" ">
<polygon fill="none" stroke="black" points="761,-336.5 761,-355.5 861,-355.5 861,-336.5 761,-336.5"/>
<text text-anchor="middle" x="811" y="-343.5" font-family="Helvetica,sans-Serif" font-size="10.00">exception_utils.h</text>
</a>
</g>
</g>
<!-- Node39&#45;&gt;Node40 -->
<g id="edge48" class="edge">
<title>Node39&#45;&gt;Node40</title>
<path fill="none" stroke="midnightblue" d="M817.68,-392.08C816.62,-384.93 815.09,-374.64 813.77,-365.69"/>
<polygon fill="midnightblue" stroke="midnightblue" points="817.22,-365.13 812.3,-355.75 810.3,-366.16 817.22,-365.13"/>
</g>
<!-- Node39&#45;&gt;Node41 -->
<g id="edge52" class="edge">
<title>Node39&#45;&gt;Node41</title>
<path fill="none" stroke="midnightblue" d="M790,-392.44C758.82,-383.24 709.07,-368.56 674.59,-358.39"/>
<polygon fill="midnightblue" stroke="midnightblue" points="675.44,-354.99 664.86,-355.52 673.46,-361.7 675.44,-354.99"/>
</g>
<!-- Node40&#45;&gt;Node9 -->
<g id="edge49" class="edge">
<title>Node40&#45;&gt;Node9</title>
<path fill="none" stroke="midnightblue" d="M861.22,-337.24C925.59,-325.46 1038.58,-298.4 1120,-244 1172.43,-208.97 1183.73,-173.95 1172,-112 1167.02,-85.73 1165.34,-77.9 1150,-56 1141.85,-44.36 1130.09,-33.73 1119.92,-25.72"/>
<polygon fill="midnightblue" stroke="midnightblue" points="1121.96,-22.87 1111.87,-19.65 1117.75,-28.46 1121.96,-22.87"/>
</g>
<!-- Node40&#45;&gt;Node11 -->
<g id="edge50" class="edge">
<title>Node40&#45;&gt;Node11</title>
<path fill="none" stroke="midnightblue" d="M760.98,-339.05C623.39,-322.37 246.29,-274.37 199,-244 148.12,-211.32 141.02,-167.07 166,-112 171.26,-100.4 180.8,-89.94 189.56,-82.03"/>
<polygon fill="midnightblue" stroke="midnightblue" points="191.87,-84.66 197.23,-75.52 187.34,-79.32 191.87,-84.66"/>
</g>
<!-- Node40&#45;&gt;Node14 -->
<g id="edge51" class="edge">
<title>Node40&#45;&gt;Node14</title>
<path fill="none" stroke="midnightblue" d="M818.76,-336.08C825.54,-328.3 835.54,-316.8 843.76,-307.37"/>
<polygon fill="midnightblue" stroke="midnightblue" points="846.46,-309.59 850.38,-299.75 841.18,-305 846.46,-309.59"/>
</g>
<!-- Node44&#45;&gt;Node9 -->
<g id="edge61" class="edge">
<title>Node44&#45;&gt;Node9</title>
<path fill="none" stroke="midnightblue" d="M1269.29,-504.23C1273.93,-485.69 1284,-441.07 1284,-403 1284,-403 1284,-403 1284,-121 1284,-50.76 1184.26,-24.37 1131.25,-15.3"/>
<polygon fill="midnightblue" stroke="midnightblue" points="1131.74,-11.83 1121.32,-13.7 1130.64,-18.74 1131.74,-11.83"/>
</g>
<!-- Node45&#45;&gt;Node7 -->
<g id="edge65" class="edge">
<title>Node45&#45;&gt;Node7</title>
<path fill="none" stroke="midnightblue" d="M604.58,-287.99C647.62,-285.37 724.56,-276.15 781,-244 818.06,-222.89 899.9,-123.4 931.86,-83.56"/>
<polygon fill="midnightblue" stroke="midnightblue" points="934.71,-85.6 938.21,-75.6 929.24,-81.23 934.71,-85.6"/>
</g>
<!-- Node45&#45;&gt;Node9 -->
<g id="edge66" class="edge">
<title>Node45&#45;&gt;Node9</title>
<path fill="none" stroke="midnightblue" d="M571.72,-280.25C570.73,-246.33 567.98,-124.84 579,-112 643.06,-37.35 963.19,-16.93 1066.68,-12.24"/>
<polygon fill="midnightblue" stroke="midnightblue" points="1066.99,-15.73 1076.83,-11.8 1066.68,-8.73 1066.99,-15.73"/>
</g>
<!-- Node45&#45;&gt;Node15 -->
<g id="edge67" class="edge">
<title>Node45&#45;&gt;Node15</title>
<path fill="none" stroke="midnightblue" d="M600.2,-280.44C632.28,-270.71 684.52,-254.86 718.07,-244.69"/>
<polygon fill="midnightblue" stroke="midnightblue" points="719.28,-247.98 727.83,-241.73 717.25,-241.28 719.28,-247.98"/>
</g>
<!-- Node45&#45;&gt;Node16 -->
<g id="edge63" class="edge">
<title>Node45&#45;&gt;Node16</title>
<path fill="none" stroke="midnightblue" d="M570.04,-280.41C567.04,-267.81 560.82,-243.67 553,-224 549.31,-214.73 544.36,-204.81 540,-196.65"/>
<polygon fill="midnightblue" stroke="midnightblue" points="542.98,-194.81 535.09,-187.74 536.84,-198.18 542.98,-194.81"/>
</g>
<!-- Node46 -->
<g id="node39" class="node">
<title>Node46</title>
<g id="a_node39"><a xlink:title=" ">
<polygon fill="none" stroke="#bfbfbf" points="506,-224.5 506,-243.5 544,-243.5 544,-224.5 506,-224.5"/>
<text text-anchor="middle" x="525" y="-231.5" font-family="Helvetica,sans-Serif" font-size="10.00">map</text>
</a>
</g>
</g>
<!-- Node45&#45;&gt;Node46 -->
<g id="edge64" class="edge">
<title>Node45&#45;&gt;Node46</title>
<path fill="none" stroke="midnightblue" d="M564.24,-280.08C557.46,-272.3 547.46,-260.8 539.24,-251.37"/>
<polygon fill="midnightblue" stroke="midnightblue" points="541.82,-249 532.62,-243.75 536.54,-253.59 541.82,-249"/>
</g>
<!-- Node47 -->
<g id="node40" class="node">
<title>Node47</title>
<g id="a_node40"><a xlink:href="range_8h.html" target="_top" xlink:title=" ">
<polygon fill="none" stroke="black" points="207.5,-224.5 207.5,-243.5 260.5,-243.5 260.5,-224.5 207.5,-224.5"/>
<text text-anchor="middle" x="234" y="-231.5" font-family="Helvetica,sans-Serif" font-size="10.00">range.h</text>
</a>
</g>
</g>
<!-- Node45&#45;&gt;Node47 -->
<g id="edge68" class="edge">
<title>Node45&#45;&gt;Node47</title>
<path fill="none" stroke="midnightblue" d="M539.28,-283.77C475.91,-273.65 336.82,-251.43 270.53,-240.84"/>
<polygon fill="midnightblue" stroke="midnightblue" points="270.97,-237.36 260.54,-239.24 269.86,-244.27 270.97,-237.36"/>
</g>
<!-- Node47&#45;&gt;Node6 -->
<g id="edge69" class="edge">
<title>Node47&#45;&gt;Node6</title>
<path fill="none" stroke="midnightblue" d="M256.98,-224.44C281.16,-215.44 319.42,-201.19 346.65,-191.05"/>
<polygon fill="midnightblue" stroke="midnightblue" points="347.98,-194.29 356.13,-187.52 345.54,-187.73 347.98,-194.29"/>
</g>
<!-- Node47&#45;&gt;Node11 -->
<g id="edge71" class="edge">
<title>Node47&#45;&gt;Node11</title>
<path fill="none" stroke="midnightblue" d="M213.15,-224.43C198.42,-217.13 179.8,-205.09 171,-188 152.95,-152.93 178.76,-107.7 195.89,-83.7"/>
<polygon fill="midnightblue" stroke="midnightblue" points="198.76,-85.71 201.92,-75.6 193.14,-81.53 198.76,-85.71"/>
</g>
<!-- Node47&#45;&gt;Node13 -->
<g id="edge70" class="edge">
<title>Node47&#45;&gt;Node13</title>
<path fill="none" stroke="midnightblue" d="M253.38,-224.35C268.07,-216.81 287.61,-204.49 299,-188 333.44,-138.14 340.98,-63.92 342.59,-29.62"/>
<polygon fill="midnightblue" stroke="midnightblue" points="346.09,-29.72 342.94,-19.61 339.09,-29.48 346.09,-29.72"/>
</g>
<!-- Node48 -->
<g id="node41" class="node">
<title>Node48</title>
<g id="a_node41"><a xlink:href="make__unique_8h.html" target="_top" xlink:title=" ">
<polygon fill="none" stroke="black" points="180,-168.5 180,-187.5 290,-187.5 290,-168.5 180,-168.5"/>
<text text-anchor="middle" x="235" y="-175.5" font-family="Helvetica,sans-Serif" font-size="10.00">util/make_unique.h</text>
</a>
</g>
</g>
<!-- Node47&#45;&gt;Node48 -->
<g id="edge72" class="edge">
<title>Node47&#45;&gt;Node48</title>
<path fill="none" stroke="midnightblue" d="M234.17,-224.08C234.3,-217.01 234.48,-206.86 234.65,-197.99"/>
<polygon fill="midnightblue" stroke="midnightblue" points="238.15,-197.81 234.84,-187.75 231.15,-197.68 238.15,-197.81"/>
</g>
<!-- Node49 -->
<g id="node42" class="node">
<title>Node49</title>
<g id="a_node42"><a xlink:title=" ">
<polygon fill="none" stroke="#bfbfbf" points="200,-112.5 200,-131.5 258,-131.5 258,-112.5 200,-112.5"/>
<text text-anchor="middle" x="229" y="-119.5" font-family="Helvetica,sans-Serif" font-size="10.00">memory</text>
</a>
</g>
</g>
<!-- Node48&#45;&gt;Node49 -->
<g id="edge73" class="edge">
<title>Node48&#45;&gt;Node49</title>
<path fill="none" stroke="midnightblue" d="M234.01,-168.08C233.21,-160.93 232.07,-150.64 231.08,-141.69"/>
<polygon fill="midnightblue" stroke="midnightblue" points="234.56,-141.3 229.97,-131.75 227.6,-142.08 234.56,-141.3"/>
</g>
</g>
</svg>
