<?xml version="1.0" encoding="UTF-8" standalone="no"?>
<!DOCTYPE svg PUBLIC "-//W3C//DTD SVG 1.1//EN"
 "http://www.w3.org/Graphics/SVG/1.1/DTD/svg11.dtd">
<!-- Generated by graphviz version 2.43.0 (0)
 -->
<!-- Title: /home/runner/work/cbmc/cbmc/src/json/json_parser.h Pages: 1 -->
<svg width="1233pt" height="543pt"
 viewBox="0.00 0.00 1233.00 543.00" xmlns="http://www.w3.org/2000/svg" xmlns:xlink="http://www.w3.org/1999/xlink">
<g id="graph0" class="graph" transform="scale(1 1) rotate(0) translate(4 539)">
<title>/home/runner/work/cbmc/cbmc/src/json/json_parser.h</title>
<!-- Node1 -->
<g id="node1" class="node">
<title>Node1</title>
<g id="a_node1"><a xlink:title=" ">
<polygon fill="#bfbfbf" stroke="black" points="212,-504.5 212,-534.5 366,-534.5 366,-504.5 212,-504.5"/>
<text text-anchor="start" x="220" y="-522.5" font-family="Helvetica,sans-Serif" font-size="10.00">/home/runner/work/cbmc</text>
<text text-anchor="middle" x="289" y="-511.5" font-family="Helvetica,sans-Serif" font-size="10.00">/cbmc/src/json/json_parser.h</text>
</a>
</g>
</g>
<!-- Node2 -->
<g id="node2" class="node">
<title>Node2</title>
<g id="a_node2"><a xlink:title=" ">
<polygon fill="none" stroke="#bfbfbf" points="217.5,-448.5 217.5,-467.5 260.5,-467.5 260.5,-448.5 217.5,-448.5"/>
<text text-anchor="middle" x="239" y="-455.5" font-family="Helvetica,sans-Serif" font-size="10.00">stack</text>
</a>
</g>
</g>
<!-- Node1&#45;&gt;Node2 -->
<g id="edge1" class="edge">
<title>Node1&#45;&gt;Node2</title>
<path fill="none" stroke="midnightblue" d="M277.15,-504.4C269.89,-495.75 260.55,-484.64 252.93,-475.58"/>
<polygon fill="midnightblue" stroke="midnightblue" points="255.39,-473.06 246.28,-467.66 250.03,-477.57 255.39,-473.06"/>
</g>
<!-- Node3 -->
<g id="node3" class="node">
<title>Node3</title>
<g id="a_node3"><a xlink:href="parser_8h.html" target="_top" xlink:title=" ">
<polygon fill="none" stroke="black" points="489,-448.5 489,-467.5 563,-467.5 563,-448.5 489,-448.5"/>
<text text-anchor="middle" x="526" y="-455.5" font-family="Helvetica,sans-Serif" font-size="10.00">util/parser.h</text>
</a>
</g>
</g>
<!-- Node1&#45;&gt;Node3 -->
<g id="edge2" class="edge">
<title>Node1&#45;&gt;Node3</title>
<path fill="none" stroke="midnightblue" d="M344.87,-504.47C386.82,-493.94 443.49,-479.72 482.19,-470"/>
<polygon fill="midnightblue" stroke="midnightblue" points="483.27,-473.34 492.12,-467.51 481.57,-466.55 483.27,-473.34"/>
</g>
<!-- Node41 -->
<g id="node28" class="node">
<title>Node41</title>
<g id="a_node28"><a xlink:href="json_8h.html" target="_top" xlink:title=" ">
<polygon fill="none" stroke="black" points="237.5,-224.5 237.5,-243.5 302.5,-243.5 302.5,-224.5 237.5,-224.5"/>
<text text-anchor="middle" x="270" y="-231.5" font-family="Helvetica,sans-Serif" font-size="10.00">util/json.h</text>
</a>
</g>
</g>
<!-- Node1&#45;&gt;Node41 -->
<g id="edge47" class="edge">
<title>Node1&#45;&gt;Node41</title>
<path fill="none" stroke="midnightblue" d="M289,-504.28C289,-482.48 289,-439.49 289,-403 289,-403 289,-403 289,-345 289,-312.49 280.84,-275.35 275.22,-253.61"/>
<polygon fill="midnightblue" stroke="midnightblue" points="278.54,-252.5 272.56,-243.75 271.78,-254.32 278.54,-252.5"/>
</g>
<!-- Node4 -->
<g id="node4" class="node">
<title>Node4</title>
<g id="a_node4"><a xlink:title=" ">
<polygon fill="none" stroke="#bfbfbf" points="374,-168.5 374,-187.5 422,-187.5 422,-168.5 374,-168.5"/>
<text text-anchor="middle" x="398" y="-175.5" font-family="Helvetica,sans-Serif" font-size="10.00">iosfwd</text>
</a>
</g>
</g>
<!-- Node3&#45;&gt;Node4 -->
<g id="edge3" class="edge">
<title>Node3&#45;&gt;Node4</title>
<path fill="none" stroke="midnightblue" d="M510.31,-448.4C483.33,-432.31 431,-394.94 431,-347 431,-347 431,-347 431,-289 431,-255.25 416.57,-218.03 406.79,-196.69"/>
<polygon fill="midnightblue" stroke="midnightblue" points="409.91,-195.1 402.45,-187.58 403.59,-198.11 409.91,-195.1"/>
</g>
<!-- Node5 -->
<g id="node5" class="node">
<title>Node5</title>
<g id="a_node5"><a xlink:title=" ">
<polygon fill="none" stroke="#bfbfbf" points="627,-0.5 627,-19.5 671,-19.5 671,-0.5 627,-0.5"/>
<text text-anchor="middle" x="649" y="-7.5" font-family="Helvetica,sans-Serif" font-size="10.00">string</text>
</a>
</g>
</g>
<!-- Node3&#45;&gt;Node5 -->
<g id="edge4" class="edge">
<title>Node3&#45;&gt;Node5</title>
<path fill="none" stroke="midnightblue" d="M562.58,-448.46C608.68,-435.27 682,-405.16 682,-347 682,-347 682,-347 682,-233 682,-177.02 733.34,-165.54 717,-112 715.56,-107.28 679.99,-55.63 660.88,-28.08"/>
<polygon fill="midnightblue" stroke="midnightblue" points="663.68,-25.98 655.11,-19.77 657.94,-29.98 663.68,-25.98"/>
</g>
<!-- Node6 -->
<g id="node6" class="node">
<title>Node6</title>
<g id="a_node6"><a xlink:title=" ">
<polygon fill="none" stroke="#bfbfbf" points="308.5,-56.5 308.5,-75.5 355.5,-75.5 355.5,-56.5 308.5,-56.5"/>
<text text-anchor="middle" x="332" y="-63.5" font-family="Helvetica,sans-Serif" font-size="10.00">vector</text>
</a>
</g>
</g>
<!-- Node3&#45;&gt;Node6 -->
<g id="edge5" class="edge">
<title>Node3&#45;&gt;Node6</title>
<path fill="none" stroke="midnightblue" d="M488.7,-451.28C435.98,-440.83 346,-413.29 346,-347 346,-347 346,-347 346,-177 346,-144.54 339.93,-107.12 335.78,-85.36"/>
<polygon fill="midnightblue" stroke="midnightblue" points="339.21,-84.64 333.83,-75.51 332.34,-86 339.21,-84.64"/>
</g>
<!-- Node7 -->
<g id="node7" class="node">
<title>Node7</title>
<g id="a_node7"><a xlink:href="expr_8h.html" target="_top" xlink:title=" ">
<polygon fill="none" stroke="black" points="939.5,-392.5 939.5,-411.5 986.5,-411.5 986.5,-392.5 939.5,-392.5"/>
<text text-anchor="middle" x="963" y="-399.5" font-family="Helvetica,sans-Serif" font-size="10.00">expr.h</text>
</a>
</g>
</g>
<!-- Node3&#45;&gt;Node7 -->
<g id="edge6" class="edge">
<title>Node3&#45;&gt;Node7</title>
<path fill="none" stroke="midnightblue" d="M563.26,-452.4C647.01,-442.05 849.1,-417.08 929.34,-407.16"/>
<polygon fill="midnightblue" stroke="midnightblue" points="929.89,-410.62 939.39,-405.92 929.04,-403.67 929.89,-410.62"/>
</g>
<!-- Node39 -->
<g id="node26" class="node">
<title>Node39</title>
<g id="a_node26"><a xlink:href="src_2util_2message_8h.html" target="_top" xlink:title=" ">
<polygon fill="none" stroke="black" points="491,-224.5 491,-243.5 561,-243.5 561,-224.5 491,-224.5"/>
<text text-anchor="middle" x="526" y="-231.5" font-family="Helvetica,sans-Serif" font-size="10.00">message.h</text>
</a>
</g>
</g>
<!-- Node3&#45;&gt;Node39 -->
<g id="edge37" class="edge">
<title>Node3&#45;&gt;Node39</title>
<path fill="none" stroke="midnightblue" d="M526,-448.3C526,-415.63 526,-299.87 526,-253.96"/>
<polygon fill="midnightblue" stroke="midnightblue" points="529.5,-253.88 526,-243.88 522.5,-253.88 529.5,-253.88"/>
</g>
<!-- Node40 -->
<g id="node27" class="node">
<title>Node40</title>
<g id="a_node27"><a xlink:href="file__util_8h.html" target="_top" xlink:title=" ">
<polygon fill="none" stroke="black" points="1080,-392.5 1080,-411.5 1142,-411.5 1142,-392.5 1080,-392.5"/>
<text text-anchor="middle" x="1111" y="-399.5" font-family="Helvetica,sans-Serif" font-size="10.00">file_util.h</text>
</a>
</g>
</g>
<!-- Node3&#45;&gt;Node40 -->
<g id="edge45" class="edge">
<title>Node3&#45;&gt;Node40</title>
<path fill="none" stroke="midnightblue" d="M563.04,-453.58C666.95,-443.99 960.72,-416.87 1069.67,-406.82"/>
<polygon fill="midnightblue" stroke="midnightblue" points="1070.29,-410.27 1079.92,-405.87 1069.64,-403.3 1070.29,-410.27"/>
</g>
<!-- Node8 -->
<g id="node8" class="node">
<title>Node8</title>
<g id="a_node8"><a xlink:href="as__const_8h.html" target="_top" xlink:title=" ">
<polygon fill="none" stroke="black" points="977,-0.5 977,-19.5 1045,-19.5 1045,-0.5 977,-0.5"/>
<text text-anchor="middle" x="1011" y="-7.5" font-family="Helvetica,sans-Serif" font-size="10.00">as_const.h</text>
</a>
</g>
</g>
<!-- Node7&#45;&gt;Node8 -->
<g id="edge7" class="edge">
<title>Node7&#45;&gt;Node8</title>
<path fill="none" stroke="midnightblue" d="M986.54,-400.52C1026.55,-398.73 1109.17,-390.74 1168,-356 1201.08,-336.46 1225,-329.42 1225,-291 1225,-291 1225,-291 1225,-121 1225,-90.2 1224.05,-76.42 1201,-56 1179.68,-37.12 1104.48,-23.63 1055.32,-16.6"/>
<polygon fill="midnightblue" stroke="midnightblue" points="1055.64,-13.11 1045.26,-15.2 1054.68,-20.04 1055.64,-13.11"/>
</g>
<!-- Node9 -->
<g id="node9" class="node">
<title>Node9</title>
<g id="a_node9"><a xlink:href="type_8h.html" target="_top" xlink:title=" ">
<polygon fill="none" stroke="black" points="887.5,-336.5 887.5,-355.5 934.5,-355.5 934.5,-336.5 887.5,-336.5"/>
<text text-anchor="middle" x="911" y="-343.5" font-family="Helvetica,sans-Serif" font-size="10.00">type.h</text>
</a>
</g>
</g>
<!-- Node7&#45;&gt;Node9 -->
<g id="edge8" class="edge">
<title>Node7&#45;&gt;Node9</title>
<path fill="none" stroke="midnightblue" d="M954.41,-392.08C946.84,-384.22 935.62,-372.57 926.49,-363.08"/>
<polygon fill="midnightblue" stroke="midnightblue" points="928.88,-360.53 919.43,-355.75 923.84,-365.38 928.88,-360.53"/>
</g>
<!-- Node35 -->
<g id="node22" class="node">
<title>Node35</title>
<g id="a_node22"><a xlink:href="validation__mode_8h.html" target="_top" xlink:title=" ">
<polygon fill="none" stroke="black" points="1031.5,-224.5 1031.5,-243.5 1138.5,-243.5 1138.5,-224.5 1031.5,-224.5"/>
<text text-anchor="middle" x="1085" y="-231.5" font-family="Helvetica,sans-Serif" font-size="10.00">validation_mode.h</text>
</a>
</g>
</g>
<!-- Node7&#45;&gt;Node35 -->
<g id="edge35" class="edge">
<title>Node7&#45;&gt;Node35</title>
<path fill="none" stroke="midnightblue" d="M970.39,-392.48C981.31,-379.96 1002.44,-355.92 1021,-336 1036.21,-319.67 1043.48,-318.47 1056,-300 1065.84,-285.47 1073.69,-267.06 1078.73,-253.54"/>
<polygon fill="midnightblue" stroke="midnightblue" points="1082.1,-254.51 1082.15,-243.92 1075.5,-252.17 1082.1,-254.51"/>
</g>
<!-- Node36 -->
<g id="node23" class="node">
<title>Node36</title>
<g id="a_node23"><a xlink:href="validate__types_8h.html" target="_top" xlink:title=" ">
<polygon fill="none" stroke="black" points="949,-280.5 949,-299.5 1047,-299.5 1047,-280.5 949,-280.5"/>
<text text-anchor="middle" x="998" y="-287.5" font-family="Helvetica,sans-Serif" font-size="10.00">validate_types.h</text>
</a>
</g>
</g>
<!-- Node7&#45;&gt;Node36 -->
<g id="edge34" class="edge">
<title>Node7&#45;&gt;Node36</title>
<path fill="none" stroke="midnightblue" d="M965.75,-392.37C971.42,-374.54 984.54,-333.3 992.19,-309.27"/>
<polygon fill="midnightblue" stroke="midnightblue" points="995.57,-310.18 995.27,-299.59 988.9,-308.06 995.57,-310.18"/>
</g>
<!-- Node37 -->
<g id="node24" class="node">
<title>Node37</title>
<g id="a_node24"><a xlink:href="validate__expressions_8h.html" target="_top" xlink:title=" ">
<polygon fill="none" stroke="black" points="1029.5,-336.5 1029.5,-355.5 1158.5,-355.5 1158.5,-336.5 1029.5,-336.5"/>
<text text-anchor="middle" x="1094" y="-343.5" font-family="Helvetica,sans-Serif" font-size="10.00">validate_expressions.h</text>
</a>
</g>
</g>
<!-- Node7&#45;&gt;Node37 -->
<g id="edge33" class="edge">
<title>Node7&#45;&gt;Node37</title>
<path fill="none" stroke="midnightblue" d="M983.76,-392.44C1005.32,-383.56 1039.26,-369.56 1063.79,-359.45"/>
<polygon fill="midnightblue" stroke="midnightblue" points="1065.43,-362.56 1073.34,-355.52 1062.76,-356.09 1065.43,-362.56"/>
</g>
<!-- Node38 -->
<g id="node25" class="node">
<title>Node38</title>
<g id="a_node25"><a xlink:title=" ">
<polygon fill="none" stroke="#bfbfbf" points="450.5,-112.5 450.5,-131.5 515.5,-131.5 515.5,-112.5 450.5,-112.5"/>
<text text-anchor="middle" x="483" y="-119.5" font-family="Helvetica,sans-Serif" font-size="10.00">functional</text>
</a>
</g>
</g>
<!-- Node7&#45;&gt;Node38 -->
<g id="edge36" class="edge">
<title>Node7&#45;&gt;Node38</title>
<path fill="none" stroke="midnightblue" d="M939.26,-400.98C878.11,-399.55 720,-386.63 720,-291 720,-291 720,-291 720,-233 720,-190.72 594.31,-151.68 526,-133.59"/>
<polygon fill="midnightblue" stroke="midnightblue" points="526.51,-130.11 515.95,-130.97 524.75,-136.88 526.51,-130.11"/>
</g>
<!-- Node10 -->
<g id="node10" class="node">
<title>Node10</title>
<g id="a_node10"><a xlink:href="source__location_8h.html" target="_top" xlink:title=" ">
<polygon fill="none" stroke="black" points="748,-168.5 748,-187.5 850,-187.5 850,-168.5 748,-168.5"/>
<text text-anchor="middle" x="799" y="-175.5" font-family="Helvetica,sans-Serif" font-size="10.00">source_location.h</text>
</a>
</g>
</g>
<!-- Node9&#45;&gt;Node10 -->
<g id="edge9" class="edge">
<title>Node9&#45;&gt;Node10</title>
<path fill="none" stroke="midnightblue" d="M887.43,-339.95C866.1,-334.09 835.56,-322.25 819,-300 796.51,-269.78 795.55,-223.55 797.11,-197.86"/>
<polygon fill="midnightblue" stroke="midnightblue" points="800.62,-197.88 797.93,-187.64 793.64,-197.32 800.62,-197.88"/>
</g>
<!-- Node33 -->
<g id="node20" class="node">
<title>Node33</title>
<g id="a_node20"><a xlink:href="validate_8h.html" target="_top" xlink:title=" ">
<polygon fill="none" stroke="black" points="827.5,-280.5 827.5,-299.5 892.5,-299.5 892.5,-280.5 827.5,-280.5"/>
<text text-anchor="middle" x="860" y="-287.5" font-family="Helvetica,sans-Serif" font-size="10.00">validate.h</text>
</a>
</g>
</g>
<!-- Node9&#45;&gt;Node33 -->
<g id="edge24" class="edge">
<title>Node9&#45;&gt;Node33</title>
<path fill="none" stroke="midnightblue" d="M902.58,-336.08C895.15,-328.22 884.15,-316.57 875.19,-307.08"/>
<polygon fill="midnightblue" stroke="midnightblue" points="877.68,-304.62 868.26,-299.75 872.59,-309.42 877.68,-304.62"/>
</g>
<!-- Node9&#45;&gt;Node35 -->
<g id="edge32" class="edge">
<title>Node9&#45;&gt;Node35</title>
<path fill="none" stroke="midnightblue" d="M912.56,-336.05C915.45,-322.07 923,-295.1 940,-280 954.28,-267.32 998.84,-254.58 1034.83,-245.91"/>
<polygon fill="midnightblue" stroke="midnightblue" points="1035.79,-249.28 1044.72,-243.58 1034.18,-242.47 1035.79,-249.28"/>
</g>
<!-- Node9&#45;&gt;Node36 -->
<g id="edge31" class="edge">
<title>Node9&#45;&gt;Node36</title>
<path fill="none" stroke="midnightblue" d="M924.98,-336.32C938.55,-327.9 959.38,-314.97 975.32,-305.07"/>
<polygon fill="midnightblue" stroke="midnightblue" points="977.41,-307.9 984.06,-299.65 973.71,-301.95 977.41,-307.9"/>
</g>
<!-- Node10&#45;&gt;Node5 -->
<g id="edge23" class="edge">
<title>Node10&#45;&gt;Node5</title>
<path fill="none" stroke="midnightblue" d="M793.02,-168.29C784.13,-155.53 766.69,-131.2 750,-112 722.13,-79.95 686.35,-45.58 665.71,-26.34"/>
<polygon fill="midnightblue" stroke="midnightblue" points="668.06,-23.74 658.35,-19.51 663.31,-28.88 668.06,-23.74"/>
</g>
<!-- Node11 -->
<g id="node11" class="node">
<title>Node11</title>
<g id="a_node11"><a xlink:href="deprecate_8h.html" target="_top" xlink:title=" ">
<polygon fill="none" stroke="black" points="634,-112.5 634,-131.5 708,-131.5 708,-112.5 634,-112.5"/>
<text text-anchor="middle" x="671" y="-119.5" font-family="Helvetica,sans-Serif" font-size="10.00">deprecate.h</text>
</a>
</g>
</g>
<!-- Node10&#45;&gt;Node11 -->
<g id="edge10" class="edge">
<title>Node10&#45;&gt;Node11</title>
<path fill="none" stroke="midnightblue" d="M778.72,-168.44C757.65,-159.56 724.48,-145.56 700.51,-135.45"/>
<polygon fill="midnightblue" stroke="midnightblue" points="701.76,-132.18 691.19,-131.52 699.04,-138.63 701.76,-132.18"/>
</g>
<!-- Node12 -->
<g id="node12" class="node">
<title>Node12</title>
<g id="a_node12"><a xlink:href="irep_8h.html" target="_top" xlink:title=" ">
<polygon fill="none" stroke="black" points="534,-112.5 534,-131.5 578,-131.5 578,-112.5 534,-112.5"/>
<text text-anchor="middle" x="556" y="-119.5" font-family="Helvetica,sans-Serif" font-size="10.00">irep.h</text>
</a>
</g>
</g>
<!-- Node10&#45;&gt;Node12 -->
<g id="edge11" class="edge">
<title>Node10&#45;&gt;Node12</title>
<path fill="none" stroke="midnightblue" d="M760.5,-168.44C712.92,-157.87 632.82,-140.07 588.3,-130.18"/>
<polygon fill="midnightblue" stroke="midnightblue" points="588.84,-126.71 578.32,-127.96 587.32,-133.55 588.84,-126.71"/>
</g>
<!-- Node31 -->
<g id="node18" class="node">
<title>Node31</title>
<g id="a_node18"><a xlink:href="optional_8h.html" target="_top" xlink:title=" ">
<polygon fill="none" stroke="black" points="865.5,-112.5 865.5,-131.5 930.5,-131.5 930.5,-112.5 865.5,-112.5"/>
<text text-anchor="middle" x="898" y="-119.5" font-family="Helvetica,sans-Serif" font-size="10.00">optional.h</text>
</a>
</g>
</g>
<!-- Node10&#45;&gt;Node31 -->
<g id="edge21" class="edge">
<title>Node10&#45;&gt;Node31</title>
<path fill="none" stroke="midnightblue" d="M814.91,-168.32C830.64,-159.74 854.94,-146.49 873.21,-136.52"/>
<polygon fill="midnightblue" stroke="midnightblue" points="875.03,-139.52 882.13,-131.65 871.68,-133.37 875.03,-139.52"/>
</g>
<!-- Node12&#45;&gt;Node5 -->
<g id="edge12" class="edge">
<title>Node12&#45;&gt;Node5</title>
<path fill="none" stroke="midnightblue" d="M563.3,-112.37C578.78,-94.05 615.14,-51.05 635.17,-27.36"/>
<polygon fill="midnightblue" stroke="midnightblue" points="637.95,-29.49 641.74,-19.59 632.61,-24.97 637.95,-29.49"/>
</g>
<!-- Node12&#45;&gt;Node6 -->
<g id="edge13" class="edge">
<title>Node12&#45;&gt;Node6</title>
<path fill="none" stroke="midnightblue" d="M533.65,-114.58C530.42,-113.69 527.13,-112.81 524,-112 468.85,-97.79 404.29,-83.04 365.85,-74.46"/>
<polygon fill="midnightblue" stroke="midnightblue" points="366.25,-70.96 355.73,-72.21 364.73,-77.8 366.25,-70.96"/>
</g>
<!-- Node13 -->
<g id="node13" class="node">
<title>Node13</title>
<g id="a_node13"><a xlink:href="src_2util_2invariant_8h.html" target="_top" xlink:title=" ">
<polygon fill="none" stroke="red" points="412.5,-56.5 412.5,-75.5 481.5,-75.5 481.5,-56.5 412.5,-56.5"/>
<text text-anchor="middle" x="447" y="-63.5" font-family="Helvetica,sans-Serif" font-size="10.00">invariant.h</text>
</a>
</g>
</g>
<!-- Node12&#45;&gt;Node13 -->
<g id="edge14" class="edge">
<title>Node12&#45;&gt;Node13</title>
<path fill="none" stroke="midnightblue" d="M538.49,-112.32C520.93,-103.62 493.67,-90.12 473.47,-80.11"/>
<polygon fill="midnightblue" stroke="midnightblue" points="474.98,-76.96 464.47,-75.65 471.88,-83.23 474.98,-76.96"/>
</g>
<!-- Node17 -->
<g id="node16" class="node">
<title>Node17</title>
<g id="a_node16"><a xlink:href="irep__ids_8h.html" target="_top" xlink:title=" ">
<polygon fill="none" stroke="red" points="500,-56.5 500,-75.5 564,-75.5 564,-56.5 500,-56.5"/>
<text text-anchor="middle" x="532" y="-63.5" font-family="Helvetica,sans-Serif" font-size="10.00">irep_ids.h</text>
</a>
</g>
</g>
<!-- Node12&#45;&gt;Node17 -->
<g id="edge18" class="edge">
<title>Node12&#45;&gt;Node17</title>
<path fill="none" stroke="midnightblue" d="M552.04,-112.08C548.79,-104.77 544.08,-94.18 540.05,-85.1"/>
<polygon fill="midnightblue" stroke="midnightblue" points="543.15,-83.47 535.89,-75.75 536.75,-86.31 543.15,-83.47"/>
</g>
<!-- Node27 -->
<g id="node17" class="node">
<title>Node27</title>
<g id="a_node17"><a xlink:href="forward__list__as__map_8h.html" target="_top" xlink:title=" ">
<polygon fill="none" stroke="red" points="734.5,-56.5 734.5,-75.5 861.5,-75.5 861.5,-56.5 734.5,-56.5"/>
<text text-anchor="middle" x="798" y="-63.5" font-family="Helvetica,sans-Serif" font-size="10.00">forward_list_as_map.h</text>
</a>
</g>
</g>
<!-- Node12&#45;&gt;Node27 -->
<g id="edge19" class="edge">
<title>Node12&#45;&gt;Node27</title>
<path fill="none" stroke="midnightblue" d="M578.33,-116.02C617.06,-107.38 697.49,-89.43 749.54,-77.81"/>
<polygon fill="midnightblue" stroke="midnightblue" points="750.56,-81.17 759.55,-75.58 749.03,-74.34 750.56,-81.17"/>
</g>
<!-- Node13&#45;&gt;Node5 -->
<g id="edge16" class="edge">
<title>Node13&#45;&gt;Node5</title>
<path fill="none" stroke="midnightblue" d="M479.01,-56.44C516.73,-46.36 579.06,-29.7 616.85,-19.6"/>
<polygon fill="midnightblue" stroke="midnightblue" points="618.06,-22.89 626.81,-16.93 616.25,-16.13 618.06,-22.89"/>
</g>
<!-- Node15 -->
<g id="node14" class="node">
<title>Node15</title>
<g id="a_node14"><a xlink:title=" ">
<polygon fill="none" stroke="#bfbfbf" points="356,-0.5 356,-19.5 412,-19.5 412,-0.5 356,-0.5"/>
<text text-anchor="middle" x="384" y="-7.5" font-family="Helvetica,sans-Serif" font-size="10.00">sstream</text>
</a>
</g>
</g>
<!-- Node13&#45;&gt;Node15 -->
<g id="edge15" class="edge">
<title>Node13&#45;&gt;Node15</title>
<path fill="none" stroke="midnightblue" d="M436.88,-56.32C427.47,-48.26 413.26,-36.08 401.93,-26.37"/>
<polygon fill="midnightblue" stroke="midnightblue" points="404.18,-23.68 394.31,-19.83 399.62,-29 404.18,-23.68"/>
</g>
<!-- Node16 -->
<g id="node15" class="node">
<title>Node16</title>
<g id="a_node15"><a xlink:title=" ">
<polygon fill="none" stroke="#bfbfbf" points="430.5,-0.5 430.5,-19.5 499.5,-19.5 499.5,-0.5 430.5,-0.5"/>
<text text-anchor="middle" x="465" y="-7.5" font-family="Helvetica,sans-Serif" font-size="10.00">type_traits</text>
</a>
</g>
</g>
<!-- Node13&#45;&gt;Node16 -->
<g id="edge17" class="edge">
<title>Node13&#45;&gt;Node16</title>
<path fill="none" stroke="midnightblue" d="M449.97,-56.08C452.38,-48.85 455.86,-38.41 458.87,-29.4"/>
<polygon fill="midnightblue" stroke="midnightblue" points="462.24,-30.34 462.08,-19.75 455.6,-28.13 462.24,-30.34"/>
</g>
<!-- Node27&#45;&gt;Node8 -->
<g id="edge20" class="edge">
<title>Node27&#45;&gt;Node8</title>
<path fill="none" stroke="midnightblue" d="M831.75,-56.44C868.52,-47.12 927.45,-32.18 967.62,-22"/>
<polygon fill="midnightblue" stroke="midnightblue" points="968.57,-25.37 977.41,-19.52 966.85,-18.58 968.57,-25.37"/>
</g>
<!-- Node32 -->
<g id="node19" class="node">
<title>Node32</title>
<g id="a_node19"><a xlink:title=" ">
<polygon fill="none" stroke="#bfbfbf" points="879.5,-56.5 879.5,-75.5 992.5,-75.5 992.5,-56.5 879.5,-56.5"/>
<text text-anchor="middle" x="936" y="-63.5" font-family="Helvetica,sans-Serif" font-size="10.00">nonstd/optional.hpp</text>
</a>
</g>
</g>
<!-- Node31&#45;&gt;Node32 -->
<g id="edge22" class="edge">
<title>Node31&#45;&gt;Node32</title>
<path fill="none" stroke="midnightblue" d="M904.27,-112.08C909.64,-104.46 917.52,-93.26 924.08,-83.94"/>
<polygon fill="midnightblue" stroke="midnightblue" points="926.95,-85.94 929.84,-75.75 921.22,-81.91 926.95,-85.94"/>
</g>
<!-- Node33&#45;&gt;Node16 -->
<g id="edge25" class="edge">
<title>Node33&#45;&gt;Node16</title>
<path fill="none" stroke="midnightblue" d="M883.02,-280.44C899.99,-273.09 922.54,-260.97 937,-244 994.33,-176.7 1061.85,-121.07 1002,-56 993.68,-46.96 637.34,-22.45 509.81,-13.95"/>
<polygon fill="midnightblue" stroke="midnightblue" points="509.82,-10.44 499.61,-13.27 509.35,-17.43 509.82,-10.44"/>
</g>
<!-- Node34 -->
<g id="node21" class="node">
<title>Node34</title>
<g id="a_node21"><a xlink:href="exception__utils_8h.html" target="_top" xlink:title=" ">
<polygon fill="none" stroke="black" points="828,-224.5 828,-243.5 928,-243.5 928,-224.5 828,-224.5"/>
<text text-anchor="middle" x="878" y="-231.5" font-family="Helvetica,sans-Serif" font-size="10.00">exception_utils.h</text>
</a>
</g>
</g>
<!-- Node33&#45;&gt;Node34 -->
<g id="edge26" class="edge">
<title>Node33&#45;&gt;Node34</title>
<path fill="none" stroke="midnightblue" d="M862.97,-280.08C865.38,-272.85 868.86,-262.41 871.87,-253.4"/>
<polygon fill="midnightblue" stroke="midnightblue" points="875.24,-254.34 875.08,-243.75 868.6,-252.13 875.24,-254.34"/>
</g>
<!-- Node33&#45;&gt;Node35 -->
<g id="edge30" class="edge">
<title>Node33&#45;&gt;Node35</title>
<path fill="none" stroke="midnightblue" d="M892.72,-281.15C931.39,-271.87 995.97,-256.37 1039.5,-245.92"/>
<polygon fill="midnightblue" stroke="midnightblue" points="1040.36,-249.31 1049.27,-243.58 1038.73,-242.51 1040.36,-249.31"/>
</g>
<!-- Node34&#45;&gt;Node5 -->
<g id="edge27" class="edge">
<title>Node34&#45;&gt;Node5</title>
<path fill="none" stroke="midnightblue" d="M892.39,-224.4C935.03,-197.91 1054.57,-115.69 1002,-56 980.93,-32.07 764.27,-17.47 681.19,-12.72"/>
<polygon fill="midnightblue" stroke="midnightblue" points="681.24,-9.21 671.06,-12.15 680.85,-16.2 681.24,-9.21"/>
</g>
<!-- Node34&#45;&gt;Node10 -->
<g id="edge29" class="edge">
<title>Node34&#45;&gt;Node10</title>
<path fill="none" stroke="midnightblue" d="M865.31,-224.32C853.1,-215.98 834.42,-203.21 820,-193.35"/>
<polygon fill="midnightblue" stroke="midnightblue" points="821.89,-190.41 811.66,-187.65 817.94,-196.19 821.89,-190.41"/>
</g>
<!-- Node34&#45;&gt;Node13 -->
<g id="edge28" class="edge">
<title>Node34&#45;&gt;Node13</title>
<path fill="none" stroke="midnightblue" d="M877.8,-224.26C877.02,-210.57 873.58,-183.98 859,-168 747.52,-45.85 660.25,-103.84 491.48,-75.94"/>
<polygon fill="midnightblue" stroke="midnightblue" points="492.01,-72.48 481.56,-74.22 490.81,-79.38 492.01,-72.48"/>
</g>
<!-- Node39&#45;&gt;Node4 -->
<g id="edge39" class="edge">
<title>Node39&#45;&gt;Node4</title>
<path fill="none" stroke="midnightblue" d="M505.72,-224.44C484.65,-215.56 451.48,-201.56 427.51,-191.45"/>
<polygon fill="midnightblue" stroke="midnightblue" points="428.76,-188.18 418.19,-187.52 426.04,-194.63 428.76,-188.18"/>
</g>
<!-- Node39&#45;&gt;Node5 -->
<g id="edge41" class="edge">
<title>Node39&#45;&gt;Node5</title>
<path fill="none" stroke="midnightblue" d="M531.41,-224.47C542.3,-207.21 567.48,-166.85 587,-132 600.7,-107.55 603.21,-100.94 616,-76 624.11,-60.18 633.25,-42.16 639.86,-29.11"/>
<polygon fill="midnightblue" stroke="midnightblue" points="643.15,-30.35 644.54,-19.84 636.9,-27.19 643.15,-30.35"/>
</g>
<!-- Node39&#45;&gt;Node10 -->
<g id="edge44" class="edge">
<title>Node39&#45;&gt;Node10</title>
<path fill="none" stroke="midnightblue" d="M561.13,-226.05C608.04,-216.77 691.54,-200.26 746.08,-189.47"/>
<polygon fill="midnightblue" stroke="midnightblue" points="746.78,-192.9 755.91,-187.52 745.43,-186.03 746.78,-192.9"/>
</g>
<!-- Node39&#45;&gt;Node11 -->
<g id="edge42" class="edge">
<title>Node39&#45;&gt;Node11</title>
<path fill="none" stroke="midnightblue" d="M551.74,-224.37C571.72,-216.84 599.39,-204.53 620,-188 636.73,-174.58 651.31,-154.67 660.55,-140.42"/>
<polygon fill="midnightblue" stroke="midnightblue" points="663.72,-141.95 666.05,-131.61 657.79,-138.24 663.72,-141.95"/>
</g>
<!-- Node39&#45;&gt;Node13 -->
<g id="edge43" class="edge">
<title>Node39&#45;&gt;Node13</title>
<path fill="none" stroke="midnightblue" d="M517.31,-224.32C497.27,-204.06 448.93,-153.75 441,-132 435.54,-117.03 437.89,-98.89 441.11,-85.58"/>
<polygon fill="midnightblue" stroke="midnightblue" points="444.55,-86.29 443.88,-75.72 437.81,-84.4 444.55,-86.29"/>
</g>
<!-- Node39&#45;&gt;Node15 -->
<g id="edge40" class="edge">
<title>Node39&#45;&gt;Node15</title>
<path fill="none" stroke="midnightblue" d="M510.49,-224.43C496.95,-216.38 477.43,-203.29 464,-188 421.41,-139.52 397.79,-64.61 388.58,-29.88"/>
<polygon fill="midnightblue" stroke="midnightblue" points="391.86,-28.57 386,-19.74 385.07,-30.29 391.86,-28.57"/>
</g>
<!-- Node39&#45;&gt;Node38 -->
<g id="edge38" class="edge">
<title>Node39&#45;&gt;Node38</title>
<path fill="none" stroke="midnightblue" d="M522.87,-224.12C518.4,-211.56 509.87,-187.91 502,-168 498.45,-159.02 494.29,-149.12 490.78,-140.9"/>
<polygon fill="midnightblue" stroke="midnightblue" points="493.93,-139.38 486.76,-131.58 487.51,-142.15 493.93,-139.38"/>
</g>
<!-- Node40&#45;&gt;Node5 -->
<g id="edge46" class="edge">
<title>Node40&#45;&gt;Node5</title>
<path fill="none" stroke="midnightblue" d="M1126.53,-392.46C1139.44,-384.6 1157.35,-371.78 1168,-356 1184.83,-331.05 1187,-321.1 1187,-291 1187,-291 1187,-291 1187,-121 1187,-17.11 797.06,-10.39 681.13,-10.68"/>
<polygon fill="midnightblue" stroke="midnightblue" points="681.08,-7.18 671.09,-10.73 681.11,-14.18 681.08,-7.18"/>
</g>
<!-- Node41&#45;&gt;Node4 -->
<g id="edge50" class="edge">
<title>Node41&#45;&gt;Node4</title>
<path fill="none" stroke="midnightblue" d="M290.28,-224.44C311.35,-215.56 344.52,-201.56 368.49,-191.45"/>
<polygon fill="midnightblue" stroke="midnightblue" points="369.96,-194.63 377.81,-187.52 367.24,-188.18 369.96,-194.63"/>
</g>
<!-- Node41&#45;&gt;Node5 -->
<g id="edge51" class="edge">
<title>Node41&#45;&gt;Node5</title>
<path fill="none" stroke="midnightblue" d="M237.16,-226.17C193.19,-215.04 117,-188.31 85,-132 70.36,-106.23 104.2,-60.75 111,-56 121.43,-48.71 501.59,-21.39 616.46,-13.28"/>
<polygon fill="midnightblue" stroke="midnightblue" points="616.99,-16.75 626.72,-12.56 616.5,-9.77 616.99,-16.75"/>
</g>
<!-- Node41&#45;&gt;Node6 -->
<g id="edge48" class="edge">
<title>Node41&#45;&gt;Node6</title>
<path fill="none" stroke="midnightblue" d="M273.33,-224.08C283.13,-197.83 312,-120.55 325.23,-85.12"/>
<polygon fill="midnightblue" stroke="midnightblue" points="328.58,-86.16 328.8,-75.57 322.02,-83.71 328.58,-86.16"/>
</g>
<!-- Node41&#45;&gt;Node12 -->
<g id="edge52" class="edge">
<title>Node41&#45;&gt;Node12</title>
<path fill="none" stroke="midnightblue" d="M279.78,-224.41C296.22,-210.44 330.93,-182.86 365,-168 428.56,-140.27 451.77,-148.96 523.67,-131.9"/>
<polygon fill="midnightblue" stroke="midnightblue" points="524.79,-135.23 533.66,-129.44 523.11,-128.43 524.79,-135.23"/>
</g>
<!-- Node42 -->
<g id="node29" class="node">
<title>Node42</title>
<g id="a_node29"><a xlink:title=" ">
<polygon fill="none" stroke="#bfbfbf" points="0,-168.5 0,-187.5 38,-187.5 38,-168.5 0,-168.5"/>
<text text-anchor="middle" x="19" y="-175.5" font-family="Helvetica,sans-Serif" font-size="10.00">map</text>
</a>
</g>
</g>
<!-- Node41&#45;&gt;Node42 -->
<g id="edge49" class="edge">
<title>Node41&#45;&gt;Node42</title>
<path fill="none" stroke="midnightblue" d="M237.36,-226.92C194.6,-218.82 117.4,-203.65 52,-188 50.73,-187.7 49.44,-187.38 48.14,-187.05"/>
<polygon fill="midnightblue" stroke="midnightblue" points="48.7,-183.58 38.14,-184.44 46.93,-190.36 48.7,-183.58"/>
</g>
<!-- Node43 -->
<g id="node30" class="node">
<title>Node43</title>
<g id="a_node30"><a xlink:href="range_8h.html" target="_top" xlink:title=" ">
<polygon fill="none" stroke="black" points="188.5,-168.5 188.5,-187.5 241.5,-187.5 241.5,-168.5 188.5,-168.5"/>
<text text-anchor="middle" x="215" y="-175.5" font-family="Helvetica,sans-Serif" font-size="10.00">range.h</text>
</a>
</g>
</g>
<!-- Node41&#45;&gt;Node43 -->
<g id="edge53" class="edge">
<title>Node41&#45;&gt;Node43</title>
<path fill="none" stroke="midnightblue" d="M260.92,-224.08C252.83,-216.14 240.8,-204.34 231.09,-194.8"/>
<polygon fill="midnightblue" stroke="midnightblue" points="233.5,-192.26 223.91,-187.75 228.6,-197.25 233.5,-192.26"/>
</g>
<!-- Node43&#45;&gt;Node13 -->
<g id="edge56" class="edge">
<title>Node43&#45;&gt;Node13</title>
<path fill="none" stroke="midnightblue" d="M233.2,-168.37C273.78,-149.13 371.82,-102.65 419.73,-79.93"/>
<polygon fill="midnightblue" stroke="midnightblue" points="421.34,-83.04 428.88,-75.59 418.34,-76.71 421.34,-83.04"/>
</g>
<!-- Node43&#45;&gt;Node16 -->
<g id="edge55" class="edge">
<title>Node43&#45;&gt;Node16</title>
<path fill="none" stroke="midnightblue" d="M218.43,-168.43C227.79,-146.21 255.95,-86.37 299,-56 309.04,-48.92 374.76,-32.35 420.43,-21.41"/>
<polygon fill="midnightblue" stroke="midnightblue" points="421.5,-24.76 430.42,-19.04 419.88,-17.95 421.5,-24.76"/>
</g>
<!-- Node43&#45;&gt;Node38 -->
<g id="edge54" class="edge">
<title>Node43&#45;&gt;Node38</title>
<path fill="none" stroke="midnightblue" d="M241.68,-171.62C288.17,-162.26 384.4,-142.87 440.27,-131.61"/>
<polygon fill="midnightblue" stroke="midnightblue" points="441.11,-135.01 450.22,-129.61 439.72,-128.15 441.11,-135.01"/>
</g>
<!-- Node44 -->
<g id="node31" class="node">
<title>Node44</title>
<g id="a_node31"><a xlink:href="make__unique_8h.html" target="_top" xlink:title=" ">
<polygon fill="none" stroke="black" points="94,-112.5 94,-131.5 204,-131.5 204,-112.5 94,-112.5"/>
<text text-anchor="middle" x="149" y="-119.5" font-family="Helvetica,sans-Serif" font-size="10.00">util/make_unique.h</text>
</a>
</g>
</g>
<!-- Node43&#45;&gt;Node44 -->
<g id="edge57" class="edge">
<title>Node43&#45;&gt;Node44</title>
<path fill="none" stroke="midnightblue" d="M204.4,-168.32C194.54,-160.26 179.65,-148.08 167.78,-138.37"/>
<polygon fill="midnightblue" stroke="midnightblue" points="169.75,-135.46 159.8,-131.83 165.32,-140.88 169.75,-135.46"/>
</g>
<!-- Node45 -->
<g id="node32" class="node">
<title>Node45</title>
<g id="a_node32"><a xlink:title=" ">
<polygon fill="none" stroke="#bfbfbf" points="120,-56.5 120,-75.5 178,-75.5 178,-56.5 120,-56.5"/>
<text text-anchor="middle" x="149" y="-63.5" font-family="Helvetica,sans-Serif" font-size="10.00">memory</text>
</a>
</g>
</g>
<!-- Node44&#45;&gt;Node45 -->
<g id="edge58" class="edge">
<title>Node44&#45;&gt;Node45</title>
<path fill="none" stroke="midnightblue" d="M149,-112.08C149,-105.01 149,-94.86 149,-85.99"/>
<polygon fill="midnightblue" stroke="midnightblue" points="152.5,-85.75 149,-75.75 145.5,-85.75 152.5,-85.75"/>
</g>
</g>
</svg>
