<?xml version="1.0" encoding="UTF-8" standalone="no"?>
<!DOCTYPE svg PUBLIC "-//W3C//DTD SVG 1.1//EN"
 "http://www.w3.org/Graphics/SVG/1.1/DTD/svg11.dtd">
<!-- Generated by graphviz version 2.43.0 (0)
 -->
<!-- Title: /home/runner/work/cbmc/cbmc/src/json/json_parser.cpp Pages: 1 -->
<svg width="849pt" height="599pt"
 viewBox="0.00 0.00 849.18 599.00" xmlns="http://www.w3.org/2000/svg" xmlns:xlink="http://www.w3.org/1999/xlink">
<g id="graph0" class="graph" transform="scale(1 1) rotate(0) translate(4 595)">
<title>/home/runner/work/cbmc/cbmc/src/json/json_parser.cpp</title>
<!-- Node1 -->
<g id="node1" class="node">
<title>Node1</title>
<g id="a_node1"><a xlink:title=" ">
<polygon fill="#bfbfbf" stroke="black" points="62.5,-560.5 62.5,-590.5 227.5,-590.5 227.5,-560.5 62.5,-560.5"/>
<text text-anchor="start" x="70.5" y="-578.5" font-family="Helvetica,sans-Serif" font-size="10.00">/home/runner/work/cbmc</text>
<text text-anchor="middle" x="145" y="-567.5" font-family="Helvetica,sans-Serif" font-size="10.00">/cbmc/src/json/json_parser.cpp</text>
</a>
</g>
</g>
<!-- Node2 -->
<g id="node2" class="node">
<title>Node2</title>
<g id="a_node2"><a xlink:href="json__parser_8h.html" target="_top" xlink:title=" ">
<polygon fill="none" stroke="black" points="61.5,-504.5 61.5,-523.5 142.5,-523.5 142.5,-504.5 61.5,-504.5"/>
<text text-anchor="middle" x="102" y="-511.5" font-family="Helvetica,sans-Serif" font-size="10.00">json_parser.h</text>
</a>
</g>
</g>
<!-- Node1&#45;&gt;Node2 -->
<g id="edge1" class="edge">
<title>Node1&#45;&gt;Node2</title>
<path fill="none" stroke="midnightblue" d="M134.81,-560.4C128.63,-551.84 120.7,-540.87 114.18,-531.86"/>
<polygon fill="midnightblue" stroke="midnightblue" points="116.95,-529.71 108.26,-523.66 111.28,-533.81 116.95,-529.71"/>
</g>
<!-- Node45 -->
<g id="node30" class="node">
<title>Node45</title>
<g id="a_node30"><a xlink:title=" ">
<polygon fill="none" stroke="#bfbfbf" points="160.5,-504.5 160.5,-523.5 215.5,-523.5 215.5,-504.5 160.5,-504.5"/>
<text text-anchor="middle" x="188" y="-511.5" font-family="Helvetica,sans-Serif" font-size="10.00">fstream</text>
</a>
</g>
</g>
<!-- Node1&#45;&gt;Node45 -->
<g id="edge55" class="edge">
<title>Node1&#45;&gt;Node45</title>
<path fill="none" stroke="midnightblue" d="M155.19,-560.4C161.37,-551.84 169.3,-540.87 175.82,-531.86"/>
<polygon fill="midnightblue" stroke="midnightblue" points="178.72,-533.81 181.74,-523.66 173.05,-529.71 178.72,-533.81"/>
</g>
<!-- Node3 -->
<g id="node3" class="node">
<title>Node3</title>
<g id="a_node3"><a xlink:title=" ">
<polygon fill="none" stroke="#bfbfbf" points="30.5,-448.5 30.5,-467.5 73.5,-467.5 73.5,-448.5 30.5,-448.5"/>
<text text-anchor="middle" x="52" y="-455.5" font-family="Helvetica,sans-Serif" font-size="10.00">stack</text>
</a>
</g>
</g>
<!-- Node2&#45;&gt;Node3 -->
<g id="edge2" class="edge">
<title>Node2&#45;&gt;Node3</title>
<path fill="none" stroke="midnightblue" d="M93.74,-504.08C86.54,-496.3 75.89,-484.8 67.15,-475.37"/>
<polygon fill="midnightblue" stroke="midnightblue" points="69.47,-472.71 60.1,-467.75 64.33,-477.47 69.47,-472.71"/>
</g>
<!-- Node4 -->
<g id="node4" class="node">
<title>Node4</title>
<g id="a_node4"><a xlink:href="parser_8h.html" target="_top" xlink:title="Parser utilities.">
<polygon fill="none" stroke="black" points="258,-448.5 258,-467.5 332,-467.5 332,-448.5 258,-448.5"/>
<text text-anchor="middle" x="295" y="-455.5" font-family="Helvetica,sans-Serif" font-size="10.00">util/parser.h</text>
</a>
</g>
</g>
<!-- Node2&#45;&gt;Node4 -->
<g id="edge3" class="edge">
<title>Node2&#45;&gt;Node4</title>
<path fill="none" stroke="midnightblue" d="M132.58,-504.44C165.61,-495.2 218.39,-480.44 254.77,-470.26"/>
<polygon fill="midnightblue" stroke="midnightblue" points="255.87,-473.58 264.56,-467.52 253.99,-466.84 255.87,-473.58"/>
</g>
<!-- Node41 -->
<g id="node26" class="node">
<title>Node41</title>
<g id="a_node26"><a xlink:href="json_8h.html" target="_top" xlink:title=" ">
<polygon fill="none" stroke="black" points="99.5,-224.5 99.5,-243.5 164.5,-243.5 164.5,-224.5 99.5,-224.5"/>
<text text-anchor="middle" x="132" y="-231.5" font-family="Helvetica,sans-Serif" font-size="10.00">util/json.h</text>
</a>
</g>
</g>
<!-- Node2&#45;&gt;Node41 -->
<g id="edge44" class="edge">
<title>Node2&#45;&gt;Node41</title>
<path fill="none" stroke="midnightblue" d="M102,-504.44C102,-485.94 102,-440.81 102,-403 102,-403 102,-403 102,-345 102,-311.64 115,-274.53 123.89,-253.07"/>
<polygon fill="midnightblue" stroke="midnightblue" points="127.21,-254.19 127.95,-243.62 120.78,-251.42 127.21,-254.19"/>
</g>
<!-- Node5 -->
<g id="node5" class="node">
<title>Node5</title>
<g id="a_node5"><a xlink:href="deprecate_8h.html" target="_top" xlink:title=" ">
<polygon fill="none" stroke="black" points="684,-112.5 684,-131.5 758,-131.5 758,-112.5 684,-112.5"/>
<text text-anchor="middle" x="721" y="-119.5" font-family="Helvetica,sans-Serif" font-size="10.00">deprecate.h</text>
</a>
</g>
</g>
<!-- Node4&#45;&gt;Node5 -->
<g id="edge4" class="edge">
<title>Node4&#45;&gt;Node5</title>
<path fill="none" stroke="midnightblue" d="M332.31,-456.6C446.89,-454.37 786,-439.93 786,-347 786,-347 786,-347 786,-233 786,-195.18 757.16,-158.94 737.91,-138.96"/>
<polygon fill="midnightblue" stroke="midnightblue" points="740.14,-136.24 730.59,-131.66 735.2,-141.2 740.14,-136.24"/>
</g>
<!-- Node6 -->
<g id="node6" class="node">
<title>Node6</title>
<g id="a_node6"><a xlink:href="expr_8h.html" target="_top" xlink:title=" ">
<polygon fill="none" stroke="black" points="340.5,-392.5 340.5,-411.5 387.5,-411.5 387.5,-392.5 340.5,-392.5"/>
<text text-anchor="middle" x="364" y="-399.5" font-family="Helvetica,sans-Serif" font-size="10.00">expr.h</text>
</a>
</g>
</g>
<!-- Node4&#45;&gt;Node6 -->
<g id="edge5" class="edge">
<title>Node4&#45;&gt;Node6</title>
<path fill="none" stroke="midnightblue" d="M306.09,-448.32C316.49,-440.18 332.26,-427.84 344.72,-418.09"/>
<polygon fill="midnightblue" stroke="midnightblue" points="346.99,-420.75 352.71,-411.83 342.68,-415.24 346.99,-420.75"/>
</g>
<!-- Node11 -->
<g id="node11" class="node">
<title>Node11</title>
<g id="a_node11"><a xlink:title=" ">
<polygon fill="none" stroke="#bfbfbf" points="484,-0.5 484,-19.5 528,-19.5 528,-0.5 484,-0.5"/>
<text text-anchor="middle" x="506" y="-7.5" font-family="Helvetica,sans-Serif" font-size="10.00">string</text>
</a>
</g>
</g>
<!-- Node4&#45;&gt;Node11 -->
<g id="edge42" class="edge">
<title>Node4&#45;&gt;Node11</title>
<path fill="none" stroke="midnightblue" d="M332.2,-457.2C452.61,-456.84 824,-447.61 824,-347 824,-347 824,-347 824,-121 824,-70.94 778,-75.76 732,-56 666.66,-27.93 583.1,-17.14 538.12,-13.17"/>
<polygon fill="midnightblue" stroke="midnightblue" points="538.33,-9.68 528.08,-12.35 537.76,-16.66 538.33,-9.68"/>
</g>
<!-- Node12 -->
<g id="node12" class="node">
<title>Node12</title>
<g id="a_node12"><a xlink:title=" ">
<polygon fill="none" stroke="#bfbfbf" points="70.5,-56.5 70.5,-75.5 117.5,-75.5 117.5,-56.5 70.5,-56.5"/>
<text text-anchor="middle" x="94" y="-63.5" font-family="Helvetica,sans-Serif" font-size="10.00">vector</text>
</a>
</g>
</g>
<!-- Node4&#45;&gt;Node12 -->
<g id="edge43" class="edge">
<title>Node4&#45;&gt;Node12</title>
<path fill="none" stroke="midnightblue" d="M257.94,-451.21C178.71,-437.78 0,-401.45 0,-347 0,-347 0,-347 0,-177 0,-133.93 42.16,-99.21 70.01,-80.98"/>
<polygon fill="midnightblue" stroke="midnightblue" points="71.88,-83.94 78.48,-75.65 68.15,-78.01 71.88,-83.94"/>
</g>
<!-- Node39 -->
<g id="node23" class="node">
<title>Node39</title>
<g id="a_node23"><a xlink:href="src_2util_2message_8h.html" target="_top" xlink:title=" ">
<polygon fill="none" stroke="black" points="613,-224.5 613,-243.5 683,-243.5 683,-224.5 613,-224.5"/>
<text text-anchor="middle" x="648" y="-231.5" font-family="Helvetica,sans-Serif" font-size="10.00">message.h</text>
</a>
</g>
</g>
<!-- Node4&#45;&gt;Node39 -->
<g id="edge32" class="edge">
<title>Node4&#45;&gt;Node39</title>
<path fill="none" stroke="midnightblue" d="M332.09,-457.08C400.4,-455.1 546.14,-440.53 623,-356 648.77,-327.66 650.75,-279.98 649.59,-253.73"/>
<polygon fill="midnightblue" stroke="midnightblue" points="653.08,-253.37 648.94,-243.62 646.09,-253.82 653.08,-253.37"/>
</g>
<!-- Node19 -->
<g id="node24" class="node">
<title>Node19</title>
<g id="a_node24"><a xlink:title=" ">
<polygon fill="none" stroke="#bfbfbf" points="290,-168.5 290,-187.5 338,-187.5 338,-168.5 290,-168.5"/>
<text text-anchor="middle" x="314" y="-175.5" font-family="Helvetica,sans-Serif" font-size="10.00">iosfwd</text>
</a>
</g>
</g>
<!-- Node4&#45;&gt;Node19 -->
<g id="edge41" class="edge">
<title>Node4&#45;&gt;Node19</title>
<path fill="none" stroke="midnightblue" d="M289.44,-448.49C273.43,-422.91 229.51,-344.49 248,-280 257.61,-246.48 282.64,-213.84 298.97,-195.11"/>
<polygon fill="midnightblue" stroke="midnightblue" points="301.69,-197.31 305.77,-187.53 296.48,-192.64 301.69,-197.31"/>
</g>
<!-- Node40 -->
<g id="node25" class="node">
<title>Node40</title>
<g id="a_node25"><a xlink:title=" ">
<polygon fill="none" stroke="#bfbfbf" points="130,-392.5 130,-411.5 198,-411.5 198,-392.5 130,-392.5"/>
<text text-anchor="middle" x="164" y="-399.5" font-family="Helvetica,sans-Serif" font-size="10.00">filesystem</text>
</a>
</g>
</g>
<!-- Node4&#45;&gt;Node40 -->
<g id="edge40" class="edge">
<title>Node4&#45;&gt;Node40</title>
<path fill="none" stroke="midnightblue" d="M274.24,-448.44C252.68,-439.56 218.74,-425.56 194.21,-415.45"/>
<polygon fill="midnightblue" stroke="midnightblue" points="195.24,-412.09 184.66,-411.52 192.57,-418.56 195.24,-412.09"/>
</g>
<!-- Node7 -->
<g id="node7" class="node">
<title>Node7</title>
<g id="a_node7"><a xlink:href="as__const_8h.html" target="_top" xlink:title=" ">
<polygon fill="none" stroke="black" points="447,-336.5 447,-355.5 515,-355.5 515,-336.5 447,-336.5"/>
<text text-anchor="middle" x="481" y="-343.5" font-family="Helvetica,sans-Serif" font-size="10.00">as_const.h</text>
</a>
</g>
</g>
<!-- Node6&#45;&gt;Node7 -->
<g id="edge6" class="edge">
<title>Node6&#45;&gt;Node7</title>
<path fill="none" stroke="midnightblue" d="M382.54,-392.44C401.62,-383.64 431.57,-369.81 453.44,-359.72"/>
<polygon fill="midnightblue" stroke="midnightblue" points="454.93,-362.88 462.55,-355.52 452,-356.53 454.93,-362.88"/>
</g>
<!-- Node8 -->
<g id="node8" class="node">
<title>Node8</title>
<g id="a_node8"><a xlink:href="type_8h.html" target="_top" xlink:title="Defines typet, type_with_subtypet and type_with_subtypest.">
<polygon fill="none" stroke="black" points="533.5,-336.5 533.5,-355.5 580.5,-355.5 580.5,-336.5 533.5,-336.5"/>
<text text-anchor="middle" x="557" y="-343.5" font-family="Helvetica,sans-Serif" font-size="10.00">type.h</text>
</a>
</g>
</g>
<!-- Node6&#45;&gt;Node8 -->
<g id="edge7" class="edge">
<title>Node6&#45;&gt;Node8</title>
<path fill="none" stroke="midnightblue" d="M387.67,-394.38C421.76,-384.84 484.86,-367.18 523.66,-356.33"/>
<polygon fill="midnightblue" stroke="midnightblue" points="524.76,-359.66 533.44,-353.59 522.87,-352.92 524.76,-359.66"/>
</g>
<!-- Node35 -->
<g id="node19" class="node">
<title>Node35</title>
<g id="a_node19"><a xlink:href="validation__mode_8h.html" target="_top" xlink:title=" ">
<polygon fill="none" stroke="black" points="292.5,-224.5 292.5,-243.5 399.5,-243.5 399.5,-224.5 292.5,-224.5"/>
<text text-anchor="middle" x="346" y="-231.5" font-family="Helvetica,sans-Serif" font-size="10.00">validation_mode.h</text>
</a>
</g>
</g>
<!-- Node6&#45;&gt;Node35 -->
<g id="edge30" class="edge">
<title>Node6&#45;&gt;Node35</title>
<path fill="none" stroke="midnightblue" d="M340.69,-392.39C323.08,-384.95 299.25,-372.73 283,-356 263.47,-335.89 260.63,-327.23 254,-300 251.9,-291.36 249.29,-287.54 254,-280 263.76,-264.36 280.7,-254.01 297.4,-247.23"/>
<polygon fill="midnightblue" stroke="midnightblue" points="298.98,-250.38 307.15,-243.64 296.56,-243.81 298.98,-250.38"/>
</g>
<!-- Node36 -->
<g id="node20" class="node">
<title>Node36</title>
<g id="a_node20"><a xlink:href="validate__types_8h.html" target="_top" xlink:title=" ">
<polygon fill="none" stroke="black" points="263,-280.5 263,-299.5 361,-299.5 361,-280.5 263,-280.5"/>
<text text-anchor="middle" x="312" y="-287.5" font-family="Helvetica,sans-Serif" font-size="10.00">validate_types.h</text>
</a>
</g>
</g>
<!-- Node6&#45;&gt;Node36 -->
<g id="edge29" class="edge">
<title>Node6&#45;&gt;Node36</title>
<path fill="none" stroke="midnightblue" d="M340.35,-393.67C323.01,-386.92 300.69,-375 290,-356 281.46,-340.81 289.86,-321.76 298.63,-308.22"/>
<polygon fill="midnightblue" stroke="midnightblue" points="301.64,-310.03 304.56,-299.84 295.92,-305.99 301.64,-310.03"/>
</g>
<!-- Node37 -->
<g id="node21" class="node">
<title>Node37</title>
<g id="a_node21"><a xlink:href="validate__expressions_8h.html" target="_top" xlink:title=" ">
<polygon fill="none" stroke="black" points="299.5,-336.5 299.5,-355.5 428.5,-355.5 428.5,-336.5 299.5,-336.5"/>
<text text-anchor="middle" x="364" y="-343.5" font-family="Helvetica,sans-Serif" font-size="10.00">validate_expressions.h</text>
</a>
</g>
</g>
<!-- Node6&#45;&gt;Node37 -->
<g id="edge28" class="edge">
<title>Node6&#45;&gt;Node37</title>
<path fill="none" stroke="midnightblue" d="M364,-392.08C364,-385.01 364,-374.86 364,-365.99"/>
<polygon fill="midnightblue" stroke="midnightblue" points="367.5,-365.75 364,-355.75 360.5,-365.75 367.5,-365.75"/>
</g>
<!-- Node38 -->
<g id="node22" class="node">
<title>Node38</title>
<g id="a_node22"><a xlink:title=" ">
<polygon fill="none" stroke="#bfbfbf" points="312.5,-112.5 312.5,-131.5 377.5,-131.5 377.5,-112.5 312.5,-112.5"/>
<text text-anchor="middle" x="345" y="-119.5" font-family="Helvetica,sans-Serif" font-size="10.00">functional</text>
</a>
</g>
</g>
<!-- Node6&#45;&gt;Node38 -->
<g id="edge31" class="edge">
<title>Node6&#45;&gt;Node38</title>
<path fill="none" stroke="midnightblue" d="M387.57,-399.93C440.01,-396.99 563.68,-386.88 589,-356 639.96,-293.84 510.15,-293.73 447,-244 407.95,-213.25 373.16,-165.54 356.1,-140.2"/>
<polygon fill="midnightblue" stroke="midnightblue" points="358.9,-138.07 350.47,-131.66 353.06,-141.93 358.9,-138.07"/>
</g>
<!-- Node9 -->
<g id="node9" class="node">
<title>Node9</title>
<g id="a_node9"><a xlink:href="source__location_8h.html" target="_top" xlink:title=" ">
<polygon fill="none" stroke="black" points="534,-168.5 534,-187.5 636,-187.5 636,-168.5 534,-168.5"/>
<text text-anchor="middle" x="585" y="-175.5" font-family="Helvetica,sans-Serif" font-size="10.00">source_location.h</text>
</a>
</g>
</g>
<!-- Node8&#45;&gt;Node9 -->
<g id="edge8" class="edge">
<title>Node8&#45;&gt;Node9</title>
<path fill="none" stroke="midnightblue" d="M558.51,-336.08C562.91,-309.95 575.86,-233.21 581.87,-197.58"/>
<polygon fill="midnightblue" stroke="midnightblue" points="585.34,-198.01 583.55,-187.57 578.44,-196.85 585.34,-198.01"/>
</g>
<!-- Node33 -->
<g id="node17" class="node">
<title>Node33</title>
<g id="a_node17"><a xlink:href="validate_8h.html" target="_top" xlink:title=" ">
<polygon fill="none" stroke="black" points="445.5,-280.5 445.5,-299.5 510.5,-299.5 510.5,-280.5 445.5,-280.5"/>
<text text-anchor="middle" x="478" y="-287.5" font-family="Helvetica,sans-Serif" font-size="10.00">validate.h</text>
</a>
</g>
</g>
<!-- Node8&#45;&gt;Node33 -->
<g id="edge19" class="edge">
<title>Node8&#45;&gt;Node33</title>
<path fill="none" stroke="midnightblue" d="M544.31,-336.32C532.1,-327.98 513.42,-315.21 499,-305.35"/>
<polygon fill="midnightblue" stroke="midnightblue" points="500.89,-302.41 490.66,-299.65 496.94,-308.19 500.89,-302.41"/>
</g>
<!-- Node8&#45;&gt;Node35 -->
<g id="edge27" class="edge">
<title>Node8&#45;&gt;Node35</title>
<path fill="none" stroke="midnightblue" d="M533.45,-338.32C508.47,-330.75 468.22,-317.22 436,-300 409.36,-285.77 381.62,-264.61 364.1,-250.33"/>
<polygon fill="midnightblue" stroke="midnightblue" points="365.86,-247.25 355.93,-243.57 361.4,-252.64 365.86,-247.25"/>
</g>
<!-- Node8&#45;&gt;Node36 -->
<g id="edge26" class="edge">
<title>Node8&#45;&gt;Node36</title>
<path fill="none" stroke="midnightblue" d="M533.25,-338.35C530.14,-337.53 527,-336.73 524,-336 470.51,-323.04 408.93,-310.2 365.98,-301.57"/>
<polygon fill="midnightblue" stroke="midnightblue" points="366.51,-298.11 356.02,-299.58 365.14,-304.97 366.51,-298.11"/>
</g>
<!-- Node9&#45;&gt;Node5 -->
<g id="edge9" class="edge">
<title>Node9&#45;&gt;Node5</title>
<path fill="none" stroke="midnightblue" d="M606.55,-168.44C629.03,-159.52 664.49,-145.44 689.98,-135.32"/>
<polygon fill="midnightblue" stroke="midnightblue" points="691.55,-138.46 699.55,-131.52 688.97,-131.95 691.55,-138.46"/>
</g>
<!-- Node10 -->
<g id="node10" class="node">
<title>Node10</title>
<g id="a_node10"><a xlink:href="irep_8h.html" target="_top" xlink:title=" ">
<polygon fill="none" stroke="red" points="396,-112.5 396,-131.5 440,-131.5 440,-112.5 396,-112.5"/>
<text text-anchor="middle" x="418" y="-119.5" font-family="Helvetica,sans-Serif" font-size="10.00">irep.h</text>
</a>
</g>
</g>
<!-- Node9&#45;&gt;Node10 -->
<g id="edge10" class="edge">
<title>Node9&#45;&gt;Node10</title>
<path fill="none" stroke="midnightblue" d="M558.54,-168.44C528.99,-158.89 481.2,-143.44 449.69,-133.25"/>
<polygon fill="midnightblue" stroke="midnightblue" points="450.66,-129.88 440.07,-130.14 448.51,-136.54 450.66,-129.88"/>
</g>
<!-- Node9&#45;&gt;Node11 -->
<g id="edge18" class="edge">
<title>Node9&#45;&gt;Node11</title>
<path fill="none" stroke="midnightblue" d="M589.97,-168.33C596.56,-155.63 606.55,-131.36 599,-112 584.48,-74.79 549.11,-43.01 526.42,-25.5"/>
<polygon fill="midnightblue" stroke="midnightblue" points="528.51,-22.7 518.41,-19.51 524.32,-28.3 528.51,-22.7"/>
</g>
<!-- Node32 -->
<g id="node16" class="node">
<title>Node32</title>
<g id="a_node16"><a xlink:title=" ">
<polygon fill="none" stroke="#bfbfbf" points="534,-112.5 534,-131.5 590,-131.5 590,-112.5 534,-112.5"/>
<text text-anchor="middle" x="562" y="-119.5" font-family="Helvetica,sans-Serif" font-size="10.00">optional</text>
</a>
</g>
</g>
<!-- Node9&#45;&gt;Node32 -->
<g id="edge17" class="edge">
<title>Node9&#45;&gt;Node32</title>
<path fill="none" stroke="midnightblue" d="M581.2,-168.08C578.09,-160.77 573.58,-150.18 569.71,-141.1"/>
<polygon fill="midnightblue" stroke="midnightblue" points="572.87,-139.58 565.73,-131.75 566.43,-142.32 572.87,-139.58"/>
</g>
<!-- Node10&#45;&gt;Node11 -->
<g id="edge11" class="edge">
<title>Node10&#45;&gt;Node11</title>
<path fill="none" stroke="midnightblue" d="M411.19,-112.31C401.76,-99.16 387.16,-73.82 399,-56 415.49,-31.18 448.63,-20.02 473.69,-15.02"/>
<polygon fill="midnightblue" stroke="midnightblue" points="474.61,-18.41 483.86,-13.23 473.4,-11.51 474.61,-18.41"/>
</g>
<!-- Node10&#45;&gt;Node12 -->
<g id="edge12" class="edge">
<title>Node10&#45;&gt;Node12</title>
<path fill="none" stroke="midnightblue" d="M395.71,-114.36C392.47,-113.5 389.16,-112.68 386,-112 293.42,-91.92 182.44,-77.39 127.8,-70.86"/>
<polygon fill="midnightblue" stroke="midnightblue" points="127.99,-67.35 117.64,-69.66 127.16,-74.31 127.99,-67.35"/>
</g>
<!-- Node13 -->
<g id="node13" class="node">
<title>Node13</title>
<g id="a_node13"><a xlink:href="src_2util_2invariant_8h.html" target="_top" xlink:title=" ">
<polygon fill="none" stroke="red" points="408.5,-56.5 408.5,-75.5 477.5,-75.5 477.5,-56.5 408.5,-56.5"/>
<text text-anchor="middle" x="443" y="-63.5" font-family="Helvetica,sans-Serif" font-size="10.00">invariant.h</text>
</a>
</g>
</g>
<!-- Node10&#45;&gt;Node13 -->
<g id="edge13" class="edge">
<title>Node10&#45;&gt;Node13</title>
<path fill="none" stroke="midnightblue" d="M422.13,-112.08C425.51,-104.77 430.42,-94.18 434.62,-85.1"/>
<polygon fill="midnightblue" stroke="midnightblue" points="437.92,-86.3 438.95,-75.75 431.57,-83.36 437.92,-86.3"/>
</g>
<!-- Node13&#45;&gt;Node11 -->
<g id="edge15" class="edge">
<title>Node13&#45;&gt;Node11</title>
<path fill="none" stroke="midnightblue" d="M453.12,-56.32C462.53,-48.26 476.74,-36.08 488.07,-26.37"/>
<polygon fill="midnightblue" stroke="midnightblue" points="490.38,-29 495.69,-19.83 485.82,-23.68 490.38,-29"/>
</g>
<!-- Node15 -->
<g id="node14" class="node">
<title>Node15</title>
<g id="a_node14"><a xlink:title=" ">
<polygon fill="none" stroke="#bfbfbf" points="690,-0.5 690,-19.5 746,-19.5 746,-0.5 690,-0.5"/>
<text text-anchor="middle" x="718" y="-7.5" font-family="Helvetica,sans-Serif" font-size="10.00">sstream</text>
</a>
</g>
</g>
<!-- Node13&#45;&gt;Node15 -->
<g id="edge14" class="edge">
<title>Node13&#45;&gt;Node15</title>
<path fill="none" stroke="midnightblue" d="M477.55,-58.22C529.18,-48.08 626.14,-29.04 679.81,-18.5"/>
<polygon fill="midnightblue" stroke="midnightblue" points="680.49,-21.93 689.63,-16.57 679.14,-15.06 680.49,-21.93"/>
</g>
<!-- Node16 -->
<g id="node15" class="node">
<title>Node16</title>
<g id="a_node15"><a xlink:title=" ">
<polygon fill="none" stroke="#bfbfbf" points="135.5,-0.5 135.5,-19.5 204.5,-19.5 204.5,-0.5 135.5,-0.5"/>
<text text-anchor="middle" x="170" y="-7.5" font-family="Helvetica,sans-Serif" font-size="10.00">type_traits</text>
</a>
</g>
</g>
<!-- Node13&#45;&gt;Node16 -->
<g id="edge16" class="edge">
<title>Node13&#45;&gt;Node16</title>
<path fill="none" stroke="midnightblue" d="M408.42,-58.16C359.23,-48.43 268.98,-30.58 214.74,-19.85"/>
<polygon fill="midnightblue" stroke="midnightblue" points="215.21,-16.38 204.73,-17.87 213.86,-23.24 215.21,-16.38"/>
</g>
<!-- Node33&#45;&gt;Node16 -->
<g id="edge20" class="edge">
<title>Node33&#45;&gt;Node16</title>
<path fill="none" stroke="midnightblue" d="M445.32,-286.24C357.8,-278.7 122.55,-257.44 90,-244 52.85,-228.66 36.53,-224.16 19,-188 -1.57,-145.57 -2.92,-122.04 61,-56 78.29,-38.14 103.69,-27.1 125.63,-20.43"/>
<polygon fill="midnightblue" stroke="midnightblue" points="126.75,-23.75 135.42,-17.66 124.84,-17.01 126.75,-23.75"/>
</g>
<!-- Node34 -->
<g id="node18" class="node">
<title>Node34</title>
<g id="a_node18"><a xlink:href="exception__utils_8h.html" target="_top" xlink:title=" ">
<polygon fill="none" stroke="black" points="456,-224.5 456,-243.5 556,-243.5 556,-224.5 456,-224.5"/>
<text text-anchor="middle" x="506" y="-231.5" font-family="Helvetica,sans-Serif" font-size="10.00">exception_utils.h</text>
</a>
</g>
</g>
<!-- Node33&#45;&gt;Node34 -->
<g id="edge21" class="edge">
<title>Node33&#45;&gt;Node34</title>
<path fill="none" stroke="midnightblue" d="M482.62,-280.08C486.46,-272.69 492.02,-261.95 496.76,-252.81"/>
<polygon fill="midnightblue" stroke="midnightblue" points="499.97,-254.24 501.46,-243.75 493.75,-251.02 499.97,-254.24"/>
</g>
<!-- Node33&#45;&gt;Node35 -->
<g id="edge25" class="edge">
<title>Node33&#45;&gt;Node35</title>
<path fill="none" stroke="midnightblue" d="M457.08,-280.44C435.26,-271.52 400.85,-257.44 376.11,-247.32"/>
<polygon fill="midnightblue" stroke="midnightblue" points="377.4,-244.06 366.82,-243.52 374.75,-250.54 377.4,-244.06"/>
</g>
<!-- Node34&#45;&gt;Node9 -->
<g id="edge24" class="edge">
<title>Node34&#45;&gt;Node9</title>
<path fill="none" stroke="midnightblue" d="M518.69,-224.32C530.9,-215.98 549.58,-203.21 564,-193.35"/>
<polygon fill="midnightblue" stroke="midnightblue" points="566.06,-196.19 572.34,-187.65 562.11,-190.41 566.06,-196.19"/>
</g>
<!-- Node34&#45;&gt;Node11 -->
<g id="edge22" class="edge">
<title>Node34&#45;&gt;Node11</title>
<path fill="none" stroke="midnightblue" d="M506,-224.3C506,-191.63 506,-75.87 506,-29.96"/>
<polygon fill="midnightblue" stroke="midnightblue" points="509.5,-29.88 506,-19.88 502.5,-29.88 509.5,-29.88"/>
</g>
<!-- Node34&#45;&gt;Node13 -->
<g id="edge23" class="edge">
<title>Node34&#45;&gt;Node13</title>
<path fill="none" stroke="midnightblue" d="M502.61,-224.08C492.65,-197.83 463.32,-120.55 449.88,-85.12"/>
<polygon fill="midnightblue" stroke="midnightblue" points="453.07,-83.68 446.25,-75.57 446.53,-86.16 453.07,-83.68"/>
</g>
<!-- Node39&#45;&gt;Node5 -->
<g id="edge37" class="edge">
<title>Node39&#45;&gt;Node5</title>
<path fill="none" stroke="midnightblue" d="M653.76,-224.38C659.81,-215.33 669.59,-200.67 678,-188 688.72,-171.86 700.91,-153.43 709.56,-140.33"/>
<polygon fill="midnightblue" stroke="midnightblue" points="712.58,-142.11 715.17,-131.84 706.74,-138.25 712.58,-142.11"/>
</g>
<!-- Node39&#45;&gt;Node9 -->
<g id="edge39" class="edge">
<title>Node39&#45;&gt;Node9</title>
<path fill="none" stroke="midnightblue" d="M637.88,-224.32C628.47,-216.26 614.26,-204.08 602.93,-194.37"/>
<polygon fill="midnightblue" stroke="midnightblue" points="605.18,-191.68 595.31,-187.83 600.62,-197 605.18,-191.68"/>
</g>
<!-- Node39&#45;&gt;Node11 -->
<g id="edge36" class="edge">
<title>Node39&#45;&gt;Node11</title>
<path fill="none" stroke="midnightblue" d="M668.96,-224.45C711.21,-205.96 799.89,-160 767,-112 714.75,-35.75 596.02,-17.05 538.48,-12.48"/>
<polygon fill="midnightblue" stroke="midnightblue" points="538.36,-8.96 528.15,-11.76 537.88,-15.94 538.36,-8.96"/>
</g>
<!-- Node39&#45;&gt;Node13 -->
<g id="edge38" class="edge">
<title>Node39&#45;&gt;Node13</title>
<path fill="none" stroke="midnightblue" d="M649.29,-224.23C650.81,-211.4 652.29,-186.98 645,-168 633.45,-137.93 625.91,-129.7 599,-112 565.43,-89.91 520.87,-78.47 487.97,-72.66"/>
<polygon fill="midnightblue" stroke="midnightblue" points="488.16,-69.15 477.72,-70.97 487.02,-76.06 488.16,-69.15"/>
</g>
<!-- Node39&#45;&gt;Node15 -->
<g id="edge35" class="edge">
<title>Node39&#45;&gt;Node15</title>
<path fill="none" stroke="midnightblue" d="M683.2,-224.98C707.29,-218.17 738.91,-206.49 762,-188 808.95,-150.4 820.33,-133.5 838,-76 840.61,-67.5 843.06,-63.31 838,-56 819.74,-29.65 784.02,-18.71 756.28,-14.17"/>
<polygon fill="midnightblue" stroke="midnightblue" points="756.48,-10.67 746.09,-12.73 755.5,-17.6 756.48,-10.67"/>
</g>
<!-- Node39&#45;&gt;Node38 -->
<g id="edge33" class="edge">
<title>Node39&#45;&gt;Node38</title>
<path fill="none" stroke="midnightblue" d="M624.22,-224.37C570.57,-204.89 439.97,-157.48 378.3,-135.09"/>
<polygon fill="midnightblue" stroke="midnightblue" points="379.26,-131.71 368.67,-131.59 376.87,-138.29 379.26,-131.71"/>
</g>
<!-- Node39&#45;&gt;Node19 -->
<g id="edge34" class="edge">
<title>Node39&#45;&gt;Node19</title>
<path fill="none" stroke="midnightblue" d="M612.89,-227.32C548.47,-216.91 412.19,-194.87 348.35,-184.55"/>
<polygon fill="midnightblue" stroke="midnightblue" points="348.81,-181.08 338.38,-182.94 347.7,-187.99 348.81,-181.08"/>
</g>
<!-- Node41&#45;&gt;Node10 -->
<g id="edge49" class="edge">
<title>Node41&#45;&gt;Node10</title>
<path fill="none" stroke="midnightblue" d="M154.57,-224.42C176.98,-215.75 212.19,-201.71 242,-188 259.7,-179.86 263.02,-175.51 281,-168 300.1,-160.02 351.71,-143.57 385.84,-132.92"/>
<polygon fill="midnightblue" stroke="midnightblue" points="387.31,-136.13 395.82,-129.82 385.23,-129.45 387.31,-136.13"/>
</g>
<!-- Node41&#45;&gt;Node11 -->
<g id="edge48" class="edge">
<title>Node41&#45;&gt;Node11</title>
<path fill="none" stroke="midnightblue" d="M133.62,-224.24C138.18,-202.09 153.2,-143.37 189,-112 273.19,-38.23 411.57,-18.27 473.85,-12.93"/>
<polygon fill="midnightblue" stroke="midnightblue" points="474.18,-16.41 483.87,-12.14 473.63,-9.43 474.18,-16.41"/>
</g>
<!-- Node41&#45;&gt;Node12 -->
<g id="edge45" class="edge">
<title>Node41&#45;&gt;Node12</title>
<path fill="none" stroke="midnightblue" d="M129.04,-224.45C126,-215.45 121.26,-200.85 118,-188 108.89,-152.15 101.15,-109.59 97.08,-85.7"/>
<polygon fill="midnightblue" stroke="midnightblue" points="100.48,-84.86 95.38,-75.58 93.58,-86.02 100.48,-84.86"/>
</g>
<!-- Node41&#45;&gt;Node19 -->
<g id="edge47" class="edge">
<title>Node41&#45;&gt;Node19</title>
<path fill="none" stroke="midnightblue" d="M160.84,-224.44C193.32,-214.81 246.03,-199.17 280.35,-188.98"/>
<polygon fill="midnightblue" stroke="midnightblue" points="281.35,-192.34 289.95,-186.14 279.36,-185.63 281.35,-192.34"/>
</g>
<!-- Node42 -->
<g id="node27" class="node">
<title>Node42</title>
<g id="a_node27"><a xlink:title=" ">
<polygon fill="none" stroke="#bfbfbf" points="28,-168.5 28,-187.5 66,-187.5 66,-168.5 28,-168.5"/>
<text text-anchor="middle" x="47" y="-175.5" font-family="Helvetica,sans-Serif" font-size="10.00">map</text>
</a>
</g>
</g>
<!-- Node41&#45;&gt;Node42 -->
<g id="edge46" class="edge">
<title>Node41&#45;&gt;Node42</title>
<path fill="none" stroke="midnightblue" d="M118.34,-224.32C105.08,-215.9 84.73,-202.97 69.15,-193.07"/>
<polygon fill="midnightblue" stroke="midnightblue" points="70.94,-190.06 60.62,-187.65 67.19,-195.97 70.94,-190.06"/>
</g>
<!-- Node43 -->
<g id="node28" class="node">
<title>Node43</title>
<g id="a_node28"><a xlink:href="range_8h.html" target="_top" xlink:title="Ranges: pair of begin and end iterators, which can be initialized from containers,...">
<polygon fill="none" stroke="black" points="180.5,-168.5 180.5,-187.5 233.5,-187.5 233.5,-168.5 180.5,-168.5"/>
<text text-anchor="middle" x="207" y="-175.5" font-family="Helvetica,sans-Serif" font-size="10.00">range.h</text>
</a>
</g>
</g>
<!-- Node41&#45;&gt;Node43 -->
<g id="edge50" class="edge">
<title>Node41&#45;&gt;Node43</title>
<path fill="none" stroke="midnightblue" d="M144.05,-224.32C155.46,-216.11 172.83,-203.6 186.43,-193.81"/>
<polygon fill="midnightblue" stroke="midnightblue" points="188.66,-196.52 194.73,-187.83 184.57,-190.84 188.66,-196.52"/>
</g>
<!-- Node43&#45;&gt;Node13 -->
<g id="edge51" class="edge">
<title>Node43&#45;&gt;Node13</title>
<path fill="none" stroke="midnightblue" d="M217.61,-168.31C234.68,-154.7 269.7,-128.21 303,-112 333.56,-97.12 370.21,-85.54 398.34,-77.86"/>
<polygon fill="midnightblue" stroke="midnightblue" points="399.53,-81.17 408.29,-75.21 397.72,-74.4 399.53,-81.17"/>
</g>
<!-- Node43&#45;&gt;Node16 -->
<g id="edge54" class="edge">
<title>Node43&#45;&gt;Node16</title>
<path fill="none" stroke="midnightblue" d="M202.81,-168.24C198.71,-159.31 192.57,-144.98 189,-132 179.27,-96.58 174.02,-53.87 171.63,-29.83"/>
<polygon fill="midnightblue" stroke="midnightblue" points="175.1,-29.28 170.69,-19.65 168.13,-29.93 175.1,-29.28"/>
</g>
<!-- Node43&#45;&gt;Node38 -->
<g id="edge52" class="edge">
<title>Node43&#45;&gt;Node38</title>
<path fill="none" stroke="midnightblue" d="M228.87,-168.44C251.78,-159.48 287.98,-145.31 313.87,-135.18"/>
<polygon fill="midnightblue" stroke="midnightblue" points="315.2,-138.42 323.24,-131.52 312.65,-131.9 315.2,-138.42"/>
</g>
<!-- Node44 -->
<g id="node29" class="node">
<title>Node44</title>
<g id="a_node29"><a xlink:title=" ">
<polygon fill="none" stroke="#bfbfbf" points="198,-112.5 198,-131.5 256,-131.5 256,-112.5 198,-112.5"/>
<text text-anchor="middle" x="227" y="-119.5" font-family="Helvetica,sans-Serif" font-size="10.00">memory</text>
</a>
</g>
</g>
<!-- Node43&#45;&gt;Node44 -->
<g id="edge53" class="edge">
<title>Node43&#45;&gt;Node44</title>
<path fill="none" stroke="midnightblue" d="M210.3,-168.08C212.98,-160.85 216.85,-150.41 220.19,-141.4"/>
<polygon fill="midnightblue" stroke="midnightblue" points="223.57,-142.34 223.76,-131.75 217,-139.91 223.57,-142.34"/>
</g>
</g>
</svg>
