<?xml version="1.0" encoding="UTF-8" standalone="no"?>
<!DOCTYPE svg PUBLIC "-//W3C//DTD SVG 1.1//EN"
 "http://www.w3.org/Graphics/SVG/1.1/DTD/svg11.dtd">
<!-- Generated by graphviz version 2.43.0 (0)
 -->
<!-- Title: /home/runner/work/cbmc/cbmc/src/goto&#45;programs/label_function_pointer_call_sites.cpp Pages: 1 -->
<svg width="1153pt" height="923pt"
 viewBox="0.00 0.00 1153.00 923.00" xmlns="http://www.w3.org/2000/svg" xmlns:xlink="http://www.w3.org/1999/xlink">
<g id="graph0" class="graph" transform="scale(1 1) rotate(0) translate(4 919)">
<title>/home/runner/work/cbmc/cbmc/src/goto&#45;programs/label_function_pointer_call_sites.cpp</title>
<!-- Node1 -->
<g id="node1" class="node">
<title>Node1</title>
<g id="a_node1"><a xlink:title=" ">
<polygon fill="#bfbfbf" stroke="black" points="497,-862.5 497,-914.5 635,-914.5 635,-862.5 497,-862.5"/>
<text text-anchor="start" x="505" y="-902.5" font-family="Helvetica,sans-Serif" font-size="10.00">/home/runner/work/cbmc</text>
<text text-anchor="start" x="505" y="-891.5" font-family="Helvetica,sans-Serif" font-size="10.00">/cbmc/src/goto&#45;programs</text>
<text text-anchor="start" x="505" y="-880.5" font-family="Helvetica,sans-Serif" font-size="10.00">/label_function_pointer</text>
<text text-anchor="middle" x="566" y="-869.5" font-family="Helvetica,sans-Serif" font-size="10.00">_call_sites.cpp</text>
</a>
</g>
</g>
<!-- Node2 -->
<g id="node2" class="node">
<title>Node2</title>
<g id="a_node2"><a xlink:href="label__function__pointer__call__sites_8h.html" target="_top" xlink:title=" ">
<polygon fill="none" stroke="black" points="381.5,-795.5 381.5,-825.5 506.5,-825.5 506.5,-795.5 381.5,-795.5"/>
<text text-anchor="start" x="389.5" y="-813.5" font-family="Helvetica,sans-Serif" font-size="10.00">label_function_pointer</text>
<text text-anchor="middle" x="444" y="-802.5" font-family="Helvetica,sans-Serif" font-size="10.00">_call_sites.h</text>
</a>
</g>
</g>
<!-- Node1&#45;&gt;Node2 -->
<g id="edge1" class="edge">
<title>Node1&#45;&gt;Node2</title>
<path fill="none" stroke="midnightblue" d="M525.71,-862.4C509.35,-852.21 490.74,-840.61 475.41,-831.07"/>
<polygon fill="midnightblue" stroke="midnightblue" points="477.14,-828.02 466.81,-825.71 473.44,-833.96 477.14,-828.02"/>
</g>
<!-- Node3 -->
<g id="node3" class="node">
<title>Node3</title>
<g id="a_node3"><a xlink:href="pointer__expr_8h.html" target="_top" xlink:title=" ">
<polygon fill="none" stroke="black" points="915.5,-504.5 915.5,-523.5 1020.5,-523.5 1020.5,-504.5 915.5,-504.5"/>
<text text-anchor="middle" x="968" y="-511.5" font-family="Helvetica,sans-Serif" font-size="10.00">util/pointer_expr.h</text>
</a>
</g>
</g>
<!-- Node1&#45;&gt;Node3 -->
<g id="edge2" class="edge">
<title>Node1&#45;&gt;Node3</title>
<path fill="none" stroke="midnightblue" d="M635.21,-884.62C725.2,-876.75 871,-848.01 871,-744.5 871,-744.5 871,-744.5 871,-625 871,-581.35 914.51,-546.83 943.24,-528.79"/>
<polygon fill="midnightblue" stroke="midnightblue" points="945.23,-531.68 951.98,-523.52 941.61,-525.68 945.23,-531.68"/>
</g>
<!-- Node46 -->
<g id="node27" class="node">
<title>Node46</title>
<g id="a_node27"><a xlink:href="goto__model_8h.html" target="_top" xlink:title=" ">
<polygon fill="none" stroke="black" points="524.5,-801 524.5,-820 607.5,-820 607.5,-801 524.5,-801"/>
<text text-anchor="middle" x="566" y="-808" font-family="Helvetica,sans-Serif" font-size="10.00">goto_model.h</text>
</a>
</g>
</g>
<!-- Node1&#45;&gt;Node46 -->
<g id="edge42" class="edge">
<title>Node1&#45;&gt;Node46</title>
<path fill="none" stroke="midnightblue" d="M566,-862.19C566,-851.76 566,-839.9 566,-830.27"/>
<polygon fill="midnightblue" stroke="midnightblue" points="569.5,-830.21 566,-820.21 562.5,-830.21 569.5,-830.21"/>
</g>
<!-- Node4 -->
<g id="node4" class="node">
<title>Node4</title>
<g id="a_node4"><a xlink:href="bitvector__types_8h.html" target="_top" xlink:title=" ">
<polygon fill="none" stroke="black" points="822.5,-448.5 822.5,-467.5 923.5,-467.5 923.5,-448.5 822.5,-448.5"/>
<text text-anchor="middle" x="873" y="-455.5" font-family="Helvetica,sans-Serif" font-size="10.00">bitvector_types.h</text>
</a>
</g>
</g>
<!-- Node3&#45;&gt;Node4 -->
<g id="edge3" class="edge">
<title>Node3&#45;&gt;Node4</title>
<path fill="none" stroke="midnightblue" d="M952.74,-504.32C937.78,-495.82 914.75,-482.73 897.27,-472.8"/>
<polygon fill="midnightblue" stroke="midnightblue" points="898.65,-469.55 888.23,-467.65 895.19,-475.64 898.65,-469.55"/>
</g>
<!-- Node45 -->
<g id="node26" class="node">
<title>Node45</title>
<g id="a_node26"><a xlink:href="std__expr_8h.html" target="_top" xlink:title=" ">
<polygon fill="none" stroke="black" points="941.5,-448.5 941.5,-467.5 1008.5,-467.5 1008.5,-448.5 941.5,-448.5"/>
<text text-anchor="middle" x="975" y="-455.5" font-family="Helvetica,sans-Serif" font-size="10.00">std_expr.h</text>
</a>
</g>
</g>
<!-- Node3&#45;&gt;Node45 -->
<g id="edge38" class="edge">
<title>Node3&#45;&gt;Node45</title>
<path fill="none" stroke="midnightblue" d="M969.16,-504.08C970.08,-496.93 971.42,-486.64 972.58,-477.69"/>
<polygon fill="midnightblue" stroke="midnightblue" points="976.05,-478.12 973.87,-467.75 969.11,-477.22 976.05,-478.12"/>
</g>
<!-- Node5 -->
<g id="node5" class="node">
<title>Node5</title>
<g id="a_node5"><a xlink:href="std__types_8h.html" target="_top" xlink:title=" ">
<polygon fill="none" stroke="black" points="804.5,-392.5 804.5,-411.5 877.5,-411.5 877.5,-392.5 804.5,-392.5"/>
<text text-anchor="middle" x="841" y="-399.5" font-family="Helvetica,sans-Serif" font-size="10.00">std_types.h</text>
</a>
</g>
</g>
<!-- Node4&#45;&gt;Node5 -->
<g id="edge4" class="edge">
<title>Node4&#45;&gt;Node5</title>
<path fill="none" stroke="midnightblue" d="M867.72,-448.08C863.29,-440.61 856.84,-429.72 851.38,-420.52"/>
<polygon fill="midnightblue" stroke="midnightblue" points="854.29,-418.57 846.19,-411.75 848.27,-422.14 854.29,-418.57"/>
</g>
<!-- Node6 -->
<g id="node6" class="node">
<title>Node6</title>
<g id="a_node6"><a xlink:href="expr_8h.html" target="_top" xlink:title=" ">
<polygon fill="none" stroke="black" points="728.5,-280.5 728.5,-299.5 775.5,-299.5 775.5,-280.5 728.5,-280.5"/>
<text text-anchor="middle" x="752" y="-287.5" font-family="Helvetica,sans-Serif" font-size="10.00">expr.h</text>
</a>
</g>
</g>
<!-- Node5&#45;&gt;Node6 -->
<g id="edge5" class="edge">
<title>Node5&#45;&gt;Node6</title>
<path fill="none" stroke="midnightblue" d="M834.02,-392.37C819.26,-374.14 784.71,-331.43 765.49,-307.68"/>
<polygon fill="midnightblue" stroke="midnightblue" points="767.96,-305.16 758.95,-299.59 762.52,-309.57 767.96,-305.16"/>
</g>
<!-- Node14 -->
<g id="node13" class="node">
<title>Node14</title>
<g id="a_node13"><a xlink:href="src_2util_2invariant_8h.html" target="_top" xlink:title=" ">
<polygon fill="none" stroke="red" points="727.5,-56.5 727.5,-75.5 796.5,-75.5 796.5,-56.5 727.5,-56.5"/>
<text text-anchor="middle" x="762" y="-63.5" font-family="Helvetica,sans-Serif" font-size="10.00">invariant.h</text>
</a>
</g>
</g>
<!-- Node5&#45;&gt;Node14 -->
<g id="edge31" class="edge">
<title>Node5&#45;&gt;Node14</title>
<path fill="none" stroke="midnightblue" d="M853.9,-392.28C883.91,-371.12 957.91,-313.62 985,-244 988.22,-235.72 987.93,-232.39 985,-224 964.05,-163.97 948.05,-148.51 896,-112 869.25,-93.24 834.08,-81.82 806.48,-75.18"/>
<polygon fill="midnightblue" stroke="midnightblue" points="807.21,-71.76 796.68,-72.95 805.65,-78.58 807.21,-71.76"/>
</g>
<!-- Node35 -->
<g id="node15" class="node">
<title>Node35</title>
<g id="a_node15"><a xlink:href="validate_8h.html" target="_top" xlink:title=" ">
<polygon fill="none" stroke="red" points="773.5,-168.5 773.5,-187.5 838.5,-187.5 838.5,-168.5 773.5,-168.5"/>
<text text-anchor="middle" x="806" y="-175.5" font-family="Helvetica,sans-Serif" font-size="10.00">validate.h</text>
</a>
</g>
</g>
<!-- Node5&#45;&gt;Node35 -->
<g id="edge36" class="edge">
<title>Node5&#45;&gt;Node35</title>
<path fill="none" stroke="midnightblue" d="M841.15,-392.37C841.42,-366.45 840.78,-287.16 825,-224 822.69,-214.74 818.74,-204.93 815.04,-196.84"/>
<polygon fill="midnightblue" stroke="midnightblue" points="818.12,-195.17 810.62,-187.68 811.81,-198.21 818.12,-195.17"/>
</g>
<!-- Node41 -->
<g id="node20" class="node">
<title>Node41</title>
<g id="a_node20"><a xlink:href="expr__cast_8h.html" target="_top" xlink:title="Templated functions to cast to specific exprt&#45;derived classes.">
<polygon fill="none" stroke="black" points="945.5,-336.5 945.5,-355.5 1018.5,-355.5 1018.5,-336.5 945.5,-336.5"/>
<text text-anchor="middle" x="982" y="-343.5" font-family="Helvetica,sans-Serif" font-size="10.00">expr_cast.h</text>
</a>
</g>
</g>
<!-- Node5&#45;&gt;Node41 -->
<g id="edge25" class="edge">
<title>Node5&#45;&gt;Node41</title>
<path fill="none" stroke="midnightblue" d="M863.34,-392.44C886.75,-383.48 923.74,-369.31 950.19,-359.18"/>
<polygon fill="midnightblue" stroke="midnightblue" points="951.68,-362.36 959.76,-355.52 949.17,-355.82 951.68,-362.36"/>
</g>
<!-- Node43 -->
<g id="node22" class="node">
<title>Node43</title>
<g id="a_node22"><a xlink:href="mp__arith_8h.html" target="_top" xlink:title=" ">
<polygon fill="none" stroke="black" points="667.5,-336.5 667.5,-355.5 736.5,-355.5 736.5,-336.5 667.5,-336.5"/>
<text text-anchor="middle" x="702" y="-343.5" font-family="Helvetica,sans-Serif" font-size="10.00">mp_arith.h</text>
</a>
</g>
</g>
<!-- Node5&#45;&gt;Node43 -->
<g id="edge32" class="edge">
<title>Node5&#45;&gt;Node43</title>
<path fill="none" stroke="midnightblue" d="M818.98,-392.44C795.9,-383.48 759.44,-369.31 733.36,-359.18"/>
<polygon fill="midnightblue" stroke="midnightblue" points="734.51,-355.88 723.92,-355.52 731.98,-362.4 734.51,-355.88"/>
</g>
<!-- Node25 -->
<g id="node25" class="node">
<title>Node25</title>
<g id="a_node25"><a xlink:title=" ">
<polygon fill="none" stroke="#bfbfbf" points="556.5,-336.5 556.5,-355.5 649.5,-355.5 649.5,-336.5 556.5,-336.5"/>
<text text-anchor="middle" x="603" y="-343.5" font-family="Helvetica,sans-Serif" font-size="10.00">unordered_map</text>
</a>
</g>
</g>
<!-- Node5&#45;&gt;Node25 -->
<g id="edge37" class="edge">
<title>Node5&#45;&gt;Node25</title>
<path fill="none" stroke="midnightblue" d="M804.33,-392.68C763,-383.3 695.66,-368.02 650.37,-357.75"/>
<polygon fill="midnightblue" stroke="midnightblue" points="651.02,-354.31 640.49,-355.51 649.47,-361.13 651.02,-354.31"/>
</g>
<!-- Node7 -->
<g id="node7" class="node">
<title>Node7</title>
<g id="a_node7"><a xlink:href="as__const_8h.html" target="_top" xlink:title=" ">
<polygon fill="none" stroke="black" points="682,-224.5 682,-243.5 750,-243.5 750,-224.5 682,-224.5"/>
<text text-anchor="middle" x="716" y="-231.5" font-family="Helvetica,sans-Serif" font-size="10.00">as_const.h</text>
</a>
</g>
</g>
<!-- Node6&#45;&gt;Node7 -->
<g id="edge6" class="edge">
<title>Node6&#45;&gt;Node7</title>
<path fill="none" stroke="midnightblue" d="M746.06,-280.08C741.02,-272.53 733.66,-261.49 727.49,-252.23"/>
<polygon fill="midnightblue" stroke="midnightblue" points="730.29,-250.13 721.83,-243.75 724.47,-254.01 730.29,-250.13"/>
</g>
<!-- Node8 -->
<g id="node8" class="node">
<title>Node8</title>
<g id="a_node8"><a xlink:href="type_8h.html" target="_top" xlink:title=" ">
<polygon fill="none" stroke="black" points="768.5,-224.5 768.5,-243.5 815.5,-243.5 815.5,-224.5 768.5,-224.5"/>
<text text-anchor="middle" x="792" y="-231.5" font-family="Helvetica,sans-Serif" font-size="10.00">type.h</text>
</a>
</g>
</g>
<!-- Node6&#45;&gt;Node8 -->
<g id="edge7" class="edge">
<title>Node6&#45;&gt;Node8</title>
<path fill="none" stroke="midnightblue" d="M758.61,-280.08C764.26,-272.46 772.54,-261.26 779.45,-251.94"/>
<polygon fill="midnightblue" stroke="midnightblue" points="782.38,-253.87 785.52,-243.75 776.75,-249.7 782.38,-253.87"/>
</g>
<!-- Node37 -->
<g id="node16" class="node">
<title>Node37</title>
<g id="a_node16"><a xlink:href="validation__mode_8h.html" target="_top" xlink:title=" ">
<polygon fill="none" stroke="black" points="621.5,-112.5 621.5,-131.5 728.5,-131.5 728.5,-112.5 621.5,-112.5"/>
<text text-anchor="middle" x="675" y="-119.5" font-family="Helvetica,sans-Serif" font-size="10.00">validation_mode.h</text>
</a>
</g>
</g>
<!-- Node6&#45;&gt;Node37 -->
<g id="edge23" class="edge">
<title>Node6&#45;&gt;Node37</title>
<path fill="none" stroke="midnightblue" d="M728.27,-282.25C725.16,-281.45 722.01,-280.68 719,-280 674.52,-269.99 546.28,-278.96 517,-244 497.46,-220.67 527.15,-184.35 546,-168 565.05,-151.48 590.53,-140.92 613.81,-134.22"/>
<polygon fill="midnightblue" stroke="midnightblue" points="614.88,-137.56 623.62,-131.58 613.06,-130.8 614.88,-137.56"/>
</g>
<!-- Node38 -->
<g id="node17" class="node">
<title>Node38</title>
<g id="a_node17"><a xlink:href="validate__types_8h.html" target="_top" xlink:title=" ">
<polygon fill="none" stroke="black" points="555,-168.5 555,-187.5 653,-187.5 653,-168.5 555,-168.5"/>
<text text-anchor="middle" x="604" y="-175.5" font-family="Helvetica,sans-Serif" font-size="10.00">validate_types.h</text>
</a>
</g>
</g>
<!-- Node6&#45;&gt;Node38 -->
<g id="edge22" class="edge">
<title>Node6&#45;&gt;Node38</title>
<path fill="none" stroke="midnightblue" d="M728.27,-282.28C725.16,-281.47 722.01,-280.69 719,-280 676.47,-270.25 553.88,-277.56 526,-244 508.44,-222.86 541.19,-203.37 569.48,-191.35"/>
<polygon fill="midnightblue" stroke="midnightblue" points="570.87,-194.57 578.83,-187.57 568.25,-188.08 570.87,-194.57"/>
</g>
<!-- Node39 -->
<g id="node18" class="node">
<title>Node39</title>
<g id="a_node18"><a xlink:href="validate__expressions_8h.html" target="_top" xlink:title=" ">
<polygon fill="none" stroke="black" points="534.5,-224.5 534.5,-243.5 663.5,-243.5 663.5,-224.5 534.5,-224.5"/>
<text text-anchor="middle" x="599" y="-231.5" font-family="Helvetica,sans-Serif" font-size="10.00">validate_expressions.h</text>
</a>
</g>
</g>
<!-- Node6&#45;&gt;Node39 -->
<g id="edge21" class="edge">
<title>Node6&#45;&gt;Node39</title>
<path fill="none" stroke="midnightblue" d="M728.43,-280.68C702.86,-271.66 661.82,-257.17 632.81,-246.93"/>
<polygon fill="midnightblue" stroke="midnightblue" points="633.7,-243.53 623.1,-243.51 631.37,-250.14 633.7,-243.53"/>
</g>
<!-- Node40 -->
<g id="node19" class="node">
<title>Node40</title>
<g id="a_node19"><a xlink:title=" ">
<polygon fill="none" stroke="#bfbfbf" points="910.5,-224.5 910.5,-243.5 975.5,-243.5 975.5,-224.5 910.5,-224.5"/>
<text text-anchor="middle" x="943" y="-231.5" font-family="Helvetica,sans-Serif" font-size="10.00">functional</text>
</a>
</g>
</g>
<!-- Node6&#45;&gt;Node40 -->
<g id="edge24" class="edge">
<title>Node6&#45;&gt;Node40</title>
<path fill="none" stroke="midnightblue" d="M775.8,-282.27C807.66,-273.26 864.59,-257.17 903.07,-246.29"/>
<polygon fill="midnightblue" stroke="midnightblue" points="904.24,-249.6 912.91,-243.51 902.34,-242.86 904.24,-249.6"/>
</g>
<!-- Node9 -->
<g id="node9" class="node">
<title>Node9</title>
<g id="a_node9"><a xlink:href="source__location_8h.html" target="_top" xlink:title=" ">
<polygon fill="none" stroke="red" points="66,-168.5 66,-187.5 168,-187.5 168,-168.5 66,-168.5"/>
<text text-anchor="middle" x="117" y="-175.5" font-family="Helvetica,sans-Serif" font-size="10.00">source_location.h</text>
</a>
</g>
</g>
<!-- Node8&#45;&gt;Node9 -->
<g id="edge8" class="edge">
<title>Node8&#45;&gt;Node9</title>
<path fill="none" stroke="midnightblue" d="M768.33,-225.94C765.22,-225.19 762.05,-224.51 759,-224 520.03,-183.92 456.55,-207.08 215,-188 203.09,-187.06 190.38,-185.96 178.18,-184.86"/>
<polygon fill="midnightblue" stroke="midnightblue" points="178.37,-181.36 168.1,-183.94 177.74,-188.34 178.37,-181.36"/>
</g>
<!-- Node8&#45;&gt;Node35 -->
<g id="edge16" class="edge">
<title>Node8&#45;&gt;Node35</title>
<path fill="none" stroke="midnightblue" d="M794.31,-224.08C796.17,-216.93 798.84,-206.64 801.15,-197.69"/>
<polygon fill="midnightblue" stroke="midnightblue" points="804.61,-198.31 803.73,-187.75 797.83,-196.55 804.61,-198.31"/>
</g>
<!-- Node8&#45;&gt;Node37 -->
<g id="edge20" class="edge">
<title>Node8&#45;&gt;Node37</title>
<path fill="none" stroke="midnightblue" d="M782.82,-224.37C763.17,-205.89 716.79,-162.29 691.75,-138.74"/>
<polygon fill="midnightblue" stroke="midnightblue" points="693.82,-135.89 684.14,-131.59 689.03,-140.99 693.82,-135.89"/>
</g>
<!-- Node8&#45;&gt;Node38 -->
<g id="edge19" class="edge">
<title>Node8&#45;&gt;Node38</title>
<path fill="none" stroke="midnightblue" d="M768.19,-226.16C736.81,-217.15 681.18,-201.17 643.46,-190.33"/>
<polygon fill="midnightblue" stroke="midnightblue" points="644.38,-186.96 633.81,-187.56 642.45,-193.69 644.38,-186.96"/>
</g>
<!-- Node10 -->
<g id="node10" class="node">
<title>Node10</title>
<g id="a_node10"><a xlink:href="deprecate_8h.html" target="_top" xlink:title=" ">
<polygon fill="none" stroke="black" points="183,-112.5 183,-131.5 257,-131.5 257,-112.5 183,-112.5"/>
<text text-anchor="middle" x="220" y="-119.5" font-family="Helvetica,sans-Serif" font-size="10.00">deprecate.h</text>
</a>
</g>
</g>
<!-- Node9&#45;&gt;Node10 -->
<g id="edge9" class="edge">
<title>Node9&#45;&gt;Node10</title>
<path fill="none" stroke="midnightblue" d="M133.55,-168.32C149.99,-159.7 175.43,-146.36 194.47,-136.39"/>
<polygon fill="midnightblue" stroke="midnightblue" points="196.26,-139.4 203.49,-131.65 193.01,-133.2 196.26,-139.4"/>
</g>
<!-- Node11 -->
<g id="node11" class="node">
<title>Node11</title>
<g id="a_node11"><a xlink:href="irep_8h.html" target="_top" xlink:title=" ">
<polygon fill="none" stroke="red" points="121,-112.5 121,-131.5 165,-131.5 165,-112.5 121,-112.5"/>
<text text-anchor="middle" x="143" y="-119.5" font-family="Helvetica,sans-Serif" font-size="10.00">irep.h</text>
</a>
</g>
</g>
<!-- Node9&#45;&gt;Node11 -->
<g id="edge10" class="edge">
<title>Node9&#45;&gt;Node11</title>
<path fill="none" stroke="midnightblue" d="M121.29,-168.08C124.85,-160.69 130.02,-149.95 134.42,-140.81"/>
<polygon fill="midnightblue" stroke="midnightblue" points="137.6,-142.28 138.79,-131.75 131.29,-139.24 137.6,-142.28"/>
</g>
<!-- Node12 -->
<g id="node12" class="node">
<title>Node12</title>
<g id="a_node12"><a xlink:title=" ">
<polygon fill="none" stroke="#bfbfbf" points="121,-0.5 121,-19.5 165,-19.5 165,-0.5 121,-0.5"/>
<text text-anchor="middle" x="143" y="-7.5" font-family="Helvetica,sans-Serif" font-size="10.00">string</text>
</a>
</g>
</g>
<!-- Node9&#45;&gt;Node12 -->
<g id="edge15" class="edge">
<title>Node9&#45;&gt;Node12</title>
<path fill="none" stroke="midnightblue" d="M115.76,-168.4C114.52,-159.36 112.7,-144.71 112,-132 111.51,-123.12 110.68,-120.79 112,-112 116.47,-82.17 127.99,-48.99 135.66,-29.07"/>
<polygon fill="midnightblue" stroke="midnightblue" points="138.94,-30.3 139.35,-19.71 132.43,-27.73 138.94,-30.3"/>
</g>
<!-- Node11&#45;&gt;Node12 -->
<g id="edge11" class="edge">
<title>Node11&#45;&gt;Node12</title>
<path fill="none" stroke="midnightblue" d="M143,-112.37C143,-94.62 143,-53.67 143,-29.6"/>
<polygon fill="midnightblue" stroke="midnightblue" points="146.5,-29.59 143,-19.59 139.5,-29.59 146.5,-29.59"/>
</g>
<!-- Node11&#45;&gt;Node14 -->
<g id="edge12" class="edge">
<title>Node11&#45;&gt;Node14</title>
<path fill="none" stroke="midnightblue" d="M165.22,-113.95C168.15,-113.2 171.13,-112.52 174,-112 374.22,-75.68 617.98,-68.63 716.98,-67.3"/>
<polygon fill="midnightblue" stroke="midnightblue" points="717.26,-70.79 727.22,-67.17 717.18,-63.79 717.26,-70.79"/>
</g>
<!-- Node14&#45;&gt;Node12 -->
<g id="edge13" class="edge">
<title>Node14&#45;&gt;Node12</title>
<path fill="none" stroke="midnightblue" d="M727.39,-61.98C618.1,-52.45 281.3,-23.06 175.29,-13.82"/>
<polygon fill="midnightblue" stroke="midnightblue" points="175.47,-10.32 165.2,-12.94 174.86,-17.29 175.47,-10.32"/>
</g>
<!-- Node17 -->
<g id="node14" class="node">
<title>Node17</title>
<g id="a_node14"><a xlink:title=" ">
<polygon fill="none" stroke="#bfbfbf" points="790.5,-0.5 790.5,-19.5 859.5,-19.5 859.5,-0.5 790.5,-0.5"/>
<text text-anchor="middle" x="825" y="-7.5" font-family="Helvetica,sans-Serif" font-size="10.00">type_traits</text>
</a>
</g>
</g>
<!-- Node14&#45;&gt;Node17 -->
<g id="edge14" class="edge">
<title>Node14&#45;&gt;Node17</title>
<path fill="none" stroke="midnightblue" d="M772.12,-56.32C781.53,-48.26 795.74,-36.08 807.07,-26.37"/>
<polygon fill="midnightblue" stroke="midnightblue" points="809.38,-29 814.69,-19.83 804.82,-23.68 809.38,-29"/>
</g>
<!-- Node35&#45;&gt;Node17 -->
<g id="edge17" class="edge">
<title>Node35&#45;&gt;Node17</title>
<path fill="none" stroke="midnightblue" d="M807.02,-168.08C810.01,-141.95 818.8,-65.21 822.87,-29.58"/>
<polygon fill="midnightblue" stroke="midnightblue" points="826.36,-29.9 824.02,-19.57 819.4,-29.11 826.36,-29.9"/>
</g>
<!-- Node35&#45;&gt;Node37 -->
<g id="edge18" class="edge">
<title>Node35&#45;&gt;Node37</title>
<path fill="none" stroke="midnightblue" d="M785.24,-168.44C763.68,-159.56 729.74,-145.56 705.21,-135.45"/>
<polygon fill="midnightblue" stroke="midnightblue" points="706.24,-132.09 695.66,-131.52 703.57,-138.56 706.24,-132.09"/>
</g>
<!-- Node41&#45;&gt;Node6 -->
<g id="edge30" class="edge">
<title>Node41&#45;&gt;Node6</title>
<path fill="none" stroke="midnightblue" d="M945.56,-336.44C901.56,-326.11 828.17,-308.88 785.52,-298.87"/>
<polygon fill="midnightblue" stroke="midnightblue" points="786.17,-295.43 775.63,-296.55 784.57,-302.24 786.17,-295.43"/>
</g>
<!-- Node41&#45;&gt;Node14 -->
<g id="edge29" class="edge">
<title>Node41&#45;&gt;Node14</title>
<path fill="none" stroke="midnightblue" d="M1002.08,-336.43C1017.34,-328.93 1037.74,-316.64 1050,-300 1067.86,-275.77 1069,-265.1 1069,-235 1069,-235 1069,-235 1069,-177 1069,-140.28 1049.5,-130.87 1018,-112 983.16,-91.13 870.78,-77.36 807.1,-71.03"/>
<polygon fill="midnightblue" stroke="midnightblue" points="807.23,-67.52 796.94,-70.04 806.55,-74.49 807.23,-67.52"/>
</g>
<!-- Node41&#45;&gt;Node17 -->
<g id="edge27" class="edge">
<title>Node41&#45;&gt;Node17</title>
<path fill="none" stroke="midnightblue" d="M1018.58,-337.41C1066.64,-325.05 1145,-295.6 1145,-235 1145,-235 1145,-235 1145,-121 1145,-63.43 957.44,-29.54 869.51,-16.81"/>
<polygon fill="midnightblue" stroke="midnightblue" points="869.94,-13.34 859.55,-15.4 868.96,-20.27 869.94,-13.34"/>
</g>
<!-- Node41&#45;&gt;Node40 -->
<g id="edge28" class="edge">
<title>Node41&#45;&gt;Node40</title>
<path fill="none" stroke="midnightblue" d="M978.94,-336.37C972.62,-318.54 958,-277.3 949.48,-253.27"/>
<polygon fill="midnightblue" stroke="midnightblue" points="952.69,-251.85 946.05,-243.59 946.09,-254.19 952.69,-251.85"/>
</g>
<!-- Node42 -->
<g id="node21" class="node">
<title>Node42</title>
<g id="a_node21"><a xlink:title=" ">
<polygon fill="none" stroke="#bfbfbf" points="983.5,-280.5 983.5,-299.5 1040.5,-299.5 1040.5,-280.5 983.5,-280.5"/>
<text text-anchor="middle" x="1012" y="-287.5" font-family="Helvetica,sans-Serif" font-size="10.00">typeinfo</text>
</a>
</g>
</g>
<!-- Node41&#45;&gt;Node42 -->
<g id="edge26" class="edge">
<title>Node41&#45;&gt;Node42</title>
<path fill="none" stroke="midnightblue" d="M986.95,-336.08C991.1,-328.61 997.15,-317.72 1002.27,-308.52"/>
<polygon fill="midnightblue" stroke="midnightblue" points="1005.34,-310.19 1007.14,-299.75 999.22,-306.79 1005.34,-310.19"/>
</g>
<!-- Node43&#45;&gt;Node12 -->
<g id="edge34" class="edge">
<title>Node43&#45;&gt;Node12</title>
<path fill="none" stroke="midnightblue" d="M682.9,-336.39C663.59,-327.58 632.98,-313.34 607,-300 427.96,-208.08 227.13,-70.13 163.48,-25.49"/>
<polygon fill="midnightblue" stroke="midnightblue" points="165.3,-22.49 155.11,-19.6 161.27,-28.21 165.3,-22.49"/>
</g>
<!-- Node20 -->
<g id="node23" class="node">
<title>Node20</title>
<g id="a_node23"><a xlink:title=" ">
<polygon fill="none" stroke="#bfbfbf" points="420,-280.5 420,-299.5 468,-299.5 468,-280.5 420,-280.5"/>
<text text-anchor="middle" x="444" y="-287.5" font-family="Helvetica,sans-Serif" font-size="10.00">iosfwd</text>
</a>
</g>
</g>
<!-- Node43&#45;&gt;Node20 -->
<g id="edge33" class="edge">
<title>Node43&#45;&gt;Node20</title>
<path fill="none" stroke="midnightblue" d="M667.27,-337.71C664.47,-337.13 661.69,-336.55 659,-336 580.38,-319.78 560.4,-317.25 482,-300 480.73,-299.72 479.44,-299.43 478.14,-299.14"/>
<polygon fill="midnightblue" stroke="midnightblue" points="478.63,-295.66 468.1,-296.83 477.06,-302.48 478.63,-295.66"/>
</g>
<!-- Node44 -->
<g id="node24" class="node">
<title>Node44</title>
<g id="a_node24"><a xlink:title=" ">
<polygon fill="none" stroke="#bfbfbf" points="616,-280.5 616,-299.5 710,-299.5 710,-280.5 616,-280.5"/>
<text text-anchor="middle" x="663" y="-287.5" font-family="Helvetica,sans-Serif" font-size="10.00">big&#45;int/bigint.hh</text>
</a>
</g>
</g>
<!-- Node43&#45;&gt;Node44 -->
<g id="edge35" class="edge">
<title>Node43&#45;&gt;Node44</title>
<path fill="none" stroke="midnightblue" d="M695.56,-336.08C690.05,-328.46 681.97,-317.26 675.24,-307.94"/>
<polygon fill="midnightblue" stroke="midnightblue" points="678.01,-305.81 669.32,-299.75 672.34,-309.91 678.01,-305.81"/>
</g>
<!-- Node45&#45;&gt;Node5 -->
<g id="edge41" class="edge">
<title>Node45&#45;&gt;Node5</title>
<path fill="none" stroke="midnightblue" d="M953.77,-448.44C931.62,-439.52 896.68,-425.44 871.56,-415.32"/>
<polygon fill="midnightblue" stroke="midnightblue" points="872.72,-412.01 862.13,-411.52 870.1,-418.5 872.72,-412.01"/>
</g>
<!-- Node45&#45;&gt;Node14 -->
<g id="edge40" class="edge">
<title>Node45&#45;&gt;Node14</title>
<path fill="none" stroke="midnightblue" d="M1001.39,-448.47C1039.92,-434.16 1107,-401.44 1107,-347 1107,-347 1107,-347 1107,-177 1107,-137.68 1081.67,-130.54 1047,-112 1006.24,-90.21 876.17,-76.45 806.71,-70.47"/>
<polygon fill="midnightblue" stroke="midnightblue" points="806.77,-66.96 796.51,-69.61 806.18,-73.94 806.77,-66.96"/>
</g>
<!-- Node45&#45;&gt;Node41 -->
<g id="edge39" class="edge">
<title>Node45&#45;&gt;Node41</title>
<path fill="none" stroke="midnightblue" d="M975.55,-448.37C976.68,-430.62 979.28,-389.67 980.82,-365.6"/>
<polygon fill="midnightblue" stroke="midnightblue" points="984.31,-365.79 981.45,-355.59 977.33,-365.35 984.31,-365.79"/>
</g>
<!-- Node47 -->
<g id="node28" class="node">
<title>Node47</title>
<g id="a_node28"><a xlink:href="symbol__table_8h.html" target="_top" xlink:title="Author: Diffblue Ltd.">
<polygon fill="none" stroke="black" points="339,-672.5 339,-691.5 449,-691.5 449,-672.5 339,-672.5"/>
<text text-anchor="middle" x="394" y="-679.5" font-family="Helvetica,sans-Serif" font-size="10.00">util/symbol_table.h</text>
</a>
</g>
</g>
<!-- Node46&#45;&gt;Node47 -->
<g id="edge43" class="edge">
<title>Node46&#45;&gt;Node47</title>
<path fill="none" stroke="midnightblue" d="M541.6,-800.97C511.4,-790.1 462.12,-771.27 447,-759 427.34,-743.05 411.83,-718 402.79,-701.06"/>
<polygon fill="midnightblue" stroke="midnightblue" points="405.68,-699.03 398.02,-691.71 399.45,-702.21 405.68,-699.03"/>
</g>
<!-- Node51 -->
<g id="node32" class="node">
<title>Node51</title>
<g id="a_node32"><a xlink:href="journalling__symbol__table_8h.html" target="_top" xlink:title="Author: Diffblue Ltd.">
<polygon fill="none" stroke="black" points="234,-728.5 234,-758.5 362,-758.5 362,-728.5 234,-728.5"/>
<text text-anchor="start" x="242" y="-746.5" font-family="Helvetica,sans-Serif" font-size="10.00">util/journalling_symbol</text>
<text text-anchor="middle" x="298" y="-735.5" font-family="Helvetica,sans-Serif" font-size="10.00">_table.h</text>
</a>
</g>
</g>
<!-- Node46&#45;&gt;Node51 -->
<g id="edge51" class="edge">
<title>Node46&#45;&gt;Node51</title>
<path fill="none" stroke="midnightblue" d="M537.52,-800.95C530.5,-798.92 523,-796.82 516,-795 468.32,-782.57 414.37,-770.06 372.08,-760.6"/>
<polygon fill="midnightblue" stroke="midnightblue" points="372.66,-757.15 362.14,-758.39 371.14,-763.98 372.66,-757.15"/>
</g>
<!-- Node54 -->
<g id="node35" class="node">
<title>Node54</title>
<g id="a_node35"><a xlink:href="abstract__goto__model_8h.html" target="_top" xlink:title=" ">
<polygon fill="none" stroke="black" points="456,-734 456,-753 584,-753 584,-734 456,-734"/>
<text text-anchor="middle" x="520" y="-741" font-family="Helvetica,sans-Serif" font-size="10.00">abstract_goto_model.h</text>
</a>
</g>
</g>
<!-- Node46&#45;&gt;Node54 -->
<g id="edge56" class="edge">
<title>Node46&#45;&gt;Node54</title>
<path fill="none" stroke="midnightblue" d="M559.8,-800.73C552.69,-790.7 540.89,-774.01 531.98,-761.42"/>
<polygon fill="midnightblue" stroke="midnightblue" points="534.74,-759.27 526.11,-753.13 529.03,-763.31 534.74,-759.27"/>
</g>
<!-- Node55 -->
<g id="node36" class="node">
<title>Node55</title>
<g id="a_node36"><a xlink:href="goto__functions_8h.html" target="_top" xlink:title=" ">
<polygon fill="none" stroke="black" points="613,-672.5 613,-691.5 711,-691.5 711,-672.5 613,-672.5"/>
<text text-anchor="middle" x="662" y="-679.5" font-family="Helvetica,sans-Serif" font-size="10.00">goto_functions.h</text>
</a>
</g>
</g>
<!-- Node46&#45;&gt;Node55 -->
<g id="edge79" class="edge">
<title>Node46&#45;&gt;Node55</title>
<path fill="none" stroke="midnightblue" d="M573.88,-800.78C582.71,-790.87 597.32,-774.13 609,-759 624.14,-739.38 640.24,-715.86 650.68,-700.23"/>
<polygon fill="midnightblue" stroke="midnightblue" points="653.77,-701.9 656.38,-691.63 647.94,-698.03 653.77,-701.9"/>
</g>
<!-- Node64 -->
<g id="node44" class="node">
<title>Node64</title>
<g id="a_node44"><a xlink:href="validate__goto__model_8h.html" target="_top" xlink:title=" ">
<polygon fill="none" stroke="black" points="467,-672.5 467,-691.5 595,-691.5 595,-672.5 467,-672.5"/>
<text text-anchor="middle" x="531" y="-679.5" font-family="Helvetica,sans-Serif" font-size="10.00">validate_goto_model.h</text>
</a>
</g>
</g>
<!-- Node46&#45;&gt;Node64 -->
<g id="edge80" class="edge">
<title>Node46&#45;&gt;Node64</title>
<path fill="none" stroke="midnightblue" d="M573.4,-800.59C585.2,-785.22 605.73,-752.97 593,-728 586,-714.27 572.63,-703.75 560.1,-696.35"/>
<polygon fill="midnightblue" stroke="midnightblue" points="561.68,-693.22 551.22,-691.51 558.33,-699.37 561.68,-693.22"/>
</g>
<!-- Node48 -->
<g id="node29" class="node">
<title>Node48</title>
<g id="a_node29"><a xlink:href="symbol__table__base_8h.html" target="_top" xlink:title="Author: Diffblue Ltd.">
<polygon fill="none" stroke="black" points="440,-392.5 440,-411.5 560,-411.5 560,-392.5 440,-392.5"/>
<text text-anchor="middle" x="500" y="-399.5" font-family="Helvetica,sans-Serif" font-size="10.00">symbol_table_base.h</text>
</a>
</g>
</g>
<!-- Node47&#45;&gt;Node48 -->
<g id="edge44" class="edge">
<title>Node47&#45;&gt;Node48</title>
<path fill="none" stroke="midnightblue" d="M397.48,-672.16C406.88,-648.31 433.49,-580.58 455,-524 468.88,-487.48 484.72,-444.6 493.42,-420.95"/>
<polygon fill="midnightblue" stroke="midnightblue" points="496.72,-422.12 496.88,-411.52 490.15,-419.71 496.72,-422.12"/>
</g>
<!-- Node48&#45;&gt;Node25 -->
<g id="edge46" class="edge">
<title>Node48&#45;&gt;Node25</title>
<path fill="none" stroke="midnightblue" d="M516.55,-392.32C532.99,-383.7 558.43,-370.36 577.47,-360.39"/>
<polygon fill="midnightblue" stroke="midnightblue" points="579.26,-363.4 586.49,-355.65 576.01,-357.2 579.26,-363.4"/>
</g>
<!-- Node49 -->
<g id="node30" class="node">
<title>Node49</title>
<g id="a_node30"><a xlink:title=" ">
<polygon fill="none" stroke="#bfbfbf" points="500,-336.5 500,-355.5 538,-355.5 538,-336.5 500,-336.5"/>
<text text-anchor="middle" x="519" y="-343.5" font-family="Helvetica,sans-Serif" font-size="10.00">map</text>
</a>
</g>
</g>
<!-- Node48&#45;&gt;Node49 -->
<g id="edge45" class="edge">
<title>Node48&#45;&gt;Node49</title>
<path fill="none" stroke="midnightblue" d="M503.14,-392.08C505.68,-384.85 509.36,-374.41 512.53,-365.4"/>
<polygon fill="midnightblue" stroke="midnightblue" points="515.9,-366.35 515.92,-355.75 509.3,-364.02 515.9,-366.35"/>
</g>
<!-- Node50 -->
<g id="node31" class="node">
<title>Node50</title>
<g id="a_node31"><a xlink:href="symbol_8h.html" target="_top" xlink:title="Symbol table entry.">
<polygon fill="none" stroke="black" points="420,-336.5 420,-355.5 482,-355.5 482,-336.5 420,-336.5"/>
<text text-anchor="middle" x="451" y="-343.5" font-family="Helvetica,sans-Serif" font-size="10.00">symbol.h</text>
</a>
</g>
</g>
<!-- Node48&#45;&gt;Node50 -->
<g id="edge47" class="edge">
<title>Node48&#45;&gt;Node50</title>
<path fill="none" stroke="midnightblue" d="M491.91,-392.08C484.84,-384.3 474.41,-372.8 465.85,-363.37"/>
<polygon fill="midnightblue" stroke="midnightblue" points="468.25,-360.8 458.94,-355.75 463.07,-365.51 468.25,-360.8"/>
</g>
<!-- Node50&#45;&gt;Node6 -->
<g id="edge49" class="edge">
<title>Node50&#45;&gt;Node6</title>
<path fill="none" stroke="midnightblue" d="M482.4,-337.73C485.3,-337.12 488.2,-336.53 491,-336 588.61,-317.33 616.94,-321.25 718.25,-299.94"/>
<polygon fill="midnightblue" stroke="midnightblue" points="719.23,-303.31 728.28,-297.8 717.77,-296.47 719.23,-303.31"/>
</g>
<!-- Node50&#45;&gt;Node14 -->
<g id="edge50" class="edge">
<title>Node50&#45;&gt;Node14</title>
<path fill="none" stroke="midnightblue" d="M439.11,-336.24C424.33,-324.19 402.08,-301.55 411,-280 437.94,-214.96 467.87,-211.77 523,-168 559.9,-138.71 570.08,-131.42 613,-112 646.84,-96.69 687.3,-84.84 717.51,-77.16"/>
<polygon fill="midnightblue" stroke="midnightblue" points="718.48,-80.53 727.34,-74.71 716.79,-73.73 718.48,-80.53"/>
</g>
<!-- Node50&#45;&gt;Node20 -->
<g id="edge48" class="edge">
<title>Node50&#45;&gt;Node20</title>
<path fill="none" stroke="midnightblue" d="M449.84,-336.08C448.92,-328.93 447.58,-318.64 446.42,-309.69"/>
<polygon fill="midnightblue" stroke="midnightblue" points="449.89,-309.22 445.13,-299.75 442.95,-310.12 449.89,-309.22"/>
</g>
<!-- Node51&#45;&gt;Node11 -->
<g id="edge54" class="edge">
<title>Node51&#45;&gt;Node11</title>
<path fill="none" stroke="midnightblue" d="M233.73,-740.9C156.74,-735.15 38,-712.45 38,-627 38,-627 38,-627 38,-233 38,-202.9 37.92,-191.28 57,-168 70.94,-150.99 93.03,-139.62 111.33,-132.57"/>
<polygon fill="midnightblue" stroke="midnightblue" points="112.53,-135.86 120.76,-129.18 110.16,-129.27 112.53,-135.86"/>
</g>
<!-- Node51&#45;&gt;Node47 -->
<g id="edge55" class="edge">
<title>Node51&#45;&gt;Node47</title>
<path fill="none" stroke="midnightblue" d="M320.75,-728.4C335.99,-718.95 355.99,-706.56 371.24,-697.11"/>
<polygon fill="midnightblue" stroke="midnightblue" points="373.38,-699.9 380.03,-691.66 369.69,-693.95 373.38,-699.9"/>
</g>
<!-- Node52 -->
<g id="node33" class="node">
<title>Node52</title>
<g id="a_node33"><a xlink:title=" ">
<polygon fill="none" stroke="#bfbfbf" points="275.5,-672.5 275.5,-691.5 320.5,-691.5 320.5,-672.5 275.5,-672.5"/>
<text text-anchor="middle" x="298" y="-679.5" font-family="Helvetica,sans-Serif" font-size="10.00">utility</text>
</a>
</g>
</g>
<!-- Node51&#45;&gt;Node52 -->
<g id="edge52" class="edge">
<title>Node51&#45;&gt;Node52</title>
<path fill="none" stroke="midnightblue" d="M298,-728.4C298,-720.47 298,-710.46 298,-701.86"/>
<polygon fill="midnightblue" stroke="midnightblue" points="301.5,-701.66 298,-691.66 294.5,-701.66 301.5,-701.66"/>
</g>
<!-- Node53 -->
<g id="node34" class="node">
<title>Node53</title>
<g id="a_node34"><a xlink:title=" ">
<polygon fill="none" stroke="#bfbfbf" points="171,-672.5 171,-691.5 257,-691.5 257,-672.5 171,-672.5"/>
<text text-anchor="middle" x="214" y="-679.5" font-family="Helvetica,sans-Serif" font-size="10.00">unordered_set</text>
</a>
</g>
</g>
<!-- Node51&#45;&gt;Node53 -->
<g id="edge53" class="edge">
<title>Node51&#45;&gt;Node53</title>
<path fill="none" stroke="midnightblue" d="M278.09,-728.4C265.01,-719.13 247.92,-707.03 234.68,-697.65"/>
<polygon fill="midnightblue" stroke="midnightblue" points="236.41,-694.58 226.22,-691.66 232.36,-700.29 236.41,-694.58"/>
</g>
<!-- Node54&#45;&gt;Node47 -->
<g id="edge78" class="edge">
<title>Node54&#45;&gt;Node47</title>
<path fill="none" stroke="midnightblue" d="M501.95,-733.98C480.8,-723.99 445.56,-707.35 421.12,-695.81"/>
<polygon fill="midnightblue" stroke="midnightblue" points="422.56,-692.61 412.02,-691.51 419.57,-698.94 422.56,-692.61"/>
</g>
<!-- Node54&#45;&gt;Node55 -->
<g id="edge57" class="edge">
<title>Node54&#45;&gt;Node55</title>
<path fill="none" stroke="midnightblue" d="M540.35,-733.98C564.39,-723.9 604.6,-707.05 632.16,-695.5"/>
<polygon fill="midnightblue" stroke="midnightblue" points="633.82,-698.6 641.69,-691.51 631.12,-692.15 633.82,-698.6"/>
</g>
<!-- Node54&#45;&gt;Node64 -->
<g id="edge76" class="edge">
<title>Node54&#45;&gt;Node64</title>
<path fill="none" stroke="midnightblue" d="M521.58,-733.98C523.13,-725.58 525.55,-712.48 527.55,-701.66"/>
<polygon fill="midnightblue" stroke="midnightblue" points="531.05,-701.98 529.43,-691.51 524.17,-700.71 531.05,-701.98"/>
</g>
<!-- Node55&#45;&gt;Node49 -->
<g id="edge75" class="edge">
<title>Node55&#45;&gt;Node49</title>
<path fill="none" stroke="midnightblue" d="M647.27,-672.5C634.8,-664.57 617.35,-651.64 607,-636 590.39,-610.9 588,-601.1 588,-571 588,-571 588,-571 588,-457 588,-426.9 585.02,-417.48 569,-392 561.69,-380.38 550.55,-369.94 540.64,-362.05"/>
<polygon fill="midnightblue" stroke="midnightblue" points="542.46,-359.04 532.37,-355.81 538.24,-364.62 542.46,-359.04"/>
</g>
<!-- Node56 -->
<g id="node37" class="node">
<title>Node56</title>
<g id="a_node37"><a xlink:href="goto__function_8h.html" target="_top" xlink:title=" ">
<polygon fill="none" stroke="black" points="616,-616.5 616,-635.5 708,-635.5 708,-616.5 616,-616.5"/>
<text text-anchor="middle" x="662" y="-623.5" font-family="Helvetica,sans-Serif" font-size="10.00">goto_function.h</text>
</a>
</g>
</g>
<!-- Node55&#45;&gt;Node56 -->
<g id="edge58" class="edge">
<title>Node55&#45;&gt;Node56</title>
<path fill="none" stroke="midnightblue" d="M662,-672.08C662,-665.01 662,-654.86 662,-645.99"/>
<polygon fill="midnightblue" stroke="midnightblue" points="665.5,-645.75 662,-635.75 658.5,-645.75 665.5,-645.75"/>
</g>
<!-- Node59 -->
<g id="node40" class="node">
<title>Node59</title>
<g id="a_node40"><a xlink:href="cprover__prefix_8h.html" target="_top" xlink:title=" ">
<polygon fill="none" stroke="black" points="690,-448.5 690,-467.5 804,-467.5 804,-448.5 690,-448.5"/>
<text text-anchor="middle" x="747" y="-455.5" font-family="Helvetica,sans-Serif" font-size="10.00">util/cprover_prefix.h</text>
</a>
</g>
</g>
<!-- Node55&#45;&gt;Node59 -->
<g id="edge74" class="edge">
<title>Node55&#45;&gt;Node59</title>
<path fill="none" stroke="midnightblue" d="M677.7,-672.47C690.42,-664.7 707.7,-652 717,-636 746.7,-584.9 748.86,-512.38 747.98,-478.21"/>
<polygon fill="midnightblue" stroke="midnightblue" points="751.47,-477.69 747.59,-467.83 744.47,-477.95 751.47,-477.69"/>
</g>
<!-- Node56&#45;&gt;Node5 -->
<g id="edge59" class="edge">
<title>Node56&#45;&gt;Node5</title>
<path fill="none" stroke="midnightblue" d="M659.92,-616.35C653.71,-588.26 638.3,-498.51 681,-448 708.47,-415.51 757.37,-405.52 793.91,-402.88"/>
<polygon fill="midnightblue" stroke="midnightblue" points="794.54,-406.36 804.33,-402.31 794.15,-399.37 794.54,-406.36"/>
</g>
<!-- Node57 -->
<g id="node38" class="node">
<title>Node57</title>
<g id="a_node38"><a xlink:href="goto__program_8h.html" target="_top" xlink:title=" ">
<polygon fill="none" stroke="black" points="299,-560.5 299,-579.5 393,-579.5 393,-560.5 299,-560.5"/>
<text text-anchor="middle" x="346" y="-567.5" font-family="Helvetica,sans-Serif" font-size="10.00">goto_program.h</text>
</a>
</g>
</g>
<!-- Node56&#45;&gt;Node57 -->
<g id="edge60" class="edge">
<title>Node56&#45;&gt;Node57</title>
<path fill="none" stroke="midnightblue" d="M615.71,-617.09C559.4,-607.47 464.32,-591.22 403.4,-580.81"/>
<polygon fill="midnightblue" stroke="midnightblue" points="403.63,-577.3 393.19,-579.06 402.45,-584.2 403.63,-577.3"/>
</g>
<!-- Node57&#45;&gt;Node9 -->
<g id="edge73" class="edge">
<title>Node57&#45;&gt;Node9</title>
<path fill="none" stroke="midnightblue" d="M298.8,-564.7C237.43,-556.21 138,-531.3 138,-459 138,-459 138,-459 138,-289 138,-256.38 128.98,-219.28 122.77,-197.57"/>
<polygon fill="midnightblue" stroke="midnightblue" points="126.04,-196.32 119.83,-187.73 119.33,-198.32 126.04,-196.32"/>
</g>
<!-- Node57&#45;&gt;Node10 -->
<g id="edge68" class="edge">
<title>Node57&#45;&gt;Node10</title>
<path fill="none" stroke="midnightblue" d="M312.34,-560.48C268.11,-547.04 196,-516.32 196,-459 196,-459 196,-459 196,-233 196,-200.06 206.4,-162.82 213.51,-141.21"/>
<polygon fill="midnightblue" stroke="midnightblue" points="216.84,-142.29 216.76,-131.7 210.22,-140.03 216.84,-142.29"/>
</g>
<!-- Node57&#45;&gt;Node12 -->
<g id="edge67" class="edge">
<title>Node57&#45;&gt;Node12</title>
<path fill="none" stroke="midnightblue" d="M298.78,-564.43C258.11,-559.04 198.75,-547.62 152,-524 112.33,-503.96 76,-503.45 76,-459 76,-459 76,-459 76,-401 76,-319.86 0,-316.14 0,-235 0,-235 0,-235 0,-121 0,-65.18 69.3,-33.77 111.41,-19.84"/>
<polygon fill="midnightblue" stroke="midnightblue" points="112.49,-23.17 120.97,-16.82 110.38,-16.49 112.49,-23.17"/>
</g>
<!-- Node57&#45;&gt;Node14 -->
<g id="edge69" class="edge">
<title>Node57&#45;&gt;Node14</title>
<path fill="none" stroke="midnightblue" d="M371.63,-560.48C439.34,-536.96 626.03,-465.55 746,-356 816.2,-291.9 880.84,-257.21 848,-168 834.79,-132.1 802.51,-100.26 781.47,-82.33"/>
<polygon fill="midnightblue" stroke="midnightblue" points="783.44,-79.41 773.5,-75.74 778.98,-84.81 783.44,-79.41"/>
</g>
<!-- Node57&#45;&gt;Node20 -->
<g id="edge64" class="edge">
<title>Node57&#45;&gt;Node20</title>
<path fill="none" stroke="midnightblue" d="M344.34,-560.49C342.18,-547.99 339.11,-523.96 343,-504 358.39,-424.93 371.77,-406.35 411,-336 416.54,-326.06 423.95,-315.76 430.34,-307.53"/>
<polygon fill="midnightblue" stroke="midnightblue" points="433.23,-309.52 436.74,-299.53 427.76,-305.15 433.23,-309.52"/>
</g>
<!-- Node58 -->
<g id="node39" class="node">
<title>Node58</title>
<g id="a_node39"><a xlink:href="goto__instruction__code_8h.html" target="_top" xlink:title=" ">
<polygon fill="none" stroke="red" points="764.5,-504.5 764.5,-523.5 897.5,-523.5 897.5,-504.5 764.5,-504.5"/>
<text text-anchor="middle" x="831" y="-511.5" font-family="Helvetica,sans-Serif" font-size="10.00">goto_instruction_code.h</text>
</a>
</g>
</g>
<!-- Node57&#45;&gt;Node58 -->
<g id="edge61" class="edge">
<title>Node57&#45;&gt;Node58</title>
<path fill="none" stroke="midnightblue" d="M393.39,-563.72C477.27,-554.38 652.58,-534.87 754.01,-523.57"/>
<polygon fill="midnightblue" stroke="midnightblue" points="754.64,-527.02 764.19,-522.44 753.87,-520.07 754.64,-527.02"/>
</g>
<!-- Node61 -->
<g id="node41" class="node">
<title>Node61</title>
<g id="a_node41"><a xlink:title=" ">
<polygon fill="none" stroke="#bfbfbf" points="352,-504.5 352,-523.5 384,-523.5 384,-504.5 352,-504.5"/>
<text text-anchor="middle" x="368" y="-511.5" font-family="Helvetica,sans-Serif" font-size="10.00">set</text>
</a>
</g>
</g>
<!-- Node57&#45;&gt;Node61 -->
<g id="edge65" class="edge">
<title>Node57&#45;&gt;Node61</title>
<path fill="none" stroke="midnightblue" d="M349.63,-560.08C352.61,-552.77 356.93,-542.18 360.62,-533.1"/>
<polygon fill="midnightblue" stroke="midnightblue" points="363.9,-534.33 364.43,-523.75 357.42,-531.69 363.9,-534.33"/>
</g>
<!-- Node62 -->
<g id="node42" class="node">
<title>Node62</title>
<g id="a_node42"><a xlink:title=" ">
<polygon fill="none" stroke="#bfbfbf" points="402,-504.5 402,-523.5 446,-523.5 446,-504.5 402,-504.5"/>
<text text-anchor="middle" x="424" y="-511.5" font-family="Helvetica,sans-Serif" font-size="10.00">limits</text>
</a>
</g>
</g>
<!-- Node57&#45;&gt;Node62 -->
<g id="edge66" class="edge">
<title>Node57&#45;&gt;Node62</title>
<path fill="none" stroke="midnightblue" d="M358.53,-560.32C370.59,-551.98 389.03,-539.21 403.27,-529.35"/>
<polygon fill="midnightblue" stroke="midnightblue" points="405.27,-532.22 411.5,-523.65 401.28,-526.47 405.27,-532.22"/>
</g>
<!-- Node63 -->
<g id="node43" class="node">
<title>Node63</title>
<g id="a_node43"><a xlink:href="namespace_8h.html" target="_top" xlink:title=" ">
<polygon fill="none" stroke="black" points="224.5,-168.5 224.5,-187.5 325.5,-187.5 325.5,-168.5 224.5,-168.5"/>
<text text-anchor="middle" x="275" y="-175.5" font-family="Helvetica,sans-Serif" font-size="10.00">util/namespace.h</text>
</a>
</g>
</g>
<!-- Node57&#45;&gt;Node63 -->
<g id="edge70" class="edge">
<title>Node57&#45;&gt;Node63</title>
<path fill="none" stroke="midnightblue" d="M335.82,-560.46C316.63,-543.35 277,-502.73 277,-459 277,-459 277,-459 277,-289 277,-256.94 276.14,-219.64 275.55,-197.75"/>
<polygon fill="midnightblue" stroke="midnightblue" points="279.04,-197.45 275.26,-187.56 272.04,-197.65 279.04,-197.45"/>
</g>
<!-- Node58&#45;&gt;Node45 -->
<g id="edge63" class="edge">
<title>Node58&#45;&gt;Node45</title>
<path fill="none" stroke="midnightblue" d="M853.82,-504.44C877.83,-495.44 915.83,-481.19 942.87,-471.05"/>
<polygon fill="midnightblue" stroke="midnightblue" points="944.16,-474.3 952.29,-467.52 941.7,-467.75 944.16,-474.3"/>
</g>
<!-- Node58&#45;&gt;Node59 -->
<g id="edge62" class="edge">
<title>Node58&#45;&gt;Node59</title>
<path fill="none" stroke="midnightblue" d="M817.5,-504.32C804.4,-495.9 784.29,-482.97 768.89,-473.07"/>
<polygon fill="midnightblue" stroke="midnightblue" points="770.77,-470.12 760.46,-467.65 766.98,-476.01 770.77,-470.12"/>
</g>
<!-- Node63&#45;&gt;Node11 -->
<g id="edge72" class="edge">
<title>Node63&#45;&gt;Node11</title>
<path fill="none" stroke="midnightblue" d="M254.08,-168.44C232.26,-159.52 197.85,-145.44 173.11,-135.32"/>
<polygon fill="midnightblue" stroke="midnightblue" points="174.4,-132.06 163.82,-131.52 171.75,-138.54 174.4,-132.06"/>
</g>
<!-- Node63&#45;&gt;Node14 -->
<g id="edge71" class="edge">
<title>Node63&#45;&gt;Node14</title>
<path fill="none" stroke="midnightblue" d="M292.26,-168.31C321.07,-154.19 381.13,-126.41 435,-112 533.59,-85.63 653.26,-74.17 716.96,-69.64"/>
<polygon fill="midnightblue" stroke="midnightblue" points="717.33,-73.12 727.07,-68.95 716.85,-66.14 717.33,-73.12"/>
</g>
<!-- Node64&#45;&gt;Node37 -->
<g id="edge77" class="edge">
<title>Node64&#45;&gt;Node37</title>
<path fill="none" stroke="midnightblue" d="M527.85,-672.29C518.27,-646.15 488.12,-566.31 455,-504 416.05,-430.74 354,-429.97 354,-347 354,-347 354,-347 354,-233 354,-179.14 517.74,-146.11 611.33,-131.62"/>
<polygon fill="midnightblue" stroke="midnightblue" points="611.91,-135.07 621.27,-130.11 610.86,-128.15 611.91,-135.07"/>
</g>
</g>
</svg>
