<?xml version="1.0" encoding="UTF-8" standalone="no"?>
<!DOCTYPE svg PUBLIC "-//W3C//DTD SVG 1.1//EN"
 "http://www.w3.org/Graphics/SVG/1.1/DTD/svg11.dtd">
<!-- Generated by graphviz version 2.43.0 (0)
 -->
<!-- Title: /home/runner/work/cbmc/cbmc/src/langapi/language_file.h Pages: 1 -->
<svg width="578pt" height="610pt"
 viewBox="0.00 0.00 578.00 610.00" xmlns="http://www.w3.org/2000/svg" xmlns:xlink="http://www.w3.org/1999/xlink">
<g id="graph0" class="graph" transform="scale(1 1) rotate(0) translate(4 606)">
<title>/home/runner/work/cbmc/cbmc/src/langapi/language_file.h</title>
<!-- Node1 -->
<g id="node1" class="node">
<title>Node1</title>
<g id="a_node1"><a xlink:title=" ">
<polygon fill="#bfbfbf" stroke="black" points="195,-560.5 195,-601.5 345,-601.5 345,-560.5 195,-560.5"/>
<text text-anchor="start" x="203" y="-589.5" font-family="Helvetica,sans-Serif" font-size="10.00">/home/runner/work/cbmc</text>
<text text-anchor="start" x="203" y="-578.5" font-family="Helvetica,sans-Serif" font-size="10.00">/cbmc/src/langapi/language</text>
<text text-anchor="middle" x="270" y="-567.5" font-family="Helvetica,sans-Serif" font-size="10.00">_file.h</text>
</a>
</g>
</g>
<!-- Node2 -->
<g id="node2" class="node">
<title>Node2</title>
<g id="a_node2"><a xlink:title=" ">
<polygon fill="none" stroke="#bfbfbf" points="135,-392.5 135,-411.5 183,-411.5 183,-392.5 135,-392.5"/>
<text text-anchor="middle" x="159" y="-399.5" font-family="Helvetica,sans-Serif" font-size="10.00">iosfwd</text>
</a>
</g>
</g>
<!-- Node1&#45;&gt;Node2 -->
<g id="edge1" class="edge">
<title>Node1&#45;&gt;Node2</title>
<path fill="none" stroke="midnightblue" d="M227.85,-560.32C211.37,-551.06 193.28,-538.79 180,-524 156.05,-497.33 150.63,-483.77 153,-448 153.57,-439.34 154.77,-429.81 155.94,-421.75"/>
<polygon fill="midnightblue" stroke="midnightblue" points="159.44,-422.01 157.51,-411.59 152.52,-420.94 159.44,-422.01"/>
</g>
<!-- Node3 -->
<g id="node3" class="node">
<title>Node3</title>
<g id="a_node3"><a xlink:title=" ">
<polygon fill="none" stroke="#bfbfbf" points="162,-448.5 162,-467.5 200,-467.5 200,-448.5 162,-448.5"/>
<text text-anchor="middle" x="181" y="-455.5" font-family="Helvetica,sans-Serif" font-size="10.00">map</text>
</a>
</g>
</g>
<!-- Node1&#45;&gt;Node3 -->
<g id="edge2" class="edge">
<title>Node1&#45;&gt;Node3</title>
<path fill="none" stroke="midnightblue" d="M230.06,-560.47C215.52,-551.37 200.37,-539.16 191,-524 182.47,-510.19 180.33,-491.67 180.11,-477.93"/>
<polygon fill="midnightblue" stroke="midnightblue" points="183.62,-477.78 180.29,-467.72 176.62,-477.66 183.62,-477.78"/>
</g>
<!-- Node4 -->
<g id="node4" class="node">
<title>Node4</title>
<g id="a_node4"><a xlink:title=" ">
<polygon fill="none" stroke="#bfbfbf" points="358,-504.5 358,-523.5 416,-523.5 416,-504.5 358,-504.5"/>
<text text-anchor="middle" x="387" y="-511.5" font-family="Helvetica,sans-Serif" font-size="10.00">memory</text>
</a>
</g>
</g>
<!-- Node1&#45;&gt;Node4 -->
<g id="edge3" class="edge">
<title>Node1&#45;&gt;Node4</title>
<path fill="none" stroke="midnightblue" d="M305.1,-560.5C323.56,-550.24 345.73,-537.93 362.35,-528.69"/>
<polygon fill="midnightblue" stroke="midnightblue" points="364.38,-531.57 371.43,-523.65 360.98,-525.45 364.38,-531.57"/>
</g>
<!-- Node5 -->
<g id="node5" class="node">
<title>Node5</title>
<g id="a_node5"><a xlink:title=" ">
<polygon fill="none" stroke="#bfbfbf" points="434,-504.5 434,-523.5 466,-523.5 466,-504.5 434,-504.5"/>
<text text-anchor="middle" x="450" y="-511.5" font-family="Helvetica,sans-Serif" font-size="10.00">set</text>
</a>
</g>
</g>
<!-- Node1&#45;&gt;Node5 -->
<g id="edge4" class="edge">
<title>Node1&#45;&gt;Node5</title>
<path fill="none" stroke="midnightblue" d="M324.01,-560.5C357.28,-548.48 398.42,-533.63 424.44,-524.23"/>
<polygon fill="midnightblue" stroke="midnightblue" points="425.74,-527.48 433.95,-520.8 423.36,-520.9 425.74,-527.48"/>
</g>
<!-- Node6 -->
<g id="node6" class="node">
<title>Node6</title>
<g id="a_node6"><a xlink:title=" ">
<polygon fill="none" stroke="#bfbfbf" points="66,-0.5 66,-19.5 110,-19.5 110,-0.5 66,-0.5"/>
<text text-anchor="middle" x="88" y="-7.5" font-family="Helvetica,sans-Serif" font-size="10.00">string</text>
</a>
</g>
</g>
<!-- Node1&#45;&gt;Node6 -->
<g id="edge5" class="edge">
<title>Node1&#45;&gt;Node6</title>
<path fill="none" stroke="midnightblue" d="M194.79,-577.4C114.9,-570.14 0,-544.78 0,-459 0,-459 0,-459 0,-121 0,-79.03 39.54,-43.9 65.61,-25.3"/>
<polygon fill="midnightblue" stroke="midnightblue" points="67.6,-28.18 73.86,-19.64 63.64,-22.41 67.6,-28.18"/>
</g>
<!-- Node7 -->
<g id="node7" class="node">
<title>Node7</title>
<g id="a_node7"><a xlink:title=" ">
<polygon fill="none" stroke="#bfbfbf" points="484,-504.5 484,-523.5 570,-523.5 570,-504.5 484,-504.5"/>
<text text-anchor="middle" x="527" y="-511.5" font-family="Helvetica,sans-Serif" font-size="10.00">unordered_set</text>
</a>
</g>
</g>
<!-- Node1&#45;&gt;Node7 -->
<g id="edge6" class="edge">
<title>Node1&#45;&gt;Node7</title>
<path fill="none" stroke="midnightblue" d="M345.03,-561.02C389.85,-549.69 445.24,-535.68 483.06,-526.11"/>
<polygon fill="midnightblue" stroke="midnightblue" points="484.4,-529.38 493.24,-523.54 482.69,-522.6 484.4,-529.38"/>
</g>
<!-- Node8 -->
<g id="node8" class="node">
<title>Node8</title>
<g id="a_node8"><a xlink:href="symbol__table__base_8h.html" target="_top" xlink:title="Author: Diffblue Ltd.">
<polygon fill="none" stroke="black" points="200.5,-504.5 200.5,-523.5 339.5,-523.5 339.5,-504.5 200.5,-504.5"/>
<text text-anchor="middle" x="270" y="-511.5" font-family="Helvetica,sans-Serif" font-size="10.00">util/symbol_table_base.h</text>
</a>
</g>
</g>
<!-- Node1&#45;&gt;Node8 -->
<g id="edge7" class="edge">
<title>Node1&#45;&gt;Node8</title>
<path fill="none" stroke="midnightblue" d="M270,-560.5C270,-552.07 270,-542.24 270,-533.87"/>
<polygon fill="midnightblue" stroke="midnightblue" points="273.5,-533.65 270,-523.65 266.5,-533.65 273.5,-533.65"/>
</g>
<!-- Node8&#45;&gt;Node3 -->
<g id="edge37" class="edge">
<title>Node8&#45;&gt;Node3</title>
<path fill="none" stroke="midnightblue" d="M255.7,-504.32C241.82,-495.9 220.51,-482.97 204.2,-473.07"/>
<polygon fill="midnightblue" stroke="midnightblue" points="205.63,-469.85 195.26,-467.65 202,-475.83 205.63,-469.85"/>
</g>
<!-- Node9 -->
<g id="node9" class="node">
<title>Node9</title>
<g id="a_node9"><a xlink:href="symbol_8h.html" target="_top" xlink:title="Symbol table entry.">
<polygon fill="none" stroke="black" points="218,-448.5 218,-467.5 280,-467.5 280,-448.5 218,-448.5"/>
<text text-anchor="middle" x="249" y="-455.5" font-family="Helvetica,sans-Serif" font-size="10.00">symbol.h</text>
</a>
</g>
</g>
<!-- Node8&#45;&gt;Node9 -->
<g id="edge8" class="edge">
<title>Node8&#45;&gt;Node9</title>
<path fill="none" stroke="midnightblue" d="M266.53,-504.08C263.69,-496.77 259.57,-486.18 256.04,-477.1"/>
<polygon fill="midnightblue" stroke="midnightblue" points="259.29,-475.8 252.4,-467.75 252.77,-478.34 259.29,-475.8"/>
</g>
<!-- Node26 -->
<g id="node25" class="node">
<title>Node26</title>
<g id="a_node25"><a xlink:title=" ">
<polygon fill="none" stroke="#bfbfbf" points="298,-448.5 298,-467.5 330,-467.5 330,-448.5 298,-448.5"/>
<text text-anchor="middle" x="314" y="-455.5" font-family="Helvetica,sans-Serif" font-size="10.00">list</text>
</a>
</g>
</g>
<!-- Node8&#45;&gt;Node26 -->
<g id="edge36" class="edge">
<title>Node8&#45;&gt;Node26</title>
<path fill="none" stroke="midnightblue" d="M277.27,-504.08C283.54,-496.38 292.79,-485.03 300.43,-475.65"/>
<polygon fill="midnightblue" stroke="midnightblue" points="303.27,-477.71 306.87,-467.75 297.84,-473.29 303.27,-477.71"/>
</g>
<!-- Node27 -->
<g id="node26" class="node">
<title>Node27</title>
<g id="a_node26"><a xlink:title=" ">
<polygon fill="none" stroke="#bfbfbf" points="348.5,-448.5 348.5,-467.5 441.5,-467.5 441.5,-448.5 348.5,-448.5"/>
<text text-anchor="middle" x="395" y="-455.5" font-family="Helvetica,sans-Serif" font-size="10.00">unordered_map</text>
</a>
</g>
</g>
<!-- Node8&#45;&gt;Node27 -->
<g id="edge38" class="edge">
<title>Node8&#45;&gt;Node27</title>
<path fill="none" stroke="midnightblue" d="M289.81,-504.44C310.29,-495.6 342.48,-481.69 365.86,-471.59"/>
<polygon fill="midnightblue" stroke="midnightblue" points="367.49,-474.7 375.29,-467.52 364.72,-468.27 367.49,-474.7"/>
</g>
<!-- Node9&#45;&gt;Node2 -->
<g id="edge9" class="edge">
<title>Node9&#45;&gt;Node2</title>
<path fill="none" stroke="midnightblue" d="M234.54,-448.32C220.5,-439.9 198.95,-426.97 182.46,-417.07"/>
<polygon fill="midnightblue" stroke="midnightblue" points="183.8,-413.8 173.42,-411.65 180.2,-419.8 183.8,-413.8"/>
</g>
<!-- Node10 -->
<g id="node10" class="node">
<title>Node10</title>
<g id="a_node10"><a xlink:href="expr_8h.html" target="_top" xlink:title=" ">
<polygon fill="none" stroke="black" points="225.5,-392.5 225.5,-411.5 272.5,-411.5 272.5,-392.5 225.5,-392.5"/>
<text text-anchor="middle" x="249" y="-399.5" font-family="Helvetica,sans-Serif" font-size="10.00">expr.h</text>
</a>
</g>
</g>
<!-- Node9&#45;&gt;Node10 -->
<g id="edge10" class="edge">
<title>Node9&#45;&gt;Node10</title>
<path fill="none" stroke="midnightblue" d="M249,-448.08C249,-441.01 249,-430.86 249,-421.99"/>
<polygon fill="midnightblue" stroke="midnightblue" points="252.5,-421.75 249,-411.75 245.5,-421.75 252.5,-421.75"/>
</g>
<!-- Node17 -->
<g id="node16" class="node">
<title>Node17</title>
<g id="a_node16"><a xlink:href="src_2util_2invariant_8h.html" target="_top" xlink:title=" ">
<polygon fill="none" stroke="red" points="325.5,-56.5 325.5,-75.5 394.5,-75.5 394.5,-56.5 325.5,-56.5"/>
<text text-anchor="middle" x="360" y="-63.5" font-family="Helvetica,sans-Serif" font-size="10.00">invariant.h</text>
</a>
</g>
</g>
<!-- Node9&#45;&gt;Node17 -->
<g id="edge35" class="edge">
<title>Node9&#45;&gt;Node17</title>
<path fill="none" stroke="midnightblue" d="M280.23,-449.25C358.53,-429.39 557,-376.17 557,-347 557,-347 557,-347 557,-177 557,-107.71 462.95,-81.66 404.82,-72.17"/>
<polygon fill="midnightblue" stroke="midnightblue" points="405.18,-68.69 394.77,-70.64 404.12,-75.61 405.18,-68.69"/>
</g>
<!-- Node11 -->
<g id="node11" class="node">
<title>Node11</title>
<g id="a_node11"><a xlink:href="as__const_8h.html" target="_top" xlink:title=" ">
<polygon fill="none" stroke="black" points="461,-336.5 461,-355.5 529,-355.5 529,-336.5 461,-336.5"/>
<text text-anchor="middle" x="495" y="-343.5" font-family="Helvetica,sans-Serif" font-size="10.00">as_const.h</text>
</a>
</g>
</g>
<!-- Node10&#45;&gt;Node11 -->
<g id="edge11" class="edge">
<title>Node10&#45;&gt;Node11</title>
<path fill="none" stroke="midnightblue" d="M272.59,-395.82C313.63,-386.81 398.76,-368.13 450.98,-356.66"/>
<polygon fill="midnightblue" stroke="midnightblue" points="451.95,-360.03 460.96,-354.47 450.45,-353.2 451.95,-360.03"/>
</g>
<!-- Node12 -->
<g id="node12" class="node">
<title>Node12</title>
<g id="a_node12"><a xlink:href="type_8h.html" target="_top" xlink:title="Defines typet, type_with_subtypet and type_with_subtypest.">
<polygon fill="none" stroke="black" points="126.5,-336.5 126.5,-355.5 173.5,-355.5 173.5,-336.5 126.5,-336.5"/>
<text text-anchor="middle" x="150" y="-343.5" font-family="Helvetica,sans-Serif" font-size="10.00">type.h</text>
</a>
</g>
</g>
<!-- Node10&#45;&gt;Node12 -->
<g id="edge12" class="edge">
<title>Node10&#45;&gt;Node12</title>
<path fill="none" stroke="midnightblue" d="M233.09,-392.32C217.36,-383.74 193.06,-370.49 174.79,-360.52"/>
<polygon fill="midnightblue" stroke="midnightblue" points="176.32,-357.37 165.87,-355.65 172.97,-363.52 176.32,-357.37"/>
</g>
<!-- Node38 -->
<g id="node21" class="node">
<title>Node38</title>
<g id="a_node21"><a xlink:href="validation__mode_8h.html" target="_top" xlink:title=" ">
<polygon fill="none" stroke="black" points="28.5,-224.5 28.5,-243.5 135.5,-243.5 135.5,-224.5 28.5,-224.5"/>
<text text-anchor="middle" x="82" y="-231.5" font-family="Helvetica,sans-Serif" font-size="10.00">validation_mode.h</text>
</a>
</g>
</g>
<!-- Node10&#45;&gt;Node38 -->
<g id="edge33" class="edge">
<title>Node10&#45;&gt;Node38</title>
<path fill="none" stroke="midnightblue" d="M225.26,-395.69C191.52,-387.7 132.08,-371.81 117,-356 90.04,-327.75 83.66,-280.03 82.27,-253.76"/>
<polygon fill="midnightblue" stroke="midnightblue" points="85.76,-253.51 81.93,-243.63 78.77,-253.74 85.76,-253.51"/>
</g>
<!-- Node39 -->
<g id="node22" class="node">
<title>Node39</title>
<g id="a_node22"><a xlink:href="validate__types_8h.html" target="_top" xlink:title=" ">
<polygon fill="none" stroke="black" points="276,-280.5 276,-299.5 374,-299.5 374,-280.5 276,-280.5"/>
<text text-anchor="middle" x="325" y="-287.5" font-family="Helvetica,sans-Serif" font-size="10.00">validate_types.h</text>
</a>
</g>
</g>
<!-- Node10&#45;&gt;Node39 -->
<g id="edge32" class="edge">
<title>Node10&#45;&gt;Node39</title>
<path fill="none" stroke="midnightblue" d="M239.85,-392.1C227.63,-379.11 208.86,-354.49 221,-336 231.57,-319.91 249.26,-309.54 267.08,-302.88"/>
<polygon fill="midnightblue" stroke="midnightblue" points="268.6,-306.06 276.95,-299.54 266.36,-299.43 268.6,-306.06"/>
</g>
<!-- Node40 -->
<g id="node23" class="node">
<title>Node40</title>
<g id="a_node23"><a xlink:href="validate__expressions_8h.html" target="_top" xlink:title=" ">
<polygon fill="none" stroke="black" points="230.5,-336.5 230.5,-355.5 359.5,-355.5 359.5,-336.5 230.5,-336.5"/>
<text text-anchor="middle" x="295" y="-343.5" font-family="Helvetica,sans-Serif" font-size="10.00">validate_expressions.h</text>
</a>
</g>
</g>
<!-- Node10&#45;&gt;Node40 -->
<g id="edge31" class="edge">
<title>Node10&#45;&gt;Node40</title>
<path fill="none" stroke="midnightblue" d="M256.6,-392.08C263.23,-384.3 273.02,-372.8 281.06,-363.37"/>
<polygon fill="midnightblue" stroke="midnightblue" points="283.73,-365.63 287.55,-355.75 278.4,-361.09 283.73,-365.63"/>
</g>
<!-- Node41 -->
<g id="node24" class="node">
<title>Node41</title>
<g id="a_node24"><a xlink:title=" ">
<polygon fill="none" stroke="#bfbfbf" points="377.5,-336.5 377.5,-355.5 442.5,-355.5 442.5,-336.5 377.5,-336.5"/>
<text text-anchor="middle" x="410" y="-343.5" font-family="Helvetica,sans-Serif" font-size="10.00">functional</text>
</a>
</g>
</g>
<!-- Node10&#45;&gt;Node41 -->
<g id="edge34" class="edge">
<title>Node10&#45;&gt;Node41</title>
<path fill="none" stroke="midnightblue" d="M272.76,-393.03C299.75,-383.98 344.06,-369.12 375.01,-358.74"/>
<polygon fill="midnightblue" stroke="midnightblue" points="376.18,-362.03 384.55,-355.54 373.96,-355.4 376.18,-362.03"/>
</g>
<!-- Node13 -->
<g id="node13" class="node">
<title>Node13</title>
<g id="a_node13"><a xlink:href="source__location_8h.html" target="_top" xlink:title=" ">
<polygon fill="none" stroke="black" points="109,-168.5 109,-187.5 211,-187.5 211,-168.5 109,-168.5"/>
<text text-anchor="middle" x="160" y="-175.5" font-family="Helvetica,sans-Serif" font-size="10.00">source_location.h</text>
</a>
</g>
</g>
<!-- Node12&#45;&gt;Node13 -->
<g id="edge13" class="edge">
<title>Node12&#45;&gt;Node13</title>
<path fill="none" stroke="midnightblue" d="M150.54,-336.08C152.11,-309.95 156.73,-233.21 158.88,-197.58"/>
<polygon fill="midnightblue" stroke="midnightblue" points="162.38,-197.76 159.48,-187.57 155.39,-197.34 162.38,-197.76"/>
</g>
<!-- Node36 -->
<g id="node19" class="node">
<title>Node36</title>
<g id="a_node19"><a xlink:href="validate_8h.html" target="_top" xlink:title=" ">
<polygon fill="none" stroke="black" points="192.5,-280.5 192.5,-299.5 257.5,-299.5 257.5,-280.5 192.5,-280.5"/>
<text text-anchor="middle" x="225" y="-287.5" font-family="Helvetica,sans-Serif" font-size="10.00">validate.h</text>
</a>
</g>
</g>
<!-- Node12&#45;&gt;Node36 -->
<g id="edge22" class="edge">
<title>Node12&#45;&gt;Node36</title>
<path fill="none" stroke="midnightblue" d="M162.05,-336.32C173.46,-328.11 190.83,-315.6 204.43,-305.81"/>
<polygon fill="midnightblue" stroke="midnightblue" points="206.66,-308.52 212.73,-299.83 202.57,-302.84 206.66,-308.52"/>
</g>
<!-- Node12&#45;&gt;Node38 -->
<g id="edge30" class="edge">
<title>Node12&#45;&gt;Node38</title>
<path fill="none" stroke="midnightblue" d="M144.66,-336.37C133.49,-318.3 107.45,-276.18 92.7,-252.31"/>
<polygon fill="midnightblue" stroke="midnightblue" points="95.55,-250.26 87.31,-243.59 89.59,-253.94 95.55,-250.26"/>
</g>
<!-- Node12&#45;&gt;Node39 -->
<g id="edge29" class="edge">
<title>Node12&#45;&gt;Node39</title>
<path fill="none" stroke="midnightblue" d="M173.6,-337.72C202.81,-328.7 252.91,-313.24 287.43,-302.59"/>
<polygon fill="midnightblue" stroke="midnightblue" points="288.64,-305.88 297.16,-299.59 286.57,-299.19 288.64,-305.88"/>
</g>
<!-- Node13&#45;&gt;Node6 -->
<g id="edge21" class="edge">
<title>Node13&#45;&gt;Node6</title>
<path fill="none" stroke="midnightblue" d="M112.67,-168.42C91.9,-162.05 69.45,-151.02 57,-132 35.63,-99.34 59.64,-52.78 75.78,-28.02"/>
<polygon fill="midnightblue" stroke="midnightblue" points="78.73,-29.91 81.46,-19.67 72.94,-25.97 78.73,-29.91"/>
</g>
<!-- Node14 -->
<g id="node14" class="node">
<title>Node14</title>
<g id="a_node14"><a xlink:href="deprecate_8h.html" target="_top" xlink:title=" ">
<polygon fill="none" stroke="black" points="202,-112.5 202,-131.5 276,-131.5 276,-112.5 202,-112.5"/>
<text text-anchor="middle" x="239" y="-119.5" font-family="Helvetica,sans-Serif" font-size="10.00">deprecate.h</text>
</a>
</g>
</g>
<!-- Node13&#45;&gt;Node14 -->
<g id="edge14" class="edge">
<title>Node13&#45;&gt;Node14</title>
<path fill="none" stroke="midnightblue" d="M172.69,-168.32C184.9,-159.98 203.58,-147.21 218,-137.35"/>
<polygon fill="midnightblue" stroke="midnightblue" points="220.06,-140.19 226.34,-131.65 216.11,-134.41 220.06,-140.19"/>
</g>
<!-- Node15 -->
<g id="node15" class="node">
<title>Node15</title>
<g id="a_node15"><a xlink:href="irep_8h.html" target="_top" xlink:title=" ">
<polygon fill="none" stroke="red" points="66,-112.5 66,-131.5 110,-131.5 110,-112.5 66,-112.5"/>
<text text-anchor="middle" x="88" y="-119.5" font-family="Helvetica,sans-Serif" font-size="10.00">irep.h</text>
</a>
</g>
</g>
<!-- Node13&#45;&gt;Node15 -->
<g id="edge15" class="edge">
<title>Node13&#45;&gt;Node15</title>
<path fill="none" stroke="midnightblue" d="M148.43,-168.32C137.58,-160.18 121.12,-147.84 108.12,-138.09"/>
<polygon fill="midnightblue" stroke="midnightblue" points="109.88,-135.03 99.78,-131.83 105.68,-140.63 109.88,-135.03"/>
</g>
<!-- Node35 -->
<g id="node18" class="node">
<title>Node35</title>
<g id="a_node18"><a xlink:title=" ">
<polygon fill="none" stroke="#bfbfbf" points="128,-112.5 128,-131.5 184,-131.5 184,-112.5 128,-112.5"/>
<text text-anchor="middle" x="156" y="-119.5" font-family="Helvetica,sans-Serif" font-size="10.00">optional</text>
</a>
</g>
</g>
<!-- Node13&#45;&gt;Node35 -->
<g id="edge20" class="edge">
<title>Node13&#45;&gt;Node35</title>
<path fill="none" stroke="midnightblue" d="M159.34,-168.08C158.82,-161.01 158.06,-150.86 157.41,-141.99"/>
<polygon fill="midnightblue" stroke="midnightblue" points="160.88,-141.47 156.65,-131.75 153.9,-141.98 160.88,-141.47"/>
</g>
<!-- Node15&#45;&gt;Node6 -->
<g id="edge16" class="edge">
<title>Node15&#45;&gt;Node6</title>
<path fill="none" stroke="midnightblue" d="M88,-112.37C88,-94.62 88,-53.67 88,-29.6"/>
<polygon fill="midnightblue" stroke="midnightblue" points="91.5,-29.59 88,-19.59 84.5,-29.59 91.5,-29.59"/>
</g>
<!-- Node15&#45;&gt;Node17 -->
<g id="edge17" class="edge">
<title>Node15&#45;&gt;Node17</title>
<path fill="none" stroke="midnightblue" d="M110.28,-114.25C113.2,-113.45 116.16,-112.67 119,-112 186.9,-95.85 266.69,-81.92 315.28,-74"/>
<polygon fill="midnightblue" stroke="midnightblue" points="316.14,-77.41 325.45,-72.36 315.02,-70.5 316.14,-77.41"/>
</g>
<!-- Node17&#45;&gt;Node6 -->
<g id="edge18" class="edge">
<title>Node17&#45;&gt;Node6</title>
<path fill="none" stroke="midnightblue" d="M325.27,-58.11C272.22,-47.57 171.71,-27.62 120.2,-17.39"/>
<polygon fill="midnightblue" stroke="midnightblue" points="120.78,-13.94 110.29,-15.42 119.41,-20.8 120.78,-13.94"/>
</g>
<!-- Node20 -->
<g id="node17" class="node">
<title>Node20</title>
<g id="a_node17"><a xlink:title=" ">
<polygon fill="none" stroke="#bfbfbf" points="356.5,-0.5 356.5,-19.5 425.5,-19.5 425.5,-0.5 356.5,-0.5"/>
<text text-anchor="middle" x="391" y="-7.5" font-family="Helvetica,sans-Serif" font-size="10.00">type_traits</text>
</a>
</g>
</g>
<!-- Node17&#45;&gt;Node20 -->
<g id="edge19" class="edge">
<title>Node17&#45;&gt;Node20</title>
<path fill="none" stroke="midnightblue" d="M365.12,-56.08C369.41,-48.61 375.66,-37.72 380.94,-28.52"/>
<polygon fill="midnightblue" stroke="midnightblue" points="384.03,-30.17 385.98,-19.75 377.96,-26.68 384.03,-30.17"/>
</g>
<!-- Node36&#45;&gt;Node20 -->
<g id="edge23" class="edge">
<title>Node36&#45;&gt;Node20</title>
<path fill="none" stroke="midnightblue" d="M251.29,-280.48C305.15,-262.22 423,-217.83 423,-179 423,-179 423,-179 423,-121 423,-87.33 409.01,-50.08 399.53,-28.72"/>
<polygon fill="midnightblue" stroke="midnightblue" points="402.68,-27.21 395.32,-19.59 396.33,-30.14 402.68,-27.21"/>
</g>
<!-- Node37 -->
<g id="node20" class="node">
<title>Node37</title>
<g id="a_node20"><a xlink:href="exception__utils_8h.html" target="_top" xlink:title=" ">
<polygon fill="none" stroke="black" points="223,-224.5 223,-243.5 323,-243.5 323,-224.5 223,-224.5"/>
<text text-anchor="middle" x="273" y="-231.5" font-family="Helvetica,sans-Serif" font-size="10.00">exception_utils.h</text>
</a>
</g>
</g>
<!-- Node36&#45;&gt;Node37 -->
<g id="edge24" class="edge">
<title>Node36&#45;&gt;Node37</title>
<path fill="none" stroke="midnightblue" d="M232.93,-280.08C239.85,-272.3 250.07,-260.8 258.45,-251.37"/>
<polygon fill="midnightblue" stroke="midnightblue" points="261.19,-253.55 265.22,-243.75 255.96,-248.9 261.19,-253.55"/>
</g>
<!-- Node36&#45;&gt;Node38 -->
<g id="edge28" class="edge">
<title>Node36&#45;&gt;Node38</title>
<path fill="none" stroke="midnightblue" d="M202.34,-280.44C178.6,-271.48 141.09,-257.31 114.26,-247.18"/>
<polygon fill="midnightblue" stroke="midnightblue" points="115.14,-243.77 104.55,-243.52 112.67,-250.32 115.14,-243.77"/>
</g>
<!-- Node37&#45;&gt;Node6 -->
<g id="edge25" class="edge">
<title>Node37&#45;&gt;Node6</title>
<path fill="none" stroke="midnightblue" d="M277.2,-224.29C286.71,-203.23 307.34,-148.57 285,-112 248.93,-52.97 166.21,-27.02 120.26,-16.81"/>
<polygon fill="midnightblue" stroke="midnightblue" points="120.73,-13.34 110.23,-14.71 119.29,-20.19 120.73,-13.34"/>
</g>
<!-- Node37&#45;&gt;Node13 -->
<g id="edge27" class="edge">
<title>Node37&#45;&gt;Node13</title>
<path fill="none" stroke="midnightblue" d="M255.09,-224.44C236.75,-215.68 207.99,-201.94 186.91,-191.86"/>
<polygon fill="midnightblue" stroke="midnightblue" points="188.35,-188.67 177.82,-187.52 185.33,-194.99 188.35,-188.67"/>
</g>
<!-- Node37&#45;&gt;Node17 -->
<g id="edge26" class="edge">
<title>Node37&#45;&gt;Node17</title>
<path fill="none" stroke="midnightblue" d="M284.05,-224.45C294.14,-216.12 308.85,-202.61 318,-188 338.68,-154.99 350.73,-110.5 356.27,-85.7"/>
<polygon fill="midnightblue" stroke="midnightblue" points="359.72,-86.31 358.37,-75.8 352.87,-84.86 359.72,-86.31"/>
</g>
</g>
</svg>
