<?xml version="1.0" encoding="UTF-8" standalone="no"?>
<!DOCTYPE svg PUBLIC "-//W3C//DTD SVG 1.1//EN"
 "http://www.w3.org/Graphics/SVG/1.1/DTD/svg11.dtd">
<!-- Generated by graphviz version 2.43.0 (0)
 -->
<!-- Title: /home/runner/work/cbmc/cbmc/src/solvers/smt2/letify.cpp Pages: 1 -->
<svg width="995pt" height="498pt"
 viewBox="0.00 0.00 994.75 498.00" xmlns="http://www.w3.org/2000/svg" xmlns:xlink="http://www.w3.org/1999/xlink">
<g id="graph0" class="graph" transform="scale(1 1) rotate(0) translate(4 494)">
<title>/home/runner/work/cbmc/cbmc/src/solvers/smt2/letify.cpp</title>
<!-- Node1 -->
<g id="node1" class="node">
<title>Node1</title>
<g id="a_node1"><a xlink:title=" ">
<polygon fill="#bfbfbf" stroke="black" points="201,-448.5 201,-489.5 339,-489.5 339,-448.5 201,-448.5"/>
<text text-anchor="start" x="209" y="-477.5" font-family="Helvetica,sans-Serif" font-size="10.00">/home/runner/work/cbmc</text>
<text text-anchor="start" x="209" y="-466.5" font-family="Helvetica,sans-Serif" font-size="10.00">/cbmc/src/solvers/smt2</text>
<text text-anchor="middle" x="270" y="-455.5" font-family="Helvetica,sans-Serif" font-size="10.00">/letify.cpp</text>
</a>
</g>
</g>
<!-- Node2 -->
<g id="node2" class="node">
<title>Node2</title>
<g id="a_node2"><a xlink:href="letify_8h.html" target="_top" xlink:title=" ">
<polygon fill="none" stroke="black" points="219.5,-392.5 219.5,-411.5 268.5,-411.5 268.5,-392.5 219.5,-392.5"/>
<text text-anchor="middle" x="244" y="-399.5" font-family="Helvetica,sans-Serif" font-size="10.00">letify.h</text>
</a>
</g>
</g>
<!-- Node1&#45;&gt;Node2 -->
<g id="edge1" class="edge">
<title>Node1&#45;&gt;Node2</title>
<path fill="none" stroke="midnightblue" d="M262.2,-448.5C258.71,-439.78 254.63,-429.56 251.21,-421.02"/>
<polygon fill="midnightblue" stroke="midnightblue" points="254.42,-419.64 247.46,-411.65 247.93,-422.24 254.42,-419.64"/>
</g>
<!-- Node3 -->
<g id="node3" class="node">
<title>Node3</title>
<g id="a_node3"><a xlink:href="std__expr_8h.html" target="_top" xlink:title=" ">
<polygon fill="none" stroke="black" points="227,-336.5 227,-355.5 313,-355.5 313,-336.5 227,-336.5"/>
<text text-anchor="middle" x="270" y="-343.5" font-family="Helvetica,sans-Serif" font-size="10.00">util/std_expr.h</text>
</a>
</g>
</g>
<!-- Node1&#45;&gt;Node3 -->
<g id="edge38" class="edge">
<title>Node1&#45;&gt;Node3</title>
<path fill="none" stroke="midnightblue" d="M273.64,-448.33C276.04,-432.99 278.48,-411.16 277,-392 276.32,-383.22 274.91,-373.56 273.53,-365.45"/>
<polygon fill="midnightblue" stroke="midnightblue" points="276.97,-364.8 271.74,-355.58 270.08,-366.04 276.97,-364.8"/>
</g>
<!-- Node2&#45;&gt;Node3 -->
<g id="edge2" class="edge">
<title>Node2&#45;&gt;Node3</title>
<path fill="none" stroke="midnightblue" d="M248.29,-392.08C251.85,-384.69 257.02,-373.95 261.42,-364.81"/>
<polygon fill="midnightblue" stroke="midnightblue" points="264.6,-366.28 265.79,-355.75 258.29,-363.24 264.6,-366.28"/>
</g>
<!-- Node4 -->
<g id="node4" class="node">
<title>Node4</title>
<g id="a_node4"><a xlink:href="expr__cast_8h.html" target="_top" xlink:title="Templated functions to cast to specific exprt&#45;derived classes.">
<polygon fill="none" stroke="black" points="233.5,-224.5 233.5,-243.5 306.5,-243.5 306.5,-224.5 233.5,-224.5"/>
<text text-anchor="middle" x="270" y="-231.5" font-family="Helvetica,sans-Serif" font-size="10.00">expr_cast.h</text>
</a>
</g>
</g>
<!-- Node3&#45;&gt;Node4 -->
<g id="edge3" class="edge">
<title>Node3&#45;&gt;Node4</title>
<path fill="none" stroke="midnightblue" d="M270,-336.37C270,-318.62 270,-277.67 270,-253.6"/>
<polygon fill="midnightblue" stroke="midnightblue" points="273.5,-253.59 270,-243.59 266.5,-253.59 273.5,-253.59"/>
</g>
<!-- Node8 -->
<g id="node8" class="node">
<title>Node8</title>
<g id="a_node8"><a xlink:href="src_2util_2invariant_8h.html" target="_top" xlink:title=" ">
<polygon fill="none" stroke="black" points="78.5,-168.5 78.5,-187.5 147.5,-187.5 147.5,-168.5 78.5,-168.5"/>
<text text-anchor="middle" x="113" y="-175.5" font-family="Helvetica,sans-Serif" font-size="10.00">invariant.h</text>
</a>
</g>
</g>
<!-- Node3&#45;&gt;Node8 -->
<g id="edge27" class="edge">
<title>Node3&#45;&gt;Node8</title>
<path fill="none" stroke="midnightblue" d="M261.56,-336.08C236.2,-309.27 160.47,-229.19 128.02,-194.89"/>
<polygon fill="midnightblue" stroke="midnightblue" points="130.52,-192.43 121.1,-187.57 125.43,-197.24 130.52,-192.43"/>
</g>
<!-- Node41 -->
<g id="node21" class="node">
<title>Node41</title>
<g id="a_node21"><a xlink:href="std__types_8h.html" target="_top" xlink:title=" ">
<polygon fill="none" stroke="black" points="381.5,-280.5 381.5,-299.5 454.5,-299.5 454.5,-280.5 381.5,-280.5"/>
<text text-anchor="middle" x="418" y="-287.5" font-family="Helvetica,sans-Serif" font-size="10.00">std_types.h</text>
</a>
</g>
</g>
<!-- Node3&#45;&gt;Node41 -->
<g id="edge28" class="edge">
<title>Node3&#45;&gt;Node41</title>
<path fill="none" stroke="midnightblue" d="M293.45,-336.44C318.13,-327.44 357.19,-313.19 384.98,-303.05"/>
<polygon fill="midnightblue" stroke="midnightblue" points="386.46,-306.23 394.66,-299.52 384.06,-299.66 386.46,-306.23"/>
</g>
<!-- Node5 -->
<g id="node5" class="node">
<title>Node5</title>
<g id="a_node5"><a xlink:title=" ">
<polygon fill="none" stroke="#bfbfbf" points="165.5,-168.5 165.5,-187.5 222.5,-187.5 222.5,-168.5 165.5,-168.5"/>
<text text-anchor="middle" x="194" y="-175.5" font-family="Helvetica,sans-Serif" font-size="10.00">typeinfo</text>
</a>
</g>
</g>
<!-- Node4&#45;&gt;Node5 -->
<g id="edge4" class="edge">
<title>Node4&#45;&gt;Node5</title>
<path fill="none" stroke="midnightblue" d="M257.79,-224.32C246.22,-216.11 228.62,-203.6 214.84,-193.81"/>
<polygon fill="midnightblue" stroke="midnightblue" points="216.61,-190.77 206.43,-187.83 212.56,-196.48 216.61,-190.77"/>
</g>
<!-- Node6 -->
<g id="node6" class="node">
<title>Node6</title>
<g id="a_node6"><a xlink:title=" ">
<polygon fill="none" stroke="#bfbfbf" points="193.5,-0.5 193.5,-19.5 262.5,-19.5 262.5,-0.5 193.5,-0.5"/>
<text text-anchor="middle" x="228" y="-7.5" font-family="Helvetica,sans-Serif" font-size="10.00">type_traits</text>
</a>
</g>
</g>
<!-- Node4&#45;&gt;Node6 -->
<g id="edge5" class="edge">
<title>Node4&#45;&gt;Node6</title>
<path fill="none" stroke="midnightblue" d="M267.83,-224.4C263.5,-207.01 253.62,-166.44 247,-132 240.07,-95.93 233.84,-53.45 230.52,-29.63"/>
<polygon fill="midnightblue" stroke="midnightblue" points="233.97,-28.97 229.14,-19.54 227.03,-29.93 233.97,-28.97"/>
</g>
<!-- Node7 -->
<g id="node7" class="node">
<title>Node7</title>
<g id="a_node7"><a xlink:title=" ">
<polygon fill="none" stroke="#bfbfbf" points="256.5,-112.5 256.5,-131.5 321.5,-131.5 321.5,-112.5 256.5,-112.5"/>
<text text-anchor="middle" x="289" y="-119.5" font-family="Helvetica,sans-Serif" font-size="10.00">functional</text>
</a>
</g>
</g>
<!-- Node4&#45;&gt;Node7 -->
<g id="edge6" class="edge">
<title>Node4&#45;&gt;Node7</title>
<path fill="none" stroke="midnightblue" d="M271.49,-224.37C274.56,-206.62 281.63,-165.67 285.79,-141.6"/>
<polygon fill="midnightblue" stroke="midnightblue" points="289.26,-142.04 287.52,-131.59 282.36,-140.85 289.26,-142.04"/>
</g>
<!-- Node4&#45;&gt;Node8 -->
<g id="edge7" class="edge">
<title>Node4&#45;&gt;Node8</title>
<path fill="none" stroke="midnightblue" d="M245.12,-224.44C218.71,-215.36 176.78,-200.94 147.26,-190.78"/>
<polygon fill="midnightblue" stroke="midnightblue" points="148.36,-187.46 137.76,-187.52 146.08,-194.08 148.36,-187.46"/>
</g>
<!-- Node12 -->
<g id="node12" class="node">
<title>Node12</title>
<g id="a_node12"><a xlink:href="expr_8h.html" target="_top" xlink:title=" ">
<polygon fill="none" stroke="black" points="497.5,-168.5 497.5,-187.5 544.5,-187.5 544.5,-168.5 497.5,-168.5"/>
<text text-anchor="middle" x="521" y="-175.5" font-family="Helvetica,sans-Serif" font-size="10.00">expr.h</text>
</a>
</g>
</g>
<!-- Node4&#45;&gt;Node12 -->
<g id="edge12" class="edge">
<title>Node4&#45;&gt;Node12</title>
<path fill="none" stroke="midnightblue" d="M306.77,-225.09C355.38,-214.63 440.36,-196.35 487.35,-186.24"/>
<polygon fill="midnightblue" stroke="midnightblue" points="488.29,-189.62 497.33,-184.09 486.82,-182.77 488.29,-189.62"/>
</g>
<!-- Node8&#45;&gt;Node6 -->
<g id="edge11" class="edge">
<title>Node8&#45;&gt;Node6</title>
<path fill="none" stroke="midnightblue" d="M108.54,-168.12C102.68,-155.15 94.14,-130.54 103,-112 122.86,-70.43 169.11,-40.46 199.44,-24.43"/>
<polygon fill="midnightblue" stroke="midnightblue" points="201.36,-27.38 208.67,-19.72 198.17,-21.14 201.36,-27.38"/>
</g>
<!-- Node9 -->
<g id="node9" class="node">
<title>Node9</title>
<g id="a_node9"><a xlink:title=" ">
<polygon fill="none" stroke="#bfbfbf" points="112.5,-112.5 112.5,-131.5 161.5,-131.5 161.5,-112.5 112.5,-112.5"/>
<text text-anchor="middle" x="137" y="-119.5" font-family="Helvetica,sans-Serif" font-size="10.00">cstdlib</text>
</a>
</g>
</g>
<!-- Node8&#45;&gt;Node9 -->
<g id="edge8" class="edge">
<title>Node8&#45;&gt;Node9</title>
<path fill="none" stroke="midnightblue" d="M116.96,-168.08C120.21,-160.77 124.92,-150.18 128.95,-141.1"/>
<polygon fill="midnightblue" stroke="midnightblue" points="132.25,-142.31 133.11,-131.75 125.85,-139.47 132.25,-142.31"/>
</g>
<!-- Node10 -->
<g id="node10" class="node">
<title>Node10</title>
<g id="a_node10"><a xlink:title=" ">
<polygon fill="none" stroke="#bfbfbf" points="0,-112.5 0,-131.5 56,-131.5 56,-112.5 0,-112.5"/>
<text text-anchor="middle" x="28" y="-119.5" font-family="Helvetica,sans-Serif" font-size="10.00">sstream</text>
</a>
</g>
</g>
<!-- Node8&#45;&gt;Node10 -->
<g id="edge9" class="edge">
<title>Node8&#45;&gt;Node10</title>
<path fill="none" stroke="midnightblue" d="M99.34,-168.32C86.08,-159.9 65.73,-146.97 50.15,-137.07"/>
<polygon fill="midnightblue" stroke="midnightblue" points="51.94,-134.06 41.62,-131.65 48.19,-139.97 51.94,-134.06"/>
</g>
<!-- Node11 -->
<g id="node11" class="node">
<title>Node11</title>
<g id="a_node11"><a xlink:title=" ">
<polygon fill="none" stroke="#bfbfbf" points="556,-0.5 556,-19.5 600,-19.5 600,-0.5 556,-0.5"/>
<text text-anchor="middle" x="578" y="-7.5" font-family="Helvetica,sans-Serif" font-size="10.00">string</text>
</a>
</g>
</g>
<!-- Node8&#45;&gt;Node11 -->
<g id="edge10" class="edge">
<title>Node8&#45;&gt;Node11</title>
<path fill="none" stroke="midnightblue" d="M129.25,-168.43C154.21,-155.43 203.64,-130.29 247,-112 314.49,-83.53 331.99,-77.54 402,-56 451.8,-40.68 510.61,-26.39 546.07,-18.19"/>
<polygon fill="midnightblue" stroke="midnightblue" points="546.9,-21.59 555.86,-15.94 545.33,-14.77 546.9,-21.59"/>
</g>
<!-- Node12&#45;&gt;Node7 -->
<g id="edge26" class="edge">
<title>Node12&#45;&gt;Node7</title>
<path fill="none" stroke="midnightblue" d="M497.48,-171.53C458.65,-162.49 380.61,-144.32 331.8,-132.96"/>
<polygon fill="midnightblue" stroke="midnightblue" points="332.39,-129.5 321.85,-130.65 330.8,-136.32 332.39,-129.5"/>
</g>
<!-- Node13 -->
<g id="node13" class="node">
<title>Node13</title>
<g id="a_node13"><a xlink:href="as__const_8h.html" target="_top" xlink:title=" ">
<polygon fill="none" stroke="black" points="487,-112.5 487,-131.5 555,-131.5 555,-112.5 487,-112.5"/>
<text text-anchor="middle" x="521" y="-119.5" font-family="Helvetica,sans-Serif" font-size="10.00">as_const.h</text>
</a>
</g>
</g>
<!-- Node12&#45;&gt;Node13 -->
<g id="edge13" class="edge">
<title>Node12&#45;&gt;Node13</title>
<path fill="none" stroke="midnightblue" d="M521,-168.08C521,-161.01 521,-150.86 521,-141.99"/>
<polygon fill="midnightblue" stroke="midnightblue" points="524.5,-141.75 521,-131.75 517.5,-141.75 524.5,-141.75"/>
</g>
<!-- Node14 -->
<g id="node14" class="node">
<title>Node14</title>
<g id="a_node14"><a xlink:href="deprecate_8h.html" target="_top" xlink:title=" ">
<polygon fill="none" stroke="black" points="573,-112.5 573,-131.5 647,-131.5 647,-112.5 573,-112.5"/>
<text text-anchor="middle" x="610" y="-119.5" font-family="Helvetica,sans-Serif" font-size="10.00">deprecate.h</text>
</a>
</g>
</g>
<!-- Node12&#45;&gt;Node14 -->
<g id="edge14" class="edge">
<title>Node12&#45;&gt;Node14</title>
<path fill="none" stroke="midnightblue" d="M535.3,-168.32C549.18,-159.9 570.49,-146.97 586.8,-137.07"/>
<polygon fill="midnightblue" stroke="midnightblue" points="589,-139.83 595.74,-131.65 585.37,-133.85 589,-139.83"/>
</g>
<!-- Node15 -->
<g id="node15" class="node">
<title>Node15</title>
<g id="a_node15"><a xlink:href="type_8h.html" target="_top" xlink:title=" ">
<polygon fill="none" stroke="black" points="703.5,-112.5 703.5,-131.5 750.5,-131.5 750.5,-112.5 703.5,-112.5"/>
<text text-anchor="middle" x="727" y="-119.5" font-family="Helvetica,sans-Serif" font-size="10.00">type.h</text>
</a>
</g>
</g>
<!-- Node12&#45;&gt;Node15 -->
<g id="edge15" class="edge">
<title>Node12&#45;&gt;Node15</title>
<path fill="none" stroke="midnightblue" d="M544.63,-170.81C581.24,-161.21 651.8,-142.71 693.61,-131.75"/>
<polygon fill="midnightblue" stroke="midnightblue" points="694.54,-135.13 703.33,-129.21 692.77,-128.36 694.54,-135.13"/>
</g>
<!-- Node38 -->
<g id="node18" class="node">
<title>Node38</title>
<g id="a_node18"><a xlink:href="validation__mode_8h.html" target="_top" xlink:title=" ">
<polygon fill="none" stroke="black" points="687.5,-0.5 687.5,-19.5 794.5,-19.5 794.5,-0.5 687.5,-0.5"/>
<text text-anchor="middle" x="741" y="-7.5" font-family="Helvetica,sans-Serif" font-size="10.00">validation_mode.h</text>
</a>
</g>
</g>
<!-- Node12&#45;&gt;Node38 -->
<g id="edge25" class="edge">
<title>Node12&#45;&gt;Node38</title>
<path fill="none" stroke="midnightblue" d="M544.78,-176.22C599.71,-173.87 732.78,-164.83 760,-132 784.45,-102.52 765.09,-54.64 751.47,-28.83"/>
<polygon fill="midnightblue" stroke="midnightblue" points="754.38,-26.86 746.46,-19.82 748.26,-30.26 754.38,-26.86"/>
</g>
<!-- Node39 -->
<g id="node19" class="node">
<title>Node39</title>
<g id="a_node19"><a xlink:href="validate__types_8h.html" target="_top" xlink:title=" ">
<polygon fill="none" stroke="black" points="411,-56.5 411,-75.5 509,-75.5 509,-56.5 411,-56.5"/>
<text text-anchor="middle" x="460" y="-63.5" font-family="Helvetica,sans-Serif" font-size="10.00">validate_types.h</text>
</a>
</g>
</g>
<!-- Node12&#45;&gt;Node39 -->
<g id="edge24" class="edge">
<title>Node12&#45;&gt;Node39</title>
<path fill="none" stroke="midnightblue" d="M544.65,-174.58C591.26,-168.88 687.84,-151.98 656,-112 647.35,-101.14 573.75,-86.4 519.27,-76.79"/>
<polygon fill="midnightblue" stroke="midnightblue" points="519.79,-73.33 509.34,-75.06 518.59,-80.23 519.79,-73.33"/>
</g>
<!-- Node40 -->
<g id="node20" class="node">
<title>Node40</title>
<g id="a_node20"><a xlink:href="validate__expressions_8h.html" target="_top" xlink:title=" ">
<polygon fill="none" stroke="black" points="339.5,-112.5 339.5,-131.5 468.5,-131.5 468.5,-112.5 339.5,-112.5"/>
<text text-anchor="middle" x="404" y="-119.5" font-family="Helvetica,sans-Serif" font-size="10.00">validate_expressions.h</text>
</a>
</g>
</g>
<!-- Node12&#45;&gt;Node40 -->
<g id="edge23" class="edge">
<title>Node12&#45;&gt;Node40</title>
<path fill="none" stroke="midnightblue" d="M502.46,-168.44C483.38,-159.64 453.43,-145.81 431.56,-135.72"/>
<polygon fill="midnightblue" stroke="midnightblue" points="433,-132.53 422.45,-131.52 430.07,-138.88 433,-132.53"/>
</g>
<!-- Node16 -->
<g id="node16" class="node">
<title>Node16</title>
<g id="a_node16"><a xlink:href="source__location_8h.html" target="_top" xlink:title=" ">
<polygon fill="none" stroke="red" points="527,-56.5 527,-75.5 629,-75.5 629,-56.5 527,-56.5"/>
<text text-anchor="middle" x="578" y="-63.5" font-family="Helvetica,sans-Serif" font-size="10.00">source_location.h</text>
</a>
</g>
</g>
<!-- Node15&#45;&gt;Node16 -->
<g id="edge16" class="edge">
<title>Node15&#45;&gt;Node16</title>
<path fill="none" stroke="midnightblue" d="M703.39,-112.44C678.54,-103.44 639.23,-89.19 611.25,-79.05"/>
<polygon fill="midnightblue" stroke="midnightblue" points="612.09,-75.63 601.5,-75.52 609.71,-82.21 612.09,-75.63"/>
</g>
<!-- Node36 -->
<g id="node17" class="node">
<title>Node36</title>
<g id="a_node17"><a xlink:href="validate_8h.html" target="_top" xlink:title=" ">
<polygon fill="none" stroke="red" points="647.5,-56.5 647.5,-75.5 712.5,-75.5 712.5,-56.5 647.5,-56.5"/>
<text text-anchor="middle" x="680" y="-63.5" font-family="Helvetica,sans-Serif" font-size="10.00">validate.h</text>
</a>
</g>
</g>
<!-- Node15&#45;&gt;Node36 -->
<g id="edge18" class="edge">
<title>Node15&#45;&gt;Node36</title>
<path fill="none" stroke="midnightblue" d="M719.24,-112.08C712.46,-104.3 702.46,-92.8 694.24,-83.37"/>
<polygon fill="midnightblue" stroke="midnightblue" points="696.82,-81 687.62,-75.75 691.54,-85.59 696.82,-81"/>
</g>
<!-- Node15&#45;&gt;Node38 -->
<g id="edge22" class="edge">
<title>Node15&#45;&gt;Node38</title>
<path fill="none" stroke="midnightblue" d="M728.1,-112.37C730.36,-94.62 735.57,-53.67 738.63,-29.6"/>
<polygon fill="midnightblue" stroke="midnightblue" points="742.12,-29.95 739.91,-19.59 735.17,-29.07 742.12,-29.95"/>
</g>
<!-- Node15&#45;&gt;Node39 -->
<g id="edge21" class="edge">
<title>Node15&#45;&gt;Node39</title>
<path fill="none" stroke="midnightblue" d="M703.32,-115.24C698.58,-114.13 693.64,-113 689,-112 630.16,-99.26 562.47,-86.14 516.03,-77.39"/>
<polygon fill="midnightblue" stroke="midnightblue" points="516.64,-73.94 506.16,-75.53 515.34,-80.82 516.64,-73.94"/>
</g>
<!-- Node16&#45;&gt;Node11 -->
<g id="edge17" class="edge">
<title>Node16&#45;&gt;Node11</title>
<path fill="none" stroke="midnightblue" d="M578,-56.08C578,-49.01 578,-38.86 578,-29.99"/>
<polygon fill="midnightblue" stroke="midnightblue" points="581.5,-29.75 578,-19.75 574.5,-29.75 581.5,-29.75"/>
</g>
<!-- Node36&#45;&gt;Node6 -->
<g id="edge19" class="edge">
<title>Node36&#45;&gt;Node6</title>
<path fill="none" stroke="midnightblue" d="M647.04,-57.61C643.99,-57.02 640.94,-56.48 638,-56 506.01,-34.67 348.45,-20.52 272.83,-14.42"/>
<polygon fill="midnightblue" stroke="midnightblue" points="272.96,-10.92 262.72,-13.61 272.41,-17.89 272.96,-10.92"/>
</g>
<!-- Node36&#45;&gt;Node38 -->
<g id="edge20" class="edge">
<title>Node36&#45;&gt;Node38</title>
<path fill="none" stroke="midnightblue" d="M689.8,-56.32C698.82,-48.34 712.41,-36.31 723.32,-26.65"/>
<polygon fill="midnightblue" stroke="midnightblue" points="725.85,-29.08 731.02,-19.83 721.21,-23.84 725.85,-29.08"/>
</g>
<!-- Node41&#45;&gt;Node4 -->
<g id="edge30" class="edge">
<title>Node41&#45;&gt;Node4</title>
<path fill="none" stroke="midnightblue" d="M394.55,-280.44C369.87,-271.44 330.81,-257.19 303.02,-247.05"/>
<polygon fill="midnightblue" stroke="midnightblue" points="303.94,-243.66 293.34,-243.52 301.54,-250.23 303.94,-243.66"/>
</g>
<!-- Node41&#45;&gt;Node8 -->
<g id="edge31" class="edge">
<title>Node41&#45;&gt;Node8</title>
<path fill="none" stroke="midnightblue" d="M381.25,-283.87C341.48,-277.54 276.68,-264.97 224,-244 190.41,-230.63 154.92,-208.18 133.36,-193.48"/>
<polygon fill="midnightblue" stroke="midnightblue" points="135.23,-190.52 125.02,-187.7 131.25,-196.27 135.23,-190.52"/>
</g>
<!-- Node41&#45;&gt;Node12 -->
<g id="edge29" class="edge">
<title>Node41&#45;&gt;Node12</title>
<path fill="none" stroke="midnightblue" d="M430.1,-280.47C441.76,-271.95 459.56,-258.12 473,-244 487.3,-228.97 501.1,-209.62 510.2,-195.95"/>
<polygon fill="midnightblue" stroke="midnightblue" points="513.17,-197.81 515.7,-187.52 507.3,-193.98 513.17,-197.81"/>
</g>
<!-- Node41&#45;&gt;Node36 -->
<g id="edge36" class="edge">
<title>Node41&#45;&gt;Node36</title>
<path fill="none" stroke="midnightblue" d="M454.69,-288.85C569.66,-287.45 918.67,-275.93 976,-188 1037.08,-94.31 818.74,-73.15 722.91,-68.38"/>
<polygon fill="midnightblue" stroke="midnightblue" points="722.83,-64.87 712.68,-67.91 722.5,-71.86 722.83,-64.87"/>
</g>
<!-- Node42 -->
<g id="node22" class="node">
<title>Node42</title>
<g id="a_node22"><a xlink:href="mp__arith_8h.html" target="_top" xlink:title=" ">
<polygon fill="none" stroke="black" points="770.5,-224.5 770.5,-243.5 839.5,-243.5 839.5,-224.5 770.5,-224.5"/>
<text text-anchor="middle" x="805" y="-231.5" font-family="Helvetica,sans-Serif" font-size="10.00">mp_arith.h</text>
</a>
</g>
</g>
<!-- Node41&#45;&gt;Node42 -->
<g id="edge32" class="edge">
<title>Node41&#45;&gt;Node42</title>
<path fill="none" stroke="midnightblue" d="M454.76,-283.87C526.03,-273.93 682.77,-252.06 760.08,-241.27"/>
<polygon fill="midnightblue" stroke="midnightblue" points="761.02,-244.67 770.44,-239.82 760.05,-237.74 761.02,-244.67"/>
</g>
<!-- Node26 -->
<g id="node25" class="node">
<title>Node26</title>
<g id="a_node25"><a xlink:title=" ">
<polygon fill="none" stroke="#bfbfbf" points="371.5,-224.5 371.5,-243.5 464.5,-243.5 464.5,-224.5 371.5,-224.5"/>
<text text-anchor="middle" x="418" y="-231.5" font-family="Helvetica,sans-Serif" font-size="10.00">unordered_map</text>
</a>
</g>
</g>
<!-- Node41&#45;&gt;Node26 -->
<g id="edge37" class="edge">
<title>Node41&#45;&gt;Node26</title>
<path fill="none" stroke="midnightblue" d="M418,-280.08C418,-273.01 418,-262.86 418,-253.99"/>
<polygon fill="midnightblue" stroke="midnightblue" points="421.5,-253.75 418,-243.75 414.5,-253.75 421.5,-253.75"/>
</g>
<!-- Node42&#45;&gt;Node11 -->
<g id="edge34" class="edge">
<title>Node42&#45;&gt;Node11</title>
<path fill="none" stroke="midnightblue" d="M803.8,-224.18C799.31,-194.78 780.58,-99.5 722,-56 688.56,-31.17 641.1,-19.82 609.94,-14.79"/>
<polygon fill="midnightblue" stroke="midnightblue" points="610.45,-11.33 600.04,-13.31 609.42,-18.25 610.45,-11.33"/>
</g>
<!-- Node21 -->
<g id="node23" class="node">
<title>Node21</title>
<g id="a_node23"><a xlink:title=" ">
<polygon fill="none" stroke="#bfbfbf" points="807,-168.5 807,-187.5 855,-187.5 855,-168.5 807,-168.5"/>
<text text-anchor="middle" x="831" y="-175.5" font-family="Helvetica,sans-Serif" font-size="10.00">iosfwd</text>
</a>
</g>
</g>
<!-- Node42&#45;&gt;Node21 -->
<g id="edge33" class="edge">
<title>Node42&#45;&gt;Node21</title>
<path fill="none" stroke="midnightblue" d="M809.29,-224.08C812.85,-216.69 818.02,-205.95 822.42,-196.81"/>
<polygon fill="midnightblue" stroke="midnightblue" points="825.6,-198.28 826.79,-187.75 819.29,-195.24 825.6,-198.28"/>
</g>
<!-- Node43 -->
<g id="node24" class="node">
<title>Node43</title>
<g id="a_node24"><a xlink:title=" ">
<polygon fill="none" stroke="#bfbfbf" points="873,-168.5 873,-187.5 967,-187.5 967,-168.5 873,-168.5"/>
<text text-anchor="middle" x="920" y="-175.5" font-family="Helvetica,sans-Serif" font-size="10.00">big&#45;int/bigint.hh</text>
</a>
</g>
</g>
<!-- Node42&#45;&gt;Node43 -->
<g id="edge35" class="edge">
<title>Node42&#45;&gt;Node43</title>
<path fill="none" stroke="midnightblue" d="M823.22,-224.44C841.9,-215.68 871.16,-201.94 892.62,-191.86"/>
<polygon fill="midnightblue" stroke="midnightblue" points="894.3,-194.93 901.86,-187.52 891.32,-188.6 894.3,-194.93"/>
</g>
</g>
</svg>
