<?xml version="1.0" encoding="UTF-8" standalone="no"?>
<!DOCTYPE svg PUBLIC "-//W3C//DTD SVG 1.1//EN"
 "http://www.w3.org/Graphics/SVG/1.1/DTD/svg11.dtd">
<!-- Generated by graphviz version 2.43.0 (0)
 -->
<!-- Title: /home/runner/work/cbmc/cbmc/src/solvers/smt2/letify.h Pages: 1 -->
<svg width="2359pt" height="562pt"
 viewBox="0.00 0.00 2359.00 562.00" xmlns="http://www.w3.org/2000/svg" xmlns:xlink="http://www.w3.org/1999/xlink">
<g id="graph0" class="graph" transform="scale(1 1) rotate(0) translate(4 558)">
<title>/home/runner/work/cbmc/cbmc/src/solvers/smt2/letify.h</title>
<!-- Node1 -->
<g id="node1" class="node">
<title>Node1</title>
<g id="a_node1"><a xlink:title=" ">
<polygon fill="#bfbfbf" stroke="black" points="1965.5,-512.5 1965.5,-553.5 2103.5,-553.5 2103.5,-512.5 1965.5,-512.5"/>
<text text-anchor="start" x="1973.5" y="-541.5" font-family="Helvetica,sans-Serif" font-size="10.00">/home/runner/work/cbmc</text>
<text text-anchor="start" x="1973.5" y="-530.5" font-family="Helvetica,sans-Serif" font-size="10.00">/cbmc/src/solvers/smt2</text>
<text text-anchor="middle" x="2034.5" y="-519.5" font-family="Helvetica,sans-Serif" font-size="10.00">/letify.h</text>
</a>
</g>
</g>
<!-- Node2 -->
<g id="node2" class="node">
<title>Node2</title>
<g id="a_node2"><a xlink:href="smt2__conv_8h.html" target="_top" xlink:title=" ">
<polygon fill="none" stroke="black" points="1887.5,-434.5 1887.5,-475.5 2025.5,-475.5 2025.5,-434.5 1887.5,-434.5"/>
<text text-anchor="start" x="1895.5" y="-463.5" font-family="Helvetica,sans-Serif" font-size="10.00">/home/runner/work/cbmc</text>
<text text-anchor="start" x="1895.5" y="-452.5" font-family="Helvetica,sans-Serif" font-size="10.00">/cbmc/src/solvers/smt2</text>
<text text-anchor="middle" x="1956.5" y="-441.5" font-family="Helvetica,sans-Serif" font-size="10.00">/smt2_conv.h</text>
</a>
</g>
</g>
<!-- Node1&#45;&gt;Node2 -->
<g id="edge1" class="edge">
<title>Node1&#45;&gt;Node2</title>
<path fill="none" stroke="midnightblue" d="M2007,-505.2C1996.95,-495.42 1985.79,-484.54 1976.52,-475.51"/>
<polygon fill="midnightblue" stroke="midnightblue" points="2004.81,-507.96 2014.41,-512.43 2009.69,-502.94 2004.81,-507.96"/>
</g>
<!-- Node35 -->
<g id="node32" class="node">
<title>Node35</title>
<g id="a_node32"><a xlink:href="letify_8cpp.html" target="_top" xlink:title=" ">
<polygon fill="none" stroke="black" points="2043.5,-434.5 2043.5,-475.5 2181.5,-475.5 2181.5,-434.5 2043.5,-434.5"/>
<text text-anchor="start" x="2051.5" y="-463.5" font-family="Helvetica,sans-Serif" font-size="10.00">/home/runner/work/cbmc</text>
<text text-anchor="start" x="2051.5" y="-452.5" font-family="Helvetica,sans-Serif" font-size="10.00">/cbmc/src/solvers/smt2</text>
<text text-anchor="middle" x="2112.5" y="-441.5" font-family="Helvetica,sans-Serif" font-size="10.00">/letify.cpp</text>
</a>
</g>
</g>
<!-- Node1&#45;&gt;Node35 -->
<g id="edge33" class="edge">
<title>Node1&#45;&gt;Node35</title>
<path fill="none" stroke="midnightblue" d="M2062,-505.2C2072.05,-495.42 2083.21,-484.54 2092.48,-475.51"/>
<polygon fill="midnightblue" stroke="midnightblue" points="2059.31,-502.94 2054.59,-512.43 2064.19,-507.96 2059.31,-502.94"/>
</g>
<!-- Node3 -->
<g id="node3" class="node">
<title>Node3</title>
<g id="a_node3"><a xlink:href="smt2__dec_8h.html" target="_top" xlink:title=" ">
<polygon fill="none" stroke="black" points="1487.5,-351 1487.5,-392 1625.5,-392 1625.5,-351 1487.5,-351"/>
<text text-anchor="start" x="1495.5" y="-380" font-family="Helvetica,sans-Serif" font-size="10.00">/home/runner/work/cbmc</text>
<text text-anchor="start" x="1495.5" y="-369" font-family="Helvetica,sans-Serif" font-size="10.00">/cbmc/src/solvers/smt2</text>
<text text-anchor="middle" x="1556.5" y="-358" font-family="Helvetica,sans-Serif" font-size="10.00">/smt2_dec.h</text>
</a>
</g>
</g>
<!-- Node2&#45;&gt;Node3 -->
<g id="edge2" class="edge">
<title>Node2&#45;&gt;Node3</title>
<path fill="none" stroke="midnightblue" d="M1877.15,-437.83C1803.68,-422.86 1695.52,-400.83 1625.54,-386.57"/>
<polygon fill="midnightblue" stroke="midnightblue" points="1876.78,-441.33 1887.28,-439.9 1878.18,-434.47 1876.78,-441.33"/>
</g>
<!-- Node29 -->
<g id="node26" class="node">
<title>Node29</title>
<g id="a_node26"><a xlink:href="state__encoding__targets_8h.html" target="_top" xlink:title=" ">
<polygon fill="none" stroke="black" points="1727.5,-351 1727.5,-392 1865.5,-392 1865.5,-351 1727.5,-351"/>
<text text-anchor="start" x="1735.5" y="-380" font-family="Helvetica,sans-Serif" font-size="10.00">/home/runner/work/cbmc</text>
<text text-anchor="start" x="1735.5" y="-369" font-family="Helvetica,sans-Serif" font-size="10.00">/cbmc/src/cprover/state</text>
<text text-anchor="middle" x="1796.5" y="-358" font-family="Helvetica,sans-Serif" font-size="10.00">_encoding_targets.h</text>
</a>
</g>
</g>
<!-- Node2&#45;&gt;Node29 -->
<g id="edge27" class="edge">
<title>Node2&#45;&gt;Node29</title>
<path fill="none" stroke="midnightblue" d="M1909.01,-429.81C1885.33,-417.75 1857.06,-403.35 1834.79,-392"/>
<polygon fill="midnightblue" stroke="midnightblue" points="1907.68,-433.06 1918.18,-434.48 1910.85,-426.82 1907.68,-433.06"/>
</g>
<!-- Node32 -->
<g id="node29" class="node">
<title>Node32</title>
<g id="a_node29"><a xlink:href="horn__encoding_8cpp.html" target="_top" xlink:title=" ">
<polygon fill="none" stroke="black" points="1884,-351 1884,-392 2029,-392 2029,-351 1884,-351"/>
<text text-anchor="start" x="1892" y="-380" font-family="Helvetica,sans-Serif" font-size="10.00">/home/runner/work/cbmc</text>
<text text-anchor="start" x="1892" y="-369" font-family="Helvetica,sans-Serif" font-size="10.00">/cbmc/src/goto&#45;instrument</text>
<text text-anchor="middle" x="1956.5" y="-358" font-family="Helvetica,sans-Serif" font-size="10.00">/horn_encoding.cpp</text>
</a>
</g>
</g>
<!-- Node2&#45;&gt;Node32 -->
<g id="edge30" class="edge">
<title>Node2&#45;&gt;Node32</title>
<path fill="none" stroke="midnightblue" d="M1956.5,-424.06C1956.5,-413.38 1956.5,-401.63 1956.5,-392.05"/>
<polygon fill="midnightblue" stroke="midnightblue" points="1953,-424.27 1956.5,-434.27 1960,-424.27 1953,-424.27"/>
</g>
<!-- Node33 -->
<g id="node30" class="node">
<title>Node33</title>
<g id="a_node30"><a xlink:href="smt2__conv_8cpp.html" target="_top" xlink:title=" ">
<polygon fill="none" stroke="black" points="2047.5,-351 2047.5,-392 2185.5,-392 2185.5,-351 2047.5,-351"/>
<text text-anchor="start" x="2055.5" y="-380" font-family="Helvetica,sans-Serif" font-size="10.00">/home/runner/work/cbmc</text>
<text text-anchor="start" x="2055.5" y="-369" font-family="Helvetica,sans-Serif" font-size="10.00">/cbmc/src/solvers/smt2</text>
<text text-anchor="middle" x="2116.5" y="-358" font-family="Helvetica,sans-Serif" font-size="10.00">/smt2_conv.cpp</text>
</a>
</g>
</g>
<!-- Node2&#45;&gt;Node33 -->
<g id="edge31" class="edge">
<title>Node2&#45;&gt;Node33</title>
<path fill="none" stroke="midnightblue" d="M2003.99,-429.81C2027.67,-417.75 2055.94,-403.35 2078.21,-392"/>
<polygon fill="midnightblue" stroke="midnightblue" points="2002.15,-426.82 1994.82,-434.48 2005.32,-433.06 2002.15,-426.82"/>
</g>
<!-- Node34 -->
<g id="node31" class="node">
<title>Node34</title>
<g id="a_node31"><a xlink:href="smt__to__smt2__string_8cpp.html" target="_top" xlink:title=" ">
<polygon fill="none" stroke="black" points="2204,-345.5 2204,-397.5 2351,-397.5 2351,-345.5 2204,-345.5"/>
<text text-anchor="start" x="2212" y="-385.5" font-family="Helvetica,sans-Serif" font-size="10.00">/home/runner/work/cbmc</text>
<text text-anchor="start" x="2212" y="-374.5" font-family="Helvetica,sans-Serif" font-size="10.00">/cbmc/src/solvers/smt2</text>
<text text-anchor="start" x="2212" y="-363.5" font-family="Helvetica,sans-Serif" font-size="10.00">_incremental/smt_to_smt2</text>
<text text-anchor="middle" x="2277.5" y="-352.5" font-family="Helvetica,sans-Serif" font-size="10.00">_string.cpp</text>
</a>
</g>
</g>
<!-- Node2&#45;&gt;Node34 -->
<g id="edge32" class="edge">
<title>Node2&#45;&gt;Node34</title>
<path fill="none" stroke="midnightblue" d="M2035.72,-433.75C2107.07,-416.89 2127.08,-415.91 2194.5,-398 2197.56,-397.19 2200.68,-396.34 2203.82,-395.46"/>
<polygon fill="midnightblue" stroke="midnightblue" points="2034.71,-430.39 2025.8,-436.12 2036.34,-437.2 2034.71,-430.39"/>
</g>
<!-- Node4 -->
<g id="node4" class="node">
<title>Node4</title>
<g id="a_node4"><a xlink:href="solver__factory_8h.html" target="_top" xlink:title=" ">
<polygon fill="none" stroke="black" points="832.5,-267.5 832.5,-308.5 970.5,-308.5 970.5,-267.5 832.5,-267.5"/>
<text text-anchor="start" x="840.5" y="-296.5" font-family="Helvetica,sans-Serif" font-size="10.00">/home/runner/work/cbmc</text>
<text text-anchor="start" x="840.5" y="-285.5" font-family="Helvetica,sans-Serif" font-size="10.00">/cbmc/src/goto&#45;checker</text>
<text text-anchor="middle" x="901.5" y="-274.5" font-family="Helvetica,sans-Serif" font-size="10.00">/solver_factory.h</text>
</a>
</g>
</g>
<!-- Node3&#45;&gt;Node4 -->
<g id="edge3" class="edge">
<title>Node3&#45;&gt;Node4</title>
<path fill="none" stroke="midnightblue" d="M1477.1,-360.62C1347.68,-344.52 1093.42,-312.88 970.83,-297.63"/>
<polygon fill="midnightblue" stroke="midnightblue" points="1476.98,-364.13 1487.33,-361.89 1477.84,-357.19 1476.98,-364.13"/>
</g>
<!-- Node21 -->
<g id="node18" class="node">
<title>Node21</title>
<g id="a_node18"><a xlink:href="scratch__program_8h.html" target="_top" xlink:title=" ">
<polygon fill="none" stroke="black" points="1389.5,-267.5 1389.5,-308.5 1553.5,-308.5 1553.5,-267.5 1389.5,-267.5"/>
<text text-anchor="start" x="1397.5" y="-296.5" font-family="Helvetica,sans-Serif" font-size="10.00">/home/runner/work/cbmc</text>
<text text-anchor="start" x="1397.5" y="-285.5" font-family="Helvetica,sans-Serif" font-size="10.00">/cbmc/src/goto&#45;instrument</text>
<text text-anchor="middle" x="1471.5" y="-274.5" font-family="Helvetica,sans-Serif" font-size="10.00">/accelerate/scratch_program.h</text>
</a>
</g>
</g>
<!-- Node3&#45;&gt;Node21 -->
<g id="edge19" class="edge">
<title>Node3&#45;&gt;Node21</title>
<path fill="none" stroke="midnightblue" d="M1528.38,-343.54C1516.46,-332.1 1502.82,-319.03 1491.89,-308.55"/>
<polygon fill="midnightblue" stroke="midnightblue" points="1526.28,-346.38 1535.92,-350.77 1531.13,-341.32 1526.28,-346.38"/>
</g>
<!-- Node28 -->
<g id="node25" class="node">
<title>Node28</title>
<g id="a_node25"><a xlink:href="smt2__dec_8cpp.html" target="_top" xlink:title=" ">
<polygon fill="none" stroke="black" points="1571.5,-267.5 1571.5,-308.5 1709.5,-308.5 1709.5,-267.5 1571.5,-267.5"/>
<text text-anchor="start" x="1579.5" y="-296.5" font-family="Helvetica,sans-Serif" font-size="10.00">/home/runner/work/cbmc</text>
<text text-anchor="start" x="1579.5" y="-285.5" font-family="Helvetica,sans-Serif" font-size="10.00">/cbmc/src/solvers/smt2</text>
<text text-anchor="middle" x="1640.5" y="-274.5" font-family="Helvetica,sans-Serif" font-size="10.00">/smt2_dec.cpp</text>
</a>
</g>
</g>
<!-- Node3&#45;&gt;Node28 -->
<g id="edge26" class="edge">
<title>Node3&#45;&gt;Node28</title>
<path fill="none" stroke="midnightblue" d="M1584.29,-343.54C1596.07,-332.1 1609.55,-319.03 1620.35,-308.55"/>
<polygon fill="midnightblue" stroke="midnightblue" points="1581.57,-341.3 1576.83,-350.77 1586.45,-346.32 1581.57,-341.3"/>
</g>
<!-- Node5 -->
<g id="node5" class="node">
<title>Node5</title>
<g id="a_node5"><a xlink:href="goto__symex__property__decider_8h.html" target="_top" xlink:title=" ">
<polygon fill="none" stroke="black" points="638.5,-184 638.5,-225 814.5,-225 814.5,-184 638.5,-184"/>
<text text-anchor="start" x="646.5" y="-213" font-family="Helvetica,sans-Serif" font-size="10.00">/home/runner/work/cbmc</text>
<text text-anchor="start" x="646.5" y="-202" font-family="Helvetica,sans-Serif" font-size="10.00">/cbmc/src/goto&#45;checker</text>
<text text-anchor="middle" x="726.5" y="-191" font-family="Helvetica,sans-Serif" font-size="10.00">/goto_symex_property_decider.h</text>
</a>
</g>
</g>
<!-- Node4&#45;&gt;Node5 -->
<g id="edge4" class="edge">
<title>Node4&#45;&gt;Node5</title>
<path fill="none" stroke="midnightblue" d="M850.25,-263.13C824.2,-251 792.96,-236.45 768.38,-225"/>
<polygon fill="midnightblue" stroke="midnightblue" points="849.04,-266.43 859.58,-267.48 852,-260.08 849.04,-266.43"/>
</g>
<!-- Node20 -->
<g id="node17" class="node">
<title>Node20</title>
<g id="a_node17"><a xlink:href="solver__factory_8cpp.html" target="_top" xlink:title=" ">
<polygon fill="none" stroke="black" points="832.5,-184 832.5,-225 970.5,-225 970.5,-184 832.5,-184"/>
<text text-anchor="start" x="840.5" y="-213" font-family="Helvetica,sans-Serif" font-size="10.00">/home/runner/work/cbmc</text>
<text text-anchor="start" x="840.5" y="-202" font-family="Helvetica,sans-Serif" font-size="10.00">/cbmc/src/goto&#45;checker</text>
<text text-anchor="middle" x="901.5" y="-191" font-family="Helvetica,sans-Serif" font-size="10.00">/solver_factory.cpp</text>
</a>
</g>
</g>
<!-- Node4&#45;&gt;Node20 -->
<g id="edge18" class="edge">
<title>Node4&#45;&gt;Node20</title>
<path fill="none" stroke="midnightblue" d="M901.5,-257.06C901.5,-246.38 901.5,-234.63 901.5,-225.05"/>
<polygon fill="midnightblue" stroke="midnightblue" points="898,-257.27 901.5,-267.27 905,-257.27 898,-257.27"/>
</g>
<!-- Node6 -->
<g id="node6" class="node">
<title>Node6</title>
<g id="a_node6"><a xlink:href="multi__path__symex__checker_8h.html" target="_top" xlink:title=" ">
<polygon fill="none" stroke="black" points="298,-95 298,-136 459,-136 459,-95 298,-95"/>
<text text-anchor="start" x="306" y="-124" font-family="Helvetica,sans-Serif" font-size="10.00">/home/runner/work/cbmc</text>
<text text-anchor="start" x="306" y="-113" font-family="Helvetica,sans-Serif" font-size="10.00">/cbmc/src/goto&#45;checker</text>
<text text-anchor="middle" x="378.5" y="-102" font-family="Helvetica,sans-Serif" font-size="10.00">/multi_path_symex_checker.h</text>
</a>
</g>
</g>
<!-- Node5&#45;&gt;Node6 -->
<g id="edge5" class="edge">
<title>Node5&#45;&gt;Node6</title>
<path fill="none" stroke="midnightblue" d="M636.63,-181.53C589.26,-169.89 530.2,-155.3 477.5,-142 469.84,-140.07 461.85,-138.04 453.88,-136"/>
<polygon fill="midnightblue" stroke="midnightblue" points="636,-184.98 646.55,-183.97 637.67,-178.18 636,-184.98"/>
</g>
<!-- Node12 -->
<g id="node10" class="node">
<title>Node12</title>
<g id="a_node10"><a xlink:href="single__loop__incremental__symex__checker_8h.html" target="_top" xlink:title=" ">
<polygon fill="none" stroke="black" points="487,-89.5 487,-141.5 626,-141.5 626,-89.5 487,-89.5"/>
<text text-anchor="start" x="495" y="-129.5" font-family="Helvetica,sans-Serif" font-size="10.00">/home/runner/work/cbmc</text>
<text text-anchor="start" x="495" y="-118.5" font-family="Helvetica,sans-Serif" font-size="10.00">/cbmc/src/goto&#45;checker</text>
<text text-anchor="start" x="495" y="-107.5" font-family="Helvetica,sans-Serif" font-size="10.00">/single_loop_incremental</text>
<text text-anchor="middle" x="556.5" y="-96.5" font-family="Helvetica,sans-Serif" font-size="10.00">_symex_checker.h</text>
</a>
</g>
</g>
<!-- Node5&#45;&gt;Node12 -->
<g id="edge9" class="edge">
<title>Node5&#45;&gt;Node12</title>
<path fill="none" stroke="midnightblue" d="M679.15,-179.27C656.21,-167.53 628.68,-153.44 605.52,-141.58"/>
<polygon fill="midnightblue" stroke="midnightblue" points="677.85,-182.54 688.35,-183.98 681.04,-176.3 677.85,-182.54"/>
</g>
<!-- Node14 -->
<g id="node12" class="node">
<title>Node14</title>
<g id="a_node12"><a xlink:href="single__path__symex__checker_8h.html" target="_top" xlink:title=" ">
<polygon fill="none" stroke="black" points="644,-95 644,-136 809,-136 809,-95 644,-95"/>
<text text-anchor="start" x="652" y="-124" font-family="Helvetica,sans-Serif" font-size="10.00">/home/runner/work/cbmc</text>
<text text-anchor="start" x="652" y="-113" font-family="Helvetica,sans-Serif" font-size="10.00">/cbmc/src/goto&#45;checker</text>
<text text-anchor="middle" x="726.5" y="-102" font-family="Helvetica,sans-Serif" font-size="10.00">/single_path_symex_checker.h</text>
</a>
</g>
</g>
<!-- Node5&#45;&gt;Node14 -->
<g id="edge12" class="edge">
<title>Node5&#45;&gt;Node14</title>
<path fill="none" stroke="midnightblue" d="M726.5,-173.44C726.5,-161.1 726.5,-147.16 726.5,-136.16"/>
<polygon fill="midnightblue" stroke="midnightblue" points="723,-173.76 726.5,-183.76 730,-173.76 723,-173.76"/>
</g>
<!-- Node18 -->
<g id="node15" class="node">
<title>Node18</title>
<g id="a_node15"><a xlink:href="bmc__util_8cpp.html" target="_top" xlink:title=" ">
<polygon fill="none" stroke="black" points="827.5,-95 827.5,-136 965.5,-136 965.5,-95 827.5,-95"/>
<text text-anchor="start" x="835.5" y="-124" font-family="Helvetica,sans-Serif" font-size="10.00">/home/runner/work/cbmc</text>
<text text-anchor="start" x="835.5" y="-113" font-family="Helvetica,sans-Serif" font-size="10.00">/cbmc/src/goto&#45;checker</text>
<text text-anchor="middle" x="896.5" y="-102" font-family="Helvetica,sans-Serif" font-size="10.00">/bmc_util.cpp</text>
</a>
</g>
</g>
<!-- Node5&#45;&gt;Node18 -->
<g id="edge16" class="edge">
<title>Node5&#45;&gt;Node18</title>
<path fill="none" stroke="midnightblue" d="M773.78,-179.3C800.39,-165.68 833.19,-148.9 858.18,-136.11"/>
<polygon fill="midnightblue" stroke="midnightblue" points="771.96,-176.3 764.65,-183.98 775.15,-182.54 771.96,-176.3"/>
</g>
<!-- Node19 -->
<g id="node16" class="node">
<title>Node19</title>
<g id="a_node16"><a xlink:href="goto__symex__property__decider_8cpp.html" target="_top" xlink:title=" ">
<polygon fill="none" stroke="black" points="984,-95 984,-136 1171,-136 1171,-95 984,-95"/>
<text text-anchor="start" x="992" y="-124" font-family="Helvetica,sans-Serif" font-size="10.00">/home/runner/work/cbmc</text>
<text text-anchor="start" x="992" y="-113" font-family="Helvetica,sans-Serif" font-size="10.00">/cbmc/src/goto&#45;checker</text>
<text text-anchor="middle" x="1077.5" y="-102" font-family="Helvetica,sans-Serif" font-size="10.00">/goto_symex_property_decider.cpp</text>
</a>
</g>
</g>
<!-- Node5&#45;&gt;Node19 -->
<g id="edge17" class="edge">
<title>Node5&#45;&gt;Node19</title>
<path fill="none" stroke="midnightblue" d="M810.06,-181.4C814.6,-180.24 819.11,-179.1 823.5,-178 890.42,-161.23 907.46,-158.29 974.5,-142 982.38,-140.09 990.59,-138.08 998.79,-136.06"/>
<polygon fill="midnightblue" stroke="midnightblue" points="808.89,-178.09 800.07,-183.97 810.63,-184.87 808.89,-178.09"/>
</g>
<!-- Node7 -->
<g id="node7" class="node">
<title>Node7</title>
<g id="a_node7"><a xlink:href="cbmc__parse__options_8cpp.html" target="_top" xlink:title=" ">
<polygon fill="none" stroke="black" points="397.5,-6 397.5,-47 551.5,-47 551.5,-6 397.5,-6"/>
<text text-anchor="start" x="405.5" y="-35" font-family="Helvetica,sans-Serif" font-size="10.00">/home/runner/work/cbmc</text>
<text text-anchor="start" x="405.5" y="-24" font-family="Helvetica,sans-Serif" font-size="10.00">/cbmc/src/cbmc/cbmc_parse</text>
<text text-anchor="middle" x="474.5" y="-13" font-family="Helvetica,sans-Serif" font-size="10.00">_options.cpp</text>
</a>
</g>
</g>
<!-- Node6&#45;&gt;Node7 -->
<g id="edge6" class="edge">
<title>Node6&#45;&gt;Node7</title>
<path fill="none" stroke="midnightblue" d="M408,-87.76C422.46,-74.66 439.56,-59.16 452.8,-47.16"/>
<polygon fill="midnightblue" stroke="midnightblue" points="405.34,-85.45 400.28,-94.76 410.04,-90.64 405.34,-85.45"/>
</g>
<!-- Node8 -->
<g id="node8" class="node">
<title>Node8</title>
<g id="a_node8"><a xlink:href="multi__path__symex__checker_8cpp.html" target="_top" xlink:title=" ">
<polygon fill="none" stroke="black" points="0,-6 0,-47 173,-47 173,-6 0,-6"/>
<text text-anchor="start" x="8" y="-35" font-family="Helvetica,sans-Serif" font-size="10.00">/home/runner/work/cbmc</text>
<text text-anchor="start" x="8" y="-24" font-family="Helvetica,sans-Serif" font-size="10.00">/cbmc/src/goto&#45;checker</text>
<text text-anchor="middle" x="86.5" y="-13" font-family="Helvetica,sans-Serif" font-size="10.00">/multi_path_symex_checker.cpp</text>
</a>
</g>
</g>
<!-- Node6&#45;&gt;Node8 -->
<g id="edge7" class="edge">
<title>Node6&#45;&gt;Node8</title>
<path fill="none" stroke="midnightblue" d="M303.19,-92.06C256.42,-78.13 196.89,-60.39 152.06,-47.03"/>
<polygon fill="midnightblue" stroke="midnightblue" points="302.39,-95.47 312.97,-94.98 304.39,-88.77 302.39,-95.47"/>
</g>
<!-- Node9 -->
<g id="node9" class="node">
<title>Node9</title>
<g id="a_node9"><a xlink:href="java__multi__path__symex__checker_8h.html" target="_top" xlink:title=" ">
<polygon fill="none" stroke="red" points="191.5,-6 191.5,-47 379.5,-47 379.5,-6 191.5,-6"/>
<text text-anchor="start" x="199.5" y="-35" font-family="Helvetica,sans-Serif" font-size="10.00">/home/runner/work/cbmc</text>
<text text-anchor="start" x="199.5" y="-24" font-family="Helvetica,sans-Serif" font-size="10.00">/cbmc/jbmc/src/java_bytecode</text>
<text text-anchor="middle" x="285.5" y="-13" font-family="Helvetica,sans-Serif" font-size="10.00">/java_multi_path_symex_checker.h</text>
</a>
</g>
</g>
<!-- Node6&#45;&gt;Node9 -->
<g id="edge8" class="edge">
<title>Node6&#45;&gt;Node9</title>
<path fill="none" stroke="midnightblue" d="M349.92,-87.76C335.91,-74.66 319.35,-59.16 306.52,-47.16"/>
<polygon fill="midnightblue" stroke="midnightblue" points="347.7,-90.48 357.4,-94.76 352.49,-85.37 347.7,-90.48"/>
</g>
<!-- Node12&#45;&gt;Node7 -->
<g id="edge10" class="edge">
<title>Node12&#45;&gt;Node7</title>
<path fill="none" stroke="midnightblue" d="M525.72,-81.85C514.7,-70.15 502.62,-57.33 492.96,-47.08"/>
<polygon fill="midnightblue" stroke="midnightblue" points="523.38,-84.46 532.78,-89.34 528.47,-79.66 523.38,-84.46"/>
</g>
<!-- Node13 -->
<g id="node11" class="node">
<title>Node13</title>
<g id="a_node11"><a xlink:href="single__loop__incremental__symex__checker_8cpp.html" target="_top" xlink:title=" ">
<polygon fill="none" stroke="black" points="570,-0.5 570,-52.5 709,-52.5 709,-0.5 570,-0.5"/>
<text text-anchor="start" x="578" y="-40.5" font-family="Helvetica,sans-Serif" font-size="10.00">/home/runner/work/cbmc</text>
<text text-anchor="start" x="578" y="-29.5" font-family="Helvetica,sans-Serif" font-size="10.00">/cbmc/src/goto&#45;checker</text>
<text text-anchor="start" x="578" y="-18.5" font-family="Helvetica,sans-Serif" font-size="10.00">/single_loop_incremental</text>
<text text-anchor="middle" x="639.5" y="-7.5" font-family="Helvetica,sans-Serif" font-size="10.00">_symex_checker.cpp</text>
</a>
</g>
</g>
<!-- Node12&#45;&gt;Node13 -->
<g id="edge11" class="edge">
<title>Node12&#45;&gt;Node13</title>
<path fill="none" stroke="midnightblue" d="M587.43,-82.08C596.73,-72.34 606.78,-61.8 615.55,-52.61"/>
<polygon fill="midnightblue" stroke="midnightblue" points="584.88,-79.68 580.51,-89.34 589.94,-84.52 584.88,-79.68"/>
</g>
<!-- Node14&#45;&gt;Node7 -->
<g id="edge13" class="edge">
<title>Node14&#45;&gt;Node7</title>
<path fill="none" stroke="midnightblue" d="M660.26,-91.63C620.16,-77.79 569.56,-60.32 531.3,-47.11"/>
<polygon fill="midnightblue" stroke="midnightblue" points="659.35,-95.02 669.95,-94.98 661.64,-88.4 659.35,-95.02"/>
</g>
<!-- Node15 -->
<g id="node13" class="node">
<title>Node15</title>
<g id="a_node13"><a xlink:href="single__path__symex__checker_8cpp.html" target="_top" xlink:title=" ">
<polygon fill="none" stroke="black" points="727.5,-6 727.5,-47 903.5,-47 903.5,-6 727.5,-6"/>
<text text-anchor="start" x="735.5" y="-35" font-family="Helvetica,sans-Serif" font-size="10.00">/home/runner/work/cbmc</text>
<text text-anchor="start" x="735.5" y="-24" font-family="Helvetica,sans-Serif" font-size="10.00">/cbmc/src/goto&#45;checker</text>
<text text-anchor="middle" x="815.5" y="-13" font-family="Helvetica,sans-Serif" font-size="10.00">/single_path_symex_checker.cpp</text>
</a>
</g>
</g>
<!-- Node14&#45;&gt;Node15 -->
<g id="edge14" class="edge">
<title>Node14&#45;&gt;Node15</title>
<path fill="none" stroke="midnightblue" d="M753.85,-87.76C767.26,-74.66 783.11,-59.16 795.38,-47.16"/>
<polygon fill="midnightblue" stroke="midnightblue" points="751.4,-85.27 746.7,-94.76 756.29,-90.27 751.4,-85.27"/>
</g>
<!-- Node16 -->
<g id="node14" class="node">
<title>Node16</title>
<g id="a_node14"><a xlink:href="java__single__path__symex__checker_8h.html" target="_top" xlink:title=" ">
<polygon fill="none" stroke="red" points="922,-6 922,-47 1113,-47 1113,-6 922,-6"/>
<text text-anchor="start" x="930" y="-35" font-family="Helvetica,sans-Serif" font-size="10.00">/home/runner/work/cbmc</text>
<text text-anchor="start" x="930" y="-24" font-family="Helvetica,sans-Serif" font-size="10.00">/cbmc/jbmc/src/java_bytecode</text>
<text text-anchor="middle" x="1017.5" y="-13" font-family="Helvetica,sans-Serif" font-size="10.00">/java_single_path_symex_checker.h</text>
</a>
</g>
</g>
<!-- Node14&#45;&gt;Node16 -->
<g id="edge15" class="edge">
<title>Node14&#45;&gt;Node16</title>
<path fill="none" stroke="midnightblue" d="M801.55,-92.06C848.16,-78.13 907.49,-60.39 952.16,-47.03"/>
<polygon fill="midnightblue" stroke="midnightblue" points="800.38,-88.76 791.81,-94.98 802.39,-95.46 800.38,-88.76"/>
</g>
<!-- Node22 -->
<g id="node19" class="node">
<title>Node22</title>
<g id="a_node19"><a xlink:href="accelerate_8cpp.html" target="_top" xlink:title=" ">
<polygon fill="none" stroke="black" points="1399,-184 1399,-225 1544,-225 1544,-184 1399,-184"/>
<text text-anchor="start" x="1407" y="-213" font-family="Helvetica,sans-Serif" font-size="10.00">/home/runner/work/cbmc</text>
<text text-anchor="start" x="1407" y="-202" font-family="Helvetica,sans-Serif" font-size="10.00">/cbmc/src/goto&#45;instrument</text>
<text text-anchor="middle" x="1471.5" y="-191" font-family="Helvetica,sans-Serif" font-size="10.00">/accelerate/accelerate.cpp</text>
</a>
</g>
</g>
<!-- Node21&#45;&gt;Node22 -->
<g id="edge20" class="edge">
<title>Node21&#45;&gt;Node22</title>
<path fill="none" stroke="midnightblue" d="M1471.5,-257.06C1471.5,-246.38 1471.5,-234.63 1471.5,-225.05"/>
<polygon fill="midnightblue" stroke="midnightblue" points="1468,-257.27 1471.5,-267.27 1475,-257.27 1468,-257.27"/>
</g>
<!-- Node23 -->
<g id="node20" class="node">
<title>Node23</title>
<g id="a_node20"><a xlink:href="acceleration__utils_8cpp.html" target="_top" xlink:title=" ">
<polygon fill="none" stroke="black" points="1562,-178.5 1562,-230.5 1707,-230.5 1707,-178.5 1562,-178.5"/>
<text text-anchor="start" x="1570" y="-218.5" font-family="Helvetica,sans-Serif" font-size="10.00">/home/runner/work/cbmc</text>
<text text-anchor="start" x="1570" y="-207.5" font-family="Helvetica,sans-Serif" font-size="10.00">/cbmc/src/goto&#45;instrument</text>
<text text-anchor="start" x="1570" y="-196.5" font-family="Helvetica,sans-Serif" font-size="10.00">/accelerate/acceleration</text>
<text text-anchor="middle" x="1634.5" y="-185.5" font-family="Helvetica,sans-Serif" font-size="10.00">_utils.cpp</text>
</a>
</g>
</g>
<!-- Node21&#45;&gt;Node23 -->
<g id="edge21" class="edge">
<title>Node21&#45;&gt;Node23</title>
<path fill="none" stroke="midnightblue" d="M1519.64,-262.93C1540.02,-252.74 1563.76,-240.87 1584.35,-230.58"/>
<polygon fill="midnightblue" stroke="midnightblue" points="1517.92,-259.88 1510.54,-267.48 1521.05,-266.14 1517.92,-259.88"/>
</g>
<!-- Node24 -->
<g id="node21" class="node">
<title>Node24</title>
<g id="a_node21"><a xlink:href="disjunctive__polynomial__acceleration_8cpp.html" target="_top" xlink:title=" ">
<polygon fill="none" stroke="black" points="1725,-178.5 1725,-230.5 1912,-230.5 1912,-178.5 1725,-178.5"/>
<text text-anchor="start" x="1733" y="-218.5" font-family="Helvetica,sans-Serif" font-size="10.00">/home/runner/work/cbmc</text>
<text text-anchor="start" x="1733" y="-207.5" font-family="Helvetica,sans-Serif" font-size="10.00">/cbmc/src/goto&#45;instrument</text>
<text text-anchor="start" x="1733" y="-196.5" font-family="Helvetica,sans-Serif" font-size="10.00">/accelerate/disjunctive_polynomial</text>
<text text-anchor="middle" x="1818.5" y="-185.5" font-family="Helvetica,sans-Serif" font-size="10.00">_acceleration.cpp</text>
</a>
</g>
</g>
<!-- Node21&#45;&gt;Node24 -->
<g id="edge22" class="edge">
<title>Node21&#45;&gt;Node24</title>
<path fill="none" stroke="midnightblue" d="M1563.64,-266.24C1609.35,-255.85 1665.38,-242.95 1715.5,-231 1718.55,-230.27 1721.64,-229.53 1724.77,-228.78"/>
<polygon fill="midnightblue" stroke="midnightblue" points="1562.73,-262.86 1553.75,-268.49 1564.28,-269.69 1562.73,-262.86"/>
</g>
<!-- Node25 -->
<g id="node22" class="node">
<title>Node25</title>
<g id="a_node22"><a xlink:href="polynomial__accelerator_8cpp.html" target="_top" xlink:title=" ">
<polygon fill="none" stroke="black" points="1930.5,-184 1930.5,-225 2138.5,-225 2138.5,-184 1930.5,-184"/>
<text text-anchor="start" x="1938.5" y="-213" font-family="Helvetica,sans-Serif" font-size="10.00">/home/runner/work/cbmc</text>
<text text-anchor="start" x="1938.5" y="-202" font-family="Helvetica,sans-Serif" font-size="10.00">/cbmc/src/goto&#45;instrument</text>
<text text-anchor="middle" x="2034.5" y="-191" font-family="Helvetica,sans-Serif" font-size="10.00">/accelerate/polynomial_accelerator.cpp</text>
</a>
</g>
</g>
<!-- Node21&#45;&gt;Node25 -->
<g id="edge23" class="edge">
<title>Node21&#45;&gt;Node25</title>
<path fill="none" stroke="midnightblue" d="M1563.86,-266.88C1722.19,-242.38 1765.87,-255.98 1920.5,-231 1931.01,-229.3 1942.01,-227.23 1952.84,-225"/>
<polygon fill="midnightblue" stroke="midnightblue" points="1563.09,-263.46 1553.76,-268.47 1564.18,-270.37 1563.09,-263.46"/>
</g>
<!-- Node26 -->
<g id="node23" class="node">
<title>Node26</title>
<g id="a_node23"><a xlink:href="sat__path__enumerator_8cpp.html" target="_top" xlink:title=" ">
<polygon fill="none" stroke="black" points="989,-184 989,-225 1186,-225 1186,-184 989,-184"/>
<text text-anchor="start" x="997" y="-213" font-family="Helvetica,sans-Serif" font-size="10.00">/home/runner/work/cbmc</text>
<text text-anchor="start" x="997" y="-202" font-family="Helvetica,sans-Serif" font-size="10.00">/cbmc/src/goto&#45;instrument</text>
<text text-anchor="middle" x="1087.5" y="-191" font-family="Helvetica,sans-Serif" font-size="10.00">/accelerate/sat_path_enumerator.cpp</text>
</a>
</g>
</g>
<!-- Node21&#45;&gt;Node26 -->
<g id="edge24" class="edge">
<title>Node21&#45;&gt;Node26</title>
<path fill="none" stroke="midnightblue" d="M1379.39,-269.07C1325.66,-258.42 1256.64,-244.42 1195.5,-231 1186.94,-229.12 1178.01,-227.1 1169.11,-225.06"/>
<polygon fill="midnightblue" stroke="midnightblue" points="1378.74,-272.51 1389.23,-271.02 1380.1,-265.64 1378.74,-272.51"/>
</g>
<!-- Node27 -->
<g id="node24" class="node">
<title>Node27</title>
<g id="a_node24"><a xlink:href="scratch__program_8cpp.html" target="_top" xlink:title=" ">
<polygon fill="none" stroke="black" points="1204.5,-184 1204.5,-225 1380.5,-225 1380.5,-184 1204.5,-184"/>
<text text-anchor="start" x="1212.5" y="-213" font-family="Helvetica,sans-Serif" font-size="10.00">/home/runner/work/cbmc</text>
<text text-anchor="start" x="1212.5" y="-202" font-family="Helvetica,sans-Serif" font-size="10.00">/cbmc/src/goto&#45;instrument</text>
<text text-anchor="middle" x="1292.5" y="-191" font-family="Helvetica,sans-Serif" font-size="10.00">/accelerate/scratch_program.cpp</text>
</a>
</g>
</g>
<!-- Node21&#45;&gt;Node27 -->
<g id="edge25" class="edge">
<title>Node21&#45;&gt;Node27</title>
<path fill="none" stroke="midnightblue" d="M1419.42,-263.29C1392.72,-251.13 1360.59,-236.5 1335.33,-225"/>
<polygon fill="midnightblue" stroke="midnightblue" points="1418.07,-266.52 1428.63,-267.48 1420.97,-260.15 1418.07,-266.52"/>
</g>
<!-- Node30 -->
<g id="node27" class="node">
<title>Node30</title>
<g id="a_node27"><a xlink:href="state__encoding_8cpp.html" target="_top" xlink:title=" ">
<polygon fill="none" stroke="black" points="1883.5,-267.5 1883.5,-308.5 2021.5,-308.5 2021.5,-267.5 1883.5,-267.5"/>
<text text-anchor="start" x="1891.5" y="-296.5" font-family="Helvetica,sans-Serif" font-size="10.00">/home/runner/work/cbmc</text>
<text text-anchor="start" x="1891.5" y="-285.5" font-family="Helvetica,sans-Serif" font-size="10.00">/cbmc/src/cprover/state</text>
<text text-anchor="middle" x="1952.5" y="-274.5" font-family="Helvetica,sans-Serif" font-size="10.00">_encoding.cpp</text>
</a>
</g>
</g>
<!-- Node29&#45;&gt;Node30 -->
<g id="edge28" class="edge">
<title>Node29&#45;&gt;Node30</title>
<path fill="none" stroke="midnightblue" d="M1842.8,-346.31C1865.89,-334.25 1893.45,-319.85 1915.17,-308.5"/>
<polygon fill="midnightblue" stroke="midnightblue" points="1841.11,-343.25 1833.87,-350.98 1844.35,-349.45 1841.11,-343.25"/>
</g>
<!-- Node31 -->
<g id="node28" class="node">
<title>Node31</title>
<g id="a_node28"><a xlink:href="state__encoding__targets_8cpp.html" target="_top" xlink:title=" ">
<polygon fill="none" stroke="black" points="1727.5,-267.5 1727.5,-308.5 1865.5,-308.5 1865.5,-267.5 1727.5,-267.5"/>
<text text-anchor="start" x="1735.5" y="-296.5" font-family="Helvetica,sans-Serif" font-size="10.00">/home/runner/work/cbmc</text>
<text text-anchor="start" x="1735.5" y="-285.5" font-family="Helvetica,sans-Serif" font-size="10.00">/cbmc/src/cprover/state</text>
<text text-anchor="middle" x="1796.5" y="-274.5" font-family="Helvetica,sans-Serif" font-size="10.00">_encoding_targets.cpp</text>
</a>
</g>
</g>
<!-- Node29&#45;&gt;Node31 -->
<g id="edge29" class="edge">
<title>Node29&#45;&gt;Node31</title>
<path fill="none" stroke="midnightblue" d="M1796.5,-340.56C1796.5,-329.88 1796.5,-318.13 1796.5,-308.55"/>
<polygon fill="midnightblue" stroke="midnightblue" points="1793,-340.77 1796.5,-350.77 1800,-340.77 1793,-340.77"/>
</g>
</g>
</svg>
