<?xml version="1.0" encoding="UTF-8" standalone="no"?>
<!DOCTYPE svg PUBLIC "-//W3C//DTD SVG 1.1//EN"
 "http://www.w3.org/Graphics/SVG/1.1/DTD/svg11.dtd">
<!-- Generated by graphviz version 2.43.0 (0)
 -->
<!-- Title: /home/runner/work/cbmc/cbmc/src/util/lispexpr.h Pages: 1 -->
<svg width="651pt" height="106pt"
 viewBox="0.00 0.00 650.50 106.00" xmlns="http://www.w3.org/2000/svg" xmlns:xlink="http://www.w3.org/1999/xlink">
<g id="graph0" class="graph" transform="scale(1 1) rotate(0) translate(4 102)">
<title>/home/runner/work/cbmc/cbmc/src/util/lispexpr.h</title>
<!-- Node1 -->
<g id="node1" class="node">
<title>Node1</title>
<g id="a_node1"><a xlink:title=" ">
<polygon fill="#bfbfbf" stroke="black" points="260,-67.5 260,-97.5 398,-97.5 398,-67.5 260,-67.5"/>
<text text-anchor="start" x="268" y="-85.5" font-family="Helvetica,sans-Serif" font-size="10.00">/home/runner/work/cbmc</text>
<text text-anchor="middle" x="329" y="-74.5" font-family="Helvetica,sans-Serif" font-size="10.00">/cbmc/src/util/lispexpr.h</text>
</a>
</g>
</g>
<!-- Node2 -->
<g id="node2" class="node">
<title>Node2</title>
<g id="a_node2"><a xlink:href="expr2c_8cpp.html" target="_top" xlink:title=" ">
<polygon fill="none" stroke="black" points="0,-0.5 0,-30.5 152,-30.5 152,-0.5 0,-0.5"/>
<text text-anchor="start" x="8" y="-18.5" font-family="Helvetica,sans-Serif" font-size="10.00">/home/runner/work/cbmc</text>
<text text-anchor="middle" x="76" y="-7.5" font-family="Helvetica,sans-Serif" font-size="10.00">/cbmc/src/ansi&#45;c/expr2c.cpp</text>
</a>
</g>
</g>
<!-- Node1&#45;&gt;Node2 -->
<g id="edge1" class="edge">
<title>Node1&#45;&gt;Node2</title>
<path fill="none" stroke="midnightblue" d="M264.72,-64.98C223.39,-54.37 170.27,-40.72 130.92,-30.61"/>
<polygon fill="midnightblue" stroke="midnightblue" points="263.86,-68.38 274.41,-67.48 265.6,-61.6 263.86,-68.38"/>
</g>
<!-- Node3 -->
<g id="node3" class="node">
<title>Node3</title>
<g id="a_node3"><a xlink:href="expr2cpp_8cpp.html" target="_top" xlink:title=" ">
<polygon fill="none" stroke="black" points="170,-0.5 170,-30.5 322,-30.5 322,-0.5 170,-0.5"/>
<text text-anchor="start" x="178" y="-18.5" font-family="Helvetica,sans-Serif" font-size="10.00">/home/runner/work/cbmc</text>
<text text-anchor="middle" x="246" y="-7.5" font-family="Helvetica,sans-Serif" font-size="10.00">/cbmc/src/cpp/expr2cpp.cpp</text>
</a>
</g>
</g>
<!-- Node1&#45;&gt;Node3 -->
<g id="edge2" class="edge">
<title>Node1&#45;&gt;Node3</title>
<path fill="none" stroke="midnightblue" d="M303.04,-61.17C290.35,-51.23 275.39,-39.51 263.97,-30.58"/>
<polygon fill="midnightblue" stroke="midnightblue" points="300.96,-63.99 310.99,-67.4 305.28,-58.47 300.96,-63.99"/>
</g>
<!-- Node4 -->
<g id="node4" class="node">
<title>Node4</title>
<g id="a_node4"><a xlink:href="lispexpr_8cpp.html" target="_top" xlink:title=" ">
<polygon fill="none" stroke="black" points="340.5,-0.5 340.5,-30.5 483.5,-30.5 483.5,-0.5 340.5,-0.5"/>
<text text-anchor="start" x="348.5" y="-18.5" font-family="Helvetica,sans-Serif" font-size="10.00">/home/runner/work/cbmc</text>
<text text-anchor="middle" x="412" y="-7.5" font-family="Helvetica,sans-Serif" font-size="10.00">/cbmc/src/util/lispexpr.cpp</text>
</a>
</g>
</g>
<!-- Node1&#45;&gt;Node4 -->
<g id="edge3" class="edge">
<title>Node1&#45;&gt;Node4</title>
<path fill="none" stroke="midnightblue" d="M354.96,-61.17C367.65,-51.23 382.61,-39.51 394.03,-30.58"/>
<polygon fill="midnightblue" stroke="midnightblue" points="352.72,-58.47 347.01,-67.4 357.04,-63.99 352.72,-58.47"/>
</g>
<!-- Node5 -->
<g id="node5" class="node">
<title>Node5</title>
<g id="a_node5"><a xlink:href="lispirep_8cpp.html" target="_top" xlink:title=" ">
<polygon fill="none" stroke="black" points="501.5,-0.5 501.5,-30.5 642.5,-30.5 642.5,-0.5 501.5,-0.5"/>
<text text-anchor="start" x="509.5" y="-18.5" font-family="Helvetica,sans-Serif" font-size="10.00">/home/runner/work/cbmc</text>
<text text-anchor="middle" x="572" y="-7.5" font-family="Helvetica,sans-Serif" font-size="10.00">/cbmc/src/util/lispirep.cpp</text>
</a>
</g>
</g>
<!-- Node1&#45;&gt;Node5 -->
<g id="edge4" class="edge">
<title>Node1&#45;&gt;Node5</title>
<path fill="none" stroke="midnightblue" d="M391.25,-64.85C430.86,-54.25 481.61,-40.68 519.25,-30.61"/>
<polygon fill="midnightblue" stroke="midnightblue" points="390.18,-61.51 381.43,-67.48 391.99,-68.27 390.18,-61.51"/>
</g>
</g>
</svg>
