<?xml version="1.0" encoding="UTF-8" standalone="no"?>
<!DOCTYPE svg PUBLIC "-//W3C//DTD SVG 1.1//EN"
 "http://www.w3.org/Graphics/SVG/1.1/DTD/svg11.dtd">
<!-- Generated by graphviz version 2.43.0 (0)
 -->
<!-- Title: /home/runner/work/cbmc/cbmc/src/analyses/locals.h Pages: 1 -->
<svg width="2504pt" height="284pt"
 viewBox="0.00 0.00 2504.11 284.00" xmlns="http://www.w3.org/2000/svg" xmlns:xlink="http://www.w3.org/1999/xlink">
<g id="graph0" class="graph" transform="scale(1 1) rotate(0) translate(4 280)">
<title>/home/runner/work/cbmc/cbmc/src/analyses/locals.h</title>
<!-- Node1 -->
<g id="node1" class="node">
<title>Node1</title>
<g id="a_node1"><a xlink:title=" ">
<polygon fill="#bfbfbf" stroke="black" points="1166.11,-245.5 1166.11,-275.5 1316.11,-275.5 1316.11,-245.5 1166.11,-245.5"/>
<text text-anchor="start" x="1174.11" y="-263.5" font-family="Helvetica,sans-Serif" font-size="10.00">/home/runner/work/cbmc</text>
<text text-anchor="middle" x="1241.11" y="-252.5" font-family="Helvetica,sans-Serif" font-size="10.00">/cbmc/src/analyses/locals.h</text>
</a>
</g>
</g>
<!-- Node2 -->
<g id="node2" class="node">
<title>Node2</title>
<g id="a_node2"><a xlink:href="local__may__alias_8h.html" target="_top" xlink:title=" ">
<polygon fill="none" stroke="black" points="1507.11,-167.5 1507.11,-208.5 1645.11,-208.5 1645.11,-167.5 1507.11,-167.5"/>
<text text-anchor="start" x="1515.11" y="-196.5" font-family="Helvetica,sans-Serif" font-size="10.00">/home/runner/work/cbmc</text>
<text text-anchor="start" x="1515.11" y="-185.5" font-family="Helvetica,sans-Serif" font-size="10.00">/cbmc/src/analyses/local</text>
<text text-anchor="middle" x="1576.11" y="-174.5" font-family="Helvetica,sans-Serif" font-size="10.00">_may_alias.h</text>
</a>
</g>
</g>
<!-- Node1&#45;&gt;Node2 -->
<g id="edge1" class="edge">
<title>Node1&#45;&gt;Node2</title>
<path fill="none" stroke="midnightblue" d="M1317.74,-243.37C1374.77,-231.37 1451.94,-215.13 1507.06,-203.53"/>
<polygon fill="midnightblue" stroke="midnightblue" points="1316.76,-240 1307.7,-245.49 1318.21,-246.85 1316.76,-240"/>
</g>
<!-- Node15 -->
<g id="node15" class="node">
<title>Node15</title>
<g id="a_node15"><a xlink:href="local__bitvector__analysis_8h.html" target="_top" xlink:title=" ">
<polygon fill="none" stroke="black" points="98.11,-167.5 98.11,-208.5 236.11,-208.5 236.11,-167.5 98.11,-167.5"/>
<text text-anchor="start" x="106.11" y="-196.5" font-family="Helvetica,sans-Serif" font-size="10.00">/home/runner/work/cbmc</text>
<text text-anchor="start" x="106.11" y="-185.5" font-family="Helvetica,sans-Serif" font-size="10.00">/cbmc/src/analyses/local</text>
<text text-anchor="middle" x="167.11" y="-174.5" font-family="Helvetica,sans-Serif" font-size="10.00">_bitvector_analysis.h</text>
</a>
</g>
</g>
<!-- Node1&#45;&gt;Node15 -->
<g id="edge14" class="edge">
<title>Node1&#45;&gt;Node15</title>
<path fill="none" stroke="midnightblue" d="M1155.83,-253.9C949.25,-240.34 425.18,-205.94 236.3,-193.54"/>
<polygon fill="midnightblue" stroke="midnightblue" points="1155.81,-257.41 1166.02,-254.57 1156.27,-250.42 1155.81,-257.41"/>
</g>
<!-- Node18 -->
<g id="node18" class="node">
<title>Node18</title>
<g id="a_node18"><a xlink:href="locals_8cpp.html" target="_top" xlink:title=" ">
<polygon fill="none" stroke="black" points="1663.61,-173 1663.61,-203 1824.61,-203 1824.61,-173 1663.61,-173"/>
<text text-anchor="start" x="1671.61" y="-191" font-family="Helvetica,sans-Serif" font-size="10.00">/home/runner/work/cbmc</text>
<text text-anchor="middle" x="1744.11" y="-180" font-family="Helvetica,sans-Serif" font-size="10.00">/cbmc/src/analyses/locals.cpp</text>
</a>
</g>
</g>
<!-- Node1&#45;&gt;Node18 -->
<g id="edge18" class="edge">
<title>Node1&#45;&gt;Node18</title>
<path fill="none" stroke="midnightblue" d="M1326.39,-251.51C1410.15,-243.09 1541.41,-228.37 1654.11,-209 1664.05,-207.29 1674.55,-205.21 1684.73,-203.05"/>
<polygon fill="midnightblue" stroke="midnightblue" points="1326.02,-248.03 1316.42,-252.51 1326.72,-255 1326.02,-248.03"/>
</g>
<!-- Node19 -->
<g id="node19" class="node">
<title>Node19</title>
<g id="a_node19"><a xlink:href="cfg__info_8h.html" target="_top" xlink:title=" ">
<polygon fill="none" stroke="black" points="750.61,-167.5 750.61,-208.5 895.61,-208.5 895.61,-167.5 750.61,-167.5"/>
<text text-anchor="start" x="758.61" y="-196.5" font-family="Helvetica,sans-Serif" font-size="10.00">/home/runner/work/cbmc</text>
<text text-anchor="start" x="758.61" y="-185.5" font-family="Helvetica,sans-Serif" font-size="10.00">/cbmc/src/goto&#45;instrument</text>
<text text-anchor="middle" x="823.11" y="-174.5" font-family="Helvetica,sans-Serif" font-size="10.00">/contracts/cfg_info.h</text>
</a>
</g>
</g>
<!-- Node1&#45;&gt;Node19 -->
<g id="edge19" class="edge">
<title>Node1&#45;&gt;Node19</title>
<path fill="none" stroke="midnightblue" d="M1155.8,-245.11C1079.21,-232.19 968.01,-213.44 895.62,-201.23"/>
<polygon fill="midnightblue" stroke="midnightblue" points="1155.46,-248.6 1165.9,-246.81 1156.62,-241.7 1155.46,-248.6"/>
</g>
<!-- Node3 -->
<g id="node3" class="node">
<title>Node3</title>
<g id="a_node3"><a xlink:href="custom__bitvector__analysis_8h.html" target="_top" xlink:title=" ">
<polygon fill="none" stroke="black" points="1161.61,-84 1161.61,-125 1310.61,-125 1310.61,-84 1161.61,-84"/>
<text text-anchor="start" x="1169.61" y="-113" font-family="Helvetica,sans-Serif" font-size="10.00">/home/runner/work/cbmc</text>
<text text-anchor="start" x="1169.61" y="-102" font-family="Helvetica,sans-Serif" font-size="10.00">/cbmc/src/analyses/custom</text>
<text text-anchor="middle" x="1236.11" y="-91" font-family="Helvetica,sans-Serif" font-size="10.00">_bitvector_analysis.h</text>
</a>
</g>
</g>
<!-- Node2&#45;&gt;Node3 -->
<g id="edge2" class="edge">
<title>Node2&#45;&gt;Node3</title>
<path fill="none" stroke="midnightblue" d="M1497.11,-171.41C1446.31,-160.97 1379.03,-146.36 1320.11,-131 1313.18,-129.19 1305.97,-127.19 1298.8,-125.12"/>
<polygon fill="midnightblue" stroke="midnightblue" points="1496.54,-174.86 1507.04,-173.44 1497.94,-168 1496.54,-174.86"/>
</g>
<!-- Node7 -->
<g id="node7" class="node">
<title>Node7</title>
<g id="a_node7"><a xlink:href="local__may__alias_8cpp.html" target="_top" xlink:title=" ">
<polygon fill="none" stroke="black" points="1329.11,-84 1329.11,-125 1467.11,-125 1467.11,-84 1329.11,-84"/>
<text text-anchor="start" x="1337.11" y="-113" font-family="Helvetica,sans-Serif" font-size="10.00">/home/runner/work/cbmc</text>
<text text-anchor="start" x="1337.11" y="-102" font-family="Helvetica,sans-Serif" font-size="10.00">/cbmc/src/analyses/local</text>
<text text-anchor="middle" x="1398.11" y="-91" font-family="Helvetica,sans-Serif" font-size="10.00">_may_alias.cpp</text>
</a>
</g>
</g>
<!-- Node2&#45;&gt;Node7 -->
<g id="edge6" class="edge">
<title>Node2&#45;&gt;Node7</title>
<path fill="none" stroke="midnightblue" d="M1524.33,-163.29C1497.77,-151.13 1465.82,-136.5 1440.71,-125"/>
<polygon fill="midnightblue" stroke="midnightblue" points="1522.93,-166.5 1533.48,-167.48 1525.84,-160.13 1522.93,-166.5"/>
</g>
<!-- Node8 -->
<g id="node8" class="node">
<title>Node8</title>
<g id="a_node8"><a xlink:href="goto__analyzer__parse__options_8cpp.html" target="_top" xlink:title=" ">
<polygon fill="none" stroke="black" points="1485.11,-84 1485.11,-125 1667.11,-125 1667.11,-84 1485.11,-84"/>
<text text-anchor="start" x="1493.11" y="-113" font-family="Helvetica,sans-Serif" font-size="10.00">/home/runner/work/cbmc</text>
<text text-anchor="start" x="1493.11" y="-102" font-family="Helvetica,sans-Serif" font-size="10.00">/cbmc/src/goto&#45;analyzer</text>
<text text-anchor="middle" x="1576.11" y="-91" font-family="Helvetica,sans-Serif" font-size="10.00">/goto_analyzer_parse_options.cpp</text>
</a>
</g>
</g>
<!-- Node2&#45;&gt;Node8 -->
<g id="edge7" class="edge">
<title>Node2&#45;&gt;Node8</title>
<path fill="none" stroke="midnightblue" d="M1576.11,-157.06C1576.11,-146.38 1576.11,-134.63 1576.11,-125.05"/>
<polygon fill="midnightblue" stroke="midnightblue" points="1572.61,-157.27 1576.11,-167.27 1579.61,-157.27 1572.61,-157.27"/>
</g>
<!-- Node9 -->
<g id="node9" class="node">
<title>Node9</title>
<g id="a_node9"><a xlink:href="contracts_8cpp.html" target="_top" xlink:title=" ">
<polygon fill="none" stroke="black" points="998.61,-84 998.61,-125 1143.61,-125 1143.61,-84 998.61,-84"/>
<text text-anchor="start" x="1006.61" y="-113" font-family="Helvetica,sans-Serif" font-size="10.00">/home/runner/work/cbmc</text>
<text text-anchor="start" x="1006.61" y="-102" font-family="Helvetica,sans-Serif" font-size="10.00">/cbmc/src/goto&#45;instrument</text>
<text text-anchor="middle" x="1071.11" y="-91" font-family="Helvetica,sans-Serif" font-size="10.00">/contracts/contracts.cpp</text>
</a>
</g>
</g>
<!-- Node2&#45;&gt;Node9 -->
<g id="edge8" class="edge">
<title>Node2&#45;&gt;Node9</title>
<path fill="none" stroke="midnightblue" d="M1496.83,-180.56C1411.31,-172.67 1271.48,-157.04 1153.11,-131 1145.54,-129.33 1137.66,-127.29 1129.92,-125.1"/>
<polygon fill="midnightblue" stroke="midnightblue" points="1496.71,-184.06 1506.99,-181.48 1497.35,-177.09 1496.71,-184.06"/>
</g>
<!-- Node10 -->
<g id="node10" class="node">
<title>Node10</title>
<g id="a_node10"><a xlink:href="function__assigns_8cpp.html" target="_top" xlink:title=" ">
<polygon fill="none" stroke="black" points="1685.61,-84 1685.61,-125 1830.61,-125 1830.61,-84 1685.61,-84"/>
<text text-anchor="start" x="1693.61" y="-113" font-family="Helvetica,sans-Serif" font-size="10.00">/home/runner/work/cbmc</text>
<text text-anchor="start" x="1693.61" y="-102" font-family="Helvetica,sans-Serif" font-size="10.00">/cbmc/src/goto&#45;instrument</text>
<text text-anchor="middle" x="1758.11" y="-91" font-family="Helvetica,sans-Serif" font-size="10.00">/function_assigns.cpp</text>
</a>
</g>
</g>
<!-- Node2&#45;&gt;Node10 -->
<g id="edge9" class="edge">
<title>Node2&#45;&gt;Node10</title>
<path fill="none" stroke="midnightblue" d="M1629.06,-163.29C1656.22,-151.13 1688.89,-136.5 1714.56,-125"/>
<polygon fill="midnightblue" stroke="midnightblue" points="1627.4,-160.2 1619.71,-167.48 1630.26,-166.59 1627.4,-160.2"/>
</g>
<!-- Node11 -->
<g id="node11" class="node">
<title>Node11</title>
<g id="a_node11"><a xlink:href="havoc__loops_8cpp.html" target="_top" xlink:title=" ">
<polygon fill="none" stroke="black" points="1848.61,-84 1848.61,-125 1993.61,-125 1993.61,-84 1848.61,-84"/>
<text text-anchor="start" x="1856.61" y="-113" font-family="Helvetica,sans-Serif" font-size="10.00">/home/runner/work/cbmc</text>
<text text-anchor="start" x="1856.61" y="-102" font-family="Helvetica,sans-Serif" font-size="10.00">/cbmc/src/goto&#45;instrument</text>
<text text-anchor="middle" x="1921.11" y="-91" font-family="Helvetica,sans-Serif" font-size="10.00">/havoc_loops.cpp</text>
</a>
</g>
</g>
<!-- Node2&#45;&gt;Node11 -->
<g id="edge10" class="edge">
<title>Node2&#45;&gt;Node11</title>
<path fill="none" stroke="midnightblue" d="M1655.32,-167.03C1738.58,-148.9 1761.94,-150.84 1840.11,-131 1847.12,-129.22 1854.41,-127.19 1861.61,-125.07"/>
<polygon fill="midnightblue" stroke="midnightblue" points="1654.43,-163.64 1645.42,-169.22 1655.94,-170.48 1654.43,-163.64"/>
</g>
<!-- Node12 -->
<g id="node12" class="node">
<title>Node12</title>
<g id="a_node12"><a xlink:href="k__induction_8cpp.html" target="_top" xlink:title=" ">
<polygon fill="none" stroke="black" points="2011.61,-84 2011.61,-125 2156.61,-125 2156.61,-84 2011.61,-84"/>
<text text-anchor="start" x="2019.61" y="-113" font-family="Helvetica,sans-Serif" font-size="10.00">/home/runner/work/cbmc</text>
<text text-anchor="start" x="2019.61" y="-102" font-family="Helvetica,sans-Serif" font-size="10.00">/cbmc/src/goto&#45;instrument</text>
<text text-anchor="middle" x="2084.11" y="-91" font-family="Helvetica,sans-Serif" font-size="10.00">/k_induction.cpp</text>
</a>
</g>
</g>
<!-- Node2&#45;&gt;Node12 -->
<g id="edge11" class="edge">
<title>Node2&#45;&gt;Node12</title>
<path fill="none" stroke="midnightblue" d="M1655.22,-167.15C1810.01,-140.75 1853.97,-161.86 2003.11,-131 2010.91,-129.39 2019.02,-127.32 2026.97,-125.06"/>
<polygon fill="midnightblue" stroke="midnightblue" points="1654.6,-163.7 1645.35,-168.87 1655.81,-170.6 1654.6,-163.7"/>
</g>
<!-- Node13 -->
<g id="node13" class="node">
<title>Node13</title>
<g id="a_node13"><a xlink:href="loop__utils_8cpp.html" target="_top" xlink:title=" ">
<polygon fill="none" stroke="black" points="2174.61,-84 2174.61,-125 2319.61,-125 2319.61,-84 2174.61,-84"/>
<text text-anchor="start" x="2182.61" y="-113" font-family="Helvetica,sans-Serif" font-size="10.00">/home/runner/work/cbmc</text>
<text text-anchor="start" x="2182.61" y="-102" font-family="Helvetica,sans-Serif" font-size="10.00">/cbmc/src/goto&#45;instrument</text>
<text text-anchor="middle" x="2247.11" y="-91" font-family="Helvetica,sans-Serif" font-size="10.00">/loop_utils.cpp</text>
</a>
</g>
</g>
<!-- Node2&#45;&gt;Node13 -->
<g id="edge12" class="edge">
<title>Node2&#45;&gt;Node13</title>
<path fill="none" stroke="midnightblue" d="M1655.53,-167.13C1881.78,-132.15 1945.71,-172.85 2166.11,-131 2174.23,-129.46 2182.66,-127.37 2190.9,-125.05"/>
<polygon fill="midnightblue" stroke="midnightblue" points="1654.66,-163.72 1645.33,-168.74 1655.75,-170.63 1654.66,-163.72"/>
</g>
<!-- Node14 -->
<g id="node14" class="node">
<title>Node14</title>
<g id="a_node14"><a xlink:href="janalyzer__parse__options_8cpp.html" target="_top" xlink:title=" ">
<polygon fill="none" stroke="black" points="2338.11,-84 2338.11,-125 2496.11,-125 2496.11,-84 2338.11,-84"/>
<text text-anchor="start" x="2346.11" y="-113" font-family="Helvetica,sans-Serif" font-size="10.00">/home/runner/work/cbmc</text>
<text text-anchor="start" x="2346.11" y="-102" font-family="Helvetica,sans-Serif" font-size="10.00">/cbmc/jbmc/src/janalyzer</text>
<text text-anchor="middle" x="2417.11" y="-91" font-family="Helvetica,sans-Serif" font-size="10.00">/janalyzer_parse_options.cpp</text>
</a>
</g>
</g>
<!-- Node2&#45;&gt;Node14 -->
<g id="edge13" class="edge">
<title>Node2&#45;&gt;Node14</title>
<path fill="none" stroke="midnightblue" d="M1655.56,-167.14C1953.56,-123.29 2036.66,-180.51 2329.11,-131 2338.05,-129.49 2347.37,-127.38 2356.46,-125.03"/>
<polygon fill="midnightblue" stroke="midnightblue" points="1654.69,-163.73 1645.32,-168.67 1655.73,-170.65 1654.69,-163.73"/>
</g>
<!-- Node4 -->
<g id="node4" class="node">
<title>Node4</title>
<g id="a_node4"><a xlink:href="custom__bitvector__analysis_8cpp.html" target="_top" xlink:title=" ">
<polygon fill="none" stroke="black" points="1242.61,-0.5 1242.61,-41.5 1391.61,-41.5 1391.61,-0.5 1242.61,-0.5"/>
<text text-anchor="start" x="1250.61" y="-29.5" font-family="Helvetica,sans-Serif" font-size="10.00">/home/runner/work/cbmc</text>
<text text-anchor="start" x="1250.61" y="-18.5" font-family="Helvetica,sans-Serif" font-size="10.00">/cbmc/src/analyses/custom</text>
<text text-anchor="middle" x="1317.11" y="-7.5" font-family="Helvetica,sans-Serif" font-size="10.00">_bitvector_analysis.cpp</text>
</a>
</g>
</g>
<!-- Node3&#45;&gt;Node4 -->
<g id="edge3" class="edge">
<title>Node3&#45;&gt;Node4</title>
<path fill="none" stroke="midnightblue" d="M1262.91,-76.54C1274.27,-65.1 1287.27,-52.03 1297.69,-41.55"/>
<polygon fill="midnightblue" stroke="midnightblue" points="1260.29,-74.21 1255.72,-83.77 1265.25,-79.15 1260.29,-74.21"/>
</g>
<!-- Node5 -->
<g id="node5" class="node">
<title>Node5</title>
<g id="a_node5"><a xlink:href="taint__analysis_8cpp.html" target="_top" xlink:title=" ">
<polygon fill="none" stroke="black" points="1086.11,-0.5 1086.11,-41.5 1224.11,-41.5 1224.11,-0.5 1086.11,-0.5"/>
<text text-anchor="start" x="1094.11" y="-29.5" font-family="Helvetica,sans-Serif" font-size="10.00">/home/runner/work/cbmc</text>
<text text-anchor="start" x="1094.11" y="-18.5" font-family="Helvetica,sans-Serif" font-size="10.00">/cbmc/src/goto&#45;analyzer</text>
<text text-anchor="middle" x="1155.11" y="-7.5" font-family="Helvetica,sans-Serif" font-size="10.00">/taint_analysis.cpp</text>
</a>
</g>
</g>
<!-- Node3&#45;&gt;Node5 -->
<g id="edge4" class="edge">
<title>Node3&#45;&gt;Node5</title>
<path fill="none" stroke="midnightblue" d="M1209.32,-76.54C1197.95,-65.1 1184.96,-52.03 1174.54,-41.55"/>
<polygon fill="midnightblue" stroke="midnightblue" points="1206.97,-79.15 1216.51,-83.77 1211.94,-74.21 1206.97,-79.15"/>
</g>
<!-- Node6 -->
<g id="node6" class="node">
<title>Node6</title>
<g id="a_node6"><a xlink:href="goto__instrument__parse__options_8cpp.html" target="_top" xlink:title=" ">
<polygon fill="none" stroke="black" points="425.11,-0.5 425.11,-41.5 619.11,-41.5 619.11,-0.5 425.11,-0.5"/>
<text text-anchor="start" x="433.11" y="-29.5" font-family="Helvetica,sans-Serif" font-size="10.00">/home/runner/work/cbmc</text>
<text text-anchor="start" x="433.11" y="-18.5" font-family="Helvetica,sans-Serif" font-size="10.00">/cbmc/src/goto&#45;instrument</text>
<text text-anchor="middle" x="522.11" y="-7.5" font-family="Helvetica,sans-Serif" font-size="10.00">/goto_instrument_parse_options.cpp</text>
</a>
</g>
</g>
<!-- Node3&#45;&gt;Node6 -->
<g id="edge5" class="edge">
<title>Node3&#45;&gt;Node6</title>
<path fill="none" stroke="midnightblue" d="M1168.24,-81.4C1163.16,-80.12 1158.07,-78.97 1153.11,-78 966.39,-41.45 743.87,-28.73 619.21,-24.32"/>
<polygon fill="midnightblue" stroke="midnightblue" points="1167.45,-84.81 1178.01,-83.97 1169.23,-78.04 1167.45,-84.81"/>
</g>
<!-- Node15&#45;&gt;Node6 -->
<g id="edge17" class="edge">
<title>Node15&#45;&gt;Node6</title>
<path fill="none" stroke="midnightblue" d="M88.03,-177.75C58.94,-170.07 28.82,-156.16 11.11,-131 -2.44,-111.73 -4.61,-95.54 11.11,-78 38.18,-47.8 284.38,-32.26 424.92,-25.78"/>
<polygon fill="midnightblue" stroke="midnightblue" points="87.29,-181.17 97.83,-180.11 88.93,-174.36 87.29,-181.17"/>
</g>
<!-- Node16 -->
<g id="node16" class="node">
<title>Node16</title>
<g id="a_node16"><a xlink:href="local__bitvector__analysis_8cpp.html" target="_top" xlink:title=" ">
<polygon fill="none" stroke="black" points="20.11,-84 20.11,-125 158.11,-125 158.11,-84 20.11,-84"/>
<text text-anchor="start" x="28.11" y="-113" font-family="Helvetica,sans-Serif" font-size="10.00">/home/runner/work/cbmc</text>
<text text-anchor="start" x="28.11" y="-102" font-family="Helvetica,sans-Serif" font-size="10.00">/cbmc/src/analyses/local</text>
<text text-anchor="middle" x="89.11" y="-91" font-family="Helvetica,sans-Serif" font-size="10.00">_bitvector_analysis.cpp</text>
</a>
</g>
</g>
<!-- Node15&#45;&gt;Node16 -->
<g id="edge15" class="edge">
<title>Node15&#45;&gt;Node16</title>
<path fill="none" stroke="midnightblue" d="M141.31,-160.04C130.37,-148.6 117.85,-135.53 107.82,-125.05"/>
<polygon fill="midnightblue" stroke="midnightblue" points="138.79,-162.47 148.23,-167.27 143.85,-157.63 138.79,-162.47"/>
</g>
<!-- Node17 -->
<g id="node17" class="node">
<title>Node17</title>
<g id="a_node17"><a xlink:href="goto__check__c_8cpp.html" target="_top" xlink:title=" ">
<polygon fill="none" stroke="black" points="176.11,-84 176.11,-125 314.11,-125 314.11,-84 176.11,-84"/>
<text text-anchor="start" x="184.11" y="-113" font-family="Helvetica,sans-Serif" font-size="10.00">/home/runner/work/cbmc</text>
<text text-anchor="start" x="184.11" y="-102" font-family="Helvetica,sans-Serif" font-size="10.00">/cbmc/src/ansi&#45;c/goto</text>
<text text-anchor="middle" x="245.11" y="-91" font-family="Helvetica,sans-Serif" font-size="10.00">_check_c.cpp</text>
</a>
</g>
</g>
<!-- Node15&#45;&gt;Node17 -->
<g id="edge16" class="edge">
<title>Node15&#45;&gt;Node17</title>
<path fill="none" stroke="midnightblue" d="M192.92,-160.04C203.86,-148.6 216.38,-135.53 226.41,-125.05"/>
<polygon fill="midnightblue" stroke="midnightblue" points="190.38,-157.63 186,-167.27 195.44,-162.47 190.38,-157.63"/>
</g>
<!-- Node19&#45;&gt;Node9 -->
<g id="edge20" class="edge">
<title>Node19&#45;&gt;Node9</title>
<path fill="none" stroke="midnightblue" d="M892.37,-164.24C929.93,-151.9 975.87,-136.8 1011.77,-125"/>
<polygon fill="midnightblue" stroke="midnightblue" points="890.92,-161.03 882.52,-167.48 893.11,-167.68 890.92,-161.03"/>
</g>
<!-- Node20 -->
<g id="node20" class="node">
<title>Node20</title>
<g id="a_node20"><a xlink:href="dfcc_8cpp.html" target="_top" xlink:title=" ">
<polygon fill="none" stroke="black" points="500.11,-78.5 500.11,-130.5 648.11,-130.5 648.11,-78.5 500.11,-78.5"/>
<text text-anchor="start" x="508.11" y="-118.5" font-family="Helvetica,sans-Serif" font-size="10.00">/home/runner/work/cbmc</text>
<text text-anchor="start" x="508.11" y="-107.5" font-family="Helvetica,sans-Serif" font-size="10.00">/cbmc/src/goto&#45;instrument</text>
<text text-anchor="start" x="508.11" y="-96.5" font-family="Helvetica,sans-Serif" font-size="10.00">/contracts/dynamic&#45;frames</text>
<text text-anchor="middle" x="574.11" y="-85.5" font-family="Helvetica,sans-Serif" font-size="10.00">/dfcc.cpp</text>
</a>
</g>
</g>
<!-- Node19&#45;&gt;Node20 -->
<g id="edge21" class="edge">
<title>Node19&#45;&gt;Node20</title>
<path fill="none" stroke="midnightblue" d="M753.95,-164.36C721.13,-153.62 681.87,-140.77 648.42,-129.82"/>
<polygon fill="midnightblue" stroke="midnightblue" points="752.88,-167.69 763.47,-167.48 755.06,-161.04 752.88,-167.69"/>
</g>
<!-- Node21 -->
<g id="node21" class="node">
<title>Node21</title>
<g id="a_node21"><a xlink:href="dfcc__instrument_8cpp.html" target="_top" xlink:title=" ">
<polygon fill="none" stroke="black" points="666.11,-78.5 666.11,-130.5 814.11,-130.5 814.11,-78.5 666.11,-78.5"/>
<text text-anchor="start" x="674.11" y="-118.5" font-family="Helvetica,sans-Serif" font-size="10.00">/home/runner/work/cbmc</text>
<text text-anchor="start" x="674.11" y="-107.5" font-family="Helvetica,sans-Serif" font-size="10.00">/cbmc/src/goto&#45;instrument</text>
<text text-anchor="start" x="674.11" y="-96.5" font-family="Helvetica,sans-Serif" font-size="10.00">/contracts/dynamic&#45;frames</text>
<text text-anchor="middle" x="740.11" y="-85.5" font-family="Helvetica,sans-Serif" font-size="10.00">/dfcc_instrument.cpp</text>
</a>
</g>
</g>
<!-- Node19&#45;&gt;Node21 -->
<g id="edge22" class="edge">
<title>Node19&#45;&gt;Node21</title>
<path fill="none" stroke="midnightblue" d="M795.87,-160.24C786.15,-150.71 775.25,-140 765.68,-130.61"/>
<polygon fill="midnightblue" stroke="midnightblue" points="793.43,-162.76 803.02,-167.27 798.34,-157.77 793.43,-162.76"/>
</g>
<!-- Node22 -->
<g id="node22" class="node">
<title>Node22</title>
<g id="a_node22"><a xlink:href="dfcc__swap__and__wrap_8cpp.html" target="_top" xlink:title=" ">
<polygon fill="none" stroke="black" points="832.11,-78.5 832.11,-130.5 980.11,-130.5 980.11,-78.5 832.11,-78.5"/>
<text text-anchor="start" x="840.11" y="-118.5" font-family="Helvetica,sans-Serif" font-size="10.00">/home/runner/work/cbmc</text>
<text text-anchor="start" x="840.11" y="-107.5" font-family="Helvetica,sans-Serif" font-size="10.00">/cbmc/src/goto&#45;instrument</text>
<text text-anchor="start" x="840.11" y="-96.5" font-family="Helvetica,sans-Serif" font-size="10.00">/contracts/dynamic&#45;frames</text>
<text text-anchor="middle" x="906.11" y="-85.5" font-family="Helvetica,sans-Serif" font-size="10.00">/dfcc_swap_and_wrap.cpp</text>
</a>
</g>
</g>
<!-- Node19&#45;&gt;Node22 -->
<g id="edge23" class="edge">
<title>Node19&#45;&gt;Node22</title>
<path fill="none" stroke="midnightblue" d="M850.36,-160.24C860.08,-150.71 870.98,-140 880.54,-130.61"/>
<polygon fill="midnightblue" stroke="midnightblue" points="847.89,-157.77 843.21,-167.27 852.79,-162.76 847.89,-157.77"/>
</g>
<!-- Node23 -->
<g id="node23" class="node">
<title>Node23</title>
<g id="a_node23"><a xlink:href="instrument__spec__assigns_8cpp.html" target="_top" xlink:title=" ">
<polygon fill="none" stroke="black" points="332.61,-78.5 332.61,-130.5 481.61,-130.5 481.61,-78.5 332.61,-78.5"/>
<text text-anchor="start" x="340.61" y="-118.5" font-family="Helvetica,sans-Serif" font-size="10.00">/home/runner/work/cbmc</text>
<text text-anchor="start" x="340.61" y="-107.5" font-family="Helvetica,sans-Serif" font-size="10.00">/cbmc/src/goto&#45;instrument</text>
<text text-anchor="start" x="340.61" y="-96.5" font-family="Helvetica,sans-Serif" font-size="10.00">/contracts/instrument_spec</text>
<text text-anchor="middle" x="407.11" y="-85.5" font-family="Helvetica,sans-Serif" font-size="10.00">_assigns.cpp</text>
</a>
</g>
</g>
<!-- Node19&#45;&gt;Node23 -->
<g id="edge24" class="edge">
<title>Node19&#45;&gt;Node23</title>
<path fill="none" stroke="midnightblue" d="M740.22,-176.02C672.7,-166.35 575.14,-150.76 491.11,-131 488,-130.27 484.83,-129.48 481.64,-128.66"/>
<polygon fill="midnightblue" stroke="midnightblue" points="739.98,-179.52 750.37,-177.46 740.96,-172.59 739.98,-179.52"/>
</g>
</g>
</svg>
