<?xml version="1.0" encoding="UTF-8" standalone="no"?>
<!DOCTYPE svg PUBLIC "-//W3C//DTD SVG 1.1//EN"
 "http://www.w3.org/Graphics/SVG/1.1/DTD/svg11.dtd">
<!-- Generated by graphviz version 2.43.0 (0)
 -->
<!-- Title: /home/runner/work/cbmc/cbmc/src/analyses/locals.h Pages: 1 -->
<svg width="2443pt" height="384pt"
 viewBox="0.00 0.00 2442.81 384.00" xmlns="http://www.w3.org/2000/svg" xmlns:xlink="http://www.w3.org/1999/xlink">
<g id="graph0" class="graph" transform="scale(1 1) rotate(0) translate(4 380)">
<title>/home/runner/work/cbmc/cbmc/src/analyses/locals.h</title>
<!-- Node1 -->
<g id="node1" class="node">
<title>Node1</title>
<g id="a_node1"><a xlink:title=" ">
<polygon fill="#bfbfbf" stroke="black" points="1508.66,-345.5 1508.66,-375.5 1658.66,-375.5 1658.66,-345.5 1508.66,-345.5"/>
<text text-anchor="start" x="1516.66" y="-363.5" font-family="Helvetica,sans-Serif" font-size="10.00">/home/runner/work/cbmc</text>
<text text-anchor="middle" x="1583.66" y="-352.5" font-family="Helvetica,sans-Serif" font-size="10.00">/cbmc/src/analyses/locals.h</text>
</a>
</g>
</g>
<!-- Node2 -->
<g id="node2" class="node">
<title>Node2</title>
<g id="a_node2"><a xlink:href="local__may__alias_8h.html" target="_top" xlink:title=" ">
<polygon fill="none" stroke="black" points="1130.66,-267.5 1130.66,-308.5 1268.66,-308.5 1268.66,-267.5 1130.66,-267.5"/>
<text text-anchor="start" x="1138.66" y="-296.5" font-family="Helvetica,sans-Serif" font-size="10.00">/home/runner/work/cbmc</text>
<text text-anchor="start" x="1138.66" y="-285.5" font-family="Helvetica,sans-Serif" font-size="10.00">/cbmc/src/analyses/local</text>
<text text-anchor="middle" x="1199.66" y="-274.5" font-family="Helvetica,sans-Serif" font-size="10.00">_may_alias.h</text>
</a>
</g>
</g>
<!-- Node1&#45;&gt;Node2 -->
<g id="edge1" class="edge">
<title>Node1&#45;&gt;Node2</title>
<path fill="none" stroke="midnightblue" d="M1498.26,-343.82C1429.16,-331.13 1333.09,-313.5 1268.76,-301.69"/>
<polygon fill="midnightblue" stroke="midnightblue" points="1497.78,-347.29 1508.25,-345.66 1499.05,-340.41 1497.78,-347.29"/>
</g>
<!-- Node15 -->
<g id="node15" class="node">
<title>Node15</title>
<g id="a_node15"><a xlink:href="local__bitvector__analysis_8h.html" target="_top" xlink:title=" ">
<polygon fill="none" stroke="black" points="176.66,-184 176.66,-225 314.66,-225 314.66,-184 176.66,-184"/>
<text text-anchor="start" x="184.66" y="-213" font-family="Helvetica,sans-Serif" font-size="10.00">/home/runner/work/cbmc</text>
<text text-anchor="start" x="184.66" y="-202" font-family="Helvetica,sans-Serif" font-size="10.00">/cbmc/src/analyses/local</text>
<text text-anchor="middle" x="245.66" y="-191" font-family="Helvetica,sans-Serif" font-size="10.00">_bitvector_analysis.h</text>
</a>
</g>
</g>
<!-- Node1&#45;&gt;Node15 -->
<g id="edge14" class="edge">
<title>Node1&#45;&gt;Node15</title>
<path fill="none" stroke="midnightblue" d="M1498.23,-354.95C1296.41,-343.26 774.82,-307.57 345.66,-231 335.61,-229.21 325.07,-226.95 314.77,-224.52"/>
<polygon fill="midnightblue" stroke="midnightblue" points="1498.28,-358.46 1508.47,-355.54 1498.68,-351.47 1498.28,-358.46"/>
</g>
<!-- Node18 -->
<g id="node18" class="node">
<title>Node18</title>
<g id="a_node18"><a xlink:href="locals_8cpp.html" target="_top" xlink:title=" ">
<polygon fill="none" stroke="black" points="1503.16,-273 1503.16,-303 1664.16,-303 1664.16,-273 1503.16,-273"/>
<text text-anchor="start" x="1511.16" y="-291" font-family="Helvetica,sans-Serif" font-size="10.00">/home/runner/work/cbmc</text>
<text text-anchor="middle" x="1583.66" y="-280" font-family="Helvetica,sans-Serif" font-size="10.00">/cbmc/src/analyses/locals.cpp</text>
</a>
</g>
</g>
<!-- Node1&#45;&gt;Node18 -->
<g id="edge19" class="edge">
<title>Node1&#45;&gt;Node18</title>
<path fill="none" stroke="midnightblue" d="M1583.66,-335.23C1583.66,-324.57 1583.66,-312.41 1583.66,-303.25"/>
<polygon fill="midnightblue" stroke="midnightblue" points="1580.16,-335.23 1583.66,-345.23 1587.16,-335.23 1580.16,-335.23"/>
</g>
<!-- Node19 -->
<g id="node19" class="node">
<title>Node19</title>
<g id="a_node19"><a xlink:href="cfg__info_8h.html" target="_top" xlink:title=" ">
<polygon fill="none" stroke="black" points="1746.16,-184 1746.16,-225 1891.16,-225 1891.16,-184 1746.16,-184"/>
<text text-anchor="start" x="1754.16" y="-213" font-family="Helvetica,sans-Serif" font-size="10.00">/home/runner/work/cbmc</text>
<text text-anchor="start" x="1754.16" y="-202" font-family="Helvetica,sans-Serif" font-size="10.00">/cbmc/src/goto&#45;instrument</text>
<text text-anchor="middle" x="1818.66" y="-191" font-family="Helvetica,sans-Serif" font-size="10.00">/contracts/cfg_info.h</text>
</a>
</g>
</g>
<!-- Node1&#45;&gt;Node19 -->
<g id="edge20" class="edge">
<title>Node1&#45;&gt;Node19</title>
<path fill="none" stroke="midnightblue" d="M1619.4,-340.61C1636.13,-331.47 1656.17,-320.1 1673.66,-309 1716.74,-281.65 1764.53,-246.56 1793.05,-225.07"/>
<polygon fill="midnightblue" stroke="midnightblue" points="1617.61,-337.6 1610.49,-345.44 1620.95,-343.75 1617.61,-337.6"/>
</g>
<!-- Node21 -->
<g id="node21" class="node">
<title>Node21</title>
<g id="a_node21"><a xlink:href="utils_8h.html" target="_top" xlink:title=" ">
<polygon fill="none" stroke="black" points="1986.16,-267.5 1986.16,-308.5 2131.16,-308.5 2131.16,-267.5 1986.16,-267.5"/>
<text text-anchor="start" x="1994.16" y="-296.5" font-family="Helvetica,sans-Serif" font-size="10.00">/home/runner/work/cbmc</text>
<text text-anchor="start" x="1994.16" y="-285.5" font-family="Helvetica,sans-Serif" font-size="10.00">/cbmc/src/goto&#45;instrument</text>
<text text-anchor="middle" x="2058.66" y="-274.5" font-family="Helvetica,sans-Serif" font-size="10.00">/contracts/utils.h</text>
</a>
</g>
</g>
<!-- Node1&#45;&gt;Node21 -->
<g id="edge23" class="edge">
<title>Node1&#45;&gt;Node21</title>
<path fill="none" stroke="midnightblue" d="M1668.61,-346.89C1759.03,-333.47 1900.58,-312.46 1986,-299.78"/>
<polygon fill="midnightblue" stroke="midnightblue" points="1668.04,-343.44 1658.66,-348.37 1669.07,-350.36 1668.04,-343.44"/>
</g>
<!-- Node3 -->
<g id="node3" class="node">
<title>Node3</title>
<g id="a_node3"><a xlink:href="custom__bitvector__analysis_8h.html" target="_top" xlink:title=" ">
<polygon fill="none" stroke="black" points="355.16,-184 355.16,-225 504.16,-225 504.16,-184 355.16,-184"/>
<text text-anchor="start" x="363.16" y="-213" font-family="Helvetica,sans-Serif" font-size="10.00">/home/runner/work/cbmc</text>
<text text-anchor="start" x="363.16" y="-202" font-family="Helvetica,sans-Serif" font-size="10.00">/cbmc/src/analyses/custom</text>
<text text-anchor="middle" x="429.66" y="-191" font-family="Helvetica,sans-Serif" font-size="10.00">_bitvector_analysis.h</text>
</a>
</g>
</g>
<!-- Node2&#45;&gt;Node3 -->
<g id="edge2" class="edge">
<title>Node2&#45;&gt;Node3</title>
<path fill="none" stroke="midnightblue" d="M1120.08,-286.09C991.31,-283.37 729.77,-272.69 512.66,-231 504.52,-229.44 496.04,-227.37 487.75,-225.08"/>
<polygon fill="midnightblue" stroke="midnightblue" points="1120.18,-289.59 1130.25,-286.29 1120.32,-282.59 1120.18,-289.59"/>
</g>
<!-- Node7 -->
<g id="node7" class="node">
<title>Node7</title>
<g id="a_node7"><a xlink:href="local__may__alias_8cpp.html" target="_top" xlink:title=" ">
<polygon fill="none" stroke="black" points="861.66,-184 861.66,-225 999.66,-225 999.66,-184 861.66,-184"/>
<text text-anchor="start" x="869.66" y="-213" font-family="Helvetica,sans-Serif" font-size="10.00">/home/runner/work/cbmc</text>
<text text-anchor="start" x="869.66" y="-202" font-family="Helvetica,sans-Serif" font-size="10.00">/cbmc/src/analyses/local</text>
<text text-anchor="middle" x="930.66" y="-191" font-family="Helvetica,sans-Serif" font-size="10.00">_may_alias.cpp</text>
</a>
</g>
</g>
<!-- Node2&#45;&gt;Node7 -->
<g id="edge6" class="edge">
<title>Node2&#45;&gt;Node7</title>
<path fill="none" stroke="midnightblue" d="M1120.97,-264.52C1086.43,-254.5 1045.46,-242.41 1008.66,-231 1002.54,-229.1 996.16,-227.08 989.8,-225.04"/>
<polygon fill="midnightblue" stroke="midnightblue" points="1120.42,-268 1130.99,-267.42 1122.36,-261.28 1120.42,-268"/>
</g>
<!-- Node8 -->
<g id="node8" class="node">
<title>Node8</title>
<g id="a_node8"><a xlink:href="goto__analyzer__parse__options_8cpp.html" target="_top" xlink:title=" ">
<polygon fill="none" stroke="black" points="1017.66,-184 1017.66,-225 1199.66,-225 1199.66,-184 1017.66,-184"/>
<text text-anchor="start" x="1025.66" y="-213" font-family="Helvetica,sans-Serif" font-size="10.00">/home/runner/work/cbmc</text>
<text text-anchor="start" x="1025.66" y="-202" font-family="Helvetica,sans-Serif" font-size="10.00">/cbmc/src/goto&#45;analyzer</text>
<text text-anchor="middle" x="1108.66" y="-191" font-family="Helvetica,sans-Serif" font-size="10.00">/goto_analyzer_parse_options.cpp</text>
</a>
</g>
</g>
<!-- Node2&#45;&gt;Node8 -->
<g id="edge7" class="edge">
<title>Node2&#45;&gt;Node8</title>
<path fill="none" stroke="midnightblue" d="M1169.92,-260.36C1157.07,-248.85 1142.3,-235.63 1130.49,-225.05"/>
<polygon fill="midnightblue" stroke="midnightblue" points="1167.85,-263.21 1177.63,-267.27 1172.52,-257.99 1167.85,-263.21"/>
</g>
<!-- Node9 -->
<g id="node9" class="node">
<title>Node9</title>
<g id="a_node9"><a xlink:href="contracts_8cpp.html" target="_top" xlink:title=" ">
<polygon fill="none" stroke="black" points="1785.16,-6 1785.16,-47 1930.16,-47 1930.16,-6 1785.16,-6"/>
<text text-anchor="start" x="1793.16" y="-35" font-family="Helvetica,sans-Serif" font-size="10.00">/home/runner/work/cbmc</text>
<text text-anchor="start" x="1793.16" y="-24" font-family="Helvetica,sans-Serif" font-size="10.00">/cbmc/src/goto&#45;instrument</text>
<text text-anchor="middle" x="1857.66" y="-13" font-family="Helvetica,sans-Serif" font-size="10.00">/contracts/contracts.cpp</text>
</a>
</g>
</g>
<!-- Node2&#45;&gt;Node9 -->
<g id="edge8" class="edge">
<title>Node2&#45;&gt;Node9</title>
<path fill="none" stroke="midnightblue" d="M1278.83,-282.38C1410.99,-274.03 1665.41,-255.07 1698.66,-231 1754.88,-190.3 1718.4,-141.62 1763.66,-89 1778.41,-71.85 1799.1,-57.61 1817.31,-47.17"/>
<polygon fill="midnightblue" stroke="midnightblue" points="1278.52,-278.89 1268.76,-283.01 1278.96,-285.88 1278.52,-278.89"/>
</g>
<!-- Node10 -->
<g id="node10" class="node">
<title>Node10</title>
<g id="a_node10"><a xlink:href="function__assigns_8cpp.html" target="_top" xlink:title=" ">
<polygon fill="none" stroke="black" points="1218.16,-184 1218.16,-225 1363.16,-225 1363.16,-184 1218.16,-184"/>
<text text-anchor="start" x="1226.16" y="-213" font-family="Helvetica,sans-Serif" font-size="10.00">/home/runner/work/cbmc</text>
<text text-anchor="start" x="1226.16" y="-202" font-family="Helvetica,sans-Serif" font-size="10.00">/cbmc/src/goto&#45;instrument</text>
<text text-anchor="middle" x="1290.66" y="-191" font-family="Helvetica,sans-Serif" font-size="10.00">/function_assigns.cpp</text>
</a>
</g>
</g>
<!-- Node2&#45;&gt;Node10 -->
<g id="edge9" class="edge">
<title>Node2&#45;&gt;Node10</title>
<path fill="none" stroke="midnightblue" d="M1229.4,-260.36C1242.25,-248.85 1257.02,-235.63 1268.83,-225.05"/>
<polygon fill="midnightblue" stroke="midnightblue" points="1226.8,-257.99 1221.69,-267.27 1231.47,-263.21 1226.8,-257.99"/>
</g>
<!-- Node11 -->
<g id="node11" class="node">
<title>Node11</title>
<g id="a_node11"><a xlink:href="havoc__loops_8cpp.html" target="_top" xlink:title=" ">
<polygon fill="none" stroke="black" points="1381.16,-184 1381.16,-225 1526.16,-225 1526.16,-184 1381.16,-184"/>
<text text-anchor="start" x="1389.16" y="-213" font-family="Helvetica,sans-Serif" font-size="10.00">/home/runner/work/cbmc</text>
<text text-anchor="start" x="1389.16" y="-202" font-family="Helvetica,sans-Serif" font-size="10.00">/cbmc/src/goto&#45;instrument</text>
<text text-anchor="middle" x="1453.66" y="-191" font-family="Helvetica,sans-Serif" font-size="10.00">/havoc_loops.cpp</text>
</a>
</g>
</g>
<!-- Node2&#45;&gt;Node11 -->
<g id="edge10" class="edge">
<title>Node2&#45;&gt;Node11</title>
<path fill="none" stroke="midnightblue" d="M1270.1,-264.4C1308.66,-252.03 1355.95,-236.85 1392.88,-225"/>
<polygon fill="midnightblue" stroke="midnightblue" points="1268.95,-261.09 1260.5,-267.48 1271.09,-267.76 1268.95,-261.09"/>
</g>
<!-- Node12 -->
<g id="node12" class="node">
<title>Node12</title>
<g id="a_node12"><a xlink:href="k__induction_8cpp.html" target="_top" xlink:title=" ">
<polygon fill="none" stroke="black" points="1544.16,-184 1544.16,-225 1689.16,-225 1689.16,-184 1544.16,-184"/>
<text text-anchor="start" x="1552.16" y="-213" font-family="Helvetica,sans-Serif" font-size="10.00">/home/runner/work/cbmc</text>
<text text-anchor="start" x="1552.16" y="-202" font-family="Helvetica,sans-Serif" font-size="10.00">/cbmc/src/goto&#45;instrument</text>
<text text-anchor="middle" x="1616.66" y="-191" font-family="Helvetica,sans-Serif" font-size="10.00">/k_induction.cpp</text>
</a>
</g>
</g>
<!-- Node2&#45;&gt;Node12 -->
<g id="edge11" class="edge">
<title>Node2&#45;&gt;Node12</title>
<path fill="none" stroke="midnightblue" d="M1279.04,-276.96C1347.52,-267.54 1448.82,-251.8 1535.66,-231 1542.83,-229.28 1550.29,-227.26 1557.65,-225.13"/>
<polygon fill="midnightblue" stroke="midnightblue" points="1278.2,-273.54 1268.76,-278.36 1279.14,-280.48 1278.2,-273.54"/>
</g>
<!-- Node13 -->
<g id="node13" class="node">
<title>Node13</title>
<g id="a_node13"><a xlink:href="loop__utils_8cpp.html" target="_top" xlink:title=" ">
<polygon fill="none" stroke="black" points="522.16,-184 522.16,-225 667.16,-225 667.16,-184 522.16,-184"/>
<text text-anchor="start" x="530.16" y="-213" font-family="Helvetica,sans-Serif" font-size="10.00">/home/runner/work/cbmc</text>
<text text-anchor="start" x="530.16" y="-202" font-family="Helvetica,sans-Serif" font-size="10.00">/cbmc/src/goto&#45;instrument</text>
<text text-anchor="middle" x="594.66" y="-191" font-family="Helvetica,sans-Serif" font-size="10.00">/loop_utils.cpp</text>
</a>
</g>
</g>
<!-- Node2&#45;&gt;Node13 -->
<g id="edge12" class="edge">
<title>Node2&#45;&gt;Node13</title>
<path fill="none" stroke="midnightblue" d="M1120.44,-283.33C1017.34,-277.45 832,-263.15 676.66,-231 668.78,-229.37 660.57,-227.29 652.53,-225.03"/>
<polygon fill="midnightblue" stroke="midnightblue" points="1120.28,-286.82 1130.46,-283.89 1120.67,-279.83 1120.28,-286.82"/>
</g>
<!-- Node14 -->
<g id="node14" class="node">
<title>Node14</title>
<g id="a_node14"><a xlink:href="janalyzer__parse__options_8cpp.html" target="_top" xlink:title=" ">
<polygon fill="none" stroke="black" points="685.66,-184 685.66,-225 843.66,-225 843.66,-184 685.66,-184"/>
<text text-anchor="start" x="693.66" y="-213" font-family="Helvetica,sans-Serif" font-size="10.00">/home/runner/work/cbmc</text>
<text text-anchor="start" x="693.66" y="-202" font-family="Helvetica,sans-Serif" font-size="10.00">/cbmc/jbmc/src/janalyzer</text>
<text text-anchor="middle" x="764.66" y="-191" font-family="Helvetica,sans-Serif" font-size="10.00">/janalyzer_parse_options.cpp</text>
</a>
</g>
</g>
<!-- Node2&#45;&gt;Node14 -->
<g id="edge13" class="edge">
<title>Node2&#45;&gt;Node14</title>
<path fill="none" stroke="midnightblue" d="M1120.22,-276.99C1049.54,-267.42 943.6,-251.43 852.66,-231 844.9,-229.26 836.81,-227.22 828.83,-225.07"/>
<polygon fill="midnightblue" stroke="midnightblue" points="1120.01,-280.49 1130.38,-278.36 1120.94,-273.56 1120.01,-280.49"/>
</g>
<!-- Node4 -->
<g id="node4" class="node">
<title>Node4</title>
<g id="a_node4"><a xlink:href="custom__bitvector__analysis_8cpp.html" target="_top" xlink:title=" ">
<polygon fill="none" stroke="black" points="701.16,-95 701.16,-136 850.16,-136 850.16,-95 701.16,-95"/>
<text text-anchor="start" x="709.16" y="-124" font-family="Helvetica,sans-Serif" font-size="10.00">/home/runner/work/cbmc</text>
<text text-anchor="start" x="709.16" y="-113" font-family="Helvetica,sans-Serif" font-size="10.00">/cbmc/src/analyses/custom</text>
<text text-anchor="middle" x="775.66" y="-102" font-family="Helvetica,sans-Serif" font-size="10.00">_bitvector_analysis.cpp</text>
</a>
</g>
</g>
<!-- Node3&#45;&gt;Node4 -->
<g id="edge3" class="edge">
<title>Node3&#45;&gt;Node4</title>
<path fill="none" stroke="midnightblue" d="M500.95,-181.1C504.9,-180.01 508.82,-178.97 512.66,-178 591.32,-158.06 612.97,-161.81 691.66,-142 698.75,-140.21 706.14,-138.2 713.46,-136.11"/>
<polygon fill="midnightblue" stroke="midnightblue" points="499.78,-177.79 491.11,-183.87 501.68,-184.53 499.78,-177.79"/>
</g>
<!-- Node5 -->
<g id="node5" class="node">
<title>Node5</title>
<g id="a_node5"><a xlink:href="taint__analysis_8cpp.html" target="_top" xlink:title=" ">
<polygon fill="none" stroke="black" points="544.66,-95 544.66,-136 682.66,-136 682.66,-95 544.66,-95"/>
<text text-anchor="start" x="552.66" y="-124" font-family="Helvetica,sans-Serif" font-size="10.00">/home/runner/work/cbmc</text>
<text text-anchor="start" x="552.66" y="-113" font-family="Helvetica,sans-Serif" font-size="10.00">/cbmc/src/goto&#45;analyzer</text>
<text text-anchor="middle" x="613.66" y="-102" font-family="Helvetica,sans-Serif" font-size="10.00">/taint_analysis.cpp</text>
</a>
</g>
</g>
<!-- Node3&#45;&gt;Node5 -->
<g id="edge4" class="edge">
<title>Node3&#45;&gt;Node5</title>
<path fill="none" stroke="midnightblue" d="M480.08,-179.66C509.02,-165.98 544.9,-149.01 572.19,-136.11"/>
<polygon fill="midnightblue" stroke="midnightblue" points="478.5,-176.54 470.95,-183.98 481.49,-182.87 478.5,-176.54"/>
</g>
<!-- Node6 -->
<g id="node6" class="node">
<title>Node6</title>
<g id="a_node6"><a xlink:href="goto__instrument__parse__options_8cpp.html" target="_top" xlink:title=" ">
<polygon fill="none" stroke="black" points="332.66,-95 332.66,-136 526.66,-136 526.66,-95 332.66,-95"/>
<text text-anchor="start" x="340.66" y="-124" font-family="Helvetica,sans-Serif" font-size="10.00">/home/runner/work/cbmc</text>
<text text-anchor="start" x="340.66" y="-113" font-family="Helvetica,sans-Serif" font-size="10.00">/cbmc/src/goto&#45;instrument</text>
<text text-anchor="middle" x="429.66" y="-102" font-family="Helvetica,sans-Serif" font-size="10.00">/goto_instrument_parse_options.cpp</text>
</a>
</g>
</g>
<!-- Node3&#45;&gt;Node6 -->
<g id="edge5" class="edge">
<title>Node3&#45;&gt;Node6</title>
<path fill="none" stroke="midnightblue" d="M429.66,-173.44C429.66,-161.1 429.66,-147.16 429.66,-136.16"/>
<polygon fill="midnightblue" stroke="midnightblue" points="426.16,-173.76 429.66,-183.76 433.16,-173.76 426.16,-173.76"/>
</g>
<!-- Node15&#45;&gt;Node6 -->
<g id="edge18" class="edge">
<title>Node15&#45;&gt;Node6</title>
<path fill="none" stroke="midnightblue" d="M296.08,-179.66C325.02,-165.98 360.9,-149.01 388.19,-136.11"/>
<polygon fill="midnightblue" stroke="midnightblue" points="294.5,-176.54 286.95,-183.98 297.49,-182.87 294.5,-176.54"/>
</g>
<!-- Node15&#45;&gt;Node9 -->
<g id="edge17" class="edge">
<title>Node15&#45;&gt;Node9</title>
<path fill="none" stroke="midnightblue" d="M166.58,-193.14C106.38,-183.43 30.7,-166.7 11.66,-142 -2.72,-123.35 -4.72,-105.93 11.66,-89 74.31,-24.23 1450.54,-25.79 1784.93,-27.13"/>
<polygon fill="midnightblue" stroke="midnightblue" points="166.06,-196.6 176.48,-194.69 167.15,-189.68 166.06,-196.6"/>
</g>
<!-- Node16 -->
<g id="node16" class="node">
<title>Node16</title>
<g id="a_node16"><a xlink:href="local__bitvector__analysis_8cpp.html" target="_top" xlink:title=" ">
<polygon fill="none" stroke="black" points="20.66,-95 20.66,-136 158.66,-136 158.66,-95 20.66,-95"/>
<text text-anchor="start" x="28.66" y="-124" font-family="Helvetica,sans-Serif" font-size="10.00">/home/runner/work/cbmc</text>
<text text-anchor="start" x="28.66" y="-113" font-family="Helvetica,sans-Serif" font-size="10.00">/cbmc/src/analyses/local</text>
<text text-anchor="middle" x="89.66" y="-102" font-family="Helvetica,sans-Serif" font-size="10.00">_bitvector_analysis.cpp</text>
</a>
</g>
</g>
<!-- Node15&#45;&gt;Node16 -->
<g id="edge15" class="edge">
<title>Node15&#45;&gt;Node16</title>
<path fill="none" stroke="midnightblue" d="M201.63,-178.94C177.33,-165.39 147.56,-148.79 124.82,-136.11"/>
<polygon fill="midnightblue" stroke="midnightblue" points="200.21,-182.16 210.65,-183.98 203.62,-176.05 200.21,-182.16"/>
</g>
<!-- Node17 -->
<g id="node17" class="node">
<title>Node17</title>
<g id="a_node17"><a xlink:href="goto__check__c_8cpp.html" target="_top" xlink:title=" ">
<polygon fill="none" stroke="black" points="176.66,-95 176.66,-136 314.66,-136 314.66,-95 176.66,-95"/>
<text text-anchor="start" x="184.66" y="-124" font-family="Helvetica,sans-Serif" font-size="10.00">/home/runner/work/cbmc</text>
<text text-anchor="start" x="184.66" y="-113" font-family="Helvetica,sans-Serif" font-size="10.00">/cbmc/src/ansi&#45;c/goto</text>
<text text-anchor="middle" x="245.66" y="-102" font-family="Helvetica,sans-Serif" font-size="10.00">_check_c.cpp</text>
</a>
</g>
</g>
<!-- Node15&#45;&gt;Node17 -->
<g id="edge16" class="edge">
<title>Node15&#45;&gt;Node17</title>
<path fill="none" stroke="midnightblue" d="M245.66,-173.44C245.66,-161.1 245.66,-147.16 245.66,-136.16"/>
<polygon fill="midnightblue" stroke="midnightblue" points="242.16,-173.76 245.66,-183.76 249.16,-173.76 242.16,-173.76"/>
</g>
<!-- Node19&#45;&gt;Node9 -->
<g id="edge21" class="edge">
<title>Node19&#45;&gt;Node9</title>
<path fill="none" stroke="midnightblue" d="M1793.48,-176.03C1785.91,-166.05 1778.58,-154.21 1774.66,-142 1767.46,-119.57 1764.06,-110.04 1774.66,-89 1783.61,-71.22 1800.41,-57.3 1816.56,-47.23"/>
<polygon fill="midnightblue" stroke="midnightblue" points="1790.84,-178.33 1799.83,-183.94 1796.3,-173.95 1790.84,-178.33"/>
</g>
<!-- Node20 -->
<g id="node20" class="node">
<title>Node20</title>
<g id="a_node20"><a xlink:href="instrument__spec__assigns_8cpp.html" target="_top" xlink:title=" ">
<polygon fill="none" stroke="black" points="1783.16,-89.5 1783.16,-141.5 1932.16,-141.5 1932.16,-89.5 1783.16,-89.5"/>
<text text-anchor="start" x="1791.16" y="-129.5" font-family="Helvetica,sans-Serif" font-size="10.00">/home/runner/work/cbmc</text>
<text text-anchor="start" x="1791.16" y="-118.5" font-family="Helvetica,sans-Serif" font-size="10.00">/cbmc/src/goto&#45;instrument</text>
<text text-anchor="start" x="1791.16" y="-107.5" font-family="Helvetica,sans-Serif" font-size="10.00">/contracts/instrument_spec</text>
<text text-anchor="middle" x="1857.66" y="-96.5" font-family="Helvetica,sans-Serif" font-size="10.00">_assigns.cpp</text>
</a>
</g>
</g>
<!-- Node19&#45;&gt;Node20 -->
<g id="edge22" class="edge">
<title>Node19&#45;&gt;Node20</title>
<path fill="none" stroke="midnightblue" d="M1831.67,-174.48C1836.41,-163.9 1841.74,-152.02 1846.32,-141.79"/>
<polygon fill="midnightblue" stroke="midnightblue" points="1828.41,-173.2 1827.51,-183.76 1834.79,-176.06 1828.41,-173.2"/>
</g>
<!-- Node21&#45;&gt;Node9 -->
<g id="edge32" class="edge">
<title>Node21&#45;&gt;Node9</title>
<path fill="none" stroke="midnightblue" d="M2010.43,-261.96C1998.2,-253.58 1986.14,-243.21 1977.66,-231 1940.52,-177.53 1978.08,-142.97 1941.66,-89 1930.03,-71.77 1911.9,-57.61 1895.46,-47.24"/>
<polygon fill="midnightblue" stroke="midnightblue" points="2008.59,-264.94 2018.89,-267.44 2012.4,-259.06 2008.59,-264.94"/>
</g>
<!-- Node21&#45;&gt;Node20 -->
<g id="edge34" class="edge">
<title>Node21&#45;&gt;Node20</title>
<path fill="none" stroke="midnightblue" d="M1996.16,-263.14C1978.15,-254.58 1959.19,-243.82 1943.66,-231 1935.27,-224.08 1898.16,-173.11 1875.52,-141.56"/>
<polygon fill="midnightblue" stroke="midnightblue" points="1994.92,-266.42 2005.47,-267.41 1997.84,-260.06 1994.92,-266.42"/>
</g>
<!-- Node22 -->
<g id="node22" class="node">
<title>Node22</title>
<g id="a_node22"><a xlink:href="instrument__spec__assigns_8h.html" target="_top" xlink:title=" ">
<polygon fill="none" stroke="black" points="2149.16,-178.5 2149.16,-230.5 2298.16,-230.5 2298.16,-178.5 2149.16,-178.5"/>
<text text-anchor="start" x="2157.16" y="-218.5" font-family="Helvetica,sans-Serif" font-size="10.00">/home/runner/work/cbmc</text>
<text text-anchor="start" x="2157.16" y="-207.5" font-family="Helvetica,sans-Serif" font-size="10.00">/cbmc/src/goto&#45;instrument</text>
<text text-anchor="start" x="2157.16" y="-196.5" font-family="Helvetica,sans-Serif" font-size="10.00">/contracts/instrument_spec</text>
<text text-anchor="middle" x="2223.66" y="-185.5" font-family="Helvetica,sans-Serif" font-size="10.00">_assigns.h</text>
</a>
</g>
</g>
<!-- Node21&#45;&gt;Node22 -->
<g id="edge24" class="edge">
<title>Node21&#45;&gt;Node22</title>
<path fill="none" stroke="midnightblue" d="M2107.4,-262.93C2128.02,-252.74 2152.05,-240.87 2172.89,-230.58"/>
<polygon fill="midnightblue" stroke="midnightblue" points="2105.6,-259.91 2098.18,-267.48 2108.7,-266.19 2105.6,-259.91"/>
</g>
<!-- Node24 -->
<g id="node24" class="node">
<title>Node24</title>
<g id="a_node24"><a xlink:href="havoc__assigns__clause__targets_8cpp.html" target="_top" xlink:title=" ">
<polygon fill="none" stroke="black" points="2131.16,-0.5 2131.16,-52.5 2276.16,-52.5 2276.16,-0.5 2131.16,-0.5"/>
<text text-anchor="start" x="2139.16" y="-40.5" font-family="Helvetica,sans-Serif" font-size="10.00">/home/runner/work/cbmc</text>
<text text-anchor="start" x="2139.16" y="-29.5" font-family="Helvetica,sans-Serif" font-size="10.00">/cbmc/src/goto&#45;instrument</text>
<text text-anchor="start" x="2139.16" y="-18.5" font-family="Helvetica,sans-Serif" font-size="10.00">/contracts/havoc_assigns</text>
<text text-anchor="middle" x="2203.66" y="-7.5" font-family="Helvetica,sans-Serif" font-size="10.00">_clause_targets.cpp</text>
</a>
</g>
</g>
<!-- Node21&#45;&gt;Node24 -->
<g id="edge33" class="edge">
<title>Node21&#45;&gt;Node24</title>
<path fill="none" stroke="midnightblue" d="M2141.41,-284.97C2234.88,-277.42 2379.94,-248.25 2425.66,-142 2434.97,-120.36 2439.92,-107.75 2425.66,-89 2407.44,-65.05 2333.92,-48 2276.41,-38.02"/>
<polygon fill="midnightblue" stroke="midnightblue" points="2141.12,-281.48 2131.4,-285.71 2141.63,-288.46 2141.12,-281.48"/>
</g>
<!-- Node25 -->
<g id="node25" class="node">
<title>Node25</title>
<g id="a_node25"><a xlink:href="memory__predicates_8cpp.html" target="_top" xlink:title=" ">
<polygon fill="none" stroke="black" points="2231.16,-95 2231.16,-136 2416.16,-136 2416.16,-95 2231.16,-95"/>
<text text-anchor="start" x="2239.16" y="-124" font-family="Helvetica,sans-Serif" font-size="10.00">/home/runner/work/cbmc</text>
<text text-anchor="start" x="2239.16" y="-113" font-family="Helvetica,sans-Serif" font-size="10.00">/cbmc/src/goto&#45;instrument</text>
<text text-anchor="middle" x="2323.66" y="-102" font-family="Helvetica,sans-Serif" font-size="10.00">/contracts/memory_predicates.cpp</text>
</a>
</g>
</g>
<!-- Node21&#45;&gt;Node25 -->
<g id="edge35" class="edge">
<title>Node21&#45;&gt;Node25</title>
<path fill="none" stroke="midnightblue" d="M2141.35,-278.52C2204.84,-270.23 2285.33,-255.25 2307.66,-231 2331.32,-205.31 2330.21,-161.65 2327.07,-136.31"/>
<polygon fill="midnightblue" stroke="midnightblue" points="2140.79,-275.06 2131.31,-279.79 2141.67,-282.01 2140.79,-275.06"/>
</g>
<!-- Node26 -->
<g id="node26" class="node">
<title>Node26</title>
<g id="a_node26"><a xlink:href="utils_8cpp.html" target="_top" xlink:title=" ">
<polygon fill="none" stroke="black" points="1986.16,-184 1986.16,-225 2131.16,-225 2131.16,-184 1986.16,-184"/>
<text text-anchor="start" x="1994.16" y="-213" font-family="Helvetica,sans-Serif" font-size="10.00">/home/runner/work/cbmc</text>
<text text-anchor="start" x="1994.16" y="-202" font-family="Helvetica,sans-Serif" font-size="10.00">/cbmc/src/goto&#45;instrument</text>
<text text-anchor="middle" x="2058.66" y="-191" font-family="Helvetica,sans-Serif" font-size="10.00">/contracts/utils.cpp</text>
</a>
</g>
</g>
<!-- Node21&#45;&gt;Node26 -->
<g id="edge36" class="edge">
<title>Node21&#45;&gt;Node26</title>
<path fill="none" stroke="midnightblue" d="M2058.66,-257.06C2058.66,-246.38 2058.66,-234.63 2058.66,-225.05"/>
<polygon fill="midnightblue" stroke="midnightblue" points="2055.16,-257.27 2058.66,-267.27 2062.16,-257.27 2055.16,-257.27"/>
</g>
<!-- Node22&#45;&gt;Node9 -->
<g id="edge28" class="edge">
<title>Node22&#45;&gt;Node9</title>
<path fill="none" stroke="midnightblue" d="M2139.33,-177.73C2085.6,-162.83 2065.8,-169.94 2021.66,-142 1994.81,-125 1998.74,-108.51 1973.66,-89 1952.16,-72.27 1925.46,-57.76 1903.09,-47.04"/>
<polygon fill="midnightblue" stroke="midnightblue" points="2138.43,-181.11 2149.01,-180.55 2140.39,-174.39 2138.43,-181.11"/>
</g>
<!-- Node22&#45;&gt;Node20 -->
<g id="edge30" class="edge">
<title>Node22&#45;&gt;Node20</title>
<path fill="none" stroke="midnightblue" d="M2139.41,-177.74C2063.9,-158.23 1987.2,-141.97 1932.25,-130.93"/>
<polygon fill="midnightblue" stroke="midnightblue" points="2138.53,-181.13 2149.09,-180.27 2140.29,-174.36 2138.53,-181.13"/>
</g>
<!-- Node23 -->
<g id="node23" class="node">
<title>Node23</title>
<g id="a_node23"><a xlink:href="havoc__assigns__clause__targets_8h.html" target="_top" xlink:title=" ">
<polygon fill="none" stroke="black" points="2030.16,-89.5 2030.16,-141.5 2175.16,-141.5 2175.16,-89.5 2030.16,-89.5"/>
<text text-anchor="start" x="2038.16" y="-129.5" font-family="Helvetica,sans-Serif" font-size="10.00">/home/runner/work/cbmc</text>
<text text-anchor="start" x="2038.16" y="-118.5" font-family="Helvetica,sans-Serif" font-size="10.00">/cbmc/src/goto&#45;instrument</text>
<text text-anchor="start" x="2038.16" y="-107.5" font-family="Helvetica,sans-Serif" font-size="10.00">/contracts/havoc_assigns</text>
<text text-anchor="middle" x="2102.66" y="-96.5" font-family="Helvetica,sans-Serif" font-size="10.00">_clause_targets.h</text>
</a>
</g>
</g>
<!-- Node22&#45;&gt;Node23 -->
<g id="edge25" class="edge">
<title>Node22&#45;&gt;Node23</title>
<path fill="none" stroke="midnightblue" d="M2180.15,-172.22C2166.17,-162.16 2150.87,-151.16 2137.58,-141.61"/>
<polygon fill="midnightblue" stroke="midnightblue" points="2178.5,-175.34 2188.66,-178.34 2182.59,-169.66 2178.5,-175.34"/>
</g>
<!-- Node22&#45;&gt;Node24 -->
<g id="edge29" class="edge">
<title>Node22&#45;&gt;Node24</title>
<path fill="none" stroke="midnightblue" d="M2219.65,-168.25C2215.77,-134.04 2209.96,-82.97 2206.52,-52.67"/>
<polygon fill="midnightblue" stroke="midnightblue" points="2216.19,-168.74 2220.79,-178.28 2223.14,-167.95 2216.19,-168.74"/>
</g>
<!-- Node22&#45;&gt;Node25 -->
<g id="edge31" class="edge">
<title>Node22&#45;&gt;Node25</title>
<path fill="none" stroke="midnightblue" d="M2260.42,-171.51C2274.08,-159.64 2289.15,-146.53 2301.15,-136.08"/>
<polygon fill="midnightblue" stroke="midnightblue" points="2257.83,-169.13 2252.58,-178.34 2262.43,-174.41 2257.83,-169.13"/>
</g>
<!-- Node23&#45;&gt;Node9 -->
<g id="edge26" class="edge">
<title>Node23&#45;&gt;Node9</title>
<path fill="none" stroke="midnightblue" d="M2022.65,-86.09C1986.76,-73.34 1945.32,-58.63 1912.95,-47.13"/>
<polygon fill="midnightblue" stroke="midnightblue" points="2021.53,-89.4 2032.12,-89.45 2023.87,-82.81 2021.53,-89.4"/>
</g>
<!-- Node23&#45;&gt;Node24 -->
<g id="edge27" class="edge">
<title>Node23&#45;&gt;Node24</title>
<path fill="none" stroke="midnightblue" d="M2139.64,-82.65C2151.13,-72.75 2163.63,-61.98 2174.51,-52.61"/>
<polygon fill="midnightblue" stroke="midnightblue" points="2137.17,-80.16 2131.87,-89.34 2141.73,-85.46 2137.17,-80.16"/>
</g>
</g>
</svg>
