<?xml version="1.0" encoding="UTF-8" standalone="no"?>
<!DOCTYPE svg PUBLIC "-//W3C//DTD SVG 1.1//EN"
 "http://www.w3.org/Graphics/SVG/1.1/DTD/svg11.dtd">
<!-- Generated by graphviz version 2.43.0 (0)
 -->
<!-- Title: /home/runner/work/cbmc/cbmc/src/goto&#45;programs/loop_ids.h Pages: 1 -->
<svg width="1156pt" height="484pt"
 viewBox="0.00 0.00 1156.00 484.00" xmlns="http://www.w3.org/2000/svg" xmlns:xlink="http://www.w3.org/1999/xlink">
<g id="graph0" class="graph" transform="scale(1 1) rotate(0) translate(4 480)">
<title>/home/runner/work/cbmc/cbmc/src/goto&#45;programs/loop_ids.h</title>
<!-- Node1 -->
<g id="node1" class="node">
<title>Node1</title>
<g id="a_node1"><a xlink:title=" ">
<polygon fill="#bfbfbf" stroke="black" points="544,-434.5 544,-475.5 682,-475.5 682,-434.5 544,-434.5"/>
<text text-anchor="start" x="552" y="-463.5" font-family="Helvetica,sans-Serif" font-size="10.00">/home/runner/work/cbmc</text>
<text text-anchor="start" x="552" y="-452.5" font-family="Helvetica,sans-Serif" font-size="10.00">/cbmc/src/goto&#45;programs</text>
<text text-anchor="middle" x="613" y="-441.5" font-family="Helvetica,sans-Serif" font-size="10.00">/loop_ids.h</text>
</a>
</g>
</g>
<!-- Node2 -->
<g id="node2" class="node">
<title>Node2</title>
<g id="a_node2"><a xlink:href="cbmc__parse__options_8cpp.html" target="_top" xlink:title=" ">
<polygon fill="none" stroke="black" points="0,-351 0,-392 154,-392 154,-351 0,-351"/>
<text text-anchor="start" x="8" y="-380" font-family="Helvetica,sans-Serif" font-size="10.00">/home/runner/work/cbmc</text>
<text text-anchor="start" x="8" y="-369" font-family="Helvetica,sans-Serif" font-size="10.00">/cbmc/src/cbmc/cbmc_parse</text>
<text text-anchor="middle" x="77" y="-358" font-family="Helvetica,sans-Serif" font-size="10.00">_options.cpp</text>
</a>
</g>
</g>
<!-- Node1&#45;&gt;Node2 -->
<g id="edge1" class="edge">
<title>Node1&#45;&gt;Node2</title>
<path fill="none" stroke="midnightblue" d="M533.63,-448.1C443.22,-440.45 291.37,-424.83 163,-398 155.07,-396.34 146.82,-394.31 138.7,-392.12"/>
<polygon fill="midnightblue" stroke="midnightblue" points="533.55,-451.6 543.81,-448.94 534.13,-444.63 533.55,-451.6"/>
</g>
<!-- Node3 -->
<g id="node3" class="node">
<title>Node3</title>
<g id="a_node3"><a xlink:href="cprover__parse__options_8cpp.html" target="_top" xlink:title=" ">
<polygon fill="none" stroke="black" points="172.5,-351 172.5,-392 315.5,-392 315.5,-351 172.5,-351"/>
<text text-anchor="start" x="180.5" y="-380" font-family="Helvetica,sans-Serif" font-size="10.00">/home/runner/work/cbmc</text>
<text text-anchor="start" x="180.5" y="-369" font-family="Helvetica,sans-Serif" font-size="10.00">/cbmc/src/cprover/cprover</text>
<text text-anchor="middle" x="244" y="-358" font-family="Helvetica,sans-Serif" font-size="10.00">_parse_options.cpp</text>
</a>
</g>
</g>
<!-- Node1&#45;&gt;Node3 -->
<g id="edge2" class="edge">
<title>Node1&#45;&gt;Node3</title>
<path fill="none" stroke="midnightblue" d="M533.99,-441.12C475.82,-431.03 395.01,-415.77 325,-398 318,-396.22 310.71,-394.19 303.5,-392.07"/>
<polygon fill="midnightblue" stroke="midnightblue" points="533.4,-444.57 543.85,-442.81 534.59,-437.67 533.4,-444.57"/>
</g>
<!-- Node4 -->
<g id="node4" class="node">
<title>Node4</title>
<g id="a_node4"><a xlink:href="goto__diff__parse__options_8cpp.html" target="_top" xlink:title=" ">
<polygon fill="none" stroke="black" points="334,-351 334,-392 472,-392 472,-351 334,-351"/>
<text text-anchor="start" x="342" y="-380" font-family="Helvetica,sans-Serif" font-size="10.00">/home/runner/work/cbmc</text>
<text text-anchor="start" x="342" y="-369" font-family="Helvetica,sans-Serif" font-size="10.00">/cbmc/src/goto&#45;diff/goto</text>
<text text-anchor="middle" x="403" y="-358" font-family="Helvetica,sans-Serif" font-size="10.00">_diff_parse_options.cpp</text>
</a>
</g>
</g>
<!-- Node1&#45;&gt;Node4 -->
<g id="edge3" class="edge">
<title>Node1&#45;&gt;Node4</title>
<path fill="none" stroke="midnightblue" d="M553.13,-430.77C521.56,-418.51 483.27,-403.65 453.25,-392"/>
<polygon fill="midnightblue" stroke="midnightblue" points="552.11,-434.12 562.7,-434.48 554.64,-427.6 552.11,-434.12"/>
</g>
<!-- Node5 -->
<g id="node5" class="node">
<title>Node5</title>
<g id="a_node5"><a xlink:href="synthesizer__utils_8h.html" target="_top" xlink:title=" ">
<polygon fill="none" stroke="black" points="490.5,-345.5 490.5,-397.5 635.5,-397.5 635.5,-345.5 490.5,-345.5"/>
<text text-anchor="start" x="498.5" y="-385.5" font-family="Helvetica,sans-Serif" font-size="10.00">/home/runner/work/cbmc</text>
<text text-anchor="start" x="498.5" y="-374.5" font-family="Helvetica,sans-Serif" font-size="10.00">/cbmc/src/goto&#45;instrument</text>
<text text-anchor="start" x="498.5" y="-363.5" font-family="Helvetica,sans-Serif" font-size="10.00">/synthesizer/synthesizer</text>
<text text-anchor="middle" x="563" y="-352.5" font-family="Helvetica,sans-Serif" font-size="10.00">_utils.h</text>
</a>
</g>
</g>
<!-- Node1&#45;&gt;Node5 -->
<g id="edge4" class="edge">
<title>Node1&#45;&gt;Node5</title>
<path fill="none" stroke="midnightblue" d="M595.55,-425.55C589.96,-416.45 583.83,-406.45 578.4,-397.61"/>
<polygon fill="midnightblue" stroke="midnightblue" points="592.68,-427.58 600.9,-434.27 598.65,-423.92 592.68,-427.58"/>
</g>
<!-- Node11 -->
<g id="node11" class="node">
<title>Node11</title>
<g id="a_node11"><a xlink:href="goto__instrument__parse__options_8cpp.html" target="_top" xlink:title=" ">
<polygon fill="none" stroke="black" points="537,-0.5 537,-41.5 731,-41.5 731,-0.5 537,-0.5"/>
<text text-anchor="start" x="545" y="-29.5" font-family="Helvetica,sans-Serif" font-size="10.00">/home/runner/work/cbmc</text>
<text text-anchor="start" x="545" y="-18.5" font-family="Helvetica,sans-Serif" font-size="10.00">/cbmc/src/goto&#45;instrument</text>
<text text-anchor="middle" x="634" y="-7.5" font-family="Helvetica,sans-Serif" font-size="10.00">/goto_instrument_parse_options.cpp</text>
</a>
</g>
</g>
<!-- Node1&#45;&gt;Node11 -->
<g id="edge13" class="edge">
<title>Node1&#45;&gt;Node11</title>
<path fill="none" stroke="midnightblue" d="M631.85,-425.55C636.79,-416.99 641.66,-407.37 645,-398 662.29,-349.4 664,-335.08 664,-283.5 664,-283.5 664,-283.5 664,-192.5 664,-137.2 648.5,-73.31 639.78,-41.75"/>
<polygon fill="midnightblue" stroke="midnightblue" points="628.7,-423.99 626.52,-434.36 634.69,-427.61 628.7,-423.99"/>
</g>
<!-- Node14 -->
<g id="node14" class="node">
<title>Node14</title>
<g id="a_node14"><a xlink:href="loop__ids_8cpp.html" target="_top" xlink:title=" ">
<polygon fill="none" stroke="black" points="692,-351 692,-392 830,-392 830,-351 692,-351"/>
<text text-anchor="start" x="700" y="-380" font-family="Helvetica,sans-Serif" font-size="10.00">/home/runner/work/cbmc</text>
<text text-anchor="start" x="700" y="-369" font-family="Helvetica,sans-Serif" font-size="10.00">/cbmc/src/goto&#45;programs</text>
<text text-anchor="middle" x="761" y="-358" font-family="Helvetica,sans-Serif" font-size="10.00">/loop_ids.cpp</text>
</a>
</g>
</g>
<!-- Node1&#45;&gt;Node14 -->
<g id="edge14" class="edge">
<title>Node1&#45;&gt;Node14</title>
<path fill="none" stroke="midnightblue" d="M657.22,-429.65C679.07,-417.62 705.07,-403.3 725.58,-392"/>
<polygon fill="midnightblue" stroke="midnightblue" points="655.52,-426.59 648.45,-434.48 658.9,-432.72 655.52,-426.59"/>
</g>
<!-- Node15 -->
<g id="node15" class="node">
<title>Node15</title>
<g id="a_node15"><a xlink:href="jbmc__parse__options_8cpp.html" target="_top" xlink:title=" ">
<polygon fill="none" stroke="black" points="848,-351 848,-392 992,-392 992,-351 848,-351"/>
<text text-anchor="start" x="856" y="-380" font-family="Helvetica,sans-Serif" font-size="10.00">/home/runner/work/cbmc</text>
<text text-anchor="start" x="856" y="-369" font-family="Helvetica,sans-Serif" font-size="10.00">/cbmc/jbmc/src/jbmc/jbmc</text>
<text text-anchor="middle" x="920" y="-358" font-family="Helvetica,sans-Serif" font-size="10.00">_parse_options.cpp</text>
</a>
</g>
</g>
<!-- Node1&#45;&gt;Node15 -->
<g id="edge15" class="edge">
<title>Node1&#45;&gt;Node15</title>
<path fill="none" stroke="midnightblue" d="M691.99,-435.7C735.53,-425.29 790.44,-411.65 839,-398 845.53,-396.17 852.33,-394.17 859.09,-392.12"/>
<polygon fill="midnightblue" stroke="midnightblue" points="690.95,-432.35 682.03,-438.07 692.57,-439.16 690.95,-432.35"/>
</g>
<!-- Node16 -->
<g id="node16" class="node">
<title>Node16</title>
<g id="a_node16"><a xlink:href="jdiff__parse__options_8cpp.html" target="_top" xlink:title=" ">
<polygon fill="none" stroke="black" points="1010,-351 1010,-392 1148,-392 1148,-351 1010,-351"/>
<text text-anchor="start" x="1018" y="-380" font-family="Helvetica,sans-Serif" font-size="10.00">/home/runner/work/cbmc</text>
<text text-anchor="start" x="1018" y="-369" font-family="Helvetica,sans-Serif" font-size="10.00">/cbmc/jbmc/src/jdiff/jdiff</text>
<text text-anchor="middle" x="1079" y="-358" font-family="Helvetica,sans-Serif" font-size="10.00">_parse_options.cpp</text>
</a>
</g>
</g>
<!-- Node1&#45;&gt;Node16 -->
<g id="edge16" class="edge">
<title>Node1&#45;&gt;Node16</title>
<path fill="none" stroke="midnightblue" d="M692.36,-446.6C771.31,-438.29 895.56,-422.65 1001,-398 1008.21,-396.31 1015.72,-394.26 1023.09,-392.06"/>
<polygon fill="midnightblue" stroke="midnightblue" points="691.59,-443.16 682,-447.67 692.31,-450.12 691.59,-443.16"/>
</g>
<!-- Node6 -->
<g id="node6" class="node">
<title>Node6</title>
<g id="a_node6"><a xlink:href="loop__invariant__synthesizer__base_8h.html" target="_top" xlink:title=" ">
<polygon fill="none" stroke="black" points="323.5,-256.5 323.5,-308.5 472.5,-308.5 472.5,-256.5 323.5,-256.5"/>
<text text-anchor="start" x="331.5" y="-296.5" font-family="Helvetica,sans-Serif" font-size="10.00">/home/runner/work/cbmc</text>
<text text-anchor="start" x="331.5" y="-285.5" font-family="Helvetica,sans-Serif" font-size="10.00">/cbmc/src/goto&#45;instrument</text>
<text text-anchor="start" x="331.5" y="-274.5" font-family="Helvetica,sans-Serif" font-size="10.00">/synthesizer/loop_invariant</text>
<text text-anchor="middle" x="398" y="-263.5" font-family="Helvetica,sans-Serif" font-size="10.00">_synthesizer_base.h</text>
</a>
</g>
</g>
<!-- Node5&#45;&gt;Node6 -->
<g id="edge5" class="edge">
<title>Node5&#45;&gt;Node6</title>
<path fill="none" stroke="midnightblue" d="M506.36,-340.64C486.58,-330.2 464.59,-318.61 445.62,-308.61"/>
<polygon fill="midnightblue" stroke="midnightblue" points="504.8,-343.77 515.28,-345.34 508.06,-337.58 504.8,-343.77"/>
</g>
<!-- Node13 -->
<g id="node13" class="node">
<title>Node13</title>
<g id="a_node13"><a xlink:href="synthesizer__utils_8cpp.html" target="_top" xlink:title=" ">
<polygon fill="none" stroke="black" points="490.5,-256.5 490.5,-308.5 635.5,-308.5 635.5,-256.5 490.5,-256.5"/>
<text text-anchor="start" x="498.5" y="-296.5" font-family="Helvetica,sans-Serif" font-size="10.00">/home/runner/work/cbmc</text>
<text text-anchor="start" x="498.5" y="-285.5" font-family="Helvetica,sans-Serif" font-size="10.00">/cbmc/src/goto&#45;instrument</text>
<text text-anchor="start" x="498.5" y="-274.5" font-family="Helvetica,sans-Serif" font-size="10.00">/synthesizer/synthesizer</text>
<text text-anchor="middle" x="563" y="-263.5" font-family="Helvetica,sans-Serif" font-size="10.00">_utils.cpp</text>
</a>
</g>
</g>
<!-- Node5&#45;&gt;Node13 -->
<g id="edge12" class="edge">
<title>Node5&#45;&gt;Node13</title>
<path fill="none" stroke="midnightblue" d="M563,-335.19C563,-326.28 563,-316.9 563,-308.61"/>
<polygon fill="midnightblue" stroke="midnightblue" points="559.5,-335.34 563,-345.34 566.5,-335.34 559.5,-335.34"/>
</g>
<!-- Node7 -->
<g id="node7" class="node">
<title>Node7</title>
<g id="a_node7"><a xlink:href="enumerative__loop__invariant__synthesizer_8h.html" target="_top" xlink:title=" ">
<polygon fill="none" stroke="black" points="317.5,-167.5 317.5,-219.5 478.5,-219.5 478.5,-167.5 317.5,-167.5"/>
<text text-anchor="start" x="325.5" y="-207.5" font-family="Helvetica,sans-Serif" font-size="10.00">/home/runner/work/cbmc</text>
<text text-anchor="start" x="325.5" y="-196.5" font-family="Helvetica,sans-Serif" font-size="10.00">/cbmc/src/goto&#45;instrument</text>
<text text-anchor="start" x="325.5" y="-185.5" font-family="Helvetica,sans-Serif" font-size="10.00">/synthesizer/enumerative</text>
<text text-anchor="middle" x="398" y="-174.5" font-family="Helvetica,sans-Serif" font-size="10.00">_loop_invariant_synthesizer.h</text>
</a>
</g>
</g>
<!-- Node6&#45;&gt;Node7 -->
<g id="edge6" class="edge">
<title>Node6&#45;&gt;Node7</title>
<path fill="none" stroke="midnightblue" d="M398,-246.19C398,-237.28 398,-227.9 398,-219.61"/>
<polygon fill="midnightblue" stroke="midnightblue" points="394.5,-246.34 398,-256.34 401.5,-246.34 394.5,-246.34"/>
</g>
<!-- Node8 -->
<g id="node8" class="node">
<title>Node8</title>
<g id="a_node8"><a xlink:href="goto__instrument__parse__options_8h.html" target="_top" xlink:title=" ">
<polygon fill="none" stroke="black" points="262,-84 262,-125 444,-125 444,-84 262,-84"/>
<text text-anchor="start" x="270" y="-113" font-family="Helvetica,sans-Serif" font-size="10.00">/home/runner/work/cbmc</text>
<text text-anchor="start" x="270" y="-102" font-family="Helvetica,sans-Serif" font-size="10.00">/cbmc/src/goto&#45;instrument</text>
<text text-anchor="middle" x="353" y="-91" font-family="Helvetica,sans-Serif" font-size="10.00">/goto_instrument_parse_options.h</text>
</a>
</g>
</g>
<!-- Node7&#45;&gt;Node8 -->
<g id="edge7" class="edge">
<title>Node7&#45;&gt;Node8</title>
<path fill="none" stroke="midnightblue" d="M380.24,-158.17C374.43,-146.93 368.18,-134.84 363.13,-125.08"/>
<polygon fill="midnightblue" stroke="midnightblue" points="377.28,-160.06 384.98,-167.34 383.5,-156.85 377.28,-160.06"/>
</g>
<!-- Node12 -->
<g id="node12" class="node">
<title>Node12</title>
<g id="a_node12"><a xlink:href="enumerative__loop__invariant__synthesizer_8cpp.html" target="_top" xlink:title=" ">
<polygon fill="none" stroke="black" points="462.5,-78.5 462.5,-130.5 635.5,-130.5 635.5,-78.5 462.5,-78.5"/>
<text text-anchor="start" x="470.5" y="-118.5" font-family="Helvetica,sans-Serif" font-size="10.00">/home/runner/work/cbmc</text>
<text text-anchor="start" x="470.5" y="-107.5" font-family="Helvetica,sans-Serif" font-size="10.00">/cbmc/src/goto&#45;instrument</text>
<text text-anchor="start" x="470.5" y="-96.5" font-family="Helvetica,sans-Serif" font-size="10.00">/synthesizer/enumerative</text>
<text text-anchor="middle" x="549" y="-85.5" font-family="Helvetica,sans-Serif" font-size="10.00">_loop_invariant_synthesizer.cpp</text>
</a>
</g>
</g>
<!-- Node7&#45;&gt;Node12 -->
<g id="edge11" class="edge">
<title>Node7&#45;&gt;Node12</title>
<path fill="none" stroke="midnightblue" d="M450.81,-162.07C468.66,-151.79 488.37,-140.43 505.42,-130.61"/>
<polygon fill="midnightblue" stroke="midnightblue" points="448.59,-159.31 441.68,-167.34 452.09,-165.38 448.59,-159.31"/>
</g>
<!-- Node9 -->
<g id="node9" class="node">
<title>Node9</title>
<g id="a_node9"><a xlink:href="goto__instrument__languages_8cpp.html" target="_top" xlink:title=" ">
<polygon fill="none" stroke="black" points="115,-0.5 115,-41.5 291,-41.5 291,-0.5 115,-0.5"/>
<text text-anchor="start" x="123" y="-29.5" font-family="Helvetica,sans-Serif" font-size="10.00">/home/runner/work/cbmc</text>
<text text-anchor="start" x="123" y="-18.5" font-family="Helvetica,sans-Serif" font-size="10.00">/cbmc/src/goto&#45;instrument</text>
<text text-anchor="middle" x="203" y="-7.5" font-family="Helvetica,sans-Serif" font-size="10.00">/goto_instrument_languages.cpp</text>
</a>
</g>
</g>
<!-- Node8&#45;&gt;Node9 -->
<g id="edge8" class="edge">
<title>Node8&#45;&gt;Node9</title>
<path fill="none" stroke="midnightblue" d="M308.18,-79.15C286.04,-67.12 259.69,-52.8 238.9,-41.5"/>
<polygon fill="midnightblue" stroke="midnightblue" points="306.61,-82.28 317.07,-83.98 309.96,-76.13 306.61,-82.28"/>
</g>
<!-- Node10 -->
<g id="node10" class="node">
<title>Node10</title>
<g id="a_node10"><a xlink:href="goto__instrument__main_8cpp.html" target="_top" xlink:title=" ">
<polygon fill="none" stroke="black" points="309,-0.5 309,-41.5 459,-41.5 459,-0.5 309,-0.5"/>
<text text-anchor="start" x="317" y="-29.5" font-family="Helvetica,sans-Serif" font-size="10.00">/home/runner/work/cbmc</text>
<text text-anchor="start" x="317" y="-18.5" font-family="Helvetica,sans-Serif" font-size="10.00">/cbmc/src/goto&#45;instrument</text>
<text text-anchor="middle" x="384" y="-7.5" font-family="Helvetica,sans-Serif" font-size="10.00">/goto_instrument_main.cpp</text>
</a>
</g>
</g>
<!-- Node8&#45;&gt;Node10 -->
<g id="edge9" class="edge">
<title>Node8&#45;&gt;Node10</title>
<path fill="none" stroke="midnightblue" d="M364.13,-74.23C368.26,-63.37 372.84,-51.33 376.56,-41.55"/>
<polygon fill="midnightblue" stroke="midnightblue" points="360.79,-73.18 360.5,-83.77 367.33,-75.67 360.79,-73.18"/>
</g>
<!-- Node8&#45;&gt;Node11 -->
<g id="edge10" class="edge">
<title>Node8&#45;&gt;Node11</title>
<path fill="none" stroke="midnightblue" d="M430.12,-81.13C472.92,-68.72 525.65,-53.43 566.76,-41.5"/>
<polygon fill="midnightblue" stroke="midnightblue" points="428.94,-77.83 420.31,-83.98 430.89,-84.55 428.94,-77.83"/>
</g>
</g>
</svg>
