<?xml version="1.0" encoding="UTF-8" standalone="no"?>
<!DOCTYPE svg PUBLIC "-//W3C//DTD SVG 1.1//EN"
 "http://www.w3.org/Graphics/SVG/1.1/DTD/svg11.dtd">
<!-- Generated by graphviz version 2.43.0 (0)
 -->
<!-- Title: /home/runner/work/cbmc/cbmc/src/goto&#45;symex/memory_model_tso.h Pages: 1 -->
<svg width="783pt" height="677pt"
 viewBox="0.00 0.00 783.00 677.00" xmlns="http://www.w3.org/2000/svg" xmlns:xlink="http://www.w3.org/1999/xlink">
<g id="graph0" class="graph" transform="scale(1 1) rotate(0) translate(4 673)">
<title>/home/runner/work/cbmc/cbmc/src/goto&#45;symex/memory_model_tso.h</title>
<!-- Node1 -->
<g id="node1" class="node">
<title>Node1</title>
<g id="a_node1"><a xlink:title=" ">
<polygon fill="#bfbfbf" stroke="black" points="393.5,-627.5 393.5,-668.5 562.5,-668.5 562.5,-627.5 393.5,-627.5"/>
<text text-anchor="start" x="401.5" y="-656.5" font-family="Helvetica,sans-Serif" font-size="10.00">/home/runner/work/cbmc</text>
<text text-anchor="start" x="401.5" y="-645.5" font-family="Helvetica,sans-Serif" font-size="10.00">/cbmc/src/goto&#45;symex/memory</text>
<text text-anchor="middle" x="478" y="-634.5" font-family="Helvetica,sans-Serif" font-size="10.00">_model_tso.h</text>
</a>
</g>
</g>
<!-- Node2 -->
<g id="node2" class="node">
<title>Node2</title>
<g id="a_node2"><a xlink:href="memory__model__sc_8h.html" target="_top" xlink:title=" ">
<polygon fill="none" stroke="black" points="418.5,-571.5 418.5,-590.5 537.5,-590.5 537.5,-571.5 418.5,-571.5"/>
<text text-anchor="middle" x="478" y="-578.5" font-family="Helvetica,sans-Serif" font-size="10.00">memory_model_sc.h</text>
</a>
</g>
</g>
<!-- Node1&#45;&gt;Node2 -->
<g id="edge1" class="edge">
<title>Node1&#45;&gt;Node2</title>
<path fill="none" stroke="midnightblue" d="M478,-627.5C478,-619.07 478,-609.24 478,-600.87"/>
<polygon fill="midnightblue" stroke="midnightblue" points="481.5,-600.65 478,-590.65 474.5,-600.65 481.5,-600.65"/>
</g>
<!-- Node3 -->
<g id="node3" class="node">
<title>Node3</title>
<g id="a_node3"><a xlink:href="memory__model_8h.html" target="_top" xlink:title=" ">
<polygon fill="none" stroke="black" points="426.5,-515.5 426.5,-534.5 529.5,-534.5 529.5,-515.5 426.5,-515.5"/>
<text text-anchor="middle" x="478" y="-522.5" font-family="Helvetica,sans-Serif" font-size="10.00">memory_model.h</text>
</a>
</g>
</g>
<!-- Node2&#45;&gt;Node3 -->
<g id="edge2" class="edge">
<title>Node2&#45;&gt;Node3</title>
<path fill="none" stroke="midnightblue" d="M478,-571.08C478,-564.01 478,-553.86 478,-544.99"/>
<polygon fill="midnightblue" stroke="midnightblue" points="481.5,-544.75 478,-534.75 474.5,-544.75 481.5,-544.75"/>
</g>
<!-- Node4 -->
<g id="node4" class="node">
<title>Node4</title>
<g id="a_node4"><a xlink:href="partial__order__concurrency_8h.html" target="_top" xlink:title=" ">
<polygon fill="none" stroke="black" points="402.5,-459.5 402.5,-478.5 553.5,-478.5 553.5,-459.5 402.5,-459.5"/>
<text text-anchor="middle" x="478" y="-466.5" font-family="Helvetica,sans-Serif" font-size="10.00">partial_order_concurrency.h</text>
</a>
</g>
</g>
<!-- Node3&#45;&gt;Node4 -->
<g id="edge3" class="edge">
<title>Node3&#45;&gt;Node4</title>
<path fill="none" stroke="midnightblue" d="M478,-515.08C478,-508.01 478,-497.86 478,-488.99"/>
<polygon fill="midnightblue" stroke="midnightblue" points="481.5,-488.75 478,-478.75 474.5,-488.75 481.5,-488.75"/>
</g>
<!-- Node5 -->
<g id="node5" class="node">
<title>Node5</title>
<g id="a_node5"><a xlink:href="symex__target__equation_8h.html" target="_top" xlink:title=" ">
<polygon fill="none" stroke="black" points="407.5,-403.5 407.5,-422.5 548.5,-422.5 548.5,-403.5 407.5,-403.5"/>
<text text-anchor="middle" x="478" y="-410.5" font-family="Helvetica,sans-Serif" font-size="10.00">symex_target_equation.h</text>
</a>
</g>
</g>
<!-- Node4&#45;&gt;Node5 -->
<g id="edge4" class="edge">
<title>Node4&#45;&gt;Node5</title>
<path fill="none" stroke="midnightblue" d="M478,-459.08C478,-452.01 478,-441.86 478,-432.99"/>
<polygon fill="midnightblue" stroke="midnightblue" points="481.5,-432.75 478,-422.75 474.5,-432.75 481.5,-432.75"/>
</g>
<!-- Node6 -->
<g id="node6" class="node">
<title>Node6</title>
<g id="a_node6"><a xlink:title=" ">
<polygon fill="none" stroke="#bfbfbf" points="0,-347.5 0,-366.5 64,-366.5 64,-347.5 0,-347.5"/>
<text text-anchor="middle" x="32" y="-354.5" font-family="Helvetica,sans-Serif" font-size="10.00">algorithm</text>
</a>
</g>
</g>
<!-- Node5&#45;&gt;Node6 -->
<g id="edge5" class="edge">
<title>Node5&#45;&gt;Node6</title>
<path fill="none" stroke="midnightblue" d="M407.32,-405.8C327.21,-398.36 192.83,-384.66 78,-367 76.73,-366.81 75.45,-366.6 74.15,-366.39"/>
<polygon fill="midnightblue" stroke="midnightblue" points="74.57,-362.91 64.11,-364.63 73.36,-369.8 74.57,-362.91"/>
</g>
<!-- Node7 -->
<g id="node7" class="node">
<title>Node7</title>
<g id="a_node7"><a xlink:title=" ">
<polygon fill="none" stroke="#bfbfbf" points="153,-168.5 153,-187.5 201,-187.5 201,-168.5 153,-168.5"/>
<text text-anchor="middle" x="177" y="-175.5" font-family="Helvetica,sans-Serif" font-size="10.00">iosfwd</text>
</a>
</g>
</g>
<!-- Node5&#45;&gt;Node7 -->
<g id="edge6" class="edge">
<title>Node5&#45;&gt;Node7</title>
<path fill="none" stroke="midnightblue" d="M411.11,-403.46C315.28,-389.68 146.53,-359.11 111,-311 82.6,-272.55 130.66,-220.03 158.81,-194.37"/>
<polygon fill="midnightblue" stroke="midnightblue" points="161.3,-196.84 166.47,-187.6 156.66,-191.6 161.3,-196.84"/>
</g>
<!-- Node8 -->
<g id="node8" class="node">
<title>Node8</title>
<g id="a_node8"><a xlink:title=" ">
<polygon fill="none" stroke="#bfbfbf" points="743,-347.5 743,-366.5 775,-366.5 775,-347.5 743,-347.5"/>
<text text-anchor="middle" x="759" y="-354.5" font-family="Helvetica,sans-Serif" font-size="10.00">list</text>
</a>
</g>
</g>
<!-- Node5&#45;&gt;Node8 -->
<g id="edge7" class="edge">
<title>Node5&#45;&gt;Node8</title>
<path fill="none" stroke="midnightblue" d="M536.21,-403.49C587.33,-395.56 663.55,-382.63 729,-367 730.28,-366.69 731.58,-366.37 732.9,-366.02"/>
<polygon fill="midnightblue" stroke="midnightblue" points="734.23,-369.28 742.9,-363.2 732.32,-362.55 734.23,-369.28"/>
</g>
<!-- Node9 -->
<g id="node9" class="node">
<title>Node9</title>
<g id="a_node9"><a xlink:href="src_2util_2invariant_8h.html" target="_top" xlink:title=" ">
<polygon fill="none" stroke="black" points="524,-56.5 524,-75.5 612,-75.5 612,-56.5 524,-56.5"/>
<text text-anchor="middle" x="568" y="-63.5" font-family="Helvetica,sans-Serif" font-size="10.00">util/invariant.h</text>
</a>
</g>
</g>
<!-- Node5&#45;&gt;Node9 -->
<g id="edge8" class="edge">
<title>Node5&#45;&gt;Node9</title>
<path fill="none" stroke="midnightblue" d="M536.09,-403.47C594.83,-391.16 677,-362.21 677,-296.5 677,-296.5 677,-296.5 677,-177 677,-131.12 628.56,-97.53 596.27,-80.23"/>
<polygon fill="midnightblue" stroke="midnightblue" points="597.73,-77.04 587.24,-75.58 594.53,-83.27 597.73,-77.04"/>
</g>
<!-- Node14 -->
<g id="node14" class="node">
<title>Node14</title>
<g id="a_node14"><a xlink:href="merge__irep_8h.html" target="_top" xlink:title=" ">
<polygon fill="none" stroke="black" points="506,-347.5 506,-366.5 606,-366.5 606,-347.5 506,-347.5"/>
<text text-anchor="middle" x="556" y="-354.5" font-family="Helvetica,sans-Serif" font-size="10.00">util/merge_irep.h</text>
</a>
</g>
</g>
<!-- Node5&#45;&gt;Node14 -->
<g id="edge13" class="edge">
<title>Node5&#45;&gt;Node14</title>
<path fill="none" stroke="midnightblue" d="M490.53,-403.32C502.59,-394.98 521.03,-382.21 535.27,-372.35"/>
<polygon fill="midnightblue" stroke="midnightblue" points="537.27,-375.22 543.5,-366.65 533.28,-369.47 537.27,-375.22"/>
</g>
<!-- Node31 -->
<g id="node17" class="node">
<title>Node31</title>
<g id="a_node17"><a xlink:href="src_2util_2message_8h.html" target="_top" xlink:title=" ">
<polygon fill="none" stroke="black" points="351.5,-224.5 351.5,-243.5 440.5,-243.5 440.5,-224.5 351.5,-224.5"/>
<text text-anchor="middle" x="396" y="-231.5" font-family="Helvetica,sans-Serif" font-size="10.00">util/message.h</text>
</a>
</g>
</g>
<!-- Node5&#45;&gt;Node31 -->
<g id="edge18" class="edge">
<title>Node5&#45;&gt;Node31</title>
<path fill="none" stroke="midnightblue" d="M478.98,-403.2C481.02,-380.8 483.68,-320.54 459,-280 450.79,-266.51 436.85,-255.93 424.16,-248.42"/>
<polygon fill="midnightblue" stroke="midnightblue" points="425.69,-245.27 415.25,-243.5 422.31,-251.4 425.69,-245.27"/>
</g>
<!-- Node30 -->
<g id="node21" class="node">
<title>Node30</title>
<g id="a_node21"><a xlink:href="narrow_8h.html" target="_top" xlink:title=" ">
<polygon fill="none" stroke="black" points="705.5,-112.5 705.5,-131.5 764.5,-131.5 764.5,-112.5 705.5,-112.5"/>
<text text-anchor="middle" x="735" y="-119.5" font-family="Helvetica,sans-Serif" font-size="10.00">narrow.h</text>
</a>
</g>
</g>
<!-- Node5&#45;&gt;Node30 -->
<g id="edge29" class="edge">
<title>Node5&#45;&gt;Node30</title>
<path fill="none" stroke="midnightblue" d="M548.57,-404.64C602.15,-397.7 670.07,-385.56 691,-367 715.77,-345.04 715,-329.6 715,-296.5 715,-296.5 715,-296.5 715,-233 715,-200.44 723.59,-163.32 729.51,-141.59"/>
<polygon fill="midnightblue" stroke="midnightblue" points="732.94,-142.32 732.3,-131.74 726.21,-140.41 732.94,-142.32"/>
</g>
<!-- Node37 -->
<g id="node22" class="node">
<title>Node37</title>
<g id="a_node22"><a xlink:href="ssa__step_8h.html" target="_top" xlink:title=" ">
<polygon fill="none" stroke="black" points="302,-347.5 302,-366.5 370,-366.5 370,-347.5 302,-347.5"/>
<text text-anchor="middle" x="336" y="-354.5" font-family="Helvetica,sans-Serif" font-size="10.00">ssa_step.h</text>
</a>
</g>
</g>
<!-- Node5&#45;&gt;Node37 -->
<g id="edge32" class="edge">
<title>Node5&#45;&gt;Node37</title>
<path fill="none" stroke="midnightblue" d="M455.5,-403.44C431.92,-394.48 394.68,-380.31 368.04,-370.18"/>
<polygon fill="midnightblue" stroke="midnightblue" points="368.99,-366.8 358.4,-366.52 366.5,-373.34 368.99,-366.8"/>
</g>
<!-- Node62 -->
<g id="node25" class="node">
<title>Node62</title>
<g id="a_node25"><a xlink:href="symex__target_8h.html" target="_top" xlink:title=" ">
<polygon fill="none" stroke="red" points="356.5,-286 356.5,-305 449.5,-305 449.5,-286 356.5,-286"/>
<text text-anchor="middle" x="403" y="-293" font-family="Helvetica,sans-Serif" font-size="10.00">symex_target.h</text>
</a>
</g>
</g>
<!-- Node5&#45;&gt;Node62 -->
<g id="edge38" class="edge">
<title>Node5&#45;&gt;Node62</title>
<path fill="none" stroke="midnightblue" d="M472.36,-403.32C460.04,-384.34 430.5,-338.85 414.23,-313.79"/>
<polygon fill="midnightblue" stroke="midnightblue" points="417.08,-311.76 408.7,-305.28 411.21,-315.58 417.08,-311.76"/>
</g>
<!-- Node10 -->
<g id="node10" class="node">
<title>Node10</title>
<g id="a_node10"><a xlink:title=" ">
<polygon fill="none" stroke="#bfbfbf" points="543.5,-0.5 543.5,-19.5 592.5,-19.5 592.5,-0.5 543.5,-0.5"/>
<text text-anchor="middle" x="568" y="-7.5" font-family="Helvetica,sans-Serif" font-size="10.00">cstdlib</text>
</a>
</g>
</g>
<!-- Node9&#45;&gt;Node10 -->
<g id="edge9" class="edge">
<title>Node9&#45;&gt;Node10</title>
<path fill="none" stroke="midnightblue" d="M568,-56.08C568,-49.01 568,-38.86 568,-29.99"/>
<polygon fill="midnightblue" stroke="midnightblue" points="571.5,-29.75 568,-19.75 564.5,-29.75 571.5,-29.75"/>
</g>
<!-- Node11 -->
<g id="node11" class="node">
<title>Node11</title>
<g id="a_node11"><a xlink:title=" ">
<polygon fill="none" stroke="#bfbfbf" points="611,-0.5 611,-19.5 667,-19.5 667,-0.5 611,-0.5"/>
<text text-anchor="middle" x="639" y="-7.5" font-family="Helvetica,sans-Serif" font-size="10.00">sstream</text>
</a>
</g>
</g>
<!-- Node9&#45;&gt;Node11 -->
<g id="edge10" class="edge">
<title>Node9&#45;&gt;Node11</title>
<path fill="none" stroke="midnightblue" d="M579.41,-56.32C590.11,-48.18 606.34,-35.84 619.16,-26.09"/>
<polygon fill="midnightblue" stroke="midnightblue" points="621.54,-28.67 627.39,-19.83 617.31,-23.1 621.54,-28.67"/>
</g>
<!-- Node12 -->
<g id="node12" class="node">
<title>Node12</title>
<g id="a_node12"><a xlink:title=" ">
<polygon fill="none" stroke="#bfbfbf" points="455,-0.5 455,-19.5 499,-19.5 499,-0.5 455,-0.5"/>
<text text-anchor="middle" x="477" y="-7.5" font-family="Helvetica,sans-Serif" font-size="10.00">string</text>
</a>
</g>
</g>
<!-- Node9&#45;&gt;Node12 -->
<g id="edge11" class="edge">
<title>Node9&#45;&gt;Node12</title>
<path fill="none" stroke="midnightblue" d="M553.38,-56.32C539.05,-47.82 516.99,-34.73 500.25,-24.8"/>
<polygon fill="midnightblue" stroke="midnightblue" points="501.97,-21.75 491.58,-19.65 498.4,-27.77 501.97,-21.75"/>
</g>
<!-- Node13 -->
<g id="node13" class="node">
<title>Node13</title>
<g id="a_node13"><a xlink:title=" ">
<polygon fill="none" stroke="#bfbfbf" points="689.5,-0.5 689.5,-19.5 758.5,-19.5 758.5,-0.5 689.5,-0.5"/>
<text text-anchor="middle" x="724" y="-7.5" font-family="Helvetica,sans-Serif" font-size="10.00">type_traits</text>
</a>
</g>
</g>
<!-- Node9&#45;&gt;Node13 -->
<g id="edge12" class="edge">
<title>Node9&#45;&gt;Node13</title>
<path fill="none" stroke="midnightblue" d="M592.72,-56.44C618.85,-47.4 660.26,-33.06 689.58,-22.92"/>
<polygon fill="midnightblue" stroke="midnightblue" points="691.09,-26.1 699.4,-19.52 688.8,-19.48 691.09,-26.1"/>
</g>
<!-- Node15 -->
<g id="node15" class="node">
<title>Node15</title>
<g id="a_node15"><a xlink:title=" ">
<polygon fill="none" stroke="#bfbfbf" points="506,-286 506,-305 592,-305 592,-286 506,-286"/>
<text text-anchor="middle" x="549" y="-293" font-family="Helvetica,sans-Serif" font-size="10.00">unordered_set</text>
</a>
</g>
</g>
<!-- Node14&#45;&gt;Node15 -->
<g id="edge14" class="edge">
<title>Node14&#45;&gt;Node15</title>
<path fill="none" stroke="midnightblue" d="M555,-347.48C554.01,-339.08 552.47,-325.98 551.2,-315.16"/>
<polygon fill="midnightblue" stroke="midnightblue" points="554.65,-314.53 550,-305.01 547.69,-315.35 554.65,-314.53"/>
</g>
<!-- Node16 -->
<g id="node16" class="node">
<title>Node16</title>
<g id="a_node16"><a xlink:href="irep_8h.html" target="_top" xlink:title=" ">
<polygon fill="none" stroke="red" points="487,-112.5 487,-131.5 531,-131.5 531,-112.5 487,-112.5"/>
<text text-anchor="middle" x="509" y="-119.5" font-family="Helvetica,sans-Serif" font-size="10.00">irep.h</text>
</a>
</g>
</g>
<!-- Node14&#45;&gt;Node16 -->
<g id="edge15" class="edge">
<title>Node14&#45;&gt;Node16</title>
<path fill="none" stroke="midnightblue" d="M569.06,-347.44C579.91,-339.47 594.57,-326.52 601,-311 606.27,-298.27 604.61,-293.3 601,-280 585.76,-223.85 544.83,-167.23 523.06,-139.88"/>
<polygon fill="midnightblue" stroke="midnightblue" points="525.5,-137.33 516.48,-131.77 520.06,-141.74 525.5,-137.33"/>
</g>
<!-- Node16&#45;&gt;Node9 -->
<g id="edge17" class="edge">
<title>Node16&#45;&gt;Node9</title>
<path fill="none" stroke="midnightblue" d="M518.48,-112.32C527.2,-104.34 540.34,-92.31 550.9,-82.65"/>
<polygon fill="midnightblue" stroke="midnightblue" points="553.33,-85.17 558.35,-75.83 548.61,-80 553.33,-85.17"/>
</g>
<!-- Node16&#45;&gt;Node12 -->
<g id="edge16" class="edge">
<title>Node16&#45;&gt;Node12</title>
<path fill="none" stroke="midnightblue" d="M506.49,-112.37C501.3,-94.54 489.3,-53.3 482.32,-29.27"/>
<polygon fill="midnightblue" stroke="midnightblue" points="485.65,-28.22 479.5,-19.59 478.93,-30.17 485.65,-28.22"/>
</g>
<!-- Node31&#45;&gt;Node7 -->
<g id="edge20" class="edge">
<title>Node31&#45;&gt;Node7</title>
<path fill="none" stroke="midnightblue" d="M361.3,-224.44C320.05,-214.27 251.67,-197.41 210.81,-187.34"/>
<polygon fill="midnightblue" stroke="midnightblue" points="211.6,-183.93 201.05,-184.93 209.92,-190.72 211.6,-183.93"/>
</g>
<!-- Node31&#45;&gt;Node9 -->
<g id="edge24" class="edge">
<title>Node31&#45;&gt;Node9</title>
<path fill="none" stroke="midnightblue" d="M440.65,-229.48C471.21,-224.74 510.48,-213.69 535,-188 561.84,-159.87 567.29,-112.11 568.14,-85.79"/>
<polygon fill="midnightblue" stroke="midnightblue" points="571.64,-85.69 568.26,-75.65 564.64,-85.6 571.64,-85.69"/>
</g>
<!-- Node31&#45;&gt;Node11 -->
<g id="edge21" class="edge">
<title>Node31&#45;&gt;Node11</title>
<path fill="none" stroke="midnightblue" d="M440.82,-229.34C475.11,-224.55 521.95,-213.5 555,-188 607.25,-147.7 628.55,-66.83 635.8,-30.02"/>
<polygon fill="midnightblue" stroke="midnightblue" points="639.33,-30.2 637.68,-19.73 632.44,-28.94 639.33,-30.2"/>
</g>
<!-- Node31&#45;&gt;Node12 -->
<g id="edge22" class="edge">
<title>Node31&#45;&gt;Node12</title>
<path fill="none" stroke="midnightblue" d="M353.52,-224.47C320.05,-215.36 280.89,-198 293,-168 322.06,-95.99 405.16,-46.09 449.05,-23.93"/>
<polygon fill="midnightblue" stroke="midnightblue" points="450.62,-27.06 458.04,-19.5 447.53,-20.78 450.62,-27.06"/>
</g>
<!-- Node32 -->
<g id="node18" class="node">
<title>Node32</title>
<g id="a_node18"><a xlink:title=" ">
<polygon fill="none" stroke="#bfbfbf" points="302.5,-168.5 302.5,-187.5 367.5,-187.5 367.5,-168.5 302.5,-168.5"/>
<text text-anchor="middle" x="335" y="-175.5" font-family="Helvetica,sans-Serif" font-size="10.00">functional</text>
</a>
</g>
</g>
<!-- Node31&#45;&gt;Node32 -->
<g id="edge19" class="edge">
<title>Node31&#45;&gt;Node32</title>
<path fill="none" stroke="midnightblue" d="M386.2,-224.32C377.18,-216.34 363.59,-204.31 352.68,-194.65"/>
<polygon fill="midnightblue" stroke="midnightblue" points="354.79,-191.84 344.98,-187.83 350.15,-197.08 354.79,-191.84"/>
</g>
<!-- Node33 -->
<g id="node19" class="node">
<title>Node33</title>
<g id="a_node19"><a xlink:href="deprecate_8h.html" target="_top" xlink:title=" ">
<polygon fill="none" stroke="black" points="356,-112.5 356,-131.5 430,-131.5 430,-112.5 356,-112.5"/>
<text text-anchor="middle" x="393" y="-119.5" font-family="Helvetica,sans-Serif" font-size="10.00">deprecate.h</text>
</a>
</g>
</g>
<!-- Node31&#45;&gt;Node33 -->
<g id="edge23" class="edge">
<title>Node31&#45;&gt;Node33</title>
<path fill="none" stroke="midnightblue" d="M395.76,-224.37C395.28,-206.62 394.16,-165.67 393.51,-141.6"/>
<polygon fill="midnightblue" stroke="midnightblue" points="397.01,-141.49 393.23,-131.59 390.01,-141.68 397.01,-141.49"/>
</g>
<!-- Node34 -->
<g id="node20" class="node">
<title>Node34</title>
<g id="a_node20"><a xlink:href="source__location_8h.html" target="_top" xlink:title=" ">
<polygon fill="none" stroke="red" points="424,-168.5 424,-187.5 526,-187.5 526,-168.5 424,-168.5"/>
<text text-anchor="middle" x="475" y="-175.5" font-family="Helvetica,sans-Serif" font-size="10.00">source_location.h</text>
</a>
</g>
</g>
<!-- Node31&#45;&gt;Node34 -->
<g id="edge25" class="edge">
<title>Node31&#45;&gt;Node34</title>
<path fill="none" stroke="midnightblue" d="M408.69,-224.32C420.9,-215.98 439.58,-203.21 454,-193.35"/>
<polygon fill="midnightblue" stroke="midnightblue" points="456.06,-196.19 462.34,-187.65 452.11,-190.41 456.06,-196.19"/>
</g>
<!-- Node34&#45;&gt;Node12 -->
<g id="edge28" class="edge">
<title>Node34&#45;&gt;Node12</title>
<path fill="none" stroke="midnightblue" d="M475.11,-168.08C475.42,-141.95 476.35,-65.21 476.78,-29.58"/>
<polygon fill="midnightblue" stroke="midnightblue" points="480.28,-29.61 476.9,-19.57 473.28,-29.53 480.28,-29.61"/>
</g>
<!-- Node34&#45;&gt;Node16 -->
<g id="edge27" class="edge">
<title>Node34&#45;&gt;Node16</title>
<path fill="none" stroke="midnightblue" d="M480.61,-168.08C485.37,-160.53 492.32,-149.49 498.15,-140.23"/>
<polygon fill="midnightblue" stroke="midnightblue" points="501.12,-142.08 503.49,-131.75 495.2,-138.35 501.12,-142.08"/>
</g>
<!-- Node34&#45;&gt;Node33 -->
<g id="edge26" class="edge">
<title>Node34&#45;&gt;Node33</title>
<path fill="none" stroke="midnightblue" d="M461.83,-168.32C449.15,-159.98 429.77,-147.21 414.79,-137.35"/>
<polygon fill="midnightblue" stroke="midnightblue" points="416.42,-134.23 406.14,-131.65 412.57,-140.08 416.42,-134.23"/>
</g>
<!-- Node30&#45;&gt;Node9 -->
<g id="edge31" class="edge">
<title>Node30&#45;&gt;Node9</title>
<path fill="none" stroke="midnightblue" d="M708.54,-112.44C680.32,-103.32 635.46,-88.81 604.03,-78.65"/>
<polygon fill="midnightblue" stroke="midnightblue" points="604.93,-75.26 594.34,-75.52 602.78,-81.92 604.93,-75.26"/>
</g>
<!-- Node30&#45;&gt;Node13 -->
<g id="edge30" class="edge">
<title>Node30&#45;&gt;Node13</title>
<path fill="none" stroke="midnightblue" d="M734.14,-112.37C732.36,-94.62 728.27,-53.67 725.86,-29.6"/>
<polygon fill="midnightblue" stroke="midnightblue" points="729.34,-29.19 724.86,-19.59 722.37,-29.89 729.34,-29.19"/>
</g>
<!-- Node38 -->
<g id="node23" class="node">
<title>Node38</title>
<g id="a_node23"><a xlink:href="ssa__expr_8h.html" target="_top" xlink:title=" ">
<polygon fill="none" stroke="red" points="251.5,-286 251.5,-305 338.5,-305 338.5,-286 251.5,-286"/>
<text text-anchor="middle" x="295" y="-293" font-family="Helvetica,sans-Serif" font-size="10.00">util/ssa_expr.h</text>
</a>
</g>
</g>
<!-- Node37&#45;&gt;Node38 -->
<g id="edge33" class="edge">
<title>Node37&#45;&gt;Node38</title>
<path fill="none" stroke="midnightblue" d="M330.13,-347.48C324.04,-338.64 314.36,-324.59 306.7,-313.48"/>
<polygon fill="midnightblue" stroke="midnightblue" points="309.42,-311.26 300.86,-305.01 303.66,-315.23 309.42,-311.26"/>
</g>
<!-- Node52 -->
<g id="node24" class="node">
<title>Node52</title>
<g id="a_node24"><a xlink:href="goto__trace_8h.html" target="_top" xlink:title=" ">
<polygon fill="none" stroke="red" points="120.5,-280.5 120.5,-310.5 233.5,-310.5 233.5,-280.5 120.5,-280.5"/>
<text text-anchor="start" x="128.5" y="-298.5" font-family="Helvetica,sans-Serif" font-size="10.00">goto&#45;programs/goto</text>
<text text-anchor="middle" x="177" y="-287.5" font-family="Helvetica,sans-Serif" font-size="10.00">_trace.h</text>
</a>
</g>
</g>
<!-- Node37&#45;&gt;Node52 -->
<g id="edge34" class="edge">
<title>Node37&#45;&gt;Node52</title>
<path fill="none" stroke="midnightblue" d="M313.22,-347.48C290.07,-338.81 253.55,-325.15 224.14,-314.14"/>
<polygon fill="midnightblue" stroke="midnightblue" points="225.07,-310.75 214.47,-310.52 222.61,-317.31 225.07,-310.75"/>
</g>
<!-- Node37&#45;&gt;Node62 -->
<g id="edge37" class="edge">
<title>Node37&#45;&gt;Node62</title>
<path fill="none" stroke="midnightblue" d="M345.6,-347.48C356.05,-338.2 372.97,-323.17 385.74,-311.83"/>
<polygon fill="midnightblue" stroke="midnightblue" points="388.27,-314.27 393.42,-305.01 383.62,-309.03 388.27,-314.27"/>
</g>
<!-- Node52&#45;&gt;Node7 -->
<g id="edge35" class="edge">
<title>Node52&#45;&gt;Node7</title>
<path fill="none" stroke="midnightblue" d="M177,-280.34C177,-259.62 177,-221.02 177,-197.9"/>
<polygon fill="midnightblue" stroke="midnightblue" points="180.5,-197.67 177,-187.67 173.5,-197.67 180.5,-197.67"/>
</g>
<!-- Node52&#45;&gt;Node31 -->
<g id="edge36" class="edge">
<title>Node52&#45;&gt;Node31</title>
<path fill="none" stroke="midnightblue" d="M228.62,-280.47C267.06,-270.03 318.86,-255.96 354.6,-246.25"/>
<polygon fill="midnightblue" stroke="midnightblue" points="355.96,-249.51 364.69,-243.51 354.12,-242.75 355.96,-249.51"/>
</g>
</g>
</svg>
