<?xml version="1.0" encoding="UTF-8" standalone="no"?>
<!DOCTYPE svg PUBLIC "-//W3C//DTD SVG 1.1//EN"
 "http://www.w3.org/Graphics/SVG/1.1/DTD/svg11.dtd">
<!-- Generated by graphviz version 2.43.0 (0)
 -->
<!-- Title: /home/runner/work/cbmc/cbmc/jbmc/src/miniz/miniz.h Pages: 1 -->
<svg width="360pt" height="117pt"
 viewBox="0.00 0.00 360.00 117.00" xmlns="http://www.w3.org/2000/svg" xmlns:xlink="http://www.w3.org/1999/xlink">
<g id="graph0" class="graph" transform="scale(1 1) rotate(0) translate(4 113)">
<title>/home/runner/work/cbmc/cbmc/jbmc/src/miniz/miniz.h</title>
<!-- Node1 -->
<g id="node1" class="node">
<title>Node1</title>
<g id="a_node1"><a xlink:title=" ">
<polygon fill="#bfbfbf" stroke="black" points="94.5,-78.5 94.5,-108.5 253.5,-108.5 253.5,-78.5 94.5,-78.5"/>
<text text-anchor="start" x="102.5" y="-96.5" font-family="Helvetica,sans-Serif" font-size="10.00">/home/runner/work/cbmc</text>
<text text-anchor="middle" x="174" y="-85.5" font-family="Helvetica,sans-Serif" font-size="10.00">/cbmc/jbmc/src/miniz/miniz.h</text>
</a>
</g>
</g>
<!-- Node2 -->
<g id="node2" class="node">
<title>Node2</title>
<g id="a_node2"><a xlink:href="mz__zip__archive_8cpp.html" target="_top" xlink:title=" ">
<polygon fill="none" stroke="black" points="0,-0.5 0,-41.5 164,-41.5 164,-0.5 0,-0.5"/>
<text text-anchor="start" x="8" y="-29.5" font-family="Helvetica,sans-Serif" font-size="10.00">/home/runner/work/cbmc</text>
<text text-anchor="start" x="8" y="-18.5" font-family="Helvetica,sans-Serif" font-size="10.00">/cbmc/jbmc/src/java_bytecode</text>
<text text-anchor="middle" x="82" y="-7.5" font-family="Helvetica,sans-Serif" font-size="10.00">/mz_zip_archive.cpp</text>
</a>
</g>
</g>
<!-- Node1&#45;&gt;Node2 -->
<g id="edge1" class="edge">
<title>Node1&#45;&gt;Node2</title>
<path fill="none" stroke="midnightblue" d="M147.16,-71.93C134.67,-62.36 119.89,-51.03 107.56,-41.59"/>
<polygon fill="midnightblue" stroke="midnightblue" points="145.32,-74.93 155.38,-78.23 149.57,-69.37 145.32,-74.93"/>
</g>
<!-- Node3 -->
<g id="node3" class="node">
<title>Node3</title>
<g id="a_node3"><a xlink:href="miniz_8cpp.html" target="_top" xlink:title=" ">
<polygon fill="none" stroke="black" points="182,-6 182,-36 352,-36 352,-6 182,-6"/>
<text text-anchor="start" x="190" y="-24" font-family="Helvetica,sans-Serif" font-size="10.00">/home/runner/work/cbmc</text>
<text text-anchor="middle" x="267" y="-13" font-family="Helvetica,sans-Serif" font-size="10.00">/cbmc/jbmc/src/miniz/miniz.cpp</text>
</a>
</g>
</g>
<!-- Node1&#45;&gt;Node3 -->
<g id="edge2" class="edge">
<title>Node1&#45;&gt;Node3</title>
<path fill="none" stroke="midnightblue" d="M200.9,-72.11C216.17,-60.53 234.91,-46.33 248.53,-36"/>
<polygon fill="midnightblue" stroke="midnightblue" points="198.67,-69.4 192.82,-78.23 202.9,-74.98 198.67,-69.4"/>
</g>
</g>
</svg>
