<?xml version="1.0" encoding="UTF-8" standalone="no"?>
<!DOCTYPE svg PUBLIC "-//W3C//DTD SVG 1.1//EN"
 "http://www.w3.org/Graphics/SVG/1.1/DTD/svg11.dtd">
<!-- Generated by graphviz version 2.43.0 (0)
 -->
<!-- Title: /home/runner/work/cbmc/cbmc/src/util/namespace.h Pages: 1 -->
<svg width="1027pt" height="375pt"
 viewBox="0.00 0.00 1027.09 375.00" xmlns="http://www.w3.org/2000/svg" xmlns:xlink="http://www.w3.org/1999/xlink">
<g id="graph0" class="graph" transform="scale(1 1) rotate(0) translate(4 371)">
<title>/home/runner/work/cbmc/cbmc/src/util/namespace.h</title>
<!-- Node1 -->
<g id="node1" class="node">
<title>Node1</title>
<g id="a_node1"><a xlink:title=" ">
<polygon fill="#bfbfbf" stroke="black" points="27,-336.5 27,-366.5 177,-366.5 177,-336.5 27,-336.5"/>
<text text-anchor="start" x="35" y="-354.5" font-family="Helvetica,sans-Serif" font-size="10.00">/home/runner/work/cbmc</text>
<text text-anchor="middle" x="102" y="-343.5" font-family="Helvetica,sans-Serif" font-size="10.00">/cbmc/src/util/namespace.h</text>
</a>
</g>
</g>
<!-- Node2 -->
<g id="node2" class="node">
<title>Node2</title>
<g id="a_node2"><a xlink:href="deprecate_8h.html" target="_top" xlink:title=" ">
<polygon fill="none" stroke="black" points="0,-280.5 0,-299.5 74,-299.5 74,-280.5 0,-280.5"/>
<text text-anchor="middle" x="37" y="-287.5" font-family="Helvetica,sans-Serif" font-size="10.00">deprecate.h</text>
</a>
</g>
</g>
<!-- Node1&#45;&gt;Node2 -->
<g id="edge1" class="edge">
<title>Node1&#45;&gt;Node2</title>
<path fill="none" stroke="midnightblue" d="M86.6,-336.4C76.76,-327.4 64.01,-315.72 53.89,-306.47"/>
<polygon fill="midnightblue" stroke="midnightblue" points="56.2,-303.83 46.46,-299.66 51.47,-308.99 56.2,-303.83"/>
</g>
<!-- Node3 -->
<g id="node3" class="node">
<title>Node3</title>
<g id="a_node3"><a xlink:href="src_2util_2invariant_8h.html" target="_top" xlink:title=" ">
<polygon fill="none" stroke="black" points="105.5,-112.5 105.5,-131.5 174.5,-131.5 174.5,-112.5 105.5,-112.5"/>
<text text-anchor="middle" x="140" y="-119.5" font-family="Helvetica,sans-Serif" font-size="10.00">invariant.h</text>
</a>
</g>
</g>
<!-- Node1&#45;&gt;Node3 -->
<g id="edge2" class="edge">
<title>Node1&#45;&gt;Node3</title>
<path fill="none" stroke="midnightblue" d="M104.38,-336.27C110.95,-296.89 129.4,-186.49 136.83,-141.97"/>
<polygon fill="midnightblue" stroke="midnightblue" points="140.31,-142.37 138.51,-131.93 133.41,-141.21 140.31,-142.37"/>
</g>
<!-- Node8 -->
<g id="node8" class="node">
<title>Node8</title>
<g id="a_node8"><a xlink:href="irep_8h.html" target="_top" xlink:title=" ">
<polygon fill="none" stroke="black" points="422,-280.5 422,-299.5 466,-299.5 466,-280.5 422,-280.5"/>
<text text-anchor="middle" x="444" y="-287.5" font-family="Helvetica,sans-Serif" font-size="10.00">irep.h</text>
</a>
</g>
</g>
<!-- Node1&#45;&gt;Node8 -->
<g id="edge7" class="edge">
<title>Node1&#45;&gt;Node8</title>
<path fill="none" stroke="midnightblue" d="M177.05,-337.44C250.42,-324.68 358.63,-305.85 411.93,-296.58"/>
<polygon fill="midnightblue" stroke="midnightblue" points="412.58,-300.02 421.83,-294.86 411.38,-293.12 412.58,-300.02"/>
</g>
<!-- Node4 -->
<g id="node4" class="node">
<title>Node4</title>
<g id="a_node4"><a xlink:title=" ">
<polygon fill="none" stroke="#bfbfbf" points="89.5,-56.5 89.5,-75.5 138.5,-75.5 138.5,-56.5 89.5,-56.5"/>
<text text-anchor="middle" x="114" y="-63.5" font-family="Helvetica,sans-Serif" font-size="10.00">cstdlib</text>
</a>
</g>
</g>
<!-- Node3&#45;&gt;Node4 -->
<g id="edge3" class="edge">
<title>Node3&#45;&gt;Node4</title>
<path fill="none" stroke="midnightblue" d="M135.71,-112.08C132.15,-104.69 126.98,-93.95 122.58,-84.81"/>
<polygon fill="midnightblue" stroke="midnightblue" points="125.71,-83.24 118.21,-75.75 119.4,-86.28 125.71,-83.24"/>
</g>
<!-- Node5 -->
<g id="node5" class="node">
<title>Node5</title>
<g id="a_node5"><a xlink:title=" ">
<polygon fill="none" stroke="#bfbfbf" points="15,-56.5 15,-75.5 71,-75.5 71,-56.5 15,-56.5"/>
<text text-anchor="middle" x="43" y="-63.5" font-family="Helvetica,sans-Serif" font-size="10.00">sstream</text>
</a>
</g>
</g>
<!-- Node3&#45;&gt;Node5 -->
<g id="edge4" class="edge">
<title>Node3&#45;&gt;Node5</title>
<path fill="none" stroke="midnightblue" d="M124.42,-112.32C109,-103.74 85.19,-90.49 67.29,-80.52"/>
<polygon fill="midnightblue" stroke="midnightblue" points="68.99,-77.46 58.55,-75.65 65.58,-83.58 68.99,-77.46"/>
</g>
<!-- Node6 -->
<g id="node6" class="node">
<title>Node6</title>
<g id="a_node6"><a xlink:title=" ">
<polygon fill="none" stroke="#bfbfbf" points="598,-0.5 598,-19.5 642,-19.5 642,-0.5 598,-0.5"/>
<text text-anchor="middle" x="620" y="-7.5" font-family="Helvetica,sans-Serif" font-size="10.00">string</text>
</a>
</g>
</g>
<!-- Node3&#45;&gt;Node6 -->
<g id="edge5" class="edge">
<title>Node3&#45;&gt;Node6</title>
<path fill="none" stroke="midnightblue" d="M143.26,-112.45C149.27,-98.02 163.56,-69.12 186,-56 254.18,-16.13 499.24,-11.36 587.79,-10.96"/>
<polygon fill="midnightblue" stroke="midnightblue" points="587.8,-14.46 597.79,-10.93 587.78,-7.46 587.8,-14.46"/>
</g>
<!-- Node7 -->
<g id="node7" class="node">
<title>Node7</title>
<g id="a_node7"><a xlink:title=" ">
<polygon fill="none" stroke="#bfbfbf" points="195.5,-56.5 195.5,-75.5 264.5,-75.5 264.5,-56.5 195.5,-56.5"/>
<text text-anchor="middle" x="230" y="-63.5" font-family="Helvetica,sans-Serif" font-size="10.00">type_traits</text>
</a>
</g>
</g>
<!-- Node3&#45;&gt;Node7 -->
<g id="edge6" class="edge">
<title>Node3&#45;&gt;Node7</title>
<path fill="none" stroke="midnightblue" d="M154.46,-112.32C168.5,-103.9 190.05,-90.97 206.54,-81.07"/>
<polygon fill="midnightblue" stroke="midnightblue" points="208.8,-83.8 215.58,-75.65 205.2,-77.8 208.8,-83.8"/>
</g>
<!-- Node8&#45;&gt;Node3 -->
<g id="edge10" class="edge">
<title>Node8&#45;&gt;Node3</title>
<path fill="none" stroke="midnightblue" d="M421.64,-287.94C367.91,-284.14 230.74,-266.8 159,-188 147.51,-175.38 142.94,-156.17 141.14,-141.9"/>
<polygon fill="midnightblue" stroke="midnightblue" points="144.61,-141.38 140.21,-131.74 137.63,-142.01 144.61,-141.38"/>
</g>
<!-- Node8&#45;&gt;Node6 -->
<g id="edge8" class="edge">
<title>Node8&#45;&gt;Node6</title>
<path fill="none" stroke="midnightblue" d="M454.94,-280.3C475.08,-263.2 516,-223.05 516,-179 516,-179 516,-179 516,-121 516,-90.77 516.79,-79.34 536,-56 549.57,-39.51 570.82,-28.21 588.55,-21.06"/>
<polygon fill="midnightblue" stroke="midnightblue" points="589.84,-24.31 597.96,-17.5 587.37,-17.76 589.84,-24.31"/>
</g>
<!-- Node9 -->
<g id="node9" class="node">
<title>Node9</title>
<g id="a_node9"><a xlink:title=" ">
<polygon fill="none" stroke="#bfbfbf" points="544.5,-56.5 544.5,-75.5 591.5,-75.5 591.5,-56.5 544.5,-56.5"/>
<text text-anchor="middle" x="568" y="-63.5" font-family="Helvetica,sans-Serif" font-size="10.00">vector</text>
</a>
</g>
</g>
<!-- Node8&#45;&gt;Node9 -->
<g id="edge9" class="edge">
<title>Node8&#45;&gt;Node9</title>
<path fill="none" stroke="midnightblue" d="M466.21,-283.22C486,-276.9 514.19,-264.79 530,-244 566.4,-196.12 569.62,-120.92 568.92,-85.99"/>
<polygon fill="midnightblue" stroke="midnightblue" points="572.41,-85.67 568.57,-75.79 565.41,-85.91 572.41,-85.67"/>
</g>
<!-- Node10 -->
<g id="node10" class="node">
<title>Node10</title>
<g id="a_node10"><a xlink:href="irep__ids_8h.html" target="_top" xlink:title="util">
<polygon fill="none" stroke="black" points="640,-224.5 640,-243.5 704,-243.5 704,-224.5 640,-224.5"/>
<text text-anchor="middle" x="672" y="-231.5" font-family="Helvetica,sans-Serif" font-size="10.00">irep_ids.h</text>
</a>
</g>
</g>
<!-- Node8&#45;&gt;Node10 -->
<g id="edge11" class="edge">
<title>Node8&#45;&gt;Node10</title>
<path fill="none" stroke="midnightblue" d="M466.28,-283.72C504.15,-274.75 581.66,-256.4 629.98,-244.95"/>
<polygon fill="midnightblue" stroke="midnightblue" points="630.89,-248.33 639.82,-242.62 629.28,-241.52 630.89,-248.33"/>
</g>
<!-- Node21 -->
<g id="node21" class="node">
<title>Node21</title>
<g id="a_node21"><a xlink:href="forward__list__as__map_8h.html" target="_top" xlink:title=" ">
<polygon fill="none" stroke="black" points="308.5,-224.5 308.5,-243.5 435.5,-243.5 435.5,-224.5 308.5,-224.5"/>
<text text-anchor="middle" x="372" y="-231.5" font-family="Helvetica,sans-Serif" font-size="10.00">forward_list_as_map.h</text>
</a>
</g>
</g>
<!-- Node8&#45;&gt;Node21 -->
<g id="edge27" class="edge">
<title>Node8&#45;&gt;Node21</title>
<path fill="none" stroke="midnightblue" d="M432.43,-280.32C421.58,-272.18 405.12,-259.84 392.12,-250.09"/>
<polygon fill="midnightblue" stroke="midnightblue" points="393.88,-247.03 383.78,-243.83 389.68,-252.63 393.88,-247.03"/>
</g>
<!-- Node11 -->
<g id="node11" class="node">
<title>Node11</title>
<g id="a_node11"><a xlink:href="dstring_8h.html" target="_top" xlink:title="Container for C&#45;Strings.">
<polygon fill="none" stroke="black" points="750.5,-168.5 750.5,-187.5 809.5,-187.5 809.5,-168.5 750.5,-168.5"/>
<text text-anchor="middle" x="780" y="-175.5" font-family="Helvetica,sans-Serif" font-size="10.00">dstring.h</text>
</a>
</g>
</g>
<!-- Node10&#45;&gt;Node11 -->
<g id="edge12" class="edge">
<title>Node10&#45;&gt;Node11</title>
<path fill="none" stroke="midnightblue" d="M689.35,-224.32C706.67,-215.66 733.52,-202.24 753.5,-192.25"/>
<polygon fill="midnightblue" stroke="midnightblue" points="755.31,-195.26 762.69,-187.65 752.18,-189 755.31,-195.26"/>
</g>
<!-- Node20 -->
<g id="node20" class="node">
<title>Node20</title>
<g id="a_node20"><a xlink:title=" ">
<polygon fill="none" stroke="#bfbfbf" points="635,-168.5 635,-187.5 709,-187.5 709,-168.5 635,-168.5"/>
<text text-anchor="middle" x="672" y="-175.5" font-family="Helvetica,sans-Serif" font-size="10.00">irep_ids.def</text>
</a>
</g>
</g>
<!-- Node10&#45;&gt;Node20 -->
<g id="edge26" class="edge">
<title>Node10&#45;&gt;Node20</title>
<path fill="none" stroke="midnightblue" d="M672,-224.08C672,-217.01 672,-206.86 672,-197.99"/>
<polygon fill="midnightblue" stroke="midnightblue" points="675.5,-197.75 672,-187.75 668.5,-197.75 675.5,-197.75"/>
</g>
<!-- Node11&#45;&gt;Node6 -->
<g id="edge14" class="edge">
<title>Node11&#45;&gt;Node6</title>
<path fill="none" stroke="midnightblue" d="M760.91,-168.49C730.51,-153.95 671.22,-121.44 639,-76 629.33,-62.36 624.54,-43.82 622.19,-30.03"/>
<polygon fill="midnightblue" stroke="midnightblue" points="625.61,-29.19 620.74,-19.78 618.68,-30.17 625.61,-29.19"/>
</g>
<!-- Node12 -->
<g id="node12" class="node">
<title>Node12</title>
<g id="a_node12"><a xlink:title=" ">
<polygon fill="none" stroke="#bfbfbf" points="850,-112.5 850,-131.5 898,-131.5 898,-112.5 850,-112.5"/>
<text text-anchor="middle" x="874" y="-119.5" font-family="Helvetica,sans-Serif" font-size="10.00">iosfwd</text>
</a>
</g>
</g>
<!-- Node11&#45;&gt;Node12 -->
<g id="edge13" class="edge">
<title>Node11&#45;&gt;Node12</title>
<path fill="none" stroke="midnightblue" d="M795.1,-168.32C809.9,-159.82 832.69,-146.73 849.98,-136.8"/>
<polygon fill="midnightblue" stroke="midnightblue" points="852.01,-139.67 858.93,-131.65 848.52,-133.6 852.01,-139.67"/>
</g>
<!-- Node13 -->
<g id="node13" class="node">
<title>Node13</title>
<g id="a_node13"><a xlink:href="magic_8h.html" target="_top" xlink:title="Magic numbers used throughout the codebase.">
<polygon fill="none" stroke="black" points="961,-112.5 961,-131.5 1017,-131.5 1017,-112.5 961,-112.5"/>
<text text-anchor="middle" x="989" y="-119.5" font-family="Helvetica,sans-Serif" font-size="10.00">magic.h</text>
</a>
</g>
</g>
<!-- Node11&#45;&gt;Node13 -->
<g id="edge15" class="edge">
<title>Node11&#45;&gt;Node13</title>
<path fill="none" stroke="midnightblue" d="M809.5,-169.38C846.64,-159.78 910.48,-143.29 951.17,-132.77"/>
<polygon fill="midnightblue" stroke="midnightblue" points="952.18,-136.13 960.98,-130.24 950.43,-129.35 952.18,-136.13"/>
</g>
<!-- Node15 -->
<g id="node15" class="node">
<title>Node15</title>
<g id="a_node15"><a xlink:href="string__container_8h.html" target="_top" xlink:title="Container for C&#45;Strings.">
<polygon fill="none" stroke="black" points="728,-112.5 728,-131.5 832,-131.5 832,-112.5 728,-112.5"/>
<text text-anchor="middle" x="780" y="-119.5" font-family="Helvetica,sans-Serif" font-size="10.00">string_container.h</text>
</a>
</g>
</g>
<!-- Node11&#45;&gt;Node15 -->
<g id="edge17" class="edge">
<title>Node11&#45;&gt;Node15</title>
<path fill="none" stroke="midnightblue" d="M780,-168.08C780,-161.01 780,-150.86 780,-141.99"/>
<polygon fill="midnightblue" stroke="midnightblue" points="783.5,-141.75 780,-131.75 776.5,-141.75 783.5,-141.75"/>
</g>
<!-- Node14 -->
<g id="node14" class="node">
<title>Node14</title>
<g id="a_node14"><a xlink:title=" ">
<polygon fill="none" stroke="#bfbfbf" points="888.5,-0.5 888.5,-19.5 941.5,-19.5 941.5,-0.5 888.5,-0.5"/>
<text text-anchor="middle" x="915" y="-7.5" font-family="Helvetica,sans-Serif" font-size="10.00">cstddef</text>
</a>
</g>
</g>
<!-- Node13&#45;&gt;Node14 -->
<g id="edge16" class="edge">
<title>Node13&#45;&gt;Node14</title>
<path fill="none" stroke="midnightblue" d="M997.65,-112.07C1009.2,-99.04 1026.88,-74.37 1015,-56 1001.11,-34.51 974.23,-23.18 951.84,-17.27"/>
<polygon fill="midnightblue" stroke="midnightblue" points="952.47,-13.82 941.93,-14.92 950.85,-20.63 952.47,-13.82"/>
</g>
<!-- Node15&#45;&gt;Node9 -->
<g id="edge20" class="edge">
<title>Node15&#45;&gt;Node9</title>
<path fill="none" stroke="midnightblue" d="M746.41,-112.44C706.67,-102.32 640.92,-85.57 601.31,-75.48"/>
<polygon fill="midnightblue" stroke="midnightblue" points="602.14,-72.09 591.59,-73.01 600.42,-78.87 602.14,-72.09"/>
</g>
<!-- Node16 -->
<g id="node16" class="node">
<title>Node16</title>
<g id="a_node16"><a xlink:title=" ">
<polygon fill="none" stroke="#bfbfbf" points="974,-56.5 974,-75.5 1006,-75.5 1006,-56.5 974,-56.5"/>
<text text-anchor="middle" x="990" y="-63.5" font-family="Helvetica,sans-Serif" font-size="10.00">list</text>
</a>
</g>
</g>
<!-- Node15&#45;&gt;Node16 -->
<g id="edge18" class="edge">
<title>Node15&#45;&gt;Node16</title>
<path fill="none" stroke="midnightblue" d="M820.39,-112.48C855.96,-104.69 909.31,-92.3 964.07,-76.04"/>
<polygon fill="midnightblue" stroke="midnightblue" points="965.38,-79.3 973.95,-73.07 963.36,-72.6 965.38,-79.3"/>
</g>
<!-- Node17 -->
<g id="node17" class="node">
<title>Node17</title>
<g id="a_node17"><a xlink:title=" ">
<polygon fill="none" stroke="#bfbfbf" points="862.5,-56.5 862.5,-75.5 955.5,-75.5 955.5,-56.5 862.5,-56.5"/>
<text text-anchor="middle" x="909" y="-63.5" font-family="Helvetica,sans-Serif" font-size="10.00">unordered_map</text>
</a>
</g>
</g>
<!-- Node15&#45;&gt;Node17 -->
<g id="edge19" class="edge">
<title>Node15&#45;&gt;Node17</title>
<path fill="none" stroke="midnightblue" d="M800.44,-112.44C821.67,-103.56 855.1,-89.56 879.25,-79.45"/>
<polygon fill="midnightblue" stroke="midnightblue" points="880.78,-82.61 888.66,-75.52 878.08,-76.15 880.78,-82.61"/>
</g>
<!-- Node18 -->
<g id="node18" class="node">
<title>Node18</title>
<g id="a_node18"><a xlink:href="memory__units_8h.html" target="_top" xlink:title=" ">
<polygon fill="none" stroke="black" points="748,-56.5 748,-75.5 844,-75.5 844,-56.5 748,-56.5"/>
<text text-anchor="middle" x="796" y="-63.5" font-family="Helvetica,sans-Serif" font-size="10.00">memory_units.h</text>
</a>
</g>
</g>
<!-- Node15&#45;&gt;Node18 -->
<g id="edge21" class="edge">
<title>Node15&#45;&gt;Node18</title>
<path fill="none" stroke="midnightblue" d="M782.64,-112.08C784.79,-104.85 787.88,-94.41 790.55,-85.4"/>
<polygon fill="midnightblue" stroke="midnightblue" points="793.92,-86.33 793.41,-75.75 787.21,-84.34 793.92,-86.33"/>
</g>
<!-- Node19 -->
<g id="node19" class="node">
<title>Node19</title>
<g id="a_node19"><a xlink:href="string__hash_8h.html" target="_top" xlink:title="string hashing">
<polygon fill="none" stroke="black" points="648,-56.5 648,-75.5 730,-75.5 730,-56.5 648,-56.5"/>
<text text-anchor="middle" x="689" y="-63.5" font-family="Helvetica,sans-Serif" font-size="10.00">string_hash.h</text>
</a>
</g>
</g>
<!-- Node15&#45;&gt;Node19 -->
<g id="edge24" class="edge">
<title>Node15&#45;&gt;Node19</title>
<path fill="none" stroke="midnightblue" d="M765.38,-112.32C751.05,-103.82 728.99,-90.73 712.25,-80.8"/>
<polygon fill="midnightblue" stroke="midnightblue" points="713.97,-77.75 703.58,-75.65 710.4,-83.77 713.97,-77.75"/>
</g>
<!-- Node18&#45;&gt;Node6 -->
<g id="edge23" class="edge">
<title>Node18&#45;&gt;Node6</title>
<path fill="none" stroke="midnightblue" d="M768.11,-56.44C736.49,-46.74 685.03,-30.95 651.85,-20.77"/>
<polygon fill="midnightblue" stroke="midnightblue" points="652.77,-17.39 642.18,-17.81 650.72,-24.09 652.77,-17.39"/>
</g>
<!-- Node18&#45;&gt;Node14 -->
<g id="edge22" class="edge">
<title>Node18&#45;&gt;Node14</title>
<path fill="none" stroke="midnightblue" d="M814.86,-56.44C834.27,-47.64 864.73,-33.81 886.96,-23.72"/>
<polygon fill="midnightblue" stroke="midnightblue" points="888.57,-26.84 896.23,-19.52 885.68,-20.46 888.57,-26.84"/>
</g>
<!-- Node19&#45;&gt;Node6 -->
<g id="edge25" class="edge">
<title>Node19&#45;&gt;Node6</title>
<path fill="none" stroke="midnightblue" d="M677.91,-56.32C667.51,-48.18 651.74,-35.84 639.28,-26.09"/>
<polygon fill="midnightblue" stroke="midnightblue" points="641.32,-23.24 631.29,-19.83 637.01,-28.75 641.32,-23.24"/>
</g>
<!-- Node22 -->
<g id="node22" class="node">
<title>Node22</title>
<g id="a_node22"><a xlink:title=" ">
<polygon fill="none" stroke="#bfbfbf" points="424,-168.5 424,-187.5 488,-187.5 488,-168.5 424,-168.5"/>
<text text-anchor="middle" x="456" y="-175.5" font-family="Helvetica,sans-Serif" font-size="10.00">algorithm</text>
</a>
</g>
</g>
<!-- Node21&#45;&gt;Node22 -->
<g id="edge28" class="edge">
<title>Node21&#45;&gt;Node22</title>
<path fill="none" stroke="midnightblue" d="M385.5,-224.32C398.6,-215.9 418.71,-202.97 434.11,-193.07"/>
<polygon fill="midnightblue" stroke="midnightblue" points="436.02,-196.01 442.54,-187.65 432.23,-190.12 436.02,-196.01"/>
</g>
<!-- Node23 -->
<g id="node23" class="node">
<title>Node23</title>
<g id="a_node23"><a xlink:title=" ">
<polygon fill="none" stroke="#bfbfbf" points="246,-168.5 246,-187.5 320,-187.5 320,-168.5 246,-168.5"/>
<text text-anchor="middle" x="283" y="-175.5" font-family="Helvetica,sans-Serif" font-size="10.00">forward_list</text>
</a>
</g>
</g>
<!-- Node21&#45;&gt;Node23 -->
<g id="edge29" class="edge">
<title>Node21&#45;&gt;Node23</title>
<path fill="none" stroke="midnightblue" d="M357.7,-224.32C343.82,-215.9 322.51,-202.97 306.2,-193.07"/>
<polygon fill="midnightblue" stroke="midnightblue" points="307.63,-189.85 297.26,-187.65 304,-195.83 307.63,-189.85"/>
</g>
<!-- Node24 -->
<g id="node24" class="node">
<title>Node24</title>
<g id="a_node24"><a xlink:href="as__const_8h.html" target="_top" xlink:title=" ">
<polygon fill="none" stroke="black" points="338,-168.5 338,-187.5 406,-187.5 406,-168.5 338,-168.5"/>
<text text-anchor="middle" x="372" y="-175.5" font-family="Helvetica,sans-Serif" font-size="10.00">as_const.h</text>
</a>
</g>
</g>
<!-- Node21&#45;&gt;Node24 -->
<g id="edge30" class="edge">
<title>Node21&#45;&gt;Node24</title>
<path fill="none" stroke="midnightblue" d="M372,-224.08C372,-217.01 372,-206.86 372,-197.99"/>
<polygon fill="midnightblue" stroke="midnightblue" points="375.5,-197.75 372,-187.75 368.5,-197.75 375.5,-197.75"/>
</g>
<!-- Node25 -->
<g id="node25" class="node">
<title>Node25</title>
<g id="a_node25"><a xlink:href="narrow_8h.html" target="_top" xlink:title=" ">
<polygon fill="none" stroke="black" points="168.5,-168.5 168.5,-187.5 227.5,-187.5 227.5,-168.5 168.5,-168.5"/>
<text text-anchor="middle" x="198" y="-175.5" font-family="Helvetica,sans-Serif" font-size="10.00">narrow.h</text>
</a>
</g>
</g>
<!-- Node21&#45;&gt;Node25 -->
<g id="edge31" class="edge">
<title>Node21&#45;&gt;Node25</title>
<path fill="none" stroke="midnightblue" d="M344.43,-224.44C314.9,-215.28 267.88,-200.69 235.12,-190.52"/>
<polygon fill="midnightblue" stroke="midnightblue" points="236.03,-187.14 225.44,-187.52 233.96,-193.82 236.03,-187.14"/>
</g>
<!-- Node25&#45;&gt;Node3 -->
<g id="edge33" class="edge">
<title>Node25&#45;&gt;Node3</title>
<path fill="none" stroke="midnightblue" d="M188.68,-168.32C180.11,-160.34 167.19,-148.31 156.81,-138.65"/>
<polygon fill="midnightblue" stroke="midnightblue" points="159.19,-136.09 149.49,-131.83 154.42,-141.21 159.19,-136.09"/>
</g>
<!-- Node25&#45;&gt;Node7 -->
<g id="edge32" class="edge">
<title>Node25&#45;&gt;Node7</title>
<path fill="none" stroke="midnightblue" d="M200.51,-168.37C205.7,-150.54 217.7,-109.3 224.68,-85.27"/>
<polygon fill="midnightblue" stroke="midnightblue" points="228.07,-86.17 227.5,-75.59 221.35,-84.22 228.07,-86.17"/>
</g>
</g>
</svg>
