<?xml version="1.0" encoding="UTF-8" standalone="no"?>
<!DOCTYPE svg PUBLIC "-//W3C//DTD SVG 1.1//EN"
 "http://www.w3.org/Graphics/SVG/1.1/DTD/svg11.dtd">
<!-- Generated by graphviz version 2.43.0 (0)
 -->
<!-- Title: /home/runner/work/cbmc/cbmc/src/solvers/sat/pbs_dimacs_cnf.h Pages: 1 -->
<svg width="571pt" height="498pt"
 viewBox="0.00 0.00 571.02 498.00" xmlns="http://www.w3.org/2000/svg" xmlns:xlink="http://www.w3.org/1999/xlink">
<g id="graph0" class="graph" transform="scale(1 1) rotate(0) translate(4 494)">
<title>/home/runner/work/cbmc/cbmc/src/solvers/sat/pbs_dimacs_cnf.h</title>
<!-- Node1 -->
<g id="node1" class="node">
<title>Node1</title>
<g id="a_node1"><a xlink:title=" ">
<polygon fill="#bfbfbf" stroke="black" points="387.02,-448.5 387.02,-489.5 525.02,-489.5 525.02,-448.5 387.02,-448.5"/>
<text text-anchor="start" x="395.02" y="-477.5" font-family="Helvetica,sans-Serif" font-size="10.00">/home/runner/work/cbmc</text>
<text text-anchor="start" x="395.02" y="-466.5" font-family="Helvetica,sans-Serif" font-size="10.00">/cbmc/src/solvers/sat</text>
<text text-anchor="middle" x="456.02" y="-455.5" font-family="Helvetica,sans-Serif" font-size="10.00">/pbs_dimacs_cnf.h</text>
</a>
</g>
</g>
<!-- Node2 -->
<g id="node2" class="node">
<title>Node2</title>
<g id="a_node2"><a xlink:title=" ">
<polygon fill="none" stroke="#bfbfbf" points="349.02,-392.5 349.02,-411.5 381.02,-411.5 381.02,-392.5 349.02,-392.5"/>
<text text-anchor="middle" x="365.02" y="-399.5" font-family="Helvetica,sans-Serif" font-size="10.00">set</text>
</a>
</g>
</g>
<!-- Node1&#45;&gt;Node2 -->
<g id="edge1" class="edge">
<title>Node1&#45;&gt;Node2</title>
<path fill="none" stroke="midnightblue" d="M428.72,-448.5C414.77,-438.53 398.08,-426.61 385.29,-417.48"/>
<polygon fill="midnightblue" stroke="midnightblue" points="387.31,-414.62 377.14,-411.65 383.24,-420.31 387.31,-414.62"/>
</g>
<!-- Node3 -->
<g id="node3" class="node">
<title>Node3</title>
<g id="a_node3"><a xlink:title=" ">
<polygon fill="none" stroke="#bfbfbf" points="399.02,-392.5 399.02,-411.5 437.02,-411.5 437.02,-392.5 399.02,-392.5"/>
<text text-anchor="middle" x="418.02" y="-399.5" font-family="Helvetica,sans-Serif" font-size="10.00">map</text>
</a>
</g>
</g>
<!-- Node1&#45;&gt;Node3 -->
<g id="edge2" class="edge">
<title>Node1&#45;&gt;Node3</title>
<path fill="none" stroke="midnightblue" d="M444.62,-448.5C439.41,-439.59 433.29,-429.11 428.23,-420.46"/>
<polygon fill="midnightblue" stroke="midnightblue" points="431.15,-418.52 423.08,-411.65 425.11,-422.05 431.15,-418.52"/>
</g>
<!-- Node4 -->
<g id="node4" class="node">
<title>Node4</title>
<g id="a_node4"><a xlink:title=" ">
<polygon fill="none" stroke="#bfbfbf" points="479.02,-112.5 479.02,-131.5 527.02,-131.5 527.02,-112.5 479.02,-112.5"/>
<text text-anchor="middle" x="503.02" y="-119.5" font-family="Helvetica,sans-Serif" font-size="10.00">iosfwd</text>
</a>
</g>
</g>
<!-- Node1&#45;&gt;Node4 -->
<g id="edge3" class="edge">
<title>Node1&#45;&gt;Node4</title>
<path fill="none" stroke="midnightblue" d="M499.84,-448.4C515.75,-439.36 532.6,-427.2 544.02,-412 562.1,-387.93 563.02,-377.1 563.02,-347 563.02,-347 563.02,-347 563.02,-233 563.02,-195.88 536.37,-159.38 518.59,-139.16"/>
<polygon fill="midnightblue" stroke="midnightblue" points="520.95,-136.55 511.62,-131.53 515.79,-141.28 520.95,-136.55"/>
</g>
<!-- Node5 -->
<g id="node5" class="node">
<title>Node5</title>
<g id="a_node5"><a xlink:href="dimacs__cnf_8h.html" target="_top" xlink:title=" ">
<polygon fill="none" stroke="black" points="455.02,-392.5 455.02,-411.5 535.02,-411.5 535.02,-392.5 455.02,-392.5"/>
<text text-anchor="middle" x="495.02" y="-399.5" font-family="Helvetica,sans-Serif" font-size="10.00">dimacs_cnf.h</text>
</a>
</g>
</g>
<!-- Node1&#45;&gt;Node5 -->
<g id="edge4" class="edge">
<title>Node1&#45;&gt;Node5</title>
<path fill="none" stroke="midnightblue" d="M467.72,-448.5C473.07,-439.59 479.36,-429.11 484.54,-420.46"/>
<polygon fill="midnightblue" stroke="midnightblue" points="487.69,-422.03 489.83,-411.65 481.69,-418.43 487.69,-422.03"/>
</g>
<!-- Node5&#45;&gt;Node4 -->
<g id="edge5" class="edge">
<title>Node5&#45;&gt;Node4</title>
<path fill="none" stroke="midnightblue" d="M499.07,-392.38C507.26,-374.11 525.02,-330 525.02,-291 525.02,-291 525.02,-291 525.02,-233 525.02,-200.33 515.58,-163.24 509.06,-141.55"/>
<polygon fill="midnightblue" stroke="midnightblue" points="512.31,-140.22 505.99,-131.72 505.63,-142.31 512.31,-140.22"/>
</g>
<!-- Node6 -->
<g id="node6" class="node">
<title>Node6</title>
<g id="a_node6"><a xlink:href="cnf__clause__list_8h.html" target="_top" xlink:title=" ">
<polygon fill="none" stroke="black" points="385.02,-336.5 385.02,-355.5 483.02,-355.5 483.02,-336.5 385.02,-336.5"/>
<text text-anchor="middle" x="434.02" y="-343.5" font-family="Helvetica,sans-Serif" font-size="10.00">cnf_clause_list.h</text>
</a>
</g>
</g>
<!-- Node5&#45;&gt;Node6 -->
<g id="edge6" class="edge">
<title>Node5&#45;&gt;Node6</title>
<path fill="none" stroke="midnightblue" d="M485.22,-392.32C476.21,-384.34 462.62,-372.31 451.71,-362.65"/>
<polygon fill="midnightblue" stroke="midnightblue" points="453.81,-359.84 444,-355.83 449.17,-365.08 453.81,-359.84"/>
</g>
<!-- Node7 -->
<g id="node7" class="node">
<title>Node7</title>
<g id="a_node7"><a xlink:title=" ">
<polygon fill="none" stroke="#bfbfbf" points="404.02,-280.5 404.02,-299.5 436.02,-299.5 436.02,-280.5 404.02,-280.5"/>
<text text-anchor="middle" x="420.02" y="-287.5" font-family="Helvetica,sans-Serif" font-size="10.00">list</text>
</a>
</g>
</g>
<!-- Node6&#45;&gt;Node7 -->
<g id="edge7" class="edge">
<title>Node6&#45;&gt;Node7</title>
<path fill="none" stroke="midnightblue" d="M431.71,-336.08C429.86,-328.93 427.19,-318.64 424.87,-309.69"/>
<polygon fill="midnightblue" stroke="midnightblue" points="428.19,-308.55 422.29,-299.75 421.41,-310.31 428.19,-308.55"/>
</g>
<!-- Node8 -->
<g id="node8" class="node">
<title>Node8</title>
<g id="a_node8"><a xlink:href="threeval_8h.html" target="_top" xlink:title=" ">
<polygon fill="none" stroke="black" points="411.52,-168.5 411.52,-187.5 496.52,-187.5 496.52,-168.5 411.52,-168.5"/>
<text text-anchor="middle" x="454.02" y="-175.5" font-family="Helvetica,sans-Serif" font-size="10.00">util/threeval.h</text>
</a>
</g>
</g>
<!-- Node6&#45;&gt;Node8 -->
<g id="edge8" class="edge">
<title>Node6&#45;&gt;Node8</title>
<path fill="none" stroke="midnightblue" d="M436.56,-336.46C439.12,-327.47 442.99,-312.87 445.02,-300 450.71,-264.06 452.82,-221.53 453.59,-197.67"/>
<polygon fill="midnightblue" stroke="midnightblue" points="457.09,-197.66 453.87,-187.56 450.1,-197.46 457.09,-197.66"/>
</g>
<!-- Node9 -->
<g id="node9" class="node">
<title>Node9</title>
<g id="a_node9"><a xlink:href="cnf_8h.html" target="_top" xlink:title=" ">
<polygon fill="none" stroke="black" points="346.02,-280.5 346.02,-299.5 386.02,-299.5 386.02,-280.5 346.02,-280.5"/>
<text text-anchor="middle" x="366.02" y="-287.5" font-family="Helvetica,sans-Serif" font-size="10.00">cnf.h</text>
</a>
</g>
</g>
<!-- Node6&#45;&gt;Node9 -->
<g id="edge10" class="edge">
<title>Node6&#45;&gt;Node9</title>
<path fill="none" stroke="midnightblue" d="M423.1,-336.32C412.85,-328.18 397.3,-315.84 385.02,-306.09"/>
<polygon fill="midnightblue" stroke="midnightblue" points="387.16,-303.31 377.15,-299.83 382.8,-308.79 387.16,-303.31"/>
</g>
<!-- Node8&#45;&gt;Node4 -->
<g id="edge9" class="edge">
<title>Node8&#45;&gt;Node4</title>
<path fill="none" stroke="midnightblue" d="M462.11,-168.08C469.18,-160.3 479.61,-148.8 488.17,-139.37"/>
<polygon fill="midnightblue" stroke="midnightblue" points="490.95,-141.51 495.08,-131.75 485.77,-136.8 490.95,-141.51"/>
</g>
<!-- Node10 -->
<g id="node10" class="node">
<title>Node10</title>
<g id="a_node10"><a xlink:href="prop_8h.html" target="_top" xlink:title=" ">
<polygon fill="none" stroke="black" points="311.02,-224.5 311.02,-243.5 421.02,-243.5 421.02,-224.5 311.02,-224.5"/>
<text text-anchor="middle" x="366.02" y="-231.5" font-family="Helvetica,sans-Serif" font-size="10.00">solvers/prop/prop.h</text>
</a>
</g>
</g>
<!-- Node9&#45;&gt;Node10 -->
<g id="edge11" class="edge">
<title>Node9&#45;&gt;Node10</title>
<path fill="none" stroke="midnightblue" d="M366.02,-280.08C366.02,-273.01 366.02,-262.86 366.02,-253.99"/>
<polygon fill="midnightblue" stroke="midnightblue" points="369.52,-253.75 366.02,-243.75 362.52,-253.75 369.52,-253.75"/>
</g>
<!-- Node10&#45;&gt;Node8 -->
<g id="edge24" class="edge">
<title>Node10&#45;&gt;Node8</title>
<path fill="none" stroke="midnightblue" d="M380.16,-224.32C393.89,-215.9 414.96,-202.97 431.09,-193.07"/>
<polygon fill="midnightblue" stroke="midnightblue" points="433.23,-195.87 439.92,-187.65 429.57,-189.9 433.23,-195.87"/>
</g>
<!-- Node11 -->
<g id="node11" class="node">
<title>Node11</title>
<g id="a_node11"><a xlink:href="src_2util_2message_8h.html" target="_top" xlink:title=" ">
<polygon fill="none" stroke="black" points="195.52,-168.5 195.52,-187.5 284.52,-187.5 284.52,-168.5 195.52,-168.5"/>
<text text-anchor="middle" x="240.02" y="-175.5" font-family="Helvetica,sans-Serif" font-size="10.00">util/message.h</text>
</a>
</g>
</g>
<!-- Node10&#45;&gt;Node11 -->
<g id="edge12" class="edge">
<title>Node10&#45;&gt;Node11</title>
<path fill="none" stroke="midnightblue" d="M346.06,-224.44C325.41,-215.6 292.96,-201.69 269.39,-191.59"/>
<polygon fill="midnightblue" stroke="midnightblue" points="270.47,-188.24 259.89,-187.52 267.71,-194.67 270.47,-188.24"/>
</g>
<!-- Node38 -->
<g id="node18" class="node">
<title>Node38</title>
<g id="a_node18"><a xlink:href="literal_8h.html" target="_top" xlink:title=" ">
<polygon fill="none" stroke="black" points="339.02,-168.5 339.02,-187.5 393.02,-187.5 393.02,-168.5 339.02,-168.5"/>
<text text-anchor="middle" x="366.02" y="-175.5" font-family="Helvetica,sans-Serif" font-size="10.00">literal.h</text>
</a>
</g>
</g>
<!-- Node10&#45;&gt;Node38 -->
<g id="edge25" class="edge">
<title>Node10&#45;&gt;Node38</title>
<path fill="none" stroke="midnightblue" d="M366.02,-224.08C366.02,-217.01 366.02,-206.86 366.02,-197.99"/>
<polygon fill="midnightblue" stroke="midnightblue" points="369.52,-197.75 366.02,-187.75 362.52,-197.75 369.52,-197.75"/>
</g>
<!-- Node11&#45;&gt;Node4 -->
<g id="edge14" class="edge">
<title>Node11&#45;&gt;Node4</title>
<path fill="none" stroke="midnightblue" d="M284.75,-169.25C329.16,-161.33 399.38,-148.21 469.09,-132.09"/>
<polygon fill="midnightblue" stroke="midnightblue" points="469.98,-135.47 478.92,-129.79 468.39,-128.66 469.98,-135.47"/>
</g>
<!-- Node12 -->
<g id="node12" class="node">
<title>Node12</title>
<g id="a_node12"><a xlink:title=" ">
<polygon fill="none" stroke="#bfbfbf" points="176.52,-112.5 176.52,-131.5 241.52,-131.5 241.52,-112.5 176.52,-112.5"/>
<text text-anchor="middle" x="209.02" y="-119.5" font-family="Helvetica,sans-Serif" font-size="10.00">functional</text>
</a>
</g>
</g>
<!-- Node11&#45;&gt;Node12 -->
<g id="edge13" class="edge">
<title>Node11&#45;&gt;Node12</title>
<path fill="none" stroke="midnightblue" d="M234.9,-168.08C230.62,-160.61 224.36,-149.72 219.08,-140.52"/>
<polygon fill="midnightblue" stroke="midnightblue" points="222.06,-138.68 214.05,-131.75 215.99,-142.17 222.06,-138.68"/>
</g>
<!-- Node13 -->
<g id="node13" class="node">
<title>Node13</title>
<g id="a_node13"><a xlink:title=" ">
<polygon fill="none" stroke="#bfbfbf" points="248.02,-0.5 248.02,-19.5 304.02,-19.5 304.02,-0.5 248.02,-0.5"/>
<text text-anchor="middle" x="276.02" y="-7.5" font-family="Helvetica,sans-Serif" font-size="10.00">sstream</text>
</a>
</g>
</g>
<!-- Node11&#45;&gt;Node13 -->
<g id="edge15" class="edge">
<title>Node11&#45;&gt;Node13</title>
<path fill="none" stroke="midnightblue" d="M246,-168.34C257.17,-151.5 280.77,-112.76 288.02,-76 291.11,-60.34 287.3,-42.52 283.18,-29.5"/>
<polygon fill="midnightblue" stroke="midnightblue" points="286.41,-28.12 279.79,-19.84 279.8,-30.44 286.41,-28.12"/>
</g>
<!-- Node14 -->
<g id="node14" class="node">
<title>Node14</title>
<g id="a_node14"><a xlink:title=" ">
<polygon fill="none" stroke="#bfbfbf" points="47.02,-0.5 47.02,-19.5 91.02,-19.5 91.02,-0.5 47.02,-0.5"/>
<text text-anchor="middle" x="69.02" y="-7.5" font-family="Helvetica,sans-Serif" font-size="10.00">string</text>
</a>
</g>
</g>
<!-- Node11&#45;&gt;Node14 -->
<g id="edge16" class="edge">
<title>Node11&#45;&gt;Node14</title>
<path fill="none" stroke="midnightblue" d="M195.45,-174.85C135.08,-170.89 32.18,-160.1 9.02,-132 -18.41,-98.71 24.57,-50.78 50.93,-26.44"/>
<polygon fill="midnightblue" stroke="midnightblue" points="53.36,-28.96 58.48,-19.69 48.69,-23.75 53.36,-28.96"/>
</g>
<!-- Node15 -->
<g id="node15" class="node">
<title>Node15</title>
<g id="a_node15"><a xlink:href="deprecate_8h.html" target="_top" xlink:title=" ">
<polygon fill="none" stroke="black" points="104.02,-56.5 104.02,-75.5 178.02,-75.5 178.02,-56.5 104.02,-56.5"/>
<text text-anchor="middle" x="141.02" y="-63.5" font-family="Helvetica,sans-Serif" font-size="10.00">deprecate.h</text>
</a>
</g>
</g>
<!-- Node11&#45;&gt;Node15 -->
<g id="edge17" class="edge">
<title>Node11&#45;&gt;Node15</title>
<path fill="none" stroke="midnightblue" d="M218.92,-168.43C202.79,-160.93 181.02,-148.63 167.02,-132 155.79,-118.64 148.97,-99.82 145.16,-85.86"/>
<polygon fill="midnightblue" stroke="midnightblue" points="148.5,-84.79 142.71,-75.91 141.7,-86.46 148.5,-84.79"/>
</g>
<!-- Node16 -->
<g id="node16" class="node">
<title>Node16</title>
<g id="a_node16"><a xlink:href="src_2util_2invariant_8h.html" target="_top" xlink:title=" ">
<polygon fill="none" stroke="red" points="210.52,-56.5 210.52,-75.5 279.52,-75.5 279.52,-56.5 210.52,-56.5"/>
<text text-anchor="middle" x="245.02" y="-63.5" font-family="Helvetica,sans-Serif" font-size="10.00">invariant.h</text>
</a>
</g>
</g>
<!-- Node11&#45;&gt;Node16 -->
<g id="edge18" class="edge">
<title>Node11&#45;&gt;Node16</title>
<path fill="none" stroke="midnightblue" d="M242.51,-168.47C244.98,-159.48 248.61,-144.89 250.02,-132 251.72,-116.51 250.15,-98.88 248.33,-85.9"/>
<polygon fill="midnightblue" stroke="midnightblue" points="251.76,-85.18 246.75,-75.85 244.85,-86.27 251.76,-85.18"/>
</g>
<!-- Node19 -->
<g id="node17" class="node">
<title>Node19</title>
<g id="a_node17"><a xlink:href="source__location_8h.html" target="_top" xlink:title=" ">
<polygon fill="none" stroke="red" points="18.02,-112.5 18.02,-131.5 120.02,-131.5 120.02,-112.5 18.02,-112.5"/>
<text text-anchor="middle" x="69.02" y="-119.5" font-family="Helvetica,sans-Serif" font-size="10.00">source_location.h</text>
</a>
</g>
</g>
<!-- Node11&#45;&gt;Node19 -->
<g id="edge21" class="edge">
<title>Node11&#45;&gt;Node19</title>
<path fill="none" stroke="midnightblue" d="M212.93,-168.44C184.04,-159.32 138.1,-144.81 105.92,-134.65"/>
<polygon fill="midnightblue" stroke="midnightblue" points="106.58,-131.19 95.99,-131.52 104.47,-137.87 106.58,-131.19"/>
</g>
<!-- Node16&#45;&gt;Node13 -->
<g id="edge19" class="edge">
<title>Node16&#45;&gt;Node13</title>
<path fill="none" stroke="midnightblue" d="M250.14,-56.08C254.43,-48.61 260.68,-37.72 265.97,-28.52"/>
<polygon fill="midnightblue" stroke="midnightblue" points="269.06,-30.17 271,-19.75 262.99,-26.68 269.06,-30.17"/>
</g>
<!-- Node16&#45;&gt;Node14 -->
<g id="edge20" class="edge">
<title>Node16&#45;&gt;Node14</title>
<path fill="none" stroke="midnightblue" d="M217.14,-56.44C185.51,-46.74 134.05,-30.95 100.87,-20.77"/>
<polygon fill="midnightblue" stroke="midnightblue" points="101.79,-17.39 91.21,-17.81 99.74,-24.09 101.79,-17.39"/>
</g>
<!-- Node19&#45;&gt;Node14 -->
<g id="edge23" class="edge">
<title>Node19&#45;&gt;Node14</title>
<path fill="none" stroke="midnightblue" d="M69.02,-112.37C69.02,-94.62 69.02,-53.67 69.02,-29.6"/>
<polygon fill="midnightblue" stroke="midnightblue" points="72.52,-29.59 69.02,-19.59 65.52,-29.59 72.52,-29.59"/>
</g>
<!-- Node19&#45;&gt;Node15 -->
<g id="edge22" class="edge">
<title>Node19&#45;&gt;Node15</title>
<path fill="none" stroke="midnightblue" d="M80.59,-112.32C91.44,-104.18 107.9,-91.84 120.91,-82.09"/>
<polygon fill="midnightblue" stroke="midnightblue" points="123.34,-84.63 129.24,-75.83 119.14,-79.03 123.34,-84.63"/>
</g>
<!-- Node38&#45;&gt;Node4 -->
<g id="edge26" class="edge">
<title>Node38&#45;&gt;Node4</title>
<path fill="none" stroke="midnightblue" d="M387.73,-168.44C410.38,-159.52 446.1,-145.44 471.77,-135.32"/>
<polygon fill="midnightblue" stroke="midnightblue" points="473.4,-138.44 481.42,-131.52 470.83,-131.93 473.4,-138.44"/>
</g>
<!-- Node35 -->
<g id="node19" class="node">
<title>Node35</title>
<g id="a_node19"><a xlink:href="narrow_8h.html" target="_top" xlink:title=" ">
<polygon fill="none" stroke="red" points="336.52,-112.5 336.52,-131.5 395.52,-131.5 395.52,-112.5 336.52,-112.5"/>
<text text-anchor="middle" x="366.02" y="-119.5" font-family="Helvetica,sans-Serif" font-size="10.00">narrow.h</text>
</a>
</g>
</g>
<!-- Node38&#45;&gt;Node35 -->
<g id="edge27" class="edge">
<title>Node38&#45;&gt;Node35</title>
<path fill="none" stroke="midnightblue" d="M366.02,-168.08C366.02,-161.01 366.02,-150.86 366.02,-141.99"/>
<polygon fill="midnightblue" stroke="midnightblue" points="369.52,-141.75 366.02,-131.75 362.52,-141.75 369.52,-141.75"/>
</g>
<!-- Node21 -->
<g id="node20" class="node">
<title>Node21</title>
<g id="a_node20"><a xlink:title=" ">
<polygon fill="none" stroke="#bfbfbf" points="413.52,-112.5 413.52,-131.5 460.52,-131.5 460.52,-112.5 413.52,-112.5"/>
<text text-anchor="middle" x="437.02" y="-119.5" font-family="Helvetica,sans-Serif" font-size="10.00">vector</text>
</a>
</g>
</g>
<!-- Node38&#45;&gt;Node21 -->
<g id="edge29" class="edge">
<title>Node38&#45;&gt;Node21</title>
<path fill="none" stroke="midnightblue" d="M377.43,-168.32C388.13,-160.18 404.36,-147.84 417.19,-138.09"/>
<polygon fill="midnightblue" stroke="midnightblue" points="419.57,-140.67 425.41,-131.83 415.33,-135.1 419.57,-140.67"/>
</g>
<!-- Node35&#45;&gt;Node16 -->
<g id="edge28" class="edge">
<title>Node35&#45;&gt;Node16</title>
<path fill="none" stroke="midnightblue" d="M346.85,-112.44C327.11,-103.64 296.14,-89.81 273.53,-79.72"/>
<polygon fill="midnightblue" stroke="midnightblue" points="274.66,-76.4 264.11,-75.52 271.81,-82.79 274.66,-76.4"/>
</g>
</g>
</svg>
