<?xml version="1.0" encoding="UTF-8" standalone="no"?>
<!DOCTYPE svg PUBLIC "-//W3C//DTD SVG 1.1//EN"
 "http://www.w3.org/Graphics/SVG/1.1/DTD/svg11.dtd">
<!-- Generated by graphviz version 2.43.0 (0)
 -->
<!-- Title: /home/runner/work/cbmc/cbmc/src/solvers/flattening/pointer_logic.h Pages: 1 -->
<svg width="951pt" height="610pt"
 viewBox="0.00 0.00 951.02 610.00" xmlns="http://www.w3.org/2000/svg" xmlns:xlink="http://www.w3.org/1999/xlink">
<g id="graph0" class="graph" transform="scale(1 1) rotate(0) translate(4 606)">
<title>/home/runner/work/cbmc/cbmc/src/solvers/flattening/pointer_logic.h</title>
<!-- Node1 -->
<g id="node1" class="node">
<title>Node1</title>
<g id="a_node1"><a xlink:title="Pointer Logic.">
<polygon fill="#bfbfbf" stroke="black" points="694.52,-560.5 694.52,-601.5 845.52,-601.5 845.52,-560.5 694.52,-560.5"/>
<text text-anchor="start" x="702.52" y="-589.5" font-family="Helvetica,sans-Serif" font-size="10.00">/home/runner/work/cbmc</text>
<text text-anchor="start" x="702.52" y="-578.5" font-family="Helvetica,sans-Serif" font-size="10.00">/cbmc/src/solvers/flattening</text>
<text text-anchor="middle" x="770.02" y="-567.5" font-family="Helvetica,sans-Serif" font-size="10.00">/pointer_logic.h</text>
</a>
</g>
</g>
<!-- Node2 -->
<g id="node2" class="node">
<title>Node2</title>
<g id="a_node2"><a xlink:href="mp__arith_8h.html" target="_top" xlink:title=" ">
<polygon fill="none" stroke="black" points="855.02,-112.5 855.02,-131.5 943.02,-131.5 943.02,-112.5 855.02,-112.5"/>
<text text-anchor="middle" x="899.02" y="-119.5" font-family="Helvetica,sans-Serif" font-size="10.00">util/mp_arith.h</text>
</a>
</g>
</g>
<!-- Node1&#45;&gt;Node2 -->
<g id="edge1" class="edge">
<title>Node1&#45;&gt;Node2</title>
<path fill="none" stroke="midnightblue" d="M839.24,-560.44C885.92,-542.53 939.02,-510.78 939.02,-459 939.02,-459 939.02,-459 939.02,-233 939.02,-198.62 921.54,-161.63 909.69,-140.5"/>
<polygon fill="midnightblue" stroke="midnightblue" points="912.64,-138.61 904.58,-131.73 906.59,-142.13 912.64,-138.61"/>
</g>
<!-- Node6 -->
<g id="node6" class="node">
<title>Node6</title>
<g id="a_node6"><a xlink:href="expr_8h.html" target="_top" xlink:title=" ">
<polygon fill="none" stroke="black" points="407.52,-504.5 407.52,-523.5 472.52,-523.5 472.52,-504.5 407.52,-504.5"/>
<text text-anchor="middle" x="440.02" y="-511.5" font-family="Helvetica,sans-Serif" font-size="10.00">util/expr.h</text>
</a>
</g>
</g>
<!-- Node1&#45;&gt;Node6 -->
<g id="edge5" class="edge">
<title>Node1&#45;&gt;Node6</title>
<path fill="none" stroke="midnightblue" d="M694.31,-565.09C628.7,-552.17 536.14,-533.93 482.68,-523.4"/>
<polygon fill="midnightblue" stroke="midnightblue" points="483.34,-519.97 472.85,-521.47 481.98,-526.83 483.34,-519.97"/>
</g>
<!-- Node39 -->
<g id="node32" class="node">
<title>Node39</title>
<g id="a_node32"><a xlink:href="numbering_8h.html" target="_top" xlink:title=" ">
<polygon fill="none" stroke="black" points="721.52,-280.5 721.52,-299.5 818.52,-299.5 818.52,-280.5 721.52,-280.5"/>
<text text-anchor="middle" x="770.02" y="-287.5" font-family="Helvetica,sans-Serif" font-size="10.00">util/numbering.h</text>
</a>
</g>
</g>
<!-- Node1&#45;&gt;Node39 -->
<g id="edge46" class="edge">
<title>Node1&#45;&gt;Node39</title>
<path fill="none" stroke="midnightblue" d="M770.02,-560.3C770.02,-536.35 770.02,-494.71 770.02,-459 770.02,-459 770.02,-459 770.02,-401 770.02,-368.95 770.02,-331.64 770.02,-309.75"/>
<polygon fill="midnightblue" stroke="midnightblue" points="773.52,-309.56 770.02,-299.56 766.52,-309.56 773.52,-309.56"/>
</g>
<!-- Node3 -->
<g id="node3" class="node">
<title>Node3</title>
<g id="a_node3"><a xlink:title=" ">
<polygon fill="none" stroke="#bfbfbf" points="749.02,-56.5 749.02,-75.5 797.02,-75.5 797.02,-56.5 749.02,-56.5"/>
<text text-anchor="middle" x="773.02" y="-63.5" font-family="Helvetica,sans-Serif" font-size="10.00">iosfwd</text>
</a>
</g>
</g>
<!-- Node2&#45;&gt;Node3 -->
<g id="edge2" class="edge">
<title>Node2&#45;&gt;Node3</title>
<path fill="none" stroke="midnightblue" d="M879.05,-112.44C858.41,-103.6 825.96,-89.69 802.39,-79.59"/>
<polygon fill="midnightblue" stroke="midnightblue" points="803.46,-76.24 792.89,-75.52 800.7,-82.67 803.46,-76.24"/>
</g>
<!-- Node4 -->
<g id="node4" class="node">
<title>Node4</title>
<g id="a_node4"><a xlink:title=" ">
<polygon fill="none" stroke="#bfbfbf" points="632.02,-0.5 632.02,-19.5 676.02,-19.5 676.02,-0.5 632.02,-0.5"/>
<text text-anchor="middle" x="654.02" y="-7.5" font-family="Helvetica,sans-Serif" font-size="10.00">string</text>
</a>
</g>
</g>
<!-- Node2&#45;&gt;Node4 -->
<g id="edge3" class="edge">
<title>Node2&#45;&gt;Node4</title>
<path fill="none" stroke="midnightblue" d="M905.99,-112.39C916.05,-98.88 931.97,-72.53 918.02,-56 888.75,-21.32 750.61,-13.36 686.66,-11.54"/>
<polygon fill="midnightblue" stroke="midnightblue" points="686.42,-8.03 676.34,-11.28 686.25,-15.03 686.42,-8.03"/>
</g>
<!-- Node5 -->
<g id="node5" class="node">
<title>Node5</title>
<g id="a_node5"><a xlink:title=" ">
<polygon fill="none" stroke="#bfbfbf" points="815.02,-56.5 815.02,-75.5 909.02,-75.5 909.02,-56.5 815.02,-56.5"/>
<text text-anchor="middle" x="862.02" y="-63.5" font-family="Helvetica,sans-Serif" font-size="10.00">big&#45;int/bigint.hh</text>
</a>
</g>
</g>
<!-- Node2&#45;&gt;Node5 -->
<g id="edge4" class="edge">
<title>Node2&#45;&gt;Node5</title>
<path fill="none" stroke="midnightblue" d="M892.91,-112.08C887.74,-104.53 880.17,-93.49 873.82,-84.23"/>
<polygon fill="midnightblue" stroke="midnightblue" points="876.55,-82.02 868.01,-75.75 870.78,-85.98 876.55,-82.02"/>
</g>
<!-- Node7 -->
<g id="node7" class="node">
<title>Node7</title>
<g id="a_node7"><a xlink:href="as__const_8h.html" target="_top" xlink:title=" ">
<polygon fill="none" stroke="black" points="341.02,-112.5 341.02,-131.5 409.02,-131.5 409.02,-112.5 341.02,-112.5"/>
<text text-anchor="middle" x="375.02" y="-119.5" font-family="Helvetica,sans-Serif" font-size="10.00">as_const.h</text>
</a>
</g>
</g>
<!-- Node6&#45;&gt;Node7 -->
<g id="edge6" class="edge">
<title>Node6&#45;&gt;Node7</title>
<path fill="none" stroke="midnightblue" d="M425.01,-504.43C390.97,-483.98 308.47,-428.6 278.02,-356 243.99,-274.86 323.03,-177.65 358.69,-139.5"/>
<polygon fill="midnightblue" stroke="midnightblue" points="361.59,-141.54 365.97,-131.9 356.53,-136.7 361.59,-141.54"/>
</g>
<!-- Node8 -->
<g id="node8" class="node">
<title>Node8</title>
<g id="a_node8"><a xlink:href="type_8h.html" target="_top" xlink:title="Defines typet, type_with_subtypet and type_with_subtypest.">
<polygon fill="none" stroke="black" points="416.52,-448.5 416.52,-467.5 463.52,-467.5 463.52,-448.5 416.52,-448.5"/>
<text text-anchor="middle" x="440.02" y="-455.5" font-family="Helvetica,sans-Serif" font-size="10.00">type.h</text>
</a>
</g>
</g>
<!-- Node6&#45;&gt;Node8 -->
<g id="edge7" class="edge">
<title>Node6&#45;&gt;Node8</title>
<path fill="none" stroke="midnightblue" d="M440.02,-504.08C440.02,-497.01 440.02,-486.86 440.02,-477.99"/>
<polygon fill="midnightblue" stroke="midnightblue" points="443.52,-477.75 440.02,-467.75 436.52,-477.75 443.52,-477.75"/>
</g>
<!-- Node35 -->
<g id="node28" class="node">
<title>Node35</title>
<g id="a_node28"><a xlink:href="validation__mode_8h.html" target="_top" xlink:title=" ">
<polygon fill="none" stroke="black" points="287.52,-336.5 287.52,-355.5 394.52,-355.5 394.52,-336.5 287.52,-336.5"/>
<text text-anchor="middle" x="341.02" y="-343.5" font-family="Helvetica,sans-Serif" font-size="10.00">validation_mode.h</text>
</a>
</g>
</g>
<!-- Node6&#45;&gt;Node35 -->
<g id="edge44" class="edge">
<title>Node6&#45;&gt;Node35</title>
<path fill="none" stroke="midnightblue" d="M433.08,-504.28C426.14,-495.39 415.33,-481.08 407.02,-468 384.45,-432.48 361.74,-388.65 349.73,-364.7"/>
<polygon fill="midnightblue" stroke="midnightblue" points="352.86,-363.13 345.28,-355.73 346.59,-366.25 352.86,-363.13"/>
</g>
<!-- Node36 -->
<g id="node29" class="node">
<title>Node36</title>
<g id="a_node29"><a xlink:href="validate__types_8h.html" target="_top" xlink:title=" ">
<polygon fill="none" stroke="black" points="607.02,-392.5 607.02,-411.5 705.02,-411.5 705.02,-392.5 607.02,-392.5"/>
<text text-anchor="middle" x="656.02" y="-399.5" font-family="Helvetica,sans-Serif" font-size="10.00">validate_types.h</text>
</a>
</g>
</g>
<!-- Node6&#45;&gt;Node36 -->
<g id="edge43" class="edge">
<title>Node6&#45;&gt;Node36</title>
<path fill="none" stroke="midnightblue" d="M447.38,-504.1C459.34,-490.19 484.35,-463.31 511.02,-448 538.81,-432.05 572.9,-421.1 601.05,-414"/>
<polygon fill="midnightblue" stroke="midnightblue" points="602.23,-417.31 611.13,-411.55 600.58,-410.51 602.23,-417.31"/>
</g>
<!-- Node37 -->
<g id="node30" class="node">
<title>Node37</title>
<g id="a_node30"><a xlink:href="validate__expressions_8h.html" target="_top" xlink:title=" ">
<polygon fill="none" stroke="black" points="520.52,-448.5 520.52,-467.5 649.52,-467.5 649.52,-448.5 520.52,-448.5"/>
<text text-anchor="middle" x="585.02" y="-455.5" font-family="Helvetica,sans-Serif" font-size="10.00">validate_expressions.h</text>
</a>
</g>
</g>
<!-- Node6&#45;&gt;Node37 -->
<g id="edge42" class="edge">
<title>Node6&#45;&gt;Node37</title>
<path fill="none" stroke="midnightblue" d="M462.99,-504.44C487.18,-495.44 525.44,-481.19 552.66,-471.05"/>
<polygon fill="midnightblue" stroke="midnightblue" points="554,-474.29 562.15,-467.52 551.56,-467.73 554,-474.29"/>
</g>
<!-- Node38 -->
<g id="node31" class="node">
<title>Node38</title>
<g id="a_node31"><a xlink:title=" ">
<polygon fill="none" stroke="#bfbfbf" points="165.52,-448.5 165.52,-467.5 230.52,-467.5 230.52,-448.5 165.52,-448.5"/>
<text text-anchor="middle" x="198.02" y="-455.5" font-family="Helvetica,sans-Serif" font-size="10.00">functional</text>
</a>
</g>
</g>
<!-- Node6&#45;&gt;Node38 -->
<g id="edge45" class="edge">
<title>Node6&#45;&gt;Node38</title>
<path fill="none" stroke="midnightblue" d="M407.38,-505.72C364.23,-496.09 288.12,-479.1 240.52,-468.48"/>
<polygon fill="midnightblue" stroke="midnightblue" points="241.05,-465.02 230.52,-466.25 239.52,-471.85 241.05,-465.02"/>
</g>
<!-- Node9 -->
<g id="node9" class="node">
<title>Node9</title>
<g id="a_node9"><a xlink:href="source__location_8h.html" target="_top" xlink:title=" ">
<polygon fill="none" stroke="black" points="528.02,-280.5 528.02,-299.5 630.02,-299.5 630.02,-280.5 528.02,-280.5"/>
<text text-anchor="middle" x="579.02" y="-287.5" font-family="Helvetica,sans-Serif" font-size="10.00">source_location.h</text>
</a>
</g>
</g>
<!-- Node8&#45;&gt;Node9 -->
<g id="edge8" class="edge">
<title>Node8&#45;&gt;Node9</title>
<path fill="none" stroke="midnightblue" d="M455,-448.48C480.45,-433.25 532.06,-398.88 560.02,-356 569.15,-342 574,-323.5 576.51,-309.82"/>
<polygon fill="midnightblue" stroke="midnightblue" points="580.01,-310.08 578.1,-299.66 573.09,-308.99 580.01,-310.08"/>
</g>
<!-- Node33 -->
<g id="node26" class="node">
<title>Node33</title>
<g id="a_node26"><a xlink:href="validate_8h.html" target="_top" xlink:title=" ">
<polygon fill="none" stroke="black" points="407.52,-392.5 407.52,-411.5 472.52,-411.5 472.52,-392.5 407.52,-392.5"/>
<text text-anchor="middle" x="440.02" y="-399.5" font-family="Helvetica,sans-Serif" font-size="10.00">validate.h</text>
</a>
</g>
</g>
<!-- Node8&#45;&gt;Node33 -->
<g id="edge33" class="edge">
<title>Node8&#45;&gt;Node33</title>
<path fill="none" stroke="midnightblue" d="M440.02,-448.08C440.02,-441.01 440.02,-430.86 440.02,-421.99"/>
<polygon fill="midnightblue" stroke="midnightblue" points="443.52,-421.75 440.02,-411.75 436.52,-421.75 443.52,-421.75"/>
</g>
<!-- Node8&#45;&gt;Node35 -->
<g id="edge41" class="edge">
<title>Node8&#45;&gt;Node35</title>
<path fill="none" stroke="midnightblue" d="M431.89,-448.45C423.37,-439.45 409.63,-424.84 398.02,-412 383.32,-395.75 366.84,-376.89 355.4,-363.68"/>
<polygon fill="midnightblue" stroke="midnightblue" points="357.86,-361.18 348.68,-355.91 352.57,-365.76 357.86,-361.18"/>
</g>
<!-- Node8&#45;&gt;Node36 -->
<g id="edge40" class="edge">
<title>Node8&#45;&gt;Node36</title>
<path fill="none" stroke="midnightblue" d="M463.55,-451.12C499.12,-442.22 567.22,-425.2 612.13,-413.97"/>
<polygon fill="midnightblue" stroke="midnightblue" points="613.05,-417.35 621.9,-411.53 611.35,-410.56 613.05,-417.35"/>
</g>
<!-- Node9&#45;&gt;Node4 -->
<g id="edge32" class="edge">
<title>Node9&#45;&gt;Node4</title>
<path fill="none" stroke="midnightblue" d="M587.69,-280.13C600.55,-267.18 625.67,-242.6 649.02,-224 671.29,-206.26 688.69,-213.16 702.02,-188 730.77,-133.71 688.91,-60.71 666.55,-28.04"/>
<polygon fill="midnightblue" stroke="midnightblue" points="669.22,-25.75 660.58,-19.6 663.5,-29.79 669.22,-25.75"/>
</g>
<!-- Node10 -->
<g id="node10" class="node">
<title>Node10</title>
<g id="a_node10"><a xlink:href="deprecate_8h.html" target="_top" xlink:title=" ">
<polygon fill="none" stroke="black" points="465.02,-224.5 465.02,-243.5 539.02,-243.5 539.02,-224.5 465.02,-224.5"/>
<text text-anchor="middle" x="502.02" y="-231.5" font-family="Helvetica,sans-Serif" font-size="10.00">deprecate.h</text>
</a>
</g>
</g>
<!-- Node9&#45;&gt;Node10 -->
<g id="edge9" class="edge">
<title>Node9&#45;&gt;Node10</title>
<path fill="none" stroke="midnightblue" d="M566.65,-280.32C554.86,-272.06 536.89,-259.45 522.88,-249.63"/>
<polygon fill="midnightblue" stroke="midnightblue" points="524.56,-246.53 514.36,-243.65 520.54,-252.26 524.56,-246.53"/>
</g>
<!-- Node11 -->
<g id="node11" class="node">
<title>Node11</title>
<g id="a_node11"><a xlink:href="irep_8h.html" target="_top" xlink:title=" ">
<polygon fill="none" stroke="black" points="557.02,-224.5 557.02,-243.5 601.02,-243.5 601.02,-224.5 557.02,-224.5"/>
<text text-anchor="middle" x="579.02" y="-231.5" font-family="Helvetica,sans-Serif" font-size="10.00">irep.h</text>
</a>
</g>
</g>
<!-- Node9&#45;&gt;Node11 -->
<g id="edge10" class="edge">
<title>Node9&#45;&gt;Node11</title>
<path fill="none" stroke="midnightblue" d="M579.02,-280.08C579.02,-273.01 579.02,-262.86 579.02,-253.99"/>
<polygon fill="midnightblue" stroke="midnightblue" points="582.52,-253.75 579.02,-243.75 575.52,-253.75 582.52,-253.75"/>
</g>
<!-- Node31 -->
<g id="node24" class="node">
<title>Node31</title>
<g id="a_node24"><a xlink:href="optional_8h.html" target="_top" xlink:title=" ">
<polygon fill="none" stroke="black" points="657.52,-224.5 657.52,-243.5 722.52,-243.5 722.52,-224.5 657.52,-224.5"/>
<text text-anchor="middle" x="690.02" y="-231.5" font-family="Helvetica,sans-Serif" font-size="10.00">optional.h</text>
</a>
</g>
</g>
<!-- Node9&#45;&gt;Node31 -->
<g id="edge30" class="edge">
<title>Node9&#45;&gt;Node31</title>
<path fill="none" stroke="midnightblue" d="M596.85,-280.32C614.73,-271.62 642.49,-258.12 663.06,-248.11"/>
<polygon fill="midnightblue" stroke="midnightblue" points="664.77,-251.18 672.23,-243.65 661.71,-244.88 664.77,-251.18"/>
</g>
<!-- Node11&#45;&gt;Node4 -->
<g id="edge11" class="edge">
<title>Node11&#45;&gt;Node4</title>
<path fill="none" stroke="midnightblue" d="M587.02,-224.22C607.4,-201.73 659.97,-143.09 664.02,-132 676.67,-97.31 667.33,-53.44 660.16,-29.2"/>
<polygon fill="midnightblue" stroke="midnightblue" points="663.46,-28.02 657.11,-19.54 656.79,-30.13 663.46,-28.02"/>
</g>
<!-- Node12 -->
<g id="node12" class="node">
<title>Node12</title>
<g id="a_node12"><a xlink:title=" ">
<polygon fill="none" stroke="#bfbfbf" points="645.52,-168.5 645.52,-187.5 692.52,-187.5 692.52,-168.5 645.52,-168.5"/>
<text text-anchor="middle" x="669.02" y="-175.5" font-family="Helvetica,sans-Serif" font-size="10.00">vector</text>
</a>
</g>
</g>
<!-- Node11&#45;&gt;Node12 -->
<g id="edge12" class="edge">
<title>Node11&#45;&gt;Node12</title>
<path fill="none" stroke="midnightblue" d="M593.48,-224.32C607.52,-215.9 629.07,-202.97 645.56,-193.07"/>
<polygon fill="midnightblue" stroke="midnightblue" points="647.82,-195.8 654.59,-187.65 644.22,-189.8 647.82,-195.8"/>
</g>
<!-- Node13 -->
<g id="node13" class="node">
<title>Node13</title>
<g id="a_node13"><a xlink:href="src_2util_2invariant_8h.html" target="_top" xlink:title=" ">
<polygon fill="none" stroke="black" points="97.52,-56.5 97.52,-75.5 166.52,-75.5 166.52,-56.5 97.52,-56.5"/>
<text text-anchor="middle" x="132.02" y="-63.5" font-family="Helvetica,sans-Serif" font-size="10.00">invariant.h</text>
</a>
</g>
</g>
<!-- Node11&#45;&gt;Node13 -->
<g id="edge13" class="edge">
<title>Node11&#45;&gt;Node13</title>
<path fill="none" stroke="midnightblue" d="M556.79,-226C553.86,-225.24 550.88,-224.54 548.02,-224 462.51,-207.79 223.13,-245.75 158.02,-188 129.04,-162.3 127.98,-112.8 129.89,-85.76"/>
<polygon fill="midnightblue" stroke="midnightblue" points="133.39,-85.96 130.82,-75.68 126.42,-85.32 133.39,-85.96"/>
</g>
<!-- Node17 -->
<g id="node17" class="node">
<title>Node17</title>
<g id="a_node17"><a xlink:href="irep__ids_8h.html" target="_top" xlink:title="util">
<polygon fill="none" stroke="black" points="525.02,-168.5 525.02,-187.5 589.02,-187.5 589.02,-168.5 525.02,-168.5"/>
<text text-anchor="middle" x="557.02" y="-175.5" font-family="Helvetica,sans-Serif" font-size="10.00">irep_ids.h</text>
</a>
</g>
</g>
<!-- Node11&#45;&gt;Node17 -->
<g id="edge18" class="edge">
<title>Node11&#45;&gt;Node17</title>
<path fill="none" stroke="midnightblue" d="M575.39,-224.08C572.41,-216.77 568.09,-206.18 564.39,-197.1"/>
<polygon fill="midnightblue" stroke="midnightblue" points="567.6,-195.69 560.58,-187.75 561.12,-198.33 567.6,-195.69"/>
</g>
<!-- Node27 -->
<g id="node20" class="node">
<title>Node27</title>
<g id="a_node20"><a xlink:href="forward__list__as__map_8h.html" target="_top" xlink:title=" ">
<polygon fill="none" stroke="black" points="167.52,-168.5 167.52,-187.5 294.52,-187.5 294.52,-168.5 167.52,-168.5"/>
<text text-anchor="middle" x="231.02" y="-175.5" font-family="Helvetica,sans-Serif" font-size="10.00">forward_list_as_map.h</text>
</a>
</g>
</g>
<!-- Node11&#45;&gt;Node27 -->
<g id="edge23" class="edge">
<title>Node11&#45;&gt;Node27</title>
<path fill="none" stroke="midnightblue" d="M556.76,-226.13C553.84,-225.35 550.87,-224.61 548.02,-224 465.48,-206.25 369.31,-193.73 304.72,-186.47"/>
<polygon fill="midnightblue" stroke="midnightblue" points="304.96,-182.98 294.64,-185.35 304.19,-189.93 304.96,-182.98"/>
</g>
<!-- Node13&#45;&gt;Node4 -->
<g id="edge16" class="edge">
<title>Node13&#45;&gt;Node4</title>
<path fill="none" stroke="midnightblue" d="M166.67,-61.42C262.28,-51.52 528.83,-23.95 621.65,-14.35"/>
<polygon fill="midnightblue" stroke="midnightblue" points="622.25,-17.81 631.84,-13.29 621.53,-10.84 622.25,-17.81"/>
</g>
<!-- Node14 -->
<g id="node14" class="node">
<title>Node14</title>
<g id="a_node14"><a xlink:title=" ">
<polygon fill="none" stroke="#bfbfbf" points="174.52,-0.5 174.52,-19.5 223.52,-19.5 223.52,-0.5 174.52,-0.5"/>
<text text-anchor="middle" x="199.02" y="-7.5" font-family="Helvetica,sans-Serif" font-size="10.00">cstdlib</text>
</a>
</g>
</g>
<!-- Node13&#45;&gt;Node14 -->
<g id="edge14" class="edge">
<title>Node13&#45;&gt;Node14</title>
<path fill="none" stroke="midnightblue" d="M142.78,-56.32C152.78,-48.26 167.9,-36.08 179.95,-26.37"/>
<polygon fill="midnightblue" stroke="midnightblue" points="182.47,-28.83 188.06,-19.83 178.08,-23.38 182.47,-28.83"/>
</g>
<!-- Node15 -->
<g id="node15" class="node">
<title>Node15</title>
<g id="a_node15"><a xlink:title=" ">
<polygon fill="none" stroke="#bfbfbf" points="100.02,-0.5 100.02,-19.5 156.02,-19.5 156.02,-0.5 100.02,-0.5"/>
<text text-anchor="middle" x="128.02" y="-7.5" font-family="Helvetica,sans-Serif" font-size="10.00">sstream</text>
</a>
</g>
</g>
<!-- Node13&#45;&gt;Node15 -->
<g id="edge15" class="edge">
<title>Node13&#45;&gt;Node15</title>
<path fill="none" stroke="midnightblue" d="M131.36,-56.08C130.83,-49.01 130.08,-38.86 129.42,-29.99"/>
<polygon fill="midnightblue" stroke="midnightblue" points="132.9,-29.47 128.67,-19.75 125.91,-29.98 132.9,-29.47"/>
</g>
<!-- Node16 -->
<g id="node16" class="node">
<title>Node16</title>
<g id="a_node16"><a xlink:title=" ">
<polygon fill="none" stroke="#bfbfbf" points="8.52,-0.5 8.52,-19.5 77.52,-19.5 77.52,-0.5 8.52,-0.5"/>
<text text-anchor="middle" x="43.02" y="-7.5" font-family="Helvetica,sans-Serif" font-size="10.00">type_traits</text>
</a>
</g>
</g>
<!-- Node13&#45;&gt;Node16 -->
<g id="edge17" class="edge">
<title>Node13&#45;&gt;Node16</title>
<path fill="none" stroke="midnightblue" d="M117.72,-56.32C103.84,-47.9 82.53,-34.97 66.21,-25.07"/>
<polygon fill="midnightblue" stroke="midnightblue" points="67.65,-21.85 57.28,-19.65 64.02,-27.83 67.65,-21.85"/>
</g>
<!-- Node18 -->
<g id="node18" class="node">
<title>Node18</title>
<g id="a_node18"><a xlink:href="dstring_8h.html" target="_top" xlink:title="Container for C&#45;Strings.">
<polygon fill="none" stroke="red" points="595.52,-112.5 595.52,-131.5 654.52,-131.5 654.52,-112.5 595.52,-112.5"/>
<text text-anchor="middle" x="625.02" y="-119.5" font-family="Helvetica,sans-Serif" font-size="10.00">dstring.h</text>
</a>
</g>
</g>
<!-- Node17&#45;&gt;Node18 -->
<g id="edge19" class="edge">
<title>Node17&#45;&gt;Node18</title>
<path fill="none" stroke="midnightblue" d="M567.94,-168.32C578.19,-160.18 593.74,-147.84 606.02,-138.09"/>
<polygon fill="midnightblue" stroke="midnightblue" points="608.24,-140.79 613.89,-131.83 603.89,-135.31 608.24,-140.79"/>
</g>
<!-- Node26 -->
<g id="node19" class="node">
<title>Node26</title>
<g id="a_node19"><a xlink:title=" ">
<polygon fill="none" stroke="#bfbfbf" points="503.02,-112.5 503.02,-131.5 577.02,-131.5 577.02,-112.5 503.02,-112.5"/>
<text text-anchor="middle" x="540.02" y="-119.5" font-family="Helvetica,sans-Serif" font-size="10.00">irep_ids.def</text>
</a>
</g>
</g>
<!-- Node17&#45;&gt;Node26 -->
<g id="edge22" class="edge">
<title>Node17&#45;&gt;Node26</title>
<path fill="none" stroke="midnightblue" d="M554.21,-168.08C551.93,-160.85 548.65,-150.41 545.81,-141.4"/>
<polygon fill="midnightblue" stroke="midnightblue" points="549.11,-140.24 542.77,-131.75 542.44,-142.34 549.11,-140.24"/>
</g>
<!-- Node18&#45;&gt;Node3 -->
<g id="edge20" class="edge">
<title>Node18&#45;&gt;Node3</title>
<path fill="none" stroke="midnightblue" d="M648.47,-112.44C673.15,-103.44 712.2,-89.19 740,-79.05"/>
<polygon fill="midnightblue" stroke="midnightblue" points="741.48,-82.23 749.68,-75.52 739.08,-75.66 741.48,-82.23"/>
</g>
<!-- Node18&#45;&gt;Node4 -->
<g id="edge21" class="edge">
<title>Node18&#45;&gt;Node4</title>
<path fill="none" stroke="midnightblue" d="M627.29,-112.37C632,-94.54 642.87,-53.3 649.2,-29.27"/>
<polygon fill="midnightblue" stroke="midnightblue" points="652.59,-30.15 651.75,-19.59 645.82,-28.37 652.59,-30.15"/>
</g>
<!-- Node27&#45;&gt;Node7 -->
<g id="edge26" class="edge">
<title>Node27&#45;&gt;Node7</title>
<path fill="none" stroke="midnightblue" d="M253.84,-168.44C277.85,-159.44 315.85,-145.19 342.89,-135.05"/>
<polygon fill="midnightblue" stroke="midnightblue" points="344.17,-138.3 352.31,-131.52 341.72,-131.75 344.17,-138.3"/>
</g>
<!-- Node28 -->
<g id="node21" class="node">
<title>Node28</title>
<g id="a_node21"><a xlink:title=" ">
<polygon fill="none" stroke="#bfbfbf" points="167.02,-112.5 167.02,-131.5 231.02,-131.5 231.02,-112.5 167.02,-112.5"/>
<text text-anchor="middle" x="199.02" y="-119.5" font-family="Helvetica,sans-Serif" font-size="10.00">algorithm</text>
</a>
</g>
</g>
<!-- Node27&#45;&gt;Node28 -->
<g id="edge24" class="edge">
<title>Node27&#45;&gt;Node28</title>
<path fill="none" stroke="midnightblue" d="M225.73,-168.08C221.31,-160.61 214.86,-149.72 209.4,-140.52"/>
<polygon fill="midnightblue" stroke="midnightblue" points="212.31,-138.57 204.2,-131.75 206.29,-142.14 212.31,-138.57"/>
</g>
<!-- Node29 -->
<g id="node22" class="node">
<title>Node29</title>
<g id="a_node22"><a xlink:title=" ">
<polygon fill="none" stroke="#bfbfbf" points="249.02,-112.5 249.02,-131.5 323.02,-131.5 323.02,-112.5 249.02,-112.5"/>
<text text-anchor="middle" x="286.02" y="-119.5" font-family="Helvetica,sans-Serif" font-size="10.00">forward_list</text>
</a>
</g>
</g>
<!-- Node27&#45;&gt;Node29 -->
<g id="edge25" class="edge">
<title>Node27&#45;&gt;Node29</title>
<path fill="none" stroke="midnightblue" d="M240.1,-168.08C248.19,-160.14 260.21,-148.34 269.93,-138.8"/>
<polygon fill="midnightblue" stroke="midnightblue" points="272.42,-141.25 277.11,-131.75 267.52,-136.26 272.42,-141.25"/>
</g>
<!-- Node30 -->
<g id="node23" class="node">
<title>Node30</title>
<g id="a_node23"><a xlink:href="narrow_8h.html" target="_top" xlink:title=" ">
<polygon fill="none" stroke="black" points="13.52,-112.5 13.52,-131.5 72.52,-131.5 72.52,-112.5 13.52,-112.5"/>
<text text-anchor="middle" x="43.02" y="-119.5" font-family="Helvetica,sans-Serif" font-size="10.00">narrow.h</text>
</a>
</g>
</g>
<!-- Node27&#45;&gt;Node30 -->
<g id="edge27" class="edge">
<title>Node27&#45;&gt;Node30</title>
<path fill="none" stroke="midnightblue" d="M201.23,-168.44C169.19,-159.24 118.08,-144.56 82.67,-134.39"/>
<polygon fill="midnightblue" stroke="midnightblue" points="83.25,-130.91 72.67,-131.52 81.31,-137.64 83.25,-130.91"/>
</g>
<!-- Node30&#45;&gt;Node13 -->
<g id="edge29" class="edge">
<title>Node30&#45;&gt;Node13</title>
<path fill="none" stroke="midnightblue" d="M57.32,-112.32C71.2,-103.9 92.51,-90.97 108.82,-81.07"/>
<polygon fill="midnightblue" stroke="midnightblue" points="111.02,-83.83 117.75,-75.65 107.39,-77.85 111.02,-83.83"/>
</g>
<!-- Node30&#45;&gt;Node16 -->
<g id="edge28" class="edge">
<title>Node30&#45;&gt;Node16</title>
<path fill="none" stroke="midnightblue" d="M43.02,-112.37C43.02,-94.62 43.02,-53.67 43.02,-29.6"/>
<polygon fill="midnightblue" stroke="midnightblue" points="46.52,-29.59 43.02,-19.59 39.52,-29.59 46.52,-29.59"/>
</g>
<!-- Node32 -->
<g id="node25" class="node">
<title>Node32</title>
<g id="a_node25"><a xlink:title=" ">
<polygon fill="none" stroke="#bfbfbf" points="749.52,-168.5 749.52,-187.5 862.52,-187.5 862.52,-168.5 749.52,-168.5"/>
<text text-anchor="middle" x="806.02" y="-175.5" font-family="Helvetica,sans-Serif" font-size="10.00">nonstd/optional.hpp</text>
</a>
</g>
</g>
<!-- Node31&#45;&gt;Node32 -->
<g id="edge31" class="edge">
<title>Node31&#45;&gt;Node32</title>
<path fill="none" stroke="midnightblue" d="M708.4,-224.44C727.23,-215.68 756.75,-201.94 778.4,-191.86"/>
<polygon fill="midnightblue" stroke="midnightblue" points="780.14,-194.91 787.72,-187.52 777.18,-188.56 780.14,-194.91"/>
</g>
<!-- Node33&#45;&gt;Node16 -->
<g id="edge34" class="edge">
<title>Node33&#45;&gt;Node16</title>
<path fill="none" stroke="midnightblue" d="M437.67,-392.19C433.36,-377.9 422.79,-349.87 403.02,-336 325.87,-281.85 282.65,-332.06 194.02,-300 147.21,-283.07 135.07,-276.1 97.02,-244 47.56,-202.28 25.99,-192.86 4.02,-132 -9.28,-95.16 14.59,-51.26 30.5,-27.78"/>
<polygon fill="midnightblue" stroke="midnightblue" points="33.39,-29.76 36.31,-19.58 27.67,-25.72 33.39,-29.76"/>
</g>
<!-- Node34 -->
<g id="node27" class="node">
<title>Node34</title>
<g id="a_node27"><a xlink:href="exception__utils_8h.html" target="_top" xlink:title=" ">
<polygon fill="none" stroke="black" points="451.02,-336.5 451.02,-355.5 551.02,-355.5 551.02,-336.5 451.02,-336.5"/>
<text text-anchor="middle" x="501.02" y="-343.5" font-family="Helvetica,sans-Serif" font-size="10.00">exception_utils.h</text>
</a>
</g>
</g>
<!-- Node33&#45;&gt;Node34 -->
<g id="edge35" class="edge">
<title>Node33&#45;&gt;Node34</title>
<path fill="none" stroke="midnightblue" d="M449.82,-392.32C458.84,-384.34 472.42,-372.31 483.34,-362.65"/>
<polygon fill="midnightblue" stroke="midnightblue" points="485.87,-365.08 491.04,-355.83 481.23,-359.84 485.87,-365.08"/>
</g>
<!-- Node33&#45;&gt;Node35 -->
<g id="edge39" class="edge">
<title>Node33&#45;&gt;Node35</title>
<path fill="none" stroke="midnightblue" d="M424.11,-392.32C408.38,-383.74 384.08,-370.49 365.81,-360.52"/>
<polygon fill="midnightblue" stroke="midnightblue" points="367.34,-357.37 356.88,-355.65 363.99,-363.52 367.34,-357.37"/>
</g>
<!-- Node34&#45;&gt;Node4 -->
<g id="edge36" class="edge">
<title>Node34&#45;&gt;Node4</title>
<path fill="none" stroke="midnightblue" d="M491.57,-336.31C473.77,-318.93 437.02,-277.86 437.02,-235 437.02,-235 437.02,-235 437.02,-121 437.02,-39.12 561.46,-18.17 621.87,-12.82"/>
<polygon fill="midnightblue" stroke="midnightblue" points="622.32,-16.3 632.02,-12.02 621.77,-9.32 622.32,-16.3"/>
</g>
<!-- Node34&#45;&gt;Node9 -->
<g id="edge38" class="edge">
<title>Node34&#45;&gt;Node9</title>
<path fill="none" stroke="midnightblue" d="M513.55,-336.32C525.6,-327.98 544.05,-315.21 558.29,-305.35"/>
<polygon fill="midnightblue" stroke="midnightblue" points="560.29,-308.22 566.52,-299.65 556.3,-302.47 560.29,-308.22"/>
</g>
<!-- Node34&#45;&gt;Node13 -->
<g id="edge37" class="edge">
<title>Node34&#45;&gt;Node13</title>
<path fill="none" stroke="midnightblue" d="M450.76,-336.47C343.33,-317.54 101.02,-270.88 101.02,-235 101.02,-235 101.02,-235 101.02,-177 101.02,-143.41 114.58,-106.14 123.76,-84.75"/>
<polygon fill="midnightblue" stroke="midnightblue" points="126.96,-86.17 127.84,-75.61 120.57,-83.31 126.96,-86.17"/>
</g>
<!-- Node39&#45;&gt;Node12 -->
<g id="edge48" class="edge">
<title>Node39&#45;&gt;Node12</title>
<path fill="none" stroke="midnightblue" d="M771.94,-280.09C774.31,-266.65 776.73,-240.95 765.02,-224 750.66,-203.21 724.1,-191.78 702.55,-185.65"/>
<polygon fill="midnightblue" stroke="midnightblue" points="703.31,-182.23 692.76,-183.12 701.56,-189.01 703.31,-182.23"/>
</g>
<!-- Node39&#45;&gt;Node13 -->
<g id="edge49" class="edge">
<title>Node39&#45;&gt;Node13</title>
<path fill="none" stroke="midnightblue" d="M767.54,-280.17C763.03,-265.86 752.04,-237.8 732.02,-224 651.88,-168.77 605.18,-227.01 516.02,-188 465.52,-165.91 468.62,-133.86 418.02,-112 337.88,-77.37 234.83,-69.02 176.85,-67.23"/>
<polygon fill="midnightblue" stroke="midnightblue" points="176.65,-63.72 166.56,-66.96 176.47,-70.72 176.65,-63.72"/>
</g>
<!-- Node39&#45;&gt;Node31 -->
<g id="edge50" class="edge">
<title>Node39&#45;&gt;Node31</title>
<path fill="none" stroke="midnightblue" d="M757.16,-280.32C744.8,-271.98 725.89,-259.21 711.28,-249.35"/>
<polygon fill="midnightblue" stroke="midnightblue" points="713.09,-246.35 702.84,-243.65 709.17,-252.15 713.09,-246.35"/>
</g>
<!-- Node23 -->
<g id="node33" class="node">
<title>Node23</title>
<g id="a_node33"><a xlink:title=" ">
<polygon fill="none" stroke="#bfbfbf" points="817.52,-224.5 817.52,-243.5 910.52,-243.5 910.52,-224.5 817.52,-224.5"/>
<text text-anchor="middle" x="864.02" y="-231.5" font-family="Helvetica,sans-Serif" font-size="10.00">unordered_map</text>
</a>
</g>
</g>
<!-- Node39&#45;&gt;Node23 -->
<g id="edge47" class="edge">
<title>Node39&#45;&gt;Node23</title>
<path fill="none" stroke="midnightblue" d="M785.12,-280.32C799.92,-271.82 822.71,-258.73 840,-248.8"/>
<polygon fill="midnightblue" stroke="midnightblue" points="842.03,-251.67 848.95,-243.65 838.54,-245.6 842.03,-251.67"/>
</g>
</g>
</svg>
