<?xml version="1.0" encoding="UTF-8" standalone="no"?>
<!DOCTYPE svg PUBLIC "-//W3C//DTD SVG 1.1//EN"
 "http://www.w3.org/Graphics/SVG/1.1/DTD/svg11.dtd">
<!-- Generated by graphviz version 2.43.0 (0)
 -->
<!-- Title: /home/runner/work/cbmc/cbmc/src/util/pointer_offset_size.h Pages: 1 -->
<svg width="917pt" height="386pt"
 viewBox="0.00 0.00 917.03 386.00" xmlns="http://www.w3.org/2000/svg" xmlns:xlink="http://www.w3.org/1999/xlink">
<g id="graph0" class="graph" transform="scale(1 1) rotate(0) translate(4 382)">
<title>/home/runner/work/cbmc/cbmc/src/util/pointer_offset_size.h</title>
<!-- Node1 -->
<g id="node1" class="node">
<title>Node1</title>
<g id="a_node1"><a xlink:title="Pointer Logic.">
<polygon fill="#bfbfbf" stroke="black" points="611.03,-336.5 611.03,-377.5 749.03,-377.5 749.03,-336.5 611.03,-336.5"/>
<text text-anchor="start" x="619.03" y="-365.5" font-family="Helvetica,sans-Serif" font-size="10.00">/home/runner/work/cbmc</text>
<text text-anchor="start" x="619.03" y="-354.5" font-family="Helvetica,sans-Serif" font-size="10.00">/cbmc/src/util/pointer</text>
<text text-anchor="middle" x="680.03" y="-343.5" font-family="Helvetica,sans-Serif" font-size="10.00">_offset_size.h</text>
</a>
</g>
</g>
<!-- Node2 -->
<g id="node2" class="node">
<title>Node2</title>
<g id="a_node2"><a xlink:href="irep_8h.html" target="_top" xlink:title=" ">
<polygon fill="none" stroke="black" points="298.03,-280.5 298.03,-299.5 342.03,-299.5 342.03,-280.5 298.03,-280.5"/>
<text text-anchor="middle" x="320.03" y="-287.5" font-family="Helvetica,sans-Serif" font-size="10.00">irep.h</text>
</a>
</g>
</g>
<!-- Node1&#45;&gt;Node2 -->
<g id="edge1" class="edge">
<title>Node1&#45;&gt;Node2</title>
<path fill="none" stroke="midnightblue" d="M610.61,-343.47C532.9,-329.44 410.3,-307.3 352.38,-296.84"/>
<polygon fill="midnightblue" stroke="midnightblue" points="352.8,-293.36 342.34,-295.03 351.56,-300.25 352.8,-293.36"/>
</g>
<!-- Node25 -->
<g id="node25" class="node">
<title>Node25</title>
<g id="a_node25"><a xlink:href="mp__arith_8h.html" target="_top" xlink:title=" ">
<polygon fill="none" stroke="black" points="734.53,-168.5 734.53,-187.5 803.53,-187.5 803.53,-168.5 734.53,-168.5"/>
<text text-anchor="middle" x="769.03" y="-175.5" font-family="Helvetica,sans-Serif" font-size="10.00">mp_arith.h</text>
</a>
</g>
</g>
<!-- Node1&#45;&gt;Node25 -->
<g id="edge32" class="edge">
<title>Node1&#45;&gt;Node25</title>
<path fill="none" stroke="midnightblue" d="M678.04,-336.36C676.26,-308.94 676.74,-258.67 699.03,-224 708.04,-209.98 723.14,-199.45 737.02,-192.12"/>
<polygon fill="midnightblue" stroke="midnightblue" points="738.9,-195.1 746.34,-187.56 735.82,-188.81 738.9,-195.1"/>
</g>
<!-- Node27 -->
<g id="node27" class="node">
<title>Node27</title>
<g id="a_node27"><a xlink:href="optional_8h.html" target="_top" xlink:title=" ">
<polygon fill="none" stroke="black" points="720.53,-280.5 720.53,-299.5 785.53,-299.5 785.53,-280.5 720.53,-280.5"/>
<text text-anchor="middle" x="753.03" y="-287.5" font-family="Helvetica,sans-Serif" font-size="10.00">optional.h</text>
</a>
</g>
</g>
<!-- Node1&#45;&gt;Node27 -->
<g id="edge36" class="edge">
<title>Node1&#45;&gt;Node27</title>
<path fill="none" stroke="midnightblue" d="M701.93,-336.5C712.69,-326.92 725.48,-315.53 735.57,-306.54"/>
<polygon fill="midnightblue" stroke="midnightblue" points="738.17,-308.92 743.31,-299.65 733.51,-303.69 738.17,-308.92"/>
</g>
<!-- Node3 -->
<g id="node3" class="node">
<title>Node3</title>
<g id="a_node3"><a xlink:title=" ">
<polygon fill="none" stroke="#bfbfbf" points="424.03,-0.5 424.03,-19.5 468.03,-19.5 468.03,-0.5 424.03,-0.5"/>
<text text-anchor="middle" x="446.03" y="-7.5" font-family="Helvetica,sans-Serif" font-size="10.00">string</text>
</a>
</g>
</g>
<!-- Node2&#45;&gt;Node3 -->
<g id="edge2" class="edge">
<title>Node2&#45;&gt;Node3</title>
<path fill="none" stroke="midnightblue" d="M297.85,-286.25C225.5,-276.68 1.03,-241.9 1.03,-179 1.03,-179 1.03,-179 1.03,-121 1.03,-90.9 -3.08,-75.29 20.03,-56 50.12,-30.87 319.68,-16.61 413.79,-12.36"/>
<polygon fill="midnightblue" stroke="midnightblue" points="414.02,-15.85 423.86,-11.91 413.71,-8.86 414.02,-15.85"/>
</g>
<!-- Node4 -->
<g id="node4" class="node">
<title>Node4</title>
<g id="a_node4"><a xlink:title=" ">
<polygon fill="none" stroke="#bfbfbf" points="29.53,-56.5 29.53,-75.5 76.53,-75.5 76.53,-56.5 29.53,-56.5"/>
<text text-anchor="middle" x="53.03" y="-63.5" font-family="Helvetica,sans-Serif" font-size="10.00">vector</text>
</a>
</g>
</g>
<!-- Node2&#45;&gt;Node4 -->
<g id="edge3" class="edge">
<title>Node2&#45;&gt;Node4</title>
<path fill="none" stroke="midnightblue" d="M301.23,-280.44C269.38,-265.27 203.99,-231.14 160.03,-188 131.17,-159.68 137.35,-141.8 110.03,-112 99.54,-100.56 85.95,-89.72 74.68,-81.54"/>
<polygon fill="midnightblue" stroke="midnightblue" points="76.43,-78.49 66.24,-75.6 72.4,-84.22 76.43,-78.49"/>
</g>
<!-- Node5 -->
<g id="node5" class="node">
<title>Node5</title>
<g id="a_node5"><a xlink:href="src_2util_2invariant_8h.html" target="_top" xlink:title=" ">
<polygon fill="none" stroke="black" points="572.53,-112.5 572.53,-131.5 641.53,-131.5 641.53,-112.5 572.53,-112.5"/>
<text text-anchor="middle" x="607.03" y="-119.5" font-family="Helvetica,sans-Serif" font-size="10.00">invariant.h</text>
</a>
</g>
</g>
<!-- Node2&#45;&gt;Node5 -->
<g id="edge4" class="edge">
<title>Node2&#45;&gt;Node5</title>
<path fill="none" stroke="midnightblue" d="M322.42,-280.14C329.44,-254.84 350.62,-183.08 369.03,-168 398.01,-144.25 501.95,-131.76 562.46,-126.36"/>
<polygon fill="midnightblue" stroke="midnightblue" points="562.84,-129.84 572.51,-125.5 562.24,-122.87 562.84,-129.84"/>
</g>
<!-- Node9 -->
<g id="node9" class="node">
<title>Node9</title>
<g id="a_node9"><a xlink:href="irep__ids_8h.html" target="_top" xlink:title="util">
<polygon fill="none" stroke="black" points="258.03,-224.5 258.03,-243.5 322.03,-243.5 322.03,-224.5 258.03,-224.5"/>
<text text-anchor="middle" x="290.03" y="-231.5" font-family="Helvetica,sans-Serif" font-size="10.00">irep_ids.h</text>
</a>
</g>
</g>
<!-- Node2&#45;&gt;Node9 -->
<g id="edge9" class="edge">
<title>Node2&#45;&gt;Node9</title>
<path fill="none" stroke="midnightblue" d="M315.07,-280.08C310.92,-272.61 304.87,-261.72 299.76,-252.52"/>
<polygon fill="midnightblue" stroke="midnightblue" points="302.8,-250.79 294.89,-243.75 296.68,-254.19 302.8,-250.79"/>
</g>
<!-- Node20 -->
<g id="node20" class="node">
<title>Node20</title>
<g id="a_node20"><a xlink:href="forward__list__as__map_8h.html" target="_top" xlink:title=" ">
<polygon fill="none" stroke="black" points="432.53,-224.5 432.53,-243.5 559.53,-243.5 559.53,-224.5 432.53,-224.5"/>
<text text-anchor="middle" x="496.03" y="-231.5" font-family="Helvetica,sans-Serif" font-size="10.00">forward_list_as_map.h</text>
</a>
</g>
</g>
<!-- Node2&#45;&gt;Node20 -->
<g id="edge25" class="edge">
<title>Node2&#45;&gt;Node20</title>
<path fill="none" stroke="midnightblue" d="M342.32,-282.16C371.44,-273.22 422.89,-257.44 458.18,-246.61"/>
<polygon fill="midnightblue" stroke="midnightblue" points="459.59,-249.84 468.12,-243.56 457.54,-243.15 459.59,-249.84"/>
</g>
<!-- Node5&#45;&gt;Node3 -->
<g id="edge7" class="edge">
<title>Node5&#45;&gt;Node3</title>
<path fill="none" stroke="midnightblue" d="M617.75,-112.42C632.74,-99.4 656.56,-74.25 642.03,-56 621.92,-30.76 528.66,-18.51 478.37,-13.65"/>
<polygon fill="midnightblue" stroke="midnightblue" points="478.61,-10.15 468.33,-12.72 477.97,-17.12 478.61,-10.15"/>
</g>
<!-- Node6 -->
<g id="node6" class="node">
<title>Node6</title>
<g id="a_node6"><a xlink:title=" ">
<polygon fill="none" stroke="#bfbfbf" points="509.53,-56.5 509.53,-75.5 558.53,-75.5 558.53,-56.5 509.53,-56.5"/>
<text text-anchor="middle" x="534.03" y="-63.5" font-family="Helvetica,sans-Serif" font-size="10.00">cstdlib</text>
</a>
</g>
</g>
<!-- Node5&#45;&gt;Node6 -->
<g id="edge5" class="edge">
<title>Node5&#45;&gt;Node6</title>
<path fill="none" stroke="midnightblue" d="M595.3,-112.32C584.19,-104.11 567.28,-91.6 554.04,-81.81"/>
<polygon fill="midnightblue" stroke="midnightblue" points="556.09,-78.97 545.97,-75.83 551.93,-84.59 556.09,-78.97"/>
</g>
<!-- Node7 -->
<g id="node7" class="node">
<title>Node7</title>
<g id="a_node7"><a xlink:title=" ">
<polygon fill="none" stroke="#bfbfbf" points="577.03,-56.5 577.03,-75.5 633.03,-75.5 633.03,-56.5 577.03,-56.5"/>
<text text-anchor="middle" x="605.03" y="-63.5" font-family="Helvetica,sans-Serif" font-size="10.00">sstream</text>
</a>
</g>
</g>
<!-- Node5&#45;&gt;Node7 -->
<g id="edge6" class="edge">
<title>Node5&#45;&gt;Node7</title>
<path fill="none" stroke="midnightblue" d="M606.69,-112.08C606.43,-105.01 606.06,-94.86 605.73,-85.99"/>
<polygon fill="midnightblue" stroke="midnightblue" points="609.22,-85.61 605.35,-75.75 602.22,-85.87 609.22,-85.61"/>
</g>
<!-- Node8 -->
<g id="node8" class="node">
<title>Node8</title>
<g id="a_node8"><a xlink:title=" ">
<polygon fill="none" stroke="#bfbfbf" points="689.53,-56.5 689.53,-75.5 758.53,-75.5 758.53,-56.5 689.53,-56.5"/>
<text text-anchor="middle" x="724.03" y="-63.5" font-family="Helvetica,sans-Serif" font-size="10.00">type_traits</text>
</a>
</g>
</g>
<!-- Node5&#45;&gt;Node8 -->
<g id="edge8" class="edge">
<title>Node5&#45;&gt;Node8</title>
<path fill="none" stroke="midnightblue" d="M625.56,-112.44C644.65,-103.64 674.6,-89.81 696.46,-79.72"/>
<polygon fill="midnightblue" stroke="midnightblue" points="697.96,-82.88 705.57,-75.52 695.03,-76.53 697.96,-82.88"/>
</g>
<!-- Node10 -->
<g id="node10" class="node">
<title>Node10</title>
<g id="a_node10"><a xlink:href="dstring_8h.html" target="_top" xlink:title="Container for C&#45;Strings.">
<polygon fill="none" stroke="black" points="261.53,-168.5 261.53,-187.5 320.53,-187.5 320.53,-168.5 261.53,-168.5"/>
<text text-anchor="middle" x="291.03" y="-175.5" font-family="Helvetica,sans-Serif" font-size="10.00">dstring.h</text>
</a>
</g>
</g>
<!-- Node9&#45;&gt;Node10 -->
<g id="edge10" class="edge">
<title>Node9&#45;&gt;Node10</title>
<path fill="none" stroke="midnightblue" d="M290.19,-224.08C290.32,-217.01 290.51,-206.86 290.67,-197.99"/>
<polygon fill="midnightblue" stroke="midnightblue" points="294.18,-197.81 290.86,-187.75 287.18,-197.68 294.18,-197.81"/>
</g>
<!-- Node19 -->
<g id="node19" class="node">
<title>Node19</title>
<g id="a_node19"><a xlink:title=" ">
<polygon fill="none" stroke="#bfbfbf" points="169.03,-168.5 169.03,-187.5 243.03,-187.5 243.03,-168.5 169.03,-168.5"/>
<text text-anchor="middle" x="206.03" y="-175.5" font-family="Helvetica,sans-Serif" font-size="10.00">irep_ids.def</text>
</a>
</g>
</g>
<!-- Node9&#45;&gt;Node19 -->
<g id="edge24" class="edge">
<title>Node9&#45;&gt;Node19</title>
<path fill="none" stroke="midnightblue" d="M276.53,-224.32C263.43,-215.9 243.31,-202.97 227.92,-193.07"/>
<polygon fill="midnightblue" stroke="midnightblue" points="229.79,-190.12 219.49,-187.65 226.01,-196.01 229.79,-190.12"/>
</g>
<!-- Node10&#45;&gt;Node3 -->
<g id="edge12" class="edge">
<title>Node10&#45;&gt;Node3</title>
<path fill="none" stroke="midnightblue" d="M320.84,-169.33C361.21,-157.15 431.69,-129.15 462.03,-76 470.46,-61.22 464.01,-42.08 456.94,-28.4"/>
<polygon fill="midnightblue" stroke="midnightblue" points="459.89,-26.5 451.89,-19.55 453.81,-29.97 459.89,-26.5"/>
</g>
<!-- Node11 -->
<g id="node11" class="node">
<title>Node11</title>
<g id="a_node11"><a xlink:title=" ">
<polygon fill="none" stroke="#bfbfbf" points="707.03,-112.5 707.03,-131.5 755.03,-131.5 755.03,-112.5 707.03,-112.5"/>
<text text-anchor="middle" x="731.03" y="-119.5" font-family="Helvetica,sans-Serif" font-size="10.00">iosfwd</text>
</a>
</g>
</g>
<!-- Node10&#45;&gt;Node11 -->
<g id="edge11" class="edge">
<title>Node10&#45;&gt;Node11</title>
<path fill="none" stroke="midnightblue" d="M320.58,-173.37C399.2,-163.72 613.2,-137.46 696.86,-127.19"/>
<polygon fill="midnightblue" stroke="midnightblue" points="697.36,-130.66 706.86,-125.97 696.51,-123.71 697.36,-130.66"/>
</g>
<!-- Node12 -->
<g id="node12" class="node">
<title>Node12</title>
<g id="a_node12"><a xlink:href="magic_8h.html" target="_top" xlink:title="Magic numbers used throughout the codebase.">
<polygon fill="none" stroke="black" points="45.03,-112.5 45.03,-131.5 101.03,-131.5 101.03,-112.5 45.03,-112.5"/>
<text text-anchor="middle" x="73.03" y="-119.5" font-family="Helvetica,sans-Serif" font-size="10.00">magic.h</text>
</a>
</g>
</g>
<!-- Node10&#45;&gt;Node12 -->
<g id="edge13" class="edge">
<title>Node10&#45;&gt;Node12</title>
<path fill="none" stroke="midnightblue" d="M261.17,-169.6C222.09,-159.92 153.56,-142.95 110.88,-132.38"/>
<polygon fill="midnightblue" stroke="midnightblue" points="111.69,-128.97 101.14,-129.96 110,-135.77 111.69,-128.97"/>
</g>
<!-- Node14 -->
<g id="node14" class="node">
<title>Node14</title>
<g id="a_node14"><a xlink:href="string__container_8h.html" target="_top" xlink:title="Container for C&#45;Strings.">
<polygon fill="none" stroke="black" points="206.03,-112.5 206.03,-131.5 310.03,-131.5 310.03,-112.5 206.03,-112.5"/>
<text text-anchor="middle" x="258.03" y="-119.5" font-family="Helvetica,sans-Serif" font-size="10.00">string_container.h</text>
</a>
</g>
</g>
<!-- Node10&#45;&gt;Node14 -->
<g id="edge15" class="edge">
<title>Node10&#45;&gt;Node14</title>
<path fill="none" stroke="midnightblue" d="M285.58,-168.08C281.01,-160.61 274.36,-149.72 268.73,-140.52"/>
<polygon fill="midnightblue" stroke="midnightblue" points="271.57,-138.46 263.37,-131.75 265.6,-142.11 271.57,-138.46"/>
</g>
<!-- Node13 -->
<g id="node13" class="node">
<title>Node13</title>
<g id="a_node13"><a xlink:title=" ">
<polygon fill="none" stroke="#bfbfbf" points="26.53,-0.5 26.53,-19.5 79.53,-19.5 79.53,-0.5 26.53,-0.5"/>
<text text-anchor="middle" x="53.03" y="-7.5" font-family="Helvetica,sans-Serif" font-size="10.00">cstddef</text>
</a>
</g>
</g>
<!-- Node12&#45;&gt;Node13 -->
<g id="edge14" class="edge">
<title>Node12&#45;&gt;Node13</title>
<path fill="none" stroke="midnightblue" d="M56.69,-112.39C44.07,-104.72 27.53,-92.21 20.03,-76 12.19,-59.07 24.32,-40.09 36.02,-27.03"/>
<polygon fill="midnightblue" stroke="midnightblue" points="38.64,-29.36 43.07,-19.73 33.6,-24.49 38.64,-29.36"/>
</g>
<!-- Node14&#45;&gt;Node4 -->
<g id="edge18" class="edge">
<title>Node14&#45;&gt;Node4</title>
<path fill="none" stroke="midnightblue" d="M225.02,-112.47C192.34,-104.01 140.61,-90.54 86.57,-76.12"/>
<polygon fill="midnightblue" stroke="midnightblue" points="87.37,-72.72 76.81,-73.52 85.57,-79.48 87.37,-72.72"/>
</g>
<!-- Node15 -->
<g id="node15" class="node">
<title>Node15</title>
<g id="a_node15"><a xlink:title=" ">
<polygon fill="none" stroke="#bfbfbf" points="209.03,-56.5 209.03,-75.5 241.03,-75.5 241.03,-56.5 209.03,-56.5"/>
<text text-anchor="middle" x="225.03" y="-63.5" font-family="Helvetica,sans-Serif" font-size="10.00">list</text>
</a>
</g>
</g>
<!-- Node14&#45;&gt;Node15 -->
<g id="edge16" class="edge">
<title>Node14&#45;&gt;Node15</title>
<path fill="none" stroke="midnightblue" d="M252.58,-112.08C248.01,-104.61 241.36,-93.72 235.73,-84.52"/>
<polygon fill="midnightblue" stroke="midnightblue" points="238.57,-82.46 230.37,-75.75 232.6,-86.11 238.57,-82.46"/>
</g>
<!-- Node16 -->
<g id="node16" class="node">
<title>Node16</title>
<g id="a_node16"><a xlink:title=" ">
<polygon fill="none" stroke="#bfbfbf" points="259.53,-56.5 259.53,-75.5 352.53,-75.5 352.53,-56.5 259.53,-56.5"/>
<text text-anchor="middle" x="306.03" y="-63.5" font-family="Helvetica,sans-Serif" font-size="10.00">unordered_map</text>
</a>
</g>
</g>
<!-- Node14&#45;&gt;Node16 -->
<g id="edge17" class="edge">
<title>Node14&#45;&gt;Node16</title>
<path fill="none" stroke="midnightblue" d="M265.95,-112.08C272.87,-104.3 283.09,-92.8 291.48,-83.37"/>
<polygon fill="midnightblue" stroke="midnightblue" points="294.22,-85.55 298.25,-75.75 288.99,-80.9 294.22,-85.55"/>
</g>
<!-- Node17 -->
<g id="node17" class="node">
<title>Node17</title>
<g id="a_node17"><a xlink:href="memory__units_8h.html" target="_top" xlink:title=" ">
<polygon fill="none" stroke="black" points="95.03,-56.5 95.03,-75.5 191.03,-75.5 191.03,-56.5 95.03,-56.5"/>
<text text-anchor="middle" x="143.03" y="-63.5" font-family="Helvetica,sans-Serif" font-size="10.00">memory_units.h</text>
</a>
</g>
</g>
<!-- Node14&#45;&gt;Node17 -->
<g id="edge19" class="edge">
<title>Node14&#45;&gt;Node17</title>
<path fill="none" stroke="midnightblue" d="M239.8,-112.44C221.13,-103.68 191.87,-89.94 170.41,-79.86"/>
<polygon fill="midnightblue" stroke="midnightblue" points="171.7,-76.6 161.16,-75.52 168.73,-82.93 171.7,-76.6"/>
</g>
<!-- Node18 -->
<g id="node18" class="node">
<title>Node18</title>
<g id="a_node18"><a xlink:href="string__hash_8h.html" target="_top" xlink:title="string hashing">
<polygon fill="none" stroke="black" points="371.03,-56.5 371.03,-75.5 453.03,-75.5 453.03,-56.5 371.03,-56.5"/>
<text text-anchor="middle" x="412.03" y="-63.5" font-family="Helvetica,sans-Serif" font-size="10.00">string_hash.h</text>
</a>
</g>
</g>
<!-- Node14&#45;&gt;Node18 -->
<g id="edge22" class="edge">
<title>Node14&#45;&gt;Node18</title>
<path fill="none" stroke="midnightblue" d="M282.43,-112.44C308.22,-103.4 349.1,-89.06 378.04,-78.92"/>
<polygon fill="midnightblue" stroke="midnightblue" points="379.46,-82.13 387.74,-75.52 377.14,-75.52 379.46,-82.13"/>
</g>
<!-- Node17&#45;&gt;Node3 -->
<g id="edge21" class="edge">
<title>Node17&#45;&gt;Node3</title>
<path fill="none" stroke="midnightblue" d="M191.04,-56.44C253.46,-45.32 360.77,-26.19 414.07,-16.7"/>
<polygon fill="midnightblue" stroke="midnightblue" points="414.75,-20.13 423.98,-14.93 413.52,-13.24 414.75,-20.13"/>
</g>
<!-- Node17&#45;&gt;Node13 -->
<g id="edge20" class="edge">
<title>Node17&#45;&gt;Node13</title>
<path fill="none" stroke="midnightblue" d="M128.57,-56.32C114.53,-47.9 92.98,-34.97 76.48,-25.07"/>
<polygon fill="midnightblue" stroke="midnightblue" points="77.83,-21.8 67.45,-19.65 74.22,-27.8 77.83,-21.8"/>
</g>
<!-- Node18&#45;&gt;Node3 -->
<g id="edge23" class="edge">
<title>Node18&#45;&gt;Node3</title>
<path fill="none" stroke="midnightblue" d="M417.64,-56.08C422.39,-48.53 429.34,-37.49 435.18,-28.23"/>
<polygon fill="midnightblue" stroke="midnightblue" points="438.15,-30.08 440.52,-19.75 432.23,-26.35 438.15,-30.08"/>
</g>
<!-- Node21 -->
<g id="node21" class="node">
<title>Node21</title>
<g id="a_node21"><a xlink:title=" ">
<polygon fill="none" stroke="#bfbfbf" points="464.03,-168.5 464.03,-187.5 528.03,-187.5 528.03,-168.5 464.03,-168.5"/>
<text text-anchor="middle" x="496.03" y="-175.5" font-family="Helvetica,sans-Serif" font-size="10.00">algorithm</text>
</a>
</g>
</g>
<!-- Node20&#45;&gt;Node21 -->
<g id="edge26" class="edge">
<title>Node20&#45;&gt;Node21</title>
<path fill="none" stroke="midnightblue" d="M496.03,-224.08C496.03,-217.01 496.03,-206.86 496.03,-197.99"/>
<polygon fill="midnightblue" stroke="midnightblue" points="499.53,-197.75 496.03,-187.75 492.53,-197.75 499.53,-197.75"/>
</g>
<!-- Node22 -->
<g id="node22" class="node">
<title>Node22</title>
<g id="a_node22"><a xlink:title=" ">
<polygon fill="none" stroke="#bfbfbf" points="546.03,-168.5 546.03,-187.5 620.03,-187.5 620.03,-168.5 546.03,-168.5"/>
<text text-anchor="middle" x="583.03" y="-175.5" font-family="Helvetica,sans-Serif" font-size="10.00">forward_list</text>
</a>
</g>
</g>
<!-- Node20&#45;&gt;Node22 -->
<g id="edge27" class="edge">
<title>Node20&#45;&gt;Node22</title>
<path fill="none" stroke="midnightblue" d="M510,-224.32C523.57,-215.9 544.41,-202.97 560.35,-193.07"/>
<polygon fill="midnightblue" stroke="midnightblue" points="562.43,-195.9 569.08,-187.65 558.74,-189.95 562.43,-195.9"/>
</g>
<!-- Node23 -->
<g id="node23" class="node">
<title>Node23</title>
<g id="a_node23"><a xlink:href="as__const_8h.html" target="_top" xlink:title=" ">
<polygon fill="none" stroke="black" points="378.03,-168.5 378.03,-187.5 446.03,-187.5 446.03,-168.5 378.03,-168.5"/>
<text text-anchor="middle" x="412.03" y="-175.5" font-family="Helvetica,sans-Serif" font-size="10.00">as_const.h</text>
</a>
</g>
</g>
<!-- Node20&#45;&gt;Node23 -->
<g id="edge28" class="edge">
<title>Node20&#45;&gt;Node23</title>
<path fill="none" stroke="midnightblue" d="M482.53,-224.32C469.43,-215.9 449.31,-202.97 433.92,-193.07"/>
<polygon fill="midnightblue" stroke="midnightblue" points="435.79,-190.12 425.49,-187.65 432.01,-196.01 435.79,-190.12"/>
</g>
<!-- Node24 -->
<g id="node24" class="node">
<title>Node24</title>
<g id="a_node24"><a xlink:href="narrow_8h.html" target="_top" xlink:title=" ">
<polygon fill="none" stroke="black" points="638.53,-168.5 638.53,-187.5 697.53,-187.5 697.53,-168.5 638.53,-168.5"/>
<text text-anchor="middle" x="668.03" y="-175.5" font-family="Helvetica,sans-Serif" font-size="10.00">narrow.h</text>
</a>
</g>
</g>
<!-- Node20&#45;&gt;Node24 -->
<g id="edge29" class="edge">
<title>Node20&#45;&gt;Node24</title>
<path fill="none" stroke="midnightblue" d="M523.28,-224.44C552.47,-215.28 598.95,-200.69 631.33,-190.52"/>
<polygon fill="midnightblue" stroke="midnightblue" points="632.41,-193.85 640.9,-187.52 630.31,-187.17 632.41,-193.85"/>
</g>
<!-- Node24&#45;&gt;Node5 -->
<g id="edge31" class="edge">
<title>Node24&#45;&gt;Node5</title>
<path fill="none" stroke="midnightblue" d="M658.22,-168.32C649.21,-160.34 635.62,-148.31 624.71,-138.65"/>
<polygon fill="midnightblue" stroke="midnightblue" points="626.81,-135.84 617,-131.83 622.17,-141.08 626.81,-135.84"/>
</g>
<!-- Node24&#45;&gt;Node8 -->
<g id="edge30" class="edge">
<title>Node24&#45;&gt;Node8</title>
<path fill="none" stroke="midnightblue" d="M671.67,-168.47C677.08,-155.93 687.73,-131.86 698.03,-112 702.8,-102.79 708.53,-92.77 713.4,-84.53"/>
<polygon fill="midnightblue" stroke="midnightblue" points="716.47,-86.21 718.6,-75.83 710.46,-82.62 716.47,-86.21"/>
</g>
<!-- Node25&#45;&gt;Node3 -->
<g id="edge34" class="edge">
<title>Node25&#45;&gt;Node3</title>
<path fill="none" stroke="midnightblue" d="M772.3,-168.36C779.98,-146.49 796.43,-88.37 768.03,-56 730.51,-13.23 552.41,-9.92 478.4,-10.44"/>
<polygon fill="midnightblue" stroke="midnightblue" points="478.23,-6.94 468.26,-10.54 478.3,-13.94 478.23,-6.94"/>
</g>
<!-- Node25&#45;&gt;Node11 -->
<g id="edge33" class="edge">
<title>Node25&#45;&gt;Node11</title>
<path fill="none" stroke="midnightblue" d="M762.75,-168.08C757.38,-160.46 749.51,-149.26 742.95,-139.94"/>
<polygon fill="midnightblue" stroke="midnightblue" points="745.8,-137.91 737.18,-131.75 740.08,-141.94 745.8,-137.91"/>
</g>
<!-- Node26 -->
<g id="node26" class="node">
<title>Node26</title>
<g id="a_node26"><a xlink:title=" ">
<polygon fill="none" stroke="#bfbfbf" points="815.03,-112.5 815.03,-131.5 909.03,-131.5 909.03,-112.5 815.03,-112.5"/>
<text text-anchor="middle" x="862.03" y="-119.5" font-family="Helvetica,sans-Serif" font-size="10.00">big&#45;int/bigint.hh</text>
</a>
</g>
</g>
<!-- Node25&#45;&gt;Node26 -->
<g id="edge35" class="edge">
<title>Node25&#45;&gt;Node26</title>
<path fill="none" stroke="midnightblue" d="M783.97,-168.32C798.61,-159.82 821.16,-146.73 838.26,-136.8"/>
<polygon fill="midnightblue" stroke="midnightblue" points="840.23,-139.7 847.12,-131.65 836.71,-133.65 840.23,-139.7"/>
</g>
<!-- Node28 -->
<g id="node28" class="node">
<title>Node28</title>
<g id="a_node28"><a xlink:title=" ">
<polygon fill="none" stroke="#bfbfbf" points="708.53,-224.5 708.53,-243.5 821.53,-243.5 821.53,-224.5 708.53,-224.5"/>
<text text-anchor="middle" x="765.03" y="-231.5" font-family="Helvetica,sans-Serif" font-size="10.00">nonstd/optional.hpp</text>
</a>
</g>
</g>
<!-- Node27&#45;&gt;Node28 -->
<g id="edge37" class="edge">
<title>Node27&#45;&gt;Node28</title>
<path fill="none" stroke="midnightblue" d="M755.01,-280.08C756.6,-272.93 758.88,-262.64 760.87,-253.69"/>
<polygon fill="midnightblue" stroke="midnightblue" points="764.33,-254.27 763.08,-243.75 757.49,-252.75 764.33,-254.27"/>
</g>
</g>
</svg>
