<?xml version="1.0" encoding="UTF-8" standalone="no"?>
<!DOCTYPE svg PUBLIC "-//W3C//DTD SVG 1.1//EN"
 "http://www.w3.org/Graphics/SVG/1.1/DTD/svg11.dtd">
<!-- Generated by graphviz version 2.43.0 (0)
 -->
<!-- Title: /home/runner/work/cbmc/cbmc/src/solvers/flattening/pointer_logic.h Pages: 1 -->
<svg width="936pt" height="610pt"
 viewBox="0.00 0.00 936.00 610.00" xmlns="http://www.w3.org/2000/svg" xmlns:xlink="http://www.w3.org/1999/xlink">
<g id="graph0" class="graph" transform="scale(1 1) rotate(0) translate(4 606)">
<title>/home/runner/work/cbmc/cbmc/src/solvers/flattening/pointer_logic.h</title>
<!-- Node1 -->
<g id="node1" class="node">
<title>Node1</title>
<g id="a_node1"><a xlink:title="Pointer Logic.">
<polygon fill="#bfbfbf" stroke="black" points="79.5,-560.5 79.5,-601.5 230.5,-601.5 230.5,-560.5 79.5,-560.5"/>
<text text-anchor="start" x="87.5" y="-589.5" font-family="Helvetica,sans-Serif" font-size="10.00">/home/runner/work/cbmc</text>
<text text-anchor="start" x="87.5" y="-578.5" font-family="Helvetica,sans-Serif" font-size="10.00">/cbmc/src/solvers/flattening</text>
<text text-anchor="middle" x="155" y="-567.5" font-family="Helvetica,sans-Serif" font-size="10.00">/pointer_logic.h</text>
</a>
</g>
</g>
<!-- Node2 -->
<g id="node2" class="node">
<title>Node2</title>
<g id="a_node2"><a xlink:href="mp__arith_8h.html" target="_top" xlink:title=" ">
<polygon fill="none" stroke="black" points="55,-112.5 55,-131.5 143,-131.5 143,-112.5 55,-112.5"/>
<text text-anchor="middle" x="99" y="-119.5" font-family="Helvetica,sans-Serif" font-size="10.00">util/mp_arith.h</text>
</a>
</g>
</g>
<!-- Node1&#45;&gt;Node2 -->
<g id="edge1" class="edge">
<title>Node1&#45;&gt;Node2</title>
<path fill="none" stroke="midnightblue" d="M95.07,-560.35C51.46,-541.85 0,-509.35 0,-459 0,-459 0,-459 0,-233 0,-189.18 43.94,-154.93 73.27,-136.94"/>
<polygon fill="midnightblue" stroke="midnightblue" points="75.36,-139.77 82.21,-131.68 71.81,-133.74 75.36,-139.77"/>
</g>
<!-- Node6 -->
<g id="node6" class="node">
<title>Node6</title>
<g id="a_node6"><a xlink:href="expr_8h.html" target="_top" xlink:title=" ">
<polygon fill="none" stroke="black" points="310.5,-504.5 310.5,-523.5 375.5,-523.5 375.5,-504.5 310.5,-504.5"/>
<text text-anchor="middle" x="343" y="-511.5" font-family="Helvetica,sans-Serif" font-size="10.00">util/expr.h</text>
</a>
</g>
</g>
<!-- Node1&#45;&gt;Node6 -->
<g id="edge5" class="edge">
<title>Node1&#45;&gt;Node6</title>
<path fill="none" stroke="midnightblue" d="M211.41,-560.5C243,-549.57 281.38,-536.3 308.52,-526.92"/>
<polygon fill="midnightblue" stroke="midnightblue" points="309.67,-530.23 317.97,-523.65 307.38,-523.61 309.67,-530.23"/>
</g>
<!-- Node38 -->
<g id="node31" class="node">
<title>Node38</title>
<g id="a_node31"><a xlink:href="numbering_8h.html" target="_top" xlink:title=" ">
<polygon fill="none" stroke="black" points="106.5,-280.5 106.5,-299.5 203.5,-299.5 203.5,-280.5 106.5,-280.5"/>
<text text-anchor="middle" x="155" y="-287.5" font-family="Helvetica,sans-Serif" font-size="10.00">util/numbering.h</text>
</a>
</g>
</g>
<!-- Node1&#45;&gt;Node38 -->
<g id="edge45" class="edge">
<title>Node1&#45;&gt;Node38</title>
<path fill="none" stroke="midnightblue" d="M155,-560.3C155,-536.35 155,-494.71 155,-459 155,-459 155,-459 155,-401 155,-368.95 155,-331.64 155,-309.75"/>
<polygon fill="midnightblue" stroke="midnightblue" points="158.5,-309.56 155,-299.56 151.5,-309.56 158.5,-309.56"/>
</g>
<!-- Node3 -->
<g id="node3" class="node">
<title>Node3</title>
<g id="a_node3"><a xlink:title=" ">
<polygon fill="none" stroke="#bfbfbf" points="220,-56.5 220,-75.5 268,-75.5 268,-56.5 220,-56.5"/>
<text text-anchor="middle" x="244" y="-63.5" font-family="Helvetica,sans-Serif" font-size="10.00">iosfwd</text>
</a>
</g>
</g>
<!-- Node2&#45;&gt;Node3 -->
<g id="edge2" class="edge">
<title>Node2&#45;&gt;Node3</title>
<path fill="none" stroke="midnightblue" d="M121.98,-112.44C146.16,-103.44 184.42,-89.19 211.65,-79.05"/>
<polygon fill="midnightblue" stroke="midnightblue" points="212.98,-82.29 221.13,-75.52 210.54,-75.73 212.98,-82.29"/>
</g>
<!-- Node4 -->
<g id="node4" class="node">
<title>Node4</title>
<g id="a_node4"><a xlink:title=" ">
<polygon fill="none" stroke="#bfbfbf" points="293,-0.5 293,-19.5 337,-19.5 337,-0.5 293,-0.5"/>
<text text-anchor="middle" x="315" y="-7.5" font-family="Helvetica,sans-Serif" font-size="10.00">string</text>
</a>
</g>
</g>
<!-- Node2&#45;&gt;Node4 -->
<g id="edge3" class="edge">
<title>Node2&#45;&gt;Node4</title>
<path fill="none" stroke="midnightblue" d="M107.44,-112.21C121.08,-98.44 149.37,-71.75 178,-56 211.6,-37.52 254.05,-25.04 282.72,-18"/>
<polygon fill="midnightblue" stroke="midnightblue" points="283.69,-21.37 292.62,-15.65 282.08,-14.55 283.69,-21.37"/>
</g>
<!-- Node5 -->
<g id="node5" class="node">
<title>Node5</title>
<g id="a_node5"><a xlink:title=" ">
<polygon fill="none" stroke="#bfbfbf" points="32,-56.5 32,-75.5 126,-75.5 126,-56.5 32,-56.5"/>
<text text-anchor="middle" x="79" y="-63.5" font-family="Helvetica,sans-Serif" font-size="10.00">big&#45;int/bigint.hh</text>
</a>
</g>
</g>
<!-- Node2&#45;&gt;Node5 -->
<g id="edge4" class="edge">
<title>Node2&#45;&gt;Node5</title>
<path fill="none" stroke="midnightblue" d="M95.7,-112.08C93.02,-104.85 89.15,-94.41 85.81,-85.4"/>
<polygon fill="midnightblue" stroke="midnightblue" points="89,-83.91 82.24,-75.75 82.43,-86.34 89,-83.91"/>
</g>
<!-- Node7 -->
<g id="node7" class="node">
<title>Node7</title>
<g id="a_node7"><a xlink:href="as__const_8h.html" target="_top" xlink:title=" ">
<polygon fill="none" stroke="black" points="794,-112.5 794,-131.5 862,-131.5 862,-112.5 794,-112.5"/>
<text text-anchor="middle" x="828" y="-119.5" font-family="Helvetica,sans-Serif" font-size="10.00">as_const.h</text>
</a>
</g>
</g>
<!-- Node6&#45;&gt;Node7 -->
<g id="edge6" class="edge">
<title>Node6&#45;&gt;Node7</title>
<path fill="none" stroke="midnightblue" d="M375.58,-513.43C493.34,-514.11 890,-508.58 890,-403 890,-403 890,-403 890,-233 890,-195.62 862.5,-159.24 844.13,-139.1"/>
<polygon fill="midnightblue" stroke="midnightblue" points="846.57,-136.59 837.15,-131.75 841.49,-141.41 846.57,-136.59"/>
</g>
<!-- Node8 -->
<g id="node8" class="node">
<title>Node8</title>
<g id="a_node8"><a xlink:href="type_8h.html" target="_top" xlink:title="Defines typet, type_with_subtypet and type_with_subtypest.">
<polygon fill="none" stroke="black" points="508.5,-448.5 508.5,-467.5 555.5,-467.5 555.5,-448.5 508.5,-448.5"/>
<text text-anchor="middle" x="532" y="-455.5" font-family="Helvetica,sans-Serif" font-size="10.00">type.h</text>
</a>
</g>
</g>
<!-- Node6&#45;&gt;Node8 -->
<g id="edge7" class="edge">
<title>Node6&#45;&gt;Node8</title>
<path fill="none" stroke="midnightblue" d="M372.95,-504.44C407.15,-494.67 462.95,-478.73 498.55,-468.56"/>
<polygon fill="midnightblue" stroke="midnightblue" points="499.81,-471.84 508.46,-465.73 497.89,-465.11 499.81,-471.84"/>
</g>
<!-- Node34 -->
<g id="node27" class="node">
<title>Node34</title>
<g id="a_node27"><a xlink:href="validation__mode_8h.html" target="_top" xlink:title=" ">
<polygon fill="none" stroke="black" points="438.5,-336.5 438.5,-355.5 545.5,-355.5 545.5,-336.5 438.5,-336.5"/>
<text text-anchor="middle" x="492" y="-343.5" font-family="Helvetica,sans-Serif" font-size="10.00">validation_mode.h</text>
</a>
</g>
</g>
<!-- Node6&#45;&gt;Node34 -->
<g id="edge43" class="edge">
<title>Node6&#45;&gt;Node34</title>
<path fill="none" stroke="midnightblue" d="M319.11,-504.44C301.43,-497.08 277.78,-484.96 262,-468 237.69,-441.86 213.05,-419.34 236,-392 260.08,-363.32 360.55,-352.91 428.23,-349.14"/>
<polygon fill="midnightblue" stroke="midnightblue" points="428.58,-352.63 438.38,-348.61 428.21,-345.64 428.58,-352.63"/>
</g>
<!-- Node35 -->
<g id="node28" class="node">
<title>Node35</title>
<g id="a_node28"><a xlink:href="validate__types_8h.html" target="_top" xlink:title=" ">
<polygon fill="none" stroke="black" points="245,-392.5 245,-411.5 343,-411.5 343,-392.5 245,-392.5"/>
<text text-anchor="middle" x="294" y="-399.5" font-family="Helvetica,sans-Serif" font-size="10.00">validate_types.h</text>
</a>
</g>
</g>
<!-- Node6&#45;&gt;Node35 -->
<g id="edge42" class="edge">
<title>Node6&#45;&gt;Node35</title>
<path fill="none" stroke="midnightblue" d="M316.07,-504.36C299.28,-497.41 279.02,-485.82 269,-468 260.25,-452.44 269.91,-433.2 279.66,-419.71"/>
<polygon fill="midnightblue" stroke="midnightblue" points="282.47,-421.8 285.88,-411.77 276.96,-417.48 282.47,-421.8"/>
</g>
<!-- Node36 -->
<g id="node29" class="node">
<title>Node36</title>
<g id="a_node29"><a xlink:href="validate__expressions_8h.html" target="_top" xlink:title=" ">
<polygon fill="none" stroke="black" points="278.5,-448.5 278.5,-467.5 407.5,-467.5 407.5,-448.5 278.5,-448.5"/>
<text text-anchor="middle" x="343" y="-455.5" font-family="Helvetica,sans-Serif" font-size="10.00">validate_expressions.h</text>
</a>
</g>
</g>
<!-- Node6&#45;&gt;Node36 -->
<g id="edge41" class="edge">
<title>Node6&#45;&gt;Node36</title>
<path fill="none" stroke="midnightblue" d="M343,-504.08C343,-497.01 343,-486.86 343,-477.99"/>
<polygon fill="midnightblue" stroke="midnightblue" points="346.5,-477.75 343,-467.75 339.5,-477.75 346.5,-477.75"/>
</g>
<!-- Node37 -->
<g id="node30" class="node">
<title>Node37</title>
<g id="a_node30"><a xlink:title=" ">
<polygon fill="none" stroke="#bfbfbf" points="425.5,-448.5 425.5,-467.5 490.5,-467.5 490.5,-448.5 425.5,-448.5"/>
<text text-anchor="middle" x="458" y="-455.5" font-family="Helvetica,sans-Serif" font-size="10.00">functional</text>
</a>
</g>
</g>
<!-- Node6&#45;&gt;Node37 -->
<g id="edge44" class="edge">
<title>Node6&#45;&gt;Node37</title>
<path fill="none" stroke="midnightblue" d="M361.22,-504.44C379.9,-495.68 409.16,-481.94 430.62,-471.86"/>
<polygon fill="midnightblue" stroke="midnightblue" points="432.3,-474.93 439.86,-467.52 429.32,-468.6 432.3,-474.93"/>
</g>
<!-- Node9 -->
<g id="node9" class="node">
<title>Node9</title>
<g id="a_node9"><a xlink:href="source__location_8h.html" target="_top" xlink:title=" ">
<polygon fill="none" stroke="black" points="359,-280.5 359,-299.5 461,-299.5 461,-280.5 359,-280.5"/>
<text text-anchor="middle" x="410" y="-287.5" font-family="Helvetica,sans-Serif" font-size="10.00">source_location.h</text>
</a>
</g>
</g>
<!-- Node8&#45;&gt;Node9 -->
<g id="edge8" class="edge">
<title>Node8&#45;&gt;Node9</title>
<path fill="none" stroke="midnightblue" d="M520.05,-448.4C498.83,-432.52 454.52,-396.5 430,-356 421.31,-341.64 416.1,-323.18 413.19,-309.6"/>
<polygon fill="midnightblue" stroke="midnightblue" points="416.58,-308.71 411.26,-299.55 409.71,-310.03 416.58,-308.71"/>
</g>
<!-- Node32 -->
<g id="node25" class="node">
<title>Node32</title>
<g id="a_node25"><a xlink:href="validate_8h.html" target="_top" xlink:title=" ">
<polygon fill="none" stroke="black" points="569.5,-392.5 569.5,-411.5 634.5,-411.5 634.5,-392.5 569.5,-392.5"/>
<text text-anchor="middle" x="602" y="-399.5" font-family="Helvetica,sans-Serif" font-size="10.00">validate.h</text>
</a>
</g>
</g>
<!-- Node8&#45;&gt;Node32 -->
<g id="edge32" class="edge">
<title>Node8&#45;&gt;Node32</title>
<path fill="none" stroke="midnightblue" d="M543.25,-448.32C553.8,-440.18 569.8,-427.84 582.44,-418.09"/>
<polygon fill="midnightblue" stroke="midnightblue" points="584.77,-420.71 590.55,-411.83 580.49,-415.17 584.77,-420.71"/>
</g>
<!-- Node8&#45;&gt;Node34 -->
<g id="edge40" class="edge">
<title>Node8&#45;&gt;Node34</title>
<path fill="none" stroke="midnightblue" d="M528.86,-448.37C522.38,-430.54 507.38,-389.3 498.64,-365.27"/>
<polygon fill="midnightblue" stroke="midnightblue" points="501.83,-363.79 495.12,-355.59 495.25,-366.19 501.83,-363.79"/>
</g>
<!-- Node8&#45;&gt;Node35 -->
<g id="edge39" class="edge">
<title>Node8&#45;&gt;Node35</title>
<path fill="none" stroke="midnightblue" d="M508.28,-450.16C505.49,-449.41 502.69,-448.67 500,-448 448.16,-435.06 388.46,-422.25 346.72,-413.62"/>
<polygon fill="midnightblue" stroke="midnightblue" points="347.28,-410.16 336.78,-411.58 345.87,-417.02 347.28,-410.16"/>
</g>
<!-- Node9&#45;&gt;Node4 -->
<g id="edge31" class="edge">
<title>Node9&#45;&gt;Node4</title>
<path fill="none" stroke="midnightblue" d="M394.63,-280.38C367.76,-264.75 311.64,-229.45 275,-188 237.03,-145.04 225.72,-131.41 211,-76 208.72,-67.41 206.12,-63.43 211,-56 226.78,-31.97 258.43,-20.71 282.69,-15.47"/>
<polygon fill="midnightblue" stroke="midnightblue" points="283.41,-18.9 292.57,-13.58 282.09,-12.03 283.41,-18.9"/>
</g>
<!-- Node10 -->
<g id="node10" class="node">
<title>Node10</title>
<g id="a_node10"><a xlink:href="deprecate_8h.html" target="_top" xlink:title=" ">
<polygon fill="none" stroke="black" points="450,-224.5 450,-243.5 524,-243.5 524,-224.5 450,-224.5"/>
<text text-anchor="middle" x="487" y="-231.5" font-family="Helvetica,sans-Serif" font-size="10.00">deprecate.h</text>
</a>
</g>
</g>
<!-- Node9&#45;&gt;Node10 -->
<g id="edge9" class="edge">
<title>Node9&#45;&gt;Node10</title>
<path fill="none" stroke="midnightblue" d="M422.37,-280.32C434.16,-272.06 452.13,-259.45 466.14,-249.63"/>
<polygon fill="midnightblue" stroke="midnightblue" points="468.48,-252.26 474.66,-243.65 464.46,-246.53 468.48,-252.26"/>
</g>
<!-- Node11 -->
<g id="node11" class="node">
<title>Node11</title>
<g id="a_node11"><a xlink:href="irep_8h.html" target="_top" xlink:title=" ">
<polygon fill="none" stroke="black" points="388,-224.5 388,-243.5 432,-243.5 432,-224.5 388,-224.5"/>
<text text-anchor="middle" x="410" y="-231.5" font-family="Helvetica,sans-Serif" font-size="10.00">irep.h</text>
</a>
</g>
</g>
<!-- Node9&#45;&gt;Node11 -->
<g id="edge10" class="edge">
<title>Node9&#45;&gt;Node11</title>
<path fill="none" stroke="midnightblue" d="M410,-280.08C410,-273.01 410,-262.86 410,-253.99"/>
<polygon fill="midnightblue" stroke="midnightblue" points="413.5,-253.75 410,-243.75 406.5,-253.75 413.5,-253.75"/>
</g>
<!-- Node31 -->
<g id="node24" class="node">
<title>Node31</title>
<g id="a_node24"><a xlink:title=" ">
<polygon fill="none" stroke="#bfbfbf" points="178,-224.5 178,-243.5 234,-243.5 234,-224.5 178,-224.5"/>
<text text-anchor="middle" x="206" y="-231.5" font-family="Helvetica,sans-Serif" font-size="10.00">optional</text>
</a>
</g>
</g>
<!-- Node9&#45;&gt;Node31 -->
<g id="edge30" class="edge">
<title>Node9&#45;&gt;Node31</title>
<path fill="none" stroke="midnightblue" d="M377.68,-280.44C341.37,-270.83 282.51,-255.25 244.03,-245.07"/>
<polygon fill="midnightblue" stroke="midnightblue" points="244.79,-241.65 234.23,-242.47 243,-248.42 244.79,-241.65"/>
</g>
<!-- Node11&#45;&gt;Node4 -->
<g id="edge11" class="edge">
<title>Node11&#45;&gt;Node4</title>
<path fill="none" stroke="midnightblue" d="M387.83,-226.91C350.91,-215.42 278.04,-186.63 249,-132 244.83,-124.15 246.12,-120.41 249,-112 255.58,-92.83 265.64,-92.79 277,-76 287.51,-60.47 298.17,-41.94 305.52,-28.64"/>
<polygon fill="midnightblue" stroke="midnightblue" points="308.71,-30.09 310.43,-19.63 302.57,-26.74 308.71,-30.09"/>
</g>
<!-- Node12 -->
<g id="node12" class="node">
<title>Node12</title>
<g id="a_node12"><a xlink:title=" ">
<polygon fill="none" stroke="#bfbfbf" points="116.5,-168.5 116.5,-187.5 163.5,-187.5 163.5,-168.5 116.5,-168.5"/>
<text text-anchor="middle" x="140" y="-175.5" font-family="Helvetica,sans-Serif" font-size="10.00">vector</text>
</a>
</g>
</g>
<!-- Node11&#45;&gt;Node12 -->
<g id="edge12" class="edge">
<title>Node11&#45;&gt;Node12</title>
<path fill="none" stroke="midnightblue" d="M387.9,-228.58C340.7,-219.14 229.74,-196.95 173.68,-185.74"/>
<polygon fill="midnightblue" stroke="midnightblue" points="174.04,-182.24 163.55,-183.71 172.67,-189.1 174.04,-182.24"/>
</g>
<!-- Node13 -->
<g id="node13" class="node">
<title>Node13</title>
<g id="a_node13"><a xlink:href="src_2util_2invariant_8h.html" target="_top" xlink:title=" ">
<polygon fill="none" stroke="black" points="522.5,-56.5 522.5,-75.5 591.5,-75.5 591.5,-56.5 522.5,-56.5"/>
<text text-anchor="middle" x="557" y="-63.5" font-family="Helvetica,sans-Serif" font-size="10.00">invariant.h</text>
</a>
</g>
</g>
<!-- Node11&#45;&gt;Node13 -->
<g id="edge13" class="edge">
<title>Node11&#45;&gt;Node13</title>
<path fill="none" stroke="midnightblue" d="M423.54,-224.34C436.12,-215.94 454.95,-202.37 469,-188 501.54,-154.71 531.65,-108.73 546.78,-84.14"/>
<polygon fill="midnightblue" stroke="midnightblue" points="549.79,-85.93 551.99,-75.56 543.81,-82.3 549.79,-85.93"/>
</g>
<!-- Node17 -->
<g id="node17" class="node">
<title>Node17</title>
<g id="a_node17"><a xlink:href="irep__ids_8h.html" target="_top" xlink:title="util">
<polygon fill="none" stroke="black" points="341,-168.5 341,-187.5 405,-187.5 405,-168.5 341,-168.5"/>
<text text-anchor="middle" x="373" y="-175.5" font-family="Helvetica,sans-Serif" font-size="10.00">irep_ids.h</text>
</a>
</g>
</g>
<!-- Node11&#45;&gt;Node17 -->
<g id="edge18" class="edge">
<title>Node11&#45;&gt;Node17</title>
<path fill="none" stroke="midnightblue" d="M403.89,-224.08C398.72,-216.53 391.15,-205.49 384.81,-196.23"/>
<polygon fill="midnightblue" stroke="midnightblue" points="387.54,-194.02 379,-187.75 381.76,-197.98 387.54,-194.02"/>
</g>
<!-- Node27 -->
<g id="node20" class="node">
<title>Node27</title>
<g id="a_node20"><a xlink:href="forward__list__as__map_8h.html" target="_top" xlink:title=" ">
<polygon fill="none" stroke="black" points="597.5,-168.5 597.5,-187.5 724.5,-187.5 724.5,-168.5 597.5,-168.5"/>
<text text-anchor="middle" x="661" y="-175.5" font-family="Helvetica,sans-Serif" font-size="10.00">forward_list_as_map.h</text>
</a>
</g>
</g>
<!-- Node11&#45;&gt;Node27 -->
<g id="edge23" class="edge">
<title>Node11&#45;&gt;Node27</title>
<path fill="none" stroke="midnightblue" d="M432.29,-226.29C435.21,-225.49 438.17,-224.7 441,-224 495.78,-210.47 558.93,-197.86 603.49,-189.45"/>
<polygon fill="midnightblue" stroke="midnightblue" points="604.36,-192.84 613.55,-187.56 603.07,-185.96 604.36,-192.84"/>
</g>
<!-- Node13&#45;&gt;Node4 -->
<g id="edge16" class="edge">
<title>Node13&#45;&gt;Node4</title>
<path fill="none" stroke="midnightblue" d="M522.33,-57.26C475.53,-46.82 392.77,-28.35 347.25,-18.2"/>
<polygon fill="midnightblue" stroke="midnightblue" points="347.85,-14.74 337.32,-15.98 346.32,-21.58 347.85,-14.74"/>
</g>
<!-- Node14 -->
<g id="node14" class="node">
<title>Node14</title>
<g id="a_node14"><a xlink:title=" ">
<polygon fill="none" stroke="#bfbfbf" points="567.5,-0.5 567.5,-19.5 616.5,-19.5 616.5,-0.5 567.5,-0.5"/>
<text text-anchor="middle" x="592" y="-7.5" font-family="Helvetica,sans-Serif" font-size="10.00">cstdlib</text>
</a>
</g>
</g>
<!-- Node13&#45;&gt;Node14 -->
<g id="edge14" class="edge">
<title>Node13&#45;&gt;Node14</title>
<path fill="none" stroke="midnightblue" d="M562.78,-56.08C567.67,-48.53 574.83,-37.49 580.83,-28.23"/>
<polygon fill="midnightblue" stroke="midnightblue" points="583.83,-30.05 586.33,-19.75 577.95,-26.24 583.83,-30.05"/>
</g>
<!-- Node15 -->
<g id="node15" class="node">
<title>Node15</title>
<g id="a_node15"><a xlink:title=" ">
<polygon fill="none" stroke="#bfbfbf" points="493,-0.5 493,-19.5 549,-19.5 549,-0.5 493,-0.5"/>
<text text-anchor="middle" x="521" y="-7.5" font-family="Helvetica,sans-Serif" font-size="10.00">sstream</text>
</a>
</g>
</g>
<!-- Node13&#45;&gt;Node15 -->
<g id="edge15" class="edge">
<title>Node13&#45;&gt;Node15</title>
<path fill="none" stroke="midnightblue" d="M551.06,-56.08C546.02,-48.53 538.66,-37.49 532.49,-28.23"/>
<polygon fill="midnightblue" stroke="midnightblue" points="535.29,-26.13 526.83,-19.75 529.47,-30.01 535.29,-26.13"/>
</g>
<!-- Node16 -->
<g id="node16" class="node">
<title>Node16</title>
<g id="a_node16"><a xlink:title=" ">
<polygon fill="none" stroke="#bfbfbf" points="711.5,-0.5 711.5,-19.5 780.5,-19.5 780.5,-0.5 711.5,-0.5"/>
<text text-anchor="middle" x="746" y="-7.5" font-family="Helvetica,sans-Serif" font-size="10.00">type_traits</text>
</a>
</g>
</g>
<!-- Node13&#45;&gt;Node16 -->
<g id="edge17" class="edge">
<title>Node13&#45;&gt;Node16</title>
<path fill="none" stroke="midnightblue" d="M586.95,-56.44C619.16,-47.24 670.53,-32.56 706.14,-22.39"/>
<polygon fill="midnightblue" stroke="midnightblue" points="707.54,-25.63 716.19,-19.52 705.62,-18.9 707.54,-25.63"/>
</g>
<!-- Node18 -->
<g id="node18" class="node">
<title>Node18</title>
<g id="a_node18"><a xlink:href="dstring_8h.html" target="_top" xlink:title="Container for C&#45;Strings.">
<polygon fill="none" stroke="red" points="258.5,-112.5 258.5,-131.5 317.5,-131.5 317.5,-112.5 258.5,-112.5"/>
<text text-anchor="middle" x="288" y="-119.5" font-family="Helvetica,sans-Serif" font-size="10.00">dstring.h</text>
</a>
</g>
</g>
<!-- Node17&#45;&gt;Node18 -->
<g id="edge19" class="edge">
<title>Node17&#45;&gt;Node18</title>
<path fill="none" stroke="midnightblue" d="M359.34,-168.32C346.08,-159.9 325.73,-146.97 310.15,-137.07"/>
<polygon fill="midnightblue" stroke="midnightblue" points="311.94,-134.06 301.62,-131.65 308.19,-139.97 311.94,-134.06"/>
</g>
<!-- Node26 -->
<g id="node19" class="node">
<title>Node26</title>
<g id="a_node19"><a xlink:title=" ">
<polygon fill="none" stroke="#bfbfbf" points="336,-112.5 336,-131.5 410,-131.5 410,-112.5 336,-112.5"/>
<text text-anchor="middle" x="373" y="-119.5" font-family="Helvetica,sans-Serif" font-size="10.00">irep_ids.def</text>
</a>
</g>
</g>
<!-- Node17&#45;&gt;Node26 -->
<g id="edge22" class="edge">
<title>Node17&#45;&gt;Node26</title>
<path fill="none" stroke="midnightblue" d="M373,-168.08C373,-161.01 373,-150.86 373,-141.99"/>
<polygon fill="midnightblue" stroke="midnightblue" points="376.5,-141.75 373,-131.75 369.5,-141.75 376.5,-141.75"/>
</g>
<!-- Node18&#45;&gt;Node3 -->
<g id="edge20" class="edge">
<title>Node18&#45;&gt;Node3</title>
<path fill="none" stroke="midnightblue" d="M280.73,-112.08C274.46,-104.38 265.21,-93.03 257.57,-83.65"/>
<polygon fill="midnightblue" stroke="midnightblue" points="260.16,-81.29 251.13,-75.75 254.73,-85.71 260.16,-81.29"/>
</g>
<!-- Node18&#45;&gt;Node4 -->
<g id="edge21" class="edge">
<title>Node18&#45;&gt;Node4</title>
<path fill="none" stroke="midnightblue" d="M293.42,-112.43C298.67,-103.65 306.35,-89.43 310,-76 314.14,-60.8 315.25,-42.91 315.41,-29.75"/>
<polygon fill="midnightblue" stroke="midnightblue" points="318.91,-29.57 315.35,-19.59 311.91,-29.61 318.91,-29.57"/>
</g>
<!-- Node27&#45;&gt;Node7 -->
<g id="edge26" class="edge">
<title>Node27&#45;&gt;Node7</title>
<path fill="none" stroke="midnightblue" d="M687.46,-168.44C715.68,-159.32 760.54,-144.81 791.97,-134.65"/>
<polygon fill="midnightblue" stroke="midnightblue" points="793.22,-137.92 801.66,-131.52 791.07,-131.26 793.22,-137.92"/>
</g>
<!-- Node28 -->
<g id="node21" class="node">
<title>Node28</title>
<g id="a_node21"><a xlink:title=" ">
<polygon fill="none" stroke="#bfbfbf" points="542,-112.5 542,-131.5 606,-131.5 606,-112.5 542,-112.5"/>
<text text-anchor="middle" x="574" y="-119.5" font-family="Helvetica,sans-Serif" font-size="10.00">algorithm</text>
</a>
</g>
</g>
<!-- Node27&#45;&gt;Node28 -->
<g id="edge24" class="edge">
<title>Node27&#45;&gt;Node28</title>
<path fill="none" stroke="midnightblue" d="M647.02,-168.32C633.45,-159.9 612.62,-146.97 596.68,-137.07"/>
<polygon fill="midnightblue" stroke="midnightblue" points="598.29,-133.95 587.94,-131.65 594.59,-139.9 598.29,-133.95"/>
</g>
<!-- Node29 -->
<g id="node22" class="node">
<title>Node29</title>
<g id="a_node22"><a xlink:title=" ">
<polygon fill="none" stroke="#bfbfbf" points="624,-112.5 624,-131.5 698,-131.5 698,-112.5 624,-112.5"/>
<text text-anchor="middle" x="661" y="-119.5" font-family="Helvetica,sans-Serif" font-size="10.00">forward_list</text>
</a>
</g>
</g>
<!-- Node27&#45;&gt;Node29 -->
<g id="edge25" class="edge">
<title>Node27&#45;&gt;Node29</title>
<path fill="none" stroke="midnightblue" d="M661,-168.08C661,-161.01 661,-150.86 661,-141.99"/>
<polygon fill="midnightblue" stroke="midnightblue" points="664.5,-141.75 661,-131.75 657.5,-141.75 664.5,-141.75"/>
</g>
<!-- Node30 -->
<g id="node23" class="node">
<title>Node30</title>
<g id="a_node23"><a xlink:href="narrow_8h.html" target="_top" xlink:title=" ">
<polygon fill="none" stroke="black" points="716.5,-112.5 716.5,-131.5 775.5,-131.5 775.5,-112.5 716.5,-112.5"/>
<text text-anchor="middle" x="746" y="-119.5" font-family="Helvetica,sans-Serif" font-size="10.00">narrow.h</text>
</a>
</g>
</g>
<!-- Node27&#45;&gt;Node30 -->
<g id="edge27" class="edge">
<title>Node27&#45;&gt;Node30</title>
<path fill="none" stroke="midnightblue" d="M674.66,-168.32C687.92,-159.9 708.27,-146.97 723.85,-137.07"/>
<polygon fill="midnightblue" stroke="midnightblue" points="725.81,-139.97 732.38,-131.65 722.06,-134.06 725.81,-139.97"/>
</g>
<!-- Node30&#45;&gt;Node13 -->
<g id="edge29" class="edge">
<title>Node30&#45;&gt;Node13</title>
<path fill="none" stroke="midnightblue" d="M716.47,-112.56C684.2,-103.34 632.35,-88.53 596.58,-78.31"/>
<polygon fill="midnightblue" stroke="midnightblue" points="597.52,-74.94 586.95,-75.56 595.6,-81.67 597.52,-74.94"/>
</g>
<!-- Node30&#45;&gt;Node16 -->
<g id="edge28" class="edge">
<title>Node30&#45;&gt;Node16</title>
<path fill="none" stroke="midnightblue" d="M746,-112.37C746,-94.62 746,-53.67 746,-29.6"/>
<polygon fill="midnightblue" stroke="midnightblue" points="749.5,-29.59 746,-19.59 742.5,-29.59 749.5,-29.59"/>
</g>
<!-- Node32&#45;&gt;Node16 -->
<g id="edge33" class="edge">
<title>Node32&#45;&gt;Node16</title>
<path fill="none" stroke="midnightblue" d="M634.75,-399.43C717.42,-393.53 928,-365.68 928,-235 928,-235 928,-235 928,-121 928,-57.01 844.57,-29.24 790.68,-17.98"/>
<polygon fill="midnightblue" stroke="midnightblue" points="791.15,-14.51 780.66,-16.01 789.79,-21.38 791.15,-14.51"/>
</g>
<!-- Node33 -->
<g id="node26" class="node">
<title>Node33</title>
<g id="a_node26"><a xlink:href="exception__utils_8h.html" target="_top" xlink:title=" ">
<polygon fill="none" stroke="black" points="564,-336.5 564,-355.5 664,-355.5 664,-336.5 564,-336.5"/>
<text text-anchor="middle" x="614" y="-343.5" font-family="Helvetica,sans-Serif" font-size="10.00">exception_utils.h</text>
</a>
</g>
</g>
<!-- Node32&#45;&gt;Node33 -->
<g id="edge34" class="edge">
<title>Node32&#45;&gt;Node33</title>
<path fill="none" stroke="midnightblue" d="M603.98,-392.08C605.57,-384.93 607.86,-374.64 609.85,-365.69"/>
<polygon fill="midnightblue" stroke="midnightblue" points="613.3,-366.27 612.06,-355.75 606.47,-364.75 613.3,-366.27"/>
</g>
<!-- Node32&#45;&gt;Node34 -->
<g id="edge38" class="edge">
<title>Node32&#45;&gt;Node34</title>
<path fill="none" stroke="midnightblue" d="M584.33,-392.32C566.61,-383.62 539.1,-370.12 518.71,-360.11"/>
<polygon fill="midnightblue" stroke="midnightblue" points="520.15,-356.92 509.63,-355.65 517.06,-363.2 520.15,-356.92"/>
</g>
<!-- Node33&#45;&gt;Node4 -->
<g id="edge35" class="edge">
<title>Node33&#45;&gt;Node4</title>
<path fill="none" stroke="midnightblue" d="M609.06,-336.37C597.18,-315.92 565.59,-263.32 533,-224 466.13,-143.33 372.27,-60.01 333.19,-26.41"/>
<polygon fill="midnightblue" stroke="midnightblue" points="335.17,-23.5 325.3,-19.66 330.62,-28.82 335.17,-23.5"/>
</g>
<!-- Node33&#45;&gt;Node9 -->
<g id="edge37" class="edge">
<title>Node33&#45;&gt;Node9</title>
<path fill="none" stroke="midnightblue" d="M581.68,-336.44C546.61,-327.16 490.5,-312.31 452.04,-302.13"/>
<polygon fill="midnightblue" stroke="midnightblue" points="452.74,-298.69 442.17,-299.52 450.94,-305.46 452.74,-298.69"/>
</g>
<!-- Node33&#45;&gt;Node13 -->
<g id="edge36" class="edge">
<title>Node33&#45;&gt;Node13</title>
<path fill="none" stroke="midnightblue" d="M638.47,-336.41C717.45,-307.45 955.72,-209.72 871,-112 836.69,-72.43 680.02,-66.82 601.76,-66.55"/>
<polygon fill="midnightblue" stroke="midnightblue" points="601.71,-63.05 591.71,-66.54 601.71,-70.05 601.71,-63.05"/>
</g>
<!-- Node38&#45;&gt;Node12 -->
<g id="edge49" class="edge">
<title>Node38&#45;&gt;Node12</title>
<path fill="none" stroke="midnightblue" d="M153.82,-280.37C151.4,-262.62 145.82,-221.67 142.54,-197.6"/>
<polygon fill="midnightblue" stroke="midnightblue" points="145.99,-197.03 141.17,-187.59 139.05,-197.97 145.99,-197.03"/>
</g>
<!-- Node38&#45;&gt;Node13 -->
<g id="edge46" class="edge">
<title>Node38&#45;&gt;Node13</title>
<path fill="none" stroke="midnightblue" d="M186.42,-280.43C236.73,-265.91 337.49,-233.56 414,-188 440.93,-171.96 508.39,-111.47 540.07,-82.56"/>
<polygon fill="midnightblue" stroke="midnightblue" points="542.64,-84.96 547.65,-75.62 537.91,-79.79 542.64,-84.96"/>
</g>
<!-- Node38&#45;&gt;Node31 -->
<g id="edge47" class="edge">
<title>Node38&#45;&gt;Node31</title>
<path fill="none" stroke="midnightblue" d="M163.42,-280.08C170.85,-272.22 181.85,-260.57 190.81,-251.08"/>
<polygon fill="midnightblue" stroke="midnightblue" points="193.41,-253.42 197.74,-243.75 188.32,-248.62 193.41,-253.42"/>
</g>
<!-- Node23 -->
<g id="node32" class="node">
<title>Node23</title>
<g id="a_node32"><a xlink:title=" ">
<polygon fill="none" stroke="#bfbfbf" points="28.5,-224.5 28.5,-243.5 121.5,-243.5 121.5,-224.5 28.5,-224.5"/>
<text text-anchor="middle" x="75" y="-231.5" font-family="Helvetica,sans-Serif" font-size="10.00">unordered_map</text>
</a>
</g>
</g>
<!-- Node38&#45;&gt;Node23 -->
<g id="edge48" class="edge">
<title>Node38&#45;&gt;Node23</title>
<path fill="none" stroke="midnightblue" d="M142.15,-280.32C129.78,-271.98 110.87,-259.21 96.26,-249.35"/>
<polygon fill="midnightblue" stroke="midnightblue" points="98.07,-246.35 87.82,-243.65 94.15,-252.15 98.07,-246.35"/>
</g>
</g>
</svg>
