<?xml version="1.0" encoding="UTF-8" standalone="no"?>
<!DOCTYPE svg PUBLIC "-//W3C//DTD SVG 1.1//EN"
 "http://www.w3.org/Graphics/SVG/1.1/DTD/svg11.dtd">
<!-- Generated by graphviz version 2.43.0 (0)
 -->
<!-- Title: /home/runner/work/cbmc/cbmc/src/goto&#45;instrument/accelerate/polynomial.h Pages: 1 -->
<svg width="863pt" height="610pt"
 viewBox="0.00 0.00 862.50 610.00" xmlns="http://www.w3.org/2000/svg" xmlns:xlink="http://www.w3.org/1999/xlink">
<g id="graph0" class="graph" transform="scale(1 1) rotate(0) translate(4 606)">
<title>/home/runner/work/cbmc/cbmc/src/goto&#45;instrument/accelerate/polynomial.h</title>
<!-- Node1 -->
<g id="node1" class="node">
<title>Node1</title>
<g id="a_node1"><a xlink:title=" ">
<polygon fill="#bfbfbf" stroke="black" points="394.5,-560.5 394.5,-601.5 539.5,-601.5 539.5,-560.5 394.5,-560.5"/>
<text text-anchor="start" x="402.5" y="-589.5" font-family="Helvetica,sans-Serif" font-size="10.00">/home/runner/work/cbmc</text>
<text text-anchor="start" x="402.5" y="-578.5" font-family="Helvetica,sans-Serif" font-size="10.00">/cbmc/src/goto&#45;instrument</text>
<text text-anchor="middle" x="467" y="-567.5" font-family="Helvetica,sans-Serif" font-size="10.00">/accelerate/polynomial.h</text>
</a>
</g>
</g>
<!-- Node2 -->
<g id="node2" class="node">
<title>Node2</title>
<g id="a_node2"><a xlink:title=" ">
<polygon fill="none" stroke="#bfbfbf" points="28.5,-168.5 28.5,-187.5 75.5,-187.5 75.5,-168.5 28.5,-168.5"/>
<text text-anchor="middle" x="52" y="-175.5" font-family="Helvetica,sans-Serif" font-size="10.00">vector</text>
</a>
</g>
</g>
<!-- Node1&#45;&gt;Node2 -->
<g id="edge1" class="edge">
<title>Node1&#45;&gt;Node2</title>
<path fill="none" stroke="midnightblue" d="M394.32,-572.1C283,-557.96 83,-523.57 83,-459 83,-459 83,-459 83,-289 83,-255.41 69.44,-218.14 60.26,-196.75"/>
<polygon fill="midnightblue" stroke="midnightblue" points="63.45,-195.31 56.18,-187.61 57.06,-198.17 63.45,-195.31"/>
</g>
<!-- Node3 -->
<g id="node3" class="node">
<title>Node3</title>
<g id="a_node3"><a xlink:title=" ">
<polygon fill="none" stroke="#bfbfbf" points="518,-504.5 518,-523.5 556,-523.5 556,-504.5 518,-504.5"/>
<text text-anchor="middle" x="537" y="-511.5" font-family="Helvetica,sans-Serif" font-size="10.00">map</text>
</a>
</g>
</g>
<!-- Node1&#45;&gt;Node3 -->
<g id="edge2" class="edge">
<title>Node1&#45;&gt;Node3</title>
<path fill="none" stroke="midnightblue" d="M488,-560.5C498.32,-550.92 510.59,-539.53 520.26,-530.54"/>
<polygon fill="midnightblue" stroke="midnightblue" points="522.74,-533.02 527.68,-523.65 517.97,-527.89 522.74,-533.02"/>
</g>
<!-- Node4 -->
<g id="node4" class="node">
<title>Node4</title>
<g id="a_node4"><a xlink:href="expr_8h.html" target="_top" xlink:title=" ">
<polygon fill="none" stroke="black" points="434.5,-504.5 434.5,-523.5 499.5,-523.5 499.5,-504.5 434.5,-504.5"/>
<text text-anchor="middle" x="467" y="-511.5" font-family="Helvetica,sans-Serif" font-size="10.00">util/expr.h</text>
</a>
</g>
</g>
<!-- Node1&#45;&gt;Node4 -->
<g id="edge3" class="edge">
<title>Node1&#45;&gt;Node4</title>
<path fill="none" stroke="midnightblue" d="M467,-560.5C467,-552.07 467,-542.24 467,-533.87"/>
<polygon fill="midnightblue" stroke="midnightblue" points="470.5,-533.65 467,-523.65 463.5,-533.65 470.5,-533.65"/>
</g>
<!-- Node5 -->
<g id="node5" class="node">
<title>Node5</title>
<g id="a_node5"><a xlink:href="as__const_8h.html" target="_top" xlink:title=" ">
<polygon fill="none" stroke="black" points="606,-112.5 606,-131.5 674,-131.5 674,-112.5 606,-112.5"/>
<text text-anchor="middle" x="640" y="-119.5" font-family="Helvetica,sans-Serif" font-size="10.00">as_const.h</text>
</a>
</g>
</g>
<!-- Node4&#45;&gt;Node5 -->
<g id="edge4" class="edge">
<title>Node4&#45;&gt;Node5</title>
<path fill="none" stroke="midnightblue" d="M499.95,-504.59C563.55,-487.39 697,-446.16 697,-403 697,-403 697,-403 697,-233 697,-196.3 671.68,-159.66 654.79,-139.3"/>
<polygon fill="midnightblue" stroke="midnightblue" points="657.35,-136.9 648.17,-131.62 652.05,-141.48 657.35,-136.9"/>
</g>
<!-- Node6 -->
<g id="node6" class="node">
<title>Node6</title>
<g id="a_node6"><a xlink:href="type_8h.html" target="_top" xlink:title=" ">
<polygon fill="none" stroke="black" points="443.5,-448.5 443.5,-467.5 490.5,-467.5 490.5,-448.5 443.5,-448.5"/>
<text text-anchor="middle" x="467" y="-455.5" font-family="Helvetica,sans-Serif" font-size="10.00">type.h</text>
</a>
</g>
</g>
<!-- Node4&#45;&gt;Node6 -->
<g id="edge5" class="edge">
<title>Node4&#45;&gt;Node6</title>
<path fill="none" stroke="midnightblue" d="M467,-504.08C467,-497.01 467,-486.86 467,-477.99"/>
<polygon fill="midnightblue" stroke="midnightblue" points="470.5,-477.75 467,-467.75 463.5,-477.75 470.5,-477.75"/>
</g>
<!-- Node34 -->
<g id="node26" class="node">
<title>Node34</title>
<g id="a_node26"><a xlink:href="validation__mode_8h.html" target="_top" xlink:title=" ">
<polygon fill="none" stroke="black" points="338.5,-336.5 338.5,-355.5 445.5,-355.5 445.5,-336.5 338.5,-336.5"/>
<text text-anchor="middle" x="392" y="-343.5" font-family="Helvetica,sans-Serif" font-size="10.00">validation_mode.h</text>
</a>
</g>
</g>
<!-- Node4&#45;&gt;Node34 -->
<g id="edge42" class="edge">
<title>Node4&#45;&gt;Node34</title>
<path fill="none" stroke="midnightblue" d="M459.6,-504.17C452.54,-495.43 441.99,-481.44 435,-468 416.97,-433.36 403.48,-389.47 396.76,-365.21"/>
<polygon fill="midnightblue" stroke="midnightblue" points="400.14,-364.29 394.16,-355.55 393.38,-366.11 400.14,-364.29"/>
</g>
<!-- Node35 -->
<g id="node27" class="node">
<title>Node35</title>
<g id="a_node27"><a xlink:href="validate__types_8h.html" target="_top" xlink:title=" ">
<polygon fill="none" stroke="black" points="542,-392.5 542,-411.5 640,-411.5 640,-392.5 542,-392.5"/>
<text text-anchor="middle" x="591" y="-399.5" font-family="Helvetica,sans-Serif" font-size="10.00">validate_types.h</text>
</a>
</g>
</g>
<!-- Node4&#45;&gt;Node35 -->
<g id="edge41" class="edge">
<title>Node4&#45;&gt;Node35</title>
<path fill="none" stroke="midnightblue" d="M476.73,-504.37C497.65,-485.81 547.13,-441.91 573.6,-418.44"/>
<polygon fill="midnightblue" stroke="midnightblue" points="576.16,-420.85 581.32,-411.59 571.51,-415.61 576.16,-420.85"/>
</g>
<!-- Node36 -->
<g id="node28" class="node">
<title>Node36</title>
<g id="a_node28"><a xlink:href="validate__expressions_8h.html" target="_top" xlink:title=" ">
<polygon fill="none" stroke="black" points="725.5,-448.5 725.5,-467.5 854.5,-467.5 854.5,-448.5 725.5,-448.5"/>
<text text-anchor="middle" x="790" y="-455.5" font-family="Helvetica,sans-Serif" font-size="10.00">validate_expressions.h</text>
</a>
</g>
</g>
<!-- Node4&#45;&gt;Node36 -->
<g id="edge40" class="edge">
<title>Node4&#45;&gt;Node36</title>
<path fill="none" stroke="midnightblue" d="M499.53,-505.85C502.72,-505.21 505.92,-504.58 509,-504 581.16,-490.5 664.21,-477.51 721.21,-468.99"/>
<polygon fill="midnightblue" stroke="midnightblue" points="721.81,-472.44 731.18,-467.5 720.78,-465.52 721.81,-472.44"/>
</g>
<!-- Node37 -->
<g id="node29" class="node">
<title>Node37</title>
<g id="a_node29"><a xlink:title=" ">
<polygon fill="none" stroke="#bfbfbf" points="298.5,-448.5 298.5,-467.5 363.5,-467.5 363.5,-448.5 298.5,-448.5"/>
<text text-anchor="middle" x="331" y="-455.5" font-family="Helvetica,sans-Serif" font-size="10.00">functional</text>
</a>
</g>
</g>
<!-- Node4&#45;&gt;Node37 -->
<g id="edge43" class="edge">
<title>Node4&#45;&gt;Node37</title>
<path fill="none" stroke="midnightblue" d="M445.45,-504.44C422.97,-495.52 387.51,-481.44 362.02,-471.32"/>
<polygon fill="midnightblue" stroke="midnightblue" points="363.03,-467.95 352.45,-467.52 360.45,-474.46 363.03,-467.95"/>
</g>
<!-- Node7 -->
<g id="node7" class="node">
<title>Node7</title>
<g id="a_node7"><a xlink:href="source__location_8h.html" target="_top" xlink:title=" ">
<polygon fill="none" stroke="black" points="218,-280.5 218,-299.5 320,-299.5 320,-280.5 218,-280.5"/>
<text text-anchor="middle" x="269" y="-287.5" font-family="Helvetica,sans-Serif" font-size="10.00">source_location.h</text>
</a>
</g>
</g>
<!-- Node6&#45;&gt;Node7 -->
<g id="edge6" class="edge">
<title>Node6&#45;&gt;Node7</title>
<path fill="none" stroke="midnightblue" d="M453.55,-448.28C428.27,-431.65 372.42,-393.67 330,-356 312.75,-340.68 294.91,-321.16 283.01,-307.53"/>
<polygon fill="midnightblue" stroke="midnightblue" points="285.61,-305.18 276.43,-299.89 280.31,-309.75 285.61,-305.18"/>
</g>
<!-- Node32 -->
<g id="node24" class="node">
<title>Node32</title>
<g id="a_node24"><a xlink:href="validate_8h.html" target="_top" xlink:title=" ">
<polygon fill="none" stroke="black" points="458.5,-392.5 458.5,-411.5 523.5,-411.5 523.5,-392.5 458.5,-392.5"/>
<text text-anchor="middle" x="491" y="-399.5" font-family="Helvetica,sans-Serif" font-size="10.00">validate.h</text>
</a>
</g>
</g>
<!-- Node6&#45;&gt;Node32 -->
<g id="edge31" class="edge">
<title>Node6&#45;&gt;Node32</title>
<path fill="none" stroke="midnightblue" d="M470.96,-448.08C474.21,-440.77 478.92,-430.18 482.95,-421.1"/>
<polygon fill="midnightblue" stroke="midnightblue" points="486.25,-422.31 487.11,-411.75 479.85,-419.47 486.25,-422.31"/>
</g>
<!-- Node6&#45;&gt;Node34 -->
<g id="edge39" class="edge">
<title>Node6&#45;&gt;Node34</title>
<path fill="none" stroke="midnightblue" d="M461.11,-448.37C448.74,-430.22 419.82,-387.8 403.58,-363.99"/>
<polygon fill="midnightblue" stroke="midnightblue" points="406.38,-361.88 397.86,-355.59 400.6,-365.83 406.38,-361.88"/>
</g>
<!-- Node6&#45;&gt;Node35 -->
<g id="edge38" class="edge">
<title>Node6&#45;&gt;Node35</title>
<path fill="none" stroke="midnightblue" d="M486.65,-448.44C506.96,-439.6 538.9,-425.69 562.1,-415.59"/>
<polygon fill="midnightblue" stroke="midnightblue" points="563.67,-418.72 571.44,-411.52 560.88,-412.3 563.67,-418.72"/>
</g>
<!-- Node8 -->
<g id="node8" class="node">
<title>Node8</title>
<g id="a_node8"><a xlink:href="deprecate_8h.html" target="_top" xlink:title=" ">
<polygon fill="none" stroke="black" points="204,-224.5 204,-243.5 278,-243.5 278,-224.5 204,-224.5"/>
<text text-anchor="middle" x="241" y="-231.5" font-family="Helvetica,sans-Serif" font-size="10.00">deprecate.h</text>
</a>
</g>
</g>
<!-- Node7&#45;&gt;Node8 -->
<g id="edge7" class="edge">
<title>Node7&#45;&gt;Node8</title>
<path fill="none" stroke="midnightblue" d="M264.38,-280.08C260.54,-272.69 254.98,-261.95 250.24,-252.81"/>
<polygon fill="midnightblue" stroke="midnightblue" points="253.25,-251.02 245.54,-243.75 247.03,-254.24 253.25,-251.02"/>
</g>
<!-- Node9 -->
<g id="node9" class="node">
<title>Node9</title>
<g id="a_node9"><a xlink:href="irep_8h.html" target="_top" xlink:title=" ">
<polygon fill="none" stroke="black" points="142,-224.5 142,-243.5 186,-243.5 186,-224.5 142,-224.5"/>
<text text-anchor="middle" x="164" y="-231.5" font-family="Helvetica,sans-Serif" font-size="10.00">irep.h</text>
</a>
</g>
</g>
<!-- Node7&#45;&gt;Node9 -->
<g id="edge8" class="edge">
<title>Node7&#45;&gt;Node9</title>
<path fill="none" stroke="midnightblue" d="M252.13,-280.32C235.29,-271.66 209.19,-258.24 189.76,-248.25"/>
<polygon fill="midnightblue" stroke="midnightblue" points="191.32,-245.12 180.83,-243.65 188.12,-251.34 191.32,-245.12"/>
</g>
<!-- Node10 -->
<g id="node10" class="node">
<title>Node10</title>
<g id="a_node10"><a xlink:title=" ">
<polygon fill="none" stroke="#bfbfbf" points="78,-0.5 78,-19.5 122,-19.5 122,-0.5 78,-0.5"/>
<text text-anchor="middle" x="100" y="-7.5" font-family="Helvetica,sans-Serif" font-size="10.00">string</text>
</a>
</g>
</g>
<!-- Node7&#45;&gt;Node10 -->
<g id="edge30" class="edge">
<title>Node7&#45;&gt;Node10</title>
<path fill="none" stroke="midnightblue" d="M224.88,-280.46C148.57,-264.41 0,-227 0,-179 0,-179 0,-179 0,-121 0,-76.98 44.38,-42.8 74.01,-24.87"/>
<polygon fill="midnightblue" stroke="midnightblue" points="76.14,-27.68 83.04,-19.64 72.63,-21.63 76.14,-27.68"/>
</g>
<!-- Node30 -->
<g id="node22" class="node">
<title>Node30</title>
<g id="a_node22"><a xlink:href="optional_8h.html" target="_top" xlink:title=" ">
<polygon fill="none" stroke="black" points="296.5,-224.5 296.5,-243.5 361.5,-243.5 361.5,-224.5 296.5,-224.5"/>
<text text-anchor="middle" x="329" y="-231.5" font-family="Helvetica,sans-Serif" font-size="10.00">optional.h</text>
</a>
</g>
</g>
<!-- Node7&#45;&gt;Node30 -->
<g id="edge28" class="edge">
<title>Node7&#45;&gt;Node30</title>
<path fill="none" stroke="midnightblue" d="M278.64,-280.32C287.51,-272.34 300.87,-260.31 311.61,-250.65"/>
<polygon fill="midnightblue" stroke="midnightblue" points="314.09,-253.13 319.18,-243.83 309.41,-247.92 314.09,-253.13"/>
</g>
<!-- Node9&#45;&gt;Node2 -->
<g id="edge10" class="edge">
<title>Node9&#45;&gt;Node2</title>
<path fill="none" stroke="midnightblue" d="M146.01,-224.32C127.96,-215.62 99.95,-202.12 79.2,-192.11"/>
<polygon fill="midnightblue" stroke="midnightblue" points="80.48,-188.84 69.95,-187.65 77.44,-195.15 80.48,-188.84"/>
</g>
<!-- Node9&#45;&gt;Node10 -->
<g id="edge9" class="edge">
<title>Node9&#45;&gt;Node10</title>
<path fill="none" stroke="midnightblue" d="M153.13,-224.23C128.68,-204.23 70.75,-155.21 61,-132 45.84,-95.89 70.43,-51.7 86.95,-27.99"/>
<polygon fill="midnightblue" stroke="midnightblue" points="89.94,-29.84 92.99,-19.69 84.28,-25.72 89.94,-29.84"/>
</g>
<!-- Node11 -->
<g id="node11" class="node">
<title>Node11</title>
<g id="a_node11"><a xlink:href="src_2util_2invariant_8h.html" target="_top" xlink:title=" ">
<polygon fill="none" stroke="black" points="343.5,-56.5 343.5,-75.5 412.5,-75.5 412.5,-56.5 343.5,-56.5"/>
<text text-anchor="middle" x="378" y="-63.5" font-family="Helvetica,sans-Serif" font-size="10.00">invariant.h</text>
</a>
</g>
</g>
<!-- Node9&#45;&gt;Node11 -->
<g id="edge11" class="edge">
<title>Node9&#45;&gt;Node11</title>
<path fill="none" stroke="midnightblue" d="M173.34,-224.31C195.63,-203.74 254.06,-150.89 307,-112 322.34,-100.73 340.48,-89.26 354.58,-80.73"/>
<polygon fill="midnightblue" stroke="midnightblue" points="356.42,-83.71 363.2,-75.57 352.82,-77.7 356.42,-83.71"/>
</g>
<!-- Node15 -->
<g id="node15" class="node">
<title>Node15</title>
<g id="a_node15"><a xlink:href="irep__ids_8h.html" target="_top" xlink:title=" ">
<polygon fill="none" stroke="black" points="132,-168.5 132,-187.5 196,-187.5 196,-168.5 132,-168.5"/>
<text text-anchor="middle" x="164" y="-175.5" font-family="Helvetica,sans-Serif" font-size="10.00">irep_ids.h</text>
</a>
</g>
</g>
<!-- Node9&#45;&gt;Node15 -->
<g id="edge16" class="edge">
<title>Node9&#45;&gt;Node15</title>
<path fill="none" stroke="midnightblue" d="M164,-224.08C164,-217.01 164,-206.86 164,-197.99"/>
<polygon fill="midnightblue" stroke="midnightblue" points="167.5,-197.75 164,-187.75 160.5,-197.75 167.5,-197.75"/>
</g>
<!-- Node26 -->
<g id="node18" class="node">
<title>Node26</title>
<g id="a_node18"><a xlink:href="forward__list__as__map_8h.html" target="_top" xlink:title=" ">
<polygon fill="none" stroke="black" points="422.5,-168.5 422.5,-187.5 549.5,-187.5 549.5,-168.5 422.5,-168.5"/>
<text text-anchor="middle" x="486" y="-175.5" font-family="Helvetica,sans-Serif" font-size="10.00">forward_list_as_map.h</text>
</a>
</g>
</g>
<!-- Node9&#45;&gt;Node26 -->
<g id="edge21" class="edge">
<title>Node9&#45;&gt;Node26</title>
<path fill="none" stroke="midnightblue" d="M186.26,-226.16C189.19,-225.38 192.15,-224.63 195,-224 268.25,-207.77 353.15,-195.36 412.27,-187.73"/>
<polygon fill="midnightblue" stroke="midnightblue" points="412.79,-191.19 422.27,-186.45 411.9,-184.24 412.79,-191.19"/>
</g>
<!-- Node11&#45;&gt;Node10 -->
<g id="edge14" class="edge">
<title>Node11&#45;&gt;Node10</title>
<path fill="none" stroke="midnightblue" d="M343.35,-58.27C289.16,-47.74 185.08,-27.53 132.34,-17.28"/>
<polygon fill="midnightblue" stroke="midnightblue" points="132.69,-13.78 122.21,-15.31 131.35,-20.66 132.69,-13.78"/>
</g>
<!-- Node12 -->
<g id="node12" class="node">
<title>Node12</title>
<g id="a_node12"><a xlink:title=" ">
<polygon fill="none" stroke="#bfbfbf" points="385.5,-0.5 385.5,-19.5 434.5,-19.5 434.5,-0.5 385.5,-0.5"/>
<text text-anchor="middle" x="410" y="-7.5" font-family="Helvetica,sans-Serif" font-size="10.00">cstdlib</text>
</a>
</g>
</g>
<!-- Node11&#45;&gt;Node12 -->
<g id="edge12" class="edge">
<title>Node11&#45;&gt;Node12</title>
<path fill="none" stroke="midnightblue" d="M383.28,-56.08C387.71,-48.61 394.16,-37.72 399.62,-28.52"/>
<polygon fill="midnightblue" stroke="midnightblue" points="402.73,-30.14 404.81,-19.75 396.71,-26.57 402.73,-30.14"/>
</g>
<!-- Node13 -->
<g id="node13" class="node">
<title>Node13</title>
<g id="a_node13"><a xlink:title=" ">
<polygon fill="none" stroke="#bfbfbf" points="311,-0.5 311,-19.5 367,-19.5 367,-0.5 311,-0.5"/>
<text text-anchor="middle" x="339" y="-7.5" font-family="Helvetica,sans-Serif" font-size="10.00">sstream</text>
</a>
</g>
</g>
<!-- Node11&#45;&gt;Node13 -->
<g id="edge13" class="edge">
<title>Node11&#45;&gt;Node13</title>
<path fill="none" stroke="midnightblue" d="M371.56,-56.08C366.05,-48.46 357.97,-37.26 351.24,-27.94"/>
<polygon fill="midnightblue" stroke="midnightblue" points="354.01,-25.81 345.32,-19.75 348.34,-29.91 354.01,-25.81"/>
</g>
<!-- Node14 -->
<g id="node14" class="node">
<title>Node14</title>
<g id="a_node14"><a xlink:title=" ">
<polygon fill="none" stroke="#bfbfbf" points="485.5,-0.5 485.5,-19.5 554.5,-19.5 554.5,-0.5 485.5,-0.5"/>
<text text-anchor="middle" x="520" y="-7.5" font-family="Helvetica,sans-Serif" font-size="10.00">type_traits</text>
</a>
</g>
</g>
<!-- Node11&#45;&gt;Node14 -->
<g id="edge15" class="edge">
<title>Node11&#45;&gt;Node14</title>
<path fill="none" stroke="midnightblue" d="M400.5,-56.44C424.08,-47.48 461.32,-33.31 487.96,-23.18"/>
<polygon fill="midnightblue" stroke="midnightblue" points="489.5,-26.34 497.6,-19.52 487.01,-19.8 489.5,-26.34"/>
</g>
<!-- Node16 -->
<g id="node16" class="node">
<title>Node16</title>
<g id="a_node16"><a xlink:href="dstring_8h.html" target="_top" xlink:title=" ">
<polygon fill="none" stroke="red" points="70.5,-112.5 70.5,-131.5 129.5,-131.5 129.5,-112.5 70.5,-112.5"/>
<text text-anchor="middle" x="100" y="-119.5" font-family="Helvetica,sans-Serif" font-size="10.00">dstring.h</text>
</a>
</g>
</g>
<!-- Node15&#45;&gt;Node16 -->
<g id="edge17" class="edge">
<title>Node15&#45;&gt;Node16</title>
<path fill="none" stroke="midnightblue" d="M153.72,-168.32C144.16,-160.26 129.72,-148.08 118.22,-138.37"/>
<polygon fill="midnightblue" stroke="midnightblue" points="120.37,-135.61 110.47,-131.83 115.86,-140.96 120.37,-135.61"/>
</g>
<!-- Node25 -->
<g id="node17" class="node">
<title>Node25</title>
<g id="a_node17"><a xlink:title=" ">
<polygon fill="none" stroke="#bfbfbf" points="148,-112.5 148,-131.5 222,-131.5 222,-112.5 148,-112.5"/>
<text text-anchor="middle" x="185" y="-119.5" font-family="Helvetica,sans-Serif" font-size="10.00">irep_ids.def</text>
</a>
</g>
</g>
<!-- Node15&#45;&gt;Node25 -->
<g id="edge20" class="edge">
<title>Node15&#45;&gt;Node25</title>
<path fill="none" stroke="midnightblue" d="M167.47,-168.08C170.31,-160.77 174.43,-150.18 177.96,-141.1"/>
<polygon fill="midnightblue" stroke="midnightblue" points="181.23,-142.34 181.6,-131.75 174.71,-139.8 181.23,-142.34"/>
</g>
<!-- Node16&#45;&gt;Node10 -->
<g id="edge18" class="edge">
<title>Node16&#45;&gt;Node10</title>
<path fill="none" stroke="midnightblue" d="M100,-112.37C100,-94.62 100,-53.67 100,-29.6"/>
<polygon fill="midnightblue" stroke="midnightblue" points="103.5,-29.59 100,-19.59 96.5,-29.59 103.5,-29.59"/>
</g>
<!-- Node16&#45;&gt;Node11 -->
<g id="edge19" class="edge">
<title>Node16&#45;&gt;Node11</title>
<path fill="none" stroke="midnightblue" d="M129.78,-114C132.89,-113.3 136.01,-112.63 139,-112 206.57,-97.85 285.32,-83.42 333.41,-74.84"/>
<polygon fill="midnightblue" stroke="midnightblue" points="334.25,-78.24 343.48,-73.04 333.02,-71.35 334.25,-78.24"/>
</g>
<!-- Node26&#45;&gt;Node5 -->
<g id="edge24" class="edge">
<title>Node26&#45;&gt;Node5</title>
<path fill="none" stroke="midnightblue" d="M510.4,-168.44C536.2,-159.4 577.08,-145.06 606.02,-134.92"/>
<polygon fill="midnightblue" stroke="midnightblue" points="607.43,-138.13 615.71,-131.52 605.12,-131.52 607.43,-138.13"/>
</g>
<!-- Node27 -->
<g id="node19" class="node">
<title>Node27</title>
<g id="a_node19"><a xlink:title=" ">
<polygon fill="none" stroke="#bfbfbf" points="316,-112.5 316,-131.5 380,-131.5 380,-112.5 316,-112.5"/>
<text text-anchor="middle" x="348" y="-119.5" font-family="Helvetica,sans-Serif" font-size="10.00">algorithm</text>
</a>
</g>
</g>
<!-- Node26&#45;&gt;Node27 -->
<g id="edge22" class="edge">
<title>Node26&#45;&gt;Node27</title>
<path fill="none" stroke="midnightblue" d="M464.13,-168.44C441.22,-159.48 405.02,-145.31 379.13,-135.18"/>
<polygon fill="midnightblue" stroke="midnightblue" points="380.35,-131.9 369.76,-131.52 377.8,-138.42 380.35,-131.9"/>
</g>
<!-- Node28 -->
<g id="node20" class="node">
<title>Node28</title>
<g id="a_node20"><a xlink:title=" ">
<polygon fill="none" stroke="#bfbfbf" points="398,-112.5 398,-131.5 472,-131.5 472,-112.5 398,-112.5"/>
<text text-anchor="middle" x="435" y="-119.5" font-family="Helvetica,sans-Serif" font-size="10.00">forward_list</text>
</a>
</g>
</g>
<!-- Node26&#45;&gt;Node28 -->
<g id="edge23" class="edge">
<title>Node26&#45;&gt;Node28</title>
<path fill="none" stroke="midnightblue" d="M477.58,-168.08C470.15,-160.22 459.15,-148.57 450.19,-139.08"/>
<polygon fill="midnightblue" stroke="midnightblue" points="452.68,-136.62 443.26,-131.75 447.59,-141.42 452.68,-136.62"/>
</g>
<!-- Node29 -->
<g id="node21" class="node">
<title>Node29</title>
<g id="a_node21"><a xlink:href="narrow_8h.html" target="_top" xlink:title=" ">
<polygon fill="none" stroke="black" points="490.5,-112.5 490.5,-131.5 549.5,-131.5 549.5,-112.5 490.5,-112.5"/>
<text text-anchor="middle" x="520" y="-119.5" font-family="Helvetica,sans-Serif" font-size="10.00">narrow.h</text>
</a>
</g>
</g>
<!-- Node26&#45;&gt;Node29 -->
<g id="edge25" class="edge">
<title>Node26&#45;&gt;Node29</title>
<path fill="none" stroke="midnightblue" d="M491.61,-168.08C496.37,-160.53 503.32,-149.49 509.15,-140.23"/>
<polygon fill="midnightblue" stroke="midnightblue" points="512.12,-142.08 514.49,-131.75 506.2,-138.35 512.12,-142.08"/>
</g>
<!-- Node29&#45;&gt;Node11 -->
<g id="edge27" class="edge">
<title>Node29&#45;&gt;Node11</title>
<path fill="none" stroke="midnightblue" d="M497.5,-112.44C473.92,-103.48 436.68,-89.31 410.04,-79.18"/>
<polygon fill="midnightblue" stroke="midnightblue" points="410.99,-75.8 400.4,-75.52 408.5,-82.34 410.99,-75.8"/>
</g>
<!-- Node29&#45;&gt;Node14 -->
<g id="edge26" class="edge">
<title>Node29&#45;&gt;Node14</title>
<path fill="none" stroke="midnightblue" d="M520,-112.37C520,-94.62 520,-53.67 520,-29.6"/>
<polygon fill="midnightblue" stroke="midnightblue" points="523.5,-29.59 520,-19.59 516.5,-29.59 523.5,-29.59"/>
</g>
<!-- Node31 -->
<g id="node23" class="node">
<title>Node31</title>
<g id="a_node23"><a xlink:title=" ">
<polygon fill="none" stroke="#bfbfbf" points="252.5,-168.5 252.5,-187.5 365.5,-187.5 365.5,-168.5 252.5,-168.5"/>
<text text-anchor="middle" x="309" y="-175.5" font-family="Helvetica,sans-Serif" font-size="10.00">nonstd/optional.hpp</text>
</a>
</g>
</g>
<!-- Node30&#45;&gt;Node31 -->
<g id="edge29" class="edge">
<title>Node30&#45;&gt;Node31</title>
<path fill="none" stroke="midnightblue" d="M325.7,-224.08C323.02,-216.85 319.15,-206.41 315.81,-197.4"/>
<polygon fill="midnightblue" stroke="midnightblue" points="319,-195.91 312.24,-187.75 312.43,-198.34 319,-195.91"/>
</g>
<!-- Node32&#45;&gt;Node14 -->
<g id="edge32" class="edge">
<title>Node32&#45;&gt;Node14</title>
<path fill="none" stroke="midnightblue" d="M511.94,-392.37C556.97,-373.15 659,-325.78 659,-291 659,-291 659,-291 659,-233 659,-178.17 709.67,-159.9 683,-112 656.8,-64.94 598.61,-37.02 559.33,-22.85"/>
<polygon fill="midnightblue" stroke="midnightblue" points="560.38,-19.51 549.79,-19.54 558.09,-26.12 560.38,-19.51"/>
</g>
<!-- Node33 -->
<g id="node25" class="node">
<title>Node33</title>
<g id="a_node25"><a xlink:href="exception__utils_8h.html" target="_top" xlink:title=" ">
<polygon fill="none" stroke="black" points="464,-336.5 464,-355.5 564,-355.5 564,-336.5 464,-336.5"/>
<text text-anchor="middle" x="514" y="-343.5" font-family="Helvetica,sans-Serif" font-size="10.00">exception_utils.h</text>
</a>
</g>
</g>
<!-- Node32&#45;&gt;Node33 -->
<g id="edge33" class="edge">
<title>Node32&#45;&gt;Node33</title>
<path fill="none" stroke="midnightblue" d="M494.8,-392.08C497.91,-384.77 502.42,-374.18 506.29,-365.1"/>
<polygon fill="midnightblue" stroke="midnightblue" points="509.57,-366.32 510.27,-355.75 503.13,-363.58 509.57,-366.32"/>
</g>
<!-- Node32&#45;&gt;Node34 -->
<g id="edge37" class="edge">
<title>Node32&#45;&gt;Node34</title>
<path fill="none" stroke="midnightblue" d="M475.09,-392.32C459.36,-383.74 435.06,-370.49 416.79,-360.52"/>
<polygon fill="midnightblue" stroke="midnightblue" points="418.32,-357.37 407.87,-355.65 414.97,-363.52 418.32,-357.37"/>
</g>
<!-- Node33&#45;&gt;Node7 -->
<g id="edge36" class="edge">
<title>Node33&#45;&gt;Node7</title>
<path fill="none" stroke="midnightblue" d="M475.18,-336.44C432.44,-327.02 363.67,-311.87 317.43,-301.68"/>
<polygon fill="midnightblue" stroke="midnightblue" points="318.16,-298.25 307.64,-299.52 316.65,-305.09 318.16,-298.25"/>
</g>
<!-- Node33&#45;&gt;Node10 -->
<g id="edge34" class="edge">
<title>Node33&#45;&gt;Node10</title>
<path fill="none" stroke="midnightblue" d="M508.96,-336.21C492.68,-308.46 438.87,-221.36 375,-168 348.76,-146.08 336.88,-148.63 307,-132 239.6,-94.48 161.32,-47.88 123.22,-25.01"/>
<polygon fill="midnightblue" stroke="midnightblue" points="124.81,-21.87 114.44,-19.72 121.2,-27.87 124.81,-21.87"/>
</g>
<!-- Node33&#45;&gt;Node11 -->
<g id="edge35" class="edge">
<title>Node33&#45;&gt;Node11</title>
<path fill="none" stroke="midnightblue" d="M523.44,-336.31C541.25,-318.93 578,-277.86 578,-235 578,-235 578,-235 578,-177 578,-146.9 580.71,-132.84 559,-112 539.69,-93.46 469.8,-80.09 422.73,-72.96"/>
<polygon fill="midnightblue" stroke="midnightblue" points="423.18,-69.48 412.77,-71.48 422.15,-76.41 423.18,-69.48"/>
</g>
</g>
</svg>
