<?xml version="1.0" encoding="UTF-8" standalone="no"?>
<!DOCTYPE svg PUBLIC "-//W3C//DTD SVG 1.1//EN"
 "http://www.w3.org/Graphics/SVG/1.1/DTD/svg11.dtd">
<!-- Generated by graphviz version 2.43.0 (0)
 -->
<!-- Title: /home/runner/work/cbmc/cbmc/src/cprover/propagate.cpp Pages: 1 -->
<svg width="837pt" height="599pt"
 viewBox="0.00 0.00 836.50 599.00" xmlns="http://www.w3.org/2000/svg" xmlns:xlink="http://www.w3.org/1999/xlink">
<g id="graph0" class="graph" transform="scale(1 1) rotate(0) translate(4 595)">
<title>/home/runner/work/cbmc/cbmc/src/cprover/propagate.cpp</title>
<!-- Node1 -->
<g id="node1" class="node">
<title>Node1</title>
<g id="a_node1"><a xlink:title=" ">
<polygon fill="#bfbfbf" stroke="black" points="480.5,-560.5 480.5,-590.5 656.5,-590.5 656.5,-560.5 480.5,-560.5"/>
<text text-anchor="start" x="488.5" y="-578.5" font-family="Helvetica,sans-Serif" font-size="10.00">/home/runner/work/cbmc</text>
<text text-anchor="middle" x="568.5" y="-567.5" font-family="Helvetica,sans-Serif" font-size="10.00">/cbmc/src/cprover/propagate.cpp</text>
</a>
</g>
</g>
<!-- Node2 -->
<g id="node2" class="node">
<title>Node2</title>
<g id="a_node2"><a xlink:href="propagate_8h.html" target="_top" xlink:title=" ">
<polygon fill="none" stroke="black" points="397,-504.5 397,-523.5 472,-523.5 472,-504.5 397,-504.5"/>
<text text-anchor="middle" x="434.5" y="-511.5" font-family="Helvetica,sans-Serif" font-size="10.00">propagate.h</text>
</a>
</g>
</g>
<!-- Node1&#45;&gt;Node2 -->
<g id="edge1" class="edge">
<title>Node1&#45;&gt;Node2</title>
<path fill="none" stroke="midnightblue" d="M536.74,-560.4C514.46,-550.51 484.91,-537.38 463.31,-527.79"/>
<polygon fill="midnightblue" stroke="midnightblue" points="464.56,-524.52 454,-523.66 461.72,-530.91 464.56,-524.52"/>
</g>
<!-- Node48 -->
<g id="node23" class="node">
<title>Node48</title>
<g id="a_node23"><a xlink:href="format__expr_8h.html" target="_top" xlink:title=" ">
<polygon fill="none" stroke="black" points="559.5,-280.5 559.5,-299.5 663.5,-299.5 663.5,-280.5 559.5,-280.5"/>
<text text-anchor="middle" x="611.5" y="-287.5" font-family="Helvetica,sans-Serif" font-size="10.00">util/format_expr.h</text>
</a>
</g>
</g>
<!-- Node1&#45;&gt;Node48 -->
<g id="edge36" class="edge">
<title>Node1&#45;&gt;Node48</title>
<path fill="none" stroke="midnightblue" d="M577.83,-560.22C590.75,-539.03 612.5,-497.62 612.5,-459 612.5,-459 612.5,-459 612.5,-401 612.5,-368.95 612.07,-331.64 611.77,-309.75"/>
<polygon fill="midnightblue" stroke="midnightblue" points="615.27,-309.51 611.63,-299.56 608.27,-309.61 615.27,-309.51"/>
</g>
<!-- Node50 -->
<g id="node26" class="node">
<title>Node50</title>
<g id="a_node26"><a xlink:href="simplify__expr_8h.html" target="_top" xlink:title=" ">
<polygon fill="none" stroke="black" points="640.5,-504.5 640.5,-523.5 750.5,-523.5 750.5,-504.5 640.5,-504.5"/>
<text text-anchor="middle" x="695.5" y="-511.5" font-family="Helvetica,sans-Serif" font-size="10.00">util/simplify_expr.h</text>
</a>
</g>
</g>
<!-- Node1&#45;&gt;Node50 -->
<g id="edge45" class="edge">
<title>Node1&#45;&gt;Node50</title>
<path fill="none" stroke="midnightblue" d="M598.6,-560.4C619.62,-550.55 647.47,-537.5 667.92,-527.92"/>
<polygon fill="midnightblue" stroke="midnightblue" points="669.45,-531.07 677.02,-523.66 666.48,-524.73 669.45,-531.07"/>
</g>
<!-- Node51 -->
<g id="node27" class="node">
<title>Node51</title>
<g id="a_node27"><a xlink:href="simplify__state__expr_8h.html" target="_top" xlink:title=" ">
<polygon fill="none" stroke="black" points="463,-392.5 463,-411.5 584,-411.5 584,-392.5 463,-392.5"/>
<text text-anchor="middle" x="523.5" y="-399.5" font-family="Helvetica,sans-Serif" font-size="10.00">simplify_state_expr.h</text>
</a>
</g>
</g>
<!-- Node1&#45;&gt;Node51 -->
<g id="edge46" class="edge">
<title>Node1&#45;&gt;Node51</title>
<path fill="none" stroke="midnightblue" d="M564.82,-560.47C556.71,-529.57 537.33,-455.69 528.29,-421.25"/>
<polygon fill="midnightblue" stroke="midnightblue" points="531.67,-420.34 525.75,-411.56 524.9,-422.12 531.67,-420.34"/>
</g>
<!-- Node53 -->
<g id="node29" class="node">
<title>Node53</title>
<g id="a_node29"><a xlink:href="state_8h.html" target="_top" xlink:title=" ">
<polygon fill="none" stroke="black" points="184.5,-448.5 184.5,-467.5 234.5,-467.5 234.5,-448.5 184.5,-448.5"/>
<text text-anchor="middle" x="209.5" y="-455.5" font-family="Helvetica,sans-Serif" font-size="10.00">state.h</text>
</a>
</g>
</g>
<!-- Node1&#45;&gt;Node53 -->
<g id="edge52" class="edge">
<title>Node1&#45;&gt;Node53</title>
<path fill="none" stroke="midnightblue" d="M514.23,-560.41C478.34,-550.81 430.37,-537.45 388.5,-524 336.14,-507.17 276.24,-484.77 240.71,-471.14"/>
<polygon fill="midnightblue" stroke="midnightblue" points="241.95,-467.87 231.36,-467.54 239.44,-474.4 241.95,-467.87"/>
</g>
<!-- Node56 -->
<g id="node32" class="node">
<title>Node56</title>
<g id="a_node32"><a xlink:title=" ">
<polygon fill="none" stroke="#bfbfbf" points="768.5,-504.5 768.5,-523.5 828.5,-523.5 828.5,-504.5 768.5,-504.5"/>
<text text-anchor="middle" x="798.5" y="-511.5" font-family="Helvetica,sans-Serif" font-size="10.00">iostream</text>
</a>
</g>
</g>
<!-- Node1&#45;&gt;Node56 -->
<g id="edge58" class="edge">
<title>Node1&#45;&gt;Node56</title>
<path fill="none" stroke="midnightblue" d="M622.72,-560.47C664.23,-549.73 720.58,-535.16 758.18,-525.43"/>
<polygon fill="midnightblue" stroke="midnightblue" points="759.45,-528.72 768.25,-522.82 757.7,-521.94 759.45,-528.72"/>
</g>
<!-- Node3 -->
<g id="node3" class="node">
<title>Node3</title>
<g id="a_node3"><a xlink:href="solver__types_8h.html" target="_top" xlink:title=" ">
<polygon fill="none" stroke="black" points="299.5,-448.5 299.5,-467.5 387.5,-467.5 387.5,-448.5 299.5,-448.5"/>
<text text-anchor="middle" x="343.5" y="-455.5" font-family="Helvetica,sans-Serif" font-size="10.00">solver_types.h</text>
</a>
</g>
</g>
<!-- Node2&#45;&gt;Node3 -->
<g id="edge2" class="edge">
<title>Node2&#45;&gt;Node3</title>
<path fill="none" stroke="midnightblue" d="M419.88,-504.32C405.55,-495.82 383.49,-482.73 366.75,-472.8"/>
<polygon fill="midnightblue" stroke="midnightblue" points="368.47,-469.75 358.08,-467.65 364.9,-475.77 368.47,-469.75"/>
</g>
<!-- Node47 -->
<g id="node22" class="node">
<title>Node47</title>
<g id="a_node22"><a xlink:title=" ">
<polygon fill="none" stroke="#bfbfbf" points="424.5,-336.5 424.5,-355.5 510.5,-355.5 510.5,-336.5 424.5,-336.5"/>
<text text-anchor="middle" x="467.5" y="-343.5" font-family="Helvetica,sans-Serif" font-size="10.00">unordered_set</text>
</a>
</g>
</g>
<!-- Node2&#45;&gt;Node47 -->
<g id="edge35" class="edge">
<title>Node2&#45;&gt;Node47</title>
<path fill="none" stroke="midnightblue" d="M435.56,-504.42C438.11,-484.53 445.06,-433.74 454.5,-392 456.52,-383.07 459.28,-373.28 461.74,-365.13"/>
<polygon fill="midnightblue" stroke="midnightblue" points="465.09,-366.14 464.7,-355.55 458.4,-364.06 465.09,-366.14"/>
</g>
<!-- Node4 -->
<g id="node4" class="node">
<title>Node4</title>
<g id="a_node4"><a xlink:href="mathematical__expr_8h.html" target="_top" xlink:title=" ">
<polygon fill="none" stroke="black" points="0,-392.5 0,-411.5 139,-411.5 139,-392.5 0,-392.5"/>
<text text-anchor="middle" x="69.5" y="-399.5" font-family="Helvetica,sans-Serif" font-size="10.00">util/mathematical_expr.h</text>
</a>
</g>
</g>
<!-- Node3&#45;&gt;Node4 -->
<g id="edge3" class="edge">
<title>Node3&#45;&gt;Node4</title>
<path fill="none" stroke="midnightblue" d="M300.08,-448.44C251.98,-438.96 174.41,-423.67 122.69,-413.48"/>
<polygon fill="midnightblue" stroke="midnightblue" points="123.2,-410.02 112.71,-411.52 121.85,-416.88 123.2,-410.02"/>
</g>
<!-- Node42 -->
<g id="node16" class="node">
<title>Node42</title>
<g id="a_node16"><a xlink:href="std__expr_8h.html" target="_top" xlink:title=" ">
<polygon fill="none" stroke="black" points="257,-336.5 257,-355.5 324,-355.5 324,-336.5 257,-336.5"/>
<text text-anchor="middle" x="290.5" y="-343.5" font-family="Helvetica,sans-Serif" font-size="10.00">std_expr.h</text>
</a>
</g>
</g>
<!-- Node3&#45;&gt;Node42 -->
<g id="edge32" class="edge">
<title>Node3&#45;&gt;Node42</title>
<path fill="none" stroke="midnightblue" d="M335.42,-448.34C327.77,-439.72 316.45,-425.82 309.5,-412 302.08,-397.23 297.07,-379.07 294.07,-365.71"/>
<polygon fill="midnightblue" stroke="midnightblue" points="297.48,-364.87 292.02,-355.79 290.62,-366.29 297.48,-364.87"/>
</g>
<!-- Node27 -->
<g id="node20" class="node">
<title>Node27</title>
<g id="a_node20"><a xlink:title=" ">
<polygon fill="none" stroke="#bfbfbf" points="351,-224.5 351,-243.5 444,-243.5 444,-224.5 351,-224.5"/>
<text text-anchor="middle" x="397.5" y="-231.5" font-family="Helvetica,sans-Serif" font-size="10.00">unordered_map</text>
</a>
</g>
</g>
<!-- Node3&#45;&gt;Node27 -->
<g id="edge34" class="edge">
<title>Node3&#45;&gt;Node27</title>
<path fill="none" stroke="midnightblue" d="M352.42,-448.26C360.45,-439.79 371.84,-426.19 377.5,-412 399.14,-357.79 399.74,-287.3 398.56,-254.01"/>
<polygon fill="midnightblue" stroke="midnightblue" points="402.05,-253.7 398.11,-243.87 395.06,-254.02 402.05,-253.7"/>
</g>
<!-- Node46 -->
<g id="node21" class="node">
<title>Node46</title>
<g id="a_node21"><a xlink:title=" ">
<polygon fill="none" stroke="#bfbfbf" points="318.5,-392.5 318.5,-411.5 368.5,-411.5 368.5,-392.5 318.5,-392.5"/>
<text text-anchor="middle" x="343.5" y="-399.5" font-family="Helvetica,sans-Serif" font-size="10.00">chrono</text>
</a>
</g>
</g>
<!-- Node3&#45;&gt;Node46 -->
<g id="edge33" class="edge">
<title>Node3&#45;&gt;Node46</title>
<path fill="none" stroke="midnightblue" d="M343.5,-448.08C343.5,-441.01 343.5,-430.86 343.5,-421.99"/>
<polygon fill="midnightblue" stroke="midnightblue" points="347,-421.75 343.5,-411.75 340,-421.75 347,-421.75"/>
</g>
<!-- Node5 -->
<g id="node5" class="node">
<title>Node5</title>
<g id="a_node5"><a xlink:href="mathematical__types_8h.html" target="_top" xlink:title=" ">
<polygon fill="none" stroke="black" points="23.5,-280.5 23.5,-299.5 149.5,-299.5 149.5,-280.5 23.5,-280.5"/>
<text text-anchor="middle" x="86.5" y="-287.5" font-family="Helvetica,sans-Serif" font-size="10.00">mathematical_types.h</text>
</a>
</g>
</g>
<!-- Node4&#45;&gt;Node5 -->
<g id="edge4" class="edge">
<title>Node4&#45;&gt;Node5</title>
<path fill="none" stroke="midnightblue" d="M70.83,-392.37C73.58,-374.62 79.91,-333.67 83.63,-309.6"/>
<polygon fill="midnightblue" stroke="midnightblue" points="87.1,-310.01 85.17,-299.59 80.19,-308.94 87.1,-310.01"/>
</g>
<!-- Node4&#45;&gt;Node42 -->
<g id="edge20" class="edge">
<title>Node4&#45;&gt;Node42</title>
<path fill="none" stroke="midnightblue" d="M104.52,-392.44C143.09,-383.02 205.15,-367.85 246.86,-357.66"/>
<polygon fill="midnightblue" stroke="midnightblue" points="247.85,-361.02 256.73,-355.25 246.19,-354.22 247.85,-361.02"/>
</g>
<!-- Node6 -->
<g id="node6" class="node">
<title>Node6</title>
<g id="a_node6"><a xlink:href="expr__cast_8h.html" target="_top" xlink:title="Templated functions to cast to specific exprt&#45;derived classes.">
<polygon fill="none" stroke="black" points="107,-224.5 107,-243.5 180,-243.5 180,-224.5 107,-224.5"/>
<text text-anchor="middle" x="143.5" y="-231.5" font-family="Helvetica,sans-Serif" font-size="10.00">expr_cast.h</text>
</a>
</g>
</g>
<!-- Node5&#45;&gt;Node6 -->
<g id="edge5" class="edge">
<title>Node5&#45;&gt;Node6</title>
<path fill="none" stroke="midnightblue" d="M95.66,-280.32C104,-272.42 116.53,-260.55 126.68,-250.94"/>
<polygon fill="midnightblue" stroke="midnightblue" points="129.32,-253.25 134.18,-243.83 124.51,-248.17 129.32,-253.25"/>
</g>
<!-- Node10 -->
<g id="node10" class="node">
<title>Node10</title>
<g id="a_node10"><a xlink:href="src_2util_2invariant_8h.html" target="_top" xlink:title=" ">
<polygon fill="none" stroke="red" points="390,-168.5 390,-187.5 459,-187.5 459,-168.5 390,-168.5"/>
<text text-anchor="middle" x="424.5" y="-175.5" font-family="Helvetica,sans-Serif" font-size="10.00">invariant.h</text>
</a>
</g>
</g>
<!-- Node5&#45;&gt;Node10 -->
<g id="edge18" class="edge">
<title>Node5&#45;&gt;Node10</title>
<path fill="none" stroke="midnightblue" d="M109.04,-280.44C143.28,-267.55 210.54,-242.69 268.5,-224 306.99,-211.59 351.34,-198.95 382.88,-190.25"/>
<polygon fill="midnightblue" stroke="midnightblue" points="383.94,-193.59 392.65,-187.56 382.08,-186.84 383.94,-193.59"/>
</g>
<!-- Node16 -->
<g id="node14" class="node">
<title>Node16</title>
<g id="a_node14"><a xlink:href="type_8h.html" target="_top" xlink:title=" ">
<polygon fill="none" stroke="red" points="31,-112.5 31,-131.5 78,-131.5 78,-112.5 31,-112.5"/>
<text text-anchor="middle" x="54.5" y="-119.5" font-family="Helvetica,sans-Serif" font-size="10.00">type.h</text>
</a>
</g>
</g>
<!-- Node5&#45;&gt;Node16 -->
<g id="edge19" class="edge">
<title>Node5&#45;&gt;Node16</title>
<path fill="none" stroke="midnightblue" d="M83.65,-280.47C78,-263.23 65.45,-222.89 59.5,-188 56.88,-172.64 55.63,-155 55.04,-141.98"/>
<polygon fill="midnightblue" stroke="midnightblue" points="58.53,-141.76 54.67,-131.89 51.54,-142.02 58.53,-141.76"/>
</g>
<!-- Node7 -->
<g id="node7" class="node">
<title>Node7</title>
<g id="a_node7"><a xlink:title=" ">
<polygon fill="none" stroke="#bfbfbf" points="218,-168.5 218,-187.5 275,-187.5 275,-168.5 218,-168.5"/>
<text text-anchor="middle" x="246.5" y="-175.5" font-family="Helvetica,sans-Serif" font-size="10.00">typeinfo</text>
</a>
</g>
</g>
<!-- Node6&#45;&gt;Node7 -->
<g id="edge6" class="edge">
<title>Node6&#45;&gt;Node7</title>
<path fill="none" stroke="midnightblue" d="M160.05,-224.32C176.49,-215.7 201.93,-202.36 220.97,-192.39"/>
<polygon fill="midnightblue" stroke="midnightblue" points="222.76,-195.4 229.99,-187.65 219.51,-189.2 222.76,-195.4"/>
</g>
<!-- Node8 -->
<g id="node8" class="node">
<title>Node8</title>
<g id="a_node8"><a xlink:title=" ">
<polygon fill="none" stroke="#bfbfbf" points="155,-0.5 155,-19.5 224,-19.5 224,-0.5 155,-0.5"/>
<text text-anchor="middle" x="189.5" y="-7.5" font-family="Helvetica,sans-Serif" font-size="10.00">type_traits</text>
</a>
</g>
</g>
<!-- Node6&#45;&gt;Node8 -->
<g id="edge7" class="edge">
<title>Node6&#45;&gt;Node8</title>
<path fill="none" stroke="midnightblue" d="M145.98,-224.41C150.94,-207.07 162.21,-166.55 169.5,-132 177.09,-96.01 183.54,-53.5 186.94,-29.65"/>
<polygon fill="midnightblue" stroke="midnightblue" points="190.43,-29.95 188.35,-19.56 183.5,-28.98 190.43,-29.95"/>
</g>
<!-- Node9 -->
<g id="node9" class="node">
<title>Node9</title>
<g id="a_node9"><a xlink:title=" ">
<polygon fill="none" stroke="#bfbfbf" points="96,-112.5 96,-131.5 161,-131.5 161,-112.5 96,-112.5"/>
<text text-anchor="middle" x="128.5" y="-119.5" font-family="Helvetica,sans-Serif" font-size="10.00">functional</text>
</a>
</g>
</g>
<!-- Node6&#45;&gt;Node9 -->
<g id="edge8" class="edge">
<title>Node6&#45;&gt;Node9</title>
<path fill="none" stroke="midnightblue" d="M142.32,-224.37C139.9,-206.62 134.32,-165.67 131.04,-141.6"/>
<polygon fill="midnightblue" stroke="midnightblue" points="134.49,-141.03 129.67,-131.59 127.55,-141.97 134.49,-141.03"/>
</g>
<!-- Node6&#45;&gt;Node10 -->
<g id="edge9" class="edge">
<title>Node6&#45;&gt;Node10</title>
<path fill="none" stroke="midnightblue" d="M180.24,-226.28C225.02,-218.05 303.26,-203.49 379.52,-188.37"/>
<polygon fill="midnightblue" stroke="midnightblue" points="380.65,-191.71 389.78,-186.33 379.29,-184.85 380.65,-191.71"/>
</g>
<!-- Node14 -->
<g id="node13" class="node">
<title>Node14</title>
<g id="a_node13"><a xlink:href="expr_8h.html" target="_top" xlink:title=" ">
<polygon fill="none" stroke="red" points="69,-168.5 69,-187.5 116,-187.5 116,-168.5 69,-168.5"/>
<text text-anchor="middle" x="92.5" y="-175.5" font-family="Helvetica,sans-Serif" font-size="10.00">expr.h</text>
</a>
</g>
</g>
<!-- Node6&#45;&gt;Node14 -->
<g id="edge13" class="edge">
<title>Node6&#45;&gt;Node14</title>
<path fill="none" stroke="midnightblue" d="M135.08,-224.08C127.65,-216.22 116.65,-204.57 107.69,-195.08"/>
<polygon fill="midnightblue" stroke="midnightblue" points="110.18,-192.62 100.76,-187.75 105.09,-197.42 110.18,-192.62"/>
</g>
<!-- Node10&#45;&gt;Node8 -->
<g id="edge12" class="edge">
<title>Node10&#45;&gt;Node8</title>
<path fill="none" stroke="midnightblue" d="M420.3,-168.45C413.36,-155.02 398.37,-128.78 379.5,-112 331.92,-69.68 263.47,-38.94 223.04,-23.12"/>
<polygon fill="midnightblue" stroke="midnightblue" points="224.22,-19.83 213.63,-19.52 221.72,-26.37 224.22,-19.83"/>
</g>
<!-- Node12 -->
<g id="node11" class="node">
<title>Node12</title>
<g id="a_node11"><a xlink:title=" ">
<polygon fill="none" stroke="#bfbfbf" points="542.5,-112.5 542.5,-131.5 598.5,-131.5 598.5,-112.5 542.5,-112.5"/>
<text text-anchor="middle" x="570.5" y="-119.5" font-family="Helvetica,sans-Serif" font-size="10.00">sstream</text>
</a>
</g>
</g>
<!-- Node10&#45;&gt;Node12 -->
<g id="edge10" class="edge">
<title>Node10&#45;&gt;Node12</title>
<path fill="none" stroke="midnightblue" d="M447.63,-168.44C471.98,-159.44 510.51,-145.19 537.92,-135.05"/>
<polygon fill="midnightblue" stroke="midnightblue" points="539.31,-138.27 547.47,-131.52 536.88,-131.7 539.31,-138.27"/>
</g>
<!-- Node13 -->
<g id="node12" class="node">
<title>Node13</title>
<g id="a_node12"><a xlink:title=" ">
<polygon fill="none" stroke="#bfbfbf" points="458.5,-112.5 458.5,-131.5 502.5,-131.5 502.5,-112.5 458.5,-112.5"/>
<text text-anchor="middle" x="480.5" y="-119.5" font-family="Helvetica,sans-Serif" font-size="10.00">string</text>
</a>
</g>
</g>
<!-- Node10&#45;&gt;Node13 -->
<g id="edge11" class="edge">
<title>Node10&#45;&gt;Node13</title>
<path fill="none" stroke="midnightblue" d="M433.5,-168.32C441.69,-160.42 454.01,-148.55 463.97,-138.94"/>
<polygon fill="midnightblue" stroke="midnightblue" points="466.57,-141.29 471.34,-131.83 461.71,-136.26 466.57,-141.29"/>
</g>
<!-- Node14&#45;&gt;Node9 -->
<g id="edge17" class="edge">
<title>Node14&#45;&gt;Node9</title>
<path fill="none" stroke="midnightblue" d="M98.44,-168.08C103.48,-160.53 110.84,-149.49 117.01,-140.23"/>
<polygon fill="midnightblue" stroke="midnightblue" points="120.03,-142.01 122.67,-131.75 114.21,-138.13 120.03,-142.01"/>
</g>
<!-- Node14&#45;&gt;Node16 -->
<g id="edge14" class="edge">
<title>Node14&#45;&gt;Node16</title>
<path fill="none" stroke="midnightblue" d="M86.23,-168.08C80.86,-160.46 72.98,-149.26 66.42,-139.94"/>
<polygon fill="midnightblue" stroke="midnightblue" points="69.28,-137.91 60.66,-131.75 63.55,-141.94 69.28,-137.91"/>
</g>
<!-- Node37 -->
<g id="node15" class="node">
<title>Node37</title>
<g id="a_node15"><a xlink:href="validate_8h.html" target="_top" xlink:title=" ">
<polygon fill="none" stroke="red" points="22,-56.5 22,-75.5 87,-75.5 87,-56.5 22,-56.5"/>
<text text-anchor="middle" x="54.5" y="-63.5" font-family="Helvetica,sans-Serif" font-size="10.00">validate.h</text>
</a>
</g>
</g>
<!-- Node16&#45;&gt;Node37 -->
<g id="edge15" class="edge">
<title>Node16&#45;&gt;Node37</title>
<path fill="none" stroke="midnightblue" d="M54.5,-112.08C54.5,-105.01 54.5,-94.86 54.5,-85.99"/>
<polygon fill="midnightblue" stroke="midnightblue" points="58,-85.75 54.5,-75.75 51,-85.75 58,-85.75"/>
</g>
<!-- Node37&#45;&gt;Node8 -->
<g id="edge16" class="edge">
<title>Node37&#45;&gt;Node8</title>
<path fill="none" stroke="midnightblue" d="M75.89,-56.44C98.21,-47.52 133.4,-33.44 158.71,-23.32"/>
<polygon fill="midnightblue" stroke="midnightblue" points="160.22,-26.48 168.21,-19.52 157.62,-19.98 160.22,-26.48"/>
</g>
<!-- Node42&#45;&gt;Node6 -->
<g id="edge21" class="edge">
<title>Node42&#45;&gt;Node6</title>
<path fill="none" stroke="midnightblue" d="M287.03,-336.24C281.2,-322.53 268.2,-295.9 249.5,-280 231.57,-264.75 207.71,-254.01 187.17,-246.86"/>
<polygon fill="midnightblue" stroke="midnightblue" points="187.99,-243.44 177.39,-243.63 185.79,-250.09 187.99,-243.44"/>
</g>
<!-- Node42&#45;&gt;Node10 -->
<g id="edge22" class="edge">
<title>Node42&#45;&gt;Node10</title>
<path fill="none" stroke="midnightblue" d="M292.18,-336.32C296.74,-314.86 311.14,-258.53 342.5,-224 355.55,-209.63 374.29,-198.87 390.57,-191.48"/>
<polygon fill="midnightblue" stroke="midnightblue" points="391.99,-194.68 399.8,-187.52 389.23,-188.24 391.99,-194.68"/>
</g>
<!-- Node43 -->
<g id="node17" class="node">
<title>Node43</title>
<g id="a_node17"><a xlink:href="std__types_8h.html" target="_top" xlink:title=" ">
<polygon fill="none" stroke="black" points="168,-280.5 168,-299.5 241,-299.5 241,-280.5 168,-280.5"/>
<text text-anchor="middle" x="204.5" y="-287.5" font-family="Helvetica,sans-Serif" font-size="10.00">std_types.h</text>
</a>
</g>
</g>
<!-- Node42&#45;&gt;Node43 -->
<g id="edge23" class="edge">
<title>Node42&#45;&gt;Node43</title>
<path fill="none" stroke="midnightblue" d="M276.68,-336.32C263.27,-327.9 242.68,-314.97 226.91,-305.07"/>
<polygon fill="midnightblue" stroke="midnightblue" points="228.61,-302.01 218.28,-299.65 224.89,-307.94 228.61,-302.01"/>
</g>
<!-- Node43&#45;&gt;Node6 -->
<g id="edge25" class="edge">
<title>Node43&#45;&gt;Node6</title>
<path fill="none" stroke="midnightblue" d="M194.7,-280.32C185.68,-272.34 172.09,-260.31 161.18,-250.65"/>
<polygon fill="midnightblue" stroke="midnightblue" points="163.29,-247.84 153.48,-243.83 158.65,-253.08 163.29,-247.84"/>
</g>
<!-- Node43&#45;&gt;Node10 -->
<g id="edge26" class="edge">
<title>Node43&#45;&gt;Node10</title>
<path fill="none" stroke="midnightblue" d="M216.55,-280.41C235.49,-267.17 273.66,-241.45 308.5,-224 334.53,-210.96 365.29,-199.18 388.6,-190.95"/>
<polygon fill="midnightblue" stroke="midnightblue" points="389.8,-194.24 398.09,-187.64 387.5,-187.63 389.8,-194.24"/>
</g>
<!-- Node43&#45;&gt;Node14 -->
<g id="edge24" class="edge">
<title>Node43&#45;&gt;Node14</title>
<path fill="none" stroke="midnightblue" d="M175.15,-280.44C146.86,-271.56 106.99,-257.16 97.5,-244 87.89,-230.67 87.57,-211.55 89.1,-197.5"/>
<polygon fill="midnightblue" stroke="midnightblue" points="92.57,-197.93 90.57,-187.52 85.65,-196.9 92.57,-197.93"/>
</g>
<!-- Node43&#45;&gt;Node37 -->
<g id="edge30" class="edge">
<title>Node43&#45;&gt;Node37</title>
<path fill="none" stroke="midnightblue" d="M167.91,-281.83C142.75,-275.39 109.8,-263.81 86.5,-244 42.65,-206.72 36.46,-187.58 21.5,-132 19.19,-123.42 18.73,-120.45 21.5,-112 24.99,-101.34 32.07,-91.12 38.79,-83.12"/>
<polygon fill="midnightblue" stroke="midnightblue" points="41.4,-85.44 45.48,-75.66 36.2,-80.76 41.4,-85.44"/>
</g>
<!-- Node44 -->
<g id="node18" class="node">
<title>Node44</title>
<g id="a_node18"><a xlink:href="mp__arith_8h.html" target="_top" xlink:title=" ">
<polygon fill="none" stroke="red" points="303,-168.5 303,-187.5 372,-187.5 372,-168.5 303,-168.5"/>
<text text-anchor="middle" x="337.5" y="-175.5" font-family="Helvetica,sans-Serif" font-size="10.00">mp_arith.h</text>
</a>
</g>
</g>
<!-- Node43&#45;&gt;Node44 -->
<g id="edge27" class="edge">
<title>Node43&#45;&gt;Node44</title>
<path fill="none" stroke="midnightblue" d="M212.17,-280.49C224.03,-267.55 247.83,-242.51 270.5,-224 284.43,-212.63 301.24,-201.34 314.54,-192.92"/>
<polygon fill="midnightblue" stroke="midnightblue" points="316.47,-195.84 323.1,-187.58 312.76,-189.9 316.47,-195.84"/>
</g>
<!-- Node43&#45;&gt;Node27 -->
<g id="edge31" class="edge">
<title>Node43&#45;&gt;Node27</title>
<path fill="none" stroke="midnightblue" d="M235.08,-280.44C268.11,-271.2 320.89,-256.44 357.27,-246.26"/>
<polygon fill="midnightblue" stroke="midnightblue" points="358.37,-249.58 367.06,-243.52 356.49,-242.84 358.37,-249.58"/>
</g>
<!-- Node44&#45;&gt;Node13 -->
<g id="edge29" class="edge">
<title>Node44&#45;&gt;Node13</title>
<path fill="none" stroke="midnightblue" d="M360.16,-168.44C384.04,-159.42 421.85,-145.15 448.71,-135"/>
<polygon fill="midnightblue" stroke="midnightblue" points="450.3,-138.15 458.42,-131.34 447.83,-131.6 450.3,-138.15"/>
</g>
<!-- Node22 -->
<g id="node19" class="node">
<title>Node22</title>
<g id="a_node19"><a xlink:title=" ">
<polygon fill="none" stroke="#bfbfbf" points="322.5,-112.5 322.5,-131.5 370.5,-131.5 370.5,-112.5 322.5,-112.5"/>
<text text-anchor="middle" x="346.5" y="-119.5" font-family="Helvetica,sans-Serif" font-size="10.00">iosfwd</text>
</a>
</g>
</g>
<!-- Node44&#45;&gt;Node22 -->
<g id="edge28" class="edge">
<title>Node44&#45;&gt;Node22</title>
<path fill="none" stroke="midnightblue" d="M338.99,-168.08C340.18,-160.93 341.89,-150.64 343.38,-141.69"/>
<polygon fill="midnightblue" stroke="midnightblue" points="346.85,-142.19 345.04,-131.75 339.95,-141.04 346.85,-142.19"/>
</g>
<!-- Node48&#45;&gt;Node9 -->
<g id="edge44" class="edge">
<title>Node48&#45;&gt;Node9</title>
<path fill="none" stroke="midnightblue" d="M604.98,-280.36C594.86,-267.25 574.33,-241.99 553.5,-224 519.26,-194.43 510.89,-183.81 468.5,-168 366.56,-129.97 236.93,-123.3 171.07,-122.6"/>
<polygon fill="midnightblue" stroke="midnightblue" points="171.08,-119.1 161.06,-122.54 171.03,-126.1 171.08,-119.1"/>
</g>
<!-- Node49 -->
<g id="node24" class="node">
<title>Node49</title>
<g id="a_node24"><a xlink:href="format_8h.html" target="_top" xlink:title=" ">
<polygon fill="none" stroke="black" points="582,-168.5 582,-187.5 641,-187.5 641,-168.5 582,-168.5"/>
<text text-anchor="middle" x="611.5" y="-175.5" font-family="Helvetica,sans-Serif" font-size="10.00">format.h</text>
</a>
</g>
</g>
<!-- Node48&#45;&gt;Node49 -->
<g id="edge37" class="edge">
<title>Node48&#45;&gt;Node49</title>
<path fill="none" stroke="midnightblue" d="M611.5,-280.37C611.5,-262.62 611.5,-221.67 611.5,-197.6"/>
<polygon fill="midnightblue" stroke="midnightblue" points="615,-197.59 611.5,-187.59 608,-197.59 615,-197.59"/>
</g>
<!-- Node18 -->
<g id="node25" class="node">
<title>Node18</title>
<g id="a_node25"><a xlink:href="irep_8h.html" target="_top" xlink:title=" ">
<polygon fill="none" stroke="red" points="500.5,-224.5 500.5,-243.5 544.5,-243.5 544.5,-224.5 500.5,-224.5"/>
<text text-anchor="middle" x="522.5" y="-231.5" font-family="Helvetica,sans-Serif" font-size="10.00">irep.h</text>
</a>
</g>
</g>
<!-- Node48&#45;&gt;Node18 -->
<g id="edge41" class="edge">
<title>Node48&#45;&gt;Node18</title>
<path fill="none" stroke="midnightblue" d="M597.2,-280.32C583.32,-271.9 562.01,-258.97 545.7,-249.07"/>
<polygon fill="midnightblue" stroke="midnightblue" points="547.13,-245.85 536.76,-243.65 543.5,-251.83 547.13,-245.85"/>
</g>
<!-- Node49&#45;&gt;Node12 -->
<g id="edge39" class="edge">
<title>Node49&#45;&gt;Node12</title>
<path fill="none" stroke="midnightblue" d="M604.73,-168.08C598.94,-160.46 590.44,-149.26 583.36,-139.94"/>
<polygon fill="midnightblue" stroke="midnightblue" points="585.98,-137.6 577.14,-131.75 580.4,-141.83 585.98,-137.6"/>
</g>
<!-- Node49&#45;&gt;Node13 -->
<g id="edge40" class="edge">
<title>Node49&#45;&gt;Node13</title>
<path fill="none" stroke="midnightblue" d="M590.74,-168.44C569.18,-159.56 535.24,-145.56 510.71,-135.45"/>
<polygon fill="midnightblue" stroke="midnightblue" points="511.74,-132.09 501.16,-131.52 509.07,-138.56 511.74,-132.09"/>
</g>
<!-- Node49&#45;&gt;Node22 -->
<g id="edge38" class="edge">
<title>Node49&#45;&gt;Node22</title>
<path fill="none" stroke="midnightblue" d="M581.68,-170.9C576.94,-169.93 572.08,-168.94 567.5,-168 501.4,-154.51 424.17,-138.8 380.73,-129.96"/>
<polygon fill="midnightblue" stroke="midnightblue" points="381.2,-126.48 370.7,-127.92 379.8,-133.34 381.2,-126.48"/>
</g>
<!-- Node18&#45;&gt;Node10 -->
<g id="edge43" class="edge">
<title>Node18&#45;&gt;Node10</title>
<path fill="none" stroke="midnightblue" d="M506.75,-224.32C491.18,-215.74 467.12,-202.49 449.04,-192.52"/>
<polygon fill="midnightblue" stroke="midnightblue" points="450.65,-189.42 440.21,-187.65 447.28,-195.55 450.65,-189.42"/>
</g>
<!-- Node18&#45;&gt;Node13 -->
<g id="edge42" class="edge">
<title>Node18&#45;&gt;Node13</title>
<path fill="none" stroke="midnightblue" d="M519.2,-224.37C512.37,-206.46 496.51,-164.92 487.35,-140.95"/>
<polygon fill="midnightblue" stroke="midnightblue" points="490.62,-139.69 483.78,-131.59 484.08,-142.18 490.62,-139.69"/>
</g>
<!-- Node51&#45;&gt;Node42 -->
<g id="edge50" class="edge">
<title>Node51&#45;&gt;Node42</title>
<path fill="none" stroke="midnightblue" d="M486.58,-392.44C445.15,-382.84 378.01,-367.28 334.05,-357.09"/>
<polygon fill="midnightblue" stroke="midnightblue" points="334.75,-353.66 324.22,-354.82 333.17,-360.48 334.75,-353.66"/>
</g>
<!-- Node51&#45;&gt;Node47 -->
<g id="edge51" class="edge">
<title>Node51&#45;&gt;Node47</title>
<path fill="none" stroke="midnightblue" d="M514.5,-392.32C506.31,-384.42 493.99,-372.55 484.03,-362.94"/>
<polygon fill="midnightblue" stroke="midnightblue" points="486.29,-360.26 476.66,-355.83 481.43,-365.29 486.29,-360.26"/>
</g>
<!-- Node52 -->
<g id="node28" class="node">
<title>Node52</title>
<g id="a_node28"><a xlink:href="namespace_8h.html" target="_top" xlink:title=" ">
<polygon fill="none" stroke="black" points="440,-280.5 440,-299.5 541,-299.5 541,-280.5 440,-280.5"/>
<text text-anchor="middle" x="490.5" y="-287.5" font-family="Helvetica,sans-Serif" font-size="10.00">util/namespace.h</text>
</a>
</g>
</g>
<!-- Node51&#45;&gt;Node52 -->
<g id="edge47" class="edge">
<title>Node51&#45;&gt;Node52</title>
<path fill="none" stroke="midnightblue" d="M524.33,-392.33C525.24,-379.62 525.84,-355.34 519.5,-336 516.17,-325.86 510,-315.77 504.2,-307.72"/>
<polygon fill="midnightblue" stroke="midnightblue" points="506.84,-305.41 497.98,-299.6 501.29,-309.67 506.84,-305.41"/>
</g>
<!-- Node52&#45;&gt;Node10 -->
<g id="edge48" class="edge">
<title>Node52&#45;&gt;Node10</title>
<path fill="none" stroke="midnightblue" d="M485.86,-280.5C478.99,-268 465.62,-243.99 453.5,-224 447.83,-214.65 441.24,-204.38 435.78,-196.02"/>
<polygon fill="midnightblue" stroke="midnightblue" points="438.62,-193.97 430.2,-187.54 432.77,-197.82 438.62,-193.97"/>
</g>
<!-- Node52&#45;&gt;Node18 -->
<g id="edge49" class="edge">
<title>Node52&#45;&gt;Node18</title>
<path fill="none" stroke="midnightblue" d="M495.78,-280.08C500.21,-272.61 506.66,-261.72 512.12,-252.52"/>
<polygon fill="midnightblue" stroke="midnightblue" points="515.23,-254.14 517.31,-243.75 509.21,-250.57 515.23,-254.14"/>
</g>
<!-- Node53&#45;&gt;Node4 -->
<g id="edge53" class="edge">
<title>Node53&#45;&gt;Node4</title>
<path fill="none" stroke="midnightblue" d="M187.32,-448.44C164.07,-439.48 127.35,-425.31 101.08,-415.18"/>
<polygon fill="midnightblue" stroke="midnightblue" points="102.17,-411.85 91.58,-411.52 99.65,-418.38 102.17,-411.85"/>
</g>
<!-- Node54 -->
<g id="node30" class="node">
<title>Node54</title>
<g id="a_node30"><a xlink:href="pointer__expr_8h.html" target="_top" xlink:title=" ">
<polygon fill="none" stroke="black" points="157,-392.5 157,-411.5 262,-411.5 262,-392.5 157,-392.5"/>
<text text-anchor="middle" x="209.5" y="-399.5" font-family="Helvetica,sans-Serif" font-size="10.00">util/pointer_expr.h</text>
</a>
</g>
</g>
<!-- Node53&#45;&gt;Node54 -->
<g id="edge54" class="edge">
<title>Node53&#45;&gt;Node54</title>
<path fill="none" stroke="midnightblue" d="M209.5,-448.08C209.5,-441.01 209.5,-430.86 209.5,-421.99"/>
<polygon fill="midnightblue" stroke="midnightblue" points="213,-421.75 209.5,-411.75 206,-421.75 213,-421.75"/>
</g>
<!-- Node54&#45;&gt;Node42 -->
<g id="edge57" class="edge">
<title>Node54&#45;&gt;Node42</title>
<path fill="none" stroke="midnightblue" d="M222.51,-392.32C235.03,-383.98 254.18,-371.21 268.97,-361.35"/>
<polygon fill="midnightblue" stroke="midnightblue" points="271.14,-364.11 277.52,-355.65 267.26,-358.29 271.14,-364.11"/>
</g>
<!-- Node55 -->
<g id="node31" class="node">
<title>Node55</title>
<g id="a_node31"><a xlink:href="bitvector__types_8h.html" target="_top" xlink:title=" ">
<polygon fill="none" stroke="black" points="138,-336.5 138,-355.5 239,-355.5 239,-336.5 138,-336.5"/>
<text text-anchor="middle" x="188.5" y="-343.5" font-family="Helvetica,sans-Serif" font-size="10.00">bitvector_types.h</text>
</a>
</g>
</g>
<!-- Node54&#45;&gt;Node55 -->
<g id="edge55" class="edge">
<title>Node54&#45;&gt;Node55</title>
<path fill="none" stroke="midnightblue" d="M206.03,-392.08C203.19,-384.77 199.07,-374.18 195.54,-365.1"/>
<polygon fill="midnightblue" stroke="midnightblue" points="198.79,-363.8 191.9,-355.75 192.27,-366.34 198.79,-363.8"/>
</g>
<!-- Node55&#45;&gt;Node43 -->
<g id="edge56" class="edge">
<title>Node55&#45;&gt;Node43</title>
<path fill="none" stroke="midnightblue" d="M191.14,-336.08C193.29,-328.85 196.38,-318.41 199.05,-309.4"/>
<polygon fill="midnightblue" stroke="midnightblue" points="202.42,-310.33 201.91,-299.75 195.71,-308.34 202.42,-310.33"/>
</g>
</g>
</svg>
