<?xml version="1.0" encoding="UTF-8" standalone="no"?>
<!DOCTYPE svg PUBLIC "-//W3C//DTD SVG 1.1//EN"
 "http://www.w3.org/Graphics/SVG/1.1/DTD/svg11.dtd">
<!-- Generated by graphviz version 2.43.0 (0)
 -->
<!-- Title: /home/runner/work/cbmc/cbmc/src/solvers/prop/prop.h Pages: 1 -->
<svg width="1033pt" height="442pt"
 viewBox="0.00 0.00 1033.00 442.00" xmlns="http://www.w3.org/2000/svg" xmlns:xlink="http://www.w3.org/1999/xlink">
<g id="graph0" class="graph" transform="scale(1 1) rotate(0) translate(4 438)">
<title>/home/runner/work/cbmc/cbmc/src/solvers/prop/prop.h</title>
<!-- Node1 -->
<g id="node1" class="node">
<title>Node1</title>
<g id="a_node1"><a xlink:title=" ">
<polygon fill="#bfbfbf" stroke="black" points="859,-392.5 859,-433.5 997,-433.5 997,-392.5 859,-392.5"/>
<text text-anchor="start" x="867" y="-421.5" font-family="Helvetica,sans-Serif" font-size="10.00">/home/runner/work/cbmc</text>
<text text-anchor="start" x="867" y="-410.5" font-family="Helvetica,sans-Serif" font-size="10.00">/cbmc/src/solvers/prop</text>
<text text-anchor="middle" x="928" y="-399.5" font-family="Helvetica,sans-Serif" font-size="10.00">/prop.h</text>
</a>
</g>
</g>
<!-- Node2 -->
<g id="node2" class="node">
<title>Node2</title>
<g id="a_node2"><a xlink:href="src_2util_2message_8h.html" target="_top" xlink:title=" ">
<polygon fill="none" stroke="black" points="561.5,-336.5 561.5,-355.5 650.5,-355.5 650.5,-336.5 561.5,-336.5"/>
<text text-anchor="middle" x="606" y="-343.5" font-family="Helvetica,sans-Serif" font-size="10.00">util/message.h</text>
</a>
</g>
</g>
<!-- Node1&#45;&gt;Node2 -->
<g id="edge1" class="edge">
<title>Node1&#45;&gt;Node2</title>
<path fill="none" stroke="midnightblue" d="M858.92,-398.06C798.73,-385.91 712.76,-368.55 658.17,-357.53"/>
<polygon fill="midnightblue" stroke="midnightblue" points="658.85,-354.1 648.36,-355.55 657.47,-360.96 658.85,-354.1"/>
</g>
<!-- Node31 -->
<g id="node26" class="node">
<title>Node31</title>
<g id="a_node26"><a xlink:href="threeval_8h.html" target="_top" xlink:title=" ">
<polygon fill="none" stroke="black" points="937.5,-280.5 937.5,-299.5 1022.5,-299.5 1022.5,-280.5 937.5,-280.5"/>
<text text-anchor="middle" x="980" y="-287.5" font-family="Helvetica,sans-Serif" font-size="10.00">util/threeval.h</text>
</a>
</g>
</g>
<!-- Node1&#45;&gt;Node31 -->
<g id="edge36" class="edge">
<title>Node1&#45;&gt;Node31</title>
<path fill="none" stroke="midnightblue" d="M936.47,-392.29C946.41,-369.17 962.74,-331.16 972.32,-308.86"/>
<polygon fill="midnightblue" stroke="midnightblue" points="975.58,-310.14 976.31,-299.57 969.15,-307.38 975.58,-310.14"/>
</g>
<!-- Node32 -->
<g id="node27" class="node">
<title>Node32</title>
<g id="a_node27"><a xlink:href="literal_8h.html" target="_top" xlink:title=" ">
<polygon fill="none" stroke="black" points="850,-168.5 850,-187.5 904,-187.5 904,-168.5 850,-168.5"/>
<text text-anchor="middle" x="877" y="-175.5" font-family="Helvetica,sans-Serif" font-size="10.00">literal.h</text>
</a>
</g>
</g>
<!-- Node1&#45;&gt;Node32 -->
<g id="edge38" class="edge">
<title>Node1&#45;&gt;Node32</title>
<path fill="none" stroke="midnightblue" d="M923.65,-392.13C913.92,-347.68 890.51,-240.73 881.06,-197.54"/>
<polygon fill="midnightblue" stroke="midnightblue" points="884.44,-196.61 878.88,-187.59 877.6,-198.1 884.44,-196.61"/>
</g>
<!-- Node33 -->
<g id="node28" class="node">
<title>Node33</title>
<g id="a_node28"><a xlink:title=" ">
<polygon fill="none" stroke="#bfbfbf" points="975,-336.5 975,-355.5 1025,-355.5 1025,-336.5 975,-336.5"/>
<text text-anchor="middle" x="1000" y="-343.5" font-family="Helvetica,sans-Serif" font-size="10.00">cstdint</text>
</a>
</g>
</g>
<!-- Node1&#45;&gt;Node33 -->
<g id="edge42" class="edge">
<title>Node1&#45;&gt;Node33</title>
<path fill="none" stroke="midnightblue" d="M949.6,-392.5C960.22,-382.92 972.83,-371.53 982.78,-362.54"/>
<polygon fill="midnightblue" stroke="midnightblue" points="985.34,-364.95 990.42,-355.65 980.65,-359.76 985.34,-364.95"/>
</g>
<!-- Node3 -->
<g id="node3" class="node">
<title>Node3</title>
<g id="a_node3"><a xlink:title=" ">
<polygon fill="none" stroke="#bfbfbf" points="777.5,-280.5 777.5,-299.5 842.5,-299.5 842.5,-280.5 777.5,-280.5"/>
<text text-anchor="middle" x="810" y="-287.5" font-family="Helvetica,sans-Serif" font-size="10.00">functional</text>
</a>
</g>
</g>
<!-- Node2&#45;&gt;Node3 -->
<g id="edge2" class="edge">
<title>Node2&#45;&gt;Node3</title>
<path fill="none" stroke="midnightblue" d="M638.32,-336.44C673.39,-327.16 729.5,-312.31 767.96,-302.13"/>
<polygon fill="midnightblue" stroke="midnightblue" points="769.06,-305.46 777.83,-299.52 767.26,-298.69 769.06,-305.46"/>
</g>
<!-- Node4 -->
<g id="node4" class="node">
<title>Node4</title>
<g id="a_node4"><a xlink:title=" ">
<polygon fill="none" stroke="#bfbfbf" points="918,-56.5 918,-75.5 966,-75.5 966,-56.5 918,-56.5"/>
<text text-anchor="middle" x="942" y="-63.5" font-family="Helvetica,sans-Serif" font-size="10.00">iosfwd</text>
</a>
</g>
</g>
<!-- Node2&#45;&gt;Node4 -->
<g id="edge3" class="edge">
<title>Node2&#45;&gt;Node4</title>
<path fill="none" stroke="midnightblue" d="M650.63,-341.37C712.31,-335.59 819.58,-322.6 851,-300 922.68,-248.46 937.9,-131.83 941.13,-86"/>
<polygon fill="midnightblue" stroke="midnightblue" points="944.64,-85.92 941.73,-75.73 937.65,-85.51 944.64,-85.92"/>
</g>
<!-- Node5 -->
<g id="node5" class="node">
<title>Node5</title>
<g id="a_node5"><a xlink:title=" ">
<polygon fill="none" stroke="#bfbfbf" points="411,-0.5 411,-19.5 467,-19.5 467,-0.5 411,-0.5"/>
<text text-anchor="middle" x="439" y="-7.5" font-family="Helvetica,sans-Serif" font-size="10.00">sstream</text>
</a>
</g>
</g>
<!-- Node2&#45;&gt;Node5 -->
<g id="edge4" class="edge">
<title>Node2&#45;&gt;Node5</title>
<path fill="none" stroke="midnightblue" d="M561.22,-344.13C442.73,-340.61 130,-323 130,-235 130,-235 130,-235 130,-177 130,-55.38 318.05,-22.49 400.75,-13.91"/>
<polygon fill="midnightblue" stroke="midnightblue" points="401.14,-17.39 410.76,-12.94 400.47,-10.42 401.14,-17.39"/>
</g>
<!-- Node6 -->
<g id="node6" class="node">
<title>Node6</title>
<g id="a_node6"><a xlink:title=" ">
<polygon fill="none" stroke="#bfbfbf" points="184,-0.5 184,-19.5 228,-19.5 228,-0.5 184,-0.5"/>
<text text-anchor="middle" x="206" y="-7.5" font-family="Helvetica,sans-Serif" font-size="10.00">string</text>
</a>
</g>
</g>
<!-- Node2&#45;&gt;Node6 -->
<g id="edge5" class="edge">
<title>Node2&#45;&gt;Node6</title>
<path fill="none" stroke="midnightblue" d="M561.42,-344.14C452.59,-341.57 175.96,-331.99 90,-300 43.76,-282.79 0,-284.34 0,-235 0,-235 0,-235 0,-121 0,-43.14 115.93,-20.19 173.85,-13.59"/>
<polygon fill="midnightblue" stroke="midnightblue" points="174.37,-17.05 183.95,-12.53 173.65,-10.09 174.37,-17.05"/>
</g>
<!-- Node7 -->
<g id="node7" class="node">
<title>Node7</title>
<g id="a_node7"><a xlink:href="deprecate_8h.html" target="_top" xlink:title=" ">
<polygon fill="none" stroke="black" points="28,-224.5 28,-243.5 102,-243.5 102,-224.5 28,-224.5"/>
<text text-anchor="middle" x="65" y="-231.5" font-family="Helvetica,sans-Serif" font-size="10.00">deprecate.h</text>
</a>
</g>
</g>
<!-- Node2&#45;&gt;Node7 -->
<g id="edge6" class="edge">
<title>Node2&#45;&gt;Node7</title>
<path fill="none" stroke="midnightblue" d="M561.48,-345.34C455.64,-345.46 192.15,-341.46 116,-300 96.57,-289.42 82.04,-268 73.56,-252.64"/>
<polygon fill="midnightblue" stroke="midnightblue" points="76.58,-250.86 68.87,-243.59 70.37,-254.08 76.58,-250.86"/>
</g>
<!-- Node8 -->
<g id="node8" class="node">
<title>Node8</title>
<g id="a_node8"><a xlink:href="src_2util_2invariant_8h.html" target="_top" xlink:title=" ">
<polygon fill="none" stroke="black" points="710.5,-56.5 710.5,-75.5 779.5,-75.5 779.5,-56.5 710.5,-56.5"/>
<text text-anchor="middle" x="745" y="-63.5" font-family="Helvetica,sans-Serif" font-size="10.00">invariant.h</text>
</a>
</g>
</g>
<!-- Node2&#45;&gt;Node8 -->
<g id="edge7" class="edge">
<title>Node2&#45;&gt;Node8</title>
<path fill="none" stroke="midnightblue" d="M617.08,-336.2C643.54,-314.42 710.22,-254.9 737,-188 750.64,-153.92 749.41,-110.12 747.24,-85.66"/>
<polygon fill="midnightblue" stroke="midnightblue" points="750.71,-85.19 746.19,-75.61 743.75,-85.92 750.71,-85.19"/>
</g>
<!-- Node11 -->
<g id="node11" class="node">
<title>Node11</title>
<g id="a_node11"><a xlink:href="source__location_8h.html" target="_top" xlink:title=" ">
<polygon fill="none" stroke="black" points="406,-280.5 406,-299.5 508,-299.5 508,-280.5 406,-280.5"/>
<text text-anchor="middle" x="457" y="-287.5" font-family="Helvetica,sans-Serif" font-size="10.00">source_location.h</text>
</a>
</g>
</g>
<!-- Node2&#45;&gt;Node11 -->
<g id="edge12" class="edge">
<title>Node2&#45;&gt;Node11</title>
<path fill="none" stroke="midnightblue" d="M582.39,-336.44C557.54,-327.44 518.23,-313.19 490.25,-303.05"/>
<polygon fill="midnightblue" stroke="midnightblue" points="491.09,-299.63 480.5,-299.52 488.71,-306.21 491.09,-299.63"/>
</g>
<!-- Node8&#45;&gt;Node5 -->
<g id="edge9" class="edge">
<title>Node8&#45;&gt;Node5</title>
<path fill="none" stroke="midnightblue" d="M710.49,-58.91C652.84,-48.74 537.35,-28.36 477.28,-17.76"/>
<polygon fill="midnightblue" stroke="midnightblue" points="477.54,-14.25 467.08,-15.96 476.32,-21.14 477.54,-14.25"/>
</g>
<!-- Node8&#45;&gt;Node6 -->
<g id="edge10" class="edge">
<title>Node8&#45;&gt;Node6</title>
<path fill="none" stroke="midnightblue" d="M710.46,-61.54C612.47,-51.72 333.63,-23.79 238.37,-14.24"/>
<polygon fill="midnightblue" stroke="midnightblue" points="238.49,-10.74 228.19,-13.22 237.79,-17.7 238.49,-10.74"/>
</g>
<!-- Node9 -->
<g id="node9" class="node">
<title>Node9</title>
<g id="a_node9"><a xlink:title=" ">
<polygon fill="none" stroke="#bfbfbf" points="720.5,-0.5 720.5,-19.5 769.5,-19.5 769.5,-0.5 720.5,-0.5"/>
<text text-anchor="middle" x="745" y="-7.5" font-family="Helvetica,sans-Serif" font-size="10.00">cstdlib</text>
</a>
</g>
</g>
<!-- Node8&#45;&gt;Node9 -->
<g id="edge8" class="edge">
<title>Node8&#45;&gt;Node9</title>
<path fill="none" stroke="midnightblue" d="M745,-56.08C745,-49.01 745,-38.86 745,-29.99"/>
<polygon fill="midnightblue" stroke="midnightblue" points="748.5,-29.75 745,-19.75 741.5,-29.75 748.5,-29.75"/>
</g>
<!-- Node10 -->
<g id="node10" class="node">
<title>Node10</title>
<g id="a_node10"><a xlink:title=" ">
<polygon fill="none" stroke="#bfbfbf" points="821.5,-0.5 821.5,-19.5 890.5,-19.5 890.5,-0.5 821.5,-0.5"/>
<text text-anchor="middle" x="856" y="-7.5" font-family="Helvetica,sans-Serif" font-size="10.00">type_traits</text>
</a>
</g>
</g>
<!-- Node8&#45;&gt;Node10 -->
<g id="edge11" class="edge">
<title>Node8&#45;&gt;Node10</title>
<path fill="none" stroke="midnightblue" d="M762.83,-56.32C780.72,-47.62 808.48,-34.12 829.05,-24.11"/>
<polygon fill="midnightblue" stroke="midnightblue" points="830.75,-27.18 838.21,-19.65 827.69,-20.88 830.75,-27.18"/>
</g>
<!-- Node11&#45;&gt;Node6 -->
<g id="edge35" class="edge">
<title>Node11&#45;&gt;Node6</title>
<path fill="none" stroke="midnightblue" d="M430.2,-280.4C388.81,-266.16 308.35,-234.55 253,-188 211.14,-152.79 206.83,-130.48 202,-76 200.63,-60.5 201.89,-42.87 203.35,-29.89"/>
<polygon fill="midnightblue" stroke="midnightblue" points="206.83,-30.2 204.62,-19.84 199.89,-29.32 206.83,-30.2"/>
</g>
<!-- Node11&#45;&gt;Node7 -->
<g id="edge13" class="edge">
<title>Node11&#45;&gt;Node7</title>
<path fill="none" stroke="midnightblue" d="M405.75,-281.94C329.24,-271.4 186.25,-251.7 112.18,-241.5"/>
<polygon fill="midnightblue" stroke="midnightblue" points="112.58,-238.02 102.2,-240.12 111.63,-244.96 112.58,-238.02"/>
</g>
<!-- Node12 -->
<g id="node12" class="node">
<title>Node12</title>
<g id="a_node12"><a xlink:href="irep_8h.html" target="_top" xlink:title=" ">
<polygon fill="none" stroke="black" points="435,-224.5 435,-243.5 479,-243.5 479,-224.5 435,-224.5"/>
<text text-anchor="middle" x="457" y="-231.5" font-family="Helvetica,sans-Serif" font-size="10.00">irep.h</text>
</a>
</g>
</g>
<!-- Node11&#45;&gt;Node12 -->
<g id="edge14" class="edge">
<title>Node11&#45;&gt;Node12</title>
<path fill="none" stroke="midnightblue" d="M457,-280.08C457,-273.01 457,-262.86 457,-253.99"/>
<polygon fill="midnightblue" stroke="midnightblue" points="460.5,-253.75 457,-243.75 453.5,-253.75 460.5,-253.75"/>
</g>
<!-- Node29 -->
<g id="node24" class="node">
<title>Node29</title>
<g id="a_node24"><a xlink:href="optional_8h.html" target="_top" xlink:title=" ">
<polygon fill="none" stroke="black" points="568.5,-224.5 568.5,-243.5 633.5,-243.5 633.5,-224.5 568.5,-224.5"/>
<text text-anchor="middle" x="601" y="-231.5" font-family="Helvetica,sans-Serif" font-size="10.00">optional.h</text>
</a>
</g>
</g>
<!-- Node11&#45;&gt;Node29 -->
<g id="edge33" class="edge">
<title>Node11&#45;&gt;Node29</title>
<path fill="none" stroke="midnightblue" d="M479.82,-280.44C503.83,-271.44 541.83,-257.19 568.87,-247.05"/>
<polygon fill="midnightblue" stroke="midnightblue" points="570.16,-250.3 578.29,-243.52 567.7,-243.75 570.16,-250.3"/>
</g>
<!-- Node12&#45;&gt;Node6 -->
<g id="edge15" class="edge">
<title>Node12&#45;&gt;Node6</title>
<path fill="none" stroke="midnightblue" d="M434.77,-231.34C386.08,-226.34 270.72,-206.77 225,-132 205.47,-100.07 203.82,-54.83 204.69,-29.69"/>
<polygon fill="midnightblue" stroke="midnightblue" points="208.18,-29.85 205.21,-19.68 201.19,-29.48 208.18,-29.85"/>
</g>
<!-- Node12&#45;&gt;Node8 -->
<g id="edge17" class="edge">
<title>Node12&#45;&gt;Node8</title>
<path fill="none" stroke="midnightblue" d="M477.81,-224.41C499.25,-215.51 533.59,-201.08 563,-188 582.26,-179.44 586.79,-176.68 606,-168 642.27,-151.61 655.89,-155.52 688,-132 706.27,-118.61 722.81,-98.41 733.31,-84.09"/>
<polygon fill="midnightblue" stroke="midnightblue" points="736.36,-85.84 739.3,-75.66 730.66,-81.79 736.36,-85.84"/>
</g>
<!-- Node13 -->
<g id="node13" class="node">
<title>Node13</title>
<g id="a_node13"><a xlink:title=" ">
<polygon fill="none" stroke="#bfbfbf" points="650.5,-0.5 650.5,-19.5 697.5,-19.5 697.5,-0.5 650.5,-0.5"/>
<text text-anchor="middle" x="674" y="-7.5" font-family="Helvetica,sans-Serif" font-size="10.00">vector</text>
</a>
</g>
</g>
<!-- Node12&#45;&gt;Node13 -->
<g id="edge16" class="edge">
<title>Node12&#45;&gt;Node13</title>
<path fill="none" stroke="midnightblue" d="M470.58,-224.49C497.01,-207.95 553.58,-172.69 563,-168 602.31,-148.45 627.5,-166.23 655,-132 678.67,-102.54 678.63,-55.68 676.4,-29.77"/>
<polygon fill="midnightblue" stroke="midnightblue" points="679.87,-29.34 675.33,-19.76 672.91,-30.08 679.87,-29.34"/>
</g>
<!-- Node14 -->
<g id="node14" class="node">
<title>Node14</title>
<g id="a_node14"><a xlink:href="irep__ids_8h.html" target="_top" xlink:title="util">
<polygon fill="none" stroke="black" points="311,-168.5 311,-187.5 375,-187.5 375,-168.5 311,-168.5"/>
<text text-anchor="middle" x="343" y="-175.5" font-family="Helvetica,sans-Serif" font-size="10.00">irep_ids.h</text>
</a>
</g>
</g>
<!-- Node12&#45;&gt;Node14 -->
<g id="edge18" class="edge">
<title>Node12&#45;&gt;Node14</title>
<path fill="none" stroke="midnightblue" d="M438.94,-224.44C420.43,-215.68 391.42,-201.94 370.14,-191.86"/>
<polygon fill="midnightblue" stroke="midnightblue" points="371.51,-188.63 360.98,-187.52 368.52,-194.96 371.51,-188.63"/>
</g>
<!-- Node24 -->
<g id="node19" class="node">
<title>Node24</title>
<g id="a_node19"><a xlink:href="forward__list__as__map_8h.html" target="_top" xlink:title=" ">
<polygon fill="none" stroke="black" points="393.5,-168.5 393.5,-187.5 520.5,-187.5 520.5,-168.5 393.5,-168.5"/>
<text text-anchor="middle" x="457" y="-175.5" font-family="Helvetica,sans-Serif" font-size="10.00">forward_list_as_map.h</text>
</a>
</g>
</g>
<!-- Node12&#45;&gt;Node24 -->
<g id="edge26" class="edge">
<title>Node12&#45;&gt;Node24</title>
<path fill="none" stroke="midnightblue" d="M457,-224.08C457,-217.01 457,-206.86 457,-197.99"/>
<polygon fill="midnightblue" stroke="midnightblue" points="460.5,-197.75 457,-187.75 453.5,-197.75 460.5,-197.75"/>
</g>
<!-- Node15 -->
<g id="node15" class="node">
<title>Node15</title>
<g id="a_node15"><a xlink:href="dstring_8h.html" target="_top" xlink:title="Container for C&#45;Strings.">
<polygon fill="none" stroke="black" points="234.5,-112.5 234.5,-131.5 293.5,-131.5 293.5,-112.5 234.5,-112.5"/>
<text text-anchor="middle" x="264" y="-119.5" font-family="Helvetica,sans-Serif" font-size="10.00">dstring.h</text>
</a>
</g>
</g>
<!-- Node14&#45;&gt;Node15 -->
<g id="edge19" class="edge">
<title>Node14&#45;&gt;Node15</title>
<path fill="none" stroke="midnightblue" d="M330.31,-168.32C318.1,-159.98 299.42,-147.21 285,-137.35"/>
<polygon fill="midnightblue" stroke="midnightblue" points="286.89,-134.41 276.66,-131.65 282.94,-140.19 286.89,-134.41"/>
</g>
<!-- Node23 -->
<g id="node18" class="node">
<title>Node23</title>
<g id="a_node18"><a xlink:title=" ">
<polygon fill="none" stroke="#bfbfbf" points="312,-112.5 312,-131.5 386,-131.5 386,-112.5 312,-112.5"/>
<text text-anchor="middle" x="349" y="-119.5" font-family="Helvetica,sans-Serif" font-size="10.00">irep_ids.def</text>
</a>
</g>
</g>
<!-- Node14&#45;&gt;Node23 -->
<g id="edge25" class="edge">
<title>Node14&#45;&gt;Node23</title>
<path fill="none" stroke="midnightblue" d="M343.99,-168.08C344.79,-160.93 345.93,-150.64 346.92,-141.69"/>
<polygon fill="midnightblue" stroke="midnightblue" points="350.4,-142.08 348.03,-131.75 343.44,-141.3 350.4,-142.08"/>
</g>
<!-- Node15&#45;&gt;Node4 -->
<g id="edge20" class="edge">
<title>Node15&#45;&gt;Node4</title>
<path fill="none" stroke="midnightblue" d="M293.72,-113.64C296.84,-113.02 299.98,-112.45 303,-112 362.92,-103.03 783.78,-76.73 907.73,-69.1"/>
<polygon fill="midnightblue" stroke="midnightblue" points="908.03,-72.59 917.8,-68.48 907.6,-65.6 908.03,-72.59"/>
</g>
<!-- Node15&#45;&gt;Node6 -->
<g id="edge21" class="edge">
<title>Node15&#45;&gt;Node6</title>
<path fill="none" stroke="midnightblue" d="M259.45,-112.37C249.96,-94.38 227.91,-52.55 215.29,-28.63"/>
<polygon fill="midnightblue" stroke="midnightblue" points="218.29,-26.8 210.53,-19.59 212.1,-30.07 218.29,-26.8"/>
</g>
<!-- Node16 -->
<g id="node16" class="node">
<title>Node16</title>
<g id="a_node16"><a xlink:href="magic_8h.html" target="_top" xlink:title="Magic numbers used throughout the codebase.">
<polygon fill="none" stroke="red" points="272,-56.5 272,-75.5 328,-75.5 328,-56.5 272,-56.5"/>
<text text-anchor="middle" x="300" y="-63.5" font-family="Helvetica,sans-Serif" font-size="10.00">magic.h</text>
</a>
</g>
</g>
<!-- Node15&#45;&gt;Node16 -->
<g id="edge22" class="edge">
<title>Node15&#45;&gt;Node16</title>
<path fill="none" stroke="midnightblue" d="M269.94,-112.08C274.98,-104.53 282.34,-93.49 288.51,-84.23"/>
<polygon fill="midnightblue" stroke="midnightblue" points="291.53,-86.01 294.17,-75.75 285.71,-82.13 291.53,-86.01"/>
</g>
<!-- Node18 -->
<g id="node17" class="node">
<title>Node18</title>
<g id="a_node17"><a xlink:href="string__container_8h.html" target="_top" xlink:title="Container for C&#45;Strings.">
<polygon fill="none" stroke="red" points="444,-56.5 444,-75.5 548,-75.5 548,-56.5 444,-56.5"/>
<text text-anchor="middle" x="496" y="-63.5" font-family="Helvetica,sans-Serif" font-size="10.00">string_container.h</text>
</a>
</g>
</g>
<!-- Node15&#45;&gt;Node18 -->
<g id="edge23" class="edge">
<title>Node15&#45;&gt;Node18</title>
<path fill="none" stroke="midnightblue" d="M293.85,-114.05C333.3,-104.87 403.21,-88.6 449.58,-77.81"/>
<polygon fill="midnightblue" stroke="midnightblue" points="450.44,-81.2 459.38,-75.52 448.85,-74.38 450.44,-81.2"/>
</g>
<!-- Node18&#45;&gt;Node13 -->
<g id="edge24" class="edge">
<title>Node18&#45;&gt;Node13</title>
<path fill="none" stroke="midnightblue" d="M524.2,-56.44C555.83,-46.85 607.08,-31.3 640.66,-21.11"/>
<polygon fill="midnightblue" stroke="midnightblue" points="641.92,-24.39 650.47,-18.14 639.89,-17.69 641.92,-24.39"/>
</g>
<!-- Node25 -->
<g id="node20" class="node">
<title>Node25</title>
<g id="a_node20"><a xlink:title=" ">
<polygon fill="none" stroke="#bfbfbf" points="490,-112.5 490,-131.5 554,-131.5 554,-112.5 490,-112.5"/>
<text text-anchor="middle" x="522" y="-119.5" font-family="Helvetica,sans-Serif" font-size="10.00">algorithm</text>
</a>
</g>
</g>
<!-- Node24&#45;&gt;Node25 -->
<g id="edge27" class="edge">
<title>Node24&#45;&gt;Node25</title>
<path fill="none" stroke="midnightblue" d="M467.44,-168.32C477.15,-160.26 491.82,-148.08 503.5,-138.37"/>
<polygon fill="midnightblue" stroke="midnightblue" points="505.91,-140.92 511.37,-131.83 501.44,-135.53 505.91,-140.92"/>
</g>
<!-- Node26 -->
<g id="node21" class="node">
<title>Node26</title>
<g id="a_node21"><a xlink:title=" ">
<polygon fill="none" stroke="#bfbfbf" points="572,-112.5 572,-131.5 646,-131.5 646,-112.5 572,-112.5"/>
<text text-anchor="middle" x="609" y="-119.5" font-family="Helvetica,sans-Serif" font-size="10.00">forward_list</text>
</a>
</g>
</g>
<!-- Node24&#45;&gt;Node26 -->
<g id="edge28" class="edge">
<title>Node24&#45;&gt;Node26</title>
<path fill="none" stroke="midnightblue" d="M481.08,-168.44C506.54,-159.4 546.89,-145.06 575.46,-134.92"/>
<polygon fill="midnightblue" stroke="midnightblue" points="576.78,-138.16 585.03,-131.52 574.43,-131.57 576.78,-138.16"/>
</g>
<!-- Node27 -->
<g id="node22" class="node">
<title>Node27</title>
<g id="a_node22"><a xlink:href="as__const_8h.html" target="_top" xlink:title=" ">
<polygon fill="none" stroke="black" points="404,-112.5 404,-131.5 472,-131.5 472,-112.5 404,-112.5"/>
<text text-anchor="middle" x="438" y="-119.5" font-family="Helvetica,sans-Serif" font-size="10.00">as_const.h</text>
</a>
</g>
</g>
<!-- Node24&#45;&gt;Node27 -->
<g id="edge29" class="edge">
<title>Node24&#45;&gt;Node27</title>
<path fill="none" stroke="midnightblue" d="M453.86,-168.08C451.32,-160.85 447.64,-150.41 444.47,-141.4"/>
<polygon fill="midnightblue" stroke="midnightblue" points="447.7,-140.02 441.08,-131.75 441.1,-142.35 447.7,-140.02"/>
</g>
<!-- Node28 -->
<g id="node23" class="node">
<title>Node28</title>
<g id="a_node23"><a xlink:href="narrow_8h.html" target="_top" xlink:title=" ">
<polygon fill="none" stroke="black" points="778.5,-112.5 778.5,-131.5 837.5,-131.5 837.5,-112.5 778.5,-112.5"/>
<text text-anchor="middle" x="808" y="-119.5" font-family="Helvetica,sans-Serif" font-size="10.00">narrow.h</text>
</a>
</g>
</g>
<!-- Node24&#45;&gt;Node28 -->
<g id="edge30" class="edge">
<title>Node24&#45;&gt;Node28</title>
<path fill="none" stroke="midnightblue" d="M512.62,-168.44C583.85,-157.49 705.55,-138.76 768.18,-129.13"/>
<polygon fill="midnightblue" stroke="midnightblue" points="768.72,-132.58 778.07,-127.6 767.65,-125.67 768.72,-132.58"/>
</g>
<!-- Node28&#45;&gt;Node8 -->
<g id="edge32" class="edge">
<title>Node28&#45;&gt;Node8</title>
<path fill="none" stroke="midnightblue" d="M797.88,-112.32C788.47,-104.26 774.26,-92.08 762.93,-82.37"/>
<polygon fill="midnightblue" stroke="midnightblue" points="765.18,-79.68 755.31,-75.83 760.62,-85 765.18,-79.68"/>
</g>
<!-- Node28&#45;&gt;Node10 -->
<g id="edge31" class="edge">
<title>Node28&#45;&gt;Node10</title>
<path fill="none" stroke="midnightblue" d="M811.77,-112.37C819.58,-94.46 837.71,-52.92 848.17,-28.95"/>
<polygon fill="midnightblue" stroke="midnightblue" points="851.46,-30.16 852.25,-19.59 845.04,-27.36 851.46,-30.16"/>
</g>
<!-- Node30 -->
<g id="node25" class="node">
<title>Node30</title>
<g id="a_node25"><a xlink:title=" ">
<polygon fill="none" stroke="#bfbfbf" points="615.5,-168.5 615.5,-187.5 728.5,-187.5 728.5,-168.5 615.5,-168.5"/>
<text text-anchor="middle" x="672" y="-175.5" font-family="Helvetica,sans-Serif" font-size="10.00">nonstd/optional.hpp</text>
</a>
</g>
</g>
<!-- Node29&#45;&gt;Node30 -->
<g id="edge34" class="edge">
<title>Node29&#45;&gt;Node30</title>
<path fill="none" stroke="midnightblue" d="M612.41,-224.32C623.11,-216.18 639.34,-203.84 652.16,-194.09"/>
<polygon fill="midnightblue" stroke="midnightblue" points="654.54,-196.67 660.39,-187.83 650.31,-191.1 654.54,-196.67"/>
</g>
<!-- Node31&#45;&gt;Node4 -->
<g id="edge37" class="edge">
<title>Node31&#45;&gt;Node4</title>
<path fill="none" stroke="midnightblue" d="M979.35,-280.44C977.28,-254.7 970.16,-175.88 956,-112 954.01,-103 951.06,-93.21 948.38,-85.07"/>
<polygon fill="midnightblue" stroke="midnightblue" points="951.66,-83.85 945.12,-75.51 945.03,-86.11 951.66,-83.85"/>
</g>
<!-- Node32&#45;&gt;Node4 -->
<g id="edge39" class="edge">
<title>Node32&#45;&gt;Node4</title>
<path fill="none" stroke="midnightblue" d="M882.1,-168.37C892.78,-150.3 917.67,-108.18 931.77,-84.31"/>
<polygon fill="midnightblue" stroke="midnightblue" points="934.85,-85.98 936.92,-75.59 928.82,-82.42 934.85,-85.98"/>
</g>
<!-- Node32&#45;&gt;Node13 -->
<g id="edge41" class="edge">
<title>Node32&#45;&gt;Node13</title>
<path fill="none" stroke="midnightblue" d="M874.06,-168.48C869.35,-155.53 859.29,-130.47 846,-112 825.06,-82.92 818.13,-75.39 788,-56 762.79,-39.78 730.81,-27.78 707.14,-20.27"/>
<polygon fill="midnightblue" stroke="midnightblue" points="708.13,-16.92 697.54,-17.33 706.08,-23.61 708.13,-16.92"/>
</g>
<!-- Node32&#45;&gt;Node28 -->
<g id="edge40" class="edge">
<title>Node32&#45;&gt;Node28</title>
<path fill="none" stroke="midnightblue" d="M865.91,-168.32C855.51,-160.18 839.74,-147.84 827.28,-138.09"/>
<polygon fill="midnightblue" stroke="midnightblue" points="829.32,-135.24 819.29,-131.83 825.01,-140.75 829.32,-135.24"/>
</g>
</g>
</svg>
