<?xml version="1.0" encoding="UTF-8" standalone="no"?>
<!DOCTYPE svg PUBLIC "-//W3C//DTD SVG 1.1//EN"
 "http://www.w3.org/Graphics/SVG/1.1/DTD/svg11.dtd">
<!-- Generated by graphviz version 2.43.0 (0)
 -->
<!-- Title: /home/runner/work/cbmc/cbmc/src/solvers/qbf/qbf_squolem_core.cpp Pages: 1 -->
<svg width="1172pt" height="789pt"
 viewBox="0.00 0.00 1171.50 789.00" xmlns="http://www.w3.org/2000/svg" xmlns:xlink="http://www.w3.org/1999/xlink">
<g id="graph0" class="graph" transform="scale(1 1) rotate(0) translate(4 785)">
<title>/home/runner/work/cbmc/cbmc/src/solvers/qbf/qbf_squolem_core.cpp</title>
<!-- Node1 -->
<g id="node1" class="node">
<title>Node1</title>
<g id="a_node1"><a xlink:title="Squolem Backend (with proofs)">
<polygon fill="#bfbfbf" stroke="black" points="677.5,-739.5 677.5,-780.5 815.5,-780.5 815.5,-739.5 677.5,-739.5"/>
<text text-anchor="start" x="685.5" y="-768.5" font-family="Helvetica,sans-Serif" font-size="10.00">/home/runner/work/cbmc</text>
<text text-anchor="start" x="685.5" y="-757.5" font-family="Helvetica,sans-Serif" font-size="10.00">/cbmc/src/solvers/qbf</text>
<text text-anchor="middle" x="746.5" y="-746.5" font-family="Helvetica,sans-Serif" font-size="10.00">/qbf_squolem_core.cpp</text>
</a>
</g>
</g>
<!-- Node2 -->
<g id="node2" class="node">
<title>Node2</title>
<g id="a_node2"><a xlink:href="qbf__squolem__core_8h.html" target="_top" xlink:title="Squolem Backend (with Proofs)">
<polygon fill="none" stroke="black" points="203,-683.5 203,-702.5 318,-702.5 318,-683.5 203,-683.5"/>
<text text-anchor="middle" x="260.5" y="-690.5" font-family="Helvetica,sans-Serif" font-size="10.00">qbf_squolem_core.h</text>
</a>
</g>
</g>
<!-- Node1&#45;&gt;Node2 -->
<g id="edge1" class="edge">
<title>Node1&#45;&gt;Node2</title>
<path fill="none" stroke="midnightblue" d="M677.38,-749.76C584.56,-737.34 420.63,-715.42 328.42,-703.08"/>
<polygon fill="midnightblue" stroke="midnightblue" points="328.74,-699.6 318.36,-701.74 327.81,-706.53 328.74,-699.6"/>
</g>
<!-- Node30 -->
<g id="node29" class="node">
<title>Node30</title>
<g id="a_node29"><a xlink:title=" ">
<polygon fill="none" stroke="#bfbfbf" points="922.5,-683.5 922.5,-702.5 986.5,-702.5 986.5,-683.5 922.5,-683.5"/>
<text text-anchor="middle" x="954.5" y="-690.5" font-family="Helvetica,sans-Serif" font-size="10.00">algorithm</text>
</a>
</g>
</g>
<!-- Node1&#45;&gt;Node30 -->
<g id="edge40" class="edge">
<title>Node1&#45;&gt;Node30</title>
<path fill="none" stroke="midnightblue" d="M808.91,-739.5C844.28,-728.44 887.33,-714.99 917.41,-705.59"/>
<polygon fill="midnightblue" stroke="midnightblue" points="918.58,-708.89 927.09,-702.57 916.5,-702.21 918.58,-708.89"/>
</g>
<!-- Node50 -->
<g id="node30" class="node">
<title>Node50</title>
<g id="a_node30"><a xlink:href="std__expr_8h.html" target="_top" xlink:title="API to expression classes.">
<polygon fill="none" stroke="black" points="933.5,-571.5 933.5,-590.5 1019.5,-590.5 1019.5,-571.5 933.5,-571.5"/>
<text text-anchor="middle" x="976.5" y="-578.5" font-family="Helvetica,sans-Serif" font-size="10.00">util/std_expr.h</text>
</a>
</g>
</g>
<!-- Node1&#45;&gt;Node50 -->
<g id="edge41" class="edge">
<title>Node1&#45;&gt;Node50</title>
<path fill="none" stroke="midnightblue" d="M771.99,-739.38C818.41,-703.66 915.75,-628.75 957.17,-596.87"/>
<polygon fill="midnightblue" stroke="midnightblue" points="959.56,-599.46 965.35,-590.58 955.29,-593.91 959.56,-599.46"/>
</g>
<!-- Node56 -->
<g id="node37" class="node">
<title>Node56</title>
<g id="a_node37"><a xlink:href="arith__tools_8h.html" target="_top" xlink:title=" ">
<polygon fill="none" stroke="black" points="589.5,-627.5 589.5,-646.5 685.5,-646.5 685.5,-627.5 589.5,-627.5"/>
<text text-anchor="middle" x="637.5" y="-634.5" font-family="Helvetica,sans-Serif" font-size="10.00">util/arith_tools.h</text>
</a>
</g>
</g>
<!-- Node1&#45;&gt;Node56 -->
<g id="edge59" class="edge">
<title>Node1&#45;&gt;Node56</title>
<path fill="none" stroke="midnightblue" d="M746.02,-739.22C744.65,-722.58 740.35,-699.02 727.5,-683 715.23,-667.71 696.43,-657.18 679.17,-650.17"/>
<polygon fill="midnightblue" stroke="midnightblue" points="680.39,-646.89 669.8,-646.63 677.92,-653.44 680.39,-646.89"/>
</g>
<!-- Node58 -->
<g id="node39" class="node">
<title>Node58</title>
<g id="a_node39"><a xlink:href="c__types_8h.html" target="_top" xlink:title=" ">
<polygon fill="none" stroke="black" points="636.5,-683.5 636.5,-702.5 718.5,-702.5 718.5,-683.5 636.5,-683.5"/>
<text text-anchor="middle" x="677.5" y="-690.5" font-family="Helvetica,sans-Serif" font-size="10.00">util/c_types.h</text>
</a>
</g>
</g>
<!-- Node1&#45;&gt;Node58 -->
<g id="edge65" class="edge">
<title>Node1&#45;&gt;Node58</title>
<path fill="none" stroke="midnightblue" d="M725.8,-739.5C715.63,-729.92 703.54,-718.53 694,-709.54"/>
<polygon fill="midnightblue" stroke="midnightblue" points="696.36,-706.96 686.68,-702.65 691.56,-712.06 696.36,-706.96"/>
</g>
<!-- Node3 -->
<g id="node3" class="node">
<title>Node3</title>
<g id="a_node3"><a xlink:title=" ">
<polygon fill="none" stroke="#bfbfbf" points="25.5,-627.5 25.5,-646.5 195.5,-646.5 195.5,-627.5 25.5,-627.5"/>
<text text-anchor="middle" x="110.5" y="-634.5" font-family="Helvetica,sans-Serif" font-size="10.00">quannon/squolem2/squolem2.h</text>
</a>
</g>
</g>
<!-- Node2&#45;&gt;Node3 -->
<g id="edge2" class="edge">
<title>Node2&#45;&gt;Node3</title>
<path fill="none" stroke="midnightblue" d="M236.73,-683.44C211.61,-674.4 171.79,-660.06 143.6,-649.92"/>
<polygon fill="midnightblue" stroke="midnightblue" points="144.75,-646.61 134.16,-646.52 142.38,-653.2 144.75,-646.61"/>
</g>
<!-- Node4 -->
<g id="node4" class="node">
<title>Node4</title>
<g id="a_node4"><a xlink:href="qdimacs__core_8h.html" target="_top" xlink:title=" ">
<polygon fill="none" stroke="black" points="214,-627.5 214,-646.5 307,-646.5 307,-627.5 214,-627.5"/>
<text text-anchor="middle" x="260.5" y="-634.5" font-family="Helvetica,sans-Serif" font-size="10.00">qdimacs_core.h</text>
</a>
</g>
</g>
<!-- Node2&#45;&gt;Node4 -->
<g id="edge3" class="edge">
<title>Node2&#45;&gt;Node4</title>
<path fill="none" stroke="midnightblue" d="M260.5,-683.08C260.5,-676.01 260.5,-665.86 260.5,-656.99"/>
<polygon fill="midnightblue" stroke="midnightblue" points="264,-656.75 260.5,-646.75 257,-656.75 264,-656.75"/>
</g>
<!-- Node5 -->
<g id="node5" class="node">
<title>Node5</title>
<g id="a_node5"><a xlink:title=" ">
<polygon fill="none" stroke="#bfbfbf" points="255.5,-571.5 255.5,-590.5 293.5,-590.5 293.5,-571.5 255.5,-571.5"/>
<text text-anchor="middle" x="274.5" y="-578.5" font-family="Helvetica,sans-Serif" font-size="10.00">map</text>
</a>
</g>
</g>
<!-- Node4&#45;&gt;Node5 -->
<g id="edge4" class="edge">
<title>Node4&#45;&gt;Node5</title>
<path fill="none" stroke="midnightblue" d="M262.81,-627.08C264.67,-619.93 267.34,-609.64 269.65,-600.69"/>
<polygon fill="midnightblue" stroke="midnightblue" points="273.11,-601.31 272.23,-590.75 266.33,-599.55 273.11,-601.31"/>
</g>
<!-- Node6 -->
<g id="node6" class="node">
<title>Node6</title>
<g id="a_node6"><a xlink:href="expr_8h.html" target="_top" xlink:title=" ">
<polygon fill="none" stroke="black" points="607,-392.5 607,-411.5 672,-411.5 672,-392.5 607,-392.5"/>
<text text-anchor="middle" x="639.5" y="-399.5" font-family="Helvetica,sans-Serif" font-size="10.00">util/expr.h</text>
</a>
</g>
</g>
<!-- Node4&#45;&gt;Node6 -->
<g id="edge5" class="edge">
<title>Node4&#45;&gt;Node6</title>
<path fill="none" stroke="midnightblue" d="M274.44,-627.43C331.31,-592.47 546.15,-460.39 616.82,-416.95"/>
<polygon fill="midnightblue" stroke="midnightblue" points="618.75,-419.87 625.43,-411.65 615.08,-413.9 618.75,-419.87"/>
</g>
<!-- Node41 -->
<g id="node22" class="node">
<title>Node41</title>
<g id="a_node22"><a xlink:href="qdimacs__cnf_8h.html" target="_top" xlink:title=" ">
<polygon fill="none" stroke="black" points="151.5,-571.5 151.5,-590.5 237.5,-590.5 237.5,-571.5 151.5,-571.5"/>
<text text-anchor="middle" x="194.5" y="-578.5" font-family="Helvetica,sans-Serif" font-size="10.00">qdimacs_cnf.h</text>
</a>
</g>
</g>
<!-- Node4&#45;&gt;Node41 -->
<g id="edge31" class="edge">
<title>Node4&#45;&gt;Node41</title>
<path fill="none" stroke="midnightblue" d="M249.9,-627.32C240.04,-619.26 225.15,-607.08 213.28,-597.37"/>
<polygon fill="midnightblue" stroke="midnightblue" points="215.25,-594.46 205.3,-590.83 210.82,-599.88 215.25,-594.46"/>
</g>
<!-- Node7 -->
<g id="node7" class="node">
<title>Node7</title>
<g id="a_node7"><a xlink:href="as__const_8h.html" target="_top" xlink:title=" ">
<polygon fill="none" stroke="black" points="505.5,-336.5 505.5,-355.5 573.5,-355.5 573.5,-336.5 505.5,-336.5"/>
<text text-anchor="middle" x="539.5" y="-343.5" font-family="Helvetica,sans-Serif" font-size="10.00">as_const.h</text>
</a>
</g>
</g>
<!-- Node6&#45;&gt;Node7 -->
<g id="edge6" class="edge">
<title>Node6&#45;&gt;Node7</title>
<path fill="none" stroke="midnightblue" d="M623.43,-392.32C607.54,-383.74 582.99,-370.49 564.54,-360.52"/>
<polygon fill="midnightblue" stroke="midnightblue" points="565.99,-357.33 555.53,-355.65 562.66,-363.49 565.99,-357.33"/>
</g>
<!-- Node8 -->
<g id="node8" class="node">
<title>Node8</title>
<g id="a_node8"><a xlink:href="type_8h.html" target="_top" xlink:title="Defines typet, type_with_subtypet and type_with_subtypest.">
<polygon fill="none" stroke="black" points="440,-336.5 440,-355.5 487,-355.5 487,-336.5 440,-336.5"/>
<text text-anchor="middle" x="463.5" y="-343.5" font-family="Helvetica,sans-Serif" font-size="10.00">type.h</text>
</a>
</g>
</g>
<!-- Node6&#45;&gt;Node8 -->
<g id="edge7" class="edge">
<title>Node6&#45;&gt;Node8</title>
<path fill="none" stroke="midnightblue" d="M611.61,-392.44C580.43,-382.88 529.95,-367.39 496.74,-357.2"/>
<polygon fill="midnightblue" stroke="midnightblue" points="497.62,-353.81 487.03,-354.22 495.57,-360.5 497.62,-353.81"/>
</g>
<!-- Node37 -->
<g id="node18" class="node">
<title>Node37</title>
<g id="a_node18"><a xlink:href="validation__mode_8h.html" target="_top" xlink:title=" ">
<polygon fill="none" stroke="black" points="558,-224.5 558,-243.5 665,-243.5 665,-224.5 558,-224.5"/>
<text text-anchor="middle" x="611.5" y="-231.5" font-family="Helvetica,sans-Serif" font-size="10.00">validation_mode.h</text>
</a>
</g>
</g>
<!-- Node6&#45;&gt;Node37 -->
<g id="edge29" class="edge">
<title>Node6&#45;&gt;Node37</title>
<path fill="none" stroke="midnightblue" d="M638.6,-392.44C636.43,-372.59 630.54,-321.87 622.5,-280 620.81,-271.2 618.51,-261.54 616.45,-253.44"/>
<polygon fill="midnightblue" stroke="midnightblue" points="619.78,-252.36 613.87,-243.57 613.01,-254.13 619.78,-252.36"/>
</g>
<!-- Node38 -->
<g id="node19" class="node">
<title>Node38</title>
<g id="a_node19"><a xlink:href="validate__types_8h.html" target="_top" xlink:title=" ">
<polygon fill="none" stroke="black" points="515.5,-280.5 515.5,-299.5 613.5,-299.5 613.5,-280.5 515.5,-280.5"/>
<text text-anchor="middle" x="564.5" y="-287.5" font-family="Helvetica,sans-Serif" font-size="10.00">validate_types.h</text>
</a>
</g>
</g>
<!-- Node6&#45;&gt;Node38 -->
<g id="edge28" class="edge">
<title>Node6&#45;&gt;Node38</title>
<path fill="none" stroke="midnightblue" d="M633.61,-392.37C621.24,-374.22 592.32,-331.8 576.08,-307.99"/>
<polygon fill="midnightblue" stroke="midnightblue" points="578.88,-305.88 570.36,-299.59 573.1,-309.83 578.88,-305.88"/>
</g>
<!-- Node39 -->
<g id="node20" class="node">
<title>Node39</title>
<g id="a_node20"><a xlink:href="validate__expressions_8h.html" target="_top" xlink:title=" ">
<polygon fill="none" stroke="black" points="668,-336.5 668,-355.5 797,-355.5 797,-336.5 668,-336.5"/>
<text text-anchor="middle" x="732.5" y="-343.5" font-family="Helvetica,sans-Serif" font-size="10.00">validate_expressions.h</text>
</a>
</g>
</g>
<!-- Node6&#45;&gt;Node39 -->
<g id="edge27" class="edge">
<title>Node6&#45;&gt;Node39</title>
<path fill="none" stroke="midnightblue" d="M654.44,-392.32C669.09,-383.82 691.63,-370.73 708.74,-360.8"/>
<polygon fill="midnightblue" stroke="midnightblue" points="710.7,-363.7 717.6,-355.65 707.19,-357.65 710.7,-363.7"/>
</g>
<!-- Node40 -->
<g id="node21" class="node">
<title>Node40</title>
<g id="a_node21"><a xlink:title=" ">
<polygon fill="none" stroke="#bfbfbf" points="854,-336.5 854,-355.5 919,-355.5 919,-336.5 854,-336.5"/>
<text text-anchor="middle" x="886.5" y="-343.5" font-family="Helvetica,sans-Serif" font-size="10.00">functional</text>
</a>
</g>
</g>
<!-- Node6&#45;&gt;Node40 -->
<g id="edge30" class="edge">
<title>Node6&#45;&gt;Node40</title>
<path fill="none" stroke="midnightblue" d="M672.04,-393.88C716.19,-384.23 795.14,-366.97 843.95,-356.3"/>
<polygon fill="midnightblue" stroke="midnightblue" points="844.86,-359.69 853.88,-354.13 843.37,-352.85 844.86,-359.69"/>
</g>
<!-- Node9 -->
<g id="node9" class="node">
<title>Node9</title>
<g id="a_node9"><a xlink:href="source__location_8h.html" target="_top" xlink:title=" ">
<polygon fill="none" stroke="black" points="530.5,-168.5 530.5,-187.5 632.5,-187.5 632.5,-168.5 530.5,-168.5"/>
<text text-anchor="middle" x="581.5" y="-175.5" font-family="Helvetica,sans-Serif" font-size="10.00">source_location.h</text>
</a>
</g>
</g>
<!-- Node8&#45;&gt;Node9 -->
<g id="edge8" class="edge">
<title>Node8&#45;&gt;Node9</title>
<path fill="none" stroke="midnightblue" d="M464.97,-336.49C467.48,-323.56 473.42,-298.53 484.5,-280 505.54,-244.81 540.94,-212.16 562.66,-193.97"/>
<polygon fill="midnightblue" stroke="midnightblue" points="565.01,-196.57 570.52,-187.52 560.57,-191.16 565.01,-196.57"/>
</g>
<!-- Node35 -->
<g id="node16" class="node">
<title>Node35</title>
<g id="a_node16"><a xlink:href="validate_8h.html" target="_top" xlink:title=" ">
<polygon fill="none" stroke="black" points="701,-280.5 701,-299.5 766,-299.5 766,-280.5 701,-280.5"/>
<text text-anchor="middle" x="733.5" y="-287.5" font-family="Helvetica,sans-Serif" font-size="10.00">validate.h</text>
</a>
</g>
</g>
<!-- Node8&#45;&gt;Node35 -->
<g id="edge18" class="edge">
<title>Node8&#45;&gt;Node35</title>
<path fill="none" stroke="midnightblue" d="M487.24,-338.29C490.34,-337.48 493.49,-336.69 496.5,-336 563.98,-320.42 643.17,-306.19 690.79,-298.07"/>
<polygon fill="midnightblue" stroke="midnightblue" points="691.47,-301.5 700.74,-296.38 690.3,-294.6 691.47,-301.5"/>
</g>
<!-- Node8&#45;&gt;Node37 -->
<g id="edge26" class="edge">
<title>Node8&#45;&gt;Node37</title>
<path fill="none" stroke="midnightblue" d="M467.26,-336.25C473.54,-322.55 487.39,-295.96 506.5,-280 524.69,-264.82 548.76,-254.01 569.27,-246.79"/>
<polygon fill="midnightblue" stroke="midnightblue" points="570.64,-250.03 579.01,-243.54 568.42,-243.39 570.64,-250.03"/>
</g>
<!-- Node8&#45;&gt;Node38 -->
<g id="edge25" class="edge">
<title>Node8&#45;&gt;Node38</title>
<path fill="none" stroke="midnightblue" d="M479.73,-336.32C495.85,-327.7 520.8,-314.36 539.46,-304.39"/>
<polygon fill="midnightblue" stroke="midnightblue" points="541.14,-307.46 548.31,-299.65 537.84,-301.28 541.14,-307.46"/>
</g>
<!-- Node10 -->
<g id="node10" class="node">
<title>Node10</title>
<g id="a_node10"><a xlink:href="deprecate_8h.html" target="_top" xlink:title=" ">
<polygon fill="none" stroke="black" points="447.5,-56.5 447.5,-75.5 521.5,-75.5 521.5,-56.5 447.5,-56.5"/>
<text text-anchor="middle" x="484.5" y="-63.5" font-family="Helvetica,sans-Serif" font-size="10.00">deprecate.h</text>
</a>
</g>
</g>
<!-- Node9&#45;&gt;Node10 -->
<g id="edge9" class="edge">
<title>Node9&#45;&gt;Node10</title>
<path fill="none" stroke="midnightblue" d="M574.51,-168.47C564.19,-155.94 544.18,-131.89 526.5,-112 517.78,-102.19 507.77,-91.44 499.71,-82.91"/>
<polygon fill="midnightblue" stroke="midnightblue" points="502.1,-80.35 492.68,-75.51 497.03,-85.17 502.1,-80.35"/>
</g>
<!-- Node11 -->
<g id="node11" class="node">
<title>Node11</title>
<g id="a_node11"><a xlink:href="irep_8h.html" target="_top" xlink:title=" ">
<polygon fill="none" stroke="red" points="652.5,-112.5 652.5,-131.5 696.5,-131.5 696.5,-112.5 652.5,-112.5"/>
<text text-anchor="middle" x="674.5" y="-119.5" font-family="Helvetica,sans-Serif" font-size="10.00">irep.h</text>
</a>
</g>
</g>
<!-- Node9&#45;&gt;Node11 -->
<g id="edge10" class="edge">
<title>Node9&#45;&gt;Node11</title>
<path fill="none" stroke="midnightblue" d="M596.44,-168.32C611.09,-159.82 633.63,-146.73 650.74,-136.8"/>
<polygon fill="midnightblue" stroke="midnightblue" points="652.7,-139.7 659.6,-131.65 649.19,-133.65 652.7,-139.7"/>
</g>
<!-- Node12 -->
<g id="node12" class="node">
<title>Node12</title>
<g id="a_node12"><a xlink:title=" ">
<polygon fill="none" stroke="#bfbfbf" points="652.5,-0.5 652.5,-19.5 696.5,-19.5 696.5,-0.5 652.5,-0.5"/>
<text text-anchor="middle" x="674.5" y="-7.5" font-family="Helvetica,sans-Serif" font-size="10.00">string</text>
</a>
</g>
</g>
<!-- Node9&#45;&gt;Node12 -->
<g id="edge17" class="edge">
<title>Node9&#45;&gt;Node12</title>
<path fill="none" stroke="midnightblue" d="M586.5,-168.08C601.27,-141.72 644.88,-63.88 664.61,-28.66"/>
<polygon fill="midnightblue" stroke="midnightblue" points="667.87,-30 669.7,-19.57 661.76,-26.58 667.87,-30"/>
</g>
<!-- Node33 -->
<g id="node15" class="node">
<title>Node33</title>
<g id="a_node15"><a xlink:href="optional_8h.html" target="_top" xlink:title=" ">
<polygon fill="none" stroke="red" points="452,-112.5 452,-131.5 517,-131.5 517,-112.5 452,-112.5"/>
<text text-anchor="middle" x="484.5" y="-119.5" font-family="Helvetica,sans-Serif" font-size="10.00">optional.h</text>
</a>
</g>
</g>
<!-- Node9&#45;&gt;Node33 -->
<g id="edge15" class="edge">
<title>Node9&#45;&gt;Node33</title>
<path fill="none" stroke="midnightblue" d="M565.92,-168.32C550.5,-159.74 526.69,-146.49 508.79,-136.52"/>
<polygon fill="midnightblue" stroke="midnightblue" points="510.49,-133.46 500.05,-131.65 507.08,-139.58 510.49,-133.46"/>
</g>
<!-- Node11&#45;&gt;Node12 -->
<g id="edge11" class="edge">
<title>Node11&#45;&gt;Node12</title>
<path fill="none" stroke="midnightblue" d="M674.5,-112.37C674.5,-94.62 674.5,-53.67 674.5,-29.6"/>
<polygon fill="midnightblue" stroke="midnightblue" points="678,-29.59 674.5,-19.59 671,-29.59 678,-29.59"/>
</g>
<!-- Node14 -->
<g id="node13" class="node">
<title>Node14</title>
<g id="a_node13"><a xlink:href="src_2util_2invariant_8h.html" target="_top" xlink:title=" ">
<polygon fill="none" stroke="red" points="850,-56.5 850,-75.5 919,-75.5 919,-56.5 850,-56.5"/>
<text text-anchor="middle" x="884.5" y="-63.5" font-family="Helvetica,sans-Serif" font-size="10.00">invariant.h</text>
</a>
</g>
</g>
<!-- Node11&#45;&gt;Node14 -->
<g id="edge12" class="edge">
<title>Node11&#45;&gt;Node14</title>
<path fill="none" stroke="midnightblue" d="M696.58,-115.32C730.87,-106.51 797.56,-89.36 841.56,-78.04"/>
<polygon fill="midnightblue" stroke="midnightblue" points="842.59,-81.39 851.4,-75.51 840.85,-74.61 842.59,-81.39"/>
</g>
<!-- Node14&#45;&gt;Node12 -->
<g id="edge13" class="edge">
<title>Node14&#45;&gt;Node12</title>
<path fill="none" stroke="midnightblue" d="M851.22,-56.44C811.52,-46.23 745.6,-29.28 706.48,-19.22"/>
<polygon fill="midnightblue" stroke="midnightblue" points="707.22,-15.8 696.67,-16.7 705.48,-22.58 707.22,-15.8"/>
</g>
<!-- Node17 -->
<g id="node14" class="node">
<title>Node17</title>
<g id="a_node14"><a xlink:title=" ">
<polygon fill="none" stroke="#bfbfbf" points="913,-0.5 913,-19.5 982,-19.5 982,-0.5 913,-0.5"/>
<text text-anchor="middle" x="947.5" y="-7.5" font-family="Helvetica,sans-Serif" font-size="10.00">type_traits</text>
</a>
</g>
</g>
<!-- Node14&#45;&gt;Node17 -->
<g id="edge14" class="edge">
<title>Node14&#45;&gt;Node17</title>
<path fill="none" stroke="midnightblue" d="M894.62,-56.32C904.03,-48.26 918.24,-36.08 929.57,-26.37"/>
<polygon fill="midnightblue" stroke="midnightblue" points="931.88,-29 937.19,-19.83 927.32,-23.68 931.88,-29"/>
</g>
<!-- Node33&#45;&gt;Node10 -->
<g id="edge16" class="edge">
<title>Node33&#45;&gt;Node10</title>
<path fill="none" stroke="midnightblue" d="M484.5,-112.08C484.5,-105.01 484.5,-94.86 484.5,-85.99"/>
<polygon fill="midnightblue" stroke="midnightblue" points="488,-85.75 484.5,-75.75 481,-85.75 488,-85.75"/>
</g>
<!-- Node35&#45;&gt;Node17 -->
<g id="edge19" class="edge">
<title>Node35&#45;&gt;Node17</title>
<path fill="none" stroke="midnightblue" d="M766,-286.94C825.87,-281.2 947.5,-259.62 947.5,-179 947.5,-179 947.5,-179 947.5,-121 947.5,-88.95 947.5,-51.64 947.5,-29.75"/>
<polygon fill="midnightblue" stroke="midnightblue" points="951,-29.56 947.5,-19.56 944,-29.56 951,-29.56"/>
</g>
<!-- Node36 -->
<g id="node17" class="node">
<title>Node36</title>
<g id="a_node17"><a xlink:href="exception__utils_8h.html" target="_top" xlink:title=" ">
<polygon fill="none" stroke="black" points="683.5,-224.5 683.5,-243.5 783.5,-243.5 783.5,-224.5 683.5,-224.5"/>
<text text-anchor="middle" x="733.5" y="-231.5" font-family="Helvetica,sans-Serif" font-size="10.00">exception_utils.h</text>
</a>
</g>
</g>
<!-- Node35&#45;&gt;Node36 -->
<g id="edge20" class="edge">
<title>Node35&#45;&gt;Node36</title>
<path fill="none" stroke="midnightblue" d="M733.5,-280.08C733.5,-273.01 733.5,-262.86 733.5,-253.99"/>
<polygon fill="midnightblue" stroke="midnightblue" points="737,-253.75 733.5,-243.75 730,-253.75 737,-253.75"/>
</g>
<!-- Node35&#45;&gt;Node37 -->
<g id="edge24" class="edge">
<title>Node35&#45;&gt;Node37</title>
<path fill="none" stroke="midnightblue" d="M714.17,-280.44C694.18,-271.6 662.76,-257.69 639.94,-247.59"/>
<polygon fill="midnightblue" stroke="midnightblue" points="641.3,-244.36 630.74,-243.52 638.47,-250.76 641.3,-244.36"/>
</g>
<!-- Node36&#45;&gt;Node9 -->
<g id="edge23" class="edge">
<title>Node36&#45;&gt;Node9</title>
<path fill="none" stroke="midnightblue" d="M709.42,-224.44C683.96,-215.4 643.61,-201.06 615.04,-190.92"/>
<polygon fill="midnightblue" stroke="midnightblue" points="616.07,-187.57 605.47,-187.52 613.72,-194.16 616.07,-187.57"/>
</g>
<!-- Node36&#45;&gt;Node12 -->
<g id="edge21" class="edge">
<title>Node36&#45;&gt;Node12</title>
<path fill="none" stroke="midnightblue" d="M731.73,-224.44C727.57,-204.58 716.69,-153.87 705.5,-112 698.79,-86.87 696.14,-80.86 688.5,-56 685.79,-47.19 682.76,-37.42 680.21,-29.24"/>
<polygon fill="midnightblue" stroke="midnightblue" points="683.52,-28.12 677.2,-19.62 676.84,-30.21 683.52,-28.12"/>
</g>
<!-- Node36&#45;&gt;Node14 -->
<g id="edge22" class="edge">
<title>Node36&#45;&gt;Node14</title>
<path fill="none" stroke="midnightblue" d="M741.62,-224.08C765.9,-197.38 838.23,-117.87 869.65,-83.32"/>
<polygon fill="midnightblue" stroke="midnightblue" points="872.57,-85.32 876.71,-75.57 867.39,-80.61 872.57,-85.32"/>
</g>
<!-- Node20 -->
<g id="node23" class="node">
<title>Node20</title>
<g id="a_node23"><a xlink:title=" ">
<polygon fill="none" stroke="#bfbfbf" points="216.5,-336.5 216.5,-355.5 264.5,-355.5 264.5,-336.5 216.5,-336.5"/>
<text text-anchor="middle" x="240.5" y="-343.5" font-family="Helvetica,sans-Serif" font-size="10.00">iosfwd</text>
</a>
</g>
</g>
<!-- Node41&#45;&gt;Node20 -->
<g id="edge32" class="edge">
<title>Node41&#45;&gt;Node20</title>
<path fill="none" stroke="midnightblue" d="M208.29,-571.19C219.33,-563.24 234,-550.45 240.5,-535 264.72,-477.43 252.73,-400.87 245.13,-365.89"/>
<polygon fill="midnightblue" stroke="midnightblue" points="248.44,-364.66 242.78,-355.71 241.62,-366.24 248.44,-364.66"/>
</g>
<!-- Node42 -->
<g id="node24" class="node">
<title>Node42</title>
<g id="a_node24"><a xlink:href="dimacs__cnf_8h.html" target="_top" xlink:title=" ">
<polygon fill="none" stroke="black" points="123.5,-504.5 123.5,-534.5 231.5,-534.5 231.5,-504.5 123.5,-504.5"/>
<text text-anchor="start" x="131.5" y="-522.5" font-family="Helvetica,sans-Serif" font-size="10.00">solvers/sat/dimacs</text>
<text text-anchor="middle" x="177.5" y="-511.5" font-family="Helvetica,sans-Serif" font-size="10.00">_cnf.h</text>
</a>
</g>
</g>
<!-- Node41&#45;&gt;Node42 -->
<g id="edge33" class="edge">
<title>Node41&#45;&gt;Node42</title>
<path fill="none" stroke="midnightblue" d="M192.06,-571.48C190.04,-564.4 187.06,-553.97 184.33,-544.39"/>
<polygon fill="midnightblue" stroke="midnightblue" points="187.62,-543.18 181.51,-534.52 180.89,-545.1 187.62,-543.18"/>
</g>
<!-- Node42&#45;&gt;Node20 -->
<g id="edge34" class="edge">
<title>Node42&#45;&gt;Node20</title>
<path fill="none" stroke="midnightblue" d="M182.66,-504.47C194,-473.57 221.14,-399.69 233.8,-365.25"/>
<polygon fill="midnightblue" stroke="midnightblue" points="237.19,-366.15 237.36,-355.56 230.62,-363.74 237.19,-366.15"/>
</g>
<!-- Node43 -->
<g id="node25" class="node">
<title>Node43</title>
<g id="a_node25"><a xlink:href="cnf__clause__list_8h.html" target="_top" xlink:title="CNF Generation.">
<polygon fill="none" stroke="black" points="83.5,-448.5 83.5,-467.5 181.5,-467.5 181.5,-448.5 83.5,-448.5"/>
<text text-anchor="middle" x="132.5" y="-455.5" font-family="Helvetica,sans-Serif" font-size="10.00">cnf_clause_list.h</text>
</a>
</g>
</g>
<!-- Node42&#45;&gt;Node43 -->
<g id="edge35" class="edge">
<title>Node42&#45;&gt;Node43</title>
<path fill="none" stroke="midnightblue" d="M166.84,-504.4C160.36,-495.84 152.07,-484.87 145.25,-475.86"/>
<polygon fill="midnightblue" stroke="midnightblue" points="147.87,-473.52 139.05,-467.66 142.29,-477.74 147.87,-473.52"/>
</g>
<!-- Node24 -->
<g id="node26" class="node">
<title>Node24</title>
<g id="a_node26"><a xlink:title=" ">
<polygon fill="none" stroke="#bfbfbf" points="103.5,-392.5 103.5,-411.5 135.5,-411.5 135.5,-392.5 103.5,-392.5"/>
<text text-anchor="middle" x="119.5" y="-399.5" font-family="Helvetica,sans-Serif" font-size="10.00">list</text>
</a>
</g>
</g>
<!-- Node43&#45;&gt;Node24 -->
<g id="edge36" class="edge">
<title>Node43&#45;&gt;Node24</title>
<path fill="none" stroke="midnightblue" d="M130.35,-448.08C128.63,-440.93 126.15,-430.64 124,-421.69"/>
<polygon fill="midnightblue" stroke="midnightblue" points="127.35,-420.65 121.61,-411.75 120.54,-422.29 127.35,-420.65"/>
</g>
<!-- Node44 -->
<g id="node27" class="node">
<title>Node44</title>
<g id="a_node27"><a xlink:href="threeval_8h.html" target="_top" xlink:title=" ">
<polygon fill="none" stroke="black" points="0,-392.5 0,-411.5 85,-411.5 85,-392.5 0,-392.5"/>
<text text-anchor="middle" x="42.5" y="-399.5" font-family="Helvetica,sans-Serif" font-size="10.00">util/threeval.h</text>
</a>
</g>
</g>
<!-- Node43&#45;&gt;Node44 -->
<g id="edge37" class="edge">
<title>Node43&#45;&gt;Node44</title>
<path fill="none" stroke="midnightblue" d="M118.04,-448.32C104,-439.9 82.45,-426.97 65.96,-417.07"/>
<polygon fill="midnightblue" stroke="midnightblue" points="67.3,-413.8 56.92,-411.65 63.7,-419.8 67.3,-413.8"/>
</g>
<!-- Node45 -->
<g id="node28" class="node">
<title>Node45</title>
<g id="a_node28"><a xlink:href="cnf_8h.html" target="_top" xlink:title="CNF Generation, via Tseitin.">
<polygon fill="none" stroke="red" points="153.5,-392.5 153.5,-411.5 193.5,-411.5 193.5,-392.5 153.5,-392.5"/>
<text text-anchor="middle" x="173.5" y="-399.5" font-family="Helvetica,sans-Serif" font-size="10.00">cnf.h</text>
</a>
</g>
</g>
<!-- Node43&#45;&gt;Node45 -->
<g id="edge39" class="edge">
<title>Node43&#45;&gt;Node45</title>
<path fill="none" stroke="midnightblue" d="M139.27,-448.08C145.06,-440.46 153.56,-429.26 160.64,-419.94"/>
<polygon fill="midnightblue" stroke="midnightblue" points="163.6,-421.83 166.86,-411.75 158.02,-417.6 163.6,-421.83"/>
</g>
<!-- Node44&#45;&gt;Node20 -->
<g id="edge38" class="edge">
<title>Node44&#45;&gt;Node20</title>
<path fill="none" stroke="midnightblue" d="M73.87,-392.44C110.06,-382.58 169.32,-366.41 206.56,-356.26"/>
<polygon fill="midnightblue" stroke="midnightblue" points="207.71,-359.57 216.44,-353.56 205.87,-352.82 207.71,-359.57"/>
</g>
<!-- Node50&#45;&gt;Node14 -->
<g id="edge48" class="edge">
<title>Node50&#45;&gt;Node14</title>
<path fill="none" stroke="midnightblue" d="M1019.87,-571.87C1075.11,-558.73 1163.5,-527.06 1163.5,-459 1163.5,-459 1163.5,-459 1163.5,-289 1163.5,-201.15 1144.34,-166.58 1075.5,-112 1033.66,-78.83 971.47,-69.41 929.52,-67.09"/>
<polygon fill="midnightblue" stroke="midnightblue" points="929.46,-63.58 919.32,-66.64 929.16,-70.58 929.46,-63.58"/>
</g>
<!-- Node51 -->
<g id="node31" class="node">
<title>Node51</title>
<g id="a_node31"><a xlink:href="expr__cast_8h.html" target="_top" xlink:title="Templated functions to cast to specific exprt&#45;derived classes.">
<polygon fill="none" stroke="black" points="1002,-448.5 1002,-467.5 1075,-467.5 1075,-448.5 1002,-448.5"/>
<text text-anchor="middle" x="1038.5" y="-455.5" font-family="Helvetica,sans-Serif" font-size="10.00">expr_cast.h</text>
</a>
</g>
</g>
<!-- Node50&#45;&gt;Node51 -->
<g id="edge42" class="edge">
<title>Node50&#45;&gt;Node51</title>
<path fill="none" stroke="midnightblue" d="M980.96,-571.3C991.06,-551.59 1015.85,-503.21 1029.36,-476.84"/>
<polygon fill="midnightblue" stroke="midnightblue" points="1032.64,-478.12 1034.08,-467.62 1026.41,-474.93 1032.64,-478.12"/>
</g>
<!-- Node53 -->
<g id="node33" class="node">
<title>Node53</title>
<g id="a_node33"><a xlink:href="std__types_8h.html" target="_top" xlink:title="Pre&#45;defined types.">
<polygon fill="none" stroke="black" points="845,-510 845,-529 918,-529 918,-510 845,-510"/>
<text text-anchor="middle" x="881.5" y="-517" font-family="Helvetica,sans-Serif" font-size="10.00">std_types.h</text>
</a>
</g>
</g>
<!-- Node50&#45;&gt;Node53 -->
<g id="edge49" class="edge">
<title>Node50&#45;&gt;Node53</title>
<path fill="none" stroke="midnightblue" d="M962.89,-571.48C947.44,-561.8 922.01,-545.87 903.68,-534.39"/>
<polygon fill="midnightblue" stroke="midnightblue" points="905.42,-531.35 895.09,-529.01 901.7,-537.28 905.42,-531.35"/>
</g>
<!-- Node51&#45;&gt;Node6 -->
<g id="edge47" class="edge">
<title>Node51&#45;&gt;Node6</title>
<path fill="none" stroke="midnightblue" d="M1001.68,-452.02C927.55,-441.98 760.7,-419.4 682.05,-408.76"/>
<polygon fill="midnightblue" stroke="midnightblue" points="682.38,-405.27 672,-407.4 681.44,-412.21 682.38,-405.27"/>
</g>
<!-- Node51&#45;&gt;Node14 -->
<g id="edge46" class="edge">
<title>Node51&#45;&gt;Node14</title>
<path fill="none" stroke="midnightblue" d="M1045.31,-448.46C1058.78,-430.69 1087.5,-387.98 1087.5,-347 1087.5,-347 1087.5,-347 1087.5,-177 1087.5,-105.57 989.15,-80.29 929.36,-71.51"/>
<polygon fill="midnightblue" stroke="midnightblue" points="929.78,-68.04 919.4,-70.15 928.83,-74.97 929.78,-68.04"/>
</g>
<!-- Node51&#45;&gt;Node17 -->
<g id="edge44" class="edge">
<title>Node51&#45;&gt;Node17</title>
<path fill="none" stroke="midnightblue" d="M1052.48,-448.32C1077.07,-431.85 1125.5,-393.51 1125.5,-347 1125.5,-347 1125.5,-347 1125.5,-289 1125.5,-207.25 1126.18,-176.14 1075.5,-112 1045.7,-74.29 999.12,-42.17 971.13,-24.81"/>
<polygon fill="midnightblue" stroke="midnightblue" points="972.76,-21.71 962.4,-19.51 969.12,-27.69 972.76,-21.71"/>
</g>
<!-- Node51&#45;&gt;Node40 -->
<g id="edge45" class="edge">
<title>Node51&#45;&gt;Node40</title>
<path fill="none" stroke="midnightblue" d="M1026.57,-448.37C1000.6,-429.57 938.69,-384.77 906.58,-361.53"/>
<polygon fill="midnightblue" stroke="midnightblue" points="908.52,-358.62 898.37,-355.59 904.42,-364.29 908.52,-358.62"/>
</g>
<!-- Node52 -->
<g id="node32" class="node">
<title>Node52</title>
<g id="a_node32"><a xlink:title=" ">
<polygon fill="none" stroke="#bfbfbf" points="1002,-392.5 1002,-411.5 1059,-411.5 1059,-392.5 1002,-392.5"/>
<text text-anchor="middle" x="1030.5" y="-399.5" font-family="Helvetica,sans-Serif" font-size="10.00">typeinfo</text>
</a>
</g>
</g>
<!-- Node51&#45;&gt;Node52 -->
<g id="edge43" class="edge">
<title>Node51&#45;&gt;Node52</title>
<path fill="none" stroke="midnightblue" d="M1037.18,-448.08C1036.12,-440.93 1034.59,-430.64 1033.27,-421.69"/>
<polygon fill="midnightblue" stroke="midnightblue" points="1036.72,-421.13 1031.8,-411.75 1029.8,-422.16 1036.72,-421.13"/>
</g>
<!-- Node53&#45;&gt;Node6 -->
<g id="edge50" class="edge">
<title>Node53&#45;&gt;Node6</title>
<path fill="none" stroke="midnightblue" d="M863.31,-509.82C821.16,-489.7 716.62,-439.81 666.78,-416.02"/>
<polygon fill="midnightblue" stroke="midnightblue" points="668.1,-412.77 657.57,-411.62 665.09,-419.09 668.1,-412.77"/>
</g>
<!-- Node53&#45;&gt;Node14 -->
<g id="edge52" class="edge">
<title>Node53&#45;&gt;Node14</title>
<path fill="none" stroke="midnightblue" d="M901.94,-509.87C918.81,-501.65 941.95,-487.6 954.5,-468 997.56,-400.74 985.5,-370.86 985.5,-291 985.5,-291 985.5,-291 985.5,-177 985.5,-132.59 940.29,-98.37 910.36,-80.58"/>
<polygon fill="midnightblue" stroke="midnightblue" points="912.05,-77.51 901.63,-75.59 908.58,-83.59 912.05,-77.51"/>
</g>
<!-- Node53&#45;&gt;Node35 -->
<g id="edge57" class="edge">
<title>Node53&#45;&gt;Node35</title>
<path fill="none" stroke="midnightblue" d="M873.39,-509.87C864.83,-500.32 851.48,-484.13 843.5,-468 816.5,-413.38 843.17,-384.66 806.5,-336 795.99,-322.05 779.78,-311.44 765.31,-304.03"/>
<polygon fill="midnightblue" stroke="midnightblue" points="766.65,-300.8 756.12,-299.62 763.63,-307.11 766.65,-300.8"/>
</g>
<!-- Node53&#45;&gt;Node51 -->
<g id="edge51" class="edge">
<title>Node53&#45;&gt;Node51</title>
<path fill="none" stroke="midnightblue" d="M903.99,-509.98C930.81,-499.81 975.82,-482.76 1006.31,-471.2"/>
<polygon fill="midnightblue" stroke="midnightblue" points="1007.94,-474.33 1016.05,-467.51 1005.46,-467.78 1007.94,-474.33"/>
</g>
<!-- Node54 -->
<g id="node34" class="node">
<title>Node54</title>
<g id="a_node34"><a xlink:href="mp__arith_8h.html" target="_top" xlink:title=" ">
<polygon fill="none" stroke="black" points="364,-448.5 364,-467.5 433,-467.5 433,-448.5 364,-448.5"/>
<text text-anchor="middle" x="398.5" y="-455.5" font-family="Helvetica,sans-Serif" font-size="10.00">mp_arith.h</text>
</a>
</g>
</g>
<!-- Node53&#45;&gt;Node54 -->
<g id="edge53" class="edge">
<title>Node53&#45;&gt;Node54</title>
<path fill="none" stroke="midnightblue" d="M844.8,-513.98C757.59,-503.24 538.15,-476.2 443.31,-464.52"/>
<polygon fill="midnightblue" stroke="midnightblue" points="443.54,-461.02 433.19,-463.27 442.68,-467.97 443.54,-461.02"/>
</g>
<!-- Node25 -->
<g id="node36" class="node">
<title>Node25</title>
<g id="a_node36"><a xlink:title=" ">
<polygon fill="none" stroke="#bfbfbf" points="852,-448.5 852,-467.5 945,-467.5 945,-448.5 852,-448.5"/>
<text text-anchor="middle" x="898.5" y="-455.5" font-family="Helvetica,sans-Serif" font-size="10.00">unordered_map</text>
</a>
</g>
</g>
<!-- Node53&#45;&gt;Node25 -->
<g id="edge58" class="edge">
<title>Node53&#45;&gt;Node25</title>
<path fill="none" stroke="midnightblue" d="M883.94,-509.98C886.36,-501.49 890.16,-488.2 893.27,-477.32"/>
<polygon fill="midnightblue" stroke="midnightblue" points="896.69,-478.09 896.07,-467.51 889.96,-476.16 896.69,-478.09"/>
</g>
<!-- Node54&#45;&gt;Node12 -->
<g id="edge55" class="edge">
<title>Node54&#45;&gt;Node12</title>
<path fill="none" stroke="midnightblue" d="M395.13,-448.31C388.3,-429.92 373.5,-385.58 373.5,-347 373.5,-347 373.5,-347 373.5,-289 373.5,-181.49 356.56,-125.6 438.5,-56 468.81,-30.25 584.93,-17.89 642.19,-13.26"/>
<polygon fill="midnightblue" stroke="midnightblue" points="642.79,-16.73 652.49,-12.46 642.25,-9.75 642.79,-16.73"/>
</g>
<!-- Node54&#45;&gt;Node20 -->
<g id="edge54" class="edge">
<title>Node54&#45;&gt;Node20</title>
<path fill="none" stroke="midnightblue" d="M386.1,-448.37C359.1,-429.57 294.75,-384.77 261.38,-361.53"/>
<polygon fill="midnightblue" stroke="midnightblue" points="263.05,-358.43 252.84,-355.59 259.05,-364.18 263.05,-358.43"/>
</g>
<!-- Node55 -->
<g id="node35" class="node">
<title>Node55</title>
<g id="a_node35"><a xlink:title=" ">
<polygon fill="none" stroke="#bfbfbf" points="401.5,-392.5 401.5,-411.5 495.5,-411.5 495.5,-392.5 401.5,-392.5"/>
<text text-anchor="middle" x="448.5" y="-399.5" font-family="Helvetica,sans-Serif" font-size="10.00">big&#45;int/bigint.hh</text>
</a>
</g>
</g>
<!-- Node54&#45;&gt;Node55 -->
<g id="edge56" class="edge">
<title>Node54&#45;&gt;Node55</title>
<path fill="none" stroke="midnightblue" d="M406.76,-448.08C413.96,-440.3 424.61,-428.8 433.35,-419.37"/>
<polygon fill="midnightblue" stroke="midnightblue" points="436.17,-421.47 440.4,-411.75 431.03,-416.71 436.17,-421.47"/>
</g>
<!-- Node56&#45;&gt;Node14 -->
<g id="edge60" class="edge">
<title>Node56&#45;&gt;Node14</title>
<path fill="none" stroke="midnightblue" d="M646.9,-627.34C695.96,-582.12 920.68,-374.39 928.5,-356 969.33,-260.05 916.28,-131.96 893.74,-85.12"/>
<polygon fill="midnightblue" stroke="midnightblue" points="896.77,-83.36 889.21,-75.94 890.5,-86.46 896.77,-83.36"/>
</g>
<!-- Node56&#45;&gt;Node33 -->
<g id="edge62" class="edge">
<title>Node56&#45;&gt;Node33</title>
<path fill="none" stroke="midnightblue" d="M634.89,-627.24C624.26,-592.87 581.07,-465.5 504.5,-392 478.4,-366.95 454.96,-383.54 431.5,-356 411.9,-332.99 411.5,-321.23 411.5,-291 411.5,-291 411.5,-291 411.5,-233 411.5,-193.78 444.12,-157.84 465.75,-138.32"/>
<polygon fill="midnightblue" stroke="midnightblue" points="468.15,-140.87 473.41,-131.67 463.57,-135.58 468.15,-140.87"/>
</g>
<!-- Node56&#45;&gt;Node50 -->
<g id="edge63" class="edge">
<title>Node56&#45;&gt;Node50</title>
<path fill="none" stroke="midnightblue" d="M685.53,-628.71C740.49,-620.31 833.5,-605.94 923.3,-591.18"/>
<polygon fill="midnightblue" stroke="midnightblue" points="924.08,-594.6 933.38,-589.52 922.94,-587.69 924.08,-594.6"/>
</g>
<!-- Node56&#45;&gt;Node54 -->
<g id="edge61" class="edge">
<title>Node56&#45;&gt;Node54</title>
<path fill="none" stroke="midnightblue" d="M602.36,-627.44C577.5,-620.3 544.16,-608.45 518.5,-591 470.87,-558.61 429.11,-503.62 409.83,-475.95"/>
<polygon fill="midnightblue" stroke="midnightblue" points="412.72,-473.97 404.18,-467.69 406.94,-477.92 412.72,-473.97"/>
</g>
<!-- Node57 -->
<g id="node38" class="node">
<title>Node57</title>
<g id="a_node38"><a xlink:title=" ">
<polygon fill="none" stroke="#bfbfbf" points="527.5,-571.5 527.5,-590.5 571.5,-590.5 571.5,-571.5 527.5,-571.5"/>
<text text-anchor="middle" x="549.5" y="-578.5" font-family="Helvetica,sans-Serif" font-size="10.00">limits</text>
</a>
</g>
</g>
<!-- Node56&#45;&gt;Node57 -->
<g id="edge64" class="edge">
<title>Node56&#45;&gt;Node57</title>
<path fill="none" stroke="midnightblue" d="M623.36,-627.32C609.63,-618.9 588.56,-605.97 572.44,-596.07"/>
<polygon fill="midnightblue" stroke="midnightblue" points="573.96,-592.9 563.6,-590.65 570.3,-598.87 573.96,-592.9"/>
</g>
<!-- Node58&#45;&gt;Node10 -->
<g id="edge66" class="edge">
<title>Node58&#45;&gt;Node10</title>
<path fill="none" stroke="midnightblue" d="M636.25,-687.55C545.29,-676.59 335.5,-644.53 335.5,-582 335.5,-582 335.5,-582 335.5,-289 335.5,-197.32 424.19,-114.96 464.72,-82.11"/>
<polygon fill="midnightblue" stroke="midnightblue" points="467.15,-84.65 472.81,-75.7 462.8,-79.17 467.15,-84.65"/>
</g>
<!-- Node59 -->
<g id="node40" class="node">
<title>Node59</title>
<g id="a_node40"><a xlink:href="pointer__expr_8h.html" target="_top" xlink:title="API to expression classes for Pointers.">
<polygon fill="none" stroke="black" points="780.5,-627.5 780.5,-646.5 866.5,-646.5 866.5,-627.5 780.5,-627.5"/>
<text text-anchor="middle" x="823.5" y="-634.5" font-family="Helvetica,sans-Serif" font-size="10.00">pointer_expr.h</text>
</a>
</g>
</g>
<!-- Node58&#45;&gt;Node59 -->
<g id="edge67" class="edge">
<title>Node58&#45;&gt;Node59</title>
<path fill="none" stroke="midnightblue" d="M700.63,-683.44C724.98,-674.44 763.51,-660.19 790.92,-650.05"/>
<polygon fill="midnightblue" stroke="midnightblue" points="792.31,-653.27 800.47,-646.52 789.88,-646.7 792.31,-653.27"/>
</g>
<!-- Node59&#45;&gt;Node50 -->
<g id="edge70" class="edge">
<title>Node59&#45;&gt;Node50</title>
<path fill="none" stroke="midnightblue" d="M847.74,-627.44C873.37,-618.4 913.99,-604.06 942.74,-593.92"/>
<polygon fill="midnightblue" stroke="midnightblue" points="944.11,-597.15 952.37,-590.52 941.78,-590.54 944.11,-597.15"/>
</g>
<!-- Node60 -->
<g id="node41" class="node">
<title>Node60</title>
<g id="a_node41"><a xlink:href="bitvector__types_8h.html" target="_top" xlink:title="Pre&#45;defined bitvector types.">
<polygon fill="none" stroke="black" points="814,-571.5 814,-590.5 915,-590.5 915,-571.5 814,-571.5"/>
<text text-anchor="middle" x="864.5" y="-578.5" font-family="Helvetica,sans-Serif" font-size="10.00">bitvector_types.h</text>
</a>
</g>
</g>
<!-- Node59&#45;&gt;Node60 -->
<g id="edge68" class="edge">
<title>Node59&#45;&gt;Node60</title>
<path fill="none" stroke="midnightblue" d="M830.27,-627.08C836.06,-619.46 844.56,-608.26 851.64,-598.94"/>
<polygon fill="midnightblue" stroke="midnightblue" points="854.6,-600.83 857.86,-590.75 849.02,-596.6 854.6,-600.83"/>
</g>
<!-- Node60&#45;&gt;Node53 -->
<g id="edge69" class="edge">
<title>Node60&#45;&gt;Node53</title>
<path fill="none" stroke="midnightblue" d="M866.94,-571.48C869.36,-562.99 873.16,-549.7 876.27,-538.82"/>
<polygon fill="midnightblue" stroke="midnightblue" points="879.69,-539.59 879.07,-529.01 872.96,-537.66 879.69,-539.59"/>
</g>
</g>
</svg>
