<?xml version="1.0" encoding="UTF-8" standalone="no"?>
<!DOCTYPE svg PUBLIC "-//W3C//DTD SVG 1.1//EN"
 "http://www.w3.org/Graphics/SVG/1.1/DTD/svg11.dtd">
<!-- Generated by graphviz version 2.43.0 (0)
 -->
<!-- Title: /home/runner/work/cbmc/cbmc/src/solvers/qbf/qbf_skizzo_core.h Pages: 1 -->
<svg width="903pt" height="565pt"
 viewBox="0.00 0.00 903.00 565.00" xmlns="http://www.w3.org/2000/svg" xmlns:xlink="http://www.w3.org/1999/xlink">
<g id="graph0" class="graph" transform="scale(1 1) rotate(0) translate(4 561)">
<title>/home/runner/work/cbmc/cbmc/src/solvers/qbf/qbf_skizzo_core.h</title>
<!-- Node1 -->
<g id="node1" class="node">
<title>Node1</title>
<g id="a_node1"><a xlink:title=" ">
<polygon fill="#bfbfbf" stroke="black" points="20,-515.5 20,-556.5 158,-556.5 158,-515.5 20,-515.5"/>
<text text-anchor="start" x="28" y="-544.5" font-family="Helvetica,sans-Serif" font-size="10.00">/home/runner/work/cbmc</text>
<text text-anchor="start" x="28" y="-533.5" font-family="Helvetica,sans-Serif" font-size="10.00">/cbmc/src/solvers/qbf</text>
<text text-anchor="middle" x="89" y="-522.5" font-family="Helvetica,sans-Serif" font-size="10.00">/qbf_skizzo_core.h</text>
</a>
</g>
</g>
<!-- Node2 -->
<g id="node2" class="node">
<title>Node2</title>
<g id="a_node2"><a xlink:href="qbf__bdd__core_8h.html" target="_top" xlink:title=" ">
<polygon fill="none" stroke="black" points="43.5,-459.5 43.5,-478.5 134.5,-478.5 134.5,-459.5 43.5,-459.5"/>
<text text-anchor="middle" x="89" y="-466.5" font-family="Helvetica,sans-Serif" font-size="10.00">qbf_bdd_core.h</text>
</a>
</g>
</g>
<!-- Node1&#45;&gt;Node2 -->
<g id="edge1" class="edge">
<title>Node1&#45;&gt;Node2</title>
<path fill="none" stroke="midnightblue" d="M89,-515.5C89,-507.07 89,-497.24 89,-488.87"/>
<polygon fill="midnightblue" stroke="midnightblue" points="92.5,-488.65 89,-478.65 85.5,-488.65 92.5,-488.65"/>
</g>
<!-- Node3 -->
<g id="node3" class="node">
<title>Node3</title>
<g id="a_node3"><a xlink:title=" ">
<polygon fill="none" stroke="#bfbfbf" points="40.5,-0.5 40.5,-19.5 87.5,-19.5 87.5,-0.5 40.5,-0.5"/>
<text text-anchor="middle" x="64" y="-7.5" font-family="Helvetica,sans-Serif" font-size="10.00">vector</text>
</a>
</g>
</g>
<!-- Node2&#45;&gt;Node3 -->
<g id="edge2" class="edge">
<title>Node2&#45;&gt;Node3</title>
<path fill="none" stroke="midnightblue" d="M74.7,-459.4C49.54,-443.06 0,-404.92 0,-358 0,-358 0,-358 0,-121 0,-90.9 3.66,-81.89 19,-56 25.64,-44.79 35.71,-34.36 44.64,-26.37"/>
<polygon fill="midnightblue" stroke="midnightblue" points="47.05,-28.92 52.39,-19.77 42.51,-23.59 47.05,-28.92"/>
</g>
<!-- Node4 -->
<g id="node4" class="node">
<title>Node4</title>
<g id="a_node4"><a xlink:href="qdimacs__core_8h.html" target="_top" xlink:title=" ">
<polygon fill="none" stroke="black" points="255.5,-403.5 255.5,-422.5 348.5,-422.5 348.5,-403.5 255.5,-403.5"/>
<text text-anchor="middle" x="302" y="-410.5" font-family="Helvetica,sans-Serif" font-size="10.00">qdimacs_core.h</text>
</a>
</g>
</g>
<!-- Node2&#45;&gt;Node4 -->
<g id="edge3" class="edge">
<title>Node2&#45;&gt;Node4</title>
<path fill="none" stroke="midnightblue" d="M122.75,-459.44C159.52,-450.12 218.45,-435.18 258.62,-425"/>
<polygon fill="midnightblue" stroke="midnightblue" points="259.57,-428.37 268.41,-422.52 257.85,-421.58 259.57,-428.37"/>
</g>
<!-- Node5 -->
<g id="node5" class="node">
<title>Node5</title>
<g id="a_node5"><a xlink:title=" ">
<polygon fill="none" stroke="#bfbfbf" points="248,-347.5 248,-366.5 286,-366.5 286,-347.5 248,-347.5"/>
<text text-anchor="middle" x="267" y="-354.5" font-family="Helvetica,sans-Serif" font-size="10.00">map</text>
</a>
</g>
</g>
<!-- Node4&#45;&gt;Node5 -->
<g id="edge4" class="edge">
<title>Node4&#45;&gt;Node5</title>
<path fill="none" stroke="midnightblue" d="M296.22,-403.08C291.33,-395.53 284.17,-384.49 278.17,-375.23"/>
<polygon fill="midnightblue" stroke="midnightblue" points="281.05,-373.24 272.67,-366.75 275.17,-377.05 281.05,-373.24"/>
</g>
<!-- Node6 -->
<g id="node6" class="node">
<title>Node6</title>
<g id="a_node6"><a xlink:href="expr_8h.html" target="_top" xlink:title=" ">
<polygon fill="none" stroke="black" points="304.5,-347.5 304.5,-366.5 369.5,-366.5 369.5,-347.5 304.5,-347.5"/>
<text text-anchor="middle" x="337" y="-354.5" font-family="Helvetica,sans-Serif" font-size="10.00">util/expr.h</text>
</a>
</g>
</g>
<!-- Node4&#45;&gt;Node6 -->
<g id="edge5" class="edge">
<title>Node4&#45;&gt;Node6</title>
<path fill="none" stroke="midnightblue" d="M307.78,-403.08C312.67,-395.53 319.83,-384.49 325.83,-375.23"/>
<polygon fill="midnightblue" stroke="midnightblue" points="328.83,-377.05 331.33,-366.75 322.95,-373.24 328.83,-377.05"/>
</g>
<!-- Node39 -->
<g id="node21" class="node">
<title>Node39</title>
<g id="a_node21"><a xlink:href="qdimacs__cnf_8h.html" target="_top" xlink:title=" ">
<polygon fill="none" stroke="black" points="592,-347.5 592,-366.5 678,-366.5 678,-347.5 592,-347.5"/>
<text text-anchor="middle" x="635" y="-354.5" font-family="Helvetica,sans-Serif" font-size="10.00">qdimacs_cnf.h</text>
</a>
</g>
</g>
<!-- Node4&#45;&gt;Node39 -->
<g id="edge27" class="edge">
<title>Node4&#45;&gt;Node39</title>
<path fill="none" stroke="midnightblue" d="M348.65,-404.43C409.99,-394.49 517.49,-377.06 581.88,-366.61"/>
<polygon fill="midnightblue" stroke="midnightblue" points="582.52,-370.06 591.83,-365 581.4,-363.15 582.52,-370.06"/>
</g>
<!-- Node7 -->
<g id="node7" class="node">
<title>Node7</title>
<g id="a_node7"><a xlink:href="as__const_8h.html" target="_top" xlink:title=" ">
<polygon fill="none" stroke="black" points="124,-286 124,-305 192,-305 192,-286 124,-286"/>
<text text-anchor="middle" x="158" y="-293" font-family="Helvetica,sans-Serif" font-size="10.00">as_const.h</text>
</a>
</g>
</g>
<!-- Node6&#45;&gt;Node7 -->
<g id="edge6" class="edge">
<title>Node6&#45;&gt;Node7</title>
<path fill="none" stroke="midnightblue" d="M310.91,-347.42C283.52,-338.39 239.21,-323.77 201,-311 198.43,-310.14 195.77,-309.25 193.09,-308.35"/>
<polygon fill="midnightblue" stroke="midnightblue" points="194.05,-304.98 183.46,-305.11 191.82,-311.62 194.05,-304.98"/>
</g>
<!-- Node8 -->
<g id="node8" class="node">
<title>Node8</title>
<g id="a_node8"><a xlink:href="type_8h.html" target="_top" xlink:title="Defines typet, type_with_subtypet and type_with_subtypest.">
<polygon fill="none" stroke="black" points="210.5,-286 210.5,-305 257.5,-305 257.5,-286 210.5,-286"/>
<text text-anchor="middle" x="234" y="-293" font-family="Helvetica,sans-Serif" font-size="10.00">type.h</text>
</a>
</g>
</g>
<!-- Node6&#45;&gt;Node8 -->
<g id="edge7" class="edge">
<title>Node6&#45;&gt;Node8</title>
<path fill="none" stroke="midnightblue" d="M322.24,-347.48C305.34,-337.71 277.42,-321.58 257.51,-310.08"/>
<polygon fill="midnightblue" stroke="midnightblue" points="259.14,-306.98 248.73,-305.01 255.64,-313.04 259.14,-306.98"/>
</g>
<!-- Node35 -->
<g id="node17" class="node">
<title>Node35</title>
<g id="a_node17"><a xlink:href="validation__mode_8h.html" target="_top" xlink:title=" ">
<polygon fill="none" stroke="black" points="322.5,-168.5 322.5,-187.5 429.5,-187.5 429.5,-168.5 322.5,-168.5"/>
<text text-anchor="middle" x="376" y="-175.5" font-family="Helvetica,sans-Serif" font-size="10.00">validation_mode.h</text>
</a>
</g>
</g>
<!-- Node6&#45;&gt;Node35 -->
<g id="edge25" class="edge">
<title>Node6&#45;&gt;Node35</title>
<path fill="none" stroke="midnightblue" d="M338.88,-347.46C344.84,-320.43 363.39,-236.24 371.79,-198.11"/>
<polygon fill="midnightblue" stroke="midnightblue" points="375.31,-198.39 374.05,-187.87 368.48,-196.88 375.31,-198.39"/>
</g>
<!-- Node36 -->
<g id="node18" class="node">
<title>Node36</title>
<g id="a_node18"><a xlink:href="validate__types_8h.html" target="_top" xlink:title=" ">
<polygon fill="none" stroke="black" points="250,-224.5 250,-243.5 348,-243.5 348,-224.5 250,-224.5"/>
<text text-anchor="middle" x="299" y="-231.5" font-family="Helvetica,sans-Serif" font-size="10.00">validate_types.h</text>
</a>
</g>
</g>
<!-- Node6&#45;&gt;Node36 -->
<g id="edge24" class="edge">
<title>Node6&#45;&gt;Node36</title>
<path fill="none" stroke="midnightblue" d="M334.27,-347.3C328.1,-327.68 313.02,-279.64 304.71,-253.19"/>
<polygon fill="midnightblue" stroke="midnightblue" points="308.04,-252.12 301.71,-243.62 301.37,-254.21 308.04,-252.12"/>
</g>
<!-- Node37 -->
<g id="node19" class="node">
<title>Node37</title>
<g id="a_node19"><a xlink:href="validate__expressions_8h.html" target="_top" xlink:title=" ">
<polygon fill="none" stroke="black" points="394.5,-286 394.5,-305 523.5,-305 523.5,-286 394.5,-286"/>
<text text-anchor="middle" x="459" y="-293" font-family="Helvetica,sans-Serif" font-size="10.00">validate_expressions.h</text>
</a>
</g>
</g>
<!-- Node6&#45;&gt;Node37 -->
<g id="edge23" class="edge">
<title>Node6&#45;&gt;Node37</title>
<path fill="none" stroke="midnightblue" d="M354.48,-347.48C374.86,-337.53 408.78,-320.99 432.42,-309.46"/>
<polygon fill="midnightblue" stroke="midnightblue" points="434.1,-312.54 441.55,-305.01 431.03,-306.25 434.1,-312.54"/>
</g>
<!-- Node38 -->
<g id="node20" class="node">
<title>Node38</title>
<g id="a_node20"><a xlink:title=" ">
<polygon fill="none" stroke="#bfbfbf" points="541.5,-286 541.5,-305 606.5,-305 606.5,-286 541.5,-286"/>
<text text-anchor="middle" x="574" y="-293" font-family="Helvetica,sans-Serif" font-size="10.00">functional</text>
</a>
</g>
</g>
<!-- Node6&#45;&gt;Node38 -->
<g id="edge26" class="edge">
<title>Node6&#45;&gt;Node38</title>
<path fill="none" stroke="midnightblue" d="M369.55,-349.72C408.67,-341.89 476.17,-327.51 533,-311 535.79,-310.19 538.66,-309.3 541.53,-308.36"/>
<polygon fill="midnightblue" stroke="midnightblue" points="542.82,-311.62 551.16,-305.1 540.57,-304.99 542.82,-311.62"/>
</g>
<!-- Node9 -->
<g id="node9" class="node">
<title>Node9</title>
<g id="a_node9"><a xlink:href="source__location_8h.html" target="_top" xlink:title=" ">
<polygon fill="none" stroke="black" points="116,-112.5 116,-131.5 218,-131.5 218,-112.5 116,-112.5"/>
<text text-anchor="middle" x="167" y="-119.5" font-family="Helvetica,sans-Serif" font-size="10.00">source_location.h</text>
</a>
</g>
</g>
<!-- Node8&#45;&gt;Node9 -->
<g id="edge8" class="edge">
<title>Node8&#45;&gt;Node9</title>
<path fill="none" stroke="midnightblue" d="M214.49,-285.93C181.68,-271.53 119,-244 119,-244 97.39,-217.5 91.71,-198.59 107,-168 113.73,-154.54 126.61,-144.07 138.71,-136.62"/>
<polygon fill="midnightblue" stroke="midnightblue" points="140.73,-139.5 147.7,-131.52 137.28,-133.41 140.73,-139.5"/>
</g>
<!-- Node33 -->
<g id="node14" class="node">
<title>Node33</title>
<g id="a_node14"><a xlink:href="validate_8h.html" target="_top" xlink:title=" ">
<polygon fill="none" stroke="black" points="128.5,-224.5 128.5,-243.5 193.5,-243.5 193.5,-224.5 128.5,-224.5"/>
<text text-anchor="middle" x="161" y="-231.5" font-family="Helvetica,sans-Serif" font-size="10.00">validate.h</text>
</a>
</g>
</g>
<!-- Node8&#45;&gt;Node33 -->
<g id="edge15" class="edge">
<title>Node8&#45;&gt;Node33</title>
<path fill="none" stroke="midnightblue" d="M223.54,-285.98C212.05,-276.61 193.37,-261.38 179.41,-250.01"/>
<polygon fill="midnightblue" stroke="midnightblue" points="181.4,-247.11 171.44,-243.51 176.98,-252.54 181.4,-247.11"/>
</g>
<!-- Node8&#45;&gt;Node35 -->
<g id="edge22" class="edge">
<title>Node8&#45;&gt;Node35</title>
<path fill="none" stroke="midnightblue" d="M232.08,-285.58C229.5,-270.99 226.72,-241.87 241,-224 251.88,-210.38 291.76,-198.11 325.38,-189.83"/>
<polygon fill="midnightblue" stroke="midnightblue" points="326.21,-193.23 335.12,-187.5 324.58,-186.43 326.21,-193.23"/>
</g>
<!-- Node8&#45;&gt;Node36 -->
<g id="edge21" class="edge">
<title>Node8&#45;&gt;Node36</title>
<path fill="none" stroke="midnightblue" d="M243.31,-285.98C253.45,-276.7 269.86,-261.67 282.25,-250.33"/>
<polygon fill="midnightblue" stroke="midnightblue" points="284.69,-252.84 289.7,-243.51 279.96,-247.68 284.69,-252.84"/>
</g>
<!-- Node10 -->
<g id="node10" class="node">
<title>Node10</title>
<g id="a_node10"><a xlink:href="deprecate_8h.html" target="_top" xlink:title=" ">
<polygon fill="none" stroke="black" points="28,-56.5 28,-75.5 102,-75.5 102,-56.5 28,-56.5"/>
<text text-anchor="middle" x="65" y="-63.5" font-family="Helvetica,sans-Serif" font-size="10.00">deprecate.h</text>
</a>
</g>
</g>
<!-- Node9&#45;&gt;Node10 -->
<g id="edge9" class="edge">
<title>Node9&#45;&gt;Node10</title>
<path fill="none" stroke="midnightblue" d="M150.61,-112.32C134.33,-103.7 109.13,-90.36 90.28,-80.39"/>
<polygon fill="midnightblue" stroke="midnightblue" points="91.82,-77.24 81.35,-75.65 88.55,-83.43 91.82,-77.24"/>
</g>
<!-- Node11 -->
<g id="node11" class="node">
<title>Node11</title>
<g id="a_node11"><a xlink:href="irep_8h.html" target="_top" xlink:title=" ">
<polygon fill="none" stroke="red" points="120,-56.5 120,-75.5 164,-75.5 164,-56.5 120,-56.5"/>
<text text-anchor="middle" x="142" y="-63.5" font-family="Helvetica,sans-Serif" font-size="10.00">irep.h</text>
</a>
</g>
</g>
<!-- Node9&#45;&gt;Node11 -->
<g id="edge10" class="edge">
<title>Node9&#45;&gt;Node11</title>
<path fill="none" stroke="midnightblue" d="M162.87,-112.08C159.49,-104.77 154.58,-94.18 150.38,-85.1"/>
<polygon fill="midnightblue" stroke="midnightblue" points="153.43,-83.36 146.05,-75.75 147.08,-86.3 153.43,-83.36"/>
</g>
<!-- Node12 -->
<g id="node12" class="node">
<title>Node12</title>
<g id="a_node12"><a xlink:title=" ">
<polygon fill="none" stroke="#bfbfbf" points="170,-0.5 170,-19.5 214,-19.5 214,-0.5 170,-0.5"/>
<text text-anchor="middle" x="192" y="-7.5" font-family="Helvetica,sans-Serif" font-size="10.00">string</text>
</a>
</g>
</g>
<!-- Node9&#45;&gt;Node12 -->
<g id="edge14" class="edge">
<title>Node9&#45;&gt;Node12</title>
<path fill="none" stroke="midnightblue" d="M168.96,-112.37C173,-94.62 182.3,-53.67 187.77,-29.6"/>
<polygon fill="midnightblue" stroke="midnightblue" points="191.24,-30.12 190.05,-19.59 184.42,-28.57 191.24,-30.12"/>
</g>
<!-- Node32 -->
<g id="node13" class="node">
<title>Node32</title>
<g id="a_node13"><a xlink:title=" ">
<polygon fill="none" stroke="#bfbfbf" points="220,-56.5 220,-75.5 276,-75.5 276,-56.5 220,-56.5"/>
<text text-anchor="middle" x="248" y="-63.5" font-family="Helvetica,sans-Serif" font-size="10.00">optional</text>
</a>
</g>
</g>
<!-- Node9&#45;&gt;Node32 -->
<g id="edge13" class="edge">
<title>Node9&#45;&gt;Node32</title>
<path fill="none" stroke="midnightblue" d="M180.01,-112.32C192.53,-103.98 211.68,-91.21 226.47,-81.35"/>
<polygon fill="midnightblue" stroke="midnightblue" points="228.64,-84.11 235.02,-75.65 224.76,-78.29 228.64,-84.11"/>
</g>
<!-- Node11&#45;&gt;Node3 -->
<g id="edge12" class="edge">
<title>Node11&#45;&gt;Node3</title>
<path fill="none" stroke="midnightblue" d="M129.47,-56.32C117.41,-47.98 98.97,-35.21 84.73,-25.35"/>
<polygon fill="midnightblue" stroke="midnightblue" points="86.72,-22.47 76.5,-19.65 82.73,-28.22 86.72,-22.47"/>
</g>
<!-- Node11&#45;&gt;Node12 -->
<g id="edge11" class="edge">
<title>Node11&#45;&gt;Node12</title>
<path fill="none" stroke="midnightblue" d="M150.26,-56.08C157.46,-48.3 168.11,-36.8 176.85,-27.37"/>
<polygon fill="midnightblue" stroke="midnightblue" points="179.67,-29.47 183.9,-19.75 174.53,-24.71 179.67,-29.47"/>
</g>
<!-- Node16 -->
<g id="node15" class="node">
<title>Node16</title>
<g id="a_node15"><a xlink:title=" ">
<polygon fill="none" stroke="#bfbfbf" points="116.5,-168.5 116.5,-187.5 185.5,-187.5 185.5,-168.5 116.5,-168.5"/>
<text text-anchor="middle" x="151" y="-175.5" font-family="Helvetica,sans-Serif" font-size="10.00">type_traits</text>
</a>
</g>
</g>
<!-- Node33&#45;&gt;Node16 -->
<g id="edge16" class="edge">
<title>Node33&#45;&gt;Node16</title>
<path fill="none" stroke="midnightblue" d="M159.35,-224.08C158.02,-216.93 156.12,-206.64 154.46,-197.69"/>
<polygon fill="midnightblue" stroke="midnightblue" points="157.88,-196.95 152.62,-187.75 151,-198.22 157.88,-196.95"/>
</g>
<!-- Node34 -->
<g id="node16" class="node">
<title>Node34</title>
<g id="a_node16"><a xlink:href="exception__utils_8h.html" target="_top" xlink:title=" ">
<polygon fill="none" stroke="red" points="204,-168.5 204,-187.5 304,-187.5 304,-168.5 204,-168.5"/>
<text text-anchor="middle" x="254" y="-175.5" font-family="Helvetica,sans-Serif" font-size="10.00">exception_utils.h</text>
</a>
</g>
</g>
<!-- Node33&#45;&gt;Node34 -->
<g id="edge17" class="edge">
<title>Node33&#45;&gt;Node34</title>
<path fill="none" stroke="midnightblue" d="M175.94,-224.32C190.59,-215.82 213.13,-202.73 230.24,-192.8"/>
<polygon fill="midnightblue" stroke="midnightblue" points="232.2,-195.7 239.1,-187.65 228.69,-189.65 232.2,-195.7"/>
</g>
<!-- Node33&#45;&gt;Node35 -->
<g id="edge20" class="edge">
<title>Node33&#45;&gt;Node35</title>
<path fill="none" stroke="midnightblue" d="M193.65,-224.8C230.66,-215.5 291.16,-200.31 332.23,-189.99"/>
<polygon fill="midnightblue" stroke="midnightblue" points="333.13,-193.38 341.97,-187.55 331.42,-186.59 333.13,-193.38"/>
</g>
<!-- Node34&#45;&gt;Node9 -->
<g id="edge19" class="edge">
<title>Node34&#45;&gt;Node9</title>
<path fill="none" stroke="midnightblue" d="M240.02,-168.32C226.45,-159.9 205.62,-146.97 189.68,-137.07"/>
<polygon fill="midnightblue" stroke="midnightblue" points="191.29,-133.95 180.94,-131.65 187.59,-139.9 191.29,-133.95"/>
</g>
<!-- Node34&#45;&gt;Node12 -->
<g id="edge18" class="edge">
<title>Node34&#45;&gt;Node12</title>
<path fill="none" stroke="midnightblue" d="M260.44,-168.38C275.19,-147.53 308.39,-93.3 285,-56 271.73,-34.84 245.39,-23.39 224.12,-17.34"/>
<polygon fill="midnightblue" stroke="midnightblue" points="224.72,-13.88 214.16,-14.79 222.98,-20.66 224.72,-13.88"/>
</g>
<!-- Node19 -->
<g id="node22" class="node">
<title>Node19</title>
<g id="a_node22"><a xlink:title=" ">
<polygon fill="none" stroke="#bfbfbf" points="649,-112.5 649,-131.5 697,-131.5 697,-112.5 649,-112.5"/>
<text text-anchor="middle" x="673" y="-119.5" font-family="Helvetica,sans-Serif" font-size="10.00">iosfwd</text>
</a>
</g>
</g>
<!-- Node39&#45;&gt;Node19 -->
<g id="edge28" class="edge">
<title>Node39&#45;&gt;Node19</title>
<path fill="none" stroke="midnightblue" d="M636.4,-347.43C641.9,-313.68 662.16,-189.47 669.93,-141.8"/>
<polygon fill="midnightblue" stroke="midnightblue" points="673.39,-142.33 671.55,-131.9 666.49,-141.2 673.39,-142.33"/>
</g>
<!-- Node40 -->
<g id="node23" class="node">
<title>Node40</title>
<g id="a_node23"><a xlink:href="dimacs__cnf_8h.html" target="_top" xlink:title=" ">
<polygon fill="none" stroke="black" points="663,-280.5 663,-310.5 771,-310.5 771,-280.5 663,-280.5"/>
<text text-anchor="start" x="671" y="-298.5" font-family="Helvetica,sans-Serif" font-size="10.00">solvers/sat/dimacs</text>
<text text-anchor="middle" x="717" y="-287.5" font-family="Helvetica,sans-Serif" font-size="10.00">_cnf.h</text>
</a>
</g>
</g>
<!-- Node39&#45;&gt;Node40 -->
<g id="edge29" class="edge">
<title>Node39&#45;&gt;Node40</title>
<path fill="none" stroke="midnightblue" d="M646.75,-347.48C657.85,-339.42 674.93,-327.02 689.47,-316.47"/>
<polygon fill="midnightblue" stroke="midnightblue" points="691.64,-319.23 697.67,-310.52 687.52,-313.56 691.64,-319.23"/>
</g>
<!-- Node40&#45;&gt;Node19 -->
<g id="edge30" class="edge">
<title>Node40&#45;&gt;Node19</title>
<path fill="none" stroke="midnightblue" d="M713.4,-280.47C705.47,-249.57 686.52,-175.69 677.68,-141.25"/>
<polygon fill="midnightblue" stroke="midnightblue" points="681.07,-140.38 675.2,-131.56 674.29,-142.12 681.07,-140.38"/>
</g>
<!-- Node41 -->
<g id="node24" class="node">
<title>Node41</title>
<g id="a_node24"><a xlink:href="cnf__clause__list_8h.html" target="_top" xlink:title="CNF Generation.">
<polygon fill="none" stroke="black" points="723,-224.5 723,-243.5 821,-243.5 821,-224.5 723,-224.5"/>
<text text-anchor="middle" x="772" y="-231.5" font-family="Helvetica,sans-Serif" font-size="10.00">cnf_clause_list.h</text>
</a>
</g>
</g>
<!-- Node40&#45;&gt;Node41 -->
<g id="edge31" class="edge">
<title>Node40&#45;&gt;Node41</title>
<path fill="none" stroke="midnightblue" d="M730.03,-280.4C738.19,-271.58 748.72,-260.18 757.19,-251.02"/>
<polygon fill="midnightblue" stroke="midnightblue" points="759.78,-253.38 764,-243.66 754.64,-248.63 759.78,-253.38"/>
</g>
<!-- Node23 -->
<g id="node25" class="node">
<title>Node23</title>
<g id="a_node25"><a xlink:title=" ">
<polygon fill="none" stroke="#bfbfbf" points="701,-168.5 701,-187.5 733,-187.5 733,-168.5 701,-168.5"/>
<text text-anchor="middle" x="717" y="-175.5" font-family="Helvetica,sans-Serif" font-size="10.00">list</text>
</a>
</g>
</g>
<!-- Node41&#45;&gt;Node23 -->
<g id="edge32" class="edge">
<title>Node41&#45;&gt;Node23</title>
<path fill="none" stroke="midnightblue" d="M762.92,-224.08C754.83,-216.14 742.8,-204.34 733.09,-194.8"/>
<polygon fill="midnightblue" stroke="midnightblue" points="735.5,-192.26 725.91,-187.75 730.6,-197.25 735.5,-192.26"/>
</g>
<!-- Node42 -->
<g id="node26" class="node">
<title>Node42</title>
<g id="a_node26"><a xlink:href="threeval_8h.html" target="_top" xlink:title=" ">
<polygon fill="none" stroke="black" points="751.5,-168.5 751.5,-187.5 836.5,-187.5 836.5,-168.5 751.5,-168.5"/>
<text text-anchor="middle" x="794" y="-175.5" font-family="Helvetica,sans-Serif" font-size="10.00">util/threeval.h</text>
</a>
</g>
</g>
<!-- Node41&#45;&gt;Node42 -->
<g id="edge33" class="edge">
<title>Node41&#45;&gt;Node42</title>
<path fill="none" stroke="midnightblue" d="M775.63,-224.08C778.61,-216.77 782.93,-206.18 786.62,-197.1"/>
<polygon fill="midnightblue" stroke="midnightblue" points="789.9,-198.33 790.43,-187.75 783.42,-195.69 789.9,-198.33"/>
</g>
<!-- Node43 -->
<g id="node27" class="node">
<title>Node43</title>
<g id="a_node27"><a xlink:href="cnf_8h.html" target="_top" xlink:title="CNF Generation, via Tseitin.">
<polygon fill="none" stroke="red" points="855,-168.5 855,-187.5 895,-187.5 895,-168.5 855,-168.5"/>
<text text-anchor="middle" x="875" y="-175.5" font-family="Helvetica,sans-Serif" font-size="10.00">cnf.h</text>
</a>
</g>
</g>
<!-- Node41&#45;&gt;Node43 -->
<g id="edge35" class="edge">
<title>Node41&#45;&gt;Node43</title>
<path fill="none" stroke="midnightblue" d="M788.55,-224.32C804.99,-215.7 830.43,-202.36 849.47,-192.39"/>
<polygon fill="midnightblue" stroke="midnightblue" points="851.26,-195.4 858.49,-187.65 848.01,-189.2 851.26,-195.4"/>
</g>
<!-- Node42&#45;&gt;Node19 -->
<g id="edge34" class="edge">
<title>Node42&#45;&gt;Node19</title>
<path fill="none" stroke="midnightblue" d="M774.83,-168.44C755.09,-159.64 724.11,-145.81 701.51,-135.72"/>
<polygon fill="midnightblue" stroke="midnightblue" points="702.64,-132.4 692.08,-131.52 699.79,-138.79 702.64,-132.4"/>
</g>
</g>
</svg>
