<?xml version="1.0" encoding="UTF-8" standalone="no"?>
<!DOCTYPE svg PUBLIC "-//W3C//DTD SVG 1.1//EN"
 "http://www.w3.org/Graphics/SVG/1.1/DTD/svg11.dtd">
<!-- Generated by graphviz version 2.43.0 (0)
 -->
<!-- Title: /home/runner/work/cbmc/cbmc/src/util/rational.h Pages: 1 -->
<svg width="230pt" height="151pt"
 viewBox="0.00 0.00 230.00 151.00" xmlns="http://www.w3.org/2000/svg" xmlns:xlink="http://www.w3.org/1999/xlink">
<g id="graph0" class="graph" transform="scale(1 1) rotate(0) translate(4 147)">
<title>/home/runner/work/cbmc/cbmc/src/util/rational.h</title>
<!-- Node1 -->
<g id="node1" class="node">
<title>Node1</title>
<g id="a_node1"><a xlink:title=" ">
<polygon fill="#bfbfbf" stroke="black" points="19,-112.5 19,-142.5 157,-142.5 157,-112.5 19,-112.5"/>
<text text-anchor="start" x="27" y="-130.5" font-family="Helvetica,sans-Serif" font-size="10.00">/home/runner/work/cbmc</text>
<text text-anchor="middle" x="88" y="-119.5" font-family="Helvetica,sans-Serif" font-size="10.00">/cbmc/src/util/rational.h</text>
</a>
</g>
</g>
<!-- Node2 -->
<g id="node2" class="node">
<title>Node2</title>
<g id="a_node2"><a xlink:href="mp__arith_8h.html" target="_top" xlink:title=" ">
<polygon fill="none" stroke="black" points="53.5,-56.5 53.5,-75.5 122.5,-75.5 122.5,-56.5 53.5,-56.5"/>
<text text-anchor="middle" x="88" y="-63.5" font-family="Helvetica,sans-Serif" font-size="10.00">mp_arith.h</text>
</a>
</g>
</g>
<!-- Node1&#45;&gt;Node2 -->
<g id="edge1" class="edge">
<title>Node1&#45;&gt;Node2</title>
<path fill="none" stroke="midnightblue" d="M88,-112.4C88,-104.47 88,-94.46 88,-85.86"/>
<polygon fill="midnightblue" stroke="midnightblue" points="91.5,-85.66 88,-75.66 84.5,-85.66 91.5,-85.66"/>
</g>
<!-- Node3 -->
<g id="node3" class="node">
<title>Node3</title>
<g id="a_node3"><a xlink:title=" ">
<polygon fill="none" stroke="#bfbfbf" points="0,-0.5 0,-19.5 48,-19.5 48,-0.5 0,-0.5"/>
<text text-anchor="middle" x="24" y="-7.5" font-family="Helvetica,sans-Serif" font-size="10.00">iosfwd</text>
</a>
</g>
</g>
<!-- Node2&#45;&gt;Node3 -->
<g id="edge2" class="edge">
<title>Node2&#45;&gt;Node3</title>
<path fill="none" stroke="midnightblue" d="M77.72,-56.32C68.16,-48.26 53.72,-36.08 42.22,-26.37"/>
<polygon fill="midnightblue" stroke="midnightblue" points="44.37,-23.61 34.47,-19.83 39.86,-28.96 44.37,-23.61"/>
</g>
<!-- Node4 -->
<g id="node4" class="node">
<title>Node4</title>
<g id="a_node4"><a xlink:title=" ">
<polygon fill="none" stroke="#bfbfbf" points="66,-0.5 66,-19.5 110,-19.5 110,-0.5 66,-0.5"/>
<text text-anchor="middle" x="88" y="-7.5" font-family="Helvetica,sans-Serif" font-size="10.00">string</text>
</a>
</g>
</g>
<!-- Node2&#45;&gt;Node4 -->
<g id="edge3" class="edge">
<title>Node2&#45;&gt;Node4</title>
<path fill="none" stroke="midnightblue" d="M88,-56.08C88,-49.01 88,-38.86 88,-29.99"/>
<polygon fill="midnightblue" stroke="midnightblue" points="91.5,-29.75 88,-19.75 84.5,-29.75 91.5,-29.75"/>
</g>
<!-- Node5 -->
<g id="node5" class="node">
<title>Node5</title>
<g id="a_node5"><a xlink:title=" ">
<polygon fill="none" stroke="#bfbfbf" points="128,-0.5 128,-19.5 222,-19.5 222,-0.5 128,-0.5"/>
<text text-anchor="middle" x="175" y="-7.5" font-family="Helvetica,sans-Serif" font-size="10.00">big&#45;int/bigint.hh</text>
</a>
</g>
</g>
<!-- Node2&#45;&gt;Node5 -->
<g id="edge4" class="edge">
<title>Node2&#45;&gt;Node5</title>
<path fill="none" stroke="midnightblue" d="M101.98,-56.32C115.55,-47.9 136.38,-34.97 152.32,-25.07"/>
<polygon fill="midnightblue" stroke="midnightblue" points="154.41,-27.9 161.06,-19.65 150.71,-21.95 154.41,-27.9"/>
</g>
</g>
</svg>
