<?xml version="1.0" encoding="UTF-8" standalone="no"?>
<!DOCTYPE svg PUBLIC "-//W3C//DTD SVG 1.1//EN"
 "http://www.w3.org/Graphics/SVG/1.1/DTD/svg11.dtd">
<!-- Generated by graphviz version 2.43.0 (0)
 -->
<!-- Title: /home/runner/work/cbmc/cbmc/src/util/rational_tools.h Pages: 1 -->
<svg width="810pt" height="128pt"
 viewBox="0.00 0.00 810.00 128.00" xmlns="http://www.w3.org/2000/svg" xmlns:xlink="http://www.w3.org/1999/xlink">
<g id="graph0" class="graph" transform="scale(1 1) rotate(0) translate(4 124)">
<title>/home/runner/work/cbmc/cbmc/src/util/rational_tools.h</title>
<!-- Node1 -->
<g id="node1" class="node">
<title>Node1</title>
<g id="a_node1"><a xlink:title=" ">
<polygon fill="#bfbfbf" stroke="black" points="352,-78.5 352,-119.5 490,-119.5 490,-78.5 352,-78.5"/>
<text text-anchor="start" x="360" y="-107.5" font-family="Helvetica,sans-Serif" font-size="10.00">/home/runner/work/cbmc</text>
<text text-anchor="start" x="360" y="-96.5" font-family="Helvetica,sans-Serif" font-size="10.00">/cbmc/src/util/rational</text>
<text text-anchor="middle" x="421" y="-85.5" font-family="Helvetica,sans-Serif" font-size="10.00">_tools.h</text>
</a>
</g>
</g>
<!-- Node2 -->
<g id="node2" class="node">
<title>Node2</title>
<g id="a_node2"><a xlink:href="builtin__functions_8cpp.html" target="_top" xlink:title="Program Transformation.">
<polygon fill="none" stroke="black" points="0,-0.5 0,-41.5 178,-41.5 178,-0.5 0,-0.5"/>
<text text-anchor="start" x="8" y="-29.5" font-family="Helvetica,sans-Serif" font-size="10.00">/home/runner/work/cbmc</text>
<text text-anchor="start" x="8" y="-18.5" font-family="Helvetica,sans-Serif" font-size="10.00">/cbmc/src/ansi&#45;c/goto</text>
<text text-anchor="middle" x="89" y="-7.5" font-family="Helvetica,sans-Serif" font-size="10.00">&#45;conversion/builtin_functions.cpp</text>
</a>
</g>
</g>
<!-- Node1&#45;&gt;Node2 -->
<g id="edge1" class="edge">
<title>Node1&#45;&gt;Node2</title>
<path fill="none" stroke="midnightblue" d="M341.92,-79.9C291.43,-68.34 225.99,-53.36 174.33,-41.53"/>
<polygon fill="midnightblue" stroke="midnightblue" points="341.28,-83.34 351.81,-82.16 342.84,-76.52 341.28,-83.34"/>
</g>
<!-- Node3 -->
<g id="node3" class="node">
<title>Node3</title>
<g id="a_node3"><a xlink:href="expr_8cpp.html" target="_top" xlink:title="Expression Representation.">
<polygon fill="none" stroke="black" points="196,-6 196,-36 334,-36 334,-6 196,-6"/>
<text text-anchor="start" x="204" y="-24" font-family="Helvetica,sans-Serif" font-size="10.00">/home/runner/work/cbmc</text>
<text text-anchor="middle" x="265" y="-13" font-family="Helvetica,sans-Serif" font-size="10.00">/cbmc/src/util/expr.cpp</text>
</a>
</g>
</g>
<!-- Node1&#45;&gt;Node3 -->
<g id="edge2" class="edge">
<title>Node1&#45;&gt;Node3</title>
<path fill="none" stroke="midnightblue" d="M371.68,-73.97C346.19,-61.55 315.96,-46.83 294.2,-36.23"/>
<polygon fill="midnightblue" stroke="midnightblue" points="370.3,-77.19 380.83,-78.43 373.37,-70.9 370.3,-77.19"/>
</g>
<!-- Node4 -->
<g id="node4" class="node">
<title>Node4</title>
<g id="a_node4"><a xlink:href="rational__tools_8cpp.html" target="_top" xlink:title="Rational Numbers.">
<polygon fill="none" stroke="black" points="352,-0.5 352,-41.5 490,-41.5 490,-0.5 352,-0.5"/>
<text text-anchor="start" x="360" y="-29.5" font-family="Helvetica,sans-Serif" font-size="10.00">/home/runner/work/cbmc</text>
<text text-anchor="start" x="360" y="-18.5" font-family="Helvetica,sans-Serif" font-size="10.00">/cbmc/src/util/rational</text>
<text text-anchor="middle" x="421" y="-7.5" font-family="Helvetica,sans-Serif" font-size="10.00">_tools.cpp</text>
</a>
</g>
</g>
<!-- Node1&#45;&gt;Node4 -->
<g id="edge3" class="edge">
<title>Node1&#45;&gt;Node4</title>
<path fill="none" stroke="midnightblue" d="M421,-68.3C421,-59.3 421,-49.65 421,-41.51"/>
<polygon fill="midnightblue" stroke="midnightblue" points="417.5,-68.43 421,-78.43 424.5,-68.43 417.5,-68.43"/>
</g>
<!-- Node5 -->
<g id="node5" class="node">
<title>Node5</title>
<g id="a_node5"><a xlink:href="simplify__expr_8cpp.html" target="_top" xlink:title=" ">
<polygon fill="none" stroke="black" points="508,-0.5 508,-41.5 646,-41.5 646,-0.5 508,-0.5"/>
<text text-anchor="start" x="516" y="-29.5" font-family="Helvetica,sans-Serif" font-size="10.00">/home/runner/work/cbmc</text>
<text text-anchor="start" x="516" y="-18.5" font-family="Helvetica,sans-Serif" font-size="10.00">/cbmc/src/util/simplify</text>
<text text-anchor="middle" x="577" y="-7.5" font-family="Helvetica,sans-Serif" font-size="10.00">_expr.cpp</text>
</a>
</g>
</g>
<!-- Node1&#45;&gt;Node5 -->
<g id="edge4" class="edge">
<title>Node1&#45;&gt;Node5</title>
<path fill="none" stroke="midnightblue" d="M470.45,-73.91C491.9,-63.46 516.69,-51.38 536.96,-41.51"/>
<polygon fill="midnightblue" stroke="midnightblue" points="468.63,-70.9 461.17,-78.43 471.7,-77.19 468.63,-70.9"/>
</g>
<!-- Node6 -->
<g id="node6" class="node">
<title>Node6</title>
<g id="a_node6"><a xlink:href="simplify__expr__int_8cpp.html" target="_top" xlink:title=" ">
<polygon fill="none" stroke="black" points="664,-0.5 664,-41.5 802,-41.5 802,-0.5 664,-0.5"/>
<text text-anchor="start" x="672" y="-29.5" font-family="Helvetica,sans-Serif" font-size="10.00">/home/runner/work/cbmc</text>
<text text-anchor="start" x="672" y="-18.5" font-family="Helvetica,sans-Serif" font-size="10.00">/cbmc/src/util/simplify</text>
<text text-anchor="middle" x="733" y="-7.5" font-family="Helvetica,sans-Serif" font-size="10.00">_expr_int.cpp</text>
</a>
</g>
</g>
<!-- Node1&#45;&gt;Node6 -->
<g id="edge5" class="edge">
<title>Node1&#45;&gt;Node6</title>
<path fill="none" stroke="midnightblue" d="M499.96,-79.44C545.36,-68.68 603.44,-54.78 655,-42 657.85,-41.29 660.76,-40.57 663.69,-39.83"/>
<polygon fill="midnightblue" stroke="midnightblue" points="499.11,-76.04 490.18,-81.75 500.72,-82.85 499.11,-76.04"/>
</g>
</g>
</svg>
