<?xml version="1.0" encoding="UTF-8" standalone="no"?>
<!DOCTYPE svg PUBLIC "-//W3C//DTD SVG 1.1//EN"
 "http://www.w3.org/Graphics/SVG/1.1/DTD/svg11.dtd">
<!-- Generated by graphviz version 2.43.0 (0)
 -->
<!-- Title: /home/runner/work/cbmc/cbmc/src/goto&#45;programs/read_goto_binary.h Pages: 1 -->
<svg width="219pt" height="162pt"
 viewBox="0.00 0.00 218.50 162.00" xmlns="http://www.w3.org/2000/svg" xmlns:xlink="http://www.w3.org/1999/xlink">
<g id="graph0" class="graph" transform="scale(1 1) rotate(0) translate(4 158)">
<title>/home/runner/work/cbmc/cbmc/src/goto&#45;programs/read_goto_binary.h</title>
<!-- Node1 -->
<g id="node1" class="node">
<title>Node1</title>
<g id="a_node1"><a xlink:title=" ">
<polygon fill="#bfbfbf" stroke="black" points="3,-112.5 3,-153.5 141,-153.5 141,-112.5 3,-112.5"/>
<text text-anchor="start" x="11" y="-141.5" font-family="Helvetica,sans-Serif" font-size="10.00">/home/runner/work/cbmc</text>
<text text-anchor="start" x="11" y="-130.5" font-family="Helvetica,sans-Serif" font-size="10.00">/cbmc/src/goto&#45;programs</text>
<text text-anchor="middle" x="72" y="-119.5" font-family="Helvetica,sans-Serif" font-size="10.00">/read_goto_binary.h</text>
</a>
</g>
</g>
<!-- Node2 -->
<g id="node2" class="node">
<title>Node2</title>
<g id="a_node2"><a xlink:title=" ">
<polygon fill="none" stroke="#bfbfbf" points="0,-56.5 0,-75.5 32,-75.5 32,-56.5 0,-56.5"/>
<text text-anchor="middle" x="16" y="-63.5" font-family="Helvetica,sans-Serif" font-size="10.00">list</text>
</a>
</g>
</g>
<!-- Node1&#45;&gt;Node2 -->
<g id="edge1" class="edge">
<title>Node1&#45;&gt;Node2</title>
<path fill="none" stroke="midnightblue" d="M55.2,-112.5C47.19,-103.2 37.72,-92.21 30.09,-83.36"/>
<polygon fill="midnightblue" stroke="midnightblue" points="32.63,-80.94 23.45,-75.65 27.33,-85.51 32.63,-80.94"/>
</g>
<!-- Node3 -->
<g id="node3" class="node">
<title>Node3</title>
<g id="a_node3"><a xlink:title=" ">
<polygon fill="none" stroke="#bfbfbf" points="50,-56.5 50,-75.5 94,-75.5 94,-56.5 50,-56.5"/>
<text text-anchor="middle" x="72" y="-63.5" font-family="Helvetica,sans-Serif" font-size="10.00">string</text>
</a>
</g>
</g>
<!-- Node1&#45;&gt;Node3 -->
<g id="edge2" class="edge">
<title>Node1&#45;&gt;Node3</title>
<path fill="none" stroke="midnightblue" d="M72,-112.5C72,-104.07 72,-94.24 72,-85.87"/>
<polygon fill="midnightblue" stroke="midnightblue" points="75.5,-85.65 72,-75.65 68.5,-85.65 75.5,-85.65"/>
</g>
<!-- Node4 -->
<g id="node4" class="node">
<title>Node4</title>
<g id="a_node4"><a xlink:href="optional_8h.html" target="_top" xlink:title=" ">
<polygon fill="none" stroke="black" points="112,-56.5 112,-75.5 196,-75.5 196,-56.5 112,-56.5"/>
<text text-anchor="middle" x="154" y="-63.5" font-family="Helvetica,sans-Serif" font-size="10.00">util/optional.h</text>
</a>
</g>
</g>
<!-- Node1&#45;&gt;Node4 -->
<g id="edge3" class="edge">
<title>Node1&#45;&gt;Node4</title>
<path fill="none" stroke="midnightblue" d="M96.6,-112.5C108.93,-102.72 123.63,-91.07 135.07,-82.01"/>
<polygon fill="midnightblue" stroke="midnightblue" points="137.42,-84.61 143.08,-75.65 133.07,-79.12 137.42,-84.61"/>
</g>
<!-- Node5 -->
<g id="node5" class="node">
<title>Node5</title>
<g id="a_node5"><a xlink:title=" ">
<polygon fill="none" stroke="#bfbfbf" points="97.5,-0.5 97.5,-19.5 210.5,-19.5 210.5,-0.5 97.5,-0.5"/>
<text text-anchor="middle" x="154" y="-7.5" font-family="Helvetica,sans-Serif" font-size="10.00">nonstd/optional.hpp</text>
</a>
</g>
</g>
<!-- Node4&#45;&gt;Node5 -->
<g id="edge4" class="edge">
<title>Node4&#45;&gt;Node5</title>
<path fill="none" stroke="midnightblue" d="M154,-56.08C154,-49.01 154,-38.86 154,-29.99"/>
<polygon fill="midnightblue" stroke="midnightblue" points="157.5,-29.75 154,-19.75 150.5,-29.75 157.5,-29.75"/>
</g>
</g>
</svg>
