<?xml version="1.0" encoding="UTF-8" standalone="no"?>
<!DOCTYPE svg PUBLIC "-//W3C//DTD SVG 1.1//EN"
 "http://www.w3.org/Graphics/SVG/1.1/DTD/svg11.dtd">
<!-- Generated by graphviz version 2.43.0 (0)
 -->
<!-- Title: /home/runner/work/cbmc/cbmc/src/goto&#45;programs/remove_skip.h Pages: 1 -->
<svg width="5488pt" height="139pt"
 viewBox="0.00 0.00 5488.00 139.00" xmlns="http://www.w3.org/2000/svg" xmlns:xlink="http://www.w3.org/1999/xlink">
<g id="graph0" class="graph" transform="scale(1 1) rotate(0) translate(4 135)">
<title>/home/runner/work/cbmc/cbmc/src/goto&#45;programs/remove_skip.h</title>
<!-- Node1 -->
<g id="node1" class="node">
<title>Node1</title>
<g id="a_node1"><a xlink:title=" ">
<polygon fill="#bfbfbf" stroke="black" points="2728,-89.5 2728,-130.5 2866,-130.5 2866,-89.5 2728,-89.5"/>
<text text-anchor="start" x="2736" y="-118.5" font-family="Helvetica,sans-Serif" font-size="10.00">/home/runner/work/cbmc</text>
<text text-anchor="start" x="2736" y="-107.5" font-family="Helvetica,sans-Serif" font-size="10.00">/cbmc/src/goto&#45;programs</text>
<text text-anchor="middle" x="2797" y="-96.5" font-family="Helvetica,sans-Serif" font-size="10.00">/remove_skip.h</text>
</a>
</g>
</g>
<!-- Node2 -->
<g id="node2" class="node">
<title>Node2</title>
<g id="a_node2"><a xlink:href="goto__check__c_8cpp.html" target="_top" xlink:title=" ">
<polygon fill="none" stroke="black" points="0,-6 0,-47 138,-47 138,-6 0,-6"/>
<text text-anchor="start" x="8" y="-35" font-family="Helvetica,sans-Serif" font-size="10.00">/home/runner/work/cbmc</text>
<text text-anchor="start" x="8" y="-24" font-family="Helvetica,sans-Serif" font-size="10.00">/cbmc/src/ansi&#45;c/goto</text>
<text text-anchor="middle" x="69" y="-13" font-family="Helvetica,sans-Serif" font-size="10.00">_check_c.cpp</text>
</a>
</g>
</g>
<!-- Node1&#45;&gt;Node2 -->
<g id="edge1" class="edge">
<title>Node1&#45;&gt;Node2</title>
<path fill="none" stroke="midnightblue" d="M2717.93,-108.72C2305.03,-107.04 405.54,-96.99 147,-53 138.71,-51.59 130.1,-49.48 121.76,-47.06"/>
<polygon fill="midnightblue" stroke="midnightblue" points="2717.97,-112.22 2727.98,-108.76 2718,-105.22 2717.97,-112.22"/>
</g>
<!-- Node3 -->
<g id="node3" class="node">
<title>Node3</title>
<g id="a_node3"><a xlink:href="remove__asm_8cpp.html" target="_top" xlink:title=" ">
<polygon fill="none" stroke="black" points="156,-6 156,-47 314,-47 314,-6 156,-6"/>
<text text-anchor="start" x="164" y="-35" font-family="Helvetica,sans-Serif" font-size="10.00">/home/runner/work/cbmc</text>
<text text-anchor="start" x="164" y="-24" font-family="Helvetica,sans-Serif" font-size="10.00">/cbmc/src/assembler/remove</text>
<text text-anchor="middle" x="235" y="-13" font-family="Helvetica,sans-Serif" font-size="10.00">_asm.cpp</text>
</a>
</g>
</g>
<!-- Node1&#45;&gt;Node3 -->
<g id="edge2" class="edge">
<title>Node1&#45;&gt;Node3</title>
<path fill="none" stroke="midnightblue" d="M2717.51,-108.43C2320.71,-105.4 563.84,-89.98 323,-53 313.72,-51.58 304.05,-49.45 294.65,-47.03"/>
<polygon fill="midnightblue" stroke="midnightblue" points="2717.72,-111.93 2727.74,-108.5 2717.77,-104.93 2717.72,-111.93"/>
</g>
<!-- Node4 -->
<g id="node4" class="node">
<title>Node4</title>
<g id="a_node4"><a xlink:href="cbmc__parse__options_8cpp.html" target="_top" xlink:title=" ">
<polygon fill="none" stroke="black" points="332,-6 332,-47 486,-47 486,-6 332,-6"/>
<text text-anchor="start" x="340" y="-35" font-family="Helvetica,sans-Serif" font-size="10.00">/home/runner/work/cbmc</text>
<text text-anchor="start" x="340" y="-24" font-family="Helvetica,sans-Serif" font-size="10.00">/cbmc/src/cbmc/cbmc_parse</text>
<text text-anchor="middle" x="409" y="-13" font-family="Helvetica,sans-Serif" font-size="10.00">_options.cpp</text>
</a>
</g>
</g>
<!-- Node1&#45;&gt;Node4 -->
<g id="edge3" class="edge">
<title>Node1&#45;&gt;Node4</title>
<path fill="none" stroke="midnightblue" d="M2717.84,-108.31C2338.74,-104.86 717.94,-88.13 495,-53 485.92,-51.57 476.46,-49.44 467.28,-47.02"/>
<polygon fill="midnightblue" stroke="midnightblue" points="2717.86,-111.81 2727.9,-108.4 2717.93,-104.81 2717.86,-111.81"/>
</g>
<!-- Node5 -->
<g id="node5" class="node">
<title>Node5</title>
<g id="a_node5"><a xlink:href="static__simplifier_8cpp.html" target="_top" xlink:title=" ">
<polygon fill="none" stroke="black" points="504,-6 504,-47 642,-47 642,-6 504,-6"/>
<text text-anchor="start" x="512" y="-35" font-family="Helvetica,sans-Serif" font-size="10.00">/home/runner/work/cbmc</text>
<text text-anchor="start" x="512" y="-24" font-family="Helvetica,sans-Serif" font-size="10.00">/cbmc/src/goto&#45;analyzer</text>
<text text-anchor="middle" x="573" y="-13" font-family="Helvetica,sans-Serif" font-size="10.00">/static_simplifier.cpp</text>
</a>
</g>
</g>
<!-- Node1&#45;&gt;Node5 -->
<g id="edge4" class="edge">
<title>Node1&#45;&gt;Node5</title>
<path fill="none" stroke="midnightblue" d="M2717.63,-108.29C2354.14,-104.85 857.26,-88.63 651,-53 642.72,-51.57 634.11,-49.44 625.77,-47.02"/>
<polygon fill="midnightblue" stroke="midnightblue" points="2717.76,-111.79 2727.79,-108.38 2717.83,-104.79 2717.76,-111.79"/>
</g>
<!-- Node6 -->
<g id="node6" class="node">
<title>Node6</title>
<g id="a_node6"><a xlink:href="goto__diff__parse__options_8cpp.html" target="_top" xlink:title=" ">
<polygon fill="none" stroke="black" points="660,-6 660,-47 798,-47 798,-6 660,-6"/>
<text text-anchor="start" x="668" y="-35" font-family="Helvetica,sans-Serif" font-size="10.00">/home/runner/work/cbmc</text>
<text text-anchor="start" x="668" y="-24" font-family="Helvetica,sans-Serif" font-size="10.00">/cbmc/src/goto&#45;diff/goto</text>
<text text-anchor="middle" x="729" y="-13" font-family="Helvetica,sans-Serif" font-size="10.00">_diff_parse_options.cpp</text>
</a>
</g>
</g>
<!-- Node1&#45;&gt;Node6 -->
<g id="edge5" class="edge">
<title>Node1&#45;&gt;Node6</title>
<path fill="none" stroke="midnightblue" d="M2717.79,-108.12C2371.23,-104.07 997.2,-86.05 807,-53 798.72,-51.56 790.11,-49.43 781.77,-47"/>
<polygon fill="midnightblue" stroke="midnightblue" points="2717.95,-111.62 2727.99,-108.23 2718.03,-104.62 2717.95,-111.62"/>
</g>
<!-- Node7 -->
<g id="node7" class="node">
<title>Node7</title>
<g id="a_node7"><a xlink:href="disjunctive__polynomial__acceleration_8cpp.html" target="_top" xlink:title=" ">
<polygon fill="none" stroke="black" points="816.5,-0.5 816.5,-52.5 1003.5,-52.5 1003.5,-0.5 816.5,-0.5"/>
<text text-anchor="start" x="824.5" y="-40.5" font-family="Helvetica,sans-Serif" font-size="10.00">/home/runner/work/cbmc</text>
<text text-anchor="start" x="824.5" y="-29.5" font-family="Helvetica,sans-Serif" font-size="10.00">/cbmc/src/goto&#45;instrument</text>
<text text-anchor="start" x="824.5" y="-18.5" font-family="Helvetica,sans-Serif" font-size="10.00">/accelerate/disjunctive_polynomial</text>
<text text-anchor="middle" x="910" y="-7.5" font-family="Helvetica,sans-Serif" font-size="10.00">_acceleration.cpp</text>
</a>
</g>
</g>
<!-- Node1&#45;&gt;Node7 -->
<g id="edge6" class="edge">
<title>Node1&#45;&gt;Node7</title>
<path fill="none" stroke="midnightblue" d="M2717.61,-108.76C2416.99,-107.51 1348.5,-99.79 1012,-53 1009.2,-52.61 1006.36,-52.17 1003.5,-51.7"/>
<polygon fill="midnightblue" stroke="midnightblue" points="2717.97,-112.26 2727.98,-108.8 2718,-105.26 2717.97,-112.26"/>
</g>
<!-- Node8 -->
<g id="node8" class="node">
<title>Node8</title>
<g id="a_node8"><a xlink:href="sat__path__enumerator_8cpp.html" target="_top" xlink:title=" ">
<polygon fill="none" stroke="black" points="1021.5,-6 1021.5,-47 1218.5,-47 1218.5,-6 1021.5,-6"/>
<text text-anchor="start" x="1029.5" y="-35" font-family="Helvetica,sans-Serif" font-size="10.00">/home/runner/work/cbmc</text>
<text text-anchor="start" x="1029.5" y="-24" font-family="Helvetica,sans-Serif" font-size="10.00">/cbmc/src/goto&#45;instrument</text>
<text text-anchor="middle" x="1120" y="-13" font-family="Helvetica,sans-Serif" font-size="10.00">/accelerate/sat_path_enumerator.cpp</text>
</a>
</g>
</g>
<!-- Node1&#45;&gt;Node8 -->
<g id="edge7" class="edge">
<title>Node1&#45;&gt;Node8</title>
<path fill="none" stroke="midnightblue" d="M2717.22,-108.22C2440.13,-105.19 1520.38,-92.35 1228,-53 1217.02,-51.52 1205.53,-49.42 1194.3,-47.05"/>
<polygon fill="midnightblue" stroke="midnightblue" points="2717.55,-111.72 2727.59,-108.33 2717.63,-104.73 2717.55,-111.72"/>
</g>
<!-- Node9 -->
<g id="node9" class="node">
<title>Node9</title>
<g id="a_node9"><a xlink:href="scratch__program_8cpp.html" target="_top" xlink:title=" ">
<polygon fill="none" stroke="black" points="1237,-6 1237,-47 1413,-47 1413,-6 1237,-6"/>
<text text-anchor="start" x="1245" y="-35" font-family="Helvetica,sans-Serif" font-size="10.00">/home/runner/work/cbmc</text>
<text text-anchor="start" x="1245" y="-24" font-family="Helvetica,sans-Serif" font-size="10.00">/cbmc/src/goto&#45;instrument</text>
<text text-anchor="middle" x="1325" y="-13" font-family="Helvetica,sans-Serif" font-size="10.00">/accelerate/scratch_program.cpp</text>
</a>
</g>
</g>
<!-- Node1&#45;&gt;Node9 -->
<g id="edge8" class="edge">
<title>Node1&#45;&gt;Node9</title>
<path fill="none" stroke="midnightblue" d="M2717.33,-108.02C2463.3,-104.53 1674.41,-90.86 1422,-53 1412.1,-51.51 1401.75,-49.41 1391.66,-47.04"/>
<polygon fill="midnightblue" stroke="midnightblue" points="2717.54,-111.52 2727.58,-108.16 2717.63,-104.52 2717.54,-111.52"/>
</g>
<!-- Node10 -->
<g id="node10" class="node">
<title>Node10</title>
<g id="a_node10"><a xlink:href="contracts_8cpp.html" target="_top" xlink:title=" ">
<polygon fill="none" stroke="black" points="1431.5,-6 1431.5,-47 1576.5,-47 1576.5,-6 1431.5,-6"/>
<text text-anchor="start" x="1439.5" y="-35" font-family="Helvetica,sans-Serif" font-size="10.00">/home/runner/work/cbmc</text>
<text text-anchor="start" x="1439.5" y="-24" font-family="Helvetica,sans-Serif" font-size="10.00">/cbmc/src/goto&#45;instrument</text>
<text text-anchor="middle" x="1504" y="-13" font-family="Helvetica,sans-Serif" font-size="10.00">/contracts/contracts.cpp</text>
</a>
</g>
</g>
<!-- Node1&#45;&gt;Node10 -->
<g id="edge9" class="edge">
<title>Node1&#45;&gt;Node10</title>
<path fill="none" stroke="midnightblue" d="M2717.65,-108.01C2484.41,-104.67 1803.67,-91.79 1585,-53 1576.73,-51.53 1568.12,-49.45 1559.74,-47.11"/>
<polygon fill="midnightblue" stroke="midnightblue" points="2717.71,-111.51 2727.76,-108.15 2717.81,-104.51 2717.71,-111.51"/>
</g>
<!-- Node11 -->
<g id="node11" class="node">
<title>Node11</title>
<g id="a_node11"><a xlink:href="cover_8cpp.html" target="_top" xlink:title=" ">
<polygon fill="none" stroke="black" points="1594.5,-6 1594.5,-47 1739.5,-47 1739.5,-6 1594.5,-6"/>
<text text-anchor="start" x="1602.5" y="-35" font-family="Helvetica,sans-Serif" font-size="10.00">/home/runner/work/cbmc</text>
<text text-anchor="start" x="1602.5" y="-24" font-family="Helvetica,sans-Serif" font-size="10.00">/cbmc/src/goto&#45;instrument</text>
<text text-anchor="middle" x="1667" y="-13" font-family="Helvetica,sans-Serif" font-size="10.00">/cover.cpp</text>
</a>
</g>
</g>
<!-- Node1&#45;&gt;Node11 -->
<g id="edge10" class="edge">
<title>Node1&#45;&gt;Node11</title>
<path fill="none" stroke="midnightblue" d="M2717.92,-107.35C2506.92,-102.55 1934.06,-86.7 1748,-53 1739.73,-51.5 1731.13,-49.41 1722.75,-47.06"/>
<polygon fill="midnightblue" stroke="midnightblue" points="2717.91,-110.85 2727.99,-107.58 2718.07,-103.85 2717.91,-110.85"/>
</g>
<!-- Node12 -->
<g id="node12" class="node">
<title>Node12</title>
<g id="a_node12"><a xlink:href="full__slicer_8cpp.html" target="_top" xlink:title=" ">
<polygon fill="none" stroke="black" points="1757.5,-6 1757.5,-47 1902.5,-47 1902.5,-6 1757.5,-6"/>
<text text-anchor="start" x="1765.5" y="-35" font-family="Helvetica,sans-Serif" font-size="10.00">/home/runner/work/cbmc</text>
<text text-anchor="start" x="1765.5" y="-24" font-family="Helvetica,sans-Serif" font-size="10.00">/cbmc/src/goto&#45;instrument</text>
<text text-anchor="middle" x="1830" y="-13" font-family="Helvetica,sans-Serif" font-size="10.00">/full_slicer.cpp</text>
</a>
</g>
</g>
<!-- Node1&#45;&gt;Node12 -->
<g id="edge11" class="edge">
<title>Node1&#45;&gt;Node12</title>
<path fill="none" stroke="midnightblue" d="M2717.69,-106.4C2530.49,-99.88 2065.4,-81.29 1912,-53 1903.79,-51.49 1895.25,-49.41 1886.91,-47.1"/>
<polygon fill="midnightblue" stroke="midnightblue" points="2717.62,-109.9 2727.74,-106.75 2717.86,-102.91 2717.62,-109.9"/>
</g>
<!-- Node13 -->
<g id="node13" class="node">
<title>Node13</title>
<g id="a_node13"><a xlink:href="generate__function__bodies_8cpp.html" target="_top" xlink:title=" ">
<polygon fill="none" stroke="black" points="1921,-6 1921,-47 2087,-47 2087,-6 1921,-6"/>
<text text-anchor="start" x="1929" y="-35" font-family="Helvetica,sans-Serif" font-size="10.00">/home/runner/work/cbmc</text>
<text text-anchor="start" x="1929" y="-24" font-family="Helvetica,sans-Serif" font-size="10.00">/cbmc/src/goto&#45;instrument</text>
<text text-anchor="middle" x="2004" y="-13" font-family="Helvetica,sans-Serif" font-size="10.00">/generate_function_bodies.cpp</text>
</a>
</g>
</g>
<!-- Node1&#45;&gt;Node13 -->
<g id="edge12" class="edge">
<title>Node1&#45;&gt;Node13</title>
<path fill="none" stroke="midnightblue" d="M2717.48,-107.57C2586.83,-104.12 2318.99,-92.44 2096,-53 2087.02,-51.41 2077.66,-49.33 2068.48,-47.04"/>
<polygon fill="midnightblue" stroke="midnightblue" points="2717.71,-111.08 2727.79,-107.83 2717.88,-104.08 2717.71,-111.08"/>
</g>
<!-- Node14 -->
<g id="node14" class="node">
<title>Node14</title>
<g id="a_node14"><a xlink:href="goto__instrument__parse__options_8cpp.html" target="_top" xlink:title=" ">
<polygon fill="none" stroke="black" points="2105,-6 2105,-47 2299,-47 2299,-6 2105,-6"/>
<text text-anchor="start" x="2113" y="-35" font-family="Helvetica,sans-Serif" font-size="10.00">/home/runner/work/cbmc</text>
<text text-anchor="start" x="2113" y="-24" font-family="Helvetica,sans-Serif" font-size="10.00">/cbmc/src/goto&#45;instrument</text>
<text text-anchor="middle" x="2202" y="-13" font-family="Helvetica,sans-Serif" font-size="10.00">/goto_instrument_parse_options.cpp</text>
</a>
</g>
</g>
<!-- Node1&#45;&gt;Node14 -->
<g id="edge13" class="edge">
<title>Node1&#45;&gt;Node14</title>
<path fill="none" stroke="midnightblue" d="M2717.75,-102.92C2620.68,-94.78 2451.44,-78.37 2308,-53 2298.31,-51.29 2288.18,-49.22 2278.19,-47.01"/>
<polygon fill="midnightblue" stroke="midnightblue" points="2717.53,-106.41 2727.78,-103.75 2718.11,-99.44 2717.53,-106.41"/>
</g>
<!-- Node15 -->
<g id="node15" class="node">
<title>Node15</title>
<g id="a_node15"><a xlink:href="havoc__loops_8cpp.html" target="_top" xlink:title=" ">
<polygon fill="none" stroke="black" points="2317.5,-6 2317.5,-47 2462.5,-47 2462.5,-6 2317.5,-6"/>
<text text-anchor="start" x="2325.5" y="-35" font-family="Helvetica,sans-Serif" font-size="10.00">/home/runner/work/cbmc</text>
<text text-anchor="start" x="2325.5" y="-24" font-family="Helvetica,sans-Serif" font-size="10.00">/cbmc/src/goto&#45;instrument</text>
<text text-anchor="middle" x="2390" y="-13" font-family="Helvetica,sans-Serif" font-size="10.00">/havoc_loops.cpp</text>
</a>
</g>
</g>
<!-- Node1&#45;&gt;Node15 -->
<g id="edge14" class="edge">
<title>Node1&#45;&gt;Node15</title>
<path fill="none" stroke="midnightblue" d="M2717.78,-98.45C2651.39,-88.87 2554.35,-73.18 2471,-53 2463.84,-51.27 2456.38,-49.24 2449.02,-47.09"/>
<polygon fill="midnightblue" stroke="midnightblue" points="2717.37,-101.92 2727.76,-99.87 2718.36,-94.99 2717.37,-101.92"/>
</g>
<!-- Node16 -->
<g id="node16" class="node">
<title>Node16</title>
<g id="a_node16"><a xlink:href="k__induction_8cpp.html" target="_top" xlink:title=" ">
<polygon fill="none" stroke="black" points="2480.5,-6 2480.5,-47 2625.5,-47 2625.5,-6 2480.5,-6"/>
<text text-anchor="start" x="2488.5" y="-35" font-family="Helvetica,sans-Serif" font-size="10.00">/home/runner/work/cbmc</text>
<text text-anchor="start" x="2488.5" y="-24" font-family="Helvetica,sans-Serif" font-size="10.00">/cbmc/src/goto&#45;instrument</text>
<text text-anchor="middle" x="2553" y="-13" font-family="Helvetica,sans-Serif" font-size="10.00">/k_induction.cpp</text>
</a>
</g>
</g>
<!-- Node1&#45;&gt;Node16 -->
<g id="edge15" class="edge">
<title>Node1&#45;&gt;Node16</title>
<path fill="none" stroke="midnightblue" d="M2728.86,-86.24C2691.91,-73.9 2646.71,-58.8 2611.39,-47"/>
<polygon fill="midnightblue" stroke="midnightblue" points="2727.96,-89.63 2738.56,-89.48 2730.18,-82.99 2727.96,-89.63"/>
</g>
<!-- Node17 -->
<g id="node17" class="node">
<title>Node17</title>
<g id="a_node17"><a xlink:href="model__argc__argv_8cpp.html" target="_top" xlink:title=" ">
<polygon fill="none" stroke="black" points="2643.5,-6 2643.5,-47 2788.5,-47 2788.5,-6 2643.5,-6"/>
<text text-anchor="start" x="2651.5" y="-35" font-family="Helvetica,sans-Serif" font-size="10.00">/home/runner/work/cbmc</text>
<text text-anchor="start" x="2651.5" y="-24" font-family="Helvetica,sans-Serif" font-size="10.00">/cbmc/src/goto&#45;instrument</text>
<text text-anchor="middle" x="2716" y="-13" font-family="Helvetica,sans-Serif" font-size="10.00">/model_argc_argv.cpp</text>
</a>
</g>
</g>
<!-- Node1&#45;&gt;Node17 -->
<g id="edge16" class="edge">
<title>Node1&#45;&gt;Node17</title>
<path fill="none" stroke="midnightblue" d="M2770.2,-82.04C2758.84,-70.6 2745.84,-57.53 2735.43,-47.05"/>
<polygon fill="midnightblue" stroke="midnightblue" points="2767.86,-84.65 2777.39,-89.27 2772.83,-79.71 2767.86,-84.65"/>
</g>
<!-- Node18 -->
<g id="node18" class="node">
<title>Node18</title>
<g id="a_node18"><a xlink:href="race__check_8cpp.html" target="_top" xlink:title=" ">
<polygon fill="none" stroke="black" points="2806.5,-6 2806.5,-47 2951.5,-47 2951.5,-6 2806.5,-6"/>
<text text-anchor="start" x="2814.5" y="-35" font-family="Helvetica,sans-Serif" font-size="10.00">/home/runner/work/cbmc</text>
<text text-anchor="start" x="2814.5" y="-24" font-family="Helvetica,sans-Serif" font-size="10.00">/cbmc/src/goto&#45;instrument</text>
<text text-anchor="middle" x="2879" y="-13" font-family="Helvetica,sans-Serif" font-size="10.00">/race_check.cpp</text>
</a>
</g>
</g>
<!-- Node1&#45;&gt;Node18 -->
<g id="edge17" class="edge">
<title>Node1&#45;&gt;Node18</title>
<path fill="none" stroke="midnightblue" d="M2824.13,-82.04C2835.63,-70.6 2848.79,-57.53 2859.33,-47.05"/>
<polygon fill="midnightblue" stroke="midnightblue" points="2821.48,-79.74 2816.85,-89.27 2826.41,-84.7 2821.48,-79.74"/>
</g>
<!-- Node19 -->
<g id="node19" class="node">
<title>Node19</title>
<g id="a_node19"><a xlink:href="reachability__slicer_8cpp.html" target="_top" xlink:title=" ">
<polygon fill="none" stroke="black" points="2969.5,-6 2969.5,-47 3114.5,-47 3114.5,-6 2969.5,-6"/>
<text text-anchor="start" x="2977.5" y="-35" font-family="Helvetica,sans-Serif" font-size="10.00">/home/runner/work/cbmc</text>
<text text-anchor="start" x="2977.5" y="-24" font-family="Helvetica,sans-Serif" font-size="10.00">/cbmc/src/goto&#45;instrument</text>
<text text-anchor="middle" x="3042" y="-13" font-family="Helvetica,sans-Serif" font-size="10.00">/reachability_slicer.cpp</text>
</a>
</g>
</g>
<!-- Node1&#45;&gt;Node19 -->
<g id="edge18" class="edge">
<title>Node1&#45;&gt;Node19</title>
<path fill="none" stroke="midnightblue" d="M2865.42,-86.24C2902.52,-73.9 2947.9,-58.8 2983.37,-47"/>
<polygon fill="midnightblue" stroke="midnightblue" points="2864.07,-83 2855.68,-89.48 2866.28,-89.64 2864.07,-83"/>
</g>
<!-- Node20 -->
<g id="node20" class="node">
<title>Node20</title>
<g id="a_node20"><a xlink:href="weak__memory_8cpp.html" target="_top" xlink:title=" ">
<polygon fill="none" stroke="black" points="3132.5,-6 3132.5,-47 3277.5,-47 3277.5,-6 3132.5,-6"/>
<text text-anchor="start" x="3140.5" y="-35" font-family="Helvetica,sans-Serif" font-size="10.00">/home/runner/work/cbmc</text>
<text text-anchor="start" x="3140.5" y="-24" font-family="Helvetica,sans-Serif" font-size="10.00">/cbmc/src/goto&#45;instrument</text>
<text text-anchor="middle" x="3205" y="-13" font-family="Helvetica,sans-Serif" font-size="10.00">/wmm/weak_memory.cpp</text>
</a>
</g>
</g>
<!-- Node1&#45;&gt;Node20 -->
<g id="edge19" class="edge">
<title>Node1&#45;&gt;Node20</title>
<path fill="none" stroke="midnightblue" d="M2876.14,-98.51C2942.75,-88.96 3040.26,-73.25 3124,-53 3131.16,-51.27 3138.62,-49.24 3145.98,-47.1"/>
<polygon fill="midnightblue" stroke="midnightblue" points="2875.54,-95.06 2866.13,-99.93 2876.53,-101.99 2875.54,-95.06"/>
</g>
<!-- Node21 -->
<g id="node21" class="node">
<title>Node21</title>
<g id="a_node21"><a xlink:href="goto__check_8cpp.html" target="_top" xlink:title=" ">
<polygon fill="none" stroke="black" points="3296,-6 3296,-47 3434,-47 3434,-6 3296,-6"/>
<text text-anchor="start" x="3304" y="-35" font-family="Helvetica,sans-Serif" font-size="10.00">/home/runner/work/cbmc</text>
<text text-anchor="start" x="3304" y="-24" font-family="Helvetica,sans-Serif" font-size="10.00">/cbmc/src/goto&#45;programs</text>
<text text-anchor="middle" x="3365" y="-13" font-family="Helvetica,sans-Serif" font-size="10.00">/goto_check.cpp</text>
</a>
</g>
</g>
<!-- Node1&#45;&gt;Node21 -->
<g id="edge20" class="edge">
<title>Node1&#45;&gt;Node21</title>
<path fill="none" stroke="midnightblue" d="M2876.38,-104.87C2973.96,-98.67 3144.2,-84.17 3287,-53 3294.52,-51.36 3302.33,-49.28 3309.99,-47.01"/>
<polygon fill="midnightblue" stroke="midnightblue" points="2876.06,-101.39 2866.29,-105.5 2876.49,-108.37 2876.06,-101.39"/>
</g>
<!-- Node22 -->
<g id="node22" class="node">
<title>Node22</title>
<g id="a_node22"><a xlink:href="goto__convert_8cpp.html" target="_top" xlink:title=" ">
<polygon fill="none" stroke="black" points="3452,-6 3452,-47 3590,-47 3590,-6 3452,-6"/>
<text text-anchor="start" x="3460" y="-35" font-family="Helvetica,sans-Serif" font-size="10.00">/home/runner/work/cbmc</text>
<text text-anchor="start" x="3460" y="-24" font-family="Helvetica,sans-Serif" font-size="10.00">/cbmc/src/goto&#45;programs</text>
<text text-anchor="middle" x="3521" y="-13" font-family="Helvetica,sans-Serif" font-size="10.00">/goto_convert.cpp</text>
</a>
</g>
</g>
<!-- Node1&#45;&gt;Node22 -->
<g id="edge21" class="edge">
<title>Node1&#45;&gt;Node22</title>
<path fill="none" stroke="midnightblue" d="M2876.16,-107.96C2998.79,-105.05 3241.57,-94.09 3443,-53 3450.68,-51.43 3458.66,-49.36 3466.45,-47.08"/>
<polygon fill="midnightblue" stroke="midnightblue" points="2876.02,-104.46 2866.11,-108.19 2876.18,-111.46 2876.02,-104.46"/>
</g>
<!-- Node23 -->
<g id="node23" class="node">
<title>Node23</title>
<g id="a_node23"><a xlink:href="remove__function__pointers_8cpp.html" target="_top" xlink:title=" ">
<polygon fill="none" stroke="black" points="3608.5,-6 3608.5,-47 3775.5,-47 3775.5,-6 3608.5,-6"/>
<text text-anchor="start" x="3616.5" y="-35" font-family="Helvetica,sans-Serif" font-size="10.00">/home/runner/work/cbmc</text>
<text text-anchor="start" x="3616.5" y="-24" font-family="Helvetica,sans-Serif" font-size="10.00">/cbmc/src/goto&#45;programs</text>
<text text-anchor="middle" x="3692" y="-13" font-family="Helvetica,sans-Serif" font-size="10.00">/remove_function_pointers.cpp</text>
</a>
</g>
</g>
<!-- Node1&#45;&gt;Node23 -->
<g id="edge22" class="edge">
<title>Node1&#45;&gt;Node23</title>
<path fill="none" stroke="midnightblue" d="M2876.32,-108.64C3021,-106.84 3336.98,-97.62 3599,-53 3608.16,-51.44 3617.72,-49.36 3627.07,-47.05"/>
<polygon fill="midnightblue" stroke="midnightblue" points="2876.16,-105.14 2866.2,-108.76 2876.24,-112.14 2876.16,-105.14"/>
</g>
<!-- Node24 -->
<g id="node24" class="node">
<title>Node24</title>
<g id="a_node24"><a xlink:href="remove__returns_8cpp.html" target="_top" xlink:title=" ">
<polygon fill="none" stroke="black" points="3794,-6 3794,-47 3932,-47 3932,-6 3794,-6"/>
<text text-anchor="start" x="3802" y="-35" font-family="Helvetica,sans-Serif" font-size="10.00">/home/runner/work/cbmc</text>
<text text-anchor="start" x="3802" y="-24" font-family="Helvetica,sans-Serif" font-size="10.00">/cbmc/src/goto&#45;programs</text>
<text text-anchor="middle" x="3863" y="-13" font-family="Helvetica,sans-Serif" font-size="10.00">/remove_returns.cpp</text>
</a>
</g>
</g>
<!-- Node1&#45;&gt;Node24 -->
<g id="edge23" class="edge">
<title>Node1&#45;&gt;Node24</title>
<path fill="none" stroke="midnightblue" d="M2876.41,-107.15C3079.01,-102.01 3611.38,-85.72 3785,-53 3792.98,-51.5 3801.27,-49.4 3809.35,-47.04"/>
<polygon fill="midnightblue" stroke="midnightblue" points="2876.05,-103.66 2866.14,-107.41 2876.23,-110.66 2876.05,-103.66"/>
</g>
<!-- Node25 -->
<g id="node25" class="node">
<title>Node25</title>
<g id="a_node25"><a xlink:href="remove__skip_8cpp.html" target="_top" xlink:title=" ">
<polygon fill="none" stroke="black" points="3950,-6 3950,-47 4088,-47 4088,-6 3950,-6"/>
<text text-anchor="start" x="3958" y="-35" font-family="Helvetica,sans-Serif" font-size="10.00">/home/runner/work/cbmc</text>
<text text-anchor="start" x="3958" y="-24" font-family="Helvetica,sans-Serif" font-size="10.00">/cbmc/src/goto&#45;programs</text>
<text text-anchor="middle" x="4019" y="-13" font-family="Helvetica,sans-Serif" font-size="10.00">/remove_skip.cpp</text>
</a>
</g>
</g>
<!-- Node1&#45;&gt;Node25 -->
<g id="edge24" class="edge">
<title>Node1&#45;&gt;Node25</title>
<path fill="none" stroke="midnightblue" d="M2876.15,-107.87C3100.26,-104.24 3736.13,-90.8 3941,-53 3948.99,-51.53 3957.28,-49.45 3965.36,-47.1"/>
<polygon fill="midnightblue" stroke="midnightblue" points="2876.06,-104.37 2866.11,-108.03 2876.17,-111.37 2876.06,-104.37"/>
</g>
<!-- Node26 -->
<g id="node26" class="node">
<title>Node26</title>
<g id="a_node26"><a xlink:href="remove__virtual__functions_8cpp.html" target="_top" xlink:title=" ">
<polygon fill="none" stroke="black" points="4106,-6 4106,-47 4270,-47 4270,-6 4106,-6"/>
<text text-anchor="start" x="4114" y="-35" font-family="Helvetica,sans-Serif" font-size="10.00">/home/runner/work/cbmc</text>
<text text-anchor="start" x="4114" y="-24" font-family="Helvetica,sans-Serif" font-size="10.00">/cbmc/src/goto&#45;programs</text>
<text text-anchor="middle" x="4188" y="-13" font-family="Helvetica,sans-Serif" font-size="10.00">/remove_virtual_functions.cpp</text>
</a>
</g>
</g>
<!-- Node1&#45;&gt;Node26 -->
<g id="edge25" class="edge">
<title>Node1&#45;&gt;Node26</title>
<path fill="none" stroke="midnightblue" d="M2876.5,-107.97C3121.07,-104.42 3860.03,-90.79 4097,-53 4106.24,-51.53 4115.87,-49.45 4125.27,-47.1"/>
<polygon fill="midnightblue" stroke="midnightblue" points="2876.22,-104.47 2866.27,-108.12 2876.32,-111.47 2876.22,-104.47"/>
</g>
<!-- Node27 -->
<g id="node27" class="node">
<title>Node27</title>
<g id="a_node27"><a xlink:href="string__instrumentation_8cpp.html" target="_top" xlink:title=" ">
<polygon fill="none" stroke="black" points="4288.5,-6 4288.5,-47 4439.5,-47 4439.5,-6 4288.5,-6"/>
<text text-anchor="start" x="4296.5" y="-35" font-family="Helvetica,sans-Serif" font-size="10.00">/home/runner/work/cbmc</text>
<text text-anchor="start" x="4296.5" y="-24" font-family="Helvetica,sans-Serif" font-size="10.00">/cbmc/src/goto&#45;programs</text>
<text text-anchor="middle" x="4364" y="-13" font-family="Helvetica,sans-Serif" font-size="10.00">/string_instrumentation.cpp</text>
</a>
</g>
</g>
<!-- Node1&#45;&gt;Node27 -->
<g id="edge26" class="edge">
<title>Node1&#45;&gt;Node27</title>
<path fill="none" stroke="midnightblue" d="M2876.46,-108.65C3143.25,-107.06 4005.48,-98.44 4279,-53 4287.82,-51.54 4297,-49.43 4305.93,-47.04"/>
<polygon fill="midnightblue" stroke="midnightblue" points="2876.07,-105.15 2866.09,-108.71 2876.11,-112.15 2876.07,-105.15"/>
</g>
<!-- Node28 -->
<g id="node28" class="node">
<title>Node28</title>
<g id="a_node28"><a xlink:href="janalyzer__parse__options_8cpp.html" target="_top" xlink:title=" ">
<polygon fill="none" stroke="black" points="4458,-6 4458,-47 4616,-47 4616,-6 4458,-6"/>
<text text-anchor="start" x="4466" y="-35" font-family="Helvetica,sans-Serif" font-size="10.00">/home/runner/work/cbmc</text>
<text text-anchor="start" x="4466" y="-24" font-family="Helvetica,sans-Serif" font-size="10.00">/cbmc/jbmc/src/janalyzer</text>
<text text-anchor="middle" x="4537" y="-13" font-family="Helvetica,sans-Serif" font-size="10.00">/janalyzer_parse_options.cpp</text>
</a>
</g>
</g>
<!-- Node1&#45;&gt;Node28 -->
<g id="edge27" class="edge">
<title>Node1&#45;&gt;Node28</title>
<path fill="none" stroke="midnightblue" d="M2876.7,-108.91C3163.28,-108.19 4140.72,-102.11 4449,-53 4458.11,-51.55 4467.61,-49.45 4476.85,-47.06"/>
<polygon fill="midnightblue" stroke="midnightblue" points="2876.39,-105.41 2866.39,-108.94 2876.4,-112.41 2876.39,-105.41"/>
</g>
<!-- Node29 -->
<g id="node29" class="node">
<title>Node29</title>
<g id="a_node29"><a xlink:href="convert__java__nondet_8cpp.html" target="_top" xlink:title=" ">
<polygon fill="none" stroke="black" points="4634,-6 4634,-47 4798,-47 4798,-6 4634,-6"/>
<text text-anchor="start" x="4642" y="-35" font-family="Helvetica,sans-Serif" font-size="10.00">/home/runner/work/cbmc</text>
<text text-anchor="start" x="4642" y="-24" font-family="Helvetica,sans-Serif" font-size="10.00">/cbmc/jbmc/src/java_bytecode</text>
<text text-anchor="middle" x="4716" y="-13" font-family="Helvetica,sans-Serif" font-size="10.00">/convert_java_nondet.cpp</text>
</a>
</g>
</g>
<!-- Node1&#45;&gt;Node29 -->
<g id="edge28" class="edge">
<title>Node1&#45;&gt;Node29</title>
<path fill="none" stroke="midnightblue" d="M2876.33,-109.13C3181.58,-109.21 4280.34,-105.77 4625,-53 4634.41,-51.56 4644.22,-49.46 4653.78,-47.08"/>
<polygon fill="midnightblue" stroke="midnightblue" points="2876.24,-105.63 2866.24,-109.12 2876.24,-112.63 2876.24,-105.63"/>
</g>
<!-- Node30 -->
<g id="node30" class="node">
<title>Node30</title>
<g id="a_node30"><a xlink:href="remove__exceptions_8cpp.html" target="_top" xlink:title=" ">
<polygon fill="none" stroke="black" points="4816,-6 4816,-47 4980,-47 4980,-6 4816,-6"/>
<text text-anchor="start" x="4824" y="-35" font-family="Helvetica,sans-Serif" font-size="10.00">/home/runner/work/cbmc</text>
<text text-anchor="start" x="4824" y="-24" font-family="Helvetica,sans-Serif" font-size="10.00">/cbmc/jbmc/src/java_bytecode</text>
<text text-anchor="middle" x="4898" y="-13" font-family="Helvetica,sans-Serif" font-size="10.00">/remove_exceptions.cpp</text>
</a>
</g>
</g>
<!-- Node1&#45;&gt;Node30 -->
<g id="edge29" class="edge">
<title>Node1&#45;&gt;Node30</title>
<path fill="none" stroke="midnightblue" d="M2876.25,-109.38C3200.24,-110.55 4424.91,-110.96 4807,-53 4816.41,-51.57 4826.22,-49.48 4835.78,-47.11"/>
<polygon fill="midnightblue" stroke="midnightblue" points="2876.03,-105.88 2866.02,-109.35 2876,-112.88 2876.03,-105.88"/>
</g>
<!-- Node31 -->
<g id="node31" class="node">
<title>Node31</title>
<g id="a_node31"><a xlink:href="replace__java__nondet_8cpp.html" target="_top" xlink:title=" ">
<polygon fill="none" stroke="black" points="4998,-6 4998,-47 5162,-47 5162,-6 4998,-6"/>
<text text-anchor="start" x="5006" y="-35" font-family="Helvetica,sans-Serif" font-size="10.00">/home/runner/work/cbmc</text>
<text text-anchor="start" x="5006" y="-24" font-family="Helvetica,sans-Serif" font-size="10.00">/cbmc/jbmc/src/java_bytecode</text>
<text text-anchor="middle" x="5080" y="-13" font-family="Helvetica,sans-Serif" font-size="10.00">/replace_java_nondet.cpp</text>
</a>
</g>
</g>
<!-- Node1&#45;&gt;Node31 -->
<g id="edge30" class="edge">
<title>Node1&#45;&gt;Node31</title>
<path fill="none" stroke="midnightblue" d="M2876.24,-108.14C3244.21,-103.98 4777.24,-84.87 4989,-53 4998.57,-51.56 5008.57,-49.43 5018.28,-47"/>
<polygon fill="midnightblue" stroke="midnightblue" points="2876.17,-104.64 2866.21,-108.25 2876.25,-111.64 2876.17,-104.64"/>
</g>
<!-- Node32 -->
<g id="node32" class="node">
<title>Node32</title>
<g id="a_node32"><a xlink:href="jbmc__parse__options_8cpp.html" target="_top" xlink:title=" ">
<polygon fill="none" stroke="black" points="5180,-6 5180,-47 5324,-47 5324,-6 5180,-6"/>
<text text-anchor="start" x="5188" y="-35" font-family="Helvetica,sans-Serif" font-size="10.00">/home/runner/work/cbmc</text>
<text text-anchor="start" x="5188" y="-24" font-family="Helvetica,sans-Serif" font-size="10.00">/cbmc/jbmc/src/jbmc/jbmc</text>
<text text-anchor="middle" x="5252" y="-13" font-family="Helvetica,sans-Serif" font-size="10.00">_parse_options.cpp</text>
</a>
</g>
</g>
<!-- Node1&#45;&gt;Node32 -->
<g id="edge31" class="edge">
<title>Node1&#45;&gt;Node32</title>
<path fill="none" stroke="midnightblue" d="M2876.41,-108.45C3263.24,-105.6 4940.95,-91.14 5171,-53 5179.58,-51.58 5188.51,-49.46 5197.17,-47.03"/>
<polygon fill="midnightblue" stroke="midnightblue" points="2876.13,-104.95 2866.16,-108.53 2876.18,-111.95 2876.13,-104.95"/>
</g>
<!-- Node33 -->
<g id="node33" class="node">
<title>Node33</title>
<g id="a_node33"><a xlink:href="jdiff__parse__options_8cpp.html" target="_top" xlink:title=" ">
<polygon fill="none" stroke="black" points="5342,-6 5342,-47 5480,-47 5480,-6 5342,-6"/>
<text text-anchor="start" x="5350" y="-35" font-family="Helvetica,sans-Serif" font-size="10.00">/home/runner/work/cbmc</text>
<text text-anchor="start" x="5350" y="-24" font-family="Helvetica,sans-Serif" font-size="10.00">/cbmc/jbmc/src/jdiff/jdiff</text>
<text text-anchor="middle" x="5411" y="-13" font-family="Helvetica,sans-Serif" font-size="10.00">_parse_options.cpp</text>
</a>
</g>
</g>
<!-- Node1&#45;&gt;Node33 -->
<g id="edge32" class="edge">
<title>Node1&#45;&gt;Node33</title>
<path fill="none" stroke="midnightblue" d="M2876.22,-108.63C3278.58,-106.59 5086.33,-95.1 5333,-53 5341.29,-51.59 5349.9,-49.47 5358.24,-47.05"/>
<polygon fill="midnightblue" stroke="midnightblue" points="2876.11,-105.13 2866.13,-108.68 2876.15,-112.13 2876.11,-105.13"/>
</g>
</g>
</svg>
