<?xml version="1.0" encoding="UTF-8" standalone="no"?>
<!DOCTYPE svg PUBLIC "-//W3C//DTD SVG 1.1//EN"
 "http://www.w3.org/Graphics/SVG/1.1/DTD/svg11.dtd">
<!-- Generated by graphviz version 2.43.0 (0)
 -->
<!-- Title: /home/runner/work/cbmc/cbmc/jbmc/unit/java&#45;testing&#45;utils/require_parse_tree.cpp Pages: 1 -->
<svg width="1013pt" height="744pt"
 viewBox="0.00 0.00 1012.50 744.00" xmlns="http://www.w3.org/2000/svg" xmlns:xlink="http://www.w3.org/1999/xlink">
<g id="graph0" class="graph" transform="scale(1 1) rotate(0) translate(4 740)">
<title>/home/runner/work/cbmc/cbmc/jbmc/unit/java&#45;testing&#45;utils/require_parse_tree.cpp</title>
<!-- Node1 -->
<g id="node1" class="node">
<title>Node1</title>
<g id="a_node1"><a xlink:title=" ">
<polygon fill="#bfbfbf" stroke="black" points="792,-694.5 792,-735.5 948,-735.5 948,-694.5 792,-694.5"/>
<text text-anchor="start" x="800" y="-723.5" font-family="Helvetica,sans-Serif" font-size="10.00">/home/runner/work/cbmc</text>
<text text-anchor="start" x="800" y="-712.5" font-family="Helvetica,sans-Serif" font-size="10.00">/cbmc/jbmc/unit/java&#45;testing</text>
<text text-anchor="middle" x="870" y="-701.5" font-family="Helvetica,sans-Serif" font-size="10.00">&#45;utils/require_parse_tree.cpp</text>
</a>
</g>
</g>
<!-- Node2 -->
<g id="node2" class="node">
<title>Node2</title>
<g id="a_node2"><a xlink:href="require__parse__tree_8h.html" target="_top" xlink:title="Utilties for inspecting java_parse_treet.">
<polygon fill="none" stroke="black" points="687.5,-638.5 687.5,-657.5 804.5,-657.5 804.5,-638.5 687.5,-638.5"/>
<text text-anchor="middle" x="746" y="-645.5" font-family="Helvetica,sans-Serif" font-size="10.00">require_parse_tree.h</text>
</a>
</g>
</g>
<!-- Node1&#45;&gt;Node2 -->
<g id="edge1" class="edge">
<title>Node1&#45;&gt;Node2</title>
<path fill="none" stroke="midnightblue" d="M832.8,-694.5C813.05,-684.15 789.29,-671.69 771.63,-662.43"/>
<polygon fill="midnightblue" stroke="midnightblue" points="772.99,-659.2 762.51,-657.65 769.74,-665.4 772.99,-659.2"/>
</g>
<!-- Node52 -->
<g id="node35" class="node">
<title>Node52</title>
<g id="a_node35"><a xlink:href="use__catch_8h.html" target="_top" xlink:title=" ">
<polygon fill="none" stroke="black" points="802,-291.5 802,-310.5 938,-310.5 938,-291.5 802,-291.5"/>
<text text-anchor="middle" x="870" y="-298.5" font-family="Helvetica,sans-Serif" font-size="10.00">testing&#45;utils/use_catch.h</text>
</a>
</g>
</g>
<!-- Node1&#45;&gt;Node52 -->
<g id="edge55" class="edge">
<title>Node1&#45;&gt;Node52</title>
<path fill="none" stroke="midnightblue" d="M870,-694.28C870,-669.39 870,-625.27 870,-587.5 870,-587.5 870,-587.5 870,-412 870,-379.95 870,-342.64 870,-320.75"/>
<polygon fill="midnightblue" stroke="midnightblue" points="873.5,-320.56 870,-310.56 866.5,-320.56 873.5,-320.56"/>
</g>
<!-- Node55 -->
<g id="node38" class="node">
<title>Node55</title>
<g id="a_node38"><a xlink:title=" ">
<polygon fill="none" stroke="#bfbfbf" points="898.5,-638.5 898.5,-657.5 951.5,-657.5 951.5,-638.5 898.5,-638.5"/>
<text text-anchor="middle" x="925" y="-645.5" font-family="Helvetica,sans-Serif" font-size="10.00">iterator</text>
</a>
</g>
</g>
<!-- Node1&#45;&gt;Node55 -->
<g id="edge60" class="edge">
<title>Node1&#45;&gt;Node55</title>
<path fill="none" stroke="midnightblue" d="M886.5,-694.5C894.37,-685.2 903.67,-674.21 911.16,-665.36"/>
<polygon fill="midnightblue" stroke="midnightblue" points="913.89,-667.55 917.68,-657.65 908.55,-663.03 913.89,-667.55"/>
</g>
<!-- Node3 -->
<g id="node3" class="node">
<title>Node3</title>
<g id="a_node3"><a xlink:href="java__bytecode__parse__tree_8h.html" target="_top" xlink:title=" ">
<polygon fill="none" stroke="black" points="619.5,-571.5 619.5,-601.5 752.5,-601.5 752.5,-571.5 619.5,-571.5"/>
<text text-anchor="start" x="627.5" y="-589.5" font-family="Helvetica,sans-Serif" font-size="10.00">java_bytecode/java</text>
<text text-anchor="middle" x="686" y="-578.5" font-family="Helvetica,sans-Serif" font-size="10.00">_bytecode_parse_tree.h</text>
</a>
</g>
</g>
<!-- Node2&#45;&gt;Node3 -->
<g id="edge2" class="edge">
<title>Node2&#45;&gt;Node3</title>
<path fill="none" stroke="midnightblue" d="M737.4,-638.48C729.58,-630.72 717.71,-618.94 707.34,-608.66"/>
<polygon fill="midnightblue" stroke="midnightblue" points="709.71,-606.08 700.14,-601.52 704.78,-611.05 709.71,-606.08"/>
</g>
<!-- Node4 -->
<g id="node4" class="node">
<title>Node4</title>
<g id="a_node4"><a xlink:title=" ">
<polygon fill="none" stroke="#bfbfbf" points="465,-459.5 465,-478.5 497,-478.5 497,-459.5 465,-459.5"/>
<text text-anchor="middle" x="481" y="-466.5" font-family="Helvetica,sans-Serif" font-size="10.00">set</text>
</a>
</g>
</g>
<!-- Node3&#45;&gt;Node4 -->
<g id="edge3" class="edge">
<title>Node3&#45;&gt;Node4</title>
<path fill="none" stroke="midnightblue" d="M660.86,-571.34C621.14,-548.96 544.36,-505.7 505.22,-483.65"/>
<polygon fill="midnightblue" stroke="midnightblue" points="506.56,-480.38 496.13,-478.52 503.12,-486.48 506.56,-480.38"/>
</g>
<!-- Node5 -->
<g id="node5" class="node">
<title>Node5</title>
<g id="a_node5"><a xlink:title=" ">
<polygon fill="none" stroke="#bfbfbf" points="690,-515.5 690,-534.5 728,-534.5 728,-515.5 690,-515.5"/>
<text text-anchor="middle" x="709" y="-522.5" font-family="Helvetica,sans-Serif" font-size="10.00">map</text>
</a>
</g>
</g>
<!-- Node3&#45;&gt;Node5 -->
<g id="edge4" class="edge">
<title>Node3&#45;&gt;Node5</title>
<path fill="none" stroke="midnightblue" d="M691.45,-571.4C694.62,-563.2 698.65,-552.78 702.04,-543.99"/>
<polygon fill="midnightblue" stroke="midnightblue" points="705.31,-545.25 705.65,-534.66 698.78,-542.72 705.31,-545.25"/>
</g>
<!-- Node6 -->
<g id="node6" class="node">
<title>Node6</title>
<g id="a_node6"><a xlink:href="std__types_8h.html" target="_top" xlink:title="Pre&#45;defined types.">
<polygon fill="none" stroke="black" points="327,-291.5 327,-310.5 419,-310.5 419,-291.5 327,-291.5"/>
<text text-anchor="middle" x="373" y="-298.5" font-family="Helvetica,sans-Serif" font-size="10.00">util/std_types.h</text>
</a>
</g>
</g>
<!-- Node3&#45;&gt;Node6 -->
<g id="edge5" class="edge">
<title>Node3&#45;&gt;Node6</title>
<path fill="none" stroke="midnightblue" d="M681.14,-571.47C674.13,-549.93 662,-507.27 662,-470 662,-470 662,-470 662,-412 662,-362.67 513.06,-327.48 429.02,-311.55"/>
<polygon fill="midnightblue" stroke="midnightblue" points="429.58,-308.09 419.11,-309.7 428.3,-314.97 429.58,-308.09"/>
</g>
<!-- Node45 -->
<g id="node26" class="node">
<title>Node45</title>
<g id="a_node26"><a xlink:href="bytecode__info_8h.html" target="_top" xlink:title=" ">
<polygon fill="none" stroke="black" points="746.5,-515.5 746.5,-534.5 841.5,-534.5 841.5,-515.5 746.5,-515.5"/>
<text text-anchor="middle" x="794" y="-522.5" font-family="Helvetica,sans-Serif" font-size="10.00">bytecode_info.h</text>
</a>
</g>
</g>
<!-- Node3&#45;&gt;Node45 -->
<g id="edge36" class="edge">
<title>Node3&#45;&gt;Node45</title>
<path fill="none" stroke="midnightblue" d="M711.59,-571.4C729.07,-561.77 752.09,-549.09 769.36,-539.58"/>
<polygon fill="midnightblue" stroke="midnightblue" points="771.22,-542.55 778.29,-534.66 767.84,-536.42 771.22,-542.55"/>
</g>
<!-- Node47 -->
<g id="node28" class="node">
<title>Node47</title>
<g id="a_node28"><a xlink:href="java__types_8h.html" target="_top" xlink:title=" ">
<polygon fill="none" stroke="black" points="231.5,-515.5 231.5,-534.5 310.5,-534.5 310.5,-515.5 231.5,-515.5"/>
<text text-anchor="middle" x="271" y="-522.5" font-family="Helvetica,sans-Serif" font-size="10.00">java_types.h</text>
</a>
</g>
</g>
<!-- Node3&#45;&gt;Node47 -->
<g id="edge38" class="edge">
<title>Node3&#45;&gt;Node47</title>
<path fill="none" stroke="midnightblue" d="M619.32,-575.94C535.95,-563.99 395.14,-543.8 320.65,-533.12"/>
<polygon fill="midnightblue" stroke="midnightblue" points="320.99,-529.63 310.6,-531.68 320,-536.56 320.99,-529.63"/>
</g>
<!-- Node7 -->
<g id="node7" class="node">
<title>Node7</title>
<g id="a_node7"><a xlink:href="expr_8h.html" target="_top" xlink:title=" ">
<polygon fill="none" stroke="black" points="426.5,-168.5 426.5,-187.5 473.5,-187.5 473.5,-168.5 426.5,-168.5"/>
<text text-anchor="middle" x="450" y="-175.5" font-family="Helvetica,sans-Serif" font-size="10.00">expr.h</text>
</a>
</g>
</g>
<!-- Node6&#45;&gt;Node7 -->
<g id="edge6" class="edge">
<title>Node6&#45;&gt;Node7</title>
<path fill="none" stroke="midnightblue" d="M408.85,-291.4C427.88,-284.81 449.63,-273.59 461,-255 471.73,-237.46 465.54,-213.47 458.92,-197.17"/>
<polygon fill="midnightblue" stroke="midnightblue" points="461.97,-195.41 454.68,-187.71 455.58,-198.27 461.97,-195.41"/>
</g>
<!-- Node35 -->
<g id="node13" class="node">
<title>Node35</title>
<g id="a_node13"><a xlink:href="validate_8h.html" target="_top" xlink:title=" ">
<polygon fill="none" stroke="red" points="191.5,-56.5 191.5,-75.5 256.5,-75.5 256.5,-56.5 191.5,-56.5"/>
<text text-anchor="middle" x="224" y="-63.5" font-family="Helvetica,sans-Serif" font-size="10.00">validate.h</text>
</a>
</g>
</g>
<!-- Node6&#45;&gt;Node35 -->
<g id="edge34" class="edge">
<title>Node6&#45;&gt;Node35</title>
<path fill="none" stroke="midnightblue" d="M326.67,-294.16C269.72,-284.07 176.6,-257.28 144,-188 124.58,-146.73 172.68,-103.29 202.49,-81.41"/>
<polygon fill="midnightblue" stroke="midnightblue" points="204.57,-84.22 210.69,-75.58 200.51,-78.52 204.57,-84.22"/>
</g>
<!-- Node41 -->
<g id="node19" class="node">
<title>Node41</title>
<g id="a_node19"><a xlink:href="expr__cast_8h.html" target="_top" xlink:title="Templated functions to cast to specific exprt&#45;derived classes.">
<polygon fill="none" stroke="black" points="234.5,-230 234.5,-249 307.5,-249 307.5,-230 234.5,-230"/>
<text text-anchor="middle" x="271" y="-237" font-family="Helvetica,sans-Serif" font-size="10.00">expr_cast.h</text>
</a>
</g>
</g>
<!-- Node6&#45;&gt;Node41 -->
<g id="edge21" class="edge">
<title>Node6&#45;&gt;Node41</title>
<path fill="none" stroke="midnightblue" d="M358.39,-291.48C341.65,-281.71 314,-265.58 294.28,-254.08"/>
<polygon fill="midnightblue" stroke="midnightblue" points="295.99,-251.02 285.59,-249.01 292.46,-257.07 295.99,-251.02"/>
</g>
<!-- Node15 -->
<g id="node21" class="node">
<title>Node15</title>
<g id="a_node21"><a xlink:href="src_2util_2invariant_8h.html" target="_top" xlink:title=" ">
<polygon fill="none" stroke="red" points="153.5,-168.5 153.5,-187.5 222.5,-187.5 222.5,-168.5 153.5,-168.5"/>
<text text-anchor="middle" x="188" y="-175.5" font-family="Helvetica,sans-Serif" font-size="10.00">invariant.h</text>
</a>
</g>
</g>
<!-- Node6&#45;&gt;Node15 -->
<g id="edge29" class="edge">
<title>Node6&#45;&gt;Node15</title>
<path fill="none" stroke="midnightblue" d="M389.63,-291.46C402.49,-283.84 419.34,-271.36 427,-255 432.84,-242.52 435.79,-234.61 427,-224 414.72,-209.19 298.79,-192.66 233.02,-184.37"/>
<polygon fill="midnightblue" stroke="midnightblue" points="233.27,-180.87 222.92,-183.11 232.41,-187.82 233.27,-180.87"/>
</g>
<!-- Node43 -->
<g id="node22" class="node">
<title>Node43</title>
<g id="a_node22"><a xlink:href="mp__arith_8h.html" target="_top" xlink:title=" ">
<polygon fill="none" stroke="black" points="606.5,-230 606.5,-249 675.5,-249 675.5,-230 606.5,-230"/>
<text text-anchor="middle" x="641" y="-237" font-family="Helvetica,sans-Serif" font-size="10.00">mp_arith.h</text>
</a>
</g>
</g>
<!-- Node6&#45;&gt;Node43 -->
<g id="edge30" class="edge">
<title>Node6&#45;&gt;Node43</title>
<path fill="none" stroke="midnightblue" d="M411.4,-291.48C460.25,-280.63 544.46,-261.93 596.19,-250.45"/>
<polygon fill="midnightblue" stroke="midnightblue" points="597.08,-253.84 606.08,-248.25 595.56,-247 597.08,-253.84"/>
</g>
<!-- Node26 -->
<g id="node25" class="node">
<title>Node26</title>
<g id="a_node25"><a xlink:title=" ">
<polygon fill="none" stroke="#bfbfbf" points="325.5,-230 325.5,-249 418.5,-249 418.5,-230 325.5,-230"/>
<text text-anchor="middle" x="372" y="-237" font-family="Helvetica,sans-Serif" font-size="10.00">unordered_map</text>
</a>
</g>
</g>
<!-- Node6&#45;&gt;Node26 -->
<g id="edge35" class="edge">
<title>Node6&#45;&gt;Node26</title>
<path fill="none" stroke="midnightblue" d="M372.86,-291.48C372.72,-283.08 372.5,-269.98 372.31,-259.16"/>
<polygon fill="midnightblue" stroke="midnightblue" points="375.81,-258.95 372.14,-249.01 368.81,-259.07 375.81,-258.95"/>
</g>
<!-- Node8 -->
<g id="node8" class="node">
<title>Node8</title>
<g id="a_node8"><a xlink:href="as__const_8h.html" target="_top" xlink:title=" ">
<polygon fill="none" stroke="black" points="378,-112.5 378,-131.5 446,-131.5 446,-112.5 378,-112.5"/>
<text text-anchor="middle" x="412" y="-119.5" font-family="Helvetica,sans-Serif" font-size="10.00">as_const.h</text>
</a>
</g>
</g>
<!-- Node7&#45;&gt;Node8 -->
<g id="edge7" class="edge">
<title>Node7&#45;&gt;Node8</title>
<path fill="none" stroke="midnightblue" d="M443.73,-168.08C438.36,-160.46 430.48,-149.26 423.92,-139.94"/>
<polygon fill="midnightblue" stroke="midnightblue" points="426.78,-137.91 418.16,-131.75 421.05,-141.94 426.78,-137.91"/>
</g>
<!-- Node9 -->
<g id="node9" class="node">
<title>Node9</title>
<g id="a_node9"><a xlink:href="type_8h.html" target="_top" xlink:title="Defines typet, type_with_subtypet and type_with_subtypest.">
<polygon fill="none" stroke="black" points="274.5,-112.5 274.5,-131.5 321.5,-131.5 321.5,-112.5 274.5,-112.5"/>
<text text-anchor="middle" x="298" y="-119.5" font-family="Helvetica,sans-Serif" font-size="10.00">type.h</text>
</a>
</g>
</g>
<!-- Node7&#45;&gt;Node9 -->
<g id="edge8" class="edge">
<title>Node7&#45;&gt;Node9</title>
<path fill="none" stroke="midnightblue" d="M426.25,-168.56C400.71,-159.49 359.9,-144.99 331.19,-134.79"/>
<polygon fill="midnightblue" stroke="midnightblue" points="332.18,-131.43 321.58,-131.38 329.83,-138.02 332.18,-131.43"/>
</g>
<!-- Node37 -->
<g id="node15" class="node">
<title>Node37</title>
<g id="a_node15"><a xlink:href="validation__mode_8h.html" target="_top" xlink:title=" ">
<polygon fill="none" stroke="black" points="231.5,-0.5 231.5,-19.5 338.5,-19.5 338.5,-0.5 231.5,-0.5"/>
<text text-anchor="middle" x="285" y="-7.5" font-family="Helvetica,sans-Serif" font-size="10.00">validation_mode.h</text>
</a>
</g>
</g>
<!-- Node7&#45;&gt;Node37 -->
<g id="edge19" class="edge">
<title>Node7&#45;&gt;Node37</title>
<path fill="none" stroke="midnightblue" d="M473.76,-176.42C528.94,-174.19 658.25,-163.49 620,-112 587.55,-68.32 436.45,-36.31 348.66,-21.03"/>
<polygon fill="midnightblue" stroke="midnightblue" points="348.99,-17.54 338.54,-19.29 347.81,-24.44 348.99,-17.54"/>
</g>
<!-- Node38 -->
<g id="node16" class="node">
<title>Node38</title>
<g id="a_node16"><a xlink:href="validate__types_8h.html" target="_top" xlink:title=" ">
<polygon fill="none" stroke="black" points="313,-56.5 313,-75.5 411,-75.5 411,-56.5 313,-56.5"/>
<text text-anchor="middle" x="362" y="-63.5" font-family="Helvetica,sans-Serif" font-size="10.00">validate_types.h</text>
</a>
</g>
</g>
<!-- Node7&#45;&gt;Node38 -->
<g id="edge18" class="edge">
<title>Node7&#45;&gt;Node38</title>
<path fill="none" stroke="midnightblue" d="M473.52,-175.4C524.7,-171.07 638.75,-156.28 602,-112 579.5,-84.88 485.01,-74.01 421.52,-69.72"/>
<polygon fill="midnightblue" stroke="midnightblue" points="421.42,-66.2 411.22,-69.06 420.98,-73.19 421.42,-66.2"/>
</g>
<!-- Node39 -->
<g id="node17" class="node">
<title>Node39</title>
<g id="a_node17"><a xlink:href="validate__expressions_8h.html" target="_top" xlink:title=" ">
<polygon fill="none" stroke="black" points="464.5,-112.5 464.5,-131.5 593.5,-131.5 593.5,-112.5 464.5,-112.5"/>
<text text-anchor="middle" x="529" y="-119.5" font-family="Helvetica,sans-Serif" font-size="10.00">validate_expressions.h</text>
</a>
</g>
</g>
<!-- Node7&#45;&gt;Node39 -->
<g id="edge17" class="edge">
<title>Node7&#45;&gt;Node39</title>
<path fill="none" stroke="midnightblue" d="M462.69,-168.32C474.9,-159.98 493.58,-147.21 508,-137.35"/>
<polygon fill="midnightblue" stroke="midnightblue" points="510.06,-140.19 516.34,-131.65 506.11,-134.41 510.06,-140.19"/>
</g>
<!-- Node40 -->
<g id="node18" class="node">
<title>Node40</title>
<g id="a_node18"><a xlink:title=" ">
<polygon fill="none" stroke="#bfbfbf" points="191.5,-112.5 191.5,-131.5 256.5,-131.5 256.5,-112.5 191.5,-112.5"/>
<text text-anchor="middle" x="224" y="-119.5" font-family="Helvetica,sans-Serif" font-size="10.00">functional</text>
</a>
</g>
</g>
<!-- Node7&#45;&gt;Node40 -->
<g id="edge20" class="edge">
<title>Node7&#45;&gt;Node40</title>
<path fill="none" stroke="midnightblue" d="M426.24,-171.32C388.44,-162.29 314.07,-144.52 266.81,-133.23"/>
<polygon fill="midnightblue" stroke="midnightblue" points="267.41,-129.77 256.87,-130.85 265.78,-136.58 267.41,-129.77"/>
</g>
<!-- Node10 -->
<g id="node10" class="node">
<title>Node10</title>
<g id="a_node10"><a xlink:href="source__location_8h.html" target="_top" xlink:title=" ">
<polygon fill="none" stroke="red" points="720,-56.5 720,-75.5 822,-75.5 822,-56.5 720,-56.5"/>
<text text-anchor="middle" x="771" y="-63.5" font-family="Helvetica,sans-Serif" font-size="10.00">source_location.h</text>
</a>
</g>
</g>
<!-- Node9&#45;&gt;Node10 -->
<g id="edge9" class="edge">
<title>Node9&#45;&gt;Node10</title>
<path fill="none" stroke="midnightblue" d="M321.66,-117.91C335.46,-116.13 353.21,-113.88 369,-112 489.63,-97.6 630.78,-82.12 709.65,-73.59"/>
<polygon fill="midnightblue" stroke="midnightblue" points="710.32,-77.03 719.89,-72.48 709.57,-70.07 710.32,-77.03"/>
</g>
<!-- Node9&#45;&gt;Node35 -->
<g id="edge12" class="edge">
<title>Node9&#45;&gt;Node35</title>
<path fill="none" stroke="midnightblue" d="M286.11,-112.32C274.85,-104.11 257.71,-91.6 244.29,-81.81"/>
<polygon fill="midnightblue" stroke="midnightblue" points="246.25,-78.9 236.11,-75.83 242.12,-84.56 246.25,-78.9"/>
</g>
<!-- Node9&#45;&gt;Node37 -->
<g id="edge16" class="edge">
<title>Node9&#45;&gt;Node37</title>
<path fill="none" stroke="midnightblue" d="M296.98,-112.37C294.88,-94.62 290.04,-53.67 287.2,-29.6"/>
<polygon fill="midnightblue" stroke="midnightblue" points="290.66,-29.11 286.02,-19.59 283.71,-29.93 290.66,-29.11"/>
</g>
<!-- Node9&#45;&gt;Node38 -->
<g id="edge15" class="edge">
<title>Node9&#45;&gt;Node38</title>
<path fill="none" stroke="midnightblue" d="M308.28,-112.32C317.84,-104.26 332.28,-92.08 343.78,-82.37"/>
<polygon fill="midnightblue" stroke="midnightblue" points="346.14,-84.96 351.53,-75.83 341.63,-79.61 346.14,-84.96"/>
</g>
<!-- Node11 -->
<g id="node11" class="node">
<title>Node11</title>
<g id="a_node11"><a xlink:href="deprecate_8h.html" target="_top" xlink:title=" ">
<polygon fill="none" stroke="black" points="773,-0.5 773,-19.5 847,-19.5 847,-0.5 773,-0.5"/>
<text text-anchor="middle" x="810" y="-7.5" font-family="Helvetica,sans-Serif" font-size="10.00">deprecate.h</text>
</a>
</g>
</g>
<!-- Node10&#45;&gt;Node11 -->
<g id="edge10" class="edge">
<title>Node10&#45;&gt;Node11</title>
<path fill="none" stroke="midnightblue" d="M777.44,-56.08C782.95,-48.46 791.03,-37.26 797.76,-27.94"/>
<polygon fill="midnightblue" stroke="midnightblue" points="800.66,-29.91 803.68,-19.75 794.99,-25.81 800.66,-29.91"/>
</g>
<!-- Node13 -->
<g id="node12" class="node">
<title>Node13</title>
<g id="a_node12"><a xlink:title=" ">
<polygon fill="none" stroke="#bfbfbf" points="710,-0.5 710,-19.5 754,-19.5 754,-0.5 710,-0.5"/>
<text text-anchor="middle" x="732" y="-7.5" font-family="Helvetica,sans-Serif" font-size="10.00">string</text>
</a>
</g>
</g>
<!-- Node10&#45;&gt;Node13 -->
<g id="edge11" class="edge">
<title>Node10&#45;&gt;Node13</title>
<path fill="none" stroke="midnightblue" d="M764.56,-56.08C759.05,-48.46 750.97,-37.26 744.24,-27.94"/>
<polygon fill="midnightblue" stroke="midnightblue" points="747.01,-25.81 738.32,-19.75 741.34,-29.91 747.01,-25.81"/>
</g>
<!-- Node18 -->
<g id="node14" class="node">
<title>Node18</title>
<g id="a_node14"><a xlink:title=" ">
<polygon fill="none" stroke="#bfbfbf" points="90.5,-0.5 90.5,-19.5 159.5,-19.5 159.5,-0.5 90.5,-0.5"/>
<text text-anchor="middle" x="125" y="-7.5" font-family="Helvetica,sans-Serif" font-size="10.00">type_traits</text>
</a>
</g>
</g>
<!-- Node35&#45;&gt;Node18 -->
<g id="edge13" class="edge">
<title>Node35&#45;&gt;Node18</title>
<path fill="none" stroke="midnightblue" d="M208.09,-56.32C192.36,-47.74 168.06,-34.49 149.79,-24.52"/>
<polygon fill="midnightblue" stroke="midnightblue" points="151.32,-21.37 140.87,-19.65 147.97,-27.52 151.32,-21.37"/>
</g>
<!-- Node35&#45;&gt;Node37 -->
<g id="edge14" class="edge">
<title>Node35&#45;&gt;Node37</title>
<path fill="none" stroke="midnightblue" d="M233.8,-56.32C242.82,-48.34 256.41,-36.31 267.32,-26.65"/>
<polygon fill="midnightblue" stroke="midnightblue" points="269.85,-29.08 275.02,-19.83 265.21,-23.84 269.85,-29.08"/>
</g>
<!-- Node41&#45;&gt;Node7 -->
<g id="edge28" class="edge">
<title>Node41&#45;&gt;Node7</title>
<path fill="none" stroke="midnightblue" d="M296.65,-229.98C328.23,-219.48 381.96,-201.62 416.7,-190.07"/>
<polygon fill="midnightblue" stroke="midnightblue" points="418.01,-193.32 426.4,-186.85 415.81,-186.68 418.01,-193.32"/>
</g>
<!-- Node41&#45;&gt;Node18 -->
<g id="edge23" class="edge">
<title>Node41&#45;&gt;Node18</title>
<path fill="none" stroke="midnightblue" d="M267.56,-229.96C261.63,-215.92 248.39,-187.56 231,-168 213.05,-147.8 199.17,-152.86 182,-132 174.97,-123.46 146.85,-60.65 132.91,-29.05"/>
<polygon fill="midnightblue" stroke="midnightblue" points="136.01,-27.4 128.78,-19.65 129.6,-30.22 136.01,-27.4"/>
</g>
<!-- Node41&#45;&gt;Node40 -->
<g id="edge24" class="edge">
<title>Node41&#45;&gt;Node40</title>
<path fill="none" stroke="midnightblue" d="M271.99,-229.82C273.19,-216.07 274.05,-188.71 265,-168 260.06,-156.7 251.11,-146.35 242.82,-138.43"/>
<polygon fill="midnightblue" stroke="midnightblue" points="245.02,-135.7 235.24,-131.64 240.35,-140.92 245.02,-135.7"/>
</g>
<!-- Node42 -->
<g id="node20" class="node">
<title>Node42</title>
<g id="a_node20"><a xlink:title=" ">
<polygon fill="none" stroke="#bfbfbf" points="317.5,-168.5 317.5,-187.5 374.5,-187.5 374.5,-168.5 317.5,-168.5"/>
<text text-anchor="middle" x="346" y="-175.5" font-family="Helvetica,sans-Serif" font-size="10.00">typeinfo</text>
</a>
</g>
</g>
<!-- Node41&#45;&gt;Node42 -->
<g id="edge22" class="edge">
<title>Node41&#45;&gt;Node42</title>
<path fill="none" stroke="midnightblue" d="M281.75,-229.98C293.55,-220.61 312.74,-205.38 327.08,-194.01"/>
<polygon fill="midnightblue" stroke="midnightblue" points="329.62,-196.47 335.27,-187.51 325.26,-190.98 329.62,-196.47"/>
</g>
<!-- Node41&#45;&gt;Node15 -->
<g id="edge25" class="edge">
<title>Node41&#45;&gt;Node15</title>
<path fill="none" stroke="midnightblue" d="M259.11,-229.98C245.8,-220.43 224,-204.81 208.04,-193.37"/>
<polygon fill="midnightblue" stroke="midnightblue" points="210.04,-190.49 199.87,-187.51 205.96,-196.18 210.04,-190.49"/>
</g>
<!-- Node15&#45;&gt;Node13 -->
<g id="edge26" class="edge">
<title>Node15&#45;&gt;Node13</title>
<path fill="none" stroke="midnightblue" d="M220.12,-168.48C249.26,-160.36 293.17,-147.16 330,-132 348.01,-124.59 350.86,-119.09 369,-112 487.6,-65.64 635.72,-31.39 699.9,-17.63"/>
<polygon fill="midnightblue" stroke="midnightblue" points="700.76,-21.03 709.81,-15.53 699.3,-14.18 700.76,-21.03"/>
</g>
<!-- Node15&#45;&gt;Node18 -->
<g id="edge27" class="edge">
<title>Node15&#45;&gt;Node18</title>
<path fill="none" stroke="midnightblue" d="M178.04,-168.4C169.02,-160.03 156.09,-146.49 149,-132 132.59,-98.45 127.4,-54.46 125.76,-29.82"/>
<polygon fill="midnightblue" stroke="midnightblue" points="129.25,-29.49 125.22,-19.69 122.26,-29.87 129.25,-29.49"/>
</g>
<!-- Node43&#45;&gt;Node13 -->
<g id="edge32" class="edge">
<title>Node43&#45;&gt;Node13</title>
<path fill="none" stroke="midnightblue" d="M649.22,-229.93C657.88,-220.42 671.31,-204.27 679,-188 704.79,-133.42 691.03,-112.97 711,-56 714.24,-46.75 718.75,-36.83 722.76,-28.67"/>
<polygon fill="midnightblue" stroke="midnightblue" points="725.88,-30.25 727.28,-19.75 719.64,-27.08 725.88,-30.25"/>
</g>
<!-- Node21 -->
<g id="node23" class="node">
<title>Node21</title>
<g id="a_node23"><a xlink:title=" ">
<polygon fill="none" stroke="#bfbfbf" points="737,-168.5 737,-187.5 785,-187.5 785,-168.5 737,-168.5"/>
<text text-anchor="middle" x="761" y="-175.5" font-family="Helvetica,sans-Serif" font-size="10.00">iosfwd</text>
</a>
</g>
</g>
<!-- Node43&#45;&gt;Node21 -->
<g id="edge31" class="edge">
<title>Node43&#45;&gt;Node21</title>
<path fill="none" stroke="midnightblue" d="M658.19,-229.98C678.24,-220.03 711.6,-203.49 734.86,-191.96"/>
<polygon fill="midnightblue" stroke="midnightblue" points="736.43,-195.09 743.84,-187.51 733.32,-188.82 736.43,-195.09"/>
</g>
<!-- Node44 -->
<g id="node24" class="node">
<title>Node44</title>
<g id="a_node24"><a xlink:title=" ">
<polygon fill="none" stroke="#bfbfbf" points="576,-168.5 576,-187.5 670,-187.5 670,-168.5 576,-168.5"/>
<text text-anchor="middle" x="623" y="-175.5" font-family="Helvetica,sans-Serif" font-size="10.00">big&#45;int/bigint.hh</text>
</a>
</g>
</g>
<!-- Node43&#45;&gt;Node44 -->
<g id="edge33" class="edge">
<title>Node43&#45;&gt;Node44</title>
<path fill="none" stroke="midnightblue" d="M638.42,-229.98C635.85,-221.49 631.83,-208.2 628.54,-197.32"/>
<polygon fill="midnightblue" stroke="midnightblue" points="631.82,-196.07 625.57,-187.51 625.12,-198.09 631.82,-196.07"/>
</g>
<!-- Node46 -->
<g id="node27" class="node">
<title>Node46</title>
<g id="a_node27"><a xlink:title=" ">
<polygon fill="none" stroke="#bfbfbf" points="769,-459.5 769,-478.5 819,-478.5 819,-459.5 769,-459.5"/>
<text text-anchor="middle" x="794" y="-466.5" font-family="Helvetica,sans-Serif" font-size="10.00">cstdint</text>
</a>
</g>
</g>
<!-- Node45&#45;&gt;Node46 -->
<g id="edge37" class="edge">
<title>Node45&#45;&gt;Node46</title>
<path fill="none" stroke="midnightblue" d="M794,-515.08C794,-508.01 794,-497.86 794,-488.99"/>
<polygon fill="midnightblue" stroke="midnightblue" points="797.5,-488.75 794,-478.75 790.5,-488.75 797.5,-488.75"/>
</g>
<!-- Node47&#45;&gt;Node4 -->
<g id="edge41" class="edge">
<title>Node47&#45;&gt;Node4</title>
<path fill="none" stroke="midnightblue" d="M304.28,-515.44C346.14,-504.68 417.14,-486.42 455.15,-476.65"/>
<polygon fill="midnightblue" stroke="midnightblue" points="456.14,-480.01 464.95,-474.13 454.39,-473.23 456.14,-480.01"/>
</g>
<!-- Node47&#45;&gt;Node15 -->
<g id="edge39" class="edge">
<title>Node47&#45;&gt;Node15</title>
<path fill="none" stroke="midnightblue" d="M241.1,-515.45C199.71,-501.56 130,-469.89 130,-414 130,-414 130,-414 130,-300 130,-259.46 156.8,-218.12 173.97,-195.81"/>
<polygon fill="midnightblue" stroke="midnightblue" points="176.92,-197.72 180.42,-187.72 171.45,-193.35 176.92,-197.72"/>
</g>
<!-- Node31 -->
<g id="node29" class="node">
<title>Node31</title>
<g id="a_node29"><a xlink:title=" ">
<polygon fill="none" stroke="#bfbfbf" points="0,-459.5 0,-478.5 64,-478.5 64,-459.5 0,-459.5"/>
<text text-anchor="middle" x="32" y="-466.5" font-family="Helvetica,sans-Serif" font-size="10.00">algorithm</text>
</a>
</g>
</g>
<!-- Node47&#45;&gt;Node31 -->
<g id="edge40" class="edge">
<title>Node47&#45;&gt;Node31</title>
<path fill="none" stroke="midnightblue" d="M233.13,-515.44C189.9,-505.68 119.38,-489.74 74.36,-479.57"/>
<polygon fill="midnightblue" stroke="midnightblue" points="74.85,-476.09 64.33,-477.3 73.31,-482.92 74.85,-476.09"/>
</g>
<!-- Node48 -->
<g id="node30" class="node">
<title>Node48</title>
<g id="a_node30"><a xlink:href="c__types_8h.html" target="_top" xlink:title=" ">
<polygon fill="none" stroke="black" points="316,-459.5 316,-478.5 398,-478.5 398,-459.5 316,-459.5"/>
<text text-anchor="middle" x="357" y="-466.5" font-family="Helvetica,sans-Serif" font-size="10.00">util/c_types.h</text>
</a>
</g>
</g>
<!-- Node47&#45;&gt;Node48 -->
<g id="edge42" class="edge">
<title>Node47&#45;&gt;Node48</title>
<path fill="none" stroke="midnightblue" d="M284.82,-515.32C298.23,-506.9 318.82,-493.97 334.59,-484.07"/>
<polygon fill="midnightblue" stroke="midnightblue" points="336.61,-486.94 343.22,-478.65 332.89,-481.01 336.61,-486.94"/>
</g>
<!-- Node51 -->
<g id="node33" class="node">
<title>Node51</title>
<g id="a_node33"><a xlink:href="std__expr_8h.html" target="_top" xlink:title="API to expression classes.">
<polygon fill="none" stroke="black" points="237.5,-347.5 237.5,-366.5 304.5,-366.5 304.5,-347.5 237.5,-347.5"/>
<text text-anchor="middle" x="271" y="-354.5" font-family="Helvetica,sans-Serif" font-size="10.00">std_expr.h</text>
</a>
</g>
</g>
<!-- Node47&#45;&gt;Node51 -->
<g id="edge54" class="edge">
<title>Node47&#45;&gt;Node51</title>
<path fill="none" stroke="midnightblue" d="M271,-515.08C271,-488.95 271,-412.21 271,-376.58"/>
<polygon fill="midnightblue" stroke="midnightblue" points="274.5,-376.57 271,-366.57 267.5,-376.57 274.5,-376.57"/>
</g>
<!-- Node33 -->
<g id="node34" class="node">
<title>Node33</title>
<g id="a_node34"><a xlink:href="narrow_8h.html" target="_top" xlink:title=" ">
<polygon fill="none" stroke="black" points="42.5,-230 42.5,-249 101.5,-249 101.5,-230 42.5,-230"/>
<text text-anchor="middle" x="72" y="-237" font-family="Helvetica,sans-Serif" font-size="10.00">narrow.h</text>
</a>
</g>
</g>
<!-- Node47&#45;&gt;Node33 -->
<g id="edge51" class="edge">
<title>Node47&#45;&gt;Node33</title>
<path fill="none" stroke="midnightblue" d="M231.49,-522.23C196.93,-518.65 147.48,-508.31 116,-479 93.46,-458.01 92,-444.8 92,-414 92,-414 92,-414 92,-356 92,-321.36 83.16,-281.71 77.23,-259.04"/>
<polygon fill="midnightblue" stroke="midnightblue" points="80.53,-257.84 74.53,-249.11 73.78,-259.67 80.53,-257.84"/>
</g>
<!-- Node48&#45;&gt;Node11 -->
<g id="edge43" class="edge">
<title>Node48&#45;&gt;Node11</title>
<path fill="none" stroke="midnightblue" d="M378.12,-459.5C473.12,-421.21 856.59,-266.14 864,-255 913.09,-181.13 884.39,-137.33 849,-56 844.24,-45.05 835.83,-34.82 828.04,-26.89"/>
<polygon fill="midnightblue" stroke="midnightblue" points="830.26,-24.17 820.62,-19.79 825.42,-29.23 830.26,-24.17"/>
</g>
<!-- Node49 -->
<g id="node31" class="node">
<title>Node49</title>
<g id="a_node31"><a xlink:href="pointer__expr_8h.html" target="_top" xlink:title="API to expression classes for Pointers.">
<polygon fill="none" stroke="black" points="314,-403.5 314,-422.5 400,-422.5 400,-403.5 314,-403.5"/>
<text text-anchor="middle" x="357" y="-410.5" font-family="Helvetica,sans-Serif" font-size="10.00">pointer_expr.h</text>
</a>
</g>
</g>
<!-- Node48&#45;&gt;Node49 -->
<g id="edge44" class="edge">
<title>Node48&#45;&gt;Node49</title>
<path fill="none" stroke="midnightblue" d="M357,-459.08C357,-452.01 357,-441.86 357,-432.99"/>
<polygon fill="midnightblue" stroke="midnightblue" points="360.5,-432.75 357,-422.75 353.5,-432.75 360.5,-432.75"/>
</g>
<!-- Node50 -->
<g id="node32" class="node">
<title>Node50</title>
<g id="a_node32"><a xlink:href="bitvector__types_8h.html" target="_top" xlink:title="Pre&#45;defined bitvector types.">
<polygon fill="none" stroke="black" points="322.5,-347.5 322.5,-366.5 423.5,-366.5 423.5,-347.5 322.5,-347.5"/>
<text text-anchor="middle" x="373" y="-354.5" font-family="Helvetica,sans-Serif" font-size="10.00">bitvector_types.h</text>
</a>
</g>
</g>
<!-- Node49&#45;&gt;Node50 -->
<g id="edge45" class="edge">
<title>Node49&#45;&gt;Node50</title>
<path fill="none" stroke="midnightblue" d="M359.64,-403.08C361.79,-395.85 364.88,-385.41 367.55,-376.4"/>
<polygon fill="midnightblue" stroke="midnightblue" points="370.92,-377.33 370.41,-366.75 364.21,-375.34 370.92,-377.33"/>
</g>
<!-- Node49&#45;&gt;Node51 -->
<g id="edge47" class="edge">
<title>Node49&#45;&gt;Node51</title>
<path fill="none" stroke="midnightblue" d="M343.18,-403.32C329.77,-394.9 309.18,-381.97 293.41,-372.07"/>
<polygon fill="midnightblue" stroke="midnightblue" points="295.11,-369.01 284.78,-366.65 291.39,-374.94 295.11,-369.01"/>
</g>
<!-- Node50&#45;&gt;Node6 -->
<g id="edge46" class="edge">
<title>Node50&#45;&gt;Node6</title>
<path fill="none" stroke="midnightblue" d="M373,-347.08C373,-340.01 373,-329.86 373,-320.99"/>
<polygon fill="midnightblue" stroke="midnightblue" points="376.5,-320.75 373,-310.75 369.5,-320.75 376.5,-320.75"/>
</g>
<!-- Node51&#45;&gt;Node6 -->
<g id="edge50" class="edge">
<title>Node51&#45;&gt;Node6</title>
<path fill="none" stroke="midnightblue" d="M287.39,-347.32C303.67,-338.7 328.87,-325.36 347.72,-315.39"/>
<polygon fill="midnightblue" stroke="midnightblue" points="349.45,-318.43 356.65,-310.65 346.18,-312.24 349.45,-318.43"/>
</g>
<!-- Node51&#45;&gt;Node41 -->
<g id="edge48" class="edge">
<title>Node51&#45;&gt;Node41</title>
<path fill="none" stroke="midnightblue" d="M271,-347.32C271,-328.76 271,-284.84 271,-259.47"/>
<polygon fill="midnightblue" stroke="midnightblue" points="274.5,-259.28 271,-249.28 267.5,-259.28 274.5,-259.28"/>
</g>
<!-- Node51&#45;&gt;Node15 -->
<g id="edge49" class="edge">
<title>Node51&#45;&gt;Node15</title>
<path fill="none" stroke="midnightblue" d="M267,-347.46C254.21,-320.19 214.16,-234.78 196.5,-197.13"/>
<polygon fill="midnightblue" stroke="midnightblue" points="199.57,-195.44 192.16,-187.87 193.24,-198.41 199.57,-195.44"/>
</g>
<!-- Node33&#45;&gt;Node18 -->
<g id="edge52" class="edge">
<title>Node33&#45;&gt;Node18</title>
<path fill="none" stroke="midnightblue" d="M74.01,-229.86C81.77,-196.57 109.82,-76.15 120.67,-29.57"/>
<polygon fill="midnightblue" stroke="midnightblue" points="124.12,-30.18 122.99,-19.65 117.31,-28.59 124.12,-30.18"/>
</g>
<!-- Node33&#45;&gt;Node15 -->
<g id="edge53" class="edge">
<title>Node33&#45;&gt;Node15</title>
<path fill="none" stroke="midnightblue" d="M88.62,-229.98C107.92,-220.08 139.96,-203.64 162.43,-192.12"/>
<polygon fill="midnightblue" stroke="midnightblue" points="164.11,-195.19 171.41,-187.51 160.92,-188.96 164.11,-195.19"/>
</g>
<!-- Node53 -->
<g id="node36" class="node">
<title>Node53</title>
<g id="a_node36"><a xlink:title=" ">
<polygon fill="none" stroke="#bfbfbf" points="911.5,-230 911.5,-249 1004.5,-249 1004.5,-230 911.5,-230"/>
<text text-anchor="middle" x="958" y="-237" font-family="Helvetica,sans-Serif" font-size="10.00">catch/catch.hpp</text>
</a>
</g>
</g>
<!-- Node52&#45;&gt;Node53 -->
<g id="edge56" class="edge">
<title>Node52&#45;&gt;Node53</title>
<path fill="none" stroke="midnightblue" d="M882.61,-291.48C896.72,-281.93 919.83,-266.31 936.75,-254.87"/>
<polygon fill="midnightblue" stroke="midnightblue" points="939.09,-257.51 945.42,-249.01 935.17,-251.71 939.09,-257.51"/>
</g>
<!-- Node54 -->
<g id="node37" class="node">
<title>Node54</title>
<g id="a_node37"><a xlink:href="smt__to__smt2__string_8h.html" target="_top" xlink:title="Streaming SMT data structures to a string based output stream.">
<polygon fill="none" stroke="black" points="711.5,-224.5 711.5,-254.5 854.5,-254.5 854.5,-224.5 711.5,-224.5"/>
<text text-anchor="start" x="719.5" y="-242.5" font-family="Helvetica,sans-Serif" font-size="10.00">solvers/smt2_incremental</text>
<text text-anchor="middle" x="783" y="-231.5" font-family="Helvetica,sans-Serif" font-size="10.00">/smt_to_smt2_string.h</text>
</a>
</g>
</g>
<!-- Node52&#45;&gt;Node54 -->
<g id="edge57" class="edge">
<title>Node52&#45;&gt;Node54</title>
<path fill="none" stroke="midnightblue" d="M857.54,-291.48C845.64,-283.34 827.29,-270.79 811.77,-260.18"/>
<polygon fill="midnightblue" stroke="midnightblue" points="813.73,-257.28 803.5,-254.52 809.78,-263.06 813.73,-257.28"/>
</g>
<!-- Node54&#45;&gt;Node13 -->
<g id="edge59" class="edge">
<title>Node54&#45;&gt;Node13</title>
<path fill="none" stroke="midnightblue" d="M793.98,-224.03C817.22,-191.49 866.47,-111.09 831,-56 823.21,-43.9 789.56,-30.24 763.63,-21.18"/>
<polygon fill="midnightblue" stroke="midnightblue" points="764.74,-17.86 754.14,-17.95 762.48,-24.49 764.74,-17.86"/>
</g>
<!-- Node54&#45;&gt;Node21 -->
<g id="edge58" class="edge">
<title>Node54&#45;&gt;Node21</title>
<path fill="none" stroke="midnightblue" d="M777.79,-224.4C774.79,-216.29 770.99,-206.01 767.76,-197.28"/>
<polygon fill="midnightblue" stroke="midnightblue" points="770.95,-195.82 764.2,-187.66 764.39,-198.25 770.95,-195.82"/>
</g>
</g>
</svg>
