<?xml version="1.0" encoding="UTF-8" standalone="no"?>
<!DOCTYPE svg PUBLIC "-//W3C//DTD SVG 1.1//EN"
 "http://www.w3.org/Graphics/SVG/1.1/DTD/svg11.dtd">
<!-- Generated by graphviz version 2.43.0 (0)
 -->
<!-- Title: /home/runner/work/cbmc/cbmc/src/solvers/sat/satcheck_minisat.h Pages: 1 -->
<svg width="764pt" height="554pt"
 viewBox="0.00 0.00 763.97 554.00" xmlns="http://www.w3.org/2000/svg" xmlns:xlink="http://www.w3.org/1999/xlink">
<g id="graph0" class="graph" transform="scale(1 1) rotate(0) translate(4 550)">
<title>/home/runner/work/cbmc/cbmc/src/solvers/sat/satcheck_minisat.h</title>
<!-- Node1 -->
<g id="node1" class="node">
<title>Node1</title>
<g id="a_node1"><a xlink:title=" ">
<polygon fill="#bfbfbf" stroke="black" points="11,-504.5 11,-545.5 149,-545.5 149,-504.5 11,-504.5"/>
<text text-anchor="start" x="19" y="-533.5" font-family="Helvetica,sans-Serif" font-size="10.00">/home/runner/work/cbmc</text>
<text text-anchor="start" x="19" y="-522.5" font-family="Helvetica,sans-Serif" font-size="10.00">/cbmc/src/solvers/sat</text>
<text text-anchor="middle" x="80" y="-511.5" font-family="Helvetica,sans-Serif" font-size="10.00">/satcheck_minisat.h</text>
</a>
</g>
</g>
<!-- Node2 -->
<g id="node2" class="node">
<title>Node2</title>
<g id="a_node2"><a xlink:title=" ">
<polygon fill="none" stroke="#bfbfbf" points="27.5,-168.5 27.5,-187.5 74.5,-187.5 74.5,-168.5 27.5,-168.5"/>
<text text-anchor="middle" x="51" y="-175.5" font-family="Helvetica,sans-Serif" font-size="10.00">vector</text>
</a>
</g>
</g>
<!-- Node1&#45;&gt;Node2 -->
<g id="edge1" class="edge">
<title>Node1&#45;&gt;Node2</title>
<path fill="none" stroke="midnightblue" d="M56.43,-504.35C32.83,-482.34 0,-444.3 0,-403 0,-403 0,-403 0,-289 0,-253.24 22.45,-216.51 37.56,-195.84"/>
<polygon fill="midnightblue" stroke="midnightblue" points="40.43,-197.85 43.69,-187.77 34.86,-193.61 40.43,-197.85"/>
</g>
<!-- Node3 -->
<g id="node3" class="node">
<title>Node3</title>
<g id="a_node3"><a xlink:href="cnf_8h.html" target="_top" xlink:title=" ">
<polygon fill="none" stroke="black" points="146,-448.5 146,-467.5 186,-467.5 186,-448.5 146,-448.5"/>
<text text-anchor="middle" x="166" y="-455.5" font-family="Helvetica,sans-Serif" font-size="10.00">cnf.h</text>
</a>
</g>
</g>
<!-- Node1&#45;&gt;Node3 -->
<g id="edge2" class="edge">
<title>Node1&#45;&gt;Node3</title>
<path fill="none" stroke="midnightblue" d="M105.8,-504.5C118.86,-494.63 134.45,-482.84 146.5,-473.74"/>
<polygon fill="midnightblue" stroke="midnightblue" points="148.68,-476.47 154.55,-467.65 144.46,-470.89 148.68,-476.47"/>
</g>
<!-- Node35 -->
<g id="node23" class="node">
<title>Node35</title>
<g id="a_node23"><a xlink:href="resolution__proof_8h.html" target="_top" xlink:title=" ">
<polygon fill="none" stroke="black" points="28,-392.5 28,-411.5 132,-411.5 132,-392.5 28,-392.5"/>
<text text-anchor="middle" x="80" y="-399.5" font-family="Helvetica,sans-Serif" font-size="10.00">resolution_proof.h</text>
</a>
</g>
</g>
<!-- Node1&#45;&gt;Node35 -->
<g id="edge35" class="edge">
<title>Node1&#45;&gt;Node35</title>
<path fill="none" stroke="midnightblue" d="M80,-504.29C80,-481.48 80,-444.19 80,-421.78"/>
<polygon fill="midnightblue" stroke="midnightblue" points="83.5,-421.57 80,-411.57 76.5,-421.57 83.5,-421.57"/>
</g>
<!-- Node4 -->
<g id="node4" class="node">
<title>Node4</title>
<g id="a_node4"><a xlink:href="prop_8h.html" target="_top" xlink:title=" ">
<polygon fill="none" stroke="black" points="150,-392.5 150,-411.5 260,-411.5 260,-392.5 150,-392.5"/>
<text text-anchor="middle" x="205" y="-399.5" font-family="Helvetica,sans-Serif" font-size="10.00">solvers/prop/prop.h</text>
</a>
</g>
</g>
<!-- Node3&#45;&gt;Node4 -->
<g id="edge3" class="edge">
<title>Node3&#45;&gt;Node4</title>
<path fill="none" stroke="midnightblue" d="M172.44,-448.08C177.95,-440.46 186.03,-429.26 192.76,-419.94"/>
<polygon fill="midnightblue" stroke="midnightblue" points="195.66,-421.91 198.68,-411.75 189.99,-417.81 195.66,-421.91"/>
</g>
<!-- Node5 -->
<g id="node5" class="node">
<title>Node5</title>
<g id="a_node5"><a xlink:href="src_2util_2message_8h.html" target="_top" xlink:title=" ">
<polygon fill="none" stroke="black" points="346.5,-336.5 346.5,-355.5 435.5,-355.5 435.5,-336.5 346.5,-336.5"/>
<text text-anchor="middle" x="391" y="-343.5" font-family="Helvetica,sans-Serif" font-size="10.00">util/message.h</text>
</a>
</g>
</g>
<!-- Node4&#45;&gt;Node5 -->
<g id="edge4" class="edge">
<title>Node4&#45;&gt;Node5</title>
<path fill="none" stroke="midnightblue" d="M234.47,-392.44C266.17,-383.24 316.73,-368.56 351.77,-358.39"/>
<polygon fill="midnightblue" stroke="midnightblue" points="353.04,-361.67 361.67,-355.52 351.09,-354.94 353.04,-361.67"/>
</g>
<!-- Node33 -->
<g id="node21" class="node">
<title>Node33</title>
<g id="a_node21"><a xlink:href="threeval_8h.html" target="_top" xlink:title=" ">
<polygon fill="none" stroke="black" points="161.5,-336.5 161.5,-355.5 246.5,-355.5 246.5,-336.5 161.5,-336.5"/>
<text text-anchor="middle" x="204" y="-343.5" font-family="Helvetica,sans-Serif" font-size="10.00">util/threeval.h</text>
</a>
</g>
</g>
<!-- Node4&#45;&gt;Node33 -->
<g id="edge29" class="edge">
<title>Node4&#45;&gt;Node33</title>
<path fill="none" stroke="midnightblue" d="M204.83,-392.08C204.7,-385.01 204.52,-374.86 204.35,-365.99"/>
<polygon fill="midnightblue" stroke="midnightblue" points="207.85,-365.68 204.16,-355.75 200.85,-365.81 207.85,-365.68"/>
</g>
<!-- Node34 -->
<g id="node22" class="node">
<title>Node34</title>
<g id="a_node22"><a xlink:href="literal_8h.html" target="_top" xlink:title=" ">
<polygon fill="none" stroke="black" points="88,-336.5 88,-355.5 142,-355.5 142,-336.5 88,-336.5"/>
<text text-anchor="middle" x="115" y="-343.5" font-family="Helvetica,sans-Serif" font-size="10.00">literal.h</text>
</a>
</g>
</g>
<!-- Node4&#45;&gt;Node34 -->
<g id="edge31" class="edge">
<title>Node4&#45;&gt;Node34</title>
<path fill="none" stroke="midnightblue" d="M190.54,-392.32C176.5,-383.9 154.95,-370.97 138.46,-361.07"/>
<polygon fill="midnightblue" stroke="midnightblue" points="139.8,-357.8 129.42,-355.65 136.2,-363.8 139.8,-357.8"/>
</g>
<!-- Node6 -->
<g id="node6" class="node">
<title>Node6</title>
<g id="a_node6"><a xlink:title=" ">
<polygon fill="none" stroke="#bfbfbf" points="661.5,-280.5 661.5,-299.5 726.5,-299.5 726.5,-280.5 661.5,-280.5"/>
<text text-anchor="middle" x="694" y="-287.5" font-family="Helvetica,sans-Serif" font-size="10.00">functional</text>
</a>
</g>
</g>
<!-- Node5&#45;&gt;Node6 -->
<g id="edge5" class="edge">
<title>Node5&#45;&gt;Node6</title>
<path fill="none" stroke="midnightblue" d="M435.89,-337.32C487.04,-328.52 573.1,-313.57 647,-300 648.46,-299.73 649.94,-299.46 651.43,-299.18"/>
<polygon fill="midnightblue" stroke="midnightblue" points="652.21,-302.6 661.4,-297.31 650.92,-295.72 652.21,-302.6"/>
</g>
<!-- Node7 -->
<g id="node7" class="node">
<title>Node7</title>
<g id="a_node7"><a xlink:title=" ">
<polygon fill="none" stroke="#bfbfbf" points="143,-280.5 143,-299.5 191,-299.5 191,-280.5 143,-280.5"/>
<text text-anchor="middle" x="167" y="-287.5" font-family="Helvetica,sans-Serif" font-size="10.00">iosfwd</text>
</a>
</g>
</g>
<!-- Node5&#45;&gt;Node7 -->
<g id="edge6" class="edge">
<title>Node5&#45;&gt;Node7</title>
<path fill="none" stroke="midnightblue" d="M355.51,-336.44C313.2,-326.24 243,-309.32 201.25,-299.26"/>
<polygon fill="midnightblue" stroke="midnightblue" points="201.82,-295.79 191.28,-296.85 200.18,-302.6 201.82,-295.79"/>
</g>
<!-- Node8 -->
<g id="node8" class="node">
<title>Node8</title>
<g id="a_node8"><a xlink:title=" ">
<polygon fill="none" stroke="#bfbfbf" points="613,-0.5 613,-19.5 669,-19.5 669,-0.5 613,-0.5"/>
<text text-anchor="middle" x="641" y="-7.5" font-family="Helvetica,sans-Serif" font-size="10.00">sstream</text>
</a>
</g>
</g>
<!-- Node5&#45;&gt;Node8 -->
<g id="edge7" class="edge">
<title>Node5&#45;&gt;Node8</title>
<path fill="none" stroke="midnightblue" d="M435.68,-345.05C518.57,-344.22 691.78,-337.86 736,-300 758.86,-280.43 755,-265.1 755,-235 755,-235 755,-235 755,-121 755,-74.11 704.45,-40.89 670.67,-23.93"/>
<polygon fill="midnightblue" stroke="midnightblue" points="672.17,-20.77 661.64,-19.58 669.13,-27.07 672.17,-20.77"/>
</g>
<!-- Node9 -->
<g id="node9" class="node">
<title>Node9</title>
<g id="a_node9"><a xlink:title=" ">
<polygon fill="none" stroke="#bfbfbf" points="505,-0.5 505,-19.5 549,-19.5 549,-0.5 505,-0.5"/>
<text text-anchor="middle" x="527" y="-7.5" font-family="Helvetica,sans-Serif" font-size="10.00">string</text>
</a>
</g>
</g>
<!-- Node5&#45;&gt;Node9 -->
<g id="edge8" class="edge">
<title>Node5&#45;&gt;Node9</title>
<path fill="none" stroke="midnightblue" d="M435.69,-339.57C515.67,-327.1 675,-288.51 675,-179 675,-179 675,-179 675,-121 675,-63.65 602.53,-32.7 559.01,-19.28"/>
<polygon fill="midnightblue" stroke="midnightblue" points="559.74,-15.85 549.16,-16.39 557.77,-22.57 559.74,-15.85"/>
</g>
<!-- Node10 -->
<g id="node10" class="node">
<title>Node10</title>
<g id="a_node10"><a xlink:href="deprecate_8h.html" target="_top" xlink:title=" ">
<polygon fill="none" stroke="black" points="315,-224.5 315,-243.5 389,-243.5 389,-224.5 315,-224.5"/>
<text text-anchor="middle" x="352" y="-231.5" font-family="Helvetica,sans-Serif" font-size="10.00">deprecate.h</text>
</a>
</g>
</g>
<!-- Node5&#45;&gt;Node10 -->
<g id="edge9" class="edge">
<title>Node5&#45;&gt;Node10</title>
<path fill="none" stroke="midnightblue" d="M386.66,-336.18C382.34,-327.21 375.71,-312.84 371,-300 365.31,-284.48 360.14,-266.39 356.63,-253.25"/>
<polygon fill="midnightblue" stroke="midnightblue" points="360.01,-252.33 354.1,-243.53 353.23,-254.09 360.01,-252.33"/>
</g>
<!-- Node11 -->
<g id="node11" class="node">
<title>Node11</title>
<g id="a_node11"><a xlink:href="src_2util_2invariant_8h.html" target="_top" xlink:title=" ">
<polygon fill="none" stroke="black" points="343.5,-56.5 343.5,-75.5 412.5,-75.5 412.5,-56.5 343.5,-56.5"/>
<text text-anchor="middle" x="378" y="-63.5" font-family="Helvetica,sans-Serif" font-size="10.00">invariant.h</text>
</a>
</g>
</g>
<!-- Node5&#45;&gt;Node11 -->
<g id="edge10" class="edge">
<title>Node5&#45;&gt;Node11</title>
<path fill="none" stroke="midnightblue" d="M368.84,-336.43C323.66,-317.58 221.85,-267.78 182,-188 148.94,-121.82 266.02,-88.1 333.51,-74.49"/>
<polygon fill="midnightblue" stroke="midnightblue" points="334.33,-77.89 343.48,-72.55 333,-71.02 334.33,-77.89"/>
</g>
<!-- Node14 -->
<g id="node14" class="node">
<title>Node14</title>
<g id="a_node14"><a xlink:href="source__location_8h.html" target="_top" xlink:title=" ">
<polygon fill="none" stroke="black" points="380,-280.5 380,-299.5 482,-299.5 482,-280.5 380,-280.5"/>
<text text-anchor="middle" x="431" y="-287.5" font-family="Helvetica,sans-Serif" font-size="10.00">source_location.h</text>
</a>
</g>
</g>
<!-- Node5&#45;&gt;Node14 -->
<g id="edge15" class="edge">
<title>Node5&#45;&gt;Node14</title>
<path fill="none" stroke="midnightblue" d="M397.61,-336.08C403.26,-328.46 411.54,-317.26 418.45,-307.94"/>
<polygon fill="midnightblue" stroke="midnightblue" points="421.38,-309.87 424.52,-299.75 415.75,-305.7 421.38,-309.87"/>
</g>
<!-- Node11&#45;&gt;Node8 -->
<g id="edge12" class="edge">
<title>Node11&#45;&gt;Node8</title>
<path fill="none" stroke="midnightblue" d="M412.65,-57.88C461.85,-47.78 551.63,-29.35 602.73,-18.86"/>
<polygon fill="midnightblue" stroke="midnightblue" points="603.62,-22.25 612.71,-16.81 602.21,-15.39 603.62,-22.25"/>
</g>
<!-- Node11&#45;&gt;Node9 -->
<g id="edge13" class="edge">
<title>Node11&#45;&gt;Node9</title>
<path fill="none" stroke="midnightblue" d="M401.61,-56.44C426.9,-47.28 467.17,-32.68 495.22,-22.52"/>
<polygon fill="midnightblue" stroke="midnightblue" points="496.75,-25.69 504.96,-18.99 494.36,-19.11 496.75,-25.69"/>
</g>
<!-- Node12 -->
<g id="node12" class="node">
<title>Node12</title>
<g id="a_node12"><a xlink:title=" ">
<polygon fill="none" stroke="#bfbfbf" points="353.5,-0.5 353.5,-19.5 402.5,-19.5 402.5,-0.5 353.5,-0.5"/>
<text text-anchor="middle" x="378" y="-7.5" font-family="Helvetica,sans-Serif" font-size="10.00">cstdlib</text>
</a>
</g>
</g>
<!-- Node11&#45;&gt;Node12 -->
<g id="edge11" class="edge">
<title>Node11&#45;&gt;Node12</title>
<path fill="none" stroke="midnightblue" d="M378,-56.08C378,-49.01 378,-38.86 378,-29.99"/>
<polygon fill="midnightblue" stroke="midnightblue" points="381.5,-29.75 378,-19.75 374.5,-29.75 381.5,-29.75"/>
</g>
<!-- Node13 -->
<g id="node13" class="node">
<title>Node13</title>
<g id="a_node13"><a xlink:title=" ">
<polygon fill="none" stroke="#bfbfbf" points="213.5,-0.5 213.5,-19.5 282.5,-19.5 282.5,-0.5 213.5,-0.5"/>
<text text-anchor="middle" x="248" y="-7.5" font-family="Helvetica,sans-Serif" font-size="10.00">type_traits</text>
</a>
</g>
</g>
<!-- Node11&#45;&gt;Node13 -->
<g id="edge14" class="edge">
<title>Node11&#45;&gt;Node13</title>
<path fill="none" stroke="midnightblue" d="M357.4,-56.44C336.01,-47.56 302.32,-33.56 277.98,-23.45"/>
<polygon fill="midnightblue" stroke="midnightblue" points="279.08,-20.12 268.5,-19.52 276.39,-26.58 279.08,-20.12"/>
</g>
<!-- Node14&#45;&gt;Node9 -->
<g id="edge28" class="edge">
<title>Node14&#45;&gt;Node9</title>
<path fill="none" stroke="midnightblue" d="M482.19,-283.89C543.2,-274.64 637,-249.04 637,-179 637,-179 637,-179 637,-121 637,-74.91 588.12,-41.39 555.53,-24.16"/>
<polygon fill="midnightblue" stroke="midnightblue" points="556.91,-20.94 546.41,-19.54 553.75,-27.18 556.91,-20.94"/>
</g>
<!-- Node14&#45;&gt;Node10 -->
<g id="edge16" class="edge">
<title>Node14&#45;&gt;Node10</title>
<path fill="none" stroke="midnightblue" d="M418.31,-280.32C406.1,-271.98 387.42,-259.21 373,-249.35"/>
<polygon fill="midnightblue" stroke="midnightblue" points="374.89,-246.41 364.66,-243.65 370.94,-252.19 374.89,-246.41"/>
</g>
<!-- Node15 -->
<g id="node15" class="node">
<title>Node15</title>
<g id="a_node15"><a xlink:href="irep_8h.html" target="_top" xlink:title=" ">
<polygon fill="none" stroke="black" points="407,-224.5 407,-243.5 451,-243.5 451,-224.5 407,-224.5"/>
<text text-anchor="middle" x="429" y="-231.5" font-family="Helvetica,sans-Serif" font-size="10.00">irep.h</text>
</a>
</g>
</g>
<!-- Node14&#45;&gt;Node15 -->
<g id="edge17" class="edge">
<title>Node14&#45;&gt;Node15</title>
<path fill="none" stroke="midnightblue" d="M430.67,-280.08C430.41,-273.01 430.03,-262.86 429.7,-253.99"/>
<polygon fill="midnightblue" stroke="midnightblue" points="433.19,-253.61 429.32,-243.75 426.2,-253.87 433.19,-253.61"/>
</g>
<!-- Node31 -->
<g id="node19" class="node">
<title>Node31</title>
<g id="a_node19"><a xlink:href="optional_8h.html" target="_top" xlink:title=" ">
<polygon fill="none" stroke="black" points="494.5,-224.5 494.5,-243.5 559.5,-243.5 559.5,-224.5 494.5,-224.5"/>
<text text-anchor="middle" x="527" y="-231.5" font-family="Helvetica,sans-Serif" font-size="10.00">optional.h</text>
</a>
</g>
</g>
<!-- Node14&#45;&gt;Node31 -->
<g id="edge26" class="edge">
<title>Node14&#45;&gt;Node31</title>
<path fill="none" stroke="midnightblue" d="M446.42,-280.32C461.54,-271.82 484.82,-258.73 502.47,-248.8"/>
<polygon fill="midnightblue" stroke="midnightblue" points="504.61,-251.61 511.61,-243.65 501.18,-245.51 504.61,-251.61"/>
</g>
<!-- Node15&#45;&gt;Node2 -->
<g id="edge19" class="edge">
<title>Node15&#45;&gt;Node2</title>
<path fill="none" stroke="midnightblue" d="M406.75,-226.1C403.83,-225.32 400.85,-224.6 398,-224 284.45,-200.3 147.23,-186.92 84.83,-181.65"/>
<polygon fill="midnightblue" stroke="midnightblue" points="85.03,-178.15 74.77,-180.82 84.45,-185.13 85.03,-178.15"/>
</g>
<!-- Node15&#45;&gt;Node9 -->
<g id="edge18" class="edge">
<title>Node15&#45;&gt;Node9</title>
<path fill="none" stroke="midnightblue" d="M432.84,-224.3C447.35,-191.42 499.02,-74.39 519.01,-29.09"/>
<polygon fill="midnightblue" stroke="midnightblue" points="522.24,-30.45 523.08,-19.88 515.84,-27.62 522.24,-30.45"/>
</g>
<!-- Node15&#45;&gt;Node11 -->
<g id="edge20" class="edge">
<title>Node15&#45;&gt;Node11</title>
<path fill="none" stroke="midnightblue" d="M426.48,-224.15C422.9,-211.62 416.1,-188.02 410,-168 401.18,-139.05 390.48,-105.59 383.96,-85.38"/>
<polygon fill="midnightblue" stroke="midnightblue" points="387.21,-84.06 380.81,-75.63 380.55,-86.22 387.21,-84.06"/>
</g>
<!-- Node16 -->
<g id="node16" class="node">
<title>Node16</title>
<g id="a_node16"><a xlink:href="irep__ids_8h.html" target="_top" xlink:title=" ">
<polygon fill="none" stroke="red" points="337,-168.5 337,-187.5 401,-187.5 401,-168.5 337,-168.5"/>
<text text-anchor="middle" x="369" y="-175.5" font-family="Helvetica,sans-Serif" font-size="10.00">irep_ids.h</text>
</a>
</g>
</g>
<!-- Node15&#45;&gt;Node16 -->
<g id="edge21" class="edge">
<title>Node15&#45;&gt;Node16</title>
<path fill="none" stroke="midnightblue" d="M419.36,-224.32C410.49,-216.34 397.13,-204.31 386.39,-194.65"/>
<polygon fill="midnightblue" stroke="midnightblue" points="388.59,-191.92 378.82,-187.83 383.91,-197.13 388.59,-191.92"/>
</g>
<!-- Node26 -->
<g id="node17" class="node">
<title>Node26</title>
<g id="a_node17"><a xlink:href="forward__list__as__map_8h.html" target="_top" xlink:title=" ">
<polygon fill="none" stroke="red" points="191.5,-168.5 191.5,-187.5 318.5,-187.5 318.5,-168.5 191.5,-168.5"/>
<text text-anchor="middle" x="255" y="-175.5" font-family="Helvetica,sans-Serif" font-size="10.00">forward_list_as_map.h</text>
</a>
</g>
</g>
<!-- Node15&#45;&gt;Node26 -->
<g id="edge22" class="edge">
<title>Node15&#45;&gt;Node26</title>
<path fill="none" stroke="midnightblue" d="M406.96,-226.16C378.16,-217.22 327.3,-201.44 292.41,-190.61"/>
<polygon fill="midnightblue" stroke="midnightblue" points="293.17,-187.18 282.59,-187.56 291.1,-193.87 293.17,-187.18"/>
</g>
<!-- Node30 -->
<g id="node18" class="node">
<title>Node30</title>
<g id="a_node18"><a xlink:href="narrow_8h.html" target="_top" xlink:title=" ">
<polygon fill="none" stroke="black" points="85.5,-112.5 85.5,-131.5 144.5,-131.5 144.5,-112.5 85.5,-112.5"/>
<text text-anchor="middle" x="115" y="-119.5" font-family="Helvetica,sans-Serif" font-size="10.00">narrow.h</text>
</a>
</g>
</g>
<!-- Node26&#45;&gt;Node30 -->
<g id="edge23" class="edge">
<title>Node26&#45;&gt;Node30</title>
<path fill="none" stroke="midnightblue" d="M232.82,-168.44C209.57,-159.48 172.85,-145.31 146.58,-135.18"/>
<polygon fill="midnightblue" stroke="midnightblue" points="147.67,-131.85 137.08,-131.52 145.15,-138.38 147.67,-131.85"/>
</g>
<!-- Node30&#45;&gt;Node11 -->
<g id="edge25" class="edge">
<title>Node30&#45;&gt;Node11</title>
<path fill="none" stroke="midnightblue" d="M144.66,-114.91C190.72,-105.45 279.75,-87.17 333.53,-76.13"/>
<polygon fill="midnightblue" stroke="midnightblue" points="334.37,-79.53 343.47,-74.09 332.97,-72.67 334.37,-79.53"/>
</g>
<!-- Node30&#45;&gt;Node13 -->
<g id="edge24" class="edge">
<title>Node30&#45;&gt;Node13</title>
<path fill="none" stroke="midnightblue" d="M125.44,-112.37C147.97,-93.73 201.41,-49.53 229.7,-26.13"/>
<polygon fill="midnightblue" stroke="midnightblue" points="232.14,-28.66 237.61,-19.59 227.68,-23.27 232.14,-28.66"/>
</g>
<!-- Node32 -->
<g id="node20" class="node">
<title>Node32</title>
<g id="a_node20"><a xlink:title=" ">
<polygon fill="none" stroke="#bfbfbf" points="495.5,-168.5 495.5,-187.5 608.5,-187.5 608.5,-168.5 495.5,-168.5"/>
<text text-anchor="middle" x="552" y="-175.5" font-family="Helvetica,sans-Serif" font-size="10.00">nonstd/optional.hpp</text>
</a>
</g>
</g>
<!-- Node31&#45;&gt;Node32 -->
<g id="edge27" class="edge">
<title>Node31&#45;&gt;Node32</title>
<path fill="none" stroke="midnightblue" d="M531.13,-224.08C534.51,-216.77 539.42,-206.18 543.62,-197.1"/>
<polygon fill="midnightblue" stroke="midnightblue" points="546.92,-198.3 547.95,-187.75 540.57,-195.36 546.92,-198.3"/>
</g>
<!-- Node33&#45;&gt;Node7 -->
<g id="edge30" class="edge">
<title>Node33&#45;&gt;Node7</title>
<path fill="none" stroke="midnightblue" d="M197.89,-336.08C192.72,-328.53 185.15,-317.49 178.81,-308.23"/>
<polygon fill="midnightblue" stroke="midnightblue" points="181.54,-306.02 173,-299.75 175.76,-309.98 181.54,-306.02"/>
</g>
<!-- Node34&#45;&gt;Node2 -->
<g id="edge34" class="edge">
<title>Node34&#45;&gt;Node2</title>
<path fill="none" stroke="midnightblue" d="M111.56,-336.08C101.44,-309.83 71.64,-232.55 57.98,-197.12"/>
<polygon fill="midnightblue" stroke="midnightblue" points="61.17,-195.64 54.3,-187.57 54.64,-198.16 61.17,-195.64"/>
</g>
<!-- Node34&#45;&gt;Node7 -->
<g id="edge32" class="edge">
<title>Node34&#45;&gt;Node7</title>
<path fill="none" stroke="midnightblue" d="M123.59,-336.08C131.16,-328.22 142.38,-316.57 151.51,-307.08"/>
<polygon fill="midnightblue" stroke="midnightblue" points="154.16,-309.38 158.57,-299.75 149.12,-304.53 154.16,-309.38"/>
</g>
<!-- Node34&#45;&gt;Node30 -->
<g id="edge33" class="edge">
<title>Node34&#45;&gt;Node30</title>
<path fill="none" stroke="midnightblue" d="M115,-336.3C115,-303.63 115,-187.87 115,-141.96"/>
<polygon fill="midnightblue" stroke="midnightblue" points="118.5,-141.88 115,-131.88 111.5,-141.88 118.5,-141.88"/>
</g>
<!-- Node35&#45;&gt;Node2 -->
<g id="edge36" class="edge">
<title>Node35&#45;&gt;Node2</title>
<path fill="none" stroke="midnightblue" d="M78.86,-392.3C74.6,-359.63 59.47,-243.87 53.48,-197.96"/>
<polygon fill="midnightblue" stroke="midnightblue" points="56.93,-197.35 52.16,-187.88 49.99,-198.25 56.93,-197.35"/>
</g>
<!-- Node35&#45;&gt;Node34 -->
<g id="edge37" class="edge">
<title>Node35&#45;&gt;Node34</title>
<path fill="none" stroke="midnightblue" d="M85.78,-392.08C90.67,-384.53 97.83,-373.49 103.83,-364.23"/>
<polygon fill="midnightblue" stroke="midnightblue" points="106.83,-366.05 109.33,-355.75 100.95,-362.24 106.83,-366.05"/>
</g>
</g>
</svg>
