<?xml version="1.0" encoding="UTF-8" standalone="no"?>
<!DOCTYPE svg PUBLIC "-//W3C//DTD SVG 1.1//EN"
 "http://www.w3.org/Graphics/SVG/1.1/DTD/svg11.dtd">
<!-- Generated by graphviz version 2.43.0 (0)
 -->
<!-- Title: /home/runner/work/cbmc/cbmc/src/solvers/sat/satcheck_booleforce.cpp Pages: 1 -->
<svg width="717pt" height="498pt"
 viewBox="0.00 0.00 716.50 498.00" xmlns="http://www.w3.org/2000/svg" xmlns:xlink="http://www.w3.org/1999/xlink">
<g id="graph0" class="graph" transform="scale(1 1) rotate(0) translate(4 494)">
<title>/home/runner/work/cbmc/cbmc/src/solvers/sat/satcheck_booleforce.cpp</title>
<!-- Node1 -->
<g id="node1" class="node">
<title>Node1</title>
<g id="a_node1"><a xlink:title=" ">
<polygon fill="#bfbfbf" stroke="black" points="480,-448.5 480,-489.5 620,-489.5 620,-448.5 480,-448.5"/>
<text text-anchor="start" x="488" y="-477.5" font-family="Helvetica,sans-Serif" font-size="10.00">/home/runner/work/cbmc</text>
<text text-anchor="start" x="488" y="-466.5" font-family="Helvetica,sans-Serif" font-size="10.00">/cbmc/src/solvers/sat</text>
<text text-anchor="middle" x="550" y="-455.5" font-family="Helvetica,sans-Serif" font-size="10.00">/satcheck_booleforce.cpp</text>
</a>
</g>
</g>
<!-- Node2 -->
<g id="node2" class="node">
<title>Node2</title>
<g id="a_node2"><a xlink:href="satcheck__booleforce_8h.html" target="_top" xlink:title=" ">
<polygon fill="none" stroke="black" points="487,-392.5 487,-411.5 613,-411.5 613,-392.5 487,-392.5"/>
<text text-anchor="middle" x="550" y="-399.5" font-family="Helvetica,sans-Serif" font-size="10.00">satcheck_booleforce.h</text>
</a>
</g>
</g>
<!-- Node1&#45;&gt;Node2 -->
<g id="edge1" class="edge">
<title>Node1&#45;&gt;Node2</title>
<path fill="none" stroke="midnightblue" d="M550,-448.5C550,-440.07 550,-430.24 550,-421.87"/>
<polygon fill="midnightblue" stroke="midnightblue" points="553.5,-421.65 550,-411.65 546.5,-421.65 553.5,-421.65"/>
</g>
<!-- Node8 -->
<g id="node8" class="node">
<title>Node8</title>
<g id="a_node8"><a xlink:href="src_2util_2invariant_8h.html" target="_top" xlink:title=" ">
<polygon fill="none" stroke="black" points="195.5,-56.5 195.5,-75.5 264.5,-75.5 264.5,-56.5 195.5,-56.5"/>
<text text-anchor="middle" x="230" y="-63.5" font-family="Helvetica,sans-Serif" font-size="10.00">invariant.h</text>
</a>
</g>
</g>
<!-- Node1&#45;&gt;Node8 -->
<g id="edge33" class="edge">
<title>Node1&#45;&gt;Node8</title>
<path fill="none" stroke="midnightblue" d="M479.78,-467.13C331.51,-463.39 0,-444.16 0,-347 0,-347 0,-347 0,-233 0,-166.5 34.05,-150.88 88,-112 116.81,-91.24 155.57,-79.8 185.31,-73.66"/>
<polygon fill="midnightblue" stroke="midnightblue" points="186.27,-77.04 195.42,-71.7 184.94,-70.17 186.27,-77.04"/>
</g>
<!-- Node37 -->
<g id="node23" class="node">
<title>Node37</title>
<g id="a_node23"><a xlink:title=" ">
<polygon fill="none" stroke="#bfbfbf" points="631.5,-392.5 631.5,-411.5 708.5,-411.5 708.5,-392.5 631.5,-392.5"/>
<text text-anchor="middle" x="670" y="-399.5" font-family="Helvetica,sans-Serif" font-size="10.00">booleforce.h</text>
</a>
</g>
</g>
<!-- Node1&#45;&gt;Node37 -->
<g id="edge34" class="edge">
<title>Node1&#45;&gt;Node37</title>
<path fill="none" stroke="midnightblue" d="M586,-448.5C605.11,-438.15 628.1,-425.69 645.2,-416.43"/>
<polygon fill="midnightblue" stroke="midnightblue" points="646.9,-419.49 654.03,-411.65 643.57,-413.34 646.9,-419.49"/>
</g>
<!-- Node3 -->
<g id="node3" class="node">
<title>Node3</title>
<g id="a_node3"><a xlink:title=" ">
<polygon fill="none" stroke="#bfbfbf" points="496.5,-56.5 496.5,-75.5 543.5,-75.5 543.5,-56.5 496.5,-56.5"/>
<text text-anchor="middle" x="520" y="-63.5" font-family="Helvetica,sans-Serif" font-size="10.00">vector</text>
</a>
</g>
</g>
<!-- Node2&#45;&gt;Node3 -->
<g id="edge2" class="edge">
<title>Node2&#45;&gt;Node3</title>
<path fill="none" stroke="midnightblue" d="M554.18,-392.39C562.64,-374.16 581,-330.09 581,-291 581,-291 581,-291 581,-177 581,-139.57 553.66,-102.96 535.59,-82.84"/>
<polygon fill="midnightblue" stroke="midnightblue" points="538.12,-80.43 528.74,-75.51 533.01,-85.21 538.12,-80.43"/>
</g>
<!-- Node4 -->
<g id="node4" class="node">
<title>Node4</title>
<g id="a_node4"><a xlink:title=" ">
<polygon fill="none" stroke="#bfbfbf" points="609,-336.5 609,-355.5 641,-355.5 641,-336.5 609,-336.5"/>
<text text-anchor="middle" x="625" y="-343.5" font-family="Helvetica,sans-Serif" font-size="10.00">set</text>
</a>
</g>
</g>
<!-- Node2&#45;&gt;Node4 -->
<g id="edge3" class="edge">
<title>Node2&#45;&gt;Node4</title>
<path fill="none" stroke="midnightblue" d="M562.05,-392.32C573.46,-384.11 590.83,-371.6 604.43,-361.81"/>
<polygon fill="midnightblue" stroke="midnightblue" points="606.66,-364.52 612.73,-355.83 602.57,-358.84 606.66,-364.52"/>
</g>
<!-- Node5 -->
<g id="node5" class="node">
<title>Node5</title>
<g id="a_node5"><a xlink:href="cnf_8h.html" target="_top" xlink:title="CNF Generation, via Tseitin.">
<polygon fill="none" stroke="black" points="469,-336.5 469,-355.5 509,-355.5 509,-336.5 469,-336.5"/>
<text text-anchor="middle" x="489" y="-343.5" font-family="Helvetica,sans-Serif" font-size="10.00">cnf.h</text>
</a>
</g>
</g>
<!-- Node2&#45;&gt;Node5 -->
<g id="edge4" class="edge">
<title>Node2&#45;&gt;Node5</title>
<path fill="none" stroke="midnightblue" d="M540.2,-392.32C531.18,-384.34 517.59,-372.31 506.68,-362.65"/>
<polygon fill="midnightblue" stroke="midnightblue" points="508.79,-359.84 498.98,-355.83 504.15,-365.08 508.79,-359.84"/>
</g>
<!-- Node6 -->
<g id="node6" class="node">
<title>Node6</title>
<g id="a_node6"><a xlink:href="prop_8h.html" target="_top" xlink:title=" ">
<polygon fill="none" stroke="black" points="403,-280.5 403,-299.5 513,-299.5 513,-280.5 403,-280.5"/>
<text text-anchor="middle" x="458" y="-287.5" font-family="Helvetica,sans-Serif" font-size="10.00">solvers/prop/prop.h</text>
</a>
</g>
</g>
<!-- Node5&#45;&gt;Node6 -->
<g id="edge5" class="edge">
<title>Node5&#45;&gt;Node6</title>
<path fill="none" stroke="midnightblue" d="M483.88,-336.08C479.59,-328.61 473.34,-317.72 468.06,-308.52"/>
<polygon fill="midnightblue" stroke="midnightblue" points="471.04,-306.68 463.02,-299.75 464.97,-310.17 471.04,-306.68"/>
</g>
<!-- Node7 -->
<g id="node7" class="node">
<title>Node7</title>
<g id="a_node7"><a xlink:href="src_2util_2message_8h.html" target="_top" xlink:title=" ">
<polygon fill="none" stroke="black" points="220.5,-224.5 220.5,-243.5 309.5,-243.5 309.5,-224.5 220.5,-224.5"/>
<text text-anchor="middle" x="265" y="-231.5" font-family="Helvetica,sans-Serif" font-size="10.00">util/message.h</text>
</a>
</g>
</g>
<!-- Node6&#45;&gt;Node7 -->
<g id="edge6" class="edge">
<title>Node6&#45;&gt;Node7</title>
<path fill="none" stroke="midnightblue" d="M427.42,-280.44C394.39,-271.2 341.61,-256.44 305.23,-246.26"/>
<polygon fill="midnightblue" stroke="midnightblue" points="306.01,-242.84 295.44,-243.52 304.13,-249.58 306.01,-242.84"/>
</g>
<!-- Node34 -->
<g id="node19" class="node">
<title>Node34</title>
<g id="a_node19"><a xlink:href="threeval_8h.html" target="_top" xlink:title=" ">
<polygon fill="none" stroke="black" points="327.5,-224.5 327.5,-243.5 412.5,-243.5 412.5,-224.5 327.5,-224.5"/>
<text text-anchor="middle" x="370" y="-231.5" font-family="Helvetica,sans-Serif" font-size="10.00">util/threeval.h</text>
</a>
</g>
</g>
<!-- Node6&#45;&gt;Node34 -->
<g id="edge24" class="edge">
<title>Node6&#45;&gt;Node34</title>
<path fill="none" stroke="midnightblue" d="M443.86,-280.32C430.13,-271.9 409.06,-258.97 392.94,-249.07"/>
<polygon fill="midnightblue" stroke="midnightblue" points="394.46,-245.9 384.1,-243.65 390.8,-251.87 394.46,-245.9"/>
</g>
<!-- Node35 -->
<g id="node20" class="node">
<title>Node35</title>
<g id="a_node20"><a xlink:href="literal_8h.html" target="_top" xlink:title=" ">
<polygon fill="none" stroke="black" points="431,-224.5 431,-243.5 485,-243.5 485,-224.5 431,-224.5"/>
<text text-anchor="middle" x="458" y="-231.5" font-family="Helvetica,sans-Serif" font-size="10.00">literal.h</text>
</a>
</g>
</g>
<!-- Node6&#45;&gt;Node35 -->
<g id="edge26" class="edge">
<title>Node6&#45;&gt;Node35</title>
<path fill="none" stroke="midnightblue" d="M458,-280.08C458,-273.01 458,-262.86 458,-253.99"/>
<polygon fill="midnightblue" stroke="midnightblue" points="461.5,-253.75 458,-243.75 454.5,-253.75 461.5,-253.75"/>
</g>
<!-- Node36 -->
<g id="node22" class="node">
<title>Node36</title>
<g id="a_node22"><a xlink:title=" ">
<polygon fill="none" stroke="#bfbfbf" points="503,-224.5 503,-243.5 553,-243.5 553,-224.5 503,-224.5"/>
<text text-anchor="middle" x="528" y="-231.5" font-family="Helvetica,sans-Serif" font-size="10.00">cstdint</text>
</a>
</g>
</g>
<!-- Node6&#45;&gt;Node36 -->
<g id="edge32" class="edge">
<title>Node6&#45;&gt;Node36</title>
<path fill="none" stroke="midnightblue" d="M469.25,-280.32C479.8,-272.18 495.8,-259.84 508.44,-250.09"/>
<polygon fill="midnightblue" stroke="midnightblue" points="510.77,-252.71 516.55,-243.83 506.49,-247.17 510.77,-252.71"/>
</g>
<!-- Node7&#45;&gt;Node8 -->
<g id="edge7" class="edge">
<title>Node7&#45;&gt;Node8</title>
<path fill="none" stroke="midnightblue" d="M227.83,-224.48C185.2,-212.34 118.19,-185.37 95,-132 77.8,-92.41 139.63,-76.83 185.25,-70.77"/>
<polygon fill="midnightblue" stroke="midnightblue" points="185.78,-74.24 195.29,-69.56 184.94,-67.29 185.78,-74.24"/>
</g>
<!-- Node10 -->
<g id="node10" class="node">
<title>Node10</title>
<g id="a_node10"><a xlink:title=" ">
<polygon fill="none" stroke="#bfbfbf" points="48,-0.5 48,-19.5 104,-19.5 104,-0.5 48,-0.5"/>
<text text-anchor="middle" x="76" y="-7.5" font-family="Helvetica,sans-Serif" font-size="10.00">sstream</text>
</a>
</g>
</g>
<!-- Node7&#45;&gt;Node10 -->
<g id="edge22" class="edge">
<title>Node7&#45;&gt;Node10</title>
<path fill="none" stroke="midnightblue" d="M220.47,-228.94C188.28,-223.95 145.45,-212.81 116,-188 69.26,-148.62 70.39,-67.27 73.68,-30.18"/>
<polygon fill="midnightblue" stroke="midnightblue" points="77.2,-30.12 74.76,-19.81 70.24,-29.39 77.2,-30.12"/>
</g>
<!-- Node11 -->
<g id="node11" class="node">
<title>Node11</title>
<g id="a_node11"><a xlink:title=" ">
<polygon fill="none" stroke="#bfbfbf" points="367,-0.5 367,-19.5 411,-19.5 411,-0.5 367,-0.5"/>
<text text-anchor="middle" x="389" y="-7.5" font-family="Helvetica,sans-Serif" font-size="10.00">string</text>
</a>
</g>
</g>
<!-- Node7&#45;&gt;Node11 -->
<g id="edge23" class="edge">
<title>Node7&#45;&gt;Node11</title>
<path fill="none" stroke="midnightblue" d="M285.3,-224.44C304.67,-216.01 334.47,-202.33 359,-188 377.74,-177.06 428.98,-151.25 439,-132 457.87,-95.75 425.57,-50.73 404.67,-27.14"/>
<polygon fill="midnightblue" stroke="midnightblue" points="407.2,-24.73 397.85,-19.74 402.05,-29.47 407.2,-24.73"/>
</g>
<!-- Node13 -->
<g id="node13" class="node">
<title>Node13</title>
<g id="a_node13"><a xlink:href="source__location_8h.html" target="_top" xlink:title=" ">
<polygon fill="none" stroke="black" points="164,-168.5 164,-187.5 266,-187.5 266,-168.5 164,-168.5"/>
<text text-anchor="middle" x="215" y="-175.5" font-family="Helvetica,sans-Serif" font-size="10.00">source_location.h</text>
</a>
</g>
</g>
<!-- Node7&#45;&gt;Node13 -->
<g id="edge12" class="edge">
<title>Node7&#45;&gt;Node13</title>
<path fill="none" stroke="midnightblue" d="M256.74,-224.08C249.54,-216.3 238.89,-204.8 230.15,-195.37"/>
<polygon fill="midnightblue" stroke="midnightblue" points="232.47,-192.71 223.1,-187.75 227.33,-197.47 232.47,-192.71"/>
</g>
<!-- Node33 -->
<g id="node17" class="node">
<title>Node33</title>
<g id="a_node17"><a xlink:title=" ">
<polygon fill="none" stroke="#bfbfbf" points="284.5,-168.5 284.5,-187.5 349.5,-187.5 349.5,-168.5 284.5,-168.5"/>
<text text-anchor="middle" x="317" y="-175.5" font-family="Helvetica,sans-Serif" font-size="10.00">functional</text>
</a>
</g>
</g>
<!-- Node7&#45;&gt;Node33 -->
<g id="edge20" class="edge">
<title>Node7&#45;&gt;Node33</title>
<path fill="none" stroke="midnightblue" d="M273.59,-224.08C281.16,-216.22 292.38,-204.57 301.51,-195.08"/>
<polygon fill="midnightblue" stroke="midnightblue" points="304.16,-197.38 308.57,-187.75 299.12,-192.53 304.16,-197.38"/>
</g>
<!-- Node18 -->
<g id="node18" class="node">
<title>Node18</title>
<g id="a_node18"><a xlink:title=" ">
<polygon fill="none" stroke="#bfbfbf" points="406,-168.5 406,-187.5 454,-187.5 454,-168.5 406,-168.5"/>
<text text-anchor="middle" x="430" y="-175.5" font-family="Helvetica,sans-Serif" font-size="10.00">iosfwd</text>
</a>
</g>
</g>
<!-- Node7&#45;&gt;Node18 -->
<g id="edge21" class="edge">
<title>Node7&#45;&gt;Node18</title>
<path fill="none" stroke="midnightblue" d="M291.14,-224.44C319.6,-215.13 365.18,-200.21 396.3,-190.03"/>
<polygon fill="midnightblue" stroke="midnightblue" points="397.44,-193.34 405.86,-186.9 395.26,-186.69 397.44,-193.34"/>
</g>
<!-- Node9 -->
<g id="node9" class="node">
<title>Node9</title>
<g id="a_node9"><a xlink:title=" ">
<polygon fill="none" stroke="#bfbfbf" points="198.5,-0.5 198.5,-19.5 247.5,-19.5 247.5,-0.5 198.5,-0.5"/>
<text text-anchor="middle" x="223" y="-7.5" font-family="Helvetica,sans-Serif" font-size="10.00">cstdlib</text>
</a>
</g>
</g>
<!-- Node8&#45;&gt;Node9 -->
<g id="edge8" class="edge">
<title>Node8&#45;&gt;Node9</title>
<path fill="none" stroke="midnightblue" d="M228.84,-56.08C227.92,-48.93 226.58,-38.64 225.42,-29.69"/>
<polygon fill="midnightblue" stroke="midnightblue" points="228.89,-29.22 224.13,-19.75 221.95,-30.12 228.89,-29.22"/>
</g>
<!-- Node8&#45;&gt;Node10 -->
<g id="edge9" class="edge">
<title>Node8&#45;&gt;Node10</title>
<path fill="none" stroke="midnightblue" d="M205.6,-56.44C179.8,-47.4 138.92,-33.06 109.98,-22.92"/>
<polygon fill="midnightblue" stroke="midnightblue" points="110.88,-19.52 100.29,-19.52 108.57,-26.13 110.88,-19.52"/>
</g>
<!-- Node8&#45;&gt;Node11 -->
<g id="edge10" class="edge">
<title>Node8&#45;&gt;Node11</title>
<path fill="none" stroke="midnightblue" d="M255.19,-56.44C282.89,-47.04 327.42,-31.91 357.42,-21.72"/>
<polygon fill="midnightblue" stroke="midnightblue" points="358.65,-25 367,-18.47 356.4,-18.37 358.65,-25"/>
</g>
<!-- Node12 -->
<g id="node12" class="node">
<title>Node12</title>
<g id="a_node12"><a xlink:title=" ">
<polygon fill="none" stroke="#bfbfbf" points="265.5,-0.5 265.5,-19.5 334.5,-19.5 334.5,-0.5 265.5,-0.5"/>
<text text-anchor="middle" x="300" y="-7.5" font-family="Helvetica,sans-Serif" font-size="10.00">type_traits</text>
</a>
</g>
</g>
<!-- Node8&#45;&gt;Node12 -->
<g id="edge11" class="edge">
<title>Node8&#45;&gt;Node12</title>
<path fill="none" stroke="midnightblue" d="M241.25,-56.32C251.8,-48.18 267.8,-35.84 280.44,-26.09"/>
<polygon fill="midnightblue" stroke="midnightblue" points="282.77,-28.71 288.55,-19.83 278.49,-23.17 282.77,-28.71"/>
</g>
<!-- Node13&#45;&gt;Node11 -->
<g id="edge19" class="edge">
<title>Node13&#45;&gt;Node11</title>
<path fill="none" stroke="midnightblue" d="M266,-168.48C290.66,-162.08 319.15,-151 339,-132 368.32,-103.93 381.07,-56.15 386.09,-29.81"/>
<polygon fill="midnightblue" stroke="midnightblue" points="389.59,-30.11 387.85,-19.66 382.69,-28.92 389.59,-30.11"/>
</g>
<!-- Node14 -->
<g id="node14" class="node">
<title>Node14</title>
<g id="a_node14"><a xlink:href="deprecate_8h.html" target="_top" xlink:title=" ">
<polygon fill="none" stroke="black" points="178,-112.5 178,-131.5 252,-131.5 252,-112.5 178,-112.5"/>
<text text-anchor="middle" x="215" y="-119.5" font-family="Helvetica,sans-Serif" font-size="10.00">deprecate.h</text>
</a>
</g>
</g>
<!-- Node13&#45;&gt;Node14 -->
<g id="edge13" class="edge">
<title>Node13&#45;&gt;Node14</title>
<path fill="none" stroke="midnightblue" d="M215,-168.08C215,-161.01 215,-150.86 215,-141.99"/>
<polygon fill="midnightblue" stroke="midnightblue" points="218.5,-141.75 215,-131.75 211.5,-141.75 218.5,-141.75"/>
</g>
<!-- Node15 -->
<g id="node15" class="node">
<title>Node15</title>
<g id="a_node15"><a xlink:href="irep_8h.html" target="_top" xlink:title=" ">
<polygon fill="none" stroke="red" points="386,-112.5 386,-131.5 430,-131.5 430,-112.5 386,-112.5"/>
<text text-anchor="middle" x="408" y="-119.5" font-family="Helvetica,sans-Serif" font-size="10.00">irep.h</text>
</a>
</g>
</g>
<!-- Node13&#45;&gt;Node15 -->
<g id="edge14" class="edge">
<title>Node13&#45;&gt;Node15</title>
<path fill="none" stroke="midnightblue" d="M245.58,-168.44C281.18,-158.48 339.71,-142.11 375.93,-131.97"/>
<polygon fill="midnightblue" stroke="midnightblue" points="377.28,-135.23 385.97,-129.16 375.39,-128.49 377.28,-135.23"/>
</g>
<!-- Node32 -->
<g id="node16" class="node">
<title>Node32</title>
<g id="a_node16"><a xlink:title=" ">
<polygon fill="none" stroke="#bfbfbf" points="104,-112.5 104,-131.5 160,-131.5 160,-112.5 104,-112.5"/>
<text text-anchor="middle" x="132" y="-119.5" font-family="Helvetica,sans-Serif" font-size="10.00">optional</text>
</a>
</g>
</g>
<!-- Node13&#45;&gt;Node32 -->
<g id="edge18" class="edge">
<title>Node13&#45;&gt;Node32</title>
<path fill="none" stroke="midnightblue" d="M201.66,-168.32C188.84,-159.98 169.22,-147.21 154.06,-137.35"/>
<polygon fill="midnightblue" stroke="midnightblue" points="155.59,-134.17 145.3,-131.65 151.78,-140.04 155.59,-134.17"/>
</g>
<!-- Node15&#45;&gt;Node3 -->
<g id="edge16" class="edge">
<title>Node15&#45;&gt;Node3</title>
<path fill="none" stroke="midnightblue" d="M425.99,-112.32C444.04,-103.62 472.05,-90.12 492.8,-80.11"/>
<polygon fill="midnightblue" stroke="midnightblue" points="494.56,-83.15 502.05,-75.65 491.52,-76.84 494.56,-83.15"/>
</g>
<!-- Node15&#45;&gt;Node8 -->
<g id="edge17" class="edge">
<title>Node15&#45;&gt;Node8</title>
<path fill="none" stroke="midnightblue" d="M385.82,-114.27C356.26,-105.3 303.52,-89.3 267.67,-78.43"/>
<polygon fill="midnightblue" stroke="midnightblue" points="268.63,-75.06 258.04,-75.51 266.59,-81.76 268.63,-75.06"/>
</g>
<!-- Node15&#45;&gt;Node11 -->
<g id="edge15" class="edge">
<title>Node15&#45;&gt;Node11</title>
<path fill="none" stroke="midnightblue" d="M406.51,-112.37C403.44,-94.62 396.37,-53.67 392.21,-29.6"/>
<polygon fill="midnightblue" stroke="midnightblue" points="395.64,-28.85 390.48,-19.59 388.74,-30.04 395.64,-28.85"/>
</g>
<!-- Node34&#45;&gt;Node18 -->
<g id="edge25" class="edge">
<title>Node34&#45;&gt;Node18</title>
<path fill="none" stroke="midnightblue" d="M379.64,-224.32C388.51,-216.34 401.87,-204.31 412.61,-194.65"/>
<polygon fill="midnightblue" stroke="midnightblue" points="415.09,-197.13 420.18,-187.83 410.41,-191.92 415.09,-197.13"/>
</g>
<!-- Node35&#45;&gt;Node3 -->
<g id="edge31" class="edge">
<title>Node35&#45;&gt;Node3</title>
<path fill="none" stroke="midnightblue" d="M462.75,-224.2C467.47,-215.24 474.75,-200.88 480,-188 494.49,-152.45 507.71,-109.5 514.73,-85.52"/>
<polygon fill="midnightblue" stroke="midnightblue" points="518.17,-86.23 517.58,-75.65 511.44,-84.29 518.17,-86.23"/>
</g>
<!-- Node35&#45;&gt;Node18 -->
<g id="edge27" class="edge">
<title>Node35&#45;&gt;Node18</title>
<path fill="none" stroke="midnightblue" d="M453.38,-224.08C449.54,-216.69 443.98,-205.95 439.24,-196.81"/>
<polygon fill="midnightblue" stroke="midnightblue" points="442.25,-195.02 434.54,-187.75 436.03,-198.24 442.25,-195.02"/>
</g>
<!-- Node31 -->
<g id="node21" class="node">
<title>Node31</title>
<g id="a_node21"><a xlink:href="narrow_8h.html" target="_top" xlink:title=" ">
<polygon fill="none" stroke="black" points="270.5,-112.5 270.5,-131.5 329.5,-131.5 329.5,-112.5 270.5,-112.5"/>
<text text-anchor="middle" x="300" y="-119.5" font-family="Helvetica,sans-Serif" font-size="10.00">narrow.h</text>
</a>
</g>
</g>
<!-- Node35&#45;&gt;Node31 -->
<g id="edge28" class="edge">
<title>Node35&#45;&gt;Node31</title>
<path fill="none" stroke="midnightblue" d="M461.96,-224.4C467.51,-210.9 475.62,-184.57 463,-168 448.1,-148.43 382.87,-135.2 339.58,-128.39"/>
<polygon fill="midnightblue" stroke="midnightblue" points="340.04,-124.92 329.63,-126.88 338.99,-131.84 340.04,-124.92"/>
</g>
<!-- Node31&#45;&gt;Node8 -->
<g id="edge30" class="edge">
<title>Node31&#45;&gt;Node8</title>
<path fill="none" stroke="midnightblue" d="M288.75,-112.32C278.2,-104.18 262.2,-91.84 249.56,-82.09"/>
<polygon fill="midnightblue" stroke="midnightblue" points="251.51,-79.17 241.45,-75.83 247.23,-84.71 251.51,-79.17"/>
</g>
<!-- Node31&#45;&gt;Node12 -->
<g id="edge29" class="edge">
<title>Node31&#45;&gt;Node12</title>
<path fill="none" stroke="midnightblue" d="M300,-112.37C300,-94.62 300,-53.67 300,-29.6"/>
<polygon fill="midnightblue" stroke="midnightblue" points="303.5,-29.59 300,-19.59 296.5,-29.59 303.5,-29.59"/>
</g>
</g>
</svg>
