<?xml version="1.0" encoding="UTF-8" standalone="no"?>
<!DOCTYPE svg PUBLIC "-//W3C//DTD SVG 1.1//EN"
 "http://www.w3.org/Graphics/SVG/1.1/DTD/svg11.dtd">
<!-- Generated by graphviz version 2.43.0 (0)
 -->
<!-- Title: /home/runner/work/cbmc/cbmc/src/solvers/sat/satcheck_booleforce.cpp Pages: 1 -->
<svg width="578pt" height="498pt"
 viewBox="0.00 0.00 577.50 498.00" xmlns="http://www.w3.org/2000/svg" xmlns:xlink="http://www.w3.org/1999/xlink">
<g id="graph0" class="graph" transform="scale(1 1) rotate(0) translate(4 494)">
<title>/home/runner/work/cbmc/cbmc/src/solvers/sat/satcheck_booleforce.cpp</title>
<!-- Node1 -->
<g id="node1" class="node">
<title>Node1</title>
<g id="a_node1"><a xlink:title=" ">
<polygon fill="#bfbfbf" stroke="black" points="230.5,-448.5 230.5,-489.5 370.5,-489.5 370.5,-448.5 230.5,-448.5"/>
<text text-anchor="start" x="238.5" y="-477.5" font-family="Helvetica,sans-Serif" font-size="10.00">/home/runner/work/cbmc</text>
<text text-anchor="start" x="238.5" y="-466.5" font-family="Helvetica,sans-Serif" font-size="10.00">/cbmc/src/solvers/sat</text>
<text text-anchor="middle" x="300.5" y="-455.5" font-family="Helvetica,sans-Serif" font-size="10.00">/satcheck_booleforce.cpp</text>
</a>
</g>
</g>
<!-- Node2 -->
<g id="node2" class="node">
<title>Node2</title>
<g id="a_node2"><a xlink:href="satcheck__booleforce_8h.html" target="_top" xlink:title=" ">
<polygon fill="none" stroke="black" points="237.5,-392.5 237.5,-411.5 363.5,-411.5 363.5,-392.5 237.5,-392.5"/>
<text text-anchor="middle" x="300.5" y="-399.5" font-family="Helvetica,sans-Serif" font-size="10.00">satcheck_booleforce.h</text>
</a>
</g>
</g>
<!-- Node1&#45;&gt;Node2 -->
<g id="edge1" class="edge">
<title>Node1&#45;&gt;Node2</title>
<path fill="none" stroke="midnightblue" d="M300.5,-448.5C300.5,-440.07 300.5,-430.24 300.5,-421.87"/>
<polygon fill="midnightblue" stroke="midnightblue" points="304,-421.65 300.5,-411.65 297,-421.65 304,-421.65"/>
</g>
<!-- Node13 -->
<g id="node13" class="node">
<title>Node13</title>
<g id="a_node13"><a xlink:href="src_2util_2invariant_8h.html" target="_top" xlink:title=" ">
<polygon fill="none" stroke="black" points="174,-56.5 174,-75.5 243,-75.5 243,-56.5 174,-56.5"/>
<text text-anchor="middle" x="208.5" y="-63.5" font-family="Helvetica,sans-Serif" font-size="10.00">invariant.h</text>
</a>
</g>
</g>
<!-- Node1&#45;&gt;Node13 -->
<g id="edge34" class="edge">
<title>Node1&#45;&gt;Node13</title>
<path fill="none" stroke="midnightblue" d="M230.46,-457.86C168.38,-444.44 87.5,-414.09 87.5,-347 87.5,-347 87.5,-347 87.5,-177 87.5,-128.99 140.3,-96.41 176.14,-79.82"/>
<polygon fill="midnightblue" stroke="midnightblue" points="178.02,-82.82 185.74,-75.57 175.18,-76.42 178.02,-82.82"/>
</g>
<!-- Node38 -->
<g id="node23" class="node">
<title>Node38</title>
<g id="a_node23"><a xlink:title=" ">
<polygon fill="none" stroke="#bfbfbf" points="382,-392.5 382,-411.5 459,-411.5 459,-392.5 382,-392.5"/>
<text text-anchor="middle" x="420.5" y="-399.5" font-family="Helvetica,sans-Serif" font-size="10.00">booleforce.h</text>
</a>
</g>
</g>
<!-- Node1&#45;&gt;Node38 -->
<g id="edge35" class="edge">
<title>Node1&#45;&gt;Node38</title>
<path fill="none" stroke="midnightblue" d="M336.5,-448.5C355.61,-438.15 378.6,-425.69 395.7,-416.43"/>
<polygon fill="midnightblue" stroke="midnightblue" points="397.4,-419.49 404.53,-411.65 394.07,-413.34 397.4,-419.49"/>
</g>
<!-- Node3 -->
<g id="node3" class="node">
<title>Node3</title>
<g id="a_node3"><a xlink:title=" ">
<polygon fill="none" stroke="#bfbfbf" points="379,-56.5 379,-75.5 426,-75.5 426,-56.5 379,-56.5"/>
<text text-anchor="middle" x="402.5" y="-63.5" font-family="Helvetica,sans-Serif" font-size="10.00">vector</text>
</a>
</g>
</g>
<!-- Node2&#45;&gt;Node3 -->
<g id="edge2" class="edge">
<title>Node2&#45;&gt;Node3</title>
<path fill="none" stroke="midnightblue" d="M338.28,-392.46C407.47,-375.71 547.5,-336.24 547.5,-291 547.5,-291 547.5,-291 547.5,-233 547.5,-160.96 469.08,-105.1 427.58,-80.59"/>
<polygon fill="midnightblue" stroke="midnightblue" points="429.27,-77.51 418.85,-75.57 425.78,-83.58 429.27,-77.51"/>
</g>
<!-- Node4 -->
<g id="node4" class="node">
<title>Node4</title>
<g id="a_node4"><a xlink:title=" ">
<polygon fill="none" stroke="#bfbfbf" points="311.5,-336.5 311.5,-355.5 343.5,-355.5 343.5,-336.5 311.5,-336.5"/>
<text text-anchor="middle" x="327.5" y="-343.5" font-family="Helvetica,sans-Serif" font-size="10.00">set</text>
</a>
</g>
</g>
<!-- Node2&#45;&gt;Node4 -->
<g id="edge3" class="edge">
<title>Node2&#45;&gt;Node4</title>
<path fill="none" stroke="midnightblue" d="M304.96,-392.08C308.65,-384.69 314.02,-373.95 318.59,-364.81"/>
<polygon fill="midnightblue" stroke="midnightblue" points="321.78,-366.26 323.12,-355.75 315.52,-363.13 321.78,-366.26"/>
</g>
<!-- Node5 -->
<g id="node5" class="node">
<title>Node5</title>
<g id="a_node5"><a xlink:href="cnf_8h.html" target="_top" xlink:title="CNF Generation, via Tseitin.">
<polygon fill="none" stroke="black" points="253.5,-336.5 253.5,-355.5 293.5,-355.5 293.5,-336.5 253.5,-336.5"/>
<text text-anchor="middle" x="273.5" y="-343.5" font-family="Helvetica,sans-Serif" font-size="10.00">cnf.h</text>
</a>
</g>
</g>
<!-- Node2&#45;&gt;Node5 -->
<g id="edge4" class="edge">
<title>Node2&#45;&gt;Node5</title>
<path fill="none" stroke="midnightblue" d="M296.04,-392.08C292.35,-384.69 286.98,-373.95 282.41,-364.81"/>
<polygon fill="midnightblue" stroke="midnightblue" points="285.48,-363.13 277.88,-355.75 279.22,-366.26 285.48,-363.13"/>
</g>
<!-- Node6 -->
<g id="node6" class="node">
<title>Node6</title>
<g id="a_node6"><a xlink:href="prop_8h.html" target="_top" xlink:title=" ">
<polygon fill="none" stroke="black" points="218.5,-280.5 218.5,-299.5 328.5,-299.5 328.5,-280.5 218.5,-280.5"/>
<text text-anchor="middle" x="273.5" y="-287.5" font-family="Helvetica,sans-Serif" font-size="10.00">solvers/prop/prop.h</text>
</a>
</g>
</g>
<!-- Node5&#45;&gt;Node6 -->
<g id="edge5" class="edge">
<title>Node5&#45;&gt;Node6</title>
<path fill="none" stroke="midnightblue" d="M273.5,-336.08C273.5,-329.01 273.5,-318.86 273.5,-309.99"/>
<polygon fill="midnightblue" stroke="midnightblue" points="277,-309.75 273.5,-299.75 270,-309.75 277,-309.75"/>
</g>
<!-- Node7 -->
<g id="node7" class="node">
<title>Node7</title>
<g id="a_node7"><a xlink:href="src_2util_2message_8h.html" target="_top" xlink:title=" ">
<polygon fill="none" stroke="black" points="360,-224.5 360,-243.5 449,-243.5 449,-224.5 360,-224.5"/>
<text text-anchor="middle" x="404.5" y="-231.5" font-family="Helvetica,sans-Serif" font-size="10.00">util/message.h</text>
</a>
</g>
</g>
<!-- Node6&#45;&gt;Node7 -->
<g id="edge6" class="edge">
<title>Node6&#45;&gt;Node7</title>
<path fill="none" stroke="midnightblue" d="M294.26,-280.44C315.82,-271.56 349.76,-257.56 374.29,-247.45"/>
<polygon fill="midnightblue" stroke="midnightblue" points="375.93,-250.56 383.84,-243.52 373.26,-244.09 375.93,-250.56"/>
</g>
<!-- Node35 -->
<g id="node19" class="node">
<title>Node35</title>
<g id="a_node19"><a xlink:href="threeval_8h.html" target="_top" xlink:title=" ">
<polygon fill="none" stroke="black" points="188,-224.5 188,-243.5 273,-243.5 273,-224.5 188,-224.5"/>
<text text-anchor="middle" x="230.5" y="-231.5" font-family="Helvetica,sans-Serif" font-size="10.00">util/threeval.h</text>
</a>
</g>
</g>
<!-- Node6&#45;&gt;Node35 -->
<g id="edge25" class="edge">
<title>Node6&#45;&gt;Node35</title>
<path fill="none" stroke="midnightblue" d="M266.4,-280.08C260.26,-272.38 251.23,-261.03 243.76,-251.65"/>
<polygon fill="midnightblue" stroke="midnightblue" points="246.44,-249.39 237.47,-243.75 240.96,-253.75 246.44,-249.39"/>
</g>
<!-- Node36 -->
<g id="node20" class="node">
<title>Node36</title>
<g id="a_node20"><a xlink:href="literal_8h.html" target="_top" xlink:title=" ">
<polygon fill="none" stroke="black" points="115.5,-224.5 115.5,-243.5 169.5,-243.5 169.5,-224.5 115.5,-224.5"/>
<text text-anchor="middle" x="142.5" y="-231.5" font-family="Helvetica,sans-Serif" font-size="10.00">literal.h</text>
</a>
</g>
</g>
<!-- Node6&#45;&gt;Node36 -->
<g id="edge27" class="edge">
<title>Node6&#45;&gt;Node36</title>
<path fill="none" stroke="midnightblue" d="M252.74,-280.44C231.18,-271.56 197.24,-257.56 172.71,-247.45"/>
<polygon fill="midnightblue" stroke="midnightblue" points="173.74,-244.09 163.16,-243.52 171.07,-250.56 173.74,-244.09"/>
</g>
<!-- Node37 -->
<g id="node22" class="node">
<title>Node37</title>
<g id="a_node22"><a xlink:title=" ">
<polygon fill="none" stroke="#bfbfbf" points="291.5,-224.5 291.5,-243.5 341.5,-243.5 341.5,-224.5 291.5,-224.5"/>
<text text-anchor="middle" x="316.5" y="-231.5" font-family="Helvetica,sans-Serif" font-size="10.00">cstdint</text>
</a>
</g>
</g>
<!-- Node6&#45;&gt;Node37 -->
<g id="edge33" class="edge">
<title>Node6&#45;&gt;Node37</title>
<path fill="none" stroke="midnightblue" d="M280.6,-280.08C286.74,-272.38 295.77,-261.03 303.24,-251.65"/>
<polygon fill="midnightblue" stroke="midnightblue" points="306.04,-253.75 309.53,-243.75 300.56,-249.39 306.04,-253.75"/>
</g>
<!-- Node8 -->
<g id="node8" class="node">
<title>Node8</title>
<g id="a_node8"><a xlink:title=" ">
<polygon fill="none" stroke="#bfbfbf" points="296,-168.5 296,-187.5 361,-187.5 361,-168.5 296,-168.5"/>
<text text-anchor="middle" x="328.5" y="-175.5" font-family="Helvetica,sans-Serif" font-size="10.00">functional</text>
</a>
</g>
</g>
<!-- Node7&#45;&gt;Node8 -->
<g id="edge7" class="edge">
<title>Node7&#45;&gt;Node8</title>
<path fill="none" stroke="midnightblue" d="M392.29,-224.32C380.72,-216.11 363.12,-203.6 349.34,-193.81"/>
<polygon fill="midnightblue" stroke="midnightblue" points="351.11,-190.77 340.93,-187.83 347.06,-196.48 351.11,-190.77"/>
</g>
<!-- Node9 -->
<g id="node9" class="node">
<title>Node9</title>
<g id="a_node9"><a xlink:title=" ">
<polygon fill="none" stroke="#bfbfbf" points="153.5,-168.5 153.5,-187.5 201.5,-187.5 201.5,-168.5 153.5,-168.5"/>
<text text-anchor="middle" x="177.5" y="-175.5" font-family="Helvetica,sans-Serif" font-size="10.00">iosfwd</text>
</a>
</g>
</g>
<!-- Node7&#45;&gt;Node9 -->
<g id="edge8" class="edge">
<title>Node7&#45;&gt;Node9</title>
<path fill="none" stroke="midnightblue" d="M368.53,-224.44C325.45,-214.2 253.83,-197.16 211.6,-187.11"/>
<polygon fill="midnightblue" stroke="midnightblue" points="212.32,-183.69 201.78,-184.78 210.7,-190.5 212.32,-183.69"/>
</g>
<!-- Node10 -->
<g id="node10" class="node">
<title>Node10</title>
<g id="a_node10"><a xlink:title=" ">
<polygon fill="none" stroke="#bfbfbf" points="513.5,-0.5 513.5,-19.5 569.5,-19.5 569.5,-0.5 513.5,-0.5"/>
<text text-anchor="middle" x="541.5" y="-7.5" font-family="Helvetica,sans-Serif" font-size="10.00">sstream</text>
</a>
</g>
</g>
<!-- Node7&#45;&gt;Node10 -->
<g id="edge9" class="edge">
<title>Node7&#45;&gt;Node10</title>
<path fill="none" stroke="midnightblue" d="M448.3,-224.48C469.88,-218.04 494.43,-206.93 509.5,-188 546.9,-141.03 546.17,-64.77 543.49,-29.72"/>
<polygon fill="midnightblue" stroke="midnightblue" points="546.95,-29.15 542.56,-19.51 539.98,-29.78 546.95,-29.15"/>
</g>
<!-- Node11 -->
<g id="node11" class="node">
<title>Node11</title>
<g id="a_node11"><a xlink:title=" ">
<polygon fill="none" stroke="#bfbfbf" points="395.5,-0.5 395.5,-19.5 439.5,-19.5 439.5,-0.5 395.5,-0.5"/>
<text text-anchor="middle" x="417.5" y="-7.5" font-family="Helvetica,sans-Serif" font-size="10.00">string</text>
</a>
</g>
</g>
<!-- Node7&#45;&gt;Node11 -->
<g id="edge10" class="edge">
<title>Node7&#45;&gt;Node11</title>
<path fill="none" stroke="midnightblue" d="M438.68,-224.49C457.49,-217.88 479.24,-206.6 490.5,-188 521.56,-136.7 493.34,-107.44 462.5,-56 455.8,-44.83 445.73,-34.4 436.81,-26.4"/>
<polygon fill="midnightblue" stroke="midnightblue" points="438.95,-23.63 429.07,-19.79 434.4,-28.95 438.95,-23.63"/>
</g>
<!-- Node12 -->
<g id="node12" class="node">
<title>Node12</title>
<g id="a_node12"><a xlink:href="deprecate_8h.html" target="_top" xlink:title=" ">
<polygon fill="none" stroke="black" points="236.5,-112.5 236.5,-131.5 310.5,-131.5 310.5,-112.5 236.5,-112.5"/>
<text text-anchor="middle" x="273.5" y="-119.5" font-family="Helvetica,sans-Serif" font-size="10.00">deprecate.h</text>
</a>
</g>
</g>
<!-- Node7&#45;&gt;Node12 -->
<g id="edge11" class="edge">
<title>Node7&#45;&gt;Node12</title>
<path fill="none" stroke="midnightblue" d="M372.23,-224.49C341.36,-215.71 297.86,-201.44 286.5,-188 275.71,-175.24 272.98,-156.05 272.63,-141.82"/>
<polygon fill="midnightblue" stroke="midnightblue" points="276.14,-141.74 272.76,-131.7 269.14,-141.65 276.14,-141.74"/>
</g>
<!-- Node7&#45;&gt;Node13 -->
<g id="edge12" class="edge">
<title>Node7&#45;&gt;Node13</title>
<path fill="none" stroke="midnightblue" d="M361.03,-224.45C334.1,-217.68 299.77,-206.24 273.5,-188 247.04,-169.63 242.55,-160.48 227.5,-132 219.78,-117.38 214.81,-99.21 211.89,-85.8"/>
<polygon fill="midnightblue" stroke="midnightblue" points="215.3,-84.96 209.92,-75.84 208.43,-86.33 215.3,-84.96"/>
</g>
<!-- Node16 -->
<g id="node16" class="node">
<title>Node16</title>
<g id="a_node16"><a xlink:href="source__location_8h.html" target="_top" xlink:title=" ">
<polygon fill="none" stroke="black" points="379.5,-168.5 379.5,-187.5 481.5,-187.5 481.5,-168.5 379.5,-168.5"/>
<text text-anchor="middle" x="430.5" y="-175.5" font-family="Helvetica,sans-Serif" font-size="10.00">source_location.h</text>
</a>
</g>
</g>
<!-- Node7&#45;&gt;Node16 -->
<g id="edge17" class="edge">
<title>Node7&#45;&gt;Node16</title>
<path fill="none" stroke="midnightblue" d="M408.79,-224.08C412.35,-216.69 417.52,-205.95 421.92,-196.81"/>
<polygon fill="midnightblue" stroke="midnightblue" points="425.1,-198.28 426.29,-187.75 418.79,-195.24 425.1,-198.28"/>
</g>
<!-- Node13&#45;&gt;Node10 -->
<g id="edge14" class="edge">
<title>Node13&#45;&gt;Node10</title>
<path fill="none" stroke="midnightblue" d="M243.19,-59.37C305.97,-49.19 437.94,-27.79 503.23,-17.21"/>
<polygon fill="midnightblue" stroke="midnightblue" points="503.81,-20.66 513.12,-15.6 502.69,-13.75 503.81,-20.66"/>
</g>
<!-- Node13&#45;&gt;Node11 -->
<g id="edge15" class="edge">
<title>Node13&#45;&gt;Node11</title>
<path fill="none" stroke="midnightblue" d="M241.62,-56.44C281.13,-46.23 346.74,-29.28 385.68,-19.22"/>
<polygon fill="midnightblue" stroke="midnightblue" points="386.63,-22.59 395.44,-16.7 384.88,-15.81 386.63,-22.59"/>
</g>
<!-- Node14 -->
<g id="node14" class="node">
<title>Node14</title>
<g id="a_node14"><a xlink:title=" ">
<polygon fill="none" stroke="#bfbfbf" points="184,-0.5 184,-19.5 233,-19.5 233,-0.5 184,-0.5"/>
<text text-anchor="middle" x="208.5" y="-7.5" font-family="Helvetica,sans-Serif" font-size="10.00">cstdlib</text>
</a>
</g>
</g>
<!-- Node13&#45;&gt;Node14 -->
<g id="edge13" class="edge">
<title>Node13&#45;&gt;Node14</title>
<path fill="none" stroke="midnightblue" d="M208.5,-56.08C208.5,-49.01 208.5,-38.86 208.5,-29.99"/>
<polygon fill="midnightblue" stroke="midnightblue" points="212,-29.75 208.5,-19.75 205,-29.75 212,-29.75"/>
</g>
<!-- Node15 -->
<g id="node15" class="node">
<title>Node15</title>
<g id="a_node15"><a xlink:title=" ">
<polygon fill="none" stroke="#bfbfbf" points="73,-0.5 73,-19.5 142,-19.5 142,-0.5 73,-0.5"/>
<text text-anchor="middle" x="107.5" y="-7.5" font-family="Helvetica,sans-Serif" font-size="10.00">type_traits</text>
</a>
</g>
</g>
<!-- Node13&#45;&gt;Node15 -->
<g id="edge16" class="edge">
<title>Node13&#45;&gt;Node15</title>
<path fill="none" stroke="midnightblue" d="M192.27,-56.32C176.15,-47.7 151.2,-34.36 132.54,-24.39"/>
<polygon fill="midnightblue" stroke="midnightblue" points="134.16,-21.28 123.69,-19.65 130.86,-27.46 134.16,-21.28"/>
</g>
<!-- Node16&#45;&gt;Node11 -->
<g id="edge24" class="edge">
<title>Node16&#45;&gt;Node11</title>
<path fill="none" stroke="midnightblue" d="M439.79,-168.39C448.08,-160.02 459.64,-146.48 464.5,-132 467.33,-123.57 466.42,-120.68 464.5,-112 457.6,-80.82 440.05,-47.85 428.46,-28.36"/>
<polygon fill="midnightblue" stroke="midnightblue" points="431.37,-26.42 423.17,-19.72 425.4,-30.08 431.37,-26.42"/>
</g>
<!-- Node16&#45;&gt;Node12 -->
<g id="edge18" class="edge">
<title>Node16&#45;&gt;Node12</title>
<path fill="none" stroke="midnightblue" d="M405.62,-168.44C379.21,-159.36 337.28,-144.94 307.76,-134.78"/>
<polygon fill="midnightblue" stroke="midnightblue" points="308.86,-131.46 298.26,-131.52 306.58,-138.08 308.86,-131.46"/>
</g>
<!-- Node17 -->
<g id="node17" class="node">
<title>Node17</title>
<g id="a_node17"><a xlink:href="irep_8h.html" target="_top" xlink:title=" ">
<polygon fill="none" stroke="red" points="328.5,-112.5 328.5,-131.5 372.5,-131.5 372.5,-112.5 328.5,-112.5"/>
<text text-anchor="middle" x="350.5" y="-119.5" font-family="Helvetica,sans-Serif" font-size="10.00">irep.h</text>
</a>
</g>
</g>
<!-- Node16&#45;&gt;Node17 -->
<g id="edge19" class="edge">
<title>Node16&#45;&gt;Node17</title>
<path fill="none" stroke="midnightblue" d="M417.65,-168.32C405.28,-159.98 386.37,-147.21 371.76,-137.35"/>
<polygon fill="midnightblue" stroke="midnightblue" points="373.57,-134.35 363.32,-131.65 369.65,-140.15 373.57,-134.35"/>
</g>
<!-- Node33 -->
<g id="node18" class="node">
<title>Node33</title>
<g id="a_node18"><a xlink:href="optional_8h.html" target="_top" xlink:title=" ">
<polygon fill="none" stroke="red" points="391,-112.5 391,-131.5 456,-131.5 456,-112.5 391,-112.5"/>
<text text-anchor="middle" x="423.5" y="-119.5" font-family="Helvetica,sans-Serif" font-size="10.00">optional.h</text>
</a>
</g>
</g>
<!-- Node16&#45;&gt;Node33 -->
<g id="edge23" class="edge">
<title>Node16&#45;&gt;Node33</title>
<path fill="none" stroke="midnightblue" d="M429.34,-168.08C428.42,-160.93 427.08,-150.64 425.92,-141.69"/>
<polygon fill="midnightblue" stroke="midnightblue" points="429.39,-141.22 424.63,-131.75 422.45,-142.12 429.39,-141.22"/>
</g>
<!-- Node17&#45;&gt;Node3 -->
<g id="edge21" class="edge">
<title>Node17&#45;&gt;Node3</title>
<path fill="none" stroke="midnightblue" d="M359.09,-112.08C366.66,-104.22 377.88,-92.57 387.01,-83.08"/>
<polygon fill="midnightblue" stroke="midnightblue" points="389.66,-85.38 394.07,-75.75 384.62,-80.53 389.66,-85.38"/>
</g>
<!-- Node17&#45;&gt;Node11 -->
<g id="edge20" class="edge">
<title>Node17&#45;&gt;Node11</title>
<path fill="none" stroke="midnightblue" d="M351.54,-112.42C353.42,-99.39 358.3,-74.23 369.5,-56 376.62,-44.41 387.51,-33.86 397.11,-25.9"/>
<polygon fill="midnightblue" stroke="midnightblue" points="399.41,-28.54 405.1,-19.6 395.08,-23.04 399.41,-28.54"/>
</g>
<!-- Node17&#45;&gt;Node13 -->
<g id="edge22" class="edge">
<title>Node17&#45;&gt;Node13</title>
<path fill="none" stroke="midnightblue" d="M328.31,-112.56C304.8,-103.62 267.43,-89.41 240.68,-79.24"/>
<polygon fill="midnightblue" stroke="midnightblue" points="241.59,-75.84 231,-75.56 239.1,-82.38 241.59,-75.84"/>
</g>
<!-- Node35&#45;&gt;Node9 -->
<g id="edge26" class="edge">
<title>Node35&#45;&gt;Node9</title>
<path fill="none" stroke="midnightblue" d="M221.75,-224.08C214.03,-216.22 202.6,-204.57 193.28,-195.08"/>
<polygon fill="midnightblue" stroke="midnightblue" points="195.59,-192.44 186.09,-187.75 190.6,-197.34 195.59,-192.44"/>
</g>
<!-- Node36&#45;&gt;Node3 -->
<g id="edge32" class="edge">
<title>Node36&#45;&gt;Node3</title>
<path fill="none" stroke="midnightblue" d="M140.42,-224.36C137.75,-211.26 134.58,-185.99 144.5,-168 165.99,-129.03 186.92,-130.25 227.5,-112 274.24,-90.98 332.6,-78.46 368.71,-72.15"/>
<polygon fill="midnightblue" stroke="midnightblue" points="369.44,-75.58 378.72,-70.47 368.27,-68.68 369.44,-75.58"/>
</g>
<!-- Node36&#45;&gt;Node9 -->
<g id="edge28" class="edge">
<title>Node36&#45;&gt;Node9</title>
<path fill="none" stroke="midnightblue" d="M148.28,-224.08C153.17,-216.53 160.33,-205.49 166.33,-196.23"/>
<polygon fill="midnightblue" stroke="midnightblue" points="169.33,-198.05 171.83,-187.75 163.45,-194.24 169.33,-198.05"/>
</g>
<!-- Node32 -->
<g id="node21" class="node">
<title>Node32</title>
<g id="a_node21"><a xlink:href="narrow_8h.html" target="_top" xlink:title=" ">
<polygon fill="none" stroke="black" points="0,-112.5 0,-131.5 59,-131.5 59,-112.5 0,-112.5"/>
<text text-anchor="middle" x="29.5" y="-119.5" font-family="Helvetica,sans-Serif" font-size="10.00">narrow.h</text>
</a>
</g>
</g>
<!-- Node36&#45;&gt;Node32 -->
<g id="edge29" class="edge">
<title>Node36&#45;&gt;Node32</title>
<path fill="none" stroke="midnightblue" d="M133.63,-224.37C114.65,-205.89 69.86,-162.29 45.67,-138.74"/>
<polygon fill="midnightblue" stroke="midnightblue" points="47.93,-136.06 38.33,-131.59 43.05,-141.07 47.93,-136.06"/>
</g>
<!-- Node32&#45;&gt;Node13 -->
<g id="edge31" class="edge">
<title>Node32&#45;&gt;Node13</title>
<path fill="none" stroke="midnightblue" d="M57.86,-112.44C88.24,-103.28 136.61,-88.69 170.32,-78.52"/>
<polygon fill="midnightblue" stroke="midnightblue" points="171.71,-81.76 180.27,-75.52 169.68,-75.05 171.71,-81.76"/>
</g>
<!-- Node32&#45;&gt;Node15 -->
<g id="edge30" class="edge">
<title>Node32&#45;&gt;Node15</title>
<path fill="none" stroke="midnightblue" d="M35.62,-112.37C48.49,-94.22 78.57,-51.8 95.45,-27.99"/>
<polygon fill="midnightblue" stroke="midnightblue" points="98.48,-29.77 101.41,-19.59 92.77,-25.72 98.48,-29.77"/>
</g>
</g>
</svg>
