<?xml version="1.0" encoding="UTF-8" standalone="no"?>
<!DOCTYPE svg PUBLIC "-//W3C//DTD SVG 1.1//EN"
 "http://www.w3.org/Graphics/SVG/1.1/DTD/svg11.dtd">
<!-- Generated by graphviz version 2.43.0 (0)
 -->
<!-- Title: /home/runner/work/cbmc/cbmc/jbmc/src/java_bytecode/select_pointer_type.h Pages: 1 -->
<svg width="1677pt" height="284pt"
 viewBox="0.00 0.00 1677.00 284.00" xmlns="http://www.w3.org/2000/svg" xmlns:xlink="http://www.w3.org/1999/xlink">
<g id="graph0" class="graph" transform="scale(1 1) rotate(0) translate(4 280)">
<title>/home/runner/work/cbmc/cbmc/jbmc/src/java_bytecode/select_pointer_type.h</title>
<!-- Node1 -->
<g id="node1" class="node">
<title>Node1</title>
<g id="a_node1"><a xlink:title="Handle selection of correct pointer type (for example changing abstract classes to concrete versions)...">
<polygon fill="#bfbfbf" stroke="black" points="910,-234.5 910,-275.5 1074,-275.5 1074,-234.5 910,-234.5"/>
<text text-anchor="start" x="918" y="-263.5" font-family="Helvetica,sans-Serif" font-size="10.00">/home/runner/work/cbmc</text>
<text text-anchor="start" x="918" y="-252.5" font-family="Helvetica,sans-Serif" font-size="10.00">/cbmc/jbmc/src/java_bytecode</text>
<text text-anchor="middle" x="992" y="-241.5" font-family="Helvetica,sans-Serif" font-size="10.00">/select_pointer_type.h</text>
</a>
</g>
</g>
<!-- Node2 -->
<g id="node2" class="node">
<title>Node2</title>
<g id="a_node2"><a xlink:href="ci__lazy__methods__needed_8cpp.html" target="_top" xlink:title="Context&#45;insensitive lazy methods container.">
<polygon fill="none" stroke="black" points="637,-156.5 637,-197.5 801,-197.5 801,-156.5 637,-156.5"/>
<text text-anchor="start" x="645" y="-185.5" font-family="Helvetica,sans-Serif" font-size="10.00">/home/runner/work/cbmc</text>
<text text-anchor="start" x="645" y="-174.5" font-family="Helvetica,sans-Serif" font-size="10.00">/cbmc/jbmc/src/java_bytecode</text>
<text text-anchor="middle" x="719" y="-163.5" font-family="Helvetica,sans-Serif" font-size="10.00">/ci_lazy_methods_needed.cpp</text>
</a>
</g>
</g>
<!-- Node1&#45;&gt;Node2 -->
<g id="edge1" class="edge">
<title>Node1&#45;&gt;Node2</title>
<path fill="none" stroke="midnightblue" d="M911.96,-231.72C873.01,-220.87 826.6,-207.96 789.07,-197.51"/>
<polygon fill="midnightblue" stroke="midnightblue" points="911.12,-235.12 921.7,-234.43 913,-228.37 911.12,-235.12"/>
</g>
<!-- Node3 -->
<g id="node3" class="node">
<title>Node3</title>
<g id="a_node3"><a xlink:href="java__bytecode__language_8h.html" target="_top" xlink:title=" ">
<polygon fill="none" stroke="black" points="819,-156.5 819,-197.5 983,-197.5 983,-156.5 819,-156.5"/>
<text text-anchor="start" x="827" y="-185.5" font-family="Helvetica,sans-Serif" font-size="10.00">/home/runner/work/cbmc</text>
<text text-anchor="start" x="827" y="-174.5" font-family="Helvetica,sans-Serif" font-size="10.00">/cbmc/jbmc/src/java_bytecode</text>
<text text-anchor="middle" x="901" y="-163.5" font-family="Helvetica,sans-Serif" font-size="10.00">/java_bytecode_language.h</text>
</a>
</g>
</g>
<!-- Node1&#45;&gt;Node3 -->
<g id="edge2" class="edge">
<title>Node1&#45;&gt;Node3</title>
<path fill="none" stroke="midnightblue" d="M960.6,-227.78C948.71,-217.84 935.38,-206.72 924.36,-197.51"/>
<polygon fill="midnightblue" stroke="midnightblue" points="958.65,-230.7 968.57,-234.43 963.13,-225.33 958.65,-230.7"/>
</g>
<!-- Node17 -->
<g id="node17" class="node">
<title>Node17</title>
<g id="a_node17"><a xlink:href="java__object__factory_8cpp.html" target="_top" xlink:title=" ">
<polygon fill="none" stroke="black" points="1001,-156.5 1001,-197.5 1165,-197.5 1165,-156.5 1001,-156.5"/>
<text text-anchor="start" x="1009" y="-185.5" font-family="Helvetica,sans-Serif" font-size="10.00">/home/runner/work/cbmc</text>
<text text-anchor="start" x="1009" y="-174.5" font-family="Helvetica,sans-Serif" font-size="10.00">/cbmc/jbmc/src/java_bytecode</text>
<text text-anchor="middle" x="1083" y="-163.5" font-family="Helvetica,sans-Serif" font-size="10.00">/java_object_factory.cpp</text>
</a>
</g>
</g>
<!-- Node1&#45;&gt;Node17 -->
<g id="edge18" class="edge">
<title>Node1&#45;&gt;Node17</title>
<path fill="none" stroke="midnightblue" d="M1023.4,-227.78C1035.29,-217.84 1048.62,-206.72 1059.64,-197.51"/>
<polygon fill="midnightblue" stroke="midnightblue" points="1020.87,-225.33 1015.43,-234.43 1025.35,-230.7 1020.87,-225.33"/>
</g>
<!-- Node18 -->
<g id="node18" class="node">
<title>Node18</title>
<g id="a_node18"><a xlink:href="select__pointer__type_8cpp.html" target="_top" xlink:title="Handle selection of correct pointer type (for example changing abstract classes to concrete versions)...">
<polygon fill="none" stroke="black" points="1183,-156.5 1183,-197.5 1347,-197.5 1347,-156.5 1183,-156.5"/>
<text text-anchor="start" x="1191" y="-185.5" font-family="Helvetica,sans-Serif" font-size="10.00">/home/runner/work/cbmc</text>
<text text-anchor="start" x="1191" y="-174.5" font-family="Helvetica,sans-Serif" font-size="10.00">/cbmc/jbmc/src/java_bytecode</text>
<text text-anchor="middle" x="1265" y="-163.5" font-family="Helvetica,sans-Serif" font-size="10.00">/select_pointer_type.cpp</text>
</a>
</g>
</g>
<!-- Node1&#45;&gt;Node18 -->
<g id="edge19" class="edge">
<title>Node1&#45;&gt;Node18</title>
<path fill="none" stroke="midnightblue" d="M1072.04,-231.72C1110.99,-220.87 1157.4,-207.96 1194.93,-197.51"/>
<polygon fill="midnightblue" stroke="midnightblue" points="1071,-228.37 1062.3,-234.43 1072.88,-235.12 1071,-228.37"/>
</g>
<!-- Node4 -->
<g id="node4" class="node">
<title>Node4</title>
<g id="a_node4"><a xlink:href="janalyzer__parse__options_8cpp.html" target="_top" xlink:title="JANALYZER Command Line Option Processing.">
<polygon fill="none" stroke="black" points="0,-0.5 0,-41.5 158,-41.5 158,-0.5 0,-0.5"/>
<text text-anchor="start" x="8" y="-29.5" font-family="Helvetica,sans-Serif" font-size="10.00">/home/runner/work/cbmc</text>
<text text-anchor="start" x="8" y="-18.5" font-family="Helvetica,sans-Serif" font-size="10.00">/cbmc/jbmc/src/janalyzer</text>
<text text-anchor="middle" x="79" y="-7.5" font-family="Helvetica,sans-Serif" font-size="10.00">/janalyzer_parse_options.cpp</text>
</a>
</g>
</g>
<!-- Node3&#45;&gt;Node4 -->
<g id="edge3" class="edge">
<title>Node3&#45;&gt;Node4</title>
<path fill="none" stroke="midnightblue" d="M808.5,-156.23C693.96,-147.13 155.83,-170.2 98,-120 75.88,-100.8 74.69,-64.24 76.43,-41.61"/>
<polygon fill="midnightblue" stroke="midnightblue" points="808.46,-159.75 818.77,-157.29 809.18,-152.78 808.46,-159.75"/>
</g>
<!-- Node5 -->
<g id="node5" class="node">
<title>Node5</title>
<g id="a_node5"><a xlink:href="janalyzer__parse__options_8h.html" target="_top" xlink:title="JANALYZER Command Line Option Processing.">
<polygon fill="none" stroke="black" points="107.5,-78.5 107.5,-119.5 254.5,-119.5 254.5,-78.5 107.5,-78.5"/>
<text text-anchor="start" x="115.5" y="-107.5" font-family="Helvetica,sans-Serif" font-size="10.00">/home/runner/work/cbmc</text>
<text text-anchor="start" x="115.5" y="-96.5" font-family="Helvetica,sans-Serif" font-size="10.00">/cbmc/jbmc/src/janalyzer</text>
<text text-anchor="middle" x="181" y="-85.5" font-family="Helvetica,sans-Serif" font-size="10.00">/janalyzer_parse_options.h</text>
</a>
</g>
</g>
<!-- Node3&#45;&gt;Node5 -->
<g id="edge4" class="edge">
<title>Node3&#45;&gt;Node5</title>
<path fill="none" stroke="midnightblue" d="M808.63,-155.93C567.42,-122.74 501.13,-156.12 264,-120 260.92,-119.53 257.79,-119 254.64,-118.43"/>
<polygon fill="midnightblue" stroke="midnightblue" points="808.37,-159.42 818.76,-157.34 809.34,-152.49 808.37,-159.42"/>
</g>
<!-- Node7 -->
<g id="node7" class="node">
<title>Node7</title>
<g id="a_node7"><a xlink:href="ci__lazy__methods_8cpp.html" target="_top" xlink:title=" ">
<polygon fill="none" stroke="black" points="273,-78.5 273,-119.5 437,-119.5 437,-78.5 273,-78.5"/>
<text text-anchor="start" x="281" y="-107.5" font-family="Helvetica,sans-Serif" font-size="10.00">/home/runner/work/cbmc</text>
<text text-anchor="start" x="281" y="-96.5" font-family="Helvetica,sans-Serif" font-size="10.00">/cbmc/jbmc/src/java_bytecode</text>
<text text-anchor="middle" x="355" y="-85.5" font-family="Helvetica,sans-Serif" font-size="10.00">/ci_lazy_methods.cpp</text>
</a>
</g>
</g>
<!-- Node3&#45;&gt;Node7 -->
<g id="edge7" class="edge">
<title>Node3&#45;&gt;Node7</title>
<path fill="none" stroke="midnightblue" d="M808.48,-155.86C647.64,-131.11 603.26,-144.97 446,-120 443.12,-119.54 440.2,-119.05 437.26,-118.53"/>
<polygon fill="midnightblue" stroke="midnightblue" points="808.32,-159.38 818.74,-157.47 809.4,-152.46 808.32,-159.38"/>
</g>
<!-- Node8 -->
<g id="node8" class="node">
<title>Node8</title>
<g id="a_node8"><a xlink:href="java__bytecode__language_8cpp.html" target="_top" xlink:title=" ">
<polygon fill="none" stroke="black" points="455,-78.5 455,-119.5 619,-119.5 619,-78.5 455,-78.5"/>
<text text-anchor="start" x="463" y="-107.5" font-family="Helvetica,sans-Serif" font-size="10.00">/home/runner/work/cbmc</text>
<text text-anchor="start" x="463" y="-96.5" font-family="Helvetica,sans-Serif" font-size="10.00">/cbmc/jbmc/src/java_bytecode</text>
<text text-anchor="middle" x="537" y="-85.5" font-family="Helvetica,sans-Serif" font-size="10.00">/java_bytecode_language.cpp</text>
</a>
</g>
</g>
<!-- Node3&#45;&gt;Node8 -->
<g id="edge8" class="edge">
<title>Node3&#45;&gt;Node8</title>
<path fill="none" stroke="midnightblue" d="M808.51,-155.71C727.59,-138.95 705.56,-136.19 628,-120 625.15,-119.4 622.25,-118.79 619.32,-118.17"/>
<polygon fill="midnightblue" stroke="midnightblue" points="808.17,-159.22 818.68,-157.83 809.6,-152.36 808.17,-159.22"/>
</g>
<!-- Node9 -->
<g id="node9" class="node">
<title>Node9</title>
<g id="a_node9"><a xlink:href="java__entry__point_8cpp.html" target="_top" xlink:title=" ">
<polygon fill="none" stroke="black" points="637,-78.5 637,-119.5 801,-119.5 801,-78.5 637,-78.5"/>
<text text-anchor="start" x="645" y="-107.5" font-family="Helvetica,sans-Serif" font-size="10.00">/home/runner/work/cbmc</text>
<text text-anchor="start" x="645" y="-96.5" font-family="Helvetica,sans-Serif" font-size="10.00">/cbmc/jbmc/src/java_bytecode</text>
<text text-anchor="middle" x="719" y="-85.5" font-family="Helvetica,sans-Serif" font-size="10.00">/java_entry_point.cpp</text>
</a>
</g>
</g>
<!-- Node3&#45;&gt;Node9 -->
<g id="edge9" class="edge">
<title>Node3&#45;&gt;Node9</title>
<path fill="none" stroke="midnightblue" d="M844.65,-152.47C819.32,-141.89 789.78,-129.56 765.71,-119.51"/>
<polygon fill="midnightblue" stroke="midnightblue" points="843.55,-155.8 854.13,-156.43 846.25,-149.34 843.55,-155.8"/>
</g>
<!-- Node10 -->
<g id="node10" class="node">
<title>Node10</title>
<g id="a_node10"><a xlink:href="lazy__goto__model_8cpp.html" target="_top" xlink:title="Author: Diffblue Ltd.">
<polygon fill="none" stroke="black" points="819,-78.5 819,-119.5 983,-119.5 983,-78.5 819,-78.5"/>
<text text-anchor="start" x="827" y="-107.5" font-family="Helvetica,sans-Serif" font-size="10.00">/home/runner/work/cbmc</text>
<text text-anchor="start" x="827" y="-96.5" font-family="Helvetica,sans-Serif" font-size="10.00">/cbmc/jbmc/src/java_bytecode</text>
<text text-anchor="middle" x="901" y="-85.5" font-family="Helvetica,sans-Serif" font-size="10.00">/lazy_goto_model.cpp</text>
</a>
</g>
</g>
<!-- Node3&#45;&gt;Node10 -->
<g id="edge10" class="edge">
<title>Node3&#45;&gt;Node10</title>
<path fill="none" stroke="midnightblue" d="M901,-146.3C901,-137.3 901,-127.65 901,-119.51"/>
<polygon fill="midnightblue" stroke="midnightblue" points="897.5,-146.43 901,-156.43 904.5,-146.43 897.5,-146.43"/>
</g>
<!-- Node11 -->
<g id="node11" class="node">
<title>Node11</title>
<g id="a_node11"><a xlink:href="jbmc__parse__options_8cpp.html" target="_top" xlink:title="JBMC Command Line Option Processing.">
<polygon fill="none" stroke="black" points="939,-0.5 939,-41.5 1083,-41.5 1083,-0.5 939,-0.5"/>
<text text-anchor="start" x="947" y="-29.5" font-family="Helvetica,sans-Serif" font-size="10.00">/home/runner/work/cbmc</text>
<text text-anchor="start" x="947" y="-18.5" font-family="Helvetica,sans-Serif" font-size="10.00">/cbmc/jbmc/src/jbmc/jbmc</text>
<text text-anchor="middle" x="1011" y="-7.5" font-family="Helvetica,sans-Serif" font-size="10.00">_parse_options.cpp</text>
</a>
</g>
</g>
<!-- Node3&#45;&gt;Node11 -->
<g id="edge11" class="edge">
<title>Node3&#45;&gt;Node11</title>
<path fill="none" stroke="midnightblue" d="M957.18,-151.39C970.39,-143.17 983.17,-132.76 992,-120 1008.17,-96.63 1011.42,-62.98 1011.67,-41.82"/>
<polygon fill="midnightblue" stroke="midnightblue" points="955.35,-148.41 948.48,-156.48 958.88,-154.45 955.35,-148.41"/>
</g>
<!-- Node12 -->
<g id="node12" class="node">
<title>Node12</title>
<g id="a_node12"><a xlink:href="jbmc__parse__options_8h.html" target="_top" xlink:title="JBMC Command Line Option Processing.">
<polygon fill="none" stroke="black" points="1039,-78.5 1039,-119.5 1183,-119.5 1183,-78.5 1039,-78.5"/>
<text text-anchor="start" x="1047" y="-107.5" font-family="Helvetica,sans-Serif" font-size="10.00">/home/runner/work/cbmc</text>
<text text-anchor="start" x="1047" y="-96.5" font-family="Helvetica,sans-Serif" font-size="10.00">/cbmc/jbmc/src/jbmc/jbmc</text>
<text text-anchor="middle" x="1111" y="-85.5" font-family="Helvetica,sans-Serif" font-size="10.00">_parse_options.h</text>
</a>
</g>
</g>
<!-- Node3&#45;&gt;Node12 -->
<g id="edge12" class="edge">
<title>Node3&#45;&gt;Node12</title>
<path fill="none" stroke="midnightblue" d="M964.86,-152.89C994.34,-142.22 1028.96,-129.69 1057.1,-119.51"/>
<polygon fill="midnightblue" stroke="midnightblue" points="963.29,-149.73 955.08,-156.43 965.67,-156.32 963.29,-149.73"/>
</g>
<!-- Node14 -->
<g id="node14" class="node">
<title>Node14</title>
<g id="a_node14"><a xlink:href="jdiff__languages_8cpp.html" target="_top" xlink:title="Language Registration.">
<polygon fill="none" stroke="black" points="1201,-78.5 1201,-119.5 1339,-119.5 1339,-78.5 1201,-78.5"/>
<text text-anchor="start" x="1209" y="-107.5" font-family="Helvetica,sans-Serif" font-size="10.00">/home/runner/work/cbmc</text>
<text text-anchor="start" x="1209" y="-96.5" font-family="Helvetica,sans-Serif" font-size="10.00">/cbmc/jbmc/src/jdiff/jdiff</text>
<text text-anchor="middle" x="1270" y="-85.5" font-family="Helvetica,sans-Serif" font-size="10.00">_languages.cpp</text>
</a>
</g>
</g>
<!-- Node3&#45;&gt;Node14 -->
<g id="edge15" class="edge">
<title>Node3&#45;&gt;Node14</title>
<path fill="none" stroke="midnightblue" d="M993.3,-155.78C1082.28,-138.34 1106.86,-138.55 1192,-120 1194.87,-119.37 1197.79,-118.72 1200.74,-118.04"/>
<polygon fill="midnightblue" stroke="midnightblue" points="992.44,-152.39 983.31,-157.76 993.8,-159.25 992.44,-152.39"/>
</g>
<!-- Node15 -->
<g id="node15" class="node">
<title>Node15</title>
<g id="a_node15"><a xlink:href="jdiff__parse__options_8cpp.html" target="_top" xlink:title="JDIFF Command Line Option Processing.">
<polygon fill="none" stroke="black" points="1357,-78.5 1357,-119.5 1495,-119.5 1495,-78.5 1357,-78.5"/>
<text text-anchor="start" x="1365" y="-107.5" font-family="Helvetica,sans-Serif" font-size="10.00">/home/runner/work/cbmc</text>
<text text-anchor="start" x="1365" y="-96.5" font-family="Helvetica,sans-Serif" font-size="10.00">/cbmc/jbmc/src/jdiff/jdiff</text>
<text text-anchor="middle" x="1426" y="-85.5" font-family="Helvetica,sans-Serif" font-size="10.00">_parse_options.cpp</text>
</a>
</g>
</g>
<!-- Node3&#45;&gt;Node15 -->
<g id="edge16" class="edge">
<title>Node3&#45;&gt;Node15</title>
<path fill="none" stroke="midnightblue" d="M993.3,-155.89C1150.82,-131.57 1194.64,-147.26 1348,-120 1350.89,-119.49 1353.83,-118.92 1356.8,-118.32"/>
<polygon fill="midnightblue" stroke="midnightblue" points="992.59,-152.46 983.26,-157.47 993.68,-159.38 992.59,-152.46"/>
</g>
<!-- Node16 -->
<g id="node16" class="node">
<title>Node16</title>
<g id="a_node16"><a xlink:href="load__java__class_8cpp.html" target="_top" xlink:title=" ">
<polygon fill="none" stroke="black" points="1513,-78.5 1513,-119.5 1669,-119.5 1669,-78.5 1513,-78.5"/>
<text text-anchor="start" x="1521" y="-107.5" font-family="Helvetica,sans-Serif" font-size="10.00">/home/runner/work/cbmc</text>
<text text-anchor="start" x="1521" y="-96.5" font-family="Helvetica,sans-Serif" font-size="10.00">/cbmc/jbmc/unit/java&#45;testing</text>
<text text-anchor="middle" x="1591" y="-85.5" font-family="Helvetica,sans-Serif" font-size="10.00">&#45;utils/load_java_class.cpp</text>
</a>
</g>
</g>
<!-- Node3&#45;&gt;Node16 -->
<g id="edge17" class="edge">
<title>Node3&#45;&gt;Node16</title>
<path fill="none" stroke="midnightblue" d="M993.44,-155.91C1219.59,-124.3 1281.68,-153.16 1504,-120 1506.91,-119.57 1509.87,-119.09 1512.86,-118.57"/>
<polygon fill="midnightblue" stroke="midnightblue" points="992.65,-152.49 983.24,-157.36 993.63,-159.42 992.65,-152.49"/>
</g>
<!-- Node5&#45;&gt;Node4 -->
<g id="edge6" class="edge">
<title>Node5&#45;&gt;Node4</title>
<path fill="none" stroke="midnightblue" d="M146.58,-72.35C133.05,-62.27 117.78,-50.89 105.18,-41.51"/>
<polygon fill="midnightblue" stroke="midnightblue" points="144.62,-75.26 154.73,-78.43 148.8,-69.65 144.62,-75.26"/>
</g>
<!-- Node6 -->
<g id="node6" class="node">
<title>Node6</title>
<g id="a_node6"><a xlink:href="janalyzer__main_8cpp.html" target="_top" xlink:title="JANALYZER Main Module.">
<polygon fill="none" stroke="black" points="176,-0.5 176,-41.5 314,-41.5 314,-0.5 176,-0.5"/>
<text text-anchor="start" x="184" y="-29.5" font-family="Helvetica,sans-Serif" font-size="10.00">/home/runner/work/cbmc</text>
<text text-anchor="start" x="184" y="-18.5" font-family="Helvetica,sans-Serif" font-size="10.00">/cbmc/jbmc/src/janalyzer</text>
<text text-anchor="middle" x="245" y="-7.5" font-family="Helvetica,sans-Serif" font-size="10.00">/janalyzer_main.cpp</text>
</a>
</g>
</g>
<!-- Node5&#45;&gt;Node6 -->
<g id="edge5" class="edge">
<title>Node5&#45;&gt;Node6</title>
<path fill="none" stroke="midnightblue" d="M204.05,-70.63C212.17,-60.99 221.12,-50.36 228.57,-41.51"/>
<polygon fill="midnightblue" stroke="midnightblue" points="201.25,-68.52 197.48,-78.43 206.6,-73.03 201.25,-68.52"/>
</g>
<!-- Node12&#45;&gt;Node11 -->
<g id="edge14" class="edge">
<title>Node12&#45;&gt;Node11</title>
<path fill="none" stroke="midnightblue" d="M1077.25,-72.35C1063.99,-62.27 1049.02,-50.89 1036.67,-41.51"/>
<polygon fill="midnightblue" stroke="midnightblue" points="1075.17,-75.16 1085.25,-78.43 1079.4,-69.59 1075.17,-75.16"/>
</g>
<!-- Node13 -->
<g id="node13" class="node">
<title>Node13</title>
<g id="a_node13"><a xlink:href="jbmc__main_8cpp.html" target="_top" xlink:title="CBMC Main Module.">
<polygon fill="none" stroke="black" points="1101,-0.5 1101,-41.5 1245,-41.5 1245,-0.5 1101,-0.5"/>
<text text-anchor="start" x="1109" y="-29.5" font-family="Helvetica,sans-Serif" font-size="10.00">/home/runner/work/cbmc</text>
<text text-anchor="start" x="1109" y="-18.5" font-family="Helvetica,sans-Serif" font-size="10.00">/cbmc/jbmc/src/jbmc/jbmc</text>
<text text-anchor="middle" x="1173" y="-7.5" font-family="Helvetica,sans-Serif" font-size="10.00">_main.cpp</text>
</a>
</g>
</g>
<!-- Node12&#45;&gt;Node13 -->
<g id="edge13" class="edge">
<title>Node12&#45;&gt;Node13</title>
<path fill="none" stroke="midnightblue" d="M1133.33,-70.63C1141.19,-60.99 1149.86,-50.36 1157.09,-41.51"/>
<polygon fill="midnightblue" stroke="midnightblue" points="1130.58,-68.47 1126.97,-78.43 1136,-72.89 1130.58,-68.47"/>
</g>
</g>
</svg>
