<?xml version="1.0" encoding="UTF-8" standalone="no"?>
<!DOCTYPE svg PUBLIC "-//W3C//DTD SVG 1.1//EN"
 "http://www.w3.org/Graphics/SVG/1.1/DTD/svg11.dtd">
<!-- Generated by graphviz version 2.43.0 (0)
 -->
<!-- Title: /home/runner/work/cbmc/cbmc/src/util/simplify_expr_struct.cpp Pages: 1 -->
<svg width="1337pt" height="778pt"
 viewBox="0.00 0.00 1336.50 778.00" xmlns="http://www.w3.org/2000/svg" xmlns:xlink="http://www.w3.org/1999/xlink">
<g id="graph0" class="graph" transform="scale(1 1) rotate(0) translate(4 774)">
<title>/home/runner/work/cbmc/cbmc/src/util/simplify_expr_struct.cpp</title>
<!-- Node1 -->
<g id="node1" class="node">
<title>Node1</title>
<g id="a_node1"><a xlink:title=" ">
<polygon fill="#bfbfbf" stroke="black" points="456,-728.5 456,-769.5 594,-769.5 594,-728.5 456,-728.5"/>
<text text-anchor="start" x="464" y="-757.5" font-family="Helvetica,sans-Serif" font-size="10.00">/home/runner/work/cbmc</text>
<text text-anchor="start" x="464" y="-746.5" font-family="Helvetica,sans-Serif" font-size="10.00">/cbmc/src/util/simplify</text>
<text text-anchor="middle" x="525" y="-735.5" font-family="Helvetica,sans-Serif" font-size="10.00">_expr_struct.cpp</text>
</a>
</g>
</g>
<!-- Node2 -->
<g id="node2" class="node">
<title>Node2</title>
<g id="a_node2"><a xlink:href="simplify__expr__class_8h.html" target="_top" xlink:title=" ">
<polygon fill="none" stroke="black" points="574,-448.5 574,-467.5 696,-467.5 696,-448.5 574,-448.5"/>
<text text-anchor="middle" x="635" y="-455.5" font-family="Helvetica,sans-Serif" font-size="10.00">simplify_expr_class.h</text>
</a>
</g>
</g>
<!-- Node1&#45;&gt;Node2 -->
<g id="edge1" class="edge">
<title>Node1&#45;&gt;Node2</title>
<path fill="none" stroke="midnightblue" d="M525,-728.3C525,-704.35 525,-662.71 525,-627 525,-627 525,-627 525,-569 525,-522.91 573.88,-489.39 606.47,-472.16"/>
<polygon fill="midnightblue" stroke="midnightblue" points="608.25,-475.18 615.59,-467.54 605.09,-468.94 608.25,-475.18"/>
</g>
<!-- Node12 -->
<g id="node12" class="node">
<title>Node12</title>
<g id="a_node12"><a xlink:href="src_2util_2invariant_8h.html" target="_top" xlink:title=" ">
<polygon fill="none" stroke="red" points="240.5,-56.5 240.5,-75.5 309.5,-75.5 309.5,-56.5 240.5,-56.5"/>
<text text-anchor="middle" x="275" y="-63.5" font-family="Helvetica,sans-Serif" font-size="10.00">invariant.h</text>
</a>
</g>
</g>
<!-- Node1&#45;&gt;Node12 -->
<g id="edge68" class="edge">
<title>Node1&#45;&gt;Node12</title>
<path fill="none" stroke="midnightblue" d="M455.83,-746.42C313.27,-741.29 0,-719.48 0,-627 0,-627 0,-627 0,-233 0,-126.66 152.58,-86.64 230.44,-73.14"/>
<polygon fill="midnightblue" stroke="midnightblue" points="231.16,-76.56 240.45,-71.47 230.01,-69.66 231.16,-76.56"/>
</g>
<!-- Node42 -->
<g id="node28" class="node">
<title>Node42</title>
<g id="a_node28"><a xlink:href="arith__tools_8h.html" target="_top" xlink:title=" ">
<polygon fill="none" stroke="black" points="678.5,-616.5 678.5,-635.5 755.5,-635.5 755.5,-616.5 678.5,-616.5"/>
<text text-anchor="middle" x="717" y="-623.5" font-family="Helvetica,sans-Serif" font-size="10.00">arith_tools.h</text>
</a>
</g>
</g>
<!-- Node1&#45;&gt;Node42 -->
<g id="edge39" class="edge">
<title>Node1&#45;&gt;Node42</title>
<path fill="none" stroke="midnightblue" d="M556.28,-728.29C595.13,-703.81 660.45,-662.64 694.63,-641.1"/>
<polygon fill="midnightblue" stroke="midnightblue" points="696.8,-643.87 703.39,-635.57 693.07,-637.95 696.8,-643.87"/>
</g>
<!-- Node43 -->
<g id="node29" class="node">
<title>Node43</title>
<g id="a_node29"><a xlink:href="std__expr_8h.html" target="_top" xlink:title=" ">
<polygon fill="none" stroke="black" points="310.5,-560.5 310.5,-579.5 377.5,-579.5 377.5,-560.5 310.5,-560.5"/>
<text text-anchor="middle" x="344" y="-567.5" font-family="Helvetica,sans-Serif" font-size="10.00">std_expr.h</text>
</a>
</g>
</g>
<!-- Node1&#45;&gt;Node43 -->
<g id="edge80" class="edge">
<title>Node1&#45;&gt;Node43</title>
<path fill="none" stroke="midnightblue" d="M479.96,-728.5C461.62,-719.17 441.01,-706.78 425,-692 391.7,-661.25 365.31,-614.22 352.49,-588.8"/>
<polygon fill="midnightblue" stroke="midnightblue" points="355.53,-587.05 347.98,-579.62 349.25,-590.14 355.53,-587.05"/>
</g>
<!-- Node48 -->
<g id="node35" class="node">
<title>Node48</title>
<g id="a_node35"><a xlink:href="byte__operators_8h.html" target="_top" xlink:title="Expression classes for byte&#45;level operators.">
<polygon fill="none" stroke="black" points="251.5,-616.5 251.5,-635.5 350.5,-635.5 350.5,-616.5 251.5,-616.5"/>
<text text-anchor="middle" x="301" y="-623.5" font-family="Helvetica,sans-Serif" font-size="10.00">byte_operators.h</text>
</a>
</g>
</g>
<!-- Node1&#45;&gt;Node48 -->
<g id="edge59" class="edge">
<title>Node1&#45;&gt;Node48</title>
<path fill="none" stroke="midnightblue" d="M455.71,-731.29C426.34,-722.34 392.59,-709.49 365,-692 344.62,-679.08 325.83,-658.51 313.95,-643.98"/>
<polygon fill="midnightblue" stroke="midnightblue" points="316.45,-641.5 307.5,-635.83 310.96,-645.84 316.45,-641.5"/>
</g>
<!-- Node49 -->
<g id="node36" class="node">
<title>Node49</title>
<g id="a_node36"><a xlink:href="c__types_8h.html" target="_top" xlink:title=" ">
<polygon fill="none" stroke="black" points="433.5,-672.5 433.5,-691.5 496.5,-691.5 496.5,-672.5 433.5,-672.5"/>
<text text-anchor="middle" x="465" y="-679.5" font-family="Helvetica,sans-Serif" font-size="10.00">c_types.h</text>
</a>
</g>
</g>
<!-- Node1&#45;&gt;Node49 -->
<g id="edge62" class="edge">
<title>Node1&#45;&gt;Node49</title>
<path fill="none" stroke="midnightblue" d="M507,-728.5C498.33,-719.11 488.06,-707.98 479.85,-699.08"/>
<polygon fill="midnightblue" stroke="midnightblue" points="482.34,-696.63 472.99,-691.65 477.2,-701.37 482.34,-696.63"/>
</g>
<!-- Node52 -->
<g id="node39" class="node">
<title>Node52</title>
<g id="a_node39"><a xlink:href="namespace_8h.html" target="_top" xlink:title=" ">
<polygon fill="none" stroke="black" points="987,-168.5 987,-187.5 1069,-187.5 1069,-168.5 987,-168.5"/>
<text text-anchor="middle" x="1028" y="-175.5" font-family="Helvetica,sans-Serif" font-size="10.00">namespace.h</text>
</a>
</g>
</g>
<!-- Node1&#45;&gt;Node52 -->
<g id="edge69" class="edge">
<title>Node1&#45;&gt;Node52</title>
<path fill="none" stroke="midnightblue" d="M594.13,-747.1C741.45,-743.31 1073,-724 1073,-627 1073,-627 1073,-627 1073,-289 1073,-253.93 1053.16,-216.94 1039.83,-196.04"/>
<polygon fill="midnightblue" stroke="midnightblue" points="1042.7,-194.03 1034.26,-187.63 1036.87,-197.9 1042.7,-194.03"/>
</g>
<!-- Node53 -->
<g id="node40" class="node">
<title>Node53</title>
<g id="a_node40"><a xlink:href="pointer__offset__size_8h.html" target="_top" xlink:title=" ">
<polygon fill="none" stroke="black" points="1101,-448.5 1101,-467.5 1219,-467.5 1219,-448.5 1101,-448.5"/>
<text text-anchor="middle" x="1160" y="-455.5" font-family="Helvetica,sans-Serif" font-size="10.00">pointer_offset_size.h</text>
</a>
</g>
</g>
<!-- Node1&#45;&gt;Node53 -->
<g id="edge72" class="edge">
<title>Node1&#45;&gt;Node53</title>
<path fill="none" stroke="midnightblue" d="M594.14,-748C725.29,-746.9 1004.48,-738.92 1087,-692 1118.22,-674.25 1135,-662.91 1135,-627 1135,-627 1135,-627 1135,-569 1135,-536 1145.83,-498.77 1153.24,-477.19"/>
<polygon fill="midnightblue" stroke="midnightblue" points="1156.57,-478.28 1156.63,-467.69 1149.97,-475.93 1156.57,-478.28"/>
</g>
<!-- Node54 -->
<g id="node41" class="node">
<title>Node54</title>
<g id="a_node41"><a xlink:href="simplify__utils_8h.html" target="_top" xlink:title=" ">
<polygon fill="none" stroke="black" points="1237.5,-448.5 1237.5,-467.5 1328.5,-467.5 1328.5,-448.5 1237.5,-448.5"/>
<text text-anchor="middle" x="1283" y="-455.5" font-family="Helvetica,sans-Serif" font-size="10.00">simplify_utils.h</text>
</a>
</g>
</g>
<!-- Node1&#45;&gt;Node54 -->
<g id="edge76" class="edge">
<title>Node1&#45;&gt;Node54</title>
<path fill="none" stroke="midnightblue" d="M594.18,-744.76C728.32,-737.94 1019.03,-720.33 1115,-692 1175.06,-674.27 1240,-689.62 1240,-627 1240,-627 1240,-627 1240,-569 1240,-534.31 1258.78,-497.42 1271.52,-476.4"/>
<polygon fill="midnightblue" stroke="midnightblue" points="1274.65,-478 1277.02,-467.67 1268.73,-474.27 1274.65,-478"/>
</g>
<!-- Node3 -->
<g id="node3" class="node">
<title>Node3</title>
<g id="a_node3"><a xlink:title=" ">
<polygon fill="none" stroke="#bfbfbf" points="755,-392.5 755,-411.5 787,-411.5 787,-392.5 755,-392.5"/>
<text text-anchor="middle" x="771" y="-399.5" font-family="Helvetica,sans-Serif" font-size="10.00">set</text>
</a>
</g>
</g>
<!-- Node2&#45;&gt;Node3 -->
<g id="edge2" class="edge">
<title>Node2&#45;&gt;Node3</title>
<path fill="none" stroke="midnightblue" d="M656.55,-448.44C680.62,-438.89 719.56,-423.43 745.22,-413.24"/>
<polygon fill="midnightblue" stroke="midnightblue" points="746.67,-416.43 754.67,-409.48 744.09,-409.92 746.67,-416.43"/>
</g>
<!-- Node4 -->
<g id="node4" class="node">
<title>Node4</title>
<g id="a_node4"><a xlink:href="expr_8h.html" target="_top" xlink:title=" ">
<polygon fill="none" stroke="black" points="559.5,-392.5 559.5,-411.5 606.5,-411.5 606.5,-392.5 559.5,-392.5"/>
<text text-anchor="middle" x="583" y="-399.5" font-family="Helvetica,sans-Serif" font-size="10.00">expr.h</text>
</a>
</g>
</g>
<!-- Node2&#45;&gt;Node4 -->
<g id="edge3" class="edge">
<title>Node2&#45;&gt;Node4</title>
<path fill="none" stroke="midnightblue" d="M626.41,-448.08C618.84,-440.22 607.62,-428.57 598.49,-419.08"/>
<polygon fill="midnightblue" stroke="midnightblue" points="600.88,-416.53 591.43,-411.75 595.84,-421.38 600.88,-416.53"/>
</g>
<!-- Node6 -->
<g id="node6" class="node">
<title>Node6</title>
<g id="a_node6"><a xlink:href="type_8h.html" target="_top" xlink:title=" ">
<polygon fill="none" stroke="black" points="667.5,-336.5 667.5,-355.5 714.5,-355.5 714.5,-336.5 667.5,-336.5"/>
<text text-anchor="middle" x="691" y="-343.5" font-family="Helvetica,sans-Serif" font-size="10.00">type.h</text>
</a>
</g>
</g>
<!-- Node2&#45;&gt;Node6 -->
<g id="edge38" class="edge">
<title>Node2&#45;&gt;Node6</title>
<path fill="none" stroke="midnightblue" d="M636.61,-448.18C639.21,-435.29 645.06,-410.79 655,-392 660.49,-381.63 668.5,-371.32 675.58,-363.19"/>
<polygon fill="midnightblue" stroke="midnightblue" points="678.34,-365.35 682.46,-355.59 673.15,-360.65 678.34,-365.35"/>
</g>
<!-- Node39 -->
<g id="node24" class="node">
<title>Node39</title>
<g id="a_node24"><a xlink:href="mp__arith_8h.html" target="_top" xlink:title=" ">
<polygon fill="none" stroke="black" points="805.5,-392.5 805.5,-411.5 874.5,-411.5 874.5,-392.5 805.5,-392.5"/>
<text text-anchor="middle" x="840" y="-399.5" font-family="Helvetica,sans-Serif" font-size="10.00">mp_arith.h</text>
</a>
</g>
</g>
<!-- Node2&#45;&gt;Node39 -->
<g id="edge33" class="edge">
<title>Node2&#45;&gt;Node39</title>
<path fill="none" stroke="midnightblue" d="M667.48,-448.44C702.72,-439.16 759.1,-424.31 797.76,-414.13"/>
<polygon fill="midnightblue" stroke="midnightblue" points="798.89,-417.45 807.67,-411.52 797.11,-410.68 798.89,-417.45"/>
</g>
<!-- Node41 -->
<g id="node27" class="node">
<title>Node41</title>
<g id="a_node27"><a xlink:href="nodiscard_8h.html" target="_top" xlink:title=" ">
<polygon fill="none" stroke="black" points="663.5,-392.5 663.5,-411.5 736.5,-411.5 736.5,-392.5 663.5,-392.5"/>
<text text-anchor="middle" x="700" y="-399.5" font-family="Helvetica,sans-Serif" font-size="10.00">nodiscard.h</text>
</a>
</g>
</g>
<!-- Node2&#45;&gt;Node41 -->
<g id="edge37" class="edge">
<title>Node2&#45;&gt;Node41</title>
<path fill="none" stroke="midnightblue" d="M645.44,-448.32C655.15,-440.26 669.82,-428.08 681.5,-418.37"/>
<polygon fill="midnightblue" stroke="midnightblue" points="683.91,-420.92 689.37,-411.83 679.44,-415.53 683.91,-420.92"/>
</g>
<!-- Node5 -->
<g id="node5" class="node">
<title>Node5</title>
<g id="a_node5"><a xlink:href="as__const_8h.html" target="_top" xlink:title=" ">
<polygon fill="none" stroke="black" points="657,-0.5 657,-19.5 725,-19.5 725,-0.5 657,-0.5"/>
<text text-anchor="middle" x="691" y="-7.5" font-family="Helvetica,sans-Serif" font-size="10.00">as_const.h</text>
</a>
</g>
</g>
<!-- Node4&#45;&gt;Node5 -->
<g id="edge4" class="edge">
<title>Node4&#45;&gt;Node5</title>
<path fill="none" stroke="midnightblue" d="M606.58,-396.91C642.95,-390.07 710.02,-375.14 724,-356 738.35,-336.36 714.78,-297.52 703,-280 689.84,-260.43 676.43,-264.05 664,-244 648.14,-218.42 645,-209.1 645,-179 645,-179 645,-179 645,-121 645,-85.82 665.28,-48.86 678.91,-28"/>
<polygon fill="midnightblue" stroke="midnightblue" points="681.88,-29.85 684.6,-19.61 676.09,-25.92 681.88,-29.85"/>
</g>
<!-- Node4&#45;&gt;Node6 -->
<g id="edge5" class="edge">
<title>Node4&#45;&gt;Node6</title>
<path fill="none" stroke="midnightblue" d="M600.35,-392.32C617.67,-383.66 644.52,-370.24 664.5,-360.25"/>
<polygon fill="midnightblue" stroke="midnightblue" points="666.31,-363.26 673.69,-355.65 663.18,-357 666.31,-363.26"/>
</g>
<!-- Node35 -->
<g id="node20" class="node">
<title>Node35</title>
<g id="a_node20"><a xlink:href="validation__mode_8h.html" target="_top" xlink:title=" ">
<polygon fill="none" stroke="black" points="412.5,-224.5 412.5,-243.5 519.5,-243.5 519.5,-224.5 412.5,-224.5"/>
<text text-anchor="middle" x="466" y="-231.5" font-family="Helvetica,sans-Serif" font-size="10.00">validation_mode.h</text>
</a>
</g>
</g>
<!-- Node4&#45;&gt;Node35 -->
<g id="edge31" class="edge">
<title>Node4&#45;&gt;Node35</title>
<path fill="none" stroke="midnightblue" d="M585.65,-392.5C589.24,-379.13 593.96,-352.98 582,-336 555.76,-298.75 517.24,-333.18 486,-300 474.25,-287.52 469.39,-268.29 467.39,-253.98"/>
<polygon fill="midnightblue" stroke="midnightblue" points="470.85,-253.36 466.32,-243.78 463.89,-254.09 470.85,-253.36"/>
</g>
<!-- Node36 -->
<g id="node21" class="node">
<title>Node36</title>
<g id="a_node21"><a xlink:href="validate__types_8h.html" target="_top" xlink:title=" ">
<polygon fill="none" stroke="black" points="578,-280.5 578,-299.5 676,-299.5 676,-280.5 578,-280.5"/>
<text text-anchor="middle" x="627" y="-287.5" font-family="Helvetica,sans-Serif" font-size="10.00">validate_types.h</text>
</a>
</g>
</g>
<!-- Node4&#45;&gt;Node36 -->
<g id="edge30" class="edge">
<title>Node4&#45;&gt;Node36</title>
<path fill="none" stroke="midnightblue" d="M590.88,-392.4C598.29,-383.82 609.1,-369.95 615,-356 621.23,-341.29 624.23,-323.35 625.67,-310.05"/>
<polygon fill="midnightblue" stroke="midnightblue" points="629.19,-310.02 626.58,-299.76 622.22,-309.41 629.19,-310.02"/>
</g>
<!-- Node37 -->
<g id="node22" class="node">
<title>Node37</title>
<g id="a_node22"><a xlink:href="validate__expressions_8h.html" target="_top" xlink:title=" ">
<polygon fill="none" stroke="black" points="443.5,-336.5 443.5,-355.5 572.5,-355.5 572.5,-336.5 443.5,-336.5"/>
<text text-anchor="middle" x="508" y="-343.5" font-family="Helvetica,sans-Serif" font-size="10.00">validate_expressions.h</text>
</a>
</g>
</g>
<!-- Node4&#45;&gt;Node37 -->
<g id="edge29" class="edge">
<title>Node4&#45;&gt;Node37</title>
<path fill="none" stroke="midnightblue" d="M570.95,-392.32C559.54,-384.11 542.17,-371.6 528.57,-361.81"/>
<polygon fill="midnightblue" stroke="midnightblue" points="530.43,-358.84 520.27,-355.83 526.34,-364.52 530.43,-358.84"/>
</g>
<!-- Node38 -->
<g id="node23" class="node">
<title>Node38</title>
<g id="a_node23"><a xlink:title=" ">
<polygon fill="none" stroke="#bfbfbf" points="360.5,-336.5 360.5,-355.5 425.5,-355.5 425.5,-336.5 360.5,-336.5"/>
<text text-anchor="middle" x="393" y="-343.5" font-family="Helvetica,sans-Serif" font-size="10.00">functional</text>
</a>
</g>
</g>
<!-- Node4&#45;&gt;Node38 -->
<g id="edge32" class="edge">
<title>Node4&#45;&gt;Node38</title>
<path fill="none" stroke="midnightblue" d="M559.32,-394.27C527.63,-385.26 471,-369.17 432.72,-358.29"/>
<polygon fill="midnightblue" stroke="midnightblue" points="433.51,-354.87 422.93,-355.51 431.59,-361.61 433.51,-354.87"/>
</g>
<!-- Node7 -->
<g id="node7" class="node">
<title>Node7</title>
<g id="a_node7"><a xlink:href="source__location_8h.html" target="_top" xlink:title=" ">
<polygon fill="none" stroke="black" points="829,-168.5 829,-187.5 931,-187.5 931,-168.5 829,-168.5"/>
<text text-anchor="middle" x="880" y="-175.5" font-family="Helvetica,sans-Serif" font-size="10.00">source_location.h</text>
</a>
</g>
</g>
<!-- Node6&#45;&gt;Node7 -->
<g id="edge6" class="edge">
<title>Node6&#45;&gt;Node7</title>
<path fill="none" stroke="midnightblue" d="M700.9,-336.31C731.26,-309.64 823.4,-228.72 862.33,-194.52"/>
<polygon fill="midnightblue" stroke="midnightblue" points="865,-196.83 870.2,-187.61 860.38,-191.57 865,-196.83"/>
</g>
<!-- Node33 -->
<g id="node18" class="node">
<title>Node33</title>
<g id="a_node18"><a xlink:href="validate_8h.html" target="_top" xlink:title=" ">
<polygon fill="none" stroke="black" points="494.5,-280.5 494.5,-299.5 559.5,-299.5 559.5,-280.5 494.5,-280.5"/>
<text text-anchor="middle" x="527" y="-287.5" font-family="Helvetica,sans-Serif" font-size="10.00">validate.h</text>
</a>
</g>
</g>
<!-- Node6&#45;&gt;Node33 -->
<g id="edge20" class="edge">
<title>Node6&#45;&gt;Node33</title>
<path fill="none" stroke="midnightblue" d="M667.15,-337.15C639.74,-328.12 594.45,-313.21 562.8,-302.79"/>
<polygon fill="midnightblue" stroke="midnightblue" points="563.64,-299.38 553.04,-299.58 561.45,-306.03 563.64,-299.38"/>
</g>
<!-- Node6&#45;&gt;Node35 -->
<g id="edge28" class="edge">
<title>Node6&#45;&gt;Node35</title>
<path fill="none" stroke="midnightblue" d="M693.14,-336.15C695.92,-322.32 698.91,-295.54 685,-280 664.67,-257.29 586.84,-245.5 529.73,-239.79"/>
<polygon fill="midnightblue" stroke="midnightblue" points="529.97,-236.3 519.68,-238.83 529.3,-243.27 529.97,-236.3"/>
</g>
<!-- Node6&#45;&gt;Node36 -->
<g id="edge27" class="edge">
<title>Node6&#45;&gt;Node36</title>
<path fill="none" stroke="midnightblue" d="M680.72,-336.32C671.16,-328.26 656.72,-316.08 645.22,-306.37"/>
<polygon fill="midnightblue" stroke="midnightblue" points="647.37,-303.61 637.47,-299.83 642.86,-308.96 647.37,-303.61"/>
</g>
<!-- Node8 -->
<g id="node8" class="node">
<title>Node8</title>
<g id="a_node8"><a xlink:href="deprecate_8h.html" target="_top" xlink:title=" ">
<polygon fill="none" stroke="black" points="781,-112.5 781,-131.5 855,-131.5 855,-112.5 781,-112.5"/>
<text text-anchor="middle" x="818" y="-119.5" font-family="Helvetica,sans-Serif" font-size="10.00">deprecate.h</text>
</a>
</g>
</g>
<!-- Node7&#45;&gt;Node8 -->
<g id="edge7" class="edge">
<title>Node7&#45;&gt;Node8</title>
<path fill="none" stroke="midnightblue" d="M870.04,-168.32C860.87,-160.34 847.06,-148.31 835.97,-138.65"/>
<polygon fill="midnightblue" stroke="midnightblue" points="837.98,-135.76 828.14,-131.83 833.38,-141.04 837.98,-135.76"/>
</g>
<!-- Node9 -->
<g id="node9" class="node">
<title>Node9</title>
<g id="a_node9"><a xlink:href="irep_8h.html" target="_top" xlink:title=" ">
<polygon fill="none" stroke="black" points="997,-112.5 997,-131.5 1041,-131.5 1041,-112.5 997,-112.5"/>
<text text-anchor="middle" x="1019" y="-119.5" font-family="Helvetica,sans-Serif" font-size="10.00">irep.h</text>
</a>
</g>
</g>
<!-- Node7&#45;&gt;Node9 -->
<g id="edge8" class="edge">
<title>Node7&#45;&gt;Node9</title>
<path fill="none" stroke="midnightblue" d="M902.02,-168.44C925.1,-159.48 961.56,-145.31 987.64,-135.18"/>
<polygon fill="midnightblue" stroke="midnightblue" points="989.02,-138.4 997.08,-131.52 986.49,-131.88 989.02,-138.4"/>
</g>
<!-- Node10 -->
<g id="node10" class="node">
<title>Node10</title>
<g id="a_node10"><a xlink:title=" ">
<polygon fill="none" stroke="#bfbfbf" points="918,-0.5 918,-19.5 962,-19.5 962,-0.5 918,-0.5"/>
<text text-anchor="middle" x="940" y="-7.5" font-family="Helvetica,sans-Serif" font-size="10.00">string</text>
</a>
</g>
</g>
<!-- Node7&#45;&gt;Node10 -->
<g id="edge19" class="edge">
<title>Node7&#45;&gt;Node10</title>
<path fill="none" stroke="midnightblue" d="M883.23,-168.08C892.71,-141.83 920.65,-64.55 933.45,-29.12"/>
<polygon fill="midnightblue" stroke="midnightblue" points="936.8,-30.16 936.9,-19.57 930.21,-27.78 936.8,-30.16"/>
</g>
<!-- Node31 -->
<g id="node16" class="node">
<title>Node31</title>
<g id="a_node16"><a xlink:href="optional_8h.html" target="_top" xlink:title=" ">
<polygon fill="none" stroke="black" points="1154.5,-112.5 1154.5,-131.5 1219.5,-131.5 1219.5,-112.5 1154.5,-112.5"/>
<text text-anchor="middle" x="1187" y="-119.5" font-family="Helvetica,sans-Serif" font-size="10.00">optional.h</text>
</a>
</g>
</g>
<!-- Node7&#45;&gt;Node31 -->
<g id="edge17" class="edge">
<title>Node7&#45;&gt;Node31</title>
<path fill="none" stroke="midnightblue" d="M928.65,-168.44C988.01,-158 1087.47,-140.51 1144.1,-130.55"/>
<polygon fill="midnightblue" stroke="midnightblue" points="1144.92,-133.96 1154.16,-128.78 1143.7,-127.06 1144.92,-133.96"/>
</g>
<!-- Node9&#45;&gt;Node10 -->
<g id="edge9" class="edge">
<title>Node9&#45;&gt;Node10</title>
<path fill="none" stroke="midnightblue" d="M1041.16,-116.87C1079.47,-108.75 1151.67,-88.62 1126,-56 1107.23,-32.15 1020.53,-19.42 972.41,-14.09"/>
<polygon fill="midnightblue" stroke="midnightblue" points="972.52,-10.58 962.2,-13.01 971.78,-17.54 972.52,-10.58"/>
</g>
<!-- Node11 -->
<g id="node11" class="node">
<title>Node11</title>
<g id="a_node11"><a xlink:title=" ">
<polygon fill="none" stroke="#bfbfbf" points="987.5,-56.5 987.5,-75.5 1034.5,-75.5 1034.5,-56.5 987.5,-56.5"/>
<text text-anchor="middle" x="1011" y="-63.5" font-family="Helvetica,sans-Serif" font-size="10.00">vector</text>
</a>
</g>
</g>
<!-- Node9&#45;&gt;Node11 -->
<g id="edge10" class="edge">
<title>Node9&#45;&gt;Node11</title>
<path fill="none" stroke="midnightblue" d="M1017.68,-112.08C1016.62,-104.93 1015.09,-94.64 1013.77,-85.69"/>
<polygon fill="midnightblue" stroke="midnightblue" points="1017.22,-85.13 1012.3,-75.75 1010.3,-86.16 1017.22,-85.13"/>
</g>
<!-- Node9&#45;&gt;Node12 -->
<g id="edge11" class="edge">
<title>Node9&#45;&gt;Node12</title>
<path fill="none" stroke="midnightblue" d="M996.96,-119.36C972.53,-117.55 931.95,-114.55 897,-112 680.86,-96.21 422.45,-77.6 320.01,-70.23"/>
<polygon fill="midnightblue" stroke="midnightblue" points="319.96,-66.72 309.73,-69.5 319.45,-73.7 319.96,-66.72"/>
</g>
<!-- Node16 -->
<g id="node14" class="node">
<title>Node16</title>
<g id="a_node14"><a xlink:href="irep__ids_8h.html" target="_top" xlink:title=" ">
<polygon fill="none" stroke="red" points="1053,-56.5 1053,-75.5 1117,-75.5 1117,-56.5 1053,-56.5"/>
<text text-anchor="middle" x="1085" y="-63.5" font-family="Helvetica,sans-Serif" font-size="10.00">irep_ids.h</text>
</a>
</g>
</g>
<!-- Node9&#45;&gt;Node16 -->
<g id="edge14" class="edge">
<title>Node9&#45;&gt;Node16</title>
<path fill="none" stroke="midnightblue" d="M1029.6,-112.32C1039.46,-104.26 1054.35,-92.08 1066.22,-82.37"/>
<polygon fill="midnightblue" stroke="midnightblue" points="1068.68,-84.88 1074.2,-75.83 1064.25,-79.46 1068.68,-84.88"/>
</g>
<!-- Node27 -->
<g id="node15" class="node">
<title>Node27</title>
<g id="a_node15"><a xlink:href="forward__list__as__map_8h.html" target="_top" xlink:title=" ">
<polygon fill="none" stroke="red" points="673.5,-56.5 673.5,-75.5 800.5,-75.5 800.5,-56.5 673.5,-56.5"/>
<text text-anchor="middle" x="737" y="-63.5" font-family="Helvetica,sans-Serif" font-size="10.00">forward_list_as_map.h</text>
</a>
</g>
</g>
<!-- Node9&#45;&gt;Node27 -->
<g id="edge15" class="edge">
<title>Node9&#45;&gt;Node27</title>
<path fill="none" stroke="midnightblue" d="M996.87,-116.76C953.02,-108.37 853.96,-89.4 791.6,-77.46"/>
<polygon fill="midnightblue" stroke="midnightblue" points="792.02,-73.97 781.54,-75.53 790.71,-80.85 792.02,-73.97"/>
</g>
<!-- Node12&#45;&gt;Node10 -->
<g id="edge12" class="edge">
<title>Node12&#45;&gt;Node10</title>
<path fill="none" stroke="midnightblue" d="M309.82,-62.17C425.54,-52.78 796.3,-22.67 907.91,-13.61"/>
<polygon fill="midnightblue" stroke="midnightblue" points="908.2,-17.09 917.88,-12.8 907.63,-10.12 908.2,-17.09"/>
</g>
<!-- Node15 -->
<g id="node13" class="node">
<title>Node15</title>
<g id="a_node13"><a xlink:title=" ">
<polygon fill="none" stroke="#bfbfbf" points="240.5,-0.5 240.5,-19.5 309.5,-19.5 309.5,-0.5 240.5,-0.5"/>
<text text-anchor="middle" x="275" y="-7.5" font-family="Helvetica,sans-Serif" font-size="10.00">type_traits</text>
</a>
</g>
</g>
<!-- Node12&#45;&gt;Node15 -->
<g id="edge13" class="edge">
<title>Node12&#45;&gt;Node15</title>
<path fill="none" stroke="midnightblue" d="M275,-56.08C275,-49.01 275,-38.86 275,-29.99"/>
<polygon fill="midnightblue" stroke="midnightblue" points="278.5,-29.75 275,-19.75 271.5,-29.75 278.5,-29.75"/>
</g>
<!-- Node27&#45;&gt;Node5 -->
<g id="edge16" class="edge">
<title>Node27&#45;&gt;Node5</title>
<path fill="none" stroke="midnightblue" d="M729.4,-56.08C722.77,-48.3 712.98,-36.8 704.94,-27.37"/>
<polygon fill="midnightblue" stroke="midnightblue" points="707.6,-25.09 698.45,-19.75 702.27,-29.63 707.6,-25.09"/>
</g>
<!-- Node32 -->
<g id="node17" class="node">
<title>Node32</title>
<g id="a_node17"><a xlink:title=" ">
<polygon fill="none" stroke="#bfbfbf" points="1173.5,-56.5 1173.5,-75.5 1286.5,-75.5 1286.5,-56.5 1173.5,-56.5"/>
<text text-anchor="middle" x="1230" y="-63.5" font-family="Helvetica,sans-Serif" font-size="10.00">nonstd/optional.hpp</text>
</a>
</g>
</g>
<!-- Node31&#45;&gt;Node32 -->
<g id="edge18" class="edge">
<title>Node31&#45;&gt;Node32</title>
<path fill="none" stroke="midnightblue" d="M1194.1,-112.08C1200.24,-104.38 1209.27,-93.03 1216.74,-83.65"/>
<polygon fill="midnightblue" stroke="midnightblue" points="1219.54,-85.75 1223.03,-75.75 1214.06,-81.39 1219.54,-85.75"/>
</g>
<!-- Node33&#45;&gt;Node15 -->
<g id="edge21" class="edge">
<title>Node33&#45;&gt;Node15</title>
<path fill="none" stroke="midnightblue" d="M529.83,-280.27C535.56,-261.79 548,-217.3 548,-179 548,-179 548,-179 548,-121 548,-72.34 396.91,-35.2 319.53,-19.37"/>
<polygon fill="midnightblue" stroke="midnightblue" points="320.07,-15.91 309.58,-17.37 318.69,-22.77 320.07,-15.91"/>
</g>
<!-- Node34 -->
<g id="node19" class="node">
<title>Node34</title>
<g id="a_node19"><a xlink:href="exception__utils_8h.html" target="_top" xlink:title=" ">
<polygon fill="none" stroke="black" points="673,-224.5 673,-243.5 773,-243.5 773,-224.5 673,-224.5"/>
<text text-anchor="middle" x="723" y="-231.5" font-family="Helvetica,sans-Serif" font-size="10.00">exception_utils.h</text>
</a>
</g>
</g>
<!-- Node33&#45;&gt;Node34 -->
<g id="edge22" class="edge">
<title>Node33&#45;&gt;Node34</title>
<path fill="none" stroke="midnightblue" d="M558.06,-280.44C591.6,-271.2 645.2,-256.44 682.14,-246.26"/>
<polygon fill="midnightblue" stroke="midnightblue" points="683.38,-249.55 692.09,-243.52 681.52,-242.8 683.38,-249.55"/>
</g>
<!-- Node33&#45;&gt;Node35 -->
<g id="edge26" class="edge">
<title>Node33&#45;&gt;Node35</title>
<path fill="none" stroke="midnightblue" d="M517.2,-280.32C508.18,-272.34 494.59,-260.31 483.68,-250.65"/>
<polygon fill="midnightblue" stroke="midnightblue" points="485.79,-247.84 475.98,-243.83 481.15,-253.08 485.79,-247.84"/>
</g>
<!-- Node34&#45;&gt;Node7 -->
<g id="edge25" class="edge">
<title>Node34&#45;&gt;Node7</title>
<path fill="none" stroke="midnightblue" d="M747.88,-224.44C774.29,-215.36 816.22,-200.94 845.74,-190.78"/>
<polygon fill="midnightblue" stroke="midnightblue" points="846.92,-194.08 855.24,-187.52 844.64,-187.46 846.92,-194.08"/>
</g>
<!-- Node34&#45;&gt;Node10 -->
<g id="edge23" class="edge">
<title>Node34&#45;&gt;Node10</title>
<path fill="none" stroke="midnightblue" d="M724.53,-224.4C728.68,-203.12 741.96,-147.15 772,-112 809.55,-68.06 871.21,-37.97 908.47,-22.69"/>
<polygon fill="midnightblue" stroke="midnightblue" points="909.85,-25.91 917.84,-18.95 907.25,-19.41 909.85,-25.91"/>
</g>
<!-- Node34&#45;&gt;Node12 -->
<g id="edge24" class="edge">
<title>Node34&#45;&gt;Node12</title>
<path fill="none" stroke="midnightblue" d="M699.86,-224.42C625.66,-196.93 393.56,-110.93 307.52,-79.05"/>
<polygon fill="midnightblue" stroke="midnightblue" points="308.6,-75.72 298,-75.52 306.17,-82.28 308.6,-75.72"/>
</g>
<!-- Node39&#45;&gt;Node10 -->
<g id="edge35" class="edge">
<title>Node39&#45;&gt;Node10</title>
<path fill="none" stroke="midnightblue" d="M874.59,-393.34C896.24,-386.84 923.13,-375.39 940,-356 959.76,-333.3 959,-321.1 959,-291 959,-291 959,-291 959,-121 959,-88.49 950.84,-51.35 945.22,-29.61"/>
<polygon fill="midnightblue" stroke="midnightblue" points="948.54,-28.5 942.56,-19.75 941.78,-30.32 948.54,-28.5"/>
</g>
<!-- Node18 -->
<g id="node25" class="node">
<title>Node18</title>
<g id="a_node25"><a xlink:title=" ">
<polygon fill="none" stroke="#bfbfbf" points="771,-336.5 771,-355.5 819,-355.5 819,-336.5 771,-336.5"/>
<text text-anchor="middle" x="795" y="-343.5" font-family="Helvetica,sans-Serif" font-size="10.00">iosfwd</text>
</a>
</g>
</g>
<!-- Node39&#45;&gt;Node18 -->
<g id="edge34" class="edge">
<title>Node39&#45;&gt;Node18</title>
<path fill="none" stroke="midnightblue" d="M832.57,-392.08C826.15,-384.38 816.69,-373.03 808.88,-363.65"/>
<polygon fill="midnightblue" stroke="midnightblue" points="811.38,-361.19 802.29,-355.75 806.01,-365.67 811.38,-361.19"/>
</g>
<!-- Node40 -->
<g id="node26" class="node">
<title>Node40</title>
<g id="a_node26"><a xlink:title=" ">
<polygon fill="none" stroke="#bfbfbf" points="837,-336.5 837,-355.5 931,-355.5 931,-336.5 837,-336.5"/>
<text text-anchor="middle" x="884" y="-343.5" font-family="Helvetica,sans-Serif" font-size="10.00">big&#45;int/bigint.hh</text>
</a>
</g>
</g>
<!-- Node39&#45;&gt;Node40 -->
<g id="edge36" class="edge">
<title>Node39&#45;&gt;Node40</title>
<path fill="none" stroke="midnightblue" d="M847.27,-392.08C853.54,-384.38 862.79,-373.03 870.43,-363.65"/>
<polygon fill="midnightblue" stroke="midnightblue" points="873.27,-365.71 876.87,-355.75 867.84,-361.29 873.27,-365.71"/>
</g>
<!-- Node42&#45;&gt;Node12 -->
<g id="edge40" class="edge">
<title>Node42&#45;&gt;Node12</title>
<path fill="none" stroke="midnightblue" d="M700.42,-616.4C622.21,-575.29 294,-396.5 294,-291 294,-291 294,-291 294,-177 294,-144.49 285.84,-107.35 280.22,-85.61"/>
<polygon fill="midnightblue" stroke="midnightblue" points="283.54,-84.5 277.56,-75.75 276.78,-86.32 283.54,-84.5"/>
</g>
<!-- Node42&#45;&gt;Node31 -->
<g id="edge42" class="edge">
<title>Node42&#45;&gt;Node31</title>
<path fill="none" stroke="midnightblue" d="M755.64,-618.2C832.45,-603.57 997,-566.25 997,-515 997,-515 997,-515 997,-401 997,-281.58 1117.99,-175.72 1166.87,-137.83"/>
<polygon fill="midnightblue" stroke="midnightblue" points="1169.28,-140.4 1175.11,-131.56 1165.04,-134.83 1169.28,-140.4"/>
</g>
<!-- Node42&#45;&gt;Node39 -->
<g id="edge41" class="edge">
<title>Node42&#45;&gt;Node39</title>
<path fill="none" stroke="midnightblue" d="M721.82,-616.3C740.07,-583.36 805.15,-465.9 830.13,-420.81"/>
<polygon fill="midnightblue" stroke="midnightblue" points="833.29,-422.33 835.08,-411.88 827.17,-418.93 833.29,-422.33"/>
</g>
<!-- Node42&#45;&gt;Node43 -->
<g id="edge43" class="edge">
<title>Node42&#45;&gt;Node43</title>
<path fill="none" stroke="midnightblue" d="M678.38,-620.71C618.28,-613.83 498.54,-599.29 387.88,-580.23"/>
<polygon fill="midnightblue" stroke="midnightblue" points="388.33,-576.76 377.88,-578.49 387.14,-583.65 388.33,-576.76"/>
</g>
<!-- Node47 -->
<g id="node34" class="node">
<title>Node47</title>
<g id="a_node34"><a xlink:title=" ">
<polygon fill="none" stroke="#bfbfbf" points="790,-560.5 790,-579.5 834,-579.5 834,-560.5 790,-560.5"/>
<text text-anchor="middle" x="812" y="-567.5" font-family="Helvetica,sans-Serif" font-size="10.00">limits</text>
</a>
</g>
</g>
<!-- Node42&#45;&gt;Node47 -->
<g id="edge58" class="edge">
<title>Node42&#45;&gt;Node47</title>
<path fill="none" stroke="midnightblue" d="M732.26,-616.32C747.22,-607.82 770.25,-594.73 787.73,-584.8"/>
<polygon fill="midnightblue" stroke="midnightblue" points="789.81,-587.64 796.77,-579.65 786.35,-581.55 789.81,-587.64"/>
</g>
<!-- Node43&#45;&gt;Node12 -->
<g id="edge50" class="edge">
<title>Node43&#45;&gt;Node12</title>
<path fill="none" stroke="midnightblue" d="M310.06,-567.88C246.08,-563.76 114,-544.87 114,-459 114,-459 114,-459 114,-177 114,-120.27 182.99,-90.68 230.65,-77"/>
<polygon fill="midnightblue" stroke="midnightblue" points="231.74,-80.33 240.46,-74.32 229.89,-73.58 231.74,-80.33"/>
</g>
<!-- Node44 -->
<g id="node30" class="node">
<title>Node44</title>
<g id="a_node30"><a xlink:href="expr__cast_8h.html" target="_top" xlink:title="Templated functions to cast to specific exprt&#45;derived classes.">
<polygon fill="none" stroke="black" points="164.5,-448.5 164.5,-467.5 237.5,-467.5 237.5,-448.5 164.5,-448.5"/>
<text text-anchor="middle" x="201" y="-455.5" font-family="Helvetica,sans-Serif" font-size="10.00">expr_cast.h</text>
</a>
</g>
</g>
<!-- Node43&#45;&gt;Node44 -->
<g id="edge44" class="edge">
<title>Node43&#45;&gt;Node44</title>
<path fill="none" stroke="midnightblue" d="M332.78,-560.37C308.45,-541.65 250.6,-497.15 220.28,-473.83"/>
<polygon fill="midnightblue" stroke="midnightblue" points="222.23,-470.91 212.17,-467.59 217.96,-476.46 222.23,-470.91"/>
</g>
<!-- Node46 -->
<g id="node32" class="node">
<title>Node46</title>
<g id="a_node32"><a xlink:href="std__types_8h.html" target="_top" xlink:title=" ">
<polygon fill="none" stroke="black" points="340.5,-504.5 340.5,-523.5 413.5,-523.5 413.5,-504.5 340.5,-504.5"/>
<text text-anchor="middle" x="377" y="-511.5" font-family="Helvetica,sans-Serif" font-size="10.00">std_types.h</text>
</a>
</g>
</g>
<!-- Node43&#45;&gt;Node46 -->
<g id="edge51" class="edge">
<title>Node43&#45;&gt;Node46</title>
<path fill="none" stroke="midnightblue" d="M349.45,-560.08C354.01,-552.61 360.67,-541.72 366.29,-532.52"/>
<polygon fill="midnightblue" stroke="midnightblue" points="369.42,-534.11 371.65,-523.75 363.45,-530.46 369.42,-534.11"/>
</g>
<!-- Node44&#45;&gt;Node4 -->
<g id="edge49" class="edge">
<title>Node44&#45;&gt;Node4</title>
<path fill="none" stroke="midnightblue" d="M237.63,-451.82C311.52,-441.38 477.48,-417.92 549.07,-407.8"/>
<polygon fill="midnightblue" stroke="midnightblue" points="549.91,-411.21 559.32,-406.35 548.93,-404.28 549.91,-411.21"/>
</g>
<!-- Node44&#45;&gt;Node12 -->
<g id="edge48" class="edge">
<title>Node44&#45;&gt;Node12</title>
<path fill="none" stroke="midnightblue" d="M202.51,-448.39C206.67,-423.87 218,-351.55 218,-291 218,-291 218,-291 218,-177 218,-140.3 243.32,-103.66 260.21,-83.3"/>
<polygon fill="midnightblue" stroke="midnightblue" points="262.95,-85.48 266.83,-75.62 257.65,-80.9 262.95,-85.48"/>
</g>
<!-- Node44&#45;&gt;Node15 -->
<g id="edge46" class="edge">
<title>Node44&#45;&gt;Node15</title>
<path fill="none" stroke="midnightblue" d="M176.9,-448.41C140.58,-433.75 76,-400.19 76,-347 76,-347 76,-347 76,-289 76,-209.61 55.76,-177.92 100,-112 131.69,-64.77 193.43,-36.86 234.45,-22.73"/>
<polygon fill="midnightblue" stroke="midnightblue" points="235.76,-25.99 244.15,-19.52 233.55,-19.34 235.76,-25.99"/>
</g>
<!-- Node44&#45;&gt;Node38 -->
<g id="edge47" class="edge">
<title>Node44&#45;&gt;Node38</title>
<path fill="none" stroke="midnightblue" d="M216.07,-448.37C249.29,-429.33 329.09,-383.62 369.17,-360.65"/>
<polygon fill="midnightblue" stroke="midnightblue" points="371.07,-363.6 378,-355.59 367.59,-357.53 371.07,-363.6"/>
</g>
<!-- Node45 -->
<g id="node31" class="node">
<title>Node45</title>
<g id="a_node31"><a xlink:title=" ">
<polygon fill="none" stroke="#bfbfbf" points="142.5,-392.5 142.5,-411.5 199.5,-411.5 199.5,-392.5 142.5,-392.5"/>
<text text-anchor="middle" x="171" y="-399.5" font-family="Helvetica,sans-Serif" font-size="10.00">typeinfo</text>
</a>
</g>
</g>
<!-- Node44&#45;&gt;Node45 -->
<g id="edge45" class="edge">
<title>Node44&#45;&gt;Node45</title>
<path fill="none" stroke="midnightblue" d="M196.05,-448.08C191.9,-440.61 185.85,-429.72 180.73,-420.52"/>
<polygon fill="midnightblue" stroke="midnightblue" points="183.78,-418.79 175.86,-411.75 177.66,-422.19 183.78,-418.79"/>
</g>
<!-- Node46&#45;&gt;Node4 -->
<g id="edge52" class="edge">
<title>Node46&#45;&gt;Node4</title>
<path fill="none" stroke="midnightblue" d="M393.16,-504.37C428.97,-485.25 515.15,-439.23 557.98,-416.36"/>
<polygon fill="midnightblue" stroke="midnightblue" points="559.74,-419.39 566.91,-411.59 556.44,-413.21 559.74,-419.39"/>
</g>
<!-- Node46&#45;&gt;Node12 -->
<g id="edge54" class="edge">
<title>Node46&#45;&gt;Node12</title>
<path fill="none" stroke="midnightblue" d="M341.64,-504.36C321.94,-497.69 298.68,-486.41 285,-468 237.45,-404.02 256,-370.72 256,-291 256,-291 256,-291 256,-177 256,-144.49 264.16,-107.35 269.78,-85.61"/>
<polygon fill="midnightblue" stroke="midnightblue" points="273.22,-86.32 272.44,-75.75 266.46,-84.5 273.22,-86.32"/>
</g>
<!-- Node46&#45;&gt;Node33 -->
<g id="edge56" class="edge">
<title>Node46&#45;&gt;Node33</title>
<path fill="none" stroke="midnightblue" d="M382.53,-504.25C389.69,-491.85 400.72,-468.39 396,-448 383.9,-395.74 318.1,-378.37 351,-336 367.18,-315.16 437.42,-302.33 484.12,-295.95"/>
<polygon fill="midnightblue" stroke="midnightblue" points="484.82,-299.39 494.28,-294.62 483.91,-292.45 484.82,-299.39"/>
</g>
<!-- Node46&#45;&gt;Node39 -->
<g id="edge55" class="edge">
<title>Node46&#45;&gt;Node39</title>
<path fill="none" stroke="midnightblue" d="M413.7,-511.69C475.19,-508.67 602.36,-498.91 705,-468 710.62,-466.31 775.34,-434.73 813.09,-416.22"/>
<polygon fill="midnightblue" stroke="midnightblue" points="815.07,-419.15 822.5,-411.6 811.98,-412.87 815.07,-419.15"/>
</g>
<!-- Node46&#45;&gt;Node44 -->
<g id="edge53" class="edge">
<title>Node46&#45;&gt;Node44</title>
<path fill="none" stroke="midnightblue" d="M349.11,-504.44C319.25,-495.28 271.69,-480.69 238.54,-470.52"/>
<polygon fill="midnightblue" stroke="midnightblue" points="239.34,-467.1 228.76,-467.52 237.29,-473.8 239.34,-467.1"/>
</g>
<!-- Node23 -->
<g id="node33" class="node">
<title>Node23</title>
<g id="a_node33"><a xlink:title=" ">
<polygon fill="none" stroke="#bfbfbf" points="294.5,-448.5 294.5,-467.5 387.5,-467.5 387.5,-448.5 294.5,-448.5"/>
<text text-anchor="middle" x="341" y="-455.5" font-family="Helvetica,sans-Serif" font-size="10.00">unordered_map</text>
</a>
</g>
</g>
<!-- Node46&#45;&gt;Node23 -->
<g id="edge57" class="edge">
<title>Node46&#45;&gt;Node23</title>
<path fill="none" stroke="midnightblue" d="M371.06,-504.08C366.02,-496.53 358.66,-485.49 352.49,-476.23"/>
<polygon fill="midnightblue" stroke="midnightblue" points="355.29,-474.13 346.83,-467.75 349.47,-478.01 355.29,-474.13"/>
</g>
<!-- Node48&#45;&gt;Node12 -->
<g id="edge60" class="edge">
<title>Node48&#45;&gt;Node12</title>
<path fill="none" stroke="midnightblue" d="M251.22,-625.43C174.98,-623.19 38,-606.44 38,-515 38,-515 38,-515 38,-289 38,-200.34 61.62,-168.43 130,-112 158.49,-88.49 199.25,-77.23 230.3,-71.86"/>
<polygon fill="midnightblue" stroke="midnightblue" points="231.1,-75.28 240.43,-70.25 230,-68.36 231.1,-75.28"/>
</g>
<!-- Node48&#45;&gt;Node43 -->
<g id="edge61" class="edge">
<title>Node48&#45;&gt;Node43</title>
<path fill="none" stroke="midnightblue" d="M308.1,-616.08C314.24,-608.38 323.27,-597.03 330.74,-587.65"/>
<polygon fill="midnightblue" stroke="midnightblue" points="333.54,-589.75 337.03,-579.75 328.06,-585.39 333.54,-589.75"/>
</g>
<!-- Node49&#45;&gt;Node8 -->
<g id="edge63" class="edge">
<title>Node49&#45;&gt;Node8</title>
<path fill="none" stroke="midnightblue" d="M496.87,-681.68C616.91,-683.41 1035,-681.48 1035,-571 1035,-571 1035,-571 1035,-401 1035,-266.49 873.67,-311.34 820,-188 813.67,-173.44 813.69,-155.26 814.99,-141.84"/>
<polygon fill="midnightblue" stroke="midnightblue" points="818.47,-142.22 816.28,-131.86 811.53,-141.33 818.47,-142.22"/>
</g>
<!-- Node50 -->
<g id="node37" class="node">
<title>Node50</title>
<g id="a_node37"><a xlink:href="pointer__expr_8h.html" target="_top" xlink:title=" ">
<polygon fill="none" stroke="black" points="407,-616.5 407,-635.5 493,-635.5 493,-616.5 407,-616.5"/>
<text text-anchor="middle" x="450" y="-623.5" font-family="Helvetica,sans-Serif" font-size="10.00">pointer_expr.h</text>
</a>
</g>
</g>
<!-- Node49&#45;&gt;Node50 -->
<g id="edge64" class="edge">
<title>Node49&#45;&gt;Node50</title>
<path fill="none" stroke="midnightblue" d="M462.52,-672.08C460.51,-664.85 457.61,-654.41 455.11,-645.4"/>
<polygon fill="midnightblue" stroke="midnightblue" points="458.48,-644.45 452.43,-635.75 451.74,-646.32 458.48,-644.45"/>
</g>
<!-- Node50&#45;&gt;Node43 -->
<g id="edge67" class="edge">
<title>Node50&#45;&gt;Node43</title>
<path fill="none" stroke="midnightblue" d="M432.97,-616.32C415.97,-607.66 389.62,-594.24 370.01,-584.25"/>
<polygon fill="midnightblue" stroke="midnightblue" points="371.49,-581.08 360.99,-579.65 368.31,-587.31 371.49,-581.08"/>
</g>
<!-- Node51 -->
<g id="node38" class="node">
<title>Node51</title>
<g id="a_node38"><a xlink:href="bitvector__types_8h.html" target="_top" xlink:title=" ">
<polygon fill="none" stroke="black" points="395.5,-560.5 395.5,-579.5 496.5,-579.5 496.5,-560.5 395.5,-560.5"/>
<text text-anchor="middle" x="446" y="-567.5" font-family="Helvetica,sans-Serif" font-size="10.00">bitvector_types.h</text>
</a>
</g>
</g>
<!-- Node50&#45;&gt;Node51 -->
<g id="edge65" class="edge">
<title>Node50&#45;&gt;Node51</title>
<path fill="none" stroke="midnightblue" d="M449.34,-616.08C448.82,-609.01 448.06,-598.86 447.41,-589.99"/>
<polygon fill="midnightblue" stroke="midnightblue" points="450.88,-589.47 446.65,-579.75 443.9,-589.98 450.88,-589.47"/>
</g>
<!-- Node51&#45;&gt;Node46 -->
<g id="edge66" class="edge">
<title>Node51&#45;&gt;Node46</title>
<path fill="none" stroke="midnightblue" d="M434.91,-560.32C424.51,-552.18 408.74,-539.84 396.28,-530.09"/>
<polygon fill="midnightblue" stroke="midnightblue" points="398.32,-527.24 388.29,-523.83 394.01,-532.75 398.32,-527.24"/>
</g>
<!-- Node52&#45;&gt;Node9 -->
<g id="edge71" class="edge">
<title>Node52&#45;&gt;Node9</title>
<path fill="none" stroke="midnightblue" d="M1026.51,-168.08C1025.32,-160.93 1023.61,-150.64 1022.12,-141.69"/>
<polygon fill="midnightblue" stroke="midnightblue" points="1025.55,-141.04 1020.46,-131.75 1018.65,-142.19 1025.55,-141.04"/>
</g>
<!-- Node52&#45;&gt;Node12 -->
<g id="edge70" class="edge">
<title>Node52&#45;&gt;Node12</title>
<path fill="none" stroke="midnightblue" d="M1011.31,-168.42C982.25,-153.93 920.1,-124.95 864,-112 760.57,-88.13 439.3,-73.44 320.1,-68.69"/>
<polygon fill="midnightblue" stroke="midnightblue" points="320.01,-65.18 309.88,-68.29 319.73,-72.18 320.01,-65.18"/>
</g>
<!-- Node53&#45;&gt;Node9 -->
<g id="edge73" class="edge">
<title>Node53&#45;&gt;Node9</title>
<path fill="none" stroke="midnightblue" d="M1153.19,-448.46C1139.72,-430.69 1111,-387.98 1111,-347 1111,-347 1111,-347 1111,-233 1111,-190.5 1070.09,-155.77 1042.83,-137.34"/>
<polygon fill="midnightblue" stroke="midnightblue" points="1044.49,-134.24 1034.19,-131.73 1040.67,-140.11 1044.49,-134.24"/>
</g>
<!-- Node53&#45;&gt;Node31 -->
<g id="edge75" class="edge">
<title>Node53&#45;&gt;Node31</title>
<path fill="none" stroke="midnightblue" d="M1163.64,-448.34C1171.01,-430 1187,-385.74 1187,-347 1187,-347 1187,-347 1187,-233 1187,-200.95 1187,-163.64 1187,-141.75"/>
<polygon fill="midnightblue" stroke="midnightblue" points="1190.5,-141.56 1187,-131.56 1183.5,-141.56 1190.5,-141.56"/>
</g>
<!-- Node53&#45;&gt;Node39 -->
<g id="edge74" class="edge">
<title>Node53&#45;&gt;Node39</title>
<path fill="none" stroke="midnightblue" d="M1109.3,-448.44C1047.45,-438.01 943.87,-420.53 884.82,-410.56"/>
<polygon fill="midnightblue" stroke="midnightblue" points="885.13,-407.07 874.69,-408.85 883.97,-413.97 885.13,-407.07"/>
</g>
<!-- Node54&#45;&gt;Node4 -->
<g id="edge77" class="edge">
<title>Node54&#45;&gt;Node4</title>
<path fill="none" stroke="midnightblue" d="M1237.43,-449.18C1234.24,-448.75 1231.08,-448.35 1228,-448 974.44,-419.36 909.05,-435.84 655,-412 642.49,-410.83 628.79,-409.2 616.73,-407.65"/>
<polygon fill="midnightblue" stroke="midnightblue" points="617,-404.16 606.63,-406.33 616.09,-411.1 617,-404.16"/>
</g>
<!-- Node54&#45;&gt;Node10 -->
<g id="edge79" class="edge">
<title>Node54&#45;&gt;Node10</title>
<path fill="none" stroke="midnightblue" d="M1287.32,-448.41C1296.05,-430.2 1315,-386.18 1315,-347 1315,-347 1315,-347 1315,-121 1315,-90.9 1318.9,-75.53 1296,-56 1247.78,-14.88 1051.39,-10.7 972.77,-10.71"/>
<polygon fill="midnightblue" stroke="midnightblue" points="972.48,-7.21 962.48,-10.74 972.49,-14.21 972.48,-7.21"/>
</g>
<!-- Node54&#45;&gt;Node31 -->
<g id="edge78" class="edge">
<title>Node54&#45;&gt;Node31</title>
<path fill="none" stroke="midnightblue" d="M1278.68,-448.41C1269.95,-430.2 1251,-386.18 1251,-347 1251,-347 1251,-347 1251,-233 1251,-195.33 1222.61,-159.04 1203.65,-139.01"/>
<polygon fill="midnightblue" stroke="midnightblue" points="1205.95,-136.36 1196.44,-131.69 1200.96,-141.27 1205.95,-136.36"/>
</g>
</g>
</svg>
