<?xml version="1.0" encoding="UTF-8" standalone="no"?>
<!DOCTYPE svg PUBLIC "-//W3C//DTD SVG 1.1//EN"
 "http://www.w3.org/Graphics/SVG/1.1/DTD/svg11.dtd">
<!-- Generated by graphviz version 2.43.0 (0)
 -->
<!-- Title: /home/runner/work/cbmc/cbmc/src/util/simplify_expr_class.h Pages: 1 -->
<svg width="1145pt" height="610pt"
 viewBox="0.00 0.00 1144.50 610.00" xmlns="http://www.w3.org/2000/svg" xmlns:xlink="http://www.w3.org/1999/xlink">
<g id="graph0" class="graph" transform="scale(1 1) rotate(0) translate(4 606)">
<title>/home/runner/work/cbmc/cbmc/src/util/simplify_expr_class.h</title>
<!-- Node1 -->
<g id="node1" class="node">
<title>Node1</title>
<g id="a_node1"><a xlink:title=" ">
<polygon fill="#bfbfbf" stroke="black" points="207.5,-560.5 207.5,-601.5 345.5,-601.5 345.5,-560.5 207.5,-560.5"/>
<text text-anchor="start" x="215.5" y="-589.5" font-family="Helvetica,sans-Serif" font-size="10.00">/home/runner/work/cbmc</text>
<text text-anchor="start" x="215.5" y="-578.5" font-family="Helvetica,sans-Serif" font-size="10.00">/cbmc/src/util/simplify</text>
<text text-anchor="middle" x="276.5" y="-567.5" font-family="Helvetica,sans-Serif" font-size="10.00">_expr_class.h</text>
</a>
</g>
</g>
<!-- Node2 -->
<g id="node2" class="node">
<title>Node2</title>
<g id="a_node2"><a xlink:title=" ">
<polygon fill="none" stroke="#bfbfbf" points="163.5,-504.5 163.5,-523.5 195.5,-523.5 195.5,-504.5 163.5,-504.5"/>
<text text-anchor="middle" x="179.5" y="-511.5" font-family="Helvetica,sans-Serif" font-size="10.00">set</text>
</a>
</g>
</g>
<!-- Node1&#45;&gt;Node2 -->
<g id="edge1" class="edge">
<title>Node1&#45;&gt;Node2</title>
<path fill="none" stroke="midnightblue" d="M247.4,-560.5C232.52,-550.53 214.74,-538.61 201.1,-529.48"/>
<polygon fill="midnightblue" stroke="midnightblue" points="202.67,-526.31 192.41,-523.65 198.77,-532.13 202.67,-526.31"/>
</g>
<!-- Node3 -->
<g id="node3" class="node">
<title>Node3</title>
<g id="a_node3"><a xlink:href="expr_8h.html" target="_top" xlink:title=" ">
<polygon fill="none" stroke="black" points="214,-504.5 214,-523.5 261,-523.5 261,-504.5 214,-504.5"/>
<text text-anchor="middle" x="237.5" y="-511.5" font-family="Helvetica,sans-Serif" font-size="10.00">expr.h</text>
</a>
</g>
</g>
<!-- Node1&#45;&gt;Node3 -->
<g id="edge2" class="edge">
<title>Node1&#45;&gt;Node3</title>
<path fill="none" stroke="midnightblue" d="M264.8,-560.5C259.45,-551.59 253.17,-541.11 247.98,-532.46"/>
<polygon fill="midnightblue" stroke="midnightblue" points="250.84,-530.43 242.69,-523.65 244.84,-534.03 250.84,-530.43"/>
</g>
<!-- Node5 -->
<g id="node5" class="node">
<title>Node5</title>
<g id="a_node5"><a xlink:href="type_8h.html" target="_top" xlink:title="Defines typet, type_with_subtypet and type_with_subtypest.">
<polygon fill="none" stroke="black" points="307,-448.5 307,-467.5 354,-467.5 354,-448.5 307,-448.5"/>
<text text-anchor="middle" x="330.5" y="-455.5" font-family="Helvetica,sans-Serif" font-size="10.00">type.h</text>
</a>
</g>
</g>
<!-- Node1&#45;&gt;Node5 -->
<g id="edge48" class="edge">
<title>Node1&#45;&gt;Node5</title>
<path fill="none" stroke="midnightblue" d="M285.3,-560.29C295.62,-537.17 312.58,-499.16 322.53,-476.86"/>
<polygon fill="midnightblue" stroke="midnightblue" points="325.79,-478.13 326.67,-467.57 319.4,-475.28 325.79,-478.13"/>
</g>
<!-- Node38 -->
<g id="node31" class="node">
<title>Node38</title>
<g id="a_node31"><a xlink:href="mp__arith_8h.html" target="_top" xlink:title=" ">
<polygon fill="none" stroke="black" points="1005,-112.5 1005,-131.5 1074,-131.5 1074,-112.5 1005,-112.5"/>
<text text-anchor="middle" x="1039.5" y="-119.5" font-family="Helvetica,sans-Serif" font-size="10.00">mp_arith.h</text>
</a>
</g>
</g>
<!-- Node1&#45;&gt;Node38 -->
<g id="edge44" class="edge">
<title>Node1&#45;&gt;Node38</title>
<path fill="none" stroke="midnightblue" d="M345.59,-576.16C532.22,-564.89 1032.5,-528.2 1032.5,-459 1032.5,-459 1032.5,-459 1032.5,-233 1032.5,-200.88 1035.51,-163.6 1037.58,-141.73"/>
<polygon fill="midnightblue" stroke="midnightblue" points="1041.09,-141.84 1038.58,-131.55 1034.12,-141.15 1041.09,-141.84"/>
</g>
<!-- Node4 -->
<g id="node4" class="node">
<title>Node4</title>
<g id="a_node4"><a xlink:href="as__const_8h.html" target="_top" xlink:title=" ">
<polygon fill="none" stroke="black" points="314.5,-112.5 314.5,-131.5 382.5,-131.5 382.5,-112.5 314.5,-112.5"/>
<text text-anchor="middle" x="348.5" y="-119.5" font-family="Helvetica,sans-Serif" font-size="10.00">as_const.h</text>
</a>
</g>
</g>
<!-- Node3&#45;&gt;Node4 -->
<g id="edge3" class="edge">
<title>Node3&#45;&gt;Node4</title>
<path fill="none" stroke="midnightblue" d="M261.25,-512.17C290.76,-509.72 340.06,-500.64 363.5,-468 437.6,-364.83 378.77,-196.11 356.29,-141.02"/>
<polygon fill="midnightblue" stroke="midnightblue" points="359.42,-139.44 352.33,-131.57 352.96,-142.14 359.42,-139.44"/>
</g>
<!-- Node3&#45;&gt;Node5 -->
<g id="edge4" class="edge">
<title>Node3&#45;&gt;Node5</title>
<path fill="none" stroke="midnightblue" d="M252.44,-504.32C267.09,-495.82 289.63,-482.73 306.74,-472.8"/>
<polygon fill="midnightblue" stroke="midnightblue" points="308.7,-475.7 315.6,-467.65 305.19,-469.65 308.7,-475.7"/>
</g>
<!-- Node34 -->
<g id="node27" class="node">
<title>Node34</title>
<g id="a_node27"><a xlink:href="validation__mode_8h.html" target="_top" xlink:title=" ">
<polygon fill="none" stroke="black" points="93,-336.5 93,-355.5 200,-355.5 200,-336.5 93,-336.5"/>
<text text-anchor="middle" x="146.5" y="-343.5" font-family="Helvetica,sans-Serif" font-size="10.00">validation_mode.h</text>
</a>
</g>
</g>
<!-- Node3&#45;&gt;Node34 -->
<g id="edge42" class="edge">
<title>Node3&#45;&gt;Node34</title>
<path fill="none" stroke="midnightblue" d="M213.88,-506.23C193.29,-499.35 163.64,-486.99 143.5,-468 116.95,-442.98 100.9,-426.59 112.5,-392 116.1,-381.25 123.4,-371.02 130.32,-363.04"/>
<polygon fill="midnightblue" stroke="midnightblue" points="132.98,-365.32 137.21,-355.61 127.85,-360.56 132.98,-365.32"/>
</g>
<!-- Node35 -->
<g id="node28" class="node">
<title>Node35</title>
<g id="a_node28"><a xlink:href="validate__types_8h.html" target="_top" xlink:title=" ">
<polygon fill="none" stroke="black" points="121.5,-392.5 121.5,-411.5 219.5,-411.5 219.5,-392.5 121.5,-392.5"/>
<text text-anchor="middle" x="170.5" y="-399.5" font-family="Helvetica,sans-Serif" font-size="10.00">validate_types.h</text>
</a>
</g>
</g>
<!-- Node3&#45;&gt;Node35 -->
<g id="edge41" class="edge">
<title>Node3&#45;&gt;Node35</title>
<path fill="none" stroke="midnightblue" d="M214.68,-504.36C191.42,-495.03 157.75,-479.91 150.5,-468 141.42,-453.09 149.51,-433.71 157.95,-420.01"/>
<polygon fill="midnightblue" stroke="midnightblue" points="160.97,-421.8 163.65,-411.55 155.16,-417.89 160.97,-421.8"/>
</g>
<!-- Node36 -->
<g id="node29" class="node">
<title>Node36</title>
<g id="a_node29"><a xlink:href="validate__expressions_8h.html" target="_top" xlink:title=" ">
<polygon fill="none" stroke="black" points="160,-448.5 160,-467.5 289,-467.5 289,-448.5 160,-448.5"/>
<text text-anchor="middle" x="224.5" y="-455.5" font-family="Helvetica,sans-Serif" font-size="10.00">validate_expressions.h</text>
</a>
</g>
</g>
<!-- Node3&#45;&gt;Node36 -->
<g id="edge40" class="edge">
<title>Node3&#45;&gt;Node36</title>
<path fill="none" stroke="midnightblue" d="M235.35,-504.08C233.63,-496.93 231.15,-486.64 229,-477.69"/>
<polygon fill="midnightblue" stroke="midnightblue" points="232.35,-476.65 226.61,-467.75 225.54,-478.29 232.35,-476.65"/>
</g>
<!-- Node37 -->
<g id="node30" class="node">
<title>Node37</title>
<g id="a_node30"><a xlink:title=" ">
<polygon fill="none" stroke="#bfbfbf" points="0,-448.5 0,-467.5 65,-467.5 65,-448.5 0,-448.5"/>
<text text-anchor="middle" x="32.5" y="-455.5" font-family="Helvetica,sans-Serif" font-size="10.00">functional</text>
</a>
</g>
</g>
<!-- Node3&#45;&gt;Node37 -->
<g id="edge43" class="edge">
<title>Node3&#45;&gt;Node37</title>
<path fill="none" stroke="midnightblue" d="M213.71,-506.48C210.62,-505.64 207.48,-504.8 204.5,-504 160.4,-492.22 109.84,-479.03 75.01,-469.99"/>
<polygon fill="midnightblue" stroke="midnightblue" points="75.74,-466.56 65.18,-467.44 73.98,-473.34 75.74,-466.56"/>
</g>
<!-- Node6 -->
<g id="node6" class="node">
<title>Node6</title>
<g id="a_node6"><a xlink:href="source__location_8h.html" target="_top" xlink:title=" ">
<polygon fill="none" stroke="black" points="598.5,-280.5 598.5,-299.5 700.5,-299.5 700.5,-280.5 598.5,-280.5"/>
<text text-anchor="middle" x="649.5" y="-287.5" font-family="Helvetica,sans-Serif" font-size="10.00">source_location.h</text>
</a>
</g>
</g>
<!-- Node5&#45;&gt;Node6 -->
<g id="edge5" class="edge">
<title>Node5&#45;&gt;Node6</title>
<path fill="none" stroke="midnightblue" d="M347.2,-448.31C399.63,-421.02 561.21,-336.95 624.09,-304.22"/>
<polygon fill="midnightblue" stroke="midnightblue" points="625.71,-307.33 632.96,-299.61 622.48,-301.12 625.71,-307.33"/>
</g>
<!-- Node32 -->
<g id="node25" class="node">
<title>Node32</title>
<g id="a_node25"><a xlink:href="validate_8h.html" target="_top" xlink:title=" ">
<polygon fill="none" stroke="black" points="276,-392.5 276,-411.5 341,-411.5 341,-392.5 276,-392.5"/>
<text text-anchor="middle" x="308.5" y="-399.5" font-family="Helvetica,sans-Serif" font-size="10.00">validate.h</text>
</a>
</g>
</g>
<!-- Node5&#45;&gt;Node32 -->
<g id="edge31" class="edge">
<title>Node5&#45;&gt;Node32</title>
<path fill="none" stroke="midnightblue" d="M326.87,-448.08C323.89,-440.77 319.57,-430.18 315.88,-421.1"/>
<polygon fill="midnightblue" stroke="midnightblue" points="319.08,-419.69 312.07,-411.75 312.6,-422.33 319.08,-419.69"/>
</g>
<!-- Node5&#45;&gt;Node34 -->
<g id="edge39" class="edge">
<title>Node5&#45;&gt;Node34</title>
<path fill="none" stroke="midnightblue" d="M317.47,-448.31C298.24,-435.57 261.02,-411.26 228.5,-392 209.81,-380.93 188.27,-369.15 171.95,-360.41"/>
<polygon fill="midnightblue" stroke="midnightblue" points="173.49,-357.26 163.01,-355.65 170.2,-363.44 173.49,-357.26"/>
</g>
<!-- Node5&#45;&gt;Node35 -->
<g id="edge38" class="edge">
<title>Node5&#45;&gt;Node35</title>
<path fill="none" stroke="midnightblue" d="M306.89,-449.03C280.07,-439.98 236.03,-425.12 205.27,-414.74"/>
<polygon fill="midnightblue" stroke="midnightblue" points="206.39,-411.42 195.79,-411.54 204.15,-418.05 206.39,-411.42"/>
</g>
<!-- Node7 -->
<g id="node7" class="node">
<title>Node7</title>
<g id="a_node7"><a xlink:href="deprecate_8h.html" target="_top" xlink:title=" ">
<polygon fill="none" stroke="black" points="806.5,-168.5 806.5,-187.5 880.5,-187.5 880.5,-168.5 806.5,-168.5"/>
<text text-anchor="middle" x="843.5" y="-175.5" font-family="Helvetica,sans-Serif" font-size="10.00">deprecate.h</text>
</a>
</g>
</g>
<!-- Node6&#45;&gt;Node7 -->
<g id="edge6" class="edge">
<title>Node6&#45;&gt;Node7</title>
<path fill="none" stroke="midnightblue" d="M664.72,-280.37C698.3,-261.33 778.92,-215.62 819.43,-192.65"/>
<polygon fill="midnightblue" stroke="midnightblue" points="821.38,-195.57 828.35,-187.59 817.92,-189.48 821.38,-195.57"/>
</g>
<!-- Node8 -->
<g id="node8" class="node">
<title>Node8</title>
<g id="a_node8"><a xlink:href="irep_8h.html" target="_top" xlink:title=" ">
<polygon fill="none" stroke="black" points="604.5,-224.5 604.5,-243.5 648.5,-243.5 648.5,-224.5 604.5,-224.5"/>
<text text-anchor="middle" x="626.5" y="-231.5" font-family="Helvetica,sans-Serif" font-size="10.00">irep.h</text>
</a>
</g>
</g>
<!-- Node6&#45;&gt;Node8 -->
<g id="edge7" class="edge">
<title>Node6&#45;&gt;Node8</title>
<path fill="none" stroke="midnightblue" d="M645.7,-280.08C642.59,-272.77 638.08,-262.18 634.21,-253.1"/>
<polygon fill="midnightblue" stroke="midnightblue" points="637.37,-251.58 630.23,-243.75 630.93,-254.32 637.37,-251.58"/>
</g>
<!-- Node9 -->
<g id="node9" class="node">
<title>Node9</title>
<g id="a_node9"><a xlink:title=" ">
<polygon fill="none" stroke="#bfbfbf" points="765.5,-0.5 765.5,-19.5 809.5,-19.5 809.5,-0.5 765.5,-0.5"/>
<text text-anchor="middle" x="787.5" y="-7.5" font-family="Helvetica,sans-Serif" font-size="10.00">string</text>
</a>
</g>
</g>
<!-- Node6&#45;&gt;Node9 -->
<g id="edge30" class="edge">
<title>Node6&#45;&gt;Node9</title>
<path fill="none" stroke="midnightblue" d="M700.62,-285.65C749.72,-280.98 825.13,-269.92 885.5,-244 924.71,-227.16 944.02,-225.97 963.5,-188 982.11,-151.73 1012.22,-134.53 939.5,-56 908.66,-22.7 854.46,-13.63 819.81,-11.39"/>
<polygon fill="midnightblue" stroke="midnightblue" points="819.89,-7.89 809.73,-10.89 819.54,-14.88 819.89,-7.89"/>
</g>
<!-- Node30 -->
<g id="node23" class="node">
<title>Node30</title>
<g id="a_node23"><a xlink:href="optional_8h.html" target="_top" xlink:title=" ">
<polygon fill="none" stroke="black" points="811,-224.5 811,-243.5 876,-243.5 876,-224.5 811,-224.5"/>
<text text-anchor="middle" x="843.5" y="-231.5" font-family="Helvetica,sans-Serif" font-size="10.00">optional.h</text>
</a>
</g>
</g>
<!-- Node6&#45;&gt;Node30 -->
<g id="edge27" class="edge">
<title>Node6&#45;&gt;Node30</title>
<path fill="none" stroke="midnightblue" d="M680.24,-280.44C713.44,-271.2 766.49,-256.44 803.06,-246.26"/>
<polygon fill="midnightblue" stroke="midnightblue" points="804.21,-249.57 812.9,-243.52 802.33,-242.83 804.21,-249.57"/>
</g>
<!-- Node8&#45;&gt;Node9 -->
<g id="edge8" class="edge">
<title>Node8&#45;&gt;Node9</title>
<path fill="none" stroke="midnightblue" d="M637.63,-224.29C648.38,-215.64 664.84,-201.71 677.5,-188 724.68,-136.91 763.02,-62.77 779.2,-28.98"/>
<polygon fill="midnightblue" stroke="midnightblue" points="782.57,-30.05 783.66,-19.51 776.23,-27.07 782.57,-30.05"/>
</g>
<!-- Node10 -->
<g id="node10" class="node">
<title>Node10</title>
<g id="a_node10"><a xlink:title=" ">
<polygon fill="none" stroke="#bfbfbf" points="476,-168.5 476,-187.5 523,-187.5 523,-168.5 476,-168.5"/>
<text text-anchor="middle" x="499.5" y="-175.5" font-family="Helvetica,sans-Serif" font-size="10.00">vector</text>
</a>
</g>
</g>
<!-- Node8&#45;&gt;Node10 -->
<g id="edge9" class="edge">
<title>Node8&#45;&gt;Node10</title>
<path fill="none" stroke="midnightblue" d="M606.38,-224.44C585.48,-215.56 552.57,-201.56 528.78,-191.45"/>
<polygon fill="midnightblue" stroke="midnightblue" points="530.1,-188.21 519.53,-187.52 527.36,-194.65 530.1,-188.21"/>
</g>
<!-- Node11 -->
<g id="node11" class="node">
<title>Node11</title>
<g id="a_node11"><a xlink:href="src_2util_2invariant_8h.html" target="_top" xlink:title=" ">
<polygon fill="none" stroke="black" points="402,-56.5 402,-75.5 471,-75.5 471,-56.5 402,-56.5"/>
<text text-anchor="middle" x="436.5" y="-63.5" font-family="Helvetica,sans-Serif" font-size="10.00">invariant.h</text>
</a>
</g>
</g>
<!-- Node8&#45;&gt;Node11 -->
<g id="edge10" class="edge">
<title>Node8&#45;&gt;Node11</title>
<path fill="none" stroke="midnightblue" d="M604.35,-231.57C571.54,-228.45 509.42,-218.65 467.5,-188 443.42,-170.39 439.09,-160.57 430.5,-132 425.91,-116.74 428.18,-98.63 431.15,-85.41"/>
<polygon fill="midnightblue" stroke="midnightblue" points="434.56,-86.18 433.68,-75.62 427.79,-84.43 434.56,-86.18"/>
</g>
<!-- Node15 -->
<g id="node15" class="node">
<title>Node15</title>
<g id="a_node15"><a xlink:href="irep__ids_8h.html" target="_top" xlink:title="util">
<polygon fill="none" stroke="black" points="724.5,-168.5 724.5,-187.5 788.5,-187.5 788.5,-168.5 724.5,-168.5"/>
<text text-anchor="middle" x="756.5" y="-175.5" font-family="Helvetica,sans-Serif" font-size="10.00">irep_ids.h</text>
</a>
</g>
</g>
<!-- Node8&#45;&gt;Node15 -->
<g id="edge15" class="edge">
<title>Node8&#45;&gt;Node15</title>
<path fill="none" stroke="midnightblue" d="M647.1,-224.44C668.49,-215.56 702.18,-201.56 726.52,-191.45"/>
<polygon fill="midnightblue" stroke="midnightblue" points="728.11,-194.58 736,-187.52 725.42,-188.12 728.11,-194.58"/>
</g>
<!-- Node26 -->
<g id="node19" class="node">
<title>Node26</title>
<g id="a_node19"><a xlink:href="forward__list__as__map_8h.html" target="_top" xlink:title=" ">
<polygon fill="none" stroke="black" points="541,-168.5 541,-187.5 668,-187.5 668,-168.5 541,-168.5"/>
<text text-anchor="middle" x="604.5" y="-175.5" font-family="Helvetica,sans-Serif" font-size="10.00">forward_list_as_map.h</text>
</a>
</g>
</g>
<!-- Node8&#45;&gt;Node26 -->
<g id="edge20" class="edge">
<title>Node8&#45;&gt;Node26</title>
<path fill="none" stroke="midnightblue" d="M622.87,-224.08C619.89,-216.77 615.57,-206.18 611.88,-197.1"/>
<polygon fill="midnightblue" stroke="midnightblue" points="615.08,-195.69 608.07,-187.75 608.6,-198.33 615.08,-195.69"/>
</g>
<!-- Node11&#45;&gt;Node9 -->
<g id="edge13" class="edge">
<title>Node11&#45;&gt;Node9</title>
<path fill="none" stroke="midnightblue" d="M471.12,-59.67C539.11,-49.21 689.21,-26.12 755.24,-15.96"/>
<polygon fill="midnightblue" stroke="midnightblue" points="756.11,-19.37 765.46,-14.39 755.05,-12.45 756.11,-19.37"/>
</g>
<!-- Node12 -->
<g id="node12" class="node">
<title>Node12</title>
<g id="a_node12"><a xlink:title=" ">
<polygon fill="none" stroke="#bfbfbf" points="483,-0.5 483,-19.5 532,-19.5 532,-0.5 483,-0.5"/>
<text text-anchor="middle" x="507.5" y="-7.5" font-family="Helvetica,sans-Serif" font-size="10.00">cstdlib</text>
</a>
</g>
</g>
<!-- Node11&#45;&gt;Node12 -->
<g id="edge11" class="edge">
<title>Node11&#45;&gt;Node12</title>
<path fill="none" stroke="midnightblue" d="M447.91,-56.32C458.61,-48.18 474.84,-35.84 487.66,-26.09"/>
<polygon fill="midnightblue" stroke="midnightblue" points="490.04,-28.67 495.89,-19.83 485.81,-23.1 490.04,-28.67"/>
</g>
<!-- Node13 -->
<g id="node13" class="node">
<title>Node13</title>
<g id="a_node13"><a xlink:title=" ">
<polygon fill="none" stroke="#bfbfbf" points="408.5,-0.5 408.5,-19.5 464.5,-19.5 464.5,-0.5 408.5,-0.5"/>
<text text-anchor="middle" x="436.5" y="-7.5" font-family="Helvetica,sans-Serif" font-size="10.00">sstream</text>
</a>
</g>
</g>
<!-- Node11&#45;&gt;Node13 -->
<g id="edge12" class="edge">
<title>Node11&#45;&gt;Node13</title>
<path fill="none" stroke="midnightblue" d="M436.5,-56.08C436.5,-49.01 436.5,-38.86 436.5,-29.99"/>
<polygon fill="midnightblue" stroke="midnightblue" points="440,-29.75 436.5,-19.75 433,-29.75 440,-29.75"/>
</g>
<!-- Node14 -->
<g id="node14" class="node">
<title>Node14</title>
<g id="a_node14"><a xlink:title=" ">
<polygon fill="none" stroke="#bfbfbf" points="321,-0.5 321,-19.5 390,-19.5 390,-0.5 321,-0.5"/>
<text text-anchor="middle" x="355.5" y="-7.5" font-family="Helvetica,sans-Serif" font-size="10.00">type_traits</text>
</a>
</g>
</g>
<!-- Node11&#45;&gt;Node14 -->
<g id="edge14" class="edge">
<title>Node11&#45;&gt;Node14</title>
<path fill="none" stroke="midnightblue" d="M423.49,-56.32C410.97,-47.98 391.82,-35.21 377.03,-25.35"/>
<polygon fill="midnightblue" stroke="midnightblue" points="378.74,-22.29 368.48,-19.65 374.86,-28.11 378.74,-22.29"/>
</g>
<!-- Node16 -->
<g id="node16" class="node">
<title>Node16</title>
<g id="a_node16"><a xlink:href="dstring_8h.html" target="_top" xlink:title="Container for C&#45;Strings.">
<polygon fill="none" stroke="red" points="859,-112.5 859,-131.5 918,-131.5 918,-112.5 859,-112.5"/>
<text text-anchor="middle" x="888.5" y="-119.5" font-family="Helvetica,sans-Serif" font-size="10.00">dstring.h</text>
</a>
</g>
</g>
<!-- Node15&#45;&gt;Node16 -->
<g id="edge16" class="edge">
<title>Node15&#45;&gt;Node16</title>
<path fill="none" stroke="midnightblue" d="M777.42,-168.44C799.24,-159.52 833.65,-145.44 858.39,-135.32"/>
<polygon fill="midnightblue" stroke="midnightblue" points="859.75,-138.54 867.68,-131.52 857.1,-132.06 859.75,-138.54"/>
</g>
<!-- Node25 -->
<g id="node18" class="node">
<title>Node25</title>
<g id="a_node18"><a xlink:title=" ">
<polygon fill="none" stroke="#bfbfbf" points="766.5,-112.5 766.5,-131.5 840.5,-131.5 840.5,-112.5 766.5,-112.5"/>
<text text-anchor="middle" x="803.5" y="-119.5" font-family="Helvetica,sans-Serif" font-size="10.00">irep_ids.def</text>
</a>
</g>
</g>
<!-- Node15&#45;&gt;Node25 -->
<g id="edge19" class="edge">
<title>Node15&#45;&gt;Node25</title>
<path fill="none" stroke="midnightblue" d="M764.26,-168.08C771.04,-160.3 781.04,-148.8 789.26,-139.37"/>
<polygon fill="midnightblue" stroke="midnightblue" points="791.96,-141.59 795.88,-131.75 786.68,-137 791.96,-141.59"/>
</g>
<!-- Node16&#45;&gt;Node9 -->
<g id="edge18" class="edge">
<title>Node16&#45;&gt;Node9</title>
<path fill="none" stroke="midnightblue" d="M880.57,-112.37C863.69,-93.97 823.93,-50.67 802.24,-27.05"/>
<polygon fill="midnightblue" stroke="midnightblue" points="804.73,-24.59 795.39,-19.59 799.57,-29.32 804.73,-24.59"/>
</g>
<!-- Node17 -->
<g id="node17" class="node">
<title>Node17</title>
<g id="a_node17"><a xlink:title=" ">
<polygon fill="none" stroke="#bfbfbf" points="882.5,-56.5 882.5,-75.5 930.5,-75.5 930.5,-56.5 882.5,-56.5"/>
<text text-anchor="middle" x="906.5" y="-63.5" font-family="Helvetica,sans-Serif" font-size="10.00">iosfwd</text>
</a>
</g>
</g>
<!-- Node16&#45;&gt;Node17 -->
<g id="edge17" class="edge">
<title>Node16&#45;&gt;Node17</title>
<path fill="none" stroke="midnightblue" d="M891.47,-112.08C893.88,-104.85 897.36,-94.41 900.37,-85.4"/>
<polygon fill="midnightblue" stroke="midnightblue" points="903.74,-86.34 903.58,-75.75 897.1,-84.13 903.74,-86.34"/>
</g>
<!-- Node26&#45;&gt;Node4 -->
<g id="edge23" class="edge">
<title>Node26&#45;&gt;Node4</title>
<path fill="none" stroke="midnightblue" d="M563.94,-168.44C517.21,-158.59 440.71,-142.45 392.55,-132.29"/>
<polygon fill="midnightblue" stroke="midnightblue" points="393.24,-128.86 382.73,-130.22 391.79,-135.71 393.24,-128.86"/>
</g>
<!-- Node27 -->
<g id="node20" class="node">
<title>Node27</title>
<g id="a_node20"><a xlink:title=" ">
<polygon fill="none" stroke="#bfbfbf" points="646.5,-112.5 646.5,-131.5 710.5,-131.5 710.5,-112.5 646.5,-112.5"/>
<text text-anchor="middle" x="678.5" y="-119.5" font-family="Helvetica,sans-Serif" font-size="10.00">algorithm</text>
</a>
</g>
</g>
<!-- Node26&#45;&gt;Node27 -->
<g id="edge21" class="edge">
<title>Node26&#45;&gt;Node27</title>
<path fill="none" stroke="midnightblue" d="M616.39,-168.32C627.65,-160.11 644.79,-147.6 658.21,-137.81"/>
<polygon fill="midnightblue" stroke="midnightblue" points="660.38,-140.56 666.39,-131.83 656.25,-134.9 660.38,-140.56"/>
</g>
<!-- Node28 -->
<g id="node21" class="node">
<title>Node28</title>
<g id="a_node21"><a xlink:title=" ">
<polygon fill="none" stroke="#bfbfbf" points="554.5,-112.5 554.5,-131.5 628.5,-131.5 628.5,-112.5 554.5,-112.5"/>
<text text-anchor="middle" x="591.5" y="-119.5" font-family="Helvetica,sans-Serif" font-size="10.00">forward_list</text>
</a>
</g>
</g>
<!-- Node26&#45;&gt;Node28 -->
<g id="edge22" class="edge">
<title>Node26&#45;&gt;Node28</title>
<path fill="none" stroke="midnightblue" d="M602.35,-168.08C600.63,-160.93 598.15,-150.64 596,-141.69"/>
<polygon fill="midnightblue" stroke="midnightblue" points="599.35,-140.65 593.61,-131.75 592.54,-142.29 599.35,-140.65"/>
</g>
<!-- Node29 -->
<g id="node22" class="node">
<title>Node29</title>
<g id="a_node22"><a xlink:href="narrow_8h.html" target="_top" xlink:title=" ">
<polygon fill="none" stroke="black" points="439,-112.5 439,-131.5 498,-131.5 498,-112.5 439,-112.5"/>
<text text-anchor="middle" x="468.5" y="-119.5" font-family="Helvetica,sans-Serif" font-size="10.00">narrow.h</text>
</a>
</g>
</g>
<!-- Node26&#45;&gt;Node29 -->
<g id="edge24" class="edge">
<title>Node26&#45;&gt;Node29</title>
<path fill="none" stroke="midnightblue" d="M582.95,-168.44C560.47,-159.52 525.01,-145.44 499.52,-135.32"/>
<polygon fill="midnightblue" stroke="midnightblue" points="500.53,-131.95 489.95,-131.52 497.95,-138.46 500.53,-131.95"/>
</g>
<!-- Node29&#45;&gt;Node11 -->
<g id="edge26" class="edge">
<title>Node29&#45;&gt;Node11</title>
<path fill="none" stroke="midnightblue" d="M463.22,-112.08C458.79,-104.61 452.34,-93.72 446.88,-84.52"/>
<polygon fill="midnightblue" stroke="midnightblue" points="449.79,-82.57 441.69,-75.75 443.77,-86.14 449.79,-82.57"/>
</g>
<!-- Node29&#45;&gt;Node14 -->
<g id="edge25" class="edge">
<title>Node29&#45;&gt;Node14</title>
<path fill="none" stroke="midnightblue" d="M448.48,-112.42C432.2,-104.69 409.41,-92.09 393.5,-76 380.17,-62.52 369.75,-43.45 363.22,-29.45"/>
<polygon fill="midnightblue" stroke="midnightblue" points="366.24,-27.64 359,-19.91 359.84,-30.47 366.24,-27.64"/>
</g>
<!-- Node30&#45;&gt;Node7 -->
<g id="edge28" class="edge">
<title>Node30&#45;&gt;Node7</title>
<path fill="none" stroke="midnightblue" d="M843.5,-224.08C843.5,-217.01 843.5,-206.86 843.5,-197.99"/>
<polygon fill="midnightblue" stroke="midnightblue" points="847,-197.75 843.5,-187.75 840,-197.75 847,-197.75"/>
</g>
<!-- Node31 -->
<g id="node24" class="node">
<title>Node31</title>
<g id="a_node24"><a xlink:title=" ">
<polygon fill="none" stroke="#bfbfbf" points="898.5,-168.5 898.5,-187.5 954.5,-187.5 954.5,-168.5 898.5,-168.5"/>
<text text-anchor="middle" x="926.5" y="-175.5" font-family="Helvetica,sans-Serif" font-size="10.00">optional</text>
</a>
</g>
</g>
<!-- Node30&#45;&gt;Node31 -->
<g id="edge29" class="edge">
<title>Node30&#45;&gt;Node31</title>
<path fill="none" stroke="midnightblue" d="M856.84,-224.32C869.66,-215.98 889.28,-203.21 904.44,-193.35"/>
<polygon fill="midnightblue" stroke="midnightblue" points="906.72,-196.04 913.2,-187.65 902.91,-190.17 906.72,-196.04"/>
</g>
<!-- Node32&#45;&gt;Node14 -->
<g id="edge32" class="edge">
<title>Node32&#45;&gt;Node14</title>
<path fill="none" stroke="midnightblue" d="M291.32,-392.41C277.55,-384.68 258.73,-372.07 247.5,-356 230.26,-331.33 228.5,-321.1 228.5,-291 228.5,-291 228.5,-291 228.5,-121 228.5,-71.87 283.49,-39.77 321.1,-23.56"/>
<polygon fill="midnightblue" stroke="midnightblue" points="322.8,-26.64 330.71,-19.59 320.13,-20.17 322.8,-26.64"/>
</g>
<!-- Node33 -->
<g id="node26" class="node">
<title>Node33</title>
<g id="a_node26"><a xlink:href="exception__utils_8h.html" target="_top" xlink:title=" ">
<polygon fill="none" stroke="black" points="256.5,-336.5 256.5,-355.5 356.5,-355.5 356.5,-336.5 256.5,-336.5"/>
<text text-anchor="middle" x="306.5" y="-343.5" font-family="Helvetica,sans-Serif" font-size="10.00">exception_utils.h</text>
</a>
</g>
</g>
<!-- Node32&#45;&gt;Node33 -->
<g id="edge33" class="edge">
<title>Node32&#45;&gt;Node33</title>
<path fill="none" stroke="midnightblue" d="M308.17,-392.08C307.91,-385.01 307.53,-374.86 307.2,-365.99"/>
<polygon fill="midnightblue" stroke="midnightblue" points="310.69,-365.61 306.82,-355.75 303.7,-365.87 310.69,-365.61"/>
</g>
<!-- Node32&#45;&gt;Node34 -->
<g id="edge37" class="edge">
<title>Node32&#45;&gt;Node34</title>
<path fill="none" stroke="midnightblue" d="M282.83,-392.44C255.58,-383.36 212.32,-368.94 181.85,-358.78"/>
<polygon fill="midnightblue" stroke="midnightblue" points="182.64,-355.36 172.05,-355.52 180.43,-362 182.64,-355.36"/>
</g>
<!-- Node33&#45;&gt;Node6 -->
<g id="edge36" class="edge">
<title>Node33&#45;&gt;Node6</title>
<path fill="none" stroke="midnightblue" d="M356.74,-337.09C418.12,-327.43 521.92,-311.08 588.01,-300.68"/>
<polygon fill="midnightblue" stroke="midnightblue" points="588.95,-304.08 598.28,-299.06 587.86,-297.16 588.95,-304.08"/>
</g>
<!-- Node33&#45;&gt;Node9 -->
<g id="edge34" class="edge">
<title>Node33&#45;&gt;Node9</title>
<path fill="none" stroke="midnightblue" d="M313.31,-336.3C334.48,-309.52 401.74,-226.58 467.5,-168 556.83,-88.43 693.72,-39.51 755.41,-20.32"/>
<polygon fill="midnightblue" stroke="midnightblue" points="756.79,-23.55 765.33,-17.29 754.75,-16.86 756.79,-23.55"/>
</g>
<!-- Node33&#45;&gt;Node11 -->
<g id="edge35" class="edge">
<title>Node33&#45;&gt;Node11</title>
<path fill="none" stroke="midnightblue" d="M303.8,-336.26C298.34,-317.77 286.5,-273.24 286.5,-235 286.5,-235 286.5,-235 286.5,-177 286.5,-146.9 284.72,-133.77 305.5,-112 328.05,-88.37 363.55,-77.15 391.91,-71.82"/>
<polygon fill="midnightblue" stroke="midnightblue" points="392.72,-75.23 401.99,-70.11 391.55,-68.33 392.72,-75.23"/>
</g>
<!-- Node38&#45;&gt;Node9 -->
<g id="edge46" class="edge">
<title>Node38&#45;&gt;Node9</title>
<path fill="none" stroke="midnightblue" d="M1035.47,-112.27C1028.46,-98.09 1012.61,-70.22 990.5,-56 937.32,-21.8 861.88,-13.33 819.54,-11.4"/>
<polygon fill="midnightblue" stroke="midnightblue" points="819.64,-7.9 809.52,-11.03 819.38,-14.89 819.64,-7.9"/>
</g>
<!-- Node38&#45;&gt;Node17 -->
<g id="edge45" class="edge">
<title>Node38&#45;&gt;Node17</title>
<path fill="none" stroke="midnightblue" d="M1018.43,-112.44C996.44,-103.52 961.77,-89.44 936.84,-79.32"/>
<polygon fill="midnightblue" stroke="midnightblue" points="938.06,-76.04 927.48,-75.52 935.42,-82.52 938.06,-76.04"/>
</g>
<!-- Node39 -->
<g id="node32" class="node">
<title>Node39</title>
<g id="a_node32"><a xlink:title=" ">
<polygon fill="none" stroke="#bfbfbf" points="1042.5,-56.5 1042.5,-75.5 1136.5,-75.5 1136.5,-56.5 1042.5,-56.5"/>
<text text-anchor="middle" x="1089.5" y="-63.5" font-family="Helvetica,sans-Serif" font-size="10.00">big&#45;int/bigint.hh</text>
</a>
</g>
</g>
<!-- Node38&#45;&gt;Node39 -->
<g id="edge47" class="edge">
<title>Node38&#45;&gt;Node39</title>
<path fill="none" stroke="midnightblue" d="M1047.76,-112.08C1054.96,-104.3 1065.61,-92.8 1074.35,-83.37"/>
<polygon fill="midnightblue" stroke="midnightblue" points="1077.17,-85.47 1081.4,-75.75 1072.03,-80.71 1077.17,-85.47"/>
</g>
</g>
</svg>
