<?xml version="1.0" encoding="UTF-8" standalone="no"?>
<!DOCTYPE svg PUBLIC "-//W3C//DTD SVG 1.1//EN"
 "http://www.w3.org/Graphics/SVG/1.1/DTD/svg11.dtd">
<!-- Generated by graphviz version 2.43.0 (0)
 -->
<!-- Title: /home/runner/work/cbmc/cbmc/src/util/simplify_expr_struct.cpp Pages: 1 -->
<svg width="1313pt" height="778pt"
 viewBox="0.00 0.00 1312.50 778.00" xmlns="http://www.w3.org/2000/svg" xmlns:xlink="http://www.w3.org/1999/xlink">
<g id="graph0" class="graph" transform="scale(1 1) rotate(0) translate(4 774)">
<title>/home/runner/work/cbmc/cbmc/src/util/simplify_expr_struct.cpp</title>
<!-- Node1 -->
<g id="node1" class="node">
<title>Node1</title>
<g id="a_node1"><a xlink:title=" ">
<polygon fill="#bfbfbf" stroke="black" points="458,-728.5 458,-769.5 596,-769.5 596,-728.5 458,-728.5"/>
<text text-anchor="start" x="466" y="-757.5" font-family="Helvetica,sans-Serif" font-size="10.00">/home/runner/work/cbmc</text>
<text text-anchor="start" x="466" y="-746.5" font-family="Helvetica,sans-Serif" font-size="10.00">/cbmc/src/util/simplify</text>
<text text-anchor="middle" x="527" y="-735.5" font-family="Helvetica,sans-Serif" font-size="10.00">_expr_struct.cpp</text>
</a>
</g>
</g>
<!-- Node2 -->
<g id="node2" class="node">
<title>Node2</title>
<g id="a_node2"><a xlink:href="simplify__expr__class_8h.html" target="_top" xlink:title=" ">
<polygon fill="none" stroke="black" points="602,-448.5 602,-467.5 724,-467.5 724,-448.5 602,-448.5"/>
<text text-anchor="middle" x="663" y="-455.5" font-family="Helvetica,sans-Serif" font-size="10.00">simplify_expr_class.h</text>
</a>
</g>
</g>
<!-- Node1&#45;&gt;Node2 -->
<g id="edge1" class="edge">
<title>Node1&#45;&gt;Node2</title>
<path fill="none" stroke="midnightblue" d="M562.41,-728.49C594.57,-707.88 637,-672.14 637,-627 637,-627 637,-627 637,-569 637,-535.93 648.27,-498.73 655.97,-477.17"/>
<polygon fill="midnightblue" stroke="midnightblue" points="659.29,-478.27 659.49,-467.68 652.73,-475.83 659.29,-478.27"/>
</g>
<!-- Node12 -->
<g id="node12" class="node">
<title>Node12</title>
<g id="a_node12"><a xlink:href="src_2util_2invariant_8h.html" target="_top" xlink:title=" ">
<polygon fill="none" stroke="red" points="174.5,-56.5 174.5,-75.5 243.5,-75.5 243.5,-56.5 174.5,-56.5"/>
<text text-anchor="middle" x="209" y="-63.5" font-family="Helvetica,sans-Serif" font-size="10.00">invariant.h</text>
</a>
</g>
</g>
<!-- Node1&#45;&gt;Node12 -->
<g id="edge76" class="edge">
<title>Node1&#45;&gt;Node12</title>
<path fill="none" stroke="midnightblue" d="M457.83,-746.48C314.86,-741.47 0,-719.88 0,-627 0,-627 0,-627 0,-177 0,-103.35 102.88,-78.9 164.28,-70.87"/>
<polygon fill="midnightblue" stroke="midnightblue" points="164.98,-74.31 174.49,-69.63 164.14,-67.36 164.98,-74.31"/>
</g>
<!-- Node42 -->
<g id="node28" class="node">
<title>Node42</title>
<g id="a_node28"><a xlink:href="arith__tools_8h.html" target="_top" xlink:title=" ">
<polygon fill="none" stroke="black" points="271.5,-616.5 271.5,-635.5 348.5,-635.5 348.5,-616.5 271.5,-616.5"/>
<text text-anchor="middle" x="310" y="-623.5" font-family="Helvetica,sans-Serif" font-size="10.00">arith_tools.h</text>
</a>
</g>
</g>
<!-- Node1&#45;&gt;Node42 -->
<g id="edge39" class="edge">
<title>Node1&#45;&gt;Node42</title>
<path fill="none" stroke="midnightblue" d="M457.73,-738.47C403.15,-729.44 333.31,-713.97 315,-692 304.48,-679.38 304.29,-660.16 306.09,-645.9"/>
<polygon fill="midnightblue" stroke="midnightblue" points="309.59,-646.18 307.8,-635.74 302.69,-645.01 309.59,-646.18"/>
</g>
<!-- Node43 -->
<g id="node29" class="node">
<title>Node43</title>
<g id="a_node29"><a xlink:href="std__expr_8h.html" target="_top" xlink:title=" ">
<polygon fill="none" stroke="black" points="299.5,-560.5 299.5,-579.5 366.5,-579.5 366.5,-560.5 299.5,-560.5"/>
<text text-anchor="middle" x="333" y="-567.5" font-family="Helvetica,sans-Serif" font-size="10.00">std_expr.h</text>
</a>
</g>
</g>
<!-- Node1&#45;&gt;Node43 -->
<g id="edge88" class="edge">
<title>Node1&#45;&gt;Node43</title>
<path fill="none" stroke="midnightblue" d="M505.5,-728.38C466.59,-692.88 385.27,-618.69 349.97,-586.48"/>
<polygon fill="midnightblue" stroke="midnightblue" points="352.15,-583.74 342.41,-579.58 347.44,-588.91 352.15,-583.74"/>
</g>
<!-- Node48 -->
<g id="node35" class="node">
<title>Node48</title>
<g id="a_node35"><a xlink:href="byte__operators_8h.html" target="_top" xlink:title="Expression classes for byte&#45;level operators.">
<polygon fill="none" stroke="black" points="40.5,-616.5 40.5,-635.5 139.5,-635.5 139.5,-616.5 40.5,-616.5"/>
<text text-anchor="middle" x="90" y="-623.5" font-family="Helvetica,sans-Serif" font-size="10.00">byte_operators.h</text>
</a>
</g>
</g>
<!-- Node1&#45;&gt;Node48 -->
<g id="edge59" class="edge">
<title>Node1&#45;&gt;Node48</title>
<path fill="none" stroke="midnightblue" d="M457.64,-731.63C413.27,-720.92 354.57,-706.3 303,-692 240.4,-674.64 168.21,-652.06 125.99,-638.6"/>
<polygon fill="midnightblue" stroke="midnightblue" points="127.03,-635.26 116.44,-635.55 124.9,-641.92 127.03,-635.26"/>
</g>
<!-- Node49 -->
<g id="node36" class="node">
<title>Node49</title>
<g id="a_node36"><a xlink:href="c__types_8h.html" target="_top" xlink:title=" ">
<polygon fill="none" stroke="black" points="324.5,-672.5 324.5,-691.5 387.5,-691.5 387.5,-672.5 324.5,-672.5"/>
<text text-anchor="middle" x="356" y="-679.5" font-family="Helvetica,sans-Serif" font-size="10.00">c_types.h</text>
</a>
</g>
</g>
<!-- Node1&#45;&gt;Node49 -->
<g id="edge62" class="edge">
<title>Node1&#45;&gt;Node49</title>
<path fill="none" stroke="midnightblue" d="M475.69,-728.5C447.33,-717.72 412.96,-704.65 388.34,-695.29"/>
<polygon fill="midnightblue" stroke="midnightblue" points="389.35,-691.93 378.76,-691.65 386.87,-698.48 389.35,-691.93"/>
</g>
<!-- Node52 -->
<g id="node39" class="node">
<title>Node52</title>
<g id="a_node39"><a xlink:href="config_8h.html" target="_top" xlink:title=" ">
<polygon fill="none" stroke="black" points="1182.5,-504.5 1182.5,-523.5 1237.5,-523.5 1237.5,-504.5 1182.5,-504.5"/>
<text text-anchor="middle" x="1210" y="-511.5" font-family="Helvetica,sans-Serif" font-size="10.00">config.h</text>
</a>
</g>
</g>
<!-- Node1&#45;&gt;Node52 -->
<g id="edge68" class="edge">
<title>Node1&#45;&gt;Node52</title>
<path fill="none" stroke="midnightblue" d="M596.15,-743.3C701.96,-735.4 898.62,-717.78 964,-692 1062.29,-653.24 1157.75,-566.38 1194.34,-530.73"/>
<polygon fill="midnightblue" stroke="midnightblue" points="1196.94,-533.07 1201.6,-523.56 1192.03,-528.09 1196.94,-533.07"/>
</g>
<!-- Node55 -->
<g id="node43" class="node">
<title>Node55</title>
<g id="a_node43"><a xlink:href="namespace_8h.html" target="_top" xlink:title=" ">
<polygon fill="none" stroke="black" points="446,-168.5 446,-187.5 528,-187.5 528,-168.5 446,-168.5"/>
<text text-anchor="middle" x="487" y="-175.5" font-family="Helvetica,sans-Serif" font-size="10.00">namespace.h</text>
</a>
</g>
</g>
<!-- Node1&#45;&gt;Node55 -->
<g id="edge77" class="edge">
<title>Node1&#45;&gt;Node55</title>
<path fill="none" stroke="midnightblue" d="M539.84,-728.36C553.76,-705.14 574,-664.86 574,-627 574,-627 574,-627 574,-513 574,-482.9 571.19,-473.37 555,-448 521.63,-395.69 475.62,-412.51 450,-356 437.14,-327.64 466.42,-236.97 480.26,-197.57"/>
<polygon fill="midnightblue" stroke="midnightblue" points="483.64,-198.51 483.71,-187.91 477.05,-196.15 483.64,-198.51"/>
</g>
<!-- Node56 -->
<g id="node44" class="node">
<title>Node56</title>
<g id="a_node44"><a xlink:href="pointer__offset__size_8h.html" target="_top" xlink:title=" ">
<polygon fill="none" stroke="black" points="1020,-448.5 1020,-467.5 1138,-467.5 1138,-448.5 1020,-448.5"/>
<text text-anchor="middle" x="1079" y="-455.5" font-family="Helvetica,sans-Serif" font-size="10.00">pointer_offset_size.h</text>
</a>
</g>
</g>
<!-- Node1&#45;&gt;Node56 -->
<g id="edge80" class="edge">
<title>Node1&#45;&gt;Node56</title>
<path fill="none" stroke="midnightblue" d="M596.38,-742.53C716.38,-731.15 950,-699.66 950,-627 950,-627 950,-627 950,-569 950,-519.35 1006.02,-487.37 1044.23,-471.33"/>
<polygon fill="midnightblue" stroke="midnightblue" points="1045.54,-474.57 1053.51,-467.59 1042.93,-468.08 1045.54,-474.57"/>
</g>
<!-- Node57 -->
<g id="node45" class="node">
<title>Node57</title>
<g id="a_node45"><a xlink:href="simplify__utils_8h.html" target="_top" xlink:title=" ">
<polygon fill="none" stroke="black" points="818.5,-448.5 818.5,-467.5 909.5,-467.5 909.5,-448.5 818.5,-448.5"/>
<text text-anchor="middle" x="864" y="-455.5" font-family="Helvetica,sans-Serif" font-size="10.00">simplify_utils.h</text>
</a>
</g>
</g>
<!-- Node1&#45;&gt;Node57 -->
<g id="edge84" class="edge">
<title>Node1&#45;&gt;Node57</title>
<path fill="none" stroke="midnightblue" d="M596.01,-744.19C671.53,-735.86 782,-709.57 782,-627 782,-627 782,-627 782,-569 782,-528.27 818.59,-492.87 842.88,-473.86"/>
<polygon fill="midnightblue" stroke="midnightblue" points="845.3,-476.42 851.19,-467.61 841.09,-470.82 845.3,-476.42"/>
</g>
<!-- Node3 -->
<g id="node3" class="node">
<title>Node3</title>
<g id="a_node3"><a xlink:title=" ">
<polygon fill="none" stroke="#bfbfbf" points="724,-392.5 724,-411.5 756,-411.5 756,-392.5 724,-392.5"/>
<text text-anchor="middle" x="740" y="-399.5" font-family="Helvetica,sans-Serif" font-size="10.00">set</text>
</a>
</g>
</g>
<!-- Node2&#45;&gt;Node3 -->
<g id="edge2" class="edge">
<title>Node2&#45;&gt;Node3</title>
<path fill="none" stroke="midnightblue" d="M675.37,-448.32C687.16,-440.06 705.13,-427.45 719.14,-417.63"/>
<polygon fill="midnightblue" stroke="midnightblue" points="721.48,-420.26 727.66,-411.65 717.46,-414.53 721.48,-420.26"/>
</g>
<!-- Node4 -->
<g id="node4" class="node">
<title>Node4</title>
<g id="a_node4"><a xlink:href="expr_8h.html" target="_top" xlink:title=" ">
<polygon fill="none" stroke="black" points="528.5,-392.5 528.5,-411.5 575.5,-411.5 575.5,-392.5 528.5,-392.5"/>
<text text-anchor="middle" x="552" y="-399.5" font-family="Helvetica,sans-Serif" font-size="10.00">expr.h</text>
</a>
</g>
</g>
<!-- Node2&#45;&gt;Node4 -->
<g id="edge3" class="edge">
<title>Node2&#45;&gt;Node4</title>
<path fill="none" stroke="midnightblue" d="M645.17,-448.32C627.28,-439.62 599.52,-426.12 578.95,-416.11"/>
<polygon fill="midnightblue" stroke="midnightblue" points="580.31,-412.88 569.79,-411.65 577.25,-419.18 580.31,-412.88"/>
</g>
<!-- Node6 -->
<g id="node6" class="node">
<title>Node6</title>
<g id="a_node6"><a xlink:href="type_8h.html" target="_top" xlink:title=" ">
<polygon fill="none" stroke="black" points="682.5,-336.5 682.5,-355.5 729.5,-355.5 729.5,-336.5 682.5,-336.5"/>
<text text-anchor="middle" x="706" y="-343.5" font-family="Helvetica,sans-Serif" font-size="10.00">type.h</text>
</a>
</g>
</g>
<!-- Node2&#45;&gt;Node6 -->
<g id="edge38" class="edge">
<title>Node2&#45;&gt;Node6</title>
<path fill="none" stroke="midnightblue" d="M651.28,-448.4C635.85,-435.97 612,-412.27 624,-392 634.54,-374.2 654.9,-362.97 672.69,-356.18"/>
<polygon fill="midnightblue" stroke="midnightblue" points="673.95,-359.45 682.24,-352.85 671.64,-352.84 673.95,-359.45"/>
</g>
<!-- Node39 -->
<g id="node24" class="node">
<title>Node39</title>
<g id="a_node24"><a xlink:href="mp__arith_8h.html" target="_top" xlink:title=" ">
<polygon fill="none" stroke="black" points="774.5,-392.5 774.5,-411.5 843.5,-411.5 843.5,-392.5 774.5,-392.5"/>
<text text-anchor="middle" x="809" y="-399.5" font-family="Helvetica,sans-Serif" font-size="10.00">mp_arith.h</text>
</a>
</g>
</g>
<!-- Node2&#45;&gt;Node39 -->
<g id="edge33" class="edge">
<title>Node2&#45;&gt;Node39</title>
<path fill="none" stroke="midnightblue" d="M686.13,-448.44C710.48,-439.44 749.01,-425.19 776.42,-415.05"/>
<polygon fill="midnightblue" stroke="midnightblue" points="777.81,-418.27 785.97,-411.52 775.38,-411.7 777.81,-418.27"/>
</g>
<!-- Node41 -->
<g id="node27" class="node">
<title>Node41</title>
<g id="a_node27"><a xlink:href="nodiscard_8h.html" target="_top" xlink:title=" ">
<polygon fill="none" stroke="black" points="632.5,-392.5 632.5,-411.5 705.5,-411.5 705.5,-392.5 632.5,-392.5"/>
<text text-anchor="middle" x="669" y="-399.5" font-family="Helvetica,sans-Serif" font-size="10.00">nodiscard.h</text>
</a>
</g>
</g>
<!-- Node2&#45;&gt;Node41 -->
<g id="edge37" class="edge">
<title>Node2&#45;&gt;Node41</title>
<path fill="none" stroke="midnightblue" d="M663.99,-448.08C664.79,-440.93 665.93,-430.64 666.92,-421.69"/>
<polygon fill="midnightblue" stroke="midnightblue" points="670.4,-422.08 668.03,-411.75 663.44,-421.3 670.4,-422.08"/>
</g>
<!-- Node5 -->
<g id="node5" class="node">
<title>Node5</title>
<g id="a_node5"><a xlink:href="as__const_8h.html" target="_top" xlink:title=" ">
<polygon fill="none" stroke="black" points="1083,-0.5 1083,-19.5 1151,-19.5 1151,-0.5 1083,-0.5"/>
<text text-anchor="middle" x="1117" y="-7.5" font-family="Helvetica,sans-Serif" font-size="10.00">as_const.h</text>
</a>
</g>
</g>
<!-- Node4&#45;&gt;Node5 -->
<g id="edge4" class="edge">
<title>Node4&#45;&gt;Node5</title>
<path fill="none" stroke="midnightblue" d="M575.64,-398.15C612.02,-393.16 683.37,-380.88 739,-356 938.76,-266.66 1042.38,-269.8 1144,-76 1152.38,-60.02 1142.11,-40.85 1131.92,-27.49"/>
<polygon fill="midnightblue" stroke="midnightblue" points="1134.5,-25.11 1125.43,-19.63 1129.1,-29.57 1134.5,-25.11"/>
</g>
<!-- Node4&#45;&gt;Node6 -->
<g id="edge5" class="edge">
<title>Node4&#45;&gt;Node6</title>
<path fill="none" stroke="midnightblue" d="M575.73,-392.68C601.61,-383.6 643.26,-369 672.48,-358.75"/>
<polygon fill="midnightblue" stroke="midnightblue" points="673.97,-361.94 682.25,-355.33 671.65,-355.33 673.97,-361.94"/>
</g>
<!-- Node35 -->
<g id="node20" class="node">
<title>Node35</title>
<g id="a_node20"><a xlink:href="validation__mode_8h.html" target="_top" xlink:title=" ">
<polygon fill="none" stroke="black" points="506.5,-224.5 506.5,-243.5 613.5,-243.5 613.5,-224.5 506.5,-224.5"/>
<text text-anchor="middle" x="560" y="-231.5" font-family="Helvetica,sans-Serif" font-size="10.00">validation_mode.h</text>
</a>
</g>
</g>
<!-- Node4&#45;&gt;Node35 -->
<g id="edge31" class="edge">
<title>Node4&#45;&gt;Node35</title>
<path fill="none" stroke="midnightblue" d="M565.06,-392.44C575.91,-384.47 590.57,-371.52 597,-356 600.4,-347.79 601.05,-343.91 597,-336 584.52,-311.63 559.48,-324.37 547,-300 539.47,-285.31 544.46,-266.67 550.31,-253.13"/>
<polygon fill="midnightblue" stroke="midnightblue" points="553.56,-254.44 554.75,-243.91 547.25,-251.4 553.56,-254.44"/>
</g>
<!-- Node36 -->
<g id="node21" class="node">
<title>Node36</title>
<g id="a_node21"><a xlink:href="validate__types_8h.html" target="_top" xlink:title=" ">
<polygon fill="none" stroke="black" points="556,-280.5 556,-299.5 654,-299.5 654,-280.5 556,-280.5"/>
<text text-anchor="middle" x="605" y="-287.5" font-family="Helvetica,sans-Serif" font-size="10.00">validate_types.h</text>
</a>
</g>
</g>
<!-- Node4&#45;&gt;Node36 -->
<g id="edge30" class="edge">
<title>Node4&#45;&gt;Node36</title>
<path fill="none" stroke="midnightblue" d="M575.75,-394.43C594.17,-387.95 618.43,-376.04 630,-356 638.93,-340.54 629.24,-321.29 619.44,-307.77"/>
<polygon fill="midnightblue" stroke="midnightblue" points="622.11,-305.5 613.18,-299.8 616.61,-309.83 622.11,-305.5"/>
</g>
<!-- Node37 -->
<g id="node22" class="node">
<title>Node37</title>
<g id="a_node22"><a xlink:href="validate__expressions_8h.html" target="_top" xlink:title=" ">
<polygon fill="none" stroke="black" points="458.5,-336.5 458.5,-355.5 587.5,-355.5 587.5,-336.5 458.5,-336.5"/>
<text text-anchor="middle" x="523" y="-343.5" font-family="Helvetica,sans-Serif" font-size="10.00">validate_expressions.h</text>
</a>
</g>
</g>
<!-- Node4&#45;&gt;Node37 -->
<g id="edge29" class="edge">
<title>Node4&#45;&gt;Node37</title>
<path fill="none" stroke="midnightblue" d="M547.21,-392.08C543.24,-384.69 537.47,-373.95 532.57,-364.81"/>
<polygon fill="midnightblue" stroke="midnightblue" points="535.51,-362.91 527.7,-355.75 529.35,-366.22 535.51,-362.91"/>
</g>
<!-- Node38 -->
<g id="node23" class="node">
<title>Node38</title>
<g id="a_node23"><a xlink:title=" ">
<polygon fill="none" stroke="#bfbfbf" points="298.5,-336.5 298.5,-355.5 363.5,-355.5 363.5,-336.5 298.5,-336.5"/>
<text text-anchor="middle" x="331" y="-343.5" font-family="Helvetica,sans-Serif" font-size="10.00">functional</text>
</a>
</g>
</g>
<!-- Node4&#45;&gt;Node38 -->
<g id="edge32" class="edge">
<title>Node4&#45;&gt;Node38</title>
<path fill="none" stroke="midnightblue" d="M528.35,-395.22C491.5,-386.22 419.82,-368.7 373.75,-357.44"/>
<polygon fill="midnightblue" stroke="midnightblue" points="374.3,-353.98 363.76,-355 372.64,-360.78 374.3,-353.98"/>
</g>
<!-- Node7 -->
<g id="node7" class="node">
<title>Node7</title>
<g id="a_node7"><a xlink:href="source__location_8h.html" target="_top" xlink:title=" ">
<polygon fill="none" stroke="black" points="666,-168.5 666,-187.5 768,-187.5 768,-168.5 666,-168.5"/>
<text text-anchor="middle" x="717" y="-175.5" font-family="Helvetica,sans-Serif" font-size="10.00">source_location.h</text>
</a>
</g>
</g>
<!-- Node6&#45;&gt;Node7 -->
<g id="edge6" class="edge">
<title>Node6&#45;&gt;Node7</title>
<path fill="none" stroke="midnightblue" d="M706.59,-336.08C708.32,-309.95 713.41,-233.21 715.77,-197.58"/>
<polygon fill="midnightblue" stroke="midnightblue" points="719.26,-197.78 716.43,-187.57 712.28,-197.31 719.26,-197.78"/>
</g>
<!-- Node33 -->
<g id="node18" class="node">
<title>Node33</title>
<g id="a_node18"><a xlink:href="validate_8h.html" target="_top" xlink:title=" ">
<polygon fill="none" stroke="black" points="367.5,-280.5 367.5,-299.5 432.5,-299.5 432.5,-280.5 367.5,-280.5"/>
<text text-anchor="middle" x="400" y="-287.5" font-family="Helvetica,sans-Serif" font-size="10.00">validate.h</text>
</a>
</g>
</g>
<!-- Node6&#45;&gt;Node33 -->
<g id="edge20" class="edge">
<title>Node6&#45;&gt;Node33</title>
<path fill="none" stroke="midnightblue" d="M682.5,-340.85C631.09,-331.78 508.03,-310.06 442.59,-298.52"/>
<polygon fill="midnightblue" stroke="midnightblue" points="443.06,-295.05 432.61,-296.75 441.85,-301.94 443.06,-295.05"/>
</g>
<!-- Node6&#45;&gt;Node35 -->
<g id="edge28" class="edge">
<title>Node6&#45;&gt;Node35</title>
<path fill="none" stroke="midnightblue" d="M702.23,-336.27C695.93,-322.59 682.06,-296.02 663,-280 645.03,-264.89 621.2,-254.04 600.99,-246.79"/>
<polygon fill="midnightblue" stroke="midnightblue" points="601.99,-243.44 591.4,-243.52 599.73,-250.06 601.99,-243.44"/>
</g>
<!-- Node6&#45;&gt;Node36 -->
<g id="edge27" class="edge">
<title>Node6&#45;&gt;Node36</title>
<path fill="none" stroke="midnightblue" d="M689.77,-336.32C673.65,-327.7 648.7,-314.36 630.04,-304.39"/>
<polygon fill="midnightblue" stroke="midnightblue" points="631.66,-301.28 621.19,-299.65 628.36,-307.46 631.66,-301.28"/>
</g>
<!-- Node8 -->
<g id="node8" class="node">
<title>Node8</title>
<g id="a_node8"><a xlink:href="deprecate_8h.html" target="_top" xlink:title=" ">
<polygon fill="none" stroke="black" points="514,-112.5 514,-131.5 588,-131.5 588,-112.5 514,-112.5"/>
<text text-anchor="middle" x="551" y="-119.5" font-family="Helvetica,sans-Serif" font-size="10.00">deprecate.h</text>
</a>
</g>
</g>
<!-- Node7&#45;&gt;Node8 -->
<g id="edge7" class="edge">
<title>Node7&#45;&gt;Node8</title>
<path fill="none" stroke="midnightblue" d="M690.7,-168.44C662.65,-159.32 618.06,-144.81 586.82,-134.65"/>
<polygon fill="midnightblue" stroke="midnightblue" points="587.77,-131.28 577.18,-131.52 585.61,-137.94 587.77,-131.28"/>
</g>
<!-- Node9 -->
<g id="node9" class="node">
<title>Node9</title>
<g id="a_node9"><a xlink:href="irep_8h.html" target="_top" xlink:title=" ">
<polygon fill="none" stroke="black" points="861,-112.5 861,-131.5 905,-131.5 905,-112.5 861,-112.5"/>
<text text-anchor="middle" x="883" y="-119.5" font-family="Helvetica,sans-Serif" font-size="10.00">irep.h</text>
</a>
</g>
</g>
<!-- Node7&#45;&gt;Node9 -->
<g id="edge8" class="edge">
<title>Node7&#45;&gt;Node9</title>
<path fill="none" stroke="midnightblue" d="M743.3,-168.44C772.59,-158.92 819.91,-143.52 851.24,-133.33"/>
<polygon fill="midnightblue" stroke="midnightblue" points="852.38,-136.64 860.8,-130.22 850.21,-129.99 852.38,-136.64"/>
</g>
<!-- Node10 -->
<g id="node10" class="node">
<title>Node10</title>
<g id="a_node10"><a xlink:title=" ">
<polygon fill="none" stroke="#bfbfbf" points="714,-0.5 714,-19.5 758,-19.5 758,-0.5 714,-0.5"/>
<text text-anchor="middle" x="736" y="-7.5" font-family="Helvetica,sans-Serif" font-size="10.00">string</text>
</a>
</g>
</g>
<!-- Node7&#45;&gt;Node10 -->
<g id="edge19" class="edge">
<title>Node7&#45;&gt;Node10</title>
<path fill="none" stroke="midnightblue" d="M718.02,-168.08C721.01,-141.95 729.8,-65.21 733.87,-29.58"/>
<polygon fill="midnightblue" stroke="midnightblue" points="737.36,-29.9 735.02,-19.57 730.4,-29.11 737.36,-29.9"/>
</g>
<!-- Node31 -->
<g id="node16" class="node">
<title>Node31</title>
<g id="a_node16"><a xlink:href="optional_8h.html" target="_top" xlink:title=" ">
<polygon fill="none" stroke="black" points="1199.5,-112.5 1199.5,-131.5 1264.5,-131.5 1264.5,-112.5 1199.5,-112.5"/>
<text text-anchor="middle" x="1232" y="-119.5" font-family="Helvetica,sans-Serif" font-size="10.00">optional.h</text>
</a>
</g>
</g>
<!-- Node7&#45;&gt;Node31 -->
<g id="edge17" class="edge">
<title>Node7&#45;&gt;Node31</title>
<path fill="none" stroke="midnightblue" d="M768.26,-171.62C869.91,-160.97 1095.29,-137.33 1189.41,-127.47"/>
<polygon fill="midnightblue" stroke="midnightblue" points="1189.85,-130.94 1199.43,-126.42 1189.12,-123.98 1189.85,-130.94"/>
</g>
<!-- Node9&#45;&gt;Node10 -->
<g id="edge9" class="edge">
<title>Node9&#45;&gt;Node10</title>
<path fill="none" stroke="midnightblue" d="M873.53,-112.12C859.5,-99.16 832.14,-74.57 807,-56 791.69,-44.69 773.55,-33.22 759.44,-24.7"/>
<polygon fill="midnightblue" stroke="midnightblue" points="761.2,-21.67 750.82,-19.55 757.61,-27.68 761.2,-21.67"/>
</g>
<!-- Node11 -->
<g id="node11" class="node">
<title>Node11</title>
<g id="a_node11"><a xlink:title=" ">
<polygon fill="none" stroke="#bfbfbf" points="859.5,-56.5 859.5,-75.5 906.5,-75.5 906.5,-56.5 859.5,-56.5"/>
<text text-anchor="middle" x="883" y="-63.5" font-family="Helvetica,sans-Serif" font-size="10.00">vector</text>
</a>
</g>
</g>
<!-- Node9&#45;&gt;Node11 -->
<g id="edge10" class="edge">
<title>Node9&#45;&gt;Node11</title>
<path fill="none" stroke="midnightblue" d="M883,-112.08C883,-105.01 883,-94.86 883,-85.99"/>
<polygon fill="midnightblue" stroke="midnightblue" points="886.5,-85.75 883,-75.75 879.5,-85.75 886.5,-85.75"/>
</g>
<!-- Node9&#45;&gt;Node12 -->
<g id="edge11" class="edge">
<title>Node9&#45;&gt;Node12</title>
<path fill="none" stroke="midnightblue" d="M860.96,-119.23C765.31,-111.57 385.15,-81.11 253.87,-70.59"/>
<polygon fill="midnightblue" stroke="midnightblue" points="254.01,-67.09 243.76,-69.78 253.45,-74.07 254.01,-67.09"/>
</g>
<!-- Node16 -->
<g id="node14" class="node">
<title>Node16</title>
<g id="a_node14"><a xlink:href="irep__ids_8h.html" target="_top" xlink:title=" ">
<polygon fill="none" stroke="red" points="925,-56.5 925,-75.5 989,-75.5 989,-56.5 925,-56.5"/>
<text text-anchor="middle" x="957" y="-63.5" font-family="Helvetica,sans-Serif" font-size="10.00">irep_ids.h</text>
</a>
</g>
</g>
<!-- Node9&#45;&gt;Node16 -->
<g id="edge14" class="edge">
<title>Node9&#45;&gt;Node16</title>
<path fill="none" stroke="midnightblue" d="M894.89,-112.32C906.15,-104.11 923.29,-91.6 936.71,-81.81"/>
<polygon fill="midnightblue" stroke="midnightblue" points="938.88,-84.56 944.89,-75.83 934.75,-78.9 938.88,-84.56"/>
</g>
<!-- Node27 -->
<g id="node15" class="node">
<title>Node27</title>
<g id="a_node15"><a xlink:href="forward__list__as__map_8h.html" target="_top" xlink:title=" ">
<polygon fill="none" stroke="red" points="1007.5,-56.5 1007.5,-75.5 1134.5,-75.5 1134.5,-56.5 1007.5,-56.5"/>
<text text-anchor="middle" x="1071" y="-63.5" font-family="Helvetica,sans-Serif" font-size="10.00">forward_list_as_map.h</text>
</a>
</g>
</g>
<!-- Node9&#45;&gt;Node27 -->
<g id="edge15" class="edge">
<title>Node9&#45;&gt;Node27</title>
<path fill="none" stroke="midnightblue" d="M905.3,-114.59C936.38,-105.67 993.18,-89.35 1031.51,-78.34"/>
<polygon fill="midnightblue" stroke="midnightblue" points="1032.66,-81.65 1041.31,-75.53 1030.73,-74.93 1032.66,-81.65"/>
</g>
<!-- Node12&#45;&gt;Node10 -->
<g id="edge12" class="edge">
<title>Node12&#45;&gt;Node10</title>
<path fill="none" stroke="midnightblue" d="M243.58,-61.46C339.93,-51.58 610.5,-23.86 703.86,-14.29"/>
<polygon fill="midnightblue" stroke="midnightblue" points="704.25,-17.77 713.84,-13.27 703.53,-10.81 704.25,-17.77"/>
</g>
<!-- Node15 -->
<g id="node13" class="node">
<title>Node15</title>
<g id="a_node13"><a xlink:title=" ">
<polygon fill="none" stroke="#bfbfbf" points="174.5,-0.5 174.5,-19.5 243.5,-19.5 243.5,-0.5 174.5,-0.5"/>
<text text-anchor="middle" x="209" y="-7.5" font-family="Helvetica,sans-Serif" font-size="10.00">type_traits</text>
</a>
</g>
</g>
<!-- Node12&#45;&gt;Node15 -->
<g id="edge13" class="edge">
<title>Node12&#45;&gt;Node15</title>
<path fill="none" stroke="midnightblue" d="M209,-56.08C209,-49.01 209,-38.86 209,-29.99"/>
<polygon fill="midnightblue" stroke="midnightblue" points="212.5,-29.75 209,-19.75 205.5,-29.75 212.5,-29.75"/>
</g>
<!-- Node27&#45;&gt;Node5 -->
<g id="edge16" class="edge">
<title>Node27&#45;&gt;Node5</title>
<path fill="none" stroke="midnightblue" d="M1078.6,-56.08C1085.23,-48.3 1095.02,-36.8 1103.06,-27.37"/>
<polygon fill="midnightblue" stroke="midnightblue" points="1105.73,-29.63 1109.55,-19.75 1100.4,-25.09 1105.73,-29.63"/>
</g>
<!-- Node32 -->
<g id="node17" class="node">
<title>Node32</title>
<g id="a_node17"><a xlink:title=" ">
<polygon fill="none" stroke="#bfbfbf" points="1191.5,-56.5 1191.5,-75.5 1304.5,-75.5 1304.5,-56.5 1191.5,-56.5"/>
<text text-anchor="middle" x="1248" y="-63.5" font-family="Helvetica,sans-Serif" font-size="10.00">nonstd/optional.hpp</text>
</a>
</g>
</g>
<!-- Node31&#45;&gt;Node32 -->
<g id="edge18" class="edge">
<title>Node31&#45;&gt;Node32</title>
<path fill="none" stroke="midnightblue" d="M1234.64,-112.08C1236.79,-104.85 1239.88,-94.41 1242.55,-85.4"/>
<polygon fill="midnightblue" stroke="midnightblue" points="1245.92,-86.33 1245.41,-75.75 1239.21,-84.34 1245.92,-86.33"/>
</g>
<!-- Node33&#45;&gt;Node15 -->
<g id="edge21" class="edge">
<title>Node33&#45;&gt;Node15</title>
<path fill="none" stroke="midnightblue" d="M385.06,-280.45C372.06,-272.4 353.4,-259.32 341,-244 282.82,-172.16 304.38,-132.17 252,-56 244.67,-45.34 234.79,-34.81 226.35,-26.61"/>
<polygon fill="midnightblue" stroke="midnightblue" points="228.51,-23.85 218.83,-19.55 223.72,-28.95 228.51,-23.85"/>
</g>
<!-- Node34 -->
<g id="node19" class="node">
<title>Node34</title>
<g id="a_node19"><a xlink:href="exception__utils_8h.html" target="_top" xlink:title=" ">
<polygon fill="none" stroke="black" points="350,-224.5 350,-243.5 450,-243.5 450,-224.5 350,-224.5"/>
<text text-anchor="middle" x="400" y="-231.5" font-family="Helvetica,sans-Serif" font-size="10.00">exception_utils.h</text>
</a>
</g>
</g>
<!-- Node33&#45;&gt;Node34 -->
<g id="edge22" class="edge">
<title>Node33&#45;&gt;Node34</title>
<path fill="none" stroke="midnightblue" d="M400,-280.08C400,-273.01 400,-262.86 400,-253.99"/>
<polygon fill="midnightblue" stroke="midnightblue" points="403.5,-253.75 400,-243.75 396.5,-253.75 403.5,-253.75"/>
</g>
<!-- Node33&#45;&gt;Node35 -->
<g id="edge26" class="edge">
<title>Node33&#45;&gt;Node35</title>
<path fill="none" stroke="midnightblue" d="M425.35,-280.44C452.27,-271.36 495,-256.94 525.09,-246.78"/>
<polygon fill="midnightblue" stroke="midnightblue" points="526.41,-250.03 534.77,-243.52 524.17,-243.4 526.41,-250.03"/>
</g>
<!-- Node34&#45;&gt;Node7 -->
<g id="edge25" class="edge">
<title>Node34&#45;&gt;Node7</title>
<path fill="none" stroke="midnightblue" d="M450.23,-224.44C506.34,-214.89 597.13,-199.42 656.95,-189.23"/>
<polygon fill="midnightblue" stroke="midnightblue" points="657.74,-192.65 667.01,-187.52 656.56,-185.75 657.74,-192.65"/>
</g>
<!-- Node34&#45;&gt;Node10 -->
<g id="edge23" class="edge">
<title>Node34&#45;&gt;Node10</title>
<path fill="none" stroke="midnightblue" d="M403.67,-224.38C409.5,-211.31 421.78,-186.08 437,-168 509.99,-81.29 643.25,-36.01 704.13,-19.03"/>
<polygon fill="midnightblue" stroke="midnightblue" points="705.21,-22.37 713.94,-16.37 703.37,-15.61 705.21,-22.37"/>
</g>
<!-- Node34&#45;&gt;Node12 -->
<g id="edge24" class="edge">
<title>Node34&#45;&gt;Node12</title>
<path fill="none" stroke="midnightblue" d="M390,-224.31C359.32,-197.64 266.2,-116.72 226.86,-82.52"/>
<polygon fill="midnightblue" stroke="midnightblue" points="228.74,-79.52 218.9,-75.61 224.15,-84.81 228.74,-79.52"/>
</g>
<!-- Node39&#45;&gt;Node10 -->
<g id="edge35" class="edge">
<title>Node39&#45;&gt;Node10</title>
<path fill="none" stroke="midnightblue" d="M807.3,-392.48C803.78,-374.06 796,-329.08 796,-291 796,-291 796,-291 796,-233 796,-154.87 760.94,-66.47 744.42,-29.15"/>
<polygon fill="midnightblue" stroke="midnightblue" points="747.44,-27.32 740.12,-19.65 741.06,-30.21 747.44,-27.32"/>
</g>
<!-- Node18 -->
<g id="node25" class="node">
<title>Node18</title>
<g id="a_node25"><a xlink:title=" ">
<polygon fill="none" stroke="#bfbfbf" points="936,-336.5 936,-355.5 984,-355.5 984,-336.5 936,-336.5"/>
<text text-anchor="middle" x="960" y="-343.5" font-family="Helvetica,sans-Serif" font-size="10.00">iosfwd</text>
</a>
</g>
</g>
<!-- Node39&#45;&gt;Node18 -->
<g id="edge34" class="edge">
<title>Node39&#45;&gt;Node18</title>
<path fill="none" stroke="midnightblue" d="M832.93,-392.44C858.22,-383.4 898.3,-369.06 926.68,-358.92"/>
<polygon fill="midnightblue" stroke="midnightblue" points="927.95,-362.18 936.19,-355.52 925.59,-355.59 927.95,-362.18"/>
</g>
<!-- Node40 -->
<g id="node26" class="node">
<title>Node40</title>
<g id="a_node26"><a xlink:title=" ">
<polygon fill="none" stroke="#bfbfbf" points="824,-336.5 824,-355.5 918,-355.5 918,-336.5 824,-336.5"/>
<text text-anchor="middle" x="871" y="-343.5" font-family="Helvetica,sans-Serif" font-size="10.00">big&#45;int/bigint.hh</text>
</a>
</g>
</g>
<!-- Node39&#45;&gt;Node40 -->
<g id="edge36" class="edge">
<title>Node39&#45;&gt;Node40</title>
<path fill="none" stroke="midnightblue" d="M818.96,-392.32C828.13,-384.34 841.94,-372.31 853.03,-362.65"/>
<polygon fill="midnightblue" stroke="midnightblue" points="855.62,-365.04 860.86,-355.83 851.02,-359.76 855.62,-365.04"/>
</g>
<!-- Node42&#45;&gt;Node12 -->
<g id="edge40" class="edge">
<title>Node42&#45;&gt;Node12</title>
<path fill="none" stroke="midnightblue" d="M271.36,-623.84C204.9,-619.57 76,-600.29 76,-515 76,-515 76,-515 76,-289 76,-200.4 154.91,-116.58 191.17,-82.74"/>
<polygon fill="midnightblue" stroke="midnightblue" points="193.98,-84.91 199,-75.59 189.26,-79.74 193.98,-84.91"/>
</g>
<!-- Node42&#45;&gt;Node31 -->
<g id="edge42" class="edge">
<title>Node42&#45;&gt;Node31</title>
<path fill="none" stroke="midnightblue" d="M348.8,-621.69C530.9,-606.04 1292,-539.16 1292,-515 1292,-515 1292,-515 1292,-233 1292,-195.88 1265.35,-159.38 1247.57,-139.16"/>
<polygon fill="midnightblue" stroke="midnightblue" points="1249.93,-136.55 1240.6,-131.53 1244.76,-141.28 1249.93,-136.55"/>
</g>
<!-- Node42&#45;&gt;Node39 -->
<g id="edge41" class="edge">
<title>Node42&#45;&gt;Node39</title>
<path fill="none" stroke="midnightblue" d="M348.81,-620.55C432.78,-609.14 634.09,-572.07 762,-468 778.15,-454.86 791.47,-434.9 799.75,-420.57"/>
<polygon fill="midnightblue" stroke="midnightblue" points="802.88,-422.14 804.65,-411.7 796.75,-418.75 802.88,-422.14"/>
</g>
<!-- Node42&#45;&gt;Node43 -->
<g id="edge43" class="edge">
<title>Node42&#45;&gt;Node43</title>
<path fill="none" stroke="midnightblue" d="M313.8,-616.08C316.91,-608.77 321.42,-598.18 325.29,-589.1"/>
<polygon fill="midnightblue" stroke="midnightblue" points="328.57,-590.32 329.27,-579.75 322.13,-587.58 328.57,-590.32"/>
</g>
<!-- Node47 -->
<g id="node34" class="node">
<title>Node47</title>
<g id="a_node34"><a xlink:title=" ">
<polygon fill="none" stroke="#bfbfbf" points="237,-560.5 237,-579.5 281,-579.5 281,-560.5 237,-560.5"/>
<text text-anchor="middle" x="259" y="-567.5" font-family="Helvetica,sans-Serif" font-size="10.00">limits</text>
</a>
</g>
</g>
<!-- Node42&#45;&gt;Node47 -->
<g id="edge58" class="edge">
<title>Node42&#45;&gt;Node47</title>
<path fill="none" stroke="midnightblue" d="M301.58,-616.08C294.15,-608.22 283.15,-596.57 274.19,-587.08"/>
<polygon fill="midnightblue" stroke="midnightblue" points="276.68,-584.62 267.26,-579.75 271.59,-589.42 276.68,-584.62"/>
</g>
<!-- Node43&#45;&gt;Node12 -->
<g id="edge50" class="edge">
<title>Node43&#45;&gt;Node12</title>
<path fill="none" stroke="midnightblue" d="M324.98,-560.2C304.7,-537.46 251.01,-474.21 223,-412 178.11,-312.32 187.13,-277.21 192,-168 193.11,-143.07 191.62,-136.57 196,-112 197.61,-102.98 200.32,-93.19 202.85,-85.05"/>
<polygon fill="midnightblue" stroke="midnightblue" points="206.19,-86.09 205.96,-75.5 199.53,-83.92 206.19,-86.09"/>
</g>
<!-- Node44 -->
<g id="node30" class="node">
<title>Node44</title>
<g id="a_node30"><a xlink:href="expr__cast_8h.html" target="_top" xlink:title="Templated functions to cast to specific exprt&#45;derived classes.">
<polygon fill="none" stroke="black" points="284.5,-448.5 284.5,-467.5 357.5,-467.5 357.5,-448.5 284.5,-448.5"/>
<text text-anchor="middle" x="321" y="-455.5" font-family="Helvetica,sans-Serif" font-size="10.00">expr_cast.h</text>
</a>
</g>
</g>
<!-- Node43&#45;&gt;Node44 -->
<g id="edge44" class="edge">
<title>Node43&#45;&gt;Node44</title>
<path fill="none" stroke="midnightblue" d="M332.06,-560.37C330.12,-542.62 325.65,-501.67 323.03,-477.6"/>
<polygon fill="midnightblue" stroke="midnightblue" points="326.5,-477.15 321.94,-467.59 319.54,-477.91 326.5,-477.15"/>
</g>
<!-- Node46 -->
<g id="node32" class="node">
<title>Node46</title>
<g id="a_node32"><a xlink:href="std__types_8h.html" target="_top" xlink:title=" ">
<polygon fill="none" stroke="black" points="368.5,-504.5 368.5,-523.5 441.5,-523.5 441.5,-504.5 368.5,-504.5"/>
<text text-anchor="middle" x="405" y="-511.5" font-family="Helvetica,sans-Serif" font-size="10.00">std_types.h</text>
</a>
</g>
</g>
<!-- Node43&#45;&gt;Node46 -->
<g id="edge51" class="edge">
<title>Node43&#45;&gt;Node46</title>
<path fill="none" stroke="midnightblue" d="M344.57,-560.32C355.42,-552.18 371.88,-539.84 384.88,-530.09"/>
<polygon fill="midnightblue" stroke="midnightblue" points="387.32,-532.63 393.22,-523.83 383.12,-527.03 387.32,-532.63"/>
</g>
<!-- Node44&#45;&gt;Node4 -->
<g id="edge49" class="edge">
<title>Node44&#45;&gt;Node4</title>
<path fill="none" stroke="midnightblue" d="M357.6,-448.44C401.79,-438.11 475.5,-420.88 518.33,-410.87"/>
<polygon fill="midnightblue" stroke="midnightblue" points="519.32,-414.23 528.26,-408.55 517.73,-407.42 519.32,-414.23"/>
</g>
<!-- Node44&#45;&gt;Node12 -->
<g id="edge48" class="edge">
<title>Node44&#45;&gt;Node12</title>
<path fill="none" stroke="midnightblue" d="M311.89,-448.21C303.63,-439.71 291.73,-426.08 285,-412 229.69,-296.26 214.03,-139.35 210.15,-85.8"/>
<polygon fill="midnightblue" stroke="midnightblue" points="213.63,-85.49 209.47,-75.74 206.65,-85.95 213.63,-85.49"/>
</g>
<!-- Node44&#45;&gt;Node15 -->
<g id="edge46" class="edge">
<title>Node44&#45;&gt;Node15</title>
<path fill="none" stroke="midnightblue" d="M309.84,-448.29C299.56,-439.84 284.38,-426.24 274,-412 192.53,-300.18 169.01,-266.83 138,-132 128.29,-89.77 166.36,-47.81 190.49,-26.13"/>
<polygon fill="midnightblue" stroke="midnightblue" points="192.78,-28.77 198.05,-19.58 188.2,-23.48 192.78,-28.77"/>
</g>
<!-- Node44&#45;&gt;Node38 -->
<g id="edge47" class="edge">
<title>Node44&#45;&gt;Node38</title>
<path fill="none" stroke="midnightblue" d="M331.99,-448.37C341.45,-440.17 354.44,-426.92 360,-412 366.25,-395.26 356.18,-376.69 346.24,-363.7"/>
<polygon fill="midnightblue" stroke="midnightblue" points="348.66,-361.14 339.58,-355.69 343.28,-365.61 348.66,-361.14"/>
</g>
<!-- Node45 -->
<g id="node31" class="node">
<title>Node45</title>
<g id="a_node31"><a xlink:title=" ">
<polygon fill="none" stroke="#bfbfbf" points="294.5,-392.5 294.5,-411.5 351.5,-411.5 351.5,-392.5 294.5,-392.5"/>
<text text-anchor="middle" x="323" y="-399.5" font-family="Helvetica,sans-Serif" font-size="10.00">typeinfo</text>
</a>
</g>
</g>
<!-- Node44&#45;&gt;Node45 -->
<g id="edge45" class="edge">
<title>Node44&#45;&gt;Node45</title>
<path fill="none" stroke="midnightblue" d="M321.33,-448.08C321.59,-441.01 321.97,-430.86 322.3,-421.99"/>
<polygon fill="midnightblue" stroke="midnightblue" points="325.8,-421.87 322.68,-411.75 318.81,-421.61 325.8,-421.87"/>
</g>
<!-- Node46&#45;&gt;Node4 -->
<g id="edge52" class="edge">
<title>Node46&#45;&gt;Node4</title>
<path fill="none" stroke="midnightblue" d="M408.17,-504.22C413.55,-490.48 425.68,-463.83 444,-448 465.42,-429.49 495.53,-417.8 518.52,-410.98"/>
<polygon fill="midnightblue" stroke="midnightblue" points="519.52,-414.34 528.2,-408.27 517.63,-407.6 519.52,-414.34"/>
</g>
<!-- Node46&#45;&gt;Node12 -->
<g id="edge54" class="edge">
<title>Node46&#45;&gt;Node12</title>
<path fill="none" stroke="midnightblue" d="M368.31,-509.22C339.3,-504.36 299.71,-493.27 275,-468 168.65,-359.26 194.61,-149.29 205.46,-85.7"/>
<polygon fill="midnightblue" stroke="midnightblue" points="208.96,-86.05 207.28,-75.59 202.07,-84.81 208.96,-86.05"/>
</g>
<!-- Node46&#45;&gt;Node33 -->
<g id="edge56" class="edge">
<title>Node46&#45;&gt;Node33</title>
<path fill="none" stroke="midnightblue" d="M404.8,-504.3C404.07,-471.63 401.46,-355.87 400.43,-309.96"/>
<polygon fill="midnightblue" stroke="midnightblue" points="403.92,-309.8 400.2,-299.88 396.93,-309.96 403.92,-309.8"/>
</g>
<!-- Node46&#45;&gt;Node39 -->
<g id="edge55" class="edge">
<title>Node46&#45;&gt;Node39</title>
<path fill="none" stroke="midnightblue" d="M441.57,-510.59C515.8,-505.26 681.48,-491.13 733,-468 757.86,-456.84 780.8,-434.94 794.83,-419.65"/>
<polygon fill="midnightblue" stroke="midnightblue" points="797.65,-421.76 801.67,-411.96 792.41,-417.11 797.65,-421.76"/>
</g>
<!-- Node46&#45;&gt;Node44 -->
<g id="edge53" class="edge">
<title>Node46&#45;&gt;Node44</title>
<path fill="none" stroke="midnightblue" d="M391.5,-504.32C378.4,-495.9 358.29,-482.97 342.89,-473.07"/>
<polygon fill="midnightblue" stroke="midnightblue" points="344.77,-470.12 334.46,-467.65 340.98,-476.01 344.77,-470.12"/>
</g>
<!-- Node23 -->
<g id="node33" class="node">
<title>Node23</title>
<g id="a_node33"><a xlink:title=" ">
<polygon fill="none" stroke="#bfbfbf" points="452.5,-448.5 452.5,-467.5 545.5,-467.5 545.5,-448.5 452.5,-448.5"/>
<text text-anchor="middle" x="499" y="-455.5" font-family="Helvetica,sans-Serif" font-size="10.00">unordered_map</text>
</a>
</g>
</g>
<!-- Node46&#45;&gt;Node23 -->
<g id="edge57" class="edge">
<title>Node46&#45;&gt;Node23</title>
<path fill="none" stroke="midnightblue" d="M420.1,-504.32C434.9,-495.82 457.69,-482.73 474.98,-472.8"/>
<polygon fill="midnightblue" stroke="midnightblue" points="477.01,-475.67 483.93,-467.65 473.52,-469.6 477.01,-475.67"/>
</g>
<!-- Node48&#45;&gt;Node12 -->
<g id="edge60" class="edge">
<title>Node48&#45;&gt;Node12</title>
<path fill="none" stroke="midnightblue" d="M82.55,-616.26C68.17,-598.45 38,-556.19 38,-515 38,-515 38,-515 38,-177 38,-116.77 113.96,-87.96 164.63,-75.45"/>
<polygon fill="midnightblue" stroke="midnightblue" points="165.46,-78.85 174.4,-73.16 163.86,-72.03 165.46,-78.85"/>
</g>
<!-- Node48&#45;&gt;Node43 -->
<g id="edge61" class="edge">
<title>Node48&#45;&gt;Node43</title>
<path fill="none" stroke="midnightblue" d="M128.5,-616.44C172.3,-606.71 243.65,-590.86 289.44,-580.68"/>
<polygon fill="midnightblue" stroke="midnightblue" points="290.37,-584.06 299.37,-578.47 288.85,-577.23 290.37,-584.06"/>
</g>
<!-- Node49&#45;&gt;Node8 -->
<g id="edge63" class="edge">
<title>Node49&#45;&gt;Node8</title>
<path fill="none" stroke="midnightblue" d="M324.11,-677.03C270.47,-668.37 168,-642.47 168,-571 168,-571 168,-571 168,-513 168,-363.3 234.55,-329.25 341,-224 388.44,-177.1 461.9,-148.71 508.17,-134.45"/>
<polygon fill="midnightblue" stroke="midnightblue" points="509.32,-137.76 517.89,-131.54 507.31,-131.05 509.32,-137.76"/>
</g>
<!-- Node50 -->
<g id="node37" class="node">
<title>Node50</title>
<g id="a_node37"><a xlink:href="pointer__expr_8h.html" target="_top" xlink:title=" ">
<polygon fill="none" stroke="black" points="431,-616.5 431,-635.5 517,-635.5 517,-616.5 431,-616.5"/>
<text text-anchor="middle" x="474" y="-623.5" font-family="Helvetica,sans-Serif" font-size="10.00">pointer_expr.h</text>
</a>
</g>
</g>
<!-- Node49&#45;&gt;Node50 -->
<g id="edge64" class="edge">
<title>Node49&#45;&gt;Node50</title>
<path fill="none" stroke="midnightblue" d="M374.7,-672.44C393.94,-663.64 424.15,-649.81 446.2,-639.72"/>
<polygon fill="midnightblue" stroke="midnightblue" points="447.75,-642.86 455.39,-635.52 444.84,-636.5 447.75,-642.86"/>
</g>
<!-- Node50&#45;&gt;Node43 -->
<g id="edge67" class="edge">
<title>Node50&#45;&gt;Node43</title>
<path fill="none" stroke="midnightblue" d="M451.66,-616.44C428.25,-607.48 391.26,-593.31 364.81,-583.18"/>
<polygon fill="midnightblue" stroke="midnightblue" points="365.83,-579.82 355.24,-579.52 363.32,-586.36 365.83,-579.82"/>
</g>
<!-- Node51 -->
<g id="node38" class="node">
<title>Node51</title>
<g id="a_node38"><a xlink:href="bitvector__types_8h.html" target="_top" xlink:title=" ">
<polygon fill="none" stroke="black" points="401.5,-560.5 401.5,-579.5 502.5,-579.5 502.5,-560.5 401.5,-560.5"/>
<text text-anchor="middle" x="452" y="-567.5" font-family="Helvetica,sans-Serif" font-size="10.00">bitvector_types.h</text>
</a>
</g>
</g>
<!-- Node50&#45;&gt;Node51 -->
<g id="edge65" class="edge">
<title>Node50&#45;&gt;Node51</title>
<path fill="none" stroke="midnightblue" d="M470.37,-616.08C467.39,-608.77 463.07,-598.18 459.38,-589.1"/>
<polygon fill="midnightblue" stroke="midnightblue" points="462.58,-587.69 455.57,-579.75 456.1,-590.33 462.58,-587.69"/>
</g>
<!-- Node51&#45;&gt;Node46 -->
<g id="edge66" class="edge">
<title>Node51&#45;&gt;Node46</title>
<path fill="none" stroke="midnightblue" d="M444.24,-560.08C437.46,-552.3 427.46,-540.8 419.24,-531.37"/>
<polygon fill="midnightblue" stroke="midnightblue" points="421.82,-529 412.62,-523.75 416.54,-533.59 421.82,-529"/>
</g>
<!-- Node52&#45;&gt;Node9 -->
<g id="edge74" class="edge">
<title>Node52&#45;&gt;Node9</title>
<path fill="none" stroke="midnightblue" d="M1205.14,-504.32C1181.57,-462.78 1075.2,-281.7 950,-168 936.85,-156.06 920.3,-144.91 906.94,-136.7"/>
<polygon fill="midnightblue" stroke="midnightblue" points="908.65,-133.65 898.28,-131.51 905.05,-139.65 908.65,-133.65"/>
</g>
<!-- Node52&#45;&gt;Node31 -->
<g id="edge75" class="edge">
<title>Node52&#45;&gt;Node31</title>
<path fill="none" stroke="midnightblue" d="M1216.12,-504.35C1228.21,-486.38 1254,-443.31 1254,-403 1254,-403 1254,-403 1254,-233 1254,-200.33 1244.55,-163.24 1238.04,-141.55"/>
<polygon fill="midnightblue" stroke="midnightblue" points="1241.29,-140.22 1234.97,-131.72 1234.61,-142.31 1241.29,-140.22"/>
</g>
<!-- Node22 -->
<g id="node40" class="node">
<title>Node22</title>
<g id="a_node40"><a xlink:title=" ">
<polygon fill="none" stroke="#bfbfbf" points="1194,-448.5 1194,-467.5 1226,-467.5 1226,-448.5 1194,-448.5"/>
<text text-anchor="middle" x="1210" y="-455.5" font-family="Helvetica,sans-Serif" font-size="10.00">list</text>
</a>
</g>
</g>
<!-- Node52&#45;&gt;Node22 -->
<g id="edge69" class="edge">
<title>Node52&#45;&gt;Node22</title>
<path fill="none" stroke="midnightblue" d="M1210,-504.08C1210,-497.01 1210,-486.86 1210,-477.99"/>
<polygon fill="midnightblue" stroke="midnightblue" points="1213.5,-477.75 1210,-467.75 1206.5,-477.75 1213.5,-477.75"/>
</g>
<!-- Node53 -->
<g id="node41" class="node">
<title>Node53</title>
<g id="a_node41"><a xlink:href="ieee__float_8h.html" target="_top" xlink:title=" ">
<polygon fill="none" stroke="black" points="928,-448.5 928,-467.5 1002,-467.5 1002,-448.5 928,-448.5"/>
<text text-anchor="middle" x="965" y="-455.5" font-family="Helvetica,sans-Serif" font-size="10.00">ieee_float.h</text>
</a>
</g>
</g>
<!-- Node52&#45;&gt;Node53 -->
<g id="edge70" class="edge">
<title>Node52&#45;&gt;Node53</title>
<path fill="none" stroke="midnightblue" d="M1182.37,-506.91C1141.04,-497.8 1062.59,-480.51 1012.1,-469.38"/>
<polygon fill="midnightblue" stroke="midnightblue" points="1012.61,-465.91 1002.09,-467.17 1011.1,-472.75 1012.61,-465.91"/>
</g>
<!-- Node53&#45;&gt;Node39 -->
<g id="edge72" class="edge">
<title>Node53&#45;&gt;Node39</title>
<path fill="none" stroke="midnightblue" d="M940.28,-448.44C914.15,-439.4 872.74,-425.06 843.42,-414.92"/>
<polygon fill="midnightblue" stroke="midnightblue" points="844.2,-411.48 833.6,-411.52 841.91,-418.1 844.2,-411.48"/>
</g>
<!-- Node53&#45;&gt;Node18 -->
<g id="edge71" class="edge">
<title>Node53&#45;&gt;Node18</title>
<path fill="none" stroke="midnightblue" d="M964.61,-448.37C963.8,-430.62 961.94,-389.67 960.85,-365.6"/>
<polygon fill="midnightblue" stroke="midnightblue" points="964.34,-365.42 960.39,-355.59 957.35,-365.74 964.34,-365.42"/>
</g>
<!-- Node54 -->
<g id="node42" class="node">
<title>Node54</title>
<g id="a_node42"><a xlink:href="format__spec_8h.html" target="_top" xlink:title=" ">
<polygon fill="none" stroke="black" points="976,-392.5 976,-411.5 1062,-411.5 1062,-392.5 976,-392.5"/>
<text text-anchor="middle" x="1019" y="-399.5" font-family="Helvetica,sans-Serif" font-size="10.00">format_spec.h</text>
</a>
</g>
</g>
<!-- Node53&#45;&gt;Node54 -->
<g id="edge73" class="edge">
<title>Node53&#45;&gt;Node54</title>
<path fill="none" stroke="midnightblue" d="M973.92,-448.08C981.78,-440.22 993.43,-428.57 1002.92,-419.08"/>
<polygon fill="midnightblue" stroke="midnightblue" points="1005.65,-421.3 1010.25,-411.75 1000.7,-416.35 1005.65,-421.3"/>
</g>
<!-- Node55&#45;&gt;Node9 -->
<g id="edge79" class="edge">
<title>Node55&#45;&gt;Node9</title>
<path fill="none" stroke="midnightblue" d="M528.26,-171.37C607.4,-160.58 779.01,-137.18 850.6,-127.42"/>
<polygon fill="midnightblue" stroke="midnightblue" points="851.38,-130.84 860.81,-126.03 850.43,-123.91 851.38,-130.84"/>
</g>
<!-- Node55&#45;&gt;Node12 -->
<g id="edge78" class="edge">
<title>Node55&#45;&gt;Node12</title>
<path fill="none" stroke="midnightblue" d="M465.19,-168.37C416.16,-148.97 297.12,-101.87 240.26,-79.37"/>
<polygon fill="midnightblue" stroke="midnightblue" points="241.3,-76.02 230.71,-75.59 238.72,-82.53 241.3,-76.02"/>
</g>
<!-- Node56&#45;&gt;Node9 -->
<g id="edge81" class="edge">
<title>Node56&#45;&gt;Node9</title>
<path fill="none" stroke="midnightblue" d="M1078.97,-448.36C1078.71,-435.69 1077.32,-411.46 1071,-392 1035.35,-282.22 938.39,-177.73 899.48,-138.91"/>
<polygon fill="midnightblue" stroke="midnightblue" points="901.68,-136.16 892.1,-131.64 896.77,-141.15 901.68,-136.16"/>
</g>
<!-- Node56&#45;&gt;Node31 -->
<g id="edge83" class="edge">
<title>Node56&#45;&gt;Node31</title>
<path fill="none" stroke="midnightblue" d="M1094.18,-448.35C1129.85,-426.79 1216,-366.85 1216,-291 1216,-291 1216,-291 1216,-233 1216,-200.63 1222.87,-163.44 1227.61,-141.66"/>
<polygon fill="midnightblue" stroke="midnightblue" points="1231.05,-142.3 1229.84,-131.78 1224.22,-140.76 1231.05,-142.3"/>
</g>
<!-- Node56&#45;&gt;Node39 -->
<g id="edge82" class="edge">
<title>Node56&#45;&gt;Node39</title>
<path fill="none" stroke="midnightblue" d="M1036.22,-448.44C986.42,-438.48 904.54,-422.11 853.86,-411.97"/>
<polygon fill="midnightblue" stroke="midnightblue" points="854.35,-408.5 843.85,-409.97 852.97,-415.36 854.35,-408.5"/>
</g>
<!-- Node57&#45;&gt;Node4 -->
<g id="edge85" class="edge">
<title>Node57&#45;&gt;Node4</title>
<path fill="none" stroke="midnightblue" d="M818.3,-449.09C755.01,-438.14 642.14,-418.6 585.86,-408.86"/>
<polygon fill="midnightblue" stroke="midnightblue" points="586.16,-405.36 575.71,-407.1 584.96,-412.26 586.16,-405.36"/>
</g>
<!-- Node57&#45;&gt;Node10 -->
<g id="edge87" class="edge">
<title>Node57&#45;&gt;Node10</title>
<path fill="none" stroke="midnightblue" d="M871.66,-448.31C883.54,-435.15 907.49,-409.81 931,-392 956.4,-372.76 977.1,-383.61 993,-356 997.43,-348.3 995.91,-344.4 993,-336 967.62,-262.61 802.23,-81.82 751.06,-27.01"/>
<polygon fill="midnightblue" stroke="midnightblue" points="753.51,-24.5 744.12,-19.6 748.4,-29.29 753.51,-24.5"/>
</g>
<!-- Node57&#45;&gt;Node31 -->
<g id="edge86" class="edge">
<title>Node57&#45;&gt;Node31</title>
<path fill="none" stroke="midnightblue" d="M877.62,-448.31C897.3,-435.78 934.84,-411.96 967,-392 993.1,-375.8 1002.45,-375.73 1026,-356 1109.71,-285.87 1189.73,-181.13 1219.64,-140.23"/>
<polygon fill="midnightblue" stroke="midnightblue" points="1222.66,-142.03 1225.69,-131.88 1216.99,-137.92 1222.66,-142.03"/>
</g>
</g>
</svg>
