<?xml version="1.0" encoding="UTF-8" standalone="no"?>
<!DOCTYPE svg PUBLIC "-//W3C//DTD SVG 1.1//EN"
 "http://www.w3.org/Graphics/SVG/1.1/DTD/svg11.dtd">
<!-- Generated by graphviz version 2.43.0 (0)
 -->
<!-- Title: /home/runner/work/cbmc/cbmc/src/solvers/smt2_incremental/ast/smt_commands.cpp Pages: 1 -->
<svg width="1418pt" height="576pt"
 viewBox="0.00 0.00 1417.50 576.00" xmlns="http://www.w3.org/2000/svg" xmlns:xlink="http://www.w3.org/1999/xlink">
<g id="graph0" class="graph" transform="scale(1 1) rotate(0) translate(4 572)">
<title>/home/runner/work/cbmc/cbmc/src/solvers/smt2_incremental/ast/smt_commands.cpp</title>
<!-- Node1 -->
<g id="node1" class="node">
<title>Node1</title>
<g id="a_node1"><a xlink:title=" ">
<polygon fill="#bfbfbf" stroke="black" points="794.5,-526.5 794.5,-567.5 994.5,-567.5 994.5,-526.5 794.5,-526.5"/>
<text text-anchor="start" x="802.5" y="-555.5" font-family="Helvetica,sans-Serif" font-size="10.00">/home/runner/work/cbmc</text>
<text text-anchor="start" x="802.5" y="-544.5" font-family="Helvetica,sans-Serif" font-size="10.00">/cbmc/src/solvers/smt2</text>
<text text-anchor="middle" x="894.5" y="-533.5" font-family="Helvetica,sans-Serif" font-size="10.00">_incremental/ast/smt_commands.cpp</text>
</a>
</g>
</g>
<!-- Node2 -->
<g id="node2" class="node">
<title>Node2</title>
<g id="a_node2"><a xlink:href="smt__commands_8h.html" target="_top" xlink:title=" ">
<polygon fill="none" stroke="black" points="566.5,-470.5 566.5,-489.5 670.5,-489.5 670.5,-470.5 566.5,-470.5"/>
<text text-anchor="middle" x="618.5" y="-477.5" font-family="Helvetica,sans-Serif" font-size="10.00">smt_commands.h</text>
</a>
</g>
</g>
<!-- Node1&#45;&gt;Node2 -->
<g id="edge1" class="edge">
<title>Node1&#45;&gt;Node2</title>
<path fill="none" stroke="midnightblue" d="M811.69,-526.5C763.53,-515.16 704.64,-501.29 664.62,-491.86"/>
<polygon fill="midnightblue" stroke="midnightblue" points="665.41,-488.45 654.88,-489.57 663.81,-495.27 665.41,-488.45"/>
</g>
<!-- Node41 -->
<g id="node41" class="node">
<title>Node41</title>
<g id="a_node41"><a xlink:title=" ">
<polygon fill="none" stroke="#bfbfbf" points="838,-414.5 838,-433.5 951,-433.5 951,-414.5 838,-414.5"/>
<text text-anchor="middle" x="894.5" y="-421.5" font-family="Helvetica,sans-Serif" font-size="10.00">smt_commands.def</text>
</a>
</g>
</g>
<!-- Node1&#45;&gt;Node41 -->
<g id="edge66" class="edge">
<title>Node1&#45;&gt;Node41</title>
<path fill="none" stroke="midnightblue" d="M894.5,-526.29C894.5,-503.48 894.5,-466.19 894.5,-443.78"/>
<polygon fill="midnightblue" stroke="midnightblue" points="898,-443.57 894.5,-433.57 891,-443.57 898,-443.57"/>
</g>
<!-- Node42 -->
<g id="node42" class="node">
<title>Node42</title>
<g id="a_node42"><a xlink:href="range_8h.html" target="_top" xlink:title=" ">
<polygon fill="none" stroke="black" points="1135.5,-414.5 1135.5,-433.5 1207.5,-433.5 1207.5,-414.5 1135.5,-414.5"/>
<text text-anchor="middle" x="1171.5" y="-421.5" font-family="Helvetica,sans-Serif" font-size="10.00">util/range.h</text>
</a>
</g>
</g>
<!-- Node1&#45;&gt;Node42 -->
<g id="edge60" class="edge">
<title>Node1&#45;&gt;Node42</title>
<path fill="none" stroke="midnightblue" d="M939.31,-526.42C996.61,-501.39 1094.19,-458.77 1142.56,-437.64"/>
<polygon fill="midnightblue" stroke="midnightblue" points="1144.06,-440.81 1151.82,-433.6 1141.26,-434.39 1144.06,-440.81"/>
</g>
<!-- Node3 -->
<g id="node3" class="node">
<title>Node3</title>
<g id="a_node3"><a xlink:href="irep_8h.html" target="_top" xlink:title=" ">
<polygon fill="none" stroke="black" points="389,-302.5 389,-321.5 452,-321.5 452,-302.5 389,-302.5"/>
<text text-anchor="middle" x="420.5" y="-309.5" font-family="Helvetica,sans-Serif" font-size="10.00">util/irep.h</text>
</a>
</g>
</g>
<!-- Node2&#45;&gt;Node3 -->
<g id="edge2" class="edge">
<title>Node2&#45;&gt;Node3</title>
<path fill="none" stroke="midnightblue" d="M566.23,-478.27C504.88,-475.82 401.01,-466.66 318.5,-434 277.81,-417.89 257.82,-416.76 237.5,-378 208.71,-323.1 315.67,-313.53 378.24,-312.5"/>
<polygon fill="midnightblue" stroke="midnightblue" points="378.65,-315.99 388.62,-312.4 378.58,-308.99 378.65,-315.99"/>
</g>
<!-- Node26 -->
<g id="node26" class="node">
<title>Node26</title>
<g id="a_node26"><a xlink:href="smt__logics_8h.html" target="_top" xlink:title=" ">
<polygon fill="none" stroke="black" points="441.5,-414.5 441.5,-433.5 519.5,-433.5 519.5,-414.5 441.5,-414.5"/>
<text text-anchor="middle" x="480.5" y="-421.5" font-family="Helvetica,sans-Serif" font-size="10.00">smt_logics.h</text>
</a>
</g>
</g>
<!-- Node2&#45;&gt;Node26 -->
<g id="edge33" class="edge">
<title>Node2&#45;&gt;Node26</title>
<path fill="none" stroke="midnightblue" d="M596.63,-470.44C573.72,-461.48 537.52,-447.31 511.63,-437.18"/>
<polygon fill="midnightblue" stroke="midnightblue" points="512.85,-433.9 502.26,-433.52 510.3,-440.42 512.85,-433.9"/>
</g>
<!-- Node28 -->
<g id="node28" class="node">
<title>Node28</title>
<g id="a_node28"><a xlink:href="smt__options_8h.html" target="_top" xlink:title=" ">
<polygon fill="none" stroke="black" points="327.5,-414.5 327.5,-433.5 413.5,-433.5 413.5,-414.5 327.5,-414.5"/>
<text text-anchor="middle" x="370.5" y="-421.5" font-family="Helvetica,sans-Serif" font-size="10.00">smt_options.h</text>
</a>
</g>
</g>
<!-- Node2&#45;&gt;Node28 -->
<g id="edge36" class="edge">
<title>Node2&#45;&gt;Node28</title>
<path fill="none" stroke="midnightblue" d="M579.2,-470.44C535.94,-461.02 466.33,-445.87 419.53,-435.68"/>
<polygon fill="midnightblue" stroke="midnightblue" points="420.13,-432.22 409.61,-433.52 418.64,-439.06 420.13,-432.22"/>
</g>
<!-- Node30 -->
<g id="node30" class="node">
<title>Node30</title>
<g id="a_node30"><a xlink:href="smt__terms_8h.html" target="_top" xlink:title=" ">
<polygon fill="none" stroke="black" points="741.5,-414.5 741.5,-433.5 819.5,-433.5 819.5,-414.5 741.5,-414.5"/>
<text text-anchor="middle" x="780.5" y="-421.5" font-family="Helvetica,sans-Serif" font-size="10.00">smt_terms.h</text>
</a>
</g>
</g>
<!-- Node2&#45;&gt;Node30 -->
<g id="edge39" class="edge">
<title>Node2&#45;&gt;Node30</title>
<path fill="none" stroke="midnightblue" d="M644.17,-470.44C671.42,-461.36 714.68,-446.94 745.15,-436.78"/>
<polygon fill="midnightblue" stroke="midnightblue" points="746.57,-440 754.95,-433.52 744.36,-433.36 746.57,-440"/>
</g>
<!-- Node2&#45;&gt;Node41 -->
<g id="edge59" class="edge">
<title>Node2&#45;&gt;Node41</title>
<path fill="none" stroke="midnightblue" d="M662.23,-470.44C710.68,-460.96 788.83,-445.67 840.92,-435.48"/>
<polygon fill="midnightblue" stroke="midnightblue" points="841.83,-438.87 850.97,-433.52 840.49,-432 841.83,-438.87"/>
</g>
<!-- Node4 -->
<g id="node4" class="node">
<title>Node4</title>
<g id="a_node4"><a xlink:title=" ">
<polygon fill="none" stroke="#bfbfbf" points="364.5,-0.5 364.5,-19.5 408.5,-19.5 408.5,-0.5 364.5,-0.5"/>
<text text-anchor="middle" x="386.5" y="-7.5" font-family="Helvetica,sans-Serif" font-size="10.00">string</text>
</a>
</g>
</g>
<!-- Node3&#45;&gt;Node4 -->
<g id="edge3" class="edge">
<title>Node3&#45;&gt;Node4</title>
<path fill="none" stroke="midnightblue" d="M388.78,-308.19C292.07,-298.74 7.5,-264.18 7.5,-184.5 7.5,-184.5 7.5,-184.5 7.5,-121 7.5,-90.9 3.58,-75.51 26.5,-56 75.39,-14.37 274.8,-10.51 353.92,-10.66"/>
<polygon fill="midnightblue" stroke="midnightblue" points="354.25,-14.16 364.26,-10.7 354.28,-7.16 354.25,-14.16"/>
</g>
<!-- Node5 -->
<g id="node5" class="node">
<title>Node5</title>
<g id="a_node5"><a xlink:title=" ">
<polygon fill="none" stroke="#bfbfbf" points="450,-56.5 450,-75.5 497,-75.5 497,-56.5 450,-56.5"/>
<text text-anchor="middle" x="473.5" y="-63.5" font-family="Helvetica,sans-Serif" font-size="10.00">vector</text>
</a>
</g>
</g>
<!-- Node3&#45;&gt;Node5 -->
<g id="edge4" class="edge">
<title>Node3&#45;&gt;Node5</title>
<path fill="none" stroke="midnightblue" d="M422.01,-302.08C424.44,-287.86 429.47,-259.17 434.5,-235 445.85,-180.43 461.32,-116.4 468.91,-85.51"/>
<polygon fill="midnightblue" stroke="midnightblue" points="472.33,-86.26 471.33,-75.71 465.53,-84.58 472.33,-86.26"/>
</g>
<!-- Node6 -->
<g id="node6" class="node">
<title>Node6</title>
<g id="a_node6"><a xlink:href="src_2util_2invariant_8h.html" target="_top" xlink:title=" ">
<polygon fill="none" stroke="black" points="733,-112.5 733,-131.5 802,-131.5 802,-112.5 733,-112.5"/>
<text text-anchor="middle" x="767.5" y="-119.5" font-family="Helvetica,sans-Serif" font-size="10.00">invariant.h</text>
</a>
</g>
</g>
<!-- Node3&#45;&gt;Node6 -->
<g id="edge5" class="edge">
<title>Node3&#45;&gt;Node6</title>
<path fill="none" stroke="midnightblue" d="M423.41,-302.28C433.39,-272.61 466.21,-176.99 477.5,-168 514.58,-138.46 651,-128.09 722.74,-124.63"/>
<polygon fill="midnightblue" stroke="midnightblue" points="723,-128.12 732.83,-124.16 722.68,-121.12 723,-128.12"/>
</g>
<!-- Node10 -->
<g id="node10" class="node">
<title>Node10</title>
<g id="a_node10"><a xlink:href="irep__ids_8h.html" target="_top" xlink:title=" ">
<polygon fill="none" stroke="black" points="323.5,-241 323.5,-260 387.5,-260 387.5,-241 323.5,-241"/>
<text text-anchor="middle" x="355.5" y="-248" font-family="Helvetica,sans-Serif" font-size="10.00">irep_ids.h</text>
</a>
</g>
</g>
<!-- Node3&#45;&gt;Node10 -->
<g id="edge10" class="edge">
<title>Node3&#45;&gt;Node10</title>
<path fill="none" stroke="midnightblue" d="M411.19,-302.48C401.05,-293.2 384.64,-278.17 372.25,-266.83"/>
<polygon fill="midnightblue" stroke="midnightblue" points="374.54,-264.18 364.8,-260.01 369.81,-269.34 374.54,-264.18"/>
</g>
<!-- Node21 -->
<g id="node21" class="node">
<title>Node21</title>
<g id="a_node21"><a xlink:href="forward__list__as__map_8h.html" target="_top" xlink:title=" ">
<polygon fill="none" stroke="black" points="541,-241 541,-260 668,-260 668,-241 541,-241"/>
<text text-anchor="middle" x="604.5" y="-248" font-family="Helvetica,sans-Serif" font-size="10.00">forward_list_as_map.h</text>
</a>
</g>
</g>
<!-- Node3&#45;&gt;Node21 -->
<g id="edge26" class="edge">
<title>Node3&#45;&gt;Node21</title>
<path fill="none" stroke="midnightblue" d="M446.86,-302.48C478.84,-292.14 532.88,-274.66 568.62,-263.1"/>
<polygon fill="midnightblue" stroke="midnightblue" points="569.75,-266.42 578.19,-260.01 567.59,-259.76 569.75,-266.42"/>
</g>
<!-- Node6&#45;&gt;Node4 -->
<g id="edge8" class="edge">
<title>Node6&#45;&gt;Node4</title>
<path fill="none" stroke="midnightblue" d="M770.97,-112.15C775.74,-98.31 782.3,-71.52 768.5,-56 745.39,-30.01 506.96,-16.52 418.92,-12.4"/>
<polygon fill="midnightblue" stroke="midnightblue" points="418.87,-8.89 408.72,-11.93 418.55,-15.88 418.87,-8.89"/>
</g>
<!-- Node7 -->
<g id="node7" class="node">
<title>Node7</title>
<g id="a_node7"><a xlink:title=" ">
<polygon fill="none" stroke="#bfbfbf" points="636,-56.5 636,-75.5 685,-75.5 685,-56.5 636,-56.5"/>
<text text-anchor="middle" x="660.5" y="-63.5" font-family="Helvetica,sans-Serif" font-size="10.00">cstdlib</text>
</a>
</g>
</g>
<!-- Node6&#45;&gt;Node7 -->
<g id="edge6" class="edge">
<title>Node6&#45;&gt;Node7</title>
<path fill="none" stroke="midnightblue" d="M750.31,-112.32C733.15,-103.66 706.55,-90.24 686.75,-80.25"/>
<polygon fill="midnightblue" stroke="midnightblue" points="688.15,-77.04 677.65,-75.65 685,-83.28 688.15,-77.04"/>
</g>
<!-- Node8 -->
<g id="node8" class="node">
<title>Node8</title>
<g id="a_node8"><a xlink:title=" ">
<polygon fill="none" stroke="#bfbfbf" points="703.5,-56.5 703.5,-75.5 759.5,-75.5 759.5,-56.5 703.5,-56.5"/>
<text text-anchor="middle" x="731.5" y="-63.5" font-family="Helvetica,sans-Serif" font-size="10.00">sstream</text>
</a>
</g>
</g>
<!-- Node6&#45;&gt;Node8 -->
<g id="edge7" class="edge">
<title>Node6&#45;&gt;Node8</title>
<path fill="none" stroke="midnightblue" d="M761.56,-112.08C756.52,-104.53 749.16,-93.49 742.99,-84.23"/>
<polygon fill="midnightblue" stroke="midnightblue" points="745.79,-82.13 737.33,-75.75 739.97,-86.01 745.79,-82.13"/>
</g>
<!-- Node9 -->
<g id="node9" class="node">
<title>Node9</title>
<g id="a_node9"><a xlink:title=" ">
<polygon fill="none" stroke="#bfbfbf" points="1037,-56.5 1037,-75.5 1106,-75.5 1106,-56.5 1037,-56.5"/>
<text text-anchor="middle" x="1071.5" y="-63.5" font-family="Helvetica,sans-Serif" font-size="10.00">type_traits</text>
</a>
</g>
</g>
<!-- Node6&#45;&gt;Node9 -->
<g id="edge9" class="edge">
<title>Node6&#45;&gt;Node9</title>
<path fill="none" stroke="midnightblue" d="M802.08,-114.86C857.39,-105.03 965.75,-85.78 1026.85,-74.93"/>
<polygon fill="midnightblue" stroke="midnightblue" points="1027.72,-78.33 1036.96,-73.14 1026.5,-71.44 1027.72,-78.33"/>
</g>
<!-- Node11 -->
<g id="node11" class="node">
<title>Node11</title>
<g id="a_node11"><a xlink:href="dstring_8h.html" target="_top" xlink:title=" ">
<polygon fill="none" stroke="black" points="241,-174 241,-193 300,-193 300,-174 241,-174"/>
<text text-anchor="middle" x="270.5" y="-181" font-family="Helvetica,sans-Serif" font-size="10.00">dstring.h</text>
</a>
</g>
</g>
<!-- Node10&#45;&gt;Node11 -->
<g id="edge11" class="edge">
<title>Node10&#45;&gt;Node11</title>
<path fill="none" stroke="midnightblue" d="M344.04,-240.73C330.14,-230.11 306.52,-212.05 289.81,-199.26"/>
<polygon fill="midnightblue" stroke="midnightblue" points="291.85,-196.42 281.78,-193.13 287.6,-201.98 291.85,-196.42"/>
</g>
<!-- Node20 -->
<g id="node20" class="node">
<title>Node20</title>
<g id="a_node20"><a xlink:title=" ">
<polygon fill="none" stroke="#bfbfbf" points="318.5,-174 318.5,-193 392.5,-193 392.5,-174 318.5,-174"/>
<text text-anchor="middle" x="355.5" y="-181" font-family="Helvetica,sans-Serif" font-size="10.00">irep_ids.def</text>
</a>
</g>
</g>
<!-- Node10&#45;&gt;Node20 -->
<g id="edge25" class="edge">
<title>Node10&#45;&gt;Node20</title>
<path fill="none" stroke="midnightblue" d="M355.5,-240.73C355.5,-231.18 355.5,-215.62 355.5,-203.28"/>
<polygon fill="midnightblue" stroke="midnightblue" points="359,-203.13 355.5,-193.13 352,-203.13 359,-203.13"/>
</g>
<!-- Node11&#45;&gt;Node4 -->
<g id="edge13" class="edge">
<title>Node11&#45;&gt;Node4</title>
<path fill="none" stroke="midnightblue" d="M292.08,-173.82C318.48,-162.87 361.19,-144.05 373.5,-132 399.34,-106.72 408.65,-91.63 402.5,-56 400.93,-46.91 397.71,-37.22 394.56,-29.17"/>
<polygon fill="midnightblue" stroke="midnightblue" points="397.69,-27.6 390.61,-19.72 391.24,-30.3 397.69,-27.6"/>
</g>
<!-- Node12 -->
<g id="node12" class="node">
<title>Node12</title>
<g id="a_node12"><a xlink:title=" ">
<polygon fill="none" stroke="#bfbfbf" points="316.5,-112.5 316.5,-131.5 364.5,-131.5 364.5,-112.5 316.5,-112.5"/>
<text text-anchor="middle" x="340.5" y="-119.5" font-family="Helvetica,sans-Serif" font-size="10.00">iosfwd</text>
</a>
</g>
</g>
<!-- Node11&#45;&gt;Node12 -->
<g id="edge12" class="edge">
<title>Node11&#45;&gt;Node12</title>
<path fill="none" stroke="midnightblue" d="M280.53,-173.98C291.55,-164.61 309.46,-149.38 322.84,-138.01"/>
<polygon fill="midnightblue" stroke="midnightblue" points="325.14,-140.65 330.49,-131.51 320.6,-135.32 325.14,-140.65"/>
</g>
<!-- Node13 -->
<g id="node13" class="node">
<title>Node13</title>
<g id="a_node13"><a xlink:href="magic_8h.html" target="_top" xlink:title="Magic numbers used throughout the codebase.">
<polygon fill="none" stroke="black" points="78.5,-112.5 78.5,-131.5 134.5,-131.5 134.5,-112.5 78.5,-112.5"/>
<text text-anchor="middle" x="106.5" y="-119.5" font-family="Helvetica,sans-Serif" font-size="10.00">magic.h</text>
</a>
</g>
</g>
<!-- Node11&#45;&gt;Node13 -->
<g id="edge14" class="edge">
<title>Node11&#45;&gt;Node13</title>
<path fill="none" stroke="midnightblue" d="M247,-173.98C218.87,-163.77 171.57,-146.61 139.71,-135.05"/>
<polygon fill="midnightblue" stroke="midnightblue" points="140.55,-131.63 129.95,-131.51 138.16,-138.21 140.55,-131.63"/>
</g>
<!-- Node15 -->
<g id="node15" class="node">
<title>Node15</title>
<g id="a_node15"><a xlink:href="string__container_8h.html" target="_top" xlink:title=" ">
<polygon fill="none" stroke="black" points="194.5,-112.5 194.5,-131.5 298.5,-131.5 298.5,-112.5 194.5,-112.5"/>
<text text-anchor="middle" x="246.5" y="-119.5" font-family="Helvetica,sans-Serif" font-size="10.00">string_container.h</text>
</a>
</g>
</g>
<!-- Node11&#45;&gt;Node15 -->
<g id="edge16" class="edge">
<title>Node11&#45;&gt;Node15</title>
<path fill="none" stroke="midnightblue" d="M267.06,-173.98C263.6,-165.4 258.17,-151.93 253.75,-140.98"/>
<polygon fill="midnightblue" stroke="midnightblue" points="256.92,-139.47 249.93,-131.51 250.43,-142.09 256.92,-139.47"/>
</g>
<!-- Node14 -->
<g id="node14" class="node">
<title>Node14</title>
<g id="a_node14"><a xlink:title=" ">
<polygon fill="none" stroke="#bfbfbf" points="0,-0.5 0,-19.5 53,-19.5 53,-0.5 0,-0.5"/>
<text text-anchor="middle" x="26.5" y="-7.5" font-family="Helvetica,sans-Serif" font-size="10.00">cstddef</text>
</a>
</g>
</g>
<!-- Node13&#45;&gt;Node14 -->
<g id="edge15" class="edge">
<title>Node13&#45;&gt;Node14</title>
<path fill="none" stroke="midnightblue" d="M78.25,-113.23C59.98,-106.58 37.6,-94.98 26.5,-76 18.32,-62.01 19.32,-43.26 21.77,-29.5"/>
<polygon fill="midnightblue" stroke="midnightblue" points="25.19,-30.23 23.9,-19.71 18.35,-28.74 25.19,-30.23"/>
</g>
<!-- Node15&#45;&gt;Node5 -->
<g id="edge19" class="edge">
<title>Node15&#45;&gt;Node5</title>
<path fill="none" stroke="midnightblue" d="M282.47,-112.44C325.78,-102.14 397.94,-84.97 440.08,-74.95"/>
<polygon fill="midnightblue" stroke="midnightblue" points="440.94,-78.34 449.86,-72.62 439.32,-71.53 440.94,-78.34"/>
</g>
<!-- Node16 -->
<g id="node16" class="node">
<title>Node16</title>
<g id="a_node16"><a xlink:title=" ">
<polygon fill="none" stroke="#bfbfbf" points="149.5,-56.5 149.5,-75.5 181.5,-75.5 181.5,-56.5 149.5,-56.5"/>
<text text-anchor="middle" x="165.5" y="-63.5" font-family="Helvetica,sans-Serif" font-size="10.00">list</text>
</a>
</g>
</g>
<!-- Node15&#45;&gt;Node16 -->
<g id="edge17" class="edge">
<title>Node15&#45;&gt;Node16</title>
<path fill="none" stroke="midnightblue" d="M233.49,-112.32C220.97,-103.98 201.82,-91.21 187.03,-81.35"/>
<polygon fill="midnightblue" stroke="midnightblue" points="188.74,-78.29 178.48,-75.65 184.86,-84.11 188.74,-78.29"/>
</g>
<!-- Node17 -->
<g id="node17" class="node">
<title>Node17</title>
<g id="a_node17"><a xlink:title=" ">
<polygon fill="none" stroke="#bfbfbf" points="200,-56.5 200,-75.5 293,-75.5 293,-56.5 200,-56.5"/>
<text text-anchor="middle" x="246.5" y="-63.5" font-family="Helvetica,sans-Serif" font-size="10.00">unordered_map</text>
</a>
</g>
</g>
<!-- Node15&#45;&gt;Node17 -->
<g id="edge18" class="edge">
<title>Node15&#45;&gt;Node17</title>
<path fill="none" stroke="midnightblue" d="M246.5,-112.08C246.5,-105.01 246.5,-94.86 246.5,-85.99"/>
<polygon fill="midnightblue" stroke="midnightblue" points="250,-85.75 246.5,-75.75 243,-85.75 250,-85.75"/>
</g>
<!-- Node18 -->
<g id="node18" class="node">
<title>Node18</title>
<g id="a_node18"><a xlink:href="memory__units_8h.html" target="_top" xlink:title=" ">
<polygon fill="none" stroke="black" points="35.5,-56.5 35.5,-75.5 131.5,-75.5 131.5,-56.5 35.5,-56.5"/>
<text text-anchor="middle" x="83.5" y="-63.5" font-family="Helvetica,sans-Serif" font-size="10.00">memory_units.h</text>
</a>
</g>
</g>
<!-- Node15&#45;&gt;Node18 -->
<g id="edge20" class="edge">
<title>Node15&#45;&gt;Node18</title>
<path fill="none" stroke="midnightblue" d="M220.67,-112.44C193.25,-103.36 149.72,-88.94 119.07,-78.78"/>
<polygon fill="midnightblue" stroke="midnightblue" points="119.8,-75.34 109.21,-75.52 117.6,-81.98 119.8,-75.34"/>
</g>
<!-- Node19 -->
<g id="node19" class="node">
<title>Node19</title>
<g id="a_node19"><a xlink:href="string__hash_8h.html" target="_top" xlink:title=" ">
<polygon fill="none" stroke="black" points="311.5,-56.5 311.5,-75.5 393.5,-75.5 393.5,-56.5 311.5,-56.5"/>
<text text-anchor="middle" x="352.5" y="-63.5" font-family="Helvetica,sans-Serif" font-size="10.00">string_hash.h</text>
</a>
</g>
</g>
<!-- Node15&#45;&gt;Node19 -->
<g id="edge23" class="edge">
<title>Node15&#45;&gt;Node19</title>
<path fill="none" stroke="midnightblue" d="M263.53,-112.32C280.53,-103.66 306.88,-90.24 326.49,-80.25"/>
<polygon fill="midnightblue" stroke="midnightblue" points="328.19,-83.31 335.51,-75.65 325.01,-77.08 328.19,-83.31"/>
</g>
<!-- Node18&#45;&gt;Node4 -->
<g id="edge22" class="edge">
<title>Node18&#45;&gt;Node4</title>
<path fill="none" stroke="midnightblue" d="M131.51,-56.44C193.93,-45.32 301.25,-26.19 354.54,-16.7"/>
<polygon fill="midnightblue" stroke="midnightblue" points="355.22,-20.13 364.45,-14.93 353.99,-13.24 355.22,-20.13"/>
</g>
<!-- Node18&#45;&gt;Node14 -->
<g id="edge21" class="edge">
<title>Node18&#45;&gt;Node14</title>
<path fill="none" stroke="midnightblue" d="M74.34,-56.32C66,-48.42 53.47,-36.55 43.32,-26.94"/>
<polygon fill="midnightblue" stroke="midnightblue" points="45.49,-24.17 35.82,-19.83 40.68,-29.25 45.49,-24.17"/>
</g>
<!-- Node19&#45;&gt;Node4 -->
<g id="edge24" class="edge">
<title>Node19&#45;&gt;Node4</title>
<path fill="none" stroke="midnightblue" d="M358.11,-56.08C362.87,-48.53 369.82,-37.49 375.65,-28.23"/>
<polygon fill="midnightblue" stroke="midnightblue" points="378.62,-30.08 380.99,-19.75 372.7,-26.35 378.62,-30.08"/>
</g>
<!-- Node22 -->
<g id="node22" class="node">
<title>Node22</title>
<g id="a_node22"><a xlink:title=" ">
<polygon fill="none" stroke="#bfbfbf" points="572.5,-174 572.5,-193 636.5,-193 636.5,-174 572.5,-174"/>
<text text-anchor="middle" x="604.5" y="-181" font-family="Helvetica,sans-Serif" font-size="10.00">algorithm</text>
</a>
</g>
</g>
<!-- Node21&#45;&gt;Node22 -->
<g id="edge27" class="edge">
<title>Node21&#45;&gt;Node22</title>
<path fill="none" stroke="midnightblue" d="M604.5,-240.73C604.5,-231.18 604.5,-215.62 604.5,-203.28"/>
<polygon fill="midnightblue" stroke="midnightblue" points="608,-203.13 604.5,-193.13 601,-203.13 608,-203.13"/>
</g>
<!-- Node23 -->
<g id="node23" class="node">
<title>Node23</title>
<g id="a_node23"><a xlink:title=" ">
<polygon fill="none" stroke="#bfbfbf" points="654.5,-174 654.5,-193 728.5,-193 728.5,-174 654.5,-174"/>
<text text-anchor="middle" x="691.5" y="-181" font-family="Helvetica,sans-Serif" font-size="10.00">forward_list</text>
</a>
</g>
</g>
<!-- Node21&#45;&gt;Node23 -->
<g id="edge28" class="edge">
<title>Node21&#45;&gt;Node23</title>
<path fill="none" stroke="midnightblue" d="M616.23,-240.73C630.45,-230.11 654.63,-212.05 671.74,-199.26"/>
<polygon fill="midnightblue" stroke="midnightblue" points="674.04,-201.92 679.95,-193.13 669.85,-196.31 674.04,-201.92"/>
</g>
<!-- Node24 -->
<g id="node24" class="node">
<title>Node24</title>
<g id="a_node24"><a xlink:href="as__const_8h.html" target="_top" xlink:title=" ">
<polygon fill="none" stroke="black" points="486.5,-174 486.5,-193 554.5,-193 554.5,-174 486.5,-174"/>
<text text-anchor="middle" x="520.5" y="-181" font-family="Helvetica,sans-Serif" font-size="10.00">as_const.h</text>
</a>
</g>
</g>
<!-- Node21&#45;&gt;Node24 -->
<g id="edge29" class="edge">
<title>Node21&#45;&gt;Node24</title>
<path fill="none" stroke="midnightblue" d="M593.17,-240.73C579.44,-230.11 556.1,-212.05 539.58,-199.26"/>
<polygon fill="midnightblue" stroke="midnightblue" points="541.7,-196.48 531.65,-193.13 537.42,-202.02 541.7,-196.48"/>
</g>
<!-- Node25 -->
<g id="node25" class="node">
<title>Node25</title>
<g id="a_node25"><a xlink:href="narrow_8h.html" target="_top" xlink:title=" ">
<polygon fill="none" stroke="black" points="946,-174 946,-193 1005,-193 1005,-174 946,-174"/>
<text text-anchor="middle" x="975.5" y="-181" font-family="Helvetica,sans-Serif" font-size="10.00">narrow.h</text>
</a>
</g>
</g>
<!-- Node21&#45;&gt;Node25 -->
<g id="edge30" class="edge">
<title>Node21&#45;&gt;Node25</title>
<path fill="none" stroke="midnightblue" d="M668.23,-243.93C735.87,-237.07 845.47,-223.24 937.5,-199 940.16,-198.3 942.89,-197.48 945.61,-196.58"/>
<polygon fill="midnightblue" stroke="midnightblue" points="947.01,-199.8 955.25,-193.14 944.66,-193.21 947.01,-199.8"/>
</g>
<!-- Node25&#45;&gt;Node6 -->
<g id="edge32" class="edge">
<title>Node25&#45;&gt;Node6</title>
<path fill="none" stroke="midnightblue" d="M954.34,-173.97C948.89,-171.9 943.01,-169.78 937.5,-168 895.45,-154.45 846.61,-141.84 812.1,-133.44"/>
<polygon fill="midnightblue" stroke="midnightblue" points="812.87,-130.02 802.32,-131.07 811.22,-136.83 812.87,-130.02"/>
</g>
<!-- Node25&#45;&gt;Node9 -->
<g id="edge31" class="edge">
<title>Node25&#45;&gt;Node9</title>
<path fill="none" stroke="midnightblue" d="M982.72,-173.82C998.63,-154.67 1036.97,-108.54 1057.68,-83.63"/>
<polygon fill="midnightblue" stroke="midnightblue" points="1060.5,-85.71 1064.2,-75.78 1055.12,-81.24 1060.5,-85.71"/>
</g>
<!-- Node26&#45;&gt;Node3 -->
<g id="edge34" class="edge">
<title>Node26&#45;&gt;Node3</title>
<path fill="none" stroke="midnightblue" d="M465.12,-414.47C452.71,-406.7 435.97,-394 427.5,-378 419.95,-363.74 418.62,-345.27 418.94,-331.66"/>
<polygon fill="midnightblue" stroke="midnightblue" points="422.44,-331.75 419.49,-321.58 415.45,-331.37 422.44,-331.75"/>
</g>
<!-- Node27 -->
<g id="node27" class="node">
<title>Node27</title>
<g id="a_node27"><a xlink:title=" ">
<polygon fill="none" stroke="#bfbfbf" points="436.5,-358.5 436.5,-377.5 524.5,-377.5 524.5,-358.5 436.5,-358.5"/>
<text text-anchor="middle" x="480.5" y="-365.5" font-family="Helvetica,sans-Serif" font-size="10.00">smt_logics.def</text>
</a>
</g>
</g>
<!-- Node26&#45;&gt;Node27 -->
<g id="edge35" class="edge">
<title>Node26&#45;&gt;Node27</title>
<path fill="none" stroke="midnightblue" d="M480.5,-414.08C480.5,-407.01 480.5,-396.86 480.5,-387.99"/>
<polygon fill="midnightblue" stroke="midnightblue" points="484,-387.75 480.5,-377.75 477,-387.75 484,-387.75"/>
</g>
<!-- Node28&#45;&gt;Node3 -->
<g id="edge37" class="edge">
<title>Node28&#45;&gt;Node3</title>
<path fill="none" stroke="midnightblue" d="M373.16,-414.4C377.17,-401.77 385.3,-377.6 394.5,-358 398.91,-348.61 404.6,-338.57 409.54,-330.37"/>
<polygon fill="midnightblue" stroke="midnightblue" points="412.6,-332.08 414.86,-321.72 406.64,-328.4 412.6,-332.08"/>
</g>
<!-- Node29 -->
<g id="node29" class="node">
<title>Node29</title>
<g id="a_node29"><a xlink:title=" ">
<polygon fill="none" stroke="#bfbfbf" points="247,-358.5 247,-377.5 342,-377.5 342,-358.5 247,-358.5"/>
<text text-anchor="middle" x="294.5" y="-365.5" font-family="Helvetica,sans-Serif" font-size="10.00">smt_options.def</text>
</a>
</g>
</g>
<!-- Node28&#45;&gt;Node29 -->
<g id="edge38" class="edge">
<title>Node28&#45;&gt;Node29</title>
<path fill="none" stroke="midnightblue" d="M358.29,-414.32C346.72,-406.11 329.12,-393.6 315.34,-383.81"/>
<polygon fill="midnightblue" stroke="midnightblue" points="317.11,-380.77 306.93,-377.83 313.06,-386.48 317.11,-380.77"/>
</g>
<!-- Node30&#45;&gt;Node3 -->
<g id="edge40" class="edge">
<title>Node30&#45;&gt;Node3</title>
<path fill="none" stroke="midnightblue" d="M776.98,-414.09C770.78,-399.65 756.44,-371.41 734.5,-358 689.62,-330.57 536.9,-319.02 462.25,-314.92"/>
<polygon fill="midnightblue" stroke="midnightblue" points="462.43,-311.43 452.26,-314.39 462.06,-318.42 462.43,-311.43"/>
</g>
<!-- Node31 -->
<g id="node31" class="node">
<title>Node31</title>
<g id="a_node31"><a xlink:href="response__or__error_8h.html" target="_top" xlink:title=" ">
<polygon fill="none" stroke="black" points="785,-168.5 785,-198.5 928,-198.5 928,-168.5 785,-168.5"/>
<text text-anchor="start" x="793" y="-186.5" font-family="Helvetica,sans-Serif" font-size="10.00">solvers/smt2_incremental</text>
<text text-anchor="middle" x="856.5" y="-175.5" font-family="Helvetica,sans-Serif" font-size="10.00">/response_or_error.h</text>
</a>
</g>
</g>
<!-- Node30&#45;&gt;Node31 -->
<g id="edge41" class="edge">
<title>Node30&#45;&gt;Node31</title>
<path fill="none" stroke="midnightblue" d="M797.28,-414.39C810.34,-406.72 827.68,-394.21 836.5,-378 866.18,-323.46 863.55,-247.46 859.7,-208.95"/>
<polygon fill="midnightblue" stroke="midnightblue" points="863.15,-208.25 858.56,-198.7 856.19,-209.02 863.15,-208.25"/>
</g>
<!-- Node34 -->
<g id="node34" class="node">
<title>Node34</title>
<g id="a_node34"><a xlink:href="type__traits_8h.html" target="_top" xlink:title=" ">
<polygon fill="none" stroke="black" points="1100,-235.5 1100,-265.5 1243,-265.5 1243,-235.5 1100,-235.5"/>
<text text-anchor="start" x="1108" y="-253.5" font-family="Helvetica,sans-Serif" font-size="10.00">solvers/smt2_incremental</text>
<text text-anchor="middle" x="1171.5" y="-242.5" font-family="Helvetica,sans-Serif" font-size="10.00">/type_traits.h</text>
</a>
</g>
</g>
<!-- Node30&#45;&gt;Node34 -->
<g id="edge47" class="edge">
<title>Node30&#45;&gt;Node34</title>
<path fill="none" stroke="midnightblue" d="M819.86,-415.56C882.06,-403.73 996.97,-381.62 1005.5,-378 1064.6,-352.93 1121.4,-301.97 1150.78,-272.97"/>
<polygon fill="midnightblue" stroke="midnightblue" points="1153.4,-275.3 1157.99,-265.75 1148.44,-270.36 1153.4,-275.3"/>
</g>
<!-- Node35 -->
<g id="node35" class="node">
<title>Node35</title>
<g id="a_node35"><a xlink:href="smt__index_8h.html" target="_top" xlink:title=" ">
<polygon fill="none" stroke="black" points="649,-358.5 649,-377.5 726,-377.5 726,-358.5 649,-358.5"/>
<text text-anchor="middle" x="687.5" y="-365.5" font-family="Helvetica,sans-Serif" font-size="10.00">smt_index.h</text>
</a>
</g>
</g>
<!-- Node30&#45;&gt;Node35 -->
<g id="edge49" class="edge">
<title>Node30&#45;&gt;Node35</title>
<path fill="none" stroke="midnightblue" d="M765.56,-414.32C750.91,-405.82 728.37,-392.73 711.26,-382.8"/>
<polygon fill="midnightblue" stroke="midnightblue" points="712.81,-379.65 702.4,-377.65 709.3,-385.7 712.81,-379.65"/>
</g>
<!-- Node36 -->
<g id="node36" class="node">
<title>Node36</title>
<g id="a_node36"><a xlink:href="smt__sorts_8h.html" target="_top" xlink:title=" ">
<polygon fill="none" stroke="black" points="922.5,-358.5 922.5,-377.5 996.5,-377.5 996.5,-358.5 922.5,-358.5"/>
<text text-anchor="middle" x="959.5" y="-365.5" font-family="Helvetica,sans-Serif" font-size="10.00">smt_sorts.h</text>
</a>
</g>
</g>
<!-- Node30&#45;&gt;Node36 -->
<g id="edge51" class="edge">
<title>Node30&#45;&gt;Node36</title>
<path fill="none" stroke="midnightblue" d="M808.86,-414.44C839.24,-405.28 887.61,-390.69 921.32,-380.52"/>
<polygon fill="midnightblue" stroke="midnightblue" points="922.71,-383.76 931.27,-377.52 920.68,-377.05 922.71,-383.76"/>
</g>
<!-- Node38 -->
<g id="node38" class="node">
<title>Node38</title>
<g id="a_node38"><a xlink:title=" ">
<polygon fill="none" stroke="#bfbfbf" points="1139,-358.5 1139,-377.5 1204,-377.5 1204,-358.5 1139,-358.5"/>
<text text-anchor="middle" x="1171.5" y="-365.5" font-family="Helvetica,sans-Serif" font-size="10.00">functional</text>
</a>
</g>
</g>
<!-- Node30&#45;&gt;Node38 -->
<g id="edge56" class="edge">
<title>Node30&#45;&gt;Node38</title>
<path fill="none" stroke="midnightblue" d="M819.76,-415.43C822.71,-414.92 825.65,-414.44 828.5,-414 959.47,-393.78 993.57,-398.47 1124.5,-378 1125.96,-377.77 1127.45,-377.53 1128.95,-377.28"/>
<polygon fill="midnightblue" stroke="midnightblue" points="1129.69,-380.71 1138.93,-375.53 1128.48,-373.81 1129.69,-380.71"/>
</g>
<!-- Node39 -->
<g id="node39" class="node">
<title>Node39</title>
<g id="a_node39"><a xlink:title=" ">
<polygon fill="none" stroke="#bfbfbf" points="783,-358.5 783,-377.5 828,-377.5 828,-358.5 783,-358.5"/>
<text text-anchor="middle" x="805.5" y="-365.5" font-family="Helvetica,sans-Serif" font-size="10.00">utility</text>
</a>
</g>
</g>
<!-- Node30&#45;&gt;Node39 -->
<g id="edge57" class="edge">
<title>Node30&#45;&gt;Node39</title>
<path fill="none" stroke="midnightblue" d="M784.63,-414.08C788.01,-406.77 792.92,-396.18 797.12,-387.1"/>
<polygon fill="midnightblue" stroke="midnightblue" points="800.42,-388.3 801.45,-377.75 794.07,-385.36 800.42,-388.3"/>
</g>
<!-- Node40 -->
<g id="node40" class="node">
<title>Node40</title>
<g id="a_node40"><a xlink:title=" ">
<polygon fill="none" stroke="#bfbfbf" points="542.5,-358.5 542.5,-377.5 630.5,-377.5 630.5,-358.5 542.5,-358.5"/>
<text text-anchor="middle" x="586.5" y="-365.5" font-family="Helvetica,sans-Serif" font-size="10.00">smt_terms.def</text>
</a>
</g>
</g>
<!-- Node30&#45;&gt;Node40 -->
<g id="edge58" class="edge">
<title>Node30&#45;&gt;Node40</title>
<path fill="none" stroke="midnightblue" d="M749.76,-414.44C716.56,-405.2 663.51,-390.44 626.94,-380.26"/>
<polygon fill="midnightblue" stroke="midnightblue" points="627.67,-376.83 617.1,-377.52 625.79,-383.57 627.67,-376.83"/>
</g>
<!-- Node31&#45;&gt;Node4 -->
<g id="edge45" class="edge">
<title>Node31&#45;&gt;Node4</title>
<path fill="none" stroke="midnightblue" d="M853.19,-168.17C846.12,-141.14 826.79,-82.9 786.5,-56 726.51,-15.94 503.13,-11.23 418.91,-10.9"/>
<polygon fill="midnightblue" stroke="midnightblue" points="418.67,-7.4 408.66,-10.88 418.66,-14.4 418.67,-7.4"/>
</g>
<!-- Node31&#45;&gt;Node5 -->
<g id="edge46" class="edge">
<title>Node31&#45;&gt;Node5</title>
<path fill="none" stroke="midnightblue" d="M809.92,-168.45C731.61,-144.84 575.42,-97.74 506.96,-77.09"/>
<polygon fill="midnightblue" stroke="midnightblue" points="507.72,-73.66 497.13,-74.13 505.7,-80.37 507.72,-73.66"/>
</g>
<!-- Node31&#45;&gt;Node6 -->
<g id="edge42" class="edge">
<title>Node31&#45;&gt;Node6</title>
<path fill="none" stroke="midnightblue" d="M835.41,-168.4C821.41,-159.04 803.09,-146.79 789.01,-137.38"/>
<polygon fill="midnightblue" stroke="midnightblue" points="790.71,-134.31 780.45,-131.66 786.82,-140.13 790.71,-134.31"/>
</g>
<!-- Node32 -->
<g id="node32" class="node">
<title>Node32</title>
<g id="a_node32"><a xlink:href="optional_8h.html" target="_top" xlink:title=" ">
<polygon fill="none" stroke="black" points="893.5,-112.5 893.5,-131.5 977.5,-131.5 977.5,-112.5 893.5,-112.5"/>
<text text-anchor="middle" x="935.5" y="-119.5" font-family="Helvetica,sans-Serif" font-size="10.00">util/optional.h</text>
</a>
</g>
</g>
<!-- Node31&#45;&gt;Node32 -->
<g id="edge43" class="edge">
<title>Node31&#45;&gt;Node32</title>
<path fill="none" stroke="midnightblue" d="M875.22,-168.4C887.41,-159.22 903.29,-147.26 915.69,-137.92"/>
<polygon fill="midnightblue" stroke="midnightblue" points="918.12,-140.47 924,-131.66 913.91,-134.88 918.12,-140.47"/>
</g>
<!-- Node33 -->
<g id="node33" class="node">
<title>Node33</title>
<g id="a_node33"><a xlink:title=" ">
<polygon fill="none" stroke="#bfbfbf" points="879,-56.5 879,-75.5 992,-75.5 992,-56.5 879,-56.5"/>
<text text-anchor="middle" x="935.5" y="-63.5" font-family="Helvetica,sans-Serif" font-size="10.00">nonstd/optional.hpp</text>
</a>
</g>
</g>
<!-- Node32&#45;&gt;Node33 -->
<g id="edge44" class="edge">
<title>Node32&#45;&gt;Node33</title>
<path fill="none" stroke="midnightblue" d="M935.5,-112.08C935.5,-105.01 935.5,-94.86 935.5,-85.99"/>
<polygon fill="midnightblue" stroke="midnightblue" points="939,-85.75 935.5,-75.75 932,-85.75 939,-85.75"/>
</g>
<!-- Node34&#45;&gt;Node9 -->
<g id="edge48" class="edge">
<title>Node34&#45;&gt;Node9</title>
<path fill="none" stroke="midnightblue" d="M1163.82,-235.48C1145.84,-202.68 1101.06,-120.95 1081.22,-84.74"/>
<polygon fill="midnightblue" stroke="midnightblue" points="1084.21,-82.91 1076.33,-75.82 1078.07,-86.27 1084.21,-82.91"/>
</g>
<!-- Node35&#45;&gt;Node3 -->
<g id="edge50" class="edge">
<title>Node35&#45;&gt;Node3</title>
<path fill="none" stroke="midnightblue" d="M648.96,-359.21C599.38,-349.18 513.56,-331.82 462.4,-321.47"/>
<polygon fill="midnightblue" stroke="midnightblue" points="462.83,-317.99 452.34,-319.44 461.45,-324.85 462.83,-317.99"/>
</g>
<!-- Node36&#45;&gt;Node3 -->
<g id="edge52" class="edge">
<title>Node36&#45;&gt;Node3</title>
<path fill="none" stroke="midnightblue" d="M922.45,-363.29C825.51,-353.58 564.83,-327.46 462.52,-317.21"/>
<polygon fill="midnightblue" stroke="midnightblue" points="462.57,-313.7 452.27,-316.18 461.87,-320.66 462.57,-313.7"/>
</g>
<!-- Node36&#45;&gt;Node9 -->
<g id="edge54" class="edge">
<title>Node36&#45;&gt;Node9</title>
<path fill="none" stroke="midnightblue" d="M996.73,-358.86C1016.97,-352.4 1040.47,-341.15 1053.5,-322 1104.13,-247.58 1085.84,-131.03 1076.05,-85.81"/>
<polygon fill="midnightblue" stroke="midnightblue" points="1079.43,-84.89 1073.79,-75.92 1072.6,-86.45 1079.43,-84.89"/>
</g>
<!-- Node36&#45;&gt;Node32 -->
<g id="edge53" class="edge">
<title>Node36&#45;&gt;Node32</title>
<path fill="none" stroke="midnightblue" d="M956.57,-358.42C952.71,-345.82 947.03,-321.68 952.5,-302 970.06,-238.77 1047.48,-224.73 1014.5,-168 1005.76,-152.97 989.92,-142.54 974.71,-135.54"/>
<polygon fill="midnightblue" stroke="midnightblue" points="975.96,-132.27 965.38,-131.61 973.24,-138.72 975.96,-132.27"/>
</g>
<!-- Node37 -->
<g id="node37" class="node">
<title>Node37</title>
<g id="a_node37"><a xlink:title=" ">
<polygon fill="none" stroke="#bfbfbf" points="961,-302.5 961,-321.5 1044,-321.5 1044,-302.5 961,-302.5"/>
<text text-anchor="middle" x="1002.5" y="-309.5" font-family="Helvetica,sans-Serif" font-size="10.00">smt_sorts.def</text>
</a>
</g>
</g>
<!-- Node36&#45;&gt;Node37 -->
<g id="edge55" class="edge">
<title>Node36&#45;&gt;Node37</title>
<path fill="none" stroke="midnightblue" d="M966.6,-358.08C972.74,-350.38 981.77,-339.03 989.24,-329.65"/>
<polygon fill="midnightblue" stroke="midnightblue" points="992.04,-331.75 995.53,-321.75 986.56,-327.39 992.04,-331.75"/>
</g>
<!-- Node42&#45;&gt;Node6 -->
<g id="edge63" class="edge">
<title>Node42&#45;&gt;Node6</title>
<path fill="none" stroke="midnightblue" d="M1135.29,-419.93C1073.38,-414.16 950.28,-400.21 913.5,-378 827.51,-326.06 812.84,-292.26 775.5,-199 768.12,-180.57 766.63,-157.71 766.67,-141.9"/>
<polygon fill="midnightblue" stroke="midnightblue" points="770.18,-141.88 766.91,-131.8 763.18,-141.72 770.18,-141.88"/>
</g>
<!-- Node42&#45;&gt;Node9 -->
<g id="edge62" class="edge">
<title>Node42&#45;&gt;Node9</title>
<path fill="none" stroke="midnightblue" d="M1188.46,-414.36C1216.99,-398.49 1271.5,-361.78 1271.5,-313 1271.5,-313 1271.5,-313 1271.5,-182.5 1271.5,-111.39 1175.51,-83.37 1116.53,-72.87"/>
<polygon fill="midnightblue" stroke="midnightblue" points="1116.78,-69.36 1106.34,-71.16 1115.62,-76.27 1116.78,-69.36"/>
</g>
<!-- Node42&#45;&gt;Node38 -->
<g id="edge61" class="edge">
<title>Node42&#45;&gt;Node38</title>
<path fill="none" stroke="midnightblue" d="M1171.5,-414.08C1171.5,-407.01 1171.5,-396.86 1171.5,-387.99"/>
<polygon fill="midnightblue" stroke="midnightblue" points="1175,-387.75 1171.5,-377.75 1168,-387.75 1175,-387.75"/>
</g>
<!-- Node43 -->
<g id="node43" class="node">
<title>Node43</title>
<g id="a_node43"><a xlink:href="make__unique_8h.html" target="_top" xlink:title=" ">
<polygon fill="none" stroke="black" points="1299.5,-358.5 1299.5,-377.5 1409.5,-377.5 1409.5,-358.5 1299.5,-358.5"/>
<text text-anchor="middle" x="1354.5" y="-365.5" font-family="Helvetica,sans-Serif" font-size="10.00">util/make_unique.h</text>
</a>
</g>
</g>
<!-- Node42&#45;&gt;Node43 -->
<g id="edge64" class="edge">
<title>Node42&#45;&gt;Node43</title>
<path fill="none" stroke="midnightblue" d="M1200.5,-414.44C1231.68,-405.24 1281.43,-390.56 1315.91,-380.39"/>
<polygon fill="midnightblue" stroke="midnightblue" points="1317.04,-383.7 1325.64,-377.52 1315.06,-376.99 1317.04,-383.7"/>
</g>
<!-- Node44 -->
<g id="node44" class="node">
<title>Node44</title>
<g id="a_node44"><a xlink:title=" ">
<polygon fill="none" stroke="#bfbfbf" points="1325.5,-302.5 1325.5,-321.5 1383.5,-321.5 1383.5,-302.5 1325.5,-302.5"/>
<text text-anchor="middle" x="1354.5" y="-309.5" font-family="Helvetica,sans-Serif" font-size="10.00">memory</text>
</a>
</g>
</g>
<!-- Node43&#45;&gt;Node44 -->
<g id="edge65" class="edge">
<title>Node43&#45;&gt;Node44</title>
<path fill="none" stroke="midnightblue" d="M1354.5,-358.08C1354.5,-351.01 1354.5,-340.86 1354.5,-331.99"/>
<polygon fill="midnightblue" stroke="midnightblue" points="1358,-331.75 1354.5,-321.75 1351,-331.75 1358,-331.75"/>
</g>
</g>
</svg>
