<?xml version="1.0" encoding="UTF-8" standalone="no"?>
<!DOCTYPE svg PUBLIC "-//W3C//DTD SVG 1.1//EN"
 "http://www.w3.org/Graphics/SVG/1.1/DTD/svg11.dtd">
<!-- Generated by graphviz version 2.43.0 (0)
 -->
<!-- Title: /home/runner/work/cbmc/cbmc/src/solvers/smt2_incremental/ast/smt_responses.h Pages: 1 -->
<svg width="1067pt" height="509pt"
 viewBox="0.00 0.00 1066.50 509.00" xmlns="http://www.w3.org/2000/svg" xmlns:xlink="http://www.w3.org/1999/xlink">
<g id="graph0" class="graph" transform="scale(1 1) rotate(0) translate(4 505)">
<title>/home/runner/work/cbmc/cbmc/src/solvers/smt2_incremental/ast/smt_responses.h</title>
<!-- Node1 -->
<g id="node1" class="node">
<title>Node1</title>
<g id="a_node1"><a xlink:title=" ">
<polygon fill="#bfbfbf" stroke="black" points="403.5,-459.5 403.5,-500.5 587.5,-500.5 587.5,-459.5 403.5,-459.5"/>
<text text-anchor="start" x="411.5" y="-488.5" font-family="Helvetica,sans-Serif" font-size="10.00">/home/runner/work/cbmc</text>
<text text-anchor="start" x="411.5" y="-477.5" font-family="Helvetica,sans-Serif" font-size="10.00">/cbmc/src/solvers/smt2</text>
<text text-anchor="middle" x="495.5" y="-466.5" font-family="Helvetica,sans-Serif" font-size="10.00">_incremental/ast/smt_responses.h</text>
</a>
</g>
</g>
<!-- Node2 -->
<g id="node2" class="node">
<title>Node2</title>
<g id="a_node2"><a xlink:href="irep_8h.html" target="_top" xlink:title=" ">
<polygon fill="none" stroke="black" points="406,-291.5 406,-310.5 469,-310.5 469,-291.5 406,-291.5"/>
<text text-anchor="middle" x="437.5" y="-298.5" font-family="Helvetica,sans-Serif" font-size="10.00">util/irep.h</text>
</a>
</g>
</g>
<!-- Node1&#45;&gt;Node2 -->
<g id="edge1" class="edge">
<title>Node1&#45;&gt;Node2</title>
<path fill="none" stroke="midnightblue" d="M485.26,-459.33C474.27,-437.38 457.11,-400.56 447.5,-367 443.13,-351.72 440.55,-333.83 439.11,-320.7"/>
<polygon fill="midnightblue" stroke="midnightblue" points="442.58,-320.17 438.13,-310.56 435.61,-320.85 442.58,-320.17"/>
</g>
<!-- Node25 -->
<g id="node25" class="node">
<title>Node25</title>
<g id="a_node25"><a xlink:href="smt__terms_8h.html" target="_top" xlink:title=" ">
<polygon fill="none" stroke="black" points="584.5,-403.5 584.5,-422.5 662.5,-422.5 662.5,-403.5 584.5,-403.5"/>
<text text-anchor="middle" x="623.5" y="-410.5" font-family="Helvetica,sans-Serif" font-size="10.00">smt_terms.h</text>
</a>
</g>
</g>
<!-- Node1&#45;&gt;Node25 -->
<g id="edge32" class="edge">
<title>Node1&#45;&gt;Node25</title>
<path fill="none" stroke="midnightblue" d="M533.9,-459.5C554.38,-449.1 579.04,-436.58 597.3,-427.31"/>
<polygon fill="midnightblue" stroke="midnightblue" points="599.13,-430.3 606.46,-422.65 595.96,-424.06 599.13,-430.3"/>
</g>
<!-- Node3 -->
<g id="node3" class="node">
<title>Node3</title>
<g id="a_node3"><a xlink:title=" ">
<polygon fill="none" stroke="#bfbfbf" points="383.5,-0.5 383.5,-19.5 427.5,-19.5 427.5,-0.5 383.5,-0.5"/>
<text text-anchor="middle" x="405.5" y="-7.5" font-family="Helvetica,sans-Serif" font-size="10.00">string</text>
</a>
</g>
</g>
<!-- Node2&#45;&gt;Node3 -->
<g id="edge2" class="edge">
<title>Node2&#45;&gt;Node3</title>
<path fill="none" stroke="midnightblue" d="M406,-294.68C329.56,-280.87 140.5,-241 140.5,-184.5 140.5,-184.5 140.5,-184.5 140.5,-121 140.5,-90.9 137.15,-76.15 159.5,-56 190.46,-28.08 313.41,-16.73 372.91,-12.8"/>
<polygon fill="midnightblue" stroke="midnightblue" points="373.48,-16.27 383.25,-12.15 373.04,-9.28 373.48,-16.27"/>
</g>
<!-- Node4 -->
<g id="node4" class="node">
<title>Node4</title>
<g id="a_node4"><a xlink:title=" ">
<polygon fill="none" stroke="#bfbfbf" points="469,-56.5 469,-75.5 516,-75.5 516,-56.5 469,-56.5"/>
<text text-anchor="middle" x="492.5" y="-63.5" font-family="Helvetica,sans-Serif" font-size="10.00">vector</text>
</a>
</g>
</g>
<!-- Node2&#45;&gt;Node4 -->
<g id="edge3" class="edge">
<title>Node2&#45;&gt;Node4</title>
<path fill="none" stroke="midnightblue" d="M435.02,-291.47C432.54,-282.48 428.91,-267.89 427.5,-255 423.26,-216.4 423.42,-204.9 435.5,-168 445.89,-136.26 466.74,-103.25 480.14,-83.94"/>
<polygon fill="midnightblue" stroke="midnightblue" points="483.11,-85.81 486.04,-75.63 477.4,-81.76 483.11,-85.81"/>
</g>
<!-- Node5 -->
<g id="node5" class="node">
<title>Node5</title>
<g id="a_node5"><a xlink:href="src_2util_2invariant_8h.html" target="_top" xlink:title=" ">
<polygon fill="none" stroke="black" points="713,-112.5 713,-131.5 782,-131.5 782,-112.5 713,-112.5"/>
<text text-anchor="middle" x="747.5" y="-119.5" font-family="Helvetica,sans-Serif" font-size="10.00">invariant.h</text>
</a>
</g>
</g>
<!-- Node2&#45;&gt;Node5 -->
<g id="edge4" class="edge">
<title>Node2&#45;&gt;Node5</title>
<path fill="none" stroke="midnightblue" d="M435.68,-291.43C431.25,-267.98 422.63,-202.23 456.5,-168 490.09,-134.06 629.62,-125.69 702.58,-123.65"/>
<polygon fill="midnightblue" stroke="midnightblue" points="702.94,-127.14 712.84,-123.39 702.76,-120.14 702.94,-127.14"/>
</g>
<!-- Node9 -->
<g id="node9" class="node">
<title>Node9</title>
<g id="a_node9"><a xlink:href="irep__ids_8h.html" target="_top" xlink:title="util">
<polygon fill="none" stroke="black" points="302.5,-235.5 302.5,-254.5 366.5,-254.5 366.5,-235.5 302.5,-235.5"/>
<text text-anchor="middle" x="334.5" y="-242.5" font-family="Helvetica,sans-Serif" font-size="10.00">irep_ids.h</text>
</a>
</g>
</g>
<!-- Node2&#45;&gt;Node9 -->
<g id="edge9" class="edge">
<title>Node2&#45;&gt;Node9</title>
<path fill="none" stroke="midnightblue" d="M420.95,-291.32C404.51,-282.7 379.07,-269.36 360.03,-259.39"/>
<polygon fill="midnightblue" stroke="midnightblue" points="361.49,-256.2 351.01,-254.65 358.24,-262.4 361.49,-256.2"/>
</g>
<!-- Node20 -->
<g id="node20" class="node">
<title>Node20</title>
<g id="a_node20"><a xlink:href="forward__list__as__map_8h.html" target="_top" xlink:title=" ">
<polygon fill="none" stroke="black" points="521,-235.5 521,-254.5 648,-254.5 648,-235.5 521,-235.5"/>
<text text-anchor="middle" x="584.5" y="-242.5" font-family="Helvetica,sans-Serif" font-size="10.00">forward_list_as_map.h</text>
</a>
</g>
</g>
<!-- Node2&#45;&gt;Node20 -->
<g id="edge25" class="edge">
<title>Node2&#45;&gt;Node20</title>
<path fill="none" stroke="midnightblue" d="M460.79,-291.44C485.31,-282.44 524.1,-268.19 551.7,-258.05"/>
<polygon fill="midnightblue" stroke="midnightblue" points="553.14,-261.25 561.32,-254.52 550.72,-254.68 553.14,-261.25"/>
</g>
<!-- Node5&#45;&gt;Node3 -->
<g id="edge7" class="edge">
<title>Node5&#45;&gt;Node3</title>
<path fill="none" stroke="midnightblue" d="M720.95,-112.46C658.85,-92.49 504.33,-42.79 437.33,-21.24"/>
<polygon fill="midnightblue" stroke="midnightblue" points="438.32,-17.88 427.73,-18.15 436.17,-24.54 438.32,-17.88"/>
</g>
<!-- Node6 -->
<g id="node6" class="node">
<title>Node6</title>
<g id="a_node6"><a xlink:title=" ">
<polygon fill="none" stroke="#bfbfbf" points="652,-56.5 652,-75.5 701,-75.5 701,-56.5 652,-56.5"/>
<text text-anchor="middle" x="676.5" y="-63.5" font-family="Helvetica,sans-Serif" font-size="10.00">cstdlib</text>
</a>
</g>
</g>
<!-- Node5&#45;&gt;Node6 -->
<g id="edge5" class="edge">
<title>Node5&#45;&gt;Node6</title>
<path fill="none" stroke="midnightblue" d="M736.09,-112.32C725.39,-104.18 709.16,-91.84 696.34,-82.09"/>
<polygon fill="midnightblue" stroke="midnightblue" points="698.19,-79.1 688.11,-75.83 693.96,-84.67 698.19,-79.1"/>
</g>
<!-- Node7 -->
<g id="node7" class="node">
<title>Node7</title>
<g id="a_node7"><a xlink:title=" ">
<polygon fill="none" stroke="#bfbfbf" points="719.5,-56.5 719.5,-75.5 775.5,-75.5 775.5,-56.5 719.5,-56.5"/>
<text text-anchor="middle" x="747.5" y="-63.5" font-family="Helvetica,sans-Serif" font-size="10.00">sstream</text>
</a>
</g>
</g>
<!-- Node5&#45;&gt;Node7 -->
<g id="edge6" class="edge">
<title>Node5&#45;&gt;Node7</title>
<path fill="none" stroke="midnightblue" d="M747.5,-112.08C747.5,-105.01 747.5,-94.86 747.5,-85.99"/>
<polygon fill="midnightblue" stroke="midnightblue" points="751,-85.75 747.5,-75.75 744,-85.75 751,-85.75"/>
</g>
<!-- Node8 -->
<g id="node8" class="node">
<title>Node8</title>
<g id="a_node8"><a xlink:title=" ">
<polygon fill="none" stroke="#bfbfbf" points="794,-56.5 794,-75.5 863,-75.5 863,-56.5 794,-56.5"/>
<text text-anchor="middle" x="828.5" y="-63.5" font-family="Helvetica,sans-Serif" font-size="10.00">type_traits</text>
</a>
</g>
</g>
<!-- Node5&#45;&gt;Node8 -->
<g id="edge8" class="edge">
<title>Node5&#45;&gt;Node8</title>
<path fill="none" stroke="midnightblue" d="M760.51,-112.32C773.03,-103.98 792.18,-91.21 806.97,-81.35"/>
<polygon fill="midnightblue" stroke="midnightblue" points="809.14,-84.11 815.52,-75.65 805.26,-78.29 809.14,-84.11"/>
</g>
<!-- Node10 -->
<g id="node10" class="node">
<title>Node10</title>
<g id="a_node10"><a xlink:href="dstring_8h.html" target="_top" xlink:title="Container for C&#45;Strings.">
<polygon fill="none" stroke="black" points="220,-174 220,-193 279,-193 279,-174 220,-174"/>
<text text-anchor="middle" x="249.5" y="-181" font-family="Helvetica,sans-Serif" font-size="10.00">dstring.h</text>
</a>
</g>
</g>
<!-- Node9&#45;&gt;Node10 -->
<g id="edge10" class="edge">
<title>Node9&#45;&gt;Node10</title>
<path fill="none" stroke="midnightblue" d="M322.32,-235.48C308.69,-225.93 286.37,-210.31 270.03,-198.87"/>
<polygon fill="midnightblue" stroke="midnightblue" points="271.86,-195.88 261.66,-193.01 267.84,-201.61 271.86,-195.88"/>
</g>
<!-- Node19 -->
<g id="node19" class="node">
<title>Node19</title>
<g id="a_node19"><a xlink:title=" ">
<polygon fill="none" stroke="#bfbfbf" points="297.5,-174 297.5,-193 371.5,-193 371.5,-174 297.5,-174"/>
<text text-anchor="middle" x="334.5" y="-181" font-family="Helvetica,sans-Serif" font-size="10.00">irep_ids.def</text>
</a>
</g>
</g>
<!-- Node9&#45;&gt;Node19 -->
<g id="edge24" class="edge">
<title>Node9&#45;&gt;Node19</title>
<path fill="none" stroke="midnightblue" d="M334.5,-235.48C334.5,-227.08 334.5,-213.98 334.5,-203.16"/>
<polygon fill="midnightblue" stroke="midnightblue" points="338,-203.01 334.5,-193.01 331,-203.01 338,-203.01"/>
</g>
<!-- Node10&#45;&gt;Node3 -->
<g id="edge12" class="edge">
<title>Node10&#45;&gt;Node3</title>
<path fill="none" stroke="midnightblue" d="M272.39,-173.99C294.95,-165.11 329.94,-149.98 357.5,-132 389.15,-111.35 405.88,-110.42 421.5,-76 428.39,-60.82 422.53,-42.24 416.05,-28.84"/>
<polygon fill="midnightblue" stroke="midnightblue" points="418.99,-26.91 411.18,-19.75 412.82,-30.22 418.99,-26.91"/>
</g>
<!-- Node11 -->
<g id="node11" class="node">
<title>Node11</title>
<g id="a_node11"><a xlink:title=" ">
<polygon fill="none" stroke="#bfbfbf" points="178.5,-112.5 178.5,-131.5 226.5,-131.5 226.5,-112.5 178.5,-112.5"/>
<text text-anchor="middle" x="202.5" y="-119.5" font-family="Helvetica,sans-Serif" font-size="10.00">iosfwd</text>
</a>
</g>
</g>
<!-- Node10&#45;&gt;Node11 -->
<g id="edge11" class="edge">
<title>Node10&#45;&gt;Node11</title>
<path fill="none" stroke="midnightblue" d="M242.77,-173.98C235.72,-165.05 224.47,-150.81 215.65,-139.64"/>
<polygon fill="midnightblue" stroke="midnightblue" points="218.17,-137.19 209.22,-131.51 212.67,-141.53 218.17,-137.19"/>
</g>
<!-- Node12 -->
<g id="node12" class="node">
<title>Node12</title>
<g id="a_node12"><a xlink:href="magic_8h.html" target="_top" xlink:title="Magic numbers used throughout the codebase.">
<polygon fill="none" stroke="black" points="8.5,-112.5 8.5,-131.5 64.5,-131.5 64.5,-112.5 8.5,-112.5"/>
<text text-anchor="middle" x="36.5" y="-119.5" font-family="Helvetica,sans-Serif" font-size="10.00">magic.h</text>
</a>
</g>
</g>
<!-- Node10&#45;&gt;Node12 -->
<g id="edge13" class="edge">
<title>Node10&#45;&gt;Node12</title>
<path fill="none" stroke="midnightblue" d="M219.88,-174.23C181.87,-163.61 115.86,-145.17 74.27,-133.55"/>
<polygon fill="midnightblue" stroke="midnightblue" points="75.08,-130.14 64.51,-130.82 73.2,-136.89 75.08,-130.14"/>
</g>
<!-- Node14 -->
<g id="node14" class="node">
<title>Node14</title>
<g id="a_node14"><a xlink:href="string__container_8h.html" target="_top" xlink:title="Container for C&#45;Strings.">
<polygon fill="none" stroke="black" points="244.5,-112.5 244.5,-131.5 348.5,-131.5 348.5,-112.5 244.5,-112.5"/>
<text text-anchor="middle" x="296.5" y="-119.5" font-family="Helvetica,sans-Serif" font-size="10.00">string_container.h</text>
</a>
</g>
</g>
<!-- Node10&#45;&gt;Node14 -->
<g id="edge15" class="edge">
<title>Node10&#45;&gt;Node14</title>
<path fill="none" stroke="midnightblue" d="M256.23,-173.98C263.28,-165.05 274.53,-150.81 283.35,-139.64"/>
<polygon fill="midnightblue" stroke="midnightblue" points="286.33,-141.53 289.78,-131.51 280.83,-137.19 286.33,-141.53"/>
</g>
<!-- Node13 -->
<g id="node13" class="node">
<title>Node13</title>
<g id="a_node13"><a xlink:title=" ">
<polygon fill="none" stroke="#bfbfbf" points="0,-0.5 0,-19.5 53,-19.5 53,-0.5 0,-0.5"/>
<text text-anchor="middle" x="26.5" y="-7.5" font-family="Helvetica,sans-Serif" font-size="10.00">cstddef</text>
</a>
</g>
</g>
<!-- Node12&#45;&gt;Node13 -->
<g id="edge14" class="edge">
<title>Node12&#45;&gt;Node13</title>
<path fill="none" stroke="midnightblue" d="M28.83,-112.46C21.72,-103.93 11.65,-90.09 7.5,-76 2.79,-60 9.13,-41.78 15.73,-28.7"/>
<polygon fill="midnightblue" stroke="midnightblue" points="18.86,-30.28 20.64,-19.83 12.73,-26.89 18.86,-30.28"/>
</g>
<!-- Node14&#45;&gt;Node4 -->
<g id="edge18" class="edge">
<title>Node14&#45;&gt;Node4</title>
<path fill="none" stroke="midnightblue" d="M327.56,-112.44C363.47,-102.55 422.36,-86.32 459.2,-76.17"/>
<polygon fill="midnightblue" stroke="midnightblue" points="460.26,-79.51 468.97,-73.48 458.4,-72.76 460.26,-79.51"/>
</g>
<!-- Node15 -->
<g id="node15" class="node">
<title>Node15</title>
<g id="a_node15"><a xlink:title=" ">
<polygon fill="none" stroke="#bfbfbf" points="280.5,-56.5 280.5,-75.5 312.5,-75.5 312.5,-56.5 280.5,-56.5"/>
<text text-anchor="middle" x="296.5" y="-63.5" font-family="Helvetica,sans-Serif" font-size="10.00">list</text>
</a>
</g>
</g>
<!-- Node14&#45;&gt;Node15 -->
<g id="edge16" class="edge">
<title>Node14&#45;&gt;Node15</title>
<path fill="none" stroke="midnightblue" d="M296.5,-112.08C296.5,-105.01 296.5,-94.86 296.5,-85.99"/>
<polygon fill="midnightblue" stroke="midnightblue" points="300,-85.75 296.5,-75.75 293,-85.75 300,-85.75"/>
</g>
<!-- Node16 -->
<g id="node16" class="node">
<title>Node16</title>
<g id="a_node16"><a xlink:title=" ">
<polygon fill="none" stroke="#bfbfbf" points="169,-56.5 169,-75.5 262,-75.5 262,-56.5 169,-56.5"/>
<text text-anchor="middle" x="215.5" y="-63.5" font-family="Helvetica,sans-Serif" font-size="10.00">unordered_map</text>
</a>
</g>
</g>
<!-- Node14&#45;&gt;Node16 -->
<g id="edge17" class="edge">
<title>Node14&#45;&gt;Node16</title>
<path fill="none" stroke="midnightblue" d="M283.49,-112.32C270.97,-103.98 251.82,-91.21 237.03,-81.35"/>
<polygon fill="midnightblue" stroke="midnightblue" points="238.74,-78.29 228.48,-75.65 234.86,-84.11 238.74,-78.29"/>
</g>
<!-- Node17 -->
<g id="node17" class="node">
<title>Node17</title>
<g id="a_node17"><a xlink:href="memory__units_8h.html" target="_top" xlink:title=" ">
<polygon fill="none" stroke="black" points="16.5,-56.5 16.5,-75.5 112.5,-75.5 112.5,-56.5 16.5,-56.5"/>
<text text-anchor="middle" x="64.5" y="-63.5" font-family="Helvetica,sans-Serif" font-size="10.00">memory_units.h</text>
</a>
</g>
</g>
<!-- Node14&#45;&gt;Node17 -->
<g id="edge19" class="edge">
<title>Node14&#45;&gt;Node17</title>
<path fill="none" stroke="midnightblue" d="M259.74,-112.44C219.44,-103.06 154.69,-87.99 110.92,-77.8"/>
<polygon fill="midnightblue" stroke="midnightblue" points="111.62,-74.37 101.09,-75.52 110.04,-81.19 111.62,-74.37"/>
</g>
<!-- Node18 -->
<g id="node18" class="node">
<title>Node18</title>
<g id="a_node18"><a xlink:href="string__hash_8h.html" target="_top" xlink:title="string hashing">
<polygon fill="none" stroke="black" points="330.5,-56.5 330.5,-75.5 412.5,-75.5 412.5,-56.5 330.5,-56.5"/>
<text text-anchor="middle" x="371.5" y="-63.5" font-family="Helvetica,sans-Serif" font-size="10.00">string_hash.h</text>
</a>
</g>
</g>
<!-- Node14&#45;&gt;Node18 -->
<g id="edge22" class="edge">
<title>Node14&#45;&gt;Node18</title>
<path fill="none" stroke="midnightblue" d="M308.55,-112.32C319.96,-104.11 337.33,-91.6 350.93,-81.81"/>
<polygon fill="midnightblue" stroke="midnightblue" points="353.16,-84.52 359.23,-75.83 349.07,-78.84 353.16,-84.52"/>
</g>
<!-- Node17&#45;&gt;Node3 -->
<g id="edge21" class="edge">
<title>Node17&#45;&gt;Node3</title>
<path fill="none" stroke="midnightblue" d="M112.63,-57.38C183.29,-46.19 313.22,-25.61 373.38,-16.09"/>
<polygon fill="midnightblue" stroke="midnightblue" points="374.1,-19.52 383.43,-14.5 373.01,-12.6 374.1,-19.52"/>
</g>
<!-- Node17&#45;&gt;Node13 -->
<g id="edge20" class="edge">
<title>Node17&#45;&gt;Node13</title>
<path fill="none" stroke="midnightblue" d="M58.23,-56.08C52.86,-48.46 44.98,-37.26 38.42,-27.94"/>
<polygon fill="midnightblue" stroke="midnightblue" points="41.28,-25.91 32.66,-19.75 35.55,-29.94 41.28,-25.91"/>
</g>
<!-- Node18&#45;&gt;Node3 -->
<g id="edge23" class="edge">
<title>Node18&#45;&gt;Node3</title>
<path fill="none" stroke="midnightblue" d="M377.11,-56.08C381.87,-48.53 388.82,-37.49 394.65,-28.23"/>
<polygon fill="midnightblue" stroke="midnightblue" points="397.62,-30.08 399.99,-19.75 391.7,-26.35 397.62,-30.08"/>
</g>
<!-- Node21 -->
<g id="node21" class="node">
<title>Node21</title>
<g id="a_node21"><a xlink:title=" ">
<polygon fill="none" stroke="#bfbfbf" points="465.5,-174 465.5,-193 529.5,-193 529.5,-174 465.5,-174"/>
<text text-anchor="middle" x="497.5" y="-181" font-family="Helvetica,sans-Serif" font-size="10.00">algorithm</text>
</a>
</g>
</g>
<!-- Node20&#45;&gt;Node21 -->
<g id="edge26" class="edge">
<title>Node20&#45;&gt;Node21</title>
<path fill="none" stroke="midnightblue" d="M572.04,-235.48C558.08,-225.93 535.24,-210.31 518.51,-198.87"/>
<polygon fill="midnightblue" stroke="midnightblue" points="520.17,-195.77 509.94,-193.01 516.22,-201.54 520.17,-195.77"/>
</g>
<!-- Node22 -->
<g id="node22" class="node">
<title>Node22</title>
<g id="a_node22"><a xlink:title=" ">
<polygon fill="none" stroke="#bfbfbf" points="547.5,-174 547.5,-193 621.5,-193 621.5,-174 547.5,-174"/>
<text text-anchor="middle" x="584.5" y="-181" font-family="Helvetica,sans-Serif" font-size="10.00">forward_list</text>
</a>
</g>
</g>
<!-- Node20&#45;&gt;Node22 -->
<g id="edge27" class="edge">
<title>Node20&#45;&gt;Node22</title>
<path fill="none" stroke="midnightblue" d="M584.5,-235.48C584.5,-227.08 584.5,-213.98 584.5,-203.16"/>
<polygon fill="midnightblue" stroke="midnightblue" points="588,-203.01 584.5,-193.01 581,-203.01 588,-203.01"/>
</g>
<!-- Node23 -->
<g id="node23" class="node">
<title>Node23</title>
<g id="a_node23"><a xlink:href="as__const_8h.html" target="_top" xlink:title=" ">
<polygon fill="none" stroke="black" points="639.5,-174 639.5,-193 707.5,-193 707.5,-174 639.5,-174"/>
<text text-anchor="middle" x="673.5" y="-181" font-family="Helvetica,sans-Serif" font-size="10.00">as_const.h</text>
</a>
</g>
</g>
<!-- Node20&#45;&gt;Node23 -->
<g id="edge28" class="edge">
<title>Node20&#45;&gt;Node23</title>
<path fill="none" stroke="midnightblue" d="M597.25,-235.48C611.53,-225.93 634.9,-210.31 652.01,-198.87"/>
<polygon fill="midnightblue" stroke="midnightblue" points="654.4,-201.48 660.77,-193.01 650.51,-195.66 654.4,-201.48"/>
</g>
<!-- Node24 -->
<g id="node24" class="node">
<title>Node24</title>
<g id="a_node24"><a xlink:href="narrow_8h.html" target="_top" xlink:title=" ">
<polygon fill="none" stroke="black" points="726,-174 726,-193 785,-193 785,-174 726,-174"/>
<text text-anchor="middle" x="755.5" y="-181" font-family="Helvetica,sans-Serif" font-size="10.00">narrow.h</text>
</a>
</g>
</g>
<!-- Node20&#45;&gt;Node24 -->
<g id="edge29" class="edge">
<title>Node20&#45;&gt;Node24</title>
<path fill="none" stroke="midnightblue" d="M610.37,-235.41C637.04,-226.51 679.78,-212.08 716.5,-199 718.74,-198.2 721.05,-197.37 723.37,-196.53"/>
<polygon fill="midnightblue" stroke="midnightblue" points="724.67,-199.77 732.85,-193.04 722.26,-193.2 724.67,-199.77"/>
</g>
<!-- Node24&#45;&gt;Node5 -->
<g id="edge31" class="edge">
<title>Node24&#45;&gt;Node5</title>
<path fill="none" stroke="midnightblue" d="M754.35,-173.98C753.23,-165.58 751.46,-152.48 750.01,-141.66"/>
<polygon fill="midnightblue" stroke="midnightblue" points="753.45,-140.95 748.64,-131.51 746.51,-141.89 753.45,-140.95"/>
</g>
<!-- Node24&#45;&gt;Node8 -->
<g id="edge30" class="edge">
<title>Node24&#45;&gt;Node8</title>
<path fill="none" stroke="midnightblue" d="M762.15,-173.75C769.6,-163.82 781.88,-147.06 791.5,-132 801.53,-116.3 811.93,-97.79 819.15,-84.54"/>
<polygon fill="midnightblue" stroke="midnightblue" points="822.32,-86.04 823.98,-75.58 816.15,-82.72 822.32,-86.04"/>
</g>
<!-- Node25&#45;&gt;Node2 -->
<g id="edge33" class="edge">
<title>Node25&#45;&gt;Node2</title>
<path fill="none" stroke="midnightblue" d="M584.29,-409.9C549.59,-406.1 499.47,-395.63 466.5,-367 452.67,-354.99 445.13,-335.1 441.24,-320.48"/>
<polygon fill="midnightblue" stroke="midnightblue" points="444.6,-319.49 438.93,-310.54 437.79,-321.07 444.6,-319.49"/>
</g>
<!-- Node26 -->
<g id="node26" class="node">
<title>Node26</title>
<g id="a_node26"><a xlink:href="response__or__error_8h.html" target="_top" xlink:title=" ">
<polygon fill="none" stroke="black" points="803,-168.5 803,-198.5 946,-198.5 946,-168.5 803,-168.5"/>
<text text-anchor="start" x="811" y="-186.5" font-family="Helvetica,sans-Serif" font-size="10.00">solvers/smt2_incremental</text>
<text text-anchor="middle" x="874.5" y="-175.5" font-family="Helvetica,sans-Serif" font-size="10.00">/response_or_error.h</text>
</a>
</g>
</g>
<!-- Node25&#45;&gt;Node26 -->
<g id="edge34" class="edge">
<title>Node25&#45;&gt;Node26</title>
<path fill="none" stroke="midnightblue" d="M662.81,-407.37C712.3,-400.79 793.52,-387.23 815.5,-367 839.09,-345.28 860.58,-252.93 869.78,-208.53"/>
<polygon fill="midnightblue" stroke="midnightblue" points="873.24,-209.09 871.8,-198.59 866.38,-207.69 873.24,-209.09"/>
</g>
<!-- Node28 -->
<g id="node28" class="node">
<title>Node28</title>
<g id="a_node28"><a xlink:href="smt__index_8h.html" target="_top" xlink:title=" ">
<polygon fill="none" stroke="black" points="729,-347.5 729,-366.5 806,-366.5 806,-347.5 729,-347.5"/>
<text text-anchor="middle" x="767.5" y="-354.5" font-family="Helvetica,sans-Serif" font-size="10.00">smt_index.h</text>
</a>
</g>
</g>
<!-- Node25&#45;&gt;Node28 -->
<g id="edge39" class="edge">
<title>Node25&#45;&gt;Node28</title>
<path fill="none" stroke="midnightblue" d="M646.32,-403.44C670.33,-394.44 708.33,-380.19 735.37,-370.05"/>
<polygon fill="midnightblue" stroke="midnightblue" points="736.66,-373.3 744.79,-366.52 734.2,-366.75 736.66,-373.3"/>
</g>
<!-- Node29 -->
<g id="node29" class="node">
<title>Node29</title>
<g id="a_node29"><a xlink:href="smt__sorts_8h.html" target="_top" xlink:title="Data structure for smt sorts.">
<polygon fill="none" stroke="black" points="867.5,-347.5 867.5,-366.5 941.5,-366.5 941.5,-347.5 867.5,-347.5"/>
<text text-anchor="middle" x="904.5" y="-354.5" font-family="Helvetica,sans-Serif" font-size="10.00">smt_sorts.h</text>
</a>
</g>
</g>
<!-- Node25&#45;&gt;Node29 -->
<g id="edge41" class="edge">
<title>Node25&#45;&gt;Node29</title>
<path fill="none" stroke="midnightblue" d="M662.57,-404.49C713.43,-394.72 802.26,-377.65 856.97,-367.13"/>
<polygon fill="midnightblue" stroke="midnightblue" points="857.94,-370.51 867.1,-365.19 856.62,-363.64 857.94,-370.51"/>
</g>
<!-- Node32 -->
<g id="node32" class="node">
<title>Node32</title>
<g id="a_node32"><a xlink:title=" ">
<polygon fill="none" stroke="#bfbfbf" points="476,-347.5 476,-366.5 541,-366.5 541,-347.5 476,-347.5"/>
<text text-anchor="middle" x="508.5" y="-354.5" font-family="Helvetica,sans-Serif" font-size="10.00">functional</text>
</a>
</g>
</g>
<!-- Node25&#45;&gt;Node32 -->
<g id="edge46" class="edge">
<title>Node25&#45;&gt;Node32</title>
<path fill="none" stroke="midnightblue" d="M605.28,-403.44C586.6,-394.68 557.34,-380.94 535.88,-370.86"/>
<polygon fill="midnightblue" stroke="midnightblue" points="537.18,-367.6 526.64,-366.52 534.2,-373.93 537.18,-367.6"/>
</g>
<!-- Node33 -->
<g id="node33" class="node">
<title>Node33</title>
<g id="a_node33"><a xlink:title=" ">
<polygon fill="none" stroke="#bfbfbf" points="559,-347.5 559,-366.5 604,-366.5 604,-347.5 559,-347.5"/>
<text text-anchor="middle" x="581.5" y="-354.5" font-family="Helvetica,sans-Serif" font-size="10.00">utility</text>
</a>
</g>
</g>
<!-- Node25&#45;&gt;Node33 -->
<g id="edge47" class="edge">
<title>Node25&#45;&gt;Node33</title>
<path fill="none" stroke="midnightblue" d="M616.56,-403.08C610.57,-395.38 601.75,-384.03 594.45,-374.65"/>
<polygon fill="midnightblue" stroke="midnightblue" points="597.21,-372.5 588.31,-366.75 591.68,-376.79 597.21,-372.5"/>
</g>
<!-- Node34 -->
<g id="node34" class="node">
<title>Node34</title>
<g id="a_node34"><a xlink:title=" ">
<polygon fill="none" stroke="#bfbfbf" points="622.5,-347.5 622.5,-366.5 710.5,-366.5 710.5,-347.5 622.5,-347.5"/>
<text text-anchor="middle" x="666.5" y="-354.5" font-family="Helvetica,sans-Serif" font-size="10.00">smt_terms.def</text>
</a>
</g>
</g>
<!-- Node25&#45;&gt;Node34 -->
<g id="edge48" class="edge">
<title>Node25&#45;&gt;Node34</title>
<path fill="none" stroke="midnightblue" d="M630.6,-403.08C636.74,-395.38 645.77,-384.03 653.24,-374.65"/>
<polygon fill="midnightblue" stroke="midnightblue" points="656.04,-376.75 659.53,-366.75 650.56,-372.39 656.04,-376.75"/>
</g>
<!-- Node26&#45;&gt;Node3 -->
<g id="edge36" class="edge">
<title>Node26&#45;&gt;Node3</title>
<path fill="none" stroke="midnightblue" d="M887.86,-168.32C895.84,-158.84 905.23,-145.64 909.5,-132 920.71,-96.14 904.69,-75.36 872.5,-56 799.15,-11.88 531.46,-9.87 437.98,-10.57"/>
<polygon fill="midnightblue" stroke="midnightblue" points="437.69,-7.07 427.72,-10.66 437.75,-14.07 437.69,-7.07"/>
</g>
<!-- Node26&#45;&gt;Node4 -->
<g id="edge38" class="edge">
<title>Node26&#45;&gt;Node4</title>
<path fill="none" stroke="midnightblue" d="M826.84,-168.46C792.74,-158.39 745.77,-144.45 704.5,-132 641.17,-112.89 567.34,-90.15 525.64,-77.26"/>
<polygon fill="midnightblue" stroke="midnightblue" points="526.6,-73.89 516.01,-74.28 524.53,-80.58 526.6,-73.89"/>
</g>
<!-- Node26&#45;&gt;Node5 -->
<g id="edge35" class="edge">
<title>Node26&#45;&gt;Node5</title>
<path fill="none" stroke="midnightblue" d="M844.4,-168.4C823.38,-158.55 795.53,-145.5 775.08,-135.92"/>
<polygon fill="midnightblue" stroke="midnightblue" points="776.52,-132.73 765.98,-131.66 773.55,-139.07 776.52,-132.73"/>
</g>
<!-- Node27 -->
<g id="node27" class="node">
<title>Node27</title>
<g id="a_node27"><a xlink:title=" ">
<polygon fill="none" stroke="#bfbfbf" points="849,-112.5 849,-131.5 900,-131.5 900,-112.5 849,-112.5"/>
<text text-anchor="middle" x="874.5" y="-119.5" font-family="Helvetica,sans-Serif" font-size="10.00">variant</text>
</a>
</g>
</g>
<!-- Node26&#45;&gt;Node27 -->
<g id="edge37" class="edge">
<title>Node26&#45;&gt;Node27</title>
<path fill="none" stroke="midnightblue" d="M874.5,-168.4C874.5,-160.47 874.5,-150.46 874.5,-141.86"/>
<polygon fill="midnightblue" stroke="midnightblue" points="878,-141.66 874.5,-131.66 871,-141.66 878,-141.66"/>
</g>
<!-- Node28&#45;&gt;Node2 -->
<g id="edge40" class="edge">
<title>Node28&#45;&gt;Node2</title>
<path fill="none" stroke="midnightblue" d="M728.74,-348.64C725.62,-348.07 722.51,-347.52 719.5,-347 634.37,-332.23 534.46,-316.72 479.35,-308.32"/>
<polygon fill="midnightblue" stroke="midnightblue" points="479.68,-304.83 469.26,-306.78 478.62,-311.75 479.68,-304.83"/>
</g>
<!-- Node29&#45;&gt;Node2 -->
<g id="edge42" class="edge">
<title>Node29&#45;&gt;Node2</title>
<path fill="none" stroke="midnightblue" d="M867.46,-351.72C781.66,-341.8 569.68,-317.28 479.35,-306.84"/>
<polygon fill="midnightblue" stroke="midnightblue" points="479.55,-303.34 469.21,-305.67 478.74,-310.29 479.55,-303.34"/>
</g>
<!-- Node29&#45;&gt;Node8 -->
<g id="edge44" class="edge">
<title>Node29&#45;&gt;Node8</title>
<path fill="none" stroke="midnightblue" d="M918.15,-347.25C929.7,-339.17 945.87,-326.15 955.5,-311 971.64,-285.6 974.5,-276.1 974.5,-246 974.5,-246 974.5,-246 974.5,-182.5 974.5,-127.78 910.64,-94.92 867.39,-78.94"/>
<polygon fill="midnightblue" stroke="midnightblue" points="868.29,-75.55 857.69,-75.51 865.95,-82.14 868.29,-75.55"/>
</g>
<!-- Node30 -->
<g id="node30" class="node">
<title>Node30</title>
<g id="a_node30"><a xlink:title=" ">
<polygon fill="none" stroke="#bfbfbf" points="1002.5,-291.5 1002.5,-310.5 1058.5,-310.5 1058.5,-291.5 1002.5,-291.5"/>
<text text-anchor="middle" x="1030.5" y="-298.5" font-family="Helvetica,sans-Serif" font-size="10.00">optional</text>
</a>
</g>
</g>
<!-- Node29&#45;&gt;Node30 -->
<g id="edge43" class="edge">
<title>Node29&#45;&gt;Node30</title>
<path fill="none" stroke="midnightblue" d="M924.47,-347.44C945.11,-338.6 977.56,-324.69 1001.13,-314.59"/>
<polygon fill="midnightblue" stroke="midnightblue" points="1002.82,-317.67 1010.63,-310.52 1000.06,-311.24 1002.82,-317.67"/>
</g>
<!-- Node31 -->
<g id="node31" class="node">
<title>Node31</title>
<g id="a_node31"><a xlink:title=" ">
<polygon fill="none" stroke="#bfbfbf" points="863,-291.5 863,-310.5 946,-310.5 946,-291.5 863,-291.5"/>
<text text-anchor="middle" x="904.5" y="-298.5" font-family="Helvetica,sans-Serif" font-size="10.00">smt_sorts.def</text>
</a>
</g>
</g>
<!-- Node29&#45;&gt;Node31 -->
<g id="edge45" class="edge">
<title>Node29&#45;&gt;Node31</title>
<path fill="none" stroke="midnightblue" d="M904.5,-347.08C904.5,-340.01 904.5,-329.86 904.5,-320.99"/>
<polygon fill="midnightblue" stroke="midnightblue" points="908,-320.75 904.5,-310.75 901,-320.75 908,-320.75"/>
</g>
</g>
</svg>
