<?xml version="1.0" encoding="UTF-8" standalone="no"?>
<!DOCTYPE svg PUBLIC "-//W3C//DTD SVG 1.1//EN"
 "http://www.w3.org/Graphics/SVG/1.1/DTD/svg11.dtd">
<!-- Generated by graphviz version 2.43.0 (0)
 -->
<!-- Title: /home/runner/work/cbmc/cbmc/src/solvers/smt2_incremental/smt_solver_process.cpp Pages: 1 -->
<svg width="1485pt" height="609pt"
 viewBox="0.00 0.00 1485.23 609.00" xmlns="http://www.w3.org/2000/svg" xmlns:xlink="http://www.w3.org/1999/xlink">
<g id="graph0" class="graph" transform="scale(1 1) rotate(0) translate(4 605)">
<title>/home/runner/work/cbmc/cbmc/src/solvers/smt2_incremental/smt_solver_process.cpp</title>
<!-- Node1 -->
<g id="node1" class="node">
<title>Node1</title>
<g id="a_node1"><a xlink:title=" ">
<polygon fill="#bfbfbf" stroke="black" points="605,-548.5 605,-600.5 743,-600.5 743,-548.5 605,-548.5"/>
<text text-anchor="start" x="613" y="-588.5" font-family="Helvetica,sans-Serif" font-size="10.00">/home/runner/work/cbmc</text>
<text text-anchor="start" x="613" y="-577.5" font-family="Helvetica,sans-Serif" font-size="10.00">/cbmc/src/solvers/smt2</text>
<text text-anchor="start" x="613" y="-566.5" font-family="Helvetica,sans-Serif" font-size="10.00">_incremental/smt_solver</text>
<text text-anchor="middle" x="674" y="-555.5" font-family="Helvetica,sans-Serif" font-size="10.00">_process.cpp</text>
</a>
</g>
</g>
<!-- Node2 -->
<g id="node2" class="node">
<title>Node2</title>
<g id="a_node2"><a xlink:href="smt__solver__process_8h.html" target="_top" xlink:title=" ">
<polygon fill="none" stroke="black" points="299.5,-481.5 299.5,-511.5 442.5,-511.5 442.5,-481.5 299.5,-481.5"/>
<text text-anchor="start" x="307.5" y="-499.5" font-family="Helvetica,sans-Serif" font-size="10.00">solvers/smt2_incremental</text>
<text text-anchor="middle" x="371" y="-488.5" font-family="Helvetica,sans-Serif" font-size="10.00">/smt_solver_process.h</text>
</a>
</g>
</g>
<!-- Node1&#45;&gt;Node2 -->
<g id="edge1" class="edge">
<title>Node1&#45;&gt;Node2</title>
<path fill="none" stroke="midnightblue" d="M604.87,-556.16C554.54,-543.54 486.78,-526.54 437.16,-514.09"/>
<polygon fill="midnightblue" stroke="midnightblue" points="437.73,-510.63 427.17,-511.59 436.02,-517.42 437.73,-510.63"/>
</g>
<!-- Node9 -->
<g id="node9" class="node">
<title>Node9</title>
<g id="a_node9"><a xlink:href="src_2util_2invariant_8h.html" target="_top" xlink:title=" ">
<polygon fill="none" stroke="black" points="1003.5,-56.5 1003.5,-75.5 1072.5,-75.5 1072.5,-56.5 1003.5,-56.5"/>
<text text-anchor="middle" x="1038" y="-63.5" font-family="Helvetica,sans-Serif" font-size="10.00">invariant.h</text>
</a>
</g>
</g>
<!-- Node1&#45;&gt;Node9 -->
<g id="edge71" class="edge">
<title>Node1&#45;&gt;Node9</title>
<path fill="none" stroke="midnightblue" d="M743.28,-567.96C933.01,-551.88 1447,-501.72 1447,-430.5 1447,-430.5 1447,-430.5 1447,-367 1447,-208.29 1345.71,-167.46 1197,-112 1159.16,-97.89 1114.86,-85.69 1082.65,-77.57"/>
<polygon fill="midnightblue" stroke="midnightblue" points="1083.18,-74.09 1072.63,-75.08 1081.49,-80.89 1083.18,-74.09"/>
</g>
<!-- Node42 -->
<g id="node35" class="node">
<title>Node42</title>
<g id="a_node35"><a xlink:href="src_2solvers_2smt2_2smt2irep_8h.html" target="_top" xlink:title=" ">
<polygon fill="none" stroke="black" points="1283.5,-302.5 1283.5,-321.5 1418.5,-321.5 1418.5,-302.5 1283.5,-302.5"/>
<text text-anchor="middle" x="1351" y="-309.5" font-family="Helvetica,sans-Serif" font-size="10.00">solvers/smt2/smt2irep.h</text>
</a>
</g>
</g>
<!-- Node1&#45;&gt;Node42 -->
<g id="edge58" class="edge">
<title>Node1&#45;&gt;Node42</title>
<path fill="none" stroke="midnightblue" d="M743.17,-573.33C926.25,-572.17 1412.76,-564.16 1461,-512 1515.15,-453.45 1415.32,-363.37 1370.83,-328"/>
<polygon fill="midnightblue" stroke="midnightblue" points="1372.76,-325.07 1362.73,-321.68 1368.46,-330.59 1372.76,-325.07"/>
</g>
<!-- Node43 -->
<g id="node36" class="node">
<title>Node43</title>
<g id="a_node36"><a xlink:href="smt__response__validation_8h.html" target="_top" xlink:title=" ">
<polygon fill="none" stroke="black" points="708.5,-481.5 708.5,-511.5 859.5,-511.5 859.5,-481.5 708.5,-481.5"/>
<text text-anchor="start" x="716.5" y="-499.5" font-family="Helvetica,sans-Serif" font-size="10.00">solvers/smt2_incremental</text>
<text text-anchor="middle" x="784" y="-488.5" font-family="Helvetica,sans-Serif" font-size="10.00">/smt_response_validation.h</text>
</a>
</g>
</g>
<!-- Node1&#45;&gt;Node43 -->
<g id="edge61" class="edge">
<title>Node1&#45;&gt;Node43</title>
<path fill="none" stroke="midnightblue" d="M710.32,-548.4C724.8,-538.4 741.23,-527.05 754.9,-517.6"/>
<polygon fill="midnightblue" stroke="midnightblue" points="757.2,-520.27 763.44,-511.71 753.22,-514.51 757.2,-520.27"/>
</g>
<!-- Node44 -->
<g id="node37" class="node">
<title>Node44</title>
<g id="a_node37"><a xlink:href="smt__to__smt2__string_8h.html" target="_top" xlink:title="Streaming SMT data structures to a string based output stream.">
<polygon fill="none" stroke="black" points="66.5,-112.5 66.5,-142.5 209.5,-142.5 209.5,-112.5 66.5,-112.5"/>
<text text-anchor="start" x="74.5" y="-130.5" font-family="Helvetica,sans-Serif" font-size="10.00">solvers/smt2_incremental</text>
<text text-anchor="middle" x="138" y="-119.5" font-family="Helvetica,sans-Serif" font-size="10.00">/smt_to_smt2_string.h</text>
</a>
</g>
</g>
<!-- Node1&#45;&gt;Node44 -->
<g id="edge64" class="edge">
<title>Node1&#45;&gt;Node44</title>
<path fill="none" stroke="midnightblue" d="M604.73,-572.45C439.89,-568.09 38,-545.65 38,-430.5 38,-430.5 38,-430.5 38,-367 38,-281.85 92.89,-191.96 121.33,-151.09"/>
<polygon fill="midnightblue" stroke="midnightblue" points="124.37,-152.87 127.3,-142.69 118.66,-148.82 124.37,-152.87"/>
</g>
<!-- Node45 -->
<g id="node38" class="node">
<title>Node45</title>
<g id="a_node38"><a xlink:href="exception__utils_8h.html" target="_top" xlink:title=" ">
<polygon fill="none" stroke="black" points="488.5,-358.5 488.5,-377.5 607.5,-377.5 607.5,-358.5 488.5,-358.5"/>
<text text-anchor="middle" x="548" y="-365.5" font-family="Helvetica,sans-Serif" font-size="10.00">util/exception_utils.h</text>
</a>
</g>
</g>
<!-- Node1&#45;&gt;Node45 -->
<g id="edge67" class="edge">
<title>Node1&#45;&gt;Node45</title>
<path fill="none" stroke="midnightblue" d="M658.55,-548.42C632.72,-506.5 581.4,-423.21 558.95,-386.77"/>
<polygon fill="midnightblue" stroke="midnightblue" points="561.65,-384.48 553.42,-377.8 555.69,-388.15 561.65,-384.48"/>
</g>
<!-- Node46 -->
<g id="node39" class="node">
<title>Node46</title>
<g id="a_node39"><a xlink:href="string__utils_8h.html" target="_top" xlink:title=" ">
<polygon fill="none" stroke="black" points="614,-241 614,-260 712,-260 712,-241 614,-241"/>
<text text-anchor="middle" x="663" y="-248" font-family="Helvetica,sans-Serif" font-size="10.00">util/string_utils.h</text>
</a>
</g>
</g>
<!-- Node1&#45;&gt;Node46 -->
<g id="edge72" class="edge">
<title>Node1&#45;&gt;Node46</title>
<path fill="none" stroke="midnightblue" d="M669.85,-548.25C662.64,-503.04 648.11,-405.21 643,-322 642.46,-313.13 641.33,-310.73 643,-302 645.15,-290.71 649.79,-278.72 654.06,-269.26"/>
<polygon fill="midnightblue" stroke="midnightblue" points="657.26,-270.67 658.41,-260.13 650.95,-267.65 657.26,-270.67"/>
</g>
<!-- Node3 -->
<g id="node3" class="node">
<title>Node3</title>
<g id="a_node3"><a xlink:href="src_2util_2message_8h.html" target="_top" xlink:title=" ">
<polygon fill="none" stroke="black" points="326.5,-358.5 326.5,-377.5 415.5,-377.5 415.5,-358.5 326.5,-358.5"/>
<text text-anchor="middle" x="371" y="-365.5" font-family="Helvetica,sans-Serif" font-size="10.00">util/message.h</text>
</a>
</g>
</g>
<!-- Node2&#45;&gt;Node3 -->
<g id="edge2" class="edge">
<title>Node2&#45;&gt;Node3</title>
<path fill="none" stroke="midnightblue" d="M371,-481.48C371,-458.72 371,-413.7 371,-388.06"/>
<polygon fill="midnightblue" stroke="midnightblue" points="374.5,-387.79 371,-377.79 367.5,-387.79 374.5,-387.79"/>
</g>
<!-- Node6 -->
<g id="node6" class="node">
<title>Node6</title>
<g id="a_node6"><a xlink:title=" ">
<polygon fill="none" stroke="#bfbfbf" points="10,-0.5 10,-19.5 66,-19.5 66,-0.5 10,-0.5"/>
<text text-anchor="middle" x="38" y="-7.5" font-family="Helvetica,sans-Serif" font-size="10.00">sstream</text>
</a>
</g>
</g>
<!-- Node2&#45;&gt;Node6 -->
<g id="edge56" class="edge">
<title>Node2&#45;&gt;Node6</title>
<path fill="none" stroke="midnightblue" d="M299.47,-482.12C191.66,-457.34 0,-393.35 0,-251.5 0,-251.5 0,-251.5 0,-126.5 0,-90.25 17.09,-50.67 28.35,-28.53"/>
<polygon fill="midnightblue" stroke="midnightblue" points="31.46,-30.14 33.03,-19.66 25.27,-26.87 31.46,-30.14"/>
</g>
<!-- Node7 -->
<g id="node7" class="node">
<title>Node7</title>
<g id="a_node7"><a xlink:title=" ">
<polygon fill="none" stroke="#bfbfbf" points="382,-0.5 382,-19.5 426,-19.5 426,-0.5 382,-0.5"/>
<text text-anchor="middle" x="404" y="-7.5" font-family="Helvetica,sans-Serif" font-size="10.00">string</text>
</a>
</g>
</g>
<!-- Node2&#45;&gt;Node7 -->
<g id="edge57" class="edge">
<title>Node2&#45;&gt;Node7</title>
<path fill="none" stroke="midnightblue" d="M332.3,-481.47C313.5,-473.14 291.65,-461.05 276,-445 249.63,-417.97 238,-406.76 238,-369 238,-369 238,-369 238,-126.5 238,-61.9 323.75,-30.49 371.99,-17.94"/>
<polygon fill="midnightblue" stroke="midnightblue" points="373.09,-21.27 381.96,-15.47 371.41,-14.48 373.09,-21.27"/>
</g>
<!-- Node31 -->
<g id="node24" class="node">
<title>Node31</title>
<g id="a_node24"><a xlink:href="piped__process_8h.html" target="_top" xlink:title="Subprocess communication with pipes.">
<polygon fill="none" stroke="black" points="399,-420 399,-439 513,-439 513,-420 399,-420"/>
<text text-anchor="middle" x="456" y="-427" font-family="Helvetica,sans-Serif" font-size="10.00">util/piped_process.h</text>
</a>
</g>
</g>
<!-- Node2&#45;&gt;Node31 -->
<g id="edge33" class="edge">
<title>Node2&#45;&gt;Node31</title>
<path fill="none" stroke="midnightblue" d="M389.44,-481.4C403.35,-470.76 422.39,-456.2 436.54,-445.38"/>
<polygon fill="midnightblue" stroke="midnightblue" points="438.81,-448.05 444.63,-439.19 434.56,-442.49 438.81,-448.05"/>
</g>
<!-- Node32 -->
<g id="node25" class="node">
<title>Node32</title>
<g id="a_node25"><a xlink:href="smt__responses_8h.html" target="_top" xlink:title=" ">
<polygon fill="none" stroke="black" points="712.5,-414.5 712.5,-444.5 855.5,-444.5 855.5,-414.5 712.5,-414.5"/>
<text text-anchor="start" x="720.5" y="-432.5" font-family="Helvetica,sans-Serif" font-size="10.00">solvers/smt2_incremental</text>
<text text-anchor="middle" x="784" y="-421.5" font-family="Helvetica,sans-Serif" font-size="10.00">/ast/smt_responses.h</text>
</a>
</g>
</g>
<!-- Node2&#45;&gt;Node32 -->
<g id="edge36" class="edge">
<title>Node2&#45;&gt;Node32</title>
<path fill="none" stroke="midnightblue" d="M442.94,-484.18C515.26,-472.79 626.6,-455.27 702.23,-443.37"/>
<polygon fill="midnightblue" stroke="midnightblue" points="702.86,-446.81 712.19,-441.8 701.77,-439.9 702.86,-446.81"/>
</g>
<!-- Node41 -->
<g id="node34" class="node">
<title>Node41</title>
<g id="a_node34"><a xlink:title=" ">
<polygon fill="none" stroke="#bfbfbf" points="285,-420 285,-439 343,-439 343,-420 285,-420"/>
<text text-anchor="middle" x="314" y="-427" font-family="Helvetica,sans-Serif" font-size="10.00">memory</text>
</a>
</g>
</g>
<!-- Node2&#45;&gt;Node41 -->
<g id="edge55" class="edge">
<title>Node2&#45;&gt;Node41</title>
<path fill="none" stroke="midnightblue" d="M358.63,-481.4C349.74,-471.26 337.74,-457.57 328.41,-446.94"/>
<polygon fill="midnightblue" stroke="midnightblue" points="330.85,-444.41 321.62,-439.19 325.59,-449.02 330.85,-444.41"/>
</g>
<!-- Node4 -->
<g id="node4" class="node">
<title>Node4</title>
<g id="a_node4"><a xlink:title=" ">
<polygon fill="none" stroke="#bfbfbf" points="652.5,-302.5 652.5,-321.5 717.5,-321.5 717.5,-302.5 652.5,-302.5"/>
<text text-anchor="middle" x="685" y="-309.5" font-family="Helvetica,sans-Serif" font-size="10.00">functional</text>
</a>
</g>
</g>
<!-- Node3&#45;&gt;Node4 -->
<g id="edge3" class="edge">
<title>Node3&#45;&gt;Node4</title>
<path fill="none" stroke="midnightblue" d="M415.66,-359.32C476.03,-348.94 582.96,-330.55 642.31,-320.34"/>
<polygon fill="midnightblue" stroke="midnightblue" points="643.2,-323.74 652.46,-318.6 642.01,-316.84 643.2,-323.74"/>
</g>
<!-- Node5 -->
<g id="node5" class="node">
<title>Node5</title>
<g id="a_node5"><a xlink:title=" ">
<polygon fill="none" stroke="#bfbfbf" points="380,-56.5 380,-75.5 428,-75.5 428,-56.5 380,-56.5"/>
<text text-anchor="middle" x="404" y="-63.5" font-family="Helvetica,sans-Serif" font-size="10.00">iosfwd</text>
</a>
</g>
</g>
<!-- Node3&#45;&gt;Node5 -->
<g id="edge4" class="edge">
<title>Node3&#45;&gt;Node5</title>
<path fill="none" stroke="midnightblue" d="M361.98,-358.34C353.93,-349.93 342.7,-336.36 338,-322 325.97,-285.25 330.81,-272.99 338,-235 348.85,-177.71 378.79,-114.95 394.34,-84.94"/>
<polygon fill="midnightblue" stroke="midnightblue" points="397.62,-86.23 399.19,-75.75 391.43,-82.96 397.62,-86.23"/>
</g>
<!-- Node3&#45;&gt;Node6 -->
<g id="edge5" class="edge">
<title>Node3&#45;&gt;Node6</title>
<path fill="none" stroke="midnightblue" d="M326.44,-363.72C235.7,-354.36 38,-319.14 38,-190 38,-190 38,-190 38,-126.5 38,-92.36 38,-52.55 38,-29.71"/>
<polygon fill="midnightblue" stroke="midnightblue" points="41.5,-29.69 38,-19.69 34.5,-29.69 41.5,-29.69"/>
</g>
<!-- Node3&#45;&gt;Node7 -->
<g id="edge6" class="edge">
<title>Node3&#45;&gt;Node7</title>
<path fill="none" stroke="midnightblue" d="M356.16,-358.3C329.44,-341.39 276,-301.35 276,-251.5 276,-251.5 276,-251.5 276,-126.5 276,-74.71 334.48,-40.16 372.38,-23.21"/>
<polygon fill="midnightblue" stroke="midnightblue" points="374.19,-26.25 382,-19.09 371.43,-19.81 374.19,-26.25"/>
</g>
<!-- Node8 -->
<g id="node8" class="node">
<title>Node8</title>
<g id="a_node8"><a xlink:href="deprecate_8h.html" target="_top" xlink:title=" ">
<polygon fill="none" stroke="black" points="380,-241 380,-260 454,-260 454,-241 380,-241"/>
<text text-anchor="middle" x="417" y="-248" font-family="Helvetica,sans-Serif" font-size="10.00">deprecate.h</text>
</a>
</g>
</g>
<!-- Node3&#45;&gt;Node8 -->
<g id="edge7" class="edge">
<title>Node3&#45;&gt;Node8</title>
<path fill="none" stroke="midnightblue" d="M374.46,-358.32C381.92,-339.59 399.66,-295.05 409.71,-269.79"/>
<polygon fill="midnightblue" stroke="midnightblue" points="413.05,-270.87 413.5,-260.28 406.55,-268.28 413.05,-270.87"/>
</g>
<!-- Node3&#45;&gt;Node9 -->
<g id="edge8" class="edge">
<title>Node3&#45;&gt;Node9</title>
<path fill="none" stroke="midnightblue" d="M368.01,-358.36C360.79,-335.83 344.87,-274.32 371,-235 429.43,-147.07 496.87,-192.72 590,-143 612.07,-131.21 613.47,-120.52 637,-112 701.63,-88.6 902.79,-74.63 993.2,-69.39"/>
<polygon fill="midnightblue" stroke="midnightblue" points="993.62,-72.87 1003.4,-68.8 993.22,-65.88 993.62,-72.87"/>
</g>
<!-- Node12 -->
<g id="node12" class="node">
<title>Node12</title>
<g id="a_node12"><a xlink:href="source__location_8h.html" target="_top" xlink:title=" ">
<polygon fill="none" stroke="black" points="418,-302.5 418,-321.5 520,-321.5 520,-302.5 418,-302.5"/>
<text text-anchor="middle" x="469" y="-309.5" font-family="Helvetica,sans-Serif" font-size="10.00">source_location.h</text>
</a>
</g>
</g>
<!-- Node3&#45;&gt;Node12 -->
<g id="edge13" class="edge">
<title>Node3&#45;&gt;Node12</title>
<path fill="none" stroke="midnightblue" d="M386.75,-358.32C402.32,-349.74 426.38,-336.49 444.46,-326.52"/>
<polygon fill="midnightblue" stroke="midnightblue" points="446.22,-329.55 453.29,-321.65 442.85,-323.42 446.22,-329.55"/>
</g>
<!-- Node9&#45;&gt;Node6 -->
<g id="edge10" class="edge">
<title>Node9&#45;&gt;Node6</title>
<path fill="none" stroke="midnightblue" d="M1003.29,-63.13C850.37,-54.87 237.29,-21.76 76.68,-13.09"/>
<polygon fill="midnightblue" stroke="midnightblue" points="76.51,-9.57 66.33,-12.53 76.13,-16.56 76.51,-9.57"/>
</g>
<!-- Node9&#45;&gt;Node7 -->
<g id="edge11" class="edge">
<title>Node9&#45;&gt;Node7</title>
<path fill="none" stroke="midnightblue" d="M1003.46,-62.06C892.29,-52.59 544.69,-22.98 436.48,-13.77"/>
<polygon fill="midnightblue" stroke="midnightblue" points="436.46,-10.25 426.2,-12.89 435.87,-17.23 436.46,-10.25"/>
</g>
<!-- Node10 -->
<g id="node10" class="node">
<title>Node10</title>
<g id="a_node10"><a xlink:title=" ">
<polygon fill="none" stroke="#bfbfbf" points="1013.5,-0.5 1013.5,-19.5 1062.5,-19.5 1062.5,-0.5 1013.5,-0.5"/>
<text text-anchor="middle" x="1038" y="-7.5" font-family="Helvetica,sans-Serif" font-size="10.00">cstdlib</text>
</a>
</g>
</g>
<!-- Node9&#45;&gt;Node10 -->
<g id="edge9" class="edge">
<title>Node9&#45;&gt;Node10</title>
<path fill="none" stroke="midnightblue" d="M1038,-56.08C1038,-49.01 1038,-38.86 1038,-29.99"/>
<polygon fill="midnightblue" stroke="midnightblue" points="1041.5,-29.75 1038,-19.75 1034.5,-29.75 1041.5,-29.75"/>
</g>
<!-- Node11 -->
<g id="node11" class="node">
<title>Node11</title>
<g id="a_node11"><a xlink:title=" ">
<polygon fill="none" stroke="#bfbfbf" points="1099.5,-0.5 1099.5,-19.5 1168.5,-19.5 1168.5,-0.5 1099.5,-0.5"/>
<text text-anchor="middle" x="1134" y="-7.5" font-family="Helvetica,sans-Serif" font-size="10.00">type_traits</text>
</a>
</g>
</g>
<!-- Node9&#45;&gt;Node11 -->
<g id="edge12" class="edge">
<title>Node9&#45;&gt;Node11</title>
<path fill="none" stroke="midnightblue" d="M1053.42,-56.32C1068.54,-47.82 1091.82,-34.73 1109.47,-24.8"/>
<polygon fill="midnightblue" stroke="midnightblue" points="1111.61,-27.61 1118.61,-19.65 1108.18,-21.51 1111.61,-27.61"/>
</g>
<!-- Node12&#45;&gt;Node7 -->
<g id="edge32" class="edge">
<title>Node12&#45;&gt;Node7</title>
<path fill="none" stroke="midnightblue" d="M470.78,-302.21C473.32,-287.15 476.33,-256.01 463,-235 445.73,-207.77 426.12,-217.92 400,-199 369.93,-177.22 353.08,-176.93 338,-143 322.3,-107.66 319.93,-90.19 338,-56 345.48,-41.85 359.62,-31.32 372.9,-24.01"/>
<polygon fill="midnightblue" stroke="midnightblue" points="374.53,-27.11 381.87,-19.47 371.36,-20.87 374.53,-27.11"/>
</g>
<!-- Node12&#45;&gt;Node8 -->
<g id="edge14" class="edge">
<title>Node12&#45;&gt;Node8</title>
<path fill="none" stroke="midnightblue" d="M461.55,-302.48C453.67,-293.46 441.06,-279.02 431.26,-267.81"/>
<polygon fill="midnightblue" stroke="midnightblue" points="433.65,-265.24 424.44,-260.01 428.38,-269.84 433.65,-265.24"/>
</g>
<!-- Node13 -->
<g id="node13" class="node">
<title>Node13</title>
<g id="a_node13"><a xlink:href="irep_8h.html" target="_top" xlink:title=" ">
<polygon fill="none" stroke="black" points="787,-241 787,-260 831,-260 831,-241 787,-241"/>
<text text-anchor="middle" x="809" y="-248" font-family="Helvetica,sans-Serif" font-size="10.00">irep.h</text>
</a>
</g>
</g>
<!-- Node12&#45;&gt;Node13 -->
<g id="edge15" class="edge">
<title>Node12&#45;&gt;Node13</title>
<path fill="none" stroke="midnightblue" d="M517.71,-302.48C588.21,-290.14 716.78,-267.64 776.68,-257.16"/>
<polygon fill="midnightblue" stroke="midnightblue" points="777.45,-260.57 786.7,-255.4 776.25,-253.68 777.45,-260.57"/>
</g>
<!-- Node30 -->
<g id="node23" class="node">
<title>Node30</title>
<g id="a_node23"><a xlink:title=" ">
<polygon fill="none" stroke="#bfbfbf" points="1077,-241 1077,-260 1133,-260 1133,-241 1077,-241"/>
<text text-anchor="middle" x="1105" y="-248" font-family="Helvetica,sans-Serif" font-size="10.00">optional</text>
</a>
</g>
</g>
<!-- Node12&#45;&gt;Node30 -->
<g id="edge31" class="edge">
<title>Node12&#45;&gt;Node30</title>
<path fill="none" stroke="midnightblue" d="M520.16,-308.03C655.35,-300.07 1015.32,-278.02 1068,-266 1070.84,-265.35 1073.75,-264.53 1076.62,-263.59"/>
<polygon fill="midnightblue" stroke="midnightblue" points="1077.93,-266.84 1086.14,-260.14 1075.55,-260.26 1077.93,-266.84"/>
</g>
<!-- Node13&#45;&gt;Node7 -->
<g id="edge16" class="edge">
<title>Node13&#45;&gt;Node7</title>
<path fill="none" stroke="midnightblue" d="M795.32,-240.85C768.41,-223.95 709.29,-187.49 687,-179 613.2,-150.88 578.29,-187.42 513,-143 474.78,-117 486.44,-90.79 456,-56 446.42,-45.05 434.18,-34.33 423.98,-26.1"/>
<polygon fill="midnightblue" stroke="midnightblue" points="426.02,-23.25 415.99,-19.82 421.69,-28.75 426.02,-23.25"/>
</g>
<!-- Node13&#45;&gt;Node9 -->
<g id="edge18" class="edge">
<title>Node13&#45;&gt;Node9</title>
<path fill="none" stroke="midnightblue" d="M831.02,-245.3C861.61,-238.78 917.94,-224.27 960,-199 990.99,-180.38 1000.78,-174.23 1019,-143 1029.37,-125.23 1034.12,-101.92 1036.27,-85.83"/>
<polygon fill="midnightblue" stroke="midnightblue" points="1039.78,-85.89 1037.42,-75.56 1032.83,-85.11 1039.78,-85.89"/>
</g>
<!-- Node14 -->
<g id="node14" class="node">
<title>Node14</title>
<g id="a_node14"><a xlink:title=" ">
<polygon fill="none" stroke="#bfbfbf" points="631.5,-179.5 631.5,-198.5 678.5,-198.5 678.5,-179.5 631.5,-179.5"/>
<text text-anchor="middle" x="655" y="-186.5" font-family="Helvetica,sans-Serif" font-size="10.00">vector</text>
</a>
</g>
</g>
<!-- Node13&#45;&gt;Node14 -->
<g id="edge17" class="edge">
<title>Node13&#45;&gt;Node14</title>
<path fill="none" stroke="midnightblue" d="M786.94,-240.98C760.63,-230.81 716.49,-213.76 686.58,-202.2"/>
<polygon fill="midnightblue" stroke="midnightblue" points="687.61,-198.85 677.02,-198.51 685.09,-205.38 687.61,-198.85"/>
</g>
<!-- Node15 -->
<g id="node15" class="node">
<title>Node15</title>
<g id="a_node15"><a xlink:href="irep__ids_8h.html" target="_top" xlink:title="util">
<polygon fill="none" stroke="black" points="735,-179.5 735,-198.5 799,-198.5 799,-179.5 735,-179.5"/>
<text text-anchor="middle" x="767" y="-186.5" font-family="Helvetica,sans-Serif" font-size="10.00">irep_ids.h</text>
</a>
</g>
</g>
<!-- Node13&#45;&gt;Node15 -->
<g id="edge19" class="edge">
<title>Node13&#45;&gt;Node15</title>
<path fill="none" stroke="midnightblue" d="M802.98,-240.98C796.74,-232.14 786.83,-218.09 778.98,-206.98"/>
<polygon fill="midnightblue" stroke="midnightblue" points="781.63,-204.66 773.01,-198.51 775.91,-208.7 781.63,-204.66"/>
</g>
<!-- Node25 -->
<g id="node18" class="node">
<title>Node25</title>
<g id="a_node18"><a xlink:href="forward__list__as__map_8h.html" target="_top" xlink:title=" ">
<polygon fill="none" stroke="black" points="823.5,-179.5 823.5,-198.5 950.5,-198.5 950.5,-179.5 823.5,-179.5"/>
<text text-anchor="middle" x="887" y="-186.5" font-family="Helvetica,sans-Serif" font-size="10.00">forward_list_as_map.h</text>
</a>
</g>
</g>
<!-- Node13&#45;&gt;Node25 -->
<g id="edge24" class="edge">
<title>Node13&#45;&gt;Node25</title>
<path fill="none" stroke="midnightblue" d="M820.18,-240.98C832.57,-231.52 852.79,-216.1 867.75,-204.69"/>
<polygon fill="midnightblue" stroke="midnightblue" points="870.02,-207.36 875.85,-198.51 865.77,-201.79 870.02,-207.36"/>
</g>
<!-- Node16 -->
<g id="node16" class="node">
<title>Node16</title>
<g id="a_node16"><a xlink:href="dstring_8h.html" target="_top" xlink:title="Container for C&#45;Strings.">
<polygon fill="none" stroke="red" points="522.5,-118 522.5,-137 581.5,-137 581.5,-118 522.5,-118"/>
<text text-anchor="middle" x="552" y="-125" font-family="Helvetica,sans-Serif" font-size="10.00">dstring.h</text>
</a>
</g>
</g>
<!-- Node15&#45;&gt;Node16 -->
<g id="edge20" class="edge">
<title>Node15&#45;&gt;Node16</title>
<path fill="none" stroke="midnightblue" d="M736.2,-179.48C698.12,-168.94 633.24,-150.98 591.53,-139.44"/>
<polygon fill="midnightblue" stroke="midnightblue" points="592.28,-136.02 581.71,-136.72 590.41,-142.76 592.28,-136.02"/>
</g>
<!-- Node24 -->
<g id="node17" class="node">
<title>Node24</title>
<g id="a_node17"><a xlink:title=" ">
<polygon fill="none" stroke="#bfbfbf" points="676,-118 676,-137 750,-137 750,-118 676,-118"/>
<text text-anchor="middle" x="713" y="-125" font-family="Helvetica,sans-Serif" font-size="10.00">irep_ids.def</text>
</a>
</g>
</g>
<!-- Node15&#45;&gt;Node24 -->
<g id="edge23" class="edge">
<title>Node15&#45;&gt;Node24</title>
<path fill="none" stroke="midnightblue" d="M759.26,-179.48C751,-170.37 737.72,-155.74 727.51,-144.48"/>
<polygon fill="midnightblue" stroke="midnightblue" points="730.03,-142.06 720.72,-137.01 724.85,-146.77 730.03,-142.06"/>
</g>
<!-- Node16&#45;&gt;Node5 -->
<g id="edge21" class="edge">
<title>Node16&#45;&gt;Node5</title>
<path fill="none" stroke="midnightblue" d="M530.8,-117.98C505.63,-107.86 463.46,-90.9 434.72,-79.35"/>
<polygon fill="midnightblue" stroke="midnightblue" points="435.75,-75.99 425.17,-75.51 433.14,-82.49 435.75,-75.99"/>
</g>
<!-- Node16&#45;&gt;Node7 -->
<g id="edge22" class="edge">
<title>Node16&#45;&gt;Node7</title>
<path fill="none" stroke="midnightblue" d="M548.69,-117.96C542.65,-103.42 528.56,-73.69 508,-56 487.18,-38.08 458.14,-26.32 436.03,-19.34"/>
<polygon fill="midnightblue" stroke="midnightblue" points="437,-15.97 426.42,-16.46 434.99,-22.68 437,-15.97"/>
</g>
<!-- Node26 -->
<g id="node19" class="node">
<title>Node26</title>
<g id="a_node19"><a xlink:title=" ">
<polygon fill="none" stroke="#bfbfbf" points="768,-118 768,-137 832,-137 832,-118 768,-118"/>
<text text-anchor="middle" x="800" y="-125" font-family="Helvetica,sans-Serif" font-size="10.00">algorithm</text>
</a>
</g>
</g>
<!-- Node25&#45;&gt;Node26 -->
<g id="edge25" class="edge">
<title>Node25&#45;&gt;Node26</title>
<path fill="none" stroke="midnightblue" d="M874.54,-179.48C860.58,-169.93 837.74,-154.31 821.01,-142.87"/>
<polygon fill="midnightblue" stroke="midnightblue" points="822.67,-139.77 812.44,-137.01 818.72,-145.54 822.67,-139.77"/>
</g>
<!-- Node27 -->
<g id="node20" class="node">
<title>Node27</title>
<g id="a_node20"><a xlink:title=" ">
<polygon fill="none" stroke="#bfbfbf" points="850,-118 850,-137 924,-137 924,-118 850,-118"/>
<text text-anchor="middle" x="887" y="-125" font-family="Helvetica,sans-Serif" font-size="10.00">forward_list</text>
</a>
</g>
</g>
<!-- Node25&#45;&gt;Node27 -->
<g id="edge26" class="edge">
<title>Node25&#45;&gt;Node27</title>
<path fill="none" stroke="midnightblue" d="M887,-179.48C887,-171.08 887,-157.98 887,-147.16"/>
<polygon fill="midnightblue" stroke="midnightblue" points="890.5,-147.01 887,-137.01 883.5,-147.01 890.5,-147.01"/>
</g>
<!-- Node28 -->
<g id="node21" class="node">
<title>Node28</title>
<g id="a_node21"><a xlink:href="as__const_8h.html" target="_top" xlink:title=" ">
<polygon fill="none" stroke="black" points="942,-118 942,-137 1010,-137 1010,-118 942,-118"/>
<text text-anchor="middle" x="976" y="-125" font-family="Helvetica,sans-Serif" font-size="10.00">as_const.h</text>
</a>
</g>
</g>
<!-- Node25&#45;&gt;Node28 -->
<g id="edge27" class="edge">
<title>Node25&#45;&gt;Node28</title>
<path fill="none" stroke="midnightblue" d="M899.75,-179.48C914.03,-169.93 937.4,-154.31 954.51,-142.87"/>
<polygon fill="midnightblue" stroke="midnightblue" points="956.9,-145.48 963.27,-137.01 953.01,-139.66 956.9,-145.48"/>
</g>
<!-- Node29 -->
<g id="node22" class="node">
<title>Node29</title>
<g id="a_node22"><a xlink:href="narrow_8h.html" target="_top" xlink:title=" ">
<polygon fill="none" stroke="black" points="1104.5,-118 1104.5,-137 1163.5,-137 1163.5,-118 1104.5,-118"/>
<text text-anchor="middle" x="1134" y="-125" font-family="Helvetica,sans-Serif" font-size="10.00">narrow.h</text>
</a>
</g>
</g>
<!-- Node25&#45;&gt;Node29 -->
<g id="edge28" class="edge">
<title>Node25&#45;&gt;Node29</title>
<path fill="none" stroke="midnightblue" d="M922.39,-179.48C968,-168.49 1047.06,-149.44 1094.56,-138"/>
<polygon fill="midnightblue" stroke="midnightblue" points="1095.57,-141.36 1104.48,-135.61 1093.93,-134.55 1095.57,-141.36"/>
</g>
<!-- Node29&#45;&gt;Node9 -->
<g id="edge30" class="edge">
<title>Node29&#45;&gt;Node9</title>
<path fill="none" stroke="midnightblue" d="M1120.25,-117.98C1104.63,-108.3 1078.94,-92.37 1060.42,-80.89"/>
<polygon fill="midnightblue" stroke="midnightblue" points="1062.07,-77.8 1051.73,-75.51 1058.38,-83.75 1062.07,-77.8"/>
</g>
<!-- Node29&#45;&gt;Node11 -->
<g id="edge29" class="edge">
<title>Node29&#45;&gt;Node11</title>
<path fill="none" stroke="midnightblue" d="M1134,-117.82C1134,-99.26 1134,-55.34 1134,-29.97"/>
<polygon fill="midnightblue" stroke="midnightblue" points="1137.5,-29.78 1134,-19.78 1130.5,-29.78 1137.5,-29.78"/>
</g>
<!-- Node31&#45;&gt;Node3 -->
<g id="edge34" class="edge">
<title>Node31&#45;&gt;Node3</title>
<path fill="none" stroke="midnightblue" d="M443.82,-419.98C430.19,-410.43 407.87,-394.81 391.53,-383.37"/>
<polygon fill="midnightblue" stroke="midnightblue" points="393.36,-380.38 383.16,-377.51 389.34,-386.11 393.36,-380.38"/>
</g>
<!-- Node31&#45;&gt;Node14 -->
<g id="edge35" class="edge">
<title>Node31&#45;&gt;Node14</title>
<path fill="none" stroke="midnightblue" d="M513.22,-425.08C578.39,-417.69 681.56,-394.49 726,-322 735.24,-306.93 744.7,-276.07 721,-235 712.95,-221.04 698.61,-210.49 685.35,-203.12"/>
<polygon fill="midnightblue" stroke="midnightblue" points="686.92,-199.99 676.43,-198.52 683.72,-206.22 686.92,-199.99"/>
</g>
<!-- Node32&#45;&gt;Node13 -->
<g id="edge37" class="edge">
<title>Node32&#45;&gt;Node13</title>
<path fill="none" stroke="midnightblue" d="M786,-414.31C790.48,-382.63 801.29,-306.11 806.33,-270.42"/>
<polygon fill="midnightblue" stroke="midnightblue" points="809.81,-270.77 807.75,-260.37 802.88,-269.79 809.81,-270.77"/>
</g>
<!-- Node33 -->
<g id="node26" class="node">
<title>Node33</title>
<g id="a_node26"><a xlink:href="smt__terms_8h.html" target="_top" xlink:title=" ">
<polygon fill="none" stroke="black" points="889,-358.5 889,-377.5 967,-377.5 967,-358.5 889,-358.5"/>
<text text-anchor="middle" x="928" y="-365.5" font-family="Helvetica,sans-Serif" font-size="10.00">smt_terms.h</text>
</a>
</g>
</g>
<!-- Node32&#45;&gt;Node33 -->
<g id="edge38" class="edge">
<title>Node32&#45;&gt;Node33</title>
<path fill="none" stroke="midnightblue" d="M818.13,-414.4C842.29,-404.42 874.4,-391.15 897.67,-381.53"/>
<polygon fill="midnightblue" stroke="midnightblue" points="899.14,-384.71 907.05,-377.66 896.47,-378.24 899.14,-384.71"/>
</g>
<!-- Node33&#45;&gt;Node4 -->
<g id="edge52" class="edge">
<title>Node33&#45;&gt;Node4</title>
<path fill="none" stroke="midnightblue" d="M889.5,-358.44C845.45,-348.66 773.54,-332.67 727.78,-322.51"/>
<polygon fill="midnightblue" stroke="midnightblue" points="728.39,-319.06 717.87,-320.3 726.87,-325.89 728.39,-319.06"/>
</g>
<!-- Node33&#45;&gt;Node13 -->
<g id="edge39" class="edge">
<title>Node33&#45;&gt;Node13</title>
<path fill="none" stroke="midnightblue" d="M901.87,-358.46C883.19,-351.24 858.54,-339.29 842,-322 828.02,-307.38 819.1,-285.76 814.11,-270.32"/>
<polygon fill="midnightblue" stroke="midnightblue" points="817.36,-268.95 811.16,-260.36 810.65,-270.94 817.36,-268.95"/>
</g>
<!-- Node34 -->
<g id="node27" class="node">
<title>Node34</title>
<g id="a_node27"><a xlink:href="response__or__error_8h.html" target="_top" xlink:title=" ">
<polygon fill="none" stroke="black" points="1151.5,-235.5 1151.5,-265.5 1294.5,-265.5 1294.5,-235.5 1151.5,-235.5"/>
<text text-anchor="start" x="1159.5" y="-253.5" font-family="Helvetica,sans-Serif" font-size="10.00">solvers/smt2_incremental</text>
<text text-anchor="middle" x="1223" y="-242.5" font-family="Helvetica,sans-Serif" font-size="10.00">/response_or_error.h</text>
</a>
</g>
</g>
<!-- Node33&#45;&gt;Node34 -->
<g id="edge40" class="edge">
<title>Node33&#45;&gt;Node34</title>
<path fill="none" stroke="midnightblue" d="M967.26,-365.26C1033.51,-361.57 1163.67,-350.77 1198,-322 1211.67,-310.55 1217.86,-291.1 1220.67,-275.52"/>
<polygon fill="midnightblue" stroke="midnightblue" points="1224.16,-275.91 1222.13,-265.51 1217.23,-274.9 1224.16,-275.91"/>
</g>
<!-- Node36 -->
<g id="node29" class="node">
<title>Node36</title>
<g id="a_node29"><a xlink:href="smt__index_8h.html" target="_top" xlink:title=" ">
<polygon fill="none" stroke="black" points="850.5,-302.5 850.5,-321.5 927.5,-321.5 927.5,-302.5 850.5,-302.5"/>
<text text-anchor="middle" x="889" y="-309.5" font-family="Helvetica,sans-Serif" font-size="10.00">smt_index.h</text>
</a>
</g>
</g>
<!-- Node33&#45;&gt;Node36 -->
<g id="edge45" class="edge">
<title>Node33&#45;&gt;Node36</title>
<path fill="none" stroke="midnightblue" d="M921.56,-358.08C916.05,-350.46 907.97,-339.26 901.24,-329.94"/>
<polygon fill="midnightblue" stroke="midnightblue" points="904.01,-327.81 895.32,-321.75 898.34,-331.91 904.01,-327.81"/>
</g>
<!-- Node37 -->
<g id="node30" class="node">
<title>Node37</title>
<g id="a_node30"><a xlink:href="smt__sorts_8h.html" target="_top" xlink:title="Data structure for smt sorts.">
<polygon fill="none" stroke="black" points="1115,-302.5 1115,-321.5 1189,-321.5 1189,-302.5 1115,-302.5"/>
<text text-anchor="middle" x="1152" y="-309.5" font-family="Helvetica,sans-Serif" font-size="10.00">smt_sorts.h</text>
</a>
</g>
</g>
<!-- Node33&#45;&gt;Node37 -->
<g id="edge47" class="edge">
<title>Node33&#45;&gt;Node37</title>
<path fill="none" stroke="midnightblue" d="M963.49,-358.44C1002.32,-349.08 1064.66,-334.06 1106.92,-323.87"/>
<polygon fill="midnightblue" stroke="midnightblue" points="1107.77,-327.26 1116.67,-321.52 1106.13,-320.46 1107.77,-327.26"/>
</g>
<!-- Node39 -->
<g id="node32" class="node">
<title>Node39</title>
<g id="a_node32"><a xlink:title=" ">
<polygon fill="none" stroke="#bfbfbf" points="945.5,-302.5 945.5,-321.5 990.5,-321.5 990.5,-302.5 945.5,-302.5"/>
<text text-anchor="middle" x="968" y="-309.5" font-family="Helvetica,sans-Serif" font-size="10.00">utility</text>
</a>
</g>
</g>
<!-- Node33&#45;&gt;Node39 -->
<g id="edge53" class="edge">
<title>Node33&#45;&gt;Node39</title>
<path fill="none" stroke="midnightblue" d="M934.61,-358.08C940.26,-350.46 948.54,-339.26 955.45,-329.94"/>
<polygon fill="midnightblue" stroke="midnightblue" points="958.38,-331.87 961.52,-321.75 952.75,-327.7 958.38,-331.87"/>
</g>
<!-- Node40 -->
<g id="node33" class="node">
<title>Node40</title>
<g id="a_node33"><a xlink:title=" ">
<polygon fill="none" stroke="#bfbfbf" points="1009,-302.5 1009,-321.5 1097,-321.5 1097,-302.5 1009,-302.5"/>
<text text-anchor="middle" x="1053" y="-309.5" font-family="Helvetica,sans-Serif" font-size="10.00">smt_terms.def</text>
</a>
</g>
</g>
<!-- Node33&#45;&gt;Node40 -->
<g id="edge54" class="edge">
<title>Node33&#45;&gt;Node40</title>
<path fill="none" stroke="midnightblue" d="M947.81,-358.44C968.29,-349.6 1000.48,-335.69 1023.86,-325.59"/>
<polygon fill="midnightblue" stroke="midnightblue" points="1025.49,-328.7 1033.29,-321.52 1022.72,-322.27 1025.49,-328.7"/>
</g>
<!-- Node34&#45;&gt;Node7 -->
<g id="edge42" class="edge">
<title>Node34&#45;&gt;Node7</title>
<path fill="none" stroke="midnightblue" d="M1224.52,-235.15C1226.59,-207.85 1227.1,-147.95 1197,-112 1160.51,-68.41 1136.94,-70.6 1082,-56 957.76,-22.99 553.65,-13.57 436.25,-11.5"/>
<polygon fill="midnightblue" stroke="midnightblue" points="436.17,-8 426.12,-11.33 436.05,-15 436.17,-8"/>
</g>
<!-- Node34&#45;&gt;Node9 -->
<g id="edge41" class="edge">
<title>Node34&#45;&gt;Node9</title>
<path fill="none" stroke="midnightblue" d="M1221.84,-235.26C1218.82,-207.61 1208.31,-146.37 1173,-112 1148.69,-88.34 1111.62,-77.11 1082.47,-71.79"/>
<polygon fill="midnightblue" stroke="midnightblue" points="1082.96,-68.33 1072.53,-70.14 1081.82,-75.23 1082.96,-68.33"/>
</g>
<!-- Node34&#45;&gt;Node14 -->
<g id="edge44" class="edge">
<title>Node34&#45;&gt;Node14</title>
<path fill="none" stroke="midnightblue" d="M1151.06,-236.27C1148.01,-235.82 1144.97,-235.39 1142,-235 958.03,-210.62 910.53,-218.67 726,-199 713.77,-197.7 700.38,-196.05 688.56,-194.53"/>
<polygon fill="midnightblue" stroke="midnightblue" points="689.01,-191.06 678.64,-193.24 688.1,-198 689.01,-191.06"/>
</g>
<!-- Node35 -->
<g id="node28" class="node">
<title>Node35</title>
<g id="a_node28"><a xlink:title=" ">
<polygon fill="none" stroke="#bfbfbf" points="1258.5,-179.5 1258.5,-198.5 1309.5,-198.5 1309.5,-179.5 1258.5,-179.5"/>
<text text-anchor="middle" x="1284" y="-186.5" font-family="Helvetica,sans-Serif" font-size="10.00">variant</text>
</a>
</g>
</g>
<!-- Node34&#45;&gt;Node35 -->
<g id="edge43" class="edge">
<title>Node34&#45;&gt;Node35</title>
<path fill="none" stroke="midnightblue" d="M1237.46,-235.4C1246.59,-226.49 1258.42,-214.95 1267.86,-205.74"/>
<polygon fill="midnightblue" stroke="midnightblue" points="1270.41,-208.15 1275.12,-198.66 1265.52,-203.13 1270.41,-208.15"/>
</g>
<!-- Node36&#45;&gt;Node13 -->
<g id="edge46" class="edge">
<title>Node36&#45;&gt;Node13</title>
<path fill="none" stroke="midnightblue" d="M877.54,-302.48C864.83,-293.02 844.09,-277.6 828.75,-266.19"/>
<polygon fill="midnightblue" stroke="midnightblue" points="830.55,-263.17 820.44,-260.01 826.38,-268.79 830.55,-263.17"/>
</g>
<!-- Node37&#45;&gt;Node11 -->
<g id="edge50" class="edge">
<title>Node37&#45;&gt;Node11</title>
<path fill="none" stroke="midnightblue" d="M1189.05,-310.21C1223.69,-307.4 1274.4,-297.67 1304,-266 1330.79,-237.33 1334.88,-214.88 1319,-179 1286.02,-104.5 1201.87,-48.89 1159.37,-24.56"/>
<polygon fill="midnightblue" stroke="midnightblue" points="1160.92,-21.41 1150.49,-19.57 1157.5,-27.52 1160.92,-21.41"/>
</g>
<!-- Node37&#45;&gt;Node13 -->
<g id="edge48" class="edge">
<title>Node37&#45;&gt;Node13</title>
<path fill="none" stroke="midnightblue" d="M1114.86,-303.65C1111.86,-303.08 1108.88,-302.53 1106,-302 1009.77,-284.41 895.62,-265.57 841.1,-256.69"/>
<polygon fill="midnightblue" stroke="midnightblue" points="841.45,-253.2 831.02,-255.05 840.32,-260.11 841.45,-253.2"/>
</g>
<!-- Node37&#45;&gt;Node30 -->
<g id="edge49" class="edge">
<title>Node37&#45;&gt;Node30</title>
<path fill="none" stroke="midnightblue" d="M1145.27,-302.48C1138.22,-293.55 1126.97,-279.31 1118.15,-268.14"/>
<polygon fill="midnightblue" stroke="midnightblue" points="1120.67,-265.69 1111.72,-260.01 1115.17,-270.03 1120.67,-265.69"/>
</g>
<!-- Node38 -->
<g id="node31" class="node">
<title>Node38</title>
<g id="a_node31"><a xlink:title=" ">
<polygon fill="none" stroke="#bfbfbf" points="975.5,-241 975.5,-260 1058.5,-260 1058.5,-241 975.5,-241"/>
<text text-anchor="middle" x="1017" y="-248" font-family="Helvetica,sans-Serif" font-size="10.00">smt_sorts.def</text>
</a>
</g>
</g>
<!-- Node37&#45;&gt;Node38 -->
<g id="edge51" class="edge">
<title>Node37&#45;&gt;Node38</title>
<path fill="none" stroke="midnightblue" d="M1132.66,-302.48C1109.9,-292.45 1071.91,-275.7 1045.71,-264.15"/>
<polygon fill="midnightblue" stroke="midnightblue" points="1046.87,-260.84 1036.31,-260.01 1044.05,-267.24 1046.87,-260.84"/>
</g>
<!-- Node42&#45;&gt;Node5 -->
<g id="edge59" class="edge">
<title>Node42&#45;&gt;Node5</title>
<path fill="none" stroke="midnightblue" d="M1351.84,-302.33C1353.63,-278.63 1355,-212.31 1319,-179 1245.3,-110.82 1192.72,-169.91 1096,-143 1060.46,-133.11 1054.94,-120.33 1019,-112 907.11,-86.05 550.71,-71.99 438.3,-68.11"/>
<polygon fill="midnightblue" stroke="midnightblue" points="438.32,-64.61 428.2,-67.77 438.08,-71.61 438.32,-64.61"/>
</g>
<!-- Node42&#45;&gt;Node30 -->
<g id="edge60" class="edge">
<title>Node42&#45;&gt;Node30</title>
<path fill="none" stroke="midnightblue" d="M1301.3,-302.44C1258.82,-294.61 1196.3,-281.84 1143,-266 1140.42,-265.23 1137.77,-264.38 1135.13,-263.47"/>
<polygon fill="midnightblue" stroke="midnightblue" points="1136.31,-260.17 1125.71,-260.05 1133.92,-266.75 1136.31,-260.17"/>
</g>
<!-- Node43&#45;&gt;Node32 -->
<g id="edge62" class="edge">
<title>Node43&#45;&gt;Node32</title>
<path fill="none" stroke="midnightblue" d="M784,-481.4C784,-473.64 784,-463.81 784,-454.86"/>
<polygon fill="midnightblue" stroke="midnightblue" points="787.5,-454.58 784,-444.58 780.5,-454.58 787.5,-454.58"/>
</g>
<!-- Node43&#45;&gt;Node34 -->
<g id="edge63" class="edge">
<title>Node43&#45;&gt;Node34</title>
<path fill="none" stroke="midnightblue" d="M859.54,-489.39C960.15,-476.81 1135.15,-438.46 1219,-322 1228.51,-308.79 1229.23,-290.32 1227.72,-275.6"/>
<polygon fill="midnightblue" stroke="midnightblue" points="1231.18,-275.08 1226.32,-265.67 1224.25,-276.06 1231.18,-275.08"/>
</g>
<!-- Node44&#45;&gt;Node5 -->
<g id="edge65" class="edge">
<title>Node44&#45;&gt;Node5</title>
<path fill="none" stroke="midnightblue" d="M200.7,-112.47C253.63,-100.64 327.4,-84.13 369.98,-74.61"/>
<polygon fill="midnightblue" stroke="midnightblue" points="370.86,-78 379.85,-72.4 369.33,-71.17 370.86,-78"/>
</g>
<!-- Node44&#45;&gt;Node7 -->
<g id="edge66" class="edge">
<title>Node44&#45;&gt;Node7</title>
<path fill="none" stroke="midnightblue" d="M151.23,-112.4C167.04,-96.38 195.02,-70.57 224,-56 272.2,-31.77 334.37,-19.98 371.6,-14.73"/>
<polygon fill="midnightblue" stroke="midnightblue" points="372.41,-18.15 381.86,-13.36 371.49,-11.21 372.41,-18.15"/>
</g>
<!-- Node45&#45;&gt;Node7 -->
<g id="edge68" class="edge">
<title>Node45&#45;&gt;Node7</title>
<path fill="none" stroke="midnightblue" d="M546.39,-358.26C543.83,-345.46 538.15,-321.08 529,-302 475.99,-191.5 407.81,-192.9 371,-76 368.33,-67.52 368.23,-64.45 371,-56 374.49,-45.34 381.57,-35.12 388.29,-27.12"/>
<polygon fill="midnightblue" stroke="midnightblue" points="390.9,-29.44 394.98,-19.66 385.7,-24.76 390.9,-29.44"/>
</g>
<!-- Node45&#45;&gt;Node9 -->
<g id="edge69" class="edge">
<title>Node45&#45;&gt;Node9</title>
<path fill="none" stroke="midnightblue" d="M550.67,-358.23C563.48,-316.72 620.04,-140.79 667,-112 720.75,-79.04 906.71,-70.19 993.17,-67.84"/>
<polygon fill="midnightblue" stroke="midnightblue" points="993.29,-71.34 1003.2,-67.58 993.11,-64.34 993.29,-71.34"/>
</g>
<!-- Node45&#45;&gt;Node12 -->
<g id="edge70" class="edge">
<title>Node45&#45;&gt;Node12</title>
<path fill="none" stroke="midnightblue" d="M535.31,-358.32C523.1,-349.98 504.42,-337.21 490,-327.35"/>
<polygon fill="midnightblue" stroke="midnightblue" points="491.89,-324.41 481.66,-321.65 487.94,-330.19 491.89,-324.41"/>
</g>
<!-- Node46&#45;&gt;Node7 -->
<g id="edge73" class="edge">
<title>Node46&#45;&gt;Node7</title>
<path fill="none" stroke="midnightblue" d="M639.29,-240.94C601.32,-226.18 526.42,-192.69 480,-143 450.56,-111.48 459.39,-92.86 437,-56 431.09,-46.27 423.65,-35.99 417.34,-27.72"/>
<polygon fill="midnightblue" stroke="midnightblue" points="419.95,-25.38 411.05,-19.65 414.43,-29.69 419.95,-25.38"/>
</g>
<!-- Node46&#45;&gt;Node14 -->
<g id="edge74" class="edge">
<title>Node46&#45;&gt;Node14</title>
<path fill="none" stroke="midnightblue" d="M661.85,-240.98C660.73,-232.58 658.96,-219.48 657.51,-208.66"/>
<polygon fill="midnightblue" stroke="midnightblue" points="660.95,-207.95 656.14,-198.51 654.01,-208.89 660.95,-207.95"/>
</g>
</g>
</svg>
