<?xml version="1.0" encoding="UTF-8" standalone="no"?>
<!DOCTYPE svg PUBLIC "-//W3C//DTD SVG 1.1//EN"
 "http://www.w3.org/Graphics/SVG/1.1/DTD/svg11.dtd">
<!-- Generated by graphviz version 2.43.0 (0)
 -->
<!-- Title: /home/runner/work/cbmc/cbmc/src/goto&#45;symex/solver_hardness.h Pages: 1 -->
<svg width="898pt" height="128pt"
 viewBox="0.00 0.00 898.00 128.00" xmlns="http://www.w3.org/2000/svg" xmlns:xlink="http://www.w3.org/1999/xlink">
<g id="graph0" class="graph" transform="scale(1 1) rotate(0) translate(4 124)">
<title>/home/runner/work/cbmc/cbmc/src/goto&#45;symex/solver_hardness.h</title>
<!-- Node1 -->
<g id="node1" class="node">
<title>Node1</title>
<g id="a_node1"><a xlink:title=" ">
<polygon fill="#bfbfbf" stroke="black" points="386.5,-78.5 386.5,-119.5 544.5,-119.5 544.5,-78.5 386.5,-78.5"/>
<text text-anchor="start" x="394.5" y="-107.5" font-family="Helvetica,sans-Serif" font-size="10.00">/home/runner/work/cbmc</text>
<text text-anchor="start" x="394.5" y="-96.5" font-family="Helvetica,sans-Serif" font-size="10.00">/cbmc/src/goto&#45;symex/solver</text>
<text text-anchor="middle" x="465.5" y="-85.5" font-family="Helvetica,sans-Serif" font-size="10.00">_hardness.h</text>
</a>
</g>
</g>
<!-- Node2 -->
<g id="node2" class="node">
<title>Node2</title>
<g id="a_node2"><a xlink:href="goto__symex__property__decider_8cpp.html" target="_top" xlink:title="Property Decider for Goto&#45;Symex.">
<polygon fill="none" stroke="black" points="0,-0.5 0,-41.5 187,-41.5 187,-0.5 0,-0.5"/>
<text text-anchor="start" x="8" y="-29.5" font-family="Helvetica,sans-Serif" font-size="10.00">/home/runner/work/cbmc</text>
<text text-anchor="start" x="8" y="-18.5" font-family="Helvetica,sans-Serif" font-size="10.00">/cbmc/src/goto&#45;checker</text>
<text text-anchor="middle" x="93.5" y="-7.5" font-family="Helvetica,sans-Serif" font-size="10.00">/goto_symex_property_decider.cpp</text>
</a>
</g>
</g>
<!-- Node1&#45;&gt;Node2 -->
<g id="edge1" class="edge">
<title>Node1&#45;&gt;Node2</title>
<path fill="none" stroke="midnightblue" d="M376.06,-79.73C318.97,-68.06 245.09,-52.97 187.19,-41.14"/>
<polygon fill="midnightblue" stroke="midnightblue" points="375.65,-83.22 386.15,-81.79 377.06,-76.36 375.65,-83.22"/>
</g>
<!-- Node3 -->
<g id="node3" class="node">
<title>Node3</title>
<g id="a_node3"><a xlink:href="multi__path__symex__checker_8cpp.html" target="_top" xlink:title="Goto Checker using Bounded Model Checking.">
<polygon fill="none" stroke="black" points="205,-0.5 205,-41.5 378,-41.5 378,-0.5 205,-0.5"/>
<text text-anchor="start" x="213" y="-29.5" font-family="Helvetica,sans-Serif" font-size="10.00">/home/runner/work/cbmc</text>
<text text-anchor="start" x="213" y="-18.5" font-family="Helvetica,sans-Serif" font-size="10.00">/cbmc/src/goto&#45;checker</text>
<text text-anchor="middle" x="291.5" y="-7.5" font-family="Helvetica,sans-Serif" font-size="10.00">/multi_path_symex_checker.cpp</text>
</a>
</g>
</g>
<!-- Node1&#45;&gt;Node3 -->
<g id="edge2" class="edge">
<title>Node1&#45;&gt;Node3</title>
<path fill="none" stroke="midnightblue" d="M411.31,-74.33C387.16,-63.78 359.07,-51.51 336.16,-41.51"/>
<polygon fill="midnightblue" stroke="midnightblue" points="410.13,-77.63 420.69,-78.43 412.93,-71.22 410.13,-77.63"/>
</g>
<!-- Node4 -->
<g id="node4" class="node">
<title>Node4</title>
<g id="a_node4"><a xlink:href="solver__factory_8cpp.html" target="_top" xlink:title="Solver Factory.">
<polygon fill="none" stroke="black" points="396.5,-0.5 396.5,-41.5 534.5,-41.5 534.5,-0.5 396.5,-0.5"/>
<text text-anchor="start" x="404.5" y="-29.5" font-family="Helvetica,sans-Serif" font-size="10.00">/home/runner/work/cbmc</text>
<text text-anchor="start" x="404.5" y="-18.5" font-family="Helvetica,sans-Serif" font-size="10.00">/cbmc/src/goto&#45;checker</text>
<text text-anchor="middle" x="465.5" y="-7.5" font-family="Helvetica,sans-Serif" font-size="10.00">/solver_factory.cpp</text>
</a>
</g>
</g>
<!-- Node1&#45;&gt;Node4 -->
<g id="edge3" class="edge">
<title>Node1&#45;&gt;Node4</title>
<path fill="none" stroke="midnightblue" d="M465.5,-68.3C465.5,-59.3 465.5,-49.65 465.5,-41.51"/>
<polygon fill="midnightblue" stroke="midnightblue" points="462,-68.43 465.5,-78.43 469,-68.43 462,-68.43"/>
</g>
<!-- Node5 -->
<g id="node5" class="node">
<title>Node5</title>
<g id="a_node5"><a xlink:href="solver__hardness_8cpp.html" target="_top" xlink:title=" ">
<polygon fill="none" stroke="black" points="552.5,-0.5 552.5,-41.5 710.5,-41.5 710.5,-0.5 552.5,-0.5"/>
<text text-anchor="start" x="560.5" y="-29.5" font-family="Helvetica,sans-Serif" font-size="10.00">/home/runner/work/cbmc</text>
<text text-anchor="start" x="560.5" y="-18.5" font-family="Helvetica,sans-Serif" font-size="10.00">/cbmc/src/goto&#45;symex/solver</text>
<text text-anchor="middle" x="631.5" y="-7.5" font-family="Helvetica,sans-Serif" font-size="10.00">_hardness.cpp</text>
</a>
</g>
</g>
<!-- Node1&#45;&gt;Node5 -->
<g id="edge4" class="edge">
<title>Node1&#45;&gt;Node5</title>
<path fill="none" stroke="midnightblue" d="M517.51,-74.19C540.47,-63.67 567.13,-51.47 588.9,-41.51"/>
<polygon fill="midnightblue" stroke="midnightblue" points="515.88,-71.08 508.25,-78.43 518.8,-77.45 515.88,-71.08"/>
</g>
<!-- Node6 -->
<g id="node6" class="node">
<title>Node6</title>
<g id="a_node6"><a xlink:href="symex__target__equation_8cpp.html" target="_top" xlink:title="Symbolic Execution Implementation of functions to build SSA equation.">
<polygon fill="none" stroke="black" points="729,-0.5 729,-41.5 890,-41.5 890,-0.5 729,-0.5"/>
<text text-anchor="start" x="737" y="-29.5" font-family="Helvetica,sans-Serif" font-size="10.00">/home/runner/work/cbmc</text>
<text text-anchor="start" x="737" y="-18.5" font-family="Helvetica,sans-Serif" font-size="10.00">/cbmc/src/goto&#45;symex/symex</text>
<text text-anchor="middle" x="809.5" y="-7.5" font-family="Helvetica,sans-Serif" font-size="10.00">_target_equation.cpp</text>
</a>
</g>
</g>
<!-- Node1&#45;&gt;Node6 -->
<g id="edge5" class="edge">
<title>Node1&#45;&gt;Node6</title>
<path fill="none" stroke="midnightblue" d="M554.62,-78.39C603.34,-67.66 664.74,-54.12 719.5,-42 722.47,-41.34 725.49,-40.67 728.55,-40"/>
<polygon fill="midnightblue" stroke="midnightblue" points="553.75,-75 544.74,-80.57 555.25,-81.83 553.75,-75"/>
</g>
</g>
</svg>
