<?xml version="1.0" encoding="UTF-8" standalone="no"?>
<!DOCTYPE svg PUBLIC "-//W3C//DTD SVG 1.1//EN"
 "http://www.w3.org/Graphics/SVG/1.1/DTD/svg11.dtd">
<!-- Generated by graphviz version 2.43.0 (0)
 -->
<!-- Title: /home/runner/work/cbmc/cbmc/src/cprover/solver_progress.cpp Pages: 1 -->
<svg width="717pt" height="610pt"
 viewBox="0.00 0.00 717.00 610.00" xmlns="http://www.w3.org/2000/svg" xmlns:xlink="http://www.w3.org/1999/xlink">
<g id="graph0" class="graph" transform="scale(1 1) rotate(0) translate(4 606)">
<title>/home/runner/work/cbmc/cbmc/src/cprover/solver_progress.cpp</title>
<!-- Node1 -->
<g id="node1" class="node">
<title>Node1</title>
<g id="a_node1"><a xlink:title=" ">
<polygon fill="#bfbfbf" stroke="black" points="530,-560.5 530,-601.5 668,-601.5 668,-560.5 530,-560.5"/>
<text text-anchor="start" x="538" y="-589.5" font-family="Helvetica,sans-Serif" font-size="10.00">/home/runner/work/cbmc</text>
<text text-anchor="start" x="538" y="-578.5" font-family="Helvetica,sans-Serif" font-size="10.00">/cbmc/src/cprover/solver</text>
<text text-anchor="middle" x="599" y="-567.5" font-family="Helvetica,sans-Serif" font-size="10.00">_progress.cpp</text>
</a>
</g>
</g>
<!-- Node2 -->
<g id="node2" class="node">
<title>Node2</title>
<g id="a_node2"><a xlink:href="solver__progress_8h.html" target="_top" xlink:title=" ">
<polygon fill="none" stroke="black" points="405.5,-504.5 405.5,-523.5 508.5,-523.5 508.5,-504.5 405.5,-504.5"/>
<text text-anchor="middle" x="457" y="-511.5" font-family="Helvetica,sans-Serif" font-size="10.00">solver_progress.h</text>
</a>
</g>
</g>
<!-- Node1&#45;&gt;Node2 -->
<g id="edge1" class="edge">
<title>Node1&#45;&gt;Node2</title>
<path fill="none" stroke="midnightblue" d="M556.4,-560.5C533.37,-549.96 505.57,-537.23 485.23,-527.92"/>
<polygon fill="midnightblue" stroke="midnightblue" points="486.45,-524.63 475.9,-523.65 483.54,-531 486.45,-524.63"/>
</g>
<!-- Node49 -->
<g id="node21" class="node">
<title>Node49</title>
<g id="a_node21"><a xlink:href="console_8h.html" target="_top" xlink:title=" ">
<polygon fill="none" stroke="black" points="567.5,-504.5 567.5,-523.5 630.5,-523.5 630.5,-504.5 567.5,-504.5"/>
<text text-anchor="middle" x="599" y="-511.5" font-family="Helvetica,sans-Serif" font-size="10.00">console.h</text>
</a>
</g>
</g>
<!-- Node1&#45;&gt;Node49 -->
<g id="edge33" class="edge">
<title>Node1&#45;&gt;Node49</title>
<path fill="none" stroke="midnightblue" d="M599,-560.5C599,-552.07 599,-542.24 599,-533.87"/>
<polygon fill="midnightblue" stroke="midnightblue" points="602.5,-533.65 599,-523.65 595.5,-533.65 602.5,-533.65"/>
</g>
<!-- Node50 -->
<g id="node23" class="node">
<title>Node50</title>
<g id="a_node23"><a xlink:title=" ">
<polygon fill="none" stroke="#bfbfbf" points="649,-504.5 649,-523.5 709,-523.5 709,-504.5 649,-504.5"/>
<text text-anchor="middle" x="679" y="-511.5" font-family="Helvetica,sans-Serif" font-size="10.00">iostream</text>
</a>
</g>
</g>
<!-- Node1&#45;&gt;Node50 -->
<g id="edge36" class="edge">
<title>Node1&#45;&gt;Node50</title>
<path fill="none" stroke="midnightblue" d="M623,-560.5C635.03,-550.72 649.37,-539.07 660.53,-530.01"/>
<polygon fill="midnightblue" stroke="midnightblue" points="662.8,-532.67 668.35,-523.65 658.38,-527.24 662.8,-532.67"/>
</g>
<!-- Node3 -->
<g id="node3" class="node">
<title>Node3</title>
<g id="a_node3"><a xlink:href="solver__types_8h.html" target="_top" xlink:title=" ">
<polygon fill="none" stroke="black" points="392,-448.5 392,-467.5 480,-467.5 480,-448.5 392,-448.5"/>
<text text-anchor="middle" x="436" y="-455.5" font-family="Helvetica,sans-Serif" font-size="10.00">solver_types.h</text>
</a>
</g>
</g>
<!-- Node2&#45;&gt;Node3 -->
<g id="edge2" class="edge">
<title>Node2&#45;&gt;Node3</title>
<path fill="none" stroke="midnightblue" d="M453.53,-504.08C450.69,-496.77 446.57,-486.18 443.04,-477.1"/>
<polygon fill="midnightblue" stroke="midnightblue" points="446.29,-475.8 439.4,-467.75 439.77,-478.34 446.29,-475.8"/>
</g>
<!-- Node4 -->
<g id="node4" class="node">
<title>Node4</title>
<g id="a_node4"><a xlink:href="mathematical__expr_8h.html" target="_top" xlink:title=" ">
<polygon fill="none" stroke="black" points="146.5,-392.5 146.5,-411.5 285.5,-411.5 285.5,-392.5 146.5,-392.5"/>
<text text-anchor="middle" x="216" y="-399.5" font-family="Helvetica,sans-Serif" font-size="10.00">util/mathematical_expr.h</text>
</a>
</g>
</g>
<!-- Node3&#45;&gt;Node4 -->
<g id="edge3" class="edge">
<title>Node3&#45;&gt;Node4</title>
<path fill="none" stroke="midnightblue" d="M401.14,-448.44C363.08,-439.1 302.04,-424.12 260.54,-413.93"/>
<polygon fill="midnightblue" stroke="midnightblue" points="261.24,-410.5 250.7,-411.52 259.57,-417.3 261.24,-410.5"/>
</g>
<!-- Node43 -->
<g id="node14" class="node">
<title>Node43</title>
<g id="a_node14"><a xlink:href="std__expr_8h.html" target="_top" xlink:title=" ">
<polygon fill="none" stroke="black" points="223.5,-336.5 223.5,-355.5 290.5,-355.5 290.5,-336.5 223.5,-336.5"/>
<text text-anchor="middle" x="257" y="-343.5" font-family="Helvetica,sans-Serif" font-size="10.00">std_expr.h</text>
</a>
</g>
</g>
<!-- Node3&#45;&gt;Node43 -->
<g id="edge29" class="edge">
<title>Node3&#45;&gt;Node43</title>
<path fill="none" stroke="midnightblue" d="M445.86,-448.28C459.6,-435.08 481.31,-409.7 467,-392 446.52,-366.67 356.16,-354.95 300.86,-350.07"/>
<polygon fill="midnightblue" stroke="midnightblue" points="300.89,-346.56 290.63,-349.21 300.3,-353.53 300.89,-346.56"/>
</g>
<!-- Node28 -->
<g id="node18" class="node">
<title>Node28</title>
<g id="a_node18"><a xlink:title=" ">
<polygon fill="none" stroke="#bfbfbf" points="477.5,-224.5 477.5,-243.5 570.5,-243.5 570.5,-224.5 477.5,-224.5"/>
<text text-anchor="middle" x="524" y="-231.5" font-family="Helvetica,sans-Serif" font-size="10.00">unordered_map</text>
</a>
</g>
</g>
<!-- Node3&#45;&gt;Node28 -->
<g id="edge31" class="edge">
<title>Node3&#45;&gt;Node28</title>
<path fill="none" stroke="midnightblue" d="M448.34,-448.46C459.13,-440.33 474.4,-427.12 483,-412 512.59,-360.01 520.84,-287.92 523.13,-254.03"/>
<polygon fill="midnightblue" stroke="midnightblue" points="526.64,-253.92 523.71,-243.74 519.65,-253.52 526.64,-253.92"/>
</g>
<!-- Node47 -->
<g id="node19" class="node">
<title>Node47</title>
<g id="a_node19"><a xlink:title=" ">
<polygon fill="none" stroke="#bfbfbf" points="304,-392.5 304,-411.5 354,-411.5 354,-392.5 304,-392.5"/>
<text text-anchor="middle" x="329" y="-399.5" font-family="Helvetica,sans-Serif" font-size="10.00">chrono</text>
</a>
</g>
</g>
<!-- Node3&#45;&gt;Node47 -->
<g id="edge30" class="edge">
<title>Node3&#45;&gt;Node47</title>
<path fill="none" stroke="midnightblue" d="M418.81,-448.32C401.65,-439.66 375.05,-426.24 355.25,-416.25"/>
<polygon fill="midnightblue" stroke="midnightblue" points="356.65,-413.04 346.15,-411.65 353.5,-419.28 356.65,-413.04"/>
</g>
<!-- Node48 -->
<g id="node20" class="node">
<title>Node48</title>
<g id="a_node20"><a xlink:title=" ">
<polygon fill="none" stroke="#bfbfbf" points="372,-392.5 372,-411.5 458,-411.5 458,-392.5 372,-392.5"/>
<text text-anchor="middle" x="415" y="-399.5" font-family="Helvetica,sans-Serif" font-size="10.00">unordered_set</text>
</a>
</g>
</g>
<!-- Node3&#45;&gt;Node48 -->
<g id="edge32" class="edge">
<title>Node3&#45;&gt;Node48</title>
<path fill="none" stroke="midnightblue" d="M432.53,-448.08C429.69,-440.77 425.57,-430.18 422.04,-421.1"/>
<polygon fill="midnightblue" stroke="midnightblue" points="425.29,-419.8 418.4,-411.75 418.77,-422.34 425.29,-419.8"/>
</g>
<!-- Node5 -->
<g id="node5" class="node">
<title>Node5</title>
<g id="a_node5"><a xlink:href="mathematical__types_8h.html" target="_top" xlink:title=" ">
<polygon fill="none" stroke="black" points="0,-280.5 0,-299.5 126,-299.5 126,-280.5 0,-280.5"/>
<text text-anchor="middle" x="63" y="-287.5" font-family="Helvetica,sans-Serif" font-size="10.00">mathematical_types.h</text>
</a>
</g>
</g>
<!-- Node4&#45;&gt;Node5 -->
<g id="edge4" class="edge">
<title>Node4&#45;&gt;Node5</title>
<path fill="none" stroke="midnightblue" d="M203.99,-392.37C177.85,-373.57 115.53,-328.77 83.21,-305.53"/>
<polygon fill="midnightblue" stroke="midnightblue" points="85.11,-302.59 74.95,-299.59 81.03,-308.27 85.11,-302.59"/>
</g>
<!-- Node4&#45;&gt;Node43 -->
<g id="edge18" class="edge">
<title>Node4&#45;&gt;Node43</title>
<path fill="none" stroke="midnightblue" d="M222.77,-392.08C228.56,-384.46 237.06,-373.26 244.14,-363.94"/>
<polygon fill="midnightblue" stroke="midnightblue" points="247.1,-365.83 250.36,-355.75 241.52,-361.6 247.1,-365.83"/>
</g>
<!-- Node6 -->
<g id="node6" class="node">
<title>Node6</title>
<g id="a_node6"><a xlink:href="expr__cast_8h.html" target="_top" xlink:title="Templated functions to cast to specific exprt&#45;derived classes.">
<polygon fill="none" stroke="black" points="220.5,-224.5 220.5,-243.5 293.5,-243.5 293.5,-224.5 220.5,-224.5"/>
<text text-anchor="middle" x="257" y="-231.5" font-family="Helvetica,sans-Serif" font-size="10.00">expr_cast.h</text>
</a>
</g>
</g>
<!-- Node5&#45;&gt;Node6 -->
<g id="edge5" class="edge">
<title>Node5&#45;&gt;Node6</title>
<path fill="none" stroke="midnightblue" d="M93.74,-280.44C126.94,-271.2 179.99,-256.44 216.56,-246.26"/>
<polygon fill="midnightblue" stroke="midnightblue" points="217.71,-249.57 226.4,-243.52 215.83,-242.83 217.71,-249.57"/>
</g>
<!-- Node10 -->
<g id="node10" class="node">
<title>Node10</title>
<g id="a_node10"><a xlink:href="src_2util_2invariant_8h.html" target="_top" xlink:title=" ">
<polygon fill="none" stroke="red" points="87.5,-168.5 87.5,-187.5 156.5,-187.5 156.5,-168.5 87.5,-168.5"/>
<text text-anchor="middle" x="122" y="-175.5" font-family="Helvetica,sans-Serif" font-size="10.00">invariant.h</text>
</a>
</g>
</g>
<!-- Node5&#45;&gt;Node10 -->
<g id="edge16" class="edge">
<title>Node5&#45;&gt;Node10</title>
<path fill="none" stroke="midnightblue" d="M67.63,-280.37C77.28,-262.38 99.71,-220.55 112.55,-196.63"/>
<polygon fill="midnightblue" stroke="midnightblue" points="115.75,-198.06 117.39,-187.59 109.58,-194.75 115.75,-198.06"/>
</g>
<!-- Node16 -->
<g id="node12" class="node">
<title>Node16</title>
<g id="a_node12"><a xlink:href="type_8h.html" target="_top" xlink:title=" ">
<polygon fill="none" stroke="red" points="205.5,-112.5 205.5,-131.5 252.5,-131.5 252.5,-112.5 205.5,-112.5"/>
<text text-anchor="middle" x="229" y="-119.5" font-family="Helvetica,sans-Serif" font-size="10.00">type.h</text>
</a>
</g>
</g>
<!-- Node5&#45;&gt;Node16 -->
<g id="edge17" class="edge">
<title>Node5&#45;&gt;Node16</title>
<path fill="none" stroke="midnightblue" d="M61.21,-280.45C57.21,-258.79 49.97,-201.13 78,-168 106.82,-133.94 160.22,-125.01 195.18,-123.02"/>
<polygon fill="midnightblue" stroke="midnightblue" points="195.54,-126.51 205.39,-122.6 195.25,-119.51 195.54,-126.51"/>
</g>
<!-- Node7 -->
<g id="node7" class="node">
<title>Node7</title>
<g id="a_node7"><a xlink:title=" ">
<polygon fill="none" stroke="#bfbfbf" points="213.5,-168.5 213.5,-187.5 270.5,-187.5 270.5,-168.5 213.5,-168.5"/>
<text text-anchor="middle" x="242" y="-175.5" font-family="Helvetica,sans-Serif" font-size="10.00">typeinfo</text>
</a>
</g>
</g>
<!-- Node6&#45;&gt;Node7 -->
<g id="edge6" class="edge">
<title>Node6&#45;&gt;Node7</title>
<path fill="none" stroke="midnightblue" d="M254.52,-224.08C252.51,-216.85 249.61,-206.41 247.11,-197.4"/>
<polygon fill="midnightblue" stroke="midnightblue" points="250.48,-196.45 244.43,-187.75 243.74,-198.32 250.48,-196.45"/>
</g>
<!-- Node8 -->
<g id="node8" class="node">
<title>Node8</title>
<g id="a_node8"><a xlink:title=" ">
<polygon fill="none" stroke="#bfbfbf" points="252.5,-0.5 252.5,-19.5 321.5,-19.5 321.5,-0.5 252.5,-0.5"/>
<text text-anchor="middle" x="287" y="-7.5" font-family="Helvetica,sans-Serif" font-size="10.00">type_traits</text>
</a>
</g>
</g>
<!-- Node6&#45;&gt;Node8 -->
<g id="edge7" class="edge">
<title>Node6&#45;&gt;Node8</title>
<path fill="none" stroke="midnightblue" d="M292.85,-224.4C311.88,-217.81 333.63,-206.59 345,-188 375.84,-137.59 358.09,-107.44 329,-56 322.78,-45 313.35,-34.57 305,-26.52"/>
<polygon fill="midnightblue" stroke="midnightblue" points="307.19,-23.78 297.46,-19.59 302.46,-28.94 307.19,-23.78"/>
</g>
<!-- Node9 -->
<g id="node9" class="node">
<title>Node9</title>
<g id="a_node9"><a xlink:title=" ">
<polygon fill="none" stroke="#bfbfbf" points="270.5,-112.5 270.5,-131.5 335.5,-131.5 335.5,-112.5 270.5,-112.5"/>
<text text-anchor="middle" x="303" y="-119.5" font-family="Helvetica,sans-Serif" font-size="10.00">functional</text>
</a>
</g>
</g>
<!-- Node6&#45;&gt;Node9 -->
<g id="edge8" class="edge">
<title>Node6&#45;&gt;Node9</title>
<path fill="none" stroke="midnightblue" d="M240.99,-224.44C220.72,-212.45 190.05,-189.67 204,-168 211.31,-156.65 241.35,-143.94 266.44,-134.93"/>
<polygon fill="midnightblue" stroke="midnightblue" points="267.82,-138.15 276.11,-131.55 265.51,-131.54 267.82,-138.15"/>
</g>
<!-- Node6&#45;&gt;Node10 -->
<g id="edge9" class="edge">
<title>Node6&#45;&gt;Node10</title>
<path fill="none" stroke="midnightblue" d="M235.61,-224.44C213.29,-215.52 178.1,-201.44 152.79,-191.32"/>
<polygon fill="midnightblue" stroke="midnightblue" points="153.88,-187.98 143.29,-187.52 151.28,-194.48 153.88,-187.98"/>
</g>
<!-- Node14 -->
<g id="node11" class="node">
<title>Node14</title>
<g id="a_node11"><a xlink:href="expr_8h.html" target="_top" xlink:title=" ">
<polygon fill="none" stroke="red" points="288.5,-168.5 288.5,-187.5 335.5,-187.5 335.5,-168.5 288.5,-168.5"/>
<text text-anchor="middle" x="312" y="-175.5" font-family="Helvetica,sans-Serif" font-size="10.00">expr.h</text>
</a>
</g>
</g>
<!-- Node6&#45;&gt;Node14 -->
<g id="edge11" class="edge">
<title>Node6&#45;&gt;Node14</title>
<path fill="none" stroke="midnightblue" d="M266.08,-224.08C274.17,-216.14 286.2,-204.34 295.91,-194.8"/>
<polygon fill="midnightblue" stroke="midnightblue" points="298.4,-197.25 303.09,-187.75 293.5,-192.26 298.4,-197.25"/>
</g>
<!-- Node10&#45;&gt;Node8 -->
<g id="edge10" class="edge">
<title>Node10&#45;&gt;Node8</title>
<path fill="none" stroke="midnightblue" d="M130.87,-168.08C157.52,-141.27 237.11,-61.19 271.21,-26.89"/>
<polygon fill="midnightblue" stroke="midnightblue" points="273.92,-29.13 278.48,-19.57 268.95,-24.19 273.92,-29.13"/>
</g>
<!-- Node14&#45;&gt;Node9 -->
<g id="edge15" class="edge">
<title>Node14&#45;&gt;Node9</title>
<path fill="none" stroke="midnightblue" d="M310.51,-168.08C309.32,-160.93 307.61,-150.64 306.12,-141.69"/>
<polygon fill="midnightblue" stroke="midnightblue" points="309.55,-141.04 304.46,-131.75 302.65,-142.19 309.55,-141.04"/>
</g>
<!-- Node14&#45;&gt;Node16 -->
<g id="edge12" class="edge">
<title>Node14&#45;&gt;Node16</title>
<path fill="none" stroke="midnightblue" d="M298.66,-168.32C285.84,-159.98 266.22,-147.21 251.06,-137.35"/>
<polygon fill="midnightblue" stroke="midnightblue" points="252.59,-134.17 242.3,-131.65 248.78,-140.04 252.59,-134.17"/>
</g>
<!-- Node38 -->
<g id="node13" class="node">
<title>Node38</title>
<g id="a_node13"><a xlink:href="validate_8h.html" target="_top" xlink:title=" ">
<polygon fill="none" stroke="red" points="254.5,-56.5 254.5,-75.5 319.5,-75.5 319.5,-56.5 254.5,-56.5"/>
<text text-anchor="middle" x="287" y="-63.5" font-family="Helvetica,sans-Serif" font-size="10.00">validate.h</text>
</a>
</g>
</g>
<!-- Node16&#45;&gt;Node38 -->
<g id="edge13" class="edge">
<title>Node16&#45;&gt;Node38</title>
<path fill="none" stroke="midnightblue" d="M238.32,-112.32C246.89,-104.34 259.81,-92.31 270.19,-82.65"/>
<polygon fill="midnightblue" stroke="midnightblue" points="272.58,-85.21 277.51,-75.83 267.81,-80.09 272.58,-85.21"/>
</g>
<!-- Node38&#45;&gt;Node8 -->
<g id="edge14" class="edge">
<title>Node38&#45;&gt;Node8</title>
<path fill="none" stroke="midnightblue" d="M287,-56.08C287,-49.01 287,-38.86 287,-29.99"/>
<polygon fill="midnightblue" stroke="midnightblue" points="290.5,-29.75 287,-19.75 283.5,-29.75 290.5,-29.75"/>
</g>
<!-- Node43&#45;&gt;Node6 -->
<g id="edge19" class="edge">
<title>Node43&#45;&gt;Node6</title>
<path fill="none" stroke="midnightblue" d="M257,-336.37C257,-318.62 257,-277.67 257,-253.6"/>
<polygon fill="midnightblue" stroke="midnightblue" points="260.5,-253.59 257,-243.59 253.5,-253.59 260.5,-253.59"/>
</g>
<!-- Node43&#45;&gt;Node10 -->
<g id="edge20" class="edge">
<title>Node43&#45;&gt;Node10</title>
<path fill="none" stroke="midnightblue" d="M249.74,-336.08C228.12,-309.49 163.91,-230.54 135.63,-195.76"/>
<polygon fill="midnightblue" stroke="midnightblue" points="137.99,-193.12 128.97,-187.57 132.56,-197.53 137.99,-193.12"/>
</g>
<!-- Node44 -->
<g id="node15" class="node">
<title>Node44</title>
<g id="a_node15"><a xlink:href="std__types_8h.html" target="_top" xlink:title=" ">
<polygon fill="none" stroke="black" points="285.5,-280.5 285.5,-299.5 358.5,-299.5 358.5,-280.5 285.5,-280.5"/>
<text text-anchor="middle" x="322" y="-287.5" font-family="Helvetica,sans-Serif" font-size="10.00">std_types.h</text>
</a>
</g>
</g>
<!-- Node43&#45;&gt;Node44 -->
<g id="edge21" class="edge">
<title>Node43&#45;&gt;Node44</title>
<path fill="none" stroke="midnightblue" d="M267.44,-336.32C277.15,-328.26 291.82,-316.08 303.5,-306.37"/>
<polygon fill="midnightblue" stroke="midnightblue" points="305.91,-308.92 311.37,-299.83 301.44,-303.53 305.91,-308.92"/>
</g>
<!-- Node44&#45;&gt;Node6 -->
<g id="edge23" class="edge">
<title>Node44&#45;&gt;Node6</title>
<path fill="none" stroke="midnightblue" d="M311.56,-280.32C301.85,-272.26 287.18,-260.08 275.5,-250.37"/>
<polygon fill="midnightblue" stroke="midnightblue" points="277.56,-247.53 267.63,-243.83 273.09,-252.92 277.56,-247.53"/>
</g>
<!-- Node44&#45;&gt;Node10 -->
<g id="edge24" class="edge">
<title>Node44&#45;&gt;Node10</title>
<path fill="none" stroke="midnightblue" d="M295.6,-280.37C272.57,-272.36 238.62,-259.37 211,-244 184.95,-229.5 157.63,-208.56 140.25,-194.4"/>
<polygon fill="midnightblue" stroke="midnightblue" points="142.06,-191.36 132.12,-187.69 137.6,-196.76 142.06,-191.36"/>
</g>
<!-- Node44&#45;&gt;Node14 -->
<g id="edge22" class="edge">
<title>Node44&#45;&gt;Node14</title>
<path fill="none" stroke="midnightblue" d="M321.22,-280.37C319.6,-262.62 315.88,-221.67 313.69,-197.6"/>
<polygon fill="midnightblue" stroke="midnightblue" points="317.17,-197.23 312.78,-187.59 310.2,-197.87 317.17,-197.23"/>
</g>
<!-- Node44&#45;&gt;Node38 -->
<g id="edge27" class="edge">
<title>Node44&#45;&gt;Node38</title>
<path fill="none" stroke="midnightblue" d="M326.37,-280.34C339.16,-253.66 373.9,-171 345,-112 338.48,-98.68 325.9,-88.18 314.13,-80.68"/>
<polygon fill="midnightblue" stroke="midnightblue" points="315.78,-77.59 305.39,-75.53 312.23,-83.62 315.78,-77.59"/>
</g>
<!-- Node45 -->
<g id="node16" class="node">
<title>Node45</title>
<g id="a_node16"><a xlink:href="mp__arith_8h.html" target="_top" xlink:title=" ">
<polygon fill="none" stroke="red" points="390.5,-224.5 390.5,-243.5 459.5,-243.5 459.5,-224.5 390.5,-224.5"/>
<text text-anchor="middle" x="425" y="-231.5" font-family="Helvetica,sans-Serif" font-size="10.00">mp_arith.h</text>
</a>
</g>
</g>
<!-- Node44&#45;&gt;Node45 -->
<g id="edge25" class="edge">
<title>Node44&#45;&gt;Node45</title>
<path fill="none" stroke="midnightblue" d="M338.55,-280.32C354.99,-271.7 380.43,-258.36 399.47,-248.39"/>
<polygon fill="midnightblue" stroke="midnightblue" points="401.26,-251.4 408.49,-243.65 398.01,-245.2 401.26,-251.4"/>
</g>
<!-- Node44&#45;&gt;Node28 -->
<g id="edge28" class="edge">
<title>Node44&#45;&gt;Node28</title>
<path fill="none" stroke="midnightblue" d="M354.01,-280.44C388.73,-271.16 444.29,-256.31 482.38,-246.13"/>
<polygon fill="midnightblue" stroke="midnightblue" points="483.39,-249.48 492.14,-243.52 481.58,-242.72 483.39,-249.48"/>
</g>
<!-- Node23 -->
<g id="node17" class="node">
<title>Node23</title>
<g id="a_node17"><a xlink:title=" ">
<polygon fill="none" stroke="#bfbfbf" points="502,-168.5 502,-187.5 550,-187.5 550,-168.5 502,-168.5"/>
<text text-anchor="middle" x="526" y="-175.5" font-family="Helvetica,sans-Serif" font-size="10.00">iosfwd</text>
</a>
</g>
</g>
<!-- Node45&#45;&gt;Node23 -->
<g id="edge26" class="edge">
<title>Node45&#45;&gt;Node23</title>
<path fill="none" stroke="midnightblue" d="M441.23,-224.32C457.35,-215.7 482.3,-202.36 500.96,-192.39"/>
<polygon fill="midnightblue" stroke="midnightblue" points="502.64,-195.46 509.81,-187.65 499.34,-189.28 502.64,-195.46"/>
</g>
<!-- Node49&#45;&gt;Node23 -->
<g id="edge35" class="edge">
<title>Node49&#45;&gt;Node23</title>
<path fill="none" stroke="midnightblue" d="M599,-504.44C599,-485.94 599,-440.81 599,-403 599,-403 599,-403 599,-289 599,-258.9 596.5,-249.17 580,-224 571.98,-211.76 559.62,-201.11 548.75,-193.25"/>
<polygon fill="midnightblue" stroke="midnightblue" points="550.69,-190.33 540.46,-187.56 546.73,-196.11 550.69,-190.33"/>
</g>
<!-- Node25 -->
<g id="node22" class="node">
<title>Node25</title>
<g id="a_node22"><a xlink:title=" ">
<polygon fill="none" stroke="#bfbfbf" points="627.5,-448.5 627.5,-467.5 680.5,-467.5 680.5,-448.5 627.5,-448.5"/>
<text text-anchor="middle" x="654" y="-455.5" font-family="Helvetica,sans-Serif" font-size="10.00">cstddef</text>
</a>
</g>
</g>
<!-- Node49&#45;&gt;Node25 -->
<g id="edge34" class="edge">
<title>Node49&#45;&gt;Node25</title>
<path fill="none" stroke="midnightblue" d="M608.08,-504.08C616.17,-496.14 628.2,-484.34 637.91,-474.8"/>
<polygon fill="midnightblue" stroke="midnightblue" points="640.4,-477.25 645.09,-467.75 635.5,-472.26 640.4,-477.25"/>
</g>
</g>
</svg>
