<?xml version="1.0" encoding="UTF-8" standalone="no"?>
<!DOCTYPE svg PUBLIC "-//W3C//DTD SVG 1.1//EN"
 "http://www.w3.org/Graphics/SVG/1.1/DTD/svg11.dtd">
<!-- Generated by graphviz version 2.43.0 (0)
 -->
<!-- Title: /home/runner/work/cbmc/cbmc/src/goto&#45;instrument/source_lines.h Pages: 1 -->
<svg width="1119pt" height="386pt"
 viewBox="0.00 0.00 1118.50 386.00" xmlns="http://www.w3.org/2000/svg" xmlns:xlink="http://www.w3.org/1999/xlink">
<g id="graph0" class="graph" transform="scale(1 1) rotate(0) translate(4 382)">
<title>/home/runner/work/cbmc/cbmc/src/goto&#45;instrument/source_lines.h</title>
<!-- Node1 -->
<g id="node1" class="node">
<title>Node1</title>
<g id="a_node1"><a xlink:title=" ">
<polygon fill="#bfbfbf" stroke="black" points="922,-336.5 922,-377.5 1067,-377.5 1067,-336.5 922,-336.5"/>
<text text-anchor="start" x="930" y="-365.5" font-family="Helvetica,sans-Serif" font-size="10.00">/home/runner/work/cbmc</text>
<text text-anchor="start" x="930" y="-354.5" font-family="Helvetica,sans-Serif" font-size="10.00">/cbmc/src/goto&#45;instrument</text>
<text text-anchor="middle" x="994.5" y="-343.5" font-family="Helvetica,sans-Serif" font-size="10.00">/source_lines.h</text>
</a>
</g>
</g>
<!-- Node2 -->
<g id="node2" class="node">
<title>Node2</title>
<g id="a_node2"><a xlink:href="irep_8h.html" target="_top" xlink:title=" ">
<polygon fill="none" stroke="black" points="639,-280.5 639,-299.5 702,-299.5 702,-280.5 639,-280.5"/>
<text text-anchor="middle" x="670.5" y="-287.5" font-family="Helvetica,sans-Serif" font-size="10.00">util/irep.h</text>
</a>
</g>
</g>
<!-- Node1&#45;&gt;Node2 -->
<g id="edge1" class="edge">
<title>Node1&#45;&gt;Node2</title>
<path fill="none" stroke="midnightblue" d="M921.79,-341.41C857.25,-328.46 765.2,-310 712.29,-299.38"/>
<polygon fill="midnightblue" stroke="midnightblue" points="712.74,-295.9 702.25,-297.37 711.36,-302.77 712.74,-295.9"/>
</g>
<!-- Node3 -->
<g id="node3" class="node">
<title>Node3</title>
<g id="a_node3"><a xlink:title=" ">
<polygon fill="none" stroke="#bfbfbf" points="669.5,-0.5 669.5,-19.5 713.5,-19.5 713.5,-0.5 669.5,-0.5"/>
<text text-anchor="middle" x="691.5" y="-7.5" font-family="Helvetica,sans-Serif" font-size="10.00">string</text>
</a>
</g>
</g>
<!-- Node1&#45;&gt;Node3 -->
<g id="edge39" class="edge">
<title>Node1&#45;&gt;Node3</title>
<path fill="none" stroke="midnightblue" d="M994.5,-336.3C994.5,-312.35 994.5,-270.71 994.5,-235 994.5,-235 994.5,-235 994.5,-121 994.5,-63.94 802.26,-27.99 724.03,-15.72"/>
<polygon fill="midnightblue" stroke="midnightblue" points="724.2,-12.21 713.78,-14.15 723.13,-19.13 724.2,-12.21"/>
</g>
<!-- Node25 -->
<g id="node25" class="node">
<title>Node25</title>
<g id="a_node25"><a xlink:href="mp__arith_8h.html" target="_top" xlink:title=" ">
<polygon fill="none" stroke="black" points="855.5,-168.5 855.5,-187.5 943.5,-187.5 943.5,-168.5 855.5,-168.5"/>
<text text-anchor="middle" x="899.5" y="-175.5" font-family="Helvetica,sans-Serif" font-size="10.00">util/mp_arith.h</text>
</a>
</g>
</g>
<!-- Node1&#45;&gt;Node25 -->
<g id="edge33" class="edge">
<title>Node1&#45;&gt;Node25</title>
<path fill="none" stroke="midnightblue" d="M983.97,-336.38C965.32,-301.63 926.77,-229.81 908.93,-196.57"/>
<polygon fill="midnightblue" stroke="midnightblue" points="911.92,-194.74 904.11,-187.58 905.75,-198.05 911.92,-194.74"/>
</g>
<!-- Node27 -->
<g id="node27" class="node">
<title>Node27</title>
<g id="a_node27"><a xlink:title=" ">
<polygon fill="none" stroke="#bfbfbf" points="1022.5,-280.5 1022.5,-299.5 1060.5,-299.5 1060.5,-280.5 1022.5,-280.5"/>
<text text-anchor="middle" x="1041.5" y="-287.5" font-family="Helvetica,sans-Serif" font-size="10.00">map</text>
</a>
</g>
</g>
<!-- Node1&#45;&gt;Node27 -->
<g id="edge37" class="edge">
<title>Node1&#45;&gt;Node27</title>
<path fill="none" stroke="midnightblue" d="M1008.6,-336.5C1015.18,-327.39 1022.94,-316.66 1029.27,-307.91"/>
<polygon fill="midnightblue" stroke="midnightblue" points="1032.22,-309.81 1035.24,-299.65 1026.55,-305.71 1032.22,-309.81"/>
</g>
<!-- Node28 -->
<g id="node28" class="node">
<title>Node28</title>
<g id="a_node28"><a xlink:title=" ">
<polygon fill="none" stroke="#bfbfbf" points="1078.5,-280.5 1078.5,-299.5 1110.5,-299.5 1110.5,-280.5 1078.5,-280.5"/>
<text text-anchor="middle" x="1094.5" y="-287.5" font-family="Helvetica,sans-Serif" font-size="10.00">set</text>
</a>
</g>
</g>
<!-- Node1&#45;&gt;Node28 -->
<g id="edge38" class="edge">
<title>Node1&#45;&gt;Node28</title>
<path fill="none" stroke="midnightblue" d="M1024.5,-336.5C1039.98,-326.44 1058.52,-314.38 1072.63,-305.21"/>
<polygon fill="midnightblue" stroke="midnightblue" points="1074.71,-308.04 1081.19,-299.65 1070.9,-302.17 1074.71,-308.04"/>
</g>
<!-- Node2&#45;&gt;Node3 -->
<g id="edge2" class="edge">
<title>Node2&#45;&gt;Node3</title>
<path fill="none" stroke="midnightblue" d="M698.35,-280.48C738.14,-266.37 806.5,-234.12 806.5,-179 806.5,-179 806.5,-179 806.5,-121 806.5,-89.18 798.38,-79.1 776.5,-56 761.78,-40.45 740.47,-29.19 722.88,-21.82"/>
<polygon fill="midnightblue" stroke="midnightblue" points="724.13,-18.55 713.55,-18.12 721.55,-25.06 724.13,-18.55"/>
</g>
<!-- Node4 -->
<g id="node4" class="node">
<title>Node4</title>
<g id="a_node4"><a xlink:title=" ">
<polygon fill="none" stroke="#bfbfbf" points="720,-56.5 720,-75.5 767,-75.5 767,-56.5 720,-56.5"/>
<text text-anchor="middle" x="743.5" y="-63.5" font-family="Helvetica,sans-Serif" font-size="10.00">vector</text>
</a>
</g>
</g>
<!-- Node2&#45;&gt;Node4 -->
<g id="edge3" class="edge">
<title>Node2&#45;&gt;Node4</title>
<path fill="none" stroke="midnightblue" d="M672.43,-280.35C678.33,-254.38 697.25,-174.97 721.5,-112 725.06,-102.77 729.79,-92.86 733.96,-84.69"/>
<polygon fill="midnightblue" stroke="midnightblue" points="737.1,-86.24 738.65,-75.76 730.9,-82.99 737.1,-86.24"/>
</g>
<!-- Node5 -->
<g id="node5" class="node">
<title>Node5</title>
<g id="a_node5"><a xlink:href="src_2util_2invariant_8h.html" target="_top" xlink:title=" ">
<polygon fill="none" stroke="black" points="152,-112.5 152,-131.5 221,-131.5 221,-112.5 152,-112.5"/>
<text text-anchor="middle" x="186.5" y="-119.5" font-family="Helvetica,sans-Serif" font-size="10.00">invariant.h</text>
</a>
</g>
</g>
<!-- Node2&#45;&gt;Node5 -->
<g id="edge4" class="edge">
<title>Node2&#45;&gt;Node5</title>
<path fill="none" stroke="midnightblue" d="M656.28,-280.43C641.35,-271.43 617.22,-256.81 596.5,-244 569.49,-227.31 505.24,-179.12 475.5,-168 392.88,-137.13 289.34,-127.43 231.3,-124.39"/>
<polygon fill="midnightblue" stroke="midnightblue" points="231.16,-120.88 221,-123.89 230.82,-127.87 231.16,-120.88"/>
</g>
<!-- Node9 -->
<g id="node9" class="node">
<title>Node9</title>
<g id="a_node9"><a xlink:href="irep__ids_8h.html" target="_top" xlink:title=" ">
<polygon fill="none" stroke="black" points="605.5,-224.5 605.5,-243.5 669.5,-243.5 669.5,-224.5 605.5,-224.5"/>
<text text-anchor="middle" x="637.5" y="-231.5" font-family="Helvetica,sans-Serif" font-size="10.00">irep_ids.h</text>
</a>
</g>
</g>
<!-- Node2&#45;&gt;Node9 -->
<g id="edge9" class="edge">
<title>Node2&#45;&gt;Node9</title>
<path fill="none" stroke="midnightblue" d="M665.05,-280.08C660.49,-272.61 653.83,-261.72 648.21,-252.52"/>
<polygon fill="midnightblue" stroke="midnightblue" points="651.05,-250.46 642.85,-243.75 645.08,-254.11 651.05,-250.46"/>
</g>
<!-- Node20 -->
<g id="node20" class="node">
<title>Node20</title>
<g id="a_node20"><a xlink:href="forward__list__as__map_8h.html" target="_top" xlink:title=" ">
<polygon fill="none" stroke="black" points="280,-224.5 280,-243.5 407,-243.5 407,-224.5 280,-224.5"/>
<text text-anchor="middle" x="343.5" y="-231.5" font-family="Helvetica,sans-Serif" font-size="10.00">forward_list_as_map.h</text>
</a>
</g>
</g>
<!-- Node2&#45;&gt;Node20 -->
<g id="edge26" class="edge">
<title>Node2&#45;&gt;Node20</title>
<path fill="none" stroke="midnightblue" d="M638.85,-283.77C585,-274.88 474.64,-256.66 405.13,-245.18"/>
<polygon fill="midnightblue" stroke="midnightblue" points="405.62,-241.71 395.18,-243.53 404.48,-248.62 405.62,-241.71"/>
</g>
<!-- Node5&#45;&gt;Node3 -->
<g id="edge7" class="edge">
<title>Node5&#45;&gt;Node3</title>
<path fill="none" stroke="midnightblue" d="M197.29,-112.48C216.17,-98.1 256.96,-69.26 296.5,-56 425.7,-12.67 590.56,-9.41 659.23,-10.19"/>
<polygon fill="midnightblue" stroke="midnightblue" points="659.35,-13.69 669.4,-10.34 659.46,-6.69 659.35,-13.69"/>
</g>
<!-- Node6 -->
<g id="node6" class="node">
<title>Node6</title>
<g id="a_node6"><a xlink:title=" ">
<polygon fill="none" stroke="#bfbfbf" points="162,-56.5 162,-75.5 211,-75.5 211,-56.5 162,-56.5"/>
<text text-anchor="middle" x="186.5" y="-63.5" font-family="Helvetica,sans-Serif" font-size="10.00">cstdlib</text>
</a>
</g>
</g>
<!-- Node5&#45;&gt;Node6 -->
<g id="edge5" class="edge">
<title>Node5&#45;&gt;Node6</title>
<path fill="none" stroke="midnightblue" d="M186.5,-112.08C186.5,-105.01 186.5,-94.86 186.5,-85.99"/>
<polygon fill="midnightblue" stroke="midnightblue" points="190,-85.75 186.5,-75.75 183,-85.75 190,-85.75"/>
</g>
<!-- Node7 -->
<g id="node7" class="node">
<title>Node7</title>
<g id="a_node7"><a xlink:title=" ">
<polygon fill="none" stroke="#bfbfbf" points="87.5,-56.5 87.5,-75.5 143.5,-75.5 143.5,-56.5 87.5,-56.5"/>
<text text-anchor="middle" x="115.5" y="-63.5" font-family="Helvetica,sans-Serif" font-size="10.00">sstream</text>
</a>
</g>
</g>
<!-- Node5&#45;&gt;Node7 -->
<g id="edge6" class="edge">
<title>Node5&#45;&gt;Node7</title>
<path fill="none" stroke="midnightblue" d="M175.09,-112.32C164.39,-104.18 148.16,-91.84 135.34,-82.09"/>
<polygon fill="midnightblue" stroke="midnightblue" points="137.19,-79.1 127.11,-75.83 132.96,-84.67 137.19,-79.1"/>
</g>
<!-- Node8 -->
<g id="node8" class="node">
<title>Node8</title>
<g id="a_node8"><a xlink:title=" ">
<polygon fill="none" stroke="#bfbfbf" points="0,-56.5 0,-75.5 69,-75.5 69,-56.5 0,-56.5"/>
<text text-anchor="middle" x="34.5" y="-63.5" font-family="Helvetica,sans-Serif" font-size="10.00">type_traits</text>
</a>
</g>
</g>
<!-- Node5&#45;&gt;Node8 -->
<g id="edge8" class="edge">
<title>Node5&#45;&gt;Node8</title>
<path fill="none" stroke="midnightblue" d="M162.42,-112.44C136.96,-103.4 96.61,-89.06 68.04,-78.92"/>
<polygon fill="midnightblue" stroke="midnightblue" points="69.07,-75.57 58.47,-75.52 66.72,-82.16 69.07,-75.57"/>
</g>
<!-- Node10 -->
<g id="node10" class="node">
<title>Node10</title>
<g id="a_node10"><a xlink:href="dstring_8h.html" target="_top" xlink:title=" ">
<polygon fill="none" stroke="black" points="523,-168.5 523,-187.5 582,-187.5 582,-168.5 523,-168.5"/>
<text text-anchor="middle" x="552.5" y="-175.5" font-family="Helvetica,sans-Serif" font-size="10.00">dstring.h</text>
</a>
</g>
</g>
<!-- Node9&#45;&gt;Node10 -->
<g id="edge10" class="edge">
<title>Node9&#45;&gt;Node10</title>
<path fill="none" stroke="midnightblue" d="M623.84,-224.32C610.58,-215.9 590.23,-202.97 574.65,-193.07"/>
<polygon fill="midnightblue" stroke="midnightblue" points="576.44,-190.06 566.12,-187.65 572.69,-195.97 576.44,-190.06"/>
</g>
<!-- Node19 -->
<g id="node19" class="node">
<title>Node19</title>
<g id="a_node19"><a xlink:title=" ">
<polygon fill="none" stroke="#bfbfbf" points="600.5,-168.5 600.5,-187.5 674.5,-187.5 674.5,-168.5 600.5,-168.5"/>
<text text-anchor="middle" x="637.5" y="-175.5" font-family="Helvetica,sans-Serif" font-size="10.00">irep_ids.def</text>
</a>
</g>
</g>
<!-- Node9&#45;&gt;Node19 -->
<g id="edge25" class="edge">
<title>Node9&#45;&gt;Node19</title>
<path fill="none" stroke="midnightblue" d="M637.5,-224.08C637.5,-217.01 637.5,-206.86 637.5,-197.99"/>
<polygon fill="midnightblue" stroke="midnightblue" points="641,-197.75 637.5,-187.75 634,-197.75 641,-197.75"/>
</g>
<!-- Node10&#45;&gt;Node3 -->
<g id="edge12" class="edge">
<title>Node10&#45;&gt;Node3</title>
<path fill="none" stroke="midnightblue" d="M568.9,-168.35C595.48,-153.4 647.49,-120.04 672.5,-76 680.66,-61.62 685.59,-43.43 688.38,-29.95"/>
<polygon fill="midnightblue" stroke="midnightblue" points="691.85,-30.39 690.23,-19.92 684.97,-29.11 691.85,-30.39"/>
</g>
<!-- Node10&#45;&gt;Node5 -->
<g id="edge13" class="edge">
<title>Node10&#45;&gt;Node5</title>
<path fill="none" stroke="midnightblue" d="M522.73,-170.65C517.98,-169.71 513.11,-168.79 508.5,-168 410.16,-151.09 294.1,-136.08 231.68,-128.4"/>
<polygon fill="midnightblue" stroke="midnightblue" points="231.75,-124.89 221.4,-127.15 230.9,-131.83 231.75,-124.89"/>
</g>
<!-- Node11 -->
<g id="node11" class="node">
<title>Node11</title>
<g id="a_node11"><a xlink:title=" ">
<polygon fill="none" stroke="#bfbfbf" points="730.5,-112.5 730.5,-131.5 778.5,-131.5 778.5,-112.5 730.5,-112.5"/>
<text text-anchor="middle" x="754.5" y="-119.5" font-family="Helvetica,sans-Serif" font-size="10.00">iosfwd</text>
</a>
</g>
</g>
<!-- Node10&#45;&gt;Node11 -->
<g id="edge11" class="edge">
<title>Node10&#45;&gt;Node11</title>
<path fill="none" stroke="midnightblue" d="M582.31,-169.03C619.18,-159.18 681.81,-142.43 720.51,-132.09"/>
<polygon fill="midnightblue" stroke="midnightblue" points="721.52,-135.44 730.28,-129.48 719.71,-128.68 721.52,-135.44"/>
</g>
<!-- Node12 -->
<g id="node12" class="node">
<title>Node12</title>
<g id="a_node12"><a xlink:href="magic_8h.html" target="_top" xlink:title="Magic numbers used throughout the codebase.">
<polygon fill="none" stroke="black" points="340.5,-112.5 340.5,-131.5 396.5,-131.5 396.5,-112.5 340.5,-112.5"/>
<text text-anchor="middle" x="368.5" y="-119.5" font-family="Helvetica,sans-Serif" font-size="10.00">magic.h</text>
</a>
</g>
</g>
<!-- Node10&#45;&gt;Node12 -->
<g id="edge14" class="edge">
<title>Node10&#45;&gt;Node12</title>
<path fill="none" stroke="midnightblue" d="M523.34,-168.44C491.71,-159.16 441.09,-144.3 406.39,-134.12"/>
<polygon fill="midnightblue" stroke="midnightblue" points="407.19,-130.71 396.61,-131.25 405.22,-137.43 407.19,-130.71"/>
</g>
<!-- Node14 -->
<g id="node14" class="node">
<title>Node14</title>
<g id="a_node14"><a xlink:href="string__container_8h.html" target="_top" xlink:title=" ">
<polygon fill="none" stroke="black" points="507.5,-112.5 507.5,-131.5 611.5,-131.5 611.5,-112.5 507.5,-112.5"/>
<text text-anchor="middle" x="559.5" y="-119.5" font-family="Helvetica,sans-Serif" font-size="10.00">string_container.h</text>
</a>
</g>
</g>
<!-- Node10&#45;&gt;Node14 -->
<g id="edge16" class="edge">
<title>Node10&#45;&gt;Node14</title>
<path fill="none" stroke="midnightblue" d="M553.66,-168.08C554.58,-160.93 555.92,-150.64 557.08,-141.69"/>
<polygon fill="midnightblue" stroke="midnightblue" points="560.55,-142.12 558.37,-131.75 553.61,-141.22 560.55,-142.12"/>
</g>
<!-- Node13 -->
<g id="node13" class="node">
<title>Node13</title>
<g id="a_node13"><a xlink:title=" ">
<polygon fill="none" stroke="#bfbfbf" points="270,-0.5 270,-19.5 323,-19.5 323,-0.5 270,-0.5"/>
<text text-anchor="middle" x="296.5" y="-7.5" font-family="Helvetica,sans-Serif" font-size="10.00">cstddef</text>
</a>
</g>
</g>
<!-- Node12&#45;&gt;Node13 -->
<g id="edge15" class="edge">
<title>Node12&#45;&gt;Node13</title>
<path fill="none" stroke="midnightblue" d="M343,-112.47C326.51,-105.48 306.36,-93.79 296.5,-76 288.72,-61.97 289.58,-43.47 291.89,-29.8"/>
<polygon fill="midnightblue" stroke="midnightblue" points="295.39,-30.15 294,-19.65 288.54,-28.73 295.39,-30.15"/>
</g>
<!-- Node14&#45;&gt;Node4 -->
<g id="edge19" class="edge">
<title>Node14&#45;&gt;Node4</title>
<path fill="none" stroke="midnightblue" d="M588.66,-112.44C621.67,-102.75 675.38,-86.99 710.07,-76.81"/>
<polygon fill="midnightblue" stroke="midnightblue" points="711.14,-80.15 719.75,-73.97 709.17,-73.43 711.14,-80.15"/>
</g>
<!-- Node15 -->
<g id="node15" class="node">
<title>Node15</title>
<g id="a_node15"><a xlink:title=" ">
<polygon fill="none" stroke="#bfbfbf" points="631.5,-56.5 631.5,-75.5 663.5,-75.5 663.5,-56.5 631.5,-56.5"/>
<text text-anchor="middle" x="647.5" y="-63.5" font-family="Helvetica,sans-Serif" font-size="10.00">list</text>
</a>
</g>
</g>
<!-- Node14&#45;&gt;Node15 -->
<g id="edge17" class="edge">
<title>Node14&#45;&gt;Node15</title>
<path fill="none" stroke="midnightblue" d="M573.64,-112.32C587.37,-103.9 608.44,-90.97 624.56,-81.07"/>
<polygon fill="midnightblue" stroke="midnightblue" points="626.7,-83.87 633.4,-75.65 623.04,-77.9 626.7,-83.87"/>
</g>
<!-- Node16 -->
<g id="node16" class="node">
<title>Node16</title>
<g id="a_node16"><a xlink:title=" ">
<polygon fill="none" stroke="#bfbfbf" points="520,-56.5 520,-75.5 613,-75.5 613,-56.5 520,-56.5"/>
<text text-anchor="middle" x="566.5" y="-63.5" font-family="Helvetica,sans-Serif" font-size="10.00">unordered_map</text>
</a>
</g>
</g>
<!-- Node14&#45;&gt;Node16 -->
<g id="edge18" class="edge">
<title>Node14&#45;&gt;Node16</title>
<path fill="none" stroke="midnightblue" d="M560.66,-112.08C561.58,-104.93 562.92,-94.64 564.08,-85.69"/>
<polygon fill="midnightblue" stroke="midnightblue" points="567.55,-86.12 565.37,-75.75 560.61,-85.22 567.55,-86.12"/>
</g>
<!-- Node17 -->
<g id="node17" class="node">
<title>Node17</title>
<g id="a_node17"><a xlink:href="memory__units_8h.html" target="_top" xlink:title=" ">
<polygon fill="none" stroke="black" points="305.5,-56.5 305.5,-75.5 401.5,-75.5 401.5,-56.5 305.5,-56.5"/>
<text text-anchor="middle" x="353.5" y="-63.5" font-family="Helvetica,sans-Serif" font-size="10.00">memory_units.h</text>
</a>
</g>
</g>
<!-- Node14&#45;&gt;Node17 -->
<g id="edge20" class="edge">
<title>Node14&#45;&gt;Node17</title>
<path fill="none" stroke="midnightblue" d="M526.86,-112.44C491.45,-103.16 434.79,-88.31 395.95,-78.13"/>
<polygon fill="midnightblue" stroke="midnightblue" points="396.55,-74.67 385.99,-75.52 394.77,-81.44 396.55,-74.67"/>
</g>
<!-- Node18 -->
<g id="node18" class="node">
<title>Node18</title>
<g id="a_node18"><a xlink:href="string__hash_8h.html" target="_top" xlink:title=" ">
<polygon fill="none" stroke="black" points="419.5,-56.5 419.5,-75.5 501.5,-75.5 501.5,-56.5 419.5,-56.5"/>
<text text-anchor="middle" x="460.5" y="-63.5" font-family="Helvetica,sans-Serif" font-size="10.00">string_hash.h</text>
</a>
</g>
</g>
<!-- Node14&#45;&gt;Node18 -->
<g id="edge23" class="edge">
<title>Node14&#45;&gt;Node18</title>
<path fill="none" stroke="midnightblue" d="M543.59,-112.32C527.86,-103.74 503.56,-90.49 485.29,-80.52"/>
<polygon fill="midnightblue" stroke="midnightblue" points="486.82,-77.37 476.37,-75.65 483.47,-83.52 486.82,-77.37"/>
</g>
<!-- Node17&#45;&gt;Node3 -->
<g id="edge22" class="edge">
<title>Node17&#45;&gt;Node3</title>
<path fill="none" stroke="midnightblue" d="M401.57,-57.32C471.55,-46.14 599.61,-25.68 659.3,-16.15"/>
<polygon fill="midnightblue" stroke="midnightblue" points="659.96,-19.58 669.28,-14.55 658.85,-12.67 659.96,-19.58"/>
</g>
<!-- Node17&#45;&gt;Node13 -->
<g id="edge21" class="edge">
<title>Node17&#45;&gt;Node13</title>
<path fill="none" stroke="midnightblue" d="M344.34,-56.32C336,-48.42 323.47,-36.55 313.32,-26.94"/>
<polygon fill="midnightblue" stroke="midnightblue" points="315.49,-24.17 305.82,-19.83 310.68,-29.25 315.49,-24.17"/>
</g>
<!-- Node18&#45;&gt;Node3 -->
<g id="edge24" class="edge">
<title>Node18&#45;&gt;Node3</title>
<path fill="none" stroke="midnightblue" d="M497.1,-56.44C541.88,-45.98 616.96,-28.42 659.52,-18.47"/>
<polygon fill="midnightblue" stroke="midnightblue" points="660.41,-21.86 669.35,-16.18 658.82,-15.05 660.41,-21.86"/>
</g>
<!-- Node21 -->
<g id="node21" class="node">
<title>Node21</title>
<g id="a_node21"><a xlink:title=" ">
<polygon fill="none" stroke="#bfbfbf" points="224.5,-168.5 224.5,-187.5 288.5,-187.5 288.5,-168.5 224.5,-168.5"/>
<text text-anchor="middle" x="256.5" y="-175.5" font-family="Helvetica,sans-Serif" font-size="10.00">algorithm</text>
</a>
</g>
</g>
<!-- Node20&#45;&gt;Node21 -->
<g id="edge27" class="edge">
<title>Node20&#45;&gt;Node21</title>
<path fill="none" stroke="midnightblue" d="M329.52,-224.32C315.95,-215.9 295.12,-202.97 279.18,-193.07"/>
<polygon fill="midnightblue" stroke="midnightblue" points="280.79,-189.95 270.44,-187.65 277.09,-195.9 280.79,-189.95"/>
</g>
<!-- Node22 -->
<g id="node22" class="node">
<title>Node22</title>
<g id="a_node22"><a xlink:title=" ">
<polygon fill="none" stroke="#bfbfbf" points="306.5,-168.5 306.5,-187.5 380.5,-187.5 380.5,-168.5 306.5,-168.5"/>
<text text-anchor="middle" x="343.5" y="-175.5" font-family="Helvetica,sans-Serif" font-size="10.00">forward_list</text>
</a>
</g>
</g>
<!-- Node20&#45;&gt;Node22 -->
<g id="edge28" class="edge">
<title>Node20&#45;&gt;Node22</title>
<path fill="none" stroke="midnightblue" d="M343.5,-224.08C343.5,-217.01 343.5,-206.86 343.5,-197.99"/>
<polygon fill="midnightblue" stroke="midnightblue" points="347,-197.75 343.5,-187.75 340,-197.75 347,-197.75"/>
</g>
<!-- Node23 -->
<g id="node23" class="node">
<title>Node23</title>
<g id="a_node23"><a xlink:href="as__const_8h.html" target="_top" xlink:title=" ">
<polygon fill="none" stroke="black" points="398.5,-168.5 398.5,-187.5 466.5,-187.5 466.5,-168.5 398.5,-168.5"/>
<text text-anchor="middle" x="432.5" y="-175.5" font-family="Helvetica,sans-Serif" font-size="10.00">as_const.h</text>
</a>
</g>
</g>
<!-- Node20&#45;&gt;Node23 -->
<g id="edge29" class="edge">
<title>Node20&#45;&gt;Node23</title>
<path fill="none" stroke="midnightblue" d="M357.8,-224.32C371.68,-215.9 392.99,-202.97 409.3,-193.07"/>
<polygon fill="midnightblue" stroke="midnightblue" points="411.5,-195.83 418.24,-187.65 407.87,-189.85 411.5,-195.83"/>
</g>
<!-- Node24 -->
<g id="node24" class="node">
<title>Node24</title>
<g id="a_node24"><a xlink:href="narrow_8h.html" target="_top" xlink:title=" ">
<polygon fill="none" stroke="black" points="147,-168.5 147,-187.5 206,-187.5 206,-168.5 147,-168.5"/>
<text text-anchor="middle" x="176.5" y="-175.5" font-family="Helvetica,sans-Serif" font-size="10.00">narrow.h</text>
</a>
</g>
</g>
<!-- Node20&#45;&gt;Node24 -->
<g id="edge30" class="edge">
<title>Node20&#45;&gt;Node24</title>
<path fill="none" stroke="midnightblue" d="M317.04,-224.44C288.82,-215.32 243.96,-200.81 212.53,-190.65"/>
<polygon fill="midnightblue" stroke="midnightblue" points="213.43,-187.26 202.84,-187.52 211.28,-193.92 213.43,-187.26"/>
</g>
<!-- Node24&#45;&gt;Node5 -->
<g id="edge32" class="edge">
<title>Node24&#45;&gt;Node5</title>
<path fill="none" stroke="midnightblue" d="M178.15,-168.08C179.48,-160.93 181.38,-150.64 183.04,-141.69"/>
<polygon fill="midnightblue" stroke="midnightblue" points="186.5,-142.22 184.88,-131.75 179.62,-140.95 186.5,-142.22"/>
</g>
<!-- Node24&#45;&gt;Node8 -->
<g id="edge31" class="edge">
<title>Node24&#45;&gt;Node8</title>
<path fill="none" stroke="midnightblue" d="M165.36,-168.37C141.2,-149.65 83.75,-105.15 53.65,-81.83"/>
<polygon fill="midnightblue" stroke="midnightblue" points="55.64,-78.95 45.59,-75.59 51.35,-84.48 55.64,-78.95"/>
</g>
<!-- Node25&#45;&gt;Node3 -->
<g id="edge35" class="edge">
<title>Node25&#45;&gt;Node3</title>
<path fill="none" stroke="midnightblue" d="M891.89,-168.36C884.29,-159.52 872.47,-145.26 863.5,-132 841.75,-99.86 850.29,-80.88 820.5,-56 792.73,-32.81 752.26,-21.28 724.08,-15.75"/>
<polygon fill="midnightblue" stroke="midnightblue" points="724.4,-12.25 713.94,-13.91 723.15,-19.14 724.4,-12.25"/>
</g>
<!-- Node25&#45;&gt;Node11 -->
<g id="edge34" class="edge">
<title>Node25&#45;&gt;Node11</title>
<path fill="none" stroke="midnightblue" d="M876.52,-168.44C852.34,-159.44 814.08,-145.19 786.85,-135.05"/>
<polygon fill="midnightblue" stroke="midnightblue" points="787.96,-131.73 777.37,-131.52 785.52,-138.29 787.96,-131.73"/>
</g>
<!-- Node26 -->
<g id="node26" class="node">
<title>Node26</title>
<g id="a_node26"><a xlink:title=" ">
<polygon fill="none" stroke="#bfbfbf" points="872.5,-112.5 872.5,-131.5 966.5,-131.5 966.5,-112.5 872.5,-112.5"/>
<text text-anchor="middle" x="919.5" y="-119.5" font-family="Helvetica,sans-Serif" font-size="10.00">big&#45;int/bigint.hh</text>
</a>
</g>
</g>
<!-- Node25&#45;&gt;Node26 -->
<g id="edge36" class="edge">
<title>Node25&#45;&gt;Node26</title>
<path fill="none" stroke="midnightblue" d="M902.8,-168.08C905.48,-160.85 909.35,-150.41 912.69,-141.4"/>
<polygon fill="midnightblue" stroke="midnightblue" points="916.07,-142.34 916.26,-131.75 909.5,-139.91 916.07,-142.34"/>
</g>
</g>
</svg>
