<?xml version="1.0" encoding="UTF-8" standalone="no"?>
<!DOCTYPE svg PUBLIC "-//W3C//DTD SVG 1.1//EN"
 "http://www.w3.org/Graphics/SVG/1.1/DTD/svg11.dtd">
<!-- Generated by graphviz version 2.43.0 (0)
 -->
<!-- Title: /home/runner/work/cbmc/cbmc/src/util/message.cpp Pages: 1 -->
<svg width="1252pt" height="431pt"
 viewBox="0.00 0.00 1252.00 431.00" xmlns="http://www.w3.org/2000/svg" xmlns:xlink="http://www.w3.org/1999/xlink">
<g id="graph0" class="graph" transform="scale(1 1) rotate(0) translate(4 427)">
<title>/home/runner/work/cbmc/cbmc/src/util/message.cpp</title>
<!-- Node1 -->
<g id="node1" class="node">
<title>Node1</title>
<g id="a_node1"><a xlink:title=" ">
<polygon fill="#bfbfbf" stroke="black" points="657.5,-392.5 657.5,-422.5 806.5,-422.5 806.5,-392.5 657.5,-392.5"/>
<text text-anchor="start" x="665.5" y="-410.5" font-family="Helvetica,sans-Serif" font-size="10.00">/home/runner/work/cbmc</text>
<text text-anchor="middle" x="732" y="-399.5" font-family="Helvetica,sans-Serif" font-size="10.00">/cbmc/src/util/message.cpp</text>
</a>
</g>
</g>
<!-- Node2 -->
<g id="node2" class="node">
<title>Node2</title>
<g id="a_node2"><a xlink:href="src_2util_2message_8h.html" target="_top" xlink:title=" ">
<polygon fill="none" stroke="black" points="558,-336.5 558,-355.5 628,-355.5 628,-336.5 558,-336.5"/>
<text text-anchor="middle" x="593" y="-343.5" font-family="Helvetica,sans-Serif" font-size="10.00">message.h</text>
</a>
</g>
</g>
<!-- Node1&#45;&gt;Node2 -->
<g id="edge1" class="edge">
<title>Node1&#45;&gt;Node2</title>
<path fill="none" stroke="midnightblue" d="M699.06,-392.4C675.84,-382.46 645.01,-369.26 622.58,-359.66"/>
<polygon fill="midnightblue" stroke="midnightblue" points="623.8,-356.38 613.23,-355.66 621.04,-362.81 623.8,-356.38"/>
</g>
<!-- Node30 -->
<g id="node25" class="node">
<title>Node30</title>
<g id="a_node25"><a xlink:href="json_8h.html" target="_top" xlink:title=" ">
<polygon fill="none" stroke="black" points="1020,-280.5 1020,-299.5 1066,-299.5 1066,-280.5 1020,-280.5"/>
<text text-anchor="middle" x="1043" y="-287.5" font-family="Helvetica,sans-Serif" font-size="10.00">json.h</text>
</a>
</g>
</g>
<!-- Node1&#45;&gt;Node30 -->
<g id="edge35" class="edge">
<title>Node1&#45;&gt;Node30</title>
<path fill="none" stroke="midnightblue" d="M769.82,-392.45C831.49,-369.55 952.63,-324.56 1010.6,-303.03"/>
<polygon fill="midnightblue" stroke="midnightblue" points="1011.84,-306.3 1020,-299.54 1009.41,-299.74 1011.84,-306.3"/>
</g>
<!-- Node34 -->
<g id="node29" class="node">
<title>Node34</title>
<g id="a_node29"><a xlink:href="string2int_8h.html" target="_top" xlink:title=" ">
<polygon fill="none" stroke="black" points="128,-168.5 128,-187.5 200,-187.5 200,-168.5 128,-168.5"/>
<text text-anchor="middle" x="164" y="-175.5" font-family="Helvetica,sans-Serif" font-size="10.00">string2int.h</text>
</a>
</g>
</g>
<!-- Node1&#45;&gt;Node34 -->
<g id="edge46" class="edge">
<title>Node1&#45;&gt;Node34</title>
<path fill="none" stroke="midnightblue" d="M657.37,-399.74C530.68,-386.9 280.78,-355.21 214,-300 182.42,-273.89 170.53,-224.56 166.25,-197.66"/>
<polygon fill="midnightblue" stroke="midnightblue" points="169.7,-197.05 164.85,-187.63 162.77,-198.02 169.7,-197.05"/>
</g>
<!-- Node35 -->
<g id="node30" class="node">
<title>Node35</title>
<g id="a_node30"><a xlink:href="structured__data_8h.html" target="_top" xlink:title=" ">
<polygon fill="none" stroke="black" points="1066,-336.5 1066,-355.5 1168,-355.5 1168,-336.5 1066,-336.5"/>
<text text-anchor="middle" x="1117" y="-343.5" font-family="Helvetica,sans-Serif" font-size="10.00">structured_data.h</text>
</a>
</g>
</g>
<!-- Node1&#45;&gt;Node35 -->
<g id="edge51" class="edge">
<title>Node1&#45;&gt;Node35</title>
<path fill="none" stroke="midnightblue" d="M806.69,-394.96C879.28,-383.74 988.18,-366.91 1055.8,-356.46"/>
<polygon fill="midnightblue" stroke="midnightblue" points="1056.53,-359.89 1065.88,-354.9 1055.46,-352.97 1056.53,-359.89"/>
</g>
<!-- Node3 -->
<g id="node3" class="node">
<title>Node3</title>
<g id="a_node3"><a xlink:title=" ">
<polygon fill="none" stroke="#bfbfbf" points="634.5,-168.5 634.5,-187.5 699.5,-187.5 699.5,-168.5 634.5,-168.5"/>
<text text-anchor="middle" x="667" y="-175.5" font-family="Helvetica,sans-Serif" font-size="10.00">functional</text>
</a>
</g>
</g>
<!-- Node2&#45;&gt;Node3 -->
<g id="edge2" class="edge">
<title>Node2&#45;&gt;Node3</title>
<path fill="none" stroke="midnightblue" d="M596.98,-336.08C608.68,-309.83 643.13,-232.55 658.92,-197.12"/>
<polygon fill="midnightblue" stroke="midnightblue" points="662.31,-198.13 663.18,-187.57 655.91,-195.28 662.31,-198.13"/>
</g>
<!-- Node4 -->
<g id="node4" class="node">
<title>Node4</title>
<g id="a_node4"><a xlink:title=" ">
<polygon fill="none" stroke="#bfbfbf" points="1016,-56.5 1016,-75.5 1064,-75.5 1064,-56.5 1016,-56.5"/>
<text text-anchor="middle" x="1040" y="-63.5" font-family="Helvetica,sans-Serif" font-size="10.00">iosfwd</text>
</a>
</g>
</g>
<!-- Node2&#45;&gt;Node4 -->
<g id="edge3" class="edge">
<title>Node2&#45;&gt;Node4</title>
<path fill="none" stroke="midnightblue" d="M628.25,-344.53C705.94,-342.85 888.89,-335.17 938,-300 964.18,-281.25 970,-267.2 970,-235 970,-235 970,-235 970,-177 970,-138.23 1001.33,-102.1 1022.07,-82.43"/>
<polygon fill="midnightblue" stroke="midnightblue" points="1024.64,-84.83 1029.67,-75.5 1019.92,-79.65 1024.64,-84.83"/>
</g>
<!-- Node5 -->
<g id="node5" class="node">
<title>Node5</title>
<g id="a_node5"><a xlink:title=" ">
<polygon fill="none" stroke="#bfbfbf" points="7,-0.5 7,-19.5 63,-19.5 63,-0.5 7,-0.5"/>
<text text-anchor="middle" x="35" y="-7.5" font-family="Helvetica,sans-Serif" font-size="10.00">sstream</text>
</a>
</g>
</g>
<!-- Node2&#45;&gt;Node5 -->
<g id="edge4" class="edge">
<title>Node2&#45;&gt;Node5</title>
<path fill="none" stroke="midnightblue" d="M557.68,-342.82C430.02,-333.97 0,-295.53 0,-179 0,-179 0,-179 0,-121 0,-87.07 15.31,-49.91 25.68,-28.63"/>
<polygon fill="midnightblue" stroke="midnightblue" points="28.88,-30.05 30.28,-19.54 22.64,-26.88 28.88,-30.05"/>
</g>
<!-- Node6 -->
<g id="node6" class="node">
<title>Node6</title>
<g id="a_node6"><a xlink:title=" ">
<polygon fill="none" stroke="#bfbfbf" points="750,-0.5 750,-19.5 794,-19.5 794,-0.5 750,-0.5"/>
<text text-anchor="middle" x="772" y="-7.5" font-family="Helvetica,sans-Serif" font-size="10.00">string</text>
</a>
</g>
</g>
<!-- Node2&#45;&gt;Node6 -->
<g id="edge5" class="edge">
<title>Node2&#45;&gt;Node6</title>
<path fill="none" stroke="midnightblue" d="M628.11,-340.91C713.3,-330.03 924,-296.84 924,-235 924,-235 924,-235 924,-177 924,-146.9 921.92,-136.89 905,-112 882.21,-78.47 865.31,-80.48 833,-56 819.46,-45.74 804.06,-34.39 792.13,-25.65"/>
<polygon fill="midnightblue" stroke="midnightblue" points="793.9,-22.61 783.76,-19.54 789.77,-28.26 793.9,-22.61"/>
</g>
<!-- Node7 -->
<g id="node7" class="node">
<title>Node7</title>
<g id="a_node7"><a xlink:href="deprecate_8h.html" target="_top" xlink:title=" ">
<polygon fill="none" stroke="black" points="256,-224.5 256,-243.5 330,-243.5 330,-224.5 256,-224.5"/>
<text text-anchor="middle" x="293" y="-231.5" font-family="Helvetica,sans-Serif" font-size="10.00">deprecate.h</text>
</a>
</g>
</g>
<!-- Node2&#45;&gt;Node7 -->
<g id="edge6" class="edge">
<title>Node2&#45;&gt;Node7</title>
<path fill="none" stroke="midnightblue" d="M569.42,-336.38C544.65,-327.33 504.59,-312.68 470,-300 419.79,-281.59 361.58,-260.21 326.03,-247.14"/>
<polygon fill="midnightblue" stroke="midnightblue" points="326.78,-243.69 316.19,-243.53 324.37,-250.26 326.78,-243.69"/>
</g>
<!-- Node8 -->
<g id="node8" class="node">
<title>Node8</title>
<g id="a_node8"><a xlink:href="src_2util_2invariant_8h.html" target="_top" xlink:title=" ">
<polygon fill="none" stroke="black" points="231.5,-56.5 231.5,-75.5 300.5,-75.5 300.5,-56.5 231.5,-56.5"/>
<text text-anchor="middle" x="266" y="-63.5" font-family="Helvetica,sans-Serif" font-size="10.00">invariant.h</text>
</a>
</g>
</g>
<!-- Node2&#45;&gt;Node8 -->
<g id="edge7" class="edge">
<title>Node2&#45;&gt;Node8</title>
<path fill="none" stroke="midnightblue" d="M557.93,-340.23C477.48,-328.48 283.77,-295.31 247,-244 229.06,-218.97 250.56,-125.67 260.97,-85.54"/>
<polygon fill="midnightblue" stroke="midnightblue" points="264.39,-86.3 263.57,-75.73 257.63,-84.5 264.39,-86.3"/>
</g>
<!-- Node11 -->
<g id="node11" class="node">
<title>Node11</title>
<g id="a_node11"><a xlink:href="source__location_8h.html" target="_top" xlink:title=" ">
<polygon fill="none" stroke="black" points="479,-280.5 479,-299.5 581,-299.5 581,-280.5 479,-280.5"/>
<text text-anchor="middle" x="530" y="-287.5" font-family="Helvetica,sans-Serif" font-size="10.00">source_location.h</text>
</a>
</g>
</g>
<!-- Node2&#45;&gt;Node11 -->
<g id="edge12" class="edge">
<title>Node2&#45;&gt;Node11</title>
<path fill="none" stroke="midnightblue" d="M582.88,-336.32C573.47,-328.26 559.26,-316.08 547.93,-306.37"/>
<polygon fill="midnightblue" stroke="midnightblue" points="550.18,-303.68 540.31,-299.83 545.62,-309 550.18,-303.68"/>
</g>
<!-- Node8&#45;&gt;Node5 -->
<g id="edge9" class="edge">
<title>Node8&#45;&gt;Node5</title>
<path fill="none" stroke="midnightblue" d="M231.42,-56.92C188.91,-46.98 117.03,-30.18 73.02,-19.89"/>
<polygon fill="midnightblue" stroke="midnightblue" points="73.8,-16.48 63.26,-17.61 72.2,-23.29 73.8,-16.48"/>
</g>
<!-- Node8&#45;&gt;Node6 -->
<g id="edge10" class="edge">
<title>Node8&#45;&gt;Node6</title>
<path fill="none" stroke="midnightblue" d="M300.78,-61.29C394.11,-51.33 649.14,-24.11 739.63,-14.46"/>
<polygon fill="midnightblue" stroke="midnightblue" points="740.25,-17.91 749.82,-13.37 739.51,-10.95 740.25,-17.91"/>
</g>
<!-- Node9 -->
<g id="node9" class="node">
<title>Node9</title>
<g id="a_node9"><a xlink:title=" ">
<polygon fill="none" stroke="#bfbfbf" points="241.5,-0.5 241.5,-19.5 290.5,-19.5 290.5,-0.5 241.5,-0.5"/>
<text text-anchor="middle" x="266" y="-7.5" font-family="Helvetica,sans-Serif" font-size="10.00">cstdlib</text>
</a>
</g>
</g>
<!-- Node8&#45;&gt;Node9 -->
<g id="edge8" class="edge">
<title>Node8&#45;&gt;Node9</title>
<path fill="none" stroke="midnightblue" d="M266,-56.08C266,-49.01 266,-38.86 266,-29.99"/>
<polygon fill="midnightblue" stroke="midnightblue" points="269.5,-29.75 266,-19.75 262.5,-29.75 269.5,-29.75"/>
</g>
<!-- Node10 -->
<g id="node10" class="node">
<title>Node10</title>
<g id="a_node10"><a xlink:title=" ">
<polygon fill="none" stroke="#bfbfbf" points="135.5,-0.5 135.5,-19.5 204.5,-19.5 204.5,-0.5 135.5,-0.5"/>
<text text-anchor="middle" x="170" y="-7.5" font-family="Helvetica,sans-Serif" font-size="10.00">type_traits</text>
</a>
</g>
</g>
<!-- Node8&#45;&gt;Node10 -->
<g id="edge11" class="edge">
<title>Node8&#45;&gt;Node10</title>
<path fill="none" stroke="midnightblue" d="M250.58,-56.32C235.46,-47.82 212.18,-34.73 194.53,-24.8"/>
<polygon fill="midnightblue" stroke="midnightblue" points="195.82,-21.51 185.39,-19.65 192.39,-27.61 195.82,-21.51"/>
</g>
<!-- Node11&#45;&gt;Node6 -->
<g id="edge34" class="edge">
<title>Node11&#45;&gt;Node6</title>
<path fill="none" stroke="midnightblue" d="M528.6,-280.46C525.56,-258.82 520.75,-201.2 549,-168 582.34,-128.83 616.14,-160.45 659,-132 696.27,-107.26 694.14,-88.39 725,-56 734.64,-45.88 745.95,-35.03 755.05,-26.52"/>
<polygon fill="midnightblue" stroke="midnightblue" points="757.43,-29.08 762.39,-19.72 752.67,-23.95 757.43,-29.08"/>
</g>
<!-- Node11&#45;&gt;Node7 -->
<g id="edge13" class="edge">
<title>Node11&#45;&gt;Node7</title>
<path fill="none" stroke="midnightblue" d="M492.45,-280.44C451.19,-271.04 384.86,-255.93 340.13,-245.74"/>
<polygon fill="midnightblue" stroke="midnightblue" points="340.91,-242.33 330.38,-243.52 339.35,-249.15 340.91,-242.33"/>
</g>
<!-- Node12 -->
<g id="node12" class="node">
<title>Node12</title>
<g id="a_node12"><a xlink:href="irep_8h.html" target="_top" xlink:title=" ">
<polygon fill="none" stroke="black" points="706,-224.5 706,-243.5 750,-243.5 750,-224.5 706,-224.5"/>
<text text-anchor="middle" x="728" y="-231.5" font-family="Helvetica,sans-Serif" font-size="10.00">irep.h</text>
</a>
</g>
</g>
<!-- Node11&#45;&gt;Node12 -->
<g id="edge14" class="edge">
<title>Node11&#45;&gt;Node12</title>
<path fill="none" stroke="midnightblue" d="M561.37,-280.44C598.25,-270.39 659.11,-253.79 696.18,-243.68"/>
<polygon fill="midnightblue" stroke="midnightblue" points="697.24,-247.02 705.97,-241.01 695.4,-240.26 697.24,-247.02"/>
</g>
<!-- Node29 -->
<g id="node24" class="node">
<title>Node29</title>
<g id="a_node24"><a xlink:title=" ">
<polygon fill="none" stroke="#bfbfbf" points="28,-112.5 28,-131.5 84,-131.5 84,-112.5 28,-112.5"/>
<text text-anchor="middle" x="56" y="-119.5" font-family="Helvetica,sans-Serif" font-size="10.00">optional</text>
</a>
</g>
</g>
<!-- Node11&#45;&gt;Node29 -->
<g id="edge33" class="edge">
<title>Node11&#45;&gt;Node29</title>
<path fill="none" stroke="midnightblue" d="M508.58,-280.4C473.62,-266.67 401.86,-239.72 339,-224 242.88,-199.96 206.81,-233.89 119,-188 97.55,-176.79 79.1,-155.54 67.81,-140.39"/>
<polygon fill="midnightblue" stroke="midnightblue" points="70.4,-137.99 61.74,-131.88 64.71,-142.06 70.4,-137.99"/>
</g>
<!-- Node12&#45;&gt;Node6 -->
<g id="edge15" class="edge">
<title>Node12&#45;&gt;Node6</title>
<path fill="none" stroke="midnightblue" d="M726.43,-224.14C722.13,-197.56 711.91,-116.64 735,-56 739.16,-45.08 747.09,-34.86 754.56,-26.92"/>
<polygon fill="midnightblue" stroke="midnightblue" points="757.08,-29.34 761.7,-19.81 752.14,-24.38 757.08,-29.34"/>
</g>
<!-- Node12&#45;&gt;Node8 -->
<g id="edge17" class="edge">
<title>Node12&#45;&gt;Node8</title>
<path fill="none" stroke="midnightblue" d="M705.93,-231.21C631.99,-225.08 395.91,-204.41 366,-188 363.07,-186.39 305.75,-116 279.24,-83.34"/>
<polygon fill="midnightblue" stroke="midnightblue" points="281.95,-81.12 272.93,-75.56 276.51,-85.53 281.95,-81.12"/>
</g>
<!-- Node13 -->
<g id="node13" class="node">
<title>Node13</title>
<g id="a_node13"><a xlink:title=" ">
<polygon fill="none" stroke="#bfbfbf" points="1144.5,-0.5 1144.5,-19.5 1191.5,-19.5 1191.5,-0.5 1144.5,-0.5"/>
<text text-anchor="middle" x="1168" y="-7.5" font-family="Helvetica,sans-Serif" font-size="10.00">vector</text>
</a>
</g>
</g>
<!-- Node12&#45;&gt;Node13 -->
<g id="edge16" class="edge">
<title>Node12&#45;&gt;Node13</title>
<path fill="none" stroke="midnightblue" d="M750.05,-224.55C805.73,-202.86 955.89,-142.3 1073,-76 1100.32,-60.53 1129.89,-39.57 1148.66,-25.68"/>
<polygon fill="midnightblue" stroke="midnightblue" points="1150.79,-28.45 1156.71,-19.66 1146.6,-22.84 1150.79,-28.45"/>
</g>
<!-- Node14 -->
<g id="node14" class="node">
<title>Node14</title>
<g id="a_node14"><a xlink:href="irep__ids_8h.html" target="_top" xlink:title="util">
<polygon fill="none" stroke="black" points="756,-168.5 756,-187.5 820,-187.5 820,-168.5 756,-168.5"/>
<text text-anchor="middle" x="788" y="-175.5" font-family="Helvetica,sans-Serif" font-size="10.00">irep_ids.h</text>
</a>
</g>
</g>
<!-- Node12&#45;&gt;Node14 -->
<g id="edge18" class="edge">
<title>Node12&#45;&gt;Node14</title>
<path fill="none" stroke="midnightblue" d="M737.64,-224.32C746.51,-216.34 759.87,-204.31 770.61,-194.65"/>
<polygon fill="midnightblue" stroke="midnightblue" points="773.09,-197.13 778.18,-187.83 768.41,-191.92 773.09,-197.13"/>
</g>
<!-- Node24 -->
<g id="node19" class="node">
<title>Node24</title>
<g id="a_node19"><a xlink:href="forward__list__as__map_8h.html" target="_top" xlink:title=" ">
<polygon fill="none" stroke="black" points="374.5,-168.5 374.5,-187.5 501.5,-187.5 501.5,-168.5 374.5,-168.5"/>
<text text-anchor="middle" x="438" y="-175.5" font-family="Helvetica,sans-Serif" font-size="10.00">forward_list_as_map.h</text>
</a>
</g>
</g>
<!-- Node12&#45;&gt;Node24 -->
<g id="edge26" class="edge">
<title>Node12&#45;&gt;Node24</title>
<path fill="none" stroke="midnightblue" d="M705.73,-228.85C660.78,-220.48 558.05,-201.35 493.72,-189.37"/>
<polygon fill="midnightblue" stroke="midnightblue" points="494.21,-185.91 483.74,-187.52 492.93,-192.79 494.21,-185.91"/>
</g>
<!-- Node15 -->
<g id="node15" class="node">
<title>Node15</title>
<g id="a_node15"><a xlink:href="dstring_8h.html" target="_top" xlink:title="Container for C&#45;Strings.">
<polygon fill="none" stroke="black" points="836.5,-112.5 836.5,-131.5 895.5,-131.5 895.5,-112.5 836.5,-112.5"/>
<text text-anchor="middle" x="866" y="-119.5" font-family="Helvetica,sans-Serif" font-size="10.00">dstring.h</text>
</a>
</g>
</g>
<!-- Node14&#45;&gt;Node15 -->
<g id="edge19" class="edge">
<title>Node14&#45;&gt;Node15</title>
<path fill="none" stroke="midnightblue" d="M800.53,-168.32C812.59,-159.98 831.03,-147.21 845.27,-137.35"/>
<polygon fill="midnightblue" stroke="midnightblue" points="847.27,-140.22 853.5,-131.65 843.28,-134.47 847.27,-140.22"/>
</g>
<!-- Node23 -->
<g id="node18" class="node">
<title>Node23</title>
<g id="a_node18"><a xlink:title=" ">
<polygon fill="none" stroke="#bfbfbf" points="744,-112.5 744,-131.5 818,-131.5 818,-112.5 744,-112.5"/>
<text text-anchor="middle" x="781" y="-119.5" font-family="Helvetica,sans-Serif" font-size="10.00">irep_ids.def</text>
</a>
</g>
</g>
<!-- Node14&#45;&gt;Node23 -->
<g id="edge25" class="edge">
<title>Node14&#45;&gt;Node23</title>
<path fill="none" stroke="midnightblue" d="M786.84,-168.08C785.92,-160.93 784.58,-150.64 783.42,-141.69"/>
<polygon fill="midnightblue" stroke="midnightblue" points="786.89,-141.22 782.13,-131.75 779.95,-142.12 786.89,-141.22"/>
</g>
<!-- Node15&#45;&gt;Node4 -->
<g id="edge20" class="edge">
<title>Node15&#45;&gt;Node4</title>
<path fill="none" stroke="midnightblue" d="M893.57,-112.44C924.14,-102.96 973.46,-87.65 1006.3,-77.46"/>
<polygon fill="midnightblue" stroke="midnightblue" points="1007.41,-80.78 1015.92,-74.47 1005.33,-74.09 1007.41,-80.78"/>
</g>
<!-- Node15&#45;&gt;Node6 -->
<g id="edge21" class="edge">
<title>Node15&#45;&gt;Node6</title>
<path fill="none" stroke="midnightblue" d="M858.62,-112.37C842.97,-94.05 806.22,-51.05 785.98,-27.36"/>
<polygon fill="midnightblue" stroke="midnightblue" points="788.5,-24.92 779.34,-19.59 783.18,-29.47 788.5,-24.92"/>
</g>
<!-- Node16 -->
<g id="node16" class="node">
<title>Node16</title>
<g id="a_node16"><a xlink:href="magic_8h.html" target="_top" xlink:title="Magic numbers used throughout the codebase.">
<polygon fill="none" stroke="red" points="744,-56.5 744,-75.5 800,-75.5 800,-56.5 744,-56.5"/>
<text text-anchor="middle" x="772" y="-63.5" font-family="Helvetica,sans-Serif" font-size="10.00">magic.h</text>
</a>
</g>
</g>
<!-- Node15&#45;&gt;Node16 -->
<g id="edge22" class="edge">
<title>Node15&#45;&gt;Node16</title>
<path fill="none" stroke="midnightblue" d="M850.9,-112.32C836.1,-103.82 813.31,-90.73 796.02,-80.8"/>
<polygon fill="midnightblue" stroke="midnightblue" points="797.48,-77.6 787.07,-75.65 793.99,-83.67 797.48,-77.6"/>
</g>
<!-- Node18 -->
<g id="node17" class="node">
<title>Node18</title>
<g id="a_node17"><a xlink:href="string__container_8h.html" target="_top" xlink:title="Container for C&#45;Strings.">
<polygon fill="none" stroke="red" points="894,-56.5 894,-75.5 998,-75.5 998,-56.5 894,-56.5"/>
<text text-anchor="middle" x="946" y="-63.5" font-family="Helvetica,sans-Serif" font-size="10.00">string_container.h</text>
</a>
</g>
</g>
<!-- Node15&#45;&gt;Node18 -->
<g id="edge23" class="edge">
<title>Node15&#45;&gt;Node18</title>
<path fill="none" stroke="midnightblue" d="M878.85,-112.32C891.22,-103.98 910.13,-91.21 924.74,-81.35"/>
<polygon fill="midnightblue" stroke="midnightblue" points="926.85,-84.15 933.18,-75.65 922.93,-78.35 926.85,-84.15"/>
</g>
<!-- Node18&#45;&gt;Node13 -->
<g id="edge24" class="edge">
<title>Node18&#45;&gt;Node13</title>
<path fill="none" stroke="midnightblue" d="M981.18,-56.44C1023.22,-46.22 1093.06,-29.23 1134.39,-19.18"/>
<polygon fill="midnightblue" stroke="midnightblue" points="1135.36,-22.54 1144.25,-16.78 1133.71,-15.74 1135.36,-22.54"/>
</g>
<!-- Node25 -->
<g id="node20" class="node">
<title>Node25</title>
<g id="a_node20"><a xlink:title=" ">
<polygon fill="none" stroke="#bfbfbf" points="494,-112.5 494,-131.5 558,-131.5 558,-112.5 494,-112.5"/>
<text text-anchor="middle" x="526" y="-119.5" font-family="Helvetica,sans-Serif" font-size="10.00">algorithm</text>
</a>
</g>
</g>
<!-- Node24&#45;&gt;Node25 -->
<g id="edge27" class="edge">
<title>Node24&#45;&gt;Node25</title>
<path fill="none" stroke="midnightblue" d="M452.14,-168.32C465.87,-159.9 486.94,-146.97 503.06,-137.07"/>
<polygon fill="midnightblue" stroke="midnightblue" points="505.2,-139.87 511.9,-131.65 501.54,-133.9 505.2,-139.87"/>
</g>
<!-- Node26 -->
<g id="node21" class="node">
<title>Node26</title>
<g id="a_node21"><a xlink:title=" ">
<polygon fill="none" stroke="#bfbfbf" points="576,-112.5 576,-131.5 650,-131.5 650,-112.5 576,-112.5"/>
<text text-anchor="middle" x="613" y="-119.5" font-family="Helvetica,sans-Serif" font-size="10.00">forward_list</text>
</a>
</g>
</g>
<!-- Node24&#45;&gt;Node26 -->
<g id="edge28" class="edge">
<title>Node24&#45;&gt;Node26</title>
<path fill="none" stroke="midnightblue" d="M465.73,-168.44C495.43,-159.28 542.72,-144.69 575.67,-134.52"/>
<polygon fill="midnightblue" stroke="midnightblue" points="576.88,-137.81 585.4,-131.52 574.81,-131.12 576.88,-137.81"/>
</g>
<!-- Node27 -->
<g id="node22" class="node">
<title>Node27</title>
<g id="a_node22"><a xlink:href="as__const_8h.html" target="_top" xlink:title=" ">
<polygon fill="none" stroke="black" points="408,-112.5 408,-131.5 476,-131.5 476,-112.5 408,-112.5"/>
<text text-anchor="middle" x="442" y="-119.5" font-family="Helvetica,sans-Serif" font-size="10.00">as_const.h</text>
</a>
</g>
</g>
<!-- Node24&#45;&gt;Node27 -->
<g id="edge29" class="edge">
<title>Node24&#45;&gt;Node27</title>
<path fill="none" stroke="midnightblue" d="M438.66,-168.08C439.18,-161.01 439.94,-150.86 440.59,-141.99"/>
<polygon fill="midnightblue" stroke="midnightblue" points="444.1,-141.98 441.35,-131.75 437.12,-141.47 444.1,-141.98"/>
</g>
<!-- Node28 -->
<g id="node23" class="node">
<title>Node28</title>
<g id="a_node23"><a xlink:href="narrow_8h.html" target="_top" xlink:title=" ">
<polygon fill="none" stroke="black" points="178.5,-112.5 178.5,-131.5 237.5,-131.5 237.5,-112.5 178.5,-112.5"/>
<text text-anchor="middle" x="208" y="-119.5" font-family="Helvetica,sans-Serif" font-size="10.00">narrow.h</text>
</a>
</g>
</g>
<!-- Node24&#45;&gt;Node28 -->
<g id="edge30" class="edge">
<title>Node24&#45;&gt;Node28</title>
<path fill="none" stroke="midnightblue" d="M401.56,-168.44C359.57,-158.59 290.84,-142.45 247.58,-132.29"/>
<polygon fill="midnightblue" stroke="midnightblue" points="248.23,-128.85 237.69,-129.97 246.63,-135.66 248.23,-128.85"/>
</g>
<!-- Node28&#45;&gt;Node8 -->
<g id="edge32" class="edge">
<title>Node28&#45;&gt;Node8</title>
<path fill="none" stroke="midnightblue" d="M217.32,-112.32C225.89,-104.34 238.81,-92.31 249.19,-82.65"/>
<polygon fill="midnightblue" stroke="midnightblue" points="251.58,-85.21 256.51,-75.83 246.81,-80.09 251.58,-85.21"/>
</g>
<!-- Node28&#45;&gt;Node10 -->
<g id="edge31" class="edge">
<title>Node28&#45;&gt;Node10</title>
<path fill="none" stroke="midnightblue" d="M205.02,-112.37C198.86,-94.54 184.61,-53.3 176.31,-29.27"/>
<polygon fill="midnightblue" stroke="midnightblue" points="179.54,-27.9 172.97,-19.59 172.93,-30.19 179.54,-27.9"/>
</g>
<!-- Node30&#45;&gt;Node4 -->
<g id="edge38" class="edge">
<title>Node30&#45;&gt;Node4</title>
<path fill="none" stroke="midnightblue" d="M1042.88,-280.3C1042.44,-247.63 1040.88,-131.87 1040.26,-85.96"/>
<polygon fill="midnightblue" stroke="midnightblue" points="1043.75,-85.84 1040.12,-75.88 1036.76,-85.93 1043.75,-85.84"/>
</g>
<!-- Node30&#45;&gt;Node6 -->
<g id="edge39" class="edge">
<title>Node30&#45;&gt;Node6</title>
<path fill="none" stroke="midnightblue" d="M1048.35,-280.05C1067.9,-246.08 1131.3,-123.67 1073,-56 1038.55,-16.02 874.61,-11.03 804.23,-10.77"/>
<polygon fill="midnightblue" stroke="midnightblue" points="804.16,-7.27 794.16,-10.77 804.15,-14.27 804.16,-7.27"/>
</g>
<!-- Node30&#45;&gt;Node12 -->
<g id="edge40" class="edge">
<title>Node30&#45;&gt;Node12</title>
<path fill="none" stroke="midnightblue" d="M1019.84,-285.03C964.39,-275.52 823.9,-251.44 760.24,-240.53"/>
<polygon fill="midnightblue" stroke="midnightblue" points="760.8,-237.07 750.35,-238.83 759.62,-243.97 760.8,-237.07"/>
</g>
<!-- Node30&#45;&gt;Node13 -->
<g id="edge36" class="edge">
<title>Node30&#45;&gt;Node13</title>
<path fill="none" stroke="midnightblue" d="M1066.07,-284.81C1088.52,-279.45 1121.69,-267.83 1139,-244 1187.05,-177.83 1177.6,-72.29 1171.26,-29.71"/>
<polygon fill="midnightblue" stroke="midnightblue" points="1174.69,-28.98 1169.65,-19.67 1167.78,-30.1 1174.69,-28.98"/>
</g>
<!-- Node31 -->
<g id="node26" class="node">
<title>Node31</title>
<g id="a_node26"><a xlink:title=" ">
<polygon fill="none" stroke="#bfbfbf" points="1092,-224.5 1092,-243.5 1130,-243.5 1130,-224.5 1092,-224.5"/>
<text text-anchor="middle" x="1111" y="-231.5" font-family="Helvetica,sans-Serif" font-size="10.00">map</text>
</a>
</g>
</g>
<!-- Node30&#45;&gt;Node31 -->
<g id="edge37" class="edge">
<title>Node30&#45;&gt;Node31</title>
<path fill="none" stroke="midnightblue" d="M1053.93,-280.32C1064.17,-272.18 1079.72,-259.84 1092,-250.09"/>
<polygon fill="midnightblue" stroke="midnightblue" points="1094.22,-252.79 1099.88,-243.83 1089.87,-247.31 1094.22,-252.79"/>
</g>
<!-- Node32 -->
<g id="node27" class="node">
<title>Node32</title>
<g id="a_node27"><a xlink:href="range_8h.html" target="_top" xlink:title="Ranges: pair of begin and end iterators, which can be initialized from containers,...">
<polygon fill="none" stroke="black" points="560.5,-224.5 560.5,-243.5 613.5,-243.5 613.5,-224.5 560.5,-224.5"/>
<text text-anchor="middle" x="587" y="-231.5" font-family="Helvetica,sans-Serif" font-size="10.00">range.h</text>
</a>
</g>
</g>
<!-- Node30&#45;&gt;Node32 -->
<g id="edge41" class="edge">
<title>Node30&#45;&gt;Node32</title>
<path fill="none" stroke="midnightblue" d="M1019.76,-286.25C945.56,-277.46 713.95,-250.03 623.61,-239.33"/>
<polygon fill="midnightblue" stroke="midnightblue" points="623.9,-235.85 613.56,-238.15 623.08,-242.8 623.9,-235.85"/>
</g>
<!-- Node32&#45;&gt;Node3 -->
<g id="edge43" class="edge">
<title>Node32&#45;&gt;Node3</title>
<path fill="none" stroke="midnightblue" d="M599.85,-224.32C612.22,-215.98 631.13,-203.21 645.74,-193.35"/>
<polygon fill="midnightblue" stroke="midnightblue" points="647.85,-196.15 654.18,-187.65 643.93,-190.35 647.85,-196.15"/>
</g>
<!-- Node32&#45;&gt;Node8 -->
<g id="edge42" class="edge">
<title>Node32&#45;&gt;Node8</title>
<path fill="none" stroke="midnightblue" d="M560.08,-231.34C501.47,-227.24 364.66,-214.99 328,-188 310.06,-174.79 284.87,-115.29 272.87,-84.93"/>
<polygon fill="midnightblue" stroke="midnightblue" points="276.11,-83.58 269.21,-75.53 269.58,-86.12 276.11,-83.58"/>
</g>
<!-- Node32&#45;&gt;Node10 -->
<g id="edge45" class="edge">
<title>Node32&#45;&gt;Node10</title>
<path fill="none" stroke="midnightblue" d="M560.25,-231.06C475.15,-224.24 213.65,-198.13 169,-132 148.11,-101.06 156.7,-54.77 163.91,-29.35"/>
<polygon fill="midnightblue" stroke="midnightblue" points="167.33,-30.14 166.92,-19.55 160.64,-28.08 167.33,-30.14"/>
</g>
<!-- Node33 -->
<g id="node28" class="node">
<title>Node33</title>
<g id="a_node28"><a xlink:title=" ">
<polygon fill="none" stroke="#bfbfbf" points="558,-168.5 558,-187.5 616,-187.5 616,-168.5 558,-168.5"/>
<text text-anchor="middle" x="587" y="-175.5" font-family="Helvetica,sans-Serif" font-size="10.00">memory</text>
</a>
</g>
</g>
<!-- Node32&#45;&gt;Node33 -->
<g id="edge44" class="edge">
<title>Node32&#45;&gt;Node33</title>
<path fill="none" stroke="midnightblue" d="M587,-224.08C587,-217.01 587,-206.86 587,-197.99"/>
<polygon fill="midnightblue" stroke="midnightblue" points="590.5,-197.75 587,-187.75 583.5,-197.75 590.5,-197.75"/>
</g>
<!-- Node34&#45;&gt;Node6 -->
<g id="edge49" class="edge">
<title>Node34&#45;&gt;Node6</title>
<path fill="none" stroke="midnightblue" d="M194.78,-168.43C239.66,-155.94 325.71,-132.06 399,-112 524.97,-77.53 675.03,-37.08 739.72,-19.68"/>
<polygon fill="midnightblue" stroke="midnightblue" points="740.96,-22.97 749.71,-16.99 739.14,-16.21 740.96,-22.97"/>
</g>
<!-- Node34&#45;&gt;Node10 -->
<g id="edge50" class="edge">
<title>Node34&#45;&gt;Node10</title>
<path fill="none" stroke="midnightblue" d="M156.59,-168.41C149.72,-159.84 139.99,-145.98 136,-132 126.72,-99.52 125.26,-88.03 136,-56 139.6,-45.25 146.9,-35.02 153.82,-27.04"/>
<polygon fill="midnightblue" stroke="midnightblue" points="156.48,-29.32 160.71,-19.61 151.35,-24.56 156.48,-29.32"/>
</g>
<!-- Node34&#45;&gt;Node28 -->
<g id="edge47" class="edge">
<title>Node34&#45;&gt;Node28</title>
<path fill="none" stroke="midnightblue" d="M171.27,-168.08C177.54,-160.38 186.79,-149.03 194.43,-139.65"/>
<polygon fill="midnightblue" stroke="midnightblue" points="197.27,-141.71 200.87,-131.75 191.84,-137.29 197.27,-141.71"/>
</g>
<!-- Node34&#45;&gt;Node29 -->
<g id="edge48" class="edge">
<title>Node34&#45;&gt;Node29</title>
<path fill="none" stroke="midnightblue" d="M146.65,-168.32C129.33,-159.66 102.48,-146.24 82.5,-136.25"/>
<polygon fill="midnightblue" stroke="midnightblue" points="83.82,-133 73.31,-131.65 80.69,-139.26 83.82,-133"/>
</g>
<!-- Node35&#45;&gt;Node6 -->
<g id="edge53" class="edge">
<title>Node35&#45;&gt;Node6</title>
<path fill="none" stroke="midnightblue" d="M1119.9,-336.29C1132.59,-296.34 1178.89,-129.48 1093,-56 1050.09,-19.29 877.17,-12.48 804.46,-11.25"/>
<polygon fill="midnightblue" stroke="midnightblue" points="804.14,-7.75 794.09,-11.1 804.04,-14.75 804.14,-7.75"/>
</g>
<!-- Node35&#45;&gt;Node13 -->
<g id="edge54" class="edge">
<title>Node35&#45;&gt;Node13</title>
<path fill="none" stroke="midnightblue" d="M1145.87,-336.42C1165.84,-329.3 1191.97,-317.48 1210,-300 1233.41,-277.31 1244,-267.6 1244,-235 1244,-235 1244,-235 1244,-121 1244,-81.28 1210.04,-45.5 1187.52,-26.15"/>
<polygon fill="midnightblue" stroke="midnightblue" points="1189.48,-23.24 1179.54,-19.57 1185.02,-28.63 1189.48,-23.24"/>
</g>
<!-- Node35&#45;&gt;Node30 -->
<g id="edge52" class="edge">
<title>Node35&#45;&gt;Node30</title>
<path fill="none" stroke="midnightblue" d="M1105.11,-336.32C1093.85,-328.11 1076.71,-315.6 1063.29,-305.81"/>
<polygon fill="midnightblue" stroke="midnightblue" points="1065.25,-302.9 1055.11,-299.83 1061.12,-308.56 1065.25,-302.9"/>
</g>
</g>
</svg>
