<?xml version="1.0" encoding="UTF-8" standalone="no"?>
<!DOCTYPE svg PUBLIC "-//W3C//DTD SVG 1.1//EN"
 "http://www.w3.org/Graphics/SVG/1.1/DTD/svg11.dtd">
<!-- Generated by graphviz version 2.43.0 (0)
 -->
<!-- Title: /home/runner/work/cbmc/cbmc/src/statement&#45;list/statement_list_parser.cpp Pages: 1 -->
<svg width="1139pt" height="800pt"
 viewBox="0.00 0.00 1139.00 800.00" xmlns="http://www.w3.org/2000/svg" xmlns:xlink="http://www.w3.org/1999/xlink">
<g id="graph0" class="graph" transform="scale(1 1) rotate(0) translate(4 796)">
<title>/home/runner/work/cbmc/cbmc/src/statement&#45;list/statement_list_parser.cpp</title>
<!-- Node1 -->
<g id="node1" class="node">
<title>Node1</title>
<g id="a_node1"><a xlink:title="Statement List Language Parser.">
<polygon fill="#bfbfbf" stroke="black" points="624,-750.5 624,-791.5 770,-791.5 770,-750.5 624,-750.5"/>
<text text-anchor="start" x="632" y="-779.5" font-family="Helvetica,sans-Serif" font-size="10.00">/home/runner/work/cbmc</text>
<text text-anchor="start" x="632" y="-768.5" font-family="Helvetica,sans-Serif" font-size="10.00">/cbmc/src/statement&#45;list</text>
<text text-anchor="middle" x="697" y="-757.5" font-family="Helvetica,sans-Serif" font-size="10.00">/statement_list_parser.cpp</text>
</a>
</g>
</g>
<!-- Node2 -->
<g id="node2" class="node">
<title>Node2</title>
<g id="a_node2"><a xlink:href="statement__list__parser_8h.html" target="_top" xlink:title="Statement List Language Parser.">
<polygon fill="none" stroke="black" points="342.5,-689 342.5,-708 473.5,-708 473.5,-689 342.5,-689"/>
<text text-anchor="middle" x="408" y="-696" font-family="Helvetica,sans-Serif" font-size="10.00">statement_list_parser.h</text>
</a>
</g>
</g>
<!-- Node1&#45;&gt;Node2 -->
<g id="edge1" class="edge">
<title>Node1&#45;&gt;Node2</title>
<path fill="none" stroke="midnightblue" d="M623.7,-752.12C569.91,-739 498.57,-721.59 452.96,-710.47"/>
<polygon fill="midnightblue" stroke="midnightblue" points="453.62,-707.03 443.07,-708.06 451.96,-713.83 453.62,-707.03"/>
</g>
<!-- Node40 -->
<g id="node25" class="node">
<title>Node40</title>
<g id="a_node25"><a xlink:href="statement__list__parse__tree_8h.html" target="_top" xlink:title="Statement List Language Parse Tree.">
<polygon fill="none" stroke="black" points="451.5,-616.5 451.5,-646.5 570.5,-646.5 570.5,-616.5 451.5,-616.5"/>
<text text-anchor="start" x="459.5" y="-634.5" font-family="Helvetica,sans-Serif" font-size="10.00">statement_list_parse</text>
<text text-anchor="middle" x="511" y="-623.5" font-family="Helvetica,sans-Serif" font-size="10.00">_tree.h</text>
</a>
</g>
</g>
<!-- Node1&#45;&gt;Node40 -->
<g id="edge72" class="edge">
<title>Node1&#45;&gt;Node40</title>
<path fill="none" stroke="midnightblue" d="M623.79,-764.86C587.45,-758.36 546.08,-744.23 521,-714 507.96,-698.28 506.38,-674.63 507.52,-656.85"/>
<polygon fill="midnightblue" stroke="midnightblue" points="511.03,-656.95 508.51,-646.66 504.06,-656.28 511.03,-656.95"/>
</g>
<!-- Node48 -->
<g id="node35" class="node">
<title>Node48</title>
<g id="a_node35"><a xlink:href="std__code_8h.html" target="_top" xlink:title=" ">
<polygon fill="none" stroke="black" points="589,-622 589,-641 677,-641 677,-622 589,-622"/>
<text text-anchor="middle" x="633" y="-629" font-family="Helvetica,sans-Serif" font-size="10.00">util/std_code.h</text>
</a>
</g>
</g>
<!-- Node1&#45;&gt;Node48 -->
<g id="edge66" class="edge">
<title>Node1&#45;&gt;Node48</title>
<path fill="none" stroke="midnightblue" d="M688.38,-750.21C680.62,-732.51 668.8,-705.91 658,-683 652.8,-671.97 646.73,-659.7 641.88,-650.02"/>
<polygon fill="midnightblue" stroke="midnightblue" points="644.97,-648.38 637.35,-641.03 638.72,-651.53 644.97,-648.38"/>
</g>
<!-- Node49 -->
<g id="node36" class="node">
<title>Node49</title>
<g id="a_node36"><a xlink:href="string__constant_8h.html" target="_top" xlink:title=" ">
<polygon fill="none" stroke="black" points="695.5,-622 695.5,-641 814.5,-641 814.5,-622 695.5,-622"/>
<text text-anchor="middle" x="755" y="-629" font-family="Helvetica,sans-Serif" font-size="10.00">util/string_constant.h</text>
</a>
</g>
</g>
<!-- Node1&#45;&gt;Node49 -->
<g id="edge70" class="edge">
<title>Node1&#45;&gt;Node49</title>
<path fill="none" stroke="midnightblue" d="M705.31,-750.3C716.6,-723.54 736.61,-676.1 747.48,-650.34"/>
<polygon fill="midnightblue" stroke="midnightblue" points="750.74,-651.61 751.4,-641.04 744.29,-648.89 750.74,-651.61"/>
</g>
<!-- Node50 -->
<g id="node37" class="node">
<title>Node50</title>
<g id="a_node37"><a xlink:href="statement__list__parse__tree__io_8h.html" target="_top" xlink:title="Statement List Language Parse Tree Output.">
<polygon fill="none" stroke="black" points="530.5,-683.5 530.5,-713.5 649.5,-713.5 649.5,-683.5 530.5,-683.5"/>
<text text-anchor="start" x="538.5" y="-701.5" font-family="Helvetica,sans-Serif" font-size="10.00">statement_list_parse</text>
<text text-anchor="middle" x="590" y="-690.5" font-family="Helvetica,sans-Serif" font-size="10.00">_tree_io.h</text>
</a>
</g>
</g>
<!-- Node1&#45;&gt;Node50 -->
<g id="edge73" class="edge">
<title>Node1&#45;&gt;Node50</title>
<path fill="none" stroke="midnightblue" d="M667.19,-750.36C652.55,-740.71 634.93,-729.11 620.23,-719.42"/>
<polygon fill="midnightblue" stroke="midnightblue" points="621.78,-716.25 611.51,-713.67 617.93,-722.09 621.78,-716.25"/>
</g>
<!-- Node28 -->
<g id="node38" class="node">
<title>Node28</title>
<g id="a_node38"><a xlink:title=" ">
<polygon fill="none" stroke="#bfbfbf" points="744,-689 744,-708 808,-708 808,-689 744,-689"/>
<text text-anchor="middle" x="776" y="-696" font-family="Helvetica,sans-Serif" font-size="10.00">algorithm</text>
</a>
</g>
</g>
<!-- Node1&#45;&gt;Node28 -->
<g id="edge75" class="edge">
<title>Node1&#45;&gt;Node28</title>
<path fill="none" stroke="midnightblue" d="M719.01,-750.36C731.5,-739.21 746.91,-725.46 758.56,-715.06"/>
<polygon fill="midnightblue" stroke="midnightblue" points="761.15,-717.44 766.28,-708.17 756.49,-712.22 761.15,-717.44"/>
</g>
<!-- Node51 -->
<g id="node39" class="node">
<title>Node51</title>
<g id="a_node39"><a xlink:title=" ">
<polygon fill="none" stroke="#bfbfbf" points="826,-689 826,-708 886,-708 886,-689 826,-689"/>
<text text-anchor="middle" x="856" y="-696" font-family="Helvetica,sans-Serif" font-size="10.00">iostream</text>
</a>
</g>
</g>
<!-- Node1&#45;&gt;Node51 -->
<g id="edge76" class="edge">
<title>Node1&#45;&gt;Node51</title>
<path fill="none" stroke="midnightblue" d="M741.29,-750.36C768.75,-738.19 803.23,-722.9 827.18,-712.28"/>
<polygon fill="midnightblue" stroke="midnightblue" points="828.72,-715.43 836.44,-708.17 825.88,-709.03 828.72,-715.43"/>
</g>
<!-- Node52 -->
<g id="node40" class="node">
<title>Node52</title>
<g id="a_node40"><a xlink:title=" ">
<polygon fill="none" stroke="#bfbfbf" points="904.5,-689 904.5,-708 957.5,-708 957.5,-689 904.5,-689"/>
<text text-anchor="middle" x="931" y="-696" font-family="Helvetica,sans-Serif" font-size="10.00">iterator</text>
</a>
</g>
</g>
<!-- Node1&#45;&gt;Node52 -->
<g id="edge77" class="edge">
<title>Node1&#45;&gt;Node52</title>
<path fill="none" stroke="midnightblue" d="M770.46,-751.24C808.01,-741.14 854.27,-727.92 895,-714 897.12,-713.27 899.3,-712.49 901.49,-711.68"/>
<polygon fill="midnightblue" stroke="midnightblue" points="902.9,-714.89 910.96,-708.01 900.37,-708.36 902.9,-714.89"/>
</g>
<!-- Node3 -->
<g id="node3" class="node">
<title>Node3</title>
<g id="a_node3"><a xlink:href="parser_8h.html" target="_top" xlink:title="Parser utilities.">
<polygon fill="none" stroke="black" points="306,-448.5 306,-467.5 380,-467.5 380,-448.5 306,-448.5"/>
<text text-anchor="middle" x="343" y="-455.5" font-family="Helvetica,sans-Serif" font-size="10.00">util/parser.h</text>
</a>
</g>
</g>
<!-- Node2&#45;&gt;Node3 -->
<g id="edge2" class="edge">
<title>Node2&#45;&gt;Node3</title>
<path fill="none" stroke="midnightblue" d="M405.61,-688.73C396.13,-653.96 361.08,-525.35 347.98,-477.28"/>
<polygon fill="midnightblue" stroke="midnightblue" points="351.35,-476.33 345.34,-467.6 344.6,-478.17 351.35,-476.33"/>
</g>
<!-- Node2&#45;&gt;Node40 -->
<g id="edge41" class="edge">
<title>Node2&#45;&gt;Node40</title>
<path fill="none" stroke="midnightblue" d="M421.89,-688.73C436.75,-679.36 460.79,-664.19 480.15,-651.97"/>
<polygon fill="midnightblue" stroke="midnightblue" points="482.09,-654.89 488.67,-646.59 478.35,-648.97 482.09,-654.89"/>
</g>
<!-- Node4 -->
<g id="node4" class="node">
<title>Node4</title>
<g id="a_node4"><a xlink:href="expr_8h.html" target="_top" xlink:title=" ">
<polygon fill="none" stroke="black" points="711.5,-392.5 711.5,-411.5 758.5,-411.5 758.5,-392.5 711.5,-392.5"/>
<text text-anchor="middle" x="735" y="-399.5" font-family="Helvetica,sans-Serif" font-size="10.00">expr.h</text>
</a>
</g>
</g>
<!-- Node3&#45;&gt;Node4 -->
<g id="edge3" class="edge">
<title>Node3&#45;&gt;Node4</title>
<path fill="none" stroke="midnightblue" d="M380.23,-451.87C456.19,-441.41 628,-417.74 701.08,-407.67"/>
<polygon fill="midnightblue" stroke="midnightblue" points="701.69,-411.12 711.12,-406.29 700.74,-404.19 701.69,-411.12"/>
</g>
<!-- Node10 -->
<g id="node10" class="node">
<title>Node10</title>
<g id="a_node10"><a xlink:title=" ">
<polygon fill="none" stroke="#bfbfbf" points="350,-0.5 350,-19.5 394,-19.5 394,-0.5 350,-0.5"/>
<text text-anchor="middle" x="372" y="-7.5" font-family="Helvetica,sans-Serif" font-size="10.00">string</text>
</a>
</g>
</g>
<!-- Node3&#45;&gt;Node10 -->
<g id="edge39" class="edge">
<title>Node3&#45;&gt;Node10</title>
<path fill="none" stroke="midnightblue" d="M305.8,-454.85C241.56,-450.47 113.34,-438.58 78,-412 14.52,-364.26 38,-195.14 38,-179 38,-179 38,-179 38,-121 38,-76.21 74.43,-74.96 115,-56 190.12,-20.89 289.23,-12.98 339.6,-11.33"/>
<polygon fill="midnightblue" stroke="midnightblue" points="339.97,-14.82 349.87,-11.06 339.78,-7.82 339.97,-14.82"/>
</g>
<!-- Node11 -->
<g id="node11" class="node">
<title>Node11</title>
<g id="a_node11"><a xlink:title=" ">
<polygon fill="none" stroke="#bfbfbf" points="296.5,-56.5 296.5,-75.5 343.5,-75.5 343.5,-56.5 296.5,-56.5"/>
<text text-anchor="middle" x="320" y="-63.5" font-family="Helvetica,sans-Serif" font-size="10.00">vector</text>
</a>
</g>
</g>
<!-- Node3&#45;&gt;Node11 -->
<g id="edge40" class="edge">
<title>Node3&#45;&gt;Node11</title>
<path fill="none" stroke="midnightblue" d="M354.34,-448.18C364.31,-439.86 378.5,-426.52 387,-412 402.2,-386.02 406,-377.1 406,-347 406,-347 406,-347 406,-289 406,-210.48 346.44,-207.53 325,-132 320.7,-116.84 319.6,-98.95 319.49,-85.78"/>
<polygon fill="midnightblue" stroke="midnightblue" points="322.99,-85.64 319.59,-75.6 315.99,-85.57 322.99,-85.64"/>
</g>
<!-- Node38 -->
<g id="node22" class="node">
<title>Node38</title>
<g id="a_node22"><a xlink:href="src_2util_2message_8h.html" target="_top" xlink:title=" ">
<polygon fill="none" stroke="black" points="308,-392.5 308,-411.5 378,-411.5 378,-392.5 308,-392.5"/>
<text text-anchor="middle" x="343" y="-399.5" font-family="Helvetica,sans-Serif" font-size="10.00">message.h</text>
</a>
</g>
</g>
<!-- Node3&#45;&gt;Node38 -->
<g id="edge30" class="edge">
<title>Node3&#45;&gt;Node38</title>
<path fill="none" stroke="midnightblue" d="M343,-448.08C343,-441.01 343,-430.86 343,-421.99"/>
<polygon fill="midnightblue" stroke="midnightblue" points="346.5,-421.75 343,-411.75 339.5,-421.75 346.5,-421.75"/>
</g>
<!-- Node18 -->
<g id="node23" class="node">
<title>Node18</title>
<g id="a_node23"><a xlink:title=" ">
<polygon fill="none" stroke="#bfbfbf" points="178,-336.5 178,-355.5 226,-355.5 226,-336.5 178,-336.5"/>
<text text-anchor="middle" x="202" y="-343.5" font-family="Helvetica,sans-Serif" font-size="10.00">iosfwd</text>
</a>
</g>
</g>
<!-- Node3&#45;&gt;Node18 -->
<g id="edge38" class="edge">
<title>Node3&#45;&gt;Node18</title>
<path fill="none" stroke="midnightblue" d="M305.9,-454.22C276.26,-449.95 236,-439.16 213,-412 202.26,-399.32 200.17,-380.11 200.36,-365.86"/>
<polygon fill="midnightblue" stroke="midnightblue" points="203.87,-365.89 200.89,-355.72 196.88,-365.52 203.87,-365.89"/>
</g>
<!-- Node39 -->
<g id="node24" class="node">
<title>Node39</title>
<g id="a_node24"><a xlink:title=" ">
<polygon fill="none" stroke="#bfbfbf" points="222,-392.5 222,-411.5 290,-411.5 290,-392.5 222,-392.5"/>
<text text-anchor="middle" x="256" y="-399.5" font-family="Helvetica,sans-Serif" font-size="10.00">filesystem</text>
</a>
</g>
</g>
<!-- Node3&#45;&gt;Node39 -->
<g id="edge37" class="edge">
<title>Node3&#45;&gt;Node39</title>
<path fill="none" stroke="midnightblue" d="M329.02,-448.32C315.45,-439.9 294.62,-426.97 278.68,-417.07"/>
<polygon fill="midnightblue" stroke="midnightblue" points="280.29,-413.95 269.94,-411.65 276.59,-419.9 280.29,-413.95"/>
</g>
<!-- Node5 -->
<g id="node5" class="node">
<title>Node5</title>
<g id="a_node5"><a xlink:href="as__const_8h.html" target="_top" xlink:title=" ">
<polygon fill="none" stroke="black" points="817,-336.5 817,-355.5 885,-355.5 885,-336.5 817,-336.5"/>
<text text-anchor="middle" x="851" y="-343.5" font-family="Helvetica,sans-Serif" font-size="10.00">as_const.h</text>
</a>
</g>
</g>
<!-- Node4&#45;&gt;Node5 -->
<g id="edge4" class="edge">
<title>Node4&#45;&gt;Node5</title>
<path fill="none" stroke="midnightblue" d="M753.38,-392.44C772.22,-383.68 801.73,-369.94 823.38,-359.86"/>
<polygon fill="midnightblue" stroke="midnightblue" points="825.12,-362.91 832.71,-355.52 822.16,-356.56 825.12,-362.91"/>
</g>
<!-- Node6 -->
<g id="node6" class="node">
<title>Node6</title>
<g id="a_node6"><a xlink:href="type_8h.html" target="_top" xlink:title="Defines typet, type_with_subtypet and type_with_subtypest.">
<polygon fill="none" stroke="black" points="941.5,-336.5 941.5,-355.5 988.5,-355.5 988.5,-336.5 941.5,-336.5"/>
<text text-anchor="middle" x="965" y="-343.5" font-family="Helvetica,sans-Serif" font-size="10.00">type.h</text>
</a>
</g>
</g>
<!-- Node4&#45;&gt;Node6 -->
<g id="edge5" class="edge">
<title>Node4&#45;&gt;Node6</title>
<path fill="none" stroke="midnightblue" d="M758.76,-394.39C761.86,-393.57 765,-392.75 768,-392 825.17,-377.68 892.14,-362.78 931.43,-354.22"/>
<polygon fill="midnightblue" stroke="midnightblue" points="932.24,-357.63 941.27,-352.09 930.76,-350.79 932.24,-357.63"/>
</g>
<!-- Node34 -->
<g id="node18" class="node">
<title>Node34</title>
<g id="a_node18"><a xlink:href="validation__mode_8h.html" target="_top" xlink:title=" ">
<polygon fill="none" stroke="black" points="904.5,-224.5 904.5,-243.5 1011.5,-243.5 1011.5,-224.5 904.5,-224.5"/>
<text text-anchor="middle" x="958" y="-231.5" font-family="Helvetica,sans-Serif" font-size="10.00">validation_mode.h</text>
</a>
</g>
</g>
<!-- Node4&#45;&gt;Node34 -->
<g id="edge28" class="edge">
<title>Node4&#45;&gt;Node34</title>
<path fill="none" stroke="midnightblue" d="M758.71,-394.17C761.82,-393.38 764.98,-392.63 768,-392 876.17,-369.42 927.45,-424.69 1014,-356 1041.54,-334.14 1053.59,-310.45 1036,-280 1027.32,-264.98 1011.51,-254.52 996.38,-247.5"/>
<polygon fill="midnightblue" stroke="midnightblue" points="997.69,-244.25 987.12,-243.56 994.95,-250.69 997.69,-244.25"/>
</g>
<!-- Node35 -->
<g id="node19" class="node">
<title>Node35</title>
<g id="a_node19"><a xlink:href="validate__types_8h.html" target="_top" xlink:title=" ">
<polygon fill="none" stroke="black" points="929,-280.5 929,-299.5 1027,-299.5 1027,-280.5 929,-280.5"/>
<text text-anchor="middle" x="978" y="-287.5" font-family="Helvetica,sans-Serif" font-size="10.00">validate_types.h</text>
</a>
</g>
</g>
<!-- Node4&#45;&gt;Node35 -->
<g id="edge27" class="edge">
<title>Node4&#45;&gt;Node35</title>
<path fill="none" stroke="midnightblue" d="M758.72,-394.19C761.83,-393.4 764.98,-392.65 768,-392 818.59,-381.18 964.37,-395.31 998,-356 1009.59,-342.46 1000.56,-322.29 991.2,-308.02"/>
<polygon fill="midnightblue" stroke="midnightblue" points="993.86,-305.73 985.21,-299.62 988.16,-309.79 993.86,-305.73"/>
</g>
<!-- Node36 -->
<g id="node20" class="node">
<title>Node36</title>
<g id="a_node20"><a xlink:href="validate__expressions_8h.html" target="_top" xlink:title=" ">
<polygon fill="none" stroke="black" points="669.5,-336.5 669.5,-355.5 798.5,-355.5 798.5,-336.5 669.5,-336.5"/>
<text text-anchor="middle" x="734" y="-343.5" font-family="Helvetica,sans-Serif" font-size="10.00">validate_expressions.h</text>
</a>
</g>
</g>
<!-- Node4&#45;&gt;Node36 -->
<g id="edge26" class="edge">
<title>Node4&#45;&gt;Node36</title>
<path fill="none" stroke="midnightblue" d="M734.83,-392.08C734.7,-385.01 734.52,-374.86 734.35,-365.99"/>
<polygon fill="midnightblue" stroke="midnightblue" points="737.85,-365.68 734.16,-355.75 730.85,-365.81 737.85,-365.68"/>
</g>
<!-- Node37 -->
<g id="node21" class="node">
<title>Node37</title>
<g id="a_node21"><a xlink:title=" ">
<polygon fill="none" stroke="#bfbfbf" points="586.5,-336.5 586.5,-355.5 651.5,-355.5 651.5,-336.5 586.5,-336.5"/>
<text text-anchor="middle" x="619" y="-343.5" font-family="Helvetica,sans-Serif" font-size="10.00">functional</text>
</a>
</g>
</g>
<!-- Node4&#45;&gt;Node37 -->
<g id="edge29" class="edge">
<title>Node4&#45;&gt;Node37</title>
<path fill="none" stroke="midnightblue" d="M716.62,-392.44C697.78,-383.68 668.27,-369.94 646.62,-359.86"/>
<polygon fill="midnightblue" stroke="midnightblue" points="647.84,-356.56 637.29,-355.52 644.88,-362.91 647.84,-356.56"/>
</g>
<!-- Node7 -->
<g id="node7" class="node">
<title>Node7</title>
<g id="a_node7"><a xlink:href="source__location_8h.html" target="_top" xlink:title=" ">
<polygon fill="none" stroke="black" points="556,-168.5 556,-187.5 658,-187.5 658,-168.5 556,-168.5"/>
<text text-anchor="middle" x="607" y="-175.5" font-family="Helvetica,sans-Serif" font-size="10.00">source_location.h</text>
</a>
</g>
</g>
<!-- Node6&#45;&gt;Node7 -->
<g id="edge6" class="edge">
<title>Node6&#45;&gt;Node7</title>
<path fill="none" stroke="midnightblue" d="M941.44,-340.91C908.57,-334.7 847.53,-321.3 799,-300 731.1,-270.21 659.28,-218.83 625.99,-193.7"/>
<polygon fill="midnightblue" stroke="midnightblue" points="628.09,-190.91 618.02,-187.63 623.85,-196.47 628.09,-190.91"/>
</g>
<!-- Node32 -->
<g id="node16" class="node">
<title>Node32</title>
<g id="a_node16"><a xlink:href="validate_8h.html" target="_top" xlink:title=" ">
<polygon fill="none" stroke="black" points="807.5,-280.5 807.5,-299.5 872.5,-299.5 872.5,-280.5 807.5,-280.5"/>
<text text-anchor="middle" x="840" y="-287.5" font-family="Helvetica,sans-Serif" font-size="10.00">validate.h</text>
</a>
</g>
</g>
<!-- Node6&#45;&gt;Node32 -->
<g id="edge17" class="edge">
<title>Node6&#45;&gt;Node32</title>
<path fill="none" stroke="midnightblue" d="M945.19,-336.44C924.71,-327.6 892.52,-313.69 869.14,-303.59"/>
<polygon fill="midnightblue" stroke="midnightblue" points="870.28,-300.27 859.71,-299.52 867.51,-306.7 870.28,-300.27"/>
</g>
<!-- Node6&#45;&gt;Node34 -->
<g id="edge25" class="edge">
<title>Node6&#45;&gt;Node34</title>
<path fill="none" stroke="midnightblue" d="M951.94,-336.44C941.09,-328.47 926.43,-315.52 920,-300 912.64,-282.23 926.29,-263.42 939.23,-250.63"/>
<polygon fill="midnightblue" stroke="midnightblue" points="941.62,-253.19 946.61,-243.85 936.88,-248.04 941.62,-253.19"/>
</g>
<!-- Node6&#45;&gt;Node35 -->
<g id="edge24" class="edge">
<title>Node6&#45;&gt;Node35</title>
<path fill="none" stroke="midnightblue" d="M967.15,-336.08C968.87,-328.93 971.35,-318.64 973.5,-309.69"/>
<polygon fill="midnightblue" stroke="midnightblue" points="976.96,-310.29 975.89,-299.75 970.15,-308.65 976.96,-310.29"/>
</g>
<!-- Node8 -->
<g id="node8" class="node">
<title>Node8</title>
<g id="a_node8"><a xlink:href="deprecate_8h.html" target="_top" xlink:title=" ">
<polygon fill="none" stroke="black" points="584,-112.5 584,-131.5 658,-131.5 658,-112.5 584,-112.5"/>
<text text-anchor="middle" x="621" y="-119.5" font-family="Helvetica,sans-Serif" font-size="10.00">deprecate.h</text>
</a>
</g>
</g>
<!-- Node7&#45;&gt;Node8 -->
<g id="edge7" class="edge">
<title>Node7&#45;&gt;Node8</title>
<path fill="none" stroke="midnightblue" d="M609.31,-168.08C611.17,-160.93 613.84,-150.64 616.15,-141.69"/>
<polygon fill="midnightblue" stroke="midnightblue" points="619.61,-142.31 618.73,-131.75 612.83,-140.55 619.61,-142.31"/>
</g>
<!-- Node9 -->
<g id="node9" class="node">
<title>Node9</title>
<g id="a_node9"><a xlink:href="irep_8h.html" target="_top" xlink:title=" ">
<polygon fill="none" stroke="red" points="334,-112.5 334,-131.5 378,-131.5 378,-112.5 334,-112.5"/>
<text text-anchor="middle" x="356" y="-119.5" font-family="Helvetica,sans-Serif" font-size="10.00">irep.h</text>
</a>
</g>
</g>
<!-- Node7&#45;&gt;Node9 -->
<g id="edge8" class="edge">
<title>Node7&#45;&gt;Node9</title>
<path fill="none" stroke="midnightblue" d="M567.23,-168.44C517.6,-157.77 433.71,-139.72 388.01,-129.89"/>
<polygon fill="midnightblue" stroke="midnightblue" points="388.57,-126.43 378.06,-127.75 387.1,-133.27 388.57,-126.43"/>
</g>
<!-- Node7&#45;&gt;Node10 -->
<g id="edge16" class="edge">
<title>Node7&#45;&gt;Node10</title>
<path fill="none" stroke="midnightblue" d="M625.5,-168.38C648.43,-156.49 682.66,-134.03 667,-112 606.07,-26.29 467.74,-12.5 404.56,-10.83"/>
<polygon fill="midnightblue" stroke="midnightblue" points="404.44,-7.33 394.38,-10.66 404.32,-14.33 404.44,-7.33"/>
</g>
<!-- Node31 -->
<g id="node15" class="node">
<title>Node31</title>
<g id="a_node15"><a xlink:title=" ">
<polygon fill="none" stroke="#bfbfbf" points="510,-112.5 510,-131.5 566,-131.5 566,-112.5 510,-112.5"/>
<text text-anchor="middle" x="538" y="-119.5" font-family="Helvetica,sans-Serif" font-size="10.00">optional</text>
</a>
</g>
</g>
<!-- Node7&#45;&gt;Node31 -->
<g id="edge15" class="edge">
<title>Node7&#45;&gt;Node31</title>
<path fill="none" stroke="midnightblue" d="M595.91,-168.32C585.51,-160.18 569.74,-147.84 557.28,-138.09"/>
<polygon fill="midnightblue" stroke="midnightblue" points="559.32,-135.24 549.29,-131.83 555.01,-140.75 559.32,-135.24"/>
</g>
<!-- Node9&#45;&gt;Node10 -->
<g id="edge9" class="edge">
<title>Node9&#45;&gt;Node10</title>
<path fill="none" stroke="midnightblue" d="M357.26,-112.37C359.84,-94.62 365.79,-53.67 369.29,-29.6"/>
<polygon fill="midnightblue" stroke="midnightblue" points="372.77,-29.99 370.75,-19.59 365.85,-28.98 372.77,-29.99"/>
</g>
<!-- Node9&#45;&gt;Node11 -->
<g id="edge10" class="edge">
<title>Node9&#45;&gt;Node11</title>
<path fill="none" stroke="midnightblue" d="M350.06,-112.08C345.02,-104.53 337.66,-93.49 331.49,-84.23"/>
<polygon fill="midnightblue" stroke="midnightblue" points="334.29,-82.13 325.83,-75.75 328.47,-86.01 334.29,-82.13"/>
</g>
<!-- Node12 -->
<g id="node12" class="node">
<title>Node12</title>
<g id="a_node12"><a xlink:href="src_2util_2invariant_8h.html" target="_top" xlink:title=" ">
<polygon fill="none" stroke="red" points="428.5,-56.5 428.5,-75.5 497.5,-75.5 497.5,-56.5 428.5,-56.5"/>
<text text-anchor="middle" x="463" y="-63.5" font-family="Helvetica,sans-Serif" font-size="10.00">invariant.h</text>
</a>
</g>
</g>
<!-- Node9&#45;&gt;Node12 -->
<g id="edge11" class="edge">
<title>Node9&#45;&gt;Node12</title>
<path fill="none" stroke="midnightblue" d="M373.19,-112.32C390.35,-103.66 416.95,-90.24 436.75,-80.25"/>
<polygon fill="midnightblue" stroke="midnightblue" points="438.5,-83.28 445.85,-75.65 435.35,-77.04 438.5,-83.28"/>
</g>
<!-- Node12&#45;&gt;Node10 -->
<g id="edge13" class="edge">
<title>Node12&#45;&gt;Node10</title>
<path fill="none" stroke="midnightblue" d="M448.38,-56.32C434.05,-47.82 411.99,-34.73 395.25,-24.8"/>
<polygon fill="midnightblue" stroke="midnightblue" points="396.97,-21.75 386.58,-19.65 393.4,-27.77 396.97,-21.75"/>
</g>
<!-- Node14 -->
<g id="node13" class="node">
<title>Node14</title>
<g id="a_node13"><a xlink:title=" ">
<polygon fill="none" stroke="#bfbfbf" points="124,-0.5 124,-19.5 180,-19.5 180,-0.5 124,-0.5"/>
<text text-anchor="middle" x="152" y="-7.5" font-family="Helvetica,sans-Serif" font-size="10.00">sstream</text>
</a>
</g>
</g>
<!-- Node12&#45;&gt;Node14 -->
<g id="edge12" class="edge">
<title>Node12&#45;&gt;Node14</title>
<path fill="none" stroke="midnightblue" d="M428.23,-58.96C369.49,-48.76 251.08,-28.2 190.15,-17.62"/>
<polygon fill="midnightblue" stroke="midnightblue" points="190.62,-14.15 180.17,-15.89 189.42,-21.05 190.62,-14.15"/>
</g>
<!-- Node15 -->
<g id="node14" class="node">
<title>Node15</title>
<g id="a_node14"><a xlink:title=" ">
<polygon fill="none" stroke="#bfbfbf" points="841.5,-0.5 841.5,-19.5 910.5,-19.5 910.5,-0.5 841.5,-0.5"/>
<text text-anchor="middle" x="876" y="-7.5" font-family="Helvetica,sans-Serif" font-size="10.00">type_traits</text>
</a>
</g>
</g>
<!-- Node12&#45;&gt;Node15 -->
<g id="edge14" class="edge">
<title>Node12&#45;&gt;Node15</title>
<path fill="none" stroke="midnightblue" d="M497.5,-60.49C572.05,-50.74 748.14,-27.72 831.18,-16.86"/>
<polygon fill="midnightblue" stroke="midnightblue" points="831.84,-20.3 841.31,-15.54 830.94,-13.36 831.84,-20.3"/>
</g>
<!-- Node32&#45;&gt;Node15 -->
<g id="edge18" class="edge">
<title>Node32&#45;&gt;Node15</title>
<path fill="none" stroke="midnightblue" d="M844.86,-280.47C854.68,-262.39 876,-218.59 876,-179 876,-179 876,-179 876,-121 876,-88.95 876,-51.64 876,-29.75"/>
<polygon fill="midnightblue" stroke="midnightblue" points="879.5,-29.56 876,-19.56 872.5,-29.56 879.5,-29.56"/>
</g>
<!-- Node33 -->
<g id="node17" class="node">
<title>Node33</title>
<g id="a_node17"><a xlink:href="exception__utils_8h.html" target="_top" xlink:title=" ">
<polygon fill="none" stroke="black" points="730,-224.5 730,-243.5 830,-243.5 830,-224.5 730,-224.5"/>
<text text-anchor="middle" x="780" y="-231.5" font-family="Helvetica,sans-Serif" font-size="10.00">exception_utils.h</text>
</a>
</g>
</g>
<!-- Node32&#45;&gt;Node33 -->
<g id="edge19" class="edge">
<title>Node32&#45;&gt;Node33</title>
<path fill="none" stroke="midnightblue" d="M830.36,-280.32C821.49,-272.34 808.13,-260.31 797.39,-250.65"/>
<polygon fill="midnightblue" stroke="midnightblue" points="799.59,-247.92 789.82,-243.83 794.91,-253.13 799.59,-247.92"/>
</g>
<!-- Node32&#45;&gt;Node34 -->
<g id="edge23" class="edge">
<title>Node32&#45;&gt;Node34</title>
<path fill="none" stroke="midnightblue" d="M858.7,-280.44C877.94,-271.64 908.15,-257.81 930.2,-247.72"/>
<polygon fill="midnightblue" stroke="midnightblue" points="931.75,-250.86 939.39,-243.52 928.84,-244.5 931.75,-250.86"/>
</g>
<!-- Node33&#45;&gt;Node7 -->
<g id="edge22" class="edge">
<title>Node33&#45;&gt;Node7</title>
<path fill="none" stroke="midnightblue" d="M752.59,-224.44C723.23,-215.28 676.48,-200.69 643.9,-190.52"/>
<polygon fill="midnightblue" stroke="midnightblue" points="644.87,-187.16 634.28,-187.52 642.79,-193.84 644.87,-187.16"/>
</g>
<!-- Node33&#45;&gt;Node10 -->
<g id="edge20" class="edge">
<title>Node33&#45;&gt;Node10</title>
<path fill="none" stroke="midnightblue" d="M779.84,-224.21C779.33,-211.35 777.24,-186.88 769,-168 737.56,-95.91 705.76,-83.29 632,-56 553.55,-26.98 454.73,-16.46 404.52,-12.82"/>
<polygon fill="midnightblue" stroke="midnightblue" points="404.49,-9.31 394.27,-12.12 404.01,-16.29 404.49,-9.31"/>
</g>
<!-- Node33&#45;&gt;Node12 -->
<g id="edge21" class="edge">
<title>Node33&#45;&gt;Node12</title>
<path fill="none" stroke="midnightblue" d="M776.98,-224.24C768.67,-201.58 743.19,-140.74 700,-112 669.16,-91.48 567.8,-77.83 508.08,-71.36"/>
<polygon fill="midnightblue" stroke="midnightblue" points="508.12,-67.84 497.8,-70.27 507.38,-74.8 508.12,-67.84"/>
</g>
<!-- Node38&#45;&gt;Node7 -->
<g id="edge32" class="edge">
<title>Node38&#45;&gt;Node7</title>
<path fill="none" stroke="midnightblue" d="M348.32,-392.37C356.64,-379.29 373.68,-354.05 392,-336 454.32,-274.62 542,-218.19 583.49,-192.93"/>
<polygon fill="midnightblue" stroke="midnightblue" points="585.55,-195.78 592.31,-187.61 581.94,-189.78 585.55,-195.78"/>
</g>
<!-- Node38&#45;&gt;Node10 -->
<g id="edge36" class="edge">
<title>Node38&#45;&gt;Node10</title>
<path fill="none" stroke="midnightblue" d="M337.8,-392.47C313.63,-351.62 216.42,-173.23 287,-56 298.51,-36.88 321.19,-25.45 340.22,-18.9"/>
<polygon fill="midnightblue" stroke="midnightblue" points="341.27,-22.24 349.76,-15.91 339.17,-15.56 341.27,-22.24"/>
</g>
<!-- Node38&#45;&gt;Node12 -->
<g id="edge31" class="edge">
<title>Node38&#45;&gt;Node12</title>
<path fill="none" stroke="midnightblue" d="M344.54,-392.08C351.03,-355.71 378.32,-215.63 430,-112 435.02,-101.94 442.26,-91.76 448.69,-83.62"/>
<polygon fill="midnightblue" stroke="midnightblue" points="451.55,-85.66 455.2,-75.71 446.14,-81.21 451.55,-85.66"/>
</g>
<!-- Node38&#45;&gt;Node14 -->
<g id="edge35" class="edge">
<title>Node38&#45;&gt;Node14</title>
<path fill="none" stroke="midnightblue" d="M329.13,-392.46C264.96,-352.91 0,-188.97 0,-179 0,-179 0,-179 0,-121 0,-90.2 2.05,-77.6 24,-56 48.22,-32.16 85.8,-20.9 113.98,-15.61"/>
<polygon fill="midnightblue" stroke="midnightblue" points="114.63,-19.05 123.9,-13.92 113.45,-12.15 114.63,-19.05"/>
</g>
<!-- Node38&#45;&gt;Node37 -->
<g id="edge33" class="edge">
<title>Node38&#45;&gt;Node37</title>
<path fill="none" stroke="midnightblue" d="M378.24,-394.11C428.75,-384.22 521.65,-366.05 576.1,-355.39"/>
<polygon fill="midnightblue" stroke="midnightblue" points="576.98,-358.79 586.12,-353.43 575.64,-351.92 576.98,-358.79"/>
</g>
<!-- Node38&#45;&gt;Node18 -->
<g id="edge34" class="edge">
<title>Node38&#45;&gt;Node18</title>
<path fill="none" stroke="midnightblue" d="M320.66,-392.44C297.25,-383.48 260.26,-369.31 233.81,-359.18"/>
<polygon fill="midnightblue" stroke="midnightblue" points="234.83,-355.82 224.24,-355.52 232.32,-362.36 234.83,-355.82"/>
</g>
<!-- Node41 -->
<g id="node26" class="node">
<title>Node41</title>
<g id="a_node26"><a xlink:href="std__code__base_8h.html" target="_top" xlink:title=" ">
<polygon fill="none" stroke="black" points="461,-560.5 461,-579.5 577,-579.5 577,-560.5 461,-560.5"/>
<text text-anchor="middle" x="519" y="-567.5" font-family="Helvetica,sans-Serif" font-size="10.00">util/std_code_base.h</text>
</a>
</g>
</g>
<!-- Node40&#45;&gt;Node41 -->
<g id="edge42" class="edge">
<title>Node40&#45;&gt;Node41</title>
<path fill="none" stroke="midnightblue" d="M512.9,-616.4C513.97,-608.38 515.34,-598.23 516.5,-589.57"/>
<polygon fill="midnightblue" stroke="midnightblue" points="519.97,-590.04 517.84,-579.66 513.03,-589.1 519.97,-590.04"/>
</g>
<!-- Node47 -->
<g id="node33" class="node">
<title>Node47</title>
<g id="a_node33"><a xlink:href="std__expr_8h.html" target="_top" xlink:title="API to expression classes.">
<polygon fill="none" stroke="black" points="661,-560.5 661,-579.5 747,-579.5 747,-560.5 661,-560.5"/>
<text text-anchor="middle" x="704" y="-567.5" font-family="Helvetica,sans-Serif" font-size="10.00">util/std_expr.h</text>
</a>
</g>
</g>
<!-- Node40&#45;&gt;Node47 -->
<g id="edge61" class="edge">
<title>Node40&#45;&gt;Node47</title>
<path fill="none" stroke="midnightblue" d="M556.74,-616.4C590.23,-606.07 635.13,-592.23 666.52,-582.56"/>
<polygon fill="midnightblue" stroke="midnightblue" points="667.67,-585.86 676.2,-579.57 665.61,-579.17 667.67,-585.86"/>
</g>
<!-- Node22 -->
<g id="node34" class="node">
<title>Node22</title>
<g id="a_node34"><a xlink:title=" ">
<polygon fill="none" stroke="#bfbfbf" points="602,-560.5 602,-579.5 634,-579.5 634,-560.5 602,-560.5"/>
<text text-anchor="middle" x="618" y="-567.5" font-family="Helvetica,sans-Serif" font-size="10.00">list</text>
</a>
</g>
</g>
<!-- Node40&#45;&gt;Node22 -->
<g id="edge65" class="edge">
<title>Node40&#45;&gt;Node22</title>
<path fill="none" stroke="midnightblue" d="M536.36,-616.4C553.67,-606.77 576.48,-594.09 593.58,-584.58"/>
<polygon fill="midnightblue" stroke="midnightblue" points="595.39,-587.58 602.43,-579.66 591.99,-581.46 595.39,-587.58"/>
</g>
<!-- Node41&#45;&gt;Node12 -->
<g id="edge49" class="edge">
<title>Node41&#45;&gt;Node12</title>
<path fill="none" stroke="midnightblue" d="M507.61,-560.4C486.63,-543.48 444,-503.61 444,-459 444,-459 444,-459 444,-177 444,-144.49 452.16,-107.35 457.78,-85.61"/>
<polygon fill="midnightblue" stroke="midnightblue" points="461.22,-86.32 460.44,-75.75 454.46,-84.5 461.22,-86.32"/>
</g>
<!-- Node41&#45;&gt;Node32 -->
<g id="edge60" class="edge">
<title>Node41&#45;&gt;Node32</title>
<path fill="none" stroke="midnightblue" d="M518.03,-560.48C514.62,-526 506.93,-395.81 577,-336 609.44,-308.31 731.3,-297.17 797.14,-293.1"/>
<polygon fill="midnightblue" stroke="midnightblue" points="797.43,-296.59 807.21,-292.51 797.02,-289.6 797.43,-296.59"/>
</g>
<!-- Node42 -->
<g id="node27" class="node">
<title>Node42</title>
<g id="a_node27"><a xlink:href="expr__cast_8h.html" target="_top" xlink:title="Templated functions to cast to specific exprt&#45;derived classes.">
<polygon fill="none" stroke="black" points="698.5,-448.5 698.5,-467.5 771.5,-467.5 771.5,-448.5 698.5,-448.5"/>
<text text-anchor="middle" x="735" y="-455.5" font-family="Helvetica,sans-Serif" font-size="10.00">expr_cast.h</text>
</a>
</g>
</g>
<!-- Node41&#45;&gt;Node42 -->
<g id="edge43" class="edge">
<title>Node41&#45;&gt;Node42</title>
<path fill="none" stroke="midnightblue" d="M551.12,-560.44C577.47,-552.76 615.28,-540.21 646,-524 672.51,-510.01 699.91,-488.79 717.18,-474.44"/>
<polygon fill="midnightblue" stroke="midnightblue" points="719.85,-476.76 725.23,-467.63 715.33,-471.42 719.85,-476.76"/>
</g>
<!-- Node44 -->
<g id="node29" class="node">
<title>Node44</title>
<g id="a_node29"><a xlink:href="std__types_8h.html" target="_top" xlink:title="Pre&#45;defined types.">
<polygon fill="none" stroke="black" points="564.5,-504.5 564.5,-523.5 637.5,-523.5 637.5,-504.5 564.5,-504.5"/>
<text text-anchor="middle" x="601" y="-511.5" font-family="Helvetica,sans-Serif" font-size="10.00">std_types.h</text>
</a>
</g>
</g>
<!-- Node41&#45;&gt;Node44 -->
<g id="edge50" class="edge">
<title>Node41&#45;&gt;Node44</title>
<path fill="none" stroke="midnightblue" d="M532.17,-560.32C544.85,-551.98 564.23,-539.21 579.21,-529.35"/>
<polygon fill="midnightblue" stroke="midnightblue" points="581.43,-532.08 587.86,-523.65 577.58,-526.23 581.43,-532.08"/>
</g>
<!-- Node42&#45;&gt;Node4 -->
<g id="edge48" class="edge">
<title>Node42&#45;&gt;Node4</title>
<path fill="none" stroke="midnightblue" d="M735,-448.08C735,-441.01 735,-430.86 735,-421.99"/>
<polygon fill="midnightblue" stroke="midnightblue" points="738.5,-421.75 735,-411.75 731.5,-421.75 738.5,-421.75"/>
</g>
<!-- Node42&#45;&gt;Node12 -->
<g id="edge47" class="edge">
<title>Node42&#45;&gt;Node12</title>
<path fill="none" stroke="midnightblue" d="M706.68,-448.44C669.11,-435.38 604.39,-406.52 577,-356 521.91,-254.39 739.4,-202.11 667,-112 647.42,-87.63 561.7,-75.68 507.8,-70.47"/>
<polygon fill="midnightblue" stroke="midnightblue" points="508.08,-66.98 497.8,-69.54 507.44,-73.95 508.08,-66.98"/>
</g>
<!-- Node42&#45;&gt;Node15 -->
<g id="edge45" class="edge">
<title>Node42&#45;&gt;Node15</title>
<path fill="none" stroke="midnightblue" d="M771.63,-453.61C862.87,-444.17 1093,-413.73 1093,-347 1093,-347 1093,-347 1093,-121 1093,-44.58 984.61,-21.24 921.04,-14.12"/>
<polygon fill="midnightblue" stroke="midnightblue" points="921.17,-10.61 910.86,-13.07 920.45,-17.57 921.17,-10.61"/>
</g>
<!-- Node42&#45;&gt;Node37 -->
<g id="edge46" class="edge">
<title>Node42&#45;&gt;Node37</title>
<path fill="none" stroke="midnightblue" d="M725.9,-448.37C706.42,-429.89 660.44,-386.29 635.6,-362.74"/>
<polygon fill="midnightblue" stroke="midnightblue" points="637.72,-359.93 628.06,-355.59 632.91,-365.01 637.72,-359.93"/>
</g>
<!-- Node43 -->
<g id="node28" class="node">
<title>Node43</title>
<g id="a_node28"><a xlink:title=" ">
<polygon fill="none" stroke="#bfbfbf" points="776.5,-392.5 776.5,-411.5 833.5,-411.5 833.5,-392.5 776.5,-392.5"/>
<text text-anchor="middle" x="805" y="-399.5" font-family="Helvetica,sans-Serif" font-size="10.00">typeinfo</text>
</a>
</g>
</g>
<!-- Node42&#45;&gt;Node43 -->
<g id="edge44" class="edge">
<title>Node42&#45;&gt;Node43</title>
<path fill="none" stroke="midnightblue" d="M746.25,-448.32C756.8,-440.18 772.8,-427.84 785.44,-418.09"/>
<polygon fill="midnightblue" stroke="midnightblue" points="787.77,-420.71 793.55,-411.83 783.49,-415.17 787.77,-420.71"/>
</g>
<!-- Node44&#45;&gt;Node4 -->
<g id="edge51" class="edge">
<title>Node44&#45;&gt;Node4</title>
<path fill="none" stroke="midnightblue" d="M611.51,-504.37C634.22,-485.73 688.06,-441.53 716.56,-418.13"/>
<polygon fill="midnightblue" stroke="midnightblue" points="719.03,-420.64 724.53,-411.59 714.58,-415.23 719.03,-420.64"/>
</g>
<!-- Node44&#45;&gt;Node12 -->
<g id="edge53" class="edge">
<title>Node44&#45;&gt;Node12</title>
<path fill="none" stroke="midnightblue" d="M583.66,-504.4C569.73,-496.66 550.63,-484.04 539,-468 490.49,-401.09 482,-373.65 482,-291 482,-291 482,-291 482,-177 482,-144.49 473.84,-107.35 468.22,-85.61"/>
<polygon fill="midnightblue" stroke="midnightblue" points="471.54,-84.5 465.56,-75.75 464.78,-86.32 471.54,-84.5"/>
</g>
<!-- Node44&#45;&gt;Node32 -->
<g id="edge58" class="edge">
<title>Node44&#45;&gt;Node32</title>
<path fill="none" stroke="midnightblue" d="M637.71,-509.14C675.47,-503.98 735.09,-492.47 781,-468 843.4,-434.73 868.47,-421.94 894,-356 897.21,-347.71 897.77,-344.05 894,-336 887.96,-323.09 876.19,-312.6 865.18,-305"/>
<polygon fill="midnightblue" stroke="midnightblue" points="866.94,-301.97 856.63,-299.54 863.17,-307.87 866.94,-301.97"/>
</g>
<!-- Node44&#45;&gt;Node42 -->
<g id="edge52" class="edge">
<title>Node44&#45;&gt;Node42</title>
<path fill="none" stroke="midnightblue" d="M622.23,-504.44C644.38,-495.52 679.32,-481.44 704.44,-471.32"/>
<polygon fill="midnightblue" stroke="midnightblue" points="705.9,-474.5 713.87,-467.52 703.28,-468.01 705.9,-474.5"/>
</g>
<!-- Node45 -->
<g id="node30" class="node">
<title>Node45</title>
<g id="a_node30"><a xlink:href="mp__arith_8h.html" target="_top" xlink:title=" ">
<polygon fill="none" stroke="black" points="87.5,-392.5 87.5,-411.5 156.5,-411.5 156.5,-392.5 87.5,-392.5"/>
<text text-anchor="middle" x="122" y="-399.5" font-family="Helvetica,sans-Serif" font-size="10.00">mp_arith.h</text>
</a>
</g>
</g>
<!-- Node44&#45;&gt;Node45 -->
<g id="edge54" class="edge">
<title>Node44&#45;&gt;Node45</title>
<path fill="none" stroke="midnightblue" d="M564.48,-510.07C506.91,-504.91 391.83,-492.34 297,-468 243.86,-454.36 184.47,-430.33 150.34,-415.62"/>
<polygon fill="midnightblue" stroke="midnightblue" points="151.57,-412.34 141,-411.56 148.77,-418.76 151.57,-412.34"/>
</g>
<!-- Node23 -->
<g id="node32" class="node">
<title>Node23</title>
<g id="a_node32"><a xlink:title=" ">
<polygon fill="none" stroke="#bfbfbf" points="548.5,-448.5 548.5,-467.5 641.5,-467.5 641.5,-448.5 548.5,-448.5"/>
<text text-anchor="middle" x="595" y="-455.5" font-family="Helvetica,sans-Serif" font-size="10.00">unordered_map</text>
</a>
</g>
</g>
<!-- Node44&#45;&gt;Node23 -->
<g id="edge59" class="edge">
<title>Node44&#45;&gt;Node23</title>
<path fill="none" stroke="midnightblue" d="M600.01,-504.08C599.21,-496.93 598.07,-486.64 597.08,-477.69"/>
<polygon fill="midnightblue" stroke="midnightblue" points="600.56,-477.3 595.97,-467.75 593.6,-478.08 600.56,-477.3"/>
</g>
<!-- Node45&#45;&gt;Node10 -->
<g id="edge56" class="edge">
<title>Node45&#45;&gt;Node10</title>
<path fill="none" stroke="midnightblue" d="M100.19,-392.45C85.06,-385.22 66.05,-373.26 57,-356 52.87,-348.13 56.17,-344.85 57,-336 61.24,-290.52 76,-280.68 76,-235 76,-235 76,-235 76,-121 76,-65.24 262.92,-28.64 339.68,-15.96"/>
<polygon fill="midnightblue" stroke="midnightblue" points="340.44,-19.38 349.75,-14.33 339.32,-12.47 340.44,-19.38"/>
</g>
<!-- Node45&#45;&gt;Node18 -->
<g id="edge55" class="edge">
<title>Node45&#45;&gt;Node18</title>
<path fill="none" stroke="midnightblue" d="M134.85,-392.32C147.22,-383.98 166.13,-371.21 180.74,-361.35"/>
<polygon fill="midnightblue" stroke="midnightblue" points="182.85,-364.15 189.18,-355.65 178.93,-358.35 182.85,-364.15"/>
</g>
<!-- Node46 -->
<g id="node31" class="node">
<title>Node46</title>
<g id="a_node31"><a xlink:title=" ">
<polygon fill="none" stroke="#bfbfbf" points="66,-336.5 66,-355.5 160,-355.5 160,-336.5 66,-336.5"/>
<text text-anchor="middle" x="113" y="-343.5" font-family="Helvetica,sans-Serif" font-size="10.00">big&#45;int/bigint.hh</text>
</a>
</g>
</g>
<!-- Node45&#45;&gt;Node46 -->
<g id="edge57" class="edge">
<title>Node45&#45;&gt;Node46</title>
<path fill="none" stroke="midnightblue" d="M120.51,-392.08C119.32,-384.93 117.61,-374.64 116.12,-365.69"/>
<polygon fill="midnightblue" stroke="midnightblue" points="119.55,-365.04 114.46,-355.75 112.65,-366.19 119.55,-365.04"/>
</g>
<!-- Node47&#45;&gt;Node12 -->
<g id="edge63" class="edge">
<title>Node47&#45;&gt;Node12</title>
<path fill="none" stroke="midnightblue" d="M747.29,-567.03C855.85,-560.91 1131,-537.66 1131,-459 1131,-459 1131,-459 1131,-289 1131,-157.27 657.31,-89.97 507.71,-72"/>
<polygon fill="midnightblue" stroke="midnightblue" points="507.85,-68.5 497.51,-70.8 507.03,-75.45 507.85,-68.5"/>
</g>
<!-- Node47&#45;&gt;Node42 -->
<g id="edge62" class="edge">
<title>Node47&#45;&gt;Node42</title>
<path fill="none" stroke="midnightblue" d="M706.43,-560.37C711.46,-542.54 723.08,-501.3 729.85,-477.27"/>
<polygon fill="midnightblue" stroke="midnightblue" points="733.23,-478.17 732.58,-467.59 726.5,-476.27 733.23,-478.17"/>
</g>
<!-- Node47&#45;&gt;Node44 -->
<g id="edge64" class="edge">
<title>Node47&#45;&gt;Node44</title>
<path fill="none" stroke="midnightblue" d="M687.45,-560.32C671.01,-551.7 645.57,-538.36 626.53,-528.39"/>
<polygon fill="midnightblue" stroke="midnightblue" points="627.99,-525.2 617.51,-523.65 624.74,-531.4 627.99,-525.2"/>
</g>
<!-- Node48&#45;&gt;Node41 -->
<g id="edge68" class="edge">
<title>Node48&#45;&gt;Node41</title>
<path fill="none" stroke="midnightblue" d="M616.67,-621.98C597.79,-612.12 566.49,-595.79 544.42,-584.27"/>
<polygon fill="midnightblue" stroke="midnightblue" points="545.79,-581.03 535.3,-579.51 542.55,-587.24 545.79,-581.03"/>
</g>
<!-- Node48&#45;&gt;Node47 -->
<g id="edge69" class="edge">
<title>Node48&#45;&gt;Node47</title>
<path fill="none" stroke="midnightblue" d="M643.17,-621.98C654.35,-612.61 672.52,-597.38 686.09,-586.01"/>
<polygon fill="midnightblue" stroke="midnightblue" points="688.43,-588.61 693.85,-579.51 683.93,-583.25 688.43,-588.61"/>
</g>
<!-- Node48&#45;&gt;Node22 -->
<g id="edge67" class="edge">
<title>Node48&#45;&gt;Node22</title>
<path fill="none" stroke="midnightblue" d="M630.85,-621.98C628.71,-613.49 625.36,-600.2 622.62,-589.32"/>
<polygon fill="midnightblue" stroke="midnightblue" points="625.98,-588.35 620.15,-579.51 619.2,-590.06 625.98,-588.35"/>
</g>
<!-- Node49&#45;&gt;Node47 -->
<g id="edge71" class="edge">
<title>Node49&#45;&gt;Node47</title>
<path fill="none" stroke="midnightblue" d="M747.69,-621.98C739.97,-612.96 727.59,-598.52 717.98,-587.31"/>
<polygon fill="midnightblue" stroke="midnightblue" points="720.46,-584.82 711.29,-579.51 715.14,-589.38 720.46,-584.82"/>
</g>
<!-- Node50&#45;&gt;Node40 -->
<g id="edge74" class="edge">
<title>Node50&#45;&gt;Node40</title>
<path fill="none" stroke="midnightblue" d="M572.86,-683.4C562.09,-674.54 548.02,-662.96 536.02,-653.09"/>
<polygon fill="midnightblue" stroke="midnightblue" points="538.05,-650.23 528.11,-646.58 533.61,-655.63 538.05,-650.23"/>
</g>
</g>
</svg>
