<?xml version="1.0" encoding="UTF-8" standalone="no"?>
<!DOCTYPE svg PUBLIC "-//W3C//DTD SVG 1.1//EN"
 "http://www.w3.org/Graphics/SVG/1.1/DTD/svg11.dtd">
<!-- Generated by graphviz version 2.43.0 (0)
 -->
<!-- Title: /home/runner/work/cbmc/cbmc/src/statement&#45;list/statement_list_parse_tree_io.cpp Pages: 1 -->
<svg width="786pt" height="576pt"
 viewBox="0.00 0.00 785.97 576.00" xmlns="http://www.w3.org/2000/svg" xmlns:xlink="http://www.w3.org/1999/xlink">
<g id="graph0" class="graph" transform="scale(1 1) rotate(0) translate(4 572)">
<title>/home/runner/work/cbmc/cbmc/src/statement&#45;list/statement_list_parse_tree_io.cpp</title>
<!-- Node1 -->
<g id="node1" class="node">
<title>Node1</title>
<g id="a_node1"><a xlink:title="Statement List Language Parse Tree Output.">
<polygon fill="#bfbfbf" stroke="black" points="284,-526.5 284,-567.5 466,-567.5 466,-526.5 284,-526.5"/>
<text text-anchor="start" x="292" y="-555.5" font-family="Helvetica,sans-Serif" font-size="10.00">/home/runner/work/cbmc</text>
<text text-anchor="start" x="292" y="-544.5" font-family="Helvetica,sans-Serif" font-size="10.00">/cbmc/src/statement&#45;list</text>
<text text-anchor="middle" x="375" y="-533.5" font-family="Helvetica,sans-Serif" font-size="10.00">/statement_list_parse_tree_io.cpp</text>
</a>
</g>
</g>
<!-- Node2 -->
<g id="node2" class="node">
<title>Node2</title>
<g id="a_node2"><a xlink:href="statement__list__parse__tree__io_8h.html" target="_top" xlink:title="Statement List Language Parse Tree Output.">
<polygon fill="none" stroke="black" points="170.5,-459.5 170.5,-489.5 289.5,-489.5 289.5,-459.5 170.5,-459.5"/>
<text text-anchor="start" x="178.5" y="-477.5" font-family="Helvetica,sans-Serif" font-size="10.00">statement_list_parse</text>
<text text-anchor="middle" x="230" y="-466.5" font-family="Helvetica,sans-Serif" font-size="10.00">_tree_io.h</text>
</a>
</g>
</g>
<!-- Node1&#45;&gt;Node2 -->
<g id="edge1" class="edge">
<title>Node1&#45;&gt;Node2</title>
<path fill="none" stroke="midnightblue" d="M334.61,-526.36C313.83,-516.26 288.63,-504.01 268.18,-494.06"/>
<polygon fill="midnightblue" stroke="midnightblue" points="269.67,-490.9 259.14,-489.67 266.61,-497.19 269.67,-490.9"/>
</g>
<!-- Node45 -->
<g id="node27" class="node">
<title>Node45</title>
<g id="a_node27"><a xlink:href="arith__tools_8h.html" target="_top" xlink:title=" ">
<polygon fill="none" stroke="black" points="295,-398 295,-417 391,-417 391,-398 295,-398"/>
<text text-anchor="middle" x="343" y="-405" font-family="Helvetica,sans-Serif" font-size="10.00">util/arith_tools.h</text>
</a>
</g>
</g>
<!-- Node1&#45;&gt;Node45 -->
<g id="edge42" class="edge">
<title>Node1&#45;&gt;Node45</title>
<path fill="none" stroke="midnightblue" d="M364.29,-526.37C359.08,-515.88 353.25,-502.58 350,-490 344.57,-469 343.13,-444.04 342.85,-427.33"/>
<polygon fill="midnightblue" stroke="midnightblue" points="346.35,-427.21 342.81,-417.22 339.35,-427.24 346.35,-427.21"/>
</g>
<!-- Node47 -->
<g id="node29" class="node">
<title>Node47</title>
<g id="a_node29"><a xlink:href="bitvector__types_8h.html" target="_top" xlink:title="Pre&#45;defined bitvector types.">
<polygon fill="none" stroke="black" points="359,-465 359,-484 479,-484 479,-465 359,-465"/>
<text text-anchor="middle" x="419" y="-472" font-family="Helvetica,sans-Serif" font-size="10.00">util/bitvector_types.h</text>
</a>
</g>
</g>
<!-- Node1&#45;&gt;Node47 -->
<g id="edge47" class="edge">
<title>Node1&#45;&gt;Node47</title>
<path fill="none" stroke="midnightblue" d="M387.26,-526.36C393.81,-515.86 401.8,-503.05 408.13,-492.91"/>
<polygon fill="midnightblue" stroke="midnightblue" points="411.26,-494.51 413.59,-484.17 405.32,-490.8 411.26,-494.51"/>
</g>
<!-- Node48 -->
<g id="node30" class="node">
<title>Node48</title>
<g id="a_node30"><a xlink:href="ieee__float_8h.html" target="_top" xlink:title=" ">
<polygon fill="none" stroke="black" points="548,-280.5 548,-299.5 640,-299.5 640,-280.5 548,-280.5"/>
<text text-anchor="middle" x="594" y="-287.5" font-family="Helvetica,sans-Serif" font-size="10.00">util/ieee_float.h</text>
</a>
</g>
</g>
<!-- Node1&#45;&gt;Node48 -->
<g id="edge49" class="edge">
<title>Node1&#45;&gt;Node48</title>
<path fill="none" stroke="midnightblue" d="M431.08,-526.48C450.78,-517.61 471.98,-505.56 488,-490 543.21,-436.39 576.13,-347.76 588.44,-309.51"/>
<polygon fill="midnightblue" stroke="midnightblue" points="591.85,-310.33 591.49,-299.74 585.17,-308.25 591.85,-310.33"/>
</g>
<!-- Node50 -->
<g id="node32" class="node">
<title>Node50</title>
<g id="a_node32"><a xlink:href="std__code_8h.html" target="_top" xlink:title=" ">
<polygon fill="none" stroke="black" points="51,-398 51,-417 139,-417 139,-398 51,-398"/>
<text text-anchor="middle" x="95" y="-405" font-family="Helvetica,sans-Serif" font-size="10.00">util/std_code.h</text>
</a>
</g>
</g>
<!-- Node1&#45;&gt;Node50 -->
<g id="edge53" class="edge">
<title>Node1&#45;&gt;Node50</title>
<path fill="none" stroke="midnightblue" d="M283.94,-535.23C243.84,-527.32 197.63,-513.63 161,-490 135.84,-473.77 115.77,-444.76 104.63,-426.09"/>
<polygon fill="midnightblue" stroke="midnightblue" points="107.52,-424.09 99.52,-417.16 101.45,-427.57 107.52,-424.09"/>
</g>
<!-- Node51 -->
<g id="node33" class="node">
<title>Node51</title>
<g id="a_node33"><a xlink:href="statement__list__types_8h.html" target="_top" xlink:title="Statement List Type Helper.">
<polygon fill="none" stroke="black" points="535,-459.5 535,-489.5 657,-489.5 657,-459.5 535,-459.5"/>
<text text-anchor="start" x="543" y="-477.5" font-family="Helvetica,sans-Serif" font-size="10.00">converters/statement</text>
<text text-anchor="middle" x="596" y="-466.5" font-family="Helvetica,sans-Serif" font-size="10.00">_list_types.h</text>
</a>
</g>
</g>
<!-- Node1&#45;&gt;Node51 -->
<g id="edge57" class="edge">
<title>Node1&#45;&gt;Node51</title>
<path fill="none" stroke="midnightblue" d="M436.27,-526.46C469.49,-515.86 510.18,-502.88 542.18,-492.67"/>
<polygon fill="midnightblue" stroke="midnightblue" points="543.35,-495.97 551.81,-489.6 541.22,-489.3 543.35,-495.97"/>
</g>
<!-- Node3 -->
<g id="node3" class="node">
<title>Node3</title>
<g id="a_node3"><a xlink:href="statement__list__parse__tree_8h.html" target="_top" xlink:title="Statement List Language Parse Tree.">
<polygon fill="none" stroke="black" points="157.5,-392.5 157.5,-422.5 276.5,-422.5 276.5,-392.5 157.5,-392.5"/>
<text text-anchor="start" x="165.5" y="-410.5" font-family="Helvetica,sans-Serif" font-size="10.00">statement_list_parse</text>
<text text-anchor="middle" x="217" y="-399.5" font-family="Helvetica,sans-Serif" font-size="10.00">_tree.h</text>
</a>
</g>
</g>
<!-- Node2&#45;&gt;Node3 -->
<g id="edge2" class="edge">
<title>Node2&#45;&gt;Node3</title>
<path fill="none" stroke="midnightblue" d="M227.18,-459.4C225.61,-451.56 223.62,-441.6 221.81,-432.57"/>
<polygon fill="midnightblue" stroke="midnightblue" points="225.21,-431.7 219.82,-422.58 218.34,-433.07 225.21,-431.7"/>
</g>
<!-- Node4 -->
<g id="node4" class="node">
<title>Node4</title>
<g id="a_node4"><a xlink:href="std__code__base_8h.html" target="_top" xlink:title=" ">
<polygon fill="none" stroke="black" points="50,-336.5 50,-355.5 166,-355.5 166,-336.5 50,-336.5"/>
<text text-anchor="middle" x="108" y="-343.5" font-family="Helvetica,sans-Serif" font-size="10.00">util/std_code_base.h</text>
</a>
</g>
</g>
<!-- Node3&#45;&gt;Node4 -->
<g id="edge3" class="edge">
<title>Node3&#45;&gt;Node4</title>
<path fill="none" stroke="midnightblue" d="M191.17,-392.4C173.53,-382.77 150.3,-370.09 132.87,-360.58"/>
<polygon fill="midnightblue" stroke="midnightblue" points="134.31,-357.38 123.86,-355.66 130.96,-363.52 134.31,-357.38"/>
</g>
<!-- Node44 -->
<g id="node25" class="node">
<title>Node44</title>
<g id="a_node25"><a xlink:href="std__expr_8h.html" target="_top" xlink:title="API to expression classes.">
<polygon fill="none" stroke="black" points="184,-336.5 184,-355.5 270,-355.5 270,-336.5 184,-336.5"/>
<text text-anchor="middle" x="227" y="-343.5" font-family="Helvetica,sans-Serif" font-size="10.00">util/std_expr.h</text>
</a>
</g>
</g>
<!-- Node3&#45;&gt;Node44 -->
<g id="edge37" class="edge">
<title>Node3&#45;&gt;Node44</title>
<path fill="none" stroke="midnightblue" d="M219.37,-392.4C220.72,-384.38 222.42,-374.23 223.88,-365.57"/>
<polygon fill="midnightblue" stroke="midnightblue" points="227.34,-366.1 225.54,-355.66 220.44,-364.94 227.34,-366.1"/>
</g>
<!-- Node26 -->
<g id="node26" class="node">
<title>Node26</title>
<g id="a_node26"><a xlink:title=" ">
<polygon fill="none" stroke="#bfbfbf" points="0,-336.5 0,-355.5 32,-355.5 32,-336.5 0,-336.5"/>
<text text-anchor="middle" x="16" y="-343.5" font-family="Helvetica,sans-Serif" font-size="10.00">list</text>
</a>
</g>
</g>
<!-- Node3&#45;&gt;Node26 -->
<g id="edge41" class="edge">
<title>Node3&#45;&gt;Node26</title>
<path fill="none" stroke="midnightblue" d="M164.74,-392.48C131.85,-383.43 88.34,-371.06 41.75,-356.1"/>
<polygon fill="midnightblue" stroke="midnightblue" points="42.68,-352.72 32.08,-352.97 40.52,-359.38 42.68,-352.72"/>
</g>
<!-- Node5 -->
<g id="node5" class="node">
<title>Node5</title>
<g id="a_node5"><a xlink:href="expr__cast_8h.html" target="_top" xlink:title="Templated functions to cast to specific exprt&#45;derived classes.">
<polygon fill="none" stroke="black" points="249.5,-224.5 249.5,-243.5 322.5,-243.5 322.5,-224.5 249.5,-224.5"/>
<text text-anchor="middle" x="286" y="-231.5" font-family="Helvetica,sans-Serif" font-size="10.00">expr_cast.h</text>
</a>
</g>
</g>
<!-- Node4&#45;&gt;Node5 -->
<g id="edge4" class="edge">
<title>Node4&#45;&gt;Node5</title>
<path fill="none" stroke="midnightblue" d="M121.97,-336.37C152.64,-317.41 226.13,-272 263.44,-248.94"/>
<polygon fill="midnightblue" stroke="midnightblue" points="265.43,-251.83 272.1,-243.59 261.75,-245.87 265.43,-251.83"/>
</g>
<!-- Node9 -->
<g id="node9" class="node">
<title>Node9</title>
<g id="a_node9"><a xlink:href="src_2util_2invariant_8h.html" target="_top" xlink:title=" ">
<polygon fill="none" stroke="black" points="72.5,-168.5 72.5,-187.5 141.5,-187.5 141.5,-168.5 72.5,-168.5"/>
<text text-anchor="middle" x="107" y="-175.5" font-family="Helvetica,sans-Serif" font-size="10.00">invariant.h</text>
</a>
</g>
</g>
<!-- Node4&#45;&gt;Node9 -->
<g id="edge25" class="edge">
<title>Node4&#45;&gt;Node9</title>
<path fill="none" stroke="midnightblue" d="M104.75,-336.18C101.62,-327.21 97.05,-312.85 95,-300 89.67,-266.63 87.92,-257.41 93,-224 94.37,-215 97.19,-205.33 99.95,-197.26"/>
<polygon fill="midnightblue" stroke="midnightblue" points="103.27,-198.37 103.4,-187.78 96.69,-195.98 103.27,-198.37"/>
</g>
<!-- Node36 -->
<g id="node16" class="node">
<title>Node36</title>
<g id="a_node16"><a xlink:href="validate_8h.html" target="_top" xlink:title=" ">
<polygon fill="none" stroke="red" points="392.5,-56.5 392.5,-75.5 457.5,-75.5 457.5,-56.5 392.5,-56.5"/>
<text text-anchor="middle" x="425" y="-63.5" font-family="Helvetica,sans-Serif" font-size="10.00">validate.h</text>
</a>
</g>
</g>
<!-- Node4&#45;&gt;Node36 -->
<g id="edge36" class="edge">
<title>Node4&#45;&gt;Node36</title>
<path fill="none" stroke="midnightblue" d="M113.65,-336.18C131.28,-309.04 187.74,-225.17 248,-168 279.22,-138.38 289.73,-133.52 327,-112 348.64,-99.51 374.35,-87.81 394,-79.48"/>
<polygon fill="midnightblue" stroke="midnightblue" points="395.52,-82.63 403.4,-75.55 392.82,-76.18 395.52,-82.63"/>
</g>
<!-- Node41 -->
<g id="node20" class="node">
<title>Node41</title>
<g id="a_node20"><a xlink:href="std__types_8h.html" target="_top" xlink:title="Pre&#45;defined types.">
<polygon fill="none" stroke="black" points="350.5,-280.5 350.5,-299.5 423.5,-299.5 423.5,-280.5 350.5,-280.5"/>
<text text-anchor="middle" x="387" y="-287.5" font-family="Helvetica,sans-Serif" font-size="10.00">std_types.h</text>
</a>
</g>
</g>
<!-- Node4&#45;&gt;Node41 -->
<g id="edge26" class="edge">
<title>Node4&#45;&gt;Node41</title>
<path fill="none" stroke="midnightblue" d="M152.21,-336.44C203.49,-326.52 287.68,-310.22 340.09,-300.08"/>
<polygon fill="midnightblue" stroke="midnightblue" points="340.97,-303.47 350.13,-298.14 339.64,-296.6 340.97,-303.47"/>
</g>
<!-- Node6 -->
<g id="node6" class="node">
<title>Node6</title>
<g id="a_node6"><a xlink:title=" ">
<polygon fill="none" stroke="#bfbfbf" points="257.5,-168.5 257.5,-187.5 314.5,-187.5 314.5,-168.5 257.5,-168.5"/>
<text text-anchor="middle" x="286" y="-175.5" font-family="Helvetica,sans-Serif" font-size="10.00">typeinfo</text>
</a>
</g>
</g>
<!-- Node5&#45;&gt;Node6 -->
<g id="edge5" class="edge">
<title>Node5&#45;&gt;Node6</title>
<path fill="none" stroke="midnightblue" d="M286,-224.08C286,-217.01 286,-206.86 286,-197.99"/>
<polygon fill="midnightblue" stroke="midnightblue" points="289.5,-197.75 286,-187.75 282.5,-197.75 289.5,-197.75"/>
</g>
<!-- Node7 -->
<g id="node7" class="node">
<title>Node7</title>
<g id="a_node7"><a xlink:title=" ">
<polygon fill="none" stroke="#bfbfbf" points="173.5,-0.5 173.5,-19.5 242.5,-19.5 242.5,-0.5 173.5,-0.5"/>
<text text-anchor="middle" x="208" y="-7.5" font-family="Helvetica,sans-Serif" font-size="10.00">type_traits</text>
</a>
</g>
</g>
<!-- Node5&#45;&gt;Node7 -->
<g id="edge6" class="edge">
<title>Node5&#45;&gt;Node7</title>
<path fill="none" stroke="midnightblue" d="M277.15,-224.39C268.73,-215.81 256.17,-201.94 248,-188 217.8,-136.45 210.39,-64.15 208.58,-30.12"/>
<polygon fill="midnightblue" stroke="midnightblue" points="212.06,-29.63 208.15,-19.78 205.07,-29.92 212.06,-29.63"/>
</g>
<!-- Node8 -->
<g id="node8" class="node">
<title>Node8</title>
<g id="a_node8"><a xlink:title=" ">
<polygon fill="none" stroke="#bfbfbf" points="336.5,-112.5 336.5,-131.5 401.5,-131.5 401.5,-112.5 336.5,-112.5"/>
<text text-anchor="middle" x="369" y="-119.5" font-family="Helvetica,sans-Serif" font-size="10.00">functional</text>
</a>
</g>
</g>
<!-- Node5&#45;&gt;Node8 -->
<g id="edge7" class="edge">
<title>Node5&#45;&gt;Node8</title>
<path fill="none" stroke="midnightblue" d="M293.56,-224.19C301.18,-215.23 313.18,-200.86 323,-188 335.15,-172.08 348.28,-153.37 357.39,-140.12"/>
<polygon fill="midnightblue" stroke="midnightblue" points="360.49,-141.79 363.24,-131.55 354.71,-137.84 360.49,-141.79"/>
</g>
<!-- Node5&#45;&gt;Node9 -->
<g id="edge8" class="edge">
<title>Node5&#45;&gt;Node9</title>
<path fill="none" stroke="midnightblue" d="M257.64,-224.44C227.26,-215.28 178.89,-200.69 145.18,-190.52"/>
<polygon fill="midnightblue" stroke="midnightblue" points="145.82,-187.05 135.23,-187.52 143.79,-193.76 145.82,-187.05"/>
</g>
<!-- Node13 -->
<g id="node13" class="node">
<title>Node13</title>
<g id="a_node13"><a xlink:href="expr_8h.html" target="_top" xlink:title=" ">
<polygon fill="none" stroke="black" points="458.5,-168.5 458.5,-187.5 505.5,-187.5 505.5,-168.5 458.5,-168.5"/>
<text text-anchor="middle" x="482" y="-175.5" font-family="Helvetica,sans-Serif" font-size="10.00">expr.h</text>
</a>
</g>
</g>
<!-- Node5&#45;&gt;Node13 -->
<g id="edge13" class="edge">
<title>Node5&#45;&gt;Node13</title>
<path fill="none" stroke="midnightblue" d="M317.06,-224.44C352.97,-214.55 411.86,-198.32 448.7,-188.17"/>
<polygon fill="midnightblue" stroke="midnightblue" points="449.76,-191.51 458.47,-185.48 447.9,-184.76 449.76,-191.51"/>
</g>
<!-- Node9&#45;&gt;Node7 -->
<g id="edge12" class="edge">
<title>Node9&#45;&gt;Node7</title>
<path fill="none" stroke="midnightblue" d="M88.49,-168.46C66.43,-157.01 34.07,-135.38 47,-112 72.8,-65.35 130.16,-37.36 168.97,-23.05"/>
<polygon fill="midnightblue" stroke="midnightblue" points="170.63,-26.17 178.89,-19.54 168.3,-19.57 170.63,-26.17"/>
</g>
<!-- Node10 -->
<g id="node10" class="node">
<title>Node10</title>
<g id="a_node10"><a xlink:title=" ">
<polygon fill="none" stroke="#bfbfbf" points="56.5,-112.5 56.5,-131.5 105.5,-131.5 105.5,-112.5 56.5,-112.5"/>
<text text-anchor="middle" x="81" y="-119.5" font-family="Helvetica,sans-Serif" font-size="10.00">cstdlib</text>
</a>
</g>
</g>
<!-- Node9&#45;&gt;Node10 -->
<g id="edge9" class="edge">
<title>Node9&#45;&gt;Node10</title>
<path fill="none" stroke="midnightblue" d="M102.71,-168.08C99.15,-160.69 93.98,-149.95 89.58,-140.81"/>
<polygon fill="midnightblue" stroke="midnightblue" points="92.71,-139.24 85.21,-131.75 86.4,-142.28 92.71,-139.24"/>
</g>
<!-- Node11 -->
<g id="node11" class="node">
<title>Node11</title>
<g id="a_node11"><a xlink:title=" ">
<polygon fill="none" stroke="#bfbfbf" points="124,-112.5 124,-131.5 180,-131.5 180,-112.5 124,-112.5"/>
<text text-anchor="middle" x="152" y="-119.5" font-family="Helvetica,sans-Serif" font-size="10.00">sstream</text>
</a>
</g>
</g>
<!-- Node9&#45;&gt;Node11 -->
<g id="edge10" class="edge">
<title>Node9&#45;&gt;Node11</title>
<path fill="none" stroke="midnightblue" d="M114.43,-168.08C120.85,-160.38 130.31,-149.03 138.12,-139.65"/>
<polygon fill="midnightblue" stroke="midnightblue" points="140.99,-141.67 144.71,-131.75 135.62,-137.19 140.99,-141.67"/>
</g>
<!-- Node12 -->
<g id="node12" class="node">
<title>Node12</title>
<g id="a_node12"><a xlink:title=" ">
<polygon fill="none" stroke="#bfbfbf" points="236,-112.5 236,-131.5 280,-131.5 280,-112.5 236,-112.5"/>
<text text-anchor="middle" x="258" y="-119.5" font-family="Helvetica,sans-Serif" font-size="10.00">string</text>
</a>
</g>
</g>
<!-- Node9&#45;&gt;Node12 -->
<g id="edge11" class="edge">
<title>Node9&#45;&gt;Node12</title>
<path fill="none" stroke="midnightblue" d="M130.93,-168.44C156.67,-159.24 197.72,-144.56 226.17,-134.38"/>
<polygon fill="midnightblue" stroke="midnightblue" points="227.42,-137.65 235.66,-130.99 225.07,-131.06 227.42,-137.65"/>
</g>
<!-- Node13&#45;&gt;Node8 -->
<g id="edge24" class="edge">
<title>Node13&#45;&gt;Node8</title>
<path fill="none" stroke="midnightblue" d="M464.09,-168.44C445.75,-159.68 416.99,-145.94 395.91,-135.86"/>
<polygon fill="midnightblue" stroke="midnightblue" points="397.35,-132.67 386.82,-131.52 394.33,-138.99 397.35,-132.67"/>
</g>
<!-- Node14 -->
<g id="node14" class="node">
<title>Node14</title>
<g id="a_node14"><a xlink:href="as__const_8h.html" target="_top" xlink:title=" ">
<polygon fill="none" stroke="black" points="671,-112.5 671,-131.5 739,-131.5 739,-112.5 671,-112.5"/>
<text text-anchor="middle" x="705" y="-119.5" font-family="Helvetica,sans-Serif" font-size="10.00">as_const.h</text>
</a>
</g>
</g>
<!-- Node13&#45;&gt;Node14 -->
<g id="edge14" class="edge">
<title>Node13&#45;&gt;Node14</title>
<path fill="none" stroke="midnightblue" d="M505.77,-170.42C508.87,-169.59 512.01,-168.76 515,-168 564.91,-155.29 622.49,-141.82 661.07,-132.96"/>
<polygon fill="midnightblue" stroke="midnightblue" points="661.97,-136.35 670.94,-130.7 660.41,-129.52 661.97,-136.35"/>
</g>
<!-- Node15 -->
<g id="node15" class="node">
<title>Node15</title>
<g id="a_node15"><a xlink:href="type_8h.html" target="_top" xlink:title="Defines typet, type_with_subtypet and type_with_subtypest.">
<polygon fill="none" stroke="red" points="458.5,-112.5 458.5,-131.5 505.5,-131.5 505.5,-112.5 458.5,-112.5"/>
<text text-anchor="middle" x="482" y="-119.5" font-family="Helvetica,sans-Serif" font-size="10.00">type.h</text>
</a>
</g>
</g>
<!-- Node13&#45;&gt;Node15 -->
<g id="edge15" class="edge">
<title>Node13&#45;&gt;Node15</title>
<path fill="none" stroke="midnightblue" d="M482,-168.08C482,-161.01 482,-150.86 482,-141.99"/>
<polygon fill="midnightblue" stroke="midnightblue" points="485.5,-141.75 482,-131.75 478.5,-141.75 485.5,-141.75"/>
</g>
<!-- Node38 -->
<g id="node17" class="node">
<title>Node38</title>
<g id="a_node17"><a xlink:href="validation__mode_8h.html" target="_top" xlink:title=" ">
<polygon fill="none" stroke="black" points="432.5,-0.5 432.5,-19.5 539.5,-19.5 539.5,-0.5 432.5,-0.5"/>
<text text-anchor="middle" x="486" y="-7.5" font-family="Helvetica,sans-Serif" font-size="10.00">validation_mode.h</text>
</a>
</g>
</g>
<!-- Node13&#45;&gt;Node38 -->
<g id="edge23" class="edge">
<title>Node13&#45;&gt;Node38</title>
<path fill="none" stroke="midnightblue" d="M505.71,-170.16C508.82,-169.37 511.98,-168.63 515,-168 569.74,-156.62 727.4,-174.27 764,-132 828.46,-57.55 650.25,-27.3 549.62,-16.4"/>
<polygon fill="midnightblue" stroke="midnightblue" points="549.85,-12.91 539.54,-15.35 549.12,-19.87 549.85,-12.91"/>
</g>
<!-- Node39 -->
<g id="node18" class="node">
<title>Node39</title>
<g id="a_node18"><a xlink:href="validate__types_8h.html" target="_top" xlink:title=" ">
<polygon fill="none" stroke="black" points="595,-56.5 595,-75.5 693,-75.5 693,-56.5 595,-56.5"/>
<text text-anchor="middle" x="644" y="-63.5" font-family="Helvetica,sans-Serif" font-size="10.00">validate_types.h</text>
</a>
</g>
</g>
<!-- Node13&#45;&gt;Node39 -->
<g id="edge22" class="edge">
<title>Node13&#45;&gt;Node39</title>
<path fill="none" stroke="midnightblue" d="M505.71,-170.19C508.82,-169.4 511.98,-168.64 515,-168 566.24,-157.09 713.9,-171.77 748,-132 769.12,-107.37 728.25,-89.03 691.7,-78.22"/>
<polygon fill="midnightblue" stroke="midnightblue" points="692.63,-74.85 682.05,-75.5 690.73,-81.58 692.63,-74.85"/>
</g>
<!-- Node40 -->
<g id="node19" class="node">
<title>Node40</title>
<g id="a_node19"><a xlink:href="validate__expressions_8h.html" target="_top" xlink:title=" ">
<polygon fill="none" stroke="black" points="523.5,-112.5 523.5,-131.5 652.5,-131.5 652.5,-112.5 523.5,-112.5"/>
<text text-anchor="middle" x="588" y="-119.5" font-family="Helvetica,sans-Serif" font-size="10.00">validate_expressions.h</text>
</a>
</g>
</g>
<!-- Node13&#45;&gt;Node40 -->
<g id="edge21" class="edge">
<title>Node13&#45;&gt;Node40</title>
<path fill="none" stroke="midnightblue" d="M499.03,-168.32C516.03,-159.66 542.38,-146.24 561.99,-136.25"/>
<polygon fill="midnightblue" stroke="midnightblue" points="563.69,-139.31 571.01,-131.65 560.51,-133.08 563.69,-139.31"/>
</g>
<!-- Node15&#45;&gt;Node36 -->
<g id="edge16" class="edge">
<title>Node15&#45;&gt;Node36</title>
<path fill="none" stroke="midnightblue" d="M472.84,-112.32C464.5,-104.42 451.97,-92.55 441.82,-82.94"/>
<polygon fill="midnightblue" stroke="midnightblue" points="443.99,-80.17 434.32,-75.83 439.18,-85.25 443.99,-80.17"/>
</g>
<!-- Node15&#45;&gt;Node38 -->
<g id="edge20" class="edge">
<title>Node15&#45;&gt;Node38</title>
<path fill="none" stroke="midnightblue" d="M482.31,-112.37C482.96,-94.62 484.45,-53.67 485.32,-29.6"/>
<polygon fill="midnightblue" stroke="midnightblue" points="488.82,-29.71 485.69,-19.59 481.83,-29.46 488.82,-29.71"/>
</g>
<!-- Node15&#45;&gt;Node39 -->
<g id="edge19" class="edge">
<title>Node15&#45;&gt;Node39</title>
<path fill="none" stroke="midnightblue" d="M505.56,-113.15C532.64,-104.12 577.37,-89.21 608.63,-78.79"/>
<polygon fill="midnightblue" stroke="midnightblue" points="609.89,-82.06 618.27,-75.58 607.68,-75.42 609.89,-82.06"/>
</g>
<!-- Node36&#45;&gt;Node7 -->
<g id="edge17" class="edge">
<title>Node36&#45;&gt;Node7</title>
<path fill="none" stroke="midnightblue" d="M392.04,-56.8C354.69,-47.5 293.63,-32.31 252.17,-21.99"/>
<polygon fill="midnightblue" stroke="midnightblue" points="252.89,-18.57 242.34,-19.55 251.2,-25.36 252.89,-18.57"/>
</g>
<!-- Node36&#45;&gt;Node38 -->
<g id="edge18" class="edge">
<title>Node36&#45;&gt;Node38</title>
<path fill="none" stroke="midnightblue" d="M434.8,-56.32C443.82,-48.34 457.41,-36.31 468.32,-26.65"/>
<polygon fill="midnightblue" stroke="midnightblue" points="470.85,-29.08 476.02,-19.83 466.21,-23.84 470.85,-29.08"/>
</g>
<!-- Node41&#45;&gt;Node5 -->
<g id="edge28" class="edge">
<title>Node41&#45;&gt;Node5</title>
<path fill="none" stroke="midnightblue" d="M370.77,-280.32C354.65,-271.7 329.7,-258.36 311.04,-248.39"/>
<polygon fill="midnightblue" stroke="midnightblue" points="312.66,-245.28 302.19,-243.65 309.36,-251.46 312.66,-245.28"/>
</g>
<!-- Node41&#45;&gt;Node9 -->
<g id="edge29" class="edge">
<title>Node41&#45;&gt;Node9</title>
<path fill="none" stroke="midnightblue" d="M353.8,-280.45C323.66,-272.31 278.23,-259.09 240,-244 229.35,-239.8 169.05,-209.94 133.41,-192.18"/>
<polygon fill="midnightblue" stroke="midnightblue" points="134.58,-188.86 124.07,-187.53 131.46,-195.12 134.58,-188.86"/>
</g>
<!-- Node41&#45;&gt;Node13 -->
<g id="edge27" class="edge">
<title>Node41&#45;&gt;Node13</title>
<path fill="none" stroke="midnightblue" d="M421.7,-280.4C440.94,-273.75 463.44,-262.47 476,-244 485.06,-230.68 485.91,-212.1 484.87,-198.22"/>
<polygon fill="midnightblue" stroke="midnightblue" points="488.3,-197.42 483.69,-187.88 481.35,-198.21 488.3,-197.42"/>
</g>
<!-- Node41&#45;&gt;Node36 -->
<g id="edge34" class="edge">
<title>Node41&#45;&gt;Node36</title>
<path fill="none" stroke="midnightblue" d="M404.5,-280.46C417.79,-272.92 435.08,-260.53 443,-244 456.27,-216.31 438.07,-124.85 429.28,-85.39"/>
<polygon fill="midnightblue" stroke="midnightblue" points="432.67,-84.51 427.03,-75.54 425.84,-86.06 432.67,-84.51"/>
</g>
<!-- Node42 -->
<g id="node21" class="node">
<title>Node42</title>
<g id="a_node21"><a xlink:href="mp__arith_8h.html" target="_top" xlink:title=" ">
<polygon fill="none" stroke="black" points="528.5,-224.5 528.5,-243.5 597.5,-243.5 597.5,-224.5 528.5,-224.5"/>
<text text-anchor="middle" x="563" y="-231.5" font-family="Helvetica,sans-Serif" font-size="10.00">mp_arith.h</text>
</a>
</g>
</g>
<!-- Node41&#45;&gt;Node42 -->
<g id="edge30" class="edge">
<title>Node41&#45;&gt;Node42</title>
<path fill="none" stroke="midnightblue" d="M414.89,-280.44C444.75,-271.28 492.31,-256.69 525.46,-246.52"/>
<polygon fill="midnightblue" stroke="midnightblue" points="526.71,-249.8 535.24,-243.52 524.66,-243.1 526.71,-249.8"/>
</g>
<!-- Node27 -->
<g id="node24" class="node">
<title>Node27</title>
<g id="a_node24"><a xlink:title=" ">
<polygon fill="none" stroke="#bfbfbf" points="340.5,-224.5 340.5,-243.5 433.5,-243.5 433.5,-224.5 340.5,-224.5"/>
<text text-anchor="middle" x="387" y="-231.5" font-family="Helvetica,sans-Serif" font-size="10.00">unordered_map</text>
</a>
</g>
</g>
<!-- Node41&#45;&gt;Node27 -->
<g id="edge35" class="edge">
<title>Node41&#45;&gt;Node27</title>
<path fill="none" stroke="midnightblue" d="M387,-280.08C387,-273.01 387,-262.86 387,-253.99"/>
<polygon fill="midnightblue" stroke="midnightblue" points="390.5,-253.75 387,-243.75 383.5,-253.75 390.5,-253.75"/>
</g>
<!-- Node42&#45;&gt;Node12 -->
<g id="edge32" class="edge">
<title>Node42&#45;&gt;Node12</title>
<path fill="none" stroke="midnightblue" d="M539.32,-224.46C484.96,-204.86 351.2,-156.61 289.77,-134.46"/>
<polygon fill="midnightblue" stroke="midnightblue" points="290.81,-131.11 280.21,-131.01 288.43,-137.7 290.81,-131.11"/>
</g>
<!-- Node22 -->
<g id="node22" class="node">
<title>Node22</title>
<g id="a_node22"><a xlink:title=" ">
<polygon fill="none" stroke="#bfbfbf" points="636,-168.5 636,-187.5 684,-187.5 684,-168.5 636,-168.5"/>
<text text-anchor="middle" x="660" y="-175.5" font-family="Helvetica,sans-Serif" font-size="10.00">iosfwd</text>
</a>
</g>
</g>
<!-- Node42&#45;&gt;Node22 -->
<g id="edge31" class="edge">
<title>Node42&#45;&gt;Node22</title>
<path fill="none" stroke="midnightblue" d="M578.58,-224.32C594,-215.74 617.81,-202.49 635.71,-192.52"/>
<polygon fill="midnightblue" stroke="midnightblue" points="637.42,-195.58 644.45,-187.65 634.01,-189.46 637.42,-195.58"/>
</g>
<!-- Node43 -->
<g id="node23" class="node">
<title>Node43</title>
<g id="a_node23"><a xlink:title=" ">
<polygon fill="none" stroke="#bfbfbf" points="524,-168.5 524,-187.5 618,-187.5 618,-168.5 524,-168.5"/>
<text text-anchor="middle" x="571" y="-175.5" font-family="Helvetica,sans-Serif" font-size="10.00">big&#45;int/bigint.hh</text>
</a>
</g>
</g>
<!-- Node42&#45;&gt;Node43 -->
<g id="edge33" class="edge">
<title>Node42&#45;&gt;Node43</title>
<path fill="none" stroke="midnightblue" d="M564.32,-224.08C565.38,-216.93 566.91,-206.64 568.23,-197.69"/>
<polygon fill="midnightblue" stroke="midnightblue" points="571.7,-198.16 569.7,-187.75 564.78,-197.13 571.7,-198.16"/>
</g>
<!-- Node44&#45;&gt;Node5 -->
<g id="edge38" class="edge">
<title>Node44&#45;&gt;Node5</title>
<path fill="none" stroke="midnightblue" d="M231.63,-336.37C241.28,-318.38 263.71,-276.55 276.55,-252.63"/>
<polygon fill="midnightblue" stroke="midnightblue" points="279.75,-254.06 281.39,-243.59 273.58,-250.75 279.75,-254.06"/>
</g>
<!-- Node44&#45;&gt;Node9 -->
<g id="edge39" class="edge">
<title>Node44&#45;&gt;Node9</title>
<path fill="none" stroke="midnightblue" d="M220.55,-336.08C201.33,-309.49 144.26,-230.54 119.12,-195.76"/>
<polygon fill="midnightblue" stroke="midnightblue" points="121.89,-193.62 113.19,-187.57 116.22,-197.72 121.89,-193.62"/>
</g>
<!-- Node44&#45;&gt;Node41 -->
<g id="edge40" class="edge">
<title>Node44&#45;&gt;Node41</title>
<path fill="none" stroke="midnightblue" d="M252.35,-336.44C279.27,-327.36 322,-312.94 352.09,-302.78"/>
<polygon fill="midnightblue" stroke="midnightblue" points="353.41,-306.03 361.77,-299.52 351.17,-299.4 353.41,-306.03"/>
</g>
<!-- Node45&#45;&gt;Node9 -->
<g id="edge43" class="edge">
<title>Node45&#45;&gt;Node9</title>
<path fill="none" stroke="midnightblue" d="M335.33,-397.61C323.54,-384.04 300.08,-357.46 279,-336 228.11,-284.18 214.14,-272.41 160,-224 148.75,-213.94 135.85,-202.98 125.6,-194.39"/>
<polygon fill="midnightblue" stroke="midnightblue" points="127.62,-191.52 117.7,-187.81 123.14,-196.9 127.62,-191.52"/>
</g>
<!-- Node45&#45;&gt;Node42 -->
<g id="edge44" class="edge">
<title>Node45&#45;&gt;Node42</title>
<path fill="none" stroke="midnightblue" d="M353.91,-398C389.02,-370.62 499.42,-284.57 544.02,-249.79"/>
<polygon fill="midnightblue" stroke="midnightblue" points="546.29,-252.46 552.02,-243.56 541.99,-246.94 546.29,-252.46"/>
</g>
<!-- Node45&#45;&gt;Node44 -->
<g id="edge45" class="edge">
<title>Node45&#45;&gt;Node44</title>
<path fill="none" stroke="midnightblue" d="M326.38,-397.98C307.08,-388.08 275.04,-371.64 252.57,-360.12"/>
<polygon fill="midnightblue" stroke="midnightblue" points="254.08,-356.96 243.59,-355.51 250.89,-363.19 254.08,-356.96"/>
</g>
<!-- Node46 -->
<g id="node28" class="node">
<title>Node46</title>
<g id="a_node28"><a xlink:title=" ">
<polygon fill="none" stroke="#bfbfbf" points="326,-336.5 326,-355.5 370,-355.5 370,-336.5 326,-336.5"/>
<text text-anchor="middle" x="348" y="-343.5" font-family="Helvetica,sans-Serif" font-size="10.00">limits</text>
</a>
</g>
</g>
<!-- Node45&#45;&gt;Node46 -->
<g id="edge46" class="edge">
<title>Node45&#45;&gt;Node46</title>
<path fill="none" stroke="midnightblue" d="M343.72,-397.98C344.42,-389.58 345.52,-376.48 346.43,-365.66"/>
<polygon fill="midnightblue" stroke="midnightblue" points="349.94,-365.77 347.28,-355.51 342.96,-365.18 349.94,-365.77"/>
</g>
<!-- Node47&#45;&gt;Node41 -->
<g id="edge48" class="edge">
<title>Node47&#45;&gt;Node41</title>
<path fill="none" stroke="midnightblue" d="M417.46,-464.7C412.53,-436.57 397.07,-348.46 390.27,-309.66"/>
<polygon fill="midnightblue" stroke="midnightblue" points="393.7,-308.96 388.53,-299.71 386.81,-310.17 393.7,-308.96"/>
</g>
<!-- Node48&#45;&gt;Node42 -->
<g id="edge51" class="edge">
<title>Node48&#45;&gt;Node42</title>
<path fill="none" stroke="midnightblue" d="M588.88,-280.08C584.59,-272.61 578.34,-261.72 573.06,-252.52"/>
<polygon fill="midnightblue" stroke="midnightblue" points="576.04,-250.68 568.02,-243.75 569.97,-254.17 576.04,-250.68"/>
</g>
<!-- Node48&#45;&gt;Node22 -->
<g id="edge50" class="edge">
<title>Node48&#45;&gt;Node22</title>
<path fill="none" stroke="midnightblue" d="M599.18,-280.37C610.02,-262.3 635.29,-220.18 649.62,-196.31"/>
<polygon fill="midnightblue" stroke="midnightblue" points="652.7,-197.97 654.85,-187.59 646.7,-194.37 652.7,-197.97"/>
</g>
<!-- Node49 -->
<g id="node31" class="node">
<title>Node49</title>
<g id="a_node31"><a xlink:href="format__spec_8h.html" target="_top" xlink:title=" ">
<polygon fill="none" stroke="black" points="654,-224.5 654,-243.5 740,-243.5 740,-224.5 654,-224.5"/>
<text text-anchor="middle" x="697" y="-231.5" font-family="Helvetica,sans-Serif" font-size="10.00">format_spec.h</text>
</a>
</g>
</g>
<!-- Node48&#45;&gt;Node49 -->
<g id="edge52" class="edge">
<title>Node48&#45;&gt;Node49</title>
<path fill="none" stroke="midnightblue" d="M610.55,-280.32C626.99,-271.7 652.43,-258.36 671.47,-248.39"/>
<polygon fill="midnightblue" stroke="midnightblue" points="673.26,-251.4 680.49,-243.65 670.01,-245.2 673.26,-251.4"/>
</g>
<!-- Node50&#45;&gt;Node4 -->
<g id="edge55" class="edge">
<title>Node50&#45;&gt;Node4</title>
<path fill="none" stroke="midnightblue" d="M96.86,-397.98C98.72,-389.49 101.62,-376.2 104,-365.32"/>
<polygon fill="midnightblue" stroke="midnightblue" points="107.43,-366.03 106.14,-355.51 100.59,-364.53 107.43,-366.03"/>
</g>
<!-- Node50&#45;&gt;Node44 -->
<g id="edge56" class="edge">
<title>Node50&#45;&gt;Node44</title>
<path fill="none" stroke="midnightblue" d="M113.91,-397.98C136.16,-387.95 173.31,-371.2 198.93,-359.65"/>
<polygon fill="midnightblue" stroke="midnightblue" points="200.44,-362.81 208.12,-355.51 197.57,-356.43 200.44,-362.81"/>
</g>
<!-- Node50&#45;&gt;Node26 -->
<g id="edge54" class="edge">
<title>Node50&#45;&gt;Node26</title>
<path fill="none" stroke="midnightblue" d="M83.68,-397.98C71.13,-388.52 50.65,-373.1 35.5,-361.69"/>
<polygon fill="midnightblue" stroke="midnightblue" points="37.39,-358.73 27.3,-355.51 33.18,-364.32 37.39,-358.73"/>
</g>
</g>
</svg>
