<?xml version="1.0" encoding="UTF-8" standalone="no"?>
<!DOCTYPE svg PUBLIC "-//W3C//DTD SVG 1.1//EN"
 "http://www.w3.org/Graphics/SVG/1.1/DTD/svg11.dtd">
<!-- Generated by graphviz version 2.43.0 (0)
 -->
<!-- Title: /home/runner/work/cbmc/cbmc/src/cprover/state_encoding.h Pages: 1 -->
<svg width="1022pt" height="386pt"
 viewBox="0.00 0.00 1021.50 386.00" xmlns="http://www.w3.org/2000/svg" xmlns:xlink="http://www.w3.org/1999/xlink">
<g id="graph0" class="graph" transform="scale(1 1) rotate(0) translate(4 382)">
<title>/home/runner/work/cbmc/cbmc/src/cprover/state_encoding.h</title>
<!-- Node1 -->
<g id="node1" class="node">
<title>Node1</title>
<g id="a_node1"><a xlink:title="State Encoding.">
<polygon fill="#bfbfbf" stroke="black" points="365.5,-336.5 365.5,-377.5 503.5,-377.5 503.5,-336.5 365.5,-336.5"/>
<text text-anchor="start" x="373.5" y="-365.5" font-family="Helvetica,sans-Serif" font-size="10.00">/home/runner/work/cbmc</text>
<text text-anchor="start" x="373.5" y="-354.5" font-family="Helvetica,sans-Serif" font-size="10.00">/cbmc/src/cprover/state</text>
<text text-anchor="middle" x="434.5" y="-343.5" font-family="Helvetica,sans-Serif" font-size="10.00">_encoding.h</text>
</a>
</g>
</g>
<!-- Node2 -->
<g id="node2" class="node">
<title>Node2</title>
<g id="a_node2"><a xlink:href="irep_8h.html" target="_top" xlink:title=" ">
<polygon fill="none" stroke="black" points="495,-280.5 495,-299.5 558,-299.5 558,-280.5 495,-280.5"/>
<text text-anchor="middle" x="526.5" y="-287.5" font-family="Helvetica,sans-Serif" font-size="10.00">util/irep.h</text>
</a>
</g>
</g>
<!-- Node1&#45;&gt;Node2 -->
<g id="edge1" class="edge">
<title>Node1&#45;&gt;Node2</title>
<path fill="none" stroke="midnightblue" d="M462.1,-336.5C476.21,-326.53 493.08,-314.61 506.01,-305.48"/>
<polygon fill="midnightblue" stroke="midnightblue" points="508.11,-308.28 514.25,-299.65 504.07,-302.56 508.11,-308.28"/>
</g>
<!-- Node11 -->
<g id="node11" class="node">
<title>Node11</title>
<g id="a_node11"><a xlink:title=" ">
<polygon fill="none" stroke="#bfbfbf" points="290.5,-112.5 290.5,-131.5 338.5,-131.5 338.5,-112.5 290.5,-112.5"/>
<text text-anchor="middle" x="314.5" y="-119.5" font-family="Helvetica,sans-Serif" font-size="10.00">iosfwd</text>
</a>
</g>
</g>
<!-- Node1&#45;&gt;Node11 -->
<g id="edge36" class="edge">
<title>Node1&#45;&gt;Node11</title>
<path fill="none" stroke="midnightblue" d="M426.95,-336.42C413.17,-301.51 382.13,-226.7 347.5,-168 341.72,-158.2 334.29,-147.91 327.95,-139.65"/>
<polygon fill="midnightblue" stroke="midnightblue" points="330.55,-137.3 321.62,-131.61 325.05,-141.63 330.55,-137.3"/>
</g>
<!-- Node25 -->
<g id="node25" class="node">
<title>Node25</title>
<g id="a_node25"><a xlink:href="optional_8h.html" target="_top" xlink:title=" ">
<polygon fill="none" stroke="black" points="737.5,-280.5 737.5,-299.5 821.5,-299.5 821.5,-280.5 737.5,-280.5"/>
<text text-anchor="middle" x="779.5" y="-287.5" font-family="Helvetica,sans-Serif" font-size="10.00">util/optional.h</text>
</a>
</g>
</g>
<!-- Node1&#45;&gt;Node25 -->
<g id="edge32" class="edge">
<title>Node1&#45;&gt;Node25</title>
<path fill="none" stroke="midnightblue" d="M503.9,-342.92C569.93,-330.48 667.8,-312.04 727.41,-300.81"/>
<polygon fill="midnightblue" stroke="midnightblue" points="728.18,-304.23 737.35,-298.94 726.88,-297.35 728.18,-304.23"/>
</g>
<!-- Node27 -->
<g id="node27" class="node">
<title>Node27</title>
<g id="a_node27"><a xlink:href="solver_8h.html" target="_top" xlink:title="Equality Propagation.">
<polygon fill="none" stroke="black" points="321,-280.5 321,-299.5 376,-299.5 376,-280.5 321,-280.5"/>
<text text-anchor="middle" x="348.5" y="-287.5" font-family="Helvetica,sans-Serif" font-size="10.00">solver.h</text>
</a>
</g>
</g>
<!-- Node1&#45;&gt;Node27 -->
<g id="edge34" class="edge">
<title>Node1&#45;&gt;Node27</title>
<path fill="none" stroke="midnightblue" d="M408.7,-336.5C395.64,-326.63 380.05,-314.84 368,-305.74"/>
<polygon fill="midnightblue" stroke="midnightblue" points="370.04,-302.89 359.95,-299.65 365.82,-308.47 370.04,-302.89"/>
</g>
<!-- Node3 -->
<g id="node3" class="node">
<title>Node3</title>
<g id="a_node3"><a xlink:title=" ">
<polygon fill="none" stroke="#bfbfbf" points="299.5,-0.5 299.5,-19.5 343.5,-19.5 343.5,-0.5 299.5,-0.5"/>
<text text-anchor="middle" x="321.5" y="-7.5" font-family="Helvetica,sans-Serif" font-size="10.00">string</text>
</a>
</g>
</g>
<!-- Node2&#45;&gt;Node3 -->
<g id="edge2" class="edge">
<title>Node2&#45;&gt;Node3</title>
<path fill="none" stroke="midnightblue" d="M558.48,-283.45C623.93,-270.61 763.61,-234.71 721.5,-168 640.21,-39.21 434.2,-15.99 354.08,-11.86"/>
<polygon fill="midnightblue" stroke="midnightblue" points="353.78,-8.35 343.63,-11.4 353.47,-15.34 353.78,-8.35"/>
</g>
<!-- Node4 -->
<g id="node4" class="node">
<title>Node4</title>
<g id="a_node4"><a xlink:title=" ">
<polygon fill="none" stroke="#bfbfbf" points="431,-56.5 431,-75.5 478,-75.5 478,-56.5 431,-56.5"/>
<text text-anchor="middle" x="454.5" y="-63.5" font-family="Helvetica,sans-Serif" font-size="10.00">vector</text>
</a>
</g>
</g>
<!-- Node2&#45;&gt;Node4 -->
<g id="edge3" class="edge">
<title>Node2&#45;&gt;Node4</title>
<path fill="none" stroke="midnightblue" d="M518.67,-280.36C504.26,-263.85 473.9,-226.07 461.5,-188 450.19,-153.28 451,-110.04 452.69,-85.78"/>
<polygon fill="midnightblue" stroke="midnightblue" points="456.18,-86.04 453.52,-75.79 449.2,-85.46 456.18,-86.04"/>
</g>
<!-- Node5 -->
<g id="node5" class="node">
<title>Node5</title>
<g id="a_node5"><a xlink:href="src_2util_2invariant_8h.html" target="_top" xlink:title=" ">
<polygon fill="none" stroke="black" points="827,-112.5 827,-131.5 896,-131.5 896,-112.5 827,-112.5"/>
<text text-anchor="middle" x="861.5" y="-119.5" font-family="Helvetica,sans-Serif" font-size="10.00">invariant.h</text>
</a>
</g>
</g>
<!-- Node2&#45;&gt;Node5 -->
<g id="edge4" class="edge">
<title>Node2&#45;&gt;Node5</title>
<path fill="none" stroke="midnightblue" d="M558.25,-286.73C603.39,-282.63 688,-271.66 754.5,-244 795.59,-226.91 810.02,-223 837.5,-188 848.17,-174.41 854.42,-155.61 857.85,-141.73"/>
<polygon fill="midnightblue" stroke="midnightblue" points="861.3,-142.36 860.03,-131.84 854.46,-140.85 861.3,-142.36"/>
</g>
<!-- Node9 -->
<g id="node9" class="node">
<title>Node9</title>
<g id="a_node9"><a xlink:href="irep__ids_8h.html" target="_top" xlink:title="util">
<polygon fill="none" stroke="black" points="269.5,-224.5 269.5,-243.5 333.5,-243.5 333.5,-224.5 269.5,-224.5"/>
<text text-anchor="middle" x="301.5" y="-231.5" font-family="Helvetica,sans-Serif" font-size="10.00">irep_ids.h</text>
</a>
</g>
</g>
<!-- Node2&#45;&gt;Node9 -->
<g id="edge9" class="edge">
<title>Node2&#45;&gt;Node9</title>
<path fill="none" stroke="midnightblue" d="M494.74,-281.38C455.18,-271.88 387.47,-255.63 343.62,-245.11"/>
<polygon fill="midnightblue" stroke="midnightblue" points="344.37,-241.69 333.83,-242.76 342.73,-248.5 344.37,-241.69"/>
</g>
<!-- Node20 -->
<g id="node20" class="node">
<title>Node20</title>
<g id="a_node20"><a xlink:href="forward__list__as__map_8h.html" target="_top" xlink:title=" ">
<polygon fill="none" stroke="black" points="525,-224.5 525,-243.5 652,-243.5 652,-224.5 525,-224.5"/>
<text text-anchor="middle" x="588.5" y="-231.5" font-family="Helvetica,sans-Serif" font-size="10.00">forward_list_as_map.h</text>
</a>
</g>
</g>
<!-- Node2&#45;&gt;Node20 -->
<g id="edge25" class="edge">
<title>Node2&#45;&gt;Node20</title>
<path fill="none" stroke="midnightblue" d="M536.46,-280.32C545.63,-272.34 559.44,-260.31 570.53,-250.65"/>
<polygon fill="midnightblue" stroke="midnightblue" points="573.12,-253.04 578.36,-243.83 568.52,-247.76 573.12,-253.04"/>
</g>
<!-- Node5&#45;&gt;Node3 -->
<g id="edge7" class="edge">
<title>Node5&#45;&gt;Node3</title>
<path fill="none" stroke="midnightblue" d="M861.81,-112.19C861.78,-97.89 859.42,-69.86 842.5,-56 804.69,-25.03 461.8,-14.32 353.87,-11.7"/>
<polygon fill="midnightblue" stroke="midnightblue" points="353.68,-8.2 343.6,-11.46 353.52,-15.19 353.68,-8.2"/>
</g>
<!-- Node6 -->
<g id="node6" class="node">
<title>Node6</title>
<g id="a_node6"><a xlink:title=" ">
<polygon fill="none" stroke="#bfbfbf" points="890,-56.5 890,-75.5 939,-75.5 939,-56.5 890,-56.5"/>
<text text-anchor="middle" x="914.5" y="-63.5" font-family="Helvetica,sans-Serif" font-size="10.00">cstdlib</text>
</a>
</g>
</g>
<!-- Node5&#45;&gt;Node6 -->
<g id="edge5" class="edge">
<title>Node5&#45;&gt;Node6</title>
<path fill="none" stroke="midnightblue" d="M870.25,-112.08C877.97,-104.22 889.4,-92.57 898.72,-83.08"/>
<polygon fill="midnightblue" stroke="midnightblue" points="901.4,-85.34 905.91,-75.75 896.41,-80.44 901.4,-85.34"/>
</g>
<!-- Node7 -->
<g id="node7" class="node">
<title>Node7</title>
<g id="a_node7"><a xlink:title=" ">
<polygon fill="none" stroke="#bfbfbf" points="957.5,-56.5 957.5,-75.5 1013.5,-75.5 1013.5,-56.5 957.5,-56.5"/>
<text text-anchor="middle" x="985.5" y="-63.5" font-family="Helvetica,sans-Serif" font-size="10.00">sstream</text>
</a>
</g>
</g>
<!-- Node5&#45;&gt;Node7 -->
<g id="edge6" class="edge">
<title>Node5&#45;&gt;Node7</title>
<path fill="none" stroke="midnightblue" d="M881.15,-112.44C901.46,-103.6 933.4,-89.69 956.6,-79.59"/>
<polygon fill="midnightblue" stroke="midnightblue" points="958.17,-82.72 965.94,-75.52 955.38,-76.3 958.17,-82.72"/>
</g>
<!-- Node8 -->
<g id="node8" class="node">
<title>Node8</title>
<g id="a_node8"><a xlink:title=" ">
<polygon fill="none" stroke="#bfbfbf" points="764,-56.5 764,-75.5 833,-75.5 833,-56.5 764,-56.5"/>
<text text-anchor="middle" x="798.5" y="-63.5" font-family="Helvetica,sans-Serif" font-size="10.00">type_traits</text>
</a>
</g>
</g>
<!-- Node5&#45;&gt;Node8 -->
<g id="edge8" class="edge">
<title>Node5&#45;&gt;Node8</title>
<path fill="none" stroke="midnightblue" d="M851.38,-112.32C841.97,-104.26 827.76,-92.08 816.43,-82.37"/>
<polygon fill="midnightblue" stroke="midnightblue" points="818.68,-79.68 808.81,-75.83 814.12,-85 818.68,-79.68"/>
</g>
<!-- Node10 -->
<g id="node10" class="node">
<title>Node10</title>
<g id="a_node10"><a xlink:href="dstring_8h.html" target="_top" xlink:title="Container for C&#45;Strings.">
<polygon fill="none" stroke="black" points="187,-168.5 187,-187.5 246,-187.5 246,-168.5 187,-168.5"/>
<text text-anchor="middle" x="216.5" y="-175.5" font-family="Helvetica,sans-Serif" font-size="10.00">dstring.h</text>
</a>
</g>
</g>
<!-- Node9&#45;&gt;Node10 -->
<g id="edge10" class="edge">
<title>Node9&#45;&gt;Node10</title>
<path fill="none" stroke="midnightblue" d="M287.84,-224.32C274.58,-215.9 254.23,-202.97 238.65,-193.07"/>
<polygon fill="midnightblue" stroke="midnightblue" points="240.44,-190.06 230.12,-187.65 236.69,-195.97 240.44,-190.06"/>
</g>
<!-- Node19 -->
<g id="node19" class="node">
<title>Node19</title>
<g id="a_node19"><a xlink:title=" ">
<polygon fill="none" stroke="#bfbfbf" points="264.5,-168.5 264.5,-187.5 338.5,-187.5 338.5,-168.5 264.5,-168.5"/>
<text text-anchor="middle" x="301.5" y="-175.5" font-family="Helvetica,sans-Serif" font-size="10.00">irep_ids.def</text>
</a>
</g>
</g>
<!-- Node9&#45;&gt;Node19 -->
<g id="edge24" class="edge">
<title>Node9&#45;&gt;Node19</title>
<path fill="none" stroke="midnightblue" d="M301.5,-224.08C301.5,-217.01 301.5,-206.86 301.5,-197.99"/>
<polygon fill="midnightblue" stroke="midnightblue" points="305,-197.75 301.5,-187.75 298,-197.75 305,-197.75"/>
</g>
<!-- Node10&#45;&gt;Node3 -->
<g id="edge12" class="edge">
<title>Node10&#45;&gt;Node3</title>
<path fill="none" stroke="midnightblue" d="M198.42,-168.39C184.94,-160.87 167.53,-148.57 159.5,-132 144.77,-101.6 139.06,-82.89 159.5,-56 175.13,-35.43 246.59,-21.79 289.21,-15.34"/>
<polygon fill="midnightblue" stroke="midnightblue" points="289.98,-18.76 299.37,-13.85 288.97,-11.83 289.98,-18.76"/>
</g>
<!-- Node10&#45;&gt;Node11 -->
<g id="edge11" class="edge">
<title>Node10&#45;&gt;Node11</title>
<path fill="none" stroke="midnightblue" d="M232.25,-168.32C247.82,-159.74 271.88,-146.49 289.96,-136.52"/>
<polygon fill="midnightblue" stroke="midnightblue" points="291.72,-139.55 298.79,-131.65 288.35,-133.42 291.72,-139.55"/>
</g>
<!-- Node12 -->
<g id="node12" class="node">
<title>Node12</title>
<g id="a_node12"><a xlink:href="magic_8h.html" target="_top" xlink:title="Magic numbers used throughout the codebase.">
<polygon fill="none" stroke="black" points="8.5,-112.5 8.5,-131.5 64.5,-131.5 64.5,-112.5 8.5,-112.5"/>
<text text-anchor="middle" x="36.5" y="-119.5" font-family="Helvetica,sans-Serif" font-size="10.00">magic.h</text>
</a>
</g>
</g>
<!-- Node10&#45;&gt;Node12 -->
<g id="edge13" class="edge">
<title>Node10&#45;&gt;Node12</title>
<path fill="none" stroke="midnightblue" d="M187.98,-168.44C157.34,-159.25 108.51,-144.6 74.6,-134.43"/>
<polygon fill="midnightblue" stroke="midnightblue" points="75.18,-130.95 64.59,-131.43 73.16,-137.65 75.18,-130.95"/>
</g>
<!-- Node14 -->
<g id="node14" class="node">
<title>Node14</title>
<g id="a_node14"><a xlink:href="string__container_8h.html" target="_top" xlink:title="Container for C&#45;Strings.">
<polygon fill="none" stroke="black" points="168.5,-112.5 168.5,-131.5 272.5,-131.5 272.5,-112.5 168.5,-112.5"/>
<text text-anchor="middle" x="220.5" y="-119.5" font-family="Helvetica,sans-Serif" font-size="10.00">string_container.h</text>
</a>
</g>
</g>
<!-- Node10&#45;&gt;Node14 -->
<g id="edge15" class="edge">
<title>Node10&#45;&gt;Node14</title>
<path fill="none" stroke="midnightblue" d="M217.16,-168.08C217.68,-161.01 218.44,-150.86 219.09,-141.99"/>
<polygon fill="midnightblue" stroke="midnightblue" points="222.6,-141.98 219.85,-131.75 215.62,-141.47 222.6,-141.98"/>
</g>
<!-- Node13 -->
<g id="node13" class="node">
<title>Node13</title>
<g id="a_node13"><a xlink:title=" ">
<polygon fill="none" stroke="#bfbfbf" points="0,-0.5 0,-19.5 53,-19.5 53,-0.5 0,-0.5"/>
<text text-anchor="middle" x="26.5" y="-7.5" font-family="Helvetica,sans-Serif" font-size="10.00">cstddef</text>
</a>
</g>
</g>
<!-- Node12&#45;&gt;Node13 -->
<g id="edge14" class="edge">
<title>Node12&#45;&gt;Node13</title>
<path fill="none" stroke="midnightblue" d="M28.83,-112.46C21.72,-103.93 11.65,-90.09 7.5,-76 2.79,-60 9.13,-41.78 15.73,-28.7"/>
<polygon fill="midnightblue" stroke="midnightblue" points="18.86,-30.28 20.64,-19.83 12.73,-26.89 18.86,-30.28"/>
</g>
<!-- Node14&#45;&gt;Node4 -->
<g id="edge18" class="edge">
<title>Node14&#45;&gt;Node4</title>
<path fill="none" stroke="midnightblue" d="M261.05,-112.49C299.67,-104.27 359.66,-91.15 420.9,-76.06"/>
<polygon fill="midnightblue" stroke="midnightblue" points="421.88,-79.42 430.74,-73.62 420.19,-72.63 421.88,-79.42"/>
</g>
<!-- Node15 -->
<g id="node15" class="node">
<title>Node15</title>
<g id="a_node15"><a xlink:title=" ">
<polygon fill="none" stroke="#bfbfbf" points="380.5,-56.5 380.5,-75.5 412.5,-75.5 412.5,-56.5 380.5,-56.5"/>
<text text-anchor="middle" x="396.5" y="-63.5" font-family="Helvetica,sans-Serif" font-size="10.00">list</text>
</a>
</g>
</g>
<!-- Node14&#45;&gt;Node15 -->
<g id="edge16" class="edge">
<title>Node14&#45;&gt;Node15</title>
<path fill="none" stroke="midnightblue" d="M251.02,-112.45C279.66,-104.3 323.88,-91.42 370.7,-76.14"/>
<polygon fill="midnightblue" stroke="midnightblue" points="372,-79.39 380.41,-72.94 369.81,-72.74 372,-79.39"/>
</g>
<!-- Node16 -->
<g id="node16" class="node">
<title>Node16</title>
<g id="a_node16"><a xlink:title=" ">
<polygon fill="none" stroke="#bfbfbf" points="169,-56.5 169,-75.5 262,-75.5 262,-56.5 169,-56.5"/>
<text text-anchor="middle" x="215.5" y="-63.5" font-family="Helvetica,sans-Serif" font-size="10.00">unordered_map</text>
</a>
</g>
</g>
<!-- Node14&#45;&gt;Node16 -->
<g id="edge17" class="edge">
<title>Node14&#45;&gt;Node16</title>
<path fill="none" stroke="midnightblue" d="M219.67,-112.08C219.02,-105.01 218.08,-94.86 217.26,-85.99"/>
<polygon fill="midnightblue" stroke="midnightblue" points="220.72,-85.39 216.31,-75.75 213.75,-86.03 220.72,-85.39"/>
</g>
<!-- Node17 -->
<g id="node17" class="node">
<title>Node17</title>
<g id="a_node17"><a xlink:href="memory__units_8h.html" target="_top" xlink:title=" ">
<polygon fill="none" stroke="black" points="16.5,-56.5 16.5,-75.5 112.5,-75.5 112.5,-56.5 16.5,-56.5"/>
<text text-anchor="middle" x="64.5" y="-63.5" font-family="Helvetica,sans-Serif" font-size="10.00">memory_units.h</text>
</a>
</g>
</g>
<!-- Node14&#45;&gt;Node17 -->
<g id="edge19" class="edge">
<title>Node14&#45;&gt;Node17</title>
<path fill="none" stroke="midnightblue" d="M195.78,-112.44C169.65,-103.4 128.24,-89.06 98.92,-78.92"/>
<polygon fill="midnightblue" stroke="midnightblue" points="99.7,-75.48 89.1,-75.52 97.41,-82.1 99.7,-75.48"/>
</g>
<!-- Node18 -->
<g id="node18" class="node">
<title>Node18</title>
<g id="a_node18"><a xlink:href="string__hash_8h.html" target="_top" xlink:title="string hashing">
<polygon fill="none" stroke="black" points="280.5,-56.5 280.5,-75.5 362.5,-75.5 362.5,-56.5 280.5,-56.5"/>
<text text-anchor="middle" x="321.5" y="-63.5" font-family="Helvetica,sans-Serif" font-size="10.00">string_hash.h</text>
</a>
</g>
</g>
<!-- Node14&#45;&gt;Node18 -->
<g id="edge22" class="edge">
<title>Node14&#45;&gt;Node18</title>
<path fill="none" stroke="midnightblue" d="M236.73,-112.32C252.85,-103.7 277.8,-90.36 296.46,-80.39"/>
<polygon fill="midnightblue" stroke="midnightblue" points="298.14,-83.46 305.31,-75.65 294.84,-77.28 298.14,-83.46"/>
</g>
<!-- Node17&#45;&gt;Node3 -->
<g id="edge21" class="edge">
<title>Node17&#45;&gt;Node3</title>
<path fill="none" stroke="midnightblue" d="M105.22,-56.44C156.28,-45.72 242.74,-27.55 289.38,-17.75"/>
<polygon fill="midnightblue" stroke="midnightblue" points="290.18,-21.16 299.25,-15.67 288.74,-14.31 290.18,-21.16"/>
</g>
<!-- Node17&#45;&gt;Node13 -->
<g id="edge20" class="edge">
<title>Node17&#45;&gt;Node13</title>
<path fill="none" stroke="midnightblue" d="M58.23,-56.08C52.86,-48.46 44.98,-37.26 38.42,-27.94"/>
<polygon fill="midnightblue" stroke="midnightblue" points="41.28,-25.91 32.66,-19.75 35.55,-29.94 41.28,-25.91"/>
</g>
<!-- Node18&#45;&gt;Node3 -->
<g id="edge23" class="edge">
<title>Node18&#45;&gt;Node3</title>
<path fill="none" stroke="midnightblue" d="M321.5,-56.08C321.5,-49.01 321.5,-38.86 321.5,-29.99"/>
<polygon fill="midnightblue" stroke="midnightblue" points="325,-29.75 321.5,-19.75 318,-29.75 325,-29.75"/>
</g>
<!-- Node21 -->
<g id="node21" class="node">
<title>Node21</title>
<g id="a_node21"><a xlink:title=" ">
<polygon fill="none" stroke="#bfbfbf" points="556.5,-168.5 556.5,-187.5 620.5,-187.5 620.5,-168.5 556.5,-168.5"/>
<text text-anchor="middle" x="588.5" y="-175.5" font-family="Helvetica,sans-Serif" font-size="10.00">algorithm</text>
</a>
</g>
</g>
<!-- Node20&#45;&gt;Node21 -->
<g id="edge26" class="edge">
<title>Node20&#45;&gt;Node21</title>
<path fill="none" stroke="midnightblue" d="M588.5,-224.08C588.5,-217.01 588.5,-206.86 588.5,-197.99"/>
<polygon fill="midnightblue" stroke="midnightblue" points="592,-197.75 588.5,-187.75 585,-197.75 592,-197.75"/>
</g>
<!-- Node22 -->
<g id="node22" class="node">
<title>Node22</title>
<g id="a_node22"><a xlink:title=" ">
<polygon fill="none" stroke="#bfbfbf" points="638.5,-168.5 638.5,-187.5 712.5,-187.5 712.5,-168.5 638.5,-168.5"/>
<text text-anchor="middle" x="675.5" y="-175.5" font-family="Helvetica,sans-Serif" font-size="10.00">forward_list</text>
</a>
</g>
</g>
<!-- Node20&#45;&gt;Node22 -->
<g id="edge27" class="edge">
<title>Node20&#45;&gt;Node22</title>
<path fill="none" stroke="midnightblue" d="M602.48,-224.32C616.05,-215.9 636.88,-202.97 652.82,-193.07"/>
<polygon fill="midnightblue" stroke="midnightblue" points="654.91,-195.9 661.56,-187.65 651.21,-189.95 654.91,-195.9"/>
</g>
<!-- Node23 -->
<g id="node23" class="node">
<title>Node23</title>
<g id="a_node23"><a xlink:href="as__const_8h.html" target="_top" xlink:title=" ">
<polygon fill="none" stroke="black" points="470.5,-168.5 470.5,-187.5 538.5,-187.5 538.5,-168.5 470.5,-168.5"/>
<text text-anchor="middle" x="504.5" y="-175.5" font-family="Helvetica,sans-Serif" font-size="10.00">as_const.h</text>
</a>
</g>
</g>
<!-- Node20&#45;&gt;Node23 -->
<g id="edge28" class="edge">
<title>Node20&#45;&gt;Node23</title>
<path fill="none" stroke="midnightblue" d="M575,-224.32C561.9,-215.9 541.79,-202.97 526.39,-193.07"/>
<polygon fill="midnightblue" stroke="midnightblue" points="528.27,-190.12 517.96,-187.65 524.48,-196.01 528.27,-190.12"/>
</g>
<!-- Node24 -->
<g id="node24" class="node">
<title>Node24</title>
<g id="a_node24"><a xlink:href="narrow_8h.html" target="_top" xlink:title=" ">
<polygon fill="none" stroke="black" points="769,-168.5 769,-187.5 828,-187.5 828,-168.5 769,-168.5"/>
<text text-anchor="middle" x="798.5" y="-175.5" font-family="Helvetica,sans-Serif" font-size="10.00">narrow.h</text>
</a>
</g>
</g>
<!-- Node20&#45;&gt;Node24 -->
<g id="edge29" class="edge">
<title>Node20&#45;&gt;Node24</title>
<path fill="none" stroke="midnightblue" d="M621.78,-224.44C659.01,-214.87 719.3,-199.36 758.93,-189.18"/>
<polygon fill="midnightblue" stroke="midnightblue" points="759.96,-192.52 768.78,-186.64 758.22,-185.74 759.96,-192.52"/>
</g>
<!-- Node24&#45;&gt;Node5 -->
<g id="edge31" class="edge">
<title>Node24&#45;&gt;Node5</title>
<path fill="none" stroke="midnightblue" d="M808.62,-168.32C818.03,-160.26 832.24,-148.08 843.57,-138.37"/>
<polygon fill="midnightblue" stroke="midnightblue" points="845.88,-141 851.19,-131.83 841.32,-135.68 845.88,-141"/>
</g>
<!-- Node24&#45;&gt;Node8 -->
<g id="edge30" class="edge">
<title>Node24&#45;&gt;Node8</title>
<path fill="none" stroke="midnightblue" d="M798.5,-168.37C798.5,-150.62 798.5,-109.67 798.5,-85.6"/>
<polygon fill="midnightblue" stroke="midnightblue" points="802,-85.59 798.5,-75.59 795,-85.59 802,-85.59"/>
</g>
<!-- Node26 -->
<g id="node26" class="node">
<title>Node26</title>
<g id="a_node26"><a xlink:title=" ">
<polygon fill="none" stroke="#bfbfbf" points="885,-224.5 885,-243.5 998,-243.5 998,-224.5 885,-224.5"/>
<text text-anchor="middle" x="941.5" y="-231.5" font-family="Helvetica,sans-Serif" font-size="10.00">nonstd/optional.hpp</text>
</a>
</g>
</g>
<!-- Node25&#45;&gt;Node26 -->
<g id="edge33" class="edge">
<title>Node25&#45;&gt;Node26</title>
<path fill="none" stroke="midnightblue" d="M805.17,-280.44C832.42,-271.36 875.68,-256.94 906.15,-246.78"/>
<polygon fill="midnightblue" stroke="midnightblue" points="907.57,-250 915.95,-243.52 905.36,-243.36 907.57,-250"/>
</g>
<!-- Node27&#45;&gt;Node4 -->
<g id="edge35" class="edge">
<title>Node27&#45;&gt;Node4</title>
<path fill="none" stroke="midnightblue" d="M352.66,-280.3C368.35,-247.42 424.23,-130.39 445.86,-85.09"/>
<polygon fill="midnightblue" stroke="midnightblue" points="449.11,-86.42 450.26,-75.88 442.79,-83.4 449.11,-86.42"/>
</g>
</g>
</svg>
