<?xml version="1.0" encoding="UTF-8" standalone="no"?>
<!DOCTYPE svg PUBLIC "-//W3C//DTD SVG 1.1//EN"
 "http://www.w3.org/Graphics/SVG/1.1/DTD/svg11.dtd">
<!-- Generated by graphviz version 2.43.0 (0)
 -->
<!-- Title: /home/runner/work/cbmc/cbmc/src/linking/static_lifetime_init.h Pages: 1 -->
<svg width="6500pt" height="139pt"
 viewBox="0.00 0.00 6500.00 139.00" xmlns="http://www.w3.org/2000/svg" xmlns:xlink="http://www.w3.org/1999/xlink">
<g id="graph0" class="graph" transform="scale(1 1) rotate(0) translate(4 135)">
<title>/home/runner/work/cbmc/cbmc/src/linking/static_lifetime_init.h</title>
<!-- Node1 -->
<g id="node1" class="node">
<title>Node1</title>
<g id="a_node1"><a xlink:title=" ">
<polygon fill="#bfbfbf" stroke="black" points="3141,-89.5 3141,-130.5 3279,-130.5 3279,-89.5 3141,-89.5"/>
<text text-anchor="start" x="3149" y="-118.5" font-family="Helvetica,sans-Serif" font-size="10.00">/home/runner/work/cbmc</text>
<text text-anchor="start" x="3149" y="-107.5" font-family="Helvetica,sans-Serif" font-size="10.00">/cbmc/src/linking/static</text>
<text text-anchor="middle" x="3210" y="-96.5" font-family="Helvetica,sans-Serif" font-size="10.00">_lifetime_init.h</text>
</a>
</g>
</g>
<!-- Node2 -->
<g id="node2" class="node">
<title>Node2</title>
<g id="a_node2"><a xlink:href="ansi__c__entry__point_8cpp.html" target="_top" xlink:title=" ">
<polygon fill="none" stroke="black" points="0,-6 0,-47 138,-47 138,-6 0,-6"/>
<text text-anchor="start" x="8" y="-35" font-family="Helvetica,sans-Serif" font-size="10.00">/home/runner/work/cbmc</text>
<text text-anchor="start" x="8" y="-24" font-family="Helvetica,sans-Serif" font-size="10.00">/cbmc/src/ansi&#45;c/ansi</text>
<text text-anchor="middle" x="69" y="-13" font-family="Helvetica,sans-Serif" font-size="10.00">_c_entry_point.cpp</text>
</a>
</g>
</g>
<!-- Node1&#45;&gt;Node2 -->
<g id="edge1" class="edge">
<title>Node1&#45;&gt;Node2</title>
<path fill="none" stroke="midnightblue" d="M3130.61,-108.96C2679.5,-108.53 448.48,-103.86 147,-53 138.71,-51.6 130.1,-49.49 121.76,-47.08"/>
<polygon fill="midnightblue" stroke="midnightblue" points="3130.93,-112.46 3140.93,-108.97 3130.94,-105.46 3130.93,-112.46"/>
</g>
<!-- Node3 -->
<g id="node3" class="node">
<title>Node3</title>
<g id="a_node3"><a xlink:href="ansi__c__internal__additions_8cpp.html" target="_top" xlink:title=" ">
<polygon fill="none" stroke="black" points="156,-6 156,-47 296,-47 296,-6 156,-6"/>
<text text-anchor="start" x="164" y="-35" font-family="Helvetica,sans-Serif" font-size="10.00">/home/runner/work/cbmc</text>
<text text-anchor="start" x="164" y="-24" font-family="Helvetica,sans-Serif" font-size="10.00">/cbmc/src/ansi&#45;c/ansi</text>
<text text-anchor="middle" x="226" y="-13" font-family="Helvetica,sans-Serif" font-size="10.00">_c_internal_additions.cpp</text>
</a>
</g>
</g>
<!-- Node1&#45;&gt;Node3 -->
<g id="edge2" class="edge">
<title>Node1&#45;&gt;Node3</title>
<path fill="none" stroke="midnightblue" d="M3130.53,-108.86C2693.31,-107.87 590.08,-100.69 305,-53 296.61,-51.6 287.9,-49.49 279.45,-47.07"/>
<polygon fill="midnightblue" stroke="midnightblue" points="3130.85,-112.36 3140.85,-108.88 3130.86,-105.36 3130.85,-112.36"/>
</g>
<!-- Node4 -->
<g id="node4" class="node">
<title>Node4</title>
<g id="a_node4"><a xlink:href="cpp__internal__additions_8cpp.html" target="_top" xlink:title=" ">
<polygon fill="none" stroke="black" points="314,-6 314,-47 460,-47 460,-6 314,-6"/>
<text text-anchor="start" x="322" y="-35" font-family="Helvetica,sans-Serif" font-size="10.00">/home/runner/work/cbmc</text>
<text text-anchor="start" x="322" y="-24" font-family="Helvetica,sans-Serif" font-size="10.00">/cbmc/src/cpp/cpp_internal</text>
<text text-anchor="middle" x="387" y="-13" font-family="Helvetica,sans-Serif" font-size="10.00">_additions.cpp</text>
</a>
</g>
</g>
<!-- Node1&#45;&gt;Node4 -->
<g id="edge3" class="edge">
<title>Node1&#45;&gt;Node4</title>
<path fill="none" stroke="midnightblue" d="M3130.65,-108.71C2708.69,-106.97 737.27,-96.56 469,-53 460.32,-51.59 451.28,-49.48 442.52,-47.06"/>
<polygon fill="midnightblue" stroke="midnightblue" points="3130.9,-112.21 3140.92,-108.75 3130.93,-105.21 3130.9,-112.21"/>
</g>
<!-- Node5 -->
<g id="node5" class="node">
<title>Node5</title>
<g id="a_node5"><a xlink:href="compile_8cpp.html" target="_top" xlink:title="Compile and link source and object files.">
<polygon fill="none" stroke="black" points="478,-11.5 478,-41.5 642,-41.5 642,-11.5 478,-11.5"/>
<text text-anchor="start" x="486" y="-29.5" font-family="Helvetica,sans-Serif" font-size="10.00">/home/runner/work/cbmc</text>
<text text-anchor="middle" x="560" y="-18.5" font-family="Helvetica,sans-Serif" font-size="10.00">/cbmc/src/goto&#45;cc/compile.cpp</text>
</a>
</g>
</g>
<!-- Node1&#45;&gt;Node5 -->
<g id="edge4" class="edge">
<title>Node1&#45;&gt;Node5</title>
<path fill="none" stroke="midnightblue" d="M3130.76,-108.45C2726.24,-105.49 900.9,-90.14 651,-53 634.61,-50.56 616.99,-46.08 601.66,-41.55"/>
<polygon fill="midnightblue" stroke="midnightblue" points="3130.87,-111.95 3140.9,-108.52 3130.92,-104.95 3130.87,-111.95"/>
</g>
<!-- Node6 -->
<g id="node6" class="node">
<title>Node6</title>
<g id="a_node6"><a xlink:href="linker__script__merge_8cpp.html" target="_top" xlink:title=" ">
<polygon fill="none" stroke="black" points="660,-6 660,-47 798,-47 798,-6 660,-6"/>
<text text-anchor="start" x="668" y="-35" font-family="Helvetica,sans-Serif" font-size="10.00">/home/runner/work/cbmc</text>
<text text-anchor="start" x="668" y="-24" font-family="Helvetica,sans-Serif" font-size="10.00">/cbmc/src/goto&#45;cc/linker</text>
<text text-anchor="middle" x="729" y="-13" font-family="Helvetica,sans-Serif" font-size="10.00">_script_merge.cpp</text>
</a>
</g>
</g>
<!-- Node1&#45;&gt;Node6 -->
<g id="edge5" class="edge">
<title>Node1&#45;&gt;Node6</title>
<path fill="none" stroke="midnightblue" d="M3130.86,-108.53C2741.65,-106.03 1039.9,-92.89 807,-53 798.71,-51.58 790.11,-49.46 781.76,-47.04"/>
<polygon fill="midnightblue" stroke="midnightblue" points="3130.88,-112.03 3140.9,-108.59 3130.93,-105.03 3130.88,-112.03"/>
</g>
<!-- Node7 -->
<g id="node7" class="node">
<title>Node7</title>
<g id="a_node7"><a xlink:href="bmc__util_8cpp.html" target="_top" xlink:title="Bounded Model Checking Utilities.">
<polygon fill="none" stroke="black" points="816,-6 816,-47 954,-47 954,-6 816,-6"/>
<text text-anchor="start" x="824" y="-35" font-family="Helvetica,sans-Serif" font-size="10.00">/home/runner/work/cbmc</text>
<text text-anchor="start" x="824" y="-24" font-family="Helvetica,sans-Serif" font-size="10.00">/cbmc/src/goto&#45;checker</text>
<text text-anchor="middle" x="885" y="-13" font-family="Helvetica,sans-Serif" font-size="10.00">/bmc_util.cpp</text>
</a>
</g>
</g>
<!-- Node1&#45;&gt;Node7 -->
<g id="edge6" class="edge">
<title>Node1&#45;&gt;Node7</title>
<path fill="none" stroke="midnightblue" d="M3130.6,-108.39C2756.59,-105.33 1179.7,-90.3 963,-53 954.72,-51.57 946.11,-49.45 937.76,-47.03"/>
<polygon fill="midnightblue" stroke="midnightblue" points="3130.76,-111.89 3140.79,-108.47 3130.81,-104.89 3130.76,-111.89"/>
</g>
<!-- Node8 -->
<g id="node8" class="node">
<title>Node8</title>
<g id="a_node8"><a xlink:href="symex__coverage_8cpp.html" target="_top" xlink:title="Record and print code coverage of symbolic execution.">
<polygon fill="none" stroke="black" points="972,-6 972,-47 1110,-47 1110,-6 972,-6"/>
<text text-anchor="start" x="980" y="-35" font-family="Helvetica,sans-Serif" font-size="10.00">/home/runner/work/cbmc</text>
<text text-anchor="start" x="980" y="-24" font-family="Helvetica,sans-Serif" font-size="10.00">/cbmc/src/goto&#45;checker</text>
<text text-anchor="middle" x="1041" y="-13" font-family="Helvetica,sans-Serif" font-size="10.00">/symex_coverage.cpp</text>
</a>
</g>
</g>
<!-- Node1&#45;&gt;Node8 -->
<g id="edge7" class="edge">
<title>Node1&#45;&gt;Node8</title>
<path fill="none" stroke="midnightblue" d="M3130.63,-108.23C2772.95,-104.58 1319.59,-87.72 1119,-53 1110.72,-51.57 1102.11,-49.44 1093.77,-47.01"/>
<polygon fill="midnightblue" stroke="midnightblue" points="3130.86,-111.73 3140.89,-108.33 3130.93,-104.73 3130.86,-111.73"/>
</g>
<!-- Node9 -->
<g id="node9" class="node">
<title>Node9</title>
<g id="a_node9"><a xlink:href="aggressive__slicer_8cpp.html" target="_top" xlink:title="Aggressive program slicer.">
<polygon fill="none" stroke="black" points="1128.5,-6 1128.5,-47 1273.5,-47 1273.5,-6 1128.5,-6"/>
<text text-anchor="start" x="1136.5" y="-35" font-family="Helvetica,sans-Serif" font-size="10.00">/home/runner/work/cbmc</text>
<text text-anchor="start" x="1136.5" y="-24" font-family="Helvetica,sans-Serif" font-size="10.00">/cbmc/src/goto&#45;instrument</text>
<text text-anchor="middle" x="1201" y="-13" font-family="Helvetica,sans-Serif" font-size="10.00">/aggressive_slicer.cpp</text>
</a>
</g>
</g>
<!-- Node1&#45;&gt;Node9 -->
<g id="edge8" class="edge">
<title>Node1&#45;&gt;Node9</title>
<path fill="none" stroke="midnightblue" d="M3130.74,-107.99C2790.91,-103.47 1465.98,-84.02 1282,-53 1273.57,-51.58 1264.8,-49.49 1256.28,-47.12"/>
<polygon fill="midnightblue" stroke="midnightblue" points="3130.7,-111.49 3140.74,-108.12 3130.79,-104.49 3130.7,-111.49"/>
</g>
<!-- Node10 -->
<g id="node10" class="node">
<title>Node10</title>
<g id="a_node10"><a xlink:href="call__sequences_8cpp.html" target="_top" xlink:title="Printing function call sequences for Ofer.">
<polygon fill="none" stroke="black" points="1291.5,-6 1291.5,-47 1436.5,-47 1436.5,-6 1291.5,-6"/>
<text text-anchor="start" x="1299.5" y="-35" font-family="Helvetica,sans-Serif" font-size="10.00">/home/runner/work/cbmc</text>
<text text-anchor="start" x="1299.5" y="-24" font-family="Helvetica,sans-Serif" font-size="10.00">/cbmc/src/goto&#45;instrument</text>
<text text-anchor="middle" x="1364" y="-13" font-family="Helvetica,sans-Serif" font-size="10.00">/call_sequences.cpp</text>
</a>
</g>
</g>
<!-- Node1&#45;&gt;Node10 -->
<g id="edge9" class="edge">
<title>Node1&#45;&gt;Node10</title>
<path fill="none" stroke="midnightblue" d="M3130.45,-109.32C2831.66,-110.07 1776.72,-108.62 1446,-53 1437.47,-51.57 1428.6,-49.47 1419.98,-47.09"/>
<polygon fill="midnightblue" stroke="midnightblue" points="3130.77,-112.82 3140.76,-109.29 3130.75,-105.82 3130.77,-112.82"/>
</g>
<!-- Node11 -->
<g id="node11" class="node">
<title>Node11</title>
<g id="a_node11"><a xlink:href="dfcc_8cpp.html" target="_top" xlink:title=" ">
<polygon fill="none" stroke="black" points="1455,-0.5 1455,-52.5 1603,-52.5 1603,-0.5 1455,-0.5"/>
<text text-anchor="start" x="1463" y="-40.5" font-family="Helvetica,sans-Serif" font-size="10.00">/home/runner/work/cbmc</text>
<text text-anchor="start" x="1463" y="-29.5" font-family="Helvetica,sans-Serif" font-size="10.00">/cbmc/src/goto&#45;instrument</text>
<text text-anchor="start" x="1463" y="-18.5" font-family="Helvetica,sans-Serif" font-size="10.00">/contracts/dynamic&#45;frames</text>
<text text-anchor="middle" x="1529" y="-7.5" font-family="Helvetica,sans-Serif" font-size="10.00">/dfcc.cpp</text>
</a>
</g>
</g>
<!-- Node1&#45;&gt;Node11 -->
<g id="edge10" class="edge">
<title>Node1&#45;&gt;Node11</title>
<path fill="none" stroke="midnightblue" d="M3130.5,-108.97C2850.21,-108.45 1908.95,-102.92 1612,-53 1609.18,-52.53 1606.31,-51.98 1603.43,-51.38"/>
<polygon fill="midnightblue" stroke="midnightblue" points="3130.58,-112.47 3140.59,-108.99 3130.59,-105.47 3130.58,-112.47"/>
</g>
<!-- Node12 -->
<g id="node12" class="node">
<title>Node12</title>
<g id="a_node12"><a xlink:href="dfcc__library_8cpp.html" target="_top" xlink:title=" ">
<polygon fill="none" stroke="black" points="1621,-0.5 1621,-52.5 1769,-52.5 1769,-0.5 1621,-0.5"/>
<text text-anchor="start" x="1629" y="-40.5" font-family="Helvetica,sans-Serif" font-size="10.00">/home/runner/work/cbmc</text>
<text text-anchor="start" x="1629" y="-29.5" font-family="Helvetica,sans-Serif" font-size="10.00">/cbmc/src/goto&#45;instrument</text>
<text text-anchor="start" x="1629" y="-18.5" font-family="Helvetica,sans-Serif" font-size="10.00">/contracts/dynamic&#45;frames</text>
<text text-anchor="middle" x="1695" y="-7.5" font-family="Helvetica,sans-Serif" font-size="10.00">/dfcc_library.cpp</text>
</a>
</g>
</g>
<!-- Node1&#45;&gt;Node12 -->
<g id="edge11" class="edge">
<title>Node1&#45;&gt;Node12</title>
<path fill="none" stroke="midnightblue" d="M3130.53,-108.6C2869.66,-106.84 2041.22,-97.8 1778,-53 1775.18,-52.52 1772.31,-51.97 1769.44,-51.36"/>
<polygon fill="midnightblue" stroke="midnightblue" points="3130.65,-112.1 3140.68,-108.66 3130.7,-105.1 3130.65,-112.1"/>
</g>
<!-- Node13 -->
<g id="node13" class="node">
<title>Node13</title>
<g id="a_node13"><a xlink:href="dfcc__swap__and__wrap_8cpp.html" target="_top" xlink:title=" ">
<polygon fill="none" stroke="black" points="1787,-0.5 1787,-52.5 1935,-52.5 1935,-0.5 1787,-0.5"/>
<text text-anchor="start" x="1795" y="-40.5" font-family="Helvetica,sans-Serif" font-size="10.00">/home/runner/work/cbmc</text>
<text text-anchor="start" x="1795" y="-29.5" font-family="Helvetica,sans-Serif" font-size="10.00">/cbmc/src/goto&#45;instrument</text>
<text text-anchor="start" x="1795" y="-18.5" font-family="Helvetica,sans-Serif" font-size="10.00">/contracts/dynamic&#45;frames</text>
<text text-anchor="middle" x="1861" y="-7.5" font-family="Helvetica,sans-Serif" font-size="10.00">/dfcc_swap_and_wrap.cpp</text>
</a>
</g>
</g>
<!-- Node1&#45;&gt;Node13 -->
<g id="edge12" class="edge">
<title>Node1&#45;&gt;Node13</title>
<path fill="none" stroke="midnightblue" d="M3130.87,-108.12C2890.9,-105.05 2173.75,-92.71 1944,-53 1941.18,-52.51 1938.32,-51.96 1935.44,-51.35"/>
<polygon fill="midnightblue" stroke="midnightblue" points="3130.87,-111.62 3140.92,-108.25 3130.96,-104.62 3130.87,-111.62"/>
</g>
<!-- Node14 -->
<g id="node14" class="node">
<title>Node14</title>
<g id="a_node14"><a xlink:href="dfcc__utils_8cpp.html" target="_top" xlink:title=" ">
<polygon fill="none" stroke="black" points="1953,-0.5 1953,-52.5 2101,-52.5 2101,-0.5 1953,-0.5"/>
<text text-anchor="start" x="1961" y="-40.5" font-family="Helvetica,sans-Serif" font-size="10.00">/home/runner/work/cbmc</text>
<text text-anchor="start" x="1961" y="-29.5" font-family="Helvetica,sans-Serif" font-size="10.00">/cbmc/src/goto&#45;instrument</text>
<text text-anchor="start" x="1961" y="-18.5" font-family="Helvetica,sans-Serif" font-size="10.00">/contracts/dynamic&#45;frames</text>
<text text-anchor="middle" x="2027" y="-7.5" font-family="Helvetica,sans-Serif" font-size="10.00">/dfcc_utils.cpp</text>
</a>
</g>
</g>
<!-- Node1&#45;&gt;Node14 -->
<g id="edge13" class="edge">
<title>Node1&#45;&gt;Node14</title>
<path fill="none" stroke="midnightblue" d="M3130.53,-107.5C2912.18,-102.98 2306.26,-87.59 2110,-53 2107.18,-52.5 2104.32,-51.94 2101.44,-51.32"/>
<polygon fill="midnightblue" stroke="midnightblue" points="3130.57,-111 3140.64,-107.71 3130.71,-104 3130.57,-111"/>
</g>
<!-- Node15 -->
<g id="node15" class="node">
<title>Node15</title>
<g id="a_node15"><a xlink:href="memory__predicates_8cpp.html" target="_top" xlink:title="Predicates to specify memory footprint in function contracts.">
<polygon fill="none" stroke="black" points="2119.5,-6 2119.5,-47 2304.5,-47 2304.5,-6 2119.5,-6"/>
<text text-anchor="start" x="2127.5" y="-35" font-family="Helvetica,sans-Serif" font-size="10.00">/home/runner/work/cbmc</text>
<text text-anchor="start" x="2127.5" y="-24" font-family="Helvetica,sans-Serif" font-size="10.00">/cbmc/src/goto&#45;instrument</text>
<text text-anchor="middle" x="2212" y="-13" font-family="Helvetica,sans-Serif" font-size="10.00">/contracts/memory_predicates.cpp</text>
</a>
</g>
</g>
<!-- Node1&#45;&gt;Node15 -->
<g id="edge14" class="edge">
<title>Node1&#45;&gt;Node15</title>
<path fill="none" stroke="midnightblue" d="M3130.84,-108.96C2973.87,-107.79 2612.44,-99.74 2313,-53 2302.99,-51.44 2292.53,-49.34 2282.29,-47.01"/>
<polygon fill="midnightblue" stroke="midnightblue" points="3130.86,-112.46 3140.88,-109.02 3130.91,-105.46 3130.86,-112.46"/>
</g>
<!-- Node16 -->
<g id="node16" class="node">
<title>Node16</title>
<g id="a_node16"><a xlink:href="count__eloc_8cpp.html" target="_top" xlink:title="Count effective lines of code.">
<polygon fill="none" stroke="black" points="2322.5,-6 2322.5,-47 2467.5,-47 2467.5,-6 2322.5,-6"/>
<text text-anchor="start" x="2330.5" y="-35" font-family="Helvetica,sans-Serif" font-size="10.00">/home/runner/work/cbmc</text>
<text text-anchor="start" x="2330.5" y="-24" font-family="Helvetica,sans-Serif" font-size="10.00">/cbmc/src/goto&#45;instrument</text>
<text text-anchor="middle" x="2395" y="-13" font-family="Helvetica,sans-Serif" font-size="10.00">/count_eloc.cpp</text>
</a>
</g>
</g>
<!-- Node1&#45;&gt;Node16 -->
<g id="edge15" class="edge">
<title>Node1&#45;&gt;Node16</title>
<path fill="none" stroke="midnightblue" d="M3130.72,-108.86C2995.27,-107.32 2711.12,-98.36 2476,-53 2467.89,-51.44 2459.46,-49.34 2451.22,-47.01"/>
<polygon fill="midnightblue" stroke="midnightblue" points="3130.96,-112.37 3141,-108.97 3131.04,-105.37 3130.96,-112.37"/>
</g>
<!-- Node17 -->
<g id="node17" class="node">
<title>Node17</title>
<g id="a_node17"><a xlink:href="cover__filter_8cpp.html" target="_top" xlink:title="Filters for the Coverage Instrumentation.">
<polygon fill="none" stroke="black" points="2485.5,-6 2485.5,-47 2630.5,-47 2630.5,-6 2485.5,-6"/>
<text text-anchor="start" x="2493.5" y="-35" font-family="Helvetica,sans-Serif" font-size="10.00">/home/runner/work/cbmc</text>
<text text-anchor="start" x="2493.5" y="-24" font-family="Helvetica,sans-Serif" font-size="10.00">/cbmc/src/goto&#45;instrument</text>
<text text-anchor="middle" x="2558" y="-13" font-family="Helvetica,sans-Serif" font-size="10.00">/cover_filter.cpp</text>
</a>
</g>
</g>
<!-- Node1&#45;&gt;Node17 -->
<g id="edge16" class="edge">
<title>Node1&#45;&gt;Node17</title>
<path fill="none" stroke="midnightblue" d="M3130.65,-106.4C3019.65,-101.6 2812.19,-88.36 2639,-53 2631.2,-51.41 2623.09,-49.35 2615.14,-47.1"/>
<polygon fill="midnightblue" stroke="midnightblue" points="3130.62,-109.91 3140.76,-106.83 3130.91,-102.91 3130.62,-109.91"/>
</g>
<!-- Node18 -->
<g id="node18" class="node">
<title>Node18</title>
<g id="a_node18"><a xlink:href="dump__c_8cpp.html" target="_top" xlink:title="Dump Goto&#45;Program as C/C++ Source.">
<polygon fill="none" stroke="black" points="2648.5,-6 2648.5,-47 2793.5,-47 2793.5,-6 2648.5,-6"/>
<text text-anchor="start" x="2656.5" y="-35" font-family="Helvetica,sans-Serif" font-size="10.00">/home/runner/work/cbmc</text>
<text text-anchor="start" x="2656.5" y="-24" font-family="Helvetica,sans-Serif" font-size="10.00">/cbmc/src/goto&#45;instrument</text>
<text text-anchor="middle" x="2721" y="-13" font-family="Helvetica,sans-Serif" font-size="10.00">/dump_c.cpp</text>
</a>
</g>
</g>
<!-- Node1&#45;&gt;Node18 -->
<g id="edge17" class="edge">
<title>Node1&#45;&gt;Node18</title>
<path fill="none" stroke="midnightblue" d="M3130.7,-102.11C3047.97,-94 2914.84,-78.32 2802,-53 2794.52,-51.32 2786.74,-49.27 2779.08,-47.07"/>
<polygon fill="midnightblue" stroke="midnightblue" points="3130.5,-105.61 3140.79,-103.09 3131.17,-98.64 3130.5,-105.61"/>
</g>
<!-- Node19 -->
<g id="node19" class="node">
<title>Node19</title>
<g id="a_node19"><a xlink:href="interrupt_8cpp.html" target="_top" xlink:title="Interrupt Instrumentation.">
<polygon fill="none" stroke="black" points="2811.5,-6 2811.5,-47 2956.5,-47 2956.5,-6 2811.5,-6"/>
<text text-anchor="start" x="2819.5" y="-35" font-family="Helvetica,sans-Serif" font-size="10.00">/home/runner/work/cbmc</text>
<text text-anchor="start" x="2819.5" y="-24" font-family="Helvetica,sans-Serif" font-size="10.00">/cbmc/src/goto&#45;instrument</text>
<text text-anchor="middle" x="2884" y="-13" font-family="Helvetica,sans-Serif" font-size="10.00">/interrupt.cpp</text>
</a>
</g>
</g>
<!-- Node1&#45;&gt;Node19 -->
<g id="edge18" class="edge">
<title>Node1&#45;&gt;Node19</title>
<path fill="none" stroke="midnightblue" d="M3130.93,-92.61C3082.74,-82.21 3020.04,-67.93 2965,-53 2958.31,-51.19 2951.35,-49.18 2944.44,-47.11"/>
<polygon fill="midnightblue" stroke="midnightblue" points="3130.48,-96.1 3140.99,-94.78 3131.95,-89.25 3130.48,-96.1"/>
</g>
<!-- Node20 -->
<g id="node20" class="node">
<title>Node20</title>
<g id="a_node20"><a xlink:href="mmio_8cpp.html" target="_top" xlink:title="Memory&#45;mapped I/O Instrumentation for Goto Programs.">
<polygon fill="none" stroke="black" points="2974.5,-6 2974.5,-47 3119.5,-47 3119.5,-6 2974.5,-6"/>
<text text-anchor="start" x="2982.5" y="-35" font-family="Helvetica,sans-Serif" font-size="10.00">/home/runner/work/cbmc</text>
<text text-anchor="start" x="2982.5" y="-24" font-family="Helvetica,sans-Serif" font-size="10.00">/cbmc/src/goto&#45;instrument</text>
<text text-anchor="middle" x="3047" y="-13" font-family="Helvetica,sans-Serif" font-size="10.00">/mmio.cpp</text>
</a>
</g>
</g>
<!-- Node1&#45;&gt;Node20 -->
<g id="edge19" class="edge">
<title>Node1&#45;&gt;Node20</title>
<path fill="none" stroke="midnightblue" d="M3161.94,-84.97C3137.75,-72.87 3108.8,-58.4 3086.01,-47"/>
<polygon fill="midnightblue" stroke="midnightblue" points="3160.45,-88.14 3170.96,-89.48 3163.58,-81.88 3160.45,-88.14"/>
</g>
<!-- Node21 -->
<g id="node21" class="node">
<title>Node21</title>
<g id="a_node21"><a xlink:href="nondet__static_8cpp.html" target="_top" xlink:title="Nondeterministically initializes global scope variables, except for constants (such as string literal...">
<polygon fill="none" stroke="black" points="3137.5,-6 3137.5,-47 3282.5,-47 3282.5,-6 3137.5,-6"/>
<text text-anchor="start" x="3145.5" y="-35" font-family="Helvetica,sans-Serif" font-size="10.00">/home/runner/work/cbmc</text>
<text text-anchor="start" x="3145.5" y="-24" font-family="Helvetica,sans-Serif" font-size="10.00">/cbmc/src/goto&#45;instrument</text>
<text text-anchor="middle" x="3210" y="-13" font-family="Helvetica,sans-Serif" font-size="10.00">/nondet_static.cpp</text>
</a>
</g>
</g>
<!-- Node1&#45;&gt;Node21 -->
<g id="edge20" class="edge">
<title>Node1&#45;&gt;Node21</title>
<path fill="none" stroke="midnightblue" d="M3210,-79.06C3210,-68.38 3210,-56.63 3210,-47.05"/>
<polygon fill="midnightblue" stroke="midnightblue" points="3206.5,-79.27 3210,-89.27 3213.5,-79.27 3206.5,-79.27"/>
</g>
<!-- Node22 -->
<g id="node22" class="node">
<title>Node22</title>
<g id="a_node22"><a xlink:href="race__check_8cpp.html" target="_top" xlink:title="Race Detection for Threaded Goto Programs.">
<polygon fill="none" stroke="black" points="3300.5,-6 3300.5,-47 3445.5,-47 3445.5,-6 3300.5,-6"/>
<text text-anchor="start" x="3308.5" y="-35" font-family="Helvetica,sans-Serif" font-size="10.00">/home/runner/work/cbmc</text>
<text text-anchor="start" x="3308.5" y="-24" font-family="Helvetica,sans-Serif" font-size="10.00">/cbmc/src/goto&#45;instrument</text>
<text text-anchor="middle" x="3373" y="-13" font-family="Helvetica,sans-Serif" font-size="10.00">/race_check.cpp</text>
</a>
</g>
</g>
<!-- Node1&#45;&gt;Node22 -->
<g id="edge21" class="edge">
<title>Node1&#45;&gt;Node22</title>
<path fill="none" stroke="midnightblue" d="M3258.06,-84.97C3282.25,-72.87 3311.2,-58.4 3333.99,-47"/>
<polygon fill="midnightblue" stroke="midnightblue" points="3256.42,-81.88 3249.04,-89.48 3259.55,-88.14 3256.42,-81.88"/>
</g>
<!-- Node23 -->
<g id="node23" class="node">
<title>Node23</title>
<g id="a_node23"><a xlink:href="stack__depth_8cpp.html" target="_top" xlink:title="Stack depth checks.">
<polygon fill="none" stroke="black" points="3463.5,-6 3463.5,-47 3608.5,-47 3608.5,-6 3463.5,-6"/>
<text text-anchor="start" x="3471.5" y="-35" font-family="Helvetica,sans-Serif" font-size="10.00">/home/runner/work/cbmc</text>
<text text-anchor="start" x="3471.5" y="-24" font-family="Helvetica,sans-Serif" font-size="10.00">/cbmc/src/goto&#45;instrument</text>
<text text-anchor="middle" x="3536" y="-13" font-family="Helvetica,sans-Serif" font-size="10.00">/stack_depth.cpp</text>
</a>
</g>
</g>
<!-- Node1&#45;&gt;Node23 -->
<g id="edge22" class="edge">
<title>Node1&#45;&gt;Node23</title>
<path fill="none" stroke="midnightblue" d="M3289.07,-92.61C3337.26,-82.21 3399.96,-67.93 3455,-53 3461.69,-51.19 3468.65,-49.18 3475.56,-47.11"/>
<polygon fill="midnightblue" stroke="midnightblue" points="3288.05,-89.25 3279.01,-94.78 3289.52,-96.1 3288.05,-89.25"/>
</g>
<!-- Node24 -->
<g id="node24" class="node">
<title>Node24</title>
<g id="a_node24"><a xlink:href="goto2graph_8cpp.html" target="_top" xlink:title="Turns a goto&#45;program into an abstract event graph.">
<polygon fill="none" stroke="black" points="3626.5,-6 3626.5,-47 3771.5,-47 3771.5,-6 3626.5,-6"/>
<text text-anchor="start" x="3634.5" y="-35" font-family="Helvetica,sans-Serif" font-size="10.00">/home/runner/work/cbmc</text>
<text text-anchor="start" x="3634.5" y="-24" font-family="Helvetica,sans-Serif" font-size="10.00">/cbmc/src/goto&#45;instrument</text>
<text text-anchor="middle" x="3699" y="-13" font-family="Helvetica,sans-Serif" font-size="10.00">/wmm/goto2graph.cpp</text>
</a>
</g>
</g>
<!-- Node1&#45;&gt;Node24 -->
<g id="edge23" class="edge">
<title>Node1&#45;&gt;Node24</title>
<path fill="none" stroke="midnightblue" d="M3289.3,-102.11C3372.03,-94 3505.16,-78.32 3618,-53 3625.48,-51.32 3633.26,-49.27 3640.92,-47.07"/>
<polygon fill="midnightblue" stroke="midnightblue" points="3288.83,-98.64 3279.21,-103.09 3289.5,-105.61 3288.83,-98.64"/>
</g>
<!-- Node25 -->
<g id="node25" class="node">
<title>Node25</title>
<g id="a_node25"><a xlink:href="shared__buffers_8cpp.html" target="_top" xlink:title=" ">
<polygon fill="none" stroke="black" points="3789.5,-6 3789.5,-47 3934.5,-47 3934.5,-6 3789.5,-6"/>
<text text-anchor="start" x="3797.5" y="-35" font-family="Helvetica,sans-Serif" font-size="10.00">/home/runner/work/cbmc</text>
<text text-anchor="start" x="3797.5" y="-24" font-family="Helvetica,sans-Serif" font-size="10.00">/cbmc/src/goto&#45;instrument</text>
<text text-anchor="middle" x="3862" y="-13" font-family="Helvetica,sans-Serif" font-size="10.00">/wmm/shared_buffers.cpp</text>
</a>
</g>
</g>
<!-- Node1&#45;&gt;Node25 -->
<g id="edge24" class="edge">
<title>Node1&#45;&gt;Node25</title>
<path fill="none" stroke="midnightblue" d="M3289.35,-106.4C3400.35,-101.6 3607.81,-88.36 3781,-53 3788.8,-51.41 3796.91,-49.35 3804.86,-47.1"/>
<polygon fill="midnightblue" stroke="midnightblue" points="3289.09,-102.91 3279.24,-106.83 3289.38,-109.91 3289.09,-102.91"/>
</g>
<!-- Node26 -->
<g id="node26" class="node">
<title>Node26</title>
<g id="a_node26"><a xlink:href="weak__memory_8cpp.html" target="_top" xlink:title="Weak Memory Instrumentation for Threaded Goto Programs.">
<polygon fill="none" stroke="black" points="3952.5,-6 3952.5,-47 4097.5,-47 4097.5,-6 3952.5,-6"/>
<text text-anchor="start" x="3960.5" y="-35" font-family="Helvetica,sans-Serif" font-size="10.00">/home/runner/work/cbmc</text>
<text text-anchor="start" x="3960.5" y="-24" font-family="Helvetica,sans-Serif" font-size="10.00">/cbmc/src/goto&#45;instrument</text>
<text text-anchor="middle" x="4025" y="-13" font-family="Helvetica,sans-Serif" font-size="10.00">/wmm/weak_memory.cpp</text>
</a>
</g>
</g>
<!-- Node1&#45;&gt;Node26 -->
<g id="edge25" class="edge">
<title>Node1&#45;&gt;Node26</title>
<path fill="none" stroke="midnightblue" d="M3289.28,-108.86C3424.73,-107.32 3708.88,-98.36 3944,-53 3952.11,-51.44 3960.54,-49.34 3968.78,-47.01"/>
<polygon fill="midnightblue" stroke="midnightblue" points="3288.96,-105.37 3279,-108.97 3289.04,-112.37 3288.96,-105.37"/>
</g>
<!-- Node27 -->
<g id="node27" class="node">
<title>Node27</title>
<g id="a_node27"><a xlink:href="goto__convert__functions_8cpp.html" target="_top" xlink:title=" ">
<polygon fill="none" stroke="black" points="4116,-6 4116,-47 4270,-47 4270,-6 4116,-6"/>
<text text-anchor="start" x="4124" y="-35" font-family="Helvetica,sans-Serif" font-size="10.00">/home/runner/work/cbmc</text>
<text text-anchor="start" x="4124" y="-24" font-family="Helvetica,sans-Serif" font-size="10.00">/cbmc/src/goto&#45;programs</text>
<text text-anchor="middle" x="4193" y="-13" font-family="Helvetica,sans-Serif" font-size="10.00">/goto_convert_functions.cpp</text>
</a>
</g>
</g>
<!-- Node1&#45;&gt;Node27 -->
<g id="edge26" class="edge">
<title>Node1&#45;&gt;Node27</title>
<path fill="none" stroke="midnightblue" d="M3289.33,-106.35C3478.33,-99.65 3951.04,-80.62 4107,-53 4115.59,-51.48 4124.53,-49.4 4133.27,-47.09"/>
<polygon fill="midnightblue" stroke="midnightblue" points="3289.06,-102.85 3279.19,-106.7 3289.31,-109.85 3289.06,-102.85"/>
</g>
<!-- Node28 -->
<g id="node28" class="node">
<title>Node28</title>
<g id="a_node28"><a xlink:href="link__to__library_8cpp.html" target="_top" xlink:title="Library Linking.">
<polygon fill="none" stroke="black" points="4288,-6 4288,-47 4426,-47 4426,-6 4288,-6"/>
<text text-anchor="start" x="4296" y="-35" font-family="Helvetica,sans-Serif" font-size="10.00">/home/runner/work/cbmc</text>
<text text-anchor="start" x="4296" y="-24" font-family="Helvetica,sans-Serif" font-size="10.00">/cbmc/src/goto&#45;programs</text>
<text text-anchor="middle" x="4357" y="-13" font-family="Helvetica,sans-Serif" font-size="10.00">/link_to_library.cpp</text>
</a>
</g>
</g>
<!-- Node1&#45;&gt;Node28 -->
<g id="edge27" class="edge">
<title>Node1&#45;&gt;Node28</title>
<path fill="none" stroke="midnightblue" d="M3289.47,-107.55C3503.6,-103.2 4089.24,-88.35 4279,-53 4286.98,-51.51 4295.28,-49.42 4303.35,-47.07"/>
<polygon fill="midnightblue" stroke="midnightblue" points="3289.18,-104.05 3279.25,-107.75 3289.32,-111.05 3289.18,-104.05"/>
</g>
<!-- Node29 -->
<g id="node29" class="node">
<title>Node29</title>
<g id="a_node29"><a xlink:href="slice__global__inits_8cpp.html" target="_top" xlink:title="Remove initializations of unused global variables.">
<polygon fill="none" stroke="black" points="4444,-6 4444,-47 4582,-47 4582,-6 4444,-6"/>
<text text-anchor="start" x="4452" y="-35" font-family="Helvetica,sans-Serif" font-size="10.00">/home/runner/work/cbmc</text>
<text text-anchor="start" x="4452" y="-24" font-family="Helvetica,sans-Serif" font-size="10.00">/cbmc/src/goto&#45;programs</text>
<text text-anchor="middle" x="4513" y="-13" font-family="Helvetica,sans-Serif" font-size="10.00">/slice_global_inits.cpp</text>
</a>
</g>
</g>
<!-- Node1&#45;&gt;Node29 -->
<g id="edge28" class="edge">
<title>Node1&#45;&gt;Node29</title>
<path fill="none" stroke="midnightblue" d="M3289.39,-108.17C3524.41,-105.26 4213.94,-93.41 4435,-53 4442.99,-51.54 4451.29,-49.47 4459.36,-47.12"/>
<polygon fill="midnightblue" stroke="midnightblue" points="3289.17,-104.67 3279.22,-108.29 3289.26,-111.67 3289.17,-104.67"/>
</g>
<!-- Node30 -->
<g id="node30" class="node">
<title>Node30</title>
<g id="a_node30"><a xlink:href="shadow__memory_8cpp.html" target="_top" xlink:title="Symex Shadow Memory Instrumentation.">
<polygon fill="none" stroke="black" points="4600.5,-6 4600.5,-47 4765.5,-47 4765.5,-6 4600.5,-6"/>
<text text-anchor="start" x="4608.5" y="-35" font-family="Helvetica,sans-Serif" font-size="10.00">/home/runner/work/cbmc</text>
<text text-anchor="start" x="4608.5" y="-24" font-family="Helvetica,sans-Serif" font-size="10.00">/cbmc/src/goto&#45;symex/shadow</text>
<text text-anchor="middle" x="4683" y="-13" font-family="Helvetica,sans-Serif" font-size="10.00">_memory.cpp</text>
</a>
</g>
</g>
<!-- Node1&#45;&gt;Node30 -->
<g id="edge29" class="edge">
<title>Node1&#45;&gt;Node30</title>
<path fill="none" stroke="midnightblue" d="M3289.6,-108.17C3544.32,-105.15 4337.6,-92.71 4591,-53 4600.33,-51.54 4610.07,-49.46 4619.57,-47.12"/>
<polygon fill="midnightblue" stroke="midnightblue" points="3289.28,-104.68 3279.32,-108.29 3289.36,-111.68 3289.28,-104.68"/>
</g>
<!-- Node31 -->
<g id="node31" class="node">
<title>Node31</title>
<g id="a_node31"><a xlink:href="jsil__entry__point_8cpp.html" target="_top" xlink:title="Jsil Language.">
<polygon fill="none" stroke="black" points="4784,-6 4784,-47 4922,-47 4922,-6 4784,-6"/>
<text text-anchor="start" x="4792" y="-35" font-family="Helvetica,sans-Serif" font-size="10.00">/home/runner/work/cbmc</text>
<text text-anchor="start" x="4792" y="-24" font-family="Helvetica,sans-Serif" font-size="10.00">/cbmc/src/jsil/jsil_entry</text>
<text text-anchor="middle" x="4853" y="-13" font-family="Helvetica,sans-Serif" font-size="10.00">_point.cpp</text>
</a>
</g>
</g>
<!-- Node1&#45;&gt;Node31 -->
<g id="edge30" class="edge">
<title>Node1&#45;&gt;Node31</title>
<path fill="none" stroke="midnightblue" d="M3289.71,-109.09C3566.55,-108.94 4485.28,-104.48 4775,-53 4783.14,-51.55 4791.59,-49.45 4799.8,-47.07"/>
<polygon fill="midnightblue" stroke="midnightblue" points="3289.35,-105.59 3279.35,-109.09 3289.35,-112.59 3289.35,-105.59"/>
</g>
<!-- Node32 -->
<g id="node32" class="node">
<title>Node32</title>
<g id="a_node32"><a xlink:href="remove__internal__symbols_8cpp.html" target="_top" xlink:title="Remove symbols that are internal only.">
<polygon fill="none" stroke="black" points="4940,-6 4940,-47 5080,-47 5080,-6 4940,-6"/>
<text text-anchor="start" x="4948" y="-35" font-family="Helvetica,sans-Serif" font-size="10.00">/home/runner/work/cbmc</text>
<text text-anchor="start" x="4948" y="-24" font-family="Helvetica,sans-Serif" font-size="10.00">/cbmc/src/linking/remove</text>
<text text-anchor="middle" x="5010" y="-13" font-family="Helvetica,sans-Serif" font-size="10.00">_internal_symbols.cpp</text>
</a>
</g>
</g>
<!-- Node1&#45;&gt;Node32 -->
<g id="edge31" class="edge">
<title>Node1&#45;&gt;Node32</title>
<path fill="none" stroke="midnightblue" d="M3289.62,-109.35C3583.85,-110.21 4609.38,-109 4931,-53 4939.24,-51.57 4947.79,-49.47 4956.11,-47.09"/>
<polygon fill="midnightblue" stroke="midnightblue" points="3289.47,-105.85 3279.46,-109.32 3289.45,-112.85 3289.47,-105.85"/>
</g>
<!-- Node33 -->
<g id="node33" class="node">
<title>Node33</title>
<g id="a_node33"><a xlink:href="static__lifetime__init_8cpp.html" target="_top" xlink:title=" ">
<polygon fill="none" stroke="black" points="5098,-6 5098,-47 5236,-47 5236,-6 5098,-6"/>
<text text-anchor="start" x="5106" y="-35" font-family="Helvetica,sans-Serif" font-size="10.00">/home/runner/work/cbmc</text>
<text text-anchor="start" x="5106" y="-24" font-family="Helvetica,sans-Serif" font-size="10.00">/cbmc/src/linking/static</text>
<text text-anchor="middle" x="5167" y="-13" font-family="Helvetica,sans-Serif" font-size="10.00">_lifetime_init.cpp</text>
</a>
</g>
</g>
<!-- Node1&#45;&gt;Node33 -->
<g id="edge32" class="edge">
<title>Node1&#45;&gt;Node33</title>
<path fill="none" stroke="midnightblue" d="M3289.17,-107.98C3623.42,-103.47 4910.21,-84.22 5089,-53 5097.14,-51.58 5105.6,-49.49 5113.81,-47.12"/>
<polygon fill="midnightblue" stroke="midnightblue" points="3289.04,-104.48 3279.09,-108.11 3289.13,-111.48 3289.04,-104.48"/>
</g>
<!-- Node34 -->
<g id="node34" class="node">
<title>Node34</title>
<g id="a_node34"><a xlink:href="statement__list__entry__point_8cpp.html" target="_top" xlink:title="Statement List Language Entry Point.">
<polygon fill="none" stroke="black" points="5254.5,-6 5254.5,-47 5425.5,-47 5425.5,-6 5254.5,-6"/>
<text text-anchor="start" x="5262.5" y="-35" font-family="Helvetica,sans-Serif" font-size="10.00">/home/runner/work/cbmc</text>
<text text-anchor="start" x="5262.5" y="-24" font-family="Helvetica,sans-Serif" font-size="10.00">/cbmc/src/statement&#45;list</text>
<text text-anchor="middle" x="5340" y="-13" font-family="Helvetica,sans-Serif" font-size="10.00">/statement_list_entry_point.cpp</text>
</a>
</g>
</g>
<!-- Node1&#45;&gt;Node34 -->
<g id="edge33" class="edge">
<title>Node1&#45;&gt;Node34</title>
<path fill="none" stroke="midnightblue" d="M3289.4,-109.3C3616.09,-110.16 4857.51,-109.53 5245,-53 5254.89,-51.56 5265.21,-49.44 5275.27,-47.04"/>
<polygon fill="midnightblue" stroke="midnightblue" points="3289.09,-105.8 3279.08,-109.27 3289.07,-112.8 3289.09,-105.8"/>
</g>
<!-- Node35 -->
<g id="node35" class="node">
<title>Node35</title>
<g id="a_node35"><a xlink:href="janalyzer__parse__options_8cpp.html" target="_top" xlink:title="JANALYZER Command Line Option Processing.">
<polygon fill="none" stroke="black" points="5444,-6 5444,-47 5602,-47 5602,-6 5444,-6"/>
<text text-anchor="start" x="5452" y="-35" font-family="Helvetica,sans-Serif" font-size="10.00">/home/runner/work/cbmc</text>
<text text-anchor="start" x="5452" y="-24" font-family="Helvetica,sans-Serif" font-size="10.00">/cbmc/jbmc/src/janalyzer</text>
<text text-anchor="middle" x="5523" y="-13" font-family="Helvetica,sans-Serif" font-size="10.00">/janalyzer_parse_options.cpp</text>
</a>
</g>
</g>
<!-- Node1&#45;&gt;Node35 -->
<g id="edge34" class="edge">
<title>Node1&#45;&gt;Node35</title>
<path fill="none" stroke="midnightblue" d="M3289.21,-108.21C3660.54,-104.36 5219.95,-86.29 5435,-53 5444.27,-51.56 5453.95,-49.44 5463.34,-47.01"/>
<polygon fill="midnightblue" stroke="midnightblue" points="3289.06,-104.71 3279.09,-108.32 3289.13,-111.71 3289.06,-104.71"/>
</g>
<!-- Node36 -->
<g id="node36" class="node">
<title>Node36</title>
<g id="a_node36"><a xlink:href="java__bytecode__language_8cpp.html" target="_top" xlink:title=" ">
<polygon fill="none" stroke="black" points="5620,-6 5620,-47 5784,-47 5784,-6 5620,-6"/>
<text text-anchor="start" x="5628" y="-35" font-family="Helvetica,sans-Serif" font-size="10.00">/home/runner/work/cbmc</text>
<text text-anchor="start" x="5628" y="-24" font-family="Helvetica,sans-Serif" font-size="10.00">/cbmc/jbmc/src/java_bytecode</text>
<text text-anchor="middle" x="5702" y="-13" font-family="Helvetica,sans-Serif" font-size="10.00">/java_bytecode_language.cpp</text>
</a>
</g>
</g>
<!-- Node1&#45;&gt;Node36 -->
<g id="edge35" class="edge">
<title>Node1&#45;&gt;Node36</title>
<path fill="none" stroke="midnightblue" d="M3289.04,-108.33C3677.78,-104.87 5377.5,-87.88 5611,-53 5620.57,-51.57 5630.57,-49.44 5640.28,-47.02"/>
<polygon fill="midnightblue" stroke="midnightblue" points="3288.98,-104.83 3279.01,-108.42 3289.04,-111.83 3288.98,-104.83"/>
</g>
<!-- Node37 -->
<g id="node37" class="node">
<title>Node37</title>
<g id="a_node37"><a xlink:href="java__entry__point_8cpp.html" target="_top" xlink:title=" ">
<polygon fill="none" stroke="black" points="5802,-6 5802,-47 5966,-47 5966,-6 5802,-6"/>
<text text-anchor="start" x="5810" y="-35" font-family="Helvetica,sans-Serif" font-size="10.00">/home/runner/work/cbmc</text>
<text text-anchor="start" x="5810" y="-24" font-family="Helvetica,sans-Serif" font-size="10.00">/cbmc/jbmc/src/java_bytecode</text>
<text text-anchor="middle" x="5884" y="-13" font-family="Helvetica,sans-Serif" font-size="10.00">/java_entry_point.cpp</text>
</a>
</g>
</g>
<!-- Node1&#45;&gt;Node37 -->
<g id="edge36" class="edge">
<title>Node1&#45;&gt;Node37</title>
<path fill="none" stroke="midnightblue" d="M3289.32,-108.47C3696.29,-105.58 5540.62,-90.48 5793,-53 5802.58,-51.58 5812.57,-49.46 5822.28,-47.03"/>
<polygon fill="midnightblue" stroke="midnightblue" points="3289.1,-104.97 3279.12,-108.54 3289.15,-111.97 3289.1,-104.97"/>
</g>
<!-- Node38 -->
<g id="node38" class="node">
<title>Node38</title>
<g id="a_node38"><a xlink:href="java__string__literals_8cpp.html" target="_top" xlink:title=" ">
<polygon fill="none" stroke="black" points="5984,-6 5984,-47 6148,-47 6148,-6 5984,-6"/>
<text text-anchor="start" x="5992" y="-35" font-family="Helvetica,sans-Serif" font-size="10.00">/home/runner/work/cbmc</text>
<text text-anchor="start" x="5992" y="-24" font-family="Helvetica,sans-Serif" font-size="10.00">/cbmc/jbmc/src/java_bytecode</text>
<text text-anchor="middle" x="6066" y="-13" font-family="Helvetica,sans-Serif" font-size="10.00">/java_string_literals.cpp</text>
</a>
</g>
</g>
<!-- Node1&#45;&gt;Node38 -->
<g id="edge37" class="edge">
<title>Node1&#45;&gt;Node38</title>
<path fill="none" stroke="midnightblue" d="M3289.02,-108.59C3712.43,-106.24 5703.58,-93.11 5975,-53 5984.58,-51.58 5994.57,-49.47 6004.29,-47.05"/>
<polygon fill="midnightblue" stroke="midnightblue" points="3289,-105.09 3279.02,-108.65 3289.04,-112.09 3289,-105.09"/>
</g>
<!-- Node39 -->
<g id="node39" class="node">
<title>Node39</title>
<g id="a_node39"><a xlink:href="remove__exceptions_8cpp.html" target="_top" xlink:title="Remove exception handling.">
<polygon fill="none" stroke="black" points="6166,-6 6166,-47 6330,-47 6330,-6 6166,-6"/>
<text text-anchor="start" x="6174" y="-35" font-family="Helvetica,sans-Serif" font-size="10.00">/home/runner/work/cbmc</text>
<text text-anchor="start" x="6174" y="-24" font-family="Helvetica,sans-Serif" font-size="10.00">/cbmc/jbmc/src/java_bytecode</text>
<text text-anchor="middle" x="6248" y="-13" font-family="Helvetica,sans-Serif" font-size="10.00">/remove_exceptions.cpp</text>
</a>
</g>
</g>
<!-- Node1&#45;&gt;Node39 -->
<g id="edge38" class="edge">
<title>Node1&#45;&gt;Node39</title>
<path fill="none" stroke="midnightblue" d="M3289.19,-108.7C3729.46,-106.85 5866.6,-95.73 6157,-53 6166.58,-51.59 6176.57,-49.48 6186.29,-47.06"/>
<polygon fill="midnightblue" stroke="midnightblue" points="3289.09,-105.2 3279.1,-108.74 3289.12,-112.2 3289.09,-105.2"/>
</g>
<!-- Node40 -->
<g id="node40" class="node">
<title>Node40</title>
<g id="a_node40"><a xlink:href="jbmc__parse__options_8cpp.html" target="_top" xlink:title="JBMC Command Line Option Processing.">
<polygon fill="none" stroke="black" points="6348,-6 6348,-47 6492,-47 6492,-6 6348,-6"/>
<text text-anchor="start" x="6356" y="-35" font-family="Helvetica,sans-Serif" font-size="10.00">/home/runner/work/cbmc</text>
<text text-anchor="start" x="6356" y="-24" font-family="Helvetica,sans-Serif" font-size="10.00">/cbmc/jbmc/src/jbmc/jbmc</text>
<text text-anchor="middle" x="6420" y="-13" font-family="Helvetica,sans-Serif" font-size="10.00">_parse_options.cpp</text>
</a>
</g>
</g>
<!-- Node1&#45;&gt;Node40 -->
<g id="edge39" class="edge">
<title>Node1&#45;&gt;Node40</title>
<path fill="none" stroke="midnightblue" d="M3289.27,-108.94C3745.83,-108.41 6030.33,-103.27 6339,-53 6347.59,-51.6 6356.52,-49.49 6365.18,-47.08"/>
<polygon fill="midnightblue" stroke="midnightblue" points="3289.14,-105.44 3279.15,-108.95 3289.15,-112.44 3289.14,-105.44"/>
</g>
</g>
</svg>
