<?xml version="1.0" encoding="UTF-8" standalone="no"?>
<!DOCTYPE svg PUBLIC "-//W3C//DTD SVG 1.1//EN"
 "http://www.w3.org/Graphics/SVG/1.1/DTD/svg11.dtd">
<!-- Generated by graphviz version 2.43.0 (0)
 -->
<!-- Title: /home/runner/work/cbmc/cbmc/src/util/std_expr.cpp Pages: 1 -->
<svg width="970pt" height="711pt"
 viewBox="0.00 0.00 970.00 711.00" xmlns="http://www.w3.org/2000/svg" xmlns:xlink="http://www.w3.org/1999/xlink">
<g id="graph0" class="graph" transform="scale(1 1) rotate(0) translate(4 707)">
<title>/home/runner/work/cbmc/cbmc/src/util/std_expr.cpp</title>
<!-- Node1 -->
<g id="node1" class="node">
<title>Node1</title>
<g id="a_node1"><a xlink:title=" ">
<polygon fill="#bfbfbf" stroke="black" points="523,-672.5 523,-702.5 669,-702.5 669,-672.5 523,-672.5"/>
<text text-anchor="start" x="531" y="-690.5" font-family="Helvetica,sans-Serif" font-size="10.00">/home/runner/work/cbmc</text>
<text text-anchor="middle" x="596" y="-679.5" font-family="Helvetica,sans-Serif" font-size="10.00">/cbmc/src/util/std_expr.cpp</text>
</a>
</g>
</g>
<!-- Node2 -->
<g id="node2" class="node">
<title>Node2</title>
<g id="a_node2"><a xlink:href="std__expr_8h.html" target="_top" xlink:title=" ">
<polygon fill="none" stroke="black" points="468.5,-560.5 468.5,-579.5 535.5,-579.5 535.5,-560.5 468.5,-560.5"/>
<text text-anchor="middle" x="502" y="-567.5" font-family="Helvetica,sans-Serif" font-size="10.00">std_expr.h</text>
</a>
</g>
</g>
<!-- Node1&#45;&gt;Node2 -->
<g id="edge1" class="edge">
<title>Node1&#45;&gt;Node2</title>
<path fill="none" stroke="midnightblue" d="M579.59,-672.34C568.85,-662.66 554.85,-649.23 544,-636 531.66,-620.95 519.84,-602.12 511.9,-588.61"/>
<polygon fill="midnightblue" stroke="midnightblue" points="514.87,-586.76 506.85,-579.84 508.81,-590.25 514.87,-586.76"/>
</g>
<!-- Node42 -->
<g id="node27" class="node">
<title>Node42</title>
<g id="a_node27"><a xlink:href="namespace_8h.html" target="_top" xlink:title=" ">
<polygon fill="none" stroke="black" points="708,-168.5 708,-187.5 790,-187.5 790,-168.5 708,-168.5"/>
<text text-anchor="middle" x="749" y="-175.5" font-family="Helvetica,sans-Serif" font-size="10.00">namespace.h</text>
</a>
</g>
</g>
<!-- Node1&#45;&gt;Node42 -->
<g id="edge44" class="edge">
<title>Node1&#45;&gt;Node42</title>
<path fill="none" stroke="midnightblue" d="M669,-673.41C757.81,-655.36 896,-619.48 896,-571 896,-571 896,-571 896,-289 896,-258.9 897.7,-245.85 877,-224 856.89,-202.78 826.18,-191.55 799.88,-185.62"/>
<polygon fill="midnightblue" stroke="midnightblue" points="800.55,-182.19 790.05,-183.6 799.14,-189.05 800.55,-182.19"/>
</g>
<!-- Node43 -->
<g id="node28" class="node">
<title>Node43</title>
<g id="a_node28"><a xlink:href="pointer__expr_8h.html" target="_top" xlink:title=" ">
<polygon fill="none" stroke="black" points="553,-616.5 553,-635.5 639,-635.5 639,-616.5 553,-616.5"/>
<text text-anchor="middle" x="596" y="-623.5" font-family="Helvetica,sans-Serif" font-size="10.00">pointer_expr.h</text>
</a>
</g>
</g>
<!-- Node1&#45;&gt;Node43 -->
<g id="edge47" class="edge">
<title>Node1&#45;&gt;Node43</title>
<path fill="none" stroke="midnightblue" d="M596,-672.4C596,-664.47 596,-654.46 596,-645.86"/>
<polygon fill="midnightblue" stroke="midnightblue" points="599.5,-645.66 596,-635.66 592.5,-645.66 599.5,-645.66"/>
</g>
<!-- Node45 -->
<g id="node30" class="node">
<title>Node45</title>
<g id="a_node30"><a xlink:href="range_8h.html" target="_top" xlink:title=" ">
<polygon fill="none" stroke="black" points="131.5,-392.5 131.5,-411.5 184.5,-411.5 184.5,-392.5 131.5,-392.5"/>
<text text-anchor="middle" x="158" y="-399.5" font-family="Helvetica,sans-Serif" font-size="10.00">range.h</text>
</a>
</g>
</g>
<!-- Node1&#45;&gt;Node45 -->
<g id="edge51" class="edge">
<title>Node1&#45;&gt;Node45</title>
<path fill="none" stroke="midnightblue" d="M522.63,-680.39C407.16,-668.73 196,-638.22 196,-571 196,-571 196,-571 196,-513 196,-478.81 179.4,-441.76 168.14,-420.57"/>
<polygon fill="midnightblue" stroke="midnightblue" points="171.18,-418.83 163.28,-411.77 165.05,-422.22 171.18,-418.83"/>
</g>
<!-- Node48 -->
<g id="node33" class="node">
<title>Node48</title>
<g id="a_node33"><a xlink:title=" ">
<polygon fill="none" stroke="#bfbfbf" points="924,-616.5 924,-635.5 962,-635.5 962,-616.5 924,-616.5"/>
<text text-anchor="middle" x="943" y="-623.5" font-family="Helvetica,sans-Serif" font-size="10.00">map</text>
</a>
</g>
</g>
<!-- Node1&#45;&gt;Node48 -->
<g id="edge57" class="edge">
<title>Node1&#45;&gt;Node48</title>
<path fill="none" stroke="midnightblue" d="M669.06,-677C732.97,-668.16 828.1,-653.7 910,-636 911.27,-635.72 912.57,-635.43 913.88,-635.12"/>
<polygon fill="midnightblue" stroke="midnightblue" points="915.06,-638.43 923.89,-632.58 913.34,-631.65 915.06,-638.43"/>
</g>
<!-- Node3 -->
<g id="node3" class="node">
<title>Node3</title>
<g id="a_node3"><a xlink:href="expr__cast_8h.html" target="_top" xlink:title="Templated functions to cast to specific exprt&#45;derived classes.">
<polygon fill="none" stroke="black" points="262.5,-448.5 262.5,-467.5 335.5,-467.5 335.5,-448.5 262.5,-448.5"/>
<text text-anchor="middle" x="299" y="-455.5" font-family="Helvetica,sans-Serif" font-size="10.00">expr_cast.h</text>
</a>
</g>
</g>
<!-- Node2&#45;&gt;Node3 -->
<g id="edge2" class="edge">
<title>Node2&#45;&gt;Node3</title>
<path fill="none" stroke="midnightblue" d="M468.35,-565.06C435.75,-559.92 386.08,-548.51 350,-524 331.9,-511.7 317.26,-490.97 308.38,-476.23"/>
<polygon fill="midnightblue" stroke="midnightblue" points="311.42,-474.49 303.4,-467.56 305.35,-477.97 311.42,-474.49"/>
</g>
<!-- Node7 -->
<g id="node7" class="node">
<title>Node7</title>
<g id="a_node7"><a xlink:href="src_2util_2invariant_8h.html" target="_top" xlink:title=" ">
<polygon fill="none" stroke="black" points="466.5,-56.5 466.5,-75.5 535.5,-75.5 535.5,-56.5 466.5,-56.5"/>
<text text-anchor="middle" x="501" y="-63.5" font-family="Helvetica,sans-Serif" font-size="10.00">invariant.h</text>
</a>
</g>
</g>
<!-- Node2&#45;&gt;Node7 -->
<g id="edge33" class="edge">
<title>Node2&#45;&gt;Node7</title>
<path fill="none" stroke="midnightblue" d="M473.41,-560.49C432.99,-546.48 364,-514.46 364,-459 364,-459 364,-459 364,-177 364,-126 422.45,-94.69 462.99,-79.11"/>
<polygon fill="midnightblue" stroke="midnightblue" points="464.43,-82.31 472.61,-75.58 462.02,-75.74 464.43,-82.31"/>
</g>
<!-- Node39 -->
<g id="node22" class="node">
<title>Node39</title>
<g id="a_node22"><a xlink:href="std__types_8h.html" target="_top" xlink:title=" ">
<polygon fill="none" stroke="black" points="567.5,-504.5 567.5,-523.5 640.5,-523.5 640.5,-504.5 567.5,-504.5"/>
<text text-anchor="middle" x="604" y="-511.5" font-family="Helvetica,sans-Serif" font-size="10.00">std_types.h</text>
</a>
</g>
</g>
<!-- Node2&#45;&gt;Node39 -->
<g id="edge34" class="edge">
<title>Node2&#45;&gt;Node39</title>
<path fill="none" stroke="midnightblue" d="M518.39,-560.32C534.67,-551.7 559.87,-538.36 578.72,-528.39"/>
<polygon fill="midnightblue" stroke="midnightblue" points="580.45,-531.43 587.65,-523.65 577.18,-525.24 580.45,-531.43"/>
</g>
<!-- Node4 -->
<g id="node4" class="node">
<title>Node4</title>
<g id="a_node4"><a xlink:title=" ">
<polygon fill="none" stroke="#bfbfbf" points="202.5,-392.5 202.5,-411.5 259.5,-411.5 259.5,-392.5 202.5,-392.5"/>
<text text-anchor="middle" x="231" y="-399.5" font-family="Helvetica,sans-Serif" font-size="10.00">typeinfo</text>
</a>
</g>
</g>
<!-- Node3&#45;&gt;Node4 -->
<g id="edge3" class="edge">
<title>Node3&#45;&gt;Node4</title>
<path fill="none" stroke="midnightblue" d="M288.07,-448.32C277.83,-440.18 262.28,-427.84 250,-418.09"/>
<polygon fill="midnightblue" stroke="midnightblue" points="252.13,-415.31 242.12,-411.83 247.78,-420.79 252.13,-415.31"/>
</g>
<!-- Node5 -->
<g id="node5" class="node">
<title>Node5</title>
<g id="a_node5"><a xlink:title=" ">
<polygon fill="none" stroke="#bfbfbf" points="128.5,-0.5 128.5,-19.5 197.5,-19.5 197.5,-0.5 128.5,-0.5"/>
<text text-anchor="middle" x="163" y="-7.5" font-family="Helvetica,sans-Serif" font-size="10.00">type_traits</text>
</a>
</g>
</g>
<!-- Node3&#45;&gt;Node5 -->
<g id="edge4" class="edge">
<title>Node3&#45;&gt;Node5</title>
<path fill="none" stroke="midnightblue" d="M262.34,-451.45C182.5,-438.34 0,-402.31 0,-347 0,-347 0,-347 0,-121 0,-63.63 70.24,-34.18 118.5,-20.71"/>
<polygon fill="midnightblue" stroke="midnightblue" points="119.66,-24.03 128.43,-18.08 117.87,-17.26 119.66,-24.03"/>
</g>
<!-- Node6 -->
<g id="node6" class="node">
<title>Node6</title>
<g id="a_node6"><a xlink:title=" ">
<polygon fill="none" stroke="#bfbfbf" points="232.5,-336.5 232.5,-355.5 297.5,-355.5 297.5,-336.5 232.5,-336.5"/>
<text text-anchor="middle" x="265" y="-343.5" font-family="Helvetica,sans-Serif" font-size="10.00">functional</text>
</a>
</g>
</g>
<!-- Node3&#45;&gt;Node6 -->
<g id="edge5" class="edge">
<title>Node3&#45;&gt;Node6</title>
<path fill="none" stroke="midnightblue" d="M296.33,-448.37C290.82,-430.54 278.07,-389.3 270.65,-365.27"/>
<polygon fill="midnightblue" stroke="midnightblue" points="273.95,-364.11 267.66,-355.59 267.26,-366.18 273.95,-364.11"/>
</g>
<!-- Node3&#45;&gt;Node7 -->
<g id="edge6" class="edge">
<title>Node3&#45;&gt;Node7</title>
<path fill="none" stroke="midnightblue" d="M302.64,-448.34C310.01,-430 326,-385.74 326,-347 326,-347 326,-347 326,-177 326,-146.2 327.54,-133.07 350,-112 378.72,-85.07 422.87,-74.19 456.03,-69.84"/>
<polygon fill="midnightblue" stroke="midnightblue" points="456.84,-73.27 466.37,-68.64 456.04,-66.31 456.84,-73.27"/>
</g>
<!-- Node11 -->
<g id="node11" class="node">
<title>Node11</title>
<g id="a_node11"><a xlink:href="expr_8h.html" target="_top" xlink:title=" ">
<polygon fill="none" stroke="black" points="484.5,-392.5 484.5,-411.5 531.5,-411.5 531.5,-392.5 484.5,-392.5"/>
<text text-anchor="middle" x="508" y="-399.5" font-family="Helvetica,sans-Serif" font-size="10.00">expr.h</text>
</a>
</g>
</g>
<!-- Node3&#45;&gt;Node11 -->
<g id="edge11" class="edge">
<title>Node3&#45;&gt;Node11</title>
<path fill="none" stroke="midnightblue" d="M332.12,-448.44C371.11,-438.37 435.49,-421.74 474.6,-411.63"/>
<polygon fill="midnightblue" stroke="midnightblue" points="475.64,-414.98 484.44,-409.09 473.89,-408.2 475.64,-414.98"/>
</g>
<!-- Node7&#45;&gt;Node5 -->
<g id="edge10" class="edge">
<title>Node7&#45;&gt;Node5</title>
<path fill="none" stroke="midnightblue" d="M466.42,-59.47C404.72,-49.62 275.77,-29.02 207.54,-18.12"/>
<polygon fill="midnightblue" stroke="midnightblue" points="207.96,-14.64 197.53,-16.52 206.86,-21.55 207.96,-14.64"/>
</g>
<!-- Node8 -->
<g id="node8" class="node">
<title>Node8</title>
<g id="a_node8"><a xlink:title=" ">
<polygon fill="none" stroke="#bfbfbf" points="512.5,-0.5 512.5,-19.5 561.5,-19.5 561.5,-0.5 512.5,-0.5"/>
<text text-anchor="middle" x="537" y="-7.5" font-family="Helvetica,sans-Serif" font-size="10.00">cstdlib</text>
</a>
</g>
</g>
<!-- Node7&#45;&gt;Node8 -->
<g id="edge7" class="edge">
<title>Node7&#45;&gt;Node8</title>
<path fill="none" stroke="midnightblue" d="M506.94,-56.08C511.98,-48.53 519.34,-37.49 525.51,-28.23"/>
<polygon fill="midnightblue" stroke="midnightblue" points="528.53,-30.01 531.17,-19.75 522.71,-26.13 528.53,-30.01"/>
</g>
<!-- Node9 -->
<g id="node9" class="node">
<title>Node9</title>
<g id="a_node9"><a xlink:title=" ">
<polygon fill="none" stroke="#bfbfbf" points="438,-0.5 438,-19.5 494,-19.5 494,-0.5 438,-0.5"/>
<text text-anchor="middle" x="466" y="-7.5" font-family="Helvetica,sans-Serif" font-size="10.00">sstream</text>
</a>
</g>
</g>
<!-- Node7&#45;&gt;Node9 -->
<g id="edge8" class="edge">
<title>Node7&#45;&gt;Node9</title>
<path fill="none" stroke="midnightblue" d="M495.22,-56.08C490.33,-48.53 483.17,-37.49 477.17,-28.23"/>
<polygon fill="midnightblue" stroke="midnightblue" points="480.05,-26.24 471.67,-19.75 474.17,-30.05 480.05,-26.24"/>
</g>
<!-- Node10 -->
<g id="node10" class="node">
<title>Node10</title>
<g id="a_node10"><a xlink:title=" ">
<polygon fill="none" stroke="#bfbfbf" points="727,-0.5 727,-19.5 771,-19.5 771,-0.5 727,-0.5"/>
<text text-anchor="middle" x="749" y="-7.5" font-family="Helvetica,sans-Serif" font-size="10.00">string</text>
</a>
</g>
</g>
<!-- Node7&#45;&gt;Node10 -->
<g id="edge9" class="edge">
<title>Node7&#45;&gt;Node10</title>
<path fill="none" stroke="midnightblue" d="M535.74,-57.43C583.95,-46.94 670.46,-28.1 717.1,-17.95"/>
<polygon fill="midnightblue" stroke="midnightblue" points="717.94,-21.34 726.97,-15.8 716.45,-14.5 717.94,-21.34"/>
</g>
<!-- Node11&#45;&gt;Node6 -->
<g id="edge32" class="edge">
<title>Node11&#45;&gt;Node6</title>
<path fill="none" stroke="midnightblue" d="M484.26,-395.72C443.28,-386.62 358.75,-367.83 307.45,-356.43"/>
<polygon fill="midnightblue" stroke="midnightblue" points="308.18,-353.01 297.66,-354.26 306.66,-359.84 308.18,-353.01"/>
</g>
<!-- Node12 -->
<g id="node12" class="node">
<title>Node12</title>
<g id="a_node12"><a xlink:href="as__const_8h.html" target="_top" xlink:title=" ">
<polygon fill="none" stroke="black" points="392,-336.5 392,-355.5 460,-355.5 460,-336.5 392,-336.5"/>
<text text-anchor="middle" x="426" y="-343.5" font-family="Helvetica,sans-Serif" font-size="10.00">as_const.h</text>
</a>
</g>
</g>
<!-- Node11&#45;&gt;Node12 -->
<g id="edge12" class="edge">
<title>Node11&#45;&gt;Node12</title>
<path fill="none" stroke="midnightblue" d="M494.83,-392.32C482.15,-383.98 462.77,-371.21 447.79,-361.35"/>
<polygon fill="midnightblue" stroke="midnightblue" points="449.42,-358.23 439.14,-355.65 445.57,-364.08 449.42,-358.23"/>
</g>
<!-- Node13 -->
<g id="node13" class="node">
<title>Node13</title>
<g id="a_node13"><a xlink:href="type_8h.html" target="_top" xlink:title=" ">
<polygon fill="none" stroke="black" points="702.5,-336.5 702.5,-355.5 749.5,-355.5 749.5,-336.5 702.5,-336.5"/>
<text text-anchor="middle" x="726" y="-343.5" font-family="Helvetica,sans-Serif" font-size="10.00">type.h</text>
</a>
</g>
</g>
<!-- Node11&#45;&gt;Node13 -->
<g id="edge13" class="edge">
<title>Node11&#45;&gt;Node13</title>
<path fill="none" stroke="midnightblue" d="M531.74,-395.12C570.65,-385.48 648.08,-366.3 692.53,-355.29"/>
<polygon fill="midnightblue" stroke="midnightblue" points="693.42,-358.68 702.28,-352.87 691.74,-351.88 693.42,-358.68"/>
</g>
<!-- Node36 -->
<g id="node19" class="node">
<title>Node36</title>
<g id="a_node19"><a xlink:href="validation__mode_8h.html" target="_top" xlink:title=" ">
<polygon fill="none" stroke="black" points="604.5,-224.5 604.5,-243.5 711.5,-243.5 711.5,-224.5 604.5,-224.5"/>
<text text-anchor="middle" x="658" y="-231.5" font-family="Helvetica,sans-Serif" font-size="10.00">validation_mode.h</text>
</a>
</g>
</g>
<!-- Node11&#45;&gt;Node36 -->
<g id="edge31" class="edge">
<title>Node11&#45;&gt;Node36</title>
<path fill="none" stroke="midnightblue" d="M531.74,-398.47C591.5,-391.88 744.41,-373.44 759,-356 791.67,-316.95 723.48,-270.74 683.8,-248.41"/>
<polygon fill="midnightblue" stroke="midnightblue" points="685.32,-245.25 674.87,-243.51 681.96,-251.39 685.32,-245.25"/>
</g>
<!-- Node37 -->
<g id="node20" class="node">
<title>Node37</title>
<g id="a_node20"><a xlink:href="validate__types_8h.html" target="_top" xlink:title=" ">
<polygon fill="none" stroke="black" points="529,-280.5 529,-299.5 627,-299.5 627,-280.5 529,-280.5"/>
<text text-anchor="middle" x="578" y="-287.5" font-family="Helvetica,sans-Serif" font-size="10.00">validate_types.h</text>
</a>
</g>
</g>
<!-- Node11&#45;&gt;Node37 -->
<g id="edge30" class="edge">
<title>Node11&#45;&gt;Node37</title>
<path fill="none" stroke="midnightblue" d="M505.53,-392.37C502.31,-379.27 498.16,-354.03 508,-336 515.82,-321.68 530.36,-311.24 544.18,-304.04"/>
<polygon fill="midnightblue" stroke="midnightblue" points="546.02,-307.03 553.53,-299.56 543,-300.72 546.02,-307.03"/>
</g>
<!-- Node38 -->
<g id="node21" class="node">
<title>Node38</title>
<g id="a_node21"><a xlink:href="validate__expressions_8h.html" target="_top" xlink:title=" ">
<polygon fill="none" stroke="black" points="516.5,-336.5 516.5,-355.5 645.5,-355.5 645.5,-336.5 516.5,-336.5"/>
<text text-anchor="middle" x="581" y="-343.5" font-family="Helvetica,sans-Serif" font-size="10.00">validate_expressions.h</text>
</a>
</g>
</g>
<!-- Node11&#45;&gt;Node38 -->
<g id="edge29" class="edge">
<title>Node11&#45;&gt;Node38</title>
<path fill="none" stroke="midnightblue" d="M519.73,-392.32C530.84,-384.11 547.74,-371.6 560.98,-361.81"/>
<polygon fill="midnightblue" stroke="midnightblue" points="563.1,-364.59 569.06,-355.83 558.94,-358.97 563.1,-364.59"/>
</g>
<!-- Node14 -->
<g id="node14" class="node">
<title>Node14</title>
<g id="a_node14"><a xlink:href="source__location_8h.html" target="_top" xlink:title=" ">
<polygon fill="none" stroke="black" points="588,-168.5 588,-187.5 690,-187.5 690,-168.5 588,-168.5"/>
<text text-anchor="middle" x="639" y="-175.5" font-family="Helvetica,sans-Serif" font-size="10.00">source_location.h</text>
</a>
</g>
</g>
<!-- Node13&#45;&gt;Node14 -->
<g id="edge14" class="edge">
<title>Node13&#45;&gt;Node14</title>
<path fill="none" stroke="midnightblue" d="M713.8,-336.46C682.71,-314.56 602.47,-257.22 596,-244 587.12,-225.85 603.23,-206.76 618.2,-194"/>
<polygon fill="midnightblue" stroke="midnightblue" points="620.59,-196.57 626.23,-187.6 616.23,-191.09 620.59,-196.57"/>
</g>
<!-- Node34 -->
<g id="node17" class="node">
<title>Node34</title>
<g id="a_node17"><a xlink:href="validate_8h.html" target="_top" xlink:title=" ">
<polygon fill="none" stroke="black" points="786.5,-280.5 786.5,-299.5 851.5,-299.5 851.5,-280.5 786.5,-280.5"/>
<text text-anchor="middle" x="819" y="-287.5" font-family="Helvetica,sans-Serif" font-size="10.00">validate.h</text>
</a>
</g>
</g>
<!-- Node13&#45;&gt;Node34 -->
<g id="edge20" class="edge">
<title>Node13&#45;&gt;Node34</title>
<path fill="none" stroke="midnightblue" d="M740.94,-336.32C755.59,-327.82 778.13,-314.73 795.24,-304.8"/>
<polygon fill="midnightblue" stroke="midnightblue" points="797.2,-307.7 804.1,-299.65 793.69,-301.65 797.2,-307.7"/>
</g>
<!-- Node13&#45;&gt;Node36 -->
<g id="edge28" class="edge">
<title>Node13&#45;&gt;Node36</title>
<path fill="none" stroke="midnightblue" d="M720.66,-336.37C709.49,-318.3 683.45,-276.18 668.7,-252.31"/>
<polygon fill="midnightblue" stroke="midnightblue" points="671.55,-250.26 663.31,-243.59 665.59,-253.94 671.55,-250.26"/>
</g>
<!-- Node13&#45;&gt;Node37 -->
<g id="edge27" class="edge">
<title>Node13&#45;&gt;Node37</title>
<path fill="none" stroke="midnightblue" d="M702.55,-336.44C677.87,-327.44 638.81,-313.19 611.02,-303.05"/>
<polygon fill="midnightblue" stroke="midnightblue" points="611.94,-299.66 601.34,-299.52 609.54,-306.23 611.94,-299.66"/>
</g>
<!-- Node14&#45;&gt;Node10 -->
<g id="edge19" class="edge">
<title>Node14&#45;&gt;Node10</title>
<path fill="none" stroke="midnightblue" d="M644.91,-168.08C662.45,-141.61 714.4,-63.21 737.6,-28.21"/>
<polygon fill="midnightblue" stroke="midnightblue" points="740.72,-29.84 743.32,-19.57 734.88,-25.97 740.72,-29.84"/>
</g>
<!-- Node15 -->
<g id="node15" class="node">
<title>Node15</title>
<g id="a_node15"><a xlink:href="irep_8h.html" target="_top" xlink:title=" ">
<polygon fill="none" stroke="red" points="727,-112.5 727,-131.5 771,-131.5 771,-112.5 727,-112.5"/>
<text text-anchor="middle" x="749" y="-119.5" font-family="Helvetica,sans-Serif" font-size="10.00">irep.h</text>
</a>
</g>
</g>
<!-- Node14&#45;&gt;Node15 -->
<g id="edge15" class="edge">
<title>Node14&#45;&gt;Node15</title>
<path fill="none" stroke="midnightblue" d="M656.67,-168.32C674.39,-159.62 701.9,-146.12 722.29,-136.11"/>
<polygon fill="midnightblue" stroke="midnightblue" points="723.94,-139.2 731.37,-131.65 720.85,-132.92 723.94,-139.2"/>
</g>
<!-- Node32 -->
<g id="node16" class="node">
<title>Node32</title>
<g id="a_node16"><a xlink:href="optional_8h.html" target="_top" xlink:title=" ">
<polygon fill="none" stroke="red" points="567.5,-112.5 567.5,-131.5 632.5,-131.5 632.5,-112.5 567.5,-112.5"/>
<text text-anchor="middle" x="600" y="-119.5" font-family="Helvetica,sans-Serif" font-size="10.00">optional.h</text>
</a>
</g>
</g>
<!-- Node14&#45;&gt;Node32 -->
<g id="edge18" class="edge">
<title>Node14&#45;&gt;Node32</title>
<path fill="none" stroke="midnightblue" d="M632.56,-168.08C627.05,-160.46 618.97,-149.26 612.24,-139.94"/>
<polygon fill="midnightblue" stroke="midnightblue" points="615.01,-137.81 606.32,-131.75 609.34,-141.91 615.01,-137.81"/>
</g>
<!-- Node15&#45;&gt;Node7 -->
<g id="edge17" class="edge">
<title>Node15&#45;&gt;Node7</title>
<path fill="none" stroke="midnightblue" d="M726.99,-116.21C686.45,-107.38 599.26,-88.39 545.81,-76.76"/>
<polygon fill="midnightblue" stroke="midnightblue" points="546.43,-73.31 535.92,-74.6 544.94,-80.15 546.43,-73.31"/>
</g>
<!-- Node15&#45;&gt;Node10 -->
<g id="edge16" class="edge">
<title>Node15&#45;&gt;Node10</title>
<path fill="none" stroke="midnightblue" d="M749,-112.37C749,-94.62 749,-53.67 749,-29.6"/>
<polygon fill="midnightblue" stroke="midnightblue" points="752.5,-29.59 749,-19.59 745.5,-29.59 752.5,-29.59"/>
</g>
<!-- Node34&#45;&gt;Node5 -->
<g id="edge21" class="edge">
<title>Node34&#45;&gt;Node5</title>
<path fill="none" stroke="midnightblue" d="M808.88,-280.38C791.88,-266.36 756.01,-238.71 721,-224 650.2,-194.25 624.94,-212.04 552,-188 408.82,-140.8 247.87,-57.02 187.55,-24.46"/>
<polygon fill="midnightblue" stroke="midnightblue" points="188.9,-21.21 178.44,-19.52 185.56,-27.36 188.9,-21.21"/>
</g>
<!-- Node35 -->
<g id="node18" class="node">
<title>Node35</title>
<g id="a_node18"><a xlink:href="exception__utils_8h.html" target="_top" xlink:title=" ">
<polygon fill="none" stroke="black" points="768,-224.5 768,-243.5 868,-243.5 868,-224.5 768,-224.5"/>
<text text-anchor="middle" x="818" y="-231.5" font-family="Helvetica,sans-Serif" font-size="10.00">exception_utils.h</text>
</a>
</g>
</g>
<!-- Node34&#45;&gt;Node35 -->
<g id="edge22" class="edge">
<title>Node34&#45;&gt;Node35</title>
<path fill="none" stroke="midnightblue" d="M818.83,-280.08C818.7,-273.01 818.52,-262.86 818.35,-253.99"/>
<polygon fill="midnightblue" stroke="midnightblue" points="821.85,-253.68 818.16,-243.75 814.85,-253.81 821.85,-253.68"/>
</g>
<!-- Node34&#45;&gt;Node36 -->
<g id="edge26" class="edge">
<title>Node34&#45;&gt;Node36</title>
<path fill="none" stroke="midnightblue" d="M793.49,-280.44C766.4,-271.36 723.41,-256.94 693.13,-246.78"/>
<polygon fill="midnightblue" stroke="midnightblue" points="693.99,-243.38 683.39,-243.52 691.76,-250.01 693.99,-243.38"/>
</g>
<!-- Node35&#45;&gt;Node7 -->
<g id="edge24" class="edge">
<title>Node35&#45;&gt;Node7</title>
<path fill="none" stroke="midnightblue" d="M767.92,-225.73C702.51,-215.9 594.48,-198.41 579,-188 541.29,-162.63 517.79,-112.24 507.35,-85.18"/>
<polygon fill="midnightblue" stroke="midnightblue" points="510.62,-83.93 503.88,-75.76 504.05,-86.35 510.62,-83.93"/>
</g>
<!-- Node35&#45;&gt;Node10 -->
<g id="edge23" class="edge">
<title>Node35&#45;&gt;Node10</title>
<path fill="none" stroke="midnightblue" d="M815.49,-224.15C811.91,-211.62 805.11,-188.02 799,-168 783.67,-117.78 764.62,-58.87 755.06,-29.54"/>
<polygon fill="midnightblue" stroke="midnightblue" points="758.32,-28.25 751.89,-19.83 751.67,-30.42 758.32,-28.25"/>
</g>
<!-- Node35&#45;&gt;Node14 -->
<g id="edge25" class="edge">
<title>Node35&#45;&gt;Node14</title>
<path fill="none" stroke="midnightblue" d="M789.64,-224.44C759.26,-215.28 710.89,-200.69 677.18,-190.52"/>
<polygon fill="midnightblue" stroke="midnightblue" points="677.82,-187.05 667.23,-187.52 675.79,-193.76 677.82,-187.05"/>
</g>
<!-- Node39&#45;&gt;Node3 -->
<g id="edge36" class="edge">
<title>Node39&#45;&gt;Node3</title>
<path fill="none" stroke="midnightblue" d="M567.21,-506.49C511.79,-496.67 406.92,-478.11 346.03,-467.33"/>
<polygon fill="midnightblue" stroke="midnightblue" points="346.38,-463.83 335.92,-465.54 345.16,-470.73 346.38,-463.83"/>
</g>
<!-- Node39&#45;&gt;Node7 -->
<g id="edge37" class="edge">
<title>Node39&#45;&gt;Node7</title>
<path fill="none" stroke="midnightblue" d="M603.73,-504.3C603.43,-483.72 604.66,-430.84 623,-392 635.24,-366.08 672.46,-358.73 655,-336 617.17,-286.76 564.43,-343.38 520,-300 498.47,-278.97 501,-265.1 501,-235 501,-235 501,-235 501,-177 501,-144.95 501,-107.64 501,-85.75"/>
<polygon fill="midnightblue" stroke="midnightblue" points="504.5,-85.56 501,-75.56 497.5,-85.56 504.5,-85.56"/>
</g>
<!-- Node39&#45;&gt;Node11 -->
<g id="edge35" class="edge">
<title>Node39&#45;&gt;Node11</title>
<path fill="none" stroke="midnightblue" d="M596.47,-504.37C580.48,-486.05 542.95,-443.05 522.28,-419.36"/>
<polygon fill="midnightblue" stroke="midnightblue" points="524.71,-416.82 515.5,-411.59 519.44,-421.43 524.71,-416.82"/>
</g>
<!-- Node39&#45;&gt;Node34 -->
<g id="edge42" class="edge">
<title>Node39&#45;&gt;Node34</title>
<path fill="none" stroke="midnightblue" d="M640.7,-510.86C696.75,-506.75 799.54,-495.56 822,-468 859.65,-421.79 838.53,-344.01 826.08,-309.02"/>
<polygon fill="midnightblue" stroke="midnightblue" points="829.35,-307.76 822.57,-299.61 822.79,-310.2 829.35,-307.76"/>
</g>
<!-- Node40 -->
<g id="node23" class="node">
<title>Node40</title>
<g id="a_node23"><a xlink:href="mp__arith_8h.html" target="_top" xlink:title=" ">
<polygon fill="none" stroke="black" points="743.5,-448.5 743.5,-467.5 812.5,-467.5 812.5,-448.5 743.5,-448.5"/>
<text text-anchor="middle" x="778" y="-455.5" font-family="Helvetica,sans-Serif" font-size="10.00">mp_arith.h</text>
</a>
</g>
</g>
<!-- Node39&#45;&gt;Node40 -->
<g id="edge38" class="edge">
<title>Node39&#45;&gt;Node40</title>
<path fill="none" stroke="midnightblue" d="M631.57,-504.44C661.1,-495.28 708.12,-480.69 740.88,-470.52"/>
<polygon fill="midnightblue" stroke="midnightblue" points="742.04,-473.82 750.56,-467.52 739.97,-467.14 742.04,-473.82"/>
</g>
<!-- Node24 -->
<g id="node26" class="node">
<title>Node24</title>
<g id="a_node26"><a xlink:title=" ">
<polygon fill="none" stroke="#bfbfbf" points="632.5,-448.5 632.5,-467.5 725.5,-467.5 725.5,-448.5 632.5,-448.5"/>
<text text-anchor="middle" x="679" y="-455.5" font-family="Helvetica,sans-Serif" font-size="10.00">unordered_map</text>
</a>
</g>
</g>
<!-- Node39&#45;&gt;Node24 -->
<g id="edge43" class="edge">
<title>Node39&#45;&gt;Node24</title>
<path fill="none" stroke="midnightblue" d="M616.05,-504.32C627.46,-496.11 644.83,-483.6 658.43,-473.81"/>
<polygon fill="midnightblue" stroke="midnightblue" points="660.66,-476.52 666.73,-467.83 656.57,-470.84 660.66,-476.52"/>
</g>
<!-- Node40&#45;&gt;Node10 -->
<g id="edge40" class="edge">
<title>Node40&#45;&gt;Node10</title>
<path fill="none" stroke="midnightblue" d="M790.24,-448.43C827.02,-421.57 934,-334.86 934,-235 934,-235 934,-235 934,-121 934,-50.76 834.26,-24.37 781.25,-15.3"/>
<polygon fill="midnightblue" stroke="midnightblue" points="781.74,-11.83 771.32,-13.7 780.64,-18.74 781.74,-11.83"/>
</g>
<!-- Node19 -->
<g id="node24" class="node">
<title>Node19</title>
<g id="a_node24"><a xlink:title=" ">
<polygon fill="none" stroke="#bfbfbf" points="632,-392.5 632,-411.5 680,-411.5 680,-392.5 632,-392.5"/>
<text text-anchor="middle" x="656" y="-399.5" font-family="Helvetica,sans-Serif" font-size="10.00">iosfwd</text>
</a>
</g>
</g>
<!-- Node40&#45;&gt;Node19 -->
<g id="edge39" class="edge">
<title>Node40&#45;&gt;Node19</title>
<path fill="none" stroke="midnightblue" d="M758.67,-448.44C738.68,-439.6 707.26,-425.69 684.44,-415.59"/>
<polygon fill="midnightblue" stroke="midnightblue" points="685.8,-412.36 675.24,-411.52 682.97,-418.76 685.8,-412.36"/>
</g>
<!-- Node41 -->
<g id="node25" class="node">
<title>Node41</title>
<g id="a_node25"><a xlink:title=" ">
<polygon fill="none" stroke="#bfbfbf" points="698,-392.5 698,-411.5 792,-411.5 792,-392.5 698,-392.5"/>
<text text-anchor="middle" x="745" y="-399.5" font-family="Helvetica,sans-Serif" font-size="10.00">big&#45;int/bigint.hh</text>
</a>
</g>
</g>
<!-- Node40&#45;&gt;Node41 -->
<g id="edge41" class="edge">
<title>Node40&#45;&gt;Node41</title>
<path fill="none" stroke="midnightblue" d="M772.55,-448.08C767.99,-440.61 761.33,-429.72 755.71,-420.52"/>
<polygon fill="midnightblue" stroke="midnightblue" points="758.55,-418.46 750.35,-411.75 752.58,-422.11 758.55,-418.46"/>
</g>
<!-- Node42&#45;&gt;Node7 -->
<g id="edge45" class="edge">
<title>Node42&#45;&gt;Node7</title>
<path fill="none" stroke="midnightblue" d="M737.01,-168.4C717.75,-154.9 678.4,-128.58 642,-112 610.76,-97.77 573.73,-86.14 545.45,-78.27"/>
<polygon fill="midnightblue" stroke="midnightblue" points="546.03,-74.8 535.46,-75.54 544.19,-81.55 546.03,-74.8"/>
</g>
<!-- Node42&#45;&gt;Node15 -->
<g id="edge46" class="edge">
<title>Node42&#45;&gt;Node15</title>
<path fill="none" stroke="midnightblue" d="M749,-168.08C749,-161.01 749,-150.86 749,-141.99"/>
<polygon fill="midnightblue" stroke="midnightblue" points="752.5,-141.75 749,-131.75 745.5,-141.75 752.5,-141.75"/>
</g>
<!-- Node43&#45;&gt;Node2 -->
<g id="edge50" class="edge">
<title>Node43&#45;&gt;Node2</title>
<path fill="none" stroke="midnightblue" d="M580.9,-616.32C566.1,-607.82 543.31,-594.73 526.02,-584.8"/>
<polygon fill="midnightblue" stroke="midnightblue" points="527.48,-581.6 517.07,-579.65 523.99,-587.67 527.48,-581.6"/>
</g>
<!-- Node44 -->
<g id="node29" class="node">
<title>Node44</title>
<g id="a_node29"><a xlink:href="bitvector__types_8h.html" target="_top" xlink:title=" ">
<polygon fill="none" stroke="black" points="553.5,-560.5 553.5,-579.5 654.5,-579.5 654.5,-560.5 553.5,-560.5"/>
<text text-anchor="middle" x="604" y="-567.5" font-family="Helvetica,sans-Serif" font-size="10.00">bitvector_types.h</text>
</a>
</g>
</g>
<!-- Node43&#45;&gt;Node44 -->
<g id="edge48" class="edge">
<title>Node43&#45;&gt;Node44</title>
<path fill="none" stroke="midnightblue" d="M597.32,-616.08C598.38,-608.93 599.91,-598.64 601.23,-589.69"/>
<polygon fill="midnightblue" stroke="midnightblue" points="604.7,-590.16 602.7,-579.75 597.78,-589.13 604.7,-590.16"/>
</g>
<!-- Node44&#45;&gt;Node39 -->
<g id="edge49" class="edge">
<title>Node44&#45;&gt;Node39</title>
<path fill="none" stroke="midnightblue" d="M604,-560.08C604,-553.01 604,-542.86 604,-533.99"/>
<polygon fill="midnightblue" stroke="midnightblue" points="607.5,-533.75 604,-523.75 600.5,-533.75 607.5,-533.75"/>
</g>
<!-- Node45&#45;&gt;Node5 -->
<g id="edge53" class="edge">
<title>Node45&#45;&gt;Node5</title>
<path fill="none" stroke="midnightblue" d="M131.49,-395.75C108.63,-389.87 76.32,-378.12 57,-356 37.2,-333.33 38,-321.1 38,-291 38,-291 38,-291 38,-121 38,-72.17 92.42,-39.89 129.44,-23.58"/>
<polygon fill="midnightblue" stroke="midnightblue" points="131.05,-26.7 138.9,-19.59 128.32,-20.25 131.05,-26.7"/>
</g>
<!-- Node45&#45;&gt;Node6 -->
<g id="edge52" class="edge">
<title>Node45&#45;&gt;Node6</title>
<path fill="none" stroke="midnightblue" d="M175.19,-392.32C192.35,-383.66 218.95,-370.24 238.75,-360.25"/>
<polygon fill="midnightblue" stroke="midnightblue" points="240.5,-363.28 247.85,-355.65 237.35,-357.04 240.5,-363.28"/>
</g>
<!-- Node45&#45;&gt;Node7 -->
<g id="edge54" class="edge">
<title>Node45&#45;&gt;Node7</title>
<path fill="none" stroke="midnightblue" d="M164.4,-392.39C177.04,-374.5 204,-331.57 204,-291 204,-291 204,-291 204,-177 204,-123.82 373.56,-88.2 456.45,-73.97"/>
<polygon fill="midnightblue" stroke="midnightblue" points="457.07,-77.42 466.35,-72.3 455.91,-70.51 457.07,-77.42"/>
</g>
<!-- Node46 -->
<g id="node31" class="node">
<title>Node46</title>
<g id="a_node31"><a xlink:href="make__unique_8h.html" target="_top" xlink:title=" ">
<polygon fill="none" stroke="black" points="66,-336.5 66,-355.5 176,-355.5 176,-336.5 66,-336.5"/>
<text text-anchor="middle" x="121" y="-343.5" font-family="Helvetica,sans-Serif" font-size="10.00">util/make_unique.h</text>
</a>
</g>
</g>
<!-- Node45&#45;&gt;Node46 -->
<g id="edge55" class="edge">
<title>Node45&#45;&gt;Node46</title>
<path fill="none" stroke="midnightblue" d="M151.89,-392.08C146.72,-384.53 139.15,-373.49 132.81,-364.23"/>
<polygon fill="midnightblue" stroke="midnightblue" points="135.54,-362.02 127,-355.75 129.76,-365.98 135.54,-362.02"/>
</g>
<!-- Node47 -->
<g id="node32" class="node">
<title>Node47</title>
<g id="a_node32"><a xlink:title=" ">
<polygon fill="none" stroke="#bfbfbf" points="92,-280.5 92,-299.5 150,-299.5 150,-280.5 92,-280.5"/>
<text text-anchor="middle" x="121" y="-287.5" font-family="Helvetica,sans-Serif" font-size="10.00">memory</text>
</a>
</g>
</g>
<!-- Node46&#45;&gt;Node47 -->
<g id="edge56" class="edge">
<title>Node46&#45;&gt;Node47</title>
<path fill="none" stroke="midnightblue" d="M121,-336.08C121,-329.01 121,-318.86 121,-309.99"/>
<polygon fill="midnightblue" stroke="midnightblue" points="124.5,-309.75 121,-299.75 117.5,-309.75 124.5,-309.75"/>
</g>
</g>
</svg>
