<?xml version="1.0" encoding="UTF-8" standalone="no"?>
<!DOCTYPE svg PUBLIC "-//W3C//DTD SVG 1.1//EN"
 "http://www.w3.org/Graphics/SVG/1.1/DTD/svg11.dtd">
<!-- Generated by graphviz version 2.43.0 (0)
 -->
<!-- Title: /home/runner/work/cbmc/cbmc/src/solvers/strings/string_format_builtin_function.h Pages: 1 -->
<svg width="1101pt" height="621pt"
 viewBox="0.00 0.00 1100.50 621.00" xmlns="http://www.w3.org/2000/svg" xmlns:xlink="http://www.w3.org/1999/xlink">
<g id="graph0" class="graph" transform="scale(1 1) rotate(0) translate(4 617)">
<title>/home/runner/work/cbmc/cbmc/src/solvers/strings/string_format_builtin_function.h</title>
<!-- Node1 -->
<g id="node1" class="node">
<title>Node1</title>
<g id="a_node1"><a xlink:title=" ">
<polygon fill="#bfbfbf" stroke="black" points="547,-571.5 547,-612.5 723,-612.5 723,-571.5 547,-571.5"/>
<text text-anchor="start" x="555" y="-600.5" font-family="Helvetica,sans-Serif" font-size="10.00">/home/runner/work/cbmc</text>
<text text-anchor="start" x="555" y="-589.5" font-family="Helvetica,sans-Serif" font-size="10.00">/cbmc/src/solvers/strings</text>
<text text-anchor="middle" x="635" y="-578.5" font-family="Helvetica,sans-Serif" font-size="10.00">/string_format_builtin_function.h</text>
</a>
</g>
</g>
<!-- Node2 -->
<g id="node2" class="node">
<title>Node2</title>
<g id="a_node2"><a xlink:href="string__builtin__function_8h.html" target="_top" xlink:title=" ">
<polygon fill="none" stroke="black" points="568,-515.5 568,-534.5 702,-534.5 702,-515.5 568,-515.5"/>
<text text-anchor="middle" x="635" y="-522.5" font-family="Helvetica,sans-Serif" font-size="10.00">string_builtin_function.h</text>
</a>
</g>
</g>
<!-- Node1&#45;&gt;Node2 -->
<g id="edge1" class="edge">
<title>Node1&#45;&gt;Node2</title>
<path fill="none" stroke="midnightblue" d="M635,-571.5C635,-563.07 635,-553.24 635,-544.87"/>
<polygon fill="midnightblue" stroke="midnightblue" points="638.5,-544.65 635,-534.65 631.5,-544.65 638.5,-544.65"/>
</g>
<!-- Node3 -->
<g id="node3" class="node">
<title>Node3</title>
<g id="a_node3"><a xlink:href="string__constraint__generator_8h.html" target="_top" xlink:title=" ">
<polygon fill="none" stroke="black" points="333.5,-459.5 333.5,-478.5 492.5,-478.5 492.5,-459.5 333.5,-459.5"/>
<text text-anchor="middle" x="413" y="-466.5" font-family="Helvetica,sans-Serif" font-size="10.00">string_constraint_generator.h</text>
</a>
</g>
</g>
<!-- Node2&#45;&gt;Node3 -->
<g id="edge2" class="edge">
<title>Node2&#45;&gt;Node3</title>
<path fill="none" stroke="midnightblue" d="M599.82,-515.44C561.42,-506.1 499.82,-491.12 457.94,-480.93"/>
<polygon fill="midnightblue" stroke="midnightblue" points="458.56,-477.48 448.01,-478.52 456.9,-484.28 458.56,-477.48"/>
</g>
<!-- Node12 -->
<g id="node12" class="node">
<title>Node12</title>
<g id="a_node12"><a xlink:title=" ">
<polygon fill="none" stroke="#bfbfbf" points="138.5,-56.5 138.5,-75.5 185.5,-75.5 185.5,-56.5 138.5,-56.5"/>
<text text-anchor="middle" x="162" y="-63.5" font-family="Helvetica,sans-Serif" font-size="10.00">vector</text>
</a>
</g>
</g>
<!-- Node2&#45;&gt;Node12 -->
<g id="edge63" class="edge">
<title>Node2&#45;&gt;Node12</title>
<path fill="none" stroke="midnightblue" d="M567.94,-518.79C404.72,-505.2 0,-465.75 0,-408.5 0,-408.5 0,-408.5 0,-177 0,-145.26 86.18,-101.3 132.83,-79.84"/>
<polygon fill="midnightblue" stroke="midnightblue" points="134.48,-82.93 142.14,-75.61 131.58,-76.56 134.48,-82.93"/>
</g>
<!-- Node32 -->
<g id="node17" class="node">
<title>Node32</title>
<g id="a_node17"><a xlink:href="string__expr_8h.html" target="_top" xlink:title=" ">
<polygon fill="none" stroke="black" points="471,-336.5 471,-355.5 569,-355.5 569,-336.5 471,-336.5"/>
<text text-anchor="middle" x="520" y="-343.5" font-family="Helvetica,sans-Serif" font-size="10.00">util/string_expr.h</text>
</a>
</g>
</g>
<!-- Node2&#45;&gt;Node32 -->
<g id="edge62" class="edge">
<title>Node2&#45;&gt;Node32</title>
<path fill="none" stroke="midnightblue" d="M630.39,-515.41C618.79,-494 587.08,-436.75 556,-392 549.22,-382.24 540.99,-371.85 534.1,-363.52"/>
<polygon fill="midnightblue" stroke="midnightblue" points="536.65,-361.1 527.54,-355.69 531.28,-365.6 536.65,-361.1"/>
</g>
<!-- Node36 -->
<g id="node20" class="node">
<title>Node36</title>
<g id="a_node20"><a xlink:href="optional_8h.html" target="_top" xlink:title=" ">
<polygon fill="none" stroke="red" points="745.5,-168.5 745.5,-187.5 810.5,-187.5 810.5,-168.5 745.5,-168.5"/>
<text text-anchor="middle" x="778" y="-175.5" font-family="Helvetica,sans-Serif" font-size="10.00">optional.h</text>
</a>
</g>
</g>
<!-- Node2&#45;&gt;Node36 -->
<g id="edge61" class="edge">
<title>Node2&#45;&gt;Node36</title>
<path fill="none" stroke="midnightblue" d="M702.14,-517.91C813.19,-505.97 1023,-474.65 1023,-408.5 1023,-408.5 1023,-408.5 1023,-289 1023,-258.77 1025.43,-244.27 1003,-224 996.25,-217.9 884.39,-197.56 820.99,-186.43"/>
<polygon fill="midnightblue" stroke="midnightblue" points="821.33,-182.94 810.88,-184.66 820.12,-189.83 821.33,-182.94"/>
</g>
<!-- Node60 -->
<g id="node35" class="node">
<title>Node60</title>
<g id="a_node35"><a xlink:href="mathematical__expr_8h.html" target="_top" xlink:title=" ">
<polygon fill="none" stroke="black" points="855.5,-224.5 855.5,-243.5 994.5,-243.5 994.5,-224.5 855.5,-224.5"/>
<text text-anchor="middle" x="925" y="-231.5" font-family="Helvetica,sans-Serif" font-size="10.00">util/mathematical_expr.h</text>
</a>
</g>
</g>
<!-- Node2&#45;&gt;Node60 -->
<g id="edge55" class="edge">
<title>Node2&#45;&gt;Node60</title>
<path fill="none" stroke="midnightblue" d="M702.04,-522.07C778.78,-515.87 894,-492.57 894,-408.5 894,-408.5 894,-408.5 894,-345 894,-311.41 907.56,-274.14 916.74,-252.75"/>
<polygon fill="midnightblue" stroke="midnightblue" points="919.94,-254.17 920.82,-243.61 913.55,-251.31 919.94,-254.17"/>
</g>
<!-- Node4 -->
<g id="node4" class="node">
<title>Node4</title>
<g id="a_node4"><a xlink:title=" ">
<polygon fill="none" stroke="#bfbfbf" points="228,-168.5 228,-187.5 272,-187.5 272,-168.5 228,-168.5"/>
<text text-anchor="middle" x="250" y="-175.5" font-family="Helvetica,sans-Serif" font-size="10.00">limits</text>
</a>
</g>
</g>
<!-- Node3&#45;&gt;Node4 -->
<g id="edge3" class="edge">
<title>Node3&#45;&gt;Node4</title>
<path fill="none" stroke="midnightblue" d="M361.82,-459.48C336.53,-453.06 307.01,-441.97 286,-423 258.26,-397.95 250,-384.38 250,-347 250,-347 250,-347 250,-289 250,-256.95 250,-219.64 250,-197.75"/>
<polygon fill="midnightblue" stroke="midnightblue" points="253.5,-197.56 250,-187.56 246.5,-197.56 253.5,-197.56"/>
</g>
<!-- Node5 -->
<g id="node5" class="node">
<title>Node5</title>
<g id="a_node5"><a xlink:href="string__constraint_8h.html" target="_top" xlink:title=" ">
<polygon fill="none" stroke="black" points="411.5,-392.5 411.5,-422.5 530.5,-422.5 530.5,-392.5 411.5,-392.5"/>
<text text-anchor="start" x="419.5" y="-410.5" font-family="Helvetica,sans-Serif" font-size="10.00">solvers/strings/string</text>
<text text-anchor="middle" x="471" y="-399.5" font-family="Helvetica,sans-Serif" font-size="10.00">_constraint.h</text>
</a>
</g>
</g>
<!-- Node3&#45;&gt;Node5 -->
<g id="edge4" class="edge">
<title>Node3&#45;&gt;Node5</title>
<path fill="none" stroke="midnightblue" d="M421.31,-459.48C428.8,-451.79 440.13,-440.17 450.08,-429.96"/>
<polygon fill="midnightblue" stroke="midnightblue" points="452.86,-432.13 457.33,-422.52 447.84,-427.24 452.86,-432.13"/>
</g>
<!-- Node3&#45;&gt;Node32 -->
<g id="edge51" class="edge">
<title>Node3&#45;&gt;Node32</title>
<path fill="none" stroke="midnightblue" d="M481.11,-459.48C503.24,-453.12 525.55,-442.08 539,-423 551.31,-405.53 541.35,-380.87 531.82,-364.43"/>
<polygon fill="midnightblue" stroke="midnightblue" points="534.7,-362.43 526.43,-355.81 528.76,-366.15 534.7,-362.43"/>
</g>
<!-- Node51 -->
<g id="node25" class="node">
<title>Node51</title>
<g id="a_node25"><a xlink:href="refined__string__type_8h.html" target="_top" xlink:title=" ">
<polygon fill="none" stroke="black" points="531.5,-280.5 531.5,-299.5 650.5,-299.5 650.5,-280.5 531.5,-280.5"/>
<text text-anchor="middle" x="591" y="-287.5" font-family="Helvetica,sans-Serif" font-size="10.00">refined_string_type.h</text>
</a>
</g>
</g>
<!-- Node3&#45;&gt;Node51 -->
<g id="edge49" class="edge">
<title>Node3&#45;&gt;Node51</title>
<path fill="none" stroke="midnightblue" d="M483.64,-459.45C509.27,-453.12 536.65,-442.11 556,-423 586.84,-392.54 591.48,-338.27 591.61,-309.73"/>
<polygon fill="midnightblue" stroke="midnightblue" points="595.11,-309.48 591.47,-299.53 588.11,-309.58 595.11,-309.48"/>
</g>
<!-- Node56 -->
<g id="node29" class="node">
<title>Node56</title>
<g id="a_node29"><a xlink:href="replace__expr_8h.html" target="_top" xlink:title=" ">
<polygon fill="none" stroke="black" points="747,-280.5 747,-299.5 835,-299.5 835,-280.5 747,-280.5"/>
<text text-anchor="middle" x="791" y="-287.5" font-family="Helvetica,sans-Serif" font-size="10.00">replace_expr.h</text>
</a>
</g>
</g>
<!-- Node3&#45;&gt;Node56 -->
<g id="edge50" class="edge">
<title>Node3&#45;&gt;Node56</title>
<path fill="none" stroke="midnightblue" d="M492.8,-464.57C573.98,-456.73 697.93,-432.1 771,-356 782.87,-343.64 787.71,-324.39 789.68,-310.04"/>
<polygon fill="midnightblue" stroke="midnightblue" points="793.19,-310.12 790.71,-299.81 786.22,-309.41 793.19,-310.12"/>
</g>
<!-- Node57 -->
<g id="node31" class="node">
<title>Node57</title>
<g id="a_node31"><a xlink:title=" ">
<polygon fill="none" stroke="#bfbfbf" points="28.5,-398 28.5,-417 129.5,-417 129.5,-398 28.5,-398"/>
<text text-anchor="middle" x="79" y="-405" font-family="Helvetica,sans-Serif" font-size="10.00">util/constexpr.def</text>
</a>
</g>
</g>
<!-- Node3&#45;&gt;Node57 -->
<g id="edge44" class="edge">
<title>Node3&#45;&gt;Node57</title>
<path fill="none" stroke="midnightblue" d="M353.17,-459.48C297.5,-451.25 212.35,-437.86 139,-423 133.62,-421.91 127.98,-420.67 122.42,-419.4"/>
<polygon fill="midnightblue" stroke="midnightblue" points="123.08,-415.95 112.54,-417.07 121.47,-422.77 123.08,-415.95"/>
</g>
<!-- Node44 -->
<g id="node32" class="node">
<title>Node44</title>
<g id="a_node32"><a xlink:href="deprecate_8h.html" target="_top" xlink:title=" ">
<polygon fill="none" stroke="black" points="148,-398 148,-417 222,-417 222,-398 148,-398"/>
<text text-anchor="middle" x="185" y="-405" font-family="Helvetica,sans-Serif" font-size="10.00">deprecate.h</text>
</a>
</g>
</g>
<!-- Node3&#45;&gt;Node44 -->
<g id="edge45" class="edge">
<title>Node3&#45;&gt;Node44</title>
<path fill="none" stroke="midnightblue" d="M378.33,-459.49C342.59,-450.65 285.29,-436.27 236,-423 232.21,-421.98 228.26,-420.9 224.32,-419.8"/>
<polygon fill="midnightblue" stroke="midnightblue" points="225.2,-416.41 214.63,-417.07 223.31,-423.15 225.2,-416.41"/>
</g>
<!-- Node58 -->
<g id="node33" class="node">
<title>Node58</title>
<g id="a_node33"><a xlink:href="namespace_8h.html" target="_top" xlink:title=" ">
<polygon fill="none" stroke="black" points="328.5,-168.5 328.5,-187.5 429.5,-187.5 429.5,-168.5 328.5,-168.5"/>
<text text-anchor="middle" x="379" y="-175.5" font-family="Helvetica,sans-Serif" font-size="10.00">util/namespace.h</text>
</a>
</g>
</g>
<!-- Node3&#45;&gt;Node58 -->
<g id="edge46" class="edge">
<title>Node3&#45;&gt;Node58</title>
<path fill="none" stroke="midnightblue" d="M370.36,-459.48C348.48,-452.99 323.11,-441.85 307,-423 284.38,-396.53 288,-381.82 288,-347 288,-347 288,-347 288,-289 288,-246.47 328.89,-211.53 355.85,-193.12"/>
<polygon fill="midnightblue" stroke="midnightblue" points="357.94,-195.93 364.38,-187.52 354.1,-190.08 357.94,-195.93"/>
</g>
<!-- Node59 -->
<g id="node34" class="node">
<title>Node59</title>
<g id="a_node34"><a xlink:href="array__pool_8h.html" target="_top" xlink:title=" ">
<polygon fill="none" stroke="black" points="316.5,-398 316.5,-417 393.5,-417 393.5,-398 316.5,-398"/>
<text text-anchor="middle" x="355" y="-405" font-family="Helvetica,sans-Serif" font-size="10.00">array_pool.h</text>
</a>
</g>
</g>
<!-- Node3&#45;&gt;Node59 -->
<g id="edge52" class="edge">
<title>Node3&#45;&gt;Node59</title>
<path fill="none" stroke="midnightblue" d="M404.69,-459.48C395.82,-450.37 381.55,-435.74 370.58,-424.48"/>
<polygon fill="midnightblue" stroke="midnightblue" points="372.78,-421.73 363.29,-417.01 367.77,-426.61 372.78,-421.73"/>
</g>
<!-- Node6 -->
<g id="node6" class="node">
<title>Node6</title>
<g id="a_node6"><a xlink:href="format__expr_8h.html" target="_top" xlink:title=" ">
<polygon fill="none" stroke="black" points="448,-168.5 448,-187.5 552,-187.5 552,-168.5 448,-168.5"/>
<text text-anchor="middle" x="500" y="-175.5" font-family="Helvetica,sans-Serif" font-size="10.00">util/format_expr.h</text>
</a>
</g>
</g>
<!-- Node5&#45;&gt;Node6 -->
<g id="edge5" class="edge">
<title>Node5&#45;&gt;Node6</title>
<path fill="none" stroke="midnightblue" d="M448.2,-392.5C400.65,-361.56 298.99,-285.27 345,-224 356.51,-208.68 399.96,-196.88 437.95,-189.22"/>
<polygon fill="midnightblue" stroke="midnightblue" points="438.83,-192.61 447.97,-187.26 437.49,-185.74 438.83,-192.61"/>
</g>
<!-- Node5&#45;&gt;Node32 -->
<g id="edge19" class="edge">
<title>Node5&#45;&gt;Node32</title>
<path fill="none" stroke="midnightblue" d="M482.61,-392.4C489.73,-383.75 498.88,-372.64 506.35,-363.58"/>
<polygon fill="midnightblue" stroke="midnightblue" points="509.21,-365.6 512.87,-355.66 503.81,-361.15 509.21,-365.6"/>
</g>
<!-- Node55 -->
<g id="node28" class="node">
<title>Node55</title>
<g id="a_node28"><a xlink:href="union__find__replace_8h.html" target="_top" xlink:title=" ">
<polygon fill="none" stroke="black" points="626,-336.5 626,-355.5 762,-355.5 762,-336.5 626,-336.5"/>
<text text-anchor="middle" x="694" y="-343.5" font-family="Helvetica,sans-Serif" font-size="10.00">util/union_find_replace.h</text>
</a>
</g>
</g>
<!-- Node5&#45;&gt;Node55 -->
<g id="edge40" class="edge">
<title>Node5&#45;&gt;Node55</title>
<path fill="none" stroke="midnightblue" d="M523.57,-392.47C562.88,-381.99 615.91,-367.84 652.32,-358.12"/>
<polygon fill="midnightblue" stroke="midnightblue" points="653.36,-361.47 662.12,-355.51 651.55,-354.7 653.36,-361.47"/>
</g>
<!-- Node7 -->
<g id="node7" class="node">
<title>Node7</title>
<g id="a_node7"><a xlink:href="format_8h.html" target="_top" xlink:title=" ">
<polygon fill="none" stroke="black" points="470.5,-56.5 470.5,-75.5 529.5,-75.5 529.5,-56.5 470.5,-56.5"/>
<text text-anchor="middle" x="500" y="-63.5" font-family="Helvetica,sans-Serif" font-size="10.00">format.h</text>
</a>
</g>
</g>
<!-- Node6&#45;&gt;Node7 -->
<g id="edge6" class="edge">
<title>Node6&#45;&gt;Node7</title>
<path fill="none" stroke="midnightblue" d="M500,-168.37C500,-150.62 500,-109.67 500,-85.6"/>
<polygon fill="midnightblue" stroke="midnightblue" points="503.5,-85.59 500,-75.59 496.5,-85.59 503.5,-85.59"/>
</g>
<!-- Node11 -->
<g id="node11" class="node">
<title>Node11</title>
<g id="a_node11"><a xlink:href="irep_8h.html" target="_top" xlink:title=" ">
<polygon fill="none" stroke="black" points="357,-112.5 357,-131.5 401,-131.5 401,-112.5 357,-112.5"/>
<text text-anchor="middle" x="379" y="-119.5" font-family="Helvetica,sans-Serif" font-size="10.00">irep.h</text>
</a>
</g>
</g>
<!-- Node6&#45;&gt;Node11 -->
<g id="edge10" class="edge">
<title>Node6&#45;&gt;Node11</title>
<path fill="none" stroke="midnightblue" d="M480.83,-168.44C461.09,-159.64 430.11,-145.81 407.51,-135.72"/>
<polygon fill="midnightblue" stroke="midnightblue" points="408.64,-132.4 398.08,-131.52 405.79,-138.79 408.64,-132.4"/>
</g>
<!-- Node31 -->
<g id="node16" class="node">
<title>Node31</title>
<g id="a_node16"><a xlink:title=" ">
<polygon fill="none" stroke="#bfbfbf" points="843.5,-0.5 843.5,-19.5 908.5,-19.5 908.5,-0.5 843.5,-0.5"/>
<text text-anchor="middle" x="876" y="-7.5" font-family="Helvetica,sans-Serif" font-size="10.00">functional</text>
</a>
</g>
</g>
<!-- Node6&#45;&gt;Node31 -->
<g id="edge18" class="edge">
<title>Node6&#45;&gt;Node31</title>
<path fill="none" stroke="midnightblue" d="M519.42,-168.42C581.18,-141.16 773.28,-56.35 846.89,-23.85"/>
<polygon fill="midnightblue" stroke="midnightblue" points="848.73,-26.86 856.47,-19.62 845.91,-20.46 848.73,-26.86"/>
</g>
<!-- Node8 -->
<g id="node8" class="node">
<title>Node8</title>
<g id="a_node8"><a xlink:title=" ">
<polygon fill="none" stroke="#bfbfbf" points="208,-0.5 208,-19.5 256,-19.5 256,-0.5 208,-0.5"/>
<text text-anchor="middle" x="232" y="-7.5" font-family="Helvetica,sans-Serif" font-size="10.00">iosfwd</text>
</a>
</g>
</g>
<!-- Node7&#45;&gt;Node8 -->
<g id="edge7" class="edge">
<title>Node7&#45;&gt;Node8</title>
<path fill="none" stroke="midnightblue" d="M470.3,-59.01C420.21,-48.92 319.26,-28.58 266.26,-17.9"/>
<polygon fill="midnightblue" stroke="midnightblue" points="266.82,-14.45 256.33,-15.9 265.44,-21.31 266.82,-14.45"/>
</g>
<!-- Node9 -->
<g id="node9" class="node">
<title>Node9</title>
<g id="a_node9"><a xlink:title=" ">
<polygon fill="none" stroke="#bfbfbf" points="547,-0.5 547,-19.5 603,-19.5 603,-0.5 547,-0.5"/>
<text text-anchor="middle" x="575" y="-7.5" font-family="Helvetica,sans-Serif" font-size="10.00">sstream</text>
</a>
</g>
</g>
<!-- Node7&#45;&gt;Node9 -->
<g id="edge8" class="edge">
<title>Node7&#45;&gt;Node9</title>
<path fill="none" stroke="midnightblue" d="M512.05,-56.32C523.46,-48.11 540.83,-35.6 554.43,-25.81"/>
<polygon fill="midnightblue" stroke="midnightblue" points="556.66,-28.52 562.73,-19.83 552.57,-22.84 556.66,-28.52"/>
</g>
<!-- Node10 -->
<g id="node10" class="node">
<title>Node10</title>
<g id="a_node10"><a xlink:title=" ">
<polygon fill="none" stroke="#bfbfbf" points="449,-0.5 449,-19.5 493,-19.5 493,-0.5 449,-0.5"/>
<text text-anchor="middle" x="471" y="-7.5" font-family="Helvetica,sans-Serif" font-size="10.00">string</text>
</a>
</g>
</g>
<!-- Node7&#45;&gt;Node10 -->
<g id="edge9" class="edge">
<title>Node7&#45;&gt;Node10</title>
<path fill="none" stroke="midnightblue" d="M495.21,-56.08C491.24,-48.69 485.47,-37.95 480.57,-28.81"/>
<polygon fill="midnightblue" stroke="midnightblue" points="483.51,-26.91 475.7,-19.75 477.35,-30.22 483.51,-26.91"/>
</g>
<!-- Node11&#45;&gt;Node10 -->
<g id="edge11" class="edge">
<title>Node11&#45;&gt;Node10</title>
<path fill="none" stroke="midnightblue" d="M387.88,-112.32C396.81,-103.46 410.8,-89.18 422,-76 435.38,-60.25 449.47,-41.28 459.08,-27.91"/>
<polygon fill="midnightblue" stroke="midnightblue" points="462.01,-29.83 464.96,-19.66 456.31,-25.77 462.01,-29.83"/>
</g>
<!-- Node11&#45;&gt;Node12 -->
<g id="edge12" class="edge">
<title>Node11&#45;&gt;Node12</title>
<path fill="none" stroke="midnightblue" d="M356.86,-115.78C323.94,-107.99 259.92,-92.66 195.67,-76.12"/>
<polygon fill="midnightblue" stroke="midnightblue" points="196.33,-72.68 185.77,-73.56 194.58,-79.45 196.33,-72.68"/>
</g>
<!-- Node13 -->
<g id="node13" class="node">
<title>Node13</title>
<g id="a_node13"><a xlink:href="src_2util_2invariant_8h.html" target="_top" xlink:title=" ">
<polygon fill="none" stroke="red" points="547.5,-56.5 547.5,-75.5 616.5,-75.5 616.5,-56.5 547.5,-56.5"/>
<text text-anchor="middle" x="582" y="-63.5" font-family="Helvetica,sans-Serif" font-size="10.00">invariant.h</text>
</a>
</g>
</g>
<!-- Node11&#45;&gt;Node13 -->
<g id="edge13" class="edge">
<title>Node11&#45;&gt;Node13</title>
<path fill="none" stroke="midnightblue" d="M401.11,-115.12C434.41,-106.26 498.01,-89.34 540.22,-78.11"/>
<polygon fill="midnightblue" stroke="midnightblue" points="541.17,-81.48 549.93,-75.53 539.37,-74.72 541.17,-81.48"/>
</g>
<!-- Node16 -->
<g id="node14" class="node">
<title>Node16</title>
<g id="a_node14"><a xlink:href="irep__ids_8h.html" target="_top" xlink:title=" ">
<polygon fill="none" stroke="red" points="204,-56.5 204,-75.5 268,-75.5 268,-56.5 204,-56.5"/>
<text text-anchor="middle" x="236" y="-63.5" font-family="Helvetica,sans-Serif" font-size="10.00">irep_ids.h</text>
</a>
</g>
</g>
<!-- Node11&#45;&gt;Node16 -->
<g id="edge16" class="edge">
<title>Node11&#45;&gt;Node16</title>
<path fill="none" stroke="midnightblue" d="M356.97,-112.68C333.25,-103.72 295.27,-89.38 268.2,-79.16"/>
<polygon fill="midnightblue" stroke="midnightblue" points="269.36,-75.86 258.76,-75.6 266.88,-82.4 269.36,-75.86"/>
</g>
<!-- Node26 -->
<g id="node15" class="node">
<title>Node26</title>
<g id="a_node15"><a xlink:href="forward__list__as__map_8h.html" target="_top" xlink:title=" ">
<polygon fill="none" stroke="red" points="286.5,-56.5 286.5,-75.5 413.5,-75.5 413.5,-56.5 286.5,-56.5"/>
<text text-anchor="middle" x="350" y="-63.5" font-family="Helvetica,sans-Serif" font-size="10.00">forward_list_as_map.h</text>
</a>
</g>
</g>
<!-- Node11&#45;&gt;Node26 -->
<g id="edge17" class="edge">
<title>Node11&#45;&gt;Node26</title>
<path fill="none" stroke="midnightblue" d="M374.21,-112.08C370.24,-104.69 364.47,-93.95 359.57,-84.81"/>
<polygon fill="midnightblue" stroke="midnightblue" points="362.51,-82.91 354.7,-75.75 356.35,-86.22 362.51,-82.91"/>
</g>
<!-- Node13&#45;&gt;Node9 -->
<g id="edge14" class="edge">
<title>Node13&#45;&gt;Node9</title>
<path fill="none" stroke="midnightblue" d="M580.84,-56.08C579.92,-48.93 578.58,-38.64 577.42,-29.69"/>
<polygon fill="midnightblue" stroke="midnightblue" points="580.89,-29.22 576.13,-19.75 573.95,-30.12 580.89,-29.22"/>
</g>
<!-- Node13&#45;&gt;Node10 -->
<g id="edge15" class="edge">
<title>Node13&#45;&gt;Node10</title>
<path fill="none" stroke="midnightblue" d="M564.17,-56.32C546.28,-47.62 518.52,-34.12 497.95,-24.11"/>
<polygon fill="midnightblue" stroke="midnightblue" points="499.31,-20.88 488.79,-19.65 496.25,-27.18 499.31,-20.88"/>
</g>
<!-- Node33 -->
<g id="node18" class="node">
<title>Node33</title>
<g id="a_node18"><a xlink:href="arith__tools_8h.html" target="_top" xlink:title=" ">
<polygon fill="none" stroke="black" points="354.5,-224.5 354.5,-243.5 431.5,-243.5 431.5,-224.5 354.5,-224.5"/>
<text text-anchor="middle" x="393" y="-231.5" font-family="Helvetica,sans-Serif" font-size="10.00">arith_tools.h</text>
</a>
</g>
</g>
<!-- Node32&#45;&gt;Node33 -->
<g id="edge20" class="edge">
<title>Node32&#45;&gt;Node33</title>
<path fill="none" stroke="midnightblue" d="M510.03,-336.37C488.61,-317.81 437.93,-273.91 410.82,-250.44"/>
<polygon fill="midnightblue" stroke="midnightblue" points="412.77,-247.49 402.92,-243.59 408.19,-252.78 412.77,-247.49"/>
</g>
<!-- Node38 -->
<g id="node21" class="node">
<title>Node38</title>
<g id="a_node21"><a xlink:href="std__expr_8h.html" target="_top" xlink:title=" ">
<polygon fill="none" stroke="red" points="649.5,-168.5 649.5,-187.5 716.5,-187.5 716.5,-168.5 649.5,-168.5"/>
<text text-anchor="middle" x="683" y="-175.5" font-family="Helvetica,sans-Serif" font-size="10.00">std_expr.h</text>
</a>
</g>
</g>
<!-- Node32&#45;&gt;Node38 -->
<g id="edge39" class="edge">
<title>Node32&#45;&gt;Node38</title>
<path fill="none" stroke="midnightblue" d="M516.45,-336.27C508.32,-314.67 490.95,-258.05 517,-224 531.81,-204.64 595.26,-191.67 639.28,-184.81"/>
<polygon fill="midnightblue" stroke="midnightblue" points="639.81,-188.27 649.18,-183.32 638.77,-181.35 639.81,-188.27"/>
</g>
<!-- Node32&#45;&gt;Node51 -->
<g id="edge35" class="edge">
<title>Node32&#45;&gt;Node51</title>
<path fill="none" stroke="midnightblue" d="M531.41,-336.32C542.11,-328.18 558.34,-315.84 571.16,-306.09"/>
<polygon fill="midnightblue" stroke="midnightblue" points="573.54,-308.67 579.39,-299.83 569.31,-303.1 573.54,-308.67"/>
</g>
<!-- Node33&#45;&gt;Node4 -->
<g id="edge34" class="edge">
<title>Node33&#45;&gt;Node4</title>
<path fill="none" stroke="midnightblue" d="M370.34,-224.44C346.46,-215.42 308.65,-201.15 281.79,-191"/>
<polygon fill="midnightblue" stroke="midnightblue" points="282.67,-187.6 272.08,-187.34 280.2,-194.15 282.67,-187.6"/>
</g>
<!-- Node33&#45;&gt;Node13 -->
<g id="edge21" class="edge">
<title>Node33&#45;&gt;Node13</title>
<path fill="none" stroke="midnightblue" d="M431.75,-224.92C478.56,-214.8 552.19,-197.64 561,-188 586.69,-159.9 586.76,-112.12 584.45,-85.8"/>
<polygon fill="midnightblue" stroke="midnightblue" points="587.91,-85.21 583.34,-75.65 580.95,-85.97 587.91,-85.21"/>
</g>
<!-- Node34 -->
<g id="node19" class="node">
<title>Node34</title>
<g id="a_node19"><a xlink:href="mp__arith_8h.html" target="_top" xlink:title=" ">
<polygon fill="none" stroke="red" points="51.5,-56.5 51.5,-75.5 120.5,-75.5 120.5,-56.5 51.5,-56.5"/>
<text text-anchor="middle" x="86" y="-63.5" font-family="Helvetica,sans-Serif" font-size="10.00">mp_arith.h</text>
</a>
</g>
</g>
<!-- Node33&#45;&gt;Node34 -->
<g id="edge22" class="edge">
<title>Node33&#45;&gt;Node34</title>
<path fill="none" stroke="midnightblue" d="M378.63,-224.36C357.44,-211.69 316.48,-187.47 281,-168 221.32,-135.25 150.04,-99.06 112.36,-80.15"/>
<polygon fill="midnightblue" stroke="midnightblue" points="113.61,-76.86 103.1,-75.51 110.47,-83.12 113.61,-76.86"/>
</g>
<!-- Node33&#45;&gt;Node36 -->
<g id="edge25" class="edge">
<title>Node33&#45;&gt;Node36</title>
<path fill="none" stroke="midnightblue" d="M431.65,-228.19C493.64,-220.37 619.06,-204.17 725,-188 728.28,-187.5 731.66,-186.97 735.06,-186.42"/>
<polygon fill="midnightblue" stroke="midnightblue" points="735.93,-189.82 745.23,-184.74 734.8,-182.91 735.93,-189.82"/>
</g>
<!-- Node33&#45;&gt;Node38 -->
<g id="edge26" class="edge">
<title>Node33&#45;&gt;Node38</title>
<path fill="none" stroke="midnightblue" d="M431.51,-225.83C485.32,-215.81 582.74,-197.67 639.24,-187.15"/>
<polygon fill="midnightblue" stroke="midnightblue" points="640.1,-190.55 649.29,-185.28 638.82,-183.67 640.1,-190.55"/>
</g>
<!-- Node34&#45;&gt;Node8 -->
<g id="edge23" class="edge">
<title>Node34&#45;&gt;Node8</title>
<path fill="none" stroke="midnightblue" d="M109.13,-56.44C133.48,-47.44 172.01,-33.19 199.42,-23.05"/>
<polygon fill="midnightblue" stroke="midnightblue" points="200.81,-26.27 208.97,-19.52 198.38,-19.7 200.81,-26.27"/>
</g>
<!-- Node34&#45;&gt;Node10 -->
<g id="edge24" class="edge">
<title>Node34&#45;&gt;Node10</title>
<path fill="none" stroke="midnightblue" d="M120.69,-57.5C123.5,-56.97 126.29,-56.46 129,-56 242.34,-36.71 378.01,-21.05 438.79,-14.42"/>
<polygon fill="midnightblue" stroke="midnightblue" points="439.34,-17.88 448.91,-13.32 438.59,-10.92 439.34,-17.88"/>
</g>
<!-- Node38&#45;&gt;Node13 -->
<g id="edge33" class="edge">
<title>Node38&#45;&gt;Node13</title>
<path fill="none" stroke="midnightblue" d="M675.07,-168.37C658.19,-149.97 618.43,-106.67 596.74,-83.05"/>
<polygon fill="midnightblue" stroke="midnightblue" points="599.23,-80.59 589.89,-75.59 594.07,-85.32 599.23,-80.59"/>
</g>
<!-- Node39 -->
<g id="node22" class="node">
<title>Node39</title>
<g id="a_node22"><a xlink:href="expr__cast_8h.html" target="_top" xlink:title="Templated functions to cast to specific exprt&#45;derived classes.">
<polygon fill="none" stroke="red" points="839.5,-112.5 839.5,-131.5 912.5,-131.5 912.5,-112.5 839.5,-112.5"/>
<text text-anchor="middle" x="876" y="-119.5" font-family="Helvetica,sans-Serif" font-size="10.00">expr_cast.h</text>
</a>
</g>
</g>
<!-- Node38&#45;&gt;Node39 -->
<g id="edge27" class="edge">
<title>Node38&#45;&gt;Node39</title>
<path fill="none" stroke="midnightblue" d="M713.58,-168.44C746.61,-159.2 799.39,-144.44 835.77,-134.26"/>
<polygon fill="midnightblue" stroke="midnightblue" points="836.87,-137.58 845.56,-131.52 834.99,-130.84 836.87,-137.58"/>
</g>
<!-- Node39&#45;&gt;Node13 -->
<g id="edge29" class="edge">
<title>Node39&#45;&gt;Node13</title>
<path fill="none" stroke="midnightblue" d="M839.36,-114.27C785.49,-104.37 685.01,-85.92 626.82,-75.23"/>
<polygon fill="midnightblue" stroke="midnightblue" points="627.28,-71.76 616.81,-73.39 626.01,-78.64 627.28,-71.76"/>
</g>
<!-- Node39&#45;&gt;Node31 -->
<g id="edge28" class="edge">
<title>Node39&#45;&gt;Node31</title>
<path fill="none" stroke="midnightblue" d="M876,-112.37C876,-94.62 876,-53.67 876,-29.6"/>
<polygon fill="midnightblue" stroke="midnightblue" points="879.5,-29.59 876,-19.59 872.5,-29.59 879.5,-29.59"/>
</g>
<!-- Node41 -->
<g id="node23" class="node">
<title>Node41</title>
<g id="a_node23"><a xlink:href="expr_8h.html" target="_top" xlink:title=" ">
<polygon fill="none" stroke="red" points="974.5,-56.5 974.5,-75.5 1021.5,-75.5 1021.5,-56.5 974.5,-56.5"/>
<text text-anchor="middle" x="998" y="-63.5" font-family="Helvetica,sans-Serif" font-size="10.00">expr.h</text>
</a>
</g>
</g>
<!-- Node39&#45;&gt;Node41 -->
<g id="edge30" class="edge">
<title>Node39&#45;&gt;Node41</title>
<path fill="none" stroke="midnightblue" d="M895.33,-112.44C915.32,-103.6 946.74,-89.69 969.56,-79.59"/>
<polygon fill="midnightblue" stroke="midnightblue" points="971.03,-82.76 978.76,-75.52 968.2,-76.36 971.03,-82.76"/>
</g>
<!-- Node41&#45;&gt;Node31 -->
<g id="edge32" class="edge">
<title>Node41&#45;&gt;Node31</title>
<path fill="none" stroke="midnightblue" d="M978.67,-56.44C958.68,-47.6 927.26,-33.69 904.44,-23.59"/>
<polygon fill="midnightblue" stroke="midnightblue" points="905.8,-20.36 895.24,-19.52 902.97,-26.76 905.8,-20.36"/>
</g>
<!-- Node42 -->
<g id="node24" class="node">
<title>Node42</title>
<g id="a_node24"><a xlink:href="type_8h.html" target="_top" xlink:title=" ">
<polygon fill="none" stroke="red" points="1045.5,-0.5 1045.5,-19.5 1092.5,-19.5 1092.5,-0.5 1045.5,-0.5"/>
<text text-anchor="middle" x="1069" y="-7.5" font-family="Helvetica,sans-Serif" font-size="10.00">type.h</text>
</a>
</g>
</g>
<!-- Node41&#45;&gt;Node42 -->
<g id="edge31" class="edge">
<title>Node41&#45;&gt;Node42</title>
<path fill="none" stroke="midnightblue" d="M1009.41,-56.32C1020.11,-48.18 1036.34,-35.84 1049.16,-26.09"/>
<polygon fill="midnightblue" stroke="midnightblue" points="1051.54,-28.67 1057.39,-19.83 1047.31,-23.1 1051.54,-28.67"/>
</g>
<!-- Node52 -->
<g id="node26" class="node">
<title>Node52</title>
<g id="a_node26"><a xlink:href="cprover__prefix_8h.html" target="_top" xlink:title=" ">
<polygon fill="none" stroke="black" points="526.5,-224.5 526.5,-243.5 621.5,-243.5 621.5,-224.5 526.5,-224.5"/>
<text text-anchor="middle" x="574" y="-231.5" font-family="Helvetica,sans-Serif" font-size="10.00">cprover_prefix.h</text>
</a>
</g>
</g>
<!-- Node51&#45;&gt;Node52 -->
<g id="edge36" class="edge">
<title>Node51&#45;&gt;Node52</title>
<path fill="none" stroke="midnightblue" d="M588.19,-280.08C585.92,-272.85 582.63,-262.41 579.79,-253.4"/>
<polygon fill="midnightblue" stroke="midnightblue" points="583.1,-252.24 576.75,-243.75 576.42,-254.34 583.1,-252.24"/>
</g>
<!-- Node53 -->
<g id="node27" class="node">
<title>Node53</title>
<g id="a_node27"><a xlink:href="pointer__expr_8h.html" target="_top" xlink:title=" ">
<polygon fill="none" stroke="red" points="640,-224.5 640,-243.5 726,-243.5 726,-224.5 640,-224.5"/>
<text text-anchor="middle" x="683" y="-231.5" font-family="Helvetica,sans-Serif" font-size="10.00">pointer_expr.h</text>
</a>
</g>
</g>
<!-- Node51&#45;&gt;Node53 -->
<g id="edge37" class="edge">
<title>Node51&#45;&gt;Node53</title>
<path fill="none" stroke="midnightblue" d="M605.78,-280.32C620.27,-271.82 642.57,-258.73 659.49,-248.8"/>
<polygon fill="midnightblue" stroke="midnightblue" points="661.4,-251.74 668.26,-243.65 657.86,-245.7 661.4,-251.74"/>
</g>
<!-- Node53&#45;&gt;Node38 -->
<g id="edge38" class="edge">
<title>Node53&#45;&gt;Node38</title>
<path fill="none" stroke="midnightblue" d="M683,-224.08C683,-217.01 683,-206.86 683,-197.99"/>
<polygon fill="midnightblue" stroke="midnightblue" points="686.5,-197.75 683,-187.75 679.5,-197.75 686.5,-197.75"/>
</g>
<!-- Node55&#45;&gt;Node56 -->
<g id="edge41" class="edge">
<title>Node55&#45;&gt;Node56</title>
<path fill="none" stroke="midnightblue" d="M709.58,-336.32C725,-327.74 748.81,-314.49 766.71,-304.52"/>
<polygon fill="midnightblue" stroke="midnightblue" points="768.42,-307.58 775.45,-299.65 765.01,-301.46 768.42,-307.58"/>
</g>
<!-- Node56&#45;&gt;Node41 -->
<g id="edge42" class="edge">
<title>Node56&#45;&gt;Node41</title>
<path fill="none" stroke="midnightblue" d="M835.02,-286.02C890.82,-281.22 982.28,-269.58 1003,-244 1040.53,-197.67 1018.33,-119.96 1005.36,-85"/>
<polygon fill="midnightblue" stroke="midnightblue" points="1008.59,-83.65 1001.7,-75.6 1002.06,-86.19 1008.59,-83.65"/>
</g>
<!-- Node22 -->
<g id="node30" class="node">
<title>Node22</title>
<g id="a_node30"><a xlink:title=" ">
<polygon fill="none" stroke="#bfbfbf" points="744.5,-224.5 744.5,-243.5 837.5,-243.5 837.5,-224.5 744.5,-224.5"/>
<text text-anchor="middle" x="791" y="-231.5" font-family="Helvetica,sans-Serif" font-size="10.00">unordered_map</text>
</a>
</g>
</g>
<!-- Node56&#45;&gt;Node22 -->
<g id="edge43" class="edge">
<title>Node56&#45;&gt;Node22</title>
<path fill="none" stroke="midnightblue" d="M791,-280.08C791,-273.01 791,-262.86 791,-253.99"/>
<polygon fill="midnightblue" stroke="midnightblue" points="794.5,-253.75 791,-243.75 787.5,-253.75 794.5,-253.75"/>
</g>
<!-- Node58&#45;&gt;Node11 -->
<g id="edge48" class="edge">
<title>Node58&#45;&gt;Node11</title>
<path fill="none" stroke="midnightblue" d="M379,-168.08C379,-161.01 379,-150.86 379,-141.99"/>
<polygon fill="midnightblue" stroke="midnightblue" points="382.5,-141.75 379,-131.75 375.5,-141.75 382.5,-141.75"/>
</g>
<!-- Node58&#45;&gt;Node13 -->
<g id="edge47" class="edge">
<title>Node58&#45;&gt;Node13</title>
<path fill="none" stroke="midnightblue" d="M394.93,-168.37C430.21,-149.25 515.14,-103.23 557.34,-80.36"/>
<polygon fill="midnightblue" stroke="midnightblue" points="559.02,-83.43 566.14,-75.59 555.69,-77.28 559.02,-83.43"/>
</g>
<!-- Node59&#45;&gt;Node32 -->
<g id="edge54" class="edge">
<title>Node59&#45;&gt;Node32</title>
<path fill="none" stroke="midnightblue" d="M378.64,-397.98C406.94,-387.77 454.53,-370.61 486.59,-359.05"/>
<polygon fill="midnightblue" stroke="midnightblue" points="488.18,-362.19 496.4,-355.51 485.81,-355.61 488.18,-362.19"/>
</g>
<!-- Node59&#45;&gt;Node38 -->
<g id="edge53" class="edge">
<title>Node59&#45;&gt;Node38</title>
<path fill="none" stroke="midnightblue" d="M359.32,-398C374.62,-368.73 429.44,-271.39 504,-224 545.16,-197.84 600.64,-186.88 638.87,-182.29"/>
<polygon fill="midnightblue" stroke="midnightblue" points="639.61,-185.73 649.17,-181.16 638.85,-178.77 639.61,-185.73"/>
</g>
<!-- Node60&#45;&gt;Node38 -->
<g id="edge60" class="edge">
<title>Node60&#45;&gt;Node38</title>
<path fill="none" stroke="midnightblue" d="M886.65,-224.44C843.16,-214.74 772.38,-198.95 726.77,-188.77"/>
<polygon fill="midnightblue" stroke="midnightblue" points="727.39,-185.32 716.87,-186.56 725.87,-192.15 727.39,-185.32"/>
</g>
<!-- Node61 -->
<g id="node36" class="node">
<title>Node61</title>
<g id="a_node36"><a xlink:href="mathematical__types_8h.html" target="_top" xlink:title=" ">
<polygon fill="none" stroke="black" points="840,-168.5 840,-187.5 966,-187.5 966,-168.5 840,-168.5"/>
<text text-anchor="middle" x="903" y="-175.5" font-family="Helvetica,sans-Serif" font-size="10.00">mathematical_types.h</text>
</a>
</g>
</g>
<!-- Node60&#45;&gt;Node61 -->
<g id="edge56" class="edge">
<title>Node60&#45;&gt;Node61</title>
<path fill="none" stroke="midnightblue" d="M921.37,-224.08C918.39,-216.77 914.07,-206.18 910.38,-197.1"/>
<polygon fill="midnightblue" stroke="midnightblue" points="913.58,-195.69 906.57,-187.75 907.1,-198.33 913.58,-195.69"/>
</g>
<!-- Node61&#45;&gt;Node13 -->
<g id="edge58" class="edge">
<title>Node61&#45;&gt;Node13</title>
<path fill="none" stroke="midnightblue" d="M878.08,-168.46C821.31,-149.01 682.25,-101.36 616.95,-78.98"/>
<polygon fill="midnightblue" stroke="midnightblue" points="617.72,-75.54 607.13,-75.61 615.45,-82.16 617.72,-75.54"/>
</g>
<!-- Node61&#45;&gt;Node39 -->
<g id="edge57" class="edge">
<title>Node61&#45;&gt;Node39</title>
<path fill="none" stroke="midnightblue" d="M898.54,-168.08C894.85,-160.69 889.48,-149.95 884.91,-140.81"/>
<polygon fill="midnightblue" stroke="midnightblue" points="887.98,-139.13 880.38,-131.75 881.72,-142.26 887.98,-139.13"/>
</g>
<!-- Node61&#45;&gt;Node42 -->
<g id="edge59" class="edge">
<title>Node61&#45;&gt;Node42</title>
<path fill="none" stroke="midnightblue" d="M916.94,-168.35C941.85,-152.39 994.72,-116.25 1030,-76 1042.58,-61.65 1053.42,-42.69 1060.46,-28.96"/>
<polygon fill="midnightblue" stroke="midnightblue" points="1063.77,-30.15 1065.07,-19.64 1057.5,-27.05 1063.77,-30.15"/>
</g>
</g>
</svg>
