<?xml version="1.0" encoding="UTF-8" standalone="no"?>
<!DOCTYPE svg PUBLIC "-//W3C//DTD SVG 1.1//EN"
 "http://www.w3.org/Graphics/SVG/1.1/DTD/svg11.dtd">
<!-- Generated by graphviz version 2.43.0 (0)
 -->
<!-- Title: smt_object_sizet Pages: 1 -->
<svg width="1728pt" height="199pt"
 viewBox="0.00 0.00 1728.00 198.50" xmlns="http://www.w3.org/2000/svg" xmlns:xlink="http://www.w3.org/1999/xlink">
<g id="graph0" class="graph" transform="scale(1 1) rotate(0) translate(4 194.5)">
<title>smt_object_sizet</title>
<!-- Node1 -->
<g id="node1" class="node">
<title>Node1</title>
<g id="a_node1"><a xlink:title="Specifics of how the object size lookup is implemented in SMT terms.">
<polygon fill="#bfbfbf" stroke="black" points="1621,-46 1621,-65 1720,-65 1720,-46 1621,-46"/>
<text text-anchor="middle" x="1670.5" y="-53" font-family="Helvetica,sans-Serif" font-size="10.00">smt_object_sizet</text>
</a>
</g>
</g>
<!-- Node2 -->
<g id="node2" class="node">
<title>Node2</title>
<g id="a_node2"><a xlink:href="classsmt__declare__function__commandt.html" target="_top" xlink:title=" ">
<polygon fill="none" stroke="black" points="1345.5,-77.5 1345.5,-107.5 1467.5,-107.5 1467.5,-77.5 1345.5,-77.5"/>
<text text-anchor="start" x="1353.5" y="-95.5" font-family="Helvetica,sans-Serif" font-size="10.00">smt_declare_function</text>
<text text-anchor="middle" x="1406.5" y="-84.5" font-family="Helvetica,sans-Serif" font-size="10.00">_commandt</text>
</a>
</g>
</g>
<!-- Node2&#45;&gt;Node1 -->
<g id="edge1" class="edge">
<title>Node2&#45;&gt;Node1</title>
<path fill="none" stroke="#9a32cd" stroke-dasharray="5,2" d="M1477.63,-82.6C1522.8,-76.22 1580.38,-68.09 1620.63,-62.4"/>
<polygon fill="#9a32cd" stroke="#9a32cd" points="1477.02,-79.15 1467.61,-84.01 1478,-86.08 1477.02,-79.15"/>
<text text-anchor="middle" x="1558" y="-79.5" font-family="Helvetica,sans-Serif" font-size="10.00"> declaration</text>
</g>
<!-- Node3 -->
<g id="node3" class="node">
<title>Node3</title>
<g id="a_node3"><a xlink:href="classsmt__commandt.html" target="_top" xlink:title=" ">
<polygon fill="none" stroke="black" points="1008,-159 1008,-178 1101,-178 1101,-159 1008,-159"/>
<text text-anchor="middle" x="1054.5" y="-166" font-family="Helvetica,sans-Serif" font-size="10.00">smt_commandt</text>
</a>
</g>
</g>
<!-- Node3&#45;&gt;Node2 -->
<g id="edge2" class="edge">
<title>Node3&#45;&gt;Node2</title>
<path fill="none" stroke="midnightblue" d="M1111.06,-158.23C1160.74,-148.84 1235.44,-134.22 1300,-119.5 1315.94,-115.86 1333.16,-111.6 1348.97,-107.55"/>
<polygon fill="midnightblue" stroke="midnightblue" points="1110.35,-154.8 1101.17,-160.09 1111.64,-161.68 1110.35,-154.8"/>
</g>
<!-- Node4 -->
<g id="node4" class="node">
<title>Node4</title>
<g id="a_node4"><a xlink:href="classirept.html" target="_top" xlink:title="There are a large number of kinds of tree structured or tree&#45;like data in CPROVER.">
<polygon fill="none" stroke="black" points="749,-159 749,-178 788,-178 788,-159 749,-159"/>
<text text-anchor="middle" x="768.5" y="-166" font-family="Helvetica,sans-Serif" font-size="10.00">irept</text>
</a>
</g>
</g>
<!-- Node4&#45;&gt;Node3 -->
<g id="edge3" class="edge">
<title>Node4&#45;&gt;Node3</title>
<path fill="none" stroke="darkgreen" d="M798.42,-168.5C847.84,-168.5 948.91,-168.5 1007.91,-168.5"/>
<polygon fill="darkgreen" stroke="darkgreen" points="798.13,-165 788.13,-168.5 798.13,-172 798.13,-165"/>
</g>
<!-- Node5 -->
<g id="node5" class="node">
<title>Node5</title>
<g id="a_node5"><a xlink:href="classsharing__treet.html" target="_top" xlink:title=" ">
<polygon fill="none" stroke="black" points="556,-148 556,-189 681,-189 681,-148 556,-148"/>
<text text-anchor="start" x="564" y="-177" font-family="Helvetica,sans-Serif" font-size="10.00">sharing_treet&lt; irept,</text>
<text text-anchor="start" x="564" y="-166" font-family="Helvetica,sans-Serif" font-size="10.00"> forward_list_as_mapt</text>
<text text-anchor="middle" x="618.5" y="-155" font-family="Helvetica,sans-Serif" font-size="10.00">&lt; irep_idt, irept &gt; &gt;</text>
</a>
</g>
</g>
<!-- Node5&#45;&gt;Node4 -->
<g id="edge4" class="edge">
<title>Node5&#45;&gt;Node4</title>
<path fill="none" stroke="midnightblue" d="M691.42,-168.5C712.59,-168.5 733.99,-168.5 748.68,-168.5"/>
<polygon fill="midnightblue" stroke="midnightblue" points="691.41,-165 681.41,-168.5 691.41,-172 691.41,-165"/>
</g>
<!-- Node6 -->
<g id="node6" class="node">
<title>Node6</title>
<g id="a_node6"><a xlink:href="classsharing__treet.html" target="_top" xlink:title="Base class for tree&#45;like data structures with sharing.">
<polygon fill="none" stroke="black" points="237,-153.5 237,-183.5 373,-183.5 373,-153.5 237,-153.5"/>
<text text-anchor="start" x="245" y="-171.5" font-family="Helvetica,sans-Serif" font-size="10.00">sharing_treet&lt; derivedt,</text>
<text text-anchor="middle" x="305" y="-160.5" font-family="Helvetica,sans-Serif" font-size="10.00"> named_subtreest &gt;</text>
</a>
</g>
</g>
<!-- Node6&#45;&gt;Node5 -->
<g id="edge5" class="edge">
<title>Node6&#45;&gt;Node5</title>
<path fill="none" stroke="orange" stroke-dasharray="5,2" d="M383.29,-168.5C436.58,-168.5 506.45,-168.5 555.96,-168.5"/>
<polygon fill="orange" stroke="orange" points="383.21,-165 373.21,-168.5 383.21,-172 383.21,-165"/>
<text text-anchor="start" x="391" y="-182.5" font-family="Helvetica,sans-Serif" font-size="10.00"> &lt; irept, forward_list</text>
<text text-anchor="middle" x="464.5" y="-171.5" font-family="Helvetica,sans-Serif" font-size="10.00">_as_mapt&lt; irep_idt, irept &gt; &gt;</text>
</g>
<!-- Node7 -->
<g id="node7" class="node">
<title>Node7</title>
<g id="a_node7"><a xlink:href="classtree__nodet.html" target="_top" xlink:title="A node with data in a tree, it contains:">
<polygon fill="none" stroke="red" points="0,-153.5 0,-183.5 158,-183.5 158,-153.5 0,-153.5"/>
<text text-anchor="start" x="8" y="-171.5" font-family="Helvetica,sans-Serif" font-size="10.00">tree_nodet&lt; treet,</text>
<text text-anchor="middle" x="79" y="-160.5" font-family="Helvetica,sans-Serif" font-size="10.00"> named_subtreest, sharing &gt;</text>
</a>
</g>
</g>
<!-- Node7&#45;&gt;Node6 -->
<g id="edge6" class="edge">
<title>Node7&#45;&gt;Node6</title>
<path fill="none" stroke="#9a32cd" stroke-dasharray="5,2" d="M168.06,-168.5C190.89,-168.5 215.11,-168.5 236.68,-168.5"/>
<polygon fill="#9a32cd" stroke="#9a32cd" points="168.03,-165 158.03,-168.5 168.03,-172 168.03,-165"/>
<text text-anchor="middle" x="197.5" y="-182.5" font-family="Helvetica,sans-Serif" font-size="10.00"> data</text>
<text text-anchor="middle" x="197.5" y="-171.5" font-family="Helvetica,sans-Serif" font-size="10.00">empty_d</text>
</g>
<!-- Node13 -->
<g id="node8" class="node">
<title>Node13</title>
<g id="a_node8"><a xlink:href="classsmt__sortt_1_1storert.html" target="_top" xlink:title=" ">
<polygon fill="none" stroke="black" points="988,-99 988,-140 1121,-140 1121,-99 988,-99"/>
<text text-anchor="start" x="996" y="-128" font-family="Helvetica,sans-Serif" font-size="10.00">smt_sortt::storert</text>
<text text-anchor="start" x="996" y="-117" font-family="Helvetica,sans-Serif" font-size="10.00">&lt; smt_declare_function</text>
<text text-anchor="middle" x="1054.5" y="-106" font-family="Helvetica,sans-Serif" font-size="10.00">_commandt &gt;</text>
</a>
</g>
</g>
<!-- Node13&#45;&gt;Node2 -->
<g id="edge7" class="edge">
<title>Node13&#45;&gt;Node2</title>
<path fill="none" stroke="#8b1a1a" d="M1131.38,-113.65C1195.47,-108.7 1286.01,-101.72 1345.22,-97.15"/>
<polygon fill="#8b1a1a" stroke="#8b1a1a" points="1131.03,-110.16 1121.33,-114.42 1131.57,-117.14 1131.03,-110.16"/>
</g>
<!-- Node14 -->
<g id="node9" class="node">
<title>Node14</title>
<g id="a_node9"><a xlink:href="classsmt__sortt_1_1storert.html" target="_top" xlink:title="Class for adding the ability to up and down cast smt_sortt to and from irept.">
<polygon fill="none" stroke="black" points="718,-104.5 718,-134.5 819,-134.5 819,-104.5 718,-104.5"/>
<text text-anchor="start" x="726" y="-122.5" font-family="Helvetica,sans-Serif" font-size="10.00">smt_sortt::storert</text>
<text text-anchor="middle" x="768.5" y="-111.5" font-family="Helvetica,sans-Serif" font-size="10.00">&lt; derivedt &gt;</text>
</a>
</g>
</g>
<!-- Node14&#45;&gt;Node13 -->
<g id="edge8" class="edge">
<title>Node14&#45;&gt;Node13</title>
<path fill="none" stroke="orange" stroke-dasharray="5,2" d="M829.51,-119.5C875.96,-119.5 940.2,-119.5 987.98,-119.5"/>
<polygon fill="orange" stroke="orange" points="829.29,-116 819.29,-119.5 829.29,-123 829.29,-116"/>
<text text-anchor="start" x="837" y="-133.5" font-family="Helvetica,sans-Serif" font-size="10.00"> &lt; smt_declare_function</text>
<text text-anchor="middle" x="897" y="-122.5" font-family="Helvetica,sans-Serif" font-size="10.00">_commandt &gt;</text>
</g>
<!-- Node15 -->
<g id="node10" class="node">
<title>Node15</title>
<g id="a_node10"><a xlink:href="classsmt__termt_1_1storert.html" target="_top" xlink:title="Class for adding the ability to up and down cast smt_termt to and from irept.">
<polygon fill="none" stroke="black" points="1001.5,-49.5 1001.5,-79.5 1107.5,-79.5 1107.5,-49.5 1001.5,-49.5"/>
<text text-anchor="start" x="1009.5" y="-67.5" font-family="Helvetica,sans-Serif" font-size="10.00">smt_termt::storert</text>
<text text-anchor="middle" x="1054.5" y="-56.5" font-family="Helvetica,sans-Serif" font-size="10.00">&lt; derivedt &gt;</text>
</a>
</g>
</g>
<!-- Node15&#45;&gt;Node2 -->
<g id="edge9" class="edge">
<title>Node15&#45;&gt;Node2</title>
<path fill="none" stroke="#8b1a1a" d="M1117.52,-69.46C1181.81,-74.6 1281.63,-82.59 1345.26,-87.68"/>
<polygon fill="#8b1a1a" stroke="#8b1a1a" points="1117.77,-65.97 1107.52,-68.66 1117.21,-72.95 1117.77,-65.97"/>
</g>
<!-- Node16 -->
<g id="node11" class="node">
<title>Node16</title>
<g id="a_node11"><a xlink:href="classsmt__function__application__termt_1_1factoryt.html" target="_top" xlink:title=" ">
<polygon fill="none" stroke="black" points="1318,-8 1318,-49 1495,-49 1495,-8 1318,-8"/>
<text text-anchor="start" x="1326" y="-37" font-family="Helvetica,sans-Serif" font-size="10.00">smt_function_application</text>
<text text-anchor="start" x="1326" y="-26" font-family="Helvetica,sans-Serif" font-size="10.00">_termt::factoryt&lt; smt_command</text>
<text text-anchor="middle" x="1406.5" y="-15" font-family="Helvetica,sans-Serif" font-size="10.00">_functiont &gt;</text>
</a>
</g>
</g>
<!-- Node16&#45;&gt;Node1 -->
<g id="edge10" class="edge">
<title>Node16&#45;&gt;Node1</title>
<path fill="none" stroke="#9a32cd" stroke-dasharray="5,2" d="M1505.27,-34.91C1536.55,-37.39 1571.28,-40.59 1603,-44.5 1608.81,-45.22 1614.88,-46.07 1620.9,-46.99"/>
<polygon fill="#9a32cd" stroke="#9a32cd" points="1505.49,-31.42 1495.24,-34.14 1504.94,-38.4 1505.49,-31.42"/>
<text text-anchor="middle" x="1558" y="-47.5" font-family="Helvetica,sans-Serif" font-size="10.00"> make_application</text>
</g>
<!-- Node17 -->
<g id="node12" class="node">
<title>Node17</title>
<g id="a_node12"><a xlink:href="classsmt__function__application__termt_1_1factoryt.html" target="_top" xlink:title=" ">
<polygon fill="none" stroke="black" points="975,-0.5 975,-30.5 1134,-30.5 1134,-0.5 975,-0.5"/>
<text text-anchor="start" x="983" y="-18.5" font-family="Helvetica,sans-Serif" font-size="10.00">smt_function_application</text>
<text text-anchor="middle" x="1054.5" y="-7.5" font-family="Helvetica,sans-Serif" font-size="10.00">_termt::factoryt&lt; functiont &gt;</text>
</a>
</g>
</g>
<!-- Node17&#45;&gt;Node16 -->
<g id="edge11" class="edge">
<title>Node17&#45;&gt;Node16</title>
<path fill="none" stroke="orange" stroke-dasharray="5,2" d="M1144.16,-18.79C1197.43,-20.77 1264.93,-23.28 1317.99,-25.25"/>
<polygon fill="orange" stroke="orange" points="1144.17,-15.29 1134.05,-18.42 1143.91,-22.29 1144.17,-15.29"/>
<text text-anchor="middle" x="1226" y="-27.5" font-family="Helvetica,sans-Serif" font-size="10.00"> &lt; smt_command_functiont &gt;</text>
</g>
</g>
</svg>
