<?xml version="1.0" encoding="UTF-8" standalone="no"?>
<!DOCTYPE svg PUBLIC "-//W3C//DTD SVG 1.1//EN"
 "http://www.w3.org/Graphics/SVG/1.1/DTD/svg11.dtd">
<!-- Generated by graphviz version 2.43.0 (0)
 -->
<!-- Title: interpretert::function_assignments_contextt Pages: 1 -->
<svg width="1758pt" height="183pt"
 viewBox="0.00 0.00 1758.00 182.50" xmlns="http://www.w3.org/2000/svg" xmlns:xlink="http://www.w3.org/1999/xlink">
<g id="graph0" class="graph" transform="scale(1 1) rotate(0) translate(4 178.5)">
<title>interpretert::function_assignments_contextt</title>
<!-- Node1 -->
<g id="node1" class="node">
<title>Node1</title>
<g id="a_node1"><a xlink:title=" ">
<polygon fill="#bfbfbf" stroke="black" points="1620,-124.5 1620,-154.5 1750,-154.5 1750,-124.5 1620,-124.5"/>
<text text-anchor="start" x="1628" y="-142.5" font-family="Helvetica,sans-Serif" font-size="10.00">interpretert::function</text>
<text text-anchor="middle" x="1685" y="-131.5" font-family="Helvetica,sans-Serif" font-size="10.00">_assignments_contextt</text>
</a>
</g>
</g>
<!-- Node2 -->
<g id="node2" class="node">
<title>Node2</title>
<g id="a_node2"><a xlink:title=" ">
<polygon fill="none" stroke="#bfbfbf" points="1349,-100.5 1349,-130.5 1468,-130.5 1468,-100.5 1349,-100.5"/>
<text text-anchor="start" x="1357" y="-118.5" font-family="Helvetica,sans-Serif" font-size="10.00">std::vector&lt; function</text>
<text text-anchor="middle" x="1408.5" y="-107.5" font-family="Helvetica,sans-Serif" font-size="10.00">_assignmentt &gt;</text>
</a>
</g>
</g>
<!-- Node2&#45;&gt;Node1 -->
<g id="edge1" class="edge">
<title>Node2&#45;&gt;Node1</title>
<path fill="none" stroke="#9a32cd" stroke-dasharray="5,2" d="M1478.48,-111.41C1515.31,-110.34 1561.31,-110.79 1602,-116.5 1614.01,-118.18 1626.73,-121.15 1638.49,-124.4"/>
<polygon fill="#9a32cd" stroke="#9a32cd" points="1478.22,-107.91 1468.34,-111.74 1478.45,-114.91 1478.22,-107.91"/>
<text text-anchor="middle" x="1544" y="-141.5" font-family="Helvetica,sans-Serif" font-size="10.00"> return_assignments</text>
<text text-anchor="middle" x="1544" y="-130.5" font-family="Helvetica,sans-Serif" font-size="10.00">param_assignments</text>
<text text-anchor="middle" x="1544" y="-119.5" font-family="Helvetica,sans-Serif" font-size="10.00">exception_assignments</text>
</g>
<!-- Node3 -->
<g id="node3" class="node">
<title>Node3</title>
<g id="a_node3"><a xlink:href="structinterpretert_1_1function__assignmentt.html" target="_top" xlink:title=" ">
<polygon fill="none" stroke="black" points="1063,-102.5 1063,-132.5 1181,-132.5 1181,-102.5 1063,-102.5"/>
<text text-anchor="start" x="1071" y="-120.5" font-family="Helvetica,sans-Serif" font-size="10.00">interpretert::function</text>
<text text-anchor="middle" x="1122" y="-109.5" font-family="Helvetica,sans-Serif" font-size="10.00">_assignmentt</text>
</a>
</g>
</g>
<!-- Node3&#45;&gt;Node2 -->
<g id="edge2" class="edge">
<title>Node3&#45;&gt;Node2</title>
<path fill="none" stroke="#9a32cd" stroke-dasharray="5,2" d="M1191.27,-117.02C1239.34,-116.68 1303.04,-116.23 1348.83,-115.91"/>
<polygon fill="#9a32cd" stroke="#9a32cd" points="1191.23,-113.52 1181.26,-117.09 1191.28,-120.52 1191.23,-113.52"/>
<text text-anchor="middle" x="1265" y="-119.5" font-family="Helvetica,sans-Serif" font-size="10.00"> elements</text>
</g>
<!-- Node4 -->
<g id="node4" class="node">
<title>Node4</title>
<g id="a_node4"><a xlink:href="classdstringt.html" target="_top" xlink:title="dstringt has one field, an unsigned integer no which is an index into a static table of strings.">
<polygon fill="none" stroke="black" points="0,-108 0,-127 54,-127 54,-108 0,-108"/>
<text text-anchor="middle" x="27" y="-115" font-family="Helvetica,sans-Serif" font-size="10.00">dstringt</text>
</a>
</g>
</g>
<!-- Node4&#45;&gt;Node1 -->
<g id="edge12" class="edge">
<title>Node4&#45;&gt;Node1</title>
<path fill="none" stroke="#9a32cd" stroke-dasharray="5,2" d="M57.7,-131.04C90.21,-144.61 144.22,-163.5 193,-163.5 193,-163.5 193,-163.5 1409.5,-163.5 1481.74,-163.5 1564.26,-155.15 1619.8,-148.3"/>
<polygon fill="#9a32cd" stroke="#9a32cd" points="58.9,-127.75 48.33,-127.03 56.14,-134.19 58.9,-127.75"/>
<text text-anchor="middle" x="876.5" y="-166.5" font-family="Helvetica,sans-Serif" font-size="10.00"> calling_function</text>
</g>
<!-- Node4&#45;&gt;Node3 -->
<g id="edge3" class="edge">
<title>Node4&#45;&gt;Node3</title>
<path fill="none" stroke="#9a32cd" stroke-dasharray="5,2" d="M64.21,-117.5C97.64,-117.5 148.67,-117.5 193,-117.5 193,-117.5 193,-117.5 976,-117.5 1004.57,-117.5 1036.31,-117.5 1062.79,-117.5"/>
<polygon fill="#9a32cd" stroke="#9a32cd" points="64.01,-114 54.01,-117.5 64.01,-121 64.01,-114"/>
<text text-anchor="middle" x="736.5" y="-120.5" font-family="Helvetica,sans-Serif" font-size="10.00"> id</text>
</g>
<!-- Node8 -->
<g id="node8" class="node">
<title>Node8</title>
<g id="a_node8"><a xlink:href="classtree__nodet.html" target="_top" xlink:title="A node with data in a tree, it contains:">
<polygon fill="none" stroke="red" points="115,-52.5 115,-82.5 273,-82.5 273,-52.5 115,-52.5"/>
<text text-anchor="start" x="123" y="-70.5" font-family="Helvetica,sans-Serif" font-size="10.00">tree_nodet&lt; treet,</text>
<text text-anchor="middle" x="194" y="-59.5" font-family="Helvetica,sans-Serif" font-size="10.00"> named_subtreest, sharing &gt;</text>
</a>
</g>
</g>
<!-- Node4&#45;&gt;Node8 -->
<g id="edge8" class="edge">
<title>Node4&#45;&gt;Node8</title>
<path fill="none" stroke="#9a32cd" stroke-dasharray="5,2" d="M51.09,-102.59C57.64,-98.86 64.93,-95.16 72,-92.5 85.55,-87.4 100.37,-83.25 114.84,-79.9"/>
<polygon fill="#9a32cd" stroke="#9a32cd" points="48.88,-99.83 42.11,-107.97 52.48,-105.83 48.88,-99.83"/>
<text text-anchor="middle" x="84.5" y="-95.5" font-family="Helvetica,sans-Serif" font-size="10.00"> data</text>
</g>
<!-- Node5 -->
<g id="node5" class="node">
<title>Node5</title>
<g id="a_node5"><a xlink:href="classexprt.html" target="_top" xlink:title="Base class for all expressions.">
<polygon fill="none" stroke="black" points="954,-70 954,-89 996,-89 996,-70 954,-70"/>
<text text-anchor="middle" x="975" y="-77" font-family="Helvetica,sans-Serif" font-size="10.00">exprt</text>
</a>
</g>
</g>
<!-- Node5&#45;&gt;Node3 -->
<g id="edge4" class="edge">
<title>Node5&#45;&gt;Node3</title>
<path fill="none" stroke="#9a32cd" stroke-dasharray="5,2" d="M1006.17,-84.3C1018.31,-86.46 1032.4,-89.26 1045,-92.5 1056.03,-95.34 1067.79,-98.93 1078.68,-102.49"/>
<polygon fill="#9a32cd" stroke="#9a32cd" points="1006.53,-80.81 996.08,-82.57 1005.35,-87.71 1006.53,-80.81"/>
<text text-anchor="middle" x="1029.5" y="-95.5" font-family="Helvetica,sans-Serif" font-size="10.00"> value</text>
</g>
<!-- Node6 -->
<g id="node6" class="node">
<title>Node6</title>
<g id="a_node6"><a xlink:href="classirept.html" target="_top" xlink:title="There are a large number of kinds of tree structured or tree&#45;like data in CPROVER.">
<polygon fill="none" stroke="black" points="857,-65 857,-84 896,-84 896,-65 857,-65"/>
<text text-anchor="middle" x="876.5" y="-72" font-family="Helvetica,sans-Serif" font-size="10.00">irept</text>
</a>
</g>
</g>
<!-- Node6&#45;&gt;Node5 -->
<g id="edge5" class="edge">
<title>Node6&#45;&gt;Node5</title>
<path fill="none" stroke="midnightblue" d="M906.11,-75.98C921.44,-76.78 939.96,-77.74 953.79,-78.45"/>
<polygon fill="midnightblue" stroke="midnightblue" points="906.27,-72.49 896.11,-75.46 905.91,-79.48 906.27,-72.49"/>
</g>
<!-- Node7 -->
<g id="node7" class="node">
<title>Node7</title>
<g id="a_node7"><a xlink:href="classsharing__treet.html" target="_top" xlink:title=" ">
<polygon fill="none" stroke="black" points="674,-40 674,-81 799,-81 799,-40 674,-40"/>
<text text-anchor="start" x="682" y="-69" font-family="Helvetica,sans-Serif" font-size="10.00">sharing_treet&lt; irept,</text>
<text text-anchor="start" x="682" y="-58" font-family="Helvetica,sans-Serif" font-size="10.00"> forward_list_as_mapt</text>
<text text-anchor="middle" x="736.5" y="-47" font-family="Helvetica,sans-Serif" font-size="10.00">&lt; irep_idt, irept &gt; &gt;</text>
</a>
</g>
</g>
<!-- Node7&#45;&gt;Node6 -->
<g id="edge6" class="edge">
<title>Node7&#45;&gt;Node6</title>
<path fill="none" stroke="midnightblue" d="M809.59,-67.81C827.18,-69.6 844.5,-71.35 856.96,-72.62"/>
<polygon fill="midnightblue" stroke="midnightblue" points="809.54,-64.29 799.23,-66.76 808.83,-71.25 809.54,-64.29"/>
</g>
<!-- Node8&#45;&gt;Node7 -->
<g id="edge7" class="edge">
<title>Node8&#45;&gt;Node7</title>
<path fill="none" stroke="#9a32cd" stroke-dasharray="5,2" d="M283.08,-66.36C392.97,-64.94 578.05,-62.54 673.87,-61.3"/>
<polygon fill="#9a32cd" stroke="#9a32cd" points="282.97,-62.86 273.02,-66.49 283.06,-69.86 282.97,-62.86"/>
<text text-anchor="middle" x="423" y="-79.5" font-family="Helvetica,sans-Serif" font-size="10.00"> empty_d</text>
<text text-anchor="middle" x="423" y="-68.5" font-family="Helvetica,sans-Serif" font-size="10.00">data</text>
</g>
<!-- Node13 -->
<g id="node9" class="node">
<title>Node13</title>
<g id="a_node9"><a xlink:href="classsharing__treet.html" target="_top" xlink:title="Base class for tree&#45;like data structures with sharing.">
<polygon fill="none" stroke="black" points="355,-0.5 355,-30.5 491,-30.5 491,-0.5 355,-0.5"/>
<text text-anchor="start" x="363" y="-18.5" font-family="Helvetica,sans-Serif" font-size="10.00">sharing_treet&lt; derivedt,</text>
<text text-anchor="middle" x="423" y="-7.5" font-family="Helvetica,sans-Serif" font-size="10.00"> named_subtreest &gt;</text>
</a>
</g>
</g>
<!-- Node8&#45;&gt;Node13 -->
<g id="edge10" class="edge">
<title>Node8&#45;&gt;Node13</title>
<path fill="none" stroke="#9a32cd" stroke-dasharray="5,2" d="M238.74,-48.6C254.9,-42.29 273.53,-35.78 291,-31.5 311.47,-26.49 334.15,-23.01 354.8,-20.61"/>
<polygon fill="#9a32cd" stroke="#9a32cd" points="237.02,-45.52 229.04,-52.48 239.62,-52.02 237.02,-45.52"/>
<text text-anchor="middle" x="314" y="-45.5" font-family="Helvetica,sans-Serif" font-size="10.00"> empty_d</text>
<text text-anchor="middle" x="314" y="-34.5" font-family="Helvetica,sans-Serif" font-size="10.00">data</text>
</g>
<!-- Node13&#45;&gt;Node7 -->
<g id="edge9" class="edge">
<title>Node13&#45;&gt;Node7</title>
<path fill="none" stroke="orange" stroke-dasharray="5,2" d="M501.28,-15.42C546.76,-16.71 605.15,-20.7 656,-31.5 665.77,-33.58 675.96,-36.6 685.66,-39.91"/>
<polygon fill="orange" stroke="orange" points="501.27,-11.92 491.19,-15.17 501.1,-18.92 501.27,-11.92"/>
<text text-anchor="start" x="509" y="-45.5" font-family="Helvetica,sans-Serif" font-size="10.00"> &lt; irept, forward_list</text>
<text text-anchor="middle" x="582.5" y="-34.5" font-family="Helvetica,sans-Serif" font-size="10.00">_as_mapt&lt; irep_idt, irept &gt; &gt;</text>
</g>
<!-- Node11 -->
<g id="node10" class="node">
<title>Node11</title>
<g id="a_node10"><a xlink:title="STL class.">
<polygon fill="none" stroke="#bfbfbf" points="1073.5,-64 1073.5,-83 1170.5,-83 1170.5,-64 1073.5,-64"/>
<text text-anchor="middle" x="1122" y="-71" font-family="Helvetica,sans-Serif" font-size="10.00">std::vector&lt; T &gt;</text>
</a>
</g>
</g>
<!-- Node11&#45;&gt;Node2 -->
<g id="edge11" class="edge">
<title>Node11&#45;&gt;Node2</title>
<path fill="none" stroke="orange" stroke-dasharray="5,2" d="M1180.63,-79.97C1222.47,-84.91 1280.36,-92.26 1331,-100.5 1336.74,-101.43 1342.72,-102.48 1348.68,-103.57"/>
<polygon fill="orange" stroke="orange" points="1180.97,-76.48 1170.63,-78.8 1180.15,-83.44 1180.97,-76.48"/>
<text text-anchor="middle" x="1265" y="-103.5" font-family="Helvetica,sans-Serif" font-size="10.00"> &lt; function_assignmentt &gt;</text>
</g>
</g>
</svg>
