<?xml version="1.0" encoding="UTF-8" standalone="no"?>
<!DOCTYPE svg PUBLIC "-//W3C//DTD SVG 1.1//EN"
 "http://www.w3.org/Graphics/SVG/1.1/DTD/svg11.dtd">
<!-- Generated by graphviz version 2.43.0 (0)
 -->
<!-- Title: java_boxed_type_infot Pages: 1 -->
<svg width="1523pt" height="131pt"
 viewBox="0.00 0.00 1523.00 131.00" xmlns="http://www.w3.org/2000/svg" xmlns:xlink="http://www.w3.org/1999/xlink">
<g id="graph0" class="graph" transform="scale(1 1) rotate(0) translate(4 127)">
<title>java_boxed_type_infot</title>
<!-- Node1 -->
<g id="node1" class="node">
<title>Node1</title>
<g id="a_node1"><a xlink:title="Return type for get_boxed_type_info_by_name.">
<polygon fill="#bfbfbf" stroke="black" points="1388,-8.5 1388,-27.5 1515,-27.5 1515,-8.5 1388,-8.5"/>
<text text-anchor="middle" x="1451.5" y="-15.5" font-family="Helvetica,sans-Serif" font-size="10.00">java_boxed_type_infot</text>
</a>
</g>
</g>
<!-- Node2 -->
<g id="node2" class="node">
<title>Node2</title>
<g id="a_node2"><a xlink:href="classtypet.html" target="_top" xlink:title="The type of an expression, extends irept.">
<polygon fill="none" stroke="black" points="1161,-31.5 1161,-50.5 1203,-50.5 1203,-31.5 1161,-31.5"/>
<text text-anchor="middle" x="1182" y="-38.5" font-family="Helvetica,sans-Serif" font-size="10.00">typet</text>
</a>
</g>
</g>
<!-- Node2&#45;&gt;Node1 -->
<g id="edge1" class="edge">
<title>Node2&#45;&gt;Node1</title>
<path fill="none" stroke="#9a32cd" stroke-dasharray="5,2" d="M1213.28,-38.4C1255.45,-34.77 1332.87,-28.11 1387.78,-23.39"/>
<polygon fill="#9a32cd" stroke="#9a32cd" points="1212.77,-34.93 1203.11,-39.27 1213.37,-41.9 1212.77,-34.93"/>
<text text-anchor="middle" x="1295.5" y="-40" font-family="Helvetica,sans-Serif" font-size="10.00"> corresponding_primitive_type</text>
</g>
<!-- Node3 -->
<g id="node3" class="node">
<title>Node3</title>
<g id="a_node3"><a xlink:href="classirept.html" target="_top" xlink:title="There are a large number of kinds of tree structured or tree&#45;like data in CPROVER.">
<polygon fill="none" stroke="black" points="1085,-34.5 1085,-53.5 1124,-53.5 1124,-34.5 1085,-34.5"/>
<text text-anchor="middle" x="1104.5" y="-41.5" font-family="Helvetica,sans-Serif" font-size="10.00">irept</text>
</a>
</g>
</g>
<!-- Node3&#45;&gt;Node2 -->
<g id="edge2" class="edge">
<title>Node3&#45;&gt;Node2</title>
<path fill="none" stroke="midnightblue" d="M1134.18,-42.86C1143.11,-42.51 1152.76,-42.12 1160.97,-41.8"/>
<polygon fill="midnightblue" stroke="midnightblue" points="1134.02,-39.36 1124.16,-43.26 1134.29,-46.36 1134.02,-39.36"/>
</g>
<!-- Node4 -->
<g id="node4" class="node">
<title>Node4</title>
<g id="a_node4"><a xlink:href="classsharing__treet.html" target="_top" xlink:title=" ">
<polygon fill="none" stroke="black" points="922,-29.5 922,-70.5 1047,-70.5 1047,-29.5 922,-29.5"/>
<text text-anchor="start" x="930" y="-58.5" font-family="Helvetica,sans-Serif" font-size="10.00">sharing_treet&lt; irept,</text>
<text text-anchor="start" x="930" y="-47.5" font-family="Helvetica,sans-Serif" font-size="10.00"> forward_list_as_mapt</text>
<text text-anchor="middle" x="984.5" y="-36.5" font-family="Helvetica,sans-Serif" font-size="10.00">&lt; irep_idt, irept &gt; &gt;</text>
</a>
</g>
</g>
<!-- Node4&#45;&gt;Node3 -->
<g id="edge3" class="edge">
<title>Node4&#45;&gt;Node3</title>
<path fill="none" stroke="midnightblue" d="M1057.47,-46.34C1067.54,-45.83 1077.09,-45.34 1084.84,-44.95"/>
<polygon fill="midnightblue" stroke="midnightblue" points="1057.07,-42.86 1047.26,-46.86 1057.43,-49.85 1057.07,-42.86"/>
</g>
<!-- Node5 -->
<g id="node5" class="node">
<title>Node5</title>
<g id="a_node5"><a xlink:href="classtree__nodet.html" target="_top" xlink:title="A node with data in a tree, it contains:">
<polygon fill="none" stroke="black" points="362,-52 362,-82 520,-82 520,-52 362,-52"/>
<text text-anchor="start" x="370" y="-70" font-family="Helvetica,sans-Serif" font-size="10.00">tree_nodet&lt; treet,</text>
<text text-anchor="middle" x="441" y="-59" font-family="Helvetica,sans-Serif" font-size="10.00"> named_subtreest, sharing &gt;</text>
</a>
</g>
</g>
<!-- Node5&#45;&gt;Node4 -->
<g id="edge4" class="edge">
<title>Node5&#45;&gt;Node4</title>
<path fill="none" stroke="#9a32cd" stroke-dasharray="5,2" d="M530.28,-83.24C532.88,-83.52 535.46,-83.78 538,-84 636,-92.61 619.19,-122.16 903,-75 909.79,-73.87 916.79,-72.32 923.71,-70.53"/>
<polygon fill="#9a32cd" stroke="#9a32cd" points="530.52,-79.74 520.17,-82.01 529.68,-86.69 530.52,-79.74"/>
<text text-anchor="middle" x="670" y="-115" font-family="Helvetica,sans-Serif" font-size="10.00"> empty_d</text>
<text text-anchor="middle" x="670" y="-104" font-family="Helvetica,sans-Serif" font-size="10.00">data</text>
</g>
<!-- Node11 -->
<g id="node10" class="node">
<title>Node11</title>
<g id="a_node10"><a xlink:href="classsharing__treet.html" target="_top" xlink:title="Base class for tree&#45;like data structures with sharing.">
<polygon fill="none" stroke="black" points="602,-32 602,-62 738,-62 738,-32 602,-32"/>
<text text-anchor="start" x="610" y="-50" font-family="Helvetica,sans-Serif" font-size="10.00">sharing_treet&lt; derivedt,</text>
<text text-anchor="middle" x="670" y="-39" font-family="Helvetica,sans-Serif" font-size="10.00"> named_subtreest &gt;</text>
</a>
</g>
</g>
<!-- Node5&#45;&gt;Node11 -->
<g id="edge10" class="edge">
<title>Node5&#45;&gt;Node11</title>
<path fill="none" stroke="#9a32cd" stroke-dasharray="5,2" d="M530.2,-59.23C553.96,-57.14 579.29,-54.9 601.71,-52.93"/>
<polygon fill="#9a32cd" stroke="#9a32cd" points="529.77,-55.75 520.12,-60.12 530.39,-62.73 529.77,-55.75"/>
<text text-anchor="middle" x="561" y="-72" font-family="Helvetica,sans-Serif" font-size="10.00"> empty_d</text>
<text text-anchor="middle" x="561" y="-61" font-family="Helvetica,sans-Serif" font-size="10.00">data</text>
</g>
<!-- Node6 -->
<g id="node6" class="node">
<title>Node6</title>
<g id="a_node6"><a xlink:href="structref__count__ift_3_01true_01_4.html" target="_top" xlink:title=" ">
<polygon fill="none" stroke="black" points="182,-89.5 182,-108.5 301,-108.5 301,-89.5 182,-89.5"/>
<text text-anchor="middle" x="241.5" y="-96.5" font-family="Helvetica,sans-Serif" font-size="10.00">ref_count_ift&lt; true &gt;</text>
</a>
</g>
</g>
<!-- Node6&#45;&gt;Node5 -->
<g id="edge5" class="edge">
<title>Node6&#45;&gt;Node5</title>
<path fill="none" stroke="midnightblue" d="M311.21,-87.87C327.52,-85.22 345.04,-82.39 361.75,-79.68"/>
<polygon fill="midnightblue" stroke="midnightblue" points="310.53,-84.43 301.22,-89.49 311.65,-91.34 310.53,-84.43"/>
</g>
<!-- Node7 -->
<g id="node7" class="node">
<title>Node7</title>
<g id="a_node7"><a xlink:title=" ">
<polygon fill="none" stroke="#bfbfbf" points="184.5,-51.5 184.5,-70.5 298.5,-70.5 298.5,-51.5 184.5,-51.5"/>
<text text-anchor="middle" x="241.5" y="-58.5" font-family="Helvetica,sans-Serif" font-size="10.00">std::vector&lt; treet &gt;</text>
</a>
</g>
</g>
<!-- Node7&#45;&gt;Node5 -->
<g id="edge6" class="edge">
<title>Node7&#45;&gt;Node5</title>
<path fill="none" stroke="#9a32cd" stroke-dasharray="5,2" d="M308.91,-63.02C325.84,-63.53 344.21,-64.09 361.68,-64.62"/>
<polygon fill="#9a32cd" stroke="#9a32cd" points="308.67,-59.51 298.57,-62.7 308.46,-66.51 308.67,-59.51"/>
<text text-anchor="middle" x="331.5" y="-67" font-family="Helvetica,sans-Serif" font-size="10.00"> sub</text>
</g>
<!-- Node8 -->
<g id="node8" class="node">
<title>Node8</title>
<g id="a_node8"><a xlink:title="STL class.">
<polygon fill="none" stroke="#bfbfbf" points="0,-51.5 0,-70.5 97,-70.5 97,-51.5 0,-51.5"/>
<text text-anchor="middle" x="48.5" y="-58.5" font-family="Helvetica,sans-Serif" font-size="10.00">std::vector&lt; T &gt;</text>
</a>
</g>
</g>
<!-- Node8&#45;&gt;Node7 -->
<g id="edge7" class="edge">
<title>Node8&#45;&gt;Node7</title>
<path fill="none" stroke="orange" stroke-dasharray="5,2" d="M107.39,-61C131.77,-61 160.05,-61 184.25,-61"/>
<polygon fill="orange" stroke="orange" points="107.2,-57.5 97.2,-61 107.2,-64.5 107.2,-57.5"/>
<text text-anchor="middle" x="139.5" y="-64" font-family="Helvetica,sans-Serif" font-size="10.00"> &lt; treet &gt;</text>
</g>
<!-- Node10 -->
<g id="node9" class="node">
<title>Node10</title>
<g id="a_node9"><a xlink:href="classdstringt.html" target="_top" xlink:title="dstringt has one field, an unsigned integer no which is an index into a static table of strings.">
<polygon fill="none" stroke="black" points="214.5,-5.5 214.5,-24.5 268.5,-24.5 268.5,-5.5 214.5,-5.5"/>
<text text-anchor="middle" x="241.5" y="-12.5" font-family="Helvetica,sans-Serif" font-size="10.00">dstringt</text>
</a>
</g>
</g>
<!-- Node10&#45;&gt;Node1 -->
<g id="edge11" class="edge">
<title>Node10&#45;&gt;Node1</title>
<path fill="none" stroke="#9a32cd" stroke-dasharray="5,2" d="M278.61,-10.61C318.16,-6.18 383.5,0 440,0 440,0 440,0 1183,0 1253.28,0 1333.72,-6.26 1387.88,-11.4"/>
<polygon fill="#9a32cd" stroke="#9a32cd" points="278.19,-7.13 268.65,-11.75 278.98,-14.09 278.19,-7.13"/>
<text text-anchor="middle" x="984.5" y="-3" font-family="Helvetica,sans-Serif" font-size="10.00"> unboxing_function_name</text>
</g>
<!-- Node10&#45;&gt;Node5 -->
<g id="edge8" class="edge">
<title>Node10&#45;&gt;Node5</title>
<path fill="none" stroke="#9a32cd" stroke-dasharray="5,2" d="M278.48,-24.47C307.6,-32.14 349.16,-43.08 382.84,-51.95"/>
<polygon fill="#9a32cd" stroke="#9a32cd" points="279.29,-21.07 268.73,-21.91 277.51,-27.84 279.29,-21.07"/>
<text text-anchor="middle" x="331.5" y="-44" font-family="Helvetica,sans-Serif" font-size="10.00"> data</text>
</g>
<!-- Node11&#45;&gt;Node4 -->
<g id="edge9" class="edge">
<title>Node11&#45;&gt;Node4</title>
<path fill="none" stroke="orange" stroke-dasharray="5,2" d="M748.17,-47.74C801.71,-48.25 872.08,-48.93 921.88,-49.41"/>
<polygon fill="orange" stroke="orange" points="748.07,-44.24 738.04,-47.64 748,-51.24 748.07,-44.24"/>
<text text-anchor="start" x="756" y="-63" font-family="Helvetica,sans-Serif" font-size="10.00"> &lt; irept, forward_list</text>
<text text-anchor="middle" x="829.5" y="-52" font-family="Helvetica,sans-Serif" font-size="10.00">_as_mapt&lt; irep_idt, irept &gt; &gt;</text>
</g>
</g>
</svg>
