<?xml version="1.0" encoding="UTF-8" standalone="no"?>
<!DOCTYPE svg PUBLIC "-//W3C//DTD SVG 1.1//EN"
 "http://www.w3.org/Graphics/SVG/1.1/DTD/svg11.dtd">
<!-- Generated by graphviz version 2.43.0 (0)
 -->
<!-- Title: /home/runner/work/cbmc/cbmc/src/goto&#45;symex/symex_atomic_section.cpp Pages: 1 -->
<svg width="1524pt" height="789pt"
 viewBox="0.00 0.00 1524.00 789.00" xmlns="http://www.w3.org/2000/svg" xmlns:xlink="http://www.w3.org/1999/xlink">
<g id="graph0" class="graph" transform="scale(1 1) rotate(0) translate(4 785)">
<title>/home/runner/work/cbmc/cbmc/src/goto&#45;symex/symex_atomic_section.cpp</title>
<!-- Node1 -->
<g id="node1" class="node">
<title>Node1</title>
<g id="a_node1"><a xlink:title=" ">
<polygon fill="#bfbfbf" stroke="black" points="1096.5,-739.5 1096.5,-780.5 1257.5,-780.5 1257.5,-739.5 1096.5,-739.5"/>
<text text-anchor="start" x="1104.5" y="-768.5" font-family="Helvetica,sans-Serif" font-size="10.00">/home/runner/work/cbmc</text>
<text text-anchor="start" x="1104.5" y="-757.5" font-family="Helvetica,sans-Serif" font-size="10.00">/cbmc/src/goto&#45;symex/symex</text>
<text text-anchor="middle" x="1177" y="-746.5" font-family="Helvetica,sans-Serif" font-size="10.00">_atomic_section.cpp</text>
</a>
</g>
</g>
<!-- Node2 -->
<g id="node2" class="node">
<title>Node2</title>
<g id="a_node2"><a xlink:href="goto__symex_8h.html" target="_top" xlink:title=" ">
<polygon fill="none" stroke="black" points="1099,-683.5 1099,-702.5 1185,-702.5 1185,-683.5 1099,-683.5"/>
<text text-anchor="middle" x="1142" y="-690.5" font-family="Helvetica,sans-Serif" font-size="10.00">goto_symex.h</text>
</a>
</g>
</g>
<!-- Node1&#45;&gt;Node2 -->
<g id="edge1" class="edge">
<title>Node1&#45;&gt;Node2</title>
<path fill="none" stroke="midnightblue" d="M1166.5,-739.5C1161.7,-730.59 1156.06,-720.11 1151.4,-711.46"/>
<polygon fill="midnightblue" stroke="midnightblue" points="1154.48,-709.8 1146.66,-702.65 1148.32,-713.12 1154.48,-709.8"/>
</g>
<!-- Node42 -->
<g id="node47" class="node">
<title>Node42</title>
<g id="a_node47"><a xlink:href="exception__utils_8h.html" target="_top" xlink:title=" ">
<polygon fill="none" stroke="black" points="1374,-336.5 1374,-355.5 1474,-355.5 1474,-336.5 1374,-336.5"/>
<text text-anchor="middle" x="1424" y="-343.5" font-family="Helvetica,sans-Serif" font-size="10.00">exception_utils.h</text>
</a>
</g>
</g>
<!-- Node1&#45;&gt;Node42 -->
<g id="edge76" class="edge">
<title>Node1&#45;&gt;Node42</title>
<path fill="none" stroke="midnightblue" d="M1192.88,-739.36C1209.74,-716.46 1234,-676.78 1234,-638 1234,-638 1234,-638 1234,-457 1234,-396.05 1308.13,-368.33 1363.78,-356.1"/>
<polygon fill="midnightblue" stroke="midnightblue" points="1364.5,-359.52 1373.58,-354.06 1363.08,-352.67 1364.5,-359.52"/>
</g>
<!-- Node3 -->
<g id="node3" class="node">
<title>Node3</title>
<g id="a_node3"><a xlink:href="src_2util_2message_8h.html" target="_top" xlink:title=" ">
<polygon fill="none" stroke="black" points="1124.5,-336.5 1124.5,-355.5 1213.5,-355.5 1213.5,-336.5 1124.5,-336.5"/>
<text text-anchor="middle" x="1169" y="-343.5" font-family="Helvetica,sans-Serif" font-size="10.00">util/message.h</text>
</a>
</g>
</g>
<!-- Node2&#45;&gt;Node3 -->
<g id="edge2" class="edge">
<title>Node2&#45;&gt;Node3</title>
<path fill="none" stroke="midnightblue" d="M1145.42,-683.47C1152.68,-664.54 1169,-617.48 1169,-576.5 1169,-576.5 1169,-576.5 1169,-457 1169,-424.95 1169,-387.64 1169,-365.75"/>
<polygon fill="midnightblue" stroke="midnightblue" points="1172.5,-365.56 1169,-355.56 1165.5,-365.56 1172.5,-365.56"/>
</g>
<!-- Node32 -->
<g id="node25" class="node">
<title>Node32</title>
<g id="a_node25"><a xlink:href="complexity__limiter_8h.html" target="_top" xlink:title=" ">
<polygon fill="none" stroke="black" points="668.5,-627.5 668.5,-646.5 785.5,-646.5 785.5,-627.5 668.5,-627.5"/>
<text text-anchor="middle" x="727" y="-634.5" font-family="Helvetica,sans-Serif" font-size="10.00">complexity_limiter.h</text>
</a>
</g>
</g>
<!-- Node2&#45;&gt;Node32 -->
<g id="edge35" class="edge">
<title>Node2&#45;&gt;Node32</title>
<path fill="none" stroke="midnightblue" d="M1098.76,-686.37C1026.77,-677.01 881.76,-658.14 795.67,-646.94"/>
<polygon fill="midnightblue" stroke="midnightblue" points="796.1,-643.46 785.73,-645.64 795.19,-650.4 796.1,-643.46"/>
</g>
<!-- Node110 -->
<g id="node46" class="node">
<title>Node110</title>
<g id="a_node46"><a xlink:href="symex__config_8h.html" target="_top" xlink:title=" ">
<polygon fill="none" stroke="black" points="1047.5,-627.5 1047.5,-646.5 1140.5,-646.5 1140.5,-627.5 1047.5,-627.5"/>
<text text-anchor="middle" x="1094" y="-634.5" font-family="Helvetica,sans-Serif" font-size="10.00">symex_config.h</text>
</a>
</g>
</g>
<!-- Node2&#45;&gt;Node110 -->
<g id="edge75" class="edge">
<title>Node2&#45;&gt;Node110</title>
<path fill="none" stroke="midnightblue" d="M1134.07,-683.08C1127.15,-675.3 1116.93,-663.8 1108.55,-654.37"/>
<polygon fill="midnightblue" stroke="midnightblue" points="1111.04,-651.9 1101.78,-646.75 1105.81,-656.55 1111.04,-651.9"/>
</g>
<!-- Node4 -->
<g id="node4" class="node">
<title>Node4</title>
<g id="a_node4"><a xlink:title=" ">
<polygon fill="none" stroke="#bfbfbf" points="999.5,-280.5 999.5,-299.5 1064.5,-299.5 1064.5,-280.5 999.5,-280.5"/>
<text text-anchor="middle" x="1032" y="-287.5" font-family="Helvetica,sans-Serif" font-size="10.00">functional</text>
</a>
</g>
</g>
<!-- Node3&#45;&gt;Node4 -->
<g id="edge3" class="edge">
<title>Node3&#45;&gt;Node4</title>
<path fill="none" stroke="midnightblue" d="M1147.29,-336.44C1124.65,-327.52 1088.93,-313.44 1063.25,-303.32"/>
<polygon fill="midnightblue" stroke="midnightblue" points="1064.19,-299.93 1053.61,-299.52 1061.63,-306.44 1064.19,-299.93"/>
</g>
<!-- Node5 -->
<g id="node5" class="node">
<title>Node5</title>
<g id="a_node5"><a xlink:title=" ">
<polygon fill="none" stroke="#bfbfbf" points="1088,-56.5 1088,-75.5 1136,-75.5 1136,-56.5 1088,-56.5"/>
<text text-anchor="middle" x="1112" y="-63.5" font-family="Helvetica,sans-Serif" font-size="10.00">iosfwd</text>
</a>
</g>
</g>
<!-- Node3&#45;&gt;Node5 -->
<g id="edge4" class="edge">
<title>Node3&#45;&gt;Node5</title>
<path fill="none" stroke="midnightblue" d="M1166.44,-336.25C1161.25,-317.74 1150,-273.18 1150,-235 1150,-235 1150,-235 1150,-177 1150,-142.81 1133.4,-105.76 1122.14,-84.57"/>
<polygon fill="midnightblue" stroke="midnightblue" points="1125.18,-82.83 1117.28,-75.77 1119.05,-86.22 1125.18,-82.83"/>
</g>
<!-- Node6 -->
<g id="node6" class="node">
<title>Node6</title>
<g id="a_node6"><a xlink:title=" ">
<polygon fill="none" stroke="#bfbfbf" points="934,-0.5 934,-19.5 990,-19.5 990,-0.5 934,-0.5"/>
<text text-anchor="middle" x="962" y="-7.5" font-family="Helvetica,sans-Serif" font-size="10.00">sstream</text>
</a>
</g>
</g>
<!-- Node3&#45;&gt;Node6 -->
<g id="edge5" class="edge">
<title>Node3&#45;&gt;Node6</title>
<path fill="none" stroke="midnightblue" d="M1171.56,-336.25C1176.75,-317.74 1188,-273.18 1188,-235 1188,-235 1188,-235 1188,-121 1188,-38.54 1064.84,-17.88 1000.36,-12.71"/>
<polygon fill="midnightblue" stroke="midnightblue" points="1000.39,-9.21 990.17,-11.99 999.89,-16.19 1000.39,-9.21"/>
</g>
<!-- Node7 -->
<g id="node7" class="node">
<title>Node7</title>
<g id="a_node7"><a xlink:title=" ">
<polygon fill="none" stroke="#bfbfbf" points="1109,-0.5 1109,-19.5 1153,-19.5 1153,-0.5 1109,-0.5"/>
<text text-anchor="middle" x="1131" y="-7.5" font-family="Helvetica,sans-Serif" font-size="10.00">string</text>
</a>
</g>
</g>
<!-- Node3&#45;&gt;Node7 -->
<g id="edge6" class="edge">
<title>Node3&#45;&gt;Node7</title>
<path fill="none" stroke="midnightblue" d="M1177.17,-336.38C1192.93,-318.81 1226,-276.94 1226,-235 1226,-235 1226,-235 1226,-121 1226,-90.2 1221.36,-79.95 1202,-56 1191.01,-42.41 1174.77,-31.68 1160.59,-24.12"/>
<polygon fill="midnightblue" stroke="midnightblue" points="1162.15,-20.99 1151.64,-19.61 1158.99,-27.24 1162.15,-20.99"/>
</g>
<!-- Node8 -->
<g id="node8" class="node">
<title>Node8</title>
<g id="a_node8"><a xlink:href="deprecate_8h.html" target="_top" xlink:title=" ">
<polygon fill="none" stroke="black" points="1254,-224.5 1254,-243.5 1328,-243.5 1328,-224.5 1254,-224.5"/>
<text text-anchor="middle" x="1291" y="-231.5" font-family="Helvetica,sans-Serif" font-size="10.00">deprecate.h</text>
</a>
</g>
</g>
<!-- Node3&#45;&gt;Node8 -->
<g id="edge7" class="edge">
<title>Node3&#45;&gt;Node8</title>
<path fill="none" stroke="midnightblue" d="M1185.89,-336.44C1201.02,-328.3 1223.33,-315.07 1240,-300 1255.73,-285.77 1270.31,-266.29 1279.81,-252.38"/>
<polygon fill="midnightblue" stroke="midnightblue" points="1282.91,-254.03 1285.53,-243.76 1277.08,-250.16 1282.91,-254.03"/>
</g>
<!-- Node9 -->
<g id="node9" class="node">
<title>Node9</title>
<g id="a_node9"><a xlink:href="src_2util_2invariant_8h.html" target="_top" xlink:title=" ">
<polygon fill="none" stroke="black" points="755.5,-56.5 755.5,-75.5 824.5,-75.5 824.5,-56.5 755.5,-56.5"/>
<text text-anchor="middle" x="790" y="-63.5" font-family="Helvetica,sans-Serif" font-size="10.00">invariant.h</text>
</a>
</g>
</g>
<!-- Node3&#45;&gt;Node9 -->
<g id="edge8" class="edge">
<title>Node3&#45;&gt;Node9</title>
<path fill="none" stroke="midnightblue" d="M1161.04,-336.23C1130.39,-302.93 1016.08,-182.62 901,-112 878.1,-97.95 850.04,-86.62 827.86,-78.84"/>
<polygon fill="midnightblue" stroke="midnightblue" points="828.72,-75.43 818.12,-75.52 826.46,-82.06 828.72,-75.43"/>
</g>
<!-- Node12 -->
<g id="node12" class="node">
<title>Node12</title>
<g id="a_node12"><a xlink:href="source__location_8h.html" target="_top" xlink:title=" ">
<polygon fill="none" stroke="black" points="1319,-280.5 1319,-299.5 1421,-299.5 1421,-280.5 1319,-280.5"/>
<text text-anchor="middle" x="1370" y="-287.5" font-family="Helvetica,sans-Serif" font-size="10.00">source_location.h</text>
</a>
</g>
</g>
<!-- Node3&#45;&gt;Node12 -->
<g id="edge13" class="edge">
<title>Node3&#45;&gt;Node12</title>
<path fill="none" stroke="midnightblue" d="M1200.85,-336.44C1235.4,-327.16 1290.68,-312.31 1328.58,-302.13"/>
<polygon fill="midnightblue" stroke="midnightblue" points="1329.55,-305.49 1338.3,-299.52 1327.73,-298.73 1329.55,-305.49"/>
</g>
<!-- Node9&#45;&gt;Node6 -->
<g id="edge10" class="edge">
<title>Node9&#45;&gt;Node6</title>
<path fill="none" stroke="midnightblue" d="M817.25,-56.44C846.44,-47.28 892.92,-32.69 925.31,-22.52"/>
<polygon fill="midnightblue" stroke="midnightblue" points="926.38,-25.85 934.87,-19.52 924.28,-19.17 926.38,-25.85"/>
</g>
<!-- Node9&#45;&gt;Node7 -->
<g id="edge11" class="edge">
<title>Node9&#45;&gt;Node7</title>
<path fill="none" stroke="midnightblue" d="M824.57,-59.53C890.82,-49.04 1034.73,-26.24 1098.95,-16.08"/>
<polygon fill="midnightblue" stroke="midnightblue" points="1099.57,-19.52 1108.9,-14.5 1098.48,-12.61 1099.57,-19.52"/>
</g>
<!-- Node10 -->
<g id="node10" class="node">
<title>Node10</title>
<g id="a_node10"><a xlink:title=" ">
<polygon fill="none" stroke="#bfbfbf" points="765.5,-0.5 765.5,-19.5 814.5,-19.5 814.5,-0.5 765.5,-0.5"/>
<text text-anchor="middle" x="790" y="-7.5" font-family="Helvetica,sans-Serif" font-size="10.00">cstdlib</text>
</a>
</g>
</g>
<!-- Node9&#45;&gt;Node10 -->
<g id="edge9" class="edge">
<title>Node9&#45;&gt;Node10</title>
<path fill="none" stroke="midnightblue" d="M790,-56.08C790,-49.01 790,-38.86 790,-29.99"/>
<polygon fill="midnightblue" stroke="midnightblue" points="793.5,-29.75 790,-19.75 786.5,-29.75 793.5,-29.75"/>
</g>
<!-- Node11 -->
<g id="node11" class="node">
<title>Node11</title>
<g id="a_node11"><a xlink:title=" ">
<polygon fill="none" stroke="#bfbfbf" points="608.5,-0.5 608.5,-19.5 677.5,-19.5 677.5,-0.5 608.5,-0.5"/>
<text text-anchor="middle" x="643" y="-7.5" font-family="Helvetica,sans-Serif" font-size="10.00">type_traits</text>
</a>
</g>
</g>
<!-- Node9&#45;&gt;Node11 -->
<g id="edge12" class="edge">
<title>Node9&#45;&gt;Node11</title>
<path fill="none" stroke="midnightblue" d="M766.71,-56.44C742.19,-47.44 703.4,-33.19 675.8,-23.05"/>
<polygon fill="midnightblue" stroke="midnightblue" points="676.78,-19.68 666.18,-19.52 674.36,-26.25 676.78,-19.68"/>
</g>
<!-- Node12&#45;&gt;Node7 -->
<g id="edge34" class="edge">
<title>Node12&#45;&gt;Node7</title>
<path fill="none" stroke="midnightblue" d="M1383.65,-280.25C1395.2,-272.17 1411.37,-259.15 1421,-244 1437.14,-218.6 1440,-209.1 1440,-179 1440,-179 1440,-179 1440,-121 1440,-62.69 1242.23,-27.27 1163.13,-15.44"/>
<polygon fill="midnightblue" stroke="midnightblue" points="1163.62,-11.98 1153.22,-13.99 1162.61,-18.9 1163.62,-11.98"/>
</g>
<!-- Node12&#45;&gt;Node8 -->
<g id="edge14" class="edge">
<title>Node12&#45;&gt;Node8</title>
<path fill="none" stroke="midnightblue" d="M1357.31,-280.32C1345.1,-271.98 1326.42,-259.21 1312,-249.35"/>
<polygon fill="midnightblue" stroke="midnightblue" points="1313.89,-246.41 1303.66,-243.65 1309.94,-252.19 1313.89,-246.41"/>
</g>
<!-- Node13 -->
<g id="node13" class="node">
<title>Node13</title>
<g id="a_node13"><a xlink:href="irep_8h.html" target="_top" xlink:title=" ">
<polygon fill="none" stroke="black" points="805,-224.5 805,-243.5 849,-243.5 849,-224.5 805,-224.5"/>
<text text-anchor="middle" x="827" y="-231.5" font-family="Helvetica,sans-Serif" font-size="10.00">irep.h</text>
</a>
</g>
</g>
<!-- Node12&#45;&gt;Node13 -->
<g id="edge15" class="edge">
<title>Node12&#45;&gt;Node13</title>
<path fill="none" stroke="midnightblue" d="M1318.92,-283.92C1208.45,-272.93 949.99,-247.23 859.21,-238.2"/>
<polygon fill="midnightblue" stroke="midnightblue" points="859.54,-234.72 849.24,-237.21 858.84,-241.68 859.54,-234.72"/>
</g>
<!-- Node30 -->
<g id="node23" class="node">
<title>Node30</title>
<g id="a_node23"><a xlink:href="optional_8h.html" target="_top" xlink:title=" ">
<polygon fill="none" stroke="black" points="1346.5,-224.5 1346.5,-243.5 1411.5,-243.5 1411.5,-224.5 1346.5,-224.5"/>
<text text-anchor="middle" x="1379" y="-231.5" font-family="Helvetica,sans-Serif" font-size="10.00">optional.h</text>
</a>
</g>
</g>
<!-- Node12&#45;&gt;Node30 -->
<g id="edge32" class="edge">
<title>Node12&#45;&gt;Node30</title>
<path fill="none" stroke="midnightblue" d="M1371.49,-280.08C1372.68,-272.93 1374.39,-262.64 1375.88,-253.69"/>
<polygon fill="midnightblue" stroke="midnightblue" points="1379.35,-254.19 1377.54,-243.75 1372.45,-253.04 1379.35,-254.19"/>
</g>
<!-- Node13&#45;&gt;Node7 -->
<g id="edge16" class="edge">
<title>Node13&#45;&gt;Node7</title>
<path fill="none" stroke="midnightblue" d="M849.38,-228.27C876.3,-221.92 922.22,-208.95 957,-188 1025.43,-146.78 1023.34,-113.3 1079,-56 1089.27,-45.43 1101.72,-34.59 1111.87,-26.2"/>
<polygon fill="midnightblue" stroke="midnightblue" points="1114.2,-28.81 1119.75,-19.79 1109.79,-23.38 1114.2,-28.81"/>
</g>
<!-- Node13&#45;&gt;Node9 -->
<g id="edge18" class="edge">
<title>Node13&#45;&gt;Node9</title>
<path fill="none" stroke="midnightblue" d="M823.08,-224.21C819.24,-215.26 813.47,-200.9 810,-188 800.46,-152.48 794.69,-109.81 791.94,-85.8"/>
<polygon fill="midnightblue" stroke="midnightblue" points="795.4,-85.19 790.83,-75.63 788.44,-85.95 795.4,-85.19"/>
</g>
<!-- Node14 -->
<g id="node14" class="node">
<title>Node14</title>
<g id="a_node14"><a xlink:title=" ">
<polygon fill="none" stroke="#bfbfbf" points="818.5,-168.5 818.5,-187.5 865.5,-187.5 865.5,-168.5 818.5,-168.5"/>
<text text-anchor="middle" x="842" y="-175.5" font-family="Helvetica,sans-Serif" font-size="10.00">vector</text>
</a>
</g>
</g>
<!-- Node13&#45;&gt;Node14 -->
<g id="edge17" class="edge">
<title>Node13&#45;&gt;Node14</title>
<path fill="none" stroke="midnightblue" d="M829.48,-224.08C831.49,-216.85 834.39,-206.41 836.89,-197.4"/>
<polygon fill="midnightblue" stroke="midnightblue" points="840.26,-198.32 839.57,-187.75 833.52,-196.45 840.26,-198.32"/>
</g>
<!-- Node15 -->
<g id="node15" class="node">
<title>Node15</title>
<g id="a_node15"><a xlink:href="irep__ids_8h.html" target="_top" xlink:title=" ">
<polygon fill="none" stroke="black" points="884,-168.5 884,-187.5 948,-187.5 948,-168.5 884,-168.5"/>
<text text-anchor="middle" x="916" y="-175.5" font-family="Helvetica,sans-Serif" font-size="10.00">irep_ids.h</text>
</a>
</g>
</g>
<!-- Node13&#45;&gt;Node15 -->
<g id="edge19" class="edge">
<title>Node13&#45;&gt;Node15</title>
<path fill="none" stroke="midnightblue" d="M841.3,-224.32C855.18,-215.9 876.49,-202.97 892.8,-193.07"/>
<polygon fill="midnightblue" stroke="midnightblue" points="895,-195.83 901.74,-187.65 891.37,-189.85 895,-195.83"/>
</g>
<!-- Node25 -->
<g id="node18" class="node">
<title>Node25</title>
<g id="a_node18"><a xlink:href="forward__list__as__map_8h.html" target="_top" xlink:title=" ">
<polygon fill="none" stroke="black" points="634.5,-168.5 634.5,-187.5 761.5,-187.5 761.5,-168.5 634.5,-168.5"/>
<text text-anchor="middle" x="698" y="-175.5" font-family="Helvetica,sans-Serif" font-size="10.00">forward_list_as_map.h</text>
</a>
</g>
</g>
<!-- Node13&#45;&gt;Node25 -->
<g id="edge25" class="edge">
<title>Node13&#45;&gt;Node25</title>
<path fill="none" stroke="midnightblue" d="M806.56,-224.44C785.33,-215.56 751.9,-201.56 727.75,-191.45"/>
<polygon fill="midnightblue" stroke="midnightblue" points="728.92,-188.15 718.34,-187.52 726.22,-194.61 728.92,-188.15"/>
</g>
<!-- Node16 -->
<g id="node16" class="node">
<title>Node16</title>
<g id="a_node16"><a xlink:href="dstring_8h.html" target="_top" xlink:title=" ">
<polygon fill="none" stroke="red" points="948.5,-112.5 948.5,-131.5 1007.5,-131.5 1007.5,-112.5 948.5,-112.5"/>
<text text-anchor="middle" x="978" y="-119.5" font-family="Helvetica,sans-Serif" font-size="10.00">dstring.h</text>
</a>
</g>
</g>
<!-- Node15&#45;&gt;Node16 -->
<g id="edge20" class="edge">
<title>Node15&#45;&gt;Node16</title>
<path fill="none" stroke="midnightblue" d="M925.96,-168.32C935.13,-160.34 948.94,-148.31 960.03,-138.65"/>
<polygon fill="midnightblue" stroke="midnightblue" points="962.62,-141.04 967.86,-131.83 958.02,-135.76 962.62,-141.04"/>
</g>
<!-- Node24 -->
<g id="node17" class="node">
<title>Node24</title>
<g id="a_node17"><a xlink:title=" ">
<polygon fill="none" stroke="#bfbfbf" points="818,-112.5 818,-131.5 892,-131.5 892,-112.5 818,-112.5"/>
<text text-anchor="middle" x="855" y="-119.5" font-family="Helvetica,sans-Serif" font-size="10.00">irep_ids.def</text>
</a>
</g>
</g>
<!-- Node15&#45;&gt;Node24 -->
<g id="edge24" class="edge">
<title>Node15&#45;&gt;Node24</title>
<path fill="none" stroke="midnightblue" d="M906.2,-168.32C897.18,-160.34 883.59,-148.31 872.68,-138.65"/>
<polygon fill="midnightblue" stroke="midnightblue" points="874.79,-135.84 864.98,-131.83 870.15,-141.08 874.79,-135.84"/>
</g>
<!-- Node16&#45;&gt;Node5 -->
<g id="edge21" class="edge">
<title>Node16&#45;&gt;Node5</title>
<path fill="none" stroke="midnightblue" d="M999.23,-112.44C1021.38,-103.52 1056.32,-89.44 1081.44,-79.32"/>
<polygon fill="midnightblue" stroke="midnightblue" points="1082.9,-82.5 1090.87,-75.52 1080.28,-76.01 1082.9,-82.5"/>
</g>
<!-- Node16&#45;&gt;Node7 -->
<g id="edge22" class="edge">
<title>Node16&#45;&gt;Node7</title>
<path fill="none" stroke="midnightblue" d="M981.87,-112.23C988.33,-98.49 1002.56,-71.84 1022,-56 1044.68,-37.53 1075.99,-25.66 1099.23,-18.77"/>
<polygon fill="midnightblue" stroke="midnightblue" points="1100.29,-22.11 1108.97,-16.04 1098.4,-15.37 1100.29,-22.11"/>
</g>
<!-- Node16&#45;&gt;Node9 -->
<g id="edge23" class="edge">
<title>Node16&#45;&gt;Node9</title>
<path fill="none" stroke="midnightblue" d="M948.21,-112.44C916.17,-103.24 865.07,-88.56 829.65,-78.39"/>
<polygon fill="midnightblue" stroke="midnightblue" points="830.23,-74.91 819.65,-75.52 828.29,-81.64 830.23,-74.91"/>
</g>
<!-- Node26 -->
<g id="node19" class="node">
<title>Node26</title>
<g id="a_node19"><a xlink:title=" ">
<polygon fill="none" stroke="#bfbfbf" points="520,-112.5 520,-131.5 584,-131.5 584,-112.5 520,-112.5"/>
<text text-anchor="middle" x="552" y="-119.5" font-family="Helvetica,sans-Serif" font-size="10.00">algorithm</text>
</a>
</g>
</g>
<!-- Node25&#45;&gt;Node26 -->
<g id="edge26" class="edge">
<title>Node25&#45;&gt;Node26</title>
<path fill="none" stroke="midnightblue" d="M674.87,-168.44C650.52,-159.44 611.99,-145.19 584.58,-135.05"/>
<polygon fill="midnightblue" stroke="midnightblue" points="585.62,-131.7 575.03,-131.52 583.19,-138.27 585.62,-131.7"/>
</g>
<!-- Node27 -->
<g id="node20" class="node">
<title>Node27</title>
<g id="a_node20"><a xlink:title=" ">
<polygon fill="none" stroke="#bfbfbf" points="602,-112.5 602,-131.5 676,-131.5 676,-112.5 602,-112.5"/>
<text text-anchor="middle" x="639" y="-119.5" font-family="Helvetica,sans-Serif" font-size="10.00">forward_list</text>
</a>
</g>
</g>
<!-- Node25&#45;&gt;Node27 -->
<g id="edge27" class="edge">
<title>Node25&#45;&gt;Node27</title>
<path fill="none" stroke="midnightblue" d="M688.52,-168.32C679.8,-160.34 666.66,-148.31 656.1,-138.65"/>
<polygon fill="midnightblue" stroke="midnightblue" points="658.39,-136 648.65,-131.83 653.67,-141.17 658.39,-136"/>
</g>
<!-- Node28 -->
<g id="node21" class="node">
<title>Node28</title>
<g id="a_node21"><a xlink:href="as__const_8h.html" target="_top" xlink:title=" ">
<polygon fill="none" stroke="black" points="694,-112.5 694,-131.5 762,-131.5 762,-112.5 694,-112.5"/>
<text text-anchor="middle" x="728" y="-119.5" font-family="Helvetica,sans-Serif" font-size="10.00">as_const.h</text>
</a>
</g>
</g>
<!-- Node25&#45;&gt;Node28 -->
<g id="edge28" class="edge">
<title>Node25&#45;&gt;Node28</title>
<path fill="none" stroke="midnightblue" d="M702.95,-168.08C707.1,-160.61 713.15,-149.72 718.27,-140.52"/>
<polygon fill="midnightblue" stroke="midnightblue" points="721.34,-142.19 723.14,-131.75 715.22,-138.79 721.34,-142.19"/>
</g>
<!-- Node29 -->
<g id="node22" class="node">
<title>Node29</title>
<g id="a_node22"><a xlink:href="narrow_8h.html" target="_top" xlink:title=" ">
<polygon fill="none" stroke="black" points="404.5,-112.5 404.5,-131.5 463.5,-131.5 463.5,-112.5 404.5,-112.5"/>
<text text-anchor="middle" x="434" y="-119.5" font-family="Helvetica,sans-Serif" font-size="10.00">narrow.h</text>
</a>
</g>
</g>
<!-- Node25&#45;&gt;Node29 -->
<g id="edge29" class="edge">
<title>Node25&#45;&gt;Node29</title>
<path fill="none" stroke="midnightblue" d="M656.17,-168.44C606.08,-158.2 522.82,-141.17 473.7,-131.12"/>
<polygon fill="midnightblue" stroke="midnightblue" points="474.25,-127.66 463.76,-129.09 472.85,-134.52 474.25,-127.66"/>
</g>
<!-- Node29&#45;&gt;Node9 -->
<g id="edge31" class="edge">
<title>Node29&#45;&gt;Node9</title>
<path fill="none" stroke="midnightblue" d="M463.78,-114.66C468.53,-113.72 473.39,-112.8 478,-112 572.8,-95.48 684.56,-80.43 745.26,-72.62"/>
<polygon fill="midnightblue" stroke="midnightblue" points="745.79,-76.08 755.27,-71.33 744.9,-69.13 745.79,-76.08"/>
</g>
<!-- Node29&#45;&gt;Node11 -->
<g id="edge30" class="edge">
<title>Node29&#45;&gt;Node11</title>
<path fill="none" stroke="midnightblue" d="M450.4,-112.37C486.72,-93.25 574.16,-47.23 617.61,-24.36"/>
<polygon fill="midnightblue" stroke="midnightblue" points="619.46,-27.35 626.68,-19.59 616.2,-21.15 619.46,-27.35"/>
</g>
<!-- Node31 -->
<g id="node24" class="node">
<title>Node31</title>
<g id="a_node24"><a xlink:title=" ">
<polygon fill="none" stroke="#bfbfbf" points="1260.5,-168.5 1260.5,-187.5 1373.5,-187.5 1373.5,-168.5 1260.5,-168.5"/>
<text text-anchor="middle" x="1317" y="-175.5" font-family="Helvetica,sans-Serif" font-size="10.00">nonstd/optional.hpp</text>
</a>
</g>
</g>
<!-- Node30&#45;&gt;Node31 -->
<g id="edge33" class="edge">
<title>Node30&#45;&gt;Node31</title>
<path fill="none" stroke="midnightblue" d="M1369.04,-224.32C1359.87,-216.34 1346.06,-204.31 1334.97,-194.65"/>
<polygon fill="midnightblue" stroke="midnightblue" points="1336.98,-191.76 1327.14,-187.83 1332.38,-197.04 1336.98,-191.76"/>
</g>
<!-- Node33 -->
<g id="node26" class="node">
<title>Node33</title>
<g id="a_node26"><a xlink:href="complexity__violation_8h.html" target="_top" xlink:title=" ">
<polygon fill="none" stroke="black" points="615,-504.5 615,-523.5 743,-523.5 743,-504.5 615,-504.5"/>
<text text-anchor="middle" x="679" y="-511.5" font-family="Helvetica,sans-Serif" font-size="10.00">complexity_violation.h</text>
</a>
</g>
</g>
<!-- Node32&#45;&gt;Node33 -->
<g id="edge36" class="edge">
<title>Node32&#45;&gt;Node33</title>
<path fill="none" stroke="midnightblue" d="M725.58,-627.29C723.05,-612.86 717.04,-583.3 707,-560 702.77,-550.18 696.6,-540 691.14,-531.81"/>
<polygon fill="midnightblue" stroke="midnightblue" points="693.98,-529.76 685.4,-523.53 688.22,-533.75 693.98,-529.76"/>
</g>
<!-- Node34 -->
<g id="node27" class="node">
<title>Node34</title>
<g id="a_node27"><a xlink:href="symex__complexity__limit__exceeded__action_8h.html" target="_top" xlink:title=" ">
<polygon fill="none" stroke="black" points="561.5,-560.5 561.5,-590.5 698.5,-590.5 698.5,-560.5 561.5,-560.5"/>
<text text-anchor="start" x="569.5" y="-578.5" font-family="Helvetica,sans-Serif" font-size="10.00">symex_complexity_limit</text>
<text text-anchor="middle" x="630" y="-567.5" font-family="Helvetica,sans-Serif" font-size="10.00">_exceeded_action.h</text>
</a>
</g>
</g>
<!-- Node32&#45;&gt;Node34 -->
<g id="edge37" class="edge">
<title>Node32&#45;&gt;Node34</title>
<path fill="none" stroke="midnightblue" d="M713.1,-627.48C699.72,-619.27 679,-606.56 661.6,-595.88"/>
<polygon fill="midnightblue" stroke="midnightblue" points="663.22,-592.77 652.86,-590.52 659.56,-598.74 663.22,-592.77"/>
</g>
<!-- Node34&#45;&gt;Node33 -->
<g id="edge38" class="edge">
<title>Node34&#45;&gt;Node33</title>
<path fill="none" stroke="midnightblue" d="M641.61,-560.4C648.73,-551.75 657.88,-540.64 665.35,-531.58"/>
<polygon fill="midnightblue" stroke="midnightblue" points="668.21,-533.6 671.87,-523.66 662.81,-529.15 668.21,-533.6"/>
</g>
<!-- Node35 -->
<g id="node28" class="node">
<title>Node35</title>
<g id="a_node28"><a xlink:href="goto__symex__state_8h.html" target="_top" xlink:title=" ">
<polygon fill="none" stroke="black" points="256,-504.5 256,-523.5 372,-523.5 372,-504.5 256,-504.5"/>
<text text-anchor="middle" x="314" y="-511.5" font-family="Helvetica,sans-Serif" font-size="10.00">goto_symex_state.h</text>
</a>
</g>
</g>
<!-- Node34&#45;&gt;Node35 -->
<g id="edge39" class="edge">
<title>Node34&#45;&gt;Node35</title>
<path fill="none" stroke="midnightblue" d="M561.43,-561.59C503.96,-550.77 422.96,-535.52 369.5,-525.45"/>
<polygon fill="midnightblue" stroke="midnightblue" points="369.99,-521.98 359.52,-523.57 368.7,-528.86 369.99,-521.98"/>
</g>
<!-- Node35&#45;&gt;Node4 -->
<g id="edge40" class="edge">
<title>Node35&#45;&gt;Node4</title>
<path fill="none" stroke="midnightblue" d="M372.08,-513.74C496.39,-512.5 792.53,-494.1 985,-356 1002.1,-343.73 1015.39,-323.3 1023.41,-308.61"/>
<polygon fill="midnightblue" stroke="midnightblue" points="1026.62,-310.03 1028.1,-299.53 1020.4,-306.81 1026.62,-310.03"/>
</g>
<!-- Node35&#45;&gt;Node9 -->
<g id="edge44" class="edge">
<title>Node35&#45;&gt;Node9</title>
<path fill="none" stroke="midnightblue" d="M292.08,-504.39C257.96,-489.37 196,-454.95 196,-403 196,-403 196,-403 196,-345 196,-208.82 271.34,-169.04 395,-112 456.42,-83.67 655.31,-72.34 745.18,-68.59"/>
<polygon fill="midnightblue" stroke="midnightblue" points="745.48,-72.08 755.33,-68.18 745.2,-65.09 745.48,-72.08"/>
</g>
<!-- Node36 -->
<g id="node29" class="node">
<title>Node36</title>
<g id="a_node29"><a xlink:title=" ">
<polygon fill="none" stroke="#bfbfbf" points="72,-448.5 72,-467.5 130,-467.5 130,-448.5 72,-448.5"/>
<text text-anchor="middle" x="101" y="-455.5" font-family="Helvetica,sans-Serif" font-size="10.00">memory</text>
</a>
</g>
</g>
<!-- Node35&#45;&gt;Node36 -->
<g id="edge41" class="edge">
<title>Node35&#45;&gt;Node36</title>
<path fill="none" stroke="midnightblue" d="M280.25,-504.44C242.08,-494.77 180.02,-479.03 139.85,-468.85"/>
<polygon fill="midnightblue" stroke="midnightblue" points="140.7,-465.45 130.14,-466.39 138.98,-472.24 140.7,-465.45"/>
</g>
<!-- Node37 -->
<g id="node30" class="node">
<title>Node37</title>
<g id="a_node30"><a xlink:href="guard_8h.html" target="_top" xlink:title=" ">
<polygon fill="none" stroke="black" points="0,-280.5 0,-299.5 100,-299.5 100,-280.5 0,-280.5"/>
<text text-anchor="middle" x="50" y="-287.5" font-family="Helvetica,sans-Serif" font-size="10.00">analyses/guard.h</text>
</a>
</g>
</g>
<!-- Node35&#45;&gt;Node37 -->
<g id="edge42" class="edge">
<title>Node35&#45;&gt;Node37</title>
<path fill="none" stroke="midnightblue" d="M256,-510.61C190.01,-506.56 88.11,-495.87 63,-468 23.17,-423.8 36.03,-345.57 44.76,-309.8"/>
<polygon fill="midnightblue" stroke="midnightblue" points="48.23,-310.33 47.37,-299.77 41.46,-308.57 48.23,-310.33"/>
</g>
<!-- Node46 -->
<g id="node32" class="node">
<title>Node46</title>
<g id="a_node32"><a xlink:href="nodiscard_8h.html" target="_top" xlink:title=" ">
<polygon fill="none" stroke="black" points="300,-392.5 300,-411.5 392,-411.5 392,-392.5 300,-392.5"/>
<text text-anchor="middle" x="346" y="-399.5" font-family="Helvetica,sans-Serif" font-size="10.00">util/nodiscard.h</text>
</a>
</g>
</g>
<!-- Node35&#45;&gt;Node46 -->
<g id="edge45" class="edge">
<title>Node35&#45;&gt;Node46</title>
<path fill="none" stroke="midnightblue" d="M316.51,-504.37C321.7,-486.54 333.7,-445.3 340.68,-421.27"/>
<polygon fill="midnightblue" stroke="midnightblue" points="344.07,-422.17 343.5,-411.59 337.35,-420.22 344.07,-422.17"/>
</g>
<!-- Node47 -->
<g id="node33" class="node">
<title>Node47</title>
<g id="a_node33"><a xlink:href="ssa__expr_8h.html" target="_top" xlink:title=" ">
<polygon fill="none" stroke="black" points="224.5,-280.5 224.5,-299.5 311.5,-299.5 311.5,-280.5 224.5,-280.5"/>
<text text-anchor="middle" x="268" y="-287.5" font-family="Helvetica,sans-Serif" font-size="10.00">util/ssa_expr.h</text>
</a>
</g>
</g>
<!-- Node35&#45;&gt;Node47 -->
<g id="edge46" class="edge">
<title>Node35&#45;&gt;Node47</title>
<path fill="none" stroke="midnightblue" d="M309.05,-504.17C296.33,-480.88 262.81,-415.43 253,-356 250.38,-340.11 255.03,-322.3 259.83,-309.35"/>
<polygon fill="midnightblue" stroke="midnightblue" points="263.2,-310.34 263.74,-299.76 256.72,-307.7 263.2,-310.34"/>
</g>
<!-- Node48 -->
<g id="node34" class="node">
<title>Node48</title>
<g id="a_node34"><a xlink:href="std__expr_8h.html" target="_top" xlink:title=" ">
<polygon fill="none" stroke="red" points="119.5,-224.5 119.5,-243.5 186.5,-243.5 186.5,-224.5 119.5,-224.5"/>
<text text-anchor="middle" x="153" y="-231.5" font-family="Helvetica,sans-Serif" font-size="10.00">std_expr.h</text>
</a>
</g>
</g>
<!-- Node35&#45;&gt;Node48 -->
<g id="edge49" class="edge">
<title>Node35&#45;&gt;Node48</title>
<path fill="none" stroke="midnightblue" d="M255.79,-504.69C230.35,-498.4 201.85,-487.35 182,-468 159.95,-446.5 158,-433.8 158,-403 158,-403 158,-403 158,-345 158,-312.91 155.85,-275.62 154.37,-253.74"/>
<polygon fill="midnightblue" stroke="midnightblue" points="157.85,-253.28 153.65,-243.55 150.86,-253.77 157.85,-253.28"/>
</g>
<!-- Node54 -->
<g id="node35" class="node">
<title>Node54</title>
<g id="a_node35"><a xlink:href="call__stack_8h.html" target="_top" xlink:title=" ">
<polygon fill="none" stroke="black" points="469,-448.5 469,-467.5 543,-467.5 543,-448.5 469,-448.5"/>
<text text-anchor="middle" x="506" y="-455.5" font-family="Helvetica,sans-Serif" font-size="10.00">call_stack.h</text>
</a>
</g>
</g>
<!-- Node35&#45;&gt;Node54 -->
<g id="edge50" class="edge">
<title>Node35&#45;&gt;Node54</title>
<path fill="none" stroke="midnightblue" d="M344.42,-504.44C377.28,-495.2 429.78,-480.44 465.97,-470.26"/>
<polygon fill="midnightblue" stroke="midnightblue" points="467.04,-473.59 475.72,-467.52 465.15,-466.85 467.04,-473.59"/>
</g>
<!-- Node56 -->
<g id="node37" class="node">
<title>Node56</title>
<g id="a_node37"><a xlink:href="goto__state_8h.html" target="_top" xlink:title=" ">
<polygon fill="none" stroke="red" points="262.5,-336.5 262.5,-355.5 339.5,-355.5 339.5,-336.5 262.5,-336.5"/>
<text text-anchor="middle" x="301" y="-343.5" font-family="Helvetica,sans-Serif" font-size="10.00">goto_state.h</text>
</a>
</g>
</g>
<!-- Node35&#45;&gt;Node56 -->
<g id="edge60" class="edge">
<title>Node35&#45;&gt;Node56</title>
<path fill="none" stroke="midnightblue" d="M310.51,-504.27C303,-484.45 286.33,-434.51 291,-392 291.97,-383.14 293.99,-373.47 295.96,-365.38"/>
<polygon fill="midnightblue" stroke="midnightblue" points="299.39,-366.09 298.52,-355.53 292.62,-364.33 299.39,-366.09"/>
</g>
<!-- Node86 -->
<g id="node38" class="node">
<title>Node86</title>
<g id="a_node38"><a xlink:href="renaming__level_8h.html" target="_top" xlink:title=" ">
<polygon fill="none" stroke="red" points="761.5,-280.5 761.5,-299.5 862.5,-299.5 862.5,-280.5 761.5,-280.5"/>
<text text-anchor="middle" x="812" y="-287.5" font-family="Helvetica,sans-Serif" font-size="10.00">renaming_level.h</text>
</a>
</g>
</g>
<!-- Node35&#45;&gt;Node86 -->
<g id="edge61" class="edge">
<title>Node35&#45;&gt;Node86</title>
<path fill="none" stroke="midnightblue" d="M372.03,-507.62C426.8,-501.52 510.77,-489.5 581,-468 638.43,-450.42 651.13,-440.5 704,-412 745.14,-389.82 764.84,-393.3 793,-356 803.17,-342.53 807.91,-323.71 810.11,-309.79"/>
<polygon fill="midnightblue" stroke="midnightblue" points="813.58,-310.24 811.39,-299.87 806.64,-309.35 813.58,-310.24"/>
</g>
<!-- Node104 -->
<g id="node40" class="node">
<title>Node104</title>
<g id="a_node40"><a xlink:href="field__sensitivity_8h.html" target="_top" xlink:title=" ">
<polygon fill="none" stroke="black" points="342.5,-448.5 342.5,-467.5 443.5,-467.5 443.5,-448.5 342.5,-448.5"/>
<text text-anchor="middle" x="393" y="-455.5" font-family="Helvetica,sans-Serif" font-size="10.00">field_sensitivity.h</text>
</a>
</g>
</g>
<!-- Node35&#45;&gt;Node104 -->
<g id="edge57" class="edge">
<title>Node35&#45;&gt;Node104</title>
<path fill="none" stroke="midnightblue" d="M326.69,-504.32C338.9,-495.98 357.58,-483.21 372,-473.35"/>
<polygon fill="midnightblue" stroke="midnightblue" points="374.06,-476.19 380.34,-467.65 370.11,-470.41 374.06,-476.19"/>
</g>
<!-- Node105 -->
<g id="node42" class="node">
<title>Node105</title>
<g id="a_node42"><a xlink:href="symex__target__equation_8h.html" target="_top" xlink:title=" ">
<polygon fill="none" stroke="black" points="554.5,-392.5 554.5,-411.5 695.5,-411.5 695.5,-392.5 554.5,-392.5"/>
<text text-anchor="middle" x="625" y="-399.5" font-family="Helvetica,sans-Serif" font-size="10.00">symex_target_equation.h</text>
</a>
</g>
</g>
<!-- Node35&#45;&gt;Node105 -->
<g id="edge62" class="edge">
<title>Node35&#45;&gt;Node105</title>
<path fill="none" stroke="midnightblue" d="M372.02,-510.68C421.98,-506.72 494.83,-496.12 552,-468 575.9,-456.24 597.93,-434.47 611.4,-419.39"/>
<polygon fill="midnightblue" stroke="midnightblue" points="614.07,-421.65 617.96,-411.8 608.78,-417.07 614.07,-421.65"/>
</g>
<!-- Node38 -->
<g id="node31" class="node">
<title>Node38</title>
<g id="a_node31"><a xlink:href="guard__expr_8h.html" target="_top" xlink:title=" ">
<polygon fill="none" stroke="red" points="10,-224.5 10,-243.5 90,-243.5 90,-224.5 10,-224.5"/>
<text text-anchor="middle" x="50" y="-231.5" font-family="Helvetica,sans-Serif" font-size="10.00">guard_expr.h</text>
</a>
</g>
</g>
<!-- Node37&#45;&gt;Node38 -->
<g id="edge43" class="edge">
<title>Node37&#45;&gt;Node38</title>
<path fill="none" stroke="midnightblue" d="M50,-280.08C50,-273.01 50,-262.86 50,-253.99"/>
<polygon fill="midnightblue" stroke="midnightblue" points="53.5,-253.75 50,-243.75 46.5,-253.75 53.5,-253.75"/>
</g>
<!-- Node47&#45;&gt;Node48 -->
<g id="edge47" class="edge">
<title>Node47&#45;&gt;Node48</title>
<path fill="none" stroke="midnightblue" d="M249.78,-280.44C231.1,-271.68 201.84,-257.94 180.38,-247.86"/>
<polygon fill="midnightblue" stroke="midnightblue" points="181.68,-244.6 171.14,-243.52 178.7,-250.93 181.68,-244.6"/>
</g>
<!-- Node48&#45;&gt;Node9 -->
<g id="edge48" class="edge">
<title>Node48&#45;&gt;Node9</title>
<path fill="none" stroke="midnightblue" d="M153.46,-224.45C155.2,-201.73 163.33,-139.74 201,-112 244.52,-79.96 615.71,-70.17 745.45,-67.72"/>
<polygon fill="midnightblue" stroke="midnightblue" points="745.52,-71.22 755.45,-67.53 745.39,-64.22 745.52,-71.22"/>
</g>
<!-- Node55 -->
<g id="node36" class="node">
<title>Node55</title>
<g id="a_node36"><a xlink:href="frame_8h.html" target="_top" xlink:title=" ">
<polygon fill="none" stroke="red" points="481.5,-392.5 481.5,-411.5 536.5,-411.5 536.5,-392.5 481.5,-392.5"/>
<text text-anchor="middle" x="509" y="-399.5" font-family="Helvetica,sans-Serif" font-size="10.00">frame.h</text>
</a>
</g>
</g>
<!-- Node54&#45;&gt;Node55 -->
<g id="edge51" class="edge">
<title>Node54&#45;&gt;Node55</title>
<path fill="none" stroke="midnightblue" d="M506.5,-448.08C506.89,-441.01 507.45,-430.86 507.95,-421.99"/>
<polygon fill="midnightblue" stroke="midnightblue" points="511.45,-421.93 508.51,-411.75 504.46,-421.54 511.45,-421.93"/>
</g>
<!-- Node55&#45;&gt;Node56 -->
<g id="edge52" class="edge">
<title>Node55&#45;&gt;Node56</title>
<path fill="none" stroke="midnightblue" d="M481.38,-393.83C446.16,-384.69 384.89,-368.78 343.65,-358.07"/>
<polygon fill="midnightblue" stroke="midnightblue" points="344.44,-354.66 333.88,-355.54 342.68,-361.44 344.44,-354.66"/>
</g>
<!-- Node92 -->
<g id="node39" class="node">
<title>Node92</title>
<g id="a_node39"><a xlink:href="symex__target_8h.html" target="_top" xlink:title=" ">
<polygon fill="none" stroke="red" points="407.5,-280.5 407.5,-299.5 500.5,-299.5 500.5,-280.5 407.5,-280.5"/>
<text text-anchor="middle" x="454" y="-287.5" font-family="Helvetica,sans-Serif" font-size="10.00">symex_target.h</text>
</a>
</g>
</g>
<!-- Node55&#45;&gt;Node92 -->
<g id="edge56" class="edge">
<title>Node55&#45;&gt;Node92</title>
<path fill="none" stroke="midnightblue" d="M502.14,-392.45C495.35,-383.68 484.99,-369.47 478,-356 470.21,-340.98 463.74,-322.85 459.48,-309.56"/>
<polygon fill="midnightblue" stroke="midnightblue" points="462.74,-308.23 456.45,-299.7 456.05,-310.29 462.74,-308.23"/>
</g>
<!-- Node56&#45;&gt;Node37 -->
<g id="edge53" class="edge">
<title>Node56&#45;&gt;Node37</title>
<path fill="none" stroke="midnightblue" d="M262.33,-336.68C218.55,-327.26 147.12,-311.9 99.36,-301.62"/>
<polygon fill="midnightblue" stroke="midnightblue" points="100.05,-298.19 89.54,-299.51 98.58,-305.03 100.05,-298.19"/>
</g>
<!-- Node56&#45;&gt;Node86 -->
<g id="edge54" class="edge">
<title>Node56&#45;&gt;Node86</title>
<path fill="none" stroke="midnightblue" d="M339.72,-337.44C342.86,-336.92 345.98,-336.43 349,-336 492.63,-315.59 662.67,-301.67 751.33,-295.18"/>
<polygon fill="midnightblue" stroke="midnightblue" points="751.75,-298.66 761.47,-294.44 751.24,-291.67 751.75,-298.66"/>
</g>
<!-- Node86&#45;&gt;Node13 -->
<g id="edge55" class="edge">
<title>Node86&#45;&gt;Node13</title>
<path fill="none" stroke="midnightblue" d="M814.48,-280.08C816.49,-272.85 819.39,-262.41 821.89,-253.4"/>
<polygon fill="midnightblue" stroke="midnightblue" points="825.26,-254.32 824.57,-243.75 818.52,-252.45 825.26,-254.32"/>
</g>
<!-- Node104&#45;&gt;Node46 -->
<g id="edge59" class="edge">
<title>Node104&#45;&gt;Node46</title>
<path fill="none" stroke="midnightblue" d="M385.24,-448.08C378.46,-440.3 368.46,-428.8 360.24,-419.37"/>
<polygon fill="midnightblue" stroke="midnightblue" points="362.82,-417 353.62,-411.75 357.54,-421.59 362.82,-417"/>
</g>
<!-- Node18 -->
<g id="node41" class="node">
<title>Node18</title>
<g id="a_node41"><a xlink:title=" ">
<polygon fill="none" stroke="#bfbfbf" points="410.5,-392.5 410.5,-411.5 463.5,-411.5 463.5,-392.5 410.5,-392.5"/>
<text text-anchor="middle" x="437" y="-399.5" font-family="Helvetica,sans-Serif" font-size="10.00">cstddef</text>
</a>
</g>
</g>
<!-- Node104&#45;&gt;Node18 -->
<g id="edge58" class="edge">
<title>Node104&#45;&gt;Node18</title>
<path fill="none" stroke="midnightblue" d="M400.27,-448.08C406.54,-440.38 415.79,-429.03 423.43,-419.65"/>
<polygon fill="midnightblue" stroke="midnightblue" points="426.27,-421.71 429.87,-411.75 420.84,-417.29 426.27,-421.71"/>
</g>
<!-- Node105&#45;&gt;Node3 -->
<g id="edge69" class="edge">
<title>Node105&#45;&gt;Node3</title>
<path fill="none" stroke="midnightblue" d="M695.56,-394C805.38,-383.1 1014.85,-362.3 1114.16,-352.44"/>
<polygon fill="midnightblue" stroke="midnightblue" points="1114.67,-355.91 1124.28,-351.44 1113.98,-348.94 1114.67,-355.91"/>
</g>
<!-- Node105&#45;&gt;Node5 -->
<g id="edge64" class="edge">
<title>Node105&#45;&gt;Node5</title>
<path fill="none" stroke="midnightblue" d="M675.14,-392.42C709.41,-385.41 755.29,-373.72 793,-356 936.27,-288.7 1060.84,-134.92 1099.58,-83.84"/>
<polygon fill="midnightblue" stroke="midnightblue" points="1102.6,-85.64 1105.79,-75.54 1097,-81.45 1102.6,-85.64"/>
</g>
<!-- Node105&#45;&gt;Node9 -->
<g id="edge66" class="edge">
<title>Node105&#45;&gt;Node9</title>
<path fill="none" stroke="midnightblue" d="M616.83,-392.38C601.07,-374.81 568,-332.94 568,-291 568,-291 568,-291 568,-233 568,-173.55 472.46,-157.26 511,-112 540.56,-77.29 674.26,-69.26 745.3,-67.47"/>
<polygon fill="midnightblue" stroke="midnightblue" points="745.39,-70.96 755.31,-67.24 745.23,-63.97 745.39,-70.96"/>
</g>
<!-- Node105&#45;&gt;Node26 -->
<g id="edge63" class="edge">
<title>Node105&#45;&gt;Node26</title>
<path fill="none" stroke="midnightblue" d="M622.44,-392.25C617.25,-373.74 606,-329.18 606,-291 606,-291 606,-291 606,-233 606,-196.86 582.23,-160.25 566.23,-139.71"/>
<polygon fill="midnightblue" stroke="midnightblue" points="568.75,-137.26 559.74,-131.69 563.31,-141.67 568.75,-137.26"/>
</g>
<!-- Node105&#45;&gt;Node29 -->
<g id="edge70" class="edge">
<title>Node105&#45;&gt;Node29</title>
<path fill="none" stroke="midnightblue" d="M604.36,-392.39C588.6,-384.88 567.39,-372.57 554,-356 534.64,-332.05 530,-321.8 530,-291 530,-291 530,-291 530,-233 530,-189.54 486.94,-154.96 458.5,-136.85"/>
<polygon fill="midnightblue" stroke="midnightblue" points="460.21,-133.79 449.85,-131.56 456.56,-139.77 460.21,-133.79"/>
</g>
<!-- Node105&#45;&gt;Node92 -->
<g id="edge74" class="edge">
<title>Node105&#45;&gt;Node92</title>
<path fill="none" stroke="midnightblue" d="M595.11,-392.41C572.21,-384.98 540.5,-372.77 516,-356 496.39,-342.58 478.16,-322.1 466.61,-307.73"/>
<polygon fill="midnightblue" stroke="midnightblue" points="469.25,-305.42 460.34,-299.69 463.73,-309.72 469.25,-305.42"/>
</g>
<!-- Node20 -->
<g id="node43" class="node">
<title>Node20</title>
<g id="a_node43"><a xlink:title=" ">
<polygon fill="none" stroke="#bfbfbf" points="752,-336.5 752,-355.5 784,-355.5 784,-336.5 752,-336.5"/>
<text text-anchor="middle" x="768" y="-343.5" font-family="Helvetica,sans-Serif" font-size="10.00">list</text>
</a>
</g>
</g>
<!-- Node105&#45;&gt;Node20 -->
<g id="edge65" class="edge">
<title>Node105&#45;&gt;Node20</title>
<path fill="none" stroke="midnightblue" d="M647.66,-392.44C673.36,-382.74 715.18,-366.95 742.14,-356.77"/>
<polygon fill="midnightblue" stroke="midnightblue" points="743.56,-359.97 751.67,-353.16 741.08,-353.42 743.56,-359.97"/>
</g>
<!-- Node106 -->
<g id="node44" class="node">
<title>Node106</title>
<g id="a_node44"><a xlink:href="merge__irep_8h.html" target="_top" xlink:title=" ">
<polygon fill="none" stroke="red" points="634,-336.5 634,-355.5 734,-355.5 734,-336.5 634,-336.5"/>
<text text-anchor="middle" x="684" y="-343.5" font-family="Helvetica,sans-Serif" font-size="10.00">util/merge_irep.h</text>
</a>
</g>
</g>
<!-- Node105&#45;&gt;Node106 -->
<g id="edge67" class="edge">
<title>Node105&#45;&gt;Node106</title>
<path fill="none" stroke="midnightblue" d="M634.48,-392.32C643.2,-384.34 656.34,-372.31 666.9,-362.65"/>
<polygon fill="midnightblue" stroke="midnightblue" points="669.33,-365.17 674.35,-355.83 664.61,-360 669.33,-365.17"/>
</g>
<!-- Node107 -->
<g id="node45" class="node">
<title>Node107</title>
<g id="a_node45"><a xlink:href="ssa__step_8h.html" target="_top" xlink:title=" ">
<polygon fill="none" stroke="red" points="358,-336.5 358,-355.5 426,-355.5 426,-336.5 358,-336.5"/>
<text text-anchor="middle" x="392" y="-343.5" font-family="Helvetica,sans-Serif" font-size="10.00">ssa_step.h</text>
</a>
</g>
</g>
<!-- Node105&#45;&gt;Node107 -->
<g id="edge71" class="edge">
<title>Node105&#45;&gt;Node107</title>
<path fill="none" stroke="midnightblue" d="M588.08,-392.44C546.77,-382.87 479.89,-367.37 435.93,-357.18"/>
<polygon fill="midnightblue" stroke="midnightblue" points="436.63,-353.75 426.09,-354.9 435.05,-360.57 436.63,-353.75"/>
</g>
<!-- Node106&#45;&gt;Node13 -->
<g id="edge68" class="edge">
<title>Node106&#45;&gt;Node13</title>
<path fill="none" stroke="midnightblue" d="M691.99,-336.4C704.35,-323.35 729.17,-298.15 753,-280 768.4,-268.27 787.04,-256.95 801.75,-248.6"/>
<polygon fill="midnightblue" stroke="midnightblue" points="803.75,-251.49 810.78,-243.57 800.35,-245.38 803.75,-251.49"/>
</g>
<!-- Node107&#45;&gt;Node47 -->
<g id="edge72" class="edge">
<title>Node107&#45;&gt;Node47</title>
<path fill="none" stroke="midnightblue" d="M372.35,-336.44C352.04,-327.6 320.1,-313.69 296.9,-303.59"/>
<polygon fill="midnightblue" stroke="midnightblue" points="298.12,-300.3 287.56,-299.52 295.33,-306.72 298.12,-300.3"/>
</g>
<!-- Node107&#45;&gt;Node92 -->
<g id="edge73" class="edge">
<title>Node107&#45;&gt;Node92</title>
<path fill="none" stroke="midnightblue" d="M401.96,-336.32C411.13,-328.34 424.94,-316.31 436.03,-306.65"/>
<polygon fill="midnightblue" stroke="midnightblue" points="438.62,-309.04 443.86,-299.83 434.02,-303.76 438.62,-309.04"/>
</g>
<!-- Node42&#45;&gt;Node7 -->
<g id="edge77" class="edge">
<title>Node42&#45;&gt;Node7</title>
<path fill="none" stroke="midnightblue" d="M1439.19,-336.27C1465.32,-319.98 1516,-282.3 1516,-235 1516,-235 1516,-235 1516,-121 1516,-47.86 1255.89,-20.64 1163.27,-13.26"/>
<polygon fill="midnightblue" stroke="midnightblue" points="1163.32,-9.76 1153.08,-12.48 1162.78,-16.74 1163.32,-9.76"/>
</g>
<!-- Node42&#45;&gt;Node9 -->
<g id="edge78" class="edge">
<title>Node42&#45;&gt;Node9</title>
<path fill="none" stroke="midnightblue" d="M1425.78,-336.17C1428.08,-323.68 1431.61,-300.11 1430,-280 1425.7,-226.19 1428.4,-197.21 1383,-168 1291.58,-109.19 956.69,-79.24 834.77,-70.1"/>
<polygon fill="midnightblue" stroke="midnightblue" points="834.89,-66.6 824.66,-69.35 834.38,-73.58 834.89,-66.6"/>
</g>
<!-- Node42&#45;&gt;Node12 -->
<g id="edge79" class="edge">
<title>Node42&#45;&gt;Node12</title>
<path fill="none" stroke="midnightblue" d="M1415.08,-336.08C1407.22,-328.22 1395.57,-316.57 1386.08,-307.08"/>
<polygon fill="midnightblue" stroke="midnightblue" points="1388.3,-304.35 1378.75,-299.75 1383.35,-309.3 1388.3,-304.35"/>
</g>
</g>
</svg>
