<?xml version="1.0" encoding="UTF-8" standalone="no"?>
<!DOCTYPE svg PUBLIC "-//W3C//DTD SVG 1.1//EN"
 "http://www.w3.org/Graphics/SVG/1.1/DTD/svg11.dtd">
<!-- Generated by graphviz version 2.43.0 (0)
 -->
<!-- Title: /home/runner/work/cbmc/cbmc/src/goto&#45;symex/symex_target.h Pages: 1 -->
<svg width="1062pt" height="565pt"
 viewBox="0.00 0.00 1061.50 565.00" xmlns="http://www.w3.org/2000/svg" xmlns:xlink="http://www.w3.org/1999/xlink">
<g id="graph0" class="graph" transform="scale(1 1) rotate(0) translate(4 561)">
<title>/home/runner/work/cbmc/cbmc/src/goto&#45;symex/symex_target.h</title>
<!-- Node1 -->
<g id="node1" class="node">
<title>Node1</title>
<g id="a_node1"><a xlink:title="Generate Equation using Symbolic Execution.">
<polygon fill="#bfbfbf" stroke="black" points="546,-515.5 546,-556.5 707,-556.5 707,-515.5 546,-515.5"/>
<text text-anchor="start" x="554" y="-544.5" font-family="Helvetica,sans-Serif" font-size="10.00">/home/runner/work/cbmc</text>
<text text-anchor="start" x="554" y="-533.5" font-family="Helvetica,sans-Serif" font-size="10.00">/cbmc/src/goto&#45;symex/symex</text>
<text text-anchor="middle" x="626.5" y="-522.5" font-family="Helvetica,sans-Serif" font-size="10.00">_target.h</text>
</a>
</g>
</g>
<!-- Node2 -->
<g id="node2" class="node">
<title>Node2</title>
<g id="a_node2"><a xlink:href="goto__program_8h.html" target="_top" xlink:title="Concrete Goto Program.">
<polygon fill="none" stroke="black" points="778,-448.5 778,-478.5 891,-478.5 891,-448.5 778,-448.5"/>
<text text-anchor="start" x="786" y="-466.5" font-family="Helvetica,sans-Serif" font-size="10.00">goto&#45;programs/goto</text>
<text text-anchor="middle" x="834.5" y="-455.5" font-family="Helvetica,sans-Serif" font-size="10.00">_program.h</text>
</a>
</g>
</g>
<!-- Node1&#45;&gt;Node2 -->
<g id="edge1" class="edge">
<title>Node1&#45;&gt;Node2</title>
<path fill="none" stroke="midnightblue" d="M684.16,-515.46C715.16,-504.95 753.07,-492.1 783.06,-481.93"/>
<polygon fill="midnightblue" stroke="midnightblue" points="784.56,-485.12 792.91,-478.6 782.32,-478.49 784.56,-485.12"/>
</g>
<!-- Node48 -->
<g id="node30" class="node">
<title>Node48</title>
<g id="a_node30"><a xlink:href="renamed_8h.html" target="_top" xlink:title="Class for expressions or types renamed up to a given level.">
<polygon fill="none" stroke="black" points="319,-392.5 319,-411.5 388,-411.5 388,-392.5 319,-392.5"/>
<text text-anchor="middle" x="353.5" y="-399.5" font-family="Helvetica,sans-Serif" font-size="10.00">renamed.h</text>
</a>
</g>
</g>
<!-- Node1&#45;&gt;Node48 -->
<g id="edge51" class="edge">
<title>Node1&#45;&gt;Node48</title>
<path fill="none" stroke="midnightblue" d="M585.92,-515.38C529.37,-488.03 428.38,-439.21 380.33,-415.97"/>
<polygon fill="midnightblue" stroke="midnightblue" points="381.71,-412.75 371.19,-411.55 378.67,-419.06 381.71,-412.75"/>
</g>
<!-- Node3 -->
<g id="node3" class="node">
<title>Node3</title>
<g id="a_node3"><a xlink:href="goto__instruction__code_8h.html" target="_top" xlink:title=" ">
<polygon fill="none" stroke="black" points="459,-392.5 459,-411.5 592,-411.5 592,-392.5 459,-392.5"/>
<text text-anchor="middle" x="525.5" y="-399.5" font-family="Helvetica,sans-Serif" font-size="10.00">goto_instruction_code.h</text>
</a>
</g>
</g>
<!-- Node2&#45;&gt;Node3 -->
<g id="edge2" class="edge">
<title>Node2&#45;&gt;Node3</title>
<path fill="none" stroke="midnightblue" d="M777.82,-451.59C721.4,-440.72 635.41,-424.16 579.82,-413.46"/>
<polygon fill="midnightblue" stroke="midnightblue" points="580.29,-409.99 569.81,-411.53 578.97,-416.86 580.29,-409.99"/>
</g>
<!-- Node9 -->
<g id="node9" class="node">
<title>Node9</title>
<g id="a_node9"><a xlink:href="src_2util_2invariant_8h.html" target="_top" xlink:title=" ">
<polygon fill="none" stroke="black" points="623,-168.5 623,-187.5 692,-187.5 692,-168.5 623,-168.5"/>
<text text-anchor="middle" x="657.5" y="-175.5" font-family="Helvetica,sans-Serif" font-size="10.00">invariant.h</text>
</a>
</g>
</g>
<!-- Node2&#45;&gt;Node9 -->
<g id="edge49" class="edge">
<title>Node2&#45;&gt;Node9</title>
<path fill="none" stroke="midnightblue" d="M820.52,-448.19C801.96,-427.62 771.5,-387.66 771.5,-347 771.5,-347 771.5,-347 771.5,-289 771.5,-242.11 720.95,-208.89 687.17,-191.93"/>
<polygon fill="midnightblue" stroke="midnightblue" points="688.67,-188.77 678.14,-187.58 685.63,-195.07 688.67,-188.77"/>
</g>
<!-- Node12 -->
<g id="node12" class="node">
<title>Node12</title>
<g id="a_node12"><a xlink:title=" ">
<polygon fill="none" stroke="#bfbfbf" points="842.5,-0.5 842.5,-19.5 886.5,-19.5 886.5,-0.5 842.5,-0.5"/>
<text text-anchor="middle" x="864.5" y="-7.5" font-family="Helvetica,sans-Serif" font-size="10.00">string</text>
</a>
</g>
</g>
<!-- Node2&#45;&gt;Node12 -->
<g id="edge47" class="edge">
<title>Node2&#45;&gt;Node12</title>
<path fill="none" stroke="midnightblue" d="M859.98,-448.38C890.19,-429.55 936.5,-393.15 936.5,-347 936.5,-347 936.5,-347 936.5,-233 936.5,-153.37 894.07,-65.17 874.35,-28.49"/>
<polygon fill="midnightblue" stroke="midnightblue" points="877.33,-26.64 869.45,-19.56 871.19,-30.01 877.33,-26.64"/>
</g>
<!-- Node16 -->
<g id="node16" class="node">
<title>Node16</title>
<g id="a_node16"><a xlink:href="source__location_8h.html" target="_top" xlink:title=" ">
<polygon fill="none" stroke="red" points="923.5,-56.5 923.5,-75.5 1025.5,-75.5 1025.5,-56.5 923.5,-56.5"/>
<text text-anchor="middle" x="974.5" y="-63.5" font-family="Helvetica,sans-Serif" font-size="10.00">source_location.h</text>
</a>
</g>
</g>
<!-- Node2&#45;&gt;Node16 -->
<g id="edge50" class="edge">
<title>Node2&#45;&gt;Node16</title>
<path fill="none" stroke="midnightblue" d="M890.24,-448.45C911.45,-440.71 934.36,-429.08 950.5,-412 971.65,-389.61 974.5,-377.8 974.5,-347 974.5,-347 974.5,-347 974.5,-177 974.5,-144.95 974.5,-107.64 974.5,-85.75"/>
<polygon fill="midnightblue" stroke="midnightblue" points="978,-85.56 974.5,-75.56 971,-85.56 978,-85.56"/>
</g>
<!-- Node17 -->
<g id="node17" class="node">
<title>Node17</title>
<g id="a_node17"><a xlink:href="deprecate_8h.html" target="_top" xlink:title=" ">
<polygon fill="none" stroke="black" points="976.5,-0.5 976.5,-19.5 1050.5,-19.5 1050.5,-0.5 976.5,-0.5"/>
<text text-anchor="middle" x="1013.5" y="-7.5" font-family="Helvetica,sans-Serif" font-size="10.00">deprecate.h</text>
</a>
</g>
</g>
<!-- Node2&#45;&gt;Node17 -->
<g id="edge48" class="edge">
<title>Node2&#45;&gt;Node17</title>
<path fill="none" stroke="midnightblue" d="M891.18,-457.02C956.07,-447.27 1053.5,-420.4 1053.5,-347 1053.5,-347 1053.5,-347 1053.5,-121 1053.5,-86.62 1036.03,-49.63 1024.18,-28.5"/>
<polygon fill="midnightblue" stroke="midnightblue" points="1027.12,-26.61 1019.06,-19.73 1021.08,-30.13 1027.12,-26.61"/>
</g>
<!-- Node22 -->
<g id="node24" class="node">
<title>Node22</title>
<g id="a_node24"><a xlink:title=" ">
<polygon fill="none" stroke="#bfbfbf" points="860.5,-168.5 860.5,-187.5 908.5,-187.5 908.5,-168.5 860.5,-168.5"/>
<text text-anchor="middle" x="884.5" y="-175.5" font-family="Helvetica,sans-Serif" font-size="10.00">iosfwd</text>
</a>
</g>
</g>
<!-- Node2&#45;&gt;Node22 -->
<g id="edge44" class="edge">
<title>Node2&#45;&gt;Node22</title>
<path fill="none" stroke="midnightblue" d="M848.48,-448.19C867.04,-427.62 897.5,-387.66 897.5,-347 897.5,-347 897.5,-347 897.5,-289 897.5,-256.58 891.86,-219.15 888.01,-197.37"/>
<polygon fill="midnightblue" stroke="midnightblue" points="891.45,-196.72 886.2,-187.52 884.57,-197.99 891.45,-196.72"/>
</g>
<!-- Node46 -->
<g id="node28" class="node">
<title>Node46</title>
<g id="a_node28"><a xlink:title=" ">
<polygon fill="none" stroke="#bfbfbf" points="521.5,-168.5 521.5,-187.5 553.5,-187.5 553.5,-168.5 521.5,-168.5"/>
<text text-anchor="middle" x="537.5" y="-175.5" font-family="Helvetica,sans-Serif" font-size="10.00">set</text>
</a>
</g>
</g>
<!-- Node2&#45;&gt;Node46 -->
<g id="edge45" class="edge">
<title>Node2&#45;&gt;Node46</title>
<path fill="none" stroke="midnightblue" d="M819.32,-448.4C808.47,-438.3 793.55,-424.36 780.5,-412 694.52,-330.58 592.44,-232.11 553.59,-194.56"/>
<polygon fill="midnightblue" stroke="midnightblue" points="555.91,-191.94 546.29,-187.5 551.05,-196.97 555.91,-191.94"/>
</g>
<!-- Node47 -->
<g id="node29" class="node">
<title>Node47</title>
<g id="a_node29"><a xlink:title=" ">
<polygon fill="none" stroke="#bfbfbf" points="812.5,-392.5 812.5,-411.5 856.5,-411.5 856.5,-392.5 812.5,-392.5"/>
<text text-anchor="middle" x="834.5" y="-399.5" font-family="Helvetica,sans-Serif" font-size="10.00">limits</text>
</a>
</g>
</g>
<!-- Node2&#45;&gt;Node47 -->
<g id="edge46" class="edge">
<title>Node2&#45;&gt;Node47</title>
<path fill="none" stroke="midnightblue" d="M834.5,-448.4C834.5,-440.47 834.5,-430.46 834.5,-421.86"/>
<polygon fill="midnightblue" stroke="midnightblue" points="838,-421.66 834.5,-411.66 831,-421.66 838,-421.66"/>
</g>
<!-- Node4 -->
<g id="node4" class="node">
<title>Node4</title>
<g id="a_node4"><a xlink:href="std__code__base_8h.html" target="_top" xlink:title=" ">
<polygon fill="none" stroke="black" points="476.5,-336.5 476.5,-355.5 592.5,-355.5 592.5,-336.5 476.5,-336.5"/>
<text text-anchor="middle" x="534.5" y="-343.5" font-family="Helvetica,sans-Serif" font-size="10.00">util/std_code_base.h</text>
</a>
</g>
</g>
<!-- Node3&#45;&gt;Node4 -->
<g id="edge3" class="edge">
<title>Node3&#45;&gt;Node4</title>
<path fill="none" stroke="midnightblue" d="M526.99,-392.08C528.18,-384.93 529.89,-374.64 531.38,-365.69"/>
<polygon fill="midnightblue" stroke="midnightblue" points="534.85,-366.19 533.04,-355.75 527.95,-365.04 534.85,-366.19"/>
</g>
<!-- Node45 -->
<g id="node27" class="node">
<title>Node45</title>
<g id="a_node27"><a xlink:href="std__expr_8h.html" target="_top" xlink:title="API to expression classes.">
<polygon fill="none" stroke="black" points="372.5,-336.5 372.5,-355.5 458.5,-355.5 458.5,-336.5 372.5,-336.5"/>
<text text-anchor="middle" x="415.5" y="-343.5" font-family="Helvetica,sans-Serif" font-size="10.00">util/std_expr.h</text>
</a>
</g>
</g>
<!-- Node3&#45;&gt;Node45 -->
<g id="edge40" class="edge">
<title>Node3&#45;&gt;Node45</title>
<path fill="none" stroke="midnightblue" d="M507.83,-392.32C490.11,-383.62 462.6,-370.12 442.21,-360.11"/>
<polygon fill="midnightblue" stroke="midnightblue" points="443.65,-356.92 433.13,-355.65 440.56,-363.2 443.65,-356.92"/>
</g>
<!-- Node5 -->
<g id="node5" class="node">
<title>Node5</title>
<g id="a_node5"><a xlink:href="expr__cast_8h.html" target="_top" xlink:title="Templated functions to cast to specific exprt&#45;derived classes.">
<polygon fill="none" stroke="black" points="292,-224.5 292,-243.5 365,-243.5 365,-224.5 292,-224.5"/>
<text text-anchor="middle" x="328.5" y="-231.5" font-family="Helvetica,sans-Serif" font-size="10.00">expr_cast.h</text>
</a>
</g>
</g>
<!-- Node4&#45;&gt;Node5 -->
<g id="edge4" class="edge">
<title>Node4&#45;&gt;Node5</title>
<path fill="none" stroke="midnightblue" d="M518.34,-336.37C482.53,-317.25 396.35,-271.23 353.52,-248.36"/>
<polygon fill="midnightblue" stroke="midnightblue" points="355.06,-245.21 344.59,-243.59 351.76,-251.39 355.06,-245.21"/>
</g>
<!-- Node4&#45;&gt;Node9 -->
<g id="edge28" class="edge">
<title>Node4&#45;&gt;Node9</title>
<path fill="none" stroke="midnightblue" d="M592.7,-337.74C637.86,-330.77 695.13,-318.53 709.5,-300 730.2,-273.31 723.54,-254.72 709.5,-224 703.72,-211.36 692.45,-200.91 681.87,-193.27"/>
<polygon fill="midnightblue" stroke="midnightblue" points="683.54,-190.18 673.28,-187.53 679.65,-196 683.54,-190.18"/>
</g>
<!-- Node37 -->
<g id="node18" class="node">
<title>Node37</title>
<g id="a_node18"><a xlink:href="validate_8h.html" target="_top" xlink:title=" ">
<polygon fill="none" stroke="red" points="436,-56.5 436,-75.5 501,-75.5 501,-56.5 436,-56.5"/>
<text text-anchor="middle" x="468.5" y="-63.5" font-family="Helvetica,sans-Serif" font-size="10.00">validate.h</text>
</a>
</g>
</g>
<!-- Node4&#45;&gt;Node37 -->
<g id="edge39" class="edge">
<title>Node4&#45;&gt;Node37</title>
<path fill="none" stroke="midnightblue" d="M539.02,-336.18C551.93,-309.72 586.53,-229.09 562.5,-168 547.88,-130.84 512.44,-99.25 489.5,-81.73"/>
<polygon fill="midnightblue" stroke="midnightblue" points="491.5,-78.86 481.38,-75.72 487.34,-84.49 491.5,-78.86"/>
</g>
<!-- Node42 -->
<g id="node22" class="node">
<title>Node42</title>
<g id="a_node22"><a xlink:href="std__types_8h.html" target="_top" xlink:title="Pre&#45;defined types.">
<polygon fill="none" stroke="black" points="460,-280.5 460,-299.5 533,-299.5 533,-280.5 460,-280.5"/>
<text text-anchor="middle" x="496.5" y="-287.5" font-family="Helvetica,sans-Serif" font-size="10.00">std_types.h</text>
</a>
</g>
</g>
<!-- Node4&#45;&gt;Node42 -->
<g id="edge29" class="edge">
<title>Node4&#45;&gt;Node42</title>
<path fill="none" stroke="midnightblue" d="M528.23,-336.08C522.86,-328.46 514.98,-317.26 508.42,-307.94"/>
<polygon fill="midnightblue" stroke="midnightblue" points="511.28,-305.91 502.66,-299.75 505.55,-309.94 511.28,-305.91"/>
</g>
<!-- Node6 -->
<g id="node6" class="node">
<title>Node6</title>
<g id="a_node6"><a xlink:title=" ">
<polygon fill="none" stroke="#bfbfbf" points="370,-168.5 370,-187.5 427,-187.5 427,-168.5 370,-168.5"/>
<text text-anchor="middle" x="398.5" y="-175.5" font-family="Helvetica,sans-Serif" font-size="10.00">typeinfo</text>
</a>
</g>
</g>
<!-- Node5&#45;&gt;Node6 -->
<g id="edge5" class="edge">
<title>Node5&#45;&gt;Node6</title>
<path fill="none" stroke="midnightblue" d="M339.75,-224.32C350.3,-216.18 366.3,-203.84 378.94,-194.09"/>
<polygon fill="midnightblue" stroke="midnightblue" points="381.27,-196.71 387.05,-187.83 376.99,-191.17 381.27,-196.71"/>
</g>
<!-- Node7 -->
<g id="node7" class="node">
<title>Node7</title>
<g id="a_node7"><a xlink:title=" ">
<polygon fill="none" stroke="#bfbfbf" points="510,-0.5 510,-19.5 579,-19.5 579,-0.5 510,-0.5"/>
<text text-anchor="middle" x="544.5" y="-7.5" font-family="Helvetica,sans-Serif" font-size="10.00">type_traits</text>
</a>
</g>
</g>
<!-- Node5&#45;&gt;Node7 -->
<g id="edge6" class="edge">
<title>Node5&#45;&gt;Node7</title>
<path fill="none" stroke="midnightblue" d="M362.1,-224.45C384.68,-217.45 414.1,-205.76 435.5,-188 489.37,-143.31 524.17,-64.75 537.89,-29.29"/>
<polygon fill="midnightblue" stroke="midnightblue" points="541.23,-30.34 541.46,-19.75 534.67,-27.88 541.23,-30.34"/>
</g>
<!-- Node8 -->
<g id="node8" class="node">
<title>Node8</title>
<g id="a_node8"><a xlink:title=" ">
<polygon fill="none" stroke="#bfbfbf" points="0,-112.5 0,-131.5 65,-131.5 65,-112.5 0,-112.5"/>
<text text-anchor="middle" x="32.5" y="-119.5" font-family="Helvetica,sans-Serif" font-size="10.00">functional</text>
</a>
</g>
</g>
<!-- Node5&#45;&gt;Node8 -->
<g id="edge7" class="edge">
<title>Node5&#45;&gt;Node8</title>
<path fill="none" stroke="midnightblue" d="M321.7,-224.23C310.14,-210 285.22,-182.06 257.5,-168 253.42,-165.93 139.37,-143.67 75.25,-131.25"/>
<polygon fill="midnightblue" stroke="midnightblue" points="75.9,-127.81 65.42,-129.35 74.57,-134.68 75.9,-127.81"/>
</g>
<!-- Node5&#45;&gt;Node9 -->
<g id="edge8" class="edge">
<title>Node5&#45;&gt;Node9</title>
<path fill="none" stroke="midnightblue" d="M365.28,-226.96C426.08,-216.98 547.33,-197.08 612.91,-186.32"/>
<polygon fill="midnightblue" stroke="midnightblue" points="613.64,-189.75 622.94,-184.67 612.5,-182.84 613.64,-189.75"/>
</g>
<!-- Node13 -->
<g id="node13" class="node">
<title>Node13</title>
<g id="a_node13"><a xlink:href="expr_8h.html" target="_top" xlink:title=" ">
<polygon fill="none" stroke="black" points="305,-168.5 305,-187.5 352,-187.5 352,-168.5 305,-168.5"/>
<text text-anchor="middle" x="328.5" y="-175.5" font-family="Helvetica,sans-Serif" font-size="10.00">expr.h</text>
</a>
</g>
</g>
<!-- Node5&#45;&gt;Node13 -->
<g id="edge13" class="edge">
<title>Node5&#45;&gt;Node13</title>
<path fill="none" stroke="midnightblue" d="M328.5,-224.08C328.5,-217.01 328.5,-206.86 328.5,-197.99"/>
<polygon fill="midnightblue" stroke="midnightblue" points="332,-197.75 328.5,-187.75 325,-197.75 332,-197.75"/>
</g>
<!-- Node9&#45;&gt;Node7 -->
<g id="edge12" class="edge">
<title>Node9&#45;&gt;Node7</title>
<path fill="none" stroke="midnightblue" d="M671.83,-168.46C689.97,-156.48 717.52,-133.73 705.5,-112 679.7,-65.35 622.34,-37.36 583.53,-23.05"/>
<polygon fill="midnightblue" stroke="midnightblue" points="584.2,-19.57 573.61,-19.54 581.87,-26.17 584.2,-19.57"/>
</g>
<!-- Node10 -->
<g id="node10" class="node">
<title>Node10</title>
<g id="a_node10"><a xlink:title=" ">
<polygon fill="none" stroke="#bfbfbf" points="573,-112.5 573,-131.5 622,-131.5 622,-112.5 573,-112.5"/>
<text text-anchor="middle" x="597.5" y="-119.5" font-family="Helvetica,sans-Serif" font-size="10.00">cstdlib</text>
</a>
</g>
</g>
<!-- Node9&#45;&gt;Node10 -->
<g id="edge9" class="edge">
<title>Node9&#45;&gt;Node10</title>
<path fill="none" stroke="midnightblue" d="M647.86,-168.32C638.99,-160.34 625.63,-148.31 614.89,-138.65"/>
<polygon fill="midnightblue" stroke="midnightblue" points="617.09,-135.92 607.32,-131.83 612.41,-141.13 617.09,-135.92"/>
</g>
<!-- Node11 -->
<g id="node11" class="node">
<title>Node11</title>
<g id="a_node11"><a xlink:title=" ">
<polygon fill="none" stroke="#bfbfbf" points="640.5,-112.5 640.5,-131.5 696.5,-131.5 696.5,-112.5 640.5,-112.5"/>
<text text-anchor="middle" x="668.5" y="-119.5" font-family="Helvetica,sans-Serif" font-size="10.00">sstream</text>
</a>
</g>
</g>
<!-- Node9&#45;&gt;Node11 -->
<g id="edge10" class="edge">
<title>Node9&#45;&gt;Node11</title>
<path fill="none" stroke="midnightblue" d="M659.32,-168.08C660.77,-160.93 662.87,-150.64 664.69,-141.69"/>
<polygon fill="midnightblue" stroke="midnightblue" points="668.15,-142.25 666.72,-131.75 661.29,-140.85 668.15,-142.25"/>
</g>
<!-- Node9&#45;&gt;Node12 -->
<g id="edge11" class="edge">
<title>Node9&#45;&gt;Node12</title>
<path fill="none" stroke="midnightblue" d="M670.49,-168.37C683.6,-159.54 704.3,-145.28 721.5,-132 768.42,-95.77 821.02,-49.79 847.42,-26.31"/>
<polygon fill="midnightblue" stroke="midnightblue" points="849.9,-28.79 855.04,-19.52 845.24,-23.57 849.9,-28.79"/>
</g>
<!-- Node13&#45;&gt;Node8 -->
<g id="edge27" class="edge">
<title>Node13&#45;&gt;Node8</title>
<path fill="none" stroke="midnightblue" d="M304.83,-171.15C300.1,-170.05 295.15,-168.95 290.5,-168 197.28,-149.03 173.11,-148.95 79.5,-132 78.04,-131.74 76.56,-131.47 75.07,-131.19"/>
<polygon fill="midnightblue" stroke="midnightblue" points="75.57,-127.72 65.1,-129.33 74.29,-134.61 75.57,-127.72"/>
</g>
<!-- Node14 -->
<g id="node14" class="node">
<title>Node14</title>
<g id="a_node14"><a xlink:href="as__const_8h.html" target="_top" xlink:title=" ">
<polygon fill="none" stroke="black" points="159.5,-112.5 159.5,-131.5 227.5,-131.5 227.5,-112.5 159.5,-112.5"/>
<text text-anchor="middle" x="193.5" y="-119.5" font-family="Helvetica,sans-Serif" font-size="10.00">as_const.h</text>
</a>
</g>
</g>
<!-- Node13&#45;&gt;Node14 -->
<g id="edge14" class="edge">
<title>Node13&#45;&gt;Node14</title>
<path fill="none" stroke="midnightblue" d="M307.11,-168.44C284.79,-159.52 249.6,-145.44 224.29,-135.32"/>
<polygon fill="midnightblue" stroke="midnightblue" points="225.38,-131.98 214.79,-131.52 222.78,-138.48 225.38,-131.98"/>
</g>
<!-- Node15 -->
<g id="node15" class="node">
<title>Node15</title>
<g id="a_node15"><a xlink:href="type_8h.html" target="_top" xlink:title="Defines typet, type_with_subtypet and type_with_subtypest.">
<polygon fill="none" stroke="black" points="246,-112.5 246,-131.5 293,-131.5 293,-112.5 246,-112.5"/>
<text text-anchor="middle" x="269.5" y="-119.5" font-family="Helvetica,sans-Serif" font-size="10.00">type.h</text>
</a>
</g>
</g>
<!-- Node13&#45;&gt;Node15 -->
<g id="edge15" class="edge">
<title>Node13&#45;&gt;Node15</title>
<path fill="none" stroke="midnightblue" d="M319.02,-168.32C310.3,-160.34 297.16,-148.31 286.6,-138.65"/>
<polygon fill="midnightblue" stroke="midnightblue" points="288.89,-136 279.15,-131.83 284.17,-141.17 288.89,-136"/>
</g>
<!-- Node39 -->
<g id="node19" class="node">
<title>Node39</title>
<g id="a_node19"><a xlink:href="validation__mode_8h.html" target="_top" xlink:title=" ">
<polygon fill="none" stroke="black" points="216,-0.5 216,-19.5 323,-19.5 323,-0.5 216,-0.5"/>
<text text-anchor="middle" x="269.5" y="-7.5" font-family="Helvetica,sans-Serif" font-size="10.00">validation_mode.h</text>
</a>
</g>
</g>
<!-- Node13&#45;&gt;Node39 -->
<g id="edge26" class="edge">
<title>Node13&#45;&gt;Node39</title>
<path fill="none" stroke="midnightblue" d="M304.75,-171.89C255.97,-161.31 148.55,-137.53 142.5,-132 123.1,-114.27 127.78,-101.93 123.5,-76 122.05,-67.23 118.22,-63.15 123.5,-56 142.39,-30.41 175.63,-18.92 205.63,-13.93"/>
<polygon fill="midnightblue" stroke="midnightblue" points="206.25,-17.38 215.65,-12.48 205.25,-10.45 206.25,-17.38"/>
</g>
<!-- Node40 -->
<g id="node20" class="node">
<title>Node40</title>
<g id="a_node20"><a xlink:href="validate__types_8h.html" target="_top" xlink:title=" ">
<polygon fill="none" stroke="black" points="132.5,-56.5 132.5,-75.5 230.5,-75.5 230.5,-56.5 132.5,-56.5"/>
<text text-anchor="middle" x="181.5" y="-63.5" font-family="Helvetica,sans-Serif" font-size="10.00">validate_types.h</text>
</a>
</g>
</g>
<!-- Node13&#45;&gt;Node40 -->
<g id="edge25" class="edge">
<title>Node13&#45;&gt;Node40</title>
<path fill="none" stroke="midnightblue" d="M304.88,-171.42C257.02,-160.08 152.91,-135.1 150.5,-132 138.81,-116.99 151.97,-96.86 164.56,-83"/>
<polygon fill="midnightblue" stroke="midnightblue" points="167.25,-85.26 171.72,-75.65 162.24,-80.37 167.25,-85.26"/>
</g>
<!-- Node41 -->
<g id="node21" class="node">
<title>Node41</title>
<g id="a_node21"><a xlink:href="validate__expressions_8h.html" target="_top" xlink:title=" ">
<polygon fill="none" stroke="black" points="311,-112.5 311,-131.5 440,-131.5 440,-112.5 311,-112.5"/>
<text text-anchor="middle" x="375.5" y="-119.5" font-family="Helvetica,sans-Serif" font-size="10.00">validate_expressions.h</text>
</a>
</g>
</g>
<!-- Node13&#45;&gt;Node41 -->
<g id="edge24" class="edge">
<title>Node13&#45;&gt;Node41</title>
<path fill="none" stroke="midnightblue" d="M336.26,-168.08C343.04,-160.3 353.04,-148.8 361.26,-139.37"/>
<polygon fill="midnightblue" stroke="midnightblue" points="363.96,-141.59 367.88,-131.75 358.68,-137 363.96,-141.59"/>
</g>
<!-- Node15&#45;&gt;Node16 -->
<g id="edge16" class="edge">
<title>Node15&#45;&gt;Node16</title>
<path fill="none" stroke="midnightblue" d="M293.14,-113.76C295.94,-113.08 298.77,-112.47 301.5,-112 524.43,-73.63 794.12,-67.54 913.07,-66.87"/>
<polygon fill="midnightblue" stroke="midnightblue" points="913.44,-70.37 923.42,-66.82 913.4,-63.37 913.44,-70.37"/>
</g>
<!-- Node15&#45;&gt;Node37 -->
<g id="edge19" class="edge">
<title>Node15&#45;&gt;Node37</title>
<path fill="none" stroke="midnightblue" d="M293.26,-114.29C296.04,-113.51 298.83,-112.74 301.5,-112 344,-100.3 392.68,-87.22 426.47,-78.19"/>
<polygon fill="midnightblue" stroke="midnightblue" points="427.7,-81.48 436.46,-75.52 425.89,-74.72 427.7,-81.48"/>
</g>
<!-- Node15&#45;&gt;Node39 -->
<g id="edge23" class="edge">
<title>Node15&#45;&gt;Node39</title>
<path fill="none" stroke="midnightblue" d="M269.5,-112.37C269.5,-94.62 269.5,-53.67 269.5,-29.6"/>
<polygon fill="midnightblue" stroke="midnightblue" points="273,-29.59 269.5,-19.59 266,-29.59 273,-29.59"/>
</g>
<!-- Node15&#45;&gt;Node40 -->
<g id="edge22" class="edge">
<title>Node15&#45;&gt;Node40</title>
<path fill="none" stroke="midnightblue" d="M255.36,-112.32C241.63,-103.9 220.56,-90.97 204.44,-81.07"/>
<polygon fill="midnightblue" stroke="midnightblue" points="205.96,-77.9 195.6,-75.65 202.3,-83.87 205.96,-77.9"/>
</g>
<!-- Node16&#45;&gt;Node12 -->
<g id="edge18" class="edge">
<title>Node16&#45;&gt;Node12</title>
<path fill="none" stroke="midnightblue" d="M956.83,-56.32C939.11,-47.62 911.6,-34.12 891.21,-24.11"/>
<polygon fill="midnightblue" stroke="midnightblue" points="892.65,-20.92 882.13,-19.65 889.56,-27.2 892.65,-20.92"/>
</g>
<!-- Node16&#45;&gt;Node17 -->
<g id="edge17" class="edge">
<title>Node16&#45;&gt;Node17</title>
<path fill="none" stroke="midnightblue" d="M980.94,-56.08C986.45,-48.46 994.53,-37.26 1001.26,-27.94"/>
<polygon fill="midnightblue" stroke="midnightblue" points="1004.16,-29.91 1007.18,-19.75 998.49,-25.81 1004.16,-29.91"/>
</g>
<!-- Node37&#45;&gt;Node7 -->
<g id="edge20" class="edge">
<title>Node37&#45;&gt;Node7</title>
<path fill="none" stroke="midnightblue" d="M480.71,-56.32C492.28,-48.11 509.88,-35.6 523.66,-25.81"/>
<polygon fill="midnightblue" stroke="midnightblue" points="525.94,-28.48 532.07,-19.83 521.89,-22.77 525.94,-28.48"/>
</g>
<!-- Node37&#45;&gt;Node39 -->
<g id="edge21" class="edge">
<title>Node37&#45;&gt;Node39</title>
<path fill="none" stroke="midnightblue" d="M436.97,-56.44C402.91,-47.2 348.49,-32.44 310.98,-22.26"/>
<polygon fill="midnightblue" stroke="midnightblue" points="311.45,-18.76 300.88,-19.52 309.62,-25.51 311.45,-18.76"/>
</g>
<!-- Node42&#45;&gt;Node5 -->
<g id="edge31" class="edge">
<title>Node42&#45;&gt;Node5</title>
<path fill="none" stroke="midnightblue" d="M469.88,-280.44C441.49,-271.32 396.36,-256.81 364.75,-246.65"/>
<polygon fill="midnightblue" stroke="midnightblue" points="365.59,-243.24 355,-243.52 363.44,-249.91 365.59,-243.24"/>
</g>
<!-- Node42&#45;&gt;Node9 -->
<g id="edge32" class="edge">
<title>Node42&#45;&gt;Node9</title>
<path fill="none" stroke="midnightblue" d="M509.13,-280.37C536.76,-261.49 602.78,-216.38 636.66,-193.24"/>
<polygon fill="midnightblue" stroke="midnightblue" points="638.64,-196.12 644.93,-187.59 634.69,-190.34 638.64,-196.12"/>
</g>
<!-- Node42&#45;&gt;Node13 -->
<g id="edge30" class="edge">
<title>Node42&#45;&gt;Node13</title>
<path fill="none" stroke="midnightblue" d="M480.14,-280.39C463.94,-271.69 438.57,-257.63 417.5,-244 392.74,-227.98 365.53,-207.69 347.8,-194.08"/>
<polygon fill="midnightblue" stroke="midnightblue" points="349.51,-190.97 339.45,-187.62 345.23,-196.51 349.51,-190.97"/>
</g>
<!-- Node42&#45;&gt;Node37 -->
<g id="edge37" class="edge">
<title>Node42&#45;&gt;Node37</title>
<path fill="none" stroke="midnightblue" d="M482.71,-280.19C471.67,-272.24 457,-259.45 450.5,-244 438.65,-215.82 455.88,-125.41 464.31,-85.84"/>
<polygon fill="midnightblue" stroke="midnightblue" points="467.76,-86.44 466.47,-75.92 460.92,-84.95 467.76,-86.44"/>
</g>
<!-- Node43 -->
<g id="node23" class="node">
<title>Node43</title>
<g id="a_node23"><a xlink:href="mp__arith_8h.html" target="_top" xlink:title=" ">
<polygon fill="none" stroke="black" points="800,-224.5 800,-243.5 869,-243.5 869,-224.5 800,-224.5"/>
<text text-anchor="middle" x="834.5" y="-231.5" font-family="Helvetica,sans-Serif" font-size="10.00">mp_arith.h</text>
</a>
</g>
</g>
<!-- Node42&#45;&gt;Node43 -->
<g id="edge33" class="edge">
<title>Node42&#45;&gt;Node43</title>
<path fill="none" stroke="midnightblue" d="M533.32,-283.12C595.81,-273.13 722.42,-252.91 789.86,-242.13"/>
<polygon fill="midnightblue" stroke="midnightblue" points="790.44,-245.58 799.76,-240.55 789.33,-238.67 790.44,-245.58"/>
</g>
<!-- Node27 -->
<g id="node26" class="node">
<title>Node27</title>
<g id="a_node26"><a xlink:title=" ">
<polygon fill="none" stroke="#bfbfbf" points="460,-224.5 460,-243.5 553,-243.5 553,-224.5 460,-224.5"/>
<text text-anchor="middle" x="506.5" y="-231.5" font-family="Helvetica,sans-Serif" font-size="10.00">unordered_map</text>
</a>
</g>
</g>
<!-- Node42&#45;&gt;Node27 -->
<g id="edge38" class="edge">
<title>Node42&#45;&gt;Node27</title>
<path fill="none" stroke="midnightblue" d="M498.15,-280.08C499.48,-272.93 501.38,-262.64 503.04,-253.69"/>
<polygon fill="midnightblue" stroke="midnightblue" points="506.5,-254.22 504.88,-243.75 499.62,-252.95 506.5,-254.22"/>
</g>
<!-- Node43&#45;&gt;Node12 -->
<g id="edge35" class="edge">
<title>Node43&#45;&gt;Node12</title>
<path fill="none" stroke="midnightblue" d="M835.68,-224.3C840.09,-191.63 855.73,-75.87 861.94,-29.96"/>
<polygon fill="midnightblue" stroke="midnightblue" points="865.43,-30.26 863.3,-19.88 858.49,-29.32 865.43,-30.26"/>
</g>
<!-- Node43&#45;&gt;Node22 -->
<g id="edge34" class="edge">
<title>Node43&#45;&gt;Node22</title>
<path fill="none" stroke="midnightblue" d="M842.76,-224.08C849.96,-216.3 860.61,-204.8 869.35,-195.37"/>
<polygon fill="midnightblue" stroke="midnightblue" points="872.17,-197.47 876.4,-187.75 867.03,-192.71 872.17,-197.47"/>
</g>
<!-- Node44 -->
<g id="node25" class="node">
<title>Node44</title>
<g id="a_node25"><a xlink:title=" ">
<polygon fill="none" stroke="#bfbfbf" points="710.5,-168.5 710.5,-187.5 804.5,-187.5 804.5,-168.5 710.5,-168.5"/>
<text text-anchor="middle" x="757.5" y="-175.5" font-family="Helvetica,sans-Serif" font-size="10.00">big&#45;int/bigint.hh</text>
</a>
</g>
</g>
<!-- Node43&#45;&gt;Node44 -->
<g id="edge36" class="edge">
<title>Node43&#45;&gt;Node44</title>
<path fill="none" stroke="midnightblue" d="M822.13,-224.32C810.34,-216.06 792.37,-203.45 778.36,-193.63"/>
<polygon fill="midnightblue" stroke="midnightblue" points="780.04,-190.53 769.84,-187.65 776.02,-196.26 780.04,-190.53"/>
</g>
<!-- Node45&#45;&gt;Node5 -->
<g id="edge41" class="edge">
<title>Node45&#45;&gt;Node5</title>
<path fill="none" stroke="midnightblue" d="M408.67,-336.37C394.25,-318.14 360.47,-275.43 341.69,-251.68"/>
<polygon fill="midnightblue" stroke="midnightblue" points="344.24,-249.26 335.3,-243.59 338.75,-253.61 344.24,-249.26"/>
</g>
<!-- Node45&#45;&gt;Node9 -->
<g id="edge42" class="edge">
<title>Node45&#45;&gt;Node9</title>
<path fill="none" stroke="midnightblue" d="M453.14,-336.47C479.33,-329.4 514.3,-317.62 541.5,-300 586.09,-271.12 626.08,-221.89 645.35,-196.02"/>
<polygon fill="midnightblue" stroke="midnightblue" points="648.41,-197.77 651.48,-187.63 642.76,-193.64 648.41,-197.77"/>
</g>
<!-- Node45&#45;&gt;Node42 -->
<g id="edge43" class="edge">
<title>Node45&#45;&gt;Node42</title>
<path fill="none" stroke="midnightblue" d="M428.51,-336.32C441.03,-327.98 460.18,-315.21 474.97,-305.35"/>
<polygon fill="midnightblue" stroke="midnightblue" points="477.14,-308.11 483.52,-299.65 473.26,-302.29 477.14,-308.11"/>
</g>
<!-- Node48&#45;&gt;Node45 -->
<g id="edge61" class="edge">
<title>Node48&#45;&gt;Node45</title>
<path fill="none" stroke="midnightblue" d="M363.46,-392.32C372.63,-384.34 386.44,-372.31 397.53,-362.65"/>
<polygon fill="midnightblue" stroke="midnightblue" points="400.12,-365.04 405.36,-355.83 395.52,-359.76 400.12,-365.04"/>
</g>
<!-- Node49 -->
<g id="node31" class="node">
<title>Node49</title>
<g id="a_node31"><a xlink:href="expr__iterator_8h.html" target="_top" xlink:title="Forward depth&#45;first search iterators These iterators&#39; copy operations are expensive,...">
<polygon fill="none" stroke="black" points="163,-224.5 163,-243.5 270,-243.5 270,-224.5 163,-224.5"/>
<text text-anchor="middle" x="216.5" y="-231.5" font-family="Helvetica,sans-Serif" font-size="10.00">util/expr_iterator.h</text>
</a>
</g>
</g>
<!-- Node48&#45;&gt;Node49 -->
<g id="edge52" class="edge">
<title>Node48&#45;&gt;Node49</title>
<path fill="none" stroke="midnightblue" d="M318.85,-397.14C291.93,-392.24 255.86,-381.12 235.5,-356 211.71,-326.64 211.79,-279.74 214.07,-253.79"/>
<polygon fill="midnightblue" stroke="midnightblue" points="217.56,-254.1 215.15,-243.78 210.6,-253.34 217.56,-254.1"/>
</g>
<!-- Node52 -->
<g id="node35" class="node">
<title>Node52</title>
<g id="a_node35"><a xlink:href="simplify__expr_8h.html" target="_top" xlink:title=" ">
<polygon fill="none" stroke="black" points="244.5,-336.5 244.5,-355.5 354.5,-355.5 354.5,-336.5 244.5,-336.5"/>
<text text-anchor="middle" x="299.5" y="-343.5" font-family="Helvetica,sans-Serif" font-size="10.00">util/simplify_expr.h</text>
</a>
</g>
</g>
<!-- Node48&#45;&gt;Node52 -->
<g id="edge60" class="edge">
<title>Node48&#45;&gt;Node52</title>
<path fill="none" stroke="midnightblue" d="M344.58,-392.08C336.72,-384.22 325.07,-372.57 315.58,-363.08"/>
<polygon fill="midnightblue" stroke="midnightblue" points="317.8,-360.35 308.25,-355.75 312.85,-365.3 317.8,-360.35"/>
</g>
<!-- Node49&#45;&gt;Node8 -->
<g id="edge55" class="edge">
<title>Node49&#45;&gt;Node8</title>
<path fill="none" stroke="midnightblue" d="M162.74,-226.28C116.42,-219.31 54.56,-206.77 38.5,-188 27.8,-175.5 27.31,-156.27 28.89,-141.97"/>
<polygon fill="midnightblue" stroke="midnightblue" points="32.39,-142.19 30.44,-131.77 25.47,-141.13 32.39,-142.19"/>
</g>
<!-- Node49&#45;&gt;Node9 -->
<g id="edge59" class="edge">
<title>Node49&#45;&gt;Node9</title>
<path fill="none" stroke="midnightblue" d="M270.16,-225.61C274.33,-225.06 278.49,-224.51 282.5,-224 401.59,-208.74 542.16,-192.29 612.56,-184.16"/>
<polygon fill="midnightblue" stroke="midnightblue" points="613.3,-187.59 622.84,-182.97 612.5,-180.64 613.3,-187.59"/>
</g>
<!-- Node49&#45;&gt;Node13 -->
<g id="edge58" class="edge">
<title>Node49&#45;&gt;Node13</title>
<path fill="none" stroke="midnightblue" d="M234.49,-224.32C252.54,-215.62 280.55,-202.12 301.3,-192.11"/>
<polygon fill="midnightblue" stroke="midnightblue" points="303.06,-195.15 310.55,-187.65 300.02,-188.84 303.06,-195.15"/>
</g>
<!-- Node49&#45;&gt;Node46 -->
<g id="edge56" class="edge">
<title>Node49&#45;&gt;Node46</title>
<path fill="none" stroke="midnightblue" d="M267.36,-224.44C336.66,-212.79 458.19,-192.34 511.36,-183.4"/>
<polygon fill="midnightblue" stroke="midnightblue" points="512.05,-186.83 521.33,-181.72 510.89,-179.93 512.05,-186.83"/>
</g>
<!-- Node50 -->
<g id="node32" class="node">
<title>Node50</title>
<g id="a_node32"><a xlink:title=" ">
<polygon fill="none" stroke="#bfbfbf" points="48,-168.5 48,-187.5 95,-187.5 95,-168.5 48,-168.5"/>
<text text-anchor="middle" x="71.5" y="-175.5" font-family="Helvetica,sans-Serif" font-size="10.00">deque</text>
</a>
</g>
</g>
<!-- Node49&#45;&gt;Node50 -->
<g id="edge53" class="edge">
<title>Node49&#45;&gt;Node50</title>
<path fill="none" stroke="midnightblue" d="M193.52,-224.44C169.34,-215.44 131.08,-201.19 103.85,-191.05"/>
<polygon fill="midnightblue" stroke="midnightblue" points="104.96,-187.73 94.37,-187.52 102.52,-194.29 104.96,-187.73"/>
</g>
<!-- Node51 -->
<g id="node33" class="node">
<title>Node51</title>
<g id="a_node33"><a xlink:title=" ">
<polygon fill="none" stroke="#bfbfbf" points="113,-168.5 113,-187.5 166,-187.5 166,-168.5 113,-168.5"/>
<text text-anchor="middle" x="139.5" y="-175.5" font-family="Helvetica,sans-Serif" font-size="10.00">iterator</text>
</a>
</g>
</g>
<!-- Node49&#45;&gt;Node51 -->
<g id="edge54" class="edge">
<title>Node49&#45;&gt;Node51</title>
<path fill="none" stroke="midnightblue" d="M204.13,-224.32C192.34,-216.06 174.37,-203.45 160.36,-193.63"/>
<polygon fill="midnightblue" stroke="midnightblue" points="162.04,-190.53 151.84,-187.65 158.02,-196.26 162.04,-190.53"/>
</g>
<!-- Node32 -->
<g id="node34" class="node">
<title>Node32</title>
<g id="a_node34"><a xlink:title=" ">
<polygon fill="none" stroke="#bfbfbf" points="184.5,-168.5 184.5,-187.5 248.5,-187.5 248.5,-168.5 184.5,-168.5"/>
<text text-anchor="middle" x="216.5" y="-175.5" font-family="Helvetica,sans-Serif" font-size="10.00">algorithm</text>
</a>
</g>
</g>
<!-- Node49&#45;&gt;Node32 -->
<g id="edge57" class="edge">
<title>Node49&#45;&gt;Node32</title>
<path fill="none" stroke="midnightblue" d="M216.5,-224.08C216.5,-217.01 216.5,-206.86 216.5,-197.99"/>
<polygon fill="midnightblue" stroke="midnightblue" points="220,-197.75 216.5,-187.75 213,-197.75 220,-197.75"/>
</g>
</g>
</svg>
