<?xml version="1.0" encoding="UTF-8" standalone="no"?>
<!DOCTYPE svg PUBLIC "-//W3C//DTD SVG 1.1//EN"
 "http://www.w3.org/Graphics/SVG/1.1/DTD/svg11.dtd">
<!-- Generated by graphviz version 2.43.0 (0)
 -->
<!-- Title: /home/runner/work/cbmc/cbmc/src/goto&#45;checker/symex_coverage.cpp Pages: 1 -->
<svg width="1463pt" height="576pt"
 viewBox="0.00 0.00 1463.06 576.00" xmlns="http://www.w3.org/2000/svg" xmlns:xlink="http://www.w3.org/1999/xlink">
<g id="graph0" class="graph" transform="scale(1 1) rotate(0) translate(4 572)">
<title>/home/runner/work/cbmc/cbmc/src/goto&#45;checker/symex_coverage.cpp</title>
<!-- Node1 -->
<g id="node1" class="node">
<title>Node1</title>
<g id="a_node1"><a xlink:title="Record and print code coverage of symbolic execution.">
<polygon fill="#bfbfbf" stroke="black" points="1037.06,-526.5 1037.06,-567.5 1175.06,-567.5 1175.06,-526.5 1037.06,-526.5"/>
<text text-anchor="start" x="1045.06" y="-555.5" font-family="Helvetica,sans-Serif" font-size="10.00">/home/runner/work/cbmc</text>
<text text-anchor="start" x="1045.06" y="-544.5" font-family="Helvetica,sans-Serif" font-size="10.00">/cbmc/src/goto&#45;checker</text>
<text text-anchor="middle" x="1106.06" y="-533.5" font-family="Helvetica,sans-Serif" font-size="10.00">/symex_coverage.cpp</text>
</a>
</g>
</g>
<!-- Node2 -->
<g id="node2" class="node">
<title>Node2</title>
<g id="a_node2"><a xlink:href="symex__coverage_8h.html" target="_top" xlink:title="Record and print code coverage of symbolic execution.">
<polygon fill="none" stroke="black" points="194.56,-403.5 194.56,-422.5 303.56,-422.5 303.56,-403.5 194.56,-403.5"/>
<text text-anchor="middle" x="249.06" y="-410.5" font-family="Helvetica,sans-Serif" font-size="10.00">symex_coverage.h</text>
</a>
</g>
</g>
<!-- Node1&#45;&gt;Node2 -->
<g id="edge1" class="edge">
<title>Node1&#45;&gt;Node2</title>
<path fill="none" stroke="midnightblue" d="M1037.02,-535.37C874.88,-510.39 471.61,-448.28 313.82,-423.97"/>
<polygon fill="midnightblue" stroke="midnightblue" points="314.2,-420.49 303.79,-422.43 313.14,-427.41 314.2,-420.49"/>
</g>
<!-- Node50 -->
<g id="node25" class="node">
<title>Node50</title>
<g id="a_node25"><a xlink:href="namespace_8h.html" target="_top" xlink:title=" ">
<polygon fill="none" stroke="black" points="1089.56,-168.5 1089.56,-187.5 1190.56,-187.5 1190.56,-168.5 1089.56,-168.5"/>
<text text-anchor="middle" x="1140.06" y="-175.5" font-family="Helvetica,sans-Serif" font-size="10.00">util/namespace.h</text>
</a>
</g>
</g>
<!-- Node1&#45;&gt;Node50 -->
<g id="edge44" class="edge">
<title>Node1&#45;&gt;Node50</title>
<path fill="none" stroke="midnightblue" d="M1110.66,-526.45C1116.29,-500.79 1125.06,-454.29 1125.06,-414 1125.06,-414 1125.06,-414 1125.06,-289 1125.06,-256.5 1131.57,-219.1 1136.01,-197.34"/>
<polygon fill="midnightblue" stroke="midnightblue" points="1139.45,-198.01 1138.1,-187.5 1132.6,-196.56 1139.45,-198.01"/>
</g>
<!-- Node51 -->
<g id="node26" class="node">
<title>Node51</title>
<g id="a_node26"><a xlink:href="string2int_8h.html" target="_top" xlink:title=" ">
<polygon fill="none" stroke="black" points="1208.56,-168.5 1208.56,-187.5 1299.56,-187.5 1299.56,-168.5 1208.56,-168.5"/>
<text text-anchor="middle" x="1254.06" y="-175.5" font-family="Helvetica,sans-Serif" font-size="10.00">util/string2int.h</text>
</a>
</g>
</g>
<!-- Node1&#45;&gt;Node51 -->
<g id="edge47" class="edge">
<title>Node1&#45;&gt;Node51</title>
<path fill="none" stroke="midnightblue" d="M1120.74,-526.12C1137.63,-501.24 1163.06,-456.69 1163.06,-414 1163.06,-414 1163.06,-414 1163.06,-289 1163.06,-246.47 1203.95,-211.53 1230.91,-193.12"/>
<polygon fill="midnightblue" stroke="midnightblue" points="1233,-195.93 1239.44,-187.52 1229.16,-190.08 1233,-195.93"/>
</g>
<!-- Node52 -->
<g id="node28" class="node">
<title>Node52</title>
<g id="a_node28"><a xlink:href="symbol_8h.html" target="_top" xlink:title="Symbol table entry.">
<polygon fill="none" stroke="black" points="418.06,-112.5 418.06,-131.5 498.06,-131.5 498.06,-112.5 418.06,-112.5"/>
<text text-anchor="middle" x="458.06" y="-119.5" font-family="Helvetica,sans-Serif" font-size="10.00">util/symbol.h</text>
</a>
</g>
</g>
<!-- Node1&#45;&gt;Node52 -->
<g id="edge54" class="edge">
<title>Node1&#45;&gt;Node52</title>
<path fill="none" stroke="midnightblue" d="M1037.02,-544.53C903.44,-540.89 600.61,-528.73 349.06,-490 188.59,-465.29 69.78,-515.92 5.06,-367 -0.43,-354.36 -2.32,-347.63 5.06,-336 53.47,-259.75 321.92,-166.9 421.17,-134.67"/>
<polygon fill="midnightblue" stroke="midnightblue" points="422.34,-137.97 430.78,-131.57 420.19,-131.31 422.34,-137.97"/>
</g>
<!-- Node53 -->
<g id="node29" class="node">
<title>Node53</title>
<g id="a_node29"><a xlink:href="xml_8h.html" target="_top" xlink:title=" ">
<polygon fill="none" stroke="black" points="74.56,-403.5 74.56,-422.5 137.56,-422.5 137.56,-403.5 74.56,-403.5"/>
<text text-anchor="middle" x="106.06" y="-410.5" font-family="Helvetica,sans-Serif" font-size="10.00">util/xml.h</text>
</a>
</g>
</g>
<!-- Node1&#45;&gt;Node53 -->
<g id="edge58" class="edge">
<title>Node1&#45;&gt;Node53</title>
<path fill="none" stroke="midnightblue" d="M1037.03,-540.67C931.29,-532.14 722.96,-513.94 547.06,-490 399.53,-469.92 225.74,-437.31 147.69,-422.19"/>
<polygon fill="midnightblue" stroke="midnightblue" points="148.25,-418.73 137.77,-420.26 146.92,-425.6 148.25,-418.73"/>
</g>
<!-- Node54 -->
<g id="node31" class="node">
<title>Node54</title>
<g id="a_node31"><a xlink:href="goto__functions_8h.html" target="_top" xlink:title="Goto Programs with Functions.">
<polygon fill="none" stroke="black" points="804.56,-459.5 804.56,-489.5 917.56,-489.5 917.56,-459.5 804.56,-459.5"/>
<text text-anchor="start" x="812.56" y="-477.5" font-family="Helvetica,sans-Serif" font-size="10.00">goto&#45;programs/goto</text>
<text text-anchor="middle" x="861.06" y="-466.5" font-family="Helvetica,sans-Serif" font-size="10.00">_functions.h</text>
</a>
</g>
</g>
<!-- Node1&#45;&gt;Node54 -->
<g id="edge63" class="edge">
<title>Node1&#45;&gt;Node54</title>
<path fill="none" stroke="midnightblue" d="M1038.14,-526.46C1000.99,-515.77 955.42,-502.65 919.82,-492.41"/>
<polygon fill="midnightblue" stroke="midnightblue" points="920.63,-489 910.05,-489.6 918.7,-495.73 920.63,-489"/>
</g>
<!-- Node57 -->
<g id="node34" class="node">
<title>Node57</title>
<g id="a_node34"><a xlink:href="language__util_8h.html" target="_top" xlink:title=" ">
<polygon fill="none" stroke="black" points="965.56,-224.5 965.56,-243.5 1096.56,-243.5 1096.56,-224.5 965.56,-224.5"/>
<text text-anchor="middle" x="1031.06" y="-231.5" font-family="Helvetica,sans-Serif" font-size="10.00">langapi/language_util.h</text>
</a>
</g>
</g>
<!-- Node1&#45;&gt;Node57 -->
<g id="edge69" class="edge">
<title>Node1&#45;&gt;Node57</title>
<path fill="none" stroke="midnightblue" d="M1101.47,-526.45C1095.84,-500.79 1087.06,-454.29 1087.06,-414 1087.06,-414 1087.06,-414 1087.06,-350.5 1087.06,-312.09 1061.68,-273.04 1045.09,-251.63"/>
<polygon fill="midnightblue" stroke="midnightblue" points="1047.61,-249.18 1038.62,-243.58 1042.16,-253.57 1047.61,-249.18"/>
</g>
<!-- Node58 -->
<g id="node35" class="node">
<title>Node58</title>
<g id="a_node35"><a xlink:href="static__lifetime__init_8h.html" target="_top" xlink:title=" ">
<polygon fill="none" stroke="black" points="935.56,-459.5 935.56,-489.5 1058.56,-489.5 1058.56,-459.5 935.56,-459.5"/>
<text text-anchor="start" x="943.56" y="-477.5" font-family="Helvetica,sans-Serif" font-size="10.00">linking/static_lifetime</text>
<text text-anchor="middle" x="997.06" y="-466.5" font-family="Helvetica,sans-Serif" font-size="10.00">_init.h</text>
</a>
</g>
</g>
<!-- Node1&#45;&gt;Node58 -->
<g id="edge71" class="edge">
<title>Node1&#45;&gt;Node58</title>
<path fill="none" stroke="midnightblue" d="M1075.7,-526.36C1060.64,-516.62 1042.5,-504.89 1027.44,-495.15"/>
<polygon fill="midnightblue" stroke="midnightblue" points="1029.27,-492.16 1018.97,-489.67 1025.47,-498.04 1029.27,-492.16"/>
</g>
<!-- Node59 -->
<g id="node36" class="node">
<title>Node59</title>
<g id="a_node36"><a xlink:title=" ">
<polygon fill="none" stroke="#bfbfbf" points="1191.06,-465 1191.06,-484 1241.06,-484 1241.06,-465 1191.06,-465"/>
<text text-anchor="middle" x="1216.06" y="-472" font-family="Helvetica,sans-Serif" font-size="10.00">chrono</text>
</a>
</g>
</g>
<!-- Node1&#45;&gt;Node59 -->
<g id="edge73" class="edge">
<title>Node1&#45;&gt;Node59</title>
<path fill="none" stroke="midnightblue" d="M1136.71,-526.36C1154.94,-514.67 1177.66,-500.12 1194.11,-489.57"/>
<polygon fill="midnightblue" stroke="midnightblue" points="1196,-492.52 1202.53,-484.17 1192.22,-486.62 1196,-492.52"/>
</g>
<!-- Node60 -->
<g id="node37" class="node">
<title>Node60</title>
<g id="a_node37"><a xlink:title=" ">
<polygon fill="none" stroke="#bfbfbf" points="1259.06,-465 1259.06,-484 1303.06,-484 1303.06,-465 1259.06,-465"/>
<text text-anchor="middle" x="1281.06" y="-472" font-family="Helvetica,sans-Serif" font-size="10.00">ctime</text>
</a>
</g>
</g>
<!-- Node1&#45;&gt;Node60 -->
<g id="edge74" class="edge">
<title>Node1&#45;&gt;Node60</title>
<path fill="none" stroke="midnightblue" d="M1158.73,-526.48C1186.14,-516.08 1220.1,-502.82 1250.06,-490 1251.26,-489.49 1252.48,-488.96 1253.71,-488.41"/>
<polygon fill="midnightblue" stroke="midnightblue" points="1255.47,-491.46 1263.12,-484.14 1252.57,-485.09 1255.47,-491.46"/>
</g>
<!-- Node61 -->
<g id="node38" class="node">
<title>Node61</title>
<g id="a_node38"><a xlink:title=" ">
<polygon fill="none" stroke="#bfbfbf" points="1321.56,-465 1321.56,-484 1376.56,-484 1376.56,-465 1321.56,-465"/>
<text text-anchor="middle" x="1349.06" y="-472" font-family="Helvetica,sans-Serif" font-size="10.00">fstream</text>
</a>
</g>
</g>
<!-- Node1&#45;&gt;Node61 -->
<g id="edge75" class="edge">
<title>Node1&#45;&gt;Node61</title>
<path fill="none" stroke="midnightblue" d="M1175.29,-529.17C1215.53,-518.9 1267.03,-504.9 1312.06,-490 1314.33,-489.25 1316.66,-488.44 1318.99,-487.6"/>
<polygon fill="midnightblue" stroke="midnightblue" points="1320.34,-490.83 1328.47,-484.03 1317.87,-484.28 1320.34,-490.83"/>
</g>
<!-- Node62 -->
<g id="node39" class="node">
<title>Node62</title>
<g id="a_node39"><a xlink:title=" ">
<polygon fill="none" stroke="#bfbfbf" points="1395.06,-465 1395.06,-484 1455.06,-484 1455.06,-465 1395.06,-465"/>
<text text-anchor="middle" x="1425.06" y="-472" font-family="Helvetica,sans-Serif" font-size="10.00">iostream</text>
</a>
</g>
</g>
<!-- Node1&#45;&gt;Node62 -->
<g id="edge76" class="edge">
<title>Node1&#45;&gt;Node62</title>
<path fill="none" stroke="midnightblue" d="M1175.26,-535.31C1232.37,-525.73 1315.25,-510.11 1386.06,-490 1388.71,-489.25 1391.43,-488.4 1394.15,-487.5"/>
<polygon fill="midnightblue" stroke="midnightblue" points="1395.54,-490.72 1403.81,-484.1 1393.22,-484.12 1395.54,-490.72"/>
</g>
<!-- Node3 -->
<g id="node3" class="node">
<title>Node3</title>
<g id="a_node3"><a xlink:title=" ">
<polygon fill="none" stroke="#bfbfbf" points="226.06,-56.5 226.06,-75.5 274.06,-75.5 274.06,-56.5 226.06,-56.5"/>
<text text-anchor="middle" x="250.06" y="-63.5" font-family="Helvetica,sans-Serif" font-size="10.00">iosfwd</text>
</a>
</g>
</g>
<!-- Node2&#45;&gt;Node3 -->
<g id="edge2" class="edge">
<title>Node2&#45;&gt;Node3</title>
<path fill="none" stroke="midnightblue" d="M247.1,-403.21C241.54,-377.49 226.06,-300.07 226.06,-235 226.06,-235 226.06,-235 226.06,-177 226.06,-144.06 236.47,-106.82 243.57,-85.21"/>
<polygon fill="midnightblue" stroke="midnightblue" points="246.9,-86.29 246.83,-75.7 240.28,-84.03 246.9,-86.29"/>
</g>
<!-- Node4 -->
<g id="node4" class="node">
<title>Node4</title>
<g id="a_node4"><a xlink:title=" ">
<polygon fill="none" stroke="#bfbfbf" points="140.06,-342 140.06,-361 178.06,-361 178.06,-342 140.06,-342"/>
<text text-anchor="middle" x="159.06" y="-349" font-family="Helvetica,sans-Serif" font-size="10.00">map</text>
</a>
</g>
</g>
<!-- Node2&#45;&gt;Node4 -->
<g id="edge3" class="edge">
<title>Node2&#45;&gt;Node4</title>
<path fill="none" stroke="midnightblue" d="M236.17,-403.48C221.6,-393.84 197.66,-378.02 180.32,-366.55"/>
<polygon fill="midnightblue" stroke="midnightblue" points="182.21,-363.6 171.94,-361.01 178.35,-369.44 182.21,-363.6"/>
</g>
<!-- Node5 -->
<g id="node5" class="node">
<title>Node5</title>
<g id="a_node5"><a xlink:title=" ">
<polygon fill="none" stroke="#bfbfbf" points="755.06,-0.5 755.06,-19.5 799.06,-19.5 799.06,-0.5 755.06,-0.5"/>
<text text-anchor="middle" x="777.06" y="-7.5" font-family="Helvetica,sans-Serif" font-size="10.00">string</text>
</a>
</g>
</g>
<!-- Node2&#45;&gt;Node5 -->
<g id="edge4" class="edge">
<title>Node2&#45;&gt;Node5</title>
<path fill="none" stroke="midnightblue" d="M242.57,-403.17C220.54,-372.89 150.06,-273.03 150.06,-235 150.06,-235 150.06,-235 150.06,-121 150.06,-79.51 179.27,-73.11 217.06,-56 241.24,-45.05 629.28,-20.18 744.84,-12.98"/>
<polygon fill="midnightblue" stroke="midnightblue" points="745.08,-16.48 754.85,-12.36 744.65,-9.49 745.08,-16.48"/>
</g>
<!-- Node6 -->
<g id="node6" class="node">
<title>Node6</title>
<g id="a_node6"><a xlink:href="goto__program_8h.html" target="_top" xlink:title="Concrete Goto Program.">
<polygon fill="none" stroke="black" points="647.56,-336.5 647.56,-366.5 760.56,-366.5 760.56,-336.5 647.56,-336.5"/>
<text text-anchor="start" x="655.56" y="-354.5" font-family="Helvetica,sans-Serif" font-size="10.00">goto&#45;programs/goto</text>
<text text-anchor="middle" x="704.06" y="-343.5" font-family="Helvetica,sans-Serif" font-size="10.00">_program.h</text>
</a>
</g>
</g>
<!-- Node2&#45;&gt;Node6 -->
<g id="edge5" class="edge">
<title>Node2&#45;&gt;Node6</title>
<path fill="none" stroke="midnightblue" d="M303.95,-404.82C387.7,-393.87 547.17,-373.02 637.44,-361.21"/>
<polygon fill="midnightblue" stroke="midnightblue" points="638.1,-364.66 647.56,-359.89 637.19,-357.72 638.1,-364.66"/>
</g>
<!-- Node6&#45;&gt;Node3 -->
<g id="edge33" class="edge">
<title>Node6&#45;&gt;Node3</title>
<path fill="none" stroke="midnightblue" d="M647.37,-350.72C546.78,-349.97 342.5,-343.03 288.06,-300 263.91,-280.9 264.06,-265.8 264.06,-235 264.06,-235 264.06,-235 264.06,-177 264.06,-144.54 257.99,-107.12 253.85,-85.36"/>
<polygon fill="midnightblue" stroke="midnightblue" points="257.27,-84.64 251.9,-75.51 250.41,-86 257.27,-84.64"/>
</g>
<!-- Node6&#45;&gt;Node5 -->
<g id="edge36" class="edge">
<title>Node6&#45;&gt;Node5</title>
<path fill="none" stroke="midnightblue" d="M647.32,-346.09C536.51,-335.91 302.06,-305.98 302.06,-235 302.06,-235 302.06,-235 302.06,-121 302.06,-116.1 276.83,-104.14 442.06,-56 550.22,-24.49 684.55,-14.93 744.98,-12.12"/>
<polygon fill="midnightblue" stroke="midnightblue" points="745.2,-15.62 755.04,-11.69 744.9,-8.62 745.2,-15.62"/>
</g>
<!-- Node7 -->
<g id="node7" class="node">
<title>Node7</title>
<g id="a_node7"><a xlink:href="goto__instruction__code_8h.html" target="_top" xlink:title=" ">
<polygon fill="none" stroke="black" points="637.56,-280.5 637.56,-299.5 770.56,-299.5 770.56,-280.5 637.56,-280.5"/>
<text text-anchor="middle" x="704.06" y="-287.5" font-family="Helvetica,sans-Serif" font-size="10.00">goto_instruction_code.h</text>
</a>
</g>
</g>
<!-- Node6&#45;&gt;Node7 -->
<g id="edge6" class="edge">
<title>Node6&#45;&gt;Node7</title>
<path fill="none" stroke="midnightblue" d="M704.06,-336.4C704.06,-328.47 704.06,-318.46 704.06,-309.86"/>
<polygon fill="midnightblue" stroke="midnightblue" points="707.56,-309.66 704.06,-299.66 700.56,-309.66 707.56,-309.66"/>
</g>
<!-- Node13 -->
<g id="node13" class="node">
<title>Node13</title>
<g id="a_node13"><a xlink:href="src_2util_2invariant_8h.html" target="_top" xlink:title=" ">
<polygon fill="none" stroke="red" points="893.56,-56.5 893.56,-75.5 962.56,-75.5 962.56,-56.5 893.56,-56.5"/>
<text text-anchor="middle" x="928.06" y="-63.5" font-family="Helvetica,sans-Serif" font-size="10.00">invariant.h</text>
</a>
</g>
</g>
<!-- Node6&#45;&gt;Node13 -->
<g id="edge37" class="edge">
<title>Node6&#45;&gt;Node13</title>
<path fill="none" stroke="midnightblue" d="M760.82,-348.19C799.36,-343.63 848.81,-331.46 880.06,-300 907.39,-272.5 921.5,-170.37 927.06,-132 929.3,-116.62 929.42,-98.99 929.05,-85.97"/>
<polygon fill="midnightblue" stroke="midnightblue" points="932.55,-85.74 928.65,-75.89 925.55,-86.02 932.55,-85.74"/>
</g>
<!-- Node48 -->
<g id="node20" class="node">
<title>Node48</title>
<g id="a_node20"><a xlink:title=" ">
<polygon fill="none" stroke="#bfbfbf" points="587.06,-280.5 587.06,-299.5 619.06,-299.5 619.06,-280.5 587.06,-280.5"/>
<text text-anchor="middle" x="603.06" y="-287.5" font-family="Helvetica,sans-Serif" font-size="10.00">set</text>
</a>
</g>
</g>
<!-- Node6&#45;&gt;Node48 -->
<g id="edge34" class="edge">
<title>Node6&#45;&gt;Node48</title>
<path fill="none" stroke="midnightblue" d="M680.13,-336.4C663.94,-326.86 642.66,-314.32 626.56,-304.84"/>
<polygon fill="midnightblue" stroke="midnightblue" points="628.15,-301.72 617.76,-299.66 624.6,-307.75 628.15,-301.72"/>
</g>
<!-- Node49 -->
<g id="node21" class="node">
<title>Node49</title>
<g id="a_node21"><a xlink:title=" ">
<polygon fill="none" stroke="#bfbfbf" points="827.06,-280.5 827.06,-299.5 871.06,-299.5 871.06,-280.5 827.06,-280.5"/>
<text text-anchor="middle" x="849.06" y="-287.5" font-family="Helvetica,sans-Serif" font-size="10.00">limits</text>
</a>
</g>
</g>
<!-- Node6&#45;&gt;Node49 -->
<g id="edge35" class="edge">
<title>Node6&#45;&gt;Node49</title>
<path fill="none" stroke="midnightblue" d="M738.43,-336.4C762.76,-326.42 795.09,-313.15 818.52,-303.53"/>
<polygon fill="midnightblue" stroke="midnightblue" points="820.04,-306.69 827.97,-299.66 817.39,-300.22 820.04,-306.69"/>
</g>
<!-- Node19 -->
<g id="node22" class="node">
<title>Node19</title>
<g id="a_node22"><a xlink:href="source__location_8h.html" target="_top" xlink:title=" ">
<polygon fill="none" stroke="red" points="931.06,-168.5 931.06,-187.5 1033.06,-187.5 1033.06,-168.5 931.06,-168.5"/>
<text text-anchor="middle" x="982.06" y="-175.5" font-family="Helvetica,sans-Serif" font-size="10.00">source_location.h</text>
</a>
</g>
</g>
<!-- Node6&#45;&gt;Node19 -->
<g id="edge38" class="edge">
<title>Node6&#45;&gt;Node19</title>
<path fill="none" stroke="midnightblue" d="M726.66,-336.27C749.58,-321.9 786.13,-299.14 818.06,-280 845.4,-263.62 852.85,-260.57 880.06,-244 908.06,-226.96 939.84,-206.53 960.38,-193.19"/>
<polygon fill="midnightblue" stroke="midnightblue" points="962.5,-195.98 968.97,-187.59 958.68,-190.12 962.5,-195.98"/>
</g>
<!-- Node8 -->
<g id="node8" class="node">
<title>Node8</title>
<g id="a_node8"><a xlink:href="std__code__base_8h.html" target="_top" xlink:title=" ">
<polygon fill="none" stroke="black" points="755.06,-224.5 755.06,-243.5 871.06,-243.5 871.06,-224.5 755.06,-224.5"/>
<text text-anchor="middle" x="813.06" y="-231.5" font-family="Helvetica,sans-Serif" font-size="10.00">util/std_code_base.h</text>
</a>
</g>
</g>
<!-- Node7&#45;&gt;Node8 -->
<g id="edge7" class="edge">
<title>Node7&#45;&gt;Node8</title>
<path fill="none" stroke="midnightblue" d="M721.58,-280.32C739.14,-271.62 766.4,-258.12 786.6,-248.11"/>
<polygon fill="midnightblue" stroke="midnightblue" points="788.19,-251.23 795.6,-243.65 785.08,-244.96 788.19,-251.23"/>
</g>
<!-- Node47 -->
<g id="node19" class="node">
<title>Node47</title>
<g id="a_node19"><a xlink:href="std__expr_8h.html" target="_top" xlink:title="API to expression classes.">
<polygon fill="none" stroke="black" points="613.06,-224.5 613.06,-243.5 699.06,-243.5 699.06,-224.5 613.06,-224.5"/>
<text text-anchor="middle" x="656.06" y="-231.5" font-family="Helvetica,sans-Serif" font-size="10.00">util/std_expr.h</text>
</a>
</g>
</g>
<!-- Node7&#45;&gt;Node47 -->
<g id="edge29" class="edge">
<title>Node7&#45;&gt;Node47</title>
<path fill="none" stroke="midnightblue" d="M696.14,-280.08C689.22,-272.3 679,-260.8 670.61,-251.37"/>
<polygon fill="midnightblue" stroke="midnightblue" points="673.1,-248.9 663.84,-243.75 667.87,-253.55 673.1,-248.9"/>
</g>
<!-- Node9 -->
<g id="node9" class="node">
<title>Node9</title>
<g id="a_node9"><a xlink:href="expr__cast_8h.html" target="_top" xlink:title="Templated functions to cast to specific exprt&#45;derived classes.">
<polygon fill="none" stroke="black" points="554.56,-112.5 554.56,-131.5 627.56,-131.5 627.56,-112.5 554.56,-112.5"/>
<text text-anchor="middle" x="591.06" y="-119.5" font-family="Helvetica,sans-Serif" font-size="10.00">expr_cast.h</text>
</a>
</g>
</g>
<!-- Node8&#45;&gt;Node9 -->
<g id="edge8" class="edge">
<title>Node8&#45;&gt;Node9</title>
<path fill="none" stroke="midnightblue" d="M809.65,-224.34C803.64,-210.27 789.82,-182.55 769.06,-168 748.08,-153.28 683.2,-139.29 637.87,-130.93"/>
<polygon fill="midnightblue" stroke="midnightblue" points="638.41,-127.47 627.95,-129.13 637.16,-134.36 638.41,-127.47"/>
</g>
<!-- Node8&#45;&gt;Node13 -->
<g id="edge17" class="edge">
<title>Node8&#45;&gt;Node13</title>
<path fill="none" stroke="midnightblue" d="M824.35,-224.27C844.36,-208.18 886.14,-171.84 909.06,-132 917.4,-117.51 922.34,-99.07 925.08,-85.53"/>
<polygon fill="midnightblue" stroke="midnightblue" points="928.56,-85.97 926.9,-75.5 921.67,-84.72 928.56,-85.97"/>
</g>
<!-- Node44 -->
<g id="node15" class="node">
<title>Node44</title>
<g id="a_node15"><a xlink:href="std__types_8h.html" target="_top" xlink:title="Pre&#45;defined types.">
<polygon fill="none" stroke="black" points="687.56,-168.5 687.56,-187.5 760.56,-187.5 760.56,-168.5 687.56,-168.5"/>
<text text-anchor="middle" x="724.06" y="-175.5" font-family="Helvetica,sans-Serif" font-size="10.00">std_types.h</text>
</a>
</g>
</g>
<!-- Node8&#45;&gt;Node44 -->
<g id="edge18" class="edge">
<title>Node8&#45;&gt;Node44</title>
<path fill="none" stroke="midnightblue" d="M798.77,-224.32C784.88,-215.9 763.57,-202.97 747.26,-193.07"/>
<polygon fill="midnightblue" stroke="midnightblue" points="748.69,-189.85 738.33,-187.65 745.06,-195.83 748.69,-189.85"/>
</g>
<!-- Node39 -->
<g id="node17" class="node">
<title>Node39</title>
<g id="a_node17"><a xlink:href="validate_8h.html" target="_top" xlink:title=" ">
<polygon fill="none" stroke="red" points="834.56,-112.5 834.56,-131.5 899.56,-131.5 899.56,-112.5 834.56,-112.5"/>
<text text-anchor="middle" x="867.06" y="-119.5" font-family="Helvetica,sans-Serif" font-size="10.00">validate.h</text>
</a>
</g>
</g>
<!-- Node8&#45;&gt;Node39 -->
<g id="edge28" class="edge">
<title>Node8&#45;&gt;Node39</title>
<path fill="none" stroke="midnightblue" d="M817.3,-224.37C826.13,-206.38 846.67,-164.55 858.41,-140.63"/>
<polygon fill="midnightblue" stroke="midnightblue" points="861.58,-142.11 862.85,-131.59 855.3,-139.03 861.58,-142.11"/>
</g>
<!-- Node10 -->
<g id="node10" class="node">
<title>Node10</title>
<g id="a_node10"><a xlink:title=" ">
<polygon fill="none" stroke="#bfbfbf" points="606.56,-56.5 606.56,-75.5 663.56,-75.5 663.56,-56.5 606.56,-56.5"/>
<text text-anchor="middle" x="635.06" y="-63.5" font-family="Helvetica,sans-Serif" font-size="10.00">typeinfo</text>
</a>
</g>
</g>
<!-- Node9&#45;&gt;Node10 -->
<g id="edge9" class="edge">
<title>Node9&#45;&gt;Node10</title>
<path fill="none" stroke="midnightblue" d="M598.33,-112.08C604.61,-104.38 613.85,-93.03 621.5,-83.65"/>
<polygon fill="midnightblue" stroke="midnightblue" points="624.33,-85.71 627.93,-75.75 618.9,-81.29 624.33,-85.71"/>
</g>
<!-- Node11 -->
<g id="node11" class="node">
<title>Node11</title>
<g id="a_node11"><a xlink:title=" ">
<polygon fill="none" stroke="#bfbfbf" points="1201.56,-0.5 1201.56,-19.5 1270.56,-19.5 1270.56,-0.5 1201.56,-0.5"/>
<text text-anchor="middle" x="1236.06" y="-7.5" font-family="Helvetica,sans-Serif" font-size="10.00">type_traits</text>
</a>
</g>
</g>
<!-- Node9&#45;&gt;Node11 -->
<g id="edge10" class="edge">
<title>Node9&#45;&gt;Node11</title>
<path fill="none" stroke="midnightblue" d="M624.7,-112.49C678.98,-98.99 789.36,-72.52 884.06,-56 993.81,-36.85 1124.14,-22.3 1191.22,-15.41"/>
<polygon fill="midnightblue" stroke="midnightblue" points="1191.84,-18.86 1201.43,-14.37 1191.13,-11.9 1191.84,-18.86"/>
</g>
<!-- Node12 -->
<g id="node12" class="node">
<title>Node12</title>
<g id="a_node12"><a xlink:title=" ">
<polygon fill="none" stroke="#bfbfbf" points="519.56,-0.5 519.56,-19.5 584.56,-19.5 584.56,-0.5 519.56,-0.5"/>
<text text-anchor="middle" x="552.06" y="-7.5" font-family="Helvetica,sans-Serif" font-size="10.00">functional</text>
</a>
</g>
</g>
<!-- Node9&#45;&gt;Node12 -->
<g id="edge11" class="edge">
<title>Node9&#45;&gt;Node12</title>
<path fill="none" stroke="midnightblue" d="M588,-112.37C581.68,-94.54 567.06,-53.3 558.54,-29.27"/>
<polygon fill="midnightblue" stroke="midnightblue" points="561.75,-27.85 555.11,-19.59 555.15,-30.19 561.75,-27.85"/>
</g>
<!-- Node9&#45;&gt;Node13 -->
<g id="edge12" class="edge">
<title>Node9&#45;&gt;Node13</title>
<path fill="none" stroke="midnightblue" d="M627.82,-114.43C632.61,-113.6 637.45,-112.77 642.06,-112 727.24,-97.78 826.91,-82.38 883.25,-73.79"/>
<polygon fill="midnightblue" stroke="midnightblue" points="883.89,-77.23 893.25,-72.26 882.84,-70.31 883.89,-77.23"/>
</g>
<!-- Node16 -->
<g id="node14" class="node">
<title>Node16</title>
<g id="a_node14"><a xlink:href="expr_8h.html" target="_top" xlink:title=" ">
<polygon fill="none" stroke="red" points="502.56,-56.5 502.56,-75.5 549.56,-75.5 549.56,-56.5 502.56,-56.5"/>
<text text-anchor="middle" x="526.06" y="-63.5" font-family="Helvetica,sans-Serif" font-size="10.00">expr.h</text>
</a>
</g>
</g>
<!-- Node9&#45;&gt;Node16 -->
<g id="edge15" class="edge">
<title>Node9&#45;&gt;Node16</title>
<path fill="none" stroke="midnightblue" d="M580.62,-112.32C570.92,-104.26 556.25,-92.08 544.57,-82.37"/>
<polygon fill="midnightblue" stroke="midnightblue" points="546.63,-79.53 536.7,-75.83 542.15,-84.92 546.63,-79.53"/>
</g>
<!-- Node13&#45;&gt;Node5 -->
<g id="edge13" class="edge">
<title>Node13&#45;&gt;Node5</title>
<path fill="none" stroke="midnightblue" d="M904.14,-56.44C878.4,-47.24 837.34,-32.56 808.89,-22.38"/>
<polygon fill="midnightblue" stroke="midnightblue" points="810,-19.06 799.4,-18.99 807.64,-25.65 810,-19.06"/>
</g>
<!-- Node13&#45;&gt;Node11 -->
<g id="edge14" class="edge">
<title>Node13&#45;&gt;Node11</title>
<path fill="none" stroke="midnightblue" d="M962.8,-58.91C1018.98,-49.06 1129.73,-29.64 1191.6,-18.8"/>
<polygon fill="midnightblue" stroke="midnightblue" points="1192.21,-22.24 1201.46,-17.07 1191,-15.35 1192.21,-22.24"/>
</g>
<!-- Node16&#45;&gt;Node12 -->
<g id="edge16" class="edge">
<title>Node16&#45;&gt;Node12</title>
<path fill="none" stroke="midnightblue" d="M530.36,-56.08C533.92,-48.69 539.09,-37.95 543.49,-28.81"/>
<polygon fill="midnightblue" stroke="midnightblue" points="546.67,-30.28 547.85,-19.75 540.36,-27.24 546.67,-30.28"/>
</g>
<!-- Node44&#45;&gt;Node9 -->
<g id="edge20" class="edge">
<title>Node44&#45;&gt;Node9</title>
<path fill="none" stroke="midnightblue" d="M702.99,-168.44C681.01,-159.52 646.33,-145.44 621.4,-135.32"/>
<polygon fill="midnightblue" stroke="midnightblue" points="622.62,-132.04 612.04,-131.52 619.99,-138.52 622.62,-132.04"/>
</g>
<!-- Node44&#45;&gt;Node13 -->
<g id="edge21" class="edge">
<title>Node44&#45;&gt;Node13</title>
<path fill="none" stroke="midnightblue" d="M736.12,-168.34C754.68,-155.21 791.61,-129.92 825.06,-112 848.12,-99.64 875.28,-87.89 895.92,-79.49"/>
<polygon fill="midnightblue" stroke="midnightblue" points="897.5,-82.63 905.48,-75.65 894.89,-76.13 897.5,-82.63"/>
</g>
<!-- Node44&#45;&gt;Node16 -->
<g id="edge19" class="edge">
<title>Node44&#45;&gt;Node16</title>
<path fill="none" stroke="midnightblue" d="M687.31,-172.12C641.06,-165.25 565.21,-151.39 545.06,-132 532.63,-120.03 528.21,-100.42 526.7,-85.87"/>
<polygon fill="midnightblue" stroke="midnightblue" points="530.17,-85.27 526.02,-75.52 523.18,-85.73 530.17,-85.27"/>
</g>
<!-- Node45 -->
<g id="node16" class="node">
<title>Node45</title>
<g id="a_node16"><a xlink:href="mp__arith_8h.html" target="_top" xlink:title=" ">
<polygon fill="none" stroke="red" points="330.56,-112.5 330.56,-131.5 399.56,-131.5 399.56,-112.5 330.56,-112.5"/>
<text text-anchor="middle" x="365.06" y="-119.5" font-family="Helvetica,sans-Serif" font-size="10.00">mp_arith.h</text>
</a>
</g>
</g>
<!-- Node44&#45;&gt;Node45 -->
<g id="edge22" class="edge">
<title>Node44&#45;&gt;Node45</title>
<path fill="none" stroke="midnightblue" d="M687.1,-172.45C629.91,-165.25 516.36,-150.32 409.59,-132"/>
<polygon fill="midnightblue" stroke="midnightblue" points="410.07,-128.53 399.62,-130.27 408.87,-135.42 410.07,-128.53"/>
</g>
<!-- Node44&#45;&gt;Node39 -->
<g id="edge25" class="edge">
<title>Node44&#45;&gt;Node39</title>
<path fill="none" stroke="midnightblue" d="M746.72,-168.44C770.47,-159.48 807.97,-145.31 834.8,-135.18"/>
<polygon fill="midnightblue" stroke="midnightblue" points="836.39,-138.32 844.51,-131.52 833.92,-131.77 836.39,-138.32"/>
</g>
<!-- Node29 -->
<g id="node18" class="node">
<title>Node29</title>
<g id="a_node18"><a xlink:title=" ">
<polygon fill="none" stroke="#bfbfbf" points="684.56,-112.5 684.56,-131.5 777.56,-131.5 777.56,-112.5 684.56,-112.5"/>
<text text-anchor="middle" x="731.06" y="-119.5" font-family="Helvetica,sans-Serif" font-size="10.00">unordered_map</text>
</a>
</g>
</g>
<!-- Node44&#45;&gt;Node29 -->
<g id="edge27" class="edge">
<title>Node44&#45;&gt;Node29</title>
<path fill="none" stroke="midnightblue" d="M725.22,-168.08C726.15,-160.93 727.48,-150.64 728.64,-141.69"/>
<polygon fill="midnightblue" stroke="midnightblue" points="732.12,-142.12 729.93,-131.75 725.17,-141.22 732.12,-142.12"/>
</g>
<!-- Node45&#45;&gt;Node3 -->
<g id="edge23" class="edge">
<title>Node45&#45;&gt;Node3</title>
<path fill="none" stroke="midnightblue" d="M346.84,-112.44C328.17,-103.68 298.91,-89.94 277.45,-79.86"/>
<polygon fill="midnightblue" stroke="midnightblue" points="278.74,-76.6 268.2,-75.52 275.77,-82.93 278.74,-76.6"/>
</g>
<!-- Node45&#45;&gt;Node5 -->
<g id="edge24" class="edge">
<title>Node45&#45;&gt;Node5</title>
<path fill="none" stroke="midnightblue" d="M378.65,-112.28C401.38,-98.13 448.97,-70.3 493.06,-56 581.25,-27.41 690.94,-16.62 744.53,-12.85"/>
<polygon fill="midnightblue" stroke="midnightblue" points="745.04,-16.32 754.78,-12.17 744.57,-9.34 745.04,-16.32"/>
</g>
<!-- Node39&#45;&gt;Node11 -->
<g id="edge26" class="edge">
<title>Node39&#45;&gt;Node11</title>
<path fill="none" stroke="midnightblue" d="M895.71,-112.46C961.45,-92.86 1123.19,-44.65 1197.54,-22.48"/>
<polygon fill="midnightblue" stroke="midnightblue" points="1198.85,-25.75 1207.44,-19.53 1196.85,-19.04 1198.85,-25.75"/>
</g>
<!-- Node47&#45;&gt;Node9 -->
<g id="edge30" class="edge">
<title>Node47&#45;&gt;Node9</title>
<path fill="none" stroke="midnightblue" d="M650.96,-224.37C640.29,-206.3 615.4,-164.18 601.29,-140.31"/>
<polygon fill="midnightblue" stroke="midnightblue" points="604.24,-138.42 596.14,-131.59 598.22,-141.98 604.24,-138.42"/>
</g>
<!-- Node47&#45;&gt;Node13 -->
<g id="edge31" class="edge">
<title>Node47&#45;&gt;Node13</title>
<path fill="none" stroke="midnightblue" d="M654.39,-224.21C650.72,-202 644.55,-143.13 675.06,-112 689.47,-97.3 814.56,-80.41 883.28,-72.13"/>
<polygon fill="midnightblue" stroke="midnightblue" points="883.88,-75.58 893.4,-70.92 883.05,-68.63 883.88,-75.58"/>
</g>
<!-- Node47&#45;&gt;Node44 -->
<g id="edge32" class="edge">
<title>Node47&#45;&gt;Node44</title>
<path fill="none" stroke="midnightblue" d="M666.99,-224.32C677.24,-216.18 692.79,-203.84 705.07,-194.09"/>
<polygon fill="midnightblue" stroke="midnightblue" points="707.29,-196.79 712.94,-187.83 702.93,-191.31 707.29,-196.79"/>
</g>
<!-- Node19&#45;&gt;Node5 -->
<g id="edge43" class="edge">
<title>Node19&#45;&gt;Node5</title>
<path fill="none" stroke="midnightblue" d="M984.51,-168.3C990.12,-146.27 1001.3,-87.82 972.06,-56 950.44,-32.46 859.17,-19.51 809.53,-14.09"/>
<polygon fill="midnightblue" stroke="midnightblue" points="809.63,-10.58 799.32,-13.02 808.9,-17.54 809.63,-10.58"/>
</g>
<!-- Node21 -->
<g id="node23" class="node">
<title>Node21</title>
<g id="a_node23"><a xlink:href="irep_8h.html" target="_top" xlink:title=" ">
<polygon fill="none" stroke="red" points="1032.06,-112.5 1032.06,-131.5 1076.06,-131.5 1076.06,-112.5 1032.06,-112.5"/>
<text text-anchor="middle" x="1054.06" y="-119.5" font-family="Helvetica,sans-Serif" font-size="10.00">irep.h</text>
</a>
</g>
</g>
<!-- Node19&#45;&gt;Node21 -->
<g id="edge39" class="edge">
<title>Node19&#45;&gt;Node21</title>
<path fill="none" stroke="midnightblue" d="M993.63,-168.32C1004.49,-160.18 1020.95,-147.84 1033.95,-138.09"/>
<polygon fill="midnightblue" stroke="midnightblue" points="1036.39,-140.63 1042.29,-131.83 1032.19,-135.03 1036.39,-140.63"/>
</g>
<!-- Node37 -->
<g id="node24" class="node">
<title>Node37</title>
<g id="a_node24"><a xlink:href="optional_8h.html" target="_top" xlink:title=" ">
<polygon fill="none" stroke="red" points="1132.56,-112.5 1132.56,-131.5 1197.56,-131.5 1197.56,-112.5 1132.56,-112.5"/>
<text text-anchor="middle" x="1165.06" y="-119.5" font-family="Helvetica,sans-Serif" font-size="10.00">optional.h</text>
</a>
</g>
</g>
<!-- Node19&#45;&gt;Node37 -->
<g id="edge42" class="edge">
<title>Node19&#45;&gt;Node37</title>
<path fill="none" stroke="midnightblue" d="M1011.06,-168.44C1042.25,-159.24 1091.99,-144.56 1126.47,-134.39"/>
<polygon fill="midnightblue" stroke="midnightblue" points="1127.6,-137.7 1136.2,-131.52 1125.62,-130.99 1127.6,-137.7"/>
</g>
<!-- Node21&#45;&gt;Node5 -->
<g id="edge40" class="edge">
<title>Node21&#45;&gt;Node5</title>
<path fill="none" stroke="midnightblue" d="M1051.83,-112.23C1047.71,-97.99 1037.53,-70.03 1018.06,-56 985.08,-32.21 867.04,-18.86 809.31,-13.62"/>
<polygon fill="midnightblue" stroke="midnightblue" points="809.54,-10.13 799.27,-12.74 808.93,-17.1 809.54,-10.13"/>
</g>
<!-- Node21&#45;&gt;Node13 -->
<g id="edge41" class="edge">
<title>Node21&#45;&gt;Node13</title>
<path fill="none" stroke="midnightblue" d="M1034.1,-112.44C1013.46,-103.6 981,-89.69 957.43,-79.59"/>
<polygon fill="midnightblue" stroke="midnightblue" points="958.51,-76.24 947.94,-75.52 955.75,-82.67 958.51,-76.24"/>
</g>
<!-- Node50&#45;&gt;Node13 -->
<g id="edge45" class="edge">
<title>Node50&#45;&gt;Node13</title>
<path fill="none" stroke="midnightblue" d="M1135.16,-168.43C1126.73,-154.48 1108.16,-126.93 1085.06,-112 1050.86,-89.89 1005.61,-78.42 972.48,-72.62"/>
<polygon fill="midnightblue" stroke="midnightblue" points="973.05,-69.17 962.61,-70.99 971.91,-76.07 973.05,-69.17"/>
</g>
<!-- Node50&#45;&gt;Node21 -->
<g id="edge46" class="edge">
<title>Node50&#45;&gt;Node21</title>
<path fill="none" stroke="midnightblue" d="M1126.25,-168.32C1112.83,-159.9 1092.24,-146.97 1076.48,-137.07"/>
<polygon fill="midnightblue" stroke="midnightblue" points="1078.18,-134.01 1067.85,-131.65 1074.46,-139.94 1078.18,-134.01"/>
</g>
<!-- Node51&#45;&gt;Node5 -->
<g id="edge52" class="edge">
<title>Node51&#45;&gt;Node5</title>
<path fill="none" stroke="midnightblue" d="M1263.67,-168.28C1277.05,-155.08 1298.16,-129.69 1284.06,-112 1224.32,-36.99 911.06,-16.83 809.14,-12.22"/>
<polygon fill="midnightblue" stroke="midnightblue" points="809.28,-8.72 799.14,-11.78 808.97,-15.71 809.28,-8.72"/>
</g>
<!-- Node51&#45;&gt;Node11 -->
<g id="edge53" class="edge">
<title>Node51&#45;&gt;Node11</title>
<path fill="none" stroke="midnightblue" d="M1274.91,-168.43C1289.64,-161.13 1308.27,-149.09 1317.06,-132 1321.13,-124.1 1320.01,-120.39 1317.06,-112 1304.62,-76.59 1273.94,-44.4 1254.12,-26.3"/>
<polygon fill="midnightblue" stroke="midnightblue" points="1256.42,-23.66 1246.62,-19.64 1251.78,-28.9 1256.42,-23.66"/>
</g>
<!-- Node51&#45;&gt;Node37 -->
<g id="edge51" class="edge">
<title>Node51&#45;&gt;Node37</title>
<path fill="none" stroke="midnightblue" d="M1239.77,-168.32C1225.88,-159.9 1204.57,-146.97 1188.26,-137.07"/>
<polygon fill="midnightblue" stroke="midnightblue" points="1189.69,-133.85 1179.33,-131.65 1186.06,-139.83 1189.69,-133.85"/>
</g>
<!-- Node36 -->
<g id="node27" class="node">
<title>Node36</title>
<g id="a_node27"><a xlink:href="narrow_8h.html" target="_top" xlink:title=" ">
<polygon fill="none" stroke="black" points="1215.56,-112.5 1215.56,-131.5 1274.56,-131.5 1274.56,-112.5 1215.56,-112.5"/>
<text text-anchor="middle" x="1245.06" y="-119.5" font-family="Helvetica,sans-Serif" font-size="10.00">narrow.h</text>
</a>
</g>
</g>
<!-- Node51&#45;&gt;Node36 -->
<g id="edge48" class="edge">
<title>Node51&#45;&gt;Node36</title>
<path fill="none" stroke="midnightblue" d="M1252.58,-168.08C1251.39,-160.93 1249.67,-150.64 1248.18,-141.69"/>
<polygon fill="midnightblue" stroke="midnightblue" points="1251.62,-141.04 1246.52,-131.75 1244.72,-142.19 1251.62,-141.04"/>
</g>
<!-- Node36&#45;&gt;Node11 -->
<g id="edge49" class="edge">
<title>Node36&#45;&gt;Node11</title>
<path fill="none" stroke="midnightblue" d="M1247.02,-112.12C1249.49,-99.56 1253.09,-75.92 1250.06,-56 1248.7,-47 1245.87,-37.33 1243.12,-29.26"/>
<polygon fill="midnightblue" stroke="midnightblue" points="1246.38,-27.98 1239.66,-19.78 1239.8,-30.37 1246.38,-27.98"/>
</g>
<!-- Node36&#45;&gt;Node13 -->
<g id="edge50" class="edge">
<title>Node36&#45;&gt;Node13</title>
<path fill="none" stroke="midnightblue" d="M1215.24,-113.72C1212.48,-113.11 1209.72,-112.53 1207.06,-112 1124.79,-95.64 1027.96,-81.06 972.72,-73.18"/>
<polygon fill="midnightblue" stroke="midnightblue" points="972.96,-69.68 962.57,-71.74 971.98,-76.61 972.96,-69.68"/>
</g>
<!-- Node52&#45;&gt;Node3 -->
<g id="edge55" class="edge">
<title>Node52&#45;&gt;Node3</title>
<path fill="none" stroke="midnightblue" d="M425.11,-112.44C386.51,-102.42 322.92,-85.92 283.94,-75.79"/>
<polygon fill="midnightblue" stroke="midnightblue" points="284.67,-72.37 274.11,-73.24 282.91,-79.14 284.67,-72.37"/>
</g>
<!-- Node52&#45;&gt;Node13 -->
<g id="edge57" class="edge">
<title>Node52&#45;&gt;Node13</title>
<path fill="none" stroke="midnightblue" d="M498.14,-116.4C585.35,-106.38 791.85,-82.65 883.23,-72.15"/>
<polygon fill="midnightblue" stroke="midnightblue" points="883.73,-75.62 893.27,-71 882.93,-68.66 883.73,-75.62"/>
</g>
<!-- Node52&#45;&gt;Node16 -->
<g id="edge56" class="edge">
<title>Node52&#45;&gt;Node16</title>
<path fill="none" stroke="midnightblue" d="M468.99,-112.32C479.24,-104.18 494.79,-91.84 507.07,-82.09"/>
<polygon fill="midnightblue" stroke="midnightblue" points="509.29,-84.79 514.94,-75.83 504.93,-79.31 509.29,-84.79"/>
</g>
<!-- Node53&#45;&gt;Node3 -->
<g id="edge62" class="edge">
<title>Node53&#45;&gt;Node3</title>
<path fill="none" stroke="midnightblue" d="M106.78,-403.5C108.37,-383.76 112.06,-333.28 112.06,-291 112.06,-291 112.06,-291 112.06,-177 112.06,-123.79 175.58,-92.15 216.43,-77.3"/>
<polygon fill="midnightblue" stroke="midnightblue" points="217.73,-80.56 226.03,-73.97 215.43,-73.94 217.73,-80.56"/>
</g>
<!-- Node53&#45;&gt;Node4 -->
<g id="edge60" class="edge">
<title>Node53&#45;&gt;Node4</title>
<path fill="none" stroke="midnightblue" d="M113.66,-403.48C121.77,-394.37 134.8,-379.74 144.83,-368.48"/>
<polygon fill="midnightblue" stroke="midnightblue" points="147.45,-370.8 151.49,-361.01 142.22,-366.15 147.45,-370.8"/>
</g>
<!-- Node53&#45;&gt;Node5 -->
<g id="edge61" class="edge">
<title>Node53&#45;&gt;Node5</title>
<path fill="none" stroke="midnightblue" d="M102.14,-403.4C93.6,-383.87 74.06,-334.46 74.06,-291 74.06,-291 74.06,-291 74.06,-121 74.06,-68.73 122.62,-72.93 172.06,-56 199.36,-46.65 623.23,-20.33 744.74,-12.95"/>
<polygon fill="midnightblue" stroke="midnightblue" points="745.13,-16.43 754.9,-12.33 744.7,-9.45 745.13,-16.43"/>
</g>
<!-- Node28 -->
<g id="node30" class="node">
<title>Node28</title>
<g id="a_node30"><a xlink:title=" ">
<polygon fill="none" stroke="#bfbfbf" points="14.06,-342 14.06,-361 46.06,-361 46.06,-342 14.06,-342"/>
<text text-anchor="middle" x="30.06" y="-349" font-family="Helvetica,sans-Serif" font-size="10.00">list</text>
</a>
</g>
</g>
<!-- Node53&#45;&gt;Node28 -->
<g id="edge59" class="edge">
<title>Node53&#45;&gt;Node28</title>
<path fill="none" stroke="midnightblue" d="M95.18,-403.48C83.1,-394.02 63.4,-378.6 48.82,-367.19"/>
<polygon fill="midnightblue" stroke="midnightblue" points="50.97,-364.42 40.93,-361.01 46.65,-369.93 50.97,-364.42"/>
</g>
<!-- Node54&#45;&gt;Node4 -->
<g id="edge68" class="edge">
<title>Node54&#45;&gt;Node4</title>
<path fill="none" stroke="midnightblue" d="M804.39,-472.73C650.65,-470.18 233.99,-459.89 185.06,-423 168.98,-410.88 162.84,-387.74 160.5,-371.28"/>
<polygon fill="midnightblue" stroke="midnightblue" points="163.96,-370.73 159.41,-361.17 157,-371.48 163.96,-370.73"/>
</g>
<!-- Node55 -->
<g id="node32" class="node">
<title>Node55</title>
<g id="a_node32"><a xlink:href="goto__function_8h.html" target="_top" xlink:title="Goto Function.">
<polygon fill="none" stroke="black" points="815.06,-403.5 815.06,-422.5 907.06,-422.5 907.06,-403.5 815.06,-403.5"/>
<text text-anchor="middle" x="861.06" y="-410.5" font-family="Helvetica,sans-Serif" font-size="10.00">goto_function.h</text>
</a>
</g>
</g>
<!-- Node54&#45;&gt;Node55 -->
<g id="edge64" class="edge">
<title>Node54&#45;&gt;Node55</title>
<path fill="none" stroke="midnightblue" d="M861.06,-459.4C861.06,-451.47 861.06,-441.46 861.06,-432.86"/>
<polygon fill="midnightblue" stroke="midnightblue" points="864.56,-432.66 861.06,-422.66 857.56,-432.66 864.56,-432.66"/>
</g>
<!-- Node56 -->
<g id="node33" class="node">
<title>Node56</title>
<g id="a_node33"><a xlink:href="cprover__prefix_8h.html" target="_top" xlink:title=" ">
<polygon fill="none" stroke="black" points="933.06,-403.5 933.06,-422.5 1047.06,-422.5 1047.06,-403.5 933.06,-403.5"/>
<text text-anchor="middle" x="990.06" y="-410.5" font-family="Helvetica,sans-Serif" font-size="10.00">util/cprover_prefix.h</text>
</a>
</g>
</g>
<!-- Node54&#45;&gt;Node56 -->
<g id="edge67" class="edge">
<title>Node54&#45;&gt;Node56</title>
<path fill="none" stroke="midnightblue" d="M891.64,-459.4C912.99,-449.55 941.28,-436.5 962.05,-426.92"/>
<polygon fill="midnightblue" stroke="midnightblue" points="963.68,-430.02 971.29,-422.66 960.75,-423.67 963.68,-430.02"/>
</g>
<!-- Node55&#45;&gt;Node6 -->
<g id="edge66" class="edge">
<title>Node55&#45;&gt;Node6</title>
<path fill="none" stroke="midnightblue" d="M838.57,-403.48C815.72,-394.81 779.65,-381.15 750.61,-370.14"/>
<polygon fill="midnightblue" stroke="midnightblue" points="751.66,-366.79 741.07,-366.52 749.18,-373.34 751.66,-366.79"/>
</g>
<!-- Node55&#45;&gt;Node44 -->
<g id="edge65" class="edge">
<title>Node55&#45;&gt;Node44</title>
<path fill="none" stroke="midnightblue" d="M866.28,-403.19C879.1,-380.26 909.09,-317.85 880.06,-280 842.54,-231.06 791.04,-286.19 746.06,-244 733.31,-232.04 727.95,-212.43 725.7,-197.87"/>
<polygon fill="midnightblue" stroke="midnightblue" points="729.12,-197.04 724.47,-187.52 722.17,-197.86 729.12,-197.04"/>
</g>
<!-- Node57&#45;&gt;Node21 -->
<g id="edge70" class="edge">
<title>Node57&#45;&gt;Node21</title>
<path fill="none" stroke="midnightblue" d="M1033.32,-224.41C1035.65,-215.38 1039.33,-200.74 1042.06,-188 1045.38,-172.55 1048.6,-154.92 1050.87,-141.92"/>
<polygon fill="midnightblue" stroke="midnightblue" points="1054.35,-142.31 1052.59,-131.86 1047.45,-141.13 1054.35,-142.31"/>
</g>
<!-- Node58&#45;&gt;Node56 -->
<g id="edge72" class="edge">
<title>Node58&#45;&gt;Node56</title>
<path fill="none" stroke="midnightblue" d="M995.41,-459.4C994.47,-451.47 993.3,-441.46 992.28,-432.86"/>
<polygon fill="midnightblue" stroke="midnightblue" points="995.73,-432.18 991.08,-422.66 988.78,-433 995.73,-432.18"/>
</g>
</g>
</svg>
