<?xml version="1.0" encoding="UTF-8" standalone="no"?>
<!DOCTYPE svg PUBLIC "-//W3C//DTD SVG 1.1//EN"
 "http://www.w3.org/Graphics/SVG/1.1/DTD/svg11.dtd">
<!-- Generated by graphviz version 2.43.0 (0)
 -->
<!-- Title: /home/runner/work/cbmc/cbmc/jbmc/src/java_bytecode/synthetic_methods_map.h Pages: 1 -->
<svg width="869pt" height="386pt"
 viewBox="0.00 0.00 868.50 386.00" xmlns="http://www.w3.org/2000/svg" xmlns:xlink="http://www.w3.org/1999/xlink">
<g id="graph0" class="graph" transform="scale(1 1) rotate(0) translate(4 382)">
<title>/home/runner/work/cbmc/cbmc/jbmc/src/java_bytecode/synthetic_methods_map.h</title>
<!-- Node1 -->
<g id="node1" class="node">
<title>Node1</title>
<g id="a_node1"><a xlink:title="Synthetic methods are particular methods internally generated by the Java frontend,...">
<polygon fill="#bfbfbf" stroke="black" points="138.5,-336.5 138.5,-377.5 302.5,-377.5 302.5,-336.5 138.5,-336.5"/>
<text text-anchor="start" x="146.5" y="-365.5" font-family="Helvetica,sans-Serif" font-size="10.00">/home/runner/work/cbmc</text>
<text text-anchor="start" x="146.5" y="-354.5" font-family="Helvetica,sans-Serif" font-size="10.00">/cbmc/jbmc/src/java_bytecode</text>
<text text-anchor="middle" x="220.5" y="-343.5" font-family="Helvetica,sans-Serif" font-size="10.00">/synthetic_methods_map.h</text>
</a>
</g>
</g>
<!-- Node2 -->
<g id="node2" class="node">
<title>Node2</title>
<g id="a_node2"><a xlink:title=" ">
<polygon fill="none" stroke="#bfbfbf" points="0,-56.5 0,-75.5 93,-75.5 93,-56.5 0,-56.5"/>
<text text-anchor="middle" x="46.5" y="-63.5" font-family="Helvetica,sans-Serif" font-size="10.00">unordered_map</text>
</a>
</g>
</g>
<!-- Node1&#45;&gt;Node2 -->
<g id="edge1" class="edge">
<title>Node1&#45;&gt;Node2</title>
<path fill="none" stroke="midnightblue" d="M161.4,-336.43C117.97,-317.9 66.5,-285.32 66.5,-235 66.5,-235 66.5,-235 66.5,-177 66.5,-144.44 57.91,-107.32 51.99,-85.59"/>
<polygon fill="midnightblue" stroke="midnightblue" points="55.29,-84.41 49.2,-75.74 48.56,-86.32 55.29,-84.41"/>
</g>
<!-- Node3 -->
<g id="node3" class="node">
<title>Node3</title>
<g id="a_node3"><a xlink:href="irep_8h.html" target="_top" xlink:title=" ">
<polygon fill="none" stroke="black" points="434,-280.5 434,-299.5 497,-299.5 497,-280.5 434,-280.5"/>
<text text-anchor="middle" x="465.5" y="-287.5" font-family="Helvetica,sans-Serif" font-size="10.00">util/irep.h</text>
</a>
</g>
</g>
<!-- Node1&#45;&gt;Node3 -->
<g id="edge2" class="edge">
<title>Node1&#45;&gt;Node3</title>
<path fill="none" stroke="midnightblue" d="M294.01,-336.5C336.47,-325.23 388.34,-311.47 423.84,-302.05"/>
<polygon fill="midnightblue" stroke="midnightblue" points="425.08,-305.34 433.85,-299.4 423.29,-298.58 425.08,-305.34"/>
</g>
<!-- Node4 -->
<g id="node4" class="node">
<title>Node4</title>
<g id="a_node4"><a xlink:title=" ">
<polygon fill="none" stroke="#bfbfbf" points="401.5,-0.5 401.5,-19.5 445.5,-19.5 445.5,-0.5 401.5,-0.5"/>
<text text-anchor="middle" x="423.5" y="-7.5" font-family="Helvetica,sans-Serif" font-size="10.00">string</text>
</a>
</g>
</g>
<!-- Node3&#45;&gt;Node4 -->
<g id="edge3" class="edge">
<title>Node3&#45;&gt;Node4</title>
<path fill="none" stroke="midnightblue" d="M497.16,-287.01C590.89,-280.25 860.5,-254.28 860.5,-179 860.5,-179 860.5,-179 860.5,-121 860.5,-88.8 854.86,-74.5 828.5,-56 768.6,-13.95 540.98,-10.48 455.87,-10.69"/>
<polygon fill="midnightblue" stroke="midnightblue" points="455.74,-7.19 445.75,-10.74 455.77,-14.19 455.74,-7.19"/>
</g>
<!-- Node5 -->
<g id="node5" class="node">
<title>Node5</title>
<g id="a_node5"><a xlink:title=" ">
<polygon fill="none" stroke="#bfbfbf" points="452,-56.5 452,-75.5 499,-75.5 499,-56.5 452,-56.5"/>
<text text-anchor="middle" x="475.5" y="-63.5" font-family="Helvetica,sans-Serif" font-size="10.00">vector</text>
</a>
</g>
</g>
<!-- Node3&#45;&gt;Node5 -->
<g id="edge4" class="edge">
<title>Node3&#45;&gt;Node5</title>
<path fill="none" stroke="midnightblue" d="M465.25,-280.37C465,-271.32 464.64,-256.66 464.5,-244 464.4,-235.11 464.19,-232.88 464.5,-224 466.25,-174.1 471.1,-115.44 473.74,-85.95"/>
<polygon fill="midnightblue" stroke="midnightblue" points="477.24,-86.12 474.66,-75.84 470.27,-85.48 477.24,-86.12"/>
</g>
<!-- Node6 -->
<g id="node6" class="node">
<title>Node6</title>
<g id="a_node6"><a xlink:href="src_2util_2invariant_8h.html" target="_top" xlink:title=" ">
<polygon fill="none" stroke="black" points="621,-112.5 621,-131.5 690,-131.5 690,-112.5 621,-112.5"/>
<text text-anchor="middle" x="655.5" y="-119.5" font-family="Helvetica,sans-Serif" font-size="10.00">invariant.h</text>
</a>
</g>
</g>
<!-- Node3&#45;&gt;Node6 -->
<g id="edge5" class="edge">
<title>Node3&#45;&gt;Node6</title>
<path fill="none" stroke="midnightblue" d="M465.59,-280.28C466.31,-258.2 471.32,-199.65 503.5,-168 532.04,-139.93 577.22,-129.23 610.91,-125.22"/>
<polygon fill="midnightblue" stroke="midnightblue" points="611.38,-128.69 620.97,-124.18 610.66,-121.73 611.38,-128.69"/>
</g>
<!-- Node10 -->
<g id="node10" class="node">
<title>Node10</title>
<g id="a_node10"><a xlink:href="irep__ids_8h.html" target="_top" xlink:title="util">
<polygon fill="none" stroke="black" points="339.5,-224.5 339.5,-243.5 403.5,-243.5 403.5,-224.5 339.5,-224.5"/>
<text text-anchor="middle" x="371.5" y="-231.5" font-family="Helvetica,sans-Serif" font-size="10.00">irep_ids.h</text>
</a>
</g>
</g>
<!-- Node3&#45;&gt;Node10 -->
<g id="edge10" class="edge">
<title>Node3&#45;&gt;Node10</title>
<path fill="none" stroke="midnightblue" d="M450.4,-280.32C435.6,-271.82 412.81,-258.73 395.52,-248.8"/>
<polygon fill="midnightblue" stroke="midnightblue" points="396.98,-245.6 386.57,-243.65 393.49,-251.67 396.98,-245.6"/>
</g>
<!-- Node20 -->
<g id="node20" class="node">
<title>Node20</title>
<g id="a_node20"><a xlink:href="forward__list__as__map_8h.html" target="_top" xlink:title=" ">
<polygon fill="none" stroke="black" points="567,-224.5 567,-243.5 694,-243.5 694,-224.5 567,-224.5"/>
<text text-anchor="middle" x="630.5" y="-231.5" font-family="Helvetica,sans-Serif" font-size="10.00">forward_list_as_map.h</text>
</a>
</g>
</g>
<!-- Node3&#45;&gt;Node20 -->
<g id="edge26" class="edge">
<title>Node3&#45;&gt;Node20</title>
<path fill="none" stroke="midnightblue" d="M491.64,-280.44C519.52,-271.32 563.85,-256.81 594.9,-246.65"/>
<polygon fill="midnightblue" stroke="midnightblue" points="596.06,-249.95 604.48,-243.52 593.88,-243.3 596.06,-249.95"/>
</g>
<!-- Node6&#45;&gt;Node4 -->
<g id="edge8" class="edge">
<title>Node6&#45;&gt;Node4</title>
<path fill="none" stroke="midnightblue" d="M651.97,-112.31C645.77,-98.2 631.56,-70.43 610.5,-56 563.31,-23.67 495.55,-14.46 455.87,-11.9"/>
<polygon fill="midnightblue" stroke="midnightblue" points="455.88,-8.4 445.71,-11.35 455.5,-15.39 455.88,-8.4"/>
</g>
<!-- Node7 -->
<g id="node7" class="node">
<title>Node7</title>
<g id="a_node7"><a xlink:title=" ">
<polygon fill="none" stroke="#bfbfbf" points="658,-56.5 658,-75.5 707,-75.5 707,-56.5 658,-56.5"/>
<text text-anchor="middle" x="682.5" y="-63.5" font-family="Helvetica,sans-Serif" font-size="10.00">cstdlib</text>
</a>
</g>
</g>
<!-- Node6&#45;&gt;Node7 -->
<g id="edge6" class="edge">
<title>Node6&#45;&gt;Node7</title>
<path fill="none" stroke="midnightblue" d="M659.96,-112.08C663.65,-104.69 669.02,-93.95 673.59,-84.81"/>
<polygon fill="midnightblue" stroke="midnightblue" points="676.78,-86.26 678.12,-75.75 670.52,-83.13 676.78,-86.26"/>
</g>
<!-- Node8 -->
<g id="node8" class="node">
<title>Node8</title>
<g id="a_node8"><a xlink:title=" ">
<polygon fill="none" stroke="#bfbfbf" points="545.5,-56.5 545.5,-75.5 601.5,-75.5 601.5,-56.5 545.5,-56.5"/>
<text text-anchor="middle" x="573.5" y="-63.5" font-family="Helvetica,sans-Serif" font-size="10.00">sstream</text>
</a>
</g>
</g>
<!-- Node6&#45;&gt;Node8 -->
<g id="edge7" class="edge">
<title>Node6&#45;&gt;Node8</title>
<path fill="none" stroke="midnightblue" d="M642.33,-112.32C629.65,-103.98 610.27,-91.21 595.29,-81.35"/>
<polygon fill="midnightblue" stroke="midnightblue" points="596.92,-78.23 586.64,-75.65 593.07,-84.08 596.92,-78.23"/>
</g>
<!-- Node9 -->
<g id="node9" class="node">
<title>Node9</title>
<g id="a_node9"><a xlink:title=" ">
<polygon fill="none" stroke="#bfbfbf" points="750,-56.5 750,-75.5 819,-75.5 819,-56.5 750,-56.5"/>
<text text-anchor="middle" x="784.5" y="-63.5" font-family="Helvetica,sans-Serif" font-size="10.00">type_traits</text>
</a>
</g>
</g>
<!-- Node6&#45;&gt;Node9 -->
<g id="edge9" class="edge">
<title>Node6&#45;&gt;Node9</title>
<path fill="none" stroke="midnightblue" d="M675.94,-112.44C697.17,-103.56 730.6,-89.56 754.75,-79.45"/>
<polygon fill="midnightblue" stroke="midnightblue" points="756.28,-82.61 764.16,-75.52 753.58,-76.15 756.28,-82.61"/>
</g>
<!-- Node11 -->
<g id="node11" class="node">
<title>Node11</title>
<g id="a_node11"><a xlink:href="dstring_8h.html" target="_top" xlink:title="Container for C&#45;Strings.">
<polygon fill="none" stroke="black" points="342,-168.5 342,-187.5 401,-187.5 401,-168.5 342,-168.5"/>
<text text-anchor="middle" x="371.5" y="-175.5" font-family="Helvetica,sans-Serif" font-size="10.00">dstring.h</text>
</a>
</g>
</g>
<!-- Node10&#45;&gt;Node11 -->
<g id="edge11" class="edge">
<title>Node10&#45;&gt;Node11</title>
<path fill="none" stroke="midnightblue" d="M371.5,-224.08C371.5,-217.01 371.5,-206.86 371.5,-197.99"/>
<polygon fill="midnightblue" stroke="midnightblue" points="375,-197.75 371.5,-187.75 368,-197.75 375,-197.75"/>
</g>
<!-- Node19 -->
<g id="node19" class="node">
<title>Node19</title>
<g id="a_node19"><a xlink:title=" ">
<polygon fill="none" stroke="#bfbfbf" points="249.5,-168.5 249.5,-187.5 323.5,-187.5 323.5,-168.5 249.5,-168.5"/>
<text text-anchor="middle" x="286.5" y="-175.5" font-family="Helvetica,sans-Serif" font-size="10.00">irep_ids.def</text>
</a>
</g>
</g>
<!-- Node10&#45;&gt;Node19 -->
<g id="edge25" class="edge">
<title>Node10&#45;&gt;Node19</title>
<path fill="none" stroke="midnightblue" d="M357.84,-224.32C344.58,-215.9 324.23,-202.97 308.65,-193.07"/>
<polygon fill="midnightblue" stroke="midnightblue" points="310.44,-190.06 300.12,-187.65 306.69,-195.97 310.44,-190.06"/>
</g>
<!-- Node11&#45;&gt;Node4 -->
<g id="edge13" class="edge">
<title>Node11&#45;&gt;Node4</title>
<path fill="none" stroke="midnightblue" d="M379.72,-168.48C387.43,-159.96 398.62,-146.13 404.5,-132 418.74,-97.76 422.4,-54.02 423.28,-29.61"/>
<polygon fill="midnightblue" stroke="midnightblue" points="426.78,-29.67 423.52,-19.59 419.78,-29.5 426.78,-29.67"/>
</g>
<!-- Node12 -->
<g id="node12" class="node">
<title>Node12</title>
<g id="a_node12"><a xlink:title=" ">
<polygon fill="none" stroke="#bfbfbf" points="347.5,-112.5 347.5,-131.5 395.5,-131.5 395.5,-112.5 347.5,-112.5"/>
<text text-anchor="middle" x="371.5" y="-119.5" font-family="Helvetica,sans-Serif" font-size="10.00">iosfwd</text>
</a>
</g>
</g>
<!-- Node11&#45;&gt;Node12 -->
<g id="edge12" class="edge">
<title>Node11&#45;&gt;Node12</title>
<path fill="none" stroke="midnightblue" d="M371.5,-168.08C371.5,-161.01 371.5,-150.86 371.5,-141.99"/>
<polygon fill="midnightblue" stroke="midnightblue" points="375,-141.75 371.5,-131.75 368,-141.75 375,-141.75"/>
</g>
<!-- Node13 -->
<g id="node13" class="node">
<title>Node13</title>
<g id="a_node13"><a xlink:href="magic_8h.html" target="_top" xlink:title="Magic numbers used throughout the codebase.">
<polygon fill="none" stroke="black" points="132.5,-112.5 132.5,-131.5 188.5,-131.5 188.5,-112.5 132.5,-112.5"/>
<text text-anchor="middle" x="160.5" y="-119.5" font-family="Helvetica,sans-Serif" font-size="10.00">magic.h</text>
</a>
</g>
</g>
<!-- Node11&#45;&gt;Node13 -->
<g id="edge14" class="edge">
<title>Node11&#45;&gt;Node13</title>
<path fill="none" stroke="midnightblue" d="M341.72,-169.38C304.23,-159.78 239.77,-143.29 198.69,-132.77"/>
<polygon fill="midnightblue" stroke="midnightblue" points="199.34,-129.33 188.78,-130.24 197.6,-136.11 199.34,-129.33"/>
</g>
<!-- Node15 -->
<g id="node15" class="node">
<title>Node15</title>
<g id="a_node15"><a xlink:href="string__container_8h.html" target="_top" xlink:title="Container for C&#45;Strings.">
<polygon fill="none" stroke="black" points="225.5,-112.5 225.5,-131.5 329.5,-131.5 329.5,-112.5 225.5,-112.5"/>
<text text-anchor="middle" x="277.5" y="-119.5" font-family="Helvetica,sans-Serif" font-size="10.00">string_container.h</text>
</a>
</g>
</g>
<!-- Node11&#45;&gt;Node15 -->
<g id="edge16" class="edge">
<title>Node11&#45;&gt;Node15</title>
<path fill="none" stroke="midnightblue" d="M356.4,-168.32C341.6,-159.82 318.81,-146.73 301.52,-136.8"/>
<polygon fill="midnightblue" stroke="midnightblue" points="302.98,-133.6 292.57,-131.65 299.49,-139.67 302.98,-133.6"/>
</g>
<!-- Node14 -->
<g id="node14" class="node">
<title>Node14</title>
<g id="a_node14"><a xlink:title=" ">
<polygon fill="none" stroke="#bfbfbf" points="133,-0.5 133,-19.5 186,-19.5 186,-0.5 133,-0.5"/>
<text text-anchor="middle" x="159.5" y="-7.5" font-family="Helvetica,sans-Serif" font-size="10.00">cstddef</text>
</a>
</g>
</g>
<!-- Node13&#45;&gt;Node14 -->
<g id="edge15" class="edge">
<title>Node13&#45;&gt;Node14</title>
<path fill="none" stroke="midnightblue" d="M155.37,-112.41C150.44,-103.61 143.34,-89.38 140.5,-76 137.07,-59.85 143.12,-41.85 149.29,-28.9"/>
<polygon fill="midnightblue" stroke="midnightblue" points="152.55,-30.21 154.07,-19.72 146.35,-26.97 152.55,-30.21"/>
</g>
<!-- Node15&#45;&gt;Node2 -->
<g id="edge18" class="edge">
<title>Node15&#45;&gt;Node2</title>
<path fill="none" stroke="midnightblue" d="M240.9,-112.44C200.77,-103.06 136.3,-87.99 92.72,-77.8"/>
<polygon fill="midnightblue" stroke="midnightblue" points="93.47,-74.38 82.93,-75.52 91.87,-81.2 93.47,-74.38"/>
</g>
<!-- Node15&#45;&gt;Node5 -->
<g id="edge19" class="edge">
<title>Node15&#45;&gt;Node5</title>
<path fill="none" stroke="midnightblue" d="M308.87,-112.44C345.15,-102.55 404.65,-86.32 441.86,-76.17"/>
<polygon fill="midnightblue" stroke="midnightblue" points="443,-79.49 451.73,-73.48 441.16,-72.74 443,-79.49"/>
</g>
<!-- Node16 -->
<g id="node16" class="node">
<title>Node16</title>
<g id="a_node16"><a xlink:title=" ">
<polygon fill="none" stroke="#bfbfbf" points="263.5,-56.5 263.5,-75.5 295.5,-75.5 295.5,-56.5 263.5,-56.5"/>
<text text-anchor="middle" x="279.5" y="-63.5" font-family="Helvetica,sans-Serif" font-size="10.00">list</text>
</a>
</g>
</g>
<!-- Node15&#45;&gt;Node16 -->
<g id="edge17" class="edge">
<title>Node15&#45;&gt;Node16</title>
<path fill="none" stroke="midnightblue" d="M277.83,-112.08C278.09,-105.01 278.47,-94.86 278.8,-85.99"/>
<polygon fill="midnightblue" stroke="midnightblue" points="282.3,-85.87 279.18,-75.75 275.31,-85.61 282.3,-85.87"/>
</g>
<!-- Node17 -->
<g id="node17" class="node">
<title>Node17</title>
<g id="a_node17"><a xlink:href="memory__units_8h.html" target="_top" xlink:title=" ">
<polygon fill="none" stroke="black" points="149.5,-56.5 149.5,-75.5 245.5,-75.5 245.5,-56.5 149.5,-56.5"/>
<text text-anchor="middle" x="197.5" y="-63.5" font-family="Helvetica,sans-Serif" font-size="10.00">memory_units.h</text>
</a>
</g>
</g>
<!-- Node15&#45;&gt;Node17 -->
<g id="edge20" class="edge">
<title>Node15&#45;&gt;Node17</title>
<path fill="none" stroke="midnightblue" d="M264.65,-112.32C252.28,-103.98 233.37,-91.21 218.76,-81.35"/>
<polygon fill="midnightblue" stroke="midnightblue" points="220.57,-78.35 210.32,-75.65 216.65,-84.15 220.57,-78.35"/>
</g>
<!-- Node18 -->
<g id="node18" class="node">
<title>Node18</title>
<g id="a_node18"><a xlink:href="string__hash_8h.html" target="_top" xlink:title="string hashing">
<polygon fill="none" stroke="black" points="313.5,-56.5 313.5,-75.5 395.5,-75.5 395.5,-56.5 313.5,-56.5"/>
<text text-anchor="middle" x="354.5" y="-63.5" font-family="Helvetica,sans-Serif" font-size="10.00">string_hash.h</text>
</a>
</g>
</g>
<!-- Node15&#45;&gt;Node18 -->
<g id="edge23" class="edge">
<title>Node15&#45;&gt;Node18</title>
<path fill="none" stroke="midnightblue" d="M289.87,-112.32C301.66,-104.06 319.63,-91.45 333.64,-81.63"/>
<polygon fill="midnightblue" stroke="midnightblue" points="335.98,-84.26 342.16,-75.65 331.96,-78.53 335.98,-84.26"/>
</g>
<!-- Node17&#45;&gt;Node4 -->
<g id="edge22" class="edge">
<title>Node17&#45;&gt;Node4</title>
<path fill="none" stroke="midnightblue" d="M233.31,-56.44C276.8,-46.05 349.5,-28.68 391.29,-18.7"/>
<polygon fill="midnightblue" stroke="midnightblue" points="392.3,-22.05 401.22,-16.32 390.68,-15.24 392.3,-22.05"/>
</g>
<!-- Node17&#45;&gt;Node14 -->
<g id="edge21" class="edge">
<title>Node17&#45;&gt;Node14</title>
<path fill="none" stroke="midnightblue" d="M191.23,-56.08C185.86,-48.46 177.98,-37.26 171.42,-27.94"/>
<polygon fill="midnightblue" stroke="midnightblue" points="174.28,-25.91 165.66,-19.75 168.55,-29.94 174.28,-25.91"/>
</g>
<!-- Node18&#45;&gt;Node4 -->
<g id="edge24" class="edge">
<title>Node18&#45;&gt;Node4</title>
<path fill="none" stroke="midnightblue" d="M365.59,-56.32C375.99,-48.18 391.76,-35.84 404.22,-26.09"/>
<polygon fill="midnightblue" stroke="midnightblue" points="406.49,-28.75 412.21,-19.83 402.18,-23.24 406.49,-28.75"/>
</g>
<!-- Node21 -->
<g id="node21" class="node">
<title>Node21</title>
<g id="a_node21"><a xlink:title=" ">
<polygon fill="none" stroke="#bfbfbf" points="598.5,-168.5 598.5,-187.5 662.5,-187.5 662.5,-168.5 598.5,-168.5"/>
<text text-anchor="middle" x="630.5" y="-175.5" font-family="Helvetica,sans-Serif" font-size="10.00">algorithm</text>
</a>
</g>
</g>
<!-- Node20&#45;&gt;Node21 -->
<g id="edge27" class="edge">
<title>Node20&#45;&gt;Node21</title>
<path fill="none" stroke="midnightblue" d="M630.5,-224.08C630.5,-217.01 630.5,-206.86 630.5,-197.99"/>
<polygon fill="midnightblue" stroke="midnightblue" points="634,-197.75 630.5,-187.75 627,-197.75 634,-197.75"/>
</g>
<!-- Node22 -->
<g id="node22" class="node">
<title>Node22</title>
<g id="a_node22"><a xlink:title=" ">
<polygon fill="none" stroke="#bfbfbf" points="680.5,-168.5 680.5,-187.5 754.5,-187.5 754.5,-168.5 680.5,-168.5"/>
<text text-anchor="middle" x="717.5" y="-175.5" font-family="Helvetica,sans-Serif" font-size="10.00">forward_list</text>
</a>
</g>
</g>
<!-- Node20&#45;&gt;Node22 -->
<g id="edge28" class="edge">
<title>Node20&#45;&gt;Node22</title>
<path fill="none" stroke="midnightblue" d="M644.48,-224.32C658.05,-215.9 678.88,-202.97 694.82,-193.07"/>
<polygon fill="midnightblue" stroke="midnightblue" points="696.91,-195.9 703.56,-187.65 693.21,-189.95 696.91,-195.9"/>
</g>
<!-- Node23 -->
<g id="node23" class="node">
<title>Node23</title>
<g id="a_node23"><a xlink:href="as__const_8h.html" target="_top" xlink:title=" ">
<polygon fill="none" stroke="black" points="512.5,-168.5 512.5,-187.5 580.5,-187.5 580.5,-168.5 512.5,-168.5"/>
<text text-anchor="middle" x="546.5" y="-175.5" font-family="Helvetica,sans-Serif" font-size="10.00">as_const.h</text>
</a>
</g>
</g>
<!-- Node20&#45;&gt;Node23 -->
<g id="edge29" class="edge">
<title>Node20&#45;&gt;Node23</title>
<path fill="none" stroke="midnightblue" d="M617,-224.32C603.9,-215.9 583.79,-202.97 568.39,-193.07"/>
<polygon fill="midnightblue" stroke="midnightblue" points="570.27,-190.12 559.96,-187.65 566.48,-196.01 570.27,-190.12"/>
</g>
<!-- Node24 -->
<g id="node24" class="node">
<title>Node24</title>
<g id="a_node24"><a xlink:href="narrow_8h.html" target="_top" xlink:title=" ">
<polygon fill="none" stroke="black" points="773,-168.5 773,-187.5 832,-187.5 832,-168.5 773,-168.5"/>
<text text-anchor="middle" x="802.5" y="-175.5" font-family="Helvetica,sans-Serif" font-size="10.00">narrow.h</text>
</a>
</g>
</g>
<!-- Node20&#45;&gt;Node24 -->
<g id="edge30" class="edge">
<title>Node20&#45;&gt;Node24</title>
<path fill="none" stroke="midnightblue" d="M657.75,-224.44C686.94,-215.28 733.42,-200.69 765.81,-190.52"/>
<polygon fill="midnightblue" stroke="midnightblue" points="766.88,-193.85 775.37,-187.52 764.78,-187.17 766.88,-193.85"/>
</g>
<!-- Node24&#45;&gt;Node6 -->
<g id="edge32" class="edge">
<title>Node24&#45;&gt;Node6</title>
<path fill="none" stroke="midnightblue" d="M779.21,-168.44C754.69,-159.44 715.9,-145.19 688.3,-135.05"/>
<polygon fill="midnightblue" stroke="midnightblue" points="689.28,-131.68 678.68,-131.52 686.86,-138.25 689.28,-131.68"/>
</g>
<!-- Node24&#45;&gt;Node9 -->
<g id="edge31" class="edge">
<title>Node24&#45;&gt;Node9</title>
<path fill="none" stroke="midnightblue" d="M801.09,-168.37C798.18,-150.62 791.48,-109.67 787.54,-85.6"/>
<polygon fill="midnightblue" stroke="midnightblue" points="790.97,-84.89 785.91,-75.59 784.07,-86.03 790.97,-84.89"/>
</g>
</g>
</svg>
