<?xml version="1.0" encoding="UTF-8" standalone="no"?>
<!DOCTYPE svg PUBLIC "-//W3C//DTD SVG 1.1//EN"
 "http://www.w3.org/Graphics/SVG/1.1/DTD/svg11.dtd">
<!-- Generated by graphviz version 2.43.0 (0)
 -->
<!-- Title: /home/runner/work/cbmc/cbmc/src/util/tempdir.h Pages: 1 -->
<svg width="678pt" height="117pt"
 viewBox="0.00 0.00 677.50 117.00" xmlns="http://www.w3.org/2000/svg" xmlns:xlink="http://www.w3.org/1999/xlink">
<g id="graph0" class="graph" transform="scale(1 1) rotate(0) translate(4 113)">
<title>/home/runner/work/cbmc/cbmc/src/util/tempdir.h</title>
<!-- Node1 -->
<g id="node1" class="node">
<title>Node1</title>
<g id="a_node1"><a xlink:title=" ">
<polygon fill="#bfbfbf" stroke="black" points="285,-78.5 285,-108.5 423,-108.5 423,-78.5 285,-78.5"/>
<text text-anchor="start" x="293" y="-96.5" font-family="Helvetica,sans-Serif" font-size="10.00">/home/runner/work/cbmc</text>
<text text-anchor="middle" x="354" y="-85.5" font-family="Helvetica,sans-Serif" font-size="10.00">/cbmc/src/util/tempdir.h</text>
</a>
</g>
</g>
<!-- Node2 -->
<g id="node2" class="node">
<title>Node2</title>
<g id="a_node2"><a xlink:href="as__mode_8cpp.html" target="_top" xlink:title=" ">
<polygon fill="none" stroke="black" points="0,-6 0,-36 170,-36 170,-6 0,-6"/>
<text text-anchor="start" x="8" y="-24" font-family="Helvetica,sans-Serif" font-size="10.00">/home/runner/work/cbmc</text>
<text text-anchor="middle" x="85" y="-13" font-family="Helvetica,sans-Serif" font-size="10.00">/cbmc/src/goto&#45;cc/as_mode.cpp</text>
</a>
</g>
</g>
<!-- Node1&#45;&gt;Node2 -->
<g id="edge1" class="edge">
<title>Node1&#45;&gt;Node2</title>
<path fill="none" stroke="midnightblue" d="M290.64,-75.89C244.47,-63.79 182.61,-47.58 138.83,-36.11"/>
<polygon fill="midnightblue" stroke="midnightblue" points="289.97,-79.34 300.53,-78.49 291.75,-72.57 289.97,-79.34"/>
</g>
<!-- Node3 -->
<g id="node3" class="node">
<title>Node3</title>
<g id="a_node3"><a xlink:href="compile_8cpp.html" target="_top" xlink:title=" ">
<polygon fill="none" stroke="black" points="188,-6 188,-36 352,-36 352,-6 188,-6"/>
<text text-anchor="start" x="196" y="-24" font-family="Helvetica,sans-Serif" font-size="10.00">/home/runner/work/cbmc</text>
<text text-anchor="middle" x="270" y="-13" font-family="Helvetica,sans-Serif" font-size="10.00">/cbmc/src/goto&#45;cc/compile.cpp</text>
</a>
</g>
</g>
<!-- Node1&#45;&gt;Node3 -->
<g id="edge2" class="edge">
<title>Node1&#45;&gt;Node3</title>
<path fill="none" stroke="midnightblue" d="M329.32,-71.79C315.59,-60.27 298.87,-46.23 286.69,-36"/>
<polygon fill="midnightblue" stroke="midnightblue" points="327.09,-74.49 337,-78.23 331.59,-69.12 327.09,-74.49"/>
</g>
<!-- Node4 -->
<g id="node4" class="node">
<title>Node4</title>
<g id="a_node4"><a xlink:href="gcc__mode_8cpp.html" target="_top" xlink:title=" ">
<polygon fill="none" stroke="black" points="370,-0.5 370,-41.5 508,-41.5 508,-0.5 370,-0.5"/>
<text text-anchor="start" x="378" y="-29.5" font-family="Helvetica,sans-Serif" font-size="10.00">/home/runner/work/cbmc</text>
<text text-anchor="start" x="378" y="-18.5" font-family="Helvetica,sans-Serif" font-size="10.00">/cbmc/src/goto&#45;cc/gcc</text>
<text text-anchor="middle" x="439" y="-7.5" font-family="Helvetica,sans-Serif" font-size="10.00">_mode.cpp</text>
</a>
</g>
</g>
<!-- Node1&#45;&gt;Node4 -->
<g id="edge3" class="edge">
<title>Node1&#45;&gt;Node4</title>
<path fill="none" stroke="midnightblue" d="M379.13,-71.66C390.6,-62.15 404.1,-50.94 415.38,-41.59"/>
<polygon fill="midnightblue" stroke="midnightblue" points="376.66,-69.16 371.2,-78.23 381.13,-74.54 376.66,-69.16"/>
</g>
<!-- Node5 -->
<g id="node5" class="node">
<title>Node5</title>
<g id="a_node5"><a xlink:href="tempdir_8cpp.html" target="_top" xlink:title=" ">
<polygon fill="none" stroke="black" points="526.5,-6 526.5,-36 669.5,-36 669.5,-6 526.5,-6"/>
<text text-anchor="start" x="534.5" y="-24" font-family="Helvetica,sans-Serif" font-size="10.00">/home/runner/work/cbmc</text>
<text text-anchor="middle" x="598" y="-13" font-family="Helvetica,sans-Serif" font-size="10.00">/cbmc/src/util/tempdir.cpp</text>
</a>
</g>
</g>
<!-- Node1&#45;&gt;Node5 -->
<g id="edge4" class="edge">
<title>Node1&#45;&gt;Node5</title>
<path fill="none" stroke="midnightblue" d="M412.27,-75.66C454.05,-63.59 509.72,-47.51 549.18,-36.11"/>
<polygon fill="midnightblue" stroke="midnightblue" points="411.13,-72.35 402.5,-78.49 413.08,-79.07 411.13,-72.35"/>
</g>
</g>
</svg>
