<?xml version="1.0" encoding="UTF-8" standalone="no"?>
<!DOCTYPE svg PUBLIC "-//W3C//DTD SVG 1.1//EN"
 "http://www.w3.org/Graphics/SVG/1.1/DTD/svg11.dtd">
<!-- Generated by graphviz version 2.43.0 (0)
 -->
<!-- Title: /home/runner/work/cbmc/cbmc/src/cpp/template_map.h Pages: 1 -->
<svg width="800pt" height="655pt"
 viewBox="0.00 0.00 800.00 655.00" xmlns="http://www.w3.org/2000/svg" xmlns:xlink="http://www.w3.org/1999/xlink">
<g id="graph0" class="graph" transform="scale(1 1) rotate(0) translate(4 651)">
<title>/home/runner/work/cbmc/cbmc/src/cpp/template_map.h</title>
<!-- Node1 -->
<g id="node1" class="node">
<title>Node1</title>
<g id="a_node1"><a xlink:title="C++ Language Type Checking.">
<polygon fill="#bfbfbf" stroke="black" points="74.5,-616.5 74.5,-646.5 241.5,-646.5 241.5,-616.5 74.5,-616.5"/>
<text text-anchor="start" x="82.5" y="-634.5" font-family="Helvetica,sans-Serif" font-size="10.00">/home/runner/work/cbmc</text>
<text text-anchor="middle" x="158" y="-623.5" font-family="Helvetica,sans-Serif" font-size="10.00">/cbmc/src/cpp/template_map.h</text>
</a>
</g>
</g>
<!-- Node2 -->
<g id="node2" class="node">
<title>Node2</title>
<g id="a_node2"><a xlink:title=" ">
<polygon fill="none" stroke="#bfbfbf" points="0,-560.5 0,-579.5 38,-579.5 38,-560.5 0,-560.5"/>
<text text-anchor="middle" x="19" y="-567.5" font-family="Helvetica,sans-Serif" font-size="10.00">map</text>
</a>
</g>
</g>
<!-- Node1&#45;&gt;Node2 -->
<g id="edge1" class="edge">
<title>Node1&#45;&gt;Node2</title>
<path fill="none" stroke="midnightblue" d="M125.06,-616.4C101.42,-606.28 69.9,-592.79 47.37,-583.15"/>
<polygon fill="midnightblue" stroke="midnightblue" points="48.59,-579.86 38.02,-579.14 45.84,-586.29 48.59,-579.86"/>
</g>
<!-- Node3 -->
<g id="node3" class="node">
<title>Node3</title>
<g id="a_node3"><a xlink:title=" ">
<polygon fill="none" stroke="#bfbfbf" points="94,-56.5 94,-75.5 142,-75.5 142,-56.5 94,-56.5"/>
<text text-anchor="middle" x="118" y="-63.5" font-family="Helvetica,sans-Serif" font-size="10.00">iosfwd</text>
</a>
</g>
</g>
<!-- Node1&#45;&gt;Node3 -->
<g id="edge2" class="edge">
<title>Node1&#45;&gt;Node3</title>
<path fill="none" stroke="midnightblue" d="M135.73,-616.27C108.5,-596.93 66,-559.61 66,-515 66,-515 66,-515 66,-233 66,-176.81 93.47,-114.61 108.48,-84.82"/>
<polygon fill="midnightblue" stroke="midnightblue" points="111.71,-86.18 113.2,-75.69 105.5,-82.97 111.71,-86.18"/>
</g>
<!-- Node4 -->
<g id="node4" class="node">
<title>Node4</title>
<g id="a_node4"><a xlink:href="expr_8h.html" target="_top" xlink:title=" ">
<polygon fill="none" stroke="black" points="452.5,-504.5 452.5,-523.5 517.5,-523.5 517.5,-504.5 452.5,-504.5"/>
<text text-anchor="middle" x="485" y="-511.5" font-family="Helvetica,sans-Serif" font-size="10.00">util/expr.h</text>
</a>
</g>
</g>
<!-- Node1&#45;&gt;Node4 -->
<g id="edge3" class="edge">
<title>Node1&#45;&gt;Node4</title>
<path fill="none" stroke="midnightblue" d="M197.77,-616.45C262.75,-593.5 390.51,-548.38 451.31,-526.9"/>
<polygon fill="midnightblue" stroke="midnightblue" points="452.55,-530.17 460.82,-523.54 450.22,-523.57 452.55,-530.17"/>
</g>
<!-- Node38 -->
<g id="node31" class="node">
<title>Node38</title>
<g id="a_node31"><a xlink:href="cpp__template__args_8h.html" target="_top" xlink:title="C++ Language Type Checking.">
<polygon fill="none" stroke="black" points="425.5,-560.5 425.5,-579.5 544.5,-579.5 544.5,-560.5 425.5,-560.5"/>
<text text-anchor="middle" x="485" y="-567.5" font-family="Helvetica,sans-Serif" font-size="10.00">cpp_template_args.h</text>
</a>
</g>
</g>
<!-- Node1&#45;&gt;Node38 -->
<g id="edge45" class="edge">
<title>Node1&#45;&gt;Node38</title>
<path fill="none" stroke="midnightblue" d="M235.08,-616.47C294.33,-605.69 374.82,-591.05 428.27,-581.32"/>
<polygon fill="midnightblue" stroke="midnightblue" points="429.04,-584.74 438.25,-579.51 427.79,-577.85 429.04,-584.74"/>
</g>
<!-- Node5 -->
<g id="node5" class="node">
<title>Node5</title>
<g id="a_node5"><a xlink:href="as__const_8h.html" target="_top" xlink:title=" ">
<polygon fill="none" stroke="black" points="630,-112.5 630,-131.5 698,-131.5 698,-112.5 630,-112.5"/>
<text text-anchor="middle" x="664" y="-119.5" font-family="Helvetica,sans-Serif" font-size="10.00">as_const.h</text>
</a>
</g>
</g>
<!-- Node4&#45;&gt;Node5 -->
<g id="edge4" class="edge">
<title>Node4&#45;&gt;Node5</title>
<path fill="none" stroke="midnightblue" d="M517.69,-511.31C577.98,-507.52 703.43,-496.38 735,-468 757.38,-447.88 754,-433.1 754,-403 754,-403 754,-403 754,-345 754,-263.3 701,-176.26 676.35,-140.19"/>
<polygon fill="midnightblue" stroke="midnightblue" points="679.07,-137.97 670.47,-131.78 673.33,-141.98 679.07,-137.97"/>
</g>
<!-- Node6 -->
<g id="node6" class="node">
<title>Node6</title>
<g id="a_node6"><a xlink:href="type_8h.html" target="_top" xlink:title="Defines typet, type_with_subtypet and type_with_subtypest.">
<polygon fill="none" stroke="black" points="371.5,-448.5 371.5,-467.5 418.5,-467.5 418.5,-448.5 371.5,-448.5"/>
<text text-anchor="middle" x="395" y="-455.5" font-family="Helvetica,sans-Serif" font-size="10.00">type.h</text>
</a>
</g>
</g>
<!-- Node4&#45;&gt;Node6 -->
<g id="edge5" class="edge">
<title>Node4&#45;&gt;Node6</title>
<path fill="none" stroke="midnightblue" d="M470.54,-504.32C456.5,-495.9 434.95,-482.97 418.46,-473.07"/>
<polygon fill="midnightblue" stroke="midnightblue" points="419.8,-469.8 409.42,-467.65 416.2,-475.8 419.8,-469.8"/>
</g>
<!-- Node34 -->
<g id="node27" class="node">
<title>Node34</title>
<g id="a_node27"><a xlink:href="validation__mode_8h.html" target="_top" xlink:title=" ">
<polygon fill="none" stroke="black" points="587.5,-336.5 587.5,-355.5 694.5,-355.5 694.5,-336.5 587.5,-336.5"/>
<text text-anchor="middle" x="641" y="-343.5" font-family="Helvetica,sans-Serif" font-size="10.00">validation_mode.h</text>
</a>
</g>
</g>
<!-- Node4&#45;&gt;Node34 -->
<g id="edge43" class="edge">
<title>Node4&#45;&gt;Node34</title>
<path fill="none" stroke="midnightblue" d="M485.39,-504.29C486.46,-490.63 490.41,-464.1 505,-448 532.83,-417.3 558.16,-437.27 591,-412 607.87,-399.02 622.09,-379.03 631,-364.65"/>
<polygon fill="midnightblue" stroke="midnightblue" points="634.19,-366.13 636.29,-355.74 628.17,-362.55 634.19,-366.13"/>
</g>
<!-- Node35 -->
<g id="node28" class="node">
<title>Node35</title>
<g id="a_node28"><a xlink:href="validate__types_8h.html" target="_top" xlink:title=" ">
<polygon fill="none" stroke="black" points="484,-392.5 484,-411.5 582,-411.5 582,-392.5 484,-392.5"/>
<text text-anchor="middle" x="533" y="-399.5" font-family="Helvetica,sans-Serif" font-size="10.00">validate_types.h</text>
</a>
</g>
</g>
<!-- Node4&#45;&gt;Node35 -->
<g id="edge42" class="edge">
<title>Node4&#45;&gt;Node35</title>
<path fill="none" stroke="midnightblue" d="M479.54,-504.11C472.32,-491.13 461.56,-466.51 471,-448 478,-434.27 491.37,-423.75 503.9,-416.35"/>
<polygon fill="midnightblue" stroke="midnightblue" points="505.67,-419.37 512.78,-411.51 502.32,-413.22 505.67,-419.37"/>
</g>
<!-- Node36 -->
<g id="node29" class="node">
<title>Node36</title>
<g id="a_node29"><a xlink:href="validate__expressions_8h.html" target="_top" xlink:title=" ">
<polygon fill="none" stroke="black" points="513.5,-448.5 513.5,-467.5 642.5,-467.5 642.5,-448.5 513.5,-448.5"/>
<text text-anchor="middle" x="578" y="-455.5" font-family="Helvetica,sans-Serif" font-size="10.00">validate_expressions.h</text>
</a>
</g>
</g>
<!-- Node4&#45;&gt;Node36 -->
<g id="edge41" class="edge">
<title>Node4&#45;&gt;Node36</title>
<path fill="none" stroke="midnightblue" d="M499.94,-504.32C514.59,-495.82 537.13,-482.73 554.24,-472.8"/>
<polygon fill="midnightblue" stroke="midnightblue" points="556.2,-475.7 563.1,-467.65 552.69,-469.65 556.2,-475.7"/>
</g>
<!-- Node37 -->
<g id="node30" class="node">
<title>Node37</title>
<g id="a_node30"><a xlink:title=" ">
<polygon fill="none" stroke="#bfbfbf" points="660.5,-448.5 660.5,-467.5 725.5,-467.5 725.5,-448.5 660.5,-448.5"/>
<text text-anchor="middle" x="693" y="-455.5" font-family="Helvetica,sans-Serif" font-size="10.00">functional</text>
</a>
</g>
</g>
<!-- Node4&#45;&gt;Node37 -->
<g id="edge44" class="edge">
<title>Node4&#45;&gt;Node37</title>
<path fill="none" stroke="midnightblue" d="M517.96,-504.44C553.79,-495.14 611.16,-480.25 650.39,-470.06"/>
<polygon fill="midnightblue" stroke="midnightblue" points="651.4,-473.42 660.2,-467.52 649.64,-466.64 651.4,-473.42"/>
</g>
<!-- Node7 -->
<g id="node7" class="node">
<title>Node7</title>
<g id="a_node7"><a xlink:href="source__location_8h.html" target="_top" xlink:title=" ">
<polygon fill="none" stroke="black" points="329,-280.5 329,-299.5 431,-299.5 431,-280.5 329,-280.5"/>
<text text-anchor="middle" x="380" y="-287.5" font-family="Helvetica,sans-Serif" font-size="10.00">source_location.h</text>
</a>
</g>
</g>
<!-- Node6&#45;&gt;Node7 -->
<g id="edge6" class="edge">
<title>Node6&#45;&gt;Node7</title>
<path fill="none" stroke="midnightblue" d="M383.46,-448.49C373.52,-440.38 359.88,-427.18 354,-412 340.35,-376.76 357.73,-332.83 369.94,-308.78"/>
<polygon fill="midnightblue" stroke="midnightblue" points="373.13,-310.25 374.76,-299.78 366.96,-306.95 373.13,-310.25"/>
</g>
<!-- Node32 -->
<g id="node25" class="node">
<title>Node32</title>
<g id="a_node25"><a xlink:href="validate_8h.html" target="_top" xlink:title=" ">
<polygon fill="none" stroke="black" points="362.5,-392.5 362.5,-411.5 427.5,-411.5 427.5,-392.5 362.5,-392.5"/>
<text text-anchor="middle" x="395" y="-399.5" font-family="Helvetica,sans-Serif" font-size="10.00">validate.h</text>
</a>
</g>
</g>
<!-- Node6&#45;&gt;Node32 -->
<g id="edge32" class="edge">
<title>Node6&#45;&gt;Node32</title>
<path fill="none" stroke="midnightblue" d="M395,-448.08C395,-441.01 395,-430.86 395,-421.99"/>
<polygon fill="midnightblue" stroke="midnightblue" points="398.5,-421.75 395,-411.75 391.5,-421.75 398.5,-421.75"/>
</g>
<!-- Node6&#45;&gt;Node34 -->
<g id="edge40" class="edge">
<title>Node6&#45;&gt;Node34</title>
<path fill="none" stroke="midnightblue" d="M403.03,-448.48C416.57,-434.61 445.38,-407.18 475,-392 507.01,-375.6 545.65,-364.67 577.6,-357.69"/>
<polygon fill="midnightblue" stroke="midnightblue" points="578.65,-361.05 587.72,-355.56 577.21,-354.2 578.65,-361.05"/>
</g>
<!-- Node6&#45;&gt;Node35 -->
<g id="edge39" class="edge">
<title>Node6&#45;&gt;Node35</title>
<path fill="none" stroke="midnightblue" d="M416.87,-448.44C439.78,-439.48 475.98,-425.31 501.87,-415.18"/>
<polygon fill="midnightblue" stroke="midnightblue" points="503.2,-418.42 511.24,-411.52 500.65,-411.9 503.2,-418.42"/>
</g>
<!-- Node8 -->
<g id="node8" class="node">
<title>Node8</title>
<g id="a_node8"><a xlink:href="deprecate_8h.html" target="_top" xlink:title=" ">
<polygon fill="none" stroke="black" points="464,-168.5 464,-187.5 538,-187.5 538,-168.5 464,-168.5"/>
<text text-anchor="middle" x="501" y="-175.5" font-family="Helvetica,sans-Serif" font-size="10.00">deprecate.h</text>
</a>
</g>
</g>
<!-- Node7&#45;&gt;Node8 -->
<g id="edge7" class="edge">
<title>Node7&#45;&gt;Node8</title>
<path fill="none" stroke="midnightblue" d="M389.49,-280.37C409.9,-261.81 458.2,-217.91 484.02,-194.44"/>
<polygon fill="midnightblue" stroke="midnightblue" points="486.5,-196.91 491.55,-187.59 481.8,-191.73 486.5,-196.91"/>
</g>
<!-- Node9 -->
<g id="node9" class="node">
<title>Node9</title>
<g id="a_node9"><a xlink:href="irep_8h.html" target="_top" xlink:title=" ">
<polygon fill="none" stroke="black" points="242,-224.5 242,-243.5 286,-243.5 286,-224.5 242,-224.5"/>
<text text-anchor="middle" x="264" y="-231.5" font-family="Helvetica,sans-Serif" font-size="10.00">irep.h</text>
</a>
</g>
</g>
<!-- Node7&#45;&gt;Node9 -->
<g id="edge8" class="edge">
<title>Node7&#45;&gt;Node9</title>
<path fill="none" stroke="midnightblue" d="M361.62,-280.44C342.78,-271.68 313.27,-257.94 291.62,-247.86"/>
<polygon fill="midnightblue" stroke="midnightblue" points="292.84,-244.56 282.29,-243.52 289.88,-250.91 292.84,-244.56"/>
</g>
<!-- Node10 -->
<g id="node10" class="node">
<title>Node10</title>
<g id="a_node10"><a xlink:title=" ">
<polygon fill="none" stroke="#bfbfbf" points="148,-0.5 148,-19.5 192,-19.5 192,-0.5 148,-0.5"/>
<text text-anchor="middle" x="170" y="-7.5" font-family="Helvetica,sans-Serif" font-size="10.00">string</text>
</a>
</g>
</g>
<!-- Node7&#45;&gt;Node10 -->
<g id="edge31" class="edge">
<title>Node7&#45;&gt;Node10</title>
<path fill="none" stroke="midnightblue" d="M328.86,-282.16C268.02,-271.62 166.46,-246.17 101,-188 56.1,-148.1 38.24,-105.68 72,-56 86.97,-33.98 115.55,-22.54 138,-16.72"/>
<polygon fill="midnightblue" stroke="midnightblue" points="138.87,-20.11 147.81,-14.42 137.28,-13.29 138.87,-20.11"/>
</g>
<!-- Node30 -->
<g id="node23" class="node">
<title>Node30</title>
<g id="a_node23"><a xlink:href="optional_8h.html" target="_top" xlink:title=" ">
<polygon fill="none" stroke="black" points="468.5,-224.5 468.5,-243.5 533.5,-243.5 533.5,-224.5 468.5,-224.5"/>
<text text-anchor="middle" x="501" y="-231.5" font-family="Helvetica,sans-Serif" font-size="10.00">optional.h</text>
</a>
</g>
</g>
<!-- Node7&#45;&gt;Node30 -->
<g id="edge28" class="edge">
<title>Node7&#45;&gt;Node30</title>
<path fill="none" stroke="midnightblue" d="M399.17,-280.44C418.91,-271.64 449.89,-257.81 472.49,-247.72"/>
<polygon fill="midnightblue" stroke="midnightblue" points="474.21,-250.79 481.92,-243.52 471.36,-244.4 474.21,-250.79"/>
</g>
<!-- Node9&#45;&gt;Node10 -->
<g id="edge9" class="edge">
<title>Node9&#45;&gt;Node10</title>
<path fill="none" stroke="midnightblue" d="M241.8,-231.94C211.05,-229.28 155.63,-220.05 123,-188 79.44,-145.23 53.51,-108.3 85,-56 96.51,-36.88 119.19,-25.45 138.22,-18.9"/>
<polygon fill="midnightblue" stroke="midnightblue" points="139.27,-22.24 147.76,-15.91 137.17,-15.56 139.27,-22.24"/>
</g>
<!-- Node11 -->
<g id="node11" class="node">
<title>Node11</title>
<g id="a_node11"><a xlink:title=" ">
<polygon fill="none" stroke="#bfbfbf" points="214.5,-168.5 214.5,-187.5 261.5,-187.5 261.5,-168.5 214.5,-168.5"/>
<text text-anchor="middle" x="238" y="-175.5" font-family="Helvetica,sans-Serif" font-size="10.00">vector</text>
</a>
</g>
</g>
<!-- Node9&#45;&gt;Node11 -->
<g id="edge10" class="edge">
<title>Node9&#45;&gt;Node11</title>
<path fill="none" stroke="midnightblue" d="M259.71,-224.08C256.15,-216.69 250.98,-205.95 246.58,-196.81"/>
<polygon fill="midnightblue" stroke="midnightblue" points="249.71,-195.24 242.21,-187.75 243.4,-198.28 249.71,-195.24"/>
</g>
<!-- Node12 -->
<g id="node12" class="node">
<title>Node12</title>
<g id="a_node12"><a xlink:href="src_2util_2invariant_8h.html" target="_top" xlink:title=" ">
<polygon fill="none" stroke="black" points="552.5,-56.5 552.5,-75.5 621.5,-75.5 621.5,-56.5 552.5,-56.5"/>
<text text-anchor="middle" x="587" y="-63.5" font-family="Helvetica,sans-Serif" font-size="10.00">invariant.h</text>
</a>
</g>
</g>
<!-- Node9&#45;&gt;Node12 -->
<g id="edge11" class="edge">
<title>Node9&#45;&gt;Node12</title>
<path fill="none" stroke="midnightblue" d="M266.06,-224.24C271.88,-201.57 290.73,-140.72 331,-112 364.15,-88.36 477.77,-75.69 541.94,-70.27"/>
<polygon fill="midnightblue" stroke="midnightblue" points="542.49,-73.73 552.17,-69.43 541.92,-66.76 542.49,-73.73"/>
</g>
<!-- Node16 -->
<g id="node16" class="node">
<title>Node16</title>
<g id="a_node16"><a xlink:href="irep__ids_8h.html" target="_top" xlink:title="util">
<polygon fill="none" stroke="black" points="132,-168.5 132,-187.5 196,-187.5 196,-168.5 132,-168.5"/>
<text text-anchor="middle" x="164" y="-175.5" font-family="Helvetica,sans-Serif" font-size="10.00">irep_ids.h</text>
</a>
</g>
</g>
<!-- Node9&#45;&gt;Node16 -->
<g id="edge16" class="edge">
<title>Node9&#45;&gt;Node16</title>
<path fill="none" stroke="midnightblue" d="M247.93,-224.32C232.04,-215.74 207.49,-202.49 189.04,-192.52"/>
<polygon fill="midnightblue" stroke="midnightblue" points="190.49,-189.33 180.03,-187.65 187.16,-195.49 190.49,-189.33"/>
</g>
<!-- Node26 -->
<g id="node19" class="node">
<title>Node26</title>
<g id="a_node19"><a xlink:href="forward__list__as__map_8h.html" target="_top" xlink:title=" ">
<polygon fill="none" stroke="black" points="318.5,-168.5 318.5,-187.5 445.5,-187.5 445.5,-168.5 318.5,-168.5"/>
<text text-anchor="middle" x="382" y="-175.5" font-family="Helvetica,sans-Serif" font-size="10.00">forward_list_as_map.h</text>
</a>
</g>
</g>
<!-- Node9&#45;&gt;Node26 -->
<g id="edge21" class="edge">
<title>Node9&#45;&gt;Node26</title>
<path fill="none" stroke="midnightblue" d="M282.7,-224.44C301.94,-215.64 332.15,-201.81 354.2,-191.72"/>
<polygon fill="midnightblue" stroke="midnightblue" points="355.75,-194.86 363.39,-187.52 352.84,-188.5 355.75,-194.86"/>
</g>
<!-- Node12&#45;&gt;Node10 -->
<g id="edge14" class="edge">
<title>Node12&#45;&gt;Node10</title>
<path fill="none" stroke="midnightblue" d="M552.24,-58.35C547.47,-57.51 542.62,-56.71 538,-56 414.4,-37.11 266.48,-20.98 202.32,-14.29"/>
<polygon fill="midnightblue" stroke="midnightblue" points="202.35,-10.78 192.05,-13.23 201.63,-17.74 202.35,-10.78"/>
</g>
<!-- Node13 -->
<g id="node13" class="node">
<title>Node13</title>
<g id="a_node13"><a xlink:title=" ">
<polygon fill="none" stroke="#bfbfbf" points="491.5,-0.5 491.5,-19.5 540.5,-19.5 540.5,-0.5 491.5,-0.5"/>
<text text-anchor="middle" x="516" y="-7.5" font-family="Helvetica,sans-Serif" font-size="10.00">cstdlib</text>
</a>
</g>
</g>
<!-- Node12&#45;&gt;Node13 -->
<g id="edge12" class="edge">
<title>Node12&#45;&gt;Node13</title>
<path fill="none" stroke="midnightblue" d="M575.59,-56.32C564.89,-48.18 548.66,-35.84 535.84,-26.09"/>
<polygon fill="midnightblue" stroke="midnightblue" points="537.69,-23.1 527.61,-19.83 533.46,-28.67 537.69,-23.1"/>
</g>
<!-- Node14 -->
<g id="node14" class="node">
<title>Node14</title>
<g id="a_node14"><a xlink:title=" ">
<polygon fill="none" stroke="#bfbfbf" points="559,-0.5 559,-19.5 615,-19.5 615,-0.5 559,-0.5"/>
<text text-anchor="middle" x="587" y="-7.5" font-family="Helvetica,sans-Serif" font-size="10.00">sstream</text>
</a>
</g>
</g>
<!-- Node12&#45;&gt;Node14 -->
<g id="edge13" class="edge">
<title>Node12&#45;&gt;Node14</title>
<path fill="none" stroke="midnightblue" d="M587,-56.08C587,-49.01 587,-38.86 587,-29.99"/>
<polygon fill="midnightblue" stroke="midnightblue" points="590.5,-29.75 587,-19.75 583.5,-29.75 590.5,-29.75"/>
</g>
<!-- Node15 -->
<g id="node15" class="node">
<title>Node15</title>
<g id="a_node15"><a xlink:title=" ">
<polygon fill="none" stroke="#bfbfbf" points="633.5,-0.5 633.5,-19.5 702.5,-19.5 702.5,-0.5 633.5,-0.5"/>
<text text-anchor="middle" x="668" y="-7.5" font-family="Helvetica,sans-Serif" font-size="10.00">type_traits</text>
</a>
</g>
</g>
<!-- Node12&#45;&gt;Node15 -->
<g id="edge15" class="edge">
<title>Node12&#45;&gt;Node15</title>
<path fill="none" stroke="midnightblue" d="M600.01,-56.32C612.53,-47.98 631.68,-35.21 646.47,-25.35"/>
<polygon fill="midnightblue" stroke="midnightblue" points="648.64,-28.11 655.02,-19.65 644.76,-22.29 648.64,-28.11"/>
</g>
<!-- Node17 -->
<g id="node17" class="node">
<title>Node17</title>
<g id="a_node17"><a xlink:href="dstring_8h.html" target="_top" xlink:title="Container for C&#45;Strings.">
<polygon fill="none" stroke="red" points="132.5,-112.5 132.5,-131.5 191.5,-131.5 191.5,-112.5 132.5,-112.5"/>
<text text-anchor="middle" x="162" y="-119.5" font-family="Helvetica,sans-Serif" font-size="10.00">dstring.h</text>
</a>
</g>
</g>
<!-- Node16&#45;&gt;Node17 -->
<g id="edge17" class="edge">
<title>Node16&#45;&gt;Node17</title>
<path fill="none" stroke="midnightblue" d="M163.67,-168.08C163.41,-161.01 163.03,-150.86 162.7,-141.99"/>
<polygon fill="midnightblue" stroke="midnightblue" points="166.19,-141.61 162.32,-131.75 159.2,-141.87 166.19,-141.61"/>
</g>
<!-- Node25 -->
<g id="node18" class="node">
<title>Node25</title>
<g id="a_node18"><a xlink:title=" ">
<polygon fill="none" stroke="#bfbfbf" points="210,-112.5 210,-131.5 284,-131.5 284,-112.5 210,-112.5"/>
<text text-anchor="middle" x="247" y="-119.5" font-family="Helvetica,sans-Serif" font-size="10.00">irep_ids.def</text>
</a>
</g>
</g>
<!-- Node16&#45;&gt;Node25 -->
<g id="edge20" class="edge">
<title>Node16&#45;&gt;Node25</title>
<path fill="none" stroke="midnightblue" d="M177.34,-168.32C190.16,-159.98 209.78,-147.21 224.94,-137.35"/>
<polygon fill="midnightblue" stroke="midnightblue" points="227.22,-140.04 233.7,-131.65 223.41,-134.17 227.22,-140.04"/>
</g>
<!-- Node17&#45;&gt;Node3 -->
<g id="edge18" class="edge">
<title>Node17&#45;&gt;Node3</title>
<path fill="none" stroke="midnightblue" d="M154.73,-112.08C148.46,-104.38 139.21,-93.03 131.57,-83.65"/>
<polygon fill="midnightblue" stroke="midnightblue" points="134.16,-81.29 125.13,-75.75 128.73,-85.71 134.16,-81.29"/>
</g>
<!-- Node17&#45;&gt;Node10 -->
<g id="edge19" class="edge">
<title>Node17&#45;&gt;Node10</title>
<path fill="none" stroke="midnightblue" d="M162.63,-112.37C163.92,-94.62 166.9,-53.67 168.65,-29.6"/>
<polygon fill="midnightblue" stroke="midnightblue" points="172.14,-29.82 169.38,-19.59 165.16,-29.31 172.14,-29.82"/>
</g>
<!-- Node26&#45;&gt;Node5 -->
<g id="edge24" class="edge">
<title>Node26&#45;&gt;Node5</title>
<path fill="none" stroke="midnightblue" d="M428.77,-168.48C474.82,-160.03 547.44,-146.53 619.57,-132.25"/>
<polygon fill="midnightblue" stroke="midnightblue" points="620.62,-135.62 629.75,-130.23 619.26,-128.75 620.62,-135.62"/>
</g>
<!-- Node27 -->
<g id="node20" class="node">
<title>Node27</title>
<g id="a_node20"><a xlink:title=" ">
<polygon fill="none" stroke="#bfbfbf" points="340,-112.5 340,-131.5 404,-131.5 404,-112.5 340,-112.5"/>
<text text-anchor="middle" x="372" y="-119.5" font-family="Helvetica,sans-Serif" font-size="10.00">algorithm</text>
</a>
</g>
</g>
<!-- Node26&#45;&gt;Node27 -->
<g id="edge22" class="edge">
<title>Node26&#45;&gt;Node27</title>
<path fill="none" stroke="midnightblue" d="M380.35,-168.08C379.02,-160.93 377.12,-150.64 375.46,-141.69"/>
<polygon fill="midnightblue" stroke="midnightblue" points="378.88,-140.95 373.62,-131.75 372,-142.22 378.88,-140.95"/>
</g>
<!-- Node28 -->
<g id="node21" class="node">
<title>Node28</title>
<g id="a_node21"><a xlink:title=" ">
<polygon fill="none" stroke="#bfbfbf" points="422,-112.5 422,-131.5 496,-131.5 496,-112.5 422,-112.5"/>
<text text-anchor="middle" x="459" y="-119.5" font-family="Helvetica,sans-Serif" font-size="10.00">forward_list</text>
</a>
</g>
</g>
<!-- Node26&#45;&gt;Node28 -->
<g id="edge23" class="edge">
<title>Node26&#45;&gt;Node28</title>
<path fill="none" stroke="midnightblue" d="M394.37,-168.32C406.16,-160.06 424.13,-147.45 438.14,-137.63"/>
<polygon fill="midnightblue" stroke="midnightblue" points="440.48,-140.26 446.66,-131.65 436.46,-134.53 440.48,-140.26"/>
</g>
<!-- Node29 -->
<g id="node22" class="node">
<title>Node29</title>
<g id="a_node22"><a xlink:href="narrow_8h.html" target="_top" xlink:title=" ">
<polygon fill="none" stroke="black" points="552.5,-112.5 552.5,-131.5 611.5,-131.5 611.5,-112.5 552.5,-112.5"/>
<text text-anchor="middle" x="582" y="-119.5" font-family="Helvetica,sans-Serif" font-size="10.00">narrow.h</text>
</a>
</g>
</g>
<!-- Node26&#45;&gt;Node29 -->
<g id="edge25" class="edge">
<title>Node26&#45;&gt;Node29</title>
<path fill="none" stroke="midnightblue" d="M413.69,-168.44C448.53,-159.04 504.55,-143.91 542.29,-133.72"/>
<polygon fill="midnightblue" stroke="midnightblue" points="543.67,-136.97 552.41,-130.99 541.85,-130.22 543.67,-136.97"/>
</g>
<!-- Node29&#45;&gt;Node12 -->
<g id="edge27" class="edge">
<title>Node29&#45;&gt;Node12</title>
<path fill="none" stroke="midnightblue" d="M582.83,-112.08C583.48,-105.01 584.42,-94.86 585.24,-85.99"/>
<polygon fill="midnightblue" stroke="midnightblue" points="588.75,-86.03 586.19,-75.75 581.78,-85.39 588.75,-86.03"/>
</g>
<!-- Node29&#45;&gt;Node15 -->
<g id="edge26" class="edge">
<title>Node29&#45;&gt;Node15</title>
<path fill="none" stroke="midnightblue" d="M593.45,-112.22C604.03,-103.72 619.77,-90.09 631,-76 642.73,-61.27 653.05,-42.37 659.79,-28.75"/>
<polygon fill="midnightblue" stroke="midnightblue" points="663.04,-30.05 664.2,-19.52 656.73,-27.03 663.04,-30.05"/>
</g>
<!-- Node30&#45;&gt;Node8 -->
<g id="edge29" class="edge">
<title>Node30&#45;&gt;Node8</title>
<path fill="none" stroke="midnightblue" d="M501,-224.08C501,-217.01 501,-206.86 501,-197.99"/>
<polygon fill="midnightblue" stroke="midnightblue" points="504.5,-197.75 501,-187.75 497.5,-197.75 504.5,-197.75"/>
</g>
<!-- Node31 -->
<g id="node24" class="node">
<title>Node31</title>
<g id="a_node24"><a xlink:title=" ">
<polygon fill="none" stroke="#bfbfbf" points="556,-168.5 556,-187.5 612,-187.5 612,-168.5 556,-168.5"/>
<text text-anchor="middle" x="584" y="-175.5" font-family="Helvetica,sans-Serif" font-size="10.00">optional</text>
</a>
</g>
</g>
<!-- Node30&#45;&gt;Node31 -->
<g id="edge30" class="edge">
<title>Node30&#45;&gt;Node31</title>
<path fill="none" stroke="midnightblue" d="M514.34,-224.32C527.16,-215.98 546.78,-203.21 561.94,-193.35"/>
<polygon fill="midnightblue" stroke="midnightblue" points="564.22,-196.04 570.7,-187.65 560.41,-190.17 564.22,-196.04"/>
</g>
<!-- Node32&#45;&gt;Node15 -->
<g id="edge33" class="edge">
<title>Node32&#45;&gt;Node15</title>
<path fill="none" stroke="midnightblue" d="M419.34,-392.41C487.45,-368.34 675.19,-301.94 678,-300 705.01,-281.42 710.24,-272.74 726,-244 754.21,-192.56 749.28,-165.85 726,-112 712.62,-81.06 692.07,-47.58 679.36,-27.99"/>
<polygon fill="midnightblue" stroke="midnightblue" points="682.24,-26 673.82,-19.57 676.39,-29.85 682.24,-26"/>
</g>
<!-- Node33 -->
<g id="node26" class="node">
<title>Node33</title>
<g id="a_node26"><a xlink:href="exception__utils_8h.html" target="_top" xlink:title=" ">
<polygon fill="none" stroke="black" points="376,-336.5 376,-355.5 476,-355.5 476,-336.5 376,-336.5"/>
<text text-anchor="middle" x="426" y="-343.5" font-family="Helvetica,sans-Serif" font-size="10.00">exception_utils.h</text>
</a>
</g>
</g>
<!-- Node32&#45;&gt;Node33 -->
<g id="edge34" class="edge">
<title>Node32&#45;&gt;Node33</title>
<path fill="none" stroke="midnightblue" d="M400.12,-392.08C404.41,-384.61 410.66,-373.72 415.94,-364.52"/>
<polygon fill="midnightblue" stroke="midnightblue" points="419.03,-366.17 420.98,-355.75 412.96,-362.68 419.03,-366.17"/>
</g>
<!-- Node32&#45;&gt;Node34 -->
<g id="edge38" class="edge">
<title>Node32&#45;&gt;Node34</title>
<path fill="none" stroke="midnightblue" d="M427.67,-393.83C469.76,-384.59 543.32,-368.44 592.1,-357.73"/>
<polygon fill="midnightblue" stroke="midnightblue" points="593.09,-361.1 602.11,-355.54 591.59,-354.26 593.09,-361.1"/>
</g>
<!-- Node33&#45;&gt;Node7 -->
<g id="edge37" class="edge">
<title>Node33&#45;&gt;Node7</title>
<path fill="none" stroke="midnightblue" d="M418.4,-336.08C411.77,-328.3 401.98,-316.8 393.94,-307.37"/>
<polygon fill="midnightblue" stroke="midnightblue" points="396.6,-305.09 387.45,-299.75 391.27,-309.63 396.6,-305.09"/>
</g>
<!-- Node33&#45;&gt;Node10 -->
<g id="edge35" class="edge">
<title>Node33&#45;&gt;Node10</title>
<path fill="none" stroke="midnightblue" d="M451.2,-336.47C514.49,-313.65 671.57,-247.46 621,-168 600.72,-136.13 577.92,-148.62 544,-132 526.51,-123.43 523.07,-119.29 505,-112 396.85,-68.38 262.52,-33.39 202.09,-18.61"/>
<polygon fill="midnightblue" stroke="midnightblue" points="202.57,-15.12 192.02,-16.17 200.92,-21.93 202.57,-15.12"/>
</g>
<!-- Node33&#45;&gt;Node12 -->
<g id="edge36" class="edge">
<title>Node33&#45;&gt;Node12</title>
<path fill="none" stroke="midnightblue" d="M476.21,-341.02C535.2,-335.36 628.29,-323.01 654,-300 718.69,-242.11 756.45,-183.35 707,-112 690.09,-87.59 658.2,-76.41 631.54,-71.29"/>
<polygon fill="midnightblue" stroke="midnightblue" points="632.07,-67.82 621.62,-69.61 630.9,-74.73 632.07,-67.82"/>
</g>
<!-- Node38&#45;&gt;Node4 -->
<g id="edge46" class="edge">
<title>Node38&#45;&gt;Node4</title>
<path fill="none" stroke="midnightblue" d="M485,-560.08C485,-553.01 485,-542.86 485,-533.99"/>
<polygon fill="midnightblue" stroke="midnightblue" points="488.5,-533.75 485,-523.75 481.5,-533.75 488.5,-533.75"/>
</g>
<!-- Node38&#45;&gt;Node12 -->
<g id="edge47" class="edge">
<title>Node38&#45;&gt;Node12</title>
<path fill="none" stroke="midnightblue" d="M542.38,-560.46C631.24,-545.59 792,-511.44 792,-459 792,-459 792,-459 792,-289 792,-205.04 786.65,-170.05 726,-112 700.59,-87.68 661.93,-76.51 631.83,-71.37"/>
<polygon fill="midnightblue" stroke="midnightblue" points="631.99,-67.85 621.57,-69.79 630.92,-74.77 631.99,-67.85"/>
</g>
</g>
</svg>
