<?xml version="1.0" encoding="UTF-8" standalone="no"?>
<!DOCTYPE svg PUBLIC "-//W3C//DTD SVG 1.1//EN"
 "http://www.w3.org/Graphics/SVG/1.1/DTD/svg11.dtd">
<!-- Generated by graphviz version 2.43.0 (0)
 -->
<!-- Title: /home/runner/work/cbmc/cbmc/src/goto&#45;instrument/accelerate/trace_automaton.h Pages: 1 -->
<svg width="1336pt" height="733pt"
 viewBox="0.00 0.00 1336.00 733.00" xmlns="http://www.w3.org/2000/svg" xmlns:xlink="http://www.w3.org/1999/xlink">
<g id="graph0" class="graph" transform="scale(1 1) rotate(0) translate(4 729)">
<title>/home/runner/work/cbmc/cbmc/src/goto&#45;instrument/accelerate/trace_automaton.h</title>
<!-- Node1 -->
<g id="node1" class="node">
<title>Node1</title>
<g id="a_node1"><a xlink:title=" ">
<polygon fill="#bfbfbf" stroke="black" points="1040,-683.5 1040,-724.5 1206,-724.5 1206,-683.5 1040,-683.5"/>
<text text-anchor="start" x="1048" y="-712.5" font-family="Helvetica,sans-Serif" font-size="10.00">/home/runner/work/cbmc</text>
<text text-anchor="start" x="1048" y="-701.5" font-family="Helvetica,sans-Serif" font-size="10.00">/cbmc/src/goto&#45;instrument</text>
<text text-anchor="middle" x="1123" y="-690.5" font-family="Helvetica,sans-Serif" font-size="10.00">/accelerate/trace_automaton.h</text>
</a>
</g>
</g>
<!-- Node2 -->
<g id="node2" class="node">
<title>Node2</title>
<g id="a_node2"><a xlink:href="path_8h.html" target="_top" xlink:title=" ">
<polygon fill="none" stroke="black" points="845.5,-627.5 845.5,-646.5 892.5,-646.5 892.5,-627.5 845.5,-627.5"/>
<text text-anchor="middle" x="869" y="-634.5" font-family="Helvetica,sans-Serif" font-size="10.00">path.h</text>
</a>
</g>
</g>
<!-- Node1&#45;&gt;Node2 -->
<g id="edge1" class="edge">
<title>Node1&#45;&gt;Node2</title>
<path fill="none" stroke="midnightblue" d="M1046.79,-683.5C998.78,-671.21 939.17,-655.96 902.62,-646.6"/>
<polygon fill="midnightblue" stroke="midnightblue" points="903.06,-643.1 892.51,-644.02 901.33,-649.89 903.06,-643.1"/>
</g>
<!-- Node3 -->
<g id="node3" class="node">
<title>Node3</title>
<g id="a_node3"><a xlink:title=" ">
<polygon fill="none" stroke="#bfbfbf" points="26,-280.5 26,-299.5 74,-299.5 74,-280.5 26,-280.5"/>
<text text-anchor="middle" x="50" y="-287.5" font-family="Helvetica,sans-Serif" font-size="10.00">iosfwd</text>
</a>
</g>
</g>
<!-- Node1&#45;&gt;Node3 -->
<g id="edge67" class="edge">
<title>Node1&#45;&gt;Node3</title>
<path fill="none" stroke="midnightblue" d="M1039.97,-702.35C780.17,-699.23 0,-681.16 0,-576.5 0,-576.5 0,-576.5 0,-401 0,-365.18 22.24,-328.21 37.05,-307.56"/>
<polygon fill="midnightblue" stroke="midnightblue" points="39.88,-309.63 43.05,-299.52 34.27,-305.45 39.88,-309.63"/>
</g>
<!-- Node20 -->
<g id="node20" class="node">
<title>Node20</title>
<g id="a_node20"><a xlink:title=" ">
<polygon fill="none" stroke="#bfbfbf" points="1167.5,-56.5 1167.5,-75.5 1214.5,-75.5 1214.5,-56.5 1167.5,-56.5"/>
<text text-anchor="middle" x="1191" y="-63.5" font-family="Helvetica,sans-Serif" font-size="10.00">vector</text>
</a>
</g>
</g>
<!-- Node1&#45;&gt;Node20 -->
<g id="edge65" class="edge">
<title>Node1&#45;&gt;Node20</title>
<path fill="none" stroke="midnightblue" d="M1142.53,-683.49C1171.64,-652.78 1224.93,-589.85 1243,-524 1291.57,-347.01 1265.83,-288.35 1215,-112 1212.22,-102.34 1207.18,-92.39 1202.44,-84.32"/>
<polygon fill="midnightblue" stroke="midnightblue" points="1205.41,-82.47 1197.16,-75.82 1199.46,-86.17 1205.41,-82.47"/>
</g>
<!-- Node44 -->
<g id="node29" class="node">
<title>Node44</title>
<g id="a_node29"><a xlink:href="goto__program_8h.html" target="_top" xlink:title=" ">
<polygon fill="none" stroke="black" points="979.5,-560.5 979.5,-590.5 1092.5,-590.5 1092.5,-560.5 979.5,-560.5"/>
<text text-anchor="start" x="987.5" y="-578.5" font-family="Helvetica,sans-Serif" font-size="10.00">goto&#45;programs/goto</text>
<text text-anchor="middle" x="1036" y="-567.5" font-family="Helvetica,sans-Serif" font-size="10.00">_program.h</text>
</a>
</g>
</g>
<!-- Node1&#45;&gt;Node44 -->
<g id="edge63" class="edge">
<title>Node1&#45;&gt;Node44</title>
<path fill="none" stroke="midnightblue" d="M1109.41,-683.23C1093.73,-660.44 1068,-623.03 1051.54,-599.1"/>
<polygon fill="midnightblue" stroke="midnightblue" points="1054.28,-596.9 1045.73,-590.64 1048.51,-600.87 1054.28,-596.9"/>
</g>
<!-- Node48 -->
<g id="node33" class="node">
<title>Node48</title>
<g id="a_node33"><a xlink:title=" ">
<polygon fill="none" stroke="#bfbfbf" points="1202,-504.5 1202,-523.5 1234,-523.5 1234,-504.5 1202,-504.5"/>
<text text-anchor="middle" x="1218" y="-511.5" font-family="Helvetica,sans-Serif" font-size="10.00">set</text>
</a>
</g>
</g>
<!-- Node1&#45;&gt;Node48 -->
<g id="edge66" class="edge">
<title>Node1&#45;&gt;Node48</title>
<path fill="none" stroke="midnightblue" d="M1132.99,-683.24C1151.54,-646.51 1191.07,-568.28 1208.92,-532.96"/>
<polygon fill="midnightblue" stroke="midnightblue" points="1212.15,-534.34 1213.53,-523.84 1205.9,-531.19 1212.15,-534.34"/>
</g>
<!-- Node51 -->
<g id="node36" class="node">
<title>Node51</title>
<g id="a_node36"><a xlink:title=" ">
<polygon fill="none" stroke="#bfbfbf" points="1290,-627.5 1290,-646.5 1328,-646.5 1328,-627.5 1290,-627.5"/>
<text text-anchor="middle" x="1309" y="-634.5" font-family="Helvetica,sans-Serif" font-size="10.00">map</text>
</a>
</g>
</g>
<!-- Node1&#45;&gt;Node51 -->
<g id="edge64" class="edge">
<title>Node1&#45;&gt;Node51</title>
<path fill="none" stroke="midnightblue" d="M1178.81,-683.5C1212.21,-671.83 1253.27,-657.48 1280.24,-648.05"/>
<polygon fill="midnightblue" stroke="midnightblue" points="1281.55,-651.3 1289.84,-644.7 1279.24,-644.69 1281.55,-651.3"/>
</g>
<!-- Node2&#45;&gt;Node3 -->
<g id="edge2" class="edge">
<title>Node2&#45;&gt;Node3</title>
<path fill="none" stroke="midnightblue" d="M845.47,-635.12C710.23,-629.77 38,-598.92 38,-515 38,-515 38,-515 38,-401 38,-368.76 43.16,-331.51 46.71,-309.68"/>
<polygon fill="midnightblue" stroke="midnightblue" points="50.21,-309.97 48.43,-299.52 43.31,-308.8 50.21,-309.97"/>
</g>
<!-- Node4 -->
<g id="node4" class="node">
<title>Node4</title>
<g id="a_node4"><a xlink:title=" ">
<polygon fill="none" stroke="#bfbfbf" points="809,-566 809,-585 841,-585 841,-566 809,-566"/>
<text text-anchor="middle" x="825" y="-573" font-family="Helvetica,sans-Serif" font-size="10.00">list</text>
</a>
</g>
</g>
<!-- Node2&#45;&gt;Node4 -->
<g id="edge3" class="edge">
<title>Node2&#45;&gt;Node4</title>
<path fill="none" stroke="midnightblue" d="M862.7,-627.48C856.1,-618.55 845.56,-604.31 837.31,-593.14"/>
<polygon fill="midnightblue" stroke="midnightblue" points="840.05,-590.97 831.29,-585.01 834.42,-595.13 840.05,-590.97"/>
</g>
<!-- Node5 -->
<g id="node5" class="node">
<title>Node5</title>
<g id="a_node5"><a xlink:href="std__expr_8h.html" target="_top" xlink:title=" ">
<polygon fill="none" stroke="black" points="807,-448.5 807,-467.5 893,-467.5 893,-448.5 807,-448.5"/>
<text text-anchor="middle" x="850" y="-455.5" font-family="Helvetica,sans-Serif" font-size="10.00">util/std_expr.h</text>
</a>
</g>
</g>
<!-- Node2&#45;&gt;Node5 -->
<g id="edge4" class="edge">
<title>Node2&#45;&gt;Node5</title>
<path fill="none" stroke="midnightblue" d="M868.08,-627.46C865.18,-600.43 856.14,-516.24 852.05,-478.11"/>
<polygon fill="midnightblue" stroke="midnightblue" points="855.5,-477.44 850.95,-467.87 848.54,-478.18 855.5,-477.44"/>
</g>
<!-- Node2&#45;&gt;Node44 -->
<g id="edge44" class="edge">
<title>Node2&#45;&gt;Node44</title>
<path fill="none" stroke="midnightblue" d="M892.57,-627.6C916.91,-618.93 955.61,-605.14 986.68,-594.07"/>
<polygon fill="midnightblue" stroke="midnightblue" points="988.22,-597.24 996.47,-590.59 985.87,-590.64 988.22,-597.24"/>
</g>
<!-- Node6 -->
<g id="node6" class="node">
<title>Node6</title>
<g id="a_node6"><a xlink:href="expr__cast_8h.html" target="_top" xlink:title="Templated functions to cast to specific exprt&#45;derived classes.">
<polygon fill="none" stroke="black" points="544.5,-336.5 544.5,-355.5 617.5,-355.5 617.5,-336.5 544.5,-336.5"/>
<text text-anchor="middle" x="581" y="-343.5" font-family="Helvetica,sans-Serif" font-size="10.00">expr_cast.h</text>
</a>
</g>
</g>
<!-- Node5&#45;&gt;Node6 -->
<g id="edge5" class="edge">
<title>Node5&#45;&gt;Node6</title>
<path fill="none" stroke="midnightblue" d="M828.89,-448.37C781.55,-429.01 666.75,-382.06 611.59,-359.51"/>
<polygon fill="midnightblue" stroke="midnightblue" points="612.59,-356.14 602.01,-355.59 609.94,-362.62 612.59,-356.14"/>
</g>
<!-- Node10 -->
<g id="node10" class="node">
<title>Node10</title>
<g id="a_node10"><a xlink:href="src_2util_2invariant_8h.html" target="_top" xlink:title=" ">
<polygon fill="none" stroke="black" points="848.5,-56.5 848.5,-75.5 917.5,-75.5 917.5,-56.5 848.5,-56.5"/>
<text text-anchor="middle" x="883" y="-63.5" font-family="Helvetica,sans-Serif" font-size="10.00">invariant.h</text>
</a>
</g>
</g>
<!-- Node5&#45;&gt;Node10 -->
<g id="edge33" class="edge">
<title>Node5&#45;&gt;Node10</title>
<path fill="none" stroke="midnightblue" d="M854.45,-448.42C863.46,-430.24 883,-386.28 883,-347 883,-347 883,-347 883,-177 883,-144.95 883,-107.64 883,-85.75"/>
<polygon fill="midnightblue" stroke="midnightblue" points="886.5,-85.56 883,-75.56 879.5,-85.56 886.5,-85.56"/>
</g>
<!-- Node41 -->
<g id="node25" class="node">
<title>Node41</title>
<g id="a_node25"><a xlink:href="std__types_8h.html" target="_top" xlink:title=" ">
<polygon fill="none" stroke="black" points="586.5,-392.5 586.5,-411.5 659.5,-411.5 659.5,-392.5 586.5,-392.5"/>
<text text-anchor="middle" x="623" y="-399.5" font-family="Helvetica,sans-Serif" font-size="10.00">std_types.h</text>
</a>
</g>
</g>
<!-- Node5&#45;&gt;Node41 -->
<g id="edge34" class="edge">
<title>Node5&#45;&gt;Node41</title>
<path fill="none" stroke="midnightblue" d="M814.03,-448.44C774.68,-439.08 711.51,-424.06 668.69,-413.87"/>
<polygon fill="midnightblue" stroke="midnightblue" points="669.34,-410.43 658.8,-411.52 667.72,-417.24 669.34,-410.43"/>
</g>
<!-- Node7 -->
<g id="node7" class="node">
<title>Node7</title>
<g id="a_node7"><a xlink:title=" ">
<polygon fill="none" stroke="#bfbfbf" points="495.5,-280.5 495.5,-299.5 552.5,-299.5 552.5,-280.5 495.5,-280.5"/>
<text text-anchor="middle" x="524" y="-287.5" font-family="Helvetica,sans-Serif" font-size="10.00">typeinfo</text>
</a>
</g>
</g>
<!-- Node6&#45;&gt;Node7 -->
<g id="edge6" class="edge">
<title>Node6&#45;&gt;Node7</title>
<path fill="none" stroke="midnightblue" d="M571.84,-336.32C563.5,-328.42 550.97,-316.55 540.82,-306.94"/>
<polygon fill="midnightblue" stroke="midnightblue" points="542.99,-304.17 533.32,-299.83 538.18,-309.25 542.99,-304.17"/>
</g>
<!-- Node8 -->
<g id="node8" class="node">
<title>Node8</title>
<g id="a_node8"><a xlink:title=" ">
<polygon fill="none" stroke="#bfbfbf" points="530.5,-0.5 530.5,-19.5 599.5,-19.5 599.5,-0.5 530.5,-0.5"/>
<text text-anchor="middle" x="565" y="-7.5" font-family="Helvetica,sans-Serif" font-size="10.00">type_traits</text>
</a>
</g>
</g>
<!-- Node6&#45;&gt;Node8 -->
<g id="edge7" class="edge">
<title>Node6&#45;&gt;Node8</title>
<path fill="none" stroke="midnightblue" d="M544.31,-337.74C523.36,-331.51 498.78,-320.2 486,-300 481.25,-292.49 482.43,-288.14 486,-280 495.46,-258.39 510.01,-262.22 525,-244 546.55,-217.81 565,-212.92 565,-179 565,-179 565,-179 565,-121 565,-88.95 565,-51.64 565,-29.75"/>
<polygon fill="midnightblue" stroke="midnightblue" points="568.5,-29.56 565,-19.56 561.5,-29.56 568.5,-29.56"/>
</g>
<!-- Node9 -->
<g id="node9" class="node">
<title>Node9</title>
<g id="a_node9"><a xlink:title=" ">
<polygon fill="none" stroke="#bfbfbf" points="593.5,-224.5 593.5,-243.5 658.5,-243.5 658.5,-224.5 593.5,-224.5"/>
<text text-anchor="middle" x="626" y="-231.5" font-family="Helvetica,sans-Serif" font-size="10.00">functional</text>
</a>
</g>
</g>
<!-- Node6&#45;&gt;Node9 -->
<g id="edge8" class="edge">
<title>Node6&#45;&gt;Node9</title>
<path fill="none" stroke="midnightblue" d="M583.89,-336.5C588.19,-324 596.66,-299.98 605,-280 608.82,-270.84 613.46,-260.81 617.4,-252.55"/>
<polygon fill="midnightblue" stroke="midnightblue" points="620.56,-254.06 621.76,-243.53 614.25,-251.01 620.56,-254.06"/>
</g>
<!-- Node6&#45;&gt;Node10 -->
<g id="edge9" class="edge">
<title>Node6&#45;&gt;Node10</title>
<path fill="none" stroke="midnightblue" d="M588.49,-336.39C623.28,-296.46 768.41,-130.49 793,-112 810.79,-98.63 833.16,-87.42 851.15,-79.53"/>
<polygon fill="midnightblue" stroke="midnightblue" points="852.81,-82.63 860.64,-75.5 850.07,-76.19 852.81,-82.63"/>
</g>
<!-- Node14 -->
<g id="node14" class="node">
<title>Node14</title>
<g id="a_node14"><a xlink:href="expr_8h.html" target="_top" xlink:title=" ">
<polygon fill="none" stroke="black" points="391.5,-280.5 391.5,-299.5 438.5,-299.5 438.5,-280.5 391.5,-280.5"/>
<text text-anchor="middle" x="415" y="-287.5" font-family="Helvetica,sans-Serif" font-size="10.00">expr.h</text>
</a>
</g>
</g>
<!-- Node6&#45;&gt;Node14 -->
<g id="edge14" class="edge">
<title>Node6&#45;&gt;Node14</title>
<path fill="none" stroke="midnightblue" d="M554.7,-336.44C525.91,-327.08 479.68,-312.04 448.36,-301.85"/>
<polygon fill="midnightblue" stroke="midnightblue" points="449.35,-298.49 438.76,-298.73 447.19,-305.15 449.35,-298.49"/>
</g>
<!-- Node10&#45;&gt;Node8 -->
<g id="edge13" class="edge">
<title>Node10&#45;&gt;Node8</title>
<path fill="none" stroke="midnightblue" d="M848.36,-59.12C790.42,-49.28 673.89,-29.49 609.79,-18.61"/>
<polygon fill="midnightblue" stroke="midnightblue" points="610.04,-15.1 599.59,-16.87 608.87,-22 610.04,-15.1"/>
</g>
<!-- Node11 -->
<g id="node11" class="node">
<title>Node11</title>
<g id="a_node11"><a xlink:title=" ">
<polygon fill="none" stroke="#bfbfbf" points="816.5,-0.5 816.5,-19.5 865.5,-19.5 865.5,-0.5 816.5,-0.5"/>
<text text-anchor="middle" x="841" y="-7.5" font-family="Helvetica,sans-Serif" font-size="10.00">cstdlib</text>
</a>
</g>
</g>
<!-- Node10&#45;&gt;Node11 -->
<g id="edge10" class="edge">
<title>Node10&#45;&gt;Node11</title>
<path fill="none" stroke="midnightblue" d="M876.06,-56.08C870.07,-48.38 861.25,-37.03 853.95,-27.65"/>
<polygon fill="midnightblue" stroke="midnightblue" points="856.71,-25.5 847.81,-19.75 851.18,-29.79 856.71,-25.5"/>
</g>
<!-- Node12 -->
<g id="node12" class="node">
<title>Node12</title>
<g id="a_node12"><a xlink:title=" ">
<polygon fill="none" stroke="#bfbfbf" points="884,-0.5 884,-19.5 940,-19.5 940,-0.5 884,-0.5"/>
<text text-anchor="middle" x="912" y="-7.5" font-family="Helvetica,sans-Serif" font-size="10.00">sstream</text>
</a>
</g>
</g>
<!-- Node10&#45;&gt;Node12 -->
<g id="edge11" class="edge">
<title>Node10&#45;&gt;Node12</title>
<path fill="none" stroke="midnightblue" d="M887.79,-56.08C891.76,-48.69 897.53,-37.95 902.43,-28.81"/>
<polygon fill="midnightblue" stroke="midnightblue" points="905.65,-30.22 907.3,-19.75 899.49,-26.91 905.65,-30.22"/>
</g>
<!-- Node13 -->
<g id="node13" class="node">
<title>Node13</title>
<g id="a_node13"><a xlink:title=" ">
<polygon fill="none" stroke="#bfbfbf" points="1021,-0.5 1021,-19.5 1065,-19.5 1065,-0.5 1021,-0.5"/>
<text text-anchor="middle" x="1043" y="-7.5" font-family="Helvetica,sans-Serif" font-size="10.00">string</text>
</a>
</g>
</g>
<!-- Node10&#45;&gt;Node13 -->
<g id="edge12" class="edge">
<title>Node10&#45;&gt;Node13</title>
<path fill="none" stroke="midnightblue" d="M908.35,-56.44C936.22,-47.04 981.03,-31.91 1011.22,-21.72"/>
<polygon fill="midnightblue" stroke="midnightblue" points="1012.5,-24.99 1020.86,-18.47 1010.26,-18.35 1012.5,-24.99"/>
</g>
<!-- Node14&#45;&gt;Node9 -->
<g id="edge32" class="edge">
<title>Node14&#45;&gt;Node9</title>
<path fill="none" stroke="midnightblue" d="M438.79,-282.91C473.89,-273.93 540.07,-256.99 583.6,-245.85"/>
<polygon fill="midnightblue" stroke="midnightblue" points="584.51,-249.23 593.33,-243.36 582.77,-242.45 584.51,-249.23"/>
</g>
<!-- Node15 -->
<g id="node15" class="node">
<title>Node15</title>
<g id="a_node15"><a xlink:href="as__const_8h.html" target="_top" xlink:title=" ">
<polygon fill="none" stroke="black" points="431,-224.5 431,-243.5 499,-243.5 499,-224.5 431,-224.5"/>
<text text-anchor="middle" x="465" y="-231.5" font-family="Helvetica,sans-Serif" font-size="10.00">as_const.h</text>
</a>
</g>
</g>
<!-- Node14&#45;&gt;Node15 -->
<g id="edge15" class="edge">
<title>Node14&#45;&gt;Node15</title>
<path fill="none" stroke="midnightblue" d="M423.26,-280.08C430.46,-272.3 441.11,-260.8 449.85,-251.37"/>
<polygon fill="midnightblue" stroke="midnightblue" points="452.67,-253.47 456.9,-243.75 447.53,-248.71 452.67,-253.47"/>
</g>
<!-- Node16 -->
<g id="node16" class="node">
<title>Node16</title>
<g id="a_node16"><a xlink:href="type_8h.html" target="_top" xlink:title=" ">
<polygon fill="none" stroke="black" points="218.5,-224.5 218.5,-243.5 265.5,-243.5 265.5,-224.5 218.5,-224.5"/>
<text text-anchor="middle" x="242" y="-231.5" font-family="Helvetica,sans-Serif" font-size="10.00">type.h</text>
</a>
</g>
</g>
<!-- Node14&#45;&gt;Node16 -->
<g id="edge16" class="edge">
<title>Node14&#45;&gt;Node16</title>
<path fill="none" stroke="midnightblue" d="M391.31,-281.6C361.37,-272.26 309.65,-256.12 275.63,-245.5"/>
<polygon fill="midnightblue" stroke="midnightblue" points="276.27,-242.03 265.68,-242.39 274.19,-248.71 276.27,-242.03"/>
</g>
<!-- Node38 -->
<g id="node22" class="node">
<title>Node38</title>
<g id="a_node22"><a xlink:href="validation__mode_8h.html" target="_top" xlink:title=" ">
<polygon fill="none" stroke="black" points="157.5,-112.5 157.5,-131.5 264.5,-131.5 264.5,-112.5 157.5,-112.5"/>
<text text-anchor="middle" x="211" y="-119.5" font-family="Helvetica,sans-Serif" font-size="10.00">validation_mode.h</text>
</a>
</g>
</g>
<!-- Node14&#45;&gt;Node38 -->
<g id="edge31" class="edge">
<title>Node14&#45;&gt;Node38</title>
<path fill="none" stroke="midnightblue" d="M391.2,-287.44C341.97,-283.65 231.67,-272.16 209,-244 185.48,-214.79 195.73,-167.49 204.09,-141.52"/>
<polygon fill="midnightblue" stroke="midnightblue" points="207.49,-142.41 207.46,-131.82 200.88,-140.12 207.49,-142.41"/>
</g>
<!-- Node39 -->
<g id="node23" class="node">
<title>Node39</title>
<g id="a_node23"><a xlink:href="validate__types_8h.html" target="_top" xlink:title=" ">
<polygon fill="none" stroke="black" points="351,-168.5 351,-187.5 449,-187.5 449,-168.5 351,-168.5"/>
<text text-anchor="middle" x="400" y="-175.5" font-family="Helvetica,sans-Serif" font-size="10.00">validate_types.h</text>
</a>
</g>
</g>
<!-- Node14&#45;&gt;Node39 -->
<g id="edge30" class="edge">
<title>Node14&#45;&gt;Node39</title>
<path fill="none" stroke="midnightblue" d="M438.53,-283.4C472.19,-274.21 527.94,-253.91 508,-224 496.67,-207.01 477.59,-196.43 458.59,-189.83"/>
<polygon fill="midnightblue" stroke="midnightblue" points="459.59,-186.48 449,-186.82 457.5,-193.16 459.59,-186.48"/>
</g>
<!-- Node40 -->
<g id="node24" class="node">
<title>Node40</title>
<g id="a_node24"><a xlink:href="validate__expressions_8h.html" target="_top" xlink:title=" ">
<polygon fill="none" stroke="black" points="283.5,-224.5 283.5,-243.5 412.5,-243.5 412.5,-224.5 283.5,-224.5"/>
<text text-anchor="middle" x="348" y="-231.5" font-family="Helvetica,sans-Serif" font-size="10.00">validate_expressions.h</text>
</a>
</g>
</g>
<!-- Node14&#45;&gt;Node40 -->
<g id="edge29" class="edge">
<title>Node14&#45;&gt;Node40</title>
<path fill="none" stroke="midnightblue" d="M404.24,-280.32C394.23,-272.26 379.11,-260.08 367.07,-250.37"/>
<polygon fill="midnightblue" stroke="midnightblue" points="368.94,-247.38 358.96,-243.83 364.55,-252.83 368.94,-247.38"/>
</g>
<!-- Node17 -->
<g id="node17" class="node">
<title>Node17</title>
<g id="a_node17"><a xlink:href="source__location_8h.html" target="_top" xlink:title=" ">
<polygon fill="none" stroke="red" points="1069,-168.5 1069,-187.5 1171,-187.5 1171,-168.5 1069,-168.5"/>
<text text-anchor="middle" x="1120" y="-175.5" font-family="Helvetica,sans-Serif" font-size="10.00">source_location.h</text>
</a>
</g>
</g>
<!-- Node16&#45;&gt;Node17 -->
<g id="edge17" class="edge">
<title>Node16&#45;&gt;Node17</title>
<path fill="none" stroke="midnightblue" d="M265.63,-225.7C268.43,-225.03 271.27,-224.44 274,-224 615.95,-168.83 710.17,-220.97 1058.85,-187.99"/>
<polygon fill="midnightblue" stroke="midnightblue" points="1059.36,-191.46 1068.98,-187.02 1058.69,-184.49 1059.36,-191.46"/>
</g>
<!-- Node36 -->
<g id="node21" class="node">
<title>Node36</title>
<g id="a_node21"><a xlink:href="validate_8h.html" target="_top" xlink:title=" ">
<polygon fill="none" stroke="red" points="96.5,-168.5 96.5,-187.5 161.5,-187.5 161.5,-168.5 96.5,-168.5"/>
<text text-anchor="middle" x="129" y="-175.5" font-family="Helvetica,sans-Serif" font-size="10.00">validate.h</text>
</a>
</g>
</g>
<!-- Node16&#45;&gt;Node36 -->
<g id="edge24" class="edge">
<title>Node16&#45;&gt;Node36</title>
<path fill="none" stroke="midnightblue" d="M224.09,-224.44C205.75,-215.68 176.99,-201.94 155.91,-191.86"/>
<polygon fill="midnightblue" stroke="midnightblue" points="157.35,-188.67 146.82,-187.52 154.33,-194.99 157.35,-188.67"/>
</g>
<!-- Node16&#45;&gt;Node38 -->
<g id="edge28" class="edge">
<title>Node16&#45;&gt;Node38</title>
<path fill="none" stroke="midnightblue" d="M239.57,-224.37C234.54,-206.54 222.92,-165.3 216.15,-141.27"/>
<polygon fill="midnightblue" stroke="midnightblue" points="219.5,-140.27 213.42,-131.59 212.77,-142.17 219.5,-140.27"/>
</g>
<!-- Node16&#45;&gt;Node39 -->
<g id="edge27" class="edge">
<title>Node16&#45;&gt;Node39</title>
<path fill="none" stroke="midnightblue" d="M265.65,-224.92C292.03,-215.9 334.94,-201.23 365.16,-190.91"/>
<polygon fill="midnightblue" stroke="midnightblue" points="366.55,-194.13 374.88,-187.59 364.28,-187.51 366.55,-194.13"/>
</g>
<!-- Node17&#45;&gt;Node13 -->
<g id="edge23" class="edge">
<title>Node17&#45;&gt;Node13</title>
<path fill="none" stroke="midnightblue" d="M1115.86,-168.08C1103.63,-141.72 1067.53,-63.88 1051.19,-28.66"/>
<polygon fill="midnightblue" stroke="midnightblue" points="1054.36,-27.17 1046.97,-19.57 1048.01,-30.11 1054.36,-27.17"/>
</g>
<!-- Node18 -->
<g id="node18" class="node">
<title>Node18</title>
<g id="a_node18"><a xlink:href="deprecate_8h.html" target="_top" xlink:title=" ">
<polygon fill="none" stroke="black" points="1132,-112.5 1132,-131.5 1206,-131.5 1206,-112.5 1132,-112.5"/>
<text text-anchor="middle" x="1169" y="-119.5" font-family="Helvetica,sans-Serif" font-size="10.00">deprecate.h</text>
</a>
</g>
</g>
<!-- Node17&#45;&gt;Node18 -->
<g id="edge18" class="edge">
<title>Node17&#45;&gt;Node18</title>
<path fill="none" stroke="midnightblue" d="M1128.09,-168.08C1135.16,-160.3 1145.59,-148.8 1154.15,-139.37"/>
<polygon fill="midnightblue" stroke="midnightblue" points="1156.93,-141.51 1161.06,-131.75 1151.75,-136.8 1156.93,-141.51"/>
</g>
<!-- Node19 -->
<g id="node19" class="node">
<title>Node19</title>
<g id="a_node19"><a xlink:href="irep_8h.html" target="_top" xlink:title=" ">
<polygon fill="none" stroke="red" points="1021,-112.5 1021,-131.5 1065,-131.5 1065,-112.5 1021,-112.5"/>
<text text-anchor="middle" x="1043" y="-119.5" font-family="Helvetica,sans-Serif" font-size="10.00">irep.h</text>
</a>
</g>
</g>
<!-- Node17&#45;&gt;Node19 -->
<g id="edge19" class="edge">
<title>Node17&#45;&gt;Node19</title>
<path fill="none" stroke="midnightblue" d="M1107.63,-168.32C1095.84,-160.06 1077.87,-147.45 1063.86,-137.63"/>
<polygon fill="midnightblue" stroke="midnightblue" points="1065.54,-134.53 1055.34,-131.65 1061.52,-140.26 1065.54,-134.53"/>
</g>
<!-- Node19&#45;&gt;Node10 -->
<g id="edge22" class="edge">
<title>Node19&#45;&gt;Node10</title>
<path fill="none" stroke="midnightblue" d="M1020.75,-113.49C994.1,-104.5 949.13,-89.32 917.85,-78.76"/>
<polygon fill="midnightblue" stroke="midnightblue" points="918.81,-75.39 908.22,-75.51 916.58,-82.03 918.81,-75.39"/>
</g>
<!-- Node19&#45;&gt;Node13 -->
<g id="edge20" class="edge">
<title>Node19&#45;&gt;Node13</title>
<path fill="none" stroke="midnightblue" d="M1043,-112.37C1043,-94.62 1043,-53.67 1043,-29.6"/>
<polygon fill="midnightblue" stroke="midnightblue" points="1046.5,-29.59 1043,-19.59 1039.5,-29.59 1046.5,-29.59"/>
</g>
<!-- Node19&#45;&gt;Node20 -->
<g id="edge21" class="edge">
<title>Node19&#45;&gt;Node20</title>
<path fill="none" stroke="midnightblue" d="M1065.16,-112.92C1089.68,-103.97 1129.48,-89.45 1157.74,-79.13"/>
<polygon fill="midnightblue" stroke="midnightblue" points="1159.02,-82.39 1167.22,-75.68 1156.62,-75.82 1159.02,-82.39"/>
</g>
<!-- Node36&#45;&gt;Node8 -->
<g id="edge25" class="edge">
<title>Node36&#45;&gt;Node8</title>
<path fill="none" stroke="midnightblue" d="M128.94,-168.46C129.32,-154.57 132.18,-127.1 148,-112 201.68,-60.77 424.39,-28.1 520.51,-16.14"/>
<polygon fill="midnightblue" stroke="midnightblue" points="521,-19.6 530.5,-14.91 520.15,-12.66 521,-19.6"/>
</g>
<!-- Node36&#45;&gt;Node38 -->
<g id="edge26" class="edge">
<title>Node36&#45;&gt;Node38</title>
<path fill="none" stroke="midnightblue" d="M142.17,-168.32C154.85,-159.98 174.23,-147.21 189.21,-137.35"/>
<polygon fill="midnightblue" stroke="midnightblue" points="191.43,-140.08 197.86,-131.65 187.58,-134.23 191.43,-140.08"/>
</g>
<!-- Node41&#45;&gt;Node6 -->
<g id="edge36" class="edge">
<title>Node41&#45;&gt;Node6</title>
<path fill="none" stroke="midnightblue" d="M616.06,-392.08C610.07,-384.38 601.25,-373.03 593.95,-363.65"/>
<polygon fill="midnightblue" stroke="midnightblue" points="596.71,-361.5 587.81,-355.75 591.18,-365.79 596.71,-361.5"/>
</g>
<!-- Node41&#45;&gt;Node10 -->
<g id="edge37" class="edge">
<title>Node41&#45;&gt;Node10</title>
<path fill="none" stroke="midnightblue" d="M659.79,-395.8C713.49,-385.91 807,-358.92 807,-291 807,-291 807,-291 807,-177 807,-146.2 813.47,-137.32 831,-112 839.18,-100.19 851.15,-89.54 861.55,-81.57"/>
<polygon fill="midnightblue" stroke="midnightblue" points="863.79,-84.27 869.8,-75.54 859.66,-78.62 863.79,-84.27"/>
</g>
<!-- Node41&#45;&gt;Node14 -->
<g id="edge35" class="edge">
<title>Node41&#45;&gt;Node14</title>
<path fill="none" stroke="midnightblue" d="M606.07,-392.49C588.3,-383.53 559.6,-368.95 535,-356 501.68,-338.46 463.49,-317.65 439.31,-304.39"/>
<polygon fill="midnightblue" stroke="midnightblue" points="440.92,-301.28 430.47,-299.53 437.55,-307.41 440.92,-301.28"/>
</g>
<!-- Node41&#45;&gt;Node36 -->
<g id="edge42" class="edge">
<title>Node41&#45;&gt;Node36</title>
<path fill="none" stroke="midnightblue" d="M586.47,-398.04C538.82,-393.29 453.49,-381.76 385,-356 293.25,-321.49 272.73,-303.73 195,-244 175.78,-229.23 156.31,-209.32 143.55,-195.44"/>
<polygon fill="midnightblue" stroke="midnightblue" points="145.84,-192.75 136.54,-187.68 140.65,-197.45 145.84,-192.75"/>
</g>
<!-- Node42 -->
<g id="node26" class="node">
<title>Node42</title>
<g id="a_node26"><a xlink:href="mp__arith_8h.html" target="_top" xlink:title=" ">
<polygon fill="none" stroke="black" points="647.5,-336.5 647.5,-355.5 716.5,-355.5 716.5,-336.5 647.5,-336.5"/>
<text text-anchor="middle" x="682" y="-343.5" font-family="Helvetica,sans-Serif" font-size="10.00">mp_arith.h</text>
</a>
</g>
</g>
<!-- Node41&#45;&gt;Node42 -->
<g id="edge38" class="edge">
<title>Node41&#45;&gt;Node42</title>
<path fill="none" stroke="midnightblue" d="M632.48,-392.32C641.2,-384.34 654.34,-372.31 664.9,-362.65"/>
<polygon fill="midnightblue" stroke="midnightblue" points="667.33,-365.17 672.35,-355.83 662.61,-360 667.33,-365.17"/>
</g>
<!-- Node26 -->
<g id="node28" class="node">
<title>Node26</title>
<g id="a_node28"><a xlink:title=" ">
<polygon fill="none" stroke="#bfbfbf" points="394.5,-336.5 394.5,-355.5 487.5,-355.5 487.5,-336.5 394.5,-336.5"/>
<text text-anchor="middle" x="441" y="-343.5" font-family="Helvetica,sans-Serif" font-size="10.00">unordered_map</text>
</a>
</g>
</g>
<!-- Node41&#45;&gt;Node26 -->
<g id="edge43" class="edge">
<title>Node41&#45;&gt;Node26</title>
<path fill="none" stroke="midnightblue" d="M594.16,-392.44C563.14,-383.24 513.67,-368.56 479.38,-358.39"/>
<polygon fill="midnightblue" stroke="midnightblue" points="480.29,-355.01 469.7,-355.52 478.29,-361.72 480.29,-355.01"/>
</g>
<!-- Node42&#45;&gt;Node3 -->
<g id="edge39" class="edge">
<title>Node42&#45;&gt;Node3</title>
<path fill="none" stroke="midnightblue" d="M647.41,-338.99C640.34,-337.89 632.94,-336.83 626,-336 421.18,-311.58 173.75,-297.36 84.32,-292.7"/>
<polygon fill="midnightblue" stroke="midnightblue" points="84.38,-289.2 74.21,-292.18 84.02,-296.19 84.38,-289.2"/>
</g>
<!-- Node42&#45;&gt;Node13 -->
<g id="edge40" class="edge">
<title>Node42&#45;&gt;Node13</title>
<path fill="none" stroke="midnightblue" d="M702.08,-336.43C717.34,-328.93 737.74,-316.64 750,-300 767.86,-275.77 769,-265.1 769,-235 769,-235 769,-235 769,-121 769,-78.22 802.05,-75.75 840,-56 895.53,-27.11 968.97,-16.71 1010.58,-13.01"/>
<polygon fill="midnightblue" stroke="midnightblue" points="1011.01,-16.48 1020.69,-12.19 1010.44,-9.51 1011.01,-16.48"/>
</g>
<!-- Node43 -->
<g id="node27" class="node">
<title>Node43</title>
<g id="a_node27"><a xlink:title=" ">
<polygon fill="none" stroke="#bfbfbf" points="647,-280.5 647,-299.5 741,-299.5 741,-280.5 647,-280.5"/>
<text text-anchor="middle" x="694" y="-287.5" font-family="Helvetica,sans-Serif" font-size="10.00">big&#45;int/bigint.hh</text>
</a>
</g>
</g>
<!-- Node42&#45;&gt;Node43 -->
<g id="edge41" class="edge">
<title>Node42&#45;&gt;Node43</title>
<path fill="none" stroke="midnightblue" d="M683.98,-336.08C685.57,-328.93 687.86,-318.64 689.85,-309.69"/>
<polygon fill="midnightblue" stroke="midnightblue" points="693.3,-310.27 692.06,-299.75 686.47,-308.75 693.3,-310.27"/>
</g>
<!-- Node44&#45;&gt;Node3 -->
<g id="edge53" class="edge">
<title>Node44&#45;&gt;Node3</title>
<path fill="none" stroke="midnightblue" d="M979.18,-569.17C772.95,-549.62 76,-481.89 76,-459 76,-459 76,-459 76,-401 76,-367.93 64.73,-330.73 57.03,-309.17"/>
<polygon fill="midnightblue" stroke="midnightblue" points="60.27,-307.83 53.51,-299.68 53.71,-310.27 60.27,-307.83"/>
</g>
<!-- Node44&#45;&gt;Node10 -->
<g id="edge58" class="edge">
<title>Node44&#45;&gt;Node10</title>
<path fill="none" stroke="midnightblue" d="M1005.79,-560.44C971.71,-542.25 921,-507.1 921,-459 921,-459 921,-459 921,-177 921,-142.81 904.4,-105.76 893.14,-84.57"/>
<polygon fill="midnightblue" stroke="midnightblue" points="896.18,-82.83 888.28,-75.77 890.05,-86.22 896.18,-82.83"/>
</g>
<!-- Node44&#45;&gt;Node13 -->
<g id="edge56" class="edge">
<title>Node44&#45;&gt;Node13</title>
<path fill="none" stroke="midnightblue" d="M1092.73,-561.13C1114.67,-553.45 1138.44,-541.7 1155,-524 1210.45,-464.72 1275,-260.17 1275,-179 1275,-179 1275,-179 1275,-121 1275,-33.77 1139.45,-15.63 1075.57,-11.92"/>
<polygon fill="midnightblue" stroke="midnightblue" points="1075.41,-8.4 1065.25,-11.41 1075.06,-15.39 1075.41,-8.4"/>
</g>
<!-- Node44&#45;&gt;Node17 -->
<g id="edge62" class="edge">
<title>Node44&#45;&gt;Node17</title>
<path fill="none" stroke="midnightblue" d="M1036,-560.28C1036,-538.48 1036,-495.49 1036,-459 1036,-459 1036,-459 1036,-289 1036,-247.73 1073.81,-212.32 1098.69,-193.49"/>
<polygon fill="midnightblue" stroke="midnightblue" points="1100.85,-196.25 1106.88,-187.54 1096.73,-190.59 1100.85,-196.25"/>
</g>
<!-- Node44&#45;&gt;Node18 -->
<g id="edge57" class="edge">
<title>Node44&#45;&gt;Node18</title>
<path fill="none" stroke="midnightblue" d="M1043.44,-560.29C1068.91,-510.72 1152.56,-340.22 1180,-188 1182.82,-172.34 1179.33,-154.51 1175.56,-141.49"/>
<polygon fill="midnightblue" stroke="midnightblue" points="1178.84,-140.29 1172.45,-131.84 1172.18,-142.43 1178.84,-140.29"/>
</g>
<!-- Node45 -->
<g id="node30" class="node">
<title>Node45</title>
<g id="a_node30"><a xlink:href="goto__instruction__code_8h.html" target="_top" xlink:title=" ">
<polygon fill="none" stroke="black" points="679.5,-504.5 679.5,-523.5 812.5,-523.5 812.5,-504.5 679.5,-504.5"/>
<text text-anchor="middle" x="746" y="-511.5" font-family="Helvetica,sans-Serif" font-size="10.00">goto_instruction_code.h</text>
</a>
</g>
</g>
<!-- Node44&#45;&gt;Node45 -->
<g id="edge45" class="edge">
<title>Node44&#45;&gt;Node45</title>
<path fill="none" stroke="midnightblue" d="M979.4,-562.89C926.55,-552.04 848.36,-536 797.3,-525.52"/>
<polygon fill="midnightblue" stroke="midnightblue" points="797.96,-522.09 787.46,-523.51 796.55,-528.95 797.96,-522.09"/>
</g>
<!-- Node44&#45;&gt;Node48 -->
<g id="edge54" class="edge">
<title>Node44&#45;&gt;Node48</title>
<path fill="none" stroke="midnightblue" d="M1079.13,-560.4C1114.3,-548.9 1162.8,-533.05 1192.19,-523.44"/>
<polygon fill="midnightblue" stroke="midnightblue" points="1193.32,-526.75 1201.74,-520.32 1191.15,-520.1 1193.32,-526.75"/>
</g>
<!-- Node49 -->
<g id="node34" class="node">
<title>Node49</title>
<g id="a_node34"><a xlink:title=" ">
<polygon fill="none" stroke="#bfbfbf" points="1102,-504.5 1102,-523.5 1146,-523.5 1146,-504.5 1102,-504.5"/>
<text text-anchor="middle" x="1124" y="-511.5" font-family="Helvetica,sans-Serif" font-size="10.00">limits</text>
</a>
</g>
</g>
<!-- Node44&#45;&gt;Node49 -->
<g id="edge55" class="edge">
<title>Node44&#45;&gt;Node49</title>
<path fill="none" stroke="midnightblue" d="M1056.85,-560.4C1070.7,-551.04 1088.81,-538.79 1102.74,-529.38"/>
<polygon fill="midnightblue" stroke="midnightblue" points="1104.87,-532.16 1111.2,-523.66 1100.95,-526.36 1104.87,-532.16"/>
</g>
<!-- Node50 -->
<g id="node35" class="node">
<title>Node50</title>
<g id="a_node35"><a xlink:href="namespace_8h.html" target="_top" xlink:title=" ">
<polygon fill="none" stroke="black" points="949.5,-168.5 949.5,-187.5 1050.5,-187.5 1050.5,-168.5 949.5,-168.5"/>
<text text-anchor="middle" x="1000" y="-175.5" font-family="Helvetica,sans-Serif" font-size="10.00">util/namespace.h</text>
</a>
</g>
</g>
<!-- Node44&#45;&gt;Node50 -->
<g id="edge59" class="edge">
<title>Node44&#45;&gt;Node50</title>
<path fill="none" stroke="midnightblue" d="M1028.13,-560.41C1017,-539.13 998,-497.21 998,-459 998,-459 998,-459 998,-289 998,-256.94 998.86,-219.64 999.45,-197.75"/>
<polygon fill="midnightblue" stroke="midnightblue" points="1002.96,-197.65 999.74,-187.56 995.96,-197.45 1002.96,-197.65"/>
</g>
<!-- Node45&#45;&gt;Node5 -->
<g id="edge52" class="edge">
<title>Node45&#45;&gt;Node5</title>
<path fill="none" stroke="midnightblue" d="M762.71,-504.32C779.31,-495.7 805,-482.36 824.22,-472.39"/>
<polygon fill="midnightblue" stroke="midnightblue" points="826.07,-475.37 833.33,-467.65 822.84,-469.16 826.07,-475.37"/>
</g>
<!-- Node46 -->
<g id="node31" class="node">
<title>Node46</title>
<g id="a_node31"><a xlink:href="cprover__prefix_8h.html" target="_top" xlink:title=" ">
<polygon fill="none" stroke="black" points="675,-448.5 675,-467.5 789,-467.5 789,-448.5 675,-448.5"/>
<text text-anchor="middle" x="732" y="-455.5" font-family="Helvetica,sans-Serif" font-size="10.00">util/cprover_prefix.h</text>
</a>
</g>
</g>
<!-- Node45&#45;&gt;Node46 -->
<g id="edge46" class="edge">
<title>Node45&#45;&gt;Node46</title>
<path fill="none" stroke="midnightblue" d="M743.69,-504.08C741.83,-496.93 739.16,-486.64 736.85,-477.69"/>
<polygon fill="midnightblue" stroke="midnightblue" points="740.17,-476.55 734.27,-467.75 733.39,-478.31 740.17,-476.55"/>
</g>
<!-- Node47 -->
<g id="node32" class="node">
<title>Node47</title>
<g id="a_node32"><a xlink:href="std__code__base_8h.html" target="_top" xlink:title=" ">
<polygon fill="none" stroke="black" points="541,-448.5 541,-467.5 657,-467.5 657,-448.5 541,-448.5"/>
<text text-anchor="middle" x="599" y="-455.5" font-family="Helvetica,sans-Serif" font-size="10.00">util/std_code_base.h</text>
</a>
</g>
</g>
<!-- Node45&#45;&gt;Node47 -->
<g id="edge47" class="edge">
<title>Node45&#45;&gt;Node47</title>
<path fill="none" stroke="midnightblue" d="M722.71,-504.44C698.19,-495.44 659.4,-481.19 631.8,-471.05"/>
<polygon fill="midnightblue" stroke="midnightblue" points="632.78,-467.68 622.18,-467.52 630.36,-474.25 632.78,-467.68"/>
</g>
<!-- Node47&#45;&gt;Node6 -->
<g id="edge48" class="edge">
<title>Node47&#45;&gt;Node6</title>
<path fill="none" stroke="midnightblue" d="M593.36,-448.48C587.95,-439.74 580.14,-425.56 577,-412 573.45,-396.66 574.95,-378.79 577.05,-365.66"/>
<polygon fill="midnightblue" stroke="midnightblue" points="580.54,-366.02 578.94,-355.54 573.66,-364.73 580.54,-366.02"/>
</g>
<!-- Node47&#45;&gt;Node10 -->
<g id="edge49" class="edge">
<title>Node47&#45;&gt;Node10</title>
<path fill="none" stroke="midnightblue" d="M642.41,-448.45C713.04,-431.75 845,-387.6 845,-291 845,-291 845,-291 845,-177 845,-142.81 861.6,-105.76 872.86,-84.57"/>
<polygon fill="midnightblue" stroke="midnightblue" points="875.95,-86.22 877.72,-75.77 869.82,-82.83 875.95,-86.22"/>
</g>
<!-- Node47&#45;&gt;Node36 -->
<g id="edge51" class="edge">
<title>Node47&#45;&gt;Node36</title>
<path fill="none" stroke="midnightblue" d="M540.98,-455.95C412.24,-452.05 114,-433.66 114,-347 114,-347 114,-347 114,-289 114,-256.5 120.51,-219.1 124.95,-197.34"/>
<polygon fill="midnightblue" stroke="midnightblue" points="128.39,-198.01 127.04,-187.5 121.54,-196.56 128.39,-198.01"/>
</g>
<!-- Node47&#45;&gt;Node41 -->
<g id="edge50" class="edge">
<title>Node47&#45;&gt;Node41</title>
<path fill="none" stroke="midnightblue" d="M602.96,-448.08C606.21,-440.77 610.92,-430.18 614.95,-421.1"/>
<polygon fill="midnightblue" stroke="midnightblue" points="618.25,-422.31 619.11,-411.75 611.85,-419.47 618.25,-422.31"/>
</g>
<!-- Node50&#45;&gt;Node10 -->
<g id="edge60" class="edge">
<title>Node50&#45;&gt;Node10</title>
<path fill="none" stroke="midnightblue" d="M991.78,-168.39C979.62,-155.75 956.03,-131.57 935,-112 924.07,-101.83 911.42,-90.87 901.33,-82.31"/>
<polygon fill="midnightblue" stroke="midnightblue" points="903.46,-79.52 893.55,-75.75 898.94,-84.87 903.46,-79.52"/>
</g>
<!-- Node50&#45;&gt;Node19 -->
<g id="edge61" class="edge">
<title>Node50&#45;&gt;Node19</title>
<path fill="none" stroke="midnightblue" d="M1007.1,-168.08C1013.24,-160.38 1022.27,-149.03 1029.74,-139.65"/>
<polygon fill="midnightblue" stroke="midnightblue" points="1032.54,-141.75 1036.03,-131.75 1027.06,-137.39 1032.54,-141.75"/>
</g>
</g>
</svg>
