<?xml version="1.0" encoding="UTF-8" standalone="no"?>
<!DOCTYPE svg PUBLIC "-//W3C//DTD SVG 1.1//EN"
 "http://www.w3.org/Graphics/SVG/1.1/DTD/svg11.dtd">
<!-- Generated by graphviz version 2.43.0 (0)
 -->
<!-- Title: /home/runner/work/cbmc/cbmc/src/util/typecheck.cpp Pages: 1 -->
<svg width="942pt" height="487pt"
 viewBox="0.00 0.00 942.00 487.00" xmlns="http://www.w3.org/2000/svg" xmlns:xlink="http://www.w3.org/1999/xlink">
<g id="graph0" class="graph" transform="scale(1 1) rotate(0) translate(4 483)">
<title>/home/runner/work/cbmc/cbmc/src/util/typecheck.cpp</title>
<!-- Node1 -->
<g id="node1" class="node">
<title>Node1</title>
<g id="a_node1"><a xlink:title=" ">
<polygon fill="#bfbfbf" stroke="black" points="147.5,-448.5 147.5,-478.5 302.5,-478.5 302.5,-448.5 147.5,-448.5"/>
<text text-anchor="start" x="155.5" y="-466.5" font-family="Helvetica,sans-Serif" font-size="10.00">/home/runner/work/cbmc</text>
<text text-anchor="middle" x="225" y="-455.5" font-family="Helvetica,sans-Serif" font-size="10.00">/cbmc/src/util/typecheck.cpp</text>
</a>
</g>
</g>
<!-- Node2 -->
<g id="node2" class="node">
<title>Node2</title>
<g id="a_node2"><a xlink:href="typecheck_8h.html" target="_top" xlink:title=" ">
<polygon fill="none" stroke="black" points="187,-392.5 187,-411.5 263,-411.5 263,-392.5 187,-392.5"/>
<text text-anchor="middle" x="225" y="-399.5" font-family="Helvetica,sans-Serif" font-size="10.00">typecheck.h</text>
</a>
</g>
</g>
<!-- Node1&#45;&gt;Node2 -->
<g id="edge1" class="edge">
<title>Node1&#45;&gt;Node2</title>
<path fill="none" stroke="midnightblue" d="M225,-448.4C225,-440.47 225,-430.46 225,-421.86"/>
<polygon fill="midnightblue" stroke="midnightblue" points="228.5,-421.66 225,-411.66 221.5,-421.66 228.5,-421.66"/>
</g>
<!-- Node9 -->
<g id="node9" class="node">
<title>Node9</title>
<g id="a_node9"><a xlink:href="src_2util_2invariant_8h.html" target="_top" xlink:title=" ">
<polygon fill="none" stroke="black" points="189.5,-56.5 189.5,-75.5 258.5,-75.5 258.5,-56.5 189.5,-56.5"/>
<text text-anchor="middle" x="224" y="-63.5" font-family="Helvetica,sans-Serif" font-size="10.00">invariant.h</text>
</a>
</g>
</g>
<!-- Node1&#45;&gt;Node9 -->
<g id="edge38" class="edge">
<title>Node1&#45;&gt;Node9</title>
<path fill="none" stroke="midnightblue" d="M147.25,-454.48C82.22,-442.95 0,-414.95 0,-347 0,-347 0,-347 0,-289 0,-181.16 132.6,-107.85 193.76,-79.77"/>
<polygon fill="midnightblue" stroke="midnightblue" points="195.24,-82.94 202.93,-75.65 192.37,-76.55 195.24,-82.94"/>
</g>
<!-- Node32 -->
<g id="node25" class="node">
<title>Node32</title>
<g id="a_node25"><a xlink:href="exception__utils_8h.html" target="_top" xlink:title=" ">
<polygon fill="none" stroke="black" points="355,-336.5 355,-355.5 455,-355.5 455,-336.5 355,-336.5"/>
<text text-anchor="middle" x="405" y="-343.5" font-family="Helvetica,sans-Serif" font-size="10.00">exception_utils.h</text>
</a>
</g>
</g>
<!-- Node1&#45;&gt;Node32 -->
<g id="edge34" class="edge">
<title>Node1&#45;&gt;Node32</title>
<path fill="none" stroke="midnightblue" d="M247.07,-448.34C281.71,-426.11 348.46,-383.28 383.04,-361.09"/>
<polygon fill="midnightblue" stroke="midnightblue" points="384.96,-364.02 391.49,-355.67 381.18,-358.12 384.96,-364.02"/>
</g>
<!-- Node3 -->
<g id="node3" class="node">
<title>Node3</title>
<g id="a_node3"><a xlink:href="src_2util_2message_8h.html" target="_top" xlink:title=" ">
<polygon fill="none" stroke="black" points="190,-336.5 190,-355.5 260,-355.5 260,-336.5 190,-336.5"/>
<text text-anchor="middle" x="225" y="-343.5" font-family="Helvetica,sans-Serif" font-size="10.00">message.h</text>
</a>
</g>
</g>
<!-- Node2&#45;&gt;Node3 -->
<g id="edge2" class="edge">
<title>Node2&#45;&gt;Node3</title>
<path fill="none" stroke="midnightblue" d="M225,-392.08C225,-385.01 225,-374.86 225,-365.99"/>
<polygon fill="midnightblue" stroke="midnightblue" points="228.5,-365.75 225,-355.75 221.5,-365.75 228.5,-365.75"/>
</g>
<!-- Node4 -->
<g id="node4" class="node">
<title>Node4</title>
<g id="a_node4"><a xlink:title=" ">
<polygon fill="none" stroke="#bfbfbf" points="66.5,-280.5 66.5,-299.5 131.5,-299.5 131.5,-280.5 66.5,-280.5"/>
<text text-anchor="middle" x="99" y="-287.5" font-family="Helvetica,sans-Serif" font-size="10.00">functional</text>
</a>
</g>
</g>
<!-- Node3&#45;&gt;Node4 -->
<g id="edge3" class="edge">
<title>Node3&#45;&gt;Node4</title>
<path fill="none" stroke="midnightblue" d="M205.03,-336.44C184.39,-327.6 151.94,-313.69 128.37,-303.59"/>
<polygon fill="midnightblue" stroke="midnightblue" points="129.44,-300.24 118.87,-299.52 126.68,-306.67 129.44,-300.24"/>
</g>
<!-- Node5 -->
<g id="node5" class="node">
<title>Node5</title>
<g id="a_node5"><a xlink:title=" ">
<polygon fill="none" stroke="#bfbfbf" points="675,-56.5 675,-75.5 723,-75.5 723,-56.5 675,-56.5"/>
<text text-anchor="middle" x="699" y="-63.5" font-family="Helvetica,sans-Serif" font-size="10.00">iosfwd</text>
</a>
</g>
</g>
<!-- Node3&#45;&gt;Node5 -->
<g id="edge4" class="edge">
<title>Node3&#45;&gt;Node5</title>
<path fill="none" stroke="midnightblue" d="M242.26,-336.48C258.7,-328.07 283.84,-314.41 304,-300 345.49,-270.33 343.8,-245.63 390,-224 485.69,-179.2 537.73,-247.57 625,-188 657.23,-165.99 648.39,-145.14 669,-112 674.84,-102.62 681.65,-92.35 687.3,-83.99"/>
<polygon fill="midnightblue" stroke="midnightblue" points="690.34,-85.75 693.09,-75.52 684.56,-81.81 690.34,-85.75"/>
</g>
<!-- Node6 -->
<g id="node6" class="node">
<title>Node6</title>
<g id="a_node6"><a xlink:title=" ">
<polygon fill="none" stroke="#bfbfbf" points="64,-0.5 64,-19.5 120,-19.5 120,-0.5 64,-0.5"/>
<text text-anchor="middle" x="92" y="-7.5" font-family="Helvetica,sans-Serif" font-size="10.00">sstream</text>
</a>
</g>
</g>
<!-- Node3&#45;&gt;Node6 -->
<g id="edge5" class="edge">
<title>Node3&#45;&gt;Node6</title>
<path fill="none" stroke="midnightblue" d="M189.91,-345.19C152.12,-343.45 92.63,-334.83 57,-300 35.48,-278.96 38,-265.1 38,-235 38,-235 38,-235 38,-121 38,-84.86 61.77,-48.25 77.77,-27.71"/>
<polygon fill="midnightblue" stroke="midnightblue" points="80.69,-29.67 84.26,-19.69 75.25,-25.26 80.69,-29.67"/>
</g>
<!-- Node7 -->
<g id="node7" class="node">
<title>Node7</title>
<g id="a_node7"><a xlink:title=" ">
<polygon fill="none" stroke="#bfbfbf" points="812,-0.5 812,-19.5 856,-19.5 856,-0.5 812,-0.5"/>
<text text-anchor="middle" x="834" y="-7.5" font-family="Helvetica,sans-Serif" font-size="10.00">string</text>
</a>
</g>
</g>
<!-- Node3&#45;&gt;Node7 -->
<g id="edge6" class="edge">
<title>Node3&#45;&gt;Node7</title>
<path fill="none" stroke="midnightblue" d="M236.86,-336.28C247.28,-328.03 262.13,-314.74 271,-300 302.55,-247.59 277.62,-219.9 310,-168 329.48,-136.77 338.33,-128.95 371,-112 519.2,-35.08 723.42,-16.64 801.69,-12.3"/>
<polygon fill="midnightblue" stroke="midnightblue" points="802.07,-15.79 811.88,-11.78 801.71,-8.8 802.07,-15.79"/>
</g>
<!-- Node8 -->
<g id="node8" class="node">
<title>Node8</title>
<g id="a_node8"><a xlink:href="deprecate_8h.html" target="_top" xlink:title=" ">
<polygon fill="none" stroke="black" points="188,-280.5 188,-299.5 262,-299.5 262,-280.5 188,-280.5"/>
<text text-anchor="middle" x="225" y="-287.5" font-family="Helvetica,sans-Serif" font-size="10.00">deprecate.h</text>
</a>
</g>
</g>
<!-- Node3&#45;&gt;Node8 -->
<g id="edge7" class="edge">
<title>Node3&#45;&gt;Node8</title>
<path fill="none" stroke="midnightblue" d="M225,-336.08C225,-329.01 225,-318.86 225,-309.99"/>
<polygon fill="midnightblue" stroke="midnightblue" points="228.5,-309.75 225,-299.75 221.5,-309.75 228.5,-309.75"/>
</g>
<!-- Node3&#45;&gt;Node9 -->
<g id="edge8" class="edge">
<title>Node3&#45;&gt;Node9</title>
<path fill="none" stroke="midnightblue" d="M213.13,-336.29C202.7,-328.04 187.85,-314.75 179,-300 163.52,-274.19 160,-265.1 160,-235 160,-235 160,-235 160,-177 160,-139.33 188.39,-103.04 207.35,-83.01"/>
<polygon fill="midnightblue" stroke="midnightblue" points="210.04,-85.27 214.56,-75.69 205.05,-80.36 210.04,-85.27"/>
</g>
<!-- Node12 -->
<g id="node12" class="node">
<title>Node12</title>
<g id="a_node12"><a xlink:href="source__location_8h.html" target="_top" xlink:title=" ">
<polygon fill="none" stroke="black" points="394,-280.5 394,-299.5 496,-299.5 496,-280.5 394,-280.5"/>
<text text-anchor="middle" x="445" y="-287.5" font-family="Helvetica,sans-Serif" font-size="10.00">source_location.h</text>
</a>
</g>
</g>
<!-- Node3&#45;&gt;Node12 -->
<g id="edge13" class="edge">
<title>Node3&#45;&gt;Node12</title>
<path fill="none" stroke="midnightblue" d="M259.86,-336.44C297.92,-327.1 358.96,-312.12 400.46,-301.93"/>
<polygon fill="midnightblue" stroke="midnightblue" points="401.43,-305.3 410.3,-299.52 399.76,-298.5 401.43,-305.3"/>
</g>
<!-- Node9&#45;&gt;Node6 -->
<g id="edge10" class="edge">
<title>Node9&#45;&gt;Node6</title>
<path fill="none" stroke="midnightblue" d="M203.08,-56.44C181.26,-47.52 146.85,-33.44 122.11,-23.32"/>
<polygon fill="midnightblue" stroke="midnightblue" points="123.4,-20.06 112.82,-19.52 120.75,-26.54 123.4,-20.06"/>
</g>
<!-- Node9&#45;&gt;Node7 -->
<g id="edge11" class="edge">
<title>Node9&#45;&gt;Node7</title>
<path fill="none" stroke="midnightblue" d="M258.54,-61.94C366.61,-52.38 697.26,-23.11 801.89,-13.84"/>
<polygon fill="midnightblue" stroke="midnightblue" points="802.2,-17.33 811.86,-12.96 801.59,-10.36 802.2,-17.33"/>
</g>
<!-- Node10 -->
<g id="node10" class="node">
<title>Node10</title>
<g id="a_node10"><a xlink:title=" ">
<polygon fill="none" stroke="#bfbfbf" points="192.5,-0.5 192.5,-19.5 241.5,-19.5 241.5,-0.5 192.5,-0.5"/>
<text text-anchor="middle" x="217" y="-7.5" font-family="Helvetica,sans-Serif" font-size="10.00">cstdlib</text>
</a>
</g>
</g>
<!-- Node9&#45;&gt;Node10 -->
<g id="edge9" class="edge">
<title>Node9&#45;&gt;Node10</title>
<path fill="none" stroke="midnightblue" d="M222.84,-56.08C221.92,-48.93 220.58,-38.64 219.42,-29.69"/>
<polygon fill="midnightblue" stroke="midnightblue" points="222.89,-29.22 218.13,-19.75 215.95,-30.12 222.89,-29.22"/>
</g>
<!-- Node11 -->
<g id="node11" class="node">
<title>Node11</title>
<g id="a_node11"><a xlink:title=" ">
<polygon fill="none" stroke="#bfbfbf" points="259.5,-0.5 259.5,-19.5 328.5,-19.5 328.5,-0.5 259.5,-0.5"/>
<text text-anchor="middle" x="294" y="-7.5" font-family="Helvetica,sans-Serif" font-size="10.00">type_traits</text>
</a>
</g>
</g>
<!-- Node9&#45;&gt;Node11 -->
<g id="edge12" class="edge">
<title>Node9&#45;&gt;Node11</title>
<path fill="none" stroke="midnightblue" d="M235.25,-56.32C245.8,-48.18 261.8,-35.84 274.44,-26.09"/>
<polygon fill="midnightblue" stroke="midnightblue" points="276.77,-28.71 282.55,-19.83 272.49,-23.17 276.77,-28.71"/>
</g>
<!-- Node12&#45;&gt;Node7 -->
<g id="edge33" class="edge">
<title>Node12&#45;&gt;Node7</title>
<path fill="none" stroke="midnightblue" d="M496.3,-287.27C614.5,-281.88 896,-260.5 896,-179 896,-179 896,-179 896,-121 896,-83.62 868.5,-47.24 850.13,-27.1"/>
<polygon fill="midnightblue" stroke="midnightblue" points="852.57,-24.59 843.15,-19.75 847.49,-29.41 852.57,-24.59"/>
</g>
<!-- Node13 -->
<g id="node13" class="node">
<title>Node13</title>
<g id="a_node13"><a xlink:href="irep_8h.html" target="_top" xlink:title=" ">
<polygon fill="none" stroke="black" points="602,-224.5 602,-243.5 646,-243.5 646,-224.5 602,-224.5"/>
<text text-anchor="middle" x="624" y="-231.5" font-family="Helvetica,sans-Serif" font-size="10.00">irep.h</text>
</a>
</g>
</g>
<!-- Node12&#45;&gt;Node13 -->
<g id="edge14" class="edge">
<title>Node12&#45;&gt;Node13</title>
<path fill="none" stroke="midnightblue" d="M473.36,-280.44C505.7,-270.69 558.44,-254.78 592.17,-244.6"/>
<polygon fill="midnightblue" stroke="midnightblue" points="593.41,-247.88 601.98,-241.64 591.39,-241.18 593.41,-247.88"/>
</g>
<!-- Node30 -->
<g id="node23" class="node">
<title>Node30</title>
<g id="a_node23"><a xlink:href="optional_8h.html" target="_top" xlink:title=" ">
<polygon fill="none" stroke="black" points="398.5,-224.5 398.5,-243.5 463.5,-243.5 463.5,-224.5 398.5,-224.5"/>
<text text-anchor="middle" x="431" y="-231.5" font-family="Helvetica,sans-Serif" font-size="10.00">optional.h</text>
</a>
</g>
</g>
<!-- Node12&#45;&gt;Node30 -->
<g id="edge31" class="edge">
<title>Node12&#45;&gt;Node30</title>
<path fill="none" stroke="midnightblue" d="M442.69,-280.08C440.83,-272.93 438.16,-262.64 435.85,-253.69"/>
<polygon fill="midnightblue" stroke="midnightblue" points="439.17,-252.55 433.27,-243.75 432.39,-254.31 439.17,-252.55"/>
</g>
<!-- Node13&#45;&gt;Node7 -->
<g id="edge15" class="edge">
<title>Node13&#45;&gt;Node7</title>
<path fill="none" stroke="midnightblue" d="M646.17,-233.43C684.04,-233.02 761.86,-227.06 811,-188 858.48,-150.25 846.8,-66.74 838.67,-29.53"/>
<polygon fill="midnightblue" stroke="midnightblue" points="842.02,-28.5 836.33,-19.56 835.21,-30.1 842.02,-28.5"/>
</g>
<!-- Node13&#45;&gt;Node9 -->
<g id="edge17" class="edge">
<title>Node13&#45;&gt;Node9</title>
<path fill="none" stroke="midnightblue" d="M601.63,-227.29C572.96,-219.68 521.94,-205.16 480,-188 461.97,-180.62 459.41,-174.37 441,-168 361.84,-140.62 322.54,-182.88 256,-132 241.19,-120.68 232.8,-100.68 228.36,-85.84"/>
<polygon fill="midnightblue" stroke="midnightblue" points="231.63,-84.51 225.7,-75.73 224.87,-86.3 231.63,-84.51"/>
</g>
<!-- Node14 -->
<g id="node14" class="node">
<title>Node14</title>
<g id="a_node14"><a xlink:title=" ">
<polygon fill="none" stroke="#bfbfbf" points="672.5,-168.5 672.5,-187.5 719.5,-187.5 719.5,-168.5 672.5,-168.5"/>
<text text-anchor="middle" x="696" y="-175.5" font-family="Helvetica,sans-Serif" font-size="10.00">vector</text>
</a>
</g>
</g>
<!-- Node13&#45;&gt;Node14 -->
<g id="edge16" class="edge">
<title>Node13&#45;&gt;Node14</title>
<path fill="none" stroke="midnightblue" d="M635.57,-224.32C646.42,-216.18 662.88,-203.84 675.88,-194.09"/>
<polygon fill="midnightblue" stroke="midnightblue" points="678.32,-196.63 684.22,-187.83 674.12,-191.03 678.32,-196.63"/>
</g>
<!-- Node15 -->
<g id="node15" class="node">
<title>Node15</title>
<g id="a_node15"><a xlink:href="irep__ids_8h.html" target="_top" xlink:title=" ">
<polygon fill="none" stroke="black" points="738,-168.5 738,-187.5 802,-187.5 802,-168.5 738,-168.5"/>
<text text-anchor="middle" x="770" y="-175.5" font-family="Helvetica,sans-Serif" font-size="10.00">irep_ids.h</text>
</a>
</g>
</g>
<!-- Node13&#45;&gt;Node15 -->
<g id="edge18" class="edge">
<title>Node13&#45;&gt;Node15</title>
<path fill="none" stroke="midnightblue" d="M646.17,-224.8C670.33,-215.86 709.23,-201.48 736.98,-191.21"/>
<polygon fill="midnightblue" stroke="midnightblue" points="738.48,-194.39 746.65,-187.64 736.06,-187.82 738.48,-194.39"/>
</g>
<!-- Node25 -->
<g id="node18" class="node">
<title>Node25</title>
<g id="a_node18"><a xlink:href="forward__list__as__map_8h.html" target="_top" xlink:title=" ">
<polygon fill="none" stroke="black" points="488.5,-168.5 488.5,-187.5 615.5,-187.5 615.5,-168.5 488.5,-168.5"/>
<text text-anchor="middle" x="552" y="-175.5" font-family="Helvetica,sans-Serif" font-size="10.00">forward_list_as_map.h</text>
</a>
</g>
</g>
<!-- Node13&#45;&gt;Node25 -->
<g id="edge24" class="edge">
<title>Node13&#45;&gt;Node25</title>
<path fill="none" stroke="midnightblue" d="M612.43,-224.32C601.58,-216.18 585.12,-203.84 572.12,-194.09"/>
<polygon fill="midnightblue" stroke="midnightblue" points="573.88,-191.03 563.78,-187.83 569.68,-196.63 573.88,-191.03"/>
</g>
<!-- Node16 -->
<g id="node16" class="node">
<title>Node16</title>
<g id="a_node16"><a xlink:href="dstring_8h.html" target="_top" xlink:title=" ">
<polygon fill="none" stroke="red" points="770.5,-112.5 770.5,-131.5 829.5,-131.5 829.5,-112.5 770.5,-112.5"/>
<text text-anchor="middle" x="800" y="-119.5" font-family="Helvetica,sans-Serif" font-size="10.00">dstring.h</text>
</a>
</g>
</g>
<!-- Node15&#45;&gt;Node16 -->
<g id="edge19" class="edge">
<title>Node15&#45;&gt;Node16</title>
<path fill="none" stroke="midnightblue" d="M774.95,-168.08C779.1,-160.61 785.15,-149.72 790.27,-140.52"/>
<polygon fill="midnightblue" stroke="midnightblue" points="793.34,-142.19 795.14,-131.75 787.22,-138.79 793.34,-142.19"/>
</g>
<!-- Node24 -->
<g id="node17" class="node">
<title>Node24</title>
<g id="a_node17"><a xlink:title=" ">
<polygon fill="none" stroke="#bfbfbf" points="678,-112.5 678,-131.5 752,-131.5 752,-112.5 678,-112.5"/>
<text text-anchor="middle" x="715" y="-119.5" font-family="Helvetica,sans-Serif" font-size="10.00">irep_ids.def</text>
</a>
</g>
</g>
<!-- Node15&#45;&gt;Node24 -->
<g id="edge23" class="edge">
<title>Node15&#45;&gt;Node24</title>
<path fill="none" stroke="midnightblue" d="M760.92,-168.08C752.83,-160.14 740.8,-148.34 731.09,-138.8"/>
<polygon fill="midnightblue" stroke="midnightblue" points="733.5,-136.26 723.91,-131.75 728.6,-141.25 733.5,-136.26"/>
</g>
<!-- Node16&#45;&gt;Node5 -->
<g id="edge20" class="edge">
<title>Node16&#45;&gt;Node5</title>
<path fill="none" stroke="midnightblue" d="M783.77,-112.32C767.65,-103.7 742.7,-90.36 724.04,-80.39"/>
<polygon fill="midnightblue" stroke="midnightblue" points="725.66,-77.28 715.19,-75.65 722.36,-83.46 725.66,-77.28"/>
</g>
<!-- Node16&#45;&gt;Node7 -->
<g id="edge21" class="edge">
<title>Node16&#45;&gt;Node7</title>
<path fill="none" stroke="midnightblue" d="M802.67,-112.37C808.18,-94.54 820.93,-53.3 828.35,-29.27"/>
<polygon fill="midnightblue" stroke="midnightblue" points="831.74,-30.18 831.34,-19.59 825.05,-28.11 831.74,-30.18"/>
</g>
<!-- Node16&#45;&gt;Node9 -->
<g id="edge22" class="edge">
<title>Node16&#45;&gt;Node9</title>
<path fill="none" stroke="midnightblue" d="M770.28,-113.68C767.16,-113.05 764.02,-112.47 761,-112 579.88,-83.66 361.41,-72.34 268.89,-68.59"/>
<polygon fill="midnightblue" stroke="midnightblue" points="268.89,-65.09 258.76,-68.19 268.61,-72.08 268.89,-65.09"/>
</g>
<!-- Node26 -->
<g id="node19" class="node">
<title>Node26</title>
<g id="a_node19"><a xlink:title=" ">
<polygon fill="none" stroke="#bfbfbf" points="466,-112.5 466,-131.5 530,-131.5 530,-112.5 466,-112.5"/>
<text text-anchor="middle" x="498" y="-119.5" font-family="Helvetica,sans-Serif" font-size="10.00">algorithm</text>
</a>
</g>
</g>
<!-- Node25&#45;&gt;Node26 -->
<g id="edge25" class="edge">
<title>Node25&#45;&gt;Node26</title>
<path fill="none" stroke="midnightblue" d="M543.08,-168.08C535.22,-160.22 523.57,-148.57 514.08,-139.08"/>
<polygon fill="midnightblue" stroke="midnightblue" points="516.3,-136.35 506.75,-131.75 511.35,-141.3 516.3,-136.35"/>
</g>
<!-- Node27 -->
<g id="node20" class="node">
<title>Node27</title>
<g id="a_node20"><a xlink:title=" ">
<polygon fill="none" stroke="#bfbfbf" points="548,-112.5 548,-131.5 622,-131.5 622,-112.5 548,-112.5"/>
<text text-anchor="middle" x="585" y="-119.5" font-family="Helvetica,sans-Serif" font-size="10.00">forward_list</text>
</a>
</g>
</g>
<!-- Node25&#45;&gt;Node27 -->
<g id="edge26" class="edge">
<title>Node25&#45;&gt;Node27</title>
<path fill="none" stroke="midnightblue" d="M557.45,-168.08C562.01,-160.61 568.67,-149.72 574.29,-140.52"/>
<polygon fill="midnightblue" stroke="midnightblue" points="577.42,-142.11 579.65,-131.75 571.45,-138.46 577.42,-142.11"/>
</g>
<!-- Node28 -->
<g id="node21" class="node">
<title>Node28</title>
<g id="a_node21"><a xlink:href="as__const_8h.html" target="_top" xlink:title=" ">
<polygon fill="none" stroke="black" points="380,-112.5 380,-131.5 448,-131.5 448,-112.5 380,-112.5"/>
<text text-anchor="middle" x="414" y="-119.5" font-family="Helvetica,sans-Serif" font-size="10.00">as_const.h</text>
</a>
</g>
</g>
<!-- Node25&#45;&gt;Node28 -->
<g id="edge27" class="edge">
<title>Node25&#45;&gt;Node28</title>
<path fill="none" stroke="midnightblue" d="M530.13,-168.44C507.22,-159.48 471.02,-145.31 445.13,-135.18"/>
<polygon fill="midnightblue" stroke="midnightblue" points="446.35,-131.9 435.76,-131.52 443.8,-138.42 446.35,-131.9"/>
</g>
<!-- Node29 -->
<g id="node22" class="node">
<title>Node29</title>
<g id="a_node22"><a xlink:href="narrow_8h.html" target="_top" xlink:title=" ">
<polygon fill="none" stroke="black" points="264.5,-112.5 264.5,-131.5 323.5,-131.5 323.5,-112.5 264.5,-112.5"/>
<text text-anchor="middle" x="294" y="-119.5" font-family="Helvetica,sans-Serif" font-size="10.00">narrow.h</text>
</a>
</g>
</g>
<!-- Node25&#45;&gt;Node29 -->
<g id="edge28" class="edge">
<title>Node25&#45;&gt;Node29</title>
<path fill="none" stroke="midnightblue" d="M511.12,-168.44C462.54,-158.28 382.02,-141.42 333.88,-131.35"/>
<polygon fill="midnightblue" stroke="midnightblue" points="334.34,-127.87 323.83,-129.24 332.9,-134.72 334.34,-127.87"/>
</g>
<!-- Node29&#45;&gt;Node9 -->
<g id="edge30" class="edge">
<title>Node29&#45;&gt;Node9</title>
<path fill="none" stroke="midnightblue" d="M282.75,-112.32C272.2,-104.18 256.2,-91.84 243.56,-82.09"/>
<polygon fill="midnightblue" stroke="midnightblue" points="245.51,-79.17 235.45,-75.83 241.23,-84.71 245.51,-79.17"/>
</g>
<!-- Node29&#45;&gt;Node11 -->
<g id="edge29" class="edge">
<title>Node29&#45;&gt;Node11</title>
<path fill="none" stroke="midnightblue" d="M294,-112.37C294,-94.62 294,-53.67 294,-29.6"/>
<polygon fill="midnightblue" stroke="midnightblue" points="297.5,-29.59 294,-19.59 290.5,-29.59 297.5,-29.59"/>
</g>
<!-- Node31 -->
<g id="node24" class="node">
<title>Node31</title>
<g id="a_node24"><a xlink:title=" ">
<polygon fill="none" stroke="#bfbfbf" points="318.5,-168.5 318.5,-187.5 431.5,-187.5 431.5,-168.5 318.5,-168.5"/>
<text text-anchor="middle" x="375" y="-175.5" font-family="Helvetica,sans-Serif" font-size="10.00">nonstd/optional.hpp</text>
</a>
</g>
</g>
<!-- Node30&#45;&gt;Node31 -->
<g id="edge32" class="edge">
<title>Node30&#45;&gt;Node31</title>
<path fill="none" stroke="midnightblue" d="M422,-224.32C413.81,-216.42 401.49,-204.55 391.53,-194.94"/>
<polygon fill="midnightblue" stroke="midnightblue" points="393.79,-192.26 384.16,-187.83 388.93,-197.29 393.79,-192.26"/>
</g>
<!-- Node32&#45;&gt;Node7 -->
<g id="edge35" class="edge">
<title>Node32&#45;&gt;Node7</title>
<path fill="none" stroke="midnightblue" d="M455.24,-345.13C587.29,-344.12 934,-332.21 934,-235 934,-235 934,-235 934,-121 934,-76.98 889.62,-42.8 859.99,-24.87"/>
<polygon fill="midnightblue" stroke="midnightblue" points="861.37,-21.63 850.96,-19.64 857.86,-27.68 861.37,-21.63"/>
</g>
<!-- Node32&#45;&gt;Node9 -->
<g id="edge36" class="edge">
<title>Node32&#45;&gt;Node9</title>
<path fill="none" stroke="midnightblue" d="M395.29,-336.4C365.66,-309.55 275.96,-223.56 235,-132 228.49,-117.46 225.81,-99.51 224.72,-86.16"/>
<polygon fill="midnightblue" stroke="midnightblue" points="228.19,-85.59 224.11,-75.81 221.2,-86 228.19,-85.59"/>
</g>
<!-- Node32&#45;&gt;Node12 -->
<g id="edge37" class="edge">
<title>Node32&#45;&gt;Node12</title>
<path fill="none" stroke="midnightblue" d="M411.61,-336.08C417.26,-328.46 425.54,-317.26 432.45,-307.94"/>
<polygon fill="midnightblue" stroke="midnightblue" points="435.38,-309.87 438.52,-299.75 429.75,-305.7 435.38,-309.87"/>
</g>
</g>
</svg>
