<?xml version="1.0" encoding="UTF-8" standalone="no"?>
<!DOCTYPE svg PUBLIC "-//W3C//DTD SVG 1.1//EN"
 "http://www.w3.org/Graphics/SVG/1.1/DTD/svg11.dtd">
<!-- Generated by graphviz version 2.43.0 (0)
 -->
<!-- Title: /home/runner/work/cbmc/cbmc/src/util/unicode.cpp Pages: 1 -->
<svg width="617pt" height="151pt"
 viewBox="0.00 0.00 617.00 151.00" xmlns="http://www.w3.org/2000/svg" xmlns:xlink="http://www.w3.org/1999/xlink">
<g id="graph0" class="graph" transform="scale(1 1) rotate(0) translate(4 147)">
<title>/home/runner/work/cbmc/cbmc/src/util/unicode.cpp</title>
<!-- Node1 -->
<g id="node1" class="node">
<title>Node1</title>
<g id="a_node1"><a xlink:title=" ">
<polygon fill="#bfbfbf" stroke="black" points="303.5,-112.5 303.5,-142.5 446.5,-142.5 446.5,-112.5 303.5,-112.5"/>
<text text-anchor="start" x="311.5" y="-130.5" font-family="Helvetica,sans-Serif" font-size="10.00">/home/runner/work/cbmc</text>
<text text-anchor="middle" x="375" y="-119.5" font-family="Helvetica,sans-Serif" font-size="10.00">/cbmc/src/util/unicode.cpp</text>
</a>
</g>
</g>
<!-- Node2 -->
<g id="node2" class="node">
<title>Node2</title>
<g id="a_node2"><a xlink:href="unicode_8h.html" target="_top" xlink:title=" ">
<polygon fill="none" stroke="black" points="117,-56.5 117,-75.5 181,-75.5 181,-56.5 117,-56.5"/>
<text text-anchor="middle" x="149" y="-63.5" font-family="Helvetica,sans-Serif" font-size="10.00">unicode.h</text>
</a>
</g>
</g>
<!-- Node1&#45;&gt;Node2 -->
<g id="edge1" class="edge">
<title>Node1&#45;&gt;Node2</title>
<path fill="none" stroke="midnightblue" d="M321.73,-112.47C281.89,-101.99 228.14,-87.84 191.25,-78.12"/>
<polygon fill="midnightblue" stroke="midnightblue" points="191.87,-74.67 181.31,-75.51 190.09,-81.44 191.87,-74.67"/>
</g>
<!-- Node6 -->
<g id="node6" class="node">
<title>Node6</title>
<g id="a_node6"><a xlink:href="src_2util_2invariant_8h.html" target="_top" xlink:title=" ">
<polygon fill="none" stroke="black" points="221.5,-56.5 221.5,-75.5 290.5,-75.5 290.5,-56.5 221.5,-56.5"/>
<text text-anchor="middle" x="256" y="-63.5" font-family="Helvetica,sans-Serif" font-size="10.00">invariant.h</text>
</a>
</g>
</g>
<!-- Node1&#45;&gt;Node6 -->
<g id="edge5" class="edge">
<title>Node1&#45;&gt;Node6</title>
<path fill="none" stroke="midnightblue" d="M346.8,-112.4C327.28,-102.64 301.47,-89.74 282.37,-80.18"/>
<polygon fill="midnightblue" stroke="midnightblue" points="283.83,-77 273.32,-75.66 280.69,-83.26 283.83,-77"/>
</g>
<!-- Node8 -->
<g id="node8" class="node">
<title>Node8</title>
<g id="a_node8"><a xlink:title=" ">
<polygon fill="none" stroke="#bfbfbf" points="365,-0.5 365,-19.5 421,-19.5 421,-0.5 365,-0.5"/>
<text text-anchor="middle" x="393" y="-7.5" font-family="Helvetica,sans-Serif" font-size="10.00">sstream</text>
</a>
</g>
</g>
<!-- Node1&#45;&gt;Node8 -->
<g id="edge14" class="edge">
<title>Node1&#45;&gt;Node8</title>
<path fill="none" stroke="midnightblue" d="M359.42,-112.33C345.86,-98.19 329.73,-75.79 339,-56 345.04,-43.09 356.81,-32.6 367.82,-25"/>
<polygon fill="midnightblue" stroke="midnightblue" points="369.83,-27.87 376.37,-19.54 366.06,-21.97 369.83,-27.87"/>
</g>
<!-- Node10 -->
<g id="node10" class="node">
<title>Node10</title>
<g id="a_node10"><a xlink:title=" ">
<polygon fill="none" stroke="#bfbfbf" points="347.5,-56.5 347.5,-75.5 402.5,-75.5 402.5,-56.5 347.5,-56.5"/>
<text text-anchor="middle" x="375" y="-63.5" font-family="Helvetica,sans-Serif" font-size="10.00">codecvt</text>
</a>
</g>
</g>
<!-- Node1&#45;&gt;Node10 -->
<g id="edge10" class="edge">
<title>Node1&#45;&gt;Node10</title>
<path fill="none" stroke="midnightblue" d="M375,-112.4C375,-104.47 375,-94.46 375,-85.86"/>
<polygon fill="midnightblue" stroke="midnightblue" points="378.5,-85.66 375,-75.66 371.5,-85.66 378.5,-85.66"/>
</g>
<!-- Node11 -->
<g id="node11" class="node">
<title>Node11</title>
<g id="a_node11"><a xlink:title=" ">
<polygon fill="none" stroke="#bfbfbf" points="421,-56.5 421,-75.5 471,-75.5 471,-56.5 421,-56.5"/>
<text text-anchor="middle" x="446" y="-63.5" font-family="Helvetica,sans-Serif" font-size="10.00">cstdint</text>
</a>
</g>
</g>
<!-- Node1&#45;&gt;Node11 -->
<g id="edge11" class="edge">
<title>Node1&#45;&gt;Node11</title>
<path fill="none" stroke="midnightblue" d="M391.83,-112.4C402.67,-103.31 416.78,-91.49 427.87,-82.19"/>
<polygon fill="midnightblue" stroke="midnightblue" points="430.25,-84.76 435.67,-75.66 425.76,-79.4 430.25,-84.76"/>
</g>
<!-- Node12 -->
<g id="node12" class="node">
<title>Node12</title>
<g id="a_node12"><a xlink:title=" ">
<polygon fill="none" stroke="#bfbfbf" points="489,-56.5 489,-75.5 545,-75.5 545,-56.5 489,-56.5"/>
<text text-anchor="middle" x="517" y="-63.5" font-family="Helvetica,sans-Serif" font-size="10.00">iomanip</text>
</a>
</g>
</g>
<!-- Node1&#45;&gt;Node12 -->
<g id="edge12" class="edge">
<title>Node1&#45;&gt;Node12</title>
<path fill="none" stroke="midnightblue" d="M408.65,-112.4C432.48,-102.42 464.15,-89.15 487.09,-79.53"/>
<polygon fill="midnightblue" stroke="midnightblue" points="488.47,-82.75 496.34,-75.66 485.76,-76.29 488.47,-82.75"/>
</g>
<!-- Node13 -->
<g id="node13" class="node">
<title>Node13</title>
<g id="a_node13"><a xlink:title=" ">
<polygon fill="none" stroke="#bfbfbf" points="563,-56.5 563,-75.5 609,-75.5 609,-56.5 563,-56.5"/>
<text text-anchor="middle" x="586" y="-63.5" font-family="Helvetica,sans-Serif" font-size="10.00">locale</text>
</a>
</g>
</g>
<!-- Node1&#45;&gt;Node13 -->
<g id="edge13" class="edge">
<title>Node1&#45;&gt;Node13</title>
<path fill="none" stroke="midnightblue" d="M424.74,-112.47C464.27,-101.33 518.45,-86.05 552.85,-76.35"/>
<polygon fill="midnightblue" stroke="midnightblue" points="554.17,-79.61 562.85,-73.53 552.27,-72.87 554.17,-79.61"/>
</g>
<!-- Node3 -->
<g id="node3" class="node">
<title>Node3</title>
<g id="a_node3"><a xlink:title=" ">
<polygon fill="none" stroke="#bfbfbf" points="0,-0.5 0,-19.5 64,-19.5 64,-0.5 0,-0.5"/>
<text text-anchor="middle" x="32" y="-7.5" font-family="Helvetica,sans-Serif" font-size="10.00">algorithm</text>
</a>
</g>
</g>
<!-- Node2&#45;&gt;Node3 -->
<g id="edge2" class="edge">
<title>Node2&#45;&gt;Node3</title>
<path fill="none" stroke="midnightblue" d="M130.46,-56.44C111.38,-47.64 81.43,-33.81 59.56,-23.72"/>
<polygon fill="midnightblue" stroke="midnightblue" points="61,-20.53 50.45,-19.52 58.07,-26.88 61,-20.53"/>
</g>
<!-- Node4 -->
<g id="node4" class="node">
<title>Node4</title>
<g id="a_node4"><a xlink:title=" ">
<polygon fill="none" stroke="#bfbfbf" points="148,-0.5 148,-19.5 192,-19.5 192,-0.5 148,-0.5"/>
<text text-anchor="middle" x="170" y="-7.5" font-family="Helvetica,sans-Serif" font-size="10.00">string</text>
</a>
</g>
</g>
<!-- Node2&#45;&gt;Node4 -->
<g id="edge3" class="edge">
<title>Node2&#45;&gt;Node4</title>
<path fill="none" stroke="midnightblue" d="M152.47,-56.08C155.31,-48.77 159.43,-38.18 162.96,-29.1"/>
<polygon fill="midnightblue" stroke="midnightblue" points="166.23,-30.34 166.6,-19.75 159.71,-27.8 166.23,-30.34"/>
</g>
<!-- Node5 -->
<g id="node5" class="node">
<title>Node5</title>
<g id="a_node5"><a xlink:title=" ">
<polygon fill="none" stroke="#bfbfbf" points="82.5,-0.5 82.5,-19.5 129.5,-19.5 129.5,-0.5 82.5,-0.5"/>
<text text-anchor="middle" x="106" y="-7.5" font-family="Helvetica,sans-Serif" font-size="10.00">vector</text>
</a>
</g>
</g>
<!-- Node2&#45;&gt;Node5 -->
<g id="edge4" class="edge">
<title>Node2&#45;&gt;Node5</title>
<path fill="none" stroke="midnightblue" d="M141.9,-56.08C135.76,-48.38 126.73,-37.03 119.26,-27.65"/>
<polygon fill="midnightblue" stroke="midnightblue" points="121.94,-25.39 112.97,-19.75 116.46,-29.75 121.94,-25.39"/>
</g>
<!-- Node6&#45;&gt;Node4 -->
<g id="edge8" class="edge">
<title>Node6&#45;&gt;Node4</title>
<path fill="none" stroke="midnightblue" d="M242.18,-56.32C228.77,-47.9 208.18,-34.97 192.41,-25.07"/>
<polygon fill="midnightblue" stroke="midnightblue" points="194.11,-22.01 183.78,-19.65 190.39,-27.94 194.11,-22.01"/>
</g>
<!-- Node7 -->
<g id="node7" class="node">
<title>Node7</title>
<g id="a_node7"><a xlink:title=" ">
<polygon fill="none" stroke="#bfbfbf" points="210.5,-0.5 210.5,-19.5 259.5,-19.5 259.5,-0.5 210.5,-0.5"/>
<text text-anchor="middle" x="235" y="-7.5" font-family="Helvetica,sans-Serif" font-size="10.00">cstdlib</text>
</a>
</g>
</g>
<!-- Node6&#45;&gt;Node7 -->
<g id="edge6" class="edge">
<title>Node6&#45;&gt;Node7</title>
<path fill="none" stroke="midnightblue" d="M252.53,-56.08C249.69,-48.77 245.57,-38.18 242.04,-29.1"/>
<polygon fill="midnightblue" stroke="midnightblue" points="245.29,-27.8 238.4,-19.75 238.77,-30.34 245.29,-27.8"/>
</g>
<!-- Node6&#45;&gt;Node8 -->
<g id="edge7" class="edge">
<title>Node6&#45;&gt;Node8</title>
<path fill="none" stroke="midnightblue" d="M277.71,-56.44C300.35,-47.52 336.07,-33.44 361.75,-23.32"/>
<polygon fill="midnightblue" stroke="midnightblue" points="363.37,-26.44 371.39,-19.52 360.81,-19.93 363.37,-26.44"/>
</g>
<!-- Node9 -->
<g id="node9" class="node">
<title>Node9</title>
<g id="a_node9"><a xlink:title=" ">
<polygon fill="none" stroke="#bfbfbf" points="277.5,-0.5 277.5,-19.5 346.5,-19.5 346.5,-0.5 277.5,-0.5"/>
<text text-anchor="middle" x="312" y="-7.5" font-family="Helvetica,sans-Serif" font-size="10.00">type_traits</text>
</a>
</g>
</g>
<!-- Node6&#45;&gt;Node9 -->
<g id="edge9" class="edge">
<title>Node6&#45;&gt;Node9</title>
<path fill="none" stroke="midnightblue" d="M265,-56.32C273.19,-48.42 285.51,-36.55 295.47,-26.94"/>
<polygon fill="midnightblue" stroke="midnightblue" points="298.07,-29.29 302.84,-19.83 293.21,-24.26 298.07,-29.29"/>
</g>
</g>
</svg>
