<?xml version="1.0" encoding="UTF-8" standalone="no"?>
<!DOCTYPE svg PUBLIC "-//W3C//DTD SVG 1.1//EN"
 "http://www.w3.org/Graphics/SVG/1.1/DTD/svg11.dtd">
<!-- Generated by graphviz version 2.43.0 (0)
 -->
<!-- Title: /home/runner/work/cbmc/cbmc/src/util/union_find.cpp Pages: 1 -->
<svg width="468pt" height="263pt"
 viewBox="0.00 0.00 468.00 263.00" xmlns="http://www.w3.org/2000/svg" xmlns:xlink="http://www.w3.org/1999/xlink">
<g id="graph0" class="graph" transform="scale(1 1) rotate(0) translate(4 259)">
<title>/home/runner/work/cbmc/cbmc/src/util/union_find.cpp</title>
<!-- Node1 -->
<g id="node1" class="node">
<title>Node1</title>
<g id="a_node1"><a xlink:title=" ">
<polygon fill="#bfbfbf" stroke="black" points="119.5,-224.5 119.5,-254.5 274.5,-254.5 274.5,-224.5 119.5,-224.5"/>
<text text-anchor="start" x="127.5" y="-242.5" font-family="Helvetica,sans-Serif" font-size="10.00">/home/runner/work/cbmc</text>
<text text-anchor="middle" x="197" y="-231.5" font-family="Helvetica,sans-Serif" font-size="10.00">/cbmc/src/util/union_find.cpp</text>
</a>
</g>
</g>
<!-- Node2 -->
<g id="node2" class="node">
<title>Node2</title>
<g id="a_node2"><a xlink:href="union__find_8h.html" target="_top" xlink:title=" ">
<polygon fill="none" stroke="black" points="115,-168.5 115,-187.5 191,-187.5 191,-168.5 115,-168.5"/>
<text text-anchor="middle" x="153" y="-175.5" font-family="Helvetica,sans-Serif" font-size="10.00">union_find.h</text>
</a>
</g>
</g>
<!-- Node1&#45;&gt;Node2 -->
<g id="edge1" class="edge">
<title>Node1&#45;&gt;Node2</title>
<path fill="none" stroke="midnightblue" d="M186.57,-224.4C180.24,-215.84 172.13,-204.87 165.47,-195.86"/>
<polygon fill="midnightblue" stroke="midnightblue" points="168.16,-193.62 159.4,-187.66 162.53,-197.78 168.16,-193.62"/>
</g>
<!-- Node14 -->
<g id="node14" class="node">
<title>Node14</title>
<g id="a_node14"><a xlink:title=" ">
<polygon fill="none" stroke="#bfbfbf" points="209,-168.5 209,-187.5 273,-187.5 273,-168.5 209,-168.5"/>
<text text-anchor="middle" x="241" y="-175.5" font-family="Helvetica,sans-Serif" font-size="10.00">algorithm</text>
</a>
</g>
</g>
<!-- Node1&#45;&gt;Node14 -->
<g id="edge15" class="edge">
<title>Node1&#45;&gt;Node14</title>
<path fill="none" stroke="midnightblue" d="M207.43,-224.4C213.76,-215.84 221.87,-204.87 228.53,-195.86"/>
<polygon fill="midnightblue" stroke="midnightblue" points="231.47,-197.78 234.6,-187.66 225.84,-193.62 231.47,-197.78"/>
</g>
<!-- Node3 -->
<g id="node3" class="node">
<title>Node3</title>
<g id="a_node3"><a xlink:title=" ">
<polygon fill="none" stroke="#bfbfbf" points="63.5,-56.5 63.5,-75.5 110.5,-75.5 110.5,-56.5 63.5,-56.5"/>
<text text-anchor="middle" x="87" y="-63.5" font-family="Helvetica,sans-Serif" font-size="10.00">vector</text>
</a>
</g>
</g>
<!-- Node2&#45;&gt;Node3 -->
<g id="edge2" class="edge">
<title>Node2&#45;&gt;Node3</title>
<path fill="none" stroke="midnightblue" d="M147.82,-168.37C136.98,-150.3 111.71,-108.18 97.38,-84.31"/>
<polygon fill="midnightblue" stroke="midnightblue" points="100.3,-82.37 92.15,-75.59 94.3,-85.97 100.3,-82.37"/>
</g>
<!-- Node4 -->
<g id="node4" class="node">
<title>Node4</title>
<g id="a_node4"><a xlink:href="src_2util_2invariant_8h.html" target="_top" xlink:title=" ">
<polygon fill="none" stroke="black" points="128.5,-56.5 128.5,-75.5 197.5,-75.5 197.5,-56.5 128.5,-56.5"/>
<text text-anchor="middle" x="163" y="-63.5" font-family="Helvetica,sans-Serif" font-size="10.00">invariant.h</text>
</a>
</g>
</g>
<!-- Node2&#45;&gt;Node4 -->
<g id="edge3" class="edge">
<title>Node2&#45;&gt;Node4</title>
<path fill="none" stroke="midnightblue" d="M153.78,-168.37C155.4,-150.62 159.12,-109.67 161.31,-85.6"/>
<polygon fill="midnightblue" stroke="midnightblue" points="164.8,-85.87 162.22,-75.59 157.83,-85.23 164.8,-85.87"/>
</g>
<!-- Node9 -->
<g id="node9" class="node">
<title>Node9</title>
<g id="a_node9"><a xlink:href="numbering_8h.html" target="_top" xlink:title=" ">
<polygon fill="none" stroke="black" points="181,-112.5 181,-131.5 259,-131.5 259,-112.5 181,-112.5"/>
<text text-anchor="middle" x="220" y="-119.5" font-family="Helvetica,sans-Serif" font-size="10.00">numbering.h</text>
</a>
</g>
</g>
<!-- Node2&#45;&gt;Node9 -->
<g id="edge8" class="edge">
<title>Node2&#45;&gt;Node9</title>
<path fill="none" stroke="midnightblue" d="M163.76,-168.32C173.77,-160.26 188.89,-148.08 200.93,-138.37"/>
<polygon fill="midnightblue" stroke="midnightblue" points="203.45,-140.83 209.04,-131.83 199.06,-135.38 203.45,-140.83"/>
</g>
<!-- Node5 -->
<g id="node5" class="node">
<title>Node5</title>
<g id="a_node5"><a xlink:title=" ">
<polygon fill="none" stroke="#bfbfbf" points="149.5,-0.5 149.5,-19.5 198.5,-19.5 198.5,-0.5 149.5,-0.5"/>
<text text-anchor="middle" x="174" y="-7.5" font-family="Helvetica,sans-Serif" font-size="10.00">cstdlib</text>
</a>
</g>
</g>
<!-- Node4&#45;&gt;Node5 -->
<g id="edge4" class="edge">
<title>Node4&#45;&gt;Node5</title>
<path fill="none" stroke="midnightblue" d="M164.82,-56.08C166.27,-48.93 168.37,-38.64 170.19,-29.69"/>
<polygon fill="midnightblue" stroke="midnightblue" points="173.65,-30.25 172.22,-19.75 166.79,-28.85 173.65,-30.25"/>
</g>
<!-- Node6 -->
<g id="node6" class="node">
<title>Node6</title>
<g id="a_node6"><a xlink:title=" ">
<polygon fill="none" stroke="#bfbfbf" points="217,-0.5 217,-19.5 273,-19.5 273,-0.5 217,-0.5"/>
<text text-anchor="middle" x="245" y="-7.5" font-family="Helvetica,sans-Serif" font-size="10.00">sstream</text>
</a>
</g>
</g>
<!-- Node4&#45;&gt;Node6 -->
<g id="edge5" class="edge">
<title>Node4&#45;&gt;Node6</title>
<path fill="none" stroke="midnightblue" d="M176.17,-56.32C188.85,-47.98 208.23,-35.21 223.21,-25.35"/>
<polygon fill="midnightblue" stroke="midnightblue" points="225.43,-28.08 231.86,-19.65 221.58,-22.23 225.43,-28.08"/>
</g>
<!-- Node7 -->
<g id="node7" class="node">
<title>Node7</title>
<g id="a_node7"><a xlink:title=" ">
<polygon fill="none" stroke="#bfbfbf" points="0,-0.5 0,-19.5 44,-19.5 44,-0.5 0,-0.5"/>
<text text-anchor="middle" x="22" y="-7.5" font-family="Helvetica,sans-Serif" font-size="10.00">string</text>
</a>
</g>
</g>
<!-- Node4&#45;&gt;Node7 -->
<g id="edge6" class="edge">
<title>Node4&#45;&gt;Node7</title>
<path fill="none" stroke="midnightblue" d="M140.66,-56.44C117.25,-47.48 80.26,-33.31 53.81,-23.18"/>
<polygon fill="midnightblue" stroke="midnightblue" points="54.83,-19.82 44.24,-19.52 52.32,-26.36 54.83,-19.82"/>
</g>
<!-- Node8 -->
<g id="node8" class="node">
<title>Node8</title>
<g id="a_node8"><a xlink:title=" ">
<polygon fill="none" stroke="#bfbfbf" points="62.5,-0.5 62.5,-19.5 131.5,-19.5 131.5,-0.5 62.5,-0.5"/>
<text text-anchor="middle" x="97" y="-7.5" font-family="Helvetica,sans-Serif" font-size="10.00">type_traits</text>
</a>
</g>
</g>
<!-- Node4&#45;&gt;Node8 -->
<g id="edge7" class="edge">
<title>Node4&#45;&gt;Node8</title>
<path fill="none" stroke="midnightblue" d="M152.4,-56.32C142.54,-48.26 127.65,-36.08 115.78,-26.37"/>
<polygon fill="midnightblue" stroke="midnightblue" points="117.75,-23.46 107.8,-19.83 113.32,-28.88 117.75,-23.46"/>
</g>
<!-- Node9&#45;&gt;Node3 -->
<g id="edge10" class="edge">
<title>Node9&#45;&gt;Node3</title>
<path fill="none" stroke="midnightblue" d="M198.93,-112.44C176.94,-103.52 142.27,-89.44 117.34,-79.32"/>
<polygon fill="midnightblue" stroke="midnightblue" points="118.56,-76.04 107.98,-75.52 115.92,-82.52 118.56,-76.04"/>
</g>
<!-- Node9&#45;&gt;Node4 -->
<g id="edge11" class="edge">
<title>Node9&#45;&gt;Node4</title>
<path fill="none" stroke="midnightblue" d="M210.84,-112.32C202.5,-104.42 189.97,-92.55 179.82,-82.94"/>
<polygon fill="midnightblue" stroke="midnightblue" points="181.99,-80.17 172.32,-75.83 177.18,-85.25 181.99,-80.17"/>
</g>
<!-- Node10 -->
<g id="node10" class="node">
<title>Node10</title>
<g id="a_node10"><a xlink:title=" ">
<polygon fill="none" stroke="#bfbfbf" points="215.5,-56.5 215.5,-75.5 308.5,-75.5 308.5,-56.5 215.5,-56.5"/>
<text text-anchor="middle" x="262" y="-63.5" font-family="Helvetica,sans-Serif" font-size="10.00">unordered_map</text>
</a>
</g>
</g>
<!-- Node9&#45;&gt;Node10 -->
<g id="edge9" class="edge">
<title>Node9&#45;&gt;Node10</title>
<path fill="none" stroke="midnightblue" d="M226.94,-112.08C232.93,-104.38 241.75,-93.03 249.05,-83.65"/>
<polygon fill="midnightblue" stroke="midnightblue" points="251.82,-85.79 255.19,-75.75 246.29,-81.5 251.82,-85.79"/>
</g>
<!-- Node11 -->
<g id="node11" class="node">
<title>Node11</title>
<g id="a_node11"><a xlink:href="optional_8h.html" target="_top" xlink:title=" ">
<polygon fill="none" stroke="black" points="326.5,-56.5 326.5,-75.5 391.5,-75.5 391.5,-56.5 326.5,-56.5"/>
<text text-anchor="middle" x="359" y="-63.5" font-family="Helvetica,sans-Serif" font-size="10.00">optional.h</text>
</a>
</g>
</g>
<!-- Node9&#45;&gt;Node11 -->
<g id="edge12" class="edge">
<title>Node9&#45;&gt;Node11</title>
<path fill="none" stroke="midnightblue" d="M242.02,-112.44C265.1,-103.48 301.56,-89.31 327.64,-79.18"/>
<polygon fill="midnightblue" stroke="midnightblue" points="329.02,-82.4 337.08,-75.52 326.49,-75.88 329.02,-82.4"/>
</g>
<!-- Node12 -->
<g id="node12" class="node">
<title>Node12</title>
<g id="a_node12"><a xlink:href="deprecate_8h.html" target="_top" xlink:title=" ">
<polygon fill="none" stroke="black" points="312,-0.5 312,-19.5 386,-19.5 386,-0.5 312,-0.5"/>
<text text-anchor="middle" x="349" y="-7.5" font-family="Helvetica,sans-Serif" font-size="10.00">deprecate.h</text>
</a>
</g>
</g>
<!-- Node11&#45;&gt;Node12 -->
<g id="edge13" class="edge">
<title>Node11&#45;&gt;Node12</title>
<path fill="none" stroke="midnightblue" d="M357.35,-56.08C356.02,-48.93 354.12,-38.64 352.46,-29.69"/>
<polygon fill="midnightblue" stroke="midnightblue" points="355.88,-28.95 350.62,-19.75 349,-30.22 355.88,-28.95"/>
</g>
<!-- Node13 -->
<g id="node13" class="node">
<title>Node13</title>
<g id="a_node13"><a xlink:title=" ">
<polygon fill="none" stroke="#bfbfbf" points="404,-0.5 404,-19.5 460,-19.5 460,-0.5 404,-0.5"/>
<text text-anchor="middle" x="432" y="-7.5" font-family="Helvetica,sans-Serif" font-size="10.00">optional</text>
</a>
</g>
</g>
<!-- Node11&#45;&gt;Node13 -->
<g id="edge14" class="edge">
<title>Node11&#45;&gt;Node13</title>
<path fill="none" stroke="midnightblue" d="M370.73,-56.32C381.84,-48.11 398.74,-35.6 411.98,-25.81"/>
<polygon fill="midnightblue" stroke="midnightblue" points="414.1,-28.59 420.06,-19.83 409.94,-22.97 414.1,-28.59"/>
</g>
</g>
</svg>
