<?xml version="1.0" encoding="UTF-8" standalone="no"?>
<!DOCTYPE svg PUBLIC "-//W3C//DTD SVG 1.1//EN"
 "http://www.w3.org/Graphics/SVG/1.1/DTD/svg11.dtd">
<!-- Generated by graphviz version 2.43.0 (0)
 -->
<!-- Title: /home/runner/work/cbmc/cbmc/src/pointer&#45;analysis/value_set_domain.h Pages: 1 -->
<svg width="474pt" height="284pt"
 viewBox="0.00 0.00 473.50 284.00" xmlns="http://www.w3.org/2000/svg" xmlns:xlink="http://www.w3.org/1999/xlink">
<g id="graph0" class="graph" transform="scale(1 1) rotate(0) translate(4 280)">
<title>/home/runner/work/cbmc/cbmc/src/pointer&#45;analysis/value_set_domain.h</title>
<!-- Node1 -->
<g id="node1" class="node">
<title>Node1</title>
<g id="a_node1"><a xlink:title=" ">
<polygon fill="#bfbfbf" stroke="black" points="168.5,-234.5 168.5,-275.5 313.5,-275.5 313.5,-234.5 168.5,-234.5"/>
<text text-anchor="start" x="176.5" y="-263.5" font-family="Helvetica,sans-Serif" font-size="10.00">/home/runner/work/cbmc</text>
<text text-anchor="start" x="176.5" y="-252.5" font-family="Helvetica,sans-Serif" font-size="10.00">/cbmc/src/pointer&#45;analysis</text>
<text text-anchor="middle" x="241" y="-241.5" font-family="Helvetica,sans-Serif" font-size="10.00">/value_set_domain.h</text>
</a>
</g>
</g>
<!-- Node2 -->
<g id="node2" class="node">
<title>Node2</title>
<g id="a_node2"><a xlink:href="value__set__analysis_8h.html" target="_top" xlink:title=" ">
<polygon fill="none" stroke="black" points="168.5,-156.5 168.5,-197.5 313.5,-197.5 313.5,-156.5 168.5,-156.5"/>
<text text-anchor="start" x="176.5" y="-185.5" font-family="Helvetica,sans-Serif" font-size="10.00">/home/runner/work/cbmc</text>
<text text-anchor="start" x="176.5" y="-174.5" font-family="Helvetica,sans-Serif" font-size="10.00">/cbmc/src/pointer&#45;analysis</text>
<text text-anchor="middle" x="241" y="-163.5" font-family="Helvetica,sans-Serif" font-size="10.00">/value_set_analysis.h</text>
</a>
</g>
</g>
<!-- Node1&#45;&gt;Node2 -->
<g id="edge1" class="edge">
<title>Node1&#45;&gt;Node2</title>
<path fill="none" stroke="midnightblue" d="M241,-224.3C241,-215.3 241,-205.65 241,-197.51"/>
<polygon fill="midnightblue" stroke="midnightblue" points="237.5,-224.43 241,-234.43 244.5,-224.43 237.5,-224.43"/>
</g>
<!-- Node3 -->
<g id="node3" class="node">
<title>Node3</title>
<g id="a_node3"><a xlink:href="show__value__sets_8h.html" target="_top" xlink:title=" ">
<polygon fill="none" stroke="black" points="118.5,-78.5 118.5,-119.5 263.5,-119.5 263.5,-78.5 118.5,-78.5"/>
<text text-anchor="start" x="126.5" y="-107.5" font-family="Helvetica,sans-Serif" font-size="10.00">/home/runner/work/cbmc</text>
<text text-anchor="start" x="126.5" y="-96.5" font-family="Helvetica,sans-Serif" font-size="10.00">/cbmc/src/pointer&#45;analysis</text>
<text text-anchor="middle" x="191" y="-85.5" font-family="Helvetica,sans-Serif" font-size="10.00">/show_value_sets.h</text>
</a>
</g>
</g>
<!-- Node2&#45;&gt;Node3 -->
<g id="edge2" class="edge">
<title>Node2&#45;&gt;Node3</title>
<path fill="none" stroke="midnightblue" d="M222.61,-148.05C216.37,-138.57 209.54,-128.18 203.83,-119.51"/>
<polygon fill="midnightblue" stroke="midnightblue" points="219.7,-150 228.12,-156.43 225.55,-146.15 219.7,-150"/>
</g>
<!-- Node4 -->
<g id="node4" class="node">
<title>Node4</title>
<g id="a_node4"><a xlink:href="goto__instrument__parse__options_8cpp.html" target="_top" xlink:title=" ">
<polygon fill="none" stroke="black" points="0,-0.5 0,-41.5 194,-41.5 194,-0.5 0,-0.5"/>
<text text-anchor="start" x="8" y="-29.5" font-family="Helvetica,sans-Serif" font-size="10.00">/home/runner/work/cbmc</text>
<text text-anchor="start" x="8" y="-18.5" font-family="Helvetica,sans-Serif" font-size="10.00">/cbmc/src/goto&#45;instrument</text>
<text text-anchor="middle" x="97" y="-7.5" font-family="Helvetica,sans-Serif" font-size="10.00">/goto_instrument_parse_options.cpp</text>
</a>
</g>
</g>
<!-- Node2&#45;&gt;Node4 -->
<g id="edge5" class="edge">
<title>Node2&#45;&gt;Node4</title>
<path fill="none" stroke="midnightblue" d="M158.79,-155.98C140.17,-147.74 122.28,-136.18 110,-120 92.88,-97.44 92.43,-63.25 94.27,-41.8"/>
<polygon fill="midnightblue" stroke="midnightblue" points="157.69,-159.31 168.27,-159.88 160.36,-152.84 157.69,-159.31"/>
</g>
<!-- Node5 -->
<g id="node5" class="node">
<title>Node5</title>
<g id="a_node5"><a xlink:href="show__value__sets_8cpp.html" target="_top" xlink:title=" ">
<polygon fill="none" stroke="black" points="215.5,-0.5 215.5,-41.5 360.5,-41.5 360.5,-0.5 215.5,-0.5"/>
<text text-anchor="start" x="223.5" y="-29.5" font-family="Helvetica,sans-Serif" font-size="10.00">/home/runner/work/cbmc</text>
<text text-anchor="start" x="223.5" y="-18.5" font-family="Helvetica,sans-Serif" font-size="10.00">/cbmc/src/pointer&#45;analysis</text>
<text text-anchor="middle" x="288" y="-7.5" font-family="Helvetica,sans-Serif" font-size="10.00">/show_value_sets.cpp</text>
</a>
</g>
</g>
<!-- Node2&#45;&gt;Node5 -->
<g id="edge6" class="edge">
<title>Node2&#45;&gt;Node5</title>
<path fill="none" stroke="midnightblue" d="M259.92,-147.57C264.87,-139.02 269.72,-129.4 273,-120 282.12,-93.83 285.7,-61.82 287.11,-41.66"/>
<polygon fill="midnightblue" stroke="midnightblue" points="256.77,-146.01 254.59,-156.38 262.76,-149.64 256.77,-146.01"/>
</g>
<!-- Node6 -->
<g id="node6" class="node">
<title>Node6</title>
<g id="a_node6"><a xlink:href="value__set__analysis_8cpp.html" target="_top" xlink:title=" ">
<polygon fill="none" stroke="black" points="320.5,-78.5 320.5,-119.5 465.5,-119.5 465.5,-78.5 320.5,-78.5"/>
<text text-anchor="start" x="328.5" y="-107.5" font-family="Helvetica,sans-Serif" font-size="10.00">/home/runner/work/cbmc</text>
<text text-anchor="start" x="328.5" y="-96.5" font-family="Helvetica,sans-Serif" font-size="10.00">/cbmc/src/pointer&#45;analysis</text>
<text text-anchor="middle" x="393" y="-85.5" font-family="Helvetica,sans-Serif" font-size="10.00">/value_set_analysis.cpp</text>
</a>
</g>
</g>
<!-- Node2&#45;&gt;Node6 -->
<g id="edge7" class="edge">
<title>Node2&#45;&gt;Node6</title>
<path fill="none" stroke="midnightblue" d="M289.18,-151.91C310.08,-141.46 334.24,-129.38 353.99,-119.51"/>
<polygon fill="midnightblue" stroke="midnightblue" points="287.52,-148.83 280.14,-156.43 290.65,-155.09 287.52,-148.83"/>
</g>
<!-- Node3&#45;&gt;Node4 -->
<g id="edge3" class="edge">
<title>Node3&#45;&gt;Node4</title>
<path fill="none" stroke="midnightblue" d="M158.92,-72.06C146.54,-62.06 132.63,-50.8 121.13,-41.51"/>
<polygon fill="midnightblue" stroke="midnightblue" points="156.82,-74.86 166.79,-78.43 161.22,-69.42 156.82,-74.86"/>
</g>
<!-- Node3&#45;&gt;Node5 -->
<g id="edge4" class="edge">
<title>Node3&#45;&gt;Node5</title>
<path fill="none" stroke="midnightblue" d="M224.1,-72.06C236.87,-62.06 251.24,-50.8 263.1,-41.51"/>
<polygon fill="midnightblue" stroke="midnightblue" points="221.69,-69.51 215.98,-78.43 226.01,-75.02 221.69,-69.51"/>
</g>
</g>
</svg>
