<?xml version="1.0" encoding="UTF-8" standalone="no"?>
<!DOCTYPE svg PUBLIC "-//W3C//DTD SVG 1.1//EN"
 "http://www.w3.org/Graphics/SVG/1.1/DTD/svg11.dtd">
<!-- Generated by graphviz version 2.43.0 (0)
 -->
<!-- Title: /home/runner/work/cbmc/cbmc/src/analyses/variable&#45;sensitivity/write_stack_entry.h Pages: 1 -->
<svg width="1775pt" height="520pt"
 viewBox="0.00 0.00 1775.00 520.00" xmlns="http://www.w3.org/2000/svg" xmlns:xlink="http://www.w3.org/1999/xlink">
<g id="graph0" class="graph" transform="scale(1 1) rotate(0) translate(4 516)">
<title>/home/runner/work/cbmc/cbmc/src/analyses/variable&#45;sensitivity/write_stack_entry.h</title>
<!-- Node1 -->
<g id="node1" class="node">
<title>Node1</title>
<g id="a_node1"><a xlink:title="Represents an entry in the write_stackt.">
<polygon fill="#bfbfbf" stroke="black" points="743.5,-470.5 743.5,-511.5 912.5,-511.5 912.5,-470.5 743.5,-470.5"/>
<text text-anchor="start" x="751.5" y="-499.5" font-family="Helvetica,sans-Serif" font-size="10.00">/home/runner/work/cbmc</text>
<text text-anchor="start" x="751.5" y="-488.5" font-family="Helvetica,sans-Serif" font-size="10.00">/cbmc/src/analyses/variable</text>
<text text-anchor="middle" x="828" y="-477.5" font-family="Helvetica,sans-Serif" font-size="10.00">&#45;sensitivity/write_stack_entry.h</text>
</a>
</g>
</g>
<!-- Node2 -->
<g id="node2" class="node">
<title>Node2</title>
<g id="a_node2"><a xlink:href="abstract__object_8h.html" target="_top" xlink:title="abstract_objectt is the top of the inheritance heirarchy of objects used to represent individual vari...">
<polygon fill="none" stroke="black" points="777.5,-414.5 777.5,-433.5 878.5,-433.5 878.5,-414.5 777.5,-414.5"/>
<text text-anchor="middle" x="828" y="-421.5" font-family="Helvetica,sans-Serif" font-size="10.00">abstract_object.h</text>
</a>
</g>
</g>
<!-- Node1&#45;&gt;Node2 -->
<g id="edge1" class="edge">
<title>Node1&#45;&gt;Node2</title>
<path fill="none" stroke="midnightblue" d="M828,-470.5C828,-462.07 828,-452.24 828,-443.87"/>
<polygon fill="midnightblue" stroke="midnightblue" points="831.5,-443.65 828,-433.65 824.5,-443.65 831.5,-443.65"/>
</g>
<!-- Node3 -->
<g id="node3" class="node">
<title>Node3</title>
<g id="a_node3"><a xlink:title=" ">
<polygon fill="none" stroke="#bfbfbf" points="94,-56.5 94,-75.5 152,-75.5 152,-56.5 94,-56.5"/>
<text text-anchor="middle" x="123" y="-63.5" font-family="Helvetica,sans-Serif" font-size="10.00">memory</text>
</a>
</g>
</g>
<!-- Node2&#45;&gt;Node3 -->
<g id="edge2" class="edge">
<title>Node2&#45;&gt;Node3</title>
<path fill="none" stroke="midnightblue" d="M777.45,-420.97C597.68,-413.1 0,-380.99 0,-302 0,-302 0,-302 0,-188 0,-135.62 57.39,-98.34 93.77,-79.97"/>
<polygon fill="midnightblue" stroke="midnightblue" points="95.5,-83.02 102.96,-75.5 92.44,-76.73 95.5,-83.02"/>
</g>
<!-- Node4 -->
<g id="node4" class="node">
<title>Node4</title>
<g id="a_node4"><a xlink:title=" ">
<polygon fill="none" stroke="#bfbfbf" points="868,-179.5 868,-198.5 900,-198.5 900,-179.5 868,-179.5"/>
<text text-anchor="middle" x="884" y="-186.5" font-family="Helvetica,sans-Serif" font-size="10.00">set</text>
</a>
</g>
</g>
<!-- Node2&#45;&gt;Node4 -->
<g id="edge3" class="edge">
<title>Node2&#45;&gt;Node4</title>
<path fill="none" stroke="midnightblue" d="M830.89,-414.43C833.88,-405.43 838.58,-390.81 842,-378 858.42,-316.45 873.66,-242.42 880.38,-208.55"/>
<polygon fill="midnightblue" stroke="midnightblue" points="883.83,-209.17 882.32,-198.68 876.96,-207.82 883.83,-209.17"/>
</g>
<!-- Node5 -->
<g id="node5" class="node">
<title>Node5</title>
<g id="a_node5"><a xlink:title=" ">
<polygon fill="none" stroke="#bfbfbf" points="806.5,-179.5 806.5,-198.5 849.5,-198.5 849.5,-179.5 806.5,-179.5"/>
<text text-anchor="middle" x="828" y="-186.5" font-family="Helvetica,sans-Serif" font-size="10.00">stack</text>
</a>
</g>
</g>
<!-- Node2&#45;&gt;Node5 -->
<g id="edge4" class="edge">
<title>Node2&#45;&gt;Node5</title>
<path fill="none" stroke="midnightblue" d="M828,-414.43C828,-380.75 828,-256.99 828,-209.1"/>
<polygon fill="midnightblue" stroke="midnightblue" points="831.5,-208.9 828,-198.9 824.5,-208.9 831.5,-208.9"/>
</g>
<!-- Node6 -->
<g id="node6" class="node">
<title>Node6</title>
<g id="a_node6"><a xlink:href="goto__program_8h.html" target="_top" xlink:title="Concrete Goto Program.">
<polygon fill="none" stroke="black" points="1075.5,-347.5 1075.5,-377.5 1188.5,-377.5 1188.5,-347.5 1075.5,-347.5"/>
<text text-anchor="start" x="1083.5" y="-365.5" font-family="Helvetica,sans-Serif" font-size="10.00">goto&#45;programs/goto</text>
<text text-anchor="middle" x="1132" y="-354.5" font-family="Helvetica,sans-Serif" font-size="10.00">_program.h</text>
</a>
</g>
</g>
<!-- Node2&#45;&gt;Node6 -->
<g id="edge5" class="edge">
<title>Node2&#45;&gt;Node6</title>
<path fill="none" stroke="midnightblue" d="M871.56,-414.48C922.23,-404.56 1006.45,-388.07 1065.36,-376.54"/>
<polygon fill="midnightblue" stroke="midnightblue" points="1066.18,-379.95 1075.32,-374.59 1064.83,-373.08 1066.18,-379.95"/>
</g>
<!-- Node51 -->
<g id="node29" class="node">
<title>Node51</title>
<g id="a_node29"><a xlink:href="sharing__map_8h.html" target="_top" xlink:title="Sharing map.">
<polygon fill="none" stroke="black" points="594.5,-235.5 594.5,-254.5 701.5,-254.5 701.5,-235.5 594.5,-235.5"/>
<text text-anchor="middle" x="648" y="-242.5" font-family="Helvetica,sans-Serif" font-size="10.00">util/sharing_map.h</text>
</a>
</g>
</g>
<!-- Node2&#45;&gt;Node51 -->
<g id="edge48" class="edge">
<title>Node2&#45;&gt;Node51</title>
<path fill="none" stroke="midnightblue" d="M819.32,-414.46C791.11,-386.73 701.74,-298.85 664.52,-262.24"/>
<polygon fill="midnightblue" stroke="midnightblue" points="666.6,-259.38 657.02,-254.87 661.69,-264.38 666.6,-259.38"/>
</g>
<!-- Node6&#45;&gt;Node4 -->
<g id="edge35" class="edge">
<title>Node6&#45;&gt;Node4</title>
<path fill="none" stroke="midnightblue" d="M1078.45,-347.48C1052.79,-339.27 1022.41,-327.27 998,-311 954.15,-281.78 914.86,-232.69 895.93,-206.94"/>
<polygon fill="midnightblue" stroke="midnightblue" points="898.6,-204.65 889.91,-198.59 892.92,-208.75 898.6,-204.65"/>
</g>
<!-- Node7 -->
<g id="node7" class="node">
<title>Node7</title>
<g id="a_node7"><a xlink:href="goto__instruction__code_8h.html" target="_top" xlink:title=" ">
<polygon fill="none" stroke="black" points="1317.5,-291.5 1317.5,-310.5 1450.5,-310.5 1450.5,-291.5 1317.5,-291.5"/>
<text text-anchor="middle" x="1384" y="-298.5" font-family="Helvetica,sans-Serif" font-size="10.00">goto_instruction_code.h</text>
</a>
</g>
</g>
<!-- Node6&#45;&gt;Node7 -->
<g id="edge6" class="edge">
<title>Node6&#45;&gt;Node7</title>
<path fill="none" stroke="midnightblue" d="M1188.55,-348.15C1233.6,-337.51 1295.86,-322.81 1337.91,-312.88"/>
<polygon fill="midnightblue" stroke="midnightblue" points="1338.95,-316.23 1347.88,-310.53 1337.34,-309.42 1338.95,-316.23"/>
</g>
<!-- Node13 -->
<g id="node13" class="node">
<title>Node13</title>
<g id="a_node13"><a xlink:href="src_2util_2invariant_8h.html" target="_top" xlink:title=" ">
<polygon fill="none" stroke="red" points="1192.5,-56.5 1192.5,-75.5 1261.5,-75.5 1261.5,-56.5 1192.5,-56.5"/>
<text text-anchor="middle" x="1227" y="-63.5" font-family="Helvetica,sans-Serif" font-size="10.00">invariant.h</text>
</a>
</g>
</g>
<!-- Node6&#45;&gt;Node13 -->
<g id="edge39" class="edge">
<title>Node6&#45;&gt;Node13</title>
<path fill="none" stroke="midnightblue" d="M1149.65,-347.27C1179.91,-321.54 1240.42,-263.89 1261,-199 1263.69,-190.53 1263.49,-187.53 1261,-179 1255.68,-160.78 1244.62,-160.8 1238,-143 1231.04,-124.3 1228.46,-101.49 1227.52,-85.76"/>
<polygon fill="midnightblue" stroke="midnightblue" points="1231.01,-85.56 1227.08,-75.73 1224.02,-85.87 1231.01,-85.56"/>
</g>
<!-- Node16 -->
<g id="node14" class="node">
<title>Node16</title>
<g id="a_node14"><a xlink:title=" ">
<polygon fill="none" stroke="#bfbfbf" points="1173,-0.5 1173,-19.5 1217,-19.5 1217,-0.5 1173,-0.5"/>
<text text-anchor="middle" x="1195" y="-7.5" font-family="Helvetica,sans-Serif" font-size="10.00">string</text>
</a>
</g>
</g>
<!-- Node6&#45;&gt;Node16 -->
<g id="edge37" class="edge">
<title>Node6&#45;&gt;Node16</title>
<path fill="none" stroke="midnightblue" d="M1188.63,-357.15C1344.27,-344.43 1767,-304.51 1767,-246 1767,-246 1767,-246 1767,-126.5 1767,-71 1347.87,-25.88 1227.17,-14.04"/>
<polygon fill="midnightblue" stroke="midnightblue" points="1227.36,-10.55 1217.07,-13.06 1226.69,-17.51 1227.36,-10.55"/>
</g>
<!-- Node26 -->
<g id="node19" class="node">
<title>Node26</title>
<g id="a_node19"><a xlink:title=" ">
<polygon fill="none" stroke="#bfbfbf" points="898,-56.5 898,-75.5 946,-75.5 946,-56.5 898,-56.5"/>
<text text-anchor="middle" x="922" y="-63.5" font-family="Helvetica,sans-Serif" font-size="10.00">iosfwd</text>
</a>
</g>
</g>
<!-- Node6&#45;&gt;Node26 -->
<g id="edge34" class="edge">
<title>Node6&#45;&gt;Node26</title>
<path fill="none" stroke="midnightblue" d="M1112.98,-347.39C1088.76,-327.64 1050,-289.28 1050,-246 1050,-246 1050,-246 1050,-188 1050,-153.18 1053.75,-138.36 1031,-112 1011.92,-89.9 980.27,-78.45 955.97,-72.65"/>
<polygon fill="midnightblue" stroke="midnightblue" points="956.59,-69.21 946.07,-70.5 955.1,-76.05 956.59,-69.21"/>
</g>
<!-- Node50 -->
<g id="node23" class="node">
<title>Node50</title>
<g id="a_node23"><a xlink:title=" ">
<polygon fill="none" stroke="#bfbfbf" points="690,-56.5 690,-75.5 734,-75.5 734,-56.5 690,-56.5"/>
<text text-anchor="middle" x="712" y="-63.5" font-family="Helvetica,sans-Serif" font-size="10.00">limits</text>
</a>
</g>
</g>
<!-- Node6&#45;&gt;Node50 -->
<g id="edge36" class="edge">
<title>Node6&#45;&gt;Node50</title>
<path fill="none" stroke="midnightblue" d="M1105.2,-347.42C1090.18,-338.52 1071.93,-325.9 1059,-311 1016.02,-261.46 1041.29,-223.38 993,-179 919.8,-111.73 801.21,-82.71 744.38,-72.15"/>
<polygon fill="midnightblue" stroke="midnightblue" points="744.65,-68.64 734.19,-70.33 743.42,-75.53 744.65,-68.64"/>
</g>
<!-- Node21 -->
<g id="node24" class="node">
<title>Node21</title>
<g id="a_node24"><a xlink:href="deprecate_8h.html" target="_top" xlink:title=" ">
<polygon fill="none" stroke="black" points="1178,-179.5 1178,-198.5 1252,-198.5 1252,-179.5 1178,-179.5"/>
<text text-anchor="middle" x="1215" y="-186.5" font-family="Helvetica,sans-Serif" font-size="10.00">deprecate.h</text>
</a>
</g>
</g>
<!-- Node6&#45;&gt;Node21 -->
<g id="edge38" class="edge">
<title>Node6&#45;&gt;Node21</title>
<path fill="none" stroke="midnightblue" d="M1140.96,-347.44C1153.47,-327.44 1176.37,-289.39 1192,-255 1198.96,-239.68 1205.22,-221.57 1209.44,-208.37"/>
<polygon fill="midnightblue" stroke="midnightblue" points="1212.85,-209.19 1212.48,-198.6 1206.17,-207.11 1212.85,-209.19"/>
</g>
<!-- Node20 -->
<g id="node25" class="node">
<title>Node20</title>
<g id="a_node25"><a xlink:href="source__location_8h.html" target="_top" xlink:title=" ">
<polygon fill="none" stroke="black" points="1081,-235.5 1081,-254.5 1183,-254.5 1183,-235.5 1081,-235.5"/>
<text text-anchor="middle" x="1132" y="-242.5" font-family="Helvetica,sans-Serif" font-size="10.00">source_location.h</text>
</a>
</g>
</g>
<!-- Node6&#45;&gt;Node20 -->
<g id="edge40" class="edge">
<title>Node6&#45;&gt;Node20</title>
<path fill="none" stroke="midnightblue" d="M1132,-347.34C1132,-326.62 1132,-288.02 1132,-264.9"/>
<polygon fill="midnightblue" stroke="midnightblue" points="1135.5,-264.67 1132,-254.67 1128.5,-264.67 1135.5,-264.67"/>
</g>
<!-- Node8 -->
<g id="node8" class="node">
<title>Node8</title>
<g id="a_node8"><a xlink:href="std__code__base_8h.html" target="_top" xlink:title=" ">
<polygon fill="none" stroke="black" points="1326,-235.5 1326,-254.5 1442,-254.5 1442,-235.5 1326,-235.5"/>
<text text-anchor="middle" x="1384" y="-242.5" font-family="Helvetica,sans-Serif" font-size="10.00">util/std_code_base.h</text>
</a>
</g>
</g>
<!-- Node7&#45;&gt;Node8 -->
<g id="edge7" class="edge">
<title>Node7&#45;&gt;Node8</title>
<path fill="none" stroke="midnightblue" d="M1384,-291.08C1384,-284.01 1384,-273.86 1384,-264.99"/>
<polygon fill="midnightblue" stroke="midnightblue" points="1387.5,-264.75 1384,-254.75 1380.5,-264.75 1387.5,-264.75"/>
</g>
<!-- Node49 -->
<g id="node22" class="node">
<title>Node49</title>
<g id="a_node22"><a xlink:href="std__expr_8h.html" target="_top" xlink:title="API to expression classes.">
<polygon fill="none" stroke="black" points="1470,-235.5 1470,-254.5 1556,-254.5 1556,-235.5 1470,-235.5"/>
<text text-anchor="middle" x="1513" y="-242.5" font-family="Helvetica,sans-Serif" font-size="10.00">util/std_expr.h</text>
</a>
</g>
</g>
<!-- Node7&#45;&gt;Node49 -->
<g id="edge30" class="edge">
<title>Node7&#45;&gt;Node49</title>
<path fill="none" stroke="midnightblue" d="M1404.44,-291.44C1425.67,-282.56 1459.1,-268.56 1483.25,-258.45"/>
<polygon fill="midnightblue" stroke="midnightblue" points="1484.78,-261.61 1492.66,-254.52 1482.08,-255.15 1484.78,-261.61"/>
</g>
<!-- Node9 -->
<g id="node9" class="node">
<title>Node9</title>
<g id="a_node9"><a xlink:href="expr__cast_8h.html" target="_top" xlink:title="Templated functions to cast to specific exprt&#45;derived classes.">
<polygon fill="none" stroke="black" points="1477.5,-118 1477.5,-137 1550.5,-137 1550.5,-118 1477.5,-118"/>
<text text-anchor="middle" x="1514" y="-125" font-family="Helvetica,sans-Serif" font-size="10.00">expr_cast.h</text>
</a>
</g>
</g>
<!-- Node8&#45;&gt;Node9 -->
<g id="edge8" class="edge">
<title>Node8&#45;&gt;Node9</title>
<path fill="none" stroke="midnightblue" d="M1386.02,-235.37C1389.57,-221.83 1398.12,-195.45 1414,-179 1431.03,-161.36 1455.53,-148.85 1476.01,-140.69"/>
<polygon fill="midnightblue" stroke="midnightblue" points="1477.29,-143.96 1485.4,-137.14 1474.81,-137.41 1477.29,-143.96"/>
</g>
<!-- Node8&#45;&gt;Node13 -->
<g id="edge18" class="edge">
<title>Node8&#45;&gt;Node13</title>
<path fill="none" stroke="midnightblue" d="M1372.04,-235.4C1344.35,-215.31 1276.94,-165.35 1260,-143 1246.73,-125.49 1237.55,-101.82 1232.3,-85.57"/>
<polygon fill="midnightblue" stroke="midnightblue" points="1235.55,-84.23 1229.29,-75.68 1228.85,-86.26 1235.55,-84.23"/>
</g>
<!-- Node46 -->
<g id="node17" class="node">
<title>Node46</title>
<g id="a_node17"><a xlink:href="std__types_8h.html" target="_top" xlink:title="Pre&#45;defined types.">
<polygon fill="none" stroke="black" points="1422.5,-179.5 1422.5,-198.5 1495.5,-198.5 1495.5,-179.5 1422.5,-179.5"/>
<text text-anchor="middle" x="1459" y="-186.5" font-family="Helvetica,sans-Serif" font-size="10.00">std_types.h</text>
</a>
</g>
</g>
<!-- Node8&#45;&gt;Node46 -->
<g id="edge19" class="edge">
<title>Node8&#45;&gt;Node46</title>
<path fill="none" stroke="midnightblue" d="M1396.05,-235.32C1407.46,-227.11 1424.83,-214.6 1438.43,-204.81"/>
<polygon fill="midnightblue" stroke="midnightblue" points="1440.66,-207.52 1446.73,-198.83 1436.57,-201.84 1440.66,-207.52"/>
</g>
<!-- Node41 -->
<g id="node20" class="node">
<title>Node41</title>
<g id="a_node20"><a xlink:href="validate_8h.html" target="_top" xlink:title=" ">
<polygon fill="none" stroke="red" points="1268.5,-118 1268.5,-137 1333.5,-137 1333.5,-118 1268.5,-118"/>
<text text-anchor="middle" x="1301" y="-125" font-family="Helvetica,sans-Serif" font-size="10.00">validate.h</text>
</a>
</g>
</g>
<!-- Node8&#45;&gt;Node41 -->
<g id="edge29" class="edge">
<title>Node8&#45;&gt;Node41</title>
<path fill="none" stroke="midnightblue" d="M1377.76,-235.32C1364.06,-216.26 1331.14,-170.45 1313.19,-145.46"/>
<polygon fill="midnightblue" stroke="midnightblue" points="1315.99,-143.36 1307.31,-137.28 1310.3,-147.45 1315.99,-143.36"/>
</g>
<!-- Node10 -->
<g id="node10" class="node">
<title>Node10</title>
<g id="a_node10"><a xlink:title=" ">
<polygon fill="none" stroke="#bfbfbf" points="1413.5,-56.5 1413.5,-75.5 1470.5,-75.5 1470.5,-56.5 1413.5,-56.5"/>
<text text-anchor="middle" x="1442" y="-63.5" font-family="Helvetica,sans-Serif" font-size="10.00">typeinfo</text>
</a>
</g>
</g>
<!-- Node9&#45;&gt;Node10 -->
<g id="edge9" class="edge">
<title>Node9&#45;&gt;Node10</title>
<path fill="none" stroke="midnightblue" d="M1503.68,-117.98C1492.35,-108.61 1473.93,-93.38 1460.16,-82.01"/>
<polygon fill="midnightblue" stroke="midnightblue" points="1462.23,-79.18 1452.3,-75.51 1457.78,-84.58 1462.23,-79.18"/>
</g>
<!-- Node11 -->
<g id="node11" class="node">
<title>Node11</title>
<g id="a_node11"><a xlink:title=" ">
<polygon fill="none" stroke="#bfbfbf" points="627.5,-0.5 627.5,-19.5 696.5,-19.5 696.5,-0.5 627.5,-0.5"/>
<text text-anchor="middle" x="662" y="-7.5" font-family="Helvetica,sans-Serif" font-size="10.00">type_traits</text>
</a>
</g>
</g>
<!-- Node9&#45;&gt;Node11 -->
<g id="edge10" class="edge">
<title>Node9&#45;&gt;Node11</title>
<path fill="none" stroke="midnightblue" d="M1493,-117.98C1454.1,-102.61 1367.86,-70.5 1292,-56 1075.41,-14.6 810.36,-10.47 706.62,-10.61"/>
<polygon fill="midnightblue" stroke="midnightblue" points="706.5,-7.11 696.51,-10.64 706.52,-14.11 706.5,-7.11"/>
</g>
<!-- Node12 -->
<g id="node12" class="node">
<title>Node12</title>
<g id="a_node12"><a xlink:title=" ">
<polygon fill="none" stroke="#bfbfbf" points="1479.5,-0.5 1479.5,-19.5 1544.5,-19.5 1544.5,-0.5 1479.5,-0.5"/>
<text text-anchor="middle" x="1512" y="-7.5" font-family="Helvetica,sans-Serif" font-size="10.00">functional</text>
</a>
</g>
</g>
<!-- Node9&#45;&gt;Node12 -->
<g id="edge11" class="edge">
<title>Node9&#45;&gt;Node12</title>
<path fill="none" stroke="midnightblue" d="M1522.55,-117.6C1534.12,-104.43 1552.49,-78.87 1545,-56 1541.51,-45.34 1534.43,-35.12 1527.71,-27.12"/>
<polygon fill="midnightblue" stroke="midnightblue" points="1530.3,-24.76 1521.02,-19.66 1525.1,-29.44 1530.3,-24.76"/>
</g>
<!-- Node9&#45;&gt;Node13 -->
<g id="edge12" class="edge">
<title>Node9&#45;&gt;Node13</title>
<path fill="none" stroke="midnightblue" d="M1489.41,-117.95C1482.83,-115.83 1475.68,-113.69 1469,-112 1400.93,-94.78 1320.54,-81.13 1271.7,-73.56"/>
<polygon fill="midnightblue" stroke="midnightblue" points="1272.18,-70.09 1261.77,-72.03 1271.12,-77.01 1272.18,-70.09"/>
</g>
<!-- Node17 -->
<g id="node15" class="node">
<title>Node17</title>
<g id="a_node15"><a xlink:href="expr_8h.html" target="_top" xlink:title=" ">
<polygon fill="none" stroke="red" points="1488.5,-56.5 1488.5,-75.5 1535.5,-75.5 1535.5,-56.5 1488.5,-56.5"/>
<text text-anchor="middle" x="1512" y="-63.5" font-family="Helvetica,sans-Serif" font-size="10.00">expr.h</text>
</a>
</g>
</g>
<!-- Node9&#45;&gt;Node17 -->
<g id="edge15" class="edge">
<title>Node9&#45;&gt;Node17</title>
<path fill="none" stroke="midnightblue" d="M1513.71,-117.98C1513.43,-109.58 1512.99,-96.48 1512.63,-85.66"/>
<polygon fill="midnightblue" stroke="midnightblue" points="1516.12,-85.39 1512.29,-75.51 1509.12,-85.62 1516.12,-85.39"/>
</g>
<!-- Node13&#45;&gt;Node11 -->
<g id="edge14" class="edge">
<title>Node13&#45;&gt;Node11</title>
<path fill="none" stroke="midnightblue" d="M1192.08,-61.66C1093.96,-52.28 815.81,-25.7 706.7,-15.27"/>
<polygon fill="midnightblue" stroke="midnightblue" points="706.97,-11.78 696.68,-14.31 706.31,-18.75 706.97,-11.78"/>
</g>
<!-- Node13&#45;&gt;Node16 -->
<g id="edge13" class="edge">
<title>Node13&#45;&gt;Node16</title>
<path fill="none" stroke="midnightblue" d="M1221.72,-56.08C1217.29,-48.61 1210.84,-37.72 1205.38,-28.52"/>
<polygon fill="midnightblue" stroke="midnightblue" points="1208.29,-26.57 1200.19,-19.75 1202.27,-30.14 1208.29,-26.57"/>
</g>
<!-- Node17&#45;&gt;Node12 -->
<g id="edge17" class="edge">
<title>Node17&#45;&gt;Node12</title>
<path fill="none" stroke="midnightblue" d="M1512,-56.08C1512,-49.01 1512,-38.86 1512,-29.99"/>
<polygon fill="midnightblue" stroke="midnightblue" points="1515.5,-29.75 1512,-19.75 1508.5,-29.75 1515.5,-29.75"/>
</g>
<!-- Node18 -->
<g id="node16" class="node">
<title>Node18</title>
<g id="a_node16"><a xlink:href="as__const_8h.html" target="_top" xlink:title=" ">
<polygon fill="none" stroke="black" points="190,-0.5 190,-19.5 258,-19.5 258,-0.5 190,-0.5"/>
<text text-anchor="middle" x="224" y="-7.5" font-family="Helvetica,sans-Serif" font-size="10.00">as_const.h</text>
</a>
</g>
</g>
<!-- Node17&#45;&gt;Node18 -->
<g id="edge16" class="edge">
<title>Node17&#45;&gt;Node18</title>
<path fill="none" stroke="midnightblue" d="M1488.37,-57.68C1485.57,-57.01 1482.74,-56.43 1480,-56 1358.56,-37.03 477.81,-16.59 268.53,-11.97"/>
<polygon fill="midnightblue" stroke="midnightblue" points="268.3,-8.46 258.23,-11.74 268.15,-15.46 268.3,-8.46"/>
</g>
<!-- Node46&#45;&gt;Node9 -->
<g id="edge21" class="edge">
<title>Node46&#45;&gt;Node9</title>
<path fill="none" stroke="midnightblue" d="M1466.88,-179.48C1475.29,-170.37 1488.82,-155.74 1499.23,-144.48"/>
<polygon fill="midnightblue" stroke="midnightblue" points="1501.92,-146.73 1506.13,-137.01 1496.78,-141.98 1501.92,-146.73"/>
</g>
<!-- Node46&#45;&gt;Node13 -->
<g id="edge22" class="edge">
<title>Node46&#45;&gt;Node13</title>
<path fill="none" stroke="midnightblue" d="M1442.66,-179.34C1426.79,-170.72 1402.19,-156.82 1382,-143 1363.73,-130.49 1362.21,-123.02 1343,-112 1318.57,-97.99 1288.94,-86.57 1265.74,-78.75"/>
<polygon fill="midnightblue" stroke="midnightblue" points="1266.82,-75.42 1256.22,-75.62 1264.63,-82.07 1266.82,-75.42"/>
</g>
<!-- Node46&#45;&gt;Node17 -->
<g id="edge20" class="edge">
<title>Node46&#45;&gt;Node17</title>
<path fill="none" stroke="midnightblue" d="M1495.65,-181.98C1518.37,-176.15 1545.84,-164.82 1560,-143 1567.5,-131.44 1565.48,-124.64 1560,-112 1554.73,-99.84 1544.38,-89.46 1534.64,-81.74"/>
<polygon fill="midnightblue" stroke="midnightblue" points="1536.5,-78.77 1526.37,-75.67 1532.36,-84.41 1536.5,-78.77"/>
</g>
<!-- Node47 -->
<g id="node18" class="node">
<title>Node47</title>
<g id="a_node18"><a xlink:href="mp__arith_8h.html" target="_top" xlink:title=" ">
<polygon fill="none" stroke="red" points="1390.5,-118 1390.5,-137 1459.5,-137 1459.5,-118 1390.5,-118"/>
<text text-anchor="middle" x="1425" y="-125" font-family="Helvetica,sans-Serif" font-size="10.00">mp_arith.h</text>
</a>
</g>
</g>
<!-- Node46&#45;&gt;Node47 -->
<g id="edge23" class="edge">
<title>Node46&#45;&gt;Node47</title>
<path fill="none" stroke="midnightblue" d="M1454.13,-179.48C1449.13,-170.73 1441.21,-156.87 1434.89,-145.81"/>
<polygon fill="midnightblue" stroke="midnightblue" points="1437.86,-143.96 1429.86,-137.01 1431.78,-147.43 1437.86,-143.96"/>
</g>
<!-- Node46&#45;&gt;Node41 -->
<g id="edge26" class="edge">
<title>Node46&#45;&gt;Node41</title>
<path fill="none" stroke="midnightblue" d="M1436.36,-179.48C1409.26,-169.27 1363.69,-152.11 1333,-140.55"/>
<polygon fill="midnightblue" stroke="midnightblue" points="1334.19,-137.26 1323.6,-137.01 1331.72,-143.81 1334.19,-137.26"/>
</g>
<!-- Node31 -->
<g id="node21" class="node">
<title>Node31</title>
<g id="a_node21"><a xlink:title=" ">
<polygon fill="none" stroke="#bfbfbf" points="1607.5,-118 1607.5,-137 1700.5,-137 1700.5,-118 1607.5,-118"/>
<text text-anchor="middle" x="1654" y="-125" font-family="Helvetica,sans-Serif" font-size="10.00">unordered_map</text>
</a>
</g>
</g>
<!-- Node46&#45;&gt;Node31 -->
<g id="edge28" class="edge">
<title>Node46&#45;&gt;Node31</title>
<path fill="none" stroke="midnightblue" d="M1486.94,-179.48C1520.97,-169.09 1578.58,-151.51 1616.46,-139.95"/>
<polygon fill="midnightblue" stroke="midnightblue" points="1617.57,-143.28 1626.11,-137.01 1615.53,-136.58 1617.57,-143.28"/>
</g>
<!-- Node47&#45;&gt;Node16 -->
<g id="edge25" class="edge">
<title>Node47&#45;&gt;Node16</title>
<path fill="none" stroke="midnightblue" d="M1412.53,-117.94C1391.7,-103.88 1348.26,-75.5 1309,-56 1282.11,-42.64 1250.22,-30.34 1227.02,-21.98"/>
<polygon fill="midnightblue" stroke="midnightblue" points="1227.93,-18.59 1217.34,-18.54 1225.59,-25.19 1227.93,-18.59"/>
</g>
<!-- Node47&#45;&gt;Node26 -->
<g id="edge24" class="edge">
<title>Node47&#45;&gt;Node26</title>
<path fill="none" stroke="midnightblue" d="M1390.37,-119.83C1375.78,-117.17 1358.6,-114.21 1343,-112 1200.05,-91.75 1028.62,-76.08 956.57,-69.89"/>
<polygon fill="midnightblue" stroke="midnightblue" points="956.54,-66.37 946.28,-69.01 955.94,-73.35 956.54,-66.37"/>
</g>
<!-- Node41&#45;&gt;Node11 -->
<g id="edge27" class="edge">
<title>Node41&#45;&gt;Node11</title>
<path fill="none" stroke="midnightblue" d="M1300.14,-117.79C1298.12,-102.42 1291.55,-70.71 1271,-56 1225.46,-23.41 840.28,-13.96 707.09,-11.66"/>
<polygon fill="midnightblue" stroke="midnightblue" points="706.9,-8.15 696.84,-11.48 706.78,-15.15 706.9,-8.15"/>
</g>
<!-- Node49&#45;&gt;Node9 -->
<g id="edge31" class="edge">
<title>Node49&#45;&gt;Node9</title>
<path fill="none" stroke="midnightblue" d="M1513.08,-235.32C1513.24,-216.76 1513.62,-172.84 1513.84,-147.47"/>
<polygon fill="midnightblue" stroke="midnightblue" points="1517.34,-147.31 1513.92,-137.28 1510.34,-147.25 1517.34,-147.31"/>
</g>
<!-- Node49&#45;&gt;Node13 -->
<g id="edge32" class="edge">
<title>Node49&#45;&gt;Node13</title>
<path fill="none" stroke="midnightblue" d="M1549.35,-235.48C1620,-217.33 1764.35,-171.65 1710,-112 1695.32,-95.89 1388.58,-76.41 1271.69,-69.54"/>
<polygon fill="midnightblue" stroke="midnightblue" points="1271.83,-66.05 1261.64,-68.96 1271.42,-73.03 1271.83,-66.05"/>
</g>
<!-- Node49&#45;&gt;Node46 -->
<g id="edge33" class="edge">
<title>Node49&#45;&gt;Node46</title>
<path fill="none" stroke="midnightblue" d="M1504.08,-235.08C1496.22,-227.22 1484.57,-215.57 1475.08,-206.08"/>
<polygon fill="midnightblue" stroke="midnightblue" points="1477.3,-203.35 1467.75,-198.75 1472.35,-208.3 1477.3,-203.35"/>
</g>
<!-- Node20&#45;&gt;Node16 -->
<g id="edge47" class="edge">
<title>Node20&#45;&gt;Node16</title>
<path fill="none" stroke="midnightblue" d="M1134.32,-235.43C1143.44,-201.68 1177.03,-77.47 1189.92,-29.8"/>
<polygon fill="midnightblue" stroke="midnightblue" points="1193.36,-30.46 1192.59,-19.9 1186.61,-28.64 1193.36,-30.46"/>
</g>
<!-- Node20&#45;&gt;Node21 -->
<g id="edge41" class="edge">
<title>Node20&#45;&gt;Node21</title>
<path fill="none" stroke="midnightblue" d="M1145.34,-235.32C1158.16,-226.98 1177.78,-214.21 1192.94,-204.35"/>
<polygon fill="midnightblue" stroke="midnightblue" points="1195.22,-207.04 1201.7,-198.65 1191.41,-201.17 1195.22,-207.04"/>
</g>
<!-- Node22 -->
<g id="node26" class="node">
<title>Node22</title>
<g id="a_node26"><a xlink:href="irep_8h.html" target="_top" xlink:title=" ">
<polygon fill="none" stroke="red" points="1078,-179.5 1078,-198.5 1122,-198.5 1122,-179.5 1078,-179.5"/>
<text text-anchor="middle" x="1100" y="-186.5" font-family="Helvetica,sans-Serif" font-size="10.00">irep.h</text>
</a>
</g>
</g>
<!-- Node20&#45;&gt;Node22 -->
<g id="edge42" class="edge">
<title>Node20&#45;&gt;Node22</title>
<path fill="none" stroke="midnightblue" d="M1126.72,-235.08C1122.29,-227.61 1115.84,-216.72 1110.38,-207.52"/>
<polygon fill="midnightblue" stroke="midnightblue" points="1113.29,-205.57 1105.19,-198.75 1107.27,-209.14 1113.29,-205.57"/>
</g>
<!-- Node39 -->
<g id="node28" class="node">
<title>Node39</title>
<g id="a_node28"><a xlink:href="optional_8h.html" target="_top" xlink:title=" ">
<polygon fill="none" stroke="red" points="918.5,-179.5 918.5,-198.5 983.5,-198.5 983.5,-179.5 918.5,-179.5"/>
<text text-anchor="middle" x="951" y="-186.5" font-family="Helvetica,sans-Serif" font-size="10.00">optional.h</text>
</a>
</g>
</g>
<!-- Node20&#45;&gt;Node39 -->
<g id="edge46" class="edge">
<title>Node20&#45;&gt;Node39</title>
<path fill="none" stroke="midnightblue" d="M1103.32,-235.44C1072.47,-226.24 1023.27,-211.56 989.17,-201.39"/>
<polygon fill="midnightblue" stroke="midnightblue" points="990.13,-198.02 979.55,-198.52 988.13,-204.73 990.13,-198.02"/>
</g>
<!-- Node22&#45;&gt;Node13 -->
<g id="edge45" class="edge">
<title>Node22&#45;&gt;Node13</title>
<path fill="none" stroke="midnightblue" d="M1109.13,-179.3C1130.37,-159.07 1183.31,-108.62 1210.43,-82.79"/>
<polygon fill="midnightblue" stroke="midnightblue" points="1213.12,-85.06 1217.95,-75.62 1208.29,-79.99 1213.12,-85.06"/>
</g>
<!-- Node22&#45;&gt;Node16 -->
<g id="edge43" class="edge">
<title>Node22&#45;&gt;Node16</title>
<path fill="none" stroke="midnightblue" d="M1101.92,-179.39C1107.07,-157.46 1122.73,-98.19 1150,-56 1157.16,-44.92 1167.44,-34.38 1176.36,-26.29"/>
<polygon fill="midnightblue" stroke="midnightblue" points="1178.8,-28.81 1184.05,-19.61 1174.2,-23.53 1178.8,-28.81"/>
</g>
<!-- Node23 -->
<g id="node27" class="node">
<title>Node23</title>
<g id="a_node27"><a xlink:title=" ">
<polygon fill="none" stroke="#bfbfbf" points="974.5,-118 974.5,-137 1021.5,-137 1021.5,-118 974.5,-118"/>
<text text-anchor="middle" x="998" y="-125" font-family="Helvetica,sans-Serif" font-size="10.00">vector</text>
</a>
</g>
</g>
<!-- Node22&#45;&gt;Node23 -->
<g id="edge44" class="edge">
<title>Node22&#45;&gt;Node23</title>
<path fill="none" stroke="midnightblue" d="M1085.39,-179.48C1068.65,-169.71 1041,-153.58 1021.28,-142.08"/>
<polygon fill="midnightblue" stroke="midnightblue" points="1022.99,-139.02 1012.59,-137.01 1019.46,-145.07 1022.99,-139.02"/>
</g>
<!-- Node51&#45;&gt;Node3 -->
<g id="edge51" class="edge">
<title>Node51&#45;&gt;Node3</title>
<path fill="none" stroke="midnightblue" d="M594.04,-242.86C467.08,-238.89 155.59,-221.21 95,-143 81.34,-125.37 95.36,-100.41 108,-83.97"/>
<polygon fill="midnightblue" stroke="midnightblue" points="111.05,-85.76 114.7,-75.81 105.64,-81.32 111.05,-85.76"/>
</g>
<!-- Node51&#45;&gt;Node4 -->
<g id="edge52" class="edge">
<title>Node51&#45;&gt;Node4</title>
<path fill="none" stroke="midnightblue" d="M697.07,-235.49C737.94,-227.95 797.79,-215.92 858.26,-198.91"/>
<polygon fill="midnightblue" stroke="midnightblue" points="859.31,-202.25 867.97,-196.13 857.39,-195.52 859.31,-202.25"/>
</g>
<!-- Node51&#45;&gt;Node5 -->
<g id="edge53" class="edge">
<title>Node51&#45;&gt;Node5</title>
<path fill="none" stroke="midnightblue" d="M676.52,-235.44C709.22,-225.63 762.67,-209.6 796.55,-199.44"/>
<polygon fill="midnightblue" stroke="midnightblue" points="797.82,-202.71 806.39,-196.48 795.81,-196 797.82,-202.71"/>
</g>
<!-- Node51&#45;&gt;Node11 -->
<g id="edge57" class="edge">
<title>Node51&#45;&gt;Node11</title>
<path fill="none" stroke="midnightblue" d="M594.13,-243.55C481.49,-241.91 224.99,-234.29 146,-199 82.91,-170.81 38.08,-106.72 85,-56 120.88,-17.21 487.32,-11.79 616.9,-11.08"/>
<polygon fill="midnightblue" stroke="midnightblue" points="617.27,-14.58 627.25,-11.03 617.24,-7.58 617.27,-14.58"/>
</g>
<!-- Node51&#45;&gt;Node12 -->
<g id="edge49" class="edge">
<title>Node51&#45;&gt;Node12</title>
<path fill="none" stroke="midnightblue" d="M662.1,-235.31C690.66,-217.72 752.77,-179.5 754,-179 819.43,-152.17 842.89,-168.12 909,-143 935.96,-132.76 939.16,-122.56 966,-112 1059.09,-75.38 1085.84,-75.27 1184,-56 1285.3,-36.11 1405.91,-21.98 1468.87,-15.32"/>
<polygon fill="midnightblue" stroke="midnightblue" points="1469.62,-18.76 1479.21,-14.23 1468.9,-11.79 1469.62,-18.76"/>
</g>
<!-- Node51&#45;&gt;Node16 -->
<g id="edge55" class="edge">
<title>Node51&#45;&gt;Node16</title>
<path fill="none" stroke="midnightblue" d="M642.86,-235.45C635.53,-222.02 624.28,-195.79 637,-179 672.68,-131.89 711.61,-168.33 765,-143 825.82,-114.14 826.45,-80.9 889,-56 983.44,-18.4 1105.53,-11.8 1162.74,-10.92"/>
<polygon fill="midnightblue" stroke="midnightblue" points="1163,-14.41 1172.97,-10.81 1162.93,-7.41 1163,-14.41"/>
</g>
<!-- Node51&#45;&gt;Node18 -->
<g id="edge59" class="edge">
<title>Node51&#45;&gt;Node18</title>
<path fill="none" stroke="midnightblue" d="M594.29,-244.74C475.06,-245.56 192.25,-242.68 109,-199 50.45,-168.28 25.94,-107.01 68,-56 94.85,-23.44 143.65,-13.57 179.55,-10.99"/>
<polygon fill="midnightblue" stroke="midnightblue" points="179.97,-14.47 189.76,-10.43 179.59,-7.48 179.97,-14.47"/>
</g>
<!-- Node51&#45;&gt;Node22 -->
<g id="edge60" class="edge">
<title>Node51&#45;&gt;Node22</title>
<path fill="none" stroke="midnightblue" d="M701.63,-237.59C796.32,-226.28 990.43,-203.09 1067.46,-193.89"/>
<polygon fill="midnightblue" stroke="midnightblue" points="1068.01,-197.35 1077.53,-192.68 1067.18,-190.4 1068.01,-197.35"/>
</g>
<!-- Node51&#45;&gt;Node23 -->
<g id="edge58" class="edge">
<title>Node51&#45;&gt;Node23</title>
<path fill="none" stroke="midnightblue" d="M668.78,-235.36C690.2,-226.41 724.53,-211.95 754,-199 773.67,-190.36 777.63,-185.81 798,-179 867.95,-155.61 889.36,-164.2 960,-143 962.57,-142.23 965.22,-141.36 967.87,-140.45"/>
<polygon fill="midnightblue" stroke="midnightblue" points="969.08,-143.74 977.28,-137.03 966.69,-137.16 969.08,-143.74"/>
</g>
<!-- Node51&#45;&gt;Node39 -->
<g id="edge61" class="edge">
<title>Node51&#45;&gt;Node39</title>
<path fill="none" stroke="midnightblue" d="M701.1,-235.49C751.75,-227.23 830.44,-214.01 908.46,-199.04"/>
<polygon fill="midnightblue" stroke="midnightblue" points="909.31,-202.44 918.47,-197.11 907.99,-195.57 909.31,-202.44"/>
</g>
<!-- Node52 -->
<g id="node30" class="node">
<title>Node52</title>
<g id="a_node30"><a xlink:title=" ">
<polygon fill="none" stroke="#bfbfbf" points="321,-179.5 321,-198.5 359,-198.5 359,-179.5 321,-179.5"/>
<text text-anchor="middle" x="340" y="-186.5" font-family="Helvetica,sans-Serif" font-size="10.00">map</text>
</a>
</g>
</g>
<!-- Node51&#45;&gt;Node52 -->
<g id="edge50" class="edge">
<title>Node51&#45;&gt;Node52</title>
<path fill="none" stroke="midnightblue" d="M594.37,-237.84C539.81,-231.02 452.75,-218.63 369.09,-198.96"/>
<polygon fill="midnightblue" stroke="midnightblue" points="369.71,-195.51 359.17,-196.58 368.08,-202.31 369.71,-195.51"/>
</g>
<!-- Node53 -->
<g id="node31" class="node">
<title>Node53</title>
<g id="a_node31"><a xlink:title=" ">
<polygon fill="none" stroke="#bfbfbf" points="486.5,-179.5 486.5,-198.5 551.5,-198.5 551.5,-179.5 486.5,-179.5"/>
<text text-anchor="middle" x="519" y="-186.5" font-family="Helvetica,sans-Serif" font-size="10.00">stdexcept</text>
</a>
</g>
</g>
<!-- Node51&#45;&gt;Node53 -->
<g id="edge54" class="edge">
<title>Node51&#45;&gt;Node53</title>
<path fill="none" stroke="midnightblue" d="M627.56,-235.44C606.33,-226.56 572.9,-212.56 548.75,-202.45"/>
<polygon fill="midnightblue" stroke="midnightblue" points="549.92,-199.15 539.34,-198.52 547.22,-205.61 549.92,-199.15"/>
</g>
<!-- Node54 -->
<g id="node32" class="node">
<title>Node54</title>
<g id="a_node32"><a xlink:title=" ">
<polygon fill="none" stroke="#bfbfbf" points="773.5,-56.5 773.5,-75.5 814.5,-75.5 814.5,-56.5 773.5,-56.5"/>
<text text-anchor="middle" x="794" y="-63.5" font-family="Helvetica,sans-Serif" font-size="10.00">tuple</text>
</a>
</g>
</g>
<!-- Node51&#45;&gt;Node54 -->
<g id="edge56" class="edge">
<title>Node51&#45;&gt;Node54</title>
<path fill="none" stroke="midnightblue" d="M634.73,-235.37C616.9,-222.7 589.09,-198.48 604,-179 641.22,-130.37 686.31,-177.37 737,-143 758.91,-128.14 775.75,-102.04 785.27,-84.64"/>
<polygon fill="midnightblue" stroke="midnightblue" points="788.49,-86.03 790.01,-75.54 782.28,-82.79 788.49,-86.03"/>
</g>
<!-- Node55 -->
<g id="node33" class="node">
<title>Node55</title>
<g id="a_node33"><a xlink:href="sharing__node_8h.html" target="_top" xlink:title="Sharing node.">
<polygon fill="none" stroke="black" points="377.5,-179.5 377.5,-198.5 468.5,-198.5 468.5,-179.5 377.5,-179.5"/>
<text text-anchor="middle" x="423" y="-186.5" font-family="Helvetica,sans-Serif" font-size="10.00">sharing_node.h</text>
</a>
</g>
</g>
<!-- Node51&#45;&gt;Node55 -->
<g id="edge62" class="edge">
<title>Node51&#45;&gt;Node55</title>
<path fill="none" stroke="midnightblue" d="M612.35,-235.44C573.34,-226.08 510.73,-211.06 468.28,-200.87"/>
<polygon fill="midnightblue" stroke="midnightblue" points="469.03,-197.45 458.49,-198.52 467.39,-204.25 469.03,-197.45"/>
</g>
<!-- Node65 -->
<g id="node44" class="node">
<title>Node65</title>
<g id="a_node44"><a xlink:href="threeval_8h.html" target="_top" xlink:title=" ">
<polygon fill="none" stroke="black" points="646,-179.5 646,-198.5 712,-198.5 712,-179.5 646,-179.5"/>
<text text-anchor="middle" x="679" y="-186.5" font-family="Helvetica,sans-Serif" font-size="10.00">threeval.h</text>
</a>
</g>
</g>
<!-- Node51&#45;&gt;Node65 -->
<g id="edge88" class="edge">
<title>Node51&#45;&gt;Node65</title>
<path fill="none" stroke="midnightblue" d="M653.12,-235.08C657.41,-227.61 663.66,-216.72 668.94,-207.52"/>
<polygon fill="midnightblue" stroke="midnightblue" points="672.03,-209.17 673.98,-198.75 665.96,-205.68 672.03,-209.17"/>
</g>
<!-- Node55&#45;&gt;Node11 -->
<g id="edge64" class="edge">
<title>Node55&#45;&gt;Node11</title>
<path fill="none" stroke="midnightblue" d="M377.48,-179.61C340.49,-171.75 292.61,-158.86 281,-143 258.16,-111.8 255.31,-84.9 281,-56 303.02,-31.23 521.11,-17.77 617.08,-13.01"/>
<polygon fill="midnightblue" stroke="midnightblue" points="617.52,-16.5 627.34,-12.51 617.18,-9.5 617.52,-16.5"/>
</g>
<!-- Node55&#45;&gt;Node13 -->
<g id="edge76" class="edge">
<title>Node55&#45;&gt;Node13</title>
<path fill="none" stroke="midnightblue" d="M468.65,-180.3C471.47,-179.85 474.28,-179.42 477,-179 592.32,-161.41 621.58,-159.94 737,-143 901.31,-118.88 1096.23,-87.96 1182.32,-74.18"/>
<polygon fill="midnightblue" stroke="midnightblue" points="1182.95,-77.62 1192.27,-72.59 1181.85,-70.71 1182.95,-77.62"/>
</g>
<!-- Node55&#45;&gt;Node18 -->
<g id="edge75" class="edge">
<title>Node55&#45;&gt;Node18</title>
<path fill="none" stroke="midnightblue" d="M380.1,-179.48C331.27,-169.4 257.08,-152.76 248,-143 219.13,-111.98 219.17,-58.38 221.61,-29.96"/>
<polygon fill="midnightblue" stroke="midnightblue" points="225.12,-30.09 222.69,-19.78 218.16,-29.35 225.12,-30.09"/>
</g>
<!-- Node37 -->
<g id="node34" class="node">
<title>Node37</title>
<g id="a_node34"><a xlink:title=" ">
<polygon fill="none" stroke="#bfbfbf" points="516,-118 516,-137 590,-137 590,-118 516,-118"/>
<text text-anchor="middle" x="553" y="-125" font-family="Helvetica,sans-Serif" font-size="10.00">forward_list</text>
</a>
</g>
</g>
<!-- Node55&#45;&gt;Node37 -->
<g id="edge63" class="edge">
<title>Node55&#45;&gt;Node37</title>
<path fill="none" stroke="midnightblue" d="M441.63,-179.48C463.44,-169.49 499.8,-152.85 525.02,-141.31"/>
<polygon fill="midnightblue" stroke="midnightblue" points="526.77,-144.35 534.41,-137.01 523.86,-137.99 526.77,-144.35"/>
</g>
<!-- Node56 -->
<g id="node35" class="node">
<title>Node56</title>
<g id="a_node35"><a xlink:href="small__map_8h.html" target="_top" xlink:title="Small map.">
<polygon fill="none" stroke="black" points="290,-118 290,-137 370,-137 370,-118 290,-118"/>
<text text-anchor="middle" x="330" y="-125" font-family="Helvetica,sans-Serif" font-size="10.00">small_map.h</text>
</a>
</g>
</g>
<!-- Node55&#45;&gt;Node56 -->
<g id="edge65" class="edge">
<title>Node55&#45;&gt;Node56</title>
<path fill="none" stroke="midnightblue" d="M409.68,-179.48C394.62,-169.84 369.88,-154.02 351.96,-142.55"/>
<polygon fill="midnightblue" stroke="midnightblue" points="353.61,-139.45 343.3,-137.01 349.84,-145.35 353.61,-139.45"/>
</g>
<!-- Node62 -->
<g id="node41" class="node">
<title>Node62</title>
<g id="a_node41"><a xlink:href="make__unique_8h.html" target="_top" xlink:title=" ">
<polygon fill="none" stroke="black" points="104.5,-118 104.5,-137 195.5,-137 195.5,-118 104.5,-118"/>
<text text-anchor="middle" x="150" y="-125" font-family="Helvetica,sans-Serif" font-size="10.00">make_unique.h</text>
</a>
</g>
</g>
<!-- Node55&#45;&gt;Node62 -->
<g id="edge77" class="edge">
<title>Node55&#45;&gt;Node62</title>
<path fill="none" stroke="midnightblue" d="M380.89,-179.48C337.87,-170.68 269.16,-156.4 210,-143 204.97,-141.86 199.71,-140.64 194.48,-139.4"/>
<polygon fill="midnightblue" stroke="midnightblue" points="195.08,-135.95 184.54,-137.03 193.46,-142.76 195.08,-135.95"/>
</g>
<!-- Node63 -->
<g id="node42" class="node">
<title>Node63</title>
<g id="a_node42"><a xlink:href="small__shared__n__way__ptr_8h.html" target="_top" xlink:title=" ">
<polygon fill="none" stroke="black" points="608.5,-112.5 608.5,-142.5 727.5,-142.5 727.5,-112.5 608.5,-112.5"/>
<text text-anchor="start" x="616.5" y="-130.5" font-family="Helvetica,sans-Serif" font-size="10.00">small_shared_n_way</text>
<text text-anchor="middle" x="668" y="-119.5" font-family="Helvetica,sans-Serif" font-size="10.00">_ptr.h</text>
</a>
</g>
</g>
<!-- Node55&#45;&gt;Node63 -->
<g id="edge79" class="edge">
<title>Node55&#45;&gt;Node63</title>
<path fill="none" stroke="midnightblue" d="M458.1,-179.48C495.08,-170.49 554.24,-156.13 600.34,-144.93"/>
<polygon fill="midnightblue" stroke="midnightblue" points="601.37,-148.28 610.26,-142.52 599.71,-141.48 601.37,-148.28"/>
</g>
<!-- Node64 -->
<g id="node43" class="node">
<title>Node64</title>
<g id="a_node43"><a xlink:href="small__shared__ptr_8h.html" target="_top" xlink:title=" ">
<polygon fill="none" stroke="black" points="388.5,-118 388.5,-137 497.5,-137 497.5,-118 388.5,-118"/>
<text text-anchor="middle" x="443" y="-125" font-family="Helvetica,sans-Serif" font-size="10.00">small_shared_ptr.h</text>
</a>
</g>
</g>
<!-- Node55&#45;&gt;Node64 -->
<g id="edge85" class="edge">
<title>Node55&#45;&gt;Node64</title>
<path fill="none" stroke="midnightblue" d="M425.87,-179.48C428.72,-170.99 433.18,-157.7 436.84,-146.82"/>
<polygon fill="midnightblue" stroke="midnightblue" points="440.27,-147.6 440.14,-137.01 433.64,-145.37 440.27,-147.6"/>
</g>
<!-- Node56&#45;&gt;Node3 -->
<g id="edge70" class="edge">
<title>Node56&#45;&gt;Node3</title>
<path fill="none" stroke="midnightblue" d="M300.34,-117.98C263.96,-107.52 202.19,-89.76 161.99,-78.21"/>
<polygon fill="midnightblue" stroke="midnightblue" points="162.85,-74.81 152.27,-75.41 160.91,-81.54 162.85,-74.81"/>
</g>
<!-- Node56&#45;&gt;Node11 -->
<g id="edge72" class="edge">
<title>Node56&#45;&gt;Node11</title>
<path fill="none" stroke="midnightblue" d="M357.65,-118C364.59,-115.95 372.05,-113.83 379,-112 447.81,-93.9 468.3,-100.78 535,-76 552.89,-69.35 556.04,-64.75 573,-56 594.03,-45.15 617.98,-33.06 635.73,-24.14"/>
<polygon fill="midnightblue" stroke="midnightblue" points="637.53,-27.16 644.9,-19.54 634.39,-20.9 637.53,-27.16"/>
</g>
<!-- Node56&#45;&gt;Node13 -->
<g id="edge74" class="edge">
<title>Node56&#45;&gt;Node13</title>
<path fill="none" stroke="midnightblue" d="M354.66,-117.98C362.37,-115.65 370.96,-113.38 379,-112 458.26,-98.36 1018.52,-75.28 1182.2,-68.76"/>
<polygon fill="midnightblue" stroke="midnightblue" points="1182.54,-72.25 1192.4,-68.36 1182.27,-65.26 1182.54,-72.25"/>
</g>
<!-- Node56&#45;&gt;Node50 -->
<g id="edge69" class="edge">
<title>Node56&#45;&gt;Node50</title>
<path fill="none" stroke="midnightblue" d="M356,-118C363.38,-115.81 371.45,-113.62 379,-112 408.01,-105.79 601.2,-81.03 679.31,-71.13"/>
<polygon fill="midnightblue" stroke="midnightblue" points="680.06,-74.56 689.54,-69.83 679.18,-67.62 680.06,-74.56"/>
</g>
<!-- Node57 -->
<g id="node36" class="node">
<title>Node57</title>
<g id="a_node36"><a xlink:title=" ">
<polygon fill="none" stroke="#bfbfbf" points="346,-56.5 346,-75.5 390,-75.5 390,-56.5 346,-56.5"/>
<text text-anchor="middle" x="368" y="-63.5" font-family="Helvetica,sans-Serif" font-size="10.00">bitset</text>
</a>
</g>
</g>
<!-- Node56&#45;&gt;Node57 -->
<g id="edge66" class="edge">
<title>Node56&#45;&gt;Node57</title>
<path fill="none" stroke="midnightblue" d="M335.44,-117.98C341.09,-109.14 350.06,-95.09 357.16,-83.98"/>
<polygon fill="midnightblue" stroke="midnightblue" points="360.13,-85.82 362.57,-75.51 354.23,-82.05 360.13,-85.82"/>
</g>
<!-- Node58 -->
<g id="node37" class="node">
<title>Node58</title>
<g id="a_node37"><a xlink:title=" ">
<polygon fill="none" stroke="#bfbfbf" points="408,-56.5 408,-75.5 458,-75.5 458,-56.5 408,-56.5"/>
<text text-anchor="middle" x="433" y="-63.5" font-family="Helvetica,sans-Serif" font-size="10.00">cstdint</text>
</a>
</g>
</g>
<!-- Node56&#45;&gt;Node58 -->
<g id="edge67" class="edge">
<title>Node56&#45;&gt;Node58</title>
<path fill="none" stroke="midnightblue" d="M344.76,-117.98C361.66,-108.21 389.58,-92.08 409.49,-80.58"/>
<polygon fill="midnightblue" stroke="midnightblue" points="411.36,-83.54 418.27,-75.51 407.86,-77.48 411.36,-83.54"/>
</g>
<!-- Node59 -->
<g id="node38" class="node">
<title>Node59</title>
<g id="a_node38"><a xlink:title=" ">
<polygon fill="none" stroke="#bfbfbf" points="476,-56.5 476,-75.5 526,-75.5 526,-56.5 476,-56.5"/>
<text text-anchor="middle" x="501" y="-63.5" font-family="Helvetica,sans-Serif" font-size="10.00">cstring</text>
</a>
</g>
</g>
<!-- Node56&#45;&gt;Node59 -->
<g id="edge68" class="edge">
<title>Node56&#45;&gt;Node59</title>
<path fill="none" stroke="midnightblue" d="M354.5,-117.98C383.96,-107.72 433.58,-90.46 466.8,-78.9"/>
<polygon fill="midnightblue" stroke="midnightblue" points="468.25,-82.1 476.55,-75.51 465.95,-75.49 468.25,-82.1"/>
</g>
<!-- Node60 -->
<g id="node39" class="node">
<title>Node60</title>
<g id="a_node39"><a xlink:title=" ">
<polygon fill="none" stroke="#bfbfbf" points="290.5,-56.5 290.5,-75.5 327.5,-75.5 327.5,-56.5 290.5,-56.5"/>
<text text-anchor="middle" x="309" y="-63.5" font-family="Helvetica,sans-Serif" font-size="10.00">new</text>
</a>
</g>
</g>
<!-- Node56&#45;&gt;Node60 -->
<g id="edge71" class="edge">
<title>Node56&#45;&gt;Node60</title>
<path fill="none" stroke="midnightblue" d="M326.99,-117.98C323.97,-109.4 319.21,-95.93 315.35,-84.98"/>
<polygon fill="midnightblue" stroke="midnightblue" points="318.63,-83.77 312,-75.51 312.03,-86.1 318.63,-83.77"/>
</g>
<!-- Node61 -->
<g id="node40" class="node">
<title>Node61</title>
<g id="a_node40"><a xlink:title=" ">
<polygon fill="none" stroke="#bfbfbf" points="582.5,-56.5 582.5,-75.5 627.5,-75.5 627.5,-56.5 582.5,-56.5"/>
<text text-anchor="middle" x="605" y="-63.5" font-family="Helvetica,sans-Serif" font-size="10.00">utility</text>
</a>
</g>
</g>
<!-- Node56&#45;&gt;Node61 -->
<g id="edge73" class="edge">
<title>Node56&#45;&gt;Node61</title>
<path fill="none" stroke="midnightblue" d="M357.08,-117.96C364.18,-115.87 371.84,-113.74 379,-112 462.1,-91.84 484.43,-94.11 568,-76 569.45,-75.68 570.94,-75.36 572.44,-75.02"/>
<polygon fill="midnightblue" stroke="midnightblue" points="573.4,-78.39 582.34,-72.7 571.81,-71.57 573.4,-78.39"/>
</g>
<!-- Node62&#45;&gt;Node3 -->
<g id="edge78" class="edge">
<title>Node62&#45;&gt;Node3</title>
<path fill="none" stroke="midnightblue" d="M146.13,-117.98C142.2,-109.32 136,-95.65 131.01,-84.65"/>
<polygon fill="midnightblue" stroke="midnightblue" points="134.18,-83.17 126.86,-75.51 127.81,-86.06 134.18,-83.17"/>
</g>
<!-- Node63&#45;&gt;Node11 -->
<g id="edge82" class="edge">
<title>Node63&#45;&gt;Node11</title>
<path fill="none" stroke="midnightblue" d="M667.26,-112.34C666.19,-91.62 664.18,-53.02 662.98,-29.9"/>
<polygon fill="midnightblue" stroke="midnightblue" points="666.46,-29.47 662.45,-19.67 659.47,-29.84 666.46,-29.47"/>
</g>
<!-- Node63&#45;&gt;Node13 -->
<g id="edge84" class="edge">
<title>Node63&#45;&gt;Node13</title>
<path fill="none" stroke="midnightblue" d="M727.69,-114.27C732.52,-113.44 737.34,-112.67 742,-112 903.3,-88.77 1096.59,-75.02 1182.31,-69.63"/>
<polygon fill="midnightblue" stroke="midnightblue" points="1182.69,-73.12 1192.46,-69 1182.26,-66.13 1182.69,-73.12"/>
</g>
<!-- Node63&#45;&gt;Node50 -->
<g id="edge80" class="edge">
<title>Node63&#45;&gt;Node50</title>
<path fill="none" stroke="midnightblue" d="M678.43,-112.4C684.76,-103.84 692.87,-92.87 699.53,-83.86"/>
<polygon fill="midnightblue" stroke="midnightblue" points="702.47,-85.78 705.6,-75.66 696.84,-81.62 702.47,-85.78"/>
</g>
<!-- Node63&#45;&gt;Node54 -->
<g id="edge81" class="edge">
<title>Node63&#45;&gt;Node54</title>
<path fill="none" stroke="midnightblue" d="M697.86,-112.4C718.62,-102.59 746.1,-89.62 766.36,-80.05"/>
<polygon fill="midnightblue" stroke="midnightblue" points="768.12,-83.09 775.67,-75.66 765.13,-76.76 768.12,-83.09"/>
</g>
<!-- Node63&#45;&gt;Node61 -->
<g id="edge83" class="edge">
<title>Node63&#45;&gt;Node61</title>
<path fill="none" stroke="midnightblue" d="M653.07,-112.4C643.63,-103.49 631.42,-91.95 621.67,-82.74"/>
<polygon fill="midnightblue" stroke="midnightblue" points="623.84,-79.98 614.17,-75.66 619.03,-85.07 623.84,-79.98"/>
</g>
<!-- Node64&#45;&gt;Node26 -->
<g id="edge86" class="edge">
<title>Node64&#45;&gt;Node26</title>
<path fill="none" stroke="midnightblue" d="M477.4,-117.94C486.94,-115.78 497.34,-113.61 507,-112 580.25,-99.77 802.21,-78.28 887.81,-70.2"/>
<polygon fill="midnightblue" stroke="midnightblue" points="888.17,-73.68 897.79,-69.26 887.51,-66.71 888.17,-73.68"/>
</g>
<!-- Node64&#45;&gt;Node61 -->
<g id="edge87" class="edge">
<title>Node64&#45;&gt;Node61</title>
<path fill="none" stroke="midnightblue" d="M466.21,-117.98C494.16,-107.71 541.25,-90.41 572.73,-78.85"/>
<polygon fill="midnightblue" stroke="midnightblue" points="574.17,-82.05 582.35,-75.32 571.76,-75.48 574.17,-82.05"/>
</g>
<!-- Node65&#45;&gt;Node26 -->
<g id="edge89" class="edge">
<title>Node65&#45;&gt;Node26</title>
<path fill="none" stroke="midnightblue" d="M712.38,-181.45C768.71,-170.3 877.21,-148.29 884,-143 902.33,-128.73 912.49,-103.25 917.59,-85.76"/>
<polygon fill="midnightblue" stroke="midnightblue" points="921.1,-86.17 920.25,-75.61 914.33,-84.4 921.1,-86.17"/>
</g>
</g>
</svg>
