<?xml version="1.0" encoding="UTF-8" standalone="no"?>
<!DOCTYPE svg PUBLIC "-//W3C//DTD SVG 1.1//EN"
 "http://www.w3.org/Graphics/SVG/1.1/DTD/svg11.dtd">
<!-- Generated by graphviz version 2.43.0 (0)
 -->
<!-- Title: /home/runner/work/cbmc/cbmc/src/goto&#45;programs/xml_expr.cpp Pages: 1 -->
<svg width="1278pt" height="666pt"
 viewBox="0.00 0.00 1278.00 666.00" xmlns="http://www.w3.org/2000/svg" xmlns:xlink="http://www.w3.org/1999/xlink">
<g id="graph0" class="graph" transform="scale(1 1) rotate(0) translate(4 662)">
<title>/home/runner/work/cbmc/cbmc/src/goto&#45;programs/xml_expr.cpp</title>
<!-- Node1 -->
<g id="node1" class="node">
<title>Node1</title>
<g id="a_node1"><a xlink:title="Expressions in XML.">
<polygon fill="#bfbfbf" stroke="black" points="705,-616.5 705,-657.5 843,-657.5 843,-616.5 705,-616.5"/>
<text text-anchor="start" x="713" y="-645.5" font-family="Helvetica,sans-Serif" font-size="10.00">/home/runner/work/cbmc</text>
<text text-anchor="start" x="713" y="-634.5" font-family="Helvetica,sans-Serif" font-size="10.00">/cbmc/src/goto&#45;programs</text>
<text text-anchor="middle" x="774" y="-623.5" font-family="Helvetica,sans-Serif" font-size="10.00">/xml_expr.cpp</text>
</a>
</g>
</g>
<!-- Node2 -->
<g id="node2" class="node">
<title>Node2</title>
<g id="a_node2"><a xlink:href="xml__expr_8h.html" target="_top" xlink:title=" ">
<polygon fill="none" stroke="black" points="1039.5,-560.5 1039.5,-579.5 1110.5,-579.5 1110.5,-560.5 1039.5,-560.5"/>
<text text-anchor="middle" x="1075" y="-567.5" font-family="Helvetica,sans-Serif" font-size="10.00">xml_expr.h</text>
</a>
</g>
</g>
<!-- Node1&#45;&gt;Node2 -->
<g id="edge1" class="edge">
<title>Node1&#45;&gt;Node2</title>
<path fill="none" stroke="midnightblue" d="M843.06,-621.09C900.21,-608.74 979.8,-591.56 1029.31,-580.87"/>
<polygon fill="midnightblue" stroke="midnightblue" points="1030.07,-584.28 1039.1,-578.75 1028.59,-577.44 1030.07,-584.28"/>
</g>
<!-- Node3 -->
<g id="node3" class="node">
<title>Node3</title>
<g id="a_node3"><a xlink:href="xml_8h.html" target="_top" xlink:title=" ">
<polygon fill="none" stroke="black" points="1114.5,-448.5 1114.5,-467.5 1177.5,-467.5 1177.5,-448.5 1114.5,-448.5"/>
<text text-anchor="middle" x="1146" y="-455.5" font-family="Helvetica,sans-Serif" font-size="10.00">util/xml.h</text>
</a>
</g>
</g>
<!-- Node1&#45;&gt;Node3 -->
<g id="edge78" class="edge">
<title>Node1&#45;&gt;Node3</title>
<path fill="none" stroke="midnightblue" d="M843.25,-621.65C881.15,-612.41 928.34,-598.63 968,-580 1031.38,-550.24 1097.34,-499.22 1128.15,-474"/>
<polygon fill="midnightblue" stroke="midnightblue" points="1130.4,-476.69 1135.88,-467.62 1125.94,-471.29 1130.4,-476.69"/>
</g>
<!-- Node8 -->
<g id="node8" class="node">
<title>Node8</title>
<g id="a_node8"><a xlink:href="arith__tools_8h.html" target="_top" xlink:title=" ">
<polygon fill="none" stroke="black" points="0,-504.5 0,-523.5 96,-523.5 96,-504.5 0,-504.5"/>
<text text-anchor="middle" x="48" y="-511.5" font-family="Helvetica,sans-Serif" font-size="10.00">util/arith_tools.h</text>
</a>
</g>
</g>
<!-- Node1&#45;&gt;Node8 -->
<g id="edge7" class="edge">
<title>Node1&#45;&gt;Node8</title>
<path fill="none" stroke="midnightblue" d="M704.79,-636.3C556.6,-635.96 213.69,-629.65 110,-580 88.1,-569.51 69.91,-547.74 59.01,-532.29"/>
<polygon fill="midnightblue" stroke="midnightblue" points="61.68,-529.99 53.2,-523.64 55.87,-533.89 61.68,-529.99"/>
</g>
<!-- Node9 -->
<g id="node9" class="node">
<title>Node9</title>
<g id="a_node9"><a xlink:href="src_2util_2invariant_8h.html" target="_top" xlink:title=" ">
<polygon fill="none" stroke="black" points="96.5,-56.5 96.5,-75.5 165.5,-75.5 165.5,-56.5 96.5,-56.5"/>
<text text-anchor="middle" x="131" y="-63.5" font-family="Helvetica,sans-Serif" font-size="10.00">invariant.h</text>
</a>
</g>
</g>
<!-- Node1&#45;&gt;Node9 -->
<g id="edge72" class="edge">
<title>Node1&#45;&gt;Node9</title>
<path fill="none" stroke="midnightblue" d="M704.81,-623.76C523.59,-589.77 49,-487.33 49,-347 49,-347 49,-347 49,-177 49,-136.27 85.59,-100.87 109.88,-81.86"/>
<polygon fill="midnightblue" stroke="midnightblue" points="112.3,-84.42 118.19,-75.61 108.09,-78.82 112.3,-84.42"/>
</g>
<!-- Node47 -->
<g id="node33" class="node">
<title>Node47</title>
<g id="a_node33"><a xlink:href="c__types_8h.html" target="_top" xlink:title=" ">
<polygon fill="none" stroke="black" points="664,-560.5 664,-579.5 746,-579.5 746,-560.5 664,-560.5"/>
<text text-anchor="middle" x="705" y="-567.5" font-family="Helvetica,sans-Serif" font-size="10.00">util/c_types.h</text>
</a>
</g>
</g>
<!-- Node1&#45;&gt;Node47 -->
<g id="edge51" class="edge">
<title>Node1&#45;&gt;Node47</title>
<path fill="none" stroke="midnightblue" d="M753.3,-616.5C743.13,-606.92 731.04,-595.53 721.5,-586.54"/>
<polygon fill="midnightblue" stroke="midnightblue" points="723.86,-583.96 714.18,-579.65 719.06,-589.06 723.86,-583.96"/>
</g>
<!-- Node48 -->
<g id="node34" class="node">
<title>Node48</title>
<g id="a_node34"><a xlink:href="pointer__expr_8h.html" target="_top" xlink:title="API to expression classes for Pointers.">
<polygon fill="none" stroke="black" points="476,-504.5 476,-523.5 562,-523.5 562,-504.5 476,-504.5"/>
<text text-anchor="middle" x="519" y="-511.5" font-family="Helvetica,sans-Serif" font-size="10.00">pointer_expr.h</text>
</a>
</g>
</g>
<!-- Node1&#45;&gt;Node48 -->
<g id="edge77" class="edge">
<title>Node1&#45;&gt;Node48</title>
<path fill="none" stroke="midnightblue" d="M711.75,-616.38C683.75,-606.72 650.63,-594.11 622,-580 591.9,-565.16 559.54,-543.74 539.28,-529.6"/>
<polygon fill="midnightblue" stroke="midnightblue" points="541.07,-526.58 530.88,-523.67 537.03,-532.3 541.07,-526.58"/>
</g>
<!-- Node50 -->
<g id="node36" class="node">
<title>Node50</title>
<g id="a_node36"><a xlink:href="config_8h.html" target="_top" xlink:title=" ">
<polygon fill="none" stroke="black" points="1003,-448.5 1003,-467.5 1077,-467.5 1077,-448.5 1003,-448.5"/>
<text text-anchor="middle" x="1040" y="-455.5" font-family="Helvetica,sans-Serif" font-size="10.00">util/config.h</text>
</a>
</g>
</g>
<!-- Node1&#45;&gt;Node50 -->
<g id="edge57" class="edge">
<title>Node1&#45;&gt;Node50</title>
<path fill="none" stroke="midnightblue" d="M843.14,-624.26C876.17,-616.05 914.77,-602.39 944,-580 976.1,-555.42 968.29,-535.21 994,-504 1002.59,-493.57 1013.34,-482.95 1022.28,-474.65"/>
<polygon fill="midnightblue" stroke="midnightblue" points="1024.83,-477.06 1029.87,-467.75 1020.12,-471.88 1024.83,-477.06"/>
</g>
<!-- Node51 -->
<g id="node37" class="node">
<title>Node51</title>
<g id="a_node37"><a xlink:href="ieee__float_8h.html" target="_top" xlink:title=" ">
<polygon fill="none" stroke="black" points="938,-392.5 938,-411.5 1012,-411.5 1012,-392.5 938,-392.5"/>
<text text-anchor="middle" x="975" y="-399.5" font-family="Helvetica,sans-Serif" font-size="10.00">ieee_float.h</text>
</a>
</g>
</g>
<!-- Node1&#45;&gt;Node51 -->
<g id="edge71" class="edge">
<title>Node1&#45;&gt;Node51</title>
<path fill="none" stroke="midnightblue" d="M791.14,-616.13C830.14,-570.93 924.91,-461.07 960.86,-419.4"/>
<polygon fill="midnightblue" stroke="midnightblue" points="963.71,-421.44 967.59,-411.59 958.41,-416.87 963.71,-421.44"/>
</g>
<!-- Node53 -->
<g id="node39" class="node">
<title>Node53</title>
<g id="a_node39"><a xlink:href="expr__util_8h.html" target="_top" xlink:title="Deprecated expression utility functions.">
<polygon fill="none" stroke="black" points="620.5,-280.5 620.5,-299.5 707.5,-299.5 707.5,-280.5 620.5,-280.5"/>
<text text-anchor="middle" x="664" y="-287.5" font-family="Helvetica,sans-Serif" font-size="10.00">util/expr_util.h</text>
</a>
</g>
</g>
<!-- Node1&#45;&gt;Node53 -->
<g id="edge65" class="edge">
<title>Node1&#45;&gt;Node53</title>
<path fill="none" stroke="midnightblue" d="M707.49,-616.43C688.28,-607.94 668.8,-596.14 655,-580 635.43,-557.13 636,-545.1 636,-515 636,-515 636,-515 636,-401 636,-367.79 648.13,-330.63 656.43,-309.12"/>
<polygon fill="midnightblue" stroke="midnightblue" points="659.75,-310.23 660.22,-299.65 653.25,-307.63 659.75,-310.23"/>
</g>
<!-- Node54 -->
<g id="node40" class="node">
<title>Node54</title>
<g id="a_node40"><a xlink:href="fixedbv_8h.html" target="_top" xlink:title=" ">
<polygon fill="none" stroke="black" points="840.5,-392.5 840.5,-411.5 919.5,-411.5 919.5,-392.5 840.5,-392.5"/>
<text text-anchor="middle" x="880" y="-399.5" font-family="Helvetica,sans-Serif" font-size="10.00">util/fixedbv.h</text>
</a>
</g>
</g>
<!-- Node1&#45;&gt;Node54 -->
<g id="edge68" class="edge">
<title>Node1&#45;&gt;Node54</title>
<path fill="none" stroke="midnightblue" d="M783.04,-616.13C803.39,-571.4 852.54,-463.36 871.94,-420.73"/>
<polygon fill="midnightblue" stroke="midnightblue" points="875.14,-422.14 876.09,-411.59 868.77,-419.24 875.14,-422.14"/>
</g>
<!-- Node55 -->
<g id="node41" class="node">
<title>Node55</title>
<g id="a_node41"><a xlink:href="namespace_8h.html" target="_top" xlink:title=" ">
<polygon fill="none" stroke="black" points="754.5,-168.5 754.5,-187.5 855.5,-187.5 855.5,-168.5 754.5,-168.5"/>
<text text-anchor="middle" x="805" y="-175.5" font-family="Helvetica,sans-Serif" font-size="10.00">util/namespace.h</text>
</a>
</g>
</g>
<!-- Node1&#45;&gt;Node55 -->
<g id="edge73" class="edge">
<title>Node1&#45;&gt;Node55</title>
<path fill="none" stroke="midnightblue" d="M774,-616.3C774,-592.35 774,-550.71 774,-515 774,-515 774,-515 774,-289 774,-255.41 787.56,-218.14 796.74,-196.75"/>
<polygon fill="midnightblue" stroke="midnightblue" points="799.94,-198.17 800.82,-187.61 793.55,-195.31 799.94,-198.17"/>
</g>
<!-- Node2&#45;&gt;Node3 -->
<g id="edge2" class="edge">
<title>Node2&#45;&gt;Node3</title>
<path fill="none" stroke="midnightblue" d="M1080.57,-560.37C1092.24,-542.3 1119.42,-500.18 1134.83,-476.31"/>
<polygon fill="midnightblue" stroke="midnightblue" points="1137.97,-477.89 1140.45,-467.59 1132.09,-474.1 1137.97,-477.89"/>
</g>
<!-- Node4 -->
<g id="node4" class="node">
<title>Node4</title>
<g id="a_node4"><a xlink:title=" ">
<polygon fill="none" stroke="#bfbfbf" points="1106,-392.5 1106,-411.5 1138,-411.5 1138,-392.5 1106,-392.5"/>
<text text-anchor="middle" x="1122" y="-399.5" font-family="Helvetica,sans-Serif" font-size="10.00">list</text>
</a>
</g>
</g>
<!-- Node3&#45;&gt;Node4 -->
<g id="edge3" class="edge">
<title>Node3&#45;&gt;Node4</title>
<path fill="none" stroke="midnightblue" d="M1142.04,-448.08C1138.79,-440.77 1134.08,-430.18 1130.05,-421.1"/>
<polygon fill="midnightblue" stroke="midnightblue" points="1133.15,-419.47 1125.89,-411.75 1126.75,-422.31 1133.15,-419.47"/>
</g>
<!-- Node5 -->
<g id="node5" class="node">
<title>Node5</title>
<g id="a_node5"><a xlink:title=" ">
<polygon fill="none" stroke="#bfbfbf" points="1232,-392.5 1232,-411.5 1270,-411.5 1270,-392.5 1232,-392.5"/>
<text text-anchor="middle" x="1251" y="-399.5" font-family="Helvetica,sans-Serif" font-size="10.00">map</text>
</a>
</g>
</g>
<!-- Node3&#45;&gt;Node5 -->
<g id="edge4" class="edge">
<title>Node3&#45;&gt;Node5</title>
<path fill="none" stroke="midnightblue" d="M1162.87,-448.32C1179.71,-439.66 1205.81,-426.24 1225.24,-416.25"/>
<polygon fill="midnightblue" stroke="midnightblue" points="1226.88,-419.34 1234.17,-411.65 1223.68,-413.12 1226.88,-419.34"/>
</g>
<!-- Node6 -->
<g id="node6" class="node">
<title>Node6</title>
<g id="a_node6"><a xlink:title=" ">
<polygon fill="none" stroke="#bfbfbf" points="953,-0.5 953,-19.5 997,-19.5 997,-0.5 953,-0.5"/>
<text text-anchor="middle" x="975" y="-7.5" font-family="Helvetica,sans-Serif" font-size="10.00">string</text>
</a>
</g>
</g>
<!-- Node3&#45;&gt;Node6 -->
<g id="edge5" class="edge">
<title>Node3&#45;&gt;Node6</title>
<path fill="none" stroke="midnightblue" d="M1154.31,-448.41C1170.35,-430.89 1204,-389.1 1204,-347 1204,-347 1204,-347 1204,-121 1204,-34.9 1070.85,-16.15 1007.61,-12.1"/>
<polygon fill="midnightblue" stroke="midnightblue" points="1007.55,-8.59 997.37,-11.53 1007.17,-15.58 1007.55,-8.59"/>
</g>
<!-- Node7 -->
<g id="node7" class="node">
<title>Node7</title>
<g id="a_node7"><a xlink:title=" ">
<polygon fill="none" stroke="#bfbfbf" points="966,-280.5 966,-299.5 1014,-299.5 1014,-280.5 966,-280.5"/>
<text text-anchor="middle" x="990" y="-287.5" font-family="Helvetica,sans-Serif" font-size="10.00">iosfwd</text>
</a>
</g>
</g>
<!-- Node3&#45;&gt;Node7 -->
<g id="edge6" class="edge">
<title>Node3&#45;&gt;Node7</title>
<path fill="none" stroke="midnightblue" d="M1148.67,-448.37C1152.18,-435.28 1156.84,-410.03 1147,-392 1120.92,-344.21 1061.46,-315.65 1023.66,-301.66"/>
<polygon fill="midnightblue" stroke="midnightblue" points="1024.68,-298.31 1014.09,-298.25 1022.34,-304.9 1024.68,-298.31"/>
</g>
<!-- Node8&#45;&gt;Node9 -->
<g id="edge8" class="edge">
<title>Node8&#45;&gt;Node9</title>
<path fill="none" stroke="midnightblue" d="M43.01,-504.49C32.91,-486.44 11,-442.69 11,-403 11,-403 11,-403 11,-177 11,-146.2 14.17,-134.68 35,-112 49.21,-96.53 69.83,-85.91 88.31,-78.89"/>
<polygon fill="midnightblue" stroke="midnightblue" points="89.49,-82.19 97.74,-75.54 87.15,-75.59 89.49,-82.19"/>
</g>
<!-- Node13 -->
<g id="node13" class="node">
<title>Node13</title>
<g id="a_node13"><a xlink:href="mp__arith_8h.html" target="_top" xlink:title=" ">
<polygon fill="none" stroke="black" points="802.5,-336.5 802.5,-355.5 871.5,-355.5 871.5,-336.5 802.5,-336.5"/>
<text text-anchor="middle" x="837" y="-343.5" font-family="Helvetica,sans-Serif" font-size="10.00">mp_arith.h</text>
</a>
</g>
</g>
<!-- Node8&#45;&gt;Node13 -->
<g id="edge13" class="edge">
<title>Node8&#45;&gt;Node13</title>
<path fill="none" stroke="midnightblue" d="M96.04,-512.61C181.87,-510.98 366.72,-503.26 518,-468 630.41,-441.8 756.53,-385.37 810.35,-359.92"/>
<polygon fill="midnightblue" stroke="midnightblue" points="812.01,-363 819.54,-355.54 809,-356.68 812.01,-363"/>
</g>
<!-- Node15 -->
<g id="node15" class="node">
<title>Node15</title>
<g id="a_node15"><a xlink:href="std__expr_8h.html" target="_top" xlink:title="API to expression classes.">
<polygon fill="none" stroke="black" points="253.5,-448.5 253.5,-467.5 320.5,-467.5 320.5,-448.5 253.5,-448.5"/>
<text text-anchor="middle" x="287" y="-455.5" font-family="Helvetica,sans-Serif" font-size="10.00">std_expr.h</text>
</a>
</g>
</g>
<!-- Node8&#45;&gt;Node15 -->
<g id="edge17" class="edge">
<title>Node8&#45;&gt;Node15</title>
<path fill="none" stroke="midnightblue" d="M85.87,-504.44C128.7,-494.77 198.33,-479.04 243.39,-468.85"/>
<polygon fill="midnightblue" stroke="midnightblue" points="244.19,-472.26 253.17,-466.64 242.65,-465.43 244.19,-472.26"/>
</g>
<!-- Node46 -->
<g id="node32" class="node">
<title>Node46</title>
<g id="a_node32"><a xlink:title=" ">
<polygon fill="none" stroke="#bfbfbf" points="39,-448.5 39,-467.5 83,-467.5 83,-448.5 39,-448.5"/>
<text text-anchor="middle" x="61" y="-455.5" font-family="Helvetica,sans-Serif" font-size="10.00">limits</text>
</a>
</g>
</g>
<!-- Node8&#45;&gt;Node46 -->
<g id="edge50" class="edge">
<title>Node8&#45;&gt;Node46</title>
<path fill="none" stroke="midnightblue" d="M50.15,-504.08C51.87,-496.93 54.35,-486.64 56.5,-477.69"/>
<polygon fill="midnightblue" stroke="midnightblue" points="59.96,-478.29 58.89,-467.75 53.15,-476.65 59.96,-478.29"/>
</g>
<!-- Node9&#45;&gt;Node6 -->
<g id="edge11" class="edge">
<title>Node9&#45;&gt;Node6</title>
<path fill="none" stroke="midnightblue" d="M165.66,-62.78C303.09,-53.99 808.7,-21.64 942.39,-13.09"/>
<polygon fill="midnightblue" stroke="midnightblue" points="943.01,-16.55 952.77,-12.42 942.57,-9.57 943.01,-16.55"/>
</g>
<!-- Node10 -->
<g id="node10" class="node">
<title>Node10</title>
<g id="a_node10"><a xlink:title=" ">
<polygon fill="none" stroke="#bfbfbf" points="106.5,-0.5 106.5,-19.5 155.5,-19.5 155.5,-0.5 106.5,-0.5"/>
<text text-anchor="middle" x="131" y="-7.5" font-family="Helvetica,sans-Serif" font-size="10.00">cstdlib</text>
</a>
</g>
</g>
<!-- Node9&#45;&gt;Node10 -->
<g id="edge9" class="edge">
<title>Node9&#45;&gt;Node10</title>
<path fill="none" stroke="midnightblue" d="M131,-56.08C131,-49.01 131,-38.86 131,-29.99"/>
<polygon fill="midnightblue" stroke="midnightblue" points="134.5,-29.75 131,-19.75 127.5,-29.75 134.5,-29.75"/>
</g>
<!-- Node11 -->
<g id="node11" class="node">
<title>Node11</title>
<g id="a_node11"><a xlink:title=" ">
<polygon fill="none" stroke="#bfbfbf" points="32,-0.5 32,-19.5 88,-19.5 88,-0.5 32,-0.5"/>
<text text-anchor="middle" x="60" y="-7.5" font-family="Helvetica,sans-Serif" font-size="10.00">sstream</text>
</a>
</g>
</g>
<!-- Node9&#45;&gt;Node11 -->
<g id="edge10" class="edge">
<title>Node9&#45;&gt;Node11</title>
<path fill="none" stroke="midnightblue" d="M119.59,-56.32C108.89,-48.18 92.66,-35.84 79.84,-26.09"/>
<polygon fill="midnightblue" stroke="midnightblue" points="81.69,-23.1 71.61,-19.83 77.46,-28.67 81.69,-23.1"/>
</g>
<!-- Node12 -->
<g id="node12" class="node">
<title>Node12</title>
<g id="a_node12"><a xlink:title=" ">
<polygon fill="none" stroke="#bfbfbf" points="173.5,-0.5 173.5,-19.5 242.5,-19.5 242.5,-0.5 173.5,-0.5"/>
<text text-anchor="middle" x="208" y="-7.5" font-family="Helvetica,sans-Serif" font-size="10.00">type_traits</text>
</a>
</g>
</g>
<!-- Node9&#45;&gt;Node12 -->
<g id="edge12" class="edge">
<title>Node9&#45;&gt;Node12</title>
<path fill="none" stroke="midnightblue" d="M143.37,-56.32C155.16,-48.06 173.13,-35.45 187.14,-25.63"/>
<polygon fill="midnightblue" stroke="midnightblue" points="189.48,-28.26 195.66,-19.65 185.46,-22.53 189.48,-28.26"/>
</g>
<!-- Node13&#45;&gt;Node6 -->
<g id="edge15" class="edge">
<title>Node13&#45;&gt;Node6</title>
<path fill="none" stroke="midnightblue" d="M852.57,-336.34C906.2,-306.26 1080,-206.65 1080,-179 1080,-179 1080,-179 1080,-121 1080,-76.02 1033.49,-42.19 1002.38,-24.59"/>
<polygon fill="midnightblue" stroke="midnightblue" points="1003.75,-21.35 993.29,-19.65 1000.41,-27.5 1003.75,-21.35"/>
</g>
<!-- Node13&#45;&gt;Node7 -->
<g id="edge14" class="edge">
<title>Node13&#45;&gt;Node7</title>
<path fill="none" stroke="midnightblue" d="M861.24,-336.44C886.87,-327.4 927.49,-313.06 956.24,-302.92"/>
<polygon fill="midnightblue" stroke="midnightblue" points="957.61,-306.15 965.87,-299.52 955.28,-299.54 957.61,-306.15"/>
</g>
<!-- Node14 -->
<g id="node14" class="node">
<title>Node14</title>
<g id="a_node14"><a xlink:title=" ">
<polygon fill="none" stroke="#bfbfbf" points="802,-280.5 802,-299.5 896,-299.5 896,-280.5 802,-280.5"/>
<text text-anchor="middle" x="849" y="-287.5" font-family="Helvetica,sans-Serif" font-size="10.00">big&#45;int/bigint.hh</text>
</a>
</g>
</g>
<!-- Node13&#45;&gt;Node14 -->
<g id="edge16" class="edge">
<title>Node13&#45;&gt;Node14</title>
<path fill="none" stroke="midnightblue" d="M838.98,-336.08C840.57,-328.93 842.86,-318.64 844.85,-309.69"/>
<polygon fill="midnightblue" stroke="midnightblue" points="848.3,-310.27 847.06,-299.75 841.47,-308.75 848.3,-310.27"/>
</g>
<!-- Node15&#45;&gt;Node9 -->
<g id="edge42" class="edge">
<title>Node15&#45;&gt;Node9</title>
<path fill="none" stroke="midnightblue" d="M253.07,-453.73C196.01,-446.16 87,-421.9 87,-347 87,-347 87,-347 87,-177 87,-142.04 106.4,-105.01 119.43,-84.07"/>
<polygon fill="midnightblue" stroke="midnightblue" points="122.39,-85.95 124.88,-75.65 116.51,-82.15 122.39,-85.95"/>
</g>
<!-- Node16 -->
<g id="node16" class="node">
<title>Node16</title>
<g id="a_node16"><a xlink:href="expr__cast_8h.html" target="_top" xlink:title="Templated functions to cast to specific exprt&#45;derived classes.">
<polygon fill="none" stroke="black" points="250.5,-336.5 250.5,-355.5 323.5,-355.5 323.5,-336.5 250.5,-336.5"/>
<text text-anchor="middle" x="287" y="-343.5" font-family="Helvetica,sans-Serif" font-size="10.00">expr_cast.h</text>
</a>
</g>
</g>
<!-- Node15&#45;&gt;Node16 -->
<g id="edge18" class="edge">
<title>Node15&#45;&gt;Node16</title>
<path fill="none" stroke="midnightblue" d="M287,-448.37C287,-430.62 287,-389.67 287,-365.6"/>
<polygon fill="midnightblue" stroke="midnightblue" points="290.5,-365.59 287,-355.59 283.5,-365.59 290.5,-365.59"/>
</g>
<!-- Node45 -->
<g id="node30" class="node">
<title>Node45</title>
<g id="a_node30"><a xlink:href="std__types_8h.html" target="_top" xlink:title="Pre&#45;defined types.">
<polygon fill="none" stroke="black" points="399.5,-392.5 399.5,-411.5 472.5,-411.5 472.5,-392.5 399.5,-392.5"/>
<text text-anchor="middle" x="436" y="-399.5" font-family="Helvetica,sans-Serif" font-size="10.00">std_types.h</text>
</a>
</g>
</g>
<!-- Node15&#45;&gt;Node45 -->
<g id="edge43" class="edge">
<title>Node15&#45;&gt;Node45</title>
<path fill="none" stroke="midnightblue" d="M310.61,-448.44C335.46,-439.44 374.77,-425.19 402.75,-415.05"/>
<polygon fill="midnightblue" stroke="midnightblue" points="404.29,-418.21 412.5,-411.52 401.91,-411.63 404.29,-418.21"/>
</g>
<!-- Node16&#45;&gt;Node9 -->
<g id="edge22" class="edge">
<title>Node16&#45;&gt;Node9</title>
<path fill="none" stroke="midnightblue" d="M250.45,-337.7C227.78,-331.37 199.69,-319.96 182,-300 162.04,-277.47 163,-265.1 163,-235 163,-235 163,-235 163,-177 163,-143.33 149.01,-106.08 139.53,-84.72"/>
<polygon fill="midnightblue" stroke="midnightblue" points="142.68,-83.21 135.32,-75.59 136.33,-86.14 142.68,-83.21"/>
</g>
<!-- Node16&#45;&gt;Node12 -->
<g id="edge20" class="edge">
<title>Node16&#45;&gt;Node12</title>
<path fill="none" stroke="midnightblue" d="M284.2,-336.48C279.72,-323.53 270.06,-298.47 257,-280 243.75,-261.27 231.83,-263.66 220,-244 204.48,-218.21 201,-209.1 201,-179 201,-179 201,-179 201,-121 201,-88.88 204.01,-51.6 206.08,-29.73"/>
<polygon fill="midnightblue" stroke="midnightblue" points="209.59,-29.84 207.08,-19.55 202.62,-29.15 209.59,-29.84"/>
</g>
<!-- Node17 -->
<g id="node17" class="node">
<title>Node17</title>
<g id="a_node17"><a xlink:title=" ">
<polygon fill="none" stroke="#bfbfbf" points="191.5,-280.5 191.5,-299.5 248.5,-299.5 248.5,-280.5 191.5,-280.5"/>
<text text-anchor="middle" x="220" y="-287.5" font-family="Helvetica,sans-Serif" font-size="10.00">typeinfo</text>
</a>
</g>
</g>
<!-- Node16&#45;&gt;Node17 -->
<g id="edge19" class="edge">
<title>Node16&#45;&gt;Node17</title>
<path fill="none" stroke="midnightblue" d="M276.24,-336.32C266.23,-328.26 251.11,-316.08 239.07,-306.37"/>
<polygon fill="midnightblue" stroke="midnightblue" points="240.94,-303.38 230.96,-299.83 236.55,-308.83 240.94,-303.38"/>
</g>
<!-- Node18 -->
<g id="node18" class="node">
<title>Node18</title>
<g id="a_node18"><a xlink:title=" ">
<polygon fill="none" stroke="#bfbfbf" points="604.5,-224.5 604.5,-243.5 669.5,-243.5 669.5,-224.5 604.5,-224.5"/>
<text text-anchor="middle" x="637" y="-231.5" font-family="Helvetica,sans-Serif" font-size="10.00">functional</text>
</a>
</g>
</g>
<!-- Node16&#45;&gt;Node18 -->
<g id="edge21" class="edge">
<title>Node16&#45;&gt;Node18</title>
<path fill="none" stroke="midnightblue" d="M323.65,-338.6C376.64,-329.15 471.92,-311.35 505,-300 544.64,-286.4 587.68,-263.54 613.48,-248.87"/>
<polygon fill="midnightblue" stroke="midnightblue" points="615.57,-251.71 622.49,-243.69 612.07,-245.64 615.57,-251.71"/>
</g>
<!-- Node19 -->
<g id="node19" class="node">
<title>Node19</title>
<g id="a_node19"><a xlink:href="expr_8h.html" target="_top" xlink:title=" ">
<polygon fill="none" stroke="black" points="449.5,-280.5 449.5,-299.5 496.5,-299.5 496.5,-280.5 449.5,-280.5"/>
<text text-anchor="middle" x="473" y="-287.5" font-family="Helvetica,sans-Serif" font-size="10.00">expr.h</text>
</a>
</g>
</g>
<!-- Node16&#45;&gt;Node19 -->
<g id="edge23" class="edge">
<title>Node16&#45;&gt;Node19</title>
<path fill="none" stroke="midnightblue" d="M316.47,-336.44C349.94,-326.73 404.44,-310.9 439.5,-300.73"/>
<polygon fill="midnightblue" stroke="midnightblue" points="440.64,-304.04 449.27,-297.89 438.69,-297.32 440.64,-304.04"/>
</g>
<!-- Node19&#45;&gt;Node18 -->
<g id="edge41" class="edge">
<title>Node19&#45;&gt;Node18</title>
<path fill="none" stroke="midnightblue" d="M496.85,-281.15C524.26,-272.12 569.55,-257.21 601.2,-246.79"/>
<polygon fill="midnightblue" stroke="midnightblue" points="602.55,-250.03 610.96,-243.58 600.36,-243.38 602.55,-250.03"/>
</g>
<!-- Node20 -->
<g id="node20" class="node">
<title>Node20</title>
<g id="a_node20"><a xlink:href="as__const_8h.html" target="_top" xlink:title=" ">
<polygon fill="none" stroke="black" points="229,-224.5 229,-243.5 297,-243.5 297,-224.5 229,-224.5"/>
<text text-anchor="middle" x="263" y="-231.5" font-family="Helvetica,sans-Serif" font-size="10.00">as_const.h</text>
</a>
</g>
</g>
<!-- Node19&#45;&gt;Node20 -->
<g id="edge24" class="edge">
<title>Node19&#45;&gt;Node20</title>
<path fill="none" stroke="midnightblue" d="M449.32,-282.91C414.59,-273.98 349.27,-257.18 305.95,-246.04"/>
<polygon fill="midnightblue" stroke="midnightblue" points="306.8,-242.65 296.25,-243.55 305.06,-249.43 306.8,-242.65"/>
</g>
<!-- Node21 -->
<g id="node21" class="node">
<title>Node21</title>
<g id="a_node21"><a xlink:href="type_8h.html" target="_top" xlink:title="Defines typet, type_with_subtypet and type_with_subtypest.">
<polygon fill="none" stroke="black" points="539.5,-224.5 539.5,-243.5 586.5,-243.5 586.5,-224.5 539.5,-224.5"/>
<text text-anchor="middle" x="563" y="-231.5" font-family="Helvetica,sans-Serif" font-size="10.00">type.h</text>
</a>
</g>
</g>
<!-- Node19&#45;&gt;Node21 -->
<g id="edge25" class="edge">
<title>Node19&#45;&gt;Node21</title>
<path fill="none" stroke="midnightblue" d="M487.46,-280.32C501.5,-271.9 523.05,-258.97 539.54,-249.07"/>
<polygon fill="midnightblue" stroke="midnightblue" points="541.8,-251.8 548.58,-243.65 538.2,-245.8 541.8,-251.8"/>
</g>
<!-- Node42 -->
<g id="node27" class="node">
<title>Node42</title>
<g id="a_node27"><a xlink:href="validation__mode_8h.html" target="_top" xlink:title=" ">
<polygon fill="none" stroke="black" points="491.5,-112.5 491.5,-131.5 598.5,-131.5 598.5,-112.5 491.5,-112.5"/>
<text text-anchor="middle" x="545" y="-119.5" font-family="Helvetica,sans-Serif" font-size="10.00">validation_mode.h</text>
</a>
</g>
</g>
<!-- Node19&#45;&gt;Node42 -->
<g id="edge40" class="edge">
<title>Node19&#45;&gt;Node42</title>
<path fill="none" stroke="midnightblue" d="M469.84,-280.35C462.77,-259.43 447.87,-205.07 469,-168 477.41,-153.25 492.77,-142.84 507.48,-135.77"/>
<polygon fill="midnightblue" stroke="midnightblue" points="509.24,-138.83 516.98,-131.6 506.42,-132.42 509.24,-138.83"/>
</g>
<!-- Node43 -->
<g id="node28" class="node">
<title>Node43</title>
<g id="a_node28"><a xlink:href="validate__types_8h.html" target="_top" xlink:title=" ">
<polygon fill="none" stroke="black" points="478,-168.5 478,-187.5 576,-187.5 576,-168.5 478,-168.5"/>
<text text-anchor="middle" x="527" y="-175.5" font-family="Helvetica,sans-Serif" font-size="10.00">validate_types.h</text>
</a>
</g>
</g>
<!-- Node19&#45;&gt;Node43 -->
<g id="edge39" class="edge">
<title>Node19&#45;&gt;Node43</title>
<path fill="none" stroke="midnightblue" d="M477.24,-280.37C486.07,-262.38 506.6,-220.55 518.35,-196.63"/>
<polygon fill="midnightblue" stroke="midnightblue" points="521.52,-198.11 522.78,-187.59 515.23,-195.03 521.52,-198.11"/>
</g>
<!-- Node44 -->
<g id="node29" class="node">
<title>Node44</title>
<g id="a_node29"><a xlink:href="validate__expressions_8h.html" target="_top" xlink:title=" ">
<polygon fill="none" stroke="black" points="315.5,-224.5 315.5,-243.5 444.5,-243.5 444.5,-224.5 315.5,-224.5"/>
<text text-anchor="middle" x="380" y="-231.5" font-family="Helvetica,sans-Serif" font-size="10.00">validate_expressions.h</text>
</a>
</g>
</g>
<!-- Node19&#45;&gt;Node44 -->
<g id="edge38" class="edge">
<title>Node19&#45;&gt;Node44</title>
<path fill="none" stroke="midnightblue" d="M458.06,-280.32C443.41,-271.82 420.87,-258.73 403.76,-248.8"/>
<polygon fill="midnightblue" stroke="midnightblue" points="405.31,-245.65 394.9,-243.65 401.8,-251.7 405.31,-245.65"/>
</g>
<!-- Node22 -->
<g id="node22" class="node">
<title>Node22</title>
<g id="a_node22"><a xlink:href="source__location_8h.html" target="_top" xlink:title=" ">
<polygon fill="none" stroke="black" points="874,-168.5 874,-187.5 976,-187.5 976,-168.5 874,-168.5"/>
<text text-anchor="middle" x="925" y="-175.5" font-family="Helvetica,sans-Serif" font-size="10.00">source_location.h</text>
</a>
</g>
</g>
<!-- Node21&#45;&gt;Node22 -->
<g id="edge26" class="edge">
<title>Node21&#45;&gt;Node22</title>
<path fill="none" stroke="midnightblue" d="M586.67,-225.94C589.47,-225.23 592.29,-224.56 595,-224 710.02,-200.25 742.84,-204.55 863.73,-188"/>
<polygon fill="midnightblue" stroke="midnightblue" points="864.33,-191.45 873.75,-186.61 863.37,-184.52 864.33,-191.45"/>
</g>
<!-- Node40 -->
<g id="node26" class="node">
<title>Node40</title>
<g id="a_node26"><a xlink:href="validate_8h.html" target="_top" xlink:title=" ">
<polygon fill="none" stroke="red" points="632.5,-168.5 632.5,-187.5 697.5,-187.5 697.5,-168.5 632.5,-168.5"/>
<text text-anchor="middle" x="665" y="-175.5" font-family="Helvetica,sans-Serif" font-size="10.00">validate.h</text>
</a>
</g>
</g>
<!-- Node21&#45;&gt;Node40 -->
<g id="edge33" class="edge">
<title>Node21&#45;&gt;Node40</title>
<path fill="none" stroke="midnightblue" d="M579.39,-224.32C595.67,-215.7 620.87,-202.36 639.72,-192.39"/>
<polygon fill="midnightblue" stroke="midnightblue" points="641.45,-195.43 648.65,-187.65 638.18,-189.24 641.45,-195.43"/>
</g>
<!-- Node21&#45;&gt;Node42 -->
<g id="edge37" class="edge">
<title>Node21&#45;&gt;Node42</title>
<path fill="none" stroke="midnightblue" d="M569.98,-224.09C578.96,-211.5 592.54,-187.82 585,-168 580.66,-156.6 571.97,-146.24 563.79,-138.34"/>
<polygon fill="midnightblue" stroke="midnightblue" points="566.04,-135.66 556.27,-131.57 561.36,-140.86 566.04,-135.66"/>
</g>
<!-- Node21&#45;&gt;Node43 -->
<g id="edge36" class="edge">
<title>Node21&#45;&gt;Node43</title>
<path fill="none" stroke="midnightblue" d="M557.06,-224.08C552.02,-216.53 544.66,-205.49 538.49,-196.23"/>
<polygon fill="midnightblue" stroke="midnightblue" points="541.29,-194.13 532.83,-187.75 535.47,-198.01 541.29,-194.13"/>
</g>
<!-- Node22&#45;&gt;Node6 -->
<g id="edge32" class="edge">
<title>Node22&#45;&gt;Node6</title>
<path fill="none" stroke="midnightblue" d="M927.54,-168.16C931.15,-155.64 937.99,-132.05 944,-112 952.66,-83.09 962.99,-49.62 969.27,-29.4"/>
<polygon fill="midnightblue" stroke="midnightblue" points="972.68,-30.22 972.31,-19.63 966,-28.15 972.68,-30.22"/>
</g>
<!-- Node23 -->
<g id="node23" class="node">
<title>Node23</title>
<g id="a_node23"><a xlink:href="deprecate_8h.html" target="_top" xlink:title=" ">
<polygon fill="none" stroke="black" points="768,-112.5 768,-131.5 842,-131.5 842,-112.5 768,-112.5"/>
<text text-anchor="middle" x="805" y="-119.5" font-family="Helvetica,sans-Serif" font-size="10.00">deprecate.h</text>
</a>
</g>
</g>
<!-- Node22&#45;&gt;Node23 -->
<g id="edge27" class="edge">
<title>Node22&#45;&gt;Node23</title>
<path fill="none" stroke="midnightblue" d="M905.99,-168.44C886.41,-159.64 855.69,-145.81 833.27,-135.72"/>
<polygon fill="midnightblue" stroke="midnightblue" points="834.48,-132.43 823.93,-131.52 831.61,-138.81 834.48,-132.43"/>
</g>
<!-- Node24 -->
<g id="node24" class="node">
<title>Node24</title>
<g id="a_node24"><a xlink:href="irep_8h.html" target="_top" xlink:title=" ">
<polygon fill="none" stroke="red" points="953,-112.5 953,-131.5 997,-131.5 997,-112.5 953,-112.5"/>
<text text-anchor="middle" x="975" y="-119.5" font-family="Helvetica,sans-Serif" font-size="10.00">irep.h</text>
</a>
</g>
</g>
<!-- Node22&#45;&gt;Node24 -->
<g id="edge28" class="edge">
<title>Node22&#45;&gt;Node24</title>
<path fill="none" stroke="midnightblue" d="M933.26,-168.08C940.46,-160.3 951.11,-148.8 959.85,-139.37"/>
<polygon fill="midnightblue" stroke="midnightblue" points="962.67,-141.47 966.9,-131.75 957.53,-136.71 962.67,-141.47"/>
</g>
<!-- Node39 -->
<g id="node25" class="node">
<title>Node39</title>
<g id="a_node25"><a xlink:title=" ">
<polygon fill="none" stroke="#bfbfbf" points="1108,-112.5 1108,-131.5 1164,-131.5 1164,-112.5 1108,-112.5"/>
<text text-anchor="middle" x="1136" y="-119.5" font-family="Helvetica,sans-Serif" font-size="10.00">optional</text>
</a>
</g>
</g>
<!-- Node22&#45;&gt;Node39 -->
<g id="edge31" class="edge">
<title>Node22&#45;&gt;Node39</title>
<path fill="none" stroke="midnightblue" d="M958.43,-168.44C996.38,-158.73 1058.16,-142.92 1097.93,-132.74"/>
<polygon fill="midnightblue" stroke="midnightblue" points="1098.97,-136.09 1107.79,-130.22 1097.23,-129.31 1098.97,-136.09"/>
</g>
<!-- Node24&#45;&gt;Node6 -->
<g id="edge29" class="edge">
<title>Node24&#45;&gt;Node6</title>
<path fill="none" stroke="midnightblue" d="M975,-112.37C975,-94.62 975,-53.67 975,-29.6"/>
<polygon fill="midnightblue" stroke="midnightblue" points="978.5,-29.59 975,-19.59 971.5,-29.59 978.5,-29.59"/>
</g>
<!-- Node24&#45;&gt;Node9 -->
<g id="edge30" class="edge">
<title>Node24&#45;&gt;Node9</title>
<path fill="none" stroke="midnightblue" d="M952.6,-119.31C927.77,-117.44 886.53,-114.4 851,-112 595.62,-94.75 289.12,-76.36 175.88,-69.65"/>
<polygon fill="midnightblue" stroke="midnightblue" points="176.04,-66.15 165.85,-69.05 175.62,-73.14 176.04,-66.15"/>
</g>
<!-- Node40&#45;&gt;Node12 -->
<g id="edge34" class="edge">
<title>Node40&#45;&gt;Node12</title>
<path fill="none" stroke="midnightblue" d="M659.76,-168.35C650.77,-154.29 631.05,-126.59 607,-112 492.04,-42.29 330.53,-20.49 253,-13.83"/>
<polygon fill="midnightblue" stroke="midnightblue" points="252.88,-10.31 242.63,-12.99 252.31,-17.29 252.88,-10.31"/>
</g>
<!-- Node40&#45;&gt;Node42 -->
<g id="edge35" class="edge">
<title>Node40&#45;&gt;Node42</title>
<path fill="none" stroke="midnightblue" d="M645.99,-168.44C626.41,-159.64 595.69,-145.81 573.27,-135.72"/>
<polygon fill="midnightblue" stroke="midnightblue" points="574.48,-132.43 563.93,-131.52 571.61,-138.81 574.48,-132.43"/>
</g>
<!-- Node45&#45;&gt;Node9 -->
<g id="edge46" class="edge">
<title>Node45&#45;&gt;Node9</title>
<path fill="none" stroke="midnightblue" d="M399.41,-395.97C317.2,-383.63 125,-348.63 125,-291 125,-291 125,-291 125,-177 125,-144.9 127.58,-107.61 129.36,-85.73"/>
<polygon fill="midnightblue" stroke="midnightblue" points="132.86,-85.81 130.22,-75.55 125.89,-85.22 132.86,-85.81"/>
</g>
<!-- Node45&#45;&gt;Node13 -->
<g id="edge47" class="edge">
<title>Node45&#45;&gt;Node13</title>
<path fill="none" stroke="midnightblue" d="M472.65,-396.06C546.29,-386.15 712.01,-363.83 792.05,-353.05"/>
<polygon fill="midnightblue" stroke="midnightblue" points="792.86,-356.48 802.3,-351.67 791.92,-349.54 792.86,-356.48"/>
</g>
<!-- Node45&#45;&gt;Node16 -->
<g id="edge45" class="edge">
<title>Node45&#45;&gt;Node16</title>
<path fill="none" stroke="midnightblue" d="M412.39,-392.44C387.54,-383.44 348.23,-369.19 320.25,-359.05"/>
<polygon fill="midnightblue" stroke="midnightblue" points="321.09,-355.63 310.5,-355.52 318.71,-362.21 321.09,-355.63"/>
</g>
<!-- Node45&#45;&gt;Node19 -->
<g id="edge44" class="edge">
<title>Node45&#45;&gt;Node19</title>
<path fill="none" stroke="midnightblue" d="M439.42,-392.43C442.97,-383.42 448.62,-368.8 453,-356 458.32,-340.47 463.76,-322.63 467.62,-309.57"/>
<polygon fill="midnightblue" stroke="midnightblue" points="471.01,-310.47 470.46,-299.89 464.29,-308.5 471.01,-310.47"/>
</g>
<!-- Node45&#45;&gt;Node40 -->
<g id="edge48" class="edge">
<title>Node45&#45;&gt;Node40</title>
<path fill="none" stroke="midnightblue" d="M447.58,-392.32C475.19,-371.76 547.35,-318.94 611,-280 639.84,-262.36 660.65,-273.01 678,-244 686.65,-229.53 681.15,-210.35 674.86,-196.57"/>
<polygon fill="midnightblue" stroke="midnightblue" points="677.97,-194.98 670.33,-187.65 671.73,-198.15 677.97,-194.98"/>
</g>
<!-- Node31 -->
<g id="node31" class="node">
<title>Node31</title>
<g id="a_node31"><a xlink:title=" ">
<polygon fill="none" stroke="#bfbfbf" points="351.5,-336.5 351.5,-355.5 444.5,-355.5 444.5,-336.5 351.5,-336.5"/>
<text text-anchor="middle" x="398" y="-343.5" font-family="Helvetica,sans-Serif" font-size="10.00">unordered_map</text>
</a>
</g>
</g>
<!-- Node45&#45;&gt;Node31 -->
<g id="edge49" class="edge">
<title>Node45&#45;&gt;Node31</title>
<path fill="none" stroke="midnightblue" d="M429.73,-392.08C424.36,-384.46 416.48,-373.26 409.92,-363.94"/>
<polygon fill="midnightblue" stroke="midnightblue" points="412.78,-361.91 404.16,-355.75 407.05,-365.94 412.78,-361.91"/>
</g>
<!-- Node47&#45;&gt;Node23 -->
<g id="edge52" class="edge">
<title>Node47&#45;&gt;Node23</title>
<path fill="none" stroke="midnightblue" d="M709.18,-560.39C717.64,-542.16 736,-498.09 736,-459 736,-459 736,-459 736,-289 736,-235.07 719.11,-215.3 745,-168 752.27,-154.71 765.33,-144.21 777.41,-136.7"/>
<polygon fill="midnightblue" stroke="midnightblue" points="779.43,-139.58 786.34,-131.55 775.93,-133.51 779.43,-139.58"/>
</g>
<!-- Node47&#45;&gt;Node48 -->
<g id="edge53" class="edge">
<title>Node47&#45;&gt;Node48</title>
<path fill="none" stroke="midnightblue" d="M675.53,-560.44C643.83,-551.24 593.27,-536.56 558.23,-526.39"/>
<polygon fill="midnightblue" stroke="midnightblue" points="558.91,-522.94 548.33,-523.52 556.96,-529.67 558.91,-522.94"/>
</g>
<!-- Node48&#45;&gt;Node15 -->
<g id="edge56" class="edge">
<title>Node48&#45;&gt;Node15</title>
<path fill="none" stroke="midnightblue" d="M482.24,-504.44C440.99,-494.84 374.13,-479.28 330.36,-469.09"/>
<polygon fill="midnightblue" stroke="midnightblue" points="331.11,-465.67 320.58,-466.82 329.52,-472.49 331.11,-465.67"/>
</g>
<!-- Node49 -->
<g id="node35" class="node">
<title>Node49</title>
<g id="a_node35"><a xlink:href="bitvector__types_8h.html" target="_top" xlink:title="Pre&#45;defined bitvector types.">
<polygon fill="none" stroke="black" points="408.5,-448.5 408.5,-467.5 509.5,-467.5 509.5,-448.5 408.5,-448.5"/>
<text text-anchor="middle" x="459" y="-455.5" font-family="Helvetica,sans-Serif" font-size="10.00">bitvector_types.h</text>
</a>
</g>
</g>
<!-- Node48&#45;&gt;Node49 -->
<g id="edge54" class="edge">
<title>Node48&#45;&gt;Node49</title>
<path fill="none" stroke="midnightblue" d="M509.36,-504.32C500.49,-496.34 487.13,-484.31 476.39,-474.65"/>
<polygon fill="midnightblue" stroke="midnightblue" points="478.59,-471.92 468.82,-467.83 473.91,-477.13 478.59,-471.92"/>
</g>
<!-- Node49&#45;&gt;Node45 -->
<g id="edge55" class="edge">
<title>Node49&#45;&gt;Node45</title>
<path fill="none" stroke="midnightblue" d="M455.2,-448.08C452.09,-440.77 447.58,-430.18 443.71,-421.1"/>
<polygon fill="midnightblue" stroke="midnightblue" points="446.87,-419.58 439.73,-411.75 440.43,-422.32 446.87,-419.58"/>
</g>
<!-- Node50&#45;&gt;Node4 -->
<g id="edge63" class="edge">
<title>Node50&#45;&gt;Node4</title>
<path fill="none" stroke="midnightblue" d="M1053.17,-448.32C1065.85,-439.98 1085.23,-427.21 1100.21,-417.35"/>
<polygon fill="midnightblue" stroke="midnightblue" points="1102.43,-420.08 1108.86,-411.65 1098.58,-414.23 1102.43,-420.08"/>
</g>
<!-- Node50&#45;&gt;Node24 -->
<g id="edge62" class="edge">
<title>Node50&#45;&gt;Node24</title>
<path fill="none" stroke="midnightblue" d="M1040.18,-448.36C1040.67,-423.76 1042,-351.24 1042,-291 1042,-291 1042,-291 1042,-233 1042,-194.7 1012.01,-158.42 992.16,-138.59"/>
<polygon fill="midnightblue" stroke="midnightblue" points="994.52,-136 984.89,-131.6 989.67,-141.05 994.52,-136"/>
</g>
<!-- Node50&#45;&gt;Node39 -->
<g id="edge64" class="edge">
<title>Node50&#45;&gt;Node39</title>
<path fill="none" stroke="midnightblue" d="M1048.34,-448.49C1070.12,-425.32 1127,-358.35 1127,-291 1127,-291 1127,-291 1127,-233 1127,-200.84 1130.87,-163.57 1133.53,-141.71"/>
<polygon fill="midnightblue" stroke="midnightblue" points="1137.04,-141.9 1134.82,-131.54 1130.09,-141.02 1137.04,-141.9"/>
</g>
<!-- Node50&#45;&gt;Node51 -->
<g id="edge58" class="edge">
<title>Node50&#45;&gt;Node51</title>
<path fill="none" stroke="midnightblue" d="M1029.56,-448.32C1019.85,-440.26 1005.18,-428.08 993.5,-418.37"/>
<polygon fill="midnightblue" stroke="midnightblue" points="995.56,-415.53 985.63,-411.83 991.09,-420.92 995.56,-415.53"/>
</g>
<!-- Node51&#45;&gt;Node7 -->
<g id="edge59" class="edge">
<title>Node51&#45;&gt;Node7</title>
<path fill="none" stroke="midnightblue" d="M977.28,-392.44C979.59,-383.44 983.09,-368.82 985,-356 987.29,-340.59 988.57,-322.95 989.25,-309.95"/>
<polygon fill="midnightblue" stroke="midnightblue" points="992.75,-310.03 989.72,-299.88 985.76,-309.7 992.75,-310.03"/>
</g>
<!-- Node51&#45;&gt;Node13 -->
<g id="edge60" class="edge">
<title>Node51&#45;&gt;Node13</title>
<path fill="none" stroke="midnightblue" d="M953.13,-392.44C930.22,-383.48 894.02,-369.31 868.13,-359.18"/>
<polygon fill="midnightblue" stroke="midnightblue" points="869.35,-355.9 858.76,-355.52 866.8,-362.42 869.35,-355.9"/>
</g>
<!-- Node52 -->
<g id="node38" class="node">
<title>Node52</title>
<g id="a_node38"><a xlink:href="format__spec_8h.html" target="_top" xlink:title=" ">
<polygon fill="none" stroke="black" points="890,-336.5 890,-355.5 976,-355.5 976,-336.5 890,-336.5"/>
<text text-anchor="middle" x="933" y="-343.5" font-family="Helvetica,sans-Serif" font-size="10.00">format_spec.h</text>
</a>
</g>
</g>
<!-- Node51&#45;&gt;Node52 -->
<g id="edge61" class="edge">
<title>Node51&#45;&gt;Node52</title>
<path fill="none" stroke="midnightblue" d="M968.06,-392.08C962.07,-384.38 953.25,-373.03 945.95,-363.65"/>
<polygon fill="midnightblue" stroke="midnightblue" points="948.71,-361.5 939.81,-355.75 943.18,-365.79 948.71,-361.5"/>
</g>
<!-- Node53&#45;&gt;Node18 -->
<g id="edge67" class="edge">
<title>Node53&#45;&gt;Node18</title>
<path fill="none" stroke="midnightblue" d="M659.54,-280.08C655.85,-272.69 650.48,-261.95 645.91,-252.81"/>
<polygon fill="midnightblue" stroke="midnightblue" points="648.98,-251.13 641.38,-243.75 642.72,-254.26 648.98,-251.13"/>
</g>
<!-- Node53&#45;&gt;Node24 -->
<g id="edge66" class="edge">
<title>Node53&#45;&gt;Node24</title>
<path fill="none" stroke="midnightblue" d="M707.62,-281.75C787.42,-267.51 951.78,-233.28 985,-188 995,-174.37 990.09,-154.76 984.17,-140.65"/>
<polygon fill="midnightblue" stroke="midnightblue" points="987.29,-139.08 979.88,-131.51 980.96,-142.05 987.29,-139.08"/>
</g>
<!-- Node54&#45;&gt;Node13 -->
<g id="edge69" class="edge">
<title>Node54&#45;&gt;Node13</title>
<path fill="none" stroke="midnightblue" d="M872.9,-392.08C866.76,-384.38 857.73,-373.03 850.26,-363.65"/>
<polygon fill="midnightblue" stroke="midnightblue" points="852.94,-361.39 843.97,-355.75 847.46,-365.75 852.94,-361.39"/>
</g>
<!-- Node54&#45;&gt;Node52 -->
<g id="edge70" class="edge">
<title>Node54&#45;&gt;Node52</title>
<path fill="none" stroke="midnightblue" d="M888.75,-392.08C896.47,-384.22 907.9,-372.57 917.22,-363.08"/>
<polygon fill="midnightblue" stroke="midnightblue" points="919.9,-365.34 924.41,-355.75 914.91,-360.44 919.9,-365.34"/>
</g>
<!-- Node55&#45;&gt;Node9 -->
<g id="edge75" class="edge">
<title>Node55&#45;&gt;Node9</title>
<path fill="none" stroke="midnightblue" d="M784.04,-168.39C748.35,-154.13 673.23,-125.82 607,-112 450.8,-79.4 260.78,-70.39 175.81,-67.92"/>
<polygon fill="midnightblue" stroke="midnightblue" points="175.83,-64.42 165.74,-67.64 175.64,-71.41 175.83,-64.42"/>
</g>
<!-- Node55&#45;&gt;Node23 -->
<g id="edge74" class="edge">
<title>Node55&#45;&gt;Node23</title>
<path fill="none" stroke="midnightblue" d="M805,-168.08C805,-161.01 805,-150.86 805,-141.99"/>
<polygon fill="midnightblue" stroke="midnightblue" points="808.5,-141.75 805,-131.75 801.5,-141.75 808.5,-141.75"/>
</g>
<!-- Node55&#45;&gt;Node24 -->
<g id="edge76" class="edge">
<title>Node55&#45;&gt;Node24</title>
<path fill="none" stroke="midnightblue" d="M831.94,-168.44C862.1,-158.86 910.94,-143.35 943.01,-133.16"/>
<polygon fill="midnightblue" stroke="midnightblue" points="944.32,-136.42 952.79,-130.05 942.2,-129.75 944.32,-136.42"/>
</g>
</g>
</svg>
