<?xml version="1.0" encoding="UTF-8" standalone="no"?>
<!DOCTYPE svg PUBLIC "-//W3C//DTD SVG 1.1//EN"
 "http://www.w3.org/Graphics/SVG/1.1/DTD/svg11.dtd">
<!-- Generated by graphviz version 2.43.0 (0)
 -->
<!-- Title: /home/runner/work/cbmc/cbmc/src/util/xml_irep.cpp Pages: 1 -->
<svg width="1150pt" height="431pt"
 viewBox="0.00 0.00 1150.00 431.00" xmlns="http://www.w3.org/2000/svg" xmlns:xlink="http://www.w3.org/1999/xlink">
<g id="graph0" class="graph" transform="scale(1 1) rotate(0) translate(4 427)">
<title>/home/runner/work/cbmc/cbmc/src/util/xml_irep.cpp</title>
<!-- Node1 -->
<g id="node1" class="node">
<title>Node1</title>
<g id="a_node1"><a xlink:title=" ">
<polygon fill="#bfbfbf" stroke="black" points="744,-392.5 744,-422.5 892,-422.5 892,-392.5 744,-392.5"/>
<text text-anchor="start" x="752" y="-410.5" font-family="Helvetica,sans-Serif" font-size="10.00">/home/runner/work/cbmc</text>
<text text-anchor="middle" x="818" y="-399.5" font-family="Helvetica,sans-Serif" font-size="10.00">/cbmc/src/util/xml_irep.cpp</text>
</a>
</g>
</g>
<!-- Node2 -->
<g id="node2" class="node">
<title>Node2</title>
<g id="a_node2"><a xlink:href="xml__irep_8h.html" target="_top" xlink:title=" ">
<polygon fill="none" stroke="black" points="174,-336.5 174,-355.5 242,-355.5 242,-336.5 174,-336.5"/>
<text text-anchor="middle" x="208" y="-343.5" font-family="Helvetica,sans-Serif" font-size="10.00">xml_irep.h</text>
</a>
</g>
</g>
<!-- Node1&#45;&gt;Node2 -->
<g id="edge1" class="edge">
<title>Node1&#45;&gt;Node2</title>
<path fill="none" stroke="midnightblue" d="M743.96,-400.28C640.16,-391.38 445.53,-374.11 280,-356 270.99,-355.01 261.36,-353.87 252.17,-352.74"/>
<polygon fill="midnightblue" stroke="midnightblue" points="252.39,-349.24 242.04,-351.47 251.53,-356.19 252.39,-349.24"/>
</g>
<!-- Node6 -->
<g id="node6" class="node">
<title>Node6</title>
<g id="a_node6"><a xlink:title=" ">
<polygon fill="none" stroke="#bfbfbf" points="532,-0.5 532,-19.5 576,-19.5 576,-0.5 532,-0.5"/>
<text text-anchor="middle" x="554" y="-7.5" font-family="Helvetica,sans-Serif" font-size="10.00">string</text>
</a>
</g>
</g>
<!-- Node1&#45;&gt;Node6 -->
<g id="edge8" class="edge">
<title>Node1&#45;&gt;Node6</title>
<path fill="none" stroke="midnightblue" d="M743.76,-405.45C599.2,-401.37 294,-382 294,-291 294,-291 294,-291 294,-177 294,-121.49 284.65,-94.12 325,-56 352.95,-29.6 465.3,-17.61 521.56,-13.18"/>
<polygon fill="midnightblue" stroke="midnightblue" points="521.99,-16.65 531.7,-12.41 521.47,-9.67 521.99,-16.65"/>
</g>
<!-- Node8 -->
<g id="node8" class="node">
<title>Node8</title>
<g id="a_node8"><a xlink:title=" ">
<polygon fill="none" stroke="#bfbfbf" points="1001,-336.5 1001,-355.5 1061,-355.5 1061,-336.5 1001,-336.5"/>
<text text-anchor="middle" x="1031" y="-343.5" font-family="Helvetica,sans-Serif" font-size="10.00">iostream</text>
</a>
</g>
</g>
<!-- Node1&#45;&gt;Node8 -->
<g id="edge7" class="edge">
<title>Node1&#45;&gt;Node8</title>
<path fill="none" stroke="midnightblue" d="M868.21,-392.47C905.71,-382 956.28,-367.87 991.05,-358.16"/>
<polygon fill="midnightblue" stroke="midnightblue" points="992.17,-361.48 1000.86,-355.42 990.28,-354.74 992.17,-361.48"/>
</g>
<!-- Node9 -->
<g id="node9" class="node">
<title>Node9</title>
<g id="a_node9"><a xlink:href="irep_8h.html" target="_top" xlink:title=" ">
<polygon fill="none" stroke="black" points="796,-280.5 796,-299.5 840,-299.5 840,-280.5 796,-280.5"/>
<text text-anchor="middle" x="818" y="-287.5" font-family="Helvetica,sans-Serif" font-size="10.00">irep.h</text>
</a>
</g>
</g>
<!-- Node1&#45;&gt;Node9 -->
<g id="edge9" class="edge">
<title>Node1&#45;&gt;Node9</title>
<path fill="none" stroke="midnightblue" d="M818,-392.34C818,-371.62 818,-333.02 818,-309.9"/>
<polygon fill="midnightblue" stroke="midnightblue" points="821.5,-309.67 818,-299.67 814.5,-309.67 821.5,-309.67"/>
</g>
<!-- Node29 -->
<g id="node29" class="node">
<title>Node29</title>
<g id="a_node29"><a xlink:href="source__location_8h.html" target="_top" xlink:title=" ">
<polygon fill="none" stroke="black" points="881,-336.5 881,-355.5 983,-355.5 983,-336.5 881,-336.5"/>
<text text-anchor="middle" x="932" y="-343.5" font-family="Helvetica,sans-Serif" font-size="10.00">source_location.h</text>
</a>
</g>
</g>
<!-- Node1&#45;&gt;Node29 -->
<g id="edge40" class="edge">
<title>Node1&#45;&gt;Node29</title>
<path fill="none" stroke="midnightblue" d="M845.02,-392.4C863.63,-382.68 888.21,-369.86 906.49,-360.31"/>
<polygon fill="midnightblue" stroke="midnightblue" points="908.17,-363.39 915.41,-355.66 904.93,-357.18 908.17,-363.39"/>
</g>
<!-- Node3 -->
<g id="node3" class="node">
<title>Node3</title>
<g id="a_node3"><a xlink:href="xml_8h.html" target="_top" xlink:title=" ">
<polygon fill="none" stroke="black" points="126,-168.5 126,-187.5 170,-187.5 170,-168.5 126,-168.5"/>
<text text-anchor="middle" x="148" y="-175.5" font-family="Helvetica,sans-Serif" font-size="10.00">xml.h</text>
</a>
</g>
</g>
<!-- Node2&#45;&gt;Node3 -->
<g id="edge2" class="edge">
<title>Node2&#45;&gt;Node3</title>
<path fill="none" stroke="midnightblue" d="M204.77,-336.08C195.29,-309.83 167.35,-232.55 154.55,-197.12"/>
<polygon fill="midnightblue" stroke="midnightblue" points="157.79,-195.78 151.1,-187.57 151.2,-198.16 157.79,-195.78"/>
</g>
<!-- Node4 -->
<g id="node4" class="node">
<title>Node4</title>
<g id="a_node4"><a xlink:title=" ">
<polygon fill="none" stroke="#bfbfbf" points="132,-56.5 132,-75.5 164,-75.5 164,-56.5 132,-56.5"/>
<text text-anchor="middle" x="148" y="-63.5" font-family="Helvetica,sans-Serif" font-size="10.00">list</text>
</a>
</g>
</g>
<!-- Node3&#45;&gt;Node4 -->
<g id="edge3" class="edge">
<title>Node3&#45;&gt;Node4</title>
<path fill="none" stroke="midnightblue" d="M148,-168.37C148,-150.62 148,-109.67 148,-85.6"/>
<polygon fill="midnightblue" stroke="midnightblue" points="151.5,-85.59 148,-75.59 144.5,-85.59 151.5,-85.59"/>
</g>
<!-- Node5 -->
<g id="node5" class="node">
<title>Node5</title>
<g id="a_node5"><a xlink:title=" ">
<polygon fill="none" stroke="#bfbfbf" points="0,-112.5 0,-131.5 38,-131.5 38,-112.5 0,-112.5"/>
<text text-anchor="middle" x="19" y="-119.5" font-family="Helvetica,sans-Serif" font-size="10.00">map</text>
</a>
</g>
</g>
<!-- Node3&#45;&gt;Node5 -->
<g id="edge4" class="edge">
<title>Node3&#45;&gt;Node5</title>
<path fill="none" stroke="midnightblue" d="M127.56,-168.44C105.95,-159.4 71.72,-145.07 47.47,-134.92"/>
<polygon fill="midnightblue" stroke="midnightblue" points="48.66,-131.62 38.08,-130.99 45.96,-138.08 48.66,-131.62"/>
</g>
<!-- Node3&#45;&gt;Node6 -->
<g id="edge5" class="edge">
<title>Node3&#45;&gt;Node6</title>
<path fill="none" stroke="midnightblue" d="M141.91,-168.4C127.3,-146.61 93.56,-88.67 123,-56 149.61,-26.47 426.06,-15.03 521.67,-11.93"/>
<polygon fill="midnightblue" stroke="midnightblue" points="522.01,-15.43 531.9,-11.61 521.79,-8.43 522.01,-15.43"/>
</g>
<!-- Node7 -->
<g id="node7" class="node">
<title>Node7</title>
<g id="a_node7"><a xlink:title=" ">
<polygon fill="none" stroke="#bfbfbf" points="191,-112.5 191,-131.5 239,-131.5 239,-112.5 191,-112.5"/>
<text text-anchor="middle" x="215" y="-119.5" font-family="Helvetica,sans-Serif" font-size="10.00">iosfwd</text>
</a>
</g>
</g>
<!-- Node3&#45;&gt;Node7 -->
<g id="edge6" class="edge">
<title>Node3&#45;&gt;Node7</title>
<path fill="none" stroke="midnightblue" d="M158.76,-168.32C168.77,-160.26 183.89,-148.08 195.93,-138.37"/>
<polygon fill="midnightblue" stroke="midnightblue" points="198.45,-140.83 204.04,-131.83 194.06,-135.38 198.45,-140.83"/>
</g>
<!-- Node9&#45;&gt;Node6 -->
<g id="edge10" class="edge">
<title>Node9&#45;&gt;Node6</title>
<path fill="none" stroke="midnightblue" d="M837.41,-280.46C868.99,-265.11 928,-229.64 928,-179 928,-179 928,-179 928,-121 928,-90.77 931.13,-75.46 908,-56 859.78,-15.43 664.65,-10.92 586.55,-10.78"/>
<polygon fill="midnightblue" stroke="midnightblue" points="586.33,-7.28 576.33,-10.79 586.34,-14.28 586.33,-7.28"/>
</g>
<!-- Node10 -->
<g id="node10" class="node">
<title>Node10</title>
<g id="a_node10"><a xlink:title=" ">
<polygon fill="none" stroke="#bfbfbf" points="546.5,-56.5 546.5,-75.5 593.5,-75.5 593.5,-56.5 546.5,-56.5"/>
<text text-anchor="middle" x="570" y="-63.5" font-family="Helvetica,sans-Serif" font-size="10.00">vector</text>
</a>
</g>
</g>
<!-- Node9&#45;&gt;Node10 -->
<g id="edge11" class="edge">
<title>Node9&#45;&gt;Node10</title>
<path fill="none" stroke="midnightblue" d="M795.81,-289.15C739.97,-288.16 593.76,-276.82 533,-188 510.58,-155.22 538.28,-108.39 556.49,-83.7"/>
<polygon fill="midnightblue" stroke="midnightblue" points="559.34,-85.74 562.66,-75.68 553.79,-81.47 559.34,-85.74"/>
</g>
<!-- Node11 -->
<g id="node11" class="node">
<title>Node11</title>
<g id="a_node11"><a xlink:href="src_2util_2invariant_8h.html" target="_top" xlink:title=" ">
<polygon fill="none" stroke="black" points="783.5,-112.5 783.5,-131.5 852.5,-131.5 852.5,-112.5 783.5,-112.5"/>
<text text-anchor="middle" x="818" y="-119.5" font-family="Helvetica,sans-Serif" font-size="10.00">invariant.h</text>
</a>
</g>
</g>
<!-- Node9&#45;&gt;Node11 -->
<g id="edge12" class="edge">
<title>Node9&#45;&gt;Node11</title>
<path fill="none" stroke="midnightblue" d="M824.27,-280.38C836.03,-263.61 861.04,-224.99 870,-188 872.09,-179.36 873.7,-176.08 870,-168 864.22,-155.36 852.95,-144.91 842.37,-137.27"/>
<polygon fill="midnightblue" stroke="midnightblue" points="844.04,-134.18 833.78,-131.53 840.15,-140 844.04,-134.18"/>
</g>
<!-- Node15 -->
<g id="node15" class="node">
<title>Node15</title>
<g id="a_node15"><a xlink:href="irep__ids_8h.html" target="_top" xlink:title="util">
<polygon fill="none" stroke="black" points="417,-224.5 417,-243.5 481,-243.5 481,-224.5 417,-224.5"/>
<text text-anchor="middle" x="449" y="-231.5" font-family="Helvetica,sans-Serif" font-size="10.00">irep_ids.h</text>
</a>
</g>
</g>
<!-- Node9&#45;&gt;Node15 -->
<g id="edge17" class="edge">
<title>Node9&#45;&gt;Node15</title>
<path fill="none" stroke="midnightblue" d="M795.99,-286.15C744.26,-279.39 610.96,-261.64 500,-244 497.13,-243.54 494.17,-243.06 491.19,-242.56"/>
<polygon fill="midnightblue" stroke="midnightblue" points="491.52,-239.07 481.07,-240.83 490.34,-245.97 491.52,-239.07"/>
</g>
<!-- Node24 -->
<g id="node24" class="node">
<title>Node24</title>
<g id="a_node24"><a xlink:href="forward__list__as__map_8h.html" target="_top" xlink:title=" ">
<polygon fill="none" stroke="black" points="686.5,-224.5 686.5,-243.5 813.5,-243.5 813.5,-224.5 686.5,-224.5"/>
<text text-anchor="middle" x="750" y="-231.5" font-family="Helvetica,sans-Serif" font-size="10.00">forward_list_as_map.h</text>
</a>
</g>
</g>
<!-- Node9&#45;&gt;Node24 -->
<g id="edge33" class="edge">
<title>Node9&#45;&gt;Node24</title>
<path fill="none" stroke="midnightblue" d="M807.07,-280.32C796.83,-272.18 781.28,-259.84 769,-250.09"/>
<polygon fill="midnightblue" stroke="midnightblue" points="771.13,-247.31 761.12,-243.83 766.78,-252.79 771.13,-247.31"/>
</g>
<!-- Node11&#45;&gt;Node6 -->
<g id="edge15" class="edge">
<title>Node11&#45;&gt;Node6</title>
<path fill="none" stroke="midnightblue" d="M808.77,-112.5C793.25,-98.65 760.45,-71.25 728,-56 681.09,-33.96 621.8,-21.57 585.95,-15.6"/>
<polygon fill="midnightblue" stroke="midnightblue" points="586.48,-12.14 576.05,-14.01 585.37,-19.05 586.48,-12.14"/>
</g>
<!-- Node12 -->
<g id="node12" class="node">
<title>Node12</title>
<g id="a_node12"><a xlink:title=" ">
<polygon fill="none" stroke="#bfbfbf" points="850.5,-56.5 850.5,-75.5 899.5,-75.5 899.5,-56.5 850.5,-56.5"/>
<text text-anchor="middle" x="875" y="-63.5" font-family="Helvetica,sans-Serif" font-size="10.00">cstdlib</text>
</a>
</g>
</g>
<!-- Node11&#45;&gt;Node12 -->
<g id="edge13" class="edge">
<title>Node11&#45;&gt;Node12</title>
<path fill="none" stroke="midnightblue" d="M827.16,-112.32C835.5,-104.42 848.03,-92.55 858.18,-82.94"/>
<polygon fill="midnightblue" stroke="midnightblue" points="860.82,-85.25 865.68,-75.83 856.01,-80.17 860.82,-85.25"/>
</g>
<!-- Node13 -->
<g id="node13" class="node">
<title>Node13</title>
<g id="a_node13"><a xlink:title=" ">
<polygon fill="none" stroke="#bfbfbf" points="776,-56.5 776,-75.5 832,-75.5 832,-56.5 776,-56.5"/>
<text text-anchor="middle" x="804" y="-63.5" font-family="Helvetica,sans-Serif" font-size="10.00">sstream</text>
</a>
</g>
</g>
<!-- Node11&#45;&gt;Node13 -->
<g id="edge14" class="edge">
<title>Node11&#45;&gt;Node13</title>
<path fill="none" stroke="midnightblue" d="M815.69,-112.08C813.83,-104.93 811.16,-94.64 808.85,-85.69"/>
<polygon fill="midnightblue" stroke="midnightblue" points="812.17,-84.55 806.27,-75.75 805.39,-86.31 812.17,-84.55"/>
</g>
<!-- Node14 -->
<g id="node14" class="node">
<title>Node14</title>
<g id="a_node14"><a xlink:title=" ">
<polygon fill="none" stroke="#bfbfbf" points="650.5,-56.5 650.5,-75.5 719.5,-75.5 719.5,-56.5 650.5,-56.5"/>
<text text-anchor="middle" x="685" y="-63.5" font-family="Helvetica,sans-Serif" font-size="10.00">type_traits</text>
</a>
</g>
</g>
<!-- Node11&#45;&gt;Node14 -->
<g id="edge16" class="edge">
<title>Node11&#45;&gt;Node14</title>
<path fill="none" stroke="midnightblue" d="M796.93,-112.44C774.94,-103.52 740.27,-89.44 715.34,-79.32"/>
<polygon fill="midnightblue" stroke="midnightblue" points="716.56,-76.04 705.98,-75.52 713.92,-82.52 716.56,-76.04"/>
</g>
<!-- Node16 -->
<g id="node16" class="node">
<title>Node16</title>
<g id="a_node16"><a xlink:href="dstring_8h.html" target="_top" xlink:title="Container for C&#45;Strings.">
<polygon fill="none" stroke="black" points="334.5,-168.5 334.5,-187.5 393.5,-187.5 393.5,-168.5 334.5,-168.5"/>
<text text-anchor="middle" x="364" y="-175.5" font-family="Helvetica,sans-Serif" font-size="10.00">dstring.h</text>
</a>
</g>
</g>
<!-- Node15&#45;&gt;Node16 -->
<g id="edge18" class="edge">
<title>Node15&#45;&gt;Node16</title>
<path fill="none" stroke="midnightblue" d="M435.34,-224.32C422.08,-215.9 401.73,-202.97 386.15,-193.07"/>
<polygon fill="midnightblue" stroke="midnightblue" points="387.94,-190.06 377.62,-187.65 384.19,-195.97 387.94,-190.06"/>
</g>
<!-- Node23 -->
<g id="node23" class="node">
<title>Node23</title>
<g id="a_node23"><a xlink:title=" ">
<polygon fill="none" stroke="#bfbfbf" points="412,-168.5 412,-187.5 486,-187.5 486,-168.5 412,-168.5"/>
<text text-anchor="middle" x="449" y="-175.5" font-family="Helvetica,sans-Serif" font-size="10.00">irep_ids.def</text>
</a>
</g>
</g>
<!-- Node15&#45;&gt;Node23 -->
<g id="edge32" class="edge">
<title>Node15&#45;&gt;Node23</title>
<path fill="none" stroke="midnightblue" d="M449,-224.08C449,-217.01 449,-206.86 449,-197.99"/>
<polygon fill="midnightblue" stroke="midnightblue" points="452.5,-197.75 449,-187.75 445.5,-197.75 452.5,-197.75"/>
</g>
<!-- Node16&#45;&gt;Node6 -->
<g id="edge20" class="edge">
<title>Node16&#45;&gt;Node6</title>
<path fill="none" stroke="midnightblue" d="M393.53,-169.27C452.34,-153.16 580.36,-114.3 602,-76 612.4,-57.59 593.92,-38.33 576.95,-25.6"/>
<polygon fill="midnightblue" stroke="midnightblue" points="578.58,-22.46 568.38,-19.57 574.55,-28.19 578.58,-22.46"/>
</g>
<!-- Node16&#45;&gt;Node7 -->
<g id="edge19" class="edge">
<title>Node16&#45;&gt;Node7</title>
<path fill="none" stroke="midnightblue" d="M340.39,-168.44C315.54,-159.44 276.23,-145.19 248.25,-135.05"/>
<polygon fill="midnightblue" stroke="midnightblue" points="249.09,-131.63 238.5,-131.52 246.71,-138.21 249.09,-131.63"/>
</g>
<!-- Node17 -->
<g id="node17" class="node">
<title>Node17</title>
<g id="a_node17"><a xlink:href="magic_8h.html" target="_top" xlink:title="Magic numbers used throughout the codebase.">
<polygon fill="none" stroke="black" points="322,-112.5 322,-131.5 378,-131.5 378,-112.5 322,-112.5"/>
<text text-anchor="middle" x="350" y="-119.5" font-family="Helvetica,sans-Serif" font-size="10.00">magic.h</text>
</a>
</g>
</g>
<!-- Node16&#45;&gt;Node17 -->
<g id="edge21" class="edge">
<title>Node16&#45;&gt;Node17</title>
<path fill="none" stroke="midnightblue" d="M361.69,-168.08C359.83,-160.93 357.16,-150.64 354.85,-141.69"/>
<polygon fill="midnightblue" stroke="midnightblue" points="358.17,-140.55 352.27,-131.75 351.39,-142.31 358.17,-140.55"/>
</g>
<!-- Node19 -->
<g id="node19" class="node">
<title>Node19</title>
<g id="a_node19"><a xlink:href="string__container_8h.html" target="_top" xlink:title="Container for C&#45;Strings.">
<polygon fill="none" stroke="black" points="396,-112.5 396,-131.5 500,-131.5 500,-112.5 396,-112.5"/>
<text text-anchor="middle" x="448" y="-119.5" font-family="Helvetica,sans-Serif" font-size="10.00">string_container.h</text>
</a>
</g>
</g>
<!-- Node16&#45;&gt;Node19 -->
<g id="edge23" class="edge">
<title>Node16&#45;&gt;Node19</title>
<path fill="none" stroke="midnightblue" d="M377.5,-168.32C390.6,-159.9 410.71,-146.97 426.11,-137.07"/>
<polygon fill="midnightblue" stroke="midnightblue" points="428.02,-140.01 434.54,-131.65 424.23,-134.12 428.02,-140.01"/>
</g>
<!-- Node18 -->
<g id="node18" class="node">
<title>Node18</title>
<g id="a_node18"><a xlink:title=" ">
<polygon fill="none" stroke="#bfbfbf" points="140.5,-0.5 140.5,-19.5 193.5,-19.5 193.5,-0.5 140.5,-0.5"/>
<text text-anchor="middle" x="167" y="-7.5" font-family="Helvetica,sans-Serif" font-size="10.00">cstddef</text>
</a>
</g>
</g>
<!-- Node17&#45;&gt;Node18 -->
<g id="edge22" class="edge">
<title>Node17&#45;&gt;Node18</title>
<path fill="none" stroke="midnightblue" d="M321.83,-117.43C263.86,-109.79 135.59,-91.33 123,-76 109.55,-59.62 128.69,-39.15 145.78,-25.6"/>
<polygon fill="midnightblue" stroke="midnightblue" points="147.94,-28.35 153.85,-19.56 143.75,-22.75 147.94,-28.35"/>
</g>
<!-- Node19&#45;&gt;Node4 -->
<g id="edge24" class="edge">
<title>Node19&#45;&gt;Node4</title>
<path fill="none" stroke="midnightblue" d="M395.86,-113C328.51,-102.58 215.74,-84.88 173.84,-75.62"/>
<polygon fill="midnightblue" stroke="midnightblue" points="174.54,-72.19 164,-73.25 172.9,-79 174.54,-72.19"/>
</g>
<!-- Node19&#45;&gt;Node10 -->
<g id="edge26" class="edge">
<title>Node19&#45;&gt;Node10</title>
<path fill="none" stroke="midnightblue" d="M467.33,-112.44C487.32,-103.6 518.74,-89.69 541.56,-79.59"/>
<polygon fill="midnightblue" stroke="midnightblue" points="543.03,-82.76 550.76,-75.52 540.2,-76.36 543.03,-82.76"/>
</g>
<!-- Node20 -->
<g id="node20" class="node">
<title>Node20</title>
<g id="a_node20"><a xlink:title=" ">
<polygon fill="none" stroke="#bfbfbf" points="334.5,-56.5 334.5,-75.5 427.5,-75.5 427.5,-56.5 334.5,-56.5"/>
<text text-anchor="middle" x="381" y="-63.5" font-family="Helvetica,sans-Serif" font-size="10.00">unordered_map</text>
</a>
</g>
</g>
<!-- Node19&#45;&gt;Node20 -->
<g id="edge25" class="edge">
<title>Node19&#45;&gt;Node20</title>
<path fill="none" stroke="midnightblue" d="M437.24,-112.32C427.23,-104.26 412.11,-92.08 400.07,-82.37"/>
<polygon fill="midnightblue" stroke="midnightblue" points="401.94,-79.38 391.96,-75.83 397.55,-84.83 401.94,-79.38"/>
</g>
<!-- Node21 -->
<g id="node21" class="node">
<title>Node21</title>
<g id="a_node21"><a xlink:href="memory__units_8h.html" target="_top" xlink:title=" ">
<polygon fill="none" stroke="black" points="182,-56.5 182,-75.5 278,-75.5 278,-56.5 182,-56.5"/>
<text text-anchor="middle" x="230" y="-63.5" font-family="Helvetica,sans-Serif" font-size="10.00">memory_units.h</text>
</a>
</g>
</g>
<!-- Node19&#45;&gt;Node21 -->
<g id="edge27" class="edge">
<title>Node19&#45;&gt;Node21</title>
<path fill="none" stroke="midnightblue" d="M413.46,-112.44C375.75,-103.1 315.26,-88.12 274.14,-77.93"/>
<polygon fill="midnightblue" stroke="midnightblue" points="274.93,-74.52 264.38,-75.52 273.25,-81.32 274.93,-74.52"/>
</g>
<!-- Node22 -->
<g id="node22" class="node">
<title>Node22</title>
<g id="a_node22"><a xlink:href="string__hash_8h.html" target="_top" xlink:title="string hashing">
<polygon fill="none" stroke="black" points="446,-56.5 446,-75.5 528,-75.5 528,-56.5 446,-56.5"/>
<text text-anchor="middle" x="487" y="-63.5" font-family="Helvetica,sans-Serif" font-size="10.00">string_hash.h</text>
</a>
</g>
</g>
<!-- Node19&#45;&gt;Node22 -->
<g id="edge30" class="edge">
<title>Node19&#45;&gt;Node22</title>
<path fill="none" stroke="midnightblue" d="M454.44,-112.08C459.95,-104.46 468.03,-93.26 474.76,-83.94"/>
<polygon fill="midnightblue" stroke="midnightblue" points="477.66,-85.91 480.68,-75.75 471.99,-81.81 477.66,-85.91"/>
</g>
<!-- Node21&#45;&gt;Node6 -->
<g id="edge29" class="edge">
<title>Node21&#45;&gt;Node6</title>
<path fill="none" stroke="midnightblue" d="M278.16,-56.97C345.2,-45.8 464.85,-25.86 521.96,-16.34"/>
<polygon fill="midnightblue" stroke="midnightblue" points="522.58,-19.79 531.86,-14.69 521.42,-12.88 522.58,-19.79"/>
</g>
<!-- Node21&#45;&gt;Node18 -->
<g id="edge28" class="edge">
<title>Node21&#45;&gt;Node18</title>
<path fill="none" stroke="midnightblue" d="M219.88,-56.32C210.47,-48.26 196.26,-36.08 184.93,-26.37"/>
<polygon fill="midnightblue" stroke="midnightblue" points="187.18,-23.68 177.31,-19.83 182.62,-29 187.18,-23.68"/>
</g>
<!-- Node22&#45;&gt;Node6 -->
<g id="edge31" class="edge">
<title>Node22&#45;&gt;Node6</title>
<path fill="none" stroke="midnightblue" d="M497.76,-56.32C507.77,-48.26 522.89,-36.08 534.93,-26.37"/>
<polygon fill="midnightblue" stroke="midnightblue" points="537.45,-28.83 543.04,-19.83 533.06,-23.38 537.45,-28.83"/>
</g>
<!-- Node25 -->
<g id="node25" class="node">
<title>Node25</title>
<g id="a_node25"><a xlink:title=" ">
<polygon fill="none" stroke="#bfbfbf" points="542,-168.5 542,-187.5 606,-187.5 606,-168.5 542,-168.5"/>
<text text-anchor="middle" x="574" y="-175.5" font-family="Helvetica,sans-Serif" font-size="10.00">algorithm</text>
</a>
</g>
</g>
<!-- Node24&#45;&gt;Node25 -->
<g id="edge34" class="edge">
<title>Node24&#45;&gt;Node25</title>
<path fill="none" stroke="midnightblue" d="M722.11,-224.44C692.25,-215.28 644.69,-200.69 611.54,-190.52"/>
<polygon fill="midnightblue" stroke="midnightblue" points="612.34,-187.1 601.76,-187.52 610.29,-193.8 612.34,-187.1"/>
</g>
<!-- Node26 -->
<g id="node26" class="node">
<title>Node26</title>
<g id="a_node26"><a xlink:title=" ">
<polygon fill="none" stroke="#bfbfbf" points="624,-168.5 624,-187.5 698,-187.5 698,-168.5 624,-168.5"/>
<text text-anchor="middle" x="661" y="-175.5" font-family="Helvetica,sans-Serif" font-size="10.00">forward_list</text>
</a>
</g>
</g>
<!-- Node24&#45;&gt;Node26 -->
<g id="edge35" class="edge">
<title>Node24&#45;&gt;Node26</title>
<path fill="none" stroke="midnightblue" d="M735.7,-224.32C721.82,-215.9 700.51,-202.97 684.2,-193.07"/>
<polygon fill="midnightblue" stroke="midnightblue" points="685.63,-189.85 675.26,-187.65 682,-195.83 685.63,-189.85"/>
</g>
<!-- Node27 -->
<g id="node27" class="node">
<title>Node27</title>
<g id="a_node27"><a xlink:href="as__const_8h.html" target="_top" xlink:title=" ">
<polygon fill="none" stroke="black" points="716,-168.5 716,-187.5 784,-187.5 784,-168.5 716,-168.5"/>
<text text-anchor="middle" x="750" y="-175.5" font-family="Helvetica,sans-Serif" font-size="10.00">as_const.h</text>
</a>
</g>
</g>
<!-- Node24&#45;&gt;Node27 -->
<g id="edge36" class="edge">
<title>Node24&#45;&gt;Node27</title>
<path fill="none" stroke="midnightblue" d="M750,-224.08C750,-217.01 750,-206.86 750,-197.99"/>
<polygon fill="midnightblue" stroke="midnightblue" points="753.5,-197.75 750,-187.75 746.5,-197.75 753.5,-197.75"/>
</g>
<!-- Node28 -->
<g id="node28" class="node">
<title>Node28</title>
<g id="a_node28"><a xlink:href="narrow_8h.html" target="_top" xlink:title=" ">
<polygon fill="none" stroke="black" points="802.5,-168.5 802.5,-187.5 861.5,-187.5 861.5,-168.5 802.5,-168.5"/>
<text text-anchor="middle" x="832" y="-175.5" font-family="Helvetica,sans-Serif" font-size="10.00">narrow.h</text>
</a>
</g>
</g>
<!-- Node24&#45;&gt;Node28 -->
<g id="edge37" class="edge">
<title>Node24&#45;&gt;Node28</title>
<path fill="none" stroke="midnightblue" d="M763.17,-224.32C775.85,-215.98 795.23,-203.21 810.21,-193.35"/>
<polygon fill="midnightblue" stroke="midnightblue" points="812.43,-196.08 818.86,-187.65 808.58,-190.23 812.43,-196.08"/>
</g>
<!-- Node28&#45;&gt;Node11 -->
<g id="edge39" class="edge">
<title>Node28&#45;&gt;Node11</title>
<path fill="none" stroke="midnightblue" d="M829.69,-168.08C827.83,-160.93 825.16,-150.64 822.85,-141.69"/>
<polygon fill="midnightblue" stroke="midnightblue" points="826.17,-140.55 820.27,-131.75 819.39,-142.31 826.17,-140.55"/>
</g>
<!-- Node28&#45;&gt;Node14 -->
<g id="edge38" class="edge">
<title>Node28&#45;&gt;Node14</title>
<path fill="none" stroke="midnightblue" d="M820.47,-168.37C795.45,-149.65 735.98,-105.15 704.82,-81.83"/>
<polygon fill="midnightblue" stroke="midnightblue" points="706.58,-78.78 696.48,-75.59 702.39,-84.39 706.58,-78.78"/>
</g>
<!-- Node29&#45;&gt;Node6 -->
<g id="edge44" class="edge">
<title>Node29&#45;&gt;Node6</title>
<path fill="none" stroke="midnightblue" d="M936.59,-336.44C945.87,-318.29 966,-274.38 966,-235 966,-235 966,-235 966,-121 966,-87.76 956.69,-74.39 929,-56 873.07,-18.85 666.62,-12.34 586.28,-11.22"/>
<polygon fill="midnightblue" stroke="midnightblue" points="586.29,-7.72 576.25,-11.1 586.21,-14.72 586.29,-7.72"/>
</g>
<!-- Node29&#45;&gt;Node9 -->
<g id="edge42" class="edge">
<title>Node29&#45;&gt;Node9</title>
<path fill="none" stroke="midnightblue" d="M913.94,-336.44C895.43,-327.68 866.42,-313.94 845.14,-303.86"/>
<polygon fill="midnightblue" stroke="midnightblue" points="846.51,-300.63 835.98,-299.52 843.52,-306.96 846.51,-300.63"/>
</g>
<!-- Node30 -->
<g id="node30" class="node">
<title>Node30</title>
<g id="a_node30"><a xlink:href="deprecate_8h.html" target="_top" xlink:title=" ">
<polygon fill="none" stroke="black" points="994,-280.5 994,-299.5 1068,-299.5 1068,-280.5 994,-280.5"/>
<text text-anchor="middle" x="1031" y="-287.5" font-family="Helvetica,sans-Serif" font-size="10.00">deprecate.h</text>
</a>
</g>
</g>
<!-- Node29&#45;&gt;Node30 -->
<g id="edge41" class="edge">
<title>Node29&#45;&gt;Node30</title>
<path fill="none" stroke="midnightblue" d="M947.91,-336.32C963.64,-327.74 987.94,-314.49 1006.21,-304.52"/>
<polygon fill="midnightblue" stroke="midnightblue" points="1008.03,-307.52 1015.13,-299.65 1004.68,-301.37 1008.03,-307.52"/>
</g>
<!-- Node31 -->
<g id="node31" class="node">
<title>Node31</title>
<g id="a_node31"><a xlink:title=" ">
<polygon fill="none" stroke="#bfbfbf" points="1086,-280.5 1086,-299.5 1142,-299.5 1142,-280.5 1086,-280.5"/>
<text text-anchor="middle" x="1114" y="-287.5" font-family="Helvetica,sans-Serif" font-size="10.00">optional</text>
</a>
</g>
</g>
<!-- Node29&#45;&gt;Node31 -->
<g id="edge43" class="edge">
<title>Node29&#45;&gt;Node31</title>
<path fill="none" stroke="midnightblue" d="M960.84,-336.44C992.04,-327.19 1041.91,-312.39 1076.22,-302.21"/>
<polygon fill="midnightblue" stroke="midnightblue" points="1077.3,-305.54 1085.89,-299.34 1075.31,-298.83 1077.3,-305.54"/>
</g>
</g>
</svg>
