<?xml version="1.0" encoding="UTF-8" standalone="no"?>
<!DOCTYPE svg PUBLIC "-//W3C//DTD SVG 1.1//EN"
 "http://www.w3.org/Graphics/SVG/1.1/DTD/svg11.dtd">
<!-- Generated by graphviz version 2.43.0 (0)
 -->
<!-- Title: /home/runner/work/cbmc/cbmc/src/xmllang/xml_parser.cpp Pages: 1 -->
<svg width="797pt" height="610pt"
 viewBox="0.00 0.00 796.90 610.00" xmlns="http://www.w3.org/2000/svg" xmlns:xlink="http://www.w3.org/1999/xlink">
<g id="graph0" class="graph" transform="scale(1 1) rotate(0) translate(4 606)">
<title>/home/runner/work/cbmc/cbmc/src/xmllang/xml_parser.cpp</title>
<!-- Node1 -->
<g id="node1" class="node">
<title>Node1</title>
<g id="a_node1"><a xlink:title=" ">
<polygon fill="#bfbfbf" stroke="black" points="147,-560.5 147,-601.5 285,-601.5 285,-560.5 147,-560.5"/>
<text text-anchor="start" x="155" y="-589.5" font-family="Helvetica,sans-Serif" font-size="10.00">/home/runner/work/cbmc</text>
<text text-anchor="start" x="155" y="-578.5" font-family="Helvetica,sans-Serif" font-size="10.00">/cbmc/src/xmllang/xml</text>
<text text-anchor="middle" x="216" y="-567.5" font-family="Helvetica,sans-Serif" font-size="10.00">_parser.cpp</text>
</a>
</g>
</g>
<!-- Node2 -->
<g id="node2" class="node">
<title>Node2</title>
<g id="a_node2"><a xlink:href="xml__parser_8h.html" target="_top" xlink:title=" ">
<polygon fill="none" stroke="black" points="133,-504.5 133,-523.5 213,-523.5 213,-504.5 133,-504.5"/>
<text text-anchor="middle" x="173" y="-511.5" font-family="Helvetica,sans-Serif" font-size="10.00">xml_parser.h</text>
</a>
</g>
</g>
<!-- Node1&#45;&gt;Node2 -->
<g id="edge1" class="edge">
<title>Node1&#45;&gt;Node2</title>
<path fill="none" stroke="midnightblue" d="M203.1,-560.5C197.14,-551.49 190.13,-540.89 184.37,-532.19"/>
<polygon fill="midnightblue" stroke="midnightblue" points="187.16,-530.06 178.72,-523.65 181.32,-533.92 187.16,-530.06"/>
</g>
<!-- Node43 -->
<g id="node29" class="node">
<title>Node43</title>
<g id="a_node29"><a xlink:title=" ">
<polygon fill="none" stroke="#bfbfbf" points="231.5,-504.5 231.5,-523.5 286.5,-523.5 286.5,-504.5 231.5,-504.5"/>
<text text-anchor="middle" x="259" y="-511.5" font-family="Helvetica,sans-Serif" font-size="10.00">fstream</text>
</a>
</g>
</g>
<!-- Node1&#45;&gt;Node43 -->
<g id="edge48" class="edge">
<title>Node1&#45;&gt;Node43</title>
<path fill="none" stroke="midnightblue" d="M228.9,-560.5C234.86,-551.49 241.87,-540.89 247.63,-532.19"/>
<polygon fill="midnightblue" stroke="midnightblue" points="250.68,-533.92 253.28,-523.65 244.84,-530.06 250.68,-533.92"/>
</g>
<!-- Node3 -->
<g id="node3" class="node">
<title>Node3</title>
<g id="a_node3"><a xlink:href="parser_8h.html" target="_top" xlink:title="Parser utilities.">
<polygon fill="none" stroke="black" points="193,-448.5 193,-467.5 267,-467.5 267,-448.5 193,-448.5"/>
<text text-anchor="middle" x="230" y="-455.5" font-family="Helvetica,sans-Serif" font-size="10.00">util/parser.h</text>
</a>
</g>
</g>
<!-- Node2&#45;&gt;Node3 -->
<g id="edge2" class="edge">
<title>Node2&#45;&gt;Node3</title>
<path fill="none" stroke="midnightblue" d="M182.16,-504.32C190.5,-496.42 203.03,-484.55 213.18,-474.94"/>
<polygon fill="midnightblue" stroke="midnightblue" points="215.82,-477.25 220.68,-467.83 211.01,-472.17 215.82,-477.25"/>
</g>
<!-- Node40 -->
<g id="node25" class="node">
<title>Node40</title>
<g id="a_node25"><a xlink:href="xml__parse__tree_8h.html" target="_top" xlink:title=" ">
<polygon fill="none" stroke="black" points="69.5,-448.5 69.5,-467.5 170.5,-467.5 170.5,-448.5 69.5,-448.5"/>
<text text-anchor="middle" x="120" y="-455.5" font-family="Helvetica,sans-Serif" font-size="10.00">xml_parse_tree.h</text>
</a>
</g>
</g>
<!-- Node2&#45;&gt;Node40 -->
<g id="edge42" class="edge">
<title>Node2&#45;&gt;Node40</title>
<path fill="none" stroke="midnightblue" d="M164.25,-504.08C156.53,-496.22 145.1,-484.57 135.78,-475.08"/>
<polygon fill="midnightblue" stroke="midnightblue" points="138.09,-472.44 128.59,-467.75 133.1,-477.34 138.09,-472.44"/>
</g>
<!-- Node4 -->
<g id="node4" class="node">
<title>Node4</title>
<g id="a_node4"><a xlink:href="expr_8h.html" target="_top" xlink:title=" ">
<polygon fill="none" stroke="black" points="541.5,-392.5 541.5,-411.5 588.5,-411.5 588.5,-392.5 541.5,-392.5"/>
<text text-anchor="middle" x="565" y="-399.5" font-family="Helvetica,sans-Serif" font-size="10.00">expr.h</text>
</a>
</g>
</g>
<!-- Node3&#45;&gt;Node4 -->
<g id="edge3" class="edge">
<title>Node3&#45;&gt;Node4</title>
<path fill="none" stroke="midnightblue" d="M267.13,-451.01C332.67,-440.45 467.91,-418.65 531.09,-408.47"/>
<polygon fill="midnightblue" stroke="midnightblue" points="531.99,-411.87 541.3,-406.82 530.87,-404.96 531.99,-411.87"/>
</g>
<!-- Node10 -->
<g id="node10" class="node">
<title>Node10</title>
<g id="a_node10"><a xlink:title=" ">
<polygon fill="none" stroke="#bfbfbf" points="246,-0.5 246,-19.5 290,-19.5 290,-0.5 246,-0.5"/>
<text text-anchor="middle" x="268" y="-7.5" font-family="Helvetica,sans-Serif" font-size="10.00">string</text>
</a>
</g>
</g>
<!-- Node3&#45;&gt;Node10 -->
<g id="edge40" class="edge">
<title>Node3&#45;&gt;Node10</title>
<path fill="none" stroke="midnightblue" d="M218.46,-448.43C197.2,-431.57 154,-391.8 154,-347 154,-347 154,-347 154,-121 154,-74.11 204.55,-40.89 238.33,-23.93"/>
<polygon fill="midnightblue" stroke="midnightblue" points="239.87,-27.07 247.36,-19.58 236.83,-20.77 239.87,-27.07"/>
</g>
<!-- Node11 -->
<g id="node11" class="node">
<title>Node11</title>
<g id="a_node11"><a xlink:title=" ">
<polygon fill="none" stroke="#bfbfbf" points="296.5,-56.5 296.5,-75.5 343.5,-75.5 343.5,-56.5 296.5,-56.5"/>
<text text-anchor="middle" x="320" y="-63.5" font-family="Helvetica,sans-Serif" font-size="10.00">vector</text>
</a>
</g>
</g>
<!-- Node3&#45;&gt;Node11 -->
<g id="edge41" class="edge">
<title>Node3&#45;&gt;Node11</title>
<path fill="none" stroke="midnightblue" d="M224.72,-448.23C214.27,-430.04 192,-386.6 192,-347 192,-347 192,-347 192,-177 192,-127.11 248.63,-94.92 286.56,-78.96"/>
<polygon fill="midnightblue" stroke="midnightblue" points="288.25,-82.05 296.22,-75.07 285.64,-75.55 288.25,-82.05"/>
</g>
<!-- Node38 -->
<g id="node22" class="node">
<title>Node38</title>
<g id="a_node22"><a xlink:href="src_2util_2message_8h.html" target="_top" xlink:title=" ">
<polygon fill="none" stroke="black" points="543,-224.5 543,-243.5 613,-243.5 613,-224.5 543,-224.5"/>
<text text-anchor="middle" x="578" y="-231.5" font-family="Helvetica,sans-Serif" font-size="10.00">message.h</text>
</a>
</g>
</g>
<!-- Node3&#45;&gt;Node38 -->
<g id="edge30" class="edge">
<title>Node3&#45;&gt;Node38</title>
<path fill="none" stroke="midnightblue" d="M232.81,-448.06C244.05,-412.3 285.3,-281.44 287,-280 327.29,-245.93 464.97,-252.75 533.06,-243.86"/>
<polygon fill="midnightblue" stroke="midnightblue" points="533.61,-247.31 542.97,-242.35 532.56,-240.39 533.61,-247.31"/>
</g>
<!-- Node18 -->
<g id="node23" class="node">
<title>Node18</title>
<g id="a_node23"><a xlink:title=" ">
<polygon fill="none" stroke="#bfbfbf" points="220,-168.5 220,-187.5 268,-187.5 268,-168.5 220,-168.5"/>
<text text-anchor="middle" x="244" y="-175.5" font-family="Helvetica,sans-Serif" font-size="10.00">iosfwd</text>
</a>
</g>
</g>
<!-- Node3&#45;&gt;Node18 -->
<g id="edge39" class="edge">
<title>Node3&#45;&gt;Node18</title>
<path fill="none" stroke="midnightblue" d="M230,-448.44C230,-429.94 230,-384.81 230,-347 230,-347 230,-347 230,-289 230,-256.54 236.07,-219.12 240.22,-197.36"/>
<polygon fill="midnightblue" stroke="midnightblue" points="243.66,-198 242.17,-187.51 236.79,-196.64 243.66,-198"/>
</g>
<!-- Node39 -->
<g id="node24" class="node">
<title>Node39</title>
<g id="a_node24"><a xlink:title=" ">
<polygon fill="none" stroke="#bfbfbf" points="296,-392.5 296,-411.5 364,-411.5 364,-392.5 296,-392.5"/>
<text text-anchor="middle" x="330" y="-399.5" font-family="Helvetica,sans-Serif" font-size="10.00">filesystem</text>
</a>
</g>
</g>
<!-- Node3&#45;&gt;Node39 -->
<g id="edge38" class="edge">
<title>Node3&#45;&gt;Node39</title>
<path fill="none" stroke="midnightblue" d="M246.07,-448.32C261.96,-439.74 286.51,-426.49 304.96,-416.52"/>
<polygon fill="midnightblue" stroke="midnightblue" points="306.84,-419.49 313.97,-411.65 303.51,-413.33 306.84,-419.49"/>
</g>
<!-- Node5 -->
<g id="node5" class="node">
<title>Node5</title>
<g id="a_node5"><a xlink:href="as__const_8h.html" target="_top" xlink:title=" ">
<polygon fill="none" stroke="black" points="607,-336.5 607,-355.5 675,-355.5 675,-336.5 607,-336.5"/>
<text text-anchor="middle" x="641" y="-343.5" font-family="Helvetica,sans-Serif" font-size="10.00">as_const.h</text>
</a>
</g>
</g>
<!-- Node4&#45;&gt;Node5 -->
<g id="edge4" class="edge">
<title>Node4&#45;&gt;Node5</title>
<path fill="none" stroke="midnightblue" d="M577.21,-392.32C588.78,-384.11 606.38,-371.6 620.16,-361.81"/>
<polygon fill="midnightblue" stroke="midnightblue" points="622.44,-364.48 628.57,-355.83 618.39,-358.77 622.44,-364.48"/>
</g>
<!-- Node6 -->
<g id="node6" class="node">
<title>Node6</title>
<g id="a_node6"><a xlink:href="type_8h.html" target="_top" xlink:title="Defines typet, type_with_subtypet and type_with_subtypest.">
<polygon fill="none" stroke="black" points="541.5,-336.5 541.5,-355.5 588.5,-355.5 588.5,-336.5 541.5,-336.5"/>
<text text-anchor="middle" x="565" y="-343.5" font-family="Helvetica,sans-Serif" font-size="10.00">type.h</text>
</a>
</g>
</g>
<!-- Node4&#45;&gt;Node6 -->
<g id="edge5" class="edge">
<title>Node4&#45;&gt;Node6</title>
<path fill="none" stroke="midnightblue" d="M565,-392.08C565,-385.01 565,-374.86 565,-365.99"/>
<polygon fill="midnightblue" stroke="midnightblue" points="568.5,-365.75 565,-355.75 561.5,-365.75 568.5,-365.75"/>
</g>
<!-- Node34 -->
<g id="node18" class="node">
<title>Node34</title>
<g id="a_node18"><a xlink:href="validation__mode_8h.html" target="_top" xlink:title=" ">
<polygon fill="none" stroke="black" points="669.5,-224.5 669.5,-243.5 776.5,-243.5 776.5,-224.5 669.5,-224.5"/>
<text text-anchor="middle" x="723" y="-231.5" font-family="Helvetica,sans-Serif" font-size="10.00">validation_mode.h</text>
</a>
</g>
</g>
<!-- Node4&#45;&gt;Node34 -->
<g id="edge28" class="edge">
<title>Node4&#45;&gt;Node34</title>
<path fill="none" stroke="midnightblue" d="M588.93,-398.15C615.68,-393.73 658.57,-382.72 684,-356 711.17,-327.45 719.41,-279.85 721.91,-253.67"/>
<polygon fill="midnightblue" stroke="midnightblue" points="725.41,-253.83 722.69,-243.59 718.43,-253.29 725.41,-253.83"/>
</g>
<!-- Node35 -->
<g id="node19" class="node">
<title>Node35</title>
<g id="a_node19"><a xlink:href="validate__types_8h.html" target="_top" xlink:title=" ">
<polygon fill="none" stroke="black" points="296,-280.5 296,-299.5 394,-299.5 394,-280.5 296,-280.5"/>
<text text-anchor="middle" x="345" y="-287.5" font-family="Helvetica,sans-Serif" font-size="10.00">validate_types.h</text>
</a>
</g>
</g>
<!-- Node4&#45;&gt;Node35 -->
<g id="edge27" class="edge">
<title>Node4&#45;&gt;Node35</title>
<path fill="none" stroke="midnightblue" d="M541.22,-400.5C504.55,-398.62 433.48,-390.41 386,-356 369.83,-344.28 358.55,-324.05 351.98,-309.26"/>
<polygon fill="midnightblue" stroke="midnightblue" points="355.06,-307.56 348.01,-299.66 348.59,-310.23 355.06,-307.56"/>
</g>
<!-- Node36 -->
<g id="node20" class="node">
<title>Node36</title>
<g id="a_node20"><a xlink:href="validate__expressions_8h.html" target="_top" xlink:title=" ">
<polygon fill="none" stroke="black" points="394.5,-336.5 394.5,-355.5 523.5,-355.5 523.5,-336.5 394.5,-336.5"/>
<text text-anchor="middle" x="459" y="-343.5" font-family="Helvetica,sans-Serif" font-size="10.00">validate_expressions.h</text>
</a>
</g>
</g>
<!-- Node4&#45;&gt;Node36 -->
<g id="edge26" class="edge">
<title>Node4&#45;&gt;Node36</title>
<path fill="none" stroke="midnightblue" d="M547.97,-392.32C530.97,-383.66 504.62,-370.24 485.01,-360.25"/>
<polygon fill="midnightblue" stroke="midnightblue" points="486.49,-357.08 475.99,-355.65 483.31,-363.31 486.49,-357.08"/>
</g>
<!-- Node37 -->
<g id="node21" class="node">
<title>Node37</title>
<g id="a_node21"><a xlink:title=" ">
<polygon fill="none" stroke="#bfbfbf" points="676.5,-168.5 676.5,-187.5 741.5,-187.5 741.5,-168.5 676.5,-168.5"/>
<text text-anchor="middle" x="709" y="-175.5" font-family="Helvetica,sans-Serif" font-size="10.00">functional</text>
</a>
</g>
</g>
<!-- Node4&#45;&gt;Node37 -->
<g id="edge29" class="edge">
<title>Node4&#45;&gt;Node37</title>
<path fill="none" stroke="midnightblue" d="M588.59,-398.02C618.18,-393.31 669.36,-381.87 705,-356 754.72,-319.92 767.08,-302.45 786,-244 788.74,-235.54 790.42,-231.71 786,-224 777.38,-208.99 761.61,-198.5 746.57,-191.46"/>
<polygon fill="midnightblue" stroke="midnightblue" points="747.94,-188.24 737.37,-187.51 745.18,-194.67 747.94,-188.24"/>
</g>
<!-- Node7 -->
<g id="node7" class="node">
<title>Node7</title>
<g id="a_node7"><a xlink:href="source__location_8h.html" target="_top" xlink:title=" ">
<polygon fill="none" stroke="black" points="346,-168.5 346,-187.5 448,-187.5 448,-168.5 346,-168.5"/>
<text text-anchor="middle" x="397" y="-175.5" font-family="Helvetica,sans-Serif" font-size="10.00">source_location.h</text>
</a>
</g>
</g>
<!-- Node6&#45;&gt;Node7 -->
<g id="edge6" class="edge">
<title>Node6&#45;&gt;Node7</title>
<path fill="none" stroke="midnightblue" d="M544.04,-336.44C511.68,-322.14 449.77,-290.35 416,-244 406.15,-230.49 401.38,-211.94 399.09,-198.11"/>
<polygon fill="midnightblue" stroke="midnightblue" points="402.51,-197.25 397.69,-187.82 395.57,-198.2 402.51,-197.25"/>
</g>
<!-- Node32 -->
<g id="node16" class="node">
<title>Node32</title>
<g id="a_node16"><a xlink:href="validate_8h.html" target="_top" xlink:title=" ">
<polygon fill="none" stroke="black" points="551.5,-280.5 551.5,-299.5 616.5,-299.5 616.5,-280.5 551.5,-280.5"/>
<text text-anchor="middle" x="584" y="-287.5" font-family="Helvetica,sans-Serif" font-size="10.00">validate.h</text>
</a>
</g>
</g>
<!-- Node6&#45;&gt;Node32 -->
<g id="edge17" class="edge">
<title>Node6&#45;&gt;Node32</title>
<path fill="none" stroke="midnightblue" d="M568.14,-336.08C570.68,-328.85 574.36,-318.41 577.53,-309.4"/>
<polygon fill="midnightblue" stroke="midnightblue" points="580.9,-310.35 580.92,-299.75 574.3,-308.02 580.9,-310.35"/>
</g>
<!-- Node6&#45;&gt;Node34 -->
<g id="edge25" class="edge">
<title>Node6&#45;&gt;Node34</title>
<path fill="none" stroke="midnightblue" d="M577.4,-336.37C604.4,-317.57 668.75,-272.77 702.12,-249.53"/>
<polygon fill="midnightblue" stroke="midnightblue" points="704.45,-252.18 710.66,-243.59 700.45,-246.43 704.45,-252.18"/>
</g>
<!-- Node6&#45;&gt;Node35 -->
<g id="edge24" class="edge">
<title>Node6&#45;&gt;Node35</title>
<path fill="none" stroke="midnightblue" d="M541.26,-338.21C538.48,-337.45 535.68,-336.7 533,-336 485.3,-323.59 430.45,-310.61 392.35,-301.79"/>
<polygon fill="midnightblue" stroke="midnightblue" points="393.09,-298.37 382.56,-299.53 391.52,-305.19 393.09,-298.37"/>
</g>
<!-- Node8 -->
<g id="node8" class="node">
<title>Node8</title>
<g id="a_node8"><a xlink:href="deprecate_8h.html" target="_top" xlink:title=" ">
<polygon fill="none" stroke="black" points="432,-112.5 432,-131.5 506,-131.5 506,-112.5 432,-112.5"/>
<text text-anchor="middle" x="469" y="-119.5" font-family="Helvetica,sans-Serif" font-size="10.00">deprecate.h</text>
</a>
</g>
</g>
<!-- Node7&#45;&gt;Node8 -->
<g id="edge7" class="edge">
<title>Node7&#45;&gt;Node8</title>
<path fill="none" stroke="midnightblue" d="M408.57,-168.32C419.42,-160.18 435.88,-147.84 448.88,-138.09"/>
<polygon fill="midnightblue" stroke="midnightblue" points="451.32,-140.63 457.22,-131.83 447.12,-135.03 451.32,-140.63"/>
</g>
<!-- Node9 -->
<g id="node9" class="node">
<title>Node9</title>
<g id="a_node9"><a xlink:href="irep_8h.html" target="_top" xlink:title=" ">
<polygon fill="none" stroke="red" points="296,-112.5 296,-131.5 340,-131.5 340,-112.5 296,-112.5"/>
<text text-anchor="middle" x="318" y="-119.5" font-family="Helvetica,sans-Serif" font-size="10.00">irep.h</text>
</a>
</g>
</g>
<!-- Node7&#45;&gt;Node9 -->
<g id="edge8" class="edge">
<title>Node7&#45;&gt;Node9</title>
<path fill="none" stroke="midnightblue" d="M384.31,-168.32C372.1,-159.98 353.42,-147.21 339,-137.35"/>
<polygon fill="midnightblue" stroke="midnightblue" points="340.89,-134.41 330.66,-131.65 336.94,-140.19 340.89,-134.41"/>
</g>
<!-- Node7&#45;&gt;Node10 -->
<g id="edge16" class="edge">
<title>Node7&#45;&gt;Node10</title>
<path fill="none" stroke="midnightblue" d="M348.45,-168.44C326.45,-162.06 302.04,-151.02 287,-132 263.56,-102.36 263.51,-55.57 265.67,-29.71"/>
<polygon fill="midnightblue" stroke="midnightblue" points="269.15,-30.05 266.7,-19.74 262.19,-29.32 269.15,-30.05"/>
</g>
<!-- Node31 -->
<g id="node15" class="node">
<title>Node31</title>
<g id="a_node15"><a xlink:title=" ">
<polygon fill="none" stroke="#bfbfbf" points="358,-112.5 358,-131.5 414,-131.5 414,-112.5 358,-112.5"/>
<text text-anchor="middle" x="386" y="-119.5" font-family="Helvetica,sans-Serif" font-size="10.00">optional</text>
</a>
</g>
</g>
<!-- Node7&#45;&gt;Node31 -->
<g id="edge15" class="edge">
<title>Node7&#45;&gt;Node31</title>
<path fill="none" stroke="midnightblue" d="M395.18,-168.08C393.73,-160.93 391.63,-150.64 389.81,-141.69"/>
<polygon fill="midnightblue" stroke="midnightblue" points="393.21,-140.85 387.78,-131.75 386.35,-142.25 393.21,-140.85"/>
</g>
<!-- Node9&#45;&gt;Node10 -->
<g id="edge9" class="edge">
<title>Node9&#45;&gt;Node10</title>
<path fill="none" stroke="midnightblue" d="M328.57,-112.44C342.76,-99.87 364.9,-75.76 353,-56 341.49,-36.88 318.81,-25.45 299.78,-18.9"/>
<polygon fill="midnightblue" stroke="midnightblue" points="300.83,-15.56 290.24,-15.91 298.73,-22.24 300.83,-15.56"/>
</g>
<!-- Node9&#45;&gt;Node11 -->
<g id="edge10" class="edge">
<title>Node9&#45;&gt;Node11</title>
<path fill="none" stroke="midnightblue" d="M318.33,-112.08C318.59,-105.01 318.97,-94.86 319.3,-85.99"/>
<polygon fill="midnightblue" stroke="midnightblue" points="322.8,-85.87 319.68,-75.75 315.81,-85.61 322.8,-85.87"/>
</g>
<!-- Node12 -->
<g id="node12" class="node">
<title>Node12</title>
<g id="a_node12"><a xlink:href="src_2util_2invariant_8h.html" target="_top" xlink:title=" ">
<polygon fill="none" stroke="red" points="550.5,-56.5 550.5,-75.5 619.5,-75.5 619.5,-56.5 550.5,-56.5"/>
<text text-anchor="middle" x="585" y="-63.5" font-family="Helvetica,sans-Serif" font-size="10.00">invariant.h</text>
</a>
</g>
</g>
<!-- Node9&#45;&gt;Node12 -->
<g id="edge11" class="edge">
<title>Node9&#45;&gt;Node12</title>
<path fill="none" stroke="midnightblue" d="M340.28,-114.26C343.2,-113.45 346.17,-112.68 349,-112 415.13,-96.13 492.75,-82.22 540.4,-74.22"/>
<polygon fill="midnightblue" stroke="midnightblue" points="541.1,-77.65 550.39,-72.55 539.95,-70.74 541.1,-77.65"/>
</g>
<!-- Node12&#45;&gt;Node10 -->
<g id="edge13" class="edge">
<title>Node12&#45;&gt;Node10</title>
<path fill="none" stroke="midnightblue" d="M550.48,-58.59C545.62,-57.71 540.69,-56.82 536,-56 450.97,-41.05 350.57,-24.48 300.22,-16.25"/>
<polygon fill="midnightblue" stroke="midnightblue" points="300.69,-12.78 290.26,-14.62 299.56,-19.69 300.69,-12.78"/>
</g>
<!-- Node14 -->
<g id="node13" class="node">
<title>Node14</title>
<g id="a_node13"><a xlink:title=" ">
<polygon fill="none" stroke="#bfbfbf" points="583,-0.5 583,-19.5 639,-19.5 639,-0.5 583,-0.5"/>
<text text-anchor="middle" x="611" y="-7.5" font-family="Helvetica,sans-Serif" font-size="10.00">sstream</text>
</a>
</g>
</g>
<!-- Node12&#45;&gt;Node14 -->
<g id="edge12" class="edge">
<title>Node12&#45;&gt;Node14</title>
<path fill="none" stroke="midnightblue" d="M589.29,-56.08C592.85,-48.69 598.02,-37.95 602.42,-28.81"/>
<polygon fill="midnightblue" stroke="midnightblue" points="605.6,-30.28 606.79,-19.75 599.29,-27.24 605.6,-30.28"/>
</g>
<!-- Node15 -->
<g id="node14" class="node">
<title>Node15</title>
<g id="a_node14"><a xlink:title=" ">
<polygon fill="none" stroke="#bfbfbf" points="709.5,-0.5 709.5,-19.5 778.5,-19.5 778.5,-0.5 709.5,-0.5"/>
<text text-anchor="middle" x="744" y="-7.5" font-family="Helvetica,sans-Serif" font-size="10.00">type_traits</text>
</a>
</g>
</g>
<!-- Node12&#45;&gt;Node15 -->
<g id="edge14" class="edge">
<title>Node12&#45;&gt;Node15</title>
<path fill="none" stroke="midnightblue" d="M610.19,-56.44C636.94,-47.36 679.4,-32.94 709.31,-22.78"/>
<polygon fill="midnightblue" stroke="midnightblue" points="710.58,-26.05 718.92,-19.52 708.33,-19.42 710.58,-26.05"/>
</g>
<!-- Node32&#45;&gt;Node15 -->
<g id="edge18" class="edge">
<title>Node32&#45;&gt;Node15</title>
<path fill="none" stroke="midnightblue" d="M592.3,-280.4C605.7,-266.9 633.4,-240.57 661,-224 697.93,-201.82 726.85,-223.67 751,-188 784.14,-139.06 763.57,-63.83 751.26,-29.38"/>
<polygon fill="midnightblue" stroke="midnightblue" points="754.42,-27.85 747.63,-19.71 747.87,-30.3 754.42,-27.85"/>
</g>
<!-- Node33 -->
<g id="node17" class="node">
<title>Node33</title>
<g id="a_node17"><a xlink:href="exception__utils_8h.html" target="_top" xlink:title=" ">
<polygon fill="none" stroke="black" points="425,-224.5 425,-243.5 525,-243.5 525,-224.5 425,-224.5"/>
<text text-anchor="middle" x="475" y="-231.5" font-family="Helvetica,sans-Serif" font-size="10.00">exception_utils.h</text>
</a>
</g>
</g>
<!-- Node32&#45;&gt;Node33 -->
<g id="edge19" class="edge">
<title>Node32&#45;&gt;Node33</title>
<path fill="none" stroke="midnightblue" d="M566.49,-280.32C548.93,-271.62 521.67,-258.12 501.47,-248.11"/>
<polygon fill="midnightblue" stroke="midnightblue" points="502.98,-244.96 492.47,-243.65 499.88,-251.23 502.98,-244.96"/>
</g>
<!-- Node32&#45;&gt;Node34 -->
<g id="edge23" class="edge">
<title>Node32&#45;&gt;Node34</title>
<path fill="none" stroke="midnightblue" d="M606.02,-280.44C629.1,-271.48 665.56,-257.31 691.64,-247.18"/>
<polygon fill="midnightblue" stroke="midnightblue" points="693.02,-250.4 701.08,-243.52 690.49,-243.88 693.02,-250.4"/>
</g>
<!-- Node33&#45;&gt;Node7 -->
<g id="edge22" class="edge">
<title>Node33&#45;&gt;Node7</title>
<path fill="none" stroke="midnightblue" d="M462.47,-224.32C450.41,-215.98 431.97,-203.21 417.73,-193.35"/>
<polygon fill="midnightblue" stroke="midnightblue" points="419.72,-190.47 409.5,-187.65 415.73,-196.22 419.72,-190.47"/>
</g>
<!-- Node33&#45;&gt;Node10 -->
<g id="edge20" class="edge">
<title>Node33&#45;&gt;Node10</title>
<path fill="none" stroke="midnightblue" d="M426.77,-224.4C377.98,-212.82 305.29,-186.92 273,-132 254.24,-100.09 258.92,-54.85 263.67,-29.7"/>
<polygon fill="midnightblue" stroke="midnightblue" points="267.14,-30.19 265.77,-19.68 260.29,-28.75 267.14,-30.19"/>
</g>
<!-- Node33&#45;&gt;Node12 -->
<g id="edge21" class="edge">
<title>Node33&#45;&gt;Node12</title>
<path fill="none" stroke="midnightblue" d="M480.91,-224.08C498.45,-197.61 550.4,-119.21 573.6,-84.21"/>
<polygon fill="midnightblue" stroke="midnightblue" points="576.72,-85.84 579.32,-75.57 570.88,-81.97 576.72,-85.84"/>
</g>
<!-- Node38&#45;&gt;Node7 -->
<g id="edge37" class="edge">
<title>Node38&#45;&gt;Node7</title>
<path fill="none" stroke="midnightblue" d="M549.32,-224.44C518.47,-215.24 469.27,-200.56 435.17,-190.39"/>
<polygon fill="midnightblue" stroke="midnightblue" points="436.13,-187.02 425.55,-187.52 434.13,-193.73 436.13,-187.02"/>
</g>
<!-- Node38&#45;&gt;Node8 -->
<g id="edge35" class="edge">
<title>Node38&#45;&gt;Node8</title>
<path fill="none" stroke="midnightblue" d="M569.45,-224.37C551.14,-205.89 507.94,-162.29 484.6,-138.74"/>
<polygon fill="midnightblue" stroke="midnightblue" points="487.04,-136.23 477.51,-131.59 482.07,-141.16 487.04,-136.23"/>
</g>
<!-- Node38&#45;&gt;Node10 -->
<g id="edge34" class="edge">
<title>Node38&#45;&gt;Node10</title>
<path fill="none" stroke="midnightblue" d="M575.77,-224.4C569.69,-202.63 550.87,-144.72 515,-112 451.75,-54.31 351.13,-27.28 300.04,-16.71"/>
<polygon fill="midnightblue" stroke="midnightblue" points="300.7,-13.27 290.21,-14.75 299.33,-20.14 300.7,-13.27"/>
</g>
<!-- Node38&#45;&gt;Node12 -->
<g id="edge36" class="edge">
<title>Node38&#45;&gt;Node12</title>
<path fill="none" stroke="midnightblue" d="M579.99,-224.43C581.97,-215.42 584.87,-200.8 586,-188 589.19,-151.85 587.62,-109.4 586.26,-85.6"/>
<polygon fill="midnightblue" stroke="midnightblue" points="589.75,-85.29 585.63,-75.53 582.76,-85.73 589.75,-85.29"/>
</g>
<!-- Node38&#45;&gt;Node14 -->
<g id="edge33" class="edge">
<title>Node38&#45;&gt;Node14</title>
<path fill="none" stroke="midnightblue" d="M582.93,-224.27C587.79,-215.37 595.18,-201.05 600,-188 617.83,-139.77 622.5,-127.01 629,-76 630.12,-67.18 630.68,-64.73 629,-56 627.21,-46.7 623.52,-36.89 619.94,-28.8"/>
<polygon fill="midnightblue" stroke="midnightblue" points="623.06,-27.21 615.62,-19.66 616.73,-30.2 623.06,-27.21"/>
</g>
<!-- Node38&#45;&gt;Node37 -->
<g id="edge31" class="edge">
<title>Node38&#45;&gt;Node37</title>
<path fill="none" stroke="midnightblue" d="M598.76,-224.44C620.32,-215.56 654.26,-201.56 678.79,-191.45"/>
<polygon fill="midnightblue" stroke="midnightblue" points="680.43,-194.56 688.34,-187.52 677.76,-188.09 680.43,-194.56"/>
</g>
<!-- Node38&#45;&gt;Node18 -->
<g id="edge32" class="edge">
<title>Node38&#45;&gt;Node18</title>
<path fill="none" stroke="midnightblue" d="M542.96,-225.68C539.94,-225.09 536.92,-224.52 534,-224 441.86,-207.44 332.58,-191.47 278.24,-183.77"/>
<polygon fill="midnightblue" stroke="midnightblue" points="278.52,-180.28 268.13,-182.35 277.54,-187.21 278.52,-180.28"/>
</g>
<!-- Node41 -->
<g id="node26" class="node">
<title>Node41</title>
<g id="a_node26"><a xlink:href="xml_8h.html" target="_top" xlink:title=" ">
<polygon fill="none" stroke="black" points="62.5,-224.5 62.5,-243.5 125.5,-243.5 125.5,-224.5 62.5,-224.5"/>
<text text-anchor="middle" x="94" y="-231.5" font-family="Helvetica,sans-Serif" font-size="10.00">util/xml.h</text>
</a>
</g>
</g>
<!-- Node40&#45;&gt;Node41 -->
<g id="edge43" class="edge">
<title>Node40&#45;&gt;Node41</title>
<path fill="none" stroke="midnightblue" d="M118.98,-448.3C115.16,-415.63 101.6,-299.87 96.22,-253.96"/>
<polygon fill="midnightblue" stroke="midnightblue" points="99.68,-253.41 95.04,-243.88 92.73,-254.22 99.68,-253.41"/>
</g>
<!-- Node41&#45;&gt;Node10 -->
<g id="edge46" class="edge">
<title>Node41&#45;&gt;Node10</title>
<path fill="none" stroke="midnightblue" d="M95.19,-224.14C99.69,-191.92 116.58,-81.47 140,-56 164.71,-29.13 206.41,-18.3 235.47,-13.94"/>
<polygon fill="midnightblue" stroke="midnightblue" points="236.1,-17.39 245.55,-12.61 235.18,-10.45 236.1,-17.39"/>
</g>
<!-- Node41&#45;&gt;Node18 -->
<g id="edge47" class="edge">
<title>Node41&#45;&gt;Node18</title>
<path fill="none" stroke="midnightblue" d="M117.77,-224.44C142.89,-215.4 182.71,-201.06 210.9,-190.92"/>
<polygon fill="midnightblue" stroke="midnightblue" points="212.12,-194.2 220.34,-187.52 209.75,-187.61 212.12,-194.2"/>
</g>
<!-- Node22 -->
<g id="node27" class="node">
<title>Node22</title>
<g id="a_node27"><a xlink:title=" ">
<polygon fill="none" stroke="#bfbfbf" points="0,-168.5 0,-187.5 32,-187.5 32,-168.5 0,-168.5"/>
<text text-anchor="middle" x="16" y="-175.5" font-family="Helvetica,sans-Serif" font-size="10.00">list</text>
</a>
</g>
</g>
<!-- Node41&#45;&gt;Node22 -->
<g id="edge44" class="edge">
<title>Node41&#45;&gt;Node22</title>
<path fill="none" stroke="midnightblue" d="M81.47,-224.32C69.41,-215.98 50.97,-203.21 36.73,-193.35"/>
<polygon fill="midnightblue" stroke="midnightblue" points="38.72,-190.47 28.5,-187.65 34.73,-196.22 38.72,-190.47"/>
</g>
<!-- Node42 -->
<g id="node28" class="node">
<title>Node42</title>
<g id="a_node28"><a xlink:title=" ">
<polygon fill="none" stroke="#bfbfbf" points="50,-168.5 50,-187.5 88,-187.5 88,-168.5 50,-168.5"/>
<text text-anchor="middle" x="69" y="-175.5" font-family="Helvetica,sans-Serif" font-size="10.00">map</text>
</a>
</g>
</g>
<!-- Node41&#45;&gt;Node42 -->
<g id="edge45" class="edge">
<title>Node41&#45;&gt;Node42</title>
<path fill="none" stroke="midnightblue" d="M89.87,-224.08C86.49,-216.77 81.58,-206.18 77.38,-197.1"/>
<polygon fill="midnightblue" stroke="midnightblue" points="80.43,-195.36 73.05,-187.75 74.08,-198.3 80.43,-195.36"/>
</g>
</g>
</svg>
